<?xml version="1.0" encoding="UTF-8" standalone="no"?>
<!DOCTYPE svg PUBLIC "-//W3C//DTD SVG 1.1//EN"
 "http://www.w3.org/Graphics/SVG/1.1/DTD/svg11.dtd">
<!-- Generated by graphviz version 2.40.1 (20161225.0304)
 -->
<!-- Title: getFramePadding Pages: 1 -->
<svg width="391pt" height="29pt"
 viewBox="0.00 0.00 391.00 29.00" xmlns="http://www.w3.org/2000/svg" xmlns:xlink="http://www.w3.org/1999/xlink">
<g id="graph0" class="graph" transform="scale(1 1) rotate(0) translate(4 25)">
<title>getFramePadding</title>
<!-- Node1 -->
<g id="node1" class="node">
<title>Node1</title>
<polygon fill="#bfbfbf" stroke="#000000" points="0,-.5 0,-20.5 104,-20.5 104,-.5 0,-.5"/>
<text text-anchor="middle" x="52" y="-7.5" font-family="FreeSans" font-size="10.00" fill="#000000">getFramePadding</text>
</g>
<!-- Node2 -->
<g id="node2" class="node">
<title>Node2</title>
<g id="a_node2"><a xlink:href="../../dd/d35/Cframe_8h.html#a9865ee8e25f33106f015f2167da9571b" target="_top" xlink:title="getFrameHdrVersion">
<polygon fill="none" stroke="#000000" points="140,-.5 140,-20.5 259,-20.5 259,-.5 140,-.5"/>
<text text-anchor="middle" x="199.5" y="-7.5" font-family="FreeSans" font-size="10.00" fill="#000000">getFrameHdrVersion</text>
</a>
</g>
</g>
<!-- Node1&#45;&gt;Node2 -->
<g id="edge1" class="edge">
<title>Node1&#45;&gt;Node2</title>
<path fill="none" stroke="#191970" d="M104.003,-10.5C112.349,-10.5 121.1031,-10.5 129.7824,-10.5"/>
<polygon fill="#191970" stroke="#191970" points="129.9081,-14.0001 139.908,-10.5 129.908,-7.0001 129.9081,-14.0001"/>
</g>
<!-- Node3 -->
<g id="node3" class="node">
<title>Node3</title>
<g id="a_node3"><a xlink:href="../../d0/db6/formatError_8C.html#a5e3e311e06d8c0240b4e42af658900fb" target="_top" xlink:title="setFrameError">
<polygon fill="none" stroke="#000000" points="295,-.5 295,-20.5 383,-20.5 383,-.5 295,-.5"/>
<text text-anchor="middle" x="339" y="-7.5" font-family="FreeSans" font-size="10.00" fill="#000000">setFrameError</text>
</a>
</g>
</g>
<!-- Node2&#45;&gt;Node3 -->
<g id="edge2" class="edge">
<title>Node2&#45;&gt;Node3</title>
<path fill="none" stroke="#191970" d="M259.0652,-10.5C267.5941,-10.5 276.3307,-10.5 284.75,-10.5"/>
<polygon fill="#191970" stroke="#191970" points="284.8269,-14.0001 294.8269,-10.5 284.8269,-7.0001 284.8269,-14.0001"/>
</g>
</g>
</svg>
