<?xml version="1.0" encoding="UTF-8" standalone="no"?>
<!DOCTYPE svg PUBLIC "-//W3C//DTD SVG 1.1//EN"
 "http://www.w3.org/Graphics/SVG/1.1/DTD/svg11.dtd">
<!-- Generated by graphviz version 2.40.1 (20161225.0304)
 -->
<!-- Title: pycteq Pages: 1 -->
<svg width="1641pt" height="368pt"
 viewBox="0.00 0.00 1641.00 367.76" xmlns="http://www.w3.org/2000/svg" xmlns:xlink="http://www.w3.org/1999/xlink">
<g id="graph0" class="graph" transform="scale(1 1) rotate(0) translate(4 363.7603)">
<title>pycteq</title>
<!-- Node1 -->
<g id="node1" class="node">
<title>Node1</title>
<polygon fill="#bfbfbf" stroke="#000000" points="0,-182.2603 0,-202.2603 50,-202.2603 50,-182.2603 0,-182.2603"/>
<text text-anchor="middle" x="25" y="-189.2603" font-family="FreeSans" font-size="10.00" fill="#000000">pycteq</text>
</g>
<!-- Node2 -->
<g id="node2" class="node">
<title>Node2</title>
<g id="a_node2"><a xlink:href="../../d6/dcf/pythia6425mod_8f.html#a50867d0838ac3bac097f6b5ebad0367e" target="_top" xlink:title="pypdpr">
<polygon fill="none" stroke="#000000" points="86,-182.2603 86,-202.2603 139,-202.2603 139,-182.2603 86,-182.2603"/>
<text text-anchor="middle" x="112.5" y="-189.2603" font-family="FreeSans" font-size="10.00" fill="#000000">pypdpr</text>
</a>
</g>
</g>
<!-- Node1&#45;&gt;Node2 -->
<g id="edge1" class="edge">
<title>Node1&#45;&gt;Node2</title>
<path fill="none" stroke="#191970" d="M60.3344,-192.2603C68.8052,-192.2603 77.7134,-192.2603 85.7233,-192.2603"/>
<polygon fill="#191970" stroke="#191970" points="60.3087,-188.7604 50.3086,-192.2603 60.3086,-195.7604 60.3087,-188.7604"/>
</g>
<!-- Node3 -->
<g id="node3" class="node">
<title>Node3</title>
<g id="a_node3"><a xlink:href="../../d6/dcf/pythia6425mod_8f.html#a18485907fca6114e02a4ea4be006a91e" target="_top" xlink:title="pypdfu">
<polygon fill="none" stroke="#000000" points="175,-182.2603 175,-202.2603 226,-202.2603 226,-182.2603 175,-182.2603"/>
<text text-anchor="middle" x="200.5" y="-189.2603" font-family="FreeSans" font-size="10.00" fill="#000000">pypdfu</text>
</a>
</g>
</g>
<!-- Node2&#45;&gt;Node3 -->
<g id="edge2" class="edge">
<title>Node2&#45;&gt;Node3</title>
<path fill="none" stroke="#191970" d="M149.5584,-192.2603C158.1223,-192.2603 167.046,-192.2603 174.9877,-192.2603"/>
<polygon fill="#191970" stroke="#191970" points="149.3811,-188.7604 139.3811,-192.2603 149.381,-195.7604 149.3811,-188.7604"/>
</g>
<!-- Node4 -->
<g id="node4" class="node">
<title>Node4</title>
<g id="a_node4"><a xlink:href="../../d6/dcf/pythia6425mod_8f.html#a2d74d5dd64881524212b3720af2696de" target="_top" xlink:title="pyrand">
<polygon fill="none" stroke="#000000" points="523,-202.2603 523,-222.2603 574,-222.2603 574,-202.2603 523,-202.2603"/>
<text text-anchor="middle" x="548.5" y="-209.2603" font-family="FreeSans" font-size="10.00" fill="#000000">pyrand</text>
</a>
</g>
</g>
<!-- Node3&#45;&gt;Node4 -->
<g id="edge3" class="edge">
<title>Node3&#45;&gt;Node4</title>
<path fill="none" stroke="#191970" d="M235.7377,-205.5415C244.2241,-208.2296 253.3424,-210.7057 262,-212.2603 360.4735,-229.9419 387.1122,-224.9266 487,-219.2603 498.8017,-218.5908 511.8161,-217.2042 522.8221,-215.8404"/>
<polygon fill="#191970" stroke="#191970" points="236.7252,-202.1812 226.1314,-202.331 234.5064,-208.8203 236.7252,-202.1812"/>
</g>
<!-- Node21 -->
<g id="node21" class="node">
<title>Node21</title>
<g id="a_node21"><a xlink:href="../../d6/dcf/pythia6425mod_8f.html#a9f8a08b43157ca5aa62d84247ff26109" target="_top" xlink:title="pysspa">
<polygon fill="none" stroke="#000000" points="346,-65.2603 346,-85.2603 397,-85.2603 397,-65.2603 346,-65.2603"/>
<text text-anchor="middle" x="371.5" y="-72.2603" font-family="FreeSans" font-size="10.00" fill="#000000">pysspa</text>
</a>
</g>
</g>
<!-- Node3&#45;&gt;Node21 -->
<g id="edge23" class="edge">
<title>Node3&#45;&gt;Node21</title>
<path fill="none" stroke="#191970" d="M208.2432,-172.7953C217.7021,-151.6044 235.7545,-118.3317 262,-100.2603 287.0545,-83.0089 322.2353,-77.4992 345.8973,-75.8271"/>
<polygon fill="#191970" stroke="#191970" points="204.9758,-171.5353 204.2918,-182.108 211.4198,-174.2695 204.9758,-171.5353"/>
</g>
<!-- Node22 -->
<g id="node22" class="node">
<title>Node22</title>
<g id="a_node22"><a xlink:href="../../d6/dcf/pythia6425mod_8f.html#a5c7e2372fde451d6f2253ef044e01364" target="_top" xlink:title="pymign">
<polygon fill="none" stroke="#000000" points="433,-47.2603 433,-67.2603 487,-67.2603 487,-47.2603 433,-47.2603"/>
<text text-anchor="middle" x="460" y="-54.2603" font-family="FreeSans" font-size="10.00" fill="#000000">pymign</text>
</a>
</g>
</g>
<!-- Node3&#45;&gt;Node22 -->
<g id="edge38" class="edge">
<title>Node3&#45;&gt;Node22</title>
<path fill="none" stroke="#191970" d="M227.0067,-177.0873C237.7765,-171.0588 250.3951,-164.1672 262,-158.2603 321.0075,-128.2251 338.5695,-126.4031 397,-95.2603 413.4571,-86.4888 431.634,-75.3625 444.2162,-67.4204"/>
<polygon fill="#191970" stroke="#191970" points="225.0809,-174.1551 218.0902,-182.1163 228.5198,-180.2521 225.0809,-174.1551"/>
</g>
<!-- Node25 -->
<g id="node25" class="node">
<title>Node25</title>
<g id="a_node25"><a xlink:href="../../d6/dcf/pythia6425mod_8f.html#ac00de061be805868aa61d626239f5fa9" target="_top" xlink:title="pyptis">
<polygon fill="none" stroke="#000000" points="525,-318.2603 525,-338.2603 572,-338.2603 572,-318.2603 525,-318.2603"/>
<text text-anchor="middle" x="548.5" y="-325.2603" font-family="FreeSans" font-size="10.00" fill="#000000">pyptis</text>
</a>
</g>
</g>
<!-- Node3&#45;&gt;Node25 -->
<g id="edge32" class="edge">
<title>Node3&#45;&gt;Node25</title>
<path fill="none" stroke="#191970" d="M207.9401,-211.874C217.2155,-233.5641 235.1888,-267.8679 262,-286.2603 344.7021,-342.9935 472.4977,-336.8094 524.8791,-331.3162"/>
<polygon fill="#191970" stroke="#191970" points="211.0855,-210.3167 204.0847,-202.3643 204.5983,-212.9467 211.0855,-210.3167"/>
</g>
<!-- Node27 -->
<g id="node27" class="node">
<title>Node27</title>
<g id="a_node27"><a xlink:href="../../d6/dcf/pythia6425mod_8f.html#af1b5061d1d80462745ef6b9ab52500f2" target="_top" xlink:title="pyptmi">
<polygon fill="none" stroke="#000000" points="434.5,-279.2603 434.5,-299.2603 485.5,-299.2603 485.5,-279.2603 434.5,-279.2603"/>
<text text-anchor="middle" x="460" y="-286.2603" font-family="FreeSans" font-size="10.00" fill="#000000">pyptmi</text>
</a>
</g>
</g>
<!-- Node3&#45;&gt;Node27 -->
<g id="edge35" class="edge">
<title>Node3&#45;&gt;Node27</title>
<path fill="none" stroke="#191970" d="M211.2649,-211.5043C221.8403,-228.4272 239.6254,-252.1892 262,-264.2603 317.8028,-294.3656 395.0033,-294.2048 434.4942,-291.665"/>
<polygon fill="#191970" stroke="#191970" points="214.0117,-209.2757 205.8912,-202.4707 207.9956,-212.8545 214.0117,-209.2757"/>
</g>
<!-- Node28 -->
<g id="node28" class="node">
<title>Node28</title>
<g id="a_node28"><a xlink:href="../../d6/dcf/pythia6425mod_8f.html#a3ccdee32be69df9daf5605283165a012" target="_top" xlink:title="pysigh">
<polygon fill="none" stroke="#000000" points="347,-143.2603 347,-163.2603 396,-163.2603 396,-143.2603 347,-143.2603"/>
<text text-anchor="middle" x="371.5" y="-150.2603" font-family="FreeSans" font-size="10.00" fill="#000000">pysigh</text>
</a>
</g>
</g>
<!-- Node3&#45;&gt;Node28 -->
<g id="edge39" class="edge">
<title>Node3&#45;&gt;Node28</title>
<path fill="none" stroke="#191970" d="M235.7269,-180.5892C244.2714,-177.9774 253.4183,-175.3617 262,-173.2603 290.9063,-166.1818 324.6603,-160.3821 346.9691,-156.8841"/>
<polygon fill="#191970" stroke="#191970" points="234.5397,-177.2933 226.0431,-183.6225 236.6322,-183.9733 234.5397,-177.2933"/>
</g>
<!-- Node31 -->
<g id="node31" class="node">
<title>Node31</title>
<g id="a_node31"><a xlink:href="../../d6/dcf/pythia6425mod_8f.html#aeceae4435f53744a1fd6d16580b88e9b" target="_top" xlink:title="pypdfl">
<polygon fill="none" stroke="#000000" points="262,-182.2603 262,-202.2603 310,-202.2603 310,-182.2603 262,-182.2603"/>
<text text-anchor="middle" x="286" y="-189.2603" font-family="FreeSans" font-size="10.00" fill="#000000">pypdfl</text>
</a>
</g>
</g>
<!-- Node3&#45;&gt;Node31 -->
<g id="edge49" class="edge">
<title>Node3&#45;&gt;Node31</title>
<path fill="none" stroke="#191970" d="M236.3464,-192.2603C244.938,-192.2603 253.9116,-192.2603 261.8295,-192.2603"/>
<polygon fill="#191970" stroke="#191970" points="236.1529,-188.7604 226.1528,-192.2603 236.1528,-195.7604 236.1529,-188.7604"/>
</g>
<!-- Node5 -->
<g id="node5" class="node">
<title>Node5</title>
<g id="a_node5"><a xlink:href="../../d6/dcf/pythia6425mod_8f.html#ac81fa418f8cd77b0873b2de2a4140933" target="_top" xlink:title="pyevnt">
<polygon fill="none" stroke="#000000" points="799,-145.2603 799,-165.2603 851,-165.2603 851,-145.2603 799,-145.2603"/>
<text text-anchor="middle" x="825" y="-152.2603" font-family="FreeSans" font-size="10.00" fill="#000000">pyevnt</text>
</a>
</g>
</g>
<!-- Node4&#45;&gt;Node5 -->
<g id="edge4" class="edge">
<title>Node4&#45;&gt;Node5</title>
<path fill="none" stroke="#191970" d="M584.1404,-204.9989C626.7102,-196.3143 700.0709,-181.3119 763,-168.2603 774.738,-165.8258 787.7203,-163.1076 798.7593,-160.7887"/>
<polygon fill="#191970" stroke="#191970" points="583.3604,-201.5859 574.2615,-207.0136 584.7592,-208.4447 583.3604,-201.5859"/>
</g>
<!-- Node19 -->
<g id="node19" class="node">
<title>Node19</title>
<g id="a_node19"><a xlink:href="../../d6/dcf/pythia6425mod_8f.html#a83ae6561ab82fd7af8b1b3e511f477ac" target="_top" xlink:title="pyevnw">
<polygon fill="none" stroke="#000000" points="703.5,-260.2603 703.5,-280.2603 759.5,-280.2603 759.5,-260.2603 703.5,-260.2603"/>
<text text-anchor="middle" x="731.5" y="-267.2603" font-family="FreeSans" font-size="10.00" fill="#000000">pyevnw</text>
</a>
</g>
</g>
<!-- Node4&#45;&gt;Node19 -->
<g id="edge20" class="edge">
<title>Node4&#45;&gt;Node19</title>
<path fill="none" stroke="#191970" d="M569.2404,-228.4463C580.6585,-236.5488 595.4357,-245.7759 610,-251.2603 640.5701,-262.7717 677.9983,-267.31 703.1677,-269.0985"/>
<polygon fill="#191970" stroke="#191970" points="570.9992,-225.3947 560.8718,-222.2822 566.8477,-231.0309 570.9992,-225.3947"/>
</g>
<!-- Node20 -->
<g id="node20" class="node">
<title>Node20</title>
<g id="a_node20"><a xlink:href="../../d6/dcf/pythia6425mod_8f.html#ae7cb37215e5a38b3fb0529c9996646e6" target="_top" xlink:title="pyupev">
<polygon fill="none" stroke="#000000" points="610,-221.2603 610,-241.2603 664,-241.2603 664,-221.2603 610,-221.2603"/>
<text text-anchor="middle" x="637" y="-228.2603" font-family="FreeSans" font-size="10.00" fill="#000000">pyupev</text>
</a>
</g>
</g>
<!-- Node4&#45;&gt;Node20 -->
<g id="edge22" class="edge">
<title>Node4&#45;&gt;Node20</title>
<path fill="none" stroke="#191970" d="M583.9559,-219.8723C592.6077,-221.7297 601.7268,-223.6875 609.9172,-225.4459"/>
<polygon fill="#191970" stroke="#191970" points="584.6098,-216.433 574.0979,-217.7558 583.1404,-223.277 584.6098,-216.433"/>
</g>
<!-- Node6 -->
<g id="node6" class="node">
<title>Node6</title>
<g id="a_node6"><a xlink:href="../../d3/dd5/jewel-2_82_80_8f.html#aeb24fa7919aa21c652e9c8f2ec45cb91" target="_top" xlink:title="genevent">
<polygon fill="none" stroke="#000000" points="887,-145.2603 887,-165.2603 952,-165.2603 952,-145.2603 887,-145.2603"/>
<text text-anchor="middle" x="919.5" y="-152.2603" font-family="FreeSans" font-size="10.00" fill="#000000">genevent</text>
</a>
</g>
</g>
<!-- Node5&#45;&gt;Node6 -->
<g id="edge5" class="edge">
<title>Node5&#45;&gt;Node6</title>
<path fill="none" stroke="#191970" d="M861.33,-155.2603C869.6992,-155.2603 878.552,-155.2603 886.7582,-155.2603"/>
<polygon fill="#191970" stroke="#191970" points="861.0727,-151.7604 851.0727,-155.2603 861.0727,-158.7604 861.0727,-151.7604"/>
</g>
<!-- Node18 -->
<g id="node18" class="node">
<title>Node18</title>
<g id="a_node18"><a xlink:href="../../d6/dcf/pythia6425mod_8f.html#a4cc0e611278607d6b413b5cecdfe16c3" target="_top" xlink:title="pytest">
<polygon fill="none" stroke="#000000" points="895.5,-106.2603 895.5,-126.2603 943.5,-126.2603 943.5,-106.2603 895.5,-106.2603"/>
<text text-anchor="middle" x="919.5" y="-113.2603" font-family="FreeSans" font-size="10.00" fill="#000000">pytest</text>
</a>
</g>
</g>
<!-- Node5&#45;&gt;Node18 -->
<g id="edge19" class="edge">
<title>Node5&#45;&gt;Node18</title>
<path fill="none" stroke="#191970" d="M858.677,-141.3618C870.7543,-136.3775 884.1244,-130.8597 895.2464,-126.2697"/>
<polygon fill="#191970" stroke="#191970" points="857.2446,-138.1665 849.3361,-145.2168 859.9151,-144.6372 857.2446,-138.1665"/>
</g>
<!-- Node7 -->
<g id="node7" class="node">
<title>Node7</title>
<g id="a_node7"><a xlink:href="../../d6/d45/classEpFinderEval.html#af537855512c06847c1021dd83f015031" target="_top" xlink:title="EpFinderEval::fill_tree">
<polygon fill="none" stroke="#000000" points="1032,-234.2603 1032,-254.2603 1158,-254.2603 1158,-234.2603 1032,-234.2603"/>
<text text-anchor="middle" x="1095" y="-241.2603" font-family="FreeSans" font-size="10.00" fill="#000000">EpFinderEval::fill_tree</text>
</a>
</g>
</g>
<!-- Node6&#45;&gt;Node7 -->
<g id="edge6" class="edge">
<title>Node6&#45;&gt;Node7</title>
<path fill="none" stroke="#191970" d="M932.1322,-173.5232C944.4351,-189.811 964.6586,-212.9304 988,-225.2603 1001.346,-232.3101 1016.8,-236.8093 1031.7411,-239.6635"/>
<polygon fill="#191970" stroke="#191970" points="934.8556,-171.3171 926.1427,-165.2892 929.1948,-175.4349 934.8556,-171.3171"/>
</g>
<!-- Node9 -->
<g id="node9" class="node">
<title>Node9</title>
<g id="a_node9"><a xlink:href="../../dd/d2a/classPHHepMCGenHelper.html#ab0c755f6e53c0bf57ccd314a0017d227" target="_top" xlink:title="send HepMC::GenEvent to DST tree. This function takes ownership of evt">
<polygon fill="none" stroke="#000000" points="1017,-183.2603 1017,-215.2603 1173,-215.2603 1173,-183.2603 1017,-183.2603"/>
<text text-anchor="start" x="1025" y="-202.2603" font-family="FreeSans" font-size="10.00" fill="#000000">PHHepMCGenHelper::insert</text>
<text text-anchor="middle" x="1095" y="-190.2603" font-family="FreeSans" font-size="10.00" fill="#000000">_event</text>
</a>
</g>
</g>
<!-- Node6&#45;&gt;Node9 -->
<g id="edge8" class="edge">
<title>Node6&#45;&gt;Node9</title>
<path fill="none" stroke="#191970" d="M961.8598,-165.8804C982.5671,-171.072 1007.9279,-177.4302 1030.9392,-183.1994"/>
<polygon fill="#191970" stroke="#191970" points="962.6499,-162.4702 952.0989,-163.4332 960.9475,-169.2601 962.6499,-162.4702"/>
</g>
<!-- Node14 -->
<g id="node14" class="node">
<title>Node14</title>
<g id="a_node14"><a xlink:href="../../d9/d3a/classPHPythia8.html#a5cc4124cc6be2fb2467714e3d3bc5a6a" target="_top" xlink:title="PHPythia8::process\l_event">
<polygon fill="none" stroke="#000000" points="1273,-135.2603 1273,-167.2603 1386,-167.2603 1386,-135.2603 1273,-135.2603"/>
<text text-anchor="start" x="1281" y="-154.2603" font-family="FreeSans" font-size="10.00" fill="#000000">PHPythia8::process</text>
<text text-anchor="middle" x="1329.5" y="-142.2603" font-family="FreeSans" font-size="10.00" fill="#000000">_event</text>
</a>
</g>
</g>
<!-- Node6&#45;&gt;Node14 -->
<g id="edge17" class="edge">
<title>Node6&#45;&gt;Node14</title>
<path fill="none" stroke="#191970" d="M962.4086,-154.8416C1036.8409,-154.1155 1189.8672,-152.6225 1272.902,-151.8124"/>
<polygon fill="#191970" stroke="#191970" points="961.9801,-151.3456 952.0147,-154.943 962.0484,-158.3452 961.9801,-151.3456"/>
</g>
<!-- Node15 -->
<g id="node15" class="node">
<title>Node15</title>
<g id="a_node15"><a xlink:href="../../da/df0/classPHSartre.html#aafe9fd92317ab1f7eee67a9354696c4e" target="_top" xlink:title="PHSartre::process_event">
<polygon fill="none" stroke="#000000" points="1259.5,-96.2603 1259.5,-116.2603 1399.5,-116.2603 1399.5,-96.2603 1259.5,-96.2603"/>
<text text-anchor="middle" x="1329.5" y="-103.2603" font-family="FreeSans" font-size="10.00" fill="#000000">PHSartre::process_event</text>
</a>
</g>
</g>
<!-- Node6&#45;&gt;Node15 -->
<g id="edge16" class="edge">
<title>Node6&#45;&gt;Node15</title>
<path fill="none" stroke="#191970" d="M962.2904,-150.1463C1032.752,-141.7253 1173.8743,-124.8594 1259.1815,-114.6642"/>
<polygon fill="#191970" stroke="#191970" points="961.5287,-146.7123 952.0147,-151.3743 962.3594,-153.6629 961.5287,-146.7123"/>
</g>
<!-- Node16 -->
<g id="node16" class="node">
<title>Node16</title>
<g id="a_node16"><a xlink:href="../../d3/dd5/jewel-2_82_80_8f.html#a15e2df3184692bfe4ca2261638190094" target="_top" xlink:title="jewel">
<polygon fill="none" stroke="#000000" points="1073.5,-67.2603 1073.5,-87.2603 1116.5,-87.2603 1116.5,-67.2603 1073.5,-67.2603"/>
<text text-anchor="middle" x="1095" y="-74.2603" font-family="FreeSans" font-size="10.00" fill="#000000">jewel</text>
</a>
</g>
</g>
<!-- Node6&#45;&gt;Node16 -->
<g id="edge15" class="edge">
<title>Node6&#45;&gt;Node16</title>
<path fill="none" stroke="#191970" d="M947.0966,-139.7304C948.7829,-138.5968 950.4307,-137.4358 952,-136.2603 969.6138,-123.0656 968.6148,-112.6794 988,-102.2603 1015.2214,-87.6293 1050.8391,-81.5043 1073.3256,-78.979"/>
<polygon fill="#191970" stroke="#191970" points="945.135,-136.8293 938.5284,-145.1121 948.8582,-142.7571 945.135,-136.8293"/>
</g>
<!-- Node17 -->
<g id="node17" class="node">
<title>Node17</title>
<g id="a_node17"><a xlink:href="../../de/d99/classFun4AllHepMCPileupInputManager.html#a81bf2b69c3c4d3aae0aadebafe1c2c2e" target="_top" xlink:title="Fun4AllHepMCPileupInputManager::run">
<polygon fill="none" stroke="#000000" points="988,-273.2603 988,-293.2603 1202,-293.2603 1202,-273.2603 988,-273.2603"/>
<text text-anchor="middle" x="1095" y="-280.2603" font-family="FreeSans" font-size="10.00" fill="#000000">Fun4AllHepMCPileupInputManager::run</text>
</a>
</g>
</g>
<!-- Node6&#45;&gt;Node17 -->
<g id="edge18" class="edge">
<title>Node6&#45;&gt;Node17</title>
<path fill="none" stroke="#191970" d="M926.1332,-174.9053C935.6622,-199.9264 955.7213,-242.5199 988,-264.2603 993.2423,-267.791 998.9448,-270.7231 1004.8975,-273.1527"/>
<polygon fill="#191970" stroke="#191970" points="929.3781,-173.5862 922.689,-165.3699 922.7944,-175.9642 929.3781,-173.5862"/>
</g>
<!-- Node8 -->
<g id="node8" class="node">
<title>Node8</title>
<g id="a_node8"><a xlink:href="../../d6/d45/classEpFinderEval.html#a2539c184425a5dceabf6a3be79b31e9a" target="_top" xlink:title="EpFinderEval::process\l_event">
<polygon fill="none" stroke="#000000" points="1265.5,-327.2603 1265.5,-359.2603 1393.5,-359.2603 1393.5,-327.2603 1265.5,-327.2603"/>
<text text-anchor="start" x="1273.5" y="-346.2603" font-family="FreeSans" font-size="10.00" fill="#000000">EpFinderEval::process</text>
<text text-anchor="middle" x="1329.5" y="-334.2603" font-family="FreeSans" font-size="10.00" fill="#000000">_event</text>
</a>
</g>
</g>
<!-- Node7&#45;&gt;Node8 -->
<g id="edge7" class="edge">
<title>Node7&#45;&gt;Node8</title>
<path fill="none" stroke="#191970" d="M1168.2166,-249.8764C1180.1521,-253.0015 1191.8985,-257.5872 1202,-264.2603 1226.0672,-280.159 1214.6041,-301.3892 1238,-318.2603 1246.1478,-324.1357 1255.6078,-328.6306 1265.2922,-332.0693"/>
<polygon fill="#191970" stroke="#191970" points="1168.707,-246.3982 1158.1784,-247.581 1167.1465,-253.2221 1168.707,-246.3982"/>
</g>
<!-- Node10 -->
<g id="node10" class="node">
<title>Node10</title>
<g id="a_node10"><a xlink:href="../../d6/d6f/classFun4AllHepMCInputManager.html#ab6c80a8ee0701bfff5eee3ec3623015c" target="_top" xlink:title="Fun4AllHepMCInputManager::run">
<polygon fill="none" stroke="#000000" points="1238,-288.2603 1238,-308.2603 1421,-308.2603 1421,-288.2603 1238,-288.2603"/>
<text text-anchor="middle" x="1329.5" y="-295.2603" font-family="FreeSans" font-size="10.00" fill="#000000">Fun4AllHepMCInputManager::run</text>
</a>
</g>
</g>
<!-- Node9&#45;&gt;Node10 -->
<g id="edge9" class="edge">
<title>Node9&#45;&gt;Node10</title>
<path fill="none" stroke="#191970" d="M1182.5948,-214.6145C1189.4518,-217.565 1196.0237,-221.0781 1202,-225.2603 1225.6326,-241.798 1214.0926,-263.1222 1238,-279.2603 1243.2445,-282.8004 1249.0146,-285.7029 1255.0285,-288.0798"/>
<polygon fill="#191970" stroke="#191970" points="1183.6855,-211.2835 1173.0965,-210.9297 1181.1537,-217.8097 1183.6855,-211.2835"/>
</g>
<!-- Node11 -->
<g id="node11" class="node">
<title>Node11</title>
<g id="a_node11"><a xlink:href="../../db/d1f/classFun4AllOscarInputManager.html#a1537e89c4e652f70747fbbef18ceadc4" target="_top" xlink:title="Fun4AllOscarInputManager\l::ConvertFromOscar">
<polygon fill="none" stroke="#000000" points="1252.5,-237.2603 1252.5,-269.2603 1406.5,-269.2603 1406.5,-237.2603 1252.5,-237.2603"/>
<text text-anchor="start" x="1260.5" y="-256.2603" font-family="FreeSans" font-size="10.00" fill="#000000">Fun4AllOscarInputManager</text>
<text text-anchor="middle" x="1329.5" y="-244.2603" font-family="FreeSans" font-size="10.00" fill="#000000">::ConvertFromOscar</text>
</a>
</g>
</g>
<!-- Node9&#45;&gt;Node11 -->
<g id="edge10" class="edge">
<title>Node9&#45;&gt;Node11</title>
<path fill="none" stroke="#191970" d="M1174.7233,-217.6187C1202.2825,-223.965 1232.9338,-231.0233 1259.6409,-237.1733"/>
<polygon fill="#191970" stroke="#191970" points="1175.2532,-214.1492 1164.7228,-215.3158 1173.6823,-220.9707 1175.2532,-214.1492"/>
</g>
<!-- Node13 -->
<g id="node13" class="node">
<title>Node13</title>
<g id="a_node13"><a xlink:href="../../dd/da8/classPHPythia6.html#a7a70bdd1c198a83ed143d3e2c4516d0d" target="_top" xlink:title="PHPythia6::process\l_event">
<polygon fill="none" stroke="#000000" points="1273,-186.2603 1273,-218.2603 1386,-218.2603 1386,-186.2603 1273,-186.2603"/>
<text text-anchor="start" x="1281" y="-205.2603" font-family="FreeSans" font-size="10.00" fill="#000000">PHPythia6::process</text>
<text text-anchor="middle" x="1329.5" y="-193.2603" font-family="FreeSans" font-size="10.00" fill="#000000">_event</text>
</a>
</g>
</g>
<!-- Node9&#45;&gt;Node13 -->
<g id="edge12" class="edge">
<title>Node9&#45;&gt;Node13</title>
<path fill="none" stroke="#191970" d="M1183.16,-200.3881C1213.2125,-200.7726 1245.9865,-201.1919 1272.8859,-201.536"/>
<polygon fill="#191970" stroke="#191970" points="1183.1291,-196.8875 1173.0851,-200.2592 1183.0395,-203.8869 1183.1291,-196.8875"/>
</g>
<!-- Node9&#45;&gt;Node14 -->
<g id="edge13" class="edge">
<title>Node9&#45;&gt;Node14</title>
<path fill="none" stroke="#191970" d="M1183.16,-181.2147C1213.2125,-175.0632 1245.9865,-168.3547 1272.8859,-162.8486"/>
<polygon fill="#191970" stroke="#191970" points="1182.1801,-177.8426 1173.0851,-183.2769 1183.5839,-184.7004 1182.1801,-177.8426"/>
</g>
<!-- Node9&#45;&gt;Node15 -->
<g id="edge14" class="edge">
<title>Node9&#45;&gt;Node15</title>
<path fill="none" stroke="#191970" d="M1130.1892,-178.0623C1158.458,-161.8395 1199.6353,-139.9868 1238,-126.2603 1249.0232,-122.3162 1261.0837,-119.0087 1272.7259,-116.2916"/>
<polygon fill="#191970" stroke="#191970" points="1128.3767,-175.0675 1121.4846,-183.1142 1131.8904,-181.1217 1128.3767,-175.0675"/>
</g>
<!-- Node12 -->
<g id="node12" class="node">
<title>Node12</title>
<g id="a_node12"><a xlink:href="../../db/d1f/classFun4AllOscarInputManager.html#a4be602bd8c9fe73f9dcc81c8871784a6" target="_top" xlink:title="Fun4AllOscarInputManager::run">
<polygon fill="none" stroke="#000000" points="1457,-243.2603 1457,-263.2603 1633,-263.2603 1633,-243.2603 1457,-243.2603"/>
<text text-anchor="middle" x="1545" y="-250.2603" font-family="FreeSans" font-size="10.00" fill="#000000">Fun4AllOscarInputManager::run</text>
</a>
</g>
</g>
<!-- Node11&#45;&gt;Node12 -->
<g id="edge11" class="edge">
<title>Node11&#45;&gt;Node12</title>
<path fill="none" stroke="#191970" d="M1416.7391,-253.2603C1430.0061,-253.2603 1443.7039,-253.2603 1456.9873,-253.2603"/>
<polygon fill="#191970" stroke="#191970" points="1416.6918,-249.7604 1406.6918,-253.2603 1416.6917,-256.7604 1416.6918,-249.7604"/>
</g>
<!-- Node19&#45;&gt;Node5 -->
<g id="edge21" class="edge">
<title>Node19&#45;&gt;Node5</title>
<path fill="none" stroke="#191970" d="M746.1649,-252.2232C766.0976,-227.707 801.0651,-184.6989 816.8546,-165.2787"/>
<polygon fill="#191970" stroke="#191970" points="743.3903,-250.0877 739.7975,-260.0548 748.8217,-254.5036 743.3903,-250.0877"/>
</g>
<!-- Node21&#45;&gt;Node5 -->
<g id="edge24" class="edge">
<title>Node21&#45;&gt;Node5</title>
<path fill="none" stroke="#191970" d="M393.1158,-59.3805C425.2761,-37.3681 488.4033,-.2603 548.5,-.2603 548.5,-.2603 548.5,-.2603 637,-.2603 694.7778,-.2603 717.9397,3.9038 763,-32.2603 800.673,-62.4955 817.4957,-121.598 822.9166,-145.1865"/>
<polygon fill="#191970" stroke="#191970" points="391.0726,-56.5384 384.8944,-65.1454 395.0916,-62.2698 391.0726,-56.5384"/>
</g>
<!-- Node21&#45;&gt;Node22 -->
<g id="edge25" class="edge">
<title>Node21&#45;&gt;Node22</title>
<path fill="none" stroke="#191970" d="M406.9559,-68.0489C415.6077,-66.2892 424.7268,-64.4345 432.9172,-62.7686"/>
<polygon fill="#191970" stroke="#191970" points="406.1996,-64.631 397.0979,-70.0539 407.5948,-71.4905 406.1996,-64.631"/>
</g>
<!-- Node22&#45;&gt;Node4 -->
<g id="edge31" class="edge">
<title>Node22&#45;&gt;Node4</title>
<path fill="none" stroke="#191970" d="M483.958,-73.8762C485.037,-74.9685 486.0597,-76.0983 487,-77.2603 519.7273,-117.7018 539.0979,-178.3752 545.8137,-202.1723"/>
<polygon fill="#191970" stroke="#191970" points="486.1521,-71.1465 476.2937,-67.2654 481.5801,-76.4472 486.1521,-71.1465"/>
</g>
<!-- Node22&#45;&gt;Node5 -->
<g id="edge30" class="edge">
<title>Node22&#45;&gt;Node5</title>
<path fill="none" stroke="#191970" d="M497.0465,-46.4971C557.1123,-31.2853 677.6232,-10.2459 763,-57.2603 797.7425,-76.3919 815.7292,-124.1122 822.1745,-145.0921"/>
<polygon fill="#191970" stroke="#191970" points="496.0337,-43.1442 487.2472,-49.0643 497.8078,-49.9157 496.0337,-43.1442"/>
</g>
<!-- Node23 -->
<g id="node23" class="node">
<title>Node23</title>
<g id="a_node23"><a xlink:href="../../d6/dcf/pythia6425mod_8f.html#aac00ac3ccd923c2c3dc37e2b89a9f025" target="_top" xlink:title="pyinit">
<polygon fill="none" stroke="#000000" points="526,-86.2603 526,-106.2603 571,-106.2603 571,-86.2603 526,-86.2603"/>
<text text-anchor="middle" x="548.5" y="-93.2603" font-family="FreeSans" font-size="10.00" fill="#000000">pyinit</text>
</a>
</g>
</g>
<!-- Node22&#45;&gt;Node23 -->
<g id="edge26" class="edge">
<title>Node22&#45;&gt;Node23</title>
<path fill="none" stroke="#191970" d="M492.2121,-71.4554C503.3444,-76.3612 515.5767,-81.7517 525.7863,-86.2508"/>
<polygon fill="#191970" stroke="#191970" points="493.3532,-68.1336 482.7909,-67.3037 490.5304,-74.5392 493.3532,-68.1336"/>
</g>
<!-- Node23&#45;&gt;Node18 -->
<g id="edge29" class="edge">
<title>Node23&#45;&gt;Node18</title>
<path fill="none" stroke="#191970" d="M581.3096,-98.4753C590.5842,-99.0794 600.6871,-99.7167 610,-100.2603 716.3517,-106.4676 843.3352,-112.6442 895.4156,-115.1244"/>
<polygon fill="#191970" stroke="#191970" points="581.4851,-94.9794 571.2765,-97.8141 581.0247,-101.9642 581.4851,-94.9794"/>
</g>
<!-- Node24 -->
<g id="node24" class="node">
<title>Node24</title>
<g id="a_node24"><a xlink:href="../../d3/dd5/jewel-2_82_80_8f.html#a2cba90a4cdaaf1d5de1cf1bfe9afaa2e" target="_top" xlink:title="initpythia">
<polygon fill="none" stroke="#000000" points="700,-67.2603 700,-87.2603 763,-87.2603 763,-67.2603 700,-67.2603"/>
<text text-anchor="middle" x="731.5" y="-74.2603" font-family="FreeSans" font-size="10.00" fill="#000000">initpythia</text>
</a>
</g>
</g>
<!-- Node23&#45;&gt;Node24 -->
<g id="edge27" class="edge">
<title>Node23&#45;&gt;Node24</title>
<path fill="none" stroke="#191970" d="M581.5225,-92.8317C615.084,-89.3472 666.7118,-83.9869 699.792,-80.5523"/>
<polygon fill="#191970" stroke="#191970" points="580.8921,-89.3782 571.3071,-93.8923 581.6151,-96.3408 580.8921,-89.3782"/>
</g>
<!-- Node24&#45;&gt;Node16 -->
<g id="edge28" class="edge">
<title>Node24&#45;&gt;Node16</title>
<path fill="none" stroke="#191970" d="M773.4845,-77.2603C851.0934,-77.2603 1014.4446,-77.2603 1073.2921,-77.2603"/>
<polygon fill="#191970" stroke="#191970" points="773.1224,-73.7604 763.1224,-77.2603 773.1223,-80.7604 773.1224,-73.7604"/>
</g>
<!-- Node26 -->
<g id="node26" class="node">
<title>Node26</title>
<g id="a_node26"><a xlink:href="../../d6/dcf/pythia6425mod_8f.html#a15448b25c4eb515f33e35f86f376af68" target="_top" xlink:title="pyevol">
<polygon fill="none" stroke="#000000" points="612,-299.2603 612,-319.2603 662,-319.2603 662,-299.2603 612,-299.2603"/>
<text text-anchor="middle" x="637" y="-306.2603" font-family="FreeSans" font-size="10.00" fill="#000000">pyevol</text>
</a>
</g>
</g>
<!-- Node25&#45;&gt;Node26 -->
<g id="edge33" class="edge">
<title>Node25&#45;&gt;Node26</title>
<path fill="none" stroke="#191970" d="M582.1719,-321.0313C592.0721,-318.9058 602.7228,-316.6192 611.9796,-314.6319"/>
<polygon fill="#191970" stroke="#191970" points="581.2589,-317.6474 572.2164,-323.1686 582.7283,-324.4915 581.2589,-317.6474"/>
</g>
<!-- Node26&#45;&gt;Node19 -->
<g id="edge34" class="edge">
<title>Node26&#45;&gt;Node19</title>
<path fill="none" stroke="#191970" d="M670.677,-295.3618C682.7543,-290.3775 696.1244,-284.8597 707.2464,-280.2697"/>
<polygon fill="#191970" stroke="#191970" points="669.2446,-292.1665 661.3361,-299.2168 671.9151,-298.6372 669.2446,-292.1665"/>
</g>
<!-- Node27&#45;&gt;Node25 -->
<g id="edge37" class="edge">
<title>Node27&#45;&gt;Node25</title>
<path fill="none" stroke="#191970" d="M492.2121,-303.4554C503.3444,-308.3612 515.5767,-313.7517 525.7863,-318.2508"/>
<polygon fill="#191970" stroke="#191970" points="493.3532,-300.1336 482.7909,-299.3037 490.5304,-306.5392 493.3532,-300.1336"/>
</g>
<!-- Node27&#45;&gt;Node26 -->
<g id="edge36" class="edge">
<title>Node27&#45;&gt;Node26</title>
<path fill="none" stroke="#191970" d="M495.8494,-293.311C530.2965,-297.2034 581.4648,-302.9851 611.8047,-306.4133"/>
<polygon fill="#191970" stroke="#191970" points="496.0671,-289.8134 485.7373,-292.1684 495.2811,-296.7692 496.0671,-289.8134"/>
</g>
<!-- Node28&#45;&gt;Node4 -->
<g id="edge42" class="edge">
<title>Node28&#45;&gt;Node4</title>
<path fill="none" stroke="#191970" d="M405.7167,-164.6658C440.0305,-176.1037 492.0835,-193.4547 522.9517,-203.7442"/>
<polygon fill="#191970" stroke="#191970" points="406.7048,-161.3059 396.1111,-161.464 404.4911,-167.9467 406.7048,-161.3059"/>
</g>
<!-- Node28&#45;&gt;Node22 -->
<g id="edge48" class="edge">
<title>Node28&#45;&gt;Node22</title>
<path fill="none" stroke="#191970" d="M389.8881,-136.0292C392.3531,-133.4924 394.7903,-130.8573 397,-128.2603 414.9792,-107.1291 413.6072,-97.102 433,-77.2603 436.425,-73.7559 440.5093,-70.398 444.4516,-67.4677"/>
<polygon fill="#191970" stroke="#191970" points="387.2708,-133.6948 382.6095,-143.2091 392.1866,-138.6782 387.2708,-133.6948"/>
</g>
<!-- Node28&#45;&gt;Node27 -->
<g id="edge43" class="edge">
<title>Node28&#45;&gt;Node27</title>
<path fill="none" stroke="#191970" d="M383.648,-171.9283C402.5566,-200.9856 438.3987,-256.065 453.2709,-278.9195"/>
<polygon fill="#191970" stroke="#191970" points="386.5397,-169.955 378.1519,-163.4824 380.6726,-173.773 386.5397,-169.955"/>
</g>
<!-- Node29 -->
<g id="node29" class="node">
<title>Node29</title>
<g id="a_node29"><a xlink:href="../../d6/dcf/pythia6425mod_8f.html#aa9cb6f1467302508501201a0e38959d1" target="_top" xlink:title="pymaxi">
<polygon fill="none" stroke="#000000" points="433.5,-86.2603 433.5,-106.2603 486.5,-106.2603 486.5,-86.2603 433.5,-86.2603"/>
<text text-anchor="middle" x="460" y="-93.2603" font-family="FreeSans" font-size="10.00" fill="#000000">pymaxi</text>
</a>
</g>
</g>
<!-- Node28&#45;&gt;Node29 -->
<g id="edge40" class="edge">
<title>Node28&#45;&gt;Node29</title>
<path fill="none" stroke="#191970" d="M395.8772,-137.5597C411.3405,-127.6002 430.8906,-115.0087 444.315,-106.3625"/>
<polygon fill="#191970" stroke="#191970" points="393.834,-134.7125 387.322,-143.0698 397.6244,-140.5975 393.834,-134.7125"/>
</g>
<!-- Node30 -->
<g id="node30" class="node">
<title>Node30</title>
<g id="a_node30"><a xlink:href="../../d6/dcf/pythia6425mod_8f.html#a4ae1a9148440832c122abdaedf3555a7" target="_top" xlink:title="pymult">
<polygon fill="none" stroke="#000000" points="434,-125.2603 434,-145.2603 486,-145.2603 486,-125.2603 434,-125.2603"/>
<text text-anchor="middle" x="460" y="-132.2603" font-family="FreeSans" font-size="10.00" fill="#000000">pymult</text>
</a>
</g>
</g>
<!-- Node28&#45;&gt;Node30 -->
<g id="edge44" class="edge">
<title>Node28&#45;&gt;Node30</title>
<path fill="none" stroke="#191970" d="M406.2302,-146.1965C415.4552,-144.3202 425.2596,-142.3261 433.9351,-140.5616"/>
<polygon fill="#191970" stroke="#191970" points="405.2539,-142.8233 396.1522,-148.2463 406.6492,-149.6829 405.2539,-142.8233"/>
</g>
<!-- Node29&#45;&gt;Node23 -->
<g id="edge41" class="edge">
<title>Node29&#45;&gt;Node23</title>
<path fill="none" stroke="#191970" d="M496.605,-96.2603C506.5176,-96.2603 516.958,-96.2603 525.8545,-96.2603"/>
<polygon fill="#191970" stroke="#191970" points="496.553,-92.7604 486.5529,-96.2603 496.5529,-99.7604 496.553,-92.7604"/>
</g>
<!-- Node30&#45;&gt;Node4 -->
<g id="edge47" class="edge">
<title>Node30&#45;&gt;Node4</title>
<path fill="none" stroke="#191970" d="M479.5034,-152.2293C497.0854,-167.5267 522.3501,-189.5084 536.9273,-202.1914"/>
<polygon fill="#191970" stroke="#191970" points="481.4114,-149.2501 471.5698,-145.3267 476.8167,-154.5311 481.4114,-149.2501"/>
</g>
<!-- Node30&#45;&gt;Node5 -->
<g id="edge46" class="edge">
<title>Node30&#45;&gt;Node5</title>
<path fill="none" stroke="#191970" d="M496.4289,-137.2564C570.0673,-141.2913 735.0493,-150.3314 798.988,-153.8349"/>
<polygon fill="#191970" stroke="#191970" points="496.4264,-133.7511 486.2499,-136.6986 496.0434,-140.7406 496.4264,-133.7511"/>
</g>
<!-- Node30&#45;&gt;Node23 -->
<g id="edge45" class="edge">
<title>Node30&#45;&gt;Node23</title>
<path fill="none" stroke="#191970" d="M492.2121,-121.0651C503.3444,-116.1594 515.5767,-110.7688 525.7863,-106.2697"/>
<polygon fill="#191970" stroke="#191970" points="490.5304,-117.9813 482.7909,-125.2168 493.3532,-124.3869 490.5304,-117.9813"/>
</g>
<!-- Node31&#45;&gt;Node4 -->
<g id="edge50" class="edge">
<title>Node31&#45;&gt;Node4</title>
<path fill="none" stroke="#191970" d="M320.2121,-194.8669C373.5264,-198.9289 475.2359,-206.6782 522.7924,-210.3016"/>
<polygon fill="#191970" stroke="#191970" points="320.4619,-191.3759 310.2249,-194.106 319.93,-198.3556 320.4619,-191.3759"/>
</g>
<!-- Node31&#45;&gt;Node21 -->
<g id="edge51" class="edge">
<title>Node31&#45;&gt;Node21</title>
<path fill="none" stroke="#191970" d="M299.6497,-173.5817C317.9163,-148.5853 349.676,-105.1246 364.0515,-85.4529"/>
<polygon fill="#191970" stroke="#191970" points="296.6619,-171.7383 293.5876,-181.8773 302.3136,-175.8684 296.6619,-171.7383"/>
</g>
<!-- Node31&#45;&gt;Node28 -->
<g id="edge52" class="edge">
<title>Node31&#45;&gt;Node28</title>
<path fill="none" stroke="#191970" d="M317.1202,-178.0651C327.8751,-173.1594 339.6928,-167.7688 349.5562,-163.2697"/>
<polygon fill="#191970" stroke="#191970" points="315.664,-174.8823 308.0184,-182.2168 318.5691,-181.251 315.664,-174.8823"/>
</g>
</g>
</svg>
