<?xml version="1.0" encoding="UTF-8" standalone="no"?>
<!DOCTYPE svg PUBLIC "-//W3C//DTD SVG 1.1//EN"
 "http://www.w3.org/Graphics/SVG/1.1/DTD/svg11.dtd">
<!-- Generated by graphviz version 2.40.1 (20161225.0304)
 -->
<!-- Title: pyboei Pages: 1 -->
<svg width="1187pt" height="367pt"
 viewBox="0.00 0.00 1187.00 367.00" xmlns="http://www.w3.org/2000/svg" xmlns:xlink="http://www.w3.org/1999/xlink">
<g id="graph0" class="graph" transform="scale(1 1) rotate(0) translate(4 363)">
<title>pyboei</title>
<!-- Node1 -->
<g id="node1" class="node">
<title>Node1</title>
<polygon fill="#bfbfbf" stroke="#000000" points="0,-117.5 0,-137.5 50,-137.5 50,-117.5 0,-117.5"/>
<text text-anchor="middle" x="25" y="-124.5" font-family="FreeSans" font-size="10.00" fill="#000000">pyboei</text>
</g>
<!-- Node2 -->
<g id="node2" class="node">
<title>Node2</title>
<g id="a_node2"><a xlink:href="../../d6/dcf/pythia6425mod_8f.html#a5bcab5f268d645f005de48b6ca8f2761" target="_top" xlink:title="pybesq">
<polygon fill="none" stroke="#000000" points="90.5,-156.5 90.5,-176.5 143.5,-176.5 143.5,-156.5 90.5,-156.5"/>
<text text-anchor="middle" x="117" y="-163.5" font-family="FreeSans" font-size="10.00" fill="#000000">pybesq</text>
</a>
</g>
</g>
<!-- Node1&#45;&gt;Node2 -->
<g id="edge1" class="edge">
<title>Node1&#45;&gt;Node2</title>
<path fill="none" stroke="#191970" d="M48.6923,-137.5435C59.4235,-142.0926 72.2919,-147.5476 83.9516,-152.4903"/>
<polygon fill="#191970" stroke="#191970" points="82.815,-155.81 93.388,-156.4906 85.5471,-149.3652 82.815,-155.81"/>
</g>
<!-- Node5 -->
<g id="node5" class="node">
<title>Node5</title>
<g id="a_node5"><a xlink:href="../../d6/dcf/pythia6425mod_8f.html#a98ffa3df00dbe1c8a9944e3453e44580" target="_top" xlink:title="pyrobo">
<polygon fill="none" stroke="#000000" points="184,-195.5 184,-215.5 235,-215.5 235,-195.5 184,-195.5"/>
<text text-anchor="middle" x="209.5" y="-202.5" font-family="FreeSans" font-size="10.00" fill="#000000">pyrobo</text>
</a>
</g>
</g>
<!-- Node1&#45;&gt;Node5 -->
<g id="edge30" class="edge">
<title>Node1&#45;&gt;Node5</title>
<path fill="none" stroke="#191970" d="M32.3975,-137.6045C42.7669,-150.9443 62.9583,-174.0734 86,-185.5 113.3641,-199.0702 147.9311,-203.7667 173.5305,-205.2437"/>
<polygon fill="#191970" stroke="#191970" points="173.4142,-208.7418 183.5586,-205.6856 173.7224,-201.7486 173.4142,-208.7418"/>
</g>
<!-- Node6 -->
<g id="node6" class="node">
<title>Node6</title>
<g id="a_node6"><a xlink:href="../../d6/dcf/pythia6425mod_8f.html#a8a7efe2037220dc632000fb06895ebca" target="_top" xlink:title="pyerrm">
<polygon fill="none" stroke="#000000" points="271,-234.5 271,-254.5 323,-254.5 323,-234.5 271,-234.5"/>
<text text-anchor="middle" x="297" y="-241.5" font-family="FreeSans" font-size="10.00" fill="#000000">pyerrm</text>
</a>
</g>
</g>
<!-- Node1&#45;&gt;Node6 -->
<g id="edge26" class="edge">
<title>Node1&#45;&gt;Node6</title>
<path fill="none" stroke="#191970" d="M29.5139,-137.6754C37.8907,-155.2689 57.6095,-191.1506 86,-208.5 140.3082,-241.6878 216.3912,-246.5821 260.8055,-246.1863"/>
<polygon fill="#191970" stroke="#191970" points="260.9156,-249.685 270.8493,-246.001 260.7864,-242.6862 260.9156,-249.685"/>
</g>
<!-- Node19 -->
<g id="node19" class="node">
<title>Node19</title>
<g id="a_node19"><a xlink:href="../../d6/dcf/pythia6425mod_8f.html#a6cee1eea51c820d9e90932c9eca205b7" target="_top" xlink:title="pyp">
<polygon fill="none" stroke="#000000" points="450,-117.5 450,-137.5 485,-137.5 485,-117.5 450,-117.5"/>
<text text-anchor="middle" x="467.5" y="-124.5" font-family="FreeSans" font-size="10.00" fill="#000000">pyp</text>
</a>
</g>
</g>
<!-- Node1&#45;&gt;Node19 -->
<g id="edge28" class="edge">
<title>Node1&#45;&gt;Node19</title>
<path fill="none" stroke="#191970" d="M50.0675,-127.5C85.5578,-127.5 152.4844,-127.5 209.5,-127.5 209.5,-127.5 209.5,-127.5 297,-127.5 347.2148,-127.5 405.7484,-127.5 439.5256,-127.5"/>
<polygon fill="#191970" stroke="#191970" points="439.5805,-131.0001 449.5805,-127.5 439.5804,-124.0001 439.5805,-131.0001"/>
</g>
<!-- Node21 -->
<g id="node21" class="node">
<title>Node21</title>
<g id="a_node21"><a xlink:href="../../d6/dcf/pythia6425mod_8f.html#ad69903a1054f4f77d45fd8fe4c687aa9" target="_top" xlink:title="pymass">
<polygon fill="none" stroke="#000000" points="532,-78.5 532,-98.5 587,-98.5 587,-78.5 532,-78.5"/>
<text text-anchor="middle" x="559.5" y="-85.5" font-family="FreeSans" font-size="10.00" fill="#000000">pymass</text>
</a>
</g>
</g>
<!-- Node1&#45;&gt;Node21 -->
<g id="edge27" class="edge">
<title>Node1&#45;&gt;Node21</title>
<path fill="none" stroke="#191970" d="M50.0129,-118.7476C85.1633,-107.2491 151.3882,-88.5 209.5,-88.5 209.5,-88.5 209.5,-88.5 381,-88.5 429.6543,-88.5 485.7683,-88.5 521.8921,-88.5"/>
<polygon fill="#191970" stroke="#191970" points="521.979,-92.0001 531.9789,-88.5 521.9789,-85.0001 521.979,-92.0001"/>
</g>
<!-- Node22 -->
<g id="node22" class="node">
<title>Node22</title>
<g id="a_node22"><a xlink:href="../../d6/dcf/pythia6425mod_8f.html#ac28b7ef95cee2881a46f71d3a88d05ac" target="_top" xlink:title="pyr">
<polygon fill="none" stroke="#000000" points="650,-59.5 650,-79.5 683,-79.5 683,-59.5 650,-59.5"/>
<text text-anchor="middle" x="666.5" y="-66.5" font-family="FreeSans" font-size="10.00" fill="#000000">pyr</text>
</a>
</g>
</g>
<!-- Node1&#45;&gt;Node22 -->
<g id="edge29" class="edge">
<title>Node1&#45;&gt;Node22</title>
<path fill="none" stroke="#191970" d="M38.5168,-117.3029C67.9304,-96.16 140.6433,-49.5 209.5,-49.5 209.5,-49.5 209.5,-49.5 467.5,-49.5 529.2839,-49.5 601.3195,-59.1622 639.5072,-65.0549"/>
<polygon fill="#191970" stroke="#191970" points="639.3608,-68.5751 649.7842,-66.6769 640.4521,-61.6607 639.3608,-68.5751"/>
</g>
<!-- Node23 -->
<g id="node23" class="node">
<title>Node23</title>
<g id="a_node23"><a xlink:href="../../d1/d5e/classsHelix.html#a44ff83bf3956f25a18308cc3c7fc1873" target="_top" xlink:title="sHelix::w">
<polygon fill="none" stroke="#000000" points="86,-.5 86,-20.5 148,-20.5 148,-.5 86,-.5"/>
<text text-anchor="middle" x="117" y="-7.5" font-family="FreeSans" font-size="10.00" fill="#000000">sHelix::w</text>
</a>
</g>
</g>
<!-- Node1&#45;&gt;Node23 -->
<g id="edge31" class="edge">
<title>Node1&#45;&gt;Node23</title>
<path fill="none" stroke="#191970" d="M30.3357,-117.3958C39.9842,-99.6613 61.6089,-62.2766 86,-35.5 88.6219,-32.6217 91.5903,-29.8 94.6259,-27.1493"/>
<polygon fill="#191970" stroke="#191970" points="97.0983,-29.6489 102.6265,-20.6106 92.6686,-24.2288 97.0983,-29.6489"/>
</g>
<!-- Node3 -->
<g id="node3" class="node">
<title>Node3</title>
<g id="a_node3"><a xlink:href="../../d6/dcf/pythia6425mod_8f.html#aa8c99978a55999fa0b1fd2a946d8553a" target="_top" xlink:title="pyangl">
<polygon fill="none" stroke="#000000" points="534.5,-195.5 534.5,-215.5 584.5,-215.5 584.5,-195.5 534.5,-195.5"/>
<text text-anchor="middle" x="559.5" y="-202.5" font-family="FreeSans" font-size="10.00" fill="#000000">pyangl</text>
</a>
</g>
</g>
<!-- Node2&#45;&gt;Node3 -->
<g id="edge2" class="edge">
<title>Node2&#45;&gt;Node3</title>
<path fill="none" stroke="#191970" d="M143.5338,-166.5C178.6448,-166.5 242.4688,-166.5 297,-166.5 297,-166.5 297,-166.5 381,-166.5 431.8125,-166.5 488.925,-181.7701 524.5581,-193.2003"/>
<polygon fill="#191970" stroke="#191970" points="523.8629,-196.656 534.4558,-196.4546 526.0493,-190.0062 523.8629,-196.656"/>
</g>
<!-- Node2&#45;&gt;Node5 -->
<g id="edge4" class="edge">
<title>Node2&#45;&gt;Node5</title>
<path fill="none" stroke="#191970" d="M140.821,-176.5435C151.6106,-181.0926 164.5489,-186.5476 176.272,-191.4903"/>
<polygon fill="#191970" stroke="#191970" points="175.1854,-194.8306 185.7597,-195.4906 177.905,-188.3804 175.1854,-194.8306"/>
</g>
<!-- Node4 -->
<g id="node4" class="node">
<title>Node4</title>
<g id="a_node4"><a xlink:href="../../da/d0a/CylinderKalman_8cpp.html#ab74daa0c9784c63e060bfb98cc06fbf5" target="_top" xlink:title="sign">
<polygon fill="none" stroke="#000000" points="648,-175.5 648,-195.5 685,-195.5 685,-175.5 648,-175.5"/>
<text text-anchor="middle" x="666.5" y="-182.5" font-family="FreeSans" font-size="10.00" fill="#000000">sign</text>
</a>
</g>
</g>
<!-- Node3&#45;&gt;Node4 -->
<g id="edge3" class="edge">
<title>Node3&#45;&gt;Node4</title>
<path fill="none" stroke="#191970" d="M584.5867,-200.8109C600.4972,-197.837 621.1307,-193.9802 637.7083,-190.8816"/>
<polygon fill="#191970" stroke="#191970" points="638.7393,-194.2496 647.926,-188.9718 637.4531,-187.3688 638.7393,-194.2496"/>
</g>
<!-- Node5&#45;&gt;Node6 -->
<g id="edge5" class="edge">
<title>Node5&#45;&gt;Node6</title>
<path fill="none" stroke="#191970" d="M232.0334,-215.5435C242.1377,-220.0471 254.2341,-225.4386 265.2351,-230.3419"/>
<polygon fill="#191970" stroke="#191970" points="263.9842,-233.6163 274.5429,-234.4906 266.834,-227.2226 263.9842,-233.6163"/>
</g>
<!-- Node7 -->
<g id="node7" class="node">
<title>Node7</title>
<g id="a_node7"><a xlink:href="../../d6/dcf/pythia6425mod_8f.html#acc54128638bbd93cf630e1576f91d443" target="_top" xlink:title="pylist">
<polygon fill="none" stroke="#000000" points="359,-234.5 359,-254.5 403,-254.5 403,-234.5 359,-234.5"/>
<text text-anchor="middle" x="381" y="-241.5" font-family="FreeSans" font-size="10.00" fill="#000000">pylist</text>
</a>
</g>
</g>
<!-- Node6&#45;&gt;Node7 -->
<g id="edge6" class="edge">
<title>Node6&#45;&gt;Node7</title>
<path fill="none" stroke="#191970" d="M323.1177,-244.5C331.1771,-244.5 340.1516,-244.5 348.5819,-244.5"/>
<polygon fill="#191970" stroke="#191970" points="348.8597,-248.0001 358.8596,-244.5 348.8596,-241.0001 348.8597,-248.0001"/>
</g>
<!-- Node11 -->
<g id="node11" class="node">
<title>Node11</title>
<g id="a_node11"><a xlink:href="../../d6/dcf/pythia6425mod_8f.html#a4140396b9ec9bafcebf4c7ebecb462e7" target="_top" xlink:title="pystop">
<polygon fill="none" stroke="#000000" points="534.5,-312.5 534.5,-332.5 584.5,-332.5 584.5,-312.5 534.5,-312.5"/>
<text text-anchor="middle" x="559.5" y="-319.5" font-family="FreeSans" font-size="10.00" fill="#000000">pystop</text>
</a>
</g>
</g>
<!-- Node6&#45;&gt;Node11 -->
<g id="edge25" class="edge">
<title>Node6&#45;&gt;Node11</title>
<path fill="none" stroke="#191970" d="M317.1483,-254.6708C344.1911,-267.8988 394.0385,-290.8098 439,-303.5 467.0527,-311.4178 499.7714,-316.3137 524.0304,-319.1485"/>
<polygon fill="#191970" stroke="#191970" points="523.8774,-322.6529 534.2019,-320.2747 524.6478,-315.6954 523.8774,-322.6529"/>
</g>
<!-- Node8 -->
<g id="node8" class="node">
<title>Node8</title>
<g id="a_node8"><a xlink:href="../../dc/d9f/hcalUtil_8C.html#af562b1ac3ac927ecde202ce0501a97a6" target="_top" xlink:title="ps">
<polygon fill="none" stroke="#000000" points="453,-234.5 453,-254.5 482,-254.5 482,-234.5 453,-234.5"/>
<text text-anchor="middle" x="467.5" y="-241.5" font-family="FreeSans" font-size="10.00" fill="#000000">ps</text>
</a>
</g>
</g>
<!-- Node7&#45;&gt;Node8 -->
<g id="edge7" class="edge">
<title>Node7&#45;&gt;Node8</title>
<path fill="none" stroke="#191970" d="M403.2759,-244.5C415.3554,-244.5 430.3149,-244.5 442.7564,-244.5"/>
<polygon fill="#191970" stroke="#191970" points="442.906,-248.0001 452.9059,-244.5 442.9059,-241.0001 442.906,-248.0001"/>
</g>
<!-- Node10 -->
<g id="node10" class="node">
<title>Node10</title>
<g id="a_node10"><a xlink:href="../../d6/dcf/pythia6425mod_8f.html#a56718d08dbb42b3b978fc9b5bd6970e6" target="_top" xlink:title="pylogo">
<polygon fill="none" stroke="#000000" points="442.5,-273.5 442.5,-293.5 492.5,-293.5 492.5,-273.5 442.5,-273.5"/>
<text text-anchor="middle" x="467.5" y="-280.5" font-family="FreeSans" font-size="10.00" fill="#000000">pylogo</text>
</a>
</g>
</g>
<!-- Node7&#45;&gt;Node10 -->
<g id="edge9" class="edge">
<title>Node7&#45;&gt;Node10</title>
<path fill="none" stroke="#191970" d="M403.2759,-254.5435C413.2647,-259.0471 425.2229,-264.4386 436.0981,-269.3419"/>
<polygon fill="#191970" stroke="#191970" points="434.7447,-272.571 445.2996,-273.4906 437.6219,-266.1896 434.7447,-272.571"/>
</g>
<!-- Node18 -->
<g id="node18" class="node">
<title>Node18</title>
<g id="a_node18"><a xlink:href="../../d6/dcf/pythia6425mod_8f.html#ab0dbe916b7d36854c02faf180f41d585" target="_top" xlink:title="pyname">
<polygon fill="none" stroke="#000000" points="439,-195.5 439,-215.5 496,-215.5 496,-195.5 439,-195.5"/>
<text text-anchor="middle" x="467.5" y="-202.5" font-family="FreeSans" font-size="10.00" fill="#000000">pyname</text>
</a>
</g>
</g>
<!-- Node7&#45;&gt;Node18 -->
<g id="edge18" class="edge">
<title>Node7&#45;&gt;Node18</title>
<path fill="none" stroke="#191970" d="M403.2759,-234.4565C413.2647,-229.9529 425.2229,-224.5614 436.0981,-219.6581"/>
<polygon fill="#191970" stroke="#191970" points="437.6219,-222.8104 445.2996,-215.5094 434.7447,-216.429 437.6219,-222.8104"/>
</g>
<!-- Node7&#45;&gt;Node19 -->
<g id="edge19" class="edge">
<title>Node7&#45;&gt;Node19</title>
<path fill="none" stroke="#191970" d="M388.6763,-234.117C403.3326,-214.2929 435.4761,-170.8156 453.8683,-145.9382"/>
<polygon fill="#191970" stroke="#191970" points="456.8339,-147.8144 459.9644,-137.6926 451.2051,-143.653 456.8339,-147.8144"/>
</g>
<!-- Node9 -->
<g id="node9" class="node">
<title>Node9</title>
<g id="a_node9"><a xlink:href="../../da/d55/TPCRateLayered_8m.html#a7507ef556477c204b499f1e189d40796" target="_top" xlink:title="sum">
<polygon fill="none" stroke="#000000" points="540.5,-234.5 540.5,-254.5 578.5,-254.5 578.5,-234.5 540.5,-234.5"/>
<text text-anchor="middle" x="559.5" y="-241.5" font-family="FreeSans" font-size="10.00" fill="#000000">sum</text>
</a>
</g>
</g>
<!-- Node8&#45;&gt;Node9 -->
<g id="edge8" class="edge">
<title>Node8&#45;&gt;Node9</title>
<path fill="none" stroke="#191970" d="M482.2814,-244.5C495.075,-244.5 513.9687,-244.5 529.8645,-244.5"/>
<polygon fill="#191970" stroke="#191970" points="530.2786,-248.0001 540.2786,-244.5 530.2785,-241.0001 530.2786,-248.0001"/>
</g>
<!-- Node10&#45;&gt;Node11 -->
<g id="edge10" class="edge">
<title>Node10&#45;&gt;Node11</title>
<path fill="none" stroke="#191970" d="M491.1923,-293.5435C501.9235,-298.0926 514.7919,-303.5476 526.4516,-308.4903"/>
<polygon fill="#191970" stroke="#191970" points="525.315,-311.81 535.888,-312.4906 528.0471,-305.3652 525.315,-311.81"/>
</g>
<!-- Node17 -->
<g id="node17" class="node">
<title>Node17</title>
<g id="a_node17"><a xlink:href="../../d6/dcf/pythia6425mod_8f.html#a523e4acf745637220400daf831c34a23" target="_top" xlink:title="pytime">
<polygon fill="none" stroke="#000000" points="534,-273.5 534,-293.5 585,-293.5 585,-273.5 534,-273.5"/>
<text text-anchor="middle" x="559.5" y="-280.5" font-family="FreeSans" font-size="10.00" fill="#000000">pytime</text>
</a>
</g>
</g>
<!-- Node10&#45;&gt;Node17 -->
<g id="edge17" class="edge">
<title>Node10&#45;&gt;Node17</title>
<path fill="none" stroke="#191970" d="M492.6394,-283.5C502.2158,-283.5 513.3225,-283.5 523.6999,-283.5"/>
<polygon fill="#191970" stroke="#191970" points="523.7506,-287.0001 533.7505,-283.5 523.7505,-280.0001 523.7506,-287.0001"/>
</g>
<!-- Node12 -->
<g id="node12" class="node">
<title>Node12</title>
<g id="a_node12"><a xlink:href="../../d0/d5e/classPHTimer.html#adce6f9a85834e59bd154b9c624ee4e41" target="_top" xlink:title="stops the counter">
<polygon fill="none" stroke="#000000" points="623,-312.5 623,-332.5 710,-332.5 710,-312.5 623,-312.5"/>
<text text-anchor="middle" x="666.5" y="-319.5" font-family="FreeSans" font-size="10.00" fill="#000000">PHTimer::stop</text>
</a>
</g>
</g>
<!-- Node11&#45;&gt;Node12 -->
<g id="edge11" class="edge">
<title>Node11&#45;&gt;Node12</title>
<path fill="none" stroke="#191970" d="M584.5867,-322.5C593.0221,-322.5 602.7851,-322.5 612.5674,-322.5"/>
<polygon fill="#191970" stroke="#191970" points="612.7137,-326.0001 622.7137,-322.5 612.7137,-319.0001 612.7137,-326.0001"/>
</g>
<!-- Node13 -->
<g id="node13" class="node">
<title>Node13</title>
<g id="a_node13"><a xlink:href="../../d0/d5e/classPHTimer.html#aa92e3fe4a0a1799f39743eda9ef9d497" target="_top" xlink:title="gets time from cpu clock counts">
<polygon fill="none" stroke="#000000" points="899.5,-326.5 899.5,-358.5 1012.5,-358.5 1012.5,-326.5 899.5,-326.5"/>
<text text-anchor="start" x="907.5" y="-345.5" font-family="FreeSans" font-size="10.00" fill="#000000">PHTimer::get_clock</text>
<text text-anchor="middle" x="956" y="-333.5" font-family="FreeSans" font-size="10.00" fill="#000000">_counts</text>
</a>
</g>
</g>
<!-- Node12&#45;&gt;Node13 -->
<g id="edge12" class="edge">
<title>Node12&#45;&gt;Node13</title>
<path fill="none" stroke="#191970" d="M710.1545,-325.5159C757.665,-328.7981 834.1979,-334.0853 889.258,-337.8892"/>
<polygon fill="#191970" stroke="#191970" points="889.0597,-341.3837 899.2772,-338.5813 889.5422,-334.4004 889.0597,-341.3837"/>
</g>
<!-- Node14 -->
<g id="node14" class="node">
<title>Node14</title>
<g id="a_node14"><a xlink:href="../../d0/d5e/classPHTimer.html#a976738876ad978116fdc4549a3765685" target="_top" xlink:title="retrieve elapsed value since last restart (in ms)">
<polygon fill="none" stroke="#000000" points="746,-293.5 746,-313.5 851,-313.5 851,-293.5 746,-293.5"/>
<text text-anchor="middle" x="798.5" y="-300.5" font-family="FreeSans" font-size="10.00" fill="#000000">PHTimer::elapsed</text>
</a>
</g>
</g>
<!-- Node12&#45;&gt;Node14 -->
<g id="edge13" class="edge">
<title>Node12&#45;&gt;Node14</title>
<path fill="none" stroke="#191970" d="M710.0876,-316.226C718.2917,-315.0451 727.0201,-313.7888 735.6756,-312.5429"/>
<polygon fill="#191970" stroke="#191970" points="736.3676,-315.9795 745.767,-311.0904 735.3703,-309.0509 736.3676,-315.9795"/>
</g>
<!-- Node14&#45;&gt;Node13 -->
<g id="edge16" class="edge">
<title>Node14&#45;&gt;Node13</title>
<path fill="none" stroke="#191970" d="M839.0602,-313.5435C854.3746,-317.3356 872.2315,-321.7573 889.3129,-325.987"/>
<polygon fill="#191970" stroke="#191970" points="888.7073,-329.4427 899.2554,-328.449 890.3898,-322.6479 888.7073,-329.4427"/>
</g>
<!-- Node15 -->
<g id="node15" class="node">
<title>Node15</title>
<g id="a_node15"><a xlink:href="../../d0/d5e/classPHTimer.html#aa75ff2c27aba40e7ef0a934f9a3355c2" target="_top" xlink:title="returns difference between to time">
<polygon fill="none" stroke="#000000" points="887,-287.5 887,-307.5 1025,-307.5 1025,-287.5 887,-287.5"/>
<text text-anchor="middle" x="956" y="-294.5" font-family="FreeSans" font-size="10.00" fill="#000000">PHTimer::get_difference</text>
</a>
</g>
</g>
<!-- Node14&#45;&gt;Node15 -->
<g id="edge14" class="edge">
<title>Node14&#45;&gt;Node15</title>
<path fill="none" stroke="#191970" d="M851.3834,-301.4854C859.5408,-301.1746 868.1148,-300.848 876.6976,-300.521"/>
<polygon fill="#191970" stroke="#191970" points="876.8931,-304.0162 886.7526,-300.138 876.6266,-297.0213 876.8931,-304.0162"/>
</g>
<!-- Node16 -->
<g id="node16" class="node">
<title>Node16</title>
<g id="a_node16"><a xlink:href="../../d2/db1/classPHTimer_1_1Frequency.html#a023a2d706df9a8bd303810a9ed017f61" target="_top" xlink:title="period accessor">
<polygon fill="none" stroke="#000000" points="1061,-281.5 1061,-313.5 1179,-313.5 1179,-281.5 1061,-281.5"/>
<text text-anchor="start" x="1069" y="-300.5" font-family="FreeSans" font-size="10.00" fill="#000000">PHTimer::Frequency</text>
<text text-anchor="middle" x="1120" y="-288.5" font-family="FreeSans" font-size="10.00" fill="#000000">::period</text>
</a>
</g>
</g>
<!-- Node15&#45;&gt;Node16 -->
<g id="edge15" class="edge">
<title>Node15&#45;&gt;Node16</title>
<path fill="none" stroke="#191970" d="M1025.0754,-297.5C1033.5394,-297.5 1042.1918,-297.5 1050.6596,-297.5"/>
<polygon fill="#191970" stroke="#191970" points="1050.8719,-301.0001 1060.8719,-297.5 1050.8719,-294.0001 1050.8719,-301.0001"/>
</g>
<!-- Node19&#45;&gt;Node3 -->
<g id="edge21" class="edge">
<title>Node19&#45;&gt;Node3</title>
<path fill="none" stroke="#191970" d="M479.5274,-137.6971C494.8174,-150.6604 521.4218,-173.2163 539.7183,-188.7285"/>
<polygon fill="#191970" stroke="#191970" points="537.5787,-191.5031 547.4697,-195.3004 542.1055,-186.1638 537.5787,-191.5031"/>
</g>
<!-- Node19&#45;&gt;Node4 -->
<g id="edge24" class="edge">
<title>Node19&#45;&gt;Node4</title>
<path fill="none" stroke="#191970" d="M485.0145,-132.6811C497.9841,-136.5125 516.089,-141.8498 532,-146.5 568.6261,-157.2046 610.8971,-169.4425 638.1248,-177.3101"/>
<polygon fill="#191970" stroke="#191970" points="637.2018,-180.6866 647.7804,-180.0992 639.1444,-173.9615 637.2018,-180.6866"/>
</g>
<!-- Node20 -->
<g id="node20" class="node">
<title>Node20</title>
<g id="a_node20"><a xlink:href="../../d6/dcf/pythia6425mod_8f.html#a27f75936fde97780175fa2c990bc61cd" target="_top" xlink:title="pychge">
<polygon fill="none" stroke="#000000" points="533,-117.5 533,-137.5 586,-137.5 586,-117.5 533,-117.5"/>
<text text-anchor="middle" x="559.5" y="-124.5" font-family="FreeSans" font-size="10.00" fill="#000000">pychge</text>
</a>
</g>
</g>
<!-- Node19&#45;&gt;Node20 -->
<g id="edge20" class="edge">
<title>Node19&#45;&gt;Node20</title>
<path fill="none" stroke="#191970" d="M485.2385,-127.5C495.8684,-127.5 509.7856,-127.5 522.6954,-127.5"/>
<polygon fill="#191970" stroke="#191970" points="522.7508,-131.0001 532.7507,-127.5 522.7507,-124.0001 522.7508,-131.0001"/>
</g>
<!-- Node19&#45;&gt;Node21 -->
<g id="edge22" class="edge">
<title>Node19&#45;&gt;Node21</title>
<path fill="none" stroke="#191970" d="M485.2385,-119.9804C496.9478,-115.0167 512.6458,-108.3621 526.5924,-102.45"/>
<polygon fill="#191970" stroke="#191970" points="528.0565,-105.6309 535.8973,-98.5055 525.3244,-99.186 528.0565,-105.6309"/>
</g>
<!-- Node21&#45;&gt;Node22 -->
<g id="edge23" class="edge">
<title>Node21&#45;&gt;Node22</title>
<path fill="none" stroke="#191970" d="M587.0552,-83.607C603.3093,-80.7208 623.7792,-77.0859 639.8695,-74.2288"/>
<polygon fill="#191970" stroke="#191970" points="640.4884,-77.6737 649.7224,-72.4792 639.2645,-70.7815 640.4884,-77.6737"/>
</g>
</g>
</svg>
