<?xml version="1.0" encoding="UTF-8" standalone="no"?>
<!DOCTYPE svg PUBLIC "-//W3C//DTD SVG 1.1//EN"
 "http://www.w3.org/Graphics/SVG/1.1/DTD/svg11.dtd">
<!-- Generated by graphviz version 2.40.1 (20161225.0304)
 -->
<!-- Title: pyinpr Pages: 1 -->
<svg width="1001pt" height="313pt"
 viewBox="0.00 0.00 1001.00 313.00" xmlns="http://www.w3.org/2000/svg" xmlns:xlink="http://www.w3.org/1999/xlink">
<g id="graph0" class="graph" transform="scale(1 1) rotate(0) translate(4 309)">
<title>pyinpr</title>
<!-- Node1 -->
<g id="node1" class="node">
<title>Node1</title>
<polygon fill="#bfbfbf" stroke="#000000" points="0,-50.5 0,-70.5 49,-70.5 49,-50.5 0,-50.5"/>
<text text-anchor="middle" x="24.5" y="-57.5" font-family="FreeSans" font-size="10.00" fill="#000000">pyinpr</text>
</g>
<!-- Node2 -->
<g id="node2" class="node">
<title>Node2</title>
<g id="a_node2"><a xlink:href="../../d6/dcf/pythia6425mod_8f.html#a8a7efe2037220dc632000fb06895ebca" target="_top" xlink:title="pyerrm">
<polygon fill="none" stroke="#000000" points="85,-50.5 85,-70.5 137,-70.5 137,-50.5 85,-50.5"/>
<text text-anchor="middle" x="111" y="-57.5" font-family="FreeSans" font-size="10.00" fill="#000000">pyerrm</text>
</a>
</g>
</g>
<!-- Node1&#45;&gt;Node2 -->
<g id="edge1" class="edge">
<title>Node1&#45;&gt;Node2</title>
<path fill="none" stroke="#191970" d="M49.0561,-60.5C57.0102,-60.5 66.009,-60.5 74.633,-60.5"/>
<polygon fill="#191970" stroke="#191970" points="74.8712,-64.0001 84.8711,-60.5 74.8711,-57.0001 74.8712,-64.0001"/>
</g>
<!-- Node3 -->
<g id="node3" class="node">
<title>Node3</title>
<g id="a_node3"><a xlink:href="../../d6/dcf/pythia6425mod_8f.html#acc54128638bbd93cf630e1576f91d443" target="_top" xlink:title="pylist">
<polygon fill="none" stroke="#000000" points="173,-89.5 173,-109.5 217,-109.5 217,-89.5 173,-89.5"/>
<text text-anchor="middle" x="195" y="-96.5" font-family="FreeSans" font-size="10.00" fill="#000000">pylist</text>
</a>
</g>
</g>
<!-- Node2&#45;&gt;Node3 -->
<g id="edge2" class="edge">
<title>Node2&#45;&gt;Node3</title>
<path fill="none" stroke="#191970" d="M132.6321,-70.5435C142.2342,-75.0016 153.7103,-80.3298 164.1853,-85.1932"/>
<polygon fill="#191970" stroke="#191970" points="162.8972,-88.4539 173.4412,-89.4906 165.845,-82.1049 162.8972,-88.4539"/>
</g>
<!-- Node7 -->
<g id="node7" class="node">
<title>Node7</title>
<g id="a_node7"><a xlink:href="../../d6/dcf/pythia6425mod_8f.html#a4140396b9ec9bafcebf4c7ebecb462e7" target="_top" xlink:title="pystop">
<polygon fill="none" stroke="#000000" points="348.5,-31.5 348.5,-51.5 398.5,-51.5 398.5,-31.5 348.5,-31.5"/>
<text text-anchor="middle" x="373.5" y="-38.5" font-family="FreeSans" font-size="10.00" fill="#000000">pystop</text>
</a>
</g>
</g>
<!-- Node2&#45;&gt;Node7 -->
<g id="edge22" class="edge">
<title>Node2&#45;&gt;Node7</title>
<path fill="none" stroke="#191970" d="M137.0559,-55.7134C165.4487,-50.7595 212.2703,-43.3542 253,-40.5 278.2714,-38.7291 284.6675,-40.3005 310,-40.5 319.2122,-40.5725 329.1754,-40.7042 338.4181,-40.8488"/>
<polygon fill="#191970" stroke="#191970" points="338.4122,-44.3491 348.4687,-41.0149 338.528,-37.35 338.4122,-44.3491"/>
</g>
<!-- Node4 -->
<g id="node4" class="node">
<title>Node4</title>
<g id="a_node4"><a xlink:href="../../dc/d9f/hcalUtil_8C.html#af562b1ac3ac927ecde202ce0501a97a6" target="_top" xlink:title="ps">
<polygon fill="none" stroke="#000000" points="267,-128.5 267,-148.5 296,-148.5 296,-128.5 267,-128.5"/>
<text text-anchor="middle" x="281.5" y="-135.5" font-family="FreeSans" font-size="10.00" fill="#000000">ps</text>
</a>
</g>
</g>
<!-- Node3&#45;&gt;Node4 -->
<g id="edge3" class="edge">
<title>Node3&#45;&gt;Node4</title>
<path fill="none" stroke="#191970" d="M217.2759,-109.5435C229.5994,-115.0997 244.9205,-122.0075 257.5073,-127.6825"/>
<polygon fill="#191970" stroke="#191970" points="256.3511,-131.0004 266.9059,-131.92 259.2283,-124.6191 256.3511,-131.0004"/>
</g>
<!-- Node6 -->
<g id="node6" class="node">
<title>Node6</title>
<g id="a_node6"><a xlink:href="../../d6/dcf/pythia6425mod_8f.html#a56718d08dbb42b3b978fc9b5bd6970e6" target="_top" xlink:title="pylogo">
<polygon fill="none" stroke="#000000" points="256.5,-89.5 256.5,-109.5 306.5,-109.5 306.5,-89.5 256.5,-89.5"/>
<text text-anchor="middle" x="281.5" y="-96.5" font-family="FreeSans" font-size="10.00" fill="#000000">pylogo</text>
</a>
</g>
</g>
<!-- Node3&#45;&gt;Node6 -->
<g id="edge5" class="edge">
<title>Node3&#45;&gt;Node6</title>
<path fill="none" stroke="#191970" d="M217.2759,-99.5C226.025,-99.5 236.285,-99.5 246.0047,-99.5"/>
<polygon fill="#191970" stroke="#191970" points="246.2427,-103.0001 256.2426,-99.5 246.2426,-96.0001 246.2427,-103.0001"/>
</g>
<!-- Node14 -->
<g id="node14" class="node">
<title>Node14</title>
<g id="a_node14"><a xlink:href="../../d6/dcf/pythia6425mod_8f.html#ab0dbe916b7d36854c02faf180f41d585" target="_top" xlink:title="pyname">
<polygon fill="none" stroke="#000000" points="253,-50.5 253,-70.5 310,-70.5 310,-50.5 253,-50.5"/>
<text text-anchor="middle" x="281.5" y="-57.5" font-family="FreeSans" font-size="10.00" fill="#000000">pyname</text>
</a>
</g>
</g>
<!-- Node3&#45;&gt;Node14 -->
<g id="edge14" class="edge">
<title>Node3&#45;&gt;Node14</title>
<path fill="none" stroke="#191970" d="M217.2759,-89.4565C227.2647,-84.9529 239.2229,-79.5614 250.0981,-74.6581"/>
<polygon fill="#191970" stroke="#191970" points="251.6219,-77.8104 259.2996,-70.5094 248.7447,-71.429 251.6219,-77.8104"/>
</g>
<!-- Node15 -->
<g id="node15" class="node">
<title>Node15</title>
<g id="a_node15"><a xlink:href="../../d6/dcf/pythia6425mod_8f.html#a6cee1eea51c820d9e90932c9eca205b7" target="_top" xlink:title="pyp">
<polygon fill="none" stroke="#000000" points="264,-206.5 264,-226.5 299,-226.5 299,-206.5 264,-206.5"/>
<text text-anchor="middle" x="281.5" y="-213.5" font-family="FreeSans" font-size="10.00" fill="#000000">pyp</text>
</a>
</g>
</g>
<!-- Node3&#45;&gt;Node15 -->
<g id="edge15" class="edge">
<title>Node3&#45;&gt;Node15</title>
<path fill="none" stroke="#191970" d="M202.6763,-109.883C217.3326,-129.7071 249.4761,-173.1844 267.8683,-198.0618"/>
<polygon fill="#191970" stroke="#191970" points="265.2051,-200.347 273.9644,-206.3074 270.8339,-196.1856 265.2051,-200.347"/>
</g>
<!-- Node5 -->
<g id="node5" class="node">
<title>Node5</title>
<g id="a_node5"><a xlink:href="../../da/d55/TPCRateLayered_8m.html#a7507ef556477c204b499f1e189d40796" target="_top" xlink:title="sum">
<polygon fill="none" stroke="#000000" points="354.5,-128.5 354.5,-148.5 392.5,-148.5 392.5,-128.5 354.5,-128.5"/>
<text text-anchor="middle" x="373.5" y="-135.5" font-family="FreeSans" font-size="10.00" fill="#000000">sum</text>
</a>
</g>
</g>
<!-- Node4&#45;&gt;Node5 -->
<g id="edge4" class="edge">
<title>Node4&#45;&gt;Node5</title>
<path fill="none" stroke="#191970" d="M296.2814,-138.5C309.075,-138.5 327.9687,-138.5 343.8645,-138.5"/>
<polygon fill="#191970" stroke="#191970" points="344.2786,-142.0001 354.2786,-138.5 344.2785,-135.0001 344.2786,-142.0001"/>
</g>
<!-- Node6&#45;&gt;Node7 -->
<g id="edge6" class="edge">
<title>Node6&#45;&gt;Node7</title>
<path fill="none" stroke="#191970" d="M297.5252,-89.3972C311.6859,-80.4698 332.5591,-67.3106 348.8455,-57.0431"/>
<polygon fill="#191970" stroke="#191970" points="350.7571,-59.9755 357.3498,-51.6817 347.0239,-54.054 350.7571,-59.9755"/>
</g>
<!-- Node13 -->
<g id="node13" class="node">
<title>Node13</title>
<g id="a_node13"><a xlink:href="../../d6/dcf/pythia6425mod_8f.html#a523e4acf745637220400daf831c34a23" target="_top" xlink:title="pytime">
<polygon fill="none" stroke="#000000" points="348,-89.5 348,-109.5 399,-109.5 399,-89.5 348,-89.5"/>
<text text-anchor="middle" x="373.5" y="-96.5" font-family="FreeSans" font-size="10.00" fill="#000000">pytime</text>
</a>
</g>
</g>
<!-- Node6&#45;&gt;Node13 -->
<g id="edge13" class="edge">
<title>Node6&#45;&gt;Node13</title>
<path fill="none" stroke="#191970" d="M306.6394,-99.5C316.2158,-99.5 327.3225,-99.5 337.6999,-99.5"/>
<polygon fill="#191970" stroke="#191970" points="337.7506,-103.0001 347.7505,-99.5 337.7505,-96.0001 337.7506,-103.0001"/>
</g>
<!-- Node8 -->
<g id="node8" class="node">
<title>Node8</title>
<g id="a_node8"><a xlink:href="../../d0/d5e/classPHTimer.html#adce6f9a85834e59bd154b9c624ee4e41" target="_top" xlink:title="stops the counter">
<polygon fill="none" stroke="#000000" points="437,-31.5 437,-51.5 524,-51.5 524,-31.5 437,-31.5"/>
<text text-anchor="middle" x="480.5" y="-38.5" font-family="FreeSans" font-size="10.00" fill="#000000">PHTimer::stop</text>
</a>
</g>
</g>
<!-- Node7&#45;&gt;Node8 -->
<g id="edge7" class="edge">
<title>Node7&#45;&gt;Node8</title>
<path fill="none" stroke="#191970" d="M398.5867,-41.5C407.0221,-41.5 416.7851,-41.5 426.5674,-41.5"/>
<polygon fill="#191970" stroke="#191970" points="426.7137,-45.0001 436.7137,-41.5 426.7137,-38.0001 426.7137,-45.0001"/>
</g>
<!-- Node9 -->
<g id="node9" class="node">
<title>Node9</title>
<g id="a_node9"><a xlink:href="../../d0/d5e/classPHTimer.html#aa92e3fe4a0a1799f39743eda9ef9d497" target="_top" xlink:title="gets time from cpu clock counts">
<polygon fill="none" stroke="#000000" points="713.5,-45.5 713.5,-77.5 826.5,-77.5 826.5,-45.5 713.5,-45.5"/>
<text text-anchor="start" x="721.5" y="-64.5" font-family="FreeSans" font-size="10.00" fill="#000000">PHTimer::get_clock</text>
<text text-anchor="middle" x="770" y="-52.5" font-family="FreeSans" font-size="10.00" fill="#000000">_counts</text>
</a>
</g>
</g>
<!-- Node8&#45;&gt;Node9 -->
<g id="edge8" class="edge">
<title>Node8&#45;&gt;Node9</title>
<path fill="none" stroke="#191970" d="M524.1545,-44.5159C571.665,-47.7981 648.1979,-53.0853 703.258,-56.8892"/>
<polygon fill="#191970" stroke="#191970" points="703.0597,-60.3837 713.2772,-57.5813 703.5422,-53.4004 703.0597,-60.3837"/>
</g>
<!-- Node10 -->
<g id="node10" class="node">
<title>Node10</title>
<g id="a_node10"><a xlink:href="../../d0/d5e/classPHTimer.html#a976738876ad978116fdc4549a3765685" target="_top" xlink:title="retrieve elapsed value since last restart (in ms)">
<polygon fill="none" stroke="#000000" points="560,-12.5 560,-32.5 665,-32.5 665,-12.5 560,-12.5"/>
<text text-anchor="middle" x="612.5" y="-19.5" font-family="FreeSans" font-size="10.00" fill="#000000">PHTimer::elapsed</text>
</a>
</g>
</g>
<!-- Node8&#45;&gt;Node10 -->
<g id="edge9" class="edge">
<title>Node8&#45;&gt;Node10</title>
<path fill="none" stroke="#191970" d="M524.0876,-35.226C532.2917,-34.0451 541.0201,-32.7888 549.6756,-31.5429"/>
<polygon fill="#191970" stroke="#191970" points="550.3676,-34.9795 559.767,-30.0904 549.3703,-28.0509 550.3676,-34.9795"/>
</g>
<!-- Node10&#45;&gt;Node9 -->
<g id="edge12" class="edge">
<title>Node10&#45;&gt;Node9</title>
<path fill="none" stroke="#191970" d="M653.0602,-32.5435C668.3746,-36.3356 686.2315,-40.7573 703.3129,-44.987"/>
<polygon fill="#191970" stroke="#191970" points="702.7073,-48.4427 713.2554,-47.449 704.3898,-41.6479 702.7073,-48.4427"/>
</g>
<!-- Node11 -->
<g id="node11" class="node">
<title>Node11</title>
<g id="a_node11"><a xlink:href="../../d0/d5e/classPHTimer.html#aa75ff2c27aba40e7ef0a934f9a3355c2" target="_top" xlink:title="returns difference between to time">
<polygon fill="none" stroke="#000000" points="701,-6.5 701,-26.5 839,-26.5 839,-6.5 701,-6.5"/>
<text text-anchor="middle" x="770" y="-13.5" font-family="FreeSans" font-size="10.00" fill="#000000">PHTimer::get_difference</text>
</a>
</g>
</g>
<!-- Node10&#45;&gt;Node11 -->
<g id="edge10" class="edge">
<title>Node10&#45;&gt;Node11</title>
<path fill="none" stroke="#191970" d="M665.3834,-20.4854C673.5408,-20.1746 682.1148,-19.848 690.6976,-19.521"/>
<polygon fill="#191970" stroke="#191970" points="690.8931,-23.0162 700.7526,-19.138 690.6266,-16.0213 690.8931,-23.0162"/>
</g>
<!-- Node12 -->
<g id="node12" class="node">
<title>Node12</title>
<g id="a_node12"><a xlink:href="../../d2/db1/classPHTimer_1_1Frequency.html#a023a2d706df9a8bd303810a9ed017f61" target="_top" xlink:title="period accessor">
<polygon fill="none" stroke="#000000" points="875,-.5 875,-32.5 993,-32.5 993,-.5 875,-.5"/>
<text text-anchor="start" x="883" y="-19.5" font-family="FreeSans" font-size="10.00" fill="#000000">PHTimer::Frequency</text>
<text text-anchor="middle" x="934" y="-7.5" font-family="FreeSans" font-size="10.00" fill="#000000">::period</text>
</a>
</g>
</g>
<!-- Node11&#45;&gt;Node12 -->
<g id="edge11" class="edge">
<title>Node11&#45;&gt;Node12</title>
<path fill="none" stroke="#191970" d="M839.0754,-16.5C847.5394,-16.5 856.1918,-16.5 864.6596,-16.5"/>
<polygon fill="#191970" stroke="#191970" points="864.8719,-20.0001 874.8719,-16.5 864.8719,-13.0001 864.8719,-20.0001"/>
</g>
<!-- Node16 -->
<g id="node16" class="node">
<title>Node16</title>
<g id="a_node16"><a xlink:href="../../d6/dcf/pythia6425mod_8f.html#a27f75936fde97780175fa2c990bc61cd" target="_top" xlink:title="pychge">
<polygon fill="none" stroke="#000000" points="347,-167.5 347,-187.5 400,-187.5 400,-167.5 347,-167.5"/>
<text text-anchor="middle" x="373.5" y="-174.5" font-family="FreeSans" font-size="10.00" fill="#000000">pychge</text>
</a>
</g>
</g>
<!-- Node15&#45;&gt;Node16 -->
<g id="edge16" class="edge">
<title>Node15&#45;&gt;Node16</title>
<path fill="none" stroke="#191970" d="M299.2385,-208.9804C310.9478,-204.0167 326.6458,-197.3621 340.5924,-191.45"/>
<polygon fill="#191970" stroke="#191970" points="342.0565,-194.6309 349.8973,-187.5055 339.3244,-188.186 342.0565,-194.6309"/>
</g>
<!-- Node17 -->
<g id="node17" class="node">
<title>Node17</title>
<g id="a_node17"><a xlink:href="../../d6/dcf/pythia6425mod_8f.html#aa8c99978a55999fa0b1fd2a946d8553a" target="_top" xlink:title="pyangl">
<polygon fill="none" stroke="#000000" points="348.5,-284.5 348.5,-304.5 398.5,-304.5 398.5,-284.5 348.5,-284.5"/>
<text text-anchor="middle" x="373.5" y="-291.5" font-family="FreeSans" font-size="10.00" fill="#000000">pyangl</text>
</a>
</g>
</g>
<!-- Node15&#45;&gt;Node17 -->
<g id="edge17" class="edge">
<title>Node15&#45;&gt;Node17</title>
<path fill="none" stroke="#191970" d="M293.5274,-226.6971C308.8174,-239.6604 335.4218,-262.2163 353.7183,-277.7285"/>
<polygon fill="#191970" stroke="#191970" points="351.5787,-280.5031 361.4697,-284.3004 356.1055,-275.1638 351.5787,-280.5031"/>
</g>
<!-- Node18 -->
<g id="node18" class="node">
<title>Node18</title>
<g id="a_node18"><a xlink:href="../../da/d0a/CylinderKalman_8cpp.html#ab74daa0c9784c63e060bfb98cc06fbf5" target="_top" xlink:title="sign">
<polygon fill="none" stroke="#000000" points="462,-264.5 462,-284.5 499,-284.5 499,-264.5 462,-264.5"/>
<text text-anchor="middle" x="480.5" y="-271.5" font-family="FreeSans" font-size="10.00" fill="#000000">sign</text>
</a>
</g>
</g>
<!-- Node15&#45;&gt;Node18 -->
<g id="edge21" class="edge">
<title>Node15&#45;&gt;Node18</title>
<path fill="none" stroke="#191970" d="M299.0145,-221.6811C311.9841,-225.5125 330.089,-230.8498 346,-235.5 382.6261,-246.2046 424.8971,-258.4425 452.1248,-266.3101"/>
<polygon fill="#191970" stroke="#191970" points="451.2018,-269.6866 461.7804,-269.0992 453.1444,-262.9615 451.2018,-269.6866"/>
</g>
<!-- Node19 -->
<g id="node19" class="node">
<title>Node19</title>
<g id="a_node19"><a xlink:href="../../d6/dcf/pythia6425mod_8f.html#ad69903a1054f4f77d45fd8fe4c687aa9" target="_top" xlink:title="pymass">
<polygon fill="none" stroke="#000000" points="346,-206.5 346,-226.5 401,-226.5 401,-206.5 346,-206.5"/>
<text text-anchor="middle" x="373.5" y="-213.5" font-family="FreeSans" font-size="10.00" fill="#000000">pymass</text>
</a>
</g>
</g>
<!-- Node15&#45;&gt;Node19 -->
<g id="edge19" class="edge">
<title>Node15&#45;&gt;Node19</title>
<path fill="none" stroke="#191970" d="M299.2385,-216.5C309.5184,-216.5 322.8726,-216.5 335.417,-216.5"/>
<polygon fill="#191970" stroke="#191970" points="335.6786,-220.0001 345.6785,-216.5 335.6785,-213.0001 335.6786,-220.0001"/>
</g>
<!-- Node17&#45;&gt;Node18 -->
<g id="edge18" class="edge">
<title>Node17&#45;&gt;Node18</title>
<path fill="none" stroke="#191970" d="M398.5867,-289.8109C414.4972,-286.837 435.1307,-282.9802 451.7083,-279.8816"/>
<polygon fill="#191970" stroke="#191970" points="452.7393,-283.2496 461.926,-277.9718 451.4531,-276.3688 452.7393,-283.2496"/>
</g>
<!-- Node20 -->
<g id="node20" class="node">
<title>Node20</title>
<g id="a_node20"><a xlink:href="../../d6/dcf/pythia6425mod_8f.html#ac28b7ef95cee2881a46f71d3a88d05ac" target="_top" xlink:title="pyr">
<polygon fill="none" stroke="#000000" points="464,-206.5 464,-226.5 497,-226.5 497,-206.5 464,-206.5"/>
<text text-anchor="middle" x="480.5" y="-213.5" font-family="FreeSans" font-size="10.00" fill="#000000">pyr</text>
</a>
</g>
</g>
<!-- Node19&#45;&gt;Node20 -->
<g id="edge20" class="edge">
<title>Node19&#45;&gt;Node20</title>
<path fill="none" stroke="#191970" d="M401.0552,-216.5C417.1545,-216.5 437.3897,-216.5 453.4086,-216.5"/>
<polygon fill="#191970" stroke="#191970" points="453.7225,-220.0001 463.7224,-216.5 453.7224,-213.0001 453.7225,-220.0001"/>
</g>
</g>
</svg>
