<?xml version="1.0" encoding="UTF-8" standalone="no"?>
<!DOCTYPE svg PUBLIC "-//W3C//DTD SVG 1.1//EN"
 "http://www.w3.org/Graphics/SVG/1.1/DTD/svg11.dtd">
<!-- Generated by graphviz version 2.40.1 (20161225.0304)
 -->
<!-- Title: pytbhs Pages: 1 -->
<svg width="1645pt" height="326pt"
 viewBox="0.00 0.00 1645.00 326.00" xmlns="http://www.w3.org/2000/svg" xmlns:xlink="http://www.w3.org/1999/xlink">
<g id="graph0" class="graph" transform="scale(1 1) rotate(0) translate(4 322)">
<title>pytbhs</title>
<!-- Node1 -->
<g id="node1" class="node">
<title>Node1</title>
<polygon fill="#bfbfbf" stroke="#000000" points="0,-182.5 0,-202.5 51,-202.5 51,-182.5 0,-182.5"/>
<text text-anchor="middle" x="25.5" y="-189.5" font-family="FreeSans" font-size="10.00" fill="#000000">pytbhs</text>
</g>
<!-- Node2 -->
<g id="node2" class="node">
<title>Node2</title>
<g id="a_node2"><a xlink:href="../../d6/dcf/pythia6425mod_8f.html#ab37c75f11d388ab995e98e3eca29e81b" target="_top" xlink:title="pytbhg">
<polygon fill="none" stroke="#000000" points="87,-202.5 87,-222.5 138,-222.5 138,-202.5 87,-202.5"/>
<text text-anchor="middle" x="112.5" y="-209.5" font-family="FreeSans" font-size="10.00" fill="#000000">pytbhg</text>
</a>
</g>
</g>
<!-- Node1&#45;&gt;Node2 -->
<g id="edge1" class="edge">
<title>Node1&#45;&gt;Node2</title>
<path fill="none" stroke="#191970" d="M60.9764,-200.6555C69.6055,-202.6392 78.6709,-204.7232 86.7503,-206.5805"/>
<polygon fill="#191970" stroke="#191970" points="61.6623,-197.2219 51.1323,-198.3925 60.0939,-204.044 61.6623,-197.2219"/>
</g>
<!-- Node31 -->
<g id="node31" class="node">
<title>Node31</title>
<g id="a_node31"><a xlink:href="../../d6/dcf/pythia6425mod_8f.html#a8d44a8d8b3450950fbf946b1c29fb42d" target="_top" xlink:title="pytbhq">
<polygon fill="none" stroke="#000000" points="87,-163.5 87,-183.5 138,-183.5 138,-163.5 87,-163.5"/>
<text text-anchor="middle" x="112.5" y="-170.5" font-family="FreeSans" font-size="10.00" fill="#000000">pytbhq</text>
</a>
</g>
</g>
<!-- Node1&#45;&gt;Node31 -->
<g id="edge43" class="edge">
<title>Node1&#45;&gt;Node31</title>
<path fill="none" stroke="#191970" d="M60.9764,-184.7523C69.6055,-182.8678 78.6709,-180.888 86.7503,-179.1235"/>
<polygon fill="#191970" stroke="#191970" points="60.1553,-181.349 51.1323,-186.9021 61.6488,-188.1878 60.1553,-181.349"/>
</g>
<!-- Node3 -->
<g id="node3" class="node">
<title>Node3</title>
<g id="a_node3"><a xlink:href="../../d6/dcf/pythia6425mod_8f.html#a8e204cdd8fb7ba8d843c00f6da2ec7e9" target="_top" xlink:title="pystbh">
<polygon fill="none" stroke="#000000" points="174,-182.5 174,-202.5 224,-202.5 224,-182.5 174,-182.5"/>
<text text-anchor="middle" x="199" y="-189.5" font-family="FreeSans" font-size="10.00" fill="#000000">pystbh</text>
</a>
</g>
</g>
<!-- Node2&#45;&gt;Node3 -->
<g id="edge2" class="edge">
<title>Node2&#45;&gt;Node3</title>
<path fill="none" stroke="#191970" d="M148.3001,-204.2225C156.9206,-202.2293 165.9483,-200.142 173.957,-198.2903"/>
<polygon fill="#191970" stroke="#191970" points="147.4073,-200.8365 138.4529,-206.4993 148.9843,-207.6566 147.4073,-200.8365"/>
</g>
<!-- Node4 -->
<g id="node4" class="node">
<title>Node4</title>
<g id="a_node4"><a xlink:href="../../d6/dcf/pythia6425mod_8f.html#a57a12a8bdfcf423e5b0ed01349b0ff46" target="_top" xlink:title="pysghg">
<polygon fill="none" stroke="#000000" points="260,-182.5 260,-202.5 313,-202.5 313,-182.5 260,-182.5"/>
<text text-anchor="middle" x="286.5" y="-189.5" font-family="FreeSans" font-size="10.00" fill="#000000">pysghg</text>
</a>
</g>
</g>
<!-- Node3&#45;&gt;Node4 -->
<g id="edge3" class="edge">
<title>Node3&#45;&gt;Node4</title>
<path fill="none" stroke="#191970" d="M234.3344,-192.5C242.8052,-192.5 251.7134,-192.5 259.7233,-192.5"/>
<polygon fill="#191970" stroke="#191970" points="234.3087,-189.0001 224.3086,-192.5 234.3086,-196.0001 234.3087,-189.0001"/>
</g>
<!-- Node5 -->
<g id="node5" class="node">
<title>Node5</title>
<g id="a_node5"><a xlink:href="../../d6/dcf/pythia6425mod_8f.html#a3ccdee32be69df9daf5605283165a012" target="_top" xlink:title="pysigh">
<polygon fill="none" stroke="#000000" points="349,-182.5 349,-202.5 398,-202.5 398,-182.5 349,-182.5"/>
<text text-anchor="middle" x="373.5" y="-189.5" font-family="FreeSans" font-size="10.00" fill="#000000">pysigh</text>
</a>
</g>
</g>
<!-- Node4&#45;&gt;Node5 -->
<g id="edge4" class="edge">
<title>Node4&#45;&gt;Node5</title>
<path fill="none" stroke="#191970" d="M323.3218,-192.5C331.9447,-192.5 340.9263,-192.5 348.8673,-192.5"/>
<polygon fill="#191970" stroke="#191970" points="323.0756,-189.0001 313.0756,-192.5 323.0756,-196.0001 323.0756,-189.0001"/>
</g>
<!-- Node6 -->
<g id="node6" class="node">
<title>Node6</title>
<g id="a_node6"><a xlink:href="../../d6/dcf/pythia6425mod_8f.html#aa9cb6f1467302508501201a0e38959d1" target="_top" xlink:title="pymaxi">
<polygon fill="none" stroke="#000000" points="434,-259.5 434,-279.5 487,-279.5 487,-259.5 434,-259.5"/>
<text text-anchor="middle" x="460.5" y="-266.5" font-family="FreeSans" font-size="10.00" fill="#000000">pymaxi</text>
</a>
</g>
</g>
<!-- Node5&#45;&gt;Node6 -->
<g id="edge5" class="edge">
<title>Node5&#45;&gt;Node6</title>
<path fill="none" stroke="#191970" d="M392.6728,-209.469C409.9568,-224.7664 434.7933,-246.7481 449.1235,-259.4311"/>
<polygon fill="#191970" stroke="#191970" points="394.6817,-206.5731 384.8737,-202.5664 390.0424,-211.815 394.6817,-206.5731"/>
</g>
<!-- Node11 -->
<g id="node11" class="node">
<title>Node11</title>
<g id="a_node11"><a xlink:href="../../d6/dcf/pythia6425mod_8f.html#a5c7e2372fde451d6f2253ef044e01364" target="_top" xlink:title="pymign">
<polygon fill="none" stroke="#000000" points="523,-221.5 523,-241.5 577,-241.5 577,-221.5 523,-221.5"/>
<text text-anchor="middle" x="550" y="-228.5" font-family="FreeSans" font-size="10.00" fill="#000000">pymign</text>
</a>
</g>
</g>
<!-- Node5&#45;&gt;Node11 -->
<g id="edge10" class="edge">
<title>Node5&#45;&gt;Node11</title>
<path fill="none" stroke="#191970" d="M408.152,-200.6136C416.603,-202.5661 425.6222,-204.628 434,-206.5 464.3593,-213.2837 499.2623,-220.7627 522.7864,-225.7565"/>
<polygon fill="#191970" stroke="#191970" points="408.7389,-197.1568 398.2066,-198.3062 407.1569,-203.9757 408.7389,-197.1568"/>
</g>
<!-- Node24 -->
<g id="node24" class="node">
<title>Node24</title>
<g id="a_node24"><a xlink:href="../../d6/dcf/pythia6425mod_8f.html#a2d74d5dd64881524212b3720af2696de" target="_top" xlink:title="pyrand">
<polygon fill="none" stroke="#000000" points="613,-143.5 613,-163.5 664,-163.5 664,-143.5 613,-143.5"/>
<text text-anchor="middle" x="638.5" y="-150.5" font-family="FreeSans" font-size="10.00" fill="#000000">pyrand</text>
</a>
</g>
</g>
<!-- Node5&#45;&gt;Node24 -->
<g id="edge42" class="edge">
<title>Node5&#45;&gt;Node24</title>
<path fill="none" stroke="#191970" d="M408.5571,-187.3407C462.5612,-179.3929 564.8565,-164.3381 612.663,-157.3024"/>
<polygon fill="#191970" stroke="#191970" points="407.8144,-183.9122 398.4306,-188.831 408.8336,-190.8376 407.8144,-183.9122"/>
</g>
<!-- Node27 -->
<g id="node27" class="node">
<title>Node27</title>
<g id="a_node27"><a xlink:href="../../d6/dcf/pythia6425mod_8f.html#a4ae1a9148440832c122abdaedf3555a7" target="_top" xlink:title="pymult">
<polygon fill="none" stroke="#000000" points="524,-182.5 524,-202.5 576,-202.5 576,-182.5 524,-182.5"/>
<text text-anchor="middle" x="550" y="-189.5" font-family="FreeSans" font-size="10.00" fill="#000000">pymult</text>
</a>
</g>
</g>
<!-- Node5&#45;&gt;Node27 -->
<g id="edge33" class="edge">
<title>Node5&#45;&gt;Node27</title>
<path fill="none" stroke="#191970" d="M408.4419,-192.5C442.448,-192.5 493.343,-192.5 523.945,-192.5"/>
<polygon fill="#191970" stroke="#191970" points="408.0416,-189.0001 398.0416,-192.5 408.0415,-196.0001 408.0416,-189.0001"/>
</g>
<!-- Node28 -->
<g id="node28" class="node">
<title>Node28</title>
<g id="a_node28"><a xlink:href="../../d6/dcf/pythia6425mod_8f.html#af1b5061d1d80462745ef6b9ab52500f2" target="_top" xlink:title="pyptmi">
<polygon fill="none" stroke="#000000" points="435,-104.5 435,-124.5 486,-124.5 486,-104.5 435,-104.5"/>
<text text-anchor="middle" x="460.5" y="-111.5" font-family="FreeSans" font-size="10.00" fill="#000000">pyptmi</text>
</a>
</g>
</g>
<!-- Node5&#45;&gt;Node28 -->
<g id="edge37" class="edge">
<title>Node5&#45;&gt;Node28</title>
<path fill="none" stroke="#191970" d="M392.6728,-175.3106C409.9568,-159.8146 434.7933,-137.5474 449.1235,-124.6996"/>
<polygon fill="#191970" stroke="#191970" points="389.983,-173.0214 384.8737,-182.3029 394.6559,-178.2334 389.983,-173.0214"/>
</g>
<!-- Node7 -->
<g id="node7" class="node">
<title>Node7</title>
<g id="a_node7"><a xlink:href="../../d6/dcf/pythia6425mod_8f.html#aac00ac3ccd923c2c3dc37e2b89a9f025" target="_top" xlink:title="pyinit">
<polygon fill="none" stroke="#000000" points="616,-259.5 616,-279.5 661,-279.5 661,-259.5 616,-259.5"/>
<text text-anchor="middle" x="638.5" y="-266.5" font-family="FreeSans" font-size="10.00" fill="#000000">pyinit</text>
</a>
</g>
</g>
<!-- Node6&#45;&gt;Node7 -->
<g id="edge6" class="edge">
<title>Node6&#45;&gt;Node7</title>
<path fill="none" stroke="#191970" d="M497.1725,-269.5C532.8734,-269.5 585.9946,-269.5 615.9075,-269.5"/>
<polygon fill="#191970" stroke="#191970" points="497.1484,-266.0001 487.1484,-269.5 497.1484,-273.0001 497.1484,-266.0001"/>
</g>
<!-- Node8 -->
<g id="node8" class="node">
<title>Node8</title>
<g id="a_node8"><a xlink:href="../../d3/dd5/jewel-2_82_80_8f.html#a2cba90a4cdaaf1d5de1cf1bfe9afaa2e" target="_top" xlink:title="initpythia">
<polygon fill="none" stroke="#000000" points="792,-297.5 792,-317.5 855,-317.5 855,-297.5 792,-297.5"/>
<text text-anchor="middle" x="823.5" y="-304.5" font-family="FreeSans" font-size="10.00" fill="#000000">initpythia</text>
</a>
</g>
</g>
<!-- Node7&#45;&gt;Node8 -->
<g id="edge7" class="edge">
<title>Node7&#45;&gt;Node8</title>
<path fill="none" stroke="#191970" d="M671.3037,-276.4886C680.5782,-278.4496 690.6826,-280.5722 700,-282.5 731.1692,-288.949 766.8023,-296.1431 791.7564,-301.1521"/>
<polygon fill="#191970" stroke="#191970" points="671.7797,-273.0118 661.2712,-274.3621 670.3281,-279.8596 671.7797,-273.0118"/>
</g>
<!-- Node10 -->
<g id="node10" class="node">
<title>Node10</title>
<g id="a_node10"><a xlink:href="../../d6/dcf/pythia6425mod_8f.html#a4cc0e611278607d6b413b5cecdfe16c3" target="_top" xlink:title="pytest">
<polygon fill="none" stroke="#000000" points="899.5,-240.5 899.5,-260.5 947.5,-260.5 947.5,-240.5 899.5,-240.5"/>
<text text-anchor="middle" x="923.5" y="-247.5" font-family="FreeSans" font-size="10.00" fill="#000000">pytest</text>
</a>
</g>
</g>
<!-- Node7&#45;&gt;Node10 -->
<g id="edge9" class="edge">
<title>Node7&#45;&gt;Node10</title>
<path fill="none" stroke="#191970" d="M671.4224,-267.3052C729.3748,-263.4417 848.2951,-255.5137 899.3461,-252.1103"/>
<polygon fill="#191970" stroke="#191970" points="671.086,-263.8197 661.341,-267.9773 671.5517,-270.8042 671.086,-263.8197"/>
</g>
<!-- Node9 -->
<g id="node9" class="node">
<title>Node9</title>
<g id="a_node9"><a xlink:href="../../d3/dd5/jewel-2_82_80_8f.html#a15e2df3184692bfe4ca2261638190094" target="_top" xlink:title="jewel">
<polygon fill="none" stroke="#000000" points="1077.5,-297.5 1077.5,-317.5 1120.5,-317.5 1120.5,-297.5 1077.5,-297.5"/>
<text text-anchor="middle" x="1099" y="-304.5" font-family="FreeSans" font-size="10.00" fill="#000000">jewel</text>
</a>
</g>
</g>
<!-- Node8&#45;&gt;Node9 -->
<g id="edge8" class="edge">
<title>Node8&#45;&gt;Node9</title>
<path fill="none" stroke="#191970" d="M865.269,-307.5C924.6794,-307.5 1031.4478,-307.5 1077.2094,-307.5"/>
<polygon fill="#191970" stroke="#191970" points="865.1034,-304.0001 855.1034,-307.5 865.1033,-311.0001 865.1034,-304.0001"/>
</g>
<!-- Node11&#45;&gt;Node7 -->
<g id="edge27" class="edge">
<title>Node11&#45;&gt;Node7</title>
<path fill="none" stroke="#191970" d="M583.0269,-245.681C593.9943,-250.3902 605.9466,-255.5223 615.9387,-259.8127"/>
<polygon fill="#191970" stroke="#191970" points="584.2861,-242.4128 573.7164,-241.6833 581.5242,-248.8449 584.2861,-242.4128"/>
</g>
<!-- Node12 -->
<g id="node12" class="node">
<title>Node12</title>
<g id="a_node12"><a xlink:href="../../d6/dcf/pythia6425mod_8f.html#ac81fa418f8cd77b0873b2de2a4140933" target="_top" xlink:title="pyevnt">
<polygon fill="none" stroke="#000000" points="797.5,-182.5 797.5,-202.5 849.5,-202.5 849.5,-182.5 797.5,-182.5"/>
<text text-anchor="middle" x="823.5" y="-189.5" font-family="FreeSans" font-size="10.00" fill="#000000">pyevnt</text>
</a>
</g>
</g>
<!-- Node11&#45;&gt;Node12 -->
<g id="edge11" class="edge">
<title>Node11&#45;&gt;Node12</title>
<path fill="none" stroke="#191970" d="M587.2529,-227.9272C628.6157,-223.74 697.2963,-216.1326 756,-206.5 769.6999,-204.252 784.8435,-201.1668 797.3095,-198.4646"/>
<polygon fill="#191970" stroke="#191970" points="586.6992,-224.465 577.0968,-228.942 587.3952,-231.4303 586.6992,-224.465"/>
</g>
<!-- Node11&#45;&gt;Node24 -->
<g id="edge28" class="edge">
<title>Node11&#45;&gt;Node24</title>
<path fill="none" stroke="#191970" d="M572.302,-215.3082C573.9092,-214.0416 575.4902,-212.7636 577,-211.5 595.9083,-195.6758 616.4853,-175.6424 628.3977,-163.7392"/>
<polygon fill="#191970" stroke="#191970" points="570.0967,-212.5882 564.2564,-221.428 574.3346,-218.1596 570.0967,-212.5882"/>
</g>
<!-- Node12&#45;&gt;Node10 -->
<g id="edge26" class="edge">
<title>Node12&#45;&gt;Node10</title>
<path fill="none" stroke="#191970" d="M849.6528,-207.6686C867.3947,-217.9589 890.3677,-231.2832 905.9454,-240.3183"/>
<polygon fill="#191970" stroke="#191970" points="851.325,-204.5924 840.9187,-202.6028 847.813,-210.6477 851.325,-204.5924"/>
</g>
<!-- Node13 -->
<g id="node13" class="node">
<title>Node13</title>
<g id="a_node13"><a xlink:href="../../d3/dd5/jewel-2_82_80_8f.html#aeb24fa7919aa21c652e9c8f2ec45cb91" target="_top" xlink:title="genevent">
<polygon fill="none" stroke="#000000" points="891,-182.5 891,-202.5 956,-202.5 956,-182.5 891,-182.5"/>
<text text-anchor="middle" x="923.5" y="-189.5" font-family="FreeSans" font-size="10.00" fill="#000000">genevent</text>
</a>
</g>
</g>
<!-- Node12&#45;&gt;Node13 -->
<g id="edge12" class="edge">
<title>Node12&#45;&gt;Node13</title>
<path fill="none" stroke="#191970" d="M859.7245,-192.5C869.8845,-192.5 880.8676,-192.5 890.8092,-192.5"/>
<polygon fill="#191970" stroke="#191970" points="859.5128,-189.0001 849.5128,-192.5 859.5127,-196.0001 859.5128,-189.0001"/>
</g>
<!-- Node13&#45;&gt;Node9 -->
<g id="edge22" class="edge">
<title>Node13&#45;&gt;Node9</title>
<path fill="none" stroke="#191970" d="M939.9096,-210.546C945.2495,-216.7116 951.0672,-223.756 956,-230.5 973.9116,-254.9881 966.8831,-271.4813 992,-288.5 1017.6154,-305.8565 1054.3239,-308.7726 1077.3999,-308.6269"/>
<polygon fill="#191970" stroke="#191970" points="942.2992,-207.9648 933.052,-202.7937 937.0561,-212.6028 942.2992,-207.9648"/>
</g>
<!-- Node14 -->
<g id="node14" class="node">
<title>Node14</title>
<g id="a_node14"><a xlink:href="../../d6/d45/classEpFinderEval.html#af537855512c06847c1021dd83f015031" target="_top" xlink:title="EpFinderEval::fill_tree">
<polygon fill="none" stroke="#000000" points="1036,-258.5 1036,-278.5 1162,-278.5 1162,-258.5 1036,-258.5"/>
<text text-anchor="middle" x="1099" y="-265.5" font-family="FreeSans" font-size="10.00" fill="#000000">EpFinderEval::fill_tree</text>
</a>
</g>
</g>
<!-- Node13&#45;&gt;Node14 -->
<g id="edge13" class="edge">
<title>Node13&#45;&gt;Node14</title>
<path fill="none" stroke="#191970" d="M941.9697,-209.5706C955.0375,-220.7739 973.4681,-234.8939 992,-243.5 1005.9281,-249.9681 1021.677,-254.8404 1036.7243,-258.4809"/>
<polygon fill="#191970" stroke="#191970" points="944.0217,-206.7133 934.2095,-202.7169 939.3879,-211.96 944.0217,-206.7133"/>
</g>
<!-- Node16 -->
<g id="node16" class="node">
<title>Node16</title>
<g id="a_node16"><a xlink:href="../../dd/d2a/classPHHepMCGenHelper.html#ab0c755f6e53c0bf57ccd314a0017d227" target="_top" xlink:title="send HepMC::GenEvent to DST tree. This function takes ownership of evt">
<polygon fill="none" stroke="#000000" points="1021,-90.5 1021,-122.5 1177,-122.5 1177,-90.5 1021,-90.5"/>
<text text-anchor="start" x="1029" y="-109.5" font-family="FreeSans" font-size="10.00" fill="#000000">PHHepMCGenHelper::insert</text>
<text text-anchor="middle" x="1099" y="-97.5" font-family="FreeSans" font-size="10.00" fill="#000000">_event</text>
</a>
</g>
</g>
<!-- Node13&#45;&gt;Node16 -->
<g id="edge15" class="edge">
<title>Node13&#45;&gt;Node16</title>
<path fill="none" stroke="#191970" d="M941.0592,-175.1219C954.1346,-163.0452 972.9479,-147.4008 992,-137.5 1003.4123,-131.5694 1016.1157,-126.6281 1028.6694,-122.5623"/>
<polygon fill="#191970" stroke="#191970" points="938.5533,-172.6748 933.7085,-182.0971 943.3716,-177.7526 938.5533,-172.6748"/>
</g>
<!-- Node21 -->
<g id="node21" class="node">
<title>Node21</title>
<g id="a_node21"><a xlink:href="../../d9/d3a/classPHPythia8.html#a5cc4124cc6be2fb2467714e3d3bc5a6a" target="_top" xlink:title="PHPythia8::process\l_event">
<polygon fill="none" stroke="#000000" points="1277,-191.5 1277,-223.5 1390,-223.5 1390,-191.5 1277,-191.5"/>
<text text-anchor="start" x="1285" y="-210.5" font-family="FreeSans" font-size="10.00" fill="#000000">PHPythia8::process</text>
<text text-anchor="middle" x="1333.5" y="-198.5" font-family="FreeSans" font-size="10.00" fill="#000000">_event</text>
</a>
</g>
</g>
<!-- Node13&#45;&gt;Node21 -->
<g id="edge24" class="edge">
<title>Node13&#45;&gt;Node21</title>
<path fill="none" stroke="#191970" d="M966.056,-204.7577C974.5789,-206.7307 983.5204,-208.4635 992,-209.5 1091.6056,-221.6752 1208.7747,-216.8773 1276.7463,-212.2276"/>
<polygon fill="#191970" stroke="#191970" points="966.8424,-201.3469 956.2959,-202.3586 965.1714,-208.1446 966.8424,-201.3469"/>
</g>
<!-- Node22 -->
<g id="node22" class="node">
<title>Node22</title>
<g id="a_node22"><a xlink:href="../../da/df0/classPHSartre.html#aafe9fd92317ab1f7eee67a9354696c4e" target="_top" xlink:title="PHSartre::process_event">
<polygon fill="none" stroke="#000000" points="1263.5,-141.5 1263.5,-161.5 1403.5,-161.5 1403.5,-141.5 1263.5,-141.5"/>
<text text-anchor="middle" x="1333.5" y="-148.5" font-family="FreeSans" font-size="10.00" fill="#000000">PHSartre::process_event</text>
</a>
</g>
</g>
<!-- Node13&#45;&gt;Node22 -->
<g id="edge23" class="edge">
<title>Node13&#45;&gt;Node22</title>
<path fill="none" stroke="#191970" d="M959.0831,-179.1747C969.5472,-175.7762 981.1105,-172.5172 992,-170.5 1084.6886,-153.3297 1193.7438,-150.1482 1263.2243,-150.2089"/>
<polygon fill="#191970" stroke="#191970" points="957.7932,-175.9162 949.4451,-182.4398 960.0394,-182.546 957.7932,-175.9162"/>
</g>
<!-- Node23 -->
<g id="node23" class="node">
<title>Node23</title>
<g id="a_node23"><a xlink:href="../../de/d99/classFun4AllHepMCPileupInputManager.html#a81bf2b69c3c4d3aae0aadebafe1c2c2e" target="_top" xlink:title="Fun4AllHepMCPileupInputManager::run">
<polygon fill="none" stroke="#000000" points="992,-180.5 992,-200.5 1206,-200.5 1206,-180.5 992,-180.5"/>
<text text-anchor="middle" x="1099" y="-187.5" font-family="FreeSans" font-size="10.00" fill="#000000">Fun4AllHepMCPileupInputManager::run</text>
</a>
</g>
</g>
<!-- Node13&#45;&gt;Node23 -->
<g id="edge25" class="edge">
<title>Node13&#45;&gt;Node23</title>
<path fill="none" stroke="#191970" d="M966.164,-192.0138C974.1453,-191.9228 982.8098,-191.8241 991.7592,-191.7221"/>
<polygon fill="#191970" stroke="#191970" points="966.0583,-188.5147 956.0989,-192.1285 966.1382,-195.5142 966.0583,-188.5147"/>
</g>
<!-- Node15 -->
<g id="node15" class="node">
<title>Node15</title>
<g id="a_node15"><a xlink:href="../../d6/d45/classEpFinderEval.html#a2539c184425a5dceabf6a3be79b31e9a" target="_top" xlink:title="EpFinderEval::process\l_event">
<polygon fill="none" stroke="#000000" points="1269.5,-252.5 1269.5,-284.5 1397.5,-284.5 1397.5,-252.5 1269.5,-252.5"/>
<text text-anchor="start" x="1277.5" y="-271.5" font-family="FreeSans" font-size="10.00" fill="#000000">EpFinderEval::process</text>
<text text-anchor="middle" x="1333.5" y="-259.5" font-family="FreeSans" font-size="10.00" fill="#000000">_event</text>
</a>
</g>
</g>
<!-- Node14&#45;&gt;Node15 -->
<g id="edge14" class="edge">
<title>Node14&#45;&gt;Node15</title>
<path fill="none" stroke="#191970" d="M1172.491,-268.5C1203.5702,-268.5 1239.4383,-268.5 1269.4212,-268.5"/>
<polygon fill="#191970" stroke="#191970" points="1172.1502,-265.0001 1162.1502,-268.5 1172.1501,-272.0001 1172.1502,-265.0001"/>
</g>
<!-- Node17 -->
<g id="node17" class="node">
<title>Node17</title>
<g id="a_node17"><a xlink:href="../../d6/d6f/classFun4AllHepMCInputManager.html#ab6c80a8ee0701bfff5eee3ec3623015c" target="_top" xlink:title="Fun4AllHepMCInputManager::run">
<polygon fill="none" stroke="#000000" points="1242,-51.5 1242,-71.5 1425,-71.5 1425,-51.5 1242,-51.5"/>
<text text-anchor="middle" x="1333.5" y="-58.5" font-family="FreeSans" font-size="10.00" fill="#000000">Fun4AllHepMCInputManager::run</text>
</a>
</g>
</g>
<!-- Node16&#45;&gt;Node17 -->
<g id="edge16" class="edge">
<title>Node16&#45;&gt;Node17</title>
<path fill="none" stroke="#191970" d="M1187.248,-89.5654C1218.9151,-83.4886 1253.5936,-76.8338 1281.2316,-71.5302"/>
<polygon fill="#191970" stroke="#191970" points="1186.2463,-86.1937 1177.0851,-91.5157 1187.5656,-93.0683 1186.2463,-86.1937"/>
</g>
<!-- Node18 -->
<g id="node18" class="node">
<title>Node18</title>
<g id="a_node18"><a xlink:href="../../db/d1f/classFun4AllOscarInputManager.html#a1537e89c4e652f70747fbbef18ceadc4" target="_top" xlink:title="Fun4AllOscarInputManager\l::ConvertFromOscar">
<polygon fill="none" stroke="#000000" points="1256.5,-.5 1256.5,-32.5 1410.5,-32.5 1410.5,-.5 1256.5,-.5"/>
<text text-anchor="start" x="1264.5" y="-19.5" font-family="FreeSans" font-size="10.00" fill="#000000">Fun4AllOscarInputManager</text>
<text text-anchor="middle" x="1333.5" y="-7.5" font-family="FreeSans" font-size="10.00" fill="#000000">::ConvertFromOscar</text>
</a>
</g>
</g>
<!-- Node16&#45;&gt;Node18 -->
<g id="edge17" class="edge">
<title>Node16&#45;&gt;Node18</title>
<path fill="none" stroke="#191970" d="M1139.633,-85.9241C1167.8668,-72.1527 1206.6283,-54.2784 1242,-41.5 1250.8282,-38.3107 1260.2612,-35.3023 1269.5921,-32.5523"/>
<polygon fill="#191970" stroke="#191970" points="1137.9113,-82.8704 1130.4818,-90.4238 1141,-89.1521 1137.9113,-82.8704"/>
</g>
<!-- Node20 -->
<g id="node20" class="node">
<title>Node20</title>
<g id="a_node20"><a xlink:href="../../dd/da8/classPHPythia6.html#a7a70bdd1c198a83ed143d3e2c4516d0d" target="_top" xlink:title="PHPythia6::process\l_event">
<polygon fill="none" stroke="#000000" points="1277,-90.5 1277,-122.5 1390,-122.5 1390,-90.5 1277,-90.5"/>
<text text-anchor="start" x="1285" y="-109.5" font-family="FreeSans" font-size="10.00" fill="#000000">PHPythia6::process</text>
<text text-anchor="middle" x="1333.5" y="-97.5" font-family="FreeSans" font-size="10.00" fill="#000000">_event</text>
</a>
</g>
</g>
<!-- Node16&#45;&gt;Node20 -->
<g id="edge19" class="edge">
<title>Node16&#45;&gt;Node20</title>
<path fill="none" stroke="#191970" d="M1187.16,-106.5C1217.2125,-106.5 1249.9865,-106.5 1276.8859,-106.5"/>
<polygon fill="#191970" stroke="#191970" points="1187.0851,-103.0001 1177.0851,-106.5 1187.0851,-110.0001 1187.0851,-103.0001"/>
</g>
<!-- Node16&#45;&gt;Node21 -->
<g id="edge20" class="edge">
<title>Node16&#45;&gt;Node21</title>
<path fill="none" stroke="#191970" d="M1142.9969,-126.6906C1171.1845,-139.5021 1208.6118,-156.2835 1242,-170.5 1258.5537,-177.5484 1276.921,-185.0394 1292.8295,-191.4241"/>
<polygon fill="#191970" stroke="#191970" points="1144.3623,-123.4667 1133.811,-122.5075 1141.4612,-129.8372 1144.3623,-123.4667"/>
</g>
<!-- Node16&#45;&gt;Node22 -->
<g id="edge21" class="edge">
<title>Node16&#45;&gt;Node22</title>
<path fill="none" stroke="#191970" d="M1187.248,-123.4346C1218.9151,-129.5114 1253.5936,-136.1662 1281.2316,-141.4698"/>
<polygon fill="#191970" stroke="#191970" points="1187.5656,-119.9317 1177.0851,-121.4843 1186.2463,-126.8063 1187.5656,-119.9317"/>
</g>
<!-- Node19 -->
<g id="node19" class="node">
<title>Node19</title>
<g id="a_node19"><a xlink:href="../../db/d1f/classFun4AllOscarInputManager.html#a4be602bd8c9fe73f9dcc81c8871784a6" target="_top" xlink:title="Fun4AllOscarInputManager::run">
<polygon fill="none" stroke="#000000" points="1461,-6.5 1461,-26.5 1637,-26.5 1637,-6.5 1461,-6.5"/>
<text text-anchor="middle" x="1549" y="-13.5" font-family="FreeSans" font-size="10.00" fill="#000000">Fun4AllOscarInputManager::run</text>
</a>
</g>
</g>
<!-- Node18&#45;&gt;Node19 -->
<g id="edge18" class="edge">
<title>Node18&#45;&gt;Node19</title>
<path fill="none" stroke="#191970" d="M1420.7391,-16.5C1434.0061,-16.5 1447.7039,-16.5 1460.9873,-16.5"/>
<polygon fill="#191970" stroke="#191970" points="1420.6918,-13.0001 1410.6918,-16.5 1420.6917,-20.0001 1420.6918,-13.0001"/>
</g>
<!-- Node24&#45;&gt;Node12 -->
<g id="edge29" class="edge">
<title>Node24&#45;&gt;Node12</title>
<path fill="none" stroke="#191970" d="M674.3236,-161.052C710.4129,-168.66 765.2315,-180.2164 797.3986,-186.9975"/>
<polygon fill="#191970" stroke="#191970" points="674.7304,-157.5609 664.2235,-158.9228 673.2864,-164.4104 674.7304,-157.5609"/>
</g>
<!-- Node25 -->
<g id="node25" class="node">
<title>Node25</title>
<g id="a_node25"><a xlink:href="../../d6/dcf/pythia6425mod_8f.html#a83ae6561ab82fd7af8b1b3e511f477ac" target="_top" xlink:title="pyevnw">
<polygon fill="none" stroke="#000000" points="700,-66.5 700,-86.5 756,-86.5 756,-66.5 700,-66.5"/>
<text text-anchor="middle" x="728" y="-73.5" font-family="FreeSans" font-size="10.00" fill="#000000">pyevnw</text>
</a>
</g>
</g>
<!-- Node24&#45;&gt;Node25 -->
<g id="edge30" class="edge">
<title>Node24&#45;&gt;Node25</title>
<path fill="none" stroke="#191970" d="M655.6337,-135.9215C667.611,-123.9954 684.2242,-108.1573 700,-95.5 703.849,-92.4119 708.1867,-89.3047 712.278,-86.5234"/>
<polygon fill="#191970" stroke="#191970" points="653.0483,-133.5579 648.4878,-143.121 658.0165,-138.4892 653.0483,-133.5579"/>
</g>
<!-- Node26 -->
<g id="node26" class="node">
<title>Node26</title>
<g id="a_node26"><a xlink:href="../../d6/dcf/pythia6425mod_8f.html#ae7cb37215e5a38b3fb0529c9996646e6" target="_top" xlink:title="pyupev">
<polygon fill="none" stroke="#000000" points="701,-105.5 701,-125.5 755,-125.5 755,-105.5 701,-105.5"/>
<text text-anchor="middle" x="728" y="-112.5" font-family="FreeSans" font-size="10.00" fill="#000000">pyupev</text>
</a>
</g>
</g>
<!-- Node24&#45;&gt;Node26 -->
<g id="edge32" class="edge">
<title>Node24&#45;&gt;Node26</title>
<path fill="none" stroke="#191970" d="M671.9999,-139.2766C682.7276,-134.7218 694.3778,-129.7753 704.2598,-125.5796"/>
<polygon fill="#191970" stroke="#191970" points="670.3212,-136.1869 662.4844,-143.3167 673.0569,-142.6301 670.3212,-136.1869"/>
</g>
<!-- Node25&#45;&gt;Node12 -->
<g id="edge31" class="edge">
<title>Node25&#45;&gt;Node12</title>
<path fill="none" stroke="#191970" d="M753.1196,-92.8334C754.1182,-93.7039 755.0834,-94.5941 756,-95.5 783.8713,-123.0456 807.7277,-163.4836 818.0454,-182.2427"/>
<polygon fill="#191970" stroke="#191970" points="755.1137,-89.9513 745.059,-86.6116 750.8365,-95.4925 755.1137,-89.9513"/>
</g>
<!-- Node27&#45;&gt;Node7 -->
<g id="edge35" class="edge">
<title>Node27&#45;&gt;Node7</title>
<path fill="none" stroke="#191970" d="M573.3903,-208.6425C574.6241,-209.5923 575.8345,-210.5485 577,-211.5 596.0995,-227.0929 616.6167,-247.1986 628.4655,-259.1788"/>
<polygon fill="#191970" stroke="#191970" points="575.268,-205.679 565.1359,-202.582 571.1252,-211.3215 575.268,-205.679"/>
</g>
<!-- Node27&#45;&gt;Node12 -->
<g id="edge34" class="edge">
<title>Node27&#45;&gt;Node12</title>
<path fill="none" stroke="#191970" d="M586.3992,-192.5C642.3898,-192.5 748.3045,-192.5 797.3551,-192.5"/>
<polygon fill="#191970" stroke="#191970" points="586.2244,-189.0001 576.2243,-192.5 586.2243,-196.0001 586.2244,-189.0001"/>
</g>
<!-- Node27&#45;&gt;Node24 -->
<g id="edge36" class="edge">
<title>Node27&#45;&gt;Node24</title>
<path fill="none" stroke="#191970" d="M582.2121,-178.3048C593.3444,-173.3991 605.5767,-168.0086 615.7863,-163.5094"/>
<polygon fill="#191970" stroke="#191970" points="580.5304,-175.2211 572.7909,-182.4565 583.3532,-181.6267 580.5304,-175.2211"/>
</g>
<!-- Node29 -->
<g id="node29" class="node">
<title>Node29</title>
<g id="a_node29"><a xlink:href="../../d6/dcf/pythia6425mod_8f.html#a15448b25c4eb515f33e35f86f376af68" target="_top" xlink:title="pyevol">
<polygon fill="none" stroke="#000000" points="613.5,-66.5 613.5,-86.5 663.5,-86.5 663.5,-66.5 613.5,-66.5"/>
<text text-anchor="middle" x="638.5" y="-73.5" font-family="FreeSans" font-size="10.00" fill="#000000">pyevol</text>
</a>
</g>
</g>
<!-- Node28&#45;&gt;Node29 -->
<g id="edge38" class="edge">
<title>Node28&#45;&gt;Node29</title>
<path fill="none" stroke="#191970" d="M496.2285,-109.9749C519.4108,-106.7197 550.1841,-101.7973 577,-95.5 589.0758,-92.6642 602.2418,-88.7155 613.2823,-85.1521"/>
<polygon fill="#191970" stroke="#191970" points="495.5866,-106.53 486.1528,-111.3522 496.5347,-113.4655 495.5866,-106.53"/>
</g>
<!-- Node30 -->
<g id="node30" class="node">
<title>Node30</title>
<g id="a_node30"><a xlink:href="../../d6/dcf/pythia6425mod_8f.html#ac00de061be805868aa61d626239f5fa9" target="_top" xlink:title="pyptis">
<polygon fill="none" stroke="#000000" points="526.5,-66.5 526.5,-86.5 573.5,-86.5 573.5,-66.5 526.5,-66.5"/>
<text text-anchor="middle" x="550" y="-73.5" font-family="FreeSans" font-size="10.00" fill="#000000">pyptis</text>
</a>
</g>
</g>
<!-- Node28&#45;&gt;Node30 -->
<g id="edge40" class="edge">
<title>Node28&#45;&gt;Node30</title>
<path fill="none" stroke="#191970" d="M493.9999,-100.2766C504.7276,-95.7218 516.3778,-90.7753 526.2598,-86.5796"/>
<polygon fill="#191970" stroke="#191970" points="492.3212,-97.1869 484.4844,-104.3167 495.0569,-103.6301 492.3212,-97.1869"/>
</g>
<!-- Node29&#45;&gt;Node25 -->
<g id="edge39" class="edge">
<title>Node29&#45;&gt;Node25</title>
<path fill="none" stroke="#191970" d="M673.9979,-76.5C682.5336,-76.5 691.5389,-76.5 699.697,-76.5"/>
<polygon fill="#191970" stroke="#191970" points="673.9077,-73.0001 663.9077,-76.5 673.9077,-80.0001 673.9077,-73.0001"/>
</g>
<!-- Node30&#45;&gt;Node29 -->
<g id="edge41" class="edge">
<title>Node30&#45;&gt;Node29</title>
<path fill="none" stroke="#191970" d="M583.9848,-76.5C593.7962,-76.5 604.3202,-76.5 613.4796,-76.5"/>
<polygon fill="#191970" stroke="#191970" points="583.7164,-73.0001 573.7164,-76.5 583.7163,-80.0001 583.7164,-73.0001"/>
</g>
<!-- Node31&#45;&gt;Node3 -->
<g id="edge44" class="edge">
<title>Node31&#45;&gt;Node3</title>
<path fill="none" stroke="#191970" d="M148.3001,-181.3636C156.9206,-183.2571 165.9483,-185.2401 173.957,-186.9992"/>
<polygon fill="#191970" stroke="#191970" points="148.9709,-177.9276 138.4529,-179.2006 147.4691,-184.7646 148.9709,-177.9276"/>
</g>
</g>
</svg>
