<?xml version="1.0" encoding="UTF-8" standalone="no"?>
<!DOCTYPE svg PUBLIC "-//W3C//DTD SVG 1.1//EN"
 "http://www.w3.org/Graphics/SVG/1.1/DTD/svg11.dtd">
<!-- Generated by graphviz version 2.40.1 (20161225.0304)
 -->
<!-- Title: pyrvgl Pages: 1 -->
<svg width="1370pt" height="385pt"
 viewBox="0.00 0.00 1370.00 384.69" xmlns="http://www.w3.org/2000/svg" xmlns:xlink="http://www.w3.org/1999/xlink">
<g id="graph0" class="graph" transform="scale(1 1) rotate(0) translate(4 380.6929)">
<title>pyrvgl</title>
<!-- Node1 -->
<g id="node1" class="node">
<title>Node1</title>
<polygon fill="#bfbfbf" stroke="#000000" points="0,-146.1929 0,-166.1929 48,-166.1929 48,-146.1929 0,-146.1929"/>
<text text-anchor="middle" x="24" y="-153.1929" font-family="FreeSans" font-size="10.00" fill="#000000">pyrvgl</text>
</g>
<!-- Node2 -->
<g id="node2" class="node">
<title>Node2</title>
<g id="a_node2"><a xlink:href="../../d6/dcf/pythia6425mod_8f.html#a29c95baea28af87f8639a7f77a68edc5" target="_top" xlink:title="pyalps">
<polygon fill="none" stroke="#000000" points="266.5,-341.1929 266.5,-361.1929 316.5,-361.1929 316.5,-341.1929 266.5,-341.1929"/>
<text text-anchor="middle" x="291.5" y="-348.1929" font-family="FreeSans" font-size="10.00" fill="#000000">pyalps</text>
</a>
</g>
</g>
<!-- Node1&#45;&gt;Node2 -->
<g id="edge1" class="edge">
<title>Node1&#45;&gt;Node2</title>
<path fill="none" stroke="#191970" d="M29.197,-166.3037C45.6351,-197.1433 99.829,-290.4464 174,-332.1929 199.0984,-346.3194 231.6959,-350.6958 256.1877,-351.7514"/>
<polygon fill="#191970" stroke="#191970" points="256.3887,-355.2578 266.4776,-352.0227 256.5733,-348.2603 256.3887,-355.2578"/>
</g>
<!-- Node3 -->
<g id="node3" class="node">
<title>Node3</title>
<g id="a_node3"><a xlink:href="../../d6/dcf/pythia6425mod_8f.html#a615871b7d284b85342c32545140f6435" target="_top" xlink:title="pyrvgw">
<polygon fill="none" stroke="#000000" points="84,-146.1929 84,-166.1929 138,-166.1929 138,-146.1929 84,-146.1929"/>
<text text-anchor="middle" x="111" y="-153.1929" font-family="FreeSans" font-size="10.00" fill="#000000">pyrvgw</text>
</a>
</g>
</g>
<!-- Node1&#45;&gt;Node3 -->
<g id="edge2" class="edge">
<title>Node1&#45;&gt;Node3</title>
<path fill="none" stroke="#191970" d="M48.2344,-156.1929C56.0982,-156.1929 65.0148,-156.1929 73.607,-156.1929"/>
<polygon fill="#191970" stroke="#191970" points="73.8343,-159.693 83.8342,-156.1929 73.8342,-152.693 73.8343,-159.693"/>
</g>
<!-- Node4 -->
<g id="node4" class="node">
<title>Node4</title>
<g id="a_node4"><a xlink:href="../../de/de0/matchedfilter_8C.html#a6547063fbcbf53a7fdffddbd2747b29f" target="_top" xlink:title="rms">
<polygon fill="none" stroke="#000000" points="274,-68.1929 274,-88.1929 309,-88.1929 309,-68.1929 274,-68.1929"/>
<text text-anchor="middle" x="291.5" y="-75.1929" font-family="FreeSans" font-size="10.00" fill="#000000">rms</text>
</a>
</g>
</g>
<!-- Node1&#45;&gt;Node4 -->
<g id="edge53" class="edge">
<title>Node1&#45;&gt;Node4</title>
<path fill="none" stroke="#191970" d="M37.9671,-145.9536C63.4403,-127.9873 119.8263,-91.4364 174,-78.1929 203.9002,-70.8835 239.3739,-72.1907 263.4633,-74.4963"/>
<polygon fill="#191970" stroke="#191970" points="263.3513,-78.0045 273.6693,-75.5985 264.103,-71.0449 263.3513,-78.0045"/>
</g>
<!-- Node3&#45;&gt;Node4 -->
<g id="edge3" class="edge">
<title>Node3&#45;&gt;Node4</title>
<path fill="none" stroke="#191970" d="M118.6763,-145.9146C129.4269,-132.3453 150.3267,-108.8179 174,-97.1929 202.4373,-83.2286 238.9555,-79.1757 263.6765,-78.1711"/>
<polygon fill="#191970" stroke="#191970" points="263.9079,-81.6663 273.8119,-77.9032 263.7229,-74.6688 263.9079,-81.6663"/>
</g>
<!-- Node6 -->
<g id="node6" class="node">
<title>Node6</title>
<g id="a_node6"><a xlink:href="../../d6/dcf/pythia6425mod_8f.html#a342cc0b3b1534ea728c6cc519dfc55dc" target="_top" xlink:title="pymrun">
<polygon fill="none" stroke="#000000" points="174,-302.1929 174,-322.1929 229,-322.1929 229,-302.1929 174,-302.1929"/>
<text text-anchor="middle" x="201.5" y="-309.1929" font-family="FreeSans" font-size="10.00" fill="#000000">pymrun</text>
</a>
</g>
</g>
<!-- Node3&#45;&gt;Node6 -->
<g id="edge5" class="edge">
<title>Node3&#45;&gt;Node6</title>
<path fill="none" stroke="#191970" d="M116.938,-166.4285C131.8985,-192.2169 171.3156,-260.1623 190.5837,-293.3759"/>
<polygon fill="#191970" stroke="#191970" points="187.6123,-295.2289 195.6578,-302.1225 193.6672,-291.7163 187.6123,-295.2289"/>
</g>
<!-- Node9 -->
<g id="node9" class="node">
<title>Node9</title>
<g id="a_node9"><a xlink:href="../../d6/dcf/pythia6425mod_8f.html#a42b2d221de531f661ead0e1bef14807b" target="_top" xlink:title="pyrvi1">
<polygon fill="none" stroke="#000000" points="177.5,-107.1929 177.5,-127.1929 225.5,-127.1929 225.5,-107.1929 177.5,-107.1929"/>
<text text-anchor="middle" x="201.5" y="-114.1929" font-family="FreeSans" font-size="10.00" fill="#000000">pyrvi1</text>
</a>
</g>
</g>
<!-- Node3&#45;&gt;Node9 -->
<g id="edge9" class="edge">
<title>Node3&#45;&gt;Node9</title>
<path fill="none" stroke="#191970" d="M134.306,-146.1495C144.8622,-141.6004 157.5208,-136.1453 168.9904,-131.2026"/>
<polygon fill="#191970" stroke="#191970" points="170.4746,-134.3742 178.273,-127.2024 167.7042,-127.9457 170.4746,-134.3742"/>
</g>
<!-- Node31 -->
<g id="node31" class="node">
<title>Node31</title>
<g id="a_node31"><a xlink:href="../../d6/dcf/pythia6425mod_8f.html#a9e6ea2faa5ba1af425bd3782c8069d02" target="_top" xlink:title="pyrvi2">
<polygon fill="none" stroke="#000000" points="177.5,-185.1929 177.5,-205.1929 225.5,-205.1929 225.5,-185.1929 177.5,-185.1929"/>
<text text-anchor="middle" x="201.5" y="-192.1929" font-family="FreeSans" font-size="10.00" fill="#000000">pyrvi2</text>
</a>
</g>
</g>
<!-- Node3&#45;&gt;Node31 -->
<g id="edge37" class="edge">
<title>Node3&#45;&gt;Node31</title>
<path fill="none" stroke="#191970" d="M134.306,-166.2364C144.8622,-170.7855 157.5208,-176.2406 168.9904,-181.1833"/>
<polygon fill="#191970" stroke="#191970" points="167.7042,-184.4401 178.273,-185.1835 170.4746,-178.0116 167.7042,-184.4401"/>
</g>
<!-- Node34 -->
<g id="node34" class="node">
<title>Node34</title>
<g id="a_node34"><a xlink:href="../../d6/dcf/pythia6425mod_8f.html#a797da463f08ad3ff91ca5d428c5f5cc7" target="_top" xlink:title="pyrvi3">
<polygon fill="none" stroke="#000000" points="177.5,-146.1929 177.5,-166.1929 225.5,-166.1929 225.5,-146.1929 177.5,-146.1929"/>
<text text-anchor="middle" x="201.5" y="-153.1929" font-family="FreeSans" font-size="10.00" fill="#000000">pyrvi3</text>
</a>
</g>
</g>
<!-- Node3&#45;&gt;Node34 -->
<g id="edge43" class="edge">
<title>Node3&#45;&gt;Node34</title>
<path fill="none" stroke="#191970" d="M138.153,-156.1929C147.3295,-156.1929 157.6948,-156.1929 167.343,-156.1929"/>
<polygon fill="#191970" stroke="#191970" points="167.4408,-159.693 177.4408,-156.1929 167.4407,-152.693 167.4408,-159.693"/>
</g>
<!-- Node5 -->
<g id="node5" class="node">
<title>Node5</title>
<g id="a_node5"><a xlink:href="../../da/d55/TPCRateLayered_8m.html#a7507ef556477c204b499f1e189d40796" target="_top" xlink:title="sum">
<polygon fill="none" stroke="#000000" points="723.5,-21.1929 723.5,-41.1929 761.5,-41.1929 761.5,-21.1929 723.5,-21.1929"/>
<text text-anchor="middle" x="742.5" y="-28.1929" font-family="FreeSans" font-size="10.00" fill="#000000">sum</text>
</a>
</g>
</g>
<!-- Node4&#45;&gt;Node5 -->
<g id="edge4" class="edge">
<title>Node4&#45;&gt;Node5</title>
<path fill="none" stroke="#191970" d="M299.1292,-68.074C309.8102,-54.7177 330.562,-31.5701 354,-20.1929 402.972,3.5788 420.5633,-1.1929 475,-1.1929 475,-1.1929 475,-1.1929 564,-1.1929 617.2542,-1.1929 678.2248,-14.3398 713.358,-23.2273"/>
<polygon fill="#191970" stroke="#191970" points="712.8363,-26.7078 723.3947,-25.8295 714.5932,-19.9318 712.8363,-26.7078"/>
</g>
<!-- Node6&#45;&gt;Node2 -->
<g id="edge6" class="edge">
<title>Node6&#45;&gt;Node2</title>
<path fill="none" stroke="#191970" d="M224.6772,-322.2364C235.1752,-326.7855 247.7638,-332.2406 259.17,-337.1833"/>
<polygon fill="#191970" stroke="#191970" points="257.8341,-340.4188 268.4013,-341.1835 260.6174,-333.9959 257.8341,-340.4188"/>
</g>
<!-- Node7 -->
<g id="node7" class="node">
<title>Node7</title>
<g id="a_node7"><a xlink:href="../../d6/dcf/pythia6425mod_8f.html#ad69903a1054f4f77d45fd8fe4c687aa9" target="_top" xlink:title="pymass">
<polygon fill="none" stroke="#000000" points="715,-234.1929 715,-254.1929 770,-254.1929 770,-234.1929 715,-234.1929"/>
<text text-anchor="middle" x="742.5" y="-241.1929" font-family="FreeSans" font-size="10.00" fill="#000000">pymass</text>
</a>
</g>
</g>
<!-- Node6&#45;&gt;Node7 -->
<g id="edge7" class="edge">
<title>Node6&#45;&gt;Node7</title>
<path fill="none" stroke="#191970" d="M229.1752,-312.1929C264.4313,-312.1929 327.2435,-312.1929 381,-312.1929 381,-312.1929 381,-312.1929 564,-312.1929 615.804,-312.1929 631.718,-314.3605 679,-293.1929 697.7522,-284.7978 698.687,-276.6834 715,-264.1929 716.6171,-262.9548 718.2978,-261.6871 719.9955,-260.4203"/>
<polygon fill="#191970" stroke="#191970" points="722.4262,-262.9776 728.4114,-254.2353 718.2808,-257.337 722.4262,-262.9776"/>
</g>
<!-- Node8 -->
<g id="node8" class="node">
<title>Node8</title>
<g id="a_node8"><a xlink:href="../../d6/dcf/pythia6425mod_8f.html#ac28b7ef95cee2881a46f71d3a88d05ac" target="_top" xlink:title="pyr">
<polygon fill="none" stroke="#000000" points="833,-234.1929 833,-254.1929 866,-254.1929 866,-234.1929 833,-234.1929"/>
<text text-anchor="middle" x="849.5" y="-241.1929" font-family="FreeSans" font-size="10.00" fill="#000000">pyr</text>
</a>
</g>
</g>
<!-- Node7&#45;&gt;Node8 -->
<g id="edge8" class="edge">
<title>Node7&#45;&gt;Node8</title>
<path fill="none" stroke="#191970" d="M770.0552,-244.1929C786.1545,-244.1929 806.3897,-244.1929 822.4086,-244.1929"/>
<polygon fill="#191970" stroke="#191970" points="822.7225,-247.693 832.7224,-244.1929 822.7224,-240.693 822.7225,-247.693"/>
</g>
<!-- Node9&#45;&gt;Node4 -->
<g id="edge36" class="edge">
<title>Node9&#45;&gt;Node4</title>
<path fill="none" stroke="#191970" d="M224.6772,-107.1495C236.8792,-101.8619 251.9058,-95.3504 264.6171,-89.8422"/>
<polygon fill="#191970" stroke="#191970" points="266.0172,-93.05 273.8011,-85.8625 263.2339,-86.6271 266.0172,-93.05"/>
</g>
<!-- Node10 -->
<g id="node10" class="node">
<title>Node10</title>
<g id="a_node10"><a xlink:href="../../d6/dcf/pythia6425mod_8f.html#a2fc031269f435aa5547d90d480213f0d" target="_top" xlink:title="pyrvg1">
<polygon fill="none" stroke="#000000" points="355.5,-30.1929 355.5,-50.1929 406.5,-50.1929 406.5,-30.1929 355.5,-30.1929"/>
<text text-anchor="middle" x="381" y="-37.1929" font-family="FreeSans" font-size="10.00" fill="#000000">pyrvg1</text>
</a>
</g>
</g>
<!-- Node9&#45;&gt;Node10 -->
<g id="edge10" class="edge">
<title>Node9&#45;&gt;Node10</title>
<path fill="none" stroke="#191970" d="M225.9048,-116.924C250.3472,-115.7773 288.4733,-111.5554 318,-97.1929 336.9321,-87.9839 354.3375,-71.3245 366.0333,-58.3855"/>
<polygon fill="#191970" stroke="#191970" points="368.9368,-60.38 372.8532,-50.5356 363.6526,-55.7891 368.9368,-60.38"/>
</g>
<!-- Node12 -->
<g id="node12" class="node">
<title>Node12</title>
<g id="a_node12"><a xlink:href="../../d6/dcf/pythia6425mod_8f.html#a54737ed1fa8203d34f6b7e41f8edaf45" target="_top" xlink:title="pygaus">
<polygon fill="none" stroke="#000000" points="265,-146.1929 265,-166.1929 318,-166.1929 318,-146.1929 265,-146.1929"/>
<text text-anchor="middle" x="291.5" y="-153.1929" font-family="FreeSans" font-size="10.00" fill="#000000">pygaus</text>
</a>
</g>
</g>
<!-- Node9&#45;&gt;Node12 -->
<g id="edge12" class="edge">
<title>Node9&#45;&gt;Node12</title>
<path fill="none" stroke="#191970" d="M224.6772,-127.2364C235.1752,-131.7855 247.7638,-137.2406 259.17,-142.1833"/>
<polygon fill="#191970" stroke="#191970" points="257.8341,-145.4188 268.4013,-146.1835 260.6174,-138.9959 257.8341,-145.4188"/>
</g>
<!-- Node11 -->
<g id="node11" class="node">
<title>Node11</title>
<g id="a_node11"><a xlink:href="../../d6/dcf/pythia6425mod_8f.html#a5168f5ce45865125ee90d4a1967db80d" target="_top" xlink:title="pyrvr">
<polygon fill="none" stroke="#000000" points="542.5,-224.1929 542.5,-244.1929 585.5,-244.1929 585.5,-224.1929 542.5,-224.1929"/>
<text text-anchor="middle" x="564" y="-231.1929" font-family="FreeSans" font-size="10.00" fill="#000000">pyrvr</text>
</a>
</g>
</g>
<!-- Node10&#45;&gt;Node11 -->
<g id="edge11" class="edge">
<title>Node10&#45;&gt;Node11</title>
<path fill="none" stroke="#191970" d="M406.5722,-42.0608C434.8562,-45.5067 479.874,-55.3091 506,-83.1929 547.5773,-127.5676 509.5782,-163.7478 542,-215.1929 542.2556,-215.5986 542.5226,-216.0002 542.7996,-216.3977"/>
<polygon fill="#191970" stroke="#191970" points="540.3981,-218.9605 549.6986,-224.035 545.5925,-214.2681 540.3981,-218.9605"/>
</g>
<!-- Node13 -->
<g id="node13" class="node">
<title>Node13</title>
<g id="a_node13"><a xlink:href="../../d6/dcf/pythia6425mod_8f.html#a8a7efe2037220dc632000fb06895ebca" target="_top" xlink:title="pyerrm">
<polygon fill="none" stroke="#000000" points="449,-185.1929 449,-205.1929 501,-205.1929 501,-185.1929 449,-185.1929"/>
<text text-anchor="middle" x="475" y="-192.1929" font-family="FreeSans" font-size="10.00" fill="#000000">pyerrm</text>
</a>
</g>
</g>
<!-- Node12&#45;&gt;Node13 -->
<g id="edge13" class="edge">
<title>Node12&#45;&gt;Node13</title>
<path fill="none" stroke="#191970" d="M318.01,-165.6723C329.0332,-169.3522 342.0276,-173.3552 354,-176.1929 382.1172,-182.8574 414.4784,-187.8002 438.6554,-190.9713"/>
<polygon fill="#191970" stroke="#191970" points="438.449,-194.4732 448.8107,-192.2626 439.332,-187.5291 438.449,-194.4732"/>
</g>
<!-- Node29 -->
<g id="node29" class="node">
<title>Node29</title>
<g id="a_node29"><a xlink:href="../../d1/d5e/classsHelix.html#a6475358b49bdd57d441b23ab9b11182f" target="_top" xlink:title="sHelix::u">
<polygon fill="none" stroke="#000000" points="445,-93.1929 445,-113.1929 505,-113.1929 505,-93.1929 445,-93.1929"/>
<text text-anchor="middle" x="475" y="-100.1929" font-family="FreeSans" font-size="10.00" fill="#000000">sHelix::u</text>
</a>
</g>
</g>
<!-- Node12&#45;&gt;Node29 -->
<g id="edge34" class="edge">
<title>Node12&#45;&gt;Node29</title>
<path fill="none" stroke="#191970" d="M313.1342,-146.095C325.0104,-140.8329 340.1082,-134.5952 354,-130.1929 380.4522,-121.8104 410.949,-115.0232 434.708,-110.3504"/>
<polygon fill="#191970" stroke="#191970" points="435.6177,-113.7398 444.7781,-108.4166 434.2975,-106.8654 435.6177,-113.7398"/>
</g>
<!-- Node30 -->
<g id="node30" class="node">
<title>Node30</title>
<g id="a_node30"><a xlink:href="../../d1/d5e/classsHelix.html#a44ff83bf3956f25a18308cc3c7fc1873" target="_top" xlink:title="sHelix::w">
<polygon fill="none" stroke="#000000" points="444,-137.1929 444,-157.1929 506,-157.1929 506,-137.1929 444,-137.1929"/>
<text text-anchor="middle" x="475" y="-144.1929" font-family="FreeSans" font-size="10.00" fill="#000000">sHelix::w</text>
</a>
</g>
</g>
<!-- Node12&#45;&gt;Node30 -->
<g id="edge35" class="edge">
<title>Node12&#45;&gt;Node30</title>
<path fill="none" stroke="#191970" d="M318.173,-146.1892C329.1091,-142.5891 341.997,-138.9771 354,-137.1929 380.4255,-133.265 410.3441,-135.6777 433.8196,-139.1153"/>
<polygon fill="#191970" stroke="#191970" points="433.3619,-142.5864 443.786,-140.6916 434.4555,-135.6723 433.3619,-142.5864"/>
</g>
<!-- Node14 -->
<g id="node14" class="node">
<title>Node14</title>
<g id="a_node14"><a xlink:href="../../d6/dcf/pythia6425mod_8f.html#acc54128638bbd93cf630e1576f91d443" target="_top" xlink:title="pylist">
<polygon fill="none" stroke="#000000" points="542,-185.1929 542,-205.1929 586,-205.1929 586,-185.1929 542,-185.1929"/>
<text text-anchor="middle" x="564" y="-192.1929" font-family="FreeSans" font-size="10.00" fill="#000000">pylist</text>
</a>
</g>
</g>
<!-- Node13&#45;&gt;Node14 -->
<g id="edge14" class="edge">
<title>Node13&#45;&gt;Node14</title>
<path fill="none" stroke="#191970" d="M501.2216,-195.1929C510.8116,-195.1929 521.7724,-195.1929 531.8229,-195.1929"/>
<polygon fill="#191970" stroke="#191970" points="531.8714,-198.693 541.8713,-195.1929 531.8713,-191.693 531.8714,-198.693"/>
</g>
<!-- Node17 -->
<g id="node17" class="node">
<title>Node17</title>
<g id="a_node17"><a xlink:href="../../d6/dcf/pythia6425mod_8f.html#a4140396b9ec9bafcebf4c7ebecb462e7" target="_top" xlink:title="pystop">
<polygon fill="none" stroke="#000000" points="717.5,-331.1929 717.5,-351.1929 767.5,-351.1929 767.5,-331.1929 717.5,-331.1929"/>
<text text-anchor="middle" x="742.5" y="-338.1929" font-family="FreeSans" font-size="10.00" fill="#000000">pystop</text>
</a>
</g>
</g>
<!-- Node13&#45;&gt;Node17 -->
<g id="edge33" class="edge">
<title>Node13&#45;&gt;Node17</title>
<path fill="none" stroke="#191970" d="M492.2779,-205.2484C496.9024,-208.2277 501.7842,-211.648 506,-215.1929 524.0545,-230.3745 523.0721,-240.1154 542,-254.1929 593.8957,-292.7902 665.5676,-318.5578 707.6763,-331.4698"/>
<polygon fill="#191970" stroke="#191970" points="706.8777,-334.8842 717.4615,-334.4014 708.8867,-328.1786 706.8777,-334.8842"/>
</g>
<!-- Node15 -->
<g id="node15" class="node">
<title>Node15</title>
<g id="a_node15"><a xlink:href="../../dc/d9f/hcalUtil_8C.html#af562b1ac3ac927ecde202ce0501a97a6" target="_top" xlink:title="ps">
<polygon fill="none" stroke="#000000" points="636,-88.1929 636,-108.1929 665,-108.1929 665,-88.1929 636,-88.1929"/>
<text text-anchor="middle" x="650.5" y="-95.1929" font-family="FreeSans" font-size="10.00" fill="#000000">ps</text>
</a>
</g>
</g>
<!-- Node14&#45;&gt;Node15 -->
<g id="edge15" class="edge">
<title>Node14&#45;&gt;Node15</title>
<path fill="none" stroke="#191970" d="M572.9312,-185.1776C587.4995,-168.8409 616.5666,-136.2455 634.6876,-115.9247"/>
<polygon fill="#191970" stroke="#191970" points="637.4444,-118.0921 641.4878,-108.2991 632.2199,-113.4332 637.4444,-118.0921"/>
</g>
<!-- Node16 -->
<g id="node16" class="node">
<title>Node16</title>
<g id="a_node16"><a xlink:href="../../d6/dcf/pythia6425mod_8f.html#a56718d08dbb42b3b978fc9b5bd6970e6" target="_top" xlink:title="pylogo">
<polygon fill="none" stroke="#000000" points="625.5,-224.1929 625.5,-244.1929 675.5,-244.1929 675.5,-224.1929 625.5,-224.1929"/>
<text text-anchor="middle" x="650.5" y="-231.1929" font-family="FreeSans" font-size="10.00" fill="#000000">pylogo</text>
</a>
</g>
</g>
<!-- Node14&#45;&gt;Node16 -->
<g id="edge17" class="edge">
<title>Node14&#45;&gt;Node16</title>
<path fill="none" stroke="#191970" d="M586.2759,-205.2364C596.2647,-209.74 608.2229,-215.1316 619.0981,-220.0349"/>
<polygon fill="#191970" stroke="#191970" points="617.7447,-223.2639 628.2996,-224.1835 620.6219,-216.8825 617.7447,-223.2639"/>
</g>
<!-- Node24 -->
<g id="node24" class="node">
<title>Node24</title>
<g id="a_node24"><a xlink:href="../../d6/dcf/pythia6425mod_8f.html#ab0dbe916b7d36854c02faf180f41d585" target="_top" xlink:title="pyname">
<polygon fill="none" stroke="#000000" points="622,-263.1929 622,-283.1929 679,-283.1929 679,-263.1929 622,-263.1929"/>
<text text-anchor="middle" x="650.5" y="-270.1929" font-family="FreeSans" font-size="10.00" fill="#000000">pyname</text>
</a>
</g>
</g>
<!-- Node14&#45;&gt;Node24 -->
<g id="edge26" class="edge">
<title>Node14&#45;&gt;Node24</title>
<path fill="none" stroke="#191970" d="M575.8228,-205.5938C579.1687,-208.63 582.7758,-211.9932 586,-215.1929 602.7433,-231.8094 604.0601,-238.8761 622,-254.1929 623.1589,-255.1824 624.3713,-256.1641 625.615,-257.1298"/>
<polygon fill="#191970" stroke="#191970" points="623.8749,-260.1892 634.0387,-263.1805 627.9587,-254.5039 623.8749,-260.1892"/>
</g>
<!-- Node25 -->
<g id="node25" class="node">
<title>Node25</title>
<g id="a_node25"><a xlink:href="../../d6/dcf/pythia6425mod_8f.html#a6cee1eea51c820d9e90932c9eca205b7" target="_top" xlink:title="pyp">
<polygon fill="none" stroke="#000000" points="633,-185.1929 633,-205.1929 668,-205.1929 668,-185.1929 633,-185.1929"/>
<text text-anchor="middle" x="650.5" y="-192.1929" font-family="FreeSans" font-size="10.00" fill="#000000">pyp</text>
</a>
</g>
</g>
<!-- Node14&#45;&gt;Node25 -->
<g id="edge27" class="edge">
<title>Node14&#45;&gt;Node25</title>
<path fill="none" stroke="#191970" d="M586.2759,-195.1929C597.3902,-195.1929 610.9427,-195.1929 622.7286,-195.1929"/>
<polygon fill="#191970" stroke="#191970" points="622.9352,-198.693 632.9352,-195.1929 622.9351,-191.693 622.9352,-198.693"/>
</g>
<!-- Node15&#45;&gt;Node5 -->
<g id="edge16" class="edge">
<title>Node15&#45;&gt;Node5</title>
<path fill="none" stroke="#191970" d="M664.4728,-88.0171C679.2835,-77.231 702.8879,-60.0409 720.2602,-47.3893"/>
<polygon fill="#191970" stroke="#191970" points="722.674,-49.9613 728.6971,-41.245 718.5531,-44.3028 722.674,-49.9613"/>
</g>
<!-- Node16&#45;&gt;Node17 -->
<g id="edge18" class="edge">
<title>Node16&#45;&gt;Node17</title>
<path fill="none" stroke="#191970" d="M666.901,-244.3293C671.0623,-247.2602 675.3764,-250.6361 679,-254.1929 680.4931,-255.6585 710.949,-297.6167 729.1314,-322.7196"/>
<polygon fill="#191970" stroke="#191970" points="726.499,-325.0519 735.1985,-331.0991 732.1689,-320.9467 726.499,-325.0519"/>
</g>
<!-- Node23 -->
<g id="node23" class="node">
<title>Node23</title>
<g id="a_node23"><a xlink:href="../../d6/dcf/pythia6425mod_8f.html#a523e4acf745637220400daf831c34a23" target="_top" xlink:title="pytime">
<polygon fill="none" stroke="#000000" points="717,-273.1929 717,-293.1929 768,-293.1929 768,-273.1929 717,-273.1929"/>
<text text-anchor="middle" x="742.5" y="-280.1929" font-family="FreeSans" font-size="10.00" fill="#000000">pytime</text>
</a>
</g>
</g>
<!-- Node16&#45;&gt;Node23 -->
<g id="edge25" class="edge">
<title>Node16&#45;&gt;Node23</title>
<path fill="none" stroke="#191970" d="M669.5625,-244.3458C682.5148,-251.2443 699.8665,-260.4859 714.3961,-268.2245"/>
<polygon fill="#191970" stroke="#191970" points="712.9904,-271.4413 723.462,-273.0531 716.2811,-265.263 712.9904,-271.4413"/>
</g>
<!-- Node18 -->
<g id="node18" class="node">
<title>Node18</title>
<g id="a_node18"><a xlink:href="../../d0/d5e/classPHTimer.html#adce6f9a85834e59bd154b9c624ee4e41" target="_top" xlink:title="stops the counter">
<polygon fill="none" stroke="#000000" points="806,-331.1929 806,-351.1929 893,-351.1929 893,-331.1929 806,-331.1929"/>
<text text-anchor="middle" x="849.5" y="-338.1929" font-family="FreeSans" font-size="10.00" fill="#000000">PHTimer::stop</text>
</a>
</g>
</g>
<!-- Node17&#45;&gt;Node18 -->
<g id="edge19" class="edge">
<title>Node17&#45;&gt;Node18</title>
<path fill="none" stroke="#191970" d="M767.5867,-341.1929C776.0221,-341.1929 785.7851,-341.1929 795.5674,-341.1929"/>
<polygon fill="#191970" stroke="#191970" points="795.7137,-344.693 805.7137,-341.1929 795.7137,-337.693 795.7137,-344.693"/>
</g>
<!-- Node19 -->
<g id="node19" class="node">
<title>Node19</title>
<g id="a_node19"><a xlink:href="../../d0/d5e/classPHTimer.html#aa92e3fe4a0a1799f39743eda9ef9d497" target="_top" xlink:title="gets time from cpu clock counts">
<polygon fill="none" stroke="#000000" points="1082.5,-344.1929 1082.5,-376.1929 1195.5,-376.1929 1195.5,-344.1929 1082.5,-344.1929"/>
<text text-anchor="start" x="1090.5" y="-363.1929" font-family="FreeSans" font-size="10.00" fill="#000000">PHTimer::get_clock</text>
<text text-anchor="middle" x="1139" y="-351.1929" font-family="FreeSans" font-size="10.00" fill="#000000">_counts</text>
</a>
</g>
</g>
<!-- Node18&#45;&gt;Node19 -->
<g id="edge20" class="edge">
<title>Node18&#45;&gt;Node19</title>
<path fill="none" stroke="#191970" d="M893.1545,-344.058C940.665,-347.1761 1017.1979,-352.199 1072.258,-355.8126"/>
<polygon fill="#191970" stroke="#191970" points="1072.0694,-359.3077 1082.2772,-356.4702 1072.5279,-352.3227 1072.0694,-359.3077"/>
</g>
<!-- Node20 -->
<g id="node20" class="node">
<title>Node20</title>
<g id="a_node20"><a xlink:href="../../d0/d5e/classPHTimer.html#a976738876ad978116fdc4549a3765685" target="_top" xlink:title="retrieve elapsed value since last restart (in ms)">
<polygon fill="none" stroke="#000000" points="929,-311.1929 929,-331.1929 1034,-331.1929 1034,-311.1929 929,-311.1929"/>
<text text-anchor="middle" x="981.5" y="-318.1929" font-family="FreeSans" font-size="10.00" fill="#000000">PHTimer::elapsed</text>
</a>
</g>
</g>
<!-- Node18&#45;&gt;Node20 -->
<g id="edge21" class="edge">
<title>Node18&#45;&gt;Node20</title>
<path fill="none" stroke="#191970" d="M893.0876,-334.5888C901.2917,-333.3457 910.0201,-332.0232 918.6756,-330.7118"/>
<polygon fill="#191970" stroke="#191970" points="919.4042,-334.1414 928.767,-329.1828 918.3555,-327.2204 919.4042,-334.1414"/>
</g>
<!-- Node20&#45;&gt;Node19 -->
<g id="edge24" class="edge">
<title>Node20&#45;&gt;Node19</title>
<path fill="none" stroke="#191970" d="M1022.0602,-331.2364C1037.3746,-335.0286 1055.2315,-339.4503 1072.3129,-343.6799"/>
<polygon fill="#191970" stroke="#191970" points="1071.7073,-347.1356 1082.2554,-346.1419 1073.3898,-340.3408 1071.7073,-347.1356"/>
</g>
<!-- Node21 -->
<g id="node21" class="node">
<title>Node21</title>
<g id="a_node21"><a xlink:href="../../d0/d5e/classPHTimer.html#aa75ff2c27aba40e7ef0a934f9a3355c2" target="_top" xlink:title="returns difference between to time">
<polygon fill="none" stroke="#000000" points="1070,-305.1929 1070,-325.1929 1208,-325.1929 1208,-305.1929 1070,-305.1929"/>
<text text-anchor="middle" x="1139" y="-312.1929" font-family="FreeSans" font-size="10.00" fill="#000000">PHTimer::get_difference</text>
</a>
</g>
</g>
<!-- Node20&#45;&gt;Node21 -->
<g id="edge22" class="edge">
<title>Node20&#45;&gt;Node21</title>
<path fill="none" stroke="#191970" d="M1034.3834,-319.1783C1042.5408,-318.8676 1051.1148,-318.541 1059.6976,-318.214"/>
<polygon fill="#191970" stroke="#191970" points="1059.8931,-321.7092 1069.7526,-317.8309 1059.6266,-314.7143 1059.8931,-321.7092"/>
</g>
<!-- Node22 -->
<g id="node22" class="node">
<title>Node22</title>
<g id="a_node22"><a xlink:href="../../d2/db1/classPHTimer_1_1Frequency.html#a023a2d706df9a8bd303810a9ed017f61" target="_top" xlink:title="period accessor">
<polygon fill="none" stroke="#000000" points="1244,-299.1929 1244,-331.1929 1362,-331.1929 1362,-299.1929 1244,-299.1929"/>
<text text-anchor="start" x="1252" y="-318.1929" font-family="FreeSans" font-size="10.00" fill="#000000">PHTimer::Frequency</text>
<text text-anchor="middle" x="1303" y="-306.1929" font-family="FreeSans" font-size="10.00" fill="#000000">::period</text>
</a>
</g>
</g>
<!-- Node21&#45;&gt;Node22 -->
<g id="edge23" class="edge">
<title>Node21&#45;&gt;Node22</title>
<path fill="none" stroke="#191970" d="M1208.0754,-315.1929C1216.5394,-315.1929 1225.1918,-315.1929 1233.6596,-315.1929"/>
<polygon fill="#191970" stroke="#191970" points="1233.8719,-318.693 1243.8719,-315.1929 1233.8719,-311.693 1233.8719,-318.693"/>
</g>
<!-- Node25&#45;&gt;Node7 -->
<g id="edge31" class="edge">
<title>Node25&#45;&gt;Node7</title>
<path fill="none" stroke="#191970" d="M668.2385,-204.6406C681.3837,-211.6419 699.556,-221.3206 714.6336,-229.3511"/>
<polygon fill="#191970" stroke="#191970" points="713.0776,-232.4877 723.5491,-234.0995 716.3682,-226.3094 713.0776,-232.4877"/>
</g>
<!-- Node26 -->
<g id="node26" class="node">
<title>Node26</title>
<g id="a_node26"><a xlink:href="../../d6/dcf/pythia6425mod_8f.html#aa8c99978a55999fa0b1fd2a946d8553a" target="_top" xlink:title="pyangl">
<polygon fill="none" stroke="#000000" points="717.5,-117.1929 717.5,-137.1929 767.5,-137.1929 767.5,-117.1929 717.5,-117.1929"/>
<text text-anchor="middle" x="742.5" y="-124.1929" font-family="FreeSans" font-size="10.00" fill="#000000">pyangl</text>
</a>
</g>
</g>
<!-- Node25&#45;&gt;Node26 -->
<g id="edge28" class="edge">
<title>Node25&#45;&gt;Node26</title>
<path fill="none" stroke="#191970" d="M664.3077,-184.8493C677.3457,-175.0984 697.4602,-160.0969 715,-147.1929 716.6405,-145.986 718.3383,-144.7411 720.0482,-143.4905"/>
<polygon fill="#191970" stroke="#191970" points="722.4693,-146.0569 728.4884,-137.3378 718.3458,-140.4003 722.4693,-146.0569"/>
</g>
<!-- Node27 -->
<g id="node27" class="node">
<title>Node27</title>
<g id="a_node27"><a xlink:href="../../da/d0a/CylinderKalman_8cpp.html#ab74daa0c9784c63e060bfb98cc06fbf5" target="_top" xlink:title="sign">
<polygon fill="none" stroke="#000000" points="831,-156.1929 831,-176.1929 868,-176.1929 868,-156.1929 831,-156.1929"/>
<text text-anchor="middle" x="849.5" y="-163.1929" font-family="FreeSans" font-size="10.00" fill="#000000">sign</text>
</a>
</g>
</g>
<!-- Node25&#45;&gt;Node27 -->
<g id="edge32" class="edge">
<title>Node25&#45;&gt;Node27</title>
<path fill="none" stroke="#191970" d="M668.0258,-194.811C691.4147,-194.0879 734.0605,-192.0229 770,-186.1929 787.1216,-183.4156 805.9593,-178.7497 820.9986,-174.623"/>
<polygon fill="#191970" stroke="#191970" points="822.0583,-177.9608 830.7358,-171.882 820.1615,-171.2227 822.0583,-177.9608"/>
</g>
<!-- Node28 -->
<g id="node28" class="node">
<title>Node28</title>
<g id="a_node28"><a xlink:href="../../d6/dcf/pythia6425mod_8f.html#a27f75936fde97780175fa2c990bc61cd" target="_top" xlink:title="pychge">
<polygon fill="none" stroke="#000000" points="716,-156.1929 716,-176.1929 769,-176.1929 769,-156.1929 716,-156.1929"/>
<text text-anchor="middle" x="742.5" y="-163.1929" font-family="FreeSans" font-size="10.00" fill="#000000">pychge</text>
</a>
</g>
</g>
<!-- Node25&#45;&gt;Node28 -->
<g id="edge30" class="edge">
<title>Node25&#45;&gt;Node28</title>
<path fill="none" stroke="#191970" d="M668.2385,-189.6015C678.9736,-186.2176 693.0615,-181.7768 706.0785,-177.6736"/>
<polygon fill="#191970" stroke="#191970" points="707.2656,-180.9693 715.7507,-174.6248 705.1611,-174.2931 707.2656,-180.9693"/>
</g>
<!-- Node26&#45;&gt;Node27 -->
<g id="edge29" class="edge">
<title>Node26&#45;&gt;Node27</title>
<path fill="none" stroke="#191970" d="M767.5867,-136.3367C783.6487,-142.1911 804.5242,-149.7999 821.1808,-155.871"/>
<polygon fill="#191970" stroke="#191970" points="820.332,-159.2868 830.926,-159.423 822.7292,-152.7101 820.332,-159.2868"/>
</g>
<!-- Node31&#45;&gt;Node4 -->
<g id="edge42" class="edge">
<title>Node31&#45;&gt;Node4</title>
<path fill="none" stroke="#191970" d="M218.3412,-185.1366C222.079,-182.489 225.859,-179.452 229,-176.1929 252.1058,-152.2189 271.3905,-118.4377 282.1812,-97.4507"/>
<polygon fill="#191970" stroke="#191970" points="285.428,-98.7835 286.7756,-88.2748 279.1688,-95.6495 285.428,-98.7835"/>
</g>
<!-- Node31&#45;&gt;Node12 -->
<g id="edge41" class="edge">
<title>Node31&#45;&gt;Node12</title>
<path fill="none" stroke="#191970" d="M224.6772,-185.1495C235.1752,-180.6004 247.7638,-175.1453 259.17,-170.2026"/>
<polygon fill="#191970" stroke="#191970" points="260.6174,-173.39 268.4013,-166.2024 257.8341,-166.9671 260.6174,-173.39"/>
</g>
<!-- Node32 -->
<g id="node32" class="node">
<title>Node32</title>
<g id="a_node32"><a xlink:href="../../d6/dcf/pythia6425mod_8f.html#a371f64ca765777a5a87c152e18482a4a" target="_top" xlink:title="pyrvg2">
<polygon fill="none" stroke="#000000" points="355.5,-263.1929 355.5,-283.1929 406.5,-283.1929 406.5,-263.1929 355.5,-263.1929"/>
<text text-anchor="middle" x="381" y="-270.1929" font-family="FreeSans" font-size="10.00" fill="#000000">pyrvg2</text>
</a>
</g>
</g>
<!-- Node31&#45;&gt;Node32 -->
<g id="edge38" class="edge">
<title>Node31&#45;&gt;Node32</title>
<path fill="none" stroke="#191970" d="M224.599,-205.2304C256.0168,-218.8827 312.3984,-243.3828 348.1931,-258.937"/>
<polygon fill="#191970" stroke="#191970" points="347.1389,-262.2951 357.7053,-263.0705 349.9287,-255.875 347.1389,-262.2951"/>
</g>
<!-- Node33 -->
<g id="node33" class="node">
<title>Node33</title>
<g id="a_node33"><a xlink:href="../../d6/dcf/pythia6425mod_8f.html#a78f4bff902221f0851a474a0642ca924" target="_top" xlink:title="pyrvs">
<polygon fill="none" stroke="#000000" points="453,-224.1929 453,-244.1929 497,-244.1929 497,-224.1929 453,-224.1929"/>
<text text-anchor="middle" x="475" y="-231.1929" font-family="FreeSans" font-size="10.00" fill="#000000">pyrvs</text>
</a>
</g>
</g>
<!-- Node32&#45;&gt;Node33 -->
<g id="edge39" class="edge">
<title>Node32&#45;&gt;Node33</title>
<path fill="none" stroke="#191970" d="M405.2073,-263.1495C416.7966,-258.3412 430.8253,-252.5207 443.2568,-247.363"/>
<polygon fill="#191970" stroke="#191970" points="444.9117,-250.4657 452.807,-243.4007 442.2292,-244.0001 444.9117,-250.4657"/>
</g>
<!-- Node33&#45;&gt;Node11 -->
<g id="edge40" class="edge">
<title>Node33&#45;&gt;Node11</title>
<path fill="none" stroke="#191970" d="M497,-234.1929C507.5621,-234.1929 520.4192,-234.1929 532.0354,-234.1929"/>
<polygon fill="#191970" stroke="#191970" points="532.2531,-237.693 542.2531,-234.1929 532.253,-230.693 532.2531,-237.693"/>
</g>
<!-- Node34&#45;&gt;Node4 -->
<g id="edge52" class="edge">
<title>Node34&#45;&gt;Node4</title>
<path fill="none" stroke="#191970" d="M216.9301,-146.1414C220.9484,-143.3603 225.2115,-140.2603 229,-137.1929 245.1725,-124.0988 262.2717,-107.7628 274.489,-95.6024"/>
<polygon fill="#191970" stroke="#191970" points="277.1885,-97.8511 281.7536,-88.2903 272.2227,-92.9175 277.1885,-97.8511"/>
</g>
<!-- Node34&#45;&gt;Node12 -->
<g id="edge51" class="edge">
<title>Node34&#45;&gt;Node12</title>
<path fill="none" stroke="#191970" d="M225.6183,-156.1929C234.4895,-156.1929 244.7519,-156.1929 254.4972,-156.1929"/>
<polygon fill="#191970" stroke="#191970" points="254.7788,-159.693 264.7787,-156.1929 254.7787,-152.693 254.7788,-159.693"/>
</g>
<!-- Node35 -->
<g id="node35" class="node">
<title>Node35</title>
<g id="a_node35"><a xlink:href="../../d6/dcf/pythia6425mod_8f.html#a23fb42dd91c099fbcd5cd2001c74e98d" target="_top" xlink:title="pyrvg3">
<polygon fill="none" stroke="#000000" points="266,-185.1929 266,-205.1929 317,-205.1929 317,-185.1929 266,-185.1929"/>
<text text-anchor="middle" x="291.5" y="-192.1929" font-family="FreeSans" font-size="10.00" fill="#000000">pyrvg3</text>
</a>
</g>
</g>
<!-- Node34&#45;&gt;Node35 -->
<g id="edge44" class="edge">
<title>Node34&#45;&gt;Node35</title>
<path fill="none" stroke="#191970" d="M224.6772,-166.2364C235.1752,-170.7855 247.7638,-176.2406 259.17,-181.1833"/>
<polygon fill="#191970" stroke="#191970" points="257.8341,-184.4188 268.4013,-185.1835 260.6174,-177.9959 257.8341,-184.4188"/>
</g>
<!-- Node36 -->
<g id="node36" class="node">
<title>Node36</title>
<g id="a_node36"><a xlink:href="../../d6/dcf/pythia6425mod_8f.html#ad2bff8fc5a17d91922af88f41b6e22f3" target="_top" xlink:title="pygau2">
<polygon fill="none" stroke="#000000" points="354,-146.1929 354,-166.1929 408,-166.1929 408,-146.1929 354,-146.1929"/>
<text text-anchor="middle" x="381" y="-153.1929" font-family="FreeSans" font-size="10.00" fill="#000000">pygau2</text>
</a>
</g>
</g>
<!-- Node35&#45;&gt;Node36 -->
<g id="edge45" class="edge">
<title>Node35&#45;&gt;Node36</title>
<path fill="none" stroke="#191970" d="M314.5485,-185.1495C324.9881,-180.6004 337.5068,-175.1453 348.8496,-170.2026"/>
<polygon fill="#191970" stroke="#191970" points="350.2604,-173.4058 358.0296,-166.2024 347.464,-166.9886 350.2604,-173.4058"/>
</g>
<!-- Node37 -->
<g id="node37" class="node">
<title>Node37</title>
<g id="a_node37"><a xlink:href="../../d6/dcf/pythia6425mod_8f.html#a4de5cb4846e35b7378ff15e9a97710c4" target="_top" xlink:title="pyrvg4">
<polygon fill="none" stroke="#000000" points="355.5,-224.1929 355.5,-244.1929 406.5,-244.1929 406.5,-224.1929 355.5,-224.1929"/>
<text text-anchor="middle" x="381" y="-231.1929" font-family="FreeSans" font-size="10.00" fill="#000000">pyrvg4</text>
</a>
</g>
</g>
<!-- Node35&#45;&gt;Node37 -->
<g id="edge49" class="edge">
<title>Node35&#45;&gt;Node37</title>
<path fill="none" stroke="#191970" d="M314.5485,-205.2364C324.9881,-209.7855 337.5068,-215.2406 348.8496,-220.1833"/>
<polygon fill="#191970" stroke="#191970" points="347.464,-223.3973 358.0296,-224.1835 350.2604,-216.9801 347.464,-223.3973"/>
</g>
<!-- Node36&#45;&gt;Node13 -->
<g id="edge46" class="edge">
<title>Node36&#45;&gt;Node13</title>
<path fill="none" stroke="#191970" d="M405.2073,-166.2364C416.2815,-170.831 429.5831,-176.3498 441.5902,-181.3314"/>
<polygon fill="#191970" stroke="#191970" points="440.2968,-184.5841 450.8747,-185.1835 442.9794,-178.1185 440.2968,-184.5841"/>
</g>
<!-- Node36&#45;&gt;Node29 -->
<g id="edge47" class="edge">
<title>Node36&#45;&gt;Node29</title>
<path fill="none" stroke="#191970" d="M399.1241,-145.974C413.1277,-138.0784 432.7151,-127.0344 448.4806,-118.1454"/>
<polygon fill="#191970" stroke="#191970" points="450.2585,-121.161 457.2503,-113.2008 446.8205,-115.0634 450.2585,-121.161"/>
</g>
<!-- Node36&#45;&gt;Node30 -->
<g id="edge48" class="edge">
<title>Node36&#45;&gt;Node30</title>
<path fill="none" stroke="#191970" d="M408.1887,-153.5898C416.217,-152.8211 425.1892,-151.9621 433.8881,-151.1292"/>
<polygon fill="#191970" stroke="#191970" points="434.2804,-154.6077 443.9013,-150.1705 433.6132,-147.6396 434.2804,-154.6077"/>
</g>
<!-- Node37&#45;&gt;Node33 -->
<g id="edge50" class="edge">
<title>Node37&#45;&gt;Node33</title>
<path fill="none" stroke="#191970" d="M406.6859,-234.1929C417.7564,-234.1929 430.8285,-234.1929 442.5583,-234.1929"/>
<polygon fill="#191970" stroke="#191970" points="442.8572,-237.693 452.8572,-234.1929 442.8572,-230.693 442.8572,-237.693"/>
</g>
</g>
</svg>
