<?xml version="1.0" encoding="UTF-8" standalone="no"?>
<!DOCTYPE svg PUBLIC "-//W3C//DTD SVG 1.1//EN"
 "http://www.w3.org/Graphics/SVG/1.1/DTD/svg11.dtd">
<!-- Generated by graphviz version 2.40.1 (20161225.0304)
 -->
<!-- Title: ssmssm Pages: 1 -->
<svg width="743pt" height="86pt"
 viewBox="0.00 0.00 743.00 86.00" xmlns="http://www.w3.org/2000/svg" xmlns:xlink="http://www.w3.org/1999/xlink">
<g id="graph0" class="graph" transform="scale(1 1) rotate(0) translate(4 82)">
<title>ssmssm</title>
<!-- Node1 -->
<g id="node1" class="node">
<title>Node1</title>
<polygon fill="#bfbfbf" stroke="#000000" points="0,-31.5 0,-51.5 57,-51.5 57,-31.5 0,-31.5"/>
<text text-anchor="middle" x="28.5" y="-38.5" font-family="FreeSans" font-size="10.00" fill="#000000">ssmssm</text>
</g>
<!-- Node2 -->
<g id="node2" class="node">
<title>Node2</title>
<g id="a_node2"><a xlink:href="../../d6/dcf/pythia6425mod_8f.html#a4140396b9ec9bafcebf4c7ebecb462e7" target="_top" xlink:title="pystop">
<polygon fill="none" stroke="#000000" points="93,-31.5 93,-51.5 143,-51.5 143,-31.5 93,-31.5"/>
<text text-anchor="middle" x="118" y="-38.5" font-family="FreeSans" font-size="10.00" fill="#000000">pystop</text>
</a>
</g>
</g>
<!-- Node1&#45;&gt;Node2 -->
<g id="edge1" class="edge">
<title>Node1&#45;&gt;Node2</title>
<path fill="none" stroke="#191970" d="M57.311,-41.5C65.4488,-41.5 74.3956,-41.5 82.8608,-41.5"/>
<polygon fill="#191970" stroke="#191970" points="82.8609,-45.0001 92.8609,-41.5 82.8609,-38.0001 82.8609,-45.0001"/>
</g>
<!-- Node3 -->
<g id="node3" class="node">
<title>Node3</title>
<g id="a_node3"><a xlink:href="../../d0/d5e/classPHTimer.html#adce6f9a85834e59bd154b9c624ee4e41" target="_top" xlink:title="stops the counter">
<polygon fill="none" stroke="#000000" points="179,-31.5 179,-51.5 266,-51.5 266,-31.5 179,-31.5"/>
<text text-anchor="middle" x="222.5" y="-38.5" font-family="FreeSans" font-size="10.00" fill="#000000">PHTimer::stop</text>
</a>
</g>
</g>
<!-- Node2&#45;&gt;Node3 -->
<g id="edge2" class="edge">
<title>Node2&#45;&gt;Node3</title>
<path fill="none" stroke="#191970" d="M143.0304,-41.5C150.8394,-41.5 159.7739,-41.5 168.767,-41.5"/>
<polygon fill="#191970" stroke="#191970" points="168.8885,-45.0001 178.8885,-41.5 168.8885,-38.0001 168.8885,-45.0001"/>
</g>
<!-- Node4 -->
<g id="node4" class="node">
<title>Node4</title>
<g id="a_node4"><a xlink:href="../../d0/d5e/classPHTimer.html#aa92e3fe4a0a1799f39743eda9ef9d497" target="_top" xlink:title="gets time from cpu clock counts">
<polygon fill="none" stroke="#000000" points="455.5,-45.5 455.5,-77.5 568.5,-77.5 568.5,-45.5 455.5,-45.5"/>
<text text-anchor="start" x="463.5" y="-64.5" font-family="FreeSans" font-size="10.00" fill="#000000">PHTimer::get_clock</text>
<text text-anchor="middle" x="512" y="-52.5" font-family="FreeSans" font-size="10.00" fill="#000000">_counts</text>
</a>
</g>
</g>
<!-- Node3&#45;&gt;Node4 -->
<g id="edge3" class="edge">
<title>Node3&#45;&gt;Node4</title>
<path fill="none" stroke="#191970" d="M266.1545,-44.5159C313.665,-47.7981 390.1979,-53.0853 445.258,-56.8892"/>
<polygon fill="#191970" stroke="#191970" points="445.0597,-60.3837 455.2772,-57.5813 445.5422,-53.4004 445.0597,-60.3837"/>
</g>
<!-- Node5 -->
<g id="node5" class="node">
<title>Node5</title>
<g id="a_node5"><a xlink:href="../../d0/d5e/classPHTimer.html#a976738876ad978116fdc4549a3765685" target="_top" xlink:title="retrieve elapsed value since last restart (in ms)">
<polygon fill="none" stroke="#000000" points="302,-12.5 302,-32.5 407,-32.5 407,-12.5 302,-12.5"/>
<text text-anchor="middle" x="354.5" y="-19.5" font-family="FreeSans" font-size="10.00" fill="#000000">PHTimer::elapsed</text>
</a>
</g>
</g>
<!-- Node3&#45;&gt;Node5 -->
<g id="edge4" class="edge">
<title>Node3&#45;&gt;Node5</title>
<path fill="none" stroke="#191970" d="M266.0876,-35.226C274.2917,-34.0451 283.0201,-32.7888 291.6756,-31.5429"/>
<polygon fill="#191970" stroke="#191970" points="292.3676,-34.9795 301.767,-30.0904 291.3703,-28.0509 292.3676,-34.9795"/>
</g>
<!-- Node5&#45;&gt;Node4 -->
<g id="edge7" class="edge">
<title>Node5&#45;&gt;Node4</title>
<path fill="none" stroke="#191970" d="M395.0602,-32.5435C410.3746,-36.3356 428.2315,-40.7573 445.3129,-44.987"/>
<polygon fill="#191970" stroke="#191970" points="444.7073,-48.4427 455.2554,-47.449 446.3898,-41.6479 444.7073,-48.4427"/>
</g>
<!-- Node6 -->
<g id="node6" class="node">
<title>Node6</title>
<g id="a_node6"><a xlink:href="../../d0/d5e/classPHTimer.html#aa75ff2c27aba40e7ef0a934f9a3355c2" target="_top" xlink:title="returns difference between to time">
<polygon fill="none" stroke="#000000" points="443,-6.5 443,-26.5 581,-26.5 581,-6.5 443,-6.5"/>
<text text-anchor="middle" x="512" y="-13.5" font-family="FreeSans" font-size="10.00" fill="#000000">PHTimer::get_difference</text>
</a>
</g>
</g>
<!-- Node5&#45;&gt;Node6 -->
<g id="edge5" class="edge">
<title>Node5&#45;&gt;Node6</title>
<path fill="none" stroke="#191970" d="M407.3834,-20.4854C415.5408,-20.1746 424.1148,-19.848 432.6976,-19.521"/>
<polygon fill="#191970" stroke="#191970" points="432.8931,-23.0162 442.7526,-19.138 432.6266,-16.0213 432.8931,-23.0162"/>
</g>
<!-- Node7 -->
<g id="node7" class="node">
<title>Node7</title>
<g id="a_node7"><a xlink:href="../../d2/db1/classPHTimer_1_1Frequency.html#a023a2d706df9a8bd303810a9ed017f61" target="_top" xlink:title="period accessor">
<polygon fill="none" stroke="#000000" points="617,-.5 617,-32.5 735,-32.5 735,-.5 617,-.5"/>
<text text-anchor="start" x="625" y="-19.5" font-family="FreeSans" font-size="10.00" fill="#000000">PHTimer::Frequency</text>
<text text-anchor="middle" x="676" y="-7.5" font-family="FreeSans" font-size="10.00" fill="#000000">::period</text>
</a>
</g>
</g>
<!-- Node6&#45;&gt;Node7 -->
<g id="edge6" class="edge">
<title>Node6&#45;&gt;Node7</title>
<path fill="none" stroke="#191970" d="M581.0754,-16.5C589.5394,-16.5 598.1918,-16.5 606.6596,-16.5"/>
<polygon fill="#191970" stroke="#191970" points="606.8719,-20.0001 616.8719,-16.5 606.8719,-13.0001 606.8719,-20.0001"/>
</g>
</g>
</svg>
