<?xml version="1.0" encoding="UTF-8" standalone="no"?>
<!DOCTYPE svg PUBLIC "-//W3C//DTD SVG 1.1//EN"
 "http://www.w3.org/Graphics/SVG/1.1/DTD/svg11.dtd">
<!-- Generated by graphviz version 2.40.1 (20161225.0304)
 -->
<!-- Title: pystbh Pages: 1 -->
<svg width="1471pt" height="326pt"
 viewBox="0.00 0.00 1471.00 326.00" xmlns="http://www.w3.org/2000/svg" xmlns:xlink="http://www.w3.org/1999/xlink">
<g id="graph0" class="graph" transform="scale(1 1) rotate(0) translate(4 322)">
<title>pystbh</title>
<!-- Node1 -->
<g id="node1" class="node">
<title>Node1</title>
<polygon fill="#bfbfbf" stroke="#000000" points="0,-182.5 0,-202.5 50,-202.5 50,-182.5 0,-182.5"/>
<text text-anchor="middle" x="25" y="-189.5" font-family="FreeSans" font-size="10.00" fill="#000000">pystbh</text>
</g>
<!-- Node2 -->
<g id="node2" class="node">
<title>Node2</title>
<g id="a_node2"><a xlink:href="../../d6/dcf/pythia6425mod_8f.html#a57a12a8bdfcf423e5b0ed01349b0ff46" target="_top" xlink:title="pysghg">
<polygon fill="none" stroke="#000000" points="86,-182.5 86,-202.5 139,-202.5 139,-182.5 86,-182.5"/>
<text text-anchor="middle" x="112.5" y="-189.5" font-family="FreeSans" font-size="10.00" fill="#000000">pysghg</text>
</a>
</g>
</g>
<!-- Node1&#45;&gt;Node2 -->
<g id="edge1" class="edge">
<title>Node1&#45;&gt;Node2</title>
<path fill="none" stroke="#191970" d="M60.3344,-192.5C68.8052,-192.5 77.7134,-192.5 85.7233,-192.5"/>
<polygon fill="#191970" stroke="#191970" points="60.3087,-189.0001 50.3086,-192.5 60.3086,-196.0001 60.3087,-189.0001"/>
</g>
<!-- Node3 -->
<g id="node3" class="node">
<title>Node3</title>
<g id="a_node3"><a xlink:href="../../d6/dcf/pythia6425mod_8f.html#a3ccdee32be69df9daf5605283165a012" target="_top" xlink:title="pysigh">
<polygon fill="none" stroke="#000000" points="175,-182.5 175,-202.5 224,-202.5 224,-182.5 175,-182.5"/>
<text text-anchor="middle" x="199.5" y="-189.5" font-family="FreeSans" font-size="10.00" fill="#000000">pysigh</text>
</a>
</g>
</g>
<!-- Node2&#45;&gt;Node3 -->
<g id="edge2" class="edge">
<title>Node2&#45;&gt;Node3</title>
<path fill="none" stroke="#191970" d="M149.3218,-192.5C157.9447,-192.5 166.9263,-192.5 174.8673,-192.5"/>
<polygon fill="#191970" stroke="#191970" points="149.0756,-189.0001 139.0756,-192.5 149.0756,-196.0001 149.0756,-189.0001"/>
</g>
<!-- Node4 -->
<g id="node4" class="node">
<title>Node4</title>
<g id="a_node4"><a xlink:href="../../d6/dcf/pythia6425mod_8f.html#aa9cb6f1467302508501201a0e38959d1" target="_top" xlink:title="pymaxi">
<polygon fill="none" stroke="#000000" points="260,-259.5 260,-279.5 313,-279.5 313,-259.5 260,-259.5"/>
<text text-anchor="middle" x="286.5" y="-266.5" font-family="FreeSans" font-size="10.00" fill="#000000">pymaxi</text>
</a>
</g>
</g>
<!-- Node3&#45;&gt;Node4 -->
<g id="edge3" class="edge">
<title>Node3&#45;&gt;Node4</title>
<path fill="none" stroke="#191970" d="M218.6728,-209.469C235.9568,-224.7664 260.7933,-246.7481 275.1235,-259.4311"/>
<polygon fill="#191970" stroke="#191970" points="220.6817,-206.5731 210.8737,-202.5664 216.0424,-211.815 220.6817,-206.5731"/>
</g>
<!-- Node9 -->
<g id="node9" class="node">
<title>Node9</title>
<g id="a_node9"><a xlink:href="../../d6/dcf/pythia6425mod_8f.html#a5c7e2372fde451d6f2253ef044e01364" target="_top" xlink:title="pymign">
<polygon fill="none" stroke="#000000" points="349,-221.5 349,-241.5 403,-241.5 403,-221.5 349,-221.5"/>
<text text-anchor="middle" x="376" y="-228.5" font-family="FreeSans" font-size="10.00" fill="#000000">pymign</text>
</a>
</g>
</g>
<!-- Node3&#45;&gt;Node9 -->
<g id="edge8" class="edge">
<title>Node3&#45;&gt;Node9</title>
<path fill="none" stroke="#191970" d="M234.152,-200.6136C242.603,-202.5661 251.6222,-204.628 260,-206.5 290.3593,-213.2837 325.2623,-220.7627 348.7864,-225.7565"/>
<polygon fill="#191970" stroke="#191970" points="234.7389,-197.1568 224.2066,-198.3062 233.1569,-203.9757 234.7389,-197.1568"/>
</g>
<!-- Node22 -->
<g id="node22" class="node">
<title>Node22</title>
<g id="a_node22"><a xlink:href="../../d6/dcf/pythia6425mod_8f.html#a2d74d5dd64881524212b3720af2696de" target="_top" xlink:title="pyrand">
<polygon fill="none" stroke="#000000" points="439,-143.5 439,-163.5 490,-163.5 490,-143.5 439,-143.5"/>
<text text-anchor="middle" x="464.5" y="-150.5" font-family="FreeSans" font-size="10.00" fill="#000000">pyrand</text>
</a>
</g>
</g>
<!-- Node3&#45;&gt;Node22 -->
<g id="edge40" class="edge">
<title>Node3&#45;&gt;Node22</title>
<path fill="none" stroke="#191970" d="M234.5571,-187.3407C288.5612,-179.3929 390.8565,-164.3381 438.663,-157.3024"/>
<polygon fill="#191970" stroke="#191970" points="233.8144,-183.9122 224.4306,-188.831 234.8336,-190.8376 233.8144,-183.9122"/>
</g>
<!-- Node25 -->
<g id="node25" class="node">
<title>Node25</title>
<g id="a_node25"><a xlink:href="../../d6/dcf/pythia6425mod_8f.html#a4ae1a9148440832c122abdaedf3555a7" target="_top" xlink:title="pymult">
<polygon fill="none" stroke="#000000" points="350,-182.5 350,-202.5 402,-202.5 402,-182.5 350,-182.5"/>
<text text-anchor="middle" x="376" y="-189.5" font-family="FreeSans" font-size="10.00" fill="#000000">pymult</text>
</a>
</g>
</g>
<!-- Node3&#45;&gt;Node25 -->
<g id="edge31" class="edge">
<title>Node3&#45;&gt;Node25</title>
<path fill="none" stroke="#191970" d="M234.4419,-192.5C268.448,-192.5 319.343,-192.5 349.945,-192.5"/>
<polygon fill="#191970" stroke="#191970" points="234.0416,-189.0001 224.0416,-192.5 234.0415,-196.0001 234.0416,-189.0001"/>
</g>
<!-- Node26 -->
<g id="node26" class="node">
<title>Node26</title>
<g id="a_node26"><a xlink:href="../../d6/dcf/pythia6425mod_8f.html#af1b5061d1d80462745ef6b9ab52500f2" target="_top" xlink:title="pyptmi">
<polygon fill="none" stroke="#000000" points="261,-104.5 261,-124.5 312,-124.5 312,-104.5 261,-104.5"/>
<text text-anchor="middle" x="286.5" y="-111.5" font-family="FreeSans" font-size="10.00" fill="#000000">pyptmi</text>
</a>
</g>
</g>
<!-- Node3&#45;&gt;Node26 -->
<g id="edge35" class="edge">
<title>Node3&#45;&gt;Node26</title>
<path fill="none" stroke="#191970" d="M218.6728,-175.3106C235.9568,-159.8146 260.7933,-137.5474 275.1235,-124.6996"/>
<polygon fill="#191970" stroke="#191970" points="215.983,-173.0214 210.8737,-182.3029 220.6559,-178.2334 215.983,-173.0214"/>
</g>
<!-- Node5 -->
<g id="node5" class="node">
<title>Node5</title>
<g id="a_node5"><a xlink:href="../../d6/dcf/pythia6425mod_8f.html#aac00ac3ccd923c2c3dc37e2b89a9f025" target="_top" xlink:title="pyinit">
<polygon fill="none" stroke="#000000" points="442,-259.5 442,-279.5 487,-279.5 487,-259.5 442,-259.5"/>
<text text-anchor="middle" x="464.5" y="-266.5" font-family="FreeSans" font-size="10.00" fill="#000000">pyinit</text>
</a>
</g>
</g>
<!-- Node4&#45;&gt;Node5 -->
<g id="edge4" class="edge">
<title>Node4&#45;&gt;Node5</title>
<path fill="none" stroke="#191970" d="M323.1725,-269.5C358.8734,-269.5 411.9946,-269.5 441.9075,-269.5"/>
<polygon fill="#191970" stroke="#191970" points="323.1484,-266.0001 313.1484,-269.5 323.1484,-273.0001 323.1484,-266.0001"/>
</g>
<!-- Node6 -->
<g id="node6" class="node">
<title>Node6</title>
<g id="a_node6"><a xlink:href="../../d3/dd5/jewel-2_82_80_8f.html#a2cba90a4cdaaf1d5de1cf1bfe9afaa2e" target="_top" xlink:title="initpythia">
<polygon fill="none" stroke="#000000" points="618,-297.5 618,-317.5 681,-317.5 681,-297.5 618,-297.5"/>
<text text-anchor="middle" x="649.5" y="-304.5" font-family="FreeSans" font-size="10.00" fill="#000000">initpythia</text>
</a>
</g>
</g>
<!-- Node5&#45;&gt;Node6 -->
<g id="edge5" class="edge">
<title>Node5&#45;&gt;Node6</title>
<path fill="none" stroke="#191970" d="M497.3037,-276.4886C506.5782,-278.4496 516.6826,-280.5722 526,-282.5 557.1692,-288.949 592.8023,-296.1431 617.7564,-301.1521"/>
<polygon fill="#191970" stroke="#191970" points="497.7797,-273.0118 487.2712,-274.3621 496.3281,-279.8596 497.7797,-273.0118"/>
</g>
<!-- Node8 -->
<g id="node8" class="node">
<title>Node8</title>
<g id="a_node8"><a xlink:href="../../d6/dcf/pythia6425mod_8f.html#a4cc0e611278607d6b413b5cecdfe16c3" target="_top" xlink:title="pytest">
<polygon fill="none" stroke="#000000" points="725.5,-240.5 725.5,-260.5 773.5,-260.5 773.5,-240.5 725.5,-240.5"/>
<text text-anchor="middle" x="749.5" y="-247.5" font-family="FreeSans" font-size="10.00" fill="#000000">pytest</text>
</a>
</g>
</g>
<!-- Node5&#45;&gt;Node8 -->
<g id="edge7" class="edge">
<title>Node5&#45;&gt;Node8</title>
<path fill="none" stroke="#191970" d="M497.4224,-267.3052C555.3748,-263.4417 674.2951,-255.5137 725.3461,-252.1103"/>
<polygon fill="#191970" stroke="#191970" points="497.086,-263.8197 487.341,-267.9773 497.5517,-270.8042 497.086,-263.8197"/>
</g>
<!-- Node7 -->
<g id="node7" class="node">
<title>Node7</title>
<g id="a_node7"><a xlink:href="../../d3/dd5/jewel-2_82_80_8f.html#a15e2df3184692bfe4ca2261638190094" target="_top" xlink:title="jewel">
<polygon fill="none" stroke="#000000" points="903.5,-297.5 903.5,-317.5 946.5,-317.5 946.5,-297.5 903.5,-297.5"/>
<text text-anchor="middle" x="925" y="-304.5" font-family="FreeSans" font-size="10.00" fill="#000000">jewel</text>
</a>
</g>
</g>
<!-- Node6&#45;&gt;Node7 -->
<g id="edge6" class="edge">
<title>Node6&#45;&gt;Node7</title>
<path fill="none" stroke="#191970" d="M691.269,-307.5C750.6794,-307.5 857.4478,-307.5 903.2094,-307.5"/>
<polygon fill="#191970" stroke="#191970" points="691.1034,-304.0001 681.1034,-307.5 691.1033,-311.0001 691.1034,-304.0001"/>
</g>
<!-- Node9&#45;&gt;Node5 -->
<g id="edge25" class="edge">
<title>Node9&#45;&gt;Node5</title>
<path fill="none" stroke="#191970" d="M409.0269,-245.681C419.9943,-250.3902 431.9466,-255.5223 441.9387,-259.8127"/>
<polygon fill="#191970" stroke="#191970" points="410.2861,-242.4128 399.7164,-241.6833 407.5242,-248.8449 410.2861,-242.4128"/>
</g>
<!-- Node10 -->
<g id="node10" class="node">
<title>Node10</title>
<g id="a_node10"><a xlink:href="../../d6/dcf/pythia6425mod_8f.html#ac81fa418f8cd77b0873b2de2a4140933" target="_top" xlink:title="pyevnt">
<polygon fill="none" stroke="#000000" points="623.5,-182.5 623.5,-202.5 675.5,-202.5 675.5,-182.5 623.5,-182.5"/>
<text text-anchor="middle" x="649.5" y="-189.5" font-family="FreeSans" font-size="10.00" fill="#000000">pyevnt</text>
</a>
</g>
</g>
<!-- Node9&#45;&gt;Node10 -->
<g id="edge9" class="edge">
<title>Node9&#45;&gt;Node10</title>
<path fill="none" stroke="#191970" d="M413.2529,-227.9272C454.6157,-223.74 523.2963,-216.1326 582,-206.5 595.6999,-204.252 610.8435,-201.1668 623.3095,-198.4646"/>
<polygon fill="#191970" stroke="#191970" points="412.6992,-224.465 403.0968,-228.942 413.3952,-231.4303 412.6992,-224.465"/>
</g>
<!-- Node9&#45;&gt;Node22 -->
<g id="edge26" class="edge">
<title>Node9&#45;&gt;Node22</title>
<path fill="none" stroke="#191970" d="M399.4002,-215.3695C400.6314,-214.4166 401.8386,-213.4565 403,-212.5 422.4164,-196.5099 443.1656,-175.7389 454.9152,-163.5879"/>
<polygon fill="#191970" stroke="#191970" points="397.1323,-212.6928 391.1536,-221.4395 401.2819,-218.3303 397.1323,-212.6928"/>
</g>
<!-- Node10&#45;&gt;Node8 -->
<g id="edge24" class="edge">
<title>Node10&#45;&gt;Node8</title>
<path fill="none" stroke="#191970" d="M675.6528,-207.6686C693.3947,-217.9589 716.3677,-231.2832 731.9454,-240.3183"/>
<polygon fill="#191970" stroke="#191970" points="677.325,-204.5924 666.9187,-202.6028 673.813,-210.6477 677.325,-204.5924"/>
</g>
<!-- Node11 -->
<g id="node11" class="node">
<title>Node11</title>
<g id="a_node11"><a xlink:href="../../d3/dd5/jewel-2_82_80_8f.html#aeb24fa7919aa21c652e9c8f2ec45cb91" target="_top" xlink:title="genevent">
<polygon fill="none" stroke="#000000" points="717,-182.5 717,-202.5 782,-202.5 782,-182.5 717,-182.5"/>
<text text-anchor="middle" x="749.5" y="-189.5" font-family="FreeSans" font-size="10.00" fill="#000000">genevent</text>
</a>
</g>
</g>
<!-- Node10&#45;&gt;Node11 -->
<g id="edge10" class="edge">
<title>Node10&#45;&gt;Node11</title>
<path fill="none" stroke="#191970" d="M685.7245,-192.5C695.8845,-192.5 706.8676,-192.5 716.8092,-192.5"/>
<polygon fill="#191970" stroke="#191970" points="685.5128,-189.0001 675.5128,-192.5 685.5127,-196.0001 685.5128,-189.0001"/>
</g>
<!-- Node11&#45;&gt;Node7 -->
<g id="edge20" class="edge">
<title>Node11&#45;&gt;Node7</title>
<path fill="none" stroke="#191970" d="M765.246,-210.3876C770.74,-216.8869 776.8225,-224.3844 782,-231.5 799.629,-255.728 793.1294,-271.7897 818,-288.5 843.6831,-305.7562 880.3726,-308.7005 903.4261,-308.5881"/>
<polygon fill="#191970" stroke="#191970" points="767.8883,-208.0923 758.714,-202.7931 762.5813,-212.6569 767.8883,-208.0923"/>
</g>
<!-- Node12 -->
<g id="node12" class="node">
<title>Node12</title>
<g id="a_node12"><a xlink:href="../../d6/d45/classEpFinderEval.html#af537855512c06847c1021dd83f015031" target="_top" xlink:title="EpFinderEval::fill_tree">
<polygon fill="none" stroke="#000000" points="862,-258.5 862,-278.5 988,-278.5 988,-258.5 862,-258.5"/>
<text text-anchor="middle" x="925" y="-265.5" font-family="FreeSans" font-size="10.00" fill="#000000">EpFinderEval::fill_tree</text>
</a>
</g>
</g>
<!-- Node11&#45;&gt;Node12 -->
<g id="edge11" class="edge">
<title>Node11&#45;&gt;Node12</title>
<path fill="none" stroke="#191970" d="M767.9697,-209.5706C781.0375,-220.7739 799.4681,-234.8939 818,-243.5 831.9281,-249.9681 847.677,-254.8404 862.7243,-258.4809"/>
<polygon fill="#191970" stroke="#191970" points="770.0217,-206.7133 760.2095,-202.7169 765.3879,-211.96 770.0217,-206.7133"/>
</g>
<!-- Node14 -->
<g id="node14" class="node">
<title>Node14</title>
<g id="a_node14"><a xlink:href="../../dd/d2a/classPHHepMCGenHelper.html#ab0c755f6e53c0bf57ccd314a0017d227" target="_top" xlink:title="send HepMC::GenEvent to DST tree. This function takes ownership of evt">
<polygon fill="none" stroke="#000000" points="847,-90.5 847,-122.5 1003,-122.5 1003,-90.5 847,-90.5"/>
<text text-anchor="start" x="855" y="-109.5" font-family="FreeSans" font-size="10.00" fill="#000000">PHHepMCGenHelper::insert</text>
<text text-anchor="middle" x="925" y="-97.5" font-family="FreeSans" font-size="10.00" fill="#000000">_event</text>
</a>
</g>
</g>
<!-- Node11&#45;&gt;Node14 -->
<g id="edge13" class="edge">
<title>Node11&#45;&gt;Node14</title>
<path fill="none" stroke="#191970" d="M767.0592,-175.1219C780.1346,-163.0452 798.9479,-147.4008 818,-137.5 829.4123,-131.5694 842.1157,-126.6281 854.6694,-122.5623"/>
<polygon fill="#191970" stroke="#191970" points="764.5533,-172.6748 759.7085,-182.0971 769.3716,-177.7526 764.5533,-172.6748"/>
</g>
<!-- Node19 -->
<g id="node19" class="node">
<title>Node19</title>
<g id="a_node19"><a xlink:href="../../d9/d3a/classPHPythia8.html#a5cc4124cc6be2fb2467714e3d3bc5a6a" target="_top" xlink:title="PHPythia8::process\l_event">
<polygon fill="none" stroke="#000000" points="1103,-191.5 1103,-223.5 1216,-223.5 1216,-191.5 1103,-191.5"/>
<text text-anchor="start" x="1111" y="-210.5" font-family="FreeSans" font-size="10.00" fill="#000000">PHPythia8::process</text>
<text text-anchor="middle" x="1159.5" y="-198.5" font-family="FreeSans" font-size="10.00" fill="#000000">_event</text>
</a>
</g>
</g>
<!-- Node11&#45;&gt;Node19 -->
<g id="edge22" class="edge">
<title>Node11&#45;&gt;Node19</title>
<path fill="none" stroke="#191970" d="M790.6798,-205.1459C799.6041,-207.3715 809.0512,-209.3439 818,-210.5 917.522,-223.3576 1034.718,-217.9028 1102.7175,-212.7294"/>
<polygon fill="#191970" stroke="#191970" points="791.443,-201.7274 780.8806,-202.5554 789.654,-208.495 791.443,-201.7274"/>
</g>
<!-- Node20 -->
<g id="node20" class="node">
<title>Node20</title>
<g id="a_node20"><a xlink:href="../../da/df0/classPHSartre.html#aafe9fd92317ab1f7eee67a9354696c4e" target="_top" xlink:title="PHSartre::process_event">
<polygon fill="none" stroke="#000000" points="1089.5,-141.5 1089.5,-161.5 1229.5,-161.5 1229.5,-141.5 1089.5,-141.5"/>
<text text-anchor="middle" x="1159.5" y="-148.5" font-family="FreeSans" font-size="10.00" fill="#000000">PHSartre::process_event</text>
</a>
</g>
</g>
<!-- Node11&#45;&gt;Node20 -->
<g id="edge21" class="edge">
<title>Node11&#45;&gt;Node20</title>
<path fill="none" stroke="#191970" d="M785.0831,-179.1747C795.5472,-175.7762 807.1105,-172.5172 818,-170.5 910.6886,-153.3297 1019.7438,-150.1482 1089.2243,-150.2089"/>
<polygon fill="#191970" stroke="#191970" points="783.7932,-175.9162 775.4451,-182.4398 786.0394,-182.546 783.7932,-175.9162"/>
</g>
<!-- Node21 -->
<g id="node21" class="node">
<title>Node21</title>
<g id="a_node21"><a xlink:href="../../de/d99/classFun4AllHepMCPileupInputManager.html#a81bf2b69c3c4d3aae0aadebafe1c2c2e" target="_top" xlink:title="Fun4AllHepMCPileupInputManager::run">
<polygon fill="none" stroke="#000000" points="818,-180.5 818,-200.5 1032,-200.5 1032,-180.5 818,-180.5"/>
<text text-anchor="middle" x="925" y="-187.5" font-family="FreeSans" font-size="10.00" fill="#000000">Fun4AllHepMCPileupInputManager::run</text>
</a>
</g>
</g>
<!-- Node11&#45;&gt;Node21 -->
<g id="edge23" class="edge">
<title>Node11&#45;&gt;Node21</title>
<path fill="none" stroke="#191970" d="M792.164,-192.0138C800.1453,-191.9228 808.8098,-191.8241 817.7592,-191.7221"/>
<polygon fill="#191970" stroke="#191970" points="792.0583,-188.5147 782.0989,-192.1285 792.1382,-195.5142 792.0583,-188.5147"/>
</g>
<!-- Node13 -->
<g id="node13" class="node">
<title>Node13</title>
<g id="a_node13"><a xlink:href="../../d6/d45/classEpFinderEval.html#a2539c184425a5dceabf6a3be79b31e9a" target="_top" xlink:title="EpFinderEval::process\l_event">
<polygon fill="none" stroke="#000000" points="1095.5,-252.5 1095.5,-284.5 1223.5,-284.5 1223.5,-252.5 1095.5,-252.5"/>
<text text-anchor="start" x="1103.5" y="-271.5" font-family="FreeSans" font-size="10.00" fill="#000000">EpFinderEval::process</text>
<text text-anchor="middle" x="1159.5" y="-259.5" font-family="FreeSans" font-size="10.00" fill="#000000">_event</text>
</a>
</g>
</g>
<!-- Node12&#45;&gt;Node13 -->
<g id="edge12" class="edge">
<title>Node12&#45;&gt;Node13</title>
<path fill="none" stroke="#191970" d="M998.491,-268.5C1029.5702,-268.5 1065.4383,-268.5 1095.4212,-268.5"/>
<polygon fill="#191970" stroke="#191970" points="998.1502,-265.0001 988.1502,-268.5 998.1501,-272.0001 998.1502,-265.0001"/>
</g>
<!-- Node15 -->
<g id="node15" class="node">
<title>Node15</title>
<g id="a_node15"><a xlink:href="../../d6/d6f/classFun4AllHepMCInputManager.html#ab6c80a8ee0701bfff5eee3ec3623015c" target="_top" xlink:title="Fun4AllHepMCInputManager::run">
<polygon fill="none" stroke="#000000" points="1068,-51.5 1068,-71.5 1251,-71.5 1251,-51.5 1068,-51.5"/>
<text text-anchor="middle" x="1159.5" y="-58.5" font-family="FreeSans" font-size="10.00" fill="#000000">Fun4AllHepMCInputManager::run</text>
</a>
</g>
</g>
<!-- Node14&#45;&gt;Node15 -->
<g id="edge14" class="edge">
<title>Node14&#45;&gt;Node15</title>
<path fill="none" stroke="#191970" d="M1013.248,-89.5654C1044.9151,-83.4886 1079.5936,-76.8338 1107.2316,-71.5302"/>
<polygon fill="#191970" stroke="#191970" points="1012.2463,-86.1937 1003.0851,-91.5157 1013.5656,-93.0683 1012.2463,-86.1937"/>
</g>
<!-- Node16 -->
<g id="node16" class="node">
<title>Node16</title>
<g id="a_node16"><a xlink:href="../../db/d1f/classFun4AllOscarInputManager.html#a1537e89c4e652f70747fbbef18ceadc4" target="_top" xlink:title="Fun4AllOscarInputManager\l::ConvertFromOscar">
<polygon fill="none" stroke="#000000" points="1082.5,-.5 1082.5,-32.5 1236.5,-32.5 1236.5,-.5 1082.5,-.5"/>
<text text-anchor="start" x="1090.5" y="-19.5" font-family="FreeSans" font-size="10.00" fill="#000000">Fun4AllOscarInputManager</text>
<text text-anchor="middle" x="1159.5" y="-7.5" font-family="FreeSans" font-size="10.00" fill="#000000">::ConvertFromOscar</text>
</a>
</g>
</g>
<!-- Node14&#45;&gt;Node16 -->
<g id="edge15" class="edge">
<title>Node14&#45;&gt;Node16</title>
<path fill="none" stroke="#191970" d="M965.633,-85.9241C993.8668,-72.1527 1032.6283,-54.2784 1068,-41.5 1076.8282,-38.3107 1086.2612,-35.3023 1095.5921,-32.5523"/>
<polygon fill="#191970" stroke="#191970" points="963.9113,-82.8704 956.4818,-90.4238 967,-89.1521 963.9113,-82.8704"/>
</g>
<!-- Node18 -->
<g id="node18" class="node">
<title>Node18</title>
<g id="a_node18"><a xlink:href="../../dd/da8/classPHPythia6.html#a7a70bdd1c198a83ed143d3e2c4516d0d" target="_top" xlink:title="PHPythia6::process\l_event">
<polygon fill="none" stroke="#000000" points="1103,-90.5 1103,-122.5 1216,-122.5 1216,-90.5 1103,-90.5"/>
<text text-anchor="start" x="1111" y="-109.5" font-family="FreeSans" font-size="10.00" fill="#000000">PHPythia6::process</text>
<text text-anchor="middle" x="1159.5" y="-97.5" font-family="FreeSans" font-size="10.00" fill="#000000">_event</text>
</a>
</g>
</g>
<!-- Node14&#45;&gt;Node18 -->
<g id="edge17" class="edge">
<title>Node14&#45;&gt;Node18</title>
<path fill="none" stroke="#191970" d="M1013.16,-106.5C1043.2125,-106.5 1075.9865,-106.5 1102.8859,-106.5"/>
<polygon fill="#191970" stroke="#191970" points="1013.0851,-103.0001 1003.0851,-106.5 1013.0851,-110.0001 1013.0851,-103.0001"/>
</g>
<!-- Node14&#45;&gt;Node19 -->
<g id="edge18" class="edge">
<title>Node14&#45;&gt;Node19</title>
<path fill="none" stroke="#191970" d="M968.9969,-126.6906C997.1845,-139.5021 1034.6118,-156.2835 1068,-170.5 1084.5537,-177.5484 1102.921,-185.0394 1118.8295,-191.4241"/>
<polygon fill="#191970" stroke="#191970" points="970.3623,-123.4667 959.811,-122.5075 967.4612,-129.8372 970.3623,-123.4667"/>
</g>
<!-- Node14&#45;&gt;Node20 -->
<g id="edge19" class="edge">
<title>Node14&#45;&gt;Node20</title>
<path fill="none" stroke="#191970" d="M1013.248,-123.4346C1044.9151,-129.5114 1079.5936,-136.1662 1107.2316,-141.4698"/>
<polygon fill="#191970" stroke="#191970" points="1013.5656,-119.9317 1003.0851,-121.4843 1012.2463,-126.8063 1013.5656,-119.9317"/>
</g>
<!-- Node17 -->
<g id="node17" class="node">
<title>Node17</title>
<g id="a_node17"><a xlink:href="../../db/d1f/classFun4AllOscarInputManager.html#a4be602bd8c9fe73f9dcc81c8871784a6" target="_top" xlink:title="Fun4AllOscarInputManager::run">
<polygon fill="none" stroke="#000000" points="1287,-6.5 1287,-26.5 1463,-26.5 1463,-6.5 1287,-6.5"/>
<text text-anchor="middle" x="1375" y="-13.5" font-family="FreeSans" font-size="10.00" fill="#000000">Fun4AllOscarInputManager::run</text>
</a>
</g>
</g>
<!-- Node16&#45;&gt;Node17 -->
<g id="edge16" class="edge">
<title>Node16&#45;&gt;Node17</title>
<path fill="none" stroke="#191970" d="M1246.7391,-16.5C1260.0061,-16.5 1273.7039,-16.5 1286.9873,-16.5"/>
<polygon fill="#191970" stroke="#191970" points="1246.6918,-13.0001 1236.6918,-16.5 1246.6917,-20.0001 1246.6918,-13.0001"/>
</g>
<!-- Node22&#45;&gt;Node10 -->
<g id="edge27" class="edge">
<title>Node22&#45;&gt;Node10</title>
<path fill="none" stroke="#191970" d="M500.3236,-161.052C536.4129,-168.66 591.2315,-180.2164 623.3986,-186.9975"/>
<polygon fill="#191970" stroke="#191970" points="500.7304,-157.5609 490.2235,-158.9228 499.2864,-164.4104 500.7304,-157.5609"/>
</g>
<!-- Node23 -->
<g id="node23" class="node">
<title>Node23</title>
<g id="a_node23"><a xlink:href="../../d6/dcf/pythia6425mod_8f.html#a83ae6561ab82fd7af8b1b3e511f477ac" target="_top" xlink:title="pyevnw">
<polygon fill="none" stroke="#000000" points="526,-66.5 526,-86.5 582,-86.5 582,-66.5 526,-66.5"/>
<text text-anchor="middle" x="554" y="-73.5" font-family="FreeSans" font-size="10.00" fill="#000000">pyevnw</text>
</a>
</g>
</g>
<!-- Node22&#45;&gt;Node23 -->
<g id="edge28" class="edge">
<title>Node22&#45;&gt;Node23</title>
<path fill="none" stroke="#191970" d="M481.6337,-135.9215C493.611,-123.9954 510.2242,-108.1573 526,-95.5 529.849,-92.4119 534.1867,-89.3047 538.278,-86.5234"/>
<polygon fill="#191970" stroke="#191970" points="479.0483,-133.5579 474.4878,-143.121 484.0165,-138.4892 479.0483,-133.5579"/>
</g>
<!-- Node24 -->
<g id="node24" class="node">
<title>Node24</title>
<g id="a_node24"><a xlink:href="../../d6/dcf/pythia6425mod_8f.html#ae7cb37215e5a38b3fb0529c9996646e6" target="_top" xlink:title="pyupev">
<polygon fill="none" stroke="#000000" points="527,-105.5 527,-125.5 581,-125.5 581,-105.5 527,-105.5"/>
<text text-anchor="middle" x="554" y="-112.5" font-family="FreeSans" font-size="10.00" fill="#000000">pyupev</text>
</a>
</g>
</g>
<!-- Node22&#45;&gt;Node24 -->
<g id="edge30" class="edge">
<title>Node22&#45;&gt;Node24</title>
<path fill="none" stroke="#191970" d="M497.9999,-139.2766C508.7276,-134.7218 520.3778,-129.7753 530.2598,-125.5796"/>
<polygon fill="#191970" stroke="#191970" points="496.3212,-136.1869 488.4844,-143.3167 499.0569,-142.6301 496.3212,-136.1869"/>
</g>
<!-- Node23&#45;&gt;Node10 -->
<g id="edge29" class="edge">
<title>Node23&#45;&gt;Node10</title>
<path fill="none" stroke="#191970" d="M579.1196,-92.8334C580.1182,-93.7039 581.0834,-94.5941 582,-95.5 609.8713,-123.0456 633.7277,-163.4836 644.0454,-182.2427"/>
<polygon fill="#191970" stroke="#191970" points="581.1137,-89.9513 571.059,-86.6116 576.8365,-95.4925 581.1137,-89.9513"/>
</g>
<!-- Node25&#45;&gt;Node5 -->
<g id="edge33" class="edge">
<title>Node25&#45;&gt;Node5</title>
<path fill="none" stroke="#191970" d="M398.2896,-208.7066C399.8997,-209.9698 401.4847,-211.243 403,-212.5 421.8235,-228.1148 442.427,-247.783 454.3676,-259.4598"/>
<polygon fill="#191970" stroke="#191970" points="400.3192,-205.8531 390.238,-202.5941 396.0865,-211.4284 400.3192,-205.8531"/>
</g>
<!-- Node25&#45;&gt;Node10 -->
<g id="edge32" class="edge">
<title>Node25&#45;&gt;Node10</title>
<path fill="none" stroke="#191970" d="M412.3992,-192.5C468.3898,-192.5 574.3045,-192.5 623.3551,-192.5"/>
<polygon fill="#191970" stroke="#191970" points="412.2244,-189.0001 402.2243,-192.5 412.2243,-196.0001 412.2244,-189.0001"/>
</g>
<!-- Node25&#45;&gt;Node22 -->
<g id="edge34" class="edge">
<title>Node25&#45;&gt;Node22</title>
<path fill="none" stroke="#191970" d="M408.2121,-178.3048C419.3444,-173.3991 431.5767,-168.0086 441.7863,-163.5094"/>
<polygon fill="#191970" stroke="#191970" points="406.5304,-175.2211 398.7909,-182.4565 409.3532,-181.6267 406.5304,-175.2211"/>
</g>
<!-- Node27 -->
<g id="node27" class="node">
<title>Node27</title>
<g id="a_node27"><a xlink:href="../../d6/dcf/pythia6425mod_8f.html#a15448b25c4eb515f33e35f86f376af68" target="_top" xlink:title="pyevol">
<polygon fill="none" stroke="#000000" points="439.5,-66.5 439.5,-86.5 489.5,-86.5 489.5,-66.5 439.5,-66.5"/>
<text text-anchor="middle" x="464.5" y="-73.5" font-family="FreeSans" font-size="10.00" fill="#000000">pyevol</text>
</a>
</g>
</g>
<!-- Node26&#45;&gt;Node27 -->
<g id="edge36" class="edge">
<title>Node26&#45;&gt;Node27</title>
<path fill="none" stroke="#191970" d="M322.2285,-109.9749C345.4108,-106.7197 376.1841,-101.7973 403,-95.5 415.0758,-92.6642 428.2418,-88.7155 439.2823,-85.1521"/>
<polygon fill="#191970" stroke="#191970" points="321.5866,-106.53 312.1528,-111.3522 322.5347,-113.4655 321.5866,-106.53"/>
</g>
<!-- Node28 -->
<g id="node28" class="node">
<title>Node28</title>
<g id="a_node28"><a xlink:href="../../d6/dcf/pythia6425mod_8f.html#ac00de061be805868aa61d626239f5fa9" target="_top" xlink:title="pyptis">
<polygon fill="none" stroke="#000000" points="352.5,-66.5 352.5,-86.5 399.5,-86.5 399.5,-66.5 352.5,-66.5"/>
<text text-anchor="middle" x="376" y="-73.5" font-family="FreeSans" font-size="10.00" fill="#000000">pyptis</text>
</a>
</g>
</g>
<!-- Node26&#45;&gt;Node28 -->
<g id="edge38" class="edge">
<title>Node26&#45;&gt;Node28</title>
<path fill="none" stroke="#191970" d="M319.9999,-100.2766C330.7276,-95.7218 342.3778,-90.7753 352.2598,-86.5796"/>
<polygon fill="#191970" stroke="#191970" points="318.3212,-97.1869 310.4844,-104.3167 321.0569,-103.6301 318.3212,-97.1869"/>
</g>
<!-- Node27&#45;&gt;Node23 -->
<g id="edge37" class="edge">
<title>Node27&#45;&gt;Node23</title>
<path fill="none" stroke="#191970" d="M499.9979,-76.5C508.5336,-76.5 517.5389,-76.5 525.697,-76.5"/>
<polygon fill="#191970" stroke="#191970" points="499.9077,-73.0001 489.9077,-76.5 499.9077,-80.0001 499.9077,-73.0001"/>
</g>
<!-- Node28&#45;&gt;Node27 -->
<g id="edge39" class="edge">
<title>Node28&#45;&gt;Node27</title>
<path fill="none" stroke="#191970" d="M409.9848,-76.5C419.7962,-76.5 430.3202,-76.5 439.4796,-76.5"/>
<polygon fill="#191970" stroke="#191970" points="409.7164,-73.0001 399.7164,-76.5 409.7163,-80.0001 409.7164,-73.0001"/>
</g>
</g>
</svg>
