<?xml version="1.0" encoding="UTF-8" standalone="no"?>
<!DOCTYPE svg PUBLIC "-//W3C//DTD SVG 1.1//EN"
 "http://www.w3.org/Graphics/SVG/1.1/DTD/svg11.dtd">
<!-- Generated by graphviz version 2.40.1 (20161225.0304)
 -->
<!-- Title: py4ent Pages: 1 -->
<svg width="1198pt" height="600pt"
 viewBox="0.00 0.00 1198.00 599.50" xmlns="http://www.w3.org/2000/svg" xmlns:xlink="http://www.w3.org/1999/xlink">
<g id="graph0" class="graph" transform="scale(1 1) rotate(0) translate(4 595.5)">
<title>py4ent</title>
<!-- Node1 -->
<g id="node1" class="node">
<title>Node1</title>
<polygon fill="#bfbfbf" stroke="#000000" points="0,-446.5 0,-466.5 52,-466.5 52,-446.5 0,-446.5"/>
<text text-anchor="middle" x="26" y="-453.5" font-family="FreeSans" font-size="10.00" fill="#000000">py4ent</text>
</g>
<!-- Node2 -->
<g id="node2" class="node">
<title>Node2</title>
<g id="a_node2"><a xlink:href="../../d6/dcf/pythia6425mod_8f.html#a1fe450158e5c936ef62425c893c69513" target="_top" xlink:title="pyeevt">
<polygon fill="none" stroke="#000000" points="356.5,-447.5 356.5,-467.5 407.5,-467.5 407.5,-447.5 356.5,-447.5"/>
<text text-anchor="middle" x="382" y="-454.5" font-family="FreeSans" font-size="10.00" fill="#000000">pyeevt</text>
</a>
</g>
</g>
<!-- Node1&#45;&gt;Node2 -->
<g id="edge1" class="edge">
<title>Node1&#45;&gt;Node2</title>
<path fill="none" stroke="#191970" d="M62.2212,-464.7006C117.9574,-476.0867 227.9554,-493.6651 320,-478.5 333.0075,-476.3569 346.957,-471.8442 358.324,-467.5494"/>
<polygon fill="#191970" stroke="#191970" points="62.6458,-461.2135 52.1403,-462.5867 61.2091,-468.0645 62.6458,-461.2135"/>
</g>
<!-- Node3 -->
<g id="node3" class="node">
<title>Node3</title>
<g id="a_node3"><a xlink:href="../../d6/dcf/pythia6425mod_8f.html#a4cc0e611278607d6b413b5cecdfe16c3" target="_top" xlink:title="pytest">
<polygon fill="none" stroke="#000000" points="452.5,-408.5 452.5,-428.5 500.5,-428.5 500.5,-408.5 452.5,-408.5"/>
<text text-anchor="middle" x="476.5" y="-415.5" font-family="FreeSans" font-size="10.00" fill="#000000">pytest</text>
</a>
</g>
</g>
<!-- Node1&#45;&gt;Node3 -->
<g id="edge47" class="edge">
<title>Node1&#45;&gt;Node3</title>
<path fill="none" stroke="#191970" d="M37.8007,-475.0676C62.9347,-512.075 125.6538,-591.5 201,-591.5 201,-591.5 201,-591.5 292,-591.5 387.9433,-591.5 454.5146,-465.4714 471.9592,-428.549"/>
<polygon fill="#191970" stroke="#191970" points="40.6692,-473.0599 32.2356,-466.6469 34.8293,-476.9194 40.6692,-473.0599"/>
</g>
<!-- Node4 -->
<g id="node4" class="node">
<title>Node4</title>
<g id="a_node4"><a xlink:href="../../d6/dcf/pythia6425mod_8f.html#a420d8af4193fc0229b857f9b5c44017f" target="_top" xlink:title="pyresd">
<polygon fill="none" stroke="#000000" points="88,-194.5 88,-214.5 138,-214.5 138,-194.5 88,-194.5"/>
<text text-anchor="middle" x="113" y="-201.5" font-family="FreeSans" font-size="10.00" fill="#000000">pyresd</text>
</a>
</g>
</g>
<!-- Node1&#45;&gt;Node4 -->
<g id="edge3" class="edge">
<title>Node1&#45;&gt;Node4</title>
<path fill="none" stroke="#191970" d="M32.7974,-436.8111C50.3086,-386.0889 96.5024,-252.2862 109.5333,-214.5415"/>
<polygon fill="#191970" stroke="#191970" points="29.4733,-435.7144 29.5183,-446.3092 36.0901,-437.9989 29.4733,-435.7144"/>
</g>
<!-- Node2&#45;&gt;Node3 -->
<g id="edge2" class="edge">
<title>Node2&#45;&gt;Node3</title>
<path fill="none" stroke="#191970" d="M415.677,-443.6015C427.7543,-438.6173 441.1244,-433.0995 452.2464,-428.5094"/>
<polygon fill="#191970" stroke="#191970" points="414.2446,-440.4063 406.3361,-447.4565 416.9151,-446.8769 414.2446,-440.4063"/>
</g>
<!-- Node5 -->
<g id="node5" class="node">
<title>Node5</title>
<g id="a_node5"><a xlink:href="../../d6/dcf/pythia6425mod_8f.html#ac81fa418f8cd77b0873b2de2a4140933" target="_top" xlink:title="pyevnt">
<polygon fill="none" stroke="#000000" points="356,-77.5 356,-97.5 408,-97.5 408,-77.5 356,-77.5"/>
<text text-anchor="middle" x="382" y="-84.5" font-family="FreeSans" font-size="10.00" fill="#000000">pyevnt</text>
</a>
</g>
</g>
<!-- Node4&#45;&gt;Node5 -->
<g id="edge4" class="edge">
<title>Node4&#45;&gt;Node5</title>
<path fill="none" stroke="#191970" d="M121.6014,-185.2193C140.5092,-145.7436 189.9837,-57.1105 264,-29.5 287.3192,-20.8011 296.8502,-20.3598 320,-29.5 344.4032,-39.135 364.8452,-63.412 375.0366,-77.3113"/>
<polygon fill="#191970" stroke="#191970" points="118.404,-183.7945 117.3625,-194.338 124.7517,-186.7453 118.404,-183.7945"/>
</g>
<!-- Node18 -->
<g id="node18" class="node">
<title>Node18</title>
<g id="a_node18"><a xlink:href="../../d6/dcf/pythia6425mod_8f.html#a83ae6561ab82fd7af8b1b3e511f477ac" target="_top" xlink:title="pyevnw">
<polygon fill="none" stroke="#000000" points="264,-39.5 264,-59.5 320,-59.5 320,-39.5 264,-39.5"/>
<text text-anchor="middle" x="292" y="-46.5" font-family="FreeSans" font-size="10.00" fill="#000000">pyevnw</text>
</a>
</g>
</g>
<!-- Node4&#45;&gt;Node18 -->
<g id="edge20" class="edge">
<title>Node4&#45;&gt;Node18</title>
<path fill="none" stroke="#191970" d="M146.6206,-190.3783C175.9699,-177.5518 215.7335,-158.8092 228,-146.5 253.2543,-121.1579 242.2687,-102.9209 264,-74.5 268.1958,-69.0125 273.7175,-63.7832 278.7478,-59.539"/>
<polygon fill="#191970" stroke="#191970" points="144.9124,-187.3036 137.1214,-194.4835 147.6894,-193.7292 144.9124,-187.3036"/>
</g>
<!-- Node19 -->
<g id="node19" class="node">
<title>Node19</title>
<g id="a_node19"><a xlink:href="../../d6/dcf/pythia6425mod_8f.html#ae7cb37215e5a38b3fb0529c9996646e6" target="_top" xlink:title="pyupev">
<polygon fill="none" stroke="#000000" points="174,-117.5 174,-137.5 228,-137.5 228,-117.5 174,-117.5"/>
<text text-anchor="middle" x="201" y="-124.5" font-family="FreeSans" font-size="10.00" fill="#000000">pyupev</text>
</a>
</g>
</g>
<!-- Node4&#45;&gt;Node19 -->
<g id="edge22" class="edge">
<title>Node4&#45;&gt;Node19</title>
<path fill="none" stroke="#191970" d="M132.3932,-187.531C149.8759,-172.2336 174.9979,-150.2519 189.4927,-137.5689"/>
<polygon fill="#191970" stroke="#191970" points="129.7255,-185.2145 124.5045,-194.4336 134.335,-190.4825 129.7255,-185.2145"/>
</g>
<!-- Node20 -->
<g id="node20" class="node">
<title>Node20</title>
<g id="a_node20"><a xlink:href="../../d6/dcf/pythia6425mod_8f.html#a018da81d5f23cd9c6d55f5151fb0f541" target="_top" xlink:title="pyexec">
<polygon fill="none" stroke="#000000" points="175,-272.5 175,-292.5 227,-292.5 227,-272.5 175,-272.5"/>
<text text-anchor="middle" x="201" y="-279.5" font-family="FreeSans" font-size="10.00" fill="#000000">pyexec</text>
</a>
</g>
</g>
<!-- Node4&#45;&gt;Node20 -->
<g id="edge23" class="edge">
<title>Node4&#45;&gt;Node20</title>
<path fill="none" stroke="#191970" d="M132.3932,-221.6894C149.8759,-237.1854 174.9979,-259.4526 189.4927,-272.3004"/>
<polygon fill="#191970" stroke="#191970" points="134.3095,-218.711 124.5045,-214.6971 129.6664,-223.9495 134.3095,-218.711"/>
</g>
<!-- Node5&#45;&gt;Node3 -->
<g id="edge19" class="edge">
<title>Node5&#45;&gt;Node3</title>
<path fill="none" stroke="#191970" d="M387.7552,-107.6584C405.7267,-170.6063 460.3898,-362.0718 473.6024,-408.3506"/>
<polygon fill="#191970" stroke="#191970" points="391.0427,-106.424 384.9318,-97.7691 384.3117,-108.3458 391.0427,-106.424"/>
</g>
<!-- Node6 -->
<g id="node6" class="node">
<title>Node6</title>
<g id="a_node6"><a xlink:href="../../d3/dd5/jewel-2_82_80_8f.html#aeb24fa7919aa21c652e9c8f2ec45cb91" target="_top" xlink:title="genevent">
<polygon fill="none" stroke="#000000" points="444,-97.5 444,-117.5 509,-117.5 509,-97.5 444,-97.5"/>
<text text-anchor="middle" x="476.5" y="-104.5" font-family="FreeSans" font-size="10.00" fill="#000000">genevent</text>
</a>
</g>
</g>
<!-- Node5&#45;&gt;Node6 -->
<g id="edge5" class="edge">
<title>Node5&#45;&gt;Node6</title>
<path fill="none" stroke="#191970" d="M418.0512,-95.1299C426.5024,-96.9185 435.4608,-98.8145 443.7582,-100.5705"/>
<polygon fill="#191970" stroke="#191970" points="418.5807,-91.6645 408.0727,-93.018 417.1313,-98.5128 418.5807,-91.6645"/>
</g>
<!-- Node7 -->
<g id="node7" class="node">
<title>Node7</title>
<g id="a_node7"><a xlink:href="../../d6/d45/classEpFinderEval.html#af537855512c06847c1021dd83f015031" target="_top" xlink:title="EpFinderEval::fill_tree">
<polygon fill="none" stroke="#000000" points="589,-257.5 589,-277.5 715,-277.5 715,-257.5 589,-257.5"/>
<text text-anchor="middle" x="652" y="-264.5" font-family="FreeSans" font-size="10.00" fill="#000000">EpFinderEval::fill_tree</text>
</a>
</g>
</g>
<!-- Node6&#45;&gt;Node7 -->
<g id="edge6" class="edge">
<title>Node6&#45;&gt;Node7</title>
<path fill="none" stroke="#191970" d="M487.5721,-126.2554C499.8755,-146.0457 521.1751,-177.3735 545,-199.5 571.7723,-224.3637 608.8147,-245.5743 631.5512,-257.415"/>
<polygon fill="#191970" stroke="#191970" points="490.4695,-124.2837 482.2833,-117.5579 484.4884,-127.9207 490.4695,-124.2837"/>
</g>
<!-- Node9 -->
<g id="node9" class="node">
<title>Node9</title>
<g id="a_node9"><a xlink:href="../../dd/d2a/classPHHepMCGenHelper.html#ab0c755f6e53c0bf57ccd314a0017d227" target="_top" xlink:title="send HepMC::GenEvent to DST tree. This function takes ownership of evt">
<polygon fill="none" stroke="#000000" points="574,-158.5 574,-190.5 730,-190.5 730,-158.5 574,-158.5"/>
<text text-anchor="start" x="582" y="-177.5" font-family="FreeSans" font-size="10.00" fill="#000000">PHHepMCGenHelper::insert</text>
<text text-anchor="middle" x="652" y="-165.5" font-family="FreeSans" font-size="10.00" fill="#000000">_event</text>
</a>
</g>
</g>
<!-- Node6&#45;&gt;Node9 -->
<g id="edge8" class="edge">
<title>Node6&#45;&gt;Node9</title>
<path fill="none" stroke="#191970" d="M504.8668,-122.2774C517.0461,-128.3298 531.5455,-135.1525 545,-140.5 561.4832,-147.0512 579.7682,-153.2411 596.4913,-158.4988"/>
<polygon fill="#191970" stroke="#191970" points="506.1655,-119.0124 495.661,-117.6316 503.0117,-125.2617 506.1655,-119.0124"/>
</g>
<!-- Node14 -->
<g id="node14" class="node">
<title>Node14</title>
<g id="a_node14"><a xlink:href="../../d9/d3a/classPHPythia8.html#a5cc4124cc6be2fb2467714e3d3bc5a6a" target="_top" xlink:title="PHPythia8::process\l_event">
<polygon fill="none" stroke="#000000" points="830,-108.5 830,-140.5 943,-140.5 943,-108.5 830,-108.5"/>
<text text-anchor="start" x="838" y="-127.5" font-family="FreeSans" font-size="10.00" fill="#000000">PHPythia8::process</text>
<text text-anchor="middle" x="886.5" y="-115.5" font-family="FreeSans" font-size="10.00" fill="#000000">_event</text>
</a>
</g>
</g>
<!-- Node6&#45;&gt;Node14 -->
<g id="edge17" class="edge">
<title>Node6&#45;&gt;Node14</title>
<path fill="none" stroke="#191970" d="M519.4086,-109.2791C593.8409,-112.3654 746.8672,-118.7103 829.902,-122.1533"/>
<polygon fill="#191970" stroke="#191970" points="519.1512,-105.7655 509.0147,-108.8482 518.8611,-112.7595 519.1512,-105.7655"/>
</g>
<!-- Node15 -->
<g id="node15" class="node">
<title>Node15</title>
<g id="a_node15"><a xlink:href="../../da/df0/classPHSartre.html#aafe9fd92317ab1f7eee67a9354696c4e" target="_top" xlink:title="PHSartre::process_event">
<polygon fill="none" stroke="#000000" points="816.5,-69.5 816.5,-89.5 956.5,-89.5 956.5,-69.5 816.5,-69.5"/>
<text text-anchor="middle" x="886.5" y="-76.5" font-family="FreeSans" font-size="10.00" fill="#000000">PHSartre::process_event</text>
</a>
</g>
</g>
<!-- Node6&#45;&gt;Node15 -->
<g id="edge16" class="edge">
<title>Node6&#45;&gt;Node15</title>
<path fill="none" stroke="#191970" d="M519.2904,-104.5777C589.752,-99.7657 730.8743,-90.1281 816.1815,-84.3022"/>
<polygon fill="#191970" stroke="#191970" points="518.753,-101.1062 509.0147,-105.2795 519.23,-108.0899 518.753,-101.1062"/>
</g>
<!-- Node16 -->
<g id="node16" class="node">
<title>Node16</title>
<g id="a_node16"><a xlink:href="../../d3/dd5/jewel-2_82_80_8f.html#a15e2df3184692bfe4ca2261638190094" target="_top" xlink:title="jewel">
<polygon fill="none" stroke="#000000" points="630.5,-39.5 630.5,-59.5 673.5,-59.5 673.5,-39.5 630.5,-39.5"/>
<text text-anchor="middle" x="652" y="-46.5" font-family="FreeSans" font-size="10.00" fill="#000000">jewel</text>
</a>
</g>
</g>
<!-- Node6&#45;&gt;Node16 -->
<g id="edge15" class="edge">
<title>Node6&#45;&gt;Node16</title>
<path fill="none" stroke="#191970" d="M503.5244,-92.7854C515.8972,-86.4945 530.9142,-79.4706 545,-74.5 573.7832,-64.3431 608.3843,-57.1167 630.2874,-53.1252"/>
<polygon fill="#191970" stroke="#191970" points="501.8946,-89.6879 494.6374,-97.407 505.1243,-95.8983 501.8946,-89.6879"/>
</g>
<!-- Node17 -->
<g id="node17" class="node">
<title>Node17</title>
<g id="a_node17"><a xlink:href="../../de/d99/classFun4AllHepMCPileupInputManager.html#a81bf2b69c3c4d3aae0aadebafe1c2c2e" target="_top" xlink:title="Fun4AllHepMCPileupInputManager::run">
<polygon fill="none" stroke="#000000" points="545,-.5 545,-20.5 759,-20.5 759,-.5 545,-.5"/>
<text text-anchor="middle" x="652" y="-7.5" font-family="FreeSans" font-size="10.00" fill="#000000">Fun4AllHepMCPileupInputManager::run</text>
</a>
</g>
</g>
<!-- Node6&#45;&gt;Node17 -->
<g id="edge18" class="edge">
<title>Node6&#45;&gt;Node17</title>
<path fill="none" stroke="#191970" d="M487.5536,-88.8223C499.3747,-70.6136 519.8606,-43.6593 545,-29.5 551.4112,-25.889 558.3522,-22.9373 565.513,-20.5278"/>
<polygon fill="#191970" stroke="#191970" points="484.5054,-87.0958 482.183,-97.433 490.4449,-90.8003 484.5054,-87.0958"/>
</g>
<!-- Node8 -->
<g id="node8" class="node">
<title>Node8</title>
<g id="a_node8"><a xlink:href="../../d6/d45/classEpFinderEval.html#a2539c184425a5dceabf6a3be79b31e9a" target="_top" xlink:title="EpFinderEval::process\l_event">
<polygon fill="none" stroke="#000000" points="822.5,-300.5 822.5,-332.5 950.5,-332.5 950.5,-300.5 822.5,-300.5"/>
<text text-anchor="start" x="830.5" y="-319.5" font-family="FreeSans" font-size="10.00" fill="#000000">EpFinderEval::process</text>
<text text-anchor="middle" x="886.5" y="-307.5" font-family="FreeSans" font-size="10.00" fill="#000000">_event</text>
</a>
</g>
</g>
<!-- Node7&#45;&gt;Node8 -->
<g id="edge7" class="edge">
<title>Node7&#45;&gt;Node8</title>
<path fill="none" stroke="#191970" d="M709.8174,-279.5812C743.8518,-286.6929 786.9689,-295.7024 822.0886,-303.0409"/>
<polygon fill="#191970" stroke="#191970" points="710.5249,-276.1536 700.0204,-277.5341 709.0931,-283.0056 710.5249,-276.1536"/>
</g>
<!-- Node10 -->
<g id="node10" class="node">
<title>Node10</title>
<g id="a_node10"><a xlink:href="../../d6/d6f/classFun4AllHepMCInputManager.html#ab6c80a8ee0701bfff5eee3ec3623015c" target="_top" xlink:title="Fun4AllHepMCInputManager::run">
<polygon fill="none" stroke="#000000" points="795,-261.5 795,-281.5 978,-281.5 978,-261.5 795,-261.5"/>
<text text-anchor="middle" x="886.5" y="-268.5" font-family="FreeSans" font-size="10.00" fill="#000000">Fun4AllHepMCInputManager::run</text>
</a>
</g>
</g>
<!-- Node9&#45;&gt;Node10 -->
<g id="edge9" class="edge">
<title>Node9&#45;&gt;Node10</title>
<path fill="none" stroke="#191970" d="M685.4774,-196.0052C713.6854,-213.2582 755.6302,-236.9248 795,-251.5 805.6743,-255.4518 817.3524,-258.7378 828.6872,-261.4267"/>
<polygon fill="#191970" stroke="#191970" points="687.1675,-192.9351 676.8223,-190.6485 683.4836,-198.8874 687.1675,-192.9351"/>
</g>
<!-- Node11 -->
<g id="node11" class="node">
<title>Node11</title>
<g id="a_node11"><a xlink:href="../../db/d1f/classFun4AllOscarInputManager.html#a1537e89c4e652f70747fbbef18ceadc4" target="_top" xlink:title="Fun4AllOscarInputManager\l::ConvertFromOscar">
<polygon fill="none" stroke="#000000" points="809.5,-210.5 809.5,-242.5 963.5,-242.5 963.5,-210.5 809.5,-210.5"/>
<text text-anchor="start" x="817.5" y="-229.5" font-family="FreeSans" font-size="10.00" fill="#000000">Fun4AllOscarInputManager</text>
<text text-anchor="middle" x="886.5" y="-217.5" font-family="FreeSans" font-size="10.00" fill="#000000">::ConvertFromOscar</text>
</a>
</g>
</g>
<!-- Node9&#45;&gt;Node11 -->
<g id="edge10" class="edge">
<title>Node9&#45;&gt;Node11</title>
<path fill="none" stroke="#191970" d="M734.1159,-192.7091C760.1598,-198.4843 788.7518,-204.8245 814.0638,-210.4374"/>
<polygon fill="#191970" stroke="#191970" points="734.7918,-189.274 724.2712,-190.526 733.2763,-196.108 734.7918,-189.274"/>
</g>
<!-- Node13 -->
<g id="node13" class="node">
<title>Node13</title>
<g id="a_node13"><a xlink:href="../../dd/da8/classPHPythia6.html#a7a70bdd1c198a83ed143d3e2c4516d0d" target="_top" xlink:title="PHPythia6::process\l_event">
<polygon fill="none" stroke="#000000" points="830,-159.5 830,-191.5 943,-191.5 943,-159.5 830,-159.5"/>
<text text-anchor="start" x="838" y="-178.5" font-family="FreeSans" font-size="10.00" fill="#000000">PHPythia6::process</text>
<text text-anchor="middle" x="886.5" y="-166.5" font-family="FreeSans" font-size="10.00" fill="#000000">_event</text>
</a>
</g>
</g>
<!-- Node9&#45;&gt;Node13 -->
<g id="edge12" class="edge">
<title>Node9&#45;&gt;Node13</title>
<path fill="none" stroke="#191970" d="M740.16,-174.8759C770.2125,-175.0041 802.9865,-175.1439 829.8859,-175.2586"/>
<polygon fill="#191970" stroke="#191970" points="740.1,-171.3758 730.0851,-174.833 740.0701,-178.3757 740.1,-171.3758"/>
</g>
<!-- Node9&#45;&gt;Node14 -->
<g id="edge13" class="edge">
<title>Node9&#45;&gt;Node14</title>
<path fill="none" stroke="#191970" d="M737.0754,-156.3603C767.9869,-149.7693 802.1323,-142.4888 829.9706,-136.5532"/>
<polygon fill="#191970" stroke="#191970" points="736.2151,-152.9649 727.1649,-158.4734 737.6749,-159.811 736.2151,-152.9649"/>
</g>
<!-- Node9&#45;&gt;Node15 -->
<g id="edge14" class="edge">
<title>Node9&#45;&gt;Node15</title>
<path fill="none" stroke="#191970" d="M685.4774,-153.1873C713.6855,-136.1067 755.6303,-112.7205 795,-98.5 804.766,-94.9725 815.3677,-92.0212 825.777,-89.5785"/>
<polygon fill="#191970" stroke="#191970" points="683.5196,-150.2821 676.8223,-158.4917 687.1774,-156.2504 683.5196,-150.2821"/>
</g>
<!-- Node12 -->
<g id="node12" class="node">
<title>Node12</title>
<g id="a_node12"><a xlink:href="../../db/d1f/classFun4AllOscarInputManager.html#a4be602bd8c9fe73f9dcc81c8871784a6" target="_top" xlink:title="Fun4AllOscarInputManager::run">
<polygon fill="none" stroke="#000000" points="1014,-216.5 1014,-236.5 1190,-236.5 1190,-216.5 1014,-216.5"/>
<text text-anchor="middle" x="1102" y="-223.5" font-family="FreeSans" font-size="10.00" fill="#000000">Fun4AllOscarInputManager::run</text>
</a>
</g>
</g>
<!-- Node11&#45;&gt;Node12 -->
<g id="edge11" class="edge">
<title>Node11&#45;&gt;Node12</title>
<path fill="none" stroke="#191970" d="M973.7391,-226.5C987.0061,-226.5 1000.7039,-226.5 1013.9873,-226.5"/>
<polygon fill="#191970" stroke="#191970" points="973.6918,-223.0001 963.6918,-226.5 973.6917,-230.0001 973.6918,-223.0001"/>
</g>
<!-- Node18&#45;&gt;Node5 -->
<g id="edge21" class="edge">
<title>Node18&#45;&gt;Node5</title>
<path fill="none" stroke="#191970" d="M325.3571,-63.5841C336.2354,-68.1772 348.0886,-73.1818 358.1272,-77.4204"/>
<polygon fill="#191970" stroke="#191970" points="326.6923,-60.3487 316.1183,-59.6833 323.9694,-66.7975 326.6923,-60.3487"/>
</g>
<!-- Node20&#45;&gt;Node1 -->
<g id="edge40" class="edge">
<title>Node20&#45;&gt;Node1</title>
<path fill="none" stroke="#191970" d="M183.4013,-299.9981C147.103,-336.0891 64.9203,-417.8021 36.1652,-446.3929"/>
<polygon fill="#191970" stroke="#191970" points="186.1832,-302.1677 190.8068,-292.635 181.2477,-297.2038 186.1832,-302.1677"/>
</g>
<!-- Node20&#45;&gt;Node2 -->
<g id="edge45" class="edge">
<title>Node20&#45;&gt;Node2</title>
<path fill="none" stroke="#191970" d="M205.1516,-302.4809C214.3433,-344.5631 237.6928,-439.975 264,-458.5 290.9683,-477.4906 330.6873,-472.199 356.4524,-465.6565"/>
<polygon fill="#191970" stroke="#191970" points="208.5463,-301.6181 203.0346,-292.5698 201.7008,-303.0803 208.5463,-301.6181"/>
</g>
<!-- Node20&#45;&gt;Node3 -->
<g id="edge25" class="edge">
<title>Node20&#45;&gt;Node3</title>
<path fill="none" stroke="#191970" d="M204.4065,-302.5547C212.6022,-348.1524 234.9156,-457.2987 264,-478.5 272.8763,-484.9704 385.3608,-486.0524 408,-477.5 434.1353,-467.6269 457.0432,-442.9595 468.5764,-428.8443"/>
<polygon fill="#191970" stroke="#191970" points="207.8455,-301.9021 202.6712,-292.6567 200.9507,-303.1109 207.8455,-301.9021"/>
</g>
<!-- Node20&#45;&gt;Node5 -->
<g id="edge26" class="edge">
<title>Node20&#45;&gt;Node5</title>
<path fill="none" stroke="#191970" d="M205.9084,-262.2016C216.1206,-221.6262 240.6515,-132.6638 264,-112.5 289.5165,-90.4639 329.6098,-86.257 355.8526,-86.1693"/>
<polygon fill="#191970" stroke="#191970" points="202.4757,-261.5037 203.4726,-272.0515 209.271,-263.1842 202.4757,-261.5037"/>
</g>
<!-- Node20&#45;&gt;Node6 -->
<g id="edge24" class="edge">
<title>Node20&#45;&gt;Node6</title>
<path fill="none" stroke="#191970" d="M204.2443,-262.373C210.2686,-231.9591 226.1927,-174.7435 264,-145.5 291.5694,-124.1754 391.2543,-113.7782 443.7082,-109.6866"/>
<polygon fill="#191970" stroke="#191970" points="200.7912,-261.8 202.4505,-272.2641 207.6788,-263.0491 200.7912,-261.8"/>
</g>
<!-- Node20&#45;&gt;Node18 -->
<g id="edge27" class="edge">
<title>Node20&#45;&gt;Node18</title>
<path fill="none" stroke="#191970" d="M206.357,-262.6301C219.6124,-213.8103 253.621,-90.7634 264,-74.5 267.5759,-68.8967 272.7473,-63.7897 277.6752,-59.6731"/>
<polygon fill="#191970" stroke="#191970" points="202.9592,-261.7877 203.7248,-272.3548 209.716,-263.6166 202.9592,-261.7877"/>
</g>
<!-- Node21 -->
<g id="node21" class="node">
<title>Node21</title>
<g id="a_node21"><a xlink:href="../../d6/dcf/pythia6425mod_8f.html#aa755c1ad09318a6b86ba9c501c7fcb3b" target="_top" xlink:title="py1ent">
<polygon fill="none" stroke="#000000" points="266,-272.5 266,-292.5 318,-292.5 318,-272.5 266,-272.5"/>
<text text-anchor="middle" x="292" y="-279.5" font-family="FreeSans" font-size="10.00" fill="#000000">py1ent</text>
</a>
</g>
</g>
<!-- Node20&#45;&gt;Node21 -->
<g id="edge28" class="edge">
<title>Node20&#45;&gt;Node21</title>
<path fill="none" stroke="#191970" d="M237.3257,-282.5C246.8233,-282.5 256.8773,-282.5 265.7382,-282.5"/>
<polygon fill="#191970" stroke="#191970" points="237.321,-279.0001 227.321,-282.5 237.3209,-286.0001 237.321,-279.0001"/>
</g>
<!-- Node22 -->
<g id="node22" class="node">
<title>Node22</title>
<g id="a_node22"><a xlink:href="../../d6/dcf/pythia6425mod_8f.html#a2b9b48d65354953ca74e6e3571daf5d4" target="_top" xlink:title="py2ent">
<polygon fill="none" stroke="#000000" points="266,-155.5 266,-175.5 318,-175.5 318,-155.5 266,-155.5"/>
<text text-anchor="middle" x="292" y="-162.5" font-family="FreeSans" font-size="10.00" fill="#000000">py2ent</text>
</a>
</g>
</g>
<!-- Node20&#45;&gt;Node22 -->
<g id="edge29" class="edge">
<title>Node20&#45;&gt;Node22</title>
<path fill="none" stroke="#191970" d="M210.3885,-263.2104C221.2613,-242.1955 240.6967,-208.39 264,-184.5 267.1996,-181.2199 271.0488,-178.1747 274.8547,-175.5258"/>
<polygon fill="#191970" stroke="#191970" points="207.1325,-261.8944 205.7594,-272.3999 213.3841,-265.0436 207.1325,-261.8944"/>
</g>
<!-- Node23 -->
<g id="node23" class="node">
<title>Node23</title>
<g id="a_node23"><a xlink:href="../../d6/dcf/pythia6425mod_8f.html#ace9552b2e1344c48ed7250f2caf5b672" target="_top" xlink:title="pyonia">
<polygon fill="none" stroke="#000000" points="357,-330.5 357,-350.5 407,-350.5 407,-330.5 357,-330.5"/>
<text text-anchor="middle" x="382" y="-337.5" font-family="FreeSans" font-size="10.00" fill="#000000">pyonia</text>
</a>
</g>
</g>
<!-- Node20&#45;&gt;Node23 -->
<g id="edge46" class="edge">
<title>Node20&#45;&gt;Node23</title>
<path fill="none" stroke="#191970" d="M237.2643,-294.1206C272.7127,-305.4798 325.7513,-322.4755 356.8164,-332.4301"/>
<polygon fill="#191970" stroke="#191970" points="237.9101,-290.6523 227.319,-290.9337 235.7739,-297.3184 237.9101,-290.6523"/>
</g>
<!-- Node24 -->
<g id="node24" class="node">
<title>Node24</title>
<g id="a_node24"><a xlink:href="../../d6/dcf/pythia6425mod_8f.html#a236783c5902cb61da4d1d5ce4491e2fe" target="_top" xlink:title="py3ent">
<polygon fill="none" stroke="#000000" points="266,-428.5 266,-448.5 318,-448.5 318,-428.5 266,-428.5"/>
<text text-anchor="middle" x="292" y="-435.5" font-family="FreeSans" font-size="10.00" fill="#000000">py3ent</text>
</a>
</g>
</g>
<!-- Node20&#45;&gt;Node24 -->
<g id="edge35" class="edge">
<title>Node20&#45;&gt;Node24</title>
<path fill="none" stroke="#191970" d="M206.7005,-302.5957C215.4587,-330.8291 234.3846,-382.7759 264,-418.5 267.0501,-422.1792 270.9282,-425.512 274.819,-428.3557"/>
<polygon fill="#191970" stroke="#191970" points="209.9611,-301.2819 203.749,-292.6993 203.253,-303.2826 209.9611,-301.2819"/>
</g>
<!-- Node25 -->
<g id="node25" class="node">
<title>Node25</title>
<g id="a_node25"><a xlink:href="../../d6/dcf/pythia6425mod_8f.html#a6b02d5cc105a9871f1c5ee4c46752de9" target="_top" xlink:title="py2frm">
<polygon fill="none" stroke="#000000" points="266,-233.5 266,-253.5 318,-253.5 318,-233.5 266,-233.5"/>
<text text-anchor="middle" x="292" y="-240.5" font-family="FreeSans" font-size="10.00" fill="#000000">py2frm</text>
</a>
</g>
</g>
<!-- Node20&#45;&gt;Node25 -->
<g id="edge41" class="edge">
<title>Node20&#45;&gt;Node25</title>
<path fill="none" stroke="#191970" d="M233.7755,-268.4533C245.3145,-263.5081 258.0407,-258.054 268.6447,-253.5094"/>
<polygon fill="#191970" stroke="#191970" points="232.2475,-265.3003 224.4348,-272.4565 235.005,-271.7343 232.2475,-265.3003"/>
</g>
<!-- Node26 -->
<g id="node26" class="node">
<title>Node26</title>
<g id="a_node26"><a xlink:href="../../d6/dcf/pythia6425mod_8f.html#a61f65c14f7304ed635d9340e3be049e1" target="_top" xlink:title="py4frm">
<polygon fill="none" stroke="#000000" points="266,-194.5 266,-214.5 318,-214.5 318,-194.5 266,-194.5"/>
<text text-anchor="middle" x="292" y="-201.5" font-family="FreeSans" font-size="10.00" fill="#000000">py4frm</text>
</a>
</g>
</g>
<!-- Node20&#45;&gt;Node26 -->
<g id="edge42" class="edge">
<title>Node20&#45;&gt;Node26</title>
<path fill="none" stroke="#191970" d="M218.1346,-265.0624C230.4437,-252.889 247.6779,-236.5489 264,-223.5 267.8544,-220.4186 272.1939,-217.3137 276.2853,-214.5325"/>
<polygon fill="#191970" stroke="#191970" points="215.4103,-262.8371 210.816,-272.384 220.361,-267.7859 215.4103,-262.8371"/>
</g>
<!-- Node27 -->
<g id="node27" class="node">
<title>Node27</title>
<g id="a_node27"><a xlink:href="../../d6/dcf/pythia6425mod_8f.html#a4ad3701c19e37e48400c694e52649e0f" target="_top" xlink:title="py6frm">
<polygon fill="none" stroke="#000000" points="266,-389.5 266,-409.5 318,-409.5 318,-389.5 266,-389.5"/>
<text text-anchor="middle" x="292" y="-396.5" font-family="FreeSans" font-size="10.00" fill="#000000">py6frm</text>
</a>
</g>
</g>
<!-- Node20&#45;&gt;Node27 -->
<g id="edge43" class="edge">
<title>Node20&#45;&gt;Node27</title>
<path fill="none" stroke="#191970" d="M210.7124,-301.8056C221.7486,-322.5312 241.2148,-355.6839 264,-379.5 267.4689,-383.1259 271.676,-386.5256 275.7634,-389.4572"/>
<polygon fill="#191970" stroke="#191970" points="213.7106,-299.9848 205.9942,-292.7248 207.499,-303.2123 213.7106,-299.9848"/>
</g>
<!-- Node28 -->
<g id="node28" class="node">
<title>Node28</title>
<g id="a_node28"><a xlink:href="../../d6/dcf/pythia6425mod_8f.html#a050131d873ec9273038b54fda8ccc6c1" target="_top" xlink:title="py4jet">
<polygon fill="none" stroke="#000000" points="267.5,-350.5 267.5,-370.5 316.5,-370.5 316.5,-350.5 267.5,-350.5"/>
<text text-anchor="middle" x="292" y="-357.5" font-family="FreeSans" font-size="10.00" fill="#000000">py4jet</text>
</a>
</g>
</g>
<!-- Node20&#45;&gt;Node28 -->
<g id="edge44" class="edge">
<title>Node20&#45;&gt;Node28</title>
<path fill="none" stroke="#191970" d="M220.5632,-299.2685C238.6598,-314.7798 264.9752,-337.3359 280.1004,-350.3004"/>
<polygon fill="#191970" stroke="#191970" points="222.767,-296.5477 212.8967,-292.6971 218.2115,-301.8625 222.767,-296.5477"/>
</g>
<!-- Node22&#45;&gt;Node2 -->
<g id="edge30" class="edge">
<title>Node22&#45;&gt;Node2</title>
<path fill="none" stroke="#191970" d="M318.6306,-182.6238C319.114,-183.2333 319.5718,-183.8588 320,-184.5 364.0955,-250.5376 337.8115,-282.2047 356,-359.5 363.5801,-391.7129 374.0489,-429.4651 379.0756,-447.2482"/>
<polygon fill="#191970" stroke="#191970" points="320.9051,-179.9568 311.2479,-175.5991 316.0798,-185.028 320.9051,-179.9568"/>
</g>
<!-- Node22&#45;&gt;Node3 -->
<g id="edge34" class="edge">
<title>Node22&#45;&gt;Node3</title>
<path fill="none" stroke="#191970" d="M317.1407,-181.8123C318.1336,-182.6885 319.0918,-183.5857 320,-184.5 394.0512,-259.0504 454.1048,-373.4284 471.4414,-408.1529"/>
<polygon fill="#191970" stroke="#191970" points="319.1467,-178.9387 309.1023,-175.5681 314.8525,-184.4668 319.1467,-178.9387"/>
</g>
<!-- Node22&#45;&gt;Node4 -->
<g id="edge33" class="edge">
<title>Node22&#45;&gt;Node4</title>
<path fill="none" stroke="#191970" d="M255.9454,-174.1132C246.8363,-176.2445 237.0669,-178.4917 228,-180.5 197.1352,-187.3366 161.4876,-194.6927 138.1637,-199.433"/>
<polygon fill="#191970" stroke="#191970" points="256.945,-177.4737 265.8767,-171.7751 255.3408,-170.66 256.945,-177.4737"/>
</g>
<!-- Node22&#45;&gt;Node23 -->
<g id="edge31" class="edge">
<title>Node22&#45;&gt;Node23</title>
<path fill="none" stroke="#191970" d="M317.8257,-182.0284C318.5914,-182.8283 319.3196,-183.6525 320,-184.5 357.5844,-231.3166 374.8278,-303.8012 380.1297,-330.3295"/>
<polygon fill="#191970" stroke="#191970" points="320.0824,-179.353 310.2072,-175.5149 315.5336,-184.6735 320.0824,-179.353"/>
</g>
<!-- Node23&#45;&gt;Node3 -->
<g id="edge32" class="edge">
<title>Node23&#45;&gt;Node3</title>
<path fill="none" stroke="#191970" d="M402.3157,-357.2685C421.1082,-372.7798 448.4357,-395.3359 464.1427,-408.3004"/>
<polygon fill="#191970" stroke="#191970" points="404.2945,-354.3635 394.3542,-350.6971 399.8385,-359.7621 404.2945,-354.3635"/>
</g>
<!-- Node24&#45;&gt;Node2 -->
<g id="edge36" class="edge">
<title>Node24&#45;&gt;Node2</title>
<path fill="none" stroke="#191970" d="M328.0152,-446.1032C337.4935,-448.1042 347.5263,-450.2222 356.3376,-452.0824"/>
<polygon fill="#191970" stroke="#191970" points="328.5391,-442.6367 318.0317,-443.9956 327.0931,-449.4858 328.5391,-442.6367"/>
</g>
<!-- Node24&#45;&gt;Node3 -->
<g id="edge39" class="edge">
<title>Node24&#45;&gt;Node3</title>
<path fill="none" stroke="#191970" d="M328.3191,-434.563C365.0337,-430.5831 420.7346,-424.545 452.3502,-421.1179"/>
<polygon fill="#191970" stroke="#191970" points="327.6076,-431.1195 318.043,-435.6769 328.362,-438.0787 327.6076,-431.1195"/>
</g>
<!-- Node24&#45;&gt;Node4 -->
<g id="edge38" class="edge">
<title>Node24&#45;&gt;Node4</title>
<path fill="none" stroke="#191970" d="M268.0164,-422.1171C266.6213,-420.9363 265.2707,-419.7264 264,-418.5 194.3122,-351.2396 136.0556,-247.7576 118.4511,-214.8918"/>
<polygon fill="#191970" stroke="#191970" points="266.1934,-425.1316 276.247,-428.4748 270.4726,-419.5918 266.1934,-425.1316"/>
</g>
<!-- Node24&#45;&gt;Node23 -->
<g id="edge37" class="edge">
<title>Node24&#45;&gt;Node23</title>
<path fill="none" stroke="#191970" d="M315.9608,-422.0933C317.3615,-420.9184 318.7196,-419.7163 320,-418.5 342.9517,-396.6978 364.7717,-366.2078 375.3497,-350.5918"/>
<polygon fill="#191970" stroke="#191970" points="313.5079,-419.5644 307.7156,-428.4357 317.7759,-425.1128 313.5079,-419.5644"/>
</g>
</g>
</svg>
