<?xml version="1.0" encoding="UTF-8" standalone="no"?>
<!DOCTYPE svg PUBLIC "-//W3C//DTD SVG 1.1//EN"
 "http://www.w3.org/Graphics/SVG/1.1/DTD/svg11.dtd">
<!-- Generated by graphviz version 2.40.1 (20161225.0304)
 -->
<!-- Title: pykfin Pages: 1 -->
<svg width="999pt" height="263pt"
 viewBox="0.00 0.00 999.00 263.00" xmlns="http://www.w3.org/2000/svg" xmlns:xlink="http://www.w3.org/1999/xlink">
<g id="graph0" class="graph" transform="scale(1 1) rotate(0) translate(4 259)">
<title>pykfin</title>
<!-- Node1 -->
<g id="node1" class="node">
<title>Node1</title>
<polygon fill="#bfbfbf" stroke="#000000" points="0,-59.5 0,-79.5 47,-79.5 47,-59.5 0,-59.5"/>
<text text-anchor="middle" x="23.5" y="-66.5" font-family="FreeSans" font-size="10.00" fill="#000000">pykfin</text>
</g>
<!-- Node2 -->
<g id="node2" class="node">
<title>Node2</title>
<g id="a_node2"><a xlink:href="../../d6/dcf/pythia6425mod_8f.html#a8a7efe2037220dc632000fb06895ebca" target="_top" xlink:title="pyerrm">
<polygon fill="none" stroke="#000000" points="83,-136.5 83,-156.5 135,-156.5 135,-136.5 83,-136.5"/>
<text text-anchor="middle" x="109" y="-143.5" font-family="FreeSans" font-size="10.00" fill="#000000">pyerrm</text>
</a>
</g>
</g>
<!-- Node1&#45;&gt;Node2 -->
<g id="edge1" class="edge">
<title>Node1&#45;&gt;Node2</title>
<path fill="none" stroke="#191970" d="M34.6776,-79.5664C48.7594,-92.2482 73.1674,-114.2297 90.1545,-129.528"/>
<polygon fill="#191970" stroke="#191970" points="88.0466,-132.3398 97.8196,-136.4311 92.731,-127.1383 88.0466,-132.3398"/>
</g>
<!-- Node19 -->
<g id="node19" class="node">
<title>Node19</title>
<g id="a_node19"><a xlink:href="../../d6/dcf/pythia6425mod_8f.html#ad69903a1054f4f77d45fd8fe4c687aa9" target="_top" xlink:title="pymass">
<polygon fill="none" stroke="#000000" points="344,-.5 344,-20.5 399,-20.5 399,-.5 344,-.5"/>
<text text-anchor="middle" x="371.5" y="-7.5" font-family="FreeSans" font-size="10.00" fill="#000000">pymass</text>
</a>
</g>
</g>
<!-- Node1&#45;&gt;Node19 -->
<g id="edge23" class="edge">
<title>Node1&#45;&gt;Node19</title>
<path fill="none" stroke="#191970" d="M47.1459,-65.4911C106.3442,-55.4546 261.3397,-29.1766 333.5098,-16.9409"/>
<polygon fill="#191970" stroke="#191970" points="334.2613,-20.3635 343.5356,-15.2411 333.0912,-13.462 334.2613,-20.3635"/>
</g>
<!-- Node3 -->
<g id="node3" class="node">
<title>Node3</title>
<g id="a_node3"><a xlink:href="../../d6/dcf/pythia6425mod_8f.html#acc54128638bbd93cf630e1576f91d443" target="_top" xlink:title="pylist">
<polygon fill="none" stroke="#000000" points="171,-136.5 171,-156.5 215,-156.5 215,-136.5 171,-136.5"/>
<text text-anchor="middle" x="193" y="-143.5" font-family="FreeSans" font-size="10.00" fill="#000000">pylist</text>
</a>
</g>
</g>
<!-- Node2&#45;&gt;Node3 -->
<g id="edge2" class="edge">
<title>Node2&#45;&gt;Node3</title>
<path fill="none" stroke="#191970" d="M135.1177,-146.5C143.1771,-146.5 152.1516,-146.5 160.5819,-146.5"/>
<polygon fill="#191970" stroke="#191970" points="160.8597,-150.0001 170.8596,-146.5 160.8596,-143.0001 160.8597,-150.0001"/>
</g>
<!-- Node7 -->
<g id="node7" class="node">
<title>Node7</title>
<g id="a_node7"><a xlink:href="../../d6/dcf/pythia6425mod_8f.html#a4140396b9ec9bafcebf4c7ebecb462e7" target="_top" xlink:title="pystop">
<polygon fill="none" stroke="#000000" points="346.5,-195.5 346.5,-215.5 396.5,-215.5 396.5,-195.5 346.5,-195.5"/>
<text text-anchor="middle" x="371.5" y="-202.5" font-family="FreeSans" font-size="10.00" fill="#000000">pystop</text>
</a>
</g>
</g>
<!-- Node2&#45;&gt;Node7 -->
<g id="edge22" class="edge">
<title>Node2&#45;&gt;Node7</title>
<path fill="none" stroke="#191970" d="M135.127,-155.3576C146.1477,-158.9819 159.1471,-163.1107 171,-166.5 206.2376,-176.5759 215.0857,-179.1942 251,-186.5 279.5637,-192.3105 312.2439,-197.365 336.3582,-200.797"/>
<polygon fill="#191970" stroke="#191970" points="336.071,-204.2909 346.4597,-202.2112 337.0416,-197.3585 336.071,-204.2909"/>
</g>
<!-- Node4 -->
<g id="node4" class="node">
<title>Node4</title>
<g id="a_node4"><a xlink:href="../../dc/d9f/hcalUtil_8C.html#af562b1ac3ac927ecde202ce0501a97a6" target="_top" xlink:title="ps">
<polygon fill="none" stroke="#000000" points="265,-234.5 265,-254.5 294,-254.5 294,-234.5 265,-234.5"/>
<text text-anchor="middle" x="279.5" y="-241.5" font-family="FreeSans" font-size="10.00" fill="#000000">ps</text>
</a>
</g>
</g>
<!-- Node3&#45;&gt;Node4 -->
<g id="edge3" class="edge">
<title>Node3&#45;&gt;Node4</title>
<path fill="none" stroke="#191970" d="M201.9312,-156.6186C216.4995,-173.1237 245.5666,-206.0552 263.6876,-226.5854"/>
<polygon fill="#191970" stroke="#191970" points="261.2462,-229.1085 270.4878,-234.2896 266.4943,-224.4762 261.2462,-229.1085"/>
</g>
<!-- Node6 -->
<g id="node6" class="node">
<title>Node6</title>
<g id="a_node6"><a xlink:href="../../d6/dcf/pythia6425mod_8f.html#a56718d08dbb42b3b978fc9b5bd6970e6" target="_top" xlink:title="pylogo">
<polygon fill="none" stroke="#000000" points="254.5,-156.5 254.5,-176.5 304.5,-176.5 304.5,-156.5 254.5,-156.5"/>
<text text-anchor="middle" x="279.5" y="-163.5" font-family="FreeSans" font-size="10.00" fill="#000000">pylogo</text>
</a>
</g>
</g>
<!-- Node3&#45;&gt;Node6 -->
<g id="edge5" class="edge">
<title>Node3&#45;&gt;Node6</title>
<path fill="none" stroke="#191970" d="M215.2759,-151.6505C224.1181,-153.6949 234.5034,-156.0962 244.3147,-158.3647"/>
<polygon fill="#191970" stroke="#191970" points="243.7112,-161.8174 254.2426,-160.6601 245.2881,-154.9973 243.7112,-161.8174"/>
</g>
<!-- Node14 -->
<g id="node14" class="node">
<title>Node14</title>
<g id="a_node14"><a xlink:href="../../d6/dcf/pythia6425mod_8f.html#ab0dbe916b7d36854c02faf180f41d585" target="_top" xlink:title="pyname">
<polygon fill="none" stroke="#000000" points="251,-117.5 251,-137.5 308,-137.5 308,-117.5 251,-117.5"/>
<text text-anchor="middle" x="279.5" y="-124.5" font-family="FreeSans" font-size="10.00" fill="#000000">pyname</text>
</a>
</g>
</g>
<!-- Node3&#45;&gt;Node14 -->
<g id="edge14" class="edge">
<title>Node3&#45;&gt;Node14</title>
<path fill="none" stroke="#191970" d="M215.2759,-141.607C223.0473,-139.9 232.0108,-137.9312 240.7289,-136.0162"/>
<polygon fill="#191970" stroke="#191970" points="241.7481,-139.3758 250.7643,-133.8119 240.2463,-132.5388 241.7481,-139.3758"/>
</g>
<!-- Node15 -->
<g id="node15" class="node">
<title>Node15</title>
<g id="a_node15"><a xlink:href="../../d6/dcf/pythia6425mod_8f.html#a6cee1eea51c820d9e90932c9eca205b7" target="_top" xlink:title="pyp">
<polygon fill="none" stroke="#000000" points="262,-78.5 262,-98.5 297,-98.5 297,-78.5 262,-78.5"/>
<text text-anchor="middle" x="279.5" y="-85.5" font-family="FreeSans" font-size="10.00" fill="#000000">pyp</text>
</a>
</g>
</g>
<!-- Node3&#45;&gt;Node15 -->
<g id="edge15" class="edge">
<title>Node3&#45;&gt;Node15</title>
<path fill="none" stroke="#191970" d="M208.0672,-136.3972C221.258,-127.5524 240.6437,-114.5539 255.8929,-104.329"/>
<polygon fill="#191970" stroke="#191970" points="257.9588,-107.1578 264.3153,-98.6817 254.0603,-101.3438 257.9588,-107.1578"/>
</g>
<!-- Node5 -->
<g id="node5" class="node">
<title>Node5</title>
<g id="a_node5"><a xlink:href="../../da/d55/TPCRateLayered_8m.html#a7507ef556477c204b499f1e189d40796" target="_top" xlink:title="sum">
<polygon fill="none" stroke="#000000" points="352.5,-234.5 352.5,-254.5 390.5,-254.5 390.5,-234.5 352.5,-234.5"/>
<text text-anchor="middle" x="371.5" y="-241.5" font-family="FreeSans" font-size="10.00" fill="#000000">sum</text>
</a>
</g>
</g>
<!-- Node4&#45;&gt;Node5 -->
<g id="edge4" class="edge">
<title>Node4&#45;&gt;Node5</title>
<path fill="none" stroke="#191970" d="M294.2814,-244.5C307.075,-244.5 325.9687,-244.5 341.8645,-244.5"/>
<polygon fill="#191970" stroke="#191970" points="342.2786,-248.0001 352.2786,-244.5 342.2785,-241.0001 342.2786,-248.0001"/>
</g>
<!-- Node6&#45;&gt;Node7 -->
<g id="edge6" class="edge">
<title>Node6&#45;&gt;Node7</title>
<path fill="none" stroke="#191970" d="M303.1923,-176.5435C313.9235,-181.0926 326.7919,-186.5476 338.4516,-191.4903"/>
<polygon fill="#191970" stroke="#191970" points="337.315,-194.81 347.888,-195.4906 340.0471,-188.3652 337.315,-194.81"/>
</g>
<!-- Node13 -->
<g id="node13" class="node">
<title>Node13</title>
<g id="a_node13"><a xlink:href="../../d6/dcf/pythia6425mod_8f.html#a523e4acf745637220400daf831c34a23" target="_top" xlink:title="pytime">
<polygon fill="none" stroke="#000000" points="346,-156.5 346,-176.5 397,-176.5 397,-156.5 346,-156.5"/>
<text text-anchor="middle" x="371.5" y="-163.5" font-family="FreeSans" font-size="10.00" fill="#000000">pytime</text>
</a>
</g>
</g>
<!-- Node6&#45;&gt;Node13 -->
<g id="edge13" class="edge">
<title>Node6&#45;&gt;Node13</title>
<path fill="none" stroke="#191970" d="M304.6394,-166.5C314.2158,-166.5 325.3225,-166.5 335.6999,-166.5"/>
<polygon fill="#191970" stroke="#191970" points="335.7506,-170.0001 345.7505,-166.5 335.7505,-163.0001 335.7506,-170.0001"/>
</g>
<!-- Node8 -->
<g id="node8" class="node">
<title>Node8</title>
<g id="a_node8"><a xlink:href="../../d0/d5e/classPHTimer.html#adce6f9a85834e59bd154b9c624ee4e41" target="_top" xlink:title="stops the counter">
<polygon fill="none" stroke="#000000" points="435,-195.5 435,-215.5 522,-215.5 522,-195.5 435,-195.5"/>
<text text-anchor="middle" x="478.5" y="-202.5" font-family="FreeSans" font-size="10.00" fill="#000000">PHTimer::stop</text>
</a>
</g>
</g>
<!-- Node7&#45;&gt;Node8 -->
<g id="edge7" class="edge">
<title>Node7&#45;&gt;Node8</title>
<path fill="none" stroke="#191970" d="M396.5867,-205.5C405.0221,-205.5 414.7851,-205.5 424.5674,-205.5"/>
<polygon fill="#191970" stroke="#191970" points="424.7137,-209.0001 434.7137,-205.5 424.7137,-202.0001 424.7137,-209.0001"/>
</g>
<!-- Node9 -->
<g id="node9" class="node">
<title>Node9</title>
<g id="a_node9"><a xlink:href="../../d0/d5e/classPHTimer.html#aa92e3fe4a0a1799f39743eda9ef9d497" target="_top" xlink:title="gets time from cpu clock counts">
<polygon fill="none" stroke="#000000" points="711.5,-208.5 711.5,-240.5 824.5,-240.5 824.5,-208.5 711.5,-208.5"/>
<text text-anchor="start" x="719.5" y="-227.5" font-family="FreeSans" font-size="10.00" fill="#000000">PHTimer::get_clock</text>
<text text-anchor="middle" x="768" y="-215.5" font-family="FreeSans" font-size="10.00" fill="#000000">_counts</text>
</a>
</g>
</g>
<!-- Node8&#45;&gt;Node9 -->
<g id="edge8" class="edge">
<title>Node8&#45;&gt;Node9</title>
<path fill="none" stroke="#191970" d="M522.1545,-208.3651C569.665,-211.4832 646.1979,-216.5061 701.258,-220.1197"/>
<polygon fill="#191970" stroke="#191970" points="701.0694,-223.6148 711.2772,-220.7773 701.5279,-216.6298 701.0694,-223.6148"/>
</g>
<!-- Node10 -->
<g id="node10" class="node">
<title>Node10</title>
<g id="a_node10"><a xlink:href="../../d0/d5e/classPHTimer.html#a976738876ad978116fdc4549a3765685" target="_top" xlink:title="retrieve elapsed value since last restart (in ms)">
<polygon fill="none" stroke="#000000" points="558,-175.5 558,-195.5 663,-195.5 663,-175.5 558,-175.5"/>
<text text-anchor="middle" x="610.5" y="-182.5" font-family="FreeSans" font-size="10.00" fill="#000000">PHTimer::elapsed</text>
</a>
</g>
</g>
<!-- Node8&#45;&gt;Node10 -->
<g id="edge9" class="edge">
<title>Node8&#45;&gt;Node10</title>
<path fill="none" stroke="#191970" d="M522.0876,-198.8958C530.2917,-197.6528 539.0201,-196.3303 547.6756,-195.0189"/>
<polygon fill="#191970" stroke="#191970" points="548.4042,-198.4485 557.767,-193.4899 547.3555,-191.5275 548.4042,-198.4485"/>
</g>
<!-- Node10&#45;&gt;Node9 -->
<g id="edge12" class="edge">
<title>Node10&#45;&gt;Node9</title>
<path fill="none" stroke="#191970" d="M651.0602,-195.5435C666.3746,-199.3356 684.2315,-203.7573 701.3129,-207.987"/>
<polygon fill="#191970" stroke="#191970" points="700.7073,-211.4427 711.2554,-210.449 702.3898,-204.6479 700.7073,-211.4427"/>
</g>
<!-- Node11 -->
<g id="node11" class="node">
<title>Node11</title>
<g id="a_node11"><a xlink:href="../../d0/d5e/classPHTimer.html#aa75ff2c27aba40e7ef0a934f9a3355c2" target="_top" xlink:title="returns difference between to time">
<polygon fill="none" stroke="#000000" points="699,-169.5 699,-189.5 837,-189.5 837,-169.5 699,-169.5"/>
<text text-anchor="middle" x="768" y="-176.5" font-family="FreeSans" font-size="10.00" fill="#000000">PHTimer::get_difference</text>
</a>
</g>
</g>
<!-- Node10&#45;&gt;Node11 -->
<g id="edge10" class="edge">
<title>Node10&#45;&gt;Node11</title>
<path fill="none" stroke="#191970" d="M663.3834,-183.4854C671.5408,-183.1746 680.1148,-182.848 688.6976,-182.521"/>
<polygon fill="#191970" stroke="#191970" points="688.8931,-186.0162 698.7526,-182.138 688.6266,-179.0213 688.8931,-186.0162"/>
</g>
<!-- Node12 -->
<g id="node12" class="node">
<title>Node12</title>
<g id="a_node12"><a xlink:href="../../d2/db1/classPHTimer_1_1Frequency.html#a023a2d706df9a8bd303810a9ed017f61" target="_top" xlink:title="period accessor">
<polygon fill="none" stroke="#000000" points="873,-163.5 873,-195.5 991,-195.5 991,-163.5 873,-163.5"/>
<text text-anchor="start" x="881" y="-182.5" font-family="FreeSans" font-size="10.00" fill="#000000">PHTimer::Frequency</text>
<text text-anchor="middle" x="932" y="-170.5" font-family="FreeSans" font-size="10.00" fill="#000000">::period</text>
</a>
</g>
</g>
<!-- Node11&#45;&gt;Node12 -->
<g id="edge11" class="edge">
<title>Node11&#45;&gt;Node12</title>
<path fill="none" stroke="#191970" d="M837.0754,-179.5C845.5394,-179.5 854.1918,-179.5 862.6596,-179.5"/>
<polygon fill="#191970" stroke="#191970" points="862.8719,-183.0001 872.8719,-179.5 862.8719,-176.0001 862.8719,-183.0001"/>
</g>
<!-- Node16 -->
<g id="node16" class="node">
<title>Node16</title>
<g id="a_node16"><a xlink:href="../../d6/dcf/pythia6425mod_8f.html#a27f75936fde97780175fa2c990bc61cd" target="_top" xlink:title="pychge">
<polygon fill="none" stroke="#000000" points="345,-117.5 345,-137.5 398,-137.5 398,-117.5 345,-117.5"/>
<text text-anchor="middle" x="371.5" y="-124.5" font-family="FreeSans" font-size="10.00" fill="#000000">pychge</text>
</a>
</g>
</g>
<!-- Node15&#45;&gt;Node16 -->
<g id="edge16" class="edge">
<title>Node15&#45;&gt;Node16</title>
<path fill="none" stroke="#191970" d="M297.2385,-96.0196C308.9478,-100.9833 324.6458,-107.6379 338.5924,-113.55"/>
<polygon fill="#191970" stroke="#191970" points="337.3244,-116.814 347.8973,-117.4945 340.0565,-110.3691 337.3244,-116.814"/>
</g>
<!-- Node17 -->
<g id="node17" class="node">
<title>Node17</title>
<g id="a_node17"><a xlink:href="../../d6/dcf/pythia6425mod_8f.html#aa8c99978a55999fa0b1fd2a946d8553a" target="_top" xlink:title="pyangl">
<polygon fill="none" stroke="#000000" points="346.5,-39.5 346.5,-59.5 396.5,-59.5 396.5,-39.5 346.5,-39.5"/>
<text text-anchor="middle" x="371.5" y="-46.5" font-family="FreeSans" font-size="10.00" fill="#000000">pyangl</text>
</a>
</g>
</g>
<!-- Node15&#45;&gt;Node17 -->
<g id="edge17" class="edge">
<title>Node15&#45;&gt;Node17</title>
<path fill="none" stroke="#191970" d="M297.2385,-80.9804C308.9478,-76.0167 324.6458,-69.3621 338.5924,-63.45"/>
<polygon fill="#191970" stroke="#191970" points="340.0565,-66.6309 347.8973,-59.5055 337.3244,-60.186 340.0565,-66.6309"/>
</g>
<!-- Node18 -->
<g id="node18" class="node">
<title>Node18</title>
<g id="a_node18"><a xlink:href="../../da/d0a/CylinderKalman_8cpp.html#ab74daa0c9784c63e060bfb98cc06fbf5" target="_top" xlink:title="sign">
<polygon fill="none" stroke="#000000" points="460,-58.5 460,-78.5 497,-78.5 497,-58.5 460,-58.5"/>
<text text-anchor="middle" x="478.5" y="-65.5" font-family="FreeSans" font-size="10.00" fill="#000000">sign</text>
</a>
</g>
</g>
<!-- Node15&#45;&gt;Node18 -->
<g id="edge21" class="edge">
<title>Node15&#45;&gt;Node18</title>
<path fill="none" stroke="#191970" d="M297.1599,-86.7251C331.5495,-83.2689 407.7884,-75.6067 449.6295,-71.4016"/>
<polygon fill="#191970" stroke="#191970" points="450.1241,-74.8696 459.724,-70.387 449.4241,-67.9047 450.1241,-74.8696"/>
</g>
<!-- Node15&#45;&gt;Node19 -->
<g id="edge19" class="edge">
<title>Node15&#45;&gt;Node19</title>
<path fill="none" stroke="#191970" d="M289.6151,-78.4413C301.9997,-66.3192 323.822,-45.5765 344,-29.5 345.1914,-28.5508 346.4276,-27.5965 347.6869,-26.6481"/>
<polygon fill="#191970" stroke="#191970" points="350.03,-29.274 356.1024,-20.592 345.9412,-23.5922 350.03,-29.274"/>
</g>
<!-- Node17&#45;&gt;Node18 -->
<g id="edge18" class="edge">
<title>Node17&#45;&gt;Node18</title>
<path fill="none" stroke="#191970" d="M396.5867,-53.9547C412.4972,-56.7799 433.1307,-60.4438 449.7083,-63.3875"/>
<polygon fill="#191970" stroke="#191970" points="449.4681,-66.8995 459.926,-65.2018 450.692,-60.0073 449.4681,-66.8995"/>
</g>
<!-- Node20 -->
<g id="node20" class="node">
<title>Node20</title>
<g id="a_node20"><a xlink:href="../../d6/dcf/pythia6425mod_8f.html#ac28b7ef95cee2881a46f71d3a88d05ac" target="_top" xlink:title="pyr">
<polygon fill="none" stroke="#000000" points="462,-.5 462,-20.5 495,-20.5 495,-.5 462,-.5"/>
<text text-anchor="middle" x="478.5" y="-7.5" font-family="FreeSans" font-size="10.00" fill="#000000">pyr</text>
</a>
</g>
</g>
<!-- Node19&#45;&gt;Node20 -->
<g id="edge20" class="edge">
<title>Node19&#45;&gt;Node20</title>
<path fill="none" stroke="#191970" d="M399.0552,-10.5C415.1545,-10.5 435.3897,-10.5 451.4086,-10.5"/>
<polygon fill="#191970" stroke="#191970" points="451.7225,-14.0001 461.7224,-10.5 451.7224,-7.0001 451.7225,-14.0001"/>
</g>
</g>
</svg>
