<?xml version="1.0" encoding="UTF-8" standalone="no"?>
<!DOCTYPE svg PUBLIC "-//W3C//DTD SVG 1.1//EN"
 "http://www.w3.org/Graphics/SVG/1.1/DTD/svg11.dtd">
<!-- Generated by graphviz version 2.40.1 (20161225.0304)
 -->
<!-- Title: pygaus Pages: 1 -->
<svg width="1015pt" height="341pt"
 viewBox="0.00 0.00 1015.00 341.00" xmlns="http://www.w3.org/2000/svg" xmlns:xlink="http://www.w3.org/1999/xlink">
<g id="graph0" class="graph" transform="scale(1 1) rotate(0) translate(4 337)">
<title>pygaus</title>
<!-- Node1 -->
<g id="node1" class="node">
<title>Node1</title>
<polygon fill="#bfbfbf" stroke="#000000" points="0,-39.5 0,-59.5 53,-59.5 53,-39.5 0,-39.5"/>
<text text-anchor="middle" x="26.5" y="-46.5" font-family="FreeSans" font-size="10.00" fill="#000000">pygaus</text>
</g>
<!-- Node2 -->
<g id="node2" class="node">
<title>Node2</title>
<g id="a_node2"><a xlink:href="../../d6/dcf/pythia6425mod_8f.html#a8a7efe2037220dc632000fb06895ebca" target="_top" xlink:title="pyerrm">
<polygon fill="none" stroke="#000000" points="94,-78.5 94,-98.5 146,-98.5 146,-78.5 94,-78.5"/>
<text text-anchor="middle" x="120" y="-85.5" font-family="FreeSans" font-size="10.00" fill="#000000">pyerrm</text>
</a>
</g>
</g>
<!-- Node1&#45;&gt;Node2 -->
<g id="edge1" class="edge">
<title>Node1&#45;&gt;Node2</title>
<path fill="none" stroke="#191970" d="M50.5786,-59.5435C61.5938,-64.1381 74.8247,-69.6568 86.7679,-74.6385"/>
<polygon fill="#191970" stroke="#191970" points="85.4263,-77.8711 96.003,-78.4906 88.1211,-71.4106 85.4263,-77.8711"/>
</g>
<!-- Node21 -->
<g id="node21" class="node">
<title>Node21</title>
<g id="a_node21"><a xlink:href="../../d1/d5e/classsHelix.html#a6475358b49bdd57d441b23ab9b11182f" target="_top" xlink:title="sHelix::u">
<polygon fill="none" stroke="#000000" points="90,-39.5 90,-59.5 150,-59.5 150,-39.5 90,-39.5"/>
<text text-anchor="middle" x="120" y="-46.5" font-family="FreeSans" font-size="10.00" fill="#000000">sHelix::u</text>
</a>
</g>
</g>
<!-- Node1&#45;&gt;Node21 -->
<g id="edge23" class="edge">
<title>Node1&#45;&gt;Node21</title>
<path fill="none" stroke="#191970" d="M53.0432,-49.5C61.2699,-49.5 70.5303,-49.5 79.4805,-49.5"/>
<polygon fill="#191970" stroke="#191970" points="79.7643,-53.0001 89.7643,-49.5 79.7643,-46.0001 79.7643,-53.0001"/>
</g>
<!-- Node22 -->
<g id="node22" class="node">
<title>Node22</title>
<g id="a_node22"><a xlink:href="../../d1/d5e/classsHelix.html#a44ff83bf3956f25a18308cc3c7fc1873" target="_top" xlink:title="sHelix::w">
<polygon fill="none" stroke="#000000" points="89,-.5 89,-20.5 151,-20.5 151,-.5 89,-.5"/>
<text text-anchor="middle" x="120" y="-7.5" font-family="FreeSans" font-size="10.00" fill="#000000">sHelix::w</text>
</a>
</g>
</g>
<!-- Node1&#45;&gt;Node22 -->
<g id="edge24" class="edge">
<title>Node1&#45;&gt;Node22</title>
<path fill="none" stroke="#191970" d="M50.5786,-39.4565C61.5938,-34.8619 74.8247,-29.3432 86.7679,-24.3615"/>
<polygon fill="#191970" stroke="#191970" points="88.1211,-27.5894 96.003,-20.5094 85.4263,-21.1289 88.1211,-27.5894"/>
</g>
<!-- Node3 -->
<g id="node3" class="node">
<title>Node3</title>
<g id="a_node3"><a xlink:href="../../d6/dcf/pythia6425mod_8f.html#acc54128638bbd93cf630e1576f91d443" target="_top" xlink:title="pylist">
<polygon fill="none" stroke="#000000" points="187,-117.5 187,-137.5 231,-137.5 231,-117.5 187,-117.5"/>
<text text-anchor="middle" x="209" y="-124.5" font-family="FreeSans" font-size="10.00" fill="#000000">pylist</text>
</a>
</g>
</g>
<!-- Node2&#45;&gt;Node3 -->
<g id="edge2" class="edge">
<title>Node2&#45;&gt;Node3</title>
<path fill="none" stroke="#191970" d="M142.9197,-98.5435C153.4619,-103.1631 166.1363,-108.717 177.553,-113.7199"/>
<polygon fill="#191970" stroke="#191970" points="176.2089,-116.9521 186.7729,-117.76 179.0185,-110.5407 176.2089,-116.9521"/>
</g>
<!-- Node7 -->
<g id="node7" class="node">
<title>Node7</title>
<g id="a_node7"><a xlink:href="../../d6/dcf/pythia6425mod_8f.html#a4140396b9ec9bafcebf4c7ebecb462e7" target="_top" xlink:title="pystop">
<polygon fill="none" stroke="#000000" points="362.5,-59.5 362.5,-79.5 412.5,-79.5 412.5,-59.5 362.5,-59.5"/>
<text text-anchor="middle" x="387.5" y="-66.5" font-family="FreeSans" font-size="10.00" fill="#000000">pystop</text>
</a>
</g>
</g>
<!-- Node2&#45;&gt;Node7 -->
<g id="edge22" class="edge">
<title>Node2&#45;&gt;Node7</title>
<path fill="none" stroke="#191970" d="M146.1794,-83.8485C175.4934,-78.895 224.4713,-71.3798 267,-68.5 292.2755,-66.7885 298.6675,-68.3005 324,-68.5 333.2122,-68.5725 343.1754,-68.7042 352.4181,-68.8488"/>
<polygon fill="#191970" stroke="#191970" points="352.4122,-72.3491 362.4687,-69.0149 352.528,-65.35 352.4122,-72.3491"/>
</g>
<!-- Node4 -->
<g id="node4" class="node">
<title>Node4</title>
<g id="a_node4"><a xlink:href="../../dc/d9f/hcalUtil_8C.html#af562b1ac3ac927ecde202ce0501a97a6" target="_top" xlink:title="ps">
<polygon fill="none" stroke="#000000" points="281,-156.5 281,-176.5 310,-176.5 310,-156.5 281,-156.5"/>
<text text-anchor="middle" x="295.5" y="-163.5" font-family="FreeSans" font-size="10.00" fill="#000000">ps</text>
</a>
</g>
</g>
<!-- Node3&#45;&gt;Node4 -->
<g id="edge3" class="edge">
<title>Node3&#45;&gt;Node4</title>
<path fill="none" stroke="#191970" d="M231.2759,-137.5435C243.5994,-143.0997 258.9205,-150.0075 271.5073,-155.6825"/>
<polygon fill="#191970" stroke="#191970" points="270.3511,-159.0004 280.9059,-159.92 273.2283,-152.6191 270.3511,-159.0004"/>
</g>
<!-- Node6 -->
<g id="node6" class="node">
<title>Node6</title>
<g id="a_node6"><a xlink:href="../../d6/dcf/pythia6425mod_8f.html#a56718d08dbb42b3b978fc9b5bd6970e6" target="_top" xlink:title="pylogo">
<polygon fill="none" stroke="#000000" points="270.5,-117.5 270.5,-137.5 320.5,-137.5 320.5,-117.5 270.5,-117.5"/>
<text text-anchor="middle" x="295.5" y="-124.5" font-family="FreeSans" font-size="10.00" fill="#000000">pylogo</text>
</a>
</g>
</g>
<!-- Node3&#45;&gt;Node6 -->
<g id="edge5" class="edge">
<title>Node3&#45;&gt;Node6</title>
<path fill="none" stroke="#191970" d="M231.2759,-127.5C240.025,-127.5 250.285,-127.5 260.0047,-127.5"/>
<polygon fill="#191970" stroke="#191970" points="260.2427,-131.0001 270.2426,-127.5 260.2426,-124.0001 260.2427,-131.0001"/>
</g>
<!-- Node14 -->
<g id="node14" class="node">
<title>Node14</title>
<g id="a_node14"><a xlink:href="../../d6/dcf/pythia6425mod_8f.html#ab0dbe916b7d36854c02faf180f41d585" target="_top" xlink:title="pyname">
<polygon fill="none" stroke="#000000" points="267,-78.5 267,-98.5 324,-98.5 324,-78.5 267,-78.5"/>
<text text-anchor="middle" x="295.5" y="-85.5" font-family="FreeSans" font-size="10.00" fill="#000000">pyname</text>
</a>
</g>
</g>
<!-- Node3&#45;&gt;Node14 -->
<g id="edge14" class="edge">
<title>Node3&#45;&gt;Node14</title>
<path fill="none" stroke="#191970" d="M231.2759,-117.4565C241.2647,-112.9529 253.2229,-107.5614 264.0981,-102.6581"/>
<polygon fill="#191970" stroke="#191970" points="265.6219,-105.8104 273.2996,-98.5094 262.7447,-99.429 265.6219,-105.8104"/>
</g>
<!-- Node15 -->
<g id="node15" class="node">
<title>Node15</title>
<g id="a_node15"><a xlink:href="../../d6/dcf/pythia6425mod_8f.html#a6cee1eea51c820d9e90932c9eca205b7" target="_top" xlink:title="pyp">
<polygon fill="none" stroke="#000000" points="278,-234.5 278,-254.5 313,-254.5 313,-234.5 278,-234.5"/>
<text text-anchor="middle" x="295.5" y="-241.5" font-family="FreeSans" font-size="10.00" fill="#000000">pyp</text>
</a>
</g>
</g>
<!-- Node3&#45;&gt;Node15 -->
<g id="edge15" class="edge">
<title>Node3&#45;&gt;Node15</title>
<path fill="none" stroke="#191970" d="M216.6763,-137.883C231.3326,-157.7071 263.4761,-201.1844 281.8683,-226.0618"/>
<polygon fill="#191970" stroke="#191970" points="279.2051,-228.347 287.9644,-234.3074 284.8339,-224.1856 279.2051,-228.347"/>
</g>
<!-- Node5 -->
<g id="node5" class="node">
<title>Node5</title>
<g id="a_node5"><a xlink:href="../../da/d55/TPCRateLayered_8m.html#a7507ef556477c204b499f1e189d40796" target="_top" xlink:title="sum">
<polygon fill="none" stroke="#000000" points="368.5,-156.5 368.5,-176.5 406.5,-176.5 406.5,-156.5 368.5,-156.5"/>
<text text-anchor="middle" x="387.5" y="-163.5" font-family="FreeSans" font-size="10.00" fill="#000000">sum</text>
</a>
</g>
</g>
<!-- Node4&#45;&gt;Node5 -->
<g id="edge4" class="edge">
<title>Node4&#45;&gt;Node5</title>
<path fill="none" stroke="#191970" d="M310.2814,-166.5C323.075,-166.5 341.9687,-166.5 357.8645,-166.5"/>
<polygon fill="#191970" stroke="#191970" points="358.2786,-170.0001 368.2786,-166.5 358.2785,-163.0001 358.2786,-170.0001"/>
</g>
<!-- Node6&#45;&gt;Node7 -->
<g id="edge6" class="edge">
<title>Node6&#45;&gt;Node7</title>
<path fill="none" stroke="#191970" d="M311.5252,-117.3972C325.6859,-108.4698 346.5591,-95.3106 362.8455,-85.0431"/>
<polygon fill="#191970" stroke="#191970" points="364.7571,-87.9755 371.3498,-79.6817 361.0239,-82.054 364.7571,-87.9755"/>
</g>
<!-- Node13 -->
<g id="node13" class="node">
<title>Node13</title>
<g id="a_node13"><a xlink:href="../../d6/dcf/pythia6425mod_8f.html#a523e4acf745637220400daf831c34a23" target="_top" xlink:title="pytime">
<polygon fill="none" stroke="#000000" points="362,-117.5 362,-137.5 413,-137.5 413,-117.5 362,-117.5"/>
<text text-anchor="middle" x="387.5" y="-124.5" font-family="FreeSans" font-size="10.00" fill="#000000">pytime</text>
</a>
</g>
</g>
<!-- Node6&#45;&gt;Node13 -->
<g id="edge13" class="edge">
<title>Node6&#45;&gt;Node13</title>
<path fill="none" stroke="#191970" d="M320.6394,-127.5C330.2158,-127.5 341.3225,-127.5 351.6999,-127.5"/>
<polygon fill="#191970" stroke="#191970" points="351.7506,-131.0001 361.7505,-127.5 351.7505,-124.0001 351.7506,-131.0001"/>
</g>
<!-- Node8 -->
<g id="node8" class="node">
<title>Node8</title>
<g id="a_node8"><a xlink:href="../../d0/d5e/classPHTimer.html#adce6f9a85834e59bd154b9c624ee4e41" target="_top" xlink:title="stops the counter">
<polygon fill="none" stroke="#000000" points="451,-59.5 451,-79.5 538,-79.5 538,-59.5 451,-59.5"/>
<text text-anchor="middle" x="494.5" y="-66.5" font-family="FreeSans" font-size="10.00" fill="#000000">PHTimer::stop</text>
</a>
</g>
</g>
<!-- Node7&#45;&gt;Node8 -->
<g id="edge7" class="edge">
<title>Node7&#45;&gt;Node8</title>
<path fill="none" stroke="#191970" d="M412.5867,-69.5C421.0221,-69.5 430.7851,-69.5 440.5674,-69.5"/>
<polygon fill="#191970" stroke="#191970" points="440.7137,-73.0001 450.7137,-69.5 440.7137,-66.0001 440.7137,-73.0001"/>
</g>
<!-- Node9 -->
<g id="node9" class="node">
<title>Node9</title>
<g id="a_node9"><a xlink:href="../../d0/d5e/classPHTimer.html#aa92e3fe4a0a1799f39743eda9ef9d497" target="_top" xlink:title="gets time from cpu clock counts">
<polygon fill="none" stroke="#000000" points="727.5,-73.5 727.5,-105.5 840.5,-105.5 840.5,-73.5 727.5,-73.5"/>
<text text-anchor="start" x="735.5" y="-92.5" font-family="FreeSans" font-size="10.00" fill="#000000">PHTimer::get_clock</text>
<text text-anchor="middle" x="784" y="-80.5" font-family="FreeSans" font-size="10.00" fill="#000000">_counts</text>
</a>
</g>
</g>
<!-- Node8&#45;&gt;Node9 -->
<g id="edge8" class="edge">
<title>Node8&#45;&gt;Node9</title>
<path fill="none" stroke="#191970" d="M538.1545,-72.5159C585.665,-75.7981 662.1979,-81.0853 717.258,-84.8892"/>
<polygon fill="#191970" stroke="#191970" points="717.0597,-88.3837 727.2772,-85.5813 717.5422,-81.4004 717.0597,-88.3837"/>
</g>
<!-- Node10 -->
<g id="node10" class="node">
<title>Node10</title>
<g id="a_node10"><a xlink:href="../../d0/d5e/classPHTimer.html#a976738876ad978116fdc4549a3765685" target="_top" xlink:title="retrieve elapsed value since last restart (in ms)">
<polygon fill="none" stroke="#000000" points="574,-40.5 574,-60.5 679,-60.5 679,-40.5 574,-40.5"/>
<text text-anchor="middle" x="626.5" y="-47.5" font-family="FreeSans" font-size="10.00" fill="#000000">PHTimer::elapsed</text>
</a>
</g>
</g>
<!-- Node8&#45;&gt;Node10 -->
<g id="edge9" class="edge">
<title>Node8&#45;&gt;Node10</title>
<path fill="none" stroke="#191970" d="M538.0876,-63.226C546.2917,-62.0451 555.0201,-60.7888 563.6756,-59.5429"/>
<polygon fill="#191970" stroke="#191970" points="564.3676,-62.9795 573.767,-58.0904 563.3703,-56.0509 564.3676,-62.9795"/>
</g>
<!-- Node10&#45;&gt;Node9 -->
<g id="edge12" class="edge">
<title>Node10&#45;&gt;Node9</title>
<path fill="none" stroke="#191970" d="M667.0602,-60.5435C682.3746,-64.3356 700.2315,-68.7573 717.3129,-72.987"/>
<polygon fill="#191970" stroke="#191970" points="716.7073,-76.4427 727.2554,-75.449 718.3898,-69.6479 716.7073,-76.4427"/>
</g>
<!-- Node11 -->
<g id="node11" class="node">
<title>Node11</title>
<g id="a_node11"><a xlink:href="../../d0/d5e/classPHTimer.html#aa75ff2c27aba40e7ef0a934f9a3355c2" target="_top" xlink:title="returns difference between to time">
<polygon fill="none" stroke="#000000" points="715,-34.5 715,-54.5 853,-54.5 853,-34.5 715,-34.5"/>
<text text-anchor="middle" x="784" y="-41.5" font-family="FreeSans" font-size="10.00" fill="#000000">PHTimer::get_difference</text>
</a>
</g>
</g>
<!-- Node10&#45;&gt;Node11 -->
<g id="edge10" class="edge">
<title>Node10&#45;&gt;Node11</title>
<path fill="none" stroke="#191970" d="M679.3834,-48.4854C687.5408,-48.1746 696.1148,-47.848 704.6976,-47.521"/>
<polygon fill="#191970" stroke="#191970" points="704.8931,-51.0162 714.7526,-47.138 704.6266,-44.0213 704.8931,-51.0162"/>
</g>
<!-- Node12 -->
<g id="node12" class="node">
<title>Node12</title>
<g id="a_node12"><a xlink:href="../../d2/db1/classPHTimer_1_1Frequency.html#a023a2d706df9a8bd303810a9ed017f61" target="_top" xlink:title="period accessor">
<polygon fill="none" stroke="#000000" points="889,-28.5 889,-60.5 1007,-60.5 1007,-28.5 889,-28.5"/>
<text text-anchor="start" x="897" y="-47.5" font-family="FreeSans" font-size="10.00" fill="#000000">PHTimer::Frequency</text>
<text text-anchor="middle" x="948" y="-35.5" font-family="FreeSans" font-size="10.00" fill="#000000">::period</text>
</a>
</g>
</g>
<!-- Node11&#45;&gt;Node12 -->
<g id="edge11" class="edge">
<title>Node11&#45;&gt;Node12</title>
<path fill="none" stroke="#191970" d="M853.0754,-44.5C861.5394,-44.5 870.1918,-44.5 878.6596,-44.5"/>
<polygon fill="#191970" stroke="#191970" points="878.8719,-48.0001 888.8719,-44.5 878.8719,-41.0001 878.8719,-48.0001"/>
</g>
<!-- Node16 -->
<g id="node16" class="node">
<title>Node16</title>
<g id="a_node16"><a xlink:href="../../d6/dcf/pythia6425mod_8f.html#a27f75936fde97780175fa2c990bc61cd" target="_top" xlink:title="pychge">
<polygon fill="none" stroke="#000000" points="361,-195.5 361,-215.5 414,-215.5 414,-195.5 361,-195.5"/>
<text text-anchor="middle" x="387.5" y="-202.5" font-family="FreeSans" font-size="10.00" fill="#000000">pychge</text>
</a>
</g>
</g>
<!-- Node15&#45;&gt;Node16 -->
<g id="edge16" class="edge">
<title>Node15&#45;&gt;Node16</title>
<path fill="none" stroke="#191970" d="M313.2385,-236.9804C324.9478,-232.0167 340.6458,-225.3621 354.5924,-219.45"/>
<polygon fill="#191970" stroke="#191970" points="356.0565,-222.6309 363.8973,-215.5055 353.3244,-216.186 356.0565,-222.6309"/>
</g>
<!-- Node17 -->
<g id="node17" class="node">
<title>Node17</title>
<g id="a_node17"><a xlink:href="../../d6/dcf/pythia6425mod_8f.html#aa8c99978a55999fa0b1fd2a946d8553a" target="_top" xlink:title="pyangl">
<polygon fill="none" stroke="#000000" points="362.5,-312.5 362.5,-332.5 412.5,-332.5 412.5,-312.5 362.5,-312.5"/>
<text text-anchor="middle" x="387.5" y="-319.5" font-family="FreeSans" font-size="10.00" fill="#000000">pyangl</text>
</a>
</g>
</g>
<!-- Node15&#45;&gt;Node17 -->
<g id="edge17" class="edge">
<title>Node15&#45;&gt;Node17</title>
<path fill="none" stroke="#191970" d="M307.5274,-254.6971C322.8174,-267.6604 349.4218,-290.2163 367.7183,-305.7285"/>
<polygon fill="#191970" stroke="#191970" points="365.5787,-308.5031 375.4697,-312.3004 370.1055,-303.1638 365.5787,-308.5031"/>
</g>
<!-- Node18 -->
<g id="node18" class="node">
<title>Node18</title>
<g id="a_node18"><a xlink:href="../../da/d0a/CylinderKalman_8cpp.html#ab74daa0c9784c63e060bfb98cc06fbf5" target="_top" xlink:title="sign">
<polygon fill="none" stroke="#000000" points="476,-292.5 476,-312.5 513,-312.5 513,-292.5 476,-292.5"/>
<text text-anchor="middle" x="494.5" y="-299.5" font-family="FreeSans" font-size="10.00" fill="#000000">sign</text>
</a>
</g>
</g>
<!-- Node15&#45;&gt;Node18 -->
<g id="edge21" class="edge">
<title>Node15&#45;&gt;Node18</title>
<path fill="none" stroke="#191970" d="M313.0145,-249.6811C325.9841,-253.5125 344.089,-258.8498 360,-263.5 396.6261,-274.2046 438.8971,-286.4425 466.1248,-294.3101"/>
<polygon fill="#191970" stroke="#191970" points="465.2018,-297.6866 475.7804,-297.0992 467.1444,-290.9615 465.2018,-297.6866"/>
</g>
<!-- Node19 -->
<g id="node19" class="node">
<title>Node19</title>
<g id="a_node19"><a xlink:href="../../d6/dcf/pythia6425mod_8f.html#ad69903a1054f4f77d45fd8fe4c687aa9" target="_top" xlink:title="pymass">
<polygon fill="none" stroke="#000000" points="360,-234.5 360,-254.5 415,-254.5 415,-234.5 360,-234.5"/>
<text text-anchor="middle" x="387.5" y="-241.5" font-family="FreeSans" font-size="10.00" fill="#000000">pymass</text>
</a>
</g>
</g>
<!-- Node15&#45;&gt;Node19 -->
<g id="edge19" class="edge">
<title>Node15&#45;&gt;Node19</title>
<path fill="none" stroke="#191970" d="M313.2385,-244.5C323.5184,-244.5 336.8726,-244.5 349.417,-244.5"/>
<polygon fill="#191970" stroke="#191970" points="349.6786,-248.0001 359.6785,-244.5 349.6785,-241.0001 349.6786,-248.0001"/>
</g>
<!-- Node17&#45;&gt;Node18 -->
<g id="edge18" class="edge">
<title>Node17&#45;&gt;Node18</title>
<path fill="none" stroke="#191970" d="M412.5867,-317.8109C428.4972,-314.837 449.1307,-310.9802 465.7083,-307.8816"/>
<polygon fill="#191970" stroke="#191970" points="466.7393,-311.2496 475.926,-305.9718 465.4531,-304.3688 466.7393,-311.2496"/>
</g>
<!-- Node20 -->
<g id="node20" class="node">
<title>Node20</title>
<g id="a_node20"><a xlink:href="../../d6/dcf/pythia6425mod_8f.html#ac28b7ef95cee2881a46f71d3a88d05ac" target="_top" xlink:title="pyr">
<polygon fill="none" stroke="#000000" points="478,-234.5 478,-254.5 511,-254.5 511,-234.5 478,-234.5"/>
<text text-anchor="middle" x="494.5" y="-241.5" font-family="FreeSans" font-size="10.00" fill="#000000">pyr</text>
</a>
</g>
</g>
<!-- Node19&#45;&gt;Node20 -->
<g id="edge20" class="edge">
<title>Node19&#45;&gt;Node20</title>
<path fill="none" stroke="#191970" d="M415.0552,-244.5C431.1545,-244.5 451.3897,-244.5 467.4086,-244.5"/>
<polygon fill="#191970" stroke="#191970" points="467.7225,-248.0001 477.7224,-244.5 467.7224,-241.0001 467.7225,-248.0001"/>
</g>
</g>
</svg>
