<?xml version="1.0" encoding="UTF-8" standalone="no"?>
<!DOCTYPE svg PUBLIC "-//W3C//DTD SVG 1.1//EN"
 "http://www.w3.org/Graphics/SVG/1.1/DTD/svg11.dtd">
<!-- Generated by graphviz version 2.40.1 (20161225.0304)
 -->
<!-- Title: pygau2 Pages: 1 -->
<svg width="1016pt" height="341pt"
 viewBox="0.00 0.00 1016.00 341.00" xmlns="http://www.w3.org/2000/svg" xmlns:xlink="http://www.w3.org/1999/xlink">
<g id="graph0" class="graph" transform="scale(1 1) rotate(0) translate(4 337)">
<title>pygau2</title>
<!-- Node1 -->
<g id="node1" class="node">
<title>Node1</title>
<polygon fill="#bfbfbf" stroke="#000000" points="0,-39.5 0,-59.5 54,-59.5 54,-39.5 0,-39.5"/>
<text text-anchor="middle" x="27" y="-46.5" font-family="FreeSans" font-size="10.00" fill="#000000">pygau2</text>
</g>
<!-- Node2 -->
<g id="node2" class="node">
<title>Node2</title>
<g id="a_node2"><a xlink:href="../../d6/dcf/pythia6425mod_8f.html#a8a7efe2037220dc632000fb06895ebca" target="_top" xlink:title="pyerrm">
<polygon fill="none" stroke="#000000" points="95,-78.5 95,-98.5 147,-98.5 147,-78.5 95,-78.5"/>
<text text-anchor="middle" x="121" y="-85.5" font-family="FreeSans" font-size="10.00" fill="#000000">pyerrm</text>
</a>
</g>
</g>
<!-- Node1&#45;&gt;Node2 -->
<g id="edge1" class="edge">
<title>Node1&#45;&gt;Node2</title>
<path fill="none" stroke="#191970" d="M51.2073,-59.5435C62.2815,-64.1381 75.5831,-69.6568 87.5902,-74.6385"/>
<polygon fill="#191970" stroke="#191970" points="86.2968,-77.8911 96.8747,-78.4906 88.9794,-71.4255 86.2968,-77.8911"/>
</g>
<!-- Node21 -->
<g id="node21" class="node">
<title>Node21</title>
<g id="a_node21"><a xlink:href="../../d1/d5e/classsHelix.html#a6475358b49bdd57d441b23ab9b11182f" target="_top" xlink:title="sHelix::u">
<polygon fill="none" stroke="#000000" points="91,-39.5 91,-59.5 151,-59.5 151,-39.5 91,-39.5"/>
<text text-anchor="middle" x="121" y="-46.5" font-family="FreeSans" font-size="10.00" fill="#000000">sHelix::u</text>
</a>
</g>
</g>
<!-- Node1&#45;&gt;Node21 -->
<g id="edge23" class="edge">
<title>Node1&#45;&gt;Node21</title>
<path fill="none" stroke="#191970" d="M54.1887,-49.5C62.4508,-49.5 71.7127,-49.5 80.6475,-49.5"/>
<polygon fill="#191970" stroke="#191970" points="80.9064,-53.0001 90.9064,-49.5 80.9063,-46.0001 80.9064,-53.0001"/>
</g>
<!-- Node22 -->
<g id="node22" class="node">
<title>Node22</title>
<g id="a_node22"><a xlink:href="../../d1/d5e/classsHelix.html#a44ff83bf3956f25a18308cc3c7fc1873" target="_top" xlink:title="sHelix::w">
<polygon fill="none" stroke="#000000" points="90,-.5 90,-20.5 152,-20.5 152,-.5 90,-.5"/>
<text text-anchor="middle" x="121" y="-7.5" font-family="FreeSans" font-size="10.00" fill="#000000">sHelix::w</text>
</a>
</g>
</g>
<!-- Node1&#45;&gt;Node22 -->
<g id="edge24" class="edge">
<title>Node1&#45;&gt;Node22</title>
<path fill="none" stroke="#191970" d="M51.2073,-39.4565C62.2815,-34.8619 75.5831,-29.3432 87.5902,-24.3615"/>
<polygon fill="#191970" stroke="#191970" points="88.9794,-27.5745 96.8747,-20.5094 86.2968,-21.1089 88.9794,-27.5745"/>
</g>
<!-- Node3 -->
<g id="node3" class="node">
<title>Node3</title>
<g id="a_node3"><a xlink:href="../../d6/dcf/pythia6425mod_8f.html#acc54128638bbd93cf630e1576f91d443" target="_top" xlink:title="pylist">
<polygon fill="none" stroke="#000000" points="188,-117.5 188,-137.5 232,-137.5 232,-117.5 188,-117.5"/>
<text text-anchor="middle" x="210" y="-124.5" font-family="FreeSans" font-size="10.00" fill="#000000">pylist</text>
</a>
</g>
</g>
<!-- Node2&#45;&gt;Node3 -->
<g id="edge2" class="edge">
<title>Node2&#45;&gt;Node3</title>
<path fill="none" stroke="#191970" d="M143.9197,-98.5435C154.4619,-103.1631 167.1363,-108.717 178.553,-113.7199"/>
<polygon fill="#191970" stroke="#191970" points="177.2089,-116.9521 187.7729,-117.76 180.0185,-110.5407 177.2089,-116.9521"/>
</g>
<!-- Node7 -->
<g id="node7" class="node">
<title>Node7</title>
<g id="a_node7"><a xlink:href="../../d6/dcf/pythia6425mod_8f.html#a4140396b9ec9bafcebf4c7ebecb462e7" target="_top" xlink:title="pystop">
<polygon fill="none" stroke="#000000" points="363.5,-59.5 363.5,-79.5 413.5,-79.5 413.5,-59.5 363.5,-59.5"/>
<text text-anchor="middle" x="388.5" y="-66.5" font-family="FreeSans" font-size="10.00" fill="#000000">pystop</text>
</a>
</g>
</g>
<!-- Node2&#45;&gt;Node7 -->
<g id="edge22" class="edge">
<title>Node2&#45;&gt;Node7</title>
<path fill="none" stroke="#191970" d="M147.1794,-83.8485C176.4934,-78.895 225.4713,-71.3798 268,-68.5 293.2755,-66.7885 299.6675,-68.3005 325,-68.5 334.2122,-68.5725 344.1754,-68.7042 353.4181,-68.8488"/>
<polygon fill="#191970" stroke="#191970" points="353.4122,-72.3491 363.4687,-69.0149 353.528,-65.35 353.4122,-72.3491"/>
</g>
<!-- Node4 -->
<g id="node4" class="node">
<title>Node4</title>
<g id="a_node4"><a xlink:href="../../dc/d9f/hcalUtil_8C.html#af562b1ac3ac927ecde202ce0501a97a6" target="_top" xlink:title="ps">
<polygon fill="none" stroke="#000000" points="282,-156.5 282,-176.5 311,-176.5 311,-156.5 282,-156.5"/>
<text text-anchor="middle" x="296.5" y="-163.5" font-family="FreeSans" font-size="10.00" fill="#000000">ps</text>
</a>
</g>
</g>
<!-- Node3&#45;&gt;Node4 -->
<g id="edge3" class="edge">
<title>Node3&#45;&gt;Node4</title>
<path fill="none" stroke="#191970" d="M232.2759,-137.5435C244.5994,-143.0997 259.9205,-150.0075 272.5073,-155.6825"/>
<polygon fill="#191970" stroke="#191970" points="271.3511,-159.0004 281.9059,-159.92 274.2283,-152.6191 271.3511,-159.0004"/>
</g>
<!-- Node6 -->
<g id="node6" class="node">
<title>Node6</title>
<g id="a_node6"><a xlink:href="../../d6/dcf/pythia6425mod_8f.html#a56718d08dbb42b3b978fc9b5bd6970e6" target="_top" xlink:title="pylogo">
<polygon fill="none" stroke="#000000" points="271.5,-117.5 271.5,-137.5 321.5,-137.5 321.5,-117.5 271.5,-117.5"/>
<text text-anchor="middle" x="296.5" y="-124.5" font-family="FreeSans" font-size="10.00" fill="#000000">pylogo</text>
</a>
</g>
</g>
<!-- Node3&#45;&gt;Node6 -->
<g id="edge5" class="edge">
<title>Node3&#45;&gt;Node6</title>
<path fill="none" stroke="#191970" d="M232.2759,-127.5C241.025,-127.5 251.285,-127.5 261.0047,-127.5"/>
<polygon fill="#191970" stroke="#191970" points="261.2427,-131.0001 271.2426,-127.5 261.2426,-124.0001 261.2427,-131.0001"/>
</g>
<!-- Node14 -->
<g id="node14" class="node">
<title>Node14</title>
<g id="a_node14"><a xlink:href="../../d6/dcf/pythia6425mod_8f.html#ab0dbe916b7d36854c02faf180f41d585" target="_top" xlink:title="pyname">
<polygon fill="none" stroke="#000000" points="268,-78.5 268,-98.5 325,-98.5 325,-78.5 268,-78.5"/>
<text text-anchor="middle" x="296.5" y="-85.5" font-family="FreeSans" font-size="10.00" fill="#000000">pyname</text>
</a>
</g>
</g>
<!-- Node3&#45;&gt;Node14 -->
<g id="edge14" class="edge">
<title>Node3&#45;&gt;Node14</title>
<path fill="none" stroke="#191970" d="M232.2759,-117.4565C242.2647,-112.9529 254.2229,-107.5614 265.0981,-102.6581"/>
<polygon fill="#191970" stroke="#191970" points="266.6219,-105.8104 274.2996,-98.5094 263.7447,-99.429 266.6219,-105.8104"/>
</g>
<!-- Node15 -->
<g id="node15" class="node">
<title>Node15</title>
<g id="a_node15"><a xlink:href="../../d6/dcf/pythia6425mod_8f.html#a6cee1eea51c820d9e90932c9eca205b7" target="_top" xlink:title="pyp">
<polygon fill="none" stroke="#000000" points="279,-234.5 279,-254.5 314,-254.5 314,-234.5 279,-234.5"/>
<text text-anchor="middle" x="296.5" y="-241.5" font-family="FreeSans" font-size="10.00" fill="#000000">pyp</text>
</a>
</g>
</g>
<!-- Node3&#45;&gt;Node15 -->
<g id="edge15" class="edge">
<title>Node3&#45;&gt;Node15</title>
<path fill="none" stroke="#191970" d="M217.6763,-137.883C232.3326,-157.7071 264.4761,-201.1844 282.8683,-226.0618"/>
<polygon fill="#191970" stroke="#191970" points="280.2051,-228.347 288.9644,-234.3074 285.8339,-224.1856 280.2051,-228.347"/>
</g>
<!-- Node5 -->
<g id="node5" class="node">
<title>Node5</title>
<g id="a_node5"><a xlink:href="../../da/d55/TPCRateLayered_8m.html#a7507ef556477c204b499f1e189d40796" target="_top" xlink:title="sum">
<polygon fill="none" stroke="#000000" points="369.5,-156.5 369.5,-176.5 407.5,-176.5 407.5,-156.5 369.5,-156.5"/>
<text text-anchor="middle" x="388.5" y="-163.5" font-family="FreeSans" font-size="10.00" fill="#000000">sum</text>
</a>
</g>
</g>
<!-- Node4&#45;&gt;Node5 -->
<g id="edge4" class="edge">
<title>Node4&#45;&gt;Node5</title>
<path fill="none" stroke="#191970" d="M311.2814,-166.5C324.075,-166.5 342.9687,-166.5 358.8645,-166.5"/>
<polygon fill="#191970" stroke="#191970" points="359.2786,-170.0001 369.2786,-166.5 359.2785,-163.0001 359.2786,-170.0001"/>
</g>
<!-- Node6&#45;&gt;Node7 -->
<g id="edge6" class="edge">
<title>Node6&#45;&gt;Node7</title>
<path fill="none" stroke="#191970" d="M312.5252,-117.3972C326.6859,-108.4698 347.5591,-95.3106 363.8455,-85.0431"/>
<polygon fill="#191970" stroke="#191970" points="365.7571,-87.9755 372.3498,-79.6817 362.0239,-82.054 365.7571,-87.9755"/>
</g>
<!-- Node13 -->
<g id="node13" class="node">
<title>Node13</title>
<g id="a_node13"><a xlink:href="../../d6/dcf/pythia6425mod_8f.html#a523e4acf745637220400daf831c34a23" target="_top" xlink:title="pytime">
<polygon fill="none" stroke="#000000" points="363,-117.5 363,-137.5 414,-137.5 414,-117.5 363,-117.5"/>
<text text-anchor="middle" x="388.5" y="-124.5" font-family="FreeSans" font-size="10.00" fill="#000000">pytime</text>
</a>
</g>
</g>
<!-- Node6&#45;&gt;Node13 -->
<g id="edge13" class="edge">
<title>Node6&#45;&gt;Node13</title>
<path fill="none" stroke="#191970" d="M321.6394,-127.5C331.2158,-127.5 342.3225,-127.5 352.6999,-127.5"/>
<polygon fill="#191970" stroke="#191970" points="352.7506,-131.0001 362.7505,-127.5 352.7505,-124.0001 352.7506,-131.0001"/>
</g>
<!-- Node8 -->
<g id="node8" class="node">
<title>Node8</title>
<g id="a_node8"><a xlink:href="../../d0/d5e/classPHTimer.html#adce6f9a85834e59bd154b9c624ee4e41" target="_top" xlink:title="stops the counter">
<polygon fill="none" stroke="#000000" points="452,-59.5 452,-79.5 539,-79.5 539,-59.5 452,-59.5"/>
<text text-anchor="middle" x="495.5" y="-66.5" font-family="FreeSans" font-size="10.00" fill="#000000">PHTimer::stop</text>
</a>
</g>
</g>
<!-- Node7&#45;&gt;Node8 -->
<g id="edge7" class="edge">
<title>Node7&#45;&gt;Node8</title>
<path fill="none" stroke="#191970" d="M413.5867,-69.5C422.0221,-69.5 431.7851,-69.5 441.5674,-69.5"/>
<polygon fill="#191970" stroke="#191970" points="441.7137,-73.0001 451.7137,-69.5 441.7137,-66.0001 441.7137,-73.0001"/>
</g>
<!-- Node9 -->
<g id="node9" class="node">
<title>Node9</title>
<g id="a_node9"><a xlink:href="../../d0/d5e/classPHTimer.html#aa92e3fe4a0a1799f39743eda9ef9d497" target="_top" xlink:title="gets time from cpu clock counts">
<polygon fill="none" stroke="#000000" points="728.5,-73.5 728.5,-105.5 841.5,-105.5 841.5,-73.5 728.5,-73.5"/>
<text text-anchor="start" x="736.5" y="-92.5" font-family="FreeSans" font-size="10.00" fill="#000000">PHTimer::get_clock</text>
<text text-anchor="middle" x="785" y="-80.5" font-family="FreeSans" font-size="10.00" fill="#000000">_counts</text>
</a>
</g>
</g>
<!-- Node8&#45;&gt;Node9 -->
<g id="edge8" class="edge">
<title>Node8&#45;&gt;Node9</title>
<path fill="none" stroke="#191970" d="M539.1545,-72.5159C586.665,-75.7981 663.1979,-81.0853 718.258,-84.8892"/>
<polygon fill="#191970" stroke="#191970" points="718.0597,-88.3837 728.2772,-85.5813 718.5422,-81.4004 718.0597,-88.3837"/>
</g>
<!-- Node10 -->
<g id="node10" class="node">
<title>Node10</title>
<g id="a_node10"><a xlink:href="../../d0/d5e/classPHTimer.html#a976738876ad978116fdc4549a3765685" target="_top" xlink:title="retrieve elapsed value since last restart (in ms)">
<polygon fill="none" stroke="#000000" points="575,-40.5 575,-60.5 680,-60.5 680,-40.5 575,-40.5"/>
<text text-anchor="middle" x="627.5" y="-47.5" font-family="FreeSans" font-size="10.00" fill="#000000">PHTimer::elapsed</text>
</a>
</g>
</g>
<!-- Node8&#45;&gt;Node10 -->
<g id="edge9" class="edge">
<title>Node8&#45;&gt;Node10</title>
<path fill="none" stroke="#191970" d="M539.0876,-63.226C547.2917,-62.0451 556.0201,-60.7888 564.6756,-59.5429"/>
<polygon fill="#191970" stroke="#191970" points="565.3676,-62.9795 574.767,-58.0904 564.3703,-56.0509 565.3676,-62.9795"/>
</g>
<!-- Node10&#45;&gt;Node9 -->
<g id="edge12" class="edge">
<title>Node10&#45;&gt;Node9</title>
<path fill="none" stroke="#191970" d="M668.0602,-60.5435C683.3746,-64.3356 701.2315,-68.7573 718.3129,-72.987"/>
<polygon fill="#191970" stroke="#191970" points="717.7073,-76.4427 728.2554,-75.449 719.3898,-69.6479 717.7073,-76.4427"/>
</g>
<!-- Node11 -->
<g id="node11" class="node">
<title>Node11</title>
<g id="a_node11"><a xlink:href="../../d0/d5e/classPHTimer.html#aa75ff2c27aba40e7ef0a934f9a3355c2" target="_top" xlink:title="returns difference between to time">
<polygon fill="none" stroke="#000000" points="716,-34.5 716,-54.5 854,-54.5 854,-34.5 716,-34.5"/>
<text text-anchor="middle" x="785" y="-41.5" font-family="FreeSans" font-size="10.00" fill="#000000">PHTimer::get_difference</text>
</a>
</g>
</g>
<!-- Node10&#45;&gt;Node11 -->
<g id="edge10" class="edge">
<title>Node10&#45;&gt;Node11</title>
<path fill="none" stroke="#191970" d="M680.3834,-48.4854C688.5408,-48.1746 697.1148,-47.848 705.6976,-47.521"/>
<polygon fill="#191970" stroke="#191970" points="705.8931,-51.0162 715.7526,-47.138 705.6266,-44.0213 705.8931,-51.0162"/>
</g>
<!-- Node12 -->
<g id="node12" class="node">
<title>Node12</title>
<g id="a_node12"><a xlink:href="../../d2/db1/classPHTimer_1_1Frequency.html#a023a2d706df9a8bd303810a9ed017f61" target="_top" xlink:title="period accessor">
<polygon fill="none" stroke="#000000" points="890,-28.5 890,-60.5 1008,-60.5 1008,-28.5 890,-28.5"/>
<text text-anchor="start" x="898" y="-47.5" font-family="FreeSans" font-size="10.00" fill="#000000">PHTimer::Frequency</text>
<text text-anchor="middle" x="949" y="-35.5" font-family="FreeSans" font-size="10.00" fill="#000000">::period</text>
</a>
</g>
</g>
<!-- Node11&#45;&gt;Node12 -->
<g id="edge11" class="edge">
<title>Node11&#45;&gt;Node12</title>
<path fill="none" stroke="#191970" d="M854.0754,-44.5C862.5394,-44.5 871.1918,-44.5 879.6596,-44.5"/>
<polygon fill="#191970" stroke="#191970" points="879.8719,-48.0001 889.8719,-44.5 879.8719,-41.0001 879.8719,-48.0001"/>
</g>
<!-- Node16 -->
<g id="node16" class="node">
<title>Node16</title>
<g id="a_node16"><a xlink:href="../../d6/dcf/pythia6425mod_8f.html#a27f75936fde97780175fa2c990bc61cd" target="_top" xlink:title="pychge">
<polygon fill="none" stroke="#000000" points="362,-195.5 362,-215.5 415,-215.5 415,-195.5 362,-195.5"/>
<text text-anchor="middle" x="388.5" y="-202.5" font-family="FreeSans" font-size="10.00" fill="#000000">pychge</text>
</a>
</g>
</g>
<!-- Node15&#45;&gt;Node16 -->
<g id="edge16" class="edge">
<title>Node15&#45;&gt;Node16</title>
<path fill="none" stroke="#191970" d="M314.2385,-236.9804C325.9478,-232.0167 341.6458,-225.3621 355.5924,-219.45"/>
<polygon fill="#191970" stroke="#191970" points="357.0565,-222.6309 364.8973,-215.5055 354.3244,-216.186 357.0565,-222.6309"/>
</g>
<!-- Node17 -->
<g id="node17" class="node">
<title>Node17</title>
<g id="a_node17"><a xlink:href="../../d6/dcf/pythia6425mod_8f.html#aa8c99978a55999fa0b1fd2a946d8553a" target="_top" xlink:title="pyangl">
<polygon fill="none" stroke="#000000" points="363.5,-312.5 363.5,-332.5 413.5,-332.5 413.5,-312.5 363.5,-312.5"/>
<text text-anchor="middle" x="388.5" y="-319.5" font-family="FreeSans" font-size="10.00" fill="#000000">pyangl</text>
</a>
</g>
</g>
<!-- Node15&#45;&gt;Node17 -->
<g id="edge17" class="edge">
<title>Node15&#45;&gt;Node17</title>
<path fill="none" stroke="#191970" d="M308.5274,-254.6971C323.8174,-267.6604 350.4218,-290.2163 368.7183,-305.7285"/>
<polygon fill="#191970" stroke="#191970" points="366.5787,-308.5031 376.4697,-312.3004 371.1055,-303.1638 366.5787,-308.5031"/>
</g>
<!-- Node18 -->
<g id="node18" class="node">
<title>Node18</title>
<g id="a_node18"><a xlink:href="../../da/d0a/CylinderKalman_8cpp.html#ab74daa0c9784c63e060bfb98cc06fbf5" target="_top" xlink:title="sign">
<polygon fill="none" stroke="#000000" points="477,-292.5 477,-312.5 514,-312.5 514,-292.5 477,-292.5"/>
<text text-anchor="middle" x="495.5" y="-299.5" font-family="FreeSans" font-size="10.00" fill="#000000">sign</text>
</a>
</g>
</g>
<!-- Node15&#45;&gt;Node18 -->
<g id="edge21" class="edge">
<title>Node15&#45;&gt;Node18</title>
<path fill="none" stroke="#191970" d="M314.0145,-249.6811C326.9841,-253.5125 345.089,-258.8498 361,-263.5 397.6261,-274.2046 439.8971,-286.4425 467.1248,-294.3101"/>
<polygon fill="#191970" stroke="#191970" points="466.2018,-297.6866 476.7804,-297.0992 468.1444,-290.9615 466.2018,-297.6866"/>
</g>
<!-- Node19 -->
<g id="node19" class="node">
<title>Node19</title>
<g id="a_node19"><a xlink:href="../../d6/dcf/pythia6425mod_8f.html#ad69903a1054f4f77d45fd8fe4c687aa9" target="_top" xlink:title="pymass">
<polygon fill="none" stroke="#000000" points="361,-234.5 361,-254.5 416,-254.5 416,-234.5 361,-234.5"/>
<text text-anchor="middle" x="388.5" y="-241.5" font-family="FreeSans" font-size="10.00" fill="#000000">pymass</text>
</a>
</g>
</g>
<!-- Node15&#45;&gt;Node19 -->
<g id="edge19" class="edge">
<title>Node15&#45;&gt;Node19</title>
<path fill="none" stroke="#191970" d="M314.2385,-244.5C324.5184,-244.5 337.8726,-244.5 350.417,-244.5"/>
<polygon fill="#191970" stroke="#191970" points="350.6786,-248.0001 360.6785,-244.5 350.6785,-241.0001 350.6786,-248.0001"/>
</g>
<!-- Node17&#45;&gt;Node18 -->
<g id="edge18" class="edge">
<title>Node17&#45;&gt;Node18</title>
<path fill="none" stroke="#191970" d="M413.5867,-317.8109C429.4972,-314.837 450.1307,-310.9802 466.7083,-307.8816"/>
<polygon fill="#191970" stroke="#191970" points="467.7393,-311.2496 476.926,-305.9718 466.4531,-304.3688 467.7393,-311.2496"/>
</g>
<!-- Node20 -->
<g id="node20" class="node">
<title>Node20</title>
<g id="a_node20"><a xlink:href="../../d6/dcf/pythia6425mod_8f.html#ac28b7ef95cee2881a46f71d3a88d05ac" target="_top" xlink:title="pyr">
<polygon fill="none" stroke="#000000" points="479,-234.5 479,-254.5 512,-254.5 512,-234.5 479,-234.5"/>
<text text-anchor="middle" x="495.5" y="-241.5" font-family="FreeSans" font-size="10.00" fill="#000000">pyr</text>
</a>
</g>
</g>
<!-- Node19&#45;&gt;Node20 -->
<g id="edge20" class="edge">
<title>Node19&#45;&gt;Node20</title>
<path fill="none" stroke="#191970" d="M416.0552,-244.5C432.1545,-244.5 452.3897,-244.5 468.4086,-244.5"/>
<polygon fill="#191970" stroke="#191970" points="468.7225,-248.0001 478.7224,-244.5 468.7224,-241.0001 468.7225,-248.0001"/>
</g>
</g>
</svg>
