<?xml version="1.0" encoding="UTF-8" standalone="no"?>
<!DOCTYPE svg PUBLIC "-//W3C//DTD SVG 1.1//EN"
 "http://www.w3.org/Graphics/SVG/1.1/DTD/svg11.dtd">
<!-- Generated by graphviz version 2.40.1 (20161225.0304)
 -->
<!-- Title: pyfscr Pages: 1 -->
<svg width="1018pt" height="341pt"
 viewBox="0.00 0.00 1018.00 341.00" xmlns="http://www.w3.org/2000/svg" xmlns:xlink="http://www.w3.org/1999/xlink">
<g id="graph0" class="graph" transform="scale(1 1) rotate(0) translate(4 337)">
<title>pyfscr</title>
<!-- Node1 -->
<g id="node1" class="node">
<title>Node1</title>
<polygon fill="#bfbfbf" stroke="#000000" points="0,-77.5 0,-97.5 48,-97.5 48,-77.5 0,-77.5"/>
<text text-anchor="middle" x="24" y="-84.5" font-family="FreeSans" font-size="10.00" fill="#000000">pyfscr</text>
</g>
<!-- Node2 -->
<g id="node2" class="node">
<title>Node2</title>
<g id="a_node2"><a xlink:href="../../d6/dcf/pythia6425mod_8f.html#ac81fa418f8cd77b0873b2de2a4140933" target="_top" xlink:title="pyevnt">
<polygon fill="none" stroke="#000000" points="176,-77.5 176,-97.5 228,-97.5 228,-77.5 176,-77.5"/>
<text text-anchor="middle" x="202" y="-84.5" font-family="FreeSans" font-size="10.00" fill="#000000">pyevnt</text>
</a>
</g>
</g>
<!-- Node1&#45;&gt;Node2 -->
<g id="edge1" class="edge">
<title>Node1&#45;&gt;Node2</title>
<path fill="none" stroke="#191970" d="M58.0349,-87.5C92.3418,-87.5 144.5565,-87.5 175.7759,-87.5"/>
<polygon fill="#191970" stroke="#191970" points="58.0059,-84.0001 48.0059,-87.5 58.0058,-91.0001 58.0059,-84.0001"/>
</g>
<!-- Node16 -->
<g id="node16" class="node">
<title>Node16</title>
<g id="a_node16"><a xlink:href="../../d6/dcf/pythia6425mod_8f.html#a83ae6561ab82fd7af8b1b3e511f477ac" target="_top" xlink:title="pyevnw">
<polygon fill="none" stroke="#000000" points="84,-58.5 84,-78.5 140,-78.5 140,-58.5 84,-58.5"/>
<text text-anchor="middle" x="112" y="-65.5" font-family="FreeSans" font-size="10.00" fill="#000000">pyevnw</text>
</a>
</g>
</g>
<!-- Node1&#45;&gt;Node16 -->
<g id="edge17" class="edge">
<title>Node1&#45;&gt;Node16</title>
<path fill="none" stroke="#191970" d="M57.8309,-80.1956C66.4543,-78.3337 75.629,-76.3528 83.9294,-74.5607"/>
<polygon fill="#191970" stroke="#191970" points="57.0825,-76.7765 48.0464,-82.3082 58.5598,-83.6188 57.0825,-76.7765"/>
</g>
<!-- Node3 -->
<g id="node3" class="node">
<title>Node3</title>
<g id="a_node3"><a xlink:href="../../d3/dd5/jewel-2_82_80_8f.html#aeb24fa7919aa21c652e9c8f2ec45cb91" target="_top" xlink:title="genevent">
<polygon fill="none" stroke="#000000" points="264,-97.5 264,-117.5 329,-117.5 329,-97.5 264,-97.5"/>
<text text-anchor="middle" x="296.5" y="-104.5" font-family="FreeSans" font-size="10.00" fill="#000000">genevent</text>
</a>
</g>
</g>
<!-- Node2&#45;&gt;Node3 -->
<g id="edge2" class="edge">
<title>Node2&#45;&gt;Node3</title>
<path fill="none" stroke="#191970" d="M238.0512,-95.1299C246.5024,-96.9185 255.4608,-98.8145 263.7582,-100.5705"/>
<polygon fill="#191970" stroke="#191970" points="238.5807,-91.6645 228.0727,-93.018 237.1313,-98.5128 238.5807,-91.6645"/>
</g>
<!-- Node15 -->
<g id="node15" class="node">
<title>Node15</title>
<g id="a_node15"><a xlink:href="../../d6/dcf/pythia6425mod_8f.html#a4cc0e611278607d6b413b5cecdfe16c3" target="_top" xlink:title="pytest">
<polygon fill="none" stroke="#000000" points="272.5,-58.5 272.5,-78.5 320.5,-78.5 320.5,-58.5 272.5,-58.5"/>
<text text-anchor="middle" x="296.5" y="-65.5" font-family="FreeSans" font-size="10.00" fill="#000000">pytest</text>
</a>
</g>
</g>
<!-- Node2&#45;&gt;Node15 -->
<g id="edge16" class="edge">
<title>Node2&#45;&gt;Node15</title>
<path fill="none" stroke="#191970" d="M237.9023,-80.2815C249.4551,-77.9588 261.9698,-75.4426 272.456,-73.3342"/>
<polygon fill="#191970" stroke="#191970" points="237.1866,-76.8553 228.0727,-82.2579 238.5664,-83.718 237.1866,-76.8553"/>
</g>
<!-- Node4 -->
<g id="node4" class="node">
<title>Node4</title>
<g id="a_node4"><a xlink:href="../../d6/d45/classEpFinderEval.html#af537855512c06847c1021dd83f015031" target="_top" xlink:title="EpFinderEval::fill_tree">
<polygon fill="none" stroke="#000000" points="409,-258.5 409,-278.5 535,-278.5 535,-258.5 409,-258.5"/>
<text text-anchor="middle" x="472" y="-265.5" font-family="FreeSans" font-size="10.00" fill="#000000">EpFinderEval::fill_tree</text>
</a>
</g>
</g>
<!-- Node3&#45;&gt;Node4 -->
<g id="edge3" class="edge">
<title>Node3&#45;&gt;Node4</title>
<path fill="none" stroke="#191970" d="M307.5291,-126.4686C319.7964,-146.4818 341.0659,-178.1566 365,-200.5 391.7079,-225.4329 428.7694,-246.623 451.5273,-258.4406"/>
<polygon fill="#191970" stroke="#191970" points="310.4006,-124.4512 302.2579,-117.6727 304.3962,-128.0495 310.4006,-124.4512"/>
</g>
<!-- Node6 -->
<g id="node6" class="node">
<title>Node6</title>
<g id="a_node6"><a xlink:href="../../dd/d2a/classPHHepMCGenHelper.html#ab0c755f6e53c0bf57ccd314a0017d227" target="_top" xlink:title="send HepMC::GenEvent to DST tree. This function takes ownership of evt">
<polygon fill="none" stroke="#000000" points="394,-158.5 394,-190.5 550,-190.5 550,-158.5 394,-158.5"/>
<text text-anchor="start" x="402" y="-177.5" font-family="FreeSans" font-size="10.00" fill="#000000">PHHepMCGenHelper::insert</text>
<text text-anchor="middle" x="472" y="-165.5" font-family="FreeSans" font-size="10.00" fill="#000000">_event</text>
</a>
</g>
</g>
<!-- Node3&#45;&gt;Node6 -->
<g id="edge5" class="edge">
<title>Node3&#45;&gt;Node6</title>
<path fill="none" stroke="#191970" d="M324.8668,-122.2774C337.0461,-128.3298 351.5455,-135.1525 365,-140.5 381.4832,-147.0512 399.7682,-153.2411 416.4913,-158.4988"/>
<polygon fill="#191970" stroke="#191970" points="326.1655,-119.0124 315.661,-117.6316 323.0117,-125.2617 326.1655,-119.0124"/>
</g>
<!-- Node11 -->
<g id="node11" class="node">
<title>Node11</title>
<g id="a_node11"><a xlink:href="../../d9/d3a/classPHPythia8.html#a5cc4124cc6be2fb2467714e3d3bc5a6a" target="_top" xlink:title="PHPythia8::process\l_event">
<polygon fill="none" stroke="#000000" points="650,-108.5 650,-140.5 763,-140.5 763,-108.5 650,-108.5"/>
<text text-anchor="start" x="658" y="-127.5" font-family="FreeSans" font-size="10.00" fill="#000000">PHPythia8::process</text>
<text text-anchor="middle" x="706.5" y="-115.5" font-family="FreeSans" font-size="10.00" fill="#000000">_event</text>
</a>
</g>
</g>
<!-- Node3&#45;&gt;Node11 -->
<g id="edge14" class="edge">
<title>Node3&#45;&gt;Node11</title>
<path fill="none" stroke="#191970" d="M339.4086,-109.2791C413.8409,-112.3654 566.8672,-118.7103 649.902,-122.1533"/>
<polygon fill="#191970" stroke="#191970" points="339.1512,-105.7655 329.0147,-108.8482 338.8611,-112.7595 339.1512,-105.7655"/>
</g>
<!-- Node12 -->
<g id="node12" class="node">
<title>Node12</title>
<g id="a_node12"><a xlink:href="../../da/df0/classPHSartre.html#aafe9fd92317ab1f7eee67a9354696c4e" target="_top" xlink:title="PHSartre::process_event">
<polygon fill="none" stroke="#000000" points="636.5,-69.5 636.5,-89.5 776.5,-89.5 776.5,-69.5 636.5,-69.5"/>
<text text-anchor="middle" x="706.5" y="-76.5" font-family="FreeSans" font-size="10.00" fill="#000000">PHSartre::process_event</text>
</a>
</g>
</g>
<!-- Node3&#45;&gt;Node12 -->
<g id="edge13" class="edge">
<title>Node3&#45;&gt;Node12</title>
<path fill="none" stroke="#191970" d="M339.2904,-104.5777C409.752,-99.7657 550.8743,-90.1281 636.1815,-84.3022"/>
<polygon fill="#191970" stroke="#191970" points="338.753,-101.1062 329.0147,-105.2795 339.23,-108.0899 338.753,-101.1062"/>
</g>
<!-- Node13 -->
<g id="node13" class="node">
<title>Node13</title>
<g id="a_node13"><a xlink:href="../../d3/dd5/jewel-2_82_80_8f.html#a15e2df3184692bfe4ca2261638190094" target="_top" xlink:title="jewel">
<polygon fill="none" stroke="#000000" points="450.5,-39.5 450.5,-59.5 493.5,-59.5 493.5,-39.5 450.5,-39.5"/>
<text text-anchor="middle" x="472" y="-46.5" font-family="FreeSans" font-size="10.00" fill="#000000">jewel</text>
</a>
</g>
</g>
<!-- Node3&#45;&gt;Node13 -->
<g id="edge12" class="edge">
<title>Node3&#45;&gt;Node13</title>
<path fill="none" stroke="#191970" d="M323.5244,-92.7854C335.8972,-86.4945 350.9142,-79.4706 365,-74.5 393.7832,-64.3431 428.3843,-57.1167 450.2874,-53.1252"/>
<polygon fill="#191970" stroke="#191970" points="321.8946,-89.6879 314.6374,-97.407 325.1243,-95.8983 321.8946,-89.6879"/>
</g>
<!-- Node14 -->
<g id="node14" class="node">
<title>Node14</title>
<g id="a_node14"><a xlink:href="../../de/d99/classFun4AllHepMCPileupInputManager.html#a81bf2b69c3c4d3aae0aadebafe1c2c2e" target="_top" xlink:title="Fun4AllHepMCPileupInputManager::run">
<polygon fill="none" stroke="#000000" points="365,-.5 365,-20.5 579,-20.5 579,-.5 365,-.5"/>
<text text-anchor="middle" x="472" y="-7.5" font-family="FreeSans" font-size="10.00" fill="#000000">Fun4AllHepMCPileupInputManager::run</text>
</a>
</g>
</g>
<!-- Node3&#45;&gt;Node14 -->
<g id="edge15" class="edge">
<title>Node3&#45;&gt;Node14</title>
<path fill="none" stroke="#191970" d="M324.4734,-91.5392C326.0675,-90.2513 327.5919,-88.9027 329,-87.5 350.4945,-66.0879 339.8831,-46.5187 365,-29.5 370.2324,-25.9546 375.9277,-23.0118 381.8751,-20.5745"/>
<polygon fill="#191970" stroke="#191970" points="322.2756,-88.8068 316.1378,-97.4427 326.3213,-94.5193 322.2756,-88.8068"/>
</g>
<!-- Node5 -->
<g id="node5" class="node">
<title>Node5</title>
<g id="a_node5"><a xlink:href="../../d6/d45/classEpFinderEval.html#a2539c184425a5dceabf6a3be79b31e9a" target="_top" xlink:title="EpFinderEval::process\l_event">
<polygon fill="none" stroke="#000000" points="642.5,-300.5 642.5,-332.5 770.5,-332.5 770.5,-300.5 642.5,-300.5"/>
<text text-anchor="start" x="650.5" y="-319.5" font-family="FreeSans" font-size="10.00" fill="#000000">EpFinderEval::process</text>
<text text-anchor="middle" x="706.5" y="-307.5" font-family="FreeSans" font-size="10.00" fill="#000000">_event</text>
</a>
</g>
</g>
<!-- Node4&#45;&gt;Node5 -->
<g id="edge4" class="edge">
<title>Node4&#45;&gt;Node5</title>
<path fill="none" stroke="#191970" d="M531.0788,-280.5929C564.9172,-287.5193 607.4132,-296.2178 642.1032,-303.3186"/>
<polygon fill="#191970" stroke="#191970" points="531.3722,-277.0804 520.8734,-278.5039 529.9684,-283.9383 531.3722,-277.0804"/>
</g>
<!-- Node7 -->
<g id="node7" class="node">
<title>Node7</title>
<g id="a_node7"><a xlink:href="../../d6/d6f/classFun4AllHepMCInputManager.html#ab6c80a8ee0701bfff5eee3ec3623015c" target="_top" xlink:title="Fun4AllHepMCInputManager::run">
<polygon fill="none" stroke="#000000" points="615,-261.5 615,-281.5 798,-281.5 798,-261.5 615,-261.5"/>
<text text-anchor="middle" x="706.5" y="-268.5" font-family="FreeSans" font-size="10.00" fill="#000000">Fun4AllHepMCInputManager::run</text>
</a>
</g>
</g>
<!-- Node6&#45;&gt;Node7 -->
<g id="edge6" class="edge">
<title>Node6&#45;&gt;Node7</title>
<path fill="none" stroke="#191970" d="M504.8869,-196.0953C533.0497,-213.6762 575.2384,-237.8937 615,-252.5 624.5944,-256.0245 635.008,-258.9649 645.2566,-261.3954"/>
<polygon fill="#191970" stroke="#191970" points="506.58,-193.025 496.2568,-190.6411 502.8402,-198.9423 506.58,-193.025"/>
</g>
<!-- Node8 -->
<g id="node8" class="node">
<title>Node8</title>
<g id="a_node8"><a xlink:href="../../db/d1f/classFun4AllOscarInputManager.html#a1537e89c4e652f70747fbbef18ceadc4" target="_top" xlink:title="Fun4AllOscarInputManager\l::ConvertFromOscar">
<polygon fill="none" stroke="#000000" points="629.5,-210.5 629.5,-242.5 783.5,-242.5 783.5,-210.5 629.5,-210.5"/>
<text text-anchor="start" x="637.5" y="-229.5" font-family="FreeSans" font-size="10.00" fill="#000000">Fun4AllOscarInputManager</text>
<text text-anchor="middle" x="706.5" y="-217.5" font-family="FreeSans" font-size="10.00" fill="#000000">::ConvertFromOscar</text>
</a>
</g>
</g>
<!-- Node6&#45;&gt;Node8 -->
<g id="edge7" class="edge">
<title>Node6&#45;&gt;Node8</title>
<path fill="none" stroke="#191970" d="M554.1159,-192.7091C580.1598,-198.4843 608.7518,-204.8245 634.0638,-210.4374"/>
<polygon fill="#191970" stroke="#191970" points="554.7918,-189.274 544.2712,-190.526 553.2763,-196.108 554.7918,-189.274"/>
</g>
<!-- Node10 -->
<g id="node10" class="node">
<title>Node10</title>
<g id="a_node10"><a xlink:href="../../dd/da8/classPHPythia6.html#a7a70bdd1c198a83ed143d3e2c4516d0d" target="_top" xlink:title="PHPythia6::process\l_event">
<polygon fill="none" stroke="#000000" points="650,-159.5 650,-191.5 763,-191.5 763,-159.5 650,-159.5"/>
<text text-anchor="start" x="658" y="-178.5" font-family="FreeSans" font-size="10.00" fill="#000000">PHPythia6::process</text>
<text text-anchor="middle" x="706.5" y="-166.5" font-family="FreeSans" font-size="10.00" fill="#000000">_event</text>
</a>
</g>
</g>
<!-- Node6&#45;&gt;Node10 -->
<g id="edge9" class="edge">
<title>Node6&#45;&gt;Node10</title>
<path fill="none" stroke="#191970" d="M560.16,-174.8759C590.2125,-175.0041 622.9865,-175.1439 649.8859,-175.2586"/>
<polygon fill="#191970" stroke="#191970" points="560.1,-171.3758 550.0851,-174.833 560.0701,-178.3757 560.1,-171.3758"/>
</g>
<!-- Node6&#45;&gt;Node11 -->
<g id="edge10" class="edge">
<title>Node6&#45;&gt;Node11</title>
<path fill="none" stroke="#191970" d="M557.0754,-156.3603C587.9869,-149.7693 622.1323,-142.4888 649.9706,-136.5532"/>
<polygon fill="#191970" stroke="#191970" points="556.2151,-152.9649 547.1649,-158.4734 557.6749,-159.811 556.2151,-152.9649"/>
</g>
<!-- Node6&#45;&gt;Node12 -->
<g id="edge11" class="edge">
<title>Node6&#45;&gt;Node12</title>
<path fill="none" stroke="#191970" d="M505.4774,-153.1873C533.6855,-136.1067 575.6303,-112.7205 615,-98.5 624.766,-94.9725 635.3677,-92.0212 645.777,-89.5785"/>
<polygon fill="#191970" stroke="#191970" points="503.5196,-150.2821 496.8223,-158.4917 507.1774,-156.2504 503.5196,-150.2821"/>
</g>
<!-- Node9 -->
<g id="node9" class="node">
<title>Node9</title>
<g id="a_node9"><a xlink:href="../../db/d1f/classFun4AllOscarInputManager.html#a4be602bd8c9fe73f9dcc81c8871784a6" target="_top" xlink:title="Fun4AllOscarInputManager::run">
<polygon fill="none" stroke="#000000" points="834,-216.5 834,-236.5 1010,-236.5 1010,-216.5 834,-216.5"/>
<text text-anchor="middle" x="922" y="-223.5" font-family="FreeSans" font-size="10.00" fill="#000000">Fun4AllOscarInputManager::run</text>
</a>
</g>
</g>
<!-- Node8&#45;&gt;Node9 -->
<g id="edge8" class="edge">
<title>Node8&#45;&gt;Node9</title>
<path fill="none" stroke="#191970" d="M793.7391,-226.5C807.0061,-226.5 820.7039,-226.5 833.9873,-226.5"/>
<polygon fill="#191970" stroke="#191970" points="793.6918,-223.0001 783.6918,-226.5 793.6917,-230.0001 793.6918,-223.0001"/>
</g>
<!-- Node16&#45;&gt;Node2 -->
<g id="edge18" class="edge">
<title>Node16&#45;&gt;Node2</title>
<path fill="none" stroke="#191970" d="M150.3435,-76.5947C158.9445,-78.4105 167.8773,-80.2963 175.8474,-81.9789"/>
<polygon fill="#191970" stroke="#191970" points="150.9839,-73.1529 140.4766,-74.5117 149.5379,-80.0019 150.9839,-73.1529"/>
</g>
</g>
</svg>
