<?xml version="1.0" encoding="UTF-8" standalone="no"?>
<!DOCTYPE svg PUBLIC "-//W3C//DTD SVG 1.1//EN"
 "http://www.w3.org/Graphics/SVG/1.1/DTD/svg11.dtd">
<!-- Generated by graphviz version 2.40.1 (20161225.0304)
 -->
<!-- Title: PHG4GDMLWriteParamvol::Hype_dimensionsWrite Pages: 1 -->
<svg width="362pt" height="68pt"
 viewBox="0.00 0.00 362.00 68.00" xmlns="http://www.w3.org/2000/svg" xmlns:xlink="http://www.w3.org/1999/xlink">
<g id="graph0" class="graph" transform="scale(1 1) rotate(0) translate(4 64)">
<title>PHG4GDMLWriteParamvol::Hype_dimensionsWrite</title>
<!-- Node1 -->
<g id="node1" class="node">
<title>Node1</title>
<polygon fill="#bfbfbf" stroke="#000000" points="0,-13.5 0,-45.5 146,-45.5 146,-13.5 0,-13.5"/>
<text text-anchor="start" x="8" y="-32.5" font-family="FreeSans" font-size="10.00" fill="#000000">PHG4GDMLWriteParamvol</text>
<text text-anchor="middle" x="73" y="-20.5" font-family="FreeSans" font-size="10.00" fill="#000000">::Hype_dimensionsWrite</text>
</g>
<!-- Node2 -->
<g id="node2" class="node">
<title>Node2</title>
<g id="a_node2"><a xlink:href="../../dd/db5/classPHG4GDMLWrite.html#afe96dc9fdc7c1a0a1a96b59dc15dffa2" target="_top" xlink:title="PHG4GDMLWrite::NewAttribute">
<polygon fill="none" stroke="#000000" points="182,-39.5 182,-59.5 354,-59.5 354,-39.5 182,-39.5"/>
<text text-anchor="middle" x="268" y="-46.5" font-family="FreeSans" font-size="10.00" fill="#000000">PHG4GDMLWrite::NewAttribute</text>
</a>
</g>
</g>
<!-- Node1&#45;&gt;Node2 -->
<g id="edge1" class="edge">
<title>Node1&#45;&gt;Node2</title>
<path fill="none" stroke="#191970" d="M146.1656,-37.0042C154.5546,-37.8646 163.2003,-38.7513 171.8321,-39.6366"/>
<polygon fill="#191970" stroke="#191970" points="171.6375,-43.1349 181.9425,-40.6736 172.3518,-36.1715 171.6375,-43.1349"/>
</g>
<!-- Node3 -->
<g id="node3" class="node">
<title>Node3</title>
<g id="a_node3"><a xlink:href="../../dd/db5/classPHG4GDMLWrite.html#ada0a5579d406ec27f3150711ab83becc" target="_top" xlink:title="PHG4GDMLWrite::NewElement">
<polygon fill="none" stroke="#000000" points="182.5,-.5 182.5,-20.5 353.5,-20.5 353.5,-.5 182.5,-.5"/>
<text text-anchor="middle" x="268" y="-7.5" font-family="FreeSans" font-size="10.00" fill="#000000">PHG4GDMLWrite::NewElement</text>
</a>
</g>
</g>
<!-- Node1&#45;&gt;Node3 -->
<g id="edge2" class="edge">
<title>Node1&#45;&gt;Node3</title>
<path fill="none" stroke="#191970" d="M146.1656,-22.371C154.6322,-21.5461 163.3604,-20.6957 172.0719,-19.8468"/>
<polygon fill="#191970" stroke="#191970" points="172.6606,-23.3062 182.274,-18.8528 171.9817,-16.3391 172.6606,-23.3062"/>
</g>
</g>
</svg>
