<?xml version="1.0" encoding="UTF-8" standalone="no"?>
<!DOCTYPE svg PUBLIC "-//W3C//DTD SVG 1.1//EN"
 "http://www.w3.org/Graphics/SVG/1.1/DTD/svg11.dtd">
<!-- Generated by graphviz version 2.40.1 (20161225.0304)
 -->
<!-- Title: boost::array::size Pages: 1 -->
<svg width="1151pt" height="254pt"
 viewBox="0.00 0.00 1151.00 254.31" xmlns="http://www.w3.org/2000/svg" xmlns:xlink="http://www.w3.org/1999/xlink">
<g id="graph0" class="graph" transform="scale(1 1) rotate(0) translate(4 250.3084)">
<title>boost::array::size</title>
<!-- Node1 -->
<g id="node1" class="node">
<title>Node1</title>
<polygon fill="#bfbfbf" stroke="#000000" points="0,-139.5 0,-159.5 103,-159.5 103,-139.5 0,-139.5"/>
<text text-anchor="middle" x="51.5" y="-146.5" font-family="FreeSans" font-size="10.00" fill="#000000">boost::array::size</text>
</g>
<!-- Node2 -->
<g id="node2" class="node">
<title>Node2</title>
<g id="a_node2"><a xlink:href="../../d1/d96/classboost_1_1array.html#a4dd92c3399a847641733637356b0c972" target="_top" xlink:title="boost::array::fill">
<polygon fill="none" stroke="#000000" points="163,-162.5 163,-182.5 258,-182.5 258,-162.5 163,-162.5"/>
<text text-anchor="middle" x="210.5" y="-169.5" font-family="FreeSans" font-size="10.00" fill="#000000">boost::array::fill</text>
</a>
</g>
</g>
<!-- Node1&#45;&gt;Node2 -->
<g id="edge1" class="edge">
<title>Node1&#45;&gt;Node2</title>
<path fill="none" stroke="#191970" d="M113.2284,-158.4293C129.7258,-160.8157 147.2992,-163.3577 162.9058,-165.6153"/>
<polygon fill="#191970" stroke="#191970" points="113.5208,-154.9352 103.1227,-156.9674 112.5186,-161.8631 113.5208,-154.9352"/>
</g>
<!-- Node5 -->
<g id="node5" class="node">
<title>Node5</title>
<g id="a_node5"><a xlink:href="../../d1/d96/classboost_1_1array.html#a1655c9d6521634ef0faae2fe907db5b3" target="_top" xlink:title="boost::array::rangecheck">
<polygon fill="none" stroke="#000000" points="139,-120.5 139,-140.5 282,-140.5 282,-120.5 139,-120.5"/>
<text text-anchor="middle" x="210.5" y="-127.5" font-family="FreeSans" font-size="10.00" fill="#000000">boost::array::rangecheck</text>
</a>
</g>
</g>
<!-- Node1&#45;&gt;Node5 -->
<g id="edge4" class="edge">
<title>Node1&#45;&gt;Node5</title>
<path fill="none" stroke="#191970" d="M113.224,-142.1242C121.6414,-141.1183 130.3391,-140.079 138.9127,-139.0545"/>
<polygon fill="#191970" stroke="#191970" points="112.6368,-138.6694 103.1227,-143.3312 113.4674,-145.6199 112.6368,-138.6694"/>
</g>
<!-- Node3 -->
<g id="node3" class="node">
<title>Node3</title>
<g id="a_node3"><a xlink:href="../../d1/d96/classboost_1_1array.html#a3df5174212f1ec0dbe3e01a685ad77e2" target="_top" xlink:title="boost::array::assign">
<polygon fill="none" stroke="#000000" points="318,-207.5 318,-227.5 434,-227.5 434,-207.5 318,-207.5"/>
<text text-anchor="middle" x="376" y="-214.5" font-family="FreeSans" font-size="10.00" fill="#000000">boost::array::assign</text>
</a>
</g>
</g>
<!-- Node2&#45;&gt;Node3 -->
<g id="edge2" class="edge">
<title>Node2&#45;&gt;Node3</title>
<path fill="none" stroke="#191970" d="M257.5884,-185.3035C283.4041,-192.3229 314.9459,-200.8992 338.9825,-207.4348"/>
<polygon fill="#191970" stroke="#191970" points="258.2094,-181.8453 247.6414,-182.5989 256.3727,-188.6001 258.2094,-181.8453"/>
</g>
<!-- Node4 -->
<g id="node4" class="node">
<title>Node4</title>
<g id="a_node4"><a xlink:href="../../d4/d6a/classboost_1_1array_3_01T_00_010_01_4.html#a9960e06c3fe3469719723a55e8cc2cbe" target="_top" xlink:title="boost::array\&lt; T, 0\l \&gt;::assign">
<polygon fill="none" stroke="#000000" points="322,-156.5 322,-188.5 430,-188.5 430,-156.5 322,-156.5"/>
<text text-anchor="start" x="330" y="-175.5" font-family="FreeSans" font-size="10.00" fill="#000000">boost::array&lt; T, 0</text>
<text text-anchor="middle" x="376" y="-163.5" font-family="FreeSans" font-size="10.00" fill="#000000"> &gt;::assign</text>
</a>
</g>
</g>
<!-- Node2&#45;&gt;Node4 -->
<g id="edge3" class="edge">
<title>Node2&#45;&gt;Node4</title>
<path fill="none" stroke="#191970" d="M268.3814,-172.5C285.7464,-172.5 304.7222,-172.5 321.8377,-172.5"/>
<polygon fill="#191970" stroke="#191970" points="268.3695,-169.0001 258.3695,-172.5 268.3694,-176.0001 268.3695,-169.0001"/>
</g>
<!-- Node6 -->
<g id="node6" class="node">
<title>Node6</title>
<g id="a_node6"><a xlink:href="../../d1/d96/classboost_1_1array.html#ab1d1b3cebca2a48519d249809c6963e5" target="_top" xlink:title="boost::array::at">
<polygon fill="none" stroke="#000000" points="329,-117.5 329,-137.5 423,-137.5 423,-117.5 329,-117.5"/>
<text text-anchor="middle" x="376" y="-124.5" font-family="FreeSans" font-size="10.00" fill="#000000">boost::array::at</text>
</a>
</g>
</g>
<!-- Node5&#45;&gt;Node6 -->
<g id="edge5" class="edge">
<title>Node5&#45;&gt;Node6</title>
<path fill="none" stroke="#191970" d="M292.13,-129.0203C304.6378,-128.7936 317.1797,-128.5662 328.6124,-128.359"/>
<polygon fill="#191970" stroke="#191970" points="292.063,-125.5208 282.1282,-129.2016 292.19,-132.5197 292.063,-125.5208"/>
</g>
<!-- Node7 -->
<g id="node7" class="node">
<title>Node7</title>
<g id="a_node7"><a xlink:href="../../d6/dcf/pythia6425mod_8f.html#a1420c8865333d41abeeecac9eb84d5ad" target="_top" xlink:title="pyapps">
<polygon fill="none" stroke="#000000" points="648,-214.5 648,-234.5 701,-234.5 701,-214.5 648,-214.5"/>
<text text-anchor="middle" x="674.5" y="-221.5" font-family="FreeSans" font-size="10.00" fill="#000000">pyapps</text>
</a>
</g>
</g>
<!-- Node6&#45;&gt;Node7 -->
<g id="edge6" class="edge">
<title>Node6&#45;&gt;Node7</title>
<path fill="none" stroke="#191970" d="M427.6307,-142.6252C429.8855,-144.1028 432.0256,-145.7232 434,-147.5 462.0814,-172.7704 438.1283,-204.218 470,-224.5 524.9636,-259.4768 606.2034,-244.3111 647.8098,-232.9158"/>
<polygon fill="#191970" stroke="#191970" points="428.9245,-139.3431 418.4732,-137.6049 425.5594,-145.4812 428.9245,-139.3431"/>
</g>
<!-- Node13 -->
<g id="node13" class="node">
<title>Node13</title>
<g id="a_node13"><a xlink:href="../../d6/dcf/pythia6425mod_8f.html#a2b64fdfa9f23edaf0725fc21687a97f1" target="_top" xlink:title="pygfxx">
<polygon fill="none" stroke="#000000" points="470,-194.5 470,-214.5 521,-214.5 521,-194.5 470,-194.5"/>
<text text-anchor="middle" x="495.5" y="-201.5" font-family="FreeSans" font-size="10.00" fill="#000000">pygfxx</text>
</a>
</g>
</g>
<!-- Node6&#45;&gt;Node13 -->
<g id="edge12" class="edge">
<title>Node6&#45;&gt;Node13</title>
<path fill="none" stroke="#191970" d="M421.8973,-141.2923C426.0968,-143.1552 430.1967,-145.2215 434,-147.5 439.7446,-150.9415 469.0023,-178.8821 485.0054,-194.3265"/>
<polygon fill="#191970" stroke="#191970" points="423.2039,-138.0453 412.6213,-137.5357 420.5763,-144.5335 423.2039,-138.0453"/>
</g>
<!-- Node15 -->
<g id="node15" class="node">
<title>Node15</title>
<g id="a_node15"><a xlink:href="../../d6/dcf/pythia6425mod_8f.html#a6b22add9875061c72765412e8677c643" target="_top" xlink:title="pypole">
<polygon fill="none" stroke="#000000" points="649.5,-156.5 649.5,-176.5 699.5,-176.5 699.5,-156.5 649.5,-156.5"/>
<text text-anchor="middle" x="674.5" y="-163.5" font-family="FreeSans" font-size="10.00" fill="#000000">pypole</text>
</a>
</g>
</g>
<!-- Node6&#45;&gt;Node15 -->
<g id="edge20" class="edge">
<title>Node6&#45;&gt;Node15</title>
<path fill="none" stroke="#191970" d="M433.3034,-136.2789C445.4128,-138.0655 458.1208,-139.8895 470,-141.5 534.5073,-150.2452 610.6541,-159.1916 649.2865,-163.633"/>
<polygon fill="#191970" stroke="#191970" points="433.7096,-132.8009 423.3036,-134.7924 432.6803,-139.7248 433.7096,-132.8009"/>
</g>
<!-- Node16 -->
<g id="node16" class="node">
<title>Node16</title>
<g id="a_node16"><a xlink:href="../../d6/dcf/pythia6425mod_8f.html#a2f18cde517352a5c3f7bc2ee36b024f6" target="_top" xlink:title="pyhggm">
<polygon fill="none" stroke="#000000" points="737,-117.5 737,-137.5 795,-137.5 795,-117.5 737,-117.5"/>
<text text-anchor="middle" x="766" y="-124.5" font-family="FreeSans" font-size="10.00" fill="#000000">pyhggm</text>
</a>
</g>
</g>
<!-- Node6&#45;&gt;Node16 -->
<g id="edge17" class="edge">
<title>Node6&#45;&gt;Node16</title>
<path fill="none" stroke="#191970" d="M433.2159,-127.5C517.5399,-127.5 672.1486,-127.5 736.5892,-127.5"/>
<polygon fill="#191970" stroke="#191970" points="433.0431,-124.0001 423.0431,-127.5 433.0431,-131.0001 433.0431,-124.0001"/>
</g>
<!-- Node17 -->
<g id="node17" class="node">
<title>Node17</title>
<g id="a_node17"><a xlink:href="../../d6/dcf/pythia6425mod_8f.html#aa7bdd8484862c65022c351660e12f59f" target="_top" xlink:title="pyinom">
<polygon fill="none" stroke="#000000" points="557.5,-78.5 557.5,-98.5 611.5,-98.5 611.5,-78.5 557.5,-78.5"/>
<text text-anchor="middle" x="584.5" y="-85.5" font-family="FreeSans" font-size="10.00" fill="#000000">pyinom</text>
</a>
</g>
</g>
<!-- Node6&#45;&gt;Node17 -->
<g id="edge18" class="edge">
<title>Node6&#45;&gt;Node17</title>
<path fill="none" stroke="#191970" d="M433.0628,-116.8264C473.5395,-109.2552 526.0448,-99.4341 557.4014,-93.5688"/>
<polygon fill="#191970" stroke="#191970" points="432.2374,-113.42 423.0514,-118.699 433.5245,-120.3006 432.2374,-113.42"/>
</g>
<!-- Node18 -->
<g id="node18" class="node">
<title>Node18</title>
<g id="a_node18"><a xlink:href="../../d6/dcf/pythia6425mod_8f.html#a900077d4b755202f49fd8971336b5721" target="_top" xlink:title="pysfdc">
<polygon fill="none" stroke="#000000" points="471,-40.5 471,-60.5 520,-60.5 520,-40.5 471,-40.5"/>
<text text-anchor="middle" x="495.5" y="-47.5" font-family="FreeSans" font-size="10.00" fill="#000000">pysfdc</text>
</a>
</g>
</g>
<!-- Node6&#45;&gt;Node18 -->
<g id="edge21" class="edge">
<title>Node6&#45;&gt;Node18</title>
<path fill="none" stroke="#191970" d="M400.1012,-111.9704C423.8903,-96.6418 459.564,-73.6554 479.8736,-60.5689"/>
<polygon fill="#191970" stroke="#191970" points="398.1328,-109.075 391.6225,-117.4336 401.9244,-114.9592 398.1328,-109.075"/>
</g>
<!-- Node19 -->
<g id="node19" class="node">
<title>Node19</title>
<g id="a_node19"><a xlink:href="../../d6/dcf/pythia6425mod_8f.html#a704cb09d423c8653c6bdd905afbaa35f" target="_top" xlink:title="pytecm">
<polygon fill="none" stroke="#000000" points="557.5,-.5 557.5,-20.5 611.5,-20.5 611.5,-.5 557.5,-.5"/>
<text text-anchor="middle" x="584.5" y="-7.5" font-family="FreeSans" font-size="10.00" fill="#000000">pytecm</text>
</a>
</g>
</g>
<!-- Node6&#45;&gt;Node19 -->
<g id="edge23" class="edge">
<title>Node6&#45;&gt;Node19</title>
<path fill="none" stroke="#191970" d="M388.3782,-108.8791C404.3901,-86.4091 434.4821,-49.3089 470,-30.5 497.2849,-16.051 532.8544,-11.7292 557.0599,-10.5905"/>
<polygon fill="#191970" stroke="#191970" points="385.3992,-107.0334 382.5845,-117.2475 391.1544,-111.018 385.3992,-107.0334"/>
</g>
<!-- Node8 -->
<g id="node8" class="node">
<title>Node8</title>
<g id="a_node8"><a xlink:href="../../d6/dcf/pythia6425mod_8f.html#a27a2354cb3c8dc0f2fd65bc366f1cad9" target="_top" xlink:title="pymsin">
<polygon fill="none" stroke="#000000" points="831,-78.5 831,-98.5 884,-98.5 884,-78.5 831,-78.5"/>
<text text-anchor="middle" x="857.5" y="-85.5" font-family="FreeSans" font-size="10.00" fill="#000000">pymsin</text>
</a>
</g>
</g>
<!-- Node7&#45;&gt;Node8 -->
<g id="edge7" class="edge">
<title>Node7&#45;&gt;Node8</title>
<path fill="none" stroke="#191970" d="M701.7171,-209.105C726.8011,-194.4594 764.6273,-171.1993 795,-147.5 814.9991,-131.895 835.9981,-110.9976 847.8498,-98.7183"/>
<polygon fill="#191970" stroke="#191970" points="699.674,-206.2433 692.7693,-214.2792 703.1783,-212.3031 699.674,-206.2433"/>
</g>
<!-- Node9 -->
<g id="node9" class="node">
<title>Node9</title>
<g id="a_node9"><a xlink:href="../../d6/dcf/pythia6425mod_8f.html#aac00ac3ccd923c2c3dc37e2b89a9f025" target="_top" xlink:title="pyinit">
<polygon fill="none" stroke="#000000" points="920,-39.5 920,-59.5 965,-59.5 965,-39.5 920,-39.5"/>
<text text-anchor="middle" x="942.5" y="-46.5" font-family="FreeSans" font-size="10.00" fill="#000000">pyinit</text>
</a>
</g>
</g>
<!-- Node8&#45;&gt;Node9 -->
<g id="edge8" class="edge">
<title>Node8&#45;&gt;Node9</title>
<path fill="none" stroke="#191970" d="M888.7625,-74.156C899.3673,-69.2903 910.9778,-63.9631 920.6846,-59.5094"/>
<polygon fill="#191970" stroke="#191970" points="887.019,-71.1051 879.3896,-78.4565 889.9382,-77.4674 887.019,-71.1051"/>
</g>
<!-- Node10 -->
<g id="node10" class="node">
<title>Node10</title>
<g id="a_node10"><a xlink:href="../../d3/dd5/jewel-2_82_80_8f.html#a2cba90a4cdaaf1d5de1cf1bfe9afaa2e" target="_top" xlink:title="initpythia">
<polygon fill="none" stroke="#000000" points="1001,-59.5 1001,-79.5 1064,-79.5 1064,-59.5 1001,-59.5"/>
<text text-anchor="middle" x="1032.5" y="-66.5" font-family="FreeSans" font-size="10.00" fill="#000000">initpythia</text>
</a>
</g>
</g>
<!-- Node9&#45;&gt;Node10 -->
<g id="edge9" class="edge">
<title>Node9&#45;&gt;Node10</title>
<path fill="none" stroke="#191970" d="M975.093,-56.7429C983.5233,-58.6163 992.5837,-60.6297 1000.9592,-62.4909"/>
<polygon fill="#191970" stroke="#191970" points="975.732,-53.2996 965.2108,-54.5468 974.2134,-60.1329 975.732,-53.2996"/>
</g>
<!-- Node12 -->
<g id="node12" class="node">
<title>Node12</title>
<g id="a_node12"><a xlink:href="../../d6/dcf/pythia6425mod_8f.html#a4cc0e611278607d6b413b5cecdfe16c3" target="_top" xlink:title="pytest">
<polygon fill="none" stroke="#000000" points="1008.5,-20.5 1008.5,-40.5 1056.5,-40.5 1056.5,-20.5 1008.5,-20.5"/>
<text text-anchor="middle" x="1032.5" y="-27.5" font-family="FreeSans" font-size="10.00" fill="#000000">pytest</text>
</a>
</g>
</g>
<!-- Node9&#45;&gt;Node12 -->
<g id="edge11" class="edge">
<title>Node9&#45;&gt;Node12</title>
<path fill="none" stroke="#191970" d="M975.248,-42.5865C986.145,-40.2861 998.0795,-37.7665 1008.2188,-35.626"/>
<polygon fill="#191970" stroke="#191970" points="974.2722,-39.2153 965.2108,-44.7055 975.7181,-46.0644 974.2722,-39.2153"/>
</g>
<!-- Node11 -->
<g id="node11" class="node">
<title>Node11</title>
<g id="a_node11"><a xlink:href="../../d3/dd5/jewel-2_82_80_8f.html#a15e2df3184692bfe4ca2261638190094" target="_top" xlink:title="jewel">
<polygon fill="none" stroke="#000000" points="1100,-59.5 1100,-79.5 1143,-79.5 1143,-59.5 1100,-59.5"/>
<text text-anchor="middle" x="1121.5" y="-66.5" font-family="FreeSans" font-size="10.00" fill="#000000">jewel</text>
</a>
</g>
</g>
<!-- Node10&#45;&gt;Node11 -->
<g id="edge10" class="edge">
<title>Node10&#45;&gt;Node11</title>
<path fill="none" stroke="#191970" d="M1074.3078,-69.5C1083.1046,-69.5 1092.0422,-69.5 1099.7388,-69.5"/>
<polygon fill="#191970" stroke="#191970" points="1074.1287,-66.0001 1064.1287,-69.5 1074.1286,-73.0001 1074.1287,-66.0001"/>
</g>
<!-- Node14 -->
<g id="node14" class="node">
<title>Node14</title>
<g id="a_node14"><a xlink:href="../../d6/dcf/pythia6425mod_8f.html#a623bc0a2928b826db2adab2e3c046236" target="_top" xlink:title="pyrghm">
<polygon fill="none" stroke="#000000" points="557,-194.5 557,-214.5 612,-214.5 612,-194.5 557,-194.5"/>
<text text-anchor="middle" x="584.5" y="-201.5" font-family="FreeSans" font-size="10.00" fill="#000000">pyrghm</text>
</a>
</g>
</g>
<!-- Node13&#45;&gt;Node14 -->
<g id="edge13" class="edge">
<title>Node13&#45;&gt;Node14</title>
<path fill="none" stroke="#191970" d="M531.3446,-204.5C539.879,-204.5 548.8552,-204.5 556.9512,-204.5"/>
<polygon fill="#191970" stroke="#191970" points="531.2425,-201.0001 521.2425,-204.5 531.2425,-208.0001 531.2425,-201.0001"/>
</g>
<!-- Node14&#45;&gt;Node15 -->
<g id="edge14" class="edge">
<title>Node14&#45;&gt;Node15</title>
<path fill="none" stroke="#191970" d="M617.8571,-190.4159C628.7354,-185.8228 640.5886,-180.8182 650.6272,-176.5796"/>
<polygon fill="#191970" stroke="#191970" points="616.4694,-187.2025 608.6183,-194.3167 619.1923,-193.6513 616.4694,-187.2025"/>
</g>
<!-- Node15&#45;&gt;Node16 -->
<g id="edge15" class="edge">
<title>Node15&#45;&gt;Node16</title>
<path fill="none" stroke="#191970" d="M707.4556,-152.4533C719.0579,-147.5081 731.8541,-142.054 742.5163,-137.5094"/>
<polygon fill="#191970" stroke="#191970" points="705.8904,-149.3158 698.0635,-156.4565 708.6351,-155.7552 705.8904,-149.3158"/>
</g>
<!-- Node16&#45;&gt;Node8 -->
<g id="edge16" class="edge">
<title>Node16&#45;&gt;Node8</title>
<path fill="none" stroke="#191970" d="M798.9556,-113.4533C810.5579,-108.5081 823.3541,-103.054 834.0163,-98.5094"/>
<polygon fill="#191970" stroke="#191970" points="797.3904,-110.3158 789.5635,-117.4565 800.1351,-116.7552 797.3904,-110.3158"/>
</g>
<!-- Node17&#45;&gt;Node8 -->
<g id="edge19" class="edge">
<title>Node17&#45;&gt;Node8</title>
<path fill="none" stroke="#191970" d="M621.86,-88.5C677.7911,-88.5 781.9345,-88.5 830.8382,-88.5"/>
<polygon fill="#191970" stroke="#191970" points="621.6744,-85.0001 611.6744,-88.5 621.6743,-92.0001 621.6744,-85.0001"/>
</g>
<!-- Node18&#45;&gt;Node8 -->
<g id="edge22" class="edge">
<title>Node18&#45;&gt;Node8</title>
<path fill="none" stroke="#191970" d="M530.4559,-54.1694C602.6033,-61.7429 766.6188,-78.96 830.9266,-85.7105"/>
<polygon fill="#191970" stroke="#191970" points="530.4079,-50.6452 520.0971,-53.082 529.6771,-57.607 530.4079,-50.6452"/>
</g>
<!-- Node20 -->
<g id="node20" class="node">
<title>Node20</title>
<g id="a_node20"><a xlink:href="../../d6/dcf/pythia6425mod_8f.html#aa9cb6f1467302508501201a0e38959d1" target="_top" xlink:title="pymaxi">
<polygon fill="none" stroke="#000000" points="739.5,-.5 739.5,-20.5 792.5,-20.5 792.5,-.5 739.5,-.5"/>
<text text-anchor="middle" x="766" y="-7.5" font-family="FreeSans" font-size="10.00" fill="#000000">pymaxi</text>
</a>
</g>
</g>
<!-- Node19&#45;&gt;Node20 -->
<g id="edge24" class="edge">
<title>Node19&#45;&gt;Node20</title>
<path fill="none" stroke="#191970" d="M621.9572,-10.5C656.9184,-10.5 708.2226,-10.5 739.2343,-10.5"/>
<polygon fill="#191970" stroke="#191970" points="621.6724,-7.0001 611.6724,-10.5 621.6723,-14.0001 621.6724,-7.0001"/>
</g>
<!-- Node20&#45;&gt;Node9 -->
<g id="edge25" class="edge">
<title>Node20&#45;&gt;Node9</title>
<path fill="none" stroke="#191970" d="M802.7356,-18.6172C838.0662,-26.424 890.3465,-37.976 919.9332,-44.5136"/>
<polygon fill="#191970" stroke="#191970" points="803.3262,-15.1634 792.8066,-16.4233 801.8158,-21.9985 803.3262,-15.1634"/>
</g>
</g>
</svg>
