<?xml version="1.0" encoding="UTF-8" standalone="no"?>
<!DOCTYPE svg PUBLIC "-//W3C//DTD SVG 1.1//EN"
 "http://www.w3.org/Graphics/SVG/1.1/DTD/svg11.dtd">
<!-- Generated by graphviz version 2.40.1 (20161225.0304)
 -->
<!-- Title: coresoftware/blob/master/simulation/g4simulation/g4main/PHG4PhenixTrackingAction.h Pages: 1 -->
<svg width="267pt" height="110pt"
 viewBox="0.00 0.00 266.50 110.00" xmlns="http://www.w3.org/2000/svg" xmlns:xlink="http://www.w3.org/1999/xlink">
<g id="graph0" class="graph" transform="scale(1 1) rotate(0) translate(4 106)">
<title>coresoftware/blob/master/simulation/g4simulation/g4main/PHG4PhenixTrackingAction.h</title>
<!-- Node1 -->
<g id="node1" class="node">
<title>Node1</title>
<polygon fill="#bfbfbf" stroke="#000000" points="51.5,-57.5 51.5,-101.5 258.5,-101.5 258.5,-57.5 51.5,-57.5"/>
<text text-anchor="start" x="59.5" y="-88.5" font-family="FreeSans" font-size="10.00" fill="#000000">coresoftware/blob/master</text>
<text text-anchor="start" x="59.5" y="-76.5" font-family="FreeSans" font-size="10.00" fill="#000000">/simulation/g4simulation</text>
<text text-anchor="middle" x="155" y="-64.5" font-family="FreeSans" font-size="10.00" fill="#000000">/g4main/PHG4PhenixTrackingAction.h</text>
</g>
<!-- Node2 -->
<g id="node2" class="node">
<title>Node2</title>
<polygon fill="none" stroke="#bfbfbf" points="0,-.5 0,-20.5 184,-20.5 184,-.5 0,-.5"/>
<text text-anchor="middle" x="92" y="-7.5" font-family="FreeSans" font-size="10.00" fill="#000000">Geant4/G4UserTrackingAction.hh</text>
</g>
<!-- Node1&#45;&gt;Node2 -->
<g id="edge1" class="edge">
<title>Node1&#45;&gt;Node2</title>
<path fill="none" stroke="#191970" d="M134.7196,-57.2882C126.1272,-47.8774 116.2535,-37.0634 108.1645,-28.204"/>
<polygon fill="#191970" stroke="#191970" points="110.653,-25.7386 101.3255,-20.7137 105.4835,-30.4585 110.653,-25.7386"/>
</g>
<!-- Node3 -->
<g id="node3" class="node">
<title>Node3</title>
<polygon fill="none" stroke="#bfbfbf" points="202,-.5 202,-20.5 234,-20.5 234,-.5 202,-.5"/>
<text text-anchor="middle" x="218" y="-7.5" font-family="FreeSans" font-size="10.00" fill="#000000">list</text>
</g>
<!-- Node1&#45;&gt;Node3 -->
<g id="edge2" class="edge">
<title>Node1&#45;&gt;Node3</title>
<path fill="none" stroke="#191970" d="M175.2804,-57.2882C183.8728,-47.8774 193.7465,-37.0634 201.8355,-28.204"/>
<polygon fill="#191970" stroke="#191970" points="204.5165,-30.4585 208.6745,-20.7137 199.347,-25.7386 204.5165,-30.4585"/>
</g>
</g>
</svg>
