<?xml version="1.0" encoding="UTF-8" standalone="no"?>
<!DOCTYPE svg PUBLIC "-//W3C//DTD SVG 1.1//EN"
 "http://www.w3.org/Graphics/SVG/1.1/DTD/svg11.dtd">
<!-- Generated by graphviz version 2.40.1 (20161225.0304)
 -->
<!-- Title: coresoftware/blob/master/simulation/g4simulation/g4main/PHG4SteppingAction.h Pages: 1 -->
<svg width="185pt" height="110pt"
 viewBox="0.00 0.00 185.00 110.00" xmlns="http://www.w3.org/2000/svg" xmlns:xlink="http://www.w3.org/1999/xlink">
<g id="graph0" class="graph" transform="scale(1 1) rotate(0) translate(4 106)">
<title>coresoftware/blob/master/simulation/g4simulation/g4main/PHG4SteppingAction.h</title>
<!-- Node1 -->
<g id="node1" class="node">
<title>Node1</title>
<polygon fill="#bfbfbf" stroke="#000000" points="0,-57.5 0,-101.5 177,-101.5 177,-57.5 0,-57.5"/>
<text text-anchor="start" x="8" y="-88.5" font-family="FreeSans" font-size="10.00" fill="#000000">coresoftware/blob/master</text>
<text text-anchor="start" x="8" y="-76.5" font-family="FreeSans" font-size="10.00" fill="#000000">/simulation/g4simulation</text>
<text text-anchor="middle" x="88.5" y="-64.5" font-family="FreeSans" font-size="10.00" fill="#000000">/g4main/PHG4SteppingAction.h</text>
</g>
<!-- Node2 -->
<g id="node2" class="node">
<title>Node2</title>
<polygon fill="none" stroke="#bfbfbf" points="44.5,-.5 44.5,-20.5 76.5,-20.5 76.5,-.5 44.5,-.5"/>
<text text-anchor="middle" x="60.5" y="-7.5" font-family="FreeSans" font-size="10.00" fill="#000000">set</text>
</g>
<!-- Node1&#45;&gt;Node2 -->
<g id="edge1" class="edge">
<title>Node1&#45;&gt;Node2</title>
<path fill="none" stroke="#191970" d="M79.4865,-57.2882C75.9404,-48.5496 71.9033,-38.6011 68.4663,-30.1311"/>
<polygon fill="#191970" stroke="#191970" points="71.6481,-28.6637 64.6447,-20.7137 65.1618,-31.2959 71.6481,-28.6637"/>
</g>
<!-- Node3 -->
<g id="node3" class="node">
<title>Node3</title>
<polygon fill="none" stroke="#bfbfbf" points="95,-.5 95,-20.5 140,-20.5 140,-.5 95,-.5"/>
<text text-anchor="middle" x="117.5" y="-7.5" font-family="FreeSans" font-size="10.00" fill="#000000">string</text>
</g>
<!-- Node1&#45;&gt;Node3 -->
<g id="edge2" class="edge">
<title>Node1&#45;&gt;Node3</title>
<path fill="none" stroke="#191970" d="M97.8354,-57.2882C101.5082,-48.5496 105.6894,-38.6011 109.2492,-30.1311"/>
<polygon fill="#191970" stroke="#191970" points="112.5592,-31.2887 113.2073,-20.7137 106.106,-28.5764 112.5592,-31.2887"/>
</g>
</g>
</svg>
