<?xml version="1.0" encoding="UTF-8" standalone="no"?>
<!DOCTYPE svg PUBLIC "-//W3C//DTD SVG 1.1//EN"
 "http://www.w3.org/Graphics/SVG/1.1/DTD/svg11.dtd">
<!-- Generated by graphviz version 2.40.1 (20161225.0304)
 -->
<!-- Title: coresoftware/blob/master/simulation/g4simulation/g4detectors/PHG4ForwardCalCellReco.h Pages: 1 -->
<svg width="1022pt" height="296pt"
 viewBox="0.00 0.00 1021.50 296.00" xmlns="http://www.w3.org/2000/svg" xmlns:xlink="http://www.w3.org/1999/xlink">
<g id="graph0" class="graph" transform="scale(1 1) rotate(0) translate(4 292)">
<title>coresoftware/blob/master/simulation/g4simulation/g4detectors/PHG4ForwardCalCellReco.h</title>
<!-- Node1 -->
<g id="node1" class="node">
<title>Node1</title>
<polygon fill="#bfbfbf" stroke="#000000" points="349,-243.5 349,-287.5 571,-287.5 571,-243.5 349,-243.5"/>
<text text-anchor="start" x="357" y="-274.5" font-family="FreeSans" font-size="10.00" fill="#000000">coresoftware/blob/master</text>
<text text-anchor="start" x="357" y="-262.5" font-family="FreeSans" font-size="10.00" fill="#000000">/simulation/g4simulation</text>
<text text-anchor="middle" x="460" y="-250.5" font-family="FreeSans" font-size="10.00" fill="#000000">/g4detectors/PHG4ForwardCalCellReco.h</text>
</g>
<!-- Node2 -->
<g id="node2" class="node">
<title>Node2</title>
<g id="a_node2"><a xlink:href="../../d8/dc1/PHG4ForwardCalCellReco_8cc.html" target="_top" xlink:title="coresoftware/blob/master\l/simulation/g4simulation\l/g4detectors/PHG4ForwardCalCellReco.cc">
<polygon fill="none" stroke="#000000" points="0,-162.5 0,-206.5 226,-206.5 226,-162.5 0,-162.5"/>
<text text-anchor="start" x="8" y="-193.5" font-family="FreeSans" font-size="10.00" fill="#000000">coresoftware/blob/master</text>
<text text-anchor="start" x="8" y="-181.5" font-family="FreeSans" font-size="10.00" fill="#000000">/simulation/g4simulation</text>
<text text-anchor="middle" x="113" y="-169.5" font-family="FreeSans" font-size="10.00" fill="#000000">/g4detectors/PHG4ForwardCalCellReco.cc</text>
</a>
</g>
</g>
<!-- Node1&#45;&gt;Node2 -->
<g id="edge1" class="edge">
<title>Node1&#45;&gt;Node2</title>
<path fill="none" stroke="#191970" d="M355.7072,-241.155C308.5539,-230.148 253.2436,-217.237 207.3421,-206.5222"/>
<polygon fill="#191970" stroke="#191970" points="355.1052,-244.6085 365.6391,-243.4734 356.6965,-237.7918 355.1052,-244.6085"/>
</g>
<!-- Node3 -->
<g id="node3" class="node">
<title>Node3</title>
<g id="a_node3"><a xlink:href="../../dc/d00/macros_2blob_2master_2macros_2g4simulations_2G4__FEMC__EIC_8C.html" target="_top" xlink:title="macros/blob/master\l/macros/g4simulations\l/G4_FEMC_EIC.C">
<polygon fill="none" stroke="#000000" points="244,-162.5 244,-206.5 376,-206.5 376,-162.5 244,-162.5"/>
<text text-anchor="start" x="252" y="-193.5" font-family="FreeSans" font-size="10.00" fill="#000000">macros/blob/master</text>
<text text-anchor="start" x="252" y="-181.5" font-family="FreeSans" font-size="10.00" fill="#000000">/macros/g4simulations</text>
<text text-anchor="middle" x="310" y="-169.5" font-family="FreeSans" font-size="10.00" fill="#000000">/G4_FEMC_EIC.C</text>
</a>
</g>
</g>
<!-- Node1&#45;&gt;Node3 -->
<g id="edge2" class="edge">
<title>Node1&#45;&gt;Node3</title>
<path fill="none" stroke="#191970" d="M410.0972,-238.5525C390.8915,-228.1814 369.2039,-216.4701 350.9386,-206.6068"/>
<polygon fill="#191970" stroke="#191970" points="408.5497,-241.6945 419.0118,-243.3664 411.8758,-235.5352 408.5497,-241.6945"/>
</g>
<!-- Node6 -->
<g id="node6" class="node">
<title>Node6</title>
<g id="a_node6"><a xlink:href="../../d9/d50/macros_2blob_2master_2macros_2g4simulations_2G4__FHCAL_8C.html" target="_top" xlink:title="macros/blob/master\l/macros/g4simulations\l/G4_FHCAL.C">
<polygon fill="none" stroke="#000000" points="544,-162.5 544,-206.5 676,-206.5 676,-162.5 544,-162.5"/>
<text text-anchor="start" x="552" y="-193.5" font-family="FreeSans" font-size="10.00" fill="#000000">macros/blob/master</text>
<text text-anchor="start" x="552" y="-181.5" font-family="FreeSans" font-size="10.00" fill="#000000">/macros/g4simulations</text>
<text text-anchor="middle" x="610" y="-169.5" font-family="FreeSans" font-size="10.00" fill="#000000">/G4_FHCAL.C</text>
</a>
</g>
</g>
<!-- Node1&#45;&gt;Node6 -->
<g id="edge5" class="edge">
<title>Node1&#45;&gt;Node6</title>
<path fill="none" stroke="#191970" d="M509.9028,-238.5525C529.1085,-228.1814 550.7961,-216.4701 569.0614,-206.6068"/>
<polygon fill="#191970" stroke="#191970" points="508.1242,-235.5352 500.9882,-243.3664 511.4503,-241.6945 508.1242,-235.5352"/>
</g>
<!-- Node9 -->
<g id="node9" class="node">
<title>Node9</title>
<g id="a_node9"><a xlink:href="../../d1/d81/macros_2blob_2master_2macros_2g4simulations_2G4__EEMC_8C.html" target="_top" xlink:title="macros/blob/master\l/macros/g4simulations\l/G4_EEMC.C">
<polygon fill="none" stroke="#000000" points="394,-162.5 394,-206.5 526,-206.5 526,-162.5 394,-162.5"/>
<text text-anchor="start" x="402" y="-193.5" font-family="FreeSans" font-size="10.00" fill="#000000">macros/blob/master</text>
<text text-anchor="start" x="402" y="-181.5" font-family="FreeSans" font-size="10.00" fill="#000000">/macros/g4simulations</text>
<text text-anchor="middle" x="460" y="-169.5" font-family="FreeSans" font-size="10.00" fill="#000000">/G4_EEMC.C</text>
</a>
</g>
</g>
<!-- Node1&#45;&gt;Node9 -->
<g id="edge9" class="edge">
<title>Node1&#45;&gt;Node9</title>
<path fill="none" stroke="#191970" d="M460,-233.2457C460,-224.3118 460,-214.8188 460,-206.6068"/>
<polygon fill="#191970" stroke="#191970" points="456.5001,-233.3664 460,-243.3664 463.5001,-233.3664 456.5001,-233.3664"/>
</g>
<!-- Node10 -->
<g id="node10" class="node">
<title>Node10</title>
<g id="a_node10"><a xlink:href="../../d6/d5c/macros_2blob_2master_2macros_2g4simulations_2G4__FEMC_8C.html" target="_top" xlink:title="macros/blob/master\l/macros/g4simulations\l/G4_FEMC.C">
<polygon fill="none" stroke="#000000" points="694,-162.5 694,-206.5 826,-206.5 826,-162.5 694,-162.5"/>
<text text-anchor="start" x="702" y="-193.5" font-family="FreeSans" font-size="10.00" fill="#000000">macros/blob/master</text>
<text text-anchor="start" x="702" y="-181.5" font-family="FreeSans" font-size="10.00" fill="#000000">/macros/g4simulations</text>
<text text-anchor="middle" x="760" y="-169.5" font-family="FreeSans" font-size="10.00" fill="#000000">/G4_FEMC.C</text>
</a>
</g>
</g>
<!-- Node1&#45;&gt;Node10 -->
<g id="edge11" class="edge">
<title>Node1&#45;&gt;Node10</title>
<path fill="none" stroke="#191970" d="M557.7413,-240.9284C597.3356,-230.7558 643.4361,-218.6336 685,-207 687.88,-206.1939 690.8189,-205.3602 693.7854,-204.5095"/>
<polygon fill="#191970" stroke="#191970" points="556.6395,-237.5976 547.8218,-243.4712 558.3777,-244.3783 556.6395,-237.5976"/>
</g>
<!-- Node4 -->
<g id="node4" class="node">
<title>Node4</title>
<g id="a_node4"><a xlink:href="../../d2/dfe/macros_2blob_2master_2macros_2g4simulations_2G4Setup__EICDetector_8C.html" target="_top" xlink:title="macros/blob/master\l/macros/g4simulations\l/G4Setup_EICDetector.C">
<polygon fill="none" stroke="#000000" points="385.5,-81.5 385.5,-125.5 524.5,-125.5 524.5,-81.5 385.5,-81.5"/>
<text text-anchor="start" x="393.5" y="-112.5" font-family="FreeSans" font-size="10.00" fill="#000000">macros/blob/master</text>
<text text-anchor="start" x="393.5" y="-100.5" font-family="FreeSans" font-size="10.00" fill="#000000">/macros/g4simulations</text>
<text text-anchor="middle" x="455" y="-88.5" font-family="FreeSans" font-size="10.00" fill="#000000">/G4Setup_EICDetector.C</text>
</a>
</g>
</g>
<!-- Node3&#45;&gt;Node4 -->
<g id="edge3" class="edge">
<title>Node3&#45;&gt;Node4</title>
<path fill="none" stroke="#191970" d="M358.4916,-157.4116C376.9946,-147.0754 397.8494,-135.4255 415.426,-125.6068"/>
<polygon fill="#191970" stroke="#191970" points="356.6452,-154.4339 349.6219,-162.3664 360.059,-160.545 356.6452,-154.4339"/>
</g>
<!-- Node5 -->
<g id="node5" class="node">
<title>Node5</title>
<g id="a_node5"><a xlink:href="../../da/d02/Fun4All__G4__EICDetector_8C.html" target="_top" xlink:title="macros/blob/master\l/macros/g4simulations\l/Fun4All_G4_EICDetector.C">
<polygon fill="none" stroke="#000000" points="374,-.5 374,-44.5 526,-44.5 526,-.5 374,-.5"/>
<text text-anchor="start" x="382" y="-31.5" font-family="FreeSans" font-size="10.00" fill="#000000">macros/blob/master</text>
<text text-anchor="start" x="382" y="-19.5" font-family="FreeSans" font-size="10.00" fill="#000000">/macros/g4simulations</text>
<text text-anchor="middle" x="450" y="-7.5" font-family="FreeSans" font-size="10.00" fill="#000000">/Fun4All_G4_EICDetector.C</text>
</a>
</g>
</g>
<!-- Node4&#45;&gt;Node5 -->
<g id="edge4" class="edge">
<title>Node4&#45;&gt;Node5</title>
<path fill="none" stroke="#191970" d="M453.009,-71.2457C452.4575,-62.3118 451.8715,-52.8188 451.3646,-44.6068"/>
<polygon fill="#191970" stroke="#191970" points="449.5242,-71.6011 453.6337,-81.3664 456.5109,-71.1697 449.5242,-71.6011"/>
</g>
<!-- Node6&#45;&gt;Node4 -->
<g id="edge6" class="edge">
<title>Node6&#45;&gt;Node4</title>
<path fill="none" stroke="#191970" d="M558.703,-157.6932C538.7907,-147.2874 516.2628,-135.5148 497.3032,-125.6068"/>
<polygon fill="#191970" stroke="#191970" points="557.1617,-160.8368 567.6456,-162.3664 560.4038,-154.6328 557.1617,-160.8368"/>
</g>
<!-- Node7 -->
<g id="node7" class="node">
<title>Node7</title>
<g id="a_node7"><a xlink:href="../../da/d21/macros_2blob_2master_2macros_2g4simulations_2G4Setup__fsPHENIX_8C.html" target="_top" xlink:title="macros/blob/master\l/macros/g4simulations\l/G4Setup_fsPHENIX.C">
<polygon fill="none" stroke="#000000" points="548,-81.5 548,-125.5 680,-125.5 680,-81.5 548,-81.5"/>
<text text-anchor="start" x="556" y="-112.5" font-family="FreeSans" font-size="10.00" fill="#000000">macros/blob/master</text>
<text text-anchor="start" x="556" y="-100.5" font-family="FreeSans" font-size="10.00" fill="#000000">/macros/g4simulations</text>
<text text-anchor="middle" x="614" y="-88.5" font-family="FreeSans" font-size="10.00" fill="#000000">/G4Setup_fsPHENIX.C</text>
</a>
</g>
</g>
<!-- Node6&#45;&gt;Node7 -->
<g id="edge7" class="edge">
<title>Node6&#45;&gt;Node7</title>
<path fill="none" stroke="#191970" d="M611.5928,-152.2457C612.034,-143.3118 612.5028,-133.8188 612.9083,-125.6068"/>
<polygon fill="#191970" stroke="#191970" points="608.0906,-152.2059 611.093,-162.3664 615.0821,-152.5512 608.0906,-152.2059"/>
</g>
<!-- Node8 -->
<g id="node8" class="node">
<title>Node8</title>
<g id="a_node8"><a xlink:href="../../d7/d9e/Fun4All__G4__fsPHENIX_8C.html" target="_top" xlink:title="macros/blob/master\l/macros/g4simulations\l/Fun4All_G4_fsPHENIX.C">
<polygon fill="none" stroke="#000000" points="544.5,-.5 544.5,-44.5 683.5,-44.5 683.5,-.5 544.5,-.5"/>
<text text-anchor="start" x="552.5" y="-31.5" font-family="FreeSans" font-size="10.00" fill="#000000">macros/blob/master</text>
<text text-anchor="start" x="552.5" y="-19.5" font-family="FreeSans" font-size="10.00" fill="#000000">/macros/g4simulations</text>
<text text-anchor="middle" x="614" y="-7.5" font-family="FreeSans" font-size="10.00" fill="#000000">/Fun4All_G4_fsPHENIX.C</text>
</a>
</g>
</g>
<!-- Node7&#45;&gt;Node8 -->
<g id="edge8" class="edge">
<title>Node7&#45;&gt;Node8</title>
<path fill="none" stroke="#191970" d="M614,-71.2457C614,-62.3118 614,-52.8188 614,-44.6068"/>
<polygon fill="#191970" stroke="#191970" points="610.5001,-71.3664 614,-81.3664 617.5001,-71.3664 610.5001,-71.3664"/>
</g>
<!-- Node9&#45;&gt;Node4 -->
<g id="edge10" class="edge">
<title>Node9&#45;&gt;Node4</title>
<path fill="none" stroke="#191970" d="M458.009,-152.2457C457.4575,-143.3118 456.8715,-133.8188 456.3646,-125.6068"/>
<polygon fill="#191970" stroke="#191970" points="454.5242,-152.6011 458.6337,-162.3664 461.5109,-152.1697 454.5242,-152.6011"/>
</g>
<!-- Node10&#45;&gt;Node7 -->
<g id="edge12" class="edge">
<title>Node10&#45;&gt;Node7</title>
<path fill="none" stroke="#191970" d="M711.174,-157.4116C692.5434,-147.0754 671.5447,-135.4255 653.8469,-125.6068"/>
<polygon fill="#191970" stroke="#191970" points="709.6625,-160.5755 720.1049,-162.3664 713.0584,-154.4545 709.6625,-160.5755"/>
</g>
<!-- Node11 -->
<g id="node11" class="node">
<title>Node11</title>
<g id="a_node11"><a xlink:href="../../d0/d67/macros_2blob_2master_2macros_2g4simulations_2G4Setup__sPHENIX_8C.html" target="_top" xlink:title="macros/blob/master\l/macros/g4simulations\l/G4Setup_sPHENIX.C">
<polygon fill="none" stroke="#000000" points="703,-81.5 703,-125.5 835,-125.5 835,-81.5 703,-81.5"/>
<text text-anchor="start" x="711" y="-112.5" font-family="FreeSans" font-size="10.00" fill="#000000">macros/blob/master</text>
<text text-anchor="start" x="711" y="-100.5" font-family="FreeSans" font-size="10.00" fill="#000000">/macros/g4simulations</text>
<text text-anchor="middle" x="769" y="-88.5" font-family="FreeSans" font-size="10.00" fill="#000000">/G4Setup_sPHENIX.C</text>
</a>
</g>
</g>
<!-- Node10&#45;&gt;Node11 -->
<g id="edge13" class="edge">
<title>Node10&#45;&gt;Node11</title>
<path fill="none" stroke="#191970" d="M763.5838,-152.2457C764.5765,-143.3118 765.6312,-133.8188 766.5437,-125.6068"/>
<polygon fill="#191970" stroke="#191970" points="760.0851,-152.041 762.4593,-162.3664 767.0423,-152.8141 760.0851,-152.041"/>
</g>
<!-- Node12 -->
<g id="node12" class="node">
<title>Node12</title>
<g id="a_node12"><a xlink:href="../../d5/d2c/macros_2blob_2master_2macros_2g4simulations_2Fun4All__G4__sPHENIX_8C.html" target="_top" xlink:title="macros/blob/master\l/macros/g4simulations\l/Fun4All_G4_sPHENIX.C">
<polygon fill="none" stroke="#000000" points="701.5,-.5 701.5,-44.5 836.5,-44.5 836.5,-.5 701.5,-.5"/>
<text text-anchor="start" x="709.5" y="-31.5" font-family="FreeSans" font-size="10.00" fill="#000000">macros/blob/master</text>
<text text-anchor="start" x="709.5" y="-19.5" font-family="FreeSans" font-size="10.00" fill="#000000">/macros/g4simulations</text>
<text text-anchor="middle" x="769" y="-7.5" font-family="FreeSans" font-size="10.00" fill="#000000">/Fun4All_G4_sPHENIX.C</text>
</a>
</g>
</g>
<!-- Node11&#45;&gt;Node12 -->
<g id="edge14" class="edge">
<title>Node11&#45;&gt;Node12</title>
<path fill="none" stroke="#191970" d="M769,-71.2457C769,-62.3118 769,-52.8188 769,-44.6068"/>
<polygon fill="#191970" stroke="#191970" points="765.5001,-71.3664 769,-81.3664 772.5001,-71.3664 765.5001,-71.3664"/>
</g>
<!-- Node13 -->
<g id="node13" class="node">
<title>Node13</title>
<g id="a_node13"><a xlink:href="../../de/da9/ReadClustersRunTracking_8C.html" target="_top" xlink:title="macros/blob/master\l/macros/g4simulations\l/ReadClustersRunTracking.C">
<polygon fill="none" stroke="#000000" points="854.5,-.5 854.5,-44.5 1013.5,-44.5 1013.5,-.5 854.5,-.5"/>
<text text-anchor="start" x="862.5" y="-31.5" font-family="FreeSans" font-size="10.00" fill="#000000">macros/blob/master</text>
<text text-anchor="start" x="862.5" y="-19.5" font-family="FreeSans" font-size="10.00" fill="#000000">/macros/g4simulations</text>
<text text-anchor="middle" x="934" y="-7.5" font-family="FreeSans" font-size="10.00" fill="#000000">/ReadClustersRunTracking.C</text>
</a>
</g>
</g>
<!-- Node11&#45;&gt;Node13 -->
<g id="edge15" class="edge">
<title>Node11&#45;&gt;Node13</title>
<path fill="none" stroke="#191970" d="M823.3202,-76.8337C844.5873,-66.3935 868.6938,-54.5594 888.9675,-44.6068"/>
<polygon fill="#191970" stroke="#191970" points="821.5213,-73.8178 814.087,-81.3664 824.606,-80.1014 821.5213,-73.8178"/>
</g>
</g>
</svg>
