<?xml version="1.0" encoding="UTF-8" standalone="no"?>
<!DOCTYPE svg PUBLIC "-//W3C//DTD SVG 1.1//EN"
 "http://www.w3.org/Graphics/SVG/1.1/DTD/svg11.dtd">
<!-- Generated by graphviz version 2.40.1 (20161225.0304)
 -->
<!-- Title: Fun4AllPrdfInputManager Pages: 1 -->
<svg width="1794pt" height="512pt"
 viewBox="0.00 0.00 1794.00 511.50" xmlns="http://www.w3.org/2000/svg" xmlns:xlink="http://www.w3.org/1999/xlink">
<g id="graph0" class="graph" transform="scale(1 1) rotate(0) translate(4 507.5)">
<title>Fun4AllPrdfInputManager</title>
<!-- Node1 -->
<g id="node1" class="node">
<title>Node1</title>
<polygon fill="#bfbfbf" stroke="#000000" points="1392,-169.5 1392,-189.5 1536,-189.5 1536,-169.5 1392,-169.5"/>
<text text-anchor="middle" x="1464" y="-176.5" font-family="FreeSans" font-size="10.00" fill="#000000">Fun4AllPrdfInputManager</text>
</g>
<!-- Node2 -->
<g id="node2" class="node">
<title>Node2</title>
<g id="a_node2"><a xlink:href="../../d4/da9/classFun4AllInputManager.html" target="_top" xlink:title="Fun4AllInputManager">
<polygon fill="none" stroke="#000000" points="1144,-356.5 1144,-376.5 1269,-376.5 1269,-356.5 1144,-356.5"/>
<text text-anchor="middle" x="1206.5" y="-363.5" font-family="FreeSans" font-size="10.00" fill="#000000">Fun4AllInputManager</text>
</a>
</g>
</g>
<!-- Node2&#45;&gt;Node1 -->
<g id="edge1" class="edge">
<title>Node2&#45;&gt;Node1</title>
<path fill="none" stroke="#191970" d="M1226.6628,-349.8098C1242.5695,-336.9951 1265.573,-319.2282 1287,-305.5 1323.4979,-282.1159 1337.3761,-284.1952 1373,-259.5 1404.8098,-237.4488 1437.9038,-205.7681 1454.0029,-189.692"/>
<polygon fill="#191970" stroke="#191970" points="1224.158,-347.3357 1218.611,-356.3625 1228.5764,-352.765 1224.158,-347.3357"/>
</g>
<!-- Node9 -->
<g id="node9" class="node">
<title>Node9</title>
<polygon fill="none" stroke="#bfbfbf" points="1391,-350.5 1391,-382.5 1537,-382.5 1537,-350.5 1391,-350.5"/>
<text text-anchor="start" x="1399" y="-369.5" font-family="FreeSans" font-size="10.00" fill="#000000">std::vector&lt; Fun4AllInput</text>
<text text-anchor="middle" x="1464" y="-357.5" font-family="FreeSans" font-size="10.00" fill="#000000">Manager * &gt;</text>
</g>
<!-- Node2&#45;&gt;Node9 -->
<g id="edge12" class="edge">
<title>Node2&#45;&gt;Node9</title>
<path fill="none" stroke="#9a32cd" stroke-dasharray="5,2" d="M1279.2989,-366.5C1314.2467,-366.5 1356.0227,-366.5 1390.997,-366.5"/>
<polygon fill="#9a32cd" stroke="#9a32cd" points="1279.1623,-363.0001 1269.1623,-366.5 1279.1623,-370.0001 1279.1623,-363.0001"/>
<text text-anchor="middle" x="1330" y="-369.5" font-family="FreeSans" font-size="10.00" fill="#000000"> elements</text>
</g>
<!-- Node3 -->
<g id="node3" class="node">
<title>Node3</title>
<g id="a_node3"><a xlink:href="../../d5/dec/classFun4AllBase.html" target="_top" xlink:title="Fun4AllBase">
<polygon fill="none" stroke="#000000" points="317,-435.5 317,-455.5 395,-455.5 395,-435.5 317,-435.5"/>
<text text-anchor="middle" x="356" y="-442.5" font-family="FreeSans" font-size="10.00" fill="#000000">Fun4AllBase</text>
</a>
</g>
</g>
<!-- Node3&#45;&gt;Node2 -->
<g id="edge2" class="edge">
<title>Node3&#45;&gt;Node2</title>
<path fill="none" stroke="#191970" d="M405.2314,-443.6286C527.6587,-438.5075 855.4939,-421.9285 1126,-382.5 1137.1391,-380.8764 1149.0693,-378.7312 1160.2415,-376.5409"/>
<polygon fill="#191970" stroke="#191970" points="404.9042,-440.139 395.0567,-444.0474 405.1922,-447.1331 404.9042,-440.139"/>
</g>
<!-- Node7 -->
<g id="node7" class="node">
<title>Node7</title>
<g id="a_node7"><a xlink:href="../../d0/d32/classSubsysReco.html" target="_top" xlink:title="SubsysReco">
<polygon fill="none" stroke="#000000" points="592.5,-454.5 592.5,-474.5 668.5,-474.5 668.5,-454.5 592.5,-454.5"/>
<text text-anchor="middle" x="630.5" y="-461.5" font-family="FreeSans" font-size="10.00" fill="#000000">SubsysReco</text>
</a>
</g>
</g>
<!-- Node3&#45;&gt;Node7 -->
<g id="edge7" class="edge">
<title>Node3&#45;&gt;Node7</title>
<path fill="none" stroke="#191970" d="M405.3428,-448.9153C459.0337,-452.6317 543.7122,-458.4928 592.4801,-461.8684"/>
<polygon fill="#191970" stroke="#191970" points="405.2555,-445.401 395.0376,-448.2021 404.7721,-452.3843 405.2555,-445.401"/>
</g>
<!-- Node8 -->
<g id="node8" class="node">
<title>Node8</title>
<g id="a_node8"><a xlink:href="../../dd/ded/classFun4AllSyncManager.html" target="_top" xlink:title="Fun4AllSyncManager">
<polygon fill="none" stroke="#000000" points="1663,-309.5 1663,-329.5 1786,-329.5 1786,-309.5 1663,-309.5"/>
<text text-anchor="middle" x="1724.5" y="-316.5" font-family="FreeSans" font-size="10.00" fill="#000000">Fun4AllSyncManager</text>
</a>
</g>
</g>
<!-- Node3&#45;&gt;Node8 -->
<g id="edge10" class="edge">
<title>Node3&#45;&gt;Node8</title>
<path fill="none" stroke="#191970" d="M388.2835,-459.2751C396.2574,-462.3102 404.8514,-465.2782 413,-467.5 507.531,-493.2748 532.5181,-503.5 630.5,-503.5 630.5,-503.5 630.5,-503.5 1464,-503.5 1585.5366,-503.5 1690.1693,-368.2283 1717.5353,-329.6547"/>
<polygon fill="#191970" stroke="#191970" points="389.5228,-456.0015 378.9362,-455.5853 386.9526,-462.5126 389.5228,-456.0015"/>
</g>
<!-- Node4 -->
<g id="node4" class="node">
<title>Node4</title>
<g id="a_node4"><a xlink:title="STL class.">
<polygon fill="none" stroke="#bfbfbf" points="144,-313.5 144,-333.5 211,-333.5 211,-313.5 144,-313.5"/>
<text text-anchor="middle" x="177.5" y="-320.5" font-family="FreeSans" font-size="10.00" fill="#000000">std::string</text>
</a>
</g>
</g>
<!-- Node4&#45;&gt;Node1 -->
<g id="edge21" class="edge">
<title>Node4&#45;&gt;Node1</title>
<path fill="none" stroke="#9a32cd" stroke-dasharray="5,2" d="M185.4933,-304.0689C193.8514,-286.0015 208.6049,-259.5314 229,-243.5 275.9641,-206.5843 296.264,-199.5 356,-199.5 356,-199.5 356,-199.5 1206.5,-199.5 1269.2753,-199.5 1340.4012,-193.5186 1391.9699,-188.0979"/>
<polygon fill="#9a32cd" stroke="#9a32cd" points="182.2304,-302.7944 181.4146,-313.3578 188.6398,-305.6087 182.2304,-302.7944"/>
<text text-anchor="middle" x="768.5" y="-202.5" font-family="FreeSans" font-size="10.00" fill="#000000"> m_PrdfNodeName</text>
</g>
<!-- Node4&#45;&gt;Node2 -->
<g id="edge8" class="edge">
<title>Node4&#45;&gt;Node2</title>
<path fill="none" stroke="#9a32cd" stroke-dasharray="5,2" d="M221.2535,-323.5C257.3898,-323.5 310.0253,-323.5 356,-323.5 356,-323.5 356,-323.5 914.5,-323.5 1004.4282,-323.5 1108.289,-343.7089 1164.7155,-356.4184"/>
<polygon fill="#9a32cd" stroke="#9a32cd" points="221.0568,-320.0001 211.0568,-323.5 221.0567,-327.0001 221.0568,-320.0001"/>
<text text-anchor="middle" x="630.5" y="-350.5" font-family="FreeSans" font-size="10.00" fill="#000000"> m_FileName</text>
<text text-anchor="middle" x="630.5" y="-338.5" font-family="FreeSans" font-size="10.00" fill="#000000">m_InputNode</text>
<text text-anchor="middle" x="630.5" y="-326.5" font-family="FreeSans" font-size="10.00" fill="#000000">m_TopNodeName</text>
</g>
<!-- Node4&#45;&gt;Node3 -->
<g id="edge3" class="edge">
<title>Node4&#45;&gt;Node3</title>
<path fill="none" stroke="#9a32cd" stroke-dasharray="5,2" d="M188.4936,-342.6818C197.7277,-357.3873 212.1039,-377.3306 229,-390.5 256.384,-411.844 293.3172,-426.6161 320.2947,-435.4349"/>
<polygon fill="#9a32cd" stroke="#9a32cd" points="191.3565,-340.6519 183.1931,-333.8983 185.3632,-344.2686 191.3565,-340.6519"/>
<text text-anchor="middle" x="264" y="-429.5" font-family="FreeSans" font-size="10.00" fill="#000000"> m_ThisName</text>
</g>
<!-- Node14 -->
<g id="node14" class="node">
<title>Node14</title>
<polygon fill="none" stroke="#bfbfbf" points="413,-370.5 413,-390.5 540,-390.5 540,-370.5 413,-370.5"/>
<text text-anchor="middle" x="476.5" y="-377.5" font-family="FreeSans" font-size="10.00" fill="#000000">std::list&lt; std::string &gt;</text>
</g>
<!-- Node4&#45;&gt;Node14 -->
<g id="edge18" class="edge">
<title>Node4&#45;&gt;Node14</title>
<path fill="none" stroke="#9a32cd" stroke-dasharray="5,2" d="M220.98,-335.6265C223.6875,-336.2864 226.377,-336.917 229,-337.5 291.0507,-351.2927 362.6715,-363.3182 412.8519,-371.118"/>
<polygon fill="#9a32cd" stroke="#9a32cd" points="221.7385,-332.2081 211.1848,-333.1412 220.0169,-338.9931 221.7385,-332.2081"/>
<text text-anchor="middle" x="264" y="-353.5" font-family="FreeSans" font-size="10.00" fill="#000000"> elements</text>
</g>
<!-- Node17 -->
<g id="node17" class="node">
<title>Node17</title>
<g id="a_node17"><a xlink:href="../../dc/d82/classPHNode.html" target="_top" xlink:title="PHNode">
<polygon fill="none" stroke="#000000" points="328,-244.5 328,-264.5 384,-264.5 384,-244.5 328,-244.5"/>
<text text-anchor="middle" x="356" y="-251.5" font-family="FreeSans" font-size="10.00" fill="#000000">PHNode</text>
</a>
</g>
</g>
<!-- Node4&#45;&gt;Node17 -->
<g id="edge25" class="edge">
<title>Node4&#45;&gt;Node17</title>
<path fill="none" stroke="#9a32cd" stroke-dasharray="5,2" d="M187.4485,-304.5765C196.2461,-289.9895 210.5449,-270.7901 229,-261.5 260.0653,-245.8621 300.9769,-246.8165 327.8606,-249.8661"/>
<polygon fill="#9a32cd" stroke="#9a32cd" points="184.3638,-302.921 182.4734,-313.3458 190.4522,-306.3752 184.3638,-302.921"/>
<text text-anchor="middle" x="264" y="-300.5" font-family="FreeSans" font-size="10.00" fill="#000000"> objecttype</text>
<text text-anchor="middle" x="264" y="-288.5" font-family="FreeSans" font-size="10.00" fill="#000000">objectclass</text>
<text text-anchor="middle" x="264" y="-276.5" font-family="FreeSans" font-size="10.00" fill="#000000">type</text>
<text text-anchor="middle" x="264" y="-264.5" font-family="FreeSans" font-size="10.00" fill="#000000">name</text>
</g>
<!-- Node5 -->
<g id="node5" class="node">
<title>Node5</title>
<g id="a_node5"><a xlink:title="STL class.">
<polygon fill="none" stroke="#bfbfbf" points="0,-307.5 0,-339.5 107,-339.5 107,-307.5 0,-307.5"/>
<text text-anchor="start" x="8" y="-326.5" font-family="FreeSans" font-size="10.00" fill="#000000">std::basic_string&lt;</text>
<text text-anchor="middle" x="53.5" y="-314.5" font-family="FreeSans" font-size="10.00" fill="#000000"> char &gt;</text>
</a>
</g>
</g>
<!-- Node5&#45;&gt;Node4 -->
<g id="edge4" class="edge">
<title>Node5&#45;&gt;Node4</title>
<path fill="none" stroke="#191970" d="M117.4289,-323.5C126.5342,-323.5 135.584,-323.5 143.7918,-323.5"/>
<polygon fill="#191970" stroke="#191970" points="117.167,-320.0001 107.167,-323.5 117.167,-327.0001 117.167,-320.0001"/>
</g>
<!-- Node6 -->
<g id="node6" class="node">
<title>Node6</title>
<polygon fill="none" stroke="#bfbfbf" points="834,-454.5 834,-474.5 995,-474.5 995,-454.5 834,-454.5"/>
<text text-anchor="middle" x="914.5" y="-461.5" font-family="FreeSans" font-size="10.00" fill="#000000">std::vector&lt; SubsysReco * &gt;</text>
</g>
<!-- Node6&#45;&gt;Node2 -->
<g id="edge5" class="edge">
<title>Node6&#45;&gt;Node2</title>
<path fill="none" stroke="#9a32cd" stroke-dasharray="5,2" d="M1005.4041,-465.8772C1044.0467,-463.44 1088.6977,-456.4776 1126,-439.5 1157.939,-424.9634 1185.962,-393.0141 1198.8991,-376.6287"/>
<polygon fill="#9a32cd" stroke="#9a32cd" points="1004.9956,-462.394 995.198,-466.426 1005.3716,-469.3839 1004.9956,-462.394"/>
<text text-anchor="middle" x="1069.5" y="-467.5" font-family="FreeSans" font-size="10.00" fill="#000000"> m_SubsystemsVector</text>
</g>
<!-- Node7&#45;&gt;Node6 -->
<g id="edge6" class="edge">
<title>Node7&#45;&gt;Node6</title>
<path fill="none" stroke="#9a32cd" stroke-dasharray="5,2" d="M678.5774,-464.5C721.0398,-464.5 783.8181,-464.5 833.9422,-464.5"/>
<polygon fill="#9a32cd" stroke="#9a32cd" points="678.5069,-461.0001 668.5068,-464.5 678.5068,-468.0001 678.5069,-461.0001"/>
<text text-anchor="middle" x="768.5" y="-467.5" font-family="FreeSans" font-size="10.00" fill="#000000"> elements</text>
</g>
<!-- Node8&#45;&gt;Node2 -->
<g id="edge9" class="edge">
<title>Node8&#45;&gt;Node2</title>
<path fill="none" stroke="#9a32cd" stroke-dasharray="5,2" d="M1652.6788,-318.1823C1584.9694,-317.76 1480.773,-319.2262 1391,-329.5 1340.6914,-335.2574 1283.6671,-347.6069 1246.5021,-356.4552"/>
<polygon fill="#9a32cd" stroke="#9a32cd" points="1652.784,-321.6831 1662.811,-318.2613 1652.8386,-314.6833 1652.784,-321.6831"/>
<text text-anchor="middle" x="1464" y="-332.5" font-family="FreeSans" font-size="10.00" fill="#000000"> m_MySyncManager</text>
</g>
<!-- Node9&#45;&gt;Node8 -->
<g id="edge11" class="edge">
<title>Node9&#45;&gt;Node8</title>
<path fill="none" stroke="#9a32cd" stroke-dasharray="5,2" d="M1547.1937,-351.49C1586.8917,-344.3276 1633.3273,-335.9496 1668.7174,-329.5644"/>
<polygon fill="#9a32cd" stroke="#9a32cd" points="1546.4766,-348.0628 1537.257,-353.2828 1547.7196,-354.9516 1546.4766,-348.0628"/>
<text text-anchor="middle" x="1600" y="-352.5" font-family="FreeSans" font-size="10.00" fill="#000000"> m_InManager</text>
</g>
<!-- Node10 -->
<g id="node10" class="node">
<title>Node10</title>
<g id="a_node10"><a xlink:href="../../de/dbb/classSyncObject.html" target="_top" xlink:title="SyncObject">
<polygon fill="none" stroke="#000000" points="1169.5,-59.5 1169.5,-79.5 1243.5,-79.5 1243.5,-59.5 1169.5,-59.5"/>
<text text-anchor="middle" x="1206.5" y="-66.5" font-family="FreeSans" font-size="10.00" fill="#000000">SyncObject</text>
</a>
</g>
</g>
<!-- Node10&#45;&gt;Node1 -->
<g id="edge19" class="edge">
<title>Node10&#45;&gt;Node1</title>
<path fill="none" stroke="#9a32cd" stroke-dasharray="5,2" d="M1253.9021,-75.9C1288.2044,-81.769 1335.0136,-92.3796 1373,-110.5 1405.5687,-126.0361 1437.8231,-154.3566 1453.7488,-169.4313"/>
<polygon fill="#9a32cd" stroke="#9a32cd" points="1254.1156,-72.3885 1243.6817,-74.2278 1252.9853,-79.2966 1254.1156,-72.3885"/>
<text text-anchor="middle" x="1330" y="-113.5" font-family="FreeSans" font-size="10.00" fill="#000000"> m_SyncObject</text>
</g>
<!-- Node10&#45;&gt;Node8 -->
<g id="edge13" class="edge">
<title>Node10&#45;&gt;Node8</title>
<path fill="none" stroke="#9a32cd" stroke-dasharray="5,2" d="M1253.7463,-68.1272C1287.4134,-68.1642 1333.5134,-70.2912 1373,-79.5 1450.0109,-97.46 1470.3747,-105.9054 1537,-148.5 1614.579,-198.0975 1690.4584,-280.6864 1715.7054,-309.3402"/>
<polygon fill="#9a32cd" stroke="#9a32cd" points="1253.7004,-64.6273 1243.7181,-68.1773 1253.7355,-71.6272 1253.7004,-64.6273"/>
<text text-anchor="middle" x="1464" y="-151.5" font-family="FreeSans" font-size="10.00" fill="#000000"> m_MasterSync</text>
</g>
<!-- Node11 -->
<g id="node11" class="node">
<title>Node11</title>
<g id="a_node11"><a xlink:href="../../d9/d24/classPHObject.html" target="_top" xlink:title="PHObject">
<polygon fill="none" stroke="#000000" points="883,-59.5 883,-79.5 946,-79.5 946,-59.5 883,-59.5"/>
<text text-anchor="middle" x="914.5" y="-66.5" font-family="FreeSans" font-size="10.00" fill="#000000">PHObject</text>
</a>
</g>
</g>
<!-- Node11&#45;&gt;Node10 -->
<g id="edge14" class="edge">
<title>Node11&#45;&gt;Node10</title>
<path fill="none" stroke="#191970" d="M956.1265,-69.5C1013.1009,-69.5 1114.5148,-69.5 1169.1564,-69.5"/>
<polygon fill="#191970" stroke="#191970" points="956.0266,-66.0001 946.0266,-69.5 956.0265,-73.0001 956.0266,-66.0001"/>
</g>
<!-- Node12 -->
<g id="node12" class="node">
<title>Node12</title>
<polygon fill="none" stroke="#bfbfbf" points="602,-59.5 602,-79.5 659,-79.5 659,-59.5 602,-59.5"/>
<text text-anchor="middle" x="630.5" y="-66.5" font-family="FreeSans" font-size="10.00" fill="#000000">TObject</text>
</g>
<!-- Node12&#45;&gt;Node11 -->
<g id="edge15" class="edge">
<title>Node12&#45;&gt;Node11</title>
<path fill="none" stroke="#191970" d="M669.035,-69.5C725.7363,-69.5 830.5763,-69.5 882.9728,-69.5"/>
<polygon fill="#191970" stroke="#191970" points="669.0314,-66.0001 659.0313,-69.5 669.0313,-73.0001 669.0314,-66.0001"/>
</g>
<!-- Node13 -->
<g id="node13" class="node">
<title>Node13</title>
<polygon fill="none" stroke="#bfbfbf" points="1411,-.5 1411,-20.5 1517,-20.5 1517,-.5 1411,-.5"/>
<text text-anchor="middle" x="1464" y="-7.5" font-family="FreeSans" font-size="10.00" fill="#000000">std::vector&lt; int &gt;</text>
</g>
<!-- Node13&#45;&gt;Node8 -->
<g id="edge16" class="edge">
<title>Node13&#45;&gt;Node8</title>
<path fill="none" stroke="#9a32cd" stroke-dasharray="5,2" d="M1527.3801,-1.4103C1565.6981,.4508 1613.1362,-4.1961 1645,-31.5 1689.2124,-69.3854 1717.0196,-262.3088 1723.1934,-309.2125"/>
<polygon fill="#9a32cd" stroke="#9a32cd" points="1527.0993,2.079 1517.3437,-2.0537 1527.5471,-4.9067 1527.0993,2.079"/>
<text text-anchor="middle" x="1600" y="-34.5" font-family="FreeSans" font-size="10.00" fill="#000000"> m_iretInManager</text>
</g>
<!-- Node14&#45;&gt;Node2 -->
<g id="edge17" class="edge">
<title>Node14&#45;&gt;Node2</title>
<path fill="none" stroke="#9a32cd" stroke-dasharray="5,2" d="M550.1763,-378.9567C598.7025,-377.9492 663.6358,-376.6182 721,-375.5 872.716,-372.5425 1051.1052,-369.2945 1143.6523,-367.6267"/>
<polygon fill="#9a32cd" stroke="#9a32cd" points="550.0041,-375.4594 540.079,-379.1665 550.1496,-382.4579 550.0041,-375.4594"/>
<text text-anchor="middle" x="768.5" y="-402.5" font-family="FreeSans" font-size="10.00" fill="#000000"> m_FileListOpened</text>
<text text-anchor="middle" x="768.5" y="-390.5" font-family="FreeSans" font-size="10.00" fill="#000000">m_FileListCopy</text>
<text text-anchor="middle" x="768.5" y="-378.5" font-family="FreeSans" font-size="10.00" fill="#000000">m_FileList</text>
</g>
<!-- Node15 -->
<g id="node15" class="node">
<title>Node15</title>
<g id="a_node15"><a xlink:href="../../d5/da5/classEvent.html" target="_top" xlink:title="Event">
<polygon fill="none" stroke="#000000" points="1183.5,-150.5 1183.5,-170.5 1229.5,-170.5 1229.5,-150.5 1183.5,-150.5"/>
<text text-anchor="middle" x="1206.5" y="-157.5" font-family="FreeSans" font-size="10.00" fill="#000000">Event</text>
</a>
</g>
</g>
<!-- Node15&#45;&gt;Node1 -->
<g id="edge20" class="edge">
<title>Node15&#45;&gt;Node1</title>
<path fill="none" stroke="#9a32cd" stroke-dasharray="5,2" d="M1239.9486,-158.8494C1273.6391,-157.6214 1327.0652,-156.8613 1373,-161.5 1389.1834,-163.1343 1406.7617,-166.2808 1422.1152,-169.4919"/>
<polygon fill="#9a32cd" stroke="#9a32cd" points="1239.59,-155.3608 1229.7381,-159.2583 1239.8701,-162.3552 1239.59,-155.3608"/>
<text text-anchor="middle" x="1330" y="-176.5" font-family="FreeSans" font-size="10.00" fill="#000000"> m_Event</text>
<text text-anchor="middle" x="1330" y="-164.5" font-family="FreeSans" font-size="10.00" fill="#000000">m_SaveEvent</text>
</g>
<!-- Node16 -->
<g id="node16" class="node">
<title>Node16</title>
<g id="a_node16"><a xlink:href="../../d5/dca/classPHCompositeNode.html" target="_top" xlink:title="PHCompositeNode">
<polygon fill="none" stroke="#000000" points="859.5,-235.5 859.5,-255.5 969.5,-255.5 969.5,-235.5 859.5,-235.5"/>
<text text-anchor="middle" x="914.5" y="-242.5" font-family="FreeSans" font-size="10.00" fill="#000000">PHCompositeNode</text>
</a>
</g>
</g>
<!-- Node16&#45;&gt;Node1 -->
<g id="edge22" class="edge">
<title>Node16&#45;&gt;Node1</title>
<path fill="none" stroke="#9a32cd" stroke-dasharray="5,2" d="M979.5786,-246.7954C1069.2116,-247.2639 1235.2158,-243.3899 1373,-213.5 1397.5581,-208.1725 1424.3562,-197.5287 1442.4676,-189.5619"/>
<polygon fill="#9a32cd" stroke="#9a32cd" points="979.5867,-243.2955 969.5616,-246.7232 979.5361,-250.2953 979.5867,-243.2955"/>
<text text-anchor="middle" x="1206.5" y="-244.5" font-family="FreeSans" font-size="10.00" fill="#000000"> m_topNode</text>
</g>
<!-- Node17&#45;&gt;Node16 -->
<g id="edge23" class="edge">
<title>Node17&#45;&gt;Node16</title>
<path fill="none" stroke="#191970" d="M394.2841,-253.8831C491.0946,-252.323 745.9916,-248.2154 859.0902,-246.3929"/>
<polygon fill="#191970" stroke="#191970" points="394.0211,-250.3868 384.0788,-254.0475 394.134,-257.3858 394.0211,-250.3868"/>
</g>
<!-- Node17&#45;&gt;Node17 -->
<g id="edge24" class="edge">
<title>Node17&#45;&gt;Node17</title>
<path fill="none" stroke="#9a32cd" stroke-dasharray="5,2" d="M339.0029,-274.4109C340.2269,-279.3307 345.8926,-283 356,-283 372.1719,-283 376.9729,-273.6067 370.4031,-264.7271"/>
<polygon fill="#9a32cd" stroke="#9a32cd" points="342.3902,-275.2922 341.5969,-264.7271 335.6286,-273.4809 342.3902,-275.2922"/>
<text text-anchor="middle" x="356" y="-286" font-family="FreeSans" font-size="10.00" fill="#000000"> parent</text>
</g>
<!-- Node18 -->
<g id="node18" class="node">
<title>Node18</title>
<g id="a_node18"><a xlink:href="../../d6/d86/classPHPointerList.html" target="_top" xlink:title="PHPointerList\&lt; PHNode \&gt;">
<polygon fill="none" stroke="#000000" points="558,-266.5 558,-286.5 703,-286.5 703,-266.5 558,-266.5"/>
<text text-anchor="middle" x="630.5" y="-273.5" font-family="FreeSans" font-size="10.00" fill="#000000">PHPointerList&lt; PHNode &gt;</text>
</a>
</g>
</g>
<!-- Node17&#45;&gt;Node18 -->
<g id="edge27" class="edge">
<title>Node17&#45;&gt;Node18</title>
<path fill="none" stroke="#9a32cd" stroke-dasharray="5,2" d="M394.2096,-257.5623C436.3939,-260.9432 505.2806,-266.4642 557.8188,-270.6749"/>
<polygon fill="#9a32cd" stroke="#9a32cd" points="394.334,-254.0612 384.0863,-256.751 393.7747,-261.0388 394.334,-254.0612"/>
<text text-anchor="middle" x="476.5" y="-271.5" font-family="FreeSans" font-size="10.00" fill="#000000"> items</text>
</g>
<!-- Node18&#45;&gt;Node16 -->
<g id="edge26" class="edge">
<title>Node18&#45;&gt;Node16</title>
<path fill="none" stroke="#9a32cd" stroke-dasharray="5,2" d="M713.4353,-267.4472C760.4413,-262.3163 817.9552,-256.0383 859.4105,-251.5133"/>
<polygon fill="#9a32cd" stroke="#9a32cd" points="712.8294,-263.9925 703.2683,-268.557 713.589,-270.9511 712.8294,-263.9925"/>
<text text-anchor="middle" x="768.5" y="-268.5" font-family="FreeSans" font-size="10.00" fill="#000000"> subNodes</text>
</g>
<!-- Node19 -->
<g id="node19" class="node">
<title>Node19</title>
<g id="a_node19"><a xlink:href="../../d0/d1f/classEventiterator.html" target="_top" xlink:title="Eventiterator">
<polygon fill="none" stroke="#000000" points="1165,-111.5 1165,-131.5 1248,-131.5 1248,-111.5 1165,-111.5"/>
<text text-anchor="middle" x="1206.5" y="-118.5" font-family="FreeSans" font-size="10.00" fill="#000000">Eventiterator</text>
</a>
</g>
</g>
<!-- Node19&#45;&gt;Node1 -->
<g id="edge28" class="edge">
<title>Node19&#45;&gt;Node1</title>
<path fill="none" stroke="#9a32cd" stroke-dasharray="5,2" d="M1258.5342,-124.0524C1291.7201,-126.5827 1335.4016,-131.5962 1373,-141.5 1398.4962,-148.216 1426.2482,-160.6031 1444.3154,-169.408"/>
<polygon fill="#9a32cd" stroke="#9a32cd" points="1258.3721,-120.5321 1248.1493,-123.315 1257.8763,-127.5146 1258.3721,-120.5321"/>
<text text-anchor="middle" x="1330" y="-144.5" font-family="FreeSans" font-size="10.00" fill="#000000"> m_EventIterator</text>
</g>
</g>
</svg>
