<?xml version="1.0" encoding="UTF-8" standalone="no"?>
<!DOCTYPE svg PUBLIC "-//W3C//DTD SVG 1.1//EN"
 "http://www.w3.org/Graphics/SVG/1.1/DTD/svg11.dtd">
<!-- Generated by graphviz version 2.40.1 (20161225.0304)
 -->
<!-- Title: HFFastSim::process_D02PiK Pages: 1 -->
<svg width="294pt" height="119pt"
 viewBox="0.00 0.00 294.00 119.00" xmlns="http://www.w3.org/2000/svg" xmlns:xlink="http://www.w3.org/1999/xlink">
<g id="graph0" class="graph" transform="scale(1 1) rotate(0) translate(4 115)">
<title>HFFastSim::process_D02PiK</title>
<!-- Node1 -->
<g id="node1" class="node">
<title>Node1</title>
<polygon fill="#bfbfbf" stroke="#000000" points="0,-33.5 0,-65.5 115,-65.5 115,-33.5 0,-33.5"/>
<text text-anchor="start" x="8" y="-52.5" font-family="FreeSans" font-size="10.00" fill="#000000">HFFastSim::process</text>
<text text-anchor="middle" x="57.5" y="-40.5" font-family="FreeSans" font-size="10.00" fill="#000000">_D02PiK</text>
</g>
<!-- Node2 -->
<g id="node2" class="node">
<title>Node2</title>
<g id="a_node2"><a xlink:href="../../dd/d96/classHFFastSim_1_1D02PiK.html#abf87681dabf7d0f38380e7b7e83cf172" target="_top" xlink:title="HFFastSim::D02PiK::\lClear">
<polygon fill="none" stroke="#000000" points="159.5,-78.5 159.5,-110.5 277.5,-110.5 277.5,-78.5 159.5,-78.5"/>
<text text-anchor="start" x="167.5" y="-97.5" font-family="FreeSans" font-size="10.00" fill="#000000">HFFastSim::D02PiK::</text>
<text text-anchor="middle" x="218.5" y="-85.5" font-family="FreeSans" font-size="10.00" fill="#000000">Clear</text>
</a>
</g>
</g>
<!-- Node1&#45;&gt;Node2 -->
<g id="edge1" class="edge">
<title>Node1&#45;&gt;Node2</title>
<path fill="none" stroke="#191970" d="M115.1699,-65.6189C126.8715,-68.8896 139.2747,-72.3563 151.2733,-75.7099"/>
<polygon fill="#191970" stroke="#191970" points="150.6596,-79.1725 161.2327,-78.4936 152.544,-72.4309 150.6596,-79.1725"/>
</g>
<!-- Node3 -->
<g id="node3" class="node">
<title>Node3</title>
<g id="a_node3"><a xlink:href="../../d0/d55/classHFFastSim.html#ac495e328bf8238a126e5f42067de3021" target="_top" xlink:title="HFFastSim::quark_trace">
<polygon fill="none" stroke="#000000" points="151,-39.5 151,-59.5 286,-59.5 286,-39.5 151,-39.5"/>
<text text-anchor="middle" x="218.5" y="-46.5" font-family="FreeSans" font-size="10.00" fill="#000000">HFFastSim::quark_trace</text>
</a>
</g>
</g>
<!-- Node1&#45;&gt;Node3 -->
<g id="edge2" class="edge">
<title>Node1&#45;&gt;Node3</title>
<path fill="none" stroke="#191970" d="M115.1699,-49.5C123.471,-49.5 132.1252,-49.5 140.7375,-49.5"/>
<polygon fill="#191970" stroke="#191970" points="140.8048,-53.0001 150.8047,-49.5 140.8047,-46.0001 140.8048,-53.0001"/>
</g>
<!-- Node4 -->
<g id="node4" class="node">
<title>Node4</title>
<g id="a_node4"><a xlink:href="../../d5/dec/classFun4AllBase.html#a8a5c77a92bdac6bc043476e132379a40" target="_top" xlink:title="Gets the verbosity of this module.">
<polygon fill="none" stroke="#000000" points="152.5,-.5 152.5,-20.5 284.5,-20.5 284.5,-.5 152.5,-.5"/>
<text text-anchor="middle" x="218.5" y="-7.5" font-family="FreeSans" font-size="10.00" fill="#000000">Fun4AllBase::Verbosity</text>
</a>
</g>
</g>
<!-- Node1&#45;&gt;Node4 -->
<g id="edge3" class="edge">
<title>Node1&#45;&gt;Node4</title>
<path fill="none" stroke="#191970" d="M115.1699,-35.5303C132.0569,-31.4396 150.405,-26.9951 166.8896,-23.0019"/>
<polygon fill="#191970" stroke="#191970" points="167.9882,-26.3371 176.8831,-20.5811 166.3402,-19.5338 167.9882,-26.3371"/>
</g>
</g>
</svg>
