<?xml version="1.0" encoding="UTF-8" standalone="no"?>
<!DOCTYPE svg PUBLIC "-//W3C//DTD SVG 1.1//EN"
 "http://www.w3.org/Graphics/SVG/1.1/DTD/svg11.dtd">
<!-- Generated by graphviz version 2.40.1 (20161225.0304)
 -->
<!-- Title: process_event Pages: 1 -->
<svg width="826pt" height="548pt"
 viewBox="0.00 0.00 826.00 547.91" xmlns="http://www.w3.org/2000/svg" xmlns:xlink="http://www.w3.org/1999/xlink">
<g id="graph0" class="graph" transform="scale(1 1) rotate(0) translate(4 543.9096)">
<title>process_event</title>
<!-- Node1 -->
<g id="node1" class="node">
<title>Node1</title>
<polygon fill="#bfbfbf" stroke="#000000" points="0,-253.5 0,-273.5 89,-273.5 89,-253.5 0,-253.5"/>
<text text-anchor="middle" x="44.5" y="-260.5" font-family="FreeSans" font-size="10.00" fill="#000000">process_event</text>
</g>
<!-- Node2 -->
<g id="node2" class="node">
<title>Node2</title>
<g id="a_node2"><a xlink:href="../../db/db8/classprdfoStream.html#aed6561059062d5cc2dce59fabf91ed9d" target="_top" xlink:title="prdfoStream::addEvent">
<polygon fill="none" stroke="#000000" points="153,-468.5 153,-488.5 288,-488.5 288,-468.5 153,-468.5"/>
<text text-anchor="middle" x="220.5" y="-475.5" font-family="FreeSans" font-size="10.00" fill="#000000">prdfoStream::addEvent</text>
</a>
</g>
</g>
<!-- Node1&#45;&gt;Node2 -->
<g id="edge1" class="edge">
<title>Node1&#45;&gt;Node2</title>
<path fill="none" stroke="#191970" d="M45.6654,-273.5561C49.8826,-305.1993 67.2835,-403.5853 125,-453.5 130.5256,-458.2787 136.8587,-462.1591 143.5772,-465.3079"/>
<polygon fill="#191970" stroke="#191970" points="142.3588,-468.5912 152.9382,-469.1639 145.025,-462.1189 142.3588,-468.5912"/>
</g>
<!-- Node3 -->
<g id="node3" class="node">
<title>Node3</title>
<g id="a_node3"><a xlink:href="../../d5/da5/classEvent.html#ac29bc493653870268773c6d08238e585" target="_top" xlink:title="Event::getRunNumber">
<polygon fill="none" stroke="#000000" points="352,-507.5 352,-527.5 481,-527.5 481,-507.5 352,-507.5"/>
<text text-anchor="middle" x="416.5" y="-514.5" font-family="FreeSans" font-size="10.00" fill="#000000">Event::getRunNumber</text>
</a>
</g>
</g>
<!-- Node1&#45;&gt;Node3 -->
<g id="edge28" class="edge">
<title>Node1&#45;&gt;Node3</title>
<path fill="none" stroke="#191970" d="M46.425,-273.5727C54.5098,-314.7511 87.0623,-469.4838 125,-498.5 194.831,-551.9093 303.7512,-541.6988 366.8029,-529.5387"/>
<polygon fill="#191970" stroke="#191970" points="367.7832,-532.9114 376.892,-527.5003 366.3969,-526.05 367.7832,-532.9114"/>
</g>
<!-- Node6 -->
<g id="node6" class="node">
<title>Node6</title>
<g id="a_node6"><a xlink:href="../../d0/dca/classAZigzag.html#aa433ba1ea84266e259a88760436bc754" target="_top" xlink:title="AZigzag::ApplyCalibration">
<polygon fill="none" stroke="#000000" points="146,-390.5 146,-410.5 295,-410.5 295,-390.5 146,-390.5"/>
<text text-anchor="middle" x="220.5" y="-397.5" font-family="FreeSans" font-size="10.00" fill="#000000">AZigzag::ApplyCalibration</text>
</a>
</g>
</g>
<!-- Node1&#45;&gt;Node6 -->
<g id="edge5" class="edge">
<title>Node1&#45;&gt;Node6</title>
<path fill="none" stroke="#191970" d="M48.2931,-273.6923C57.5085,-296.9427 83.4219,-354.006 125,-381.5 128.5692,-383.8602 132.3663,-385.9394 136.3113,-387.7702"/>
<polygon fill="#191970" stroke="#191970" points="135.1651,-391.0823 145.747,-391.6062 137.8014,-384.5977 135.1651,-391.0823"/>
</g>
<!-- Node7 -->
<g id="node7" class="node">
<title>Node7</title>
<g id="a_node7"><a xlink:href="../../d6/dfd/classgroot.html#adb961f4ed3d85b8b66d81d8c2d10aa17" target="_top" xlink:title="groot::instance">
<polygon fill="none" stroke="#000000" points="370.5,-390.5 370.5,-410.5 462.5,-410.5 462.5,-390.5 370.5,-390.5"/>
<text text-anchor="middle" x="416.5" y="-397.5" font-family="FreeSans" font-size="10.00" fill="#000000">groot::instance</text>
</a>
</g>
</g>
<!-- Node1&#45;&gt;Node7 -->
<g id="edge29" class="edge">
<title>Node1&#45;&gt;Node7</title>
<path fill="none" stroke="#191970" d="M46.0467,-273.637C51.1048,-302.7993 70.111,-386.9601 125,-420.5 197.4361,-464.7621 231.5202,-428.8243 316,-420.5 332.2658,-418.8972 349.8009,-415.8689 365.599,-412.6446"/>
<polygon fill="#191970" stroke="#191970" points="366.6387,-416.0023 375.6991,-410.5106 365.1915,-409.1535 366.6387,-416.0023"/>
</g>
<!-- Node11 -->
<g id="node11" class="node">
<title>Node11</title>
<g id="a_node11"><a xlink:href="../../d6/dfd/classgroot.html#a54bf9c3f8b1f57741fdf4ac3223cb3e1" target="_top" xlink:title="groot::ClearTheDetector">
<polygon fill="none" stroke="#000000" points="151,-234.5 151,-254.5 290,-254.5 290,-234.5 151,-234.5"/>
<text text-anchor="middle" x="220.5" y="-241.5" font-family="FreeSans" font-size="10.00" fill="#000000">groot::ClearTheDetector</text>
</a>
</g>
</g>
<!-- Node1&#45;&gt;Node11 -->
<g id="edge10" class="edge">
<title>Node1&#45;&gt;Node11</title>
<path fill="none" stroke="#191970" d="M89.3676,-258.6563C104.9474,-256.9744 122.9236,-255.0338 140.4734,-253.1392"/>
<polygon fill="#191970" stroke="#191970" points="141.1692,-256.5845 150.7358,-252.0314 140.4178,-249.625 141.1692,-256.5845"/>
</g>
<!-- Node12 -->
<g id="node12" class="node">
<title>Node12</title>
<g id="a_node12"><a xlink:href="../../d0/dca/classAZigzag.html#a77c8d10841ec1106bbc5ff003f7c5e72" target="_top" xlink:title="AZigzag::DetermineCommonMode">
<polygon fill="none" stroke="#000000" points="125,-351.5 125,-371.5 316,-371.5 316,-351.5 125,-351.5"/>
<text text-anchor="middle" x="220.5" y="-358.5" font-family="FreeSans" font-size="10.00" fill="#000000">AZigzag::DetermineCommonMode</text>
</a>
</g>
</g>
<!-- Node1&#45;&gt;Node12 -->
<g id="edge11" class="edge">
<title>Node1&#45;&gt;Node12</title>
<path fill="none" stroke="#191970" d="M51.6328,-273.6198C64.2952,-290.7566 92.453,-325.2987 125,-342.5 128.9747,-344.6006 133.1541,-346.4699 137.4529,-348.1331"/>
<polygon fill="#191970" stroke="#191970" points="136.4265,-351.4816 147.0213,-351.4551 138.7224,-344.8688 136.4265,-351.4816"/>
</g>
<!-- Node13 -->
<g id="node13" class="node">
<title>Node13</title>
<g id="a_node13"><a xlink:href="../../da/d55/TPCRateLayered_8m.html#ac40e4ec8f2a74a2878f06670249eebb8" target="_top" xlink:title="double">
<polygon fill="none" stroke="#000000" points="195,-195.5 195,-215.5 246,-215.5 246,-195.5 195,-195.5"/>
<text text-anchor="middle" x="220.5" y="-202.5" font-family="FreeSans" font-size="10.00" fill="#000000">double</text>
</a>
</g>
</g>
<!-- Node1&#45;&gt;Node13 -->
<g id="edge13" class="edge">
<title>Node1&#45;&gt;Node13</title>
<path fill="none" stroke="#191970" d="M62.5358,-253.481C78.5257,-244.9681 102.7294,-232.9728 125,-225.5 144.422,-218.983 166.8067,-214.16 185.0204,-210.8848"/>
<polygon fill="#191970" stroke="#191970" points="185.674,-214.3239 194.9358,-209.179 184.4871,-207.4252 185.674,-214.3239"/>
</g>
<!-- Node14 -->
<g id="node14" class="node">
<title>Node14</title>
<g id="a_node14"><a xlink:href="../../d5/d3b/FillBlobHist_8C.html#a26548624f22bd096e77e5f8148480429" target="_top" xlink:title="FillBlobHist">
<polygon fill="none" stroke="#000000" points="184,-312.5 184,-332.5 257,-332.5 257,-312.5 184,-312.5"/>
<text text-anchor="middle" x="220.5" y="-319.5" font-family="FreeSans" font-size="10.00" fill="#000000">FillBlobHist</text>
</a>
</g>
</g>
<!-- Node1&#45;&gt;Node14 -->
<g id="edge14" class="edge">
<title>Node1&#45;&gt;Node14</title>
<path fill="none" stroke="#191970" d="M61.513,-273.6186C77.4248,-282.6735 102.1064,-295.6897 125,-303.5 140.4869,-308.7834 157.9158,-312.7878 173.6039,-315.725"/>
<polygon fill="#191970" stroke="#191970" points="173.1661,-319.202 183.624,-317.5038 174.3897,-312.3097 173.1661,-319.202"/>
</g>
<!-- Node17 -->
<g id="node17" class="node">
<title>Node17</title>
<g id="a_node17"><a xlink:href="../../da/d8e/FindBlobs_8C.html#a146ca0981cb3cf6f63f18057e3f4f969" target="_top" xlink:title="FindBlobs">
<polygon fill="none" stroke="#000000" points="188,-273.5 188,-293.5 253,-293.5 253,-273.5 188,-273.5"/>
<text text-anchor="middle" x="220.5" y="-280.5" font-family="FreeSans" font-size="10.00" fill="#000000">FindBlobs</text>
</a>
</g>
</g>
<!-- Node1&#45;&gt;Node17 -->
<g id="edge19" class="edge">
<title>Node1&#45;&gt;Node17</title>
<path fill="none" stroke="#191970" d="M89.3676,-268.5986C116.5203,-271.6841 150.9517,-275.5968 177.7189,-278.6385"/>
<polygon fill="#191970" stroke="#191970" points="177.6071,-282.1482 187.9384,-279.7998 178.3975,-275.193 177.6071,-282.1482"/>
</g>
<!-- Node22 -->
<g id="node22" class="node">
<title>Node22</title>
<g id="a_node22"><a xlink:href="../../d5/da5/classEvent.html#a24d95b87ad0d07898aeab116feea80d3" target="_top" xlink:title="Event::getEvtSequence">
<polygon fill="none" stroke="#000000" points="153,-156.5 153,-176.5 288,-176.5 288,-156.5 153,-156.5"/>
<text text-anchor="middle" x="220.5" y="-163.5" font-family="FreeSans" font-size="10.00" fill="#000000">Event::getEvtSequence</text>
</a>
</g>
</g>
<!-- Node1&#45;&gt;Node22 -->
<g id="edge25" class="edge">
<title>Node1&#45;&gt;Node22</title>
<path fill="none" stroke="#191970" d="M51.8681,-253.2387C64.6738,-236.2305 92.7725,-202.4014 125,-185.5 130.6492,-182.5373 136.7079,-180.0353 142.9327,-177.9224"/>
<polygon fill="#191970" stroke="#191970" points="144.2698,-181.1739 152.8161,-174.9122 142.2302,-174.4776 144.2698,-181.1739"/>
</g>
<!-- Node23 -->
<g id="node23" class="node">
<title>Node23</title>
<g id="a_node23"><a xlink:href="../../d5/da5/classEvent.html#a940e5bf507b251f0bd4d39e879869bc7" target="_top" xlink:title="Event::getEvtType">
<polygon fill="none" stroke="#000000" points="166.5,-117.5 166.5,-137.5 274.5,-137.5 274.5,-117.5 166.5,-117.5"/>
<text text-anchor="middle" x="220.5" y="-124.5" font-family="FreeSans" font-size="10.00" fill="#000000">Event::getEvtType</text>
</a>
</g>
</g>
<!-- Node1&#45;&gt;Node23 -->
<g id="edge26" class="edge">
<title>Node1&#45;&gt;Node23</title>
<path fill="none" stroke="#191970" d="M48.3188,-253.393C57.5884,-230.3374 83.6078,-173.7532 125,-146.5 134.2966,-140.379 145.1286,-136.1497 156.0912,-133.244"/>
<polygon fill="#191970" stroke="#191970" points="157.1932,-136.5821 166.1553,-130.9314 155.6254,-129.7599 157.1932,-136.5821"/>
</g>
<!-- Node24 -->
<g id="node24" class="node">
<title>Node24</title>
<g id="a_node24"><a xlink:href="../../d5/da5/classEvent.html#a1123f0f08345ac39e5e4e7b6a2ffd053" target="_top" xlink:title="Event::getPacket">
<polygon fill="none" stroke="#000000" points="169.5,-78.5 169.5,-98.5 271.5,-98.5 271.5,-78.5 169.5,-78.5"/>
<text text-anchor="middle" x="220.5" y="-85.5" font-family="FreeSans" font-size="10.00" fill="#000000">Event::getPacket</text>
</a>
</g>
</g>
<!-- Node1&#45;&gt;Node24 -->
<g id="edge27" class="edge">
<title>Node1&#45;&gt;Node24</title>
<path fill="none" stroke="#191970" d="M46.5879,-253.1252C52.8671,-224.7835 74.3591,-145.6311 125,-107.5 135.0166,-99.9578 147.2457,-95.1911 159.5644,-92.2247"/>
<polygon fill="#191970" stroke="#191970" points="160.3242,-95.6419 169.4224,-90.2131 158.9245,-88.7832 160.3242,-95.6419"/>
</g>
<!-- Node25 -->
<g id="node25" class="node">
<title>Node25</title>
<g id="a_node25"><a xlink:href="../../d7/d97/classPacket.html#a1bb9f7173023a37b3099fe4b80393300" target="_top" xlink:title="iValue returns the value of a given channel as an int.">
<polygon fill="none" stroke="#000000" points="177.5,-39.5 177.5,-59.5 263.5,-59.5 263.5,-39.5 177.5,-39.5"/>
<text text-anchor="middle" x="220.5" y="-46.5" font-family="FreeSans" font-size="10.00" fill="#000000">Packet::iValue</text>
</a>
</g>
</g>
<!-- Node1&#45;&gt;Node25 -->
<g id="edge30" class="edge">
<title>Node1&#45;&gt;Node25</title>
<path fill="none" stroke="#191970" d="M45.3994,-253.4942C48.8771,-221.0918 64.4432,-118.26 125,-68.5 136.7794,-58.8208 152.1118,-53.6033 167.0319,-50.9052"/>
<polygon fill="#191970" stroke="#191970" points="167.8561,-54.3221 177.2465,-49.4159 166.8462,-47.3954 167.8561,-54.3221"/>
</g>
<!-- Node26 -->
<g id="node26" class="node">
<title>Node26</title>
<g id="a_node26"><a xlink:href="../../d7/d97/classPacket.html#a4d7b8cb8038d96d509d28ffdc40d7acc" target="_top" xlink:title="Packet::rValue">
<polygon fill="none" stroke="#000000" points="176.5,-.5 176.5,-20.5 264.5,-20.5 264.5,-.5 176.5,-.5"/>
<text text-anchor="middle" x="220.5" y="-7.5" font-family="FreeSans" font-size="10.00" fill="#000000">Packet::rValue</text>
</a>
</g>
</g>
<!-- Node1&#45;&gt;Node26 -->
<g id="edge31" class="edge">
<title>Node1&#45;&gt;Node26</title>
<path fill="none" stroke="#191970" d="M46.5977,-253.3254C55.2302,-212.4286 89.2449,-60.7287 125,-29.5 136.3794,-19.5612 151.4533,-14.2462 166.2551,-11.538"/>
<polygon fill="#191970" stroke="#191970" points="167.0211,-14.9633 176.4102,-10.0547 166.0093,-8.0368 167.0211,-14.9633"/>
</g>
<!-- Node2&#45;&gt;Node3 -->
<g id="edge2" class="edge">
<title>Node2&#45;&gt;Node3</title>
<path fill="none" stroke="#191970" d="M270.9749,-488.5435C297.0377,-493.7294 329.0178,-500.0928 356.3544,-505.5323"/>
<polygon fill="#191970" stroke="#191970" points="355.7054,-508.9717 366.1962,-507.4906 357.0715,-502.1062 355.7054,-508.9717"/>
</g>
<!-- Node4 -->
<g id="node4" class="node">
<title>Node4</title>
<g id="a_node4"><a xlink:href="../../d5/da5/classEvent.html#a4d541637983b2bbb8fc19aaae736b126" target="_top" xlink:title="Event::getEvtLength">
<polygon fill="none" stroke="#000000" points="357,-429.5 357,-449.5 476,-449.5 476,-429.5 357,-429.5"/>
<text text-anchor="middle" x="416.5" y="-436.5" font-family="FreeSans" font-size="10.00" fill="#000000">Event::getEvtLength</text>
</a>
</g>
</g>
<!-- Node2&#45;&gt;Node4 -->
<g id="edge3" class="edge">
<title>Node2&#45;&gt;Node4</title>
<path fill="none" stroke="#191970" d="M270.9749,-468.4565C297.0377,-463.2706 329.0178,-456.9072 356.3544,-451.4677"/>
<polygon fill="#191970" stroke="#191970" points="357.0715,-454.8938 366.1962,-449.5094 355.7054,-448.0283 357.0715,-454.8938"/>
</g>
<!-- Node5 -->
<g id="node5" class="node">
<title>Node5</title>
<g id="a_node5"><a xlink:href="../../d5/da5/classEvent.html#a3a8043c33a54a23662e90b50cf80440f" target="_top" xlink:title="Event::Copy">
<polygon fill="none" stroke="#000000" points="377.5,-468.5 377.5,-488.5 455.5,-488.5 455.5,-468.5 377.5,-468.5"/>
<text text-anchor="middle" x="416.5" y="-475.5" font-family="FreeSans" font-size="10.00" fill="#000000">Event::Copy</text>
</a>
</g>
</g>
<!-- Node2&#45;&gt;Node5 -->
<g id="edge4" class="edge">
<title>Node2&#45;&gt;Node5</title>
<path fill="none" stroke="#191970" d="M288.2265,-478.5C314.1546,-478.5 343.2177,-478.5 367.1154,-478.5"/>
<polygon fill="#191970" stroke="#191970" points="367.3585,-482.0001 377.3585,-478.5 367.3585,-475.0001 367.3585,-482.0001"/>
</g>
<!-- Node6&#45;&gt;Node7 -->
<g id="edge6" class="edge">
<title>Node6&#45;&gt;Node7</title>
<path fill="none" stroke="#191970" d="M295.1583,-400.5C316.8143,-400.5 340.0849,-400.5 360.3972,-400.5"/>
<polygon fill="#191970" stroke="#191970" points="360.4171,-404.0001 370.4171,-400.5 360.417,-397.0001 360.4171,-404.0001"/>
</g>
<!-- Node8 -->
<g id="node8" class="node">
<title>Node8</title>
<g id="a_node8"><a xlink:href="../../d6/dfd/classgroot.html#af205da8d96d655fb6d86dd0065267092" target="_top" xlink:title="groot::groot">
<polygon fill="none" stroke="#000000" points="538.5,-390.5 538.5,-410.5 615.5,-410.5 615.5,-390.5 538.5,-390.5"/>
<text text-anchor="middle" x="577" y="-397.5" font-family="FreeSans" font-size="10.00" fill="#000000">groot::groot</text>
</a>
</g>
</g>
<!-- Node7&#45;&gt;Node8 -->
<g id="edge7" class="edge">
<title>Node7&#45;&gt;Node8</title>
<path fill="none" stroke="#191970" d="M462.9233,-400.5C483.357,-400.5 507.3723,-400.5 528.0841,-400.5"/>
<polygon fill="#191970" stroke="#191970" points="528.2658,-404.0001 538.2657,-400.5 528.2657,-397.0001 528.2658,-404.0001"/>
</g>
<!-- Node9 -->
<g id="node9" class="node">
<title>Node9</title>
<g id="a_node9"><a xlink:href="../../d9/d9e/evDisplay_8C.html#a493aff38bcceaba17aef8c5257ff963a" target="_top" xlink:title="channel">
<polygon fill="none" stroke="#000000" points="717.5,-410.5 717.5,-430.5 773.5,-430.5 773.5,-410.5 717.5,-410.5"/>
<text text-anchor="middle" x="745.5" y="-417.5" font-family="FreeSans" font-size="10.00" fill="#000000">channel</text>
</a>
</g>
</g>
<!-- Node8&#45;&gt;Node9 -->
<g id="edge8" class="edge">
<title>Node8&#45;&gt;Node9</title>
<path fill="none" stroke="#191970" d="M615.6573,-405.0884C643.1409,-408.3505 679.8875,-412.7122 707.2736,-415.9627"/>
<polygon fill="#191970" stroke="#191970" points="706.9296,-419.4464 717.2724,-417.1495 707.7547,-412.4952 706.9296,-419.4464"/>
</g>
<!-- Node10 -->
<g id="node10" class="node">
<title>Node10</title>
<g id="a_node10"><a xlink:href="../../d0/dca/classAZigzag.html#a0c1b026a723d17ca9f1bff1c8250339d" target="_top" xlink:title="AZigzag::ReadCalibration">
<polygon fill="none" stroke="#000000" points="673,-371.5 673,-391.5 818,-391.5 818,-371.5 673,-371.5"/>
<text text-anchor="middle" x="745.5" y="-378.5" font-family="FreeSans" font-size="10.00" fill="#000000">AZigzag::ReadCalibration</text>
</a>
</g>
</g>
<!-- Node8&#45;&gt;Node10 -->
<g id="edge9" class="edge">
<title>Node8&#45;&gt;Node10</title>
<path fill="none" stroke="#191970" d="M615.6573,-396.141C629.7382,-394.5533 646.2506,-392.6913 662.6898,-390.8376"/>
<polygon fill="#191970" stroke="#191970" points="663.3489,-394.2856 672.8938,-389.6871 662.5645,-387.3297 663.3489,-394.2856"/>
</g>
<!-- Node12&#45;&gt;Node7 -->
<g id="edge12" class="edge">
<title>Node12&#45;&gt;Node7</title>
<path fill="none" stroke="#191970" d="M270.9749,-371.5435C298.2499,-376.9707 332.0055,-383.6873 360.1376,-389.285"/>
<polygon fill="#191970" stroke="#191970" points="359.7345,-392.7734 370.2253,-391.2923 361.1006,-385.908 359.7345,-392.7734"/>
</g>
<!-- Node14&#45;&gt;Node7 -->
<g id="edge15" class="edge">
<title>Node14&#45;&gt;Node7</title>
<path fill="none" stroke="#191970" d="M257.2887,-324.8836C275.8608,-327.3673 298.1709,-332.3884 316,-342.5 336.5188,-354.1371 331.9631,-369.0514 352,-381.5 354.9654,-383.3424 358.1183,-385.0136 361.3742,-386.5285"/>
<polygon fill="#191970" stroke="#191970" points="360.1742,-389.8195 370.7533,-390.3963 362.8429,-383.3482 360.1742,-389.8195"/>
</g>
<!-- Node15 -->
<g id="node15" class="node">
<title>Node15</title>
<g id="a_node15"><a xlink:href="../../d5/d3b/FillBlobHist_8C.html#ab5d5afbd82fb565734ac7060e4ad9303" target="_top" xlink:title="line_circle">
<polygon fill="none" stroke="#000000" points="383.5,-294.5 383.5,-314.5 449.5,-314.5 449.5,-294.5 383.5,-294.5"/>
<text text-anchor="middle" x="416.5" y="-301.5" font-family="FreeSans" font-size="10.00" fill="#000000">line_circle</text>
</a>
</g>
</g>
<!-- Node14&#45;&gt;Node15 -->
<g id="edge16" class="edge">
<title>Node14&#45;&gt;Node15</title>
<path fill="none" stroke="#191970" d="M257.3661,-319.1143C290.2281,-316.0964 338.36,-311.6761 373.0765,-308.4879"/>
<polygon fill="#191970" stroke="#191970" points="373.7501,-311.9408 383.3881,-307.5409 373.1099,-304.9702 373.7501,-311.9408"/>
</g>
<!-- Node16 -->
<g id="node16" class="node">
<title>Node16</title>
<g id="a_node16"><a xlink:href="../../d0/dca/classAZigzag.html#ac4735659f948ec6e0d62ce092879c58f" target="_top" xlink:title="AZigzag::PCenter">
<polygon fill="none" stroke="#000000" points="364,-351.5 364,-371.5 469,-371.5 469,-351.5 364,-351.5"/>
<text text-anchor="middle" x="416.5" y="-358.5" font-family="FreeSans" font-size="10.00" fill="#000000">AZigzag::PCenter</text>
</a>
</g>
</g>
<!-- Node14&#45;&gt;Node16 -->
<g id="edge18" class="edge">
<title>Node14&#45;&gt;Node16</title>
<path fill="none" stroke="#191970" d="M257.3661,-329.8356C285.0833,-335.3508 323.6635,-343.0274 355.8948,-349.4408"/>
<polygon fill="#191970" stroke="#191970" points="355.6239,-352.9554 366.1147,-351.4743 356.99,-346.09 355.6239,-352.9554"/>
</g>
<!-- Node15&#45;&gt;Node15 -->
<g id="edge17" class="edge">
<title>Node15&#45;&gt;Node15</title>
<path fill="none" stroke="#191970" d="M391.4512,-314.7271C380.0254,-323.6067 388.375,-333 416.5,-333 434.957,-333 444.8975,-328.9546 446.3214,-323.6639"/>
<polygon fill="#191970" stroke="#191970" points="449.347,-321.8992 441.5488,-314.7271 443.1723,-325.1968 449.347,-321.8992"/>
</g>
<!-- Node17&#45;&gt;Node7 -->
<g id="edge20" class="edge">
<title>Node17&#45;&gt;Node7</title>
<path fill="none" stroke="#191970" d="M253.2471,-283.1957C273.2865,-284.6168 298.3746,-289.4668 316,-303.5 345.8696,-327.282 323.1057,-356.5421 352,-381.5 354.8159,-383.9323 357.9306,-386.0535 361.2259,-387.9033"/>
<polygon fill="#191970" stroke="#191970" points="359.7537,-391.0787 370.2898,-392.1933 362.7485,-384.7516 359.7537,-391.0787"/>
</g>
<!-- Node18 -->
<g id="node18" class="node">
<title>Node18</title>
<g id="a_node18"><a xlink:href="../../d0/dca/classAZigzag.html#a60caaa3d63c46583ed60a5ae9e0d55fc" target="_top" xlink:title="AZigzag::IsHit">
<polygon fill="none" stroke="#000000" points="372.5,-255.5 372.5,-275.5 460.5,-275.5 460.5,-255.5 372.5,-255.5"/>
<text text-anchor="middle" x="416.5" y="-262.5" font-family="FreeSans" font-size="10.00" fill="#000000">AZigzag::IsHit</text>
</a>
</g>
</g>
<!-- Node17&#45;&gt;Node18 -->
<g id="edge21" class="edge">
<title>Node17&#45;&gt;Node18</title>
<path fill="none" stroke="#191970" d="M253.306,-280.4872C282.9627,-277.7636 327.1973,-273.7013 362.1347,-270.4927"/>
<polygon fill="#191970" stroke="#191970" points="362.5483,-273.9696 372.1862,-269.5696 361.908,-266.9989 362.5483,-273.9696"/>
</g>
<!-- Node20 -->
<g id="node20" class="node">
<title>Node20</title>
<g id="a_node20"><a xlink:href="../../d0/dca/classAZigzag.html#ac0e5b080868aeaf3e6174f9dcbe896e9" target="_top" xlink:title="AZigzag::Q">
<polygon fill="none" stroke="#000000" points="380,-216.5 380,-236.5 453,-236.5 453,-216.5 380,-216.5"/>
<text text-anchor="middle" x="416.5" y="-223.5" font-family="FreeSans" font-size="10.00" fill="#000000">AZigzag::Q</text>
</a>
</g>
</g>
<!-- Node17&#45;&gt;Node20 -->
<g id="edge23" class="edge">
<title>Node17&#45;&gt;Node20</title>
<path fill="none" stroke="#191970" d="M253.3377,-279.1885C272.0274,-276.1877 295.6894,-271.4573 316,-264.5 332.9232,-258.703 335.4019,-253.1711 352,-246.5 357.9252,-244.1185 364.2489,-241.8451 370.5334,-239.7414"/>
<polygon fill="#191970" stroke="#191970" points="371.8724,-242.9871 380.3137,-236.5844 369.722,-236.3256 371.8724,-242.9871"/>
</g>
<!-- Node21 -->
<g id="node21" class="node">
<title>Node21</title>
<g id="a_node21"><a xlink:href="../../d0/dca/classAZigzag.html#a9bc062277ed99e3d9e4d5fd2a5dbc6e4" target="_top" xlink:title="AZigzag::T">
<polygon fill="none" stroke="#000000" points="380.5,-177.5 380.5,-197.5 452.5,-197.5 452.5,-177.5 380.5,-177.5"/>
<text text-anchor="middle" x="416.5" y="-184.5" font-family="FreeSans" font-size="10.00" fill="#000000">AZigzag::T</text>
</a>
</g>
</g>
<!-- Node17&#45;&gt;Node21 -->
<g id="edge24" class="edge">
<title>Node17&#45;&gt;Node21</title>
<path fill="none" stroke="#191970" d="M253.0668,-283.3386C272.7918,-281.7919 297.6076,-277.1352 316,-264.5 340.6967,-247.5338 328.2211,-225.7303 352,-207.5 357.5011,-203.2825 363.9017,-199.9463 370.4928,-197.3093"/>
<polygon fill="#191970" stroke="#191970" points="371.9124,-200.5211 380.2033,-193.9249 369.6085,-193.9111 371.9124,-200.5211"/>
</g>
<!-- Node19 -->
<g id="node19" class="node">
<title>Node19</title>
<g id="a_node19"><a xlink:href="../../d0/dca/classAZigzag.html#a5a0c4b2c13a7466328ed5f76247bb9f7" target="_top" xlink:title="AZigzag::NumSigma">
<polygon fill="none" stroke="#000000" points="517,-255.5 517,-275.5 637,-275.5 637,-255.5 517,-255.5"/>
<text text-anchor="middle" x="577" y="-262.5" font-family="FreeSans" font-size="10.00" fill="#000000">AZigzag::NumSigma</text>
</a>
</g>
</g>
<!-- Node18&#45;&gt;Node19 -->
<g id="edge22" class="edge">
<title>Node18&#45;&gt;Node19</title>
<path fill="none" stroke="#191970" d="M460.7822,-265.5C475.0156,-265.5 491.1523,-265.5 506.7743,-265.5"/>
<polygon fill="#191970" stroke="#191970" points="506.9406,-269.0001 516.9406,-265.5 506.9406,-262.0001 506.9406,-269.0001"/>
</g>
</g>
</svg>
