<?xml version="1.0" encoding="UTF-8" standalone="no"?>
<!DOCTYPE svg PUBLIC "-//W3C//DTD SVG 1.1//EN"
 "http://www.w3.org/Graphics/SVG/1.1/DTD/svg11.dtd">
<!-- Generated by graphviz version 2.40.1 (20161225.0304)
 -->
<!-- Title: analysis/blob/master/psTOF/psTOFTimezeroEval/psTOFTimezeroEval.C Pages: 1 -->
<svg width="2874pt" height="407pt"
 viewBox="0.00 0.00 2873.76 407.00" xmlns="http://www.w3.org/2000/svg" xmlns:xlink="http://www.w3.org/1999/xlink">
<g id="graph0" class="graph" transform="scale(1 1) rotate(0) translate(4 403)">
<title>analysis/blob/master/psTOF/psTOFTimezeroEval/psTOFTimezeroEval.C</title>
<!-- Node1 -->
<g id="node1" class="node">
<title>Node1</title>
<polygon fill="#bfbfbf" stroke="#000000" points="1332.7595,-354.5 1332.7595,-398.5 1487.7595,-398.5 1487.7595,-354.5 1332.7595,-354.5"/>
<text text-anchor="start" x="1340.7595" y="-385.5" font-family="FreeSans" font-size="10.00" fill="#000000">analysis/blob/master</text>
<text text-anchor="start" x="1340.7595" y="-373.5" font-family="FreeSans" font-size="10.00" fill="#000000">/psTOF/psTOFTimezeroEval</text>
<text text-anchor="middle" x="1410.2595" y="-361.5" font-family="FreeSans" font-size="10.00" fill="#000000">/psTOFTimezeroEval.C</text>
</g>
<!-- Node2 -->
<g id="node2" class="node">
<title>Node2</title>
<g id="a_node2"><a xlink:href="../../d3/d59/SvtxEvalStack_8h.html" target="_top" xlink:title="g4eval/SvtxEvalStack.h">
<polygon fill="none" stroke="#000000" points="30.7595,-291.5 30.7595,-311.5 165.7595,-311.5 165.7595,-291.5 30.7595,-291.5"/>
<text text-anchor="middle" x="98.2595" y="-298.5" font-family="FreeSans" font-size="10.00" fill="#000000">g4eval/SvtxEvalStack.h</text>
</a>
</g>
</g>
<!-- Node1&#45;&gt;Node2 -->
<g id="edge1" class="edge">
<title>Node1&#45;&gt;Node2</title>
<path fill="none" stroke="#191970" d="M1332.4359,-374.3388C1098.6301,-367.6022 404.7584,-345.7641 180.2595,-318 171.0518,-316.8613 161.3325,-315.2632 151.9306,-313.506"/>
<polygon fill="#191970" stroke="#191970" points="152.377,-310.0273 141.8924,-311.551 151.0388,-316.8982 152.377,-310.0273"/>
</g>
<!-- Node7 -->
<g id="node7" class="node">
<title>Node7</title>
<polygon fill="none" stroke="#bfbfbf" points="43.2595,-57.5 43.2595,-77.5 75.2595,-77.5 75.2595,-57.5 43.2595,-57.5"/>
<text text-anchor="middle" x="59.2595" y="-64.5" font-family="FreeSans" font-size="10.00" fill="#000000">set</text>
</g>
<!-- Node1&#45;&gt;Node7 -->
<g id="edge95" class="edge">
<title>Node1&#45;&gt;Node7</title>
<path fill="none" stroke="#191970" d="M1332.3628,-375.7953C1046.9198,-372.8824 72.1077,-359.894 21.2595,-318 -6.7784,-294.8995 2.2595,-274.8284 2.2595,-238.5 2.2595,-238.5 2.2595,-238.5 2.2595,-181.5 2.2595,-144.3539 26.7697,-106.9043 43.6451,-85.5221"/>
<polygon fill="#191970" stroke="#191970" points="46.4711,-87.5955 50.1014,-77.642 41.0564,-83.1591 46.4711,-87.5955"/>
</g>
<!-- Node9 -->
<g id="node9" class="node">
<title>Node9</title>
<g id="a_node9"><a xlink:href="../../d8/d30/PHCompositeNode_8h.html" target="_top" xlink:title="phool/PHCompositeNode.h">
<polygon fill="none" stroke="#000000" points="2507.7595,-171.5 2507.7595,-191.5 2658.7595,-191.5 2658.7595,-171.5 2507.7595,-171.5"/>
<text text-anchor="middle" x="2583.2595" y="-178.5" font-family="FreeSans" font-size="10.00" fill="#000000">phool/PHCompositeNode.h</text>
</a>
</g>
</g>
<!-- Node1&#45;&gt;Node9 -->
<g id="edge14" class="edge">
<title>Node1&#45;&gt;Node9</title>
<path fill="none" stroke="#191970" d="M1487.8568,-373.5327C1602.5411,-368.1072 1823.6447,-353.663 2008.2595,-318 2059.6298,-308.0765 2070.3801,-297.1933 2121.2595,-285 2205.2644,-264.8681 2227.8685,-267.4469 2312.2595,-249 2391.0239,-231.783 2481.8033,-208.4537 2535.7578,-194.2164"/>
<polygon fill="#191970" stroke="#191970" points="2536.9458,-197.5226 2545.7179,-191.5811 2535.1552,-190.7555 2536.9458,-197.5226"/>
</g>
<!-- Node14 -->
<g id="node14" class="node">
<title>Node14</title>
<polygon fill="none" stroke="#bfbfbf" points="1439.2595,-.5 1439.2595,-20.5 1499.2595,-20.5 1499.2595,-.5 1439.2595,-.5"/>
<text text-anchor="middle" x="1469.2595" y="-7.5" font-family="FreeSans" font-size="10.00" fill="#000000">iostream</text>
</g>
<!-- Node1&#45;&gt;Node14 -->
<g id="edge94" class="edge">
<title>Node1&#45;&gt;Node14</title>
<path fill="none" stroke="#191970" d="M1332.5837,-375.4857C1078.8551,-371.7973 288.5252,-357.1941 251.2595,-318 241.1533,-307.3709 242.2048,-296.5379 251.2595,-285 358.6027,-148.2179 463.3269,-237.0616 631.2595,-192 837.8706,-136.5598 883.7609,-100.2683 1093.2595,-57 1213.9619,-32.071 1359.4123,-18.723 1428.7143,-13.3584"/>
<polygon fill="#191970" stroke="#191970" points="1429.0651,-16.842 1438.7714,-12.5949 1428.5351,-9.8621 1429.0651,-16.842"/>
</g>
<!-- Node15 -->
<g id="node15" class="node">
<title>Node15</title>
<g id="a_node15"><a xlink:href="../../da/dc1/Fun4AllReturnCodes_8h.html" target="_top" xlink:title="fun4all/Fun4AllReturnCodes.h">
<polygon fill="none" stroke="#000000" points="260.2595,-291.5 260.2595,-311.5 426.2595,-311.5 426.2595,-291.5 260.2595,-291.5"/>
<text text-anchor="middle" x="343.2595" y="-298.5" font-family="FreeSans" font-size="10.00" fill="#000000">fun4all/Fun4AllReturnCodes.h</text>
</a>
</g>
</g>
<!-- Node1&#45;&gt;Node15 -->
<g id="edge21" class="edge">
<title>Node1&#45;&gt;Node15</title>
<path fill="none" stroke="#191970" d="M1332.6829,-374.6711C1167.8734,-370.1602 770.8637,-355.9747 440.2595,-318 429.1026,-316.7185 417.279,-315.007 405.8668,-313.1709"/>
<polygon fill="#191970" stroke="#191970" points="406.4083,-309.713 395.971,-311.533 405.2652,-316.619 406.4083,-309.713"/>
</g>
<!-- Node16 -->
<g id="node16" class="node">
<title>Node16</title>
<g id="a_node16"><a xlink:href="../../dd/dd4/getClass_8h.html" target="_top" xlink:title="phool/getClass.h">
<polygon fill="none" stroke="#000000" points="2429.2595,-291.5 2429.2595,-311.5 2529.2595,-311.5 2529.2595,-291.5 2429.2595,-291.5"/>
<text text-anchor="middle" x="2479.2595" y="-298.5" font-family="FreeSans" font-size="10.00" fill="#000000">phool/getClass.h</text>
</a>
</g>
</g>
<!-- Node1&#45;&gt;Node16 -->
<g id="edge22" class="edge">
<title>Node1&#45;&gt;Node16</title>
<path fill="none" stroke="#191970" d="M1487.9582,-373.2183C1648.3895,-366.0943 2027.8405,-347.4458 2345.2595,-318 2369.4531,-315.7556 2396.0246,-312.6235 2419.0814,-309.6905"/>
<polygon fill="#191970" stroke="#191970" points="2419.5961,-313.1532 2429.0674,-308.405 2418.7023,-306.2105 2419.5961,-313.1532"/>
</g>
<!-- Node25 -->
<g id="node25" class="node">
<title>Node25</title>
<polygon fill="none" stroke="#bfbfbf" points="482.2595,-291.5 482.2595,-311.5 632.2595,-311.5 632.2595,-291.5 482.2595,-291.5"/>
<text text-anchor="middle" x="557.2595" y="-298.5" font-family="FreeSans" font-size="10.00" fill="#000000">g4hough/SvtxVertexMap.h</text>
</g>
<!-- Node1&#45;&gt;Node25 -->
<g id="edge46" class="edge">
<title>Node1&#45;&gt;Node25</title>
<path fill="none" stroke="#191970" d="M1332.7175,-373.63C1193.6478,-367.8096 892.8453,-352.1573 641.2595,-318 632.1748,-316.7666 622.5909,-315.1695 613.2758,-313.4557"/>
<polygon fill="#191970" stroke="#191970" points="613.7875,-309.9904 603.3099,-311.5619 612.4806,-316.8673 613.7875,-309.9904"/>
</g>
<!-- Node26 -->
<g id="node26" class="node">
<title>Node26</title>
<polygon fill="none" stroke="#bfbfbf" points="650.2595,-291.5 650.2595,-311.5 778.2595,-311.5 778.2595,-291.5 650.2595,-291.5"/>
<text text-anchor="middle" x="714.2595" y="-298.5" font-family="FreeSans" font-size="10.00" fill="#000000">g4hough/SvtxVertex.h</text>
</g>
<!-- Node1&#45;&gt;Node26 -->
<g id="edge47" class="edge">
<title>Node1&#45;&gt;Node26</title>
<path fill="none" stroke="#191970" d="M1332.6436,-372.4294C1214.3869,-365.5031 982.2464,-349.0587 787.2595,-318 779.765,-316.8062 771.8905,-315.2983 764.1994,-313.6818"/>
<polygon fill="#191970" stroke="#191970" points="764.7577,-310.2213 754.2417,-311.5113 763.2669,-317.0608 764.7577,-310.2213"/>
</g>
<!-- Node27 -->
<g id="node27" class="node">
<title>Node27</title>
<polygon fill="none" stroke="#bfbfbf" points="796.2595,-291.5 796.2595,-311.5 940.2595,-311.5 940.2595,-291.5 796.2595,-291.5"/>
<text text-anchor="middle" x="868.2595" y="-298.5" font-family="FreeSans" font-size="10.00" fill="#000000">g4hough/SvtxTrackMap.h</text>
</g>
<!-- Node1&#45;&gt;Node27 -->
<g id="edge48" class="edge">
<title>Node1&#45;&gt;Node27</title>
<path fill="none" stroke="#191970" d="M1332.5138,-368.4283C1240.6662,-358.4783 1083.3845,-340.1392 949.2595,-318 941.2061,-316.6707 932.7331,-315.1176 924.4245,-313.5058"/>
<polygon fill="#191970" stroke="#191970" points="924.9,-310.0321 914.4104,-311.5218 923.5395,-316.8986 924.9,-310.0321"/>
</g>
<!-- Node28 -->
<g id="node28" class="node">
<title>Node28</title>
<polygon fill="none" stroke="#bfbfbf" points="958.2595,-291.5 958.2595,-311.5 1080.2595,-311.5 1080.2595,-291.5 958.2595,-291.5"/>
<text text-anchor="middle" x="1019.2595" y="-298.5" font-family="FreeSans" font-size="10.00" fill="#000000">g4hough/SvtxTrack.h</text>
</g>
<!-- Node1&#45;&gt;Node28 -->
<g id="edge49" class="edge">
<title>Node1&#45;&gt;Node28</title>
<path fill="none" stroke="#191970" d="M1332.4638,-363.3432C1267.5397,-352.1082 1172.6543,-335.0954 1090.2595,-318 1083.9981,-316.7009 1077.4424,-315.2718 1070.9523,-313.8146"/>
<polygon fill="#191970" stroke="#191970" points="1071.387,-310.324 1060.8595,-311.5162 1069.8327,-317.1493 1071.387,-310.324"/>
</g>
<!-- Node29 -->
<g id="node29" class="node">
<title>Node29</title>
<polygon fill="none" stroke="#bfbfbf" points="1098.7595,-291.5 1098.7595,-311.5 1251.7595,-311.5 1251.7595,-291.5 1098.7595,-291.5"/>
<text text-anchor="middle" x="1175.2595" y="-298.5" font-family="FreeSans" font-size="10.00" fill="#000000">g4hough/SvtxClusterMap.h</text>
</g>
<!-- Node1&#45;&gt;Node29 -->
<g id="edge50" class="edge">
<title>Node1&#45;&gt;Node29</title>
<path fill="none" stroke="#191970" d="M1341.0227,-354.4032C1300.6049,-341.5039 1250.9654,-325.6615 1216.5988,-314.6934"/>
<polygon fill="#191970" stroke="#191970" points="1217.4823,-311.3015 1206.8916,-311.5954 1215.354,-317.9701 1217.4823,-311.3015"/>
</g>
<!-- Node30 -->
<g id="node30" class="node">
<title>Node30</title>
<polygon fill="none" stroke="#bfbfbf" points="1269.7595,-291.5 1269.7595,-311.5 1400.7595,-311.5 1400.7595,-291.5 1269.7595,-291.5"/>
<text text-anchor="middle" x="1335.2595" y="-298.5" font-family="FreeSans" font-size="10.00" fill="#000000">g4hough/SvtxCluster.h</text>
</g>
<!-- Node1&#45;&gt;Node30 -->
<g id="edge51" class="edge">
<title>Node1&#45;&gt;Node30</title>
<path fill="none" stroke="#191970" d="M1388.1626,-354.4032C1376.7581,-342.9986 1363.053,-329.2936 1352.45,-318.6905"/>
<polygon fill="#191970" stroke="#191970" points="1354.9008,-316.1916 1345.3548,-311.5954 1349.951,-321.1413 1354.9008,-316.1916"/>
</g>
<!-- Node31 -->
<g id="node31" class="node">
<title>Node31</title>
<polygon fill="none" stroke="#bfbfbf" points="1419.2595,-291.5 1419.2595,-311.5 1551.2595,-311.5 1551.2595,-291.5 1419.2595,-291.5"/>
<text text-anchor="middle" x="1485.2595" y="-298.5" font-family="FreeSans" font-size="10.00" fill="#000000">g4hough/SvtxHitMap.h</text>
</g>
<!-- Node1&#45;&gt;Node31 -->
<g id="edge52" class="edge">
<title>Node1&#45;&gt;Node31</title>
<path fill="none" stroke="#191970" d="M1432.3563,-354.4032C1443.7608,-342.9986 1457.4659,-329.2936 1468.0689,-318.6905"/>
<polygon fill="#191970" stroke="#191970" points="1470.5679,-321.1413 1475.1641,-311.5954 1465.6181,-316.1916 1470.5679,-321.1413"/>
</g>
<!-- Node32 -->
<g id="node32" class="node">
<title>Node32</title>
<polygon fill="none" stroke="#bfbfbf" points="1569.2595,-291.5 1569.2595,-311.5 1679.2595,-311.5 1679.2595,-291.5 1569.2595,-291.5"/>
<text text-anchor="middle" x="1624.2595" y="-298.5" font-family="FreeSans" font-size="10.00" fill="#000000">g4hough/SvtxHit.h</text>
</g>
<!-- Node1&#45;&gt;Node32 -->
<g id="edge53" class="edge">
<title>Node1&#45;&gt;Node32</title>
<path fill="none" stroke="#191970" d="M1473.3091,-354.4032C1509.7992,-341.6146 1554.5433,-325.9332 1585.8053,-314.9769"/>
<polygon fill="#191970" stroke="#191970" points="1587.1745,-318.2059 1595.454,-311.5954 1584.8592,-311.5998 1587.1745,-318.2059"/>
</g>
<!-- Node33 -->
<g id="node33" class="node">
<title>Node33</title>
<g id="a_node33"><a xlink:href="../../de/d83/PHG4Hit_8h.html" target="_top" xlink:title="g4main/PHG4Hit.h">
<polygon fill="none" stroke="#000000" points="1375.2595,-171.5 1375.2595,-191.5 1485.2595,-191.5 1485.2595,-171.5 1375.2595,-171.5"/>
<text text-anchor="middle" x="1430.2595" y="-178.5" font-family="FreeSans" font-size="10.00" fill="#000000">g4main/PHG4Hit.h</text>
</a>
</g>
</g>
<!-- Node1&#45;&gt;Node33 -->
<g id="edge54" class="edge">
<title>Node1&#45;&gt;Node33</title>
<path fill="none" stroke="#191970" d="M1488.0754,-370.8825C1561.3389,-363.7828 1663.4362,-348.5905 1688.2595,-318 1697.5011,-306.6113 1696.4759,-297.1491 1688.2595,-285 1664.0537,-249.2087 1547.4893,-212.8508 1479.608,-194.2289"/>
<polygon fill="#191970" stroke="#191970" points="1480.1255,-190.7429 1469.558,-191.5038 1478.2934,-197.4989 1480.1255,-190.7429"/>
</g>
<!-- Node36 -->
<g id="node36" class="node">
<title>Node36</title>
<polygon fill="none" stroke="#bfbfbf" points="1645.2595,-114.5 1645.2595,-134.5 1693.2595,-134.5 1693.2595,-114.5 1645.2595,-114.5"/>
<text text-anchor="middle" x="1669.2595" y="-121.5" font-family="FreeSans" font-size="10.00" fill="#000000">cmath</text>
</g>
<!-- Node1&#45;&gt;Node36 -->
<g id="edge96" class="edge">
<title>Node1&#45;&gt;Node36</title>
<path fill="none" stroke="#191970" d="M1487.8727,-373.0064C1570.6709,-367.4598 1693.9023,-353.3524 1723.2595,-318 1745.5771,-291.1248 1703.6285,-238.8217 1688.2595,-192 1683.0466,-176.1189 1677.9601,-157.8571 1674.3639,-144.3361"/>
<polygon fill="#191970" stroke="#191970" points="1677.7452,-143.4316 1671.8254,-134.6449 1670.9736,-145.2055 1677.7452,-143.4316"/>
</g>
<!-- Node38 -->
<g id="node38" class="node">
<title>Node38</title>
<g id="a_node38"><a xlink:href="../../dd/d05/PHG4Particle_8h.html" target="_top" xlink:title="g4main/PHG4Particle.h">
<polygon fill="none" stroke="#000000" points="1697.2595,-171.5 1697.2595,-191.5 1829.2595,-191.5 1829.2595,-171.5 1697.2595,-171.5"/>
<text text-anchor="middle" x="1763.2595" y="-178.5" font-family="FreeSans" font-size="10.00" fill="#000000">g4main/PHG4Particle.h</text>
</a>
</g>
</g>
<!-- Node1&#45;&gt;Node38 -->
<g id="edge65" class="edge">
<title>Node1&#45;&gt;Node38</title>
<path fill="none" stroke="#191970" d="M1487.9535,-370.1432C1595.1095,-360.5771 1777.3743,-341.117 1797.2595,-318 1823.3445,-287.6756 1809.6778,-266.0235 1797.2595,-228 1793.849,-217.5576 1787.1056,-207.5154 1780.5173,-199.4525"/>
<polygon fill="#191970" stroke="#191970" points="1783.0716,-197.0565 1773.854,-191.8328 1777.8022,-201.6645 1783.0716,-197.0565"/>
</g>
<!-- Node39 -->
<g id="node39" class="node">
<title>Node39</title>
<g id="a_node39"><a xlink:href="../../d4/d2a/PHG4VtxPoint_8h.html" target="_top" xlink:title="g4main/PHG4VtxPoint.h">
<polygon fill="none" stroke="#000000" points="1503.7595,-171.5 1503.7595,-191.5 1640.7595,-191.5 1640.7595,-171.5 1503.7595,-171.5"/>
<text text-anchor="middle" x="1572.2595" y="-178.5" font-family="FreeSans" font-size="10.00" fill="#000000">g4main/PHG4VtxPoint.h</text>
</a>
</g>
</g>
<!-- Node1&#45;&gt;Node39 -->
<g id="edge70" class="edge">
<title>Node1&#45;&gt;Node39</title>
<path fill="none" stroke="#191970" d="M1488.0773,-371.9684C1566.0424,-365.6104 1678.2544,-350.8862 1705.2595,-318 1744.3176,-270.4359 1656.3972,-219.9262 1605.4044,-195.8635"/>
<polygon fill="#191970" stroke="#191970" points="1606.5957,-192.5587 1596.0492,-191.5485 1603.6638,-198.9151 1606.5957,-192.5587"/>
</g>
<!-- Node40 -->
<g id="node40" class="node">
<title>Node40</title>
<g id="a_node40"><a xlink:href="../../d0/d25/PHG4TruthInfoContainer_8h.html" target="_top" xlink:title="g4main/PHG4TruthInfoContainer.h">
<polygon fill="none" stroke="#000000" points="434.2595,-171.5 434.2595,-191.5 622.2595,-191.5 622.2595,-171.5 434.2595,-171.5"/>
<text text-anchor="middle" x="528.2595" y="-178.5" font-family="FreeSans" font-size="10.00" fill="#000000">g4main/PHG4TruthInfoContainer.h</text>
</a>
</g>
</g>
<!-- Node1&#45;&gt;Node40 -->
<g id="edge75" class="edge">
<title>Node1&#45;&gt;Node40</title>
<path fill="none" stroke="#191970" d="M1332.6383,-375.6C1074.165,-372.2279 256.7233,-358.3978 218.2595,-318 149.2081,-245.4766 309.1855,-209.0389 424.0527,-192.7691"/>
<polygon fill="#191970" stroke="#191970" points="424.5481,-196.234 433.9746,-191.3975 423.5895,-189.2999 424.5481,-196.234"/>
</g>
<!-- Node42 -->
<g id="node42" class="node">
<title>Node42</title>
<g id="a_node42"><a xlink:href="../../df/dff/PHG4Cell_8h.html" target="_top" xlink:title="g4detectors/PHG4Cell.h">
<polygon fill="none" stroke="#000000" points="1173.2595,-171.5 1173.2595,-191.5 1309.2595,-191.5 1309.2595,-171.5 1173.2595,-171.5"/>
<text text-anchor="middle" x="1241.2595" y="-178.5" font-family="FreeSans" font-size="10.00" fill="#000000">g4detectors/PHG4Cell.h</text>
</a>
</g>
</g>
<!-- Node1&#45;&gt;Node42 -->
<g id="edge81" class="edge">
<title>Node1&#45;&gt;Node42</title>
<path fill="none" stroke="#191970" d="M1332.4256,-374.5113C1112.851,-368.5252 502.5204,-349.1448 473.2595,-318 376.4385,-214.9457 948.6335,-189.191 1162.7837,-183.1987"/>
<polygon fill="#191970" stroke="#191970" points="1163.1117,-186.6912 1173.0126,-182.92 1162.9209,-179.6938 1163.1117,-186.6912"/>
</g>
<!-- Node45 -->
<g id="node45" class="node">
<title>Node45</title>
<polygon fill="none" stroke="#bfbfbf" points="2130.2595,-291.5 2130.2595,-311.5 2180.2595,-311.5 2180.2595,-291.5 2130.2595,-291.5"/>
<text text-anchor="middle" x="2155.2595" y="-298.5" font-family="FreeSans" font-size="10.00" fill="#000000">TFile.h</text>
</g>
<!-- Node1&#45;&gt;Node45 -->
<g id="edge92" class="edge">
<title>Node1&#45;&gt;Node45</title>
<path fill="none" stroke="#191970" d="M1487.9307,-373.1711C1645.7601,-365.8981 1998.9277,-346.8942 2116.2595,-318 2119.2331,-317.2677 2122.2717,-316.3368 2125.2753,-315.2914"/>
<polygon fill="#191970" stroke="#191970" points="2126.5698,-318.5434 2134.628,-311.6647 2124.039,-312.0169 2126.5698,-318.5434"/>
</g>
<!-- Node46 -->
<g id="node46" class="node">
<title>Node46</title>
<polygon fill="none" stroke="#bfbfbf" points="2198.2595,-291.5 2198.2595,-311.5 2264.2595,-311.5 2264.2595,-291.5 2198.2595,-291.5"/>
<text text-anchor="middle" x="2231.2595" y="-298.5" font-family="FreeSans" font-size="10.00" fill="#000000">TNtuple.h</text>
</g>
<!-- Node1&#45;&gt;Node46 -->
<g id="edge93" class="edge">
<title>Node1&#45;&gt;Node46</title>
<path fill="none" stroke="#191970" d="M1488.0729,-373.613C1657.9548,-366.8295 2057.3739,-348.136 2189.2595,-318 2192.7249,-317.2081 2196.2813,-316.1786 2199.7877,-315.0206"/>
<polygon fill="#191970" stroke="#191970" points="2201.2243,-318.2222 2209.4194,-311.5072 2198.8255,-311.646 2201.2243,-318.2222"/>
</g>
<!-- Node47 -->
<g id="node47" class="node">
<title>Node47</title>
<polygon fill="none" stroke="#bfbfbf" points="2282.7595,-291.5 2282.7595,-311.5 2335.7595,-311.5 2335.7595,-291.5 2282.7595,-291.5"/>
<text text-anchor="middle" x="2309.2595" y="-298.5" font-family="FreeSans" font-size="10.00" fill="#000000">cassert</text>
</g>
<!-- Node1&#45;&gt;Node47 -->
<g id="edge97" class="edge">
<title>Node1&#45;&gt;Node47</title>
<path fill="none" stroke="#191970" d="M1487.9309,-374.8155C1671.1191,-370.2662 2125.8,-355.452 2273.2595,-318 2275.9166,-317.3251 2278.6194,-316.4602 2281.2891,-315.4808"/>
<polygon fill="#191970" stroke="#191970" points="2282.7907,-318.6468 2290.6729,-311.5671 2280.0961,-312.1862 2282.7907,-318.6468"/>
</g>
<!-- Node48 -->
<g id="node48" class="node">
<title>Node48</title>
<g id="a_node48"><a xlink:href="../../df/db4/psTOFTimezeroEval_8h.html" target="_top" xlink:title="Compares reconstructed tracks to truth particles.">
<polygon fill="none" stroke="#000000" points="1849.2595,-285.5 1849.2595,-317.5 1999.2595,-317.5 1999.2595,-285.5 1849.2595,-285.5"/>
<text text-anchor="start" x="1857.2595" y="-304.5" font-family="FreeSans" font-size="10.00" fill="#000000">../../psTOF/psTOFTimezero</text>
<text text-anchor="middle" x="1924.2595" y="-292.5" font-family="FreeSans" font-size="10.00" fill="#000000">Eval/psTOFTimezeroEval.h</text>
</a>
</g>
</g>
<!-- Node1&#45;&gt;Node48 -->
<g id="edge98" class="edge">
<title>Node1&#45;&gt;Node48</title>
<path fill="none" stroke="#191970" d="M1487.9736,-366.9054C1573.3106,-356.1129 1714.305,-337.5257 1835.2595,-318 1836.5248,-317.7957 1837.7999,-317.5877 1839.0827,-317.3764"/>
<polygon fill="#191970" stroke="#191970" points="1839.7595,-320.8118 1849.0393,-315.6996 1838.5969,-313.9091 1839.7595,-320.8118"/>
</g>
<!-- Node3 -->
<g id="node3" class="node">
<title>Node3</title>
<g id="a_node3"><a xlink:href="../../d5/d9c/SvtxVertexEval_8h.html" target="_top" xlink:title="SvtxVertexEval.h">
<polygon fill="none" stroke="#000000" points="64.2595,-228.5 64.2595,-248.5 166.2595,-248.5 166.2595,-228.5 64.2595,-228.5"/>
<text text-anchor="middle" x="115.2595" y="-235.5" font-family="FreeSans" font-size="10.00" fill="#000000">SvtxVertexEval.h</text>
</a>
</g>
</g>
<!-- Node2&#45;&gt;Node3 -->
<g id="edge2" class="edge">
<title>Node2&#45;&gt;Node3</title>
<path fill="none" stroke="#191970" d="M100.9908,-291.378C103.356,-282.6128 106.8495,-269.6662 109.7877,-258.7777"/>
<polygon fill="#191970" stroke="#191970" points="113.2523,-259.3727 112.4784,-248.8062 106.494,-257.549 113.2523,-259.3727"/>
</g>
<!-- Node4 -->
<g id="node4" class="node">
<title>Node4</title>
<g id="a_node4"><a xlink:href="../../df/d8a/SvtxTrackEval_8h.html" target="_top" xlink:title="SvtxTrackEval.h">
<polygon fill="none" stroke="#ff0000" points="111.2595,-171.5 111.2595,-191.5 207.2595,-191.5 207.2595,-171.5 111.2595,-171.5"/>
<text text-anchor="middle" x="159.2595" y="-178.5" font-family="FreeSans" font-size="10.00" fill="#000000">SvtxTrackEval.h</text>
</a>
</g>
</g>
<!-- Node3&#45;&gt;Node4 -->
<g id="edge3" class="edge">
<title>Node3&#45;&gt;Node4</title>
<path fill="none" stroke="#191970" d="M123.1258,-228.3095C129.2576,-220.3661 137.9296,-209.1319 145.2411,-199.6602"/>
<polygon fill="#191970" stroke="#191970" points="148.1213,-201.6569 151.4612,-191.6022 142.5801,-197.3795 148.1213,-201.6569"/>
</g>
<!-- Node6 -->
<g id="node6" class="node">
<title>Node6</title>
<polygon fill="none" stroke="#bfbfbf" points="460.7595,-57.5 460.7595,-77.5 499.7595,-77.5 499.7595,-57.5 460.7595,-57.5"/>
<text text-anchor="middle" x="480.2595" y="-64.5" font-family="FreeSans" font-size="10.00" fill="#000000">map</text>
</g>
<!-- Node3&#45;&gt;Node6 -->
<g id="edge11" class="edge">
<title>Node3&#45;&gt;Node6</title>
<path fill="none" stroke="#191970" d="M145.4742,-228.4258C171.0507,-219.6225 208.5089,-206.0776 240.2595,-192 319.8142,-156.7269 410.0146,-107.2468 453.717,-82.6371"/>
<polygon fill="#191970" stroke="#191970" points="455.58,-85.6046 462.5634,-77.637 452.1356,-79.5106 455.58,-85.6046"/>
</g>
<!-- Node3&#45;&gt;Node7 -->
<g id="edge12" class="edge">
<title>Node3&#45;&gt;Node7</title>
<path fill="none" stroke="#191970" d="M111.5232,-228.2702C104.8003,-209.754 90.3344,-169.4085 79.2595,-135 74.118,-119.0262 68.7387,-100.771 64.8556,-87.2762"/>
<polygon fill="#191970" stroke="#191970" points="68.2064,-86.2635 62.0953,-77.6087 61.4754,-88.1854 68.2064,-86.2635"/>
</g>
<!-- Node8 -->
<g id="node8" class="node">
<title>Node8</title>
<polygon fill="none" stroke="#bfbfbf" points="274.7595,-57.5 274.7595,-77.5 319.7595,-77.5 319.7595,-57.5 274.7595,-57.5"/>
<text text-anchor="middle" x="297.2595" y="-64.5" font-family="FreeSans" font-size="10.00" fill="#000000">utility</text>
</g>
<!-- Node3&#45;&gt;Node8 -->
<g id="edge13" class="edge">
<title>Node3&#45;&gt;Node8</title>
<path fill="none" stroke="#191970" d="M148.8772,-228.4081C169.9336,-220.8621 196.6889,-208.9146 216.2595,-192 250.8782,-162.0794 276.4218,-113.8213 288.8385,-87.0222"/>
<polygon fill="#191970" stroke="#191970" points="292.176,-88.1337 293.0797,-77.5775 285.7903,-85.2661 292.176,-88.1337"/>
</g>
<!-- Node5 -->
<g id="node5" class="node">
<title>Node5</title>
<g id="a_node5"><a xlink:href="../../d7/dcd/SvtxClusterEval_8h.html" target="_top" xlink:title="SvtxClusterEval.h">
<polygon fill="none" stroke="#ff0000" points="106.7595,-114.5 106.7595,-134.5 211.7595,-134.5 211.7595,-114.5 106.7595,-114.5"/>
<text text-anchor="middle" x="159.2595" y="-121.5" font-family="FreeSans" font-size="10.00" fill="#000000">SvtxClusterEval.h</text>
</a>
</g>
</g>
<!-- Node4&#45;&gt;Node5 -->
<g id="edge4" class="edge">
<title>Node4&#45;&gt;Node5</title>
<path fill="none" stroke="#191970" d="M159.2595,-171.3095C159.2595,-163.9335 159.2595,-153.72 159.2595,-144.715"/>
<polygon fill="#191970" stroke="#191970" points="162.7596,-144.6022 159.2595,-134.6022 155.7596,-144.6023 162.7596,-144.6022"/>
</g>
<!-- Node4&#45;&gt;Node6 -->
<g id="edge8" class="edge">
<title>Node4&#45;&gt;Node6</title>
<path fill="none" stroke="#191970" d="M187.4647,-171.4832C248.0415,-149.9699 390.0372,-99.5416 451.291,-77.7878"/>
<polygon fill="#191970" stroke="#191970" points="452.4904,-81.0762 460.7424,-74.4313 450.1477,-74.4798 452.4904,-81.0762"/>
</g>
<!-- Node4&#45;&gt;Node7 -->
<g id="edge9" class="edge">
<title>Node4&#45;&gt;Node7</title>
<path fill="none" stroke="#191970" d="M142.5342,-171.3808C129.3856,-162.8458 111.1919,-149.6947 98.2595,-135 85.5961,-120.611 75.0079,-101.4839 68.0745,-87.265"/>
<polygon fill="#191970" stroke="#191970" points="71.1067,-85.4871 63.6944,-77.9168 64.768,-88.4571 71.1067,-85.4871"/>
</g>
<!-- Node4&#45;&gt;Node8 -->
<g id="edge10" class="edge">
<title>Node4&#45;&gt;Node8</title>
<path fill="none" stroke="#191970" d="M173.301,-171.4789C186.0347,-162.2721 205.2114,-148.1072 221.2595,-135 241.4408,-118.517 263.6252,-98.5925 278.7881,-84.6799"/>
<polygon fill="#191970" stroke="#191970" points="281.4545,-86.982 286.4322,-77.6293 276.7085,-81.8366 281.4545,-86.982"/>
</g>
<!-- Node5&#45;&gt;Node6 -->
<g id="edge5" class="edge">
<title>Node5&#45;&gt;Node6</title>
<path fill="none" stroke="#191970" d="M211.9066,-115.1514C279.94,-103.0708 396.0934,-82.4454 450.4984,-72.7847"/>
<polygon fill="#191970" stroke="#191970" points="451.2895,-76.199 460.5235,-71.0045 450.0656,-69.3069 451.2895,-76.199"/>
</g>
<!-- Node5&#45;&gt;Node7 -->
<g id="edge6" class="edge">
<title>Node5&#45;&gt;Node7</title>
<path fill="none" stroke="#191970" d="M141.3815,-114.3095C125.403,-105.2018 101.8347,-91.7679 84.0399,-81.6248"/>
<polygon fill="#191970" stroke="#191970" points="85.7524,-78.5724 75.3314,-76.661 82.286,-84.6538 85.7524,-78.5724"/>
</g>
<!-- Node5&#45;&gt;Node8 -->
<g id="edge7" class="edge">
<title>Node5&#45;&gt;Node8</title>
<path fill="none" stroke="#191970" d="M183.6134,-114.4408C206.2922,-105.0734 240.2476,-91.0484 265.1373,-80.7678"/>
<polygon fill="#191970" stroke="#191970" points="266.6159,-83.944 274.5223,-76.8914 263.9435,-77.4742 266.6159,-83.944"/>
</g>
<!-- Node10 -->
<g id="node10" class="node">
<title>Node10</title>
<g id="a_node10"><a xlink:href="../../d3/d62/PHNode_8h.html" target="_top" xlink:title="PHNode.h">
<polygon fill="none" stroke="#000000" points="2625.7595,-114.5 2625.7595,-134.5 2690.7595,-134.5 2690.7595,-114.5 2625.7595,-114.5"/>
<text text-anchor="middle" x="2658.2595" y="-121.5" font-family="FreeSans" font-size="10.00" fill="#000000">PHNode.h</text>
</a>
</g>
</g>
<!-- Node9&#45;&gt;Node10 -->
<g id="edge15" class="edge">
<title>Node9&#45;&gt;Node10</title>
<path fill="none" stroke="#191970" d="M2596.668,-171.3095C2607.8664,-162.7987 2624.0355,-150.5102 2636.9971,-140.6594"/>
<polygon fill="#191970" stroke="#191970" points="2639.1232,-143.4397 2644.967,-134.6022 2634.8876,-137.8665 2639.1232,-143.4397"/>
</g>
<!-- Node12 -->
<g id="node12" class="node">
<title>Node12</title>
<polygon fill="none" stroke="#bfbfbf" points="2016.7595,-57.5 2016.7595,-77.5 2061.7595,-77.5 2061.7595,-57.5 2016.7595,-57.5"/>
<text text-anchor="middle" x="2039.2595" y="-64.5" font-family="FreeSans" font-size="10.00" fill="#000000">string</text>
</g>
<!-- Node9&#45;&gt;Node12 -->
<g id="edge20" class="edge">
<title>Node9&#45;&gt;Node12</title>
<path fill="none" stroke="#191970" d="M2573.9945,-171.3346C2559.2407,-155.9048 2528.7401,-126.9967 2496.2595,-114 2418.8941,-83.0432 2163.3084,-71.6412 2072.0227,-68.4969"/>
<polygon fill="#191970" stroke="#191970" points="2072.0848,-64.9972 2061.9736,-68.1616 2071.8513,-71.9933 2072.0848,-64.9972"/>
</g>
<!-- Node13 -->
<g id="node13" class="node">
<title>Node13</title>
<g id="a_node13"><a xlink:href="../../db/dd5/PHPointerList_8h.html" target="_top" xlink:title="PHPointerList.h">
<polygon fill="none" stroke="#000000" points="2390.2595,-57.5 2390.2595,-77.5 2482.2595,-77.5 2482.2595,-57.5 2390.2595,-57.5"/>
<text text-anchor="middle" x="2436.2595" y="-64.5" font-family="FreeSans" font-size="10.00" fill="#000000">PHPointerList.h</text>
</a>
</g>
</g>
<!-- Node9&#45;&gt;Node13 -->
<g id="edge18" class="edge">
<title>Node9&#45;&gt;Node13</title>
<path fill="none" stroke="#191970" d="M2578.4183,-171.0594C2571.2433,-156.5669 2556.5329,-130.301 2537.2595,-114 2520.2376,-99.6033 2498.0188,-88.7326 2478.7561,-81.1366"/>
<polygon fill="#191970" stroke="#191970" points="2479.8772,-77.8188 2469.2853,-77.5657 2477.4075,-84.3687 2479.8772,-77.8188"/>
</g>
<!-- Node11 -->
<g id="node11" class="node">
<title>Node11</title>
<polygon fill="none" stroke="#bfbfbf" points="2634.2595,-57.5 2634.2595,-77.5 2682.2595,-77.5 2682.2595,-57.5 2634.2595,-57.5"/>
<text text-anchor="middle" x="2658.2595" y="-64.5" font-family="FreeSans" font-size="10.00" fill="#000000">iosfwd</text>
</g>
<!-- Node10&#45;&gt;Node11 -->
<g id="edge16" class="edge">
<title>Node10&#45;&gt;Node11</title>
<path fill="none" stroke="#191970" d="M2658.2595,-114.3095C2658.2595,-106.9335 2658.2595,-96.72 2658.2595,-87.715"/>
<polygon fill="#191970" stroke="#191970" points="2661.7596,-87.6022 2658.2595,-77.6022 2654.7596,-87.6023 2661.7596,-87.6022"/>
</g>
<!-- Node10&#45;&gt;Node12 -->
<g id="edge17" class="edge">
<title>Node10&#45;&gt;Node12</title>
<path fill="none" stroke="#191970" d="M2625.4164,-121.4757C2518.2478,-111.6072 2179.4908,-80.4131 2072.1926,-70.5326"/>
<polygon fill="#191970" stroke="#191970" points="2072.2542,-67.0236 2061.9754,-69.5918 2071.6123,-73.9941 2072.2542,-67.0236"/>
</g>
<!-- Node13&#45;&gt;Node14 -->
<g id="edge19" class="edge">
<title>Node13&#45;&gt;Node14</title>
<path fill="none" stroke="#191970" d="M2389.9448,-64.77C2224.5947,-55.0234 1664.9469,-22.0348 1509.5668,-12.8759"/>
<polygon fill="#191970" stroke="#191970" points="1509.695,-9.3775 1499.5063,-12.2829 1509.283,-16.3654 1509.695,-9.3775"/>
</g>
<!-- Node16&#45;&gt;Node10 -->
<g id="edge42" class="edge">
<title>Node16&#45;&gt;Node10</title>
<path fill="none" stroke="#191970" d="M2518.8199,-291.3946C2564.1408,-277.4609 2636.2575,-247.5257 2668.2595,-192 2676.6374,-177.4637 2672.6851,-158.3522 2667.4811,-144.1768"/>
<polygon fill="#191970" stroke="#191970" points="2670.6853,-142.7663 2663.629,-134.8632 2664.2168,-145.4417 2670.6853,-142.7663"/>
</g>
<!-- Node16&#45;&gt;Node12 -->
<g id="edge45" class="edge">
<title>Node16&#45;&gt;Node12</title>
<path fill="none" stroke="#191970" d="M2429.0705,-296.4247C2371.3282,-289.6369 2274.1933,-275.2901 2194.2595,-249 2139.3124,-230.928 2117.0242,-234.0065 2077.2595,-192 2049.9356,-163.1357 2042.2199,-115.1695 2040.0668,-87.9714"/>
<polygon fill="#191970" stroke="#191970" points="2043.543,-87.4724 2039.4436,-77.7028 2036.5559,-87.8964 2043.543,-87.4724"/>
</g>
<!-- Node17 -->
<g id="node17" class="node">
<title>Node17</title>
<g id="a_node17"><a xlink:href="../../dd/d9b/PHDataNode_8h.html" target="_top" xlink:title="PHDataNode.h">
<polygon fill="none" stroke="#000000" points="2715.7595,-171.5 2715.7595,-191.5 2804.7595,-191.5 2804.7595,-171.5 2715.7595,-171.5"/>
<text text-anchor="middle" x="2760.2595" y="-178.5" font-family="FreeSans" font-size="10.00" fill="#000000">PHDataNode.h</text>
</a>
</g>
</g>
<!-- Node16&#45;&gt;Node17 -->
<g id="edge23" class="edge">
<title>Node16&#45;&gt;Node17</title>
<path fill="none" stroke="#191970" d="M2529.2885,-298.4175C2576.5717,-293.5689 2648.0031,-281.0942 2701.2595,-249 2721.1307,-237.0249 2737.8645,-216.1099 2748.3773,-200.7261"/>
<polygon fill="#191970" stroke="#191970" points="2751.5458,-202.276 2754.0916,-191.9916 2745.688,-198.4437 2751.5458,-202.276"/>
</g>
<!-- Node18 -->
<g id="node18" class="node">
<title>Node18</title>
<g id="a_node18"><a xlink:href="../../d3/d79/PHIODataNode_8h.html" target="_top" xlink:title="PHIODataNode.h">
<polygon fill="none" stroke="#000000" points="2203.2595,-228.5 2203.2595,-248.5 2303.2595,-248.5 2303.2595,-228.5 2203.2595,-228.5"/>
<text text-anchor="middle" x="2253.2595" y="-235.5" font-family="FreeSans" font-size="10.00" fill="#000000">PHIODataNode.h</text>
</a>
</g>
</g>
<!-- Node16&#45;&gt;Node18 -->
<g id="edge26" class="edge">
<title>Node16&#45;&gt;Node18</title>
<path fill="none" stroke="#191970" d="M2443.1992,-291.4478C2404.0882,-280.5452 2341.5587,-263.1144 2299.0155,-251.255"/>
<polygon fill="#191970" stroke="#191970" points="2299.7639,-247.8302 2289.1913,-248.5164 2297.8842,-254.5732 2299.7639,-247.8302"/>
</g>
<!-- Node22 -->
<g id="node22" class="node">
<title>Node22</title>
<g id="a_node22"><a xlink:href="../../d8/dfd/PHNodeIterator_8h.html" target="_top" xlink:title="PHNodeIterator.h">
<polygon fill="none" stroke="#000000" points="2385.2595,-114.5 2385.2595,-134.5 2487.2595,-134.5 2487.2595,-114.5 2385.2595,-114.5"/>
<text text-anchor="middle" x="2436.2595" y="-121.5" font-family="FreeSans" font-size="10.00" fill="#000000">PHNodeIterator.h</text>
</a>
</g>
</g>
<!-- Node16&#45;&gt;Node22 -->
<g id="edge43" class="edge">
<title>Node16&#45;&gt;Node22</title>
<path fill="none" stroke="#191970" d="M2478.9236,-291.4242C2477.9399,-269.175 2474.181,-214.3823 2460.2595,-171 2457.2268,-161.5496 2452.4116,-151.6965 2447.8876,-143.5057"/>
<polygon fill="#191970" stroke="#191970" points="2450.8741,-141.6785 2442.8349,-134.7776 2444.816,-145.1855 2450.8741,-141.6785"/>
</g>
<!-- Node24 -->
<g id="node24" class="node">
<title>Node24</title>
<polygon fill="none" stroke="#bfbfbf" points="2800.7595,-57.5 2800.7595,-77.5 2865.7595,-77.5 2865.7595,-57.5 2800.7595,-57.5"/>
<text text-anchor="middle" x="2833.2595" y="-64.5" font-family="FreeSans" font-size="10.00" fill="#000000">TObject.h</text>
</g>
<!-- Node16&#45;&gt;Node24 -->
<g id="edge44" class="edge">
<title>Node16&#45;&gt;Node24</title>
<path fill="none" stroke="#191970" d="M2529.3362,-295.1182C2580.2551,-287.6598 2660.8831,-273.1573 2727.2595,-249 2777.8927,-230.5723 2799.8119,-233.4328 2834.2595,-192 2857.0047,-164.6425 2859.1166,-148.9107 2852.2595,-114 2850.4631,-104.8544 2846.8551,-95.2405 2843.2612,-87.1433"/>
<polygon fill="#191970" stroke="#191970" points="2846.3006,-85.384 2838.8539,-77.8475 2839.9755,-88.3828 2846.3006,-85.384"/>
</g>
<!-- Node17&#45;&gt;Node10 -->
<g id="edge24" class="edge">
<title>Node17&#45;&gt;Node10</title>
<path fill="none" stroke="#191970" d="M2742.0239,-171.3095C2726.2138,-162.4745 2703.1188,-149.5684 2685.1813,-139.5445"/>
<polygon fill="#191970" stroke="#191970" points="2686.774,-136.4252 2676.3371,-134.6022 2683.3592,-142.5358 2686.774,-136.4252"/>
</g>
<!-- Node17&#45;&gt;Node14 -->
<g id="edge25" class="edge">
<title>Node17&#45;&gt;Node14</title>
<path fill="none" stroke="#191970" d="M2758.1906,-171.4452C2752.5202,-146.7875 2734.2013,-83.4093 2691.2595,-57 2639.85,-25.3831 1715.3931,-13.2435 1509.6259,-10.9271"/>
<polygon fill="#191970" stroke="#191970" points="1509.5914,-7.4266 1499.5531,-10.8151 1509.5135,-14.4261 1509.5914,-7.4266"/>
</g>
<!-- Node18&#45;&gt;Node12 -->
<g id="edge41" class="edge">
<title>Node18&#45;&gt;Node12</title>
<path fill="none" stroke="#191970" d="M2203.4765,-228.4604C2163.8379,-219.6265 2112.4163,-206.0198 2096.2595,-192 2079.6361,-177.5754 2057.2392,-118.8818 2046.1179,-87.5065"/>
<polygon fill="#191970" stroke="#191970" points="2049.2828,-85.9529 2042.6824,-77.6653 2042.6739,-88.2601 2049.2828,-85.9529"/>
</g>
<!-- Node18&#45;&gt;Node17 -->
<g id="edge27" class="edge">
<title>Node18&#45;&gt;Node17</title>
<path fill="none" stroke="#191970" d="M2303.4101,-232.9144C2381.432,-224.2169 2536.6059,-206.8886 2668.2595,-192 2680.24,-190.6451 2693.0972,-189.1829 2705.2889,-187.7925"/>
<polygon fill="#191970" stroke="#191970" points="2705.8011,-191.2569 2715.3397,-186.6454 2705.0073,-184.302 2705.8011,-191.2569"/>
</g>
<!-- Node19 -->
<g id="node19" class="node">
<title>Node19</title>
<g id="a_node19"><a xlink:href="../../d9/d53/PHIOManager_8h.html" target="_top" xlink:title="PHIOManager.h">
<polygon fill="none" stroke="#ff0000" points="2181.7595,-114.5 2181.7595,-134.5 2274.7595,-134.5 2274.7595,-114.5 2181.7595,-114.5"/>
<text text-anchor="middle" x="2228.2595" y="-121.5" font-family="FreeSans" font-size="10.00" fill="#000000">PHIOManager.h</text>
</a>
</g>
</g>
<!-- Node18&#45;&gt;Node19 -->
<g id="edge28" class="edge">
<title>Node18&#45;&gt;Node19</title>
<path fill="none" stroke="#191970" d="M2251.0409,-228.3833C2246.9371,-209.6703 2238.0899,-169.3266 2232.7083,-144.7866"/>
<polygon fill="#191970" stroke="#191970" points="2236.0699,-143.7761 2230.509,-134.7579 2229.2324,-145.2756 2236.0699,-143.7761"/>
</g>
<!-- Node20 -->
<g id="node20" class="node">
<title>Node20</title>
<g id="a_node20"><a xlink:href="../../dd/de7/PHNodeIOManager_8h.html" target="_top" xlink:title="PHNodeIOManager.h">
<polygon fill="none" stroke="#ff0000" points="2105.2595,-171.5 2105.2595,-191.5 2225.2595,-191.5 2225.2595,-171.5 2105.2595,-171.5"/>
<text text-anchor="middle" x="2165.2595" y="-178.5" font-family="FreeSans" font-size="10.00" fill="#000000">PHNodeIOManager.h</text>
</a>
</g>
</g>
<!-- Node18&#45;&gt;Node20 -->
<g id="edge30" class="edge">
<title>Node18&#45;&gt;Node20</title>
<path fill="none" stroke="#191970" d="M2237.5268,-228.3095C2224.137,-219.6366 2204.6907,-207.0407 2189.3424,-197.0992"/>
<polygon fill="#191970" stroke="#191970" points="2191.1518,-194.1011 2180.8559,-191.6022 2187.3463,-199.9764 2191.1518,-194.1011"/>
</g>
<!-- Node21 -->
<g id="node21" class="node">
<title>Node21</title>
<g id="a_node21"><a xlink:href="../../db/d17/PHTypedNodeIterator_8h.html" target="_top" xlink:title="PHTypedNodeIterator.h">
<polygon fill="none" stroke="#ff0000" points="2319.2595,-171.5 2319.2595,-191.5 2451.2595,-191.5 2451.2595,-171.5 2319.2595,-171.5"/>
<text text-anchor="middle" x="2385.2595" y="-178.5" font-family="FreeSans" font-size="10.00" fill="#000000">PHTypedNodeIterator.h</text>
</a>
</g>
</g>
<!-- Node18&#45;&gt;Node21 -->
<g id="edge34" class="edge">
<title>Node18&#45;&gt;Node21</title>
<path fill="none" stroke="#191970" d="M2276.5546,-228.4408C2297.6309,-219.3396 2328.8893,-205.8416 2352.4839,-195.6531"/>
<polygon fill="#191970" stroke="#191970" points="2353.9602,-198.8281 2361.7532,-191.6504 2351.1851,-192.4016 2353.9602,-198.8281"/>
</g>
<!-- Node23 -->
<g id="node23" class="node">
<title>Node23</title>
<g id="a_node23"><a xlink:href="../../de/da7/phooldefs_8h.html" target="_top" xlink:title="phooldefs.h">
<polygon fill="none" stroke="#000000" points="2292.7595,-114.5 2292.7595,-134.5 2367.7595,-134.5 2367.7595,-114.5 2292.7595,-114.5"/>
<text text-anchor="middle" x="2330.2595" y="-121.5" font-family="FreeSans" font-size="10.00" fill="#000000">phooldefs.h</text>
</a>
</g>
</g>
<!-- Node18&#45;&gt;Node23 -->
<g id="edge38" class="edge">
<title>Node18&#45;&gt;Node23</title>
<path fill="none" stroke="#191970" d="M2260.0927,-228.3833C2273.0169,-209.2488 2301.2167,-167.4984 2317.6606,-143.1529"/>
<polygon fill="#191970" stroke="#191970" points="2320.634,-145.0038 2323.3309,-134.7579 2314.8332,-141.0857 2320.634,-145.0038"/>
</g>
<!-- Node18&#45;&gt;Node24 -->
<g id="edge40" class="edge">
<title>Node18&#45;&gt;Node24</title>
<path fill="none" stroke="#191970" d="M2303.4603,-237.8265C2434.1422,-235.5924 2777.3342,-226.4703 2814.2595,-192 2842.6354,-165.5106 2840.7915,-115.8832 2836.9957,-87.9512"/>
<polygon fill="#191970" stroke="#191970" points="2840.4035,-87.0919 2835.3895,-77.7587 2833.4889,-88.1816 2840.4035,-87.0919"/>
</g>
<!-- Node19&#45;&gt;Node12 -->
<g id="edge29" class="edge">
<title>Node19&#45;&gt;Node12</title>
<path fill="none" stroke="#191970" d="M2194.9051,-114.4408C2160.2354,-103.9848 2106.3232,-87.7256 2071.9148,-77.3484"/>
<polygon fill="#191970" stroke="#191970" points="2072.4901,-73.8663 2061.9054,-74.3297 2070.4689,-80.5681 2072.4901,-73.8663"/>
</g>
<!-- Node20&#45;&gt;Node6 -->
<g id="edge32" class="edge">
<title>Node20&#45;&gt;Node6</title>
<path fill="none" stroke="#191970" d="M2109.8972,-171.474C2023.2785,-156.2307 1850.2929,-127.5682 1702.2595,-114 1460.1956,-91.8132 673.4479,-72.1131 510.1177,-68.2028"/>
<polygon fill="#191970" stroke="#191970" points="509.9413,-64.6977 499.8608,-67.9584 509.7745,-71.6957 509.9413,-64.6977"/>
</g>
<!-- Node20&#45;&gt;Node12 -->
<g id="edge33" class="edge">
<title>Node20&#45;&gt;Node12</title>
<path fill="none" stroke="#191970" d="M2161.9558,-171.1446C2156.9169,-156.7533 2146.0848,-130.6069 2129.2595,-114 2113.0259,-97.9772 2090.1419,-86.2546 2071.512,-78.5876"/>
<polygon fill="#191970" stroke="#191970" points="2072.5309,-75.2279 2061.9429,-74.8452 2069.9813,-81.7471 2072.5309,-75.2279"/>
</g>
<!-- Node20&#45;&gt;Node19 -->
<g id="edge31" class="edge">
<title>Node20&#45;&gt;Node19</title>
<path fill="none" stroke="#191970" d="M2176.5226,-171.3095C2185.6605,-163.0419 2198.7387,-151.2093 2209.4594,-141.5096"/>
<polygon fill="#191970" stroke="#191970" points="2212.0267,-143.9068 2217.0938,-134.6022 2207.3302,-138.716 2212.0267,-143.9068"/>
</g>
<!-- Node21&#45;&gt;Node22 -->
<g id="edge35" class="edge">
<title>Node21&#45;&gt;Node22</title>
<path fill="none" stroke="#191970" d="M2394.3772,-171.3095C2401.6296,-163.204 2411.9477,-151.672 2420.5277,-142.0826"/>
<polygon fill="#191970" stroke="#191970" points="2423.161,-144.3885 2427.2206,-134.6022 2417.9443,-139.7209 2423.161,-144.3885"/>
</g>
<!-- Node22&#45;&gt;Node12 -->
<g id="edge37" class="edge">
<title>Node22&#45;&gt;Node12</title>
<path fill="none" stroke="#191970" d="M2385.1134,-115.2706C2382.4588,-114.8314 2379.8287,-114.4052 2377.2595,-114 2265.4874,-96.3727 2132.3173,-79.1601 2071.9224,-71.5588"/>
<polygon fill="#191970" stroke="#191970" points="2072.2092,-68.0674 2061.8513,-70.2955 2071.3379,-75.0129 2072.2092,-68.0674"/>
</g>
<!-- Node22&#45;&gt;Node13 -->
<g id="edge36" class="edge">
<title>Node22&#45;&gt;Node13</title>
<path fill="none" stroke="#191970" d="M2436.2595,-114.3095C2436.2595,-106.9335 2436.2595,-96.72 2436.2595,-87.715"/>
<polygon fill="#191970" stroke="#191970" points="2439.7596,-87.6022 2436.2595,-77.6022 2432.7596,-87.6023 2439.7596,-87.6022"/>
</g>
<!-- Node23&#45;&gt;Node12 -->
<g id="edge39" class="edge">
<title>Node23&#45;&gt;Node12</title>
<path fill="none" stroke="#191970" d="M2292.6286,-115.7916C2289.7992,-115.1732 2286.9857,-114.5697 2284.2595,-114 2208.4164,-98.1523 2118.8791,-81.737 2071.86,-73.2927"/>
<polygon fill="#191970" stroke="#191970" points="2072.4062,-69.8349 2061.9458,-71.5173 2071.1722,-76.7253 2072.4062,-69.8349"/>
</g>
<!-- Node33&#45;&gt;Node8 -->
<g id="edge64" class="edge">
<title>Node33&#45;&gt;Node8</title>
<path fill="none" stroke="#191970" d="M1375.2296,-175.963C1174.8723,-155.8035 487.8181,-86.6736 329.8311,-70.7773"/>
<polygon fill="#191970" stroke="#191970" points="330.0914,-67.2859 319.7912,-69.7671 329.3905,-74.2507 330.0914,-67.2859"/>
</g>
<!-- Node33&#45;&gt;Node12 -->
<g id="edge63" class="edge">
<title>Node33&#45;&gt;Node12</title>
<path fill="none" stroke="#191970" d="M1453.079,-171.3492C1473.4664,-162.1714 1504.0708,-148.1255 1530.2595,-135 1547.8592,-126.1792 1550.4308,-119.7477 1569.2595,-114 1651.3906,-88.9284 1913.7587,-73.7547 2006.4459,-69.066"/>
<polygon fill="#191970" stroke="#191970" points="2006.8223,-72.5517 2016.6357,-68.5584 2006.4739,-65.5604 2006.8223,-72.5517"/>
</g>
<!-- Node33&#45;&gt;Node14 -->
<g id="edge62" class="edge">
<title>Node33&#45;&gt;Node14</title>
<path fill="none" stroke="#191970" d="M1375.2495,-174.2506C1331.2844,-165.7984 1279.9578,-148.3488 1299.2595,-114 1326.9385,-64.7431 1388.6163,-36.184 1429.5673,-21.978"/>
<polygon fill="#191970" stroke="#191970" points="1430.8631,-25.2355 1439.2435,-18.7532 1428.6498,-18.5946 1430.8631,-25.2355"/>
</g>
<!-- Node34 -->
<g id="node34" class="node">
<title>Node34</title>
<g id="a_node34"><a xlink:href="../../d2/d92/PHG4HitDefs_8h.html" target="_top" xlink:title="PHG4HitDefs.h">
<polygon fill="none" stroke="#000000" points="1307.7595,-114.5 1307.7595,-134.5 1398.7595,-134.5 1398.7595,-114.5 1307.7595,-114.5"/>
<text text-anchor="middle" x="1353.2595" y="-121.5" font-family="FreeSans" font-size="10.00" fill="#000000">PHG4HitDefs.h</text>
</a>
</g>
</g>
<!-- Node33&#45;&gt;Node34 -->
<g id="edge55" class="edge">
<title>Node33&#45;&gt;Node34</title>
<path fill="none" stroke="#191970" d="M1416.4934,-171.3095C1404.9963,-162.7987 1388.396,-150.5102 1375.0888,-140.6594"/>
<polygon fill="#191970" stroke="#191970" points="1377.0262,-137.7389 1366.9063,-134.6022 1372.8613,-143.3652 1377.0262,-137.7389"/>
</g>
<!-- Node35 -->
<g id="node35" class="node">
<title>Node35</title>
<g id="a_node35"><a xlink:href="../../df/d32/PHObject_8h.html" target="_top" xlink:title="phool/PHObject.h">
<polygon fill="none" stroke="#000000" points="1417.2595,-114.5 1417.2595,-134.5 1521.2595,-134.5 1521.2595,-114.5 1417.2595,-114.5"/>
<text text-anchor="middle" x="1469.2595" y="-121.5" font-family="FreeSans" font-size="10.00" fill="#000000">phool/PHObject.h</text>
</a>
</g>
</g>
<!-- Node33&#45;&gt;Node35 -->
<g id="edge57" class="edge">
<title>Node33&#45;&gt;Node35</title>
<path fill="none" stroke="#191970" d="M1437.2319,-171.3095C1442.6114,-163.4472 1450.1968,-152.3608 1456.6353,-142.9507"/>
<polygon fill="#191970" stroke="#191970" points="1459.5891,-144.8317 1462.3474,-134.6022 1453.8119,-140.8789 1459.5891,-144.8317"/>
</g>
<!-- Node33&#45;&gt;Node36 -->
<g id="edge60" class="edge">
<title>Node33&#45;&gt;Node36</title>
<path fill="none" stroke="#191970" d="M1480.5082,-171.4198C1520.1936,-163.1732 1577.1436,-150.7101 1635.4349,-135.0672"/>
<polygon fill="#191970" stroke="#191970" points="1636.4442,-138.42 1645.1799,-132.4252 1634.6125,-131.6639 1636.4442,-138.42"/>
</g>
<!-- Node37 -->
<g id="node37" class="node">
<title>Node37</title>
<polygon fill="none" stroke="#bfbfbf" points="1577.7595,-114.5 1577.7595,-134.5 1626.7595,-134.5 1626.7595,-114.5 1577.7595,-114.5"/>
<text text-anchor="middle" x="1602.2595" y="-121.5" font-family="FreeSans" font-size="10.00" fill="#000000">climits</text>
</g>
<!-- Node33&#45;&gt;Node37 -->
<g id="edge61" class="edge">
<title>Node33&#45;&gt;Node37</title>
<path fill="none" stroke="#191970" d="M1460.6137,-171.4408C1490.6366,-161.4913 1536.5157,-146.2872 1567.8699,-135.8965"/>
<polygon fill="#191970" stroke="#191970" points="1569.1096,-139.173 1577.5009,-132.7049 1566.9075,-132.5283 1569.1096,-139.173"/>
</g>
<!-- Node34&#45;&gt;Node12 -->
<g id="edge56" class="edge">
<title>Node34&#45;&gt;Node12</title>
<path fill="none" stroke="#191970" d="M1398.8125,-115.3852C1402.003,-114.8757 1405.1754,-114.4066 1408.2595,-114 1636.0716,-83.9617 1912.9052,-71.9655 2006.5309,-68.5827"/>
<polygon fill="#191970" stroke="#191970" points="2006.6561,-72.0805 2016.5262,-68.2294 2006.4088,-65.0849 2006.6561,-72.0805"/>
</g>
<!-- Node35&#45;&gt;Node14 -->
<g id="edge59" class="edge">
<title>Node35&#45;&gt;Node14</title>
<path fill="none" stroke="#191970" d="M1469.2595,-114.3833C1469.2595,-95.6703 1469.2595,-55.3266 1469.2595,-30.7866"/>
<polygon fill="#191970" stroke="#191970" points="1472.7596,-30.7579 1469.2595,-20.7579 1465.7596,-30.758 1472.7596,-30.7579"/>
</g>
<!-- Node35&#45;&gt;Node24 -->
<g id="edge58" class="edge">
<title>Node35&#45;&gt;Node24</title>
<path fill="none" stroke="#191970" d="M1521.3573,-118.3068C1536.7613,-116.6713 1553.6723,-115.067 1569.2595,-114 2067.0179,-79.9273 2193.0352,-104.4016 2691.2595,-78 2724.5308,-76.2369 2762.1293,-73.4198 2790.2759,-71.1473"/>
<polygon fill="#191970" stroke="#191970" points="2790.8901,-74.6088 2800.5719,-70.3063 2790.3202,-67.6321 2790.8901,-74.6088"/>
</g>
<!-- Node38&#45;&gt;Node12 -->
<g id="edge69" class="edge">
<title>Node38&#45;&gt;Node12</title>
<path fill="none" stroke="#191970" d="M1786.7898,-171.4171C1817.9391,-158.1053 1874.6054,-134.0128 1923.2595,-114 1951.5268,-102.3728 1983.8109,-89.4611 2007.131,-80.1996"/>
<polygon fill="#191970" stroke="#191970" points="2008.5335,-83.4086 2016.5386,-76.4682 2005.9527,-76.9017 2008.5335,-83.4086"/>
</g>
<!-- Node38&#45;&gt;Node14 -->
<g id="edge68" class="edge">
<title>Node38&#45;&gt;Node14</title>
<path fill="none" stroke="#191970" d="M1758.7452,-171.3378C1747.3513,-146.9977 1714.9023,-85.2861 1667.2595,-57 1617.9968,-27.7522 1551.6441,-16.8998 1509.6525,-12.8736"/>
<polygon fill="#191970" stroke="#191970" points="1509.7932,-9.3727 1499.5268,-11.9901 1509.1847,-16.3462 1509.7932,-9.3727"/>
</g>
<!-- Node38&#45;&gt;Node35 -->
<g id="edge66" class="edge">
<title>Node38&#45;&gt;Node35</title>
<path fill="none" stroke="#191970" d="M1711.3749,-171.4408C1661.0435,-161.6826 1584.6413,-146.87 1531.1606,-136.5012"/>
<polygon fill="#191970" stroke="#191970" points="1531.6023,-133.0218 1521.1189,-134.5544 1530.2699,-139.8938 1531.6023,-133.0218"/>
</g>
<!-- Node38&#45;&gt;Node36 -->
<g id="edge67" class="edge">
<title>Node38&#45;&gt;Node36</title>
<path fill="none" stroke="#191970" d="M1746.4541,-171.3095C1732.0177,-162.5556 1710.9903,-149.8049 1694.5259,-139.8211"/>
<polygon fill="#191970" stroke="#191970" points="1696.2848,-136.7945 1685.9193,-134.6022 1692.6553,-142.7801 1696.2848,-136.7945"/>
</g>
<!-- Node39&#45;&gt;Node14 -->
<g id="edge74" class="edge">
<title>Node39&#45;&gt;Node14</title>
<path fill="none" stroke="#191970" d="M1637.4706,-171.4776C1679.1925,-161.979 1722.0786,-144.4903 1702.2595,-114 1659.4274,-48.1059 1563.9247,-23.8285 1509.4186,-15.1373"/>
<polygon fill="#191970" stroke="#191970" points="1509.8231,-11.659 1499.4159,-13.6441 1508.7895,-18.5822 1509.8231,-11.659"/>
</g>
<!-- Node39&#45;&gt;Node35 -->
<g id="edge71" class="edge">
<title>Node39&#45;&gt;Node35</title>
<path fill="none" stroke="#191970" d="M1553.8451,-171.3095C1537.88,-162.4745 1514.5586,-149.5684 1496.4452,-139.5445"/>
<polygon fill="#191970" stroke="#191970" points="1497.9587,-136.3819 1487.5144,-134.6022 1494.5692,-142.5066 1497.9587,-136.3819"/>
</g>
<!-- Node39&#45;&gt;Node36 -->
<g id="edge72" class="edge">
<title>Node39&#45;&gt;Node36</title>
<path fill="none" stroke="#191970" d="M1589.6011,-171.3095C1604.4983,-162.5556 1626.1967,-149.8049 1643.1866,-139.8211"/>
<polygon fill="#191970" stroke="#191970" points="1645.2195,-142.6862 1652.0679,-134.6022 1641.6731,-136.651 1645.2195,-142.6862"/>
</g>
<!-- Node39&#45;&gt;Node37 -->
<g id="edge73" class="edge">
<title>Node39&#45;&gt;Node37</title>
<path fill="none" stroke="#191970" d="M1577.6229,-171.3095C1581.6756,-163.6093 1587.356,-152.8166 1592.2411,-143.5349"/>
<polygon fill="#191970" stroke="#191970" points="1595.3822,-145.0816 1596.9425,-134.6022 1589.1878,-141.8213 1595.3822,-145.0816"/>
</g>
<!-- Node40&#45;&gt;Node6 -->
<g id="edge79" class="edge">
<title>Node40&#45;&gt;Node6</title>
<path fill="none" stroke="#191970" d="M523.9998,-171.3833C516.0496,-152.5017 498.827,-111.598 488.5235,-87.1272"/>
<polygon fill="#191970" stroke="#191970" points="491.685,-85.6161 484.5786,-77.7579 485.2335,-88.3325 491.685,-85.6161"/>
</g>
<!-- Node40&#45;&gt;Node8 -->
<g id="edge80" class="edge">
<title>Node40&#45;&gt;Node8</title>
<path fill="none" stroke="#191970" d="M499.3482,-171.4436C475.3324,-162.7521 440.4936,-149.3548 411.2595,-135 379.141,-119.2289 343.9606,-97.6993 321.3002,-83.2337"/>
<polygon fill="#191970" stroke="#191970" points="322.9908,-80.1595 312.6876,-77.6904 319.2022,-86.0457 322.9908,-80.1595"/>
</g>
<!-- Node40&#45;&gt;Node14 -->
<g id="edge77" class="edge">
<title>Node40&#45;&gt;Node14</title>
<path fill="none" stroke="#191970" d="M536.3626,-171.3123C556.9172,-146.3511 614.036,-82.3352 678.2595,-57 748.3192,-29.3625 1277.3583,-14.9816 1428.8439,-11.4015"/>
<polygon fill="#191970" stroke="#191970" points="1429.1714,-14.8949 1439.0869,-11.1624 1429.0079,-7.8968 1429.1714,-14.8949"/>
</g>
<!-- Node40&#45;&gt;Node35 -->
<g id="edge76" class="edge">
<title>Node40&#45;&gt;Node35</title>
<path fill="none" stroke="#191970" d="M622.3282,-180.1574C781.742,-177.0816 1115.253,-167.19 1406.7232,-135.0511"/>
<polygon fill="#191970" stroke="#191970" points="1407.5225,-138.4838 1417.0737,-133.8984 1406.7477,-131.5268 1407.5225,-138.4838"/>
</g>
<!-- Node41 -->
<g id="node41" class="node">
<title>Node41</title>
<polygon fill="none" stroke="#bfbfbf" points="420.2595,-114.5 420.2595,-134.5 474.2595,-134.5 474.2595,-114.5 420.2595,-114.5"/>
<text text-anchor="middle" x="447.2595" y="-121.5" font-family="FreeSans" font-size="10.00" fill="#000000">iterator</text>
</g>
<!-- Node40&#45;&gt;Node41 -->
<g id="edge78" class="edge">
<title>Node40&#45;&gt;Node41</title>
<path fill="none" stroke="#191970" d="M513.7783,-171.3095C501.5688,-162.7177 483.8882,-150.2758 469.8238,-140.3786"/>
<polygon fill="#191970" stroke="#191970" points="471.8076,-137.4949 461.6153,-134.6022 467.7791,-143.2195 471.8076,-137.4949"/>
</g>
<!-- Node42&#45;&gt;Node6 -->
<g id="edge89" class="edge">
<title>Node42&#45;&gt;Node6</title>
<path fill="none" stroke="#191970" d="M1174.3928,-171.4832C1015.7393,-147.7164 621.5086,-88.6595 510.0441,-71.9618"/>
<polygon fill="#191970" stroke="#191970" points="510.2769,-68.4577 499.8687,-70.4375 509.2398,-75.3805 510.2769,-68.4577"/>
</g>
<!-- Node42&#45;&gt;Node8 -->
<g id="edge91" class="edge">
<title>Node42&#45;&gt;Node8</title>
<path fill="none" stroke="#191970" d="M1173.1631,-180.4274C1018.9534,-177.4561 647.0859,-167.0936 526.2595,-135 505.7038,-129.5401 503.2411,-121.2857 483.2595,-114 430.9504,-94.927 367.5879,-80.926 329.9501,-73.512"/>
<polygon fill="#191970" stroke="#191970" points="330.5297,-70.0593 320.047,-71.5968 329.2005,-76.9319 330.5297,-70.0593"/>
</g>
<!-- Node42&#45;&gt;Node12 -->
<g id="edge90" class="edge">
<title>Node42&#45;&gt;Node12</title>
<path fill="none" stroke="#191970" d="M1246.4029,-171.4916C1254.9806,-155.9965 1273.8088,-126.6683 1299.2595,-114 1363.1435,-82.2011 1871.5681,-70.6017 2006.488,-68.0669"/>
<polygon fill="#191970" stroke="#191970" points="2006.6774,-71.5641 2016.6114,-67.8806 2006.5486,-64.5652 2006.6774,-71.5641"/>
</g>
<!-- Node42&#45;&gt;Node14 -->
<g id="edge88" class="edge">
<title>Node42&#45;&gt;Node14</title>
<path fill="none" stroke="#191970" d="M1245.3627,-171.45C1255.4885,-147.8904 1283.9524,-88.702 1326.2595,-57 1356.5725,-34.2855 1398.462,-22.3816 1429.067,-16.3306"/>
<polygon fill="#191970" stroke="#191970" points="1429.7845,-19.7573 1438.9805,-14.4957 1428.5105,-12.8742 1429.7845,-19.7573"/>
</g>
<!-- Node42&#45;&gt;Node34 -->
<g id="edge84" class="edge">
<title>Node42&#45;&gt;Node34</title>
<path fill="none" stroke="#191970" d="M1261.025,-171.4408C1278.59,-162.5014 1304.49,-149.3202 1324.3761,-139.1996"/>
<polygon fill="#191970" stroke="#191970" points="1325.9901,-142.3054 1333.3148,-134.6504 1322.8151,-136.0669 1325.9901,-142.3054"/>
</g>
<!-- Node42&#45;&gt;Node35 -->
<g id="edge85" class="edge">
<title>Node42&#45;&gt;Node35</title>
<path fill="none" stroke="#191970" d="M1281.4964,-171.4408C1319.8798,-161.8449 1377.8143,-147.3613 1419.1705,-137.0222"/>
<polygon fill="#191970" stroke="#191970" points="1420.1894,-140.3753 1429.0419,-134.5544 1418.4916,-133.5843 1420.1894,-140.3753"/>
</g>
<!-- Node42&#45;&gt;Node36 -->
<g id="edge86" class="edge">
<title>Node42&#45;&gt;Node36</title>
<path fill="none" stroke="#191970" d="M1309.3676,-175.067C1401.0703,-166.1458 1560.4553,-149.6628 1635.2724,-134.807"/>
<polygon fill="#191970" stroke="#191970" points="1636.1792,-138.1933 1645.2523,-132.7226 1634.7479,-131.3411 1636.1792,-138.1933"/>
</g>
<!-- Node42&#45;&gt;Node37 -->
<g id="edge87" class="edge">
<title>Node42&#45;&gt;Node37</title>
<path fill="none" stroke="#191970" d="M1304.968,-171.4408C1381.3477,-159.3808 1506.6231,-139.6005 1567.2349,-130.0302"/>
<polygon fill="#191970" stroke="#191970" points="1568.097,-133.4375 1577.4287,-128.4206 1567.0052,-126.5232 1568.097,-133.4375"/>
</g>
<!-- Node43 -->
<g id="node43" class="node">
<title>Node43</title>
<g id="a_node43"><a xlink:href="../../d5/d61/PHG4CellDefs_8h.html" target="_top" xlink:title="PHG4CellDefs.h">
<polygon fill="none" stroke="#000000" points="1079.7595,-114.5 1079.7595,-134.5 1174.7595,-134.5 1174.7595,-114.5 1079.7595,-114.5"/>
<text text-anchor="middle" x="1127.2595" y="-121.5" font-family="FreeSans" font-size="10.00" fill="#000000">PHG4CellDefs.h</text>
</a>
</g>
</g>
<!-- Node42&#45;&gt;Node43 -->
<g id="edge82" class="edge">
<title>Node42&#45;&gt;Node43</title>
<path fill="none" stroke="#191970" d="M1221.141,-171.4408C1203.2623,-162.5014 1176.8998,-149.3202 1156.6586,-139.1996"/>
<polygon fill="#191970" stroke="#191970" points="1158.0698,-135.9921 1147.5603,-134.6504 1154.9393,-142.2531 1158.0698,-135.9921"/>
</g>
<!-- Node44 -->
<g id="node44" class="node">
<title>Node44</title>
<polygon fill="none" stroke="#bfbfbf" points="1101.7595,-57.5 1101.7595,-77.5 1152.7595,-77.5 1152.7595,-57.5 1101.7595,-57.5"/>
<text text-anchor="middle" x="1127.2595" y="-64.5" font-family="FreeSans" font-size="10.00" fill="#000000">cstdint</text>
</g>
<!-- Node43&#45;&gt;Node44 -->
<g id="edge83" class="edge">
<title>Node43&#45;&gt;Node44</title>
<path fill="none" stroke="#191970" d="M1127.2595,-114.3095C1127.2595,-106.9335 1127.2595,-96.72 1127.2595,-87.715"/>
<polygon fill="#191970" stroke="#191970" points="1130.7596,-87.6022 1127.2595,-77.6022 1123.7596,-87.6023 1130.7596,-87.6022"/>
</g>
<!-- Node48&#45;&gt;Node12 -->
<g id="edge104" class="edge">
<title>Node48&#45;&gt;Node12</title>
<path fill="none" stroke="#191970" d="M1947.3728,-285.3313C1959.2835,-275.9423 1973.1752,-263.1816 1982.2595,-249 1984.5169,-245.4759 2018.9506,-133.692 2033.179,-87.3373"/>
<polygon fill="#191970" stroke="#191970" points="2036.5978,-88.1265 2036.1844,-77.5397 2029.9056,-86.0736 2036.5978,-88.1265"/>
</g>
<!-- Node49 -->
<g id="node49" class="node">
<title>Node49</title>
<g id="a_node49"><a xlink:href="../../d5/dc2/SubsysReco_8h.html" target="_top" xlink:title="fun4all/SubsysReco.h">
<polygon fill="none" stroke="#000000" points="1849.2595,-228.5 1849.2595,-248.5 1973.2595,-248.5 1973.2595,-228.5 1849.2595,-228.5"/>
<text text-anchor="middle" x="1911.2595" y="-235.5" font-family="FreeSans" font-size="10.00" fill="#000000">fun4all/SubsysReco.h</text>
</a>
</g>
</g>
<!-- Node48&#45;&gt;Node49 -->
<g id="edge99" class="edge">
<title>Node48&#45;&gt;Node49</title>
<path fill="none" stroke="#191970" d="M1920.9116,-285.2759C1919.2401,-277.1754 1917.2016,-267.2966 1915.4295,-258.7084"/>
<polygon fill="#191970" stroke="#191970" points="1918.8236,-257.8376 1913.3748,-248.7513 1911.968,-259.2523 1918.8236,-257.8376"/>
</g>
<!-- Node49&#45;&gt;Node12 -->
<g id="edge103" class="edge">
<title>Node49&#45;&gt;Node12</title>
<path fill="none" stroke="#191970" d="M1918.9415,-228.3861C1925.8593,-219.1167 1936.155,-204.9122 1944.2595,-192 1965.3038,-158.4717 1962.5998,-144.9664 1987.2595,-114 1996.1006,-102.8978 2007.7439,-92.216 2017.7712,-83.8961"/>
<polygon fill="#191970" stroke="#191970" points="2020.1182,-86.5002 2025.7172,-77.5056 2015.7312,-81.0454 2020.1182,-86.5002"/>
</g>
<!-- Node50 -->
<g id="node50" class="node">
<title>Node50</title>
<g id="a_node50"><a xlink:href="../../d2/de7/Fun4AllBase_8h.html" target="_top" xlink:title="Fun4AllBase.h">
<polygon fill="none" stroke="#000000" points="1847.7595,-171.5 1847.7595,-191.5 1934.7595,-191.5 1934.7595,-171.5 1847.7595,-171.5"/>
<text text-anchor="middle" x="1891.2595" y="-178.5" font-family="FreeSans" font-size="10.00" fill="#000000">Fun4AllBase.h</text>
</a>
</g>
</g>
<!-- Node49&#45;&gt;Node50 -->
<g id="edge100" class="edge">
<title>Node49&#45;&gt;Node50</title>
<path fill="none" stroke="#191970" d="M1907.6839,-228.3095C1905.0389,-220.7714 1901.3541,-210.2696 1898.1447,-201.123"/>
<polygon fill="#191970" stroke="#191970" points="1901.4176,-199.8794 1894.8041,-191.6022 1894.8124,-202.1971 1901.4176,-199.8794"/>
</g>
<!-- Node50&#45;&gt;Node12 -->
<g id="edge102" class="edge">
<title>Node50&#45;&gt;Node12</title>
<path fill="none" stroke="#191970" d="M1898.1228,-171.2695C1908.0714,-157.0265 1927.6843,-131.0552 1949.2595,-114 1966.7214,-100.1964 1988.9149,-88.676 2006.8937,-80.5551"/>
<polygon fill="#191970" stroke="#191970" points="2008.6324,-83.6148 2016.3914,-76.4003 2005.8269,-77.2015 2008.6324,-83.6148"/>
</g>
<!-- Node50&#45;&gt;Node37 -->
<g id="edge101" class="edge">
<title>Node50&#45;&gt;Node37</title>
<path fill="none" stroke="#191970" d="M1847.5996,-172.7814C1844.4401,-172.1716 1841.3016,-171.5724 1838.2595,-171 1751.7027,-154.7146 1726.5833,-156.3563 1636.822,-134.9063"/>
<polygon fill="#191970" stroke="#191970" points="1637.5864,-131.4904 1627.0437,-132.5405 1635.9402,-138.2941 1637.5864,-131.4904"/>
</g>
</g>
</svg>
