<?xml version="1.0" encoding="UTF-8" standalone="no"?>
<!DOCTYPE svg PUBLIC "-//W3C//DTD SVG 1.1//EN"
 "http://www.w3.org/Graphics/SVG/1.1/DTD/svg11.dtd">
<!-- Generated by graphviz version 2.40.1 (20161225.0304)
 -->
<!-- Title: coresoftware/blob/master/simulation/g4simulation/g4gdml/PHG4GDMLWriteMaterials.hh Pages: 1 -->
<svg width="1105pt" height="293pt"
 viewBox="0.00 0.00 1105.42 293.00" xmlns="http://www.w3.org/2000/svg" xmlns:xlink="http://www.w3.org/1999/xlink">
<g id="graph0" class="graph" transform="scale(1 1) rotate(0) translate(4 289)">
<title>coresoftware/blob/master/simulation/g4simulation/g4gdml/PHG4GDMLWriteMaterials.hh</title>
<!-- Node1 -->
<g id="node1" class="node">
<title>Node1</title>
<polygon fill="#bfbfbf" stroke="#000000" points="289.9213,-240.5 289.9213,-284.5 497.9213,-284.5 497.9213,-240.5 289.9213,-240.5"/>
<text text-anchor="start" x="297.9213" y="-271.5" font-family="FreeSans" font-size="10.00" fill="#000000">coresoftware/blob/master</text>
<text text-anchor="start" x="297.9213" y="-259.5" font-family="FreeSans" font-size="10.00" fill="#000000">/simulation/g4simulation</text>
<text text-anchor="middle" x="393.9213" y="-247.5" font-family="FreeSans" font-size="10.00" fill="#000000">/g4gdml/PHG4GDMLWriteMaterials.hh</text>
</g>
<!-- Node2 -->
<g id="node2" class="node">
<title>Node2</title>
<polygon fill="none" stroke="#bfbfbf" points="336.4213,-126.5 336.4213,-146.5 451.4213,-146.5 451.4213,-126.5 336.4213,-126.5"/>
<text text-anchor="middle" x="393.9213" y="-133.5" font-family="FreeSans" font-size="10.00" fill="#000000">Geant4/G4Types.hh</text>
</g>
<!-- Node1&#45;&gt;Node2 -->
<g id="edge1" class="edge">
<title>Node1&#45;&gt;Node2</title>
<path fill="none" stroke="#191970" d="M393.9213,-240.2638C393.9213,-216.6931 393.9213,-179.7811 393.9213,-156.9234"/>
<polygon fill="#191970" stroke="#191970" points="397.4214,-156.6736 393.9213,-146.6736 390.4214,-156.6736 397.4214,-156.6736"/>
</g>
<!-- Node3 -->
<g id="node3" class="node">
<title>Node3</title>
<polygon fill="none" stroke="#bfbfbf" points="455.4213,-.5 455.4213,-20.5 504.4213,-20.5 504.4213,-.5 455.4213,-.5"/>
<text text-anchor="middle" x="479.9213" y="-7.5" font-family="FreeSans" font-size="10.00" fill="#000000">vector</text>
</g>
<!-- Node1&#45;&gt;Node3 -->
<g id="edge2" class="edge">
<title>Node1&#45;&gt;Node3</title>
<path fill="none" stroke="#191970" d="M289.7739,-244.733C150.8149,-216.7907 -68.0038,-155.3891 20.9213,-57 49.2555,-25.6503 342.7848,-14.3878 445.0316,-11.3984"/>
<polygon fill="#191970" stroke="#191970" points="445.2513,-14.8936 455.148,-11.1115 445.0528,-7.8964 445.2513,-14.8936"/>
</g>
<!-- Node4 -->
<g id="node4" class="node">
<title>Node4</title>
<g id="a_node4"><a xlink:href="../../dc/d5e/PHG4GDMLWriteDefine_8hh.html" target="_top" xlink:title="PHG4GDMLWriteDefine.hh">
<polygon fill="none" stroke="#000000" points="452.9213,-183.5 452.9213,-203.5 600.9213,-203.5 600.9213,-183.5 452.9213,-183.5"/>
<text text-anchor="middle" x="526.9213" y="-190.5" font-family="FreeSans" font-size="10.00" fill="#000000">PHG4GDMLWriteDefine.hh</text>
</a>
</g>
</g>
<!-- Node1&#45;&gt;Node4 -->
<g id="edge3" class="edge">
<title>Node1&#45;&gt;Node4</title>
<path fill="none" stroke="#191970" d="M436.369,-240.4783C456.6966,-229.9323 480.4896,-217.5886 498.5842,-208.2012"/>
<polygon fill="#191970" stroke="#191970" points="500.2138,-211.2988 507.4785,-203.5869 496.9901,-205.0852 500.2138,-211.2988"/>
</g>
<!-- Node4&#45;&gt;Node2 -->
<g id="edge4" class="edge">
<title>Node4&#45;&gt;Node2</title>
<path fill="none" stroke="#191970" d="M503.4497,-183.4408C482.2137,-174.3396 450.7185,-160.8416 426.9451,-150.6531"/>
<polygon fill="#191970" stroke="#191970" points="428.1758,-147.3727 417.6056,-146.6504 425.4183,-153.8067 428.1758,-147.3727"/>
</g>
<!-- Node5 -->
<g id="node5" class="node">
<title>Node5</title>
<polygon fill="none" stroke="#bfbfbf" points="602.4213,-126.5 602.4213,-146.5 749.4213,-146.5 749.4213,-126.5 602.4213,-126.5"/>
<text text-anchor="middle" x="675.9213" y="-133.5" font-family="FreeSans" font-size="10.00" fill="#000000">Geant4/G4ThreeVector.hh</text>
</g>
<!-- Node4&#45;&gt;Node5 -->
<g id="edge5" class="edge">
<title>Node4&#45;&gt;Node5</title>
<path fill="none" stroke="#191970" d="M553.2165,-183.4408C577.3988,-174.1898 613.4561,-160.3961 640.2328,-150.1527"/>
<polygon fill="#191970" stroke="#191970" points="641.5494,-153.3964 649.6388,-146.5544 639.0483,-146.8585 641.5494,-153.3964"/>
</g>
<!-- Node6 -->
<g id="node6" class="node">
<title>Node6</title>
<polygon fill="none" stroke="#bfbfbf" points="767.4213,-126.5 767.4213,-146.5 928.4213,-146.5 928.4213,-126.5 767.4213,-126.5"/>
<text text-anchor="middle" x="847.9213" y="-133.5" font-family="FreeSans" font-size="10.00" fill="#000000">Geant4/G4RotationMatrix.hh</text>
</g>
<!-- Node4&#45;&gt;Node6 -->
<g id="edge6" class="edge">
<title>Node4&#45;&gt;Node6</title>
<path fill="none" stroke="#191970" d="M583.5707,-183.4408C638.9522,-173.6067 723.2437,-158.639 781.6946,-148.2599"/>
<polygon fill="#191970" stroke="#191970" points="782.3349,-151.701 791.5689,-146.5065 781.111,-144.8088 782.3349,-151.701"/>
</g>
<!-- Node7 -->
<g id="node7" class="node">
<title>Node7</title>
<g id="a_node7"><a xlink:href="../../d2/dae/PHG4GDMLWrite_8hh.html" target="_top" xlink:title="PHG4GDMLWrite.hh">
<polygon fill="none" stroke="#000000" points="469.4213,-126.5 469.4213,-146.5 584.4213,-146.5 584.4213,-126.5 469.4213,-126.5"/>
<text text-anchor="middle" x="526.9213" y="-133.5" font-family="FreeSans" font-size="10.00" fill="#000000">PHG4GDMLWrite.hh</text>
</a>
</g>
</g>
<!-- Node4&#45;&gt;Node7 -->
<g id="edge7" class="edge">
<title>Node4&#45;&gt;Node7</title>
<path fill="none" stroke="#191970" d="M526.9213,-183.3095C526.9213,-175.9335 526.9213,-165.72 526.9213,-156.715"/>
<polygon fill="#191970" stroke="#191970" points="530.4214,-156.6022 526.9213,-146.6022 523.4214,-156.6023 530.4214,-156.6022"/>
</g>
<!-- Node8 -->
<g id="node8" class="node">
<title>Node8</title>
<polygon fill="none" stroke="#bfbfbf" points="1058.4213,-63.5 1058.4213,-83.5 1097.4213,-83.5 1097.4213,-63.5 1058.4213,-63.5"/>
<text text-anchor="middle" x="1077.9213" y="-70.5" font-family="FreeSans" font-size="10.00" fill="#000000">map</text>
</g>
<!-- Node7&#45;&gt;Node8 -->
<g id="edge8" class="edge">
<title>Node7&#45;&gt;Node8</title>
<path fill="none" stroke="#191970" d="M584.6262,-127.1691C587.7672,-126.7511 590.881,-126.3577 593.9213,-126 795.8259,-102.2446 856.0462,-151.1737 1049.9213,-90 1051.549,-89.4864 1053.183,-88.8638 1054.7991,-88.1651"/>
<polygon fill="#191970" stroke="#191970" points="1056.4196,-91.2674 1063.6902,-83.561 1053.2007,-85.0514 1056.4196,-91.2674"/>
</g>
<!-- Node9 -->
<g id="node9" class="node">
<title>Node9</title>
<polygon fill="none" stroke="#bfbfbf" points="30.4213,-63.5 30.4213,-83.5 161.4213,-83.5 161.4213,-63.5 30.4213,-63.5"/>
<text text-anchor="middle" x="95.9213" y="-70.5" font-family="FreeSans" font-size="10.00" fill="#000000">xercesc/dom/DOM.hpp</text>
</g>
<!-- Node7&#45;&gt;Node9 -->
<g id="edge9" class="edge">
<title>Node7&#45;&gt;Node9</title>
<path fill="none" stroke="#191970" d="M469.3459,-127.2213C466.4986,-126.7998 463.6784,-126.3903 460.9213,-126 332.3254,-107.7944 298.9266,-111.9767 170.9213,-90 163.5208,-88.7294 155.7465,-87.2193 148.1211,-85.6366"/>
<polygon fill="#191970" stroke="#191970" points="148.7363,-82.1891 138.2264,-83.528 147.2773,-89.0354 148.7363,-82.1891"/>
</g>
<!-- Node10 -->
<g id="node10" class="node">
<title>Node10</title>
<polygon fill="none" stroke="#bfbfbf" points="179.9213,-57.5 179.9213,-89.5 337.9213,-89.5 337.9213,-57.5 179.9213,-57.5"/>
<text text-anchor="start" x="187.9213" y="-76.5" font-family="FreeSans" font-size="10.00" fill="#000000">xercesc/framework/LocalFile</text>
<text text-anchor="middle" x="258.9213" y="-64.5" font-family="FreeSans" font-size="10.00" fill="#000000">FormatTarget.hpp</text>
</g>
<!-- Node7&#45;&gt;Node10 -->
<g id="edge10" class="edge">
<title>Node7&#45;&gt;Node10</title>
<path fill="none" stroke="#191970" d="M484.1595,-126.4478C444.6184,-117.1527 384.8921,-103.1126 336.8766,-91.8253"/>
<polygon fill="#191970" stroke="#191970" points="337.6655,-88.4154 327.1299,-89.5341 336.0636,-95.2297 337.6655,-88.4154"/>
</g>
<!-- Node11 -->
<g id="node11" class="node">
<title>Node11</title>
<polygon fill="none" stroke="#bfbfbf" points="356.4213,-63.5 356.4213,-83.5 521.4213,-83.5 521.4213,-63.5 356.4213,-63.5"/>
<text text-anchor="middle" x="438.9213" y="-70.5" font-family="FreeSans" font-size="10.00" fill="#000000">xercesc/util/PlatformUtils.hpp</text>
</g>
<!-- Node7&#45;&gt;Node11 -->
<g id="edge11" class="edge">
<title>Node7&#45;&gt;Node11</title>
<path fill="none" stroke="#191970" d="M512.7826,-126.378C498.9267,-116.4584 477.5905,-101.1837 461.4061,-89.597"/>
<polygon fill="#191970" stroke="#191970" points="463.1934,-86.5722 453.0249,-83.5969 459.1186,-92.264 463.1934,-86.5722"/>
</g>
<!-- Node12 -->
<g id="node12" class="node">
<title>Node12</title>
<polygon fill="none" stroke="#bfbfbf" points="539.4213,-63.5 539.4213,-83.5 690.4213,-83.5 690.4213,-63.5 539.4213,-63.5"/>
<text text-anchor="middle" x="614.9213" y="-70.5" font-family="FreeSans" font-size="10.00" fill="#000000">xercesc/util/XMLString.hpp</text>
</g>
<!-- Node7&#45;&gt;Node12 -->
<g id="edge12" class="edge">
<title>Node7&#45;&gt;Node12</title>
<path fill="none" stroke="#191970" d="M541.06,-126.378C554.9159,-116.4584 576.2521,-101.1837 592.4365,-89.597"/>
<polygon fill="#191970" stroke="#191970" points="594.724,-92.264 600.8177,-83.5969 590.6491,-86.5722 594.724,-92.264"/>
</g>
<!-- Node13 -->
<g id="node13" class="node">
<title>Node13</title>
<polygon fill="none" stroke="#bfbfbf" points="708.4213,-63.5 708.4213,-83.5 859.4213,-83.5 859.4213,-63.5 708.4213,-63.5"/>
<text text-anchor="middle" x="783.9213" y="-70.5" font-family="FreeSans" font-size="10.00" fill="#000000">Geant4/G4Transform3D.hh</text>
</g>
<!-- Node7&#45;&gt;Node13 -->
<g id="edge13" class="edge">
<title>Node7&#45;&gt;Node13</title>
<path fill="none" stroke="#191970" d="M567.9279,-126.4478C612.779,-115.4532 684.7123,-97.8197 733.1089,-85.956"/>
<polygon fill="#191970" stroke="#191970" points="734.1816,-89.2967 743.0608,-83.5164 732.515,-82.498 734.1816,-89.2967"/>
</g>
<!-- Node14 -->
<g id="node14" class="node">
<title>Node14</title>
<g id="a_node14"><a xlink:href="../../d9/df8/PHG4GDMLAuxStructType_8hh.html" target="_top" xlink:title="PHG4GDMLAuxStructType.hh">
<polygon fill="none" stroke="#000000" points="877.4213,-63.5 877.4213,-83.5 1040.4213,-83.5 1040.4213,-63.5 877.4213,-63.5"/>
<text text-anchor="middle" x="958.9213" y="-70.5" font-family="FreeSans" font-size="10.00" fill="#000000">PHG4GDMLAuxStructType.hh</text>
</a>
</g>
</g>
<!-- Node7&#45;&gt;Node14 -->
<g id="edge14" class="edge">
<title>Node7&#45;&gt;Node14</title>
<path fill="none" stroke="#191970" d="M584.6509,-127.358C587.7856,-126.8912 590.8912,-126.4357 593.9213,-126 715.9315,-108.4562 747.1482,-109.1203 868.9213,-90 877.9105,-88.5885 887.3829,-86.9826 896.6723,-85.34"/>
<polygon fill="#191970" stroke="#191970" points="897.4238,-88.7611 906.6488,-83.5505 896.1879,-81.8711 897.4238,-88.7611"/>
</g>
<!-- Node14&#45;&gt;Node3 -->
<g id="edge15" class="edge">
<title>Node14&#45;&gt;Node3</title>
<path fill="none" stroke="#191970" d="M907.1388,-63.4362C894.6503,-61.1671 881.3296,-58.8772 868.9213,-57 738.6974,-37.2991 582.9105,-20.7969 514.7409,-13.9263"/>
<polygon fill="#191970" stroke="#191970" points="514.8689,-10.4217 504.5697,-12.9073 514.171,-17.3868 514.8689,-10.4217"/>
</g>
</g>
</svg>
