<?xml version="1.0" encoding="UTF-8" standalone="no"?>
<!DOCTYPE svg PUBLIC "-//W3C//DTD SVG 1.1//EN"
 "http://www.w3.org/Graphics/SVG/1.1/DTD/svg11.dtd">
<!-- Generated by graphviz version 2.40.1 (20161225.0304)
 -->
<!-- Title: coresoftware/blob/master/offline/framework/fun4allraw/Fun4AllPrdfInputManager.h Pages: 1 -->
<svg width="568pt" height="224pt"
 viewBox="0.00 0.00 568.19 224.00" xmlns="http://www.w3.org/2000/svg" xmlns:xlink="http://www.w3.org/1999/xlink">
<g id="graph0" class="graph" transform="scale(1 1) rotate(0) translate(4 220)">
<title>coresoftware/blob/master/offline/framework/fun4allraw/Fun4AllPrdfInputManager.h</title>
<!-- Node1 -->
<g id="node1" class="node">
<title>Node1</title>
<polygon fill="#bfbfbf" stroke="#000000" points="354,-171.5 354,-215.5 521,-215.5 521,-171.5 354,-171.5"/>
<text text-anchor="start" x="362" y="-202.5" font-family="FreeSans" font-size="10.00" fill="#000000">coresoftware/blob/master</text>
<text text-anchor="start" x="362" y="-190.5" font-family="FreeSans" font-size="10.00" fill="#000000">/offline/framework/fun4allraw</text>
<text text-anchor="middle" x="437.5" y="-178.5" font-family="FreeSans" font-size="10.00" fill="#000000">/Fun4AllPrdfInputManager.h</text>
</g>
<!-- Node2 -->
<g id="node2" class="node">
<title>Node2</title>
<g id="a_node2"><a xlink:href="../../d1/de7/Fun4AllInputManager_8h.html" target="_top" xlink:title="fun4all/Fun4AllInputManager.h">
<polygon fill="none" stroke="#000000" points="249,-114.5 249,-134.5 420,-134.5 420,-114.5 249,-114.5"/>
<text text-anchor="middle" x="334.5" y="-121.5" font-family="FreeSans" font-size="10.00" fill="#000000">fun4all/Fun4AllInputManager.h</text>
</a>
</g>
</g>
<!-- Node1&#45;&gt;Node2 -->
<g id="edge1" class="edge">
<title>Node1&#45;&gt;Node2</title>
<path fill="none" stroke="#191970" d="M404.627,-171.4783C389.4622,-161.3194 371.8071,-149.4922 358.0055,-140.2464"/>
<polygon fill="#191970" stroke="#191970" points="359.8133,-137.2447 349.5572,-134.5869 355.9173,-143.0603 359.8133,-137.2447"/>
</g>
<!-- Node5 -->
<g id="node5" class="node">
<title>Node5</title>
<polygon fill="none" stroke="#bfbfbf" points="93,-.5 93,-20.5 138,-20.5 138,-.5 93,-.5"/>
<text text-anchor="middle" x="115.5" y="-7.5" font-family="FreeSans" font-size="10.00" fill="#000000">string</text>
</g>
<!-- Node1&#45;&gt;Node5 -->
<g id="edge11" class="edge">
<title>Node1&#45;&gt;Node5</title>
<path fill="none" stroke="#191970" d="M477.5372,-171.4834C522.4315,-144.0753 584.6381,-96.104 549.5,-57 522.7412,-27.221 244.4121,-14.9197 148.0898,-11.5333"/>
<polygon fill="#191970" stroke="#191970" points="148.1612,-8.0338 138.0473,-11.1896 147.9217,-15.0297 148.1612,-8.0338"/>
</g>
<!-- Node3 -->
<g id="node3" class="node">
<title>Node3</title>
<g id="a_node3"><a xlink:href="../../d2/de7/Fun4AllBase_8h.html" target="_top" xlink:title="Fun4AllBase.h">
<polygon fill="none" stroke="#000000" points="0,-57.5 0,-77.5 87,-77.5 87,-57.5 0,-57.5"/>
<text text-anchor="middle" x="43.5" y="-64.5" font-family="FreeSans" font-size="10.00" fill="#000000">Fun4AllBase.h</text>
</a>
</g>
</g>
<!-- Node2&#45;&gt;Node3 -->
<g id="edge2" class="edge">
<title>Node2&#45;&gt;Node3</title>
<path fill="none" stroke="#191970" d="M283.1449,-114.4408C230.8745,-104.2022 150.1961,-88.3992 97.1221,-78.0033"/>
<polygon fill="#191970" stroke="#191970" points="97.7057,-74.5512 87.2194,-76.0636 96.3601,-81.4206 97.7057,-74.5512"/>
</g>
<!-- Node2&#45;&gt;Node5 -->
<g id="edge7" class="edge">
<title>Node2&#45;&gt;Node5</title>
<path fill="none" stroke="#191970" d="M255.4183,-114.4633C207.3797,-106.8198 152.0301,-94.7427 134.5,-78 121.8719,-65.9392 117.4301,-46.2029 115.9654,-31.1786"/>
<polygon fill="#191970" stroke="#191970" points="119.436,-30.584 115.3394,-20.8132 112.4487,-31.006 119.436,-30.584"/>
</g>
<!-- Node6 -->
<g id="node6" class="node">
<title>Node6</title>
<g id="a_node6"><a xlink:href="../../da/dc1/Fun4AllReturnCodes_8h.html" target="_top" xlink:title="Fun4AllReturnCodes.h">
<polygon fill="none" stroke="#000000" points="144,-57.5 144,-77.5 271,-77.5 271,-57.5 144,-57.5"/>
<text text-anchor="middle" x="207.5" y="-64.5" font-family="FreeSans" font-size="10.00" fill="#000000">Fun4AllReturnCodes.h</text>
</a>
</g>
</g>
<!-- Node2&#45;&gt;Node6 -->
<g id="edge5" class="edge">
<title>Node2&#45;&gt;Node6</title>
<path fill="none" stroke="#191970" d="M312.0873,-114.4408C291.8994,-105.3801 262.002,-91.9615 239.3372,-81.7891"/>
<polygon fill="#191970" stroke="#191970" points="240.6722,-78.552 230.1158,-77.6504 237.8059,-84.9383 240.6722,-78.552"/>
</g>
<!-- Node7 -->
<g id="node7" class="node">
<title>Node7</title>
<polygon fill="none" stroke="#bfbfbf" points="289.5,-57.5 289.5,-77.5 321.5,-77.5 321.5,-57.5 289.5,-57.5"/>
<text text-anchor="middle" x="305.5" y="-64.5" font-family="FreeSans" font-size="10.00" fill="#000000">list</text>
</g>
<!-- Node2&#45;&gt;Node7 -->
<g id="edge6" class="edge">
<title>Node2&#45;&gt;Node7</title>
<path fill="none" stroke="#191970" d="M329.3154,-114.3095C325.3977,-106.6093 319.9067,-95.8166 315.1844,-86.5349"/>
<polygon fill="#191970" stroke="#191970" points="318.2938,-84.9279 310.6397,-77.6022 312.0549,-88.1021 318.2938,-84.9279"/>
</g>
<!-- Node8 -->
<g id="node8" class="node">
<title>Node8</title>
<polygon fill="none" stroke="#bfbfbf" points="340,-57.5 340,-77.5 385,-77.5 385,-57.5 340,-57.5"/>
<text text-anchor="middle" x="362.5" y="-64.5" font-family="FreeSans" font-size="10.00" fill="#000000">utility</text>
</g>
<!-- Node2&#45;&gt;Node8 -->
<g id="edge8" class="edge">
<title>Node2&#45;&gt;Node8</title>
<path fill="none" stroke="#191970" d="M339.5058,-114.3095C343.2486,-106.6903 348.4787,-96.0435 353.0053,-86.8285"/>
<polygon fill="#191970" stroke="#191970" points="356.2698,-88.121 357.5375,-77.6022 349.987,-85.0346 356.2698,-88.121"/>
</g>
<!-- Node9 -->
<g id="node9" class="node">
<title>Node9</title>
<polygon fill="none" stroke="#bfbfbf" points="403,-57.5 403,-77.5 452,-77.5 452,-57.5 403,-57.5"/>
<text text-anchor="middle" x="427.5" y="-64.5" font-family="FreeSans" font-size="10.00" fill="#000000">vector</text>
</g>
<!-- Node2&#45;&gt;Node9 -->
<g id="edge9" class="edge">
<title>Node2&#45;&gt;Node9</title>
<path fill="none" stroke="#191970" d="M351.1265,-114.3095C365.2771,-105.6366 385.8284,-93.0407 402.0487,-83.0992"/>
<polygon fill="#191970" stroke="#191970" points="404.3204,-85.812 411.0174,-77.6022 400.6624,-79.8438 404.3204,-85.812"/>
</g>
<!-- Node10 -->
<g id="node10" class="node">
<title>Node10</title>
<polygon fill="none" stroke="#bfbfbf" points="470.5,-57.5 470.5,-77.5 540.5,-77.5 540.5,-57.5 470.5,-57.5"/>
<text text-anchor="middle" x="505.5" y="-64.5" font-family="FreeSans" font-size="10.00" fill="#000000">type_traits</text>
</g>
<!-- Node2&#45;&gt;Node10 -->
<g id="edge10" class="edge">
<title>Node2&#45;&gt;Node10</title>
<path fill="none" stroke="#191970" d="M364.6777,-114.4408C392.7958,-105.0681 434.9031,-91.0323 465.7495,-80.7502"/>
<polygon fill="#191970" stroke="#191970" points="466.9568,-84.0371 475.3368,-77.5544 464.7432,-77.3963 466.9568,-84.0371"/>
</g>
<!-- Node4 -->
<g id="node4" class="node">
<title>Node4</title>
<polygon fill="none" stroke="#bfbfbf" points="19,-.5 19,-20.5 68,-20.5 68,-.5 19,-.5"/>
<text text-anchor="middle" x="43.5" y="-7.5" font-family="FreeSans" font-size="10.00" fill="#000000">climits</text>
</g>
<!-- Node3&#45;&gt;Node4 -->
<g id="edge3" class="edge">
<title>Node3&#45;&gt;Node4</title>
<path fill="none" stroke="#191970" d="M43.5,-57.3095C43.5,-49.9335 43.5,-39.72 43.5,-30.715"/>
<polygon fill="#191970" stroke="#191970" points="47.0001,-30.6022 43.5,-20.6022 40.0001,-30.6023 47.0001,-30.6022"/>
</g>
<!-- Node3&#45;&gt;Node5 -->
<g id="edge4" class="edge">
<title>Node3&#45;&gt;Node5</title>
<path fill="none" stroke="#191970" d="M56.3722,-57.3095C67.0203,-48.8798 82.3498,-36.7439 94.7318,-26.9415"/>
<polygon fill="#191970" stroke="#191970" points="97.0713,-29.5535 102.7393,-20.6022 92.7263,-24.0651 97.0713,-29.5535"/>
</g>
</g>
</svg>
