<?xml version="1.0" encoding="UTF-8" standalone="no"?>
<!DOCTYPE svg PUBLIC "-//W3C//DTD SVG 1.1//EN"
 "http://www.w3.org/Graphics/SVG/1.1/DTD/svg11.dtd">
<!-- Generated by graphviz version 2.40.1 (20161225.0304)
 -->
<!-- Title: getPacketDataDescrLength Pages: 1 -->
<svg width="707pt" height="1862pt"
 viewBox="0.00 0.00 707.00 1862.00" xmlns="http://www.w3.org/2000/svg" xmlns:xlink="http://www.w3.org/1999/xlink">
<g id="graph0" class="graph" transform="scale(1 1) rotate(0) translate(4 1858)">
<title>getPacketDataDescrLength</title>
<!-- Node1 -->
<g id="node1" class="node">
<title>Node1</title>
<polygon fill="#bfbfbf" stroke="#000000" points="0,-878.5 0,-898.5 153,-898.5 153,-878.5 0,-878.5"/>
<text text-anchor="middle" x="76.5" y="-885.5" font-family="FreeSans" font-size="10.00" fill="#000000">getPacketDataDescrLength</text>
</g>
<!-- Node2 -->
<g id="node2" class="node">
<title>Node2</title>
<g id="a_node2"><a xlink:href="../../de/d93/Cpacket_8h.html#abcb7523b44fc031e7eb590cfe9b594cb" target="_top" xlink:title="findPacketDataStart">
<polygon fill="none" stroke="#000000" points="191.5,-898.5 191.5,-918.5 308.5,-918.5 308.5,-898.5 191.5,-898.5"/>
<text text-anchor="middle" x="250" y="-905.5" font-family="FreeSans" font-size="10.00" fill="#000000">findPacketDataStart</text>
</a>
</g>
</g>
<!-- Node1&#45;&gt;Node2 -->
<g id="edge1" class="edge">
<title>Node1&#45;&gt;Node2</title>
<path fill="none" stroke="#191970" d="M163.0445,-898.4763C172.6026,-899.5781 182.164,-900.6803 191.2646,-901.7293"/>
<polygon fill="#191970" stroke="#191970" points="163.4397,-894.9988 153.1047,-897.3305 162.638,-901.9527 163.4397,-894.9988"/>
</g>
<!-- Node50 -->
<g id="node50" class="node">
<title>Node50</title>
<g id="a_node50"><a xlink:href="../../de/dce/classPacket__A.html#a98bf8d904d3af271eb911ec54686dca3" target="_top" xlink:title="Packet_A::fullIdentify">
<polygon fill="none" stroke="#000000" points="189,-859.5 189,-879.5 311,-879.5 311,-859.5 189,-859.5"/>
<text text-anchor="middle" x="250" y="-866.5" font-family="FreeSans" font-size="10.00" fill="#000000">Packet_A::fullIdentify</text>
</a>
</g>
</g>
<!-- Node1&#45;&gt;Node50 -->
<g id="edge53" class="edge">
<title>Node1&#45;&gt;Node50</title>
<path fill="none" stroke="#191970" d="M163.2565,-878.9993C171.9219,-878.0503 180.5872,-877.1014 188.9067,-876.1903"/>
<polygon fill="#191970" stroke="#191970" points="162.6642,-875.5431 153.1047,-880.111 163.4263,-882.5015 162.6642,-875.5431"/>
</g>
<!-- Node3 -->
<g id="node3" class="node">
<title>Node3</title>
<g id="a_node3"><a xlink:href="../../d4/dea/formatIO_8h.html#af3f740bd3f3651b66edff5d740ef1110" target="_top" xlink:title="dumpPacket">
<polygon fill="none" stroke="#000000" points="397,-1833.5 397,-1853.5 476,-1853.5 476,-1833.5 397,-1833.5"/>
<text text-anchor="middle" x="436.5" y="-1840.5" font-family="FreeSans" font-size="10.00" fill="#000000">dumpPacket</text>
</a>
</g>
</g>
<!-- Node2&#45;&gt;Node3 -->
<g id="edge2" class="edge">
<title>Node2&#45;&gt;Node3</title>
<path fill="none" stroke="#191970" d="M250.7446,-928.9089C255.6286,-1057.7828 284.8344,-1755.53 347,-1824.5 359.3365,-1838.1868 378.8694,-1843.371 396.544,-1844.948"/>
<polygon fill="#191970" stroke="#191970" points="254.2282,-928.4015 250.358,-918.5389 247.233,-928.6623 254.2282,-928.4015"/>
</g>
<!-- Node5 -->
<g id="node5" class="node">
<title>Node5</title>
<g id="a_node5"><a xlink:href="../../de/dce/classPacket__A.html#a3b05e4fc7b5908a7f5068faffda03253" target="_top" xlink:title="Packet_A::standardIntArray">
<polygon fill="none" stroke="#000000" points="360,-1794.5 360,-1814.5 513,-1814.5 513,-1794.5 360,-1794.5"/>
<text text-anchor="middle" x="436.5" y="-1801.5" font-family="FreeSans" font-size="10.00" fill="#000000">Packet_A::standardIntArray</text>
</a>
</g>
</g>
<!-- Node2&#45;&gt;Node5 -->
<g id="edge4" class="edge">
<title>Node2&#45;&gt;Node5</title>
<path fill="none" stroke="#191970" d="M250.8416,-928.8227C256.2161,-1054.2334 287.4222,-1719.7097 347,-1785.5 350.7318,-1789.621 355.1161,-1792.9702 359.9048,-1795.6818"/>
<polygon fill="#191970" stroke="#191970" points="254.3326,-928.5344 250.4137,-918.691 247.3388,-928.8298 254.3326,-928.5344"/>
</g>
<!-- Node7 -->
<g id="node7" class="node">
<title>Node7</title>
<g id="a_node7"><a xlink:href="../../d2/dc3/classPacket__cdevbpm.html#a4296ebd3bb25220ba330700bbed91be8" target="_top" xlink:title="Packet_cdevbpm::decode">
<polygon fill="none" stroke="#ff0000" points="364,-1755.5 364,-1775.5 509,-1775.5 509,-1755.5 364,-1755.5"/>
<text text-anchor="middle" x="436.5" y="-1762.5" font-family="FreeSans" font-size="10.00" fill="#000000">Packet_cdevbpm::decode</text>
</a>
</g>
</g>
<!-- Node2&#45;&gt;Node7 -->
<g id="edge6" class="edge">
<title>Node2&#45;&gt;Node7</title>
<path fill="none" stroke="#191970" d="M250.9435,-928.6662C256.8177,-1050.3809 289.9964,-1683.8729 347,-1746.5 351.7046,-1751.6687 357.4359,-1755.6219 363.702,-1758.6248"/>
<polygon fill="#191970" stroke="#191970" points="254.4322,-928.3435 250.4604,-918.5213 247.4401,-928.6765 254.4322,-928.3435"/>
</g>
<!-- Node9 -->
<g id="node9" class="node">
<title>Node9</title>
<g id="a_node9"><a xlink:href="../../d1/df9/classPacket__cdevbuckets.html#a0d94ffcb5cd74950e63b66a89a3e735e" target="_top" xlink:title="Packet_cdevbuckets\l::decode">
<polygon fill="none" stroke="#ff0000" points="377.5,-1704.5 377.5,-1736.5 495.5,-1736.5 495.5,-1704.5 377.5,-1704.5"/>
<text text-anchor="start" x="385.5" y="-1723.5" font-family="FreeSans" font-size="10.00" fill="#000000">Packet_cdevbuckets</text>
<text text-anchor="middle" x="436.5" y="-1711.5" font-family="FreeSans" font-size="10.00" fill="#000000">::decode</text>
</a>
</g>
</g>
<!-- Node2&#45;&gt;Node9 -->
<g id="edge8" class="edge">
<title>Node2&#45;&gt;Node9</title>
<path fill="none" stroke="#191970" d="M251.1707,-928.8397C258.1088,-1046.3661 295.2968,-1635.4105 347,-1695.5 354.8918,-1704.6719 365.8414,-1710.6154 377.3796,-1714.4349"/>
<polygon fill="#191970" stroke="#191970" points="254.656,-928.4833 250.5788,-918.7044 247.6679,-928.8915 254.656,-928.4833"/>
</g>
<!-- Node10 -->
<g id="node10" class="node">
<title>Node10</title>
<g id="a_node10"><a xlink:href="../../d1/d45/classPacket__cdevdvm.html#adb52fe3afc472d3d283a947335acc271" target="_top" xlink:title="Packet_cdevdvm::decode">
<polygon fill="none" stroke="#ff0000" points="364.5,-1665.5 364.5,-1685.5 508.5,-1685.5 508.5,-1665.5 364.5,-1665.5"/>
<text text-anchor="middle" x="436.5" y="-1672.5" font-family="FreeSans" font-size="10.00" fill="#000000">Packet_cdevdvm::decode</text>
</a>
</g>
</g>
<!-- Node2&#45;&gt;Node10 -->
<g id="edge9" class="edge">
<title>Node2&#45;&gt;Node10</title>
<path fill="none" stroke="#191970" d="M251.2543,-928.9401C258.4564,-1043.3581 296.0217,-1601.2587 347,-1656.5 351.8476,-1661.753 357.7565,-1665.7464 364.2037,-1668.7606"/>
<polygon fill="#191970" stroke="#191970" points="254.7351,-928.5223 250.6204,-918.7591 247.7487,-928.9573 254.7351,-928.5223"/>
</g>
<!-- Node11 -->
<g id="node11" class="node">
<title>Node11</title>
<g id="a_node11"><a xlink:href="../../dd/deb/classPacket__cdevir.html#a663ce8c290000d1ffa8e91b405fc020a" target="_top" xlink:title="Packet_cdevir::decode">
<polygon fill="none" stroke="#ff0000" points="372,-1626.5 372,-1646.5 501,-1646.5 501,-1626.5 372,-1626.5"/>
<text text-anchor="middle" x="436.5" y="-1633.5" font-family="FreeSans" font-size="10.00" fill="#000000">Packet_cdevir::decode</text>
</a>
</g>
</g>
<!-- Node2&#45;&gt;Node11 -->
<g id="edge10" class="edge">
<title>Node2&#45;&gt;Node11</title>
<path fill="none" stroke="#191970" d="M251.4039,-928.9035C259.2032,-1039.6403 298.6023,-1565.4224 347,-1617.5 353.7043,-1624.7141 362.4108,-1629.5483 371.7565,-1632.7322"/>
<polygon fill="#191970" stroke="#191970" points="254.8828,-928.4779 250.6955,-918.7456 247.8997,-928.9649 254.8828,-928.4779"/>
</g>
<!-- Node12 -->
<g id="node12" class="node">
<title>Node12</title>
<g id="a_node12"><a xlink:href="../../d8/d28/classPacket__cdevmadch.html#a778f082483500ea76c284918a1b7914f" target="_top" xlink:title="Packet_cdevmadch::decode">
<polygon fill="none" stroke="#ff0000" points="358,-1587.5 358,-1607.5 515,-1607.5 515,-1587.5 358,-1587.5"/>
<text text-anchor="middle" x="436.5" y="-1594.5" font-family="FreeSans" font-size="10.00" fill="#000000">Packet_cdevmadch::decode</text>
</a>
</g>
</g>
<!-- Node2&#45;&gt;Node12 -->
<g id="edge11" class="edge">
<title>Node2&#45;&gt;Node12</title>
<path fill="none" stroke="#191970" d="M251.5632,-928.7761C259.9732,-1035.5485 301.1656,-1529.5651 347,-1578.5 350.2576,-1581.978 353.9808,-1584.9017 358.0158,-1587.3534"/>
<polygon fill="#191970" stroke="#191970" points="255.0434,-928.3846 250.7758,-918.6873 248.0646,-928.9293 255.0434,-928.3846"/>
</g>
<!-- Node13 -->
<g id="node13" class="node">
<title>Node13</title>
<g id="a_node13"><a xlink:href="../../da/d47/classPacket__cdevpolarimeter.html#a3f265789e6bd6162c8e2435408f30a75" target="_top" xlink:title="Packet_cdevpolarimeter\l::decode">
<polygon fill="none" stroke="#ff0000" points="367.5,-1536.5 367.5,-1568.5 505.5,-1568.5 505.5,-1536.5 367.5,-1536.5"/>
<text text-anchor="start" x="375.5" y="-1555.5" font-family="FreeSans" font-size="10.00" fill="#000000">Packet_cdevpolarimeter</text>
<text text-anchor="middle" x="436.5" y="-1543.5" font-family="FreeSans" font-size="10.00" fill="#000000">::decode</text>
</a>
</g>
</g>
<!-- Node2&#45;&gt;Node13 -->
<g id="edge12" class="edge">
<title>Node2&#45;&gt;Node13</title>
<path fill="none" stroke="#191970" d="M250.3359,-929.0691C252.3335,-1025.9557 265.5506,-1435.9215 347,-1527.5 352.5752,-1533.7686 359.5783,-1538.522 367.199,-1542.1172"/>
<polygon fill="#191970" stroke="#191970" points="253.8312,-928.7807 250.1441,-918.8482 246.8324,-928.9121 253.8312,-928.7807"/>
</g>
<!-- Node14 -->
<g id="node14" class="node">
<title>Node14</title>
<g id="a_node14"><a xlink:href="../../d8/d61/classPacket__cdevpoltarget.html#a50be5a0cf378a31b539c5f4a0ad0a5bb" target="_top" xlink:title="Packet_cdevpoltarget\l::decode">
<polygon fill="none" stroke="#ff0000" points="374,-1485.5 374,-1517.5 499,-1517.5 499,-1485.5 374,-1485.5"/>
<text text-anchor="start" x="382" y="-1504.5" font-family="FreeSans" font-size="10.00" fill="#000000">Packet_cdevpoltarget</text>
<text text-anchor="middle" x="436.5" y="-1492.5" font-family="FreeSans" font-size="10.00" fill="#000000">::decode</text>
</a>
</g>
</g>
<!-- Node2&#45;&gt;Node14 -->
<g id="edge13" class="edge">
<title>Node2&#45;&gt;Node14</title>
<path fill="none" stroke="#191970" d="M250.6542,-929.1008C253.9885,-1021.0793 271.9928,-1393.3196 347,-1476.5 354.1306,-1484.4076 363.5333,-1489.8995 373.5626,-1493.6957"/>
<polygon fill="#191970" stroke="#191970" points="254.1445,-928.7557 250.3036,-918.8816 247.1487,-928.9958 254.1445,-928.7557"/>
</g>
<!-- Node15 -->
<g id="node15" class="node">
<title>Node15</title>
<g id="a_node15"><a xlink:href="../../d0/d8c/classPacket__cdevring.html#a8bf23a52c8de61bcd7618982d9faf08c" target="_top" xlink:title="Packet_cdevring::decode">
<polygon fill="none" stroke="#ff0000" points="365.5,-1446.5 365.5,-1466.5 507.5,-1466.5 507.5,-1446.5 365.5,-1446.5"/>
<text text-anchor="middle" x="436.5" y="-1453.5" font-family="FreeSans" font-size="10.00" fill="#000000">Packet_cdevring::decode</text>
</a>
</g>
</g>
<!-- Node2&#45;&gt;Node15 -->
<g id="edge14" class="edge">
<title>Node2&#45;&gt;Node15</title>
<path fill="none" stroke="#191970" d="M250.8022,-928.898C254.6848,-1016.8874 274.4191,-1362.8702 347,-1437.5 352.2051,-1442.852 358.5156,-1446.8792 365.3504,-1449.8878"/>
<polygon fill="#191970" stroke="#191970" points="254.2886,-928.4987 250.3717,-918.6545 247.2948,-928.7926 254.2886,-928.4987"/>
</g>
<!-- Node16 -->
<g id="node16" class="node">
<title>Node16</title>
<g id="a_node16"><a xlink:href="../../d1/d09/classPacket__cdevringnopol.html#ace6129c4caa86b7c1b53dcb502a0d2ed" target="_top" xlink:title="Packet_cdevringnopol\l::decode">
<polygon fill="none" stroke="#ff0000" points="373.5,-1395.5 373.5,-1427.5 499.5,-1427.5 499.5,-1395.5 373.5,-1395.5"/>
<text text-anchor="start" x="381.5" y="-1414.5" font-family="FreeSans" font-size="10.00" fill="#000000">Packet_cdevringnopol</text>
<text text-anchor="middle" x="436.5" y="-1402.5" font-family="FreeSans" font-size="10.00" fill="#000000">::decode</text>
</a>
</g>
</g>
<!-- Node2&#45;&gt;Node16 -->
<g id="edge15" class="edge">
<title>Node2&#45;&gt;Node16</title>
<path fill="none" stroke="#191970" d="M251.3617,-928.9071C257.2597,-1011.2569 283.2382,-1317.9616 347,-1386.5 354.1427,-1394.1777 363.4281,-1399.5683 373.3078,-1403.3383"/>
<polygon fill="#191970" stroke="#191970" points="254.8459,-928.5575 250.6608,-918.8243 247.8627,-929.043 254.8459,-928.5575"/>
</g>
<!-- Node17 -->
<g id="node17" class="node">
<title>Node17</title>
<g id="a_node17"><a xlink:href="../../d3/db5/classPacket__cdevwcm.html#a58a526e397131ff4e377b30b01e74d3b" target="_top" xlink:title="Packet_cdevwcm::decode">
<polygon fill="none" stroke="#ff0000" points="363.5,-1356.5 363.5,-1376.5 509.5,-1376.5 509.5,-1356.5 363.5,-1356.5"/>
<text text-anchor="middle" x="436.5" y="-1363.5" font-family="FreeSans" font-size="10.00" fill="#000000">Packet_cdevwcm::decode</text>
</a>
</g>
</g>
<!-- Node2&#45;&gt;Node17 -->
<g id="edge16" class="edge">
<title>Node2&#45;&gt;Node17</title>
<path fill="none" stroke="#191970" d="M251.6261,-928.84C258.2945,-1007.0603 286.1222,-1287.1241 347,-1347.5 351.7369,-1352.1979 357.3286,-1355.8657 363.367,-1358.715"/>
<polygon fill="#191970" stroke="#191970" points="255.1092,-928.4904 250.7944,-918.814 248.1332,-929.0692 255.1092,-928.4904"/>
</g>
<!-- Node18 -->
<g id="node18" class="node">
<title>Node18</title>
<g id="a_node18"><a xlink:href="../../d0/d96/classPacket__fvtx__dcm0.html#a46a8270240b582fcf6521ad55cc19a8f" target="_top" xlink:title="Packet_fvtx_dcm0::decode">
<polygon fill="none" stroke="#ff0000" points="361,-1317.5 361,-1337.5 512,-1337.5 512,-1317.5 361,-1317.5"/>
<text text-anchor="middle" x="436.5" y="-1324.5" font-family="FreeSans" font-size="10.00" fill="#000000">Packet_fvtx_dcm0::decode</text>
</a>
</g>
</g>
<!-- Node2&#45;&gt;Node18 -->
<g id="edge17" class="edge">
<title>Node2&#45;&gt;Node18</title>
<path fill="none" stroke="#191970" d="M252.1019,-928.8926C260.12,-1002.679 291.1789,-1254.2597 347,-1308.5 351.1012,-1312.485 355.8188,-1315.725 360.8984,-1318.3507"/>
<polygon fill="#191970" stroke="#191970" points="255.549,-928.2088 251.0126,-918.6343 248.5882,-928.948 255.549,-928.2088"/>
</g>
<!-- Node19 -->
<g id="node19" class="node">
<title>Node19</title>
<g id="a_node19"><a xlink:href="../../d0/d96/classPacket__fvtx__dcm0.html#a76643891251db3dd909e3f65ed93bfe4" target="_top" xlink:title="Packet_fvtx_dcm0::calculate\l_parity">
<polygon fill="none" stroke="#ff0000" points="357,-1266.5 357,-1298.5 516,-1298.5 516,-1266.5 357,-1266.5"/>
<text text-anchor="start" x="365" y="-1285.5" font-family="FreeSans" font-size="10.00" fill="#000000">Packet_fvtx_dcm0::calculate</text>
<text text-anchor="middle" x="436.5" y="-1273.5" font-family="FreeSans" font-size="10.00" fill="#000000">_parity</text>
</a>
</g>
</g>
<!-- Node2&#45;&gt;Node19 -->
<g id="edge18" class="edge">
<title>Node2&#45;&gt;Node19</title>
<path fill="none" stroke="#191970" d="M252.9827,-928.7525C263.2607,-995.899 299.215,-1209.6532 347,-1257.5 350.4201,-1260.9245 354.2677,-1263.8898 358.3957,-1266.4563"/>
<polygon fill="#191970" stroke="#191970" points="256.4089,-927.9991 251.4594,-918.6314 249.4868,-929.041 256.4089,-927.9991"/>
</g>
<!-- Node20 -->
<g id="node20" class="node">
<title>Node20</title>
<g id="a_node20"><a xlink:href="../../d0/d96/classPacket__fvtx__dcm0.html#a1fd97cbc6d2eb3af46196e98c8843ce6" target="_top" xlink:title="Packet_fvtx_dcm0::decode_misc">
<polygon fill="none" stroke="#ff0000" points="347,-1227.5 347,-1247.5 526,-1247.5 526,-1227.5 347,-1227.5"/>
<text text-anchor="middle" x="436.5" y="-1234.5" font-family="FreeSans" font-size="10.00" fill="#000000">Packet_fvtx_dcm0::decode_misc</text>
</a>
</g>
</g>
<!-- Node2&#45;&gt;Node20 -->
<g id="edge19" class="edge">
<title>Node2&#45;&gt;Node20</title>
<path fill="none" stroke="#191970" d="M253.5702,-928.5906C265.0135,-990.7413 302.6333,-1178.1221 347,-1218.5 350.8767,-1222.0282 355.2412,-1224.9625 359.9032,-1227.3974"/>
<polygon fill="#191970" stroke="#191970" points="256.9699,-927.7222 251.7424,-918.5068 250.0822,-928.9707 256.9699,-927.7222"/>
</g>
<!-- Node21 -->
<g id="node21" class="node">
<title>Node21</title>
<g id="a_node21"><a xlink:href="../../d6/d72/classPacket__gl1.html#a921f349b46f3b9508dc52a1e850282f8" target="_top" xlink:title="Packet_gl1::decode">
<polygon fill="none" stroke="#000000" points="379.5,-1188.5 379.5,-1208.5 493.5,-1208.5 493.5,-1188.5 379.5,-1188.5"/>
<text text-anchor="middle" x="436.5" y="-1195.5" font-family="FreeSans" font-size="10.00" fill="#000000">Packet_gl1::decode</text>
</a>
</g>
</g>
<!-- Node2&#45;&gt;Node21 -->
<g id="edge20" class="edge">
<title>Node2&#45;&gt;Node21</title>
<path fill="none" stroke="#191970" d="M251.3195,-928.7249C255.6536,-978.1155 273.7404,-1105.7771 347,-1173.5 356.0034,-1181.823 367.5491,-1187.4076 379.3341,-1191.1461"/>
<polygon fill="#191970" stroke="#191970" points="254.8027,-928.3715 250.5375,-918.6732 247.8238,-928.9146 254.8027,-928.3715"/>
</g>
<!-- Node22 -->
<g id="node22" class="node">
<title>Node22</title>
<g id="a_node22"><a xlink:href="../../d6/d72/classPacket__gl1.html#a30f7309fdeb89ef5ec2e9d7507a68199" target="_top" xlink:title="Packet_gl1::dump">
<polygon fill="none" stroke="#000000" points="577.5,-1129.5 577.5,-1149.5 683.5,-1149.5 683.5,-1129.5 577.5,-1129.5"/>
<text text-anchor="middle" x="630.5" y="-1136.5" font-family="FreeSans" font-size="10.00" fill="#000000">Packet_gl1::dump</text>
</a>
</g>
</g>
<!-- Node2&#45;&gt;Node22 -->
<g id="edge21" class="edge">
<title>Node2&#45;&gt;Node22</title>
<path fill="none" stroke="#191970" d="M251.3379,-928.6897C255.6636,-975.5995 273.6469,-1091.6627 347,-1140.5 425.4565,-1192.735 545.174,-1166.262 600.5199,-1149.6061"/>
<polygon fill="#191970" stroke="#191970" points="254.8147,-928.2598 250.5231,-918.5731 247.8373,-928.8218 254.8147,-928.2598"/>
</g>
<!-- Node23 -->
<g id="node23" class="node">
<title>Node23</title>
<g id="a_node23"><a xlink:href="../../d6/d72/classPacket__gl1.html#a40bd7afd109693caf49daf81449e36ea" target="_top" xlink:title="Packet_gl1::demangle">
<polygon fill="none" stroke="#ff0000" points="373,-1110.5 373,-1130.5 500,-1130.5 500,-1110.5 373,-1110.5"/>
<text text-anchor="middle" x="436.5" y="-1117.5" font-family="FreeSans" font-size="10.00" fill="#000000">Packet_gl1::demangle</text>
</a>
</g>
</g>
<!-- Node2&#45;&gt;Node23 -->
<g id="edge22" class="edge">
<title>Node2&#45;&gt;Node23</title>
<path fill="none" stroke="#191970" d="M254.0785,-928.7299C263.2084,-968.5075 289.1927,-1056.9006 347,-1101.5 354.5459,-1107.3218 363.471,-1111.4583 372.7144,-1114.3798"/>
<polygon fill="#191970" stroke="#191970" points="257.4812,-927.9055 251.9379,-918.8765 250.6407,-929.3917 257.4812,-927.9055"/>
</g>
<!-- Node24 -->
<g id="node24" class="node">
<title>Node24</title>
<g id="a_node24"><a xlink:href="../../db/d31/classPacket__gl1__evclocks.html#aadaebbcbdd0179e13faa19b1030726e4" target="_top" xlink:title="Packet_gl1_evclocks\l::decode">
<polygon fill="none" stroke="#000000" points="377.5,-1059.5 377.5,-1091.5 495.5,-1091.5 495.5,-1059.5 377.5,-1059.5"/>
<text text-anchor="start" x="385.5" y="-1078.5" font-family="FreeSans" font-size="10.00" fill="#000000">Packet_gl1_evclocks</text>
<text text-anchor="middle" x="436.5" y="-1066.5" font-family="FreeSans" font-size="10.00" fill="#000000">::decode</text>
</a>
</g>
</g>
<!-- Node2&#45;&gt;Node24 -->
<g id="edge24" class="edge">
<title>Node2&#45;&gt;Node24</title>
<path fill="none" stroke="#191970" d="M257.869,-927.7445C271.4175,-958.4429 302.0908,-1018.3068 347,-1050.5 356.0473,-1056.9856 366.7195,-1061.7912 377.4833,-1065.3513"/>
<polygon fill="#191970" stroke="#191970" points="261.0816,-926.3554 253.9349,-918.534 254.6442,-929.105 261.0816,-926.3554"/>
</g>
<!-- Node25 -->
<g id="node25" class="node">
<title>Node25</title>
<g id="a_node25"><a xlink:href="../../db/d31/classPacket__gl1__evclocks.html#a2f7ba69702a073ecb49f3571626407d6" target="_top" xlink:title="Packet_gl1_evclocks\l::iValue">
<polygon fill="none" stroke="#000000" points="377.5,-1008.5 377.5,-1040.5 495.5,-1040.5 495.5,-1008.5 377.5,-1008.5"/>
<text text-anchor="start" x="385.5" y="-1027.5" font-family="FreeSans" font-size="10.00" fill="#000000">Packet_gl1_evclocks</text>
<text text-anchor="middle" x="436.5" y="-1015.5" font-family="FreeSans" font-size="10.00" fill="#000000">::iValue</text>
</a>
</g>
</g>
<!-- Node2&#45;&gt;Node25 -->
<g id="edge25" class="edge">
<title>Node2&#45;&gt;Node25</title>
<path fill="none" stroke="#191970" d="M264.2906,-926.3424C281.7092,-946.9244 313.0488,-980.3778 347,-999.5 356.2775,-1004.7253 366.7201,-1008.918 377.1104,-1012.2632"/>
<polygon fill="#191970" stroke="#191970" points="266.9864,-924.1102 257.9133,-918.6393 261.5945,-928.5741 266.9864,-924.1102"/>
</g>
<!-- Node26 -->
<g id="node26" class="node">
<title>Node26</title>
<g id="a_node26"><a xlink:href="../../db/d31/classPacket__gl1__evclocks.html#a45db3836087246ada24b165bb1db56c7" target="_top" xlink:title="Packet_gl1_evclocks\l::dump">
<polygon fill="none" stroke="#000000" points="377.5,-957.5 377.5,-989.5 495.5,-989.5 495.5,-957.5 377.5,-957.5"/>
<text text-anchor="start" x="385.5" y="-976.5" font-family="FreeSans" font-size="10.00" fill="#000000">Packet_gl1_evclocks</text>
<text text-anchor="middle" x="436.5" y="-964.5" font-family="FreeSans" font-size="10.00" fill="#000000">::dump</text>
</a>
</g>
</g>
<!-- Node2&#45;&gt;Node26 -->
<g id="edge26" class="edge">
<title>Node2&#45;&gt;Node26</title>
<path fill="none" stroke="#191970" d="M281.7093,-922.6932C300.4829,-930.8142 324.8541,-940.871 347,-948.5 356.7621,-951.8629 367.2369,-955.1069 377.4579,-958.0812"/>
<polygon fill="#191970" stroke="#191970" points="283.0084,-919.4414 272.4435,-918.646 280.2065,-925.8562 283.0084,-919.4414"/>
</g>
<!-- Node27 -->
<g id="node27" class="node">
<title>Node27</title>
<g id="a_node27"><a xlink:href="../../d2/d3c/classPacket__gl1p.html#a699606372a8efcac1c509dbbb898590d" target="_top" xlink:title="Packet_gl1p::decode">
<polygon fill="none" stroke="#000000" points="376.5,-918.5 376.5,-938.5 496.5,-938.5 496.5,-918.5 376.5,-918.5"/>
<text text-anchor="middle" x="436.5" y="-925.5" font-family="FreeSans" font-size="10.00" fill="#000000">Packet_gl1p::decode</text>
</a>
</g>
</g>
<!-- Node2&#45;&gt;Node27 -->
<g id="edge27" class="edge">
<title>Node2&#45;&gt;Node27</title>
<path fill="none" stroke="#191970" d="M318.7906,-915.877C337.7023,-917.9051 358.0583,-920.088 376.4365,-922.0589"/>
<polygon fill="#191970" stroke="#191970" points="319.07,-912.387 308.7538,-914.8007 318.3235,-919.3471 319.07,-912.387"/>
</g>
<!-- Node28 -->
<g id="node28" class="node">
<title>Node28</title>
<g id="a_node28"><a xlink:href="../../d2/d3c/classPacket__gl1p.html#a5ab75d3e5481d34f21fd3b97d09cf2a3" target="_top" xlink:title="Packet_gl1p::dump">
<polygon fill="none" stroke="#000000" points="574.5,-859.5 574.5,-879.5 686.5,-879.5 686.5,-859.5 574.5,-859.5"/>
<text text-anchor="middle" x="630.5" y="-866.5" font-family="FreeSans" font-size="10.00" fill="#000000">Packet_gl1p::dump</text>
</a>
</g>
</g>
<!-- Node2&#45;&gt;Node28 -->
<g id="edge28" class="edge">
<title>Node2&#45;&gt;Node28</title>
<path fill="none" stroke="#191970" d="M318.6601,-901.4626C391.8263,-893.9633 506.2888,-882.2312 574.2968,-875.2606"/>
<polygon fill="#191970" stroke="#191970" points="318.2102,-897.9902 308.6192,-902.4917 318.924,-904.9538 318.2102,-897.9902"/>
</g>
<!-- Node29 -->
<g id="node29" class="node">
<title>Node29</title>
<g id="a_node29"><a xlink:href="../../d2/d3c/classPacket__gl1p.html#a700d569ecd946d6432ff5099bf0d89d5" target="_top" xlink:title="Packet_gl1p::demangle">
<polygon fill="none" stroke="#ff0000" points="369.5,-840.5 369.5,-860.5 503.5,-860.5 503.5,-840.5 369.5,-840.5"/>
<text text-anchor="middle" x="436.5" y="-847.5" font-family="FreeSans" font-size="10.00" fill="#000000">Packet_gl1p::demangle</text>
</a>
</g>
</g>
<!-- Node2&#45;&gt;Node29 -->
<g id="edge29" class="edge">
<title>Node2&#45;&gt;Node29</title>
<path fill="none" stroke="#191970" d="M293.5034,-895.353C299.4047,-893.452 305.3657,-891.4704 311,-889.5 327.2049,-883.8329 330.7131,-880.927 347,-875.5 363.3771,-870.043 381.6994,-864.7803 397.4798,-860.5027"/>
<polygon fill="#191970" stroke="#191970" points="292.1724,-892.1031 283.6964,-898.4599 294.2865,-898.7762 292.1724,-892.1031"/>
</g>
<!-- Node30 -->
<g id="node30" class="node">
<title>Node30</title>
<g id="a_node30"><a xlink:href="../../d5/d2d/classPacket__gl1psum.html#af80955495b6700b11927bf1aa41f6646" target="_top" xlink:title="Packet_gl1psum::decode">
<polygon fill="none" stroke="#ff0000" points="365.5,-801.5 365.5,-821.5 507.5,-821.5 507.5,-801.5 365.5,-801.5"/>
<text text-anchor="middle" x="436.5" y="-808.5" font-family="FreeSans" font-size="10.00" fill="#000000">Packet_gl1psum::decode</text>
</a>
</g>
</g>
<!-- Node2&#45;&gt;Node30 -->
<g id="edge31" class="edge">
<title>Node2&#45;&gt;Node30</title>
<path fill="none" stroke="#191970" d="M304.5426,-893.8451C306.8,-892.519 308.966,-891.0741 311,-889.5 334.9936,-870.9312 322.2646,-849.0685 347,-831.5 352.7114,-827.4434 359.1034,-824.1905 365.7734,-821.5847"/>
<polygon fill="#191970" stroke="#191970" points="302.8402,-890.7833 295.4687,-898.3932 305.9769,-897.0412 302.8402,-890.7833"/>
</g>
<!-- Node31 -->
<g id="node31" class="node">
<title>Node31</title>
<g id="a_node31"><a xlink:href="../../d9/d17/classPacket__hbd__fpga.html#a69ffb42b4d94ae1dbb463a6c3d2ed622" target="_top" xlink:title="Packet_hbd_fpga::decode">
<polygon fill="none" stroke="#ff0000" points="364,-762.5 364,-782.5 509,-782.5 509,-762.5 364,-762.5"/>
<text text-anchor="middle" x="436.5" y="-769.5" font-family="FreeSans" font-size="10.00" fill="#000000">Packet_hbd_fpga::decode</text>
</a>
</g>
</g>
<!-- Node2&#45;&gt;Node31 -->
<g id="edge32" class="edge">
<title>Node2&#45;&gt;Node31</title>
<path fill="none" stroke="#191970" d="M306.877,-892.964C308.32,-891.8858 309.6994,-890.7329 311,-889.5 344.3728,-857.8642 312.357,-822.7396 347,-792.5 352.0377,-788.1026 357.8315,-784.6098 363.9976,-781.843"/>
<polygon fill="#191970" stroke="#191970" points="304.7413,-890.1667 298.0213,-898.3577 308.3826,-896.1451 304.7413,-890.1667"/>
</g>
<!-- Node32 -->
<g id="node32" class="node">
<title>Node32</title>
<g id="a_node32"><a xlink:href="../../df/d23/classPacket__hbd__fpgashort.html#a144c98c4d718e686b6e6b36dcb018411" target="_top" xlink:title="Packet_hbd_fpgashort\l::decode">
<polygon fill="none" stroke="#ff0000" points="372.5,-711.5 372.5,-743.5 500.5,-743.5 500.5,-711.5 372.5,-711.5"/>
<text text-anchor="start" x="380.5" y="-730.5" font-family="FreeSans" font-size="10.00" fill="#000000">Packet_hbd_fpgashort</text>
<text text-anchor="middle" x="436.5" y="-718.5" font-family="FreeSans" font-size="10.00" fill="#000000">::decode</text>
</a>
</g>
</g>
<!-- Node2&#45;&gt;Node32 -->
<g id="edge33" class="edge">
<title>Node2&#45;&gt;Node32</title>
<path fill="none" stroke="#191970" d="M307.5772,-892.6842C308.7767,-891.6866 309.9211,-890.6265 311,-889.5 354.2479,-844.3431 303.3199,-798.239 347,-753.5 354.0082,-746.3219 362.8714,-741.0957 372.28,-737.2969"/>
<polygon fill="#191970" stroke="#191970" points="305.3642,-889.9523 298.972,-898.4016 309.238,-895.7827 305.3642,-889.9523"/>
</g>
<!-- Node33 -->
<g id="node33" class="node">
<title>Node33</title>
<g id="a_node33"><a xlink:href="../../d9/d02/classPacket__id2evt.html#abfd9fa3960d8469cf7bd50821ed84d86" target="_top" xlink:title="Packet_id2evt::decode">
<polygon fill="none" stroke="#000000" points="371.5,-672.5 371.5,-692.5 501.5,-692.5 501.5,-672.5 371.5,-672.5"/>
<text text-anchor="middle" x="436.5" y="-679.5" font-family="FreeSans" font-size="10.00" fill="#000000">Packet_id2evt::decode</text>
</a>
</g>
</g>
<!-- Node2&#45;&gt;Node33 -->
<g id="edge34" class="edge">
<title>Node2&#45;&gt;Node33</title>
<path fill="none" stroke="#191970" d="M307.7602,-892.713C308.9002,-891.7067 309.9835,-890.637 311,-889.5 367.4114,-826.4032 288.0467,-763.2286 347,-702.5 353.654,-695.6457 362.1053,-690.9057 371.1459,-687.6654"/>
<polygon fill="#191970" stroke="#191970" points="305.7089,-889.8765 299.521,-898.4765 309.7214,-895.6124 305.7089,-889.8765"/>
</g>
<!-- Node34 -->
<g id="node34" class="node">
<title>Node34</title>
<g id="a_node34"><a xlink:href="../../d2/d0a/classPacket__id4evt.html#a48d981c8059b542564542a999c990517" target="_top" xlink:title="Packet_id4evt::decode">
<polygon fill="none" stroke="#000000" points="371.5,-633.5 371.5,-653.5 501.5,-653.5 501.5,-633.5 371.5,-633.5"/>
<text text-anchor="middle" x="436.5" y="-640.5" font-family="FreeSans" font-size="10.00" fill="#000000">Packet_id4evt::decode</text>
</a>
</g>
</g>
<!-- Node2&#45;&gt;Node34 -->
<g id="edge35" class="edge">
<title>Node2&#45;&gt;Node34</title>
<path fill="none" stroke="#191970" d="M308.2138,-892.3855C309.1911,-891.4752 310.1221,-890.5143 311,-889.5 377.5608,-812.5926 277.3391,-737.6111 347,-663.5 353.6517,-656.4233 362.2151,-651.5836 371.4014,-648.3165"/>
<polygon fill="#191970" stroke="#191970" points="305.9546,-889.701 299.9327,-898.4181 310.0763,-895.3589 305.9546,-889.701"/>
</g>
<!-- Node35 -->
<g id="node35" class="node">
<title>Node35</title>
<g id="a_node35"><a xlink:href="../../db/dc6/classPacket__id4scaler.html#a3328f89c9a04b1d4c3b530ecf3c3af2b" target="_top" xlink:title="Packet_id4scaler::decode">
<polygon fill="none" stroke="#000000" points="364.5,-594.5 364.5,-614.5 508.5,-614.5 508.5,-594.5 364.5,-594.5"/>
<text text-anchor="middle" x="436.5" y="-601.5" font-family="FreeSans" font-size="10.00" fill="#000000">Packet_id4scaler::decode</text>
</a>
</g>
</g>
<!-- Node2&#45;&gt;Node35 -->
<g id="edge36" class="edge">
<title>Node2&#45;&gt;Node35</title>
<path fill="none" stroke="#191970" d="M308.2457,-892.4127C309.2134,-891.4943 310.1338,-890.5243 311,-889.5 387.7471,-798.7394 266.5929,-712.0346 347,-624.5 351.8468,-619.2236 357.7551,-615.1842 364.202,-612.1099"/>
<polygon fill="#191970" stroke="#191970" points="305.9813,-889.734 300.0191,-898.492 310.1415,-895.3637 305.9813,-889.734"/>
</g>
<!-- Node36 -->
<g id="node36" class="node">
<title>Node36</title>
<g id="a_node36"><a xlink:href="../../db/dc6/classPacket__id4scaler.html#a48df580c79c5c746e79a436200ddb7d9" target="_top" xlink:title="Packet_id4scaler::iValue">
<polygon fill="none" stroke="#000000" points="368,-555.5 368,-575.5 505,-575.5 505,-555.5 368,-555.5"/>
<text text-anchor="middle" x="436.5" y="-562.5" font-family="FreeSans" font-size="10.00" fill="#000000">Packet_id4scaler::iValue</text>
</a>
</g>
</g>
<!-- Node2&#45;&gt;Node36 -->
<g id="edge37" class="edge">
<title>Node2&#45;&gt;Node36</title>
<path fill="none" stroke="#191970" d="M308.6469,-892.0646C309.4697,-891.25 310.2556,-890.3958 311,-889.5 397.9561,-784.8594 255.8229,-686.4839 347,-585.5 352.6549,-579.2368 359.8045,-574.7098 367.5875,-571.4684"/>
<polygon fill="#191970" stroke="#191970" points="306.199,-889.5298 300.3711,-898.3778 310.4447,-895.0953 306.199,-889.5298"/>
</g>
<!-- Node37 -->
<g id="node37" class="node">
<title>Node37</title>
<g id="a_node37"><a xlink:href="../../db/dc6/classPacket__id4scaler.html#ad3a9daed8426edb72fa3bd4cb45b9378" target="_top" xlink:title="Packet_id4scaler::dump">
<polygon fill="none" stroke="#000000" points="562.5,-516.5 562.5,-536.5 698.5,-536.5 698.5,-516.5 562.5,-516.5"/>
<text text-anchor="middle" x="630.5" y="-523.5" font-family="FreeSans" font-size="10.00" fill="#000000">Packet_id4scaler::dump</text>
</a>
</g>
</g>
<!-- Node2&#45;&gt;Node37 -->
<g id="edge41" class="edge">
<title>Node2&#45;&gt;Node37</title>
<path fill="none" stroke="#191970" d="M308.6634,-892.0782C309.4812,-891.2594 310.2616,-890.4007 311,-889.5 359.59,-830.2308 291.8895,-599.7603 347,-546.5 376.6257,-517.8689 488.2432,-518.0814 562.2716,-521.6896"/>
<polygon fill="#191970" stroke="#191970" points="306.2129,-889.5474 300.4212,-898.4191 310.4813,-895.0956 306.2129,-889.5474"/>
</g>
<!-- Node38 -->
<g id="node38" class="node">
<title>Node38</title>
<g id="a_node38"><a xlink:href="../../db/dc6/classPacket__id4scaler.html#a91496c4ceaa27f8fbf3c53032ae6d825" target="_top" xlink:title="Packet_id4scaler::lValue">
<polygon fill="none" stroke="#000000" points="368,-477.5 368,-497.5 505,-497.5 505,-477.5 368,-477.5"/>
<text text-anchor="middle" x="436.5" y="-484.5" font-family="FreeSans" font-size="10.00" fill="#000000">Packet_id4scaler::lValue</text>
</a>
</g>
</g>
<!-- Node2&#45;&gt;Node38 -->
<g id="edge39" class="edge">
<title>Node2&#45;&gt;Node38</title>
<path fill="none" stroke="#191970" d="M308.675,-892.0877C309.4893,-891.2661 310.2658,-890.4041 311,-889.5 364.0508,-824.1676 292.9893,-577.0411 347,-512.5 352.591,-505.8189 359.8056,-500.8441 367.71,-497.1529"/>
<polygon fill="#191970" stroke="#191970" points="306.2229,-889.5597 300.4567,-898.448 310.5071,-895.0956 306.2229,-889.5597"/>
</g>
<!-- Node39 -->
<g id="node39" class="node">
<title>Node39</title>
<g id="a_node39"><a xlink:href="../../dd/d36/classPacket__idcdevdescr.html#ae24e7d98e160caba7b898bf7311c7f80" target="_top" xlink:title="Packet_idcdevdescr\l::decode">
<polygon fill="none" stroke="#ff0000" points="378.5,-426.5 378.5,-458.5 494.5,-458.5 494.5,-426.5 378.5,-426.5"/>
<text text-anchor="start" x="386.5" y="-445.5" font-family="FreeSans" font-size="10.00" fill="#000000">Packet_idcdevdescr</text>
<text text-anchor="middle" x="436.5" y="-433.5" font-family="FreeSans" font-size="10.00" fill="#000000">::decode</text>
</a>
</g>
</g>
<!-- Node2&#45;&gt;Node39 -->
<g id="edge42" class="edge">
<title>Node2&#45;&gt;Node39</title>
<path fill="none" stroke="#191970" d="M308.6876,-892.0979C309.498,-891.2732 310.2704,-890.4078 311,-889.5 369.9592,-816.1373 286.9628,-539.9831 347,-467.5 354.9241,-457.9332 366.1784,-451.8596 378.0427,-448.0435"/>
<polygon fill="#191970" stroke="#191970" points="306.2336,-889.5729 300.495,-898.479 310.535,-895.0954 306.2336,-889.5729"/>
</g>
<!-- Node40 -->
<g id="node40" class="node">
<title>Node40</title>
<g id="a_node40"><a xlink:href="../../dd/d36/classPacket__idcdevdescr.html#af428eb8ad0467f31ed395fe375ec5be4" target="_top" xlink:title="Packet_idcdevdescr\l::dump">
<polygon fill="none" stroke="#000000" points="378.5,-375.5 378.5,-407.5 494.5,-407.5 494.5,-375.5 378.5,-375.5"/>
<text text-anchor="start" x="386.5" y="-394.5" font-family="FreeSans" font-size="10.00" fill="#000000">Packet_idcdevdescr</text>
<text text-anchor="middle" x="436.5" y="-382.5" font-family="FreeSans" font-size="10.00" fill="#000000">::dump</text>
</a>
</g>
</g>
<!-- Node2&#45;&gt;Node40 -->
<g id="edge43" class="edge">
<title>Node2&#45;&gt;Node40</title>
<path fill="none" stroke="#191970" d="M308.7567,-892.0479C309.5426,-891.2382 310.2918,-890.3895 311,-889.5 376.6598,-807.031 280.1284,-497.9895 347,-416.5 354.9827,-406.7723 366.4096,-400.6516 378.4409,-396.8429"/>
<polygon fill="#191970" stroke="#191970" points="306.4827,-889.384 300.8133,-898.3344 310.8268,-894.8731 306.4827,-889.384"/>
</g>
<!-- Node41 -->
<g id="node41" class="node">
<title>Node41</title>
<g id="a_node41"><a xlink:href="../../df/dbc/classPacket__idcstr.html#afd18adde14ad4ce63395db9bf6ab7d02" target="_top" xlink:title="Packet_idcstr::decode">
<polygon fill="none" stroke="#ff0000" points="373.5,-336.5 373.5,-356.5 499.5,-356.5 499.5,-336.5 373.5,-336.5"/>
<text text-anchor="middle" x="436.5" y="-343.5" font-family="FreeSans" font-size="10.00" fill="#000000">Packet_idcstr::decode</text>
</a>
</g>
</g>
<!-- Node2&#45;&gt;Node41 -->
<g id="edge44" class="edge">
<title>Node2&#45;&gt;Node41</title>
<path fill="none" stroke="#191970" d="M308.7658,-892.0551C309.5489,-891.2431 310.2951,-890.3921 311,-889.5 383.3636,-797.9205 270.468,-453.6258 347,-365.5 353.8741,-357.5845 363.1526,-352.4876 373.1388,-349.282"/>
<polygon fill="#191970" stroke="#191970" points="306.4899,-889.3931 300.8411,-898.3564 310.8466,-894.8721 306.4899,-889.3931"/>
</g>
<!-- Node42 -->
<g id="node42" class="node">
<title>Node42</title>
<g id="a_node42"><a xlink:href="../../d8/d29/classPacket__iddigitizerv2.html#a941e54707034271f6063f8bf99d21e9d" target="_top" xlink:title="Packet_iddigitizerv2\l::decode">
<polygon fill="none" stroke="#ff0000" points="378.5,-285.5 378.5,-317.5 494.5,-317.5 494.5,-285.5 378.5,-285.5"/>
<text text-anchor="start" x="386.5" y="-304.5" font-family="FreeSans" font-size="10.00" fill="#000000">Packet_iddigitizerv2</text>
<text text-anchor="middle" x="436.5" y="-292.5" font-family="FreeSans" font-size="10.00" fill="#000000">::decode</text>
</a>
</g>
</g>
<!-- Node2&#45;&gt;Node42 -->
<g id="edge45" class="edge">
<title>Node2&#45;&gt;Node42</title>
<path fill="none" stroke="#191970" d="M308.7716,-892.0597C309.553,-891.2464 310.2972,-890.3937 311,-889.5 388.4918,-790.9515 268.06,-423.8923 347,-326.5 354.9236,-316.7242 366.3275,-310.5847 378.3552,-306.7731"/>
<polygon fill="#191970" stroke="#191970" points="306.4946,-889.3989 300.859,-898.3705 310.8593,-894.8715 306.4946,-889.3989"/>
</g>
<!-- Node43 -->
<g id="node43" class="node">
<title>Node43</title>
<g id="a_node43"><a xlink:href="../../d8/d09/classPacket__starscaler.html#aa76d5d905231b25227690830ee50f4e6" target="_top" xlink:title="Packet_starscaler::\ldecode">
<polygon fill="none" stroke="#ff0000" points="381.5,-234.5 381.5,-266.5 491.5,-266.5 491.5,-234.5 381.5,-234.5"/>
<text text-anchor="start" x="389.5" y="-253.5" font-family="FreeSans" font-size="10.00" fill="#000000">Packet_starscaler::</text>
<text text-anchor="middle" x="436.5" y="-241.5" font-family="FreeSans" font-size="10.00" fill="#000000">decode</text>
</a>
</g>
</g>
<!-- Node2&#45;&gt;Node43 -->
<g id="edge46" class="edge">
<title>Node2&#45;&gt;Node43</title>
<path fill="none" stroke="#191970" d="M308.7781,-892.0649C309.5575,-891.2499 310.2996,-890.3956 311,-889.5 395.1995,-781.8361 261.2182,-381.9076 347,-275.5 355.5053,-264.9497 368.0651,-258.6314 381.1029,-254.9037"/>
<polygon fill="#191970" stroke="#191970" points="306.4998,-889.4053 300.879,-898.3862 310.8736,-894.8707 306.4998,-889.4053"/>
</g>
<!-- Node44 -->
<g id="node44" class="node">
<title>Node44</title>
<g id="a_node44"><a xlink:href="../../db/d8d/classPacket__w4.html#aea150c5cc9796b664f76a6d670aaaf1e" target="_top" xlink:title="Packet_w4::gdump">
<polygon fill="none" stroke="#ff0000" points="381,-195.5 381,-215.5 492,-215.5 492,-195.5 381,-195.5"/>
<text text-anchor="middle" x="436.5" y="-202.5" font-family="FreeSans" font-size="10.00" fill="#000000">Packet_w4::gdump</text>
</a>
</g>
</g>
<!-- Node2&#45;&gt;Node44 -->
<g id="edge47" class="edge">
<title>Node2&#45;&gt;Node44</title>
<path fill="none" stroke="#191970" d="M308.7837,-892.0692C309.5614,-891.2529 310.3016,-890.3972 311,-889.5 401.9088,-772.7187 250.7743,-336.9406 347,-224.5 355.5723,-214.4832 367.994,-208.9644 380.868,-206.0799"/>
<polygon fill="#191970" stroke="#191970" points="306.5043,-889.4107 300.896,-898.3995 310.8857,-894.87 306.5043,-889.4107"/>
</g>
<!-- Node45 -->
<g id="node45" class="node">
<title>Node45</title>
<g id="a_node45"><a xlink:href="../../d0/d26/classPacket__w2.html#a50505fc8bd3fd910b4bfbda1b9eca673" target="_top" xlink:title="Packet_w2::gdump">
<polygon fill="none" stroke="#ff0000" points="381,-156.5 381,-176.5 492,-176.5 492,-156.5 381,-156.5"/>
<text text-anchor="middle" x="436.5" y="-163.5" font-family="FreeSans" font-size="10.00" fill="#000000">Packet_w2::gdump</text>
</a>
</g>
</g>
<!-- Node2&#45;&gt;Node45 -->
<g id="edge48" class="edge">
<title>Node2&#45;&gt;Node45</title>
<path fill="none" stroke="#191970" d="M308.7874,-892.0721C309.5639,-891.2549 310.303,-890.3982 311,-889.5 407.0402,-765.7456 245.3251,-304.6683 347,-185.5 355.5573,-175.4704 367.9738,-169.9471 380.8475,-167.0624"/>
<polygon fill="#191970" stroke="#191970" points="306.5073,-889.4143 300.9074,-898.4083 310.8937,-894.8695 306.5073,-889.4143"/>
</g>
<!-- Node46 -->
<g id="node46" class="node">
<title>Node46</title>
<g id="a_node46"><a xlink:href="../../da/d8b/classPacket__w1.html#a80e4563cad1cf784660e158355444e00" target="_top" xlink:title="Packet_w1::gdump">
<polygon fill="none" stroke="#ff0000" points="381,-117.5 381,-137.5 492,-137.5 492,-117.5 381,-117.5"/>
<text text-anchor="middle" x="436.5" y="-124.5" font-family="FreeSans" font-size="10.00" fill="#000000">Packet_w1::gdump</text>
</a>
</g>
</g>
<!-- Node2&#45;&gt;Node46 -->
<g id="edge49" class="edge">
<title>Node2&#45;&gt;Node46</title>
<path fill="none" stroke="#191970" d="M308.7907,-892.0746C309.5662,-891.2567 310.3042,-890.3991 311,-889.5 361.5861,-824.1359 293.4376,-209.4483 347,-146.5 355.5439,-136.4589 367.9556,-130.9316 380.8291,-128.0467"/>
<polygon fill="#191970" stroke="#191970" points="306.5099,-889.4176 300.9175,-898.4162 310.901,-894.8691 306.5099,-889.4176"/>
</g>
<!-- Node47 -->
<g id="node47" class="node">
<title>Node47</title>
<g id="a_node47"><a xlink:href="../../d2/d89/packetRoutines_8h.html#a51b2f78e3681264053d2f7daf5115adc" target="_top" xlink:title="startUnstructDataWrite">
<polygon fill="none" stroke="#000000" points="370,-78.5 370,-98.5 503,-98.5 503,-78.5 370,-78.5"/>
<text text-anchor="middle" x="436.5" y="-85.5" font-family="FreeSans" font-size="10.00" fill="#000000">startUnstructDataWrite</text>
</a>
</g>
</g>
<!-- Node2&#45;&gt;Node47 -->
<g id="edge50" class="edge">
<title>Node2&#45;&gt;Node47</title>
<path fill="none" stroke="#191970" d="M308.7937,-892.077C309.5683,-891.2583 310.3052,-890.4 311,-889.5 364.1523,-820.6486 290.7125,-173.8128 347,-107.5 353.0647,-100.3551 361.0879,-95.4943 369.8446,-92.2443"/>
<polygon fill="#191970" stroke="#191970" points="306.5124,-889.4204 300.9267,-898.4233 310.9075,-894.8687 306.5124,-889.4204"/>
</g>
<!-- Node48 -->
<g id="node48" class="node">
<title>Node48</title>
<g id="a_node48"><a xlink:href="../../d2/d89/packetRoutines_8h.html#a4daa6b4f44a6f4e2a7f677e5b944ba7c" target="_top" xlink:title="storePacketHits">
<polygon fill="none" stroke="#ff0000" points="389.5,-39.5 389.5,-59.5 483.5,-59.5 483.5,-39.5 389.5,-39.5"/>
<text text-anchor="middle" x="436.5" y="-46.5" font-family="FreeSans" font-size="10.00" fill="#000000">storePacketHits</text>
</a>
</g>
</g>
<!-- Node2&#45;&gt;Node48 -->
<g id="edge51" class="edge">
<title>Node2&#45;&gt;Node48</title>
<path fill="none" stroke="#191970" d="M308.7965,-892.0791C309.5702,-891.2598 310.3062,-890.4007 311,-889.5 366.7187,-817.1611 287.9871,-138.1776 347,-68.5 357.3687,-56.2575 373.4869,-50.7177 389.2041,-48.4973"/>
<polygon fill="#191970" stroke="#191970" points="306.5145,-889.4231 300.935,-898.4297 310.9134,-894.8683 306.5145,-889.4231"/>
</g>
<!-- Node49 -->
<g id="node49" class="node">
<title>Node49</title>
<g id="a_node49"><a xlink:href="../../d2/d89/packetRoutines_8h.html#a8f6990d885072b07fe4fd765a187a43a" target="_top" xlink:title="fetchPacketHits">
<polygon fill="none" stroke="#000000" points="389.5,-.5 389.5,-20.5 483.5,-20.5 483.5,-.5 389.5,-.5"/>
<text text-anchor="middle" x="436.5" y="-7.5" font-family="FreeSans" font-size="10.00" fill="#000000">fetchPacketHits</text>
</a>
</g>
</g>
<!-- Node2&#45;&gt;Node49 -->
<g id="edge52" class="edge">
<title>Node2&#45;&gt;Node49</title>
<path fill="none" stroke="#191970" d="M308.7989,-892.081C309.5719,-891.2611 310.3071,-890.4014 311,-889.5 369.2854,-813.6733 285.2615,-102.5426 347,-29.5 357.3565,-17.2472 373.4722,-11.7052 389.1907,-9.486"/>
<polygon fill="#191970" stroke="#191970" points="306.5165,-889.4254 300.9426,-898.4355 310.9187,-894.868 306.5165,-889.4254"/>
</g>
<!-- Node4 -->
<g id="node4" class="node">
<title>Node4</title>
<g id="a_node4"><a xlink:href="../../d4/dea/formatIO_8h.html#ac0beeb58d5bb799ada9cd7708519317b" target="_top" xlink:title="dumpFramePackets">
<polygon fill="none" stroke="#000000" points="573,-1833.5 573,-1853.5 688,-1853.5 688,-1833.5 573,-1833.5"/>
<text text-anchor="middle" x="630.5" y="-1840.5" font-family="FreeSans" font-size="10.00" fill="#000000">dumpFramePackets</text>
</a>
</g>
</g>
<!-- Node3&#45;&gt;Node4 -->
<g id="edge3" class="edge">
<title>Node3&#45;&gt;Node4</title>
<path fill="none" stroke="#191970" d="M486.3863,-1843.5C512.7792,-1843.5 545.3185,-1843.5 572.7953,-1843.5"/>
<polygon fill="#191970" stroke="#191970" points="486.227,-1840.0001 476.2269,-1843.5 486.2269,-1847.0001 486.227,-1840.0001"/>
</g>
<!-- Node6 -->
<g id="node6" class="node">
<title>Node6</title>
<g id="a_node6"><a xlink:href="../../de/dce/classPacket__A.html#a28d987d8d111237fc3cd62f3973a6413" target="_top" xlink:title="Packet_A::fillIntArray">
<polygon fill="none" stroke="#ff0000" points="570.5,-1794.5 570.5,-1814.5 690.5,-1814.5 690.5,-1794.5 570.5,-1794.5"/>
<text text-anchor="middle" x="630.5" y="-1801.5" font-family="FreeSans" font-size="10.00" fill="#000000">Packet_A::fillIntArray</text>
</a>
</g>
</g>
<!-- Node5&#45;&gt;Node6 -->
<g id="edge5" class="edge">
<title>Node5&#45;&gt;Node6</title>
<path fill="none" stroke="#191970" d="M523.4807,-1804.5C539.2705,-1804.5 555.4182,-1804.5 570.2262,-1804.5"/>
<polygon fill="#191970" stroke="#191970" points="523.174,-1801.0001 513.1739,-1804.5 523.1739,-1808.0001 523.174,-1801.0001"/>
</g>
<!-- Node8 -->
<g id="node8" class="node">
<title>Node8</title>
<g id="a_node8"><a xlink:href="../../d2/dc3/classPacket__cdevbpm.html#abd086825ff188a685742eef378435f8f" target="_top" xlink:title="Packet_cdevbpm::dump">
<polygon fill="none" stroke="#000000" points="562,-1755.5 562,-1775.5 699,-1775.5 699,-1755.5 562,-1755.5"/>
<text text-anchor="middle" x="630.5" y="-1762.5" font-family="FreeSans" font-size="10.00" fill="#000000">Packet_cdevbpm::dump</text>
</a>
</g>
</g>
<!-- Node7&#45;&gt;Node8 -->
<g id="edge7" class="edge">
<title>Node7&#45;&gt;Node8</title>
<path fill="none" stroke="#191970" d="M519.2767,-1765.5C533.4962,-1765.5 548.1325,-1765.5 561.9275,-1765.5"/>
<polygon fill="#191970" stroke="#191970" points="519.0144,-1762.0001 509.0143,-1765.5 519.0143,-1769.0001 519.0144,-1762.0001"/>
</g>
<!-- Node23&#45;&gt;Node22 -->
<g id="edge23" class="edge">
<title>Node23&#45;&gt;Node22</title>
<path fill="none" stroke="#191970" d="M510.1337,-1127.7115C532.4483,-1129.897 556.5171,-1132.2543 577.224,-1134.2822"/>
<polygon fill="#191970" stroke="#191970" points="510.3164,-1124.2128 500.0229,-1126.7213 509.6341,-1131.1795 510.3164,-1124.2128"/>
</g>
<!-- Node29&#45;&gt;Node28 -->
<g id="edge30" class="edge">
<title>Node29&#45;&gt;Node28</title>
<path fill="none" stroke="#191970" d="M513.6949,-858.0603C533.9789,-860.0469 555.4698,-862.1517 574.4121,-864.0069"/>
<polygon fill="#191970" stroke="#191970" points="513.829,-854.5568 503.5354,-857.0653 513.1466,-861.5235 513.829,-854.5568"/>
</g>
<!-- Node36&#45;&gt;Node37 -->
<g id="edge38" class="edge">
<title>Node36&#45;&gt;Node37</title>
<path fill="none" stroke="#191970" d="M496.5661,-553.4249C523.5649,-547.9973 555.0513,-541.6675 580.7095,-536.5094"/>
<polygon fill="#191970" stroke="#191970" points="495.5738,-550.0542 486.4598,-555.4565 496.9535,-556.9169 495.5738,-550.0542"/>
</g>
<!-- Node38&#45;&gt;Node37 -->
<g id="edge40" class="edge">
<title>Node38&#45;&gt;Node37</title>
<path fill="none" stroke="#191970" d="M496.5661,-499.5751C523.5649,-505.0027 555.0513,-511.3325 580.7095,-516.4906"/>
<polygon fill="#191970" stroke="#191970" points="496.9535,-496.0831 486.4598,-497.5435 495.5738,-502.9458 496.9535,-496.0831"/>
</g>
</g>
</svg>
