<?xml version="1.0" encoding="UTF-8" standalone="no"?>
<!DOCTYPE svg PUBLIC "-//W3C//DTD SVG 1.1//EN"
 "http://www.w3.org/Graphics/SVG/1.1/DTD/svg11.dtd">
<!-- Generated by graphviz version 2.40.1 (20161225.0304)
 -->
<!-- Title: coresoftware/blob/master/simulation/g4simulation/g4trackfastsim/PHG4TrackFastSimEval.h Pages: 1 -->
<svg width="658pt" height="320pt"
 viewBox="0.00 0.00 657.50 320.00" xmlns="http://www.w3.org/2000/svg" xmlns:xlink="http://www.w3.org/1999/xlink">
<g id="graph0" class="graph" transform="scale(1 1) rotate(0) translate(4 316)">
<title>coresoftware/blob/master/simulation/g4simulation/g4trackfastsim/PHG4TrackFastSimEval.h</title>
<!-- Node1 -->
<g id="node1" class="node">
<title>Node1</title>
<polygon fill="#bfbfbf" stroke="#000000" points="256,-255.5 256,-311.5 449,-311.5 449,-255.5 256,-255.5"/>
<text text-anchor="start" x="264" y="-298.5" font-family="FreeSans" font-size="10.00" fill="#000000">coresoftware/blob/master</text>
<text text-anchor="start" x="264" y="-286.5" font-family="FreeSans" font-size="10.00" fill="#000000">/simulation/g4simulation</text>
<text text-anchor="start" x="264" y="-274.5" font-family="FreeSans" font-size="10.00" fill="#000000">/g4trackfastsim/PHG4TrackFastSim</text>
<text text-anchor="middle" x="352.5" y="-262.5" font-family="FreeSans" font-size="10.00" fill="#000000">Eval.h</text>
</g>
<!-- Node2 -->
<g id="node2" class="node">
<title>Node2</title>
<g id="a_node2"><a xlink:href="../../d7/de6/PHG4TrackFastSimEval_8cc.html" target="_top" xlink:title="Evaluation module for PHG4TrackFastSim output.">
<polygon fill="none" stroke="#000000" points="0,-162.5 0,-218.5 193,-218.5 193,-162.5 0,-162.5"/>
<text text-anchor="start" x="8" y="-205.5" font-family="FreeSans" font-size="10.00" fill="#000000">coresoftware/blob/master</text>
<text text-anchor="start" x="8" y="-193.5" font-family="FreeSans" font-size="10.00" fill="#000000">/simulation/g4simulation</text>
<text text-anchor="start" x="8" y="-181.5" font-family="FreeSans" font-size="10.00" fill="#000000">/g4trackfastsim/PHG4TrackFastSim</text>
<text text-anchor="middle" x="96.5" y="-169.5" font-family="FreeSans" font-size="10.00" fill="#000000">Eval.cc</text>
</a>
</g>
</g>
<!-- Node1&#45;&gt;Node2 -->
<g id="edge1" class="edge">
<title>Node1&#45;&gt;Node2</title>
<path fill="none" stroke="#191970" d="M265.8055,-252.0055C236.0354,-241.1906 202.9264,-229.1627 173.9393,-218.6323"/>
<polygon fill="#191970" stroke="#191970" points="264.7503,-255.3459 275.3444,-255.4708 267.1405,-248.7666 264.7503,-255.3459"/>
</g>
<!-- Node3 -->
<g id="node3" class="node">
<title>Node3</title>
<g id="a_node3"><a xlink:href="../../d1/d31/G4__Tracking__EIC_8C.html" target="_top" xlink:title="macros/blob/master\l/macros/g4simulations\l/G4_Tracking_EIC.C">
<polygon fill="none" stroke="#000000" points="211.5,-168.5 211.5,-212.5 343.5,-212.5 343.5,-168.5 211.5,-168.5"/>
<text text-anchor="start" x="219.5" y="-199.5" font-family="FreeSans" font-size="10.00" fill="#000000">macros/blob/master</text>
<text text-anchor="start" x="219.5" y="-187.5" font-family="FreeSans" font-size="10.00" fill="#000000">/macros/g4simulations</text>
<text text-anchor="middle" x="277.5" y="-175.5" font-family="FreeSans" font-size="10.00" fill="#000000">/G4_Tracking_EIC.C</text>
</a>
</g>
</g>
<!-- Node1&#45;&gt;Node3 -->
<g id="edge2" class="edge">
<title>Node1&#45;&gt;Node3</title>
<path fill="none" stroke="#191970" d="M323.4024,-247.419C313.9512,-235.6995 303.7494,-223.0492 295.3691,-212.6577"/>
<polygon fill="#191970" stroke="#191970" points="320.792,-249.7575 329.794,-255.3446 326.2409,-245.3633 320.792,-249.7575"/>
</g>
<!-- Node6 -->
<g id="node6" class="node">
<title>Node6</title>
<g id="a_node6"><a xlink:href="../../d6/d6b/macros_2blob_2master_2macros_2g4simulations_2G4__FGEM__fsPHENIX_8C.html" target="_top" xlink:title="macros/blob/master\l/macros/g4simulations\l/G4_FGEM_fsPHENIX.C">
<polygon fill="none" stroke="#000000" points="361.5,-168.5 361.5,-212.5 493.5,-212.5 493.5,-168.5 361.5,-168.5"/>
<text text-anchor="start" x="369.5" y="-199.5" font-family="FreeSans" font-size="10.00" fill="#000000">macros/blob/master</text>
<text text-anchor="start" x="369.5" y="-187.5" font-family="FreeSans" font-size="10.00" fill="#000000">/macros/g4simulations</text>
<text text-anchor="middle" x="427.5" y="-175.5" font-family="FreeSans" font-size="10.00" fill="#000000">/G4_FGEM_fsPHENIX.C</text>
</a>
</g>
</g>
<!-- Node1&#45;&gt;Node6 -->
<g id="edge5" class="edge">
<title>Node1&#45;&gt;Node6</title>
<path fill="none" stroke="#191970" d="M381.5976,-247.419C391.0488,-235.6995 401.2506,-223.0492 409.6309,-212.6577"/>
<polygon fill="#191970" stroke="#191970" points="378.7591,-245.3633 375.206,-255.3446 384.208,-249.7575 378.7591,-245.3633"/>
</g>
<!-- Node9 -->
<g id="node9" class="node">
<title>Node9</title>
<g id="a_node9"><a xlink:href="../../d9/d8f/Fun4All__G4__Momentum_8C.html" target="_top" xlink:title="tutorials/blob/master\l/Momentum/Fun4All_G4\l_Momentum.C">
<polygon fill="none" stroke="#000000" points="511.5,-168.5 511.5,-212.5 649.5,-212.5 649.5,-168.5 511.5,-168.5"/>
<text text-anchor="start" x="519.5" y="-199.5" font-family="FreeSans" font-size="10.00" fill="#000000">tutorials/blob/master</text>
<text text-anchor="start" x="519.5" y="-187.5" font-family="FreeSans" font-size="10.00" fill="#000000">/Momentum/Fun4All_G4</text>
<text text-anchor="middle" x="580.5" y="-175.5" font-family="FreeSans" font-size="10.00" fill="#000000">_Momentum.C</text>
</a>
</g>
</g>
<!-- Node1&#45;&gt;Node9 -->
<g id="edge8" class="edge">
<title>Node1&#45;&gt;Node9</title>
<path fill="none" stroke="#191970" d="M430.8481,-251.5422C462.3396,-238.697 497.867,-224.2056 526.4011,-212.5666"/>
<polygon fill="#191970" stroke="#191970" points="429.1541,-248.4531 421.2167,-255.4708 431.798,-254.9347 429.1541,-248.4531"/>
</g>
<!-- Node4 -->
<g id="node4" class="node">
<title>Node4</title>
<g id="a_node4"><a xlink:href="../../d2/dfe/macros_2blob_2master_2macros_2g4simulations_2G4Setup__EICDetector_8C.html" target="_top" xlink:title="macros/blob/master\l/macros/g4simulations\l/G4Setup_EICDetector.C">
<polygon fill="none" stroke="#000000" points="205,-81.5 205,-125.5 344,-125.5 344,-81.5 205,-81.5"/>
<text text-anchor="start" x="213" y="-112.5" font-family="FreeSans" font-size="10.00" fill="#000000">macros/blob/master</text>
<text text-anchor="start" x="213" y="-100.5" font-family="FreeSans" font-size="10.00" fill="#000000">/macros/g4simulations</text>
<text text-anchor="middle" x="274.5" y="-88.5" font-family="FreeSans" font-size="10.00" fill="#000000">/G4Setup_EICDetector.C</text>
</a>
</g>
</g>
<!-- Node3&#45;&gt;Node4 -->
<g id="edge3" class="edge">
<title>Node3&#45;&gt;Node4</title>
<path fill="none" stroke="#191970" d="M276.3824,-158.0893C276.0082,-147.2369 275.5999,-135.3979 275.2596,-125.5276"/>
<polygon fill="#191970" stroke="#191970" points="272.8848,-158.2219 276.7274,-168.0953 279.8806,-157.9806 272.8848,-158.2219"/>
</g>
<!-- Node5 -->
<g id="node5" class="node">
<title>Node5</title>
<g id="a_node5"><a xlink:href="../../da/d02/Fun4All__G4__EICDetector_8C.html" target="_top" xlink:title="macros/blob/master\l/macros/g4simulations\l/Fun4All_G4_EICDetector.C">
<polygon fill="none" stroke="#000000" points="193.5,-.5 193.5,-44.5 345.5,-44.5 345.5,-.5 193.5,-.5"/>
<text text-anchor="start" x="201.5" y="-31.5" font-family="FreeSans" font-size="10.00" fill="#000000">macros/blob/master</text>
<text text-anchor="start" x="201.5" y="-19.5" font-family="FreeSans" font-size="10.00" fill="#000000">/macros/g4simulations</text>
<text text-anchor="middle" x="269.5" y="-7.5" font-family="FreeSans" font-size="10.00" fill="#000000">/Fun4All_G4_EICDetector.C</text>
</a>
</g>
</g>
<!-- Node4&#45;&gt;Node5 -->
<g id="edge4" class="edge">
<title>Node4&#45;&gt;Node5</title>
<path fill="none" stroke="#191970" d="M272.509,-71.2457C271.9575,-62.3118 271.3715,-52.8188 270.8646,-44.6068"/>
<polygon fill="#191970" stroke="#191970" points="269.0242,-71.6011 273.1337,-81.3664 276.0109,-71.1697 269.0242,-71.6011"/>
</g>
<!-- Node7 -->
<g id="node7" class="node">
<title>Node7</title>
<g id="a_node7"><a xlink:href="../../da/d21/macros_2blob_2master_2macros_2g4simulations_2G4Setup__fsPHENIX_8C.html" target="_top" xlink:title="macros/blob/master\l/macros/g4simulations\l/G4Setup_fsPHENIX.C">
<polygon fill="none" stroke="#000000" points="364.5,-81.5 364.5,-125.5 496.5,-125.5 496.5,-81.5 364.5,-81.5"/>
<text text-anchor="start" x="372.5" y="-112.5" font-family="FreeSans" font-size="10.00" fill="#000000">macros/blob/master</text>
<text text-anchor="start" x="372.5" y="-100.5" font-family="FreeSans" font-size="10.00" fill="#000000">/macros/g4simulations</text>
<text text-anchor="middle" x="430.5" y="-88.5" font-family="FreeSans" font-size="10.00" fill="#000000">/G4Setup_fsPHENIX.C</text>
</a>
</g>
</g>
<!-- Node6&#45;&gt;Node7 -->
<g id="edge6" class="edge">
<title>Node6&#45;&gt;Node7</title>
<path fill="none" stroke="#191970" d="M428.6176,-158.0893C428.9918,-147.2369 429.4001,-135.3979 429.7404,-125.5276"/>
<polygon fill="#191970" stroke="#191970" points="425.1194,-157.9806 428.2726,-168.0953 432.1152,-158.2219 425.1194,-157.9806"/>
</g>
<!-- Node8 -->
<g id="node8" class="node">
<title>Node8</title>
<g id="a_node8"><a xlink:href="../../d7/d9e/Fun4All__G4__fsPHENIX_8C.html" target="_top" xlink:title="macros/blob/master\l/macros/g4simulations\l/Fun4All_G4_fsPHENIX.C">
<polygon fill="none" stroke="#000000" points="364,-.5 364,-44.5 503,-44.5 503,-.5 364,-.5"/>
<text text-anchor="start" x="372" y="-31.5" font-family="FreeSans" font-size="10.00" fill="#000000">macros/blob/master</text>
<text text-anchor="start" x="372" y="-19.5" font-family="FreeSans" font-size="10.00" fill="#000000">/macros/g4simulations</text>
<text text-anchor="middle" x="433.5" y="-7.5" font-family="FreeSans" font-size="10.00" fill="#000000">/Fun4All_G4_fsPHENIX.C</text>
</a>
</g>
</g>
<!-- Node7&#45;&gt;Node8 -->
<g id="edge7" class="edge">
<title>Node7&#45;&gt;Node8</title>
<path fill="none" stroke="#191970" d="M431.6946,-71.2457C432.0255,-62.3118 432.3771,-52.8188 432.6812,-44.6068"/>
<polygon fill="#191970" stroke="#191970" points="428.1924,-71.2437 431.3198,-81.3664 435.1876,-71.5028 428.1924,-71.2437"/>
</g>
</g>
</svg>
