<?xml version="1.0" encoding="UTF-8" standalone="no"?>
<!DOCTYPE svg PUBLIC "-//W3C//DTD SVG 1.1//EN"
 "http://www.w3.org/Graphics/SVG/1.1/DTD/svg11.dtd">
<!-- Generated by graphviz version 2.40.1 (20161225.0304)
 -->
<!-- Title: getUnstructPacketDataPadding Pages: 1 -->
<svg width="668pt" height="68pt"
 viewBox="0.00 0.00 668.00 68.00" xmlns="http://www.w3.org/2000/svg" xmlns:xlink="http://www.w3.org/1999/xlink">
<g id="graph0" class="graph" transform="scale(1 1) rotate(0) translate(4 64)">
<title>getUnstructPacketDataPadding</title>
<!-- Node1 -->
<g id="node1" class="node">
<title>Node1</title>
<polygon fill="#bfbfbf" stroke="#000000" points="0,-19.5 0,-39.5 173,-39.5 173,-19.5 0,-19.5"/>
<text text-anchor="middle" x="86.5" y="-26.5" font-family="FreeSans" font-size="10.00" fill="#000000">getUnstructPacketDataPadding</text>
</g>
<!-- Node2 -->
<g id="node2" class="node">
<title>Node2</title>
<g id="a_node2"><a xlink:href="../../dc/d93/Cpacket_8C.html#acfa2f79342c6237bb5cf63e53d27c75a" target="_top" xlink:title="findPacketDataDescr">
<polygon fill="none" stroke="#000000" points="232.5,-39.5 232.5,-59.5 354.5,-59.5 354.5,-39.5 232.5,-39.5"/>
<text text-anchor="middle" x="293.5" y="-46.5" font-family="FreeSans" font-size="10.00" fill="#000000">findPacketDataDescr</text>
</a>
</g>
</g>
<!-- Node1&#45;&gt;Node2 -->
<g id="edge1" class="edge">
<title>Node1&#45;&gt;Node2</title>
<path fill="none" stroke="#191970" d="M173.0872,-37.8659C189.4458,-39.4464 206.3836,-41.083 222.2062,-42.6117"/>
<polygon fill="#191970" stroke="#191970" points="222.1352,-46.1211 232.4255,-43.5991 222.8085,-39.1535 222.1352,-46.1211"/>
</g>
<!-- Node5 -->
<g id="node5" class="node">
<title>Node5</title>
<g id="a_node5"><a xlink:href="../../d3/d7c/dataBlock_8h.html#ab4fe1964af09ca6459ee21b495acd148" target="_top" xlink:title="getUnstructDescrDataPadding">
<polygon fill="none" stroke="#000000" points="209,-.5 209,-20.5 378,-20.5 378,-.5 209,-.5"/>
<text text-anchor="middle" x="293.5" y="-7.5" font-family="FreeSans" font-size="10.00" fill="#000000">getUnstructDescrDataPadding</text>
</a>
</g>
</g>
<!-- Node1&#45;&gt;Node5 -->
<g id="edge4" class="edge">
<title>Node1&#45;&gt;Node5</title>
<path fill="none" stroke="#191970" d="M173.0872,-21.5524C181.6075,-20.7703 190.285,-19.9738 198.8801,-19.1849"/>
<polygon fill="#191970" stroke="#191970" points="199.2798,-22.663 208.918,-18.2636 198.6399,-15.6923 199.2798,-22.663"/>
</g>
<!-- Node3 -->
<g id="node3" class="node">
<title>Node3</title>
<g id="a_node3"><a xlink:href="../../de/d93/Cpacket_8h.html#a5086c5b9a0c51b566d8fe9ab6a5a6213" target="_top" xlink:title="getPacketHdrVersion">
<polygon fill="none" stroke="#000000" points="414,-39.5 414,-59.5 535,-59.5 535,-39.5 414,-39.5"/>
<text text-anchor="middle" x="474.5" y="-46.5" font-family="FreeSans" font-size="10.00" fill="#000000">getPacketHdrVersion</text>
</a>
</g>
</g>
<!-- Node2&#45;&gt;Node3 -->
<g id="edge2" class="edge">
<title>Node2&#45;&gt;Node3</title>
<path fill="none" stroke="#191970" d="M354.526,-49.5C370.185,-49.5 387.1656,-49.5 403.2894,-49.5"/>
<polygon fill="#191970" stroke="#191970" points="403.7389,-53.0001 413.7389,-49.5 403.7389,-46.0001 403.7389,-53.0001"/>
</g>
<!-- Node4 -->
<g id="node4" class="node">
<title>Node4</title>
<g id="a_node4"><a xlink:href="../../d0/db6/formatError_8C.html#acc9f1b83d468fccaa25cbd751730a101" target="_top" xlink:title="setPacketError">
<polygon fill="none" stroke="#000000" points="571,-39.5 571,-59.5 660,-59.5 660,-39.5 571,-39.5"/>
<text text-anchor="middle" x="615.5" y="-46.5" font-family="FreeSans" font-size="10.00" fill="#000000">setPacketError</text>
</a>
</g>
</g>
<!-- Node3&#45;&gt;Node4 -->
<g id="edge3" class="edge">
<title>Node3&#45;&gt;Node4</title>
<path fill="none" stroke="#191970" d="M535.115,-49.5C543.6053,-49.5 552.2908,-49.5 560.6656,-49.5"/>
<polygon fill="#191970" stroke="#191970" points="560.693,-53.0001 570.693,-49.5 560.6929,-46.0001 560.693,-53.0001"/>
</g>
</g>
</svg>
