<?xml version="1.0" encoding="UTF-8" standalone="no"?>
<!DOCTYPE svg PUBLIC "-//W3C//DTD SVG 1.1//EN"
 "http://www.w3.org/Graphics/SVG/1.1/DTD/svg11.dtd">
<!-- Generated by graphviz version 2.40.1 (20161225.0304)
 -->
<!-- Title: setUnstructDescrWordSize Pages: 1 -->
<svg width="1320pt" height="107pt"
 viewBox="0.00 0.00 1320.00 107.00" xmlns="http://www.w3.org/2000/svg" xmlns:xlink="http://www.w3.org/1999/xlink">
<g id="graph0" class="graph" transform="scale(1 1) rotate(0) translate(4 103)">
<title>setUnstructDescrWordSize</title>
<!-- Node1 -->
<g id="node1" class="node">
<title>Node1</title>
<polygon fill="#bfbfbf" stroke="#000000" points="0,-19.5 0,-39.5 150,-39.5 150,-19.5 0,-19.5"/>
<text text-anchor="middle" x="75" y="-26.5" font-family="FreeSans" font-size="10.00" fill="#000000">setUnstructDescrWordSize</text>
</g>
<!-- Node2 -->
<g id="node2" class="node">
<title>Node2</title>
<g id="a_node2"><a xlink:href="../../d3/d7c/dataBlock_8h.html#a73dcbf3778b215ee3e0937235ca00b4e" target="_top" xlink:title="makeUnstructDataDescr">
<polygon fill="none" stroke="#000000" points="193,-39.5 193,-59.5 333,-59.5 333,-39.5 193,-39.5"/>
<text text-anchor="middle" x="263" y="-46.5" font-family="FreeSans" font-size="10.00" fill="#000000">makeUnstructDataDescr</text>
</a>
</g>
</g>
<!-- Node1&#45;&gt;Node2 -->
<g id="edge1" class="edge">
<title>Node1&#45;&gt;Node2</title>
<path fill="none" stroke="#191970" d="M160.1174,-38.555C171.0796,-39.7212 182.2044,-40.9047 192.8882,-42.0413"/>
<polygon fill="#191970" stroke="#191970" points="160.4273,-35.0683 150.1131,-37.4908 159.6867,-42.0291 160.4273,-35.0683"/>
</g>
<!-- Node10 -->
<g id="node10" class="node">
<title>Node10</title>
<g id="a_node10"><a xlink:href="../../d3/d7c/dataBlock_8h.html#a5ea84942f616779aecc1fec9ff11b6c8" target="_top" xlink:title="setUnstructPacketWordSize">
<polygon fill="none" stroke="#000000" points="186,-.5 186,-20.5 340,-20.5 340,-.5 186,-.5"/>
<text text-anchor="middle" x="263" y="-7.5" font-family="FreeSans" font-size="10.00" fill="#000000">setUnstructPacketWordSize</text>
</a>
</g>
</g>
<!-- Node1&#45;&gt;Node10 -->
<g id="edge9" class="edge">
<title>Node1&#45;&gt;Node10</title>
<path fill="none" stroke="#191970" d="M160.1174,-20.8977C168.6933,-20.031 177.3686,-19.1542 185.8545,-18.2966"/>
<polygon fill="#191970" stroke="#191970" points="159.7104,-17.4209 150.1131,-21.9088 160.4144,-24.3854 159.7104,-17.4209"/>
</g>
<!-- Node3 -->
<g id="node3" class="node">
<title>Node3</title>
<g id="a_node3"><a xlink:href="../../d3/d7c/dataBlock_8h.html#a28cb0c6fe257a765c312e9094bb2908c" target="_top" xlink:title="makeUnstructPacketDataDescr">
<polygon fill="none" stroke="#000000" points="376,-39.5 376,-59.5 549,-59.5 549,-39.5 376,-39.5"/>
<text text-anchor="middle" x="462.5" y="-46.5" font-family="FreeSans" font-size="10.00" fill="#000000">makeUnstructPacketDataDescr</text>
</a>
</g>
</g>
<!-- Node2&#45;&gt;Node3 -->
<g id="edge2" class="edge">
<title>Node2&#45;&gt;Node3</title>
<path fill="none" stroke="#191970" d="M343.2193,-49.5C353.9378,-49.5 364.9694,-49.5 375.7926,-49.5"/>
<polygon fill="#191970" stroke="#191970" points="343.0557,-46.0001 333.0557,-49.5 343.0557,-53.0001 343.0557,-46.0001"/>
</g>
<!-- Node4 -->
<g id="node4" class="node">
<title>Node4</title>
<g id="a_node4"><a xlink:href="../../d2/d89/packetRoutines_8h.html#abe0c0e4605177b617049357d05ca74ca" target="_top" xlink:title="makeUnstructPacket">
<polygon fill="none" stroke="#000000" points="590,-59.5 590,-79.5 710,-79.5 710,-59.5 590,-59.5"/>
<text text-anchor="middle" x="650" y="-66.5" font-family="FreeSans" font-size="10.00" fill="#000000">makeUnstructPacket</text>
</a>
</g>
</g>
<!-- Node3&#45;&gt;Node4 -->
<g id="edge3" class="edge">
<title>Node3&#45;&gt;Node4</title>
<path fill="none" stroke="#191970" d="M559.1736,-59.8118C569.6671,-60.9312 580.1117,-62.0452 589.9809,-63.098"/>
<polygon fill="#191970" stroke="#191970" points="559.4299,-56.3194 549.115,-58.7389 558.6874,-63.2799 559.4299,-56.3194"/>
</g>
<!-- Node9 -->
<g id="node9" class="node">
<title>Node9</title>
<g id="a_node9"><a xlink:href="../../d3/d64/packetRoutines_8C.html#ab9302c7bcce9292bcd3d03ef1c0643d0" target="_top" xlink:title="setPacketUnstructured">
<polygon fill="none" stroke="#000000" points="585,-20.5 585,-40.5 715,-40.5 715,-20.5 585,-20.5"/>
<text text-anchor="middle" x="650" y="-27.5" font-family="FreeSans" font-size="10.00" fill="#000000">setPacketUnstructured</text>
</a>
</g>
</g>
<!-- Node3&#45;&gt;Node9 -->
<g id="edge8" class="edge">
<title>Node3&#45;&gt;Node9</title>
<path fill="none" stroke="#191970" d="M559.2547,-39.6955C567.8939,-38.8201 576.499,-37.9481 584.7763,-37.1093"/>
<polygon fill="#191970" stroke="#191970" points="558.7112,-36.2326 549.115,-40.723 559.417,-43.1969 558.7112,-36.2326"/>
</g>
<!-- Node5 -->
<g id="node5" class="node">
<title>Node5</title>
<g id="a_node5"><a xlink:href="../../df/d06/fakeFrame_8C.html#a747f31be4098f000504011767116e41c" target="_top" xlink:title="fakeFrame">
<polygon fill="none" stroke="#000000" points="804.5,-78.5 804.5,-98.5 873.5,-98.5 873.5,-78.5 804.5,-78.5"/>
<text text-anchor="middle" x="839" y="-85.5" font-family="FreeSans" font-size="10.00" fill="#000000">fakeFrame</text>
</a>
</g>
</g>
<!-- Node4&#45;&gt;Node5 -->
<g id="edge4" class="edge">
<title>Node4&#45;&gt;Node5</title>
<path fill="none" stroke="#191970" d="M720.0837,-76.5455C748.8576,-79.4381 780.8738,-82.6566 804.4307,-85.0248"/>
<polygon fill="#191970" stroke="#191970" points="720.3604,-73.0557 710.0605,-75.5378 719.6602,-80.0206 720.3604,-73.0557"/>
</g>
<!-- Node6 -->
<g id="node6" class="node">
<title>Node6</title>
<g id="a_node6"><a xlink:href="../../da/d59/classoEvent.html#a5e0a819b25ded38741cc78c0b84c47e1" target="_top" xlink:title="oEvent::addUnstructPacketData">
<polygon fill="none" stroke="#000000" points="751,-39.5 751,-59.5 927,-59.5 927,-39.5 751,-39.5"/>
<text text-anchor="middle" x="839" y="-46.5" font-family="FreeSans" font-size="10.00" fill="#000000">oEvent::addUnstructPacketData</text>
</a>
</g>
</g>
<!-- Node4&#45;&gt;Node6 -->
<g id="edge5" class="edge">
<title>Node4&#45;&gt;Node6</title>
<path fill="none" stroke="#191970" d="M720.2722,-62.0638C730.2244,-61.0106 740.561,-59.9168 750.7986,-58.8335"/>
<polygon fill="#191970" stroke="#191970" points="719.6366,-58.6114 710.0605,-63.1444 720.3733,-65.5725 719.6366,-58.6114"/>
</g>
<!-- Node7 -->
<g id="node7" class="node">
<title>Node7</title>
<g id="a_node7"><a xlink:href="../../de/dc8/classoBuffer.html#ac574c2c3e93c114ac6934e45fa7f9b7f" target="_top" xlink:title="oBuffer::addUnstructPacketData">
<polygon fill="none" stroke="#000000" points="963,-39.5 963,-59.5 1141,-59.5 1141,-39.5 963,-39.5"/>
<text text-anchor="middle" x="1052" y="-46.5" font-family="FreeSans" font-size="10.00" fill="#000000">oBuffer::addUnstructPacketData</text>
</a>
</g>
</g>
<!-- Node6&#45;&gt;Node7 -->
<g id="edge6" class="edge">
<title>Node6&#45;&gt;Node7</title>
<path fill="none" stroke="#191970" d="M937.179,-49.5C945.7425,-49.5 954.3781,-49.5 962.8626,-49.5"/>
<polygon fill="#191970" stroke="#191970" points="937.1728,-46.0001 927.1728,-49.5 937.1728,-53.0001 937.1728,-46.0001"/>
</g>
<!-- Node8 -->
<g id="node8" class="node">
<title>Node8</title>
<g id="a_node8"><a xlink:href="../../df/d36/classPHRawOManager.html#aa67d8808f730acc0b88554b5ce09e3bc" target="_top" xlink:title="PHRawOManager::write">
<polygon fill="none" stroke="#000000" points="1177,-39.5 1177,-59.5 1312,-59.5 1312,-39.5 1177,-39.5"/>
<text text-anchor="middle" x="1244.5" y="-46.5" font-family="FreeSans" font-size="10.00" fill="#000000">PHRawOManager::write</text>
</a>
</g>
</g>
<!-- Node7&#45;&gt;Node8 -->
<g id="edge7" class="edge">
<title>Node7&#45;&gt;Node8</title>
<path fill="none" stroke="#191970" d="M1151.3479,-49.5C1159.9885,-49.5 1168.5958,-49.5 1176.8908,-49.5"/>
<polygon fill="#191970" stroke="#191970" points="1151.2061,-46.0001 1141.206,-49.5 1151.206,-53.0001 1151.2061,-46.0001"/>
</g>
</g>
</svg>
