<?xml version="1.0" encoding="UTF-8" standalone="no"?>
<!DOCTYPE svg PUBLIC "-//W3C//DTD SVG 1.1//EN"
 "http://www.w3.org/Graphics/SVG/1.1/DTD/svg11.dtd">
<!-- Generated by graphviz version 2.40.1 (20161225.0304)
 -->
<!-- Title: PHHepMCGenHelper::set_vertex_distribution_mean Pages: 1 -->
<svg width="726pt" height="398pt"
 viewBox="0.00 0.00 726.00 398.00" xmlns="http://www.w3.org/2000/svg" xmlns:xlink="http://www.w3.org/1999/xlink">
<g id="graph0" class="graph" transform="scale(1 1) rotate(0) translate(4 394)">
<title>PHHepMCGenHelper::set_vertex_distribution_mean</title>
<!-- Node1 -->
<g id="node1" class="node">
<title>Node1</title>
<polygon fill="#bfbfbf" stroke="#000000" points="0,-178.5 0,-210.5 151,-210.5 151,-178.5 0,-178.5"/>
<text text-anchor="start" x="8" y="-197.5" font-family="FreeSans" font-size="10.00" fill="#000000">PHHepMCGenHelper::set</text>
<text text-anchor="middle" x="75.5" y="-185.5" font-family="FreeSans" font-size="10.00" fill="#000000">_vertex_distribution_mean</text>
</g>
<!-- Node2 -->
<g id="node2" class="node">
<title>Node2</title>
<g id="a_node2"><a xlink:href="../../de/d99/classFun4AllHepMCPileupInputManager.html#a94b3b8e44e727ee4cfcad90d5f1933f7" target="_top" xlink:title="Fun4AllHepMCPileupInputManager\l::Fun4AllHepMCPileupInputManager">
<polygon fill="none" stroke="#000000" points="187,-357.5 187,-389.5 385,-389.5 385,-357.5 187,-357.5"/>
<text text-anchor="start" x="195" y="-376.5" font-family="FreeSans" font-size="10.00" fill="#000000">Fun4AllHepMCPileupInputManager</text>
<text text-anchor="middle" x="286" y="-364.5" font-family="FreeSans" font-size="10.00" fill="#000000">::Fun4AllHepMCPileupInputManager</text>
</a>
</g>
</g>
<!-- Node1&#45;&gt;Node2 -->
<g id="edge1" class="edge">
<title>Node1&#45;&gt;Node2</title>
<path fill="none" stroke="#191970" d="M87.1083,-220.3314C104.0202,-254.9444 138.7576,-315.7964 187,-348.5 191.9889,-351.882 197.3989,-354.8066 203.0302,-357.3357"/>
<polygon fill="#191970" stroke="#191970" points="90.0796,-218.4294 82.6253,-210.9005 83.7575,-221.4347 90.0796,-218.4294"/>
</g>
<!-- Node3 -->
<g id="node3" class="node">
<title>Node3</title>
<g id="a_node3"><a xlink:href="../../d3/d49/classReadEICFiles.html#a30e1d2849bdf070aa50b04a5137c21d6" target="_top" xlink:title="set the mean value of the vertex distribution, use PHENIX units of cm, ns">
<polygon fill="none" stroke="#000000" points="216,-306.5 216,-338.5 356,-338.5 356,-306.5 216,-306.5"/>
<text text-anchor="start" x="224" y="-325.5" font-family="FreeSans" font-size="10.00" fill="#000000">ReadEICFiles::set_vertex</text>
<text text-anchor="middle" x="286" y="-313.5" font-family="FreeSans" font-size="10.00" fill="#000000">_distribution_mean</text>
</a>
</g>
</g>
<!-- Node1&#45;&gt;Node3 -->
<g id="edge2" class="edge">
<title>Node1&#45;&gt;Node3</title>
<path fill="none" stroke="#191970" d="M95.0929,-218.5617C115.5893,-242.1463 149.8997,-277.3968 187,-297.5 195.9619,-302.3561 205.8925,-306.292 215.9044,-309.4761"/>
<polygon fill="#191970" stroke="#191970" points="97.5869,-216.092 88.4373,-210.75 92.2585,-220.6318 97.5869,-216.092"/>
</g>
<!-- Node4 -->
<g id="node4" class="node">
<title>Node4</title>
<g id="a_node4"><a xlink:href="../../db/d1f/classFun4AllOscarInputManager.html#abe72334ed4a1bdc9c7eacfd89c9144be" target="_top" xlink:title="set the mean value of the vertex distribution, use PHENIX units of cm, ns">
<polygon fill="none" stroke="#000000" points="200,-255.5 200,-287.5 372,-287.5 372,-255.5 200,-255.5"/>
<text text-anchor="start" x="208" y="-274.5" font-family="FreeSans" font-size="10.00" fill="#000000">Fun4AllOscarInputManager</text>
<text text-anchor="middle" x="286" y="-262.5" font-family="FreeSans" font-size="10.00" fill="#000000">::set_vertex_distribution_mean</text>
</a>
</g>
</g>
<!-- Node1&#45;&gt;Node4 -->
<g id="edge3" class="edge">
<title>Node1&#45;&gt;Node4</title>
<path fill="none" stroke="#191970" d="M115.2945,-215.2981C136.2335,-225.6636 162.5691,-237.8065 187,-246.5 196.1021,-249.7389 205.8157,-252.7318 215.4678,-255.4367"/>
<polygon fill="#191970" stroke="#191970" points="116.588,-212.0315 106.0798,-210.6795 113.4513,-218.2894 116.588,-212.0315"/>
</g>
<!-- Node5 -->
<g id="node5" class="node">
<title>Node5</title>
<g id="a_node5"><a xlink:href="../../d6/d6f/classFun4AllHepMCInputManager.html#a6361f8f1de5cb369a9f420d842c8e184" target="_top" xlink:title="set the mean value of the vertex distribution, use PHENIX units of cm, ns">
<polygon fill="none" stroke="#000000" points="200,-204.5 200,-236.5 372,-236.5 372,-204.5 200,-204.5"/>
<text text-anchor="start" x="208" y="-223.5" font-family="FreeSans" font-size="10.00" fill="#000000">Fun4AllHepMCInputManager</text>
<text text-anchor="middle" x="286" y="-211.5" font-family="FreeSans" font-size="10.00" fill="#000000">::set_vertex_distribution_mean</text>
</a>
</g>
</g>
<!-- Node1&#45;&gt;Node5 -->
<g id="edge4" class="edge">
<title>Node1&#45;&gt;Node5</title>
<path fill="none" stroke="#191970" d="M161.3068,-205.0985C174.0354,-206.6706 187.157,-208.2914 199.8917,-209.8643"/>
<polygon fill="#191970" stroke="#191970" points="161.5516,-201.6022 151.1979,-203.8499 160.6934,-208.5494 161.5516,-201.6022"/>
</g>
<!-- Node6 -->
<g id="node6" class="node">
<title>Node6</title>
<g id="a_node6"><a xlink:href="../../dd/da8/classPHPythia6.html#af9cd2d6f6b689b668c3962dd33c5a98a" target="_top" xlink:title="set the mean value of the vertex distribution, use PHENIX units of cm, ns">
<polygon fill="none" stroke="#000000" points="222.5,-153.5 222.5,-185.5 349.5,-185.5 349.5,-153.5 222.5,-153.5"/>
<text text-anchor="start" x="230.5" y="-172.5" font-family="FreeSans" font-size="10.00" fill="#000000">PHPythia6::set_vertex</text>
<text text-anchor="middle" x="286" y="-160.5" font-family="FreeSans" font-size="10.00" fill="#000000">_distribution_mean</text>
</a>
</g>
</g>
<!-- Node1&#45;&gt;Node6 -->
<g id="edge5" class="edge">
<title>Node1&#45;&gt;Node6</title>
<path fill="none" stroke="#191970" d="M161.1545,-184.3273C181.6332,-181.8951 203.138,-179.3411 222.4181,-177.0513"/>
<polygon fill="#191970" stroke="#191970" points="160.7153,-180.8547 151.1979,-185.5097 161.541,-187.8059 160.7153,-180.8547"/>
</g>
<!-- Node8 -->
<g id="node8" class="node">
<title>Node8</title>
<g id="a_node8"><a xlink:href="../../df/d98/classsHEPGen.html#af6d8f6560431b402e4bc878ab0781d6f" target="_top" xlink:title="set the mean value of the vertex distribution, use PHENIX units of cm, ns">
<polygon fill="none" stroke="#000000" points="225,-102.5 225,-134.5 347,-134.5 347,-102.5 225,-102.5"/>
<text text-anchor="start" x="233" y="-121.5" font-family="FreeSans" font-size="10.00" fill="#000000">sHEPGen::set_vertex</text>
<text text-anchor="middle" x="286" y="-109.5" font-family="FreeSans" font-size="10.00" fill="#000000">_distribution_mean</text>
</a>
</g>
</g>
<!-- Node1&#45;&gt;Node8 -->
<g id="edge7" class="edge">
<title>Node1&#45;&gt;Node8</title>
<path fill="none" stroke="#191970" d="M116.7678,-174.0363C137.5104,-164.257 163.2318,-152.886 187,-144.5 199.0657,-140.243 212.1755,-136.3239 224.7876,-132.8893"/>
<polygon fill="#191970" stroke="#191970" points="115.133,-170.9382 107.6126,-178.401 118.1455,-177.2568 115.133,-170.9382"/>
</g>
<!-- Node10 -->
<g id="node10" class="node">
<title>Node10</title>
<g id="a_node10"><a xlink:href="../../da/df0/classPHSartre.html#a82b4979c804d6faee3b3dc1fb640adad" target="_top" xlink:title="set the mean value of the vertex distribution, use PHENIX units of cm, ns">
<polygon fill="none" stroke="#000000" points="226,-51.5 226,-83.5 346,-83.5 346,-51.5 226,-51.5"/>
<text text-anchor="start" x="234" y="-70.5" font-family="FreeSans" font-size="10.00" fill="#000000">PHSartre::set_vertex</text>
<text text-anchor="middle" x="286" y="-58.5" font-family="FreeSans" font-size="10.00" fill="#000000">_distribution_mean</text>
</a>
</g>
</g>
<!-- Node1&#45;&gt;Node10 -->
<g id="edge9" class="edge">
<title>Node1&#45;&gt;Node10</title>
<path fill="none" stroke="#191970" d="M95.5772,-170.6047C116.2186,-147.5481 150.4322,-113.3077 187,-93.5 198.9534,-87.0252 212.6032,-82.0984 225.8683,-78.3725"/>
<polygon fill="#191970" stroke="#191970" points="92.8301,-168.4287 88.8604,-178.2518 98.0894,-173.0482 92.8301,-168.4287"/>
</g>
<!-- Node12 -->
<g id="node12" class="node">
<title>Node12</title>
<g id="a_node12"><a xlink:href="../../d9/d3a/classPHPythia8.html#a470a47c13c0afa5c17b3a7139895e6bd" target="_top" xlink:title="set the mean value of the vertex distribution, use PHENIX units of cm, ns">
<polygon fill="none" stroke="#000000" points="222.5,-.5 222.5,-32.5 349.5,-32.5 349.5,-.5 222.5,-.5"/>
<text text-anchor="start" x="230.5" y="-19.5" font-family="FreeSans" font-size="10.00" fill="#000000">PHPythia8::set_vertex</text>
<text text-anchor="middle" x="286" y="-7.5" font-family="FreeSans" font-size="10.00" fill="#000000">_distribution_mean</text>
</a>
</g>
</g>
<!-- Node1&#45;&gt;Node12 -->
<g id="edge11" class="edge">
<title>Node1&#45;&gt;Node12</title>
<path fill="none" stroke="#191970" d="M87.242,-169.0689C104.3074,-134.9799 139.2204,-75.0033 187,-42.5 197.5789,-35.3034 210.0382,-30.0983 222.4834,-26.3337"/>
<polygon fill="#191970" stroke="#191970" points="83.9506,-167.8334 82.7148,-178.3559 90.2428,-170.9007 83.9506,-167.8334"/>
</g>
<!-- Node7 -->
<g id="node7" class="node">
<title>Node7</title>
<g id="a_node7"><a xlink:href="../../dd/da8/classPHPythia6.html#ac312ad9375d13b9a81aba9e49653f8ba" target="_top" xlink:title="PHPythia6::beam_vertex\l_parameters">
<polygon fill="none" stroke="#000000" points="421,-153.5 421,-185.5 561,-185.5 561,-153.5 421,-153.5"/>
<text text-anchor="start" x="429" y="-172.5" font-family="FreeSans" font-size="10.00" fill="#000000">PHPythia6::beam_vertex</text>
<text text-anchor="middle" x="491" y="-160.5" font-family="FreeSans" font-size="10.00" fill="#000000">_parameters</text>
</a>
</g>
</g>
<!-- Node6&#45;&gt;Node7 -->
<g id="edge6" class="edge">
<title>Node6&#45;&gt;Node7</title>
<path fill="none" stroke="#191970" d="M359.9656,-169.5C379.8249,-169.5 401.237,-169.5 420.8807,-169.5"/>
<polygon fill="#191970" stroke="#191970" points="359.7396,-166.0001 349.7396,-169.5 359.7395,-173.0001 359.7396,-166.0001"/>
</g>
<!-- Node9 -->
<g id="node9" class="node">
<title>Node9</title>
<g id="a_node9"><a xlink:href="../../df/d98/classsHEPGen.html#aa6fc80711c70c207737fec9ef1f9a854" target="_top" xlink:title="sHEPGen::beam_vertex\l_parameters">
<polygon fill="none" stroke="#000000" points="423.5,-102.5 423.5,-134.5 558.5,-134.5 558.5,-102.5 423.5,-102.5"/>
<text text-anchor="start" x="431.5" y="-121.5" font-family="FreeSans" font-size="10.00" fill="#000000">sHEPGen::beam_vertex</text>
<text text-anchor="middle" x="491" y="-109.5" font-family="FreeSans" font-size="10.00" fill="#000000">_parameters</text>
</a>
</g>
</g>
<!-- Node8&#45;&gt;Node9 -->
<g id="edge8" class="edge">
<title>Node8&#45;&gt;Node9</title>
<path fill="none" stroke="#191970" d="M357.2379,-118.5C378.6587,-118.5 402.0938,-118.5 423.28,-118.5"/>
<polygon fill="#191970" stroke="#191970" points="357.2291,-115.0001 347.2291,-118.5 357.229,-122.0001 357.2291,-115.0001"/>
</g>
<!-- Node11 -->
<g id="node11" class="node">
<title>Node11</title>
<g id="a_node11"><a xlink:href="../../da/df0/classPHSartre.html#aebfb584e645af25c9250b8270e267a3b" target="_top" xlink:title="PHSartre::beam_vertex\l_parameters">
<polygon fill="none" stroke="#000000" points="424.5,-51.5 424.5,-83.5 557.5,-83.5 557.5,-51.5 424.5,-51.5"/>
<text text-anchor="start" x="432.5" y="-70.5" font-family="FreeSans" font-size="10.00" fill="#000000">PHSartre::beam_vertex</text>
<text text-anchor="middle" x="491" y="-58.5" font-family="FreeSans" font-size="10.00" fill="#000000">_parameters</text>
</a>
</g>
</g>
<!-- Node10&#45;&gt;Node11 -->
<g id="edge10" class="edge">
<title>Node10&#45;&gt;Node11</title>
<path fill="none" stroke="#191970" d="M356.4034,-67.5C378.4315,-67.5 402.6593,-67.5 424.4158,-67.5"/>
<polygon fill="#191970" stroke="#191970" points="356.1216,-64.0001 346.1216,-67.5 356.1216,-71.0001 356.1216,-64.0001"/>
</g>
<!-- Node13 -->
<g id="node13" class="node">
<title>Node13</title>
<g id="a_node13"><a xlink:href="../../d9/d3a/classPHPythia8.html#abb21b0537da59ea9e6a1a4b92827af18" target="_top" xlink:title="PHPythia8::beam_vertex\l_parameters">
<polygon fill="none" stroke="#000000" points="421,-.5 421,-32.5 561,-32.5 561,-.5 421,-.5"/>
<text text-anchor="start" x="429" y="-19.5" font-family="FreeSans" font-size="10.00" fill="#000000">PHPythia8::beam_vertex</text>
<text text-anchor="middle" x="491" y="-7.5" font-family="FreeSans" font-size="10.00" fill="#000000">_parameters</text>
</a>
</g>
</g>
<!-- Node12&#45;&gt;Node13 -->
<g id="edge12" class="edge">
<title>Node12&#45;&gt;Node13</title>
<path fill="none" stroke="#191970" d="M359.9656,-16.5C379.8249,-16.5 401.237,-16.5 420.8807,-16.5"/>
<polygon fill="#191970" stroke="#191970" points="359.7396,-13.0001 349.7396,-16.5 359.7395,-20.0001 359.7396,-13.0001"/>
</g>
<!-- Node14 -->
<g id="node14" class="node">
<title>Node14</title>
<g id="a_node14"><a xlink:href="../../d5/d60/analysis_2blob_2master_2HF-Jet_2TruthGeneration_2macros_2Fun4All__G4__sPHENIX_8C.html#a9a881c27e3822a95643d09c2fd73009e" target="_top" xlink:title="Fun4All_G4_sPHENIX">
<polygon fill="none" stroke="#000000" points="597,-6.5 597,-26.5 718,-26.5 718,-6.5 597,-6.5"/>
<text text-anchor="middle" x="657.5" y="-13.5" font-family="FreeSans" font-size="10.00" fill="#000000">Fun4All_G4_sPHENIX</text>
</a>
</g>
</g>
<!-- Node13&#45;&gt;Node14 -->
<g id="edge13" class="edge">
<title>Node13&#45;&gt;Node14</title>
<path fill="none" stroke="#191970" d="M571.2415,-16.5C579.8924,-16.5 588.5866,-16.5 596.95,-16.5"/>
<polygon fill="#191970" stroke="#191970" points="571.1285,-13.0001 561.1284,-16.5 571.1284,-20.0001 571.1285,-13.0001"/>
</g>
</g>
</svg>
