<?xml version="1.0" encoding="UTF-8" standalone="no"?>
<!DOCTYPE svg PUBLIC "-//W3C//DTD SVG 1.1//EN"
 "http://www.w3.org/Graphics/SVG/1.1/DTD/svg11.dtd">
<!-- Generated by graphviz version 2.40.1 (20161225.0304)
 -->
<!-- Title: PHHepMCGenHelper::move_vertex Pages: 1 -->
<svg width="382pt" height="209pt"
 viewBox="0.00 0.00 382.00 209.00" xmlns="http://www.w3.org/2000/svg" xmlns:xlink="http://www.w3.org/1999/xlink">
<g id="graph0" class="graph" transform="scale(1 1) rotate(0) translate(4 205)">
<title>PHHepMCGenHelper::move_vertex</title>
<!-- Node1 -->
<g id="node1" class="node">
<title>Node1</title>
<polygon fill="#bfbfbf" stroke="#000000" points="0,-78.5 0,-110.5 155,-110.5 155,-78.5 0,-78.5"/>
<text text-anchor="start" x="8" y="-97.5" font-family="FreeSans" font-size="10.00" fill="#000000">PHHepMCGenHelper::move</text>
<text text-anchor="middle" x="77.5" y="-85.5" font-family="FreeSans" font-size="10.00" fill="#000000">_vertex</text>
</g>
<!-- Node2 -->
<g id="node2" class="node">
<title>Node2</title>
<g id="a_node2"><a xlink:href="../../d5/d41/classPHHepMCGenEventMap.html#aeee51cbc5dbbd18af41e66c03e955319" target="_top" xlink:title="fetch event">
<polygon fill="none" stroke="#000000" points="202,-180.5 202,-200.5 363,-200.5 363,-180.5 202,-180.5"/>
<text text-anchor="middle" x="282.5" y="-187.5" font-family="FreeSans" font-size="10.00" fill="#000000">PHHepMCGenEventMap::get</text>
</a>
</g>
</g>
<!-- Node1&#45;&gt;Node2 -->
<g id="edge1" class="edge">
<title>Node1&#45;&gt;Node2</title>
<path fill="none" stroke="#191970" d="M96.2241,-110.6461C117.6825,-128.2902 154.5996,-156.0923 191,-171.5 196.4558,-173.8093 202.2168,-175.8464 208.085,-177.642"/>
<polygon fill="#191970" stroke="#191970" points="207.4525,-181.1 218.0268,-180.4411 209.3497,-174.3619 207.4525,-181.1"/>
</g>
<!-- Node3 -->
<g id="node3" class="node">
<title>Node3</title>
<g id="a_node3"><a xlink:href="../../d7/d7b/classPHHepMCGenEvent.html#aeb1f4b1ca526d968a3b025a3063c61c4" target="_top" xlink:title="collision vertex position in the Hall coordinate system, use PHENIX units of cm, ns">
<polygon fill="none" stroke="#000000" points="213,-129.5 213,-161.5 352,-161.5 352,-129.5 213,-129.5"/>
<text text-anchor="start" x="221" y="-148.5" font-family="FreeSans" font-size="10.00" fill="#000000">PHHepMCGenEvent::get</text>
<text text-anchor="middle" x="282.5" y="-136.5" font-family="FreeSans" font-size="10.00" fill="#000000">_collision_vertex</text>
</a>
</g>
</g>
<!-- Node1&#45;&gt;Node3 -->
<g id="edge2" class="edge">
<title>Node1&#45;&gt;Node3</title>
<path fill="none" stroke="#191970" d="M142.0819,-110.5667C163.0476,-115.7826 186.4771,-121.6114 208.0989,-126.9904"/>
<polygon fill="#191970" stroke="#191970" points="207.3414,-130.4086 217.8906,-129.4264 209.0314,-123.6157 207.3414,-130.4086"/>
</g>
<!-- Node4 -->
<g id="node4" class="node">
<title>Node4</title>
<g id="a_node4"><a xlink:href="../../d5/d41/classPHHepMCGenEventMap.html#a9808332ce5629be39dc62c9c3d50a0e2" target="_top" xlink:title="PHHepMCGenEventMap\l::identify">
<polygon fill="none" stroke="#000000" points="214,-78.5 214,-110.5 351,-110.5 351,-78.5 214,-78.5"/>
<text text-anchor="start" x="222" y="-97.5" font-family="FreeSans" font-size="10.00" fill="#000000">PHHepMCGenEventMap</text>
<text text-anchor="middle" x="282.5" y="-85.5" font-family="FreeSans" font-size="10.00" fill="#000000">::identify</text>
</a>
</g>
</g>
<!-- Node1&#45;&gt;Node4 -->
<g id="edge3" class="edge">
<title>Node1&#45;&gt;Node4</title>
<path fill="none" stroke="#191970" d="M155.0017,-94.5C170.9064,-94.5 187.6663,-94.5 203.619,-94.5"/>
<polygon fill="#191970" stroke="#191970" points="203.9686,-98.0001 213.9686,-94.5 203.9685,-91.0001 203.9686,-98.0001"/>
</g>
<!-- Node5 -->
<g id="node5" class="node">
<title>Node5</title>
<g id="a_node5"><a xlink:href="../../d7/d7b/classPHHepMCGenEvent.html#a4cd34cc37b99ec3a4a1301dfed8eab6c" target="_top" xlink:title="move the collision vertex position in the Hall coordinate system, use PHENIX units of cm...">
<polygon fill="none" stroke="#000000" points="191,-39.5 191,-59.5 374,-59.5 374,-39.5 191,-39.5"/>
<text text-anchor="middle" x="282.5" y="-46.5" font-family="FreeSans" font-size="10.00" fill="#000000">PHHepMCGenEvent::moveVertex</text>
</a>
</g>
</g>
<!-- Node1&#45;&gt;Node5 -->
<g id="edge4" class="edge">
<title>Node1&#45;&gt;Node5</title>
<path fill="none" stroke="#191970" d="M150.1544,-78.4786C163.7282,-75.4906 177.7954,-72.3974 191,-69.5 202.4243,-66.9933 214.6524,-64.3162 226.3306,-61.7625"/>
<polygon fill="#191970" stroke="#191970" points="227.396,-65.1124 236.4178,-59.5575 225.901,-58.2739 227.396,-65.1124"/>
</g>
<!-- Node6 -->
<g id="node6" class="node">
<title>Node6</title>
<g id="a_node6"><a xlink:href="../../dd/d2a/classPHHepMCGenHelper.html#a030e43db2086d86155f32e8c6cf5958b" target="_top" xlink:title="PHHepMCGenHelper::smear">
<polygon fill="none" stroke="#000000" points="203,-.5 203,-20.5 362,-20.5 362,-.5 203,-.5"/>
<text text-anchor="middle" x="282.5" y="-7.5" font-family="FreeSans" font-size="10.00" fill="#000000">PHHepMCGenHelper::smear</text>
</a>
</g>
</g>
<!-- Node1&#45;&gt;Node6 -->
<g id="edge5" class="edge">
<title>Node1&#45;&gt;Node6</title>
<path fill="none" stroke="#191970" d="M101.2614,-78.3088C123.5403,-63.82 158.2378,-42.9935 191,-30.5 198.453,-27.6579 206.4094,-25.1706 214.4027,-23.0066"/>
<polygon fill="#191970" stroke="#191970" points="215.3138,-26.3864 224.1396,-20.5251 213.585,-19.6032 215.3138,-26.3864"/>
</g>
</g>
</svg>
