<?xml version="1.0" encoding="UTF-8" standalone="no"?>
<!DOCTYPE svg PUBLIC "-//W3C//DTD SVG 1.1//EN"
 "http://www.w3.org/Graphics/SVG/1.1/DTD/svg11.dtd">
<!-- Generated by graphviz version 2.40.1 (20161225.0304)
 -->
<!-- Title: Fun4AllServer::MakeNodesPersistent Pages: 1 -->
<svg width="346pt" height="92pt"
 viewBox="0.00 0.00 346.00 92.00" xmlns="http://www.w3.org/2000/svg" xmlns:xlink="http://www.w3.org/1999/xlink">
<g id="graph0" class="graph" transform="scale(1 1) rotate(0) translate(4 88)">
<title>Fun4AllServer::MakeNodesPersistent</title>
<!-- Node1 -->
<g id="node1" class="node">
<title>Node1</title>
<polygon fill="#bfbfbf" stroke="#000000" points="0,-25.5 0,-57.5 152,-57.5 152,-25.5 0,-25.5"/>
<text text-anchor="start" x="8" y="-44.5" font-family="FreeSans" font-size="10.00" fill="#000000">Fun4AllServer::MakeNodes</text>
<text text-anchor="middle" x="76" y="-32.5" font-family="FreeSans" font-size="10.00" fill="#000000">Persistent</text>
</g>
<!-- Node2 -->
<g id="node2" class="node">
<title>Node2</title>
<g id="a_node2"><a xlink:href="../../da/daa/classFun4AllDstOutputManager.html#aa4b5b519c6db1540d03007c8c21436fc" target="_top" xlink:title="write starting from given node">
<polygon fill="none" stroke="#000000" points="188,-51.5 188,-83.5 338,-83.5 338,-51.5 188,-51.5"/>
<text text-anchor="start" x="196" y="-70.5" font-family="FreeSans" font-size="10.00" fill="#000000">Fun4AllDstOutputManager</text>
<text text-anchor="middle" x="263" y="-58.5" font-family="FreeSans" font-size="10.00" fill="#000000">::Write</text>
</a>
</g>
</g>
<!-- Node1&#45;&gt;Node2 -->
<g id="edge1" class="edge">
<title>Node1&#45;&gt;Node2</title>
<path fill="none" stroke="#191970" d="M162.1162,-53.4734C170.7305,-54.6711 179.4289,-55.8805 187.9165,-57.0606"/>
<polygon fill="#191970" stroke="#191970" points="162.4468,-49.9858 152.0601,-52.0752 161.4828,-56.9191 162.4468,-49.9858"/>
</g>
<!-- Node3 -->
<g id="node3" class="node">
<title>Node3</title>
<g id="a_node3"><a xlink:href="../../da/daa/classFun4AllDstOutputManager.html#ac839ec7d93dd52ca363c8307fa88cb94" target="_top" xlink:title="write specified node">
<polygon fill="none" stroke="#000000" points="188,-.5 188,-32.5 338,-32.5 338,-.5 188,-.5"/>
<text text-anchor="start" x="196" y="-19.5" font-family="FreeSans" font-size="10.00" fill="#000000">Fun4AllDstOutputManager</text>
<text text-anchor="middle" x="263" y="-7.5" font-family="FreeSans" font-size="10.00" fill="#000000">::WriteNode</text>
</a>
</g>
</g>
<!-- Node1&#45;&gt;Node3 -->
<g id="edge2" class="edge">
<title>Node1&#45;&gt;Node3</title>
<path fill="none" stroke="#191970" d="M162.1162,-29.9871C170.7305,-28.8355 179.4289,-27.6726 187.9165,-26.5379"/>
<polygon fill="#191970" stroke="#191970" points="161.5081,-26.5372 152.0601,-31.3315 162.4357,-33.4755 161.5081,-26.5372"/>
</g>
</g>
</svg>
