<?xml version="1.0" encoding="UTF-8" standalone="no"?>
<!DOCTYPE svg PUBLIC "-//W3C//DTD SVG 1.1//EN"
 "http://www.w3.org/Graphics/SVG/1.1/DTD/svg11.dtd">
<!-- Generated by graphviz version 2.40.1 (20161225.0304)
 -->
<!-- Title: CylinderGeom_Mvtx Pages: 1 -->
<svg width="126pt" height="200pt"
 viewBox="0.00 0.00 126.00 200.00" xmlns="http://www.w3.org/2000/svg" xmlns:xlink="http://www.w3.org/1999/xlink">
<g id="graph0" class="graph" transform="scale(1 1) rotate(0) translate(4 196)">
<title>CylinderGeom_Mvtx</title>
<!-- Node1 -->
<g id="node1" class="node">
<title>Node1</title>
<polygon fill="#bfbfbf" stroke="#000000" points="0,-.5 0,-20.5 118,-20.5 118,-.5 0,-.5"/>
<text text-anchor="middle" x="59" y="-7.5" font-family="FreeSans" font-size="10.00" fill="#000000">CylinderGeom_Mvtx</text>
</g>
<!-- Node2 -->
<g id="node2" class="node">
<title>Node2</title>
<g id="a_node2"><a xlink:href="../../dc/d30/classPHG4CylinderGeom.html" target="_top" xlink:title="PHG4CylinderGeom">
<polygon fill="none" stroke="#000000" points="1,-57.5 1,-77.5 117,-77.5 117,-57.5 1,-57.5"/>
<text text-anchor="middle" x="59" y="-64.5" font-family="FreeSans" font-size="10.00" fill="#000000">PHG4CylinderGeom</text>
</a>
</g>
</g>
<!-- Node2&#45;&gt;Node1 -->
<g id="edge1" class="edge">
<title>Node2&#45;&gt;Node1</title>
<path fill="none" stroke="#191970" d="M59,-47.1771C59,-38.1625 59,-27.9556 59,-20.6022"/>
<polygon fill="#191970" stroke="#191970" points="55.5001,-47.3095 59,-57.3095 62.5001,-47.3096 55.5001,-47.3095"/>
</g>
<!-- Node3 -->
<g id="node3" class="node">
<title>Node3</title>
<g id="a_node3"><a xlink:href="../../d9/d24/classPHObject.html" target="_top" xlink:title="PHObject">
<polygon fill="none" stroke="#000000" points="27.5,-114.5 27.5,-134.5 90.5,-134.5 90.5,-114.5 27.5,-114.5"/>
<text text-anchor="middle" x="59" y="-121.5" font-family="FreeSans" font-size="10.00" fill="#000000">PHObject</text>
</a>
</g>
</g>
<!-- Node3&#45;&gt;Node2 -->
<g id="edge2" class="edge">
<title>Node3&#45;&gt;Node2</title>
<path fill="none" stroke="#191970" d="M59,-104.1771C59,-95.1625 59,-84.9556 59,-77.6022"/>
<polygon fill="#191970" stroke="#191970" points="55.5001,-104.3095 59,-114.3095 62.5001,-104.3096 55.5001,-104.3095"/>
</g>
<!-- Node4 -->
<g id="node4" class="node">
<title>Node4</title>
<polygon fill="none" stroke="#bfbfbf" points="30.5,-171.5 30.5,-191.5 87.5,-191.5 87.5,-171.5 30.5,-171.5"/>
<text text-anchor="middle" x="59" y="-178.5" font-family="FreeSans" font-size="10.00" fill="#000000">TObject</text>
</g>
<!-- Node4&#45;&gt;Node3 -->
<g id="edge3" class="edge">
<title>Node4&#45;&gt;Node3</title>
<path fill="none" stroke="#191970" d="M59,-161.1771C59,-152.1625 59,-141.9556 59,-134.6022"/>
<polygon fill="#191970" stroke="#191970" points="55.5001,-161.3095 59,-171.3095 62.5001,-161.3096 55.5001,-161.3095"/>
</g>
</g>
</svg>
