<?xml version="1.0" encoding="UTF-8" standalone="no"?>
<!DOCTYPE svg PUBLIC "-//W3C//DTD SVG 1.1//EN"
 "http://www.w3.org/Graphics/SVG/1.1/DTD/svg11.dtd">
<!-- Generated by graphviz version 2.40.1 (20161225.0304)
 -->
<!-- Title: coresoftware/blob/master/offline/packages/NodeDump/DumpSvtxVertexMap.cc Pages: 1 -->
<svg width="1246pt" height="362pt"
 viewBox="0.00 0.00 1245.50 362.00" xmlns="http://www.w3.org/2000/svg" xmlns:xlink="http://www.w3.org/1999/xlink">
<g id="graph0" class="graph" transform="scale(1 1) rotate(0) translate(4 358)">
<title>coresoftware/blob/master/offline/packages/NodeDump/DumpSvtxVertexMap.cc</title>
<!-- Node1 -->
<g id="node1" class="node">
<title>Node1</title>
<polygon fill="#bfbfbf" stroke="#000000" points="811,-309.5 811,-353.5 975,-353.5 975,-309.5 811,-309.5"/>
<text text-anchor="start" x="819" y="-340.5" font-family="FreeSans" font-size="10.00" fill="#000000">coresoftware/blob/master</text>
<text text-anchor="start" x="819" y="-328.5" font-family="FreeSans" font-size="10.00" fill="#000000">/offline/packages/NodeDump</text>
<text text-anchor="middle" x="893" y="-316.5" font-family="FreeSans" font-size="10.00" fill="#000000">/DumpSvtxVertexMap.cc</text>
</g>
<!-- Node2 -->
<g id="node2" class="node">
<title>Node2</title>
<g id="a_node2"><a xlink:href="../../d3/d37/DumpSvtxVertexMap_8h.html" target="_top" xlink:title="DumpSvtxVertexMap.h">
<polygon fill="none" stroke="#000000" points="0,-189.5 0,-209.5 132,-209.5 132,-189.5 0,-189.5"/>
<text text-anchor="middle" x="66" y="-196.5" font-family="FreeSans" font-size="10.00" fill="#000000">DumpSvtxVertexMap.h</text>
</a>
</g>
</g>
<!-- Node1&#45;&gt;Node2 -->
<g id="edge1" class="edge">
<title>Node1&#45;&gt;Node2</title>
<path fill="none" stroke="#191970" d="M810.985,-328.0987C629.6084,-320.1436 205.7475,-299.0119 146,-273 118.2096,-260.9011 93.7846,-235.0284 79.451,-217.4427"/>
<polygon fill="#191970" stroke="#191970" points="82.1905,-215.2642 73.2546,-209.572 76.6904,-219.5943 82.1905,-215.2642"/>
</g>
<!-- Node5 -->
<g id="node5" class="node">
<title>Node5</title>
<polygon fill="none" stroke="#bfbfbf" points="236.5,-57.5 236.5,-77.5 281.5,-77.5 281.5,-57.5 236.5,-57.5"/>
<text text-anchor="middle" x="259" y="-64.5" font-family="FreeSans" font-size="10.00" fill="#000000">string</text>
</g>
<!-- Node1&#45;&gt;Node5 -->
<g id="edge48" class="edge">
<title>Node1&#45;&gt;Node5</title>
<path fill="none" stroke="#191970" d="M810.7449,-323.3868C637.8514,-305.5205 249.3783,-260.7934 210,-216 180.0327,-181.9118 186.0815,-155.257 205,-114 210.7374,-101.4881 221.6872,-91.0687 232.2352,-83.2863"/>
<polygon fill="#191970" stroke="#191970" points="234.2314,-86.1613 240.501,-77.6207 230.2738,-80.3874 234.2314,-86.1613"/>
</g>
<!-- Node6 -->
<g id="node6" class="node">
<title>Node6</title>
<g id="a_node6"><a xlink:href="../../d3/d79/PHIODataNode_8h.html" target="_top" xlink:title="phool/PHIODataNode.h">
<polygon fill="none" stroke="#000000" points="499,-252.5 499,-272.5 631,-272.5 631,-252.5 499,-252.5"/>
<text text-anchor="middle" x="565" y="-259.5" font-family="FreeSans" font-size="10.00" fill="#000000">phool/PHIODataNode.h</text>
</a>
</g>
</g>
<!-- Node1&#45;&gt;Node6 -->
<g id="edge6" class="edge">
<title>Node1&#45;&gt;Node6</title>
<path fill="none" stroke="#191970" d="M810.6551,-314.1774C752.1243,-301.8646 674.9636,-285.6326 622.8602,-274.6718"/>
<polygon fill="#191970" stroke="#191970" points="623.2929,-271.1863 612.7865,-272.5527 621.8518,-278.0364 623.2929,-271.1863"/>
</g>
<!-- Node14 -->
<g id="node14" class="node">
<title>Node14</title>
<polygon fill="none" stroke="#bfbfbf" points="842.5,-120.5 842.5,-140.5 881.5,-140.5 881.5,-120.5 842.5,-120.5"/>
<text text-anchor="middle" x="862" y="-127.5" font-family="FreeSans" font-size="10.00" fill="#000000">map</text>
</g>
<!-- Node1&#45;&gt;Node14 -->
<g id="edge46" class="edge">
<title>Node1&#45;&gt;Node14</title>
<path fill="none" stroke="#191970" d="M888.2329,-309.4507C883.3561,-286.2765 875.8288,-248.7139 871,-216 867.7103,-193.7129 865.1711,-167.9846 863.6411,-150.6205"/>
<polygon fill="#191970" stroke="#191970" points="867.1185,-150.2053 862.7836,-140.5379 860.1437,-150.7986 867.1185,-150.2053"/>
</g>
<!-- Node20 -->
<g id="node20" class="node">
<title>Node20</title>
<g id="a_node20"><a xlink:href="../../dc/dc1/SvtxVertex_8h.html" target="_top" xlink:title="trackbase_historic\l/SvtxVertex.h">
<polygon fill="none" stroke="#000000" points="976,-114.5 976,-146.5 1084,-146.5 1084,-114.5 976,-114.5"/>
<text text-anchor="start" x="984" y="-133.5" font-family="FreeSans" font-size="10.00" fill="#000000">trackbase_historic</text>
<text text-anchor="middle" x="1030" y="-121.5" font-family="FreeSans" font-size="10.00" fill="#000000">/SvtxVertex.h</text>
</a>
</g>
</g>
<!-- Node1&#45;&gt;Node20 -->
<g id="edge32" class="edge">
<title>Node1&#45;&gt;Node20</title>
<path fill="none" stroke="#191970" d="M917.6846,-309.2368C940.7384,-287.3625 974.8318,-252.1004 997,-216 1008.484,-197.2985 1017.1728,-173.9293 1022.7447,-156.3511"/>
<polygon fill="#191970" stroke="#191970" points="1026.1036,-157.3352 1025.6627,-146.7496 1019.4061,-155.2997 1026.1036,-157.3352"/>
</g>
<!-- Node26 -->
<g id="node26" class="node">
<title>Node26</title>
<g id="a_node26"><a xlink:href="../../d0/d19/SvtxVertexMap_8h.html" target="_top" xlink:title="trackbase_historic\l/SvtxVertexMap.h">
<polygon fill="none" stroke="#000000" points="880,-183.5 880,-215.5 988,-215.5 988,-183.5 880,-183.5"/>
<text text-anchor="start" x="888" y="-202.5" font-family="FreeSans" font-size="10.00" fill="#000000">trackbase_historic</text>
<text text-anchor="middle" x="934" y="-190.5" font-family="FreeSans" font-size="10.00" fill="#000000">/SvtxVertexMap.h</text>
</a>
</g>
</g>
<!-- Node1&#45;&gt;Node26 -->
<g id="edge41" class="edge">
<title>Node1&#45;&gt;Node26</title>
<path fill="none" stroke="#191970" d="M899.8625,-309.4062C907.0433,-286.2874 918.3099,-250.0146 925.9167,-225.5242"/>
<polygon fill="#191970" stroke="#191970" points="929.3063,-226.4105 928.9302,-215.8223 922.6214,-224.334 929.3063,-226.4105"/>
</g>
<!-- Node27 -->
<g id="node27" class="node">
<title>Node27</title>
<polygon fill="none" stroke="#bfbfbf" points="1044.5,-252.5 1044.5,-272.5 1101.5,-272.5 1101.5,-252.5 1044.5,-252.5"/>
<text text-anchor="middle" x="1073" y="-259.5" font-family="FreeSans" font-size="10.00" fill="#000000">ostream</text>
</g>
<!-- Node1&#45;&gt;Node27 -->
<g id="edge47" class="edge">
<title>Node1&#45;&gt;Node27</title>
<path fill="none" stroke="#191970" d="M950.448,-309.4783C978.9687,-298.5453 1012.5298,-285.6802 1037.3133,-276.1799"/>
<polygon fill="#191970" stroke="#191970" points="1038.6018,-279.4344 1046.6864,-272.5869 1036.0962,-272.8982 1038.6018,-279.4344"/>
</g>
<!-- Node28 -->
<g id="node28" class="node">
<title>Node28</title>
<polygon fill="none" stroke="#bfbfbf" points="1119.5,-252.5 1119.5,-272.5 1164.5,-272.5 1164.5,-252.5 1119.5,-252.5"/>
<text text-anchor="middle" x="1142" y="-259.5" font-family="FreeSans" font-size="10.00" fill="#000000">utility</text>
</g>
<!-- Node1&#45;&gt;Node28 -->
<g id="edge49" class="edge">
<title>Node1&#45;&gt;Node28</title>
<path fill="none" stroke="#191970" d="M975.1358,-310.7947C1013.6491,-300.768 1060.3241,-288.1651 1109.7734,-273.2633"/>
<polygon fill="#191970" stroke="#191970" points="1110.8137,-276.6053 1119.3674,-270.3535 1108.782,-269.9066 1110.8137,-276.6053"/>
</g>
<!-- Node3 -->
<g id="node3" class="node">
<title>Node3</title>
<g id="a_node3"><a xlink:href="../../d5/dcd/DumpObject_8h.html" target="_top" xlink:title="DumpObject.h">
<polygon fill="none" stroke="#000000" points="4.5,-120.5 4.5,-140.5 93.5,-140.5 93.5,-120.5 4.5,-120.5"/>
<text text-anchor="middle" x="49" y="-127.5" font-family="FreeSans" font-size="10.00" fill="#000000">DumpObject.h</text>
</a>
</g>
</g>
<!-- Node2&#45;&gt;Node3 -->
<g id="edge2" class="edge">
<title>Node2&#45;&gt;Node3</title>
<path fill="none" stroke="#191970" d="M63.4916,-189.3188C60.9806,-179.1269 57.0501,-163.174 53.9157,-150.4521"/>
<polygon fill="#191970" stroke="#191970" points="57.3094,-149.5953 51.5187,-140.723 50.5126,-151.2699 57.3094,-149.5953"/>
</g>
<!-- Node2&#45;&gt;Node5 -->
<g id="edge5" class="edge">
<title>Node2&#45;&gt;Node5</title>
<path fill="none" stroke="#191970" d="M73.075,-189.4832C85.8485,-172.0325 114.3882,-135.8363 146,-114 170.8948,-96.8036 203.1247,-84.3351 226.7894,-76.6641"/>
<polygon fill="#191970" stroke="#191970" points="227.8614,-79.9961 236.3606,-73.6705 225.7718,-73.3153 227.8614,-79.9961"/>
</g>
<!-- Node4 -->
<g id="node4" class="node">
<title>Node4</title>
<polygon fill="none" stroke="#bfbfbf" points="98,-57.5 98,-77.5 146,-77.5 146,-57.5 98,-57.5"/>
<text text-anchor="middle" x="122" y="-64.5" font-family="FreeSans" font-size="10.00" fill="#000000">iosfwd</text>
</g>
<!-- Node3&#45;&gt;Node4 -->
<g id="edge3" class="edge">
<title>Node3&#45;&gt;Node4</title>
<path fill="none" stroke="#191970" d="M60.7287,-120.378C71.9432,-110.6997 89.0647,-95.9236 102.3606,-84.449"/>
<polygon fill="#191970" stroke="#191970" points="104.774,-86.9895 110.0579,-77.8062 100.2006,-81.69 104.774,-86.9895"/>
</g>
<!-- Node3&#45;&gt;Node5 -->
<g id="edge4" class="edge">
<title>Node3&#45;&gt;Node5</title>
<path fill="none" stroke="#191970" d="M82.7401,-120.378C122.3324,-108.5003 187.5187,-88.9444 226.5464,-77.2361"/>
<polygon fill="#191970" stroke="#191970" points="227.773,-80.5223 236.3455,-74.2963 225.7615,-73.8175 227.773,-80.5223"/>
</g>
<!-- Node6&#45;&gt;Node5 -->
<g id="edge31" class="edge">
<title>Node6&#45;&gt;Node5</title>
<path fill="none" stroke="#191970" d="M498.6699,-260.936C415.5117,-257.6543 279.2063,-247.4883 241,-216 205.0614,-186.3807 200.2765,-157.4651 217,-114 221.322,-102.7668 229.7533,-92.5577 237.9345,-84.5857"/>
<polygon fill="#191970" stroke="#191970" points="240.5053,-86.9792 245.5595,-77.6676 235.8017,-81.795 240.5053,-86.9792"/>
</g>
<!-- Node7 -->
<g id="node7" class="node">
<title>Node7</title>
<g id="a_node7"><a xlink:href="../../dd/d9b/PHDataNode_8h.html" target="_top" xlink:title="PHDataNode.h">
<polygon fill="none" stroke="#000000" points="343.5,-189.5 343.5,-209.5 432.5,-209.5 432.5,-189.5 343.5,-189.5"/>
<text text-anchor="middle" x="388" y="-196.5" font-family="FreeSans" font-size="10.00" fill="#000000">PHDataNode.h</text>
</a>
</g>
</g>
<!-- Node6&#45;&gt;Node7 -->
<g id="edge7" class="edge">
<title>Node6&#45;&gt;Node7</title>
<path fill="none" stroke="#191970" d="M536.5619,-252.378C506.6283,-241.7236 459.3376,-224.8913 426.172,-213.0866"/>
<polygon fill="#191970" stroke="#191970" points="426.9622,-209.6529 416.3675,-209.5969 424.6149,-216.2476 426.9622,-209.6529"/>
</g>
<!-- Node10 -->
<g id="node10" class="node">
<title>Node10</title>
<g id="a_node10"><a xlink:href="../../d9/d53/PHIOManager_8h.html" target="_top" xlink:title="PHIOManager.h">
<polygon fill="none" stroke="#000000" points="582.5,-120.5 582.5,-140.5 675.5,-140.5 675.5,-120.5 582.5,-120.5"/>
<text text-anchor="middle" x="629" y="-127.5" font-family="FreeSans" font-size="10.00" fill="#000000">PHIOManager.h</text>
</a>
</g>
</g>
<!-- Node6&#45;&gt;Node10 -->
<g id="edge12" class="edge">
<title>Node6&#45;&gt;Node10</title>
<path fill="none" stroke="#191970" d="M571.3594,-252.3494C577.0693,-243.0553 585.5247,-228.8352 592,-216 603.1008,-193.9964 614.0953,-167.8955 621.1772,-150.3704"/>
<polygon fill="#191970" stroke="#191970" points="624.5887,-151.2649 625.047,-140.68 618.0879,-148.6688 624.5887,-151.2649"/>
</g>
<!-- Node12 -->
<g id="node12" class="node">
<title>Node12</title>
<g id="a_node12"><a xlink:href="../../dd/de7/PHNodeIOManager_8h.html" target="_top" xlink:title="PHNodeIOManager.h">
<polygon fill="none" stroke="#000000" points="643,-189.5 643,-209.5 763,-209.5 763,-189.5 643,-189.5"/>
<text text-anchor="middle" x="703" y="-196.5" font-family="FreeSans" font-size="10.00" fill="#000000">PHNodeIOManager.h</text>
</a>
</g>
</g>
<!-- Node6&#45;&gt;Node12 -->
<g id="edge15" class="edge">
<title>Node6&#45;&gt;Node12</title>
<path fill="none" stroke="#191970" d="M587.1721,-252.378C610.0071,-241.9533 645.7979,-225.614 671.5519,-213.8568"/>
<polygon fill="#191970" stroke="#191970" points="673.2396,-216.9338 680.8829,-209.5969 670.3325,-210.566 673.2396,-216.9338"/>
</g>
<!-- Node15 -->
<g id="node15" class="node">
<title>Node15</title>
<g id="a_node15"><a xlink:href="../../db/d17/PHTypedNodeIterator_8h.html" target="_top" xlink:title="PHTypedNodeIterator.h">
<polygon fill="none" stroke="#000000" points="451,-189.5 451,-209.5 583,-209.5 583,-189.5 451,-189.5"/>
<text text-anchor="middle" x="517" y="-196.5" font-family="FreeSans" font-size="10.00" fill="#000000">PHTypedNodeIterator.h</text>
</a>
</g>
</g>
<!-- Node6&#45;&gt;Node15 -->
<g id="edge22" class="edge">
<title>Node6&#45;&gt;Node15</title>
<path fill="none" stroke="#191970" d="M557.288,-252.378C550.1923,-243.0649 539.5002,-229.0316 530.9137,-217.7617"/>
<polygon fill="#191970" stroke="#191970" points="533.6968,-215.6394 524.8524,-209.8062 528.1288,-219.8817 533.6968,-215.6394"/>
</g>
<!-- Node18 -->
<g id="node18" class="node">
<title>Node18</title>
<g id="a_node18"><a xlink:href="../../de/da7/phooldefs_8h.html" target="_top" xlink:title="phooldefs.h">
<polygon fill="none" stroke="#000000" points="250.5,-189.5 250.5,-209.5 325.5,-209.5 325.5,-189.5 250.5,-189.5"/>
<text text-anchor="middle" x="288" y="-196.5" font-family="FreeSans" font-size="10.00" fill="#000000">phooldefs.h</text>
</a>
</g>
</g>
<!-- Node6&#45;&gt;Node18 -->
<g id="edge28" class="edge">
<title>Node6&#45;&gt;Node18</title>
<path fill="none" stroke="#191970" d="M503.4416,-252.4392C456.8078,-244.2441 391.3642,-231.5115 335,-216 331.4564,-215.0248 327.794,-213.9186 324.1499,-212.7518"/>
<polygon fill="#191970" stroke="#191970" points="325.2346,-209.4241 314.6407,-209.5701 323.0134,-216.0624 325.2346,-209.4241"/>
</g>
<!-- Node19 -->
<g id="node19" class="node">
<title>Node19</title>
<polygon fill="none" stroke="#bfbfbf" points="854.5,-.5 854.5,-20.5 919.5,-20.5 919.5,-.5 854.5,-.5"/>
<text text-anchor="middle" x="887" y="-7.5" font-family="FreeSans" font-size="10.00" fill="#000000">TObject.h</text>
</g>
<!-- Node6&#45;&gt;Node19 -->
<g id="edge30" class="edge">
<title>Node6&#45;&gt;Node19</title>
<path fill="none" stroke="#191970" d="M631.2087,-253.5989C683.0415,-245.5533 749.9291,-232.4598 772,-216 788.8283,-203.45 852.6788,-78.7582 877.2667,-29.9474"/>
<polygon fill="#191970" stroke="#191970" points="880.525,-31.2581 881.8865,-20.7511 874.2699,-28.1158 880.525,-31.2581"/>
</g>
<!-- Node8 -->
<g id="node8" class="node">
<title>Node8</title>
<g id="a_node8"><a xlink:href="../../d3/d62/PHNode_8h.html" target="_top" xlink:title="PHNode.h">
<polygon fill="none" stroke="#000000" points="226.5,-120.5 226.5,-140.5 291.5,-140.5 291.5,-120.5 226.5,-120.5"/>
<text text-anchor="middle" x="259" y="-127.5" font-family="FreeSans" font-size="10.00" fill="#000000">PHNode.h</text>
</a>
</g>
</g>
<!-- Node7&#45;&gt;Node8 -->
<g id="edge8" class="edge">
<title>Node7&#45;&gt;Node8</title>
<path fill="none" stroke="#191970" d="M369.2423,-189.4668C347.5554,-177.8668 311.654,-158.6638 286.7389,-145.3371"/>
<polygon fill="#191970" stroke="#191970" points="288.249,-142.1756 277.7803,-140.5453 284.9474,-148.3481 288.249,-142.1756"/>
</g>
<!-- Node9 -->
<g id="node9" class="node">
<title>Node9</title>
<polygon fill="none" stroke="#bfbfbf" points="729,-.5 729,-20.5 789,-20.5 789,-.5 729,-.5"/>
<text text-anchor="middle" x="759" y="-7.5" font-family="FreeSans" font-size="10.00" fill="#000000">iostream</text>
</g>
<!-- Node7&#45;&gt;Node9 -->
<g id="edge11" class="edge">
<title>Node7&#45;&gt;Node9</title>
<path fill="none" stroke="#191970" d="M383.5121,-189.3316C376.9302,-172.8654 366.5178,-139.6263 377,-114 390.4453,-81.1297 401.3043,-73.0193 433,-57 482.2798,-32.0936 642.7978,-18.2989 718.6274,-13.0276"/>
<polygon fill="#191970" stroke="#191970" points="719.0052,-16.5101 728.7449,-12.3401 718.5306,-9.5262 719.0052,-16.5101"/>
</g>
<!-- Node8&#45;&gt;Node4 -->
<g id="edge9" class="edge">
<title>Node8&#45;&gt;Node4</title>
<path fill="none" stroke="#191970" d="M236.9886,-120.378C214.319,-109.9533 178.7876,-93.614 153.2203,-81.8568"/>
<polygon fill="#191970" stroke="#191970" points="154.5045,-78.595 143.9568,-77.5969 151.5799,-84.9548 154.5045,-78.595"/>
</g>
<!-- Node8&#45;&gt;Node5 -->
<g id="edge10" class="edge">
<title>Node8&#45;&gt;Node5</title>
<path fill="none" stroke="#191970" d="M259,-120.378C259,-111.7041 259,-98.9355 259,-88.1186"/>
<polygon fill="#191970" stroke="#191970" points="262.5001,-87.8062 259,-77.8062 255.5001,-87.8062 262.5001,-87.8062"/>
</g>
<!-- Node10&#45;&gt;Node5 -->
<g id="edge14" class="edge">
<title>Node10&#45;&gt;Node5</title>
<path fill="none" stroke="#191970" d="M594.6486,-120.4678C585.9975,-118.1461 576.6971,-115.8244 568,-114 468.2407,-93.074 348.4657,-77.8166 291.7943,-71.1793"/>
<polygon fill="#191970" stroke="#191970" points="291.9818,-67.6777 281.6456,-70.0042 291.1766,-74.6312 291.9818,-67.6777"/>
</g>
<!-- Node11 -->
<g id="node11" class="node">
<title>Node11</title>
<polygon fill="none" stroke="#bfbfbf" points="602,-57.5 602,-77.5 656,-77.5 656,-57.5 602,-57.5"/>
<text text-anchor="middle" x="629" y="-64.5" font-family="FreeSans" font-size="10.00" fill="#000000">cstddef</text>
</g>
<!-- Node10&#45;&gt;Node11 -->
<g id="edge13" class="edge">
<title>Node10&#45;&gt;Node11</title>
<path fill="none" stroke="#191970" d="M629,-120.378C629,-111.7041 629,-98.9355 629,-88.1186"/>
<polygon fill="#191970" stroke="#191970" points="632.5001,-87.8062 629,-77.8062 625.5001,-87.8062 632.5001,-87.8062"/>
</g>
<!-- Node12&#45;&gt;Node5 -->
<g id="edge21" class="edge">
<title>Node12&#45;&gt;Node5</title>
<path fill="none" stroke="#191970" d="M677.7308,-189.3756C651.6825,-178.9017 609.9209,-162.0053 574,-147 539.6444,-132.6485 532.5816,-124.9646 497,-114 425.3336,-91.9158 338.1733,-78.0516 291.7769,-71.6602"/>
<polygon fill="#191970" stroke="#191970" points="292.0813,-68.1696 281.7034,-70.3023 291.1461,-75.1069 292.0813,-68.1696"/>
</g>
<!-- Node12&#45;&gt;Node10 -->
<g id="edge16" class="edge">
<title>Node12&#45;&gt;Node10</title>
<path fill="none" stroke="#191970" d="M692.081,-189.3188C680.3855,-178.4135 661.6161,-160.9123 647.5869,-147.831"/>
<polygon fill="#191970" stroke="#191970" points="649.6645,-144.9828 639.9638,-140.723 644.8907,-150.1025 649.6645,-144.9828"/>
</g>
<!-- Node12&#45;&gt;Node11 -->
<g id="edge19" class="edge">
<title>Node12&#45;&gt;Node11</title>
<path fill="none" stroke="#191970" d="M702.9667,-189.2375C702.4702,-172.3481 699.5704,-138.1613 685,-114 677.6364,-101.7894 665.8847,-91.3091 655.0437,-83.4059"/>
<polygon fill="#191970" stroke="#191970" points="656.8701,-80.4143 646.6459,-77.6365 652.9063,-86.1839 656.8701,-80.4143"/>
</g>
<!-- Node13 -->
<g id="node13" class="node">
<title>Node13</title>
<g id="a_node13"><a xlink:href="../../d5/d6f/phool_8h.html" target="_top" xlink:title="phool.h">
<polygon fill="none" stroke="#000000" points="732,-120.5 732,-140.5 786,-140.5 786,-120.5 732,-120.5"/>
<text text-anchor="middle" x="759" y="-127.5" font-family="FreeSans" font-size="10.00" fill="#000000">phool.h</text>
</a>
</g>
</g>
<!-- Node12&#45;&gt;Node13 -->
<g id="edge17" class="edge">
<title>Node12&#45;&gt;Node13</title>
<path fill="none" stroke="#191970" d="M711.263,-189.3188C719.9482,-178.6174 733.7884,-161.5643 744.3352,-148.5691"/>
<polygon fill="#191970" stroke="#191970" points="747.119,-150.6932 750.7031,-140.723 741.6838,-146.282 747.119,-150.6932"/>
</g>
<!-- Node12&#45;&gt;Node14 -->
<g id="edge20" class="edge">
<title>Node12&#45;&gt;Node14</title>
<path fill="none" stroke="#191970" d="M726.12,-189.4668C754.4094,-177.1902 802.3224,-156.3978 833.0393,-143.0678"/>
<polygon fill="#191970" stroke="#191970" points="834.5814,-146.2141 842.3615,-139.0224 831.7947,-139.7927 834.5814,-146.2141"/>
</g>
<!-- Node13&#45;&gt;Node9 -->
<g id="edge18" class="edge">
<title>Node13&#45;&gt;Node9</title>
<path fill="none" stroke="#191970" d="M759,-120.2689C759,-100.52 759,-56.8129 759,-30.9032"/>
<polygon fill="#191970" stroke="#191970" points="762.5001,-30.7052 759,-20.7052 755.5001,-30.7053 762.5001,-30.7052"/>
</g>
<!-- Node15&#45;&gt;Node11 -->
<g id="edge27" class="edge">
<title>Node15&#45;&gt;Node11</title>
<path fill="none" stroke="#191970" d="M522.4997,-189.3718C531.8293,-172.6757 551.9094,-138.7604 574,-114 583.8525,-102.9567 596.3514,-92.1851 606.9435,-83.7946"/>
<polygon fill="#191970" stroke="#191970" points="609.1676,-86.4992 614.9423,-77.6164 604.8887,-80.9593 609.1676,-86.4992"/>
</g>
<!-- Node16 -->
<g id="node16" class="node">
<title>Node16</title>
<g id="a_node16"><a xlink:href="../../d8/dfd/PHNodeIterator_8h.html" target="_top" xlink:title="PHNodeIterator.h">
<polygon fill="none" stroke="#000000" points="386,-120.5 386,-140.5 488,-140.5 488,-120.5 386,-120.5"/>
<text text-anchor="middle" x="437" y="-127.5" font-family="FreeSans" font-size="10.00" fill="#000000">PHNodeIterator.h</text>
</a>
</g>
</g>
<!-- Node15&#45;&gt;Node16 -->
<g id="edge23" class="edge">
<title>Node15&#45;&gt;Node16</title>
<path fill="none" stroke="#191970" d="M505.1957,-189.3188C492.4337,-178.3116 471.8807,-160.5846 456.6701,-147.4654"/>
<polygon fill="#191970" stroke="#191970" points="458.7112,-144.6039 448.8527,-140.723 454.1393,-149.9046 458.7112,-144.6039"/>
</g>
<!-- Node16&#45;&gt;Node5 -->
<g id="edge26" class="edge">
<title>Node16&#45;&gt;Node5</title>
<path fill="none" stroke="#191970" d="M408.4012,-120.378C376.4283,-109.0617 324.7637,-90.7759 291.343,-78.9473"/>
<polygon fill="#191970" stroke="#191970" points="292.1936,-75.5356 281.5989,-75.4985 289.858,-82.1345 292.1936,-75.5356"/>
</g>
<!-- Node17 -->
<g id="node17" class="node">
<title>Node17</title>
<g id="a_node17"><a xlink:href="../../db/dd5/PHPointerList_8h.html" target="_top" xlink:title="PHPointerList.h">
<polygon fill="none" stroke="#000000" points="442,-57.5 442,-77.5 534,-77.5 534,-57.5 442,-57.5"/>
<text text-anchor="middle" x="488" y="-64.5" font-family="FreeSans" font-size="10.00" fill="#000000">PHPointerList.h</text>
</a>
</g>
</g>
<!-- Node16&#45;&gt;Node17 -->
<g id="edge24" class="edge">
<title>Node16&#45;&gt;Node17</title>
<path fill="none" stroke="#191970" d="M445.194,-120.378C452.7331,-111.0649 464.0935,-97.0316 473.2167,-85.7617"/>
<polygon fill="#191970" stroke="#191970" points="476.0852,-87.7809 479.6569,-77.8062 470.6445,-83.3765 476.0852,-87.7809"/>
</g>
<!-- Node17&#45;&gt;Node9 -->
<g id="edge25" class="edge">
<title>Node17&#45;&gt;Node9</title>
<path fill="none" stroke="#191970" d="M534.2786,-57.7661C586.2162,-46.842 669.6364,-29.296 718.9024,-18.9338"/>
<polygon fill="#191970" stroke="#191970" points="719.8077,-22.3201 728.8732,-16.8366 718.3668,-15.4699 719.8077,-22.3201"/>
</g>
<!-- Node18&#45;&gt;Node5 -->
<g id="edge29" class="edge">
<title>Node18&#45;&gt;Node5</title>
<path fill="none" stroke="#191970" d="M292.5192,-189.4039C299.1706,-173.0392 309.8026,-139.9397 300,-114 295.8339,-102.9756 287.7305,-92.8748 279.8203,-84.9244"/>
<polygon fill="#191970" stroke="#191970" points="281.8238,-82.0063 272.1275,-77.7362 277.0446,-87.121 281.8238,-82.0063"/>
</g>
<!-- Node20&#45;&gt;Node9 -->
<g id="edge37" class="edge">
<title>Node20&#45;&gt;Node9</title>
<path fill="none" stroke="#191970" d="M975.8693,-115.4992C945.0966,-106.2104 906.1982,-93.1712 873,-78 840.0879,-62.9596 804.5737,-40.9126 782.0854,-26.1511"/>
<polygon fill="#191970" stroke="#191970" points="783.8405,-23.1153 773.573,-20.502 779.9698,-28.9478 783.8405,-23.1153"/>
</g>
<!-- Node21 -->
<g id="node21" class="node">
<title>Node21</title>
<g id="a_node21"><a xlink:href="../../df/d32/PHObject_8h.html" target="_top" xlink:title="phool/PHObject.h">
<polygon fill="none" stroke="#000000" points="882,-57.5 882,-77.5 986,-77.5 986,-57.5 882,-57.5"/>
<text text-anchor="middle" x="934" y="-64.5" font-family="FreeSans" font-size="10.00" fill="#000000">phool/PHObject.h</text>
</a>
</g>
</g>
<!-- Node20&#45;&gt;Node21 -->
<g id="edge33" class="edge">
<title>Node20&#45;&gt;Node21</title>
<path fill="none" stroke="#191970" d="M1005.5268,-114.4394C990.8976,-104.839 972.3949,-92.6967 957.8735,-83.167"/>
<polygon fill="#191970" stroke="#191970" points="959.6974,-80.1776 949.4166,-77.6171 955.8568,-86.0299 959.6974,-80.1776"/>
</g>
<!-- Node22 -->
<g id="node22" class="node">
<title>Node22</title>
<polygon fill="none" stroke="#bfbfbf" points="1004,-57.5 1004,-77.5 1052,-77.5 1052,-57.5 1004,-57.5"/>
<text text-anchor="middle" x="1028" y="-64.5" font-family="FreeSans" font-size="10.00" fill="#000000">cmath</text>
</g>
<!-- Node20&#45;&gt;Node22 -->
<g id="edge36" class="edge">
<title>Node20&#45;&gt;Node22</title>
<path fill="none" stroke="#191970" d="M1029.485,-114.2759C1029.2306,-106.2654 1028.9211,-96.5159 1028.6506,-87.9952"/>
<polygon fill="#191970" stroke="#191970" points="1032.1411,-87.6351 1028.3254,-77.7513 1025.1446,-87.8573 1032.1411,-87.6351"/>
</g>
<!-- Node23 -->
<g id="node23" class="node">
<title>Node23</title>
<polygon fill="none" stroke="#bfbfbf" points="1070.5,-57.5 1070.5,-77.5 1119.5,-77.5 1119.5,-57.5 1070.5,-57.5"/>
<text text-anchor="middle" x="1095" y="-64.5" font-family="FreeSans" font-size="10.00" fill="#000000">climits</text>
</g>
<!-- Node20&#45;&gt;Node23 -->
<g id="edge38" class="edge">
<title>Node20&#45;&gt;Node23</title>
<path fill="none" stroke="#191970" d="M1046.7391,-114.2759C1056.0254,-105.2754 1067.5768,-94.0794 1077.05,-84.8977"/>
<polygon fill="#191970" stroke="#191970" points="1079.6785,-87.2243 1084.4233,-77.7513 1074.8067,-82.1978 1079.6785,-87.2243"/>
</g>
<!-- Node24 -->
<g id="node24" class="node">
<title>Node24</title>
<polygon fill="none" stroke="#bfbfbf" points="1138,-57.5 1138,-77.5 1170,-77.5 1170,-57.5 1138,-57.5"/>
<text text-anchor="middle" x="1154" y="-64.5" font-family="FreeSans" font-size="10.00" fill="#000000">set</text>
</g>
<!-- Node20&#45;&gt;Node24 -->
<g id="edge39" class="edge">
<title>Node20&#45;&gt;Node24</title>
<path fill="none" stroke="#191970" d="M1061.6113,-114.4394C1082.4816,-103.8359 1109.4554,-90.1315 1128.8629,-80.2713"/>
<polygon fill="#191970" stroke="#191970" points="1130.6557,-83.2863 1137.9856,-75.6363 1127.4849,-77.0456 1130.6557,-83.2863"/>
</g>
<!-- Node25 -->
<g id="node25" class="node">
<title>Node25</title>
<polygon fill="none" stroke="#bfbfbf" points="1188.5,-57.5 1188.5,-77.5 1237.5,-77.5 1237.5,-57.5 1188.5,-57.5"/>
<text text-anchor="middle" x="1213" y="-64.5" font-family="FreeSans" font-size="10.00" fill="#000000">vector</text>
</g>
<!-- Node20&#45;&gt;Node25 -->
<g id="edge40" class="edge">
<title>Node20&#45;&gt;Node25</title>
<path fill="none" stroke="#191970" d="M1076.6521,-114.4394C1108.4802,-103.4822 1149.9269,-89.2137 1178.7309,-79.2976"/>
<polygon fill="#191970" stroke="#191970" points="1180.0394,-82.5488 1188.3555,-75.9842 1177.7608,-75.93 1180.0394,-82.5488"/>
</g>
<!-- Node21&#45;&gt;Node9 -->
<g id="edge35" class="edge">
<title>Node21&#45;&gt;Node9</title>
<path fill="none" stroke="#191970" d="M903.1163,-57.4408C874.1635,-48.0104 830.7174,-33.8594 799.0989,-23.5608"/>
<polygon fill="#191970" stroke="#191970" points="799.8744,-20.1325 789.2821,-20.3633 797.7065,-26.7883 799.8744,-20.1325"/>
</g>
<!-- Node21&#45;&gt;Node19 -->
<g id="edge34" class="edge">
<title>Node21&#45;&gt;Node19</title>
<path fill="none" stroke="#191970" d="M925.5973,-57.3095C918.9807,-49.2851 909.5948,-37.9022 901.7356,-28.3708"/>
<polygon fill="#191970" stroke="#191970" points="904.3922,-26.091 895.3299,-20.6022 898.9914,-30.5443 904.3922,-26.091"/>
</g>
<!-- Node26&#45;&gt;Node9 -->
<g id="edge44" class="edge">
<title>Node26&#45;&gt;Node9</title>
<path fill="none" stroke="#191970" d="M929.0081,-183.3647C922.6251,-164.8396 910.064,-134.3896 891,-114 869.5001,-91.0051 855.1248,-96.9673 830,-78 809.8423,-62.7825 789.1799,-42.5066 775.3811,-28.1613"/>
<polygon fill="#191970" stroke="#191970" points="777.8889,-25.7193 768.4681,-20.8717 772.8097,-30.5361 777.8889,-25.7193"/>
</g>
<!-- Node26&#45;&gt;Node14 -->
<g id="edge45" class="edge">
<title>Node26&#45;&gt;Node14</title>
<path fill="none" stroke="#191970" d="M917.3008,-183.4966C906.0948,-172.7575 891.3465,-158.6237 879.8989,-147.6532"/>
<polygon fill="#191970" stroke="#191970" points="882.2267,-145.0362 872.5852,-140.6441 877.3834,-150.0902 882.2267,-145.0362"/>
</g>
<!-- Node26&#45;&gt;Node20 -->
<g id="edge42" class="edge">
<title>Node26&#45;&gt;Node20</title>
<path fill="none" stroke="#191970" d="M956.2656,-183.4966C969.0173,-174.3313 985.2092,-162.6934 999.1695,-152.6595"/>
<polygon fill="#191970" stroke="#191970" points="1001.4451,-155.3341 1007.5226,-146.6557 997.3597,-149.65 1001.4451,-155.3341"/>
</g>
<!-- Node26&#45;&gt;Node21 -->
<g id="edge43" class="edge">
<title>Node26&#45;&gt;Node21</title>
<path fill="none" stroke="#191970" d="M934,-183.3142C934,-159.3266 934,-114.3502 934,-88.0622"/>
<polygon fill="#191970" stroke="#191970" points="937.5001,-87.7479 934,-77.748 930.5001,-87.748 937.5001,-87.7479"/>
</g>
</g>
</svg>
