<?xml version="1.0" encoding="UTF-8" standalone="no"?>
<!DOCTYPE svg PUBLIC "-//W3C//DTD SVG 1.1//EN"
 "http://www.w3.org/Graphics/SVG/1.1/DTD/svg11.dtd">
<!-- Generated by graphviz version 2.40.1 (20161225.0304)
 -->
<!-- Title: coresoftware/blob/master/offline/packages/trackreco/PHGenFitTrackProjection.h Pages: 1 -->
<svg width="782pt" height="293pt"
 viewBox="0.00 0.00 781.50 293.00" xmlns="http://www.w3.org/2000/svg" xmlns:xlink="http://www.w3.org/1999/xlink">
<g id="graph0" class="graph" transform="scale(1 1) rotate(0) translate(4 289)">
<title>coresoftware/blob/master/offline/packages/trackreco/PHGenFitTrackProjection.h</title>
<!-- Node1 -->
<g id="node1" class="node">
<title>Node1</title>
<polygon fill="#bfbfbf" stroke="#000000" points="574,-240.5 574,-284.5 728,-284.5 728,-240.5 574,-240.5"/>
<text text-anchor="start" x="582" y="-271.5" font-family="FreeSans" font-size="10.00" fill="#000000">coresoftware/blob/master</text>
<text text-anchor="start" x="582" y="-259.5" font-family="FreeSans" font-size="10.00" fill="#000000">/offline/packages/trackreco</text>
<text text-anchor="middle" x="651" y="-247.5" font-family="FreeSans" font-size="10.00" fill="#000000">/PHGenFitTrackProjection.h</text>
</g>
<!-- Node2 -->
<g id="node2" class="node">
<title>Node2</title>
<g id="a_node2"><a xlink:href="../../d0/d87/SvtxTrack_8h.html" target="_top" xlink:title="trackbase_historic\l/SvtxTrack.h">
<polygon fill="none" stroke="#000000" points="232,-171.5 232,-203.5 340,-203.5 340,-171.5 232,-171.5"/>
<text text-anchor="start" x="240" y="-190.5" font-family="FreeSans" font-size="10.00" fill="#000000">trackbase_historic</text>
<text text-anchor="middle" x="286" y="-178.5" font-family="FreeSans" font-size="10.00" fill="#000000">/SvtxTrack.h</text>
</a>
</g>
</g>
<!-- Node1&#45;&gt;Node2 -->
<g id="edge1" class="edge">
<title>Node1&#45;&gt;Node2</title>
<path fill="none" stroke="#191970" d="M573.5929,-246.5944C507.1868,-232.9493 412.6198,-213.5178 350.3093,-200.7142"/>
<polygon fill="#191970" stroke="#191970" points="350.713,-197.2241 340.2132,-198.6397 349.304,-204.0809 350.713,-197.2241"/>
</g>
<!-- Node13 -->
<g id="node13" class="node">
<title>Node13</title>
<g id="a_node13"><a xlink:href="../../d5/dc2/SubsysReco_8h.html" target="_top" xlink:title="fun4all/SubsysReco.h">
<polygon fill="none" stroke="#000000" points="544,-177.5 544,-197.5 668,-197.5 668,-177.5 544,-177.5"/>
<text text-anchor="middle" x="606" y="-184.5" font-family="FreeSans" font-size="10.00" fill="#000000">fun4all/SubsysReco.h</text>
</a>
</g>
</g>
<!-- Node1&#45;&gt;Node13 -->
<g id="edge16" class="edge">
<title>Node1&#45;&gt;Node13</title>
<path fill="none" stroke="#191970" d="M637.7419,-240.4032C631.2313,-229.5522 623.4712,-216.6187 617.2536,-206.256"/>
<polygon fill="#191970" stroke="#191970" points="620.2034,-204.3695 612.0572,-197.5954 614.201,-207.9711 620.2034,-204.3695"/>
</g>
<!-- Node16 -->
<g id="node16" class="node">
<title>Node16</title>
<polygon fill="none" stroke="#bfbfbf" points="635.5,-57.5 635.5,-77.5 680.5,-77.5 680.5,-57.5 635.5,-57.5"/>
<text text-anchor="middle" x="658" y="-64.5" font-family="FreeSans" font-size="10.00" fill="#000000">string</text>
</g>
<!-- Node1&#45;&gt;Node16 -->
<g id="edge22" class="edge">
<title>Node1&#45;&gt;Node16</title>
<path fill="none" stroke="#191970" d="M663.4215,-240.4641C668.7344,-229.8053 674.3236,-216.6116 677,-204 685.7309,-162.8581 673.5136,-113.8587 664.9996,-87.1901"/>
<polygon fill="#191970" stroke="#191970" points="668.2538,-85.8859 661.7558,-77.5177 661.6171,-88.1117 668.2538,-85.8859"/>
</g>
<!-- Node17 -->
<g id="node17" class="node">
<title>Node17</title>
<polygon fill="none" stroke="#bfbfbf" points="724.5,-177.5 724.5,-197.5 773.5,-197.5 773.5,-177.5 724.5,-177.5"/>
<text text-anchor="middle" x="749" y="-184.5" font-family="FreeSans" font-size="10.00" fill="#000000">vector</text>
</g>
<!-- Node1&#45;&gt;Node17 -->
<g id="edge21" class="edge">
<title>Node1&#45;&gt;Node17</title>
<path fill="none" stroke="#191970" d="M679.8732,-240.4032C695.2092,-228.6665 713.7288,-214.4933 727.7378,-203.7721"/>
<polygon fill="#191970" stroke="#191970" points="729.9946,-206.4524 735.8087,-197.5954 725.7403,-200.8934 729.9946,-206.4524"/>
</g>
<!-- Node3 -->
<g id="node3" class="node">
<title>Node3</title>
<g id="a_node3"><a xlink:href="../../de/de6/SvtxTrackState_8h.html" target="_top" xlink:title="SvtxTrackState.h">
<polygon fill="none" stroke="#000000" points="30.5,-114.5 30.5,-134.5 131.5,-134.5 131.5,-114.5 30.5,-114.5"/>
<text text-anchor="middle" x="81" y="-121.5" font-family="FreeSans" font-size="10.00" fill="#000000">SvtxTrackState.h</text>
</a>
</g>
</g>
<!-- Node2&#45;&gt;Node3 -->
<g id="edge2" class="edge">
<title>Node2&#45;&gt;Node3</title>
<path fill="none" stroke="#191970" d="M233.7394,-171.4394C199.5933,-160.9457 155.5646,-147.415 123.558,-137.5788"/>
<polygon fill="#191970" stroke="#191970" points="124.2035,-134.1157 113.6165,-134.5236 122.1471,-140.8068 124.2035,-134.1157"/>
</g>
<!-- Node4 -->
<g id="node4" class="node">
<title>Node4</title>
<g id="a_node4"><a xlink:href="../../df/d32/PHObject_8h.html" target="_top" xlink:title="phool/PHObject.h">
<polygon fill="none" stroke="#000000" points="0,-57.5 0,-77.5 104,-77.5 104,-57.5 0,-57.5"/>
<text text-anchor="middle" x="52" y="-64.5" font-family="FreeSans" font-size="10.00" fill="#000000">phool/PHObject.h</text>
</a>
</g>
</g>
<!-- Node2&#45;&gt;Node4 -->
<g id="edge10" class="edge">
<title>Node2&#45;&gt;Node4</title>
<path fill="none" stroke="#191970" d="M231.9153,-184.6465C162.2984,-179.7119 47.1584,-166.8491 21,-135 8.7077,-120.0335 21.508,-99.3955 34.1897,-84.8918"/>
<polygon fill="#191970" stroke="#191970" points="36.79,-87.2354 41.0627,-77.5403 31.6766,-82.4549 36.79,-87.2354"/>
</g>
<!-- Node6 -->
<g id="node6" class="node">
<title>Node6</title>
<polygon fill="none" stroke="#bfbfbf" points="168,-.5 168,-20.5 228,-20.5 228,-.5 168,-.5"/>
<text text-anchor="middle" x="198" y="-7.5" font-family="FreeSans" font-size="10.00" fill="#000000">iostream</text>
</g>
<!-- Node2&#45;&gt;Node6 -->
<g id="edge13" class="edge">
<title>Node2&#45;&gt;Node6</title>
<path fill="none" stroke="#191970" d="M255.3718,-171.4935C241.4382,-162.6192 226.0696,-150.2718 217,-135 197.6463,-102.4115 195.7911,-56.8715 196.6105,-30.8623"/>
<polygon fill="#191970" stroke="#191970" points="200.1146,-30.8615 197.102,-20.704 193.1227,-30.5231 200.1146,-30.8615"/>
</g>
<!-- Node7 -->
<g id="node7" class="node">
<title>Node7</title>
<polygon fill="none" stroke="#bfbfbf" points="122,-57.5 122,-77.5 170,-77.5 170,-57.5 122,-57.5"/>
<text text-anchor="middle" x="146" y="-64.5" font-family="FreeSans" font-size="10.00" fill="#000000">cmath</text>
</g>
<!-- Node2&#45;&gt;Node7 -->
<g id="edge12" class="edge">
<title>Node2&#45;&gt;Node7</title>
<path fill="none" stroke="#191970" d="M241.7596,-171.4998C222.3674,-162.8854 200.352,-150.7516 184,-135 170.1272,-121.6365 159.8824,-102.0961 153.5487,-87.4743"/>
<polygon fill="#191970" stroke="#191970" points="156.6448,-85.7971 149.632,-77.8553 150.1616,-88.4369 156.6448,-85.7971"/>
</g>
<!-- Node8 -->
<g id="node8" class="node">
<title>Node8</title>
<g id="a_node8"><a xlink:href="../../d8/d00/TrkrDefs_8h.html" target="_top" xlink:title="Namespace with Trkr key types and utility functions.">
<polygon fill="none" stroke="#000000" points="226,-114.5 226,-134.5 346,-134.5 346,-114.5 226,-114.5"/>
<text text-anchor="middle" x="286" y="-121.5" font-family="FreeSans" font-size="10.00" fill="#000000">trackbase/TrkrDefs.h</text>
</a>
</g>
</g>
<!-- Node2&#45;&gt;Node8 -->
<g id="edge7" class="edge">
<title>Node2&#45;&gt;Node8</title>
<path fill="none" stroke="#191970" d="M286,-171.2759C286,-163.2654 286,-153.5159 286,-144.9952"/>
<polygon fill="#191970" stroke="#191970" points="289.5001,-144.7512 286,-134.7513 282.5001,-144.7513 289.5001,-144.7512"/>
</g>
<!-- Node10 -->
<g id="node10" class="node">
<title>Node10</title>
<polygon fill="none" stroke="#bfbfbf" points="363.5,-114.5 363.5,-134.5 416.5,-134.5 416.5,-114.5 363.5,-114.5"/>
<text text-anchor="middle" x="390" y="-121.5" font-family="FreeSans" font-size="10.00" fill="#000000">limits.h</text>
</g>
<!-- Node2&#45;&gt;Node10 -->
<g id="edge11" class="edge">
<title>Node2&#45;&gt;Node10</title>
<path fill="none" stroke="#191970" d="M312.5127,-171.4394C328.5105,-161.7485 348.7841,-149.4673 364.5811,-139.898"/>
<polygon fill="#191970" stroke="#191970" points="366.5591,-142.7919 373.2987,-134.6171 362.9322,-136.8048 366.5591,-142.7919"/>
</g>
<!-- Node11 -->
<g id="node11" class="node">
<title>Node11</title>
<polygon fill="none" stroke="#bfbfbf" points="434.5,-114.5 434.5,-134.5 473.5,-134.5 473.5,-114.5 434.5,-114.5"/>
<text text-anchor="middle" x="454" y="-121.5" font-family="FreeSans" font-size="10.00" fill="#000000">map</text>
</g>
<!-- Node2&#45;&gt;Node11 -->
<g id="edge14" class="edge">
<title>Node2&#45;&gt;Node11</title>
<path fill="none" stroke="#191970" d="M328.8282,-171.4394C358.8267,-160.19 398.1326,-145.4503 424.6303,-135.5136"/>
<polygon fill="#191970" stroke="#191970" points="425.9782,-138.7462 434.1126,-131.9578 423.5203,-132.1919 425.9782,-138.7462"/>
</g>
<!-- Node12 -->
<g id="node12" class="node">
<title>Node12</title>
<polygon fill="none" stroke="#bfbfbf" points="492,-114.5 492,-134.5 524,-134.5 524,-114.5 492,-114.5"/>
<text text-anchor="middle" x="508" y="-121.5" font-family="FreeSans" font-size="10.00" fill="#000000">set</text>
</g>
<!-- Node2&#45;&gt;Node12 -->
<g id="edge15" class="edge">
<title>Node2&#45;&gt;Node12</title>
<path fill="none" stroke="#191970" d="M340.1834,-174.8762C379.8321,-165.1829 434.7273,-150.8109 482,-135 482.101,-134.9662 482.2022,-134.9323 482.3035,-134.8981"/>
<polygon fill="#191970" stroke="#191970" points="483.7164,-138.1075 491.8868,-131.3624 481.2934,-131.5402 483.7164,-138.1075"/>
</g>
<!-- Node3&#45;&gt;Node4 -->
<g id="edge3" class="edge">
<title>Node3&#45;&gt;Node4</title>
<path fill="none" stroke="#191970" d="M75.8154,-114.3095C71.8977,-106.6093 66.4067,-95.8166 61.6844,-86.5349"/>
<polygon fill="#191970" stroke="#191970" points="64.7938,-84.9279 57.1397,-77.6022 58.5549,-88.1021 64.7938,-84.9279"/>
</g>
<!-- Node3&#45;&gt;Node7 -->
<g id="edge6" class="edge">
<title>Node3&#45;&gt;Node7</title>
<path fill="none" stroke="#191970" d="M92.6207,-114.3095C102.1412,-105.9608 115.807,-93.9769 126.9277,-84.2249"/>
<polygon fill="#191970" stroke="#191970" points="129.2689,-86.827 134.4799,-77.6022 124.6536,-81.564 129.2689,-86.827"/>
</g>
<!-- Node5 -->
<g id="node5" class="node">
<title>Node5</title>
<polygon fill="none" stroke="#bfbfbf" points="19.5,-.5 19.5,-20.5 84.5,-20.5 84.5,-.5 19.5,-.5"/>
<text text-anchor="middle" x="52" y="-7.5" font-family="FreeSans" font-size="10.00" fill="#000000">TObject.h</text>
</g>
<!-- Node4&#45;&gt;Node5 -->
<g id="edge4" class="edge">
<title>Node4&#45;&gt;Node5</title>
<path fill="none" stroke="#191970" d="M52,-57.3095C52,-49.9335 52,-39.72 52,-30.715"/>
<polygon fill="#191970" stroke="#191970" points="55.5001,-30.6022 52,-20.6022 48.5001,-30.6023 55.5001,-30.6022"/>
</g>
<!-- Node4&#45;&gt;Node6 -->
<g id="edge5" class="edge">
<title>Node4&#45;&gt;Node6</title>
<path fill="none" stroke="#191970" d="M77.7658,-57.4408C101.2847,-48.2587 136.2668,-34.6013 162.4422,-24.3822"/>
<polygon fill="#191970" stroke="#191970" points="163.9583,-27.5476 172.0007,-20.6504 161.4125,-21.0269 163.9583,-27.5476"/>
</g>
<!-- Node8&#45;&gt;Node6 -->
<g id="edge9" class="edge">
<title>Node8&#45;&gt;Node6</title>
<path fill="none" stroke="#191970" d="M278.1906,-114.3833C263.355,-95.1645 230.9074,-53.1301 212.1512,-28.8322"/>
<polygon fill="#191970" stroke="#191970" points="214.7995,-26.5352 205.9184,-20.7579 209.2584,-30.8126 214.7995,-26.5352"/>
</g>
<!-- Node9 -->
<g id="node9" class="node">
<title>Node9</title>
<polygon fill="none" stroke="#bfbfbf" points="264.5,-57.5 264.5,-77.5 315.5,-77.5 315.5,-57.5 264.5,-57.5"/>
<text text-anchor="middle" x="290" y="-64.5" font-family="FreeSans" font-size="10.00" fill="#000000">cstdint</text>
</g>
<!-- Node8&#45;&gt;Node9 -->
<g id="edge8" class="edge">
<title>Node8&#45;&gt;Node9</title>
<path fill="none" stroke="#191970" d="M286.7151,-114.3095C287.2327,-106.9335 287.9495,-96.72 288.5814,-87.715"/>
<polygon fill="#191970" stroke="#191970" points="292.0824,-87.8227 289.2911,-77.6022 285.0995,-87.3327 292.0824,-87.8227"/>
</g>
<!-- Node14 -->
<g id="node14" class="node">
<title>Node14</title>
<g id="a_node14"><a xlink:href="../../d2/de7/Fun4AllBase_8h.html" target="_top" xlink:title="Fun4AllBase.h">
<polygon fill="none" stroke="#000000" points="542.5,-114.5 542.5,-134.5 629.5,-134.5 629.5,-114.5 542.5,-114.5"/>
<text text-anchor="middle" x="586" y="-121.5" font-family="FreeSans" font-size="10.00" fill="#000000">Fun4AllBase.h</text>
</a>
</g>
</g>
<!-- Node13&#45;&gt;Node14 -->
<g id="edge17" class="edge">
<title>Node13&#45;&gt;Node14</title>
<path fill="none" stroke="#191970" d="M602.7867,-177.378C599.9751,-168.5215 595.8083,-155.396 592.3295,-144.4381"/>
<polygon fill="#191970" stroke="#191970" points="595.6336,-143.2784 589.2718,-134.8062 588.9617,-145.3965 595.6336,-143.2784"/>
</g>
<!-- Node13&#45;&gt;Node16 -->
<g id="edge20" class="edge">
<title>Node13&#45;&gt;Node16</title>
<path fill="none" stroke="#191970" d="M613.7714,-177.1445C621.1458,-166.9013 632.0987,-150.5468 639,-135 645.7816,-119.7228 650.7541,-101.4171 653.9074,-87.7256"/>
<polygon fill="#191970" stroke="#191970" points="657.3434,-88.3956 656.046,-77.8805 650.5029,-86.9096 657.3434,-88.3956"/>
</g>
<!-- Node15 -->
<g id="node15" class="node">
<title>Node15</title>
<polygon fill="none" stroke="#bfbfbf" points="561.5,-57.5 561.5,-77.5 610.5,-77.5 610.5,-57.5 561.5,-57.5"/>
<text text-anchor="middle" x="586" y="-64.5" font-family="FreeSans" font-size="10.00" fill="#000000">climits</text>
</g>
<!-- Node14&#45;&gt;Node15 -->
<g id="edge18" class="edge">
<title>Node14&#45;&gt;Node15</title>
<path fill="none" stroke="#191970" d="M586,-114.3095C586,-106.9335 586,-96.72 586,-87.715"/>
<polygon fill="#191970" stroke="#191970" points="589.5001,-87.6022 586,-77.6022 582.5001,-87.6023 589.5001,-87.6022"/>
</g>
<!-- Node14&#45;&gt;Node16 -->
<g id="edge19" class="edge">
<title>Node14&#45;&gt;Node16</title>
<path fill="none" stroke="#191970" d="M598.8722,-114.3095C609.5203,-105.8798 624.8498,-93.7439 637.2318,-83.9415"/>
<polygon fill="#191970" stroke="#191970" points="639.5713,-86.5535 645.2393,-77.6022 635.2263,-81.0651 639.5713,-86.5535"/>
</g>
</g>
</svg>
