<?xml version="1.0" encoding="UTF-8" standalone="no"?>
<!DOCTYPE svg PUBLIC "-//W3C//DTD SVG 1.1//EN"
 "http://www.w3.org/Graphics/SVG/1.1/DTD/svg11.dtd">
<!-- Generated by graphviz version 2.40.1 (20161225.0304)
 -->
<!-- Title: sPHENIXTrackerTpc::finalize Pages: 1 -->
<svg width="820pt" height="408pt"
 viewBox="0.00 0.00 820.00 408.00" xmlns="http://www.w3.org/2000/svg" xmlns:xlink="http://www.w3.org/1999/xlink">
<g id="graph0" class="graph" transform="scale(1 1) rotate(0) translate(4 404)">
<title>sPHENIXTrackerTpc::finalize</title>
<!-- Node1 -->
<g id="node1" class="node">
<title>Node1</title>
<polygon fill="#bfbfbf" stroke="#000000" points="0,-103.5 0,-135.5 119,-135.5 119,-103.5 0,-103.5"/>
<text text-anchor="start" x="8" y="-122.5" font-family="FreeSans" font-size="10.00" fill="#000000">sPHENIXTrackerTpc::</text>
<text text-anchor="middle" x="59.5" y="-110.5" font-family="FreeSans" font-size="10.00" fill="#000000">finalize</text>
</g>
<!-- Node2 -->
<g id="node2" class="node">
<title>Node2</title>
<g id="a_node2"><a xlink:href="../../d8/d85/classHelixKalman.html#a7f78a3ec79f2fe6a3a1feff6d55bb836" target="_top" xlink:title="HelixKalman::addHit">
<polygon fill="none" stroke="#000000" points="155,-219.5 155,-239.5 276,-239.5 276,-219.5 155,-219.5"/>
<text text-anchor="middle" x="215.5" y="-226.5" font-family="FreeSans" font-size="10.00" fill="#000000">HelixKalman::addHit</text>
</a>
</g>
</g>
<!-- Node1&#45;&gt;Node2 -->
<g id="edge1" class="edge">
<title>Node1&#45;&gt;Node2</title>
<path fill="none" stroke="#191970" d="M72.3442,-135.6481C89.2569,-155.8927 120.8715,-190.3757 155,-210.5 158.174,-212.3716 161.5521,-214.0785 165.0267,-215.6319"/>
<polygon fill="#191970" stroke="#191970" points="163.7922,-218.9078 174.3759,-219.3928 166.4046,-212.4135 163.7922,-218.9078"/>
</g>
<!-- Node15 -->
<g id="node15" class="node">
<title>Node15</title>
<g id="a_node15"><a xlink:href="../../d8/ddc/classsPHENIXTrackerTpc.html#a30f4826812ad760104d2bc04af947c2c" target="_top" xlink:title="sPHENIXTrackerTpc::\lfitTrack">
<polygon fill="none" stroke="#000000" points="156,-168.5 156,-200.5 275,-200.5 275,-168.5 156,-168.5"/>
<text text-anchor="start" x="164" y="-187.5" font-family="FreeSans" font-size="10.00" fill="#000000">sPHENIXTrackerTpc::</text>
<text text-anchor="middle" x="215.5" y="-175.5" font-family="FreeSans" font-size="10.00" fill="#000000">fitTrack</text>
</a>
</g>
</g>
<!-- Node1&#45;&gt;Node15 -->
<g id="edge14" class="edge">
<title>Node1&#45;&gt;Node15</title>
<path fill="none" stroke="#191970" d="M98.0618,-135.5674C119.0621,-144.3175 145.2381,-155.2242 167.5446,-164.5186"/>
<polygon fill="#191970" stroke="#191970" points="166.2642,-167.7767 176.8411,-168.3921 168.9565,-161.3152 166.2642,-167.7767"/>
</g>
<!-- Node16 -->
<g id="node16" class="node">
<title>Node16</title>
<g id="a_node16"><a xlink:href="../../da/d87/classSimpleHit3D.html#a98fa97a2342d92664c8d209abcb203a0" target="_top" xlink:title="SimpleHit3D::set_x">
<polygon fill="none" stroke="#000000" points="159,-129.5 159,-149.5 272,-149.5 272,-129.5 159,-129.5"/>
<text text-anchor="middle" x="215.5" y="-136.5" font-family="FreeSans" font-size="10.00" fill="#000000">SimpleHit3D::set_x</text>
</a>
</g>
</g>
<!-- Node1&#45;&gt;Node16 -->
<g id="edge15" class="edge">
<title>Node1&#45;&gt;Node16</title>
<path fill="none" stroke="#191970" d="M119.3675,-127.1753C128.997,-128.4099 139.0168,-129.6945 148.7947,-130.948"/>
<polygon fill="#191970" stroke="#191970" points="148.5063,-134.4396 158.8702,-132.2398 149.3965,-127.4965 148.5063,-134.4396"/>
</g>
<!-- Node17 -->
<g id="node17" class="node">
<title>Node17</title>
<g id="a_node17"><a xlink:href="../../da/d87/classSimpleHit3D.html#a2a84d48f124328807104d2777b096e76" target="_top" xlink:title="SimpleHit3D::set_y">
<polygon fill="none" stroke="#000000" points="159,-90.5 159,-110.5 272,-110.5 272,-90.5 159,-90.5"/>
<text text-anchor="middle" x="215.5" y="-97.5" font-family="FreeSans" font-size="10.00" fill="#000000">SimpleHit3D::set_y</text>
</a>
</g>
</g>
<!-- Node1&#45;&gt;Node17 -->
<g id="edge16" class="edge">
<title>Node1&#45;&gt;Node17</title>
<path fill="none" stroke="#191970" d="M119.3675,-112.2084C128.997,-111.0356 139.0168,-109.8153 148.7947,-108.6244"/>
<polygon fill="#191970" stroke="#191970" points="149.3667,-112.0806 158.8702,-107.3972 148.5204,-105.132 149.3667,-112.0806"/>
</g>
<!-- Node18 -->
<g id="node18" class="node">
<title>Node18</title>
<g id="a_node18"><a xlink:href="../../da/d87/classSimpleHit3D.html#aa81b4fd05eb07529e4576b82a2887f4c" target="_top" xlink:title="SimpleHit3D::set_z">
<polygon fill="none" stroke="#000000" points="159.5,-51.5 159.5,-71.5 271.5,-71.5 271.5,-51.5 159.5,-51.5"/>
<text text-anchor="middle" x="215.5" y="-58.5" font-family="FreeSans" font-size="10.00" fill="#000000">SimpleHit3D::set_z</text>
</a>
</g>
</g>
<!-- Node1&#45;&gt;Node18 -->
<g id="edge17" class="edge">
<title>Node1&#45;&gt;Node18</title>
<path fill="none" stroke="#191970" d="M96.8667,-103.3962C114.3857,-96.0642 135.6251,-87.4847 155,-80.5 160.5069,-78.5147 166.3362,-76.5345 172.1164,-74.6428"/>
<polygon fill="#191970" stroke="#191970" points="173.2795,-77.9455 181.7321,-71.5577 171.1409,-71.2801 173.2795,-77.9455"/>
</g>
<!-- Node19 -->
<g id="node19" class="node">
<title>Node19</title>
<g id="a_node19"><a xlink:href="../../d8/ddc/classsPHENIXTrackerTpc.html#a27f7f8522040f4e74c12628cc6057685" target="_top" xlink:title="sPHENIXTrackerTpc::\ltripletRejection">
<polygon fill="none" stroke="#000000" points="156,-.5 156,-32.5 275,-32.5 275,-.5 156,-.5"/>
<text text-anchor="start" x="164" y="-19.5" font-family="FreeSans" font-size="10.00" fill="#000000">sPHENIXTrackerTpc::</text>
<text text-anchor="middle" x="215.5" y="-7.5" font-family="FreeSans" font-size="10.00" fill="#000000">tripletRejection</text>
</a>
</g>
</g>
<!-- Node1&#45;&gt;Node19 -->
<g id="edge18" class="edge">
<title>Node1&#45;&gt;Node19</title>
<path fill="none" stroke="#191970" d="M75.9582,-103.4938C94.1424,-86.4494 124.8582,-59.5009 155,-41.5 157.5994,-39.9476 160.313,-38.4476 163.0888,-37.0058"/>
<polygon fill="#191970" stroke="#191970" points="164.6509,-40.1381 172.1026,-32.6068 161.5807,-33.8473 164.6509,-40.1381"/>
</g>
<!-- Node3 -->
<g id="node3" class="node">
<title>Node3</title>
<g id="a_node3"><a xlink:href="../../d8/d85/classHelixKalman.html#a4270073df4ee9ffc5f0fe83a8329211e" target="_top" xlink:title="HelixKalman::calculateMeasurements">
<polygon fill="none" stroke="#000000" points="312,-316.5 312,-336.5 519,-336.5 519,-316.5 312,-316.5"/>
<text text-anchor="middle" x="415.5" y="-323.5" font-family="FreeSans" font-size="10.00" fill="#000000">HelixKalman::calculateMeasurements</text>
</a>
</g>
</g>
<!-- Node2&#45;&gt;Node3 -->
<g id="edge2" class="edge">
<title>Node2&#45;&gt;Node3</title>
<path fill="none" stroke="#191970" d="M224.5194,-239.5078C240.4065,-256.4521 275.1991,-290.5927 312,-307.5 316.9284,-309.7642 322.1056,-311.7588 327.4077,-313.5159"/>
<polygon fill="#191970" stroke="#191970" points="326.4746,-316.8901 337.0594,-316.4289 328.4973,-310.1887 326.4746,-316.8901"/>
</g>
<!-- Node4 -->
<g id="node4" class="node">
<title>Node4</title>
<g id="a_node4"><a xlink:href="../../d8/d85/classHelixKalman.html#a55adf1f408113d0e3994b07e7d629c6b" target="_top" xlink:title="HelixKalman::calculateMSCovariance">
<polygon fill="none" stroke="#000000" points="313.5,-277.5 313.5,-297.5 517.5,-297.5 517.5,-277.5 313.5,-277.5"/>
<text text-anchor="middle" x="415.5" y="-284.5" font-family="FreeSans" font-size="10.00" fill="#000000">HelixKalman::calculateMSCovariance</text>
</a>
</g>
</g>
<!-- Node2&#45;&gt;Node4 -->
<g id="edge3" class="edge">
<title>Node2&#45;&gt;Node4</title>
<path fill="none" stroke="#191970" d="M236.9008,-239.613C256.1675,-248.3612 285.4513,-260.7849 312,-268.5 320.919,-271.0919 330.3774,-273.4037 339.8093,-275.4443"/>
<polygon fill="#191970" stroke="#191970" points="339.1029,-278.8722 349.6049,-277.4732 340.5226,-272.0177 339.1029,-278.8722"/>
</g>
<!-- Node11 -->
<g id="node11" class="node">
<title>Node11</title>
<g id="a_node11"><a xlink:href="../../d8/d85/classHelixKalman.html#a0f3fb5cf1e01e1043cea2936f7a89101" target="_top" xlink:title="HelixKalman::calculateProjections">
<polygon fill="none" stroke="#000000" points="321.5,-238.5 321.5,-258.5 509.5,-258.5 509.5,-238.5 321.5,-238.5"/>
<text text-anchor="middle" x="415.5" y="-245.5" font-family="FreeSans" font-size="10.00" fill="#000000">HelixKalman::calculateProjections</text>
</a>
</g>
</g>
<!-- Node2&#45;&gt;Node11 -->
<g id="edge10" class="edge">
<title>Node2&#45;&gt;Node11</title>
<path fill="none" stroke="#191970" d="M276.0493,-235.2522C287.1872,-236.3103 299.1026,-237.4422 311.1026,-238.5822"/>
<polygon fill="#191970" stroke="#191970" points="310.9011,-242.0788 321.1873,-239.5403 311.5631,-235.1101 310.9011,-242.0788"/>
</g>
<!-- Node12 -->
<g id="node12" class="node">
<title>Node12</title>
<g id="a_node12"><a xlink:href="../../da/d87/classSimpleHit3D.html#aee4615586ba114d652ae2f53a329af8b" target="_top" xlink:title="SimpleHit3D::get_layer">
<polygon fill="none" stroke="#000000" points="348.5,-199.5 348.5,-219.5 482.5,-219.5 482.5,-199.5 348.5,-199.5"/>
<text text-anchor="middle" x="415.5" y="-206.5" font-family="FreeSans" font-size="10.00" fill="#000000">SimpleHit3D::get_layer</text>
</a>
</g>
</g>
<!-- Node2&#45;&gt;Node12 -->
<g id="edge11" class="edge">
<title>Node2&#45;&gt;Node12</title>
<path fill="none" stroke="#191970" d="M276.0493,-223.4451C295.6124,-221.4888 317.5744,-219.2926 338.1801,-217.232"/>
<polygon fill="#191970" stroke="#191970" points="338.5682,-220.7107 348.1703,-216.233 337.8716,-213.7455 338.5682,-220.7107"/>
</g>
<!-- Node13 -->
<g id="node13" class="node">
<title>Node13</title>
<g id="a_node13"><a xlink:href="../../d8/d85/classHelixKalman.html#aa781eb12456b35ba08e8cdc4b4001377" target="_top" xlink:title="HelixKalman::subtractProjections">
<polygon fill="none" stroke="#000000" points="323.5,-160.5 323.5,-180.5 507.5,-180.5 507.5,-160.5 323.5,-160.5"/>
<text text-anchor="middle" x="415.5" y="-167.5" font-family="FreeSans" font-size="10.00" fill="#000000">HelixKalman::subtractProjections</text>
</a>
</g>
</g>
<!-- Node2&#45;&gt;Node13 -->
<g id="edge12" class="edge">
<title>Node2&#45;&gt;Node13</title>
<path fill="none" stroke="#191970" d="M252.1386,-219.4428C260.1281,-216.851 268.4479,-213.8381 276,-210.5 292.9421,-203.0115 294.6305,-195.9353 312,-189.5 318.7132,-187.0128 325.7964,-184.8418 332.979,-182.9486"/>
<polygon fill="#191970" stroke="#191970" points="333.9324,-186.3185 342.8097,-180.5354 332.2636,-179.5204 333.9324,-186.3185"/>
</g>
<!-- Node14 -->
<g id="node14" class="node">
<title>Node14</title>
<g id="a_node14"><a xlink:href="../../d8/d85/classHelixKalman.html#ad161a0f331648bc2dc95aa1f780692c1" target="_top" xlink:title="HelixKalman::updateIntersection">
<polygon fill="none" stroke="#000000" points="324.5,-121.5 324.5,-141.5 506.5,-141.5 506.5,-121.5 324.5,-121.5"/>
<text text-anchor="middle" x="415.5" y="-128.5" font-family="FreeSans" font-size="10.00" fill="#000000">HelixKalman::updateIntersection</text>
</a>
</g>
</g>
<!-- Node2&#45;&gt;Node14 -->
<g id="edge13" class="edge">
<title>Node2&#45;&gt;Node14</title>
<path fill="none" stroke="#191970" d="M260.6486,-219.4181C266.1382,-217.0415 271.4168,-214.1112 276,-210.5 300.427,-191.2533 286.4386,-168.2123 312,-150.5 314.3932,-148.8417 316.8896,-147.3162 319.467,-145.9134"/>
<polygon fill="#191970" stroke="#191970" points="320.9898,-149.0649 328.5103,-141.6022 317.9774,-142.7462 320.9898,-149.0649"/>
</g>
<!-- Node5 -->
<g id="node5" class="node">
<title>Node5</title>
<g id="a_node5"><a xlink:href="../../d8/d85/classHelixKalman.html#a52cca2345c3380fc8343f006390f5c1d" target="_top" xlink:title="HelixKalman::calculate\l_dAdAp">
<polygon fill="none" stroke="#000000" points="581,-367.5 581,-399.5 713,-399.5 713,-367.5 581,-367.5"/>
<text text-anchor="start" x="589" y="-386.5" font-family="FreeSans" font-size="10.00" fill="#000000">HelixKalman::calculate</text>
<text text-anchor="middle" x="647" y="-374.5" font-family="FreeSans" font-size="10.00" fill="#000000">_dAdAp</text>
</a>
</g>
</g>
<!-- Node4&#45;&gt;Node5 -->
<g id="edge4" class="edge">
<title>Node4&#45;&gt;Node5</title>
<path fill="none" stroke="#191970" d="M498.5489,-297.5105C505.7583,-300.1486 512.6971,-303.4287 519,-307.5 542.3058,-322.5539 532.2706,-342.5892 555,-358.5 559.9513,-361.966 565.3619,-364.9518 571.0001,-367.524"/>
<polygon fill="#191970" stroke="#191970" points="570.0818,-370.9297 580.6627,-371.474 572.7306,-364.4502 570.0818,-370.9297"/>
</g>
<!-- Node7 -->
<g id="node7" class="node">
<title>Node7</title>
<g id="a_node7"><a xlink:href="../../d8/d85/classHelixKalman.html#ad45962489041411c135777aed0b44552" target="_top" xlink:title="HelixKalman::calculate\l_dApdp">
<polygon fill="none" stroke="#000000" points="581,-316.5 581,-348.5 713,-348.5 713,-316.5 581,-316.5"/>
<text text-anchor="start" x="589" y="-335.5" font-family="FreeSans" font-size="10.00" fill="#000000">HelixKalman::calculate</text>
<text text-anchor="middle" x="647" y="-323.5" font-family="FreeSans" font-size="10.00" fill="#000000">_dApdp</text>
</a>
</g>
</g>
<!-- Node4&#45;&gt;Node7 -->
<g id="edge6" class="edge">
<title>Node4&#45;&gt;Node7</title>
<path fill="none" stroke="#191970" d="M467.3612,-297.5004C483.8685,-300.6892 502.2025,-304.2367 519,-307.5 535.8149,-310.7667 553.8699,-314.2859 570.9636,-317.6232"/>
<polygon fill="#191970" stroke="#191970" points="570.4149,-321.082 580.9004,-319.5637 571.7567,-314.2118 570.4149,-321.082"/>
</g>
<!-- Node8 -->
<g id="node8" class="node">
<title>Node8</title>
<g id="a_node8"><a xlink:href="../../d8/d85/classHelixKalman.html#aef12e80004e0637454bf1fa4b3534233" target="_top" xlink:title="HelixKalman::calculate_dbdt">
<polygon fill="none" stroke="#000000" points="566.5,-277.5 566.5,-297.5 727.5,-297.5 727.5,-277.5 566.5,-277.5"/>
<text text-anchor="middle" x="647" y="-284.5" font-family="FreeSans" font-size="10.00" fill="#000000">HelixKalman::calculate_dbdt</text>
</a>
</g>
</g>
<!-- Node4&#45;&gt;Node8 -->
<g id="edge7" class="edge">
<title>Node4&#45;&gt;Node8</title>
<path fill="none" stroke="#191970" d="M517.7131,-287.5C530.5201,-287.5 543.5513,-287.5 556.1678,-287.5"/>
<polygon fill="#191970" stroke="#191970" points="556.1849,-291.0001 566.1849,-287.5 556.1849,-284.0001 556.1849,-291.0001"/>
</g>
<!-- Node9 -->
<g id="node9" class="node">
<title>Node9</title>
<g id="a_node9"><a xlink:href="../../d8/d85/classHelixKalman.html#a49443f60ba396d2948ae2bde46dea8a7" target="_top" xlink:title="HelixKalman::calculate_dpdb">
<polygon fill="none" stroke="#000000" points="565,-238.5 565,-258.5 729,-258.5 729,-238.5 565,-238.5"/>
<text text-anchor="middle" x="647" y="-245.5" font-family="FreeSans" font-size="10.00" fill="#000000">HelixKalman::calculate_dpdb</text>
</a>
</g>
</g>
<!-- Node4&#45;&gt;Node9 -->
<g id="edge8" class="edge">
<title>Node4&#45;&gt;Node9</title>
<path fill="none" stroke="#191970" d="M475.117,-277.4565C506.4405,-272.1796 545.0003,-265.6835 577.6549,-260.1823"/>
<polygon fill="#191970" stroke="#191970" points="578.3054,-263.6221 587.585,-258.5094 577.1425,-256.7194 578.3054,-263.6221"/>
</g>
<!-- Node10 -->
<g id="node10" class="node">
<title>Node10</title>
<g id="a_node10"><a xlink:href="../../d8/d85/classHelixKalman.html#af9357af5c3c7c3ab96aa5031d843b505" target="_top" xlink:title="HelixKalman::calculateScattering\lVariance">
<polygon fill="none" stroke="#000000" points="555,-187.5 555,-219.5 739,-219.5 739,-187.5 555,-187.5"/>
<text text-anchor="start" x="563" y="-206.5" font-family="FreeSans" font-size="10.00" fill="#000000">HelixKalman::calculateScattering</text>
<text text-anchor="middle" x="647" y="-194.5" font-family="FreeSans" font-size="10.00" fill="#000000">Variance</text>
</a>
</g>
</g>
<!-- Node4&#45;&gt;Node10 -->
<g id="edge9" class="edge">
<title>Node4&#45;&gt;Node10</title>
<path fill="none" stroke="#191970" d="M498.0031,-277.4528C505.325,-275.0574 512.4391,-272.1138 519,-268.5 539.662,-257.1191 534.8947,-241.8378 555,-229.5 558.404,-227.4111 561.9809,-225.4852 565.6682,-223.7101"/>
<polygon fill="#191970" stroke="#191970" points="567.2762,-226.8266 575.0252,-219.6013 564.4618,-220.4173 567.2762,-226.8266"/>
</g>
<!-- Node6 -->
<g id="node6" class="node">
<title>Node6</title>
<g id="a_node6"><a xlink:href="../../dc/d08/HelixKalman_8cpp.html#ab74daa0c9784c63e060bfb98cc06fbf5" target="_top" xlink:title="sign">
<polygon fill="none" stroke="#000000" points="775,-373.5 775,-393.5 812,-393.5 812,-373.5 775,-373.5"/>
<text text-anchor="middle" x="793.5" y="-380.5" font-family="FreeSans" font-size="10.00" fill="#000000">sign</text>
</a>
</g>
</g>
<!-- Node5&#45;&gt;Node6 -->
<g id="edge5" class="edge">
<title>Node5&#45;&gt;Node6</title>
<path fill="none" stroke="#191970" d="M713.3918,-383.5C731.2492,-383.5 749.655,-383.5 764.314,-383.5"/>
<polygon fill="#191970" stroke="#191970" points="764.7223,-387.0001 774.7223,-383.5 764.7223,-380.0001 764.7223,-387.0001"/>
</g>
</g>
</svg>
