<?xml version="1.0" encoding="UTF-8" standalone="no"?>
<!DOCTYPE svg PUBLIC "-//W3C//DTD SVG 1.1//EN"
 "http://www.w3.org/Graphics/SVG/1.1/DTD/svg11.dtd">
<!-- Generated by graphviz version 2.40.1 (20161225.0304)
 -->
<!-- Title: analysis/blob/master/EICAnalysis/ExclusiveReco_Dict.C Pages: 1 -->
<svg width="1529pt" height="602pt"
 viewBox="0.00 0.00 1529.00 602.00" xmlns="http://www.w3.org/2000/svg" xmlns:xlink="http://www.w3.org/1999/xlink">
<g id="graph0" class="graph" transform="scale(1 1) rotate(0) translate(4 598)">
<title>analysis/blob/master/EICAnalysis/ExclusiveReco_Dict.C</title>
<!-- Node1 -->
<g id="node1" class="node">
<title>Node1</title>
<polygon fill="#bfbfbf" stroke="#000000" points="904.5,-549.5 904.5,-593.5 1058.5,-593.5 1058.5,-549.5 904.5,-549.5"/>
<text text-anchor="start" x="912.5" y="-580.5" font-family="FreeSans" font-size="10.00" fill="#000000">analysis/blob/master</text>
<text text-anchor="start" x="912.5" y="-568.5" font-family="FreeSans" font-size="10.00" fill="#000000">/EICAnalysis/ExclusiveReco</text>
<text text-anchor="middle" x="981.5" y="-556.5" font-family="FreeSans" font-size="10.00" fill="#000000">_Dict.C</text>
</g>
<!-- Node2 -->
<g id="node2" class="node">
<title>Node2</title>
<polygon fill="none" stroke="#bfbfbf" points="464.5,-492.5 464.5,-512.5 528.5,-512.5 528.5,-492.5 464.5,-492.5"/>
<text text-anchor="middle" x="496.5" y="-499.5" font-family="FreeSans" font-size="10.00" fill="#000000">RConfig.h</text>
</g>
<!-- Node1&#45;&gt;Node2 -->
<g id="edge1" class="edge">
<title>Node1&#45;&gt;Node2</title>
<path fill="none" stroke="#191970" d="M904.4454,-564.1764C817.7066,-555.2953 672.4802,-538.5127 538.6699,-513.0483"/>
<polygon fill="#191970" stroke="#191970" points="539.1278,-509.5723 528.6467,-511.1203 537.8055,-516.4463 539.1278,-509.5723"/>
</g>
<!-- Node3 -->
<g id="node3" class="node">
<title>Node3</title>
<g id="a_node3"><a xlink:href="../../d0/dde/ExclusiveReco__Dict_8h.html" target="_top" xlink:title="ExclusiveReco_Dict.h">
<polygon fill="none" stroke="#000000" points="546.5,-492.5 546.5,-512.5 668.5,-512.5 668.5,-492.5 546.5,-492.5"/>
<text text-anchor="middle" x="607.5" y="-499.5" font-family="FreeSans" font-size="10.00" fill="#000000">ExclusiveReco_Dict.h</text>
</a>
</g>
</g>
<!-- Node1&#45;&gt;Node3 -->
<g id="edge2" class="edge">
<title>Node1&#45;&gt;Node3</title>
<path fill="none" stroke="#191970" d="M904.4604,-557.2868C835.753,-544.6108 736.3293,-526.268 671.8011,-514.363"/>
<polygon fill="#191970" stroke="#191970" points="672.2234,-510.882 661.7544,-512.5095 670.9534,-517.7658 672.2234,-510.882"/>
</g>
<!-- Node12 -->
<g id="node12" class="node">
<title>Node12</title>
<polygon fill="none" stroke="#bfbfbf" points="948.5,-435.5 948.5,-455.5 1068.5,-455.5 1068.5,-435.5 948.5,-435.5"/>
<text text-anchor="middle" x="1008.5" y="-442.5" font-family="FreeSans" font-size="10.00" fill="#000000">TMemberInspector.h</text>
</g>
<!-- Node1&#45;&gt;Node12 -->
<g id="edge71" class="edge">
<title>Node1&#45;&gt;Node12</title>
<path fill="none" stroke="#191970" d="M904.3148,-565.0296C834.6872,-557.4021 739.7365,-541.9255 716.5,-513 710.6548,-505.7237 710.4415,-499.0997 716.5,-492 717.4065,-490.9377 852.1418,-469.8122 938.2518,-456.405"/>
<polygon fill="#191970" stroke="#191970" points="938.8973,-459.8467 948.2401,-454.8505 937.8208,-452.93 938.8973,-459.8467"/>
</g>
<!-- Node42 -->
<g id="node42" class="node">
<title>Node42</title>
<polygon fill="none" stroke="#bfbfbf" points="725,-492.5 725,-512.5 784,-512.5 784,-492.5 725,-492.5"/>
<text text-anchor="middle" x="754.5" y="-499.5" font-family="FreeSans" font-size="10.00" fill="#000000">TClass.h</text>
</g>
<!-- Node1&#45;&gt;Node42 -->
<g id="edge69" class="edge">
<title>Node1&#45;&gt;Node42</title>
<path fill="none" stroke="#191970" d="M909.0517,-549.4783C870.8832,-537.8764 825.5565,-524.0987 793.8962,-514.4751"/>
<polygon fill="#191970" stroke="#191970" points="794.7092,-511.0641 784.1235,-511.5045 792.6733,-517.7615 794.7092,-511.0641"/>
</g>
<!-- Node43 -->
<g id="node43" class="node">
<title>Node43</title>
<polygon fill="none" stroke="#bfbfbf" points="802,-492.5 802,-512.5 865,-512.5 865,-492.5 802,-492.5"/>
<text text-anchor="middle" x="833.5" y="-499.5" font-family="FreeSans" font-size="10.00" fill="#000000">TBuffer.h</text>
</g>
<!-- Node1&#45;&gt;Node43 -->
<g id="edge70" class="edge">
<title>Node1&#45;&gt;Node43</title>
<path fill="none" stroke="#191970" d="M934.265,-549.4783C911.3335,-538.7872 884.4389,-526.2486 864.2054,-516.8154"/>
<polygon fill="#191970" stroke="#191970" points="865.6779,-513.6402 855.1356,-512.5869 862.72,-519.9846 865.6779,-513.6402"/>
</g>
<!-- Node44 -->
<g id="node44" class="node">
<title>Node44</title>
<polygon fill="none" stroke="#bfbfbf" points="883.5,-492.5 883.5,-512.5 969.5,-512.5 969.5,-492.5 883.5,-492.5"/>
<text text-anchor="middle" x="926.5" y="-499.5" font-family="FreeSans" font-size="10.00" fill="#000000">TInterpreter.h</text>
</g>
<!-- Node1&#45;&gt;Node44 -->
<g id="edge72" class="edge">
<title>Node1&#45;&gt;Node44</title>
<path fill="none" stroke="#191970" d="M963.7949,-549.2882C956.4466,-540.0694 948.0251,-529.5042 941.0462,-520.7488"/>
<polygon fill="#191970" stroke="#191970" points="943.6114,-518.3518 934.6413,-512.7137 938.1376,-522.715 943.6114,-518.3518"/>
</g>
<!-- Node45 -->
<g id="node45" class="node">
<title>Node45</title>
<polygon fill="none" stroke="#bfbfbf" points="988,-492.5 988,-512.5 1085,-512.5 1085,-492.5 988,-492.5"/>
<text text-anchor="middle" x="1036.5" y="-499.5" font-family="FreeSans" font-size="10.00" fill="#000000">TVirtualMutex.h</text>
</g>
<!-- Node1&#45;&gt;Node45 -->
<g id="edge73" class="edge">
<title>Node1&#45;&gt;Node45</title>
<path fill="none" stroke="#191970" d="M999.2051,-549.2882C1006.5534,-540.0694 1014.9749,-529.5042 1021.9538,-520.7488"/>
<polygon fill="#191970" stroke="#191970" points="1024.8624,-522.715 1028.3587,-512.7137 1019.3886,-518.3518 1024.8624,-522.715"/>
</g>
<!-- Node46 -->
<g id="node46" class="node">
<title>Node46</title>
<polygon fill="none" stroke="#bfbfbf" points="1102.5,-492.5 1102.5,-512.5 1158.5,-512.5 1158.5,-492.5 1102.5,-492.5"/>
<text text-anchor="middle" x="1130.5" y="-499.5" font-family="FreeSans" font-size="10.00" fill="#000000">TError.h</text>
</g>
<!-- Node1&#45;&gt;Node46 -->
<g id="edge74" class="edge">
<title>Node1&#45;&gt;Node46</title>
<path fill="none" stroke="#191970" d="M1029.0542,-549.4783C1052.1406,-538.7872 1079.2169,-526.2486 1099.5871,-516.8154"/>
<polygon fill="#191970" stroke="#191970" points="1101.1148,-519.9651 1108.7182,-512.5869 1098.1732,-513.6131 1101.1148,-519.9651"/>
</g>
<!-- Node47 -->
<g id="node47" class="node">
<title>Node47</title>
<polygon fill="none" stroke="#bfbfbf" points="1176,-492.5 1176,-512.5 1255,-512.5 1255,-492.5 1176,-492.5"/>
<text text-anchor="middle" x="1215.5" y="-499.5" font-family="FreeSans" font-size="10.00" fill="#000000">RtypesImp.h</text>
</g>
<!-- Node1&#45;&gt;Node47 -->
<g id="edge75" class="edge">
<title>Node1&#45;&gt;Node47</title>
<path fill="none" stroke="#191970" d="M1056.1824,-549.4783C1094.2436,-538.2551 1139.21,-524.9958 1171.6488,-515.4305"/>
<polygon fill="#191970" stroke="#191970" points="1172.6906,-518.7723 1181.2924,-512.5869 1170.7107,-512.0582 1172.6906,-518.7723"/>
</g>
<!-- Node48 -->
<g id="node48" class="node">
<title>Node48</title>
<polygon fill="none" stroke="#bfbfbf" points="1273.5,-492.5 1273.5,-512.5 1347.5,-512.5 1347.5,-492.5 1273.5,-492.5"/>
<text text-anchor="middle" x="1310.5" y="-499.5" font-family="FreeSans" font-size="10.00" fill="#000000">TIsAProxy.h</text>
</g>
<!-- Node1&#45;&gt;Node48 -->
<g id="edge76" class="edge">
<title>Node1&#45;&gt;Node48</title>
<path fill="none" stroke="#191970" d="M1058.764,-555.9748C1113.259,-544.9209 1188.2335,-529.5052 1263.2543,-513.2424"/>
<polygon fill="#191970" stroke="#191970" points="1264.3288,-516.5907 1273.3576,-511.0471 1262.8424,-509.7503 1264.3288,-516.5907"/>
</g>
<!-- Node49 -->
<g id="node49" class="node">
<title>Node49</title>
<polygon fill="none" stroke="#bfbfbf" points="1365.5,-492.5 1365.5,-512.5 1465.5,-512.5 1465.5,-492.5 1365.5,-492.5"/>
<text text-anchor="middle" x="1415.5" y="-499.5" font-family="FreeSans" font-size="10.00" fill="#000000">TFileMergeInfo.h</text>
</g>
<!-- Node1&#45;&gt;Node49 -->
<g id="edge77" class="edge">
<title>Node1&#45;&gt;Node49</title>
<path fill="none" stroke="#191970" d="M1058.7841,-559.9369C1132.362,-548.8155 1246.4852,-531.2737 1355.1417,-513.2028"/>
<polygon fill="#191970" stroke="#191970" points="1356.0124,-516.6061 1365.3006,-511.509 1354.8611,-509.7014 1356.0124,-516.6061"/>
</g>
<!-- Node50 -->
<g id="node50" class="node">
<title>Node50</title>
<polygon fill="none" stroke="#bfbfbf" points="1484,-492.5 1484,-512.5 1521,-512.5 1521,-492.5 1484,-492.5"/>
<text text-anchor="middle" x="1502.5" y="-499.5" font-family="FreeSans" font-size="10.00" fill="#000000">new</text>
</g>
<!-- Node1&#45;&gt;Node50 -->
<g id="edge78" class="edge">
<title>Node1&#45;&gt;Node50</title>
<path fill="none" stroke="#191970" d="M1058.5225,-568.0967C1154.3073,-562.5902 1322.6023,-548.7288 1473.7838,-512.6546"/>
<polygon fill="#191970" stroke="#191970" points="1474.8226,-516.0042 1483.7162,-510.2462 1473.173,-509.2014 1474.8226,-516.0042"/>
</g>
<!-- Node4 -->
<g id="node4" class="node">
<title>Node4</title>
<polygon fill="none" stroke="#bfbfbf" points="806.5,-435.5 806.5,-455.5 862.5,-455.5 862.5,-435.5 806.5,-435.5"/>
<text text-anchor="middle" x="834.5" y="-442.5" font-family="FreeSans" font-size="10.00" fill="#000000">stddef.h</text>
</g>
<!-- Node3&#45;&gt;Node4 -->
<g id="edge3" class="edge">
<title>Node3&#45;&gt;Node4</title>
<path fill="none" stroke="#191970" d="M650.6257,-492.4196C687.0244,-483.8052 740.7509,-470.8426 796.2373,-456.2733"/>
<polygon fill="#191970" stroke="#191970" points="797.4712,-459.5676 806.2474,-453.6323 795.6854,-452.7993 797.4712,-459.5676"/>
</g>
<!-- Node5 -->
<g id="node5" class="node">
<title>Node5</title>
<polygon fill="none" stroke="#bfbfbf" points="880.5,-435.5 880.5,-455.5 930.5,-455.5 930.5,-435.5 880.5,-435.5"/>
<text text-anchor="middle" x="905.5" y="-442.5" font-family="FreeSans" font-size="10.00" fill="#000000">stdio.h</text>
</g>
<!-- Node3&#45;&gt;Node5 -->
<g id="edge4" class="edge">
<title>Node3&#45;&gt;Node5</title>
<path fill="none" stroke="#191970" d="M668.7645,-493.9336C720.2485,-486.2301 795.8958,-473.7361 870.3302,-456.0641"/>
<polygon fill="#191970" stroke="#191970" points="871.4436,-459.3962 880.3464,-453.6525 869.8049,-452.5907 871.4436,-459.3962"/>
</g>
<!-- Node6 -->
<g id="node6" class="node">
<title>Node6</title>
<polygon fill="none" stroke="#bfbfbf" points="0,-435.5 0,-455.5 53,-455.5 53,-435.5 0,-435.5"/>
<text text-anchor="middle" x="26.5" y="-442.5" font-family="FreeSans" font-size="10.00" fill="#000000">stdlib.h</text>
</g>
<!-- Node3&#45;&gt;Node6 -->
<g id="edge5" class="edge">
<title>Node3&#45;&gt;Node6</title>
<path fill="none" stroke="#191970" d="M546.4509,-493.0765C543.4269,-492.6933 540.4306,-492.3316 537.5,-492 329.3275,-468.4458 274.2041,-490.1171 67.5,-456 66.0501,-455.7607 64.5764,-455.4947 63.0917,-455.2076"/>
<polygon fill="#191970" stroke="#191970" points="63.7799,-451.7755 53.2641,-453.0671 62.2901,-458.6152 63.7799,-451.7755"/>
</g>
<!-- Node7 -->
<g id="node7" class="node">
<title>Node7</title>
<polygon fill="none" stroke="#bfbfbf" points="109.5,-378.5 109.5,-398.5 161.5,-398.5 161.5,-378.5 109.5,-378.5"/>
<text text-anchor="middle" x="135.5" y="-385.5" font-family="FreeSans" font-size="10.00" fill="#000000">math.h</text>
</g>
<!-- Node3&#45;&gt;Node7 -->
<g id="edge6" class="edge">
<title>Node3&#45;&gt;Node7</title>
<path fill="none" stroke="#191970" d="M546.2557,-493.0615C479.1799,-482.5273 376.0161,-465.6922 337.5,-456 277.9986,-441.0271 210.7628,-417.1044 170.8191,-402.1253"/>
<polygon fill="#191970" stroke="#191970" points="171.865,-398.779 161.2733,-398.5206 169.3921,-405.3277 171.865,-398.779"/>
</g>
<!-- Node8 -->
<g id="node8" class="node">
<title>Node8</title>
<polygon fill="none" stroke="#bfbfbf" points="462.5,-435.5 462.5,-455.5 516.5,-455.5 516.5,-435.5 462.5,-435.5"/>
<text text-anchor="middle" x="489.5" y="-442.5" font-family="FreeSans" font-size="10.00" fill="#000000">string.h</text>
</g>
<!-- Node3&#45;&gt;Node8 -->
<g id="edge7" class="edge">
<title>Node3&#45;&gt;Node8</title>
<path fill="none" stroke="#191970" d="M586.6756,-492.4408C568.0859,-483.461 540.635,-470.2008 519.6466,-460.0624"/>
<polygon fill="#191970" stroke="#191970" points="521.04,-456.8485 510.5131,-455.6504 517.9952,-463.1517 521.04,-456.8485"/>
</g>
<!-- Node9 -->
<g id="node9" class="node">
<title>Node9</title>
<polygon fill="none" stroke="#bfbfbf" points="534.5,-435.5 534.5,-455.5 586.5,-455.5 586.5,-435.5 534.5,-435.5"/>
<text text-anchor="middle" x="560.5" y="-442.5" font-family="FreeSans" font-size="10.00" fill="#000000">G__ci.h</text>
</g>
<!-- Node3&#45;&gt;Node9 -->
<g id="edge8" class="edge">
<title>Node3&#45;&gt;Node9</title>
<path fill="none" stroke="#191970" d="M599.0973,-492.3095C592.4807,-484.2851 583.0948,-472.9022 575.2356,-463.3708"/>
<polygon fill="#191970" stroke="#191970" points="577.8922,-461.091 568.8299,-455.6022 572.4914,-465.5443 577.8922,-461.091"/>
</g>
<!-- Node10 -->
<g id="node10" class="node">
<title>Node10</title>
<polygon fill="none" stroke="#bfbfbf" points="604.5,-435.5 604.5,-455.5 704.5,-455.5 704.5,-435.5 604.5,-435.5"/>
<text text-anchor="middle" x="654.5" y="-442.5" font-family="FreeSans" font-size="10.00" fill="#000000">FastAllocString.h</text>
</g>
<!-- Node3&#45;&gt;Node10 -->
<g id="edge9" class="edge">
<title>Node3&#45;&gt;Node10</title>
<path fill="none" stroke="#191970" d="M615.9027,-492.3095C622.5193,-484.2851 631.9052,-472.9022 639.7644,-463.3708"/>
<polygon fill="#191970" stroke="#191970" points="642.5086,-465.5443 646.1701,-455.6022 637.1078,-461.091 642.5086,-465.5443"/>
</g>
<!-- Node11 -->
<g id="node11" class="node">
<title>Node11</title>
<polygon fill="none" stroke="#bfbfbf" points="238,-.5 238,-20.5 303,-20.5 303,-.5 238,-.5"/>
<text text-anchor="middle" x="270.5" y="-7.5" font-family="FreeSans" font-size="10.00" fill="#000000">TObject.h</text>
</g>
<!-- Node3&#45;&gt;Node11 -->
<g id="edge10" class="edge">
<title>Node3&#45;&gt;Node11</title>
<path fill="none" stroke="#191970" d="M546.4254,-493.277C543.4082,-492.8408 540.4202,-492.413 537.5,-492 434.6129,-477.4507 81.5,-492.4108 81.5,-388.5 81.5,-388.5 81.5,-388.5 81.5,-124.5 81.5,-56.6808 171.8341,-28.1473 227.5982,-16.9943"/>
<polygon fill="#191970" stroke="#191970" points="228.4024,-20.4044 237.5787,-15.1085 227.1027,-13.5261 228.4024,-20.4044"/>
</g>
<!-- Node3&#45;&gt;Node12 -->
<g id="edge11" class="edge">
<title>Node3&#45;&gt;Node12</title>
<path fill="none" stroke="#191970" d="M668.7933,-493.9199C753.044,-482.1255 898.1086,-461.8155 938.3503,-456.1225"/>
<polygon fill="#191970" stroke="#191970" points="938.8897,-459.5811 948.2955,-454.7045 937.9016,-452.6512 938.8897,-459.5811"/>
</g>
<!-- Node13 -->
<g id="node13" class="node">
<title>Node13</title>
<g id="a_node13"><a xlink:href="../../d9/d6b/ExclusiveReco_8h.html" target="_top" xlink:title="ExclusiveReco.h">
<polygon fill="none" stroke="#000000" points="347,-435.5 347,-455.5 444,-455.5 444,-435.5 347,-435.5"/>
<text text-anchor="middle" x="395.5" y="-442.5" font-family="FreeSans" font-size="10.00" fill="#000000">ExclusiveReco.h</text>
</a>
</g>
</g>
<!-- Node3&#45;&gt;Node13 -->
<g id="edge12" class="edge">
<title>Node3&#45;&gt;Node13</title>
<path fill="none" stroke="#191970" d="M570.0867,-492.4408C534.6233,-482.9058 481.2105,-468.5448 442.8075,-458.2195"/>
<polygon fill="#191970" stroke="#191970" points="443.4611,-454.771 432.8953,-455.5544 441.6435,-461.5309 443.4611,-454.771"/>
</g>
<!-- Node41 -->
<g id="node41" class="node">
<title>Node41</title>
<polygon fill="none" stroke="#bfbfbf" points="723,-435.5 723,-455.5 788,-455.5 788,-435.5 723,-435.5"/>
<text text-anchor="middle" x="755.5" y="-442.5" font-family="FreeSans" font-size="10.00" fill="#000000">algorithm</text>
</g>
<!-- Node3&#45;&gt;Node41 -->
<g id="edge68" class="edge">
<title>Node3&#45;&gt;Node41</title>
<path fill="none" stroke="#191970" d="M633.6187,-492.4408C657.5648,-483.2183 693.2337,-469.4809 719.8052,-459.2473"/>
<polygon fill="#191970" stroke="#191970" points="721.0706,-462.5106 729.1445,-455.6504 718.5548,-455.9784 721.0706,-462.5106"/>
</g>
<!-- Node13&#45;&gt;Node7 -->
<g id="edge53" class="edge">
<title>Node13&#45;&gt;Node7</title>
<path fill="none" stroke="#191970" d="M346.9409,-436.7389C303.3266,-428.5837 237.3689,-415.5459 171.5169,-399.1103"/>
<polygon fill="#191970" stroke="#191970" points="172.3568,-395.7125 161.8045,-396.6608 170.645,-402.5 172.3568,-395.7125"/>
</g>
<!-- Node14 -->
<g id="node14" class="node">
<title>Node14</title>
<g id="a_node14"><a xlink:href="../../d1/d86/TrackProjectorPlaneECAL_8h.html" target="_top" xlink:title="TrackProjectorPlaneECAL.h">
<polygon fill="none" stroke="#000000" points="620,-378.5 620,-398.5 771,-398.5 771,-378.5 620,-378.5"/>
<text text-anchor="middle" x="695.5" y="-385.5" font-family="FreeSans" font-size="10.00" fill="#000000">TrackProjectorPlaneECAL.h</text>
</a>
</g>
</g>
<!-- Node13&#45;&gt;Node14 -->
<g id="edge13" class="edge">
<title>Node13&#45;&gt;Node14</title>
<path fill="none" stroke="#191970" d="M444.0336,-436.2786C495.4242,-426.5144 576.7277,-411.0667 632.9075,-400.3926"/>
<polygon fill="#191970" stroke="#191970" points="633.5723,-403.829 642.7432,-398.5238 632.2656,-396.952 633.5723,-403.829"/>
</g>
<!-- Node23 -->
<g id="node23" class="node">
<title>Node23</title>
<polygon fill="none" stroke="#bfbfbf" points="721,-114.5 721,-134.5 760,-134.5 760,-114.5 721,-114.5"/>
<text text-anchor="middle" x="740.5" y="-121.5" font-family="FreeSans" font-size="10.00" fill="#000000">map</text>
</g>
<!-- Node13&#45;&gt;Node23 -->
<g id="edge54" class="edge">
<title>Node13&#45;&gt;Node23</title>
<path fill="none" stroke="#191970" d="M444.1941,-436.4315C447.3395,-435.924 450.462,-435.4417 453.5,-435 598.1903,-413.9644 641.9865,-445.8165 780.5,-399 840.4693,-378.7308 902.5,-388.8021 902.5,-325.5 902.5,-325.5 902.5,-325.5 902.5,-256.5 902.5,-188.7324 816.2497,-149.5819 769.6165,-133.3669"/>
<polygon fill="#191970" stroke="#191970" points="770.6348,-130.0169 760.041,-130.1657 768.4153,-136.6558 770.6348,-130.0169"/>
</g>
<!-- Node32 -->
<g id="node32" class="node">
<title>Node32</title>
<g id="a_node32"><a xlink:href="../../d5/dc2/SubsysReco_8h.html" target="_top" xlink:title="fun4all/SubsysReco.h">
<polygon fill="none" stroke="#000000" points="179.5,-378.5 179.5,-398.5 303.5,-398.5 303.5,-378.5 179.5,-378.5"/>
<text text-anchor="middle" x="241.5" y="-385.5" font-family="FreeSans" font-size="10.00" fill="#000000">fun4all/SubsysReco.h</text>
</a>
</g>
</g>
<!-- Node13&#45;&gt;Node32 -->
<g id="edge47" class="edge">
<title>Node13&#45;&gt;Node32</title>
<path fill="none" stroke="#191970" d="M368.3224,-435.4408C343.3286,-426.1898 306.0613,-412.3961 278.3861,-402.1527"/>
<polygon fill="#191970" stroke="#191970" points="279.2576,-398.7432 268.6645,-398.5544 276.8278,-405.308 279.2576,-398.7432"/>
</g>
<!-- Node35 -->
<g id="node35" class="node">
<title>Node35</title>
<polygon fill="none" stroke="#bfbfbf" points="322,-378.5 322,-398.5 469,-398.5 469,-378.5 322,-378.5"/>
<text text-anchor="middle" x="395.5" y="-385.5" font-family="FreeSans" font-size="10.00" fill="#000000">calobase/RawTowerDefs.h</text>
</g>
<!-- Node13&#45;&gt;Node35 -->
<g id="edge52" class="edge">
<title>Node13&#45;&gt;Node35</title>
<path fill="none" stroke="#191970" d="M395.5,-435.3095C395.5,-427.9335 395.5,-417.72 395.5,-408.715"/>
<polygon fill="#191970" stroke="#191970" points="399.0001,-408.6022 395.5,-398.6022 392.0001,-408.6023 399.0001,-408.6022"/>
</g>
<!-- Node36 -->
<g id="node36" class="node">
<title>Node36</title>
<g id="a_node36"><a xlink:href="../../d3/d8c/PHHepMCGenEvent_8h.html" target="_top" xlink:title="phhepmc/PHHepMCGenEvent.h">
<polygon fill="none" stroke="#000000" points="1102.5,-114.5 1102.5,-134.5 1278.5,-134.5 1278.5,-114.5 1102.5,-114.5"/>
<text text-anchor="middle" x="1190.5" y="-121.5" font-family="FreeSans" font-size="10.00" fill="#000000">phhepmc/PHHepMCGenEvent.h</text>
</a>
</g>
</g>
<!-- Node13&#45;&gt;Node36 -->
<g id="edge55" class="edge">
<title>Node13&#45;&gt;Node36</title>
<path fill="none" stroke="#191970" d="M444.1764,-436.3018C447.3262,-435.8261 450.4545,-435.3862 453.5,-435 670.5695,-407.4723 729.2102,-438.0797 944.5,-399 1058.4515,-378.3154 1194.5,-441.3136 1194.5,-325.5 1194.5,-325.5 1194.5,-325.5 1194.5,-256.5 1194.5,-216.956 1192.6843,-170.7789 1191.4995,-144.8565"/>
<polygon fill="#191970" stroke="#191970" points="1194.9909,-144.5898 1191.0229,-134.7661 1187.9987,-144.9201 1194.9909,-144.5898"/>
</g>
<!-- Node39 -->
<g id="node39" class="node">
<title>Node39</title>
<g id="a_node39"><a xlink:href="../../d4/dd2/PHHepMCGenEventMap_8h.html" target="_top" xlink:title="phhepmc/PHHepMCGenEventMap.h">
<polygon fill="none" stroke="#000000" points="969,-177.5 969,-197.5 1166,-197.5 1166,-177.5 969,-177.5"/>
<text text-anchor="middle" x="1067.5" y="-184.5" font-family="FreeSans" font-size="10.00" fill="#000000">phhepmc/PHHepMCGenEventMap.h</text>
</a>
</g>
</g>
<!-- Node13&#45;&gt;Node39 -->
<g id="edge61" class="edge">
<title>Node13&#45;&gt;Node39</title>
<path fill="none" stroke="#191970" d="M444.1785,-436.3175C447.3277,-435.838 450.4553,-435.3929 453.5,-435 555.8506,-421.7911 826.6448,-449.756 916.5,-399 994.8875,-354.7216 1042.818,-250.9664 1060.1453,-207.3594"/>
<polygon fill="#191970" stroke="#191970" points="1063.4735,-208.4563 1063.8071,-197.8667 1056.9426,-205.9369 1063.4735,-208.4563"/>
</g>
<!-- Node40 -->
<g id="node40" class="node">
<title>Node40</title>
<polygon fill="none" stroke="#bfbfbf" points="487.5,-378.5 487.5,-398.5 601.5,-398.5 601.5,-378.5 487.5,-378.5"/>
<text text-anchor="middle" x="544.5" y="-385.5" font-family="FreeSans" font-size="10.00" fill="#000000">HepMC/GenEvent.h</text>
</g>
<!-- Node13&#45;&gt;Node40 -->
<g id="edge67" class="edge">
<title>Node13&#45;&gt;Node40</title>
<path fill="none" stroke="#191970" d="M421.7952,-435.4408C445.9775,-426.1898 482.0348,-412.3961 508.8115,-402.1527"/>
<polygon fill="#191970" stroke="#191970" points="510.1281,-405.3964 518.2175,-398.5544 507.627,-398.8585 510.1281,-405.3964"/>
</g>
<!-- Node15 -->
<g id="node15" class="node">
<title>Node15</title>
<g id="a_node15"><a xlink:href="../../d0/d87/SvtxTrack_8h.html" target="_top" xlink:title="trackbase_historic\l/SvtxTrack.h">
<polygon fill="none" stroke="#000000" points="512.5,-171.5 512.5,-203.5 620.5,-203.5 620.5,-171.5 512.5,-171.5"/>
<text text-anchor="start" x="520.5" y="-190.5" font-family="FreeSans" font-size="10.00" fill="#000000">trackbase_historic</text>
<text text-anchor="middle" x="566.5" y="-178.5" font-family="FreeSans" font-size="10.00" fill="#000000">/SvtxTrack.h</text>
</a>
</g>
</g>
<!-- Node14&#45;&gt;Node15 -->
<g id="edge14" class="edge">
<title>Node14&#45;&gt;Node15</title>
<path fill="none" stroke="#191970" d="M687.418,-378.37C680.1251,-369.0898 669.2334,-354.8785 660.5,-342 630.317,-297.4912 598.4437,-243.3791 580.6534,-212.4386"/>
<polygon fill="#191970" stroke="#191970" points="583.6083,-210.5554 575.6019,-203.6166 577.5337,-214.0338 583.6083,-210.5554"/>
</g>
<!-- Node25 -->
<g id="node25" class="node">
<title>Node25</title>
<g id="a_node25"><a xlink:href="../../d7/d9f/SvtxTrackMap_8h.html" target="_top" xlink:title="trackbase_historic\l/SvtxTrackMap.h">
<polygon fill="none" stroke="#000000" points="262.5,-240.5 262.5,-272.5 370.5,-272.5 370.5,-240.5 262.5,-240.5"/>
<text text-anchor="start" x="270.5" y="-259.5" font-family="FreeSans" font-size="10.00" fill="#000000">trackbase_historic</text>
<text text-anchor="middle" x="316.5" y="-247.5" font-family="FreeSans" font-size="10.00" fill="#000000">/SvtxTrackMap.h</text>
</a>
</g>
</g>
<!-- Node14&#45;&gt;Node25 -->
<g id="edge29" class="edge">
<title>Node14&#45;&gt;Node25</title>
<path fill="none" stroke="#191970" d="M661.6024,-378.4844C631.2931,-369.3954 585.7342,-355.4039 546.5,-342 484.4012,-320.7847 413.7576,-294.1434 367.3372,-276.2877"/>
<polygon fill="#191970" stroke="#191970" points="368.4008,-272.9467 357.8111,-272.6159 365.8832,-279.4783 368.4008,-272.9467"/>
</g>
<!-- Node26 -->
<g id="node26" class="node">
<title>Node26</title>
<g id="a_node26"><a xlink:href="../../d0/d56/SvtxTrack__FastSim_8h.html" target="_top" xlink:title="trackbase_historic\l/SvtxTrack_FastSim.h">
<polygon fill="none" stroke="#000000" points="670,-309.5 670,-341.5 793,-341.5 793,-309.5 670,-309.5"/>
<text text-anchor="start" x="678" y="-328.5" font-family="FreeSans" font-size="10.00" fill="#000000">trackbase_historic</text>
<text text-anchor="middle" x="731.5" y="-316.5" font-family="FreeSans" font-size="10.00" fill="#000000">/SvtxTrack_FastSim.h</text>
</a>
</g>
</g>
<!-- Node14&#45;&gt;Node26 -->
<g id="edge34" class="edge">
<title>Node14&#45;&gt;Node26</title>
<path fill="none" stroke="#191970" d="M701.284,-378.378C705.5616,-370.8921 711.582,-360.3564 717.1242,-350.6576"/>
<polygon fill="#191970" stroke="#191970" points="720.2963,-352.1609 722.2189,-341.742 714.2186,-348.6879 720.2963,-352.1609"/>
</g>
<!-- Node30 -->
<g id="node30" class="node">
<title>Node30</title>
<polygon fill="none" stroke="#bfbfbf" points="199,-246.5 199,-266.5 244,-266.5 244,-246.5 199,-246.5"/>
<text text-anchor="middle" x="221.5" y="-253.5" font-family="FreeSans" font-size="10.00" fill="#000000">string</text>
</g>
<!-- Node14&#45;&gt;Node30 -->
<g id="edge45" class="edge">
<title>Node14&#45;&gt;Node30</title>
<path fill="none" stroke="#191970" d="M630.4994,-378.4969C581.6759,-370.3721 513.377,-357.703 454.5,-342 363.2396,-317.6601 340.37,-310.0741 253.5,-273 252.0987,-272.402 250.6741,-271.7682 249.2434,-271.111"/>
<polygon fill="#191970" stroke="#191970" points="250.4179,-267.7902 239.8944,-266.5625 247.3554,-274.0847 250.4179,-267.7902"/>
</g>
<!-- Node31 -->
<g id="node31" class="node">
<title>Node31</title>
<polygon fill="none" stroke="#bfbfbf" points="555.5,-315.5 555.5,-335.5 613.5,-335.5 613.5,-315.5 555.5,-315.5"/>
<text text-anchor="middle" x="584.5" y="-322.5" font-family="FreeSans" font-size="10.00" fill="#000000">memory</text>
</g>
<!-- Node14&#45;&gt;Node31 -->
<g id="edge46" class="edge">
<title>Node14&#45;&gt;Node31</title>
<path fill="none" stroke="#191970" d="M677.6659,-378.378C659.7032,-368.1829 631.7735,-352.3309 611.1756,-340.6402"/>
<polygon fill="#191970" stroke="#191970" points="612.7143,-337.4891 602.2898,-335.5969 609.259,-343.5769 612.7143,-337.4891"/>
</g>
<!-- Node16 -->
<g id="node16" class="node">
<title>Node16</title>
<g id="a_node16"><a xlink:href="../../de/de6/SvtxTrackState_8h.html" target="_top" xlink:title="SvtxTrackState.h">
<polygon fill="none" stroke="#000000" points="403,-114.5 403,-134.5 504,-134.5 504,-114.5 403,-114.5"/>
<text text-anchor="middle" x="453.5" y="-121.5" font-family="FreeSans" font-size="10.00" fill="#000000">SvtxTrackState.h</text>
</a>
</g>
</g>
<!-- Node15&#45;&gt;Node16 -->
<g id="edge15" class="edge">
<title>Node15&#45;&gt;Node16</title>
<path fill="none" stroke="#191970" d="M537.6929,-171.4394C520.1483,-161.6579 497.8705,-149.2376 480.6386,-139.6304"/>
<polygon fill="#191970" stroke="#191970" points="482.0852,-136.4297 471.6466,-134.6171 478.6765,-142.5437 482.0852,-136.4297"/>
</g>
<!-- Node17 -->
<g id="node17" class="node">
<title>Node17</title>
<g id="a_node17"><a xlink:href="../../df/d32/PHObject_8h.html" target="_top" xlink:title="phool/PHObject.h">
<polygon fill="none" stroke="#000000" points="401.5,-57.5 401.5,-77.5 505.5,-77.5 505.5,-57.5 401.5,-57.5"/>
<text text-anchor="middle" x="453.5" y="-64.5" font-family="FreeSans" font-size="10.00" fill="#000000">phool/PHObject.h</text>
</a>
</g>
</g>
<!-- Node15&#45;&gt;Node17 -->
<g id="edge23" class="edge">
<title>Node15&#45;&gt;Node17</title>
<path fill="none" stroke="#191970" d="M512.4077,-178.2965C467.1895,-169.3704 407.8492,-154.3498 393.5,-135 379.3815,-115.9612 402.8599,-95.87 424.4553,-82.6083"/>
<polygon fill="#191970" stroke="#191970" points="426.2883,-85.5912 433.1709,-77.5363 422.7675,-79.541 426.2883,-85.5912"/>
</g>
<!-- Node18 -->
<g id="node18" class="node">
<title>Node18</title>
<polygon fill="none" stroke="#bfbfbf" points="871.5,-.5 871.5,-20.5 931.5,-20.5 931.5,-.5 871.5,-.5"/>
<text text-anchor="middle" x="901.5" y="-7.5" font-family="FreeSans" font-size="10.00" fill="#000000">iostream</text>
</g>
<!-- Node15&#45;&gt;Node18 -->
<g id="edge26" class="edge">
<title>Node15&#45;&gt;Node18</title>
<path fill="none" stroke="#191970" d="M592.7208,-171.4108C606.4281,-162.0451 622.7494,-149.2813 634.5,-135 659.126,-105.0704 642.743,-80.5845 673.5,-57 702.3971,-34.8416 803.6644,-20.8315 861.0427,-14.4822"/>
<polygon fill="#191970" stroke="#191970" points="861.6511,-17.937 871.2184,-13.3856 860.901,-10.9773 861.6511,-17.937"/>
</g>
<!-- Node19 -->
<g id="node19" class="node">
<title>Node19</title>
<polygon fill="none" stroke="#bfbfbf" points="682.5,-57.5 682.5,-77.5 730.5,-77.5 730.5,-57.5 682.5,-57.5"/>
<text text-anchor="middle" x="706.5" y="-64.5" font-family="FreeSans" font-size="10.00" fill="#000000">cmath</text>
</g>
<!-- Node15&#45;&gt;Node19 -->
<g id="edge25" class="edge">
<title>Node15&#45;&gt;Node19</title>
<path fill="none" stroke="#191970" d="M610.7404,-171.4998C630.1326,-162.8854 652.148,-150.7516 668.5,-135 682.3728,-121.6365 692.6176,-102.0961 698.9513,-87.4743"/>
<polygon fill="#191970" stroke="#191970" points="702.3384,-88.4369 702.868,-77.8553 695.8552,-85.7971 702.3384,-88.4369"/>
</g>
<!-- Node20 -->
<g id="node20" class="node">
<title>Node20</title>
<g id="a_node20"><a xlink:href="../../d8/d00/TrkrDefs_8h.html" target="_top" xlink:title="Namespace with Trkr key types and utility functions.">
<polygon fill="none" stroke="#000000" points="816.5,-114.5 816.5,-134.5 936.5,-134.5 936.5,-114.5 816.5,-114.5"/>
<text text-anchor="middle" x="876.5" y="-121.5" font-family="FreeSans" font-size="10.00" fill="#000000">trackbase/TrkrDefs.h</text>
</a>
</g>
</g>
<!-- Node15&#45;&gt;Node20 -->
<g id="edge20" class="edge">
<title>Node15&#45;&gt;Node20</title>
<path fill="none" stroke="#191970" d="M620.8526,-176.4541C675.811,-165.2852 760.5113,-148.0719 817.1825,-136.5549"/>
<polygon fill="#191970" stroke="#191970" points="817.9721,-139.966 827.0747,-134.5445 816.5779,-133.1062 817.9721,-139.966"/>
</g>
<!-- Node22 -->
<g id="node22" class="node">
<title>Node22</title>
<polygon fill="none" stroke="#bfbfbf" points="573,-114.5 573,-134.5 626,-134.5 626,-114.5 573,-114.5"/>
<text text-anchor="middle" x="599.5" y="-121.5" font-family="FreeSans" font-size="10.00" fill="#000000">limits.h</text>
</g>
<!-- Node15&#45;&gt;Node22 -->
<g id="edge24" class="edge">
<title>Node15&#45;&gt;Node22</title>
<path fill="none" stroke="#191970" d="M574.9983,-171.2759C579.3829,-162.9054 584.7621,-152.6361 589.3622,-143.854"/>
<polygon fill="#191970" stroke="#191970" points="592.5906,-145.2336 594.1303,-134.7513 586.3897,-141.9856 592.5906,-145.2336"/>
</g>
<!-- Node15&#45;&gt;Node23 -->
<g id="edge27" class="edge">
<title>Node15&#45;&gt;Node23</title>
<path fill="none" stroke="#191970" d="M610.8578,-171.4394C642.4232,-160.0106 683.9384,-144.9792 711.3844,-135.0419"/>
<polygon fill="#191970" stroke="#191970" points="712.6039,-138.3227 720.815,-131.6273 710.2207,-131.7409 712.6039,-138.3227"/>
</g>
<!-- Node24 -->
<g id="node24" class="node">
<title>Node24</title>
<polygon fill="none" stroke="#bfbfbf" points="522.5,-114.5 522.5,-134.5 554.5,-134.5 554.5,-114.5 522.5,-114.5"/>
<text text-anchor="middle" x="538.5" y="-121.5" font-family="FreeSans" font-size="10.00" fill="#000000">set</text>
</g>
<!-- Node15&#45;&gt;Node24 -->
<g id="edge28" class="edge">
<title>Node15&#45;&gt;Node24</title>
<path fill="none" stroke="#191970" d="M559.2893,-171.2759C555.6091,-162.9954 551.103,-152.8567 547.2279,-144.1378"/>
<polygon fill="#191970" stroke="#191970" points="550.3159,-142.4679 543.0561,-134.7513 543.9192,-145.3109 550.3159,-142.4679"/>
</g>
<!-- Node16&#45;&gt;Node17 -->
<g id="edge16" class="edge">
<title>Node16&#45;&gt;Node17</title>
<path fill="none" stroke="#191970" d="M453.5,-114.3095C453.5,-106.9335 453.5,-96.72 453.5,-87.715"/>
<polygon fill="#191970" stroke="#191970" points="457.0001,-87.6022 453.5,-77.6022 450.0001,-87.6023 457.0001,-87.6022"/>
</g>
<!-- Node16&#45;&gt;Node19 -->
<g id="edge19" class="edge">
<title>Node16&#45;&gt;Node19</title>
<path fill="none" stroke="#191970" d="M498.1489,-114.4408C547.8962,-103.2329 627.24,-85.357 672.2995,-75.2052"/>
<polygon fill="#191970" stroke="#191970" points="673.1887,-78.5927 682.1749,-72.9803 671.6502,-71.7639 673.1887,-78.5927"/>
</g>
<!-- Node17&#45;&gt;Node11 -->
<g id="edge17" class="edge">
<title>Node17&#45;&gt;Node11</title>
<path fill="none" stroke="#191970" d="M421.2045,-57.4408C390.983,-48.0275 345.6606,-33.9107 312.612,-23.6169"/>
<polygon fill="#191970" stroke="#191970" points="313.3683,-20.1866 302.7799,-20.5544 311.2866,-26.8699 313.3683,-20.1866"/>
</g>
<!-- Node17&#45;&gt;Node18 -->
<g id="edge18" class="edge">
<title>Node17&#45;&gt;Node18</title>
<path fill="none" stroke="#191970" d="M505.7681,-60.8498C596.1152,-49.3548 779.6126,-26.008 861.0281,-15.6493"/>
<polygon fill="#191970" stroke="#191970" points="861.881,-19.0691 871.3593,-14.3349 860.9975,-12.1251 861.881,-19.0691"/>
</g>
<!-- Node20&#45;&gt;Node18 -->
<g id="edge22" class="edge">
<title>Node20&#45;&gt;Node18</title>
<path fill="none" stroke="#191970" d="M878.7186,-114.3833C882.8223,-95.6703 891.6696,-55.3266 897.0512,-30.7866"/>
<polygon fill="#191970" stroke="#191970" points="900.5271,-31.2756 899.2505,-20.7579 893.6895,-29.7761 900.5271,-31.2756"/>
</g>
<!-- Node21 -->
<g id="node21" class="node">
<title>Node21</title>
<polygon fill="none" stroke="#bfbfbf" points="822,-57.5 822,-77.5 873,-77.5 873,-57.5 822,-57.5"/>
<text text-anchor="middle" x="847.5" y="-64.5" font-family="FreeSans" font-size="10.00" fill="#000000">cstdint</text>
</g>
<!-- Node20&#45;&gt;Node21 -->
<g id="edge21" class="edge">
<title>Node20&#45;&gt;Node21</title>
<path fill="none" stroke="#191970" d="M871.3154,-114.3095C867.3977,-106.6093 861.9067,-95.8166 857.1844,-86.5349"/>
<polygon fill="#191970" stroke="#191970" points="860.2938,-84.9279 852.6397,-77.6022 854.0549,-88.1021 860.2938,-84.9279"/>
</g>
<!-- Node25&#45;&gt;Node15 -->
<g id="edge30" class="edge">
<title>Node25&#45;&gt;Node15</title>
<path fill="none" stroke="#191970" d="M370.7463,-241.528C409.4855,-230.836 461.7434,-216.4128 502.5211,-205.1582"/>
<polygon fill="#191970" stroke="#191970" points="503.6512,-208.4772 512.3596,-202.4428 501.7888,-201.7295 503.6512,-208.4772"/>
</g>
<!-- Node25&#45;&gt;Node17 -->
<g id="edge31" class="edge">
<title>Node25&#45;&gt;Node17</title>
<path fill="none" stroke="#191970" d="M321.2385,-240.4158C330.1455,-212.2758 351.5984,-153.3646 385.5,-114 396.3438,-101.4089 411.3516,-90.6685 424.51,-82.6926"/>
<polygon fill="#191970" stroke="#191970" points="426.3557,-85.6682 433.2503,-77.6236 422.8439,-79.6129 426.3557,-85.6682"/>
</g>
<!-- Node25&#45;&gt;Node18 -->
<g id="edge32" class="edge">
<title>Node25&#45;&gt;Node18</title>
<path fill="none" stroke="#191970" d="M310.7491,-240.3848C298.4132,-202.6091 274.2605,-107.7176 322.5,-57 341.0689,-37.4773 732.2528,-18.1394 860.8949,-12.287"/>
<polygon fill="#191970" stroke="#191970" points="861.2758,-15.7735 871.1076,-11.8257 860.9599,-8.7806 861.2758,-15.7735"/>
</g>
<!-- Node25&#45;&gt;Node23 -->
<g id="edge33" class="edge">
<title>Node25&#45;&gt;Node23</title>
<path fill="none" stroke="#191970" d="M370.7715,-250.3977C447.5682,-241.2543 583.7073,-223.03 629.5,-204 665.8286,-188.903 701.7071,-159.9663 722.4498,-141.4804"/>
<polygon fill="#191970" stroke="#191970" points="724.8317,-144.0452 729.8757,-134.7281 720.1224,-138.8661 724.8317,-144.0452"/>
</g>
<!-- Node26&#45;&gt;Node18 -->
<g id="edge44" class="edge">
<title>Node26&#45;&gt;Node18</title>
<path fill="none" stroke="#191970" d="M679.8545,-309.3804C560.3515,-269.7568 283.0685,-163.0809 392.5,-57 425.9411,-24.5829 746.8678,-14.0621 861.2544,-11.3259"/>
<polygon fill="#191970" stroke="#191970" points="861.4323,-14.8228 871.3485,-11.0919 861.27,-7.8247 861.4323,-14.8228"/>
</g>
<!-- Node27 -->
<g id="node27" class="node">
<title>Node27</title>
<g id="a_node27"><a xlink:href="../../d4/d1f/SvtxTrack__v1_8h.html" target="_top" xlink:title="SvtxTrack_v1.h">
<polygon fill="none" stroke="#000000" points="691.5,-246.5 691.5,-266.5 783.5,-266.5 783.5,-246.5 691.5,-246.5"/>
<text text-anchor="middle" x="737.5" y="-253.5" font-family="FreeSans" font-size="10.00" fill="#000000">SvtxTrack_v1.h</text>
</a>
</g>
</g>
<!-- Node26&#45;&gt;Node27 -->
<g id="edge35" class="edge">
<title>Node26&#45;&gt;Node27</title>
<path fill="none" stroke="#191970" d="M732.8916,-309.4966C733.7356,-299.7901 734.8208,-287.3104 735.7261,-276.8996"/>
<polygon fill="#191970" stroke="#191970" points="739.2384,-276.9098 736.6179,-266.6441 732.2647,-276.3033 739.2384,-276.9098"/>
</g>
<!-- Node27&#45;&gt;Node15 -->
<g id="edge36" class="edge">
<title>Node27&#45;&gt;Node15</title>
<path fill="none" stroke="#191970" d="M712.6351,-246.4668C687.3675,-236.2711 647.5433,-220.2017 615.8456,-207.4114"/>
<polygon fill="#191970" stroke="#191970" points="616.8776,-204.0537 606.2944,-203.5574 614.2582,-210.5451 616.8776,-204.0537"/>
</g>
<!-- Node27&#45;&gt;Node16 -->
<g id="edge37" class="edge">
<title>Node27&#45;&gt;Node16</title>
<path fill="none" stroke="#191970" d="M691.4891,-250.4443C632.2404,-241.9311 533.3397,-225.0802 503.5,-204 482.4737,-189.146 468.3641,-162.3735 460.6376,-144.0345"/>
<polygon fill="#191970" stroke="#191970" points="463.841,-142.6173 456.91,-134.6041 457.3311,-145.1906 463.841,-142.6173"/>
</g>
<!-- Node27&#45;&gt;Node18 -->
<g id="edge41" class="edge">
<title>Node27&#45;&gt;Node18</title>
<path fill="none" stroke="#191970" d="M756.919,-246.4076C776.1654,-236.2304 806.3309,-219.8062 831.5,-204 853.1148,-190.4259 856.7752,-184.3975 878.5,-171 907.2727,-153.2561 928.1528,-164.0136 945.5,-135 966.3365,-100.1504 937.2792,-53.928 917.3936,-28.7514"/>
<polygon fill="#191970" stroke="#191970" points="919.8928,-26.2799 910.8392,-20.7769 914.4851,-30.7247 919.8928,-26.2799"/>
</g>
<!-- Node27&#45;&gt;Node19 -->
<g id="edge39" class="edge">
<title>Node27&#45;&gt;Node19</title>
<path fill="none" stroke="#191970" d="M745.9739,-246.4482C753.8204,-236.4302 764.9414,-220.2376 769.5,-204 780.3117,-165.4889 787.5255,-149.7083 769.5,-114 762.7465,-100.6215 750.1266,-90.1422 737.9451,-82.5462"/>
<polygon fill="#191970" stroke="#191970" points="739.6535,-79.4911 729.2428,-77.5244 736.1548,-85.554 739.6535,-79.4911"/>
</g>
<!-- Node27&#45;&gt;Node20 -->
<g id="edge38" class="edge">
<title>Node27&#45;&gt;Node20</title>
<path fill="none" stroke="#191970" d="M751.1577,-246.3734C764.6407,-236.1703 785.629,-219.7268 802.5,-204 823.8765,-184.0732 846.4924,-159.1358 861.0121,-142.5583"/>
<polygon fill="#191970" stroke="#191970" points="863.903,-144.5674 867.8175,-134.7222 858.6179,-139.9774 863.903,-144.5674"/>
</g>
<!-- Node27&#45;&gt;Node23 -->
<g id="edge42" class="edge">
<title>Node27&#45;&gt;Node23</title>
<path fill="none" stroke="#191970" d="M729.0261,-246.4482C721.1796,-236.4302 710.0586,-220.2376 705.5,-204 701.5357,-189.8793 700.85,-184.91 705.5,-171 709.0188,-160.4738 715.9617,-150.4197 722.7424,-142.3705"/>
<polygon fill="#191970" stroke="#191970" points="725.498,-144.5412 729.5996,-134.7725 720.3014,-139.8512 725.498,-144.5412"/>
</g>
<!-- Node28 -->
<g id="node28" class="node">
<title>Node28</title>
<polygon fill="none" stroke="#bfbfbf" points="992.5,-114.5 992.5,-134.5 1046.5,-134.5 1046.5,-114.5 992.5,-114.5"/>
<text text-anchor="middle" x="1019.5" y="-121.5" font-family="FreeSans" font-size="10.00" fill="#000000">cstddef</text>
</g>
<!-- Node27&#45;&gt;Node28 -->
<g id="edge40" class="edge">
<title>Node27&#45;&gt;Node28</title>
<path fill="none" stroke="#191970" d="M768.5983,-246.492C797.5538,-236.8075 841.6632,-221.1139 878.5,-204 920.6314,-184.4263 967.1463,-156.981 994.8148,-139.9924"/>
<polygon fill="#191970" stroke="#191970" points="996.777,-142.8942 1003.442,-134.6584 993.0958,-136.9403 996.777,-142.8942"/>
</g>
<!-- Node29 -->
<g id="node29" class="node">
<title>Node29</title>
<polygon fill="none" stroke="#bfbfbf" points="715,-177.5 715,-197.5 760,-197.5 760,-177.5 715,-177.5"/>
<text text-anchor="middle" x="737.5" y="-184.5" font-family="FreeSans" font-size="10.00" fill="#000000">utility</text>
</g>
<!-- Node27&#45;&gt;Node29 -->
<g id="edge43" class="edge">
<title>Node27&#45;&gt;Node29</title>
<path fill="none" stroke="#191970" d="M737.5,-246.3188C737.5,-236.2289 737.5,-220.4925 737.5,-207.8347"/>
<polygon fill="#191970" stroke="#191970" points="741.0001,-207.7229 737.5,-197.723 734.0001,-207.723 741.0001,-207.7229"/>
</g>
<!-- Node32&#45;&gt;Node30 -->
<g id="edge51" class="edge">
<title>Node32&#45;&gt;Node30</title>
<path fill="none" stroke="#191970" d="M239.9306,-378.1422C236.6301,-356.3584 228.9185,-305.4618 224.5891,-276.8882"/>
<polygon fill="#191970" stroke="#191970" points="228.0207,-276.1725 223.0621,-266.8097 221.0997,-277.2212 228.0207,-276.1725"/>
</g>
<!-- Node33 -->
<g id="node33" class="node">
<title>Node33</title>
<g id="a_node33"><a xlink:href="../../d2/de7/Fun4AllBase_8h.html" target="_top" xlink:title="Fun4AllBase.h">
<polygon fill="none" stroke="#000000" points="126,-315.5 126,-335.5 213,-335.5 213,-315.5 126,-315.5"/>
<text text-anchor="middle" x="169.5" y="-322.5" font-family="FreeSans" font-size="10.00" fill="#000000">Fun4AllBase.h</text>
</a>
</g>
</g>
<!-- Node32&#45;&gt;Node33 -->
<g id="edge48" class="edge">
<title>Node32&#45;&gt;Node33</title>
<path fill="none" stroke="#191970" d="M229.932,-378.378C218.8711,-368.6997 201.9842,-353.9236 188.8703,-342.449"/>
<polygon fill="#191970" stroke="#191970" points="191.1091,-339.7573 181.2785,-335.8062 186.4995,-345.0253 191.1091,-339.7573"/>
</g>
<!-- Node33&#45;&gt;Node30 -->
<g id="edge50" class="edge">
<title>Node33&#45;&gt;Node30</title>
<path fill="none" stroke="#191970" d="M177.1728,-315.3188C185.1608,-304.7193 197.8449,-287.8885 207.6021,-274.9415"/>
<polygon fill="#191970" stroke="#191970" points="210.5723,-276.8156 213.7957,-266.723 204.9821,-272.6026 210.5723,-276.8156"/>
</g>
<!-- Node34 -->
<g id="node34" class="node">
<title>Node34</title>
<polygon fill="none" stroke="#bfbfbf" points="132,-246.5 132,-266.5 181,-266.5 181,-246.5 132,-246.5"/>
<text text-anchor="middle" x="156.5" y="-253.5" font-family="FreeSans" font-size="10.00" fill="#000000">climits</text>
</g>
<!-- Node33&#45;&gt;Node34 -->
<g id="edge49" class="edge">
<title>Node33&#45;&gt;Node34</title>
<path fill="none" stroke="#191970" d="M167.5818,-315.3188C165.6808,-305.2289 162.716,-289.4925 160.3312,-276.8347"/>
<polygon fill="#191970" stroke="#191970" points="163.7171,-275.902 158.4261,-266.723 156.8381,-277.1981 163.7171,-275.902"/>
</g>
<!-- Node36&#45;&gt;Node17 -->
<g id="edge56" class="edge">
<title>Node36&#45;&gt;Node17</title>
<path fill="none" stroke="#191970" d="M1102.3325,-115.2603C1097.6552,-114.8213 1093.022,-114.3982 1088.5,-114 878.947,-95.5456 630.0319,-78.8315 516.0841,-71.4687"/>
<polygon fill="#191970" stroke="#191970" points="516.0166,-67.9572 505.8121,-70.8068 515.5663,-74.9427 516.0166,-67.9572"/>
</g>
<!-- Node36&#45;&gt;Node18 -->
<g id="edge60" class="edge">
<title>Node36&#45;&gt;Node18</title>
<path fill="none" stroke="#191970" d="M1184.9897,-114.4C1176.204,-99.3263 1157.5335,-71.2005 1133.5,-57 1101.6207,-38.1637 999.5877,-22.7968 942.0174,-15.3541"/>
<polygon fill="#191970" stroke="#191970" points="942.1735,-11.8459 931.8121,-14.0576 941.2912,-18.7901 942.1735,-11.8459"/>
</g>
<!-- Node37 -->
<g id="node37" class="node">
<title>Node37</title>
<g id="a_node37"><a xlink:href="../../d5/d6f/phool_8h.html" target="_top" xlink:title="phool/phool.h">
<polygon fill="none" stroke="#000000" points="1181,-57.5 1181,-77.5 1266,-77.5 1266,-57.5 1181,-57.5"/>
<text text-anchor="middle" x="1223.5" y="-64.5" font-family="FreeSans" font-size="10.00" fill="#000000">phool/phool.h</text>
</a>
</g>
</g>
<!-- Node36&#45;&gt;Node37 -->
<g id="edge57" class="edge">
<title>Node36&#45;&gt;Node37</title>
<path fill="none" stroke="#191970" d="M1196.3997,-114.3095C1200.8578,-106.6093 1207.1062,-95.8166 1212.4798,-86.5349"/>
<polygon fill="#191970" stroke="#191970" points="1215.6699,-88.0102 1217.6513,-77.6022 1209.6119,-84.5029 1215.6699,-88.0102"/>
</g>
<!-- Node38 -->
<g id="node38" class="node">
<title>Node38</title>
<polygon fill="none" stroke="#bfbfbf" points="993,-57.5 993,-77.5 1124,-77.5 1124,-57.5 993,-57.5"/>
<text text-anchor="middle" x="1058.5" y="-64.5" font-family="FreeSans" font-size="10.00" fill="#000000">HepMC/SimpleVector.h</text>
</g>
<!-- Node36&#45;&gt;Node38 -->
<g id="edge59" class="edge">
<title>Node36&#45;&gt;Node38</title>
<path fill="none" stroke="#191970" d="M1167.2049,-114.4408C1146.1286,-105.3396 1114.8701,-91.8416 1091.2755,-81.6531"/>
<polygon fill="#191970" stroke="#191970" points="1092.5744,-78.4016 1082.0062,-77.6504 1089.7993,-84.8281 1092.5744,-78.4016"/>
</g>
<!-- Node37&#45;&gt;Node18 -->
<g id="edge58" class="edge">
<title>Node37&#45;&gt;Node18</title>
<path fill="none" stroke="#191970" d="M1180.8656,-59.6056C1176.0214,-58.7207 1171.1546,-57.8371 1166.5,-57 1086.9328,-42.6908 993.8261,-26.4756 941.8562,-17.472"/>
<polygon fill="#191970" stroke="#191970" points="942.1692,-13.9742 931.7187,-15.7168 940.975,-20.8716 942.1692,-13.9742"/>
</g>
<!-- Node39&#45;&gt;Node17 -->
<g id="edge63" class="edge">
<title>Node39&#45;&gt;Node17</title>
<path fill="none" stroke="#191970" d="M1069.3077,-177.4093C1071.5375,-161.3599 1073.1148,-130.1819 1055.5,-114 1035.8406,-95.9398 666.188,-77.1743 516.0718,-70.2648"/>
<polygon fill="#191970" stroke="#191970" points="515.8003,-66.7488 505.6507,-69.788 515.4802,-73.7415 515.8003,-66.7488"/>
</g>
<!-- Node39&#45;&gt;Node18 -->
<g id="edge65" class="edge">
<title>Node39&#45;&gt;Node18</title>
<path fill="none" stroke="#191970" d="M1156.5905,-177.4782C1210.1235,-169.4152 1270.9854,-155.9193 1287.5,-135 1300.8279,-118.1173 1294.5461,-74.5133 1275.5,-57 1251.2104,-34.6651 1032.9732,-18.6564 941.5284,-12.8723"/>
<polygon fill="#191970" stroke="#191970" points="941.7374,-9.3786 931.5389,-12.2493 941.3017,-16.365 941.7374,-9.3786"/>
</g>
<!-- Node39&#45;&gt;Node23 -->
<g id="edge66" class="edge">
<title>Node39&#45;&gt;Node23</title>
<path fill="none" stroke="#191970" d="M1015.3243,-177.4478C945.8715,-164.067 825.3801,-140.853 769.9492,-130.1737"/>
<polygon fill="#191970" stroke="#191970" points="770.5552,-126.7262 760.0736,-128.2711 769.2309,-133.5998 770.5552,-126.7262"/>
</g>
<!-- Node39&#45;&gt;Node28 -->
<g id="edge64" class="edge">
<title>Node39&#45;&gt;Node28</title>
<path fill="none" stroke="#191970" d="M1059.788,-177.378C1052.6923,-168.0649 1042.0002,-154.0316 1033.4137,-142.7617"/>
<polygon fill="#191970" stroke="#191970" points="1036.1968,-140.6394 1027.3524,-134.8062 1030.6288,-144.8817 1036.1968,-140.6394"/>
</g>
<!-- Node39&#45;&gt;Node36 -->
<g id="edge62" class="edge">
<title>Node39&#45;&gt;Node36</title>
<path fill="none" stroke="#191970" d="M1087.2621,-177.378C1107.4357,-167.0451 1138.9543,-150.9015 1161.8613,-139.1686"/>
<polygon fill="#191970" stroke="#191970" points="1163.4821,-142.2709 1170.787,-134.5969 1160.2909,-136.0406 1163.4821,-142.2709"/>
</g>
</g>
</svg>
