<?xml version="1.0" encoding="UTF-8" standalone="no"?>
<!DOCTYPE svg PUBLIC "-//W3C//DTD SVG 1.1//EN"
 "http://www.w3.org/Graphics/SVG/1.1/DTD/svg11.dtd">
<!-- Generated by graphviz version 2.40.1 (20161225.0304)
 -->
<!-- Title: PHG4mRICHSubsystem::InitSubsystem Pages: 1 -->
<svg width="322pt" height="221pt"
 viewBox="0.00 0.00 322.00 221.00" xmlns="http://www.w3.org/2000/svg" xmlns:xlink="http://www.w3.org/1999/xlink">
<g id="graph0" class="graph" transform="scale(1 1) rotate(0) translate(4 217)">
<title>PHG4mRICHSubsystem::InitSubsystem</title>
<!-- Node1 -->
<g id="node1" class="node">
<title>Node1</title>
<polygon fill="#bfbfbf" stroke="#000000" points="0,-90.5 0,-122.5 134,-122.5 134,-90.5 0,-90.5"/>
<text text-anchor="start" x="8" y="-109.5" font-family="FreeSans" font-size="10.00" fill="#000000">PHG4mRICHSubsystem</text>
<text text-anchor="middle" x="67" y="-97.5" font-family="FreeSans" font-size="10.00" fill="#000000">::InitSubsystem</text>
</g>
<!-- Node2 -->
<g id="node2" class="node">
<title>Node2</title>
<g id="a_node2"><a xlink:href="../../d5/d29/classPHG4DetectorSubsystem.html#a6ce8e425ac50e6f13d44075bd6843dcf" target="_top" xlink:title="PHG4DetectorSubsystem\l::GetParams">
<polygon fill="none" stroke="#000000" points="170,-180.5 170,-212.5 314,-212.5 314,-180.5 170,-180.5"/>
<text text-anchor="start" x="178" y="-199.5" font-family="FreeSans" font-size="10.00" fill="#000000">PHG4DetectorSubsystem</text>
<text text-anchor="middle" x="242" y="-187.5" font-family="FreeSans" font-size="10.00" fill="#000000">::GetParams</text>
</a>
</g>
</g>
<!-- Node1&#45;&gt;Node2 -->
<g id="edge1" class="edge">
<title>Node1&#45;&gt;Node2</title>
<path fill="none" stroke="#191970" d="M89.0502,-122.5081C109.345,-136.7244 140.6584,-157.3779 170,-171.5 173.7557,-173.3076 177.6773,-175.0489 181.6671,-176.7128"/>
<polygon fill="#191970" stroke="#191970" points="180.4689,-180.0029 191.0543,-180.4497 183.0579,-173.4993 180.4689,-180.0029"/>
</g>
<!-- Node3 -->
<g id="node3" class="node">
<title>Node3</title>
<g id="a_node3"><a xlink:href="../../d5/dec/classFun4AllBase.html#a41f9ac377743d046f590617fd6f4f0ed" target="_top" xlink:title="Returns the name of this module.">
<polygon fill="none" stroke="#000000" points="184.5,-141.5 184.5,-161.5 299.5,-161.5 299.5,-141.5 184.5,-141.5"/>
<text text-anchor="middle" x="242" y="-148.5" font-family="FreeSans" font-size="10.00" fill="#000000">Fun4AllBase::Name</text>
</a>
</g>
</g>
<!-- Node1&#45;&gt;Node3 -->
<g id="edge2" class="edge">
<title>Node1&#45;&gt;Node3</title>
<path fill="none" stroke="#191970" d="M129.6847,-122.6189C150.4805,-127.9664 173.3148,-133.8381 192.9326,-138.8827"/>
<polygon fill="#191970" stroke="#191970" points="192.3138,-142.3374 202.8704,-141.4381 194.0572,-135.5579 192.3138,-142.3374"/>
</g>
<!-- Node4 -->
<g id="node4" class="node">
<title>Node4</title>
<g id="a_node4"><a xlink:href="../../dd/dae/classPHParameters.html#a62881b44dd0564425633070316af66ec" target="_top" xlink:title="PHParameters::set_int\l_param">
<polygon fill="none" stroke="#000000" points="178,-90.5 178,-122.5 306,-122.5 306,-90.5 178,-90.5"/>
<text text-anchor="start" x="186" y="-109.5" font-family="FreeSans" font-size="10.00" fill="#000000">PHParameters::set_int</text>
<text text-anchor="middle" x="242" y="-97.5" font-family="FreeSans" font-size="10.00" fill="#000000">_param</text>
</a>
</g>
</g>
<!-- Node1&#45;&gt;Node4 -->
<g id="edge3" class="edge">
<title>Node1&#45;&gt;Node4</title>
<path fill="none" stroke="#191970" d="M134.1591,-106.5C145.1549,-106.5 156.6044,-106.5 167.7596,-106.5"/>
<polygon fill="#191970" stroke="#191970" points="167.9,-110.0001 177.8999,-106.5 167.8999,-103.0001 167.9,-110.0001"/>
</g>
<!-- Node5 -->
<g id="node5" class="node">
<title>Node5</title>
<g id="a_node5"><a xlink:href="../../dd/dae/classPHParameters.html#a40d6bab1351b6291cfe471f561afb5f7" target="_top" xlink:title="PHParameters::set_name">
<polygon fill="none" stroke="#000000" points="170.5,-51.5 170.5,-71.5 313.5,-71.5 313.5,-51.5 170.5,-51.5"/>
<text text-anchor="middle" x="242" y="-58.5" font-family="FreeSans" font-size="10.00" fill="#000000">PHParameters::set_name</text>
</a>
</g>
</g>
<!-- Node1&#45;&gt;Node5 -->
<g id="edge4" class="edge">
<title>Node1&#45;&gt;Node5</title>
<path fill="none" stroke="#191970" d="M129.6847,-90.3811C150.4805,-85.0336 173.3148,-79.1619 192.9326,-74.1173"/>
<polygon fill="#191970" stroke="#191970" points="194.0572,-77.4421 202.8704,-71.5619 192.3138,-70.6626 194.0572,-77.4421"/>
</g>
<!-- Node6 -->
<g id="node6" class="node">
<title>Node6</title>
<g id="a_node6"><a xlink:href="../../dd/dae/classPHParameters.html#a2ebd6e499647b20dd41ca164e71ca061" target="_top" xlink:title="PHParameters::set_string\l_param">
<polygon fill="none" stroke="#000000" points="170.5,-.5 170.5,-32.5 313.5,-32.5 313.5,-.5 170.5,-.5"/>
<text text-anchor="start" x="178.5" y="-19.5" font-family="FreeSans" font-size="10.00" fill="#000000">PHParameters::set_string</text>
<text text-anchor="middle" x="242" y="-7.5" font-family="FreeSans" font-size="10.00" fill="#000000">_param</text>
</a>
</g>
</g>
<!-- Node1&#45;&gt;Node6 -->
<g id="edge5" class="edge">
<title>Node1&#45;&gt;Node6</title>
<path fill="none" stroke="#191970" d="M89.9275,-90.304C110.2909,-76.4011 141.203,-56.4552 170,-42.5 174.3317,-40.4008 178.8788,-38.3752 183.4938,-36.4444"/>
<polygon fill="#191970" stroke="#191970" points="185.0392,-39.5955 193.0146,-32.6209 182.4306,-33.0997 185.0392,-39.5955"/>
</g>
</g>
</svg>
