<?xml version="1.0" encoding="UTF-8" standalone="no"?>
<!DOCTYPE svg PUBLIC "-//W3C//DTD SVG 1.1//EN"
 "http://www.w3.org/Graphics/SVG/1.1/DTD/svg11.dtd">
<!-- Generated by graphviz version 2.40.1 (20161225.0304)
 -->
<!-- Title: SimpleHit3D::get_error Pages: 1 -->
<svg width="658pt" height="92pt"
 viewBox="0.00 0.00 658.00 92.00" xmlns="http://www.w3.org/2000/svg" xmlns:xlink="http://www.w3.org/1999/xlink">
<g id="graph0" class="graph" transform="scale(1 1) rotate(0) translate(4 88)">
<title>SimpleHit3D::get_error</title>
<!-- Node1 -->
<g id="node1" class="node">
<title>Node1</title>
<polygon fill="#bfbfbf" stroke="#000000" points="0,-31.5 0,-51.5 133,-51.5 133,-31.5 0,-31.5"/>
<text text-anchor="middle" x="66.5" y="-38.5" font-family="FreeSans" font-size="10.00" fill="#000000">SimpleHit3D::get_error</text>
</g>
<!-- Node2 -->
<g id="node2" class="node">
<title>Node2</title>
<g id="a_node2"><a xlink:href="../../da/d87/classSimpleHit3D.html#a33784e1c0dca64ac29d7f3b45317d2f3" target="_top" xlink:title="SimpleHit3D::print">
<polygon fill="none" stroke="#000000" points="169,-31.5 169,-51.5 279,-51.5 279,-31.5 169,-31.5"/>
<text text-anchor="middle" x="224" y="-38.5" font-family="FreeSans" font-size="10.00" fill="#000000">SimpleHit3D::print</text>
</a>
</g>
</g>
<!-- Node1&#45;&gt;Node2 -->
<g id="edge1" class="edge">
<title>Node1&#45;&gt;Node2</title>
<path fill="none" stroke="#191970" d="M143.538,-41.5C151.968,-41.5 160.4242,-41.5 168.5199,-41.5"/>
<polygon fill="#191970" stroke="#191970" points="143.2942,-38.0001 133.2942,-41.5 143.2941,-45.0001 143.2942,-38.0001"/>
</g>
<!-- Node3 -->
<g id="node3" class="node">
<title>Node3</title>
<g id="a_node3"><a xlink:href="../../d2/d8f/classPHInitZVertexing.html#aefdd3d35e9f530093d9dc58a457b1e79" target="_top" xlink:title="PHInitZVertexing::translate\l_input">
<polygon fill="none" stroke="#000000" points="315,-51.5 315,-83.5 468,-83.5 468,-51.5 315,-51.5"/>
<text text-anchor="start" x="323" y="-70.5" font-family="FreeSans" font-size="10.00" fill="#000000">PHInitZVertexing::translate</text>
<text text-anchor="middle" x="391.5" y="-58.5" font-family="FreeSans" font-size="10.00" fill="#000000">_input</text>
</a>
</g>
</g>
<!-- Node2&#45;&gt;Node3 -->
<g id="edge2" class="edge">
<title>Node2&#45;&gt;Node3</title>
<path fill="none" stroke="#191970" d="M289.3178,-51.6389C297.6458,-52.9316 306.2297,-54.264 314.7174,-55.5815"/>
<polygon fill="#191970" stroke="#191970" points="289.7285,-48.1608 279.31,-50.0854 288.6548,-55.078 289.7285,-48.1608"/>
</g>
<!-- Node5 -->
<g id="node5" class="node">
<title>Node5</title>
<g id="a_node5"><a xlink:href="../../d1/d97/classPHPatternReco.html#aceb09e501b427d8fbce29e7790bd19d4" target="_top" xlink:title="PHPatternReco::translate\l_input">
<polygon fill="none" stroke="#000000" points="320.5,-.5 320.5,-32.5 462.5,-32.5 462.5,-.5 320.5,-.5"/>
<text text-anchor="start" x="328.5" y="-19.5" font-family="FreeSans" font-size="10.00" fill="#000000">PHPatternReco::translate</text>
<text text-anchor="middle" x="391.5" y="-7.5" font-family="FreeSans" font-size="10.00" fill="#000000">_input</text>
</a>
</g>
</g>
<!-- Node2&#45;&gt;Node5 -->
<g id="edge4" class="edge">
<title>Node2&#45;&gt;Node5</title>
<path fill="none" stroke="#191970" d="M289.3478,-31.7466C299.5369,-30.2258 310.1082,-28.648 320.4175,-27.1093"/>
<polygon fill="#191970" stroke="#191970" points="288.6837,-28.3069 279.31,-33.2448 289.7171,-35.2302 288.6837,-28.3069"/>
</g>
<!-- Node4 -->
<g id="node4" class="node">
<title>Node4</title>
<g id="a_node4"><a xlink:href="../../d2/d8f/classPHInitZVertexing.html#a50743230c0f324a28d4410227a526ec8" target="_top" xlink:title="PHInitZVertexing::Process">
<polygon fill="none" stroke="#000000" points="504,-57.5 504,-77.5 650,-77.5 650,-57.5 504,-57.5"/>
<text text-anchor="middle" x="577" y="-64.5" font-family="FreeSans" font-size="10.00" fill="#000000">PHInitZVertexing::Process</text>
</a>
</g>
</g>
<!-- Node3&#45;&gt;Node4 -->
<g id="edge3" class="edge">
<title>Node3&#45;&gt;Node4</title>
<path fill="none" stroke="#191970" d="M478.1104,-67.5C486.7485,-67.5 495.4579,-67.5 503.9372,-67.5"/>
<polygon fill="#191970" stroke="#191970" points="478.021,-64.0001 468.0209,-67.5 478.0209,-71.0001 478.021,-64.0001"/>
</g>
<!-- Node6 -->
<g id="node6" class="node">
<title>Node6</title>
<g id="a_node6"><a xlink:href="../../d1/d97/classPHPatternReco.html#ac97e2c1e8d98ea16a11d44c134ad0299" target="_top" xlink:title="PHPatternReco::process\l_event">
<polygon fill="none" stroke="#000000" points="509,-.5 509,-32.5 645,-32.5 645,-.5 509,-.5"/>
<text text-anchor="start" x="517" y="-19.5" font-family="FreeSans" font-size="10.00" fill="#000000">PHPatternReco::process</text>
<text text-anchor="middle" x="577" y="-7.5" font-family="FreeSans" font-size="10.00" fill="#000000">_event</text>
</a>
</g>
</g>
<!-- Node5&#45;&gt;Node6 -->
<g id="edge5" class="edge">
<title>Node5&#45;&gt;Node6</title>
<path fill="none" stroke="#191970" d="M472.7101,-16.5C484.7357,-16.5 497.0241,-16.5 508.7498,-16.5"/>
<polygon fill="#191970" stroke="#191970" points="472.6887,-13.0001 462.6886,-16.5 472.6886,-20.0001 472.6887,-13.0001"/>
</g>
</g>
</svg>
