<?xml version="1.0" encoding="UTF-8" standalone="no"?>
<!DOCTYPE svg PUBLIC "-//W3C//DTD SVG 1.1//EN"
 "http://www.w3.org/Graphics/SVG/1.1/DTD/svg11.dtd">
<!-- Generated by graphviz version 2.40.1 (20161225.0304)
 -->
<!-- Title: coresoftware/blob/master/simulation/g4simulation/g4main/PHG4EventHeaderv1.h Pages: 1 -->
<svg width="368pt" height="224pt"
 viewBox="0.00 0.00 368.00 224.00" xmlns="http://www.w3.org/2000/svg" xmlns:xlink="http://www.w3.org/1999/xlink">
<g id="graph0" class="graph" transform="scale(1 1) rotate(0) translate(4 220)">
<title>coresoftware/blob/master/simulation/g4simulation/g4main/PHG4EventHeaderv1.h</title>
<!-- Node1 -->
<g id="node1" class="node">
<title>Node1</title>
<polygon fill="#bfbfbf" stroke="#000000" points="182,-171.5 182,-215.5 360,-215.5 360,-171.5 182,-171.5"/>
<text text-anchor="start" x="190" y="-202.5" font-family="FreeSans" font-size="10.00" fill="#000000">coresoftware/blob/master</text>
<text text-anchor="start" x="190" y="-190.5" font-family="FreeSans" font-size="10.00" fill="#000000">/simulation/g4simulation</text>
<text text-anchor="middle" x="271" y="-178.5" font-family="FreeSans" font-size="10.00" fill="#000000">/g4main/PHG4EventHeaderv1.h</text>
</g>
<!-- Node2 -->
<g id="node2" class="node">
<title>Node2</title>
<g id="a_node2"><a xlink:href="../../df/d6b/PHG4EventHeader_8h.html" target="_top" xlink:title="PHG4EventHeader.h">
<polygon fill="none" stroke="#000000" points="144,-114.5 144,-134.5 262,-134.5 262,-114.5 144,-114.5"/>
<text text-anchor="middle" x="203" y="-121.5" font-family="FreeSans" font-size="10.00" fill="#000000">PHG4EventHeader.h</text>
</a>
</g>
</g>
<!-- Node1&#45;&gt;Node2 -->
<g id="edge1" class="edge">
<title>Node1&#45;&gt;Node2</title>
<path fill="none" stroke="#191970" d="M249.1101,-171.2882C239.741,-161.7813 228.9608,-150.8426 220.1808,-141.9334"/>
<polygon fill="#191970" stroke="#191970" points="222.5778,-139.3794 213.0656,-134.7137 217.5921,-144.2929 222.5778,-139.3794"/>
</g>
<!-- Node5 -->
<g id="node5" class="node">
<title>Node5</title>
<polygon fill="none" stroke="#bfbfbf" points="138,-.5 138,-20.5 198,-20.5 198,-.5 138,-.5"/>
<text text-anchor="middle" x="168" y="-7.5" font-family="FreeSans" font-size="10.00" fill="#000000">iostream</text>
</g>
<!-- Node1&#45;&gt;Node5 -->
<g id="edge9" class="edge">
<title>Node1&#45;&gt;Node5</title>
<path fill="none" stroke="#191970" d="M291.1526,-171.3159C314.6536,-142.66 347.1501,-92.2787 321,-57 307.4741,-38.7524 248.729,-24.8339 208.0984,-17.1656"/>
<polygon fill="#191970" stroke="#191970" points="208.6644,-13.7111 198.1974,-15.3519 207.403,-20.5966 208.6644,-13.7111"/>
</g>
<!-- Node3 -->
<g id="node3" class="node">
<title>Node3</title>
<g id="a_node3"><a xlink:href="../../df/d32/PHObject_8h.html" target="_top" xlink:title="phool/PHObject.h">
<polygon fill="none" stroke="#000000" points="0,-57.5 0,-77.5 104,-77.5 104,-57.5 0,-57.5"/>
<text text-anchor="middle" x="52" y="-64.5" font-family="FreeSans" font-size="10.00" fill="#000000">phool/PHObject.h</text>
</a>
</g>
</g>
<!-- Node2&#45;&gt;Node3 -->
<g id="edge2" class="edge">
<title>Node2&#45;&gt;Node3</title>
<path fill="none" stroke="#191970" d="M176.3518,-114.4408C151.8449,-105.1898 115.3036,-91.3961 88.1676,-81.1527"/>
<polygon fill="#191970" stroke="#191970" points="89.227,-77.8116 78.6353,-77.5544 86.7549,-84.3605 89.227,-77.8116"/>
</g>
<!-- Node2&#45;&gt;Node5 -->
<g id="edge8" class="edge">
<title>Node2&#45;&gt;Node5</title>
<path fill="none" stroke="#191970" d="M185.4259,-114.3885C173.2529,-106.2886 158.0217,-93.6986 151,-78 144.0914,-62.5542 149.8253,-43.8122 156.439,-30.0001"/>
<polygon fill="#191970" stroke="#191970" points="159.6545,-31.4069 161.2422,-20.9317 153.4686,-28.1305 159.6545,-31.4069"/>
</g>
<!-- Node6 -->
<g id="node6" class="node">
<title>Node6</title>
<g id="a_node6"><a xlink:href="../../d5/d6f/phool_8h.html" target="_top" xlink:title="phool/phool.h">
<polygon fill="none" stroke="#000000" points="160.5,-57.5 160.5,-77.5 245.5,-77.5 245.5,-57.5 160.5,-57.5"/>
<text text-anchor="middle" x="203" y="-64.5" font-family="FreeSans" font-size="10.00" fill="#000000">phool/phool.h</text>
</a>
</g>
</g>
<!-- Node2&#45;&gt;Node6 -->
<g id="edge5" class="edge">
<title>Node2&#45;&gt;Node6</title>
<path fill="none" stroke="#191970" d="M203,-114.3095C203,-106.9335 203,-96.72 203,-87.715"/>
<polygon fill="#191970" stroke="#191970" points="206.5001,-87.6022 203,-77.6022 199.5001,-87.6023 206.5001,-87.6022"/>
</g>
<!-- Node7 -->
<g id="node7" class="node">
<title>Node7</title>
<polygon fill="none" stroke="#bfbfbf" points="264,-57.5 264,-77.5 312,-77.5 312,-57.5 264,-57.5"/>
<text text-anchor="middle" x="288" y="-64.5" font-family="FreeSans" font-size="10.00" fill="#000000">cmath</text>
</g>
<!-- Node2&#45;&gt;Node7 -->
<g id="edge7" class="edge">
<title>Node2&#45;&gt;Node7</title>
<path fill="none" stroke="#191970" d="M218.1963,-114.3095C231.0087,-105.7177 249.5624,-93.2758 264.3214,-83.3786"/>
<polygon fill="#191970" stroke="#191970" points="266.5792,-86.0787 272.9353,-77.6022 262.6805,-80.2649 266.5792,-86.0787"/>
</g>
<!-- Node4 -->
<g id="node4" class="node">
<title>Node4</title>
<polygon fill="none" stroke="#bfbfbf" points="19.5,-.5 19.5,-20.5 84.5,-20.5 84.5,-.5 19.5,-.5"/>
<text text-anchor="middle" x="52" y="-7.5" font-family="FreeSans" font-size="10.00" fill="#000000">TObject.h</text>
</g>
<!-- Node3&#45;&gt;Node4 -->
<g id="edge3" class="edge">
<title>Node3&#45;&gt;Node4</title>
<path fill="none" stroke="#191970" d="M52,-57.3095C52,-49.9335 52,-39.72 52,-30.715"/>
<polygon fill="#191970" stroke="#191970" points="55.5001,-30.6022 52,-20.6022 48.5001,-30.6023 55.5001,-30.6022"/>
</g>
<!-- Node3&#45;&gt;Node5 -->
<g id="edge4" class="edge">
<title>Node3&#45;&gt;Node5</title>
<path fill="none" stroke="#191970" d="M72.4714,-57.4408C90.7461,-48.461 117.7317,-35.2008 138.3643,-25.0624"/>
<polygon fill="#191970" stroke="#191970" points="139.9116,-28.2019 147.343,-20.6504 136.8244,-21.9193 139.9116,-28.2019"/>
</g>
<!-- Node6&#45;&gt;Node5 -->
<g id="edge6" class="edge">
<title>Node6&#45;&gt;Node5</title>
<path fill="none" stroke="#191970" d="M196.7427,-57.3095C191.9647,-49.5282 185.2477,-38.589 179.5084,-29.2423"/>
<polygon fill="#191970" stroke="#191970" points="182.4184,-27.2925 174.2031,-20.6022 176.4532,-30.9554 182.4184,-27.2925"/>
</g>
</g>
</svg>
