<?xml version="1.0" encoding="UTF-8" standalone="no"?>
<!DOCTYPE svg PUBLIC "-//W3C//DTD SVG 1.1//EN"
 "http://www.w3.org/Graphics/SVG/1.1/DTD/svg11.dtd">
<!-- Generated by graphviz version 2.40.1 (20161225.0304)
 -->
<!-- Title: PHG4Prototype3InnerHcalSubsystem::InitRunSubsystem Pages: 1 -->
<svg width="604pt" height="528pt"
 viewBox="0.00 0.00 604.00 528.00" xmlns="http://www.w3.org/2000/svg" xmlns:xlink="http://www.w3.org/1999/xlink">
<g id="graph0" class="graph" transform="scale(1 1) rotate(0) translate(4 524)">
<title>PHG4Prototype3InnerHcalSubsystem::InitRunSubsystem</title>
<!-- Node1 -->
<g id="node1" class="node">
<title>Node1</title>
<polygon fill="#bfbfbf" stroke="#000000" points="0,-219.5 0,-251.5 203,-251.5 203,-219.5 0,-219.5"/>
<text text-anchor="start" x="8" y="-238.5" font-family="FreeSans" font-size="10.00" fill="#000000">PHG4Prototype3InnerHcalSubsystem</text>
<text text-anchor="middle" x="101.5" y="-226.5" font-family="FreeSans" font-size="10.00" fill="#000000">::InitRunSubsystem</text>
</g>
<!-- Node2 -->
<g id="node2" class="node">
<title>Node2</title>
<g id="a_node2"><a xlink:href="../../d5/dca/classPHCompositeNode.html#a15a0c4804399a9de4267647f05bd1ba4" target="_top" xlink:title="PHCompositeNode::addNode">
<polygon fill="none" stroke="#000000" points="254,-468.5 254,-488.5 416,-488.5 416,-468.5 254,-468.5"/>
<text text-anchor="middle" x="335" y="-475.5" font-family="FreeSans" font-size="10.00" fill="#000000">PHCompositeNode::addNode</text>
</a>
</g>
</g>
<!-- Node1&#45;&gt;Node2 -->
<g id="edge1" class="edge">
<title>Node1&#45;&gt;Node2</title>
<path fill="none" stroke="#191970" d="M106.356,-251.6535C119.8236,-293.4855 161.8362,-405.818 239,-459.5 241.4189,-461.1828 243.9507,-462.7248 246.569,-464.1374"/>
<polygon fill="#191970" stroke="#191970" points="245.2266,-467.3737 255.7659,-468.4577 248.203,-461.038 245.2266,-467.3737"/>
</g>
<!-- Node6 -->
<g id="node6" class="node">
<title>Node6</title>
<g id="a_node6"><a xlink:href="../../d5/d29/classPHG4DetectorSubsystem.html#a3a654db38f49eafe08c5fb725f63c959" target="_top" xlink:title="PHG4DetectorSubsystem\l::CheckOverlap">
<polygon fill="none" stroke="#000000" points="263,-417.5 263,-449.5 407,-449.5 407,-417.5 263,-417.5"/>
<text text-anchor="start" x="271" y="-436.5" font-family="FreeSans" font-size="10.00" fill="#000000">PHG4DetectorSubsystem</text>
<text text-anchor="middle" x="335" y="-424.5" font-family="FreeSans" font-size="10.00" fill="#000000">::CheckOverlap</text>
</a>
</g>
</g>
<!-- Node1&#45;&gt;Node6 -->
<g id="edge5" class="edge">
<title>Node1&#45;&gt;Node6</title>
<path fill="none" stroke="#191970" d="M109.6717,-251.7354C127.8981,-286.2333 175.334,-367.0608 239,-408.5 243.3979,-411.3626 248.1089,-413.8979 252.9961,-416.1432"/>
<polygon fill="#191970" stroke="#191970" points="251.9975,-419.5181 262.5756,-420.1138 254.6778,-413.0515 251.9975,-419.5181"/>
</g>
<!-- Node7 -->
<g id="node7" class="node">
<title>Node7</title>
<g id="a_node7"><a xlink:href="../../d5/d07/classPHNodeIterator.html#aea98bf8619af59b1212a94fb32106baa" target="_top" xlink:title="PHNodeIterator::findFirst">
<polygon fill="none" stroke="#000000" points="264.5,-360.5 264.5,-380.5 405.5,-380.5 405.5,-360.5 264.5,-360.5"/>
<text text-anchor="middle" x="335" y="-367.5" font-family="FreeSans" font-size="10.00" fill="#000000">PHNodeIterator::findFirst</text>
</a>
</g>
</g>
<!-- Node1&#45;&gt;Node7 -->
<g id="edge6" class="edge">
<title>Node1&#45;&gt;Node7</title>
<path fill="none" stroke="#191970" d="M116.8576,-251.5091C140.7489,-275.4858 189.2631,-320.563 239,-345.5 248.7836,-350.4053 259.6253,-354.4157 270.3971,-357.6733"/>
<polygon fill="#191970" stroke="#191970" points="269.6623,-361.1028 280.2374,-360.4575 271.568,-354.3672 269.6623,-361.1028"/>
</g>
<!-- Node9 -->
<g id="node9" class="node">
<title>Node9</title>
<g id="a_node9"><a xlink:href="../../dd/dae/classPHParameters.html#a0241ca27a369ab4865ac3d79620ac27c" target="_top" xlink:title="PHParameters::get_int\l_param">
<polygon fill="none" stroke="#000000" points="467,-290.5 467,-322.5 596,-322.5 596,-290.5 467,-290.5"/>
<text text-anchor="start" x="475" y="-309.5" font-family="FreeSans" font-size="10.00" fill="#000000">PHParameters::get_int</text>
<text text-anchor="middle" x="531.5" y="-297.5" font-family="FreeSans" font-size="10.00" fill="#000000">_param</text>
</a>
</g>
</g>
<!-- Node1&#45;&gt;Node9 -->
<g id="edge10" class="edge">
<title>Node1&#45;&gt;Node9</title>
<path fill="none" stroke="#191970" d="M122.4257,-251.5467C148.1995,-270.2036 194.1019,-299.9175 239,-311.5 311.1744,-330.119 396.7267,-325.7469 456.5982,-318.6253"/>
<polygon fill="#191970" stroke="#191970" points="457.2323,-322.0735 466.7237,-317.3656 456.3681,-315.127 457.2323,-322.0735"/>
</g>
<!-- Node10 -->
<g id="node10" class="node">
<title>Node10</title>
<g id="a_node10"><a xlink:href="../../d5/d29/classPHG4DetectorSubsystem.html#a0782302d2c93bb541eb2bc6c642b047b" target="_top" xlink:title="PHG4DetectorSubsystem\l::get_int_param">
<polygon fill="none" stroke="#000000" points="263,-270.5 263,-302.5 407,-302.5 407,-270.5 263,-270.5"/>
<text text-anchor="start" x="271" y="-289.5" font-family="FreeSans" font-size="10.00" fill="#000000">PHG4DetectorSubsystem</text>
<text text-anchor="middle" x="335" y="-277.5" font-family="FreeSans" font-size="10.00" fill="#000000">::get_int_param</text>
</a>
</g>
</g>
<!-- Node1&#45;&gt;Node10 -->
<g id="edge11" class="edge">
<title>Node1&#45;&gt;Node10</title>
<path fill="none" stroke="#191970" d="M175.0604,-251.5667C199.7251,-256.9539 227.3836,-262.9949 252.675,-268.519"/>
<polygon fill="#191970" stroke="#191970" points="252.0926,-271.9742 262.6092,-270.6887 253.5864,-265.1354 252.0926,-271.9742"/>
</g>
<!-- Node11 -->
<g id="node11" class="node">
<title>Node11</title>
<g id="a_node11"><a xlink:href="../../d5/d29/classPHG4DetectorSubsystem.html#a6ce8e425ac50e6f13d44075bd6843dcf" target="_top" xlink:title="PHG4DetectorSubsystem\l::GetParams">
<polygon fill="none" stroke="#000000" points="263,-219.5 263,-251.5 407,-251.5 407,-219.5 263,-219.5"/>
<text text-anchor="start" x="271" y="-238.5" font-family="FreeSans" font-size="10.00" fill="#000000">PHG4DetectorSubsystem</text>
<text text-anchor="middle" x="335" y="-226.5" font-family="FreeSans" font-size="10.00" fill="#000000">::GetParams</text>
</a>
</g>
</g>
<!-- Node1&#45;&gt;Node11 -->
<g id="edge13" class="edge">
<title>Node1&#45;&gt;Node11</title>
<path fill="none" stroke="#191970" d="M203.2372,-235.5C219.67,-235.5 236.5062,-235.5 252.4143,-235.5"/>
<polygon fill="#191970" stroke="#191970" points="252.7208,-239.0001 262.7207,-235.5 252.7207,-232.0001 252.7208,-239.0001"/>
</g>
<!-- Node12 -->
<g id="node12" class="node">
<title>Node12</title>
<g id="a_node12"><a xlink:href="../../d5/dec/classFun4AllBase.html#a41f9ac377743d046f590617fd6f4f0ed" target="_top" xlink:title="Returns the name of this module.">
<polygon fill="none" stroke="#000000" points="277.5,-180.5 277.5,-200.5 392.5,-200.5 392.5,-180.5 277.5,-180.5"/>
<text text-anchor="middle" x="335" y="-187.5" font-family="FreeSans" font-size="10.00" fill="#000000">Fun4AllBase::Name</text>
</a>
</g>
</g>
<!-- Node1&#45;&gt;Node12 -->
<g id="edge14" class="edge">
<title>Node1&#45;&gt;Node12</title>
<path fill="none" stroke="#191970" d="M184.8099,-219.4445C213.8439,-213.8492 245.8911,-207.673 272.8996,-202.468"/>
<polygon fill="#191970" stroke="#191970" points="273.8304,-205.8531 282.9873,-200.5239 272.5056,-198.9795 273.8304,-205.8531"/>
</g>
<!-- Node13 -->
<g id="node13" class="node">
<title>Node13</title>
<g id="a_node13"><a xlink:href="../../d3/de7/classPHG4Detector.html#a1a914e84447dd5ab89745cb9fcd1942e" target="_top" xlink:title="PHG4Detector::OverlapCheck">
<polygon fill="none" stroke="#000000" points="252,-141.5 252,-161.5 418,-161.5 418,-141.5 252,-141.5"/>
<text text-anchor="middle" x="335" y="-148.5" font-family="FreeSans" font-size="10.00" fill="#000000">PHG4Detector::OverlapCheck</text>
</a>
</g>
</g>
<!-- Node1&#45;&gt;Node13 -->
<g id="edge15" class="edge">
<title>Node1&#45;&gt;Node13</title>
<path fill="none" stroke="#191970" d="M130.1438,-219.3983C157.379,-204.7138 199.8806,-183.3983 239,-170.5 246.6284,-167.9848 254.7134,-165.7506 262.8262,-163.7793"/>
<polygon fill="#191970" stroke="#191970" points="263.7473,-167.1589 272.7068,-161.5041 262.1764,-160.3374 263.7473,-167.1589"/>
</g>
<!-- Node14 -->
<g id="node14" class="node">
<title>Node14</title>
<g id="a_node14"><a xlink:href="../../d7/d98/classPHG4Prototype3InnerHcalDetector.html#ae312cb37423a0495c396444331cc1c57" target="_top" xlink:title="PHG4Prototype3InnerHcalDetector\l::SuperDetector">
<polygon fill="none" stroke="#000000" points="239,-90.5 239,-122.5 431,-122.5 431,-90.5 239,-90.5"/>
<text text-anchor="start" x="247" y="-109.5" font-family="FreeSans" font-size="10.00" fill="#000000">PHG4Prototype3InnerHcalDetector</text>
<text text-anchor="middle" x="335" y="-97.5" font-family="FreeSans" font-size="10.00" fill="#000000">::SuperDetector</text>
</a>
</g>
</g>
<!-- Node1&#45;&gt;Node14 -->
<g id="edge16" class="edge">
<title>Node1&#45;&gt;Node14</title>
<path fill="none" stroke="#191970" d="M118.2494,-219.2736C142.7707,-196.3986 190.7846,-154.8597 239,-131.5 243.0322,-129.5464 247.2364,-127.7317 251.5358,-126.0479"/>
<polygon fill="#191970" stroke="#191970" points="252.877,-129.2843 261.0705,-122.5674 250.4766,-122.7087 252.877,-129.2843"/>
</g>
<!-- Node15 -->
<g id="node15" class="node">
<title>Node15</title>
<g id="a_node15"><a xlink:href="../../d5/d29/classPHG4DetectorSubsystem.html#a77a3c2f18604af4bc24e71703bdfb7de" target="_top" xlink:title="PHG4DetectorSubsystem\l::SuperDetector">
<polygon fill="none" stroke="#000000" points="263,-39.5 263,-71.5 407,-71.5 407,-39.5 263,-39.5"/>
<text text-anchor="start" x="271" y="-58.5" font-family="FreeSans" font-size="10.00" fill="#000000">PHG4DetectorSubsystem</text>
<text text-anchor="middle" x="335" y="-46.5" font-family="FreeSans" font-size="10.00" fill="#000000">::SuperDetector</text>
</a>
</g>
</g>
<!-- Node1&#45;&gt;Node15 -->
<g id="edge17" class="edge">
<title>Node1&#45;&gt;Node15</title>
<path fill="none" stroke="#191970" d="M111.3195,-219.0473C131.2184,-187.1802 179.5045,-116.9735 239,-80.5 243.4737,-77.7574 248.2424,-75.3135 253.1725,-73.1361"/>
<polygon fill="#191970" stroke="#191970" points="254.8382,-76.2391 262.8172,-69.2686 252.2329,-69.742 254.8382,-76.2391"/>
</g>
<!-- Node16 -->
<g id="node16" class="node">
<title>Node16</title>
<g id="a_node16"><a xlink:href="../../d3/de7/classPHG4Detector.html#a3524241bcf8984af140ba78a3e6925a6" target="_top" xlink:title="PHG4Detector::topNode">
<polygon fill="none" stroke="#000000" points="266.5,-.5 266.5,-20.5 403.5,-20.5 403.5,-.5 266.5,-.5"/>
<text text-anchor="middle" x="335" y="-7.5" font-family="FreeSans" font-size="10.00" fill="#000000">PHG4Detector::topNode</text>
</a>
</g>
</g>
<!-- Node1&#45;&gt;Node16 -->
<g id="edge18" class="edge">
<title>Node1&#45;&gt;Node16</title>
<path fill="none" stroke="#191970" d="M107.1857,-219.4844C122.0518,-180.103 166.0539,-78.2162 239,-29.5 244.3778,-25.9085 250.2786,-22.965 256.4281,-20.5561"/>
<polygon fill="#191970" stroke="#191970" points="257.9275,-23.7424 266.2567,-17.1946 255.6622,-17.1191 257.9275,-23.7424"/>
</g>
<!-- Node3 -->
<g id="node3" class="node">
<title>Node3</title>
<g id="a_node3"><a xlink:href="../../d6/d86/classPHPointerList.html#ac2176735e9d046a034f1686fd2c477eb" target="_top" xlink:title="PHPointerList::append">
<polygon fill="none" stroke="#000000" points="467.5,-499.5 467.5,-519.5 595.5,-519.5 595.5,-499.5 467.5,-499.5"/>
<text text-anchor="middle" x="531.5" y="-506.5" font-family="FreeSans" font-size="10.00" fill="#000000">PHPointerList::append</text>
</a>
</g>
</g>
<!-- Node2&#45;&gt;Node3 -->
<g id="edge2" class="edge">
<title>Node2&#45;&gt;Node3</title>
<path fill="none" stroke="#191970" d="M398.5266,-488.522C417.4326,-491.5046 438.3074,-494.7979 457.8038,-497.8736"/>
<polygon fill="#191970" stroke="#191970" points="457.4325,-501.3583 467.8558,-499.4594 458.5234,-494.4438 457.4325,-501.3583"/>
</g>
<!-- Node4 -->
<g id="node4" class="node">
<title>Node4</title>
<g id="a_node4"><a xlink:href="../../dc/d82/classPHNode.html#aca3576f926a4401eddc3d88bf0ce0de3" target="_top" xlink:title="PHNode::getName">
<polygon fill="none" stroke="#000000" points="477,-414.5 477,-434.5 586,-434.5 586,-414.5 477,-414.5"/>
<text text-anchor="middle" x="531.5" y="-421.5" font-family="FreeSans" font-size="10.00" fill="#000000">PHNode::getName</text>
</a>
</g>
</g>
<!-- Node2&#45;&gt;Node4 -->
<g id="edge3" class="edge">
<title>Node2&#45;&gt;Node4</title>
<path fill="none" stroke="#191970" d="M392.4135,-468.4983C405.194,-465.8947 418.6212,-462.8628 431,-459.5 453.0153,-453.5194 477.1739,-445.1655 496.2865,-438.1192"/>
<polygon fill="#191970" stroke="#191970" points="497.6393,-441.3501 505.7832,-434.573 495.1906,-434.7924 497.6393,-441.3501"/>
</g>
<!-- Node5 -->
<g id="node5" class="node">
<title>Node5</title>
<g id="a_node5"><a xlink:href="../../dc/d82/classPHNode.html#adda2bd6cef2d5067bbe3016a990b7198" target="_top" xlink:title="PHNode::setParent">
<polygon fill="none" stroke="#000000" points="476,-460.5 476,-480.5 587,-480.5 587,-460.5 476,-460.5"/>
<text text-anchor="middle" x="531.5" y="-467.5" font-family="FreeSans" font-size="10.00" fill="#000000">PHNode::setParent</text>
</a>
</g>
</g>
<!-- Node2&#45;&gt;Node5 -->
<g id="edge4" class="edge">
<title>Node2&#45;&gt;Node5</title>
<path fill="none" stroke="#191970" d="M416.0586,-475.1999C432.5359,-474.5291 449.679,-473.8311 465.5557,-473.1848"/>
<polygon fill="#191970" stroke="#191970" points="465.937,-476.6722 475.7863,-472.7682 465.6522,-469.678 465.937,-476.6722"/>
</g>
<!-- Node7&#45;&gt;Node4 -->
<g id="edge8" class="edge">
<title>Node7&#45;&gt;Node4</title>
<path fill="none" stroke="#191970" d="M371.4996,-380.5304C403.5221,-389.3305 450.2622,-402.1751 484.9641,-411.7115"/>
<polygon fill="#191970" stroke="#191970" points="484.293,-415.1568 494.863,-414.4318 486.1479,-408.407 484.293,-415.1568"/>
</g>
<!-- Node7&#45;&gt;Node7 -->
<g id="edge9" class="edge">
<title>Node7&#45;&gt;Node7</title>
<path fill="none" stroke="#191970" d="M304.3152,-380.7271C290.3186,-389.6067 300.5469,-399 335,-399 358.6865,-399 370.923,-394.5602 371.7095,-388.8999"/>
<polygon fill="#191970" stroke="#191970" points="374.4358,-386.6996 365.6848,-380.7271 368.8012,-390.8532 374.4358,-386.6996"/>
</g>
<!-- Node8 -->
<g id="node8" class="node">
<title>Node8</title>
<g id="a_node8"><a xlink:href="../../dc/d82/classPHNode.html#a4ab1f90aed955a652813bfe377087bda" target="_top" xlink:title="PHNode::getType">
<polygon fill="none" stroke="#000000" points="480,-360.5 480,-380.5 583,-380.5 583,-360.5 480,-360.5"/>
<text text-anchor="middle" x="531.5" y="-367.5" font-family="FreeSans" font-size="10.00" fill="#000000">PHNode::getType</text>
</a>
</g>
</g>
<!-- Node7&#45;&gt;Node8 -->
<g id="edge7" class="edge">
<title>Node7&#45;&gt;Node8</title>
<path fill="none" stroke="#191970" d="M405.6634,-370.5C426.6535,-370.5 449.4716,-370.5 469.8415,-370.5"/>
<polygon fill="#191970" stroke="#191970" points="469.9357,-374.0001 479.9356,-370.5 469.9356,-367.0001 469.9357,-374.0001"/>
</g>
<!-- Node10&#45;&gt;Node9 -->
<g id="edge12" class="edge">
<title>Node10&#45;&gt;Node9</title>
<path fill="none" stroke="#191970" d="M407.0536,-293.8337C423.2902,-295.4863 440.5564,-297.2437 456.8952,-298.9066"/>
<polygon fill="#191970" stroke="#191970" points="456.628,-302.3974 466.9311,-299.9281 457.3369,-295.4334 456.628,-302.3974"/>
</g>
</g>
</svg>
