<?xml version="1.0" encoding="UTF-8" standalone="no"?>
<!DOCTYPE svg PUBLIC "-//W3C//DTD SVG 1.1//EN"
 "http://www.w3.org/Graphics/SVG/1.1/DTD/svg11.dtd">
<!-- Generated by graphviz version 2.40.1 (20161225.0304)
 -->
<!-- Title: PHTruthTrackSeeding::Process Pages: 1 -->
<svg width="841pt" height="1553pt"
 viewBox="0.00 0.00 841.00 1553.00" xmlns="http://www.w3.org/2000/svg" xmlns:xlink="http://www.w3.org/1999/xlink">
<g id="graph0" class="graph" transform="scale(1 1) rotate(0) translate(4 1549)">
<title>PHTruthTrackSeeding::Process</title>
<!-- Node1 -->
<g id="node1" class="node">
<title>Node1</title>
<polygon fill="#bfbfbf" stroke="#000000" points="0,-750.5 0,-782.5 123,-782.5 123,-750.5 0,-750.5"/>
<text text-anchor="start" x="8" y="-769.5" font-family="FreeSans" font-size="10.00" fill="#000000">PHTruthTrackSeeding</text>
<text text-anchor="middle" x="61.5" y="-757.5" font-family="FreeSans" font-size="10.00" fill="#000000">::Process</text>
</g>
<!-- Node2 -->
<g id="node2" class="node">
<title>Node2</title>
<g id="a_node2"><a xlink:href="../../d7/d8b/classSvtxTrackMap.html#a8c16bb47fdace6d5516d1803ffe54706" target="_top" xlink:title="SvtxTrackMap::begin">
<polygon fill="none" stroke="#000000" points="182.5,-1524.5 182.5,-1544.5 303.5,-1544.5 303.5,-1524.5 182.5,-1524.5"/>
<text text-anchor="middle" x="243" y="-1531.5" font-family="FreeSans" font-size="10.00" fill="#000000">SvtxTrackMap::begin</text>
</a>
</g>
</g>
<!-- Node1&#45;&gt;Node2 -->
<g id="edge1" class="edge">
<title>Node1&#45;&gt;Node2</title>
<path fill="none" stroke="#191970" d="M62.495,-782.5161C69.0717,-886.1257 107.6124,-1459.0964 159,-1515.5 162.902,-1519.7828 167.5473,-1523.2045 172.6215,-1525.9274"/>
<polygon fill="#191970" stroke="#191970" points="171.5869,-1529.2955 182.1504,-1530.1094 174.4,-1522.8857 171.5869,-1529.2955"/>
</g>
<!-- Node3 -->
<g id="node3" class="node">
<title>Node3</title>
<g id="a_node3"><a xlink:href="../../d2/db8/classSvtxTrack.html#a6d8dace95bd6d93aa08d66c5e2c3ad85" target="_top" xlink:title="SvtxTrack::begin_cluster_keys">
<polygon fill="none" stroke="#000000" points="159,-1485.5 159,-1505.5 327,-1505.5 327,-1485.5 159,-1485.5"/>
<text text-anchor="middle" x="243" y="-1492.5" font-family="FreeSans" font-size="10.00" fill="#000000">SvtxTrack::begin_cluster_keys</text>
</a>
</g>
</g>
<!-- Node1&#45;&gt;Node3 -->
<g id="edge2" class="edge">
<title>Node1&#45;&gt;Node3</title>
<path fill="none" stroke="#191970" d="M62.6237,-782.6486C69.7766,-883.4147 110.2124,-1423.3266 159,-1476.5 159.9098,-1477.4915 160.8594,-1478.4368 161.8449,-1479.3379"/>
<polygon fill="#191970" stroke="#191970" points="159.9217,-1482.2691 170.039,-1485.4139 164.0911,-1476.6462 159.9217,-1482.2691"/>
</g>
<!-- Node4 -->
<g id="node4" class="node">
<title>Node4</title>
<g id="a_node4"><a xlink:href="../../d7/d8b/classSvtxTrackMap.html#a1c7ae993700819b7d0a8e3f3d74fa99c" target="_top" xlink:title="SvtxTrackMap::end">
<polygon fill="none" stroke="#000000" points="187,-1446.5 187,-1466.5 299,-1466.5 299,-1446.5 187,-1446.5"/>
<text text-anchor="middle" x="243" y="-1453.5" font-family="FreeSans" font-size="10.00" fill="#000000">SvtxTrackMap::end</text>
</a>
</g>
</g>
<!-- Node1&#45;&gt;Node4 -->
<g id="edge3" class="edge">
<title>Node1&#45;&gt;Node4</title>
<path fill="none" stroke="#191970" d="M62.7621,-782.7017C70.507,-880.3111 112.7946,-1387.5348 159,-1437.5 164.0947,-1443.0093 170.4203,-1447.0887 177.2983,-1450.0871"/>
<polygon fill="#191970" stroke="#191970" points="176.3614,-1453.469 186.956,-1453.5386 178.7172,-1446.8773 176.3614,-1453.469"/>
</g>
<!-- Node5 -->
<g id="node5" class="node">
<title>Node5</title>
<g id="a_node5"><a xlink:href="../../d2/db8/classSvtxTrack.html#ac0e8c2214fa9f988c00a561ed22aa085" target="_top" xlink:title="SvtxTrack::end_cluster_keys">
<polygon fill="none" stroke="#000000" points="164,-1407.5 164,-1427.5 322,-1427.5 322,-1407.5 164,-1407.5"/>
<text text-anchor="middle" x="243" y="-1414.5" font-family="FreeSans" font-size="10.00" fill="#000000">SvtxTrack::end_cluster_keys</text>
</a>
</g>
</g>
<!-- Node1&#45;&gt;Node5 -->
<g id="edge4" class="edge">
<title>Node1&#45;&gt;Node5</title>
<path fill="none" stroke="#191970" d="M61.6277,-782.7116C62.6697,-872.2313 72.1909,-1305.4489 159,-1398.5 159.9179,-1399.484 160.8752,-1400.4222 161.8678,-1401.3168"/>
<polygon fill="#191970" stroke="#191970" points="159.9706,-1404.2656 170.1059,-1407.352 164.1075,-1398.6188 159.9706,-1404.2656"/>
</g>
<!-- Node6 -->
<g id="node6" class="node">
<title>Node6</title>
<g id="a_node6"><a xlink:href="../../d0/d2c/classTrkrClusterContainer.html#a2b2eea90672ac17f6439c932d2a144ad" target="_top" xlink:title="TrkrClusterContainer\l::findCluster">
<polygon fill="none" stroke="#000000" points="182,-1356.5 182,-1388.5 304,-1388.5 304,-1356.5 182,-1356.5"/>
<text text-anchor="start" x="190" y="-1375.5" font-family="FreeSans" font-size="10.00" fill="#000000">TrkrClusterContainer</text>
<text text-anchor="middle" x="243" y="-1363.5" font-family="FreeSans" font-size="10.00" fill="#000000">::findCluster</text>
</a>
</g>
</g>
<!-- Node1&#45;&gt;Node6 -->
<g id="edge5" class="edge">
<title>Node1&#45;&gt;Node6</title>
<path fill="none" stroke="#191970" d="M61.9726,-782.6957C64.7691,-867.5336 81.7765,-1260.1415 159,-1347.5 162.938,-1351.9549 167.6311,-1355.6322 172.757,-1358.6656"/>
<polygon fill="#191970" stroke="#191970" points="171.2295,-1361.8151 181.7352,-1363.1863 174.3776,-1355.5629 171.2295,-1361.8151"/>
</g>
<!-- Node7 -->
<g id="node7" class="node">
<title>Node7</title>
<g id="a_node7"><a xlink:href="../../d4/d30/classPHG4HitContainer.html#a62c24ef9c00bd714f597939598a87041" target="_top" xlink:title="PHG4HitContainer::findHit">
<polygon fill="none" stroke="#000000" points="168.5,-1317.5 168.5,-1337.5 317.5,-1337.5 317.5,-1317.5 168.5,-1317.5"/>
<text text-anchor="middle" x="243" y="-1324.5" font-family="FreeSans" font-size="10.00" fill="#000000">PHG4HitContainer::findHit</text>
</a>
</g>
</g>
<!-- Node1&#45;&gt;Node7 -->
<g id="edge6" class="edge">
<title>Node1&#45;&gt;Node7</title>
<path fill="none" stroke="#191970" d="M62.0717,-782.5019C65.3039,-863.7695 83.9106,-1229.9955 159,-1308.5 160.0658,-1309.6143 161.182,-1310.6696 162.3429,-1311.6689"/>
<polygon fill="#191970" stroke="#191970" points="160.4011,-1314.5823 170.5913,-1317.4826 164.4339,-1308.8606 160.4011,-1314.5823"/>
</g>
<!-- Node8 -->
<g id="node8" class="node">
<title>Node8</title>
<g id="a_node8"><a xlink:href="../../db/de4/classSvtxTrack__v1.html#ace234d63ab40217fda3432d4df773045" target="_top" xlink:title="SvtxTrack_v1::get_id">
<polygon fill="none" stroke="#000000" points="183,-1278.5 183,-1298.5 303,-1298.5 303,-1278.5 183,-1278.5"/>
<text text-anchor="middle" x="243" y="-1285.5" font-family="FreeSans" font-size="10.00" fill="#000000">SvtxTrack_v1::get_id</text>
</a>
</g>
</g>
<!-- Node1&#45;&gt;Node8 -->
<g id="edge7" class="edge">
<title>Node1&#45;&gt;Node8</title>
<path fill="none" stroke="#191970" d="M62.3206,-782.6308C66.6144,-860.5687 89.0344,-1197.3322 159,-1269.5 163.2004,-1273.8326 168.1641,-1277.2713 173.5462,-1279.9903"/>
<polygon fill="#191970" stroke="#191970" points="172.3616,-1283.2886 182.9377,-1283.9175 175.0622,-1276.8305 172.3616,-1283.2886"/>
</g>
<!-- Node9 -->
<g id="node9" class="node">
<title>Node9</title>
<g id="a_node9"><a xlink:href="../../d2/db8/classSvtxTrack.html#a5f934a41fd25eaa343dd267112b4537d" target="_top" xlink:title="SvtxTrack::get_id">
<polygon fill="none" stroke="#000000" points="192,-1239.5 192,-1259.5 294,-1259.5 294,-1239.5 192,-1239.5"/>
<text text-anchor="middle" x="243" y="-1246.5" font-family="FreeSans" font-size="10.00" fill="#000000">SvtxTrack::get_id</text>
</a>
</g>
</g>
<!-- Node1&#45;&gt;Node9 -->
<g id="edge8" class="edge">
<title>Node1&#45;&gt;Node9</title>
<path fill="none" stroke="#191970" d="M62.6205,-782.8565C68.063,-857.4609 94.1673,-1164.6656 159,-1230.5 165.3266,-1236.9244 173.3338,-1241.3764 181.8788,-1244.4287"/>
<polygon fill="#191970" stroke="#191970" points="181.1128,-1247.8515 191.6939,-1247.3108 183.085,-1241.1351 181.1128,-1247.8515"/>
</g>
<!-- Node10 -->
<g id="node10" class="node">
<title>Node10</title>
<g id="a_node10"><a xlink:href="../../d2/db8/classSvtxTrack.html#af6f03ad537260f2ceef84cf876e22deb" target="_top" xlink:title="SvtxTrack::get_pt">
<polygon fill="none" stroke="#000000" points="191,-1200.5 191,-1220.5 295,-1220.5 295,-1200.5 191,-1200.5"/>
<text text-anchor="middle" x="243" y="-1207.5" font-family="FreeSans" font-size="10.00" fill="#000000">SvtxTrack::get_pt</text>
</a>
</g>
</g>
<!-- Node1&#45;&gt;Node10 -->
<g id="edge9" class="edge">
<title>Node1&#45;&gt;Node10</title>
<path fill="none" stroke="#191970" d="M62.9629,-782.895C69.6055,-853.6442 99.2238,-1131.9066 159,-1191.5 165.1646,-1197.6457 172.8697,-1201.9788 181.0957,-1205.0059"/>
<polygon fill="#191970" stroke="#191970" points="180.3452,-1208.4357 190.9307,-1207.9898 182.3776,-1201.7372 180.3452,-1208.4357"/>
</g>
<!-- Node11 -->
<g id="node11" class="node">
<title>Node11</title>
<g id="a_node11"><a xlink:href="../../de/dc9/classPHG4Particle.html#a44b98bfd72a04825791d1e4c4cb150a1" target="_top" xlink:title="PHG4Particle::get_px">
<polygon fill="none" stroke="#000000" points="182,-1161.5 182,-1181.5 304,-1181.5 304,-1161.5 182,-1161.5"/>
<text text-anchor="middle" x="243" y="-1168.5" font-family="FreeSans" font-size="10.00" fill="#000000">PHG4Particle::get_px</text>
</a>
</g>
</g>
<!-- Node1&#45;&gt;Node11 -->
<g id="edge10" class="edge">
<title>Node1&#45;&gt;Node11</title>
<path fill="none" stroke="#191970" d="M63.3493,-782.7297C71.2383,-849.1226 104.2002,-1099.0517 159,-1152.5 163.0139,-1156.4149 167.6542,-1159.5905 172.6514,-1162.1595"/>
<polygon fill="#191970" stroke="#191970" points="171.4035,-1165.4325 181.9735,-1166.157 174.1624,-1158.9991 171.4035,-1165.4325"/>
</g>
<!-- Node12 -->
<g id="node12" class="node">
<title>Node12</title>
<g id="a_node12"><a xlink:href="../../de/dc9/classPHG4Particle.html#a3df4379f9e46224a8cca7f86c11e99e5" target="_top" xlink:title="PHG4Particle::get_py">
<polygon fill="none" stroke="#000000" points="182,-1122.5 182,-1142.5 304,-1142.5 304,-1122.5 182,-1122.5"/>
<text text-anchor="middle" x="243" y="-1129.5" font-family="FreeSans" font-size="10.00" fill="#000000">PHG4Particle::get_py</text>
</a>
</g>
</g>
<!-- Node1&#45;&gt;Node12 -->
<g id="edge11" class="edge">
<title>Node1&#45;&gt;Node12</title>
<path fill="none" stroke="#191970" d="M63.8441,-782.7661C73.1212,-844.9084 109.2044,-1066.2036 159,-1113.5 162.8977,-1117.2021 167.3574,-1120.239 172.1444,-1122.7247"/>
<polygon fill="#191970" stroke="#191970" points="171.124,-1126.0967 181.6917,-1126.8552 173.9035,-1119.6722 171.124,-1126.0967"/>
</g>
<!-- Node13 -->
<g id="node13" class="node">
<title>Node13</title>
<g id="a_node13"><a xlink:href="../../de/dc9/classPHG4Particle.html#a533e9bda40b15f62802b187e6a743e74" target="_top" xlink:title="PHG4Particle::get_pz">
<polygon fill="none" stroke="#000000" points="182,-1083.5 182,-1103.5 304,-1103.5 304,-1083.5 182,-1083.5"/>
<text text-anchor="middle" x="243" y="-1090.5" font-family="FreeSans" font-size="10.00" fill="#000000">PHG4Particle::get_pz</text>
</a>
</g>
</g>
<!-- Node1&#45;&gt;Node13 -->
<g id="edge12" class="edge">
<title>Node1&#45;&gt;Node13</title>
<path fill="none" stroke="#191970" d="M64.4054,-782.5023C75.1142,-839.7588 114.0943,-1033.2218 159,-1074.5 163.0591,-1078.2312 167.6917,-1081.2817 172.6483,-1083.7702"/>
<polygon fill="#191970" stroke="#191970" points="171.2929,-1086.9971 181.8664,-1087.6682 174.0192,-1080.5498 171.2929,-1086.9971"/>
</g>
<!-- Node14 -->
<g id="node14" class="node">
<title>Node14</title>
<g id="a_node14"><a xlink:href="../../d3/d9e/classPHG4Hit.html#ac19cdd97dbd9b8154b8012ec0de01f76" target="_top" xlink:title="PHG4Hit::get_trkid">
<polygon fill="none" stroke="#000000" points="188,-1044.5 188,-1064.5 298,-1064.5 298,-1044.5 188,-1044.5"/>
<text text-anchor="middle" x="243" y="-1051.5" font-family="FreeSans" font-size="10.00" fill="#000000">PHG4Hit::get_trkid</text>
</a>
</g>
</g>
<!-- Node1&#45;&gt;Node14 -->
<g id="edge13" class="edge">
<title>Node1&#45;&gt;Node14</title>
<path fill="none" stroke="#191970" d="M62.2347,-782.7512C65.2751,-829.6894 80.7645,-966.4994 159,-1035.5 164.5507,-1040.3955 171.0954,-1044.1082 178.0422,-1046.9125"/>
<polygon fill="#191970" stroke="#191970" points="177.1144,-1050.2937 187.7088,-1050.1992 179.3678,-1043.6663 177.1144,-1050.2937"/>
</g>
<!-- Node15 -->
<g id="node15" class="node">
<title>Node15</title>
<g id="a_node15"><a xlink:href="../../d2/db8/classSvtxTrack.html#afdab8924d017edd067d32c16ac380840" target="_top" xlink:title="SvtxTrack::get_truth\l_track_id">
<polygon fill="none" stroke="#000000" points="184.5,-993.5 184.5,-1025.5 301.5,-1025.5 301.5,-993.5 184.5,-993.5"/>
<text text-anchor="start" x="192.5" y="-1012.5" font-family="FreeSans" font-size="10.00" fill="#000000">SvtxTrack::get_truth</text>
<text text-anchor="middle" x="243" y="-1000.5" font-family="FreeSans" font-size="10.00" fill="#000000">_track_id</text>
</a>
</g>
</g>
<!-- Node1&#45;&gt;Node15 -->
<g id="edge14" class="edge">
<title>Node1&#45;&gt;Node15</title>
<path fill="none" stroke="#191970" d="M64.0092,-782.6321C71.1307,-822.9012 95.2437,-928.6093 159,-984.5 163.8055,-988.7126 169.2951,-992.2159 175.1151,-995.1292"/>
<polygon fill="#191970" stroke="#191970" points="173.9183,-998.4261 184.4819,-999.2387 176.7307,-992.0159 173.9183,-998.4261"/>
</g>
<!-- Node16 -->
<g id="node16" class="node">
<title>Node16</title>
<g id="a_node16"><a xlink:href="../../d6/dfa/classTrkrCluster.html#ab18c56f7c1aa174203dcf8fbf0141279" target="_top" xlink:title="TrkrCluster::getClusKey">
<polygon fill="none" stroke="#000000" points="175.5,-954.5 175.5,-974.5 310.5,-974.5 310.5,-954.5 175.5,-954.5"/>
<text text-anchor="middle" x="243" y="-961.5" font-family="FreeSans" font-size="10.00" fill="#000000">TrkrCluster::getClusKey</text>
</a>
</g>
</g>
<!-- Node1&#45;&gt;Node16 -->
<g id="edge15" class="edge">
<title>Node1&#45;&gt;Node16</title>
<path fill="none" stroke="#191970" d="M65.4214,-782.5879C74.9281,-818.0021 102.6806,-902.9303 159,-945.5 161.216,-947.175 163.5527,-948.7069 165.9809,-950.1077"/>
<polygon fill="#191970" stroke="#191970" points="164.6064,-953.3325 175.1218,-954.6277 167.7092,-947.0577 164.6064,-953.3325"/>
</g>
<!-- Node17 -->
<g id="node17" class="node">
<title>Node17</title>
<g id="a_node17"><a xlink:href="../../d0/d2c/classTrkrClusterContainer.html#a1d8049a1a46c600e4baf190a58745029" target="_top" xlink:title="return all Clusters matching a given detid">
<polygon fill="none" stroke="#000000" points="182,-903.5 182,-935.5 304,-935.5 304,-903.5 182,-903.5"/>
<text text-anchor="start" x="190" y="-922.5" font-family="FreeSans" font-size="10.00" fill="#000000">TrkrClusterContainer</text>
<text text-anchor="middle" x="243" y="-910.5" font-family="FreeSans" font-size="10.00" fill="#000000">::getClusters</text>
</a>
</g>
</g>
<!-- Node1&#45;&gt;Node17 -->
<g id="edge16" class="edge">
<title>Node1&#45;&gt;Node17</title>
<path fill="none" stroke="#191970" d="M69.5641,-782.9127C83.807,-810.1954 116.0208,-864.8081 159,-894.5 163.1957,-897.3986 167.7326,-899.9667 172.4494,-902.2412"/>
<polygon fill="#191970" stroke="#191970" points="171.1332,-905.4854 181.6994,-906.263 173.9243,-899.0659 171.1332,-905.4854"/>
</g>
<!-- Node22 -->
<g id="node22" class="node">
<title>Node22</title>
<g id="a_node22"><a xlink:href="../../d7/d8d/classTrkrHitTruthAssoc.html#a5dfce5df411c830647e8659c02c1f5e2" target="_top" xlink:title="Get cell keys associated with desired hit.">
<polygon fill="none" stroke="#000000" points="187.5,-852.5 187.5,-884.5 298.5,-884.5 298.5,-852.5 187.5,-852.5"/>
<text text-anchor="start" x="195.5" y="-871.5" font-family="FreeSans" font-size="10.00" fill="#000000">TrkrHitTruthAssoc::</text>
<text text-anchor="middle" x="243" y="-859.5" font-family="FreeSans" font-size="10.00" fill="#000000">getG4Hits</text>
</a>
</g>
</g>
<!-- Node1&#45;&gt;Node22 -->
<g id="edge22" class="edge">
<title>Node1&#45;&gt;Node22</title>
<path fill="none" stroke="#191970" d="M77.7276,-782.5554C96.0408,-799.8543 127.4139,-827.1015 159,-843.5 164.8975,-846.5618 171.2274,-849.3065 177.6706,-851.7531"/>
<polygon fill="#191970" stroke="#191970" points="176.5597,-855.0728 187.1544,-855.1268 178.9058,-848.4776 176.5597,-855.0728"/>
</g>
<!-- Node23 -->
<g id="node23" class="node">
<title>Node23</title>
<g id="a_node23"><a xlink:href="../../d7/d4f/classTrkrClusterHitAssoc.html#ad08b0caf69a8f21fbd3d4024488c61b2" target="_top" xlink:title="Get all the hits associated with a cluster by key.">
<polygon fill="none" stroke="#000000" points="185.5,-801.5 185.5,-833.5 300.5,-833.5 300.5,-801.5 185.5,-801.5"/>
<text text-anchor="start" x="193.5" y="-820.5" font-family="FreeSans" font-size="10.00" fill="#000000">TrkrClusterHitAssoc</text>
<text text-anchor="middle" x="243" y="-808.5" font-family="FreeSans" font-size="10.00" fill="#000000">::getHits</text>
</a>
</g>
</g>
<!-- Node1&#45;&gt;Node23 -->
<g id="edge23" class="edge">
<title>Node1&#45;&gt;Node23</title>
<path fill="none" stroke="#191970" d="M118.9277,-782.6367C137.1462,-787.756 157.4453,-793.4598 176.2607,-798.7468"/>
<polygon fill="#191970" stroke="#191970" points="175.3719,-802.1325 185.9459,-801.4683 177.2655,-795.3935 175.3719,-802.1325"/>
</g>
<!-- Node24 -->
<g id="node24" class="node">
<title>Node24</title>
<g id="a_node24"><a xlink:href="../../d6/d3f/namespaceTrkrDefs.html#aae37fbdb8f0f6f9b7b1e4173f4fcd331" target="_top" xlink:title="Get the upper 32 bits from cluster keys.">
<polygon fill="none" stroke="#000000" points="165,-750.5 165,-782.5 321,-782.5 321,-750.5 165,-750.5"/>
<text text-anchor="start" x="173" y="-769.5" font-family="FreeSans" font-size="10.00" fill="#000000">TrkrDefs::getHitSetKeyFrom</text>
<text text-anchor="middle" x="243" y="-757.5" font-family="FreeSans" font-size="10.00" fill="#000000">ClusKey</text>
</a>
</g>
</g>
<!-- Node1&#45;&gt;Node24 -->
<g id="edge24" class="edge">
<title>Node1&#45;&gt;Node24</title>
<path fill="none" stroke="#191970" d="M123.2009,-766.5C133.3251,-766.5 143.9886,-766.5 154.609,-766.5"/>
<polygon fill="#191970" stroke="#191970" points="154.7592,-770.0001 164.7591,-766.5 154.7591,-763.0001 154.7592,-770.0001"/>
</g>
<!-- Node25 -->
<g id="node25" class="node">
<title>Node25</title>
<g id="a_node25"><a xlink:href="../../d6/d3f/namespaceTrkrDefs.html#ad4a7fd368bbf1d5d97ff4fd3e81a6100" target="_top" xlink:title="Get the layer number from either key type.">
<polygon fill="none" stroke="#000000" points="187.5,-711.5 187.5,-731.5 298.5,-731.5 298.5,-711.5 187.5,-711.5"/>
<text text-anchor="middle" x="243" y="-718.5" font-family="FreeSans" font-size="10.00" fill="#000000">TrkrDefs::getLayer</text>
</a>
</g>
</g>
<!-- Node1&#45;&gt;Node25 -->
<g id="edge25" class="edge">
<title>Node1&#45;&gt;Node25</title>
<path fill="none" stroke="#191970" d="M123.0926,-750.5354C134.9973,-747.4983 147.3797,-744.3729 159,-741.5 169.146,-738.9916 179.9959,-736.366 190.4137,-733.8733"/>
<polygon fill="#191970" stroke="#191970" points="191.317,-737.2561 200.2325,-731.5321 189.6934,-730.447 191.317,-737.2561"/>
</g>
<!-- Node26 -->
<g id="node26" class="node">
<title>Node26</title>
<g id="a_node26"><a xlink:href="../../da/d6c/classPHG4TruthInfoContainer.html#a175e3e0bbb61b850bf184368d920152f" target="_top" xlink:title="PHG4TruthInfoContainer\l::GetParticle">
<polygon fill="none" stroke="#000000" points="173.5,-660.5 173.5,-692.5 312.5,-692.5 312.5,-660.5 173.5,-660.5"/>
<text text-anchor="start" x="181.5" y="-679.5" font-family="FreeSans" font-size="10.00" fill="#000000">PHG4TruthInfoContainer</text>
<text text-anchor="middle" x="243" y="-667.5" font-family="FreeSans" font-size="10.00" fill="#000000">::GetParticle</text>
</a>
</g>
</g>
<!-- Node1&#45;&gt;Node26 -->
<g id="edge26" class="edge">
<title>Node1&#45;&gt;Node26</title>
<path fill="none" stroke="#191970" d="M82.1679,-750.4484C101.2411,-736.2556 130.795,-715.7963 159,-702.5 163.7122,-700.2786 168.6606,-698.1875 173.6987,-696.2313"/>
<polygon fill="#191970" stroke="#191970" points="175.2847,-699.3771 183.4592,-692.6371 172.8657,-692.8083 175.2847,-699.3771"/>
</g>
<!-- Node27 -->
<g id="node27" class="node">
<title>Node27</title>
<g id="a_node27"><a xlink:href="../../d6/d3f/namespaceTrkrDefs.html#a542bf66cb1037404f08212eeefdfde70" target="_top" xlink:title="Get the tracker ID from either key type.">
<polygon fill="none" stroke="#000000" points="188,-621.5 188,-641.5 298,-641.5 298,-621.5 188,-621.5"/>
<text text-anchor="middle" x="243" y="-628.5" font-family="FreeSans" font-size="10.00" fill="#000000">TrkrDefs::getTrkrId</text>
</a>
</g>
</g>
<!-- Node1&#45;&gt;Node27 -->
<g id="edge27" class="edge">
<title>Node1&#45;&gt;Node27</title>
<path fill="none" stroke="#191970" d="M70.5593,-750.3071C85.5446,-725.0846 117.957,-676.7007 159,-651.5 164.8366,-647.9163 171.2654,-644.9747 177.889,-642.5602"/>
<polygon fill="#191970" stroke="#191970" points="179.2519,-645.7979 187.6866,-639.3865 177.0947,-639.1385 179.2519,-645.7979"/>
</g>
<!-- Node28 -->
<g id="node28" class="node">
<title>Node28</title>
<g id="a_node28"><a xlink:href="../../d6/dfa/classTrkrCluster.html#a7be7cdba7b854678e0519288b8021b2a" target="_top" xlink:title="TrkrCluster::getX">
<polygon fill="none" stroke="#000000" points="192,-582.5 192,-602.5 294,-602.5 294,-582.5 192,-582.5"/>
<text text-anchor="middle" x="243" y="-589.5" font-family="FreeSans" font-size="10.00" fill="#000000">TrkrCluster::getX</text>
</a>
</g>
</g>
<!-- Node1&#45;&gt;Node28 -->
<g id="edge28" class="edge">
<title>Node1&#45;&gt;Node28</title>
<path fill="none" stroke="#191970" d="M67.095,-750.0539C78.8077,-718.218 109.0387,-648.1725 159,-612.5 165.9275,-607.5538 173.9144,-603.8178 182.1499,-600.9985"/>
<polygon fill="#191970" stroke="#191970" points="183.3027,-604.3071 191.8834,-598.0924 181.3,-597.5996 183.3027,-604.3071"/>
</g>
<!-- Node29 -->
<g id="node29" class="node">
<title>Node29</title>
<g id="a_node29"><a xlink:href="../../d6/dfa/classTrkrCluster.html#a526ac89c45b903df8890bd8b4d476e5c" target="_top" xlink:title="TrkrCluster::getY">
<polygon fill="none" stroke="#000000" points="192.5,-543.5 192.5,-563.5 293.5,-563.5 293.5,-543.5 192.5,-543.5"/>
<text text-anchor="middle" x="243" y="-550.5" font-family="FreeSans" font-size="10.00" fill="#000000">TrkrCluster::getY</text>
</a>
</g>
</g>
<!-- Node1&#45;&gt;Node29 -->
<g id="edge29" class="edge">
<title>Node1&#45;&gt;Node29</title>
<path fill="none" stroke="#191970" d="M64.8034,-750.3564C73.3175,-713.0307 99.6334,-620.3769 159,-573.5 165.9241,-568.0326 174.104,-564.022 182.5963,-561.0874"/>
<polygon fill="#191970" stroke="#191970" points="183.6797,-564.4168 192.2669,-558.211 181.684,-557.7073 183.6797,-564.4168"/>
</g>
<!-- Node30 -->
<g id="node30" class="node">
<title>Node30</title>
<g id="a_node30"><a xlink:href="../../d7/d8b/classSvtxTrackMap.html#a474aa5fff57dec96570d8649cee813ee" target="_top" xlink:title="SvtxTrackMap::identify">
<polygon fill="none" stroke="#000000" points="177.5,-504.5 177.5,-524.5 308.5,-524.5 308.5,-504.5 177.5,-504.5"/>
<text text-anchor="middle" x="243" y="-511.5" font-family="FreeSans" font-size="10.00" fill="#000000">SvtxTrackMap::identify</text>
</a>
</g>
</g>
<!-- Node1&#45;&gt;Node30 -->
<g id="edge30" class="edge">
<title>Node1&#45;&gt;Node30</title>
<path fill="none" stroke="#191970" d="M63.3083,-750.3774C68.9499,-708.021 90.1907,-592.8519 159,-534.5 161.8548,-532.0791 164.9517,-529.9402 168.2165,-528.0512"/>
<polygon fill="#191970" stroke="#191970" points="169.7843,-531.1806 177.1994,-523.6131 166.6836,-524.9048 169.7843,-531.1806"/>
</g>
<!-- Node31 -->
<g id="node31" class="node">
<title>Node31</title>
<g id="a_node31"><a xlink:href="../../d6/dfa/classTrkrCluster.html#a0c29d4545f6b6823fb8e3d4703b3962f" target="_top" xlink:title="TrkrCluster::identify">
<polygon fill="none" stroke="#000000" points="185,-465.5 185,-485.5 301,-485.5 301,-465.5 185,-465.5"/>
<text text-anchor="middle" x="243" y="-472.5" font-family="FreeSans" font-size="10.00" fill="#000000">TrkrCluster::identify</text>
</a>
</g>
</g>
<!-- Node1&#45;&gt;Node31 -->
<g id="edge31" class="edge">
<title>Node1&#45;&gt;Node31</title>
<path fill="none" stroke="#191970" d="M62.231,-750.1742C65.2615,-703.0122 80.7265,-565.4906 159,-495.5 163.7668,-491.2376 169.2773,-487.8404 175.1513,-485.1383"/>
<polygon fill="#191970" stroke="#191970" points="176.5834,-488.3366 184.6263,-481.4401 174.0381,-481.8157 176.5834,-488.3366"/>
</g>
<!-- Node32 -->
<g id="node32" class="node">
<title>Node32</title>
<g id="a_node32"><a xlink:href="../../de/dc9/classPHG4Particle.html#a3dd58b08ff18a16d8d290fd5bcb1de7b" target="_top" xlink:title="PHG4Particle::identify">
<polygon fill="none" stroke="#000000" points="180,-426.5 180,-446.5 306,-446.5 306,-426.5 180,-426.5"/>
<text text-anchor="middle" x="243" y="-433.5" font-family="FreeSans" font-size="10.00" fill="#000000">PHG4Particle::identify</text>
</a>
</g>
</g>
<!-- Node1&#45;&gt;Node32 -->
<g id="edge32" class="edge">
<title>Node1&#45;&gt;Node32</title>
<path fill="none" stroke="#191970" d="M64.406,-750.4122C75.1169,-692.8473 114.1033,-498.318 159,-456.5 162.4246,-453.3102 166.2631,-450.601 170.3637,-448.3026"/>
<polygon fill="#191970" stroke="#191970" points="172.1483,-451.3308 179.7004,-443.9 169.1627,-444.9994 172.1483,-451.3308"/>
</g>
<!-- Node33 -->
<g id="node33" class="node">
<title>Node33</title>
<g id="a_node33"><a xlink:href="../../d7/d8b/classSvtxTrackMap.html#a37842b6cc664f1629956aefb7efcd853" target="_top" xlink:title="SvtxTrackMap::insert">
<polygon fill="none" stroke="#000000" points="182,-387.5 182,-407.5 304,-407.5 304,-387.5 182,-387.5"/>
<text text-anchor="middle" x="243" y="-394.5" font-family="FreeSans" font-size="10.00" fill="#000000">SvtxTrackMap::insert</text>
</a>
</g>
</g>
<!-- Node1&#45;&gt;Node33 -->
<g id="edge33" class="edge">
<title>Node1&#45;&gt;Node33</title>
<path fill="none" stroke="#191970" d="M63.8465,-750.1584C73.1323,-687.725 109.2434,-465.3682 159,-417.5 162.9837,-413.6675 167.5626,-410.5241 172.4826,-407.9508"/>
<polygon fill="#191970" stroke="#191970" points="173.9134,-411.1452 181.6521,-403.909 171.0899,-404.7398 173.9134,-411.1452"/>
</g>
<!-- Node34 -->
<g id="node34" class="node">
<title>Node34</title>
<g id="a_node34"><a xlink:href="../../db/de4/classSvtxTrack__v1.html#aa43bc84d6cd92df5f1cd25386ba436c2" target="_top" xlink:title="SvtxTrack_v1::insert\l_cluster_key">
<polygon fill="none" stroke="#000000" points="184,-336.5 184,-368.5 302,-368.5 302,-336.5 184,-336.5"/>
<text text-anchor="start" x="192" y="-355.5" font-family="FreeSans" font-size="10.00" fill="#000000">SvtxTrack_v1::insert</text>
<text text-anchor="middle" x="243" y="-343.5" font-family="FreeSans" font-size="10.00" fill="#000000">_cluster_key</text>
</a>
</g>
</g>
<!-- Node1&#45;&gt;Node34 -->
<g id="edge34" class="edge">
<title>Node1&#45;&gt;Node34</title>
<path fill="none" stroke="#191970" d="M63.4525,-750.3015C71.7492,-684.0193 106.0957,-434.34 159,-378.5 163.4787,-373.7728 168.797,-369.8991 174.5508,-366.7257"/>
<polygon fill="#191970" stroke="#191970" points="176.3585,-369.7421 183.8929,-362.2933 173.3579,-363.4178 176.3585,-369.7421"/>
</g>
<!-- Node35 -->
<g id="node35" class="node">
<title>Node35</title>
<g id="a_node35"><a xlink:href="../../db/de4/classSvtxTrack__v1.html#a8ea08d5653e4cca4f0652bc9180c92c0" target="_top" xlink:title="SvtxTrack_v1::set_id">
<polygon fill="none" stroke="#000000" points="184,-297.5 184,-317.5 302,-317.5 302,-297.5 184,-297.5"/>
<text text-anchor="middle" x="243" y="-304.5" font-family="FreeSans" font-size="10.00" fill="#000000">SvtxTrack_v1::set_id</text>
</a>
</g>
</g>
<!-- Node1&#45;&gt;Node35 -->
<g id="edge35" class="edge">
<title>Node1&#45;&gt;Node35</title>
<path fill="none" stroke="#191970" d="M62.8551,-750.0757C69.1399,-677.8931 97.7783,-389.6591 159,-327.5 163.4872,-322.9441 168.8112,-319.3512 174.5686,-316.5268"/>
<polygon fill="#191970" stroke="#191970" points="175.991,-319.7265 183.9146,-312.6932 173.3344,-313.2501 175.991,-319.7265"/>
</g>
<!-- Node36 -->
<g id="node36" class="node">
<title>Node36</title>
<g id="a_node36"><a xlink:href="../../db/de4/classSvtxTrack__v1.html#a5b5b4d68760b1c0088753e409e7c7f3b" target="_top" xlink:title="SvtxTrack_v1::set_px">
<polygon fill="none" stroke="#000000" points="182,-258.5 182,-278.5 304,-278.5 304,-258.5 182,-258.5"/>
<text text-anchor="middle" x="243" y="-265.5" font-family="FreeSans" font-size="10.00" fill="#000000">SvtxTrack_v1::set_px</text>
</a>
</g>
</g>
<!-- Node1&#45;&gt;Node36 -->
<g id="edge36" class="edge">
<title>Node1&#45;&gt;Node36</title>
<path fill="none" stroke="#191970" d="M62.5107,-750.4335C67.5782,-675.0296 92.6567,-357.0373 159,-288.5 162.9099,-284.4608 167.4768,-281.1758 172.4243,-278.5107"/>
<polygon fill="#191970" stroke="#191970" points="173.9923,-281.6433 181.6811,-274.3541 171.1248,-275.2576 173.9923,-281.6433"/>
</g>
<!-- Node37 -->
<g id="node37" class="node">
<title>Node37</title>
<g id="a_node37"><a xlink:href="../../db/de4/classSvtxTrack__v1.html#ac6aaf605a01cb8c2a1057d548b49e317" target="_top" xlink:title="SvtxTrack_v1::set_py">
<polygon fill="none" stroke="#000000" points="182,-219.5 182,-239.5 304,-239.5 304,-219.5 182,-219.5"/>
<text text-anchor="middle" x="243" y="-226.5" font-family="FreeSans" font-size="10.00" fill="#000000">SvtxTrack_v1::set_py</text>
</a>
</g>
</g>
<!-- Node1&#45;&gt;Node37 -->
<g id="edge37" class="edge">
<title>Node1&#45;&gt;Node37</title>
<path fill="none" stroke="#191970" d="M62.2417,-750.4685C66.2223,-671.4646 87.6076,-324.3551 159,-249.5 162.8799,-245.4319 167.4255,-242.1265 172.3586,-239.4476"/>
<polygon fill="#191970" stroke="#191970" points="173.9253,-242.5805 181.5966,-235.2729 171.0425,-236.2017 173.9253,-242.5805"/>
</g>
<!-- Node38 -->
<g id="node38" class="node">
<title>Node38</title>
<g id="a_node38"><a xlink:href="../../db/de4/classSvtxTrack__v1.html#a783d521d9f19a2f5922b532251bb949d" target="_top" xlink:title="SvtxTrack_v1::set_pz">
<polygon fill="none" stroke="#000000" points="182.5,-180.5 182.5,-200.5 303.5,-200.5 303.5,-180.5 182.5,-180.5"/>
<text text-anchor="middle" x="243" y="-187.5" font-family="FreeSans" font-size="10.00" fill="#000000">SvtxTrack_v1::set_pz</text>
</a>
</g>
</g>
<!-- Node1&#45;&gt;Node38 -->
<g id="edge38" class="edge">
<title>Node1&#45;&gt;Node38</title>
<path fill="none" stroke="#191970" d="M62.0148,-750.3789C64.9853,-667.6649 82.5806,-291.6599 159,-210.5 163.0818,-206.165 167.919,-202.6938 173.179,-199.9226"/>
<polygon fill="#191970" stroke="#191970" points="174.6195,-203.1127 182.3716,-195.8908 171.8079,-196.7021 174.6195,-203.1127"/>
</g>
<!-- Node39 -->
<g id="node39" class="node">
<title>Node39</title>
<g id="a_node39"><a xlink:href="../../d9/da8/classSvtxTrack__FastSim.html#ac44885351ede1460e50392fc5165b545" target="_top" xlink:title="SvtxTrack_FastSim::\lset_truth_track_id">
<polygon fill="none" stroke="#000000" points="185.5,-129.5 185.5,-161.5 300.5,-161.5 300.5,-129.5 185.5,-129.5"/>
<text text-anchor="start" x="193.5" y="-148.5" font-family="FreeSans" font-size="10.00" fill="#000000">SvtxTrack_FastSim::</text>
<text text-anchor="middle" x="243" y="-136.5" font-family="FreeSans" font-size="10.00" fill="#000000">set_truth_track_id</text>
</a>
</g>
</g>
<!-- Node1&#45;&gt;Node39 -->
<g id="edge39" class="edge">
<title>Node1&#45;&gt;Node39</title>
<path fill="none" stroke="#191970" d="M61.9145,-750.4992C64.4474,-664.9094 80.4555,-261.6841 159,-171.5 163.6481,-166.1631 169.3674,-161.9065 175.6175,-158.514"/>
<polygon fill="#191970" stroke="#191970" points="177.4818,-161.5082 185.0916,-154.1365 174.5457,-155.1537 177.4818,-161.5082"/>
</g>
<!-- Node40 -->
<g id="node40" class="node">
<title>Node40</title>
<g id="a_node40"><a xlink:href="../../d2/db7/classAssocInfoContainer.html#a9db4403e323e841ba005ad2b6b9815c4" target="_top" xlink:title="AssocInfoContainer\l::SetClusterTrackAssoc">
<polygon fill="none" stroke="#000000" points="177.5,-78.5 177.5,-110.5 308.5,-110.5 308.5,-78.5 177.5,-78.5"/>
<text text-anchor="start" x="185.5" y="-97.5" font-family="FreeSans" font-size="10.00" fill="#000000">AssocInfoContainer</text>
<text text-anchor="middle" x="243" y="-85.5" font-family="FreeSans" font-size="10.00" fill="#000000">::SetClusterTrackAssoc</text>
</a>
</g>
</g>
<!-- Node1&#45;&gt;Node40 -->
<g id="edge40" class="edge">
<title>Node1&#45;&gt;Node40</title>
<path fill="none" stroke="#191970" d="M61.6901,-750.3389C63.0723,-660.1109 74.1411,-219.185 159,-120.5 161.8554,-117.1794 165.1256,-114.2766 168.6819,-111.7395"/>
<polygon fill="#191970" stroke="#191970" points="170.6823,-114.6204 177.4384,-106.4591 167.0675,-108.6259 170.6823,-114.6204"/>
</g>
<!-- Node41 -->
<g id="node41" class="node">
<title>Node41</title>
<g id="a_node41"><a xlink:href="../../d7/d8b/classSvtxTrackMap.html#a508e23a620af3b20bfc0be05aa5b4ada" target="_top" xlink:title="SvtxTrackMap::size">
<polygon fill="none" stroke="#000000" points="187,-39.5 187,-59.5 299,-59.5 299,-39.5 187,-39.5"/>
<text text-anchor="middle" x="243" y="-46.5" font-family="FreeSans" font-size="10.00" fill="#000000">SvtxTrackMap::size</text>
</a>
</g>
</g>
<!-- Node1&#45;&gt;Node41 -->
<g id="edge41" class="edge">
<title>Node1&#45;&gt;Node41</title>
<path fill="none" stroke="#191970" d="M62.6767,-750.3319C70.0732,-650.6274 111.3702,-121.8714 159,-69.5 164.0621,-63.934 170.3678,-59.7817 177.2349,-56.7027"/>
<polygon fill="#191970" stroke="#191970" points="178.7163,-59.8867 186.8832,-53.1375 176.2899,-53.3207 178.7163,-59.8867"/>
</g>
<!-- Node42 -->
<g id="node42" class="node">
<title>Node42</title>
<g id="a_node42"><a xlink:href="../../d5/dec/classFun4AllBase.html#a8a5c77a92bdac6bc043476e132379a40" target="_top" xlink:title="Gets the verbosity of this module.">
<polygon fill="none" stroke="#000000" points="177,-.5 177,-20.5 309,-20.5 309,-.5 177,-.5"/>
<text text-anchor="middle" x="243" y="-7.5" font-family="FreeSans" font-size="10.00" fill="#000000">Fun4AllBase::Verbosity</text>
</a>
</g>
</g>
<!-- Node1&#45;&gt;Node42 -->
<g id="edge42" class="edge">
<title>Node1&#45;&gt;Node42</title>
<path fill="none" stroke="#191970" d="M62.5448,-750.4384C69.3613,-647.7865 108.7943,-86.1089 159,-30.5 161.6151,-27.6035 164.5668,-25.0893 167.7598,-22.9095"/>
<polygon fill="#191970" stroke="#191970" points="169.7012,-25.8336 176.7096,-17.8879 166.2759,-19.7288 169.7012,-25.8336"/>
</g>
<!-- Node18 -->
<g id="node18" class="node">
<title>Node18</title>
<g id="a_node18"><a xlink:href="../../d6/d3f/namespaceTrkrDefs.html#a36fd0eb8c5bb3f21475acfec8965cf3e" target="_top" xlink:title="Get a valid low / hi range for cluskey given tracker id &amp; layer.">
<polygon fill="none" stroke="#000000" points="363,-928.5 363,-948.5 496,-948.5 496,-928.5 363,-928.5"/>
<text text-anchor="middle" x="429.5" y="-935.5" font-family="FreeSans" font-size="10.00" fill="#000000">TrkrDefs::getClusKeyLo</text>
</a>
</g>
</g>
<!-- Node17&#45;&gt;Node18 -->
<g id="edge17" class="edge">
<title>Node17&#45;&gt;Node18</title>
<path fill="none" stroke="#191970" d="M304.0671,-925.7213C319.6385,-927.3077 336.5746,-929.0331 352.8177,-930.6879"/>
<polygon fill="#191970" stroke="#191970" points="352.5202,-934.1756 362.8235,-931.7072 353.2297,-927.2116 352.5202,-934.1756"/>
</g>
<!-- Node21 -->
<g id="node21" class="node">
<title>Node21</title>
<g id="a_node21"><a xlink:href="../../d6/d3f/namespaceTrkrDefs.html#a53af1843abe50e467a06d2307f7fe0eb" target="_top" xlink:title="TrkrDefs::getClusKeyHi">
<polygon fill="none" stroke="#000000" points="363.5,-889.5 363.5,-909.5 495.5,-909.5 495.5,-889.5 363.5,-889.5"/>
<text text-anchor="middle" x="429.5" y="-896.5" font-family="FreeSans" font-size="10.00" fill="#000000">TrkrDefs::getClusKeyHi</text>
</a>
</g>
</g>
<!-- Node17&#45;&gt;Node21 -->
<g id="edge20" class="edge">
<title>Node17&#45;&gt;Node21</title>
<path fill="none" stroke="#191970" d="M304.0671,-912.9513C319.8144,-911.2625 336.9575,-909.4241 353.3681,-907.6643"/>
<polygon fill="#191970" stroke="#191970" points="353.9025,-911.1271 363.4723,-906.5807 353.1561,-904.167 353.9025,-911.1271"/>
</g>
<!-- Node19 -->
<g id="node19" class="node">
<title>Node19</title>
<g id="a_node19"><a xlink:href="../../d6/d9e/namespaceInttDefs.html#af41991588b294d4a9a89cfe7cf00439e" target="_top" xlink:title="Generate a hitsetkey for the intt.">
<polygon fill="none" stroke="#000000" points="532,-908.5 532,-928.5 663,-928.5 663,-908.5 532,-908.5"/>
<text text-anchor="middle" x="597.5" y="-915.5" font-family="FreeSans" font-size="10.00" fill="#000000">InttDefs::genHitSetKey</text>
</a>
</g>
</g>
<!-- Node18&#45;&gt;Node19 -->
<g id="edge18" class="edge">
<title>Node18&#45;&gt;Node19</title>
<path fill="none" stroke="#191970" d="M496.3808,-930.538C504.7991,-929.5358 513.457,-928.5051 521.9965,-927.4885"/>
<polygon fill="#191970" stroke="#191970" points="522.4293,-930.9618 531.9454,-926.3041 521.6017,-924.0109 522.4293,-930.9618"/>
</g>
<!-- Node20 -->
<g id="node20" class="node">
<title>Node20</title>
<g id="a_node20"><a xlink:href="../../d6/d3f/namespaceTrkrDefs.html#a418e306477093b8d17d587be70b908a3" target="_top" xlink:title="generate the common upper 16 bits for hitsetkey">
<polygon fill="none" stroke="#000000" points="699,-908.5 699,-928.5 833,-928.5 833,-908.5 699,-908.5"/>
<text text-anchor="middle" x="766" y="-915.5" font-family="FreeSans" font-size="10.00" fill="#000000">TrkrDefs::genHitSetKey</text>
</a>
</g>
</g>
<!-- Node19&#45;&gt;Node20 -->
<g id="edge19" class="edge">
<title>Node19&#45;&gt;Node20</title>
<path fill="none" stroke="#191970" d="M663.129,-918.5C671.5639,-918.5 680.261,-918.5 688.8587,-918.5"/>
<polygon fill="#191970" stroke="#191970" points="688.8843,-922.0001 698.8842,-918.5 688.8842,-915.0001 688.8843,-922.0001"/>
</g>
<!-- Node21&#45;&gt;Node19 -->
<g id="edge21" class="edge">
<title>Node21&#45;&gt;Node19</title>
<path fill="none" stroke="#191970" d="M495.898,-907.0093C504.4019,-907.971 513.1577,-908.9613 521.7954,-909.9382"/>
<polygon fill="#191970" stroke="#191970" points="521.5289,-913.4303 531.8589,-911.0763 522.3156,-906.4746 521.5289,-913.4303"/>
</g>
</g>
</svg>
