<?xml version="1.0" encoding="UTF-8" standalone="no"?>
<!DOCTYPE svg PUBLIC "-//W3C//DTD SVG 1.1//EN"
 "http://www.w3.org/Graphics/SVG/1.1/DTD/svg11.dtd">
<!-- Generated by graphviz version 2.40.1 (20161225.0304)
 -->
<!-- Title: makeUnstructPacket Pages: 1 -->
<svg width="725pt" height="68pt"
 viewBox="0.00 0.00 725.00 68.00" xmlns="http://www.w3.org/2000/svg" xmlns:xlink="http://www.w3.org/1999/xlink">
<g id="graph0" class="graph" transform="scale(1 1) rotate(0) translate(4 64)">
<title>makeUnstructPacket</title>
<!-- Node1 -->
<g id="node1" class="node">
<title>Node1</title>
<polygon fill="#bfbfbf" stroke="#000000" points="0,-19.5 0,-39.5 120,-39.5 120,-19.5 0,-19.5"/>
<text text-anchor="middle" x="60" y="-26.5" font-family="FreeSans" font-size="10.00" fill="#000000">makeUnstructPacket</text>
</g>
<!-- Node2 -->
<g id="node2" class="node">
<title>Node2</title>
<g id="a_node2"><a xlink:href="../../da/d59/classoEvent.html#a5e0a819b25ded38741cc78c0b84c47e1" target="_top" xlink:title="oEvent::addUnstructPacketData">
<polygon fill="none" stroke="#000000" points="156,-39.5 156,-59.5 332,-59.5 332,-39.5 156,-39.5"/>
<text text-anchor="middle" x="244" y="-46.5" font-family="FreeSans" font-size="10.00" fill="#000000">oEvent::addUnstructPacketData</text>
</a>
</g>
</g>
<!-- Node1&#45;&gt;Node2 -->
<g id="edge1" class="edge">
<title>Node1&#45;&gt;Node2</title>
<path fill="none" stroke="#191970" d="M130.3218,-37.1437C138.7001,-38.0544 147.3328,-38.9927 155.9198,-39.9261"/>
<polygon fill="#191970" stroke="#191970" points="130.5682,-33.6499 120.2485,-36.0487 129.8117,-40.6089 130.5682,-33.6499"/>
</g>
<!-- Node5 -->
<g id="node5" class="node">
<title>Node5</title>
<g id="a_node5"><a xlink:href="../../df/d06/fakeFrame_8C.html#a747f31be4098f000504011767116e41c" target="_top" xlink:title="fakeFrame">
<polygon fill="none" stroke="#000000" points="209.5,-.5 209.5,-20.5 278.5,-20.5 278.5,-.5 209.5,-.5"/>
<text text-anchor="middle" x="244" y="-7.5" font-family="FreeSans" font-size="10.00" fill="#000000">fakeFrame</text>
</a>
</g>
</g>
<!-- Node1&#45;&gt;Node5 -->
<g id="edge4" class="edge">
<title>Node1&#45;&gt;Node5</title>
<path fill="none" stroke="#191970" d="M130.4638,-22.2238C157.5084,-19.4312 187.1837,-16.3669 209.4113,-14.0717"/>
<polygon fill="#191970" stroke="#191970" points="129.8361,-18.77 120.2485,-23.2787 130.5551,-25.7329 129.8361,-18.77"/>
</g>
<!-- Node3 -->
<g id="node3" class="node">
<title>Node3</title>
<g id="a_node3"><a xlink:href="../../de/dc8/classoBuffer.html#ac574c2c3e93c114ac6934e45fa7f9b7f" target="_top" xlink:title="oBuffer::addUnstructPacketData">
<polygon fill="none" stroke="#000000" points="368,-39.5 368,-59.5 546,-59.5 546,-39.5 368,-39.5"/>
<text text-anchor="middle" x="457" y="-46.5" font-family="FreeSans" font-size="10.00" fill="#000000">oBuffer::addUnstructPacketData</text>
</a>
</g>
</g>
<!-- Node2&#45;&gt;Node3 -->
<g id="edge2" class="edge">
<title>Node2&#45;&gt;Node3</title>
<path fill="none" stroke="#191970" d="M342.179,-49.5C350.7425,-49.5 359.3781,-49.5 367.8626,-49.5"/>
<polygon fill="#191970" stroke="#191970" points="342.1728,-46.0001 332.1728,-49.5 342.1728,-53.0001 342.1728,-46.0001"/>
</g>
<!-- Node4 -->
<g id="node4" class="node">
<title>Node4</title>
<g id="a_node4"><a xlink:href="../../df/d36/classPHRawOManager.html#aa67d8808f730acc0b88554b5ce09e3bc" target="_top" xlink:title="PHRawOManager::write">
<polygon fill="none" stroke="#000000" points="582,-39.5 582,-59.5 717,-59.5 717,-39.5 582,-39.5"/>
<text text-anchor="middle" x="649.5" y="-46.5" font-family="FreeSans" font-size="10.00" fill="#000000">PHRawOManager::write</text>
</a>
</g>
</g>
<!-- Node3&#45;&gt;Node4 -->
<g id="edge3" class="edge">
<title>Node3&#45;&gt;Node4</title>
<path fill="none" stroke="#191970" d="M556.3479,-49.5C564.9885,-49.5 573.5958,-49.5 581.8908,-49.5"/>
<polygon fill="#191970" stroke="#191970" points="556.2061,-46.0001 546.206,-49.5 556.206,-53.0001 556.2061,-46.0001"/>
</g>
</g>
</svg>
