<?xml version="1.0" encoding="UTF-8" standalone="no"?>
<!DOCTYPE svg PUBLIC "-//W3C//DTD SVG 1.1//EN"
 "http://www.w3.org/Graphics/SVG/1.1/DTD/svg11.dtd">
<!-- Generated by graphviz version 2.40.1 (20161225.0304)
 -->
<!-- Title: BaseTruthEval::get_errors Pages: 1 -->
<svg width="434pt" height="41pt"
 viewBox="0.00 0.00 434.00 41.00" xmlns="http://www.w3.org/2000/svg" xmlns:xlink="http://www.w3.org/1999/xlink">
<g id="graph0" class="graph" transform="scale(1 1) rotate(0) translate(4 37)">
<title>BaseTruthEval::get_errors</title>
<!-- Node1 -->
<g id="node1" class="node">
<title>Node1</title>
<polygon fill="#bfbfbf" stroke="#000000" points="0,-.5 0,-32.5 112,-32.5 112,-.5 0,-.5"/>
<text text-anchor="start" x="8" y="-19.5" font-family="FreeSans" font-size="10.00" fill="#000000">BaseTruthEval::get</text>
<text text-anchor="middle" x="56" y="-7.5" font-family="FreeSans" font-size="10.00" fill="#000000">_errors</text>
</g>
<!-- Node2 -->
<g id="node2" class="node">
<title>Node2</title>
<g id="a_node2"><a xlink:href="../../d4/de4/classSvtxTruthEval.html#a777435ce40b4d5f6725309ed2130a90a" target="_top" xlink:title="SvtxTruthEval::get\l_errors">
<polygon fill="none" stroke="#000000" points="148,-.5 148,-32.5 258,-32.5 258,-.5 148,-.5"/>
<text text-anchor="start" x="156" y="-19.5" font-family="FreeSans" font-size="10.00" fill="#000000">SvtxTruthEval::get</text>
<text text-anchor="middle" x="203" y="-7.5" font-family="FreeSans" font-size="10.00" fill="#000000">_errors</text>
</a>
</g>
</g>
<!-- Node1&#45;&gt;Node2 -->
<g id="edge1" class="edge">
<title>Node1&#45;&gt;Node2</title>
<path fill="none" stroke="#191970" d="M122.646,-16.5C131.1094,-16.5 139.6952,-16.5 147.949,-16.5"/>
<polygon fill="#191970" stroke="#191970" points="122.4137,-13.0001 112.4136,-16.5 122.4136,-20.0001 122.4137,-13.0001"/>
</g>
<!-- Node3 -->
<g id="node3" class="node">
<title>Node3</title>
<g id="a_node3"><a xlink:href="../../d9/d62/classSvtxHitEval.html#aa0d6fc0393a9052d19bea168ccfa00f9" target="_top" xlink:title="SvtxHitEval::get_errors">
<polygon fill="none" stroke="#000000" points="294,-6.5 294,-26.5 426,-26.5 426,-6.5 294,-6.5"/>
<text text-anchor="middle" x="360" y="-13.5" font-family="FreeSans" font-size="10.00" fill="#000000">SvtxHitEval::get_errors</text>
</a>
</g>
</g>
<!-- Node2&#45;&gt;Node3 -->
<g id="edge2" class="edge">
<title>Node2&#45;&gt;Node3</title>
<path fill="none" stroke="#191970" d="M268.4599,-16.5C276.8514,-16.5 285.4474,-16.5 293.8498,-16.5"/>
<polygon fill="#191970" stroke="#191970" points="268.3524,-13.0001 258.3523,-16.5 268.3523,-20.0001 268.3524,-13.0001"/>
</g>
</g>
</svg>
