<?xml version="1.0" encoding="UTF-8" standalone="no"?>
<!DOCTYPE svg PUBLIC "-//W3C//DTD SVG 1.1//EN"
 "http://www.w3.org/Graphics/SVG/1.1/DTD/svg11.dtd">
<!-- Generated by graphviz version 2.40.1 (20161225.0304)
 -->
<!-- Title: SvtxTrack::size_clusters Pages: 1 -->
<svg width="707pt" height="431pt"
 viewBox="0.00 0.00 707.00 431.00" xmlns="http://www.w3.org/2000/svg" xmlns:xlink="http://www.w3.org/1999/xlink">
<g id="graph0" class="graph" transform="scale(1 1) rotate(0) translate(4 427)">
<title>SvtxTrack::size_clusters</title>
<!-- Node1 -->
<g id="node1" class="node">
<title>Node1</title>
<polygon fill="#bfbfbf" stroke="#000000" points="0,-181.5 0,-201.5 136,-201.5 136,-181.5 0,-181.5"/>
<text text-anchor="middle" x="68" y="-188.5" font-family="FreeSans" font-size="10.00" fill="#000000">SvtxTrack::size_clusters</text>
</g>
<!-- Node2 -->
<g id="node2" class="node">
<title>Node2</title>
<g id="a_node2"><a xlink:href="../../de/da4/classEMCalCalib.html#ac80fa52a42070fa6210a5c69f9c10fed" target="_top" xlink:title="project a photon to calorimeters and collect towers around it">
<polygon fill="none" stroke="#000000" points="172,-370.5 172,-390.5 313,-390.5 313,-370.5 172,-370.5"/>
<text text-anchor="middle" x="242.5" y="-377.5" font-family="FreeSans" font-size="10.00" fill="#000000">EMCalCalib::eval_photon</text>
</a>
</g>
</g>
<!-- Node1&#45;&gt;Node2 -->
<g id="edge1" class="edge">
<title>Node1&#45;&gt;Node2</title>
<path fill="none" stroke="#191970" d="M78.3817,-210.5512C95.1624,-240.1119 130.5824,-297.6612 172,-336.5 186.9446,-350.5141 207.0013,-362.5191 221.9008,-370.4321"/>
<polygon fill="#191970" stroke="#191970" points="81.3531,-208.6934 73.4236,-201.6667 75.2405,-212.1046 81.3531,-208.6934"/>
</g>
<!-- Node5 -->
<g id="node5" class="node">
<title>Node5</title>
<g id="a_node5"><a xlink:href="../../db/d4b/classEMCalAna.html#a058c1f2ec1ef8b8f7786737eb6e3151b" target="_top" xlink:title="EMCalAna::eval_trk">
<polygon fill="none" stroke="#000000" points="185.5,-306.5 185.5,-326.5 299.5,-326.5 299.5,-306.5 185.5,-306.5"/>
<text text-anchor="middle" x="242.5" y="-313.5" font-family="FreeSans" font-size="10.00" fill="#000000">EMCalAna::eval_trk</text>
</a>
</g>
</g>
<!-- Node1&#45;&gt;Node5 -->
<g id="edge4" class="edge">
<title>Node1&#45;&gt;Node5</title>
<path fill="none" stroke="#191970" d="M83.5704,-209.3022C102.6787,-230.2776 136.8867,-265.1006 172,-287.5 184.1619,-295.2583 198.7481,-301.6673 211.4893,-306.4696"/>
<polygon fill="#191970" stroke="#191970" points="86.074,-206.8515 76.7923,-201.7426 80.8622,-211.5246 86.074,-206.8515"/>
</g>
<!-- Node9 -->
<g id="node9" class="node">
<title>Node9</title>
<g id="a_node9"><a xlink:href="../../db/d2f/classAnaSvtxTracksForGenFit.html#ae9fd110fddce0552a676dc9d6a253691" target="_top" xlink:title="AnaSvtxTracksForGenFit\l::fill_tree">
<polygon fill="none" stroke="#000000" points="172.5,-246.5 172.5,-278.5 312.5,-278.5 312.5,-246.5 172.5,-246.5"/>
<text text-anchor="start" x="180.5" y="-265.5" font-family="FreeSans" font-size="10.00" fill="#000000">AnaSvtxTracksForGenFit</text>
<text text-anchor="middle" x="242.5" y="-253.5" font-family="FreeSans" font-size="10.00" fill="#000000">::fill_tree</text>
</a>
</g>
</g>
<!-- Node1&#45;&gt;Node9 -->
<g id="edge9" class="edge">
<title>Node1&#45;&gt;Node9</title>
<path fill="none" stroke="#191970" d="M101.9169,-205.3C130.8316,-217.0647 172.425,-233.9881 202.8683,-246.3748"/>
<polygon fill="#191970" stroke="#191970" points="103.2132,-202.0489 92.6315,-201.522 100.575,-208.5327 103.2132,-202.0489"/>
</g>
<!-- Node11 -->
<g id="node11" class="node">
<title>Node11</title>
<g id="a_node11"><a xlink:href="../../dc/dfb/classGenFitTrackProp.html#a8d5db0ce6e441d4f326328acc37d47b9" target="_top" xlink:title="GenFitTrackProp::fill_tree">
<polygon fill="none" stroke="#000000" points="172,-204.5 172,-224.5 313,-224.5 313,-204.5 172,-204.5"/>
<text text-anchor="middle" x="242.5" y="-211.5" font-family="FreeSans" font-size="10.00" fill="#000000">GenFitTrackProp::fill_tree</text>
</a>
</g>
</g>
<!-- Node1&#45;&gt;Node11 -->
<g id="edge11" class="edge">
<title>Node1&#45;&gt;Node11</title>
<path fill="none" stroke="#191970" d="M146.1492,-201.8005C154.6735,-202.924 163.315,-204.063 171.7433,-205.1739"/>
<polygon fill="#191970" stroke="#191970" points="146.5876,-198.3281 136.216,-200.4912 145.6728,-205.268 146.5876,-198.3281"/>
</g>
<!-- Node13 -->
<g id="node13" class="node">
<title>Node13</title>
<g id="a_node13"><a xlink:href="../../d2/d93/classTrkrEvaluator.html#a753a5ea1a91f097f5c226f5b1620db3f" target="_top" xlink:title="dump the evaluator information into ntuple for external analysis">
<polygon fill="none" stroke="#000000" points="173,-153.5 173,-185.5 312,-185.5 312,-153.5 173,-153.5"/>
<text text-anchor="start" x="181" y="-172.5" font-family="FreeSans" font-size="10.00" fill="#000000">TrkrEvaluator::fillOutput</text>
<text text-anchor="middle" x="242.5" y="-160.5" font-family="FreeSans" font-size="10.00" fill="#000000">Ntuples</text>
</a>
</g>
</g>
<!-- Node1&#45;&gt;Node13 -->
<g id="edge13" class="edge">
<title>Node1&#45;&gt;Node13</title>
<path fill="none" stroke="#191970" d="M146.1902,-181.6422C155.0901,-180.5202 164.1171,-179.3821 172.8954,-178.2754"/>
<polygon fill="#191970" stroke="#191970" points="145.6996,-178.1763 136.216,-182.8997 146.5753,-185.1213 145.6996,-178.1763"/>
</g>
<!-- Node15 -->
<g id="node15" class="node">
<title>Node15</title>
<g id="a_node15"><a xlink:href="../../d2/d85/classSvtxEvaluatorHaiwang.html#a0fd261422264aedc22d0506ef5e897c4" target="_top" xlink:title="dump the evaluator information into ntuple for external analysis">
<polygon fill="none" stroke="#000000" points="177,-102.5 177,-134.5 308,-134.5 308,-102.5 177,-102.5"/>
<text text-anchor="start" x="185" y="-121.5" font-family="FreeSans" font-size="10.00" fill="#000000">SvtxEvaluatorHaiwang</text>
<text text-anchor="middle" x="242.5" y="-109.5" font-family="FreeSans" font-size="10.00" fill="#000000">::fillOutputNtuples</text>
</a>
</g>
</g>
<!-- Node1&#45;&gt;Node15 -->
<g id="edge15" class="edge">
<title>Node1&#45;&gt;Node15</title>
<path fill="none" stroke="#191970" d="M97.6619,-176.9286C118.2962,-167.0105 146.5598,-153.8561 172,-143.5 179.4573,-140.4643 187.4377,-137.4326 195.2503,-134.5811"/>
<polygon fill="#191970" stroke="#191970" points="95.9517,-173.8679 88.4739,-181.3734 99.0001,-180.1693 95.9517,-173.8679"/>
</g>
<!-- Node17 -->
<g id="node17" class="node">
<title>Node17</title>
<g id="a_node17"><a xlink:href="../../d8/d98/classpsTOFTimezeroEval.html#ae9fd1570652089bed4ec7eb81009b318" target="_top" xlink:title="dump the evaluator information into ntuple for external analysis">
<polygon fill="none" stroke="#000000" points="181.5,-51.5 181.5,-83.5 303.5,-83.5 303.5,-51.5 181.5,-51.5"/>
<text text-anchor="start" x="189.5" y="-70.5" font-family="FreeSans" font-size="10.00" fill="#000000">psTOFTimezeroEval::</text>
<text text-anchor="middle" x="242.5" y="-58.5" font-family="FreeSans" font-size="10.00" fill="#000000">fillOutputNtuples</text>
</a>
</g>
</g>
<!-- Node1&#45;&gt;Node17 -->
<g id="edge17" class="edge">
<title>Node1&#45;&gt;Node17</title>
<path fill="none" stroke="#191970" d="M82.6821,-173.4853C101.3698,-151.6005 135.6201,-114.8435 172,-92.5 177.4223,-89.1698 183.3517,-86.1985 189.3955,-83.5708"/>
<polygon fill="#191970" stroke="#191970" points="79.8352,-171.4333 76.0942,-181.3458 85.2001,-175.9297 79.8352,-171.4333"/>
</g>
<!-- Node19 -->
<g id="node19" class="node">
<title>Node19</title>
<g id="a_node19"><a xlink:href="../../db/d4c/classBJetModule.html#a93ec29147c2d7aea52780d7370141e74" target="_top" xlink:title="BJetModule::process\l_event">
<polygon fill="none" stroke="#000000" points="183,-.5 183,-32.5 302,-32.5 302,-.5 183,-.5"/>
<text text-anchor="start" x="191" y="-19.5" font-family="FreeSans" font-size="10.00" fill="#000000">BJetModule::process</text>
<text text-anchor="middle" x="242.5" y="-7.5" font-family="FreeSans" font-size="10.00" fill="#000000">_event</text>
</a>
</g>
</g>
<!-- Node1&#45;&gt;Node19 -->
<g id="edge19" class="edge">
<title>Node1&#45;&gt;Node19</title>
<path fill="none" stroke="#191970" d="M76.5774,-172.0047C91.4993,-140.2436 125.1793,-77.2908 172,-41.5 176.4364,-38.1087 181.3715,-35.1514 186.5126,-32.5778"/>
<polygon fill="#191970" stroke="#191970" points="73.2136,-170.9454 72.2442,-181.4958 79.5813,-173.8527 73.2136,-170.9454"/>
</g>
<!-- Node3 -->
<g id="node3" class="node">
<title>Node3</title>
<g id="a_node3"><a xlink:href="../../de/da4/classEMCalCalib.html#a8d33bc88a464878c873f29c9230ce7fe" target="_top" xlink:title="EMCalCalib::process\l_event_MCPhoton">
<polygon fill="none" stroke="#000000" points="373.5,-390.5 373.5,-422.5 491.5,-422.5 491.5,-390.5 373.5,-390.5"/>
<text text-anchor="start" x="381.5" y="-409.5" font-family="FreeSans" font-size="10.00" fill="#000000">EMCalCalib::process</text>
<text text-anchor="middle" x="432.5" y="-397.5" font-family="FreeSans" font-size="10.00" fill="#000000">_event_MCPhoton</text>
</a>
</g>
</g>
<!-- Node2&#45;&gt;Node3 -->
<g id="edge2" class="edge">
<title>Node2&#45;&gt;Node3</title>
<path fill="none" stroke="#191970" d="M323.5358,-391.5891C340.2092,-393.8707 357.4693,-396.2326 373.2009,-398.3854"/>
<polygon fill="#191970" stroke="#191970" points="323.6312,-388.0696 313.249,-390.1814 322.6821,-395.005 323.6312,-388.0696"/>
</g>
<!-- Node4 -->
<g id="node4" class="node">
<title>Node4</title>
<g id="a_node4"><a xlink:href="../../de/da4/classEMCalCalib.html#aa70da6270813e434e35da37b6ec2a350" target="_top" xlink:title="EMCalCalib::process\l_event">
<polygon fill="none" stroke="#000000" points="566.5,-390.5 566.5,-422.5 684.5,-422.5 684.5,-390.5 566.5,-390.5"/>
<text text-anchor="start" x="574.5" y="-409.5" font-family="FreeSans" font-size="10.00" fill="#000000">EMCalCalib::process</text>
<text text-anchor="middle" x="625.5" y="-397.5" font-family="FreeSans" font-size="10.00" fill="#000000">_event</text>
</a>
</g>
</g>
<!-- Node3&#45;&gt;Node4 -->
<g id="edge3" class="edge">
<title>Node3&#45;&gt;Node4</title>
<path fill="none" stroke="#191970" d="M501.9126,-406.5C523.0277,-406.5 546.0255,-406.5 566.394,-406.5"/>
<polygon fill="#191970" stroke="#191970" points="501.718,-403.0001 491.718,-406.5 501.7179,-410.0001 501.718,-403.0001"/>
</g>
<!-- Node6 -->
<g id="node6" class="node">
<title>Node6</title>
<g id="a_node6"><a xlink:href="../../db/d4b/classEMCalAna.html#a2e20101b8705ea086e2c7de88e95767d" target="_top" xlink:title="EMCalAna::process_event_Trk">
<polygon fill="none" stroke="#000000" points="349,-351.5 349,-371.5 516,-371.5 516,-351.5 349,-351.5"/>
<text text-anchor="middle" x="432.5" y="-358.5" font-family="FreeSans" font-size="10.00" fill="#000000">EMCalAna::process_event_Trk</text>
</a>
</g>
</g>
<!-- Node5&#45;&gt;Node6 -->
<g id="edge5" class="edge">
<title>Node5&#45;&gt;Node6</title>
<path fill="none" stroke="#191970" d="M293.0373,-329.0098C310.7243,-333.3424 330.7273,-338.1909 349,-342.5 361.589,-345.4688 375.2652,-348.6141 387.8356,-351.4731"/>
<polygon fill="#191970" stroke="#191970" points="293.4678,-325.5117 282.9217,-326.5265 291.7989,-332.3098 293.4678,-325.5117"/>
</g>
<!-- Node8 -->
<g id="node8" class="node">
<title>Node8</title>
<g id="a_node8"><a xlink:href="../../db/d4b/classEMCalAna.html#a9647db89feef6823b38bbdeaf7de06c2" target="_top" xlink:title="EMCalAna::process_event\l_UpslisonTrig">
<polygon fill="none" stroke="#000000" points="359,-300.5 359,-332.5 506,-332.5 506,-300.5 359,-300.5"/>
<text text-anchor="start" x="367" y="-319.5" font-family="FreeSans" font-size="10.00" fill="#000000">EMCalAna::process_event</text>
<text text-anchor="middle" x="432.5" y="-307.5" font-family="FreeSans" font-size="10.00" fill="#000000">_UpslisonTrig</text>
</a>
</g>
</g>
<!-- Node5&#45;&gt;Node8 -->
<g id="edge7" class="edge">
<title>Node5&#45;&gt;Node8</title>
<path fill="none" stroke="#191970" d="M309.7886,-316.5C325.7174,-316.5 342.7854,-316.5 358.9752,-316.5"/>
<polygon fill="#191970" stroke="#191970" points="309.5063,-313.0001 299.5063,-316.5 309.5062,-320.0001 309.5063,-313.0001"/>
</g>
<!-- Node7 -->
<g id="node7" class="node">
<title>Node7</title>
<g id="a_node7"><a xlink:href="../../db/d4b/classEMCalAna.html#a3b829b80df0fd8625130f3d9c11f5d3d" target="_top" xlink:title="EMCalAna::process_event">
<polygon fill="none" stroke="#000000" points="552,-329.5 552,-349.5 699,-349.5 699,-329.5 552,-329.5"/>
<text text-anchor="middle" x="625.5" y="-336.5" font-family="FreeSans" font-size="10.00" fill="#000000">EMCalAna::process_event</text>
</a>
</g>
</g>
<!-- Node6&#45;&gt;Node7 -->
<g id="edge6" class="edge">
<title>Node6&#45;&gt;Node7</title>
<path fill="none" stroke="#191970" d="M526.1344,-350.8266C534.7679,-349.8425 543.4319,-348.8549 551.8499,-347.8954"/>
<polygon fill="#191970" stroke="#191970" points="525.5693,-347.3683 516.0301,-351.9784 526.3622,-354.3233 525.5693,-347.3683"/>
</g>
<!-- Node8&#45;&gt;Node7 -->
<g id="edge8" class="edge">
<title>Node8&#45;&gt;Node7</title>
<path fill="none" stroke="#191970" d="M515.9694,-326.4471C527.9148,-327.8707 540.1315,-329.3266 551.8693,-330.7254"/>
<polygon fill="#191970" stroke="#191970" points="516.3595,-322.9689 506.0156,-325.2609 515.5311,-329.9198 516.3595,-322.9689"/>
</g>
<!-- Node10 -->
<g id="node10" class="node">
<title>Node10</title>
<g id="a_node10"><a xlink:href="../../db/d2f/classAnaSvtxTracksForGenFit.html#a6f277cfc1d441b018fccacf6fb882dd0" target="_top" xlink:title="AnaSvtxTracksForGenFit\l::process_event">
<polygon fill="none" stroke="#000000" points="362.5,-249.5 362.5,-281.5 502.5,-281.5 502.5,-249.5 362.5,-249.5"/>
<text text-anchor="start" x="370.5" y="-268.5" font-family="FreeSans" font-size="10.00" fill="#000000">AnaSvtxTracksForGenFit</text>
<text text-anchor="middle" x="432.5" y="-256.5" font-family="FreeSans" font-size="10.00" fill="#000000">::process_event</text>
</a>
</g>
</g>
<!-- Node9&#45;&gt;Node10 -->
<g id="edge10" class="edge">
<title>Node9&#45;&gt;Node10</title>
<path fill="none" stroke="#191970" d="M323.0624,-263.772C336.0953,-263.9778 349.4993,-264.1895 362.2624,-264.391"/>
<polygon fill="#191970" stroke="#191970" points="322.7632,-260.267 312.7092,-263.6086 322.6526,-267.2661 322.7632,-260.267"/>
</g>
<!-- Node12 -->
<g id="node12" class="node">
<title>Node12</title>
<g id="a_node12"><a xlink:href="../../dc/dfb/classGenFitTrackProp.html#a92a3570ed1802ba0f7e9eeb50eb9a6ec" target="_top" xlink:title="Process Event, called for each event.">
<polygon fill="none" stroke="#000000" points="361,-198.5 361,-230.5 504,-230.5 504,-198.5 361,-198.5"/>
<text text-anchor="start" x="369" y="-217.5" font-family="FreeSans" font-size="10.00" fill="#000000">GenFitTrackProp::process</text>
<text text-anchor="middle" x="432.5" y="-205.5" font-family="FreeSans" font-size="10.00" fill="#000000">_event</text>
</a>
</g>
</g>
<!-- Node11&#45;&gt;Node12 -->
<g id="edge12" class="edge">
<title>Node11&#45;&gt;Node12</title>
<path fill="none" stroke="#191970" d="M323.5409,-214.5C335.906,-214.5 348.5936,-214.5 360.7411,-214.5"/>
<polygon fill="#191970" stroke="#191970" points="323.249,-211.0001 313.249,-214.5 323.249,-218.0001 323.249,-211.0001"/>
</g>
<!-- Node14 -->
<g id="node14" class="node">
<title>Node14</title>
<g id="a_node14"><a xlink:href="../../d2/d93/classTrkrEvaluator.html#af1cb893f5a8aebc803c2bb55dd582e5a" target="_top" xlink:title="TrkrEvaluator::process\l_event">
<polygon fill="none" stroke="#000000" points="367.5,-147.5 367.5,-179.5 497.5,-179.5 497.5,-147.5 367.5,-147.5"/>
<text text-anchor="start" x="375.5" y="-166.5" font-family="FreeSans" font-size="10.00" fill="#000000">TrkrEvaluator::process</text>
<text text-anchor="middle" x="432.5" y="-154.5" font-family="FreeSans" font-size="10.00" fill="#000000">_event</text>
</a>
</g>
</g>
<!-- Node13&#45;&gt;Node14 -->
<g id="edge14" class="edge">
<title>Node13&#45;&gt;Node14</title>
<path fill="none" stroke="#191970" d="M322.417,-166.9763C337.3633,-166.5043 352.8207,-166.0162 367.2582,-165.5603"/>
<polygon fill="#191970" stroke="#191970" points="322.0546,-163.4859 312.1701,-167.2999 322.2756,-170.4824 322.0546,-163.4859"/>
</g>
<!-- Node16 -->
<g id="node16" class="node">
<title>Node16</title>
<g id="a_node16"><a xlink:href="../../d2/d85/classSvtxEvaluatorHaiwang.html#ab63ca0cc53b56dad65b89d9b18220bce" target="_top" xlink:title="SvtxEvaluatorHaiwang\l::process_event">
<polygon fill="none" stroke="#000000" points="367,-96.5 367,-128.5 498,-128.5 498,-96.5 367,-96.5"/>
<text text-anchor="start" x="375" y="-115.5" font-family="FreeSans" font-size="10.00" fill="#000000">SvtxEvaluatorHaiwang</text>
<text text-anchor="middle" x="432.5" y="-103.5" font-family="FreeSans" font-size="10.00" fill="#000000">::process_event</text>
</a>
</g>
</g>
<!-- Node15&#45;&gt;Node16 -->
<g id="edge16" class="edge">
<title>Node15&#45;&gt;Node16</title>
<path fill="none" stroke="#191970" d="M318.5355,-116.0989C334.5289,-115.5938 351.2699,-115.0652 366.8441,-114.5733"/>
<polygon fill="#191970" stroke="#191970" points="318.0378,-112.6128 308.1533,-116.4267 318.2588,-119.6093 318.0378,-112.6128"/>
</g>
<!-- Node18 -->
<g id="node18" class="node">
<title>Node18</title>
<g id="a_node18"><a xlink:href="../../d8/d98/classpsTOFTimezeroEval.html#a2e98730e1beaa91c36947c0fe671fdd2" target="_top" xlink:title="psTOFTimezeroEval::\lprocess_event">
<polygon fill="none" stroke="#000000" points="371.5,-45.5 371.5,-77.5 493.5,-77.5 493.5,-45.5 371.5,-45.5"/>
<text text-anchor="start" x="379.5" y="-64.5" font-family="FreeSans" font-size="10.00" fill="#000000">psTOFTimezeroEval::</text>
<text text-anchor="middle" x="432.5" y="-52.5" font-family="FreeSans" font-size="10.00" fill="#000000">process_event</text>
</a>
</g>
</g>
<!-- Node17&#45;&gt;Node18 -->
<g id="edge18" class="edge">
<title>Node17&#45;&gt;Node18</title>
<path fill="none" stroke="#191970" d="M313.7484,-65.25C332.7324,-64.6506 353.0685,-64.0084 371.4516,-63.4278"/>
<polygon fill="#191970" stroke="#191970" points="313.5476,-61.7546 303.663,-65.5685 313.7686,-68.7511 313.5476,-61.7546"/>
</g>
</g>
</svg>
