<?xml version="1.0" encoding="UTF-8" standalone="no"?>
<!DOCTYPE svg PUBLIC "-//W3C//DTD SVG 1.1//EN"
 "http://www.w3.org/Graphics/SVG/1.1/DTD/svg11.dtd">
<!-- Generated by graphviz version 2.40.1 (20161225.0304)
 -->
<!-- Title: SvtxTrack::get_phi Pages: 1 -->
<svg width="1032pt" height="709pt"
 viewBox="0.00 0.00 1032.00 709.00" xmlns="http://www.w3.org/2000/svg" xmlns:xlink="http://www.w3.org/1999/xlink">
<g id="graph0" class="graph" transform="scale(1 1) rotate(0) translate(4 705)">
<title>SvtxTrack::get_phi</title>
<!-- Node1 -->
<g id="node1" class="node">
<title>Node1</title>
<polygon fill="#bfbfbf" stroke="#000000" points="0,-352.5 0,-372.5 109,-372.5 109,-352.5 0,-352.5"/>
<text text-anchor="middle" x="54.5" y="-359.5" font-family="FreeSans" font-size="10.00" fill="#000000">SvtxTrack::get_phi</text>
</g>
<!-- Node2 -->
<g id="node2" class="node">
<title>Node2</title>
<g id="a_node2"><a xlink:href="../../da/d73/classExclusiveReco.html#a48d900fd8ad00d0b252204dcbb941bc7" target="_top" xlink:title="ExclusiveReco::AddInvariant\lMassInformation">
<polygon fill="none" stroke="#000000" points="145,-668.5 145,-700.5 305,-700.5 305,-668.5 145,-668.5"/>
<text text-anchor="start" x="153" y="-687.5" font-family="FreeSans" font-size="10.00" fill="#000000">ExclusiveReco::AddInvariant</text>
<text text-anchor="middle" x="225" y="-675.5" font-family="FreeSans" font-size="10.00" fill="#000000">MassInformation</text>
</a>
</g>
</g>
<!-- Node1&#45;&gt;Node2 -->
<g id="edge1" class="edge">
<title>Node1&#45;&gt;Node2</title>
<path fill="none" stroke="#191970" d="M58.1317,-382.741C69.3067,-442.9221 104.86,-619.0736 145,-659.5 148.3834,-662.9075 152.2238,-665.852 156.3473,-668.3961"/>
<polygon fill="#191970" stroke="#191970" points="61.5223,-381.8247 56.2802,-372.6176 54.6365,-383.0841 61.5223,-381.8247"/>
</g>
<!-- Node4 -->
<g id="node4" class="node">
<title>Node4</title>
<g id="a_node4"><a xlink:href="../../d6/d40/classLeptoquarksReco.html#a74b066097052383649d5ecd7efb01627" target="_top" xlink:title="LeptoquarksReco::AddTrack\lInformation">
<polygon fill="none" stroke="#000000" points="147,-617.5 147,-649.5 303,-649.5 303,-617.5 147,-617.5"/>
<text text-anchor="start" x="155" y="-636.5" font-family="FreeSans" font-size="10.00" fill="#000000">LeptoquarksReco::AddTrack</text>
<text text-anchor="middle" x="225" y="-624.5" font-family="FreeSans" font-size="10.00" fill="#000000">Information</text>
</a>
</g>
</g>
<!-- Node1&#45;&gt;Node4 -->
<g id="edge3" class="edge">
<title>Node1&#45;&gt;Node4</title>
<path fill="none" stroke="#191970" d="M56.5938,-382.8153C62.3274,-428.2868 82.2964,-539.2239 145,-602.5 150.9762,-608.5307 158.2571,-613.4128 165.9656,-617.3586"/>
<polygon fill="#191970" stroke="#191970" points="60.0535,-382.2646 55.4254,-372.7341 53.1,-383.0705 60.0535,-382.2646"/>
</g>
<!-- Node6 -->
<g id="node6" class="node">
<title>Node6</title>
<g id="a_node6"><a xlink:href="../../dc/d65/classPhotonJet.html#a2c998d51d52420bdde0a2100c7cbdf62" target="_top" xlink:title="PhotonJet::ConeSum">
<polygon fill="none" stroke="#000000" points="165,-539.5 165,-559.5 285,-559.5 285,-539.5 165,-539.5"/>
<text text-anchor="middle" x="225" y="-546.5" font-family="FreeSans" font-size="10.00" fill="#000000">PhotonJet::ConeSum</text>
</a>
</g>
</g>
<!-- Node1&#45;&gt;Node6 -->
<g id="edge5" class="edge">
<title>Node1&#45;&gt;Node6</title>
<path fill="none" stroke="#191970" d="M59.4409,-382.4213C69.3235,-417.9458 94.9961,-492.0965 145,-530.5 150.8872,-535.0214 157.6835,-538.49 164.7767,-541.1468"/>
<polygon fill="#191970" stroke="#191970" points="62.8149,-381.4896 56.8714,-372.7189 56.0482,-383.2817 62.8149,-381.4896"/>
</g>
<!-- Node7 -->
<g id="node7" class="node">
<title>Node7</title>
<g id="a_node7"><a xlink:href="../../dc/d65/classPhotonJet.html#a3f9d3ec941f851bc2246ceb0c5362c9f" target="_top" xlink:title="PhotonJet::process\l_event">
<polygon fill="none" stroke="#000000" points="378.5,-552.5 378.5,-584.5 488.5,-584.5 488.5,-552.5 378.5,-552.5"/>
<text text-anchor="start" x="386.5" y="-571.5" font-family="FreeSans" font-size="10.00" fill="#000000">PhotonJet::process</text>
<text text-anchor="middle" x="433.5" y="-559.5" font-family="FreeSans" font-size="10.00" fill="#000000">_event</text>
</a>
</g>
</g>
<!-- Node1&#45;&gt;Node7 -->
<g id="edge20" class="edge">
<title>Node1&#45;&gt;Node7</title>
<path fill="none" stroke="#191970" d="M56.302,-382.8301C61.3619,-426.1209 79.9194,-526.9245 145,-569.5 216.2549,-616.1147 320.0968,-600.3783 381.8242,-584.5447"/>
<polygon fill="#191970" stroke="#191970" points="59.7626,-382.2685 55.2454,-372.6849 52.8002,-382.9937 59.7626,-382.2685"/>
</g>
<!-- Node8 -->
<g id="node8" class="node">
<title>Node8</title>
<g id="a_node8"><a xlink:href="../../dc/d65/classPhotonJet.html#a9b2de7dcbd5e3bbbd26150d418b7bb44" target="_top" xlink:title="PhotonJet::GetRecoHadrons\lAndJets">
<polygon fill="none" stroke="#000000" points="147,-488.5 147,-520.5 303,-520.5 303,-488.5 147,-488.5"/>
<text text-anchor="start" x="155" y="-507.5" font-family="FreeSans" font-size="10.00" fill="#000000">PhotonJet::GetRecoHadrons</text>
<text text-anchor="middle" x="225" y="-495.5" font-family="FreeSans" font-size="10.00" fill="#000000">AndJets</text>
</a>
</g>
</g>
<!-- Node1&#45;&gt;Node8 -->
<g id="edge7" class="edge">
<title>Node1&#45;&gt;Node8</title>
<path fill="none" stroke="#191970" d="M65.4265,-381.2097C80.4998,-405.5454 109.8366,-447.9567 145,-473.5 153.0743,-479.3653 162.4019,-484.2839 171.7738,-488.3495"/>
<polygon fill="#191970" stroke="#191970" points="68.3648,-379.3047 60.1976,-372.5557 62.3735,-382.9247 68.3648,-379.3047"/>
</g>
<!-- Node9 -->
<g id="node9" class="node">
<title>Node9</title>
<g id="a_node9"><a xlink:href="../../dc/d41/classConversion.html#a79257d517138c0a6d74827a2e899470b" target="_top" xlink:title="Conversion::getTrackPhis">
<polygon fill="none" stroke="#000000" points="362,-513.5 362,-533.5 505,-533.5 505,-513.5 362,-513.5"/>
<text text-anchor="middle" x="433.5" y="-520.5" font-family="FreeSans" font-size="10.00" fill="#000000">Conversion::getTrackPhis</text>
</a>
</g>
</g>
<!-- Node1&#45;&gt;Node9 -->
<g id="edge9" class="edge">
<title>Node1&#45;&gt;Node9</title>
<path fill="none" stroke="#191970" d="M70.745,-379.8015C87.7142,-396.8807 115.8775,-422.5466 145,-437.5 210.4025,-471.0819 238.2293,-448.7281 305,-479.5 322.6913,-487.6532 323.0946,-496.8285 341,-504.5 349.4389,-508.1156 358.612,-511.0586 367.7944,-513.4502"/>
<polygon fill="#191970" stroke="#191970" points="73.2524,-377.3595 63.7729,-372.6278 68.2326,-382.2383 73.2524,-377.3595"/>
</g>
<!-- Node13 -->
<g id="node13" class="node">
<title>Node13</title>
<g id="a_node13"><a xlink:href="../../d0/da9/classAnaTutorial.html#a54c32a62e705c4464d9652e91c7d46fa" target="_top" xlink:title="Methods for grabbing the data.">
<polygon fill="none" stroke="#000000" points="160.5,-294.5 160.5,-314.5 289.5,-314.5 289.5,-294.5 160.5,-294.5"/>
<text text-anchor="middle" x="225" y="-301.5" font-family="FreeSans" font-size="10.00" fill="#000000">AnaTutorial::getTracks</text>
</a>
</g>
</g>
<!-- Node1&#45;&gt;Node13 -->
<g id="edge13" class="edge">
<title>Node1&#45;&gt;Node13</title>
<path fill="none" stroke="#191970" d="M90.7132,-348.8559C107.2101,-342.7538 127.0273,-335.5813 145,-329.5 160.162,-324.3697 177.0646,-319.0325 191.4127,-314.6134"/>
<polygon fill="#191970" stroke="#191970" points="89.0705,-345.7325 80.9168,-352.4977 91.5097,-352.2938 89.0705,-345.7325"/>
</g>
<!-- Node15 -->
<g id="node15" class="node">
<title>Node15</title>
<g id="a_node15"><a xlink:href="../../db/db5/classDISKinematicsReco.html#ad801f1794841d3657aa4c0b2da334743" target="_top" xlink:title="DISKinematicsReco::\lInsertCandidateFromCluster">
<polygon fill="none" stroke="#000000" points="146,-243.5 146,-275.5 304,-275.5 304,-243.5 146,-243.5"/>
<text text-anchor="start" x="154" y="-262.5" font-family="FreeSans" font-size="10.00" fill="#000000">DISKinematicsReco::</text>
<text text-anchor="middle" x="225" y="-250.5" font-family="FreeSans" font-size="10.00" fill="#000000">InsertCandidateFromCluster</text>
</a>
</g>
</g>
<!-- Node1&#45;&gt;Node15 -->
<g id="edge15" class="edge">
<title>Node1&#45;&gt;Node15</title>
<path fill="none" stroke="#191970" d="M70.4848,-345.0453C87.4349,-327.4864 115.7541,-300.7484 145,-284.5 150.9784,-281.1785 157.4581,-278.234 164.0536,-275.6399"/>
<polygon fill="#191970" stroke="#191970" points="67.8615,-342.7254 63.5344,-352.3964 72.9479,-347.5346 67.8615,-342.7254"/>
</g>
<!-- Node18 -->
<g id="node18" class="node">
<title>Node18</title>
<g id="a_node18"><a xlink:href="../../db/d4c/classBJetModule.html#a93ec29147c2d7aea52780d7370141e74" target="_top" xlink:title="BJetModule::process\l_event">
<polygon fill="none" stroke="#000000" points="165.5,-192.5 165.5,-224.5 284.5,-224.5 284.5,-192.5 165.5,-192.5"/>
<text text-anchor="start" x="173.5" y="-211.5" font-family="FreeSans" font-size="10.00" fill="#000000">BJetModule::process</text>
<text text-anchor="middle" x="225" y="-199.5" font-family="FreeSans" font-size="10.00" fill="#000000">_event</text>
</a>
</g>
</g>
<!-- Node1&#45;&gt;Node18 -->
<g id="edge18" class="edge">
<title>Node1&#45;&gt;Node18</title>
<path fill="none" stroke="#191970" d="M63.0014,-343.1977C76.3964,-314.9845 105.0616,-262.6783 145,-233.5 151.1098,-229.0363 158.0383,-225.3545 165.2007,-222.3211"/>
<polygon fill="#191970" stroke="#191970" points="59.7612,-341.8667 58.7647,-352.4145 66.1214,-344.7903 59.7612,-341.8667"/>
</g>
<!-- Node19 -->
<g id="node19" class="node">
<title>Node19</title>
<g id="a_node19"><a xlink:href="../../db/dc4/classPHGenFitTrackProjection.html#a8f12e9c6ccc546498672eb6d45daef82" target="_top" xlink:title="PHGenFitTrackProjection\l::process_event">
<polygon fill="none" stroke="#000000" points="156,-141.5 156,-173.5 294,-173.5 294,-141.5 156,-141.5"/>
<text text-anchor="start" x="164" y="-160.5" font-family="FreeSans" font-size="10.00" fill="#000000">PHGenFitTrackProjection</text>
<text text-anchor="middle" x="225" y="-148.5" font-family="FreeSans" font-size="10.00" fill="#000000">::process_event</text>
</a>
</g>
</g>
<!-- Node1&#45;&gt;Node19 -->
<g id="edge19" class="edge">
<title>Node1&#45;&gt;Node19</title>
<path fill="none" stroke="#191970" d="M59.1578,-342.0702C68.7027,-304.8354 94.0134,-225.7871 145,-182.5 148.9934,-179.1097 153.4456,-176.1785 158.1488,-173.6444"/>
<polygon fill="#191970" stroke="#191970" points="55.6571,-341.6532 56.6908,-352.1975 62.4582,-343.3101 55.6571,-341.6532"/>
</g>
<!-- Node20 -->
<g id="node20" class="node">
<title>Node20</title>
<g id="a_node20"><a xlink:href="../../d1/d04/classBDiJetModule.html#a8f01ada101f7e91cf05e12bbf420d192" target="_top" xlink:title="BDiJetModule::process\l_event">
<polygon fill="none" stroke="#000000" points="160.5,-90.5 160.5,-122.5 289.5,-122.5 289.5,-90.5 160.5,-90.5"/>
<text text-anchor="start" x="168.5" y="-109.5" font-family="FreeSans" font-size="10.00" fill="#000000">BDiJetModule::process</text>
<text text-anchor="middle" x="225" y="-97.5" font-family="FreeSans" font-size="10.00" fill="#000000">_event</text>
</a>
</g>
</g>
<!-- Node1&#45;&gt;Node20 -->
<g id="edge21" class="edge">
<title>Node1&#45;&gt;Node20</title>
<path fill="none" stroke="#191970" d="M56.582,-342.3537C62.2656,-297.778 82.0964,-190.1175 145,-131.5 149.4711,-127.3335 154.6285,-123.8612 160.1266,-120.9675"/>
<polygon fill="#191970" stroke="#191970" points="53.0823,-342.1483 55.4002,-352.4865 60.0352,-342.9593 53.0823,-342.1483"/>
</g>
<!-- Node21 -->
<g id="node21" class="node">
<title>Node21</title>
<g id="a_node21"><a xlink:href="../../d7/dd4/classVtxRegressor.html#a9fcfebeb181524d256aad8d06b00d621" target="_top" xlink:title="VtxRegressor::regress">
<polygon fill="none" stroke="#000000" points="161,-372.5 161,-392.5 289,-392.5 289,-372.5 161,-372.5"/>
<text text-anchor="middle" x="225" y="-379.5" font-family="FreeSans" font-size="10.00" fill="#000000">VtxRegressor::regress</text>
</a>
</g>
</g>
<!-- Node1&#45;&gt;Node21 -->
<g id="edge22" class="edge">
<title>Node1&#45;&gt;Node21</title>
<path fill="none" stroke="#191970" d="M119.54,-370.1293C133.0328,-371.7121 147.2425,-373.3789 160.7083,-374.9585"/>
<polygon fill="#191970" stroke="#191970" points="119.7255,-366.6272 109.3858,-368.9382 118.9099,-373.5795 119.7255,-366.6272"/>
</g>
<!-- Node26 -->
<g id="node26" class="node">
<title>Node26</title>
<g id="a_node26"><a xlink:href="../../dc/d41/classConversion.html#a4e42cc6233c2f362b054e04a3ba9f087" target="_top" xlink:title="Conversion::trackDPhi">
<polygon fill="none" stroke="#000000" points="369.5,-474.5 369.5,-494.5 497.5,-494.5 497.5,-474.5 369.5,-474.5"/>
<text text-anchor="middle" x="433.5" y="-481.5" font-family="FreeSans" font-size="10.00" fill="#000000">Conversion::trackDPhi</text>
</a>
</g>
</g>
<!-- Node1&#45;&gt;Node26 -->
<g id="edge29" class="edge">
<title>Node1&#45;&gt;Node26</title>
<path fill="none" stroke="#191970" d="M84.0974,-376.9626C101.5527,-385.1415 124.2256,-395.1663 145,-402.5 214.4349,-427.0116 236.7508,-417.858 305,-445.5 321.9647,-452.371 323.8369,-459.1406 341,-465.5 350.5312,-469.0316 360.8713,-471.967 371.0695,-474.3879"/>
<polygon fill="#191970" stroke="#191970" points="85.517,-373.7622 74.982,-372.6375 82.5162,-380.0864 85.517,-373.7622"/>
</g>
<!-- Node27 -->
<g id="node27" class="node">
<title>Node27</title>
<g id="a_node27"><a xlink:href="../../d9/d3a/classTruthConversionEval.html#a88755ffe017d2e5acbe48d905cc78bd2" target="_top" xlink:title="TruthConversionEval\l::tracktoTLV">
<polygon fill="none" stroke="#000000" points="746,-353.5 746,-385.5 867,-385.5 867,-353.5 746,-353.5"/>
<text text-anchor="start" x="754" y="-372.5" font-family="FreeSans" font-size="10.00" fill="#000000">TruthConversionEval</text>
<text text-anchor="middle" x="806.5" y="-360.5" font-family="FreeSans" font-size="10.00" fill="#000000">::tracktoTLV</text>
</a>
</g>
</g>
<!-- Node1&#45;&gt;Node27 -->
<g id="edge32" class="edge">
<title>Node1&#45;&gt;Node27</title>
<path fill="none" stroke="#191970" d="M119.6206,-361.2943C237.4478,-359.4036 493.868,-356.6223 710,-363.5 721.5764,-363.8684 733.9228,-364.4741 745.7832,-365.1624"/>
<polygon fill="#191970" stroke="#191970" points="119.2771,-357.7993 109.3358,-361.4627 119.3918,-364.7984 119.2771,-357.7993"/>
</g>
<!-- Node28 -->
<g id="node28" class="node">
<title>Node28</title>
<g id="a_node28"><a xlink:href="../../dc/d41/classConversion.html#ac7c58e877ac6d77798fc2d6ae971edfc" target="_top" xlink:title="helper function">
<polygon fill="none" stroke="#000000" points="153,-51.5 153,-71.5 297,-71.5 297,-51.5 153,-51.5"/>
<text text-anchor="middle" x="225" y="-58.5" font-family="FreeSans" font-size="10.00" fill="#000000">Conversion::vtxTrackRPhi</text>
</a>
</g>
</g>
<!-- Node1&#45;&gt;Node28 -->
<g id="edge34" class="edge">
<title>Node1&#45;&gt;Node28</title>
<path fill="none" stroke="#191970" d="M58.3065,-342.3735C69.7138,-284.1333 105.2941,-117.2473 145,-80.5 148.8765,-76.9124 153.3035,-73.9649 158.041,-71.5475"/>
<polygon fill="#191970" stroke="#191970" points="54.8653,-341.7344 56.4075,-352.2164 61.7386,-343.0605 54.8653,-341.7344"/>
</g>
<!-- Node29 -->
<g id="node29" class="node">
<title>Node29</title>
<g id="a_node29"><a xlink:href="../../df/d9b/classRecoConversionEval.html#a0814d1a13453dd49199fb40c7710420d" target="_top" xlink:title="track must be closer in RPhi space to the vtx than the cut">
<polygon fill="none" stroke="#000000" points="165.5,-.5 165.5,-32.5 284.5,-32.5 284.5,-.5 165.5,-.5"/>
<text text-anchor="start" x="173.5" y="-19.5" font-family="FreeSans" font-size="10.00" fill="#000000">RecoConversionEval</text>
<text text-anchor="middle" x="225" y="-7.5" font-family="FreeSans" font-size="10.00" fill="#000000">::vtxTrackRPhiCut</text>
</a>
</g>
</g>
<!-- Node1&#45;&gt;Node29 -->
<g id="edge35" class="edge">
<title>Node1&#45;&gt;Node29</title>
<path fill="none" stroke="#191970" d="M57.6351,-342.2929C67.8442,-278.9339 101.9725,-85.7533 145,-41.5 150.6805,-35.6576 157.7039,-31.175 165.2109,-27.7368"/>
<polygon fill="#191970" stroke="#191970" points="54.167,-341.8164 56.0581,-352.241 61.0807,-342.9124 54.167,-341.8164"/>
</g>
<!-- Node3 -->
<g id="node3" class="node">
<title>Node3</title>
<g id="a_node3"><a xlink:href="../../da/d73/classExclusiveReco.html#a026079694f2af119464bf5955c27a01c" target="_top" xlink:title="ExclusiveReco::process\l_event">
<polygon fill="none" stroke="#000000" points="366.5,-668.5 366.5,-700.5 500.5,-700.5 500.5,-668.5 366.5,-668.5"/>
<text text-anchor="start" x="374.5" y="-687.5" font-family="FreeSans" font-size="10.00" fill="#000000">ExclusiveReco::process</text>
<text text-anchor="middle" x="433.5" y="-675.5" font-family="FreeSans" font-size="10.00" fill="#000000">_event</text>
</a>
</g>
</g>
<!-- Node2&#45;&gt;Node3 -->
<g id="edge2" class="edge">
<title>Node2&#45;&gt;Node3</title>
<path fill="none" stroke="#191970" d="M315.0527,-684.5C332.2278,-684.5 349.9268,-684.5 366.2378,-684.5"/>
<polygon fill="#191970" stroke="#191970" points="315.0153,-681.0001 305.0152,-684.5 315.0152,-688.0001 315.0153,-681.0001"/>
</g>
<!-- Node5 -->
<g id="node5" class="node">
<title>Node5</title>
<g id="a_node5"><a xlink:href="../../d6/d40/classLeptoquarksReco.html#aa5b8ff9665c7a78246bd4f1194d66d1b" target="_top" xlink:title="LeptoquarksReco::process\l_event">
<polygon fill="none" stroke="#000000" points="359,-617.5 359,-649.5 508,-649.5 508,-617.5 359,-617.5"/>
<text text-anchor="start" x="367" y="-636.5" font-family="FreeSans" font-size="10.00" fill="#000000">LeptoquarksReco::process</text>
<text text-anchor="middle" x="433.5" y="-624.5" font-family="FreeSans" font-size="10.00" fill="#000000">_event</text>
</a>
</g>
</g>
<!-- Node4&#45;&gt;Node5 -->
<g id="edge4" class="edge">
<title>Node4&#45;&gt;Node5</title>
<path fill="none" stroke="#191970" d="M313.6045,-633.5C328.7153,-633.5 344.2749,-633.5 358.9742,-633.5"/>
<polygon fill="#191970" stroke="#191970" points="313.2309,-630.0001 303.2309,-633.5 313.2309,-637.0001 313.2309,-630.0001"/>
</g>
<!-- Node6&#45;&gt;Node7 -->
<g id="edge6" class="edge">
<title>Node6&#45;&gt;Node7</title>
<path fill="none" stroke="#191970" d="M295.2063,-555.8977C322.2503,-558.3621 352.7279,-561.1395 378.1754,-563.4584"/>
<polygon fill="#191970" stroke="#191970" points="295.3035,-552.3921 285.0271,-554.9701 294.6682,-559.3633 295.3035,-552.3921"/>
</g>
<!-- Node8&#45;&gt;Node7 -->
<g id="edge8" class="edge">
<title>Node8&#45;&gt;Node7</title>
<path fill="none" stroke="#191970" d="M285.1955,-523.8322C291.8876,-526.0501 298.5958,-528.3037 305,-530.5 321.0912,-536.0186 324.7752,-538.3876 341,-543.5 352.8996,-547.2496 365.7662,-550.9479 378.0117,-554.3032"/>
<polygon fill="#191970" stroke="#191970" points="286.0326,-520.423 275.4396,-520.6189 283.8427,-527.0717 286.0326,-520.423"/>
</g>
<!-- Node10 -->
<g id="node10" class="node">
<title>Node10</title>
<g id="a_node10"><a xlink:href="../../d9/d3a/classTruthConversionEval.html#a30309a3143d74dac7ff1f62cf275a5ac" target="_top" xlink:title="TruthConversionEval\l::recordConversion">
<polygon fill="none" stroke="#000000" points="575.5,-474.5 575.5,-506.5 696.5,-506.5 696.5,-474.5 575.5,-474.5"/>
<text text-anchor="start" x="583.5" y="-493.5" font-family="FreeSans" font-size="10.00" fill="#000000">TruthConversionEval</text>
<text text-anchor="middle" x="636" y="-481.5" font-family="FreeSans" font-size="10.00" fill="#000000">::recordConversion</text>
</a>
</g>
</g>
<!-- Node9&#45;&gt;Node10 -->
<g id="edge10" class="edge">
<title>Node9&#45;&gt;Node10</title>
<path fill="none" stroke="#191970" d="M505.1174,-511.829C528.093,-508.0848 553.3009,-503.9769 575.4078,-500.3743"/>
<polygon fill="#191970" stroke="#191970" points="504.3883,-508.4016 495.0814,-513.4645 505.5142,-515.3104 504.3883,-508.4016"/>
</g>
<!-- Node11 -->
<g id="node11" class="node">
<title>Node11</title>
<g id="a_node11"><a xlink:href="../../d9/d3a/classTruthConversionEval.html#a802d15f00a153397546daabb7dbabbd2" target="_top" xlink:title="TruthConversionEval\l::numUnique">
<polygon fill="none" stroke="#000000" points="746,-471.5 746,-503.5 867,-503.5 867,-471.5 746,-471.5"/>
<text text-anchor="start" x="754" y="-490.5" font-family="FreeSans" font-size="10.00" fill="#000000">TruthConversionEval</text>
<text text-anchor="middle" x="806.5" y="-478.5" font-family="FreeSans" font-size="10.00" fill="#000000">::numUnique</text>
</a>
</g>
</g>
<!-- Node10&#45;&gt;Node11 -->
<g id="edge11" class="edge">
<title>Node10&#45;&gt;Node11</title>
<path fill="none" stroke="#191970" d="M706.8524,-489.2533C719.7978,-489.0256 733.1994,-488.7897 745.816,-488.5678"/>
<polygon fill="#191970" stroke="#191970" points="706.5288,-485.7584 696.592,-489.4339 706.6521,-492.7573 706.5288,-485.7584"/>
</g>
<!-- Node12 -->
<g id="node12" class="node">
<title>Node12</title>
<g id="a_node12"><a xlink:href="../../d9/d3a/classTruthConversionEval.html#a9a67c8171296f35dd157daf89108d3fd" target="_top" xlink:title="TruthConversionEval\l::process_event">
<polygon fill="none" stroke="#000000" points="903,-423.5 903,-455.5 1024,-455.5 1024,-423.5 903,-423.5"/>
<text text-anchor="start" x="911" y="-442.5" font-family="FreeSans" font-size="10.00" fill="#000000">TruthConversionEval</text>
<text text-anchor="middle" x="963.5" y="-430.5" font-family="FreeSans" font-size="10.00" fill="#000000">::process_event</text>
</a>
</g>
</g>
<!-- Node11&#45;&gt;Node12 -->
<g id="edge12" class="edge">
<title>Node11&#45;&gt;Node12</title>
<path fill="none" stroke="#191970" d="M869.1497,-468.346C882.995,-464.113 897.5267,-459.6702 910.9237,-455.5743"/>
<polygon fill="#191970" stroke="#191970" points="867.7552,-465.1123 859.2155,-471.3832 869.8019,-471.8064 867.7552,-465.1123"/>
</g>
<!-- Node14 -->
<g id="node14" class="node">
<title>Node14</title>
<g id="a_node14"><a xlink:href="../../d0/da9/classAnaTutorial.html#a3b64c061aaffaf4a42631434fb7eb6f9" target="_top" xlink:title="SubsysReco event processing method.">
<polygon fill="none" stroke="#000000" points="373.5,-282.5 373.5,-314.5 493.5,-314.5 493.5,-282.5 373.5,-282.5"/>
<text text-anchor="start" x="381.5" y="-301.5" font-family="FreeSans" font-size="10.00" fill="#000000">AnaTutorial::process</text>
<text text-anchor="middle" x="433.5" y="-289.5" font-family="FreeSans" font-size="10.00" fill="#000000">_event</text>
</a>
</g>
</g>
<!-- Node13&#45;&gt;Node14 -->
<g id="edge14" class="edge">
<title>Node13&#45;&gt;Node14</title>
<path fill="none" stroke="#191970" d="M299.7185,-302.3498C323.8291,-301.656 350.2367,-300.8961 373.1729,-300.236"/>
<polygon fill="#191970" stroke="#191970" points="299.438,-298.8564 289.5428,-302.6427 299.6394,-305.8535 299.438,-298.8564"/>
</g>
<!-- Node16 -->
<g id="node16" class="node">
<title>Node16</title>
<g id="a_node16"><a xlink:href="../../db/db5/classDISKinematicsReco.html#a4ea9fa36ccd955fd7cdfa7e7eaf1e534" target="_top" xlink:title="DISKinematicsReco::\lCollectEmCandidatesFromCluster">
<polygon fill="none" stroke="#000000" points="341,-231.5 341,-263.5 526,-263.5 526,-231.5 341,-231.5"/>
<text text-anchor="start" x="349" y="-250.5" font-family="FreeSans" font-size="10.00" fill="#000000">DISKinematicsReco::</text>
<text text-anchor="middle" x="433.5" y="-238.5" font-family="FreeSans" font-size="10.00" fill="#000000">CollectEmCandidatesFromCluster</text>
</a>
</g>
</g>
<!-- Node15&#45;&gt;Node16 -->
<g id="edge16" class="edge">
<title>Node15&#45;&gt;Node16</title>
<path fill="none" stroke="#191970" d="M314.3276,-254.3588C323.0903,-253.8545 331.9966,-253.3419 340.7919,-252.8357"/>
<polygon fill="#191970" stroke="#191970" points="313.9045,-250.8773 304.1222,-254.9462 314.3068,-257.8657 313.9045,-250.8773"/>
</g>
<!-- Node17 -->
<g id="node17" class="node">
<title>Node17</title>
<g id="a_node17"><a xlink:href="../../db/db5/classDISKinematicsReco.html#a6d03dc93ccee64fd4d931a06dad1ec55" target="_top" xlink:title="DISKinematicsReco::\lprocess_event">
<polygon fill="none" stroke="#000000" points="576,-231.5 576,-263.5 696,-263.5 696,-231.5 576,-231.5"/>
<text text-anchor="start" x="584" y="-250.5" font-family="FreeSans" font-size="10.00" fill="#000000">DISKinematicsReco::</text>
<text text-anchor="middle" x="636" y="-238.5" font-family="FreeSans" font-size="10.00" fill="#000000">process_event</text>
</a>
</g>
</g>
<!-- Node16&#45;&gt;Node17 -->
<g id="edge17" class="edge">
<title>Node16&#45;&gt;Node17</title>
<path fill="none" stroke="#191970" d="M536.4615,-247.5C549.9472,-247.5 563.3924,-247.5 575.8397,-247.5"/>
<polygon fill="#191970" stroke="#191970" points="536.1569,-244.0001 526.1569,-247.5 536.1569,-251.0001 536.1569,-244.0001"/>
</g>
<!-- Node22 -->
<g id="node22" class="node">
<title>Node22</title>
<g id="a_node22"><a xlink:href="../../dc/d41/classConversion.html#a5d2dd3e5fba175ce2ac24fa0cb9bb4be" target="_top" xlink:title="Uses the specified TMVA method to update and.">
<polygon fill="none" stroke="#000000" points="349,-423.5 349,-455.5 518,-455.5 518,-423.5 349,-423.5"/>
<text text-anchor="start" x="357" y="-442.5" font-family="FreeSans" font-size="10.00" fill="#000000">Conversion::correctSecondary</text>
<text text-anchor="middle" x="433.5" y="-430.5" font-family="FreeSans" font-size="10.00" fill="#000000">Vertex</text>
</a>
</g>
</g>
<!-- Node21&#45;&gt;Node22 -->
<g id="edge23" class="edge">
<title>Node21&#45;&gt;Node22</title>
<path fill="none" stroke="#191970" d="M271.0563,-395.2644C292.337,-401.1471 317.9477,-408.2052 341,-414.5 351.5915,-417.3922 362.8699,-420.4547 373.7772,-423.4076"/>
<polygon fill="#191970" stroke="#191970" points="271.87,-391.8581 261.2988,-392.5656 270.0039,-398.6048 271.87,-391.8581"/>
</g>
<!-- Node24 -->
<g id="node24" class="node">
<title>Node24</title>
<g id="a_node24"><a xlink:href="../../df/d9b/classRecoConversionEval.html#a7de16e316b2ebedef53f336a9c568c14" target="_top" xlink:title="Uses the TMVA method to correct the vtx radius.">
<polygon fill="none" stroke="#000000" points="361.5,-372.5 361.5,-404.5 505.5,-404.5 505.5,-372.5 361.5,-372.5"/>
<text text-anchor="start" x="369.5" y="-391.5" font-family="FreeSans" font-size="10.00" fill="#000000">RecoConversionEval</text>
<text text-anchor="middle" x="433.5" y="-379.5" font-family="FreeSans" font-size="10.00" fill="#000000">::correctSecondaryVertex</text>
</a>
</g>
</g>
<!-- Node21&#45;&gt;Node24 -->
<g id="edge27" class="edge">
<title>Node21&#45;&gt;Node24</title>
<path fill="none" stroke="#191970" d="M299.3404,-384.6393C319.5412,-385.2206 341.379,-385.849 361.4507,-386.4266"/>
<polygon fill="#191970" stroke="#191970" points="299.3547,-381.1384 289.2582,-384.3492 299.1533,-388.1355 299.3547,-381.1384"/>
</g>
<!-- Node22&#45;&gt;Node10 -->
<g id="edge26" class="edge">
<title>Node22&#45;&gt;Node10</title>
<path fill="none" stroke="#191970" d="M507.0933,-458.0346C529.4908,-463.6754 553.8437,-469.8088 575.29,-475.2101"/>
<polygon fill="#191970" stroke="#191970" points="507.8463,-454.615 497.2943,-455.5667 506.1367,-461.4031 507.8463,-454.615"/>
</g>
<!-- Node23 -->
<g id="node23" class="node">
<title>Node23</title>
<g id="a_node23"><a xlink:href="../../d9/d3a/classTruthConversionEval.html#a67e322163113e6ef65c9661d0fc80487" target="_top" xlink:title="fills the member fields for all the background trees">
<polygon fill="none" stroke="#000000" points="562,-423.5 562,-455.5 710,-455.5 710,-423.5 562,-423.5"/>
<text text-anchor="start" x="570" y="-442.5" font-family="FreeSans" font-size="10.00" fill="#000000">TruthConversionEval</text>
<text text-anchor="middle" x="636" y="-430.5" font-family="FreeSans" font-size="10.00" fill="#000000">::processTrackBackground</text>
</a>
</g>
</g>
<!-- Node22&#45;&gt;Node23 -->
<g id="edge24" class="edge">
<title>Node22&#45;&gt;Node23</title>
<path fill="none" stroke="#191970" d="M528.4773,-439.5C539.7117,-439.5 551.0495,-439.5 561.9347,-439.5"/>
<polygon fill="#191970" stroke="#191970" points="528.2049,-436.0001 518.2049,-439.5 528.2049,-443.0001 528.2049,-436.0001"/>
</g>
<!-- Node23&#45;&gt;Node12 -->
<g id="edge25" class="edge">
<title>Node23&#45;&gt;Node12</title>
<path fill="none" stroke="#191970" d="M720.4087,-439.5C777.514,-439.5 851.5959,-439.5 902.896,-439.5"/>
<polygon fill="#191970" stroke="#191970" points="720.3149,-436.0001 710.3148,-439.5 720.3148,-443.0001 720.3149,-436.0001"/>
</g>
<!-- Node25 -->
<g id="node25" class="node">
<title>Node25</title>
<g id="a_node25"><a xlink:href="../../df/d9b/classRecoConversionEval.html#a54bb2ea55f01b0d0dc8752fbee1bc237" target="_top" xlink:title="RecoConversionEval\l::process_event">
<polygon fill="none" stroke="#000000" points="576.5,-372.5 576.5,-404.5 695.5,-404.5 695.5,-372.5 576.5,-372.5"/>
<text text-anchor="start" x="584.5" y="-391.5" font-family="FreeSans" font-size="10.00" fill="#000000">RecoConversionEval</text>
<text text-anchor="middle" x="636" y="-379.5" font-family="FreeSans" font-size="10.00" fill="#000000">::process_event</text>
</a>
</g>
</g>
<!-- Node24&#45;&gt;Node25 -->
<g id="edge28" class="edge">
<title>Node24&#45;&gt;Node25</title>
<path fill="none" stroke="#191970" d="M515.9187,-388.5C536.1909,-388.5 557.507,-388.5 576.4602,-388.5"/>
<polygon fill="#191970" stroke="#191970" points="515.7496,-385.0001 505.7495,-388.5 515.7495,-392.0001 515.7496,-385.0001"/>
</g>
<!-- Node26&#45;&gt;Node10 -->
<g id="edge31" class="edge">
<title>Node26&#45;&gt;Node10</title>
<path fill="none" stroke="#191970" d="M507.6657,-486.6975C529.9606,-487.3581 554.1466,-488.0747 575.4491,-488.7059"/>
<polygon fill="#191970" stroke="#191970" points="507.6716,-483.1962 497.5723,-486.3984 507.4642,-490.1932 507.6716,-483.1962"/>
</g>
<!-- Node26&#45;&gt;Node23 -->
<g id="edge30" class="edge">
<title>Node26&#45;&gt;Node23</title>
<path fill="none" stroke="#191970" d="M494.052,-472.3296C504.7094,-470.1113 515.6882,-467.7772 526,-465.5 540.0839,-462.3898 555.148,-458.9223 569.4686,-455.5591"/>
<polygon fill="#191970" stroke="#191970" points="493.0491,-468.9629 483.9649,-474.4152 494.4665,-475.8179 493.0491,-468.9629"/>
</g>
<!-- Node27&#45;&gt;Node12 -->
<g id="edge33" class="edge">
<title>Node27&#45;&gt;Node12</title>
<path fill="none" stroke="#191970" d="M851.786,-389.6912C875.8001,-400.3981 904.8987,-413.372 927.3771,-423.3943"/>
<polygon fill="#191970" stroke="#191970" points="853.0776,-386.435 842.519,-385.5594 850.227,-392.8283 853.0776,-386.435"/>
</g>
</g>
</svg>
