<?xml version="1.0" encoding="UTF-8" standalone="no"?>
<!DOCTYPE svg PUBLIC "-//W3C//DTD SVG 1.1//EN"
 "http://www.w3.org/Graphics/SVG/1.1/DTD/svg11.dtd">
<!-- Generated by graphviz version 2.40.1 (20161225.0304)
 -->
<!-- Title: luxtot Pages: 1 -->
<svg width="219pt" height="29pt"
 viewBox="0.00 0.00 219.00 29.00" xmlns="http://www.w3.org/2000/svg" xmlns:xlink="http://www.w3.org/1999/xlink">
<g id="graph0" class="graph" transform="scale(1 1) rotate(0) translate(4 25)">
<title>luxtot</title>
<!-- Node1 -->
<g id="node1" class="node">
<title>Node1</title>
<polygon fill="#bfbfbf" stroke="#000000" points="0,-.5 0,-20.5 46,-20.5 46,-.5 0,-.5"/>
<text text-anchor="middle" x="23" y="-7.5" font-family="FreeSans" font-size="10.00" fill="#000000">luxtot</text>
</g>
<!-- Node2 -->
<g id="node2" class="node">
<title>Node2</title>
<g id="a_node2"><a xlink:href="../../d0/d65/lueevt_8f.html#add2076f5ebfddada6c0dddaeb75a4d55" target="_top" xlink:title="lueevt">
<polygon fill="none" stroke="#000000" points="82,-.5 82,-20.5 130,-20.5 130,-.5 82,-.5"/>
<text text-anchor="middle" x="106" y="-7.5" font-family="FreeSans" font-size="10.00" fill="#000000">lueevt</text>
</a>
</g>
</g>
<!-- Node1&#45;&gt;Node2 -->
<g id="edge1" class="edge">
<title>Node1&#45;&gt;Node2</title>
<path fill="none" stroke="#191970" d="M56.2208,-10.5C64.7858,-10.5 73.8413,-10.5 81.8466,-10.5"/>
<polygon fill="#191970" stroke="#191970" points="56.1202,-7.0001 46.1201,-10.5 56.1201,-14.0001 56.1202,-7.0001"/>
</g>
<!-- Node3 -->
<g id="node3" class="node">
<title>Node3</title>
<g id="a_node3"><a xlink:href="../../d8/da0/lutest_8f.html#af1bc51f2ef657321e77c99f61c52bc07" target="_top" xlink:title="lutest">
<polygon fill="none" stroke="#000000" points="166,-.5 166,-20.5 211,-20.5 211,-.5 166,-.5"/>
<text text-anchor="middle" x="188.5" y="-7.5" font-family="FreeSans" font-size="10.00" fill="#000000">lutest</text>
</a>
</g>
</g>
<!-- Node2&#45;&gt;Node3 -->
<g id="edge2" class="edge">
<title>Node2&#45;&gt;Node3</title>
<path fill="none" stroke="#191970" d="M140.4384,-10.5C148.9923,-10.5 157.948,-10.5 165.7791,-10.5"/>
<polygon fill="#191970" stroke="#191970" points="140.3065,-7.0001 130.3065,-10.5 140.3065,-14.0001 140.3065,-7.0001"/>
</g>
</g>
</svg>
