<?xml version="1.0" encoding="UTF-8" standalone="no"?>
<!DOCTYPE svg PUBLIC "-//W3C//DTD SVG 1.1//EN"
 "http://www.w3.org/Graphics/SVG/1.1/DTD/svg11.dtd">
<!-- Generated by graphviz version 2.40.1 (20161225.0304)
 -->
<!-- Title: macros/blob/master/macros/g4simulations/G4_Global.C Pages: 1 -->
<svg width="909pt" height="293pt"
 viewBox="0.00 0.00 908.50 293.00" xmlns="http://www.w3.org/2000/svg" xmlns:xlink="http://www.w3.org/1999/xlink">
<g id="graph0" class="graph" transform="scale(1 1) rotate(0) translate(4 289)">
<title>macros/blob/master/macros/g4simulations/G4_Global.C</title>
<!-- Node1 -->
<g id="node1" class="node">
<title>Node1</title>
<polygon fill="#bfbfbf" stroke="#000000" points="547.5,-240.5 547.5,-284.5 679.5,-284.5 679.5,-240.5 547.5,-240.5"/>
<text text-anchor="start" x="555.5" y="-271.5" font-family="FreeSans" font-size="10.00" fill="#000000">macros/blob/master</text>
<text text-anchor="start" x="555.5" y="-259.5" font-family="FreeSans" font-size="10.00" fill="#000000">/macros/g4simulations</text>
<text text-anchor="middle" x="613.5" y="-247.5" font-family="FreeSans" font-size="10.00" fill="#000000">/G4_Global.C</text>
</g>
<!-- Node2 -->
<g id="node2" class="node">
<title>Node2</title>
<g id="a_node2"><a xlink:href="../../dc/da2/Fun4AllServer_8h.html" target="_top" xlink:title="fun4all/Fun4AllServer.h">
<polygon fill="none" stroke="#000000" points="282,-177.5 282,-197.5 415,-197.5 415,-177.5 282,-177.5"/>
<text text-anchor="middle" x="348.5" y="-184.5" font-family="FreeSans" font-size="10.00" fill="#000000">fun4all/Fun4AllServer.h</text>
</a>
</g>
</g>
<!-- Node1&#45;&gt;Node2 -->
<g id="edge1" class="edge">
<title>Node1&#45;&gt;Node2</title>
<path fill="none" stroke="#191970" d="M547.3129,-243.7678C499.4841,-230.2314 436.1233,-212.299 393.9186,-200.3543"/>
<polygon fill="#191970" stroke="#191970" points="394.7702,-196.9579 384.195,-197.6024 392.8639,-203.6934 394.7702,-196.9579"/>
</g>
<!-- Node15 -->
<g id="node15" class="node">
<title>Node15</title>
<g id="a_node15"><a xlink:href="../../db/d46/GlobalVertexReco_8h.html" target="_top" xlink:title="reconstruct the best possible vertexes by combining results from multiple detectors">
<polygon fill="none" stroke="#000000" points="532,-177.5 532,-197.5 695,-197.5 695,-177.5 532,-177.5"/>
<text text-anchor="middle" x="613.5" y="-184.5" font-family="FreeSans" font-size="10.00" fill="#000000">g4vertex/GlobalVertexReco.h</text>
</a>
</g>
</g>
<!-- Node1&#45;&gt;Node15 -->
<g id="edge20" class="edge">
<title>Node1&#45;&gt;Node15</title>
<path fill="none" stroke="#191970" d="M613.5,-240.4032C613.5,-230.1059 613.5,-217.9331 613.5,-207.8616"/>
<polygon fill="#191970" stroke="#191970" points="617.0001,-207.5953 613.5,-197.5954 610.0001,-207.5954 617.0001,-207.5953"/>
</g>
<!-- Node17 -->
<g id="node17" class="node">
<title>Node17</title>
<g id="a_node17"><a xlink:href="../../df/d88/GlobalVertexFastSimReco_8h.html" target="_top" xlink:title="simple truth vertex smearing algorithm">
<polygon fill="none" stroke="#000000" points="715.5,-171.5 715.5,-203.5 865.5,-203.5 865.5,-171.5 715.5,-171.5"/>
<text text-anchor="start" x="723.5" y="-190.5" font-family="FreeSans" font-size="10.00" fill="#000000">g4vertex/GlobalVertexFast</text>
<text text-anchor="middle" x="790.5" y="-178.5" font-family="FreeSans" font-size="10.00" fill="#000000">SimReco.h</text>
</a>
</g>
</g>
<!-- Node1&#45;&gt;Node17 -->
<g id="edge25" class="edge">
<title>Node1&#45;&gt;Node17</title>
<path fill="none" stroke="#191970" d="M665.6485,-240.4032C690.225,-229.9894 719.3284,-217.6575 743.2513,-207.5207"/>
<polygon fill="#191970" stroke="#191970" points="744.6395,-210.7337 752.4815,-203.6095 741.9084,-204.2884 744.6395,-210.7337"/>
</g>
<!-- Node3 -->
<g id="node3" class="node">
<title>Node3</title>
<g id="a_node3"><a xlink:href="../../d2/de7/Fun4AllBase_8h.html" target="_top" xlink:title="Fun4AllBase.h">
<polygon fill="none" stroke="#000000" points="401,-57.5 401,-77.5 488,-77.5 488,-57.5 401,-57.5"/>
<text text-anchor="middle" x="444.5" y="-64.5" font-family="FreeSans" font-size="10.00" fill="#000000">Fun4AllBase.h</text>
</a>
</g>
</g>
<!-- Node2&#45;&gt;Node3 -->
<g id="edge2" class="edge">
<title>Node2&#45;&gt;Node3</title>
<path fill="none" stroke="#191970" d="M356.1243,-177.4187C366.946,-163.1674 387.454,-136.3723 405.5,-114 413.1405,-104.5278 421.8253,-94.1375 429.0568,-85.5855"/>
<polygon fill="#191970" stroke="#191970" points="431.9067,-87.6367 435.7115,-77.7485 426.5709,-83.1058 431.9067,-87.6367"/>
</g>
<!-- Node5 -->
<g id="node5" class="node">
<title>Node5</title>
<polygon fill="none" stroke="#bfbfbf" points="494,-.5 494,-20.5 539,-20.5 539,-.5 494,-.5"/>
<text text-anchor="middle" x="516.5" y="-7.5" font-family="FreeSans" font-size="10.00" fill="#000000">string</text>
</g>
<!-- Node2&#45;&gt;Node5 -->
<g id="edge17" class="edge">
<title>Node2&#45;&gt;Node5</title>
<path fill="none" stroke="#191970" d="M348.9714,-177.1634C350.6275,-152.8956 358.078,-91.7112 391.5,-57 398.2056,-50.0358 449.3645,-32.367 484.1203,-20.9251"/>
<polygon fill="#191970" stroke="#191970" points="485.458,-24.17 493.8747,-17.735 483.2821,-17.5168 485.458,-24.17"/>
</g>
<!-- Node6 -->
<g id="node6" class="node">
<title>Node6</title>
<g id="a_node6"><a xlink:href="../../d0/d59/Fun4AllHistoManager_8h.html" target="_top" xlink:title="Fun4AllHistoManager.h">
<polygon fill="none" stroke="#000000" points="414.5,-114.5 414.5,-134.5 546.5,-134.5 546.5,-114.5 414.5,-114.5"/>
<text text-anchor="middle" x="480.5" y="-121.5" font-family="FreeSans" font-size="10.00" fill="#000000">Fun4AllHistoManager.h</text>
</a>
</g>
</g>
<!-- Node2&#45;&gt;Node6 -->
<g id="edge5" class="edge">
<title>Node2&#45;&gt;Node6</title>
<path fill="none" stroke="#191970" d="M369.7081,-177.378C391.4541,-166.9992 425.4836,-150.7578 450.093,-139.0124"/>
<polygon fill="#191970" stroke="#191970" points="451.8273,-142.063 459.3445,-134.5969 448.8122,-135.7456 451.8273,-142.063"/>
</g>
<!-- Node7 -->
<g id="node7" class="node">
<title>Node7</title>
<polygon fill="none" stroke="#bfbfbf" points="545,-57.5 545,-77.5 584,-77.5 584,-57.5 545,-57.5"/>
<text text-anchor="middle" x="564.5" y="-64.5" font-family="FreeSans" font-size="10.00" fill="#000000">map</text>
</g>
<!-- Node2&#45;&gt;Node7 -->
<g id="edge16" class="edge">
<title>Node2&#45;&gt;Node7</title>
<path fill="none" stroke="#191970" d="M415.0094,-178.7999C468.2119,-170.4148 536.8857,-155.9058 555.5,-135 566.7768,-122.335 568.2422,-102.6716 567.3507,-87.8282"/>
<polygon fill="#191970" stroke="#191970" points="570.8072,-87.2165 566.333,-77.6128 563.8416,-87.9105 570.8072,-87.2165"/>
</g>
<!-- Node8 -->
<g id="node8" class="node">
<title>Node8</title>
<g id="a_node8"><a xlink:href="../../dc/d26/PHTimer_8h.html" target="_top" xlink:title="high precision timer">
<polygon fill="none" stroke="#000000" points="183,-114.5 183,-134.5 282,-134.5 282,-114.5 183,-114.5"/>
<text text-anchor="middle" x="232.5" y="-121.5" font-family="FreeSans" font-size="10.00" fill="#000000">phool/PHTimer.h</text>
</a>
</g>
</g>
<!-- Node2&#45;&gt;Node8 -->
<g id="edge9" class="edge">
<title>Node2&#45;&gt;Node8</title>
<path fill="none" stroke="#191970" d="M329.8626,-177.378C311.0061,-167.137 281.6398,-151.188 260.0868,-139.4825"/>
<polygon fill="#191970" stroke="#191970" points="261.5492,-136.2939 251.0912,-134.5969 258.2084,-142.4452 261.5492,-136.2939"/>
</g>
<!-- Node11 -->
<g id="node11" class="node">
<title>Node11</title>
<polygon fill="none" stroke="#bfbfbf" points="270.5,-57.5 270.5,-77.5 330.5,-77.5 330.5,-57.5 270.5,-57.5"/>
<text text-anchor="middle" x="300.5" y="-64.5" font-family="FreeSans" font-size="10.00" fill="#000000">iostream</text>
</g>
<!-- Node2&#45;&gt;Node11 -->
<g id="edge15" class="edge">
<title>Node2&#45;&gt;Node11</title>
<path fill="none" stroke="#191970" d="M344.4075,-177.2689C336.4371,-157.3429 318.7108,-113.027 308.3842,-87.2104"/>
<polygon fill="#191970" stroke="#191970" points="311.5457,-85.6901 304.5821,-77.7052 305.0464,-88.2899 311.5457,-85.6901"/>
</g>
<!-- Node13 -->
<g id="node13" class="node">
<title>Node13</title>
<polygon fill="none" stroke="#bfbfbf" points="53,-114.5 53,-134.5 98,-134.5 98,-114.5 53,-114.5"/>
<text text-anchor="middle" x="75.5" y="-121.5" font-family="FreeSans" font-size="10.00" fill="#000000">utility</text>
</g>
<!-- Node2&#45;&gt;Node13 -->
<g id="edge18" class="edge">
<title>Node2&#45;&gt;Node13</title>
<path fill="none" stroke="#191970" d="M293.7669,-177.4592C246.6514,-168.4022 176.727,-153.9776 107.8105,-135.1656"/>
<polygon fill="#191970" stroke="#191970" points="108.6662,-131.771 98.0953,-132.4821 106.8025,-138.5183 108.6662,-131.771"/>
</g>
<!-- Node14 -->
<g id="node14" class="node">
<title>Node14</title>
<polygon fill="none" stroke="#bfbfbf" points="116,-114.5 116,-134.5 165,-134.5 165,-114.5 116,-114.5"/>
<text text-anchor="middle" x="140.5" y="-121.5" font-family="FreeSans" font-size="10.00" fill="#000000">vector</text>
</g>
<!-- Node2&#45;&gt;Node14 -->
<g id="edge19" class="edge">
<title>Node2&#45;&gt;Node14</title>
<path fill="none" stroke="#191970" d="M314.2455,-177.4064C280.9293,-167.5489 228.639,-151.9711 175.0208,-135.4426"/>
<polygon fill="#191970" stroke="#191970" points="175.9399,-132.0634 165.3524,-132.4562 173.874,-138.7516 175.9399,-132.0634"/>
</g>
<!-- Node4 -->
<g id="node4" class="node">
<title>Node4</title>
<polygon fill="none" stroke="#bfbfbf" points="420,-.5 420,-20.5 469,-20.5 469,-.5 420,-.5"/>
<text text-anchor="middle" x="444.5" y="-7.5" font-family="FreeSans" font-size="10.00" fill="#000000">climits</text>
</g>
<!-- Node3&#45;&gt;Node4 -->
<g id="edge3" class="edge">
<title>Node3&#45;&gt;Node4</title>
<path fill="none" stroke="#191970" d="M444.5,-57.3095C444.5,-49.9335 444.5,-39.72 444.5,-30.715"/>
<polygon fill="#191970" stroke="#191970" points="448.0001,-30.6022 444.5,-20.6022 441.0001,-30.6023 448.0001,-30.6022"/>
</g>
<!-- Node3&#45;&gt;Node5 -->
<g id="edge4" class="edge">
<title>Node3&#45;&gt;Node5</title>
<path fill="none" stroke="#191970" d="M457.3722,-57.3095C468.0203,-48.8798 483.3498,-36.7439 495.7318,-26.9415"/>
<polygon fill="#191970" stroke="#191970" points="498.0713,-29.5535 503.7393,-20.6022 493.7263,-24.0651 498.0713,-29.5535"/>
</g>
<!-- Node6&#45;&gt;Node3 -->
<g id="edge6" class="edge">
<title>Node6&#45;&gt;Node3</title>
<path fill="none" stroke="#191970" d="M474.0639,-114.3095C469.1494,-106.5282 462.2404,-95.589 456.3372,-86.2423"/>
<polygon fill="#191970" stroke="#191970" points="459.1796,-84.1881 450.8804,-77.6022 453.2611,-87.9261 459.1796,-84.1881"/>
</g>
<!-- Node6&#45;&gt;Node5 -->
<g id="edge8" class="edge">
<title>Node6&#45;&gt;Node5</title>
<path fill="none" stroke="#191970" d="M484.1875,-114.2003C487.5166,-104.8058 492.4926,-90.5221 496.5,-78 501.6148,-62.0176 506.996,-43.7631 510.8866,-30.2707"/>
<polygon fill="#191970" stroke="#191970" points="514.2661,-31.1825 513.6537,-20.6054 507.5365,-29.2558 514.2661,-31.1825"/>
</g>
<!-- Node6&#45;&gt;Node7 -->
<g id="edge7" class="edge">
<title>Node6&#45;&gt;Node7</title>
<path fill="none" stroke="#191970" d="M495.5175,-114.3095C508.1792,-105.7177 526.5147,-93.2758 541.1,-83.3786"/>
<polygon fill="#191970" stroke="#191970" points="543.303,-86.1135 549.6125,-77.6022 539.3725,-80.3211 543.303,-86.1135"/>
</g>
<!-- Node8&#45;&gt;Node5 -->
<g id="edge13" class="edge">
<title>Node8&#45;&gt;Node5</title>
<path fill="none" stroke="#191970" d="M233.7899,-114.4313C236.2826,-99.3985 243.2343,-71.3254 261.5,-57 338.0813,3.0609 382.3973,-41.6756 477.5,-21 479.6712,-20.528 481.9024,-20.0119 484.1455,-19.47"/>
<polygon fill="#191970" stroke="#191970" points="485.0797,-22.8439 493.9069,-16.9845 483.3524,-16.0603 485.0797,-22.8439"/>
</g>
<!-- Node9 -->
<g id="node9" class="node">
<title>Node9</title>
<polygon fill="none" stroke="#bfbfbf" points="0,-57.5 0,-77.5 57,-77.5 57,-57.5 0,-57.5"/>
<text text-anchor="middle" x="28.5" y="-64.5" font-family="FreeSans" font-size="10.00" fill="#000000">unistd.h</text>
</g>
<!-- Node8&#45;&gt;Node9 -->
<g id="edge10" class="edge">
<title>Node8&#45;&gt;Node9</title>
<path fill="none" stroke="#191970" d="M196.3255,-114.4831C164.5388,-105.6687 116.7759,-92.3945 66.8546,-78.3731"/>
<polygon fill="#191970" stroke="#191970" points="67.7533,-74.9902 57.1793,-75.6538 65.8592,-81.7291 67.7533,-74.9902"/>
</g>
<!-- Node10 -->
<g id="node10" class="node">
<title>Node10</title>
<polygon fill="none" stroke="#bfbfbf" points="75,-57.5 75,-77.5 140,-77.5 140,-57.5 75,-57.5"/>
<text text-anchor="middle" x="107.5" y="-64.5" font-family="FreeSans" font-size="10.00" fill="#000000">exception</text>
</g>
<!-- Node8&#45;&gt;Node10 -->
<g id="edge11" class="edge">
<title>Node8&#45;&gt;Node10</title>
<path fill="none" stroke="#191970" d="M210.4402,-114.4408C190.659,-105.4205 161.4063,-92.0813 139.135,-81.9255"/>
<polygon fill="#191970" stroke="#191970" points="140.3105,-78.6149 129.7597,-77.6504 137.4062,-84.984 140.3105,-78.6149"/>
</g>
<!-- Node8&#45;&gt;Node11 -->
<g id="edge12" class="edge">
<title>Node8&#45;&gt;Node11</title>
<path fill="none" stroke="#191970" d="M244.657,-114.3095C254.6169,-105.9608 268.9135,-93.9769 280.5475,-84.2249"/>
<polygon fill="#191970" stroke="#191970" points="283.0329,-86.7086 288.4482,-77.6022 278.5361,-81.344 283.0329,-86.7086"/>
</g>
<!-- Node12 -->
<g id="node12" class="node">
<title>Node12</title>
<polygon fill="none" stroke="#bfbfbf" points="158.5,-57.5 158.5,-77.5 214.5,-77.5 214.5,-57.5 158.5,-57.5"/>
<text text-anchor="middle" x="186.5" y="-64.5" font-family="FreeSans" font-size="10.00" fill="#000000">sstream</text>
</g>
<!-- Node8&#45;&gt;Node12 -->
<g id="edge14" class="edge">
<title>Node8&#45;&gt;Node12</title>
<path fill="none" stroke="#191970" d="M224.2761,-114.3095C217.8656,-106.3661 208.7994,-95.1319 201.1556,-85.6602"/>
<polygon fill="#191970" stroke="#191970" points="203.6566,-83.1862 194.6527,-77.6022 198.2092,-87.5823 203.6566,-83.1862"/>
</g>
<!-- Node15&#45;&gt;Node5 -->
<g id="edge24" class="edge">
<title>Node15&#45;&gt;Node5</title>
<path fill="none" stroke="#191970" d="M614.5654,-177.3225C616.483,-153.9111 618.1864,-95.3108 592.5,-57 582.0137,-41.3599 564.315,-30.0796 548.6344,-22.5492"/>
<polygon fill="#191970" stroke="#191970" points="549.7722,-19.2242 539.2144,-18.3397 546.9163,-25.6151 549.7722,-19.2242"/>
</g>
<!-- Node16 -->
<g id="node16" class="node">
<title>Node16</title>
<g id="a_node16"><a xlink:href="../../d5/dc2/SubsysReco_8h.html" target="_top" xlink:title="fun4all/SubsysReco.h">
<polygon fill="none" stroke="#000000" points="640.5,-114.5 640.5,-134.5 764.5,-134.5 764.5,-114.5 640.5,-114.5"/>
<text text-anchor="middle" x="702.5" y="-121.5" font-family="FreeSans" font-size="10.00" fill="#000000">fun4all/SubsysReco.h</text>
</a>
</g>
</g>
<!-- Node15&#45;&gt;Node16 -->
<g id="edge21" class="edge">
<title>Node15&#45;&gt;Node16</title>
<path fill="none" stroke="#191970" d="M627.7994,-177.378C641.8127,-167.4584 663.3913,-152.1837 679.7597,-140.597"/>
<polygon fill="#191970" stroke="#191970" points="682.0962,-143.2313 688.2361,-134.5969 678.0518,-137.5179 682.0962,-143.2313"/>
</g>
<!-- Node16&#45;&gt;Node3 -->
<g id="edge22" class="edge">
<title>Node16&#45;&gt;Node3</title>
<path fill="none" stroke="#191970" d="M656.9687,-114.4408C612.6285,-104.6447 545.2316,-89.7547 498.2747,-79.3805"/>
<polygon fill="#191970" stroke="#191970" points="498.8052,-75.9133 488.2856,-77.1736 497.295,-82.7485 498.8052,-75.9133"/>
</g>
<!-- Node16&#45;&gt;Node5 -->
<g id="edge23" class="edge">
<title>Node16&#45;&gt;Node5</title>
<path fill="none" stroke="#191970" d="M693.0308,-114.1894C679.4293,-99.8513 653.0623,-73.7677 626.5,-57 601.9115,-41.4782 571.2502,-29.0074 548.5496,-20.9032"/>
<polygon fill="#191970" stroke="#191970" points="549.635,-17.5751 539.0402,-17.5965 547.3359,-24.1868 549.635,-17.5751"/>
</g>
<!-- Node17&#45;&gt;Node5 -->
<g id="edge28" class="edge">
<title>Node17&#45;&gt;Node5</title>
<path fill="none" stroke="#191970" d="M790.6628,-171.4444C790.0122,-155.2824 786.6884,-130.4533 773.5,-114 716.9751,-43.4821 604.9823,-20.7238 549.3914,-13.6055"/>
<polygon fill="#191970" stroke="#191970" points="549.719,-10.1199 539.3759,-12.4155 548.893,-17.071 549.719,-10.1199"/>
</g>
<!-- Node17&#45;&gt;Node16 -->
<g id="edge26" class="edge">
<title>Node17&#45;&gt;Node16</title>
<path fill="none" stroke="#191970" d="M767.8378,-171.2759C754.68,-161.8561 738.1631,-150.0315 725.0282,-140.6281"/>
<polygon fill="#191970" stroke="#191970" points="726.7264,-137.5395 716.5579,-134.5642 722.6516,-143.2312 726.7264,-137.5395"/>
</g>
<!-- Node18 -->
<g id="node18" class="node">
<title>Node18</title>
<polygon fill="none" stroke="#bfbfbf" points="820.5,-114.5 820.5,-134.5 900.5,-134.5 900.5,-114.5 820.5,-114.5"/>
<text text-anchor="middle" x="860.5" y="-121.5" font-family="FreeSans" font-size="10.00" fill="#000000">gsl/gsl_rng.h</text>
</g>
<!-- Node17&#45;&gt;Node18 -->
<g id="edge27" class="edge">
<title>Node17&#45;&gt;Node18</title>
<path fill="none" stroke="#191970" d="M808.5267,-171.2759C818.6274,-162.1854 831.2164,-150.8552 841.4746,-141.6229"/>
<polygon fill="#191970" stroke="#191970" points="844.0181,-144.0425 849.1097,-134.7513 839.3353,-138.8394 844.0181,-144.0425"/>
</g>
</g>
</svg>
