<?xml version="1.0" encoding="UTF-8" standalone="no"?>
<!DOCTYPE svg PUBLIC "-//W3C//DTD SVG 1.1//EN"
 "http://www.w3.org/Graphics/SVG/1.1/DTD/svg11.dtd">
<!-- Generated by graphviz version 2.40.1 (20161225.0304)
 -->
<!-- Title: boost::atomic_store_explicit Pages: 1 -->
<svg width="450pt" height="41pt"
 viewBox="0.00 0.00 450.00 41.00" xmlns="http://www.w3.org/2000/svg" xmlns:xlink="http://www.w3.org/1999/xlink">
<g id="graph0" class="graph" transform="scale(1 1) rotate(0) translate(4 37)">
<title>boost::atomic_store_explicit</title>
<!-- Node1 -->
<g id="node1" class="node">
<title>Node1</title>
<polygon fill="#bfbfbf" stroke="#000000" points="0,-.5 0,-32.5 116,-32.5 116,-.5 0,-.5"/>
<text text-anchor="start" x="8" y="-19.5" font-family="FreeSans" font-size="10.00" fill="#000000">boost::atomic_store</text>
<text text-anchor="middle" x="58" y="-7.5" font-family="FreeSans" font-size="10.00" fill="#000000">_explicit</text>
</g>
<!-- Node2 -->
<g id="node2" class="node">
<title>Node2</title>
<g id="a_node2"><a xlink:href="../../d4/da9/namespaceboost.html#a8ad2de7e358794f915f6324942ff57d7" target="_top" xlink:title="boost::atomic_store">
<polygon fill="none" stroke="#000000" points="152,-6.5 152,-26.5 268,-26.5 268,-6.5 152,-6.5"/>
<text text-anchor="middle" x="210" y="-13.5" font-family="FreeSans" font-size="10.00" fill="#000000">boost::atomic_store</text>
</a>
</g>
</g>
<!-- Node1&#45;&gt;Node2 -->
<g id="edge1" class="edge">
<title>Node1&#45;&gt;Node2</title>
<path fill="none" stroke="#191970" d="M116.3325,-16.5C124.6057,-16.5 133.1747,-16.5 141.617,-16.5"/>
<polygon fill="#191970" stroke="#191970" points="141.8237,-20.0001 151.8236,-16.5 141.8236,-13.0001 141.8237,-20.0001"/>
</g>
<!-- Node3 -->
<g id="node3" class="node">
<title>Node3</title>
<g id="a_node3"><a xlink:href="../../da/d18/classboost_1_1shared__ptr.html#a35e547e16fa205e5d727929789fd7ac9" target="_top" xlink:title="boost::shared_ptr::swap">
<polygon fill="none" stroke="#000000" points="304,-6.5 304,-26.5 442,-26.5 442,-6.5 304,-6.5"/>
<text text-anchor="middle" x="373" y="-13.5" font-family="FreeSans" font-size="10.00" fill="#000000">boost::shared_ptr::swap</text>
</a>
</g>
</g>
<!-- Node2&#45;&gt;Node3 -->
<g id="edge2" class="edge">
<title>Node2&#45;&gt;Node3</title>
<path fill="none" stroke="#191970" d="M268.3863,-16.5C276.6592,-16.5 285.2785,-16.5 293.8627,-16.5"/>
<polygon fill="#191970" stroke="#191970" points="293.9011,-20.0001 303.901,-16.5 293.901,-13.0001 293.9011,-20.0001"/>
</g>
</g>
</svg>
