<?xml version="1.0" encoding="UTF-8" standalone="no"?>
<!DOCTYPE svg PUBLIC "-//W3C//DTD SVG 1.1//EN"
 "http://www.w3.org/Graphics/SVG/1.1/DTD/svg11.dtd">
<!-- Generated by graphviz version 2.40.1 (20161225.0304)
 -->
<!-- Title: PHParameterInterface::get_int_param Pages: 1 -->
<svg width="329pt" height="194pt"
 viewBox="0.00 0.00 329.00 194.00" xmlns="http://www.w3.org/2000/svg" xmlns:xlink="http://www.w3.org/1999/xlink">
<g id="graph0" class="graph" transform="scale(1 1) rotate(0) translate(4 190)">
<title>PHParameterInterface::get_int_param</title>
<!-- Node1 -->
<g id="node1" class="node">
<title>Node1</title>
<polygon fill="#bfbfbf" stroke="#000000" points="0,-76.5 0,-108.5 127,-108.5 127,-76.5 0,-76.5"/>
<text text-anchor="start" x="8" y="-95.5" font-family="FreeSans" font-size="10.00" fill="#000000">PHParameterInterface</text>
<text text-anchor="middle" x="63.5" y="-83.5" font-family="FreeSans" font-size="10.00" fill="#000000">::get_int_param</text>
</g>
<!-- Node2 -->
<g id="node2" class="node">
<title>Node2</title>
<g id="a_node2"><a xlink:href="../../d6/d1b/classPrototype2RawTowerBuilder.html#ac5d83bd0e9b8325c27dba83fc67b1111" target="_top" xlink:title="Prototype2RawTowerBuilder\l::InitRun">
<polygon fill="none" stroke="#000000" points="163,-153.5 163,-185.5 321,-185.5 321,-153.5 163,-153.5"/>
<text text-anchor="start" x="171" y="-172.5" font-family="FreeSans" font-size="10.00" fill="#000000">Prototype2RawTowerBuilder</text>
<text text-anchor="middle" x="242" y="-160.5" font-family="FreeSans" font-size="10.00" fill="#000000">::InitRun</text>
</a>
</g>
</g>
<!-- Node1&#45;&gt;Node2 -->
<g id="edge1" class="edge">
<title>Node1&#45;&gt;Node2</title>
<path fill="none" stroke="#191970" d="M100.1293,-113.61C118.6119,-123.7511 141.5992,-135.6021 163,-144.5 170.5715,-147.648 178.6877,-150.6336 186.7309,-153.3729"/>
<polygon fill="#191970" stroke="#191970" points="101.6183,-110.4335 91.1765,-108.639 98.2202,-116.5534 101.6183,-110.4335"/>
</g>
<!-- Node3 -->
<g id="node3" class="node">
<title>Node3</title>
<g id="a_node3"><a xlink:href="../../d1/dec/classHcalRawTowerBuilder.html#a7905b60d52f4f69f900e45859a894533" target="_top" xlink:title="HcalRawTowerBuilder\l::InitRun">
<polygon fill="none" stroke="#000000" points="179.5,-102.5 179.5,-134.5 304.5,-134.5 304.5,-102.5 179.5,-102.5"/>
<text text-anchor="start" x="187.5" y="-121.5" font-family="FreeSans" font-size="10.00" fill="#000000">HcalRawTowerBuilder</text>
<text text-anchor="middle" x="242" y="-109.5" font-family="FreeSans" font-size="10.00" fill="#000000">::InitRun</text>
</a>
</g>
</g>
<!-- Node1&#45;&gt;Node3 -->
<g id="edge2" class="edge">
<title>Node1&#45;&gt;Node3</title>
<path fill="none" stroke="#191970" d="M137.234,-103.24C151.1869,-105.2723 165.6619,-107.3807 179.2377,-109.3582"/>
<polygon fill="#191970" stroke="#191970" points="137.5867,-99.7545 127.1866,-101.7765 136.5777,-106.6814 137.5867,-99.7545"/>
</g>
<!-- Node4 -->
<g id="node4" class="node">
<title>Node4</title>
<g id="a_node4"><a xlink:href="../../db/d1c/classPHG4TpcPadPlaneSimple.html#acb0e4976d000a896da086b76bfab1ea0" target="_top" xlink:title="PHG4TpcPadPlaneSimple\l::UpdateInternalParameters">
<polygon fill="none" stroke="#000000" points="164,-51.5 164,-83.5 320,-83.5 320,-51.5 164,-51.5"/>
<text text-anchor="start" x="172" y="-70.5" font-family="FreeSans" font-size="10.00" fill="#000000">PHG4TpcPadPlaneSimple</text>
<text text-anchor="middle" x="242" y="-58.5" font-family="FreeSans" font-size="10.00" fill="#000000">::UpdateInternalParameters</text>
</a>
</g>
</g>
<!-- Node1&#45;&gt;Node4 -->
<g id="edge3" class="edge">
<title>Node1&#45;&gt;Node4</title>
<path fill="none" stroke="#191970" d="M137.3759,-82.1532C146.1537,-80.9239 155.1361,-79.6658 163.9695,-78.4286"/>
<polygon fill="#191970" stroke="#191970" points="136.6045,-78.727 127.1866,-83.5803 137.5755,-85.6594 136.6045,-78.727"/>
</g>
<!-- Node5 -->
<g id="node5" class="node">
<title>Node5</title>
<g id="a_node5"><a xlink:href="../../d7/d6c/classPHG4TpcPadPlaneReadout.html#a107f6ca74cbd69883b54860aa9de7015" target="_top" xlink:title="PHG4TpcPadPlaneReadout\l::UpdateInternalParameters">
<polygon fill="none" stroke="#000000" points="164,-.5 164,-32.5 320,-32.5 320,-.5 164,-.5"/>
<text text-anchor="start" x="172" y="-19.5" font-family="FreeSans" font-size="10.00" fill="#000000">PHG4TpcPadPlaneReadout</text>
<text text-anchor="middle" x="242" y="-7.5" font-family="FreeSans" font-size="10.00" fill="#000000">::UpdateInternalParameters</text>
</a>
</g>
</g>
<!-- Node1&#45;&gt;Node5 -->
<g id="edge4" class="edge">
<title>Node1&#45;&gt;Node5</title>
<path fill="none" stroke="#191970" d="M101.4671,-71.7628C119.7681,-62.198 142.212,-51.0888 163,-42.5 171.4072,-39.0264 180.461,-35.6879 189.3338,-32.6283"/>
<polygon fill="#191970" stroke="#191970" points="99.7824,-68.6943 92.5739,-76.4588 103.0511,-74.8843 99.7824,-68.6943"/>
</g>
</g>
</svg>
