<?xml version="1.0" encoding="UTF-8" standalone="no"?>
<!DOCTYPE svg PUBLIC "-//W3C//DTD SVG 1.1//EN"
 "http://www.w3.org/Graphics/SVG/1.1/DTD/svg11.dtd">
<!-- Generated by graphviz version 2.40.1 (20161225.0304)
 -->
<!-- Title: coresoftware/blob/master/offline/packages/trackbase_historic/SvtxHitMap_v1.h Pages: 1 -->
<svg width="508pt" height="281pt"
 viewBox="0.00 0.00 507.68 281.00" xmlns="http://www.w3.org/2000/svg" xmlns:xlink="http://www.w3.org/1999/xlink">
<g id="graph0" class="graph" transform="scale(1 1) rotate(0) translate(4 277)">
<title>coresoftware/blob/master/offline/packages/trackbase_historic/SvtxHitMap_v1.h</title>
<!-- Node1 -->
<g id="node1" class="node">
<title>Node1</title>
<polygon fill="#bfbfbf" stroke="#000000" points="230.6802,-228.5 230.6802,-272.5 387.6802,-272.5 387.6802,-228.5 230.6802,-228.5"/>
<text text-anchor="start" x="238.6802" y="-259.5" font-family="FreeSans" font-size="10.00" fill="#000000">coresoftware/blob/master</text>
<text text-anchor="start" x="238.6802" y="-247.5" font-family="FreeSans" font-size="10.00" fill="#000000">/offline/packages/trackbase</text>
<text text-anchor="middle" x="309.1802" y="-235.5" font-family="FreeSans" font-size="10.00" fill="#000000">_historic/SvtxHitMap_v1.h</text>
</g>
<!-- Node2 -->
<g id="node2" class="node">
<title>Node2</title>
<g id="a_node2"><a xlink:href="../../d2/dd4/SvtxHit_8h.html" target="_top" xlink:title="SvtxHit.h">
<polygon fill="none" stroke="#000000" points="242.1802,-114.5 242.1802,-134.5 304.1802,-134.5 304.1802,-114.5 242.1802,-114.5"/>
<text text-anchor="middle" x="273.1802" y="-121.5" font-family="FreeSans" font-size="10.00" fill="#000000">SvtxHit.h</text>
</a>
</g>
</g>
<!-- Node1&#45;&gt;Node2 -->
<g id="edge1" class="edge">
<title>Node1&#45;&gt;Node2</title>
<path fill="none" stroke="#191970" d="M302.827,-228.2638C296.031,-204.4778 285.3533,-167.1058 278.8375,-144.3007"/>
<polygon fill="#191970" stroke="#191970" points="282.1996,-143.3273 276.0869,-134.6736 275.4689,-145.2504 282.1996,-143.3273"/>
</g>
<!-- Node7 -->
<g id="node7" class="node">
<title>Node7</title>
<polygon fill="none" stroke="#bfbfbf" points="242.1802,-.5 242.1802,-20.5 302.1802,-20.5 302.1802,-.5 242.1802,-.5"/>
<text text-anchor="middle" x="272.1802" y="-7.5" font-family="FreeSans" font-size="10.00" fill="#000000">iostream</text>
</g>
<!-- Node1&#45;&gt;Node7 -->
<g id="edge15" class="edge">
<title>Node1&#45;&gt;Node7</title>
<path fill="none" stroke="#191970" d="M230.6023,-230.5182C157.4383,-207.2753 52.6077,-161.0257 4.1802,-78 -.5223,-69.9379 -1.8289,-64.1415 4.1802,-57 18.7057,-39.7372 160.8874,-22.3354 232.0427,-14.6218"/>
<polygon fill="#191970" stroke="#191970" points="232.4316,-18.1002 242.002,-13.5552 231.6861,-11.14 232.4316,-18.1002"/>
</g>
<!-- Node9 -->
<g id="node9" class="node">
<title>Node9</title>
<g id="a_node9"><a xlink:href="../../d3/dfe/SvtxHitMap_8h.html" target="_top" xlink:title="SvtxHitMap.h">
<polygon fill="none" stroke="#000000" points="307.6802,-171.5 307.6802,-191.5 390.6802,-191.5 390.6802,-171.5 307.6802,-171.5"/>
<text text-anchor="middle" x="349.1802" y="-178.5" font-family="FreeSans" font-size="10.00" fill="#000000">SvtxHitMap.h</text>
</a>
</g>
</g>
<!-- Node1&#45;&gt;Node9 -->
<g id="edge9" class="edge">
<title>Node1&#45;&gt;Node9</title>
<path fill="none" stroke="#191970" d="M322.0566,-228.2882C327.2338,-219.3575 333.1435,-209.1632 338.1223,-200.5749"/>
<polygon fill="#191970" stroke="#191970" points="341.2719,-202.1205 343.2592,-191.7137 335.2159,-198.6097 341.2719,-202.1205"/>
</g>
<!-- Node11 -->
<g id="node11" class="node">
<title>Node11</title>
<polygon fill="none" stroke="#bfbfbf" points="409.1802,-171.5 409.1802,-191.5 463.1802,-191.5 463.1802,-171.5 409.1802,-171.5"/>
<text text-anchor="middle" x="436.1802" y="-178.5" font-family="FreeSans" font-size="10.00" fill="#000000">cstddef</text>
</g>
<!-- Node1&#45;&gt;Node11 -->
<g id="edge14" class="edge">
<title>Node1&#45;&gt;Node11</title>
<path fill="none" stroke="#191970" d="M349.713,-228.4783C368.9455,-218.0291 391.4266,-205.815 408.6445,-196.4603"/>
<polygon fill="#191970" stroke="#191970" points="410.4985,-199.4363 417.6145,-191.5869 407.1567,-193.2855 410.4985,-199.4363"/>
</g>
<!-- Node3 -->
<g id="node3" class="node">
<title>Node3</title>
<g id="a_node3"><a xlink:href="../../d5/d61/PHG4CellDefs_8h.html" target="_top" xlink:title="g4detectors/PHG4CellDefs.h">
<polygon fill="none" stroke="#000000" points="13.6802,-57.5 13.6802,-77.5 172.6802,-77.5 172.6802,-57.5 13.6802,-57.5"/>
<text text-anchor="middle" x="93.1802" y="-64.5" font-family="FreeSans" font-size="10.00" fill="#000000">g4detectors/PHG4CellDefs.h</text>
</a>
</g>
</g>
<!-- Node2&#45;&gt;Node3 -->
<g id="edge2" class="edge">
<title>Node2&#45;&gt;Node3</title>
<path fill="none" stroke="#191970" d="M241.8266,-114.5714C212.0686,-105.148 167.1597,-90.9268 134.493,-80.5824"/>
<polygon fill="#191970" stroke="#191970" points="135.3685,-77.1884 124.7784,-77.5061 133.2552,-83.8618 135.3685,-77.1884"/>
</g>
<!-- Node5 -->
<g id="node5" class="node">
<title>Node5</title>
<g id="a_node5"><a xlink:href="../../df/d32/PHObject_8h.html" target="_top" xlink:title="phool/PHObject.h">
<polygon fill="none" stroke="#000000" points="300.1802,-57.5 300.1802,-77.5 404.1802,-77.5 404.1802,-57.5 300.1802,-57.5"/>
<text text-anchor="middle" x="352.1802" y="-64.5" font-family="FreeSans" font-size="10.00" fill="#000000">phool/PHObject.h</text>
</a>
</g>
</g>
<!-- Node2&#45;&gt;Node5 -->
<g id="edge4" class="edge">
<title>Node2&#45;&gt;Node5</title>
<path fill="none" stroke="#191970" d="M287.3038,-114.3095C299.0995,-105.7987 316.131,-93.5102 329.7838,-83.6594"/>
<polygon fill="#191970" stroke="#191970" points="332.1172,-86.2918 338.1788,-77.6022 328.0214,-80.6151 332.1172,-86.2918"/>
</g>
<!-- Node2&#45;&gt;Node7 -->
<g id="edge8" class="edge">
<title>Node2&#45;&gt;Node7</title>
<path fill="none" stroke="#191970" d="M273.0914,-114.3833C272.9273,-95.6703 272.5734,-55.3266 272.3581,-30.7866"/>
<polygon fill="#191970" stroke="#191970" points="275.8578,-30.7268 272.2702,-20.7579 268.8581,-30.7883 275.8578,-30.7268"/>
</g>
<!-- Node8 -->
<g id="node8" class="node">
<title>Node8</title>
<polygon fill="none" stroke="#bfbfbf" points="190.6802,-57.5 190.6802,-77.5 243.6802,-77.5 243.6802,-57.5 190.6802,-57.5"/>
<text text-anchor="middle" x="217.1802" y="-64.5" font-family="FreeSans" font-size="10.00" fill="#000000">limits.h</text>
</g>
<!-- Node2&#45;&gt;Node8 -->
<g id="edge7" class="edge">
<title>Node2&#45;&gt;Node8</title>
<path fill="none" stroke="#191970" d="M263.1685,-114.3095C255.1255,-106.1229 243.6485,-94.441 234.1722,-84.7955"/>
<polygon fill="#191970" stroke="#191970" points="236.6101,-82.2827 227.1052,-77.6022 231.6167,-87.1885 236.6101,-82.2827"/>
</g>
<!-- Node4 -->
<g id="node4" class="node">
<title>Node4</title>
<polygon fill="none" stroke="#bfbfbf" points="67.6802,-.5 67.6802,-20.5 118.6802,-20.5 118.6802,-.5 67.6802,-.5"/>
<text text-anchor="middle" x="93.1802" y="-7.5" font-family="FreeSans" font-size="10.00" fill="#000000">cstdint</text>
</g>
<!-- Node3&#45;&gt;Node4 -->
<g id="edge3" class="edge">
<title>Node3&#45;&gt;Node4</title>
<path fill="none" stroke="#191970" d="M93.1802,-57.3095C93.1802,-49.9335 93.1802,-39.72 93.1802,-30.715"/>
<polygon fill="#191970" stroke="#191970" points="96.6803,-30.6022 93.1802,-20.6022 89.6803,-30.6023 96.6803,-30.6022"/>
</g>
<!-- Node6 -->
<g id="node6" class="node">
<title>Node6</title>
<polygon fill="none" stroke="#bfbfbf" points="320.6802,-.5 320.6802,-20.5 385.6802,-20.5 385.6802,-.5 320.6802,-.5"/>
<text text-anchor="middle" x="353.1802" y="-7.5" font-family="FreeSans" font-size="10.00" fill="#000000">TObject.h</text>
</g>
<!-- Node5&#45;&gt;Node6 -->
<g id="edge5" class="edge">
<title>Node5&#45;&gt;Node6</title>
<path fill="none" stroke="#191970" d="M352.359,-57.3095C352.4884,-49.9335 352.6676,-39.72 352.8255,-30.715"/>
<polygon fill="#191970" stroke="#191970" points="356.3269,-30.6621 353.003,-20.6022 349.328,-30.5393 356.3269,-30.6621"/>
</g>
<!-- Node5&#45;&gt;Node7 -->
<g id="edge6" class="edge">
<title>Node5&#45;&gt;Node7</title>
<path fill="none" stroke="#191970" d="M337.8778,-57.3095C325.9328,-48.7987 308.6857,-36.5102 294.86,-26.6594"/>
<polygon fill="#191970" stroke="#191970" points="296.534,-23.5545 286.3588,-20.6022 292.472,-29.2555 296.534,-23.5545"/>
</g>
<!-- Node9&#45;&gt;Node2 -->
<g id="edge10" class="edge">
<title>Node9&#45;&gt;Node2</title>
<path fill="none" stroke="#191970" d="M335.5929,-171.3095C324.2451,-162.7987 307.8604,-150.5102 294.726,-140.6594"/>
<polygon fill="#191970" stroke="#191970" points="296.7499,-137.8023 286.6498,-134.6022 292.5498,-143.4023 296.7499,-137.8023"/>
</g>
<!-- Node9&#45;&gt;Node5 -->
<g id="edge11" class="edge">
<title>Node9&#45;&gt;Node5</title>
<path fill="none" stroke="#191970" d="M349.4464,-171.3833C349.9389,-152.6703 351.0005,-112.3266 351.6463,-87.7866"/>
<polygon fill="#191970" stroke="#191970" points="355.1459,-87.8466 351.9102,-77.7579 348.1483,-87.6624 355.1459,-87.8466"/>
</g>
<!-- Node9&#45;&gt;Node7 -->
<g id="edge12" class="edge">
<title>Node9&#45;&gt;Node7</title>
<path fill="none" stroke="#191970" d="M361.8895,-171.2283C387.6726,-149.145 441.379,-95.9923 413.1802,-57 410.0666,-52.6947 352.4586,-34.6415 311.8537,-22.3384"/>
<polygon fill="#191970" stroke="#191970" points="312.7814,-18.9625 302.1966,-19.4233 310.7585,-25.6638 312.7814,-18.9625"/>
</g>
<!-- Node10 -->
<g id="node10" class="node">
<title>Node10</title>
<polygon fill="none" stroke="#bfbfbf" points="460.6802,-114.5 460.6802,-134.5 499.6802,-134.5 499.6802,-114.5 460.6802,-114.5"/>
<text text-anchor="middle" x="480.1802" y="-121.5" font-family="FreeSans" font-size="10.00" fill="#000000">map</text>
</g>
<!-- Node9&#45;&gt;Node10 -->
<g id="edge13" class="edge">
<title>Node9&#45;&gt;Node10</title>
<path fill="none" stroke="#191970" d="M372.2988,-171.4408C394.2484,-161.8902 427.3256,-147.4978 451.0642,-137.1688"/>
<polygon fill="#191970" stroke="#191970" points="452.5176,-140.3534 460.2908,-133.1542 449.7247,-133.9347 452.5176,-140.3534"/>
</g>
</g>
</svg>
