<?xml version="1.0" encoding="UTF-8" standalone="no"?>
<!DOCTYPE svg PUBLIC "-//W3C//DTD SVG 1.1//EN"
 "http://www.w3.org/Graphics/SVG/1.1/DTD/svg11.dtd">
<!-- Generated by graphviz version 2.40.1 (20161225.0304)
 -->
<!-- Title: G4TowerNtuple::process_event Pages: 1 -->
<svg width="330pt" height="143pt"
 viewBox="0.00 0.00 330.00 143.00" xmlns="http://www.w3.org/2000/svg" xmlns:xlink="http://www.w3.org/1999/xlink">
<g id="graph0" class="graph" transform="scale(1 1) rotate(0) translate(4 139)">
<title>G4TowerNtuple::process_event</title>
<!-- Node1 -->
<g id="node1" class="node">
<title>Node1</title>
<polygon fill="#bfbfbf" stroke="#000000" points="0,-51.5 0,-83.5 139,-83.5 139,-51.5 0,-51.5"/>
<text text-anchor="start" x="8" y="-70.5" font-family="FreeSans" font-size="10.00" fill="#000000">G4TowerNtuple::process</text>
<text text-anchor="middle" x="69.5" y="-58.5" font-family="FreeSans" font-size="10.00" fill="#000000">_event</text>
</g>
<!-- Node2 -->
<g id="node2" class="node">
<title>Node2</title>
<g id="a_node2"><a xlink:href="../../d0/d25/group__cylindrical__calorimeter.html#gaa9140242d594e93aab92b1092a167a58" target="_top" xlink:title="RawTowerGeomContainer\l::get_etacenter">
<polygon fill="none" stroke="#000000" points="175,-102.5 175,-134.5 322,-134.5 322,-102.5 175,-102.5"/>
<text text-anchor="start" x="183" y="-121.5" font-family="FreeSans" font-size="10.00" fill="#000000">RawTowerGeomContainer</text>
<text text-anchor="middle" x="248.5" y="-109.5" font-family="FreeSans" font-size="10.00" fill="#000000">::get_etacenter</text>
</a>
</g>
</g>
<!-- Node1&#45;&gt;Node2 -->
<g id="edge1" class="edge">
<title>Node1&#45;&gt;Node2</title>
<path fill="none" stroke="#191970" d="M126.1367,-83.6367C144.0218,-88.7325 163.9402,-94.4075 182.4246,-99.674"/>
<polygon fill="#191970" stroke="#191970" points="181.6554,-103.0941 192.2317,-102.4683 183.5735,-96.362 181.6554,-103.0941"/>
</g>
<!-- Node3 -->
<g id="node3" class="node">
<title>Node3</title>
<g id="a_node3"><a xlink:href="../../d0/d25/group__cylindrical__calorimeter.html#ga034c36ddaadba3382c053d0ecb0af185" target="_top" xlink:title="RawTowerGeomContainer\l::get_phicenter">
<polygon fill="none" stroke="#000000" points="175,-51.5 175,-83.5 322,-83.5 322,-51.5 175,-51.5"/>
<text text-anchor="start" x="183" y="-70.5" font-family="FreeSans" font-size="10.00" fill="#000000">RawTowerGeomContainer</text>
<text text-anchor="middle" x="248.5" y="-58.5" font-family="FreeSans" font-size="10.00" fill="#000000">::get_phicenter</text>
</a>
</g>
</g>
<!-- Node1&#45;&gt;Node3 -->
<g id="edge2" class="edge">
<title>Node1&#45;&gt;Node3</title>
<path fill="none" stroke="#191970" d="M139.2186,-67.5C147.6148,-67.5 156.2554,-67.5 164.8245,-67.5"/>
<polygon fill="#191970" stroke="#191970" points="164.8321,-71.0001 174.8321,-67.5 164.8321,-64.0001 164.8321,-71.0001"/>
</g>
<!-- Node4 -->
<g id="node4" class="node">
<title>Node4</title>
<g id="a_node4"><a xlink:href="../../d3/dc7/classRawTowerContainer.html#a570f017dc793182557b3382e07374491" target="_top" xlink:title="return all towers">
<polygon fill="none" stroke="#000000" points="187.5,-.5 187.5,-32.5 309.5,-32.5 309.5,-.5 187.5,-.5"/>
<text text-anchor="start" x="195.5" y="-19.5" font-family="FreeSans" font-size="10.00" fill="#000000">RawTowerContainer::</text>
<text text-anchor="middle" x="248.5" y="-7.5" font-family="FreeSans" font-size="10.00" fill="#000000">getTowers</text>
</a>
</g>
</g>
<!-- Node1&#45;&gt;Node4 -->
<g id="edge3" class="edge">
<title>Node1&#45;&gt;Node4</title>
<path fill="none" stroke="#191970" d="M126.1367,-51.3633C144.0218,-46.2675 163.9402,-40.5925 182.4246,-35.326"/>
<polygon fill="#191970" stroke="#191970" points="183.5735,-38.638 192.2317,-32.5317 181.6554,-31.9059 183.5735,-38.638"/>
</g>
</g>
</svg>
