<?xml version="1.0" encoding="UTF-8" standalone="no"?>
<!DOCTYPE svg PUBLIC "-//W3C//DTD SVG 1.1//EN"
 "http://www.w3.org/Graphics/SVG/1.1/DTD/svg11.dtd">
<!-- Generated by graphviz version 2.40.1 (20161225.0304)
 -->
<!-- Title: oBuffer::addRawEvent Pages: 1 -->
<svg width="435pt" height="87pt"
 viewBox="0.00 0.00 435.00 87.00" xmlns="http://www.w3.org/2000/svg" xmlns:xlink="http://www.w3.org/1999/xlink">
<g id="graph0" class="graph" transform="scale(1 1) rotate(0) translate(4 83)">
<title>oBuffer::addRawEvent</title>
<!-- Node1 -->
<g id="node1" class="node">
<title>Node1</title>
<polygon fill="#bfbfbf" stroke="#000000" points="0,-38.5 0,-58.5 130,-58.5 130,-38.5 0,-38.5"/>
<text text-anchor="middle" x="65" y="-45.5" font-family="FreeSans" font-size="10.00" fill="#000000">oBuffer::addRawEvent</text>
</g>
<!-- Node2 -->
<g id="node2" class="node">
<title>Node2</title>
<g id="a_node2"><a xlink:href="../../de/dc8/classoBuffer.html#a20807b66941831cf3aacf5c42b38d8f8" target="_top" xlink:title="oBuffer::prepare_next">
<polygon fill="none" stroke="#000000" points="166,-58.5 166,-78.5 293,-78.5 293,-58.5 166,-58.5"/>
<text text-anchor="middle" x="229.5" y="-65.5" font-family="FreeSans" font-size="10.00" fill="#000000">oBuffer::prepare_next</text>
</a>
</g>
</g>
<!-- Node1&#45;&gt;Node2 -->
<g id="edge1" class="edge">
<title>Node1&#45;&gt;Node2</title>
<path fill="none" stroke="#191970" d="M130.0148,-56.4045C138.4705,-57.4326 147.1808,-58.4916 155.7659,-59.5354"/>
<polygon fill="#191970" stroke="#191970" points="155.4146,-63.0183 165.7639,-60.7509 156.2595,-56.0695 155.4146,-63.0183"/>
</g>
<!-- Node3 -->
<g id="node3" class="node">
<title>Node3</title>
<g id="a_node3"><a xlink:href="../../de/dc8/classoBuffer.html#a1ea4e9f4322874047c2d8c749ee62df5" target="_top" xlink:title="oBuffer::writeout">
<polygon fill="none" stroke="#000000" points="178.5,-19.5 178.5,-39.5 280.5,-39.5 280.5,-19.5 178.5,-19.5"/>
<text text-anchor="middle" x="229.5" y="-26.5" font-family="FreeSans" font-size="10.00" fill="#000000">oBuffer::writeout</text>
</a>
</g>
</g>
<!-- Node1&#45;&gt;Node3 -->
<g id="edge2" class="edge">
<title>Node1&#45;&gt;Node3</title>
<path fill="none" stroke="#191970" d="M130.0148,-40.9907C142.5735,-39.5401 155.6936,-38.0247 168.1315,-36.5882"/>
<polygon fill="#191970" stroke="#191970" points="168.8592,-40.0275 178.3916,-35.4031 168.056,-33.0737 168.8592,-40.0275"/>
</g>
<!-- Node4 -->
<g id="node4" class="node">
<title>Node4</title>
<g id="a_node4"><a xlink:href="../../de/dc8/classoBuffer.html#a0c22585dd84cfc620cb6e8071f2143a4" target="_top" xlink:title="oBuffer::addEoB">
<polygon fill="none" stroke="#000000" points="329,-39.5 329,-59.5 427,-59.5 427,-39.5 329,-39.5"/>
<text text-anchor="middle" x="378" y="-46.5" font-family="FreeSans" font-size="10.00" fill="#000000">oBuffer::addEoB</text>
</a>
</g>
</g>
<!-- Node3&#45;&gt;Node4 -->
<g id="edge3" class="edge">
<title>Node3&#45;&gt;Node4</title>
<path fill="none" stroke="#191970" d="M280.6053,-36.3829C292.9186,-38.0412 306.1755,-39.8267 318.8233,-41.5301"/>
<polygon fill="#191970" stroke="#191970" points="318.4285,-45.0084 328.8062,-42.8746 319.3629,-38.0711 318.4285,-45.0084"/>
</g>
<!-- Node5 -->
<g id="node5" class="node">
<title>Node5</title>
<g id="a_node5"><a xlink:href="../../d7/d2d/make__fmod__calibrations_8C.html#aac759501cf6c7895a70eecbef0226ae1" target="_top" xlink:title="write">
<polygon fill="none" stroke="#000000" points="357.5,-.5 357.5,-20.5 398.5,-20.5 398.5,-.5 357.5,-.5"/>
<text text-anchor="middle" x="378" y="-7.5" font-family="FreeSans" font-size="10.00" fill="#000000">write</text>
</a>
</g>
</g>
<!-- Node3&#45;&gt;Node5 -->
<g id="edge4" class="edge">
<title>Node3&#45;&gt;Node5</title>
<path fill="none" stroke="#191970" d="M280.6053,-22.9613C302.833,-20.1173 328.1355,-16.88 347.3789,-14.4179"/>
<polygon fill="#191970" stroke="#191970" points="347.9134,-17.8781 357.3883,-13.1372 347.0249,-10.9347 347.9134,-17.8781"/>
</g>
</g>
</svg>
