<?xml version="1.0" encoding="UTF-8" standalone="no"?>
<!DOCTYPE svg PUBLIC "-//W3C//DTD SVG 1.1//EN"
 "http://www.w3.org/Graphics/SVG/1.1/DTD/svg11.dtd">
<!-- Generated by graphviz version 2.40.1 (20161225.0304)
 -->
<!-- Title: PHG4HcalPrototypeDetector::SuperDetector Pages: 1 -->
<svg width="581pt" height="92pt"
 viewBox="0.00 0.00 581.00 92.00" xmlns="http://www.w3.org/2000/svg" xmlns:xlink="http://www.w3.org/1999/xlink">
<g id="graph0" class="graph" transform="scale(1 1) rotate(0) translate(4 88)">
<title>PHG4HcalPrototypeDetector::SuperDetector</title>
<!-- Node1 -->
<g id="node1" class="node">
<title>Node1</title>
<polygon fill="#bfbfbf" stroke="#000000" points="0,-25.5 0,-57.5 159,-57.5 159,-25.5 0,-25.5"/>
<text text-anchor="start" x="8" y="-44.5" font-family="FreeSans" font-size="10.00" fill="#000000">PHG4HcalPrototypeDetector</text>
<text text-anchor="middle" x="79.5" y="-32.5" font-family="FreeSans" font-size="10.00" fill="#000000">::SuperDetector</text>
</g>
<!-- Node2 -->
<g id="node2" class="node">
<title>Node2</title>
<g id="a_node2"><a xlink:href="../../d8/db2/classPHG4HcalPrototypeSubsystem.html#a4d5be409dafc2ec31d134dbb23a2c1b2" target="_top" xlink:title="init">
<polygon fill="none" stroke="#000000" points="195,-51.5 195,-83.5 366,-83.5 366,-51.5 195,-51.5"/>
<text text-anchor="start" x="203" y="-70.5" font-family="FreeSans" font-size="10.00" fill="#000000">PHG4HcalPrototypeSubsystem</text>
<text text-anchor="middle" x="280.5" y="-58.5" font-family="FreeSans" font-size="10.00" fill="#000000">::Init</text>
</a>
</g>
</g>
<!-- Node1&#45;&gt;Node2 -->
<g id="edge1" class="edge">
<title>Node1&#45;&gt;Node2</title>
<path fill="none" stroke="#191970" d="M169.2031,-53.1034C177.7535,-54.2094 186.4093,-55.3291 194.9192,-56.4298"/>
<polygon fill="#191970" stroke="#191970" points="169.5956,-49.6251 159.2292,-51.8132 168.6976,-56.5672 169.5956,-49.6251"/>
</g>
<!-- Node3 -->
<g id="node3" class="node">
<title>Node3</title>
<g id="a_node3"><a xlink:href="../../d4/ded/classPHG4HcalPrototypeSteppingAction.html#ac4a8a2468e76f0a2106d62161113f08d" target="_top" xlink:title="reimplemented from base class">
<polygon fill="none" stroke="#000000" points="200.5,-.5 200.5,-32.5 360.5,-32.5 360.5,-.5 200.5,-.5"/>
<text text-anchor="start" x="208.5" y="-19.5" font-family="FreeSans" font-size="10.00" fill="#000000">PHG4HcalPrototypeStepping</text>
<text text-anchor="middle" x="280.5" y="-7.5" font-family="FreeSans" font-size="10.00" fill="#000000">Action::SetInterfacePointers</text>
</a>
</g>
</g>
<!-- Node1&#45;&gt;Node3 -->
<g id="edge2" class="edge">
<title>Node1&#45;&gt;Node3</title>
<path fill="none" stroke="#191970" d="M169.422,-30.3157C179.6804,-29.0397 190.0875,-27.7453 200.2093,-26.4864"/>
<polygon fill="#191970" stroke="#191970" points="168.7207,-26.8758 159.2292,-31.5834 169.5848,-33.8223 168.7207,-26.8758"/>
</g>
<!-- Node4 -->
<g id="node4" class="node">
<title>Node4</title>
<g id="a_node4"><a xlink:href="../../d8/db2/classPHG4HcalPrototypeSubsystem.html#abb6657db7146fcc221025fc7ef36a4fb" target="_top" xlink:title="event processing">
<polygon fill="none" stroke="#000000" points="402,-.5 402,-32.5 573,-32.5 573,-.5 402,-.5"/>
<text text-anchor="start" x="410" y="-19.5" font-family="FreeSans" font-size="10.00" fill="#000000">PHG4HcalPrototypeSubsystem</text>
<text text-anchor="middle" x="487.5" y="-7.5" font-family="FreeSans" font-size="10.00" fill="#000000">::process_event</text>
</a>
</g>
</g>
<!-- Node3&#45;&gt;Node4 -->
<g id="edge3" class="edge">
<title>Node3&#45;&gt;Node4</title>
<path fill="none" stroke="#191970" d="M370.776,-16.5C381.0954,-16.5 391.593,-16.5 401.8495,-16.5"/>
<polygon fill="#191970" stroke="#191970" points="370.5316,-13.0001 360.5316,-16.5 370.5316,-20.0001 370.5316,-13.0001"/>
</g>
</g>
</svg>
