<?xml version="1.0" encoding="UTF-8" standalone="no"?>
<!DOCTYPE svg PUBLIC "-//W3C//DTD SVG 1.1//EN"
 "http://www.w3.org/Graphics/SVG/1.1/DTD/svg11.dtd">
<!-- Generated by graphviz version 2.40.1 (20161225.0304)
 -->
<!-- Title: analysis/blob/master/EMCal&#45;analysis/DirectPhoton/DirectPhotonPythia.C Pages: 1 -->
<svg width="3114pt" height="395pt"
 viewBox="0.00 0.00 3113.50 395.00" xmlns="http://www.w3.org/2000/svg" xmlns:xlink="http://www.w3.org/1999/xlink">
<g id="graph0" class="graph" transform="scale(1 1) rotate(0) translate(4 391)">
<title>analysis/blob/master/EMCal&#45;analysis/DirectPhoton/DirectPhotonPythia.C</title>
<!-- Node1 -->
<g id="node1" class="node">
<title>Node1</title>
<polygon fill="#bfbfbf" stroke="#000000" points="2037,-342.5 2037,-386.5 2202,-386.5 2202,-342.5 2037,-342.5"/>
<text text-anchor="start" x="2045" y="-373.5" font-family="FreeSans" font-size="10.00" fill="#000000">analysis/blob/master</text>
<text text-anchor="start" x="2045" y="-361.5" font-family="FreeSans" font-size="10.00" fill="#000000">/EMCal&#45;analysis/DirectPhoton</text>
<text text-anchor="middle" x="2119.5" y="-349.5" font-family="FreeSans" font-size="10.00" fill="#000000">/DirectPhotonPythia.C</text>
</g>
<!-- Node2 -->
<g id="node2" class="node">
<title>Node2</title>
<g id="a_node2"><a xlink:href="../../d4/d2a/DirectPhotonPythia_8h.html" target="_top" xlink:title="DirectPhotonPythia.h">
<polygon fill="none" stroke="#000000" points="140.5,-228.5 140.5,-248.5 262.5,-248.5 262.5,-228.5 140.5,-228.5"/>
<text text-anchor="middle" x="201.5" y="-235.5" font-family="FreeSans" font-size="10.00" fill="#000000">DirectPhotonPythia.h</text>
</a>
</g>
</g>
<!-- Node1&#45;&gt;Node2 -->
<g id="edge1" class="edge">
<title>Node1&#45;&gt;Node2</title>
<path fill="none" stroke="#191970" d="M2036.6808,-362.6201C1763.8294,-356.2158 894.6713,-334.0808 615.5,-306 488.166,-293.192 340.5631,-266.1605 260.5223,-250.4687"/>
<polygon fill="#191970" stroke="#191970" points="261.1179,-247.0188 250.6299,-248.5195 259.7646,-253.8868 261.1179,-247.0188"/>
</g>
<!-- Node8 -->
<g id="node8" class="node">
<title>Node8</title>
<polygon fill="none" stroke="#bfbfbf" points="2403.5,-114.5 2403.5,-134.5 2451.5,-134.5 2451.5,-114.5 2403.5,-114.5"/>
<text text-anchor="middle" x="2427.5" y="-121.5" font-family="FreeSans" font-size="10.00" fill="#000000">cmath</text>
</g>
<!-- Node1&#45;&gt;Node8 -->
<g id="edge88" class="edge">
<title>Node1&#45;&gt;Node8</title>
<path fill="none" stroke="#191970" d="M2202.0495,-358.7821C2322.7575,-349.6498 2535.9393,-330.2995 2561.5,-306 2605.5087,-264.1628 2619.0663,-219.477 2582.5,-171 2549.3456,-127.0463 2515.797,-150.04 2461.2001,-136.1404"/>
<polygon fill="#191970" stroke="#191970" points="2462.0881,-132.7539 2451.5093,-133.3376 2460.1431,-139.4782 2462.0881,-132.7539"/>
</g>
<!-- Node11 -->
<g id="node11" class="node">
<title>Node11</title>
<g id="a_node11"><a xlink:href="../../dd/dd4/getClass_8h.html" target="_top" xlink:title="phool/getClass.h">
<polygon fill="none" stroke="#000000" points="1019.5,-285.5 1019.5,-305.5 1119.5,-305.5 1119.5,-285.5 1019.5,-285.5"/>
<text text-anchor="middle" x="1069.5" y="-292.5" font-family="FreeSans" font-size="10.00" fill="#000000">phool/getClass.h</text>
</a>
</g>
</g>
<!-- Node1&#45;&gt;Node11 -->
<g id="edge12" class="edge">
<title>Node1&#45;&gt;Node11</title>
<path fill="none" stroke="#191970" d="M2036.6699,-359.0569C1832.3888,-345.6327 1308.1735,-311.1843 1129.8987,-299.4691"/>
<polygon fill="#191970" stroke="#191970" points="1129.8699,-295.9597 1119.6619,-298.7964 1129.4108,-302.9446 1129.8699,-295.9597"/>
</g>
<!-- Node14 -->
<g id="node14" class="node">
<title>Node14</title>
<polygon fill="none" stroke="#bfbfbf" points="1929.5,-.5 1929.5,-20.5 1989.5,-20.5 1989.5,-.5 1929.5,-.5"/>
<text text-anchor="middle" x="1959.5" y="-7.5" font-family="FreeSans" font-size="10.00" fill="#000000">iostream</text>
</g>
<!-- Node1&#45;&gt;Node14 -->
<g id="edge89" class="edge">
<title>Node1&#45;&gt;Node14</title>
<path fill="none" stroke="#191970" d="M2202.1022,-358.3509C2388.8649,-343.3405 2827.5,-301.3922 2827.5,-238.5 2827.5,-238.5 2827.5,-238.5 2827.5,-124.5 2827.5,-39.8758 2170.5578,-16.212 1999.7119,-11.4888"/>
<polygon fill="#191970" stroke="#191970" points="1999.7214,-7.9879 1989.6306,-11.2166 1999.5325,-14.9853 1999.7214,-7.9879"/>
</g>
<!-- Node25 -->
<g id="node25" class="node">
<title>Node25</title>
<g id="a_node25"><a xlink:href="../../dc/da2/Fun4AllServer_8h.html" target="_top" xlink:title="fun4all/Fun4AllServer.h">
<polygon fill="none" stroke="#000000" points="281,-228.5 281,-248.5 414,-248.5 414,-228.5 281,-228.5"/>
<text text-anchor="middle" x="347.5" y="-235.5" font-family="FreeSans" font-size="10.00" fill="#000000">fun4all/Fun4AllServer.h</text>
</a>
</g>
</g>
<!-- Node1&#45;&gt;Node25 -->
<g id="edge41" class="edge">
<title>Node1&#45;&gt;Node25</title>
<path fill="none" stroke="#191970" d="M2036.9658,-362.1593C1783.5672,-354.7768 1018.984,-330.9867 771.5,-306 641.3971,-292.8644 490.4925,-266.0331 408.3946,-250.4456"/>
<polygon fill="#191970" stroke="#191970" points="408.9663,-246.9916 398.4875,-248.5557 407.6545,-253.8676 408.9663,-246.9916"/>
</g>
<!-- Node29 -->
<g id="node29" class="node">
<title>Node29</title>
<g id="a_node29"><a xlink:href="../../da/dc1/Fun4AllReturnCodes_8h.html" target="_top" xlink:title="fun4all/Fun4AllReturnCodes.h">
<polygon fill="none" stroke="#000000" points="1596.5,-285.5 1596.5,-305.5 1762.5,-305.5 1762.5,-285.5 1596.5,-285.5"/>
<text text-anchor="middle" x="1679.5" y="-292.5" font-family="FreeSans" font-size="10.00" fill="#000000">fun4all/Fun4AllReturnCodes.h</text>
</a>
</g>
</g>
<!-- Node1&#45;&gt;Node29 -->
<g id="edge55" class="edge">
<title>Node1&#45;&gt;Node29</title>
<path fill="none" stroke="#191970" d="M2036.9976,-351.5621C1955.5519,-338.79 1832.1415,-319.437 1753.7035,-307.1365"/>
<polygon fill="#191970" stroke="#191970" points="1753.8397,-303.6151 1743.4182,-305.5235 1752.7552,-310.5306 1753.8397,-303.6151"/>
</g>
<!-- Node30 -->
<g id="node30" class="node">
<title>Node30</title>
<g id="a_node30"><a xlink:href="../../d8/d30/PHCompositeNode_8h.html" target="_top" xlink:title="phool/PHCompositeNode.h">
<polygon fill="none" stroke="#000000" points="890,-171.5 890,-191.5 1041,-191.5 1041,-171.5 890,-171.5"/>
<text text-anchor="middle" x="965.5" y="-178.5" font-family="FreeSans" font-size="10.00" fill="#000000">phool/PHCompositeNode.h</text>
</a>
</g>
</g>
<!-- Node1&#45;&gt;Node30 -->
<g id="edge56" class="edge">
<title>Node1&#45;&gt;Node30</title>
<path fill="none" stroke="#191970" d="M2036.5584,-362.6183C1786.0124,-356.6076 1051.5562,-336.4618 1010.5,-306 977.422,-281.4577 968.6033,-230.2643 966.2891,-201.7608"/>
<polygon fill="#191970" stroke="#191970" points="969.7791,-201.4901 965.6698,-191.7247 962.7924,-201.9213 969.7791,-201.4901"/>
</g>
<!-- Node31 -->
<g id="node31" class="node">
<title>Node31</title>
<g id="a_node31"><a xlink:href="../../d0/d25/PHG4TruthInfoContainer_8h.html" target="_top" xlink:title="g4main/PHG4TruthInfoContainer.h">
<polygon fill="none" stroke="#000000" points="2049.5,-171.5 2049.5,-191.5 2237.5,-191.5 2237.5,-171.5 2049.5,-171.5"/>
<text text-anchor="middle" x="2143.5" y="-178.5" font-family="FreeSans" font-size="10.00" fill="#000000">g4main/PHG4TruthInfoContainer.h</text>
</a>
</g>
</g>
<!-- Node1&#45;&gt;Node31 -->
<g id="edge60" class="edge">
<title>Node1&#45;&gt;Node31</title>
<path fill="none" stroke="#191970" d="M2036.6219,-348.2906C1997.3292,-336.2625 1962.3292,-316.3875 1979.5,-285 1987.0993,-271.1087 2072.0885,-221.7442 2116.6256,-196.5419"/>
<polygon fill="#191970" stroke="#191970" points="2118.482,-199.5132 2125.4729,-191.5522 2115.0433,-193.4161 2118.482,-199.5132"/>
</g>
<!-- Node34 -->
<g id="node34" class="node">
<title>Node34</title>
<g id="a_node34"><a xlink:href="../../dd/d05/PHG4Particle_8h.html" target="_top" xlink:title="g4main/PHG4Particle.h">
<polygon fill="none" stroke="#000000" points="2629.5,-171.5 2629.5,-191.5 2761.5,-191.5 2761.5,-171.5 2629.5,-171.5"/>
<text text-anchor="middle" x="2695.5" y="-178.5" font-family="FreeSans" font-size="10.00" fill="#000000">g4main/PHG4Particle.h</text>
</a>
</g>
</g>
<!-- Node1&#45;&gt;Node34 -->
<g id="edge68" class="edge">
<title>Node1&#45;&gt;Node34</title>
<path fill="none" stroke="#191970" d="M2202.1863,-358.6535C2334.437,-348.7264 2582.2297,-327.5463 2616.5,-306 2655.5095,-281.4741 2678.7188,-229.8849 2689.0609,-201.4168"/>
<polygon fill="#191970" stroke="#191970" points="2692.4456,-202.3375 2692.4007,-191.7428 2685.8289,-200.0531 2692.4456,-202.3375"/>
</g>
<!-- Node35 -->
<g id="node35" class="node">
<title>Node35</title>
<g id="a_node35"><a xlink:href="../../de/d83/PHG4Hit_8h.html" target="_top" xlink:title="g4main/PHG4Hit.h">
<polygon fill="none" stroke="#000000" points="1211.5,-171.5 1211.5,-191.5 1321.5,-191.5 1321.5,-171.5 1211.5,-171.5"/>
<text text-anchor="middle" x="1266.5" y="-178.5" font-family="FreeSans" font-size="10.00" fill="#000000">g4main/PHG4Hit.h</text>
</a>
</g>
</g>
<!-- Node1&#45;&gt;Node35 -->
<g id="edge73" class="edge">
<title>Node1&#45;&gt;Node35</title>
<path fill="none" stroke="#191970" d="M2036.7787,-362.057C1931.1639,-357.4295 1743.4242,-344.1169 1587.5,-306 1476.3059,-278.8177 1351.8433,-222.6347 1296.186,-196.05"/>
<polygon fill="#191970" stroke="#191970" points="1297.4515,-192.7749 1286.9226,-191.5943 1294.4172,-199.0831 1297.4515,-192.7749"/>
</g>
<!-- Node37 -->
<g id="node37" class="node">
<title>Node37</title>
<polygon fill="none" stroke="#bfbfbf" points="2022,-285.5 2022,-305.5 2123,-305.5 2123,-285.5 2022,-285.5"/>
<text text-anchor="middle" x="2072.5" y="-292.5" font-family="FreeSans" font-size="10.00" fill="#000000">TLorentzVector.h</text>
</g>
<!-- Node1&#45;&gt;Node37 -->
<g id="edge82" class="edge">
<title>Node1&#45;&gt;Node37</title>
<path fill="none" stroke="#191970" d="M2104.3702,-342.2882C2098.1562,-333.1655 2091.044,-322.7242 2085.1171,-314.023"/>
<polygon fill="#191970" stroke="#191970" points="2087.9795,-312.0081 2079.4571,-305.7137 2082.1941,-315.9489 2087.9795,-312.0081"/>
</g>
<!-- Node38 -->
<g id="node38" class="node">
<title>Node38</title>
<polygon fill="none" stroke="#bfbfbf" points="2141,-285.5 2141,-305.5 2194,-305.5 2194,-285.5 2141,-285.5"/>
<text text-anchor="middle" x="2167.5" y="-292.5" font-family="FreeSans" font-size="10.00" fill="#000000">TTree.h</text>
</g>
<!-- Node1&#45;&gt;Node38 -->
<g id="edge83" class="edge">
<title>Node1&#45;&gt;Node38</title>
<path fill="none" stroke="#191970" d="M2134.9517,-342.2882C2141.2979,-333.1655 2148.5615,-322.7242 2154.6144,-314.023"/>
<polygon fill="#191970" stroke="#191970" points="2157.5573,-315.9215 2160.3948,-305.7137 2151.811,-311.924 2157.5573,-315.9215"/>
</g>
<!-- Node39 -->
<g id="node39" class="node">
<title>Node39</title>
<polygon fill="none" stroke="#bfbfbf" points="2212.5,-285.5 2212.5,-305.5 2262.5,-305.5 2262.5,-285.5 2212.5,-285.5"/>
<text text-anchor="middle" x="2237.5" y="-292.5" font-family="FreeSans" font-size="10.00" fill="#000000">TFile.h</text>
</g>
<!-- Node1&#45;&gt;Node39 -->
<g id="edge84" class="edge">
<title>Node1&#45;&gt;Node39</title>
<path fill="none" stroke="#191970" d="M2157.1604,-342.4783C2174.8645,-332.1259 2195.5313,-320.041 2211.47,-310.7209"/>
<polygon fill="#191970" stroke="#191970" points="2213.3843,-313.6561 2220.25,-305.5869 2209.8508,-307.6133 2213.3843,-313.6561"/>
</g>
<!-- Node40 -->
<g id="node40" class="node">
<title>Node40</title>
<polygon fill="none" stroke="#bfbfbf" points="2281,-285.5 2281,-305.5 2344,-305.5 2344,-285.5 2281,-285.5"/>
<text text-anchor="middle" x="2312.5" y="-292.5" font-family="FreeSans" font-size="10.00" fill="#000000">TString.h</text>
</g>
<!-- Node1&#45;&gt;Node40 -->
<g id="edge85" class="edge">
<title>Node1&#45;&gt;Node40</title>
<path fill="none" stroke="#191970" d="M2181.097,-342.4783C2211.8128,-331.497 2247.9811,-318.5664 2274.5881,-309.054"/>
<polygon fill="#191970" stroke="#191970" points="2276.048,-312.2491 2284.286,-305.5869 2273.6914,-305.6577 2276.048,-312.2491"/>
</g>
<!-- Node41 -->
<g id="node41" class="node">
<title>Node41</title>
<polygon fill="none" stroke="#bfbfbf" points="2362.5,-285.5 2362.5,-305.5 2416.5,-305.5 2416.5,-285.5 2362.5,-285.5"/>
<text text-anchor="middle" x="2389.5" y="-292.5" font-family="FreeSans" font-size="10.00" fill="#000000">TH2D.h</text>
</g>
<!-- Node1&#45;&gt;Node41 -->
<g id="edge86" class="edge">
<title>Node1&#45;&gt;Node41</title>
<path fill="none" stroke="#191970" d="M2202.0056,-344.7021C2244.4559,-334.3189 2297.2374,-321.1071 2352.7454,-306.14"/>
<polygon fill="#191970" stroke="#191970" points="2353.667,-309.5165 2362.405,-303.5249 2351.8378,-302.7597 2353.667,-309.5165"/>
</g>
<!-- Node42 -->
<g id="node42" class="node">
<title>Node42</title>
<polygon fill="none" stroke="#bfbfbf" points="2434.5,-285.5 2434.5,-305.5 2536.5,-305.5 2536.5,-285.5 2434.5,-285.5"/>
<text text-anchor="middle" x="2485.5" y="-292.5" font-family="FreeSans" font-size="10.00" fill="#000000">TDatabasePDG.h</text>
</g>
<!-- Node1&#45;&gt;Node42 -->
<g id="edge87" class="edge">
<title>Node1&#45;&gt;Node42</title>
<path fill="none" stroke="#191970" d="M2202.0939,-348.929C2269.5984,-336.2028 2363.5031,-318.4994 2424.3917,-307.0204"/>
<polygon fill="#191970" stroke="#191970" points="2425.065,-310.4552 2434.2435,-305.1631 2423.7682,-303.5764 2425.065,-310.4552"/>
</g>
<!-- Node43 -->
<g id="node43" class="node">
<title>Node43</title>
<g id="a_node43"><a xlink:href="../../df/dd0/JetMap_8h.html" target="_top" xlink:title="g4jets/JetMap.h">
<polygon fill="none" stroke="#000000" points="2447.5,-228.5 2447.5,-248.5 2541.5,-248.5 2541.5,-228.5 2447.5,-228.5"/>
<text text-anchor="middle" x="2494.5" y="-235.5" font-family="FreeSans" font-size="10.00" fill="#000000">g4jets/JetMap.h</text>
</a>
</g>
</g>
<!-- Node1&#45;&gt;Node43 -->
<g id="edge90" class="edge">
<title>Node1&#45;&gt;Node43</title>
<path fill="none" stroke="#191970" d="M2202.0506,-358.9343C2319.5365,-350.1613 2523.298,-331.4593 2545.5,-306 2560.2158,-289.1253 2539.3218,-268.4127 2520.0093,-254.4165"/>
<polygon fill="#191970" stroke="#191970" points="2521.8838,-251.4579 2511.66,-248.6784 2517.919,-257.2269 2521.8838,-251.4579"/>
</g>
<!-- Node44 -->
<g id="node44" class="node">
<title>Node44</title>
<g id="a_node44"><a xlink:href="../../da/db7/Jet_8h.html" target="_top" xlink:title="Jet.h">
<polygon fill="none" stroke="#000000" points="2370,-171.5 2370,-191.5 2409,-191.5 2409,-171.5 2370,-171.5"/>
<text text-anchor="middle" x="2389.5" y="-178.5" font-family="FreeSans" font-size="10.00" fill="#000000">Jet.h</text>
</a>
</g>
</g>
<!-- Node1&#45;&gt;Node44 -->
<g id="edge103" class="edge">
<title>Node1&#45;&gt;Node44</title>
<path fill="none" stroke="#191970" d="M2053.4522,-342.4589C2022.3264,-328.4233 1995.5489,-308.4844 2013.5,-285 2061.3299,-222.4268 2279.8625,-213.9565 2355.5,-192 2356.9462,-191.5802 2358.4252,-191.1452 2359.9176,-190.7016"/>
<polygon fill="#191970" stroke="#191970" points="2361.2015,-193.9698 2369.7576,-187.7213 2359.1724,-187.2703 2361.2015,-193.9698"/>
</g>
<!-- Node46 -->
<g id="node46" class="node">
<title>Node46</title>
<g id="a_node46"><a xlink:href="../../d3/d8c/PHHepMCGenEvent_8h.html" target="_top" xlink:title="phhepmc/PHHepMCGenEvent.h">
<polygon fill="none" stroke="#000000" points="1703.5,-171.5 1703.5,-191.5 1879.5,-191.5 1879.5,-171.5 1703.5,-171.5"/>
<text text-anchor="middle" x="1791.5" y="-178.5" font-family="FreeSans" font-size="10.00" fill="#000000">phhepmc/PHHepMCGenEvent.h</text>
</a>
</g>
</g>
<!-- Node1&#45;&gt;Node46 -->
<g id="edge104" class="edge">
<title>Node1&#45;&gt;Node46</title>
<path fill="none" stroke="#191970" d="M2036.7425,-356.3006C1965.7006,-344.6816 1866.2086,-316.6359 1810.5,-249 1799.5214,-235.6709 1794.8758,-216.3899 1792.9156,-201.8447"/>
<polygon fill="#191970" stroke="#191970" points="1796.3894,-201.4092 1791.8798,-191.822 1789.4265,-202.1289 1796.3894,-201.4092"/>
</g>
<!-- Node48 -->
<g id="node48" class="node">
<title>Node48</title>
<g id="a_node48"><a xlink:href="../../d4/dd2/PHHepMCGenEventMap_8h.html" target="_top" xlink:title="phhepmc/PHHepMCGenEventMap.h">
<polygon fill="none" stroke="#000000" points="1819,-228.5 1819,-248.5 2016,-248.5 2016,-228.5 1819,-228.5"/>
<text text-anchor="middle" x="1917.5" y="-235.5" font-family="FreeSans" font-size="10.00" fill="#000000">phhepmc/PHHepMCGenEventMap.h</text>
</a>
</g>
</g>
<!-- Node1&#45;&gt;Node48 -->
<g id="edge109" class="edge">
<title>Node1&#45;&gt;Node48</title>
<path fill="none" stroke="#191970" d="M2036.8343,-353.5101C2003.5694,-345.3109 1967.1044,-330.9951 1941.5,-306 1928.7342,-293.5381 1922.7393,-273.8501 1919.9355,-258.946"/>
<polygon fill="#191970" stroke="#191970" points="1923.3358,-258.0307 1918.3541,-248.6801 1916.4174,-259.0964 1923.3358,-258.0307"/>
</g>
<!-- Node49 -->
<g id="node49" class="node">
<title>Node49</title>
<polygon fill="none" stroke="#bfbfbf" points="2855.5,-285.5 2855.5,-305.5 2969.5,-305.5 2969.5,-285.5 2855.5,-285.5"/>
<text text-anchor="middle" x="2912.5" y="-292.5" font-family="FreeSans" font-size="10.00" fill="#000000">HepMC/GenEvent.h</text>
</g>
<!-- Node1&#45;&gt;Node49 -->
<g id="edge115" class="edge">
<title>Node1&#45;&gt;Node49</title>
<path fill="none" stroke="#191970" d="M2202.236,-359.5778C2336.6048,-351.1839 2610.5097,-332.4091 2841.5,-306 2842.6142,-305.8726 2843.7378,-305.7412 2844.8687,-305.6062"/>
<polygon fill="#191970" stroke="#191970" points="2845.7071,-309.0284 2855.1915,-304.3066 2844.8326,-302.0832 2845.7071,-309.0284"/>
</g>
<!-- Node50 -->
<g id="node50" class="node">
<title>Node50</title>
<polygon fill="none" stroke="#bfbfbf" points="2987.5,-285.5 2987.5,-305.5 3105.5,-305.5 3105.5,-285.5 2987.5,-285.5"/>
<text text-anchor="middle" x="3046.5" y="-292.5" font-family="FreeSans" font-size="10.00" fill="#000000">HepMC/GenVertex.h</text>
</g>
<!-- Node1&#45;&gt;Node50 -->
<g id="edge116" class="edge">
<title>Node1&#45;&gt;Node50</title>
<path fill="none" stroke="#191970" d="M2202.0309,-361.2215C2353.5541,-354.6887 2686.4509,-337.9517 2976.888,-306.1002"/>
<polygon fill="#191970" stroke="#191970" points="2977.6463,-309.5378 2987.2014,-304.9608 2976.8775,-302.5802 2977.6463,-309.5378"/>
</g>
<!-- Node3 -->
<g id="node3" class="node">
<title>Node3</title>
<g id="a_node3"><a xlink:href="../../d5/dc2/SubsysReco_8h.html" target="_top" xlink:title="fun4all/SubsysReco.h">
<polygon fill="none" stroke="#000000" points="413.5,-171.5 413.5,-191.5 537.5,-191.5 537.5,-171.5 413.5,-171.5"/>
<text text-anchor="middle" x="475.5" y="-178.5" font-family="FreeSans" font-size="10.00" fill="#000000">fun4all/SubsysReco.h</text>
</a>
</g>
</g>
<!-- Node2&#45;&gt;Node3 -->
<g id="edge2" class="edge">
<title>Node2&#45;&gt;Node3</title>
<path fill="none" stroke="#191970" d="M249.855,-228.4408C296.5674,-218.7232 367.3755,-203.9931 417.187,-193.6308"/>
<polygon fill="#191970" stroke="#191970" points="418.0908,-197.0178 427.1684,-191.5544 416.6651,-190.1645 418.0908,-197.0178"/>
</g>
<!-- Node6 -->
<g id="node6" class="node">
<title>Node6</title>
<polygon fill="none" stroke="#bfbfbf" points="796,-57.5 796,-77.5 841,-77.5 841,-57.5 796,-57.5"/>
<text text-anchor="middle" x="818.5" y="-64.5" font-family="FreeSans" font-size="10.00" fill="#000000">string</text>
</g>
<!-- Node2&#45;&gt;Node6 -->
<g id="edge9" class="edge">
<title>Node2&#45;&gt;Node6</title>
<path fill="none" stroke="#191970" d="M194.6913,-228.0453C186.7476,-214.4321 175.7492,-190.12 184.5,-171 200.6298,-135.7572 214.7562,-128.9869 250.5,-114 299.89,-93.2915 672.0355,-74.3498 785.6569,-68.9994"/>
<polygon fill="#191970" stroke="#191970" points="786.0002,-72.4873 795.826,-68.5245 785.6735,-65.4949 786.0002,-72.4873"/>
</g>
<!-- Node7 -->
<g id="node7" class="node">
<title>Node7</title>
<polygon fill="none" stroke="#bfbfbf" points="194,-171.5 194,-191.5 243,-191.5 243,-171.5 194,-171.5"/>
<text text-anchor="middle" x="218.5" y="-178.5" font-family="FreeSans" font-size="10.00" fill="#000000">vector</text>
</g>
<!-- Node2&#45;&gt;Node7 -->
<g id="edge7" class="edge">
<title>Node2&#45;&gt;Node7</title>
<path fill="none" stroke="#191970" d="M204.5393,-228.3095C206.7633,-220.8524 209.8523,-210.4951 212.5594,-201.4186"/>
<polygon fill="#191970" stroke="#191970" points="215.9829,-202.1855 215.4871,-191.6022 209.2749,-200.1848 215.9829,-202.1855"/>
</g>
<!-- Node2&#45;&gt;Node8 -->
<g id="edge8" class="edge">
<title>Node2&#45;&gt;Node8</title>
<path fill="none" stroke="#191970" d="M262.5279,-228.8607C265.5575,-228.5345 268.5608,-228.244 271.5,-228 330.9428,-223.0652 2373.9533,-231.666 2418.5,-192 2431.431,-180.4858 2432.5123,-160.0545 2431.0699,-144.677"/>
<polygon fill="#191970" stroke="#191970" points="2434.5124,-144.0151 2429.7069,-134.5728 2427.5752,-144.951 2434.5124,-144.0151"/>
</g>
<!-- Node9 -->
<g id="node9" class="node">
<title>Node9</title>
<polygon fill="none" stroke="#bfbfbf" points="0,-171.5 0,-191.5 53,-191.5 53,-171.5 0,-171.5"/>
<text text-anchor="middle" x="26.5" y="-178.5" font-family="FreeSans" font-size="10.00" fill="#000000">limits.h</text>
</g>
<!-- Node2&#45;&gt;Node9 -->
<g id="edge10" class="edge">
<title>Node2&#45;&gt;Node9</title>
<path fill="none" stroke="#191970" d="M170.6163,-228.4408C140.5125,-218.6355 94.74,-203.7268 62.8856,-193.3513"/>
<polygon fill="#191970" stroke="#191970" points="63.6621,-189.9233 53.0698,-190.1542 61.4942,-196.5792 63.6621,-189.9233"/>
</g>
<!-- Node10 -->
<g id="node10" class="node">
<title>Node10</title>
<polygon fill="none" stroke="#bfbfbf" points="71.5,-171.5 71.5,-191.5 137.5,-191.5 137.5,-171.5 71.5,-171.5"/>
<text text-anchor="middle" x="104.5" y="-178.5" font-family="FreeSans" font-size="10.00" fill="#000000">TNtuple.h</text>
</g>
<!-- Node2&#45;&gt;Node10 -->
<g id="edge11" class="edge">
<title>Node2&#45;&gt;Node10</title>
<path fill="none" stroke="#191970" d="M184.1583,-228.3095C169.2612,-219.5556 147.5627,-206.8049 130.5728,-196.8211"/>
<polygon fill="#191970" stroke="#191970" points="132.0864,-193.651 121.6915,-191.6022 128.5399,-199.6862 132.0864,-193.651"/>
</g>
<!-- Node4 -->
<g id="node4" class="node">
<title>Node4</title>
<g id="a_node4"><a xlink:href="../../d2/de7/Fun4AllBase_8h.html" target="_top" xlink:title="Fun4AllBase.h">
<polygon fill="none" stroke="#000000" points="612,-114.5 612,-134.5 699,-134.5 699,-114.5 612,-114.5"/>
<text text-anchor="middle" x="655.5" y="-121.5" font-family="FreeSans" font-size="10.00" fill="#000000">Fun4AllBase.h</text>
</a>
</g>
</g>
<!-- Node3&#45;&gt;Node4 -->
<g id="edge3" class="edge">
<title>Node3&#45;&gt;Node4</title>
<path fill="none" stroke="#191970" d="M507.266,-171.4408C536.9921,-162.0275 581.5715,-147.9107 614.0784,-137.6169"/>
<polygon fill="#191970" stroke="#191970" points="615.2725,-140.9101 623.7493,-134.5544 613.1592,-134.2367 615.2725,-140.9101"/>
</g>
<!-- Node3&#45;&gt;Node6 -->
<g id="edge6" class="edge">
<title>Node3&#45;&gt;Node6</title>
<path fill="none" stroke="#191970" d="M491.2714,-171.263C514.6476,-156.5287 560.2844,-129.4235 602.5,-114 665.2763,-91.0647 742.6567,-77.8093 785.6828,-71.6816"/>
<polygon fill="#191970" stroke="#191970" points="786.4252,-75.1123 795.8517,-70.2757 785.4665,-68.1783 786.4252,-75.1123"/>
</g>
<!-- Node5 -->
<g id="node5" class="node">
<title>Node5</title>
<polygon fill="none" stroke="#bfbfbf" points="983,-57.5 983,-77.5 1032,-77.5 1032,-57.5 983,-57.5"/>
<text text-anchor="middle" x="1007.5" y="-64.5" font-family="FreeSans" font-size="10.00" fill="#000000">climits</text>
</g>
<!-- Node4&#45;&gt;Node5 -->
<g id="edge4" class="edge">
<title>Node4&#45;&gt;Node5</title>
<path fill="none" stroke="#191970" d="M699.0152,-117.4535C769.7571,-105.9981 908.2793,-83.567 972.8406,-73.1125"/>
<polygon fill="#191970" stroke="#191970" points="973.599,-76.5353 982.9109,-71.4818 972.48,-69.6253 973.599,-76.5353"/>
</g>
<!-- Node4&#45;&gt;Node6 -->
<g id="edge5" class="edge">
<title>Node4&#45;&gt;Node6</title>
<path fill="none" stroke="#191970" d="M684.2659,-114.4408C712.841,-104.4482 756.5731,-89.1554 786.295,-78.7619"/>
<polygon fill="#191970" stroke="#191970" points="787.5112,-82.0445 795.7954,-75.4397 785.2005,-75.4368 787.5112,-82.0445"/>
</g>
<!-- Node11&#45;&gt;Node6 -->
<g id="edge40" class="edge">
<title>Node11&#45;&gt;Node6</title>
<path fill="none" stroke="#191970" d="M1019.323,-291.4143C871.3627,-278.8637 444.6382,-238.8685 404.5,-192 352.0495,-130.7547 679.3048,-84.6116 785.8134,-71.3656"/>
<polygon fill="#191970" stroke="#191970" points="786.4823,-74.8099 795.9816,-70.118 785.6298,-67.862 786.4823,-74.8099"/>
</g>
<!-- Node12 -->
<g id="node12" class="node">
<title>Node12</title>
<g id="a_node12"><a xlink:href="../../dd/d9b/PHDataNode_8h.html" target="_top" xlink:title="PHDataNode.h">
<polygon fill="none" stroke="#000000" points="744,-171.5 744,-191.5 833,-191.5 833,-171.5 744,-171.5"/>
<text text-anchor="middle" x="788.5" y="-178.5" font-family="FreeSans" font-size="10.00" fill="#000000">PHDataNode.h</text>
</a>
</g>
</g>
<!-- Node11&#45;&gt;Node12 -->
<g id="edge13" class="edge">
<title>Node11&#45;&gt;Node12</title>
<path fill="none" stroke="#191970" d="M1019.4588,-288.7893C963.2508,-280.6001 876.1332,-265.7568 847.5,-249 827.2538,-237.1515 810.3967,-215.8576 799.9558,-200.3471"/>
<polygon fill="#191970" stroke="#191970" points="802.6651,-198.0893 794.3111,-191.5731 796.7781,-201.8767 802.6651,-198.0893"/>
</g>
<!-- Node13 -->
<g id="node13" class="node">
<title>Node13</title>
<g id="a_node13"><a xlink:href="../../d3/d62/PHNode_8h.html" target="_top" xlink:title="PHNode.h">
<polygon fill="none" stroke="#ff0000" points="756,-114.5 756,-134.5 821,-134.5 821,-114.5 756,-114.5"/>
<text text-anchor="middle" x="788.5" y="-121.5" font-family="FreeSans" font-size="10.00" fill="#000000">PHNode.h</text>
</a>
</g>
</g>
<!-- Node11&#45;&gt;Node13 -->
<g id="edge37" class="edge">
<title>Node11&#45;&gt;Node13</title>
<path fill="none" stroke="#191970" d="M1049.1362,-285.4676C1013.9458,-267.8863 939.8258,-229.7753 880.5,-192 855.2259,-175.9069 827.7024,-155.2679 809.4098,-141.0723"/>
<polygon fill="#191970" stroke="#191970" points="811.2552,-138.0722 801.2217,-134.6692 806.9431,-143.5864 811.2552,-138.0722"/>
</g>
<!-- Node15 -->
<g id="node15" class="node">
<title>Node15</title>
<g id="a_node15"><a xlink:href="../../d3/d79/PHIODataNode_8h.html" target="_top" xlink:title="PHIODataNode.h">
<polygon fill="none" stroke="#ff0000" points="1135.5,-228.5 1135.5,-248.5 1235.5,-248.5 1235.5,-228.5 1135.5,-228.5"/>
<text text-anchor="middle" x="1185.5" y="-235.5" font-family="FreeSans" font-size="10.00" fill="#000000">PHIODataNode.h</text>
</a>
</g>
</g>
<!-- Node11&#45;&gt;Node15 -->
<g id="edge17" class="edge">
<title>Node11&#45;&gt;Node15</title>
<path fill="none" stroke="#191970" d="M1089.9714,-285.4408C1108.2461,-276.461 1135.2317,-263.2008 1155.8643,-253.0624"/>
<polygon fill="#191970" stroke="#191970" points="1157.4116,-256.2019 1164.843,-248.6504 1154.3244,-249.9193 1157.4116,-256.2019"/>
</g>
<!-- Node22 -->
<g id="node22" class="node">
<title>Node22</title>
<g id="a_node22"><a xlink:href="../../d8/dfd/PHNodeIterator_8h.html" target="_top" xlink:title="PHNodeIterator.h">
<polygon fill="none" stroke="#000000" points="1139.5,-114.5 1139.5,-134.5 1241.5,-134.5 1241.5,-114.5 1139.5,-114.5"/>
<text text-anchor="middle" x="1190.5" y="-121.5" font-family="FreeSans" font-size="10.00" fill="#000000">PHNodeIterator.h</text>
</a>
</g>
</g>
<!-- Node11&#45;&gt;Node22 -->
<g id="edge38" class="edge">
<title>Node11&#45;&gt;Node22</title>
<path fill="none" stroke="#191970" d="M1068.5824,-285.2378C1067.0864,-262.2389 1066.6082,-205.8574 1093.5,-171 1105.2425,-155.7792 1123.2251,-145.2807 1140.5308,-138.1677"/>
<polygon fill="#191970" stroke="#191970" points="1141.928,-141.381 1150.0316,-134.5559 1139.4405,-134.8379 1141.928,-141.381"/>
</g>
<!-- Node24 -->
<g id="node24" class="node">
<title>Node24</title>
<polygon fill="none" stroke="#bfbfbf" points="1265,-57.5 1265,-77.5 1330,-77.5 1330,-57.5 1265,-57.5"/>
<text text-anchor="middle" x="1297.5" y="-64.5" font-family="FreeSans" font-size="10.00" fill="#000000">TObject.h</text>
</g>
<!-- Node11&#45;&gt;Node24 -->
<g id="edge39" class="edge">
<title>Node11&#45;&gt;Node24</title>
<path fill="none" stroke="#191970" d="M1077.6132,-285.0899C1088.3353,-271.5249 1108.0304,-247.2649 1126.5,-228 1152.4042,-200.9804 1158.3594,-193.1953 1188.5,-171 1214.1577,-152.1058 1227.0624,-156.5867 1250.5,-135 1265.6907,-121.0089 1278.7181,-101.2829 1287.1783,-86.7671"/>
<polygon fill="#191970" stroke="#191970" points="1290.4337,-88.1181 1292.2761,-77.6847 1284.3294,-84.6919 1290.4337,-88.1181"/>
</g>
<!-- Node12&#45;&gt;Node13 -->
<g id="edge14" class="edge">
<title>Node12&#45;&gt;Node13</title>
<path fill="none" stroke="#191970" d="M788.5,-171.3095C788.5,-163.9335 788.5,-153.72 788.5,-144.715"/>
<polygon fill="#191970" stroke="#191970" points="792.0001,-144.6022 788.5,-134.6022 785.0001,-144.6023 792.0001,-144.6022"/>
</g>
<!-- Node12&#45;&gt;Node14 -->
<g id="edge16" class="edge">
<title>Node12&#45;&gt;Node14</title>
<path fill="none" stroke="#191970" d="M743.9194,-171.7948C690.3149,-159.9145 606.9297,-140.6735 602.5,-135 596.7562,-127.6434 596.9622,-121.5129 602.5,-114 653.2964,-45.0862 702.1225,-71.4852 786.5,-57 1011.3857,-18.3935 1740.2646,-11.7482 1919.4383,-10.6889"/>
<polygon fill="#191970" stroke="#191970" points="1919.5032,-14.1887 1929.4832,-10.632 1919.4635,-7.1888 1919.5032,-14.1887"/>
</g>
<!-- Node13&#45;&gt;Node6 -->
<g id="edge15" class="edge">
<title>Node13&#45;&gt;Node6</title>
<path fill="none" stroke="#191970" d="M793.8634,-114.3095C797.9162,-106.6093 803.5965,-95.8166 808.4817,-86.5349"/>
<polygon fill="#191970" stroke="#191970" points="811.6227,-88.0816 813.183,-77.6022 805.4283,-84.8213 811.6227,-88.0816"/>
</g>
<!-- Node15&#45;&gt;Node6 -->
<g id="edge36" class="edge">
<title>Node15&#45;&gt;Node6</title>
<path fill="none" stroke="#191970" d="M1166.9397,-228.3185C1141.0864,-214.3619 1092.5543,-188.9751 1049.5,-171 1003.975,-151.9934 989.7239,-154.7124 944.5,-135 908.5938,-119.3491 869.067,-97.3384 844.0331,-82.7596"/>
<polygon fill="#191970" stroke="#191970" points="845.5815,-79.6101 835.186,-77.5647 842.0371,-85.6464 845.5815,-79.6101"/>
</g>
<!-- Node15&#45;&gt;Node12 -->
<g id="edge18" class="edge">
<title>Node15&#45;&gt;Node12</title>
<path fill="none" stroke="#191970" d="M1135.2197,-231.2809C1060.439,-220.5441 920.4532,-200.4454 843.1958,-189.3531"/>
<polygon fill="#191970" stroke="#191970" points="843.5766,-185.8719 833.1806,-187.9151 842.5817,-192.8009 843.5766,-185.8719"/>
</g>
<!-- Node16 -->
<g id="node16" class="node">
<title>Node16</title>
<g id="a_node16"><a xlink:href="../../d9/d53/PHIOManager_8h.html" target="_top" xlink:title="PHIOManager.h">
<polygon fill="none" stroke="#000000" points="1544,-114.5 1544,-134.5 1637,-134.5 1637,-114.5 1544,-114.5"/>
<text text-anchor="middle" x="1590.5" y="-121.5" font-family="FreeSans" font-size="10.00" fill="#000000">PHIOManager.h</text>
</a>
</g>
</g>
<!-- Node15&#45;&gt;Node16 -->
<g id="edge19" class="edge">
<title>Node15&#45;&gt;Node16</title>
<path fill="none" stroke="#191970" d="M1235.5913,-235.2232C1315.9267,-229.352 1469.5219,-215.4148 1518.5,-192 1542.3689,-180.5891 1563.6376,-158.3874 1576.7594,-142.563"/>
<polygon fill="#191970" stroke="#191970" points="1579.6654,-144.5331 1583.176,-134.5367 1574.1979,-140.162 1579.6654,-144.5331"/>
</g>
<!-- Node18 -->
<g id="node18" class="node">
<title>Node18</title>
<g id="a_node18"><a xlink:href="../../dd/de7/PHNodeIOManager_8h.html" target="_top" xlink:title="PHNodeIOManager.h">
<polygon fill="none" stroke="#000000" points="1565.5,-171.5 1565.5,-191.5 1685.5,-191.5 1685.5,-171.5 1565.5,-171.5"/>
<text text-anchor="middle" x="1625.5" y="-178.5" font-family="FreeSans" font-size="10.00" fill="#000000">PHNodeIOManager.h</text>
</a>
</g>
</g>
<!-- Node15&#45;&gt;Node18 -->
<g id="edge22" class="edge">
<title>Node15&#45;&gt;Node18</title>
<path fill="none" stroke="#191970" d="M1235.5545,-232.3751C1306.0697,-223.6932 1438.6623,-207.1725 1551.5,-192 1552.7659,-191.8298 1554.0439,-191.6571 1555.3311,-191.4825"/>
<polygon fill="#191970" stroke="#191970" points="1555.9025,-194.937 1565.3347,-190.1117 1554.9521,-188.0018 1555.9025,-194.937"/>
</g>
<!-- Node21 -->
<g id="node21" class="node">
<title>Node21</title>
<g id="a_node21"><a xlink:href="../../db/d17/PHTypedNodeIterator_8h.html" target="_top" xlink:title="PHTypedNodeIterator.h">
<polygon fill="none" stroke="#000000" points="1377.5,-171.5 1377.5,-191.5 1509.5,-191.5 1509.5,-171.5 1377.5,-171.5"/>
<text text-anchor="middle" x="1443.5" y="-178.5" font-family="FreeSans" font-size="10.00" fill="#000000">PHTypedNodeIterator.h</text>
</a>
</g>
</g>
<!-- Node15&#45;&gt;Node21 -->
<g id="edge29" class="edge">
<title>Node15&#45;&gt;Node21</title>
<path fill="none" stroke="#191970" d="M1231.0313,-228.4408C1274.8324,-218.7638 1341.133,-204.116 1388.0036,-193.7608"/>
<polygon fill="#191970" stroke="#191970" points="1388.9812,-197.1293 1397.9907,-191.5544 1387.471,-190.2942 1388.9812,-197.1293"/>
</g>
<!-- Node15&#45;&gt;Node24 -->
<g id="edge35" class="edge">
<title>Node15&#45;&gt;Node24</title>
<path fill="none" stroke="#191970" d="M1185.4151,-228.103C1185.8403,-213.6621 1188.6482,-187.4572 1202.5,-171 1227.8686,-140.8597 1258.7732,-165.6689 1283.5,-135 1294.1552,-121.7843 1297.3008,-102.491 1297.9874,-87.9123"/>
<polygon fill="#191970" stroke="#191970" points="1301.4877,-87.9059 1298.1169,-77.8616 1294.4883,-87.8157 1301.4877,-87.9059"/>
</g>
<!-- Node16&#45;&gt;Node6 -->
<g id="edge21" class="edge">
<title>Node16&#45;&gt;Node6</title>
<path fill="none" stroke="#191970" d="M1543.7852,-116.1787C1538.3066,-115.3617 1532.7872,-114.6108 1527.5,-114 1282.3888,-85.6824 1219.7,-94.3383 973.5,-78 931.3708,-75.2042 882.8066,-71.9014 851.4305,-69.7571"/>
<polygon fill="#191970" stroke="#191970" points="851.3035,-66.2403 841.088,-69.0497 850.8258,-73.224 851.3035,-66.2403"/>
</g>
<!-- Node17 -->
<g id="node17" class="node">
<title>Node17</title>
<polygon fill="none" stroke="#bfbfbf" points="1899.5,-57.5 1899.5,-77.5 1953.5,-77.5 1953.5,-57.5 1899.5,-57.5"/>
<text text-anchor="middle" x="1926.5" y="-64.5" font-family="FreeSans" font-size="10.00" fill="#000000">cstddef</text>
</g>
<!-- Node16&#45;&gt;Node17 -->
<g id="edge20" class="edge">
<title>Node16&#45;&gt;Node17</title>
<path fill="none" stroke="#191970" d="M1637.1485,-115.8401C1640.6502,-115.2105 1644.1303,-114.5911 1647.5,-114 1733.8805,-98.8467 1835.524,-82.2051 1889.094,-73.5268"/>
<polygon fill="#191970" stroke="#191970" points="1889.8357,-76.9524 1899.1483,-71.9001 1888.7176,-70.0423 1889.8357,-76.9524"/>
</g>
<!-- Node18&#45;&gt;Node6 -->
<g id="edge28" class="edge">
<title>Node18&#45;&gt;Node6</title>
<path fill="none" stroke="#191970" d="M1603.87,-171.3792C1569.9169,-156.009 1501.6623,-127.1794 1440.5,-114 1411.4743,-107.7454 975.5104,-78.0686 851.2992,-69.701"/>
<polygon fill="#191970" stroke="#191970" points="851.4632,-66.2042 841.2507,-69.0247 850.9931,-73.1884 851.4632,-66.2042"/>
</g>
<!-- Node18&#45;&gt;Node16 -->
<g id="edge23" class="edge">
<title>Node18&#45;&gt;Node16</title>
<path fill="none" stroke="#191970" d="M1619.2427,-171.3095C1614.4647,-163.5282 1607.7477,-152.589 1602.0084,-143.2423"/>
<polygon fill="#191970" stroke="#191970" points="1604.9184,-141.2925 1596.7031,-134.6022 1598.9532,-144.9554 1604.9184,-141.2925"/>
</g>
<!-- Node18&#45;&gt;Node17 -->
<g id="edge26" class="edge">
<title>Node18&#45;&gt;Node17</title>
<path fill="none" stroke="#191970" d="M1650.3232,-171.4088C1683.5088,-157.9853 1744.221,-133.6622 1796.5,-114 1827.833,-102.2156 1863.669,-89.4499 1889.7697,-80.2807"/>
<polygon fill="#191970" stroke="#191970" points="1890.9872,-83.5628 1899.2667,-76.9522 1888.6719,-76.9568 1890.9872,-83.5628"/>
</g>
<!-- Node19 -->
<g id="node19" class="node">
<title>Node19</title>
<g id="a_node19"><a xlink:href="../../d5/d6f/phool_8h.html" target="_top" xlink:title="phool.h">
<polygon fill="none" stroke="#000000" points="1656.5,-114.5 1656.5,-134.5 1710.5,-134.5 1710.5,-114.5 1656.5,-114.5"/>
<text text-anchor="middle" x="1683.5" y="-121.5" font-family="FreeSans" font-size="10.00" fill="#000000">phool.h</text>
</a>
</g>
</g>
<!-- Node18&#45;&gt;Node19 -->
<g id="edge24" class="edge">
<title>Node18&#45;&gt;Node19</title>
<path fill="none" stroke="#191970" d="M1635.8692,-171.3095C1644.1995,-163.1229 1656.0864,-151.441 1665.9011,-141.7955"/>
<polygon fill="#191970" stroke="#191970" points="1668.5415,-144.1079 1673.2205,-134.6022 1663.6349,-139.1153 1668.5415,-144.1079"/>
</g>
<!-- Node20 -->
<g id="node20" class="node">
<title>Node20</title>
<polygon fill="none" stroke="#bfbfbf" points="1954,-114.5 1954,-134.5 1993,-134.5 1993,-114.5 1954,-114.5"/>
<text text-anchor="middle" x="1973.5" y="-121.5" font-family="FreeSans" font-size="10.00" fill="#000000">map</text>
</g>
<!-- Node18&#45;&gt;Node20 -->
<g id="edge27" class="edge">
<title>Node18&#45;&gt;Node20</title>
<path fill="none" stroke="#191970" d="M1685.7062,-172.3072C1688.6793,-171.8629 1691.6232,-171.4252 1694.5,-171 1802.8287,-154.9893 1834.54,-162.4913 1944.0111,-134.992"/>
<polygon fill="#191970" stroke="#191970" points="1944.9614,-138.3617 1953.7849,-132.4969 1943.2299,-131.5792 1944.9614,-138.3617"/>
</g>
<!-- Node19&#45;&gt;Node14 -->
<g id="edge25" class="edge">
<title>Node19&#45;&gt;Node14</title>
<path fill="none" stroke="#191970" d="M1692.5969,-114.069C1706.2491,-99.0929 1733.5408,-71.6895 1762.5,-57 1813.0601,-31.3535 1878.1314,-19.5644 1919.3451,-14.3523"/>
<polygon fill="#191970" stroke="#191970" points="1919.7717,-17.8263 1929.2858,-13.1644 1918.9411,-10.8757 1919.7717,-17.8263"/>
</g>
<!-- Node21&#45;&gt;Node17 -->
<g id="edge34" class="edge">
<title>Node21&#45;&gt;Node17</title>
<path fill="none" stroke="#191970" d="M1453.3179,-171.4061C1468.9197,-156.0719 1501.0462,-127.2897 1534.5,-114 1598.5564,-88.5533 1803.9606,-74.3873 1889.0434,-69.4849"/>
<polygon fill="#191970" stroke="#191970" points="1889.493,-72.9652 1899.2796,-68.9065 1889.098,-65.9763 1889.493,-72.9652"/>
</g>
<!-- Node21&#45;&gt;Node22 -->
<g id="edge30" class="edge">
<title>Node21&#45;&gt;Node22</title>
<path fill="none" stroke="#191970" d="M1398.8511,-171.4408C1355.8988,-161.7638 1290.8832,-147.116 1244.9209,-136.7608"/>
<polygon fill="#191970" stroke="#191970" points="1245.6521,-133.3379 1235.1274,-134.5544 1244.1136,-140.1668 1245.6521,-133.3379"/>
</g>
<!-- Node22&#45;&gt;Node6 -->
<g id="edge33" class="edge">
<title>Node22&#45;&gt;Node6</title>
<path fill="none" stroke="#191970" d="M1139.1656,-116.6342C1061.3781,-104.7152 915.862,-82.4184 851.0667,-72.4901"/>
<polygon fill="#191970" stroke="#191970" points="851.4361,-69.0059 841.0213,-70.9508 850.3758,-75.9251 851.4361,-69.0059"/>
</g>
<!-- Node23 -->
<g id="node23" class="node">
<title>Node23</title>
<g id="a_node23"><a xlink:href="../../db/dd5/PHPointerList_8h.html" target="_top" xlink:title="PHPointerList.h">
<polygon fill="none" stroke="#000000" points="1144.5,-57.5 1144.5,-77.5 1236.5,-77.5 1236.5,-57.5 1144.5,-57.5"/>
<text text-anchor="middle" x="1190.5" y="-64.5" font-family="FreeSans" font-size="10.00" fill="#000000">PHPointerList.h</text>
</a>
</g>
</g>
<!-- Node22&#45;&gt;Node23 -->
<g id="edge31" class="edge">
<title>Node22&#45;&gt;Node23</title>
<path fill="none" stroke="#191970" d="M1190.5,-114.3095C1190.5,-106.9335 1190.5,-96.72 1190.5,-87.715"/>
<polygon fill="#191970" stroke="#191970" points="1194.0001,-87.6022 1190.5,-77.6022 1187.0001,-87.6023 1194.0001,-87.6022"/>
</g>
<!-- Node23&#45;&gt;Node14 -->
<g id="edge32" class="edge">
<title>Node23&#45;&gt;Node14</title>
<path fill="none" stroke="#191970" d="M1236.5875,-59.5052C1242.9287,-58.5662 1249.3667,-57.6964 1255.5,-57 1506.9697,-28.4483 1811.115,-15.694 1919.0929,-11.836"/>
<polygon fill="#191970" stroke="#191970" points="1919.3472,-15.3293 1929.218,-11.4799 1919.1011,-8.3336 1919.3472,-15.3293"/>
</g>
<!-- Node25&#45;&gt;Node4 -->
<g id="edge42" class="edge">
<title>Node25&#45;&gt;Node4</title>
<path fill="none" stroke="#191970" d="M414.1478,-228.5169C453.6143,-221.2466 504.0396,-209.5533 546.5,-192 563.8719,-184.8184 605.7704,-157.7292 632.2683,-140.1284"/>
<polygon fill="#191970" stroke="#191970" points="634.2302,-143.027 640.6064,-134.5656 630.3453,-137.2039 634.2302,-143.027"/>
</g>
<!-- Node25&#45;&gt;Node6 -->
<g id="edge52" class="edge">
<title>Node25&#45;&gt;Node6</title>
<path fill="none" stroke="#191970" d="M349.141,-228.4626C351.8332,-214.449 358.2671,-188.7485 371.5,-171 397.1645,-136.5778 409.5979,-129.855 449.5,-114 510.392,-89.8047 706.657,-74.747 785.3789,-69.5456"/>
<polygon fill="#191970" stroke="#191970" points="785.9281,-73.0175 795.6805,-68.8772 785.4748,-66.0321 785.9281,-73.0175"/>
</g>
<!-- Node25&#45;&gt;Node7 -->
<g id="edge54" class="edge">
<title>Node25&#45;&gt;Node7</title>
<path fill="none" stroke="#191970" d="M324.7343,-228.4408C304.2286,-219.3801 273.8603,-205.9615 250.8385,-195.7891"/>
<polygon fill="#191970" stroke="#191970" points="252.0335,-192.4907 241.472,-191.6504 249.2043,-198.8935 252.0335,-192.4907"/>
</g>
<!-- Node25&#45;&gt;Node14 -->
<g id="edge50" class="edge">
<title>Node25&#45;&gt;Node14</title>
<path fill="none" stroke="#191970" d="M332.3779,-228.2754C309.5169,-211.7906 267.0694,-176.9102 250.5,-135 230.9151,-85.4625 290.5196,-72.4444 341.5,-57 419.222,-33.4543 1676.1272,-14.5127 1919.0392,-11.0622"/>
<polygon fill="#191970" stroke="#191970" points="1919.2438,-14.5598 1929.1932,-10.9186 1919.1447,-7.5605 1919.2438,-14.5598"/>
</g>
<!-- Node25&#45;&gt;Node20 -->
<g id="edge51" class="edge">
<title>Node25&#45;&gt;Node20</title>
<path fill="none" stroke="#191970" d="M414.2249,-237.6588C701.1178,-233.8919 1818.4309,-217.6292 1888.5,-192 1916.4839,-181.7643 1942.3273,-158.4205 1957.998,-142.0668"/>
<polygon fill="#191970" stroke="#191970" points="1960.6065,-144.4012 1964.8385,-134.6882 1955.4732,-139.6421 1960.6065,-144.4012"/>
</g>
<!-- Node26 -->
<g id="node26" class="node">
<title>Node26</title>
<g id="a_node26"><a xlink:href="../../d0/d59/Fun4AllHistoManager_8h.html" target="_top" xlink:title="Fun4AllHistoManager.h">
<polygon fill="none" stroke="#000000" points="593.5,-171.5 593.5,-191.5 725.5,-191.5 725.5,-171.5 593.5,-171.5"/>
<text text-anchor="middle" x="659.5" y="-178.5" font-family="FreeSans" font-size="10.00" fill="#000000">Fun4AllHistoManager.h</text>
</a>
</g>
</g>
<!-- Node25&#45;&gt;Node26 -->
<g id="edge43" class="edge">
<title>Node25&#45;&gt;Node26</title>
<path fill="none" stroke="#191970" d="M402.5611,-228.4408C456.2787,-218.627 537.9796,-203.7008 594.7777,-193.3243"/>
<polygon fill="#191970" stroke="#191970" points="595.5194,-196.7468 604.7276,-191.5065 594.2614,-189.8607 595.5194,-196.7468"/>
</g>
<!-- Node27 -->
<g id="node27" class="node">
<title>Node27</title>
<g id="a_node27"><a xlink:href="../../dc/d26/PHTimer_8h.html" target="_top" xlink:title="high precision timer">
<polygon fill="none" stroke="#ff0000" points="260,-114.5 260,-134.5 359,-134.5 359,-114.5 260,-114.5"/>
<text text-anchor="middle" x="309.5" y="-121.5" font-family="FreeSans" font-size="10.00" fill="#000000">phool/PHTimer.h</text>
</a>
</g>
</g>
<!-- Node25&#45;&gt;Node27 -->
<g id="edge47" class="edge">
<title>Node25&#45;&gt;Node27</title>
<path fill="none" stroke="#191970" d="M344.1278,-228.3833C337.862,-209.586 324.3209,-168.9627 316.152,-144.4559"/>
<polygon fill="#191970" stroke="#191970" points="319.4021,-143.138 312.9193,-134.7579 312.7613,-145.3516 319.4021,-143.138"/>
</g>
<!-- Node28 -->
<g id="node28" class="node">
<title>Node28</title>
<polygon fill="none" stroke="#bfbfbf" points="1387,-114.5 1387,-134.5 1432,-134.5 1432,-114.5 1387,-114.5"/>
<text text-anchor="middle" x="1409.5" y="-121.5" font-family="FreeSans" font-size="10.00" fill="#000000">utility</text>
</g>
<!-- Node25&#45;&gt;Node28 -->
<g id="edge53" class="edge">
<title>Node25&#45;&gt;Node28</title>
<path fill="none" stroke="#191970" d="M414.2256,-237.8409C621.578,-235.4467 1245.9167,-225.5059 1330.5,-192 1356.7795,-181.5899 1380.4845,-158.6363 1394.9218,-142.3938"/>
<polygon fill="#191970" stroke="#191970" points="1397.7401,-144.4838 1401.5913,-134.6137 1392.4256,-139.9279 1397.7401,-144.4838"/>
</g>
<!-- Node26&#45;&gt;Node4 -->
<g id="edge44" class="edge">
<title>Node26&#45;&gt;Node4</title>
<path fill="none" stroke="#191970" d="M658.7849,-171.3095C658.2673,-163.9335 657.5505,-153.72 656.9186,-144.715"/>
<polygon fill="#191970" stroke="#191970" points="660.4005,-144.3327 656.2089,-134.6022 653.4176,-144.8227 660.4005,-144.3327"/>
</g>
<!-- Node26&#45;&gt;Node6 -->
<g id="edge46" class="edge">
<title>Node26&#45;&gt;Node6</title>
<path fill="none" stroke="#191970" d="M671.9205,-171.3141C688.5733,-157.7858 719.2066,-133.3471 746.5,-114 761.7362,-103.1997 779.3388,-91.8127 793.3252,-83.0102"/>
<polygon fill="#191970" stroke="#191970" points="795.3075,-85.8988 801.9329,-77.6311 791.5978,-79.9626 795.3075,-85.8988"/>
</g>
<!-- Node26&#45;&gt;Node20 -->
<g id="edge45" class="edge">
<title>Node26&#45;&gt;Node20</title>
<path fill="none" stroke="#191970" d="M725.7091,-171.8306C728.677,-171.5234 731.6178,-171.2439 734.5,-171 999.4967,-148.5791 1664.8279,-186.0334 1943.6901,-134.7278"/>
<polygon fill="#191970" stroke="#191970" points="1944.6855,-138.1009 1953.85,-132.7847 1943.3706,-131.2255 1944.6855,-138.1009"/>
</g>
<!-- Node27&#45;&gt;Node6 -->
<g id="edge49" class="edge">
<title>Node27&#45;&gt;Node6</title>
<path fill="none" stroke="#191970" d="M359.2318,-118.9308C462.7303,-107.3406 698.8642,-80.8973 785.6844,-71.1748"/>
<polygon fill="#191970" stroke="#191970" points="786.1999,-74.6391 795.7483,-70.0478 785.4208,-67.6826 786.1999,-74.6391"/>
</g>
<!-- Node27&#45;&gt;Node14 -->
<g id="edge48" class="edge">
<title>Node27&#45;&gt;Node14</title>
<path fill="none" stroke="#191970" d="M315.4033,-114.3648C325.1806,-98.696 346.3765,-69.134 373.5,-57 446.1267,-24.5095 1679.7339,-12.788 1919.3579,-10.8128"/>
<polygon fill="#191970" stroke="#191970" points="1919.4076,-14.3126 1929.3787,-10.7311 1919.3505,-7.3128 1919.4076,-14.3126"/>
</g>
<!-- Node30&#45;&gt;Node6 -->
<g id="edge59" class="edge">
<title>Node30&#45;&gt;Node6</title>
<path fill="none" stroke="#191970" d="M938.3859,-171.3563C919.0727,-163.3183 893.1603,-150.8186 873.5,-135 856.3031,-121.1634 840.8305,-101.1514 830.7099,-86.5099"/>
<polygon fill="#191970" stroke="#191970" points="833.3392,-84.1457 824.8678,-77.7828 827.5222,-88.0397 833.3392,-84.1457"/>
</g>
<!-- Node30&#45;&gt;Node13 -->
<g id="edge57" class="edge">
<title>Node30&#45;&gt;Node13</title>
<path fill="none" stroke="#191970" d="M934.2634,-171.4408C905.1588,-162.0681 861.574,-148.0323 829.6453,-137.7502"/>
<polygon fill="#191970" stroke="#191970" points="830.313,-134.2883 819.7215,-134.5544 828.1673,-140.9513 830.313,-134.2883"/>
</g>
<!-- Node30&#45;&gt;Node23 -->
<g id="edge58" class="edge">
<title>Node30&#45;&gt;Node23</title>
<path fill="none" stroke="#191970" d="M956.9574,-171.2042C946.1586,-156.8836 930.561,-130.8206 944.5,-114 968.1268,-85.4888 1069.2757,-74.3313 1134.2885,-70.0573"/>
<polygon fill="#191970" stroke="#191970" points="1134.6315,-73.5428 1144.3949,-69.4288 1134.197,-66.5563 1134.6315,-73.5428"/>
</g>
<!-- Node31&#45;&gt;Node14 -->
<g id="edge64" class="edge">
<title>Node31&#45;&gt;Node14</title>
<path fill="none" stroke="#191970" d="M2142.1775,-171.3532C2139.8946,-157.2097 2134.0796,-131.3559 2120.5,-114 2087.1362,-71.3583 2031.0207,-41.0692 1994.6316,-24.6827"/>
<polygon fill="#191970" stroke="#191970" points="1995.9428,-21.436 1985.3791,-20.6239 1993.1307,-27.8463 1995.9428,-21.436"/>
</g>
<!-- Node31&#45;&gt;Node20 -->
<g id="edge66" class="edge">
<title>Node31&#45;&gt;Node20</title>
<path fill="none" stroke="#191970" d="M2113.4987,-171.4408C2082.3263,-160.9888 2033.8589,-144.738 2002.908,-134.3603"/>
<polygon fill="#191970" stroke="#191970" points="2003.7274,-130.9436 1993.1335,-131.083 2001.502,-137.5805 2003.7274,-130.9436"/>
</g>
<!-- Node31&#45;&gt;Node28 -->
<g id="edge67" class="edge">
<title>Node31&#45;&gt;Node28</title>
<path fill="none" stroke="#191970" d="M2049.3271,-174.5323C1929.6451,-165.6261 1716.6965,-149.6078 1534.5,-135 1503.1588,-132.4872 1467.4113,-129.4691 1442.1957,-127.3148"/>
<polygon fill="#191970" stroke="#191970" points="1442.3395,-123.8144 1432.0773,-126.4484 1441.7422,-130.7889 1442.3395,-123.8144"/>
</g>
<!-- Node32 -->
<g id="node32" class="node">
<title>Node32</title>
<g id="a_node32"><a xlink:href="../../df/d32/PHObject_8h.html" target="_top" xlink:title="phool/PHObject.h">
<polygon fill="none" stroke="#000000" points="2167.5,-114.5 2167.5,-134.5 2271.5,-134.5 2271.5,-114.5 2167.5,-114.5"/>
<text text-anchor="middle" x="2219.5" y="-121.5" font-family="FreeSans" font-size="10.00" fill="#000000">phool/PHObject.h</text>
</a>
</g>
</g>
<!-- Node31&#45;&gt;Node32 -->
<g id="edge61" class="edge">
<title>Node31&#45;&gt;Node32</title>
<path fill="none" stroke="#191970" d="M2157.0873,-171.3095C2168.435,-162.7987 2184.8198,-150.5102 2197.9542,-140.6594"/>
<polygon fill="#191970" stroke="#191970" points="2200.1303,-143.4023 2206.0304,-134.6022 2195.9303,-137.8023 2200.1303,-143.4023"/>
</g>
<!-- Node33 -->
<g id="node33" class="node">
<title>Node33</title>
<polygon fill="none" stroke="#bfbfbf" points="2057.5,-114.5 2057.5,-134.5 2111.5,-134.5 2111.5,-114.5 2057.5,-114.5"/>
<text text-anchor="middle" x="2084.5" y="-121.5" font-family="FreeSans" font-size="10.00" fill="#000000">iterator</text>
</g>
<!-- Node31&#45;&gt;Node33 -->
<g id="edge65" class="edge">
<title>Node31&#45;&gt;Node33</title>
<path fill="none" stroke="#191970" d="M2132.952,-171.3095C2124.4781,-163.1229 2112.3863,-151.441 2102.4023,-141.7955"/>
<polygon fill="#191970" stroke="#191970" points="2104.5805,-139.0332 2094.9567,-134.6022 2099.7168,-144.0676 2104.5805,-139.0332"/>
</g>
<!-- Node32&#45;&gt;Node14 -->
<g id="edge63" class="edge">
<title>Node32&#45;&gt;Node14</title>
<path fill="none" stroke="#191970" d="M2212.288,-114.0333C2201.3657,-99.0128 2179.1612,-71.5547 2153.5,-57 2105.0011,-29.492 2040.7811,-18.1923 1999.7917,-13.5938"/>
<polygon fill="#191970" stroke="#191970" points="1999.9495,-10.0914 1989.6412,-12.539 1999.2259,-17.0539 1999.9495,-10.0914"/>
</g>
<!-- Node32&#45;&gt;Node24 -->
<g id="edge62" class="edge">
<title>Node32&#45;&gt;Node24</title>
<path fill="none" stroke="#191970" d="M2167.3949,-118.4875C2152.2824,-116.8755 2135.746,-115.2385 2120.5,-114 1822.1627,-89.7657 1461.9591,-74.0918 1340.1205,-69.1669"/>
<polygon fill="#191970" stroke="#191970" points="1340.2146,-65.668 1330.0822,-68.7637 1339.9336,-72.6623 1340.2146,-65.668"/>
</g>
<!-- Node34&#45;&gt;Node6 -->
<g id="edge72" class="edge">
<title>Node34&#45;&gt;Node6</title>
<path fill="none" stroke="#191970" d="M2668.8617,-171.4192C2625.8054,-155.6824 2537.9146,-125.8549 2460.5,-114 2133.7675,-63.9658 1303.6928,-93.1737 973.5,-78 931.3227,-76.0618 882.7692,-72.5677 851.4087,-70.1454"/>
<polygon fill="#191970" stroke="#191970" points="851.3141,-66.6274 841.0718,-69.3376 850.7687,-73.6062 851.3141,-66.6274"/>
</g>
<!-- Node34&#45;&gt;Node8 -->
<g id="edge70" class="edge">
<title>Node34&#45;&gt;Node8</title>
<path fill="none" stroke="#191970" d="M2640.4263,-171.4893C2593.6836,-162.7247 2524.9347,-149.201 2465.5,-135 2464.2268,-134.6958 2462.9318,-134.3784 2461.6253,-134.0516"/>
<polygon fill="#191970" stroke="#191970" points="2462.1169,-130.5626 2451.5569,-131.4211 2460.3474,-137.3353 2462.1169,-130.5626"/>
</g>
<!-- Node34&#45;&gt;Node14 -->
<g id="edge71" class="edge">
<title>Node34&#45;&gt;Node14</title>
<path fill="none" stroke="#191970" d="M2675.0052,-171.4255C2624.9036,-147.2801 2491.6711,-85.968 2373.5,-57 2239.2567,-24.0921 2074.7354,-14.403 1999.9474,-11.6054"/>
<polygon fill="#191970" stroke="#191970" points="1999.6954,-8.0945 1989.5785,-11.2407 1999.4493,-15.0901 1999.6954,-8.0945"/>
</g>
<!-- Node34&#45;&gt;Node32 -->
<g id="edge69" class="edge">
<title>Node34&#45;&gt;Node32</title>
<path fill="none" stroke="#191970" d="M2629.3142,-173.5744C2537.1973,-162.5436 2371.552,-142.7079 2281.6443,-131.9417"/>
<polygon fill="#191970" stroke="#191970" points="2281.9406,-128.4522 2271.5954,-130.7383 2281.1083,-135.4026 2281.9406,-128.4522"/>
</g>
<!-- Node35&#45;&gt;Node5 -->
<g id="edge78" class="edge">
<title>Node35&#45;&gt;Node5</title>
<path fill="none" stroke="#191970" d="M1231.7802,-171.4446C1203.9191,-162.9458 1164.0574,-149.8122 1130.5,-135 1095.3277,-119.475 1056.7702,-97.435 1032.3718,-82.8151"/>
<polygon fill="#191970" stroke="#191970" points="1034.1193,-79.7818 1023.7507,-77.6043 1030.4983,-85.7725 1034.1193,-79.7818"/>
</g>
<!-- Node35&#45;&gt;Node6 -->
<g id="edge80" class="edge">
<title>Node35&#45;&gt;Node6</title>
<path fill="none" stroke="#191970" d="M1211.4502,-171.6514C1175.3119,-164.1171 1127.5084,-152.0913 1087.5,-135 1071.1668,-128.0226 1070.0313,-120.4942 1053.5,-114 984.5482,-86.9127 897.7772,-75.0077 851.3665,-70.2713"/>
<polygon fill="#191970" stroke="#191970" points="851.575,-66.7751 841.2832,-69.2911 850.8977,-73.7423 851.575,-66.7751"/>
</g>
<!-- Node35&#45;&gt;Node8 -->
<g id="edge77" class="edge">
<title>Node35&#45;&gt;Node8</title>
<path fill="none" stroke="#191970" d="M1321.7635,-175.1685C1336.8991,-173.6098 1353.3177,-172.08 1368.5,-171 1773.1265,-142.2164 1875.4729,-157.4535 2280.5,-135 2319.0654,-132.862 2363.2646,-129.5943 2393.0426,-127.2727"/>
<polygon fill="#191970" stroke="#191970" points="2393.6291,-130.7375 2403.3239,-126.464 2393.0802,-123.759 2393.6291,-130.7375"/>
</g>
<!-- Node35&#45;&gt;Node14 -->
<g id="edge79" class="edge">
<title>Node35&#45;&gt;Node14</title>
<path fill="none" stroke="#191970" d="M1279.3366,-171.4765C1299.1968,-156.5027 1339.0997,-128.5056 1377.5,-114 1571.827,-40.5934 1822.7007,-18.5636 1919.2153,-12.5572"/>
<polygon fill="#191970" stroke="#191970" points="1919.6346,-16.0385 1929.4077,-11.9474 1919.2165,-9.051 1919.6346,-16.0385"/>
</g>
<!-- Node35&#45;&gt;Node28 -->
<g id="edge81" class="edge">
<title>Node35&#45;&gt;Node28</title>
<path fill="none" stroke="#191970" d="M1291.7364,-171.4408C1315.6252,-161.9186 1351.5887,-147.5835 1377.4849,-137.2613"/>
<polygon fill="#191970" stroke="#191970" points="1378.8775,-140.474 1386.8708,-133.52 1376.2856,-133.9715 1378.8775,-140.474"/>
</g>
<!-- Node35&#45;&gt;Node32 -->
<g id="edge76" class="edge">
<title>Node35&#45;&gt;Node32</title>
<path fill="none" stroke="#191970" d="M1321.5043,-175.2806C1336.7132,-173.7127 1353.2336,-172.1503 1368.5,-171 1702.1591,-145.8588 1786.8801,-160.656 2120.5,-135 2132.415,-134.0837 2145.1154,-132.8965 2157.3078,-131.6514"/>
<polygon fill="#191970" stroke="#191970" points="2157.8195,-135.1171 2167.4016,-130.5967 2157.092,-128.155 2157.8195,-135.1171"/>
</g>
<!-- Node36 -->
<g id="node36" class="node">
<title>Node36</title>
<g id="a_node36"><a xlink:href="../../d2/d92/PHG4HitDefs_8h.html" target="_top" xlink:title="PHG4HitDefs.h">
<polygon fill="none" stroke="#000000" points="954,-114.5 954,-134.5 1045,-134.5 1045,-114.5 954,-114.5"/>
<text text-anchor="middle" x="999.5" y="-121.5" font-family="FreeSans" font-size="10.00" fill="#000000">PHG4HitDefs.h</text>
</a>
</g>
</g>
<!-- Node35&#45;&gt;Node36 -->
<g id="edge74" class="edge">
<title>Node35&#45;&gt;Node36</title>
<path fill="none" stroke="#191970" d="M1219.3804,-171.4408C1173.537,-161.654 1103.8779,-146.7829 1055.289,-136.41"/>
<polygon fill="#191970" stroke="#191970" points="1055.767,-132.9333 1045.2566,-134.2683 1054.3055,-139.779 1055.767,-132.9333"/>
</g>
<!-- Node36&#45;&gt;Node6 -->
<g id="edge75" class="edge">
<title>Node36&#45;&gt;Node6</title>
<path fill="none" stroke="#191970" d="M967.5575,-114.4408C934.7232,-104.1007 883.8669,-88.0852 850.8753,-77.6955"/>
<polygon fill="#191970" stroke="#191970" points="851.8393,-74.3297 841.2498,-74.6643 849.7367,-81.0065 851.8393,-74.3297"/>
</g>
<!-- Node43&#45;&gt;Node8 -->
<g id="edge98" class="edge">
<title>Node43&#45;&gt;Node8</title>
<path fill="none" stroke="#191970" d="M2488.5542,-228.3833C2477.358,-209.3331 2452.9869,-167.8658 2438.6524,-143.4757"/>
<polygon fill="#191970" stroke="#191970" points="2441.6132,-141.6058 2433.5288,-134.7579 2435.5783,-145.1527 2441.6132,-141.6058"/>
</g>
<!-- Node43&#45;&gt;Node14 -->
<g id="edge100" class="edge">
<title>Node43&#45;&gt;Node14</title>
<path fill="none" stroke="#191970" d="M2541.5481,-233.8729C2616.4486,-226.0275 2755.8906,-209.2767 2770.5,-192 2776.5266,-184.8732 2775.9769,-178.5574 2770.5,-171 2678.3795,-43.8852 2151.5342,-16.8174 2000.1645,-11.6316"/>
<polygon fill="#191970" stroke="#191970" points="2000.0355,-8.1256 1989.9259,-11.295 1999.8054,-15.1218 2000.0355,-8.1256"/>
</g>
<!-- Node43&#45;&gt;Node17 -->
<g id="edge99" class="edge">
<title>Node43&#45;&gt;Node17</title>
<path fill="none" stroke="#191970" d="M2495.2216,-228.4484C2496.3378,-204.3538 2495.4189,-143.1461 2460.5,-114 2422.4827,-82.2677 2078.5133,-71.157 1963.6512,-68.3132"/>
<polygon fill="#191970" stroke="#191970" points="1963.6613,-64.8125 1953.5799,-68.0707 1963.4927,-71.8105 1963.6613,-64.8125"/>
</g>
<!-- Node43&#45;&gt;Node20 -->
<g id="edge101" class="edge">
<title>Node43&#45;&gt;Node20</title>
<path fill="none" stroke="#191970" d="M2447.1992,-237.6549C2345.9242,-235.2056 2111.5484,-225.9348 2040.5,-192 2017.7076,-181.1137 1998.2304,-159.1348 1986.2452,-143.2077"/>
<polygon fill="#191970" stroke="#191970" points="1988.7713,-140.7264 1980.0858,-134.659 1983.0919,-144.8184 1988.7713,-140.7264"/>
</g>
<!-- Node43&#45;&gt;Node32 -->
<g id="edge97" class="edge">
<title>Node43&#45;&gt;Node32</title>
<path fill="none" stroke="#191970" d="M2462.7015,-228.4489C2435.5304,-219.608 2395.5487,-205.9974 2361.5,-192 2321.3526,-175.4954 2276.2894,-153.4494 2247.9094,-139.115"/>
<polygon fill="#191970" stroke="#191970" points="2249.4567,-135.9754 2238.9557,-134.5686 2246.2875,-142.2168 2249.4567,-135.9754"/>
</g>
<!-- Node43&#45;&gt;Node44 -->
<g id="edge91" class="edge">
<title>Node43&#45;&gt;Node44</title>
<path fill="none" stroke="#191970" d="M2475.7281,-228.3095C2459.3784,-219.434 2435.4604,-206.4499 2416.9599,-196.4068"/>
<polygon fill="#191970" stroke="#191970" points="2418.5678,-193.2972 2408.1094,-191.6022 2415.2281,-199.4492 2418.5678,-193.2972"/>
</g>
<!-- Node45 -->
<g id="node45" class="node">
<title>Node45</title>
<polygon fill="none" stroke="#bfbfbf" points="2541.5,-171.5 2541.5,-191.5 2573.5,-191.5 2573.5,-171.5 2541.5,-171.5"/>
<text text-anchor="middle" x="2557.5" y="-178.5" font-family="FreeSans" font-size="10.00" fill="#000000">set</text>
</g>
<!-- Node43&#45;&gt;Node45 -->
<g id="edge102" class="edge">
<title>Node43&#45;&gt;Node45</title>
<path fill="none" stroke="#191970" d="M2505.7631,-228.3095C2514.9011,-220.0419 2527.9792,-208.2093 2538.7,-198.5096"/>
<polygon fill="#191970" stroke="#191970" points="2541.2672,-200.9068 2546.3344,-191.6022 2536.5708,-195.716 2541.2672,-200.9068"/>
</g>
<!-- Node44&#45;&gt;Node8 -->
<g id="edge93" class="edge">
<title>Node44&#45;&gt;Node8</title>
<path fill="none" stroke="#191970" d="M2396.2936,-171.3095C2401.5352,-163.4472 2408.9261,-152.3608 2415.1995,-142.9507"/>
<polygon fill="#191970" stroke="#191970" points="2418.1303,-144.8642 2420.7652,-134.6022 2412.3059,-140.9813 2418.1303,-144.8642"/>
</g>
<!-- Node44&#45;&gt;Node14 -->
<g id="edge95" class="edge">
<title>Node44&#45;&gt;Node14</title>
<path fill="none" stroke="#191970" d="M2389.8139,-171.4842C2389.9679,-147.4691 2386.6965,-86.4245 2351.5,-57 2324.83,-34.7037 2094.2028,-18.5408 1999.6654,-12.7945"/>
<polygon fill="#191970" stroke="#191970" points="1999.8169,-9.2974 1989.6252,-12.1924 1999.3978,-16.2848 1999.8169,-9.2974"/>
</g>
<!-- Node44&#45;&gt;Node17 -->
<g id="edge94" class="edge">
<title>Node44&#45;&gt;Node17</title>
<path fill="none" stroke="#191970" d="M2377.007,-171.2511C2357.6514,-155.9829 2318.6567,-127.6064 2280.5,-114 2222.7162,-93.3946 2042.6533,-76.8538 1963.95,-70.4109"/>
<polygon fill="#191970" stroke="#191970" points="1963.7901,-66.8867 1953.5406,-69.5694 1963.226,-73.8639 1963.7901,-66.8867"/>
</g>
<!-- Node44&#45;&gt;Node20 -->
<g id="edge96" class="edge">
<title>Node44&#45;&gt;Node20</title>
<path fill="none" stroke="#191970" d="M2369.8913,-178.851C2317.6433,-171.7873 2170.7209,-151.8887 2048.5,-135 2033.5549,-132.9349 2016.9388,-130.6114 2003.1524,-128.6762"/>
<polygon fill="#191970" stroke="#191970" points="2003.6259,-125.2084 1993.2361,-127.2826 2002.6517,-132.1403 2003.6259,-125.2084"/>
</g>
<!-- Node44&#45;&gt;Node32 -->
<g id="edge92" class="edge">
<title>Node44&#45;&gt;Node32</title>
<path fill="none" stroke="#191970" d="M2369.9988,-174.9614C2343.169,-165.9655 2294.248,-149.5626 2259.4685,-137.9012"/>
<polygon fill="#191970" stroke="#191970" points="2260.2112,-134.4588 2249.6173,-134.5981 2257.9858,-141.0956 2260.2112,-134.4588"/>
</g>
<!-- Node46&#45;&gt;Node14 -->
<g id="edge108" class="edge">
<title>Node46&#45;&gt;Node14</title>
<path fill="none" stroke="#191970" d="M1789.5471,-171.0429C1787.4966,-156.9943 1785.8758,-131.744 1796.5,-114 1824.1223,-67.8668 1881.1246,-38.9112 1919.8439,-23.7192"/>
<polygon fill="#191970" stroke="#191970" points="1921.1527,-26.9662 1929.2649,-20.1513 1918.6735,-20.4199 1921.1527,-26.9662"/>
</g>
<!-- Node46&#45;&gt;Node19 -->
<g id="edge106" class="edge">
<title>Node46&#45;&gt;Node19</title>
<path fill="none" stroke="#191970" d="M1772.4404,-171.4408C1755.5793,-162.5419 1730.7536,-149.4394 1711.6125,-139.3371"/>
<polygon fill="#191970" stroke="#191970" points="1713.2099,-136.2227 1702.7324,-134.6504 1709.9426,-142.4134 1713.2099,-136.2227"/>
</g>
<!-- Node46&#45;&gt;Node32 -->
<g id="edge105" class="edge">
<title>Node46&#45;&gt;Node32</title>
<path fill="none" stroke="#191970" d="M1867.0326,-171.4408C1949.5987,-160.4448 2080.3578,-143.0306 2157.2576,-132.7893"/>
<polygon fill="#191970" stroke="#191970" points="2157.8301,-136.244 2167.2805,-131.4545 2156.906,-129.3053 2157.8301,-136.244"/>
</g>
<!-- Node47 -->
<g id="node47" class="node">
<title>Node47</title>
<polygon fill="none" stroke="#bfbfbf" points="1805,-114.5 1805,-134.5 1936,-134.5 1936,-114.5 1805,-114.5"/>
<text text-anchor="middle" x="1870.5" y="-121.5" font-family="FreeSans" font-size="10.00" fill="#000000">HepMC/SimpleVector.h</text>
</g>
<!-- Node46&#45;&gt;Node47 -->
<g id="edge107" class="edge">
<title>Node46&#45;&gt;Node47</title>
<path fill="none" stroke="#191970" d="M1805.6236,-171.3095C1817.4193,-162.7987 1834.4508,-150.5102 1848.1037,-140.6594"/>
<polygon fill="#191970" stroke="#191970" points="1850.4371,-143.2918 1856.4987,-134.6022 1846.3412,-137.6151 1850.4371,-143.2918"/>
</g>
<!-- Node48&#45;&gt;Node14 -->
<g id="edge113" class="edge">
<title>Node48&#45;&gt;Node14</title>
<path fill="none" stroke="#191970" d="M2016.1934,-230.591C2111.4104,-222.1043 2243.8279,-207.7096 2262.5,-192 2282.8286,-174.8967 2276.4528,-161.2564 2280.5,-135 2281.9219,-125.7756 2285.189,-122.07 2280.5,-114 2254.7989,-69.7672 2228.3288,-75.1519 2180.5,-57 2119.6257,-33.8971 2044.7321,-21.2003 1999.6233,-15.1306"/>
<polygon fill="#191970" stroke="#191970" points="2000.0133,-11.6519 1989.645,-13.8311 1999.1092,-18.5933 2000.0133,-11.6519"/>
</g>
<!-- Node48&#45;&gt;Node17 -->
<g id="edge112" class="edge">
<title>Node48&#45;&gt;Node17</title>
<path fill="none" stroke="#191970" d="M1930.3357,-228.4449C1950.5333,-211.6763 1988.8401,-175.7892 2002.5,-135 2005.4639,-126.1498 2007.0633,-122.1417 2002.5,-114 1993.9198,-98.6914 1978.0179,-87.8188 1962.969,-80.457"/>
<polygon fill="#191970" stroke="#191970" points="1964.3375,-77.2348 1953.7824,-76.3187 1961.4624,-83.6171 1964.3375,-77.2348"/>
</g>
<!-- Node48&#45;&gt;Node20 -->
<g id="edge114" class="edge">
<title>Node48&#45;&gt;Node20</title>
<path fill="none" stroke="#191970" d="M1922.4696,-228.3833C1931.7862,-209.4174 1952.0175,-168.2323 1964.0191,-143.8004"/>
<polygon fill="#191970" stroke="#191970" points="1967.1934,-145.2767 1968.461,-134.7579 1960.9105,-142.1903 1967.1934,-145.2767"/>
</g>
<!-- Node48&#45;&gt;Node32 -->
<g id="edge111" class="edge">
<title>Node48&#45;&gt;Node32</title>
<path fill="none" stroke="#191970" d="M2016.0722,-231.062C2107.4144,-223.1429 2231.416,-209.3659 2246.5,-192 2258.8155,-177.8215 2247.6929,-157.3211 2236.2178,-142.6379"/>
<polygon fill="#191970" stroke="#191970" points="2238.7081,-140.161 2229.5952,-134.7567 2233.3489,-144.6643 2238.7081,-140.161"/>
</g>
<!-- Node48&#45;&gt;Node46 -->
<g id="edge110" class="edge">
<title>Node48&#45;&gt;Node46</title>
<path fill="none" stroke="#191970" d="M1895.2638,-228.4408C1875.2349,-219.3801 1845.5729,-205.9615 1823.0865,-195.7891"/>
<polygon fill="#191970" stroke="#191970" points="1824.4915,-192.5833 1813.9378,-191.6504 1821.6062,-198.961 1824.4915,-192.5833"/>
</g>
</g>
</svg>
