<?xml version="1.0" encoding="UTF-8" standalone="no"?>
<!DOCTYPE svg PUBLIC "-//W3C//DTD SVG 1.1//EN"
 "http://www.w3.org/Graphics/SVG/1.1/DTD/svg11.dtd">
<!-- Generated by graphviz version 2.40.1 (20161225.0304)
 -->
<!-- Title: PHG4InnerHcalDetector::SetTiltViaNcross Pages: 1 -->
<svg width="330pt" height="182pt"
 viewBox="0.00 0.00 330.00 182.00" xmlns="http://www.w3.org/2000/svg" xmlns:xlink="http://www.w3.org/1999/xlink">
<g id="graph0" class="graph" transform="scale(1 1) rotate(0) translate(4 178)">
<title>PHG4InnerHcalDetector::SetTiltViaNcross</title>
<!-- Node1 -->
<g id="node1" class="node">
<title>Node1</title>
<polygon fill="#bfbfbf" stroke="#000000" points="0,-64.5 0,-96.5 137,-96.5 137,-64.5 0,-64.5"/>
<text text-anchor="start" x="8" y="-83.5" font-family="FreeSans" font-size="10.00" fill="#000000">PHG4InnerHcalDetector</text>
<text text-anchor="middle" x="68.5" y="-71.5" font-family="FreeSans" font-size="10.00" fill="#000000">::SetTiltViaNcross</text>
</g>
<!-- Node2 -->
<g id="node2" class="node">
<title>Node2</title>
<g id="a_node2"><a xlink:href="../../dd/dae/classPHParameters.html#a0241ca27a369ab4865ac3d79620ac27c" target="_top" xlink:title="PHParameters::get_int\l_param">
<polygon fill="none" stroke="#000000" points="183,-141.5 183,-173.5 312,-173.5 312,-141.5 183,-141.5"/>
<text text-anchor="start" x="191" y="-160.5" font-family="FreeSans" font-size="10.00" fill="#000000">PHParameters::get_int</text>
<text text-anchor="middle" x="247.5" y="-148.5" font-family="FreeSans" font-size="10.00" fill="#000000">_param</text>
</a>
</g>
</g>
<!-- Node1&#45;&gt;Node2 -->
<g id="edge1" class="edge">
<title>Node1&#45;&gt;Node2</title>
<path fill="none" stroke="#191970" d="M98.172,-96.6374C118.8163,-107.5226 147.1643,-121.7971 173,-132.5 177.4902,-134.3602 182.1734,-136.1867 186.909,-137.9531"/>
<polygon fill="#191970" stroke="#191970" points="186.0636,-141.3694 196.6578,-141.4855 188.4484,-134.7881 186.0636,-141.3694"/>
</g>
<!-- Node3 -->
<g id="node3" class="node">
<title>Node3</title>
<g id="a_node3"><a xlink:href="../../dd/dae/classPHParameters.html#a75005aa44390e1eb574603b0b230152b" target="_top" xlink:title="PHParameters::set_double\l_param">
<polygon fill="none" stroke="#000000" points="173,-90.5 173,-122.5 322,-122.5 322,-90.5 173,-90.5"/>
<text text-anchor="start" x="181" y="-109.5" font-family="FreeSans" font-size="10.00" fill="#000000">PHParameters::set_double</text>
<text text-anchor="middle" x="247.5" y="-97.5" font-family="FreeSans" font-size="10.00" fill="#000000">_param</text>
</a>
</g>
</g>
<!-- Node1&#45;&gt;Node3 -->
<g id="edge2" class="edge">
<title>Node1&#45;&gt;Node3</title>
<path fill="none" stroke="#191970" d="M137.1941,-90.4779C145.556,-91.6925 154.1743,-92.9443 162.7347,-94.1877"/>
<polygon fill="#191970" stroke="#191970" points="162.3391,-97.6669 172.7384,-95.6408 163.3454,-90.7396 162.3391,-97.6669"/>
</g>
<!-- Node4 -->
<g id="node4" class="node">
<title>Node4</title>
<g id="a_node4"><a xlink:href="../../dd/dae/classPHParameters.html#a62881b44dd0564425633070316af66ec" target="_top" xlink:title="PHParameters::set_int\l_param">
<polygon fill="none" stroke="#000000" points="183.5,-39.5 183.5,-71.5 311.5,-71.5 311.5,-39.5 183.5,-39.5"/>
<text text-anchor="start" x="191.5" y="-58.5" font-family="FreeSans" font-size="10.00" fill="#000000">PHParameters::set_int</text>
<text text-anchor="middle" x="247.5" y="-46.5" font-family="FreeSans" font-size="10.00" fill="#000000">_param</text>
</a>
</g>
</g>
<!-- Node1&#45;&gt;Node4 -->
<g id="edge3" class="edge">
<title>Node1&#45;&gt;Node4</title>
<path fill="none" stroke="#191970" d="M137.1941,-70.9058C149.056,-69.2492 161.4339,-67.5204 173.4305,-65.8449"/>
<polygon fill="#191970" stroke="#191970" points="173.9786,-69.3024 183.3983,-64.4528 173.0102,-62.3697 173.9786,-69.3024"/>
</g>
<!-- Node5 -->
<g id="node5" class="node">
<title>Node5</title>
<g id="a_node5"><a xlink:href="../../d3/de7/classPHG4Detector.html#af5eefc46de6e61b788946ca0d0a7427c" target="_top" xlink:title="PHG4Detector::Verbosity">
<polygon fill="none" stroke="#000000" points="176.5,-.5 176.5,-20.5 318.5,-20.5 318.5,-.5 176.5,-.5"/>
<text text-anchor="middle" x="247.5" y="-7.5" font-family="FreeSans" font-size="10.00" fill="#000000">PHG4Detector::Verbosity</text>
</a>
</g>
</g>
<!-- Node1&#45;&gt;Node5 -->
<g id="edge4" class="edge">
<title>Node1&#45;&gt;Node5</title>
<path fill="none" stroke="#191970" d="M98.4962,-64.3286C119.0466,-53.7061 147.1575,-40.0586 173,-30.5 179.9082,-27.9448 187.2868,-25.5644 194.6148,-23.4016"/>
<polygon fill="#191970" stroke="#191970" points="195.8611,-26.6863 204.5272,-20.5912 193.9517,-19.9517 195.8611,-26.6863"/>
</g>
</g>
</svg>
