<?xml version="1.0" encoding="UTF-8" standalone="no"?>
<!DOCTYPE svg PUBLIC "-//W3C//DTD SVG 1.1//EN"
 "http://www.w3.org/Graphics/SVG/1.1/DTD/svg11.dtd">
<!-- Generated by graphviz version 2.40.1 (20161225.0304)
 -->
<!-- Title: PHPatternReco::create_nodes Pages: 1 -->
<svg width="499pt" height="164pt"
 viewBox="0.00 0.00 499.00 164.00" xmlns="http://www.w3.org/2000/svg" xmlns:xlink="http://www.w3.org/1999/xlink">
<g id="graph0" class="graph" transform="scale(1 1) rotate(0) translate(4 160)">
<title>PHPatternReco::create_nodes</title>
<!-- Node1 -->
<g id="node1" class="node">
<title>Node1</title>
<polygon fill="#bfbfbf" stroke="#000000" points="0,-33.5 0,-65.5 129,-65.5 129,-33.5 0,-33.5"/>
<text text-anchor="start" x="8" y="-52.5" font-family="FreeSans" font-size="10.00" fill="#000000">PHPatternReco::create</text>
<text text-anchor="middle" x="64.5" y="-40.5" font-family="FreeSans" font-size="10.00" fill="#000000">_nodes</text>
</g>
<!-- Node2 -->
<g id="node2" class="node">
<title>Node2</title>
<g id="a_node2"><a xlink:href="../../d5/dca/classPHCompositeNode.html#a15a0c4804399a9de4267647f05bd1ba4" target="_top" xlink:title="PHCompositeNode::addNode">
<polygon fill="none" stroke="#000000" points="165,-96.5 165,-116.5 327,-116.5 327,-96.5 165,-96.5"/>
<text text-anchor="middle" x="246" y="-103.5" font-family="FreeSans" font-size="10.00" fill="#000000">PHCompositeNode::addNode</text>
</a>
</g>
</g>
<!-- Node1&#45;&gt;Node2 -->
<g id="edge1" class="edge">
<title>Node1&#45;&gt;Node2</title>
<path fill="none" stroke="#191970" d="M103.2257,-65.502C121.7274,-72.7955 144.3026,-81.1893 165,-87.5 172.6615,-89.836 180.8045,-92.0515 188.8609,-94.0891"/>
<polygon fill="#191970" stroke="#191970" points="188.0606,-97.4965 198.6068,-96.4824 189.73,-90.6985 188.0606,-97.4965"/>
</g>
<!-- Node6 -->
<g id="node6" class="node">
<title>Node6</title>
<g id="a_node6"><a xlink:href="../../d5/d07/classPHNodeIterator.html#aea98bf8619af59b1212a94fb32106baa" target="_top" xlink:title="PHNodeIterator::findFirst">
<polygon fill="none" stroke="#000000" points="175.5,-39.5 175.5,-59.5 316.5,-59.5 316.5,-39.5 175.5,-39.5"/>
<text text-anchor="middle" x="246" y="-46.5" font-family="FreeSans" font-size="10.00" fill="#000000">PHNodeIterator::findFirst</text>
</a>
</g>
</g>
<!-- Node1&#45;&gt;Node6 -->
<g id="edge5" class="edge">
<title>Node1&#45;&gt;Node6</title>
<path fill="none" stroke="#191970" d="M129.0012,-49.5C140.7027,-49.5 153.0414,-49.5 165.1425,-49.5"/>
<polygon fill="#191970" stroke="#191970" points="165.2325,-53.0001 175.2325,-49.5 165.2324,-46.0001 165.2325,-53.0001"/>
</g>
<!-- Node8 -->
<g id="node8" class="node">
<title>Node8</title>
<g id="a_node8"><a xlink:href="../../d5/dec/classFun4AllBase.html#a8a5c77a92bdac6bc043476e132379a40" target="_top" xlink:title="Gets the verbosity of this module.">
<polygon fill="none" stroke="#000000" points="180,-.5 180,-20.5 312,-20.5 312,-.5 180,-.5"/>
<text text-anchor="middle" x="246" y="-7.5" font-family="FreeSans" font-size="10.00" fill="#000000">Fun4AllBase::Verbosity</text>
</a>
</g>
</g>
<!-- Node1&#45;&gt;Node8 -->
<g id="edge9" class="edge">
<title>Node1&#45;&gt;Node8</title>
<path fill="none" stroke="#191970" d="M129.0012,-35.6402C148.784,-31.3894 170.3876,-26.7473 189.5864,-22.6219"/>
<polygon fill="#191970" stroke="#191970" points="190.343,-26.0393 199.3845,-20.5166 188.8723,-19.1955 190.343,-26.0393"/>
</g>
<!-- Node3 -->
<g id="node3" class="node">
<title>Node3</title>
<g id="a_node3"><a xlink:href="../../d6/d86/classPHPointerList.html#ac2176735e9d046a034f1686fd2c477eb" target="_top" xlink:title="PHPointerList::append">
<polygon fill="none" stroke="#000000" points="363,-135.5 363,-155.5 491,-155.5 491,-135.5 363,-135.5"/>
<text text-anchor="middle" x="427" y="-142.5" font-family="FreeSans" font-size="10.00" fill="#000000">PHPointerList::append</text>
</a>
</g>
</g>
<!-- Node2&#45;&gt;Node3 -->
<g id="edge2" class="edge">
<title>Node2&#45;&gt;Node3</title>
<path fill="none" stroke="#191970" d="M292.612,-116.5435C316.3636,-121.6612 345.4366,-127.9256 370.4587,-133.3171"/>
<polygon fill="#191970" stroke="#191970" points="370.0331,-136.8056 380.546,-135.4906 371.5076,-129.9627 370.0331,-136.8056"/>
</g>
<!-- Node4 -->
<g id="node4" class="node">
<title>Node4</title>
<g id="a_node4"><a xlink:href="../../dc/d82/classPHNode.html#aca3576f926a4401eddc3d88bf0ce0de3" target="_top" xlink:title="PHNode::getName">
<polygon fill="none" stroke="#000000" points="372.5,-57.5 372.5,-77.5 481.5,-77.5 481.5,-57.5 372.5,-57.5"/>
<text text-anchor="middle" x="427" y="-64.5" font-family="FreeSans" font-size="10.00" fill="#000000">PHNode::getName</text>
</a>
</g>
</g>
<!-- Node2&#45;&gt;Node4 -->
<g id="edge3" class="edge">
<title>Node2&#45;&gt;Node4</title>
<path fill="none" stroke="#191970" d="M292.612,-96.4565C316.3636,-91.3388 345.4366,-85.0744 370.4587,-79.6829"/>
<polygon fill="#191970" stroke="#191970" points="371.5076,-83.0373 380.546,-77.5094 370.0331,-76.1944 371.5076,-83.0373"/>
</g>
<!-- Node5 -->
<g id="node5" class="node">
<title>Node5</title>
<g id="a_node5"><a xlink:href="../../dc/d82/classPHNode.html#adda2bd6cef2d5067bbe3016a990b7198" target="_top" xlink:title="PHNode::setParent">
<polygon fill="none" stroke="#000000" points="371.5,-96.5 371.5,-116.5 482.5,-116.5 482.5,-96.5 371.5,-96.5"/>
<text text-anchor="middle" x="427" y="-103.5" font-family="FreeSans" font-size="10.00" fill="#000000">PHNode::setParent</text>
</a>
</g>
</g>
<!-- Node2&#45;&gt;Node5 -->
<g id="edge4" class="edge">
<title>Node2&#45;&gt;Node5</title>
<path fill="none" stroke="#191970" d="M327.2347,-106.5C338.6752,-106.5 350.3153,-106.5 361.4133,-106.5"/>
<polygon fill="#191970" stroke="#191970" points="361.4317,-110.0001 371.4317,-106.5 361.4316,-103.0001 361.4317,-110.0001"/>
</g>
<!-- Node6&#45;&gt;Node4 -->
<g id="edge7" class="edge">
<title>Node6&#45;&gt;Node4</title>
<path fill="none" stroke="#191970" d="M316.757,-56.5366C331.7411,-58.0267 347.4844,-59.5924 362.2331,-61.0591"/>
<polygon fill="#191970" stroke="#191970" points="361.966,-64.5497 372.2633,-62.0566 362.6588,-57.5841 361.966,-64.5497"/>
</g>
<!-- Node6&#45;&gt;Node6 -->
<g id="edge6" class="edge">
<title>Node6&#45;&gt;Node6</title>
<path fill="none" stroke="#191970" d="M217.8201,-59.7271C204.9661,-68.6067 214.3594,-78 246,-78 267.2585,-78 278.4743,-73.7597 279.6473,-68.2839"/>
<polygon fill="#191970" stroke="#191970" points="282.5136,-66.2693 274.1799,-59.7271 276.6148,-70.0383 282.5136,-66.2693"/>
</g>
<!-- Node7 -->
<g id="node7" class="node">
<title>Node7</title>
<g id="a_node7"><a xlink:href="../../dc/d82/classPHNode.html#a4ab1f90aed955a652813bfe377087bda" target="_top" xlink:title="PHNode::getType">
<polygon fill="none" stroke="#000000" points="375.5,-18.5 375.5,-38.5 478.5,-38.5 478.5,-18.5 375.5,-18.5"/>
<text text-anchor="middle" x="427" y="-25.5" font-family="FreeSans" font-size="10.00" fill="#000000">PHNode::getType</text>
</a>
</g>
</g>
<!-- Node6&#45;&gt;Node7 -->
<g id="edge8" class="edge">
<title>Node6&#45;&gt;Node7</title>
<path fill="none" stroke="#191970" d="M316.757,-41.2906C332.7799,-39.4316 349.6708,-37.4719 365.2855,-35.6602"/>
<polygon fill="#191970" stroke="#191970" points="365.8104,-39.1229 375.3404,-34.4937 365.0036,-32.1696 365.8104,-39.1229"/>
</g>
</g>
</svg>
