<?xml version="1.0" encoding="UTF-8" standalone="no"?>
<!DOCTYPE svg PUBLIC "-//W3C//DTD SVG 1.1//EN"
 "http://www.w3.org/Graphics/SVG/1.1/DTD/svg11.dtd">
<!-- Generated by graphviz version 2.40.1 (20161225.0304)
 -->
<!-- Title: coresoftware/blob/master/offline/packages/CaloBase/RawCluster.h Pages: 1 -->
<svg width="678pt" height="215pt"
 viewBox="0.00 0.00 678.00 215.00" xmlns="http://www.w3.org/2000/svg" xmlns:xlink="http://www.w3.org/1999/xlink">
<g id="graph0" class="graph" transform="scale(1 1) rotate(0) translate(4 211)">
<title>coresoftware/blob/master/offline/packages/CaloBase/RawCluster.h</title>
<!-- Node1 -->
<g id="node1" class="node">
<title>Node1</title>
<polygon fill="#bfbfbf" stroke="#000000" points="258,-162.5 258,-206.5 412,-206.5 412,-162.5 258,-162.5"/>
<text text-anchor="start" x="266" y="-193.5" font-family="FreeSans" font-size="10.00" fill="#000000">coresoftware/blob/master</text>
<text text-anchor="start" x="266" y="-181.5" font-family="FreeSans" font-size="10.00" fill="#000000">/offline/packages/CaloBase</text>
<text text-anchor="middle" x="335" y="-169.5" font-family="FreeSans" font-size="10.00" fill="#000000">/RawCluster.h</text>
</g>
<!-- Node2 -->
<g id="node2" class="node">
<title>Node2</title>
<g id="a_node2"><a xlink:href="../../d6/dbd/RawCluster_8cc.html" target="_top" xlink:title="coresoftware/blob/master\l/offline/packages/CaloBase\l/RawCluster.cc">
<polygon fill="none" stroke="#000000" points="0,-81.5 0,-125.5 154,-125.5 154,-81.5 0,-81.5"/>
<text text-anchor="start" x="8" y="-112.5" font-family="FreeSans" font-size="10.00" fill="#000000">coresoftware/blob/master</text>
<text text-anchor="start" x="8" y="-100.5" font-family="FreeSans" font-size="10.00" fill="#000000">/offline/packages/CaloBase</text>
<text text-anchor="middle" x="77" y="-88.5" font-family="FreeSans" font-size="10.00" fill="#000000">/RawCluster.cc</text>
</a>
</g>
</g>
<!-- Node1&#45;&gt;Node2 -->
<g id="edge1" class="edge">
<title>Node1&#45;&gt;Node2</title>
<path fill="none" stroke="#191970" d="M255.2484,-159.4617C220.6798,-148.6088 180.5594,-136.0128 147.1449,-125.5222"/>
<polygon fill="#191970" stroke="#191970" points="254.2519,-162.8172 264.8412,-162.4734 256.3487,-156.1386 254.2519,-162.8172"/>
</g>
<!-- Node3 -->
<g id="node3" class="node">
<title>Node3</title>
<g id="a_node3"><a xlink:href="../../dd/dfe/RawClusterContainer_8cc.html" target="_top" xlink:title="coresoftware/blob/master\l/offline/packages/CaloBase\l/RawClusterContainer.cc">
<polygon fill="none" stroke="#000000" points="172,-81.5 172,-125.5 326,-125.5 326,-81.5 172,-81.5"/>
<text text-anchor="start" x="180" y="-112.5" font-family="FreeSans" font-size="10.00" fill="#000000">coresoftware/blob/master</text>
<text text-anchor="start" x="180" y="-100.5" font-family="FreeSans" font-size="10.00" fill="#000000">/offline/packages/CaloBase</text>
<text text-anchor="middle" x="249" y="-88.5" font-family="FreeSans" font-size="10.00" fill="#000000">/RawClusterContainer.cc</text>
</a>
</g>
</g>
<!-- Node1&#45;&gt;Node3 -->
<g id="edge2" class="edge">
<title>Node1&#45;&gt;Node3</title>
<path fill="none" stroke="#191970" d="M304.1283,-155.4232C293.6989,-145.6001 282.2328,-134.8007 272.4715,-125.6068"/>
<polygon fill="#191970" stroke="#191970" points="301.8209,-158.0579 311.5001,-162.3664 306.6203,-152.9622 301.8209,-158.0579"/>
</g>
<!-- Node4 -->
<g id="node4" class="node">
<title>Node4</title>
<g id="a_node4"><a xlink:href="../../da/d7c/RawClusterUtility_8h.html" target="_top" xlink:title="coresoftware/blob/master\l/offline/packages/CaloBase\l/RawClusterUtility.h">
<polygon fill="none" stroke="#000000" points="344,-81.5 344,-125.5 498,-125.5 498,-81.5 344,-81.5"/>
<text text-anchor="start" x="352" y="-112.5" font-family="FreeSans" font-size="10.00" fill="#000000">coresoftware/blob/master</text>
<text text-anchor="start" x="352" y="-100.5" font-family="FreeSans" font-size="10.00" fill="#000000">/offline/packages/CaloBase</text>
<text text-anchor="middle" x="421" y="-88.5" font-family="FreeSans" font-size="10.00" fill="#000000">/RawClusterUtility.h</text>
</a>
</g>
</g>
<!-- Node1&#45;&gt;Node4 -->
<g id="edge3" class="edge">
<title>Node1&#45;&gt;Node4</title>
<path fill="none" stroke="#191970" d="M365.8717,-155.4232C376.3011,-145.6001 387.7672,-134.8007 397.5285,-125.6068"/>
<polygon fill="#191970" stroke="#191970" points="363.3797,-152.9622 358.4999,-162.3664 368.1791,-158.0579 363.3797,-152.9622"/>
</g>
<!-- Node5 -->
<g id="node5" class="node">
<title>Node5</title>
<g id="a_node5"><a xlink:href="../../db/d05/RawClusterv1_8h.html" target="_top" xlink:title="coresoftware/blob/master\l/offline/packages/CaloBase\l/RawClusterv1.h">
<polygon fill="none" stroke="#000000" points="516,-81.5 516,-125.5 670,-125.5 670,-81.5 516,-81.5"/>
<text text-anchor="start" x="524" y="-112.5" font-family="FreeSans" font-size="10.00" fill="#000000">coresoftware/blob/master</text>
<text text-anchor="start" x="524" y="-100.5" font-family="FreeSans" font-size="10.00" fill="#000000">/offline/packages/CaloBase</text>
<text text-anchor="middle" x="593" y="-88.5" font-family="FreeSans" font-size="10.00" fill="#000000">/RawClusterv1.h</text>
</a>
</g>
</g>
<!-- Node1&#45;&gt;Node5 -->
<g id="edge4" class="edge">
<title>Node1&#45;&gt;Node5</title>
<path fill="none" stroke="#191970" d="M414.7516,-159.4617C449.3202,-148.6088 489.4406,-136.0128 522.8551,-125.5222"/>
<polygon fill="#191970" stroke="#191970" points="413.6513,-156.1386 405.1588,-162.4734 415.7481,-162.8172 413.6513,-156.1386"/>
</g>
<!-- Node6 -->
<g id="node6" class="node">
<title>Node6</title>
<g id="a_node6"><a xlink:href="../../dd/da3/RawClusterv1_8cc.html" target="_top" xlink:title="coresoftware/blob/master\l/offline/packages/CaloBase\l/RawClusterv1.cc">
<polygon fill="none" stroke="#000000" points="516,-.5 516,-44.5 670,-44.5 670,-.5 516,-.5"/>
<text text-anchor="start" x="524" y="-31.5" font-family="FreeSans" font-size="10.00" fill="#000000">coresoftware/blob/master</text>
<text text-anchor="start" x="524" y="-19.5" font-family="FreeSans" font-size="10.00" fill="#000000">/offline/packages/CaloBase</text>
<text text-anchor="middle" x="593" y="-7.5" font-family="FreeSans" font-size="10.00" fill="#000000">/RawClusterv1.cc</text>
</a>
</g>
</g>
<!-- Node5&#45;&gt;Node6 -->
<g id="edge5" class="edge">
<title>Node5&#45;&gt;Node6</title>
<path fill="none" stroke="#191970" d="M593,-71.2457C593,-62.3118 593,-52.8188 593,-44.6068"/>
<polygon fill="#191970" stroke="#191970" points="589.5001,-71.3664 593,-81.3664 596.5001,-71.3664 589.5001,-71.3664"/>
</g>
</g>
</svg>
