<?xml version="1.0" encoding="UTF-8" standalone="no"?>
<!DOCTYPE svg PUBLIC "-//W3C//DTD SVG 1.1//EN"
 "http://www.w3.org/Graphics/SVG/1.1/DTD/svg11.dtd">
<!-- Generated by graphviz version 2.40.1 (20161225.0304)
 -->
<!-- Title: TrackProjectionTools::getCluster Pages: 1 -->
<svg width="286pt" height="209pt"
 viewBox="0.00 0.00 286.00 209.00" xmlns="http://www.w3.org/2000/svg" xmlns:xlink="http://www.w3.org/1999/xlink">
<g id="graph0" class="graph" transform="scale(1 1) rotate(0) translate(4 205)">
<title>TrackProjectionTools::getCluster</title>
<!-- Node1 -->
<g id="node1" class="node">
<title>Node1</title>
<polygon fill="#bfbfbf" stroke="#000000" points="0,-96.5 0,-128.5 119,-128.5 119,-96.5 0,-96.5"/>
<text text-anchor="start" x="8" y="-115.5" font-family="FreeSans" font-size="10.00" fill="#000000">TrackProjectionTools</text>
<text text-anchor="middle" x="59.5" y="-103.5" font-family="FreeSans" font-size="10.00" fill="#000000">::getCluster</text>
</g>
<!-- Node2 -->
<g id="node2" class="node">
<title>Node2</title>
<g id="a_node2"><a xlink:href="../../d6/dc7/group__getters.html#ga01beaccbc8f598673db35c68f5a73609" target="_top" xlink:title="access to intrinsic cylindrical coordinate system">
<polygon fill="none" stroke="#000000" points="158.5,-180.5 158.5,-200.5 274.5,-200.5 274.5,-180.5 158.5,-180.5"/>
<text text-anchor="middle" x="216.5" y="-187.5" font-family="FreeSans" font-size="10.00" fill="#000000">RawCluster::get_phi</text>
</a>
</g>
</g>
<!-- Node1&#45;&gt;Node2 -->
<g id="edge1" class="edge">
<title>Node1&#45;&gt;Node2</title>
<path fill="none" stroke="#191970" d="M81.7491,-128.5092C100.5489,-141.4707 128.5633,-159.4866 155,-171.5 159.4097,-173.5039 164.0892,-175.3738 168.8207,-177.0978"/>
<polygon fill="#191970" stroke="#191970" points="167.9413,-180.4962 178.5359,-180.4276 170.2109,-173.8744 167.9413,-180.4962"/>
</g>
<!-- Node3 -->
<g id="node3" class="node">
<title>Node3</title>
<g id="a_node3"><a xlink:href="../../d6/dc7/group__getters.html#gab5ab2d801513a8472802e826dc9d4ce9" target="_top" xlink:title="RawCluster::get_r">
<polygon fill="none" stroke="#000000" points="163.5,-141.5 163.5,-161.5 269.5,-161.5 269.5,-141.5 163.5,-141.5"/>
<text text-anchor="middle" x="216.5" y="-148.5" font-family="FreeSans" font-size="10.00" fill="#000000">RawCluster::get_r</text>
</a>
</g>
</g>
<!-- Node1&#45;&gt;Node3 -->
<g id="edge2" class="edge">
<title>Node1&#45;&gt;Node3</title>
<path fill="none" stroke="#191970" d="M119.3028,-127.3555C134.6519,-131.1683 151.0135,-135.2327 165.8502,-138.9182"/>
<polygon fill="#191970" stroke="#191970" points="165.298,-142.3873 175.8469,-141.4014 166.9856,-135.5938 165.298,-142.3873"/>
</g>
<!-- Node4 -->
<g id="node4" class="node">
<title>Node4</title>
<g id="a_node4"><a xlink:href="../../d6/dc7/group__getters.html#gaca033ff1fa8d250a0cbd0f0238252685" target="_top" xlink:title="RawCluster::get_z">
<polygon fill="none" stroke="#000000" points="163.5,-102.5 163.5,-122.5 269.5,-122.5 269.5,-102.5 163.5,-102.5"/>
<text text-anchor="middle" x="216.5" y="-109.5" font-family="FreeSans" font-size="10.00" fill="#000000">RawCluster::get_z</text>
</a>
</g>
</g>
<!-- Node1&#45;&gt;Node4 -->
<g id="edge3" class="edge">
<title>Node1&#45;&gt;Node4</title>
<path fill="none" stroke="#191970" d="M119.3028,-112.5C130.3827,-112.5 141.9902,-112.5 153.1708,-112.5"/>
<polygon fill="#191970" stroke="#191970" points="153.2914,-116.0001 163.2914,-112.5 153.2913,-109.0001 153.2914,-116.0001"/>
</g>
<!-- Node5 -->
<g id="node5" class="node">
<title>Node5</title>
<g id="a_node5"><a xlink:href="../../d6/d12/classRawClusterContainer.html#afb6d1f100edc4ecf309efec781d5b436" target="_top" xlink:title="RawClusterContainer\l::getCluster">
<polygon fill="none" stroke="#000000" points="155,-51.5 155,-83.5 278,-83.5 278,-51.5 155,-51.5"/>
<text text-anchor="start" x="163" y="-70.5" font-family="FreeSans" font-size="10.00" fill="#000000">RawClusterContainer</text>
<text text-anchor="middle" x="216.5" y="-58.5" font-family="FreeSans" font-size="10.00" fill="#000000">::getCluster</text>
</a>
</g>
</g>
<!-- Node1&#45;&gt;Node5 -->
<g id="edge4" class="edge">
<title>Node1&#45;&gt;Node5</title>
<path fill="none" stroke="#191970" d="M115.7372,-96.3811C127.148,-93.1104 139.243,-89.6437 150.9435,-86.2901"/>
<polygon fill="#191970" stroke="#191970" points="152.0069,-89.6263 160.6555,-83.5064 150.0782,-82.8972 152.0069,-89.6263"/>
</g>
<!-- Node6 -->
<g id="node6" class="node">
<title>Node6</title>
<g id="a_node6"><a xlink:href="../../d6/d12/classRawClusterContainer.html#af146866c2ded0bf10a6330ef32ccd9aa" target="_top" xlink:title="RawClusterContainer\l::size">
<polygon fill="none" stroke="#000000" points="155,-.5 155,-32.5 278,-32.5 278,-.5 155,-.5"/>
<text text-anchor="start" x="163" y="-19.5" font-family="FreeSans" font-size="10.00" fill="#000000">RawClusterContainer</text>
<text text-anchor="middle" x="216.5" y="-7.5" font-family="FreeSans" font-size="10.00" fill="#000000">::size</text>
</a>
</g>
</g>
<!-- Node1&#45;&gt;Node6 -->
<g id="edge5" class="edge">
<title>Node1&#45;&gt;Node6</title>
<path fill="none" stroke="#191970" d="M78.7072,-96.3386C97.3722,-81.1498 126.9319,-58.4312 155,-42.5 158.4182,-40.5599 162.0098,-38.6776 165.6688,-36.8718"/>
<polygon fill="#191970" stroke="#191970" points="167.2871,-39.9785 174.843,-32.5515 164.3048,-33.6455 167.2871,-39.9785"/>
</g>
</g>
</svg>
