<?xml version="1.0" encoding="UTF-8" standalone="no"?>
<!DOCTYPE svg PUBLIC "-//W3C//DTD SVG 1.1//EN"
 "http://www.w3.org/Graphics/SVG/1.1/DTD/svg11.dtd">
<!-- Generated by graphviz version 2.40.1 (20161225.0304)
 -->
<!-- Title: G4ScintillatorTowerTTree Pages: 1 -->
<svg width="401pt" height="354pt"
 viewBox="0.00 0.00 400.93 354.00" xmlns="http://www.w3.org/2000/svg" xmlns:xlink="http://www.w3.org/1999/xlink">
<g id="graph0" class="graph" transform="scale(1 1) rotate(0) translate(4 350)">
<title>G4ScintillatorTowerTTree</title>
<!-- Node1 -->
<g id="node1" class="node">
<title>Node1</title>
<polygon fill="#bfbfbf" stroke="#000000" points="4.4262,-.5 4.4262,-20.5 145.4262,-20.5 145.4262,-.5 4.4262,-.5"/>
<text text-anchor="middle" x="74.9262" y="-7.5" font-family="FreeSans" font-size="10.00" fill="#000000">G4ScintillatorTowerTTree</text>
</g>
<!-- Node2 -->
<g id="node2" class="node">
<title>Node2</title>
<g id="a_node2"><a xlink:href="../../d0/d32/classSubsysReco.html" target="_top" xlink:title="SubsysReco">
<polygon fill="none" stroke="#000000" points="36.9262,-69.5 36.9262,-89.5 112.9262,-89.5 112.9262,-69.5 36.9262,-69.5"/>
<text text-anchor="middle" x="74.9262" y="-76.5" font-family="FreeSans" font-size="10.00" fill="#000000">SubsysReco</text>
</a>
</g>
</g>
<!-- Node2&#45;&gt;Node1 -->
<g id="edge1" class="edge">
<title>Node2&#45;&gt;Node1</title>
<path fill="none" stroke="#191970" d="M74.9262,-59.2177C74.9262,-46.5684 74.9262,-30.8285 74.9262,-20.723"/>
<polygon fill="#191970" stroke="#191970" points="71.4263,-59.3188 74.9262,-69.3188 78.4263,-59.3188 71.4263,-59.3188"/>
</g>
<!-- Node3 -->
<g id="node3" class="node">
<title>Node3</title>
<g id="a_node3"><a xlink:href="../../d5/dec/classFun4AllBase.html" target="_top" xlink:title="Fun4AllBase">
<polygon fill="none" stroke="#000000" points="73.9262,-180.5 73.9262,-200.5 151.9262,-200.5 151.9262,-180.5 73.9262,-180.5"/>
<text text-anchor="middle" x="112.9262" y="-187.5" font-family="FreeSans" font-size="10.00" fill="#000000">Fun4AllBase</text>
</a>
</g>
</g>
<!-- Node3&#45;&gt;Node2 -->
<g id="edge2" class="edge">
<title>Node3&#45;&gt;Node2</title>
<path fill="none" stroke="#191970" d="M112.4466,-170.2719C111.3612,-153.009 108.1467,-127.8949 98.9262,-108 95.7709,-101.192 90.5474,-94.7021 85.7778,-89.6398"/>
<polygon fill="#191970" stroke="#191970" points="108.9538,-170.5137 112.8942,-180.3485 115.9469,-170.203 108.9538,-170.5137"/>
</g>
<!-- Node6 -->
<g id="node6" class="node">
<title>Node6</title>
<g id="a_node6"><a xlink:href="../../d3/d96/classFun4AllHistoManager.html" target="_top" xlink:title="Fun4AllHistoManager">
<polygon fill="none" stroke="#000000" points="130.9262,-69.5 130.9262,-89.5 254.9262,-89.5 254.9262,-69.5 130.9262,-69.5"/>
<text text-anchor="middle" x="192.9262" y="-76.5" font-family="FreeSans" font-size="10.00" fill="#000000">Fun4AllHistoManager</text>
</a>
</g>
</g>
<!-- Node3&#45;&gt;Node6 -->
<g id="edge7" class="edge">
<title>Node3&#45;&gt;Node6</title>
<path fill="none" stroke="#191970" d="M126.184,-172.1048C143.1797,-148.5233 172.0609,-108.4506 185.5612,-89.7189"/>
<polygon fill="#191970" stroke="#191970" points="123.3165,-170.0973 120.309,-180.2563 128.9953,-174.1902 123.3165,-170.0973"/>
</g>
<!-- Node4 -->
<g id="node4" class="node">
<title>Node4</title>
<g id="a_node4"><a xlink:title="STL class.">
<polygon fill="none" stroke="#bfbfbf" points="113.4262,-255.5 113.4262,-275.5 180.4262,-275.5 180.4262,-255.5 113.4262,-255.5"/>
<text text-anchor="middle" x="146.9262" y="-262.5" font-family="FreeSans" font-size="10.00" fill="#000000">std::string</text>
</a>
</g>
</g>
<!-- Node4&#45;&gt;Node1 -->
<g id="edge5" class="edge">
<title>Node4&#45;&gt;Node1</title>
<path fill="none" stroke="#9a32cd" stroke-dasharray="5,2" d="M113.3337,-251.029C78.7472,-234.0132 27.0201,-202.1161 5.9262,-156 -17.4481,-104.8987 38.419,-44.346 63.5033,-20.686"/>
<polygon fill="#9a32cd" stroke="#9a32cd" points="112.0606,-254.2992 122.5946,-255.4332 115.067,-247.9776 112.0606,-254.2992"/>
<text text-anchor="middle" x="50.4262" y="-147" font-family="FreeSans" font-size="10.00" fill="#000000"> _histofilename</text>
<text text-anchor="middle" x="50.4262" y="-135" font-family="FreeSans" font-size="10.00" fill="#000000">_detector</text>
<text text-anchor="middle" x="50.4262" y="-123" font-family="FreeSans" font-size="10.00" fill="#000000">_outnodename</text>
<text text-anchor="middle" x="50.4262" y="-111" font-family="FreeSans" font-size="10.00" fill="#000000">_towernodename</text>
</g>
<!-- Node4&#45;&gt;Node3 -->
<g id="edge3" class="edge">
<title>Node4&#45;&gt;Node3</title>
<path fill="none" stroke="#9a32cd" stroke-dasharray="5,2" d="M116.297,-249.438C112.1234,-245.9116 108.4223,-241.7751 105.9262,-237 99.9506,-225.5687 104.0175,-210.5351 108.007,-200.7002"/>
<polygon fill="#9a32cd" stroke="#9a32cd" points="114.5473,-252.4903 124.713,-255.4751 118.6275,-246.8023 114.5473,-252.4903"/>
<text text-anchor="middle" x="140.9262" y="-228" font-family="FreeSans" font-size="10.00" fill="#000000"> m_ThisName</text>
</g>
<!-- Node4&#45;&gt;Node6 -->
<g id="edge8" class="edge">
<title>Node4&#45;&gt;Node6</title>
<path fill="none" stroke="#9a32cd" stroke-dasharray="5,2" d="M168.2178,-248.154C171.2483,-244.7617 173.9886,-241.0029 175.9262,-237 200.4906,-186.2524 196.6148,-115.7833 194.0957,-89.7198"/>
<polygon fill="#9a32cd" stroke="#9a32cd" points="165.5644,-245.8533 160.861,-255.347 170.4582,-250.8585 165.5644,-245.8533"/>
<text text-anchor="middle" x="225.4262" y="-187.5" font-family="FreeSans" font-size="10.00" fill="#000000"> outfilename</text>
</g>
<!-- Node7 -->
<g id="node7" class="node">
<title>Node7</title>
<polygon fill="none" stroke="#bfbfbf" points="272.9262,-174.5 272.9262,-206.5 392.9262,-206.5 392.9262,-174.5 272.9262,-174.5"/>
<text text-anchor="start" x="280.9262" y="-193.5" font-family="FreeSans" font-size="10.00" fill="#000000">std::map&lt; const std</text>
<text text-anchor="middle" x="332.9262" y="-181.5" font-family="FreeSans" font-size="10.00" fill="#000000">::string, TNamed * &gt;</text>
</g>
<!-- Node4&#45;&gt;Node7 -->
<g id="edge10" class="edge">
<title>Node4&#45;&gt;Node7</title>
<path fill="none" stroke="#9a32cd" stroke-dasharray="5,2" d="M181.2933,-251.6423C212.8828,-238.9046 259.7145,-220.0208 292.962,-206.6146"/>
<polygon fill="#9a32cd" stroke="#9a32cd" points="179.9765,-248.3994 172.011,-255.3852 182.5943,-254.8915 179.9765,-248.3994"/>
<text text-anchor="middle" x="258.4262" y="-228" font-family="FreeSans" font-size="10.00" fill="#000000"> keys</text>
</g>
<!-- Node5 -->
<g id="node5" class="node">
<title>Node5</title>
<g id="a_node5"><a xlink:title="STL class.">
<polygon fill="none" stroke="#bfbfbf" points="93.4262,-313.5 93.4262,-345.5 200.4262,-345.5 200.4262,-313.5 93.4262,-313.5"/>
<text text-anchor="start" x="101.4262" y="-332.5" font-family="FreeSans" font-size="10.00" fill="#000000">std::basic_string&lt;</text>
<text text-anchor="middle" x="146.9262" y="-320.5" font-family="FreeSans" font-size="10.00" fill="#000000"> char &gt;</text>
</a>
</g>
</g>
<!-- Node5&#45;&gt;Node4 -->
<g id="edge4" class="edge">
<title>Node5&#45;&gt;Node4</title>
<path fill="none" stroke="#191970" d="M146.9262,-303.2639C146.9262,-293.5394 146.9262,-283.0805 146.9262,-275.641"/>
<polygon fill="#191970" stroke="#191970" points="143.4263,-303.3501 146.9262,-313.3501 150.4263,-303.3501 143.4263,-303.3501"/>
</g>
<!-- Node6&#45;&gt;Node1 -->
<g id="edge6" class="edge">
<title>Node6&#45;&gt;Node1</title>
<path fill="none" stroke="#9a32cd" stroke-dasharray="5,2" d="M166.9719,-64.3233C144.2151,-51.0164 111.7769,-32.0483 92.1051,-20.5453"/>
<polygon fill="#9a32cd" stroke="#9a32cd" points="165.3687,-67.4403 175.768,-69.4668 168.9022,-61.3976 165.3687,-67.4403"/>
<text text-anchor="middle" x="151.9262" y="-42" font-family="FreeSans" font-size="10.00" fill="#000000"> hm</text>
</g>
<!-- Node7&#45;&gt;Node6 -->
<g id="edge9" class="edge">
<title>Node7&#45;&gt;Node6</title>
<path fill="none" stroke="#9a32cd" stroke-dasharray="5,2" d="M304.5267,-167.9832C274.3753,-144.0775 228.064,-107.3592 205.7788,-89.6903"/>
<polygon fill="#9a32cd" stroke="#9a32cd" points="302.5586,-170.8894 312.569,-174.3596 306.9075,-165.4043 302.5586,-170.8894"/>
<text text-anchor="middle" x="301.9262" y="-129" font-family="FreeSans" font-size="10.00" fill="#000000"> Histo</text>
</g>
</g>
</svg>
