<?xml version="1.0" encoding="UTF-8" standalone="no"?>
<!DOCTYPE svg PUBLIC "-//W3C//DTD SVG 1.1//EN"
 "http://www.w3.org/Graphics/SVG/1.1/DTD/svg11.dtd">
<!-- Generated by graphviz version 2.40.1 (20161225.0304)
 -->
<!-- Title: coresoftware/blob/master/generators/PHPythia8/PHPythia8.cc Pages: 1 -->
<svg width="3002pt" height="383pt"
 viewBox="0.00 0.00 3001.97 383.00" xmlns="http://www.w3.org/2000/svg" xmlns:xlink="http://www.w3.org/1999/xlink">
<g id="graph0" class="graph" transform="scale(1 1) rotate(0) translate(4 379)">
<title>coresoftware/blob/master/generators/PHPythia8/PHPythia8.cc</title>
<!-- Node1 -->
<g id="node1" class="node">
<title>Node1</title>
<polygon fill="#bfbfbf" stroke="#000000" points="1484.9688,-342.5 1484.9688,-374.5 1684.9688,-374.5 1684.9688,-342.5 1484.9688,-342.5"/>
<text text-anchor="start" x="1492.9688" y="-361.5" font-family="FreeSans" font-size="10.00" fill="#000000">coresoftware/blob/master</text>
<text text-anchor="middle" x="1584.9688" y="-349.5" font-family="FreeSans" font-size="10.00" fill="#000000">/generators/PHPythia8/PHPythia8.cc</text>
</g>
<!-- Node2 -->
<g id="node2" class="node">
<title>Node2</title>
<g id="a_node2"><a xlink:href="../../d1/d15/PHPythia8_8h.html" target="_top" xlink:title="PHPythia8.h">
<polygon fill="none" stroke="#000000" points="165.4688,-285.5 165.4688,-305.5 242.4688,-305.5 242.4688,-285.5 165.4688,-285.5"/>
<text text-anchor="middle" x="203.9688" y="-292.5" font-family="FreeSans" font-size="10.00" fill="#000000">PHPythia8.h</text>
</a>
</g>
</g>
<!-- Node1&#45;&gt;Node2 -->
<g id="edge1" class="edge">
<title>Node1&#45;&gt;Node2</title>
<path fill="none" stroke="#191970" d="M1484.6688,-356.5642C1217.7805,-351.0883 494.4187,-334.0407 256.9688,-306 255.5133,-305.8281 254.038,-305.6381 252.5507,-305.4328"/>
<polygon fill="#191970" stroke="#191970" points="253.0655,-301.9708 242.6452,-303.8863 251.9856,-308.8871 253.0655,-301.9708"/>
</g>
<!-- Node3 -->
<g id="node3" class="node">
<title>Node3</title>
<g id="a_node3"><a xlink:href="../../d5/dc2/SubsysReco_8h.html" target="_top" xlink:title="fun4all/SubsysReco.h">
<polygon fill="none" stroke="#000000" points="298.9688,-228.5 298.9688,-248.5 422.9688,-248.5 422.9688,-228.5 298.9688,-228.5"/>
<text text-anchor="middle" x="360.9688" y="-235.5" font-family="FreeSans" font-size="10.00" fill="#000000">fun4all/SubsysReco.h</text>
</a>
</g>
</g>
<!-- Node1&#45;&gt;Node3 -->
<g id="edge28" class="edge">
<title>Node1&#45;&gt;Node3</title>
<path fill="none" stroke="#191970" d="M1484.7364,-357.128C1226.0902,-353.1238 549.6761,-339.5444 453.9688,-306 424.1979,-295.5656 395.7229,-272.2685 378.3011,-255.9797"/>
<polygon fill="#191970" stroke="#191970" points="380.3083,-253.0531 370.6793,-248.6334 375.4504,-258.0931 380.3083,-253.0531"/>
</g>
<!-- Node4 -->
<g id="node4" class="node">
<title>Node4</title>
<g id="a_node4"><a xlink:href="../../d2/de7/Fun4AllBase_8h.html" target="_top" xlink:title="Fun4AllBase.h">
<polygon fill="none" stroke="#000000" points="261.4688,-171.5 261.4688,-191.5 348.4688,-191.5 348.4688,-171.5 261.4688,-171.5"/>
<text text-anchor="middle" x="304.9688" y="-178.5" font-family="FreeSans" font-size="10.00" fill="#000000">Fun4AllBase.h</text>
</a>
</g>
</g>
<!-- Node1&#45;&gt;Node4 -->
<g id="edge26" class="edge">
<title>Node1&#45;&gt;Node4</title>
<path fill="none" stroke="#191970" d="M1484.7169,-356.255C1219.8224,-350.0058 514.5385,-331.1985 411.9688,-306 353.8487,-291.7215 322.1066,-299.4876 289.9688,-249 280.7506,-234.5184 286.5113,-215.1536 293.3929,-200.8798"/>
<polygon fill="#191970" stroke="#191970" points="296.5466,-202.4042 298.1659,-191.9338 290.3706,-199.109 296.5466,-202.4042"/>
</g>
<!-- Node7 -->
<g id="node7" class="node">
<title>Node7</title>
<g id="a_node7"><a xlink:href="../../de/d81/PHHepMCGenHelper_8h.html" target="_top" xlink:title="phhepmc/PHHepMCGenHelper.h">
<polygon fill="none" stroke="#000000" points="685.4688,-228.5 685.4688,-248.5 864.4688,-248.5 864.4688,-228.5 685.4688,-228.5"/>
<text text-anchor="middle" x="774.9688" y="-235.5" font-family="FreeSans" font-size="10.00" fill="#000000">phhepmc/PHHepMCGenHelper.h</text>
</a>
</g>
</g>
<!-- Node1&#45;&gt;Node7 -->
<g id="edge25" class="edge">
<title>Node1&#45;&gt;Node7</title>
<path fill="none" stroke="#191970" d="M1484.784,-347.4722C1398.9539,-337.6883 1272.1214,-322.4319 1161.9688,-306 1047.2188,-288.8823 914.0874,-264.7087 837.6728,-250.4149"/>
<polygon fill="#191970" stroke="#191970" points="838.2037,-246.9536 827.73,-248.5509 836.9138,-253.8337 838.2037,-246.9536"/>
</g>
<!-- Node11 -->
<g id="node11" class="node">
<title>Node11</title>
<g id="a_node11"><a xlink:href="../../d8/de1/PHPy8GenTrigger_8h.html" target="_top" xlink:title="PHPy8GenTrigger.h">
<polygon fill="none" stroke="#000000" points="23.9688,-285.5 23.9688,-305.5 135.9688,-305.5 135.9688,-285.5 23.9688,-285.5"/>
<text text-anchor="middle" x="79.9688" y="-292.5" font-family="FreeSans" font-size="10.00" fill="#000000">PHPy8GenTrigger.h</text>
</a>
</g>
</g>
<!-- Node1&#45;&gt;Node11 -->
<g id="edge12" class="edge">
<title>Node1&#45;&gt;Node11</title>
<path fill="none" stroke="#191970" d="M1484.7924,-356.1328C1204.2674,-349.2947 414.5713,-328.5568 155.9688,-306 152.8837,-305.7309 149.7321,-305.4241 146.5515,-305.0886"/>
<polygon fill="#191970" stroke="#191970" points="146.6716,-301.5799 136.3409,-303.9307 145.8828,-308.5353 146.6716,-301.5799"/>
</g>
<!-- Node12 -->
<g id="node12" class="node">
<title>Node12</title>
<polygon fill="none" stroke="#bfbfbf" points="246.9688,-.5 246.9688,-20.5 306.9688,-20.5 306.9688,-.5 246.9688,-.5"/>
<text text-anchor="middle" x="276.9688" y="-7.5" font-family="FreeSans" font-size="10.00" fill="#000000">iostream</text>
</g>
<!-- Node1&#45;&gt;Node12 -->
<g id="edge80" class="edge">
<title>Node1&#45;&gt;Node12</title>
<path fill="none" stroke="#191970" d="M1604.1294,-342.0664C1635.6451,-313.092 1694.9688,-249.5182 1694.9688,-181.5 1694.9688,-181.5 1694.9688,-181.5 1694.9688,-124.5 1694.9688,4.806 1540.0536,-74.7292 1411.9688,-57 1193.8463,-26.808 492.6049,-13.9064 317.0872,-11.104"/>
<polygon fill="#191970" stroke="#191970" points="317.0513,-7.6031 306.9973,-10.9449 316.9408,-14.6022 317.0513,-7.6031"/>
</g>
<!-- Node13 -->
<g id="node13" class="node">
<title>Node13</title>
<g id="a_node13"><a xlink:href="../../d2/dfd/PHGenIntegral_8h.html" target="_top" xlink:title="phhepmc/PHGenIntegral.h">
<polygon fill="none" stroke="#000000" points="478.9688,-228.5 478.9688,-248.5 628.9688,-248.5 628.9688,-228.5 478.9688,-228.5"/>
<text text-anchor="middle" x="553.9688" y="-235.5" font-family="FreeSans" font-size="10.00" fill="#000000">phhepmc/PHGenIntegral.h</text>
</a>
</g>
</g>
<!-- Node1&#45;&gt;Node13 -->
<g id="edge16" class="edge">
<title>Node1&#45;&gt;Node13</title>
<path fill="none" stroke="#191970" d="M1484.7217,-357.5146C1216.2553,-354.3869 498.9192,-342.6256 463.9688,-306 443.3513,-284.3943 479.471,-264.5173 511.9063,-252.012"/>
<polygon fill="#191970" stroke="#191970" points="513.1752,-255.2745 521.3457,-248.5296 510.7524,-248.7071 513.1752,-255.2745"/>
</g>
<!-- Node14 -->
<g id="node14" class="node">
<title>Node14</title>
<g id="a_node14"><a xlink:href="../../df/d32/PHObject_8h.html" target="_top" xlink:title="phool/PHObject.h">
<polygon fill="none" stroke="#000000" points="480.9688,-171.5 480.9688,-191.5 584.9688,-191.5 584.9688,-171.5 480.9688,-171.5"/>
<text text-anchor="middle" x="532.9688" y="-178.5" font-family="FreeSans" font-size="10.00" fill="#000000">phool/PHObject.h</text>
</a>
</g>
</g>
<!-- Node1&#45;&gt;Node14 -->
<g id="edge61" class="edge">
<title>Node1&#45;&gt;Node14</title>
<path fill="none" stroke="#191970" d="M1484.7967,-351.7871C1280.7361,-337.241 823.6933,-299.9716 675.9688,-249 657.7279,-242.706 655.2517,-236.5817 637.9688,-228 614.5376,-216.3654 587.54,-204.4409 566.7883,-195.5806"/>
<polygon fill="#191970" stroke="#191970" points="568.0106,-192.2972 557.4377,-191.6148 565.2773,-198.7416 568.0106,-192.2972"/>
</g>
<!-- Node16 -->
<g id="node16" class="node">
<title>Node16</title>
<g id="a_node16"><a xlink:href="../../d2/d51/PHGenIntegralv1_8h.html" target="_top" xlink:title="phhepmc/PHGenIntegralv1.h">
<polygon fill="none" stroke="#000000" points="472.9688,-285.5 472.9688,-305.5 634.9688,-305.5 634.9688,-285.5 472.9688,-285.5"/>
<text text-anchor="middle" x="553.9688" y="-292.5" font-family="FreeSans" font-size="10.00" fill="#000000">phhepmc/PHGenIntegralv1.h</text>
</a>
</g>
</g>
<!-- Node1&#45;&gt;Node16 -->
<g id="edge21" class="edge">
<title>Node1&#45;&gt;Node16</title>
<path fill="none" stroke="#191970" d="M1484.7646,-354.6588C1313.3461,-347.6896 952.8805,-331.2997 648.9688,-306 647.6898,-305.8935 646.4014,-305.7839 645.1053,-305.6714"/>
<polygon fill="#191970" stroke="#191970" points="645.3224,-302.1768 635.0467,-304.7577 644.6891,-309.1481 645.3224,-302.1768"/>
</g>
<!-- Node17 -->
<g id="node17" class="node">
<title>Node17</title>
<g id="a_node17"><a xlink:href="../../da/dc1/Fun4AllReturnCodes_8h.html" target="_top" xlink:title="fun4all/Fun4AllReturnCodes.h">
<polygon fill="none" stroke="#000000" points="1669.9688,-285.5 1669.9688,-305.5 1835.9688,-305.5 1835.9688,-285.5 1669.9688,-285.5"/>
<text text-anchor="middle" x="1752.9688" y="-292.5" font-family="FreeSans" font-size="10.00" fill="#000000">fun4all/Fun4AllReturnCodes.h</text>
</a>
</g>
</g>
<!-- Node1&#45;&gt;Node17 -->
<g id="edge27" class="edge">
<title>Node1&#45;&gt;Node17</title>
<path fill="none" stroke="#191970" d="M1627.797,-342.4394C1655.2956,-332.1274 1690.615,-318.8827 1716.7206,-309.0931"/>
<polygon fill="#191970" stroke="#191970" points="1718.1049,-312.3121 1726.2392,-305.5236 1715.6469,-305.7577 1718.1049,-312.3121"/>
</g>
<!-- Node18 -->
<g id="node18" class="node">
<title>Node18</title>
<g id="a_node18"><a xlink:href="../../d8/d30/PHCompositeNode_8h.html" target="_top" xlink:title="phool/PHCompositeNode.h">
<polygon fill="none" stroke="#000000" points="1105.4688,-171.5 1105.4688,-191.5 1256.4688,-191.5 1256.4688,-171.5 1105.4688,-171.5"/>
<text text-anchor="middle" x="1180.9688" y="-178.5" font-family="FreeSans" font-size="10.00" fill="#000000">phool/PHCompositeNode.h</text>
</a>
</g>
</g>
<!-- Node1&#45;&gt;Node18 -->
<g id="edge29" class="edge">
<title>Node1&#45;&gt;Node18</title>
<path fill="none" stroke="#191970" d="M1494.6706,-342.4797C1457.0613,-334.1182 1413.5,-322.1858 1375.9688,-306 1307.6272,-276.5269 1236.0568,-224.4933 1201.7364,-197.9997"/>
<polygon fill="#191970" stroke="#191970" points="1203.877,-195.2306 1193.8381,-191.8436 1199.5738,-200.7516 1203.877,-195.2306"/>
</g>
<!-- Node19 -->
<g id="node19" class="node">
<title>Node19</title>
<g id="a_node19"><a xlink:href="../../d3/d62/PHNode_8h.html" target="_top" xlink:title="PHNode.h">
<polygon fill="none" stroke="#000000" points="1291.4688,-114.5 1291.4688,-134.5 1356.4688,-134.5 1356.4688,-114.5 1291.4688,-114.5"/>
<text text-anchor="middle" x="1323.9688" y="-121.5" font-family="FreeSans" font-size="10.00" fill="#000000">PHNode.h</text>
</a>
</g>
</g>
<!-- Node1&#45;&gt;Node19 -->
<g id="edge59" class="edge">
<title>Node1&#45;&gt;Node19</title>
<path fill="none" stroke="#191970" d="M1588.6054,-342.3624C1595.6849,-306.328 1606.9471,-218.7418 1561.9688,-171 1503.3703,-108.8011 1455.9692,-150.5681 1366.4378,-134.804"/>
<polygon fill="#191970" stroke="#191970" points="1366.9683,-131.3414 1356.4805,-132.8439 1365.6162,-138.2096 1366.9683,-131.3414"/>
</g>
<!-- Node22 -->
<g id="node22" class="node">
<title>Node22</title>
<g id="a_node22"><a xlink:href="../../d3/d79/PHIODataNode_8h.html" target="_top" xlink:title="phool/PHIODataNode.h">
<polygon fill="none" stroke="#000000" points="920.9688,-228.5 920.9688,-248.5 1052.9688,-248.5 1052.9688,-228.5 920.9688,-228.5"/>
<text text-anchor="middle" x="986.9688" y="-235.5" font-family="FreeSans" font-size="10.00" fill="#000000">phool/PHIODataNode.h</text>
</a>
</g>
</g>
<!-- Node1&#45;&gt;Node22 -->
<g id="edge36" class="edge">
<title>Node1&#45;&gt;Node22</title>
<path fill="none" stroke="#191970" d="M1484.9092,-344.9448C1419.2634,-335.4713 1331.6889,-321.7318 1254.9688,-306 1176.1486,-289.8375 1085.5948,-265.886 1032.5004,-251.285"/>
<polygon fill="#191970" stroke="#191970" points="1033.2856,-247.8708 1022.7147,-248.583 1031.4224,-254.6184 1033.2856,-247.8708"/>
</g>
<!-- Node27 -->
<g id="node27" class="node">
<title>Node27</title>
<g id="a_node27"><a xlink:href="../../d5/d6f/phool_8h.html" target="_top" xlink:title="phool.h">
<polygon fill="none" stroke="#000000" points="156.9688,-114.5 156.9688,-134.5 210.9688,-134.5 210.9688,-114.5 156.9688,-114.5"/>
<text text-anchor="middle" x="183.9688" y="-121.5" font-family="FreeSans" font-size="10.00" fill="#000000">phool.h</text>
</a>
</g>
</g>
<!-- Node1&#45;&gt;Node27 -->
<g id="edge70" class="edge">
<title>Node1&#45;&gt;Node27</title>
<path fill="none" stroke="#191970" d="M1484.7233,-357.0076C1142.5831,-351.6792 40.5862,-332.4883 14.9688,-306 -44.1067,-244.916 88.3612,-170.1373 152.1384,-139.0883"/>
<polygon fill="#191970" stroke="#191970" points="153.8756,-142.137 161.3821,-134.6601 150.8513,-135.824 153.8756,-142.137"/>
</g>
<!-- Node30 -->
<g id="node30" class="node">
<title>Node30</title>
<g id="a_node30"><a xlink:href="../../d8/dfd/PHNodeIterator_8h.html" target="_top" xlink:title="PHNodeIterator.h">
<polygon fill="none" stroke="#000000" points="1374.9688,-114.5 1374.9688,-134.5 1476.9688,-134.5 1476.9688,-114.5 1374.9688,-114.5"/>
<text text-anchor="middle" x="1425.9688" y="-121.5" font-family="FreeSans" font-size="10.00" fill="#000000">PHNodeIterator.h</text>
</a>
</g>
</g>
<!-- Node1&#45;&gt;Node30 -->
<g id="edge60" class="edge">
<title>Node1&#45;&gt;Node30</title>
<path fill="none" stroke="#191970" d="M1594.7161,-342.1549C1606.4956,-321.3611 1625.6465,-283.9425 1632.9688,-249 1640.0789,-215.0703 1654.6296,-198.0664 1632.9688,-171 1614.9694,-148.5086 1541.6853,-136.1422 1487.3955,-129.9245"/>
<polygon fill="#191970" stroke="#191970" points="1487.4781,-126.4126 1477.1553,-128.7979 1486.7126,-133.3706 1487.4781,-126.4126"/>
</g>
<!-- Node32 -->
<g id="node32" class="node">
<title>Node32</title>
<g id="a_node32"><a xlink:href="../../de/dea/PHRandomSeed_8h.html" target="_top" xlink:title="phool/PHRandomSeed.h">
<polygon fill="none" stroke="#000000" points="1853.9688,-285.5 1853.9688,-305.5 1991.9688,-305.5 1991.9688,-285.5 1853.9688,-285.5"/>
<text text-anchor="middle" x="1922.9688" y="-292.5" font-family="FreeSans" font-size="10.00" fill="#000000">phool/PHRandomSeed.h</text>
</a>
</g>
</g>
<!-- Node1&#45;&gt;Node32 -->
<g id="edge62" class="edge">
<title>Node1&#45;&gt;Node32</title>
<path fill="none" stroke="#191970" d="M1671.135,-342.4394C1729.7499,-331.5142 1806.0266,-317.2969 1859.2077,-307.3845"/>
<polygon fill="#191970" stroke="#191970" points="1860.002,-310.7968 1869.1914,-305.5236 1858.7193,-303.9153 1860.002,-310.7968"/>
</g>
<!-- Node33 -->
<g id="node33" class="node">
<title>Node33</title>
<g id="a_node33"><a xlink:href="../../dd/dd4/getClass_8h.html" target="_top" xlink:title="phool/getClass.h">
<polygon fill="none" stroke="#000000" points="1384.9688,-285.5 1384.9688,-305.5 1484.9688,-305.5 1484.9688,-285.5 1384.9688,-285.5"/>
<text text-anchor="middle" x="1434.9688" y="-292.5" font-family="FreeSans" font-size="10.00" fill="#000000">phool/getClass.h</text>
</a>
</g>
</g>
<!-- Node1&#45;&gt;Node33 -->
<g id="edge63" class="edge">
<title>Node1&#45;&gt;Node33</title>
<path fill="none" stroke="#191970" d="M1546.7294,-342.4394C1522.5775,-332.2956 1491.6686,-319.3139 1468.4802,-309.5748"/>
<polygon fill="#191970" stroke="#191970" points="1469.6324,-306.2626 1459.0572,-305.6171 1466.9217,-312.7164 1469.6324,-306.2626"/>
</g>
<!-- Node34 -->
<g id="node34" class="node">
<title>Node34</title>
<polygon fill="none" stroke="#bfbfbf" points="2009.9688,-285.5 2009.9688,-305.5 2123.9688,-305.5 2123.9688,-285.5 2009.9688,-285.5"/>
<text text-anchor="middle" x="2066.9688" y="-292.5" font-family="FreeSans" font-size="10.00" fill="#000000">HepMC/GenEvent.h</text>
</g>
<!-- Node1&#45;&gt;Node34 -->
<g id="edge71" class="edge">
<title>Node1&#45;&gt;Node34</title>
<path fill="none" stroke="#191970" d="M1685.1168,-346.7789C1767.0667,-336.974 1886.2511,-322.2282 1999.8325,-306.1298"/>
<polygon fill="#191970" stroke="#191970" points="2000.3412,-309.5928 2009.7484,-304.7189 1999.3551,-302.6626 2000.3412,-309.5928"/>
</g>
<!-- Node35 -->
<g id="node35" class="node">
<title>Node35</title>
<polygon fill="none" stroke="#bfbfbf" points="2142.4688,-285.5 2142.4688,-305.5 2233.4688,-305.5 2233.4688,-285.5 2142.4688,-285.5"/>
<text text-anchor="middle" x="2187.9688" y="-292.5" font-family="FreeSans" font-size="10.00" fill="#000000">HepMC/Units.h</text>
</g>
<!-- Node1&#45;&gt;Node35 -->
<g id="edge72" class="edge">
<title>Node1&#45;&gt;Node35</title>
<path fill="none" stroke="#191970" d="M1685.0476,-351.7241C1792.9059,-343.7811 1969.778,-328.9049 2132.2215,-305.9872"/>
<polygon fill="#191970" stroke="#191970" points="2132.9984,-309.412 2142.4051,-304.5371 2132.0115,-302.4819 2132.9984,-309.412"/>
</g>
<!-- Node36 -->
<g id="node36" class="node">
<title>Node36</title>
<polygon fill="none" stroke="#bfbfbf" points="2251.9688,-285.5 2251.9688,-305.5 2347.9688,-305.5 2347.9688,-285.5 2251.9688,-285.5"/>
<text text-anchor="middle" x="2299.9688" y="-292.5" font-family="FreeSans" font-size="10.00" fill="#000000">Pythia8/Event.h</text>
</g>
<!-- Node1&#45;&gt;Node36 -->
<g id="edge73" class="edge">
<title>Node1&#45;&gt;Node36</title>
<path fill="none" stroke="#191970" d="M1685.0742,-353.7127C1812.2641,-346.9094 2038.6814,-332.3914 2241.8586,-306.0325"/>
<polygon fill="#191970" stroke="#191970" points="2242.3609,-309.4967 2251.8218,-304.7279 2241.452,-302.556 2242.3609,-309.4967"/>
</g>
<!-- Node37 -->
<g id="node37" class="node">
<title>Node37</title>
<polygon fill="none" stroke="#bfbfbf" points="2365.9688,-285.5 2365.9688,-305.5 2451.9688,-305.5 2451.9688,-285.5 2365.9688,-285.5"/>
<text text-anchor="middle" x="2408.9688" y="-292.5" font-family="FreeSans" font-size="10.00" fill="#000000">Pythia8/Info.h</text>
</g>
<!-- Node1&#45;&gt;Node37 -->
<g id="edge74" class="edge">
<title>Node1&#45;&gt;Node37</title>
<path fill="none" stroke="#191970" d="M1685.0173,-355.8907C1830.5968,-351.1591 2109.3944,-338.5755 2355.6894,-306.013"/>
<polygon fill="#191970" stroke="#191970" points="2356.4637,-309.4407 2365.9122,-304.6473 2355.5368,-302.5023 2356.4637,-309.4407"/>
</g>
<!-- Node38 -->
<g id="node38" class="node">
<title>Node38</title>
<polygon fill="none" stroke="#bfbfbf" points="2469.9688,-285.5 2469.9688,-305.5 2567.9688,-305.5 2567.9688,-285.5 2469.9688,-285.5"/>
<text text-anchor="middle" x="2518.9688" y="-292.5" font-family="FreeSans" font-size="10.00" fill="#000000">Pythia8/Pythia.h</text>
</g>
<!-- Node1&#45;&gt;Node38 -->
<g id="edge75" class="edge">
<title>Node1&#45;&gt;Node38</title>
<path fill="none" stroke="#191970" d="M1685.16,-356.3777C1846.3531,-352.103 2173.3412,-339.8865 2459.5061,-306.0507"/>
<polygon fill="#191970" stroke="#191970" points="2460.1535,-309.4984 2469.6683,-304.8379 2459.324,-302.5477 2460.1535,-309.4984"/>
</g>
<!-- Node39 -->
<g id="node39" class="node">
<title>Node39</title>
<polygon fill="none" stroke="#bfbfbf" points="2585.9688,-285.5 2585.9688,-305.5 2731.9688,-305.5 2731.9688,-285.5 2585.9688,-285.5"/>
<text text-anchor="middle" x="2658.9688" y="-292.5" font-family="FreeSans" font-size="10.00" fill="#000000">Pythia8Plugins/HepMC2.h</text>
</g>
<!-- Node1&#45;&gt;Node39 -->
<g id="edge76" class="edge">
<title>Node1&#45;&gt;Node39</title>
<path fill="none" stroke="#191970" d="M1685.1165,-355.6665C1862.465,-350.1049 2243.5588,-335.7105 2575.3837,-306.0848"/>
<polygon fill="#191970" stroke="#191970" points="2576.0344,-309.5405 2585.6808,-305.1591 2575.4076,-302.5687 2576.0344,-309.5405"/>
</g>
<!-- Node40 -->
<g id="node40" class="node">
<title>Node40</title>
<polygon fill="none" stroke="#bfbfbf" points="2749.9688,-285.5 2749.9688,-305.5 2853.9688,-305.5 2853.9688,-285.5 2749.9688,-285.5"/>
<text text-anchor="middle" x="2801.9688" y="-292.5" font-family="FreeSans" font-size="10.00" fill="#000000">boost/format.hpp</text>
</g>
<!-- Node1&#45;&gt;Node40 -->
<g id="edge77" class="edge">
<title>Node1&#45;&gt;Node40</title>
<path fill="none" stroke="#191970" d="M1685.2402,-355.5597C1923.3567,-348.3207 2518.7496,-328.6461 2739.5572,-306.0044"/>
<polygon fill="#191970" stroke="#191970" points="2740.2088,-309.4551 2749.7858,-304.924 2739.4735,-302.4939 2740.2088,-309.4551"/>
</g>
<!-- Node41 -->
<g id="node41" class="node">
<title>Node41</title>
<polygon fill="none" stroke="#bfbfbf" points="2872.4688,-285.5 2872.4688,-305.5 2925.4688,-305.5 2925.4688,-285.5 2872.4688,-285.5"/>
<text text-anchor="middle" x="2898.9688" y="-292.5" font-family="FreeSans" font-size="10.00" fill="#000000">cassert</text>
</g>
<!-- Node1&#45;&gt;Node41 -->
<g id="edge78" class="edge">
<title>Node1&#45;&gt;Node41</title>
<path fill="none" stroke="#191970" d="M1685.4017,-357.5182C1942.0337,-354.5126 2618.1568,-343.3435 2862.4894,-305.6145"/>
<polygon fill="#191970" stroke="#191970" points="2863.0766,-309.0651 2872.3986,-304.0302 2861.9714,-302.1529 2863.0766,-309.0651"/>
</g>
<!-- Node42 -->
<g id="node42" class="node">
<title>Node42</title>
<polygon fill="none" stroke="#bfbfbf" points="2943.9688,-285.5 2943.9688,-305.5 2993.9688,-305.5 2993.9688,-285.5 2943.9688,-285.5"/>
<text text-anchor="middle" x="2968.9688" y="-292.5" font-family="FreeSans" font-size="10.00" fill="#000000">cstdlib</text>
</g>
<!-- Node1&#45;&gt;Node42 -->
<g id="edge79" class="edge">
<title>Node1&#45;&gt;Node42</title>
<path fill="none" stroke="#191970" d="M1685.1671,-357.9804C1951.807,-356.0661 2675.3917,-347.2642 2933.7903,-305.7245"/>
<polygon fill="#191970" stroke="#191970" points="2934.6061,-309.137 2943.8955,-304.0421 2933.4564,-302.232 2934.6061,-309.137"/>
</g>
<!-- Node2&#45;&gt;Node3 -->
<g id="edge2" class="edge">
<title>Node2&#45;&gt;Node3</title>
<path fill="none" stroke="#191970" d="M231.6759,-285.4408C257.2683,-276.1492 295.4833,-262.275 323.7348,-252.0181"/>
<polygon fill="#191970" stroke="#191970" points="325.0699,-255.257 333.2751,-248.5544 322.681,-248.6772 325.0699,-255.257"/>
</g>
<!-- Node6 -->
<g id="node6" class="node">
<title>Node6</title>
<polygon fill="none" stroke="#bfbfbf" points="698.4688,-57.5 698.4688,-77.5 743.4688,-77.5 743.4688,-57.5 698.4688,-57.5"/>
<text text-anchor="middle" x="720.9688" y="-64.5" font-family="FreeSans" font-size="10.00" fill="#000000">string</text>
</g>
<!-- Node2&#45;&gt;Node6 -->
<g id="edge10" class="edge">
<title>Node2&#45;&gt;Node6</title>
<path fill="none" stroke="#191970" d="M205.5981,-285.3445C209.6999,-262.564 222.3184,-206.6005 251.9688,-171 282.9941,-133.7488 299.2078,-130.0048 344.9688,-114 408.1214,-91.9126 608.3401,-75.5653 687.905,-69.7829"/>
<polygon fill="#191970" stroke="#191970" points="688.5802,-73.2436 698.3044,-69.0376 688.0797,-66.2615 688.5802,-73.2436"/>
</g>
<!-- Node2&#45;&gt;Node7 -->
<g id="edge7" class="edge">
<title>Node2&#45;&gt;Node7</title>
<path fill="none" stroke="#191970" d="M242.767,-291.627C330.6256,-282.8565 547.0858,-261.2484 675.2532,-248.4541"/>
<polygon fill="#191970" stroke="#191970" points="675.8646,-251.9105 685.4675,-247.4345 675.1692,-244.9452 675.8646,-251.9105"/>
</g>
<!-- Node9 -->
<g id="node9" class="node">
<title>Node9</title>
<polygon fill="none" stroke="#bfbfbf" points="156.9688,-228.5 156.9688,-248.5 204.9688,-248.5 204.9688,-228.5 156.9688,-228.5"/>
<text text-anchor="middle" x="180.9688" y="-235.5" font-family="FreeSans" font-size="10.00" fill="#000000">cmath</text>
</g>
<!-- Node2&#45;&gt;Node9 -->
<g id="edge9" class="edge">
<title>Node2&#45;&gt;Node9</title>
<path fill="none" stroke="#191970" d="M199.8569,-285.3095C196.8152,-277.7714 192.5776,-267.2696 188.8869,-258.123"/>
<polygon fill="#191970" stroke="#191970" points="192.0329,-256.566 185.0452,-248.6022 185.5414,-259.1854 192.0329,-256.566"/>
</g>
<!-- Node10 -->
<g id="node10" class="node">
<title>Node10</title>
<polygon fill="none" stroke="#bfbfbf" points="89.4688,-228.5 89.4688,-248.5 138.4688,-248.5 138.4688,-228.5 89.4688,-228.5"/>
<text text-anchor="middle" x="113.9688" y="-235.5" font-family="FreeSans" font-size="10.00" fill="#000000">vector</text>
</g>
<!-- Node2&#45;&gt;Node10 -->
<g id="edge11" class="edge">
<title>Node2&#45;&gt;Node10</title>
<path fill="none" stroke="#191970" d="M187.8786,-285.3095C174.1845,-276.6366 154.2962,-264.0407 138.5991,-254.0992"/>
<polygon fill="#191970" stroke="#191970" points="140.2406,-250.9959 129.9197,-248.6022 136.4952,-256.9097 140.2406,-250.9959"/>
</g>
<!-- Node3&#45;&gt;Node4 -->
<g id="edge3" class="edge">
<title>Node3&#45;&gt;Node4</title>
<path fill="none" stroke="#191970" d="M350.9571,-228.3095C342.9142,-220.1229 331.4371,-208.441 321.9608,-198.7955"/>
<polygon fill="#191970" stroke="#191970" points="324.3988,-196.2827 314.8938,-191.6022 319.4054,-201.1885 324.3988,-196.2827"/>
</g>
<!-- Node3&#45;&gt;Node6 -->
<g id="edge6" class="edge">
<title>Node3&#45;&gt;Node6</title>
<path fill="none" stroke="#191970" d="M369.3562,-228.1824C389.5832,-204.0449 443.772,-143.6978 502.9688,-114 563.8432,-83.4606 644.0469,-72.9345 688.2346,-69.3379"/>
<polygon fill="#191970" stroke="#191970" points="688.6862,-72.8141 698.3992,-68.5823 688.1672,-65.8334 688.6862,-72.8141"/>
</g>
<!-- Node5 -->
<g id="node5" class="node">
<title>Node5</title>
<polygon fill="none" stroke="#bfbfbf" points="51.4688,-114.5 51.4688,-134.5 100.4688,-134.5 100.4688,-114.5 51.4688,-114.5"/>
<text text-anchor="middle" x="75.9688" y="-121.5" font-family="FreeSans" font-size="10.00" fill="#000000">climits</text>
</g>
<!-- Node4&#45;&gt;Node5 -->
<g id="edge4" class="edge">
<title>Node4&#45;&gt;Node5</title>
<path fill="none" stroke="#191970" d="M262.6396,-171.4351C224.0892,-162.1986 165.6213,-148.015 114.9688,-135 113.5257,-134.6292 112.0534,-134.2476 110.5667,-133.8595"/>
<polygon fill="#191970" stroke="#191970" points="111.2663,-130.4243 100.7038,-131.2512 109.4766,-137.1916 111.2663,-130.4243"/>
</g>
<!-- Node4&#45;&gt;Node6 -->
<g id="edge5" class="edge">
<title>Node4&#45;&gt;Node6</title>
<path fill="none" stroke="#191970" d="M312.2856,-171.4481C324.0263,-156.1701 348.6502,-127.462 376.9688,-114 431.6991,-87.9825 612.7356,-74.1458 687.8539,-69.4082"/>
<polygon fill="#191970" stroke="#191970" points="688.3747,-72.8829 698.1407,-68.7749 687.9445,-65.8961 688.3747,-72.8829"/>
</g>
<!-- Node8 -->
<g id="node8" class="node">
<title>Node8</title>
<polygon fill="none" stroke="#bfbfbf" points="602.9688,-171.5 602.9688,-191.5 682.9688,-191.5 682.9688,-171.5 602.9688,-171.5"/>
<text text-anchor="middle" x="642.9688" y="-178.5" font-family="FreeSans" font-size="10.00" fill="#000000">gsl/gsl_rng.h</text>
</g>
<!-- Node7&#45;&gt;Node8 -->
<g id="edge8" class="edge">
<title>Node7&#45;&gt;Node8</title>
<path fill="none" stroke="#191970" d="M751.6737,-228.4408C730.5974,-219.3396 699.3389,-205.8416 675.7444,-195.6531"/>
<polygon fill="#191970" stroke="#191970" points="677.0432,-192.4016 666.475,-191.6504 674.2681,-198.8281 677.0432,-192.4016"/>
</g>
<!-- Node11&#45;&gt;Node6 -->
<g id="edge14" class="edge">
<title>Node11&#45;&gt;Node6</title>
<path fill="none" stroke="#191970" d="M76.8843,-285.0404C73.3886,-270.9889 69.4405,-245.7354 79.9688,-228 106.9746,-182.5077 238.4791,-129.8003 288.9688,-114 363.6055,-90.6431 600.7478,-74.6167 688.1822,-69.3691"/>
<polygon fill="#191970" stroke="#191970" points="688.543,-72.8539 698.3186,-68.7689 688.1292,-65.8661 688.543,-72.8539"/>
</g>
<!-- Node11&#45;&gt;Node10 -->
<g id="edge15" class="edge">
<title>Node11&#45;&gt;Node10</title>
<path fill="none" stroke="#191970" d="M86.0473,-285.3095C90.6888,-277.5282 97.214,-266.589 102.7892,-257.2423"/>
<polygon fill="#191970" stroke="#191970" points="105.826,-258.9834 107.9429,-248.6022 99.8142,-255.3975 105.826,-258.9834"/>
</g>
<!-- Node11&#45;&gt;Node12 -->
<g id="edge13" class="edge">
<title>Node11&#45;&gt;Node12</title>
<path fill="none" stroke="#191970" d="M70.8108,-285.358C54.6982,-266.421 22.9688,-223.764 22.9688,-181.5 22.9688,-181.5 22.9688,-181.5 22.9688,-124.5 22.9688,-78.2003 165.2166,-37.3541 236.8094,-19.7283"/>
<polygon fill="#191970" stroke="#191970" points="237.9402,-23.0556 246.8342,-17.2984 236.2911,-16.2526 237.9402,-23.0556"/>
</g>
<!-- Node13&#45;&gt;Node6 -->
<g id="edge20" class="edge">
<title>Node13&#45;&gt;Node6</title>
<path fill="none" stroke="#191970" d="M523.5924,-228.4739C493.8186,-216.9249 455.1699,-196.2554 471.9688,-171 520.8061,-97.5782 632.5788,-76.1689 688.234,-69.9812"/>
<polygon fill="#191970" stroke="#191970" points="688.6675,-73.4553 698.2636,-68.9646 687.9616,-66.4909 688.6675,-73.4553"/>
</g>
<!-- Node13&#45;&gt;Node14 -->
<g id="edge17" class="edge">
<title>Node13&#45;&gt;Node14</title>
<path fill="none" stroke="#191970" d="M550.2144,-228.3095C547.4372,-220.7714 543.5682,-210.2696 540.1984,-201.123"/>
<polygon fill="#191970" stroke="#191970" points="543.432,-199.7757 536.6907,-191.6022 536.8636,-202.1957 543.432,-199.7757"/>
</g>
<!-- Node14&#45;&gt;Node12 -->
<g id="edge19" class="edge">
<title>Node14&#45;&gt;Node12</title>
<path fill="none" stroke="#191970" d="M480.7465,-178.9799C380.6418,-173.612 169.6854,-159.4973 147.9688,-135 110.1448,-92.3327 192.513,-46.9766 242.4236,-24.629"/>
<polygon fill="#191970" stroke="#191970" points="243.8697,-27.8167 251.6283,-20.6017 241.0639,-21.4036 243.8697,-27.8167"/>
</g>
<!-- Node15 -->
<g id="node15" class="node">
<title>Node15</title>
<polygon fill="none" stroke="#bfbfbf" points="1027.4688,-114.5 1027.4688,-134.5 1092.4688,-134.5 1092.4688,-114.5 1027.4688,-114.5"/>
<text text-anchor="middle" x="1059.9688" y="-121.5" font-family="FreeSans" font-size="10.00" fill="#000000">TObject.h</text>
</g>
<!-- Node14&#45;&gt;Node15 -->
<g id="edge18" class="edge">
<title>Node14&#45;&gt;Node15</title>
<path fill="none" stroke="#191970" d="M585.1678,-172.2113C588.1416,-171.7767 591.0909,-171.3689 593.9688,-171 778.7825,-147.311 830.3084,-165.9625 1017.5108,-135.0207"/>
<polygon fill="#191970" stroke="#191970" points="1018.117,-138.468 1027.3999,-133.3613 1016.9586,-131.5645 1018.117,-138.468"/>
</g>
<!-- Node16&#45;&gt;Node6 -->
<g id="edge24" class="edge">
<title>Node16&#45;&gt;Node6</title>
<path fill="none" stroke="#191970" d="M635.1425,-289.1843C724.7575,-281.3707 858.4957,-266.884 873.9688,-249 880.0755,-241.9417 879.7005,-235.3661 873.9688,-228 833.9858,-176.6155 791.7727,-217.7392 731.9688,-192 721.0962,-187.3205 647.676,-145.3701 641.9688,-135 628.2748,-110.1178 661.303,-90.3108 688.7652,-78.7474"/>
<polygon fill="#191970" stroke="#191970" points="690.1652,-81.9573 698.1611,-75.0063 687.5758,-75.4539 690.1652,-81.9573"/>
</g>
<!-- Node16&#45;&gt;Node12 -->
<g id="edge23" class="edge">
<title>Node16&#45;&gt;Node12</title>
<path fill="none" stroke="#191970" d="M530.3621,-285.445C512.6374,-277.2113 488.3579,-264.4267 469.9688,-249 388.0223,-180.2545 315.8805,-72.6062 288.5847,-29.3882"/>
<polygon fill="#191970" stroke="#191970" points="291.4436,-27.3586 283.1762,-20.7328 285.5072,-31.068 291.4436,-27.3586"/>
</g>
<!-- Node16&#45;&gt;Node13 -->
<g id="edge22" class="edge">
<title>Node16&#45;&gt;Node13</title>
<path fill="none" stroke="#191970" d="M553.9688,-285.3095C553.9688,-277.9335 553.9688,-267.72 553.9688,-258.715"/>
<polygon fill="#191970" stroke="#191970" points="557.4689,-258.6022 553.9688,-248.6022 550.4689,-258.6023 557.4689,-258.6022"/>
</g>
<!-- Node18&#45;&gt;Node6 -->
<g id="edge35" class="edge">
<title>Node18&#45;&gt;Node6</title>
<path fill="none" stroke="#191970" d="M1177.3033,-171.4311C1171.1525,-156.1304 1157.198,-127.3922 1134.9688,-114 1102.5279,-94.4556 846.0263,-75.7645 753.8298,-69.6141"/>
<polygon fill="#191970" stroke="#191970" points="753.8843,-66.1102 743.6753,-68.9433 753.4228,-73.095 753.8843,-66.1102"/>
</g>
<!-- Node18&#45;&gt;Node19 -->
<g id="edge30" class="edge">
<title>Node18&#45;&gt;Node19</title>
<path fill="none" stroke="#191970" d="M1206.2052,-171.4408C1229.2408,-162.2587 1263.5041,-148.6013 1289.1416,-138.3822"/>
<polygon fill="#191970" stroke="#191970" points="1290.5105,-141.6044 1298.5037,-134.6504 1287.9185,-135.1019 1290.5105,-141.6044"/>
</g>
<!-- Node21 -->
<g id="node21" class="node">
<title>Node21</title>
<g id="a_node21"><a xlink:href="../../db/dd5/PHPointerList_8h.html" target="_top" xlink:title="PHPointerList.h">
<polygon fill="none" stroke="#000000" points="1188.9688,-57.5 1188.9688,-77.5 1280.9688,-77.5 1280.9688,-57.5 1188.9688,-57.5"/>
<text text-anchor="middle" x="1234.9688" y="-64.5" font-family="FreeSans" font-size="10.00" fill="#000000">PHPointerList.h</text>
</a>
</g>
</g>
<!-- Node18&#45;&gt;Node21 -->
<g id="edge33" class="edge">
<title>Node18&#45;&gt;Node21</title>
<path fill="none" stroke="#191970" d="M1185.761,-171.3833C1194.7448,-152.4174 1214.2535,-111.2323 1225.8265,-86.8004"/>
<polygon fill="#191970" stroke="#191970" points="1228.992,-88.2937 1230.1098,-77.7579 1222.6658,-85.297 1228.992,-88.2937"/>
</g>
<!-- Node19&#45;&gt;Node6 -->
<g id="edge32" class="edge">
<title>Node19&#45;&gt;Node6</title>
<path fill="none" stroke="#191970" d="M1291.1207,-121.395C1185.9798,-111.4563 858.4831,-80.4989 753.6202,-70.5864"/>
<polygon fill="#191970" stroke="#191970" points="753.9069,-67.098 743.6219,-69.6413 753.2481,-74.067 753.9069,-67.098"/>
</g>
<!-- Node20 -->
<g id="node20" class="node">
<title>Node20</title>
<polygon fill="none" stroke="#bfbfbf" points="1299.9688,-57.5 1299.9688,-77.5 1347.9688,-77.5 1347.9688,-57.5 1299.9688,-57.5"/>
<text text-anchor="middle" x="1323.9688" y="-64.5" font-family="FreeSans" font-size="10.00" fill="#000000">iosfwd</text>
</g>
<!-- Node19&#45;&gt;Node20 -->
<g id="edge31" class="edge">
<title>Node19&#45;&gt;Node20</title>
<path fill="none" stroke="#191970" d="M1323.9688,-114.3095C1323.9688,-106.9335 1323.9688,-96.72 1323.9688,-87.715"/>
<polygon fill="#191970" stroke="#191970" points="1327.4689,-87.6022 1323.9688,-77.6022 1320.4689,-87.6023 1327.4689,-87.6022"/>
</g>
<!-- Node21&#45;&gt;Node12 -->
<g id="edge34" class="edge">
<title>Node21&#45;&gt;Node12</title>
<path fill="none" stroke="#191970" d="M1188.7625,-64.7508C1024.7145,-54.9901 471.8627,-22.096 317.3727,-12.904"/>
<polygon fill="#191970" stroke="#191970" points="317.5543,-9.4087 307.3641,-12.3085 317.1385,-16.3963 317.5543,-9.4087"/>
</g>
<!-- Node22&#45;&gt;Node6 -->
<g id="edge58" class="edge">
<title>Node22&#45;&gt;Node6</title>
<path fill="none" stroke="#191970" d="M975.3004,-228.4954C959.6805,-215.1678 931.032,-190.9506 905.9688,-171 873.2121,-144.9253 867.1997,-134.9812 830.9688,-114 805.962,-99.5186 775.5794,-87.0226 753.0868,-78.6425"/>
<polygon fill="#191970" stroke="#191970" points="754.2564,-75.3436 743.6626,-75.1995 751.8543,-81.9186 754.2564,-75.3436"/>
</g>
<!-- Node22&#45;&gt;Node15 -->
<g id="edge57" class="edge">
<title>Node22&#45;&gt;Node15</title>
<path fill="none" stroke="#191970" d="M992.2266,-228.1887C999.2114,-214.7307 1012.1652,-190.5861 1024.9688,-171 1031.288,-161.3334 1038.9413,-151.0294 1045.4778,-142.584"/>
<polygon fill="#191970" stroke="#191970" points="1048.356,-144.5859 1051.7825,-134.5605 1042.8519,-140.2609 1048.356,-144.5859"/>
</g>
<!-- Node23 -->
<g id="node23" class="node">
<title>Node23</title>
<g id="a_node23"><a xlink:href="../../dd/d9b/PHDataNode_8h.html" target="_top" xlink:title="PHDataNode.h">
<polygon fill="none" stroke="#000000" points="1463.4688,-171.5 1463.4688,-191.5 1552.4688,-191.5 1552.4688,-171.5 1463.4688,-171.5"/>
<text text-anchor="middle" x="1507.9688" y="-178.5" font-family="FreeSans" font-size="10.00" fill="#000000">PHDataNode.h</text>
</a>
</g>
</g>
<!-- Node22&#45;&gt;Node23 -->
<g id="edge37" class="edge">
<title>Node22&#45;&gt;Node23</title>
<path fill="none" stroke="#191970" d="M1053.1246,-231.4469C1137.399,-222.435 1287.5322,-206.2899 1415.9688,-192 1427.9518,-190.6668 1440.8099,-189.2135 1453.0019,-187.825"/>
<polygon fill="#191970" stroke="#191970" points="1453.5141,-191.2893 1463.0527,-186.6779 1452.7203,-184.3345 1453.5141,-191.2893"/>
</g>
<!-- Node24 -->
<g id="node24" class="node">
<title>Node24</title>
<g id="a_node24"><a xlink:href="../../d9/d53/PHIOManager_8h.html" target="_top" xlink:title="PHIOManager.h">
<polygon fill="none" stroke="#000000" points="916.4688,-114.5 916.4688,-134.5 1009.4688,-134.5 1009.4688,-114.5 916.4688,-114.5"/>
<text text-anchor="middle" x="962.9688" y="-121.5" font-family="FreeSans" font-size="10.00" fill="#000000">PHIOManager.h</text>
</a>
</g>
</g>
<!-- Node22&#45;&gt;Node24 -->
<g id="edge40" class="edge">
<title>Node22&#45;&gt;Node24</title>
<path fill="none" stroke="#191970" d="M984.839,-228.3833C980.8994,-209.6703 972.406,-169.3266 967.2397,-144.7866"/>
<polygon fill="#191970" stroke="#191970" points="970.6135,-143.8224 965.1284,-134.7579 963.7636,-145.2645 970.6135,-143.8224"/>
</g>
<!-- Node26 -->
<g id="node26" class="node">
<title>Node26</title>
<g id="a_node26"><a xlink:href="../../dd/de7/PHNodeIOManager_8h.html" target="_top" xlink:title="PHNodeIOManager.h">
<polygon fill="none" stroke="#000000" points="776.9688,-171.5 776.9688,-191.5 896.9688,-191.5 896.9688,-171.5 776.9688,-171.5"/>
<text text-anchor="middle" x="836.9688" y="-178.5" font-family="FreeSans" font-size="10.00" fill="#000000">PHNodeIOManager.h</text>
</a>
</g>
</g>
<!-- Node22&#45;&gt;Node26 -->
<g id="edge43" class="edge">
<title>Node22&#45;&gt;Node26</title>
<path fill="none" stroke="#191970" d="M960.4971,-228.4408C936.1525,-219.1898 899.8532,-205.3961 872.8969,-195.1527"/>
<polygon fill="#191970" stroke="#191970" points="874.0189,-191.8349 863.4277,-191.5544 871.5323,-198.3784 874.0189,-191.8349"/>
</g>
<!-- Node29 -->
<g id="node29" class="node">
<title>Node29</title>
<g id="a_node29"><a xlink:href="../../db/d17/PHTypedNodeIterator_8h.html" target="_top" xlink:title="PHTypedNodeIterator.h">
<polygon fill="none" stroke="#000000" points="1274.9688,-171.5 1274.9688,-191.5 1406.9688,-191.5 1406.9688,-171.5 1274.9688,-171.5"/>
<text text-anchor="middle" x="1340.9688" y="-178.5" font-family="FreeSans" font-size="10.00" fill="#000000">PHTypedNodeIterator.h</text>
</a>
</g>
</g>
<!-- Node22&#45;&gt;Node29 -->
<g id="edge50" class="edge">
<title>Node22&#45;&gt;Node29</title>
<path fill="none" stroke="#191970" d="M1049.442,-228.4408C1110.7693,-218.566 1204.2427,-203.5152 1268.7314,-193.1315"/>
<polygon fill="#191970" stroke="#191970" points="1269.5068,-196.5518 1278.8232,-191.5065 1268.3939,-189.6408 1269.5068,-196.5518"/>
</g>
<!-- Node31 -->
<g id="node31" class="node">
<title>Node31</title>
<g id="a_node31"><a xlink:href="../../de/da7/phooldefs_8h.html" target="_top" xlink:title="phooldefs.h">
<polygon fill="none" stroke="#000000" points="650.4688,-114.5 650.4688,-134.5 725.4688,-134.5 725.4688,-114.5 650.4688,-114.5"/>
<text text-anchor="middle" x="687.9688" y="-121.5" font-family="FreeSans" font-size="10.00" fill="#000000">phooldefs.h</text>
</a>
</g>
</g>
<!-- Node22&#45;&gt;Node31 -->
<g id="edge55" class="edge">
<title>Node22&#45;&gt;Node31</title>
<path fill="none" stroke="#191970" d="M922.9109,-228.4562C868.4031,-219.2631 794.8085,-205.1322 767.9688,-192 742.6705,-179.622 718.6823,-157.4914 703.6902,-141.9537"/>
<polygon fill="#191970" stroke="#191970" points="706.1061,-139.4133 696.711,-134.516 701.0015,-144.2032 706.1061,-139.4133"/>
</g>
<!-- Node23&#45;&gt;Node12 -->
<g id="edge39" class="edge">
<title>Node23&#45;&gt;Node12</title>
<path fill="none" stroke="#191970" d="M1507.1833,-171.0527C1505.5692,-156.5522 1500.6794,-130.2767 1485.9688,-114 1443.9405,-67.4972 1418.0055,-71.2622 1356.9688,-57 1254.3363,-33.0183 500.2226,-15.3193 317.0001,-11.3428"/>
<polygon fill="#191970" stroke="#191970" points="317.0571,-7.8433 306.9839,-11.1268 316.9061,-14.8417 317.0571,-7.8433"/>
</g>
<!-- Node23&#45;&gt;Node19 -->
<g id="edge38" class="edge">
<title>Node23&#45;&gt;Node19</title>
<path fill="none" stroke="#191970" d="M1475.4969,-171.4408C1445.1102,-162.0275 1399.5402,-147.9107 1366.3109,-137.6169"/>
<polygon fill="#191970" stroke="#191970" points="1367.013,-134.1703 1356.4251,-134.5544 1364.9415,-140.8568 1367.013,-134.1703"/>
</g>
<!-- Node24&#45;&gt;Node6 -->
<g id="edge42" class="edge">
<title>Node24&#45;&gt;Node6</title>
<path fill="none" stroke="#191970" d="M920.2611,-114.4408C872.6264,-103.221 796.6221,-85.3192 753.5456,-75.173"/>
<polygon fill="#191970" stroke="#191970" points="754.1324,-71.7155 743.5963,-72.8296 752.5275,-78.5291 754.1324,-71.7155"/>
</g>
<!-- Node25 -->
<g id="node25" class="node">
<title>Node25</title>
<polygon fill="none" stroke="#bfbfbf" points="935.9688,-57.5 935.9688,-77.5 989.9688,-77.5 989.9688,-57.5 935.9688,-57.5"/>
<text text-anchor="middle" x="962.9688" y="-64.5" font-family="FreeSans" font-size="10.00" fill="#000000">cstddef</text>
</g>
<!-- Node24&#45;&gt;Node25 -->
<g id="edge41" class="edge">
<title>Node24&#45;&gt;Node25</title>
<path fill="none" stroke="#191970" d="M962.9688,-114.3095C962.9688,-106.9335 962.9688,-96.72 962.9688,-87.715"/>
<polygon fill="#191970" stroke="#191970" points="966.4689,-87.6022 962.9688,-77.6022 959.4689,-87.6023 966.4689,-87.6022"/>
</g>
<!-- Node26&#45;&gt;Node6 -->
<g id="edge49" class="edge">
<title>Node26&#45;&gt;Node6</title>
<path fill="none" stroke="#191970" d="M821.0358,-171.49C807.7153,-162.7258 788.6008,-149.2023 773.9688,-135 758.5332,-120.0177 743.6509,-100.4656 733.6072,-86.2633"/>
<polygon fill="#191970" stroke="#191970" points="736.3197,-84.0326 727.7486,-77.8047 730.5652,-88.0183 736.3197,-84.0326"/>
</g>
<!-- Node26&#45;&gt;Node24 -->
<g id="edge44" class="edge">
<title>Node26&#45;&gt;Node24</title>
<path fill="none" stroke="#191970" d="M859.205,-171.4408C879.2339,-162.3801 908.8959,-148.9615 931.3823,-138.7891"/>
<polygon fill="#191970" stroke="#191970" points="932.8626,-141.961 940.5311,-134.6504 929.9774,-135.5833 932.8626,-141.961"/>
</g>
<!-- Node26&#45;&gt;Node25 -->
<g id="edge47" class="edge">
<title>Node26&#45;&gt;Node25</title>
<path fill="none" stroke="#191970" d="M847.3742,-171.2414C861.0537,-157.8402 885.9359,-133.757 907.9688,-114 919.2811,-103.8562 932.2463,-92.8653 942.7465,-84.1171"/>
<polygon fill="#191970" stroke="#191970" points="945.0944,-86.717 950.5603,-77.6409 940.6275,-81.3275 945.0944,-86.717"/>
</g>
<!-- Node26&#45;&gt;Node27 -->
<g id="edge45" class="edge">
<title>Node26&#45;&gt;Node27</title>
<path fill="none" stroke="#191970" d="M776.7066,-176.2397C643.9413,-164.6507 329.4458,-137.1986 221.2757,-127.7565"/>
<polygon fill="#191970" stroke="#191970" points="221.4368,-124.2573 211.1702,-126.8744 220.828,-131.2308 221.4368,-124.2573"/>
</g>
<!-- Node28 -->
<g id="node28" class="node">
<title>Node28</title>
<polygon fill="none" stroke="#bfbfbf" points="782.4688,-114.5 782.4688,-134.5 821.4688,-134.5 821.4688,-114.5 782.4688,-114.5"/>
<text text-anchor="middle" x="801.9688" y="-121.5" font-family="FreeSans" font-size="10.00" fill="#000000">map</text>
</g>
<!-- Node26&#45;&gt;Node28 -->
<g id="edge48" class="edge">
<title>Node26&#45;&gt;Node28</title>
<path fill="none" stroke="#191970" d="M830.7115,-171.3095C825.9335,-163.5282 819.2165,-152.589 813.4772,-143.2423"/>
<polygon fill="#191970" stroke="#191970" points="816.3872,-141.2925 808.1719,-134.6022 810.422,-144.9554 816.3872,-141.2925"/>
</g>
<!-- Node27&#45;&gt;Node12 -->
<g id="edge46" class="edge">
<title>Node27&#45;&gt;Node12</title>
<path fill="none" stroke="#191970" d="M192.2219,-114.3833C207.9692,-95.0802 242.4928,-52.7609 262.2736,-28.5135"/>
<polygon fill="#191970" stroke="#191970" points="264.9912,-30.7191 268.6005,-20.7579 259.5672,-26.2942 264.9912,-30.7191"/>
</g>
<!-- Node29&#45;&gt;Node25 -->
<g id="edge54" class="edge">
<title>Node29&#45;&gt;Node25</title>
<path fill="none" stroke="#191970" d="M1319.3687,-171.4861C1287.7797,-157.1504 1226.8711,-130.6727 1172.9688,-114 1113.4823,-95.6001 1042.3917,-81.4413 1000.0533,-73.8053"/>
<polygon fill="#191970" stroke="#191970" points="1000.6481,-70.3563 990.1896,-72.0508 999.4221,-77.2481 1000.6481,-70.3563"/>
</g>
<!-- Node29&#45;&gt;Node30 -->
<g id="edge51" class="edge">
<title>Node29&#45;&gt;Node30</title>
<path fill="none" stroke="#191970" d="M1356.1651,-171.3095C1368.9776,-162.7177 1387.5313,-150.2758 1402.2902,-140.3786"/>
<polygon fill="#191970" stroke="#191970" points="1404.548,-143.0787 1410.9041,-134.6022 1400.6493,-137.2649 1404.548,-143.0787"/>
</g>
<!-- Node30&#45;&gt;Node6 -->
<g id="edge53" class="edge">
<title>Node30&#45;&gt;Node6</title>
<path fill="none" stroke="#191970" d="M1374.9583,-115.2111C1371.9213,-114.7707 1368.9076,-114.3621 1365.9688,-114 1245.3404,-99.1355 867.3789,-76.1525 753.6581,-69.4165"/>
<polygon fill="#191970" stroke="#191970" points="753.6842,-65.912 743.4952,-68.8161 753.2714,-72.8998 753.6842,-65.912"/>
</g>
<!-- Node30&#45;&gt;Node21 -->
<g id="edge52" class="edge">
<title>Node30&#45;&gt;Node21</title>
<path fill="none" stroke="#191970" d="M1392.2615,-114.4408C1360.5829,-104.9869 1313.0071,-90.7889 1278.4765,-80.484"/>
<polygon fill="#191970" stroke="#191970" points="1279.2431,-77.0603 1268.6598,-77.5544 1277.2413,-83.768 1279.2431,-77.0603"/>
</g>
<!-- Node31&#45;&gt;Node6 -->
<g id="edge56" class="edge">
<title>Node31&#45;&gt;Node6</title>
<path fill="none" stroke="#191970" d="M693.8686,-114.3095C698.3266,-106.6093 704.575,-95.8166 709.9486,-86.5349"/>
<polygon fill="#191970" stroke="#191970" points="713.1387,-88.0102 715.1202,-77.6022 707.0807,-84.5029 713.1387,-88.0102"/>
</g>
<!-- Node33&#45;&gt;Node6 -->
<g id="edge69" class="edge">
<title>Node33&#45;&gt;Node6</title>
<path fill="none" stroke="#191970" d="M1384.7183,-287.524C1299.2502,-272.82 1131.4551,-238.627 1096.9688,-192 1076.3121,-164.0712 1124.9962,-140.0087 1101.9688,-114 1079.0175,-88.0772 842.2196,-73.5973 753.9213,-69.066"/>
<polygon fill="#191970" stroke="#191970" points="753.8372,-65.5574 743.6741,-68.5508 753.4857,-72.5486 753.8372,-65.5574"/>
</g>
<!-- Node33&#45;&gt;Node15 -->
<g id="edge68" class="edge">
<title>Node33&#45;&gt;Node15</title>
<path fill="none" stroke="#191970" d="M1384.8068,-293.1545C1304.4445,-288.6224 1151.1787,-276.5665 1104.9688,-249 1077.9443,-232.8786 1073.4546,-221.6693 1062.9688,-192 1057.6553,-176.9654 1057.1389,-158.865 1057.8232,-145.1939"/>
<polygon fill="#191970" stroke="#191970" points="1061.3363,-145.1523 1058.6016,-134.9165 1054.3563,-144.6236 1061.3363,-145.1523"/>
</g>
<!-- Node33&#45;&gt;Node19 -->
<g id="edge66" class="edge">
<title>Node33&#45;&gt;Node19</title>
<path fill="none" stroke="#191970" d="M1436.3229,-285.3169C1438.7924,-262.4801 1441.6303,-206.4087 1415.9688,-171 1404.0064,-154.4937 1384.4753,-143.4703 1366.4792,-136.3185"/>
<polygon fill="#191970" stroke="#191970" points="1367.2908,-132.8883 1356.6971,-132.7333 1364.8819,-139.4608 1367.2908,-132.8883"/>
</g>
<!-- Node33&#45;&gt;Node22 -->
<g id="edge65" class="edge">
<title>Node33&#45;&gt;Node22</title>
<path fill="none" stroke="#191970" d="M1384.96,-289.2584C1314.1601,-280.4041 1180.6561,-263.6433 1066.9688,-249 1065.8574,-248.8568 1064.7372,-248.7124 1063.6101,-248.5668"/>
<polygon fill="#191970" stroke="#191970" points="1063.6866,-245.0476 1053.3198,-247.2335 1062.7871,-251.9895 1063.6866,-245.0476"/>
</g>
<!-- Node33&#45;&gt;Node23 -->
<g id="edge64" class="edge">
<title>Node33&#45;&gt;Node23</title>
<path fill="none" stroke="#191970" d="M1441.4471,-285.3833C1453.6459,-266.3331 1480.1995,-224.8658 1495.8177,-200.4757"/>
<polygon fill="#191970" stroke="#191970" points="1498.9549,-202.0668 1501.4001,-191.7579 1493.06,-198.2919 1498.9549,-202.0668"/>
</g>
<!-- Node33&#45;&gt;Node30 -->
<g id="edge67" class="edge">
<title>Node33&#45;&gt;Node30</title>
<path fill="none" stroke="#191970" d="M1460.5541,-285.3986C1506.843,-265.6221 1596.6258,-219.4764 1561.9688,-171 1552.3352,-157.5249 1516.115,-145.5199 1483.4757,-137.0844"/>
<polygon fill="#191970" stroke="#191970" points="1484.0455,-133.619 1473.4947,-134.5834 1482.344,-140.4091 1484.0455,-133.619"/>
</g>
</g>
</svg>
