<?xml version="1.0" encoding="UTF-8" standalone="no"?>
<!DOCTYPE svg PUBLIC "-//W3C//DTD SVG 1.1//EN"
 "http://www.w3.org/Graphics/SVG/1.1/DTD/svg11.dtd">
<!-- Generated by graphviz version 2.40.1 (20161225.0304)
 -->
<!-- Title: Tracking_Eval Pages: 1 -->
<svg width="269pt" height="185pt"
 viewBox="0.00 0.00 269.00 185.00" xmlns="http://www.w3.org/2000/svg" xmlns:xlink="http://www.w3.org/1999/xlink">
<g id="graph0" class="graph" transform="scale(1 1) rotate(0) translate(4 181)">
<title>Tracking_Eval</title>
<!-- Node1 -->
<g id="node1" class="node">
<title>Node1</title>
<polygon fill="#bfbfbf" stroke="#000000" points="0,-78.5 0,-98.5 86,-98.5 86,-78.5 0,-78.5"/>
<text text-anchor="middle" x="43" y="-85.5" font-family="FreeSans" font-size="10.00" fill="#000000">Tracking_Eval</text>
</g>
<!-- Node2 -->
<g id="node2" class="node">
<title>Node2</title>
<g id="a_node2"><a xlink:href="../../db/dc0/Fun4All__AnaTutorial_8C.html#a8c484ea6d7477278e981ef056b17eac9" target="_top" xlink:title="Fun4All_AnaTutorial">
<polygon fill="none" stroke="#000000" points="134,-156.5 134,-176.5 249,-176.5 249,-156.5 134,-156.5"/>
<text text-anchor="middle" x="191.5" y="-163.5" font-family="FreeSans" font-size="10.00" fill="#000000">Fun4All_AnaTutorial</text>
</a>
</g>
</g>
<!-- Node1&#45;&gt;Node2 -->
<g id="edge1" class="edge">
<title>Node1&#45;&gt;Node2</title>
<path fill="none" stroke="#191970" d="M61.2679,-105.2997C76.4928,-118.486 99.2864,-136.4111 122,-147.5 129.194,-151.0122 137.1348,-153.9557 144.9993,-156.3955"/>
<polygon fill="#191970" stroke="#191970" points="63.4417,-102.5494 53.6368,-98.535 58.7982,-107.7876 63.4417,-102.5494"/>
</g>
<!-- Node3 -->
<g id="node3" class="node">
<title>Node3</title>
<g id="a_node3"><a xlink:href="../../dd/d28/Fun4All__AnaTutorial__Jets_8C.html#a55eaaeb770a3177f917012de87877d28" target="_top" xlink:title="Fun4All_AnaTutorial_Jets">
<polygon fill="none" stroke="#000000" points="122,-117.5 122,-137.5 261,-137.5 261,-117.5 122,-117.5"/>
<text text-anchor="middle" x="191.5" y="-124.5" font-family="FreeSans" font-size="10.00" fill="#000000">Fun4All_AnaTutorial_Jets</text>
</a>
</g>
</g>
<!-- Node1&#45;&gt;Node3 -->
<g id="edge2" class="edge">
<title>Node1&#45;&gt;Node3</title>
<path fill="none" stroke="#191970" d="M91.1759,-101.1523C111.3383,-106.4474 134.4389,-112.5143 153.3872,-117.4906"/>
<polygon fill="#191970" stroke="#191970" points="91.8035,-97.6985 81.2424,-98.5435 90.0254,-104.4689 91.8035,-97.6985"/>
</g>
<!-- Node4 -->
<g id="node4" class="node">
<title>Node4</title>
<g id="a_node4"><a xlink:href="../../da/d02/Fun4All__G4__EICDetector_8C.html#afbe82cefa1d1fd031d9a8586b7bb68c6" target="_top" xlink:title="Fun4All_G4_EICDetector">
<polygon fill="none" stroke="#000000" points="122,-78.5 122,-98.5 261,-98.5 261,-78.5 122,-78.5"/>
<text text-anchor="middle" x="191.5" y="-85.5" font-family="FreeSans" font-size="10.00" fill="#000000">Fun4All_G4_EICDetector</text>
</a>
</g>
</g>
<!-- Node1&#45;&gt;Node4 -->
<g id="edge3" class="edge">
<title>Node1&#45;&gt;Node4</title>
<path fill="none" stroke="#191970" d="M96.5278,-88.5C104.7436,-88.5 113.3274,-88.5 121.8308,-88.5"/>
<polygon fill="#191970" stroke="#191970" points="96.3516,-85.0001 86.3515,-88.5 96.3515,-92.0001 96.3516,-85.0001"/>
</g>
<!-- Node5 -->
<g id="node5" class="node">
<title>Node5</title>
<g id="a_node5"><a xlink:href="../../d7/d9e/Fun4All__G4__fsPHENIX_8C.html#af48911d394d2412e817583700f2bbee2" target="_top" xlink:title="Fun4All_G4_fsPHENIX">
<polygon fill="none" stroke="#000000" points="129.5,-39.5 129.5,-59.5 253.5,-59.5 253.5,-39.5 129.5,-39.5"/>
<text text-anchor="middle" x="191.5" y="-46.5" font-family="FreeSans" font-size="10.00" fill="#000000">Fun4All_G4_fsPHENIX</text>
</a>
</g>
</g>
<!-- Node1&#45;&gt;Node5 -->
<g id="edge4" class="edge">
<title>Node1&#45;&gt;Node5</title>
<path fill="none" stroke="#191970" d="M91.1759,-75.8477C111.3383,-70.5526 134.4389,-64.4857 153.3872,-59.5094"/>
<polygon fill="#191970" stroke="#191970" points="90.0254,-72.5311 81.2424,-78.4565 91.8035,-79.3015 90.0254,-72.5311"/>
</g>
<!-- Node6 -->
<g id="node6" class="node">
<title>Node6</title>
<g id="a_node6"><a xlink:href="../../d5/d2c/macros_2blob_2master_2macros_2g4simulations_2Fun4All__G4__sPHENIX_8C.html#a6eaaa492d7023ec86c562dc63aa1e5a4" target="_top" xlink:title="Fun4All_G4_sPHENIX">
<polygon fill="none" stroke="#000000" points="131,-.5 131,-20.5 252,-20.5 252,-.5 131,-.5"/>
<text text-anchor="middle" x="191.5" y="-7.5" font-family="FreeSans" font-size="10.00" fill="#000000">Fun4All_G4_sPHENIX</text>
</a>
</g>
</g>
<!-- Node1&#45;&gt;Node6 -->
<g id="edge5" class="edge">
<title>Node1&#45;&gt;Node6</title>
<path fill="none" stroke="#191970" d="M61.6195,-71.8597C76.8938,-58.9731 99.5808,-41.5169 122,-30.5 130.0007,-26.5684 138.9094,-23.2792 147.6071,-20.5786"/>
<polygon fill="#191970" stroke="#191970" points="59.2317,-69.2971 53.9452,-78.4788 63.8036,-74.5978 59.2317,-69.2971"/>
</g>
</g>
</svg>
