<?xml version="1.0" encoding="UTF-8" standalone="no"?>
<!DOCTYPE svg PUBLIC "-//W3C//DTD SVG 1.1//EN"
 "http://www.w3.org/Graphics/SVG/1.1/DTD/svg11.dtd">
<!-- Generated by graphviz version 2.40.1 (20161225.0304)
 -->
<!-- Title: coresoftware/blob/master/offline/packages/trackreco/PHRaveVertexing.cc Pages: 1 -->
<svg width="4155pt" height="362pt"
 viewBox="0.00 0.00 4154.50 362.00" xmlns="http://www.w3.org/2000/svg" xmlns:xlink="http://www.w3.org/1999/xlink">
<g id="graph0" class="graph" transform="scale(1 1) rotate(0) translate(4 358)">
<title>coresoftware/blob/master/offline/packages/trackreco/PHRaveVertexing.cc</title>
<!-- Node1 -->
<g id="node1" class="node">
<title>Node1</title>
<polygon fill="#bfbfbf" stroke="#000000" points="1737,-309.5 1737,-353.5 1891,-353.5 1891,-309.5 1737,-309.5"/>
<text text-anchor="start" x="1745" y="-340.5" font-family="FreeSans" font-size="10.00" fill="#000000">coresoftware/blob/master</text>
<text text-anchor="start" x="1745" y="-328.5" font-family="FreeSans" font-size="10.00" fill="#000000">/offline/packages/trackreco</text>
<text text-anchor="middle" x="1814" y="-316.5" font-family="FreeSans" font-size="10.00" fill="#000000">/PHRaveVertexing.cc</text>
</g>
<!-- Node2 -->
<g id="node2" class="node">
<title>Node2</title>
<g id="a_node2"><a xlink:href="../../d6/de6/PHRaveVertexing_8h.html" target="_top" xlink:title="Refit SvtxTracks with PHGenFit.">
<polygon fill="none" stroke="#000000" points="1880,-246.5 1880,-266.5 1992,-266.5 1992,-246.5 1880,-246.5"/>
<text text-anchor="middle" x="1936" y="-253.5" font-family="FreeSans" font-size="10.00" fill="#000000">PHRaveVertexing.h</text>
</a>
</g>
</g>
<!-- Node1&#45;&gt;Node2 -->
<g id="edge1" class="edge">
<title>Node1&#45;&gt;Node2</title>
<path fill="none" stroke="#191970" d="M1849.9442,-309.4032C1869.5762,-297.3343 1893.3991,-282.6891 1910.9978,-271.8702"/>
<polygon fill="#191970" stroke="#191970" points="1912.8922,-274.8141 1919.5782,-266.5954 1909.2262,-268.8508 1912.8922,-274.8141"/>
</g>
<!-- Node3 -->
<g id="node3" class="node">
<title>Node3</title>
<g id="a_node3"><a xlink:href="../../d5/dc2/SubsysReco_8h.html" target="_top" xlink:title="fun4all/SubsysReco.h">
<polygon fill="none" stroke="#ff0000" points="2087,-177.5 2087,-197.5 2211,-197.5 2211,-177.5 2087,-177.5"/>
<text text-anchor="middle" x="2149" y="-184.5" font-family="FreeSans" font-size="10.00" fill="#000000">fun4all/SubsysReco.h</text>
</a>
</g>
</g>
<!-- Node1&#45;&gt;Node3 -->
<g id="edge59" class="edge">
<title>Node1&#45;&gt;Node3</title>
<path fill="none" stroke="#191970" d="M1891.0744,-316.2198C1931.4777,-306.6628 1981.1329,-292.4327 2023,-273 2063.363,-254.2655 2105.1219,-223.2023 2128.9902,-204.1232"/>
<polygon fill="#191970" stroke="#191970" points="2131.3734,-206.6969 2136.9386,-197.6814 2126.9659,-201.2587 2131.3734,-206.6969"/>
</g>
<!-- Node5 -->
<g id="node5" class="node">
<title>Node5</title>
<polygon fill="none" stroke="#bfbfbf" points="890.5,-114.5 890.5,-134.5 929.5,-134.5 929.5,-114.5 890.5,-114.5"/>
<text text-anchor="middle" x="910" y="-121.5" font-family="FreeSans" font-size="10.00" fill="#000000">map</text>
</g>
<!-- Node1&#45;&gt;Node5 -->
<g id="edge102" class="edge">
<title>Node1&#45;&gt;Node5</title>
<path fill="none" stroke="#191970" d="M1736.7819,-329.0724C1525.6533,-322.087 952.4877,-300.6545 923,-273 888.0455,-240.2185 896.8557,-177.1672 904.407,-144.7858"/>
<polygon fill="#191970" stroke="#191970" points="907.8962,-145.2637 906.9517,-134.711 901.1093,-143.5494 907.8962,-145.2637"/>
</g>
<!-- Node6 -->
<g id="node6" class="node">
<title>Node6</title>
<polygon fill="none" stroke="#bfbfbf" points="1541.5,-57.5 1541.5,-77.5 1590.5,-77.5 1590.5,-57.5 1541.5,-57.5"/>
<text text-anchor="middle" x="1566" y="-64.5" font-family="FreeSans" font-size="10.00" fill="#000000">vector</text>
</g>
<!-- Node1&#45;&gt;Node6 -->
<g id="edge105" class="edge">
<title>Node1&#45;&gt;Node6</title>
<path fill="none" stroke="#191970" d="M1736.9427,-330.4293C1570.4558,-327.316 1188.9804,-315.5657 1150,-273 1140.0946,-262.1836 1140.0313,-250.758 1150,-240 1221.4987,-162.8403 1550.5013,-281.1597 1622,-204 1654.305,-169.1372 1610.3586,-113.1003 1583.7263,-84.9001"/>
<polygon fill="#191970" stroke="#191970" points="1586.2315,-82.4559 1576.7515,-77.7251 1581.2122,-87.3352 1586.2315,-82.4559"/>
</g>
<!-- Node7 -->
<g id="node7" class="node">
<title>Node7</title>
<g id="a_node7"><a xlink:href="../../d0/d87/SvtxTrack_8h.html" target="_top" xlink:title="trackbase_historic\l/SvtxTrack.h">
<polygon fill="none" stroke="#000000" points="623,-171.5 623,-203.5 731,-203.5 731,-171.5 623,-171.5"/>
<text text-anchor="start" x="631" y="-190.5" font-family="FreeSans" font-size="10.00" fill="#000000">trackbase_historic</text>
<text text-anchor="middle" x="677" y="-178.5" font-family="FreeSans" font-size="10.00" fill="#000000">/SvtxTrack.h</text>
</a>
</g>
</g>
<!-- Node1&#45;&gt;Node7 -->
<g id="edge7" class="edge">
<title>Node1&#45;&gt;Node7</title>
<path fill="none" stroke="#191970" d="M1736.8013,-330.0045C1490.2728,-324.8983 735.6918,-306.5817 696,-273 679.1532,-258.7466 675.3011,-233.1765 675.1245,-213.701"/>
<polygon fill="#191970" stroke="#191970" points="678.6254,-213.6932 675.3453,-203.6189 671.6271,-213.5398 678.6254,-213.6932"/>
</g>
<!-- Node8 -->
<g id="node8" class="node">
<title>Node8</title>
<g id="a_node8"><a xlink:href="../../de/de6/SvtxTrackState_8h.html" target="_top" xlink:title="SvtxTrackState.h">
<polygon fill="none" stroke="#000000" points="546.5,-114.5 546.5,-134.5 647.5,-134.5 647.5,-114.5 546.5,-114.5"/>
<text text-anchor="middle" x="597" y="-121.5" font-family="FreeSans" font-size="10.00" fill="#000000">SvtxTrackState.h</text>
</a>
</g>
</g>
<!-- Node1&#45;&gt;Node8 -->
<g id="edge25" class="edge">
<title>Node1&#45;&gt;Node8</title>
<path fill="none" stroke="#191970" d="M1736.853,-330.9811C1496.2621,-328.8875 770.038,-318.8017 675,-273 638.1264,-255.2295 632.4391,-240.5439 614,-204 604.5463,-185.264 600.3394,-161.4736 598.4737,-144.8204"/>
<polygon fill="#191970" stroke="#191970" points="601.9324,-144.2138 597.5203,-134.5814 594.9626,-144.8629 601.9324,-144.2138"/>
</g>
<!-- Node9 -->
<g id="node9" class="node">
<title>Node9</title>
<g id="a_node9"><a xlink:href="../../df/d32/PHObject_8h.html" target="_top" xlink:title="phool/PHObject.h">
<polygon fill="none" stroke="#ff0000" points="466,-57.5 466,-77.5 570,-77.5 570,-57.5 466,-57.5"/>
<text text-anchor="middle" x="518" y="-64.5" font-family="FreeSans" font-size="10.00" fill="#000000">phool/PHObject.h</text>
</a>
</g>
</g>
<!-- Node1&#45;&gt;Node9 -->
<g id="edge69" class="edge">
<title>Node1&#45;&gt;Node9</title>
<path fill="none" stroke="#191970" d="M1736.6101,-330.8899C1489.7828,-328.5004 731.5096,-317.5722 631,-273 560.0533,-241.5378 546.6406,-209.2342 524,-135 519.3345,-119.7027 517.932,-101.6185 517.6427,-88.0205"/>
<polygon fill="#191970" stroke="#191970" points="521.1422,-87.8031 517.6143,-77.813 514.1422,-87.8227 521.1422,-87.8031"/>
</g>
<!-- Node10 -->
<g id="node10" class="node">
<title>Node10</title>
<polygon fill="none" stroke="#bfbfbf" points="794,-.5 794,-20.5 854,-20.5 854,-.5 794,-.5"/>
<text text-anchor="middle" x="824" y="-7.5" font-family="FreeSans" font-size="10.00" fill="#000000">iostream</text>
</g>
<!-- Node1&#45;&gt;Node10 -->
<g id="edge101" class="edge">
<title>Node1&#45;&gt;Node10</title>
<path fill="none" stroke="#191970" d="M1736.7565,-328.9934C1532.7007,-321.9986 993.0701,-300.9328 967,-273 956.9928,-262.2778 957.5593,-251.2243 967,-240 1027.1078,-168.5364 1089.6588,-244.082 1174,-204 1194.203,-194.3988 1193.2741,-183.2347 1212,-171 1247.3466,-147.906 1314.3146,-147.0191 1288,-114 1235.0361,-47.5418 967.0416,-21.0308 864.2313,-13.2024"/>
<polygon fill="#191970" stroke="#191970" points="864.4701,-9.7106 854.2386,-12.4611 863.9522,-16.6914 864.4701,-9.7106"/>
</g>
<!-- Node15 -->
<g id="node15" class="node">
<title>Node15</title>
<g id="a_node15"><a xlink:href="../../d7/d9f/SvtxTrackMap_8h.html" target="_top" xlink:title="trackbase_historic\l/SvtxTrackMap.h">
<polygon fill="none" stroke="#000000" points="705,-240.5 705,-272.5 813,-272.5 813,-240.5 705,-240.5"/>
<text text-anchor="start" x="713" y="-259.5" font-family="FreeSans" font-size="10.00" fill="#000000">trackbase_historic</text>
<text text-anchor="middle" x="759" y="-247.5" font-family="FreeSans" font-size="10.00" fill="#000000">/SvtxTrackMap.h</text>
</a>
</g>
</g>
<!-- Node1&#45;&gt;Node15 -->
<g id="edge20" class="edge">
<title>Node1&#45;&gt;Node15</title>
<path fill="none" stroke="#191970" d="M1736.71,-329.4473C1573.9192,-324.5348 1183.9659,-309.6654 859,-273 847.3206,-271.6822 834.9279,-269.9288 822.9893,-268.0567"/>
<polygon fill="#191970" stroke="#191970" points="823.5226,-264.5976 813.0933,-266.4633 822.4097,-271.5086 823.5226,-264.5976"/>
</g>
<!-- Node16 -->
<g id="node16" class="node">
<title>Node16</title>
<g id="a_node16"><a xlink:href="../../d0/d19/SvtxVertexMap_8h.html" target="_top" xlink:title="trackbase_historic\l/SvtxVertexMap.h">
<polygon fill="none" stroke="#000000" points="383,-171.5 383,-203.5 491,-203.5 491,-171.5 383,-171.5"/>
<text text-anchor="start" x="391" y="-190.5" font-family="FreeSans" font-size="10.00" fill="#000000">trackbase_historic</text>
<text text-anchor="middle" x="437" y="-178.5" font-family="FreeSans" font-size="10.00" fill="#000000">/SvtxVertexMap.h</text>
</a>
</g>
</g>
<!-- Node1&#45;&gt;Node16 -->
<g id="edge26" class="edge">
<title>Node1&#45;&gt;Node16</title>
<path fill="none" stroke="#191970" d="M1736.8864,-329.8145C1464.3713,-323.6299 560.0275,-301.076 505,-273 479.6233,-260.0524 460.615,-232.8624 449.2387,-212.6015"/>
<polygon fill="#191970" stroke="#191970" points="452.2162,-210.7473 444.4129,-203.5807 446.0439,-214.0493 452.2162,-210.7473"/>
</g>
<!-- Node17 -->
<g id="node17" class="node">
<title>Node17</title>
<g id="a_node17"><a xlink:href="../../dc/dc1/SvtxVertex_8h.html" target="_top" xlink:title="SvtxVertex.h">
<polygon fill="none" stroke="#000000" points="258,-114.5 258,-134.5 338,-134.5 338,-114.5 258,-114.5"/>
<text text-anchor="middle" x="298" y="-121.5" font-family="FreeSans" font-size="10.00" fill="#000000">SvtxVertex.h</text>
</a>
</g>
</g>
<!-- Node1&#45;&gt;Node17 -->
<g id="edge43" class="edge">
<title>Node1&#45;&gt;Node17</title>
<path fill="none" stroke="#191970" d="M1736.9219,-331.3206C1436.8619,-330.2636 360.7746,-322.9891 309,-273 274.5626,-239.7502 284.1882,-176.9081 292.1512,-144.6782"/>
<polygon fill="#191970" stroke="#191970" points="295.6295,-145.2176 294.8235,-134.6535 288.8657,-143.4145 295.6295,-145.2176"/>
</g>
<!-- Node19 -->
<g id="node19" class="node">
<title>Node19</title>
<g id="a_node19"><a xlink:href="../../d3/daf/SvtxVertexMap__v1_8h.html" target="_top" xlink:title="trackbase_historic\l/SvtxVertexMap_v1.h">
<polygon fill="none" stroke="#000000" points="318.5,-240.5 318.5,-272.5 441.5,-272.5 441.5,-240.5 318.5,-240.5"/>
<text text-anchor="start" x="326.5" y="-259.5" font-family="FreeSans" font-size="10.00" fill="#000000">trackbase_historic</text>
<text text-anchor="middle" x="380" y="-247.5" font-family="FreeSans" font-size="10.00" fill="#000000">/SvtxVertexMap_v1.h</text>
</a>
</g>
</g>
<!-- Node1&#45;&gt;Node19 -->
<g id="edge37" class="edge">
<title>Node1&#45;&gt;Node19</title>
<path fill="none" stroke="#191970" d="M1736.8588,-329.7667C1488.398,-323.9319 710.701,-303.6364 461,-273 457.9641,-272.6275 454.8724,-272.2027 451.755,-271.7368"/>
<polygon fill="#191970" stroke="#191970" points="452.1791,-268.2601 441.7493,-270.1232 451.0645,-275.1708 452.1791,-268.2601"/>
</g>
<!-- Node21 -->
<g id="node21" class="node">
<title>Node21</title>
<g id="a_node21"><a xlink:href="../../d1/d72/SvtxVertex__v1_8h.html" target="_top" xlink:title="trackbase_historic\l/SvtxVertex_v1.h">
<polygon fill="none" stroke="#000000" points="105,-171.5 105,-203.5 213,-203.5 213,-171.5 105,-171.5"/>
<text text-anchor="start" x="113" y="-190.5" font-family="FreeSans" font-size="10.00" fill="#000000">trackbase_historic</text>
<text text-anchor="middle" x="159" y="-178.5" font-family="FreeSans" font-size="10.00" fill="#000000">/SvtxVertex_v1.h</text>
</a>
</g>
</g>
<!-- Node1&#45;&gt;Node21 -->
<g id="edge44" class="edge">
<title>Node1&#45;&gt;Node21</title>
<path fill="none" stroke="#191970" d="M1736.9074,-329.9376C1433.4475,-323.6136 334.4656,-299.0085 265,-273 230.8372,-260.2092 199.3505,-231.7794 179.7234,-211.2077"/>
<polygon fill="#191970" stroke="#191970" points="182.1717,-208.7008 172.8009,-203.7572 177.0436,-213.4655 182.1717,-208.7008"/>
</g>
<!-- Node22 -->
<g id="node22" class="node">
<title>Node22</title>
<g id="a_node22"><a xlink:href="../../d0/d25/PHG4TruthInfoContainer_8h.html" target="_top" xlink:title="g4main/PHG4TruthInfoContainer.h">
<polygon fill="none" stroke="#000000" points="977,-177.5 977,-197.5 1165,-197.5 1165,-177.5 977,-177.5"/>
<text text-anchor="middle" x="1071" y="-184.5" font-family="FreeSans" font-size="10.00" fill="#000000">g4main/PHG4TruthInfoContainer.h</text>
</a>
</g>
</g>
<!-- Node1&#45;&gt;Node22 -->
<g id="edge49" class="edge">
<title>Node1&#45;&gt;Node22</title>
<path fill="none" stroke="#191970" d="M1736.8807,-329.1996C1527.4983,-322.5817 962.2173,-302.0889 935,-273 904.0955,-239.9704 966.9374,-214.4743 1017.1449,-200.2236"/>
<polygon fill="#191970" stroke="#191970" points="1018.2683,-203.5448 1026.9865,-197.5244 1016.4168,-196.7941 1018.2683,-203.5448"/>
</g>
<!-- Node24 -->
<g id="node24" class="node">
<title>Node24</title>
<polygon fill="none" stroke="#bfbfbf" points="1234.5,-114.5 1234.5,-134.5 1279.5,-134.5 1279.5,-114.5 1234.5,-114.5"/>
<text text-anchor="middle" x="1257" y="-121.5" font-family="FreeSans" font-size="10.00" fill="#000000">utility</text>
</g>
<!-- Node1&#45;&gt;Node24 -->
<g id="edge104" class="edge">
<title>Node1&#45;&gt;Node24</title>
<path fill="none" stroke="#191970" d="M1820.614,-309.4159C1825.1761,-289.4355 1828.1638,-260.1407 1814,-240 1752.7671,-152.9274 1399.6952,-130.5982 1289.7055,-125.7171"/>
<polygon fill="#191970" stroke="#191970" points="1289.6855,-122.2132 1279.5461,-125.2858 1289.3886,-129.2069 1289.6855,-122.2132"/>
</g>
<!-- Node25 -->
<g id="node25" class="node">
<title>Node25</title>
<polygon fill="none" stroke="#bfbfbf" points="1159,-246.5 1159,-266.5 1255,-266.5 1255,-246.5 1159,-246.5"/>
<text text-anchor="middle" x="1207" y="-253.5" font-family="FreeSans" font-size="10.00" fill="#000000">phgenfit/Fitter.h</text>
</g>
<!-- Node1&#45;&gt;Node25 -->
<g id="edge55" class="edge">
<title>Node1&#45;&gt;Node25</title>
<path fill="none" stroke="#191970" d="M1736.8438,-327.5803C1629.8578,-321.1751 1430.7797,-305.7446 1264,-273 1258.8254,-271.984 1253.4412,-270.7147 1248.1382,-269.3339"/>
<polygon fill="#191970" stroke="#191970" points="1248.6868,-265.8549 1238.1167,-266.5785 1246.831,-272.6044 1248.6868,-265.8549"/>
</g>
<!-- Node26 -->
<g id="node26" class="node">
<title>Node26</title>
<polygon fill="none" stroke="#bfbfbf" points="1273.5,-246.5 1273.5,-266.5 1402.5,-266.5 1402.5,-246.5 1273.5,-246.5"/>
<text text-anchor="middle" x="1338" y="-253.5" font-family="FreeSans" font-size="10.00" fill="#000000">phfield/PHFieldUtility.h</text>
</g>
<!-- Node1&#45;&gt;Node26 -->
<g id="edge56" class="edge">
<title>Node1&#45;&gt;Node26</title>
<path fill="none" stroke="#191970" d="M1736.8236,-322.1185C1655.4892,-311.8063 1523.7884,-293.8999 1411,-273 1404.2188,-271.7434 1397.1115,-270.2986 1390.1047,-268.7977"/>
<polygon fill="#191970" stroke="#191970" points="1390.4782,-265.2965 1379.9607,-266.5737 1388.9791,-272.1341 1390.4782,-265.2965"/>
</g>
<!-- Node27 -->
<g id="node27" class="node">
<title>Node27</title>
<polygon fill="none" stroke="#bfbfbf" points="1420.5,-246.5 1420.5,-266.5 1563.5,-266.5 1563.5,-246.5 1420.5,-246.5"/>
<text text-anchor="middle" x="1492" y="-253.5" font-family="FreeSans" font-size="10.00" fill="#000000">phgeom/PHGeomUtility.h</text>
</g>
<!-- Node1&#45;&gt;Node27 -->
<g id="edge57" class="edge">
<title>Node1&#45;&gt;Node27</title>
<path fill="none" stroke="#191970" d="M1736.873,-313.5356C1677.7419,-299.7629 1597.6692,-281.1124 1545.4363,-268.9463"/>
<polygon fill="#191970" stroke="#191970" points="1545.9087,-265.4628 1535.3754,-266.603 1544.3207,-272.2803 1545.9087,-265.4628"/>
</g>
<!-- Node28 -->
<g id="node28" class="node">
<title>Node28</title>
<g id="a_node28"><a xlink:href="../../da/dc1/Fun4AllReturnCodes_8h.html" target="_top" xlink:title="fun4all/Fun4AllReturnCodes.h">
<polygon fill="none" stroke="#000000" points="1582,-246.5 1582,-266.5 1748,-266.5 1748,-246.5 1582,-246.5"/>
<text text-anchor="middle" x="1665" y="-253.5" font-family="FreeSans" font-size="10.00" fill="#000000">fun4all/Fun4AllReturnCodes.h</text>
</a>
</g>
</g>
<!-- Node1&#45;&gt;Node28 -->
<g id="edge58" class="edge">
<title>Node1&#45;&gt;Node28</title>
<path fill="none" stroke="#191970" d="M1770.101,-309.4032C1745.5742,-297.0575 1715.6916,-282.0159 1694.0687,-271.1319"/>
<polygon fill="#191970" stroke="#191970" points="1695.562,-267.9652 1685.0561,-266.5954 1692.4147,-274.2178 1695.562,-267.9652"/>
</g>
<!-- Node29 -->
<g id="node29" class="node">
<title>Node29</title>
<g id="a_node29"><a xlink:href="../../d8/d30/PHCompositeNode_8h.html" target="_top" xlink:title="phool/PHCompositeNode.h">
<polygon fill="none" stroke="#ff0000" points="3642.5,-246.5 3642.5,-266.5 3793.5,-266.5 3793.5,-246.5 3642.5,-246.5"/>
<text text-anchor="middle" x="3718" y="-253.5" font-family="FreeSans" font-size="10.00" fill="#000000">phool/PHCompositeNode.h</text>
</a>
</g>
</g>
<!-- Node1&#45;&gt;Node29 -->
<g id="edge60" class="edge">
<title>Node1&#45;&gt;Node29</title>
<path fill="none" stroke="#191970" d="M1891.083,-330.5463C2191.3879,-326.593 3283.3704,-309.9397 3628,-273 3638.5333,-271.871 3649.6861,-270.2105 3660.4208,-268.3721"/>
<polygon fill="#191970" stroke="#191970" points="3661.3204,-271.767 3670.551,-266.5664 3660.092,-264.8756 3661.3204,-271.767"/>
</g>
<!-- Node30 -->
<g id="node30" class="node">
<title>Node30</title>
<g id="a_node30"><a xlink:href="../../d3/d62/PHNode_8h.html" target="_top" xlink:title="PHNode.h">
<polygon fill="none" stroke="#ff0000" points="3581.5,-177.5 3581.5,-197.5 3646.5,-197.5 3646.5,-177.5 3581.5,-177.5"/>
<text text-anchor="middle" x="3614" y="-184.5" font-family="FreeSans" font-size="10.00" fill="#000000">PHNode.h</text>
</a>
</g>
</g>
<!-- Node1&#45;&gt;Node30 -->
<g id="edge66" class="edge">
<title>Node1&#45;&gt;Node30</title>
<path fill="none" stroke="#191970" d="M1891.2059,-331.1711C2221.603,-329.479 3502.9066,-319.9058 3574,-273 3596.1598,-258.3795 3606.2916,-228.0244 3610.7445,-207.7037"/>
<polygon fill="#191970" stroke="#191970" points="3614.234,-208.0898 3612.6744,-197.6104 3607.3586,-206.7751 3614.234,-208.0898"/>
</g>
<!-- Node31 -->
<g id="node31" class="node">
<title>Node31</title>
<g id="a_node31"><a xlink:href="../../d3/d79/PHIODataNode_8h.html" target="_top" xlink:title="phool/PHIODataNode.h">
<polygon fill="none" stroke="#ff0000" points="3431,-177.5 3431,-197.5 3563,-197.5 3563,-177.5 3431,-177.5"/>
<text text-anchor="middle" x="3497" y="-184.5" font-family="FreeSans" font-size="10.00" fill="#000000">phool/PHIODataNode.h</text>
</a>
</g>
</g>
<!-- Node1&#45;&gt;Node31 -->
<g id="edge64" class="edge">
<title>Node1&#45;&gt;Node31</title>
<path fill="none" stroke="#191970" d="M1891.1173,-330.3595C2224.6529,-325.2478 3527.6407,-303.3612 3557,-273 3577.9739,-251.3103 3546.3398,-221.698 3521.6214,-203.6235"/>
<polygon fill="#191970" stroke="#191970" points="3523.4567,-200.6353 3513.2641,-197.7433 3519.4286,-206.3602 3523.4567,-200.6353"/>
</g>
<!-- Node32 -->
<g id="node32" class="node">
<title>Node32</title>
<g id="a_node32"><a xlink:href="../../d8/dfd/PHNodeIterator_8h.html" target="_top" xlink:title="PHNodeIterator.h">
<polygon fill="none" stroke="#ff0000" points="3273,-177.5 3273,-197.5 3375,-197.5 3375,-177.5 3273,-177.5"/>
<text text-anchor="middle" x="3324" y="-184.5" font-family="FreeSans" font-size="10.00" fill="#000000">PHNodeIterator.h</text>
</a>
</g>
</g>
<!-- Node1&#45;&gt;Node32 -->
<g id="edge67" class="edge">
<title>Node1&#45;&gt;Node32</title>
<path fill="none" stroke="#191970" d="M1891.0126,-320.3656C1941.5379,-311.4097 2008.3139,-296.3912 2064,-273 2089.2361,-262.3995 2089.8867,-248.2055 2116,-240 2225.65,-205.5449 3031.8072,-191.6187 3262.4911,-188.3135"/>
<polygon fill="#191970" stroke="#191970" points="3262.7657,-191.8101 3272.7151,-188.1686 3262.6665,-184.8108 3262.7657,-191.8101"/>
</g>
<!-- Node33 -->
<g id="node33" class="node">
<title>Node33</title>
<g id="a_node33"><a xlink:href="../../dc/d26/PHTimer_8h.html" target="_top" xlink:title="high precision timer">
<polygon fill="none" stroke="#ff0000" points="1969.5,-177.5 1969.5,-197.5 2068.5,-197.5 2068.5,-177.5 1969.5,-177.5"/>
<text text-anchor="middle" x="2019" y="-184.5" font-family="FreeSans" font-size="10.00" fill="#000000">phool/PHTimer.h</text>
</a>
</g>
</g>
<!-- Node1&#45;&gt;Node33 -->
<g id="edge70" class="edge">
<title>Node1&#45;&gt;Node33</title>
<path fill="none" stroke="#191970" d="M1891.2386,-315.6181C1935.7207,-304.9351 1985.7592,-289.7738 2001,-273 2017.1166,-255.2623 2020.1962,-226.853 2020.1919,-207.7002"/>
<polygon fill="#191970" stroke="#191970" points="2023.6889,-207.541 2019.9083,-197.6436 2016.6917,-207.7384 2023.6889,-207.541"/>
</g>
<!-- Node34 -->
<g id="node34" class="node">
<title>Node34</title>
<g id="a_node34"><a xlink:href="../../dd/dd4/getClass_8h.html" target="_top" xlink:title="phool/getClass.h">
<polygon fill="none" stroke="#ff0000" points="3448,-246.5 3448,-266.5 3548,-266.5 3548,-246.5 3448,-246.5"/>
<text text-anchor="middle" x="3498" y="-253.5" font-family="FreeSans" font-size="10.00" fill="#000000">phool/getClass.h</text>
</a>
</g>
</g>
<!-- Node1&#45;&gt;Node34 -->
<g id="edge73" class="edge">
<title>Node1&#45;&gt;Node34</title>
<path fill="none" stroke="#191970" d="M1891.1684,-331.1396C2171.4582,-329.4544 3135.1241,-320.276 3439,-273 3444.9921,-272.0678 3451.2417,-270.7323 3457.3369,-269.2195"/>
<polygon fill="#191970" stroke="#191970" points="3458.6136,-272.5016 3467.3761,-266.546 3456.8122,-265.7374 3458.6136,-272.5016"/>
</g>
<!-- Node35 -->
<g id="node35" class="node">
<title>Node35</title>
<g id="a_node35"><a xlink:href="../../d5/d6f/phool_8h.html" target="_top" xlink:title="phool.h">
<polygon fill="none" stroke="#000000" points="0,-57.5 0,-77.5 54,-77.5 54,-57.5 0,-57.5"/>
<text text-anchor="middle" x="27" y="-64.5" font-family="FreeSans" font-size="10.00" fill="#000000">phool.h</text>
</a>
</g>
</g>
<!-- Node1&#45;&gt;Node35 -->
<g id="edge78" class="edge">
<title>Node1&#45;&gt;Node35</title>
<path fill="none" stroke="#191970" d="M1736.8791,-330.9992C1436.6031,-328.7347 354.939,-317.5345 208,-273 152.0474,-256.0418 135.5668,-247.0434 96,-204 63.6531,-168.8109 42.681,-115.6211 33.08,-87.1423"/>
<polygon fill="#191970" stroke="#191970" points="36.3749,-85.9564 29.9571,-77.5265 29.7172,-88.1187 36.3749,-85.9564"/>
</g>
<!-- Node36 -->
<g id="node36" class="node">
<title>Node36</title>
<polygon fill="none" stroke="#bfbfbf" points="2124.5,-246.5 2124.5,-266.5 2229.5,-266.5 2229.5,-246.5 2124.5,-246.5"/>
<text text-anchor="middle" x="2177" y="-253.5" font-family="FreeSans" font-size="10.00" fill="#000000">GenFit/FitStatus.h</text>
</g>
<!-- Node1&#45;&gt;Node36 -->
<g id="edge80" class="edge">
<title>Node1&#45;&gt;Node36</title>
<path fill="none" stroke="#191970" d="M1891.176,-317.2619C1951.0276,-305.975 2035.9752,-289.4207 2110,-273 2115.6941,-271.7369 2121.6458,-270.3574 2127.551,-268.9515"/>
<polygon fill="#191970" stroke="#191970" points="2128.4921,-272.325 2137.3918,-266.5765 2126.8497,-265.5204 2128.4921,-272.325"/>
</g>
<!-- Node37 -->
<g id="node37" class="node">
<title>Node37</title>
<polygon fill="none" stroke="#bfbfbf" points="2248,-246.5 2248,-266.5 2432,-266.5 2432,-246.5 2248,-246.5"/>
<text text-anchor="middle" x="2340" y="-253.5" font-family="FreeSans" font-size="10.00" fill="#000000">GenFit/GFRaveTrackParameters.h</text>
</g>
<!-- Node1&#45;&gt;Node37 -->
<g id="edge81" class="edge">
<title>Node1&#45;&gt;Node37</title>
<path fill="none" stroke="#191970" d="M1891.2484,-321.4606C1976.4785,-310.2456 2117.6597,-291.2596 2239,-273 2249.1189,-271.4773 2259.7967,-269.8046 2270.2699,-268.1265"/>
<polygon fill="#191970" stroke="#191970" points="2270.9088,-271.5688 2280.2236,-266.5206 2269.7938,-264.6581 2270.9088,-271.5688"/>
</g>
<!-- Node38 -->
<g id="node38" class="node">
<title>Node38</title>
<polygon fill="none" stroke="#bfbfbf" points="2450,-246.5 2450,-266.5 2582,-266.5 2582,-246.5 2450,-246.5"/>
<text text-anchor="middle" x="2516" y="-253.5" font-family="FreeSans" font-size="10.00" fill="#000000">GenFit/GFRaveVertex.h</text>
</g>
<!-- Node1&#45;&gt;Node38 -->
<g id="edge82" class="edge">
<title>Node1&#45;&gt;Node38</title>
<path fill="none" stroke="#191970" d="M1891.1128,-327.3804C2009.7941,-320.3484 2244.1339,-303.7189 2441,-273 2448.6876,-271.8004 2456.7678,-270.2903 2464.6621,-268.6736"/>
<polygon fill="#191970" stroke="#191970" points="2465.4619,-272.0819 2474.5186,-266.584 2464.0101,-265.2341 2465.4619,-272.0819"/>
</g>
<!-- Node39 -->
<g id="node39" class="node">
<title>Node39</title>
<polygon fill="none" stroke="#bfbfbf" points="2600,-246.5 2600,-266.5 2768,-266.5 2768,-246.5 2600,-246.5"/>
<text text-anchor="middle" x="2684" y="-253.5" font-family="FreeSans" font-size="10.00" fill="#000000">GenFit/GFRaveVertexFactory.h</text>
</g>
<!-- Node1&#45;&gt;Node39 -->
<g id="edge83" class="edge">
<title>Node1&#45;&gt;Node39</title>
<path fill="none" stroke="#191970" d="M1891.18,-328.2612C2031.1053,-321.818 2335.822,-305.1603 2591,-273 2601.3564,-271.6948 2612.3127,-270.0184 2622.9301,-268.2363"/>
<polygon fill="#191970" stroke="#191970" points="2623.7156,-271.6526 2632.9752,-266.5038 2622.5259,-264.7544 2623.7156,-271.6526"/>
</g>
<!-- Node40 -->
<g id="node40" class="node">
<title>Node40</title>
<polygon fill="none" stroke="#bfbfbf" points="2786.5,-240.5 2786.5,-272.5 2931.5,-272.5 2931.5,-240.5 2786.5,-240.5"/>
<text text-anchor="start" x="2794.5" y="-259.5" font-family="FreeSans" font-size="10.00" fill="#000000">GenFit/KalmanFittedState</text>
<text text-anchor="middle" x="2859" y="-247.5" font-family="FreeSans" font-size="10.00" fill="#000000">OnPlane.h</text>
</g>
<!-- Node1&#45;&gt;Node40 -->
<g id="edge84" class="edge">
<title>Node1&#45;&gt;Node40</title>
<path fill="none" stroke="#191970" d="M1891.1123,-330.4185C2053.2348,-327.3629 2441.3208,-315.9424 2775.8302,-273.0325"/>
<polygon fill="#191970" stroke="#191970" points="2776.7415,-276.4438 2786.2093,-271.6887 2775.8427,-269.5017 2776.7415,-276.4438"/>
</g>
<!-- Node41 -->
<g id="node41" class="node">
<title>Node41</title>
<polygon fill="none" stroke="#bfbfbf" points="2950,-246.5 2950,-266.5 3094,-266.5 3094,-246.5 2950,-246.5"/>
<text text-anchor="middle" x="3022" y="-253.5" font-family="FreeSans" font-size="10.00" fill="#000000">GenFit/KalmanFitterInfo.h</text>
</g>
<!-- Node1&#45;&gt;Node41 -->
<g id="edge85" class="edge">
<title>Node1&#45;&gt;Node41</title>
<path fill="none" stroke="#191970" d="M1891.1036,-328.9982C2110.7808,-321.6317 2737.1651,-298.9044 2941,-273 2950.096,-271.844 2959.6969,-270.2373 2968.9843,-268.4769"/>
<polygon fill="#191970" stroke="#191970" points="2969.7669,-271.89 2978.9002,-266.5203 2968.4118,-265.0224 2969.7669,-271.89"/>
</g>
<!-- Node42 -->
<g id="node42" class="node">
<title>Node42</title>
<polygon fill="none" stroke="#bfbfbf" points="3112.5,-246.5 3112.5,-266.5 3291.5,-266.5 3291.5,-246.5 3112.5,-246.5"/>
<text text-anchor="middle" x="3202" y="-253.5" font-family="FreeSans" font-size="10.00" fill="#000000">GenFit/MeasuredStateOnPlane.h</text>
</g>
<!-- Node1&#45;&gt;Node42 -->
<g id="edge86" class="edge">
<title>Node1&#45;&gt;Node42</title>
<path fill="none" stroke="#191970" d="M1891.2264,-329.2115C2131.8154,-321.8901 2865.8834,-298.0493 3103,-273 3114.71,-271.7629 3127.1364,-270.0292 3139.085,-268.1472"/>
<polygon fill="#191970" stroke="#191970" points="3139.6738,-271.5975 3148.9831,-266.5391 3138.5512,-264.6881 3139.6738,-271.5975"/>
</g>
<!-- Node43 -->
<g id="node43" class="node">
<title>Node43</title>
<polygon fill="none" stroke="#bfbfbf" points="3310,-246.5 3310,-266.5 3430,-266.5 3430,-246.5 3310,-246.5"/>
<text text-anchor="middle" x="3370" y="-253.5" font-family="FreeSans" font-size="10.00" fill="#000000">GenFit/RKTrackRep.h</text>
</g>
<!-- Node1&#45;&gt;Node43 -->
<g id="edge87" class="edge">
<title>Node1&#45;&gt;Node43</title>
<path fill="none" stroke="#191970" d="M1891.3211,-330.4532C2156.0048,-326.5574 3024.5871,-311.1134 3301,-273 3308.4658,-271.9706 3316.3045,-270.4906 3323.9114,-268.8344"/>
<polygon fill="#191970" stroke="#191970" points="3324.7651,-272.2295 3333.727,-266.5785 3323.1971,-265.4073 3324.7651,-272.2295"/>
</g>
<!-- Node44 -->
<g id="node44" class="node">
<title>Node44</title>
<g id="a_node44"><a xlink:href="../../d3/de0/Track_8h.html" target="_top" xlink:title="tools">
<polygon fill="none" stroke="#000000" points="1015.5,-246.5 1015.5,-266.5 1102.5,-266.5 1102.5,-246.5 1015.5,-246.5"/>
<text text-anchor="middle" x="1059" y="-253.5" font-family="FreeSans" font-size="10.00" fill="#000000">GenFit/Track.h</text>
</a>
</g>
</g>
<!-- Node1&#45;&gt;Node44 -->
<g id="edge88" class="edge">
<title>Node1&#45;&gt;Node44</title>
<path fill="none" stroke="#191970" d="M1736.781,-329.8855C1607.5333,-326.1002 1339.645,-313.6176 1117,-273 1111.4643,-271.9901 1105.6963,-270.6769 1100.0376,-269.2323"/>
<polygon fill="#191970" stroke="#191970" points="1100.6109,-265.7616 1090.0437,-266.5272 1098.7819,-272.5184 1100.6109,-265.7616"/>
</g>
<!-- Node45 -->
<g id="node45" class="node">
<title>Node45</title>
<polygon fill="none" stroke="#bfbfbf" points="1221,-177.5 1221,-197.5 1333,-197.5 1333,-177.5 1221,-177.5"/>
<text text-anchor="middle" x="1277" y="-184.5" font-family="FreeSans" font-size="10.00" fill="#000000">TMatrixDSymfwd.h</text>
</g>
<!-- Node1&#45;&gt;Node45 -->
<g id="edge97" class="edge">
<title>Node1&#45;&gt;Node45</title>
<path fill="none" stroke="#191970" d="M1736.7541,-328.7252C1539.4501,-321.2647 1030.6817,-299.5332 1006,-273 899.9072,-158.9482 832.9523,-281.5215 1207,-204 1213.178,-202.7196 1219.6443,-201.3018 1226.0446,-199.8508"/>
<polygon fill="#191970" stroke="#191970" points="1227.0377,-203.2137 1235.9967,-197.5581 1225.4662,-196.3924 1227.0377,-203.2137"/>
</g>
<!-- Node46 -->
<g id="node46" class="node">
<title>Node46</title>
<polygon fill="none" stroke="#bfbfbf" points="1465.5,-177.5 1465.5,-197.5 1536.5,-197.5 1536.5,-177.5 1465.5,-177.5"/>
<text text-anchor="middle" x="1501" y="-184.5" font-family="FreeSans" font-size="10.00" fill="#000000">TVector3.h</text>
</g>
<!-- Node1&#45;&gt;Node46 -->
<g id="edge100" class="edge">
<title>Node1&#45;&gt;Node46</title>
<path fill="none" stroke="#191970" d="M1806.2917,-309.1902C1797.7099,-287.8681 1781.7049,-256.589 1757,-240 1678.0207,-186.9666 1637.9302,-228.4768 1546,-204 1542.6002,-203.0948 1539.0959,-202.0385 1535.6143,-200.9057"/>
<polygon fill="#191970" stroke="#191970" points="1536.5633,-197.5306 1525.9685,-197.5727 1534.2771,-204.1468 1536.5633,-197.5306"/>
</g>
<!-- Node47 -->
<g id="node47" class="node">
<title>Node47</title>
<polygon fill="none" stroke="#bfbfbf" points="1555,-177.5 1555,-197.5 1613,-197.5 1613,-177.5 1555,-177.5"/>
<text text-anchor="middle" x="1584" y="-184.5" font-family="FreeSans" font-size="10.00" fill="#000000">memory</text>
</g>
<!-- Node1&#45;&gt;Node47 -->
<g id="edge103" class="edge">
<title>Node1&#45;&gt;Node47</title>
<path fill="none" stroke="#191970" d="M1814.3643,-309.4465C1813.462,-288.6243 1808.7036,-257.9854 1790,-240 1736.5228,-188.5764 1698.0523,-225.3486 1627,-204 1624.0326,-203.1084 1620.9783,-202.1087 1617.9314,-201.054"/>
<polygon fill="#191970" stroke="#191970" points="1618.934,-197.6943 1608.34,-197.563 1616.5399,-204.2722 1618.934,-197.6943"/>
</g>
<!-- Node48 -->
<g id="node48" class="node">
<title>Node48</title>
<polygon fill="none" stroke="#bfbfbf" points="3811.5,-246.5 3811.5,-266.5 3924.5,-266.5 3924.5,-246.5 3811.5,-246.5"/>
<text text-anchor="middle" x="3868" y="-253.5" font-family="FreeSans" font-size="10.00" fill="#000000">GenFit/TrackPoint.h</text>
</g>
<!-- Node1&#45;&gt;Node48 -->
<g id="edge96" class="edge">
<title>Node1&#45;&gt;Node48</title>
<path fill="none" stroke="#191970" d="M1891.0571,-330.2331C2233.8125,-324.4625 3611.5142,-299.7891 3803,-273 3809.8948,-272.0354 3817.115,-270.6212 3824.1324,-269.02"/>
<polygon fill="#191970" stroke="#191970" points="3825.3169,-272.3341 3834.2072,-266.571 3823.6634,-265.5322 3825.3169,-272.3341"/>
</g>
<!-- Node49 -->
<g id="node49" class="node">
<title>Node49</title>
<polygon fill="none" stroke="#bfbfbf" points="3942.5,-246.5 3942.5,-266.5 4035.5,-266.5 4035.5,-246.5 3942.5,-246.5"/>
<text text-anchor="middle" x="3989" y="-253.5" font-family="FreeSans" font-size="10.00" fill="#000000">TMatrixTSym.h</text>
</g>
<!-- Node1&#45;&gt;Node49 -->
<g id="edge98" class="edge">
<title>Node1&#45;&gt;Node49</title>
<path fill="none" stroke="#191970" d="M1891.0339,-330.5778C2247.6515,-326.1463 3729.5764,-305.8895 3934,-273 3939.5364,-272.1093 3945.2952,-270.8133 3950.9113,-269.3333"/>
<polygon fill="#191970" stroke="#191970" points="3952.1301,-272.6254 3960.7876,-266.5181 3950.2111,-265.8935 3952.1301,-272.6254"/>
</g>
<!-- Node50 -->
<g id="node50" class="node">
<title>Node50</title>
<polygon fill="none" stroke="#bfbfbf" points="4053.5,-246.5 4053.5,-266.5 4146.5,-266.5 4146.5,-246.5 4053.5,-246.5"/>
<text text-anchor="middle" x="4100" y="-253.5" font-family="FreeSans" font-size="10.00" fill="#000000">TMatrixTUtils.h</text>
</g>
<!-- Node1&#45;&gt;Node50 -->
<g id="edge99" class="edge">
<title>Node1&#45;&gt;Node50</title>
<path fill="none" stroke="#191970" d="M1891.0463,-330.6914C2259.0692,-326.6656 3829.0802,-307.5872 4045,-273 4050.537,-272.1131 4056.2961,-270.8193 4061.9125,-269.3402"/>
<polygon fill="#191970" stroke="#191970" points="4063.1309,-272.6324 4071.7888,-266.5258 4061.2124,-265.9004 4063.1309,-272.6324"/>
</g>
<!-- Node2&#45;&gt;Node3 -->
<g id="edge2" class="edge">
<title>Node2&#45;&gt;Node3</title>
<path fill="none" stroke="#191970" d="M1966.972,-246.4668C2004.2793,-234.3814 2067.0624,-214.0432 2108.2653,-200.6958"/>
<polygon fill="#191970" stroke="#191970" points="2109.5559,-203.9568 2117.9906,-197.5453 2107.3987,-197.2975 2109.5559,-203.9568"/>
</g>
<!-- Node4 -->
<g id="node4" class="node">
<title>Node4</title>
<polygon fill="none" stroke="#bfbfbf" points="3340.5,-114.5 3340.5,-134.5 3385.5,-134.5 3385.5,-114.5 3340.5,-114.5"/>
<text text-anchor="middle" x="3363" y="-121.5" font-family="FreeSans" font-size="10.00" fill="#000000">string</text>
</g>
<!-- Node2&#45;&gt;Node4 -->
<g id="edge5" class="edge">
<title>Node2&#45;&gt;Node4</title>
<path fill="none" stroke="#191970" d="M1935.3748,-246.2779C1934.8742,-227.823 1936.8298,-189.1739 1960,-171 1987.86,-149.1476 3121.949,-128.6399 3330.295,-125.053"/>
<polygon fill="#191970" stroke="#191970" points="3330.3737,-128.5522 3340.3123,-124.8813 3330.2537,-121.5533 3330.3737,-128.5522"/>
</g>
<!-- Node2&#45;&gt;Node5 -->
<g id="edge4" class="edge">
<title>Node2&#45;&gt;Node5</title>
<path fill="none" stroke="#191970" d="M1879.6207,-250.6287C1844.4037,-247.1286 1798.0974,-242.8302 1757,-240 1669.4495,-233.9708 1045.3053,-245.5372 968,-204 955.2752,-197.1628 934.054,-164.67 921.1133,-143.3987"/>
<polygon fill="#191970" stroke="#191970" points="923.9523,-141.327 915.8106,-134.5474 917.9475,-144.9245 923.9523,-141.327"/>
</g>
<!-- Node2&#45;&gt;Node6 -->
<g id="edge6" class="edge">
<title>Node2&#45;&gt;Node6</title>
<path fill="none" stroke="#191970" d="M1920.8896,-246.335C1883.4726,-221.458 1783.0161,-156.4524 1693,-114 1662.628,-99.6763 1626.5548,-86.8442 1600.6294,-78.3074"/>
<polygon fill="#191970" stroke="#191970" points="1601.4708,-74.9008 1590.8787,-75.1415 1599.309,-81.5586 1601.4708,-74.9008"/>
</g>
<!-- Node3&#45;&gt;Node4 -->
<g id="edge3" class="edge">
<title>Node3&#45;&gt;Node4</title>
<path fill="none" stroke="#191970" d="M2211.2919,-184.2674C2430.987,-172.8664 3165.3001,-134.7595 3330.0176,-126.2116"/>
<polygon fill="#191970" stroke="#191970" points="3330.6514,-129.6835 3340.4565,-125.6699 3330.2885,-122.6929 3330.6514,-129.6835"/>
</g>
<!-- Node7&#45;&gt;Node5 -->
<g id="edge18" class="edge">
<title>Node7&#45;&gt;Node5</title>
<path fill="none" stroke="#191970" d="M731.0405,-172.8882C777.6127,-160.2957 843.0919,-142.591 880.5709,-132.4572"/>
<polygon fill="#191970" stroke="#191970" points="881.6206,-135.7992 890.3604,-129.8103 879.7935,-129.0418 881.6206,-135.7992"/>
</g>
<!-- Node7&#45;&gt;Node8 -->
<g id="edge8" class="edge">
<title>Node7&#45;&gt;Node8</title>
<path fill="none" stroke="#191970" d="M656.398,-171.2759C644.6259,-162.0054 629.8961,-150.4056 618.05,-141.0769"/>
<polygon fill="#191970" stroke="#191970" points="620.0393,-138.1885 610.0175,-134.7513 615.7085,-143.6879 620.0393,-138.1885"/>
</g>
<!-- Node7&#45;&gt;Node9 -->
<g id="edge14" class="edge">
<title>Node7&#45;&gt;Node9</title>
<path fill="none" stroke="#191970" d="M676.5889,-171.3391C675.3098,-154.8549 670.843,-129.553 656,-114 644.0057,-101.432 605.117,-88.9566 571.6673,-80.0966"/>
<polygon fill="#191970" stroke="#191970" points="572.5096,-76.6993 561.9516,-77.5818 570.7556,-83.476 572.5096,-76.6993"/>
</g>
<!-- Node7&#45;&gt;Node10 -->
<g id="edge17" class="edge">
<title>Node7&#45;&gt;Node10</title>
<path fill="none" stroke="#191970" d="M729.9661,-171.4063C760.265,-161.1296 794.1595,-147.4453 804,-135 827.7615,-104.9487 828.3826,-57.8042 826.3968,-30.9792"/>
<polygon fill="#191970" stroke="#191970" points="829.8641,-30.4655 825.446,-20.8358 822.8946,-31.1189 829.8641,-30.4655"/>
</g>
<!-- Node11 -->
<g id="node11" class="node">
<title>Node11</title>
<polygon fill="none" stroke="#bfbfbf" points="588,-57.5 588,-77.5 636,-77.5 636,-57.5 588,-57.5"/>
<text text-anchor="middle" x="612" y="-64.5" font-family="FreeSans" font-size="10.00" fill="#000000">cmath</text>
</g>
<!-- Node7&#45;&gt;Node11 -->
<g id="edge16" class="edge">
<title>Node7&#45;&gt;Node11</title>
<path fill="none" stroke="#191970" d="M685.7027,-171.26C692.7907,-155.6277 700.1129,-131.8025 690,-114 680.4311,-97.1552 662.0765,-85.7676 645.5755,-78.4795"/>
<polygon fill="#191970" stroke="#191970" points="646.7365,-75.1735 636.1545,-74.6518 644.1016,-81.6586 646.7365,-75.1735"/>
</g>
<!-- Node12 -->
<g id="node12" class="node">
<title>Node12</title>
<g id="a_node12"><a xlink:href="../../d8/d00/TrkrDefs_8h.html" target="_top" xlink:title="Namespace with Trkr key types and utility functions.">
<polygon fill="none" stroke="#ff0000" points="1024,-114.5 1024,-134.5 1144,-134.5 1144,-114.5 1024,-114.5"/>
<text text-anchor="middle" x="1084" y="-121.5" font-family="FreeSans" font-size="10.00" fill="#000000">trackbase/TrkrDefs.h</text>
</a>
</g>
</g>
<!-- Node7&#45;&gt;Node12 -->
<g id="edge12" class="edge">
<title>Node7&#45;&gt;Node12</title>
<path fill="none" stroke="#191970" d="M731.0465,-179.1341C803.8317,-167.8676 933.4657,-147.8014 1013.7417,-135.3754"/>
<polygon fill="#191970" stroke="#191970" points="1014.4158,-138.8128 1023.7627,-133.8242 1013.345,-131.8952 1014.4158,-138.8128"/>
</g>
<!-- Node13 -->
<g id="node13" class="node">
<title>Node13</title>
<polygon fill="none" stroke="#bfbfbf" points="742.5,-114.5 742.5,-134.5 795.5,-134.5 795.5,-114.5 742.5,-114.5"/>
<text text-anchor="middle" x="769" y="-121.5" font-family="FreeSans" font-size="10.00" fill="#000000">limits.h</text>
</g>
<!-- Node7&#45;&gt;Node13 -->
<g id="edge15" class="edge">
<title>Node7&#45;&gt;Node13</title>
<path fill="none" stroke="#191970" d="M700.6923,-171.2759C714.5805,-161.7655 732.0482,-149.8039 745.8429,-140.3576"/>
<polygon fill="#191970" stroke="#191970" points="748.0297,-143.1021 754.3031,-134.5642 744.0747,-137.3265 748.0297,-143.1021"/>
</g>
<!-- Node14 -->
<g id="node14" class="node">
<title>Node14</title>
<polygon fill="none" stroke="#bfbfbf" points="200,-57.5 200,-77.5 232,-77.5 232,-57.5 200,-57.5"/>
<text text-anchor="middle" x="216" y="-64.5" font-family="FreeSans" font-size="10.00" fill="#000000">set</text>
</g>
<!-- Node7&#45;&gt;Node14 -->
<g id="edge19" class="edge">
<title>Node7&#45;&gt;Node14</title>
<path fill="none" stroke="#191970" d="M622.9472,-182.2504C511.2443,-171.2132 264.0709,-145.738 249,-135 233.2905,-123.807 224.7188,-103.0226 220.2806,-87.4623"/>
<polygon fill="#191970" stroke="#191970" points="223.661,-86.5532 217.8314,-77.7064 216.8717,-88.2577 223.661,-86.5532"/>
</g>
<!-- Node8&#45;&gt;Node9 -->
<g id="edge9" class="edge">
<title>Node8&#45;&gt;Node9</title>
<path fill="none" stroke="#191970" d="M582.8764,-114.3095C571.0807,-105.7987 554.0492,-93.5102 540.3963,-83.6594"/>
<polygon fill="#191970" stroke="#191970" points="542.1588,-80.6151 532.0013,-77.6022 538.0629,-86.2918 542.1588,-80.6151"/>
</g>
<!-- Node8&#45;&gt;Node11 -->
<g id="edge11" class="edge">
<title>Node8&#45;&gt;Node11</title>
<path fill="none" stroke="#191970" d="M599.6817,-114.3095C601.6441,-106.8524 604.3697,-96.4951 606.7583,-87.4186"/>
<polygon fill="#191970" stroke="#191970" points="610.1813,-88.1637 609.3415,-77.6022 603.4117,-86.3822 610.1813,-88.1637"/>
</g>
<!-- Node9&#45;&gt;Node10 -->
<g id="edge10" class="edge">
<title>Node9&#45;&gt;Node10</title>
<path fill="none" stroke="#191970" d="M570.2556,-57.7661C630.7123,-46.5046 728.9474,-28.2059 783.7656,-17.9946"/>
<polygon fill="#191970" stroke="#191970" points="784.6119,-21.3973 793.8018,-16.1252 783.3299,-14.5157 784.6119,-21.3973"/>
</g>
<!-- Node12&#45;&gt;Node10 -->
<g id="edge13" class="edge">
<title>Node12&#45;&gt;Node10</title>
<path fill="none" stroke="#191970" d="M1075.5999,-114.0962C1062.9627,-99.154 1037.5843,-71.7925 1010,-57 963.5501,-32.0906 903.3986,-20.2055 864.2679,-14.7628"/>
<polygon fill="#191970" stroke="#191970" points="864.6768,-11.2865 854.3059,-13.4533 863.7644,-18.2268 864.6768,-11.2865"/>
</g>
<!-- Node15&#45;&gt;Node5 -->
<g id="edge24" class="edge">
<title>Node15&#45;&gt;Node5</title>
<path fill="none" stroke="#191970" d="M777.5156,-240.3142C806.1864,-215.2509 861.0688,-167.2743 890.3906,-141.642"/>
<polygon fill="#191970" stroke="#191970" points="893.0516,-143.9646 898.2769,-134.748 888.4445,-138.6944 893.0516,-143.9646"/>
</g>
<!-- Node15&#45;&gt;Node7 -->
<g id="edge21" class="edge">
<title>Node15&#45;&gt;Node7</title>
<path fill="none" stroke="#191970" d="M739.9814,-240.4966C729.2949,-231.5042 715.7796,-220.1317 704.0114,-210.2291"/>
<polygon fill="#191970" stroke="#191970" points="706.1045,-207.4161 696.1995,-203.6557 701.5975,-212.7722 706.1045,-207.4161"/>
</g>
<!-- Node15&#45;&gt;Node9 -->
<g id="edge22" class="edge">
<title>Node15&#45;&gt;Node9</title>
<path fill="none" stroke="#191970" d="M704.793,-242.2934C676.5577,-233.5791 642.1465,-220.8345 614,-204 574.5633,-180.4129 561.3024,-174 537,-135 528.0586,-120.651 523.2269,-102.0059 520.6773,-87.9484"/>
<polygon fill="#191970" stroke="#191970" points="524.0969,-87.1633 519.0869,-77.8279 517.1818,-88.2501 524.0969,-87.1633"/>
</g>
<!-- Node15&#45;&gt;Node10 -->
<g id="edge23" class="edge">
<title>Node15&#45;&gt;Node10</title>
<path fill="none" stroke="#191970" d="M770.4563,-240.301C790.8424,-210.1313 832.1151,-142.5281 841,-78 842.2731,-68.7539 842.6273,-66.1904 841,-57 839.3772,-47.8352 836.0858,-38.1042 832.8277,-29.9256"/>
<polygon fill="#191970" stroke="#191970" points="835.9785,-28.3908 828.8466,-20.5557 829.5359,-31.1281 835.9785,-28.3908"/>
</g>
<!-- Node16&#45;&gt;Node5 -->
<g id="edge36" class="edge">
<title>Node16&#45;&gt;Node5</title>
<path fill="none" stroke="#191970" d="M491.2591,-180.2731C591.379,-166.9379 802.0622,-138.8765 880.0977,-128.4828"/>
<polygon fill="#191970" stroke="#191970" points="880.7528,-131.9265 890.2031,-127.1368 879.8286,-124.9878 880.7528,-131.9265"/>
</g>
<!-- Node16&#45;&gt;Node9 -->
<g id="edge34" class="edge">
<title>Node16&#45;&gt;Node9</title>
<path fill="none" stroke="#191970" d="M441.0488,-171.2518C445.4676,-155.6134 453.6105,-131.7838 466,-114 473.8965,-102.6655 485.0794,-92.2001 495.0525,-84.0795"/>
<polygon fill="#191970" stroke="#191970" points="497.3156,-86.7531 503.0467,-77.8421 493.0096,-81.2342 497.3156,-86.7531"/>
</g>
<!-- Node16&#45;&gt;Node10 -->
<g id="edge35" class="edge">
<title>Node16&#45;&gt;Node10</title>
<path fill="none" stroke="#191970" d="M433.9507,-171.1337C429.8173,-143.3546 426.1359,-87.0707 457,-57 480.1202,-34.4742 693.262,-18.6507 783.7141,-12.8947"/>
<polygon fill="#191970" stroke="#191970" points="784.1003,-16.3775 793.8617,-12.2586 783.6623,-9.3912 784.1003,-16.3775"/>
</g>
<!-- Node16&#45;&gt;Node17 -->
<g id="edge27" class="edge">
<title>Node16&#45;&gt;Node17</title>
<path fill="none" stroke="#191970" d="M401.5648,-171.4394C379.3838,-161.3862 351.0528,-148.5455 329.6312,-138.8364"/>
<polygon fill="#191970" stroke="#191970" points="330.8749,-135.5575 320.3219,-134.6171 327.9852,-141.9332 330.8749,-135.5575"/>
</g>
<!-- Node17&#45;&gt;Node6 -->
<g id="edge33" class="edge">
<title>Node17&#45;&gt;Node6</title>
<path fill="none" stroke="#191970" d="M338.043,-122.7C529.6676,-114.0859 1351.1796,-77.1568 1531.0914,-69.0692"/>
<polygon fill="#191970" stroke="#191970" points="1531.4705,-72.5558 1541.3032,-68.6102 1531.1561,-65.5629 1531.4705,-72.5558"/>
</g>
<!-- Node17&#45;&gt;Node9 -->
<g id="edge28" class="edge">
<title>Node17&#45;&gt;Node9</title>
<path fill="none" stroke="#191970" d="M336.8252,-114.4408C373.7834,-104.8652 429.5272,-90.4225 469.4153,-80.0879"/>
<polygon fill="#191970" stroke="#191970" points="470.3911,-83.4507 479.1936,-77.5544 468.6354,-76.6744 470.3911,-83.4507"/>
</g>
<!-- Node17&#45;&gt;Node10 -->
<g id="edge30" class="edge">
<title>Node17&#45;&gt;Node10</title>
<path fill="none" stroke="#191970" d="M302.7801,-114.3592C310.6391,-98.9622 327.8609,-70.0974 352,-57 389.56,-36.6208 676.5648,-18.7165 783.7736,-12.6735"/>
<polygon fill="#191970" stroke="#191970" points="784.0804,-16.1619 793.8696,-12.1096 783.69,-9.1728 784.0804,-16.1619"/>
</g>
<!-- Node17&#45;&gt;Node11 -->
<g id="edge29" class="edge">
<title>Node17&#45;&gt;Node11</title>
<path fill="none" stroke="#191970" d="M338.3835,-119.6772C391.368,-112.943 487.3336,-99.3503 578.0673,-77.9588"/>
<polygon fill="#191970" stroke="#191970" points="579.0525,-81.3219 587.9624,-75.5893 577.4223,-74.5144 579.0525,-81.3219"/>
</g>
<!-- Node17&#45;&gt;Node14 -->
<g id="edge32" class="edge">
<title>Node17&#45;&gt;Node14</title>
<path fill="none" stroke="#191970" d="M283.34,-114.3095C270.9798,-105.7177 253.0809,-93.2758 238.8429,-83.3786"/>
<polygon fill="#191970" stroke="#191970" points="240.7419,-80.4361 230.533,-77.6022 236.7464,-86.1839 240.7419,-80.4361"/>
</g>
<!-- Node18 -->
<g id="node18" class="node">
<title>Node18</title>
<polygon fill="none" stroke="#bfbfbf" points="250.5,-57.5 250.5,-77.5 299.5,-77.5 299.5,-57.5 250.5,-57.5"/>
<text text-anchor="middle" x="275" y="-64.5" font-family="FreeSans" font-size="10.00" fill="#000000">climits</text>
</g>
<!-- Node17&#45;&gt;Node18 -->
<g id="edge31" class="edge">
<title>Node17&#45;&gt;Node18</title>
<path fill="none" stroke="#191970" d="M293.8881,-114.3095C290.8463,-106.7714 286.6088,-96.2696 282.9181,-87.123"/>
<polygon fill="#191970" stroke="#191970" points="286.0641,-85.566 279.0763,-77.6022 279.5726,-88.1854 286.0641,-85.566"/>
</g>
<!-- Node19&#45;&gt;Node5 -->
<g id="edge42" class="edge">
<title>Node19&#45;&gt;Node5</title>
<path fill="none" stroke="#191970" d="M441.6908,-252.9988C514.3455,-247.6266 638.0517,-234.5473 740,-204 768.0275,-195.602 840.4023,-159.8577 881.104,-139.2713"/>
<polygon fill="#191970" stroke="#191970" points="882.909,-142.2803 890.2431,-134.6343 879.7417,-136.0378 882.909,-142.2803"/>
</g>
<!-- Node19&#45;&gt;Node10 -->
<g id="edge41" class="edge">
<title>Node19&#45;&gt;Node10</title>
<path fill="none" stroke="#191970" d="M375.8097,-240.4492C371.9684,-223.0439 367.7475,-194.589 374,-171 388.9432,-114.6229 390.4197,-89.2743 439,-57 467.315,-38.189 690.5814,-20.117 783.5693,-13.3262"/>
<polygon fill="#191970" stroke="#191970" points="783.9999,-16.8042 793.7213,-12.5919 783.4948,-9.8225 783.9999,-16.8042"/>
</g>
<!-- Node19&#45;&gt;Node16 -->
<g id="edge39" class="edge">
<title>Node19&#45;&gt;Node16</title>
<path fill="none" stroke="#191970" d="M393.2202,-240.4966C400.2407,-231.9981 409.0173,-221.3738 416.8654,-211.8735"/>
<polygon fill="#191970" stroke="#191970" points="419.7852,-213.8345 423.4557,-203.8958 414.3884,-209.3763 419.7852,-213.8345"/>
</g>
<!-- Node19&#45;&gt;Node17 -->
<g id="edge38" class="edge">
<title>Node19&#45;&gt;Node17</title>
<path fill="none" stroke="#191970" d="M367.083,-240.3764C359.1717,-230.2025 349.0545,-216.6394 341,-204 328.2901,-184.0553 315.6413,-160.0389 307.3871,-143.6585"/>
<polygon fill="#191970" stroke="#191970" points="310.4434,-141.9439 302.8544,-134.5508 304.1766,-145.0628 310.4434,-141.9439"/>
</g>
<!-- Node20 -->
<g id="node20" class="node">
<title>Node20</title>
<polygon fill="none" stroke="#bfbfbf" points="148,-114.5 148,-134.5 202,-134.5 202,-114.5 148,-114.5"/>
<text text-anchor="middle" x="175" y="-121.5" font-family="FreeSans" font-size="10.00" fill="#000000">cstddef</text>
</g>
<!-- Node19&#45;&gt;Node20 -->
<g id="edge40" class="edge">
<title>Node19&#45;&gt;Node20</title>
<path fill="none" stroke="#191970" d="M354.863,-240.3142C315.1717,-214.7569 238.4787,-165.3741 199.3091,-140.1527"/>
<polygon fill="#191970" stroke="#191970" points="200.9531,-137.0485 190.6504,-134.5774 197.1634,-142.9339 200.9531,-137.0485"/>
</g>
<!-- Node21&#45;&gt;Node10 -->
<g id="edge47" class="edge">
<title>Node21&#45;&gt;Node10</title>
<path fill="none" stroke="#191970" d="M145.465,-171.2873C134.6763,-156.2908 122.6505,-133.4487 131,-114 145.5101,-80.2014 157.3635,-71.882 191,-57 245.0233,-33.0982 652.7063,-16.6115 783.6439,-11.8887"/>
<polygon fill="#191970" stroke="#191970" points="783.7917,-15.3857 793.6603,-11.531 783.5417,-8.3902 783.7917,-15.3857"/>
</g>
<!-- Node21&#45;&gt;Node14 -->
<g id="edge48" class="edge">
<title>Node21&#45;&gt;Node14</title>
<path fill="none" stroke="#191970" d="M147.9368,-171.4335C138.7564,-155.9298 128.7313,-132.1971 139,-114 149.8931,-94.6963 172.3764,-82.504 190.2496,-75.4713"/>
<polygon fill="#191970" stroke="#191970" points="191.645,-78.6886 199.8594,-71.9973 189.2651,-72.1056 191.645,-78.6886"/>
</g>
<!-- Node21&#45;&gt;Node17 -->
<g id="edge45" class="edge">
<title>Node21&#45;&gt;Node17</title>
<path fill="none" stroke="#191970" d="M194.4352,-171.4394C216.6162,-161.3862 244.9472,-148.5455 266.3688,-138.8364"/>
<polygon fill="#191970" stroke="#191970" points="268.0148,-141.9332 275.6781,-134.6171 265.1251,-135.5575 268.0148,-141.9332"/>
</g>
<!-- Node21&#45;&gt;Node20 -->
<g id="edge46" class="edge">
<title>Node21&#45;&gt;Node20</title>
<path fill="none" stroke="#191970" d="M163.1204,-171.2759C165.1777,-163.1754 167.6866,-153.2966 169.8677,-144.7084"/>
<polygon fill="#191970" stroke="#191970" points="173.3272,-145.3051 172.3965,-134.7513 166.5426,-143.582 173.3272,-145.3051"/>
</g>
<!-- Node22&#45;&gt;Node5 -->
<g id="edge53" class="edge">
<title>Node22&#45;&gt;Node5</title>
<path fill="none" stroke="#191970" d="M1045.1326,-177.378C1016.2229,-166.0655 969.5143,-147.7882 939.2846,-135.9592"/>
<polygon fill="#191970" stroke="#191970" points="940.3019,-132.5989 929.7141,-132.2142 937.7511,-139.1176 940.3019,-132.5989"/>
</g>
<!-- Node22&#45;&gt;Node9 -->
<g id="edge50" class="edge">
<title>Node22&#45;&gt;Node9</title>
<path fill="none" stroke="#191970" d="M1053.7809,-177.4739C1020.6572,-158.263 950.246,-117.8204 938,-114 788.0599,-67.223 739.8659,-98.2799 580.3724,-78.0732"/>
<polygon fill="#191970" stroke="#191970" points="580.5772,-74.5701 570.206,-76.7354 579.6639,-81.5103 580.5772,-74.5701"/>
</g>
<!-- Node22&#45;&gt;Node10 -->
<g id="edge51" class="edge">
<title>Node22&#45;&gt;Node10</title>
<path fill="none" stroke="#191970" d="M1057.638,-177.3923C1038.7,-163.1096 1002.9128,-136.2774 972,-114 928.2006,-82.4358 876.3655,-46.5087 847.1193,-26.3675"/>
<polygon fill="#191970" stroke="#191970" points="849.0245,-23.4299 838.802,-20.6459 845.0572,-29.1971 849.0245,-23.4299"/>
</g>
<!-- Node23 -->
<g id="node23" class="node">
<title>Node23</title>
<polygon fill="none" stroke="#bfbfbf" points="1162,-114.5 1162,-134.5 1216,-134.5 1216,-114.5 1162,-114.5"/>
<text text-anchor="middle" x="1189" y="-121.5" font-family="FreeSans" font-size="10.00" fill="#000000">iterator</text>
</g>
<!-- Node22&#45;&gt;Node23 -->
<g id="edge52" class="edge">
<title>Node22&#45;&gt;Node23</title>
<path fill="none" stroke="#191970" d="M1089.9587,-177.378C1109.2263,-167.091 1139.2811,-151.0448 1161.232,-139.3253"/>
<polygon fill="#191970" stroke="#191970" points="1162.9153,-142.3943 1170.0883,-134.5969 1159.6184,-136.2192 1162.9153,-142.3943"/>
</g>
<!-- Node22&#45;&gt;Node24 -->
<g id="edge54" class="edge">
<title>Node22&#45;&gt;Node24</title>
<path fill="none" stroke="#191970" d="M1100.8841,-177.378C1134.7185,-165.9179 1189.6556,-147.3102 1224.5249,-135.4996"/>
<polygon fill="#191970" stroke="#191970" points="1225.8761,-138.7373 1234.2248,-132.2142 1223.6305,-132.1073 1225.8761,-138.7373"/>
</g>
<!-- Node29&#45;&gt;Node4 -->
<g id="edge63" class="edge">
<title>Node29&#45;&gt;Node4</title>
<path fill="none" stroke="#191970" d="M3713.8116,-246.3055C3705.6705,-227.8956 3685.8493,-189.3168 3656,-171 3612.7682,-144.4711 3462.6174,-131.2382 3395.6629,-126.5457"/>
<polygon fill="#191970" stroke="#191970" points="3395.8751,-123.0522 3385.6606,-125.8652 3395.3999,-130.036 3395.8751,-123.0522"/>
</g>
<!-- Node29&#45;&gt;Node30 -->
<g id="edge61" class="edge">
<title>Node29&#45;&gt;Node30</title>
<path fill="none" stroke="#191970" d="M3702.6544,-246.3188C3685.603,-235.0058 3657.8528,-216.5946 3637.9397,-203.3831"/>
<polygon fill="#191970" stroke="#191970" points="3639.6763,-200.335 3629.4085,-197.723 3635.8064,-206.168 3639.6763,-200.335"/>
</g>
<!-- Node30&#45;&gt;Node4 -->
<g id="edge62" class="edge">
<title>Node30&#45;&gt;Node4</title>
<path fill="none" stroke="#191970" d="M3590.24,-177.4245C3584.3428,-175.1302 3577.9936,-172.8319 3572,-171 3510.684,-152.259 3437.1147,-137.6628 3395.6394,-130.1339"/>
<polygon fill="#191970" stroke="#191970" points="3396.0275,-126.6478 3385.5671,-128.3304 3394.7936,-133.5382 3396.0275,-126.6478"/>
</g>
<!-- Node31&#45;&gt;Node4 -->
<g id="edge65" class="edge">
<title>Node31&#45;&gt;Node4</title>
<path fill="none" stroke="#191970" d="M3475.4706,-177.378C3453.2974,-166.9533 3418.5441,-150.614 3393.5366,-138.8568"/>
<polygon fill="#191970" stroke="#191970" points="3395.0149,-135.6843 3384.476,-134.5969 3392.0365,-142.0191 3395.0149,-135.6843"/>
</g>
<!-- Node32&#45;&gt;Node4 -->
<g id="edge68" class="edge">
<title>Node32&#45;&gt;Node4</title>
<path fill="none" stroke="#191970" d="M3330.266,-177.378C3335.9182,-168.2476 3344.379,-154.5801 3351.2828,-143.4278"/>
<polygon fill="#191970" stroke="#191970" points="3354.3323,-145.1511 3356.62,-134.8062 3348.3804,-141.4666 3354.3323,-145.1511"/>
</g>
<!-- Node33&#45;&gt;Node4 -->
<g id="edge72" class="edge">
<title>Node33&#45;&gt;Node4</title>
<path fill="none" stroke="#191970" d="M2049.6241,-177.4551C2058.6656,-174.894 2068.6466,-172.4561 2078,-171 2329.9752,-131.7745 3155.6554,-125.5269 3330.3487,-124.6367"/>
<polygon fill="#191970" stroke="#191970" points="3330.4713,-128.1363 3340.4541,-124.5876 3330.4372,-121.1364 3330.4713,-128.1363"/>
</g>
<!-- Node33&#45;&gt;Node10 -->
<g id="edge71" class="edge">
<title>Node33&#45;&gt;Node10</title>
<path fill="none" stroke="#191970" d="M1993.9684,-177.3732C1929.6779,-151.8851 1752.983,-85.1145 1599,-57 1455.7143,-30.8386 1002.0124,-15.7083 864.1319,-11.6292"/>
<polygon fill="#191970" stroke="#191970" points="864.108,-8.127 854.0098,-11.3328 863.9031,-15.1241 864.108,-8.127"/>
</g>
<!-- Node34&#45;&gt;Node4 -->
<g id="edge77" class="edge">
<title>Node34&#45;&gt;Node4</title>
<path fill="none" stroke="#191970" d="M3480.1907,-246.4995C3463.9631,-236.8776 3439.8719,-221.2755 3422,-204 3402.8142,-185.4544 3385.1999,-160.1644 3374.3071,-143.1309"/>
<polygon fill="#191970" stroke="#191970" points="3377.2497,-141.2351 3368.9798,-134.6125 3371.3147,-144.9468 3377.2497,-141.2351"/>
</g>
<!-- Node34&#45;&gt;Node30 -->
<g id="edge75" class="edge">
<title>Node34&#45;&gt;Node30</title>
<path fill="none" stroke="#191970" d="M3515.1162,-246.3188C3534.3921,-234.853 3565.926,-216.0957 3588.1936,-202.8503"/>
<polygon fill="#191970" stroke="#191970" points="3590.0084,-205.8433 3596.8136,-197.723 3586.4298,-199.8272 3590.0084,-205.8433"/>
</g>
<!-- Node34&#45;&gt;Node31 -->
<g id="edge74" class="edge">
<title>Node34&#45;&gt;Node31</title>
<path fill="none" stroke="#191970" d="M3497.8524,-246.3188C3497.7062,-236.2289 3497.4782,-220.4925 3497.2947,-207.8347"/>
<polygon fill="#191970" stroke="#191970" points="3500.7928,-207.6712 3497.1482,-197.723 3493.7935,-207.7727 3500.7928,-207.6712"/>
</g>
<!-- Node34&#45;&gt;Node32 -->
<g id="edge76" class="edge">
<title>Node34&#45;&gt;Node32</title>
<path fill="none" stroke="#191970" d="M3472.6989,-246.4668C3442.6736,-234.5602 3392.4484,-214.6433 3358.7821,-201.2929"/>
<polygon fill="#191970" stroke="#191970" points="3359.9176,-197.9781 3349.3316,-197.5453 3357.3372,-204.4851 3359.9176,-197.9781"/>
</g>
<!-- Node35&#45;&gt;Node10 -->
<g id="edge79" class="edge">
<title>Node35&#45;&gt;Node10</title>
<path fill="none" stroke="#191970" d="M54.1971,-59.7693C58.7745,-58.6891 63.4998,-57.7081 68,-57 207.9126,-34.9848 647.6627,-17.0945 783.5738,-11.9755"/>
<polygon fill="#191970" stroke="#191970" points="784.0731,-15.4594 793.9353,-11.5879 783.8114,-8.4643 784.0731,-15.4594"/>
</g>
<!-- Node44&#45;&gt;Node5 -->
<g id="edge92" class="edge">
<title>Node44&#45;&gt;Node5</title>
<path fill="none" stroke="#191970" d="M1015.4096,-247.809C988.8056,-240.3846 955.986,-227.1 935,-204 920.085,-187.5826 914.0682,-162.3181 911.641,-144.6903"/>
<polygon fill="#191970" stroke="#191970" points="915.1047,-144.1682 910.5264,-134.6137 908.1471,-144.9379 915.1047,-144.1682"/>
</g>
<!-- Node44&#45;&gt;Node6 -->
<g id="edge94" class="edge">
<title>Node44&#45;&gt;Node6</title>
<path fill="none" stroke="#191970" d="M1090.9934,-246.4332C1099.3911,-244.0572 1108.4824,-241.7186 1117,-240 1246.9071,-213.789 1292.2508,-258.6121 1413,-204 1428.9814,-196.772 1511.0443,-119.7643 1547.9638,-84.7077"/>
<polygon fill="#191970" stroke="#191970" points="1550.6847,-86.9502 1555.5178,-77.5219 1545.86,-81.8784 1550.6847,-86.9502"/>
</g>
<!-- Node44&#45;&gt;Node10 -->
<g id="edge95" class="edge">
<title>Node44&#45;&gt;Node10</title>
<path fill="none" stroke="#191970" d="M1091.3289,-246.499C1099.6411,-244.1497 1108.6078,-241.8073 1117,-240 1170.3659,-228.5072 1324.3399,-245.3323 1360,-204 1392.7195,-166.0761 1385.8404,-107.6896 1322,-57 1286.4662,-28.786 977.0032,-15.6464 864.5885,-11.7732"/>
<polygon fill="#191970" stroke="#191970" points="864.4531,-8.2668 854.3406,-11.4271 864.2168,-15.2628 864.4531,-8.2668"/>
</g>
<!-- Node44&#45;&gt;Node12 -->
<g id="edge89" class="edge">
<title>Node44&#45;&gt;Node12</title>
<path fill="none" stroke="#191970" d="M1091.648,-246.4803C1099.874,-244.1583 1108.7207,-241.8332 1117,-240 1166.4385,-229.0531 1309.1449,-242.5298 1342,-204 1351.5164,-192.8399 1351.4063,-182.2531 1342,-171 1338.9446,-167.3447 1229.4618,-148.5699 1154.1134,-136.0231"/>
<polygon fill="#191970" stroke="#191970" points="1154.6221,-132.5597 1144.1835,-134.3727 1153.4743,-139.465 1154.6221,-132.5597"/>
</g>
<!-- Node44&#45;&gt;Node45 -->
<g id="edge90" class="edge">
<title>Node44&#45;&gt;Node45</title>
<path fill="none" stroke="#191970" d="M1090.6991,-246.4668C1128.9628,-234.3558 1193.4108,-213.9571 1235.5762,-200.6112"/>
<polygon fill="#191970" stroke="#191970" points="1236.785,-203.8998 1245.2627,-197.5453 1234.6726,-197.2261 1236.785,-203.8998"/>
</g>
<!-- Node44&#45;&gt;Node46 -->
<g id="edge91" class="edge">
<title>Node44&#45;&gt;Node46</title>
<path fill="none" stroke="#191970" d="M1090.6744,-246.4393C1099.1562,-244.0345 1108.3681,-241.6804 1117,-240 1263.5531,-211.4705 1305.0717,-235.5704 1451,-204 1455.3904,-203.0502 1459.9376,-201.857 1464.4196,-200.549"/>
<polygon fill="#191970" stroke="#191970" points="1465.5349,-203.8675 1474.0414,-197.5517 1463.4529,-197.1843 1465.5349,-203.8675"/>
</g>
<!-- Node44&#45;&gt;Node47 -->
<g id="edge93" class="edge">
<title>Node44&#45;&gt;Node47</title>
<path fill="none" stroke="#191970" d="M1090.0439,-246.4739C1098.6913,-244.0092 1108.143,-241.6166 1117,-240 1304.7914,-205.7234 1359.6721,-249.7611 1545,-204 1547.9732,-203.2659 1551.0115,-202.3337 1554.0149,-201.2875"/>
<polygon fill="#191970" stroke="#191970" points="1555.3099,-204.5393 1563.3673,-197.6597 1552.7784,-198.0131 1555.3099,-204.5393"/>
</g>
</g>
</svg>
