<?xml version="1.0" encoding="UTF-8" standalone="no"?>
<!DOCTYPE svg PUBLIC "-//W3C//DTD SVG 1.1//EN"
 "http://www.w3.org/Graphics/SVG/1.1/DTD/svg11.dtd">
<!-- Generated by graphviz version 2.40.1 (20161225.0304)
 -->
<!-- Title: TpcClusterizer::process_event Pages: 1 -->
<svg width="901pt" height="1280pt"
 viewBox="0.00 0.00 901.00 1280.00" xmlns="http://www.w3.org/2000/svg" xmlns:xlink="http://www.w3.org/1999/xlink">
<g id="graph0" class="graph" transform="scale(1 1) rotate(0) translate(4 1276)">
<title>TpcClusterizer::process_event</title>
<!-- Node1 -->
<g id="node1" class="node">
<title>Node1</title>
<polygon fill="#bfbfbf" stroke="#000000" points="0,-580.5 0,-612.5 135,-612.5 135,-580.5 0,-580.5"/>
<text text-anchor="start" x="8" y="-599.5" font-family="FreeSans" font-size="10.00" fill="#000000">TpcClusterizer::process</text>
<text text-anchor="middle" x="67.5" y="-587.5" font-family="FreeSans" font-size="10.00" fill="#000000">_event</text>
</g>
<!-- Node2 -->
<g id="node2" class="node">
<title>Node2</title>
<g id="a_node2"><a xlink:href="../../d7/d4f/classTrkrClusterHitAssoc.html#a83dbba7ea52c548f0174fe7a40982fc9" target="_top" xlink:title="Add association between cluster and hit.">
<polygon fill="none" stroke="#000000" points="206,-1239.5 206,-1271.5 321,-1271.5 321,-1239.5 206,-1239.5"/>
<text text-anchor="start" x="214" y="-1258.5" font-family="FreeSans" font-size="10.00" fill="#000000">TrkrClusterHitAssoc</text>
<text text-anchor="middle" x="263.5" y="-1246.5" font-family="FreeSans" font-size="10.00" fill="#000000">::addAssoc</text>
</a>
</g>
</g>
<!-- Node1&#45;&gt;Node2 -->
<g id="edge1" class="edge">
<title>Node1&#45;&gt;Node2</title>
<path fill="none" stroke="#191970" d="M67.8481,-612.7123C70.0977,-702.2429 85.3378,-1135.6087 171,-1230.5 177.7718,-1238.0014 186.5387,-1243.3504 195.9724,-1247.1462"/>
<polygon fill="#191970" stroke="#191970" points="194.9845,-1250.5075 205.5791,-1250.4463 197.2587,-1243.8872 194.9845,-1250.5075"/>
</g>
<!-- Node3 -->
<g id="node3" class="node">
<title>Node3</title>
<g id="a_node3"><a xlink:href="../../da/d55/TPCRateLayered_8m.html#ac40e4ec8f2a74a2878f06670249eebb8" target="_top" xlink:title="double">
<polygon fill="none" stroke="#000000" points="238,-1200.5 238,-1220.5 289,-1220.5 289,-1200.5 238,-1200.5"/>
<text text-anchor="middle" x="263.5" y="-1207.5" font-family="FreeSans" font-size="10.00" fill="#000000">double</text>
</a>
</g>
</g>
<!-- Node1&#45;&gt;Node3 -->
<g id="edge2" class="edge">
<title>Node1&#45;&gt;Node3</title>
<path fill="none" stroke="#191970" d="M67.9389,-612.6463C70.622,-698.9936 87.5906,-1105.519 171,-1191.5 185.5143,-1206.4618 208.4292,-1211.2483 227.8195,-1212.2763"/>
<polygon fill="#191970" stroke="#191970" points="227.7868,-1215.7764 237.8634,-1212.5036 227.9452,-1208.7782 227.7868,-1215.7764"/>
</g>
<!-- Node4 -->
<g id="node4" class="node">
<title>Node4</title>
<g id="a_node4"><a xlink:href="../../d5/d07/classPHNodeIterator.html#aea98bf8619af59b1212a94fb32106baa" target="_top" xlink:title="PHNodeIterator::findFirst">
<polygon fill="none" stroke="#000000" points="193,-1143.5 193,-1163.5 334,-1163.5 334,-1143.5 193,-1143.5"/>
<text text-anchor="middle" x="263.5" y="-1150.5" font-family="FreeSans" font-size="10.00" fill="#000000">PHNodeIterator::findFirst</text>
</a>
</g>
</g>
<!-- Node1&#45;&gt;Node4 -->
<g id="edge3" class="edge">
<title>Node1&#45;&gt;Node4</title>
<path fill="none" stroke="#191970" d="M68.2633,-612.6906C72.4348,-694.0837 95.1433,-1057.6868 171,-1134.5 174.7205,-1138.2674 178.9745,-1141.3866 183.5682,-1143.9613"/>
<polygon fill="#191970" stroke="#191970" points="182.2291,-1147.1989 192.7698,-1148.2684 185.1967,-1140.859 182.2291,-1147.1989"/>
</g>
<!-- Node7 -->
<g id="node7" class="node">
<title>Node7</title>
<g id="a_node7"><a xlink:href="../../d0/d2c/classTrkrClusterContainer.html#a3b187904e3c80ff23b4d65bd477aa40a" target="_top" xlink:title="TrkrClusterContainer\l::findOrAddCluster">
<polygon fill="none" stroke="#000000" points="202.5,-1092.5 202.5,-1124.5 324.5,-1124.5 324.5,-1092.5 202.5,-1092.5"/>
<text text-anchor="start" x="210.5" y="-1111.5" font-family="FreeSans" font-size="10.00" fill="#000000">TrkrClusterContainer</text>
<text text-anchor="middle" x="263.5" y="-1099.5" font-family="FreeSans" font-size="10.00" fill="#000000">::findOrAddCluster</text>
</a>
</g>
</g>
<!-- Node1&#45;&gt;Node7 -->
<g id="edge7" class="edge">
<title>Node1&#45;&gt;Node7</title>
<path fill="none" stroke="#191970" d="M68.7039,-612.5775C74.7263,-688.7678 103.9922,-1012.7332 171,-1083.5 177.0664,-1089.9068 184.5897,-1094.7319 192.7058,-1098.3558"/>
<polygon fill="#191970" stroke="#191970" points="191.4849,-1101.6361 202.0749,-1101.9571 193.9965,-1095.1021 191.4849,-1101.6361"/>
</g>
<!-- Node8 -->
<g id="node8" class="node">
<title>Node8</title>
<g id="a_node8"><a xlink:href="../../d7/db0/namespaceTpcDefs.html#a0202375ade5010ae596a2e0b7c7f5fd0" target="_top" xlink:title="Generate a cluster key from indeces.">
<polygon fill="none" stroke="#000000" points="410,-603.5 410,-623.5 534,-623.5 534,-603.5 410,-603.5"/>
<text text-anchor="middle" x="472" y="-610.5" font-family="FreeSans" font-size="10.00" fill="#000000">TpcDefs::genClusKey</text>
</a>
</g>
</g>
<!-- Node1&#45;&gt;Node8 -->
<g id="edge8" class="edge">
<title>Node1&#45;&gt;Node8</title>
<path fill="none" stroke="#191970" d="M135.2042,-599.3454C208.3442,-602.4193 324.4471,-607.2988 399.4288,-610.45"/>
<polygon fill="#191970" stroke="#191970" points="399.5892,-613.9598 409.7274,-610.8829 399.8832,-606.9659 399.5892,-613.9598"/>
</g>
<!-- Node11 -->
<g id="node11" class="node">
<title>Node11</title>
<g id="a_node11"><a xlink:href="../../d7/db0/namespaceTpcDefs.html#ad6f7435b72ea8675313c2d016aa835f6" target="_top" xlink:title="Generate a hitkey from a pad index and time bin.">
<polygon fill="none" stroke="#000000" points="205,-1002.5 205,-1022.5 322,-1022.5 322,-1002.5 205,-1002.5"/>
<text text-anchor="middle" x="263.5" y="-1009.5" font-family="FreeSans" font-size="10.00" fill="#000000">TpcDefs::genHitKey</text>
</a>
</g>
</g>
<!-- Node1&#45;&gt;Node11 -->
<g id="edge11" class="edge">
<title>Node1&#45;&gt;Node11</title>
<path fill="none" stroke="#191970" d="M69.4571,-612.7683C77.9324,-680.4949 113.648,-939.0794 171,-993.5 177.8122,-999.964 186.2069,-1004.4865 195.135,-1007.6128"/>
<polygon fill="#191970" stroke="#191970" points="194.4027,-1011.0449 204.9826,-1010.4829 196.3615,-1004.3245 194.4027,-1011.0449"/>
</g>
<!-- Node12 -->
<g id="node12" class="node">
<title>Node12</title>
<g id="a_node12"><a xlink:href="../../de/d25/classTpcClusterizer.html#a8b4e11dbe54efa73c2aeb4261b0c11d7" target="_top" xlink:title="TpcClusterizer::get\l_cluster">
<polygon fill="none" stroke="#000000" points="207,-951.5 207,-983.5 320,-983.5 320,-951.5 207,-951.5"/>
<text text-anchor="start" x="215" y="-970.5" font-family="FreeSans" font-size="10.00" fill="#000000">TpcClusterizer::get</text>
<text text-anchor="middle" x="263.5" y="-958.5" font-family="FreeSans" font-size="10.00" fill="#000000">_cluster</text>
</a>
</g>
</g>
<!-- Node1&#45;&gt;Node12 -->
<g id="edge12" class="edge">
<title>Node1&#45;&gt;Node12</title>
<path fill="none" stroke="#191970" d="M70.2053,-612.6678C80.8506,-674.4418 121.697,-894.496 171,-942.5 178.3301,-949.637 187.4767,-954.7876 197.144,-958.4945"/>
<polygon fill="#191970" stroke="#191970" points="196.3436,-961.9164 206.9369,-961.7402 198.5458,-955.2718 196.3436,-961.9164"/>
</g>
<!-- Node13 -->
<g id="node13" class="node">
<title>Node13</title>
<g id="a_node13"><a xlink:href="../../d9/d85/classPHG4CylinderCellGeom.html#a4999cf2fcefaae861e8ddc7c489af731" target="_top" xlink:title="PHG4CylinderCellGeom\l::get_phibins">
<polygon fill="none" stroke="#000000" points="196,-696.5 196,-728.5 331,-728.5 331,-696.5 196,-696.5"/>
<text text-anchor="start" x="204" y="-715.5" font-family="FreeSans" font-size="10.00" fill="#000000">PHG4CylinderCellGeom</text>
<text text-anchor="middle" x="263.5" y="-703.5" font-family="FreeSans" font-size="10.00" fill="#000000">::get_phibins</text>
</a>
</g>
</g>
<!-- Node1&#45;&gt;Node13 -->
<g id="edge13" class="edge">
<title>Node1&#45;&gt;Node13</title>
<path fill="none" stroke="#191970" d="M81.5829,-612.8213C100.0841,-633.2489 134.5285,-667.925 171,-687.5 175.8553,-690.1059 181.0028,-692.4561 186.2856,-694.5729"/>
<polygon fill="#191970" stroke="#191970" points="185.3138,-697.9453 195.9069,-698.1363 187.745,-691.381 185.3138,-697.9453"/>
</g>
<!-- Node16 -->
<g id="node16" class="node">
<title>Node16</title>
<g id="a_node16"><a xlink:href="../../d9/d85/classPHG4CylinderCellGeom.html#a619e05f0264243126360ac83b80f1d89" target="_top" xlink:title="PHG4CylinderCellGeom\l::get_phicenter">
<polygon fill="none" stroke="#000000" points="196,-645.5 196,-677.5 331,-677.5 331,-645.5 196,-645.5"/>
<text text-anchor="start" x="204" y="-664.5" font-family="FreeSans" font-size="10.00" fill="#000000">PHG4CylinderCellGeom</text>
<text text-anchor="middle" x="263.5" y="-652.5" font-family="FreeSans" font-size="10.00" fill="#000000">::get_phicenter</text>
</a>
</g>
</g>
<!-- Node1&#45;&gt;Node16 -->
<g id="edge16" class="edge">
<title>Node1&#45;&gt;Node16</title>
<path fill="none" stroke="#191970" d="M115.9495,-612.5674C142.9233,-621.5128 176.6937,-632.7122 205.1176,-642.1385"/>
<polygon fill="#191970" stroke="#191970" points="204.3352,-645.5664 214.9286,-645.3921 206.5387,-638.9222 204.3352,-645.5664"/>
</g>
<!-- Node17 -->
<g id="node17" class="node">
<title>Node17</title>
<g id="a_node17"><a xlink:href="../../d9/d85/classPHG4CylinderCellGeom.html#a10a58a3eed1d5566cebd3b19583d78bb" target="_top" xlink:title="PHG4CylinderCellGeom\l::get_phistep">
<polygon fill="none" stroke="#000000" points="196,-798.5 196,-830.5 331,-830.5 331,-798.5 196,-798.5"/>
<text text-anchor="start" x="204" y="-817.5" font-family="FreeSans" font-size="10.00" fill="#000000">PHG4CylinderCellGeom</text>
<text text-anchor="middle" x="263.5" y="-805.5" font-family="FreeSans" font-size="10.00" fill="#000000">::get_phistep</text>
</a>
</g>
</g>
<!-- Node1&#45;&gt;Node17 -->
<g id="edge18" class="edge">
<title>Node1&#45;&gt;Node17</title>
<path fill="none" stroke="#191970" d="M71.4186,-612.5383C81.3347,-649.6398 111.0097,-741.8493 171,-789.5 175.6731,-793.2119 180.853,-796.3743 186.3058,-799.0685"/>
<polygon fill="#191970" stroke="#191970" points="185.1344,-802.3762 195.6991,-803.1749 187.9383,-795.9623 185.1344,-802.3762"/>
</g>
<!-- Node18 -->
<g id="node18" class="node">
<title>Node18</title>
<g id="a_node18"><a xlink:href="../../d9/d85/classPHG4CylinderCellGeom.html#a108104cde65d2ca503e306251188e615" target="_top" xlink:title="PHG4CylinderCellGeom\l::get_radius">
<polygon fill="none" stroke="#000000" points="196,-747.5 196,-779.5 331,-779.5 331,-747.5 196,-747.5"/>
<text text-anchor="start" x="204" y="-766.5" font-family="FreeSans" font-size="10.00" fill="#000000">PHG4CylinderCellGeom</text>
<text text-anchor="middle" x="263.5" y="-754.5" font-family="FreeSans" font-size="10.00" fill="#000000">::get_radius</text>
</a>
</g>
</g>
<!-- Node1&#45;&gt;Node18 -->
<g id="edge20" class="edge">
<title>Node1&#45;&gt;Node18</title>
<path fill="none" stroke="#191970" d="M74.8439,-612.9289C89.0066,-642.6878 122.9912,-705.4818 171,-738.5 175.8294,-741.8214 181.0817,-744.7022 186.5489,-747.2006"/>
<polygon fill="#191970" stroke="#191970" points="185.3365,-750.4864 195.9161,-751.0546 188,-744.0129 185.3365,-750.4864"/>
</g>
<!-- Node19 -->
<g id="node19" class="node">
<title>Node19</title>
<g id="a_node19"><a xlink:href="../../d9/d85/classPHG4CylinderCellGeom.html#a0cdfdbb3b06ded109b6229d2bd74e92d" target="_top" xlink:title="PHG4CylinderCellGeom\l::get_zbins">
<polygon fill="none" stroke="#000000" points="196,-900.5 196,-932.5 331,-932.5 331,-900.5 196,-900.5"/>
<text text-anchor="start" x="204" y="-919.5" font-family="FreeSans" font-size="10.00" fill="#000000">PHG4CylinderCellGeom</text>
<text text-anchor="middle" x="263.5" y="-907.5" font-family="FreeSans" font-size="10.00" fill="#000000">::get_zbins</text>
</a>
</g>
</g>
<!-- Node1&#45;&gt;Node19 -->
<g id="edge21" class="edge">
<title>Node1&#45;&gt;Node19</title>
<path fill="none" stroke="#191970" d="M68.1509,-612.7072C71.0437,-662.269 86.7036,-813.1796 171,-891.5 175.6386,-895.8098 180.9428,-899.3907 186.6119,-902.3641"/>
<polygon fill="#191970" stroke="#191970" points="185.2279,-905.5798 195.7779,-906.5541 188.1382,-899.2134 185.2279,-905.5798"/>
</g>
<!-- Node21 -->
<g id="node21" class="node">
<title>Node21</title>
<g id="a_node21"><a xlink:href="../../d9/d85/classPHG4CylinderCellGeom.html#a3de4ba34c361c7a4da2a2b2162491f7d" target="_top" xlink:title="PHG4CylinderCellGeom\l::get_zcenter">
<polygon fill="none" stroke="#000000" points="196,-849.5 196,-881.5 331,-881.5 331,-849.5 196,-849.5"/>
<text text-anchor="start" x="204" y="-868.5" font-family="FreeSans" font-size="10.00" fill="#000000">PHG4CylinderCellGeom</text>
<text text-anchor="middle" x="263.5" y="-856.5" font-family="FreeSans" font-size="10.00" fill="#000000">::get_zcenter</text>
</a>
</g>
</g>
<!-- Node1&#45;&gt;Node21 -->
<g id="edge24" class="edge">
<title>Node1&#45;&gt;Node21</title>
<path fill="none" stroke="#191970" d="M69.486,-612.7006C75.7267,-656.4275 99.0158,-777.7724 171,-840.5 175.5796,-844.4907 180.7348,-847.8516 186.2081,-850.6812"/>
<polygon fill="#191970" stroke="#191970" points="185.1202,-854.0303 195.6743,-854.9589 188.0029,-847.6514 185.1202,-854.0303"/>
</g>
<!-- Node22 -->
<g id="node22" class="node">
<title>Node22</title>
<g id="a_node22"><a xlink:href="../../d9/d85/classPHG4CylinderCellGeom.html#adb898f36289b3d1614afc7fde61de260" target="_top" xlink:title="PHG4CylinderCellGeom\l::get_zstep">
<polygon fill="none" stroke="#000000" points="196,-1041.5 196,-1073.5 331,-1073.5 331,-1041.5 196,-1041.5"/>
<text text-anchor="start" x="204" y="-1060.5" font-family="FreeSans" font-size="10.00" fill="#000000">PHG4CylinderCellGeom</text>
<text text-anchor="middle" x="263.5" y="-1048.5" font-family="FreeSans" font-size="10.00" fill="#000000">::get_zstep</text>
</a>
</g>
</g>
<!-- Node1&#45;&gt;Node22 -->
<g id="edge26" class="edge">
<title>Node1&#45;&gt;Node22</title>
<path fill="none" stroke="#191970" d="M69.1547,-612.779C76.7452,-684.3279 110.4815,-970.0825 171,-1032.5 175.4835,-1037.1242 180.7268,-1040.9216 186.3974,-1044.0363"/>
<polygon fill="#191970" stroke="#191970" points="185.0755,-1047.2827 195.6124,-1048.3899 188.0658,-1040.9535 185.0755,-1047.2827"/>
</g>
<!-- Node23 -->
<g id="node23" class="node">
<title>Node23</title>
<g id="a_node23"><a xlink:href="../../d9/dc1/classTrkrHitSet.html#ad9589ea531ae7511ad7547be467b48aa" target="_top" xlink:title="Get all hits.">
<polygon fill="none" stroke="#000000" points="208.5,-567.5 208.5,-587.5 318.5,-587.5 318.5,-567.5 208.5,-567.5"/>
<text text-anchor="middle" x="263.5" y="-574.5" font-family="FreeSans" font-size="10.00" fill="#000000">TrkrHitSet::getHits</text>
</a>
</g>
</g>
<!-- Node1&#45;&gt;Node23 -->
<g id="edge28" class="edge">
<title>Node1&#45;&gt;Node23</title>
<path fill="none" stroke="#191970" d="M135.2265,-589.9347C155.6726,-587.9527 178.0682,-585.7816 198.3431,-583.8162"/>
<polygon fill="#191970" stroke="#191970" points="198.8026,-587.2882 208.4182,-582.8396 198.1271,-580.3208 198.8026,-587.2882"/>
</g>
<!-- Node24 -->
<g id="node24" class="node">
<title>Node24</title>
<g id="a_node24"><a xlink:href="../../d9/dc1/classTrkrHitSet.html#ad407a57ad9c4624e1f8766335264af76" target="_top" xlink:title="Get the key for this object.">
<polygon fill="none" stroke="#000000" points="402,-477.5 402,-497.5 542,-497.5 542,-477.5 402,-477.5"/>
<text text-anchor="middle" x="472" y="-484.5" font-family="FreeSans" font-size="10.00" fill="#000000">TrkrHitSet::getHitSetKey</text>
</a>
</g>
</g>
<!-- Node1&#45;&gt;Node24 -->
<g id="edge29" class="edge">
<title>Node1&#45;&gt;Node24</title>
<path fill="none" stroke="#191970" d="M80.1952,-580.4842C97.9522,-559.4359 132.3954,-523.2911 171,-507.5 241.598,-478.6221 329.2903,-476.129 391.7765,-479.3461"/>
<polygon fill="#191970" stroke="#191970" points="391.7861,-482.8523 401.9707,-479.9329 392.1884,-475.8639 391.7861,-482.8523"/>
</g>
<!-- Node25 -->
<g id="node25" class="node">
<title>Node25</title>
<g id="a_node25"><a xlink:href="../../d5/d76/classTrkrHitSetContainer.html#af493cd474fbf1c12133cc08883a3ad84" target="_top" xlink:title="return all HitSets matching a given detid">
<polygon fill="none" stroke="#000000" points="205,-516.5 205,-548.5 322,-548.5 322,-516.5 205,-516.5"/>
<text text-anchor="start" x="213" y="-535.5" font-family="FreeSans" font-size="10.00" fill="#000000">TrkrHitSetContainer</text>
<text text-anchor="middle" x="263.5" y="-523.5" font-family="FreeSans" font-size="10.00" fill="#000000">::getHitSets</text>
</a>
</g>
</g>
<!-- Node1&#45;&gt;Node25 -->
<g id="edge30" class="edge">
<title>Node1&#45;&gt;Node25</title>
<path fill="none" stroke="#191970" d="M109.041,-580.4088C127.843,-573.3432 150.4206,-565.159 171,-558.5 178.6727,-556.0173 186.7463,-553.5451 194.7956,-551.1679"/>
<polygon fill="#191970" stroke="#191970" points="195.9506,-554.4771 204.5735,-548.3212 193.9938,-547.7561 195.9506,-554.4771"/>
</g>
<!-- Node28 -->
<g id="node28" class="node">
<title>Node28</title>
<g id="a_node28"><a xlink:href="../../d6/d3f/namespaceTrkrDefs.html#ad4a7fd368bbf1d5d97ff4fd3e81a6100" target="_top" xlink:title="Get the layer number from either key type.">
<polygon fill="none" stroke="#000000" points="416.5,-141.5 416.5,-161.5 527.5,-161.5 527.5,-141.5 416.5,-141.5"/>
<text text-anchor="middle" x="472" y="-148.5" font-family="FreeSans" font-size="10.00" fill="#000000">TrkrDefs::getLayer</text>
</a>
</g>
</g>
<!-- Node1&#45;&gt;Node28 -->
<g id="edge35" class="edge">
<title>Node1&#45;&gt;Node28</title>
<path fill="none" stroke="#191970" d="M68.9401,-580.3306C75.6187,-509.3066 106.0448,-226.1147 171,-171.5 205.3351,-142.6308 328.5039,-143.4428 406.2409,-147.1396"/>
<polygon fill="#191970" stroke="#191970" points="406.2613,-150.645 416.4247,-147.6526 406.6135,-143.6539 406.2613,-150.645"/>
</g>
<!-- Node29 -->
<g id="node29" class="node">
<title>Node29</title>
<g id="a_node29"><a xlink:href="../../d2/ddb/classPHG4CylinderCellGeomContainer.html#aa667a12262dc298b8aec717e6096d09f" target="_top" xlink:title="PHG4CylinderCellGeomContainer\l::GetLayerCellGeom">
<polygon fill="none" stroke="#000000" points="171,-387.5 171,-419.5 356,-419.5 356,-387.5 171,-387.5"/>
<text text-anchor="start" x="179" y="-406.5" font-family="FreeSans" font-size="10.00" fill="#000000">PHG4CylinderCellGeomContainer</text>
<text text-anchor="middle" x="263.5" y="-394.5" font-family="FreeSans" font-size="10.00" fill="#000000">::GetLayerCellGeom</text>
</a>
</g>
</g>
<!-- Node1&#45;&gt;Node29 -->
<g id="edge36" class="edge">
<title>Node1&#45;&gt;Node29</title>
<path fill="none" stroke="#191970" d="M72.902,-580.4149C84.9587,-547.0146 117.3033,-469.8978 171,-429.5 173.3744,-427.7136 175.8663,-426.05 178.4477,-424.5006"/>
<polygon fill="#191970" stroke="#191970" points="180.3501,-427.4528 187.5291,-419.6609 177.0579,-421.2753 180.3501,-427.4528"/>
</g>
<!-- Node30 -->
<g id="node30" class="node">
<title>Node30</title>
<g id="a_node30"><a xlink:href="../../d7/db0/namespaceTpcDefs.html#a5009e86d9bf74a453e860b3650aac4d4" target="_top" xlink:title="Get the pad index from hitkey.">
<polygon fill="none" stroke="#000000" points="214,-348.5 214,-368.5 313,-368.5 313,-348.5 214,-348.5"/>
<text text-anchor="middle" x="263.5" y="-355.5" font-family="FreeSans" font-size="10.00" fill="#000000">TpcDefs::getPad</text>
</a>
</g>
</g>
<!-- Node1&#45;&gt;Node30 -->
<g id="edge37" class="edge">
<title>Node1&#45;&gt;Node30</title>
<path fill="none" stroke="#191970" d="M70.1726,-580.3434C77.8127,-539.5495 103.6924,-431.8506 171,-378.5 180.4557,-371.005 192.0984,-366.1643 203.8951,-363.0718"/>
<polygon fill="#191970" stroke="#191970" points="204.7968,-366.4568 213.796,-360.8654 203.2741,-359.6244 204.7968,-366.4568"/>
</g>
<!-- Node31 -->
<g id="node31" class="node">
<title>Node31</title>
<g id="a_node31"><a xlink:href="../../d7/db0/namespaceTpcDefs.html#aaee8d42aaa9f7331459a8589f9550086" target="_top" xlink:title="Get the sector id from hitsetkey.">
<polygon fill="none" stroke="#000000" points="202,-309.5 202,-329.5 325,-329.5 325,-309.5 202,-309.5"/>
<text text-anchor="middle" x="263.5" y="-316.5" font-family="FreeSans" font-size="10.00" fill="#000000">TpcDefs::getSectorId</text>
</a>
</g>
</g>
<!-- Node1&#45;&gt;Node31 -->
<g id="edge38" class="edge">
<title>Node1&#45;&gt;Node31</title>
<path fill="none" stroke="#191970" d="M68.9128,-580.2452C73.7929,-534.5881 94.1392,-404.297 171,-339.5 177.2514,-334.2298 184.568,-330.2528 192.2992,-327.2653"/>
<polygon fill="#191970" stroke="#191970" points="193.4971,-330.5557 201.8916,-324.0918 191.2983,-323.91 193.4971,-330.5557"/>
</g>
<!-- Node32 -->
<g id="node32" class="node">
<title>Node32</title>
<g id="a_node32"><a xlink:href="../../d7/db0/namespaceTpcDefs.html#aafa0c31bf0892588a224d8f0726bff11" target="_top" xlink:title="Get the side from hitsetkey.">
<polygon fill="none" stroke="#000000" points="212,-270.5 212,-290.5 315,-290.5 315,-270.5 212,-270.5"/>
<text text-anchor="middle" x="263.5" y="-277.5" font-family="FreeSans" font-size="10.00" fill="#000000">TpcDefs::getSide</text>
</a>
</g>
</g>
<!-- Node1&#45;&gt;Node32 -->
<g id="edge39" class="edge">
<title>Node1&#45;&gt;Node32</title>
<path fill="none" stroke="#191970" d="M70.9777,-580.3206C83.3474,-524.2449 126.8386,-339.5211 171,-300.5 179.6657,-292.8429 190.5584,-287.8845 201.7984,-284.7195"/>
<polygon fill="#191970" stroke="#191970" points="202.7902,-288.0817 211.7182,-282.3771 201.1815,-281.269 202.7902,-288.0817"/>
</g>
<!-- Node33 -->
<g id="node33" class="node">
<title>Node33</title>
<g id="a_node33"><a xlink:href="../../d7/db0/namespaceTpcDefs.html#a3ec8638cf9427c7955840853dbd96383" target="_top" xlink:title="Get the time bin from hitkey.">
<polygon fill="none" stroke="#000000" points="211.5,-231.5 211.5,-251.5 315.5,-251.5 315.5,-231.5 211.5,-231.5"/>
<text text-anchor="middle" x="263.5" y="-238.5" font-family="FreeSans" font-size="10.00" fill="#000000">TpcDefs::getTBin</text>
</a>
</g>
</g>
<!-- Node1&#45;&gt;Node33 -->
<g id="edge40" class="edge">
<title>Node1&#45;&gt;Node33</title>
<path fill="none" stroke="#191970" d="M70.2822,-580.352C81.054,-519.6828 121.8691,-306.5451 171,-261.5 179.5237,-253.6851 190.3524,-248.6556 201.5744,-245.4706"/>
<polygon fill="#191970" stroke="#191970" points="202.5649,-248.833 211.4893,-243.1229 200.9519,-242.0213 202.5649,-248.833"/>
</g>
<!-- Node34 -->
<g id="node34" class="node">
<title>Node34</title>
<g id="a_node34"><a xlink:href="../../d7/d4f/classTrkrClusterHitAssoc.html#a4a9cd3e07997e034399c2b756d6251c2" target="_top" xlink:title="TrkrClusterHitAssoc\l::identify">
<polygon fill="none" stroke="#000000" points="206,-180.5 206,-212.5 321,-212.5 321,-180.5 206,-180.5"/>
<text text-anchor="start" x="214" y="-199.5" font-family="FreeSans" font-size="10.00" fill="#000000">TrkrClusterHitAssoc</text>
<text text-anchor="middle" x="263.5" y="-187.5" font-family="FreeSans" font-size="10.00" fill="#000000">::identify</text>
</a>
</g>
</g>
<!-- Node1&#45;&gt;Node34 -->
<g id="edge41" class="edge">
<title>Node1&#45;&gt;Node34</title>
<path fill="none" stroke="#191970" d="M69.829,-580.3969C79.5013,-515.6481 118.4656,-275.2465 171,-222.5 178.063,-215.4085 186.8964,-210.2129 196.2824,-206.414"/>
<polygon fill="#191970" stroke="#191970" points="197.5362,-209.6833 205.8074,-203.0623 195.2126,-203.0801 197.5362,-209.6833"/>
</g>
<!-- Node35 -->
<g id="node35" class="node">
<title>Node35</title>
<g id="a_node35"><a xlink:href="../../d0/d2c/classTrkrClusterContainer.html#ab9d4ccb53dd55e0289aca232974b820d" target="_top" xlink:title="TrkrClusterContainer\l::identify">
<polygon fill="none" stroke="#000000" points="202.5,-90.5 202.5,-122.5 324.5,-122.5 324.5,-90.5 202.5,-90.5"/>
<text text-anchor="start" x="210.5" y="-109.5" font-family="FreeSans" font-size="10.00" fill="#000000">TrkrClusterContainer</text>
<text text-anchor="middle" x="263.5" y="-97.5" font-family="FreeSans" font-size="10.00" fill="#000000">::identify</text>
</a>
</g>
</g>
<!-- Node1&#45;&gt;Node35 -->
<g id="edge42" class="edge">
<title>Node1&#45;&gt;Node35</title>
<path fill="none" stroke="#191970" d="M69.0238,-580.4525C76.2781,-507.2383 109.5375,-205.5466 171,-137.5 177.1695,-130.6696 184.8879,-125.3422 193.2198,-121.1875"/>
<polygon fill="#191970" stroke="#191970" points="194.7131,-124.3543 202.4571,-117.1237 191.8943,-117.9469 194.7131,-124.3543"/>
</g>
<!-- Node37 -->
<g id="node37" class="node">
<title>Node37</title>
<g id="a_node37"><a xlink:href="../../d9/dc1/classTrkrHitSet.html#af1ecf88b6afbf636a82d40b56020089a" target="_top" xlink:title="TObject functions.">
<polygon fill="none" stroke="#000000" points="207.5,-438.5 207.5,-458.5 319.5,-458.5 319.5,-438.5 207.5,-438.5"/>
<text text-anchor="middle" x="263.5" y="-445.5" font-family="FreeSans" font-size="10.00" fill="#000000">TrkrHitSet::identify</text>
</a>
</g>
</g>
<!-- Node1&#45;&gt;Node37 -->
<g id="edge45" class="edge">
<title>Node1&#45;&gt;Node37</title>
<path fill="none" stroke="#191970" d="M76.6659,-580.1998C92.4268,-553.693 127.2308,-501.408 171,-473.5 179.12,-468.3225 188.2978,-464.2082 197.6397,-460.941"/>
<polygon fill="#191970" stroke="#191970" points="198.9304,-464.2033 207.3969,-457.8339 196.8063,-457.5333 198.9304,-464.2033"/>
</g>
<!-- Node39 -->
<g id="node39" class="node">
<title>Node39</title>
<g id="a_node39"><a xlink:href="../../de/d25/classTpcClusterizer.html#ab7a03f7660d9cd4eb2dfe8817eb76dc1" target="_top" xlink:title="TpcClusterizer::is\l_local_maximum">
<polygon fill="none" stroke="#000000" points="211.5,-39.5 211.5,-71.5 315.5,-71.5 315.5,-39.5 211.5,-39.5"/>
<text text-anchor="start" x="219.5" y="-58.5" font-family="FreeSans" font-size="10.00" fill="#000000">TpcClusterizer::is</text>
<text text-anchor="middle" x="263.5" y="-46.5" font-family="FreeSans" font-size="10.00" fill="#000000">_local_maximum</text>
</a>
</g>
</g>
<!-- Node1&#45;&gt;Node39 -->
<g id="edge49" class="edge">
<title>Node1&#45;&gt;Node39</title>
<path fill="none" stroke="#191970" d="M68.5067,-580.2711C73.7408,-501.077 100.3652,-155.9583 171,-80.5 179.171,-71.7711 190.0453,-65.9729 201.4608,-62.148"/>
<polygon fill="#191970" stroke="#191970" points="202.4803,-65.4968 211.1297,-59.3781 200.5525,-58.7675 202.4803,-65.4968"/>
</g>
<!-- Node40 -->
<g id="node40" class="node">
<title>Node40</title>
<g id="a_node40"><a xlink:href="../../d5/dec/classFun4AllBase.html#a8a5c77a92bdac6bc043476e132379a40" target="_top" xlink:title="Gets the verbosity of this module.">
<polygon fill="none" stroke="#000000" points="197.5,-.5 197.5,-20.5 329.5,-20.5 329.5,-.5 197.5,-.5"/>
<text text-anchor="middle" x="263.5" y="-7.5" font-family="FreeSans" font-size="10.00" fill="#000000">Fun4AllBase::Verbosity</text>
</a>
</g>
</g>
<!-- Node1&#45;&gt;Node40 -->
<g id="edge50" class="edge">
<title>Node1&#45;&gt;Node40</title>
<path fill="none" stroke="#191970" d="M68.092,-580.2858C71.4966,-496.2436 91.3192,-110.9562 171,-29.5 175.8525,-24.5393 181.6292,-20.6997 187.8918,-17.7459"/>
<polygon fill="#191970" stroke="#191970" points="189.3361,-20.939 197.3638,-14.0248 186.7765,-14.4237 189.3361,-20.939"/>
</g>
<!-- Node4&#45;&gt;Node4 -->
<g id="edge4" class="edge">
<title>Node4&#45;&gt;Node4</title>
<path fill="none" stroke="#191970" d="M232.8152,-1163.7271C218.8186,-1172.6067 229.0469,-1182 263.5,-1182 287.1865,-1182 299.423,-1177.5602 300.2095,-1171.8999"/>
<polygon fill="#191970" stroke="#191970" points="302.9358,-1169.6996 294.1848,-1163.7271 297.3012,-1173.8532 302.9358,-1169.6996"/>
</g>
<!-- Node5 -->
<g id="node5" class="node">
<title>Node5</title>
<g id="a_node5"><a xlink:href="../../dc/d82/classPHNode.html#aca3576f926a4401eddc3d88bf0ce0de3" target="_top" xlink:title="PHNode::getName">
<polygon fill="none" stroke="#000000" points="417.5,-1123.5 417.5,-1143.5 526.5,-1143.5 526.5,-1123.5 417.5,-1123.5"/>
<text text-anchor="middle" x="472" y="-1130.5" font-family="FreeSans" font-size="10.00" fill="#000000">PHNode::getName</text>
</a>
</g>
</g>
<!-- Node4&#45;&gt;Node5 -->
<g id="edge5" class="edge">
<title>Node4&#45;&gt;Node5</title>
<path fill="none" stroke="#191970" d="M334.0886,-1146.7289C357.758,-1144.4585 384.0209,-1141.9392 407.2231,-1139.7136"/>
<polygon fill="#191970" stroke="#191970" points="407.6841,-1143.1855 417.3042,-1138.7466 407.0157,-1136.2175 407.6841,-1143.1855"/>
</g>
<!-- Node6 -->
<g id="node6" class="node">
<title>Node6</title>
<g id="a_node6"><a xlink:href="../../dc/d82/classPHNode.html#a4ab1f90aed955a652813bfe377087bda" target="_top" xlink:title="PHNode::getType">
<polygon fill="none" stroke="#000000" points="420.5,-1162.5 420.5,-1182.5 523.5,-1182.5 523.5,-1162.5 420.5,-1162.5"/>
<text text-anchor="middle" x="472" y="-1169.5" font-family="FreeSans" font-size="10.00" fill="#000000">PHNode::getType</text>
</a>
</g>
</g>
<!-- Node4&#45;&gt;Node6 -->
<g id="edge6" class="edge">
<title>Node4&#45;&gt;Node6</title>
<path fill="none" stroke="#191970" d="M334.0886,-1159.9325C358.7945,-1162.1839 386.326,-1164.6928 410.2531,-1166.8732"/>
<polygon fill="#191970" stroke="#191970" points="409.9918,-1170.3638 420.2682,-1167.7858 410.6271,-1163.3927 409.9918,-1170.3638"/>
</g>
<!-- Node9 -->
<g id="node9" class="node">
<title>Node9</title>
<g id="a_node9"><a xlink:href="../../d6/d9e/namespaceInttDefs.html#af41991588b294d4a9a89cfe7cf00439e" target="_top" xlink:title="Generate a hitsetkey for the intt.">
<polygon fill="none" stroke="#000000" points="590,-561.5 590,-581.5 721,-581.5 721,-561.5 590,-561.5"/>
<text text-anchor="middle" x="655.5" y="-568.5" font-family="FreeSans" font-size="10.00" fill="#000000">InttDefs::genHitSetKey</text>
</a>
</g>
</g>
<!-- Node8&#45;&gt;Node9 -->
<g id="edge9" class="edge">
<title>Node8&#45;&gt;Node9</title>
<path fill="none" stroke="#191970" d="M515.9528,-603.44C541.7328,-597.5394 574.4977,-590.04 601.7998,-583.7911"/>
<polygon fill="#191970" stroke="#191970" points="602.6212,-587.1936 611.5882,-581.5507 601.0593,-580.3701 602.6212,-587.1936"/>
</g>
<!-- Node10 -->
<g id="node10" class="node">
<title>Node10</title>
<g id="a_node10"><a xlink:href="../../d6/d3f/namespaceTrkrDefs.html#a418e306477093b8d17d587be70b908a3" target="_top" xlink:title="generate the common upper 16 bits for hitsetkey">
<polygon fill="none" stroke="#000000" points="759,-561.5 759,-581.5 893,-581.5 893,-561.5 759,-561.5"/>
<text text-anchor="middle" x="826" y="-568.5" font-family="FreeSans" font-size="10.00" fill="#000000">TrkrDefs::genHitSetKey</text>
</a>
</g>
</g>
<!-- Node9&#45;&gt;Node10 -->
<g id="edge10" class="edge">
<title>Node9&#45;&gt;Node10</title>
<path fill="none" stroke="#191970" d="M721.4198,-571.5C730.3389,-571.5 739.556,-571.5 748.6521,-571.5"/>
<polygon fill="#191970" stroke="#191970" points="748.8482,-575.0001 758.8481,-571.5 748.8481,-568.0001 748.8482,-575.0001"/>
</g>
<!-- Node14 -->
<g id="node14" class="node">
<title>Node14</title>
<g id="a_node14"><a xlink:href="../../d9/d85/classPHG4CylinderCellGeom.html#ab28e6403197b245275ba3613cd56ba6c" target="_top" xlink:title="PHG4CylinderCellGeom\l::check_binning_method_phi">
<polygon fill="none" stroke="#000000" points="392,-747.5 392,-779.5 552,-779.5 552,-747.5 392,-747.5"/>
<text text-anchor="start" x="400" y="-766.5" font-family="FreeSans" font-size="10.00" fill="#000000">PHG4CylinderCellGeom</text>
<text text-anchor="middle" x="472" y="-754.5" font-family="FreeSans" font-size="10.00" fill="#000000">::check_binning_method_phi</text>
</a>
</g>
</g>
<!-- Node13&#45;&gt;Node14 -->
<g id="edge14" class="edge">
<title>Node13&#45;&gt;Node14</title>
<path fill="none" stroke="#191970" d="M329.1845,-728.5667C350.5082,-733.7826 374.3377,-739.6114 396.3286,-744.9904"/>
<polygon fill="#191970" stroke="#191970" points="395.7423,-748.4502 406.2875,-747.4264 397.4055,-741.6506 395.7423,-748.4502"/>
</g>
<!-- Node15 -->
<g id="node15" class="node">
<title>Node15</title>
<g id="a_node15"><a xlink:href="../../d9/d85/classPHG4CylinderCellGeom.html#a8e9118667d576868ba0bd5e6a6686efd" target="_top" xlink:title="PHG4CylinderCellGeom\l::methodname">
<polygon fill="none" stroke="#000000" points="588,-798.5 588,-830.5 723,-830.5 723,-798.5 588,-798.5"/>
<text text-anchor="start" x="596" y="-817.5" font-family="FreeSans" font-size="10.00" fill="#000000">PHG4CylinderCellGeom</text>
<text text-anchor="middle" x="655.5" y="-805.5" font-family="FreeSans" font-size="10.00" fill="#000000">::methodname</text>
</a>
</g>
</g>
<!-- Node14&#45;&gt;Node15 -->
<g id="edge15" class="edge">
<title>Node14&#45;&gt;Node15</title>
<path fill="none" stroke="#191970" d="M529.8087,-779.5667C548.2374,-784.6886 568.7928,-790.4015 587.8542,-795.6993"/>
<polygon fill="#191970" stroke="#191970" points="587.0947,-799.1208 597.6667,-798.4264 588.9692,-792.3764 587.0947,-799.1208"/>
</g>
<!-- Node16&#45;&gt;Node14 -->
<g id="edge17" class="edge">
<title>Node16&#45;&gt;Node14</title>
<path fill="none" stroke="#191970" d="M330.0743,-677.5492C338.945,-680.4558 347.8009,-683.7694 356,-687.5 387.8684,-702.0002 420.9624,-724.5507 443.6061,-741.3265"/>
<polygon fill="#191970" stroke="#191970" points="441.6512,-744.2356 451.7485,-747.4444 445.8562,-738.6392 441.6512,-744.2356"/>
</g>
<!-- Node17&#45;&gt;Node14 -->
<g id="edge19" class="edge">
<title>Node17&#45;&gt;Node14</title>
<path fill="none" stroke="#191970" d="M329.1845,-798.4333C350.5082,-793.2174 374.3377,-787.3886 396.3286,-782.0096"/>
<polygon fill="#191970" stroke="#191970" points="397.4055,-785.3494 406.2875,-779.5736 395.7423,-778.5498 397.4055,-785.3494"/>
</g>
<!-- Node20 -->
<g id="node20" class="node">
<title>Node20</title>
<g id="a_node20"><a xlink:href="../../d9/d85/classPHG4CylinderCellGeom.html#a68f0276a8f9bdb6059c1e286a0465100" target="_top" xlink:title="PHG4CylinderCellGeom\l::check_binning_method">
<polygon fill="none" stroke="#000000" points="402.5,-874.5 402.5,-906.5 541.5,-906.5 541.5,-874.5 402.5,-874.5"/>
<text text-anchor="start" x="410.5" y="-893.5" font-family="FreeSans" font-size="10.00" fill="#000000">PHG4CylinderCellGeom</text>
<text text-anchor="middle" x="472" y="-881.5" font-family="FreeSans" font-size="10.00" fill="#000000">::check_binning_method</text>
</a>
</g>
</g>
<!-- Node19&#45;&gt;Node20 -->
<g id="edge22" class="edge">
<title>Node19&#45;&gt;Node20</title>
<path fill="none" stroke="#191970" d="M331.194,-908.0585C350.6228,-905.6358 371.9912,-902.9711 392.0826,-900.4657"/>
<polygon fill="#191970" stroke="#191970" points="392.651,-903.922 402.141,-899.2114 391.7847,-896.9758 392.651,-903.922"/>
</g>
<!-- Node20&#45;&gt;Node15 -->
<g id="edge23" class="edge">
<title>Node20&#45;&gt;Node15</title>
<path fill="none" stroke="#191970" d="M510.9156,-874.3824C539.0151,-862.7444 577.1442,-846.9525 607.1917,-834.5078"/>
<polygon fill="#191970" stroke="#191970" points="608.7408,-837.6546 616.6405,-830.5944 606.0622,-831.1873 608.7408,-837.6546"/>
</g>
<!-- Node21&#45;&gt;Node20 -->
<g id="edge25" class="edge">
<title>Node21&#45;&gt;Node20</title>
<path fill="none" stroke="#191970" d="M331.194,-873.6168C350.6228,-875.9464 371.9912,-878.5085 392.0826,-880.9176"/>
<polygon fill="#191970" stroke="#191970" points="391.7954,-884.4081 402.141,-882.1236 392.6288,-877.4579 391.7954,-884.4081"/>
</g>
<!-- Node22&#45;&gt;Node20 -->
<g id="edge27" class="edge">
<title>Node22&#45;&gt;Node20</title>
<path fill="none" stroke="#191970" d="M331.3073,-1044.4914C339.9868,-1041.3207 348.461,-1037.3845 356,-1032.5 402.4425,-1002.4098 439.3008,-947.7061 458.1757,-915.6924"/>
<polygon fill="#191970" stroke="#191970" points="461.2701,-917.3324 463.2315,-906.9207 455.2054,-913.8368 461.2701,-917.3324"/>
</g>
<!-- Node26 -->
<g id="node26" class="node">
<title>Node26</title>
<g id="a_node26"><a xlink:href="../../d6/d3f/namespaceTrkrDefs.html#a201667d02154da2cdaa4780616ea0c32" target="_top" xlink:title="Get a valid low / hi range for hitsetkey given tracker id &amp; layer.">
<polygon fill="none" stroke="#000000" points="400.5,-522.5 400.5,-542.5 543.5,-542.5 543.5,-522.5 400.5,-522.5"/>
<text text-anchor="middle" x="472" y="-529.5" font-family="FreeSans" font-size="10.00" fill="#000000">TrkrDefs::getHitSetKeyLo</text>
</a>
</g>
</g>
<!-- Node25&#45;&gt;Node26 -->
<g id="edge31" class="edge">
<title>Node25&#45;&gt;Node26</title>
<path fill="none" stroke="#191970" d="M322.1337,-532.5C343.3278,-532.5 367.6551,-532.5 390.4588,-532.5"/>
<polygon fill="#191970" stroke="#191970" points="390.4672,-536.0001 400.4672,-532.5 390.4672,-529.0001 390.4672,-536.0001"/>
</g>
<!-- Node27 -->
<g id="node27" class="node">
<title>Node27</title>
<g id="a_node27"><a xlink:href="../../d6/d3f/namespaceTrkrDefs.html#adc0b8a9c794036b9adb3ff5567636f02" target="_top" xlink:title="TrkrDefs::getHitSetKeyHi">
<polygon fill="none" stroke="#000000" points="401.5,-561.5 401.5,-581.5 542.5,-581.5 542.5,-561.5 401.5,-561.5"/>
<text text-anchor="middle" x="472" y="-568.5" font-family="FreeSans" font-size="10.00" fill="#000000">TrkrDefs::getHitSetKeyHi</text>
</a>
</g>
</g>
<!-- Node25&#45;&gt;Node27 -->
<g id="edge33" class="edge">
<title>Node25&#45;&gt;Node27</title>
<path fill="none" stroke="#191970" d="M322.1337,-543.4675C349.0594,-548.5039 381.0422,-554.4863 408.5331,-559.6285"/>
<polygon fill="#191970" stroke="#191970" points="407.9674,-563.0833 418.4404,-561.4817 409.2545,-556.2026 407.9674,-563.0833"/>
</g>
<!-- Node26&#45;&gt;Node9 -->
<g id="edge32" class="edge">
<title>Node26&#45;&gt;Node9</title>
<path fill="none" stroke="#191970" d="M519.2558,-542.5435C543.4424,-547.684 573.0722,-553.9813 598.5157,-559.3889"/>
<polygon fill="#191970" stroke="#191970" points="597.8952,-562.8351 608.4043,-561.4906 599.3505,-555.988 597.8952,-562.8351"/>
</g>
<!-- Node27&#45;&gt;Node9 -->
<g id="edge34" class="edge">
<title>Node27&#45;&gt;Node9</title>
<path fill="none" stroke="#191970" d="M542.6834,-571.5C554.8304,-571.5 567.4982,-571.5 579.7713,-571.5"/>
<polygon fill="#191970" stroke="#191970" points="579.9678,-575.0001 589.9678,-571.5 579.9677,-568.0001 579.9678,-575.0001"/>
</g>
<!-- Node35&#45;&gt;Node28 -->
<g id="edge44" class="edge">
<title>Node35&#45;&gt;Node28</title>
<path fill="none" stroke="#191970" d="M324.6481,-119.6974C353.329,-125.8875 387.2926,-133.2178 415.3802,-139.2799"/>
<polygon fill="#191970" stroke="#191970" points="414.9284,-142.7629 425.4417,-141.4514 416.4052,-135.9204 414.9284,-142.7629"/>
</g>
<!-- Node36 -->
<g id="node36" class="node">
<title>Node36</title>
<g id="a_node36"><a xlink:href="../../d0/d2c/classTrkrClusterContainer.html#a634dd469c29e7dfc40447ddb710e3912" target="_top" xlink:title="TrkrClusterContainer\l::size">
<polygon fill="none" stroke="#000000" points="411,-90.5 411,-122.5 533,-122.5 533,-90.5 411,-90.5"/>
<text text-anchor="start" x="419" y="-109.5" font-family="FreeSans" font-size="10.00" fill="#000000">TrkrClusterContainer</text>
<text text-anchor="middle" x="472" y="-97.5" font-family="FreeSans" font-size="10.00" fill="#000000">::size</text>
</a>
</g>
</g>
<!-- Node35&#45;&gt;Node36 -->
<g id="edge43" class="edge">
<title>Node35&#45;&gt;Node36</title>
<path fill="none" stroke="#191970" d="M324.6481,-106.5C348.516,-106.5 376.0423,-106.5 400.7961,-106.5"/>
<polygon fill="#191970" stroke="#191970" points="400.8531,-110.0001 410.853,-106.5 400.853,-103.0001 400.8531,-110.0001"/>
</g>
<!-- Node37&#45;&gt;Node24 -->
<g id="edge47" class="edge">
<title>Node37&#45;&gt;Node24</title>
<path fill="none" stroke="#191970" d="M317.1939,-458.5435C345.0406,-463.7522 379.2371,-470.1487 408.401,-475.6038"/>
<polygon fill="#191970" stroke="#191970" points="408.015,-479.0922 418.488,-477.4906 409.302,-472.2115 408.015,-479.0922"/>
</g>
<!-- Node37&#45;&gt;Node28 -->
<g id="edge46" class="edge">
<title>Node37&#45;&gt;Node28</title>
<path fill="none" stroke="#191970" d="M319.7096,-445.839C332.7262,-442.9453 345.7502,-437.943 356,-429.5 438.9359,-361.1836 463.4661,-223.456 469.9191,-171.7386"/>
<polygon fill="#191970" stroke="#191970" points="473.4256,-171.8819 471.0905,-161.5476 466.4714,-171.0825 473.4256,-171.8819"/>
</g>
<!-- Node38 -->
<g id="node38" class="node">
<title>Node38</title>
<g id="a_node38"><a xlink:href="../../d6/d3f/namespaceTrkrDefs.html#a542bf66cb1037404f08212eeefdfde70" target="_top" xlink:title="Get the tracker ID from either key type.">
<polygon fill="none" stroke="#000000" points="417,-438.5 417,-458.5 527,-458.5 527,-438.5 417,-438.5"/>
<text text-anchor="middle" x="472" y="-445.5" font-family="FreeSans" font-size="10.00" fill="#000000">TrkrDefs::getTrkrId</text>
</a>
</g>
</g>
<!-- Node37&#45;&gt;Node38 -->
<g id="edge48" class="edge">
<title>Node37&#45;&gt;Node38</title>
<path fill="none" stroke="#191970" d="M319.6484,-448.5C346.504,-448.5 378.8141,-448.5 406.7559,-448.5"/>
<polygon fill="#191970" stroke="#191970" points="406.8344,-452.0001 416.8344,-448.5 406.8343,-445.0001 406.8344,-452.0001"/>
</g>
</g>
</svg>
