<?xml version="1.0" encoding="UTF-8" standalone="no"?>
<!DOCTYPE svg PUBLIC "-//W3C//DTD SVG 1.1//EN"
 "http://www.w3.org/Graphics/SVG/1.1/DTD/svg11.dtd">
<!-- Generated by graphviz version 2.40.1 (20161225.0304)
 -->
<!-- Title: FitNewton::ChiSquareGradHessian::calcValGradThread1 Pages: 1 -->
<svg width="607pt" height="143pt"
 viewBox="0.00 0.00 607.00 143.00" xmlns="http://www.w3.org/2000/svg" xmlns:xlink="http://www.w3.org/1999/xlink">
<g id="graph0" class="graph" transform="scale(1 1) rotate(0) translate(4 139)">
<title>FitNewton::ChiSquareGradHessian::calcValGradThread1</title>
<!-- Node1 -->
<g id="node1" class="node">
<title>Node1</title>
<polygon fill="#bfbfbf" stroke="#000000" points="0,-51.5 0,-83.5 165,-83.5 165,-51.5 0,-51.5"/>
<text text-anchor="start" x="8" y="-70.5" font-family="FreeSans" font-size="10.00" fill="#000000">FitNewton::ChiSquareGrad</text>
<text text-anchor="middle" x="82.5" y="-58.5" font-family="FreeSans" font-size="10.00" fill="#000000">Hessian::calcValGradThread1</text>
</g>
<!-- Node2 -->
<g id="node2" class="node">
<title>Node2</title>
<g id="a_node2"><a xlink:href="../../d2/d79/classFitNewton_1_1FunctionGradHessian.html#a2b98b1fc845541fe46246611497daa50" target="_top" xlink:title="FitNewton::FunctionGradHessian\l::calcValGrad">
<polygon fill="none" stroke="#000000" points="201,-102.5 201,-134.5 382,-134.5 382,-102.5 201,-102.5"/>
<text text-anchor="start" x="209" y="-121.5" font-family="FreeSans" font-size="10.00" fill="#000000">FitNewton::FunctionGradHessian</text>
<text text-anchor="middle" x="291.5" y="-109.5" font-family="FreeSans" font-size="10.00" fill="#000000">::calcValGrad</text>
</a>
</g>
</g>
<!-- Node1&#45;&gt;Node2 -->
<g id="edge1" class="edge">
<title>Node1&#45;&gt;Node2</title>
<path fill="none" stroke="#191970" d="M148.342,-83.5667C169.7168,-88.7826 193.6035,-94.6114 215.6471,-99.9904"/>
<polygon fill="#191970" stroke="#191970" points="215.0853,-103.456 225.63,-102.4264 216.7448,-96.6555 215.0853,-103.456"/>
</g>
<!-- Node4 -->
<g id="node4" class="node">
<title>Node4</title>
<g id="a_node4"><a xlink:href="../../d2/d79/classFitNewton_1_1FunctionGradHessian.html#a9ddf262fabef65326926ae595708901e" target="_top" xlink:title="FitNewton::FunctionGradHessian\l::Clone">
<polygon fill="none" stroke="#000000" points="201,-51.5 201,-83.5 382,-83.5 382,-51.5 201,-51.5"/>
<text text-anchor="start" x="209" y="-70.5" font-family="FreeSans" font-size="10.00" fill="#000000">FitNewton::FunctionGradHessian</text>
<text text-anchor="middle" x="291.5" y="-58.5" font-family="FreeSans" font-size="10.00" fill="#000000">::Clone</text>
</a>
</g>
</g>
<!-- Node1&#45;&gt;Node4 -->
<g id="edge3" class="edge">
<title>Node1&#45;&gt;Node4</title>
<path fill="none" stroke="#191970" d="M165.1023,-67.5C173.5493,-67.5 182.1961,-67.5 190.8084,-67.5"/>
<polygon fill="#191970" stroke="#191970" points="190.8886,-71.0001 200.8885,-67.5 190.8885,-64.0001 190.8886,-71.0001"/>
</g>
<!-- Node5 -->
<g id="node5" class="node">
<title>Node5</title>
<g id="a_node5"><a xlink:href="../../d2/d79/classFitNewton_1_1FunctionGradHessian.html#a5561d8485787ff8c8c1fd4054c3bf453" target="_top" xlink:title="FitNewton::FunctionGradHessian\l::setFixedPar">
<polygon fill="none" stroke="#000000" points="201,-.5 201,-32.5 382,-32.5 382,-.5 201,-.5"/>
<text text-anchor="start" x="209" y="-19.5" font-family="FreeSans" font-size="10.00" fill="#000000">FitNewton::FunctionGradHessian</text>
<text text-anchor="middle" x="291.5" y="-7.5" font-family="FreeSans" font-size="10.00" fill="#000000">::setFixedPar</text>
</a>
</g>
</g>
<!-- Node1&#45;&gt;Node5 -->
<g id="edge4" class="edge">
<title>Node1&#45;&gt;Node5</title>
<path fill="none" stroke="#191970" d="M148.342,-51.4333C169.7168,-46.2174 193.6035,-40.3886 215.6471,-35.0096"/>
<polygon fill="#191970" stroke="#191970" points="216.7448,-38.3445 225.63,-32.5736 215.0853,-31.544 216.7448,-38.3445"/>
</g>
<!-- Node3 -->
<g id="node3" class="node">
<title>Node3</title>
<g id="a_node3"><a xlink:href="../../d2/d79/classFitNewton_1_1FunctionGradHessian.html#a8729f39d9e6aebf8487c3e7aee166712" target="_top" xlink:title="FitNewton::FunctionGradHessian\l::calcValGradHessian">
<polygon fill="none" stroke="#000000" points="418,-102.5 418,-134.5 599,-134.5 599,-102.5 418,-102.5"/>
<text text-anchor="start" x="426" y="-121.5" font-family="FreeSans" font-size="10.00" fill="#000000">FitNewton::FunctionGradHessian</text>
<text text-anchor="middle" x="508.5" y="-109.5" font-family="FreeSans" font-size="10.00" fill="#000000">::calcValGradHessian</text>
</a>
</g>
</g>
<!-- Node2&#45;&gt;Node3 -->
<g id="edge2" class="edge">
<title>Node2&#45;&gt;Node3</title>
<path fill="none" stroke="#191970" d="M382.2702,-118.5C390.6096,-118.5 399.0926,-118.5 407.5149,-118.5"/>
<polygon fill="#191970" stroke="#191970" points="407.7446,-122.0001 417.7445,-118.5 407.7445,-115.0001 407.7446,-122.0001"/>
</g>
</g>
</svg>
