<?xml version="1.0" encoding="UTF-8" standalone="no"?>
<!DOCTYPE svg PUBLIC "-//W3C//DTD SVG 1.1//EN"
 "http://www.w3.org/Graphics/SVG/1.1/DTD/svg11.dtd">
<!-- Generated by graphviz version 2.40.1 (20161225.0304)
 -->
<!-- Title: Plot_Measured_Energy_EMC Pages: 1 -->
<svg width="617pt" height="389pt"
 viewBox="0.00 0.00 617.00 389.00" xmlns="http://www.w3.org/2000/svg" xmlns:xlink="http://www.w3.org/1999/xlink">
<g id="graph0" class="graph" transform="scale(1 1) rotate(0) translate(4 385)">
<title>Plot_Measured_Energy_EMC</title>
<!-- Node1 -->
<g id="node1" class="node">
<title>Node1</title>
<polygon fill="#bfbfbf" stroke="#000000" points="0,-145.5 0,-165.5 157,-165.5 157,-145.5 0,-145.5"/>
<text text-anchor="middle" x="78.5" y="-152.5" font-family="FreeSans" font-size="10.00" fill="#000000">Plot_Measured_Energy_EMC</text>
</g>
<!-- Node2 -->
<g id="node2" class="node">
<title>Node2</title>
<g id="a_node2"><a xlink:href="../../d8/d44/Plot-Measured__Energy-EMC_8C.html#a59232e73852b2f3c6edcc7d1d558513a" target="_top" xlink:title="draw_histogram">
<polygon fill="none" stroke="#000000" points="216,-284.5 216,-304.5 313,-304.5 313,-284.5 216,-284.5"/>
<text text-anchor="middle" x="264.5" y="-291.5" font-family="FreeSans" font-size="10.00" fill="#000000">draw_histogram</text>
</a>
</g>
</g>
<!-- Node1&#45;&gt;Node2 -->
<g id="edge1" class="edge">
<title>Node1&#45;&gt;Node2</title>
<path fill="none" stroke="#191970" d="M85.9665,-165.5297C102.7479,-187.4142 145.6985,-239.8584 193,-269.5 200.0506,-273.9182 207.9837,-277.6797 215.9325,-280.8391"/>
<polygon fill="#191970" stroke="#191970" points="214.9843,-284.2198 225.5777,-284.3979 217.4075,-277.6526 214.9843,-284.2198"/>
</g>
<!-- Node6 -->
<g id="node6" class="node">
<title>Node6</title>
<g id="a_node6"><a xlink:href="../../d8/d44/Plot-Measured__Energy-EMC_8C.html#a22a6b84f3b2a40857ee9e5e4be7d0e74" target="_top" xlink:title="generate_histogram_name">
<polygon fill="none" stroke="#000000" points="372,-243.5 372,-263.5 524,-263.5 524,-243.5 372,-243.5"/>
<text text-anchor="middle" x="448" y="-250.5" font-family="FreeSans" font-size="10.00" fill="#000000">generate_histogram_name</text>
</a>
</g>
</g>
<!-- Node1&#45;&gt;Node6 -->
<g id="edge12" class="edge">
<title>Node1&#45;&gt;Node6</title>
<path fill="none" stroke="#191970" d="M92.4982,-165.6519C113.2984,-180.1774 154.104,-206.5619 193,-219.5 247.417,-237.6009 311.3982,-246.0975 361.659,-250.0706"/>
<polygon fill="#191970" stroke="#191970" points="361.6116,-253.5767 371.8439,-250.829 362.1315,-246.596 361.6116,-253.5767"/>
</g>
<!-- Node8 -->
<g id="node8" class="node">
<title>Node8</title>
<g id="a_node8"><a xlink:href="../../d8/d44/Plot-Measured__Energy-EMC_8C.html#a145052f0cfdfa7ee114b16cfb5bb056a" target="_top" xlink:title="generate_canvas_name">
<polygon fill="none" stroke="#000000" points="380,-204.5 380,-224.5 516,-224.5 516,-204.5 380,-204.5"/>
<text text-anchor="middle" x="448" y="-211.5" font-family="FreeSans" font-size="10.00" fill="#000000">generate_canvas_name</text>
</a>
</g>
</g>
<!-- Node1&#45;&gt;Node8 -->
<g id="edge8" class="edge">
<title>Node1&#45;&gt;Node8</title>
<path fill="none" stroke="#191970" d="M99.4542,-165.532C121.9906,-175.8016 159.1558,-191.2525 193,-198.5 251.3322,-210.9914 318.7501,-214.7741 369.6095,-215.5507"/>
<polygon fill="#191970" stroke="#191970" points="369.8369,-219.0535 379.877,-215.6703 369.9185,-212.054 369.8369,-219.0535"/>
</g>
<!-- Node9 -->
<g id="node9" class="node">
<title>Node9</title>
<g id="a_node9"><a xlink:href="../../d8/d44/Plot-Measured__Energy-EMC_8C.html#aa4a9d7bdcf55a705d2f9fe719247aff3" target="_top" xlink:title="generate_canvas_title">
<polygon fill="none" stroke="#000000" points="201,-168.5 201,-188.5 328,-188.5 328,-168.5 201,-168.5"/>
<text text-anchor="middle" x="264.5" y="-175.5" font-family="FreeSans" font-size="10.00" fill="#000000">generate_canvas_title</text>
</a>
</g>
</g>
<!-- Node1&#45;&gt;Node9 -->
<g id="edge10" class="edge">
<title>Node1&#45;&gt;Node9</title>
<path fill="none" stroke="#191970" d="M157.1111,-165.2207C168.2699,-166.6006 179.7119,-168.0155 190.7734,-169.3833"/>
<polygon fill="#191970" stroke="#191970" points="190.452,-172.8701 200.806,-170.6239 191.3111,-165.923 190.452,-172.8701"/>
</g>
<!-- Node10 -->
<g id="node10" class="node">
<title>Node10</title>
<g id="a_node10"><a xlink:href="../../d8/d44/Plot-Measured__Energy-EMC_8C.html#a64e58f61bcd6f8728bfc9d9d54a80a93" target="_top" xlink:title="generate_legend_entry\l_label">
<polygon fill="none" stroke="#000000" points="197.5,-117.5 197.5,-149.5 331.5,-149.5 331.5,-117.5 197.5,-117.5"/>
<text text-anchor="start" x="205.5" y="-136.5" font-family="FreeSans" font-size="10.00" fill="#000000">generate_legend_entry</text>
<text text-anchor="middle" x="264.5" y="-124.5" font-family="FreeSans" font-size="10.00" fill="#000000">_label</text>
</a>
</g>
</g>
<!-- Node1&#45;&gt;Node10 -->
<g id="edge13" class="edge">
<title>Node1&#45;&gt;Node10</title>
<path fill="none" stroke="#191970" d="M157.1111,-146.2019C167.0453,-145.0269 177.2039,-143.8253 187.1187,-142.6526"/>
<polygon fill="#191970" stroke="#191970" points="187.8234,-146.0938 197.3431,-141.4433 187.0011,-139.1422 187.8234,-146.0938"/>
</g>
<!-- Node11 -->
<g id="node11" class="node">
<title>Node11</title>
<g id="a_node11"><a xlink:href="../../d8/d44/Plot-Measured__Energy-EMC_8C.html#acaafcf6a04369a9ad94e0fde43b04d8e" target="_top" xlink:title="generate_legend_header">
<polygon fill="none" stroke="#000000" points="193,-78.5 193,-98.5 336,-98.5 336,-78.5 193,-78.5"/>
<text text-anchor="middle" x="264.5" y="-85.5" font-family="FreeSans" font-size="10.00" fill="#000000">generate_legend_header</text>
</a>
</g>
</g>
<!-- Node1&#45;&gt;Node11 -->
<g id="edge15" class="edge">
<title>Node1&#45;&gt;Node11</title>
<path fill="none" stroke="#191970" d="M101.012,-145.3444C123.8886,-135.2426 160.4869,-119.6776 193,-108.5 200.2042,-106.0233 207.8928,-103.6242 215.4583,-101.3989"/>
<polygon fill="#191970" stroke="#191970" points="216.6341,-104.7028 225.2818,-98.5816 214.7044,-97.974 216.6341,-104.7028"/>
</g>
<!-- Node12 -->
<g id="node12" class="node">
<title>Node12</title>
<g id="a_node12"><a xlink:href="../../d8/d44/Plot-Measured__Energy-EMC_8C.html#a6aa360a507937e0b0a2b948ba0214497" target="_top" xlink:title="generate_save_file_path">
<polygon fill="none" stroke="#000000" points="195,-39.5 195,-59.5 334,-59.5 334,-39.5 195,-39.5"/>
<text text-anchor="middle" x="264.5" y="-46.5" font-family="FreeSans" font-size="10.00" fill="#000000">generate_save_file_path</text>
</a>
</g>
</g>
<!-- Node1&#45;&gt;Node12 -->
<g id="edge17" class="edge">
<title>Node1&#45;&gt;Node12</title>
<path fill="none" stroke="#191970" d="M88.9611,-145.4675C108.0877,-127.652 150.642,-90.4058 193,-69.5 198.1833,-66.9418 203.7446,-64.6661 209.3925,-62.6525"/>
<polygon fill="#191970" stroke="#191970" points="210.5273,-65.9638 218.9277,-59.5076 208.3346,-59.316 210.5273,-65.9638"/>
</g>
<!-- Node13 -->
<g id="node13" class="node">
<title>Node13</title>
<g id="a_node13"><a xlink:href="../../d1/d95/sPhenixStyle_8C.html#a40c9ca7bea26e6a08182ceb8298869e7" target="_top" xlink:title="sPHENIX Style, based on a style file from ATLAS by Peter Steinberg">
<polygon fill="none" stroke="#000000" points="216,-.5 216,-20.5 313,-20.5 313,-.5 216,-.5"/>
<text text-anchor="middle" x="264.5" y="-7.5" font-family="FreeSans" font-size="10.00" fill="#000000">SetsPhenixStyle</text>
</a>
</g>
</g>
<!-- Node1&#45;&gt;Node13 -->
<g id="edge19" class="edge">
<title>Node1&#45;&gt;Node13</title>
<path fill="none" stroke="#191970" d="M84.8253,-145.1879C100.1894,-121.0398 141.9881,-60.5274 193,-29.5 197.1048,-27.0033 201.5366,-24.8306 206.1122,-22.9404"/>
<polygon fill="#191970" stroke="#191970" points="207.4635,-26.1729 215.6474,-19.4443 205.0537,-19.6007 207.4635,-26.1729"/>
</g>
<!-- Node3 -->
<g id="node3" class="node">
<title>Node3</title>
<g id="a_node3"><a xlink:href="../../d2/d2c/LivePlot-Energy-EMC_8C.html#a88a38eaa6ac7846e1bfd468c2b253d92" target="_top" xlink:title="fill_histogram">
<polygon fill="none" stroke="#000000" points="405.5,-360.5 405.5,-380.5 490.5,-380.5 490.5,-360.5 405.5,-360.5"/>
<text text-anchor="middle" x="448" y="-367.5" font-family="FreeSans" font-size="10.00" fill="#000000">fill_histogram</text>
</a>
</g>
</g>
<!-- Node2&#45;&gt;Node3 -->
<g id="edge2" class="edge">
<title>Node2&#45;&gt;Node3</title>
<path fill="none" stroke="#191970" d="M280.6694,-304.6806C301.2101,-317.2301 338.0759,-338.4879 372,-351.5 379.4107,-354.3425 387.3923,-356.8764 395.2993,-359.0947"/>
<polygon fill="#191970" stroke="#191970" points="394.6627,-362.547 405.2264,-361.7353 396.4621,-355.7823 394.6627,-362.547"/>
</g>
<!-- Node4 -->
<g id="node4" class="node">
<title>Node4</title>
<g id="a_node4"><a xlink:href="../../d2/d2c/LivePlot-Energy-EMC_8C.html#a60bcdbc8babe643efb2f9fcf53eda7a1" target="_top" xlink:title="generate_file_path">
<polygon fill="none" stroke="#000000" points="393,-321.5 393,-341.5 503,-341.5 503,-321.5 393,-321.5"/>
<text text-anchor="middle" x="448" y="-328.5" font-family="FreeSans" font-size="10.00" fill="#000000">generate_file_path</text>
</a>
</g>
</g>
<!-- Node2&#45;&gt;Node4 -->
<g id="edge3" class="edge">
<title>Node2&#45;&gt;Node4</title>
<path fill="none" stroke="#191970" d="M313.1929,-304.3182C336.2429,-308.9659 363.9818,-314.559 388.2895,-319.4603"/>
<polygon fill="#191970" stroke="#191970" points="387.6255,-322.8968 398.1201,-321.4425 389.0092,-316.0349 387.6255,-322.8968"/>
</g>
<!-- Node2&#45;&gt;Node6 -->
<g id="edge5" class="edge">
<title>Node2&#45;&gt;Node6</title>
<path fill="none" stroke="#191970" d="M309.3892,-284.4703C334.6036,-278.8365 366.2725,-271.7606 392.9724,-265.795"/>
<polygon fill="#191970" stroke="#191970" points="393.9422,-269.1647 402.9383,-263.5683 392.4157,-262.3331 393.9422,-269.1647"/>
</g>
<!-- Node7 -->
<g id="node7" class="node">
<title>Node7</title>
<g id="a_node7"><a xlink:href="../../d2/d2c/LivePlot-Energy-EMC_8C.html#a54c0e7ebd0f1cc22a5ca8fbda9dbd671" target="_top" xlink:title="load_tree">
<polygon fill="none" stroke="#000000" points="416.5,-282.5 416.5,-302.5 479.5,-302.5 479.5,-282.5 416.5,-282.5"/>
<text text-anchor="middle" x="448" y="-289.5" font-family="FreeSans" font-size="10.00" fill="#000000">load_tree</text>
</a>
</g>
</g>
<!-- Node2&#45;&gt;Node7 -->
<g id="edge7" class="edge">
<title>Node2&#45;&gt;Node7</title>
<path fill="none" stroke="#191970" d="M313.1929,-293.9693C342.1909,-293.6532 378.61,-293.2563 406.2822,-292.9547"/>
<polygon fill="#191970" stroke="#191970" points="406.4646,-296.453 416.4259,-292.8441 406.3883,-289.4534 406.4646,-296.453"/>
</g>
<!-- Node5 -->
<g id="node5" class="node">
<title>Node5</title>
<g id="a_node5"><a xlink:href="../../d2/d2c/LivePlot-Energy-EMC_8C.html#ab1cc1a3ff560049e22576031c7c2345b" target="_top" xlink:title="strdup">
<polygon fill="none" stroke="#000000" points="560,-165.5 560,-185.5 609,-185.5 609,-165.5 560,-165.5"/>
<text text-anchor="middle" x="584.5" y="-172.5" font-family="FreeSans" font-size="10.00" fill="#000000">strdup</text>
</a>
</g>
</g>
<!-- Node4&#45;&gt;Node5 -->
<g id="edge4" class="edge">
<title>Node4&#45;&gt;Node5</title>
<path fill="none" stroke="#191970" d="M503.2365,-324.1034C510.7658,-321.3358 517.9665,-317.5816 524,-312.5 560.1502,-282.0535 575.4661,-225.7703 581.3084,-195.693"/>
<polygon fill="#191970" stroke="#191970" points="584.8059,-196.015 583.1074,-185.5572 577.9136,-194.7916 584.8059,-196.015"/>
</g>
<!-- Node6&#45;&gt;Node5 -->
<g id="edge6" class="edge">
<title>Node6&#45;&gt;Node5</title>
<path fill="none" stroke="#191970" d="M502.9024,-243.4945C510.2342,-241.1002 517.4677,-238.1446 524,-234.5 542.2871,-224.2971 558.9896,-207.1303 570.1896,-193.9369"/>
<polygon fill="#191970" stroke="#191970" points="573.0964,-195.9111 576.7164,-185.9539 567.6771,-191.4804 573.0964,-195.9111"/>
</g>
<!-- Node8&#45;&gt;Node5 -->
<g id="edge9" class="edge">
<title>Node8&#45;&gt;Node5</title>
<path fill="none" stroke="#191970" d="M483.1521,-204.4565C503.695,-198.5871 529.5165,-191.2096 549.9543,-185.3702"/>
<polygon fill="#191970" stroke="#191970" points="551.147,-188.6696 559.8007,-182.557 549.2239,-181.9389 551.147,-188.6696"/>
</g>
<!-- Node9&#45;&gt;Node5 -->
<g id="edge11" class="edge">
<title>Node9&#45;&gt;Node5</title>
<path fill="none" stroke="#191970" d="M328.1043,-177.9037C394.6075,-177.2802 496.5333,-176.3247 549.6232,-175.827"/>
<polygon fill="#191970" stroke="#191970" points="549.9062,-179.3246 559.8729,-175.7309 549.8405,-172.3249 549.9062,-179.3246"/>
</g>
<!-- Node10&#45;&gt;Node5 -->
<g id="edge14" class="edge">
<title>Node10&#45;&gt;Node5</title>
<path fill="none" stroke="#191970" d="M331.5825,-142.3046C398.1081,-151.0361 497.4302,-164.0721 549.6072,-170.9203"/>
<polygon fill="#191970" stroke="#191970" points="549.3233,-174.413 559.6938,-172.2442 550.2343,-167.4725 549.3233,-174.413"/>
</g>
<!-- Node11&#45;&gt;Node5 -->
<g id="edge16" class="edge">
<title>Node11&#45;&gt;Node5</title>
<path fill="none" stroke="#191970" d="M336.1922,-98.2059C389.1426,-106.6821 462.4097,-121.1791 524,-143.5 536.1827,-147.9151 548.9649,-154.3757 559.6251,-160.3378"/>
<polygon fill="#191970" stroke="#191970" points="557.967,-163.4219 568.3783,-165.385 561.4636,-157.3577 557.967,-163.4219"/>
</g>
<!-- Node12&#45;&gt;Node5 -->
<g id="edge18" class="edge">
<title>Node12&#45;&gt;Node5</title>
<path fill="none" stroke="#191970" d="M334.0952,-50.8165C389.1502,-54.7036 466.1233,-66.681 524,-101.5 546.1091,-114.801 563.6795,-139.2426 574.0686,-156.3856"/>
<polygon fill="#191970" stroke="#191970" points="571.3006,-158.5907 579.3358,-165.4963 577.3608,-155.0871 571.3006,-158.5907"/>
</g>
<!-- Node14 -->
<g id="node14" class="node">
<title>Node14</title>
<g id="a_node14"><a xlink:href="../../d1/d95/sPhenixStyle_8C.html#a2b14fe9277832cb4dbdc473f44df99b4" target="_top" xlink:title="sPhenixStyle">
<polygon fill="none" stroke="#000000" points="407.5,-.5 407.5,-20.5 488.5,-20.5 488.5,-.5 407.5,-.5"/>
<text text-anchor="middle" x="448" y="-7.5" font-family="FreeSans" font-size="10.00" fill="#000000">sPhenixStyle</text>
</a>
</g>
</g>
<!-- Node13&#45;&gt;Node14 -->
<g id="edge20" class="edge">
<title>Node13&#45;&gt;Node14</title>
<path fill="none" stroke="#191970" d="M313.1929,-10.5C339.1574,-10.5 371.0715,-10.5 397.3291,-10.5"/>
<polygon fill="#191970" stroke="#191970" points="397.4595,-14.0001 407.4595,-10.5 397.4594,-7.0001 397.4595,-14.0001"/>
</g>
</g>
</svg>
