<?xml version="1.0" encoding="UTF-8" standalone="no"?>
<!DOCTYPE svg PUBLIC "-//W3C//DTD SVG 1.1//EN"
 "http://www.w3.org/Graphics/SVG/1.1/DTD/svg11.dtd">
<!-- Generated by graphviz version 2.40.1 (20161225.0304)
 -->
<!-- Title: PHParametersContainer::FillFrom Pages: 1 -->
<svg width="509pt" height="143pt"
 viewBox="0.00 0.00 509.00 143.00" xmlns="http://www.w3.org/2000/svg" xmlns:xlink="http://www.w3.org/1999/xlink">
<g id="graph0" class="graph" transform="scale(1 1) rotate(0) translate(4 139)">
<title>PHParametersContainer::FillFrom</title>
<!-- Node1 -->
<g id="node1" class="node">
<title>Node1</title>
<polygon fill="#bfbfbf" stroke="#000000" points="0,-28.5 0,-60.5 137,-60.5 137,-28.5 0,-28.5"/>
<text text-anchor="start" x="8" y="-47.5" font-family="FreeSans" font-size="10.00" fill="#000000">PHParametersContainer</text>
<text text-anchor="middle" x="68.5" y="-35.5" font-family="FreeSans" font-size="10.00" fill="#000000">::FillFrom</text>
</g>
<!-- Node2 -->
<g id="node2" class="node">
<title>Node2</title>
<g id="a_node2"><a xlink:href="../../dd/dae/classPHParameters.html#a60173f5ff12c567632583ea619a7d2fb" target="_top" xlink:title="PHParameters::FillFrom">
<polygon fill="none" stroke="#000000" points="186,-57.5 186,-77.5 319,-77.5 319,-57.5 186,-57.5"/>
<text text-anchor="middle" x="252.5" y="-64.5" font-family="FreeSans" font-size="10.00" fill="#000000">PHParameters::FillFrom</text>
</a>
</g>
</g>
<!-- Node1&#45;&gt;Node2 -->
<g id="edge1" class="edge">
<title>Node1&#45;&gt;Node2</title>
<path fill="none" stroke="#191970" d="M137.0148,-53.0644C149.592,-54.6365 162.7967,-56.2871 175.6003,-57.8875"/>
<polygon fill="#191970" stroke="#191970" points="175.4059,-61.3904 185.7628,-59.1579 176.2742,-54.4444 175.4059,-61.3904"/>
</g>
<!-- Node6 -->
<g id="node6" class="node">
<title>Node6</title>
<g id="a_node6"><a xlink:href="../../d4/d7d/classPdbParameterMapContainer.html#a1ec2a6c2416d44a99458cf8c7f1c31a5" target="_top" xlink:title="PdbParameterMapContainer\l::get_ParameterMaps">
<polygon fill="none" stroke="#000000" points="173,-6.5 173,-38.5 332,-38.5 332,-6.5 173,-6.5"/>
<text text-anchor="start" x="181" y="-25.5" font-family="FreeSans" font-size="10.00" fill="#000000">PdbParameterMapContainer</text>
<text text-anchor="middle" x="252.5" y="-13.5" font-family="FreeSans" font-size="10.00" fill="#000000">::get_ParameterMaps</text>
</a>
</g>
</g>
<!-- Node1&#45;&gt;Node6 -->
<g id="edge5" class="edge">
<title>Node1&#45;&gt;Node6</title>
<path fill="none" stroke="#191970" d="M137.0148,-36.308C145.3868,-35.307 154.0369,-34.2728 162.6616,-33.2415"/>
<polygon fill="#191970" stroke="#191970" points="163.2427,-36.6971 172.7565,-32.0346 162.4116,-29.7466 163.2427,-36.6971"/>
</g>
<!-- Node3 -->
<g id="node3" class="node">
<title>Node3</title>
<g id="a_node3"><a xlink:href="../../d8/d21/classPdbParameterMap.html#ab0e99129bc91837311172241b78f4c82" target="_top" xlink:title="PdbParameterMap::get\l_cparam_iters">
<polygon fill="none" stroke="#000000" points="368,-102.5 368,-134.5 501,-134.5 501,-102.5 368,-102.5"/>
<text text-anchor="start" x="376" y="-121.5" font-family="FreeSans" font-size="10.00" fill="#000000">PdbParameterMap::get</text>
<text text-anchor="middle" x="434.5" y="-109.5" font-family="FreeSans" font-size="10.00" fill="#000000">_cparam_iters</text>
</a>
</g>
</g>
<!-- Node2&#45;&gt;Node3 -->
<g id="edge2" class="edge">
<title>Node2&#45;&gt;Node3</title>
<path fill="none" stroke="#191970" d="M288.4573,-77.576C310.9697,-83.8844 340.6812,-92.2101 367.425,-99.7042"/>
<polygon fill="#191970" stroke="#191970" points="366.5513,-103.0942 377.1249,-102.4223 368.4402,-96.3538 366.5513,-103.0942"/>
</g>
<!-- Node4 -->
<g id="node4" class="node">
<title>Node4</title>
<g id="a_node4"><a xlink:href="../../d8/d21/classPdbParameterMap.html#ade341cd2fa2ac009cd6e7741e728f85b" target="_top" xlink:title="PdbParameterMap::get\l_dparam_iters">
<polygon fill="none" stroke="#000000" points="368,-51.5 368,-83.5 501,-83.5 501,-51.5 368,-51.5"/>
<text text-anchor="start" x="376" y="-70.5" font-family="FreeSans" font-size="10.00" fill="#000000">PdbParameterMap::get</text>
<text text-anchor="middle" x="434.5" y="-58.5" font-family="FreeSans" font-size="10.00" fill="#000000">_dparam_iters</text>
</a>
</g>
</g>
<!-- Node2&#45;&gt;Node4 -->
<g id="edge3" class="edge">
<title>Node2&#45;&gt;Node4</title>
<path fill="none" stroke="#191970" d="M319.2366,-67.5C331.7246,-67.5 344.8702,-67.5 357.6354,-67.5"/>
<polygon fill="#191970" stroke="#191970" points="357.7715,-71.0001 367.7714,-67.5 357.7714,-64.0001 357.7715,-71.0001"/>
</g>
<!-- Node5 -->
<g id="node5" class="node">
<title>Node5</title>
<g id="a_node5"><a xlink:href="../../d8/d21/classPdbParameterMap.html#ac348934f368cf69d37ce7480fdcd332c" target="_top" xlink:title="PdbParameterMap::get\l_iparam_iters">
<polygon fill="none" stroke="#000000" points="368,-.5 368,-32.5 501,-32.5 501,-.5 368,-.5"/>
<text text-anchor="start" x="376" y="-19.5" font-family="FreeSans" font-size="10.00" fill="#000000">PdbParameterMap::get</text>
<text text-anchor="middle" x="434.5" y="-7.5" font-family="FreeSans" font-size="10.00" fill="#000000">_iparam_iters</text>
</a>
</g>
</g>
<!-- Node2&#45;&gt;Node5 -->
<g id="edge4" class="edge">
<title>Node2&#45;&gt;Node5</title>
<path fill="none" stroke="#191970" d="M296.7901,-57.4791C308.2948,-54.7219 320.644,-51.6258 332,-48.5 346.2386,-44.5808 361.4802,-40.0229 375.7405,-35.5969"/>
<polygon fill="#191970" stroke="#191970" points="376.9341,-38.8909 385.432,-32.5633 374.843,-32.2105 376.9341,-38.8909"/>
</g>
</g>
</svg>
