<?xml version="1.0" encoding="UTF-8" standalone="no"?>
<!DOCTYPE svg PUBLIC "-//W3C//DTD SVG 1.1//EN"
 "http://www.w3.org/Graphics/SVG/1.1/DTD/svg11.dtd">
<!-- Generated by graphviz version 2.40.1 (20161225.0304)
 -->
<!-- Title: PHHoughSeeding::full_track_seeding Pages: 1 -->
<svg width="1048pt" height="486pt"
 viewBox="0.00 0.00 1048.00 486.00" xmlns="http://www.w3.org/2000/svg" xmlns:xlink="http://www.w3.org/1999/xlink">
<g id="graph0" class="graph" transform="scale(1 1) rotate(0) translate(4 482)">
<title>PHHoughSeeding::full_track_seeding</title>
<!-- Node1 -->
<g id="node1" class="node">
<title>Node1</title>
<polygon fill="#bfbfbf" stroke="#000000" points="0,-181.5 0,-213.5 127,-213.5 127,-181.5 0,-181.5"/>
<text text-anchor="start" x="8" y="-200.5" font-family="FreeSans" font-size="10.00" fill="#000000">PHHoughSeeding::full</text>
<text text-anchor="middle" x="63.5" y="-188.5" font-family="FreeSans" font-size="10.00" fill="#000000">_track_seeding</text>
</g>
<!-- Node2 -->
<g id="node2" class="node">
<title>Node2</title>
<g id="a_node2"><a xlink:href="../../d8/dd4/classPHHoughSeeding.html#a0baac1f83c3ab6997c6816432acfdb2a" target="_top" xlink:title="PHHoughSeeding::CleanupSeeds">
<polygon fill="none" stroke="#000000" points="163,-403.5 163,-423.5 347,-423.5 347,-403.5 163,-403.5"/>
<text text-anchor="middle" x="255" y="-410.5" font-family="FreeSans" font-size="10.00" fill="#000000">PHHoughSeeding::CleanupSeeds</text>
</a>
</g>
</g>
<!-- Node1&#45;&gt;Node2 -->
<g id="edge1" class="edge">
<title>Node1&#45;&gt;Node2</title>
<path fill="none" stroke="#191970" d="M68.1756,-213.7223C79.0511,-248.6934 109.2924,-331.788 163,-378.5 173.7909,-387.8854 187.3584,-394.8748 200.7338,-400.0318"/>
<polygon fill="#191970" stroke="#191970" points="199.8022,-403.4153 210.3969,-403.4712 202.1494,-396.8205 199.8022,-403.4153"/>
</g>
<!-- Node6 -->
<g id="node6" class="node">
<title>Node6</title>
<g id="a_node6"><a xlink:href="../../da/d18/classsPHENIXSeedFinder.html#a820de147ae6f3e9c2eda1d3e76d52159" target="_top" xlink:title="sPHENIXSeedFinder::\lclear">
<polygon fill="none" stroke="#000000" points="194.5,-336.5 194.5,-368.5 315.5,-368.5 315.5,-336.5 194.5,-336.5"/>
<text text-anchor="start" x="202.5" y="-355.5" font-family="FreeSans" font-size="10.00" fill="#000000">sPHENIXSeedFinder::</text>
<text text-anchor="middle" x="255" y="-343.5" font-family="FreeSans" font-size="10.00" fill="#000000">clear</text>
</a>
</g>
</g>
<!-- Node1&#45;&gt;Node6 -->
<g id="edge5" class="edge">
<title>Node1&#45;&gt;Node6</title>
<path fill="none" stroke="#191970" d="M71.4426,-213.8384C85.7745,-241.5637 118.6433,-297.709 163,-327.5 169.6425,-331.9613 177.0571,-335.6291 184.7152,-338.6441"/>
<polygon fill="#191970" stroke="#191970" points="183.5472,-341.9434 194.1418,-342.0074 185.8995,-335.3504 183.5472,-341.9434"/>
</g>
<!-- Node7 -->
<g id="node7" class="node">
<title>Node7</title>
<g id="a_node7"><a xlink:href="../../da/d18/classsPHENIXSeedFinder.html#ae135f0f78f7f38ac0adb45ecb2534b61" target="_top" xlink:title="sPHENIXSeedFinder::\lfinalize">
<polygon fill="none" stroke="#000000" points="194.5,-285.5 194.5,-317.5 315.5,-317.5 315.5,-285.5 194.5,-285.5"/>
<text text-anchor="start" x="202.5" y="-304.5" font-family="FreeSans" font-size="10.00" fill="#000000">sPHENIXSeedFinder::</text>
<text text-anchor="middle" x="255" y="-292.5" font-family="FreeSans" font-size="10.00" fill="#000000">finalize</text>
</a>
</g>
</g>
<!-- Node1&#45;&gt;Node7 -->
<g id="edge6" class="edge">
<title>Node1&#45;&gt;Node7</title>
<path fill="none" stroke="#191970" d="M79.6313,-213.8003C98.189,-231.6649 130.3257,-259.9768 163,-276.5 169.8543,-279.9662 177.2468,-282.9972 184.757,-285.637"/>
<polygon fill="#191970" stroke="#191970" points="183.7085,-288.9765 194.3014,-288.7747 185.8947,-282.3266 183.7085,-288.9765"/>
</g>
<!-- Node22 -->
<g id="node22" class="node">
<title>Node22</title>
<g id="a_node22"><a xlink:href="../../da/d17/classHelixHough.html#a83d6142edfdcdb56d5d144ecba3bbdba" target="_top" xlink:title="HelixHough::findHelices">
<polygon fill="none" stroke="#000000" points="186,-246.5 186,-266.5 324,-266.5 324,-246.5 186,-246.5"/>
<text text-anchor="middle" x="255" y="-253.5" font-family="FreeSans" font-size="10.00" fill="#000000">HelixHough::findHelices</text>
</a>
</g>
</g>
<!-- Node1&#45;&gt;Node22 -->
<g id="edge22" class="edge">
<title>Node1&#45;&gt;Node22</title>
<path fill="none" stroke="#191970" d="M98.871,-213.5138C117.6368,-221.5488 141.2538,-230.9408 163,-237.5 171.0805,-239.9373 179.6535,-242.1656 188.1898,-244.1698"/>
<polygon fill="#191970" stroke="#191970" points="187.637,-247.633 198.1621,-246.4188 189.1771,-240.8045 187.637,-247.633"/>
</g>
<!-- Node23 -->
<g id="node23" class="node">
<title>Node23</title>
<g id="a_node23"><a xlink:href="../../d9/d02/classVertexFinder.html#a997c10ee1cd9d0dbb26f51d9910801f3" target="_top" xlink:title="VertexFinder::findVertex">
<polygon fill="none" stroke="#000000" points="185.5,-207.5 185.5,-227.5 324.5,-227.5 324.5,-207.5 185.5,-207.5"/>
<text text-anchor="middle" x="255" y="-214.5" font-family="FreeSans" font-size="10.00" fill="#000000">VertexFinder::findVertex</text>
</a>
</g>
</g>
<!-- Node1&#45;&gt;Node23 -->
<g id="edge23" class="edge">
<title>Node1&#45;&gt;Node23</title>
<path fill="none" stroke="#191970" d="M127.0007,-204.1319C142.5086,-205.7515 159.2943,-207.5046 175.4467,-209.1916"/>
<polygon fill="#191970" stroke="#191970" points="175.0955,-212.6738 185.405,-210.2316 175.8226,-205.7117 175.0955,-212.6738"/>
</g>
<!-- Node24 -->
<g id="node24" class="node">
<title>Node24</title>
<g id="a_node24"><a xlink:href="../../da/d17/classHelixHough.html#ab143be65f3fd79f37bf4c5a1cda8bf02" target="_top" xlink:title="HelixHough::getKalmanStates">
<polygon fill="none" stroke="#000000" points="170.5,-168.5 170.5,-188.5 339.5,-188.5 339.5,-168.5 170.5,-168.5"/>
<text text-anchor="middle" x="255" y="-175.5" font-family="FreeSans" font-size="10.00" fill="#000000">HelixHough::getKalmanStates</text>
</a>
</g>
</g>
<!-- Node1&#45;&gt;Node24 -->
<g id="edge24" class="edge">
<title>Node1&#45;&gt;Node24</title>
<path fill="none" stroke="#191970" d="M127.0007,-191.1997C137.5871,-190.1493 148.769,-189.0399 159.9384,-187.9317"/>
<polygon fill="#191970" stroke="#191970" points="160.5695,-191.3864 170.175,-186.9161 159.8783,-184.4206 160.5695,-191.3864"/>
</g>
<!-- Node25 -->
<g id="node25" class="node">
<title>Node25</title>
<g id="a_node25"><a xlink:href="../../d0/d5e/classPHTimer.html#a433d96c3401380d49ff01acfd16ac69c" target="_top" xlink:title="Restart timer.">
<polygon fill="none" stroke="#000000" points="394,-124.5 394,-144.5 493,-144.5 493,-124.5 394,-124.5"/>
<text text-anchor="middle" x="443.5" y="-131.5" font-family="FreeSans" font-size="10.00" fill="#000000">PHTimer::restart</text>
</a>
</g>
</g>
<!-- Node1&#45;&gt;Node25 -->
<g id="edge25" class="edge">
<title>Node1&#45;&gt;Node25</title>
<path fill="none" stroke="#191970" d="M98.6777,-181.3356C117.3907,-173.4419 141.0187,-164.5739 163,-159.5 237.7824,-142.2383 326.3239,-136.746 383.6309,-135.0797"/>
<polygon fill="#191970" stroke="#191970" points="384.052,-138.5701 393.9576,-134.8112 383.8699,-131.5724 384.052,-138.5701"/>
</g>
<!-- Node27 -->
<g id="node27" class="node">
<title>Node27</title>
<g id="a_node27"><a xlink:href="../../d8/dd4/classPHHoughSeeding.html#adb5cfd8186eb0568126d33d9077832a3" target="_top" xlink:title="translate the clusters, tracks, and vertex from one origin to another">
<polygon fill="none" stroke="#000000" points="188,-78.5 188,-110.5 322,-110.5 322,-78.5 188,-78.5"/>
<text text-anchor="start" x="196" y="-97.5" font-family="FreeSans" font-size="10.00" fill="#000000">PHHoughSeeding::shift</text>
<text text-anchor="middle" x="255" y="-85.5" font-family="FreeSans" font-size="10.00" fill="#000000">_coordinate_system</text>
</a>
</g>
</g>
<!-- Node1&#45;&gt;Node27 -->
<g id="edge27" class="edge">
<title>Node1&#45;&gt;Node27</title>
<path fill="none" stroke="#191970" d="M82.1877,-181.3101C101.3867,-165.343 132.6718,-141.124 163,-125.5 171.1424,-121.3053 179.9737,-117.4946 188.8345,-114.0938"/>
<polygon fill="#191970" stroke="#191970" points="190.2519,-117.3018 198.4296,-110.5657 187.8361,-110.7318 190.2519,-117.3018"/>
</g>
<!-- Node28 -->
<g id="node28" class="node">
<title>Node28</title>
<g id="a_node28"><a xlink:href="../../d0/d5e/classPHTimer.html#adce6f9a85834e59bd154b9c624ee4e41" target="_top" xlink:title="stops the counter">
<polygon fill="none" stroke="#000000" points="211.5,-39.5 211.5,-59.5 298.5,-59.5 298.5,-39.5 211.5,-39.5"/>
<text text-anchor="middle" x="255" y="-46.5" font-family="FreeSans" font-size="10.00" fill="#000000">PHTimer::stop</text>
</a>
</g>
</g>
<!-- Node1&#45;&gt;Node28 -->
<g id="edge28" class="edge">
<title>Node1&#45;&gt;Node28</title>
<path fill="none" stroke="#191970" d="M71.0645,-181.44C85.0405,-153.6456 117.6726,-96.8375 163,-68.5 174.4609,-61.3349 188.1431,-56.8177 201.4072,-53.9849"/>
<polygon fill="#191970" stroke="#191970" points="202.229,-57.3924 211.4251,-52.131 200.9551,-50.5092 202.229,-57.3924"/>
</g>
<!-- Node32 -->
<g id="node32" class="node">
<title>Node32</title>
<g id="a_node32"><a xlink:href="../../d5/dec/classFun4AllBase.html#a8a5c77a92bdac6bc043476e132379a40" target="_top" xlink:title="Gets the verbosity of this module.">
<polygon fill="none" stroke="#000000" points="189,-.5 189,-20.5 321,-20.5 321,-.5 189,-.5"/>
<text text-anchor="middle" x="255" y="-7.5" font-family="FreeSans" font-size="10.00" fill="#000000">Fun4AllBase::Verbosity</text>
</a>
</g>
</g>
<!-- Node1&#45;&gt;Node32 -->
<g id="edge34" class="edge">
<title>Node1&#45;&gt;Node32</title>
<path fill="none" stroke="#191970" d="M68.176,-181.2838C78.8736,-147.2669 108.5065,-68.3929 163,-29.5 167.9325,-25.9796 173.3712,-23.0809 179.0654,-20.6975"/>
<polygon fill="#191970" stroke="#191970" points="180.6354,-23.8514 188.845,-17.1542 178.2508,-17.27 180.6354,-23.8514"/>
</g>
<!-- Node3 -->
<g id="node3" class="node">
<title>Node3</title>
<g id="a_node3"><a xlink:href="../../da/d87/classSimpleHit3D.html#a6fca396cd480492078c4e640b2410973" target="_top" xlink:title="SimpleHit3D::get_id">
<polygon fill="none" stroke="#000000" points="385,-457.5 385,-477.5 502,-477.5 502,-457.5 385,-457.5"/>
<text text-anchor="middle" x="443.5" y="-464.5" font-family="FreeSans" font-size="10.00" fill="#000000">SimpleHit3D::get_id</text>
</a>
</g>
</g>
<!-- Node2&#45;&gt;Node3 -->
<g id="edge2" class="edge">
<title>Node2&#45;&gt;Node3</title>
<path fill="none" stroke="#191970" d="M290.0136,-423.5304C320.6006,-432.2927 365.185,-445.0649 398.4294,-454.5885"/>
<polygon fill="#191970" stroke="#191970" points="397.7773,-458.0425 408.3546,-457.4318 399.7051,-451.3131 397.7773,-458.0425"/>
</g>
<!-- Node4 -->
<g id="node4" class="node">
<title>Node4</title>
<g id="a_node4"><a xlink:href="../../da/d23/msg__buffer_8cc.html#a98631211a4a8aee62f572375d5b637be" target="_top" xlink:title="printf">
<polygon fill="none" stroke="#000000" points="421.5,-418.5 421.5,-438.5 465.5,-438.5 465.5,-418.5 421.5,-418.5"/>
<text text-anchor="middle" x="443.5" y="-425.5" font-family="FreeSans" font-size="10.00" fill="#000000">printf</text>
</a>
</g>
</g>
<!-- Node2&#45;&gt;Node4 -->
<g id="edge3" class="edge">
<title>Node2&#45;&gt;Node4</title>
<path fill="none" stroke="#191970" d="M347.0412,-420.8242C370.0577,-422.6558 393.25,-424.5013 411.1234,-425.9236"/>
<polygon fill="#191970" stroke="#191970" points="411.0065,-429.4253 421.2527,-426.7297 411.5619,-422.4473 411.0065,-429.4253"/>
</g>
<!-- Node5 -->
<g id="node5" class="node">
<title>Node5</title>
<g id="a_node5"><a xlink:href="../../da/d87/classSimpleHit3D.html#a35948d57f0a780ab0d48d810ff566d64" target="_top" xlink:title="SimpleHit3D::set_id">
<polygon fill="none" stroke="#000000" points="385.5,-379.5 385.5,-399.5 501.5,-399.5 501.5,-379.5 385.5,-379.5"/>
<text text-anchor="middle" x="443.5" y="-386.5" font-family="FreeSans" font-size="10.00" fill="#000000">SimpleHit3D::set_id</text>
</a>
</g>
</g>
<!-- Node2&#45;&gt;Node5 -->
<g id="edge4" class="edge">
<title>Node2&#45;&gt;Node5</title>
<path fill="none" stroke="#191970" d="M333.576,-403.4956C347.4221,-401.7327 361.7325,-399.9107 375.2663,-398.1876"/>
<polygon fill="#191970" stroke="#191970" points="375.966,-401.6268 385.4439,-396.8918 375.0819,-394.6829 375.966,-401.6268"/>
</g>
<!-- Node8 -->
<g id="node8" class="node">
<title>Node8</title>
<g id="a_node8"><a xlink:href="../../da/d18/classsPHENIXSeedFinder.html#a03552955f3dbebe6315b3dcdd8158344" target="_top" xlink:title="sPHENIXSeedFinder::\ltripletRejection">
<polygon fill="none" stroke="#000000" points="383,-328.5 383,-360.5 504,-360.5 504,-328.5 383,-328.5"/>
<text text-anchor="start" x="391" y="-347.5" font-family="FreeSans" font-size="10.00" fill="#000000">sPHENIXSeedFinder::</text>
<text text-anchor="middle" x="443.5" y="-335.5" font-family="FreeSans" font-size="10.00" fill="#000000">tripletRejection</text>
</a>
</g>
</g>
<!-- Node7&#45;&gt;Node8 -->
<g id="edge7" class="edge">
<title>Node7&#45;&gt;Node8</title>
<path fill="none" stroke="#191970" d="M315.6802,-315.3422C333.9262,-319.5044 354.1029,-324.107 372.9314,-328.4021"/>
<polygon fill="#191970" stroke="#191970" points="372.4055,-331.872 382.9335,-330.6838 373.9624,-325.0473 372.4055,-331.872"/>
</g>
<!-- Node9 -->
<g id="node9" class="node">
<title>Node9</title>
<g id="a_node9"><a xlink:href="../../da/d87/classSimpleHit3D.html#aee4615586ba114d652ae2f53a329af8b" target="_top" xlink:title="SimpleHit3D::get_layer">
<polygon fill="none" stroke="#000000" points="576.5,-324.5 576.5,-344.5 710.5,-344.5 710.5,-324.5 576.5,-324.5"/>
<text text-anchor="middle" x="643.5" y="-331.5" font-family="FreeSans" font-size="10.00" fill="#000000">SimpleHit3D::get_layer</text>
</a>
</g>
</g>
<!-- Node7&#45;&gt;Node9 -->
<g id="edge8" class="edge">
<title>Node7&#45;&gt;Node9</title>
<path fill="none" stroke="#191970" d="M315.6806,-305.2918C366.1286,-308.5869 439.7877,-313.7286 504,-319.5 524.2353,-321.3188 546.0933,-323.5447 566.3685,-325.7194"/>
<polygon fill="#191970" stroke="#191970" points="566.1754,-329.2188 576.4939,-326.815 566.9285,-322.2595 566.1754,-329.2188"/>
</g>
<!-- Node10 -->
<g id="node10" class="node">
<title>Node10</title>
<g id="a_node10"><a xlink:href="../../d8/d85/classHelixKalman.html#a7f78a3ec79f2fe6a3a1feff6d55bb836" target="_top" xlink:title="HelixKalman::addHit">
<polygon fill="none" stroke="#000000" points="383,-246.5 383,-266.5 504,-266.5 504,-246.5 383,-246.5"/>
<text text-anchor="middle" x="443.5" y="-253.5" font-family="FreeSans" font-size="10.00" fill="#000000">HelixKalman::addHit</text>
</a>
</g>
</g>
<!-- Node7&#45;&gt;Node10 -->
<g id="edge9" class="edge">
<title>Node7&#45;&gt;Node10</title>
<path fill="none" stroke="#191970" d="M315.6802,-287.014C340.1651,-281.1688 368.127,-274.4936 391.6418,-268.8799"/>
<polygon fill="#191970" stroke="#191970" points="392.5103,-272.271 401.4242,-266.5446 390.8848,-265.4624 392.5103,-272.271"/>
</g>
<!-- Node10&#45;&gt;Node9 -->
<g id="edge19" class="edge">
<title>Node10&#45;&gt;Node9</title>
<path fill="none" stroke="#191970" d="M468.085,-266.6142C479.3755,-271.6747 492.729,-278.2619 504,-285.5 521.5249,-296.7542 521.14,-306.6638 540,-315.5 548.2613,-319.3706 557.2379,-322.4541 566.3364,-324.9103"/>
<polygon fill="#191970" stroke="#191970" points="565.6831,-328.3537 576.229,-327.3369 567.3508,-321.5553 565.6831,-328.3537"/>
</g>
<!-- Node11 -->
<g id="node11" class="node">
<title>Node11</title>
<g id="a_node11"><a xlink:href="../../d8/d85/classHelixKalman.html#a4270073df4ee9ffc5f0fe83a8329211e" target="_top" xlink:title="HelixKalman::calculateMeasurements">
<polygon fill="none" stroke="#000000" points="540,-285.5 540,-305.5 747,-305.5 747,-285.5 540,-285.5"/>
<text text-anchor="middle" x="643.5" y="-292.5" font-family="FreeSans" font-size="10.00" fill="#000000">HelixKalman::calculateMeasurements</text>
</a>
</g>
</g>
<!-- Node10&#45;&gt;Node11 -->
<g id="edge10" class="edge">
<title>Node10&#45;&gt;Node11</title>
<path fill="none" stroke="#191970" d="M491.0672,-266.5831C506.6458,-269.8253 524.0476,-273.3831 540,-276.5 552.1672,-278.8773 565.1563,-281.3293 577.6768,-283.6494"/>
<polygon fill="#191970" stroke="#191970" points="577.1239,-287.1064 587.5928,-285.4778 578.3933,-280.2224 577.1239,-287.1064"/>
</g>
<!-- Node12 -->
<g id="node12" class="node">
<title>Node12</title>
<g id="a_node12"><a xlink:href="../../d8/d85/classHelixKalman.html#a55adf1f408113d0e3994b07e7d629c6b" target="_top" xlink:title="HelixKalman::calculateMSCovariance">
<polygon fill="none" stroke="#000000" points="541.5,-246.5 541.5,-266.5 745.5,-266.5 745.5,-246.5 541.5,-246.5"/>
<text text-anchor="middle" x="643.5" y="-253.5" font-family="FreeSans" font-size="10.00" fill="#000000">HelixKalman::calculateMSCovariance</text>
</a>
</g>
</g>
<!-- Node10&#45;&gt;Node12 -->
<g id="edge11" class="edge">
<title>Node10&#45;&gt;Node12</title>
<path fill="none" stroke="#191970" d="M504.0493,-256.5C512.7458,-256.5 521.9164,-256.5 531.2311,-256.5"/>
<polygon fill="#191970" stroke="#191970" points="531.3796,-260.0001 541.3796,-256.5 531.3795,-253.0001 531.3796,-260.0001"/>
</g>
<!-- Node19 -->
<g id="node19" class="node">
<title>Node19</title>
<g id="a_node19"><a xlink:href="../../d8/d85/classHelixKalman.html#a0f3fb5cf1e01e1043cea2936f7a89101" target="_top" xlink:title="HelixKalman::calculateProjections">
<polygon fill="none" stroke="#000000" points="549.5,-207.5 549.5,-227.5 737.5,-227.5 737.5,-207.5 549.5,-207.5"/>
<text text-anchor="middle" x="643.5" y="-214.5" font-family="FreeSans" font-size="10.00" fill="#000000">HelixKalman::calculateProjections</text>
</a>
</g>
</g>
<!-- Node10&#45;&gt;Node19 -->
<g id="edge18" class="edge">
<title>Node10&#45;&gt;Node19</title>
<path fill="none" stroke="#191970" d="M494.5765,-246.4087C509.2402,-243.5209 525.2519,-240.3768 540,-237.5 553.312,-234.9033 567.5903,-232.134 581.16,-229.5096"/>
<polygon fill="#191970" stroke="#191970" points="582.2167,-232.8702 591.3708,-227.5362 580.8884,-225.9974 582.2167,-232.8702"/>
</g>
<!-- Node20 -->
<g id="node20" class="node">
<title>Node20</title>
<g id="a_node20"><a xlink:href="../../d8/d85/classHelixKalman.html#aa781eb12456b35ba08e8cdc4b4001377" target="_top" xlink:title="HelixKalman::subtractProjections">
<polygon fill="none" stroke="#000000" points="551.5,-168.5 551.5,-188.5 735.5,-188.5 735.5,-168.5 551.5,-168.5"/>
<text text-anchor="middle" x="643.5" y="-175.5" font-family="FreeSans" font-size="10.00" fill="#000000">HelixKalman::subtractProjections</text>
</a>
</g>
</g>
<!-- Node10&#45;&gt;Node20 -->
<g id="edge20" class="edge">
<title>Node10&#45;&gt;Node20</title>
<path fill="none" stroke="#191970" d="M456.7761,-246.4319C474.6931,-233.351 508.0593,-210.743 540,-198.5 547.5324,-195.6128 555.5393,-193.1269 563.634,-190.9897"/>
<polygon fill="#191970" stroke="#191970" points="564.6533,-194.3433 573.5254,-188.5522 562.9783,-187.5466 564.6533,-194.3433"/>
</g>
<!-- Node21 -->
<g id="node21" class="node">
<title>Node21</title>
<g id="a_node21"><a xlink:href="../../d8/d85/classHelixKalman.html#ad161a0f331648bc2dc95aa1f780692c1" target="_top" xlink:title="HelixKalman::updateIntersection">
<polygon fill="none" stroke="#000000" points="552.5,-129.5 552.5,-149.5 734.5,-149.5 734.5,-129.5 552.5,-129.5"/>
<text text-anchor="middle" x="643.5" y="-136.5" font-family="FreeSans" font-size="10.00" fill="#000000">HelixKalman::updateIntersection</text>
</a>
</g>
</g>
<!-- Node10&#45;&gt;Node21 -->
<g id="edge21" class="edge">
<title>Node10&#45;&gt;Node21</title>
<path fill="none" stroke="#191970" d="M450.3623,-246.3116C464.5259,-226.1589 499.117,-181.2768 540,-159.5 544.7953,-156.9457 549.8703,-154.7149 555.0957,-152.7669"/>
<polygon fill="#191970" stroke="#191970" points="556.274,-156.0633 564.6357,-149.5571 554.0417,-149.4288 556.274,-156.0633"/>
</g>
<!-- Node13 -->
<g id="node13" class="node">
<title>Node13</title>
<g id="a_node13"><a xlink:href="../../d8/d85/classHelixKalman.html#a52cca2345c3380fc8343f006390f5c1d" target="_top" xlink:title="HelixKalman::calculate\l_dAdAp">
<polygon fill="none" stroke="#000000" points="809,-336.5 809,-368.5 941,-368.5 941,-336.5 809,-336.5"/>
<text text-anchor="start" x="817" y="-355.5" font-family="FreeSans" font-size="10.00" fill="#000000">HelixKalman::calculate</text>
<text text-anchor="middle" x="875" y="-343.5" font-family="FreeSans" font-size="10.00" fill="#000000">_dAdAp</text>
</a>
</g>
</g>
<!-- Node12&#45;&gt;Node13 -->
<g id="edge12" class="edge">
<title>Node12&#45;&gt;Node13</title>
<path fill="none" stroke="#191970" d="M726.5489,-266.5105C733.7583,-269.1486 740.6971,-272.4287 747,-276.5 770.3058,-291.5539 760.2706,-311.5892 783,-327.5 787.9513,-330.966 793.3619,-333.9518 799.0001,-336.524"/>
<polygon fill="#191970" stroke="#191970" points="798.0818,-339.9297 808.6627,-340.474 800.7306,-333.4502 798.0818,-339.9297"/>
</g>
<!-- Node15 -->
<g id="node15" class="node">
<title>Node15</title>
<g id="a_node15"><a xlink:href="../../d8/d85/classHelixKalman.html#ad45962489041411c135777aed0b44552" target="_top" xlink:title="HelixKalman::calculate\l_dApdp">
<polygon fill="none" stroke="#000000" points="809,-285.5 809,-317.5 941,-317.5 941,-285.5 809,-285.5"/>
<text text-anchor="start" x="817" y="-304.5" font-family="FreeSans" font-size="10.00" fill="#000000">HelixKalman::calculate</text>
<text text-anchor="middle" x="875" y="-292.5" font-family="FreeSans" font-size="10.00" fill="#000000">_dApdp</text>
</a>
</g>
</g>
<!-- Node12&#45;&gt;Node15 -->
<g id="edge14" class="edge">
<title>Node12&#45;&gt;Node15</title>
<path fill="none" stroke="#191970" d="M695.3612,-266.5004C711.8685,-269.6892 730.2025,-273.2367 747,-276.5 763.8149,-279.7667 781.8699,-283.2859 798.9636,-286.6232"/>
<polygon fill="#191970" stroke="#191970" points="798.4149,-290.082 808.9004,-288.5637 799.7567,-283.2118 798.4149,-290.082"/>
</g>
<!-- Node16 -->
<g id="node16" class="node">
<title>Node16</title>
<g id="a_node16"><a xlink:href="../../d8/d85/classHelixKalman.html#aef12e80004e0637454bf1fa4b3534233" target="_top" xlink:title="HelixKalman::calculate_dbdt">
<polygon fill="none" stroke="#000000" points="794.5,-246.5 794.5,-266.5 955.5,-266.5 955.5,-246.5 794.5,-246.5"/>
<text text-anchor="middle" x="875" y="-253.5" font-family="FreeSans" font-size="10.00" fill="#000000">HelixKalman::calculate_dbdt</text>
</a>
</g>
</g>
<!-- Node12&#45;&gt;Node16 -->
<g id="edge15" class="edge">
<title>Node12&#45;&gt;Node16</title>
<path fill="none" stroke="#191970" d="M745.7131,-256.5C758.5201,-256.5 771.5513,-256.5 784.1678,-256.5"/>
<polygon fill="#191970" stroke="#191970" points="784.1849,-260.0001 794.1849,-256.5 784.1849,-253.0001 784.1849,-260.0001"/>
</g>
<!-- Node17 -->
<g id="node17" class="node">
<title>Node17</title>
<g id="a_node17"><a xlink:href="../../d8/d85/classHelixKalman.html#a49443f60ba396d2948ae2bde46dea8a7" target="_top" xlink:title="HelixKalman::calculate_dpdb">
<polygon fill="none" stroke="#000000" points="793,-207.5 793,-227.5 957,-227.5 957,-207.5 793,-207.5"/>
<text text-anchor="middle" x="875" y="-214.5" font-family="FreeSans" font-size="10.00" fill="#000000">HelixKalman::calculate_dpdb</text>
</a>
</g>
</g>
<!-- Node12&#45;&gt;Node17 -->
<g id="edge16" class="edge">
<title>Node12&#45;&gt;Node17</title>
<path fill="none" stroke="#191970" d="M703.117,-246.4565C734.4405,-241.1796 773.0003,-234.6835 805.6549,-229.1823"/>
<polygon fill="#191970" stroke="#191970" points="806.3054,-232.6221 815.585,-227.5094 805.1425,-225.7194 806.3054,-232.6221"/>
</g>
<!-- Node18 -->
<g id="node18" class="node">
<title>Node18</title>
<g id="a_node18"><a xlink:href="../../d8/d85/classHelixKalman.html#af9357af5c3c7c3ab96aa5031d843b505" target="_top" xlink:title="HelixKalman::calculateScattering\lVariance">
<polygon fill="none" stroke="#000000" points="783,-156.5 783,-188.5 967,-188.5 967,-156.5 783,-156.5"/>
<text text-anchor="start" x="791" y="-175.5" font-family="FreeSans" font-size="10.00" fill="#000000">HelixKalman::calculateScattering</text>
<text text-anchor="middle" x="875" y="-163.5" font-family="FreeSans" font-size="10.00" fill="#000000">Variance</text>
</a>
</g>
</g>
<!-- Node12&#45;&gt;Node18 -->
<g id="edge17" class="edge">
<title>Node12&#45;&gt;Node18</title>
<path fill="none" stroke="#191970" d="M726.0031,-246.4528C733.325,-244.0574 740.4391,-241.1138 747,-237.5 767.662,-226.1191 762.8947,-210.8378 783,-198.5 786.404,-196.4111 789.9809,-194.4852 793.6682,-192.7101"/>
<polygon fill="#191970" stroke="#191970" points="795.2762,-195.8266 803.0252,-188.6013 792.4618,-189.4173 795.2762,-195.8266"/>
</g>
<!-- Node14 -->
<g id="node14" class="node">
<title>Node14</title>
<g id="a_node14"><a xlink:href="../../dc/d08/HelixKalman_8cpp.html#ab74daa0c9784c63e060bfb98cc06fbf5" target="_top" xlink:title="sign">
<polygon fill="none" stroke="#000000" points="1003,-342.5 1003,-362.5 1040,-362.5 1040,-342.5 1003,-342.5"/>
<text text-anchor="middle" x="1021.5" y="-349.5" font-family="FreeSans" font-size="10.00" fill="#000000">sign</text>
</a>
</g>
</g>
<!-- Node13&#45;&gt;Node14 -->
<g id="edge13" class="edge">
<title>Node13&#45;&gt;Node14</title>
<path fill="none" stroke="#191970" d="M941.3918,-352.5C959.2492,-352.5 977.655,-352.5 992.314,-352.5"/>
<polygon fill="#191970" stroke="#191970" points="992.7223,-356.0001 1002.7223,-352.5 992.7223,-349.0001 992.7223,-356.0001"/>
</g>
<!-- Node26 -->
<g id="node26" class="node">
<title>Node26</title>
<g id="a_node26"><a xlink:href="../../d0/d5e/classPHTimer.html#aa92e3fe4a0a1799f39743eda9ef9d497" target="_top" xlink:title="gets time from cpu clock counts">
<polygon fill="none" stroke="#000000" points="587,-76.5 587,-108.5 700,-108.5 700,-76.5 587,-76.5"/>
<text text-anchor="start" x="595" y="-95.5" font-family="FreeSans" font-size="10.00" fill="#000000">PHTimer::get_clock</text>
<text text-anchor="middle" x="643.5" y="-83.5" font-family="FreeSans" font-size="10.00" fill="#000000">_counts</text>
</a>
</g>
</g>
<!-- Node25&#45;&gt;Node26 -->
<g id="edge26" class="edge">
<title>Node25&#45;&gt;Node26</title>
<path fill="none" stroke="#191970" d="M491.1509,-124.4933C516.7734,-119.1126 548.7816,-112.3909 576.8368,-106.4993"/>
<polygon fill="#191970" stroke="#191970" points="577.9077,-109.8508 586.9749,-104.3703 576.469,-103.0002 577.9077,-109.8508"/>
</g>
<!-- Node28&#45;&gt;Node26 -->
<g id="edge29" class="edge">
<title>Node28&#45;&gt;Node26</title>
<path fill="none" stroke="#191970" d="M298.7576,-56.6094C323.4485,-60.4666 354.8955,-65.1221 383,-68.5 448.7367,-76.4009 524.0804,-83.0861 576.7723,-87.3781"/>
<polygon fill="#191970" stroke="#191970" points="576.7497,-90.8876 586.9991,-88.2042 577.3134,-83.9103 576.7497,-90.8876"/>
</g>
<!-- Node29 -->
<g id="node29" class="node">
<title>Node29</title>
<g id="a_node29"><a xlink:href="../../d0/d5e/classPHTimer.html#a976738876ad978116fdc4549a3765685" target="_top" xlink:title="retrieve elapsed value since last restart (in ms)">
<polygon fill="none" stroke="#000000" points="391,-39.5 391,-59.5 496,-59.5 496,-39.5 391,-39.5"/>
<text text-anchor="middle" x="443.5" y="-46.5" font-family="FreeSans" font-size="10.00" fill="#000000">PHTimer::elapsed</text>
</a>
</g>
</g>
<!-- Node28&#45;&gt;Node29 -->
<g id="edge30" class="edge">
<title>Node28&#45;&gt;Node29</title>
<path fill="none" stroke="#191970" d="M298.7195,-49.5C323.1185,-49.5 353.9321,-49.5 380.8546,-49.5"/>
<polygon fill="#191970" stroke="#191970" points="380.961,-53.0001 390.9609,-49.5 380.9609,-46.0001 380.961,-53.0001"/>
</g>
<!-- Node29&#45;&gt;Node26 -->
<g id="edge33" class="edge">
<title>Node29&#45;&gt;Node26</title>
<path fill="none" stroke="#191970" d="M490.1387,-59.5273C515.9519,-65.0772 548.4737,-72.0693 576.9191,-78.1851"/>
<polygon fill="#191970" stroke="#191970" points="576.2806,-81.6277 586.7929,-80.308 577.752,-74.7841 576.2806,-81.6277"/>
</g>
<!-- Node30 -->
<g id="node30" class="node">
<title>Node30</title>
<g id="a_node30"><a xlink:href="../../d0/d5e/classPHTimer.html#aa75ff2c27aba40e7ef0a934f9a3355c2" target="_top" xlink:title="returns difference between to time">
<polygon fill="none" stroke="#000000" points="574.5,-37.5 574.5,-57.5 712.5,-57.5 712.5,-37.5 574.5,-37.5"/>
<text text-anchor="middle" x="643.5" y="-44.5" font-family="FreeSans" font-size="10.00" fill="#000000">PHTimer::get_difference</text>
</a>
</g>
</g>
<!-- Node29&#45;&gt;Node30 -->
<g id="edge31" class="edge">
<title>Node29&#45;&gt;Node30</title>
<path fill="none" stroke="#191970" d="M496.0476,-48.9745C516.9166,-48.7658 541.375,-48.5212 564.3061,-48.2919"/>
<polygon fill="#191970" stroke="#191970" points="564.4049,-51.7912 574.3694,-48.1913 564.3349,-44.7916 564.4049,-51.7912"/>
</g>
<!-- Node31 -->
<g id="node31" class="node">
<title>Node31</title>
<g id="a_node31"><a xlink:href="../../d2/db1/classPHTimer_1_1Frequency.html#a023a2d706df9a8bd303810a9ed017f61" target="_top" xlink:title="period accessor">
<polygon fill="none" stroke="#000000" points="816,-31.5 816,-63.5 934,-63.5 934,-31.5 816,-31.5"/>
<text text-anchor="start" x="824" y="-50.5" font-family="FreeSans" font-size="10.00" fill="#000000">PHTimer::Frequency</text>
<text text-anchor="middle" x="875" y="-38.5" font-family="FreeSans" font-size="10.00" fill="#000000">::period</text>
</a>
</g>
</g>
<!-- Node30&#45;&gt;Node31 -->
<g id="edge32" class="edge">
<title>Node30&#45;&gt;Node31</title>
<path fill="none" stroke="#191970" d="M712.6441,-47.5C742.0818,-47.5 776.3475,-47.5 805.7922,-47.5"/>
<polygon fill="#191970" stroke="#191970" points="805.9903,-51.0001 815.9902,-47.5 805.9902,-44.0001 805.9903,-51.0001"/>
</g>
</g>
</svg>
