<?xml version="1.0" encoding="UTF-8" standalone="no"?>
<!DOCTYPE svg PUBLIC "-//W3C//DTD SVG 1.1//EN"
 "http://www.w3.org/Graphics/SVG/1.1/DTD/svg11.dtd">
<!-- Generated by graphviz version 2.40.1 (20161225.0304)
 -->
<!-- Title: PHHoughSeeding::CleanupSeedsByHitPattern Pages: 1 -->
<svg width="360pt" height="107pt"
 viewBox="0.00 0.00 360.00 107.00" xmlns="http://www.w3.org/2000/svg" xmlns:xlink="http://www.w3.org/1999/xlink">
<g id="graph0" class="graph" transform="scale(1 1) rotate(0) translate(4 103)">
<title>PHHoughSeeding::CleanupSeedsByHitPattern</title>
<!-- Node1 -->
<g id="node1" class="node">
<title>Node1</title>
<polygon fill="#bfbfbf" stroke="#000000" points="0,-33.5 0,-65.5 184,-65.5 184,-33.5 0,-33.5"/>
<text text-anchor="start" x="8" y="-52.5" font-family="FreeSans" font-size="10.00" fill="#000000">PHHoughSeeding::CleanupSeeds</text>
<text text-anchor="middle" x="92" y="-40.5" font-family="FreeSans" font-size="10.00" fill="#000000">ByHitPattern</text>
</g>
<!-- Node2 -->
<g id="node2" class="node">
<title>Node2</title>
<g id="a_node2"><a xlink:href="../../da/d87/classSimpleHit3D.html#a6fca396cd480492078c4e640b2410973" target="_top" xlink:title="SimpleHit3D::get_id">
<polygon fill="none" stroke="#000000" points="227.5,-78.5 227.5,-98.5 344.5,-98.5 344.5,-78.5 227.5,-78.5"/>
<text text-anchor="middle" x="286" y="-85.5" font-family="FreeSans" font-size="10.00" fill="#000000">SimpleHit3D::get_id</text>
</a>
</g>
</g>
<!-- Node1&#45;&gt;Node2 -->
<g id="edge1" class="edge">
<title>Node1&#45;&gt;Node2</title>
<path fill="none" stroke="#191970" d="M171.7471,-65.5316C189.9183,-69.1846 208.9242,-73.0054 226.1022,-76.4587"/>
<polygon fill="#191970" stroke="#191970" points="225.4913,-79.9058 235.985,-78.4454 226.871,-73.0431 225.4913,-79.9058"/>
</g>
<!-- Node3 -->
<g id="node3" class="node">
<title>Node3</title>
<g id="a_node3"><a xlink:href="../../da/d87/classSimpleHit3D.html#a35948d57f0a780ab0d48d810ff566d64" target="_top" xlink:title="SimpleHit3D::set_id">
<polygon fill="none" stroke="#000000" points="228,-39.5 228,-59.5 344,-59.5 344,-39.5 228,-39.5"/>
<text text-anchor="middle" x="286" y="-46.5" font-family="FreeSans" font-size="10.00" fill="#000000">SimpleHit3D::set_id</text>
</a>
</g>
</g>
<!-- Node1&#45;&gt;Node3 -->
<g id="edge2" class="edge">
<title>Node1&#45;&gt;Node3</title>
<path fill="none" stroke="#191970" d="M184.1707,-49.5C195.4319,-49.5 206.7801,-49.5 217.6062,-49.5"/>
<polygon fill="#191970" stroke="#191970" points="217.806,-53.0001 227.8059,-49.5 217.8059,-46.0001 217.806,-53.0001"/>
</g>
<!-- Node4 -->
<g id="node4" class="node">
<title>Node4</title>
<g id="a_node4"><a xlink:href="../../d5/dec/classFun4AllBase.html#a8a5c77a92bdac6bc043476e132379a40" target="_top" xlink:title="Gets the verbosity of this module.">
<polygon fill="none" stroke="#000000" points="220,-.5 220,-20.5 352,-20.5 352,-.5 220,-.5"/>
<text text-anchor="middle" x="286" y="-7.5" font-family="FreeSans" font-size="10.00" fill="#000000">Fun4AllBase::Verbosity</text>
</a>
</g>
</g>
<!-- Node1&#45;&gt;Node4 -->
<g id="edge3" class="edge">
<title>Node1&#45;&gt;Node4</title>
<path fill="none" stroke="#191970" d="M171.7471,-33.4684C189.9183,-29.8154 208.9242,-25.9946 226.1022,-22.5413"/>
<polygon fill="#191970" stroke="#191970" points="226.871,-25.9569 235.985,-20.5546 225.4913,-19.0942 226.871,-25.9569"/>
</g>
</g>
</svg>
