<?xml version="1.0" encoding="UTF-8" standalone="no"?>
<!DOCTYPE svg PUBLIC "-//W3C//DTD SVG 1.1//EN"
 "http://www.w3.org/Graphics/SVG/1.1/DTD/svg11.dtd">
<!-- Generated by graphviz version 2.40.1 (20161225.0304)
 -->
<!-- Title: tutorials/blob/master/PHG4DSTReader/Example.C Pages: 1 -->
<svg width="1163pt" height="326pt"
 viewBox="0.00 0.00 1162.50 326.00" xmlns="http://www.w3.org/2000/svg" xmlns:xlink="http://www.w3.org/1999/xlink">
<g id="graph0" class="graph" transform="scale(1 1) rotate(0) translate(4 322)">
<title>tutorials/blob/master/PHG4DSTReader/Example.C</title>
<!-- Node1 -->
<g id="node1" class="node">
<title>Node1</title>
<polygon fill="#bfbfbf" stroke="#000000" points="434,-285.5 434,-317.5 596,-317.5 596,-285.5 434,-285.5"/>
<text text-anchor="start" x="442" y="-304.5" font-family="FreeSans" font-size="10.00" fill="#000000">tutorials/blob/master</text>
<text text-anchor="middle" x="515" y="-292.5" font-family="FreeSans" font-size="10.00" fill="#000000">/PHG4DSTReader/Example.C</text>
</g>
<!-- Node2 -->
<g id="node2" class="node">
<title>Node2</title>
<polygon fill="none" stroke="#bfbfbf" points="0,-228.5 0,-248.5 50,-248.5 50,-228.5 0,-228.5"/>
<text text-anchor="middle" x="25" y="-235.5" font-family="FreeSans" font-size="10.00" fill="#000000">TFile.h</text>
</g>
<!-- Node1&#45;&gt;Node2 -->
<g id="edge1" class="edge">
<title>Node1&#45;&gt;Node2</title>
<path fill="none" stroke="#191970" d="M433.9645,-296.71C344.462,-290.3985 196.1152,-276.9182 60.2876,-248.9505"/>
<polygon fill="#191970" stroke="#191970" points="60.6196,-245.4444 50.115,-246.8235 59.1869,-252.2962 60.6196,-245.4444"/>
</g>
<!-- Node3 -->
<g id="node3" class="node">
<title>Node3</title>
<polygon fill="none" stroke="#bfbfbf" points="68.5,-228.5 68.5,-248.5 119.5,-248.5 119.5,-228.5 68.5,-228.5"/>
<text text-anchor="middle" x="94" y="-235.5" font-family="FreeSans" font-size="10.00" fill="#000000">TPad.h</text>
</g>
<!-- Node1&#45;&gt;Node3 -->
<g id="edge2" class="edge">
<title>Node1&#45;&gt;Node3</title>
<path fill="none" stroke="#191970" d="M433.8987,-294.4211C357.4288,-286.8543 239.5967,-272.896 129.79,-249.1481"/>
<polygon fill="#191970" stroke="#191970" points="130.3889,-245.6963 119.871,-246.971 128.8881,-252.5335 130.3889,-245.6963"/>
</g>
<!-- Node4 -->
<g id="node4" class="node">
<title>Node4</title>
<polygon fill="none" stroke="#bfbfbf" points="137.5,-228.5 137.5,-248.5 200.5,-248.5 200.5,-228.5 137.5,-228.5"/>
<text text-anchor="middle" x="169" y="-235.5" font-family="FreeSans" font-size="10.00" fill="#000000">TString.h</text>
</g>
<!-- Node1&#45;&gt;Node4 -->
<g id="edge3" class="edge">
<title>Node1&#45;&gt;Node4</title>
<path fill="none" stroke="#191970" d="M433.748,-289.3322C374.5119,-280.0392 292.135,-266.2458 210.6552,-249.0113"/>
<polygon fill="#191970" stroke="#191970" points="211.235,-245.5563 200.7248,-246.8925 209.7743,-252.4022 211.235,-245.5563"/>
</g>
<!-- Node5 -->
<g id="node5" class="node">
<title>Node5</title>
<polygon fill="none" stroke="#bfbfbf" points="219,-228.5 219,-248.5 289,-248.5 289,-228.5 219,-228.5"/>
<text text-anchor="middle" x="254" y="-235.5" font-family="FreeSans" font-size="10.00" fill="#000000">TSystem.h</text>
</g>
<!-- Node1&#45;&gt;Node5 -->
<g id="edge4" class="edge">
<title>Node1&#45;&gt;Node5</title>
<path fill="none" stroke="#191970" d="M448.4634,-285.4394C401.5824,-274.1233 340.07,-259.2755 298.8984,-249.3375"/>
<polygon fill="#191970" stroke="#191970" points="299.6909,-245.9284 289.1488,-246.9842 298.0483,-252.733 299.6909,-245.9284"/>
</g>
<!-- Node6 -->
<g id="node6" class="node">
<title>Node6</title>
<polygon fill="none" stroke="#bfbfbf" points="307.5,-228.5 307.5,-248.5 360.5,-248.5 360.5,-228.5 307.5,-228.5"/>
<text text-anchor="middle" x="334" y="-235.5" font-family="FreeSans" font-size="10.00" fill="#000000">TTree.h</text>
</g>
<!-- Node1&#45;&gt;Node6 -->
<g id="edge5" class="edge">
<title>Node1&#45;&gt;Node6</title>
<path fill="none" stroke="#191970" d="M468.8577,-285.4394C438.2207,-274.7757 398.5731,-260.9757 370.2104,-251.1036"/>
<polygon fill="#191970" stroke="#191970" points="371.2769,-247.7689 360.6821,-247.7871 368.9758,-254.3799 371.2769,-247.7689"/>
</g>
<!-- Node7 -->
<g id="node7" class="node">
<title>Node7</title>
<polygon fill="none" stroke="#bfbfbf" points="378.5,-228.5 378.5,-248.5 431.5,-248.5 431.5,-228.5 378.5,-228.5"/>
<text text-anchor="middle" x="405" y="-235.5" font-family="FreeSans" font-size="10.00" fill="#000000">cassert</text>
</g>
<!-- Node1&#45;&gt;Node7 -->
<g id="edge6" class="edge">
<title>Node1&#45;&gt;Node7</title>
<path fill="none" stroke="#191970" d="M486.9577,-285.4394C469.8789,-275.6579 448.1926,-263.2376 431.4181,-253.6304"/>
<polygon fill="#191970" stroke="#191970" points="433.0819,-250.5499 422.6648,-248.6171 429.6029,-256.6242 433.0819,-250.5499"/>
</g>
<!-- Node8 -->
<g id="node8" class="node">
<title>Node8</title>
<polygon fill="none" stroke="#bfbfbf" points="800,-57.5 800,-77.5 848,-77.5 848,-57.5 800,-57.5"/>
<text text-anchor="middle" x="824" y="-64.5" font-family="FreeSans" font-size="10.00" fill="#000000">cmath</text>
</g>
<!-- Node1&#45;&gt;Node8 -->
<g id="edge7" class="edge">
<title>Node1&#45;&gt;Node8</title>
<path fill="none" stroke="#191970" d="M596.1117,-293.7436C660.5931,-285.9805 743.9817,-271.8528 769,-249 815.7058,-206.337 823.2851,-125.4834 824.1596,-87.7916"/>
<polygon fill="#191970" stroke="#191970" points="827.6614,-87.6011 824.2516,-77.5699 820.6616,-87.538 827.6614,-87.6011"/>
</g>
<!-- Node9 -->
<g id="node9" class="node">
<title>Node9</title>
<polygon fill="none" stroke="#bfbfbf" points="876.5,-228.5 876.5,-248.5 999.5,-248.5 999.5,-228.5 876.5,-228.5"/>
<text text-anchor="middle" x="938" y="-235.5" font-family="FreeSans" font-size="10.00" fill="#000000">calobase/RawTower.h</text>
</g>
<!-- Node1&#45;&gt;Node9 -->
<g id="edge8" class="edge">
<title>Node1&#45;&gt;Node9</title>
<path fill="none" stroke="#191970" d="M596.0582,-289.4275C674.1869,-277.7913 791.277,-260.3524 866.1497,-249.2011"/>
<polygon fill="#191970" stroke="#191970" points="867.0506,-252.6056 876.4259,-247.6706 866.0194,-245.682 867.0506,-252.6056"/>
</g>
<!-- Node10 -->
<g id="node10" class="node">
<title>Node10</title>
<polygon fill="none" stroke="#bfbfbf" points="1017.5,-228.5 1017.5,-248.5 1154.5,-248.5 1154.5,-228.5 1017.5,-228.5"/>
<text text-anchor="middle" x="1086" y="-235.5" font-family="FreeSans" font-size="10.00" fill="#000000">calobase/RawTowerv1.h</text>
</g>
<!-- Node1&#45;&gt;Node10 -->
<g id="edge9" class="edge">
<title>Node1&#45;&gt;Node10</title>
<path fill="none" stroke="#191970" d="M596.3793,-293.5978C692.1625,-284.1285 856.2965,-267.3762 1006.8133,-249.2415"/>
<polygon fill="#191970" stroke="#191970" points="1007.6587,-252.6649 1017.166,-247.9894 1006.8181,-245.7155 1007.6587,-252.6649"/>
</g>
<!-- Node11 -->
<g id="node11" class="node">
<title>Node11</title>
<g id="a_node11"><a xlink:href="../../d3/d5b/PHG4HitEval_8h.html" target="_top" xlink:title="g4main/PHG4HitEval.h">
<polygon fill="none" stroke="#000000" points="449.5,-228.5 449.5,-248.5 580.5,-248.5 580.5,-228.5 449.5,-228.5"/>
<text text-anchor="middle" x="515" y="-235.5" font-family="FreeSans" font-size="10.00" fill="#000000">g4main/PHG4HitEval.h</text>
</a>
</g>
</g>
<!-- Node1&#45;&gt;Node11 -->
<g id="edge10" class="edge">
<title>Node1&#45;&gt;Node11</title>
<path fill="none" stroke="#191970" d="M515,-285.2759C515,-277.2654 515,-267.5159 515,-258.9952"/>
<polygon fill="#191970" stroke="#191970" points="518.5001,-258.7512 515,-248.7513 511.5001,-258.7513 518.5001,-258.7512"/>
</g>
<!-- Node23 -->
<g id="node23" class="node">
<title>Node23</title>
<g id="a_node23"><a xlink:href="../../d8/d39/PHG4Particlev1_8h.html" target="_top" xlink:title="g4main/PHG4Particlev1.h">
<polygon fill="none" stroke="#000000" points="598.5,-171.5 598.5,-191.5 743.5,-191.5 743.5,-171.5 598.5,-171.5"/>
<text text-anchor="middle" x="671" y="-178.5" font-family="FreeSans" font-size="10.00" fill="#000000">g4main/PHG4Particlev1.h</text>
</a>
</g>
</g>
<!-- Node1&#45;&gt;Node23 -->
<g id="edge27" class="edge">
<title>Node1&#45;&gt;Node23</title>
<path fill="none" stroke="#191970" d="M596.1746,-294.3483C657.1647,-287.0957 733.4217,-273.3678 753,-249 770.328,-227.4331 739.1773,-207.9601 710.4215,-195.5349"/>
<polygon fill="#191970" stroke="#191970" points="711.4148,-192.1593 700.8349,-191.5985 708.7559,-198.6346 711.4148,-192.1593"/>
</g>
<!-- Node25 -->
<g id="node25" class="node">
<title>Node25</title>
<g id="a_node25"><a xlink:href="../../d4/d3b/PHG4Particlev2_8h.html" target="_top" xlink:title="g4main/PHG4Particlev2.h">
<polygon fill="none" stroke="#000000" points="598.5,-228.5 598.5,-248.5 743.5,-248.5 743.5,-228.5 598.5,-228.5"/>
<text text-anchor="middle" x="671" y="-235.5" font-family="FreeSans" font-size="10.00" fill="#000000">g4main/PHG4Particlev2.h</text>
</a>
</g>
</g>
<!-- Node1&#45;&gt;Node25 -->
<g id="edge35" class="edge">
<title>Node1&#45;&gt;Node25</title>
<path fill="none" stroke="#191970" d="M554.769,-285.4394C579.9991,-275.2503 612.3194,-262.198 636.4707,-252.4445"/>
<polygon fill="#191970" stroke="#191970" points="637.9863,-255.6072 645.9481,-248.6171 635.365,-249.1165 637.9863,-255.6072"/>
</g>
<!-- Node26 -->
<g id="node26" class="node">
<title>Node26</title>
<g id="a_node26"><a xlink:href="../../db/d72/PHG4VtxPointv1_8h.html" target="_top" xlink:title="g4main/PHG4VtxPointv1.h">
<polygon fill="none" stroke="#000000" points="849,-171.5 849,-191.5 999,-191.5 999,-171.5 849,-171.5"/>
<text text-anchor="middle" x="924" y="-178.5" font-family="FreeSans" font-size="10.00" fill="#000000">g4main/PHG4VtxPointv1.h</text>
</a>
</g>
</g>
<!-- Node1&#45;&gt;Node26 -->
<g id="edge39" class="edge">
<title>Node1&#45;&gt;Node26</title>
<path fill="none" stroke="#191970" d="M596.2765,-297.1145C660.1187,-291.4648 750.2521,-278.5433 824,-249 854.8262,-236.6511 885.8239,-213.7095 904.9581,-198.0313"/>
<polygon fill="#191970" stroke="#191970" points="907.2125,-200.7085 912.6342,-191.606 902.7195,-195.3408 907.2125,-200.7085"/>
</g>
<!-- Node12 -->
<g id="node12" class="node">
<title>Node12</title>
<g id="a_node12"><a xlink:href="../../db/d2b/PHG4Hitv1_8h.html" target="_top" xlink:title="PHG4Hitv1.h">
<polygon fill="none" stroke="#000000" points="174,-171.5 174,-191.5 254,-191.5 254,-171.5 174,-171.5"/>
<text text-anchor="middle" x="214" y="-178.5" font-family="FreeSans" font-size="10.00" fill="#000000">PHG4Hitv1.h</text>
</a>
</g>
</g>
<!-- Node11&#45;&gt;Node12 -->
<g id="edge11" class="edge">
<title>Node11&#45;&gt;Node12</title>
<path fill="none" stroke="#191970" d="M461.0168,-228.433C410.9653,-219.0765 334.4294,-204.7113 268,-192 266.7336,-191.7577 265.4507,-191.5117 264.1564,-191.2632"/>
<polygon fill="#191970" stroke="#191970" points="264.5811,-187.7807 254.0994,-189.3247 263.2562,-194.6542 264.5811,-187.7807"/>
</g>
<!-- Node13 -->
<g id="node13" class="node">
<title>Node13</title>
<g id="a_node13"><a xlink:href="../../de/d83/PHG4Hit_8h.html" target="_top" xlink:title="PHG4Hit.h">
<polygon fill="none" stroke="#000000" points="389,-114.5 389,-134.5 457,-134.5 457,-114.5 389,-114.5"/>
<text text-anchor="middle" x="423" y="-121.5" font-family="FreeSans" font-size="10.00" fill="#000000">PHG4Hit.h</text>
</a>
</g>
</g>
<!-- Node12&#45;&gt;Node13 -->
<g id="edge12" class="edge">
<title>Node12&#45;&gt;Node13</title>
<path fill="none" stroke="#191970" d="M250.8839,-171.4408C286.7061,-161.6711 341.1054,-146.8349 379.1304,-136.4644"/>
<polygon fill="#191970" stroke="#191970" points="380.1804,-139.806 388.9071,-133.7981 378.3385,-133.0526 380.1804,-139.806"/>
</g>
<!-- Node14 -->
<g id="node14" class="node">
<title>Node14</title>
<g id="a_node14"><a xlink:href="../../d2/d92/PHG4HitDefs_8h.html" target="_top" xlink:title="PHG4HitDefs.h">
<polygon fill="none" stroke="#000000" points="200.5,-57.5 200.5,-77.5 291.5,-77.5 291.5,-57.5 200.5,-57.5"/>
<text text-anchor="middle" x="246" y="-64.5" font-family="FreeSans" font-size="10.00" fill="#000000">PHG4HitDefs.h</text>
</a>
</g>
</g>
<!-- Node12&#45;&gt;Node14 -->
<g id="edge23" class="edge">
<title>Node12&#45;&gt;Node14</title>
<path fill="none" stroke="#191970" d="M185.5084,-171.4188C157.0206,-159.6767 119.6233,-138.7027 136,-114 148.3626,-95.3522 169.848,-84.1632 190.5686,-77.4582"/>
<polygon fill="#191970" stroke="#191970" points="191.7063,-80.772 200.3165,-74.5981 189.7355,-74.0551 191.7063,-80.772"/>
</g>
<!-- Node18 -->
<g id="node18" class="node">
<title>Node18</title>
<polygon fill="none" stroke="#bfbfbf" points="685,-.5 685,-20.5 745,-20.5 745,-.5 685,-.5"/>
<text text-anchor="middle" x="715" y="-7.5" font-family="FreeSans" font-size="10.00" fill="#000000">iostream</text>
</g>
<!-- Node12&#45;&gt;Node18 -->
<g id="edge25" class="edge">
<title>Node12&#45;&gt;Node18</title>
<path fill="none" stroke="#191970" d="M254.0967,-176.7367C315.4059,-169.0138 429.2139,-152.8173 466,-135 513.3366,-112.0726 508.873,-82.273 555,-57 575.6389,-45.6919 634.678,-29.9736 674.9661,-20.0195"/>
<polygon fill="#191970" stroke="#191970" points="675.8893,-23.3969 684.77,-17.6192 674.2245,-16.5977 675.8893,-23.3969"/>
</g>
<!-- Node21 -->
<g id="node21" class="node">
<title>Node21</title>
<polygon fill="none" stroke="#bfbfbf" points="145.5,-114.5 145.5,-134.5 196.5,-134.5 196.5,-114.5 145.5,-114.5"/>
<text text-anchor="middle" x="171" y="-121.5" font-family="FreeSans" font-size="10.00" fill="#000000">cstdint</text>
</g>
<!-- Node12&#45;&gt;Node21 -->
<g id="edge24" class="edge">
<title>Node12&#45;&gt;Node21</title>
<path fill="none" stroke="#191970" d="M206.3125,-171.3095C200.32,-163.3661 191.8451,-152.1319 184.6998,-142.6602"/>
<polygon fill="#191970" stroke="#191970" points="187.4375,-140.4776 178.621,-134.6022 181.8493,-144.6933 187.4375,-140.4776"/>
</g>
<!-- Node22 -->
<g id="node22" class="node">
<title>Node22</title>
<polygon fill="none" stroke="#bfbfbf" points="214.5,-114.5 214.5,-134.5 253.5,-134.5 253.5,-114.5 214.5,-114.5"/>
<text text-anchor="middle" x="234" y="-121.5" font-family="FreeSans" font-size="10.00" fill="#000000">map</text>
</g>
<!-- Node12&#45;&gt;Node22 -->
<g id="edge26" class="edge">
<title>Node12&#45;&gt;Node22</title>
<path fill="none" stroke="#191970" d="M217.5756,-171.3095C220.2206,-163.7714 223.9054,-153.2696 227.1147,-144.123"/>
<polygon fill="#191970" stroke="#191970" points="230.447,-145.1971 230.4554,-134.6022 223.8418,-142.8794 230.447,-145.1971"/>
</g>
<!-- Node13&#45;&gt;Node8 -->
<g id="edge18" class="edge">
<title>Node13&#45;&gt;Node8</title>
<path fill="none" stroke="#191970" d="M457.189,-119.6402C532.9829,-108.8665 714.3789,-83.0821 789.9983,-72.3332"/>
<polygon fill="#191970" stroke="#191970" points="790.5366,-75.7919 799.9445,-70.9194 789.5515,-68.8616 790.5366,-75.7919"/>
</g>
<!-- Node13&#45;&gt;Node14 -->
<g id="edge13" class="edge">
<title>Node13&#45;&gt;Node14</title>
<path fill="none" stroke="#191970" d="M391.7634,-114.4408C362.6588,-105.0681 319.074,-91.0323 287.1453,-80.7502"/>
<polygon fill="#191970" stroke="#191970" points="287.813,-77.2883 277.2215,-77.5544 285.6673,-83.9513 287.813,-77.2883"/>
</g>
<!-- Node15 -->
<g id="node15" class="node">
<title>Node15</title>
<polygon fill="none" stroke="#bfbfbf" points="297.5,-.5 297.5,-20.5 342.5,-20.5 342.5,-.5 297.5,-.5"/>
<text text-anchor="middle" x="320" y="-7.5" font-family="FreeSans" font-size="10.00" fill="#000000">string</text>
</g>
<!-- Node13&#45;&gt;Node15 -->
<g id="edge21" class="edge">
<title>Node13&#45;&gt;Node15</title>
<path fill="none" stroke="#191970" d="M412.5312,-114.3835C403.0493,-105.1123 388.7998,-90.9067 377,-78 362.0872,-61.6883 345.9036,-42.354 334.6044,-28.5675"/>
<polygon fill="#191970" stroke="#191970" points="337.2859,-26.3176 328.2553,-20.7771 331.8597,-30.7399 337.2859,-26.3176"/>
</g>
<!-- Node16 -->
<g id="node16" class="node">
<title>Node16</title>
<g id="a_node16"><a xlink:href="../../df/d32/PHObject_8h.html" target="_top" xlink:title="phool/PHObject.h">
<polygon fill="none" stroke="#000000" points="564,-57.5 564,-77.5 668,-77.5 668,-57.5 564,-57.5"/>
<text text-anchor="middle" x="616" y="-64.5" font-family="FreeSans" font-size="10.00" fill="#000000">phool/PHObject.h</text>
</a>
</g>
</g>
<!-- Node13&#45;&gt;Node16 -->
<g id="edge15" class="edge">
<title>Node13&#45;&gt;Node16</title>
<path fill="none" stroke="#191970" d="M457.0603,-114.4408C489.0706,-104.9869 537.1446,-90.7889 572.0368,-80.484"/>
<polygon fill="#191970" stroke="#191970" points="573.3571,-83.7436 581.9562,-77.5544 571.3743,-77.0302 573.3571,-83.7436"/>
</g>
<!-- Node13&#45;&gt;Node18 -->
<g id="edge20" class="edge">
<title>Node13&#45;&gt;Node18</title>
<path fill="none" stroke="#191970" d="M429.081,-114.404C438.7237,-99.3354 459.0142,-71.2162 484,-57 492.2729,-52.2929 610.6393,-29.8475 674.6274,-17.9474"/>
<polygon fill="#191970" stroke="#191970" points="675.5869,-21.3291 684.7801,-16.0628 674.3093,-14.4467 675.5869,-21.3291"/>
</g>
<!-- Node19 -->
<g id="node19" class="node">
<title>Node19</title>
<polygon fill="none" stroke="#bfbfbf" points="904.5,-57.5 904.5,-77.5 953.5,-77.5 953.5,-57.5 904.5,-57.5"/>
<text text-anchor="middle" x="929" y="-64.5" font-family="FreeSans" font-size="10.00" fill="#000000">climits</text>
</g>
<!-- Node13&#45;&gt;Node19 -->
<g id="edge19" class="edge">
<title>Node13&#45;&gt;Node19</title>
<path fill="none" stroke="#191970" d="M457.0928,-121.2928C530.3783,-114.3008 708.3318,-96.7978 857,-78 869.2133,-76.4557 882.5618,-74.5656 894.4113,-72.8167"/>
<polygon fill="#191970" stroke="#191970" points="894.9995,-76.2678 904.3725,-71.3284 893.965,-69.3446 894.9995,-76.2678"/>
</g>
<!-- Node20 -->
<g id="node20" class="node">
<title>Node20</title>
<polygon fill="none" stroke="#bfbfbf" points="386.5,-57.5 386.5,-77.5 431.5,-77.5 431.5,-57.5 386.5,-57.5"/>
<text text-anchor="middle" x="409" y="-64.5" font-family="FreeSans" font-size="10.00" fill="#000000">utility</text>
</g>
<!-- Node13&#45;&gt;Node20 -->
<g id="edge22" class="edge">
<title>Node13&#45;&gt;Node20</title>
<path fill="none" stroke="#191970" d="M420.4971,-114.3095C418.6655,-106.8524 416.1216,-96.4951 413.8923,-87.4186"/>
<polygon fill="#191970" stroke="#191970" points="417.2656,-86.4787 411.4813,-77.6022 410.4676,-88.1485 417.2656,-86.4787"/>
</g>
<!-- Node14&#45;&gt;Node15 -->
<g id="edge14" class="edge">
<title>Node14&#45;&gt;Node15</title>
<path fill="none" stroke="#191970" d="M259.2297,-57.3095C270.1736,-48.8798 285.929,-36.7439 298.6549,-26.9415"/>
<polygon fill="#191970" stroke="#191970" points="301.0984,-29.4773 306.8848,-20.6022 296.8267,-23.9318 301.0984,-29.4773"/>
</g>
<!-- Node17 -->
<g id="node17" class="node">
<title>Node17</title>
<polygon fill="none" stroke="#bfbfbf" points="583.5,-.5 583.5,-20.5 648.5,-20.5 648.5,-.5 583.5,-.5"/>
<text text-anchor="middle" x="616" y="-7.5" font-family="FreeSans" font-size="10.00" fill="#000000">TObject.h</text>
</g>
<!-- Node16&#45;&gt;Node17 -->
<g id="edge16" class="edge">
<title>Node16&#45;&gt;Node17</title>
<path fill="none" stroke="#191970" d="M616,-57.3095C616,-49.9335 616,-39.72 616,-30.715"/>
<polygon fill="#191970" stroke="#191970" points="619.5001,-30.6022 616,-20.6022 612.5001,-30.6023 619.5001,-30.6022"/>
</g>
<!-- Node16&#45;&gt;Node18 -->
<g id="edge17" class="edge">
<title>Node16&#45;&gt;Node18</title>
<path fill="none" stroke="#191970" d="M633.6992,-57.3095C648.9035,-48.5556 671.0494,-35.8049 688.3896,-25.8211"/>
<polygon fill="#191970" stroke="#191970" points="690.5342,-28.6251 697.454,-20.6022 687.0414,-22.5587 690.5342,-28.6251"/>
</g>
<!-- Node23&#45;&gt;Node15 -->
<g id="edge34" class="edge">
<title>Node23&#45;&gt;Node15</title>
<path fill="none" stroke="#191970" d="M598.3013,-177.5082C523.611,-172.0931 413.648,-160.0567 380,-135 345.5125,-109.3182 329.9069,-58.5806 323.6478,-30.4532"/>
<polygon fill="#191970" stroke="#191970" points="327.0573,-29.6561 321.627,-20.5587 320.1989,-31.0568 327.0573,-29.6561"/>
</g>
<!-- Node23&#45;&gt;Node18 -->
<g id="edge33" class="edge">
<title>Node23&#45;&gt;Node18</title>
<path fill="none" stroke="#191970" d="M685.0654,-171.4724C695.5307,-163.0802 708.9979,-150.0758 715,-135 728.7895,-100.364 723.998,-55.8859 719.4036,-30.5497"/>
<polygon fill="#191970" stroke="#191970" points="722.8191,-29.7796 717.4377,-20.6533 715.9533,-31.1436 722.8191,-29.7796"/>
</g>
<!-- Node24 -->
<g id="node24" class="node">
<title>Node24</title>
<g id="a_node24"><a xlink:href="../../dd/d05/PHG4Particle_8h.html" target="_top" xlink:title="PHG4Particle.h">
<polygon fill="none" stroke="#000000" points="614.5,-114.5 614.5,-134.5 705.5,-134.5 705.5,-114.5 614.5,-114.5"/>
<text text-anchor="middle" x="660" y="-121.5" font-family="FreeSans" font-size="10.00" fill="#000000">PHG4Particle.h</text>
</a>
</g>
</g>
<!-- Node23&#45;&gt;Node24 -->
<g id="edge28" class="edge">
<title>Node23&#45;&gt;Node24</title>
<path fill="none" stroke="#191970" d="M669.0334,-171.3095C667.61,-163.9335 665.6389,-153.72 663.9011,-144.715"/>
<polygon fill="#191970" stroke="#191970" points="667.2811,-143.7578 661.9496,-134.6022 660.4079,-145.0843 667.2811,-143.7578"/>
</g>
<!-- Node24&#45;&gt;Node8 -->
<g id="edge30" class="edge">
<title>Node24&#45;&gt;Node8</title>
<path fill="none" stroke="#191970" d="M688.9424,-114.4408C717.2797,-104.5918 760.4319,-89.5938 790.2998,-79.2129"/>
<polygon fill="#191970" stroke="#191970" points="791.5823,-82.4726 799.879,-75.8835 789.2842,-75.8605 791.5823,-82.4726"/>
</g>
<!-- Node24&#45;&gt;Node15 -->
<g id="edge32" class="edge">
<title>Node24&#45;&gt;Node15</title>
<path fill="none" stroke="#191970" d="M630.1253,-114.4832C566.5998,-93.1835 418.5394,-43.5397 352.6399,-21.4439"/>
<polygon fill="#191970" stroke="#191970" points="353.3883,-18.0034 342.7943,-18.1428 351.1629,-24.6403 353.3883,-18.0034"/>
</g>
<!-- Node24&#45;&gt;Node16 -->
<g id="edge29" class="edge">
<title>Node24&#45;&gt;Node16</title>
<path fill="none" stroke="#191970" d="M652.1337,-114.3095C646.0019,-106.3661 637.3299,-95.1319 630.0184,-85.6602"/>
<polygon fill="#191970" stroke="#191970" points="632.6793,-83.3795 623.7982,-77.6022 627.1382,-87.6569 632.6793,-83.3795"/>
</g>
<!-- Node24&#45;&gt;Node18 -->
<g id="edge31" class="edge">
<title>Node24&#45;&gt;Node18</title>
<path fill="none" stroke="#191970" d="M664.8809,-114.3833C674.0311,-95.4174 693.9011,-54.2323 705.6884,-29.8004"/>
<polygon fill="#191970" stroke="#191970" points="708.858,-31.2854 710.051,-20.7579 702.5533,-28.2437 708.858,-31.2854"/>
</g>
<!-- Node25&#45;&gt;Node15 -->
<g id="edge38" class="edge">
<title>Node25&#45;&gt;Node15</title>
<path fill="none" stroke="#191970" d="M637.2062,-228.3903C530.1336,-196.2053 204.6238,-97.1202 191,-78 164.2725,-40.4895 240.9514,-22.1796 287.3705,-14.7413"/>
<polygon fill="#191970" stroke="#191970" points="287.9609,-18.1919 297.3254,-13.2365 286.9146,-11.2705 287.9609,-18.1919"/>
</g>
<!-- Node25&#45;&gt;Node18 -->
<g id="edge37" class="edge">
<title>Node25&#45;&gt;Node18</title>
<path fill="none" stroke="#191970" d="M704.9311,-228.4896C722.5939,-221.3611 742.6205,-209.8182 753,-192 783.9572,-138.8568 747.5494,-63.9551 727.0788,-29.3638"/>
<polygon fill="#191970" stroke="#191970" points="730.0004,-27.4326 721.7969,-20.7278 724.0288,-31.0849 730.0004,-27.4326"/>
</g>
<!-- Node25&#45;&gt;Node23 -->
<g id="edge36" class="edge">
<title>Node25&#45;&gt;Node23</title>
<path fill="none" stroke="#191970" d="M671,-228.3095C671,-220.9335 671,-210.72 671,-201.715"/>
<polygon fill="#191970" stroke="#191970" points="674.5001,-201.6022 671,-191.6022 667.5001,-201.6023 674.5001,-201.6022"/>
</g>
<!-- Node26&#45;&gt;Node8 -->
<g id="edge46" class="edge">
<title>Node26&#45;&gt;Node8</title>
<path fill="none" stroke="#191970" d="M909.633,-171.4649C897.6679,-162.6855 880.609,-149.1536 868,-135 854.6937,-120.0637 842.5239,-100.7522 834.3728,-86.614"/>
<polygon fill="#191970" stroke="#191970" points="837.3548,-84.776 829.4071,-77.7698 831.251,-88.203 837.3548,-84.776"/>
</g>
<!-- Node26&#45;&gt;Node18 -->
<g id="edge47" class="edge">
<title>Node26&#45;&gt;Node18</title>
<path fill="none" stroke="#191970" d="M951.701,-171.4809C967.7569,-164.0737 986.606,-152.2499 996,-135 1012.2932,-105.0816 965.4249,-58.7154 963,-57 930.123,-33.7429 816.5447,-19.9067 755.1461,-13.9558"/>
<polygon fill="#191970" stroke="#191970" points="755.3245,-10.4572 745.0398,-13.0019 754.6666,-17.4262 755.3245,-10.4572"/>
</g>
<!-- Node26&#45;&gt;Node19 -->
<g id="edge45" class="edge">
<title>Node26&#45;&gt;Node19</title>
<path fill="none" stroke="#191970" d="M943.7806,-171.4588C957.0037,-163.5443 973.3319,-151.1516 981,-135 990.2687,-115.477 972.0234,-96.2537 954.6489,-83.3462"/>
<polygon fill="#191970" stroke="#191970" points="956.5207,-80.3847 946.3139,-77.5435 952.5212,-86.1296 956.5207,-80.3847"/>
</g>
<!-- Node27 -->
<g id="node27" class="node">
<title>Node27</title>
<g id="a_node27"><a xlink:href="../../d4/d2a/PHG4VtxPoint_8h.html" target="_top" xlink:title="PHG4VtxPoint.h">
<polygon fill="none" stroke="#000000" points="876.5,-114.5 876.5,-134.5 971.5,-134.5 971.5,-114.5 876.5,-114.5"/>
<text text-anchor="middle" x="924" y="-121.5" font-family="FreeSans" font-size="10.00" fill="#000000">PHG4VtxPoint.h</text>
</a>
</g>
</g>
<!-- Node26&#45;&gt;Node27 -->
<g id="edge40" class="edge">
<title>Node26&#45;&gt;Node27</title>
<path fill="none" stroke="#191970" d="M924,-171.3095C924,-163.9335 924,-153.72 924,-144.715"/>
<polygon fill="#191970" stroke="#191970" points="927.5001,-144.6022 924,-134.6022 920.5001,-144.6023 927.5001,-144.6022"/>
</g>
<!-- Node27&#45;&gt;Node8 -->
<g id="edge42" class="edge">
<title>Node27&#45;&gt;Node8</title>
<path fill="none" stroke="#191970" d="M906.122,-114.3095C890.7641,-105.5556 868.3946,-92.8049 850.8792,-82.8211"/>
<polygon fill="#191970" stroke="#191970" points="852.1442,-79.5136 841.7232,-77.6022 848.6778,-85.595 852.1442,-79.5136"/>
</g>
<!-- Node27&#45;&gt;Node16 -->
<g id="edge41" class="edge">
<title>Node27&#45;&gt;Node16</title>
<path fill="none" stroke="#191970" d="M876.2129,-115.6563C822.864,-105.7833 736.3585,-89.7741 677.8771,-78.9513"/>
<polygon fill="#191970" stroke="#191970" points="678.4907,-75.5055 668.0207,-77.1272 677.2168,-82.3886 678.4907,-75.5055"/>
</g>
<!-- Node27&#45;&gt;Node18 -->
<g id="edge44" class="edge">
<title>Node27&#45;&gt;Node18</title>
<path fill="none" stroke="#191970" d="M916.4789,-114.3111C905.1423,-99.6366 882.2943,-72.6052 857,-57 825.4017,-37.5055 784.7502,-25.2745 755.0452,-18.2785"/>
<polygon fill="#191970" stroke="#191970" points="755.5525,-14.8051 745.0274,-16.019 754.0123,-21.6336 755.5525,-14.8051"/>
</g>
<!-- Node27&#45;&gt;Node19 -->
<g id="edge43" class="edge">
<title>Node27&#45;&gt;Node19</title>
<path fill="none" stroke="#191970" d="M924.8939,-114.3095C925.5409,-106.9335 926.4368,-96.72 927.2268,-87.715"/>
<polygon fill="#191970" stroke="#191970" points="930.7265,-87.8699 928.1138,-77.6022 923.7533,-87.2581 930.7265,-87.8699"/>
</g>
</g>
</svg>
