<?xml version="1.0" encoding="UTF-8" standalone="no"?>
<!DOCTYPE svg PUBLIC "-//W3C//DTD SVG 1.1//EN"
 "http://www.w3.org/Graphics/SVG/1.1/DTD/svg11.dtd">
<!-- Generated by graphviz version 2.40.1 (20161225.0304)
 -->
<!-- Title: PHG4DetectorSubsystem::SaveParamsToFile Pages: 1 -->
<svg width="769pt" height="119pt"
 viewBox="0.00 0.00 769.00 119.00" xmlns="http://www.w3.org/2000/svg" xmlns:xlink="http://www.w3.org/1999/xlink">
<g id="graph0" class="graph" transform="scale(1 1) rotate(0) translate(4 115)">
<title>PHG4DetectorSubsystem::SaveParamsToFile</title>
<!-- Node1 -->
<g id="node1" class="node">
<title>Node1</title>
<polygon fill="#bfbfbf" stroke="#000000" points="0,-61.5 0,-93.5 144,-93.5 144,-61.5 0,-61.5"/>
<text text-anchor="start" x="8" y="-80.5" font-family="FreeSans" font-size="10.00" fill="#000000">PHG4DetectorSubsystem</text>
<text text-anchor="middle" x="72" y="-68.5" font-family="FreeSans" font-size="10.00" fill="#000000">::SaveParamsToFile</text>
</g>
<!-- Node2 -->
<g id="node2" class="node">
<title>Node2</title>
<g id="a_node2"><a xlink:href="../../d7/d6b/classPHParametersContainer.html#a2ff7874e21c88c95d6c630512185bbaa" target="_top" xlink:title="PHParametersContainer\l::WriteToFile">
<polygon fill="none" stroke="#000000" points="185.5,-39.5 185.5,-71.5 322.5,-71.5 322.5,-39.5 185.5,-39.5"/>
<text text-anchor="start" x="193.5" y="-58.5" font-family="FreeSans" font-size="10.00" fill="#000000">PHParametersContainer</text>
<text text-anchor="middle" x="254" y="-46.5" font-family="FreeSans" font-size="10.00" fill="#000000">::WriteToFile</text>
</a>
</g>
</g>
<!-- Node1&#45;&gt;Node2 -->
<g id="edge1" class="edge">
<title>Node1&#45;&gt;Node2</title>
<path fill="none" stroke="#191970" d="M144.1926,-68.7734C154.39,-67.5408 164.9169,-66.2683 175.2303,-65.0216"/>
<polygon fill="#191970" stroke="#191970" points="175.9448,-68.4608 185.4524,-63.786 175.1047,-61.5114 175.9448,-68.4608"/>
</g>
<!-- Node7 -->
<g id="node7" class="node">
<title>Node7</title>
<g id="a_node7"><a xlink:href="../../dd/dae/classPHParameters.html#a23021811f429a001055459b8342b4635" target="_top" xlink:title="PHParameters::WriteToFile">
<polygon fill="none" stroke="#000000" points="180,-90.5 180,-110.5 328,-110.5 328,-90.5 180,-90.5"/>
<text text-anchor="middle" x="254" y="-97.5" font-family="FreeSans" font-size="10.00" fill="#000000">PHParameters::WriteToFile</text>
</a>
</g>
</g>
<!-- Node1&#45;&gt;Node7 -->
<g id="edge6" class="edge">
<title>Node1&#45;&gt;Node7</title>
<path fill="none" stroke="#191970" d="M144.1926,-86.6232C152.6098,-87.687 161.2515,-88.779 169.8123,-89.8609"/>
<polygon fill="#191970" stroke="#191970" points="169.4466,-93.3424 179.8065,-91.1239 170.3243,-86.3977 169.4466,-93.3424"/>
</g>
<!-- Node3 -->
<g id="node3" class="node">
<title>Node3</title>
<g id="a_node3"><a xlink:href="../../dc/d80/classPdbBankID.html#a26db21ac8e324b200456e462d5f389dc" target="_top" xlink:title="PdbBankID::getInternalValue">
<polygon fill="none" stroke="#000000" points="384.5,-51.5 384.5,-71.5 545.5,-71.5 545.5,-51.5 384.5,-51.5"/>
<text text-anchor="middle" x="465" y="-58.5" font-family="FreeSans" font-size="10.00" fill="#000000">PdbBankID::getInternalValue</text>
</a>
</g>
</g>
<!-- Node2&#45;&gt;Node3 -->
<g id="edge2" class="edge">
<title>Node2&#45;&gt;Node3</title>
<path fill="none" stroke="#191970" d="M322.5057,-57.448C339.0026,-57.9171 356.8813,-58.4255 374.2191,-58.9186"/>
<polygon fill="#191970" stroke="#191970" points="374.2548,-62.4209 384.3503,-59.2066 374.4539,-55.4237 374.2548,-62.4209"/>
</g>
<!-- Node4 -->
<g id="node4" class="node">
<title>Node4</title>
<g id="a_node4"><a xlink:href="../../da/dc2/classPHTimeStamp.html#aaf398dcc8d0066c674cc30dbbef5efcb" target="_top" xlink:title="PHTimeStamp::getTics">
<polygon fill="none" stroke="#000000" points="399.5,-90.5 399.5,-110.5 530.5,-110.5 530.5,-90.5 399.5,-90.5"/>
<text text-anchor="middle" x="465" y="-97.5" font-family="FreeSans" font-size="10.00" fill="#000000">PHTimeStamp::getTics</text>
</a>
</g>
</g>
<!-- Node2&#45;&gt;Node4 -->
<g id="edge3" class="edge">
<title>Node2&#45;&gt;Node4</title>
<path fill="none" stroke="#191970" d="M319.6167,-71.5328C334.2,-74.9499 349.6028,-78.446 364,-81.5 375.2721,-83.8911 387.2847,-86.2849 398.9469,-88.528"/>
<polygon fill="#191970" stroke="#191970" points="398.5997,-92.0247 409.0778,-90.4565 399.9087,-85.1482 398.5997,-92.0247"/>
</g>
<!-- Node5 -->
<g id="node5" class="node">
<title>Node5</title>
<g id="a_node5"><a xlink:href="../../d7/d6b/classPHParametersContainer.html#a278f75a3ec3234961271ad8d33c4c126" target="_top" xlink:title="PHParametersContainer\l::CopyToPdbParameterMapContainer">
<polygon fill="none" stroke="#000000" points="364,-.5 364,-32.5 566,-32.5 566,-.5 364,-.5"/>
<text text-anchor="start" x="372" y="-19.5" font-family="FreeSans" font-size="10.00" fill="#000000">PHParametersContainer</text>
<text text-anchor="middle" x="465" y="-7.5" font-family="FreeSans" font-size="10.00" fill="#000000">::CopyToPdbParameterMapContainer</text>
</a>
</g>
</g>
<!-- Node2&#45;&gt;Node5 -->
<g id="edge4" class="edge">
<title>Node2&#45;&gt;Node5</title>
<path fill="none" stroke="#191970" d="M322.5057,-42.8378C337.1149,-40.1375 352.8077,-37.237 368.2489,-34.3829"/>
<polygon fill="#191970" stroke="#191970" points="369.1485,-37.776 378.3457,-32.5167 367.8761,-30.8926 369.1485,-37.776"/>
</g>
<!-- Node6 -->
<g id="node6" class="node">
<title>Node6</title>
<g id="a_node6"><a xlink:href="../../d4/d7d/classPdbParameterMapContainer.html#a0e5436b10b4e13f2575b80553dc8beba" target="_top" xlink:title="PdbParameterMapContainer\l::AddPdbParameterMap">
<polygon fill="none" stroke="#000000" points="602,-.5 602,-32.5 761,-32.5 761,-.5 602,-.5"/>
<text text-anchor="start" x="610" y="-19.5" font-family="FreeSans" font-size="10.00" fill="#000000">PdbParameterMapContainer</text>
<text text-anchor="middle" x="681.5" y="-7.5" font-family="FreeSans" font-size="10.00" fill="#000000">::AddPdbParameterMap</text>
</a>
</g>
</g>
<!-- Node5&#45;&gt;Node6 -->
<g id="edge5" class="edge">
<title>Node5&#45;&gt;Node6</title>
<path fill="none" stroke="#191970" d="M566.2772,-16.5C574.7271,-16.5 583.2339,-16.5 591.5905,-16.5"/>
<polygon fill="#191970" stroke="#191970" points="591.6954,-20.0001 601.6953,-16.5 591.6953,-13.0001 591.6954,-20.0001"/>
</g>
<!-- Node7&#45;&gt;Node3 -->
<g id="edge7" class="edge">
<title>Node7&#45;&gt;Node3</title>
<path fill="none" stroke="#191970" d="M308.3377,-90.4565C336.5183,-85.2478 371.1248,-78.8513 400.6384,-73.3962"/>
<polygon fill="#191970" stroke="#191970" points="401.6491,-76.7688 410.8464,-71.5094 400.3768,-69.8854 401.6491,-76.7688"/>
</g>
<!-- Node7&#45;&gt;Node4 -->
<g id="edge8" class="edge">
<title>Node7&#45;&gt;Node4</title>
<path fill="none" stroke="#191970" d="M328.094,-100.5C347.8122,-100.5 369.1409,-100.5 388.9614,-100.5"/>
<polygon fill="#191970" stroke="#191970" points="389.1722,-104.0001 399.1722,-100.5 389.1722,-97.0001 389.1722,-104.0001"/>
</g>
</g>
</svg>
