<?xml version="1.0" encoding="UTF-8" standalone="no"?>
<!DOCTYPE svg PUBLIC "-//W3C//DTD SVG 1.1//EN"
 "http://www.w3.org/Graphics/SVG/1.1/DTD/svg11.dtd">
<!-- Generated by graphviz version 2.40.1 (20161225.0304)
 -->
<!-- Title: PHG4DetectorSubsystem::set_default_int_param Pages: 1 -->
<svg width="642pt" height="1010pt"
 viewBox="0.00 0.00 642.00 1010.00" xmlns="http://www.w3.org/2000/svg" xmlns:xlink="http://www.w3.org/1999/xlink">
<g id="graph0" class="graph" transform="scale(1 1) rotate(0) translate(4 1006)">
<title>PHG4DetectorSubsystem::set_default_int_param</title>
<!-- Node1 -->
<g id="node1" class="node">
<title>Node1</title>
<polygon fill="#bfbfbf" stroke="#000000" points="0,-306.5 0,-338.5 144,-338.5 144,-306.5 0,-306.5"/>
<text text-anchor="start" x="8" y="-325.5" font-family="FreeSans" font-size="10.00" fill="#000000">PHG4DetectorSubsystem</text>
<text text-anchor="middle" x="72" y="-313.5" font-family="FreeSans" font-size="10.00" fill="#000000">::set_default_int_param</text>
</g>
<!-- Node2 -->
<g id="node2" class="node">
<title>Node2</title>
<g id="a_node2"><a xlink:href="../../d5/d29/classPHG4DetectorSubsystem.html#add5cbb7bd43524ba72079425ca230200" target="_top" xlink:title="PHG4DetectorSubsystem\l::InitializeParameters">
<polygon fill="none" stroke="#000000" points="211,-612.5 211,-644.5 355,-644.5 355,-612.5 211,-612.5"/>
<text text-anchor="start" x="219" y="-631.5" font-family="FreeSans" font-size="10.00" fill="#000000">PHG4DetectorSubsystem</text>
<text text-anchor="middle" x="283" y="-619.5" font-family="FreeSans" font-size="10.00" fill="#000000">::InitializeParameters</text>
</a>
</g>
</g>
<!-- Node1&#45;&gt;Node2 -->
<g id="edge1" class="edge">
<title>Node1&#45;&gt;Node2</title>
<path fill="none" stroke="#191970" d="M74.1663,-348.875C80.2137,-404.6981 102.3423,-535.2532 180,-603.5 188.777,-611.2134 199.5371,-616.6384 210.7565,-620.4357"/>
<polygon fill="#191970" stroke="#191970" points="77.6317,-348.3521 73.1595,-338.7474 70.666,-349.0446 77.6317,-348.3521"/>
</g>
<!-- Node18 -->
<g id="node18" class="node">
<title>Node18</title>
<g id="a_node18"><a xlink:href="../../d5/de1/classPHG4BeamlineMagnetSubsystem.html#a6cbc5dc67eee98d97338718fb1f1c080" target="_top" xlink:title="PHG4BeamlineMagnetSubsystem\l::SetDefaultParameters">
<polygon fill="none" stroke="#000000" points="190,-561.5 190,-593.5 376,-593.5 376,-561.5 190,-561.5"/>
<text text-anchor="start" x="198" y="-580.5" font-family="FreeSans" font-size="10.00" fill="#000000">PHG4BeamlineMagnetSubsystem</text>
<text text-anchor="middle" x="283" y="-568.5" font-family="FreeSans" font-size="10.00" fill="#000000">::SetDefaultParameters</text>
</a>
</g>
</g>
<!-- Node1&#45;&gt;Node18 -->
<g id="edge17" class="edge">
<title>Node1&#45;&gt;Node18</title>
<path fill="none" stroke="#191970" d="M76.5791,-348.4053C86.4585,-396.3543 114.4123,-498.9223 180,-552.5 184.1327,-555.876 188.6509,-558.8079 193.4141,-561.353"/>
<polygon fill="#191970" stroke="#191970" points="79.9974,-347.6482 74.6392,-338.5082 73.1281,-348.9947 79.9974,-347.6482"/>
</g>
<!-- Node19 -->
<g id="node19" class="node">
<title>Node19</title>
<g id="a_node19"><a xlink:href="../../dc/d99/classPHG4SpacalPrototype4Subsystem.html#acd68d712e33269a265e23e03b8a203fa" target="_top" xlink:title="load the default parameter to param">
<polygon fill="none" stroke="#000000" points="188.5,-510.5 188.5,-542.5 377.5,-542.5 377.5,-510.5 188.5,-510.5"/>
<text text-anchor="start" x="196.5" y="-529.5" font-family="FreeSans" font-size="10.00" fill="#000000">PHG4SpacalPrototype4Subsystem</text>
<text text-anchor="middle" x="283" y="-517.5" font-family="FreeSans" font-size="10.00" fill="#000000">::SetDefaultParameters</text>
</a>
</g>
</g>
<!-- Node1&#45;&gt;Node19 -->
<g id="edge18" class="edge">
<title>Node1&#45;&gt;Node19</title>
<path fill="none" stroke="#191970" d="M80.2432,-348.1928C94.224,-387.512 126.4102,-462.1789 180,-501.5 184.6733,-504.929 189.756,-507.8927 195.0766,-510.4536"/>
<polygon fill="#191970" stroke="#191970" points="83.4892,-346.8687 76.929,-338.5491 76.8692,-349.1438 83.4892,-346.8687"/>
</g>
<!-- Node20 -->
<g id="node20" class="node">
<title>Node20</title>
<g id="a_node20"><a xlink:href="../../de/de0/classPHG4Prototype3InnerHcalSubsystem.html#ae86fac3c5fb332658aeb764239e8ee17" target="_top" xlink:title="PHG4Prototype3InnerHcalSubsystem\l::SetDefaultParameters">
<polygon fill="none" stroke="#000000" points="181.5,-459.5 181.5,-491.5 384.5,-491.5 384.5,-459.5 181.5,-459.5"/>
<text text-anchor="start" x="189.5" y="-478.5" font-family="FreeSans" font-size="10.00" fill="#000000">PHG4Prototype3InnerHcalSubsystem</text>
<text text-anchor="middle" x="283" y="-466.5" font-family="FreeSans" font-size="10.00" fill="#000000">::SetDefaultParameters</text>
</a>
</g>
</g>
<!-- Node1&#45;&gt;Node20 -->
<g id="edge19" class="edge">
<title>Node1&#45;&gt;Node20</title>
<path fill="none" stroke="#191970" d="M86.2587,-347.5119C104.2754,-376.7849 138.0543,-424.5498 180,-450.5 185.5552,-453.9368 191.5504,-456.9012 197.7568,-459.4581"/>
<polygon fill="#191970" stroke="#191970" points="89.1212,-345.48 80.9726,-338.7086 83.1199,-349.0835 89.1212,-345.48"/>
</g>
<!-- Node21 -->
<g id="node21" class="node">
<title>Node21</title>
<g id="a_node21"><a xlink:href="../../d3/d07/classPHG4Prototype2InnerHcalSubsystem.html#a88f53a4961bd024c77349b5f49137b6b" target="_top" xlink:title="PHG4Prototype2InnerHcalSubsystem\l::SetDefaultParameters">
<polygon fill="none" stroke="#000000" points="181.5,-408.5 181.5,-440.5 384.5,-440.5 384.5,-408.5 181.5,-408.5"/>
<text text-anchor="start" x="189.5" y="-427.5" font-family="FreeSans" font-size="10.00" fill="#000000">PHG4Prototype2InnerHcalSubsystem</text>
<text text-anchor="middle" x="283" y="-415.5" font-family="FreeSans" font-size="10.00" fill="#000000">::SetDefaultParameters</text>
</a>
</g>
</g>
<!-- Node1&#45;&gt;Node21 -->
<g id="edge20" class="edge">
<title>Node1&#45;&gt;Node21</title>
<path fill="none" stroke="#191970" d="M97.892,-345.3099C118.7369,-362.55 149.4932,-385.5553 180,-399.5 187.4474,-402.9042 195.4179,-405.8803 203.5046,-408.4743"/>
<polygon fill="#191970" stroke="#191970" points="100.0431,-342.5457 90.1386,-338.7838 95.5354,-347.9012 100.0431,-342.5457"/>
</g>
<!-- Node22 -->
<g id="node22" class="node">
<title>Node22</title>
<g id="a_node22"><a xlink:href="../../d2/d00/classPHG4Prototype2OuterHcalSubsystem.html#a761ffd3ef5fde81ad19e5cf35d55d6ba" target="_top" xlink:title="PHG4Prototype2OuterHcalSubsystem\l::SetDefaultParameters">
<polygon fill="none" stroke="#000000" points="180,-357.5 180,-389.5 386,-389.5 386,-357.5 180,-357.5"/>
<text text-anchor="start" x="188" y="-376.5" font-family="FreeSans" font-size="10.00" fill="#000000">PHG4Prototype2OuterHcalSubsystem</text>
<text text-anchor="middle" x="283" y="-364.5" font-family="FreeSans" font-size="10.00" fill="#000000">::SetDefaultParameters</text>
</a>
</g>
</g>
<!-- Node1&#45;&gt;Node22 -->
<g id="edge21" class="edge">
<title>Node1&#45;&gt;Node22</title>
<path fill="none" stroke="#191970" d="M148.249,-340.9298C170.5852,-346.3287 194.8209,-352.1866 216.4996,-357.4264"/>
<polygon fill="#191970" stroke="#191970" points="149.0145,-337.5142 138.4721,-338.5667 147.3699,-344.3182 149.0145,-337.5142"/>
</g>
<!-- Node23 -->
<g id="node23" class="node">
<title>Node23</title>
<g id="a_node23"><a xlink:href="../../d3/d62/classPHG4InnerHcalSubsystem.html#ad2b6b0cb379cf8e61740098c3a36ff6c" target="_top" xlink:title="PHG4InnerHcalSubsystem\l::SetDefaultParameters">
<polygon fill="none" stroke="#000000" points="209,-306.5 209,-338.5 357,-338.5 357,-306.5 209,-306.5"/>
<text text-anchor="start" x="217" y="-325.5" font-family="FreeSans" font-size="10.00" fill="#000000">PHG4InnerHcalSubsystem</text>
<text text-anchor="middle" x="283" y="-313.5" font-family="FreeSans" font-size="10.00" fill="#000000">::SetDefaultParameters</text>
</a>
</g>
</g>
<!-- Node1&#45;&gt;Node23 -->
<g id="edge22" class="edge">
<title>Node1&#45;&gt;Node23</title>
<path fill="none" stroke="#191970" d="M154.1971,-322.5C172.1877,-322.5 191.1299,-322.5 208.7866,-322.5"/>
<polygon fill="#191970" stroke="#191970" points="154.0241,-319.0001 144.0241,-322.5 154.024,-326.0001 154.0241,-319.0001"/>
</g>
<!-- Node24 -->
<g id="node24" class="node">
<title>Node24</title>
<g id="a_node24"><a xlink:href="../../d4/d00/classPHG4SpacalPrototypeSubsystem.html#a0d4699f1ebe3aac5c0e34c19577d2573" target="_top" xlink:title="load the default parameter to param">
<polygon fill="none" stroke="#000000" points="192,-255.5 192,-287.5 374,-287.5 374,-255.5 192,-255.5"/>
<text text-anchor="start" x="200" y="-274.5" font-family="FreeSans" font-size="10.00" fill="#000000">PHG4SpacalPrototypeSubsystem</text>
<text text-anchor="middle" x="283" y="-262.5" font-family="FreeSans" font-size="10.00" fill="#000000">::SetDefaultParameters</text>
</a>
</g>
</g>
<!-- Node1&#45;&gt;Node24 -->
<g id="edge23" class="edge">
<title>Node1&#45;&gt;Node24</title>
<path fill="none" stroke="#191970" d="M148.249,-304.0702C170.5852,-298.6713 194.8209,-292.8134 216.4996,-287.5736"/>
<polygon fill="#191970" stroke="#191970" points="147.3699,-300.6818 138.4721,-306.4333 149.0145,-307.4858 147.3699,-300.6818"/>
</g>
<!-- Node25 -->
<g id="node25" class="node">
<title>Node25</title>
<g id="a_node25"><a xlink:href="../../da/d01/classPHG4OuterHcalSubsystem.html#ac25ddb8270a93b50575e71bfb48f4721" target="_top" xlink:title="PHG4OuterHcalSubsystem\l::SetDefaultParameters">
<polygon fill="none" stroke="#000000" points="207.5,-204.5 207.5,-236.5 358.5,-236.5 358.5,-204.5 207.5,-204.5"/>
<text text-anchor="start" x="215.5" y="-223.5" font-family="FreeSans" font-size="10.00" fill="#000000">PHG4OuterHcalSubsystem</text>
<text text-anchor="middle" x="283" y="-211.5" font-family="FreeSans" font-size="10.00" fill="#000000">::SetDefaultParameters</text>
</a>
</g>
</g>
<!-- Node1&#45;&gt;Node25 -->
<g id="edge24" class="edge">
<title>Node1&#45;&gt;Node25</title>
<path fill="none" stroke="#191970" d="M97.892,-299.6901C118.7369,-282.45 149.4932,-259.4447 180,-245.5 188.6189,-241.5603 197.9384,-238.194 207.3279,-235.3298"/>
<polygon fill="#191970" stroke="#191970" points="95.5354,-297.0988 90.1386,-306.2162 100.0431,-302.4543 95.5354,-297.0988"/>
</g>
<!-- Node26 -->
<g id="node26" class="node">
<title>Node26</title>
<g id="a_node26"><a xlink:href="../../d7/d58/classPHG4mRICHSubsystem.html#a1c4bdfa03f1352643f9085f0210937c1" target="_top" xlink:title="PHG4mRICHSubsystem\l::SetDefaultParameters">
<polygon fill="none" stroke="#000000" points="216,-153.5 216,-185.5 350,-185.5 350,-153.5 216,-153.5"/>
<text text-anchor="start" x="224" y="-172.5" font-family="FreeSans" font-size="10.00" fill="#000000">PHG4mRICHSubsystem</text>
<text text-anchor="middle" x="283" y="-160.5" font-family="FreeSans" font-size="10.00" fill="#000000">::SetDefaultParameters</text>
</a>
</g>
</g>
<!-- Node1&#45;&gt;Node26 -->
<g id="edge25" class="edge">
<title>Node1&#45;&gt;Node26</title>
<path fill="none" stroke="#191970" d="M86.2587,-297.4881C104.2754,-268.2151 138.0543,-220.4502 180,-194.5 190.8757,-187.7716 203.4378,-182.8539 215.9689,-179.2597"/>
<polygon fill="#191970" stroke="#191970" points="83.1199,-295.9165 80.9726,-306.2914 89.1212,-299.52 83.1199,-295.9165"/>
</g>
<!-- Node27 -->
<g id="node27" class="node">
<title>Node27</title>
<g id="a_node27"><a xlink:href="../../d6/dca/classPHG4SpacalSubsystem.html#a0847ab9a6913faf4fc495b5c50970909" target="_top" xlink:title="PHG4SpacalSubsystem\l::SetDefaultParameters">
<polygon fill="none" stroke="#000000" points="216,-102.5 216,-134.5 350,-134.5 350,-102.5 216,-102.5"/>
<text text-anchor="start" x="224" y="-121.5" font-family="FreeSans" font-size="10.00" fill="#000000">PHG4SpacalSubsystem</text>
<text text-anchor="middle" x="283" y="-109.5" font-family="FreeSans" font-size="10.00" fill="#000000">::SetDefaultParameters</text>
</a>
</g>
</g>
<!-- Node1&#45;&gt;Node27 -->
<g id="edge26" class="edge">
<title>Node1&#45;&gt;Node27</title>
<path fill="none" stroke="#191970" d="M80.2432,-296.8072C94.224,-257.488 126.4102,-182.8211 180,-143.5 190.5335,-135.7711 203.1469,-130.4064 215.8763,-126.6889"/>
<polygon fill="#191970" stroke="#191970" points="76.8692,-295.8562 76.929,-306.4509 83.4892,-298.1313 76.8692,-295.8562"/>
</g>
<!-- Node28 -->
<g id="node28" class="node">
<title>Node28</title>
<g id="a_node28"><a xlink:href="../../df/d14/classPHG4BlockSubsystem.html#ab703feea0231875301e07bb67e111068" target="_top" xlink:title="PHG4BlockSubsystem\l::SetDefaultParameters">
<polygon fill="none" stroke="#000000" points="216,-51.5 216,-83.5 350,-83.5 350,-51.5 216,-51.5"/>
<text text-anchor="start" x="224" y="-70.5" font-family="FreeSans" font-size="10.00" fill="#000000">PHG4BlockSubsystem</text>
<text text-anchor="middle" x="283" y="-58.5" font-family="FreeSans" font-size="10.00" fill="#000000">::SetDefaultParameters</text>
</a>
</g>
</g>
<!-- Node1&#45;&gt;Node28 -->
<g id="edge27" class="edge">
<title>Node1&#45;&gt;Node28</title>
<path fill="none" stroke="#191970" d="M76.5791,-296.5947C86.4585,-248.6457 114.4123,-146.0777 180,-92.5 190.2605,-84.1183 202.897,-78.4738 215.7613,-74.6898"/>
<polygon fill="#191970" stroke="#191970" points="73.1281,-296.0053 74.6392,-306.4918 79.9974,-297.3518 73.1281,-296.0053"/>
</g>
<!-- Node29 -->
<g id="node29" class="node">
<title>Node29</title>
<g id="a_node29"><a xlink:href="../../db/dc5/classPHG4CylinderSubsystem.html#a077f147993ce809de7faa97ed1aaafdd" target="_top" xlink:title="PHG4CylinderSubsystem\l::SetDefaultParameters">
<polygon fill="none" stroke="#000000" points="212,-.5 212,-32.5 354,-32.5 354,-.5 212,-.5"/>
<text text-anchor="start" x="220" y="-19.5" font-family="FreeSans" font-size="10.00" fill="#000000">PHG4CylinderSubsystem</text>
<text text-anchor="middle" x="283" y="-7.5" font-family="FreeSans" font-size="10.00" fill="#000000">::SetDefaultParameters</text>
</a>
</g>
</g>
<!-- Node1&#45;&gt;Node29 -->
<g id="edge28" class="edge">
<title>Node1&#45;&gt;Node29</title>
<path fill="none" stroke="#191970" d="M74.1663,-296.125C80.2137,-240.3019 102.3423,-109.7468 180,-41.5 189.0535,-33.5437 200.2169,-28.0221 211.8179,-24.2103"/>
<polygon fill="#191970" stroke="#191970" points="70.666,-295.9554 73.1595,-306.2526 77.6317,-296.6479 70.666,-295.9554"/>
</g>
<!-- Node3 -->
<g id="node3" class="node">
<title>Node3</title>
<g id="a_node3"><a xlink:href="../../d5/de1/classPHG4BeamlineMagnetSubsystem.html#af589434e966b2d1a190d32a888717f1e" target="_top" xlink:title="constructor">
<polygon fill="none" stroke="#000000" points="432,-969.5 432,-1001.5 624,-1001.5 624,-969.5 432,-969.5"/>
<text text-anchor="start" x="440" y="-988.5" font-family="FreeSans" font-size="10.00" fill="#000000">PHG4BeamlineMagnetSubsystem</text>
<text text-anchor="middle" x="528" y="-976.5" font-family="FreeSans" font-size="10.00" fill="#000000">::PHG4BeamlineMagnetSubsystem</text>
</a>
</g>
</g>
<!-- Node2&#45;&gt;Node3 -->
<g id="edge2" class="edge">
<title>Node2&#45;&gt;Node3</title>
<path fill="none" stroke="#191970" d="M285.9849,-654.9195C294.579,-718.0651 325.3079,-878.5676 422,-960.5 426.0391,-963.9225 430.4627,-966.8955 435.1384,-969.4762"/>
<polygon fill="#191970" stroke="#191970" points="289.4099,-654.1103 284.6668,-644.6365 282.4667,-655.0003 289.4099,-654.1103"/>
</g>
<!-- Node4 -->
<g id="node4" class="node">
<title>Node4</title>
<g id="a_node4"><a xlink:href="../../df/d14/classPHG4BlockSubsystem.html#a5232038071ac68ee3c35eeb9da0dc358" target="_top" xlink:title="constructor">
<polygon fill="none" stroke="#000000" points="461,-918.5 461,-950.5 595,-950.5 595,-918.5 461,-918.5"/>
<text text-anchor="start" x="469" y="-937.5" font-family="FreeSans" font-size="10.00" fill="#000000">PHG4BlockSubsystem</text>
<text text-anchor="middle" x="528" y="-925.5" font-family="FreeSans" font-size="10.00" fill="#000000">::PHG4BlockSubsystem</text>
</a>
</g>
</g>
<!-- Node2&#45;&gt;Node4 -->
<g id="edge3" class="edge">
<title>Node2&#45;&gt;Node4</title>
<path fill="none" stroke="#191970" d="M288.05,-654.3233C300.3616,-710.0999 337.3372,-842.2155 422,-909.5 433.1758,-918.3818 446.9794,-924.1992 460.8887,-927.9872"/>
<polygon fill="#191970" stroke="#191970" points="291.471,-653.5833 285.9708,-644.5281 284.6236,-655.0369 291.471,-653.5833"/>
</g>
<!-- Node5 -->
<g id="node5" class="node">
<title>Node5</title>
<g id="a_node5"><a xlink:href="../../db/dc5/classPHG4CylinderSubsystem.html#a23a72128ae220d7f889d4767d8987d86" target="_top" xlink:title="constructor">
<polygon fill="none" stroke="#000000" points="453.5,-867.5 453.5,-899.5 602.5,-899.5 602.5,-867.5 453.5,-867.5"/>
<text text-anchor="start" x="461.5" y="-886.5" font-family="FreeSans" font-size="10.00" fill="#000000">PHG4CylinderSubsystem</text>
<text text-anchor="middle" x="528" y="-874.5" font-family="FreeSans" font-size="10.00" fill="#000000">::PHG4CylinderSubsystem</text>
</a>
</g>
</g>
<!-- Node2&#45;&gt;Node5 -->
<g id="edge4" class="edge">
<title>Node2&#45;&gt;Node5</title>
<path fill="none" stroke="#191970" d="M291.0426,-654.2618C307.4375,-702.3469 349.4407,-805.6624 422,-858.5 431.3236,-865.2894 442.2224,-870.2627 453.4163,-873.8999"/>
<polygon fill="#191970" stroke="#191970" points="294.3126,-653.0028 287.8453,-644.6108 287.6678,-655.2042 294.3126,-653.0028"/>
</g>
<!-- Node6 -->
<g id="node6" class="node">
<title>Node6</title>
<g id="a_node6"><a xlink:href="../../d8/dce/classPHG4ForwardEcalSubsystem.html#aa39d3d6e87f805a74e690ae6dcdb0c78" target="_top" xlink:title="PHG4ForwardEcalSubsystem\l::PHG4ForwardEcalSubsystem">
<polygon fill="none" stroke="#000000" points="444,-816.5 444,-848.5 612,-848.5 612,-816.5 444,-816.5"/>
<text text-anchor="start" x="452" y="-835.5" font-family="FreeSans" font-size="10.00" fill="#000000">PHG4ForwardEcalSubsystem</text>
<text text-anchor="middle" x="528" y="-823.5" font-family="FreeSans" font-size="10.00" fill="#000000">::PHG4ForwardEcalSubsystem</text>
</a>
</g>
</g>
<!-- Node2&#45;&gt;Node6 -->
<g id="edge5" class="edge">
<title>Node2&#45;&gt;Node6</title>
<path fill="none" stroke="#191970" d="M295.3756,-653.7817C315.9735,-693.0866 361.1198,-768.3856 422,-807.5 428.7607,-811.8436 436.1981,-815.434 443.9012,-818.4016"/>
<polygon fill="#191970" stroke="#191970" points="298.3495,-651.9106 290.6731,-644.6084 292.1203,-655.1039 298.3495,-651.9106"/>
</g>
<!-- Node7 -->
<g id="node7" class="node">
<title>Node7</title>
<g id="a_node7"><a xlink:href="../../df/db1/classPHG4GDMLSubsystem.html#aa8c9b5996710a4b8f062873a91bc8e40" target="_top" xlink:title="PHG4GDMLSubsystem::\lPHG4GDMLSubsystem">
<polygon fill="none" stroke="#000000" points="460,-765.5 460,-797.5 596,-797.5 596,-765.5 460,-765.5"/>
<text text-anchor="start" x="468" y="-784.5" font-family="FreeSans" font-size="10.00" fill="#000000">PHG4GDMLSubsystem::</text>
<text text-anchor="middle" x="528" y="-772.5" font-family="FreeSans" font-size="10.00" fill="#000000">PHG4GDMLSubsystem</text>
</a>
</g>
</g>
<!-- Node2&#45;&gt;Node7 -->
<g id="edge6" class="edge">
<title>Node2&#45;&gt;Node7</title>
<path fill="none" stroke="#191970" d="M302.3605,-652.7097C327.0178,-681.8637 372.4174,-730.1856 422,-756.5 433.6909,-762.7046 446.9138,-767.3853 459.9567,-770.9115"/>
<polygon fill="#191970" stroke="#191970" points="304.7655,-650.1277 295.6808,-644.6761 299.3829,-654.6031 304.7655,-650.1277"/>
</g>
<!-- Node8 -->
<g id="node8" class="node">
<title>Node8</title>
<g id="a_node8"><a xlink:href="../../d3/d62/classPHG4InnerHcalSubsystem.html#a4fa155635357066023b6300e652fcf8c" target="_top" xlink:title="constructor">
<polygon fill="none" stroke="#000000" points="450.5,-714.5 450.5,-746.5 605.5,-746.5 605.5,-714.5 450.5,-714.5"/>
<text text-anchor="start" x="458.5" y="-733.5" font-family="FreeSans" font-size="10.00" fill="#000000">PHG4InnerHcalSubsystem</text>
<text text-anchor="middle" x="528" y="-721.5" font-family="FreeSans" font-size="10.00" fill="#000000">::PHG4InnerHcalSubsystem</text>
</a>
</g>
</g>
<!-- Node2&#45;&gt;Node8 -->
<g id="edge7" class="edge">
<title>Node2&#45;&gt;Node8</title>
<path fill="none" stroke="#191970" d="M315.8744,-650.1081C343.2758,-667.2705 383.8531,-690.7592 422,-705.5 430.9947,-708.9758 440.6125,-712.0588 450.2482,-714.7678"/>
<polygon fill="#191970" stroke="#191970" points="317.4294,-646.9498 307.1094,-644.5521 313.6816,-652.8621 317.4294,-646.9498"/>
</g>
<!-- Node9 -->
<g id="node9" class="node">
<title>Node9</title>
<g id="a_node9"><a xlink:href="../../d7/d58/classPHG4mRICHSubsystem.html#a5e244162aefab57b08d3cf4a8ecb9582" target="_top" xlink:title="constructor">
<polygon fill="none" stroke="#000000" points="457.5,-663.5 457.5,-695.5 598.5,-695.5 598.5,-663.5 457.5,-663.5"/>
<text text-anchor="start" x="465.5" y="-682.5" font-family="FreeSans" font-size="10.00" fill="#000000">PHG4mRICHSubsystem</text>
<text text-anchor="middle" x="528" y="-670.5" font-family="FreeSans" font-size="10.00" fill="#000000">::PHG4mRICHSubsystem</text>
</a>
</g>
</g>
<!-- Node2&#45;&gt;Node9 -->
<g id="edge8" class="edge">
<title>Node2&#45;&gt;Node9</title>
<path fill="none" stroke="#191970" d="M365.1501,-645.6006C394.9818,-651.8105 428.4075,-658.7685 457.177,-664.7572"/>
<polygon fill="#191970" stroke="#191970" points="365.6864,-642.1373 355.183,-643.5258 364.2598,-648.9904 365.6864,-642.1373"/>
</g>
<!-- Node10 -->
<g id="node10" class="node">
<title>Node10</title>
<g id="a_node10"><a xlink:href="../../da/d01/classPHG4OuterHcalSubsystem.html#ab6341979235b44da8b145fae2510ee11" target="_top" xlink:title="constructor">
<polygon fill="none" stroke="#000000" points="449,-612.5 449,-644.5 607,-644.5 607,-612.5 449,-612.5"/>
<text text-anchor="start" x="457" y="-631.5" font-family="FreeSans" font-size="10.00" fill="#000000">PHG4OuterHcalSubsystem</text>
<text text-anchor="middle" x="528" y="-619.5" font-family="FreeSans" font-size="10.00" fill="#000000">::PHG4OuterHcalSubsystem</text>
</a>
</g>
</g>
<!-- Node2&#45;&gt;Node10 -->
<g id="edge9" class="edge">
<title>Node2&#45;&gt;Node10</title>
<path fill="none" stroke="#191970" d="M365.3276,-628.5C392.2004,-628.5 421.9734,-628.5 448.6247,-628.5"/>
<polygon fill="#191970" stroke="#191970" points="365.183,-625.0001 355.183,-628.5 365.1829,-632.0001 365.183,-625.0001"/>
</g>
<!-- Node11 -->
<g id="node11" class="node">
<title>Node11</title>
<g id="a_node11"><a xlink:href="../../d3/d07/classPHG4Prototype2InnerHcalSubsystem.html#a98804c5ba19f0495fe2e686fe26b0a05" target="_top" xlink:title="constructor">
<polygon fill="none" stroke="#000000" points="423,-561.5 423,-593.5 633,-593.5 633,-561.5 423,-561.5"/>
<text text-anchor="start" x="431" y="-580.5" font-family="FreeSans" font-size="10.00" fill="#000000">PHG4Prototype2InnerHcalSubsystem</text>
<text text-anchor="middle" x="528" y="-568.5" font-family="FreeSans" font-size="10.00" fill="#000000">::PHG4Prototype2InnerHcalSubsystem</text>
</a>
</g>
</g>
<!-- Node2&#45;&gt;Node11 -->
<g id="edge10" class="edge">
<title>Node2&#45;&gt;Node11</title>
<path fill="none" stroke="#191970" d="M365.2116,-611.3866C392.8429,-605.6347 423.5517,-599.2423 450.7852,-593.5733"/>
<polygon fill="#191970" stroke="#191970" points="364.2598,-608.0096 355.183,-613.4742 365.6864,-614.8627 364.2598,-608.0096"/>
</g>
<!-- Node12 -->
<g id="node12" class="node">
<title>Node12</title>
<g id="a_node12"><a xlink:href="../../d2/d00/classPHG4Prototype2OuterHcalSubsystem.html#a827b0077ac70b1ea1a5e28e2c6a9c009" target="_top" xlink:title="constructor">
<polygon fill="none" stroke="#000000" points="422,-510.5 422,-542.5 634,-542.5 634,-510.5 422,-510.5"/>
<text text-anchor="start" x="430" y="-529.5" font-family="FreeSans" font-size="10.00" fill="#000000">PHG4Prototype2OuterHcalSubsystem</text>
<text text-anchor="middle" x="528" y="-517.5" font-family="FreeSans" font-size="10.00" fill="#000000">::PHG4Prototype2OuterHcalSubsystem</text>
</a>
</g>
</g>
<!-- Node2&#45;&gt;Node12 -->
<g id="edge11" class="edge">
<title>Node2&#45;&gt;Node12</title>
<path fill="none" stroke="#191970" d="M364.7265,-614.5957C372.2425,-611.59 379.4734,-607.9376 386,-603.5 408.9438,-587.9 399.0751,-568.1278 422,-552.5 427.6363,-548.6577 433.7836,-545.382 440.1868,-542.5893"/>
<polygon fill="#191970" stroke="#191970" points="363.3081,-611.3864 355.0854,-618.0676 365.6798,-617.9724 363.3081,-611.3864"/>
</g>
<!-- Node13 -->
<g id="node13" class="node">
<title>Node13</title>
<g id="a_node13"><a xlink:href="../../de/de0/classPHG4Prototype3InnerHcalSubsystem.html#a81d586847fb38956a1947b1143ee6280" target="_top" xlink:title="constructor">
<polygon fill="none" stroke="#000000" points="423,-459.5 423,-491.5 633,-491.5 633,-459.5 423,-459.5"/>
<text text-anchor="start" x="431" y="-478.5" font-family="FreeSans" font-size="10.00" fill="#000000">PHG4Prototype3InnerHcalSubsystem</text>
<text text-anchor="middle" x="528" y="-466.5" font-family="FreeSans" font-size="10.00" fill="#000000">::PHG4Prototype3InnerHcalSubsystem</text>
</a>
</g>
</g>
<!-- Node2&#45;&gt;Node13 -->
<g id="edge12" class="edge">
<title>Node2&#45;&gt;Node13</title>
<path fill="none" stroke="#191970" d="M364.5399,-617.0878C372.3707,-613.6177 379.7197,-609.175 386,-603.5 421.6689,-571.269 386.3701,-533.7741 422,-501.5 426.213,-497.6838 430.8943,-494.4049 435.8763,-491.5899"/>
<polygon fill="#191970" stroke="#191970" points="363.2158,-613.8473 355.1611,-620.7302 365.7499,-620.3725 363.2158,-613.8473"/>
</g>
<!-- Node14 -->
<g id="node14" class="node">
<title>Node14</title>
<g id="a_node14"><a xlink:href="../../dc/d99/classPHG4SpacalPrototype4Subsystem.html#ad06e68e0ee2880a982598d6a098665da" target="_top" xlink:title="constructor">
<polygon fill="none" stroke="#000000" points="430.5,-408.5 430.5,-440.5 625.5,-440.5 625.5,-408.5 430.5,-408.5"/>
<text text-anchor="start" x="438.5" y="-427.5" font-family="FreeSans" font-size="10.00" fill="#000000">PHG4SpacalPrototype4Subsystem</text>
<text text-anchor="middle" x="528" y="-415.5" font-family="FreeSans" font-size="10.00" fill="#000000">::PHG4SpacalPrototype4Subsystem</text>
</a>
</g>
</g>
<!-- Node2&#45;&gt;Node14 -->
<g id="edge13" class="edge">
<title>Node2&#45;&gt;Node14</title>
<path fill="none" stroke="#191970" d="M364.6349,-618.0077C372.5536,-614.3787 379.8959,-609.6471 386,-603.5 435.2226,-553.9305 372.8374,-500.129 422,-450.5 425.7338,-446.7308 429.9189,-443.475 434.4119,-440.6655"/>
<polygon fill="#191970" stroke="#191970" points="363.1215,-614.8425 355.1138,-621.78 365.6999,-621.3504 363.1215,-614.8425"/>
</g>
<!-- Node15 -->
<g id="node15" class="node">
<title>Node15</title>
<g id="a_node15"><a xlink:href="../../d4/d00/classPHG4SpacalPrototypeSubsystem.html#a362369b45e953ded2ad7a3584450967d" target="_top" xlink:title="constructor">
<polygon fill="none" stroke="#000000" points="433.5,-357.5 433.5,-389.5 622.5,-389.5 622.5,-357.5 433.5,-357.5"/>
<text text-anchor="start" x="441.5" y="-376.5" font-family="FreeSans" font-size="10.00" fill="#000000">PHG4SpacalPrototypeSubsystem</text>
<text text-anchor="middle" x="528" y="-364.5" font-family="FreeSans" font-size="10.00" fill="#000000">::PHG4SpacalPrototypeSubsystem</text>
</a>
</g>
</g>
<!-- Node2&#45;&gt;Node15 -->
<g id="edge14" class="edge">
<title>Node2&#45;&gt;Node15</title>
<path fill="none" stroke="#191970" d="M364.5476,-618.5514C372.5713,-614.8351 379.9616,-609.9342 386,-603.5 449.0042,-536.3664 359.0771,-466.7098 422,-399.5 425.4965,-395.7653 429.4346,-392.5291 433.6822,-389.7279"/>
<polygon fill="#191970" stroke="#191970" points="363.2456,-615.3025 355.2576,-622.2625 365.8424,-621.803 363.2456,-615.3025"/>
</g>
<!-- Node16 -->
<g id="node16" class="node">
<title>Node16</title>
<g id="a_node16"><a xlink:href="../../d6/dca/classPHG4SpacalSubsystem.html#a39749193513cd69cc159af92d7838206" target="_top" xlink:title="constructor">
<polygon fill="none" stroke="#000000" points="458,-306.5 458,-338.5 598,-338.5 598,-306.5 458,-306.5"/>
<text text-anchor="start" x="466" y="-325.5" font-family="FreeSans" font-size="10.00" fill="#000000">PHG4SpacalSubsystem</text>
<text text-anchor="middle" x="528" y="-313.5" font-family="FreeSans" font-size="10.00" fill="#000000">::PHG4SpacalSubsystem</text>
</a>
</g>
</g>
<!-- Node2&#45;&gt;Node16 -->
<g id="edge15" class="edge">
<title>Node2&#45;&gt;Node16</title>
<path fill="none" stroke="#191970" d="M364.5872,-618.8405C372.6418,-615.0776 380.0283,-610.0867 386,-603.5 462.8779,-518.7048 345.2248,-433.3882 422,-348.5 431.469,-338.0304 444.4039,-331.4525 457.9855,-327.3878"/>
<polygon fill="#191970" stroke="#191970" points="363.227,-615.615 355.2492,-622.5868 365.8334,-622.1117 363.227,-615.615"/>
</g>
<!-- Node17 -->
<g id="node17" class="node">
<title>Node17</title>
<g id="a_node17"><a xlink:href="../../d7/d0d/classPHG4TpcSubsystem.html#a533793ce1b9a0b1b38e0902ca87b93a2" target="_top" xlink:title="constructor">
<polygon fill="none" stroke="#000000" points="442.5,-255.5 442.5,-287.5 613.5,-287.5 613.5,-255.5 442.5,-255.5"/>
<text text-anchor="start" x="450.5" y="-274.5" font-family="FreeSans" font-size="10.00" fill="#000000">PHG4TpcSubsystem::PHG4Tpc</text>
<text text-anchor="middle" x="528" y="-262.5" font-family="FreeSans" font-size="10.00" fill="#000000">Subsystem</text>
</a>
</g>
</g>
<!-- Node2&#45;&gt;Node17 -->
<g id="edge16" class="edge">
<title>Node2&#45;&gt;Node17</title>
<path fill="none" stroke="#191970" d="M364.5572,-619.0613C372.6556,-615.2646 380.0606,-610.2054 386,-603.5 476.7977,-500.9926 331.3264,-400.1173 422,-297.5 427.7087,-291.0393 434.7366,-286.0539 442.4345,-282.2234"/>
<polygon fill="#191970" stroke="#191970" points="363.1377,-615.8596 355.1604,-622.8318 365.7446,-622.3561 363.1377,-615.8596"/>
</g>
</g>
</svg>
