<?xml version="1.0" encoding="UTF-8" standalone="no"?>
<!DOCTYPE svg PUBLIC "-//W3C//DTD SVG 1.1//EN"
 "http://www.w3.org/Graphics/SVG/1.1/DTD/svg11.dtd">
<!-- Generated by graphviz version 2.40.1 (20161225.0304)
 -->
<!-- Title: makeinsplit Pages: 1 -->
<svg width="1315pt" height="731pt"
 viewBox="0.00 0.00 1315.00 731.00" xmlns="http://www.w3.org/2000/svg" xmlns:xlink="http://www.w3.org/1999/xlink">
<g id="graph0" class="graph" transform="scale(1 1) rotate(0) translate(4 727)">
<title>makeinsplit</title>
<!-- Node1 -->
<g id="node1" class="node">
<title>Node1</title>
<polygon fill="#bfbfbf" stroke="#000000" points="0,-391.5 0,-411.5 75,-411.5 75,-391.5 0,-391.5"/>
<text text-anchor="middle" x="37.5" y="-398.5" font-family="FreeSans" font-size="10.00" fill="#000000">makeinsplit</text>
</g>
<!-- Node2 -->
<g id="node2" class="node">
<title>Node2</title>
<g id="a_node2"><a xlink:href="../../d0/d56/classATrack.html#a270bfd685deac92f5888274628d137c7" target="_top" xlink:title="ATrack::check">
<polygon fill="none" stroke="#000000" points="111,-702.5 111,-722.5 198,-722.5 198,-702.5 111,-702.5"/>
<text text-anchor="middle" x="154.5" y="-709.5" font-family="FreeSans" font-size="10.00" fill="#000000">ATrack::check</text>
</a>
</g>
</g>
<!-- Node1&#45;&gt;Node2 -->
<g id="edge1" class="edge">
<title>Node1&#45;&gt;Node2</title>
<path fill="none" stroke="#191970" d="M39.0286,-411.647C46.0352,-457.107 76.2347,-641.803 111,-687.5 113.7441,-691.107 117.1697,-694.2805 120.8864,-697.0477"/>
<polygon fill="#191970" stroke="#191970" points="119.0293,-700.0146 129.3364,-702.4672 122.8084,-694.1223 119.0293,-700.0146"/>
</g>
<!-- Node3 -->
<g id="node3" class="node">
<title>Node3</title>
<g id="a_node3"><a xlink:href="../../d3/dc7/classRawTowerContainer.html#a555d52b05fc064faf6c8bc2145814412" target="_top" xlink:title="RawTowerContainer::\lcompress">
<polygon fill="none" stroke="#000000" points="336,-602.5 336,-634.5 458,-634.5 458,-602.5 336,-602.5"/>
<text text-anchor="start" x="344" y="-621.5" font-family="FreeSans" font-size="10.00" fill="#000000">RawTowerContainer::</text>
<text text-anchor="middle" x="397" y="-609.5" font-family="FreeSans" font-size="10.00" fill="#000000">compress</text>
</a>
</g>
</g>
<!-- Node1&#45;&gt;Node3 -->
<g id="edge2" class="edge">
<title>Node1&#45;&gt;Node3</title>
<path fill="none" stroke="#191970" d="M41.8209,-411.6414C59.0353,-450.5252 127.0295,-590.3193 234,-638.5 269.9634,-654.6983 314.6593,-647.5485 348.1469,-637.555"/>
<polygon fill="#191970" stroke="#191970" points="349.2356,-640.8817 357.717,-634.5322 347.1272,-634.2067 349.2356,-640.8817"/>
</g>
<!-- Node5 -->
<g id="node5" class="node">
<title>Node5</title>
<g id="a_node5"><a xlink:href="../../d3/dd5/jewel-2_82_80_8f.html#a6a7de1452a015a48823a6f8e9233de63" target="_top" xlink:title="getmass">
<polygon fill="none" stroke="#000000" points="125,-469.5 125,-489.5 184,-489.5 184,-469.5 125,-469.5"/>
<text text-anchor="middle" x="154.5" y="-476.5" font-family="FreeSans" font-size="10.00" fill="#000000">getmass</text>
</a>
</g>
</g>
<!-- Node1&#45;&gt;Node5 -->
<g id="edge4" class="edge">
<title>Node1&#45;&gt;Node5</title>
<path fill="none" stroke="#191970" d="M52.7957,-411.6971C72.591,-424.894 107.2983,-448.0322 130.5901,-463.5601"/>
<polygon fill="#191970" stroke="#191970" points="128.9386,-466.6655 139.2005,-469.3004 132.8215,-460.8411 128.9386,-466.6655"/>
</g>
<!-- Node16 -->
<g id="node16" class="node">
<title>Node16</title>
<g id="a_node16"><a xlink:href="../../d6/dcf/pythia6425mod_8f.html#ac28b7ef95cee2881a46f71d3a88d05ac" target="_top" xlink:title="pyr">
<polygon fill="none" stroke="#000000" points="778,-314.5 778,-334.5 811,-334.5 811,-314.5 778,-314.5"/>
<text text-anchor="middle" x="794.5" y="-321.5" font-family="FreeSans" font-size="10.00" fill="#000000">pyr</text>
</a>
</g>
</g>
<!-- Node1&#45;&gt;Node16 -->
<g id="edge26" class="edge">
<title>Node1&#45;&gt;Node16</title>
<path fill="none" stroke="#191970" d="M54.6891,-391.4336C92.0061,-370.5618 183.7875,-324.5 267,-324.5 267,-324.5 267,-324.5 559,-324.5 634.7594,-324.5 724.2278,-324.5 767.8685,-324.5"/>
<polygon fill="#191970" stroke="#191970" points="767.94,-328.0001 777.94,-324.5 767.9399,-321.0001 767.94,-328.0001"/>
</g>
<!-- Node17 -->
<g id="node17" class="node">
<title>Node17</title>
<g id="a_node17"><a xlink:href="../../d6/dcf/pythia6425mod_8f.html#a6cee1eea51c820d9e90932c9eca205b7" target="_top" xlink:title="pyp">
<polygon fill="none" stroke="#000000" points="541.5,-217.5 541.5,-237.5 576.5,-237.5 576.5,-217.5 541.5,-217.5"/>
<text text-anchor="middle" x="559" y="-224.5" font-family="FreeSans" font-size="10.00" fill="#000000">pyp</text>
</a>
</g>
</g>
<!-- Node1&#45;&gt;Node17 -->
<g id="edge19" class="edge">
<title>Node1&#45;&gt;Node17</title>
<path fill="none" stroke="#191970" d="M42.5453,-391.3237C52.6514,-372.0955 77.3276,-330.5602 111,-310.5 251.2641,-226.938 456.5773,-224.1671 530.8647,-226.2297"/>
<polygon fill="#191970" stroke="#191970" points="531.132,-229.7404 541.2429,-226.5753 531.365,-222.7443 531.132,-229.7404"/>
</g>
<!-- Node22 -->
<g id="node22" class="node">
<title>Node22</title>
<g id="a_node22"><a xlink:href="../../d6/dcf/pythia6425mod_8f.html#a98ffa3df00dbe1c8a9944e3453e44580" target="_top" xlink:title="pyrobo">
<polygon fill="none" stroke="#000000" points="129,-149.5 129,-169.5 180,-169.5 180,-149.5 129,-149.5"/>
<text text-anchor="middle" x="154.5" y="-156.5" font-family="FreeSans" font-size="10.00" fill="#000000">pyrobo</text>
</a>
</g>
</g>
<!-- Node1&#45;&gt;Node22 -->
<g id="edge27" class="edge">
<title>Node1&#45;&gt;Node22</title>
<path fill="none" stroke="#191970" d="M41.9975,-391.4478C53.2719,-366.3352 83.7879,-298.8937 111,-243.5 122.0772,-220.9509 135.4489,-195.3559 144.4173,-178.4071"/>
<polygon fill="#191970" stroke="#191970" points="147.5401,-179.9891 149.1383,-169.5155 141.3575,-176.7064 147.5401,-179.9891"/>
</g>
<!-- Node4 -->
<g id="node4" class="node">
<title>Node4</title>
<g id="a_node4"><a xlink:href="../../d9/dd8/classRawTower.html#ab23195d58fefabd9162115afa96707cc" target="_top" xlink:title="energy assigned to the tower. Depending on stage of process and DST node name, it could be energy dep...">
<polygon fill="none" stroke="#000000" points="494,-608.5 494,-628.5 624,-628.5 624,-608.5 494,-608.5"/>
<text text-anchor="middle" x="559" y="-615.5" font-family="FreeSans" font-size="10.00" fill="#000000">RawTower::get_energy</text>
</a>
</g>
</g>
<!-- Node3&#45;&gt;Node4 -->
<g id="edge3" class="edge">
<title>Node3&#45;&gt;Node4</title>
<path fill="none" stroke="#191970" d="M458.2453,-618.5C466.6173,-618.5 475.2892,-618.5 483.8728,-618.5"/>
<polygon fill="#191970" stroke="#191970" points="483.8852,-622.0001 493.8852,-618.5 483.8851,-615.0001 483.8852,-622.0001"/>
</g>
<!-- Node5&#45;&gt;Node3 -->
<g id="edge7" class="edge">
<title>Node5&#45;&gt;Node3</title>
<path fill="none" stroke="#191970" d="M156.8154,-489.8673C163.4142,-516.629 185.0841,-587.9292 234,-616.5 261.2251,-632.4016 295.6238,-634.8418 325.7965,-632.5255"/>
<polygon fill="#191970" stroke="#191970" points="326.2265,-636.0005 335.8506,-631.5701 325.5643,-629.0319 326.2265,-636.0005"/>
</g>
<!-- Node6 -->
<g id="node6" class="node">
<title>Node6</title>
<g id="a_node6"><a xlink:href="../../d3/dd5/jewel-2_82_80_8f.html#a861c6a640ff0e9cf7304375200c3d5e0" target="_top" xlink:title="alphas">
<polygon fill="none" stroke="#000000" points="242,-586.5 242,-606.5 292,-606.5 292,-586.5 242,-586.5"/>
<text text-anchor="middle" x="267" y="-593.5" font-family="FreeSans" font-size="10.00" fill="#000000">alphas</text>
</a>
</g>
</g>
<!-- Node5&#45;&gt;Node6 -->
<g id="edge5" class="edge">
<title>Node5&#45;&gt;Node6</title>
<path fill="none" stroke="#191970" d="M160.9193,-489.6965C173.2744,-508.7324 201.9863,-550.2148 234,-577.5 235.3145,-578.6203 236.7043,-579.7098 238.1405,-580.7632"/>
<polygon fill="#191970" stroke="#191970" points="236.3896,-583.8006 246.6698,-586.3631 240.2314,-577.949 236.3896,-583.8006"/>
</g>
<!-- Node7 -->
<g id="node7" class="node">
<title>Node7</title>
<g id="a_node7"><a xlink:href="../../d3/dd5/jewel-2_82_80_8f.html#a3e5d5aa7f6baedf76c30babb8b2bddea" target="_top" xlink:title="getinspliti">
<polygon fill="none" stroke="#000000" points="234,-547.5 234,-567.5 300,-567.5 300,-547.5 234,-547.5"/>
<text text-anchor="middle" x="267" y="-554.5" font-family="FreeSans" font-size="10.00" fill="#000000">getinspliti</text>
</a>
</g>
</g>
<!-- Node5&#45;&gt;Node7 -->
<g id="edge8" class="edge">
<title>Node5&#45;&gt;Node7</title>
<path fill="none" stroke="#191970" d="M167.1153,-489.5767C182.5257,-501.7166 209.5661,-522.4768 234,-538.5 235.8865,-539.7371 237.8565,-540.9821 239.8541,-542.2107"/>
<polygon fill="#191970" stroke="#191970" points="238.2315,-545.3179 248.616,-547.4185 241.8081,-539.3005 238.2315,-545.3179"/>
</g>
<!-- Node9 -->
<g id="node9" class="node">
<title>Node9</title>
<g id="a_node9"><a xlink:href="../../d0/d2c/gmin_8f.html#a0a524108403ffb2c2ed11018378f1c75" target="_top" xlink:title="gmin">
<polygon fill="none" stroke="#000000" points="246.5,-508.5 246.5,-528.5 287.5,-528.5 287.5,-508.5 246.5,-508.5"/>
<text text-anchor="middle" x="267" y="-515.5" font-family="FreeSans" font-size="10.00" fill="#000000">gmin</text>
</a>
</g>
</g>
<!-- Node5&#45;&gt;Node9 -->
<g id="edge11" class="edge">
<title>Node5&#45;&gt;Node9</title>
<path fill="none" stroke="#191970" d="M183.4715,-489.5435C199.7535,-495.1879 220.0588,-502.2271 236.5721,-507.9517"/>
<polygon fill="#191970" stroke="#191970" points="235.6993,-511.3534 246.2941,-511.322 237.9922,-504.7395 235.6993,-511.3534"/>
</g>
<!-- Node13 -->
<g id="node13" class="node">
<title>Node13</title>
<g id="a_node13"><a xlink:href="../../d3/dd5/jewel-2_82_80_8f.html#af89efb4bec96c21255b038d832d901ab" target="_top" xlink:title="pgg">
<polygon fill="none" stroke="#000000" points="249.5,-469.5 249.5,-489.5 284.5,-489.5 284.5,-469.5 249.5,-469.5"/>
<text text-anchor="middle" x="267" y="-476.5" font-family="FreeSans" font-size="10.00" fill="#000000">pgg</text>
</a>
</g>
</g>
<!-- Node5&#45;&gt;Node13 -->
<g id="edge15" class="edge">
<title>Node5&#45;&gt;Node13</title>
<path fill="none" stroke="#191970" d="M184.0581,-479.5C201.0403,-479.5 222.2481,-479.5 238.9674,-479.5"/>
<polygon fill="#191970" stroke="#191970" points="239.2168,-483.0001 249.2167,-479.5 239.2167,-476.0001 239.2168,-483.0001"/>
</g>
<!-- Node14 -->
<g id="node14" class="node">
<title>Node14</title>
<g id="a_node14"><a xlink:href="../../d3/dd5/jewel-2_82_80_8f.html#a9c971fc07a1a6587c5ec282bcbfd1d1a" target="_top" xlink:title="pqg">
<polygon fill="none" stroke="#000000" points="249.5,-430.5 249.5,-450.5 284.5,-450.5 284.5,-430.5 249.5,-430.5"/>
<text text-anchor="middle" x="267" y="-437.5" font-family="FreeSans" font-size="10.00" fill="#000000">pqg</text>
</a>
</g>
</g>
<!-- Node5&#45;&gt;Node14 -->
<g id="edge16" class="edge">
<title>Node5&#45;&gt;Node14</title>
<path fill="none" stroke="#191970" d="M183.4715,-469.4565C200.724,-463.4757 222.4936,-455.9289 239.4828,-450.0393"/>
<polygon fill="#191970" stroke="#191970" points="241.0581,-453.1976 249.36,-446.6152 238.7652,-446.5838 241.0581,-453.1976"/>
</g>
<!-- Node15 -->
<g id="node15" class="node">
<title>Node15</title>
<g id="a_node15"><a xlink:href="../../d3/dd5/jewel-2_82_80_8f.html#a5c4972205992c66a4d4f520bf2322bae" target="_top" xlink:title="pqq">
<polygon fill="none" stroke="#000000" points="249.5,-391.5 249.5,-411.5 284.5,-411.5 284.5,-391.5 249.5,-391.5"/>
<text text-anchor="middle" x="267" y="-398.5" font-family="FreeSans" font-size="10.00" fill="#000000">pqq</text>
</a>
</g>
</g>
<!-- Node5&#45;&gt;Node15 -->
<g id="edge17" class="edge">
<title>Node5&#45;&gt;Node15</title>
<path fill="none" stroke="#191970" d="M167.7554,-469.2916C183.3387,-457.4174 210.1113,-437.4111 234,-421.5 236.1954,-420.0377 238.4962,-418.5521 240.8179,-417.085"/>
<polygon fill="#191970" stroke="#191970" points="243.0253,-419.8357 249.6981,-411.6062 239.3498,-413.8783 243.0253,-419.8357"/>
</g>
<!-- Node5&#45;&gt;Node16 -->
<g id="edge18" class="edge">
<title>Node5&#45;&gt;Node16</title>
<path fill="none" stroke="#191970" d="M159.3929,-469.4038C169.8733,-449.0057 196.6127,-403.0783 234,-382.5 297.942,-347.3058 324.0123,-362.5 397,-362.5 397,-362.5 397,-362.5 559,-362.5 635.7106,-362.5 724.7024,-342.6063 768.0441,-331.6069"/>
<polygon fill="#191970" stroke="#191970" points="768.9962,-334.9759 777.8014,-329.0837 767.2436,-328.1989 768.9962,-334.9759"/>
</g>
<!-- Node6&#45;&gt;Node3 -->
<g id="edge6" class="edge">
<title>Node6&#45;&gt;Node3</title>
<path fill="none" stroke="#191970" d="M292.0653,-600.7418C301.8645,-602.4001 313.6407,-604.393 325.709,-606.4354"/>
<polygon fill="#191970" stroke="#191970" points="325.4341,-609.9385 335.878,-608.1563 326.6022,-603.0367 325.4341,-609.9385"/>
</g>
<!-- Node7&#45;&gt;Node3 -->
<g id="edge9" class="edge">
<title>Node7&#45;&gt;Node3</title>
<path fill="none" stroke="#191970" d="M288.4669,-567.5729C306.1354,-575.8635 331.7462,-587.8809 353.6526,-598.1601"/>
<polygon fill="#191970" stroke="#191970" points="352.2406,-601.3636 362.7803,-602.4431 355.2142,-595.0266 352.2406,-601.3636"/>
</g>
<!-- Node8 -->
<g id="node8" class="node">
<title>Node8</title>
<g id="a_node8"><a xlink:href="../../d3/dd5/jewel-2_82_80_8f.html#a128c80a01e220038eb138a985885083a" target="_top" xlink:title="ei">
<polygon fill="none" stroke="#000000" points="382.5,-547.5 382.5,-567.5 411.5,-567.5 411.5,-547.5 382.5,-547.5"/>
<text text-anchor="middle" x="397" y="-554.5" font-family="FreeSans" font-size="10.00" fill="#000000">ei</text>
</a>
</g>
</g>
<!-- Node7&#45;&gt;Node8 -->
<g id="edge10" class="edge">
<title>Node7&#45;&gt;Node8</title>
<path fill="none" stroke="#191970" d="M300.1409,-557.5C322.5864,-557.5 351.7658,-557.5 372.2076,-557.5"/>
<polygon fill="#191970" stroke="#191970" points="372.2928,-561.0001 382.2928,-557.5 372.2928,-554.0001 372.2928,-561.0001"/>
</g>
<!-- Node10 -->
<g id="node10" class="node">
<title>Node10</title>
<g id="a_node10"><a xlink:href="../../de/de0/matchedfilter_8C.html#ad37474ba23a5f0af2c619aeeaad07526" target="_top" xlink:title="go">
<polygon fill="none" stroke="#000000" points="382.5,-508.5 382.5,-528.5 411.5,-528.5 411.5,-508.5 382.5,-508.5"/>
<text text-anchor="middle" x="397" y="-515.5" font-family="FreeSans" font-size="10.00" fill="#000000">go</text>
</a>
</g>
</g>
<!-- Node9&#45;&gt;Node10 -->
<g id="edge12" class="edge">
<title>Node9&#45;&gt;Node10</title>
<path fill="none" stroke="#191970" d="M287.5989,-518.5C310.4465,-518.5 347.3141,-518.5 371.8486,-518.5"/>
<polygon fill="#191970" stroke="#191970" points="372.1586,-522.0001 382.1586,-518.5 372.1586,-515.0001 372.1586,-522.0001"/>
</g>
<!-- Node11 -->
<g id="node11" class="node">
<title>Node11</title>
<g id="a_node11"><a xlink:href="../../de/de0/matchedfilter_8C.html#a3f4d763c3fdd217c038a53ba4ca5b98a" target="_top" xlink:title="meanw">
<polygon fill="none" stroke="#000000" points="532.5,-528.5 532.5,-548.5 585.5,-548.5 585.5,-528.5 532.5,-528.5"/>
<text text-anchor="middle" x="559" y="-535.5" font-family="FreeSans" font-size="10.00" fill="#000000">meanw</text>
</a>
</g>
</g>
<!-- Node10&#45;&gt;Node11 -->
<g id="edge13" class="edge">
<title>Node10&#45;&gt;Node11</title>
<path fill="none" stroke="#191970" d="M411.6621,-520.3101C436.3667,-523.3601 487.0086,-529.6122 521.9698,-533.9284"/>
<polygon fill="#191970" stroke="#191970" points="521.9168,-537.4483 532.2703,-535.2 522.7745,-530.5011 521.9168,-537.4483"/>
</g>
<!-- Node12 -->
<g id="node12" class="node">
<title>Node12</title>
<g id="a_node12"><a xlink:href="../../de/de0/matchedfilter_8C.html#ac662fab4d6569f9ab320da1b95bcd663" target="_top" xlink:title="round">
<polygon fill="none" stroke="#000000" points="536.5,-489.5 536.5,-509.5 581.5,-509.5 581.5,-489.5 536.5,-489.5"/>
<text text-anchor="middle" x="559" y="-496.5" font-family="FreeSans" font-size="10.00" fill="#000000">round</text>
</a>
</g>
</g>
<!-- Node10&#45;&gt;Node12 -->
<g id="edge14" class="edge">
<title>Node10&#45;&gt;Node12</title>
<path fill="none" stroke="#191970" d="M411.6621,-516.7804C437.3549,-513.767 491.1014,-507.4634 526.0872,-503.3601"/>
<polygon fill="#191970" stroke="#191970" points="526.7665,-506.8046 536.2907,-502.1634 525.951,-499.8522 526.7665,-506.8046"/>
</g>
<!-- Node18 -->
<g id="node18" class="node">
<title>Node18</title>
<g id="a_node18"><a xlink:href="../../d6/dcf/pythia6425mod_8f.html#a27f75936fde97780175fa2c990bc61cd" target="_top" xlink:title="pychge">
<polygon fill="none" stroke="#000000" points="661,-275.5 661,-295.5 714,-295.5 714,-275.5 661,-275.5"/>
<text text-anchor="middle" x="687.5" y="-282.5" font-family="FreeSans" font-size="10.00" fill="#000000">pychge</text>
</a>
</g>
</g>
<!-- Node17&#45;&gt;Node18 -->
<g id="edge20" class="edge">
<title>Node17&#45;&gt;Node18</title>
<path fill="none" stroke="#191970" d="M576.5979,-235.443C596.8654,-244.591 630.5705,-259.8042 655.5139,-271.0627"/>
<polygon fill="#191970" stroke="#191970" points="654.3775,-274.3897 664.932,-275.3137 657.2573,-268.0095 654.3775,-274.3897"/>
</g>
<!-- Node19 -->
<g id="node19" class="node">
<title>Node19</title>
<g id="a_node19"><a xlink:href="../../d6/dcf/pythia6425mod_8f.html#aa8c99978a55999fa0b1fd2a946d8553a" target="_top" xlink:title="pyangl">
<polygon fill="none" stroke="#000000" points="662.5,-197.5 662.5,-217.5 712.5,-217.5 712.5,-197.5 662.5,-197.5"/>
<text text-anchor="middle" x="687.5" y="-204.5" font-family="FreeSans" font-size="10.00" fill="#000000">pyangl</text>
</a>
</g>
</g>
<!-- Node17&#45;&gt;Node19 -->
<g id="edge21" class="edge">
<title>Node17&#45;&gt;Node19</title>
<path fill="none" stroke="#191970" d="M576.5979,-224.761C595.9644,-221.7468 627.6,-216.823 652.1369,-213.004"/>
<polygon fill="#191970" stroke="#191970" points="652.8189,-216.4401 662.1617,-211.4437 651.7423,-209.5233 652.8189,-216.4401"/>
</g>
<!-- Node20 -->
<g id="node20" class="node">
<title>Node20</title>
<g id="a_node20"><a xlink:href="../../da/d0a/CylinderKalman_8cpp.html#ab74daa0c9784c63e060bfb98cc06fbf5" target="_top" xlink:title="sign">
<polygon fill="none" stroke="#000000" points="776,-177.5 776,-197.5 813,-197.5 813,-177.5 776,-177.5"/>
<text text-anchor="middle" x="794.5" y="-184.5" font-family="FreeSans" font-size="10.00" fill="#000000">sign</text>
</a>
</g>
</g>
<!-- Node17&#45;&gt;Node20 -->
<g id="edge25" class="edge">
<title>Node17&#45;&gt;Node20</title>
<path fill="none" stroke="#191970" d="M576.6637,-218.4165C596.3817,-208.8216 629.532,-194.2954 660,-188.5 695.8456,-181.6817 738.0423,-182.8144 765.4821,-184.732"/>
<polygon fill="#191970" stroke="#191970" points="765.3379,-188.2313 775.58,-185.5204 765.8828,-181.2526 765.3379,-188.2313"/>
</g>
<!-- Node21 -->
<g id="node21" class="node">
<title>Node21</title>
<g id="a_node21"><a xlink:href="../../d6/dcf/pythia6425mod_8f.html#ad69903a1054f4f77d45fd8fe4c687aa9" target="_top" xlink:title="pymass">
<polygon fill="none" stroke="#000000" points="660,-236.5 660,-256.5 715,-256.5 715,-236.5 660,-236.5"/>
<text text-anchor="middle" x="687.5" y="-243.5" font-family="FreeSans" font-size="10.00" fill="#000000">pymass</text>
</a>
</g>
</g>
<!-- Node17&#45;&gt;Node21 -->
<g id="edge23" class="edge">
<title>Node17&#45;&gt;Node21</title>
<path fill="none" stroke="#191970" d="M576.5979,-230.102C595.3629,-232.8766 625.6469,-237.3544 649.8309,-240.9303"/>
<polygon fill="#191970" stroke="#191970" points="649.3663,-244.3995 659.7707,-242.3999 650.3902,-237.4748 649.3663,-244.3995"/>
</g>
<!-- Node19&#45;&gt;Node20 -->
<g id="edge22" class="edge">
<title>Node19&#45;&gt;Node20</title>
<path fill="none" stroke="#191970" d="M712.5867,-202.8109C728.4972,-199.837 749.1307,-195.9802 765.7083,-192.8816"/>
<polygon fill="#191970" stroke="#191970" points="766.7393,-196.2496 775.926,-190.9718 765.4531,-189.3688 766.7393,-196.2496"/>
</g>
<!-- Node21&#45;&gt;Node16 -->
<g id="edge24" class="edge">
<title>Node21&#45;&gt;Node16</title>
<path fill="none" stroke="#191970" d="M701.4929,-256.6705C705.8237,-259.8199 710.61,-263.3023 715,-266.5 734.4586,-280.6739 756.5816,-296.8163 772.5409,-308.466"/>
<polygon fill="#191970" stroke="#191970" points="770.5765,-311.3654 780.717,-314.4349 774.704,-305.7117 770.5765,-311.3654"/>
</g>
<!-- Node23 -->
<g id="node23" class="node">
<title>Node23</title>
<g id="a_node23"><a xlink:href="../../d6/dcf/pythia6425mod_8f.html#a8a7efe2037220dc632000fb06895ebca" target="_top" xlink:title="pyerrm">
<polygon fill="none" stroke="#000000" points="241,-109.5 241,-129.5 293,-129.5 293,-109.5 241,-109.5"/>
<text text-anchor="middle" x="267" y="-116.5" font-family="FreeSans" font-size="10.00" fill="#000000">pyerrm</text>
</a>
</g>
</g>
<!-- Node22&#45;&gt;Node23 -->
<g id="edge28" class="edge">
<title>Node22&#45;&gt;Node23</title>
<path fill="none" stroke="#191970" d="M180.028,-150.4234C195.2019,-145.0282 214.6784,-138.1032 231.3525,-132.1747"/>
<polygon fill="#191970" stroke="#191970" points="232.5427,-135.4662 240.7923,-128.8183 230.1976,-128.8707 232.5427,-135.4662"/>
</g>
<!-- Node24 -->
<g id="node24" class="node">
<title>Node24</title>
<g id="a_node24"><a xlink:href="../../d6/dcf/pythia6425mod_8f.html#acc54128638bbd93cf630e1576f91d443" target="_top" xlink:title="pylist">
<polygon fill="none" stroke="#000000" points="375,-109.5 375,-129.5 419,-129.5 419,-109.5 375,-109.5"/>
<text text-anchor="middle" x="397" y="-116.5" font-family="FreeSans" font-size="10.00" fill="#000000">pylist</text>
</a>
</g>
</g>
<!-- Node23&#45;&gt;Node24 -->
<g id="edge29" class="edge">
<title>Node23&#45;&gt;Node24</title>
<path fill="none" stroke="#191970" d="M293.3074,-119.5C313.8378,-119.5 342.4652,-119.5 364.4403,-119.5"/>
<polygon fill="#191970" stroke="#191970" points="364.6291,-123.0001 374.6291,-119.5 364.6291,-116.0001 364.6291,-123.0001"/>
</g>
<!-- Node28 -->
<g id="node28" class="node">
<title>Node28</title>
<g id="a_node28"><a xlink:href="../../d6/dcf/pythia6425mod_8f.html#a4140396b9ec9bafcebf4c7ebecb462e7" target="_top" xlink:title="pystop">
<polygon fill="none" stroke="#000000" points="662.5,-31.5 662.5,-51.5 712.5,-51.5 712.5,-31.5 662.5,-31.5"/>
<text text-anchor="middle" x="687.5" y="-38.5" font-family="FreeSans" font-size="10.00" fill="#000000">pystop</text>
</a>
</g>
</g>
<!-- Node23&#45;&gt;Node28 -->
<g id="edge43" class="edge">
<title>Node23&#45;&gt;Node28</title>
<path fill="none" stroke="#191970" d="M288.5993,-109.3626C328.2325,-91.3839 415.7006,-54.5771 494,-41.5 548.5171,-32.3949 612.8857,-34.9935 651.9236,-38.0128"/>
<polygon fill="#191970" stroke="#191970" points="651.9787,-41.5293 662.2334,-38.8662 652.5562,-34.5531 651.9787,-41.5293"/>
</g>
<!-- Node24&#45;&gt;Node17 -->
<g id="edge42" class="edge">
<title>Node24&#45;&gt;Node17</title>
<path fill="none" stroke="#191970" d="M412.2406,-129.6604C440.5836,-148.5558 501.5792,-189.2195 535.3294,-211.7196"/>
<polygon fill="#191970" stroke="#191970" points="533.4199,-214.6531 543.6819,-217.2879 537.3029,-208.8287 533.4199,-214.6531"/>
</g>
<!-- Node25 -->
<g id="node25" class="node">
<title>Node25</title>
<g id="a_node25"><a xlink:href="../../dc/d9f/hcalUtil_8C.html#af562b1ac3ac927ecde202ce0501a97a6" target="_top" xlink:title="ps">
<polygon fill="none" stroke="#000000" points="544.5,-129.5 544.5,-149.5 573.5,-149.5 573.5,-129.5 544.5,-129.5"/>
<text text-anchor="middle" x="559" y="-136.5" font-family="FreeSans" font-size="10.00" fill="#000000">ps</text>
</a>
</g>
</g>
<!-- Node24&#45;&gt;Node25 -->
<g id="edge30" class="edge">
<title>Node24&#45;&gt;Node25</title>
<path fill="none" stroke="#191970" d="M419.1857,-122.239C449.262,-125.9521 502.8106,-132.563 534.1874,-136.4367"/>
<polygon fill="#191970" stroke="#191970" points="533.9327,-139.9318 544.2863,-137.6835 534.7905,-132.9845 533.9327,-139.9318"/>
</g>
<!-- Node27 -->
<g id="node27" class="node">
<title>Node27</title>
<g id="a_node27"><a xlink:href="../../d6/dcf/pythia6425mod_8f.html#a56718d08dbb42b3b978fc9b5bd6970e6" target="_top" xlink:title="pylogo">
<polygon fill="none" stroke="#000000" points="534,-90.5 534,-110.5 584,-110.5 584,-90.5 534,-90.5"/>
<text text-anchor="middle" x="559" y="-97.5" font-family="FreeSans" font-size="10.00" fill="#000000">pylogo</text>
</a>
</g>
</g>
<!-- Node24&#45;&gt;Node27 -->
<g id="edge32" class="edge">
<title>Node24&#45;&gt;Node27</title>
<path fill="none" stroke="#191970" d="M419.1857,-116.898C446.1235,-113.7386 491.8903,-108.3709 523.6921,-104.641"/>
<polygon fill="#191970" stroke="#191970" points="524.3702,-108.0856 533.8944,-103.4445 523.5547,-101.1333 524.3702,-108.0856"/>
</g>
<!-- Node35 -->
<g id="node35" class="node">
<title>Node35</title>
<g id="a_node35"><a xlink:href="../../d6/dcf/pythia6425mod_8f.html#ab0dbe916b7d36854c02faf180f41d585" target="_top" xlink:title="pyname">
<polygon fill="none" stroke="#000000" points="530.5,-51.5 530.5,-71.5 587.5,-71.5 587.5,-51.5 530.5,-51.5"/>
<text text-anchor="middle" x="559" y="-58.5" font-family="FreeSans" font-size="10.00" fill="#000000">pyname</text>
</a>
</g>
</g>
<!-- Node24&#45;&gt;Node35 -->
<g id="edge41" class="edge">
<title>Node24&#45;&gt;Node35</title>
<path fill="none" stroke="#191970" d="M419.1115,-109.8895C438.6217,-101.5834 467.9299,-89.5269 494,-80.5 502.5563,-77.5374 511.8473,-74.6377 520.6565,-72.0312"/>
<polygon fill="#191970" stroke="#191970" points="521.7033,-75.3719 530.3329,-69.2253 519.7538,-68.6489 521.7033,-75.3719"/>
</g>
<!-- Node26 -->
<g id="node26" class="node">
<title>Node26</title>
<g id="a_node26"><a xlink:href="../../da/d55/TPCRateLayered_8m.html#a7507ef556477c204b499f1e189d40796" target="_top" xlink:title="sum">
<polygon fill="none" stroke="#000000" points="668.5,-119.5 668.5,-139.5 706.5,-139.5 706.5,-119.5 668.5,-119.5"/>
<text text-anchor="middle" x="687.5" y="-126.5" font-family="FreeSans" font-size="10.00" fill="#000000">sum</text>
</a>
</g>
</g>
<!-- Node25&#45;&gt;Node26 -->
<g id="edge31" class="edge">
<title>Node25&#45;&gt;Node26</title>
<path fill="none" stroke="#191970" d="M573.7406,-138.3529C594.2515,-136.7567 631.8429,-133.8313 658.1816,-131.7816"/>
<polygon fill="#191970" stroke="#191970" points="658.6551,-135.2554 668.3534,-130.99 658.1119,-128.2765 658.6551,-135.2554"/>
</g>
<!-- Node27&#45;&gt;Node28 -->
<g id="edge33" class="edge">
<title>Node27&#45;&gt;Node28</title>
<path fill="none" stroke="#191970" d="M584.234,-94.3343C596.5034,-90.9376 611.3053,-86.2399 624,-80.5 638.2788,-74.0439 653.2612,-64.9663 665.0849,-57.1933"/>
<polygon fill="#191970" stroke="#191970" points="667.1029,-60.0541 673.4468,-51.5686 663.1958,-54.2459 667.1029,-60.0541"/>
</g>
<!-- Node34 -->
<g id="node34" class="node">
<title>Node34</title>
<g id="a_node34"><a xlink:href="../../d6/dcf/pythia6425mod_8f.html#a523e4acf745637220400daf831c34a23" target="_top" xlink:title="pytime">
<polygon fill="none" stroke="#000000" points="662,-80.5 662,-100.5 713,-100.5 713,-80.5 662,-80.5"/>
<text text-anchor="middle" x="687.5" y="-87.5" font-family="FreeSans" font-size="10.00" fill="#000000">pytime</text>
</a>
</g>
</g>
<!-- Node27&#45;&gt;Node34 -->
<g id="edge40" class="edge">
<title>Node27&#45;&gt;Node34</title>
<path fill="none" stroke="#191970" d="M584.0811,-98.5482C603.2881,-97.0535 630.0467,-94.9711 651.5331,-93.299"/>
<polygon fill="#191970" stroke="#191970" points="651.9029,-96.7809 661.6012,-92.5155 651.3598,-89.802 651.9029,-96.7809"/>
</g>
<!-- Node29 -->
<g id="node29" class="node">
<title>Node29</title>
<g id="a_node29"><a xlink:href="../../d0/d5e/classPHTimer.html#adce6f9a85834e59bd154b9c624ee4e41" target="_top" xlink:title="stops the counter">
<polygon fill="none" stroke="#000000" points="751,-31.5 751,-51.5 838,-51.5 838,-31.5 751,-31.5"/>
<text text-anchor="middle" x="794.5" y="-38.5" font-family="FreeSans" font-size="10.00" fill="#000000">PHTimer::stop</text>
</a>
</g>
</g>
<!-- Node28&#45;&gt;Node29 -->
<g id="edge34" class="edge">
<title>Node28&#45;&gt;Node29</title>
<path fill="none" stroke="#191970" d="M712.5867,-41.5C721.0221,-41.5 730.7851,-41.5 740.5674,-41.5"/>
<polygon fill="#191970" stroke="#191970" points="740.7137,-45.0001 750.7137,-41.5 740.7137,-38.0001 740.7137,-45.0001"/>
</g>
<!-- Node30 -->
<g id="node30" class="node">
<title>Node30</title>
<g id="a_node30"><a xlink:href="../../d0/d5e/classPHTimer.html#aa92e3fe4a0a1799f39743eda9ef9d497" target="_top" xlink:title="gets time from cpu clock counts">
<polygon fill="none" stroke="#000000" points="1027.5,-45.5 1027.5,-77.5 1140.5,-77.5 1140.5,-45.5 1027.5,-45.5"/>
<text text-anchor="start" x="1035.5" y="-64.5" font-family="FreeSans" font-size="10.00" fill="#000000">PHTimer::get_clock</text>
<text text-anchor="middle" x="1084" y="-52.5" font-family="FreeSans" font-size="10.00" fill="#000000">_counts</text>
</a>
</g>
</g>
<!-- Node29&#45;&gt;Node30 -->
<g id="edge35" class="edge">
<title>Node29&#45;&gt;Node30</title>
<path fill="none" stroke="#191970" d="M838.1545,-44.5159C885.665,-47.7981 962.1979,-53.0853 1017.258,-56.8892"/>
<polygon fill="#191970" stroke="#191970" points="1017.0597,-60.3837 1027.2772,-57.5813 1017.5422,-53.4004 1017.0597,-60.3837"/>
</g>
<!-- Node31 -->
<g id="node31" class="node">
<title>Node31</title>
<g id="a_node31"><a xlink:href="../../d0/d5e/classPHTimer.html#a976738876ad978116fdc4549a3765685" target="_top" xlink:title="retrieve elapsed value since last restart (in ms)">
<polygon fill="none" stroke="#000000" points="874,-12.5 874,-32.5 979,-32.5 979,-12.5 874,-12.5"/>
<text text-anchor="middle" x="926.5" y="-19.5" font-family="FreeSans" font-size="10.00" fill="#000000">PHTimer::elapsed</text>
</a>
</g>
</g>
<!-- Node29&#45;&gt;Node31 -->
<g id="edge36" class="edge">
<title>Node29&#45;&gt;Node31</title>
<path fill="none" stroke="#191970" d="M838.0876,-35.226C846.2917,-34.0451 855.0201,-32.7888 863.6756,-31.5429"/>
<polygon fill="#191970" stroke="#191970" points="864.3676,-34.9795 873.767,-30.0904 863.3703,-28.0509 864.3676,-34.9795"/>
</g>
<!-- Node31&#45;&gt;Node30 -->
<g id="edge39" class="edge">
<title>Node31&#45;&gt;Node30</title>
<path fill="none" stroke="#191970" d="M967.0602,-32.5435C982.3746,-36.3356 1000.2315,-40.7573 1017.3129,-44.987"/>
<polygon fill="#191970" stroke="#191970" points="1016.7073,-48.4427 1027.2554,-47.449 1018.3898,-41.6479 1016.7073,-48.4427"/>
</g>
<!-- Node32 -->
<g id="node32" class="node">
<title>Node32</title>
<g id="a_node32"><a xlink:href="../../d0/d5e/classPHTimer.html#aa75ff2c27aba40e7ef0a934f9a3355c2" target="_top" xlink:title="returns difference between to time">
<polygon fill="none" stroke="#000000" points="1015,-6.5 1015,-26.5 1153,-26.5 1153,-6.5 1015,-6.5"/>
<text text-anchor="middle" x="1084" y="-13.5" font-family="FreeSans" font-size="10.00" fill="#000000">PHTimer::get_difference</text>
</a>
</g>
</g>
<!-- Node31&#45;&gt;Node32 -->
<g id="edge37" class="edge">
<title>Node31&#45;&gt;Node32</title>
<path fill="none" stroke="#191970" d="M979.3834,-20.4854C987.5408,-20.1746 996.1148,-19.848 1004.6976,-19.521"/>
<polygon fill="#191970" stroke="#191970" points="1004.8931,-23.0162 1014.7526,-19.138 1004.6266,-16.0213 1004.8931,-23.0162"/>
</g>
<!-- Node33 -->
<g id="node33" class="node">
<title>Node33</title>
<g id="a_node33"><a xlink:href="../../d2/db1/classPHTimer_1_1Frequency.html#a023a2d706df9a8bd303810a9ed017f61" target="_top" xlink:title="period accessor">
<polygon fill="none" stroke="#000000" points="1189,-.5 1189,-32.5 1307,-32.5 1307,-.5 1189,-.5"/>
<text text-anchor="start" x="1197" y="-19.5" font-family="FreeSans" font-size="10.00" fill="#000000">PHTimer::Frequency</text>
<text text-anchor="middle" x="1248" y="-7.5" font-family="FreeSans" font-size="10.00" fill="#000000">::period</text>
</a>
</g>
</g>
<!-- Node32&#45;&gt;Node33 -->
<g id="edge38" class="edge">
<title>Node32&#45;&gt;Node33</title>
<path fill="none" stroke="#191970" d="M1153.0754,-16.5C1161.5394,-16.5 1170.1918,-16.5 1178.6596,-16.5"/>
<polygon fill="#191970" stroke="#191970" points="1178.8719,-20.0001 1188.8719,-16.5 1178.8719,-13.0001 1178.8719,-20.0001"/>
</g>
</g>
</svg>
