<?xml version="1.0" encoding="UTF-8" standalone="no"?>
<!DOCTYPE svg PUBLIC "-//W3C//DTD SVG 1.1//EN"
 "http://www.w3.org/Graphics/SVG/1.1/DTD/svg11.dtd">
<!-- Generated by graphviz version 2.40.1 (20161225.0304)
 -->
<!-- Title: intpgghigh Pages: 1 -->
<svg width="403pt" height="41pt"
 viewBox="0.00 0.00 403.00 41.00" xmlns="http://www.w3.org/2000/svg" xmlns:xlink="http://www.w3.org/1999/xlink">
<g id="graph0" class="graph" transform="scale(1 1) rotate(0) translate(4 37)">
<title>intpgghigh</title>
<!-- Node1 -->
<g id="node1" class="node">
<title>Node1</title>
<polygon fill="#bfbfbf" stroke="#000000" points="0,-6.5 0,-26.5 71,-26.5 71,-6.5 0,-6.5"/>
<text text-anchor="middle" x="35.5" y="-13.5" font-family="FreeSans" font-size="10.00" fill="#000000">intpgghigh</text>
</g>
<!-- Node2 -->
<g id="node2" class="node">
<title>Node2</title>
<g id="a_node2"><a xlink:href="../../d3/dc7/classRawTowerContainer.html#a555d52b05fc064faf6c8bc2145814412" target="_top" xlink:title="RawTowerContainer::\lcompress">
<polygon fill="none" stroke="#000000" points="107,-.5 107,-32.5 229,-32.5 229,-.5 107,-.5"/>
<text text-anchor="start" x="115" y="-19.5" font-family="FreeSans" font-size="10.00" fill="#000000">RawTowerContainer::</text>
<text text-anchor="middle" x="168" y="-7.5" font-family="FreeSans" font-size="10.00" fill="#000000">compress</text>
</a>
</g>
</g>
<!-- Node1&#45;&gt;Node2 -->
<g id="edge1" class="edge">
<title>Node1&#45;&gt;Node2</title>
<path fill="none" stroke="#191970" d="M71.0076,-16.5C79.0277,-16.5 87.8203,-16.5 96.7346,-16.5"/>
<polygon fill="#191970" stroke="#191970" points="96.8163,-20.0001 106.8162,-16.5 96.8162,-13.0001 96.8163,-20.0001"/>
</g>
<!-- Node3 -->
<g id="node3" class="node">
<title>Node3</title>
<g id="a_node3"><a xlink:href="../../d9/dd8/classRawTower.html#ab23195d58fefabd9162115afa96707cc" target="_top" xlink:title="energy assigned to the tower. Depending on stage of process and DST node name, it could be energy dep...">
<polygon fill="none" stroke="#000000" points="265,-6.5 265,-26.5 395,-26.5 395,-6.5 265,-6.5"/>
<text text-anchor="middle" x="330" y="-13.5" font-family="FreeSans" font-size="10.00" fill="#000000">RawTower::get_energy</text>
</a>
</g>
</g>
<!-- Node2&#45;&gt;Node3 -->
<g id="edge2" class="edge">
<title>Node2&#45;&gt;Node3</title>
<path fill="none" stroke="#191970" d="M229.2453,-16.5C237.6173,-16.5 246.2892,-16.5 254.8728,-16.5"/>
<polygon fill="#191970" stroke="#191970" points="254.8852,-20.0001 264.8852,-16.5 254.8851,-13.0001 254.8852,-20.0001"/>
</g>
</g>
</svg>
