<?xml version="1.0" encoding="UTF-8" standalone="no"?>
<!DOCTYPE svg PUBLIC "-//W3C//DTD SVG 1.1//EN"
 "http://www.w3.org/Graphics/SVG/1.1/DTD/svg11.dtd">
<!-- Generated by graphviz version 2.40.1 (20161225.0304)
 -->
<!-- Title: pdfint Pages: 1 -->
<svg width="1553pt" height="341pt"
 viewBox="0.00 0.00 1553.00 341.00" xmlns="http://www.w3.org/2000/svg" xmlns:xlink="http://www.w3.org/1999/xlink">
<g id="graph0" class="graph" transform="scale(1 1) rotate(0) translate(4 337)">
<title>pdfint</title>
<!-- Node1 -->
<g id="node1" class="node">
<title>Node1</title>
<polygon fill="#bfbfbf" stroke="#000000" points="0,-204.5 0,-224.5 46,-224.5 46,-204.5 0,-204.5"/>
<text text-anchor="middle" x="23" y="-211.5" font-family="FreeSans" font-size="10.00" fill="#000000">pdfint</text>
</g>
<!-- Node2 -->
<g id="node2" class="node">
<title>Node2</title>
<g id="a_node2"><a xlink:href="../../d3/dd5/jewel-2_82_80_8f.html#ac10ce76c4f5f9029887dacaed4e00578" target="_top" xlink:title="init">
<polygon fill="none" stroke="#000000" points="82,-204.5 82,-224.5 115,-224.5 115,-204.5 82,-204.5"/>
<text text-anchor="middle" x="98.5" y="-211.5" font-family="FreeSans" font-size="10.00" fill="#000000">init</text>
</a>
</g>
</g>
<!-- Node1&#45;&gt;Node2 -->
<g id="edge1" class="edge">
<title>Node1&#45;&gt;Node2</title>
<path fill="none" stroke="#191970" d="M56.1124,-214.5C64.906,-214.5 74.0405,-214.5 81.5681,-214.5"/>
<polygon fill="#191970" stroke="#191970" points="56.0628,-211.0001 46.0627,-214.5 56.0627,-218.0001 56.0628,-211.0001"/>
</g>
<!-- Node3 -->
<g id="node3" class="node">
<title>Node3</title>
<g id="a_node3"><a xlink:href="../../db/d04/hcalUtilDict_8cxx.html#a645030b0a93f2835018e22462ba6fea2" target="_top" xlink:title="G__hcalUtilDict__0_1605">
<polygon fill="none" stroke="#000000" points="151,-302.5 151,-322.5 290,-322.5 290,-302.5 151,-302.5"/>
<text text-anchor="middle" x="220.5" y="-309.5" font-family="FreeSans" font-size="10.00" fill="#000000">G__hcalUtilDict__0_1605</text>
</a>
</g>
</g>
<!-- Node2&#45;&gt;Node3 -->
<g id="edge2" class="edge">
<title>Node2&#45;&gt;Node3</title>
<path fill="none" stroke="#191970" d="M108.1557,-233.9259C117.19,-250.2912 132.1138,-273.2524 151,-287.5 159.4964,-293.9097 169.7891,-298.791 179.8202,-302.4613"/>
<polygon fill="#191970" stroke="#191970" points="111.0664,-231.9416 103.309,-224.7255 104.8732,-235.2042 111.0664,-231.9416"/>
</g>
<!-- Node8 -->
<g id="node8" class="node">
<title>Node8</title>
<g id="a_node8"><a xlink:href="../../d3/dd5/jewel-2_82_80_8f.html#a15e2df3184692bfe4ca2261638190094" target="_top" xlink:title="jewel">
<polygon fill="none" stroke="#000000" points="747,-253.5 747,-273.5 790,-273.5 790,-253.5 747,-253.5"/>
<text text-anchor="middle" x="768.5" y="-260.5" font-family="FreeSans" font-size="10.00" fill="#000000">jewel</text>
</a>
</g>
</g>
<!-- Node2&#45;&gt;Node8 -->
<g id="edge7" class="edge">
<title>Node2&#45;&gt;Node8</title>
<path fill="none" stroke="#191970" d="M115.3269,-231.7865C124.8852,-240.3664 137.5981,-249.8672 151,-254.5 264.3658,-293.6888 651.2816,-271.249 746.9671,-264.9733"/>
<polygon fill="#191970" stroke="#191970" points="117.4594,-228.9846 107.8012,-224.6292 112.6354,-234.0569 117.4594,-228.9846"/>
</g>
<!-- Node9 -->
<g id="node9" class="node">
<title>Node9</title>
<g id="a_node9"><a xlink:href="../../d8/d79/structloaderObj.html#a5a6895c11ed6516a1f8b81350cb242ae" target="_top" xlink:title="loaderObj::loaderObj">
<polygon fill="none" stroke="#000000" points="160,-185.5 160,-205.5 281,-205.5 281,-185.5 160,-185.5"/>
<text text-anchor="middle" x="220.5" y="-192.5" font-family="FreeSans" font-size="10.00" fill="#000000">loaderObj::loaderObj</text>
</a>
</g>
</g>
<!-- Node2&#45;&gt;Node9 -->
<g id="edge8" class="edge">
<title>Node2&#45;&gt;Node9</title>
<path fill="none" stroke="#191970" d="M125.1589,-210.3482C135.4601,-208.7439 147.6992,-206.8378 159.9161,-204.9352"/>
<polygon fill="#191970" stroke="#191970" points="124.55,-206.9007 115.2078,-211.898 125.6273,-213.8174 124.55,-206.9007"/>
</g>
<!-- Node10 -->
<g id="node10" class="node">
<title>Node10</title>
<g id="a_node10"><a xlink:href="../../dd/d4a/pyhistfe_8f.html#ab0e9fd05977e781b7a6447665ed5c99b" target="_top" xlink:title="pyhistfe">
<polygon fill="none" stroke="#000000" points="192,-146.5 192,-166.5 249,-166.5 249,-146.5 192,-146.5"/>
<text text-anchor="middle" x="220.5" y="-153.5" font-family="FreeSans" font-size="10.00" fill="#000000">pyhistfe</text>
</a>
</g>
</g>
<!-- Node2&#45;&gt;Node10 -->
<g id="edge9" class="edge">
<title>Node2&#45;&gt;Node10</title>
<path fill="none" stroke="#191970" d="M117.8113,-198.0368C127.3104,-190.6087 139.2287,-182.2351 151,-176.5 163.8675,-170.2308 179.0569,-165.5791 191.9487,-162.3474"/>
<polygon fill="#191970" stroke="#191970" points="115.4108,-195.477 109.8414,-204.4899 119.8157,-200.9173 115.4108,-195.477"/>
</g>
<!-- Node33 -->
<g id="node33" class="node">
<title>Node33</title>
<g id="a_node33"><a xlink:href="../../d6/dcf/pythia6425mod_8f.html#a27a2354cb3c8dc0f2fd65bc366f1cad9" target="_top" xlink:title="pymsin">
<polygon fill="none" stroke="#000000" points="194,-224.5 194,-244.5 247,-244.5 247,-224.5 194,-224.5"/>
<text text-anchor="middle" x="220.5" y="-231.5" font-family="FreeSans" font-size="10.00" fill="#000000">pymsin</text>
</a>
</g>
</g>
<!-- Node2&#45;&gt;Node33 -->
<g id="edge38" class="edge">
<title>Node2&#45;&gt;Node33</title>
<path fill="none" stroke="#191970" d="M125.3489,-218.9015C145.6575,-222.2307 173.4174,-226.7815 193.7113,-230.1084"/>
<polygon fill="#191970" stroke="#191970" points="125.6423,-215.4029 115.2078,-217.239 124.5098,-222.3107 125.6423,-215.4029"/>
</g>
<!-- Node37 -->
<g id="node37" class="node">
<title>Node37</title>
<g id="a_node37"><a xlink:href="../../d2/d51/usm_8C.html#a4fc3d7a8ab8dddafe2295d65165d9cf7" target="_top" xlink:title="tile">
<polygon fill="none" stroke="#000000" points="204.5,-107.5 204.5,-127.5 236.5,-127.5 236.5,-107.5 204.5,-107.5"/>
<text text-anchor="middle" x="220.5" y="-114.5" font-family="FreeSans" font-size="10.00" fill="#000000">tile</text>
</a>
</g>
</g>
<!-- Node2&#45;&gt;Node37 -->
<g id="edge43" class="edge">
<title>Node2&#45;&gt;Node37</title>
<path fill="none" stroke="#191970" d="M106.9985,-195.0293C115.6277,-177.4836 130.6177,-152.2454 151,-137.5 166.8694,-126.0194 189.2059,-121.104 204.2349,-119.0157"/>
<polygon fill="#191970" stroke="#191970" points="103.7141,-193.7913 102.6602,-204.3336 110.0583,-196.7495 103.7141,-193.7913"/>
</g>
<!-- Node4 -->
<g id="node4" class="node">
<title>Node4</title>
<g id="a_node4"><a xlink:href="../../db/d04/hcalUtilDict_8cxx.html#af58bd9b3d831b4473365f2d6c0612077" target="_top" xlink:title="G__cpp_setup_func15">
<polygon fill="none" stroke="#000000" points="326,-302.5 326,-322.5 452,-322.5 452,-302.5 326,-302.5"/>
<text text-anchor="middle" x="389" y="-309.5" font-family="FreeSans" font-size="10.00" fill="#000000">G__cpp_setup_func15</text>
</a>
</g>
</g>
<!-- Node3&#45;&gt;Node4 -->
<g id="edge3" class="edge">
<title>Node3&#45;&gt;Node4</title>
<path fill="none" stroke="#191970" d="M300.1022,-312.5C308.7451,-312.5 317.4533,-312.5 325.8617,-312.5"/>
<polygon fill="#191970" stroke="#191970" points="300.0083,-309.0001 290.0082,-312.5 300.0082,-316.0001 300.0083,-309.0001"/>
</g>
<!-- Node5 -->
<g id="node5" class="node">
<title>Node5</title>
<g id="a_node5"><a xlink:href="../../d2/d0d/hcalUtilDict_8h.html#a2d6bece47ce27ae6a70965770a8714e6" target="_top" xlink:title="G__cpp_setup_funchcalUtilDict">
<polygon fill="none" stroke="#000000" points="488,-302.5 488,-322.5 660,-322.5 660,-302.5 488,-302.5"/>
<text text-anchor="middle" x="574" y="-309.5" font-family="FreeSans" font-size="10.00" fill="#000000">G__cpp_setup_funchcalUtilDict</text>
</a>
</g>
</g>
<!-- Node4&#45;&gt;Node5 -->
<g id="edge4" class="edge">
<title>Node4&#45;&gt;Node5</title>
<path fill="none" stroke="#191970" d="M462.2838,-312.5C470.699,-312.5 479.3362,-312.5 487.8999,-312.5"/>
<polygon fill="#191970" stroke="#191970" points="462.1491,-309.0001 452.1491,-312.5 462.149,-316.0001 462.1491,-309.0001"/>
</g>
<!-- Node6 -->
<g id="node6" class="node">
<title>Node6</title>
<g id="a_node6"><a xlink:href="../../db/d04/hcalUtilDict_8cxx.html#ad988782fa3ca3b39ec5ae66490fd5b1a" target="_top" xlink:title="G__cpp_setuphcalUtilDict">
<polygon fill="none" stroke="#000000" points="696,-302.5 696,-322.5 841,-322.5 841,-302.5 696,-302.5"/>
<text text-anchor="middle" x="768.5" y="-309.5" font-family="FreeSans" font-size="10.00" fill="#000000">G__cpp_setuphcalUtilDict</text>
</a>
</g>
</g>
<!-- Node5&#45;&gt;Node6 -->
<g id="edge5" class="edge">
<title>Node5&#45;&gt;Node6</title>
<path fill="none" stroke="#191970" d="M670.228,-312.5C678.8223,-312.5 687.4273,-312.5 695.7745,-312.5"/>
<polygon fill="#191970" stroke="#191970" points="670.16,-309.0001 660.1599,-312.5 670.1599,-316.0001 670.16,-309.0001"/>
</g>
<!-- Node7 -->
<g id="node7" class="node">
<title>Node7</title>
<g id="a_node7"><a xlink:href="../../df/d42/classG____cpp__setup__inithcalUtilDict.html#aa622179f9b5d5d7a9b9ba1c6b0ea55c6" target="_top" xlink:title="G__cpp_setup_inithcalUtil\lDict::G__cpp_setup_inithcalUtilDict">
<polygon fill="none" stroke="#000000" points="877,-296.5 877,-328.5 1069,-328.5 1069,-296.5 877,-296.5"/>
<text text-anchor="start" x="885" y="-315.5" font-family="FreeSans" font-size="10.00" fill="#000000">G__cpp_setup_inithcalUtil</text>
<text text-anchor="middle" x="973" y="-303.5" font-family="FreeSans" font-size="10.00" fill="#000000">Dict::G__cpp_setup_inithcalUtilDict</text>
</a>
</g>
</g>
<!-- Node6&#45;&gt;Node7 -->
<g id="edge6" class="edge">
<title>Node6&#45;&gt;Node7</title>
<path fill="none" stroke="#191970" d="M851.353,-312.5C859.7847,-312.5 868.3992,-312.5 876.9555,-312.5"/>
<polygon fill="#191970" stroke="#191970" points="851.1749,-309.0001 841.1749,-312.5 851.1748,-316.0001 851.1749,-309.0001"/>
</g>
<!-- Node11 -->
<g id="node11" class="node">
<title>Node11</title>
<g id="a_node11"><a xlink:href="../../dd/d07/pyhistfu_8f.html#aff2156d2f044d368c202a463aaa11732" target="_top" xlink:title="pyhistfu">
<polygon fill="none" stroke="#000000" points="360.5,-146.5 360.5,-166.5 417.5,-166.5 417.5,-146.5 360.5,-146.5"/>
<text text-anchor="middle" x="389" y="-153.5" font-family="FreeSans" font-size="10.00" fill="#000000">pyhistfu</text>
</a>
</g>
</g>
<!-- Node10&#45;&gt;Node11 -->
<g id="edge10" class="edge">
<title>Node10&#45;&gt;Node11</title>
<path fill="none" stroke="#191970" d="M259.4518,-156.5C290.2384,-156.5 332.51,-156.5 360.2761,-156.5"/>
<polygon fill="#191970" stroke="#191970" points="259.0838,-153.0001 249.0837,-156.5 259.0837,-160.0001 259.0838,-153.0001"/>
</g>
<!-- Node12 -->
<g id="node12" class="node">
<title>Node12</title>
<g id="a_node12"><a xlink:href="../../dd/dac/pyhisigh_8f.html#a17fc65c11bbc2a0a571b606acff9f09f" target="_top" xlink:title="pyhisigh">
<polygon fill="none" stroke="#000000" points="544.5,-146.5 544.5,-166.5 603.5,-166.5 603.5,-146.5 544.5,-146.5"/>
<text text-anchor="middle" x="574" y="-153.5" font-family="FreeSans" font-size="10.00" fill="#000000">pyhisigh</text>
</a>
</g>
</g>
<!-- Node11&#45;&gt;Node12 -->
<g id="edge11" class="edge">
<title>Node11&#45;&gt;Node12</title>
<path fill="none" stroke="#191970" d="M427.7361,-156.5C462.4372,-156.5 512.6009,-156.5 544.2404,-156.5"/>
<polygon fill="#191970" stroke="#191970" points="427.5009,-153.0001 417.5008,-156.5 427.5008,-160.0001 427.5009,-153.0001"/>
</g>
<!-- Node32 -->
<g id="node32" class="node">
<title>Node32</title>
<g id="a_node32"><a xlink:href="../../d3/d16/pyhisspa_8f.html#a5ac8143df37811155f43ea0c30e7f631" target="_top" xlink:title="pyhisspa">
<polygon fill="none" stroke="#000000" points="942.5,-78.5 942.5,-98.5 1003.5,-98.5 1003.5,-78.5 942.5,-78.5"/>
<text text-anchor="middle" x="973" y="-85.5" font-family="FreeSans" font-size="10.00" fill="#000000">pyhisspa</text>
</a>
</g>
</g>
<!-- Node11&#45;&gt;Node32 -->
<g id="edge36" class="edge">
<title>Node11&#45;&gt;Node32</title>
<path fill="none" stroke="#191970" d="M427.8633,-148.2127C446.0623,-144.5451 468.0752,-140.4126 488,-137.5 658.8297,-112.5282 865.3793,-96.2397 942.2417,-90.6529"/>
<polygon fill="#191970" stroke="#191970" points="427.0047,-144.8157 417.9088,-150.2484 428.4073,-151.6738 427.0047,-144.8157"/>
</g>
<!-- Node13 -->
<g id="node13" class="node">
<title>Node13</title>
<g id="a_node13"><a xlink:href="../../dd/d7c/pyhimaxi_8f.html#aac610635dd3329298252ad5ce8c18037" target="_top" xlink:title="pyhimaxi">
<polygon fill="none" stroke="#000000" points="737.5,-195.5 737.5,-215.5 799.5,-215.5 799.5,-195.5 737.5,-195.5"/>
<text text-anchor="middle" x="768.5" y="-202.5" font-family="FreeSans" font-size="10.00" fill="#000000">pyhimaxi</text>
</a>
</g>
</g>
<!-- Node12&#45;&gt;Node13 -->
<g id="edge12" class="edge">
<title>Node12&#45;&gt;Node13</title>
<path fill="none" stroke="#191970" d="M613.312,-165.2729C627.9962,-168.6469 644.7937,-172.6217 660,-176.5 676.0907,-180.6039 679.9679,-182.1728 696,-186.5 709.5673,-190.1619 724.5906,-194.1157 737.4268,-197.4633"/>
<polygon fill="#191970" stroke="#191970" points="614.057,-161.853 603.5291,-163.0416 612.5004,-168.6778 614.057,-161.853"/>
</g>
<!-- Node28 -->
<g id="node28" class="node">
<title>Node28</title>
<g id="a_node28"><a xlink:href="../../dd/ded/pyhimult_8f.html#ab211ef234aa1654aab2f5ec13044efbf" target="_top" xlink:title="pyhimult">
<polygon fill="none" stroke="#000000" points="737.5,-156.5 737.5,-176.5 799.5,-176.5 799.5,-156.5 737.5,-156.5"/>
<text text-anchor="middle" x="768.5" y="-163.5" font-family="FreeSans" font-size="10.00" fill="#000000">pyhimult</text>
</a>
</g>
</g>
<!-- Node12&#45;&gt;Node28 -->
<g id="edge27" class="edge">
<title>Node12&#45;&gt;Node28</title>
<path fill="none" stroke="#191970" d="M613.8432,-158.5485C650.4191,-160.429 703.8695,-163.1771 737.3918,-164.9006"/>
<polygon fill="#191970" stroke="#191970" points="613.7069,-155.037 603.5404,-158.0188 613.3474,-162.0277 613.7069,-155.037"/>
</g>
<!-- Node29 -->
<g id="node29" class="node">
<title>Node29</title>
<g id="a_node29"><a xlink:href="../../dd/dfb/pyhirand_8f.html#a11c46259e3dc9a8f003b2d30a821340d" target="_top" xlink:title="pyhirand">
<polygon fill="none" stroke="#000000" points="942.5,-117.5 942.5,-137.5 1003.5,-137.5 1003.5,-117.5 942.5,-117.5"/>
<text text-anchor="middle" x="973" y="-124.5" font-family="FreeSans" font-size="10.00" fill="#000000">pyhirand</text>
</a>
</g>
</g>
<!-- Node12&#45;&gt;Node29 -->
<g id="edge35" class="edge">
<title>Node12&#45;&gt;Node29</title>
<path fill="none" stroke="#191970" d="M613.6727,-153.5576C637.5322,-151.7919 668.5076,-149.5066 696,-147.5 785.4429,-140.9719 891.1404,-133.3721 942.2563,-129.704"/>
<polygon fill="#191970" stroke="#191970" points="613.2964,-150.0758 603.5821,-154.3047 613.8133,-157.0567 613.2964,-150.0758"/>
</g>
<!-- Node14 -->
<g id="node14" class="node">
<title>Node14</title>
<g id="a_node14"><a xlink:href="../../d2/d24/pyhiinit_8f.html#a93154984510592257bbf242af68cb276" target="_top" xlink:title="pyhiinit">
<polygon fill="none" stroke="#000000" points="945.5,-195.5 945.5,-215.5 1000.5,-215.5 1000.5,-195.5 945.5,-195.5"/>
<text text-anchor="middle" x="973" y="-202.5" font-family="FreeSans" font-size="10.00" fill="#000000">pyhiinit</text>
</a>
</g>
</g>
<!-- Node13&#45;&gt;Node14 -->
<g id="edge13" class="edge">
<title>Node13&#45;&gt;Node14</title>
<path fill="none" stroke="#191970" d="M809.6041,-205.5C849.9297,-205.5 910.3096,-205.5 945.2657,-205.5"/>
<polygon fill="#191970" stroke="#191970" points="809.5592,-202.0001 799.5591,-205.5 809.5591,-209.0001 809.5592,-202.0001"/>
</g>
<!-- Node15 -->
<g id="node15" class="node">
<title>Node15</title>
<g id="a_node15"><a xlink:href="../../d3/dcc/jetini_8f.html#aaebe64822688c6f3fa1125ed0619f95d" target="_top" xlink:title="jetini">
<polygon fill="none" stroke="#000000" points="1112.5,-195.5 1112.5,-215.5 1154.5,-215.5 1154.5,-195.5 1112.5,-195.5"/>
<text text-anchor="middle" x="1133.5" y="-202.5" font-family="FreeSans" font-size="10.00" fill="#000000">jetini</text>
</a>
</g>
</g>
<!-- Node14&#45;&gt;Node15 -->
<g id="edge14" class="edge">
<title>Node14&#45;&gt;Node15</title>
<path fill="none" stroke="#191970" d="M1010.8222,-205.5C1042.5237,-205.5 1086.6238,-205.5 1112.4053,-205.5"/>
<polygon fill="#191970" stroke="#191970" points="1010.591,-202.0001 1000.5909,-205.5 1010.5909,-209.0001 1010.591,-202.0001"/>
</g>
<!-- Node27 -->
<g id="node27" class="node">
<title>Node27</title>
<g id="a_node27"><a xlink:href="../../d6/d97/pyhitest_8f.html#ad7a2cf3c87068f12f08723ca60d921f8" target="_top" xlink:title="pyhitest">
<polygon fill="none" stroke="#000000" points="1198,-156.5 1198,-176.5 1256,-176.5 1256,-156.5 1198,-156.5"/>
<text text-anchor="middle" x="1227" y="-163.5" font-family="FreeSans" font-size="10.00" fill="#000000">pyhitest</text>
</a>
</g>
</g>
<!-- Node14&#45;&gt;Node27 -->
<g id="edge26" class="edge">
<title>Node14&#45;&gt;Node27</title>
<path fill="none" stroke="#191970" d="M1010.6231,-199.7232C1061.6166,-191.8935 1151.5963,-178.0777 1197.8088,-170.9821"/>
<polygon fill="#191970" stroke="#191970" points="1010.0189,-196.2749 1000.666,-201.2521 1011.0813,-203.1938 1010.0189,-196.2749"/>
</g>
<!-- Node16 -->
<g id="node16" class="node">
<title>Node16</title>
<g id="a_node16"><a xlink:href="../../d1/dbb/hijing_8f.html#a69776a874c5857b3bcd832c1195cb0e1" target="_top" xlink:title="hijing">
<polygon fill="none" stroke="#000000" points="1292,-156.5 1292,-176.5 1336,-176.5 1336,-156.5 1292,-156.5"/>
<text text-anchor="middle" x="1314" y="-163.5" font-family="FreeSans" font-size="10.00" fill="#000000">hijing</text>
</a>
</g>
</g>
<!-- Node15&#45;&gt;Node16 -->
<g id="edge15" class="edge">
<title>Node15&#45;&gt;Node16</title>
<path fill="none" stroke="#191970" d="M1164.5116,-202.2393C1189.459,-199.2463 1225.2924,-194.1113 1256,-186.5 1268.096,-183.5018 1281.2504,-179.0666 1291.9692,-175.1342"/>
<polygon fill="#191970" stroke="#191970" points="1164.0653,-198.7674 1154.533,-203.3918 1164.8685,-205.7212 1164.0653,-198.7674"/>
</g>
<!-- Node17 -->
<g id="node17" class="node">
<title>Node17</title>
<g id="a_node17"><a xlink:href="../../da/d19/example__1_8f.html#acf16f61bc7e27d5ce77d73738020a5c7" target="_top" xlink:title="__example_1::f__">
<polygon fill="none" stroke="#000000" points="1372,-312.5 1372,-332.5 1475,-332.5 1475,-312.5 1372,-312.5"/>
<text text-anchor="middle" x="1423.5" y="-319.5" font-family="FreeSans" font-size="10.00" fill="#000000">__example_1::f__</text>
</a>
</g>
</g>
<!-- Node16&#45;&gt;Node17 -->
<g id="edge16" class="edge">
<title>Node16&#45;&gt;Node17</title>
<path fill="none" stroke="#191970" d="M1317.3186,-186.6307C1323.2049,-216.1729 1338.1953,-271.2492 1372,-303.5 1375.7925,-307.1181 1380.3325,-310.0586 1385.1238,-312.4456"/>
<polygon fill="#191970" stroke="#191970" points="1320.7363,-185.8631 1315.4881,-176.6594 1313.8513,-187.1271 1320.7363,-185.8631"/>
</g>
<!-- Node18 -->
<g id="node18" class="node">
<title>Node18</title>
<g id="a_node18"><a xlink:href="../../d0/dd6/example__2_8f.html#a9d0c3b9bee4d35bf976af3b01e3d8f99" target="_top" xlink:title="__example_2::f__">
<polygon fill="none" stroke="#000000" points="1372,-273.5 1372,-293.5 1475,-293.5 1475,-273.5 1372,-273.5"/>
<text text-anchor="middle" x="1423.5" y="-280.5" font-family="FreeSans" font-size="10.00" fill="#000000">__example_2::f__</text>
</a>
</g>
</g>
<!-- Node16&#45;&gt;Node18 -->
<g id="edge17" class="edge">
<title>Node16&#45;&gt;Node18</title>
<path fill="none" stroke="#191970" d="M1321.0049,-186.2438C1329.7419,-208.2148 1346.6826,-243.3944 1372,-264.5 1376.3188,-268.1004 1381.3824,-271.0504 1386.6181,-273.4586"/>
<polygon fill="#191970" stroke="#191970" points="1324.184,-184.7551 1317.3741,-176.6387 1317.6362,-187.2303 1324.184,-184.7551"/>
</g>
<!-- Node19 -->
<g id="node19" class="node">
<title>Node19</title>
<g id="a_node19"><a xlink:href="../../d2/d77/example__3_8f.html#aab27974d678e65e3e41bf2e3fe4df5d9" target="_top" xlink:title="__example_3::f__">
<polygon fill="none" stroke="#000000" points="1372,-234.5 1372,-254.5 1475,-254.5 1475,-234.5 1372,-234.5"/>
<text text-anchor="middle" x="1423.5" y="-241.5" font-family="FreeSans" font-size="10.00" fill="#000000">__example_3::f__</text>
</a>
</g>
</g>
<!-- Node16&#45;&gt;Node19 -->
<g id="edge18" class="edge">
<title>Node16&#45;&gt;Node19</title>
<path fill="none" stroke="#191970" d="M1327.9022,-184.3942C1338.7322,-197.3125 1354.7805,-214.3729 1372,-225.5 1377.3629,-228.9654 1383.4462,-231.9184 1389.5055,-234.3897"/>
<polygon fill="#191970" stroke="#191970" points="1330.5998,-182.1638 1321.579,-176.6071 1325.1656,-186.5764 1330.5998,-182.1638"/>
</g>
<!-- Node20 -->
<g id="node20" class="node">
<title>Node20</title>
<g id="a_node20"><a xlink:href="../../d2/da0/example__4_8f.html#a6bc0f54131effae47e6b12e1d435314a" target="_top" xlink:title="__example_4::f__">
<polygon fill="none" stroke="#000000" points="1372,-195.5 1372,-215.5 1475,-215.5 1475,-195.5 1372,-195.5"/>
<text text-anchor="middle" x="1423.5" y="-202.5" font-family="FreeSans" font-size="10.00" fill="#000000">__example_4::f__</text>
</a>
</g>
</g>
<!-- Node16&#45;&gt;Node20 -->
<g id="edge19" class="edge">
<title>Node16&#45;&gt;Node20</title>
<path fill="none" stroke="#191970" d="M1345.8918,-177.8587C1361.4656,-183.4055 1380.0469,-190.0236 1395.123,-195.3931"/>
<polygon fill="#191970" stroke="#191970" points="1346.7536,-174.4504 1336.159,-174.3922 1344.405,-181.0446 1346.7536,-174.4504"/>
</g>
<!-- Node21 -->
<g id="node21" class="node">
<title>Node21</title>
<g id="a_node21"><a xlink:href="../../d7/d67/example__5_8f.html#a25afe91d84386c600617ed09ef60286f" target="_top" xlink:title="__example_5::f__">
<polygon fill="none" stroke="#000000" points="1372,-156.5 1372,-176.5 1475,-176.5 1475,-156.5 1372,-156.5"/>
<text text-anchor="middle" x="1423.5" y="-163.5" font-family="FreeSans" font-size="10.00" fill="#000000">__example_5::f__</text>
</a>
</g>
</g>
<!-- Node16&#45;&gt;Node21 -->
<g id="edge20" class="edge">
<title>Node16&#45;&gt;Node21</title>
<path fill="none" stroke="#191970" d="M1346.2489,-166.5C1354.3287,-166.5 1363.2001,-166.5 1371.9614,-166.5"/>
<polygon fill="#191970" stroke="#191970" points="1346.159,-163.0001 1336.159,-166.5 1346.1589,-170.0001 1346.159,-163.0001"/>
</g>
<!-- Node22 -->
<g id="node22" class="node">
<title>Node22</title>
<g id="a_node22"><a xlink:href="../../d2/d88/example__6_8f.html#a78fc9edc07bf87b06cd839a4eea78c26" target="_top" xlink:title="__example_6::f__">
<polygon fill="none" stroke="#000000" points="1372,-117.5 1372,-137.5 1475,-137.5 1475,-117.5 1372,-117.5"/>
<text text-anchor="middle" x="1423.5" y="-124.5" font-family="FreeSans" font-size="10.00" fill="#000000">__example_6::f__</text>
</a>
</g>
</g>
<!-- Node16&#45;&gt;Node22 -->
<g id="edge21" class="edge">
<title>Node16&#45;&gt;Node22</title>
<path fill="none" stroke="#191970" d="M1345.8918,-155.1413C1361.4656,-149.5945 1380.0469,-142.9764 1395.123,-137.6069"/>
<polygon fill="#191970" stroke="#191970" points="1344.405,-151.9554 1336.159,-158.6078 1346.7536,-158.5496 1344.405,-151.9554"/>
</g>
<!-- Node23 -->
<g id="node23" class="node">
<title>Node23</title>
<g id="a_node23"><a xlink:href="../../db/d1a/example__7_8f.html#ac777f81954b42662e3b21684d62ddab7" target="_top" xlink:title="__example_7::f__">
<polygon fill="none" stroke="#000000" points="1372,-78.5 1372,-98.5 1475,-98.5 1475,-78.5 1372,-78.5"/>
<text text-anchor="middle" x="1423.5" y="-85.5" font-family="FreeSans" font-size="10.00" fill="#000000">__example_7::f__</text>
</a>
</g>
</g>
<!-- Node16&#45;&gt;Node23 -->
<g id="edge22" class="edge">
<title>Node16&#45;&gt;Node23</title>
<path fill="none" stroke="#191970" d="M1327.9022,-148.6058C1338.7322,-135.6875 1354.7805,-118.6271 1372,-107.5 1377.3629,-104.0346 1383.4462,-101.0816 1389.5055,-98.6103"/>
<polygon fill="#191970" stroke="#191970" points="1325.1656,-146.4236 1321.579,-156.3929 1330.5998,-150.8362 1325.1656,-146.4236"/>
</g>
<!-- Node24 -->
<g id="node24" class="node">
<title>Node24</title>
<g id="a_node24"><a xlink:href="../../d1/de4/example__8_8f.html#ace7a490fafddd958e4a9192395b34464" target="_top" xlink:title="__example_8::f__">
<polygon fill="none" stroke="#000000" points="1372,-39.5 1372,-59.5 1475,-59.5 1475,-39.5 1372,-39.5"/>
<text text-anchor="middle" x="1423.5" y="-46.5" font-family="FreeSans" font-size="10.00" fill="#000000">__example_8::f__</text>
</a>
</g>
</g>
<!-- Node16&#45;&gt;Node24 -->
<g id="edge23" class="edge">
<title>Node16&#45;&gt;Node24</title>
<path fill="none" stroke="#191970" d="M1321.0049,-146.7562C1329.7419,-124.7852 1346.6826,-89.6056 1372,-68.5 1376.3188,-64.8996 1381.3824,-61.9496 1386.6181,-59.5414"/>
<polygon fill="#191970" stroke="#191970" points="1317.6362,-145.7697 1317.3741,-156.3613 1324.184,-148.2449 1317.6362,-145.7697"/>
</g>
<!-- Node25 -->
<g id="node25" class="node">
<title>Node25</title>
<g id="a_node25"><a xlink:href="../../d3/d7f/Fun_8C.html#ab689f6a95e742654fc06aa27a8486ffd" target="_top" xlink:title="ConfigureInput">
<polygon fill="none" stroke="#000000" points="1377.5,-.5 1377.5,-20.5 1469.5,-20.5 1469.5,-.5 1377.5,-.5"/>
<text text-anchor="middle" x="1423.5" y="-7.5" font-family="FreeSans" font-size="10.00" fill="#000000">ConfigureInput</text>
</a>
</g>
</g>
<!-- Node16&#45;&gt;Node25 -->
<g id="edge24" class="edge">
<title>Node16&#45;&gt;Node25</title>
<path fill="none" stroke="#191970" d="M1317.3186,-146.3693C1323.2049,-116.8271 1338.1953,-61.7508 1372,-29.5 1375.7925,-25.8819 1380.3325,-22.9414 1385.1238,-20.5544"/>
<polygon fill="#191970" stroke="#191970" points="1313.8513,-145.8729 1315.4881,-156.3406 1320.7363,-147.1369 1313.8513,-145.8729"/>
</g>
<!-- Node26 -->
<g id="node26" class="node">
<title>Node26</title>
<g id="a_node26"><a xlink:href="../../d3/d7f/Fun_8C.html#af69a3eef3ff244bb51f5740c6ecb5432" target="_top" xlink:title="Fun">
<polygon fill="none" stroke="#000000" points="1511,-.5 1511,-20.5 1545,-20.5 1545,-.5 1511,-.5"/>
<text text-anchor="middle" x="1528" y="-7.5" font-family="FreeSans" font-size="10.00" fill="#000000">Fun</text>
</a>
</g>
</g>
<!-- Node25&#45;&gt;Node26 -->
<g id="edge25" class="edge">
<title>Node25&#45;&gt;Node26</title>
<path fill="none" stroke="#191970" d="M1479.6445,-10.5C1491.0192,-10.5 1502.1464,-10.5 1510.8537,-10.5"/>
<polygon fill="#191970" stroke="#191970" points="1479.6394,-7.0001 1469.6394,-10.5 1479.6394,-14.0001 1479.6394,-7.0001"/>
</g>
<!-- Node28&#45;&gt;Node14 -->
<g id="edge28" class="edge">
<title>Node28&#45;&gt;Node14</title>
<path fill="none" stroke="#191970" d="M809.6041,-174.3389C849.9297,-182.0294 910.3096,-193.5444 945.2657,-200.2108"/>
<polygon fill="#191970" stroke="#191970" points="810.0378,-170.8586 799.5591,-172.4233 808.7264,-177.7347 810.0378,-170.8586"/>
</g>
<!-- Node28&#45;&gt;Node29 -->
<g id="edge29" class="edge">
<title>Node28&#45;&gt;Node29</title>
<path fill="none" stroke="#191970" d="M809.5875,-158.6642C848.8019,-151.1857 906.9918,-140.0884 942.3186,-133.3512"/>
<polygon fill="#191970" stroke="#191970" points="808.7264,-155.2653 799.5591,-160.5767 810.0378,-162.1414 808.7264,-155.2653"/>
</g>
<!-- Node30 -->
<g id="node30" class="node">
<title>Node30</title>
<g id="a_node30"><a xlink:href="../../dc/d4c/pyhithia_8f.html#a2854892a8ad546886195932d54962ba9" target="_top" xlink:title="pyhithia">
<polygon fill="none" stroke="#000000" points="1105,-117.5 1105,-137.5 1162,-137.5 1162,-117.5 1105,-117.5"/>
<text text-anchor="middle" x="1133.5" y="-124.5" font-family="FreeSans" font-size="10.00" fill="#000000">pyhithia</text>
</a>
</g>
</g>
<!-- Node28&#45;&gt;Node30 -->
<g id="edge34" class="edge">
<title>Node28&#45;&gt;Node30</title>
<path fill="none" stroke="#191970" d="M809.7769,-166.9714C868.046,-166.9413 977.5252,-164.3262 1069,-147.5 1081.4529,-145.2094 1094.8783,-141.2919 1106.2392,-137.5279"/>
<polygon fill="#191970" stroke="#191970" points="809.516,-163.4709 799.5086,-166.9497 809.5012,-170.4709 809.516,-163.4709"/>
</g>
<!-- Node29&#45;&gt;Node30 -->
<g id="edge30" class="edge">
<title>Node29&#45;&gt;Node30</title>
<path fill="none" stroke="#191970" d="M1013.6268,-127.5C1042.1317,-127.5 1079.5407,-127.5 1104.9337,-127.5"/>
<polygon fill="#191970" stroke="#191970" points="1013.5666,-124.0001 1003.5666,-127.5 1013.5666,-131.0001 1013.5666,-124.0001"/>
</g>
<!-- Node30&#45;&gt;Node27 -->
<g id="edge33" class="edge">
<title>Node30&#45;&gt;Node27</title>
<path fill="none" stroke="#191970" d="M1166.8207,-141.3985C1178.7702,-146.3827 1191.9988,-151.9005 1203.003,-156.4906"/>
<polygon fill="#191970" stroke="#191970" points="1168.1553,-138.1629 1157.5786,-137.5435 1165.4605,-144.6234 1168.1553,-138.1629"/>
</g>
<!-- Node31 -->
<g id="node31" class="node">
<title>Node31</title>
<g id="a_node31"><a xlink:href="../../d3/db7/hijhrd_8f.html#ace311e28a8574ca3a1d08790019cb213" target="_top" xlink:title="hijhrd">
<polygon fill="none" stroke="#000000" points="1204.5,-117.5 1204.5,-137.5 1249.5,-137.5 1249.5,-117.5 1204.5,-117.5"/>
<text text-anchor="middle" x="1227" y="-124.5" font-family="FreeSans" font-size="10.00" fill="#000000">hijhrd</text>
</a>
</g>
</g>
<!-- Node30&#45;&gt;Node31 -->
<g id="edge31" class="edge">
<title>Node30&#45;&gt;Node31</title>
<path fill="none" stroke="#191970" d="M1172.2378,-127.5C1183.1268,-127.5 1194.6137,-127.5 1204.2394,-127.5"/>
<polygon fill="#191970" stroke="#191970" points="1172.0612,-124.0001 1162.0611,-127.5 1172.0611,-131.0001 1172.0612,-124.0001"/>
</g>
<!-- Node31&#45;&gt;Node16 -->
<g id="edge32" class="edge">
<title>Node31&#45;&gt;Node16</title>
<path fill="none" stroke="#191970" d="M1258.7407,-141.7286C1269.774,-146.6746 1281.8986,-152.1097 1291.9724,-156.6256"/>
<polygon fill="#191970" stroke="#191970" points="1259.9615,-138.4403 1249.4047,-137.5435 1257.098,-144.8279 1259.9615,-138.4403"/>
</g>
<!-- Node32&#45;&gt;Node30 -->
<g id="edge37" class="edge">
<title>Node32&#45;&gt;Node30</title>
<path fill="none" stroke="#191970" d="M1014.0942,-95.6484C1031.1689,-98.8732 1051.1326,-102.9751 1069,-107.5 1080.8197,-110.4933 1093.6809,-114.3554 1104.7867,-117.8863"/>
<polygon fill="#191970" stroke="#191970" points="1014.3507,-92.1365 1003.8807,-93.7579 1013.0766,-99.0196 1014.3507,-92.1365"/>
</g>
<!-- Node34 -->
<g id="node34" class="node">
<title>Node34</title>
<g id="a_node34"><a xlink:href="../../d6/dcf/pythia6425mod_8f.html#aac00ac3ccd923c2c3dc37e2b89a9f025" target="_top" xlink:title="pyinit">
<polygon fill="none" stroke="#000000" points="366.5,-224.5 366.5,-244.5 411.5,-244.5 411.5,-224.5 366.5,-224.5"/>
<text text-anchor="middle" x="389" y="-231.5" font-family="FreeSans" font-size="10.00" fill="#000000">pyinit</text>
</a>
</g>
</g>
<!-- Node33&#45;&gt;Node34 -->
<g id="edge39" class="edge">
<title>Node33&#45;&gt;Node34</title>
<path fill="none" stroke="#191970" d="M257.4502,-234.5C290.7348,-234.5 338.5903,-234.5 366.47,-234.5"/>
<polygon fill="#191970" stroke="#191970" points="257.1994,-231.0001 247.1993,-234.5 257.1993,-238.0001 257.1994,-231.0001"/>
</g>
<!-- Node35 -->
<g id="node35" class="node">
<title>Node35</title>
<g id="a_node35"><a xlink:href="../../d3/dd5/jewel-2_82_80_8f.html#a2cba90a4cdaaf1d5de1cf1bfe9afaa2e" target="_top" xlink:title="initpythia">
<polygon fill="none" stroke="#000000" points="542.5,-224.5 542.5,-244.5 605.5,-244.5 605.5,-224.5 542.5,-224.5"/>
<text text-anchor="middle" x="574" y="-231.5" font-family="FreeSans" font-size="10.00" fill="#000000">initpythia</text>
</a>
</g>
</g>
<!-- Node34&#45;&gt;Node35 -->
<g id="edge40" class="edge">
<title>Node34&#45;&gt;Node35</title>
<path fill="none" stroke="#191970" d="M422.0487,-234.5C456.1416,-234.5 508.9317,-234.5 542.46,-234.5"/>
<polygon fill="#191970" stroke="#191970" points="421.6847,-231.0001 411.6846,-234.5 421.6846,-238.0001 421.6847,-231.0001"/>
</g>
<!-- Node36 -->
<g id="node36" class="node">
<title>Node36</title>
<g id="a_node36"><a xlink:href="../../d6/dcf/pythia6425mod_8f.html#a4cc0e611278607d6b413b5cecdfe16c3" target="_top" xlink:title="pytest">
<polygon fill="none" stroke="#000000" points="550,-185.5 550,-205.5 598,-205.5 598,-185.5 550,-185.5"/>
<text text-anchor="middle" x="574" y="-192.5" font-family="FreeSans" font-size="10.00" fill="#000000">pytest</text>
</a>
</g>
</g>
<!-- Node34&#45;&gt;Node36 -->
<g id="edge42" class="edge">
<title>Node34&#45;&gt;Node36</title>
<path fill="none" stroke="#191970" d="M421.8821,-227.5681C458.6317,-219.8209 517.2561,-207.4622 549.9568,-200.5686"/>
<polygon fill="#191970" stroke="#191970" points="420.7476,-224.2303 411.6846,-229.7178 422.1916,-231.0797 420.7476,-224.2303"/>
</g>
<!-- Node35&#45;&gt;Node8 -->
<g id="edge41" class="edge">
<title>Node35&#45;&gt;Node8</title>
<path fill="none" stroke="#191970" d="M615.7196,-240.7204C655.9301,-246.7158 715.1904,-255.5515 746.7875,-260.2627"/>
<polygon fill="#191970" stroke="#191970" points="616.0895,-237.2369 605.6827,-239.2239 615.0572,-244.1604 616.0895,-237.2369"/>
</g>
</g>
</svg>
