<?xml version="1.0" encoding="UTF-8" standalone="no"?>
<!DOCTYPE svg PUBLIC "-//W3C//DTD SVG 1.1//EN"
 "http://www.w3.org/Graphics/SVG/1.1/DTD/svg11.dtd">
<!-- Generated by graphviz version 2.40.1 (20161225.0304)
 -->
<!-- Title: doinstatescat Pages: 1 -->
<svg width="1111pt" height="272pt"
 viewBox="0.00 0.00 1111.00 272.00" xmlns="http://www.w3.org/2000/svg" xmlns:xlink="http://www.w3.org/1999/xlink">
<g id="graph0" class="graph" transform="scale(1 1) rotate(0) translate(4 268)">
<title>doinstatescat</title>
<!-- Node1 -->
<g id="node1" class="node">
<title>Node1</title>
<polygon fill="#bfbfbf" stroke="#000000" points="0,-116.5 0,-136.5 85,-136.5 85,-116.5 0,-116.5"/>
<text text-anchor="middle" x="42.5" y="-123.5" font-family="FreeSans" font-size="10.00" fill="#000000">doinstatescat</text>
</g>
<!-- Node2 -->
<g id="node2" class="node">
<title>Node2</title>
<g id="a_node2"><a xlink:href="../../d3/dd5/jewel-2_82_80_8f.html#a044420a55f044d6181e574828f502681" target="_top" xlink:title="makebranch">
<polygon fill="none" stroke="#000000" points="121,-116.5 121,-136.5 200,-136.5 200,-116.5 121,-116.5"/>
<text text-anchor="middle" x="160.5" y="-123.5" font-family="FreeSans" font-size="10.00" fill="#000000">makebranch</text>
</a>
</g>
</g>
<!-- Node1&#45;&gt;Node2 -->
<g id="edge1" class="edge">
<title>Node1&#45;&gt;Node2</title>
<path fill="none" stroke="#191970" d="M95.3588,-126.5C103.8786,-126.5 112.571,-126.5 120.7151,-126.5"/>
<polygon fill="#191970" stroke="#191970" points="95.1007,-123.0001 85.1007,-126.5 95.1007,-130.0001 95.1007,-123.0001"/>
</g>
<!-- Node3 -->
<g id="node3" class="node">
<title>Node3</title>
<g id="a_node3"><a xlink:href="../../d3/dd5/jewel-2_82_80_8f.html#ae4babd1fd98f3de7eb1da1c259c99065" target="_top" xlink:title="makecascade">
<polygon fill="none" stroke="#000000" points="236,-116.5 236,-136.5 321,-136.5 321,-116.5 236,-116.5"/>
<text text-anchor="middle" x="278.5" y="-123.5" font-family="FreeSans" font-size="10.00" fill="#000000">makecascade</text>
</a>
</g>
</g>
<!-- Node2&#45;&gt;Node3 -->
<g id="edge2" class="edge">
<title>Node2&#45;&gt;Node3</title>
<path fill="none" stroke="#191970" d="M210.3355,-126.5C218.8567,-126.5 227.6393,-126.5 235.9488,-126.5"/>
<polygon fill="#191970" stroke="#191970" points="210.1206,-123.0001 200.1206,-126.5 210.1205,-130.0001 210.1206,-123.0001"/>
</g>
<!-- Node4 -->
<g id="node4" class="node">
<title>Node4</title>
<g id="a_node4"><a xlink:href="../../d3/dd5/jewel-2_82_80_8f.html#aeb24fa7919aa21c652e9c8f2ec45cb91" target="_top" xlink:title="genevent">
<polygon fill="none" stroke="#000000" points="357,-116.5 357,-136.5 422,-136.5 422,-116.5 357,-116.5"/>
<text text-anchor="middle" x="389.5" y="-123.5" font-family="FreeSans" font-size="10.00" fill="#000000">genevent</text>
</a>
</g>
</g>
<!-- Node3&#45;&gt;Node4 -->
<g id="edge3" class="edge">
<title>Node3&#45;&gt;Node4</title>
<path fill="none" stroke="#191970" d="M331.2511,-126.5C339.9798,-126.5 348.7994,-126.5 356.8435,-126.5"/>
<polygon fill="#191970" stroke="#191970" points="331.0981,-123.0001 321.098,-126.5 331.098,-130.0001 331.0981,-123.0001"/>
</g>
<!-- Node5 -->
<g id="node5" class="node">
<title>Node5</title>
<g id="a_node5"><a xlink:href="../../d6/d45/classEpFinderEval.html#af537855512c06847c1021dd83f015031" target="_top" xlink:title="EpFinderEval::fill_tree">
<polygon fill="none" stroke="#000000" points="502,-227.5 502,-247.5 628,-247.5 628,-227.5 502,-227.5"/>
<text text-anchor="middle" x="565" y="-234.5" font-family="FreeSans" font-size="10.00" fill="#000000">EpFinderEval::fill_tree</text>
</a>
</g>
</g>
<!-- Node4&#45;&gt;Node5 -->
<g id="edge4" class="edge">
<title>Node4&#45;&gt;Node5</title>
<path fill="none" stroke="#191970" d="M400.2589,-145.1016C412.0677,-163.8699 432.7459,-192.3213 458,-208.5 471.4511,-217.1173 487.4276,-223.1952 502.878,-227.4746"/>
<polygon fill="#191970" stroke="#191970" points="403.2339,-143.2573 395.0539,-136.5239 397.2495,-146.8888 403.2339,-143.2573"/>
</g>
<!-- Node7 -->
<g id="node7" class="node">
<title>Node7</title>
<g id="a_node7"><a xlink:href="../../d3/dd5/jewel-2_82_80_8f.html#a15e2df3184692bfe4ca2261638190094" target="_top" xlink:title="jewel">
<polygon fill="none" stroke="#000000" points="543.5,-178.5 543.5,-198.5 586.5,-198.5 586.5,-178.5 543.5,-178.5"/>
<text text-anchor="middle" x="565" y="-185.5" font-family="FreeSans" font-size="10.00" fill="#000000">jewel</text>
</a>
</g>
</g>
<!-- Node4&#45;&gt;Node7 -->
<g id="edge6" class="edge">
<title>Node4&#45;&gt;Node7</title>
<path fill="none" stroke="#191970" d="M410.5704,-142.7219C423.5712,-151.9447 440.9694,-162.9306 458,-169.5 486.3405,-180.432 521.3549,-185.1285 543.4394,-187.1088"/>
<polygon fill="#191970" stroke="#191970" points="412.4685,-139.7739 402.331,-136.6945 408.3355,-145.4235 412.4685,-139.7739"/>
</g>
<!-- Node8 -->
<g id="node8" class="node">
<title>Node8</title>
<g id="a_node8"><a xlink:href="../../de/d99/classFun4AllHepMCPileupInputManager.html#a81bf2b69c3c4d3aae0aadebafe1c2c2e" target="_top" xlink:title="Fun4AllHepMCPileupInputManager::run">
<polygon fill="none" stroke="#000000" points="458,-139.5 458,-159.5 672,-159.5 672,-139.5 458,-139.5"/>
<text text-anchor="middle" x="565" y="-146.5" font-family="FreeSans" font-size="10.00" fill="#000000">Fun4AllHepMCPileupInputManager::run</text>
</a>
</g>
</g>
<!-- Node4&#45;&gt;Node8 -->
<g id="edge7" class="edge">
<title>Node4&#45;&gt;Node8</title>
<path fill="none" stroke="#191970" d="M432.225,-132.0993C449.1814,-134.3215 469.2142,-136.9469 488.5088,-139.4755"/>
<polygon fill="#191970" stroke="#191970" points="432.4689,-128.6014 422.0989,-130.7722 431.5593,-135.5421 432.4689,-128.6014"/>
</g>
<!-- Node9 -->
<g id="node9" class="node">
<title>Node9</title>
<g id="a_node9"><a xlink:href="../../dd/d2a/classPHHepMCGenHelper.html#ab0c755f6e53c0bf57ccd314a0017d227" target="_top" xlink:title="send HepMC::GenEvent to DST tree. This function takes ownership of evt">
<polygon fill="none" stroke="#000000" points="487,-88.5 487,-120.5 643,-120.5 643,-88.5 487,-88.5"/>
<text text-anchor="start" x="495" y="-107.5" font-family="FreeSans" font-size="10.00" fill="#000000">PHHepMCGenHelper::insert</text>
<text text-anchor="middle" x="565" y="-95.5" font-family="FreeSans" font-size="10.00" fill="#000000">_event</text>
</a>
</g>
</g>
<!-- Node4&#45;&gt;Node9 -->
<g id="edge8" class="edge">
<title>Node4&#45;&gt;Node9</title>
<path fill="none" stroke="#191970" d="M432.413,-121.1206C448.7869,-119.068 468.0089,-116.6584 486.6575,-114.3207"/>
<polygon fill="#191970" stroke="#191970" points="431.5859,-117.6968 422.0989,-122.4135 432.4566,-124.6424 431.5859,-117.6968"/>
</g>
<!-- Node14 -->
<g id="node14" class="node">
<title>Node14</title>
<g id="a_node14"><a xlink:href="../../d9/d3a/classPHPythia8.html#a5cc4124cc6be2fb2467714e3d3bc5a6a" target="_top" xlink:title="PHPythia8::process\l_event">
<polygon fill="none" stroke="#000000" points="743,-39.5 743,-71.5 856,-71.5 856,-39.5 743,-39.5"/>
<text text-anchor="start" x="751" y="-58.5" font-family="FreeSans" font-size="10.00" fill="#000000">PHPythia8::process</text>
<text text-anchor="middle" x="799.5" y="-46.5" font-family="FreeSans" font-size="10.00" fill="#000000">_event</text>
</a>
</g>
</g>
<!-- Node4&#45;&gt;Node14 -->
<g id="edge15" class="edge">
<title>Node4&#45;&gt;Node14</title>
<path fill="none" stroke="#191970" d="M407.8199,-109.8845C420.8212,-99.1674 439.2338,-86.0489 458,-79.5 553.8174,-46.0623 673.7419,-46.5529 742.9879,-50.5877"/>
<polygon fill="#191970" stroke="#191970" points="405.4281,-107.3247 400.1083,-116.4871 409.9807,-112.642 405.4281,-107.3247"/>
</g>
<!-- Node15 -->
<g id="node15" class="node">
<title>Node15</title>
<g id="a_node15"><a xlink:href="../../da/df0/classPHSartre.html#aafe9fd92317ab1f7eee67a9354696c4e" target="_top" xlink:title="PHSartre::process_event">
<polygon fill="none" stroke="#000000" points="729.5,-.5 729.5,-20.5 869.5,-20.5 869.5,-.5 729.5,-.5"/>
<text text-anchor="middle" x="799.5" y="-7.5" font-family="FreeSans" font-size="10.00" fill="#000000">PHSartre::process_event</text>
</a>
</g>
</g>
<!-- Node4&#45;&gt;Node15 -->
<g id="edge16" class="edge">
<title>Node4&#45;&gt;Node15</title>
<path fill="none" stroke="#191970" d="M399.5696,-107.3345C410.9312,-87.8593 431.3553,-58.6111 458,-44.5 543.1664,.6042 657.0429,2.2849 729.3495,-2.5913"/>
<polygon fill="#191970" stroke="#191970" points="396.4126,-105.8097 394.6007,-116.2485 402.5268,-109.218 396.4126,-105.8097"/>
</g>
<!-- Node6 -->
<g id="node6" class="node">
<title>Node6</title>
<g id="a_node6"><a xlink:href="../../d6/d45/classEpFinderEval.html#a2539c184425a5dceabf6a3be79b31e9a" target="_top" xlink:title="EpFinderEval::process\l_event">
<polygon fill="none" stroke="#000000" points="735.5,-231.5 735.5,-263.5 863.5,-263.5 863.5,-231.5 735.5,-231.5"/>
<text text-anchor="start" x="743.5" y="-250.5" font-family="FreeSans" font-size="10.00" fill="#000000">EpFinderEval::process</text>
<text text-anchor="middle" x="799.5" y="-238.5" font-family="FreeSans" font-size="10.00" fill="#000000">_event</text>
</a>
</g>
</g>
<!-- Node5&#45;&gt;Node6 -->
<g id="edge5" class="edge">
<title>Node5&#45;&gt;Node6</title>
<path fill="none" stroke="#191970" d="M638.491,-240.6339C669.5702,-241.9593 705.4383,-243.4888 735.4212,-244.7674"/>
<polygon fill="#191970" stroke="#191970" points="638.2902,-237.1223 628.1502,-240.193 637.9919,-244.1159 638.2902,-237.1223"/>
</g>
<!-- Node10 -->
<g id="node10" class="node">
<title>Node10</title>
<g id="a_node10"><a xlink:href="../../d6/d6f/classFun4AllHepMCInputManager.html#ab6c80a8ee0701bfff5eee3ec3623015c" target="_top" xlink:title="Fun4AllHepMCInputManager::run">
<polygon fill="none" stroke="#000000" points="708,-192.5 708,-212.5 891,-212.5 891,-192.5 708,-192.5"/>
<text text-anchor="middle" x="799.5" y="-199.5" font-family="FreeSans" font-size="10.00" fill="#000000">Fun4AllHepMCInputManager::run</text>
</a>
</g>
</g>
<!-- Node9&#45;&gt;Node10 -->
<g id="edge9" class="edge">
<title>Node9&#45;&gt;Node10</title>
<path fill="none" stroke="#191970" d="M652.5555,-119.9105C659.4211,-122.8489 666.0056,-126.3438 672,-130.5 695.401,-146.7252 684.3295,-167.6705 708,-183.5 713.3946,-187.1076 719.3373,-190.0517 725.525,-192.4515"/>
<polygon fill="#191970" stroke="#191970" points="653.6377,-116.5766 643.0482,-116.2388 651.1158,-123.1065 653.6377,-116.5766"/>
</g>
<!-- Node11 -->
<g id="node11" class="node">
<title>Node11</title>
<g id="a_node11"><a xlink:href="../../db/d1f/classFun4AllOscarInputManager.html#a1537e89c4e652f70747fbbef18ceadc4" target="_top" xlink:title="Fun4AllOscarInputManager\l::ConvertFromOscar">
<polygon fill="none" stroke="#000000" points="722.5,-141.5 722.5,-173.5 876.5,-173.5 876.5,-141.5 722.5,-141.5"/>
<text text-anchor="start" x="730.5" y="-160.5" font-family="FreeSans" font-size="10.00" fill="#000000">Fun4AllOscarInputManager</text>
<text text-anchor="middle" x="799.5" y="-148.5" font-family="FreeSans" font-size="10.00" fill="#000000">::ConvertFromOscar</text>
</a>
</g>
</g>
<!-- Node9&#45;&gt;Node11 -->
<g id="edge10" class="edge">
<title>Node9&#45;&gt;Node11</title>
<path fill="none" stroke="#191970" d="M646.0982,-122.8292C672.8519,-128.8759 702.3892,-135.5517 728.3428,-141.4176"/>
<polygon fill="#191970" stroke="#191970" points="646.5197,-119.3363 635.9941,-120.5456 644.9765,-126.1641 646.5197,-119.3363"/>
</g>
<!-- Node13 -->
<g id="node13" class="node">
<title>Node13</title>
<g id="a_node13"><a xlink:href="../../dd/da8/classPHPythia6.html#a7a70bdd1c198a83ed143d3e2c4516d0d" target="_top" xlink:title="PHPythia6::process\l_event">
<polygon fill="none" stroke="#000000" points="743,-90.5 743,-122.5 856,-122.5 856,-90.5 743,-90.5"/>
<text text-anchor="start" x="751" y="-109.5" font-family="FreeSans" font-size="10.00" fill="#000000">PHPythia6::process</text>
<text text-anchor="middle" x="799.5" y="-97.5" font-family="FreeSans" font-size="10.00" fill="#000000">_event</text>
</a>
</g>
</g>
<!-- Node9&#45;&gt;Node13 -->
<g id="edge12" class="edge">
<title>Node9&#45;&gt;Node13</title>
<path fill="none" stroke="#191970" d="M653.16,-105.2519C683.2125,-105.5082 715.9865,-105.7877 742.8859,-106.0172"/>
<polygon fill="#191970" stroke="#191970" points="653.1146,-101.7515 643.0851,-105.166 653.0549,-108.7512 653.1146,-101.7515"/>
</g>
<!-- Node9&#45;&gt;Node14 -->
<g id="edge13" class="edge">
<title>Node9&#45;&gt;Node14</title>
<path fill="none" stroke="#191970" d="M651.9326,-86.335C682.2233,-80.0056 715.4126,-73.0705 742.6312,-67.383"/>
<polygon fill="#191970" stroke="#191970" points="650.8568,-82.9841 641.7841,-88.4556 652.2886,-89.8361 650.8568,-82.9841"/>
</g>
<!-- Node9&#45;&gt;Node15 -->
<g id="edge14" class="edge">
<title>Node9&#45;&gt;Node15</title>
<path fill="none" stroke="#191970" d="M599.0316,-83.1811C627.2566,-66.365 668.9434,-43.4869 708,-29.5 717.9283,-25.9445 728.7138,-22.9696 739.2811,-20.5097"/>
<polygon fill="#191970" stroke="#191970" points="597.1176,-80.2481 590.361,-88.4089 600.7321,-86.2427 597.1176,-80.2481"/>
</g>
<!-- Node12 -->
<g id="node12" class="node">
<title>Node12</title>
<g id="a_node12"><a xlink:href="../../db/d1f/classFun4AllOscarInputManager.html#a4be602bd8c9fe73f9dcc81c8871784a6" target="_top" xlink:title="Fun4AllOscarInputManager::run">
<polygon fill="none" stroke="#000000" points="927,-147.5 927,-167.5 1103,-167.5 1103,-147.5 927,-147.5"/>
<text text-anchor="middle" x="1015" y="-154.5" font-family="FreeSans" font-size="10.00" fill="#000000">Fun4AllOscarInputManager::run</text>
</a>
</g>
</g>
<!-- Node11&#45;&gt;Node12 -->
<g id="edge11" class="edge">
<title>Node11&#45;&gt;Node12</title>
<path fill="none" stroke="#191970" d="M886.7391,-157.5C900.0061,-157.5 913.7039,-157.5 926.9873,-157.5"/>
<polygon fill="#191970" stroke="#191970" points="886.6918,-154.0001 876.6918,-157.5 886.6917,-161.0001 886.6918,-154.0001"/>
</g>
</g>
</svg>
