<?xml version="1.0" encoding="UTF-8" standalone="no"?>
<!DOCTYPE svg PUBLIC "-//W3C//DTD SVG 1.1//EN"
 "http://www.w3.org/Graphics/SVG/1.1/DTD/svg11.dtd">
<!-- Generated by graphviz version 2.40.1 (20161225.0304)
 -->
<!-- Title: ishadron Pages: 1 -->
<svg width="985pt" height="342pt"
 viewBox="0.00 0.00 985.00 342.00" xmlns="http://www.w3.org/2000/svg" xmlns:xlink="http://www.w3.org/1999/xlink">
<g id="graph0" class="graph" transform="scale(1 1) rotate(0) translate(4 338)">
<title>ishadron</title>
<!-- Node1 -->
<g id="node1" class="node">
<title>Node1</title>
<polygon fill="#bfbfbf" stroke="#000000" points="0,-97.5 0,-117.5 60,-117.5 60,-97.5 0,-97.5"/>
<text text-anchor="middle" x="30" y="-104.5" font-family="FreeSans" font-size="10.00" fill="#000000">ishadron</text>
</g>
<!-- Node2 -->
<g id="node2" class="node">
<title>Node2</title>
<g id="a_node2"><a xlink:href="../../d3/dd5/jewel-2_82_80_8f.html#ac81138f304bda7ec1fd2c2fafd517ef9" target="_top" xlink:title="converttohepmc">
<polygon fill="none" stroke="#000000" points="96,-97.5 96,-117.5 195,-117.5 195,-97.5 96,-97.5"/>
<text text-anchor="middle" x="145.5" y="-104.5" font-family="FreeSans" font-size="10.00" fill="#000000">converttohepmc</text>
</a>
</g>
</g>
<!-- Node1&#45;&gt;Node2 -->
<g id="edge1" class="edge">
<title>Node1&#45;&gt;Node2</title>
<path fill="none" stroke="#191970" d="M70.2104,-107.5C78.5075,-107.5 87.3384,-107.5 95.9233,-107.5"/>
<polygon fill="#191970" stroke="#191970" points="70.0448,-104.0001 60.0448,-107.5 70.0447,-111.0001 70.0448,-104.0001"/>
</g>
<!-- Node3 -->
<g id="node3" class="node">
<title>Node3</title>
<g id="a_node3"><a xlink:href="../../d3/dd5/jewel-2_82_80_8f.html#aeb24fa7919aa21c652e9c8f2ec45cb91" target="_top" xlink:title="genevent">
<polygon fill="none" stroke="#000000" points="231,-97.5 231,-117.5 296,-117.5 296,-97.5 231,-97.5"/>
<text text-anchor="middle" x="263.5" y="-104.5" font-family="FreeSans" font-size="10.00" fill="#000000">genevent</text>
</a>
</g>
</g>
<!-- Node2&#45;&gt;Node3 -->
<g id="edge2" class="edge">
<title>Node2&#45;&gt;Node3</title>
<path fill="none" stroke="#191970" d="M205.4844,-107.5C214.2731,-107.5 223.0326,-107.5 230.9827,-107.5"/>
<polygon fill="#191970" stroke="#191970" points="205.2007,-104.0001 195.2006,-107.5 205.2006,-111.0001 205.2007,-104.0001"/>
</g>
<!-- Node4 -->
<g id="node4" class="node">
<title>Node4</title>
<g id="a_node4"><a xlink:href="../../d6/d45/classEpFinderEval.html#af537855512c06847c1021dd83f015031" target="_top" xlink:title="EpFinderEval::fill_tree">
<polygon fill="none" stroke="#000000" points="376,-258.5 376,-278.5 502,-278.5 502,-258.5 376,-258.5"/>
<text text-anchor="middle" x="439" y="-265.5" font-family="FreeSans" font-size="10.00" fill="#000000">EpFinderEval::fill_tree</text>
</a>
</g>
</g>
<!-- Node3&#45;&gt;Node4 -->
<g id="edge3" class="edge">
<title>Node3&#45;&gt;Node4</title>
<path fill="none" stroke="#191970" d="M274.5291,-126.4686C286.7964,-146.4818 308.0659,-178.1566 332,-200.5 358.7079,-225.4329 395.7694,-246.623 418.5273,-258.4406"/>
<polygon fill="#191970" stroke="#191970" points="277.4006,-124.4512 269.2579,-117.6727 271.3962,-128.0495 277.4006,-124.4512"/>
</g>
<!-- Node6 -->
<g id="node6" class="node">
<title>Node6</title>
<g id="a_node6"><a xlink:href="../../dd/d2a/classPHHepMCGenHelper.html#ab0c755f6e53c0bf57ccd314a0017d227" target="_top" xlink:title="send HepMC::GenEvent to DST tree. This function takes ownership of evt">
<polygon fill="none" stroke="#000000" points="361,-158.5 361,-190.5 517,-190.5 517,-158.5 361,-158.5"/>
<text text-anchor="start" x="369" y="-177.5" font-family="FreeSans" font-size="10.00" fill="#000000">PHHepMCGenHelper::insert</text>
<text text-anchor="middle" x="439" y="-165.5" font-family="FreeSans" font-size="10.00" fill="#000000">_event</text>
</a>
</g>
</g>
<!-- Node3&#45;&gt;Node6 -->
<g id="edge5" class="edge">
<title>Node3&#45;&gt;Node6</title>
<path fill="none" stroke="#191970" d="M291.8668,-122.2774C304.0461,-128.3298 318.5455,-135.1525 332,-140.5 348.4832,-147.0512 366.7682,-153.2411 383.4913,-158.4988"/>
<polygon fill="#191970" stroke="#191970" points="293.1655,-119.0124 282.661,-117.6316 290.0117,-125.2617 293.1655,-119.0124"/>
</g>
<!-- Node11 -->
<g id="node11" class="node">
<title>Node11</title>
<g id="a_node11"><a xlink:href="../../d9/d3a/classPHPythia8.html#a5cc4124cc6be2fb2467714e3d3bc5a6a" target="_top" xlink:title="PHPythia8::process\l_event">
<polygon fill="none" stroke="#000000" points="617,-109.5 617,-141.5 730,-141.5 730,-109.5 617,-109.5"/>
<text text-anchor="start" x="625" y="-128.5" font-family="FreeSans" font-size="10.00" fill="#000000">PHPythia8::process</text>
<text text-anchor="middle" x="673.5" y="-116.5" font-family="FreeSans" font-size="10.00" fill="#000000">_event</text>
</a>
</g>
</g>
<!-- Node3&#45;&gt;Node11 -->
<g id="edge14" class="edge">
<title>Node3&#45;&gt;Node11</title>
<path fill="none" stroke="#191970" d="M306.4086,-109.3838C380.8409,-112.6516 533.8672,-119.3698 616.902,-123.0152"/>
<polygon fill="#191970" stroke="#191970" points="306.1586,-105.8695 296.0147,-108.9275 305.8516,-112.8628 306.1586,-105.8695"/>
</g>
<!-- Node12 -->
<g id="node12" class="node">
<title>Node12</title>
<g id="a_node12"><a xlink:href="../../da/df0/classPHSartre.html#aafe9fd92317ab1f7eee67a9354696c4e" target="_top" xlink:title="PHSartre::process_event">
<polygon fill="none" stroke="#000000" points="603.5,-70.5 603.5,-90.5 743.5,-90.5 743.5,-70.5 603.5,-70.5"/>
<text text-anchor="middle" x="673.5" y="-77.5" font-family="FreeSans" font-size="10.00" fill="#000000">PHSartre::process_event</text>
</a>
</g>
</g>
<!-- Node3&#45;&gt;Node12 -->
<g id="edge13" class="edge">
<title>Node3&#45;&gt;Node12</title>
<path fill="none" stroke="#191970" d="M306.2904,-104.6821C376.752,-100.0419 517.8743,-90.7485 603.1815,-85.1307"/>
<polygon fill="#191970" stroke="#191970" points="305.7631,-101.2091 296.0147,-105.3588 306.2231,-108.194 305.7631,-101.2091"/>
</g>
<!-- Node13 -->
<g id="node13" class="node">
<title>Node13</title>
<g id="a_node13"><a xlink:href="../../d3/dd5/jewel-2_82_80_8f.html#a15e2df3184692bfe4ca2261638190094" target="_top" xlink:title="jewel">
<polygon fill="none" stroke="#000000" points="417.5,-39.5 417.5,-59.5 460.5,-59.5 460.5,-39.5 417.5,-39.5"/>
<text text-anchor="middle" x="439" y="-46.5" font-family="FreeSans" font-size="10.00" fill="#000000">jewel</text>
</a>
</g>
</g>
<!-- Node3&#45;&gt;Node13 -->
<g id="edge12" class="edge">
<title>Node3&#45;&gt;Node13</title>
<path fill="none" stroke="#191970" d="M290.5244,-92.7854C302.8972,-86.4945 317.9142,-79.4706 332,-74.5 360.7832,-64.3431 395.3843,-57.1167 417.2874,-53.1252"/>
<polygon fill="#191970" stroke="#191970" points="288.8946,-89.6879 281.6374,-97.407 292.1243,-95.8983 288.8946,-89.6879"/>
</g>
<!-- Node14 -->
<g id="node14" class="node">
<title>Node14</title>
<g id="a_node14"><a xlink:href="../../de/d99/classFun4AllHepMCPileupInputManager.html#a81bf2b69c3c4d3aae0aadebafe1c2c2e" target="_top" xlink:title="Fun4AllHepMCPileupInputManager::run">
<polygon fill="none" stroke="#000000" points="332,-.5 332,-20.5 546,-20.5 546,-.5 332,-.5"/>
<text text-anchor="middle" x="439" y="-7.5" font-family="FreeSans" font-size="10.00" fill="#000000">Fun4AllHepMCPileupInputManager::run</text>
</a>
</g>
</g>
<!-- Node3&#45;&gt;Node14 -->
<g id="edge15" class="edge">
<title>Node3&#45;&gt;Node14</title>
<path fill="none" stroke="#191970" d="M274.5536,-88.8223C286.3747,-70.6136 306.8606,-43.6593 332,-29.5 338.4112,-25.889 345.3522,-22.9373 352.513,-20.5278"/>
<polygon fill="#191970" stroke="#191970" points="271.5054,-87.0958 269.183,-97.433 277.4449,-90.8003 271.5054,-87.0958"/>
</g>
<!-- Node5 -->
<g id="node5" class="node">
<title>Node5</title>
<g id="a_node5"><a xlink:href="../../d6/d45/classEpFinderEval.html#a2539c184425a5dceabf6a3be79b31e9a" target="_top" xlink:title="EpFinderEval::process\l_event">
<polygon fill="none" stroke="#000000" points="609.5,-301.5 609.5,-333.5 737.5,-333.5 737.5,-301.5 609.5,-301.5"/>
<text text-anchor="start" x="617.5" y="-320.5" font-family="FreeSans" font-size="10.00" fill="#000000">EpFinderEval::process</text>
<text text-anchor="middle" x="673.5" y="-308.5" font-family="FreeSans" font-size="10.00" fill="#000000">_event</text>
</a>
</g>
</g>
<!-- Node4&#45;&gt;Node5 -->
<g id="edge4" class="edge">
<title>Node4&#45;&gt;Node5</title>
<path fill="none" stroke="#191970" d="M496.8174,-280.5812C530.8518,-287.6929 573.9689,-296.7024 609.0886,-304.0409"/>
<polygon fill="#191970" stroke="#191970" points="497.5249,-277.1536 487.0204,-278.5341 496.0931,-284.0056 497.5249,-277.1536"/>
</g>
<!-- Node7 -->
<g id="node7" class="node">
<title>Node7</title>
<g id="a_node7"><a xlink:href="../../d6/d6f/classFun4AllHepMCInputManager.html#ab6c80a8ee0701bfff5eee3ec3623015c" target="_top" xlink:title="Fun4AllHepMCInputManager::run">
<polygon fill="none" stroke="#000000" points="582,-262.5 582,-282.5 765,-282.5 765,-262.5 582,-262.5"/>
<text text-anchor="middle" x="673.5" y="-269.5" font-family="FreeSans" font-size="10.00" fill="#000000">Fun4AllHepMCInputManager::run</text>
</a>
</g>
</g>
<!-- Node6&#45;&gt;Node7 -->
<g id="edge6" class="edge">
<title>Node6&#45;&gt;Node7</title>
<path fill="none" stroke="#191970" d="M471.3397,-196.07C499.4768,-213.9132 541.9205,-238.6546 582,-253.5 591.5849,-257.0502 601.9937,-260.0038 612.2404,-262.4393"/>
<polygon fill="#191970" stroke="#191970" points="473.0338,-192.9985 462.7281,-190.5405 469.2516,-198.8888 473.0338,-192.9985"/>
</g>
<!-- Node8 -->
<g id="node8" class="node">
<title>Node8</title>
<g id="a_node8"><a xlink:href="../../db/d1f/classFun4AllOscarInputManager.html#a1537e89c4e652f70747fbbef18ceadc4" target="_top" xlink:title="Fun4AllOscarInputManager\l::ConvertFromOscar">
<polygon fill="none" stroke="#000000" points="596.5,-211.5 596.5,-243.5 750.5,-243.5 750.5,-211.5 596.5,-211.5"/>
<text text-anchor="start" x="604.5" y="-230.5" font-family="FreeSans" font-size="10.00" fill="#000000">Fun4AllOscarInputManager</text>
<text text-anchor="middle" x="673.5" y="-218.5" font-family="FreeSans" font-size="10.00" fill="#000000">::ConvertFromOscar</text>
</a>
</g>
</g>
<!-- Node6&#45;&gt;Node8 -->
<g id="edge7" class="edge">
<title>Node6&#45;&gt;Node8</title>
<path fill="none" stroke="#191970" d="M520.0982,-192.8292C546.8519,-198.8759 576.3892,-205.5517 602.3428,-211.4176"/>
<polygon fill="#191970" stroke="#191970" points="520.5197,-189.3363 509.9941,-190.5456 518.9765,-196.1641 520.5197,-189.3363"/>
</g>
<!-- Node10 -->
<g id="node10" class="node">
<title>Node10</title>
<g id="a_node10"><a xlink:href="../../dd/da8/classPHPythia6.html#a7a70bdd1c198a83ed143d3e2c4516d0d" target="_top" xlink:title="PHPythia6::process\l_event">
<polygon fill="none" stroke="#000000" points="617,-160.5 617,-192.5 730,-192.5 730,-160.5 617,-160.5"/>
<text text-anchor="start" x="625" y="-179.5" font-family="FreeSans" font-size="10.00" fill="#000000">PHPythia6::process</text>
<text text-anchor="middle" x="673.5" y="-167.5" font-family="FreeSans" font-size="10.00" fill="#000000">_event</text>
</a>
</g>
</g>
<!-- Node6&#45;&gt;Node10 -->
<g id="edge9" class="edge">
<title>Node6&#45;&gt;Node10</title>
<path fill="none" stroke="#191970" d="M527.16,-175.2519C557.2125,-175.5082 589.9865,-175.7877 616.8859,-176.0172"/>
<polygon fill="#191970" stroke="#191970" points="527.1146,-171.7515 517.0851,-175.166 527.0549,-178.7512 527.1146,-171.7515"/>
</g>
<!-- Node6&#45;&gt;Node11 -->
<g id="edge10" class="edge">
<title>Node6&#45;&gt;Node11</title>
<path fill="none" stroke="#191970" d="M525.9326,-156.335C556.2233,-150.0056 589.4126,-143.0705 616.6312,-137.383"/>
<polygon fill="#191970" stroke="#191970" points="524.8568,-152.9841 515.7841,-158.4556 526.2886,-159.8361 524.8568,-152.9841"/>
</g>
<!-- Node6&#45;&gt;Node12 -->
<g id="edge11" class="edge">
<title>Node6&#45;&gt;Node12</title>
<path fill="none" stroke="#191970" d="M473.0316,-153.1811C501.2566,-136.365 542.9434,-113.4869 582,-99.5 591.9283,-95.9445 602.7138,-92.9696 613.2811,-90.5097"/>
<polygon fill="#191970" stroke="#191970" points="471.1176,-150.2481 464.361,-158.4089 474.7321,-156.2427 471.1176,-150.2481"/>
</g>
<!-- Node9 -->
<g id="node9" class="node">
<title>Node9</title>
<g id="a_node9"><a xlink:href="../../db/d1f/classFun4AllOscarInputManager.html#a4be602bd8c9fe73f9dcc81c8871784a6" target="_top" xlink:title="Fun4AllOscarInputManager::run">
<polygon fill="none" stroke="#000000" points="801,-217.5 801,-237.5 977,-237.5 977,-217.5 801,-217.5"/>
<text text-anchor="middle" x="889" y="-224.5" font-family="FreeSans" font-size="10.00" fill="#000000">Fun4AllOscarInputManager::run</text>
</a>
</g>
</g>
<!-- Node8&#45;&gt;Node9 -->
<g id="edge8" class="edge">
<title>Node8&#45;&gt;Node9</title>
<path fill="none" stroke="#191970" d="M760.7391,-227.5C774.0061,-227.5 787.7039,-227.5 800.9873,-227.5"/>
<polygon fill="#191970" stroke="#191970" points="760.6918,-224.0001 750.6918,-227.5 760.6917,-231.0001 760.6918,-224.0001"/>
</g>
</g>
</svg>
