<?xml version="1.0" encoding="UTF-8" standalone="no"?>
<!DOCTYPE svg PUBLIC "-//W3C//DTD SVG 1.1//EN"
 "http://www.w3.org/Graphics/SVG/1.1/DTD/svg11.dtd">
<!-- Generated by graphviz version 2.40.1 (20161225.0304)
 -->
<!-- Title: coresoftware/blob/master/simulation/g4simulation/g4detectors/PHG4ForwardEcalSteppingAction.cc Pages: 1 -->
<svg width="4943pt" height="362pt"
 viewBox="0.00 0.00 4942.50 362.00" xmlns="http://www.w3.org/2000/svg" xmlns:xlink="http://www.w3.org/1999/xlink">
<g id="graph0" class="graph" transform="scale(1 1) rotate(0) translate(4 358)">
<title>coresoftware/blob/master/simulation/g4simulation/g4detectors/PHG4ForwardEcalSteppingAction.cc</title>
<!-- Node1 -->
<g id="node1" class="node">
<title>Node1</title>
<polygon fill="#bfbfbf" stroke="#000000" points="2258.0001,-297.5 2258.0001,-353.5 2477.0001,-353.5 2477.0001,-297.5 2258.0001,-297.5"/>
<text text-anchor="start" x="2266.0001" y="-340.5" font-family="FreeSans" font-size="10.00" fill="#000000">coresoftware/blob/master</text>
<text text-anchor="start" x="2266.0001" y="-328.5" font-family="FreeSans" font-size="10.00" fill="#000000">/simulation/g4simulation</text>
<text text-anchor="start" x="2266.0001" y="-316.5" font-family="FreeSans" font-size="10.00" fill="#000000">/g4detectors/PHG4ForwardEcalStepping</text>
<text text-anchor="middle" x="2367.5001" y="-304.5" font-family="FreeSans" font-size="10.00" fill="#000000">Action.cc</text>
</g>
<!-- Node2 -->
<g id="node2" class="node">
<title>Node2</title>
<g id="a_node2"><a xlink:href="../../d2/d96/PHG4ForwardEcalSteppingAction_8h.html" target="_top" xlink:title="PHG4ForwardEcalSteppingAction.h">
<polygon fill="none" stroke="#000000" points="387.5001,-234.5 387.5001,-254.5 579.5001,-254.5 579.5001,-234.5 387.5001,-234.5"/>
<text text-anchor="middle" x="483.5001" y="-241.5" font-family="FreeSans" font-size="10.00" fill="#000000">PHG4ForwardEcalSteppingAction.h</text>
</a>
</g>
</g>
<!-- Node1&#45;&gt;Node2 -->
<g id="edge1" class="edge">
<title>Node1&#45;&gt;Node2</title>
<path fill="none" stroke="#191970" d="M2257.7225,-322.8546C1924.92,-314.6166 930.3559,-288.3332 607.5001,-261 592.1449,-259.7 575.7754,-257.853 560.1336,-255.8622"/>
<polygon fill="#191970" stroke="#191970" points="560.3465,-252.3604 549.9777,-254.5374 559.441,-259.3016 560.3465,-252.3604"/>
</g>
<!-- Node3 -->
<g id="node3" class="node">
<title>Node3</title>
<g id="a_node3"><a xlink:href="../../d0/d55/PHG4SteppingAction_8h.html" target="_top" xlink:title="g4main/PHG4SteppingAction.h">
<polygon fill="none" stroke="#000000" points="206.5001,-171.5 206.5001,-191.5 378.5001,-191.5 378.5001,-171.5 206.5001,-171.5"/>
<text text-anchor="middle" x="292.5001" y="-178.5" font-family="FreeSans" font-size="10.00" fill="#000000">g4main/PHG4SteppingAction.h</text>
</a>
</g>
</g>
<!-- Node1&#45;&gt;Node3 -->
<g id="edge47" class="edge">
<title>Node1&#45;&gt;Node3</title>
<path fill="none" stroke="#191970" d="M2257.9327,-324.0636C1853.8353,-318.492 465.8281,-296.8232 378.5001,-261 347.5053,-248.2855 320.7832,-219.0053 305.6732,-199.7502"/>
<polygon fill="#191970" stroke="#191970" points="308.4043,-197.5592 299.5743,-191.7042 302.8259,-201.7878 308.4043,-197.5592"/>
</g>
<!-- Node5 -->
<g id="node5" class="node">
<title>Node5</title>
<polygon fill="none" stroke="#bfbfbf" points="455.0001,-.5 455.0001,-20.5 500.0001,-20.5 500.0001,-.5 455.0001,-.5"/>
<text text-anchor="middle" x="477.5001" y="-7.5" font-family="FreeSans" font-size="10.00" fill="#000000">string</text>
</g>
<!-- Node1&#45;&gt;Node5 -->
<g id="edge85" class="edge">
<title>Node1&#45;&gt;Node5</title>
<path fill="none" stroke="#191970" d="M2257.6147,-321.5767C2015.5131,-312.4476 1455.0846,-288.4574 1424.5001,-261 1394.2685,-233.8593 1418.1932,-210.4539 1408.5001,-171 1402.1617,-145.2007 1409.1358,-132.9338 1390.5001,-114 1334.3044,-56.9052 1298.1365,-72.3002 1219.5001,-57 1080.5418,-29.9629 634.9339,-15.1191 510.2142,-11.4236"/>
<polygon fill="#191970" stroke="#191970" points="510.2405,-7.9229 500.1424,-11.1288 510.0357,-14.9199 510.2405,-7.9229"/>
</g>
<!-- Node6 -->
<g id="node6" class="node">
<title>Node6</title>
<polygon fill="none" stroke="#bfbfbf" points="396.5001,-171.5 396.5001,-191.5 570.5001,-191.5 570.5001,-171.5 396.5001,-171.5"/>
<text text-anchor="middle" x="483.5001" y="-178.5" font-family="FreeSans" font-size="10.00" fill="#000000">Geant4/G4TouchableHandle.hh</text>
</g>
<!-- Node1&#45;&gt;Node6 -->
<g id="edge73" class="edge">
<title>Node1&#45;&gt;Node6</title>
<path fill="none" stroke="#191970" d="M2257.9234,-323.716C1952.1558,-318.2971 1093.7892,-299.9628 814.5001,-261 709.1527,-246.3033 588.3281,-212.9765 525.8597,-194.4796"/>
<polygon fill="#191970" stroke="#191970" points="526.5653,-191.0378 515.9821,-191.5341 524.5649,-197.7459 526.5653,-191.0378"/>
</g>
<!-- Node7 -->
<g id="node7" class="node">
<title>Node7</title>
<g id="a_node7"><a xlink:href="../../d5/dfd/PHG4ForwardEcalDetector_8h.html" target="_top" xlink:title="PHG4ForwardEcalDetector.h">
<polygon fill="none" stroke="#000000" points="588.5001,-171.5 588.5001,-191.5 746.5001,-191.5 746.5001,-171.5 588.5001,-171.5"/>
<text text-anchor="middle" x="667.5001" y="-178.5" font-family="FreeSans" font-size="10.00" fill="#000000">PHG4ForwardEcalDetector.h</text>
</a>
</g>
</g>
<!-- Node1&#45;&gt;Node7 -->
<g id="edge6" class="edge">
<title>Node1&#45;&gt;Node7</title>
<path fill="none" stroke="#191970" d="M2257.8875,-323.4977C1972.9674,-317.806 1213.9769,-299.4029 965.5001,-261 870.6521,-246.3409 762.5373,-213.2373 706.2285,-194.703"/>
<polygon fill="#191970" stroke="#191970" points="707.2537,-191.3556 696.6603,-191.5293 705.0499,-197.9997 707.2537,-191.3556"/>
</g>
<!-- Node9 -->
<g id="node9" class="node">
<title>Node9</title>
<polygon fill="none" stroke="#bfbfbf" points="952.5001,-57.5 952.5001,-77.5 1012.5001,-77.5 1012.5001,-57.5 952.5001,-57.5"/>
<text text-anchor="middle" x="982.5001" y="-64.5" font-family="FreeSans" font-size="10.00" fill="#000000">iostream</text>
</g>
<!-- Node1&#45;&gt;Node9 -->
<g id="edge84" class="edge">
<title>Node1&#45;&gt;Node9</title>
<path fill="none" stroke="#191970" d="M2257.6047,-322.2205C2008.6179,-314.2557 1420.7302,-292.2256 1391.5001,-261 1364.1575,-231.7908 1401.996,-210.0974 1393.5001,-171 1387.5875,-143.7906 1389.9741,-130.4386 1367.5001,-114 1340.0298,-93.9069 1115.7554,-76.5445 1022.7152,-70.1351"/>
<polygon fill="#191970" stroke="#191970" points="1022.7764,-66.6312 1012.5616,-69.4433 1022.3005,-73.615 1022.7764,-66.6312"/>
</g>
<!-- Node13 -->
<g id="node13" class="node">
<title>Node13</title>
<polygon fill="none" stroke="#bfbfbf" points="1433.5001,-234.5 1433.5001,-254.5 1599.5001,-254.5 1599.5001,-234.5 1433.5001,-234.5"/>
<text text-anchor="middle" x="1516.5001" y="-241.5" font-family="FreeSans" font-size="10.00" fill="#000000">phparameter/PHParameters.h</text>
</g>
<!-- Node1&#45;&gt;Node13 -->
<g id="edge15" class="edge">
<title>Node1&#45;&gt;Node13</title>
<path fill="none" stroke="#191970" d="M2257.94,-318.9948C2110.936,-309.612 1841.8933,-290.1427 1613.5001,-261 1602.7971,-259.6343 1591.4705,-257.9381 1580.4797,-256.1575"/>
<polygon fill="#191970" stroke="#191970" points="1580.9455,-252.6871 1570.5079,-254.5057 1579.8015,-259.5929 1580.9455,-252.6871"/>
</g>
<!-- Node14 -->
<g id="node14" class="node">
<title>Node14</title>
<g id="a_node14"><a xlink:href="../../de/d83/PHG4Hit_8h.html" target="_top" xlink:title="g4main/PHG4Hit.h">
<polygon fill="none" stroke="#000000" points="1274.5001,-171.5 1274.5001,-191.5 1384.5001,-191.5 1384.5001,-171.5 1274.5001,-171.5"/>
<text text-anchor="middle" x="1329.5001" y="-178.5" font-family="FreeSans" font-size="10.00" fill="#000000">g4main/PHG4Hit.h</text>
</a>
</g>
</g>
<!-- Node1&#45;&gt;Node14 -->
<g id="edge16" class="edge">
<title>Node1&#45;&gt;Node14</title>
<path fill="none" stroke="#191970" d="M2257.736,-321.8619C2002.5872,-312.9555 1388.4825,-288.7472 1353.5001,-261 1335.7375,-246.9111 1330.7411,-220.1332 1329.5294,-201.5715"/>
<polygon fill="#191970" stroke="#191970" points="1333.025,-201.3807 1329.1845,-191.5065 1326.0292,-201.6205 1333.025,-201.3807"/>
</g>
<!-- Node19 -->
<g id="node19" class="node">
<title>Node19</title>
<g id="a_node19"><a xlink:href="../../d3/d08/PHG4HitContainer_8h.html" target="_top" xlink:title="g4main/PHG4HitContainer.h">
<polygon fill="none" stroke="#000000" points="764.5001,-171.5 764.5001,-191.5 922.5001,-191.5 922.5001,-171.5 764.5001,-171.5"/>
<text text-anchor="middle" x="843.5001" y="-178.5" font-family="FreeSans" font-size="10.00" fill="#000000">g4main/PHG4HitContainer.h</text>
</a>
</g>
</g>
<!-- Node1&#45;&gt;Node19 -->
<g id="edge26" class="edge">
<title>Node1&#45;&gt;Node19</title>
<path fill="none" stroke="#191970" d="M2257.7825,-323.5434C1991.4475,-318.2136 1316.3505,-301.0677 1094.5001,-261 1014.7094,-246.5893 924.9846,-213.98 877.401,-195.3106"/>
<polygon fill="#191970" stroke="#191970" points="878.4917,-191.9781 867.9055,-191.5499 875.9141,-198.4863 878.4917,-191.9781"/>
</g>
<!-- Node20 -->
<g id="node20" class="node">
<title>Node20</title>
<g id="a_node20"><a xlink:href="../../db/d2b/PHG4Hitv1_8h.html" target="_top" xlink:title="g4main/PHG4Hitv1.h">
<polygon fill="none" stroke="#000000" points="1166.5001,-234.5 1166.5001,-254.5 1288.5001,-254.5 1288.5001,-234.5 1166.5001,-234.5"/>
<text text-anchor="middle" x="1227.5001" y="-241.5" font-family="FreeSans" font-size="10.00" fill="#000000">g4main/PHG4Hitv1.h</text>
</a>
</g>
</g>
<!-- Node1&#45;&gt;Node20 -->
<g id="edge34" class="edge">
<title>Node1&#45;&gt;Node20</title>
<path fill="none" stroke="#191970" d="M2257.6668,-323.2493C2065.8418,-318.3197 1657.5757,-303.39 1315.5001,-261 1305.666,-259.7814 1295.2726,-258.1464 1285.2084,-256.3782"/>
<polygon fill="#191970" stroke="#191970" points="1285.7513,-252.9196 1275.2867,-254.5759 1284.5002,-259.8069 1285.7513,-252.9196"/>
</g>
<!-- Node22 -->
<g id="node22" class="node">
<title>Node22</title>
<g id="a_node22"><a xlink:href="../../d1/dc0/PHG4Shower_8h.html" target="_top" xlink:title="g4main/PHG4Shower.h">
<polygon fill="none" stroke="#000000" points="978.5001,-171.5 978.5001,-191.5 1110.5001,-191.5 1110.5001,-171.5 978.5001,-171.5"/>
<text text-anchor="middle" x="1044.5001" y="-178.5" font-family="FreeSans" font-size="10.00" fill="#000000">g4main/PHG4Shower.h</text>
</a>
</g>
</g>
<!-- Node1&#45;&gt;Node22 -->
<g id="edge40" class="edge">
<title>Node1&#45;&gt;Node22</title>
<path fill="none" stroke="#191970" d="M2257.7603,-323.1107C1979.2451,-316.5568 1259.7574,-296.389 1157.5001,-261 1119.4786,-247.8416 1082.7701,-217.7967 1061.9768,-198.6427"/>
<polygon fill="#191970" stroke="#191970" points="1064.2472,-195.9728 1054.5718,-191.6557 1059.4432,-201.0642 1064.2472,-195.9728"/>
</g>
<!-- Node23 -->
<g id="node23" class="node">
<title>Node23</title>
<g id="a_node23"><a xlink:href="../../df/d1a/PHG4TrackUserInfoV1_8h.html" target="_top" xlink:title="g4main/PHG4TrackUserInfoV1.h">
<polygon fill="none" stroke="#000000" points="1655.0001,-234.5 1655.0001,-254.5 1832.0001,-254.5 1832.0001,-234.5 1655.0001,-234.5"/>
<text text-anchor="middle" x="1743.5001" y="-241.5" font-family="FreeSans" font-size="10.00" fill="#000000">g4main/PHG4TrackUserInfoV1.h</text>
</a>
</g>
</g>
<!-- Node1&#45;&gt;Node23 -->
<g id="edge48" class="edge">
<title>Node1&#45;&gt;Node23</title>
<path fill="none" stroke="#191970" d="M2257.7513,-313.4916C2151.2103,-301.4922 1985.011,-281.8695 1841.5001,-261 1831.4079,-259.5324 1820.7515,-257.8628 1810.3296,-256.1629"/>
<polygon fill="#191970" stroke="#191970" points="1810.8719,-252.7051 1800.4353,-254.5292 1809.7315,-259.6116 1810.8719,-252.7051"/>
</g>
<!-- Node24 -->
<g id="node24" class="node">
<title>Node24</title>
<polygon fill="none" stroke="#bfbfbf" points="1510.5001,-171.5 1510.5001,-191.5 1712.5001,-191.5 1712.5001,-171.5 1510.5001,-171.5"/>
<text text-anchor="middle" x="1611.5001" y="-178.5" font-family="FreeSans" font-size="10.00" fill="#000000">Geant4/G4VUserTrackInformation.hh</text>
</g>
<!-- Node1&#45;&gt;Node24 -->
<g id="edge79" class="edge">
<title>Node1&#45;&gt;Node24</title>
<path fill="none" stroke="#191970" d="M2257.7369,-321.7766C2068.1697,-314.4555 1694.9605,-295.7906 1646.5001,-261 1627.1454,-247.105 1618.3496,-220.0806 1614.4516,-201.425"/>
<polygon fill="#191970" stroke="#191970" points="1617.8942,-200.7931 1612.6796,-191.5704 1611.0047,-202.032 1617.8942,-200.7931"/>
</g>
<!-- Node27 -->
<g id="node27" class="node">
<title>Node27</title>
<g id="a_node27"><a xlink:href="../../dd/dd4/getClass_8h.html" target="_top" xlink:title="phool/getClass.h">
<polygon fill="none" stroke="#ff0000" points="90.5001,-234.5 90.5001,-254.5 190.5001,-254.5 190.5001,-234.5 90.5001,-234.5"/>
<text text-anchor="middle" x="140.5001" y="-241.5" font-family="FreeSans" font-size="10.00" fill="#000000">phool/getClass.h</text>
</a>
</g>
</g>
<!-- Node1&#45;&gt;Node27 -->
<g id="edge52" class="edge">
<title>Node1&#45;&gt;Node27</title>
<path fill="none" stroke="#191970" d="M2257.9436,-324.5377C1950.7377,-321.3048 1055.0107,-308.2182 312.5001,-261 275.4908,-258.6465 234.1164,-254.7184 201.2229,-251.2852"/>
<polygon fill="#191970" stroke="#191970" points="201.1697,-247.7602 190.8574,-250.1906 200.4345,-254.7215 201.1697,-247.7602"/>
</g>
<!-- Node31 -->
<g id="node31" class="node">
<title>Node31</title>
<polygon fill="none" stroke="#bfbfbf" points="1850.0001,-234.5 1850.0001,-254.5 2011.0001,-254.5 2011.0001,-234.5 1850.0001,-234.5"/>
<text text-anchor="middle" x="1930.5001" y="-241.5" font-family="FreeSans" font-size="10.00" fill="#000000">Geant4/G4IonisParamMat.hh</text>
</g>
<!-- Node1&#45;&gt;Node31 -->
<g id="edge62" class="edge">
<title>Node1&#45;&gt;Node31</title>
<path fill="none" stroke="#191970" d="M2257.7906,-305.1648C2174.7742,-289.7774 2063.6283,-269.1759 1994.5755,-256.3767"/>
<polygon fill="#191970" stroke="#191970" points="1995.1716,-252.9276 1984.7012,-254.5464 1993.8958,-259.8104 1995.1716,-252.9276"/>
</g>
<!-- Node32 -->
<g id="node32" class="node">
<title>Node32</title>
<polygon fill="none" stroke="#bfbfbf" points="2029.5001,-234.5 2029.5001,-254.5 2157.5001,-254.5 2157.5001,-234.5 2029.5001,-234.5"/>
<text text-anchor="middle" x="2093.5001" y="-241.5" font-family="FreeSans" font-size="10.00" fill="#000000">Geant4/G4Material.hh</text>
</g>
<!-- Node1&#45;&gt;Node32 -->
<g id="edge63" class="edge">
<title>Node1&#45;&gt;Node32</title>
<path fill="none" stroke="#191970" d="M2272.4372,-297.3975C2226.5202,-283.8235 2173.6476,-268.1932 2137.3487,-257.4626"/>
<polygon fill="#191970" stroke="#191970" points="2138.1517,-254.0502 2127.5697,-254.5717 2136.1672,-260.7631 2138.1517,-254.0502"/>
</g>
<!-- Node33 -->
<g id="node33" class="node">
<title>Node33</title>
<polygon fill="none" stroke="#bfbfbf" points="2175.5001,-234.5 2175.5001,-254.5 2361.5001,-254.5 2361.5001,-234.5 2175.5001,-234.5"/>
<text text-anchor="middle" x="2268.5001" y="-241.5" font-family="FreeSans" font-size="10.00" fill="#000000">Geant4/G4MaterialCutsCouple.hh</text>
</g>
<!-- Node1&#45;&gt;Node33 -->
<g id="edge64" class="edge">
<title>Node1&#45;&gt;Node33</title>
<path fill="none" stroke="#191970" d="M2333.1525,-297.3975C2318.3095,-285.2532 2301.4548,-271.4629 2288.6767,-261.0081"/>
<polygon fill="#191970" stroke="#191970" points="2290.8864,-258.2938 2280.9305,-254.6703 2286.4537,-263.7116 2290.8864,-258.2938"/>
</g>
<!-- Node34 -->
<g id="node34" class="node">
<title>Node34</title>
<polygon fill="none" stroke="#bfbfbf" points="2380.0001,-234.5 2380.0001,-254.5 2553.0001,-254.5 2553.0001,-234.5 2380.0001,-234.5"/>
<text text-anchor="middle" x="2466.5001" y="-241.5" font-family="FreeSans" font-size="10.00" fill="#000000">Geant4/G4ParticleDefinition.hh</text>
</g>
<!-- Node1&#45;&gt;Node34 -->
<g id="edge65" class="edge">
<title>Node1&#45;&gt;Node34</title>
<path fill="none" stroke="#191970" d="M2401.8477,-297.3975C2416.6907,-285.2532 2433.5454,-271.4629 2446.3235,-261.0081"/>
<polygon fill="#191970" stroke="#191970" points="2448.5465,-263.7116 2454.0697,-254.6703 2444.1138,-258.2938 2448.5465,-263.7116"/>
</g>
<!-- Node35 -->
<g id="node35" class="node">
<title>Node35</title>
<polygon fill="none" stroke="#bfbfbf" points="2571.5001,-228.5 2571.5001,-260.5 2735.5001,-260.5 2735.5001,-228.5 2571.5001,-228.5"/>
<text text-anchor="start" x="2579.5001" y="-247.5" font-family="FreeSans" font-size="10.00" fill="#000000">Geant4/G4ReferenceCounted</text>
<text text-anchor="middle" x="2653.5001" y="-235.5" font-family="FreeSans" font-size="10.00" fill="#000000">Handle.hh</text>
</g>
<!-- Node1&#45;&gt;Node35 -->
<g id="edge66" class="edge">
<title>Node1&#45;&gt;Node35</title>
<path fill="none" stroke="#191970" d="M2466.7264,-297.3975C2506.5434,-286.1206 2551.3714,-273.4246 2587.128,-263.2977"/>
<polygon fill="#191970" stroke="#191970" points="2588.2932,-266.6054 2596.961,-260.5128 2586.3857,-259.8703 2588.2932,-266.6054"/>
</g>
<!-- Node36 -->
<g id="node36" class="node">
<title>Node36</title>
<polygon fill="none" stroke="#bfbfbf" points="2753.5001,-234.5 2753.5001,-254.5 2863.5001,-254.5 2863.5001,-234.5 2753.5001,-234.5"/>
<text text-anchor="middle" x="2808.5001" y="-241.5" font-family="FreeSans" font-size="10.00" fill="#000000">Geant4/G4Step.hh</text>
</g>
<!-- Node1&#45;&gt;Node36 -->
<g id="edge67" class="edge">
<title>Node1&#45;&gt;Node36</title>
<path fill="none" stroke="#191970" d="M2477.2523,-309.1833C2552.7149,-297.3633 2655.0572,-280.1466 2744.5001,-261 2750.1786,-259.7844 2756.1132,-258.4046 2761.9806,-256.973"/>
<polygon fill="#191970" stroke="#191970" points="2762.8821,-260.3554 2771.7348,-254.5347 2761.1845,-253.5644 2762.8821,-260.3554"/>
</g>
<!-- Node37 -->
<g id="node37" class="node">
<title>Node37</title>
<polygon fill="none" stroke="#bfbfbf" points="2882.0001,-234.5 2882.0001,-254.5 3017.0001,-254.5 3017.0001,-234.5 2882.0001,-234.5"/>
<text text-anchor="middle" x="2949.5001" y="-241.5" font-family="FreeSans" font-size="10.00" fill="#000000">Geant4/G4StepPoint.hh</text>
</g>
<!-- Node1&#45;&gt;Node37 -->
<g id="edge68" class="edge">
<title>Node1&#45;&gt;Node37</title>
<path fill="none" stroke="#191970" d="M2477.2403,-314.1754C2579.8013,-302.9552 2737.0197,-284.1256 2872.5001,-261 2879.9965,-259.7204 2887.8705,-258.2179 2895.6042,-256.6497"/>
<polygon fill="#191970" stroke="#191970" points="2896.5674,-260.0244 2905.6465,-254.5636 2895.1436,-253.1707 2896.5674,-260.0244"/>
</g>
<!-- Node38 -->
<g id="node38" class="node">
<title>Node38</title>
<polygon fill="none" stroke="#bfbfbf" points="3035.5001,-234.5 3035.5001,-254.5 3177.5001,-254.5 3177.5001,-234.5 3035.5001,-234.5"/>
<text text-anchor="middle" x="3106.5001" y="-241.5" font-family="FreeSans" font-size="10.00" fill="#000000">Geant4/G4StepStatus.hh</text>
</g>
<!-- Node1&#45;&gt;Node38 -->
<g id="edge69" class="edge">
<title>Node1&#45;&gt;Node38</title>
<path fill="none" stroke="#191970" d="M2477.2566,-318.3272C2608.415,-308.933 2834.2772,-290.1463 3026.5001,-261 3034.8645,-259.7317 3043.6748,-258.1585 3052.2691,-256.4914"/>
<polygon fill="#191970" stroke="#191970" points="3053.0985,-259.895 3062.2191,-254.5038 3051.7272,-253.0306 3053.0985,-259.895"/>
</g>
<!-- Node39 -->
<g id="node39" class="node">
<title>Node39</title>
<polygon fill="none" stroke="#bfbfbf" points="3196.0001,-234.5 3196.0001,-254.5 3313.0001,-254.5 3313.0001,-234.5 3196.0001,-234.5"/>
<text text-anchor="middle" x="3254.5001" y="-241.5" font-family="FreeSans" font-size="10.00" fill="#000000">Geant4/G4String.hh</text>
</g>
<!-- Node1&#45;&gt;Node39 -->
<g id="edge70" class="edge">
<title>Node1&#45;&gt;Node39</title>
<path fill="none" stroke="#191970" d="M2477.1165,-322.417C2634.8439,-316.7263 2934.5654,-301.2228 3186.5001,-261 3193.3511,-259.9062 3200.5294,-258.4793 3207.5482,-256.9223"/>
<polygon fill="#191970" stroke="#191970" points="3208.7128,-260.245 3217.6606,-254.5717 3207.1279,-253.4268 3208.7128,-260.245"/>
</g>
<!-- Node40 -->
<g id="node40" class="node">
<title>Node40</title>
<polygon fill="none" stroke="#bfbfbf" points="3331.5001,-234.5 3331.5001,-254.5 3493.5001,-254.5 3493.5001,-234.5 3331.5001,-234.5"/>
<text text-anchor="middle" x="3412.5001" y="-241.5" font-family="FreeSans" font-size="10.00" fill="#000000">Geant4/G4SystemOfUnits.hh</text>
</g>
<!-- Node1&#45;&gt;Node40 -->
<g id="edge71" class="edge">
<title>Node1&#45;&gt;Node40</title>
<path fill="none" stroke="#191970" d="M2477.0958,-322.156C2655.0507,-315.8164 3017.6549,-299.1129 3322.5001,-261 3332.5488,-259.7437 3343.1739,-258.0898 3353.4653,-256.3144"/>
<polygon fill="#191970" stroke="#191970" points="3354.3796,-259.7068 3363.6116,-254.5086 3353.153,-252.8151 3354.3796,-259.7068"/>
</g>
<!-- Node41 -->
<g id="node41" class="node">
<title>Node41</title>
<polygon fill="none" stroke="#bfbfbf" points="3512.0001,-234.5 3512.0001,-254.5 3659.0001,-254.5 3659.0001,-234.5 3512.0001,-234.5"/>
<text text-anchor="middle" x="3585.5001" y="-241.5" font-family="FreeSans" font-size="10.00" fill="#000000">Geant4/G4ThreeVector.hh</text>
</g>
<!-- Node1&#45;&gt;Node41 -->
<g id="edge72" class="edge">
<title>Node1&#45;&gt;Node41</title>
<path fill="none" stroke="#191970" d="M2477.1334,-324.3418C2680.2091,-321.0724 3128.2975,-308.5915 3502.5001,-261 3511.7047,-259.8294 3521.4193,-258.2321 3530.832,-256.4899"/>
<polygon fill="#191970" stroke="#191970" points="3531.7298,-259.8815 3540.8889,-254.556 3530.4079,-253.0074 3531.7298,-259.8815"/>
</g>
<!-- Node42 -->
<g id="node42" class="node">
<title>Node42</title>
<polygon fill="none" stroke="#bfbfbf" points="3677.0001,-234.5 3677.0001,-254.5 3790.0001,-254.5 3790.0001,-234.5 3677.0001,-234.5"/>
<text text-anchor="middle" x="3733.5001" y="-241.5" font-family="FreeSans" font-size="10.00" fill="#000000">Geant4/G4Track.hh</text>
</g>
<!-- Node1&#45;&gt;Node42 -->
<g id="edge74" class="edge">
<title>Node1&#45;&gt;Node42</title>
<path fill="none" stroke="#191970" d="M2477.0033,-322.876C2747.1416,-315.951 3439.9705,-295.3206 3668.5001,-261 3675.3075,-259.9777 3682.4376,-258.5474 3689.3783,-256.9523"/>
<polygon fill="#191970" stroke="#191970" points="3690.463,-260.2905 3699.352,-254.5254 3688.8079,-253.489 3690.463,-260.2905"/>
</g>
<!-- Node43 -->
<g id="node43" class="node">
<title>Node43</title>
<polygon fill="none" stroke="#bfbfbf" points="3808.0001,-234.5 3808.0001,-254.5 3953.0001,-254.5 3953.0001,-234.5 3808.0001,-234.5"/>
<text text-anchor="middle" x="3880.5001" y="-241.5" font-family="FreeSans" font-size="10.00" fill="#000000">Geant4/G4TrackStatus.hh</text>
</g>
<!-- Node1&#45;&gt;Node43 -->
<g id="edge75" class="edge">
<title>Node1&#45;&gt;Node43</title>
<path fill="none" stroke="#191970" d="M2477.2339,-322.7747C2766.3068,-315.2401 3544.0265,-292.5782 3799.5001,-261 3808.6,-259.8752 3818.2029,-258.2841 3827.491,-256.5295"/>
<polygon fill="#191970" stroke="#191970" points="3828.2725,-259.9429 3837.4073,-254.5758 3826.9193,-253.075 3828.2725,-259.9429"/>
</g>
<!-- Node44 -->
<g id="node44" class="node">
<title>Node44</title>
<polygon fill="none" stroke="#bfbfbf" points="3971.0001,-234.5 3971.0001,-254.5 4086.0001,-254.5 4086.0001,-234.5 3971.0001,-234.5"/>
<text text-anchor="middle" x="4028.5001" y="-241.5" font-family="FreeSans" font-size="10.00" fill="#000000">Geant4/G4Types.hh</text>
</g>
<!-- Node1&#45;&gt;Node44 -->
<g id="edge76" class="edge">
<title>Node1&#45;&gt;Node44</title>
<path fill="none" stroke="#191970" d="M2477.2558,-323.9838C2788.8641,-319.2146 3674.9793,-302.3093 3962.5001,-261 3969.4124,-260.0069 3976.6523,-258.5924 3983.6998,-257.0041"/>
<polygon fill="#191970" stroke="#191970" points="3984.9156,-260.3121 3993.8269,-254.5816 3983.287,-253.5041 3984.9156,-260.3121"/>
</g>
<!-- Node45 -->
<g id="node45" class="node">
<title>Node45</title>
<polygon fill="none" stroke="#bfbfbf" points="4104.0001,-234.5 4104.0001,-254.5 4277.0001,-254.5 4277.0001,-234.5 4104.0001,-234.5"/>
<text text-anchor="middle" x="4190.5001" y="-241.5" font-family="FreeSans" font-size="10.00" fill="#000000">Geant4/G4VPhysicalVolume.hh</text>
</g>
<!-- Node1&#45;&gt;Node45 -->
<g id="edge77" class="edge">
<title>Node1&#45;&gt;Node45</title>
<path fill="none" stroke="#191970" d="M2477.0763,-323.3426C2805.694,-316.5664 3779.6723,-294.169 4095.5001,-261 4106.8314,-259.81 4118.8527,-258.0864 4130.396,-256.1971"/>
<polygon fill="#191970" stroke="#191970" points="4131.1133,-259.6255 4140.3877,-254.5034 4129.9434,-252.724 4131.1133,-259.6255"/>
</g>
<!-- Node46 -->
<g id="node46" class="node">
<title>Node46</title>
<polygon fill="none" stroke="#bfbfbf" points="4295.0001,-234.5 4295.0001,-254.5 4440.0001,-254.5 4440.0001,-234.5 4295.0001,-234.5"/>
<text text-anchor="middle" x="4367.5001" y="-241.5" font-family="FreeSans" font-size="10.00" fill="#000000">Geant4/G4VTouchable.hh</text>
</g>
<!-- Node1&#45;&gt;Node46 -->
<g id="edge78" class="edge">
<title>Node1&#45;&gt;Node46</title>
<path fill="none" stroke="#191970" d="M2477.2147,-324.2275C2829.931,-319.7563 3932.3714,-302.7224 4286.5001,-261 4295.7109,-259.9148 4305.4332,-258.326 4314.8218,-256.5571"/>
<polygon fill="#191970" stroke="#191970" points="4315.7043,-259.9505 4324.8384,-254.5821 4314.3502,-253.0827 4315.7043,-259.9505"/>
</g>
<!-- Node47 -->
<g id="node47" class="node">
<title>Node47</title>
<polygon fill="none" stroke="#bfbfbf" points="4458.5001,-234.5 4458.5001,-254.5 4528.5001,-254.5 4528.5001,-234.5 4458.5001,-234.5"/>
<text text-anchor="middle" x="4493.5001" y="-241.5" font-family="FreeSans" font-size="10.00" fill="#000000">TSystem.h</text>
</g>
<!-- Node1&#45;&gt;Node47 -->
<g id="edge80" class="edge">
<title>Node1&#45;&gt;Node47</title>
<path fill="none" stroke="#191970" d="M2477.3377,-324.1985C2879.1637,-319.1484 4255.9194,-299.208 4449.5001,-261 4453.4395,-260.2225 4457.4906,-259.134 4461.4647,-257.8829"/>
<polygon fill="#191970" stroke="#191970" points="4462.7928,-261.1264 4471.0777,-254.5224 4460.4828,-254.5185 4462.7928,-261.1264"/>
</g>
<!-- Node48 -->
<g id="node48" class="node">
<title>Node48</title>
<polygon fill="none" stroke="#bfbfbf" points="4546.5001,-234.5 4546.5001,-254.5 4662.5001,-254.5 4662.5001,-234.5 4546.5001,-234.5"/>
<text text-anchor="middle" x="4604.5001" y="-241.5" font-family="FreeSans" font-size="10.00" fill="#000000">boost/tokenizer.hpp</text>
</g>
<!-- Node1&#45;&gt;Node48 -->
<g id="edge81" class="edge">
<title>Node1&#45;&gt;Node48</title>
<path fill="none" stroke="#191970" d="M2477.22,-323.6017C2889.5106,-316.2815 4332.9816,-288.9017 4537.5001,-261 4544.7628,-260.0092 4552.3812,-258.5494 4559.7705,-256.9014"/>
<polygon fill="#191970" stroke="#191970" points="4560.7244,-260.2725 4569.6498,-254.5639 4559.1126,-253.4605 4560.7244,-260.2725"/>
</g>
<!-- Node49 -->
<g id="node49" class="node">
<title>Node49</title>
<polygon fill="none" stroke="#bfbfbf" points="4681.0001,-234.5 4681.0001,-254.5 4788.0001,-254.5 4788.0001,-234.5 4681.0001,-234.5"/>
<text text-anchor="middle" x="4734.5001" y="-241.5" font-family="FreeSans" font-size="10.00" fill="#000000">boost/version.hpp</text>
</g>
<!-- Node1&#45;&gt;Node49 -->
<g id="edge82" class="edge">
<title>Node1&#45;&gt;Node49</title>
<path fill="none" stroke="#191970" d="M2477.3503,-323.8975C2906.0276,-317.4423 4453.4456,-292.189 4671.5001,-261 4678.1929,-260.0427 4685.1963,-258.6324 4692.0001,-257.0329"/>
<polygon fill="#191970" stroke="#191970" points="4692.9174,-260.4113 4701.7663,-254.5849 4691.2154,-253.6214 4692.9174,-260.4113"/>
</g>
<!-- Node50 -->
<g id="node50" class="node">
<title>Node50</title>
<polygon fill="none" stroke="#bfbfbf" points="4806.5001,-234.5 4806.5001,-254.5 4934.5001,-254.5 4934.5001,-234.5 4806.5001,-234.5"/>
<text text-anchor="middle" x="4870.5001" y="-241.5" font-family="FreeSans" font-size="10.00" fill="#000000">boost/lexical_cast.hpp</text>
</g>
<!-- Node1&#45;&gt;Node50 -->
<g id="edge83" class="edge">
<title>Node1&#45;&gt;Node50</title>
<path fill="none" stroke="#191970" d="M2477.2411,-323.8527C2920.4789,-317.0266 4565.938,-289.9593 4797.5001,-261 4805.6579,-259.9798 4814.2426,-258.4559 4822.5448,-256.7397"/>
<polygon fill="#191970" stroke="#191970" points="4823.4595,-260.1225 4832.4839,-254.5718 4821.9677,-253.2833 4823.4595,-260.1225"/>
</g>
<!-- Node2&#45;&gt;Node3 -->
<g id="edge2" class="edge">
<title>Node2&#45;&gt;Node3</title>
<path fill="none" stroke="#191970" d="M452.8126,-234.378C420.233,-223.6318 368.5989,-206.6007 332.7692,-194.7825"/>
<polygon fill="#191970" stroke="#191970" points="333.7045,-191.4056 323.1114,-191.5969 331.5118,-198.0533 333.7045,-191.4056"/>
</g>
<!-- Node2&#45;&gt;Node6 -->
<g id="edge5" class="edge">
<title>Node2&#45;&gt;Node6</title>
<path fill="none" stroke="#191970" d="M483.5001,-234.378C483.5001,-225.7041 483.5001,-212.9355 483.5001,-202.1186"/>
<polygon fill="#191970" stroke="#191970" points="487.0002,-201.8062 483.5001,-191.8062 480.0002,-201.8062 487.0002,-201.8062"/>
</g>
<!-- Node4 -->
<g id="node4" class="node">
<title>Node4</title>
<polygon fill="none" stroke="#bfbfbf" points="649.5001,-114.5 649.5001,-134.5 681.5001,-134.5 681.5001,-114.5 649.5001,-114.5"/>
<text text-anchor="middle" x="665.5001" y="-121.5" font-family="FreeSans" font-size="10.00" fill="#000000">set</text>
</g>
<!-- Node3&#45;&gt;Node4 -->
<g id="edge3" class="edge">
<title>Node3&#45;&gt;Node4</title>
<path fill="none" stroke="#191970" d="M376.3067,-171.4799C463.6909,-160.8605 593.3028,-144.5721 639.4541,-134.4578"/>
<polygon fill="#191970" stroke="#191970" points="640.4416,-137.8192 649.3127,-132.0267 638.7655,-131.0228 640.4416,-137.8192"/>
</g>
<!-- Node3&#45;&gt;Node5 -->
<g id="edge4" class="edge">
<title>Node3&#45;&gt;Node5</title>
<path fill="none" stroke="#191970" d="M297.2176,-171.4684C308.4772,-148.4561 339.029,-91.2239 379.5001,-57 398.9015,-40.5934 425.0738,-28.5644 445.4908,-20.8558"/>
<polygon fill="#191970" stroke="#191970" points="446.7826,-24.1105 454.9964,-17.4184 444.4022,-17.5277 446.7826,-24.1105"/>
</g>
<!-- Node7&#45;&gt;Node4 -->
<g id="edge12" class="edge">
<title>Node7&#45;&gt;Node4</title>
<path fill="none" stroke="#191970" d="M667.1425,-171.3095C666.8837,-163.9335 666.5254,-153.72 666.2094,-144.715"/>
<polygon fill="#191970" stroke="#191970" points="669.7032,-144.4733 665.8546,-134.6022 662.7075,-144.7188 669.7032,-144.4733"/>
</g>
<!-- Node7&#45;&gt;Node5 -->
<g id="edge13" class="edge">
<title>Node7&#45;&gt;Node5</title>
<path fill="none" stroke="#191970" d="M600.6213,-171.4674C527.1244,-160.1208 418.5714,-142.2786 412.5001,-135 384.2116,-101.0865 428.4881,-52.8409 456.8097,-27.519"/>
<polygon fill="#191970" stroke="#191970" points="459.3819,-29.9213 464.6452,-20.7263 454.7966,-24.6321 459.3819,-29.9213"/>
</g>
<!-- Node8 -->
<g id="node8" class="node">
<title>Node8</title>
<g id="a_node8"><a xlink:href="../../dd/dcc/PHG4Detector_8h.html" target="_top" xlink:title="g4main/PHG4Detector.h">
<polygon fill="none" stroke="#ff0000" points="493.5001,-114.5 493.5001,-134.5 631.5001,-134.5 631.5001,-114.5 493.5001,-114.5"/>
<text text-anchor="middle" x="562.5001" y="-121.5" font-family="FreeSans" font-size="10.00" fill="#000000">g4main/PHG4Detector.h</text>
</a>
</g>
</g>
<!-- Node7&#45;&gt;Node8 -->
<g id="edge7" class="edge">
<title>Node7&#45;&gt;Node8</title>
<path fill="none" stroke="#191970" d="M648.7282,-171.3095C632.3785,-162.434 608.4605,-149.4499 589.9599,-139.4068"/>
<polygon fill="#191970" stroke="#191970" points="591.5679,-136.2972 581.1095,-134.6022 588.2282,-142.4492 591.5679,-136.2972"/>
</g>
<!-- Node10 -->
<g id="node10" class="node">
<title>Node10</title>
<polygon fill="none" stroke="#bfbfbf" points="422.0001,-114.5 422.0001,-134.5 475.0001,-134.5 475.0001,-114.5 422.0001,-114.5"/>
<text text-anchor="middle" x="448.5001" y="-121.5" font-family="FreeSans" font-size="10.00" fill="#000000">cassert</text>
</g>
<!-- Node7&#45;&gt;Node10 -->
<g id="edge10" class="edge">
<title>Node7&#45;&gt;Node10</title>
<path fill="none" stroke="#191970" d="M626.3279,-171.4747C591.2724,-162.8409 539.3411,-149.8217 485.0152,-135.0763"/>
<polygon fill="#191970" stroke="#191970" points="485.7756,-131.6559 475.207,-132.4022 483.9342,-138.4094 485.7756,-131.6559"/>
</g>
<!-- Node11 -->
<g id="node11" class="node">
<title>Node11</title>
<polygon fill="none" stroke="#bfbfbf" points="840.0001,-114.5 840.0001,-134.5 879.0001,-134.5 879.0001,-114.5 840.0001,-114.5"/>
<text text-anchor="middle" x="859.5001" y="-121.5" font-family="FreeSans" font-size="10.00" fill="#000000">map</text>
</g>
<!-- Node7&#45;&gt;Node11 -->
<g id="edge11" class="edge">
<title>Node7&#45;&gt;Node11</title>
<path fill="none" stroke="#191970" d="M701.3839,-171.4408C737.7747,-160.6372 795.0346,-143.6382 829.745,-133.3335"/>
<polygon fill="#191970" stroke="#191970" points="831.1549,-136.566 839.7452,-130.3647 829.1627,-129.8555 831.1549,-136.566"/>
</g>
<!-- Node12 -->
<g id="node12" class="node">
<title>Node12</title>
<polygon fill="none" stroke="#bfbfbf" points="738.0001,-114.5 738.0001,-134.5 783.0001,-134.5 783.0001,-114.5 738.0001,-114.5"/>
<text text-anchor="middle" x="760.5001" y="-121.5" font-family="FreeSans" font-size="10.00" fill="#000000">utility</text>
</g>
<!-- Node7&#45;&gt;Node12 -->
<g id="edge14" class="edge">
<title>Node7&#45;&gt;Node12</title>
<path fill="none" stroke="#191970" d="M684.1266,-171.3095C698.2772,-162.6366 718.8285,-150.0407 735.0488,-140.0992"/>
<polygon fill="#191970" stroke="#191970" points="737.3205,-142.812 744.0175,-134.6022 733.6625,-136.8438 737.3205,-142.812"/>
</g>
<!-- Node8&#45;&gt;Node5 -->
<g id="edge9" class="edge">
<title>Node8&#45;&gt;Node5</title>
<path fill="none" stroke="#191970" d="M554.9569,-114.3833C540.6271,-95.1645 509.2857,-53.1301 491.1688,-28.8322"/>
<polygon fill="#191970" stroke="#191970" points="493.932,-26.6827 485.1486,-20.7579 488.3202,-30.8669 493.932,-26.6827"/>
</g>
<!-- Node8&#45;&gt;Node9 -->
<g id="edge8" class="edge">
<title>Node8&#45;&gt;Node9</title>
<path fill="none" stroke="#191970" d="M631.8546,-115.0876C720.4606,-103.0625 870.8916,-82.6469 942.4202,-72.9394"/>
<polygon fill="#191970" stroke="#191970" points="942.9459,-76.4002 952.3843,-71.5871 942.0044,-69.4638 942.9459,-76.4002"/>
</g>
<!-- Node14&#45;&gt;Node5 -->
<g id="edge24" class="edge">
<title>Node14&#45;&gt;Node5</title>
<path fill="none" stroke="#191970" d="M1342.4705,-171.4123C1358.7267,-157.5645 1382.7179,-132.3033 1367.5001,-114 1311.475,-46.6154 664.487,-17.6658 510.3257,-11.6984"/>
<polygon fill="#191970" stroke="#191970" points="510.2188,-8.1918 500.0927,-11.3082 509.952,-15.1868 510.2188,-8.1918"/>
</g>
<!-- Node14&#45;&gt;Node9 -->
<g id="edge23" class="edge">
<title>Node14&#45;&gt;Node9</title>
<path fill="none" stroke="#191970" d="M1322.6343,-171.2978C1311.7993,-156.0906 1289.1989,-127.7927 1262.5001,-114 1221.4628,-92.7999 1090.3726,-77.7131 1023.1295,-71.1549"/>
<polygon fill="#191970" stroke="#191970" points="1023.1974,-67.6455 1012.9092,-70.176 1022.5299,-74.6136 1023.1974,-67.6455"/>
</g>
<!-- Node14&#45;&gt;Node12 -->
<g id="edge25" class="edge">
<title>Node14&#45;&gt;Node12</title>
<path fill="none" stroke="#191970" d="M1274.4531,-175.7761C1258.9476,-174.1943 1242.0658,-172.5009 1226.5001,-171 1050.5902,-154.0383 1005.9597,-156.1167 830.5001,-135 818.3566,-133.5385 805.0745,-131.6263 793.3747,-129.8347"/>
<polygon fill="#191970" stroke="#191970" points="793.5731,-126.3234 783.153,-128.2397 792.4938,-133.2397 793.5731,-126.3234"/>
</g>
<!-- Node15 -->
<g id="node15" class="node">
<title>Node15</title>
<g id="a_node15"><a xlink:href="../../d2/d92/PHG4HitDefs_8h.html" target="_top" xlink:title="PHG4HitDefs.h">
<polygon fill="none" stroke="#000000" points="1096.0001,-114.5 1096.0001,-134.5 1187.0001,-134.5 1187.0001,-114.5 1096.0001,-114.5"/>
<text text-anchor="middle" x="1141.5001" y="-121.5" font-family="FreeSans" font-size="10.00" fill="#000000">PHG4HitDefs.h</text>
</a>
</g>
</g>
<!-- Node14&#45;&gt;Node15 -->
<g id="edge17" class="edge">
<title>Node14&#45;&gt;Node15</title>
<path fill="none" stroke="#191970" d="M1296.3222,-171.4408C1265.1412,-161.9869 1218.3126,-147.7889 1184.3244,-137.484"/>
<polygon fill="#191970" stroke="#191970" points="1185.2473,-134.1065 1174.6619,-134.5544 1183.2162,-140.8054 1185.2473,-134.1065"/>
</g>
<!-- Node16 -->
<g id="node16" class="node">
<title>Node16</title>
<g id="a_node16"><a xlink:href="../../df/d32/PHObject_8h.html" target="_top" xlink:title="phool/PHObject.h">
<polygon fill="none" stroke="#ff0000" points="897.5001,-114.5 897.5001,-134.5 1001.5001,-134.5 1001.5001,-114.5 897.5001,-114.5"/>
<text text-anchor="middle" x="949.5001" y="-121.5" font-family="FreeSans" font-size="10.00" fill="#000000">phool/PHObject.h</text>
</a>
</g>
</g>
<!-- Node14&#45;&gt;Node16 -->
<g id="edge19" class="edge">
<title>Node14&#45;&gt;Node16</title>
<path fill="none" stroke="#191970" d="M1274.2448,-173.2117C1204.4529,-162.7429 1084.6864,-144.7779 1011.7384,-133.8357"/>
<polygon fill="#191970" stroke="#191970" points="1012.1745,-130.3621 1001.7659,-132.3399 1011.136,-137.2846 1012.1745,-130.3621"/>
</g>
<!-- Node17 -->
<g id="node17" class="node">
<title>Node17</title>
<polygon fill="none" stroke="#bfbfbf" points="1205.5001,-114.5 1205.5001,-134.5 1253.5001,-134.5 1253.5001,-114.5 1205.5001,-114.5"/>
<text text-anchor="middle" x="1229.5001" y="-121.5" font-family="FreeSans" font-size="10.00" fill="#000000">cmath</text>
</g>
<!-- Node14&#45;&gt;Node17 -->
<g id="edge21" class="edge">
<title>Node14&#45;&gt;Node17</title>
<path fill="none" stroke="#191970" d="M1311.6221,-171.3095C1296.2642,-162.5556 1273.8946,-149.8049 1256.3793,-139.8211"/>
<polygon fill="#191970" stroke="#191970" points="1257.6443,-136.5136 1247.2233,-134.6022 1254.1779,-142.595 1257.6443,-136.5136"/>
</g>
<!-- Node18 -->
<g id="node18" class="node">
<title>Node18</title>
<polygon fill="none" stroke="#bfbfbf" points="1310.0001,-114.5 1310.0001,-134.5 1359.0001,-134.5 1359.0001,-114.5 1310.0001,-114.5"/>
<text text-anchor="middle" x="1334.5001" y="-121.5" font-family="FreeSans" font-size="10.00" fill="#000000">climits</text>
</g>
<!-- Node14&#45;&gt;Node18 -->
<g id="edge22" class="edge">
<title>Node14&#45;&gt;Node18</title>
<path fill="none" stroke="#191970" d="M1330.394,-171.3095C1331.041,-163.9335 1331.9369,-153.72 1332.7269,-144.715"/>
<polygon fill="#191970" stroke="#191970" points="1336.2266,-144.8699 1333.6139,-134.6022 1329.2534,-144.2581 1336.2266,-144.8699"/>
</g>
<!-- Node15&#45;&gt;Node5 -->
<g id="edge18" class="edge">
<title>Node15&#45;&gt;Node5</title>
<path fill="none" stroke="#191970" d="M1127.9897,-114.3056C1106.6616,-98.8371 1063.3041,-69.8779 1021.5001,-57 925.0405,-27.2852 612.5995,-14.8294 510.2755,-11.4813"/>
<polygon fill="#191970" stroke="#191970" points="510.3271,-7.9812 500.2203,-11.1597 510.1033,-14.9777 510.3271,-7.9812"/>
</g>
<!-- Node16&#45;&gt;Node9 -->
<g id="edge20" class="edge">
<title>Node16&#45;&gt;Node9</title>
<path fill="none" stroke="#191970" d="M955.3998,-114.3095C959.8579,-106.6093 966.1063,-95.8166 971.4799,-86.5349"/>
<polygon fill="#191970" stroke="#191970" points="974.67,-88.0102 976.6514,-77.6022 968.612,-84.5029 974.67,-88.0102"/>
</g>
<!-- Node19&#45;&gt;Node4 -->
<g id="edge31" class="edge">
<title>Node19&#45;&gt;Node4</title>
<path fill="none" stroke="#191970" d="M810.4842,-171.4606C780.426,-162.2415 734.8639,-148.0687 695.5001,-135 694.0926,-134.5327 692.6501,-134.0478 691.1953,-133.5542"/>
<polygon fill="#191970" stroke="#191970" points="692.2544,-130.2172 681.6596,-130.2631 689.9705,-136.8342 692.2544,-130.2172"/>
</g>
<!-- Node19&#45;&gt;Node5 -->
<g id="edge32" class="edge">
<title>Node19&#45;&gt;Node5</title>
<path fill="none" stroke="#191970" d="M815.6785,-171.3305C792.1334,-162.4691 757.6637,-148.8923 728.5001,-135 711.0794,-126.7015 707.6283,-122.8865 690.5001,-114 626.3409,-80.713 549.8496,-44.3331 508.2225,-24.807"/>
<polygon fill="#191970" stroke="#191970" points="509.6924,-21.6306 499.1518,-20.5602 506.7243,-27.9702 509.6924,-21.6306"/>
</g>
<!-- Node19&#45;&gt;Node9 -->
<g id="edge29" class="edge">
<title>Node19&#45;&gt;Node9</title>
<path fill="none" stroke="#191970" d="M837.0963,-171.2756C829.0861,-157.0399 817.8659,-131.0772 830.5001,-114 843.9285,-95.8492 902.2921,-81.9038 942.6602,-74.2035"/>
<polygon fill="#191970" stroke="#191970" points="943.302,-77.6442 952.4973,-72.3815 942.0271,-70.7613 943.302,-77.6442"/>
</g>
<!-- Node19&#45;&gt;Node11 -->
<g id="edge30" class="edge">
<title>Node19&#45;&gt;Node11</title>
<path fill="none" stroke="#191970" d="M846.3606,-171.3095C848.4538,-163.8524 851.3611,-153.4951 853.9089,-144.4186"/>
<polygon fill="#191970" stroke="#191970" points="857.3315,-145.176 856.6644,-134.6022 850.592,-143.2842 857.3315,-145.176"/>
</g>
<!-- Node19&#45;&gt;Node12 -->
<g id="edge33" class="edge">
<title>Node19&#45;&gt;Node12</title>
<path fill="none" stroke="#191970" d="M828.6614,-171.3095C816.1504,-162.7177 798.0332,-150.2758 783.6216,-140.3786"/>
<polygon fill="#191970" stroke="#191970" points="785.4351,-137.3782 775.2104,-134.6022 781.4723,-143.1485 785.4351,-137.3782"/>
</g>
<!-- Node19&#45;&gt;Node15 -->
<g id="edge27" class="edge">
<title>Node19&#45;&gt;Node15</title>
<path fill="none" stroke="#191970" d="M896.0905,-171.4408C949.3044,-161.2623 1031.2693,-145.5844 1085.6289,-135.1868"/>
<polygon fill="#191970" stroke="#191970" points="1086.6157,-138.5616 1095.7801,-133.2451 1085.3006,-131.6862 1086.6157,-138.5616"/>
</g>
<!-- Node19&#45;&gt;Node16 -->
<g id="edge28" class="edge">
<title>Node19&#45;&gt;Node16</title>
<path fill="none" stroke="#191970" d="M862.4508,-171.3095C878.9562,-162.434 903.102,-149.4499 921.7787,-139.4068"/>
<polygon fill="#191970" stroke="#191970" points="923.5637,-142.4209 930.7135,-134.6022 920.2485,-136.2557 923.5637,-142.4209"/>
</g>
<!-- Node20&#45;&gt;Node9 -->
<g id="edge38" class="edge">
<title>Node20&#45;&gt;Node9</title>
<path fill="none" stroke="#191970" d="M1213.6259,-234.4766C1173.0412,-205.1562 1054.294,-119.3675 1004.6825,-83.5257"/>
<polygon fill="#191970" stroke="#191970" points="1006.6814,-80.652 996.5258,-77.6329 1002.5821,-86.3261 1006.6814,-80.652"/>
</g>
<!-- Node20&#45;&gt;Node11 -->
<g id="edge39" class="edge">
<title>Node20&#45;&gt;Node11</title>
<path fill="none" stroke="#191970" d="M1166.3585,-238.1642C1112.9719,-231.2147 1034.136,-217.4847 969.5001,-192 960.48,-188.4436 913.3685,-158.8371 883.8001,-140.0339"/>
<polygon fill="#191970" stroke="#191970" points="885.563,-137.0071 875.2485,-134.5861 881.8019,-142.9109 885.563,-137.0071"/>
</g>
<!-- Node20&#45;&gt;Node14 -->
<g id="edge35" class="edge">
<title>Node20&#45;&gt;Node14</title>
<path fill="none" stroke="#191970" d="M1243.8882,-234.378C1260.2458,-224.2747 1285.5979,-208.6161 1304.4742,-196.9572"/>
<polygon fill="#191970" stroke="#191970" points="1306.4839,-199.8297 1313.1527,-191.5969 1302.8055,-193.8741 1306.4839,-199.8297"/>
</g>
<!-- Node20&#45;&gt;Node15 -->
<g id="edge36" class="edge">
<title>Node20&#45;&gt;Node15</title>
<path fill="none" stroke="#191970" d="M1230.4206,-234.1159C1234.0291,-219.0221 1238.3478,-190.6797 1226.5001,-171 1217.5912,-156.2019 1202.153,-145.7937 1186.857,-138.6346"/>
<polygon fill="#191970" stroke="#191970" points="1187.9813,-135.3086 1177.4111,-134.5867 1185.224,-141.7427 1187.9813,-135.3086"/>
</g>
<!-- Node21 -->
<g id="node21" class="node">
<title>Node21</title>
<polygon fill="none" stroke="#bfbfbf" points="1167.0001,-171.5 1167.0001,-191.5 1218.0001,-191.5 1218.0001,-171.5 1167.0001,-171.5"/>
<text text-anchor="middle" x="1192.5001" y="-178.5" font-family="FreeSans" font-size="10.00" fill="#000000">cstdint</text>
</g>
<!-- Node20&#45;&gt;Node21 -->
<g id="edge37" class="edge">
<title>Node20&#45;&gt;Node21</title>
<path fill="none" stroke="#191970" d="M1221.8767,-234.378C1216.855,-225.3389 1209.3629,-211.853 1203.2018,-200.7631"/>
<polygon fill="#191970" stroke="#191970" points="1206.1418,-198.848 1198.2258,-191.8062 1200.0227,-202.2476 1206.1418,-198.848"/>
</g>
<!-- Node22&#45;&gt;Node4 -->
<g id="edge46" class="edge">
<title>Node22&#45;&gt;Node4</title>
<path fill="none" stroke="#191970" d="M978.4745,-172.1576C914.5064,-163.0181 814.7814,-148.5371 728.5001,-135 716.3801,-133.0984 702.9688,-130.8793 691.6461,-128.9722"/>
<polygon fill="#191970" stroke="#191970" points="691.9849,-125.4798 681.5407,-127.26 690.8155,-132.3815 691.9849,-125.4798"/>
</g>
<!-- Node22&#45;&gt;Node9 -->
<g id="edge44" class="edge">
<title>Node22&#45;&gt;Node9</title>
<path fill="none" stroke="#191970" d="M1039.6653,-171.3128C1033.2746,-157.9888 1021.5321,-133.9891 1010.5001,-114 1005.4053,-104.7686 999.4151,-94.7238 994.2856,-86.3401"/>
<polygon fill="#191970" stroke="#191970" points="997.1881,-84.3788 988.9535,-77.7123 991.2335,-88.0589 997.1881,-84.3788"/>
</g>
<!-- Node22&#45;&gt;Node11 -->
<g id="edge45" class="edge">
<title>Node22&#45;&gt;Node11</title>
<path fill="none" stroke="#191970" d="M1008.6918,-171.4624C978.9998,-162.9981 935.4905,-150.2712 888.7951,-134.9693"/>
<polygon fill="#191970" stroke="#191970" points="889.6954,-131.5808 879.1022,-131.7706 887.5017,-138.2282 889.6954,-131.5808"/>
</g>
<!-- Node22&#45;&gt;Node15 -->
<g id="edge41" class="edge">
<title>Node22&#45;&gt;Node15</title>
<path fill="none" stroke="#191970" d="M1061.8418,-171.3095C1076.7389,-162.5556 1098.4374,-149.8049 1115.4273,-139.8211"/>
<polygon fill="#191970" stroke="#191970" points="1117.4602,-142.6862 1124.3086,-134.6022 1113.9137,-136.651 1117.4602,-142.6862"/>
</g>
<!-- Node22&#45;&gt;Node16 -->
<g id="edge42" class="edge">
<title>Node22&#45;&gt;Node16</title>
<path fill="none" stroke="#191970" d="M1027.516,-171.3095C1012.926,-162.5556 991.6749,-149.8049 975.0353,-139.8211"/>
<polygon fill="#191970" stroke="#191970" points="976.7128,-136.746 966.3372,-134.6022 973.1113,-142.7485 976.7128,-136.746"/>
</g>
<!-- Node22&#45;&gt;Node17 -->
<g id="edge43" class="edge">
<title>Node22&#45;&gt;Node17</title>
<path fill="none" stroke="#191970" d="M1077.198,-171.439C1107.7842,-162.0259 1154.7404,-147.5697 1195.5001,-135 1195.5997,-134.9693 1195.6995,-134.9385 1195.7994,-134.9077"/>
<polygon fill="#191970" stroke="#191970" points="1196.8314,-138.2522 1205.3549,-131.9592 1194.7674,-131.5634 1196.8314,-138.2522"/>
</g>
<!-- Node23&#45;&gt;Node24 -->
<g id="edge49" class="edge">
<title>Node23&#45;&gt;Node24</title>
<path fill="none" stroke="#191970" d="M1722.292,-234.378C1700.546,-223.9992 1666.5165,-207.7578 1641.9071,-196.0124"/>
<polygon fill="#191970" stroke="#191970" points="1643.1879,-192.7456 1632.6555,-191.5969 1640.1728,-199.063 1643.1879,-192.7456"/>
</g>
<!-- Node25 -->
<g id="node25" class="node">
<title>Node25</title>
<polygon fill="none" stroke="#bfbfbf" points="1806.0001,-171.5 1806.0001,-191.5 1907.0001,-191.5 1907.0001,-171.5 1806.0001,-171.5"/>
<text text-anchor="middle" x="1856.5001" y="-178.5" font-family="FreeSans" font-size="10.00" fill="#000000">Geant4/G4ios.hh</text>
</g>
<!-- Node23&#45;&gt;Node25 -->
<g id="edge50" class="edge">
<title>Node23&#45;&gt;Node25</title>
<path fill="none" stroke="#191970" d="M1761.6555,-234.378C1780.0243,-224.137 1808.6312,-208.188 1829.6267,-196.4825"/>
<polygon fill="#191970" stroke="#191970" points="1831.3598,-199.5235 1838.3897,-191.5969 1827.9511,-193.4095 1831.3598,-199.5235"/>
</g>
<!-- Node26 -->
<g id="node26" class="node">
<title>Node26</title>
<polygon fill="none" stroke="#bfbfbf" points="1731.0001,-171.5 1731.0001,-191.5 1788.0001,-191.5 1788.0001,-171.5 1731.0001,-171.5"/>
<text text-anchor="middle" x="1759.5001" y="-178.5" font-family="FreeSans" font-size="10.00" fill="#000000">ostream</text>
</g>
<!-- Node23&#45;&gt;Node26 -->
<g id="edge51" class="edge">
<title>Node23&#45;&gt;Node26</title>
<path fill="none" stroke="#191970" d="M1746.0708,-234.378C1748.2969,-225.6128 1751.5849,-212.6662 1754.3502,-201.7777"/>
<polygon fill="#191970" stroke="#191970" points="1757.8133,-202.3601 1756.8826,-191.8062 1751.0287,-200.637 1757.8133,-202.3601"/>
</g>
<!-- Node27&#45;&gt;Node5 -->
<g id="edge61" class="edge">
<title>Node27&#45;&gt;Node5</title>
<path fill="none" stroke="#191970" d="M90.3119,-237.9162C44.0487,-229.2984 -14.8753,-210.3801 3.5001,-171 36.8506,-99.527 67.3931,-88.9566 139.5001,-57 193.8248,-32.9242 370.605,-18.0246 444.5312,-12.7059"/>
<polygon fill="#191970" stroke="#191970" points="444.9365,-16.1861 454.6652,-11.9907 444.4436,-9.2035 444.9365,-16.1861"/>
</g>
<!-- Node28 -->
<g id="node28" class="node">
<title>Node28</title>
<g id="a_node28"><a xlink:href="../../dd/d9b/PHDataNode_8h.html" target="_top" xlink:title="PHDataNode.h">
<polygon fill="none" stroke="#000000" points="169.0001,-114.5 169.0001,-134.5 258.0001,-134.5 258.0001,-114.5 169.0001,-114.5"/>
<text text-anchor="middle" x="213.5001" y="-121.5" font-family="FreeSans" font-size="10.00" fill="#000000">PHDataNode.h</text>
</a>
</g>
</g>
<!-- Node27&#45;&gt;Node28 -->
<g id="edge53" class="edge">
<title>Node27&#45;&gt;Node28</title>
<path fill="none" stroke="#191970" d="M146.724,-234.2689C158.9534,-214.1657 186.2849,-169.2372 201.9257,-143.5264"/>
<polygon fill="#191970" stroke="#191970" points="205.0848,-145.0677 207.2919,-134.7052 199.1045,-141.4296 205.0848,-145.0677"/>
</g>
<!-- Node29 -->
<g id="node29" class="node">
<title>Node29</title>
<g id="a_node29"><a xlink:href="../../d3/d62/PHNode_8h.html" target="_top" xlink:title="PHNode.h">
<polygon fill="none" stroke="#ff0000" points="181.0001,-57.5 181.0001,-77.5 246.0001,-77.5 246.0001,-57.5 181.0001,-57.5"/>
<text text-anchor="middle" x="213.5001" y="-64.5" font-family="FreeSans" font-size="10.00" fill="#000000">PHNode.h</text>
</a>
</g>
</g>
<!-- Node27&#45;&gt;Node29 -->
<g id="edge60" class="edge">
<title>Node27&#45;&gt;Node29</title>
<path fill="none" stroke="#191970" d="M139.6655,-234.2598C138.2598,-211.2102 137.4574,-154.1356 159.5001,-114 166.2202,-101.764 177.5071,-91.2807 188.0295,-83.3821"/>
<polygon fill="#191970" stroke="#191970" points="190.0479,-86.2416 196.2025,-77.6177 186.0133,-80.5212 190.0479,-86.2416"/>
</g>
<!-- Node30 -->
<g id="node30" class="node">
<title>Node30</title>
<g id="a_node30"><a xlink:href="../../d3/d79/PHIODataNode_8h.html" target="_top" xlink:title="PHIODataNode.h">
<polygon fill="none" stroke="#ff0000" points="12.5001,-171.5 12.5001,-191.5 112.5001,-191.5 112.5001,-171.5 12.5001,-171.5"/>
<text text-anchor="middle" x="62.5001" y="-178.5" font-family="FreeSans" font-size="10.00" fill="#000000">PHIODataNode.h</text>
</a>
</g>
</g>
<!-- Node27&#45;&gt;Node30 -->
<g id="edge57" class="edge">
<title>Node27&#45;&gt;Node30</title>
<path fill="none" stroke="#191970" d="M127.968,-234.378C115.8004,-224.5503 97.1247,-209.4661 82.8294,-197.9198"/>
<polygon fill="#191970" stroke="#191970" points="84.9797,-195.1575 75.001,-191.5969 80.5813,-200.6031 84.9797,-195.1575"/>
</g>
<!-- Node28&#45;&gt;Node9 -->
<g id="edge56" class="edge">
<title>Node28&#45;&gt;Node9</title>
<path fill="none" stroke="#191970" d="M258.1687,-121.1891C395.6494,-110.9987 811.0567,-80.2078 942.3029,-70.4795"/>
<polygon fill="#191970" stroke="#191970" points="942.6156,-73.966 952.3294,-69.7363 942.0981,-66.9852 942.6156,-73.966"/>
</g>
<!-- Node28&#45;&gt;Node29 -->
<g id="edge54" class="edge">
<title>Node28&#45;&gt;Node29</title>
<path fill="none" stroke="#191970" d="M213.5001,-114.3095C213.5001,-106.9335 213.5001,-96.72 213.5001,-87.715"/>
<polygon fill="#191970" stroke="#191970" points="217.0002,-87.6022 213.5001,-77.6022 210.0002,-87.6023 217.0002,-87.6022"/>
</g>
<!-- Node29&#45;&gt;Node5 -->
<g id="edge55" class="edge">
<title>Node29&#45;&gt;Node5</title>
<path fill="none" stroke="#191970" d="M246.1365,-60.4535C296.8816,-49.4972 394.1294,-28.5005 444.8704,-17.545"/>
<polygon fill="#191970" stroke="#191970" points="445.9226,-20.8986 454.9586,-15.3669 444.4452,-14.0563 445.9226,-20.8986"/>
</g>
<!-- Node30&#45;&gt;Node5 -->
<g id="edge59" class="edge">
<title>Node30&#45;&gt;Node5</title>
<path fill="none" stroke="#191970" d="M68.0051,-171.3039C81.7843,-146.8887 120.3564,-85.0227 171.5001,-57 218.1328,-31.449 375.551,-17.6128 444.5883,-12.6493"/>
<polygon fill="#191970" stroke="#191970" points="445.148,-16.1187 454.879,-11.9284 444.6588,-9.1359 445.148,-16.1187"/>
</g>
<!-- Node30&#45;&gt;Node28 -->
<g id="edge58" class="edge">
<title>Node30&#45;&gt;Node28</title>
<path fill="none" stroke="#191970" d="M89.1483,-171.4408C113.6552,-162.1898 150.1964,-148.3961 177.3325,-138.1527"/>
<polygon fill="#191970" stroke="#191970" points="178.7452,-141.3605 186.8648,-134.5544 176.2731,-134.8116 178.7452,-141.3605"/>
</g>
</g>
</svg>
