<?xml version="1.0" encoding="UTF-8" standalone="no"?>
<!DOCTYPE svg PUBLIC "-//W3C//DTD SVG 1.1//EN"
 "http://www.w3.org/Graphics/SVG/1.1/DTD/svg11.dtd">
<!-- Generated by graphviz version 2.40.1 (20161225.0304)
 -->
<!-- Title: PHG4Prototype2HcalCellReco Pages: 1 -->
<svg width="1139pt" height="357pt"
 viewBox="0.00 0.00 1139.00 357.00" xmlns="http://www.w3.org/2000/svg" xmlns:xlink="http://www.w3.org/1999/xlink">
<g id="graph0" class="graph" transform="scale(1 1) rotate(0) translate(4 353)">
<title>PHG4Prototype2HcalCellReco</title>
<!-- Node1 -->
<g id="node1" class="node">
<title>Node1</title>
<polygon fill="#bfbfbf" stroke="#000000" points="966,-271.5 966,-291.5 1131,-291.5 1131,-271.5 966,-271.5"/>
<text text-anchor="middle" x="1048.5" y="-278.5" font-family="FreeSans" font-size="10.00" fill="#000000">PHG4Prototype2HcalCellReco</text>
</g>
<!-- Node2 -->
<g id="node2" class="node">
<title>Node2</title>
<g id="a_node2"><a xlink:href="../../d0/d32/classSubsysReco.html" target="_top" xlink:title="SubsysReco">
<polygon fill="none" stroke="#000000" points="708,-328.5 708,-348.5 784,-348.5 784,-328.5 708,-328.5"/>
<text text-anchor="middle" x="746" y="-335.5" font-family="FreeSans" font-size="10.00" fill="#000000">SubsysReco</text>
</a>
</g>
</g>
<!-- Node2&#45;&gt;Node1 -->
<g id="edge1" class="edge">
<title>Node2&#45;&gt;Node1</title>
<path fill="none" stroke="#191970" d="M794.1711,-329.4231C849.0681,-319.0789 938.5242,-302.2227 995.3964,-291.5063"/>
<polygon fill="#191970" stroke="#191970" points="793.1845,-326.0474 784.0055,-331.3386 794.4807,-332.9263 793.1845,-326.0474"/>
</g>
<!-- Node3 -->
<g id="node3" class="node">
<title>Node3</title>
<g id="a_node3"><a xlink:href="../../d5/dec/classFun4AllBase.html" target="_top" xlink:title="Fun4AllBase">
<polygon fill="none" stroke="#000000" points="462,-328.5 462,-348.5 540,-348.5 540,-328.5 462,-328.5"/>
<text text-anchor="middle" x="501" y="-335.5" font-family="FreeSans" font-size="10.00" fill="#000000">Fun4AllBase</text>
</a>
</g>
</g>
<!-- Node3&#45;&gt;Node2 -->
<g id="edge2" class="edge">
<title>Node3&#45;&gt;Node2</title>
<path fill="none" stroke="#191970" d="M550.233,-338.5C596.7032,-338.5 665.4102,-338.5 707.8538,-338.5"/>
<polygon fill="#191970" stroke="#191970" points="550.0919,-335.0001 540.0919,-338.5 550.0919,-342.0001 550.0919,-335.0001"/>
</g>
<!-- Node4 -->
<g id="node4" class="node">
<title>Node4</title>
<g id="a_node4"><a xlink:title="STL class.">
<polygon fill="none" stroke="#bfbfbf" points="144,-177.5 144,-197.5 211,-197.5 211,-177.5 144,-177.5"/>
<text text-anchor="middle" x="177.5" y="-184.5" font-family="FreeSans" font-size="10.00" fill="#000000">std::string</text>
</a>
</g>
</g>
<!-- Node4&#45;&gt;Node1 -->
<g id="edge19" class="edge">
<title>Node4&#45;&gt;Node1</title>
<path fill="none" stroke="#9a32cd" stroke-dasharray="5,2" d="M196.9801,-203.8467C231.1195,-230.7715 304.9955,-281.5 377,-281.5 377,-281.5 377,-281.5 865.5,-281.5 898.224,-281.5 934.2395,-281.5 965.6005,-281.5"/>
<polygon fill="#9a32cd" stroke="#9a32cd" points="199.1638,-201.1114 189.182,-197.5596 194.7702,-206.5609 199.1638,-201.1114"/>
<text text-anchor="middle" x="627.5" y="-308.5" font-family="FreeSans" font-size="10.00" fill="#000000"> m_Detector</text>
<text text-anchor="middle" x="627.5" y="-296.5" font-family="FreeSans" font-size="10.00" fill="#000000">m_CellNodeName</text>
<text text-anchor="middle" x="627.5" y="-284.5" font-family="FreeSans" font-size="10.00" fill="#000000">m_HitNodeName</text>
</g>
<!-- Node4&#45;&gt;Node3 -->
<g id="edge3" class="edge">
<title>Node4&#45;&gt;Node3</title>
<path fill="none" stroke="#9a32cd" stroke-dasharray="5,2" d="M181.1916,-207.6021C186.8749,-232.445 200.2751,-274.0543 229,-295.5 297.9572,-346.9827 404.416,-347.3264 461.5484,-342.9931"/>
<polygon fill="#9a32cd" stroke="#9a32cd" points="184.5543,-206.5808 179.096,-197.5002 177.7003,-208.0027 184.5543,-206.5808"/>
<text text-anchor="middle" x="264" y="-330.5" font-family="FreeSans" font-size="10.00" fill="#000000"> m_ThisName</text>
</g>
<!-- Node7 -->
<g id="node7" class="node">
<title>Node7</title>
<polygon fill="none" stroke="#bfbfbf" points="318,-197.5 318,-229.5 436,-229.5 436,-197.5 318,-197.5"/>
<text text-anchor="start" x="326" y="-216.5" font-family="FreeSans" font-size="10.00" fill="#000000">std::map&lt; const std</text>
<text text-anchor="middle" x="377" y="-204.5" font-family="FreeSans" font-size="10.00" fill="#000000">::string, double &gt;</text>
</g>
<!-- Node4&#45;&gt;Node7 -->
<g id="edge7" class="edge">
<title>Node4&#45;&gt;Node7</title>
<path fill="none" stroke="#9a32cd" stroke-dasharray="5,2" d="M221.3583,-193.2159C249.7132,-196.9112 286.9653,-201.7661 317.9153,-205.7997"/>
<polygon fill="#9a32cd" stroke="#9a32cd" points="221.7109,-189.7323 211.3425,-191.9105 220.8063,-196.6736 221.7109,-189.7323"/>
<text text-anchor="middle" x="264" y="-206.5" font-family="FreeSans" font-size="10.00" fill="#000000"> keys</text>
</g>
<!-- Node8 -->
<g id="node8" class="node">
<title>Node8</title>
<polygon fill="none" stroke="#bfbfbf" points="318,-146.5 318,-178.5 436,-178.5 436,-146.5 318,-146.5"/>
<text text-anchor="start" x="326" y="-165.5" font-family="FreeSans" font-size="10.00" fill="#000000">std::map&lt; const std</text>
<text text-anchor="middle" x="377" y="-153.5" font-family="FreeSans" font-size="10.00" fill="#000000">::string, int &gt;</text>
</g>
<!-- Node4&#45;&gt;Node8 -->
<g id="edge9" class="edge">
<title>Node4&#45;&gt;Node8</title>
<path fill="none" stroke="#9a32cd" stroke-dasharray="5,2" d="M215.3338,-174.6209C219.8987,-173.402 224.5276,-172.3184 229,-171.5 257.9931,-166.1948 290.6579,-163.8348 317.9099,-162.8468"/>
<polygon fill="#9a32cd" stroke="#9a32cd" points="214.1631,-171.3159 205.5278,-177.4545 216.1064,-178.0407 214.1631,-171.3159"/>
<text text-anchor="middle" x="264" y="-174.5" font-family="FreeSans" font-size="10.00" fill="#000000"> keys</text>
</g>
<!-- Node9 -->
<g id="node9" class="node">
<title>Node9</title>
<g id="a_node9"><a xlink:href="../../dd/dae/classPHParameters.html" target="_top" xlink:title="PHParameters">
<polygon fill="none" stroke="#000000" points="584,-97.5 584,-117.5 671,-117.5 671,-97.5 584,-97.5"/>
<text text-anchor="middle" x="627.5" y="-104.5" font-family="FreeSans" font-size="10.00" fill="#000000">PHParameters</text>
</a>
</g>
</g>
<!-- Node4&#45;&gt;Node9 -->
<g id="edge17" class="edge">
<title>Node4&#45;&gt;Node9</title>
<path fill="none" stroke="#9a32cd" stroke-dasharray="5,2" d="M202.7416,-172.3977C229.887,-157.0604 274.8435,-134.225 317,-124.5 410.243,-102.9899 523.2181,-103.1166 583.9009,-105.2299"/>
<polygon fill="#9a32cd" stroke="#9a32cd" points="200.8381,-169.4549 193.9165,-177.4762 204.3296,-175.522 200.8381,-169.4549"/>
<text text-anchor="middle" x="377" y="-127.5" font-family="FreeSans" font-size="10.00" fill="#000000"> m_Detector</text>
</g>
<!-- Node12 -->
<g id="node12" class="node">
<title>Node12</title>
<polygon fill="none" stroke="#bfbfbf" points="317,-.5 317,-32.5 437,-32.5 437,-.5 317,-.5"/>
<text text-anchor="start" x="325" y="-19.5" font-family="FreeSans" font-size="10.00" fill="#000000">std::map&lt; const std</text>
<text text-anchor="middle" x="377" y="-7.5" font-family="FreeSans" font-size="10.00" fill="#000000">::string, std::string &gt;</text>
</g>
<!-- Node4&#45;&gt;Node12 -->
<g id="edge16" class="edge">
<title>Node4&#45;&gt;Node12</title>
<path fill="none" stroke="#9a32cd" stroke-dasharray="5,2" d="M181.2815,-167.3613C187.1385,-141.5321 200.8038,-96.9259 229,-70.5 253.0477,-47.962 287.2479,-34.6771 316.7148,-26.928"/>
<polygon fill="#9a32cd" stroke="#9a32cd" points="177.8507,-166.6689 179.2299,-177.1736 184.7025,-168.1016 177.8507,-166.6689"/>
<text text-anchor="middle" x="264" y="-85.5" font-family="FreeSans" font-size="10.00" fill="#000000"> keys</text>
<text text-anchor="middle" x="264" y="-73.5" font-family="FreeSans" font-size="10.00" fill="#000000">elements</text>
</g>
<!-- Node5 -->
<g id="node5" class="node">
<title>Node5</title>
<g id="a_node5"><a xlink:title="STL class.">
<polygon fill="none" stroke="#bfbfbf" points="0,-171.5 0,-203.5 107,-203.5 107,-171.5 0,-171.5"/>
<text text-anchor="start" x="8" y="-190.5" font-family="FreeSans" font-size="10.00" fill="#000000">std::basic_string&lt;</text>
<text text-anchor="middle" x="53.5" y="-178.5" font-family="FreeSans" font-size="10.00" fill="#000000"> char &gt;</text>
</a>
</g>
</g>
<!-- Node5&#45;&gt;Node4 -->
<g id="edge4" class="edge">
<title>Node5&#45;&gt;Node4</title>
<path fill="none" stroke="#191970" d="M117.4289,-187.5C126.5342,-187.5 135.584,-187.5 143.7918,-187.5"/>
<polygon fill="#191970" stroke="#191970" points="117.167,-184.0001 107.167,-187.5 117.167,-191.0001 117.167,-184.0001"/>
</g>
<!-- Node6 -->
<g id="node6" class="node">
<title>Node6</title>
<g id="a_node6"><a xlink:href="../../d4/d31/classPHParameterInterface.html" target="_top" xlink:title="PHParameterInterface">
<polygon fill="none" stroke="#000000" points="802,-151.5 802,-171.5 929,-171.5 929,-151.5 802,-151.5"/>
<text text-anchor="middle" x="865.5" y="-158.5" font-family="FreeSans" font-size="10.00" fill="#000000">PHParameterInterface</text>
</a>
</g>
</g>
<!-- Node6&#45;&gt;Node1 -->
<g id="edge5" class="edge">
<title>Node6&#45;&gt;Node1</title>
<path fill="none" stroke="#191970" d="M889.226,-177.058C927.3402,-202.0509 1001.1622,-250.4588 1033.1271,-271.4194"/>
<polygon fill="#191970" stroke="#191970" points="891.0694,-174.0815 880.7877,-171.5247 887.2309,-179.9352 891.0694,-174.0815"/>
</g>
<!-- Node7&#45;&gt;Node6 -->
<g id="edge6" class="edge">
<title>Node7&#45;&gt;Node6</title>
<path fill="none" stroke="#9a32cd" stroke-dasharray="5,2" d="M446.4081,-213.7389C510.0281,-213.1663 606.7099,-210.3015 690,-199.5 738.2288,-193.2454 792.8486,-180.5028 828.1611,-171.502"/>
<polygon fill="#9a32cd" stroke="#9a32cd" points="446.0725,-210.2411 436.0983,-213.8141 446.1236,-217.2409 446.0725,-210.2411"/>
<text text-anchor="middle" x="627.5" y="-225.5" font-family="FreeSans" font-size="10.00" fill="#000000"> m_DoubleParMap</text>
<text text-anchor="middle" x="627.5" y="-213.5" font-family="FreeSans" font-size="10.00" fill="#000000">m_DefaultDoubleParMap</text>
</g>
<!-- Node7&#45;&gt;Node9 -->
<g id="edge13" class="edge">
<title>Node7&#45;&gt;Node9</title>
<path fill="none" stroke="#9a32cd" stroke-dasharray="5,2" d="M431.1284,-193.9184C464.7838,-181.3911 508.7765,-164.3747 547,-147.5 568.4149,-138.0459 592.3717,-125.9379 608.5394,-117.5319"/>
<polygon fill="#9a32cd" stroke="#9a32cd" points="429.641,-190.7369 421.4794,-197.4926 432.0725,-197.3011 429.641,-190.7369"/>
<text text-anchor="middle" x="501" y="-188.5" font-family="FreeSans" font-size="10.00" fill="#000000"> m_DoubleParMap</text>
</g>
<!-- Node8&#45;&gt;Node6 -->
<g id="edge8" class="edge">
<title>Node8&#45;&gt;Node6</title>
<path fill="none" stroke="#9a32cd" stroke-dasharray="5,2" d="M442.3891,-180.5277C446.6354,-181.3069 450.8651,-181.9783 455,-182.5 495.5673,-187.6182 506.8122,-190.0393 547,-182.5 555.4365,-180.9173 556.6026,-177.2786 565,-175.5 645.3441,-158.4825 740.3667,-157.0889 801.7201,-158.5459"/>
<polygon fill="#9a32cd" stroke="#9a32cd" points="442.9819,-177.0769 432.4877,-178.5337 441.5999,-183.9391 442.9819,-177.0769"/>
<text text-anchor="middle" x="627.5" y="-190.5" font-family="FreeSans" font-size="10.00" fill="#000000"> m_IntParMap</text>
<text text-anchor="middle" x="627.5" y="-178.5" font-family="FreeSans" font-size="10.00" fill="#000000">m_DefaultIntParMap</text>
</g>
<!-- Node8&#45;&gt;Node9 -->
<g id="edge14" class="edge">
<title>Node8&#45;&gt;Node9</title>
<path fill="none" stroke="#9a32cd" stroke-dasharray="5,2" d="M428.7511,-143.1942C437.4386,-140.3559 446.4189,-137.6645 455,-135.5 498.2452,-124.5921 548.7039,-116.9789 583.8328,-112.4732"/>
<polygon fill="#9a32cd" stroke="#9a32cd" points="427.4654,-139.9339 419.104,-146.4407 429.6981,-146.5683 427.4654,-139.9339"/>
<text text-anchor="middle" x="501" y="-138.5" font-family="FreeSans" font-size="10.00" fill="#000000"> m_IntParMap</text>
</g>
<!-- Node9&#45;&gt;Node6 -->
<g id="edge10" class="edge">
<title>Node9&#45;&gt;Node6</title>
<path fill="none" stroke="#9a32cd" stroke-dasharray="5,2" d="M680.9786,-115.2777C711.389,-120.1461 750.0611,-127.0892 784,-135.5 801.8756,-139.9299 821.5557,-146.1685 837.0982,-151.4242"/>
<polygon fill="#9a32cd" stroke="#9a32cd" points="681.4237,-111.8048 671.0011,-113.7071 680.3352,-118.7196 681.4237,-111.8048"/>
<text text-anchor="middle" x="746" y="-138.5" font-family="FreeSans" font-size="10.00" fill="#000000"> m_Params</text>
</g>
<!-- Node10 -->
<g id="node10" class="node">
<title>Node10</title>
<g id="a_node10"><a xlink:href="../../d9/d24/classPHObject.html" target="_top" xlink:title="PHObject">
<polygon fill="none" stroke="#000000" points="345.5,-51.5 345.5,-71.5 408.5,-71.5 408.5,-51.5 345.5,-51.5"/>
<text text-anchor="middle" x="377" y="-58.5" font-family="FreeSans" font-size="10.00" fill="#000000">PHObject</text>
</a>
</g>
</g>
<!-- Node10&#45;&gt;Node9 -->
<g id="edge11" class="edge">
<title>Node10&#45;&gt;Node9</title>
<path fill="none" stroke="#191970" d="M418.88,-68.1753C453.3397,-73.7804 503.4232,-82.1852 547,-90.5 558.9262,-92.7756 571.8073,-95.4142 583.6945,-97.9239"/>
<polygon fill="#191970" stroke="#191970" points="419.1427,-64.6723 408.7118,-66.5288 418.0237,-71.5823 419.1427,-64.6723"/>
</g>
<!-- Node11 -->
<g id="node11" class="node">
<title>Node11</title>
<polygon fill="none" stroke="#bfbfbf" points="149,-51.5 149,-71.5 206,-71.5 206,-51.5 149,-51.5"/>
<text text-anchor="middle" x="177.5" y="-58.5" font-family="FreeSans" font-size="10.00" fill="#000000">TObject</text>
</g>
<!-- Node11&#45;&gt;Node10 -->
<g id="edge12" class="edge">
<title>Node11&#45;&gt;Node10</title>
<path fill="none" stroke="#191970" d="M216.1488,-61.5C253.7221,-61.5 310.1089,-61.5 345.1715,-61.5"/>
<polygon fill="#191970" stroke="#191970" points="216.0835,-58.0001 206.0835,-61.5 216.0835,-65.0001 216.0835,-58.0001"/>
</g>
<!-- Node12&#45;&gt;Node6 -->
<g id="edge18" class="edge">
<title>Node12&#45;&gt;Node6</title>
<path fill="none" stroke="#9a32cd" stroke-dasharray="5,2" d="M447.2373,-19.9951C477.9802,-22.1141 514.4013,-25.4236 547,-30.5 611.4491,-40.5363 629.1419,-40.0328 690,-63.5 753.1671,-87.8576 821.3827,-131.5776 850.7195,-151.3258"/>
<polygon fill="#9a32cd" stroke="#9a32cd" points="447.2519,-16.4886 437.0428,-19.3213 446.7902,-23.4733 447.2519,-16.4886"/>
<text text-anchor="middle" x="627.5" y="-78.5" font-family="FreeSans" font-size="10.00" fill="#000000"> m_DefaultStringParMap</text>
<text text-anchor="middle" x="627.5" y="-66.5" font-family="FreeSans" font-size="10.00" fill="#000000">m_StringParMap</text>
</g>
<!-- Node12&#45;&gt;Node9 -->
<g id="edge15" class="edge">
<title>Node12&#45;&gt;Node9</title>
<path fill="none" stroke="#9a32cd" stroke-dasharray="5,2" d="M447.294,-29.4768C478.5055,-36.4504 515.276,-46.3591 547,-59.5 571.654,-69.7123 597.7573,-86.5393 613.335,-97.3148"/>
<polygon fill="#9a32cd" stroke="#9a32cd" points="447.885,-26.0235 437.3692,-27.3154 446.3954,-32.8632 447.885,-26.0235"/>
<text text-anchor="middle" x="501" y="-62.5" font-family="FreeSans" font-size="10.00" fill="#000000"> m_StringParMap</text>
</g>
</g>
</svg>
