<?xml version="1.0" encoding="UTF-8" standalone="no"?>
<!DOCTYPE svg PUBLIC "-//W3C//DTD SVG 1.1//EN"
 "http://www.w3.org/Graphics/SVG/1.1/DTD/svg11.dtd">
<!-- Generated by graphviz version 2.40.1 (20161225.0304)
 -->
<!-- Title: analysis/blob/master/Prototype2/EMCal/macros/SetOKStyle.C Pages: 1 -->
<svg width="1677pt" height="146pt"
 viewBox="0.00 0.00 1677.00 146.00" xmlns="http://www.w3.org/2000/svg" xmlns:xlink="http://www.w3.org/1999/xlink">
<g id="graph0" class="graph" transform="scale(1 1) rotate(0) translate(4 142)">
<title>analysis/blob/master/Prototype2/EMCal/macros/SetOKStyle.C</title>
<!-- Node1 -->
<g id="node1" class="node">
<title>Node1</title>
<polygon fill="#bfbfbf" stroke="#000000" points="750,-93.5 750,-137.5 900,-137.5 900,-93.5 750,-93.5"/>
<text text-anchor="start" x="758" y="-124.5" font-family="FreeSans" font-size="10.00" fill="#000000">analysis/blob/master</text>
<text text-anchor="start" x="758" y="-112.5" font-family="FreeSans" font-size="10.00" fill="#000000">/Prototype2/EMCal/macros</text>
<text text-anchor="middle" x="825" y="-100.5" font-family="FreeSans" font-size="10.00" fill="#000000">/SetOKStyle.C</text>
</g>
<!-- Node2 -->
<g id="node2" class="node">
<title>Node2</title>
<g id="a_node2"><a xlink:href="../../d5/d00/Prototype2_2EMCal_2macros_2DrawEMCalTower_8C.html" target="_top" xlink:title="analysis/blob/master\l/Prototype2/EMCal/macros\l/DrawEMCalTower.C">
<polygon fill="none" stroke="#000000" points="0,-6.5 0,-50.5 150,-50.5 150,-6.5 0,-6.5"/>
<text text-anchor="start" x="8" y="-37.5" font-family="FreeSans" font-size="10.00" fill="#000000">analysis/blob/master</text>
<text text-anchor="start" x="8" y="-25.5" font-family="FreeSans" font-size="10.00" fill="#000000">/Prototype2/EMCal/macros</text>
<text text-anchor="middle" x="75" y="-13.5" font-family="FreeSans" font-size="10.00" fill="#000000">/DrawEMCalTower.C</text>
</a>
</g>
</g>
<!-- Node1&#45;&gt;Node2 -->
<g id="edge1" class="edge">
<title>Node1&#45;&gt;Node2</title>
<path fill="none" stroke="#191970" d="M739.5335,-110.5485C585.5847,-101.2045 267.6038,-79.848 159,-57 150.8622,-55.288 142.42,-53.0301 134.1639,-50.5329"/>
<polygon fill="#191970" stroke="#191970" points="739.6882,-114.0641 749.8811,-111.1734 740.1103,-107.0768 739.6882,-114.0641"/>
</g>
<!-- Node3 -->
<g id="node3" class="node">
<title>Node3</title>
<g id="a_node3"><a xlink:href="../../d0/dc2/Prototype2_2EMCal_2macros_2DrawEMCalTower__LineShape_8C.html" target="_top" xlink:title="analysis/blob/master\l/Prototype2/EMCal/macros\l/DrawEMCalTower_LineShape.C">
<polygon fill="none" stroke="#000000" points="168.5,-6.5 168.5,-50.5 343.5,-50.5 343.5,-6.5 168.5,-6.5"/>
<text text-anchor="start" x="176.5" y="-37.5" font-family="FreeSans" font-size="10.00" fill="#000000">analysis/blob/master</text>
<text text-anchor="start" x="176.5" y="-25.5" font-family="FreeSans" font-size="10.00" fill="#000000">/Prototype2/EMCal/macros</text>
<text text-anchor="middle" x="256" y="-13.5" font-family="FreeSans" font-size="10.00" fill="#000000">/DrawEMCalTower_LineShape.C</text>
</a>
</g>
</g>
<!-- Node1&#45;&gt;Node3 -->
<g id="edge2" class="edge">
<title>Node1&#45;&gt;Node3</title>
<path fill="none" stroke="#191970" d="M739.6648,-109.2248C644.4084,-101.2313 486.0268,-84.9817 352,-57 343.2354,-55.1702 334.112,-52.9231 325.129,-50.5008"/>
<polygon fill="#191970" stroke="#191970" points="739.567,-112.7286 749.8218,-110.0658 740.1448,-105.7524 739.567,-112.7286"/>
</g>
<!-- Node4 -->
<g id="node4" class="node">
<title>Node4</title>
<g id="a_node4"><a xlink:href="../../d9/de3/Prototype2_2EMCal_2macros_2DrawEMCalTower__Resolution_8C.html" target="_top" xlink:title="analysis/blob/master\l/Prototype2/EMCal/macros\l/DrawEMCalTower_Resolution.C">
<polygon fill="none" stroke="#000000" points="361.5,-6.5 361.5,-50.5 536.5,-50.5 536.5,-6.5 361.5,-6.5"/>
<text text-anchor="start" x="369.5" y="-37.5" font-family="FreeSans" font-size="10.00" fill="#000000">analysis/blob/master</text>
<text text-anchor="start" x="369.5" y="-25.5" font-family="FreeSans" font-size="10.00" fill="#000000">/Prototype2/EMCal/macros</text>
<text text-anchor="middle" x="449" y="-13.5" font-family="FreeSans" font-size="10.00" fill="#000000">/DrawEMCalTower_Resolution.C</text>
</a>
</g>
</g>
<!-- Node1&#45;&gt;Node4 -->
<g id="edge3" class="edge">
<title>Node1&#45;&gt;Node4</title>
<path fill="none" stroke="#191970" d="M739.9152,-99.6208C684.2039,-88.7578 609.9548,-73.3974 545,-57 537.1616,-55.0212 529.0034,-52.821 520.9001,-50.5451"/>
<polygon fill="#191970" stroke="#191970" points="739.2599,-103.0589 749.7436,-101.5281 740.5935,-96.1871 739.2599,-103.0589"/>
</g>
<!-- Node5 -->
<g id="node5" class="node">
<title>Node5</title>
<g id="a_node5"><a xlink:href="../../d6/d60/DrawPrototype2EMCalTower_8C.html" target="_top" xlink:title="analysis/blob/master\l/Prototype2/EMCal/macros\l/DrawPrototype2EMCalTower.C">
<polygon fill="none" stroke="#000000" points="554.5,-6.5 554.5,-50.5 725.5,-50.5 725.5,-6.5 554.5,-6.5"/>
<text text-anchor="start" x="562.5" y="-37.5" font-family="FreeSans" font-size="10.00" fill="#000000">analysis/blob/master</text>
<text text-anchor="start" x="562.5" y="-25.5" font-family="FreeSans" font-size="10.00" fill="#000000">/Prototype2/EMCal/macros</text>
<text text-anchor="middle" x="640" y="-13.5" font-family="FreeSans" font-size="10.00" fill="#000000">/DrawPrototype2EMCalTower.C</text>
</a>
</g>
</g>
<!-- Node1&#45;&gt;Node5 -->
<g id="edge4" class="edge">
<title>Node1&#45;&gt;Node5</title>
<path fill="none" stroke="#191970" d="M768.463,-88.9123C742.4113,-76.661 711.8518,-62.2898 687.0759,-50.6384"/>
<polygon fill="#191970" stroke="#191970" points="767.2992,-92.2327 777.838,-93.3211 770.2782,-85.8982 767.2992,-92.2327"/>
</g>
<!-- Node6 -->
<g id="node6" class="node">
<title>Node6</title>
<g id="a_node6"><a xlink:href="../../d3/d8e/DrawPrototype2EMCalTower__Resolution_8C.html" target="_top" xlink:title="analysis/blob/master\l/Prototype2/EMCal/macros\l/DrawPrototype2EMCalTower\l_Resolution.C">
<polygon fill="none" stroke="#000000" points="743.5,-.5 743.5,-56.5 906.5,-56.5 906.5,-.5 743.5,-.5"/>
<text text-anchor="start" x="751.5" y="-43.5" font-family="FreeSans" font-size="10.00" fill="#000000">analysis/blob/master</text>
<text text-anchor="start" x="751.5" y="-31.5" font-family="FreeSans" font-size="10.00" fill="#000000">/Prototype2/EMCal/macros</text>
<text text-anchor="start" x="751.5" y="-19.5" font-family="FreeSans" font-size="10.00" fill="#000000">/DrawPrototype2EMCalTower</text>
<text text-anchor="middle" x="825" y="-7.5" font-family="FreeSans" font-size="10.00" fill="#000000">_Resolution.C</text>
</a>
</g>
</g>
<!-- Node1&#45;&gt;Node6 -->
<g id="edge5" class="edge">
<title>Node1&#45;&gt;Node6</title>
<path fill="none" stroke="#191970" d="M825,-82.986C825,-74.3663 825,-65.1307 825,-56.7577"/>
<polygon fill="#191970" stroke="#191970" points="821.5001,-83.0953 825,-93.0953 828.5001,-83.0954 821.5001,-83.0953"/>
</g>
<!-- Node7 -->
<g id="node7" class="node">
<title>Node7</title>
<g id="a_node7"><a xlink:href="../../de/d8e/DrawPrototype2EMCalTower__ResolutionRecalib_8C.html" target="_top" xlink:title="analysis/blob/master\l/Prototype2/EMCal/macros\l/DrawPrototype2EMCalTower\l_ResolutionRecalib.C">
<polygon fill="none" stroke="#000000" points="924.5,-.5 924.5,-56.5 1087.5,-56.5 1087.5,-.5 924.5,-.5"/>
<text text-anchor="start" x="932.5" y="-43.5" font-family="FreeSans" font-size="10.00" fill="#000000">analysis/blob/master</text>
<text text-anchor="start" x="932.5" y="-31.5" font-family="FreeSans" font-size="10.00" fill="#000000">/Prototype2/EMCal/macros</text>
<text text-anchor="start" x="932.5" y="-19.5" font-family="FreeSans" font-size="10.00" fill="#000000">/DrawPrototype2EMCalTower</text>
<text text-anchor="middle" x="1006" y="-7.5" font-family="FreeSans" font-size="10.00" fill="#000000">_ResolutionRecalib.C</text>
</a>
</g>
</g>
<!-- Node1&#45;&gt;Node7 -->
<g id="edge6" class="edge">
<title>Node1&#45;&gt;Node7</title>
<path fill="none" stroke="#191970" d="M880.3739,-88.8838C901.6656,-78.6497 926.0276,-66.9398 947.5957,-56.5728"/>
<polygon fill="#191970" stroke="#191970" points="878.6389,-85.8344 871.1423,-93.3211 881.6715,-92.1434 878.6389,-85.8344"/>
</g>
<!-- Node8 -->
<g id="node8" class="node">
<title>Node8</title>
<g id="a_node8"><a xlink:href="../../dc/d3f/DrawPrototype2ShowerCalib_8C.html" target="_top" xlink:title="analysis/blob/master\l/Prototype2/EMCal/macros\l/DrawPrototype2ShowerCalib.C">
<polygon fill="none" stroke="#000000" points="1105.5,-6.5 1105.5,-50.5 1280.5,-50.5 1280.5,-6.5 1105.5,-6.5"/>
<text text-anchor="start" x="1113.5" y="-37.5" font-family="FreeSans" font-size="10.00" fill="#000000">analysis/blob/master</text>
<text text-anchor="start" x="1113.5" y="-25.5" font-family="FreeSans" font-size="10.00" fill="#000000">/Prototype2/EMCal/macros</text>
<text text-anchor="middle" x="1193" y="-13.5" font-family="FreeSans" font-size="10.00" fill="#000000">/DrawPrototype2ShowerCalib.C</text>
</a>
</g>
</g>
<!-- Node1&#45;&gt;Node8 -->
<g id="edge7" class="edge">
<title>Node1&#45;&gt;Node8</title>
<path fill="none" stroke="#191970" d="M909.9622,-98.973C963.802,-88.0697 1034.7712,-72.904 1097,-57 1104.7483,-55.0197 1112.8117,-52.8309 1120.8268,-50.5725"/>
<polygon fill="#191970" stroke="#191970" points="909.2254,-95.5511 900.1144,-100.9585 910.6089,-102.413 909.2254,-95.5511"/>
</g>
<!-- Node9 -->
<g id="node9" class="node">
<title>Node9</title>
<g id="a_node9"><a xlink:href="../../d7/d9e/DrawPrototype2ShowerCalib__Sum_8C.html" target="_top" xlink:title="analysis/blob/master\l/Prototype2/EMCal/macros\l/DrawPrototype2ShowerCalib_Sum.C">
<polygon fill="none" stroke="#000000" points="1298.5,-6.5 1298.5,-50.5 1501.5,-50.5 1501.5,-6.5 1298.5,-6.5"/>
<text text-anchor="start" x="1306.5" y="-37.5" font-family="FreeSans" font-size="10.00" fill="#000000">analysis/blob/master</text>
<text text-anchor="start" x="1306.5" y="-25.5" font-family="FreeSans" font-size="10.00" fill="#000000">/Prototype2/EMCal/macros</text>
<text text-anchor="middle" x="1400" y="-13.5" font-family="FreeSans" font-size="10.00" fill="#000000">/DrawPrototype2ShowerCalib_Sum.C</text>
</a>
</g>
</g>
<!-- Node1&#45;&gt;Node9 -->
<g id="edge8" class="edge">
<title>Node1&#45;&gt;Node9</title>
<path fill="none" stroke="#191970" d="M910.3572,-108.0773C1004.018,-99.1634 1158.5409,-82.1912 1290,-57 1299.6876,-55.1436 1309.7872,-52.9251 1319.7682,-50.5569"/>
<polygon fill="#191970" stroke="#191970" points="909.9926,-104.5961 900.3654,-109.0196 910.6499,-111.5651 909.9926,-104.5961"/>
</g>
<!-- Node10 -->
<g id="node10" class="node">
<title>Node10</title>
<g id="a_node10"><a xlink:href="../../d4/d76/FitVerticalScan_8C.html" target="_top" xlink:title="analysis/blob/master\l/Prototype2/EMCal/macros\l/FitVerticalScan.C">
<polygon fill="none" stroke="#000000" points="1519,-6.5 1519,-50.5 1669,-50.5 1669,-6.5 1519,-6.5"/>
<text text-anchor="start" x="1527" y="-37.5" font-family="FreeSans" font-size="10.00" fill="#000000">analysis/blob/master</text>
<text text-anchor="start" x="1527" y="-25.5" font-family="FreeSans" font-size="10.00" fill="#000000">/Prototype2/EMCal/macros</text>
<text text-anchor="middle" x="1594" y="-13.5" font-family="FreeSans" font-size="10.00" fill="#000000">/FitVerticalScan.C</text>
</a>
</g>
</g>
<!-- Node1&#45;&gt;Node10 -->
<g id="edge9" class="edge">
<title>Node1&#45;&gt;Node10</title>
<path fill="none" stroke="#191970" d="M910.1497,-110.8571C1067.6095,-101.8373 1398.4887,-80.7358 1511,-57 1519.05,-55.3017 1527.397,-53.0518 1535.5574,-50.5586"/>
<polygon fill="#191970" stroke="#191970" points="909.8176,-107.3702 900.033,-111.4336 910.216,-114.3589 909.8176,-107.3702"/>
</g>
</g>
</svg>
