<?xml version="1.0" encoding="UTF-8" standalone="no"?>
<!DOCTYPE svg PUBLIC "-//W3C//DTD SVG 1.1//EN"
 "http://www.w3.org/Graphics/SVG/1.1/DTD/svg11.dtd">
<!-- Generated by graphviz version 2.40.1 (20161225.0304)
 -->
<!-- Title: JetRecoEval::get_node_pointers Pages: 1 -->
<svg width="620pt" height="99pt"
 viewBox="0.00 0.00 620.00 99.00" xmlns="http://www.w3.org/2000/svg" xmlns:xlink="http://www.w3.org/1999/xlink">
<g id="graph0" class="graph" transform="scale(1 1) rotate(0) translate(4 95)">
<title>JetRecoEval::get_node_pointers</title>
<!-- Node1 -->
<g id="node1" class="node">
<title>Node1</title>
<polygon fill="#bfbfbf" stroke="#000000" points="0,-44.5 0,-76.5 130,-76.5 130,-44.5 0,-44.5"/>
<text text-anchor="start" x="8" y="-63.5" font-family="FreeSans" font-size="10.00" fill="#000000">JetRecoEval::get_node</text>
<text text-anchor="middle" x="65" y="-51.5" font-family="FreeSans" font-size="10.00" fill="#000000">_pointers</text>
</g>
<!-- Node2 -->
<g id="node2" class="node">
<title>Node2</title>
<g id="a_node2"><a xlink:href="../../dd/d75/classJetRecoEval.html#af5367f6ea964bcfe0e64ce2965e404e8" target="_top" xlink:title="JetRecoEval::JetRecoEval">
<polygon fill="none" stroke="#000000" points="166,-70.5 166,-90.5 307,-90.5 307,-70.5 166,-70.5"/>
<text text-anchor="middle" x="236.5" y="-77.5" font-family="FreeSans" font-size="10.00" fill="#000000">JetRecoEval::JetRecoEval</text>
</a>
</g>
</g>
<!-- Node1&#45;&gt;Node2 -->
<g id="edge1" class="edge">
<title>Node1&#45;&gt;Node2</title>
<path fill="none" stroke="#191970" d="M140.5341,-69.3086C148.9758,-70.2931 157.5514,-71.2932 165.9275,-72.27"/>
<polygon fill="#191970" stroke="#191970" points="140.6642,-65.8002 130.326,-68.1182 139.8533,-72.7531 140.6642,-65.8002"/>
</g>
<!-- Node3 -->
<g id="node3" class="node">
<title>Node3</title>
<g id="a_node3"><a xlink:href="../../dd/d75/classJetRecoEval.html#ae02e058aa7f403d5853482b5d06c01c9" target="_top" xlink:title="reinitialize the eval for a new event">
<polygon fill="none" stroke="#000000" points="166.5,-31.5 166.5,-51.5 306.5,-51.5 306.5,-31.5 166.5,-31.5"/>
<text text-anchor="middle" x="236.5" y="-38.5" font-family="FreeSans" font-size="10.00" fill="#000000">JetRecoEval::next_event</text>
</a>
</g>
</g>
<!-- Node1&#45;&gt;Node3 -->
<g id="edge2" class="edge">
<title>Node1&#45;&gt;Node3</title>
<path fill="none" stroke="#191970" d="M140.3373,-52.1536C148.939,-51.2006 157.6825,-50.232 166.2147,-49.2867"/>
<polygon fill="#191970" stroke="#191970" points="139.8798,-48.6828 130.326,-53.2627 140.6507,-55.6402 139.8798,-48.6828"/>
</g>
<!-- Node4 -->
<g id="node4" class="node">
<title>Node4</title>
<g id="a_node4"><a xlink:href="../../dd/df3/classJetEvalStack.html#ab85ba05ab4fea5909c8faa238ba5f8e6" target="_top" xlink:title="JetEvalStack::next\l_event">
<polygon fill="none" stroke="#000000" points="343,-25.5 343,-57.5 452,-57.5 452,-25.5 343,-25.5"/>
<text text-anchor="start" x="351" y="-44.5" font-family="FreeSans" font-size="10.00" fill="#000000">JetEvalStack::next</text>
<text text-anchor="middle" x="397.5" y="-32.5" font-family="FreeSans" font-size="10.00" fill="#000000">_event</text>
</a>
</g>
</g>
<!-- Node3&#45;&gt;Node4 -->
<g id="edge3" class="edge">
<title>Node3&#45;&gt;Node4</title>
<path fill="none" stroke="#191970" d="M316.8513,-41.5C325.5643,-41.5 334.2796,-41.5 342.5889,-41.5"/>
<polygon fill="#191970" stroke="#191970" points="316.6486,-38.0001 306.6486,-41.5 316.6486,-45.0001 316.6486,-38.0001"/>
</g>
<!-- Node5 -->
<g id="node5" class="node">
<title>Node5</title>
<g id="a_node5"><a xlink:href="../../d1/df4/classJetEvaluator.html#ad83508ae828d1f2e4a83a948465a0cd2" target="_top" xlink:title="JetEvaluator::process\l_event">
<polygon fill="none" stroke="#000000" points="488,-51.5 488,-83.5 612,-83.5 612,-51.5 488,-51.5"/>
<text text-anchor="start" x="496" y="-70.5" font-family="FreeSans" font-size="10.00" fill="#000000">JetEvaluator::process</text>
<text text-anchor="middle" x="550" y="-58.5" font-family="FreeSans" font-size="10.00" fill="#000000">_event</text>
</a>
</g>
</g>
<!-- Node4&#45;&gt;Node5 -->
<g id="edge4" class="edge">
<title>Node4&#45;&gt;Node5</title>
<path fill="none" stroke="#191970" d="M462.079,-52.5102C470.66,-53.9732 479.443,-55.4706 487.9793,-56.926"/>
<polygon fill="#191970" stroke="#191970" points="462.5713,-49.0437 452.1253,-50.8132 461.3948,-55.9441 462.5713,-49.0437"/>
</g>
<!-- Node6 -->
<g id="node6" class="node">
<title>Node6</title>
<g id="a_node6"><a xlink:href="../../d8/de2/classJetEnergies.html#a6acaa9b2ba1fe7353781d2f5d476e8d1" target="_top" xlink:title="JetEnergies::process\l_event">
<polygon fill="none" stroke="#000000" points="490,-.5 490,-32.5 610,-32.5 610,-.5 490,-.5"/>
<text text-anchor="start" x="498" y="-19.5" font-family="FreeSans" font-size="10.00" fill="#000000">JetEnergies::process</text>
<text text-anchor="middle" x="550" y="-7.5" font-family="FreeSans" font-size="10.00" fill="#000000">_event</text>
</a>
</g>
</g>
<!-- Node4&#45;&gt;Node6 -->
<g id="edge5" class="edge">
<title>Node4&#45;&gt;Node6</title>
<path fill="none" stroke="#191970" d="M462.009,-30.9248C471.2267,-29.4137 480.6788,-27.8641 489.8092,-26.3673"/>
<polygon fill="#191970" stroke="#191970" points="461.4273,-27.4733 452.1253,-32.545 462.5598,-34.3811 461.4273,-27.4733"/>
</g>
</g>
</svg>
