<?xml version="1.0" encoding="UTF-8" standalone="no"?>
<!DOCTYPE svg PUBLIC "-//W3C//DTD SVG 1.1//EN"
 "http://www.w3.org/Graphics/SVG/1.1/DTD/svg11.dtd">
<!-- Generated by graphviz version 2.40.1 (20161225.0304)
 -->
<!-- Title: JetRecoEval::next_event Pages: 1 -->
<svg width="1658pt" height="194pt"
 viewBox="0.00 0.00 1658.00 194.00" xmlns="http://www.w3.org/2000/svg" xmlns:xlink="http://www.w3.org/1999/xlink">
<g id="graph0" class="graph" transform="scale(1 1) rotate(0) translate(4 190)">
<title>JetRecoEval::next_event</title>
<!-- Node1 -->
<g id="node1" class="node">
<title>Node1</title>
<polygon fill="#bfbfbf" stroke="#000000" points="0,-82.5 0,-102.5 140,-102.5 140,-82.5 0,-82.5"/>
<text text-anchor="middle" x="70" y="-89.5" font-family="FreeSans" font-size="10.00" fill="#000000">JetRecoEval::next_event</text>
</g>
<!-- Node2 -->
<g id="node2" class="node">
<title>Node2</title>
<g id="a_node2"><a xlink:href="../../dd/d75/classJetRecoEval.html#a5eb493cf14ecf561963da1a9356547b9" target="_top" xlink:title="JetRecoEval::get_node\l_pointers">
<polygon fill="none" stroke="#000000" points="176,-102.5 176,-134.5 306,-134.5 306,-102.5 176,-102.5"/>
<text text-anchor="start" x="184" y="-121.5" font-family="FreeSans" font-size="10.00" fill="#000000">JetRecoEval::get_node</text>
<text text-anchor="middle" x="241" y="-109.5" font-family="FreeSans" font-size="10.00" fill="#000000">_pointers</text>
</a>
</g>
</g>
<!-- Node1&#45;&gt;Node2 -->
<g id="edge1" class="edge">
<title>Node1&#45;&gt;Node2</title>
<path fill="none" stroke="#191970" d="M136.1131,-102.5523C145.8087,-104.0265 155.8555,-105.5541 165.7183,-107.0537"/>
<polygon fill="#191970" stroke="#191970" points="165.4948,-110.5598 175.9073,-108.6029 166.5471,-103.6394 165.4948,-110.5598"/>
</g>
<!-- Node3 -->
<g id="node3" class="node">
<title>Node3</title>
<g id="a_node3"><a xlink:href="../../d3/d22/classJetTruthEval.html#ac29b8d18ee116903ed233388eb253256" target="_top" xlink:title="reinitialize the eval for a new event">
<polygon fill="none" stroke="#000000" points="187.5,-51.5 187.5,-83.5 294.5,-83.5 294.5,-51.5 187.5,-51.5"/>
<text text-anchor="start" x="195.5" y="-70.5" font-family="FreeSans" font-size="10.00" fill="#000000">JetTruthEval::next</text>
<text text-anchor="middle" x="241" y="-58.5" font-family="FreeSans" font-size="10.00" fill="#000000">_event</text>
</a>
</g>
</g>
<!-- Node1&#45;&gt;Node3 -->
<g id="edge2" class="edge">
<title>Node1&#45;&gt;Node3</title>
<path fill="none" stroke="#191970" d="M138.5669,-82.4756C151.3975,-80.5998 164.758,-78.6465 177.4293,-76.794"/>
<polygon fill="#191970" stroke="#191970" points="178.032,-80.2431 187.4205,-75.3333 177.0193,-73.3168 178.032,-80.2431"/>
</g>
<!-- Node4 -->
<g id="node4" class="node">
<title>Node4</title>
<g id="a_node4"><a xlink:href="../../d3/ded/classSvtxEvalStack.html#a8a929a1f521c9e8596ecb1ca108281cf" target="_top" xlink:title="SvtxEvalStack::next\l_event">
<polygon fill="none" stroke="#000000" points="349,-102.5 349,-134.5 466,-134.5 466,-102.5 349,-102.5"/>
<text text-anchor="start" x="357" y="-121.5" font-family="FreeSans" font-size="10.00" fill="#000000">SvtxEvalStack::next</text>
<text text-anchor="middle" x="407.5" y="-109.5" font-family="FreeSans" font-size="10.00" fill="#000000">_event</text>
</a>
</g>
</g>
<!-- Node3&#45;&gt;Node4 -->
<g id="edge3" class="edge">
<title>Node3&#45;&gt;Node4</title>
<path fill="none" stroke="#191970" d="M293.6816,-83.6367C310.0878,-88.662 328.3333,-94.2507 345.3249,-99.4554"/>
<polygon fill="#191970" stroke="#191970" points="344.5745,-102.886 355.1611,-102.4683 346.6246,-96.1929 344.5745,-102.886"/>
</g>
<!-- Node17 -->
<g id="node17" class="node">
<title>Node17</title>
<g id="a_node17"><a xlink:href="../../db/d10/classCaloEvalStack.html#a6d60a0a1ce8c1e26075065ea725e5351" target="_top" xlink:title="CaloEvalStack::next\l_event">
<polygon fill="none" stroke="#000000" points="349,-51.5 349,-83.5 466,-83.5 466,-51.5 349,-51.5"/>
<text text-anchor="start" x="357" y="-70.5" font-family="FreeSans" font-size="10.00" fill="#000000">CaloEvalStack::next</text>
<text text-anchor="middle" x="407.5" y="-58.5" font-family="FreeSans" font-size="10.00" fill="#000000">_event</text>
</a>
</g>
</g>
<!-- Node3&#45;&gt;Node17 -->
<g id="edge16" class="edge">
<title>Node3&#45;&gt;Node17</title>
<path fill="none" stroke="#191970" d="M294.5981,-67.5C308.6559,-67.5 324.0112,-67.5 338.7419,-67.5"/>
<polygon fill="#191970" stroke="#191970" points="338.8167,-71.0001 348.8166,-67.5 338.8166,-64.0001 338.8167,-71.0001"/>
</g>
<!-- Node25 -->
<g id="node25" class="node">
<title>Node25</title>
<g id="a_node25"><a xlink:href="../../d3/d22/classJetTruthEval.html#a42ec6bf8bcdd06e7b563d8811f489e12" target="_top" xlink:title="JetTruthEval::get_node\l_pointers">
<polygon fill="none" stroke="#000000" points="342,-.5 342,-32.5 473,-32.5 473,-.5 342,-.5"/>
<text text-anchor="start" x="350" y="-19.5" font-family="FreeSans" font-size="10.00" fill="#000000">JetTruthEval::get_node</text>
<text text-anchor="middle" x="407.5" y="-7.5" font-family="FreeSans" font-size="10.00" fill="#000000">_pointers</text>
</a>
</g>
</g>
<!-- Node3&#45;&gt;Node25 -->
<g id="edge25" class="edge">
<title>Node3&#45;&gt;Node25</title>
<path fill="none" stroke="#191970" d="M293.6816,-51.3633C310.0878,-46.338 328.3333,-40.7493 345.3249,-35.5446"/>
<polygon fill="#191970" stroke="#191970" points="346.6246,-38.8071 355.1611,-32.5317 344.5745,-32.114 346.6246,-38.8071"/>
</g>
<!-- Node5 -->
<g id="node5" class="node">
<title>Node5</title>
<g id="a_node5"><a xlink:href="../../d4/d21/classSvtxVertexEval.html#ad872cdf8407f2f483af522aed6786a40" target="_top" xlink:title="SvtxVertexEval::next\l_event">
<polygon fill="none" stroke="#000000" points="509,-102.5 509,-134.5 631,-134.5 631,-102.5 509,-102.5"/>
<text text-anchor="start" x="517" y="-121.5" font-family="FreeSans" font-size="10.00" fill="#000000">SvtxVertexEval::next</text>
<text text-anchor="middle" x="570" y="-109.5" font-family="FreeSans" font-size="10.00" fill="#000000">_event</text>
</a>
</g>
</g>
<!-- Node4&#45;&gt;Node5 -->
<g id="edge4" class="edge">
<title>Node4&#45;&gt;Node5</title>
<path fill="none" stroke="#191970" d="M466.1662,-118.5C476.7069,-118.5 487.7984,-118.5 498.6507,-118.5"/>
<polygon fill="#191970" stroke="#191970" points="498.9564,-122.0001 508.9564,-118.5 498.9563,-115.0001 498.9564,-122.0001"/>
</g>
<!-- Node6 -->
<g id="node6" class="node">
<title>Node6</title>
<g id="a_node6"><a xlink:href="../../df/dad/classSvtxTrackEval.html#aff069c6fdb0f6d80147b65a98878d90f" target="_top" xlink:title="SvtxTrackEval::next\l_event">
<polygon fill="none" stroke="#000000" points="679,-153.5 679,-185.5 795,-185.5 795,-153.5 679,-153.5"/>
<text text-anchor="start" x="687" y="-172.5" font-family="FreeSans" font-size="10.00" fill="#000000">SvtxTrackEval::next</text>
<text text-anchor="middle" x="737" y="-160.5" font-family="FreeSans" font-size="10.00" fill="#000000">_event</text>
</a>
</g>
</g>
<!-- Node5&#45;&gt;Node6 -->
<g id="edge5" class="edge">
<title>Node5&#45;&gt;Node6</title>
<path fill="none" stroke="#191970" d="M622.8398,-134.6367C639.2953,-139.662 657.5955,-145.2507 674.6382,-150.4554"/>
<polygon fill="#191970" stroke="#191970" points="673.9177,-153.8948 684.5039,-153.4683 675.9622,-147.2001 673.9177,-153.8948"/>
</g>
<!-- Node16 -->
<g id="node16" class="node">
<title>Node16</title>
<g id="a_node16"><a xlink:href="../../d4/d21/classSvtxVertexEval.html#aefbe122e0d30e6cc40b953fb33fd6c03" target="_top" xlink:title="SvtxVertexEval::get\l_node_pointers">
<polygon fill="none" stroke="#000000" points="679,-102.5 679,-134.5 795,-134.5 795,-102.5 679,-102.5"/>
<text text-anchor="start" x="687" y="-121.5" font-family="FreeSans" font-size="10.00" fill="#000000">SvtxVertexEval::get</text>
<text text-anchor="middle" x="737" y="-109.5" font-family="FreeSans" font-size="10.00" fill="#000000">_node_pointers</text>
</a>
</g>
</g>
<!-- Node5&#45;&gt;Node16 -->
<g id="edge15" class="edge">
<title>Node5&#45;&gt;Node16</title>
<path fill="none" stroke="#191970" d="M631.2364,-118.5C643.3816,-118.5 656.2048,-118.5 668.5717,-118.5"/>
<polygon fill="#191970" stroke="#191970" points="668.8278,-122.0001 678.8278,-118.5 668.8277,-115.0001 668.8278,-122.0001"/>
</g>
<!-- Node7 -->
<g id="node7" class="node">
<title>Node7</title>
<g id="a_node7"><a xlink:href="../../d1/d1e/classSvtxClusterEval.html#a0f23d4c63d0e893560d423db7e02578d" target="_top" xlink:title="SvtxClusterEval::next\l_event">
<polygon fill="none" stroke="#000000" points="847.5,-153.5 847.5,-185.5 972.5,-185.5 972.5,-153.5 847.5,-153.5"/>
<text text-anchor="start" x="855.5" y="-172.5" font-family="FreeSans" font-size="10.00" fill="#000000">SvtxClusterEval::next</text>
<text text-anchor="middle" x="910" y="-160.5" font-family="FreeSans" font-size="10.00" fill="#000000">_event</text>
</a>
</g>
</g>
<!-- Node6&#45;&gt;Node7 -->
<g id="edge6" class="edge">
<title>Node6&#45;&gt;Node7</title>
<path fill="none" stroke="#191970" d="M795.0878,-169.5C808.5948,-169.5 823.1417,-169.5 837.1938,-169.5"/>
<polygon fill="#191970" stroke="#191970" points="837.3166,-173.0001 847.3166,-169.5 837.3166,-166.0001 837.3166,-173.0001"/>
</g>
<!-- Node15 -->
<g id="node15" class="node">
<title>Node15</title>
<g id="a_node15"><a xlink:href="../../df/dad/classSvtxTrackEval.html#a612fbcde3039331b7542f4c0b2fb6e52" target="_top" xlink:title="SvtxTrackEval::get\l_node_pointers">
<polygon fill="none" stroke="#000000" points="855,-102.5 855,-134.5 965,-134.5 965,-102.5 855,-102.5"/>
<text text-anchor="start" x="863" y="-121.5" font-family="FreeSans" font-size="10.00" fill="#000000">SvtxTrackEval::get</text>
<text text-anchor="middle" x="910" y="-109.5" font-family="FreeSans" font-size="10.00" fill="#000000">_node_pointers</text>
</a>
</g>
</g>
<!-- Node6&#45;&gt;Node15 -->
<g id="edge14" class="edge">
<title>Node6&#45;&gt;Node15</title>
<path fill="none" stroke="#191970" d="M791.7383,-153.3633C808.9442,-148.291 828.0972,-142.6448 845.8923,-137.3988"/>
<polygon fill="#191970" stroke="#191970" points="847.0156,-140.7166 855.6178,-134.5317 845.0362,-134.0023 847.0156,-140.7166"/>
</g>
<!-- Node8 -->
<g id="node8" class="node">
<title>Node8</title>
<g id="a_node8"><a xlink:href="../../d9/d62/classSvtxHitEval.html#a2b8bd81cd1feca366d3dec9b52f1658e" target="_top" xlink:title="SvtxHitEval::next_event">
<polygon fill="none" stroke="#000000" points="1013,-159.5 1013,-179.5 1151,-179.5 1151,-159.5 1013,-159.5"/>
<text text-anchor="middle" x="1082" y="-166.5" font-family="FreeSans" font-size="10.00" fill="#000000">SvtxHitEval::next_event</text>
</a>
</g>
</g>
<!-- Node7&#45;&gt;Node8 -->
<g id="edge7" class="edge">
<title>Node7&#45;&gt;Node8</title>
<path fill="none" stroke="#191970" d="M972.5825,-169.5C982.3799,-169.5 992.6162,-169.5 1002.7277,-169.5"/>
<polygon fill="#191970" stroke="#191970" points="1002.7768,-173.0001 1012.7768,-169.5 1002.7767,-166.0001 1002.7768,-173.0001"/>
</g>
<!-- Node14 -->
<g id="node14" class="node">
<title>Node14</title>
<g id="a_node14"><a xlink:href="../../d1/d1e/classSvtxClusterEval.html#ab52efb29db696d2e8e6e5cb2ecfc08bc" target="_top" xlink:title="SvtxClusterEval::get\l_node_pointers">
<polygon fill="none" stroke="#000000" points="1022,-108.5 1022,-140.5 1142,-140.5 1142,-108.5 1022,-108.5"/>
<text text-anchor="start" x="1030" y="-127.5" font-family="FreeSans" font-size="10.00" fill="#000000">SvtxClusterEval::get</text>
<text text-anchor="middle" x="1082" y="-115.5" font-family="FreeSans" font-size="10.00" fill="#000000">_node_pointers</text>
</a>
</g>
</g>
<!-- Node7&#45;&gt;Node14 -->
<g id="edge13" class="edge">
<title>Node7&#45;&gt;Node14</title>
<path fill="none" stroke="#191970" d="M971.6101,-153.3811C984.7965,-149.9312 998.8168,-146.263 1012.2842,-142.7396"/>
<polygon fill="#191970" stroke="#191970" points="1013.1845,-146.122 1021.9729,-140.2048 1011.4126,-139.3499 1013.1845,-146.122"/>
</g>
<!-- Node9 -->
<g id="node9" class="node">
<title>Node9</title>
<g id="a_node9"><a xlink:href="../../d4/de4/classSvtxTruthEval.html#ac13b62af4f46d9ba4e0e41f1c42e8770" target="_top" xlink:title="SvtxTruthEval::next\l_event">
<polygon fill="none" stroke="#000000" points="1210,-153.5 1210,-185.5 1325,-185.5 1325,-153.5 1210,-153.5"/>
<text text-anchor="start" x="1218" y="-172.5" font-family="FreeSans" font-size="10.00" fill="#000000">SvtxTruthEval::next</text>
<text text-anchor="middle" x="1267.5" y="-160.5" font-family="FreeSans" font-size="10.00" fill="#000000">_event</text>
</a>
</g>
</g>
<!-- Node8&#45;&gt;Node9 -->
<g id="edge8" class="edge">
<title>Node8&#45;&gt;Node9</title>
<path fill="none" stroke="#191970" d="M1151.0734,-169.5C1166.9592,-169.5 1183.8381,-169.5 1199.6706,-169.5"/>
<polygon fill="#191970" stroke="#191970" points="1199.9028,-173.0001 1209.9027,-169.5 1199.9027,-166.0001 1199.9028,-173.0001"/>
</g>
<!-- Node13 -->
<g id="node13" class="node">
<title>Node13</title>
<g id="a_node13"><a xlink:href="../../d9/d62/classSvtxHitEval.html#a94145a00b5fdabd642a2cac9e5ee127b" target="_top" xlink:title="SvtxHitEval::get_node\l_pointers">
<polygon fill="none" stroke="#000000" points="1203.5,-102.5 1203.5,-134.5 1331.5,-134.5 1331.5,-102.5 1203.5,-102.5"/>
<text text-anchor="start" x="1211.5" y="-121.5" font-family="FreeSans" font-size="10.00" fill="#000000">SvtxHitEval::get_node</text>
<text text-anchor="middle" x="1267.5" y="-109.5" font-family="FreeSans" font-size="10.00" fill="#000000">_pointers</text>
</a>
</g>
</g>
<!-- Node8&#45;&gt;Node13 -->
<g id="edge12" class="edge">
<title>Node8&#45;&gt;Node13</title>
<path fill="none" stroke="#191970" d="M1118.6488,-159.424C1141.5941,-153.1156 1171.8769,-144.7899 1199.1351,-137.2958"/>
<polygon fill="#191970" stroke="#191970" points="1200.3071,-140.6035 1209.0215,-134.5777 1198.4514,-133.8539 1200.3071,-140.6035"/>
</g>
<!-- Node10 -->
<g id="node10" class="node">
<title>Node10</title>
<g id="a_node10"><a xlink:href="../../dc/d23/classBaseTruthEval.html#a0a01e81c2ea74c0acaf3ade678ace806" target="_top" xlink:title="reinitialize the eval for a new event">
<polygon fill="none" stroke="#000000" points="1384,-77.5 1384,-109.5 1502,-109.5 1502,-77.5 1384,-77.5"/>
<text text-anchor="start" x="1392" y="-96.5" font-family="FreeSans" font-size="10.00" fill="#000000">BaseTruthEval::next</text>
<text text-anchor="middle" x="1443" y="-84.5" font-family="FreeSans" font-size="10.00" fill="#000000">_event</text>
</a>
</g>
</g>
<!-- Node9&#45;&gt;Node10 -->
<g id="edge9" class="edge">
<title>Node9&#45;&gt;Node10</title>
<path fill="none" stroke="#191970" d="M1324.2899,-153.3661C1332.3385,-150.6462 1340.4419,-147.6679 1348,-144.5 1368.2882,-135.9963 1389.9686,-124.5529 1407.4879,-114.6607"/>
<polygon fill="#191970" stroke="#191970" points="1409.2991,-117.6569 1416.2407,-109.6528 1405.8228,-111.581 1409.2991,-117.6569"/>
</g>
<!-- Node12 -->
<g id="node12" class="node">
<title>Node12</title>
<g id="a_node12"><a xlink:href="../../d4/de4/classSvtxTruthEval.html#a027d2889a0ab93f64dc56b4505a3073f" target="_top" xlink:title="SvtxTruthEval::get\l_node_pointers">
<polygon fill="none" stroke="#000000" points="1388,-153.5 1388,-185.5 1498,-185.5 1498,-153.5 1388,-153.5"/>
<text text-anchor="start" x="1396" y="-172.5" font-family="FreeSans" font-size="10.00" fill="#000000">SvtxTruthEval::get</text>
<text text-anchor="middle" x="1443" y="-160.5" font-family="FreeSans" font-size="10.00" fill="#000000">_node_pointers</text>
</a>
</g>
</g>
<!-- Node9&#45;&gt;Node12 -->
<g id="edge11" class="edge">
<title>Node9&#45;&gt;Node12</title>
<path fill="none" stroke="#191970" d="M1325.4516,-169.5C1342.0707,-169.5 1360.3079,-169.5 1377.3546,-169.5"/>
<polygon fill="#191970" stroke="#191970" points="1377.7897,-173.0001 1387.7896,-169.5 1377.7896,-166.0001 1377.7897,-173.0001"/>
</g>
<!-- Node11 -->
<g id="node11" class="node">
<title>Node11</title>
<g id="a_node11"><a xlink:href="../../dc/d23/classBaseTruthEval.html#ae6a31ce316ba54d165ff2742644314f8" target="_top" xlink:title="BaseTruthEval::get\l_node_pointers">
<polygon fill="none" stroke="#000000" points="1538,-77.5 1538,-109.5 1650,-109.5 1650,-77.5 1538,-77.5"/>
<text text-anchor="start" x="1546" y="-96.5" font-family="FreeSans" font-size="10.00" fill="#000000">BaseTruthEval::get</text>
<text text-anchor="middle" x="1594" y="-84.5" font-family="FreeSans" font-size="10.00" fill="#000000">_node_pointers</text>
</a>
</g>
</g>
<!-- Node10&#45;&gt;Node11 -->
<g id="edge10" class="edge">
<title>Node10&#45;&gt;Node11</title>
<path fill="none" stroke="#191970" d="M1502.2458,-93.5C1510.587,-93.5 1519.206,-93.5 1527.669,-93.5"/>
<polygon fill="#191970" stroke="#191970" points="1527.8855,-97.0001 1537.8855,-93.5 1527.8855,-90.0001 1527.8855,-97.0001"/>
</g>
<!-- Node18 -->
<g id="node18" class="node">
<title>Node18</title>
<g id="a_node18"><a xlink:href="../../da/d7e/classCaloRawClusterEval.html#a05ef076f8d5fd83f1ff552eb839f5689" target="_top" xlink:title="reinitialize the eval for a new event">
<polygon fill="none" stroke="#000000" points="512,-51.5 512,-83.5 628,-83.5 628,-51.5 512,-51.5"/>
<text text-anchor="start" x="520" y="-70.5" font-family="FreeSans" font-size="10.00" fill="#000000">CaloRawClusterEval</text>
<text text-anchor="middle" x="570" y="-58.5" font-family="FreeSans" font-size="10.00" fill="#000000">::next_event</text>
</a>
</g>
</g>
<!-- Node17&#45;&gt;Node18 -->
<g id="edge17" class="edge">
<title>Node17&#45;&gt;Node18</title>
<path fill="none" stroke="#191970" d="M466.1662,-67.5C477.6977,-67.5 489.8884,-67.5 501.7039,-67.5"/>
<polygon fill="#191970" stroke="#191970" points="501.9647,-71.0001 511.9647,-67.5 501.9647,-64.0001 501.9647,-71.0001"/>
</g>
<!-- Node19 -->
<g id="node19" class="node">
<title>Node19</title>
<g id="a_node19"><a xlink:href="../../da/d7e/classCaloRawClusterEval.html#a6a5e6e804c19df7dbf62906b15ceba6a" target="_top" xlink:title="CaloRawClusterEval\l::get_node_pointers">
<polygon fill="none" stroke="#000000" points="679,-51.5 679,-83.5 795,-83.5 795,-51.5 679,-51.5"/>
<text text-anchor="start" x="687" y="-70.5" font-family="FreeSans" font-size="10.00" fill="#000000">CaloRawClusterEval</text>
<text text-anchor="middle" x="737" y="-58.5" font-family="FreeSans" font-size="10.00" fill="#000000">::get_node_pointers</text>
</a>
</g>
</g>
<!-- Node18&#45;&gt;Node19 -->
<g id="edge18" class="edge">
<title>Node18&#45;&gt;Node19</title>
<path fill="none" stroke="#191970" d="M628.4085,-67.5C641.4503,-67.5 655.3924,-67.5 668.7907,-67.5"/>
<polygon fill="#191970" stroke="#191970" points="668.9065,-71.0001 678.9065,-67.5 668.9065,-64.0001 668.9065,-71.0001"/>
</g>
<!-- Node20 -->
<g id="node20" class="node">
<title>Node20</title>
<g id="a_node20"><a xlink:href="../../de/d0b/classCaloRawTowerEval.html#a1553c46239b752b02a3b86b77ad98389" target="_top" xlink:title="reinitialize the eval for a new event">
<polygon fill="none" stroke="#000000" points="667,-.5 667,-32.5 807,-32.5 807,-.5 667,-.5"/>
<text text-anchor="start" x="675" y="-19.5" font-family="FreeSans" font-size="10.00" fill="#000000">CaloRawTowerEval::next</text>
<text text-anchor="middle" x="737" y="-7.5" font-family="FreeSans" font-size="10.00" fill="#000000">_event</text>
</a>
</g>
</g>
<!-- Node18&#45;&gt;Node20 -->
<g id="edge19" class="edge">
<title>Node18&#45;&gt;Node20</title>
<path fill="none" stroke="#191970" d="M622.8398,-51.3633C639.2953,-46.338 657.5955,-40.7493 674.6382,-35.5446"/>
<polygon fill="#191970" stroke="#191970" points="675.9622,-38.7999 684.5039,-32.5317 673.9177,-32.1052 675.9622,-38.7999"/>
</g>
<!-- Node21 -->
<g id="node21" class="node">
<title>Node21</title>
<g id="a_node21"><a xlink:href="../../de/d0b/classCaloRawTowerEval.html#a7191fd234d79cef3ca08737c136fa31a" target="_top" xlink:title="CaloRawTowerEval::get\l_node_pointers">
<polygon fill="none" stroke="#000000" points="843,-51.5 843,-83.5 977,-83.5 977,-51.5 843,-51.5"/>
<text text-anchor="start" x="851" y="-70.5" font-family="FreeSans" font-size="10.00" fill="#000000">CaloRawTowerEval::get</text>
<text text-anchor="middle" x="910" y="-58.5" font-family="FreeSans" font-size="10.00" fill="#000000">_node_pointers</text>
</a>
</g>
</g>
<!-- Node20&#45;&gt;Node21 -->
<g id="edge20" class="edge">
<title>Node20&#45;&gt;Node21</title>
<path fill="none" stroke="#191970" d="M791.7383,-32.6367C808.9442,-37.709 828.0972,-43.3552 845.8923,-48.6012"/>
<polygon fill="#191970" stroke="#191970" points="845.0362,-51.9977 855.6178,-51.4683 847.0156,-45.2834 845.0362,-51.9977"/>
</g>
<!-- Node22 -->
<g id="node22" class="node">
<title>Node22</title>
<g id="a_node22"><a xlink:href="../../d7/d3c/classCaloTruthEval.html#a13d63607fef75249cc7dcbf2bda5cf33" target="_top" xlink:title="reinitialize the eval for a new event">
<polygon fill="none" stroke="#000000" points="852.5,-.5 852.5,-32.5 967.5,-32.5 967.5,-.5 852.5,-.5"/>
<text text-anchor="start" x="860.5" y="-19.5" font-family="FreeSans" font-size="10.00" fill="#000000">CaloTruthEval::next</text>
<text text-anchor="middle" x="910" y="-7.5" font-family="FreeSans" font-size="10.00" fill="#000000">_event</text>
</a>
</g>
</g>
<!-- Node20&#45;&gt;Node22 -->
<g id="edge21" class="edge">
<title>Node20&#45;&gt;Node22</title>
<path fill="none" stroke="#191970" d="M807.3657,-16.5C818.8252,-16.5 830.6764,-16.5 842.0758,-16.5"/>
<polygon fill="#191970" stroke="#191970" points="842.3935,-20.0001 852.3935,-16.5 842.3935,-13.0001 842.3935,-20.0001"/>
</g>
<!-- Node22&#45;&gt;Node10 -->
<g id="edge24" class="edge">
<title>Node22&#45;&gt;Node10</title>
<path fill="none" stroke="#191970" d="M967.7595,-31.7852C982.4431,-35.3214 998.2433,-38.8265 1013,-41.5 1139.3834,-64.3974 1288.5421,-79.8889 1373.8216,-87.6639"/>
<polygon fill="#191970" stroke="#191970" points="1373.6248,-91.1602 1383.899,-88.5737 1374.2543,-84.1886 1373.6248,-91.1602"/>
</g>
<!-- Node23 -->
<g id="node23" class="node">
<title>Node23</title>
<g id="a_node23"><a xlink:href="../../d7/d3c/classCaloTruthEval.html#a8b079a525af61cd5d3cab2f5a63130dc" target="_top" xlink:title="CaloTruthEval::get\l_node_pointers">
<polygon fill="none" stroke="#000000" points="1027,-.5 1027,-32.5 1137,-32.5 1137,-.5 1027,-.5"/>
<text text-anchor="start" x="1035" y="-19.5" font-family="FreeSans" font-size="10.00" fill="#000000">CaloTruthEval::get</text>
<text text-anchor="middle" x="1082" y="-7.5" font-family="FreeSans" font-size="10.00" fill="#000000">_node_pointers</text>
</a>
</g>
</g>
<!-- Node22&#45;&gt;Node23 -->
<g id="edge22" class="edge">
<title>Node22&#45;&gt;Node23</title>
<path fill="none" stroke="#191970" d="M967.752,-16.5C983.3631,-16.5 1000.3713,-16.5 1016.3797,-16.5"/>
<polygon fill="#191970" stroke="#191970" points="1016.7305,-20.0001 1026.7305,-16.5 1016.7304,-13.0001 1016.7305,-20.0001"/>
</g>
<!-- Node24 -->
<g id="node24" class="node">
<title>Node24</title>
<g id="a_node24"><a xlink:href="../../da/dd0/namespacePHG4HitDefs.html#ad88f7f6ceb43e0702c65a6838dedb229" target="_top" xlink:title="PHG4HitDefs::get_volume_id">
<polygon fill="none" stroke="#000000" points="1187,-6.5 1187,-26.5 1348,-26.5 1348,-6.5 1187,-6.5"/>
<text text-anchor="middle" x="1267.5" y="-13.5" font-family="FreeSans" font-size="10.00" fill="#000000">PHG4HitDefs::get_volume_id</text>
</a>
</g>
</g>
<!-- Node23&#45;&gt;Node24 -->
<g id="edge23" class="edge">
<title>Node23&#45;&gt;Node24</title>
<path fill="none" stroke="#191970" d="M1137.1539,-16.5C1149.5791,-16.5 1163.0879,-16.5 1176.5463,-16.5"/>
<polygon fill="#191970" stroke="#191970" points="1176.8094,-20.0001 1186.8094,-16.5 1176.8093,-13.0001 1176.8094,-20.0001"/>
</g>
</g>
</svg>
