<?xml version="1.0" encoding="UTF-8" standalone="no"?>
<!DOCTYPE svg PUBLIC "-//W3C//DTD SVG 1.1//EN"
 "http://www.w3.org/Graphics/SVG/1.1/DTD/svg11.dtd">
<!-- Generated by graphviz version 2.40.1 (20161225.0304)
 -->
<!-- Title: JetRecoEval::get_hcalin_eval_stack Pages: 1 -->
<svg width="1406pt" height="538pt"
 viewBox="0.00 0.00 1406.00 538.08" xmlns="http://www.w3.org/2000/svg" xmlns:xlink="http://www.w3.org/1999/xlink">
<g id="graph0" class="graph" transform="scale(1 1) rotate(0) translate(4 534.0778)">
<title>JetRecoEval::get_hcalin_eval_stack</title>
<!-- Node1 -->
<g id="node1" class="node">
<title>Node1</title>
<polygon fill="#bfbfbf" stroke="#000000" points="0,-274.5778 0,-306.5778 135,-306.5778 135,-274.5778 0,-274.5778"/>
<text text-anchor="start" x="8" y="-293.5778" font-family="FreeSans" font-size="10.00" fill="#000000">JetRecoEval::get_hcalin</text>
<text text-anchor="middle" x="67.5" y="-281.5778" font-family="FreeSans" font-size="10.00" fill="#000000">_eval_stack</text>
</g>
<!-- Node2 -->
<g id="node2" class="node">
<title>Node2</title>
<g id="a_node2"><a xlink:href="../../dd/d75/classJetRecoEval.html#a83e004c6c55ecf277a13a046d90790a3" target="_top" xlink:title="which truth hits contributed to this reconstructed jet?">
<polygon fill="none" stroke="#000000" points="171,-364.5778 171,-384.5778 319,-384.5778 319,-364.5778 171,-364.5778"/>
<text text-anchor="middle" x="245" y="-371.5778" font-family="FreeSans" font-size="10.00" fill="#000000">JetRecoEval::all_truth_hits</text>
</a>
</g>
</g>
<!-- Node1&#45;&gt;Node2 -->
<g id="edge1" class="edge">
<title>Node1&#45;&gt;Node2</title>
<path fill="none" stroke="#191970" d="M101.3793,-312.0938C121.1841,-324.1059 146.9463,-338.7797 171,-349.5778 183.6186,-355.2425 197.9295,-360.3619 210.5808,-364.4713"/>
<polygon fill="#191970" stroke="#191970" points="103.0806,-309.0314 92.7265,-306.7855 99.4201,-314.9981 103.0806,-309.0314"/>
</g>
<!-- Node3 -->
<g id="node3" class="node">
<title>Node3</title>
<g id="a_node3"><a xlink:href="../../dd/d75/classJetRecoEval.html#a35d98fcca277d5034d66e06d7e832e87" target="_top" xlink:title="what truth particles contributed to this reconstructed jet?">
<polygon fill="none" stroke="#000000" points="183,-274.5778 183,-306.5778 307,-306.5778 307,-274.5778 183,-274.5778"/>
<text text-anchor="start" x="191" y="-293.5778" font-family="FreeSans" font-size="10.00" fill="#000000">JetRecoEval::all_truth</text>
<text text-anchor="middle" x="245" y="-281.5778" font-family="FreeSans" font-size="10.00" fill="#000000">_particles</text>
</a>
</g>
</g>
<!-- Node1&#45;&gt;Node3 -->
<g id="edge2" class="edge">
<title>Node1&#45;&gt;Node3</title>
<path fill="none" stroke="#191970" d="M145.136,-290.5778C157.7416,-290.5778 170.6511,-290.5778 182.8256,-290.5778"/>
<polygon fill="#191970" stroke="#191970" points="145.1115,-287.0779 135.1115,-290.5778 145.1115,-294.0779 145.1115,-287.0779"/>
</g>
<!-- Node20 -->
<g id="node20" class="node">
<title>Node20</title>
<g id="a_node20"><a xlink:href="../../dd/d75/classJetRecoEval.html#a2b04ad28662aae87324971bb37e70bac" target="_top" xlink:title="what truth showers contributed to this reconstructed jet?">
<polygon fill="none" stroke="#000000" points="183,-223.5778 183,-255.5778 307,-255.5778 307,-223.5778 183,-223.5778"/>
<text text-anchor="start" x="191" y="-242.5778" font-family="FreeSans" font-size="10.00" fill="#000000">JetRecoEval::all_truth</text>
<text text-anchor="middle" x="245" y="-230.5778" font-family="FreeSans" font-size="10.00" fill="#000000">_showers</text>
</a>
</g>
</g>
<!-- Node1&#45;&gt;Node20 -->
<g id="edge27" class="edge">
<title>Node1&#45;&gt;Node20</title>
<path fill="none" stroke="#191970" d="M133.3998,-271.6432C151.7487,-266.3711 171.4959,-260.6973 189.2032,-255.6095"/>
<polygon fill="#191970" stroke="#191970" points="132.3067,-268.3156 123.6621,-274.441 134.2398,-275.0434 132.3067,-268.3156"/>
</g>
<!-- Node21 -->
<g id="node21" class="node">
<title>Node21</title>
<g id="a_node21"><a xlink:href="../../dd/d75/classJetRecoEval.html#af6356d19d3ff0ee9c9849348466e7d0e" target="_top" xlink:title="what was the energy contribution to this reconstructed jet from this truth jet?">
<polygon fill="none" stroke="#000000" points="542.5,-319.5778 542.5,-351.5778 682.5,-351.5778 682.5,-319.5778 542.5,-319.5778"/>
<text text-anchor="start" x="550.5" y="-338.5778" font-family="FreeSans" font-size="10.00" fill="#000000">JetRecoEval::get_energy</text>
<text text-anchor="middle" x="612.5" y="-326.5778" font-family="FreeSans" font-size="10.00" fill="#000000">_contribution</text>
</a>
</g>
</g>
<!-- Node1&#45;&gt;Node21 -->
<g id="edge28" class="edge">
<title>Node1&#45;&gt;Node21</title>
<path fill="none" stroke="#191970" d="M132.6602,-309.0793C145.2883,-312.0576 158.4865,-314.7561 171,-316.5778 301.013,-335.5047 454.6487,-337.6117 542.1233,-336.9325"/>
<polygon fill="#191970" stroke="#191970" points="133.2236,-305.6141 122.6788,-306.6422 131.5632,-312.4144 133.2236,-305.6141"/>
</g>
<!-- Node25 -->
<g id="node25" class="node">
<title>Node25</title>
<g id="a_node25"><a xlink:href="../../dd/df3/classJetEvalStack.html#aad75d3dbef2fc3078466dd072d2e6686" target="_top" xlink:title="JetEvalStack::get_hcalin\l_eval_stack">
<polygon fill="none" stroke="#000000" points="176,-172.5778 176,-204.5778 314,-204.5778 314,-172.5778 176,-172.5778"/>
<text text-anchor="start" x="184" y="-191.5778" font-family="FreeSans" font-size="10.00" fill="#000000">JetEvalStack::get_hcalin</text>
<text text-anchor="middle" x="245" y="-179.5778" font-family="FreeSans" font-size="10.00" fill="#000000">_eval_stack</text>
</a>
</g>
</g>
<!-- Node1&#45;&gt;Node25 -->
<g id="edge37" class="edge">
<title>Node1&#45;&gt;Node25</title>
<path fill="none" stroke="#191970" d="M93.1359,-267.9042C113.2003,-251.0837 142.4068,-228.5624 171,-213.5778 177.2458,-210.3046 184.0074,-207.3296 190.8177,-204.6668"/>
<polygon fill="#191970" stroke="#191970" points="90.7359,-265.3509 85.3888,-274.4974 95.2727,-270.6817 90.7359,-265.3509"/>
</g>
<!-- Node4 -->
<g id="node4" class="node">
<title>Node4</title>
<g id="a_node4"><a xlink:href="../../dd/d75/classJetRecoEval.html#a277ecc26833b4e3e16f96018aa921702" target="_top" xlink:title="what truth jets contributed to this reconstructed jet?">
<polygon fill="none" stroke="#000000" points="355,-280.5778 355,-300.5778 503,-300.5778 503,-280.5778 355,-280.5778"/>
<text text-anchor="middle" x="429" y="-287.5778" font-family="FreeSans" font-size="10.00" fill="#000000">JetRecoEval::all_truth_jets</text>
</a>
</g>
</g>
<!-- Node3&#45;&gt;Node4 -->
<g id="edge3" class="edge">
<title>Node3&#45;&gt;Node4</title>
<path fill="none" stroke="#191970" d="M317.2604,-290.5778C329.5943,-290.5778 342.4249,-290.5778 354.808,-290.5778"/>
<polygon fill="#191970" stroke="#191970" points="317.0375,-287.0779 307.0375,-290.5778 317.0375,-294.0779 317.0375,-287.0779"/>
</g>
<!-- Node5 -->
<g id="node5" class="node">
<title>Node5</title>
<g id="a_node5"><a xlink:href="../../dd/d75/classJetRecoEval.html#aaa6df5bbed40bd8cf789d997c348d12f" target="_top" xlink:title="what reconstructed jets had contributions from this truth jet?">
<polygon fill="none" stroke="#000000" points="539,-280.5778 539,-300.5778 686,-300.5778 686,-280.5778 539,-280.5778"/>
<text text-anchor="middle" x="612.5" y="-287.5778" font-family="FreeSans" font-size="10.00" fill="#000000">JetRecoEval::all_jets_from</text>
</a>
</g>
</g>
<!-- Node4&#45;&gt;Node5 -->
<g id="edge4" class="edge">
<title>Node4&#45;&gt;Node5</title>
<path fill="none" stroke="#191970" d="M513.3668,-290.5778C521.8279,-290.5778 530.3732,-290.5778 538.7124,-290.5778"/>
<polygon fill="#191970" stroke="#191970" points="513.1076,-287.0779 503.1075,-290.5778 513.1075,-294.0779 513.1076,-287.0779"/>
</g>
<!-- Node16 -->
<g id="node16" class="node">
<title>Node16</title>
<g id="a_node16"><a xlink:href="../../dd/d75/classJetRecoEval.html#af4bff244a32d216f097c7fab76c9b95a" target="_top" xlink:title="which truth jet contributed the most energy to this reconstructed jet?">
<polygon fill="none" stroke="#000000" points="730.5,-202.5778 730.5,-234.5778 864.5,-234.5778 864.5,-202.5778 730.5,-202.5778"/>
<text text-anchor="start" x="738.5" y="-221.5778" font-family="FreeSans" font-size="10.00" fill="#000000">JetRecoEval::max_truth</text>
<text text-anchor="middle" x="797.5" y="-209.5778" font-family="FreeSans" font-size="10.00" fill="#000000">_jet_by_energy</text>
</a>
</g>
</g>
<!-- Node4&#45;&gt;Node16 -->
<g id="edge17" class="edge">
<title>Node4&#45;&gt;Node16</title>
<path fill="none" stroke="#191970" d="M490.1288,-278.634C556.4306,-265.6795 661.9496,-245.0625 730.4736,-231.6738"/>
<polygon fill="#191970" stroke="#191970" points="489.3816,-275.2137 480.2383,-280.5665 490.724,-282.0838 489.3816,-275.2137"/>
</g>
<!-- Node6 -->
<g id="node6" class="node">
<title>Node6</title>
<g id="a_node6"><a xlink:href="../../dd/d75/classJetRecoEval.html#a631b92837e600fbdb6b966a556fc9077" target="_top" xlink:title="which reconstructed jet had the largest energy contribution from this truth jet?">
<polygon fill="none" stroke="#000000" points="722,-281.5778 722,-301.5778 873,-301.5778 873,-281.5778 722,-281.5778"/>
<text text-anchor="middle" x="797.5" y="-288.5778" font-family="FreeSans" font-size="10.00" fill="#000000">JetRecoEval::best_jet_from</text>
</a>
</g>
</g>
<!-- Node5&#45;&gt;Node6 -->
<g id="edge5" class="edge">
<title>Node5&#45;&gt;Node6</title>
<path fill="none" stroke="#191970" d="M696.1789,-291.0301C704.7788,-291.0766 713.4813,-291.1236 721.9855,-291.1696"/>
<polygon fill="#191970" stroke="#191970" points="696.1673,-287.5301 686.1485,-290.9759 696.1294,-294.53 696.1673,-287.5301"/>
</g>
<!-- Node7 -->
<g id="node7" class="node">
<title>Node7</title>
<g id="a_node7"><a xlink:href="../../d1/df4/classJetEvaluator.html#a0c608411c03ff1de3fca80d64e93ae5d" target="_top" xlink:title="dump the evaluator information into ntuple for external analysis">
<polygon fill="none" stroke="#000000" points="926,-317.5778 926,-349.5778 1059,-349.5778 1059,-317.5778 926,-317.5778"/>
<text text-anchor="start" x="934" y="-336.5778" font-family="FreeSans" font-size="10.00" fill="#000000">JetEvaluator::fillOutput</text>
<text text-anchor="middle" x="992.5" y="-324.5778" font-family="FreeSans" font-size="10.00" fill="#000000">Ntuples</text>
</a>
</g>
</g>
<!-- Node6&#45;&gt;Node7 -->
<g id="edge6" class="edge">
<title>Node6&#45;&gt;Node7</title>
<path fill="none" stroke="#191970" d="M854.2401,-303.7987C876.6611,-308.6278 902.5891,-314.2123 925.8917,-319.2314"/>
<polygon fill="#191970" stroke="#191970" points="854.7202,-300.3219 844.2074,-301.6378 853.2462,-307.165 854.7202,-300.3219"/>
</g>
<!-- Node9 -->
<g id="node9" class="node">
<title>Node9</title>
<g id="a_node9"><a xlink:href="../../d8/de2/classJetEnergies.html#a065fee78622ed073cafb5cf172d67bef" target="_top" xlink:title="dump the evaluator information into ntuple for external analysis">
<polygon fill="none" stroke="#000000" points="909,-368.5778 909,-388.5778 1076,-388.5778 1076,-368.5778 909,-368.5778"/>
<text text-anchor="middle" x="992.5" y="-375.5778" font-family="FreeSans" font-size="10.00" fill="#000000">JetEnergies::fillOutputNtuples</text>
</a>
</g>
</g>
<!-- Node6&#45;&gt;Node9 -->
<g id="edge8" class="edge">
<title>Node6&#45;&gt;Node9</title>
<path fill="none" stroke="#191970" d="M818.9727,-307.6024C840.6391,-323.0449 875.5802,-346.0085 909,-359.5778 917.6782,-363.1013 927.1421,-366.0413 936.4793,-368.4716"/>
<polygon fill="#191970" stroke="#191970" points="820.9639,-304.723 810.8119,-301.692 816.858,-310.3924 820.9639,-304.723"/>
</g>
<!-- Node11 -->
<g id="node11" class="node">
<title>Node11</title>
<g id="a_node11"><a xlink:href="../../db/d4c/classBJetModule.html#a93ec29147c2d7aea52780d7370141e74" target="_top" xlink:title="BJetModule::process\l_event">
<polygon fill="none" stroke="#000000" points="933,-407.5778 933,-439.5778 1052,-439.5778 1052,-407.5778 933,-407.5778"/>
<text text-anchor="start" x="941" y="-426.5778" font-family="FreeSans" font-size="10.00" fill="#000000">BJetModule::process</text>
<text text-anchor="middle" x="992.5" y="-414.5778" font-family="FreeSans" font-size="10.00" fill="#000000">_event</text>
</a>
</g>
</g>
<!-- Node6&#45;&gt;Node11 -->
<g id="edge10" class="edge">
<title>Node6&#45;&gt;Node11</title>
<path fill="none" stroke="#191970" d="M811.5911,-309.6484C831.0362,-333.3975 868.3346,-374.8682 909,-398.5778 916.3207,-402.846 924.4342,-406.4432 932.6433,-409.4587"/>
<polygon fill="#191970" stroke="#191970" points="814.252,-307.3721 805.2617,-301.7662 808.7939,-311.7549 814.252,-307.3721"/>
</g>
<!-- Node12 -->
<g id="node12" class="node">
<title>Node12</title>
<g id="a_node12"><a xlink:href="../../d4/d28/classQAG4SimulationJet.html#a3e5c5fe2e5e5cee7fca6173ef6e6bfa2" target="_top" xlink:title="QAG4SimulationJet::\lprocess_TruthMatching">
<polygon fill="none" stroke="#000000" points="1112,-227.5778 1112,-259.5778 1244,-259.5778 1244,-227.5778 1112,-227.5778"/>
<text text-anchor="start" x="1120" y="-246.5778" font-family="FreeSans" font-size="10.00" fill="#000000">QAG4SimulationJet::</text>
<text text-anchor="middle" x="1178" y="-234.5778" font-family="FreeSans" font-size="10.00" fill="#000000">process_TruthMatching</text>
</a>
</g>
</g>
<!-- Node6&#45;&gt;Node12 -->
<g id="edge11" class="edge">
<title>Node6&#45;&gt;Node12</title>
<path fill="none" stroke="#191970" d="M883.3858,-288.5839C938.6756,-285.7248 1011.9232,-280.1954 1076,-269.5778 1091.1441,-267.0684 1107.3319,-263.4064 1122.2478,-259.6185"/>
<polygon fill="#191970" stroke="#191970" points="883.0908,-285.0942 873.2773,-289.0873 883.439,-292.0855 883.0908,-285.0942"/>
</g>
<!-- Node14 -->
<g id="node14" class="node">
<title>Node14</title>
<g id="a_node14"><a xlink:href="../../dd/d75/classJetRecoEval.html#a9775ea4a0c6e28f22da7997f4886f195" target="_top" xlink:title="JetRecoEval::unique\l_reco_jet_from_truth">
<polygon fill="none" stroke="#000000" points="932.5,-176.5778 932.5,-208.5778 1052.5,-208.5778 1052.5,-176.5778 932.5,-176.5778"/>
<text text-anchor="start" x="940.5" y="-195.5778" font-family="FreeSans" font-size="10.00" fill="#000000">JetRecoEval::unique</text>
<text text-anchor="middle" x="992.5" y="-183.5778" font-family="FreeSans" font-size="10.00" fill="#000000">_reco_jet_from_truth</text>
</a>
</g>
</g>
<!-- Node6&#45;&gt;Node14 -->
<g id="edge13" class="edge">
<title>Node6&#45;&gt;Node14</title>
<path fill="none" stroke="#191970" d="M822.4991,-276.2022C837.3197,-266.9589 856.3925,-254.8397 873,-243.5778 889.3349,-232.5007 891.2993,-226.3078 909,-217.5778 916.3286,-213.9633 924.2807,-210.7613 932.2673,-207.9586"/>
<polygon fill="#191970" stroke="#191970" points="820.5307,-273.3045 813.8807,-281.5524 824.2227,-279.2517 820.5307,-273.3045"/>
</g>
<!-- Node15 -->
<g id="node15" class="node">
<title>Node15</title>
<g id="a_node15"><a xlink:href="../../dd/d75/classJetRecoEval.html#ac6030b2b14c885e19e35f86ec828d8d8" target="_top" xlink:title="JetRecoEval::unique\l_truth_jet_from_reco">
<polygon fill="none" stroke="#000000" points="932.5,-227.5778 932.5,-259.5778 1052.5,-259.5778 1052.5,-227.5778 932.5,-227.5778"/>
<text text-anchor="start" x="940.5" y="-246.5778" font-family="FreeSans" font-size="10.00" fill="#000000">JetRecoEval::unique</text>
<text text-anchor="middle" x="992.5" y="-234.5778" font-family="FreeSans" font-size="10.00" fill="#000000">_truth_jet_from_reco</text>
</a>
</g>
</g>
<!-- Node6&#45;&gt;Node15 -->
<g id="edge15" class="edge">
<title>Node6&#45;&gt;Node15</title>
<path fill="none" stroke="#191970" d="M848.3067,-279.0715C874.0523,-272.7341 905.4845,-264.997 932.4232,-258.3659"/>
<polygon fill="#191970" stroke="#191970" points="847.2519,-275.7266 838.3784,-281.5154 848.9251,-282.5237 847.2519,-275.7266"/>
</g>
<!-- Node8 -->
<g id="node8" class="node">
<title>Node8</title>
<g id="a_node8"><a xlink:href="../../d1/df4/classJetEvaluator.html#ad83508ae828d1f2e4a83a948465a0cd2" target="_top" xlink:title="JetEvaluator::process\l_event">
<polygon fill="none" stroke="#000000" points="1116,-314.5778 1116,-346.5778 1240,-346.5778 1240,-314.5778 1116,-314.5778"/>
<text text-anchor="start" x="1124" y="-333.5778" font-family="FreeSans" font-size="10.00" fill="#000000">JetEvaluator::process</text>
<text text-anchor="middle" x="1178" y="-321.5778" font-family="FreeSans" font-size="10.00" fill="#000000">_event</text>
</a>
</g>
</g>
<!-- Node7&#45;&gt;Node8 -->
<g id="edge7" class="edge">
<title>Node7&#45;&gt;Node8</title>
<path fill="none" stroke="#191970" d="M1069.3008,-332.3357C1084.8233,-332.0847 1100.9604,-331.8237 1115.9017,-331.582"/>
<polygon fill="#191970" stroke="#191970" points="1069.1497,-328.8376 1059.2077,-332.4989 1069.263,-335.8367 1069.1497,-328.8376"/>
</g>
<!-- Node10 -->
<g id="node10" class="node">
<title>Node10</title>
<g id="a_node10"><a xlink:href="../../d8/de2/classJetEnergies.html#a6acaa9b2ba1fe7353781d2f5d476e8d1" target="_top" xlink:title="JetEnergies::process\l_event">
<polygon fill="none" stroke="#000000" points="1118,-365.5778 1118,-397.5778 1238,-397.5778 1238,-365.5778 1118,-365.5778"/>
<text text-anchor="start" x="1126" y="-384.5778" font-family="FreeSans" font-size="10.00" fill="#000000">JetEnergies::process</text>
<text text-anchor="middle" x="1178" y="-372.5778" font-family="FreeSans" font-size="10.00" fill="#000000">_event</text>
</a>
</g>
</g>
<!-- Node9&#45;&gt;Node10 -->
<g id="edge9" class="edge">
<title>Node9&#45;&gt;Node10</title>
<path fill="none" stroke="#191970" d="M1086.3276,-380.0952C1097.087,-380.2692 1107.8271,-380.4429 1117.9686,-380.6069"/>
<polygon fill="#191970" stroke="#191970" points="1086.0801,-376.5908 1076.0248,-379.9286 1085.9669,-383.5899 1086.0801,-376.5908"/>
</g>
<!-- Node13 -->
<g id="node13" class="node">
<title>Node13</title>
<g id="a_node13"><a xlink:href="../../d4/d28/classQAG4SimulationJet.html#a98c3c0fb4d213ada3475e8fb9895bc29" target="_top" xlink:title="QAG4SimulationJet::\lprocess_event">
<polygon fill="none" stroke="#000000" points="1280,-339.5778 1280,-371.5778 1398,-371.5778 1398,-339.5778 1280,-339.5778"/>
<text text-anchor="start" x="1288" y="-358.5778" font-family="FreeSans" font-size="10.00" fill="#000000">QAG4SimulationJet::</text>
<text text-anchor="middle" x="1339" y="-346.5778" font-family="FreeSans" font-size="10.00" fill="#000000">process_event</text>
</a>
</g>
</g>
<!-- Node12&#45;&gt;Node13 -->
<g id="edge12" class="edge">
<title>Node12&#45;&gt;Node13</title>
<path fill="none" stroke="#191970" d="M1209.4407,-265.4496C1240.7353,-287.2197 1288.0193,-320.1129 1315.9754,-339.5607"/>
<polygon fill="#191970" stroke="#191970" points="1211.2752,-262.4621 1201.0674,-259.6246 1207.2777,-268.2085 1211.2752,-262.4621"/>
</g>
<!-- Node14&#45;&gt;Node12 -->
<g id="edge14" class="edge">
<title>Node14&#45;&gt;Node12</title>
<path fill="none" stroke="#191970" d="M1060.5923,-211.2986C1079.9345,-216.6164 1100.8195,-222.3583 1119.5364,-227.5042"/>
<polygon fill="#191970" stroke="#191970" points="1061.5088,-207.9207 1050.9387,-208.6445 1059.6531,-214.6703 1061.5088,-207.9207"/>
</g>
<!-- Node15&#45;&gt;Node12 -->
<g id="edge16" class="edge">
<title>Node15&#45;&gt;Node12</title>
<path fill="none" stroke="#191970" d="M1063.1133,-243.5778C1079.158,-243.5778 1096.1414,-243.5778 1111.9865,-243.5778"/>
<polygon fill="#191970" stroke="#191970" points="1062.7266,-240.0779 1052.7265,-243.5778 1062.7265,-247.0779 1062.7266,-240.0779"/>
</g>
<!-- Node16&#45;&gt;Node7 -->
<g id="edge23" class="edge">
<title>Node16&#45;&gt;Node7</title>
<path fill="none" stroke="#191970" d="M833.7503,-239.9562C871.8033,-262.3977 930.7756,-297.1762 965.1149,-317.4276"/>
<polygon fill="#191970" stroke="#191970" points="835.4168,-236.8757 825.0252,-234.8105 831.8609,-242.9052 835.4168,-236.8757"/>
</g>
<!-- Node16&#45;&gt;Node9 -->
<g id="edge18" class="edge">
<title>Node16&#45;&gt;Node9</title>
<path fill="none" stroke="#191970" d="M835.925,-240.0023C849.0191,-248.7597 862.8884,-259.8442 873,-272.5778 899.023,-305.3484 877.0238,-332.5846 909,-359.5778 913.2034,-363.1261 917.936,-366.0456 922.957,-368.444"/>
<polygon fill="#191970" stroke="#191970" points="837.7874,-237.0388 827.4795,-234.5896 834.0102,-242.9323 837.7874,-237.0388"/>
</g>
<!-- Node16&#45;&gt;Node12 -->
<g id="edge22" class="edge">
<title>Node16&#45;&gt;Node12</title>
<path fill="none" stroke="#191970" d="M832.3442,-197.4996C853.6522,-185.8614 881.9344,-172.5788 909,-166.5778 981.4625,-150.5113 1005.6234,-142.9965 1076,-166.5778 1111.7646,-178.5615 1145.0092,-208.5847 1163.3092,-227.4042"/>
<polygon fill="#191970" stroke="#191970" points="830.3818,-194.5872 823.3694,-202.5293 833.804,-200.6936 830.3818,-194.5872"/>
</g>
<!-- Node16&#45;&gt;Node14 -->
<g id="edge24" class="edge">
<title>Node16&#45;&gt;Node14</title>
<path fill="none" stroke="#191970" d="M874.5551,-208.3038C893.8031,-205.7374 914.1642,-203.0225 932.4523,-200.5841"/>
<polygon fill="#191970" stroke="#191970" points="874.0576,-204.839 864.6079,-209.63 874.9828,-211.7776 874.0576,-204.839"/>
</g>
<!-- Node16&#45;&gt;Node15 -->
<g id="edge25" class="edge">
<title>Node16&#45;&gt;Node15</title>
<path fill="none" stroke="#191970" d="M874.5551,-228.4566C893.8031,-230.9243 914.1642,-233.5347 932.4523,-235.8793"/>
<polygon fill="#191970" stroke="#191970" points="874.9719,-224.9815 864.6079,-227.1813 874.0816,-231.9247 874.9719,-224.9815"/>
</g>
<!-- Node17 -->
<g id="node17" class="node">
<title>Node17</title>
<g id="a_node17"><a xlink:href="../../dc/d65/classPhotonJet.html#a3f9d3ec941f851bc2246ceb0c5362c9f" target="_top" xlink:title="PhotonJet::process\l_event">
<polygon fill="none" stroke="#000000" points="1123,-13.5778 1123,-45.5778 1233,-45.5778 1233,-13.5778 1123,-13.5778"/>
<text text-anchor="start" x="1131" y="-32.5778" font-family="FreeSans" font-size="10.00" fill="#000000">PhotonJet::process</text>
<text text-anchor="middle" x="1178" y="-20.5778" font-family="FreeSans" font-size="10.00" fill="#000000">_event</text>
</a>
</g>
</g>
<!-- Node16&#45;&gt;Node17 -->
<g id="edge19" class="edge">
<title>Node16&#45;&gt;Node17</title>
<path fill="none" stroke="#191970" d="M803.5851,-192.6567C815.3945,-148.9826 845.9921,-61.9437 909,-25.5778 975.3418,12.7124 1067.0809,.3017 1124.4503,-13.5637"/>
<polygon fill="#191970" stroke="#191970" points="800.1489,-191.9653 801.0395,-202.5226 806.9269,-193.7142 800.1489,-191.9653"/>
</g>
<!-- Node18 -->
<g id="node18" class="node">
<title>Node18</title>
<g id="a_node18"><a xlink:href="../../dc/d65/classPhotonJet.html#a9b2de7dcbd5e3bbbd26150d418b7bb44" target="_top" xlink:title="PhotonJet::GetRecoHadrons\lAndJets">
<polygon fill="none" stroke="#000000" points="914.5,-35.5778 914.5,-67.5778 1070.5,-67.5778 1070.5,-35.5778 914.5,-35.5778"/>
<text text-anchor="start" x="922.5" y="-54.5778" font-family="FreeSans" font-size="10.00" fill="#000000">PhotonJet::GetRecoHadrons</text>
<text text-anchor="middle" x="992.5" y="-42.5778" font-family="FreeSans" font-size="10.00" fill="#000000">AndJets</text>
</a>
</g>
</g>
<!-- Node16&#45;&gt;Node18 -->
<g id="edge20" class="edge">
<title>Node16&#45;&gt;Node18</title>
<path fill="none" stroke="#191970" d="M810.8998,-193.1561C828.9823,-161.2817 864.1606,-107.1241 909,-76.5778 914.0024,-73.1699 919.4802,-70.2167 925.1626,-67.6591"/>
<polygon fill="#191970" stroke="#191970" points="807.6287,-191.8383 805.8451,-202.282 813.7522,-195.2301 807.6287,-191.8383"/>
</g>
<!-- Node19 -->
<g id="node19" class="node">
<title>Node19</title>
<g id="a_node19"><a xlink:href="../../d5/d1f/classMyJetAnalysis.html#a309e9a46394353251b673514d6eb28ac" target="_top" xlink:title="MyJetAnalysis::process\l_event">
<polygon fill="none" stroke="#000000" points="927,-86.5778 927,-118.5778 1058,-118.5778 1058,-86.5778 927,-86.5778"/>
<text text-anchor="start" x="935" y="-105.5778" font-family="FreeSans" font-size="10.00" fill="#000000">MyJetAnalysis::process</text>
<text text-anchor="middle" x="992.5" y="-93.5778" font-family="FreeSans" font-size="10.00" fill="#000000">_event</text>
</a>
</g>
</g>
<!-- Node16&#45;&gt;Node19 -->
<g id="edge26" class="edge">
<title>Node16&#45;&gt;Node19</title>
<path fill="none" stroke="#191970" d="M823.0172,-195.601C844.6852,-176.9875 877.238,-151.0706 909,-133.5778 919.2942,-127.9083 930.8354,-122.8729 941.976,-118.5948"/>
<polygon fill="#191970" stroke="#191970" points="820.5149,-193.1389 815.27,-202.3444 825.1108,-198.4189 820.5149,-193.1389"/>
</g>
<!-- Node18&#45;&gt;Node17 -->
<g id="edge21" class="edge">
<title>Node18&#45;&gt;Node17</title>
<path fill="none" stroke="#191970" d="M1080.9625,-41.0863C1095.2103,-39.3965 1109.5933,-37.6907 1122.7628,-36.1288"/>
<polygon fill="#191970" stroke="#191970" points="1080.1492,-37.6581 1070.6311,-42.3115 1080.9737,-44.6094 1080.1492,-37.6581"/>
</g>
<!-- Node21&#45;&gt;Node6 -->
<g id="edge29" class="edge">
<title>Node21&#45;&gt;Node6</title>
<path fill="none" stroke="#191970" d="M689.678,-317.2219C712.1233,-311.8836 735.8068,-306.2507 755.2421,-301.6283"/>
<polygon fill="#191970" stroke="#191970" points="688.7313,-313.8494 679.8126,-319.5683 690.3511,-320.6594 688.7313,-313.8494"/>
</g>
<!-- Node21&#45;&gt;Node7 -->
<g id="edge30" class="edge">
<title>Node21&#45;&gt;Node7</title>
<path fill="none" stroke="#191970" d="M692.6423,-335.156C761.9431,-334.7912 860.9472,-334.2701 925.9524,-333.928"/>
<polygon fill="#191970" stroke="#191970" points="692.6221,-331.6559 682.6407,-335.2086 692.659,-338.6558 692.6221,-331.6559"/>
</g>
<!-- Node21&#45;&gt;Node9 -->
<g id="edge31" class="edge">
<title>Node21&#45;&gt;Node9</title>
<path fill="none" stroke="#191970" d="M692.7899,-345.1819C702.6276,-346.3374 712.5425,-347.4919 722,-348.5778 784.5494,-355.7592 855.27,-363.5925 908.7091,-369.4534"/>
<polygon fill="#191970" stroke="#191970" points="692.929,-341.6742 682.5882,-343.9802 692.1101,-348.6261 692.929,-341.6742"/>
</g>
<!-- Node21&#45;&gt;Node16 -->
<g id="edge32" class="edge">
<title>Node21&#45;&gt;Node16</title>
<path fill="none" stroke="#191970" d="M678.3681,-315.0266C680.9976,-313.6282 683.5534,-312.1464 686,-310.5778 705.5846,-298.0208 704.4583,-287.8593 722,-272.5778 737.9179,-258.7108 757.315,-244.8956 772.4623,-234.7103"/>
<polygon fill="#191970" stroke="#191970" points="676.6736,-311.9583 669.1969,-319.4649 679.7229,-318.2592 676.6736,-311.9583"/>
</g>
<!-- Node22 -->
<g id="node22" class="node">
<title>Node22</title>
<g id="a_node22"><a xlink:href="../../d4/d28/classQAG4SimulationJet.html#ac2803dd2fafe7d6131f3311c9f1e4e27" target="_top" xlink:title="QAG4SimulationJet::\lprocess_Spectrum">
<polygon fill="none" stroke="#000000" points="738.5,-425.5778 738.5,-457.5778 856.5,-457.5778 856.5,-425.5778 738.5,-425.5778"/>
<text text-anchor="start" x="746.5" y="-444.5778" font-family="FreeSans" font-size="10.00" fill="#000000">QAG4SimulationJet::</text>
<text text-anchor="middle" x="797.5" y="-432.5778" font-family="FreeSans" font-size="10.00" fill="#000000">process_Spectrum</text>
</a>
</g>
</g>
<!-- Node21&#45;&gt;Node22 -->
<g id="edge33" class="edge">
<title>Node21&#45;&gt;Node22</title>
<path fill="none" stroke="#191970" d="M649.6421,-356.8592C685.0059,-377.1217 737.4464,-407.1687 769.4418,-425.5011"/>
<polygon fill="#191970" stroke="#191970" points="651.0142,-353.6116 640.5975,-351.6769 647.5341,-359.6853 651.0142,-353.6116"/>
</g>
<!-- Node23 -->
<g id="node23" class="node">
<title>Node23</title>
<g id="a_node23"><a xlink:href="../../d0/dc8/classSoftLeptonTaggingTruth.html#a3989ff17a01ba304478d558b99c3214f" target="_top" xlink:title="SoftLeptonTaggingTruth\l::process_Spectrum">
<polygon fill="none" stroke="#000000" points="730,-487.5778 730,-519.5778 865,-519.5778 865,-487.5778 730,-487.5778"/>
<text text-anchor="start" x="738" y="-506.5778" font-family="FreeSans" font-size="10.00" fill="#000000">SoftLeptonTaggingTruth</text>
<text text-anchor="middle" x="797.5" y="-494.5778" font-family="FreeSans" font-size="10.00" fill="#000000">::process_Spectrum</text>
</a>
</g>
</g>
<!-- Node21&#45;&gt;Node23 -->
<g id="edge35" class="edge">
<title>Node21&#45;&gt;Node23</title>
<path fill="none" stroke="#191970" d="M628.1771,-360.3733C647.4022,-389.1853 682.3587,-436.7092 722,-467.5778 732.0825,-475.429 744.1547,-482.1364 755.6573,-487.5587"/>
<polygon fill="#191970" stroke="#191970" points="630.9132,-358.1632 622.5019,-351.7211 625.06,-362.0025 630.9132,-358.1632"/>
</g>
<!-- Node22&#45;&gt;Node13 -->
<g id="edge34" class="edge">
<title>Node22&#45;&gt;Node13</title>
<path fill="none" stroke="#191970" d="M866.8044,-447.3237C880.7652,-448.2632 895.344,-449.0885 909,-449.5778 1058.9583,-454.9505 1104.258,-462.2452 1244,-407.5778 1268.6891,-397.9193 1295.0008,-383.1255 1313.658,-371.7833"/>
<polygon fill="#191970" stroke="#191970" points="866.9896,-443.8282 856.7699,-446.6226 866.5016,-450.8112 866.9896,-443.8282"/>
</g>
<!-- Node24 -->
<g id="node24" class="node">
<title>Node24</title>
<g id="a_node24"><a xlink:href="../../d0/dc8/classSoftLeptonTaggingTruth.html#a152a3015fe9e7c089637c981a45787fe" target="_top" xlink:title="SoftLeptonTaggingTruth\l::process_event">
<polygon fill="none" stroke="#000000" points="925,-497.5778 925,-529.5778 1060,-529.5778 1060,-497.5778 925,-497.5778"/>
<text text-anchor="start" x="933" y="-516.5778" font-family="FreeSans" font-size="10.00" fill="#000000">SoftLeptonTaggingTruth</text>
<text text-anchor="middle" x="992.5" y="-504.5778" font-family="FreeSans" font-size="10.00" fill="#000000">::process_event</text>
</a>
</g>
</g>
<!-- Node23&#45;&gt;Node24 -->
<g id="edge36" class="edge">
<title>Node23&#45;&gt;Node24</title>
<path fill="none" stroke="#191970" d="M875.2732,-507.5661C891.7153,-508.4093 908.9386,-509.2926 924.9653,-510.1144"/>
<polygon fill="#191970" stroke="#191970" points="875.3204,-504.064 865.1543,-507.0472 874.9619,-511.0549 875.3204,-504.064"/>
</g>
</g>
</svg>
