<?xml version="1.0" encoding="UTF-8" standalone="no"?>
<!DOCTYPE svg PUBLIC "-//W3C//DTD SVG 1.1//EN"
 "http://www.w3.org/Graphics/SVG/1.1/DTD/svg11.dtd">
<!-- Generated by graphviz version 2.40.1 (20161225.0304)
 -->
<!-- Title: JetRecoEval::set_strict Pages: 1 -->
<svg width="466pt" height="92pt"
 viewBox="0.00 0.00 466.00 92.00" xmlns="http://www.w3.org/2000/svg" xmlns:xlink="http://www.w3.org/1999/xlink">
<g id="graph0" class="graph" transform="scale(1 1) rotate(0) translate(4 88)">
<title>JetRecoEval::set_strict</title>
<!-- Node1 -->
<g id="node1" class="node">
<title>Node1</title>
<polygon fill="#bfbfbf" stroke="#000000" points="0,-31.5 0,-51.5 129,-51.5 129,-31.5 0,-31.5"/>
<text text-anchor="middle" x="64.5" y="-38.5" font-family="FreeSans" font-size="10.00" fill="#000000">JetRecoEval::set_strict</text>
</g>
<!-- Node2 -->
<g id="node2" class="node">
<title>Node2</title>
<g id="a_node2"><a xlink:href="../../dd/df3/classJetEvalStack.html#aa717ed10fecde0ea2ac6c5030bdd6319" target="_top" xlink:title="JetEvalStack::set_strict">
<polygon fill="none" stroke="#000000" points="165,-31.5 165,-51.5 298,-51.5 298,-31.5 165,-31.5"/>
<text text-anchor="middle" x="231.5" y="-38.5" font-family="FreeSans" font-size="10.00" fill="#000000">JetEvalStack::set_strict</text>
</a>
</g>
</g>
<!-- Node1&#45;&gt;Node2 -->
<g id="edge1" class="edge">
<title>Node1&#45;&gt;Node2</title>
<path fill="none" stroke="#191970" d="M139.0824,-41.5C147.6832,-41.5 156.4117,-41.5 164.8973,-41.5"/>
<polygon fill="#191970" stroke="#191970" points="139.0666,-38.0001 129.0666,-41.5 139.0665,-45.0001 139.0666,-38.0001"/>
</g>
<!-- Node3 -->
<g id="node3" class="node">
<title>Node3</title>
<g id="a_node3"><a xlink:href="../../d1/df4/classJetEvaluator.html#ad83508ae828d1f2e4a83a948465a0cd2" target="_top" xlink:title="JetEvaluator::process\l_event">
<polygon fill="none" stroke="#000000" points="334,-51.5 334,-83.5 458,-83.5 458,-51.5 334,-51.5"/>
<text text-anchor="start" x="342" y="-70.5" font-family="FreeSans" font-size="10.00" fill="#000000">JetEvaluator::process</text>
<text text-anchor="middle" x="396" y="-58.5" font-family="FreeSans" font-size="10.00" fill="#000000">_event</text>
</a>
</g>
</g>
<!-- Node2&#45;&gt;Node3 -->
<g id="edge2" class="edge">
<title>Node2&#45;&gt;Node3</title>
<path fill="none" stroke="#191970" d="M305.063,-53.127C314.701,-54.6503 324.4998,-56.1991 333.9222,-57.6883"/>
<polygon fill="#191970" stroke="#191970" points="305.5238,-49.6564 295.1,-51.5523 304.4309,-56.5706 305.5238,-49.6564"/>
</g>
<!-- Node4 -->
<g id="node4" class="node">
<title>Node4</title>
<g id="a_node4"><a xlink:href="../../d8/de2/classJetEnergies.html#a6acaa9b2ba1fe7353781d2f5d476e8d1" target="_top" xlink:title="JetEnergies::process\l_event">
<polygon fill="none" stroke="#000000" points="336,-.5 336,-32.5 456,-32.5 456,-.5 336,-.5"/>
<text text-anchor="start" x="344" y="-19.5" font-family="FreeSans" font-size="10.00" fill="#000000">JetEnergies::process</text>
<text text-anchor="middle" x="396" y="-7.5" font-family="FreeSans" font-size="10.00" fill="#000000">_event</text>
</a>
</g>
</g>
<!-- Node2&#45;&gt;Node4 -->
<g id="edge3" class="edge">
<title>Node2&#45;&gt;Node4</title>
<path fill="none" stroke="#191970" d="M307.3632,-29.9706C316.927,-28.5172 326.6066,-27.0461 335.8807,-25.6367"/>
<polygon fill="#191970" stroke="#191970" points="306.8212,-26.5127 297.4606,-31.4756 307.873,-33.4333 306.8212,-26.5127"/>
</g>
</g>
</svg>
