<?xml version="1.0" encoding="UTF-8" standalone="no"?>
<!DOCTYPE svg PUBLIC "-//W3C//DTD SVG 1.1//EN"
 "http://www.w3.org/Graphics/SVG/1.1/DTD/svg11.dtd">
<!-- Generated by graphviz version 2.40.1 (20161225.0304)
 -->
<!-- Title: coresoftware/blob/master/generators/PHPythia8/PHPy8GenTrigger.cc Pages: 1 -->
<svg width="253pt" height="167pt"
 viewBox="0.00 0.00 253.00 167.00" xmlns="http://www.w3.org/2000/svg" xmlns:xlink="http://www.w3.org/1999/xlink">
<g id="graph0" class="graph" transform="scale(1 1) rotate(0) translate(4 163)">
<title>coresoftware/blob/master/generators/PHPythia8/PHPy8GenTrigger.cc</title>
<!-- Node1 -->
<g id="node1" class="node">
<title>Node1</title>
<polygon fill="#bfbfbf" stroke="#000000" points="59,-114.5 59,-158.5 245,-158.5 245,-114.5 59,-114.5"/>
<text text-anchor="start" x="67" y="-145.5" font-family="FreeSans" font-size="10.00" fill="#000000">coresoftware/blob/master</text>
<text text-anchor="start" x="67" y="-133.5" font-family="FreeSans" font-size="10.00" fill="#000000">/generators/PHPythia8/PHPy8Gen</text>
<text text-anchor="middle" x="152" y="-121.5" font-family="FreeSans" font-size="10.00" fill="#000000">Trigger.cc</text>
</g>
<!-- Node2 -->
<g id="node2" class="node">
<title>Node2</title>
<g id="a_node2"><a xlink:href="../../d8/de1/PHPy8GenTrigger_8h.html" target="_top" xlink:title="PHPy8GenTrigger.h">
<polygon fill="none" stroke="#000000" points="45,-57.5 45,-77.5 157,-77.5 157,-57.5 45,-57.5"/>
<text text-anchor="middle" x="101" y="-64.5" font-family="FreeSans" font-size="10.00" fill="#000000">PHPy8GenTrigger.h</text>
</a>
</g>
</g>
<!-- Node1&#45;&gt;Node2 -->
<g id="edge1" class="edge">
<title>Node1&#45;&gt;Node2</title>
<path fill="none" stroke="#191970" d="M135.5826,-114.2882C128.8397,-105.1655 121.1222,-94.7242 114.6909,-86.023"/>
<polygon fill="#191970" stroke="#191970" points="117.3078,-83.6751 108.5492,-77.7137 111.6786,-87.8358 117.3078,-83.6751"/>
</g>
<!-- Node6 -->
<g id="node6" class="node">
<title>Node6</title>
<polygon fill="none" stroke="#bfbfbf" points="175,-57.5 175,-77.5 231,-77.5 231,-57.5 175,-57.5"/>
<text text-anchor="middle" x="203" y="-64.5" font-family="FreeSans" font-size="10.00" fill="#000000">sstream</text>
</g>
<!-- Node1&#45;&gt;Node6 -->
<g id="edge5" class="edge">
<title>Node1&#45;&gt;Node6</title>
<path fill="none" stroke="#191970" d="M168.4174,-114.2882C175.1603,-105.1655 182.8778,-94.7242 189.3091,-86.023"/>
<polygon fill="#191970" stroke="#191970" points="192.3214,-87.8358 195.4508,-77.7137 186.6922,-83.6751 192.3214,-87.8358"/>
</g>
<!-- Node3 -->
<g id="node3" class="node">
<title>Node3</title>
<polygon fill="none" stroke="#bfbfbf" points="0,-.5 0,-20.5 60,-20.5 60,-.5 0,-.5"/>
<text text-anchor="middle" x="30" y="-7.5" font-family="FreeSans" font-size="10.00" fill="#000000">iostream</text>
</g>
<!-- Node2&#45;&gt;Node3 -->
<g id="edge2" class="edge">
<title>Node2&#45;&gt;Node3</title>
<path fill="none" stroke="#191970" d="M88.3066,-57.3095C77.8064,-48.8798 62.6898,-36.7439 50.4798,-26.9415"/>
<polygon fill="#191970" stroke="#191970" points="52.5726,-24.1333 42.5835,-20.6022 48.1903,-29.5919 52.5726,-24.1333"/>
</g>
<!-- Node4 -->
<g id="node4" class="node">
<title>Node4</title>
<polygon fill="none" stroke="#bfbfbf" points="78.5,-.5 78.5,-20.5 123.5,-20.5 123.5,-.5 78.5,-.5"/>
<text text-anchor="middle" x="101" y="-7.5" font-family="FreeSans" font-size="10.00" fill="#000000">string</text>
</g>
<!-- Node2&#45;&gt;Node4 -->
<g id="edge3" class="edge">
<title>Node2&#45;&gt;Node4</title>
<path fill="none" stroke="#191970" d="M101,-57.3095C101,-49.9335 101,-39.72 101,-30.715"/>
<polygon fill="#191970" stroke="#191970" points="104.5001,-30.6022 101,-20.6022 97.5001,-30.6023 104.5001,-30.6022"/>
</g>
<!-- Node5 -->
<g id="node5" class="node">
<title>Node5</title>
<polygon fill="none" stroke="#bfbfbf" points="141.5,-.5 141.5,-20.5 190.5,-20.5 190.5,-.5 141.5,-.5"/>
<text text-anchor="middle" x="166" y="-7.5" font-family="FreeSans" font-size="10.00" fill="#000000">vector</text>
</g>
<!-- Node2&#45;&gt;Node5 -->
<g id="edge4" class="edge">
<title>Node2&#45;&gt;Node5</title>
<path fill="none" stroke="#191970" d="M112.6207,-57.3095C122.1412,-48.9608 135.807,-36.9769 146.9277,-27.2249"/>
<polygon fill="#191970" stroke="#191970" points="149.2689,-29.827 154.4799,-20.6022 144.6536,-24.564 149.2689,-29.827"/>
</g>
</g>
</svg>
