<?xml version="1.0" encoding="UTF-8" standalone="no"?>
<!DOCTYPE svg PUBLIC "-//W3C//DTD SVG 1.1//EN"
 "http://www.w3.org/Graphics/SVG/1.1/DTD/svg11.dtd">
<!-- Generated by graphviz version 2.40.1 (20161225.0304)
 -->
<!-- Title: PHG4DstCompressReco Pages: 1 -->
<svg width="1446pt" height="578pt"
 viewBox="0.00 0.00 1446.00 578.00" xmlns="http://www.w3.org/2000/svg" xmlns:xlink="http://www.w3.org/1999/xlink">
<g id="graph0" class="graph" transform="scale(1 1) rotate(0) translate(4 574)">
<title>PHG4DstCompressReco</title>
<!-- Node1 -->
<g id="node1" class="node">
<title>Node1</title>
<polygon fill="#bfbfbf" stroke="#000000" points="1303,-408.5 1303,-428.5 1438,-428.5 1438,-408.5 1303,-408.5"/>
<text text-anchor="middle" x="1370.5" y="-415.5" font-family="FreeSans" font-size="10.00" fill="#000000">PHG4DstCompressReco</text>
</g>
<!-- Node2 -->
<g id="node2" class="node">
<title>Node2</title>
<g id="a_node2"><a xlink:href="../../d0/d32/classSubsysReco.html" target="_top" xlink:title="SubsysReco">
<polygon fill="none" stroke="#000000" points="1070,-547.5 1070,-567.5 1146,-567.5 1146,-547.5 1070,-547.5"/>
<text text-anchor="middle" x="1108" y="-554.5" font-family="FreeSans" font-size="10.00" fill="#000000">SubsysReco</text>
</a>
</g>
</g>
<!-- Node2&#45;&gt;Node1 -->
<g id="edge1" class="edge">
<title>Node2&#45;&gt;Node1</title>
<path fill="none" stroke="#191970" d="M1156.2491,-549.8455C1193.4352,-542.3938 1245.0758,-528.5719 1285,-504.5 1319.2569,-483.8451 1349.7607,-446.4774 1363.2123,-428.5825"/>
<polygon fill="#191970" stroke="#191970" points="1155.3264,-546.4586 1146.1658,-551.7815 1156.6464,-553.333 1155.3264,-546.4586"/>
</g>
<!-- Node3 -->
<g id="node3" class="node">
<title>Node3</title>
<g id="a_node3"><a xlink:href="../../d5/dec/classFun4AllBase.html" target="_top" xlink:title="Fun4AllBase">
<polygon fill="none" stroke="#000000" points="743.5,-549.5 743.5,-569.5 821.5,-569.5 821.5,-549.5 743.5,-549.5"/>
<text text-anchor="middle" x="782.5" y="-556.5" font-family="FreeSans" font-size="10.00" fill="#000000">Fun4AllBase</text>
</a>
</g>
</g>
<!-- Node3&#45;&gt;Node2 -->
<g id="edge2" class="edge">
<title>Node3&#45;&gt;Node2</title>
<path fill="none" stroke="#191970" d="M831.7916,-559.1971C896.9599,-558.7967 1010.4302,-558.0995 1069.6086,-557.7359"/>
<polygon fill="#191970" stroke="#191970" points="831.7412,-555.6973 821.7629,-559.2588 831.7843,-562.6971 831.7412,-555.6973"/>
</g>
<!-- Node4 -->
<g id="node4" class="node">
<title>Node4</title>
<g id="a_node4"><a xlink:title="STL class.">
<polygon fill="none" stroke="#bfbfbf" points="445,-535.5 445,-555.5 512,-555.5 512,-535.5 445,-535.5"/>
<text text-anchor="middle" x="478.5" y="-542.5" font-family="FreeSans" font-size="10.00" fill="#000000">std::string</text>
</a>
</g>
</g>
<!-- Node4&#45;&gt;Node3 -->
<g id="edge3" class="edge">
<title>Node4&#45;&gt;Node3</title>
<path fill="none" stroke="#9a32cd" stroke-dasharray="5,2" d="M522.3689,-547.5203C581.7019,-550.2527 686.6205,-555.0845 743.3918,-557.699"/>
<polygon fill="#9a32cd" stroke="#9a32cd" points="522.3453,-544.0156 512.1948,-547.0517 522.0232,-551.0082 522.3453,-544.0156"/>
<text text-anchor="middle" x="641" y="-557.5" font-family="FreeSans" font-size="10.00" fill="#000000"> m_ThisName</text>
</g>
<!-- Node12 -->
<g id="node12" class="node">
<title>Node12</title>
<polygon fill="none" stroke="#bfbfbf" points="870,-495.5 870,-515.5 998,-515.5 998,-495.5 870,-495.5"/>
<text text-anchor="middle" x="934" y="-502.5" font-family="FreeSans" font-size="10.00" fill="#000000">std::set&lt; std::string &gt;</text>
</g>
<!-- Node4&#45;&gt;Node12 -->
<g id="edge13" class="edge">
<title>Node4&#45;&gt;Node12</title>
<path fill="none" stroke="#9a32cd" stroke-dasharray="5,2" d="M522.1652,-540.8956C541.9517,-538.8549 565.6476,-536.4745 587,-534.5 685.5714,-525.385 800.0158,-516.0655 869.6964,-510.5324"/>
<polygon fill="#9a32cd" stroke="#9a32cd" points="521.7934,-537.4153 512.2076,-541.9279 522.5152,-544.378 521.7934,-537.4153"/>
<text text-anchor="middle" x="641" y="-537.5" font-family="FreeSans" font-size="10.00" fill="#000000"> keys</text>
</g>
<!-- Node5 -->
<g id="node5" class="node">
<title>Node5</title>
<g id="a_node5"><a xlink:title="STL class.">
<polygon fill="none" stroke="#bfbfbf" points="194,-529.5 194,-561.5 301,-561.5 301,-529.5 194,-529.5"/>
<text text-anchor="start" x="202" y="-548.5" font-family="FreeSans" font-size="10.00" fill="#000000">std::basic_string&lt;</text>
<text text-anchor="middle" x="247.5" y="-536.5" font-family="FreeSans" font-size="10.00" fill="#000000"> char &gt;</text>
</a>
</g>
</g>
<!-- Node5&#45;&gt;Node4 -->
<g id="edge4" class="edge">
<title>Node5&#45;&gt;Node4</title>
<path fill="none" stroke="#191970" d="M311.228,-545.5C354.4859,-545.5 409.9606,-545.5 444.8797,-545.5"/>
<polygon fill="#191970" stroke="#191970" points="311.0767,-542.0001 301.0767,-545.5 311.0766,-549.0001 311.0767,-542.0001"/>
</g>
<!-- Node6 -->
<g id="node6" class="node">
<title>Node6</title>
<polygon fill="none" stroke="#bfbfbf" points="1016,-429.5 1016,-449.5 1200,-449.5 1200,-429.5 1016,-429.5"/>
<text text-anchor="middle" x="1108" y="-436.5" font-family="FreeSans" font-size="10.00" fill="#000000">std::set&lt; RawTowerContainer * &gt;</text>
</g>
<!-- Node6&#45;&gt;Node1 -->
<g id="edge5" class="edge">
<title>Node6&#45;&gt;Node1</title>
<path fill="none" stroke="#9a32cd" stroke-dasharray="5,2" d="M1210.1892,-431.3249C1241.2992,-428.8361 1274.7026,-426.1638 1302.923,-423.9062"/>
<polygon fill="#9a32cd" stroke="#9a32cd" points="1209.8676,-427.8393 1200.1786,-432.1257 1210.4259,-434.817 1209.8676,-427.8393"/>
<text text-anchor="middle" x="1251.5" y="-432.5" font-family="FreeSans" font-size="10.00" fill="#000000"> _towers</text>
</g>
<!-- Node7 -->
<g id="node7" class="node">
<title>Node7</title>
<g id="a_node7"><a xlink:href="../../d3/dc7/classRawTowerContainer.html" target="_top" xlink:title="RawTowerContainer">
<polygon fill="none" stroke="#000000" points="724.5,-432.5 724.5,-452.5 840.5,-452.5 840.5,-432.5 724.5,-432.5"/>
<text text-anchor="middle" x="782.5" y="-439.5" font-family="FreeSans" font-size="10.00" fill="#000000">RawTowerContainer</text>
</a>
</g>
</g>
<!-- Node7&#45;&gt;Node6 -->
<g id="edge6" class="edge">
<title>Node7&#45;&gt;Node6</title>
<path fill="none" stroke="#9a32cd" stroke-dasharray="5,2" d="M850.9597,-441.869C898.8733,-441.4274 963.4307,-440.8324 1015.8603,-440.3492"/>
<polygon fill="#9a32cd" stroke="#9a32cd" points="850.6602,-438.3716 840.6929,-441.9637 850.7247,-445.3713 850.6602,-438.3716"/>
<text text-anchor="middle" x="934" y="-444.5" font-family="FreeSans" font-size="10.00" fill="#000000"> keys</text>
</g>
<!-- Node8 -->
<g id="node8" class="node">
<title>Node8</title>
<g id="a_node8"><a xlink:href="../../d9/d24/classPHObject.html" target="_top" xlink:title="PHObject">
<polygon fill="none" stroke="#000000" points="94,-207.5 94,-227.5 157,-227.5 157,-207.5 94,-207.5"/>
<text text-anchor="middle" x="125.5" y="-214.5" font-family="FreeSans" font-size="10.00" fill="#000000">PHObject</text>
</a>
</g>
</g>
<!-- Node8&#45;&gt;Node7 -->
<g id="edge7" class="edge">
<title>Node8&#45;&gt;Node7</title>
<path fill="none" stroke="#191970" d="M127.78,-237.4593C134.3725,-290.9182 155.4838,-434.8883 194,-458.5 381.1279,-573.2154 668.4313,-484.2097 756.1607,-452.5477"/>
<polygon fill="#191970" stroke="#191970" points="131.2521,-237.0166 126.5926,-227.5014 124.3014,-237.8455 131.2521,-237.0166"/>
</g>
<!-- Node11 -->
<g id="node11" class="node">
<title>Node11</title>
<g id="a_node11"><a xlink:href="../../d9/dd8/classRawTower.html" target="_top" xlink:title="RawTower">
<polygon fill="none" stroke="#000000" points="214,-428.5 214,-448.5 281,-448.5 281,-428.5 214,-428.5"/>
<text text-anchor="middle" x="247.5" y="-435.5" font-family="FreeSans" font-size="10.00" fill="#000000">RawTower</text>
</a>
</g>
</g>
<!-- Node8&#45;&gt;Node11 -->
<g id="edge11" class="edge">
<title>Node8&#45;&gt;Node11</title>
<path fill="none" stroke="#191970" d="M128.2706,-237.8273C134.6876,-282.1718 151.8103,-385.6945 175,-411.5 184.9651,-422.5891 199.9188,-429.138 213.6616,-432.9991"/>
<polygon fill="#191970" stroke="#191970" points="131.7023,-237.0963 126.8413,-227.6824 124.7708,-238.073 131.7023,-237.0963"/>
</g>
<!-- Node14 -->
<g id="node14" class="node">
<title>Node14</title>
<g id="a_node14"><a xlink:href="../../d4/d97/classPHG4CellContainer.html" target="_top" xlink:title="PHG4CellContainer">
<polygon fill="none" stroke="#000000" points="726,-387.5 726,-407.5 839,-407.5 839,-387.5 726,-387.5"/>
<text text-anchor="middle" x="782.5" y="-394.5" font-family="FreeSans" font-size="10.00" fill="#000000">PHG4CellContainer</text>
</a>
</g>
</g>
<!-- Node8&#45;&gt;Node14 -->
<g id="edge16" class="edge">
<title>Node8&#45;&gt;Node14</title>
<path fill="none" stroke="#191970" d="M130.595,-237.4749C138.8783,-265.644 158.0739,-316.4987 194,-342.5 277.8554,-403.1899 595.0455,-402.3815 725.7139,-399.3134"/>
<polygon fill="#191970" stroke="#191970" points="133.8949,-236.2754 127.8596,-227.5676 127.1473,-238.1384 133.8949,-236.2754"/>
</g>
<!-- Node16 -->
<g id="node16" class="node">
<title>Node16</title>
<g id="a_node16"><a xlink:href="../../dc/dfe/classPHG4Cell.html" target="_top" xlink:title="PHG4Cell">
<polygon fill="none" stroke="#000000" points="216,-312.5 216,-332.5 279,-332.5 279,-312.5 216,-312.5"/>
<text text-anchor="middle" x="247.5" y="-319.5" font-family="FreeSans" font-size="10.00" fill="#000000">PHG4Cell</text>
</a>
</g>
</g>
<!-- Node8&#45;&gt;Node16 -->
<g id="edge19" class="edge">
<title>Node8&#45;&gt;Node16</title>
<path fill="none" stroke="#191970" d="M143.1537,-234.8942C156.736,-248.0531 176.1423,-266.3771 194,-281.5 207.0379,-292.5412 222.6056,-304.3241 233.577,-312.4114"/>
<polygon fill="#191970" stroke="#191970" points="145.4885,-232.2823 135.8854,-227.8066 140.6014,-237.2939 145.4885,-232.2823"/>
</g>
<!-- Node18 -->
<g id="node18" class="node">
<title>Node18</title>
<g id="a_node18"><a xlink:href="../../d4/d30/classPHG4HitContainer.html" target="_top" xlink:title="PHG4HitContainer">
<polygon fill="none" stroke="#000000" points="728,-262.5 728,-282.5 837,-282.5 837,-262.5 728,-262.5"/>
<text text-anchor="middle" x="782.5" y="-269.5" font-family="FreeSans" font-size="10.00" fill="#000000">PHG4HitContainer</text>
</a>
</g>
</g>
<!-- Node8&#45;&gt;Node18 -->
<g id="edge22" class="edge">
<title>Node8&#45;&gt;Node18</title>
<path fill="none" stroke="#191970" d="M167.0772,-215.6711C245.7916,-212.7589 421.8804,-208.8726 569,-224.5 625.7723,-230.5305 639.366,-236.6815 695,-249.5 711.9896,-253.4145 730.6964,-258.2585 746.4371,-262.49"/>
<polygon fill="#191970" stroke="#191970" points="166.9333,-212.174 157.0752,-216.0557 167.2023,-219.1688 166.9333,-212.174"/>
</g>
<!-- Node21 -->
<g id="node21" class="node">
<title>Node21</title>
<g id="a_node21"><a xlink:href="../../d3/d9e/classPHG4Hit.html" target="_top" xlink:title="PHG4Hit">
<polygon fill="none" stroke="#000000" points="218,-252.5 218,-272.5 277,-272.5 277,-252.5 218,-252.5"/>
<text text-anchor="middle" x="247.5" y="-259.5" font-family="FreeSans" font-size="10.00" fill="#000000">PHG4Hit</text>
</a>
</g>
</g>
<!-- Node8&#45;&gt;Node21 -->
<g id="edge26" class="edge">
<title>Node8&#45;&gt;Node21</title>
<path fill="none" stroke="#191970" d="M162.5047,-231.1493C181.0851,-238.0027 203.199,-246.1595 220.2122,-252.4348"/>
<polygon fill="#191970" stroke="#191970" points="163.4725,-227.7758 152.8792,-227.5989 161.0501,-234.3433 163.4725,-227.7758"/>
</g>
<!-- Node22 -->
<g id="node22" class="node">
<title>Node22</title>
<g id="a_node22"><a xlink:href="../../da/d6c/classPHG4TruthInfoContainer.html" target="_top" xlink:title="PHG4TruthInfoContainer">
<polygon fill="none" stroke="#000000" points="713,-104.5 713,-124.5 852,-124.5 852,-104.5 713,-104.5"/>
<text text-anchor="middle" x="782.5" y="-111.5" font-family="FreeSans" font-size="10.00" fill="#000000">PHG4TruthInfoContainer</text>
</a>
</g>
</g>
<!-- Node8&#45;&gt;Node22 -->
<g id="edge28" class="edge">
<title>Node8&#45;&gt;Node22</title>
<path fill="none" stroke="#191970" d="M137.3515,-198.8542C149.337,-181.8328 169.5536,-157.6767 194,-146.5 240.0921,-125.427 567.3291,-117.8051 712.933,-115.4359"/>
<polygon fill="#191970" stroke="#191970" points="134.2466,-197.1989 131.5651,-207.4488 140.0532,-201.1083 134.2466,-197.1989"/>
</g>
<!-- Node24 -->
<g id="node24" class="node">
<title>Node24</title>
<g id="a_node24"><a xlink:href="../../de/dc9/classPHG4Particle.html" target="_top" xlink:title="PHG4Particle">
<polygon fill="none" stroke="#000000" points="207,-78.5 207,-98.5 288,-98.5 288,-78.5 207,-78.5"/>
<text text-anchor="middle" x="247.5" y="-85.5" font-family="FreeSans" font-size="10.00" fill="#000000">PHG4Particle</text>
</a>
</g>
</g>
<!-- Node8&#45;&gt;Node24 -->
<g id="edge31" class="edge">
<title>Node8&#45;&gt;Node24</title>
<path fill="none" stroke="#191970" d="M130.0119,-197.5162C136.2685,-174.2212 149.7719,-136.0459 175,-113.5 183.9347,-105.5152 195.5479,-100.0549 206.852,-96.3308"/>
<polygon fill="#191970" stroke="#191970" points="126.585,-196.7939 127.5669,-207.3431 133.3779,-198.4841 126.585,-196.7939"/>
</g>
<!-- Node27 -->
<g id="node27" class="node">
<title>Node27</title>
<g id="a_node27"><a xlink:href="../../db/d88/classPHG4Shower.html" target="_top" xlink:title="PHG4Shower">
<polygon fill="none" stroke="#000000" points="206.5,-29.5 206.5,-49.5 288.5,-49.5 288.5,-29.5 206.5,-29.5"/>
<text text-anchor="middle" x="247.5" y="-36.5" font-family="FreeSans" font-size="10.00" fill="#000000">PHG4Shower</text>
</a>
</g>
</g>
<!-- Node8&#45;&gt;Node27 -->
<g id="edge35" class="edge">
<title>Node8&#45;&gt;Node27</title>
<path fill="none" stroke="#191970" d="M130.3904,-197.1121C138.7458,-166.0236 158.4151,-106.3917 194,-68.5 201.5218,-60.4906 211.7617,-54.2027 221.2699,-49.5595"/>
<polygon fill="#191970" stroke="#191970" points="126.9022,-196.6258 127.8155,-207.1812 133.684,-198.3601 126.9022,-196.6258"/>
</g>
<!-- Node29 -->
<g id="node29" class="node">
<title>Node29</title>
<g id="a_node29"><a xlink:href="../../d6/d81/classPHG4VtxPoint.html" target="_top" xlink:title="PHG4VtxPoint">
<polygon fill="none" stroke="#000000" points="204,-156.5 204,-176.5 291,-176.5 291,-156.5 204,-156.5"/>
<text text-anchor="middle" x="247.5" y="-163.5" font-family="FreeSans" font-size="10.00" fill="#000000">PHG4VtxPoint</text>
</a>
</g>
</g>
<!-- Node8&#45;&gt;Node29 -->
<g id="edge38" class="edge">
<title>Node8&#45;&gt;Node29</title>
<path fill="none" stroke="#191970" d="M151.9127,-202.6821C159.277,-198.8114 167.3561,-194.8028 175,-191.5 187.8331,-185.9551 202.3356,-180.753 214.9792,-176.5454"/>
<polygon fill="#191970" stroke="#191970" points="150.202,-199.628 143.0532,-207.4476 153.518,-205.7927 150.202,-199.628"/>
</g>
<!-- Node9 -->
<g id="node9" class="node">
<title>Node9</title>
<polygon fill="none" stroke="#bfbfbf" points="0,-207.5 0,-227.5 57,-227.5 57,-207.5 0,-207.5"/>
<text text-anchor="middle" x="28.5" y="-214.5" font-family="FreeSans" font-size="10.00" fill="#000000">TObject</text>
</g>
<!-- Node9&#45;&gt;Node8 -->
<g id="edge8" class="edge">
<title>Node9&#45;&gt;Node8</title>
<path fill="none" stroke="#191970" d="M67.1481,-217.5C75.9663,-217.5 85.2382,-217.5 93.7302,-217.5"/>
<polygon fill="#191970" stroke="#191970" points="67.0786,-214.0001 57.0786,-217.5 67.0785,-221.0001 67.0786,-214.0001"/>
</g>
<!-- Node10 -->
<g id="node10" class="node">
<title>Node10</title>
<polygon fill="none" stroke="#bfbfbf" points="405.5,-426.5 405.5,-458.5 551.5,-458.5 551.5,-426.5 405.5,-426.5"/>
<text text-anchor="start" x="413.5" y="-445.5" font-family="FreeSans" font-size="10.00" fill="#000000">std::map&lt; RawTowerDefs</text>
<text text-anchor="middle" x="478.5" y="-433.5" font-family="FreeSans" font-size="10.00" fill="#000000">::keytype, RawTower * &gt;</text>
</g>
<!-- Node10&#45;&gt;Node7 -->
<g id="edge9" class="edge">
<title>Node10&#45;&gt;Node7</title>
<path fill="none" stroke="#9a32cd" stroke-dasharray="5,2" d="M561.8145,-442.5C613.3106,-442.5 678.1254,-442.5 724.1591,-442.5"/>
<polygon fill="#9a32cd" stroke="#9a32cd" points="561.7025,-439.0001 551.7024,-442.5 561.7024,-446.0001 561.7025,-439.0001"/>
<text text-anchor="middle" x="641" y="-445.5" font-family="FreeSans" font-size="10.00" fill="#000000"> _towers</text>
</g>
<!-- Node11&#45;&gt;Node10 -->
<g id="edge10" class="edge">
<title>Node11&#45;&gt;Node10</title>
<path fill="none" stroke="#9a32cd" stroke-dasharray="5,2" d="M291.4851,-439.2616C323.5947,-439.8177 367.8634,-440.5842 405.2701,-441.2319"/>
<polygon fill="#9a32cd" stroke="#9a32cd" points="291.1485,-435.7554 281.0894,-439.0816 291.0273,-442.7543 291.1485,-435.7554"/>
<text text-anchor="middle" x="344.5" y="-443.5" font-family="FreeSans" font-size="10.00" fill="#000000"> elements</text>
</g>
<!-- Node12&#45;&gt;Node1 -->
<g id="edge12" class="edge">
<title>Node12&#45;&gt;Node1</title>
<path fill="none" stroke="#9a32cd" stroke-dasharray="5,2" d="M1008.5177,-495.7752C1079.9848,-485.7414 1190.6506,-468.3482 1285,-445.5 1304.2138,-440.8471 1325.4063,-434.1658 1341.8855,-428.6138"/>
<polygon fill="#9a32cd" stroke="#9a32cd" points="1007.6866,-492.3571 998.2644,-497.202 1008.6514,-499.2903 1007.6866,-492.3571"/>
<text text-anchor="middle" x="1108" y="-520.5" font-family="FreeSans" font-size="10.00" fill="#000000"> _compress_g4cell_names</text>
<text text-anchor="middle" x="1108" y="-508.5" font-family="FreeSans" font-size="10.00" fill="#000000">_compress_tower_names</text>
<text text-anchor="middle" x="1108" y="-496.5" font-family="FreeSans" font-size="10.00" fill="#000000">_compress_g4hit_names</text>
</g>
<!-- Node13 -->
<g id="node13" class="node">
<title>Node13</title>
<polygon fill="none" stroke="#bfbfbf" points="1017.5,-387.5 1017.5,-407.5 1198.5,-407.5 1198.5,-387.5 1017.5,-387.5"/>
<text text-anchor="middle" x="1108" y="-394.5" font-family="FreeSans" font-size="10.00" fill="#000000">std::set&lt; PHG4CellContainer * &gt;</text>
</g>
<!-- Node13&#45;&gt;Node1 -->
<g id="edge14" class="edge">
<title>Node13&#45;&gt;Node1</title>
<path fill="none" stroke="#9a32cd" stroke-dasharray="5,2" d="M1208.7486,-403.6791C1233.6831,-405.3878 1260.323,-407.3654 1285,-409.5 1290.7994,-410.0016 1296.8161,-410.5593 1302.8494,-411.1443"/>
<polygon fill="#9a32cd" stroke="#9a32cd" points="1208.7627,-400.1721 1198.5491,-402.9884 1208.2897,-407.1561 1208.7627,-400.1721"/>
<text text-anchor="middle" x="1251.5" y="-412.5" font-family="FreeSans" font-size="10.00" fill="#000000"> _g4cells</text>
</g>
<!-- Node14&#45;&gt;Node13 -->
<g id="edge15" class="edge">
<title>Node14&#45;&gt;Node13</title>
<path fill="none" stroke="#9a32cd" stroke-dasharray="5,2" d="M849.2676,-397.5C897.7678,-397.5 963.9628,-397.5 1017.2558,-397.5"/>
<polygon fill="#9a32cd" stroke="#9a32cd" points="849.1978,-394.0001 839.1978,-397.5 849.1977,-401.0001 849.1978,-394.0001"/>
<text text-anchor="middle" x="934" y="-400.5" font-family="FreeSans" font-size="10.00" fill="#000000"> keys</text>
</g>
<!-- Node15 -->
<g id="node15" class="node">
<title>Node15</title>
<polygon fill="none" stroke="#bfbfbf" points="407.5,-336.5 407.5,-368.5 549.5,-368.5 549.5,-336.5 407.5,-336.5"/>
<text text-anchor="start" x="415.5" y="-355.5" font-family="FreeSans" font-size="10.00" fill="#000000">std::map&lt; PHG4CellDefs</text>
<text text-anchor="middle" x="478.5" y="-343.5" font-family="FreeSans" font-size="10.00" fill="#000000">::keytype, PHG4Cell * &gt;</text>
</g>
<!-- Node15&#45;&gt;Node14 -->
<g id="edge17" class="edge">
<title>Node15&#45;&gt;Node14</title>
<path fill="none" stroke="#9a32cd" stroke-dasharray="5,2" d="M559.859,-355.7582C600.6889,-358.374 650.7506,-363.0732 695,-371.5 715.0823,-375.3244 737.1435,-381.8965 754.09,-387.476"/>
<polygon fill="#9a32cd" stroke="#9a32cd" points="559.8813,-352.2531 549.6865,-355.1371 559.4546,-359.2401 559.8813,-352.2531"/>
<text text-anchor="middle" x="641" y="-374.5" font-family="FreeSans" font-size="10.00" fill="#000000"> cellmap</text>
</g>
<!-- Node16&#45;&gt;Node15 -->
<g id="edge18" class="edge">
<title>Node16&#45;&gt;Node15</title>
<path fill="none" stroke="#9a32cd" stroke-dasharray="5,2" d="M289.2997,-327.9285C322.1707,-332.1975 368.7188,-338.2427 407.4183,-343.2686"/>
<polygon fill="#9a32cd" stroke="#9a32cd" points="289.5027,-324.4256 279.1352,-326.6085 288.6011,-331.3673 289.5027,-324.4256"/>
<text text-anchor="middle" x="344.5" y="-340.5" font-family="FreeSans" font-size="10.00" fill="#000000"> elements</text>
</g>
<!-- Node17 -->
<g id="node17" class="node">
<title>Node17</title>
<polygon fill="none" stroke="#bfbfbf" points="1020,-298.5 1020,-318.5 1196,-318.5 1196,-298.5 1020,-298.5"/>
<text text-anchor="middle" x="1108" y="-305.5" font-family="FreeSans" font-size="10.00" fill="#000000">std::set&lt; PHG4HitContainer * &gt;</text>
</g>
<!-- Node17&#45;&gt;Node1 -->
<g id="edge20" class="edge">
<title>Node17&#45;&gt;Node1</title>
<path fill="none" stroke="#9a32cd" stroke-dasharray="5,2" d="M1146.1692,-322.0381C1182.2891,-335.1132 1237.8456,-355.9098 1285,-376.5 1308.1888,-386.6255 1334.1998,-399.65 1351.3766,-408.4915"/>
<polygon fill="#9a32cd" stroke="#9a32cd" points="1147.1145,-318.6585 1136.5201,-318.5616 1144.7417,-325.2441 1147.1145,-318.6585"/>
<text text-anchor="middle" x="1251.5" y="-391.5" font-family="FreeSans" font-size="10.00" fill="#000000"> _g4hits</text>
<text text-anchor="middle" x="1251.5" y="-379.5" font-family="FreeSans" font-size="10.00" fill="#000000">_keep_g4hits</text>
</g>
<!-- Node18&#45;&gt;Node17 -->
<g id="edge21" class="edge">
<title>Node18&#45;&gt;Node17</title>
<path fill="none" stroke="#9a32cd" stroke-dasharray="5,2" d="M847.5876,-279.6986C896.9809,-285.1615 965.4187,-292.7306 1019.7398,-298.7385"/>
<polygon fill="#9a32cd" stroke="#9a32cd" points="847.6727,-276.1868 837.3486,-278.5662 846.9032,-283.1444 847.6727,-276.1868"/>
<text text-anchor="middle" x="934" y="-298.5" font-family="FreeSans" font-size="10.00" fill="#000000"> keys</text>
</g>
<!-- Node19 -->
<g id="node19" class="node">
<title>Node19</title>
<polygon fill="none" stroke="#bfbfbf" points="422.5,-234.5 422.5,-266.5 534.5,-266.5 534.5,-234.5 422.5,-234.5"/>
<text text-anchor="start" x="430.5" y="-253.5" font-family="FreeSans" font-size="10.00" fill="#000000">std::set&lt; unsigned</text>
<text text-anchor="middle" x="478.5" y="-241.5" font-family="FreeSans" font-size="10.00" fill="#000000"> int &gt;</text>
</g>
<!-- Node19&#45;&gt;Node18 -->
<g id="edge23" class="edge">
<title>Node19&#45;&gt;Node18</title>
<path fill="none" stroke="#9a32cd" stroke-dasharray="5,2" d="M544.7228,-251.4367C587.6468,-252.4915 644.726,-254.7339 695,-259.5 705.7024,-260.5146 717.0942,-261.9463 727.998,-263.4912"/>
<polygon fill="#9a32cd" stroke="#9a32cd" points="544.7611,-247.9367 534.6831,-251.2052 544.5997,-254.9349 544.7611,-247.9367"/>
<text text-anchor="middle" x="641" y="-262.5" font-family="FreeSans" font-size="10.00" fill="#000000"> layers</text>
</g>
<!-- Node20 -->
<g id="node20" class="node">
<title>Node20</title>
<polygon fill="none" stroke="#bfbfbf" points="409.5,-285.5 409.5,-317.5 547.5,-317.5 547.5,-285.5 409.5,-285.5"/>
<text text-anchor="start" x="417.5" y="-304.5" font-family="FreeSans" font-size="10.00" fill="#000000">std::map&lt; PHG4HitDefs</text>
<text text-anchor="middle" x="478.5" y="-292.5" font-family="FreeSans" font-size="10.00" fill="#000000">::keytype, PHG4Hit * &gt;</text>
</g>
<!-- Node20&#45;&gt;Node18 -->
<g id="edge24" class="edge">
<title>Node20&#45;&gt;Node18</title>
<path fill="none" stroke="#9a32cd" stroke-dasharray="5,2" d="M557.976,-293.9184C611.3379,-288.828 680.2757,-282.2517 727.6054,-277.7367"/>
<polygon fill="#9a32cd" stroke="#9a32cd" points="557.4851,-290.4493 547.8627,-294.8832 558.1499,-297.4176 557.4851,-290.4493"/>
<text text-anchor="middle" x="641" y="-293.5" font-family="FreeSans" font-size="10.00" fill="#000000"> hitmap</text>
</g>
<!-- Node21&#45;&gt;Node20 -->
<g id="edge25" class="edge">
<title>Node21&#45;&gt;Node20</title>
<path fill="none" stroke="#9a32cd" stroke-dasharray="5,2" d="M287.0908,-269.1842C320.5391,-274.8313 369.2317,-283.0521 409.1337,-289.7888"/>
<polygon fill="#9a32cd" stroke="#9a32cd" points="287.6695,-265.7324 277.2263,-267.5187 286.5041,-272.6347 287.6695,-265.7324"/>
<text text-anchor="middle" x="344.5" y="-286.5" font-family="FreeSans" font-size="10.00" fill="#000000"> elements</text>
</g>
<!-- Node22&#45;&gt;Node1 -->
<g id="edge27" class="edge">
<title>Node22&#45;&gt;Node1</title>
<path fill="none" stroke="#9a32cd" stroke-dasharray="5,2" d="M829.1794,-127.2796C908.7391,-150.1998 1074.2002,-202.8708 1200,-276.5 1267.8225,-316.1958 1335.8221,-382.7978 1360.6485,-408.217"/>
<polygon fill="#9a32cd" stroke="#9a32cd" points="830.0291,-123.8823 819.4524,-124.5026 828.1074,-130.6134 830.0291,-123.8823"/>
<text text-anchor="middle" x="1108" y="-279.5" font-family="FreeSans" font-size="10.00" fill="#000000"> _truth_info</text>
</g>
<!-- Node23 -->
<g id="node23" class="node">
<title>Node23</title>
<polygon fill="none" stroke="#bfbfbf" points="390.5,-78.5 390.5,-98.5 566.5,-98.5 566.5,-78.5 390.5,-78.5"/>
<text text-anchor="middle" x="478.5" y="-85.5" font-family="FreeSans" font-size="10.00" fill="#000000">std::map&lt; int, PHG4Particle * &gt;</text>
</g>
<!-- Node23&#45;&gt;Node22 -->
<g id="edge29" class="edge">
<title>Node23&#45;&gt;Node22</title>
<path fill="none" stroke="#9a32cd" stroke-dasharray="5,2" d="M576.9054,-92.5865C613.9818,-94.6046 656.4873,-97.4906 695,-101.5 702.9431,-102.3269 711.2695,-103.3543 719.4958,-104.4666"/>
<polygon fill="#9a32cd" stroke="#9a32cd" points="576.7711,-89.0746 566.5997,-92.0401 576.4004,-96.0647 576.7711,-89.0746"/>
<text text-anchor="middle" x="641" y="-104.5" font-family="FreeSans" font-size="10.00" fill="#000000"> particlemap</text>
</g>
<!-- Node24&#45;&gt;Node23 -->
<g id="edge30" class="edge">
<title>Node24&#45;&gt;Node23</title>
<path fill="none" stroke="#9a32cd" stroke-dasharray="5,2" d="M298.3289,-88.5C325.2362,-88.5 359.0533,-88.5 390.1014,-88.5"/>
<polygon fill="#9a32cd" stroke="#9a32cd" points="298.0015,-85.0001 288.0015,-88.5 298.0014,-92.0001 298.0015,-85.0001"/>
<text text-anchor="middle" x="344.5" y="-91.5" font-family="FreeSans" font-size="10.00" fill="#000000"> elements</text>
</g>
<!-- Node25 -->
<g id="node25" class="node">
<title>Node25</title>
<polygon fill="none" stroke="#bfbfbf" points="420.5,-39.5 420.5,-59.5 536.5,-59.5 536.5,-39.5 420.5,-39.5"/>
<text text-anchor="middle" x="478.5" y="-46.5" font-family="FreeSans" font-size="10.00" fill="#000000">std::map&lt; int, int &gt;</text>
</g>
<!-- Node25&#45;&gt;Node22 -->
<g id="edge32" class="edge">
<title>Node25&#45;&gt;Node22</title>
<path fill="none" stroke="#9a32cd" stroke-dasharray="5,2" d="M546.8611,-47.0319C590.1701,-47.2916 646.8842,-51.03 695,-65.5 723.1775,-73.9739 752.285,-92.6141 768.8146,-104.3049"/>
<polygon fill="#9a32cd" stroke="#9a32cd" points="546.7145,-43.5318 536.7148,-47.0328 546.7152,-50.5318 546.7145,-43.5318"/>
<text text-anchor="middle" x="641" y="-80.5" font-family="FreeSans" font-size="10.00" fill="#000000"> vertex_embed_flags</text>
<text text-anchor="middle" x="641" y="-68.5" font-family="FreeSans" font-size="10.00" fill="#000000">particle_embed_flags</text>
</g>
<!-- Node26 -->
<g id="node26" class="node">
<title>Node26</title>
<polygon fill="none" stroke="#bfbfbf" points="390,-.5 390,-20.5 567,-20.5 567,-.5 390,-.5"/>
<text text-anchor="middle" x="478.5" y="-7.5" font-family="FreeSans" font-size="10.00" fill="#000000">std::map&lt; int, PHG4Shower * &gt;</text>
</g>
<!-- Node26&#45;&gt;Node22 -->
<g id="edge33" class="edge">
<title>Node26&#45;&gt;Node22</title>
<path fill="none" stroke="#9a32cd" stroke-dasharray="5,2" d="M577.3121,-7.247C615.5221,-9.3418 658.6996,-15.9784 695,-32.5 731.0026,-48.886 761.7626,-86.1181 775.2301,-104.2268"/>
<polygon fill="#9a32cd" stroke="#9a32cd" points="577.3437,-3.745 567.196,-6.7904 577.028,-10.7379 577.3437,-3.745"/>
<text text-anchor="middle" x="641" y="-35.5" font-family="FreeSans" font-size="10.00" fill="#000000"> showermap</text>
</g>
<!-- Node27&#45;&gt;Node26 -->
<g id="edge34" class="edge">
<title>Node27&#45;&gt;Node26</title>
<path fill="none" stroke="#9a32cd" stroke-dasharray="5,2" d="M298.5538,-33.0907C327.908,-29.4055 365.4304,-24.6949 398.608,-20.5297"/>
<polygon fill="#9a32cd" stroke="#9a32cd" points="298.0181,-29.6303 288.532,-34.3488 298.8901,-36.5758 298.0181,-29.6303"/>
<text text-anchor="middle" x="344.5" y="-33.5" font-family="FreeSans" font-size="10.00" fill="#000000"> elements</text>
</g>
<!-- Node28 -->
<g id="node28" class="node">
<title>Node28</title>
<polygon fill="none" stroke="#bfbfbf" points="388,-156.5 388,-176.5 569,-176.5 569,-156.5 388,-156.5"/>
<text text-anchor="middle" x="478.5" y="-163.5" font-family="FreeSans" font-size="10.00" fill="#000000">std::map&lt; int, PHG4VtxPoint * &gt;</text>
</g>
<!-- Node28&#45;&gt;Node22 -->
<g id="edge36" class="edge">
<title>Node28&#45;&gt;Node22</title>
<path fill="none" stroke="#9a32cd" stroke-dasharray="5,2" d="M579.3592,-158.7473C616.0108,-154.9087 657.6005,-149.3594 695,-141.5 715.2253,-137.2497 737.4732,-130.3535 754.474,-124.5947"/>
<polygon fill="#9a32cd" stroke="#9a32cd" points="578.7544,-155.2907 569.1601,-159.7851 579.4631,-162.2547 578.7544,-155.2907"/>
<text text-anchor="middle" x="641" y="-161.5" font-family="FreeSans" font-size="10.00" fill="#000000"> vtxmap</text>
</g>
<!-- Node29&#45;&gt;Node28 -->
<g id="edge37" class="edge">
<title>Node29&#45;&gt;Node28</title>
<path fill="none" stroke="#9a32cd" stroke-dasharray="5,2" d="M301.471,-166.5C327.1066,-166.5 358.4534,-166.5 387.6068,-166.5"/>
<polygon fill="#9a32cd" stroke="#9a32cd" points="301.2209,-163.0001 291.2209,-166.5 301.2209,-170.0001 301.2209,-163.0001"/>
<text text-anchor="middle" x="344.5" y="-169.5" font-family="FreeSans" font-size="10.00" fill="#000000"> elements</text>
</g>
</g>
</svg>
