<?xml version="1.0" encoding="UTF-8" standalone="no"?>
<!DOCTYPE svg PUBLIC "-//W3C//DTD SVG 1.1//EN"
 "http://www.w3.org/Graphics/SVG/1.1/DTD/svg11.dtd">
<!-- Generated by graphviz version 2.40.1 (20161225.0304)
 -->
<!-- Title: SvtxTrackEval::best_track_from Pages: 1 -->
<svg width="1017pt" height="453pt"
 viewBox="0.00 0.00 1017.00 453.00" xmlns="http://www.w3.org/2000/svg" xmlns:xlink="http://www.w3.org/1999/xlink">
<g id="graph0" class="graph" transform="scale(1 1) rotate(0) translate(4 449)">
<title>SvtxTrackEval::best_track_from</title>
<!-- Node1 -->
<g id="node1" class="node">
<title>Node1</title>
<polygon fill="#bfbfbf" stroke="#000000" points="0,-84.5 0,-116.5 116,-116.5 116,-84.5 0,-84.5"/>
<text text-anchor="start" x="8" y="-103.5" font-family="FreeSans" font-size="10.00" fill="#000000">SvtxTrackEval::best</text>
<text text-anchor="middle" x="58" y="-91.5" font-family="FreeSans" font-size="10.00" fill="#000000">_track_from</text>
</g>
<!-- Node2 -->
<g id="node2" class="node">
<title>Node2</title>
<g id="a_node2"><a xlink:href="../../df/dad/classSvtxTrackEval.html#a4397d3a27e4b53b5475e15ec92d43cbb" target="_top" xlink:title="SvtxTrackEval::all\l_tracks_from">
<polygon fill="none" stroke="#000000" points="163.5,-218.5 163.5,-250.5 268.5,-250.5 268.5,-218.5 163.5,-218.5"/>
<text text-anchor="start" x="171.5" y="-237.5" font-family="FreeSans" font-size="10.00" fill="#000000">SvtxTrackEval::all</text>
<text text-anchor="middle" x="216" y="-225.5" font-family="FreeSans" font-size="10.00" fill="#000000">_tracks_from</text>
</a>
</g>
</g>
<!-- Node1&#45;&gt;Node2 -->
<g id="edge1" class="edge">
<title>Node1&#45;&gt;Node2</title>
<path fill="none" stroke="#191970" d="M77.0585,-116.6635C104.9357,-140.3062 156.9704,-184.4369 188.8438,-211.4688"/>
<polygon fill="#191970" stroke="#191970" points="186.9835,-214.4803 196.8739,-218.2791 191.5112,-209.1417 186.9835,-214.4803"/>
</g>
<!-- Node25 -->
<g id="node25" class="node">
<title>Node25</title>
<g id="a_node25"><a xlink:href="../../df/dad/classSvtxTrackEval.html#a2cad33eb7f2cc23aa534f06ef5b591e5" target="_top" xlink:title="SvtxTrackEval::has\l_node_pointers">
<polygon fill="none" stroke="#000000" points="344.5,-103.5 344.5,-135.5 455.5,-135.5 455.5,-103.5 344.5,-103.5"/>
<text text-anchor="start" x="352.5" y="-122.5" font-family="FreeSans" font-size="10.00" fill="#000000">SvtxTrackEval::has</text>
<text text-anchor="middle" x="400" y="-110.5" font-family="FreeSans" font-size="10.00" fill="#000000">_node_pointers</text>
</a>
</g>
</g>
<!-- Node1&#45;&gt;Node25 -->
<g id="edge30" class="edge">
<title>Node1&#45;&gt;Node25</title>
<path fill="none" stroke="#191970" d="M116.0156,-103.7231C176.4011,-107.0778 270.8106,-112.3228 334.0039,-115.8336"/>
<polygon fill="#191970" stroke="#191970" points="334.0776,-119.3429 344.2563,-116.4031 334.4659,-112.3537 334.0776,-119.3429"/>
</g>
<!-- Node26 -->
<g id="node26" class="node">
<title>Node26</title>
<g id="a_node26"><a xlink:href="../../d0/d34/tracks_8C.html#ac926d763061c5568ecb5f5e062e9c778" target="_top" xlink:title="tracks">
<polygon fill="none" stroke="#000000" points="376.5,-64.5 376.5,-84.5 423.5,-84.5 423.5,-64.5 376.5,-64.5"/>
<text text-anchor="middle" x="400" y="-71.5" font-family="FreeSans" font-size="10.00" fill="#000000">tracks</text>
</a>
</g>
</g>
<!-- Node1&#45;&gt;Node26 -->
<g id="edge31" class="edge">
<title>Node1&#45;&gt;Node26</title>
<path fill="none" stroke="#191970" d="M116.0156,-96.0895C187.7788,-90.6338 307.5954,-81.5249 365.9631,-77.0876"/>
<polygon fill="#191970" stroke="#191970" points="366.4152,-80.5634 376.1211,-76.3154 365.8845,-73.5836 366.4152,-80.5634"/>
</g>
<!-- Node27 -->
<g id="node27" class="node">
<title>Node27</title>
<g id="a_node27"><a xlink:href="../../d2/db8/classSvtxTrack.html#a736c457cee73e12760baef3f368fec5a" target="_top" xlink:title="SvtxTrack::get_quality">
<polygon fill="none" stroke="#000000" points="152,-32.5 152,-52.5 280,-52.5 280,-32.5 152,-32.5"/>
<text text-anchor="middle" x="216" y="-39.5" font-family="FreeSans" font-size="10.00" fill="#000000">SvtxTrack::get_quality</text>
</a>
</g>
</g>
<!-- Node1&#45;&gt;Node27 -->
<g id="edge29" class="edge">
<title>Node1&#45;&gt;Node27</title>
<path fill="none" stroke="#191970" d="M101.5924,-84.4977C125.8894,-75.5786 155.8203,-64.5913 178.9732,-56.0921"/>
<polygon fill="#191970" stroke="#191970" points="180.2633,-59.347 188.4446,-52.6153 177.851,-52.7757 180.2633,-59.347"/>
</g>
<!-- Node3 -->
<g id="node3" class="node">
<title>Node3</title>
<g id="a_node3"><a xlink:href="../../d1/d1e/classSvtxClusterEval.html#ae2d6f811db24d80dac0f4b247de56bcd" target="_top" xlink:title="SvtxClusterEval::all\l_truth_particles">
<polygon fill="none" stroke="#000000" points="343,-154.5 343,-186.5 457,-186.5 457,-154.5 343,-154.5"/>
<text text-anchor="start" x="351" y="-173.5" font-family="FreeSans" font-size="10.00" fill="#000000">SvtxClusterEval::all</text>
<text text-anchor="middle" x="400" y="-161.5" font-family="FreeSans" font-size="10.00" fill="#000000">_truth_particles</text>
</a>
</g>
</g>
<!-- Node2&#45;&gt;Node3 -->
<g id="edge2" class="edge">
<title>Node2&#45;&gt;Node3</title>
<path fill="none" stroke="#191970" d="M256.6575,-218.3852C274.7335,-211.3931 296.3326,-203.2731 316,-196.5 322.7479,-194.1762 329.8325,-191.834 336.9059,-189.5577"/>
<polygon fill="#191970" stroke="#191970" points="338.0431,-192.8689 346.5118,-186.5024 335.9213,-186.1982 338.0431,-192.8689"/>
</g>
<!-- Node17 -->
<g id="node17" class="node">
<title>Node17</title>
<g id="a_node17"><a xlink:href="../../d4/de4/classSvtxTruthEval.html#a45a358bb04e9d3e415b62047c653ff36" target="_top" xlink:title="SvtxTruthEval::are\l_same_particle">
<polygon fill="none" stroke="#000000" points="345.5,-412.5 345.5,-444.5 454.5,-444.5 454.5,-412.5 345.5,-412.5"/>
<text text-anchor="start" x="353.5" y="-431.5" font-family="FreeSans" font-size="10.00" fill="#000000">SvtxTruthEval::are</text>
<text text-anchor="middle" x="400" y="-419.5" font-family="FreeSans" font-size="10.00" fill="#000000">_same_particle</text>
</a>
</g>
</g>
<!-- Node2&#45;&gt;Node17 -->
<g id="edge17" class="edge">
<title>Node2&#45;&gt;Node17</title>
<path fill="none" stroke="#191970" d="M221.0509,-250.7062C232.3811,-284.3712 263.0621,-362.1697 316,-403.5 321.8542,-408.0705 328.5298,-411.807 335.5009,-414.8614"/>
<polygon fill="#191970" stroke="#191970" points="334.5521,-418.2479 345.1405,-418.6178 337.0938,-411.7257 334.5521,-418.2479"/>
</g>
<!-- Node20 -->
<g id="node20" class="node">
<title>Node20</title>
<g id="a_node20"><a xlink:href="../../d7/d8b/classSvtxTrackMap.html#a8c16bb47fdace6d5516d1803ffe54706" target="_top" xlink:title="SvtxTrackMap::begin">
<polygon fill="none" stroke="#000000" points="339.5,-322.5 339.5,-342.5 460.5,-342.5 460.5,-322.5 339.5,-322.5"/>
<text text-anchor="middle" x="400" y="-329.5" font-family="FreeSans" font-size="10.00" fill="#000000">SvtxTrackMap::begin</text>
</a>
</g>
</g>
<!-- Node2&#45;&gt;Node20 -->
<g id="edge21" class="edge">
<title>Node2&#45;&gt;Node20</title>
<path fill="none" stroke="#191970" d="M231.766,-250.7325C250.2617,-268.8102 282.6581,-297.5774 316,-313.5 320.6042,-315.6988 325.4735,-317.6489 330.4555,-319.3777"/>
<polygon fill="#191970" stroke="#191970" points="329.5449,-322.7605 340.1348,-322.4366 331.6543,-316.0859 329.5449,-322.7605"/>
</g>
<!-- Node21 -->
<g id="node21" class="node">
<title>Node21</title>
<g id="a_node21"><a xlink:href="../../d2/db8/classSvtxTrack.html#a6d8dace95bd6d93aa08d66c5e2c3ad85" target="_top" xlink:title="SvtxTrack::begin_cluster_keys">
<polygon fill="none" stroke="#000000" points="316,-283.5 316,-303.5 484,-303.5 484,-283.5 316,-283.5"/>
<text text-anchor="middle" x="400" y="-290.5" font-family="FreeSans" font-size="10.00" fill="#000000">SvtxTrack::begin_cluster_keys</text>
</a>
</g>
</g>
<!-- Node2&#45;&gt;Node21 -->
<g id="edge22" class="edge">
<title>Node2&#45;&gt;Node21</title>
<path fill="none" stroke="#191970" d="M252.0732,-250.5342C270.8733,-258.4783 294.3952,-267.7819 316,-274.5 323.6128,-276.8672 331.6984,-279.0726 339.7296,-281.0808"/>
<polygon fill="#191970" stroke="#191970" points="338.9214,-284.4862 349.4635,-283.4303 340.5639,-277.6816 338.9214,-284.4862"/>
</g>
<!-- Node22 -->
<g id="node22" class="node">
<title>Node22</title>
<g id="a_node22"><a xlink:href="../../d7/d8b/classSvtxTrackMap.html#a1c7ae993700819b7d0a8e3f3d74fa99c" target="_top" xlink:title="SvtxTrackMap::end">
<polygon fill="none" stroke="#000000" points="344,-244.5 344,-264.5 456,-264.5 456,-244.5 344,-244.5"/>
<text text-anchor="middle" x="400" y="-251.5" font-family="FreeSans" font-size="10.00" fill="#000000">SvtxTrackMap::end</text>
</a>
</g>
</g>
<!-- Node2&#45;&gt;Node22 -->
<g id="edge23" class="edge">
<title>Node2&#45;&gt;Node22</title>
<path fill="none" stroke="#191970" d="M268.727,-240.2312C288.9874,-242.4334 312.376,-244.9757 333.7484,-247.2987"/>
<polygon fill="#191970" stroke="#191970" points="333.4108,-250.7826 343.7305,-248.3838 334.1673,-243.8236 333.4108,-250.7826"/>
</g>
<!-- Node23 -->
<g id="node23" class="node">
<title>Node23</title>
<g id="a_node23"><a xlink:href="../../d2/db8/classSvtxTrack.html#ac0e8c2214fa9f988c00a561ed22aa085" target="_top" xlink:title="SvtxTrack::end_cluster_keys">
<polygon fill="none" stroke="#000000" points="321,-205.5 321,-225.5 479,-225.5 479,-205.5 321,-205.5"/>
<text text-anchor="middle" x="400" y="-212.5" font-family="FreeSans" font-size="10.00" fill="#000000">SvtxTrack::end_cluster_keys</text>
</a>
</g>
</g>
<!-- Node2&#45;&gt;Node23 -->
<g id="edge24" class="edge">
<title>Node2&#45;&gt;Node23</title>
<path fill="none" stroke="#191970" d="M268.727,-229.0554C281.9283,-227.6922 296.4578,-226.1919 310.8922,-224.7013"/>
<polygon fill="#191970" stroke="#191970" points="311.2651,-228.1816 320.8526,-223.6728 310.546,-221.2186 311.2651,-228.1816"/>
</g>
<!-- Node24 -->
<g id="node24" class="node">
<title>Node24</title>
<g id="a_node24"><a xlink:href="../../df/dad/classSvtxTrackEval.html#aa97070c7a384cae1a38f4db39c8b5fba" target="_top" xlink:title="SvtxTrackEval::get\l_truth_eval">
<polygon fill="none" stroke="#000000" points="345,-361.5 345,-393.5 455,-393.5 455,-361.5 345,-361.5"/>
<text text-anchor="start" x="353" y="-380.5" font-family="FreeSans" font-size="10.00" fill="#000000">SvtxTrackEval::get</text>
<text text-anchor="middle" x="400" y="-368.5" font-family="FreeSans" font-size="10.00" fill="#000000">_truth_eval</text>
</a>
</g>
</g>
<!-- Node2&#45;&gt;Node24 -->
<g id="edge25" class="edge">
<title>Node2&#45;&gt;Node24</title>
<path fill="none" stroke="#191970" d="M225.4639,-250.8404C241.0696,-276.3441 274.6307,-325.4833 316,-352.5 321.8204,-356.3011 328.2387,-359.5416 334.8561,-362.3008"/>
<polygon fill="#191970" stroke="#191970" points="334.056,-365.7402 344.6475,-366.0079 336.5346,-359.1937 334.056,-365.7402"/>
</g>
<!-- Node2&#45;&gt;Node25 -->
<g id="edge27" class="edge">
<title>Node2&#45;&gt;Node25</title>
<path fill="none" stroke="#191970" d="M229.989,-218.3866C248.011,-198.5676 281.1849,-165.1444 316,-145.5 321.8957,-142.1734 328.2693,-139.2191 334.7783,-136.6079"/>
<polygon fill="#191970" stroke="#191970" points="336.2287,-139.8024 344.3718,-133.0245 333.7793,-133.245 336.2287,-139.8024"/>
</g>
<!-- Node2&#45;&gt;Node26 -->
<g id="edge28" class="edge">
<title>Node2&#45;&gt;Node26</title>
<path fill="none" stroke="#191970" d="M222.6367,-218.4632C235.7813,-188.7977 268.0625,-125.4705 316,-93.5 330.7958,-83.6324 349.9764,-78.8326 366.2732,-76.5216"/>
<polygon fill="#191970" stroke="#191970" points="366.9619,-79.9652 376.4909,-75.334 366.1537,-73.012 366.9619,-79.9652"/>
</g>
<!-- Node4 -->
<g id="node4" class="node">
<title>Node4</title>
<g id="a_node4"><a xlink:href="../../d1/d1e/classSvtxClusterEval.html#a19f61841db8edf09e606635a790b1d2c" target="_top" xlink:title="SvtxClusterEval::all\l_truth_hits">
<polygon fill="none" stroke="#000000" points="523,-157.5 523,-189.5 637,-189.5 637,-157.5 523,-157.5"/>
<text text-anchor="start" x="531" y="-176.5" font-family="FreeSans" font-size="10.00" fill="#000000">SvtxClusterEval::all</text>
<text text-anchor="middle" x="580" y="-164.5" font-family="FreeSans" font-size="10.00" fill="#000000">_truth_hits</text>
</a>
</g>
</g>
<!-- Node3&#45;&gt;Node4 -->
<g id="edge3" class="edge">
<title>Node3&#45;&gt;Node4</title>
<path fill="none" stroke="#191970" d="M457.448,-171.4575C474.9891,-171.7498 494.4368,-172.0739 512.5764,-172.3763"/>
<polygon fill="#191970" stroke="#191970" points="512.732,-175.8793 522.7889,-172.5465 512.8487,-168.8802 512.732,-175.8793"/>
</g>
<!-- Node10 -->
<g id="node10" class="node">
<title>Node10</title>
<g id="a_node10"><a xlink:href="../../d1/d1e/classSvtxClusterEval.html#a9d557168b84ca9a814166d6523bfe2fd" target="_top" xlink:title="SvtxClusterEval::has\l_node_pointers">
<polygon fill="none" stroke="#000000" points="693.5,-304.5 693.5,-336.5 814.5,-336.5 814.5,-304.5 693.5,-304.5"/>
<text text-anchor="start" x="701.5" y="-323.5" font-family="FreeSans" font-size="10.00" fill="#000000">SvtxClusterEval::has</text>
<text text-anchor="middle" x="754" y="-311.5" font-family="FreeSans" font-size="10.00" fill="#000000">_node_pointers</text>
</a>
</g>
</g>
<!-- Node3&#45;&gt;Node10 -->
<g id="edge16" class="edge">
<title>Node3&#45;&gt;Node10</title>
<path fill="none" stroke="#191970" d="M456.9612,-186.6404C466.0992,-189.6549 475.3804,-192.9758 484,-196.5 572.8683,-232.8346 587.3144,-258.7216 676,-295.5 680.6426,-297.4253 685.49,-299.2955 690.3972,-301.0891"/>
<polygon fill="#191970" stroke="#191970" points="689.2748,-304.4046 699.8696,-304.4383 691.6083,-297.8049 689.2748,-304.4046"/>
</g>
<!-- Node11 -->
<g id="node11" class="node">
<title>Node11</title>
<g id="a_node11"><a xlink:href="../../d4/de4/classSvtxTruthEval.html#ae575fcf72ce935a72f3c5a157abdd900" target="_top" xlink:title="SvtxTruthEval::get\l_particle">
<polygon fill="none" stroke="#000000" points="525,-64.5 525,-96.5 635,-96.5 635,-64.5 525,-64.5"/>
<text text-anchor="start" x="533" y="-83.5" font-family="FreeSans" font-size="10.00" fill="#000000">SvtxTruthEval::get</text>
<text text-anchor="middle" x="580" y="-71.5" font-family="FreeSans" font-size="10.00" fill="#000000">_particle</text>
</a>
</g>
</g>
<!-- Node3&#45;&gt;Node11 -->
<g id="edge10" class="edge">
<title>Node3&#45;&gt;Node11</title>
<path fill="none" stroke="#191970" d="M457.3633,-155.9958C466.4511,-152.9706 475.6114,-149.472 484,-145.5 508.4518,-133.922 533.6921,-116.5828 552.1519,-102.7242"/>
<polygon fill="#191970" stroke="#191970" points="554.304,-105.4846 560.1291,-96.6348 550.0566,-99.9204 554.304,-105.4846"/>
</g>
<!-- Node16 -->
<g id="node16" class="node">
<title>Node16</title>
<g id="a_node16"><a xlink:href="../../d1/d1e/classSvtxClusterEval.html#a71bb4c981bdde92138eda3a7db1975b8" target="_top" xlink:title="SvtxClusterEval::get\l_truth_eval">
<polygon fill="none" stroke="#000000" points="520,-335.5 520,-367.5 640,-367.5 640,-335.5 520,-335.5"/>
<text text-anchor="start" x="528" y="-354.5" font-family="FreeSans" font-size="10.00" fill="#000000">SvtxClusterEval::get</text>
<text text-anchor="middle" x="580" y="-342.5" font-family="FreeSans" font-size="10.00" fill="#000000">_truth_eval</text>
</a>
</g>
</g>
<!-- Node3&#45;&gt;Node16 -->
<g id="edge15" class="edge">
<title>Node3&#45;&gt;Node16</title>
<path fill="none" stroke="#191970" d="M457.1954,-181.04C466.909,-184.7415 476.3218,-189.7427 484,-196.5 512.9652,-221.9913 499.9002,-242.5639 520,-275.5 531.2734,-293.973 546.3814,-313.0856 558.6165,-327.5232"/>
<polygon fill="#191970" stroke="#191970" points="556.2599,-330.1502 565.4377,-335.4435 561.5639,-325.5822 556.2599,-330.1502"/>
</g>
<!-- Node5 -->
<g id="node5" class="node">
<title>Node5</title>
<g id="a_node5"><a xlink:href="../../d4/d30/classPHG4HitContainer.html#a62c24ef9c00bd714f597939598a87041" target="_top" xlink:title="PHG4HitContainer::findHit">
<polygon fill="none" stroke="#000000" points="679.5,-124.5 679.5,-144.5 828.5,-144.5 828.5,-124.5 679.5,-124.5"/>
<text text-anchor="middle" x="754" y="-131.5" font-family="FreeSans" font-size="10.00" fill="#000000">PHG4HitContainer::findHit</text>
</a>
</g>
</g>
<!-- Node4&#45;&gt;Node5 -->
<g id="edge4" class="edge">
<title>Node4&#45;&gt;Node5</title>
<path fill="none" stroke="#191970" d="M637.4563,-160.6219C657.35,-156.1629 679.5823,-151.1798 699.2523,-146.771"/>
<polygon fill="#191970" stroke="#191970" points="700.2866,-150.1261 709.279,-144.5237 698.7556,-143.2956 700.2866,-150.1261"/>
</g>
<!-- Node6 -->
<g id="node6" class="node">
<title>Node6</title>
<g id="a_node6"><a xlink:href="../../d7/d8d/classTrkrHitTruthAssoc.html#a5dfce5df411c830647e8659c02c1f5e2" target="_top" xlink:title="Get cell keys associated with desired hit.">
<polygon fill="none" stroke="#000000" points="698.5,-73.5 698.5,-105.5 809.5,-105.5 809.5,-73.5 698.5,-73.5"/>
<text text-anchor="start" x="706.5" y="-92.5" font-family="FreeSans" font-size="10.00" fill="#000000">TrkrHitTruthAssoc::</text>
<text text-anchor="middle" x="754" y="-80.5" font-family="FreeSans" font-size="10.00" fill="#000000">getG4Hits</text>
</a>
</g>
</g>
<!-- Node4&#45;&gt;Node6 -->
<g id="edge5" class="edge">
<title>Node4&#45;&gt;Node6</title>
<path fill="none" stroke="#191970" d="M603.2573,-157.4364C622.2164,-144.8435 650.0128,-127.5006 676,-115.5 680.8597,-113.2559 685.9693,-111.1113 691.1514,-109.0852"/>
<polygon fill="#191970" stroke="#191970" points="692.3859,-112.3604 700.5191,-105.5705 689.9269,-105.8065 692.3859,-112.3604"/>
</g>
<!-- Node7 -->
<g id="node7" class="node">
<title>Node7</title>
<g id="a_node7"><a xlink:href="../../d7/d4f/classTrkrClusterHitAssoc.html#ad08b0caf69a8f21fbd3d4024488c61b2" target="_top" xlink:title="Get all the hits associated with a cluster by key.">
<polygon fill="none" stroke="#000000" points="696.5,-253.5 696.5,-285.5 811.5,-285.5 811.5,-253.5 696.5,-253.5"/>
<text text-anchor="start" x="704.5" y="-272.5" font-family="FreeSans" font-size="10.00" fill="#000000">TrkrClusterHitAssoc</text>
<text text-anchor="middle" x="754" y="-260.5" font-family="FreeSans" font-size="10.00" fill="#000000">::getHits</text>
</a>
</g>
</g>
<!-- Node4&#45;&gt;Node7 -->
<g id="edge6" class="edge">
<title>Node4&#45;&gt;Node7</title>
<path fill="none" stroke="#191970" d="M597.9219,-189.5844C616.3611,-205.4226 646.4815,-229.376 676,-244.5 679.5298,-246.3085 683.2163,-248.0197 686.9834,-249.6333"/>
<polygon fill="#191970" stroke="#191970" points="685.8863,-252.9643 696.4703,-253.4431 688.495,-246.4686 685.8863,-252.9643"/>
</g>
<!-- Node8 -->
<g id="node8" class="node">
<title>Node8</title>
<g id="a_node8"><a xlink:href="../../d6/d3f/namespaceTrkrDefs.html#aae37fbdb8f0f6f9b7b1e4173f4fcd331" target="_top" xlink:title="Get the upper 32 bits from cluster keys.">
<polygon fill="none" stroke="#000000" points="676,-202.5 676,-234.5 832,-234.5 832,-202.5 676,-202.5"/>
<text text-anchor="start" x="684" y="-221.5" font-family="FreeSans" font-size="10.00" fill="#000000">TrkrDefs::getHitSetKeyFrom</text>
<text text-anchor="middle" x="754" y="-209.5" font-family="FreeSans" font-size="10.00" fill="#000000">ClusKey</text>
</a>
</g>
</g>
<!-- Node4&#45;&gt;Node8 -->
<g id="edge7" class="edge">
<title>Node4&#45;&gt;Node8</title>
<path fill="none" stroke="#191970" d="M637.4563,-188.3594C651.8291,-192.0765 667.4225,-196.1093 682.3884,-199.9798"/>
<polygon fill="#191970" stroke="#191970" points="681.5556,-203.3795 692.1134,-202.4949 683.3083,-196.6024 681.5556,-203.3795"/>
</g>
<!-- Node9 -->
<g id="node9" class="node">
<title>Node9</title>
<g id="a_node9"><a xlink:href="../../d6/d3f/namespaceTrkrDefs.html#a542bf66cb1037404f08212eeefdfde70" target="_top" xlink:title="Get the tracker ID from either key type.">
<polygon fill="none" stroke="#000000" points="699,-163.5 699,-183.5 809,-183.5 809,-163.5 699,-163.5"/>
<text text-anchor="middle" x="754" y="-170.5" font-family="FreeSans" font-size="10.00" fill="#000000">TrkrDefs::getTrkrId</text>
</a>
</g>
</g>
<!-- Node4&#45;&gt;Node9 -->
<g id="edge8" class="edge">
<title>Node4&#45;&gt;Node9</title>
<path fill="none" stroke="#191970" d="M637.4563,-173.5C653.8514,-173.5 671.8348,-173.5 688.6633,-173.5"/>
<polygon fill="#191970" stroke="#191970" points="688.9677,-177.0001 698.9677,-173.5 688.9677,-170.0001 688.9677,-177.0001"/>
</g>
<!-- Node4&#45;&gt;Node10 -->
<g id="edge9" class="edge">
<title>Node4&#45;&gt;Node10</title>
<path fill="none" stroke="#191970" d="M593.2861,-189.527C605.5636,-204.4215 624.2334,-227.2852 640,-247.5 656.4003,-268.5272 654.2769,-280.0333 676,-295.5 678.6643,-297.397 681.4795,-299.1549 684.3969,-300.7834"/>
<polygon fill="#191970" stroke="#191970" points="682.898,-303.9471 693.4074,-305.2905 686.0296,-297.6866 682.898,-303.9471"/>
</g>
<!-- Node12 -->
<g id="node12" class="node">
<title>Node12</title>
<g id="a_node12"><a xlink:href="../../dc/d23/classBaseTruthEval.html#ac3045216b60b1b54d9fdd81e3a07b938" target="_top" xlink:title="which particle left this truth hit?">
<polygon fill="none" stroke="#000000" points="698,-22.5 698,-54.5 810,-54.5 810,-22.5 698,-22.5"/>
<text text-anchor="start" x="706" y="-41.5" font-family="FreeSans" font-size="10.00" fill="#000000">BaseTruthEval::get</text>
<text text-anchor="middle" x="754" y="-29.5" font-family="FreeSans" font-size="10.00" fill="#000000">_particle</text>
</a>
</g>
</g>
<!-- Node11&#45;&gt;Node12 -->
<g id="edge11" class="edge">
<title>Node11&#45;&gt;Node12</title>
<path fill="none" stroke="#191970" d="M635.0547,-67.2109C651.7837,-63.1729 670.3427,-58.6931 687.729,-54.4965"/>
<polygon fill="#191970" stroke="#191970" points="688.908,-57.8125 697.8075,-52.0637 687.2654,-51.0079 688.908,-57.8125"/>
</g>
<!-- Node13 -->
<g id="node13" class="node">
<title>Node13</title>
<g id="a_node13"><a xlink:href="../../d3/d9e/classPHG4Hit.html#ac19cdd97dbd9b8154b8012ec0de01f76" target="_top" xlink:title="PHG4Hit::get_trkid">
<polygon fill="none" stroke="#000000" points="883.5,-51.5 883.5,-71.5 993.5,-71.5 993.5,-51.5 883.5,-51.5"/>
<text text-anchor="middle" x="938.5" y="-58.5" font-family="FreeSans" font-size="10.00" fill="#000000">PHG4Hit::get_trkid</text>
</a>
</g>
</g>
<!-- Node12&#45;&gt;Node13 -->
<g id="edge12" class="edge">
<title>Node12&#45;&gt;Node13</title>
<path fill="none" stroke="#191970" d="M810.1075,-45.4944C830.0604,-47.9818 852.6926,-50.8031 873.3385,-53.3769"/>
<polygon fill="#191970" stroke="#191970" points="872.9376,-56.8539 883.2938,-54.6179 873.8036,-49.9077 872.9376,-56.8539"/>
</g>
<!-- Node14 -->
<g id="node14" class="node">
<title>Node14</title>
<g id="a_node14"><a xlink:href="../../da/d6c/classPHG4TruthInfoContainer.html#a175e3e0bbb61b850bf184368d920152f" target="_top" xlink:title="PHG4TruthInfoContainer\l::GetParticle">
<polygon fill="none" stroke="#000000" points="869,-.5 869,-32.5 1008,-32.5 1008,-.5 869,-.5"/>
<text text-anchor="start" x="877" y="-19.5" font-family="FreeSans" font-size="10.00" fill="#000000">PHG4TruthInfoContainer</text>
<text text-anchor="middle" x="938.5" y="-7.5" font-family="FreeSans" font-size="10.00" fill="#000000">::GetParticle</text>
</a>
</g>
</g>
<!-- Node12&#45;&gt;Node14 -->
<g id="edge13" class="edge">
<title>Node12&#45;&gt;Node14</title>
<path fill="none" stroke="#191970" d="M810.1075,-31.8097C825.4718,-29.9776 842.4248,-27.9561 858.8363,-25.9992"/>
<polygon fill="#191970" stroke="#191970" points="859.4505,-29.4508 868.9657,-24.7914 858.6216,-22.5001 859.4505,-29.4508"/>
</g>
<!-- Node15 -->
<g id="node15" class="node">
<title>Node15</title>
<g id="a_node15"><a xlink:href="../../dc/d23/classBaseTruthEval.html#a988244333e36bcd3a7c9c68d4c345af5" target="_top" xlink:title="BaseTruthEval::has\l_reduced_node_pointers">
<polygon fill="none" stroke="#000000" points="868,-219.5 868,-251.5 1009,-251.5 1009,-219.5 868,-219.5"/>
<text text-anchor="start" x="876" y="-238.5" font-family="FreeSans" font-size="10.00" fill="#000000">BaseTruthEval::has</text>
<text text-anchor="middle" x="938.5" y="-226.5" font-family="FreeSans" font-size="10.00" fill="#000000">_reduced_node_pointers</text>
</a>
</g>
</g>
<!-- Node12&#45;&gt;Node15 -->
<g id="edge14" class="edge">
<title>Node12&#45;&gt;Node15</title>
<path fill="none" stroke="#191970" d="M810.1396,-51.1183C817.943,-54.3615 825.501,-58.4218 832,-63.5 881.9615,-102.5385 914.4197,-172.0514 929.2157,-209.6453"/>
<polygon fill="#191970" stroke="#191970" points="926.0842,-211.2562 932.9204,-219.3504 932.6239,-208.7597 926.0842,-211.2562"/>
</g>
<!-- Node18 -->
<g id="node18" class="node">
<title>Node18</title>
<g id="a_node18"><a xlink:href="../../dc/d23/classBaseTruthEval.html#ac62b58b54f3e184b28ab9d44ea4292f7" target="_top" xlink:title="do these two particle pointers resolve to the same particle?">
<polygon fill="none" stroke="#000000" points="524.5,-408.5 524.5,-440.5 635.5,-440.5 635.5,-408.5 524.5,-408.5"/>
<text text-anchor="start" x="532.5" y="-427.5" font-family="FreeSans" font-size="10.00" fill="#000000">BaseTruthEval::are</text>
<text text-anchor="middle" x="580" y="-415.5" font-family="FreeSans" font-size="10.00" fill="#000000">_same_particle</text>
</a>
</g>
</g>
<!-- Node17&#45;&gt;Node18 -->
<g id="edge18" class="edge">
<title>Node17&#45;&gt;Node18</title>
<path fill="none" stroke="#191970" d="M454.984,-427.2781C473.7368,-426.8614 494.8926,-426.3913 514.3952,-425.9579"/>
<polygon fill="#191970" stroke="#191970" points="514.5019,-429.4565 524.4217,-425.7351 514.3464,-422.4582 514.5019,-429.4565"/>
</g>
<!-- Node18&#45;&gt;Node15 -->
<g id="edge20" class="edge">
<title>Node18&#45;&gt;Node15</title>
<path fill="none" stroke="#191970" d="M635.558,-410.7863C699.2077,-394.474 798.974,-366.8908 832,-346.5 868.9958,-323.6581 902.0091,-284.9763 921.1426,-259.8397"/>
<polygon fill="#191970" stroke="#191970" points="924.1434,-261.6705 927.3153,-251.5616 918.5317,-257.486 924.1434,-261.6705"/>
</g>
<!-- Node19 -->
<g id="node19" class="node">
<title>Node19</title>
<g id="a_node19"><a xlink:href="../../de/dc9/classPHG4Particle.html#ac29b72a8cdeebc0754b6dd42b0cfab86" target="_top" xlink:title="PHG4Particle::get_track_id">
<polygon fill="none" stroke="#000000" points="679.5,-414.5 679.5,-434.5 828.5,-434.5 828.5,-414.5 679.5,-414.5"/>
<text text-anchor="middle" x="754" y="-421.5" font-family="FreeSans" font-size="10.00" fill="#000000">PHG4Particle::get_track_id</text>
</a>
</g>
</g>
<!-- Node18&#45;&gt;Node19 -->
<g id="edge19" class="edge">
<title>Node18&#45;&gt;Node19</title>
<path fill="none" stroke="#191970" d="M635.5331,-424.5C646.3025,-424.5 657.8153,-424.5 669.2755,-424.5"/>
<polygon fill="#191970" stroke="#191970" points="669.313,-428.0001 679.313,-424.5 669.313,-421.0001 669.313,-428.0001"/>
</g>
<!-- Node24&#45;&gt;Node16 -->
<g id="edge26" class="edge">
<title>Node24&#45;&gt;Node16</title>
<path fill="none" stroke="#191970" d="M455.4747,-369.487C472.5652,-367.0184 491.6134,-364.267 509.5695,-361.6733"/>
<polygon fill="#191970" stroke="#191970" points="510.3049,-365.1035 519.7018,-360.2097 509.3041,-358.1754 510.3049,-365.1035"/>
</g>
</g>
</svg>
