<?xml version="1.0" encoding="UTF-8" standalone="no"?>
<!DOCTYPE svg PUBLIC "-//W3C//DTD SVG 1.1//EN"
 "http://www.w3.org/Graphics/SVG/1.1/DTD/svg11.dtd">
<!-- Generated by graphviz version 2.40.1 (20161225.0304)
 -->
<!-- Title: ReadEICFiles::GetTree Pages: 1 -->
<svg width="530pt" height="326pt"
 viewBox="0.00 0.00 530.00 326.00" xmlns="http://www.w3.org/2000/svg" xmlns:xlink="http://www.w3.org/1999/xlink">
<g id="graph0" class="graph" transform="scale(1 1) rotate(0) translate(4 322)">
<title>ReadEICFiles::GetTree</title>
<!-- Node1 -->
<g id="node1" class="node">
<title>Node1</title>
<polygon fill="#bfbfbf" stroke="#000000" points="0,-145.5 0,-165.5 126,-165.5 126,-145.5 0,-145.5"/>
<text text-anchor="middle" x="63" y="-152.5" font-family="FreeSans" font-size="10.00" fill="#000000">ReadEICFiles::GetTree</text>
</g>
<!-- Node2 -->
<g id="node2" class="node">
<title>Node2</title>
<g id="a_node2"><a xlink:href="../../d3/d49/classReadEICFiles.html#a6f1066da3bffd47bb57c4becf13630c2" target="_top" xlink:title="ReadEICFiles::OpenInputFile">
<polygon fill="none" stroke="#000000" points="162,-145.5 162,-165.5 319,-165.5 319,-145.5 162,-145.5"/>
<text text-anchor="middle" x="240.5" y="-152.5" font-family="FreeSans" font-size="10.00" fill="#000000">ReadEICFiles::OpenInputFile</text>
</a>
</g>
</g>
<!-- Node1&#45;&gt;Node2 -->
<g id="edge1" class="edge">
<title>Node1&#45;&gt;Node2</title>
<path fill="none" stroke="#191970" d="M136.2414,-155.5C144.668,-155.5 153.287,-155.5 161.7819,-155.5"/>
<polygon fill="#191970" stroke="#191970" points="136.0797,-152.0001 126.0796,-155.5 136.0796,-159.0001 136.0797,-152.0001"/>
</g>
<!-- Node3 -->
<g id="node3" class="node">
<title>Node3</title>
<g id="a_node3"><a xlink:href="../../de/d6b/Fun4All__MCEventGen_8C.html#a4e6d2272e7266684626c0653520558ef" target="_top" xlink:title="Fun4All_MCEventGen">
<polygon fill="none" stroke="#000000" points="377,-297.5 377,-317.5 500,-317.5 500,-297.5 377,-297.5"/>
<text text-anchor="middle" x="438.5" y="-304.5" font-family="FreeSans" font-size="10.00" fill="#000000">Fun4All_MCEventGen</text>
</a>
</g>
</g>
<!-- Node2&#45;&gt;Node3 -->
<g id="edge2" class="edge">
<title>Node2&#45;&gt;Node3</title>
<path fill="none" stroke="#191970" d="M251.3867,-174.6264C269.1301,-203.9659 307.1571,-259.6997 355,-288.5 361.7508,-292.5638 369.2853,-295.7593 376.9896,-298.2719"/>
<polygon fill="#191970" stroke="#191970" points="254.2562,-172.6019 246.1621,-165.7655 248.2263,-176.1573 254.2562,-172.6019"/>
</g>
<!-- Node4 -->
<g id="node4" class="node">
<title>Node4</title>
<g id="a_node4"><a xlink:href="../../d2/d47/Fun4All__EICAnalysis__DVCS_8C.html#a84f48142243e969fd353cc8509f0ba22" target="_top" xlink:title="Fun4All_EICAnalysis_DVCS">
<polygon fill="none" stroke="#000000" points="363.5,-258.5 363.5,-278.5 513.5,-278.5 513.5,-258.5 363.5,-258.5"/>
<text text-anchor="middle" x="438.5" y="-265.5" font-family="FreeSans" font-size="10.00" fill="#000000">Fun4All_EICAnalysis_DVCS</text>
</a>
</g>
</g>
<!-- Node2&#45;&gt;Node4 -->
<g id="edge3" class="edge">
<title>Node2&#45;&gt;Node4</title>
<path fill="none" stroke="#191970" d="M256.5535,-172.925C277.2327,-194.2846 315.2691,-230.0344 355,-249.5 362.343,-253.0976 370.3849,-256.0263 378.4866,-258.4076"/>
<polygon fill="#191970" stroke="#191970" points="258.9342,-170.3492 249.5105,-165.5072 253.8579,-175.169 258.9342,-170.3492"/>
</g>
<!-- Node5 -->
<g id="node5" class="node">
<title>Node5</title>
<g id="a_node5"><a xlink:href="../../d2/d00/Fun4All__EICAnalysis__Leptoquarks_8C.html#a328697c2ae82c0b33f95bea9aefb93f4" target="_top" xlink:title="Fun4All_EICAnalysis\l_Leptoquarks">
<polygon fill="none" stroke="#000000" points="380,-207.5 380,-239.5 497,-239.5 497,-207.5 380,-207.5"/>
<text text-anchor="start" x="388" y="-226.5" font-family="FreeSans" font-size="10.00" fill="#000000">Fun4All_EICAnalysis</text>
<text text-anchor="middle" x="438.5" y="-214.5" font-family="FreeSans" font-size="10.00" fill="#000000">_Leptoquarks</text>
</a>
</g>
</g>
<!-- Node2&#45;&gt;Node5 -->
<g id="edge4" class="edge">
<title>Node2&#45;&gt;Node5</title>
<path fill="none" stroke="#191970" d="M275.2815,-169.2686C297.8623,-178.0318 328.0068,-189.4023 355,-198.5 364.0341,-201.5448 373.6786,-204.605 383.086,-207.4887"/>
<polygon fill="#191970" stroke="#191970" points="276.3767,-165.939 265.7884,-165.5653 273.8326,-172.4603 276.3767,-165.939"/>
</g>
<!-- Node6 -->
<g id="node6" class="node">
<title>Node6</title>
<g id="a_node6"><a xlink:href="../../dd/d2a/Fun4All__G4__EICDetector__LQ_8C.html#aaa01242fd6e77ca43a9d49a6d46008e4" target="_top" xlink:title="Fun4All_G4_EICDetector_LQ">
<polygon fill="none" stroke="#000000" points="360.5,-168.5 360.5,-188.5 516.5,-188.5 516.5,-168.5 360.5,-168.5"/>
<text text-anchor="middle" x="438.5" y="-175.5" font-family="FreeSans" font-size="10.00" fill="#000000">Fun4All_G4_EICDetector_LQ</text>
</a>
</g>
</g>
<!-- Node2&#45;&gt;Node6 -->
<g id="edge5" class="edge">
<title>Node2&#45;&gt;Node6</title>
<path fill="none" stroke="#191970" d="M329.0029,-165.7806C339.4617,-166.9956 350.0786,-168.2288 360.3795,-169.4254"/>
<polygon fill="#191970" stroke="#191970" points="329.3763,-162.3006 319.0392,-164.6232 328.5686,-169.2538 329.3763,-162.3006"/>
</g>
<!-- Node7 -->
<g id="node7" class="node">
<title>Node7</title>
<g id="a_node7"><a xlink:href="../../d4/df5/Fun4All__G4__EICDetector__LQ__reference_8C.html#a2feefc472f17f90b3cbe74897d049f75" target="_top" xlink:title="Fun4All_G4_EICDetector\l_LQ_reference">
<polygon fill="none" stroke="#000000" points="369,-117.5 369,-149.5 508,-149.5 508,-117.5 369,-117.5"/>
<text text-anchor="start" x="377" y="-136.5" font-family="FreeSans" font-size="10.00" fill="#000000">Fun4All_G4_EICDetector</text>
<text text-anchor="middle" x="438.5" y="-124.5" font-family="FreeSans" font-size="10.00" fill="#000000">_LQ_reference</text>
</a>
</g>
</g>
<!-- Node2&#45;&gt;Node7 -->
<g id="edge6" class="edge">
<title>Node2&#45;&gt;Node7</title>
<path fill="none" stroke="#191970" d="M329.121,-145.6532C342.3898,-144.1789 355.9102,-142.6766 368.7144,-141.254"/>
<polygon fill="#191970" stroke="#191970" points="328.5915,-142.1904 319.0392,-146.7734 329.3646,-149.1476 328.5915,-142.1904"/>
</g>
<!-- Node8 -->
<g id="node8" class="node">
<title>Node8</title>
<g id="a_node8"><a xlink:href="../../d3/d51/Fun4All__G4__EICDetector__RICH_8C.html#a5739502b0a7a1ba782c01069f77e933f" target="_top" xlink:title="Fun4All_G4_EICDetector_RICH">
<polygon fill="none" stroke="#000000" points="355,-78.5 355,-98.5 522,-98.5 522,-78.5 355,-78.5"/>
<text text-anchor="middle" x="438.5" y="-85.5" font-family="FreeSans" font-size="10.00" fill="#000000">Fun4All_G4_EICDetector_RICH</text>
</a>
</g>
</g>
<!-- Node2&#45;&gt;Node8 -->
<g id="edge7" class="edge">
<title>Node2&#45;&gt;Node8</title>
<path fill="none" stroke="#191970" d="M271.2409,-141.364C294.0226,-131.2632 326.0141,-117.8586 355,-108.5 366.4903,-104.7902 379.0688,-101.4257 390.8966,-98.5595"/>
<polygon fill="#191970" stroke="#191970" points="269.7721,-138.1868 262.0768,-145.4692 272.6339,-144.5751 269.7721,-138.1868"/>
</g>
<!-- Node9 -->
<g id="node9" class="node">
<title>Node9</title>
<g id="a_node9"><a xlink:href="../../da/d02/Fun4All__G4__EICDetector_8C.html#afbe82cefa1d1fd031d9a8586b7bb68c6" target="_top" xlink:title="Fun4All_G4_EICDetector">
<polygon fill="none" stroke="#000000" points="369,-39.5 369,-59.5 508,-59.5 508,-39.5 369,-39.5"/>
<text text-anchor="middle" x="438.5" y="-46.5" font-family="FreeSans" font-size="10.00" fill="#000000">Fun4All_G4_EICDetector</text>
</a>
</g>
</g>
<!-- Node2&#45;&gt;Node9 -->
<g id="edge8" class="edge">
<title>Node2&#45;&gt;Node9</title>
<path fill="none" stroke="#191970" d="M258.2087,-138.4678C279.4923,-118.9373 317.098,-87.3271 355,-69.5 363.633,-65.4395 373.1682,-62.1593 382.615,-59.5229"/>
<polygon fill="#191970" stroke="#191970" points="255.8041,-135.9245 250.8841,-145.3077 260.5817,-141.0407 255.8041,-135.9245"/>
</g>
<!-- Node10 -->
<g id="node10" class="node">
<title>Node10</title>
<g id="a_node10"><a xlink:href="../../d4/dfa/Fun4All__Generator__Display_8C.html#af87924a94b22e18901f0d64805565f09" target="_top" xlink:title="Fun4All_Generator_Display">
<polygon fill="none" stroke="#000000" points="362.5,-.5 362.5,-20.5 514.5,-20.5 514.5,-.5 362.5,-.5"/>
<text text-anchor="middle" x="438.5" y="-7.5" font-family="FreeSans" font-size="10.00" fill="#000000">Fun4All_Generator_Display</text>
</a>
</g>
</g>
<!-- Node2&#45;&gt;Node10 -->
<g id="edge9" class="edge">
<title>Node2&#45;&gt;Node10</title>
<path fill="none" stroke="#191970" d="M252.2574,-136.7814C270.6622,-109.0977 308.9755,-57.5997 355,-30.5 361.9364,-26.4158 369.6619,-23.1647 377.5348,-20.5769"/>
<polygon fill="#191970" stroke="#191970" points="249.3094,-134.8947 246.7966,-145.1872 255.1795,-138.7081 249.3094,-134.8947"/>
</g>
</g>
</svg>
