<?xml version="1.0" encoding="UTF-8" standalone="no"?>
<!DOCTYPE svg PUBLIC "-//W3C//DTD SVG 1.1//EN"
 "http://www.w3.org/Graphics/SVG/1.1/DTD/svg11.dtd">
<!-- Generated by graphviz version 2.40.1 (20161225.0304)
 -->
<!-- Title: TruthTrackerHepMC::FindParticle Pages: 1 -->
<svg width="501pt" height="92pt"
 viewBox="0.00 0.00 501.00 92.00" xmlns="http://www.w3.org/2000/svg" xmlns:xlink="http://www.w3.org/1999/xlink">
<g id="graph0" class="graph" transform="scale(1 1) rotate(0) translate(4 88)">
<title>TruthTrackerHepMC::FindParticle</title>
<!-- Node1 -->
<g id="node1" class="node">
<title>Node1</title>
<polygon fill="#bfbfbf" stroke="#000000" points="0,-25.5 0,-57.5 121,-57.5 121,-25.5 0,-25.5"/>
<text text-anchor="start" x="8" y="-44.5" font-family="FreeSans" font-size="10.00" fill="#000000">TruthTrackerHepMC::</text>
<text text-anchor="middle" x="60.5" y="-32.5" font-family="FreeSans" font-size="10.00" fill="#000000">FindParticle</text>
</g>
<!-- Node2 -->
<g id="node2" class="node">
<title>Node2</title>
<g id="a_node2"><a xlink:href="../../d6/d40/classLeptoquarksReco.html#a0b9c5ead2ddb44a0aec04c64973299f5" target="_top" xlink:title="LeptoquarksReco::AddTrue\lTauTag">
<polygon fill="none" stroke="#000000" points="157,-51.5 157,-83.5 308,-83.5 308,-51.5 157,-51.5"/>
<text text-anchor="start" x="165" y="-70.5" font-family="FreeSans" font-size="10.00" fill="#000000">LeptoquarksReco::AddTrue</text>
<text text-anchor="middle" x="232.5" y="-58.5" font-family="FreeSans" font-size="10.00" fill="#000000">TauTag</text>
</a>
</g>
</g>
<!-- Node1&#45;&gt;Node2 -->
<g id="edge1" class="edge">
<title>Node1&#45;&gt;Node2</title>
<path fill="none" stroke="#191970" d="M131.266,-52.1972C139.6667,-53.4671 148.2678,-54.7672 156.7347,-56.0471"/>
<polygon fill="#191970" stroke="#191970" points="131.5516,-48.7007 121.1408,-50.6666 130.5053,-55.622 131.5516,-48.7007"/>
</g>
<!-- Node4 -->
<g id="node4" class="node">
<title>Node4</title>
<g id="a_node4"><a xlink:href="../../d7/d47/classLeptoquarks.html#a3f7335129b30cec1d731938ceedfbdcf" target="_top" xlink:title="Leptoquarks::process\l_event">
<polygon fill="none" stroke="#000000" points="170.5,-.5 170.5,-32.5 294.5,-32.5 294.5,-.5 170.5,-.5"/>
<text text-anchor="start" x="178.5" y="-19.5" font-family="FreeSans" font-size="10.00" fill="#000000">Leptoquarks::process</text>
<text text-anchor="middle" x="232.5" y="-7.5" font-family="FreeSans" font-size="10.00" fill="#000000">_event</text>
</a>
</g>
</g>
<!-- Node1&#45;&gt;Node4 -->
<g id="edge3" class="edge">
<title>Node1&#45;&gt;Node4</title>
<path fill="none" stroke="#191970" d="M131.387,-31.1967C144.3181,-29.3171 157.7198,-27.3692 170.3727,-25.5301"/>
<polygon fill="#191970" stroke="#191970" points="130.5333,-27.7839 121.1408,-32.6859 131.5402,-34.7111 130.5333,-27.7839"/>
</g>
<!-- Node3 -->
<g id="node3" class="node">
<title>Node3</title>
<g id="a_node3"><a xlink:href="../../d6/d40/classLeptoquarksReco.html#aa5b8ff9665c7a78246bd4f1194d66d1b" target="_top" xlink:title="LeptoquarksReco::process\l_event">
<polygon fill="none" stroke="#000000" points="344,-51.5 344,-83.5 493,-83.5 493,-51.5 344,-51.5"/>
<text text-anchor="start" x="352" y="-70.5" font-family="FreeSans" font-size="10.00" fill="#000000">LeptoquarksReco::process</text>
<text text-anchor="middle" x="418.5" y="-58.5" font-family="FreeSans" font-size="10.00" fill="#000000">_event</text>
</a>
</g>
</g>
<!-- Node2&#45;&gt;Node3 -->
<g id="edge2" class="edge">
<title>Node2&#45;&gt;Node3</title>
<path fill="none" stroke="#191970" d="M318.1557,-67.5C326.7239,-67.5 335.3758,-67.5 343.818,-67.5"/>
<polygon fill="#191970" stroke="#191970" points="318.1534,-64.0001 308.1533,-67.5 318.1533,-71.0001 318.1534,-64.0001"/>
</g>
</g>
</svg>
