<?xml version="1.0" encoding="UTF-8" standalone="no"?>
<!DOCTYPE svg PUBLIC "-//W3C//DTD SVG 1.1//EN"
 "http://www.w3.org/Graphics/SVG/1.1/DTD/svg11.dtd">
<!-- Generated by graphviz version 2.40.1 (20161225.0304)
 -->
<!-- Title: TruthTrackerHepMC::FindDaughterParticle Pages: 1 -->
<svg width="502pt" height="92pt"
 viewBox="0.00 0.00 502.00 92.00" xmlns="http://www.w3.org/2000/svg" xmlns:xlink="http://www.w3.org/1999/xlink">
<g id="graph0" class="graph" transform="scale(1 1) rotate(0) translate(4 88)">
<title>TruthTrackerHepMC::FindDaughterParticle</title>
<!-- Node1 -->
<g id="node1" class="node">
<title>Node1</title>
<polygon fill="#bfbfbf" stroke="#000000" points="0,-25.5 0,-57.5 122,-57.5 122,-25.5 0,-25.5"/>
<text text-anchor="start" x="8" y="-44.5" font-family="FreeSans" font-size="10.00" fill="#000000">TruthTrackerHepMC::</text>
<text text-anchor="middle" x="61" y="-32.5" font-family="FreeSans" font-size="10.00" fill="#000000">FindDaughterParticle</text>
</g>
<!-- Node2 -->
<g id="node2" class="node">
<title>Node2</title>
<g id="a_node2"><a xlink:href="../../d6/d40/classLeptoquarksReco.html#a0b9c5ead2ddb44a0aec04c64973299f5" target="_top" xlink:title="LeptoquarksReco::AddTrue\lTauTag">
<polygon fill="none" stroke="#000000" points="158,-51.5 158,-83.5 309,-83.5 309,-51.5 158,-51.5"/>
<text text-anchor="start" x="166" y="-70.5" font-family="FreeSans" font-size="10.00" fill="#000000">LeptoquarksReco::AddTrue</text>
<text text-anchor="middle" x="233.5" y="-58.5" font-family="FreeSans" font-size="10.00" fill="#000000">TauTag</text>
</a>
</g>
</g>
<!-- Node1&#45;&gt;Node2 -->
<g id="edge1" class="edge">
<title>Node1&#45;&gt;Node2</title>
<path fill="none" stroke="#191970" d="M132.4367,-52.2673C140.8417,-53.5341 149.4401,-54.8301 157.8998,-56.1052"/>
<polygon fill="#191970" stroke="#191970" points="132.7127,-48.7694 122.3028,-50.7398 131.6694,-55.6912 132.7127,-48.7694"/>
</g>
<!-- Node4 -->
<g id="node4" class="node">
<title>Node4</title>
<g id="a_node4"><a xlink:href="../../d7/d47/classLeptoquarks.html#a3f7335129b30cec1d731938ceedfbdcf" target="_top" xlink:title="Leptoquarks::process\l_event">
<polygon fill="none" stroke="#000000" points="171.5,-.5 171.5,-32.5 295.5,-32.5 295.5,-.5 171.5,-.5"/>
<text text-anchor="start" x="179.5" y="-19.5" font-family="FreeSans" font-size="10.00" fill="#000000">Leptoquarks::process</text>
<text text-anchor="middle" x="233.5" y="-7.5" font-family="FreeSans" font-size="10.00" fill="#000000">_event</text>
</a>
</g>
</g>
<!-- Node1&#45;&gt;Node4 -->
<g id="edge3" class="edge">
<title>Node1&#45;&gt;Node4</title>
<path fill="none" stroke="#191970" d="M132.4949,-31.1384C145.3525,-29.275 158.6609,-27.3462 171.2312,-25.5245"/>
<polygon fill="#191970" stroke="#191970" points="131.6973,-27.7174 122.3028,-32.6155 132.7014,-34.645 131.6973,-27.7174"/>
</g>
<!-- Node3 -->
<g id="node3" class="node">
<title>Node3</title>
<g id="a_node3"><a xlink:href="../../d6/d40/classLeptoquarksReco.html#aa5b8ff9665c7a78246bd4f1194d66d1b" target="_top" xlink:title="LeptoquarksReco::process\l_event">
<polygon fill="none" stroke="#000000" points="345,-51.5 345,-83.5 494,-83.5 494,-51.5 345,-51.5"/>
<text text-anchor="start" x="353" y="-70.5" font-family="FreeSans" font-size="10.00" fill="#000000">LeptoquarksReco::process</text>
<text text-anchor="middle" x="419.5" y="-58.5" font-family="FreeSans" font-size="10.00" fill="#000000">_event</text>
</a>
</g>
</g>
<!-- Node2&#45;&gt;Node3 -->
<g id="edge2" class="edge">
<title>Node2&#45;&gt;Node3</title>
<path fill="none" stroke="#191970" d="M319.1557,-67.5C327.7239,-67.5 336.3758,-67.5 344.818,-67.5"/>
<polygon fill="#191970" stroke="#191970" points="319.1534,-64.0001 309.1533,-67.5 319.1533,-71.0001 319.1534,-64.0001"/>
</g>
</g>
</svg>
