<?xml version="1.0" encoding="UTF-8" standalone="no"?>
<!DOCTYPE svg PUBLIC "-//W3C//DTD SVG 1.1//EN"
 "http://www.w3.org/Graphics/SVG/1.1/DTD/svg11.dtd">
<!-- Generated by graphviz version 2.40.1 (20161225.0304)
 -->
<!-- Title: SvtxVertexMap::size Pages: 1 -->
<svg width="509pt" height="362pt"
 viewBox="0.00 0.00 509.00 362.00" xmlns="http://www.w3.org/2000/svg" xmlns:xlink="http://www.w3.org/1999/xlink">
<g id="graph0" class="graph" transform="scale(1 1) rotate(0) translate(4 358)">
<title>SvtxVertexMap::size</title>
<!-- Node1 -->
<g id="node1" class="node">
<title>Node1</title>
<polygon fill="#bfbfbf" stroke="#000000" points="0,-169.5 0,-189.5 118,-189.5 118,-169.5 0,-169.5"/>
<text text-anchor="middle" x="59" y="-176.5" font-family="FreeSans" font-size="10.00" fill="#000000">SvtxVertexMap::size</text>
</g>
<!-- Node2 -->
<g id="node2" class="node">
<title>Node2</title>
<g id="a_node2"><a xlink:href="../../d8/d98/classpsTOFTimezeroEval.html#a25c3e5e12649de1507e66c332b989be0" target="_top" xlink:title="print out the input object information (debugging upstream components)">
<polygon fill="none" stroke="#000000" points="174,-321.5 174,-353.5 296,-353.5 296,-321.5 174,-321.5"/>
<text text-anchor="start" x="182" y="-340.5" font-family="FreeSans" font-size="10.00" fill="#000000">psTOFTimezeroEval::</text>
<text text-anchor="middle" x="235" y="-328.5" font-family="FreeSans" font-size="10.00" fill="#000000">printInputInfo</text>
</a>
</g>
</g>
<!-- Node1&#45;&gt;Node2 -->
<g id="edge1" class="edge">
<title>Node1&#45;&gt;Node2</title>
<path fill="none" stroke="#191970" d="M67.6141,-198.6098C81.6092,-227.5194 112.006,-282.2047 154,-312.5 159.9677,-316.8052 166.6941,-320.3824 173.6553,-323.3516"/>
<polygon fill="#191970" stroke="#191970" points="70.7744,-197.1053 63.3558,-189.5413 64.4382,-200.0807 70.7744,-197.1053"/>
</g>
<!-- Node4 -->
<g id="node4" class="node">
<title>Node4</title>
<g id="a_node4"><a xlink:href="../../d2/d85/classSvtxEvaluatorHaiwang.html#a5f5b66b96bcf4e8f905129e47e406dfc" target="_top" xlink:title="print out the input object information (debugging upstream components)">
<polygon fill="none" stroke="#000000" points="169.5,-270.5 169.5,-302.5 300.5,-302.5 300.5,-270.5 169.5,-270.5"/>
<text text-anchor="start" x="177.5" y="-289.5" font-family="FreeSans" font-size="10.00" fill="#000000">SvtxEvaluatorHaiwang</text>
<text text-anchor="middle" x="235" y="-277.5" font-family="FreeSans" font-size="10.00" fill="#000000">::printInputInfo</text>
</a>
</g>
</g>
<!-- Node1&#45;&gt;Node4 -->
<g id="edge3" class="edge">
<title>Node1&#45;&gt;Node4</title>
<path fill="none" stroke="#191970" d="M74.954,-197.0317C92.6312,-215.4881 122.7862,-244.215 154,-261.5 160.0512,-264.8509 166.6107,-267.814 173.2879,-270.4189"/>
<polygon fill="#191970" stroke="#191970" points="77.3586,-194.4794 67.963,-189.5832 72.2546,-199.2699 77.3586,-194.4794"/>
</g>
<!-- Node6 -->
<g id="node6" class="node">
<title>Node6</title>
<g id="a_node6"><a xlink:href="../../d6/d11/classSvtxEvaluator.html#a51a88cb55f439b7bc820fa1f727bf39a" target="_top" xlink:title="print out the input object information (debugging upstream components)">
<polygon fill="none" stroke="#000000" points="154,-231.5 154,-251.5 316,-251.5 316,-231.5 154,-231.5"/>
<text text-anchor="middle" x="235" y="-238.5" font-family="FreeSans" font-size="10.00" fill="#000000">SvtxEvaluator::printInputInfo</text>
</a>
</g>
</g>
<!-- Node1&#45;&gt;Node6 -->
<g id="edge5" class="edge">
<title>Node1&#45;&gt;Node6</title>
<path fill="none" stroke="#191970" d="M87.2866,-194.0576C105.8761,-203.1826 130.9382,-214.6594 154,-222.5 163.9831,-225.8941 174.8591,-228.8974 185.3071,-231.4569"/>
<polygon fill="#191970" stroke="#191970" points="88.712,-190.8575 78.2004,-189.5319 85.5911,-197.1233 88.712,-190.8575"/>
</g>
<!-- Node8 -->
<g id="node8" class="node">
<title>Node8</title>
<g id="a_node8"><a xlink:href="../../d0/d22/classPHGenFitTrkProp.html#a31e50e42d62a2bf32763652b39dc95b8" target="_top" xlink:title="PHGenFitTrkProp::Process">
<polygon fill="none" stroke="#000000" points="163,-192.5 163,-212.5 307,-212.5 307,-192.5 163,-192.5"/>
<text text-anchor="middle" x="235" y="-199.5" font-family="FreeSans" font-size="10.00" fill="#000000">PHGenFitTrkProp::Process</text>
</a>
</g>
</g>
<!-- Node1&#45;&gt;Node8 -->
<g id="edge7" class="edge">
<title>Node1&#45;&gt;Node8</title>
<path fill="none" stroke="#191970" d="M128.0267,-188.5205C139.4839,-190.0178 151.3917,-191.5739 162.9221,-193.0807"/>
<polygon fill="#191970" stroke="#191970" points="128.4643,-185.048 118.0951,-187.2227 127.5572,-191.989 128.4643,-185.048"/>
</g>
<!-- Node9 -->
<g id="node9" class="node">
<title>Node9</title>
<g id="a_node9"><a xlink:href="../../de/d25/classPHGenFitTrkFitter.html#a2e088a68ab24c5b89b902205f877f9d6" target="_top" xlink:title="Process Event, called for each event.">
<polygon fill="none" stroke="#000000" points="180.5,-141.5 180.5,-173.5 289.5,-173.5 289.5,-141.5 180.5,-141.5"/>
<text text-anchor="start" x="188.5" y="-160.5" font-family="FreeSans" font-size="10.00" fill="#000000">PHGenFitTrkFitter::</text>
<text text-anchor="middle" x="235" y="-148.5" font-family="FreeSans" font-size="10.00" fill="#000000">process_event</text>
</a>
</g>
</g>
<!-- Node1&#45;&gt;Node9 -->
<g id="edge8" class="edge">
<title>Node1&#45;&gt;Node9</title>
<path fill="none" stroke="#191970" d="M128.1352,-170.8581C145.4242,-168.697 163.7325,-166.4084 180.218,-164.3477"/>
<polygon fill="#191970" stroke="#191970" points="127.5837,-167.3997 118.0951,-172.1131 128.452,-174.3457 127.5837,-167.3997"/>
</g>
<!-- Node10 -->
<g id="node10" class="node">
<title>Node10</title>
<g id="a_node10"><a xlink:href="../../df/dd7/classTpcPrototypeGenFitTrkFitter.html#a8861dffacdf05e47efc97b65adbafe32" target="_top" xlink:title="Process Event, called for each event.">
<polygon fill="none" stroke="#000000" points="156.5,-90.5 156.5,-122.5 313.5,-122.5 313.5,-90.5 156.5,-90.5"/>
<text text-anchor="start" x="164.5" y="-109.5" font-family="FreeSans" font-size="10.00" fill="#000000">TpcPrototypeGenFitTrkFitter</text>
<text text-anchor="middle" x="235" y="-97.5" font-family="FreeSans" font-size="10.00" fill="#000000">::process_event</text>
</a>
</g>
</g>
<!-- Node1&#45;&gt;Node10 -->
<g id="edge9" class="edge">
<title>Node1&#45;&gt;Node10</title>
<path fill="none" stroke="#191970" d="M86.0542,-164.7692C104.7988,-154.8992 130.5114,-142.0185 154,-132.5 162.6234,-129.0055 171.9081,-125.6563 181.0062,-122.5925"/>
<polygon fill="#191970" stroke="#191970" points="84.3786,-161.6961 77.1945,-169.4833 87.6667,-167.8758 84.3786,-161.6961"/>
</g>
<!-- Node11 -->
<g id="node11" class="node">
<title>Node11</title>
<g id="a_node11"><a xlink:href="../../dc/df0/classDumpSvtxVertexMap.html#a2448628d42c6dfe99f0e936f27154d16" target="_top" xlink:title="DumpSvtxVertexMap::\lprocess_Node">
<polygon fill="none" stroke="#000000" points="170.5,-39.5 170.5,-71.5 299.5,-71.5 299.5,-39.5 170.5,-39.5"/>
<text text-anchor="start" x="178.5" y="-58.5" font-family="FreeSans" font-size="10.00" fill="#000000">DumpSvtxVertexMap::</text>
<text text-anchor="middle" x="235" y="-46.5" font-family="FreeSans" font-size="10.00" fill="#000000">process_Node</text>
</a>
</g>
</g>
<!-- Node1&#45;&gt;Node11 -->
<g id="edge10" class="edge">
<title>Node1&#45;&gt;Node11</title>
<path fill="none" stroke="#191970" d="M72.2248,-161.1435C88.9322,-139.2121 119.6776,-102.8167 154,-81.5 160.1477,-77.6818 166.9095,-74.3728 173.8252,-71.5178"/>
<polygon fill="#191970" stroke="#191970" points="69.3109,-159.1965 66.146,-169.3075 74.9255,-163.377 69.3109,-159.1965"/>
</g>
<!-- Node12 -->
<g id="node12" class="node">
<title>Node12</title>
<g id="a_node12"><a xlink:href="../../d8/dd4/classPHHoughSeeding.html#a1904449fa2b17c24a1a1eeb1f8bc9be1" target="_top" xlink:title="code to seed vertex from initial tracking using a broad search window">
<polygon fill="none" stroke="#000000" points="155.5,-.5 155.5,-20.5 314.5,-20.5 314.5,-.5 155.5,-.5"/>
<text text-anchor="middle" x="235" y="-7.5" font-family="FreeSans" font-size="10.00" fill="#000000">PHHoughSeeding::vertexing</text>
</a>
</g>
</g>
<!-- Node1&#45;&gt;Node12 -->
<g id="edge11" class="edge">
<title>Node1&#45;&gt;Node12</title>
<path fill="none" stroke="#191970" d="M66.0317,-159.6232C78.5076,-127.3386 107.6517,-63.7732 154,-30.5 159.648,-26.4453 166.0257,-23.208 172.6608,-20.6241"/>
<polygon fill="#191970" stroke="#191970" points="62.6443,-158.6908 62.439,-169.2837 69.2053,-161.1309 62.6443,-158.6908"/>
</g>
<!-- Node3 -->
<g id="node3" class="node">
<title>Node3</title>
<g id="a_node3"><a xlink:href="../../d8/d98/classpsTOFTimezeroEval.html#a2e98730e1beaa91c36947c0fe671fdd2" target="_top" xlink:title="psTOFTimezeroEval::\lprocess_event">
<polygon fill="none" stroke="#000000" points="365.5,-321.5 365.5,-353.5 487.5,-353.5 487.5,-321.5 365.5,-321.5"/>
<text text-anchor="start" x="373.5" y="-340.5" font-family="FreeSans" font-size="10.00" fill="#000000">psTOFTimezeroEval::</text>
<text text-anchor="middle" x="426.5" y="-328.5" font-family="FreeSans" font-size="10.00" fill="#000000">process_event</text>
</a>
</g>
</g>
<!-- Node2&#45;&gt;Node3 -->
<g id="edge2" class="edge">
<title>Node2&#45;&gt;Node3</title>
<path fill="none" stroke="#191970" d="M306.1343,-337.5C325.5763,-337.5 346.471,-337.5 365.3055,-337.5"/>
<polygon fill="#191970" stroke="#191970" points="306.1183,-334.0001 296.1183,-337.5 306.1183,-341.0001 306.1183,-334.0001"/>
</g>
<!-- Node5 -->
<g id="node5" class="node">
<title>Node5</title>
<g id="a_node5"><a xlink:href="../../d2/d85/classSvtxEvaluatorHaiwang.html#ab63ca0cc53b56dad65b89d9b18220bce" target="_top" xlink:title="SvtxEvaluatorHaiwang\l::process_event">
<polygon fill="none" stroke="#000000" points="361,-270.5 361,-302.5 492,-302.5 492,-270.5 361,-270.5"/>
<text text-anchor="start" x="369" y="-289.5" font-family="FreeSans" font-size="10.00" fill="#000000">SvtxEvaluatorHaiwang</text>
<text text-anchor="middle" x="426.5" y="-277.5" font-family="FreeSans" font-size="10.00" fill="#000000">::process_event</text>
</a>
</g>
</g>
<!-- Node4&#45;&gt;Node5 -->
<g id="edge4" class="edge">
<title>Node4&#45;&gt;Node5</title>
<path fill="none" stroke="#191970" d="M310.8299,-286.5C327.406,-286.5 344.8154,-286.5 360.9503,-286.5"/>
<polygon fill="#191970" stroke="#191970" points="310.6356,-283.0001 300.6355,-286.5 310.6355,-290.0001 310.6356,-283.0001"/>
</g>
<!-- Node7 -->
<g id="node7" class="node">
<title>Node7</title>
<g id="a_node7"><a xlink:href="../../d6/d11/classSvtxEvaluator.html#ac66ea4145deb621d9e4fb38cf852dc33" target="_top" xlink:title="SvtxEvaluator::process\l_event">
<polygon fill="none" stroke="#000000" points="360.5,-219.5 360.5,-251.5 492.5,-251.5 492.5,-219.5 360.5,-219.5"/>
<text text-anchor="start" x="368.5" y="-238.5" font-family="FreeSans" font-size="10.00" fill="#000000">SvtxEvaluator::process</text>
<text text-anchor="middle" x="426.5" y="-226.5" font-family="FreeSans" font-size="10.00" fill="#000000">_event</text>
</a>
</g>
</g>
<!-- Node6&#45;&gt;Node7 -->
<g id="edge6" class="edge">
<title>Node6&#45;&gt;Node7</title>
<path fill="none" stroke="#191970" d="M326.2459,-238.6411C337.7066,-238.282 349.2534,-237.9203 360.2278,-237.5764"/>
<polygon fill="#191970" stroke="#191970" points="326.0987,-235.1439 316.2132,-238.9555 326.318,-242.1405 326.0987,-235.1439"/>
</g>
<!-- Node13 -->
<g id="node13" class="node">
<title>Node13</title>
<g id="a_node13"><a xlink:href="../../d8/dd4/classPHHoughSeeding.html#a8b2c7b85b2bcbe054e071dd6ff624f7d" target="_top" xlink:title="PHHoughSeeding::Process">
<polygon fill="none" stroke="#000000" points="352,-.5 352,-20.5 501,-20.5 501,-.5 352,-.5"/>
<text text-anchor="middle" x="426.5" y="-7.5" font-family="FreeSans" font-size="10.00" fill="#000000">PHHoughSeeding::Process</text>
</a>
</g>
</g>
<!-- Node12&#45;&gt;Node13 -->
<g id="edge12" class="edge">
<title>Node12&#45;&gt;Node13</title>
<path fill="none" stroke="#191970" d="M324.7307,-10.5C333.7908,-10.5 342.9231,-10.5 351.8013,-10.5"/>
<polygon fill="#191970" stroke="#191970" points="324.5496,-7.0001 314.5496,-10.5 324.5495,-14.0001 324.5496,-7.0001"/>
</g>
</g>
</svg>
