<?xml version="1.0" encoding="UTF-8" standalone="no"?>
<!DOCTYPE svg PUBLIC "-//W3C//DTD SVG 1.1//EN"
 "http://www.w3.org/Graphics/SVG/1.1/DTD/svg11.dtd">
<!-- Generated by graphviz version 2.40.1 (20161225.0304)
 -->
<!-- Title: TpcPrototypeUnpacker::PadPlaneData Pages: 1 -->
<svg width="297pt" height="203pt"
 viewBox="0.00 0.00 297.00 203.00" xmlns="http://www.w3.org/2000/svg" xmlns:xlink="http://www.w3.org/1999/xlink">
<g id="graph0" class="graph" transform="scale(1 1) rotate(0) translate(4 199)">
<title>TpcPrototypeUnpacker::PadPlaneData</title>
<!-- Node1 -->
<g id="node1" class="node">
<title>Node1</title>
<polygon fill="#bfbfbf" stroke="#000000" points="114,-.5 114,-32.5 246,-32.5 246,-.5 114,-.5"/>
<text text-anchor="start" x="122" y="-19.5" font-family="FreeSans" font-size="10.00" fill="#000000">TpcPrototypeUnpacker</text>
<text text-anchor="middle" x="180" y="-7.5" font-family="FreeSans" font-size="10.00" fill="#000000">::PadPlaneData</text>
</g>
<!-- Node2 -->
<g id="node2" class="node">
<title>Node2</title>
<polygon fill="none" stroke="#bfbfbf" points="17,-81.5 17,-113.5 131,-113.5 131,-81.5 17,-81.5"/>
<text text-anchor="start" x="25" y="-100.5" font-family="FreeSans" font-size="10.00" fill="#000000">std::multimap&lt; int,</text>
<text text-anchor="middle" x="74" y="-88.5" font-family="FreeSans" font-size="10.00" fill="#000000"> SampleID &gt;</text>
</g>
<!-- Node2&#45;&gt;Node1 -->
<g id="edge1" class="edge">
<title>Node2&#45;&gt;Node1</title>
<path fill="none" stroke="#9a32cd" stroke-dasharray="5,2" d="M103.1783,-75.2034C120.773,-61.7584 142.7905,-44.9337 158.7385,-32.747"/>
<polygon fill="#9a32cd" stroke="#9a32cd" points="100.7628,-72.6442 94.9422,-81.497 105.013,-78.2063 100.7628,-72.6442"/>
<text text-anchor="middle" x="161" y="-54" font-family="FreeSans" font-size="10.00" fill="#000000"> m_groups</text>
</g>
<!-- Node3 -->
<g id="node3" class="node">
<title>Node3</title>
<g id="a_node3"><a xlink:href="../../db/d40/structTpcPrototypeUnpacker_1_1PadPlaneData_1_1SampleID.html" target="_top" xlink:title="TpcPrototypeUnpacker\l::PadPlaneData::SampleID">
<polygon fill="none" stroke="#000000" points="0,-162.5 0,-194.5 148,-194.5 148,-162.5 0,-162.5"/>
<text text-anchor="start" x="8" y="-181.5" font-family="FreeSans" font-size="10.00" fill="#000000">TpcPrototypeUnpacker</text>
<text text-anchor="middle" x="74" y="-169.5" font-family="FreeSans" font-size="10.00" fill="#000000">::PadPlaneData::SampleID</text>
</a>
</g>
</g>
<!-- Node3&#45;&gt;Node2 -->
<g id="edge2" class="edge">
<title>Node3&#45;&gt;Node2</title>
<path fill="none" stroke="#9a32cd" stroke-dasharray="5,2" d="M74,-152.4588C74,-139.7376 74,-124.8258 74,-113.747"/>
<polygon fill="#9a32cd" stroke="#9a32cd" points="70.5001,-152.497 74,-162.497 77.5001,-152.497 70.5001,-152.497"/>
<text text-anchor="middle" x="99.5" y="-135" font-family="FreeSans" font-size="10.00" fill="#000000"> elements</text>
</g>
<!-- Node4 -->
<g id="node4" class="node">
<title>Node4</title>
<polygon fill="none" stroke="#bfbfbf" points="149,-81.5 149,-113.5 289,-113.5 289,-81.5 149,-81.5"/>
<text text-anchor="start" x="157" y="-100.5" font-family="FreeSans" font-size="10.00" fill="#000000">std::vector&lt; std::vector</text>
<text text-anchor="middle" x="219" y="-88.5" font-family="FreeSans" font-size="10.00" fill="#000000">&lt; std::vector&lt; int &gt; &gt; &gt;</text>
</g>
<!-- Node4&#45;&gt;Node1 -->
<g id="edge3" class="edge">
<title>Node4&#45;&gt;Node1</title>
<path fill="none" stroke="#9a32cd" stroke-dasharray="5,2" d="M206.8278,-72.2194C200.6246,-59.3357 193.2635,-44.0474 187.8226,-32.747"/>
<polygon fill="#9a32cd" stroke="#9a32cd" points="203.8031,-74.0054 211.2949,-81.497 210.1102,-70.9686 203.8031,-74.0054"/>
<text text-anchor="middle" x="221.5" y="-54" font-family="FreeSans" font-size="10.00" fill="#000000"> m_data</text>
</g>
</g>
</svg>
