<?xml version="1.0" encoding="UTF-8" standalone="no"?>
<!DOCTYPE svg PUBLIC "-//W3C//DTD SVG 1.1//EN"
 "http://www.w3.org/Graphics/SVG/1.1/DTD/svg11.dtd">
<!-- Generated by graphviz version 2.40.1 (20161225.0304)
 -->
<!-- Title: macros/blob/master/macros/g4simulations/G4_FGEM_fsPHENIX.C Pages: 1 -->
<svg width="147pt" height="215pt"
 viewBox="0.00 0.00 147.00 215.00" xmlns="http://www.w3.org/2000/svg" xmlns:xlink="http://www.w3.org/1999/xlink">
<g id="graph0" class="graph" transform="scale(1 1) rotate(0) translate(4 211)">
<title>macros/blob/master/macros/g4simulations/G4_FGEM_fsPHENIX.C</title>
<!-- Node1 -->
<g id="node1" class="node">
<title>Node1</title>
<polygon fill="#bfbfbf" stroke="#000000" points="3.5,-162.5 3.5,-206.5 135.5,-206.5 135.5,-162.5 3.5,-162.5"/>
<text text-anchor="start" x="11.5" y="-193.5" font-family="FreeSans" font-size="10.00" fill="#000000">macros/blob/master</text>
<text text-anchor="start" x="11.5" y="-181.5" font-family="FreeSans" font-size="10.00" fill="#000000">/macros/g4simulations</text>
<text text-anchor="middle" x="69.5" y="-169.5" font-family="FreeSans" font-size="10.00" fill="#000000">/G4_FGEM_fsPHENIX.C</text>
</g>
<!-- Node2 -->
<g id="node2" class="node">
<title>Node2</title>
<g id="a_node2"><a xlink:href="../../da/d21/macros_2blob_2master_2macros_2g4simulations_2G4Setup__fsPHENIX_8C.html" target="_top" xlink:title="macros/blob/master\l/macros/g4simulations\l/G4Setup_fsPHENIX.C">
<polygon fill="none" stroke="#000000" points="3.5,-81.5 3.5,-125.5 135.5,-125.5 135.5,-81.5 3.5,-81.5"/>
<text text-anchor="start" x="11.5" y="-112.5" font-family="FreeSans" font-size="10.00" fill="#000000">macros/blob/master</text>
<text text-anchor="start" x="11.5" y="-100.5" font-family="FreeSans" font-size="10.00" fill="#000000">/macros/g4simulations</text>
<text text-anchor="middle" x="69.5" y="-88.5" font-family="FreeSans" font-size="10.00" fill="#000000">/G4Setup_fsPHENIX.C</text>
</a>
</g>
</g>
<!-- Node1&#45;&gt;Node2 -->
<g id="edge1" class="edge">
<title>Node1&#45;&gt;Node2</title>
<path fill="none" stroke="#191970" d="M69.5,-152.2457C69.5,-143.3118 69.5,-133.8188 69.5,-125.6068"/>
<polygon fill="#191970" stroke="#191970" points="66.0001,-152.3664 69.5,-162.3664 73.0001,-152.3664 66.0001,-152.3664"/>
</g>
<!-- Node3 -->
<g id="node3" class="node">
<title>Node3</title>
<g id="a_node3"><a xlink:href="../../d7/d9e/Fun4All__G4__fsPHENIX_8C.html" target="_top" xlink:title="macros/blob/master\l/macros/g4simulations\l/Fun4All_G4_fsPHENIX.C">
<polygon fill="none" stroke="#000000" points="0,-.5 0,-44.5 139,-44.5 139,-.5 0,-.5"/>
<text text-anchor="start" x="8" y="-31.5" font-family="FreeSans" font-size="10.00" fill="#000000">macros/blob/master</text>
<text text-anchor="start" x="8" y="-19.5" font-family="FreeSans" font-size="10.00" fill="#000000">/macros/g4simulations</text>
<text text-anchor="middle" x="69.5" y="-7.5" font-family="FreeSans" font-size="10.00" fill="#000000">/Fun4All_G4_fsPHENIX.C</text>
</a>
</g>
</g>
<!-- Node2&#45;&gt;Node3 -->
<g id="edge2" class="edge">
<title>Node2&#45;&gt;Node3</title>
<path fill="none" stroke="#191970" d="M69.5,-71.2457C69.5,-62.3118 69.5,-52.8188 69.5,-44.6068"/>
<polygon fill="#191970" stroke="#191970" points="66.0001,-71.3664 69.5,-81.3664 73.0001,-71.3664 66.0001,-71.3664"/>
</g>
</g>
</svg>
