<?xml version="1.0" encoding="UTF-8" standalone="no"?>
<!DOCTYPE svg PUBLIC "-//W3C//DTD SVG 1.1//EN"
 "http://www.w3.org/Graphics/SVG/1.1/DTD/svg11.dtd">
<!-- Generated by graphviz version 2.40.1 (20161225.0304)
 -->
<!-- Title: PhDi Pages: 1 -->
<svg width="260pt" height="271pt"
 viewBox="0.00 0.00 260.00 271.00" xmlns="http://www.w3.org/2000/svg" xmlns:xlink="http://www.w3.org/1999/xlink">
<g id="graph0" class="graph" transform="scale(1 1) rotate(0) translate(4 267)">
<title>PhDi</title>
<!-- Node1 -->
<g id="node1" class="node">
<title>Node1</title>
<polygon fill="#bfbfbf" stroke="#000000" points="213,-166.5 213,-186.5 252,-186.5 252,-166.5 213,-166.5"/>
<text text-anchor="middle" x="232.5" y="-173.5" font-family="FreeSans" font-size="10.00" fill="#000000">PhDi</text>
</g>
<!-- Node2 -->
<g id="node2" class="node">
<title>Node2</title>
<polygon fill="none" stroke="#bfbfbf" points="9.5,-242.5 9.5,-262.5 128.5,-262.5 128.5,-242.5 9.5,-242.5"/>
<text text-anchor="middle" x="69" y="-249.5" font-family="FreeSans" font-size="10.00" fill="#000000">std::vector&lt; TF1 * &gt;</text>
</g>
<!-- Node2&#45;&gt;Node1 -->
<g id="edge1" class="edge">
<title>Node2&#45;&gt;Node1</title>
<path fill="none" stroke="#9a32cd" stroke-dasharray="5,2" d="M136.5166,-239.8559C156.3058,-234.2963 177.3513,-226.4531 195,-215.5 207.2907,-207.8722 218.3646,-195.3084 225.2379,-186.5075"/>
<polygon fill="#9a32cd" stroke="#9a32cd" points="135.3847,-236.535 126.6165,-242.4822 137.1797,-243.301 135.3847,-236.535"/>
<text text-anchor="middle" x="175.5" y="-248.5" font-family="FreeSans" font-size="10.00" fill="#000000"> fitS</text>
<text text-anchor="middle" x="175.5" y="-236.5" font-family="FreeSans" font-size="10.00" fill="#000000">fitB</text>
</g>
<!-- Node3 -->
<g id="node3" class="node">
<title>Node3</title>
<polygon fill="none" stroke="#bfbfbf" points="0,-203.5 0,-223.5 138,-223.5 138,-203.5 0,-203.5"/>
<text text-anchor="middle" x="69" y="-210.5" font-family="FreeSans" font-size="10.00" fill="#000000">std::vector&lt; TGraph * &gt;</text>
</g>
<!-- Node3&#45;&gt;Node1 -->
<g id="edge2" class="edge">
<title>Node3&#45;&gt;Node1</title>
<path fill="none" stroke="#9a32cd" stroke-dasharray="5,2" d="M148.3923,-202.2251C163.9772,-199.2872 180.1054,-195.7296 195,-191.5 200.9358,-189.8144 207.2219,-187.5152 212.9161,-185.2234"/>
<polygon fill="#9a32cd" stroke="#9a32cd" points="147.4615,-198.8368 138.2477,-204.0671 148.7121,-205.7242 147.4615,-198.8368"/>
<text text-anchor="middle" x="175.5" y="-202.5" font-family="FreeSans" font-size="10.00" fill="#000000"> PDplot</text>
</g>
<!-- Node4 -->
<g id="node4" class="node">
<title>Node4</title>
<polygon fill="none" stroke="#bfbfbf" points="16,-164.5 16,-184.5 122,-184.5 122,-164.5 16,-164.5"/>
<text text-anchor="middle" x="69" y="-171.5" font-family="FreeSans" font-size="10.00" fill="#000000">std::vector&lt; int &gt;</text>
</g>
<!-- Node4&#45;&gt;Node1 -->
<g id="edge3" class="edge">
<title>Node4&#45;&gt;Node1</title>
<path fill="none" stroke="#9a32cd" stroke-dasharray="5,2" d="M132.4392,-175.276C161.0082,-175.6255 192.7224,-176.0134 212.633,-176.257"/>
<polygon fill="#9a32cd" stroke="#9a32cd" points="132.1259,-171.772 122.0838,-175.1493 132.0402,-178.7715 132.1259,-171.772"/>
<text text-anchor="middle" x="175.5" y="-178.5" font-family="FreeSans" font-size="10.00" fill="#000000"> PDstat</text>
</g>
<!-- Node5 -->
<g id="node5" class="node">
<title>Node5</title>
<polygon fill="none" stroke="#bfbfbf" points="5,-47.5 5,-67.5 133,-67.5 133,-47.5 5,-47.5"/>
<text text-anchor="middle" x="69" y="-54.5" font-family="FreeSans" font-size="10.00" fill="#000000">std::vector&lt; double &gt;</text>
</g>
<!-- Node5&#45;&gt;Node1 -->
<g id="edge4" class="edge">
<title>Node5&#45;&gt;Node1</title>
<path fill="none" stroke="#9a32cd" stroke-dasharray="5,2" d="M143.1343,-55.1057C161.6795,-57.7981 180.4189,-63.7428 195,-75.5 223.5387,-98.5117 230.3593,-145.4911 231.9888,-166.2486"/>
<polygon fill="#9a32cd" stroke="#9a32cd" points="143.5152,-51.6265 133.1793,-53.9544 142.7109,-58.5802 143.5152,-51.6265"/>
<text text-anchor="middle" x="175.5" y="-162.5" font-family="FreeSans" font-size="10.00" fill="#000000"> SiI</text>
<text text-anchor="middle" x="175.5" y="-150.5" font-family="FreeSans" font-size="10.00" fill="#000000">SiL</text>
<text text-anchor="middle" x="175.5" y="-138.5" font-family="FreeSans" font-size="10.00" fill="#000000">PDbase</text>
<text text-anchor="middle" x="175.5" y="-126.5" font-family="FreeSans" font-size="10.00" fill="#000000">PDbw</text>
<text text-anchor="middle" x="175.5" y="-114.5" font-family="FreeSans" font-size="10.00" fill="#000000">SiE</text>
<text text-anchor="middle" x="175.5" y="-102.5" font-family="FreeSans" font-size="10.00" fill="#000000">SinT</text>
<text text-anchor="middle" x="175.5" y="-90.5" font-family="FreeSans" font-size="10.00" fill="#000000">FileNb</text>
<text text-anchor="middle" x="175.5" y="-78.5" font-family="FreeSans" font-size="10.00" fill="#000000">WaveL</text>
</g>
<!-- Node6 -->
<g id="node6" class="node">
<title>Node6</title>
<polygon fill="none" stroke="#bfbfbf" points="4.5,-.5 4.5,-20.5 133.5,-20.5 133.5,-.5 4.5,-.5"/>
<text text-anchor="middle" x="69" y="-7.5" font-family="FreeSans" font-size="10.00" fill="#000000">std::vector&lt; TH1D * &gt;</text>
</g>
<!-- Node6&#45;&gt;Node1 -->
<g id="edge5" class="edge">
<title>Node6&#45;&gt;Node1</title>
<path fill="none" stroke="#9a32cd" stroke-dasharray="5,2" d="M143.7615,-7.7031C162.3967,-10.525 181.0239,-16.8574 195,-29.5 205.401,-38.9086 224.4544,-134.4253 230.5618,-166.2475"/>
<polygon fill="#9a32cd" stroke="#9a32cd" points="144.0848,-4.2169 133.7401,-6.5055 143.2541,-11.1674 144.0848,-4.2169"/>
<text text-anchor="middle" x="175.5" y="-44.5" font-family="FreeSans" font-size="10.00" fill="#000000"> PDhisS</text>
<text text-anchor="middle" x="175.5" y="-32.5" font-family="FreeSans" font-size="10.00" fill="#000000">PDhisB</text>
</g>
</g>
</svg>
