<?xml version="1.0" encoding="UTF-8" standalone="no"?>
<!DOCTYPE svg PUBLIC "-//W3C//DTD SVG 1.1//EN"
 "http://www.w3.org/Graphics/SVG/1.1/DTD/svg11.dtd">
<!-- Generated by graphviz version 2.40.1 (20161225.0304)
 -->
<!-- Title: TowerBackground::set_v2 Pages: 1 -->
<svg width="544pt" height="41pt"
 viewBox="0.00 0.00 544.00 41.00" xmlns="http://www.w3.org/2000/svg" xmlns:xlink="http://www.w3.org/1999/xlink">
<g id="graph0" class="graph" transform="scale(1 1) rotate(0) translate(4 37)">
<title>TowerBackground::set_v2</title>
<!-- Node1 -->
<g id="node1" class="node">
<title>Node1</title>
<polygon fill="#bfbfbf" stroke="#000000" points="0,-6.5 0,-26.5 146,-26.5 146,-6.5 0,-6.5"/>
<text text-anchor="middle" x="73" y="-13.5" font-family="FreeSans" font-size="10.00" fill="#000000">TowerBackground::set_v2</text>
</g>
<!-- Node2 -->
<g id="node2" class="node">
<title>Node2</title>
<g id="a_node2"><a xlink:href="../../d6/d02/classDetermineTowerBackground.html#a19272b700ce5b97fed9c7e0b33e3f3c2" target="_top" xlink:title="DetermineTowerBackground\l::FillNode">
<polygon fill="none" stroke="#000000" points="182,-.5 182,-32.5 341,-32.5 341,-.5 182,-.5"/>
<text text-anchor="start" x="190" y="-19.5" font-family="FreeSans" font-size="10.00" fill="#000000">DetermineTowerBackground</text>
<text text-anchor="middle" x="261.5" y="-7.5" font-family="FreeSans" font-size="10.00" fill="#000000">::FillNode</text>
</a>
</g>
</g>
<!-- Node1&#45;&gt;Node2 -->
<g id="edge1" class="edge">
<title>Node1&#45;&gt;Node2</title>
<path fill="none" stroke="#191970" d="M156.3858,-16.5C164.8415,-16.5 173.4156,-16.5 181.8306,-16.5"/>
<polygon fill="#191970" stroke="#191970" points="156.1489,-13.0001 146.1488,-16.5 156.1488,-20.0001 156.1489,-13.0001"/>
</g>
<!-- Node3 -->
<g id="node3" class="node">
<title>Node3</title>
<g id="a_node3"><a xlink:href="../../d6/d02/classDetermineTowerBackground.html#a1e2d3c456b619165aec9114ae37ee6bf" target="_top" xlink:title="DetermineTowerBackground\l::process_event">
<polygon fill="none" stroke="#000000" points="377,-.5 377,-32.5 536,-32.5 536,-.5 377,-.5"/>
<text text-anchor="start" x="385" y="-19.5" font-family="FreeSans" font-size="10.00" fill="#000000">DetermineTowerBackground</text>
<text text-anchor="middle" x="456.5" y="-7.5" font-family="FreeSans" font-size="10.00" fill="#000000">::process_event</text>
</a>
</g>
</g>
<!-- Node2&#45;&gt;Node3 -->
<g id="edge2" class="edge">
<title>Node2&#45;&gt;Node3</title>
<path fill="none" stroke="#191970" d="M351.117,-16.5C359.6999,-16.5 368.3647,-16.5 376.8432,-16.5"/>
<polygon fill="#191970" stroke="#191970" points="351.0953,-13.0001 341.0952,-16.5 351.0952,-20.0001 351.0953,-13.0001"/>
</g>
</g>
</svg>
