<?xml version="1.0" encoding="UTF-8" standalone="no"?>
<!DOCTYPE svg PUBLIC "-//W3C//DTD SVG 1.1//EN"
 "http://www.w3.org/Graphics/SVG/1.1/DTD/svg11.dtd">
<!-- Generated by graphviz version 2.40.1 (20161225.0304)
 -->
<!-- Title: PHG4EnvelopeSubsystem::process_event Pages: 1 -->
<svg width="537pt" height="80pt"
 viewBox="0.00 0.00 537.00 80.00" xmlns="http://www.w3.org/2000/svg" xmlns:xlink="http://www.w3.org/1999/xlink">
<g id="graph0" class="graph" transform="scale(1 1) rotate(0) translate(4 76)">
<title>PHG4EnvelopeSubsystem::process_event</title>
<!-- Node1 -->
<g id="node1" class="node">
<title>Node1</title>
<polygon fill="#bfbfbf" stroke="#000000" points="0,-22.5 0,-54.5 147,-54.5 147,-22.5 0,-22.5"/>
<text text-anchor="start" x="8" y="-41.5" font-family="FreeSans" font-size="10.00" fill="#000000">PHG4EnvelopeSubsystem</text>
<text text-anchor="middle" x="73.5" y="-29.5" font-family="FreeSans" font-size="10.00" fill="#000000">::process_event</text>
</g>
<!-- Node2 -->
<g id="node2" class="node">
<title>Node2</title>
<g id="a_node2"><a xlink:href="../../da/deb/classPHG4EnvelopeSteppingAction.html#a2f720e0f1e494f6c202e17b6b9d37133" target="_top" xlink:title="PHG4EnvelopeSteppingAction\l::SetInterfacePointers">
<polygon fill="none" stroke="#000000" points="183,-22.5 183,-54.5 351,-54.5 351,-22.5 183,-22.5"/>
<text text-anchor="start" x="191" y="-41.5" font-family="FreeSans" font-size="10.00" fill="#000000">PHG4EnvelopeSteppingAction</text>
<text text-anchor="middle" x="267" y="-29.5" font-family="FreeSans" font-size="10.00" fill="#000000">::SetInterfacePointers</text>
</a>
</g>
</g>
<!-- Node1&#45;&gt;Node2 -->
<g id="edge1" class="edge">
<title>Node1&#45;&gt;Node2</title>
<path fill="none" stroke="#191970" d="M147.206,-38.5C155.5734,-38.5 164.1849,-38.5 172.7699,-38.5"/>
<polygon fill="#191970" stroke="#191970" points="172.8196,-42.0001 182.8196,-38.5 172.8195,-35.0001 172.8196,-42.0001"/>
</g>
<!-- Node3 -->
<g id="node3" class="node">
<title>Node3</title>
<g id="a_node3"><a xlink:href="../../d3/de7/classPHG4Detector.html#a2d071f49fa045db5ade51bb99f88218f" target="_top" xlink:title="PHG4Detector::GetName">
<polygon fill="none" stroke="#000000" points="387,-51.5 387,-71.5 529,-71.5 529,-51.5 387,-51.5"/>
<text text-anchor="middle" x="458" y="-58.5" font-family="FreeSans" font-size="10.00" fill="#000000">PHG4Detector::GetName</text>
</a>
</g>
</g>
<!-- Node2&#45;&gt;Node3 -->
<g id="edge2" class="edge">
<title>Node2&#45;&gt;Node3</title>
<path fill="none" stroke="#191970" d="M351.0533,-48.6216C359.5206,-49.6412 368.1096,-50.6755 376.5491,-51.6918"/>
<polygon fill="#191970" stroke="#191970" points="376.4041,-55.1995 386.7508,-52.9203 377.241,-48.2497 376.4041,-55.1995"/>
</g>
<!-- Node4 -->
<g id="node4" class="node">
<title>Node4</title>
<g id="a_node4"><a xlink:href="../../d6/df3/classPHG4EnvelopeDetector.html#afa30ce5293cbfd131cd4df8b5549e67d" target="_top" xlink:title="PHG4EnvelopeDetector\l::SuperDetector">
<polygon fill="none" stroke="#000000" points="390.5,-.5 390.5,-32.5 525.5,-32.5 525.5,-.5 390.5,-.5"/>
<text text-anchor="start" x="398.5" y="-19.5" font-family="FreeSans" font-size="10.00" fill="#000000">PHG4EnvelopeDetector</text>
<text text-anchor="middle" x="458" y="-7.5" font-family="FreeSans" font-size="10.00" fill="#000000">::SuperDetector</text>
</a>
</g>
</g>
<!-- Node2&#45;&gt;Node4 -->
<g id="edge3" class="edge">
<title>Node2&#45;&gt;Node4</title>
<path fill="none" stroke="#191970" d="M351.0533,-28.8185C360.7842,-27.6976 370.6758,-26.5583 380.3164,-25.4479"/>
<polygon fill="#191970" stroke="#191970" points="380.7209,-28.9245 390.2547,-24.3031 379.9198,-21.9705 380.7209,-28.9245"/>
</g>
</g>
</svg>
