<?xml version="1.0" encoding="UTF-8" standalone="no"?>
<!DOCTYPE svg PUBLIC "-//W3C//DTD SVG 1.1//EN"
 "http://www.w3.org/Graphics/SVG/1.1/DTD/svg11.dtd">
<!-- Generated by graphviz version 2.40.1 (20161225.0304)
 -->
<!-- Title: findLastFramePacket Pages: 1 -->
<svg width="1648pt" height="354pt"
 viewBox="0.00 0.00 1648.00 354.00" xmlns="http://www.w3.org/2000/svg" xmlns:xlink="http://www.w3.org/1999/xlink">
<g id="graph0" class="graph" transform="scale(1 1) rotate(0) translate(4 350)">
<title>findLastFramePacket</title>
<!-- Node1 -->
<g id="node1" class="node">
<title>Node1</title>
<polygon fill="#bfbfbf" stroke="#000000" points="0,-165.5 0,-185.5 121,-185.5 121,-165.5 0,-165.5"/>
<text text-anchor="middle" x="60.5" y="-172.5" font-family="FreeSans" font-size="10.00" fill="#000000">findLastFramePacket</text>
</g>
<!-- Node2 -->
<g id="node2" class="node">
<title>Node2</title>
<g id="a_node2"><a xlink:href="../../d3/db9/framePackets_8C.html#aa65c3dd1997640d522a523e9408b989c" target="_top" xlink:title="findFirstFramePacket">
<polygon fill="none" stroke="#000000" points="157,-185.5 157,-205.5 279,-205.5 279,-185.5 157,-185.5"/>
<text text-anchor="middle" x="218" y="-192.5" font-family="FreeSans" font-size="10.00" fill="#000000">findFirstFramePacket</text>
</a>
</g>
</g>
<!-- Node1&#45;&gt;Node2 -->
<g id="edge1" class="edge">
<title>Node1&#45;&gt;Node2</title>
<path fill="none" stroke="#191970" d="M121.3936,-183.2325C129.6401,-184.2797 138.1624,-185.3619 146.5724,-186.4298"/>
<polygon fill="#191970" stroke="#191970" points="146.3875,-189.9344 156.7488,-187.7221 147.2694,-182.9901 146.3875,-189.9344"/>
</g>
<!-- Node13 -->
<g id="node13" class="node">
<title>Node13</title>
<g id="a_node13"><a xlink:href="../../d3/db9/framePackets_8C.html#afbcb5409daff40b4fd614d3eb6d34a7a" target="_top" xlink:title="findNextFramePacket">
<polygon fill="none" stroke="#000000" points="479,-146.5 479,-166.5 603,-166.5 603,-146.5 479,-146.5"/>
<text text-anchor="middle" x="541" y="-153.5" font-family="FreeSans" font-size="10.00" fill="#000000">findNextFramePacket</text>
</a>
</g>
</g>
<!-- Node1&#45;&gt;Node13 -->
<g id="edge31" class="edge">
<title>Node1&#45;&gt;Node13</title>
<path fill="none" stroke="#191970" d="M121.3557,-173.0936C209.9235,-169.5915 374.0615,-163.1011 468.68,-159.3597"/>
<polygon fill="#191970" stroke="#191970" points="468.8851,-162.8544 478.739,-158.9619 468.6085,-155.8599 468.8851,-162.8544"/>
</g>
<!-- Node3 -->
<g id="node3" class="node">
<title>Node3</title>
<g id="a_node3"><a xlink:href="../../d3/db9/framePackets_8C.html#a50570e1675a0283358f20f4274ee03c4" target="_top" xlink:title="findFramePacketIndex">
<polygon fill="none" stroke="#000000" points="315,-185.5 315,-205.5 443,-205.5 443,-185.5 315,-185.5"/>
<text text-anchor="middle" x="379" y="-192.5" font-family="FreeSans" font-size="10.00" fill="#000000">findFramePacketIndex</text>
</a>
</g>
</g>
<!-- Node2&#45;&gt;Node3 -->
<g id="edge2" class="edge">
<title>Node2&#45;&gt;Node3</title>
<path fill="none" stroke="#191970" d="M279.3265,-195.5C287.6027,-195.5 296.1659,-195.5 304.638,-195.5"/>
<polygon fill="#191970" stroke="#191970" points="304.9014,-199.0001 314.9014,-195.5 304.9014,-192.0001 304.9014,-199.0001"/>
</g>
<!-- Node4 -->
<g id="node4" class="node">
<title>Node4</title>
<g id="a_node4"><a xlink:href="../../d1/dce/Cframe_8C.html#a23be3f1e2beac571b2fe18fa112d4055" target="_top" xlink:title="findFrameDataStart">
<polygon fill="none" stroke="#000000" points="785,-243.5 785,-263.5 901,-263.5 901,-243.5 785,-243.5"/>
<text text-anchor="middle" x="843" y="-250.5" font-family="FreeSans" font-size="10.00" fill="#000000">findFrameDataStart</text>
</a>
</g>
</g>
<!-- Node3&#45;&gt;Node4 -->
<g id="edge3" class="edge">
<title>Node3&#45;&gt;Node4</title>
<path fill="none" stroke="#191970" d="M403.606,-205.5402C423.5697,-213.2147 452.6278,-223.3279 479,-228.5 580.6658,-248.4385 701.0041,-253.1045 774.6567,-253.8744"/>
<polygon fill="#191970" stroke="#191970" points="774.7039,-257.3748 784.7327,-253.9583 774.7623,-250.375 774.7039,-257.3748"/>
</g>
<!-- Node8 -->
<g id="node8" class="node">
<title>Node8</title>
<g id="a_node8"><a xlink:href="../../dd/d35/Cframe_8h.html#a563b7c61e789fd769c498a3d5f52757d" target="_top" xlink:title="validFrameHdr">
<polygon fill="none" stroke="#000000" points="952.5,-209.5 952.5,-229.5 1043.5,-229.5 1043.5,-209.5 952.5,-209.5"/>
<text text-anchor="middle" x="998" y="-216.5" font-family="FreeSans" font-size="10.00" fill="#000000">validFrameHdr</text>
</a>
</g>
</g>
<!-- Node3&#45;&gt;Node8 -->
<g id="edge29" class="edge">
<title>Node3&#45;&gt;Node8</title>
<path fill="none" stroke="#191970" d="M443.202,-197.9893C564.8156,-202.7045 826.8736,-212.865 941.9153,-217.3255"/>
<polygon fill="#191970" stroke="#191970" points="942.1229,-220.8361 952.251,-217.7262 942.3941,-213.8413 942.1229,-220.8361"/>
</g>
<!-- Node3&#45;&gt;Node13 -->
<g id="edge16" class="edge">
<title>Node3&#45;&gt;Node13</title>
<path fill="none" stroke="#191970" d="M420.719,-185.4565C441.6939,-180.407 467.3055,-174.2413 489.4962,-168.8991"/>
<polygon fill="#191970" stroke="#191970" points="490.5193,-172.2528 499.4223,-166.5094 488.8809,-165.4473 490.5193,-172.2528"/>
</g>
<!-- Node20 -->
<g id="node20" class="node">
<title>Node20</title>
<g id="a_node20"><a xlink:href="../../dc/d93/Cpacket_8C.html#af873472780d17d2304cb7d9ea6cb5cbb" target="_top" xlink:title="validPacketHdr">
<polygon fill="none" stroke="#000000" points="797,-.5 797,-20.5 889,-20.5 889,-.5 797,-.5"/>
<text text-anchor="middle" x="843" y="-7.5" font-family="FreeSans" font-size="10.00" fill="#000000">validPacketHdr</text>
</a>
</g>
</g>
<!-- Node3&#45;&gt;Node20 -->
<g id="edge30" class="edge">
<title>Node3&#45;&gt;Node20</title>
<path fill="none" stroke="#191970" d="M394.5753,-185.4431C413.9475,-173.1392 448.2284,-152.0324 479,-136.5 547.9776,-101.6825 566.1418,-94.2265 639,-68.5 690.3196,-50.3788 750.3861,-33.8476 791.9896,-23.1115"/>
<polygon fill="#191970" stroke="#191970" points="793.0697,-26.4479 801.8887,-20.5764 791.333,-19.6667 793.0697,-26.4479"/>
</g>
<!-- Node5 -->
<g id="node5" class="node">
<title>Node5</title>
<g id="a_node5"><a xlink:href="../../dd/d35/Cframe_8h.html#a6b9f65e37b5a69d47bfada6e5a823821" target="_top" xlink:title="getFrameHdrLength">
<polygon fill="none" stroke="#000000" points="1264,-287.5 1264,-307.5 1381,-307.5 1381,-287.5 1264,-287.5"/>
<text text-anchor="middle" x="1322.5" y="-294.5" font-family="FreeSans" font-size="10.00" fill="#000000">getFrameHdrLength</text>
</a>
</g>
</g>
<!-- Node4&#45;&gt;Node5 -->
<g id="edge4" class="edge">
<title>Node4&#45;&gt;Node5</title>
<path fill="none" stroke="#191970" d="M901.3167,-258.8513C990.1759,-267.0052 1159.1121,-282.5072 1253.7933,-291.1953"/>
<polygon fill="#191970" stroke="#191970" points="1253.5618,-294.6887 1263.8398,-292.1172 1254.2015,-287.718 1253.5618,-294.6887"/>
</g>
<!-- Node4&#45;&gt;Node8 -->
<g id="edge8" class="edge">
<title>Node4&#45;&gt;Node8</title>
<path fill="none" stroke="#191970" d="M888.6668,-243.4828C905.4627,-239.7985 924.673,-235.5846 942.2572,-231.7275"/>
<polygon fill="#191970" stroke="#191970" points="943.3742,-235.0657 952.392,-229.5043 941.8743,-228.2283 943.3742,-235.0657"/>
</g>
<!-- Node6 -->
<g id="node6" class="node">
<title>Node6</title>
<g id="a_node6"><a xlink:href="../../dd/d35/Cframe_8h.html#a33030fea4beb4b49416b60d68f9d32db" target="_top" xlink:title="getFrameLength">
<polygon fill="none" stroke="#000000" points="1418,-325.5 1418,-345.5 1516,-345.5 1516,-325.5 1418,-325.5"/>
<text text-anchor="middle" x="1467" y="-332.5" font-family="FreeSans" font-size="10.00" fill="#000000">getFrameLength</text>
</a>
</g>
</g>
<!-- Node5&#45;&gt;Node6 -->
<g id="edge5" class="edge">
<title>Node5&#45;&gt;Node6</title>
<path fill="none" stroke="#191970" d="M1360.844,-307.5835C1378.6332,-312.2617 1399.969,-317.8725 1418.832,-322.833"/>
<polygon fill="#191970" stroke="#191970" points="1418.1664,-326.2769 1428.7278,-325.4353 1419.9468,-319.5071 1418.1664,-326.2769"/>
</g>
<!-- Node7 -->
<g id="node7" class="node">
<title>Node7</title>
<g id="a_node7"><a xlink:href="../../d0/db6/formatError_8C.html#a5e3e311e06d8c0240b4e42af658900fb" target="_top" xlink:title="setFrameError">
<polygon fill="none" stroke="#000000" points="1552,-267.5 1552,-287.5 1640,-287.5 1640,-267.5 1552,-267.5"/>
<text text-anchor="middle" x="1596" y="-274.5" font-family="FreeSans" font-size="10.00" fill="#000000">setFrameError</text>
</a>
</g>
</g>
<!-- Node5&#45;&gt;Node7 -->
<g id="edge7" class="edge">
<title>Node5&#45;&gt;Node7</title>
<path fill="none" stroke="#191970" d="M1381.1726,-293.2095C1428.7436,-289.7308 1495.2718,-284.8659 1541.6447,-281.4748"/>
<polygon fill="#191970" stroke="#191970" points="1542.0854,-284.952 1551.8034,-280.7319 1541.5748,-277.9706 1542.0854,-284.952"/>
</g>
<!-- Node6&#45;&gt;Node7 -->
<g id="edge6" class="edge">
<title>Node6&#45;&gt;Node7</title>
<path fill="none" stroke="#191970" d="M1489.4701,-325.3972C1510.0612,-316.1391 1540.7746,-302.33 1563.9401,-291.9145"/>
<polygon fill="#191970" stroke="#191970" points="1565.6693,-294.9746 1573.3546,-287.6817 1562.7988,-288.5902 1565.6693,-294.9746"/>
</g>
<!-- Node9 -->
<g id="node9" class="node">
<title>Node9</title>
<g id="a_node9"><a xlink:href="../../d1/dce/Cframe_8C.html#a1c1b3a07f01fccf4c883561e05b3fc21" target="_top" xlink:title="checkFrameHdrVersion">
<polygon fill="none" stroke="#000000" points="1095,-209.5 1095,-229.5 1227,-229.5 1227,-209.5 1095,-209.5"/>
<text text-anchor="middle" x="1161" y="-216.5" font-family="FreeSans" font-size="10.00" fill="#000000">checkFrameHdrVersion</text>
</a>
</g>
</g>
<!-- Node8&#45;&gt;Node9 -->
<g id="edge9" class="edge">
<title>Node8&#45;&gt;Node9</title>
<path fill="none" stroke="#191970" d="M1043.8384,-219.5C1056.568,-219.5 1070.7435,-219.5 1084.7138,-219.5"/>
<polygon fill="#191970" stroke="#191970" points="1084.8265,-223.0001 1094.8265,-219.5 1084.8265,-216.0001 1084.8265,-223.0001"/>
</g>
<!-- Node9&#45;&gt;Node5 -->
<g id="edge10" class="edge">
<title>Node9&#45;&gt;Node5</title>
<path fill="none" stroke="#191970" d="M1179.2014,-229.5302C1199.4322,-240.5436 1233.1874,-258.5197 1263,-272.5 1271.0206,-276.2612 1279.7622,-280.0837 1288.0145,-283.5709"/>
<polygon fill="#191970" stroke="#191970" points="1286.8279,-286.8681 1297.4047,-287.4868 1289.5222,-280.4074 1286.8279,-286.8681"/>
</g>
<!-- Node9&#45;&gt;Node7 -->
<g id="edge14" class="edge">
<title>Node9&#45;&gt;Node7</title>
<path fill="none" stroke="#191970" d="M1210.9501,-229.5015C1227.4786,-232.6245 1245.9918,-235.9229 1263,-238.5 1360.9212,-253.3369 1475.7788,-265.6795 1541.8036,-272.2893"/>
<polygon fill="#191970" stroke="#191970" points="1541.6735,-275.7935 1551.9708,-273.3004 1542.3663,-268.8279 1541.6735,-275.7935"/>
</g>
<!-- Node10 -->
<g id="node10" class="node">
<title>Node10</title>
<g id="a_node10"><a xlink:href="../../dd/d35/Cframe_8h.html#a9865ee8e25f33106f015f2167da9571b" target="_top" xlink:title="getFrameHdrVersion">
<polygon fill="none" stroke="#000000" points="1263,-131.5 1263,-151.5 1382,-151.5 1382,-131.5 1263,-131.5"/>
<text text-anchor="middle" x="1322.5" y="-138.5" font-family="FreeSans" font-size="10.00" fill="#000000">getFrameHdrVersion</text>
</a>
</g>
</g>
<!-- Node9&#45;&gt;Node10 -->
<g id="edge11" class="edge">
<title>Node9&#45;&gt;Node10</title>
<path fill="none" stroke="#191970" d="M1176.008,-209.4335C1195.4338,-196.7337 1230.6379,-174.8261 1263,-160.5 1267.4744,-158.5193 1272.2202,-156.6465 1277.0025,-154.9051"/>
<polygon fill="#191970" stroke="#191970" points="1278.4858,-158.0957 1286.7953,-151.5228 1276.2005,-151.4793 1278.4858,-158.0957"/>
</g>
<!-- Node11 -->
<g id="node11" class="node">
<title>Node11</title>
<g id="a_node11"><a xlink:href="../../dd/d35/Cframe_8h.html#a1c0b2e89f8aaecd1ca8494927ef9e8b9" target="_top" xlink:title="getFrameMark">
<polygon fill="none" stroke="#000000" points="1278,-209.5 1278,-229.5 1367,-229.5 1367,-209.5 1278,-209.5"/>
<text text-anchor="middle" x="1322.5" y="-216.5" font-family="FreeSans" font-size="10.00" fill="#000000">getFrameMark</text>
</a>
</g>
</g>
<!-- Node9&#45;&gt;Node11 -->
<g id="edge13" class="edge">
<title>Node9&#45;&gt;Node11</title>
<path fill="none" stroke="#191970" d="M1227.1542,-219.5C1240.6263,-219.5 1254.6592,-219.5 1267.6847,-219.5"/>
<polygon fill="#191970" stroke="#191970" points="1267.8851,-223.0001 1277.885,-219.5 1267.885,-216.0001 1267.8851,-223.0001"/>
</g>
<!-- Node12 -->
<g id="node12" class="node">
<title>Node12</title>
<g id="a_node12"><a xlink:href="../../d0/db6/formatError_8C.html#a461b2f4d45c4fce9ee37b80046895d8a" target="_top" xlink:title="setFrameSuccess">
<polygon fill="none" stroke="#000000" points="1270.5,-170.5 1270.5,-190.5 1374.5,-190.5 1374.5,-170.5 1270.5,-170.5"/>
<text text-anchor="middle" x="1322.5" y="-177.5" font-family="FreeSans" font-size="10.00" fill="#000000">setFrameSuccess</text>
</a>
</g>
</g>
<!-- Node9&#45;&gt;Node12 -->
<g id="edge15" class="edge">
<title>Node9&#45;&gt;Node12</title>
<path fill="none" stroke="#191970" d="M1202.5903,-209.4565C1223.5004,-204.407 1249.0329,-198.2413 1271.1552,-192.8991"/>
<polygon fill="#191970" stroke="#191970" points="1272.1517,-196.2591 1281.0507,-190.5094 1270.5085,-189.4547 1272.1517,-196.2591"/>
</g>
<!-- Node10&#45;&gt;Node7 -->
<g id="edge12" class="edge">
<title>Node10&#45;&gt;Node7</title>
<path fill="none" stroke="#191970" d="M1357.8321,-151.5551C1365.8838,-154.1834 1374.3248,-157.2123 1382,-160.5 1453.5266,-191.1389 1532.6372,-238.0798 1571.5861,-262.13"/>
<polygon fill="#191970" stroke="#191970" points="1569.8133,-265.149 1580.1546,-267.4527 1573.507,-259.2029 1569.8133,-265.149"/>
</g>
<!-- Node13&#45;&gt;Node4 -->
<g id="edge21" class="edge">
<title>Node13&#45;&gt;Node4</title>
<path fill="none" stroke="#191970" d="M572.1818,-166.5154C627.0004,-184.1227 740.6196,-220.6162 801.8207,-240.2735"/>
<polygon fill="#191970" stroke="#191970" points="800.9441,-243.668 811.5354,-243.3938 803.0847,-237.0034 800.9441,-243.668"/>
</g>
<!-- Node14 -->
<g id="node14" class="node">
<title>Node14</title>
<g id="a_node14"><a xlink:href="../../d1/dce/Cframe_8C.html#a12df864fa4bf6dcdb2ea84d0f8c1290b" target="_top" xlink:title="findFrameDataEnd">
<polygon fill="none" stroke="#000000" points="639,-127.5 639,-147.5 749,-147.5 749,-127.5 639,-127.5"/>
<text text-anchor="middle" x="694" y="-134.5" font-family="FreeSans" font-size="10.00" fill="#000000">findFrameDataEnd</text>
</a>
</g>
</g>
<!-- Node13&#45;&gt;Node14 -->
<g id="edge17" class="edge">
<title>Node13&#45;&gt;Node14</title>
<path fill="none" stroke="#191970" d="M603.231,-148.772C611.583,-147.7348 620.1704,-146.6684 628.5755,-145.6246"/>
<polygon fill="#191970" stroke="#191970" points="629.217,-149.0719 638.7094,-144.3662 628.3543,-142.1253 629.217,-149.0719"/>
</g>
<!-- Node16 -->
<g id="node16" class="node">
<title>Node16</title>
<g id="a_node16"><a xlink:href="../../dc/d93/Cpacket_8C.html#a33d3ee1d631bd39719fcdbc55778b96d" target="_top" xlink:title="findPacketEnd">
<polygon fill="none" stroke="#000000" points="650.5,-78.5 650.5,-98.5 737.5,-98.5 737.5,-78.5 650.5,-78.5"/>
<text text-anchor="middle" x="694" y="-85.5" font-family="FreeSans" font-size="10.00" fill="#000000">findPacketEnd</text>
</a>
</g>
</g>
<!-- Node13&#45;&gt;Node16 -->
<g id="edge22" class="edge">
<title>Node13&#45;&gt;Node16</title>
<path fill="none" stroke="#191970" d="M563.5757,-146.4664C589.5649,-134.9156 632.4486,-115.8562 661.9019,-102.7658"/>
<polygon fill="#191970" stroke="#191970" points="663.6151,-105.8346 671.3317,-98.5748 660.7721,-99.4379 663.6151,-105.8346"/>
</g>
<!-- Node14&#45;&gt;Node4 -->
<g id="edge18" class="edge">
<title>Node14&#45;&gt;Node4</title>
<path fill="none" stroke="#191970" d="M721.0019,-147.58C730.2478,-151.5917 740.4176,-156.6548 749,-162.5 780.2108,-183.7566 810.5275,-215.7827 827.9487,-235.6259"/>
<polygon fill="#191970" stroke="#191970" points="825.4056,-238.0361 834.5904,-243.3173 830.7037,-233.4611 825.4056,-238.0361"/>
</g>
<!-- Node15 -->
<g id="node15" class="node">
<title>Node15</title>
<g id="a_node15"><a xlink:href="../../d1/dce/Cframe_8C.html#a5ccb583e9a713b894ae4dfcb95b3d8a6" target="_top" xlink:title="getFrameDataLength">
<polygon fill="none" stroke="#000000" points="937,-151.5 937,-171.5 1059,-171.5 1059,-151.5 937,-151.5"/>
<text text-anchor="middle" x="998" y="-158.5" font-family="FreeSans" font-size="10.00" fill="#000000">getFrameDataLength</text>
</a>
</g>
</g>
<!-- Node14&#45;&gt;Node15 -->
<g id="edge19" class="edge">
<title>Node14&#45;&gt;Node15</title>
<path fill="none" stroke="#191970" d="M749.3183,-143.2234C761.0904,-144.3707 773.452,-145.5225 785,-146.5 832.2631,-150.5006 885.49,-154.2492 926.9127,-156.9984"/>
<polygon fill="#191970" stroke="#191970" points="926.6996,-160.4918 936.9082,-157.6576 927.1603,-153.507 926.6996,-160.4918"/>
</g>
<!-- Node15&#45;&gt;Node10 -->
<g id="edge20" class="edge">
<title>Node15&#45;&gt;Node10</title>
<path fill="none" stroke="#191970" d="M1059.036,-157.7382C1114.1118,-154.3436 1195.0943,-149.3524 1252.7179,-145.8009"/>
<polygon fill="#191970" stroke="#191970" points="1253.0684,-149.286 1262.8341,-145.1774 1252.6377,-142.2993 1253.0684,-149.286"/>
</g>
<!-- Node17 -->
<g id="node17" class="node">
<title>Node17</title>
<g id="a_node17"><a xlink:href="../../de/d93/Cpacket_8h.html#a240cdc0ca633222b7ca7dd8d85ebedd0" target="_top" xlink:title="getPacketLength">
<polygon fill="none" stroke="#000000" points="793,-117.5 793,-137.5 893,-137.5 893,-117.5 793,-117.5"/>
<text text-anchor="middle" x="843" y="-124.5" font-family="FreeSans" font-size="10.00" fill="#000000">getPacketLength</text>
</a>
</g>
</g>
<!-- Node16&#45;&gt;Node17 -->
<g id="edge23" class="edge">
<title>Node16&#45;&gt;Node17</title>
<path fill="none" stroke="#191970" d="M732.3712,-98.5435C751.4891,-103.5475 774.7951,-109.6477 795.0769,-114.9564"/>
<polygon fill="#191970" stroke="#191970" points="794.1984,-118.3443 804.7588,-117.4906 795.971,-111.5724 794.1984,-118.3443"/>
</g>
<!-- Node18 -->
<g id="node18" class="node">
<title>Node18</title>
<g id="a_node18"><a xlink:href="../../d0/db6/formatError_8C.html#acc9f1b83d468fccaa25cbd751730a101" target="_top" xlink:title="setPacketError">
<polygon fill="none" stroke="#000000" points="1116.5,-49.5 1116.5,-69.5 1205.5,-69.5 1205.5,-49.5 1116.5,-49.5"/>
<text text-anchor="middle" x="1161" y="-56.5" font-family="FreeSans" font-size="10.00" fill="#000000">setPacketError</text>
</a>
</g>
</g>
<!-- Node16&#45;&gt;Node18 -->
<g id="edge24" class="edge">
<title>Node16&#45;&gt;Node18</title>
<path fill="none" stroke="#191970" d="M737.5149,-85.7978C822.9596,-80.4918 1012.4917,-68.7221 1106.2689,-62.8987"/>
<polygon fill="#191970" stroke="#191970" points="1106.6372,-66.3827 1116.401,-62.2695 1106.2033,-59.3961 1106.6372,-66.3827"/>
</g>
<!-- Node19 -->
<g id="node19" class="node">
<title>Node19</title>
<g id="a_node19"><a xlink:href="../../d0/db6/formatError_8C.html#ac8d103b555b652dc530dea2a2459b519" target="_top" xlink:title="setPacketSuccess">
<polygon fill="none" stroke="#000000" points="790.5,-39.5 790.5,-59.5 895.5,-59.5 895.5,-39.5 790.5,-39.5"/>
<text text-anchor="middle" x="843" y="-46.5" font-family="FreeSans" font-size="10.00" fill="#000000">setPacketSuccess</text>
</a>
</g>
</g>
<!-- Node16&#45;&gt;Node19 -->
<g id="edge25" class="edge">
<title>Node16&#45;&gt;Node19</title>
<path fill="none" stroke="#191970" d="M732.3712,-78.4565C751.4891,-73.4525 774.7951,-67.3523 795.0769,-62.0436"/>
<polygon fill="#191970" stroke="#191970" points="795.971,-65.4276 804.7588,-59.5094 794.1984,-58.6557 795.971,-65.4276"/>
</g>
<!-- Node16&#45;&gt;Node20 -->
<g id="edge26" class="edge">
<title>Node16&#45;&gt;Node20</title>
<path fill="none" stroke="#191970" d="M707.2266,-78.3457C724.3854,-65.5532 755.6114,-43.5477 785,-29.5 789.0899,-27.545 793.4326,-25.7129 797.8294,-24.0171"/>
<polygon fill="#191970" stroke="#191970" points="799.2535,-27.2238 807.464,-20.5276 796.8698,-20.6422 799.2535,-27.2238"/>
</g>
<!-- Node21 -->
<g id="node21" class="node">
<title>Node21</title>
<g id="a_node21"><a xlink:href="../../de/d93/Cpacket_8h.html#a5086c5b9a0c51b566d8fe9ab6a5a6213" target="_top" xlink:title="getPacketHdrVersion">
<polygon fill="none" stroke="#000000" points="937.5,-20.5 937.5,-40.5 1058.5,-40.5 1058.5,-20.5 937.5,-20.5"/>
<text text-anchor="middle" x="998" y="-27.5" font-family="FreeSans" font-size="10.00" fill="#000000">getPacketHdrVersion</text>
</a>
</g>
</g>
<!-- Node20&#45;&gt;Node21 -->
<g id="edge27" class="edge">
<title>Node20&#45;&gt;Node21</title>
<path fill="none" stroke="#191970" d="M889.0854,-16.4465C901.0559,-17.9911 914.2299,-19.691 927.1552,-21.3587"/>
<polygon fill="#191970" stroke="#191970" points="927.0743,-24.8772 937.44,-22.6858 927.9701,-17.9348 927.0743,-24.8772"/>
</g>
<!-- Node21&#45;&gt;Node18 -->
<g id="edge28" class="edge">
<title>Node21&#45;&gt;Node18</title>
<path fill="none" stroke="#191970" d="M1054.552,-40.5614C1071.3041,-43.5418 1089.6126,-46.7992 1106.2486,-49.759"/>
<polygon fill="#191970" stroke="#191970" points="1105.9034,-53.2524 1116.3619,-51.5582 1107.1296,-46.3606 1105.9034,-53.2524"/>
</g>
</g>
</svg>
