<?xml version="1.0" encoding="UTF-8" standalone="no"?>
<!DOCTYPE svg PUBLIC "-//W3C//DTD SVG 1.1//EN"
 "http://www.w3.org/Graphics/SVG/1.1/DTD/svg11.dtd">
<!-- Generated by graphviz version 2.40.1 (20161225.0304)
 -->
<!-- Title: HelixKalmanFilter::calculate_dApdp Pages: 1 -->
<svg width="1321pt" height="92pt"
 viewBox="0.00 0.00 1321.00 92.00" xmlns="http://www.w3.org/2000/svg" xmlns:xlink="http://www.w3.org/1999/xlink">
<g id="graph0" class="graph" transform="scale(1 1) rotate(0) translate(4 88)">
<title>HelixKalmanFilter::calculate_dApdp</title>
<!-- Node1 -->
<g id="node1" class="node">
<title>Node1</title>
<polygon fill="#bfbfbf" stroke="#000000" points="0,-25.5 0,-57.5 111,-57.5 111,-25.5 0,-25.5"/>
<text text-anchor="start" x="8" y="-44.5" font-family="FreeSans" font-size="10.00" fill="#000000">HelixKalmanFilter::</text>
<text text-anchor="middle" x="55.5" y="-32.5" font-family="FreeSans" font-size="10.00" fill="#000000">calculate_dApdp</text>
</g>
<!-- Node2 -->
<g id="node2" class="node">
<title>Node2</title>
<g id="a_node2"><a xlink:href="../../d0/d51/classHelixKalmanFilter.html#a1509b630656359408778405512be96d1" target="_top" xlink:title="HelixKalmanFilter::\lcalculateMSCovariance">
<polygon fill="none" stroke="#000000" points="147,-25.5 147,-57.5 281,-57.5 281,-25.5 147,-25.5"/>
<text text-anchor="start" x="155" y="-44.5" font-family="FreeSans" font-size="10.00" fill="#000000">HelixKalmanFilter::</text>
<text text-anchor="middle" x="214" y="-32.5" font-family="FreeSans" font-size="10.00" fill="#000000">calculateMSCovariance</text>
</a>
</g>
</g>
<!-- Node1&#45;&gt;Node2 -->
<g id="edge1" class="edge">
<title>Node1&#45;&gt;Node2</title>
<path fill="none" stroke="#191970" d="M121.5058,-41.5C129.911,-41.5 138.5208,-41.5 146.9424,-41.5"/>
<polygon fill="#191970" stroke="#191970" points="121.3812,-38.0001 111.3812,-41.5 121.3811,-45.0001 121.3812,-38.0001"/>
</g>
<!-- Node3 -->
<g id="node3" class="node">
<title>Node3</title>
<g id="a_node3"><a xlink:href="../../d0/d51/classHelixKalmanFilter.html#a37c367c4552d3ba018bee40842f2496a" target="_top" xlink:title="HelixKalmanFilter::\laddHit">
<polygon fill="none" stroke="#000000" points="317,-25.5 317,-57.5 428,-57.5 428,-25.5 317,-25.5"/>
<text text-anchor="start" x="325" y="-44.5" font-family="FreeSans" font-size="10.00" fill="#000000">HelixKalmanFilter::</text>
<text text-anchor="middle" x="372.5" y="-32.5" font-family="FreeSans" font-size="10.00" fill="#000000">addHit</text>
</a>
</g>
</g>
<!-- Node2&#45;&gt;Node3 -->
<g id="edge2" class="edge">
<title>Node2&#45;&gt;Node3</title>
<path fill="none" stroke="#191970" d="M291.2474,-41.5C299.8236,-41.5 308.431,-41.5 316.6676,-41.5"/>
<polygon fill="#191970" stroke="#191970" points="291.2183,-38.0001 281.2183,-41.5 291.2182,-45.0001 291.2183,-38.0001"/>
</g>
<!-- Node4 -->
<g id="node4" class="node">
<title>Node4</title>
<g id="a_node4"><a xlink:href="../../de/d3e/classCellularAutomaton__v1.html#a05968c13f25eb599a20e2ee1739a6ac3" target="_top" xlink:title="CellularAutomaton_v1\l::process_single_track">
<polygon fill="none" stroke="#000000" points="466.5,-51.5 466.5,-83.5 594.5,-83.5 594.5,-51.5 466.5,-51.5"/>
<text text-anchor="start" x="474.5" y="-70.5" font-family="FreeSans" font-size="10.00" fill="#000000">CellularAutomaton_v1</text>
<text text-anchor="middle" x="530.5" y="-58.5" font-family="FreeSans" font-size="10.00" fill="#000000">::process_single_track</text>
</a>
</g>
</g>
<!-- Node3&#45;&gt;Node4 -->
<g id="edge3" class="edge">
<title>Node3&#45;&gt;Node4</title>
<path fill="none" stroke="#191970" d="M438.197,-52.3109C447.521,-53.8452 457.0996,-55.4214 466.3928,-56.9507"/>
<polygon fill="#191970" stroke="#191970" points="438.6405,-48.8369 428.2049,-50.6666 437.5038,-55.744 438.6405,-48.8369"/>
</g>
<!-- Node11 -->
<g id="node11" class="node">
<title>Node11</title>
<g id="a_node11"><a xlink:href="../../de/d3e/classCellularAutomaton__v1.html#af726cb4f1c97b9b24b5f170d41b10166" target="_top" xlink:title="CellularAutomaton_v1\l::process_single_triplet">
<polygon fill="none" stroke="#000000" points="464,-.5 464,-32.5 597,-32.5 597,-.5 464,-.5"/>
<text text-anchor="start" x="472" y="-19.5" font-family="FreeSans" font-size="10.00" fill="#000000">CellularAutomaton_v1</text>
<text text-anchor="middle" x="530.5" y="-7.5" font-family="FreeSans" font-size="10.00" fill="#000000">::process_single_triplet</text>
</a>
</g>
</g>
<!-- Node3&#45;&gt;Node11 -->
<g id="edge10" class="edge">
<title>Node3&#45;&gt;Node11</title>
<path fill="none" stroke="#191970" d="M438.0985,-31.1205C446.6316,-29.7703 455.3796,-28.3861 463.9285,-27.0335"/>
<polygon fill="#191970" stroke="#191970" points="437.535,-27.666 428.2049,-32.6859 438.629,-34.58 437.535,-27.666"/>
</g>
<!-- Node5 -->
<g id="node5" class="node">
<title>Node5</title>
<g id="a_node5"><a xlink:href="../../de/d3e/classCellularAutomaton__v1.html#abba811ee26c85306636e0c974a48750f" target="_top" xlink:title="CellularAutomaton_v1\l::process_tracks">
<polygon fill="none" stroke="#000000" points="633,-25.5 633,-57.5 761,-57.5 761,-25.5 633,-25.5"/>
<text text-anchor="start" x="641" y="-44.5" font-family="FreeSans" font-size="10.00" fill="#000000">CellularAutomaton_v1</text>
<text text-anchor="middle" x="697" y="-32.5" font-family="FreeSans" font-size="10.00" fill="#000000">::process_tracks</text>
</a>
</g>
</g>
<!-- Node4&#45;&gt;Node5 -->
<g id="edge4" class="edge">
<title>Node4&#45;&gt;Node5</title>
<path fill="none" stroke="#191970" d="M604.894,-55.8829C614.2035,-54.4292 623.6624,-52.9521 632.7979,-51.5255"/>
<polygon fill="#191970" stroke="#191970" points="604.2135,-52.4467 594.8732,-57.4477 605.2935,-59.3629 604.2135,-52.4467"/>
</g>
<!-- Node6 -->
<g id="node6" class="node">
<title>Node6</title>
<g id="a_node6"><a xlink:href="../../de/d3e/classCellularAutomaton__v1.html#ab3d2fc2a826021645f4ea5822b2efd5c" target="_top" xlink:title="CellularAutomaton_v1::run">
<polygon fill="none" stroke="#000000" points="797,-31.5 797,-51.5 949,-51.5 949,-31.5 797,-31.5"/>
<text text-anchor="middle" x="873" y="-38.5" font-family="FreeSans" font-size="10.00" fill="#000000">CellularAutomaton_v1::run</text>
</a>
</g>
</g>
<!-- Node5&#45;&gt;Node6 -->
<g id="edge5" class="edge">
<title>Node5&#45;&gt;Node6</title>
<path fill="none" stroke="#191970" d="M771.2245,-41.5C779.6638,-41.5 788.2765,-41.5 796.7416,-41.5"/>
<polygon fill="#191970" stroke="#191970" points="771.0379,-38.0001 761.0379,-41.5 771.0379,-45.0001 771.0379,-38.0001"/>
</g>
<!-- Node7 -->
<g id="node7" class="node">
<title>Node7</title>
<g id="a_node7"><a xlink:href="../../d2/d8f/classPHInitZVertexing.html#a3c179fcf07400123b50e318038b33460" target="_top" xlink:title="PHInitZVertexing::cellular\l_automaton_zvtx_init">
<polygon fill="none" stroke="#000000" points="985,-51.5 985,-83.5 1131,-83.5 1131,-51.5 985,-51.5"/>
<text text-anchor="start" x="993" y="-70.5" font-family="FreeSans" font-size="10.00" fill="#000000">PHInitZVertexing::cellular</text>
<text text-anchor="middle" x="1058" y="-58.5" font-family="FreeSans" font-size="10.00" fill="#000000">_automaton_zvtx_init</text>
</a>
</g>
</g>
<!-- Node6&#45;&gt;Node7 -->
<g id="edge6" class="edge">
<title>Node6&#45;&gt;Node7</title>
<path fill="none" stroke="#191970" d="M954.3599,-52.9344C964.5381,-54.3648 974.8989,-55.8209 984.9396,-57.2321"/>
<polygon fill="#191970" stroke="#191970" points="954.651,-49.441 944.2612,-51.5151 953.6768,-56.3728 954.651,-49.441"/>
</g>
<!-- Node9 -->
<g id="node9" class="node">
<title>Node9</title>
<g id="a_node9"><a xlink:href="../../d1/d97/classPHPatternReco.html#a55efbe3839721014299b211e1c64d4e4" target="_top" xlink:title="PHPatternReco::cellular\l_automaton_zvtx_init">
<polygon fill="none" stroke="#000000" points="990.5,-.5 990.5,-32.5 1125.5,-32.5 1125.5,-.5 990.5,-.5"/>
<text text-anchor="start" x="998.5" y="-19.5" font-family="FreeSans" font-size="10.00" fill="#000000">PHPatternReco::cellular</text>
<text text-anchor="middle" x="1058" y="-7.5" font-family="FreeSans" font-size="10.00" fill="#000000">_automaton_zvtx_init</text>
</a>
</g>
</g>
<!-- Node6&#45;&gt;Node9 -->
<g id="edge8" class="edge">
<title>Node6&#45;&gt;Node9</title>
<path fill="none" stroke="#191970" d="M957.2988,-30.1083C968.3849,-28.6101 979.6294,-27.0906 990.3886,-25.6367"/>
<polygon fill="#191970" stroke="#191970" points="956.6218,-26.6679 947.1806,-31.4756 957.5593,-33.6048 956.6218,-26.6679"/>
</g>
<!-- Node8 -->
<g id="node8" class="node">
<title>Node8</title>
<g id="a_node8"><a xlink:href="../../d2/d8f/classPHInitZVertexing.html#a50743230c0f324a28d4410227a526ec8" target="_top" xlink:title="PHInitZVertexing::Process">
<polygon fill="none" stroke="#000000" points="1167,-57.5 1167,-77.5 1313,-77.5 1313,-57.5 1167,-57.5"/>
<text text-anchor="middle" x="1240" y="-64.5" font-family="FreeSans" font-size="10.00" fill="#000000">PHInitZVertexing::Process</text>
</a>
</g>
</g>
<!-- Node7&#45;&gt;Node8 -->
<g id="edge7" class="edge">
<title>Node7&#45;&gt;Node8</title>
<path fill="none" stroke="#191970" d="M1141.516,-67.5C1149.9925,-67.5 1158.5562,-67.5 1166.9103,-67.5"/>
<polygon fill="#191970" stroke="#191970" points="1141.2397,-64.0001 1131.2397,-67.5 1141.2396,-71.0001 1141.2397,-64.0001"/>
</g>
<!-- Node10 -->
<g id="node10" class="node">
<title>Node10</title>
<g id="a_node10"><a xlink:href="../../d1/d97/classPHPatternReco.html#ac97e2c1e8d98ea16a11d44c134ad0299" target="_top" xlink:title="PHPatternReco::process\l_event">
<polygon fill="none" stroke="#000000" points="1172,-.5 1172,-32.5 1308,-32.5 1308,-.5 1172,-.5"/>
<text text-anchor="start" x="1180" y="-19.5" font-family="FreeSans" font-size="10.00" fill="#000000">PHPatternReco::process</text>
<text text-anchor="middle" x="1240" y="-7.5" font-family="FreeSans" font-size="10.00" fill="#000000">_event</text>
</a>
</g>
</g>
<!-- Node9&#45;&gt;Node10 -->
<g id="edge9" class="edge">
<title>Node9&#45;&gt;Node10</title>
<path fill="none" stroke="#191970" d="M1135.5846,-16.5C1147.6901,-16.5 1160.1195,-16.5 1171.9903,-16.5"/>
<polygon fill="#191970" stroke="#191970" points="1135.5115,-13.0001 1125.5114,-16.5 1135.5114,-20.0001 1135.5115,-13.0001"/>
</g>
<!-- Node11&#45;&gt;Node5 -->
<g id="edge11" class="edge">
<title>Node11&#45;&gt;Node5</title>
<path fill="none" stroke="#191970" d="M607.2727,-28.0274C615.8547,-29.316 624.5292,-30.6185 632.9282,-31.8796"/>
<polygon fill="#191970" stroke="#191970" points="607.6714,-24.5481 597.2626,-26.5244 606.632,-31.4705 607.6714,-24.5481"/>
</g>
</g>
</svg>
