<?xml version="1.0" encoding="UTF-8" standalone="no"?>
<!DOCTYPE svg PUBLIC "-//W3C//DTD SVG 1.1//EN"
 "http://www.w3.org/Graphics/SVG/1.1/DTD/svg11.dtd">
<!-- Generated by graphviz version 2.40.1 (20161225.0304)
 -->
<!-- Title: HelixKalmanFilter::calculateMSCovariance Pages: 1 -->
<svg width="1174pt" height="92pt"
 viewBox="0.00 0.00 1174.00 92.00" xmlns="http://www.w3.org/2000/svg" xmlns:xlink="http://www.w3.org/1999/xlink">
<g id="graph0" class="graph" transform="scale(1 1) rotate(0) translate(4 88)">
<title>HelixKalmanFilter::calculateMSCovariance</title>
<!-- Node1 -->
<g id="node1" class="node">
<title>Node1</title>
<polygon fill="#bfbfbf" stroke="#000000" points="0,-25.5 0,-57.5 134,-57.5 134,-25.5 0,-25.5"/>
<text text-anchor="start" x="8" y="-44.5" font-family="FreeSans" font-size="10.00" fill="#000000">HelixKalmanFilter::</text>
<text text-anchor="middle" x="67" y="-32.5" font-family="FreeSans" font-size="10.00" fill="#000000">calculateMSCovariance</text>
</g>
<!-- Node2 -->
<g id="node2" class="node">
<title>Node2</title>
<g id="a_node2"><a xlink:href="../../d0/d51/classHelixKalmanFilter.html#a37c367c4552d3ba018bee40842f2496a" target="_top" xlink:title="HelixKalmanFilter::\laddHit">
<polygon fill="none" stroke="#000000" points="170,-25.5 170,-57.5 281,-57.5 281,-25.5 170,-25.5"/>
<text text-anchor="start" x="178" y="-44.5" font-family="FreeSans" font-size="10.00" fill="#000000">HelixKalmanFilter::</text>
<text text-anchor="middle" x="225.5" y="-32.5" font-family="FreeSans" font-size="10.00" fill="#000000">addHit</text>
</a>
</g>
</g>
<!-- Node1&#45;&gt;Node2 -->
<g id="edge1" class="edge">
<title>Node1&#45;&gt;Node2</title>
<path fill="none" stroke="#191970" d="M144.2474,-41.5C152.8236,-41.5 161.431,-41.5 169.6676,-41.5"/>
<polygon fill="#191970" stroke="#191970" points="144.2183,-38.0001 134.2183,-41.5 144.2182,-45.0001 144.2183,-38.0001"/>
</g>
<!-- Node3 -->
<g id="node3" class="node">
<title>Node3</title>
<g id="a_node3"><a xlink:href="../../de/d3e/classCellularAutomaton__v1.html#a05968c13f25eb599a20e2ee1739a6ac3" target="_top" xlink:title="CellularAutomaton_v1\l::process_single_track">
<polygon fill="none" stroke="#000000" points="319.5,-51.5 319.5,-83.5 447.5,-83.5 447.5,-51.5 319.5,-51.5"/>
<text text-anchor="start" x="327.5" y="-70.5" font-family="FreeSans" font-size="10.00" fill="#000000">CellularAutomaton_v1</text>
<text text-anchor="middle" x="383.5" y="-58.5" font-family="FreeSans" font-size="10.00" fill="#000000">::process_single_track</text>
</a>
</g>
</g>
<!-- Node2&#45;&gt;Node3 -->
<g id="edge2" class="edge">
<title>Node2&#45;&gt;Node3</title>
<path fill="none" stroke="#191970" d="M291.197,-52.3109C300.521,-53.8452 310.0996,-55.4214 319.3928,-56.9507"/>
<polygon fill="#191970" stroke="#191970" points="291.6405,-48.8369 281.2049,-50.6666 290.5038,-55.744 291.6405,-48.8369"/>
</g>
<!-- Node10 -->
<g id="node10" class="node">
<title>Node10</title>
<g id="a_node10"><a xlink:href="../../de/d3e/classCellularAutomaton__v1.html#af726cb4f1c97b9b24b5f170d41b10166" target="_top" xlink:title="CellularAutomaton_v1\l::process_single_triplet">
<polygon fill="none" stroke="#000000" points="317,-.5 317,-32.5 450,-32.5 450,-.5 317,-.5"/>
<text text-anchor="start" x="325" y="-19.5" font-family="FreeSans" font-size="10.00" fill="#000000">CellularAutomaton_v1</text>
<text text-anchor="middle" x="383.5" y="-7.5" font-family="FreeSans" font-size="10.00" fill="#000000">::process_single_triplet</text>
</a>
</g>
</g>
<!-- Node2&#45;&gt;Node10 -->
<g id="edge9" class="edge">
<title>Node2&#45;&gt;Node10</title>
<path fill="none" stroke="#191970" d="M291.0985,-31.1205C299.6316,-29.7703 308.3796,-28.3861 316.9285,-27.0335"/>
<polygon fill="#191970" stroke="#191970" points="290.535,-27.666 281.2049,-32.6859 291.629,-34.58 290.535,-27.666"/>
</g>
<!-- Node4 -->
<g id="node4" class="node">
<title>Node4</title>
<g id="a_node4"><a xlink:href="../../de/d3e/classCellularAutomaton__v1.html#abba811ee26c85306636e0c974a48750f" target="_top" xlink:title="CellularAutomaton_v1\l::process_tracks">
<polygon fill="none" stroke="#000000" points="486,-25.5 486,-57.5 614,-57.5 614,-25.5 486,-25.5"/>
<text text-anchor="start" x="494" y="-44.5" font-family="FreeSans" font-size="10.00" fill="#000000">CellularAutomaton_v1</text>
<text text-anchor="middle" x="550" y="-32.5" font-family="FreeSans" font-size="10.00" fill="#000000">::process_tracks</text>
</a>
</g>
</g>
<!-- Node3&#45;&gt;Node4 -->
<g id="edge3" class="edge">
<title>Node3&#45;&gt;Node4</title>
<path fill="none" stroke="#191970" d="M457.894,-55.8829C467.2035,-54.4292 476.6624,-52.9521 485.7979,-51.5255"/>
<polygon fill="#191970" stroke="#191970" points="457.2135,-52.4467 447.8732,-57.4477 458.2935,-59.3629 457.2135,-52.4467"/>
</g>
<!-- Node5 -->
<g id="node5" class="node">
<title>Node5</title>
<g id="a_node5"><a xlink:href="../../de/d3e/classCellularAutomaton__v1.html#ab3d2fc2a826021645f4ea5822b2efd5c" target="_top" xlink:title="CellularAutomaton_v1::run">
<polygon fill="none" stroke="#000000" points="650,-31.5 650,-51.5 802,-51.5 802,-31.5 650,-31.5"/>
<text text-anchor="middle" x="726" y="-38.5" font-family="FreeSans" font-size="10.00" fill="#000000">CellularAutomaton_v1::run</text>
</a>
</g>
</g>
<!-- Node4&#45;&gt;Node5 -->
<g id="edge4" class="edge">
<title>Node4&#45;&gt;Node5</title>
<path fill="none" stroke="#191970" d="M624.2245,-41.5C632.6638,-41.5 641.2765,-41.5 649.7416,-41.5"/>
<polygon fill="#191970" stroke="#191970" points="624.0379,-38.0001 614.0379,-41.5 624.0379,-45.0001 624.0379,-38.0001"/>
</g>
<!-- Node6 -->
<g id="node6" class="node">
<title>Node6</title>
<g id="a_node6"><a xlink:href="../../d2/d8f/classPHInitZVertexing.html#a3c179fcf07400123b50e318038b33460" target="_top" xlink:title="PHInitZVertexing::cellular\l_automaton_zvtx_init">
<polygon fill="none" stroke="#000000" points="838,-51.5 838,-83.5 984,-83.5 984,-51.5 838,-51.5"/>
<text text-anchor="start" x="846" y="-70.5" font-family="FreeSans" font-size="10.00" fill="#000000">PHInitZVertexing::cellular</text>
<text text-anchor="middle" x="911" y="-58.5" font-family="FreeSans" font-size="10.00" fill="#000000">_automaton_zvtx_init</text>
</a>
</g>
</g>
<!-- Node5&#45;&gt;Node6 -->
<g id="edge5" class="edge">
<title>Node5&#45;&gt;Node6</title>
<path fill="none" stroke="#191970" d="M807.3599,-52.9344C817.5381,-54.3648 827.8989,-55.8209 837.9396,-57.2321"/>
<polygon fill="#191970" stroke="#191970" points="807.651,-49.441 797.2612,-51.5151 806.6768,-56.3728 807.651,-49.441"/>
</g>
<!-- Node8 -->
<g id="node8" class="node">
<title>Node8</title>
<g id="a_node8"><a xlink:href="../../d1/d97/classPHPatternReco.html#a55efbe3839721014299b211e1c64d4e4" target="_top" xlink:title="PHPatternReco::cellular\l_automaton_zvtx_init">
<polygon fill="none" stroke="#000000" points="843.5,-.5 843.5,-32.5 978.5,-32.5 978.5,-.5 843.5,-.5"/>
<text text-anchor="start" x="851.5" y="-19.5" font-family="FreeSans" font-size="10.00" fill="#000000">PHPatternReco::cellular</text>
<text text-anchor="middle" x="911" y="-7.5" font-family="FreeSans" font-size="10.00" fill="#000000">_automaton_zvtx_init</text>
</a>
</g>
</g>
<!-- Node5&#45;&gt;Node8 -->
<g id="edge7" class="edge">
<title>Node5&#45;&gt;Node8</title>
<path fill="none" stroke="#191970" d="M810.2988,-30.1083C821.3849,-28.6101 832.6294,-27.0906 843.3886,-25.6367"/>
<polygon fill="#191970" stroke="#191970" points="809.6218,-26.6679 800.1806,-31.4756 810.5593,-33.6048 809.6218,-26.6679"/>
</g>
<!-- Node7 -->
<g id="node7" class="node">
<title>Node7</title>
<g id="a_node7"><a xlink:href="../../d2/d8f/classPHInitZVertexing.html#a50743230c0f324a28d4410227a526ec8" target="_top" xlink:title="PHInitZVertexing::Process">
<polygon fill="none" stroke="#000000" points="1020,-57.5 1020,-77.5 1166,-77.5 1166,-57.5 1020,-57.5"/>
<text text-anchor="middle" x="1093" y="-64.5" font-family="FreeSans" font-size="10.00" fill="#000000">PHInitZVertexing::Process</text>
</a>
</g>
</g>
<!-- Node6&#45;&gt;Node7 -->
<g id="edge6" class="edge">
<title>Node6&#45;&gt;Node7</title>
<path fill="none" stroke="#191970" d="M994.516,-67.5C1002.9925,-67.5 1011.5562,-67.5 1019.9103,-67.5"/>
<polygon fill="#191970" stroke="#191970" points="994.2397,-64.0001 984.2397,-67.5 994.2396,-71.0001 994.2397,-64.0001"/>
</g>
<!-- Node9 -->
<g id="node9" class="node">
<title>Node9</title>
<g id="a_node9"><a xlink:href="../../d1/d97/classPHPatternReco.html#ac97e2c1e8d98ea16a11d44c134ad0299" target="_top" xlink:title="PHPatternReco::process\l_event">
<polygon fill="none" stroke="#000000" points="1025,-.5 1025,-32.5 1161,-32.5 1161,-.5 1025,-.5"/>
<text text-anchor="start" x="1033" y="-19.5" font-family="FreeSans" font-size="10.00" fill="#000000">PHPatternReco::process</text>
<text text-anchor="middle" x="1093" y="-7.5" font-family="FreeSans" font-size="10.00" fill="#000000">_event</text>
</a>
</g>
</g>
<!-- Node8&#45;&gt;Node9 -->
<g id="edge8" class="edge">
<title>Node8&#45;&gt;Node9</title>
<path fill="none" stroke="#191970" d="M988.5846,-16.5C1000.6901,-16.5 1013.1195,-16.5 1024.9903,-16.5"/>
<polygon fill="#191970" stroke="#191970" points="988.5115,-13.0001 978.5114,-16.5 988.5114,-20.0001 988.5115,-13.0001"/>
</g>
<!-- Node10&#45;&gt;Node4 -->
<g id="edge10" class="edge">
<title>Node10&#45;&gt;Node4</title>
<path fill="none" stroke="#191970" d="M460.2727,-28.0274C468.8547,-29.316 477.5292,-30.6185 485.9282,-31.8796"/>
<polygon fill="#191970" stroke="#191970" points="460.6714,-24.5481 450.2626,-26.5244 459.632,-31.4705 460.6714,-24.5481"/>
</g>
</g>
</svg>
