<?xml version="1.0" encoding="UTF-8" standalone="no"?>
<!DOCTYPE svg PUBLIC "-//W3C//DTD SVG 1.1//EN"
 "http://www.w3.org/Graphics/SVG/1.1/DTD/svg11.dtd">
<!-- Generated by graphviz version 2.40.1 (20161225.0304)
 -->
<!-- Title: Fun4AllInputManager Pages: 1 -->
<svg width="674pt" height="185pt"
 viewBox="0.00 0.00 674.00 185.00" xmlns="http://www.w3.org/2000/svg" xmlns:xlink="http://www.w3.org/1999/xlink">
<g id="graph0" class="graph" transform="scale(1 1) rotate(0) translate(4 181)">
<title>Fun4AllInputManager</title>
<!-- Node1 -->
<g id="node1" class="node">
<title>Node1</title>
<polygon fill="#bfbfbf" stroke="#000000" points="114,-78.5 114,-98.5 239,-98.5 239,-78.5 114,-78.5"/>
<text text-anchor="middle" x="176.5" y="-85.5" font-family="FreeSans" font-size="10.00" fill="#000000">Fun4AllInputManager</text>
</g>
<!-- Node3 -->
<g id="node3" class="node">
<title>Node3</title>
<g id="a_node3"><a xlink:href="../../d7/d0b/classFun4AllDstInputManager.html" target="_top" xlink:title="Fun4AllDstInputManager">
<polygon fill="none" stroke="#000000" points="286.5,-156.5 286.5,-176.5 427.5,-176.5 427.5,-156.5 286.5,-156.5"/>
<text text-anchor="middle" x="357" y="-163.5" font-family="FreeSans" font-size="10.00" fill="#000000">Fun4AllDstInputManager</text>
</a>
</g>
</g>
<!-- Node1&#45;&gt;Node3 -->
<g id="edge2" class="edge">
<title>Node1&#45;&gt;Node3</title>
<path fill="none" stroke="#191970" d="M198.9102,-104.2823C218.2606,-117.2627 247.3804,-135.2854 275,-146.5 284.6396,-150.414 295.2397,-153.6954 305.5259,-156.394"/>
<polygon fill="#191970" stroke="#191970" points="200.7295,-101.2866 190.4964,-98.5417 196.7843,-107.0689 200.7295,-101.2866"/>
</g>
<!-- Node5 -->
<g id="node5" class="node">
<title>Node5</title>
<g id="a_node5"><a xlink:href="../../df/d43/classFun4AllDummyInputManager.html" target="_top" xlink:title="Fun4AllDummyInputManager">
<polygon fill="none" stroke="#000000" points="275,-117.5 275,-137.5 439,-137.5 439,-117.5 275,-117.5"/>
<text text-anchor="middle" x="357" y="-124.5" font-family="FreeSans" font-size="10.00" fill="#000000">Fun4AllDummyInputManager</text>
</a>
</g>
</g>
<!-- Node1&#45;&gt;Node5 -->
<g id="edge4" class="edge">
<title>Node1&#45;&gt;Node5</title>
<path fill="none" stroke="#191970" d="M233.0512,-100.7188C258.022,-106.1142 287.0119,-112.3779 310.6743,-117.4906"/>
<polygon fill="#191970" stroke="#191970" points="233.4969,-97.2344 222.9832,-98.5435 232.0185,-104.0765 233.4969,-97.2344"/>
</g>
<!-- Node6 -->
<g id="node6" class="node">
<title>Node6</title>
<g id="a_node6"><a xlink:href="../../d6/d6f/classFun4AllHepMCInputManager.html" target="_top" xlink:title="Fun4AllHepMCInputManager">
<polygon fill="none" stroke="#000000" points="276.5,-78.5 276.5,-98.5 437.5,-98.5 437.5,-78.5 276.5,-78.5"/>
<text text-anchor="middle" x="357" y="-85.5" font-family="FreeSans" font-size="10.00" fill="#000000">Fun4AllHepMCInputManager</text>
</a>
</g>
</g>
<!-- Node1&#45;&gt;Node6 -->
<g id="edge5" class="edge">
<title>Node1&#45;&gt;Node6</title>
<path fill="none" stroke="#191970" d="M249.4111,-88.5C258.284,-88.5 267.3891,-88.5 276.3659,-88.5"/>
<polygon fill="#191970" stroke="#191970" points="249.1236,-85.0001 239.1236,-88.5 249.1235,-92.0001 249.1236,-85.0001"/>
</g>
<!-- Node8 -->
<g id="node8" class="node">
<title>Node8</title>
<g id="a_node8"><a xlink:href="../../db/d1f/classFun4AllOscarInputManager.html" target="_top" xlink:title="Fun4AllOscarInputManager">
<polygon fill="none" stroke="#000000" points="280,-39.5 280,-59.5 434,-59.5 434,-39.5 280,-39.5"/>
<text text-anchor="middle" x="357" y="-46.5" font-family="FreeSans" font-size="10.00" fill="#000000">Fun4AllOscarInputManager</text>
</a>
</g>
</g>
<!-- Node1&#45;&gt;Node8 -->
<g id="edge7" class="edge">
<title>Node1&#45;&gt;Node8</title>
<path fill="none" stroke="#191970" d="M233.0512,-76.2812C258.022,-70.8858 287.0119,-64.6221 310.6743,-59.5094"/>
<polygon fill="#191970" stroke="#191970" points="232.0185,-72.9235 222.9832,-78.4565 233.4969,-79.7656 232.0185,-72.9235"/>
</g>
<!-- Node9 -->
<g id="node9" class="node">
<title>Node9</title>
<g id="a_node9"><a xlink:href="../../da/dd8/classFun4AllPrdfInputManager.html" target="_top" xlink:title="Fun4AllPrdfInputManager">
<polygon fill="none" stroke="#000000" points="285,-.5 285,-20.5 429,-20.5 429,-.5 285,-.5"/>
<text text-anchor="middle" x="357" y="-7.5" font-family="FreeSans" font-size="10.00" fill="#000000">Fun4AllPrdfInputManager</text>
</a>
</g>
</g>
<!-- Node1&#45;&gt;Node9 -->
<g id="edge8" class="edge">
<title>Node1&#45;&gt;Node9</title>
<path fill="none" stroke="#191970" d="M198.5035,-72.5717C217.8054,-59.2881 247.0748,-40.773 275,-29.5 283.808,-25.9443 293.4296,-22.9694 302.8838,-20.5094"/>
<polygon fill="#191970" stroke="#191970" points="196.3096,-69.8353 190.1278,-78.4398 200.3262,-75.5683 196.3096,-69.8353"/>
</g>
<!-- Node2 -->
<g id="node2" class="node">
<title>Node2</title>
<g id="a_node2"><a xlink:href="../../d5/dec/classFun4AllBase.html" target="_top" xlink:title="Fun4AllBase">
<polygon fill="none" stroke="#000000" points="0,-78.5 0,-98.5 78,-98.5 78,-78.5 0,-78.5"/>
<text text-anchor="middle" x="39" y="-85.5" font-family="FreeSans" font-size="10.00" fill="#000000">Fun4AllBase</text>
</a>
</g>
</g>
<!-- Node2&#45;&gt;Node1 -->
<g id="edge1" class="edge">
<title>Node2&#45;&gt;Node1</title>
<path fill="none" stroke="#191970" d="M88.3079,-88.5C96.6257,-88.5 105.3572,-88.5 113.958,-88.5"/>
<polygon fill="#191970" stroke="#191970" points="88.0342,-85.0001 78.0342,-88.5 88.0342,-92.0001 88.0342,-85.0001"/>
</g>
<!-- Node4 -->
<g id="node4" class="node">
<title>Node4</title>
<g id="a_node4"><a xlink:href="../../dd/df1/classFun4AllNoSyncDstInputManager.html" target="_top" xlink:title="Fun4AllNoSyncDstInputManager">
<polygon fill="none" stroke="#000000" points="480.5,-156.5 480.5,-176.5 660.5,-176.5 660.5,-156.5 480.5,-156.5"/>
<text text-anchor="middle" x="570.5" y="-163.5" font-family="FreeSans" font-size="10.00" fill="#000000">Fun4AllNoSyncDstInputManager</text>
</a>
</g>
</g>
<!-- Node3&#45;&gt;Node4 -->
<g id="edge3" class="edge">
<title>Node3&#45;&gt;Node4</title>
<path fill="none" stroke="#191970" d="M438.1527,-166.5C451.8702,-166.5 466.1869,-166.5 480.1224,-166.5"/>
<polygon fill="#191970" stroke="#191970" points="437.7959,-163.0001 427.7959,-166.5 437.7958,-170.0001 437.7959,-163.0001"/>
</g>
<!-- Node7 -->
<g id="node7" class="node">
<title>Node7</title>
<g id="a_node7"><a xlink:href="../../de/d99/classFun4AllHepMCPileupInputManager.html" target="_top" xlink:title="Fun4AllHepMCPileupInputManager">
<polygon fill="none" stroke="#000000" points="475,-78.5 475,-98.5 666,-98.5 666,-78.5 475,-78.5"/>
<text text-anchor="middle" x="570.5" y="-85.5" font-family="FreeSans" font-size="10.00" fill="#000000">Fun4AllHepMCPileupInputManager</text>
</a>
</g>
</g>
<!-- Node6&#45;&gt;Node7 -->
<g id="edge6" class="edge">
<title>Node6&#45;&gt;Node7</title>
<path fill="none" stroke="#191970" d="M447.7861,-88.5C456.7767,-88.5 465.9218,-88.5 474.9586,-88.5"/>
<polygon fill="#191970" stroke="#191970" points="447.7152,-85.0001 437.7152,-88.5 447.7152,-92.0001 447.7152,-85.0001"/>
</g>
</g>
</svg>
