<?xml version="1.0" encoding="UTF-8" standalone="no"?>
<!DOCTYPE svg PUBLIC "-//W3C//DTD SVG 1.1//EN"
 "http://www.w3.org/Graphics/SVG/1.1/DTD/svg11.dtd">
<!-- Generated by graphviz version 2.40.1 (20161225.0304)
 -->
<!-- Title: coresoftware/blob/master/offline/packages/PHField/PHFieldConfigv2.cc Pages: 1 -->
<svg width="253pt" height="281pt"
 viewBox="0.00 0.00 252.50 281.00" xmlns="http://www.w3.org/2000/svg" xmlns:xlink="http://www.w3.org/1999/xlink">
<g id="graph0" class="graph" transform="scale(1 1) rotate(0) translate(4 277)">
<title>coresoftware/blob/master/offline/packages/PHField/PHFieldConfigv2.cc</title>
<!-- Node1 -->
<g id="node1" class="node">
<title>Node1</title>
<polygon fill="#bfbfbf" stroke="#000000" points="73.5,-228.5 73.5,-272.5 219.5,-272.5 219.5,-228.5 73.5,-228.5"/>
<text text-anchor="start" x="81.5" y="-259.5" font-family="FreeSans" font-size="10.00" fill="#000000">coresoftware/blob/master</text>
<text text-anchor="start" x="81.5" y="-247.5" font-family="FreeSans" font-size="10.00" fill="#000000">/offline/packages/PHField</text>
<text text-anchor="middle" x="146.5" y="-235.5" font-family="FreeSans" font-size="10.00" fill="#000000">/PHFieldConfigv2.cc</text>
</g>
<!-- Node2 -->
<g id="node2" class="node">
<title>Node2</title>
<g id="a_node2"><a xlink:href="../../d8/dd0/PHFieldConfigv2_8h.html" target="_top" xlink:title="PHFieldConfigv2.h">
<polygon fill="none" stroke="#000000" points="92.5,-171.5 92.5,-191.5 200.5,-191.5 200.5,-171.5 92.5,-171.5"/>
<text text-anchor="middle" x="146.5" y="-178.5" font-family="FreeSans" font-size="10.00" fill="#000000">PHFieldConfigv2.h</text>
</a>
</g>
</g>
<!-- Node1&#45;&gt;Node2 -->
<g id="edge1" class="edge">
<title>Node1&#45;&gt;Node2</title>
<path fill="none" stroke="#191970" d="M146.5,-228.2882C146.5,-219.8377 146.5,-210.2557 146.5,-201.9736"/>
<polygon fill="#191970" stroke="#191970" points="150.0001,-201.7136 146.5,-191.7137 143.0001,-201.7137 150.0001,-201.7136"/>
</g>
<!-- Node6 -->
<g id="node6" class="node">
<title>Node6</title>
<polygon fill="none" stroke="#bfbfbf" points="184.5,-.5 184.5,-20.5 244.5,-20.5 244.5,-.5 184.5,-.5"/>
<text text-anchor="middle" x="214.5" y="-7.5" font-family="FreeSans" font-size="10.00" fill="#000000">iostream</text>
</g>
<!-- Node1&#45;&gt;Node6 -->
<g id="edge9" class="edge">
<title>Node1&#45;&gt;Node6</title>
<path fill="none" stroke="#191970" d="M178.1123,-228.4734C189.8232,-218.6646 202.0512,-206.1271 209.5,-192 237.7055,-138.5066 234.1162,-116.9923 226.5,-57 225.3757,-48.1436 223.0924,-38.5606 220.8165,-30.4084"/>
<polygon fill="#191970" stroke="#191970" points="224.1336,-29.2837 217.9269,-20.6972 217.4243,-31.2801 224.1336,-29.2837"/>
</g>
<!-- Node7 -->
<g id="node7" class="node">
<title>Node7</title>
<polygon fill="none" stroke="#bfbfbf" points="0,-57.5 0,-77.5 45,-77.5 45,-57.5 0,-57.5"/>
<text text-anchor="middle" x="22.5" y="-64.5" font-family="FreeSans" font-size="10.00" fill="#000000">string</text>
</g>
<!-- Node1&#45;&gt;Node7 -->
<g id="edge10" class="edge">
<title>Node1&#45;&gt;Node7</title>
<path fill="none" stroke="#191970" d="M118.2713,-228.2564C106.5373,-218.0631 93.3808,-205.2987 83.5,-192 58.5045,-158.3583 39.2907,-112.8825 29.5573,-87.2352"/>
<polygon fill="#191970" stroke="#191970" points="32.7273,-85.7159 25.9771,-77.5498 26.1615,-88.143 32.7273,-85.7159"/>
</g>
<!-- Node3 -->
<g id="node3" class="node">
<title>Node3</title>
<g id="a_node3"><a xlink:href="../../d4/de3/PHFieldConfig_8h.html" target="_top" xlink:title="PHFieldConfig.h">
<polygon fill="none" stroke="#000000" points="89,-114.5 89,-134.5 184,-134.5 184,-114.5 89,-114.5"/>
<text text-anchor="middle" x="136.5" y="-121.5" font-family="FreeSans" font-size="10.00" fill="#000000">PHFieldConfig.h</text>
</a>
</g>
</g>
<!-- Node2&#45;&gt;Node3 -->
<g id="edge2" class="edge">
<title>Node2&#45;&gt;Node3</title>
<path fill="none" stroke="#191970" d="M144.7122,-171.3095C143.4182,-163.9335 141.6263,-153.72 140.0465,-144.715"/>
<polygon fill="#191970" stroke="#191970" points="143.4477,-143.847 138.2723,-134.6022 136.553,-145.0566 143.4477,-143.847"/>
</g>
<!-- Node2&#45;&gt;Node6 -->
<g id="edge8" class="edge">
<title>Node2&#45;&gt;Node6</title>
<path fill="none" stroke="#191970" d="M160.4607,-171.2781C170.9912,-162.7789 184.8816,-149.7252 192.5,-135 209.8961,-101.3759 213.8377,-56.5462 214.5579,-30.8729"/>
<polygon fill="#191970" stroke="#191970" points="218.058,-30.8804 214.6992,-20.8321 211.0587,-30.7819 218.058,-30.8804"/>
</g>
<!-- Node4 -->
<g id="node4" class="node">
<title>Node4</title>
<g id="a_node4"><a xlink:href="../../df/d32/PHObject_8h.html" target="_top" xlink:title="phool/PHObject.h">
<polygon fill="none" stroke="#000000" points="63.5,-57.5 63.5,-77.5 167.5,-77.5 167.5,-57.5 63.5,-57.5"/>
<text text-anchor="middle" x="115.5" y="-64.5" font-family="FreeSans" font-size="10.00" fill="#000000">phool/PHObject.h</text>
</a>
</g>
</g>
<!-- Node3&#45;&gt;Node4 -->
<g id="edge3" class="edge">
<title>Node3&#45;&gt;Node4</title>
<path fill="none" stroke="#191970" d="M132.7456,-114.3095C129.9684,-106.7714 126.0993,-96.2696 122.7295,-87.123"/>
<polygon fill="#191970" stroke="#191970" points="125.9632,-85.7757 119.2219,-77.6022 119.3948,-88.1957 125.9632,-85.7757"/>
</g>
<!-- Node3&#45;&gt;Node6 -->
<g id="edge6" class="edge">
<title>Node3&#45;&gt;Node6</title>
<path fill="none" stroke="#191970" d="M146.3396,-114.2739C154.8476,-105.1607 167.2067,-91.2524 176.5,-78 187.311,-62.5834 197.6634,-43.8387 204.8249,-30.0181"/>
<polygon fill="#191970" stroke="#191970" points="208.0265,-31.4435 209.4366,-20.9429 201.786,-28.2723 208.0265,-31.4435"/>
</g>
<!-- Node3&#45;&gt;Node7 -->
<g id="edge7" class="edge">
<title>Node3&#45;&gt;Node7</title>
<path fill="none" stroke="#191970" d="M116.3815,-114.4408C98.5028,-105.5014 72.1404,-92.3202 51.8991,-82.1996"/>
<polygon fill="#191970" stroke="#191970" points="53.3104,-78.9921 42.8008,-77.6504 50.1798,-85.2531 53.3104,-78.9921"/>
</g>
<!-- Node5 -->
<g id="node5" class="node">
<title>Node5</title>
<polygon fill="none" stroke="#bfbfbf" points="83,-.5 83,-20.5 148,-20.5 148,-.5 83,-.5"/>
<text text-anchor="middle" x="115.5" y="-7.5" font-family="FreeSans" font-size="10.00" fill="#000000">TObject.h</text>
</g>
<!-- Node4&#45;&gt;Node5 -->
<g id="edge4" class="edge">
<title>Node4&#45;&gt;Node5</title>
<path fill="none" stroke="#191970" d="M115.5,-57.3095C115.5,-49.9335 115.5,-39.72 115.5,-30.715"/>
<polygon fill="#191970" stroke="#191970" points="119.0001,-30.6022 115.5,-20.6022 112.0001,-30.6023 119.0001,-30.6022"/>
</g>
<!-- Node4&#45;&gt;Node6 -->
<g id="edge5" class="edge">
<title>Node4&#45;&gt;Node6</title>
<path fill="none" stroke="#191970" d="M133.1992,-57.3095C148.4035,-48.5556 170.5494,-35.8049 187.8896,-25.8211"/>
<polygon fill="#191970" stroke="#191970" points="190.0342,-28.6251 196.954,-20.6022 186.5414,-22.5587 190.0342,-28.6251"/>
</g>
</g>
</svg>
