<?xml version="1.0" encoding="UTF-8" standalone="no"?>
<!DOCTYPE svg PUBLIC "-//W3C//DTD SVG 1.1//EN"
 "http://www.w3.org/Graphics/SVG/1.1/DTD/svg11.dtd">
<!-- Generated by graphviz version 2.40.1 (20161225.0304)
 -->
<!-- Title: analysis/blob/master/Prototype3/EMCal/EMCALmacros/DataAna2.C Pages: 1 -->
<svg width="906pt" height="110pt"
 viewBox="0.00 0.00 905.50 110.00" xmlns="http://www.w3.org/2000/svg" xmlns:xlink="http://www.w3.org/1999/xlink">
<g id="graph0" class="graph" transform="scale(1 1) rotate(0) translate(4 106)">
<title>analysis/blob/master/Prototype3/EMCal/EMCALmacros/DataAna2.C</title>
<!-- Node1 -->
<g id="node1" class="node">
<title>Node1</title>
<polygon fill="#bfbfbf" stroke="#000000" points="344.5,-57.5 344.5,-101.5 529.5,-101.5 529.5,-57.5 344.5,-57.5"/>
<text text-anchor="start" x="352.5" y="-88.5" font-family="FreeSans" font-size="10.00" fill="#000000">analysis/blob/master</text>
<text text-anchor="start" x="352.5" y="-76.5" font-family="FreeSans" font-size="10.00" fill="#000000">/Prototype3/EMCal/EMCALmacros</text>
<text text-anchor="middle" x="437" y="-64.5" font-family="FreeSans" font-size="10.00" fill="#000000">/DataAna2.C</text>
</g>
<!-- Node2 -->
<g id="node2" class="node">
<title>Node2</title>
<polygon fill="none" stroke="#bfbfbf" points="0,-.5 0,-20.5 48,-20.5 48,-.5 0,-.5"/>
<text text-anchor="middle" x="24" y="-7.5" font-family="FreeSans" font-size="10.00" fill="#000000">cmath</text>
</g>
<!-- Node1&#45;&gt;Node2 -->
<g id="edge1" class="edge">
<title>Node1&#45;&gt;Node2</title>
<path fill="none" stroke="#191970" d="M344.4749,-69.3349C269.4697,-60.154 161.0223,-44.751 57.9833,-20.9508"/>
<polygon fill="#191970" stroke="#191970" points="58.5645,-17.4923 48.03,-18.6213 56.9692,-24.3081 58.5645,-17.4923"/>
</g>
<!-- Node3 -->
<g id="node3" class="node">
<title>Node3</title>
<polygon fill="none" stroke="#bfbfbf" points="66,-.5 66,-20.5 116,-20.5 116,-.5 66,-.5"/>
<text text-anchor="middle" x="91" y="-7.5" font-family="FreeSans" font-size="10.00" fill="#000000">TFile.h</text>
</g>
<!-- Node1&#45;&gt;Node3 -->
<g id="edge2" class="edge">
<title>Node1&#45;&gt;Node3</title>
<path fill="none" stroke="#191970" d="M344.2532,-64.9648C284.4382,-54.9218 204.8685,-40.3173 126.2429,-21.1107"/>
<polygon fill="#191970" stroke="#191970" points="126.7087,-17.6207 116.1612,-18.6211 125.0305,-24.4166 126.7087,-17.6207"/>
</g>
<!-- Node4 -->
<g id="node4" class="node">
<title>Node4</title>
<polygon fill="none" stroke="#bfbfbf" points="134.5,-.5 134.5,-20.5 197.5,-20.5 197.5,-.5 134.5,-.5"/>
<text text-anchor="middle" x="166" y="-7.5" font-family="FreeSans" font-size="10.00" fill="#000000">TString.h</text>
</g>
<!-- Node1&#45;&gt;Node4 -->
<g id="edge3" class="edge">
<title>Node1&#45;&gt;Node4</title>
<path fill="none" stroke="#191970" d="M350.1638,-57.4492C309.6237,-47.1461 260.461,-34.6394 207.6792,-21.1708"/>
<polygon fill="#191970" stroke="#191970" points="208.3377,-17.7267 197.7828,-18.645 206.6066,-24.5093 208.3377,-17.7267"/>
</g>
<!-- Node5 -->
<g id="node5" class="node">
<title>Node5</title>
<polygon fill="none" stroke="#bfbfbf" points="216,-.5 216,-20.5 270,-20.5 270,-.5 216,-.5"/>
<text text-anchor="middle" x="243" y="-7.5" font-family="FreeSans" font-size="10.00" fill="#000000">TLine.h</text>
</g>
<!-- Node1&#45;&gt;Node5 -->
<g id="edge4" class="edge">
<title>Node1&#45;&gt;Node5</title>
<path fill="none" stroke="#191970" d="M375.0838,-57.4783C343.7172,-46.3221 306.694,-33.1541 279.8381,-23.6022"/>
<polygon fill="#191970" stroke="#191970" points="280.6708,-20.1837 270.0761,-20.1302 278.3251,-26.7789 280.6708,-20.1837"/>
</g>
<!-- Node6 -->
<g id="node6" class="node">
<title>Node6</title>
<polygon fill="none" stroke="#bfbfbf" points="288.5,-.5 288.5,-20.5 341.5,-20.5 341.5,-.5 288.5,-.5"/>
<text text-anchor="middle" x="315" y="-7.5" font-family="FreeSans" font-size="10.00" fill="#000000">TTree.h</text>
</g>
<!-- Node1&#45;&gt;Node6 -->
<g id="edge5" class="edge">
<title>Node1&#45;&gt;Node6</title>
<path fill="none" stroke="#191970" d="M398.063,-57.4783C379.7587,-47.1259 358.3913,-35.041 341.9123,-25.7209"/>
<polygon fill="#191970" stroke="#191970" points="343.2621,-22.4633 332.8347,-20.5869 339.816,-28.5563 343.2621,-22.4633"/>
</g>
<!-- Node7 -->
<g id="node7" class="node">
<title>Node7</title>
<polygon fill="none" stroke="#bfbfbf" points="360,-.5 360,-20.5 420,-20.5 420,-.5 360,-.5"/>
<text text-anchor="middle" x="390" y="-7.5" font-family="FreeSans" font-size="10.00" fill="#000000">TLatex.h</text>
</g>
<!-- Node1&#45;&gt;Node7 -->
<g id="edge6" class="edge">
<title>Node1&#45;&gt;Node7</title>
<path fill="none" stroke="#191970" d="M421.8702,-57.2882C415.6562,-48.1655 408.544,-37.7242 402.6171,-29.023"/>
<polygon fill="#191970" stroke="#191970" points="405.4795,-27.0081 396.9571,-20.7137 399.6941,-30.9489 405.4795,-27.0081"/>
</g>
<!-- Node8 -->
<g id="node8" class="node">
<title>Node8</title>
<polygon fill="none" stroke="#bfbfbf" points="437.5,-.5 437.5,-20.5 530.5,-20.5 530.5,-.5 437.5,-.5"/>
<text text-anchor="middle" x="484" y="-7.5" font-family="FreeSans" font-size="10.00" fill="#000000">TGraphErrors.h</text>
</g>
<!-- Node1&#45;&gt;Node8 -->
<g id="edge7" class="edge">
<title>Node1&#45;&gt;Node8</title>
<path fill="none" stroke="#191970" d="M452.1298,-57.2882C458.3438,-48.1655 465.456,-37.7242 471.3829,-29.023"/>
<polygon fill="#191970" stroke="#191970" points="474.3059,-30.9489 477.0429,-20.7137 468.5205,-27.0081 474.3059,-30.9489"/>
</g>
<!-- Node9 -->
<g id="node9" class="node">
<title>Node9</title>
<polygon fill="none" stroke="#bfbfbf" points="548.5,-.5 548.5,-20.5 601.5,-20.5 601.5,-.5 548.5,-.5"/>
<text text-anchor="middle" x="575" y="-7.5" font-family="FreeSans" font-size="10.00" fill="#000000">cassert</text>
</g>
<!-- Node1&#45;&gt;Node9 -->
<g id="edge8" class="edge">
<title>Node1&#45;&gt;Node9</title>
<path fill="none" stroke="#191970" d="M481.0435,-57.4783C502.2321,-46.884 527.0493,-34.4753 545.8556,-25.0722"/>
<polygon fill="#191970" stroke="#191970" points="547.4473,-28.1896 554.8263,-20.5869 544.3167,-21.9286 547.4473,-28.1896"/>
</g>
<!-- Node10 -->
<g id="node10" class="node">
<title>Node10</title>
<polygon fill="none" stroke="#bfbfbf" points="620,-.5 620,-20.5 680,-20.5 680,-.5 620,-.5"/>
<text text-anchor="middle" x="650" y="-7.5" font-family="FreeSans" font-size="10.00" fill="#000000">iostream</text>
</g>
<!-- Node1&#45;&gt;Node10 -->
<g id="edge9" class="edge">
<title>Node1&#45;&gt;Node10</title>
<path fill="none" stroke="#191970" d="M504.9802,-57.4783C539.7645,-46.2101 580.8847,-32.8895 610.4387,-23.3156"/>
<polygon fill="#191970" stroke="#191970" points="611.5575,-26.6324 619.9921,-20.2209 609.4002,-19.9731 611.5575,-26.6324"/>
</g>
<!-- Node11 -->
<g id="node11" class="node">
<title>Node11</title>
<polygon fill="none" stroke="#bfbfbf" points="698.5,-.5 698.5,-20.5 753.5,-20.5 753.5,-.5 698.5,-.5"/>
<text text-anchor="middle" x="726" y="-7.5" font-family="FreeSans" font-size="10.00" fill="#000000">fstream</text>
</g>
<!-- Node1&#45;&gt;Node11 -->
<g id="edge10" class="edge">
<title>Node1&#45;&gt;Node11</title>
<path fill="none" stroke="#191970" d="M529.7186,-59.1044C574.9275,-48.8894 630.2888,-35.9839 688.425,-21.0668"/>
<polygon fill="#191970" stroke="#191970" points="689.3496,-24.4429 698.1589,-18.5569 687.6017,-17.6646 689.3496,-24.4429"/>
</g>
<!-- Node12 -->
<g id="node12" class="node">
<title>Node12</title>
<polygon fill="none" stroke="#bfbfbf" points="772,-.5 772,-20.5 832,-20.5 832,-.5 772,-.5"/>
<text text-anchor="middle" x="802" y="-7.5" font-family="FreeSans" font-size="10.00" fill="#000000">TROOT.h</text>
</g>
<!-- Node1&#45;&gt;Node12 -->
<g id="edge11" class="edge">
<title>Node1&#45;&gt;Node12</title>
<path fill="none" stroke="#191970" d="M529.8127,-65.0126C592.7827,-54.6757 678.0751,-39.6894 761.8831,-21.1186"/>
<polygon fill="#191970" stroke="#191970" points="762.8335,-24.4926 771.8295,-18.8959 761.3068,-17.6611 762.8335,-24.4926"/>
</g>
<!-- Node13 -->
<g id="node13" class="node">
<title>Node13</title>
<polygon fill="none" stroke="#bfbfbf" points="850.5,-.5 850.5,-20.5 897.5,-20.5 897.5,-.5 850.5,-.5"/>
<text text-anchor="middle" x="874" y="-7.5" font-family="FreeSans" font-size="10.00" fill="#000000">TH1.h</text>
</g>
<!-- Node1&#45;&gt;Node13 -->
<g id="edge12" class="edge">
<title>Node1&#45;&gt;Node13</title>
<path fill="none" stroke="#191970" d="M529.6564,-70.462C609.7281,-61.6457 728.5381,-46.1586 840.5596,-20.7859"/>
<polygon fill="#191970" stroke="#191970" points="841.3723,-24.1905 850.336,-18.5422 839.8064,-17.3679 841.3723,-24.1905"/>
</g>
</g>
</svg>
