<?xml version="1.0" encoding="UTF-8" standalone="no"?>
<!DOCTYPE svg PUBLIC "-//W3C//DTD SVG 1.1//EN"
 "http://www.w3.org/Graphics/SVG/1.1/DTD/svg11.dtd">
<!-- Generated by graphviz version 2.40.1 (20161225.0304)
 -->
<!-- Title: PHParameters::SaveToNodeTree Pages: 1 -->
<svg width="380pt" height="131pt"
 viewBox="0.00 0.00 380.00 131.00" xmlns="http://www.w3.org/2000/svg" xmlns:xlink="http://www.w3.org/1999/xlink">
<g id="graph0" class="graph" transform="scale(1 1) rotate(0) translate(4 127)">
<title>PHParameters::SaveToNodeTree</title>
<!-- Node1 -->
<g id="node1" class="node">
<title>Node1</title>
<polygon fill="#bfbfbf" stroke="#000000" points="0,-45.5 0,-65.5 177,-65.5 177,-45.5 0,-45.5"/>
<text text-anchor="middle" x="88.5" y="-52.5" font-family="FreeSans" font-size="10.00" fill="#000000">PHParameters::SaveToNodeTree</text>
</g>
<!-- Node2 -->
<g id="node2" class="node">
<title>Node2</title>
<g id="a_node2"><a xlink:href="../../d4/d7d/classPdbParameterMapContainer.html#a0e5436b10b4e13f2575b80553dc8beba" target="_top" xlink:title="PdbParameterMapContainer\l::AddPdbParameterMap">
<polygon fill="none" stroke="#000000" points="213,-90.5 213,-122.5 372,-122.5 372,-90.5 213,-90.5"/>
<text text-anchor="start" x="221" y="-109.5" font-family="FreeSans" font-size="10.00" fill="#000000">PdbParameterMapContainer</text>
<text text-anchor="middle" x="292.5" y="-97.5" font-family="FreeSans" font-size="10.00" fill="#000000">::AddPdbParameterMap</text>
</a>
</g>
</g>
<!-- Node1&#45;&gt;Node2 -->
<g id="edge1" class="edge">
<title>Node1&#45;&gt;Node2</title>
<path fill="none" stroke="#191970" d="M128.8038,-65.576C154.2588,-71.9397 187.9253,-80.3563 218.1051,-87.9013"/>
<polygon fill="#191970" stroke="#191970" points="217.6391,-91.3924 228.1894,-90.4223 219.3369,-84.6014 217.6391,-91.3924"/>
</g>
<!-- Node3 -->
<g id="node3" class="node">
<title>Node3</title>
<g id="a_node3"><a xlink:href="../../d4/d7d/classPdbParameterMapContainer.html#a5440fb6f4205048bac3789b112e7658f" target="_top" xlink:title="PdbParameterMapContainer\l::GetParametersToModify">
<polygon fill="none" stroke="#000000" points="213,-39.5 213,-71.5 372,-71.5 372,-39.5 213,-39.5"/>
<text text-anchor="start" x="221" y="-58.5" font-family="FreeSans" font-size="10.00" fill="#000000">PdbParameterMapContainer</text>
<text text-anchor="middle" x="292.5" y="-46.5" font-family="FreeSans" font-size="10.00" fill="#000000">::GetParametersToModify</text>
</a>
</g>
</g>
<!-- Node1&#45;&gt;Node3 -->
<g id="edge2" class="edge">
<title>Node1&#45;&gt;Node3</title>
<path fill="none" stroke="#191970" d="M177.0874,-55.5C185.666,-55.5 194.3734,-55.5 202.9613,-55.5"/>
<polygon fill="#191970" stroke="#191970" points="202.9728,-59.0001 212.9728,-55.5 202.9727,-52.0001 202.9728,-59.0001"/>
</g>
<!-- Node4 -->
<g id="node4" class="node">
<title>Node4</title>
<g id="a_node4"><a xlink:href="../../d8/d21/classPdbParameterMap.html#a3926d31279e7d79bdc252d18c1207a2a" target="_top" xlink:title="Clear Event.">
<polygon fill="none" stroke="#000000" points="220.5,-.5 220.5,-20.5 364.5,-20.5 364.5,-.5 220.5,-.5"/>
<text text-anchor="middle" x="292.5" y="-7.5" font-family="FreeSans" font-size="10.00" fill="#000000">PdbParameterMap::Reset</text>
</a>
</g>
</g>
<!-- Node1&#45;&gt;Node4 -->
<g id="edge3" class="edge">
<title>Node1&#45;&gt;Node4</title>
<path fill="none" stroke="#191970" d="M134.0277,-45.4571C164.5701,-38.7198 204.977,-29.8065 237.3444,-22.6667"/>
<polygon fill="#191970" stroke="#191970" points="238.1002,-26.0842 247.1115,-20.5122 236.5923,-19.2485 238.1002,-26.0842"/>
</g>
</g>
</svg>
