<?xml version="1.0" encoding="UTF-8" standalone="no"?>
<!DOCTYPE svg PUBLIC "-//W3C//DTD SVG 1.1//EN"
 "http://www.w3.org/Graphics/SVG/1.1/DTD/svg11.dtd">
<!-- Generated by graphviz version 2.40.1 (20161225.0304)
 -->
<!-- Title: coresoftware/blob/master/simulation/g4simulation/g4jets/TruthJetInput.h Pages: 1 -->
<svg width="648pt" height="215pt"
 viewBox="0.00 0.00 647.50 215.00" xmlns="http://www.w3.org/2000/svg" xmlns:xlink="http://www.w3.org/1999/xlink">
<g id="graph0" class="graph" transform="scale(1 1) rotate(0) translate(4 211)">
<title>coresoftware/blob/master/simulation/g4simulation/g4jets/TruthJetInput.h</title>
<!-- Node1 -->
<g id="node1" class="node">
<title>Node1</title>
<polygon fill="#bfbfbf" stroke="#000000" points="165,-162.5 165,-206.5 311,-206.5 311,-162.5 165,-162.5"/>
<text text-anchor="start" x="173" y="-193.5" font-family="FreeSans" font-size="10.00" fill="#000000">coresoftware/blob/master</text>
<text text-anchor="start" x="173" y="-181.5" font-family="FreeSans" font-size="10.00" fill="#000000">/simulation/g4simulation</text>
<text text-anchor="middle" x="238" y="-169.5" font-family="FreeSans" font-size="10.00" fill="#000000">/g4jets/TruthJetInput.h</text>
</g>
<!-- Node2 -->
<g id="node2" class="node">
<title>Node2</title>
<g id="a_node2"><a xlink:href="../../d6/dbb/TruthJetInput_8cc.html" target="_top" xlink:title="coresoftware/blob/master\l/simulation/g4simulation\l/g4jets/TruthJetInput.cc">
<polygon fill="none" stroke="#000000" points="8,-81.5 8,-125.5 154,-125.5 154,-81.5 8,-81.5"/>
<text text-anchor="start" x="16" y="-112.5" font-family="FreeSans" font-size="10.00" fill="#000000">coresoftware/blob/master</text>
<text text-anchor="start" x="16" y="-100.5" font-family="FreeSans" font-size="10.00" fill="#000000">/simulation/g4simulation</text>
<text text-anchor="middle" x="81" y="-88.5" font-family="FreeSans" font-size="10.00" fill="#000000">/g4jets/TruthJetInput.cc</text>
</a>
</g>
</g>
<!-- Node1&#45;&gt;Node2 -->
<g id="edge1" class="edge">
<title>Node1&#45;&gt;Node2</title>
<path fill="none" stroke="#191970" d="M186.0411,-157.6932C165.8719,-147.2874 143.0533,-135.5148 123.8491,-125.6068"/>
<polygon fill="#191970" stroke="#191970" points="184.6073,-160.8918 195.0991,-162.3664 187.8169,-154.6709 184.6073,-160.8918"/>
</g>
<!-- Node3 -->
<g id="node3" class="node">
<title>Node3</title>
<g id="a_node3"><a xlink:href="../../de/d5d/macros_2blob_2master_2macros_2g4simulations_2G4__Jets_8C.html" target="_top" xlink:title="macros/blob/master\l/macros/g4simulations\l/G4_Jets.C">
<polygon fill="none" stroke="#000000" points="322,-81.5 322,-125.5 454,-125.5 454,-81.5 322,-81.5"/>
<text text-anchor="start" x="330" y="-112.5" font-family="FreeSans" font-size="10.00" fill="#000000">macros/blob/master</text>
<text text-anchor="start" x="330" y="-100.5" font-family="FreeSans" font-size="10.00" fill="#000000">/macros/g4simulations</text>
<text text-anchor="middle" x="388" y="-88.5" font-family="FreeSans" font-size="10.00" fill="#000000">/G4_Jets.C</text>
</a>
</g>
</g>
<!-- Node1&#45;&gt;Node3 -->
<g id="edge2" class="edge">
<title>Node1&#45;&gt;Node3</title>
<path fill="none" stroke="#191970" d="M287.9028,-157.5525C307.1085,-147.1814 328.7961,-135.4701 347.0614,-125.6068"/>
<polygon fill="#191970" stroke="#191970" points="286.1242,-154.5352 278.9882,-162.3664 289.4503,-160.6945 286.1242,-154.5352"/>
</g>
<!-- Node8 -->
<g id="node8" class="node">
<title>Node8</title>
<g id="a_node8"><a xlink:href="../../de/da2/macros_2blob_2master_2macros_2g4simulations_2G4__HIJetReco_8C.html" target="_top" xlink:title="macros/blob/master\l/macros/g4simulations\l/G4_HIJetReco.C">
<polygon fill="none" stroke="#000000" points="172,-81.5 172,-125.5 304,-125.5 304,-81.5 172,-81.5"/>
<text text-anchor="start" x="180" y="-112.5" font-family="FreeSans" font-size="10.00" fill="#000000">macros/blob/master</text>
<text text-anchor="start" x="180" y="-100.5" font-family="FreeSans" font-size="10.00" fill="#000000">/macros/g4simulations</text>
<text text-anchor="middle" x="238" y="-88.5" font-family="FreeSans" font-size="10.00" fill="#000000">/G4_HIJetReco.C</text>
</a>
</g>
</g>
<!-- Node1&#45;&gt;Node8 -->
<g id="edge7" class="edge">
<title>Node1&#45;&gt;Node8</title>
<path fill="none" stroke="#191970" d="M238,-152.2457C238,-143.3118 238,-133.8188 238,-125.6068"/>
<polygon fill="#191970" stroke="#191970" points="234.5001,-152.3664 238,-162.3664 241.5001,-152.3664 234.5001,-152.3664"/>
</g>
<!-- Node4 -->
<g id="node4" class="node">
<title>Node4</title>
<g id="a_node4"><a xlink:href="../../da/d02/Fun4All__G4__EICDetector_8C.html" target="_top" xlink:title="macros/blob/master\l/macros/g4simulations\l/Fun4All_G4_EICDetector.C">
<polygon fill="none" stroke="#000000" points="0,-.5 0,-44.5 152,-44.5 152,-.5 0,-.5"/>
<text text-anchor="start" x="8" y="-31.5" font-family="FreeSans" font-size="10.00" fill="#000000">macros/blob/master</text>
<text text-anchor="start" x="8" y="-19.5" font-family="FreeSans" font-size="10.00" fill="#000000">/macros/g4simulations</text>
<text text-anchor="middle" x="76" y="-7.5" font-family="FreeSans" font-size="10.00" fill="#000000">/Fun4All_G4_EICDetector.C</text>
</a>
</g>
</g>
<!-- Node3&#45;&gt;Node4 -->
<g id="edge3" class="edge">
<title>Node3&#45;&gt;Node4</title>
<path fill="none" stroke="#191970" d="M311.9263,-80.7767C244.2628,-62.8841 225.315,-61.1256 161,-45 158.1867,-44.2946 155.3228,-43.57 152.4312,-42.8329"/>
<polygon fill="#191970" stroke="#191970" points="311.2428,-84.2166 321.807,-83.4116 313.0465,-77.453 311.2428,-84.2166"/>
</g>
<!-- Node5 -->
<g id="node5" class="node">
<title>Node5</title>
<g id="a_node5"><a xlink:href="../../d7/d9e/Fun4All__G4__fsPHENIX_8C.html" target="_top" xlink:title="macros/blob/master\l/macros/g4simulations\l/Fun4All_G4_fsPHENIX.C">
<polygon fill="none" stroke="#000000" points="500.5,-.5 500.5,-44.5 639.5,-44.5 639.5,-.5 500.5,-.5"/>
<text text-anchor="start" x="508.5" y="-31.5" font-family="FreeSans" font-size="10.00" fill="#000000">macros/blob/master</text>
<text text-anchor="start" x="508.5" y="-19.5" font-family="FreeSans" font-size="10.00" fill="#000000">/macros/g4simulations</text>
<text text-anchor="middle" x="570" y="-7.5" font-family="FreeSans" font-size="10.00" fill="#000000">/Fun4All_G4_fsPHENIX.C</text>
</a>
</g>
</g>
<!-- Node3&#45;&gt;Node5 -->
<g id="edge4" class="edge">
<title>Node3&#45;&gt;Node5</title>
<path fill="none" stroke="#191970" d="M446.9718,-77.2543C470.6589,-66.7123 497.6645,-54.6933 520.3278,-44.6068"/>
<polygon fill="#191970" stroke="#191970" points="445.4452,-74.1027 437.7323,-81.3664 448.2915,-80.4979 445.4452,-74.1027"/>
</g>
<!-- Node6 -->
<g id="node6" class="node">
<title>Node6</title>
<g id="a_node6"><a xlink:href="../../d5/d2c/macros_2blob_2master_2macros_2g4simulations_2Fun4All__G4__sPHENIX_8C.html" target="_top" xlink:title="macros/blob/master\l/macros/g4simulations\l/Fun4All_G4_sPHENIX.C">
<polygon fill="none" stroke="#000000" points="170.5,-.5 170.5,-44.5 305.5,-44.5 305.5,-.5 170.5,-.5"/>
<text text-anchor="start" x="178.5" y="-31.5" font-family="FreeSans" font-size="10.00" fill="#000000">macros/blob/master</text>
<text text-anchor="start" x="178.5" y="-19.5" font-family="FreeSans" font-size="10.00" fill="#000000">/macros/g4simulations</text>
<text text-anchor="middle" x="238" y="-7.5" font-family="FreeSans" font-size="10.00" fill="#000000">/Fun4All_G4_sPHENIX.C</text>
</a>
</g>
</g>
<!-- Node3&#45;&gt;Node6 -->
<g id="edge5" class="edge">
<title>Node3&#45;&gt;Node6</title>
<path fill="none" stroke="#191970" d="M338.0972,-76.5525C318.8915,-66.1814 297.2039,-54.4701 278.9386,-44.6068"/>
<polygon fill="#191970" stroke="#191970" points="336.5497,-79.6945 347.0118,-81.3664 339.8758,-73.5352 336.5497,-79.6945"/>
</g>
<!-- Node7 -->
<g id="node7" class="node">
<title>Node7</title>
<g id="a_node7"><a xlink:href="../../de/da9/ReadClustersRunTracking_8C.html" target="_top" xlink:title="macros/blob/master\l/macros/g4simulations\l/ReadClustersRunTracking.C">
<polygon fill="none" stroke="#000000" points="323.5,-.5 323.5,-44.5 482.5,-44.5 482.5,-.5 323.5,-.5"/>
<text text-anchor="start" x="331.5" y="-31.5" font-family="FreeSans" font-size="10.00" fill="#000000">macros/blob/master</text>
<text text-anchor="start" x="331.5" y="-19.5" font-family="FreeSans" font-size="10.00" fill="#000000">/macros/g4simulations</text>
<text text-anchor="middle" x="403" y="-7.5" font-family="FreeSans" font-size="10.00" fill="#000000">/ReadClustersRunTracking.C</text>
</a>
</g>
</g>
<!-- Node3&#45;&gt;Node7 -->
<g id="edge6" class="edge">
<title>Node3&#45;&gt;Node7</title>
<path fill="none" stroke="#191970" d="M393.973,-71.2457C395.6275,-62.3118 397.3854,-52.8188 398.9061,-44.6068"/>
<polygon fill="#191970" stroke="#191970" points="390.4783,-70.8962 392.0988,-81.3664 397.3613,-72.1709 390.4783,-70.8962"/>
</g>
<!-- Node8&#45;&gt;Node4 -->
<g id="edge8" class="edge">
<title>Node8&#45;&gt;Node4</title>
<path fill="none" stroke="#191970" d="M184.6674,-76.8337C163.787,-66.3935 140.1188,-54.5594 120.2137,-44.6068"/>
<polygon fill="#191970" stroke="#191970" points="183.2232,-80.0247 193.7328,-81.3664 186.3538,-73.7637 183.2232,-80.0247"/>
</g>
<!-- Node8&#45;&gt;Node6 -->
<g id="edge9" class="edge">
<title>Node8&#45;&gt;Node6</title>
<path fill="none" stroke="#191970" d="M238,-71.2457C238,-62.3118 238,-52.8188 238,-44.6068"/>
<polygon fill="#191970" stroke="#191970" points="234.5001,-71.3664 238,-81.3664 241.5001,-71.3664 234.5001,-71.3664"/>
</g>
<!-- Node8&#45;&gt;Node7 -->
<g id="edge10" class="edge">
<title>Node8&#45;&gt;Node7</title>
<path fill="none" stroke="#191970" d="M292.3202,-76.8337C313.5873,-66.3935 337.6938,-54.5594 357.9675,-44.6068"/>
<polygon fill="#191970" stroke="#191970" points="290.5213,-73.8178 283.087,-81.3664 293.606,-80.1014 290.5213,-73.8178"/>
</g>
</g>
</svg>
