<?xml version="1.0" encoding="UTF-8" standalone="no"?>
<!DOCTYPE svg PUBLIC "-//W3C//DTD SVG 1.1//EN"
 "http://www.w3.org/Graphics/SVG/1.1/DTD/svg11.dtd">
<!-- Generated by graphviz version 2.40.1 (20161225.0304)
 -->
<!-- Title: online_distribution/blob/master/newbasic/oncsSub_iduppetdata.h Pages: 1 -->
<svg width="302pt" height="215pt"
 viewBox="0.00 0.00 302.00 215.00" xmlns="http://www.w3.org/2000/svg" xmlns:xlink="http://www.w3.org/1999/xlink">
<g id="graph0" class="graph" transform="scale(1 1) rotate(0) translate(4 211)">
<title>online_distribution/blob/master/newbasic/oncsSub_iduppetdata.h</title>
<!-- Node1 -->
<g id="node1" class="node">
<title>Node1</title>
<polygon fill="#bfbfbf" stroke="#000000" points="74.5,-162.5 74.5,-206.5 213.5,-206.5 213.5,-162.5 74.5,-162.5"/>
<text text-anchor="start" x="82.5" y="-193.5" font-family="FreeSans" font-size="10.00" fill="#000000">online_distribution</text>
<text text-anchor="start" x="82.5" y="-181.5" font-family="FreeSans" font-size="10.00" fill="#000000">/blob/master/newbasic</text>
<text text-anchor="middle" x="144" y="-169.5" font-family="FreeSans" font-size="10.00" fill="#000000">/oncsSub_iduppetdata.h</text>
</g>
<!-- Node2 -->
<g id="node2" class="node">
<title>Node2</title>
<g id="a_node2"><a xlink:href="../../d1/da7/oncsCollection_8h.html" target="_top" xlink:title="online_distribution\l/blob/master/newbasic\l/oncsCollection.h">
<polygon fill="none" stroke="#000000" points="0,-81.5 0,-125.5 132,-125.5 132,-81.5 0,-81.5"/>
<text text-anchor="start" x="8" y="-112.5" font-family="FreeSans" font-size="10.00" fill="#000000">online_distribution</text>
<text text-anchor="start" x="8" y="-100.5" font-family="FreeSans" font-size="10.00" fill="#000000">/blob/master/newbasic</text>
<text text-anchor="middle" x="66" y="-88.5" font-family="FreeSans" font-size="10.00" fill="#000000">/oncsCollection.h</text>
</a>
</g>
</g>
<!-- Node1&#45;&gt;Node2 -->
<g id="edge1" class="edge">
<title>Node1&#45;&gt;Node2</title>
<path fill="none" stroke="#191970" d="M115.7243,-155.1368C106.3391,-145.3906 96.0554,-134.7114 87.2881,-125.6068"/>
<polygon fill="#191970" stroke="#191970" points="113.2286,-157.5909 122.6862,-162.3664 118.2708,-152.7354 113.2286,-157.5909"/>
</g>
<!-- Node4 -->
<g id="node4" class="node">
<title>Node4</title>
<g id="a_node4"><a xlink:href="../../d7/dfd/oncsSub__iduppetdata_8cc.html" target="_top" xlink:title="online_distribution\l/blob/master/newbasic\l/oncsSub_iduppetdata.cc">
<polygon fill="none" stroke="#000000" points="150,-81.5 150,-125.5 294,-125.5 294,-81.5 150,-81.5"/>
<text text-anchor="start" x="158" y="-112.5" font-family="FreeSans" font-size="10.00" fill="#000000">online_distribution</text>
<text text-anchor="start" x="158" y="-100.5" font-family="FreeSans" font-size="10.00" fill="#000000">/blob/master/newbasic</text>
<text text-anchor="middle" x="222" y="-88.5" font-family="FreeSans" font-size="10.00" fill="#000000">/oncsSub_iduppetdata.cc</text>
</a>
</g>
</g>
<!-- Node1&#45;&gt;Node4 -->
<g id="edge3" class="edge">
<title>Node1&#45;&gt;Node4</title>
<path fill="none" stroke="#191970" d="M172.2757,-155.1368C181.6609,-145.3906 191.9446,-134.7114 200.7119,-125.6068"/>
<polygon fill="#191970" stroke="#191970" points="169.7292,-152.7354 165.3138,-162.3664 174.7714,-157.5909 169.7292,-152.7354"/>
</g>
<!-- Node3 -->
<g id="node3" class="node">
<title>Node3</title>
<g id="a_node3"><a xlink:href="../../dd/d47/oncsEvent_8cc.html" target="_top" xlink:title="online_distribution\l/blob/master/newbasic\l/oncsEvent.cc">
<polygon fill="none" stroke="#000000" points="0,-.5 0,-44.5 132,-44.5 132,-.5 0,-.5"/>
<text text-anchor="start" x="8" y="-31.5" font-family="FreeSans" font-size="10.00" fill="#000000">online_distribution</text>
<text text-anchor="start" x="8" y="-19.5" font-family="FreeSans" font-size="10.00" fill="#000000">/blob/master/newbasic</text>
<text text-anchor="middle" x="66" y="-7.5" font-family="FreeSans" font-size="10.00" fill="#000000">/oncsEvent.cc</text>
</a>
</g>
</g>
<!-- Node2&#45;&gt;Node3 -->
<g id="edge2" class="edge">
<title>Node2&#45;&gt;Node3</title>
<path fill="none" stroke="#191970" d="M66,-71.2457C66,-62.3118 66,-52.8188 66,-44.6068"/>
<polygon fill="#191970" stroke="#191970" points="62.5001,-71.3664 66,-81.3664 69.5001,-71.3664 62.5001,-71.3664"/>
</g>
</g>
</svg>
