<?xml version="1.0" encoding="UTF-8" standalone="no"?>
<!DOCTYPE svg PUBLIC "-//W3C//DTD SVG 1.1//EN"
 "http://www.w3.org/Graphics/SVG/1.1/DTD/svg11.dtd">
<!-- Generated by graphviz version 2.40.1 (20161225.0304)
 -->
<!-- Title: coresoftware/blob/master/simulation/g4simulation/g4histos/G4RootScintillatorTowerContainer.h Pages: 1 -->
<svg width="196pt" height="179pt"
 viewBox="0.00 0.00 196.00 179.00" xmlns="http://www.w3.org/2000/svg" xmlns:xlink="http://www.w3.org/1999/xlink">
<g id="graph0" class="graph" transform="scale(1 1) rotate(0) translate(4 175)">
<title>coresoftware/blob/master/simulation/g4simulation/g4histos/G4RootScintillatorTowerContainer.h</title>
<!-- Node1 -->
<g id="node1" class="node">
<title>Node1</title>
<polygon fill="#bfbfbf" stroke="#000000" points="0,-114.5 0,-170.5 188,-170.5 188,-114.5 0,-114.5"/>
<text text-anchor="start" x="8" y="-157.5" font-family="FreeSans" font-size="10.00" fill="#000000">coresoftware/blob/master</text>
<text text-anchor="start" x="8" y="-145.5" font-family="FreeSans" font-size="10.00" fill="#000000">/simulation/g4simulation</text>
<text text-anchor="start" x="8" y="-133.5" font-family="FreeSans" font-size="10.00" fill="#000000">/g4histos/G4RootScintillatorTower</text>
<text text-anchor="middle" x="94" y="-121.5" font-family="FreeSans" font-size="10.00" fill="#000000">Container.h</text>
</g>
<!-- Node2 -->
<g id="node2" class="node">
<title>Node2</title>
<g id="a_node2"><a xlink:href="../../df/d32/PHObject_8h.html" target="_top" xlink:title="phool/PHObject.h">
<polygon fill="none" stroke="#000000" points="2,-57.5 2,-77.5 106,-77.5 106,-57.5 2,-57.5"/>
<text text-anchor="middle" x="54" y="-64.5" font-family="FreeSans" font-size="10.00" fill="#000000">phool/PHObject.h</text>
</a>
</g>
</g>
<!-- Node1&#45;&gt;Node2 -->
<g id="edge1" class="edge">
<title>Node1&#45;&gt;Node2</title>
<path fill="none" stroke="#191970" d="M78.8777,-114.1457C73.9801,-104.9627 68.6669,-95.0004 64.213,-86.6494"/>
<polygon fill="#191970" stroke="#191970" points="67.2499,-84.906 59.4558,-77.7296 61.0735,-88.2002 67.2499,-84.906"/>
</g>
<!-- Node4 -->
<g id="node4" class="node">
<title>Node4</title>
<polygon fill="none" stroke="#bfbfbf" points="104,-.5 104,-20.5 164,-20.5 164,-.5 104,-.5"/>
<text text-anchor="middle" x="134" y="-7.5" font-family="FreeSans" font-size="10.00" fill="#000000">iostream</text>
</g>
<!-- Node1&#45;&gt;Node4 -->
<g id="edge4" class="edge">
<title>Node1&#45;&gt;Node4</title>
<path fill="none" stroke="#191970" d="M103.4476,-114.3208C107.1525,-103.0569 111.3758,-89.9454 115,-78 119.8528,-62.0052 124.9654,-43.7516 128.6633,-30.2627"/>
<polygon fill="#191970" stroke="#191970" points="132.0439,-31.1688 131.2936,-20.6006 125.2897,-29.33 132.0439,-31.1688"/>
</g>
<!-- Node3 -->
<g id="node3" class="node">
<title>Node3</title>
<polygon fill="none" stroke="#bfbfbf" points="20.5,-.5 20.5,-20.5 85.5,-20.5 85.5,-.5 20.5,-.5"/>
<text text-anchor="middle" x="53" y="-7.5" font-family="FreeSans" font-size="10.00" fill="#000000">TObject.h</text>
</g>
<!-- Node2&#45;&gt;Node3 -->
<g id="edge2" class="edge">
<title>Node2&#45;&gt;Node3</title>
<path fill="none" stroke="#191970" d="M53.8212,-57.3095C53.6918,-49.9335 53.5126,-39.72 53.3546,-30.715"/>
<polygon fill="#191970" stroke="#191970" points="56.8522,-30.5393 53.1772,-20.6022 49.8533,-30.6621 56.8522,-30.5393"/>
</g>
<!-- Node2&#45;&gt;Node4 -->
<g id="edge3" class="edge">
<title>Node2&#45;&gt;Node4</title>
<path fill="none" stroke="#191970" d="M68.3024,-57.3095C80.2474,-48.7987 97.4945,-36.5102 111.3202,-26.6594"/>
<polygon fill="#191970" stroke="#191970" points="113.7082,-29.2555 119.8214,-20.6022 109.6462,-23.5545 113.7082,-29.2555"/>
</g>
</g>
</svg>
