<?xml version="1.0" encoding="UTF-8" standalone="no"?>
<!DOCTYPE svg PUBLIC "-//W3C//DTD SVG 1.1//EN"
 "http://www.w3.org/Graphics/SVG/1.1/DTD/svg11.dtd">
<!-- Generated by graphviz version 2.40.1 (20161225.0304)
 -->
<!-- Title: PHG4CylinderGeom_Spacalv2::get_sec_azimuthal_width Pages: 1 -->
<svg width="581pt" height="92pt"
 viewBox="0.00 0.00 581.00 92.00" xmlns="http://www.w3.org/2000/svg" xmlns:xlink="http://www.w3.org/1999/xlink">
<g id="graph0" class="graph" transform="scale(1 1) rotate(0) translate(4 88)">
<title>PHG4CylinderGeom_Spacalv2::get_sec_azimuthal_width</title>
<!-- Node1 -->
<g id="node1" class="node">
<title>Node1</title>
<polygon fill="#bfbfbf" stroke="#000000" points="0,-25.5 0,-57.5 167,-57.5 167,-25.5 0,-25.5"/>
<text text-anchor="start" x="8" y="-44.5" font-family="FreeSans" font-size="10.00" fill="#000000">PHG4CylinderGeom_Spacalv2</text>
<text text-anchor="middle" x="83.5" y="-32.5" font-family="FreeSans" font-size="10.00" fill="#000000">::get_sec_azimuthal_width</text>
</g>
<!-- Node2 -->
<g id="node2" class="node">
<title>Node2</title>
<g id="a_node2"><a xlink:href="../../db/d5f/classPHG4CylinderGeom__Spacalv2.html#a096b88168e61feeef81052561ce66420" target="_top" xlink:title="PHG4CylinderGeom_Spacalv2\l::get_block_width">
<polygon fill="none" stroke="#000000" points="203,-51.5 203,-83.5 370,-83.5 370,-51.5 203,-51.5"/>
<text text-anchor="start" x="211" y="-70.5" font-family="FreeSans" font-size="10.00" fill="#000000">PHG4CylinderGeom_Spacalv2</text>
<text text-anchor="middle" x="286.5" y="-58.5" font-family="FreeSans" font-size="10.00" fill="#000000">::get_block_width</text>
</a>
</g>
</g>
<!-- Node1&#45;&gt;Node2 -->
<g id="edge1" class="edge">
<title>Node1&#45;&gt;Node2</title>
<path fill="none" stroke="#191970" d="M177.2558,-53.5081C185.8295,-54.6062 194.4773,-55.7138 202.9526,-56.7993"/>
<polygon fill="#191970" stroke="#191970" points="177.6035,-50.0242 167.2399,-52.2253 176.7142,-56.9674 177.6035,-50.0242"/>
</g>
<!-- Node4 -->
<g id="node4" class="node">
<title>Node4</title>
<g id="a_node4"><a xlink:href="../../db/d5f/classPHG4CylinderGeom__Spacalv2.html#affbb132fed8e7a9b7e2dd3d5e038f08f" target="_top" xlink:title="PHG4CylinderGeom_Spacalv2\l::get_sec_depth">
<polygon fill="none" stroke="#000000" points="203,-.5 203,-32.5 370,-32.5 370,-.5 203,-.5"/>
<text text-anchor="start" x="211" y="-19.5" font-family="FreeSans" font-size="10.00" fill="#000000">PHG4CylinderGeom_Spacalv2</text>
<text text-anchor="middle" x="286.5" y="-7.5" font-family="FreeSans" font-size="10.00" fill="#000000">::get_sec_depth</text>
</a>
</g>
</g>
<!-- Node1&#45;&gt;Node4 -->
<g id="edge3" class="edge">
<title>Node1&#45;&gt;Node4</title>
<path fill="none" stroke="#191970" d="M177.2558,-29.9537C185.8295,-28.8978 194.4773,-27.8329 202.9526,-26.7891"/>
<polygon fill="#191970" stroke="#191970" points="176.7371,-26.4911 167.2399,-31.1872 177.5927,-33.4386 176.7371,-26.4911"/>
</g>
<!-- Node3 -->
<g id="node3" class="node">
<title>Node3</title>
<g id="a_node3"><a xlink:href="../../db/d5f/classPHG4CylinderGeom__Spacalv2.html#aa7c83f9765cd39d521dfd263f730fd61" target="_top" xlink:title="PHG4CylinderGeom_Spacalv2\l::get_block_depth">
<polygon fill="none" stroke="#000000" points="406,-25.5 406,-57.5 573,-57.5 573,-25.5 406,-25.5"/>
<text text-anchor="start" x="414" y="-44.5" font-family="FreeSans" font-size="10.00" fill="#000000">PHG4CylinderGeom_Spacalv2</text>
<text text-anchor="middle" x="489.5" y="-32.5" font-family="FreeSans" font-size="10.00" fill="#000000">::get_block_depth</text>
</a>
</g>
</g>
<!-- Node2&#45;&gt;Node3 -->
<g id="edge2" class="edge">
<title>Node2&#45;&gt;Node3</title>
<path fill="none" stroke="#191970" d="M380.2558,-55.4919C388.8295,-54.3938 397.4773,-53.2862 405.9526,-52.2007"/>
<polygon fill="#191970" stroke="#191970" points="379.7142,-52.0326 370.2399,-56.7747 380.6035,-58.9758 379.7142,-52.0326"/>
</g>
<!-- Node4&#45;&gt;Node3 -->
<g id="edge4" class="edge">
<title>Node4&#45;&gt;Node3</title>
<path fill="none" stroke="#191970" d="M380.2558,-28.0463C388.8295,-29.1022 397.4773,-30.1671 405.9526,-31.2109"/>
<polygon fill="#191970" stroke="#191970" points="380.5927,-24.5614 370.2399,-26.8128 379.7371,-31.5089 380.5927,-24.5614"/>
</g>
</g>
</svg>
