<?xml version="1.0" encoding="UTF-8" standalone="no"?>
<!DOCTYPE svg PUBLIC "-//W3C//DTD SVG 1.1//EN"
 "http://www.w3.org/Graphics/SVG/1.1/DTD/svg11.dtd">
<!-- Generated by graphviz version 2.40.1 (20161225.0304)
 -->
<!-- Title: PHG4CylinderGeom_Spacalv2::get_assembly_spacing Pages: 1 -->
<svg width="614pt" height="284pt"
 viewBox="0.00 0.00 614.00 284.00" xmlns="http://www.w3.org/2000/svg" xmlns:xlink="http://www.w3.org/1999/xlink">
<g id="graph0" class="graph" transform="scale(1 1) rotate(0) translate(4 280)">
<title>PHG4CylinderGeom_Spacalv2::get_assembly_spacing</title>
<!-- Node1 -->
<g id="node1" class="node">
<title>Node1</title>
<polygon fill="#bfbfbf" stroke="#000000" points="0,-118.5 0,-150.5 167,-150.5 167,-118.5 0,-118.5"/>
<text text-anchor="start" x="8" y="-137.5" font-family="FreeSans" font-size="10.00" fill="#000000">PHG4CylinderGeom_Spacalv2</text>
<text text-anchor="middle" x="83.5" y="-125.5" font-family="FreeSans" font-size="10.00" fill="#000000">::get_assembly_spacing</text>
</g>
<!-- Node2 -->
<g id="node2" class="node">
<title>Node2</title>
<g id="a_node2"><a xlink:href="../../dc/d57/classPHG4SpacalPrototype4Detector.html#a89b6e3c050233502c4d15065661fa5b8" target="_top" xlink:title="PHG4SpacalPrototype4Detector\l::Construct_AzimuthalSeg">
<polygon fill="none" stroke="#000000" points="209.5,-243.5 209.5,-275.5 386.5,-275.5 386.5,-243.5 209.5,-243.5"/>
<text text-anchor="start" x="217.5" y="-262.5" font-family="FreeSans" font-size="10.00" fill="#000000">PHG4SpacalPrototype4Detector</text>
<text text-anchor="middle" x="298" y="-250.5" font-family="FreeSans" font-size="10.00" fill="#000000">::Construct_AzimuthalSeg</text>
</a>
</g>
</g>
<!-- Node1&#45;&gt;Node2 -->
<g id="edge1" class="edge">
<title>Node1&#45;&gt;Node2</title>
<path fill="none" stroke="#191970" d="M105.1218,-157.7895C127.5182,-180.5649 164.5677,-214.6352 203,-234.5 209.5147,-237.8673 216.5211,-240.8087 223.6703,-243.3724"/>
<polygon fill="#191970" stroke="#191970" points="107.5749,-155.2913 98.1074,-150.5354 102.5427,-160.1573 107.5749,-155.2913"/>
</g>
<!-- Node4 -->
<g id="node4" class="node">
<title>Node4</title>
<g id="a_node4"><a xlink:href="../../d3/db1/classPHG4FullProjTiltedSpacalDetector.html#af9c6be22744057cd66a40b4507b1ce4d" target="_top" xlink:title="PHG4FullProjTiltedSpacal\lDetector::Construct_AzimuthalSeg">
<polygon fill="none" stroke="#000000" points="203,-192.5 203,-224.5 393,-224.5 393,-192.5 203,-192.5"/>
<text text-anchor="start" x="211" y="-211.5" font-family="FreeSans" font-size="10.00" fill="#000000">PHG4FullProjTiltedSpacal</text>
<text text-anchor="middle" x="298" y="-199.5" font-family="FreeSans" font-size="10.00" fill="#000000">Detector::Construct_AzimuthalSeg</text>
</a>
</g>
</g>
<!-- Node1&#45;&gt;Node4 -->
<g id="edge3" class="edge">
<title>Node1&#45;&gt;Node4</title>
<path fill="none" stroke="#191970" d="M128.5934,-154.6359C150.7482,-164.104 177.9967,-175.1245 203,-183.5 212.4603,-186.669 222.5578,-189.6951 232.5072,-192.4782"/>
<polygon fill="#191970" stroke="#191970" points="129.6847,-151.295 119.1162,-150.5482 126.9123,-157.7226 129.6847,-151.295"/>
</g>
<!-- Node5 -->
<g id="node5" class="node">
<title>Node5</title>
<g id="a_node5"><a xlink:href="../../d1/d05/classPHG4FullProjSpacalDetector.html#a842872e5b3f3164b37db663ef1c86934" target="_top" xlink:title="PHG4FullProjSpacalDetector\l::Construct_AzimuthalSeg">
<polygon fill="none" stroke="#000000" points="219,-141.5 219,-173.5 377,-173.5 377,-141.5 219,-141.5"/>
<text text-anchor="start" x="227" y="-160.5" font-family="FreeSans" font-size="10.00" fill="#000000">PHG4FullProjSpacalDetector</text>
<text text-anchor="middle" x="298" y="-148.5" font-family="FreeSans" font-size="10.00" fill="#000000">::Construct_AzimuthalSeg</text>
</a>
</g>
</g>
<!-- Node1&#45;&gt;Node5 -->
<g id="edge4" class="edge">
<title>Node1&#45;&gt;Node5</title>
<path fill="none" stroke="#191970" d="M177.1223,-144.5388C191.0557,-146.0328 205.301,-147.5602 218.8969,-149.0181"/>
<polygon fill="#191970" stroke="#191970" points="177.3617,-141.0444 167.0455,-143.4583 176.6153,-148.0045 177.3617,-141.0444"/>
</g>
<!-- Node6 -->
<g id="node6" class="node">
<title>Node6</title>
<g id="a_node6"><a xlink:href="../../db/d5f/classPHG4CylinderGeom__Spacalv2.html#aa7c83f9765cd39d521dfd263f730fd61" target="_top" xlink:title="PHG4CylinderGeom_Spacalv2\l::get_block_depth">
<polygon fill="none" stroke="#000000" points="434,-74.5 434,-106.5 601,-106.5 601,-74.5 434,-74.5"/>
<text text-anchor="start" x="442" y="-93.5" font-family="FreeSans" font-size="10.00" fill="#000000">PHG4CylinderGeom_Spacalv2</text>
<text text-anchor="middle" x="517.5" y="-81.5" font-family="FreeSans" font-size="10.00" fill="#000000">::get_block_depth</text>
</a>
</g>
</g>
<!-- Node1&#45;&gt;Node6 -->
<g id="edge5" class="edge">
<title>Node1&#45;&gt;Node6</title>
<path fill="none" stroke="#191970" d="M177.2657,-124.9938C253.555,-117.2594 360.2426,-106.4432 433.708,-98.995"/>
<polygon fill="#191970" stroke="#191970" points="176.7755,-121.5255 167.1796,-126.0164 177.4816,-128.4898 176.7755,-121.5255"/>
</g>
<!-- Node7 -->
<g id="node7" class="node">
<title>Node7</title>
<g id="a_node7"><a xlink:href="../../db/d5f/classPHG4CylinderGeom__Spacalv2.html#affbb132fed8e7a9b7e2dd3d5e038f08f" target="_top" xlink:title="PHG4CylinderGeom_Spacalv2\l::get_sec_depth">
<polygon fill="none" stroke="#000000" points="214.5,-51.5 214.5,-83.5 381.5,-83.5 381.5,-51.5 214.5,-51.5"/>
<text text-anchor="start" x="222.5" y="-70.5" font-family="FreeSans" font-size="10.00" fill="#000000">PHG4CylinderGeom_Spacalv2</text>
<text text-anchor="middle" x="298" y="-58.5" font-family="FreeSans" font-size="10.00" fill="#000000">::get_sec_depth</text>
</a>
</g>
</g>
<!-- Node1&#45;&gt;Node7 -->
<g id="edge6" class="edge">
<title>Node1&#45;&gt;Node7</title>
<path fill="none" stroke="#191970" d="M144.6489,-115.3999C176.8978,-105.3268 216.0148,-93.1084 246.6698,-83.5332"/>
<polygon fill="#191970" stroke="#191970" points="143.3798,-112.1295 134.8781,-118.4518 145.4668,-118.8111 143.3798,-112.1295"/>
</g>
<!-- Node8 -->
<g id="node8" class="node">
<title>Node8</title>
<g id="a_node8"><a xlink:href="../../de/d61/classPHG4CylinderGeom__Spacalv3.html#ac4c8fad6f273cde4d51cf7bfa05b1f97" target="_top" xlink:title="get approximate radial position of tower">
<polygon fill="none" stroke="#000000" points="214.5,-.5 214.5,-32.5 381.5,-32.5 381.5,-.5 214.5,-.5"/>
<text text-anchor="start" x="222.5" y="-19.5" font-family="FreeSans" font-size="10.00" fill="#000000">PHG4CylinderGeom_Spacalv3</text>
<text text-anchor="middle" x="298" y="-7.5" font-family="FreeSans" font-size="10.00" fill="#000000">::get_tower_radial_position</text>
</a>
</g>
</g>
<!-- Node1&#45;&gt;Node8 -->
<g id="edge8" class="edge">
<title>Node1&#45;&gt;Node8</title>
<path fill="none" stroke="#191970" d="M107.2841,-111.1947C130.0702,-90.1014 166.3229,-59.641 203,-41.5 209.8791,-38.0975 217.2752,-35.1187 224.7939,-32.5198"/>
<polygon fill="#191970" stroke="#191970" points="104.692,-108.8278 99.8073,-118.2294 109.4888,-113.926 104.692,-108.8278"/>
</g>
<!-- Node3 -->
<g id="node3" class="node">
<title>Node3</title>
<g id="a_node3"><a xlink:href="../../dc/d57/classPHG4SpacalPrototype4Detector.html#aed2a21ff80c7f387832f684e8ee7ee16" target="_top" xlink:title="PHG4SpacalPrototype4Detector\l::ConstructMe">
<polygon fill="none" stroke="#000000" points="429,-243.5 429,-275.5 606,-275.5 606,-243.5 429,-243.5"/>
<text text-anchor="start" x="437" y="-262.5" font-family="FreeSans" font-size="10.00" fill="#000000">PHG4SpacalPrototype4Detector</text>
<text text-anchor="middle" x="517.5" y="-250.5" font-family="FreeSans" font-size="10.00" fill="#000000">::ConstructMe</text>
</a>
</g>
</g>
<!-- Node2&#45;&gt;Node3 -->
<g id="edge2" class="edge">
<title>Node2&#45;&gt;Node3</title>
<path fill="none" stroke="#191970" d="M396.8303,-259.5C407.5107,-259.5 418.3305,-259.5 428.8796,-259.5"/>
<polygon fill="#191970" stroke="#191970" points="396.6464,-256.0001 386.6464,-259.5 396.6463,-263.0001 396.6464,-256.0001"/>
</g>
<!-- Node7&#45;&gt;Node6 -->
<g id="edge7" class="edge">
<title>Node7&#45;&gt;Node6</title>
<path fill="none" stroke="#191970" d="M391.7084,-77.3191C405.6816,-78.7833 420.0095,-80.2846 433.7593,-81.7254"/>
<polygon fill="#191970" stroke="#191970" points="391.92,-73.8222 381.6097,-76.2609 391.1905,-80.7841 391.92,-73.8222"/>
</g>
<!-- Node9 -->
<g id="node9" class="node">
<title>Node9</title>
<g id="a_node9"><a xlink:href="../../dc/d20/classPHG4FullProjSpacalCellReco.html#a37f9ab5678a82c0a886af63ebd1d5f85" target="_top" xlink:title="module initialization">
<polygon fill="none" stroke="#000000" points="438.5,-.5 438.5,-32.5 596.5,-32.5 596.5,-.5 438.5,-.5"/>
<text text-anchor="start" x="446.5" y="-19.5" font-family="FreeSans" font-size="10.00" fill="#000000">PHG4FullProjSpacalCellReco</text>
<text text-anchor="middle" x="517.5" y="-7.5" font-family="FreeSans" font-size="10.00" fill="#000000">::InitRun</text>
</a>
</g>
</g>
<!-- Node8&#45;&gt;Node9 -->
<g id="edge9" class="edge">
<title>Node8&#45;&gt;Node9</title>
<path fill="none" stroke="#191970" d="M391.7575,-16.5C407.3163,-16.5 423.3133,-16.5 438.4614,-16.5"/>
<polygon fill="#191970" stroke="#191970" points="391.6097,-13.0001 381.6097,-16.5 391.6097,-20.0001 391.6097,-13.0001"/>
</g>
</g>
</svg>
