<?xml version="1.0" encoding="UTF-8" standalone="no"?>
<!DOCTYPE svg PUBLIC "-//W3C//DTD SVG 1.1//EN"
 "http://www.w3.org/Graphics/SVG/1.1/DTD/svg11.dtd">
<!-- Generated by graphviz version 2.40.1 (20161225.0304)
 -->
<!-- Title: ulalps Pages: 1 -->
<svg width="918pt" height="341pt"
 viewBox="0.00 0.00 918.00 341.00" xmlns="http://www.w3.org/2000/svg" xmlns:xlink="http://www.w3.org/1999/xlink">
<g id="graph0" class="graph" transform="scale(1 1) rotate(0) translate(4 337)">
<title>ulalps</title>
<!-- Node1 -->
<g id="node1" class="node">
<title>Node1</title>
<polygon fill="#bfbfbf" stroke="#000000" points="0,-165.5 0,-185.5 46,-185.5 46,-165.5 0,-165.5"/>
<text text-anchor="middle" x="23" y="-172.5" font-family="FreeSans" font-size="10.00" fill="#000000">ulalps</text>
</g>
<!-- Node2 -->
<g id="node2" class="node">
<title>Node2</title>
<g id="a_node2"><a xlink:href="../../dd/d14/luonia_8f.html#a88f68ff12848dace3953139dc10ca751" target="_top" xlink:title="luonia">
<polygon fill="none" stroke="#000000" points="88.5,-204.5 88.5,-224.5 135.5,-224.5 135.5,-204.5 88.5,-204.5"/>
<text text-anchor="middle" x="112" y="-211.5" font-family="FreeSans" font-size="10.00" fill="#000000">luonia</text>
</a>
</g>
</g>
<!-- Node1&#45;&gt;Node2 -->
<g id="edge1" class="edge">
<title>Node1&#45;&gt;Node2</title>
<path fill="none" stroke="#191970" d="M55.3941,-189.6952C66.5892,-194.6009 78.8907,-199.9914 89.158,-204.4906"/>
<polygon fill="#191970" stroke="#191970" points="56.4837,-186.3514 45.9197,-185.5435 53.6742,-192.7628 56.4837,-186.3514"/>
</g>
<!-- Node4 -->
<g id="node4" class="node">
<title>Node4</title>
<g id="a_node4"><a xlink:href="../../d7/d8c/luxjet_8f.html#a2fa56de45847b9554a86d38ee8f22cdb" target="_top" xlink:title="luxjet">
<polygon fill="none" stroke="#000000" points="89.5,-282.5 89.5,-302.5 134.5,-302.5 134.5,-282.5 89.5,-282.5"/>
<text text-anchor="middle" x="112" y="-289.5" font-family="FreeSans" font-size="10.00" fill="#000000">luxjet</text>
</a>
</g>
</g>
<!-- Node1&#45;&gt;Node4 -->
<g id="edge3" class="edge">
<title>Node1&#45;&gt;Node4</title>
<path fill="none" stroke="#191970" d="M31.382,-194.9635C41.2051,-216.1306 59.0935,-250.0687 82,-273.5 85.2754,-276.8504 89.25,-279.8861 93.2201,-282.4986"/>
<polygon fill="#191970" stroke="#191970" points="34.5113,-193.388 27.221,-185.7002 28.1259,-196.2563 34.5113,-193.388"/>
</g>
<!-- Node6 -->
<g id="node6" class="node">
<title>Node6</title>
<g id="a_node6"><a xlink:href="../../d2/db8/luxtot_8f.html#aed6d4231433f40bf5445fe3dc7b94703" target="_top" xlink:title="luxtot">
<polygon fill="none" stroke="#000000" points="89,-243.5 89,-263.5 135,-263.5 135,-243.5 89,-243.5"/>
<text text-anchor="middle" x="112" y="-250.5" font-family="FreeSans" font-size="10.00" fill="#000000">luxtot</text>
</a>
</g>
</g>
<!-- Node1&#45;&gt;Node6 -->
<g id="edge6" class="edge">
<title>Node1&#45;&gt;Node6</title>
<path fill="none" stroke="#191970" d="M38.7448,-193.2022C50.1322,-205.4985 66.2287,-221.8767 82,-234.5 85.9468,-237.659 90.4432,-240.7437 94.7321,-243.4775"/>
<polygon fill="#191970" stroke="#191970" points="41.3147,-190.826 31.9924,-185.7916 36.1405,-195.5407 41.3147,-190.826"/>
</g>
<!-- Node7 -->
<g id="node7" class="node">
<title>Node7</title>
<g id="a_node7"><a xlink:href="../../d8/db5/pyhiinre_8f.html#af650b18d891eac472b3b68edd70a0f61" target="_top" xlink:title="pyhiinre">
<polygon fill="none" stroke="#000000" points="180,-166.5 180,-186.5 237,-186.5 237,-166.5 180,-166.5"/>
<text text-anchor="middle" x="208.5" y="-173.5" font-family="FreeSans" font-size="10.00" fill="#000000">pyhiinre</text>
</a>
</g>
</g>
<!-- Node1&#45;&gt;Node7 -->
<g id="edge8" class="edge">
<title>Node1&#45;&gt;Node7</title>
<path fill="none" stroke="#191970" d="M56.3769,-175.6799C91.6202,-175.8699 146.5951,-176.1663 179.9119,-176.3459"/>
<polygon fill="#191970" stroke="#191970" points="56.1374,-172.1787 46.1186,-175.6246 56.0996,-179.1786 56.1374,-172.1787"/>
</g>
<!-- Node22 -->
<g id="node22" class="node">
<title>Node22</title>
<g id="a_node22"><a xlink:href="../../dd/dac/pyhisigh_8f.html#a17fc65c11bbc2a0a571b606acff9f09f" target="_top" xlink:title="pyhisigh">
<polygon fill="none" stroke="#000000" points="179,-127.5 179,-147.5 238,-147.5 238,-127.5 179,-127.5"/>
<text text-anchor="middle" x="208.5" y="-134.5" font-family="FreeSans" font-size="10.00" fill="#000000">pyhisigh</text>
</a>
</g>
</g>
<!-- Node1&#45;&gt;Node22 -->
<g id="edge23" class="edge">
<title>Node1&#45;&gt;Node22</title>
<path fill="none" stroke="#191970" d="M56.2829,-168.6819C91.1884,-161.5315 145.524,-150.4008 178.958,-143.5517"/>
<polygon fill="#191970" stroke="#191970" points="55.2128,-165.3284 46.1186,-170.7641 56.6176,-172.186 55.2128,-165.3284"/>
</g>
<!-- Node28 -->
<g id="node28" class="node">
<title>Node28</title>
<g id="a_node28"><a xlink:href="../../d3/d16/pyhisspa_8f.html#a5ac8143df37811155f43ea0c30e7f631" target="_top" xlink:title="pyhisspa">
<polygon fill="none" stroke="#000000" points="178,-.5 178,-20.5 239,-20.5 239,-.5 178,-.5"/>
<text text-anchor="middle" x="208.5" y="-7.5" font-family="FreeSans" font-size="10.00" fill="#000000">pyhisspa</text>
</a>
</g>
</g>
<!-- Node1&#45;&gt;Node28 -->
<g id="edge35" class="edge">
<title>Node1&#45;&gt;Node28</title>
<path fill="none" stroke="#191970" d="M31.1187,-155.9261C40.7114,-134.7044 58.3991,-100.877 82,-78.5 110.8595,-51.1371 152.8631,-31.4742 180.4291,-20.5383"/>
<polygon fill="#191970" stroke="#191970" points="27.8526,-154.6601 27.0695,-165.226 34.2706,-157.4547 27.8526,-154.6601"/>
</g>
<!-- Node29 -->
<g id="node29" class="node">
<title>Node29</title>
<g id="a_node29"><a xlink:href="../../da/d85/pyhiwidt_8f.html#a6dc10c3afea1efeffcf06999c214d56c" target="_top" xlink:title="pyhiwidt">
<polygon fill="none" stroke="#000000" points="82,-88.5 82,-108.5 142,-108.5 142,-88.5 82,-88.5"/>
<text text-anchor="middle" x="112" y="-95.5" font-family="FreeSans" font-size="10.00" fill="#000000">pyhiwidt</text>
</a>
</g>
</g>
<!-- Node1&#45;&gt;Node29 -->
<g id="edge37" class="edge">
<title>Node1&#45;&gt;Node29</title>
<path fill="none" stroke="#191970" d="M41.9189,-158.5885C53.436,-148.3528 68.4856,-135.0826 82,-123.5 87.7655,-118.5586 94.2284,-113.1558 99.6749,-108.6411"/>
<polygon fill="#191970" stroke="#191970" points="39.3687,-156.1728 34.2295,-165.4378 44.0247,-161.3999 39.3687,-156.1728"/>
</g>
<!-- Node3 -->
<g id="node3" class="node">
<title>Node3</title>
<g id="a_node3"><a xlink:href="../../d8/da0/lutest_8f.html#af1bc51f2ef657321e77c99f61c52bc07" target="_top" xlink:title="lutest">
<polygon fill="none" stroke="#000000" points="283.5,-273.5 283.5,-293.5 328.5,-293.5 328.5,-273.5 283.5,-273.5"/>
<text text-anchor="middle" x="306" y="-280.5" font-family="FreeSans" font-size="10.00" fill="#000000">lutest</text>
</a>
</g>
</g>
<!-- Node2&#45;&gt;Node3 -->
<g id="edge2" class="edge">
<title>Node2&#45;&gt;Node3</title>
<path fill="none" stroke="#191970" d="M145.2197,-226.3153C184.583,-240.3156 249.1159,-263.268 283.223,-275.3989"/>
<polygon fill="#191970" stroke="#191970" points="146.3829,-223.0142 135.7882,-222.9608 144.0371,-229.6095 146.3829,-223.0142"/>
</g>
<!-- Node5 -->
<g id="node5" class="node">
<title>Node5</title>
<g id="a_node5"><a xlink:href="../../d0/d65/lueevt_8f.html#add2076f5ebfddada6c0dddaeb75a4d55" target="_top" xlink:title="lueevt">
<polygon fill="none" stroke="#000000" points="184.5,-273.5 184.5,-293.5 232.5,-293.5 232.5,-273.5 184.5,-273.5"/>
<text text-anchor="middle" x="208.5" y="-280.5" font-family="FreeSans" font-size="10.00" fill="#000000">lueevt</text>
</a>
</g>
</g>
<!-- Node4&#45;&gt;Node5 -->
<g id="edge4" class="edge">
<title>Node4&#45;&gt;Node5</title>
<path fill="none" stroke="#191970" d="M144.8441,-289.4368C157.8301,-288.2257 172.4795,-286.8594 184.4484,-285.7432"/>
<polygon fill="#191970" stroke="#191970" points="144.5009,-285.9535 134.8692,-290.3671 145.151,-292.9233 144.5009,-285.9535"/>
</g>
<!-- Node5&#45;&gt;Node3 -->
<g id="edge5" class="edge">
<title>Node5&#45;&gt;Node3</title>
<path fill="none" stroke="#191970" d="M242.8908,-283.5C256.2514,-283.5 271.1919,-283.5 283.181,-283.5"/>
<polygon fill="#191970" stroke="#191970" points="242.6012,-280.0001 232.6011,-283.5 242.6011,-287.0001 242.6012,-280.0001"/>
</g>
<!-- Node6&#45;&gt;Node5 -->
<g id="edge7" class="edge">
<title>Node6&#45;&gt;Node5</title>
<path fill="none" stroke="#191970" d="M145.2468,-263.8358C158.0957,-267.8303 172.5209,-272.3148 184.3474,-275.9914"/>
<polygon fill="#191970" stroke="#191970" points="145.9482,-260.3887 135.36,-260.7622 143.8701,-267.0731 145.9482,-260.3887"/>
</g>
<!-- Node8 -->
<g id="node8" class="node">
<title>Node8</title>
<g id="a_node8"><a xlink:href="../../d2/d24/pyhiinit_8f.html#a93154984510592257bbf242af68cb276" target="_top" xlink:title="pyhiinit">
<polygon fill="none" stroke="#000000" points="376,-195.5 376,-215.5 431,-215.5 431,-195.5 376,-195.5"/>
<text text-anchor="middle" x="403.5" y="-202.5" font-family="FreeSans" font-size="10.00" fill="#000000">pyhiinit</text>
</a>
</g>
</g>
<!-- Node7&#45;&gt;Node8 -->
<g id="edge9" class="edge">
<title>Node7&#45;&gt;Node8</title>
<path fill="none" stroke="#191970" d="M225.4858,-193.8382C237.9677,-205.2747 256.001,-219.2563 275,-225.5 310.6055,-237.2011 354.0656,-225.3179 380.2229,-215.5163"/>
<polygon fill="#191970" stroke="#191970" points="227.7747,-191.1841 218.1307,-186.7973 222.9341,-196.2407 227.7747,-191.1841"/>
</g>
<!-- Node9 -->
<g id="node9" class="node">
<title>Node9</title>
<g id="a_node9"><a xlink:href="../../d3/dcc/jetini_8f.html#aaebe64822688c6f3fa1125ed0619f95d" target="_top" xlink:title="jetini">
<polygon fill="none" stroke="#000000" points="477.5,-195.5 477.5,-215.5 519.5,-215.5 519.5,-195.5 477.5,-195.5"/>
<text text-anchor="middle" x="498.5" y="-202.5" font-family="FreeSans" font-size="10.00" fill="#000000">jetini</text>
</a>
</g>
</g>
<!-- Node8&#45;&gt;Node9 -->
<g id="edge10" class="edge">
<title>Node8&#45;&gt;Node9</title>
<path fill="none" stroke="#191970" d="M441.5973,-205.5C453.7364,-205.5 466.729,-205.5 477.2301,-205.5"/>
<polygon fill="#191970" stroke="#191970" points="441.2333,-202.0001 431.2333,-205.5 441.2333,-209.0001 441.2333,-202.0001"/>
</g>
<!-- Node21 -->
<g id="node21" class="node">
<title>Node21</title>
<g id="a_node21"><a xlink:href="../../d6/d97/pyhitest_8f.html#ad7a2cf3c87068f12f08723ca60d921f8" target="_top" xlink:title="pyhitest">
<polygon fill="none" stroke="#000000" points="563,-156.5 563,-176.5 621,-176.5 621,-156.5 563,-156.5"/>
<text text-anchor="middle" x="592" y="-163.5" font-family="FreeSans" font-size="10.00" fill="#000000">pyhitest</text>
</a>
</g>
</g>
<!-- Node8&#45;&gt;Node21 -->
<g id="edge22" class="edge">
<title>Node8&#45;&gt;Node21</title>
<path fill="none" stroke="#191970" d="M441.0121,-193.9618C450.4219,-191.2946 460.5351,-188.6205 470,-186.5 501.4162,-179.4617 537.9019,-173.805 562.7304,-170.3272"/>
<polygon fill="#191970" stroke="#191970" points="439.7694,-190.6779 431.1414,-196.8268 441.7207,-197.4005 439.7694,-190.6779"/>
</g>
<!-- Node10 -->
<g id="node10" class="node">
<title>Node10</title>
<g id="a_node10"><a xlink:href="../../d1/dbb/hijing_8f.html#a69776a874c5857b3bcd832c1195cb0e1" target="_top" xlink:title="hijing">
<polygon fill="none" stroke="#000000" points="657,-156.5 657,-176.5 701,-176.5 701,-156.5 657,-156.5"/>
<text text-anchor="middle" x="679" y="-163.5" font-family="FreeSans" font-size="10.00" fill="#000000">hijing</text>
</a>
</g>
</g>
<!-- Node9&#45;&gt;Node10 -->
<g id="edge11" class="edge">
<title>Node9&#45;&gt;Node10</title>
<path fill="none" stroke="#191970" d="M529.5116,-202.2393C554.459,-199.2463 590.2924,-194.1113 621,-186.5 633.096,-183.5018 646.2504,-179.0666 656.9692,-175.1342"/>
<polygon fill="#191970" stroke="#191970" points="529.0653,-198.7674 519.533,-203.3918 529.8685,-205.7212 529.0653,-198.7674"/>
</g>
<!-- Node11 -->
<g id="node11" class="node">
<title>Node11</title>
<g id="a_node11"><a xlink:href="../../da/d19/example__1_8f.html#acf16f61bc7e27d5ce77d73738020a5c7" target="_top" xlink:title="__example_1::f__">
<polygon fill="none" stroke="#000000" points="737,-312.5 737,-332.5 840,-332.5 840,-312.5 737,-312.5"/>
<text text-anchor="middle" x="788.5" y="-319.5" font-family="FreeSans" font-size="10.00" fill="#000000">__example_1::f__</text>
</a>
</g>
</g>
<!-- Node10&#45;&gt;Node11 -->
<g id="edge12" class="edge">
<title>Node10&#45;&gt;Node11</title>
<path fill="none" stroke="#191970" d="M682.3186,-186.6307C688.2049,-216.1729 703.1953,-271.2492 737,-303.5 740.7925,-307.1181 745.3325,-310.0586 750.1238,-312.4456"/>
<polygon fill="#191970" stroke="#191970" points="685.7363,-185.8631 680.4881,-176.6594 678.8513,-187.1271 685.7363,-185.8631"/>
</g>
<!-- Node12 -->
<g id="node12" class="node">
<title>Node12</title>
<g id="a_node12"><a xlink:href="../../d0/dd6/example__2_8f.html#a9d0c3b9bee4d35bf976af3b01e3d8f99" target="_top" xlink:title="__example_2::f__">
<polygon fill="none" stroke="#000000" points="737,-273.5 737,-293.5 840,-293.5 840,-273.5 737,-273.5"/>
<text text-anchor="middle" x="788.5" y="-280.5" font-family="FreeSans" font-size="10.00" fill="#000000">__example_2::f__</text>
</a>
</g>
</g>
<!-- Node10&#45;&gt;Node12 -->
<g id="edge13" class="edge">
<title>Node10&#45;&gt;Node12</title>
<path fill="none" stroke="#191970" d="M686.0049,-186.2438C694.7419,-208.2148 711.6826,-243.3944 737,-264.5 741.3188,-268.1004 746.3824,-271.0504 751.6181,-273.4586"/>
<polygon fill="#191970" stroke="#191970" points="689.184,-184.7551 682.3741,-176.6387 682.6362,-187.2303 689.184,-184.7551"/>
</g>
<!-- Node13 -->
<g id="node13" class="node">
<title>Node13</title>
<g id="a_node13"><a xlink:href="../../d2/d77/example__3_8f.html#aab27974d678e65e3e41bf2e3fe4df5d9" target="_top" xlink:title="__example_3::f__">
<polygon fill="none" stroke="#000000" points="737,-234.5 737,-254.5 840,-254.5 840,-234.5 737,-234.5"/>
<text text-anchor="middle" x="788.5" y="-241.5" font-family="FreeSans" font-size="10.00" fill="#000000">__example_3::f__</text>
</a>
</g>
</g>
<!-- Node10&#45;&gt;Node13 -->
<g id="edge14" class="edge">
<title>Node10&#45;&gt;Node13</title>
<path fill="none" stroke="#191970" d="M692.9022,-184.3942C703.7322,-197.3125 719.7805,-214.3729 737,-225.5 742.3629,-228.9654 748.4462,-231.9184 754.5055,-234.3897"/>
<polygon fill="#191970" stroke="#191970" points="695.5998,-182.1638 686.579,-176.6071 690.1656,-186.5764 695.5998,-182.1638"/>
</g>
<!-- Node14 -->
<g id="node14" class="node">
<title>Node14</title>
<g id="a_node14"><a xlink:href="../../d2/da0/example__4_8f.html#a6bc0f54131effae47e6b12e1d435314a" target="_top" xlink:title="__example_4::f__">
<polygon fill="none" stroke="#000000" points="737,-195.5 737,-215.5 840,-215.5 840,-195.5 737,-195.5"/>
<text text-anchor="middle" x="788.5" y="-202.5" font-family="FreeSans" font-size="10.00" fill="#000000">__example_4::f__</text>
</a>
</g>
</g>
<!-- Node10&#45;&gt;Node14 -->
<g id="edge15" class="edge">
<title>Node10&#45;&gt;Node14</title>
<path fill="none" stroke="#191970" d="M710.8918,-177.8587C726.4656,-183.4055 745.0469,-190.0236 760.123,-195.3931"/>
<polygon fill="#191970" stroke="#191970" points="711.7536,-174.4504 701.159,-174.3922 709.405,-181.0446 711.7536,-174.4504"/>
</g>
<!-- Node15 -->
<g id="node15" class="node">
<title>Node15</title>
<g id="a_node15"><a xlink:href="../../d7/d67/example__5_8f.html#a25afe91d84386c600617ed09ef60286f" target="_top" xlink:title="__example_5::f__">
<polygon fill="none" stroke="#000000" points="737,-156.5 737,-176.5 840,-176.5 840,-156.5 737,-156.5"/>
<text text-anchor="middle" x="788.5" y="-163.5" font-family="FreeSans" font-size="10.00" fill="#000000">__example_5::f__</text>
</a>
</g>
</g>
<!-- Node10&#45;&gt;Node15 -->
<g id="edge16" class="edge">
<title>Node10&#45;&gt;Node15</title>
<path fill="none" stroke="#191970" d="M711.2489,-166.5C719.3287,-166.5 728.2001,-166.5 736.9614,-166.5"/>
<polygon fill="#191970" stroke="#191970" points="711.159,-163.0001 701.159,-166.5 711.1589,-170.0001 711.159,-163.0001"/>
</g>
<!-- Node16 -->
<g id="node16" class="node">
<title>Node16</title>
<g id="a_node16"><a xlink:href="../../d2/d88/example__6_8f.html#a78fc9edc07bf87b06cd839a4eea78c26" target="_top" xlink:title="__example_6::f__">
<polygon fill="none" stroke="#000000" points="737,-117.5 737,-137.5 840,-137.5 840,-117.5 737,-117.5"/>
<text text-anchor="middle" x="788.5" y="-124.5" font-family="FreeSans" font-size="10.00" fill="#000000">__example_6::f__</text>
</a>
</g>
</g>
<!-- Node10&#45;&gt;Node16 -->
<g id="edge17" class="edge">
<title>Node10&#45;&gt;Node16</title>
<path fill="none" stroke="#191970" d="M710.8918,-155.1413C726.4656,-149.5945 745.0469,-142.9764 760.123,-137.6069"/>
<polygon fill="#191970" stroke="#191970" points="709.405,-151.9554 701.159,-158.6078 711.7536,-158.5496 709.405,-151.9554"/>
</g>
<!-- Node17 -->
<g id="node17" class="node">
<title>Node17</title>
<g id="a_node17"><a xlink:href="../../db/d1a/example__7_8f.html#ac777f81954b42662e3b21684d62ddab7" target="_top" xlink:title="__example_7::f__">
<polygon fill="none" stroke="#000000" points="737,-78.5 737,-98.5 840,-98.5 840,-78.5 737,-78.5"/>
<text text-anchor="middle" x="788.5" y="-85.5" font-family="FreeSans" font-size="10.00" fill="#000000">__example_7::f__</text>
</a>
</g>
</g>
<!-- Node10&#45;&gt;Node17 -->
<g id="edge18" class="edge">
<title>Node10&#45;&gt;Node17</title>
<path fill="none" stroke="#191970" d="M693.7061,-148.2072C704.5768,-135.6577 720.3309,-119.3714 737,-108.5 742.9451,-104.6227 749.7564,-101.3158 756.4363,-98.5736"/>
<polygon fill="#191970" stroke="#191970" points="690.7575,-146.2762 687.0093,-156.1859 696.1191,-150.7765 690.7575,-146.2762"/>
</g>
<!-- Node18 -->
<g id="node18" class="node">
<title>Node18</title>
<g id="a_node18"><a xlink:href="../../d1/de4/example__8_8f.html#ace7a490fafddd958e4a9192395b34464" target="_top" xlink:title="__example_8::f__">
<polygon fill="none" stroke="#000000" points="737,-39.5 737,-59.5 840,-59.5 840,-39.5 737,-39.5"/>
<text text-anchor="middle" x="788.5" y="-46.5" font-family="FreeSans" font-size="10.00" fill="#000000">__example_8::f__</text>
</a>
</g>
</g>
<!-- Node10&#45;&gt;Node18 -->
<g id="edge19" class="edge">
<title>Node10&#45;&gt;Node18</title>
<path fill="none" stroke="#191970" d="M686.0049,-146.7562C694.7419,-124.7852 711.6826,-89.6056 737,-68.5 741.3188,-64.8996 746.3824,-61.9496 751.6181,-59.5414"/>
<polygon fill="#191970" stroke="#191970" points="682.6362,-145.7697 682.3741,-156.3613 689.184,-148.2449 682.6362,-145.7697"/>
</g>
<!-- Node19 -->
<g id="node19" class="node">
<title>Node19</title>
<g id="a_node19"><a xlink:href="../../d3/d7f/Fun_8C.html#ab689f6a95e742654fc06aa27a8486ffd" target="_top" xlink:title="ConfigureInput">
<polygon fill="none" stroke="#000000" points="742.5,-.5 742.5,-20.5 834.5,-20.5 834.5,-.5 742.5,-.5"/>
<text text-anchor="middle" x="788.5" y="-7.5" font-family="FreeSans" font-size="10.00" fill="#000000">ConfigureInput</text>
</a>
</g>
</g>
<!-- Node10&#45;&gt;Node19 -->
<g id="edge20" class="edge">
<title>Node10&#45;&gt;Node19</title>
<path fill="none" stroke="#191970" d="M682.3186,-146.3693C688.2049,-116.8271 703.1953,-61.7508 737,-29.5 740.7925,-25.8819 745.3325,-22.9414 750.1238,-20.5544"/>
<polygon fill="#191970" stroke="#191970" points="678.8513,-145.8729 680.4881,-156.3406 685.7363,-147.1369 678.8513,-145.8729"/>
</g>
<!-- Node20 -->
<g id="node20" class="node">
<title>Node20</title>
<g id="a_node20"><a xlink:href="../../d3/d7f/Fun_8C.html#af69a3eef3ff244bb51f5740c6ecb5432" target="_top" xlink:title="Fun">
<polygon fill="none" stroke="#000000" points="876,-.5 876,-20.5 910,-20.5 910,-.5 876,-.5"/>
<text text-anchor="middle" x="893" y="-7.5" font-family="FreeSans" font-size="10.00" fill="#000000">Fun</text>
</a>
</g>
</g>
<!-- Node19&#45;&gt;Node20 -->
<g id="edge21" class="edge">
<title>Node19&#45;&gt;Node20</title>
<path fill="none" stroke="#191970" d="M844.6445,-10.5C856.0192,-10.5 867.1464,-10.5 875.8537,-10.5"/>
<polygon fill="#191970" stroke="#191970" points="844.6394,-7.0001 834.6394,-10.5 844.6394,-14.0001 844.6394,-7.0001"/>
</g>
<!-- Node23 -->
<g id="node23" class="node">
<title>Node23</title>
<g id="a_node23"><a xlink:href="../../dd/d7c/pyhimaxi_8f.html#aac610635dd3329298252ad5ce8c18037" target="_top" xlink:title="pyhimaxi">
<polygon fill="none" stroke="#000000" points="275,-195.5 275,-215.5 337,-215.5 337,-195.5 275,-195.5"/>
<text text-anchor="middle" x="306" y="-202.5" font-family="FreeSans" font-size="10.00" fill="#000000">pyhimaxi</text>
</a>
</g>
</g>
<!-- Node22&#45;&gt;Node23 -->
<g id="edge24" class="edge">
<title>Node22&#45;&gt;Node23</title>
<path fill="none" stroke="#191970" d="M233.1855,-153.3892C235.1691,-154.7561 237.1283,-156.1374 239,-157.5 255.6104,-169.592 258.2069,-174.663 275,-186.5 279.334,-189.5549 284.1614,-192.6506 288.6919,-195.4316"/>
<polygon fill="#191970" stroke="#191970" points="234.786,-150.2486 224.5298,-147.5915 230.8904,-156.0645 234.786,-150.2486"/>
</g>
<!-- Node24 -->
<g id="node24" class="node">
<title>Node24</title>
<g id="a_node24"><a xlink:href="../../dd/ded/pyhimult_8f.html#ab211ef234aa1654aab2f5ec13044efbf" target="_top" xlink:title="pyhimult">
<polygon fill="none" stroke="#000000" points="275,-156.5 275,-176.5 337,-176.5 337,-156.5 275,-156.5"/>
<text text-anchor="middle" x="306" y="-163.5" font-family="FreeSans" font-size="10.00" fill="#000000">pyhimult</text>
</a>
</g>
</g>
<!-- Node22&#45;&gt;Node24 -->
<g id="edge26" class="edge">
<title>Node22&#45;&gt;Node24</title>
<path fill="none" stroke="#191970" d="M247.6151,-149.1342C256.685,-151.8319 266.2183,-154.6675 274.8907,-157.247"/>
<polygon fill="#191970" stroke="#191970" points="248.6007,-145.7759 238.0178,-146.2797 246.605,-152.4854 248.6007,-145.7759"/>
</g>
<!-- Node25 -->
<g id="node25" class="node">
<title>Node25</title>
<g id="a_node25"><a xlink:href="../../dd/dfb/pyhirand_8f.html#a11c46259e3dc9a8f003b2d30a821340d" target="_top" xlink:title="pyhirand">
<polygon fill="none" stroke="#000000" points="373,-117.5 373,-137.5 434,-137.5 434,-117.5 373,-117.5"/>
<text text-anchor="middle" x="403.5" y="-124.5" font-family="FreeSans" font-size="10.00" fill="#000000">pyhirand</text>
</a>
</g>
</g>
<!-- Node22&#45;&gt;Node25 -->
<g id="edge34" class="edge">
<title>Node22&#45;&gt;Node25</title>
<path fill="none" stroke="#191970" d="M248.5095,-135.4482C285.4149,-133.5556 339.4161,-130.7864 372.9609,-129.0661"/>
<polygon fill="#191970" stroke="#191970" points="247.9239,-131.9736 238.1163,-135.9812 248.2825,-138.9644 247.9239,-131.9736"/>
</g>
<!-- Node23&#45;&gt;Node8 -->
<g id="edge25" class="edge">
<title>Node23&#45;&gt;Node8</title>
<path fill="none" stroke="#191970" d="M347.3689,-205.5C357.0275,-205.5 367.0818,-205.5 375.9676,-205.5"/>
<polygon fill="#191970" stroke="#191970" points="347.1177,-202.0001 337.1177,-205.5 347.1176,-209.0001 347.1177,-202.0001"/>
</g>
<!-- Node24&#45;&gt;Node8 -->
<g id="edge27" class="edge">
<title>Node24&#45;&gt;Node8</title>
<path fill="none" stroke="#191970" d="M340.7462,-180.3985C353.2068,-185.3827 367.0014,-190.9005 378.4764,-195.4906"/>
<polygon fill="#191970" stroke="#191970" points="341.6933,-177.0078 331.1087,-176.5435 339.0936,-183.5071 341.6933,-177.0078"/>
</g>
<!-- Node24&#45;&gt;Node25 -->
<g id="edge28" class="edge">
<title>Node24&#45;&gt;Node25</title>
<path fill="none" stroke="#191970" d="M340.7462,-152.6015C353.2068,-147.6173 367.0014,-142.0995 378.4764,-137.5094"/>
<polygon fill="#191970" stroke="#191970" points="339.0936,-149.4929 331.1087,-156.4565 341.6933,-155.9922 339.0936,-149.4929"/>
</g>
<!-- Node26 -->
<g id="node26" class="node">
<title>Node26</title>
<g id="a_node26"><a xlink:href="../../dc/d4c/pyhithia_8f.html#a2854892a8ad546886195932d54962ba9" target="_top" xlink:title="pyhithia">
<polygon fill="none" stroke="#000000" points="470,-117.5 470,-137.5 527,-137.5 527,-117.5 470,-117.5"/>
<text text-anchor="middle" x="498.5" y="-124.5" font-family="FreeSans" font-size="10.00" fill="#000000">pyhithia</text>
</a>
</g>
</g>
<!-- Node24&#45;&gt;Node26 -->
<g id="edge33" class="edge">
<title>Node24&#45;&gt;Node26</title>
<path fill="none" stroke="#191970" d="M346.9975,-162.0387C372.2614,-158.8891 405.2185,-154.0577 434,-147.5 445.8882,-144.7914 458.7622,-140.9827 469.8591,-137.4148"/>
<polygon fill="#191970" stroke="#191970" points="346.5316,-158.5695 337.0242,-163.2449 347.3721,-165.5189 346.5316,-158.5695"/>
</g>
<!-- Node25&#45;&gt;Node26 -->
<g id="edge29" class="edge">
<title>Node25&#45;&gt;Node26</title>
<path fill="none" stroke="#191970" d="M444.3568,-127.5C452.9654,-127.5 461.871,-127.5 469.9123,-127.5"/>
<polygon fill="#191970" stroke="#191970" points="444.0816,-124.0001 434.0815,-127.5 444.0815,-131.0001 444.0816,-124.0001"/>
</g>
<!-- Node26&#45;&gt;Node21 -->
<g id="edge32" class="edge">
<title>Node26&#45;&gt;Node21</title>
<path fill="none" stroke="#191970" d="M531.8207,-141.3985C543.7702,-146.3827 556.9988,-151.9005 568.003,-156.4906"/>
<polygon fill="#191970" stroke="#191970" points="533.1553,-138.1629 522.5786,-137.5435 530.4605,-144.6234 533.1553,-138.1629"/>
</g>
<!-- Node27 -->
<g id="node27" class="node">
<title>Node27</title>
<g id="a_node27"><a xlink:href="../../d3/db7/hijhrd_8f.html#ace311e28a8574ca3a1d08790019cb213" target="_top" xlink:title="hijhrd">
<polygon fill="none" stroke="#000000" points="569.5,-117.5 569.5,-137.5 614.5,-137.5 614.5,-117.5 569.5,-117.5"/>
<text text-anchor="middle" x="592" y="-124.5" font-family="FreeSans" font-size="10.00" fill="#000000">hijhrd</text>
</a>
</g>
</g>
<!-- Node26&#45;&gt;Node27 -->
<g id="edge30" class="edge">
<title>Node26&#45;&gt;Node27</title>
<path fill="none" stroke="#191970" d="M537.2378,-127.5C548.1268,-127.5 559.6137,-127.5 569.2394,-127.5"/>
<polygon fill="#191970" stroke="#191970" points="537.0612,-124.0001 527.0611,-127.5 537.0611,-131.0001 537.0612,-124.0001"/>
</g>
<!-- Node27&#45;&gt;Node10 -->
<g id="edge31" class="edge">
<title>Node27&#45;&gt;Node10</title>
<path fill="none" stroke="#191970" d="M623.7407,-141.7286C634.774,-146.6746 646.8986,-152.1097 656.9724,-156.6256"/>
<polygon fill="#191970" stroke="#191970" points="624.9615,-138.4403 614.4047,-137.5435 622.098,-144.8279 624.9615,-138.4403"/>
</g>
<!-- Node28&#45;&gt;Node26 -->
<g id="edge36" class="edge">
<title>Node28&#45;&gt;Node26</title>
<path fill="none" stroke="#191970" d="M249.0767,-3.8447C296.8466,1.8397 376.8964,4.4493 434,-29.5 468.3153,-49.9012 487.894,-96.5089 495.1865,-117.2355"/>
<polygon fill="#191970" stroke="#191970" points="248.574,-.3804 239.1046,-5.1324 249.4705,-7.3228 248.574,-.3804"/>
</g>
<!-- Node29&#45;&gt;Node7 -->
<g id="edge38" class="edge">
<title>Node29&#45;&gt;Node7</title>
<path fill="none" stroke="#191970" d="M129.553,-115.7091C142.4567,-127.9746 160.6877,-144.5214 178,-157.5 182.0931,-160.5685 186.6934,-163.6206 191.056,-166.3521"/>
<polygon fill="#191970" stroke="#191970" points="131.896,-113.1064 122.2629,-108.6955 127.0428,-118.1509 131.896,-113.1064"/>
</g>
<!-- Node29&#45;&gt;Node22 -->
<g id="edge43" class="edge">
<title>Node29&#45;&gt;Node22</title>
<path fill="none" stroke="#191970" d="M146.3898,-112.3985C158.7227,-117.3827 172.3757,-122.9005 183.7331,-127.4906"/>
<polygon fill="#191970" stroke="#191970" points="147.4341,-109.0455 136.8511,-108.5435 144.8111,-115.5356 147.4341,-109.0455"/>
</g>
<!-- Node30 -->
<g id="node30" class="node">
<title>Node30</title>
<g id="a_node30"><a xlink:href="../../da/dea/pyhiresd_8f.html#abf70f2aea927845e18c437c28c73df91" target="_top" xlink:title="pyhiresd">
<polygon fill="none" stroke="#000000" points="374,-39.5 374,-59.5 433,-59.5 433,-39.5 374,-39.5"/>
<text text-anchor="middle" x="403.5" y="-46.5" font-family="FreeSans" font-size="10.00" fill="#000000">pyhiresd</text>
</a>
</g>
</g>
<!-- Node29&#45;&gt;Node30 -->
<g id="edge39" class="edge">
<title>Node29&#45;&gt;Node30</title>
<path fill="none" stroke="#191970" d="M152.4349,-90.6487C185.376,-84.3512 233.1213,-75.4477 275,-68.5 308.8162,-62.8898 347.7769,-57.2435 373.8515,-53.5817"/>
<polygon fill="#191970" stroke="#191970" points="151.4474,-87.2742 142.2861,-92.596 152.7665,-94.1488 151.4474,-87.2742"/>
</g>
<!-- Node31 -->
<g id="node31" class="node">
<title>Node31</title>
<g id="a_node31"><a xlink:href="../../d1/dc6/pyhiscat_8f.html#a0e10611b57db7067ea912bc6a2b5cacc" target="_top" xlink:title="pyhiscat">
<polygon fill="none" stroke="#000000" points="276.5,-78.5 276.5,-98.5 335.5,-98.5 335.5,-78.5 276.5,-78.5"/>
<text text-anchor="middle" x="306" y="-85.5" font-family="FreeSans" font-size="10.00" fill="#000000">pyhiscat</text>
</a>
</g>
</g>
<!-- Node29&#45;&gt;Node31 -->
<g id="edge41" class="edge">
<title>Node29&#45;&gt;Node31</title>
<path fill="none" stroke="#191970" d="M152.7219,-96.4009C189.6336,-94.4983 243.1677,-91.7388 276.2186,-90.0351"/>
<polygon fill="#191970" stroke="#191970" points="152.119,-92.9273 142.3125,-96.9375 152.4794,-99.918 152.119,-92.9273"/>
</g>
<!-- Node30&#45;&gt;Node26 -->
<g id="edge40" class="edge">
<title>Node30&#45;&gt;Node26</title>
<path fill="none" stroke="#191970" d="M423.9695,-66.2726C427.3219,-69.0212 430.7583,-71.8396 434,-74.5 452.1497,-89.3952 473.1578,-106.6626 486.1386,-117.3351"/>
<polygon fill="#191970" stroke="#191970" points="425.9206,-63.3463 415.9679,-59.7139 421.4831,-68.7601 425.9206,-63.3463"/>
</g>
<!-- Node31&#45;&gt;Node26 -->
<g id="edge42" class="edge">
<title>Node31&#45;&gt;Node26</title>
<path fill="none" stroke="#191970" d="M345.6983,-93.3326C371.1046,-96.7621 404.6813,-101.9212 434,-108.5 445.846,-111.1581 458.7122,-114.7923 469.8145,-118.1707"/>
<polygon fill="#191970" stroke="#191970" points="346.0663,-89.8509 335.6948,-92.0144 345.1518,-96.7909 346.0663,-89.8509"/>
</g>
</g>
</svg>
