<?xml version="1.0" encoding="UTF-8" standalone="no"?>
<!DOCTYPE svg PUBLIC "-//W3C//DTD SVG 1.1//EN"
 "http://www.w3.org/Graphics/SVG/1.1/DTD/svg11.dtd">
<!-- Generated by graphviz version 2.40.1 (20161225.0304)
 -->
<!-- Title: Svtx_Clustering Pages: 1 -->
<svg width="675pt" height="287pt"
 viewBox="0.00 0.00 675.00 287.00" xmlns="http://www.w3.org/2000/svg" xmlns:xlink="http://www.w3.org/1999/xlink">
<g id="graph0" class="graph" transform="scale(1 1) rotate(0) translate(4 283)">
<title>Svtx_Clustering</title>
<!-- Node1 -->
<g id="node1" class="node">
<title>Node1</title>
<polygon fill="#bfbfbf" stroke="#000000" points="0,-170.5 0,-190.5 95,-190.5 95,-170.5 0,-170.5"/>
<text text-anchor="middle" x="47.5" y="-177.5" font-family="FreeSans" font-size="10.00" fill="#000000">Svtx_Clustering</text>
</g>
<!-- Node2 -->
<g id="node2" class="node">
<title>Node2</title>
<g id="a_node2"><a xlink:href="../../da/d29/classFun4AllServer.html#a3e55156f91b2c94bb6c4ef33ffce587a" target="_top" xlink:title="Fun4AllServer::instance">
<polygon fill="none" stroke="#000000" points="355,-258.5 355,-278.5 491,-278.5 491,-258.5 355,-258.5"/>
<text text-anchor="middle" x="423" y="-265.5" font-family="FreeSans" font-size="10.00" fill="#000000">Fun4AllServer::instance</text>
</a>
</g>
</g>
<!-- Node1&#45;&gt;Node2 -->
<g id="edge1" class="edge">
<title>Node1&#45;&gt;Node2</title>
<path fill="none" stroke="#191970" d="M90.209,-190.509C159.1464,-206.6648 294.7876,-238.4529 369.8639,-256.0473"/>
<polygon fill="#191970" stroke="#191970" points="369.5074,-259.5586 380.0423,-258.4327 371.1047,-252.7432 369.5074,-259.5586"/>
</g>
<!-- Node3 -->
<g id="node3" class="node">
<title>Node3</title>
<g id="a_node3"><a xlink:href="../../da/d29/classFun4AllServer.html#a0a9947db0ede1e55622001eb7515f8c0" target="_top" xlink:title="Fun4AllServer::registerSubsystem">
<polygon fill="none" stroke="#000000" points="131,-151.5 131,-171.5 319,-171.5 319,-151.5 131,-151.5"/>
<text text-anchor="middle" x="225" y="-158.5" font-family="FreeSans" font-size="10.00" fill="#000000">Fun4AllServer::registerSubsystem</text>
</a>
</g>
</g>
<!-- Node1&#45;&gt;Node3 -->
<g id="edge2" class="edge">
<title>Node1&#45;&gt;Node3</title>
<path fill="none" stroke="#191970" d="M95.0667,-175.4083C103.3622,-174.5204 112.2745,-173.5664 121.4025,-172.5893"/>
<polygon fill="#191970" stroke="#191970" points="121.8023,-176.0666 131.3729,-171.5221 121.0572,-169.1064 121.8023,-176.0666"/>
</g>
<!-- Node3&#45;&gt;Node2 -->
<g id="edge3" class="edge">
<title>Node3&#45;&gt;Node2</title>
<path fill="none" stroke="#191970" d="M241.3272,-171.6927C260.0962,-183.4226 291.8153,-203.285 319,-220.5 335.0408,-230.658 337.9905,-235.0638 355,-243.5 363.4407,-247.6863 372.7637,-251.5632 381.7301,-254.9533"/>
<polygon fill="#191970" stroke="#191970" points="380.6671,-258.2911 391.261,-258.4324 383.0675,-251.7155 380.6671,-258.2911"/>
</g>
<!-- Node4 -->
<g id="node4" class="node">
<title>Node4</title>
<g id="a_node4"><a xlink:href="../../d5/dec/classFun4AllBase.html#a41f9ac377743d046f590617fd6f4f0ed" target="_top" xlink:title="Returns the name of this module.">
<polygon fill="none" stroke="#000000" points="365.5,-90.5 365.5,-110.5 480.5,-110.5 480.5,-90.5 365.5,-90.5"/>
<text text-anchor="middle" x="423" y="-97.5" font-family="FreeSans" font-size="10.00" fill="#000000">Fun4AllBase::Name</text>
</a>
</g>
</g>
<!-- Node3&#45;&gt;Node4 -->
<g id="edge4" class="edge">
<title>Node3&#45;&gt;Node4</title>
<path fill="none" stroke="#191970" d="M256.2054,-151.4709C282.5064,-143.063 321.1567,-130.8127 355,-120.5 362.6145,-118.1797 370.7227,-115.755 378.5888,-113.4269"/>
<polygon fill="#191970" stroke="#191970" points="379.7653,-116.729 388.3678,-110.5446 377.7862,-110.0146 379.7653,-116.729"/>
</g>
<!-- Node5 -->
<g id="node5" class="node">
<title>Node5</title>
<g id="a_node5"><a xlink:href="../../da/d29/classFun4AllServer.html#abcaf6825367e5db292ff795237bdcf62" target="_top" xlink:title="Fun4AllServer::topNode">
<polygon fill="none" stroke="#000000" points="355,-51.5 355,-71.5 491,-71.5 491,-51.5 355,-51.5"/>
<text text-anchor="middle" x="423" y="-58.5" font-family="FreeSans" font-size="10.00" fill="#000000">Fun4AllServer::topNode</text>
</a>
</g>
</g>
<!-- Node3&#45;&gt;Node5 -->
<g id="edge5" class="edge">
<title>Node3&#45;&gt;Node5</title>
<path fill="none" stroke="#191970" d="M238.3231,-151.3868C261.1017,-134.5243 309.4908,-100.5421 355,-80.5 359.7852,-78.3926 364.8637,-76.46 370.0049,-74.7024"/>
<polygon fill="#191970" stroke="#191970" points="371.4479,-77.9158 379.9083,-71.5383 369.3174,-71.2478 371.4479,-77.9158"/>
</g>
<!-- Node6 -->
<g id="node6" class="node">
<title>Node6</title>
<g id="a_node6"><a xlink:href="../../d7/d96/classFun4AllMemoryTracker.html#a3841cc0bc6c4047da2b4868ba39dbb8c" target="_top" xlink:title="Fun4AllMemoryTracker\l::Start">
<polygon fill="none" stroke="#000000" points="357,-168.5 357,-200.5 489,-200.5 489,-168.5 357,-168.5"/>
<text text-anchor="start" x="365" y="-187.5" font-family="FreeSans" font-size="10.00" fill="#000000">Fun4AllMemoryTracker</text>
<text text-anchor="middle" x="423" y="-175.5" font-family="FreeSans" font-size="10.00" fill="#000000">::Start</text>
</a>
</g>
</g>
<!-- Node3&#45;&gt;Node6 -->
<g id="edge6" class="edge">
<title>Node3&#45;&gt;Node6</title>
<path fill="none" stroke="#191970" d="M311.2697,-171.5212C323.1182,-172.8976 335.2141,-174.3026 346.8632,-175.6558"/>
<polygon fill="#191970" stroke="#191970" points="346.6307,-179.1523 356.9678,-176.8296 347.4385,-172.199 346.6307,-179.1523"/>
</g>
<!-- Node9 -->
<g id="node9" class="node">
<title>Node9</title>
<g id="a_node9"><a xlink:href="../../d5/dec/classFun4AllBase.html#a8a5c77a92bdac6bc043476e132379a40" target="_top" xlink:title="Gets the verbosity of this module.">
<polygon fill="none" stroke="#000000" points="531,-174.5 531,-194.5 663,-194.5 663,-174.5 531,-174.5"/>
<text text-anchor="middle" x="597" y="-181.5" font-family="FreeSans" font-size="10.00" fill="#000000">Fun4AllBase::Verbosity</text>
</a>
</g>
</g>
<!-- Node3&#45;&gt;Node9 -->
<g id="edge15" class="edge">
<title>Node3&#45;&gt;Node9</title>
<path fill="none" stroke="#191970" d="M245.0583,-171.6735C270.0512,-183.7275 314.4238,-203.1068 355,-210.5 414.4654,-221.3349 430.9922,-217.752 491,-210.5 512.4656,-207.9059 535.8555,-202.4586 555.1895,-197.2171"/>
<polygon fill="#191970" stroke="#191970" points="556.2053,-200.5674 564.8985,-194.511 554.3259,-193.8244 556.2053,-200.5674"/>
</g>
<!-- Node10 -->
<g id="node10" class="node">
<title>Node10</title>
<g id="a_node10"><a xlink:href="../../d0/d32/classSubsysReco.html#a6670c0a093dd2c2bdd44f8fc6f9ba8e8" target="_top" xlink:title="SubsysReco::Init">
<polygon fill="none" stroke="#000000" points="373,-129.5 373,-149.5 473,-149.5 473,-129.5 373,-129.5"/>
<text text-anchor="middle" x="423" y="-136.5" font-family="FreeSans" font-size="10.00" fill="#000000">SubsysReco::Init</text>
</a>
</g>
</g>
<!-- Node3&#45;&gt;Node10 -->
<g id="edge10" class="edge">
<title>Node3&#45;&gt;Node10</title>
<path fill="none" stroke="#191970" d="M315.0198,-151.4978C331.2053,-149.6994 347.7137,-147.8651 362.7952,-146.1894"/>
<polygon fill="#191970" stroke="#191970" points="363.4345,-149.64 372.9868,-145.057 362.6614,-142.6828 363.4345,-149.64"/>
</g>
<!-- Node11 -->
<g id="node11" class="node">
<title>Node11</title>
<g id="a_node11"><a xlink:href="../../d7/d96/classFun4AllMemoryTracker.html#a766ac66dd36ffa4e3fbe6e622923565f" target="_top" xlink:title="Fun4AllMemoryTracker\l::Stop">
<polygon fill="none" stroke="#000000" points="357,-.5 357,-32.5 489,-32.5 489,-.5 357,-.5"/>
<text text-anchor="start" x="365" y="-19.5" font-family="FreeSans" font-size="10.00" fill="#000000">Fun4AllMemoryTracker</text>
<text text-anchor="middle" x="423" y="-7.5" font-family="FreeSans" font-size="10.00" fill="#000000">::Stop</text>
</a>
</g>
</g>
<!-- Node3&#45;&gt;Node11 -->
<g id="edge11" class="edge">
<title>Node3&#45;&gt;Node11</title>
<path fill="none" stroke="#191970" d="M233.4173,-151.3864C252.7263,-128.7637 302.5931,-73.5491 355,-41.5 357.5988,-39.9107 360.3145,-38.3984 363.1017,-36.9627"/>
<polygon fill="#191970" stroke="#191970" points="364.6651,-40.0949 372.1912,-32.6377 361.6574,-33.7739 364.6651,-40.0949"/>
</g>
<!-- Node7 -->
<g id="node7" class="node">
<title>Node7</title>
<g id="a_node7"><a xlink:href="../../d7/d96/classFun4AllMemoryTracker.html#aa8eb9ed150f51165b9abfd456c18a432" target="_top" xlink:title="Fun4AllMemoryTracker\l::CreateFullTrackerName">
<polygon fill="none" stroke="#000000" points="527,-105.5 527,-137.5 667,-137.5 667,-105.5 527,-105.5"/>
<text text-anchor="start" x="535" y="-124.5" font-family="FreeSans" font-size="10.00" fill="#000000">Fun4AllMemoryTracker</text>
<text text-anchor="middle" x="597" y="-112.5" font-family="FreeSans" font-size="10.00" fill="#000000">::CreateFullTrackerName</text>
</a>
</g>
</g>
<!-- Node6&#45;&gt;Node7 -->
<g id="edge7" class="edge">
<title>Node6&#45;&gt;Node7</title>
<path fill="none" stroke="#191970" d="M467.3578,-168.4394C490.4686,-160.0717 518.9131,-149.7728 543.2643,-140.956"/>
<polygon fill="#191970" stroke="#191970" points="544.5121,-144.2266 552.7232,-137.5312 542.129,-137.6448 544.5121,-144.2266"/>
</g>
<!-- Node8 -->
<g id="node8" class="node">
<title>Node8</title>
<g id="a_node8"><a xlink:href="../../d7/d96/classFun4AllMemoryTracker.html#a4059a8c86c92e1708e5bbdc585af99ed" target="_top" xlink:title="Fun4AllMemoryTracker\l::GetRSSMemory">
<polygon fill="none" stroke="#000000" points="531,-18.5 531,-50.5 663,-50.5 663,-18.5 531,-18.5"/>
<text text-anchor="start" x="539" y="-37.5" font-family="FreeSans" font-size="10.00" fill="#000000">Fun4AllMemoryTracker</text>
<text text-anchor="middle" x="597" y="-25.5" font-family="FreeSans" font-size="10.00" fill="#000000">::GetRSSMemory</text>
</a>
</g>
</g>
<!-- Node6&#45;&gt;Node8 -->
<g id="edge8" class="edge">
<title>Node6&#45;&gt;Node8</title>
<path fill="none" stroke="#191970" d="M477.6533,-168.4492C482.4257,-165.8761 486.9662,-162.9113 491,-159.5 515.6242,-138.6758 506.6585,-121.5244 527,-96.5 538.7872,-81.9992 554.127,-68.0036 567.4414,-56.9907"/>
<polygon fill="#191970" stroke="#191970" points="569.8433,-59.5497 575.4198,-50.5412 565.4427,-54.1058 569.8433,-59.5497"/>
</g>
<!-- Node6&#45;&gt;Node9 -->
<g id="edge9" class="edge">
<title>Node6&#45;&gt;Node9</title>
<path fill="none" stroke="#191970" d="M489.2783,-184.5C499.6131,-184.5 510.3621,-184.5 520.8946,-184.5"/>
<polygon fill="#191970" stroke="#191970" points="520.906,-188.0001 530.906,-184.5 520.9059,-181.0001 520.906,-188.0001"/>
</g>
<!-- Node11&#45;&gt;Node7 -->
<g id="edge12" class="edge">
<title>Node11&#45;&gt;Node7</title>
<path fill="none" stroke="#191970" d="M472.0622,-32.5563C478.5646,-35.2543 485.0374,-38.2472 491,-41.5 520.482,-57.5836 550.7322,-81.2649 571.3312,-98.6906"/>
<polygon fill="#191970" stroke="#191970" points="569.1304,-101.4139 578.9998,-105.2669 573.6872,-96.1002 569.1304,-101.4139"/>
</g>
<!-- Node11&#45;&gt;Node8 -->
<g id="edge13" class="edge">
<title>Node11&#45;&gt;Node8</title>
<path fill="none" stroke="#191970" d="M489.2783,-23.3564C499.6131,-24.4255 510.3621,-25.5375 520.8946,-26.627"/>
<polygon fill="#191970" stroke="#191970" points="520.5989,-30.115 530.906,-27.6627 521.3192,-23.1522 520.5989,-30.115"/>
</g>
<!-- Node11&#45;&gt;Node9 -->
<g id="edge14" class="edge">
<title>Node11&#45;&gt;Node9</title>
<path fill="none" stroke="#191970" d="M479.6895,-32.5674C483.8177,-35.1218 487.6626,-38.0784 491,-41.5 525.7405,-77.1168 494.7207,-109.6383 527,-147.5 535.1517,-157.0615 546.4064,-164.5121 557.5089,-170.1402"/>
<polygon fill="#191970" stroke="#191970" points="556.1862,-173.3853 566.7278,-174.4455 559.1482,-167.0428 556.1862,-173.3853"/>
</g>
</g>
</svg>
