<?xml version="1.0" encoding="UTF-8" standalone="no"?>
<!DOCTYPE svg PUBLIC "-//W3C//DTD SVG 1.1//EN"
 "http://www.w3.org/Graphics/SVG/1.1/DTD/svg11.dtd">
<!-- Generated by graphviz version 2.40.1 (20161225.0304)
 -->
<!-- Title: coresoftware/blob/master/simulation/g4simulation/g4eval/CaloRawTowerEval.h Pages: 1 -->
<svg width="276pt" height="224pt"
 viewBox="0.00 0.00 276.44 224.00" xmlns="http://www.w3.org/2000/svg" xmlns:xlink="http://www.w3.org/1999/xlink">
<g id="graph0" class="graph" transform="scale(1 1) rotate(0) translate(4 220)">
<title>coresoftware/blob/master/simulation/g4simulation/g4eval/CaloRawTowerEval.h</title>
<!-- Node1 -->
<g id="node1" class="node">
<title>Node1</title>
<polygon fill="#bfbfbf" stroke="#000000" points="26.942,-171.5 26.942,-215.5 188.942,-215.5 188.942,-171.5 26.942,-171.5"/>
<text text-anchor="start" x="34.942" y="-202.5" font-family="FreeSans" font-size="10.00" fill="#000000">coresoftware/blob/master</text>
<text text-anchor="start" x="34.942" y="-190.5" font-family="FreeSans" font-size="10.00" fill="#000000">/simulation/g4simulation</text>
<text text-anchor="middle" x="107.942" y="-178.5" font-family="FreeSans" font-size="10.00" fill="#000000">/g4eval/CaloRawTowerEval.h</text>
</g>
<!-- Node2 -->
<g id="node2" class="node">
<title>Node2</title>
<g id="a_node2"><a xlink:href="../../d0/d8a/CaloTruthEval_8h.html" target="_top" xlink:title="CaloTruthEval.h">
<polygon fill="none" stroke="#000000" points="60.442,-114.5 60.442,-134.5 155.442,-134.5 155.442,-114.5 60.442,-114.5"/>
<text text-anchor="middle" x="107.942" y="-121.5" font-family="FreeSans" font-size="10.00" fill="#000000">CaloTruthEval.h</text>
</a>
</g>
</g>
<!-- Node1&#45;&gt;Node2 -->
<g id="edge1" class="edge">
<title>Node1&#45;&gt;Node2</title>
<path fill="none" stroke="#191970" d="M107.942,-171.2882C107.942,-162.8377 107.942,-153.2557 107.942,-144.9736"/>
<polygon fill="#191970" stroke="#191970" points="111.4421,-144.7136 107.942,-134.7137 104.4421,-144.7137 111.4421,-144.7136"/>
</g>
<!-- Node4 -->
<g id="node4" class="node">
<title>Node4</title>
<polygon fill="none" stroke="#bfbfbf" points="63.942,-.5 63.942,-20.5 95.942,-20.5 95.942,-.5 63.942,-.5"/>
<text text-anchor="middle" x="79.942" y="-7.5" font-family="FreeSans" font-size="10.00" fill="#000000">set</text>
</g>
<!-- Node1&#45;&gt;Node4 -->
<g id="edge8" class="edge">
<title>Node1&#45;&gt;Node4</title>
<path fill="none" stroke="#191970" d="M75.7032,-171.3928C49.261,-150.8675 14.3911,-117.5683 2.942,-78 .3478,-69.0344 -1.6449,-65.1284 2.942,-57 13.8351,-37.6963 36.3184,-25.504 54.1916,-18.4713"/>
<polygon fill="#191970" stroke="#191970" points="55.587,-21.6886 63.8014,-14.9973 53.2071,-15.1056 55.587,-21.6886"/>
</g>
<!-- Node5 -->
<g id="node5" class="node">
<title>Node5</title>
<polygon fill="none" stroke="#bfbfbf" points="12.442,-57.5 12.442,-77.5 51.442,-77.5 51.442,-57.5 12.442,-57.5"/>
<text text-anchor="middle" x="31.942" y="-64.5" font-family="FreeSans" font-size="10.00" fill="#000000">map</text>
</g>
<!-- Node1&#45;&gt;Node5 -->
<g id="edge7" class="edge">
<title>Node1&#45;&gt;Node5</title>
<path fill="none" stroke="#191970" d="M81.9355,-171.4482C71.3434,-161.2889 59.7749,-148.498 51.942,-135 43.4226,-120.3191 38.2607,-101.7022 35.3207,-87.74"/>
<polygon fill="#191970" stroke="#191970" points="38.7196,-86.8774 33.4175,-77.7047 31.8422,-88.1817 38.7196,-86.8774"/>
</g>
<!-- Node6 -->
<g id="node6" class="node">
<title>Node6</title>
<polygon fill="none" stroke="#bfbfbf" points="223.442,-57.5 223.442,-77.5 268.442,-77.5 268.442,-57.5 223.442,-57.5"/>
<text text-anchor="middle" x="245.942" y="-64.5" font-family="FreeSans" font-size="10.00" fill="#000000">string</text>
</g>
<!-- Node1&#45;&gt;Node6 -->
<g id="edge9" class="edge">
<title>Node1&#45;&gt;Node6</title>
<path fill="none" stroke="#191970" d="M132.296,-171.2638C159.4082,-146.5091 202.637,-107.0394 227.2255,-84.5889"/>
<polygon fill="#191970" stroke="#191970" points="229.7745,-87.001 234.7995,-77.6736 225.0546,-81.8316 229.7745,-87.001"/>
</g>
<!-- Node7 -->
<g id="node7" class="node">
<title>Node7</title>
<polygon fill="none" stroke="#bfbfbf" points="212.442,-114.5 212.442,-134.5 257.442,-134.5 257.442,-114.5 212.442,-114.5"/>
<text text-anchor="middle" x="234.942" y="-121.5" font-family="FreeSans" font-size="10.00" fill="#000000">utility</text>
</g>
<!-- Node1&#45;&gt;Node7 -->
<g id="edge10" class="edge">
<title>Node1&#45;&gt;Node7</title>
<path fill="none" stroke="#191970" d="M148.4748,-171.4783C167.7073,-161.0291 190.1884,-148.815 207.4063,-139.4603"/>
<polygon fill="#191970" stroke="#191970" points="209.2603,-142.4363 216.3763,-134.5869 205.9185,-136.2855 209.2603,-142.4363"/>
</g>
<!-- Node3 -->
<g id="node3" class="node">
<title>Node3</title>
<g id="a_node3"><a xlink:href="../../d8/d89/BaseTruthEval_8h.html" target="_top" xlink:title="BaseTruthEval.h">
<polygon fill="none" stroke="#000000" points="108.442,-57.5 108.442,-77.5 205.442,-77.5 205.442,-57.5 108.442,-57.5"/>
<text text-anchor="middle" x="156.942" y="-64.5" font-family="FreeSans" font-size="10.00" fill="#000000">BaseTruthEval.h</text>
</a>
</g>
</g>
<!-- Node2&#45;&gt;Node3 -->
<g id="edge2" class="edge">
<title>Node2&#45;&gt;Node3</title>
<path fill="none" stroke="#191970" d="M116.7022,-114.3095C123.6005,-106.2851 133.3857,-94.9022 141.5794,-85.3708"/>
<polygon fill="#191970" stroke="#191970" points="144.3928,-87.467 148.2576,-77.6022 139.0846,-82.9038 144.3928,-87.467"/>
</g>
<!-- Node2&#45;&gt;Node4 -->
<g id="edge5" class="edge">
<title>Node2&#45;&gt;Node4</title>
<path fill="none" stroke="#191970" d="M105.4572,-114.3833C100.861,-95.6703 90.952,-55.3266 84.9247,-30.7866"/>
<polygon fill="#191970" stroke="#191970" points="88.2458,-29.6344 82.4615,-20.7579 81.4478,-31.3042 88.2458,-29.6344"/>
</g>
<!-- Node2&#45;&gt;Node5 -->
<g id="edge4" class="edge">
<title>Node2&#45;&gt;Node5</title>
<path fill="none" stroke="#191970" d="M94.3547,-114.3095C83.007,-105.7987 66.6222,-93.5102 53.4878,-83.6594"/>
<polygon fill="#191970" stroke="#191970" points="55.5117,-80.8023 45.4116,-77.6022 51.3117,-86.4023 55.5117,-80.8023"/>
</g>
<!-- Node2&#45;&gt;Node6 -->
<g id="edge6" class="edge">
<title>Node2&#45;&gt;Node6</title>
<path fill="none" stroke="#191970" d="M132.296,-114.4408C154.9747,-105.0734 188.9301,-91.0484 213.8198,-80.7678"/>
<polygon fill="#191970" stroke="#191970" points="215.2984,-83.944 223.2049,-76.8914 212.626,-77.4742 215.2984,-83.944"/>
</g>
<!-- Node3&#45;&gt;Node4 -->
<g id="edge3" class="edge">
<title>Node3&#45;&gt;Node4</title>
<path fill="none" stroke="#191970" d="M143.1759,-57.3095C131.6789,-48.7987 115.0786,-36.5102 101.7713,-26.6594"/>
<polygon fill="#191970" stroke="#191970" points="103.7088,-23.7389 93.5889,-20.6022 99.5439,-29.3652 103.7088,-23.7389"/>
</g>
</g>
</svg>
