<?xml version="1.0" encoding="UTF-8" standalone="no"?>
<!DOCTYPE svg PUBLIC "-//W3C//DTD SVG 1.1//EN"
 "http://www.w3.org/Graphics/SVG/1.1/DTD/svg11.dtd">
<!-- Generated by graphviz version 2.40.1 (20161225.0304)
 -->
<!-- Title: macros/blob/master/macros/g4simulations/G4_HIJetReco.C Pages: 1 -->
<svg width="491pt" height="134pt"
 viewBox="0.00 0.00 490.50 134.00" xmlns="http://www.w3.org/2000/svg" xmlns:xlink="http://www.w3.org/1999/xlink">
<g id="graph0" class="graph" transform="scale(1 1) rotate(0) translate(4 130)">
<title>macros/blob/master/macros/g4simulations/G4_HIJetReco.C</title>
<!-- Node1 -->
<g id="node1" class="node">
<title>Node1</title>
<polygon fill="#bfbfbf" stroke="#000000" points="172,-81.5 172,-125.5 304,-125.5 304,-81.5 172,-81.5"/>
<text text-anchor="start" x="180" y="-112.5" font-family="FreeSans" font-size="10.00" fill="#000000">macros/blob/master</text>
<text text-anchor="start" x="180" y="-100.5" font-family="FreeSans" font-size="10.00" fill="#000000">/macros/g4simulations</text>
<text text-anchor="middle" x="238" y="-88.5" font-family="FreeSans" font-size="10.00" fill="#000000">/G4_HIJetReco.C</text>
</g>
<!-- Node2 -->
<g id="node2" class="node">
<title>Node2</title>
<g id="a_node2"><a xlink:href="../../da/d02/Fun4All__G4__EICDetector_8C.html" target="_top" xlink:title="macros/blob/master\l/macros/g4simulations\l/Fun4All_G4_EICDetector.C">
<polygon fill="none" stroke="#000000" points="0,-.5 0,-44.5 152,-44.5 152,-.5 0,-.5"/>
<text text-anchor="start" x="8" y="-31.5" font-family="FreeSans" font-size="10.00" fill="#000000">macros/blob/master</text>
<text text-anchor="start" x="8" y="-19.5" font-family="FreeSans" font-size="10.00" fill="#000000">/macros/g4simulations</text>
<text text-anchor="middle" x="76" y="-7.5" font-family="FreeSans" font-size="10.00" fill="#000000">/Fun4All_G4_EICDetector.C</text>
</a>
</g>
</g>
<!-- Node1&#45;&gt;Node2 -->
<g id="edge1" class="edge">
<title>Node1&#45;&gt;Node2</title>
<path fill="none" stroke="#191970" d="M184.6674,-76.8337C163.787,-66.3935 140.1188,-54.5594 120.2137,-44.6068"/>
<polygon fill="#191970" stroke="#191970" points="183.2232,-80.0247 193.7328,-81.3664 186.3538,-73.7637 183.2232,-80.0247"/>
</g>
<!-- Node3 -->
<g id="node3" class="node">
<title>Node3</title>
<g id="a_node3"><a xlink:href="../../d5/d2c/macros_2blob_2master_2macros_2g4simulations_2Fun4All__G4__sPHENIX_8C.html" target="_top" xlink:title="macros/blob/master\l/macros/g4simulations\l/Fun4All_G4_sPHENIX.C">
<polygon fill="none" stroke="#000000" points="170.5,-.5 170.5,-44.5 305.5,-44.5 305.5,-.5 170.5,-.5"/>
<text text-anchor="start" x="178.5" y="-31.5" font-family="FreeSans" font-size="10.00" fill="#000000">macros/blob/master</text>
<text text-anchor="start" x="178.5" y="-19.5" font-family="FreeSans" font-size="10.00" fill="#000000">/macros/g4simulations</text>
<text text-anchor="middle" x="238" y="-7.5" font-family="FreeSans" font-size="10.00" fill="#000000">/Fun4All_G4_sPHENIX.C</text>
</a>
</g>
</g>
<!-- Node1&#45;&gt;Node3 -->
<g id="edge2" class="edge">
<title>Node1&#45;&gt;Node3</title>
<path fill="none" stroke="#191970" d="M238,-71.2457C238,-62.3118 238,-52.8188 238,-44.6068"/>
<polygon fill="#191970" stroke="#191970" points="234.5001,-71.3664 238,-81.3664 241.5001,-71.3664 234.5001,-71.3664"/>
</g>
<!-- Node4 -->
<g id="node4" class="node">
<title>Node4</title>
<g id="a_node4"><a xlink:href="../../de/da9/ReadClustersRunTracking_8C.html" target="_top" xlink:title="macros/blob/master\l/macros/g4simulations\l/ReadClustersRunTracking.C">
<polygon fill="none" stroke="#000000" points="323.5,-.5 323.5,-44.5 482.5,-44.5 482.5,-.5 323.5,-.5"/>
<text text-anchor="start" x="331.5" y="-31.5" font-family="FreeSans" font-size="10.00" fill="#000000">macros/blob/master</text>
<text text-anchor="start" x="331.5" y="-19.5" font-family="FreeSans" font-size="10.00" fill="#000000">/macros/g4simulations</text>
<text text-anchor="middle" x="403" y="-7.5" font-family="FreeSans" font-size="10.00" fill="#000000">/ReadClustersRunTracking.C</text>
</a>
</g>
</g>
<!-- Node1&#45;&gt;Node4 -->
<g id="edge3" class="edge">
<title>Node1&#45;&gt;Node4</title>
<path fill="none" stroke="#191970" d="M292.3202,-76.8337C313.5873,-66.3935 337.6938,-54.5594 357.9675,-44.6068"/>
<polygon fill="#191970" stroke="#191970" points="290.5213,-73.8178 283.087,-81.3664 293.606,-80.1014 290.5213,-73.8178"/>
</g>
</g>
</svg>
