<?xml version="1.0" encoding="UTF-8" standalone="no"?>
<!DOCTYPE svg PUBLIC "-//W3C//DTD SVG 1.1//EN"
 "http://www.w3.org/Graphics/SVG/1.1/DTD/svg11.dtd">
<!-- Generated by graphviz version 2.40.1 (20161225.0304)
 -->
<!-- Title: G__Sizep2memfuncQuarkonia2LeptonsMC_Dict::sizep2memfunc Pages: 1 -->
<svg width="856pt" height="53pt"
 viewBox="0.00 0.00 856.00 53.00" xmlns="http://www.w3.org/2000/svg" xmlns:xlink="http://www.w3.org/1999/xlink">
<g id="graph0" class="graph" transform="scale(1 1) rotate(0) translate(4 49)">
<title>G__Sizep2memfuncQuarkonia2LeptonsMC_Dict::sizep2memfunc</title>
<!-- Node1 -->
<g id="node1" class="node">
<title>Node1</title>
<polygon fill="#bfbfbf" stroke="#000000" points="0,-6.5 0,-38.5 184,-38.5 184,-6.5 0,-6.5"/>
<text text-anchor="start" x="8" y="-25.5" font-family="FreeSans" font-size="10.00" fill="#000000">G__Sizep2memfuncQuarkonia2</text>
<text text-anchor="middle" x="92" y="-13.5" font-family="FreeSans" font-size="10.00" fill="#000000">LeptonsMC_Dict::sizep2memfunc</text>
</g>
<!-- Node2 -->
<g id="node2" class="node">
<title>Node2</title>
<g id="a_node2"><a xlink:href="../../d0/dd7/Quarkonia2LeptonsMC__Dict_8C.html#a7a6c516fd85ffcb83741e1cbb6e55320" target="_top" xlink:title="G__get_sizep2memfuncQuarkonia2\lLeptonsMC_Dict">
<polygon fill="none" stroke="#000000" points="220,-6.5 220,-38.5 414,-38.5 414,-6.5 220,-6.5"/>
<text text-anchor="start" x="228" y="-25.5" font-family="FreeSans" font-size="10.00" fill="#000000">G__get_sizep2memfuncQuarkonia2</text>
<text text-anchor="middle" x="317" y="-13.5" font-family="FreeSans" font-size="10.00" fill="#000000">LeptonsMC_Dict</text>
</a>
</g>
</g>
<!-- Node1&#45;&gt;Node2 -->
<g id="edge1" class="edge">
<title>Node1&#45;&gt;Node2</title>
<path fill="none" stroke="#191970" d="M194.4379,-22.5C202.9013,-22.5 211.4413,-22.5 219.8642,-22.5"/>
<polygon fill="#191970" stroke="#191970" points="194.1653,-19.0001 184.1653,-22.5 194.1653,-26.0001 194.1653,-19.0001"/>
</g>
<!-- Node3 -->
<g id="node3" class="node">
<title>Node3</title>
<g id="a_node3"><a xlink:href="../../d0/dd7/Quarkonia2LeptonsMC__Dict_8C.html#aeb53a8e2d91a5dbd3710db7f3402414d" target="_top" xlink:title="G__cpp_setupQuarkonia2Leptons\lMC_Dict">
<polygon fill="none" stroke="#000000" points="450,-6.5 450,-38.5 634,-38.5 634,-6.5 450,-6.5"/>
<text text-anchor="start" x="458" y="-25.5" font-family="FreeSans" font-size="10.00" fill="#000000">G__cpp_setupQuarkonia2Leptons</text>
<text text-anchor="middle" x="542" y="-13.5" font-family="FreeSans" font-size="10.00" fill="#000000">MC_Dict</text>
</a>
</g>
</g>
<!-- Node2&#45;&gt;Node3 -->
<g id="edge2" class="edge">
<title>Node2&#45;&gt;Node3</title>
<path fill="none" stroke="#191970" d="M424.1317,-22.5C432.7443,-22.5 441.3989,-22.5 449.893,-22.5"/>
<polygon fill="#191970" stroke="#191970" points="424.0528,-19.0001 414.0528,-22.5 424.0528,-26.0001 424.0528,-19.0001"/>
</g>
<!-- Node4 -->
<g id="node4" class="node">
<title>Node4</title>
<g id="a_node4"><a xlink:href="../../d8/d97/classG____cpp__setup__initQuarkonia2LeptonsMC__Dict.html#a429a749d241cbc657b838480dd91e09a" target="_top" xlink:title="G__cpp_setup_initQuarkonia2\lLeptonsMC_Dict::G__cpp_setup\l_initQuarkonia2LeptonsMC_Dict">
<polygon fill="none" stroke="#000000" points="670,-.5 670,-44.5 848,-44.5 848,-.5 670,-.5"/>
<text text-anchor="start" x="678" y="-31.5" font-family="FreeSans" font-size="10.00" fill="#000000">G__cpp_setup_initQuarkonia2</text>
<text text-anchor="start" x="678" y="-19.5" font-family="FreeSans" font-size="10.00" fill="#000000">LeptonsMC_Dict::G__cpp_setup</text>
<text text-anchor="middle" x="759" y="-7.5" font-family="FreeSans" font-size="10.00" fill="#000000">_initQuarkonia2LeptonsMC_Dict</text>
</a>
</g>
</g>
<!-- Node3&#45;&gt;Node4 -->
<g id="edge3" class="edge">
<title>Node3&#45;&gt;Node4</title>
<path fill="none" stroke="#191970" d="M644.1175,-22.5C652.745,-22.5 661.4265,-22.5 669.9428,-22.5"/>
<polygon fill="#191970" stroke="#191970" points="644.0276,-19.0001 634.0275,-22.5 644.0275,-26.0001 644.0276,-19.0001"/>
</g>
</g>
</svg>
