<?xml version="1.0" encoding="UTF-8" standalone="no"?>
<!DOCTYPE svg PUBLIC "-//W3C//DTD SVG 1.1//EN"
 "http://www.w3.org/Graphics/SVG/1.1/DTD/svg11.dtd">
<!-- Generated by graphviz version 2.40.1 (20161225.0304)
 -->
<!-- Title: PHG4TruthInfoContainer::GetPrimaryVtxRange Pages: 1 -->
<svg width="925pt" height="745pt"
 viewBox="0.00 0.00 925.00 745.19" xmlns="http://www.w3.org/2000/svg" xmlns:xlink="http://www.w3.org/1999/xlink">
<g id="graph0" class="graph" transform="scale(1 1) rotate(0) translate(4 741.1908)">
<title>PHG4TruthInfoContainer::GetPrimaryVtxRange</title>
<!-- Node1 -->
<g id="node1" class="node">
<title>Node1</title>
<polygon fill="#bfbfbf" stroke="#000000" points="0,-356.6908 0,-388.6908 139,-388.6908 139,-356.6908 0,-356.6908"/>
<text text-anchor="start" x="8" y="-375.6908" font-family="FreeSans" font-size="10.00" fill="#000000">PHG4TruthInfoContainer</text>
<text text-anchor="middle" x="69.5" y="-363.6908" font-family="FreeSans" font-size="10.00" fill="#000000">::GetPrimaryVtxRange</text>
</g>
<!-- Node2 -->
<g id="node2" class="node">
<title>Node2</title>
<g id="a_node2"><a xlink:href="../../de/d25/classPHGenFitTrkFitter.html#a07b61c37533b232e691d7223322792eb" target="_top" xlink:title="PHGenFitTrkFitter::\lfill_eval_tree">
<polygon fill="none" stroke="#000000" points="191,-567.6908 191,-599.6908 300,-599.6908 300,-567.6908 191,-567.6908"/>
<text text-anchor="start" x="199" y="-586.6908" font-family="FreeSans" font-size="10.00" fill="#000000">PHGenFitTrkFitter::</text>
<text text-anchor="middle" x="245.5" y="-574.6908" font-family="FreeSans" font-size="10.00" fill="#000000">fill_eval_tree</text>
</a>
</g>
</g>
<!-- Node1&#45;&gt;Node2 -->
<g id="edge1" class="edge">
<title>Node1&#45;&gt;Node2</title>
<path fill="none" stroke="#191970" d="M89.5028,-396.6714C125.6867,-440.0509 201.114,-530.4781 231.9358,-567.4291"/>
<polygon fill="#191970" stroke="#191970" points="92.1114,-394.3346 83.0182,-388.8972 86.7359,-398.8184 92.1114,-394.3346"/>
</g>
<!-- Node4 -->
<g id="node4" class="node">
<title>Node4</title>
<g id="a_node4"><a xlink:href="../../d6/d11/classSvtxEvaluator.html#ace95fef2b7b4ad8b797f6695e053dd6e" target="_top" xlink:title="dump the evaluator information into ntuple for external analysis">
<polygon fill="none" stroke="#000000" points="175,-158.6908 175,-190.6908 316,-190.6908 316,-158.6908 175,-158.6908"/>
<text text-anchor="start" x="183" y="-177.6908" font-family="FreeSans" font-size="10.00" fill="#000000">SvtxEvaluator::fillOutput</text>
<text text-anchor="middle" x="245.5" y="-165.6908" font-family="FreeSans" font-size="10.00" fill="#000000">Ntuples</text>
</a>
</g>
</g>
<!-- Node1&#45;&gt;Node4 -->
<g id="edge3" class="edge">
<title>Node1&#45;&gt;Node4</title>
<path fill="none" stroke="#191970" d="M90.6457,-348.9018C126.9401,-308.0707 200.171,-225.6859 231.145,-190.8401"/>
<polygon fill="#191970" stroke="#191970" points="87.9305,-346.6882 83.9028,-356.4876 93.1624,-351.3388 87.9305,-346.6882"/>
</g>
<!-- Node6 -->
<g id="node6" class="node">
<title>Node6</title>
<g id="a_node6"><a xlink:href="../../da/d6c/classPHG4TruthInfoContainer.html#a77051a88c6708ed10465eca6b73c2272" target="_top" xlink:title="PHG4TruthInfoContainer\l::GetPrimaryVertexIndex">
<polygon fill="none" stroke="#000000" points="175.5,-356.6908 175.5,-388.6908 315.5,-388.6908 315.5,-356.6908 175.5,-356.6908"/>
<text text-anchor="start" x="183.5" y="-375.6908" font-family="FreeSans" font-size="10.00" fill="#000000">PHG4TruthInfoContainer</text>
<text text-anchor="middle" x="245.5" y="-363.6908" font-family="FreeSans" font-size="10.00" fill="#000000">::GetPrimaryVertexIndex</text>
</a>
</g>
</g>
<!-- Node1&#45;&gt;Node6 -->
<g id="edge5" class="edge">
<title>Node1&#45;&gt;Node6</title>
<path fill="none" stroke="#191970" d="M149.2041,-372.6908C157.9057,-372.6908 166.7165,-372.6908 175.2921,-372.6908"/>
<polygon fill="#191970" stroke="#191970" points="149.0599,-369.1909 139.0599,-372.6908 149.0598,-376.1909 149.0599,-369.1909"/>
</g>
<!-- Node3 -->
<g id="node3" class="node">
<title>Node3</title>
<g id="a_node3"><a xlink:href="../../de/d25/classPHGenFitTrkFitter.html#a2e088a68ab24c5b89b902205f877f9d6" target="_top" xlink:title="Process Event, called for each event.">
<polygon fill="none" stroke="#000000" points="583,-689.6908 583,-721.6908 692,-721.6908 692,-689.6908 583,-689.6908"/>
<text text-anchor="start" x="591" y="-708.6908" font-family="FreeSans" font-size="10.00" fill="#000000">PHGenFitTrkFitter::</text>
<text text-anchor="middle" x="637.5" y="-696.6908" font-family="FreeSans" font-size="10.00" fill="#000000">process_event</text>
</a>
</g>
</g>
<!-- Node2&#45;&gt;Node3 -->
<g id="edge2" class="edge">
<title>Node2&#45;&gt;Node3</title>
<path fill="none" stroke="#191970" d="M258.9914,-608.7792C276.2021,-637.8235 308.9694,-684.1657 352,-703.6908 426.3646,-737.4337 523.2572,-728.5741 582.8829,-717.971"/>
<polygon fill="#191970" stroke="#191970" points="261.9722,-606.9416 253.9569,-600.013 255.9021,-610.4278 261.9722,-606.9416"/>
</g>
<!-- Node5 -->
<g id="node5" class="node">
<title>Node5</title>
<g id="a_node5"><a xlink:href="../../d6/d11/classSvtxEvaluator.html#ac66ea4145deb621d9e4fb38cf852dc33" target="_top" xlink:title="SvtxEvaluator::process\l_event">
<polygon fill="none" stroke="#000000" points="571.5,-133.6908 571.5,-165.6908 703.5,-165.6908 703.5,-133.6908 571.5,-133.6908"/>
<text text-anchor="start" x="579.5" y="-152.6908" font-family="FreeSans" font-size="10.00" fill="#000000">SvtxEvaluator::process</text>
<text text-anchor="middle" x="637.5" y="-140.6908" font-family="FreeSans" font-size="10.00" fill="#000000">_event</text>
</a>
</g>
</g>
<!-- Node4&#45;&gt;Node5 -->
<g id="edge4" class="edge">
<title>Node4&#45;&gt;Node5</title>
<path fill="none" stroke="#191970" d="M254.9718,-148.8994C269.5917,-113.3791 301.3774,-50.8332 352,-24.6908 419.5272,10.1815 453.4391,5.9243 523,-24.6908 574.1788,-47.2155 612.4605,-105.1604 628.7978,-133.541"/>
<polygon fill="#191970" stroke="#191970" points="251.571,-147.9811 251.1425,-158.5673 258.0791,-150.5589 251.571,-147.9811"/>
</g>
<!-- Node7 -->
<g id="node7" class="node">
<title>Node7</title>
<g id="a_node7"><a xlink:href="../../d8/df7/classPHAna.html#a17bf79453780887bdf03b5c90610fd6e" target="_top" xlink:title="PHAna::fill_histos">
<polygon fill="none" stroke="#000000" points="385.5,-622.6908 385.5,-642.6908 489.5,-642.6908 489.5,-622.6908 385.5,-622.6908"/>
<text text-anchor="middle" x="437.5" y="-629.6908" font-family="FreeSans" font-size="10.00" fill="#000000">PHAna::fill_histos</text>
</a>
</g>
</g>
<!-- Node6&#45;&gt;Node7 -->
<g id="edge6" class="edge">
<title>Node6&#45;&gt;Node7</title>
<path fill="none" stroke="#191970" d="M255.2318,-398.1217C277.9896,-457.0446 334.1089,-599.0241 352,-613.6908 361.4076,-621.4028 373.2851,-626.1503 385.17,-629.033"/>
<polygon fill="#191970" stroke="#191970" points="258.4906,-396.8444 251.6309,-388.77 251.9581,-399.3598 258.4906,-396.8444"/>
</g>
<!-- Node9 -->
<g id="node9" class="node">
<title>Node9</title>
<g id="a_node9"><a xlink:href="../../dd/d59/classCaloEvaluator.html#a5298ee9646d361a4960fc0e20f83c880" target="_top" xlink:title="dump the evaluator information into ntuple for external analysis">
<polygon fill="none" stroke="#000000" points="367,-571.6908 367,-603.6908 508,-603.6908 508,-571.6908 367,-571.6908"/>
<text text-anchor="start" x="375" y="-590.6908" font-family="FreeSans" font-size="10.00" fill="#000000">CaloEvaluator::fillOutput</text>
<text text-anchor="middle" x="437.5" y="-578.6908" font-family="FreeSans" font-size="10.00" fill="#000000">Ntuples</text>
</a>
</g>
</g>
<!-- Node6&#45;&gt;Node9 -->
<g id="edge8" class="edge">
<title>Node6&#45;&gt;Node9</title>
<path fill="none" stroke="#191970" d="M253.0191,-398.7458C266.2073,-439.7824 297.4257,-519.2594 352,-562.6908 356.4774,-566.2539 361.4465,-569.3094 366.6718,-571.9294"/>
<polygon fill="#191970" stroke="#191970" points="256.2868,-397.4664 249.9814,-388.9522 249.6011,-399.5402 256.2868,-397.4664"/>
</g>
<!-- Node11 -->
<g id="node11" class="node">
<title>Node11</title>
<g id="a_node11"><a xlink:href="../../da/d6c/classPHG4TruthInfoContainer.html#a349601fb176f9c6a2b2910831870cb81" target="_top" xlink:title="PHG4TruthInfoContainer\l::identify">
<polygon fill="none" stroke="#000000" points="368,-481.6908 368,-513.6908 507,-513.6908 507,-481.6908 368,-481.6908"/>
<text text-anchor="start" x="376" y="-500.6908" font-family="FreeSans" font-size="10.00" fill="#000000">PHG4TruthInfoContainer</text>
<text text-anchor="middle" x="437.5" y="-488.6908" font-family="FreeSans" font-size="10.00" fill="#000000">::identify</text>
</a>
</g>
</g>
<!-- Node6&#45;&gt;Node11 -->
<g id="edge10" class="edge">
<title>Node6&#45;&gt;Node11</title>
<path fill="none" stroke="#191970" d="M265.2109,-396.8478C284.9416,-419.5272 317.2869,-452.8522 352,-472.6908 357.908,-476.0672 364.3108,-479.0215 370.8639,-481.599"/>
<polygon fill="#191970" stroke="#191970" points="267.6845,-394.3545 258.5314,-389.0186 262.3592,-398.8978 267.6845,-394.3545"/>
</g>
<!-- Node22 -->
<g id="node22" class="node">
<title>Node22</title>
<g id="a_node22"><a xlink:href="../../de/d25/classPHGenFitTrkFitter.html#a458cc1e5f1d6f6e4b20e0c0d266ff74b" target="_top" xlink:title="Make SvtxTrack from PHGenFit::Track and SvtxTrack.">
<polygon fill="none" stroke="#000000" points="383,-661.6908 383,-693.6908 492,-693.6908 492,-661.6908 383,-661.6908"/>
<text text-anchor="start" x="391" y="-680.6908" font-family="FreeSans" font-size="10.00" fill="#000000">PHGenFitTrkFitter::</text>
<text text-anchor="middle" x="437.5" y="-668.6908" font-family="FreeSans" font-size="10.00" fill="#000000">MakeSvtxTrack</text>
</a>
</g>
</g>
<!-- Node6&#45;&gt;Node22 -->
<g id="edge22" class="edge">
<title>Node6&#45;&gt;Node22</title>
<path fill="none" stroke="#191970" d="M255.3268,-398.6389C281.5741,-467.9315 351.3798,-652.1177 352,-652.6908 360.6327,-660.6672 371.6753,-666.111 382.936,-669.8229"/>
<polygon fill="#191970" stroke="#191970" points="258.4595,-397.0282 251.6442,-388.9162 251.9133,-399.5076 258.4595,-397.0282"/>
</g>
<!-- Node23 -->
<g id="node23" class="node">
<title>Node23</title>
<g id="a_node23"><a xlink:href="../../d8/d98/classpsTOFTimezeroEval.html#a506f1d899507a34d445b7c1bbf514fb0" target="_top" xlink:title="print out the ancestry information for detailed diagnosis">
<polygon fill="none" stroke="#000000" points="376.5,-430.6908 376.5,-462.6908 498.5,-462.6908 498.5,-430.6908 376.5,-430.6908"/>
<text text-anchor="start" x="384.5" y="-449.6908" font-family="FreeSans" font-size="10.00" fill="#000000">psTOFTimezeroEval::</text>
<text text-anchor="middle" x="437.5" y="-437.6908" font-family="FreeSans" font-size="10.00" fill="#000000">printOutputInfo</text>
</a>
</g>
</g>
<!-- Node6&#45;&gt;Node23 -->
<g id="edge24" class="edge">
<title>Node6&#45;&gt;Node23</title>
<path fill="none" stroke="#191970" d="M286.3677,-393.2029C305.94,-402.5826 329.8834,-413.4205 352,-421.6908 360.4017,-424.8325 369.3851,-427.8339 378.2554,-430.5973"/>
<polygon fill="#191970" stroke="#191970" points="287.6635,-389.9417 277.1378,-388.7331 284.6125,-396.2418 287.6635,-389.9417"/>
</g>
<!-- Node25 -->
<g id="node25" class="node">
<title>Node25</title>
<g id="a_node25"><a xlink:href="../../d2/d85/classSvtxEvaluatorHaiwang.html#a25f5176857128e2009be02655d32dabe" target="_top" xlink:title="print out the ancestry information for detailed diagnosis">
<polygon fill="none" stroke="#000000" points="372,-379.6908 372,-411.6908 503,-411.6908 503,-379.6908 372,-379.6908"/>
<text text-anchor="start" x="380" y="-398.6908" font-family="FreeSans" font-size="10.00" fill="#000000">SvtxEvaluatorHaiwang</text>
<text text-anchor="middle" x="437.5" y="-386.6908" font-family="FreeSans" font-size="10.00" fill="#000000">::printOutputInfo</text>
</a>
</g>
</g>
<!-- Node6&#45;&gt;Node25 -->
<g id="edge26" class="edge">
<title>Node6&#45;&gt;Node25</title>
<path fill="none" stroke="#191970" d="M325.6205,-382.2885C340.9693,-384.1272 356.8751,-386.0326 371.7094,-387.8096"/>
<polygon fill="#191970" stroke="#191970" points="325.9767,-378.8063 315.6314,-381.0919 325.1441,-385.7566 325.9767,-378.8063"/>
</g>
<!-- Node27 -->
<g id="node27" class="node">
<title>Node27</title>
<g id="a_node27"><a xlink:href="../../d6/d11/classSvtxEvaluator.html#aef548ddeafdf0ebc949f29e88a741db8" target="_top" xlink:title="print out the ancestry information for detailed diagnosis">
<polygon fill="none" stroke="#000000" points="352,-340.6908 352,-360.6908 523,-360.6908 523,-340.6908 352,-340.6908"/>
<text text-anchor="middle" x="437.5" y="-347.6908" font-family="FreeSans" font-size="10.00" fill="#000000">SvtxEvaluator::printOutputInfo</text>
</a>
</g>
</g>
<!-- Node6&#45;&gt;Node27 -->
<g id="edge28" class="edge">
<title>Node6&#45;&gt;Node27</title>
<path fill="none" stroke="#191970" d="M325.6897,-363.5024C334.3417,-362.511 343.1699,-361.4994 351.8827,-360.5011"/>
<polygon fill="#191970" stroke="#191970" points="325.1679,-360.0391 315.6314,-364.6549 325.9649,-366.9936 325.1679,-360.0391"/>
</g>
<!-- Node28 -->
<g id="node28" class="node">
<title>Node28</title>
<g id="a_node28"><a xlink:href="../../dd/d59/classCaloEvaluator.html#ab7e09466d57c5b93274f09f61c0f321e" target="_top" xlink:title="print out the ancestry information for detailed diagnosis">
<polygon fill="none" stroke="#000000" points="352,-532.6908 352,-552.6908 523,-552.6908 523,-532.6908 352,-532.6908"/>
<text text-anchor="middle" x="437.5" y="-539.6908" font-family="FreeSans" font-size="10.00" fill="#000000">CaloEvaluator::printOutputInfo</text>
</a>
</g>
</g>
<!-- Node6&#45;&gt;Node28 -->
<g id="edge30" class="edge">
<title>Node6&#45;&gt;Node28</title>
<path fill="none" stroke="#191970" d="M256.2806,-398.2112C272.0812,-432.3708 304.8573,-492.2899 352,-523.6908 357.4418,-527.3155 363.4678,-530.2585 369.7282,-532.6467"/>
<polygon fill="#191970" stroke="#191970" points="259.3891,-396.5895 252.1001,-388.9005 253.0032,-399.4568 259.3891,-396.5895"/>
</g>
<!-- Node29 -->
<g id="node29" class="node">
<title>Node29</title>
<g id="a_node29"><a xlink:href="../../d8/dc7/classMomentumEvaluator.html#a19c5f2c6d74578feea3513322e9f1fe3" target="_top" xlink:title="MomentumEvaluator::\lprocess_event">
<polygon fill="none" stroke="#000000" points="373.5,-289.6908 373.5,-321.6908 501.5,-321.6908 501.5,-289.6908 373.5,-289.6908"/>
<text text-anchor="start" x="381.5" y="-308.6908" font-family="FreeSans" font-size="10.00" fill="#000000">MomentumEvaluator::</text>
<text text-anchor="middle" x="437.5" y="-296.6908" font-family="FreeSans" font-size="10.00" fill="#000000">process_event</text>
</a>
</g>
</g>
<!-- Node6&#45;&gt;Node29 -->
<g id="edge32" class="edge">
<title>Node6&#45;&gt;Node29</title>
<path fill="none" stroke="#191970" d="M294.8559,-352.8363C312.7511,-345.8644 333.1892,-338.1623 352,-331.6908 361.8295,-328.3091 372.3704,-324.9166 382.577,-321.7506"/>
<polygon fill="#191970" stroke="#191970" points="293.2342,-349.7127 285.2022,-356.6221 295.7898,-356.2296 293.2342,-349.7127"/>
</g>
<!-- Node30 -->
<g id="node30" class="node">
<title>Node30</title>
<g id="a_node30"><a xlink:href="../../db/d4c/classBJetModule.html#a93ec29147c2d7aea52780d7370141e74" target="_top" xlink:title="BJetModule::process\l_event">
<polygon fill="none" stroke="#000000" points="378,-238.6908 378,-270.6908 497,-270.6908 497,-238.6908 378,-238.6908"/>
<text text-anchor="start" x="386" y="-257.6908" font-family="FreeSans" font-size="10.00" fill="#000000">BJetModule::process</text>
<text text-anchor="middle" x="437.5" y="-245.6908" font-family="FreeSans" font-size="10.00" fill="#000000">_event</text>
</a>
</g>
</g>
<!-- Node6&#45;&gt;Node30 -->
<g id="edge33" class="edge">
<title>Node6&#45;&gt;Node30</title>
<path fill="none" stroke="#191970" d="M267.2904,-348.9239C287.4493,-328.23 319.1767,-298.7864 352,-280.6908 360.0163,-276.2714 368.879,-272.508 377.7721,-269.3331"/>
<polygon fill="#191970" stroke="#191970" points="264.5365,-346.7394 260.1525,-356.3847 269.5945,-351.5785 264.5365,-346.7394"/>
</g>
<!-- Node31 -->
<g id="node31" class="node">
<title>Node31</title>
<g id="a_node31"><a xlink:href="../../d1/d89/classBbcVertexFastSimReco.html#acbf212b1bebbe61876b533e0cf5a2eab" target="_top" xlink:title="BbcVertexFastSimReco\l::process_event">
<polygon fill="none" stroke="#000000" points="372,-187.6908 372,-219.6908 503,-219.6908 503,-187.6908 372,-187.6908"/>
<text text-anchor="start" x="380" y="-206.6908" font-family="FreeSans" font-size="10.00" fill="#000000">BbcVertexFastSimReco</text>
<text text-anchor="middle" x="437.5" y="-194.6908" font-family="FreeSans" font-size="10.00" fill="#000000">::process_event</text>
</a>
</g>
</g>
<!-- Node6&#45;&gt;Node31 -->
<g id="edge34" class="edge">
<title>Node6&#45;&gt;Node31</title>
<path fill="none" stroke="#191970" d="M257.9846,-347.1097C274.9235,-315.0315 308.1725,-260.5144 352,-229.6908 358.0915,-225.4066 364.9045,-221.815 371.9544,-218.8068"/>
<polygon fill="#191970" stroke="#191970" points="254.7222,-345.8004 253.2577,-356.2935 260.9462,-349.0039 254.7222,-345.8004"/>
</g>
<!-- Node32 -->
<g id="node32" class="node">
<title>Node32</title>
<g id="a_node32"><a xlink:href="../../da/d12/classGlobalVertexFastSimReco.html#aa847bedea594b6493608177209e39ddf" target="_top" xlink:title="GlobalVertexFastSimReco\l::process_event">
<polygon fill="none" stroke="#000000" points="365,-136.6908 365,-168.6908 510,-168.6908 510,-136.6908 365,-136.6908"/>
<text text-anchor="start" x="373" y="-155.6908" font-family="FreeSans" font-size="10.00" fill="#000000">GlobalVertexFastSimReco</text>
<text text-anchor="middle" x="437.5" y="-143.6908" font-family="FreeSans" font-size="10.00" fill="#000000">::process_event</text>
</a>
</g>
</g>
<!-- Node6&#45;&gt;Node32 -->
<g id="edge35" class="edge">
<title>Node6&#45;&gt;Node32</title>
<path fill="none" stroke="#191970" d="M252.7358,-346.7401C265.674,-305.1173 296.7296,-223.5668 352,-178.6908 356.6974,-174.8768 361.9479,-171.6214 367.474,-168.843"/>
<polygon fill="#191970" stroke="#191970" points="249.3544,-345.8313 249.8331,-356.4153 256.0592,-347.8429 249.3544,-345.8313"/>
</g>
<!-- Node33 -->
<g id="node33" class="node">
<title>Node33</title>
<g id="a_node33"><a xlink:href="../../da/dbf/classHFMLTriggerOccupancy.html#add094957c68c32da4afc212ffa24e885" target="_top" xlink:title="HFMLTriggerOccupancy\l::process_event">
<polygon fill="none" stroke="#000000" points="370.5,-85.6908 370.5,-117.6908 504.5,-117.6908 504.5,-85.6908 370.5,-85.6908"/>
<text text-anchor="start" x="378.5" y="-104.6908" font-family="FreeSans" font-size="10.00" fill="#000000">HFMLTriggerOccupancy</text>
<text text-anchor="middle" x="437.5" y="-92.6908" font-family="FreeSans" font-size="10.00" fill="#000000">::process_event</text>
</a>
</g>
</g>
<!-- Node6&#45;&gt;Node33 -->
<g id="edge36" class="edge">
<title>Node6&#45;&gt;Node33</title>
<path fill="none" stroke="#191970" d="M255.929,-347.1417C280.9912,-285.9655 343.1857,-135.5468 352,-127.6908 357.4436,-122.839 363.7704,-118.8923 370.4724,-115.682"/>
<polygon fill="#191970" stroke="#191970" points="252.652,-345.9084 252.1042,-356.4891 259.1306,-348.5594 252.652,-345.9084"/>
</g>
<!-- Node34 -->
<g id="node34" class="node">
<title>Node34</title>
<g id="a_node34"><a xlink:href="../../d9/d91/classPHG4TrackFastSim.html#a8bb22ab279c5f433069774bd2ab0a7ae" target="_top" xlink:title="Process Event, called for each event.">
<polygon fill="none" stroke="#000000" points="359.5,-34.6908 359.5,-66.6908 515.5,-66.6908 515.5,-34.6908 359.5,-34.6908"/>
<text text-anchor="start" x="367.5" y="-53.6908" font-family="FreeSans" font-size="10.00" fill="#000000">PHG4TrackFastSim::process</text>
<text text-anchor="middle" x="437.5" y="-41.6908" font-family="FreeSans" font-size="10.00" fill="#000000">_event</text>
</a>
</g>
</g>
<!-- Node6&#45;&gt;Node34 -->
<g id="edge37" class="edge">
<title>Node6&#45;&gt;Node34</title>
<path fill="none" stroke="#191970" d="M257.1194,-346.8575C271.8839,-313.4986 297.6502,-253.452 316,-200.6908 334.9912,-146.0853 311.2026,-116.654 352,-75.6908 355.3832,-72.2939 359.2007,-69.353 363.2978,-66.8077"/>
<polygon fill="#191970" stroke="#191970" points="253.7785,-345.7566 252.911,-356.3159 260.174,-348.6023 253.7785,-345.7566"/>
</g>
<!-- Node8 -->
<g id="node8" class="node">
<title>Node8</title>
<g id="a_node8"><a xlink:href="../../d8/df7/classPHAna.html#ac86b595b5c9d24f52534b5efea3cdbc4" target="_top" xlink:title="PHAna::process_event">
<polygon fill="none" stroke="#000000" points="573,-628.6908 573,-648.6908 702,-648.6908 702,-628.6908 573,-628.6908"/>
<text text-anchor="middle" x="637.5" y="-635.6908" font-family="FreeSans" font-size="10.00" fill="#000000">PHAna::process_event</text>
</a>
</g>
</g>
<!-- Node7&#45;&gt;Node8 -->
<g id="edge7" class="edge">
<title>Node7&#45;&gt;Node8</title>
<path fill="none" stroke="#191970" d="M499.6236,-634.5545C522.8898,-635.2525 549.3658,-636.0467 572.8549,-636.7514"/>
<polygon fill="#191970" stroke="#191970" points="499.626,-631.0531 489.5255,-634.2515 499.4161,-638.0499 499.626,-631.0531"/>
</g>
<!-- Node10 -->
<g id="node10" class="node">
<title>Node10</title>
<g id="a_node10"><a xlink:href="../../dd/d59/classCaloEvaluator.html#a936967e98c89ec58e7851b0661b838c0" target="_top" xlink:title="CaloEvaluator::process\l_event">
<polygon fill="none" stroke="#000000" points="571.5,-577.6908 571.5,-609.6908 703.5,-609.6908 703.5,-577.6908 571.5,-577.6908"/>
<text text-anchor="start" x="579.5" y="-596.6908" font-family="FreeSans" font-size="10.00" fill="#000000">CaloEvaluator::process</text>
<text text-anchor="middle" x="637.5" y="-584.6908" font-family="FreeSans" font-size="10.00" fill="#000000">_event</text>
</a>
</g>
</g>
<!-- Node9&#45;&gt;Node10 -->
<g id="edge9" class="edge">
<title>Node9&#45;&gt;Node10</title>
<path fill="none" stroke="#191970" d="M518.2725,-590.1139C535.8901,-590.6425 554.3352,-591.1958 571.3076,-591.705"/>
<polygon fill="#191970" stroke="#191970" points="518.113,-586.6077 508.0125,-589.8061 517.903,-593.6045 518.113,-586.6077"/>
</g>
<!-- Node12 -->
<g id="node12" class="node">
<title>Node12</title>
<g id="a_node12"><a xlink:href="../../d8/d78/classPHG4ParticleGeneratorBase.html#a1c8fb7b3cb97ad9c0eb85468be4f0f1b" target="_top" xlink:title="PHG4ParticleGeneratorBase\l::ReuseExistingVertex">
<polygon fill="none" stroke="#000000" points="559,-526.6908 559,-558.6908 716,-558.6908 716,-526.6908 559,-526.6908"/>
<text text-anchor="start" x="567" y="-545.6908" font-family="FreeSans" font-size="10.00" fill="#000000">PHG4ParticleGeneratorBase</text>
<text text-anchor="middle" x="637.5" y="-533.6908" font-family="FreeSans" font-size="10.00" fill="#000000">::ReuseExistingVertex</text>
</a>
</g>
</g>
<!-- Node11&#45;&gt;Node12 -->
<g id="edge11" class="edge">
<title>Node11&#45;&gt;Node12</title>
<path fill="none" stroke="#191970" d="M517.1806,-515.6189C533.4404,-519.2773 550.4485,-523.1042 566.3858,-526.6901"/>
<polygon fill="#191970" stroke="#191970" points="517.6939,-512.147 507.1695,-513.3664 516.1573,-518.9762 517.6939,-512.147"/>
</g>
<!-- Node19 -->
<g id="node19" class="node">
<title>Node19</title>
<g id="a_node19"><a xlink:href="../../da/d6c/classPHG4TruthInfoContainer.html#ac3800b9c5d96062db80120f2dfcfb44a" target="_top" xlink:title="Add a vertex and return an iterator to the user.">
<polygon fill="none" stroke="#000000" points="568,-475.6908 568,-507.6908 707,-507.6908 707,-475.6908 568,-475.6908"/>
<text text-anchor="start" x="576" y="-494.6908" font-family="FreeSans" font-size="10.00" fill="#000000">PHG4TruthInfoContainer</text>
<text text-anchor="middle" x="637.5" y="-482.6908" font-family="FreeSans" font-size="10.00" fill="#000000">::AddVertex</text>
</a>
</g>
</g>
<!-- Node11&#45;&gt;Node19 -->
<g id="edge18" class="edge">
<title>Node11&#45;&gt;Node19</title>
<path fill="none" stroke="#191970" d="M517.4189,-495.2932C534.0687,-494.7937 551.4931,-494.271 567.7417,-493.7835"/>
<polygon fill="#191970" stroke="#191970" points="517.06,-491.8023 507.1695,-495.6007 517.27,-498.7991 517.06,-491.8023"/>
</g>
<!-- Node21 -->
<g id="node21" class="node">
<title>Node21</title>
<g id="a_node21"><a xlink:href="../../da/d6c/classPHG4TruthInfoContainer.html#a6413d92f20399d8bf2c6d8d19092e236" target="_top" xlink:title="Add a shower that the user has created.">
<polygon fill="none" stroke="#000000" points="568,-424.6908 568,-456.6908 707,-456.6908 707,-424.6908 568,-424.6908"/>
<text text-anchor="start" x="576" y="-443.6908" font-family="FreeSans" font-size="10.00" fill="#000000">PHG4TruthInfoContainer</text>
<text text-anchor="middle" x="637.5" y="-431.6908" font-family="FreeSans" font-size="10.00" fill="#000000">::AddShower</text>
</a>
</g>
</g>
<!-- Node11&#45;&gt;Node21 -->
<g id="edge20" class="edge">
<title>Node11&#45;&gt;Node21</title>
<path fill="none" stroke="#191970" d="M503.577,-478.8588C528.7463,-471.6856 557.1681,-463.5854 581.3326,-456.6985"/>
<polygon fill="#191970" stroke="#191970" points="502.4011,-475.5545 493.7434,-481.6614 504.3198,-482.2864 502.4011,-475.5545"/>
</g>
<!-- Node13 -->
<g id="node13" class="node">
<title>Node13</title>
<g id="a_node13"><a xlink:href="../../dd/d13/classPHG4ParticleGun.html#a6a76fa0b061c94d8ce36da48fd41d274" target="_top" xlink:title="PHG4ParticleGun::process\l_event">
<polygon fill="none" stroke="#000000" points="760.5,-704.6908 760.5,-736.6908 908.5,-736.6908 908.5,-704.6908 760.5,-704.6908"/>
<text text-anchor="start" x="768.5" y="-723.6908" font-family="FreeSans" font-size="10.00" fill="#000000">PHG4ParticleGun::process</text>
<text text-anchor="middle" x="834.5" y="-711.6908" font-family="FreeSans" font-size="10.00" fill="#000000">_event</text>
</a>
</g>
</g>
<!-- Node12&#45;&gt;Node13 -->
<g id="edge12" class="edge">
<title>Node12&#45;&gt;Node13</title>
<path fill="none" stroke="#191970" d="M711.6366,-564.6084C713.1638,-565.8925 714.6225,-567.2518 716,-568.6908 756.5702,-611.0704 710.8906,-653.834 752,-695.6908 755.3558,-699.1076 759.1617,-702.0608 763.2528,-704.613"/>
<polygon fill="#191970" stroke="#191970" points="713.6628,-561.7546 703.4899,-558.7941 709.5963,-567.4522 713.6628,-561.7546"/>
</g>
<!-- Node14 -->
<g id="node14" class="node">
<title>Node14</title>
<g id="a_node14"><a xlink:href="../../da/ddc/classPHG4IonGun.html#a5a16c52574396043551b429962256e43" target="_top" xlink:title="PHG4IonGun::process\l_event">
<polygon fill="none" stroke="#000000" points="771.5,-653.6908 771.5,-685.6908 897.5,-685.6908 897.5,-653.6908 771.5,-653.6908"/>
<text text-anchor="start" x="779.5" y="-672.6908" font-family="FreeSans" font-size="10.00" fill="#000000">PHG4IonGun::process</text>
<text text-anchor="middle" x="834.5" y="-660.6908" font-family="FreeSans" font-size="10.00" fill="#000000">_event</text>
</a>
</g>
</g>
<!-- Node12&#45;&gt;Node14 -->
<g id="edge13" class="edge">
<title>Node12&#45;&gt;Node14</title>
<path fill="none" stroke="#191970" d="M710.4931,-564.3231C712.4105,-565.6911 714.2525,-567.1452 716,-568.6908 743.9972,-593.4515 723.6881,-620.2904 752,-644.6908 757.6684,-649.576 764.2697,-653.5066 771.2232,-656.6691"/>
<polygon fill="#191970" stroke="#191970" points="712.0077,-561.1445 701.6622,-558.8596 708.3248,-567.0974 712.0077,-561.1445"/>
</g>
<!-- Node15 -->
<g id="node15" class="node">
<title>Node15</title>
<g id="a_node15"><a xlink:href="../../dd/d68/classPHG4ParticleGenerator.html#a1292dcb1c73496ea30769a4b8c355780" target="_top" xlink:title="PHG4ParticleGenerator\l::process_event">
<polygon fill="none" stroke="#000000" points="768,-602.6908 768,-634.6908 901,-634.6908 901,-602.6908 768,-602.6908"/>
<text text-anchor="start" x="776" y="-621.6908" font-family="FreeSans" font-size="10.00" fill="#000000">PHG4ParticleGenerator</text>
<text text-anchor="middle" x="834.5" y="-609.6908" font-family="FreeSans" font-size="10.00" fill="#000000">::process_event</text>
</a>
</g>
</g>
<!-- Node12&#45;&gt;Node15 -->
<g id="edge14" class="edge">
<title>Node12&#45;&gt;Node15</title>
<path fill="none" stroke="#191970" d="M702.4275,-562.5409C707.0845,-564.4668 711.6537,-566.5189 716,-568.6908 733.4252,-577.3982 734.4648,-585.2071 752,-593.6908 758.8708,-597.0149 766.2783,-600.0068 773.736,-602.6669"/>
<polygon fill="#191970" stroke="#191970" points="703.3758,-559.1535 692.788,-558.7668 700.8237,-565.6717 703.3758,-559.1535"/>
</g>
<!-- Node16 -->
<g id="node16" class="node">
<title>Node16</title>
<g id="a_node16"><a xlink:href="../../d9/d78/classPHG4ParticleGeneratorD0.html#a0d5fb0589e341d72f767844ead51039a" target="_top" xlink:title="PHG4ParticleGeneratorD0\l::process_event">
<polygon fill="none" stroke="#000000" points="761,-551.6908 761,-583.6908 908,-583.6908 908,-551.6908 761,-551.6908"/>
<text text-anchor="start" x="769" y="-570.6908" font-family="FreeSans" font-size="10.00" fill="#000000">PHG4ParticleGeneratorD0</text>
<text text-anchor="middle" x="834.5" y="-558.6908" font-family="FreeSans" font-size="10.00" fill="#000000">::process_event</text>
</a>
</g>
</g>
<!-- Node12&#45;&gt;Node16 -->
<g id="edge15" class="edge">
<title>Node12&#45;&gt;Node16</title>
<path fill="none" stroke="#191970" d="M726.2667,-553.9556C737.7825,-555.417 749.4775,-556.9011 760.7138,-558.327"/>
<polygon fill="#191970" stroke="#191970" points="726.57,-550.4661 716.2089,-552.6792 725.6887,-557.4104 726.57,-550.4661"/>
</g>
<!-- Node17 -->
<g id="node17" class="node">
<title>Node17</title>
<g id="a_node17"><a xlink:href="../../d5/df3/classPHG4SimpleEventGenerator.html#a4a7065a5083bd5b21c3743f8e224065b" target="_top" xlink:title="PHG4SimpleEventGenerator\l::process_event">
<polygon fill="none" stroke="#000000" points="754.5,-500.6908 754.5,-532.6908 914.5,-532.6908 914.5,-500.6908 754.5,-500.6908"/>
<text text-anchor="start" x="762.5" y="-519.6908" font-family="FreeSans" font-size="10.00" fill="#000000">PHG4SimpleEventGenerator</text>
<text text-anchor="middle" x="834.5" y="-507.6908" font-family="FreeSans" font-size="10.00" fill="#000000">::process_event</text>
</a>
</g>
</g>
<!-- Node12&#45;&gt;Node17 -->
<g id="edge16" class="edge">
<title>Node12&#45;&gt;Node17</title>
<path fill="none" stroke="#191970" d="M726.2794,-530.9737C735.6175,-529.7412 745.0732,-528.4933 754.3065,-527.2747"/>
<polygon fill="#191970" stroke="#191970" points="725.665,-527.5243 716.2089,-532.3028 726.5809,-534.4642 725.665,-527.5243"/>
</g>
<!-- Node18 -->
<g id="node18" class="node">
<title>Node18</title>
<g id="a_node18"><a xlink:href="../../d7/dc3/classPHG4ParticleGeneratorVectorMeson.html#a31f17c8146593b2d946cc4c2762d25ed" target="_top" xlink:title="PHG4ParticleGeneratorVector\lMeson::process_event">
<polygon fill="none" stroke="#000000" points="752,-449.6908 752,-481.6908 917,-481.6908 917,-449.6908 752,-449.6908"/>
<text text-anchor="start" x="760" y="-468.6908" font-family="FreeSans" font-size="10.00" fill="#000000">PHG4ParticleGeneratorVector</text>
<text text-anchor="middle" x="834.5" y="-456.6908" font-family="FreeSans" font-size="10.00" fill="#000000">Meson::process_event</text>
</a>
</g>
</g>
<!-- Node12&#45;&gt;Node18 -->
<g id="edge17" class="edge">
<title>Node12&#45;&gt;Node18</title>
<path fill="none" stroke="#191970" d="M704.9228,-522.7933C708.72,-521.1875 712.4378,-519.4864 716,-517.6908 733.6241,-508.8069 734.3625,-500.548 752,-491.6908 759.3811,-487.9841 767.3987,-484.67 775.4385,-481.751"/>
<polygon fill="#191970" stroke="#191970" points="703.3667,-519.6453 695.364,-526.5885 705.9498,-526.1513 703.3667,-519.6453"/>
</g>
<!-- Node20 -->
<g id="node20" class="node">
<title>Node20</title>
<g id="a_node20"><a xlink:href="../../db/d5c/classPHG4TruthTrackingAction.html#a22bc2cb2f4cdd07e12eee38c1a43f586" target="_top" xlink:title="tracking action">
<polygon fill="none" stroke="#000000" points="763,-398.6908 763,-430.6908 906,-430.6908 906,-398.6908 763,-398.6908"/>
<text text-anchor="start" x="771" y="-417.6908" font-family="FreeSans" font-size="10.00" fill="#000000">PHG4TruthTrackingAction</text>
<text text-anchor="middle" x="834.5" y="-405.6908" font-family="FreeSans" font-size="10.00" fill="#000000">::PreUserTrackingAction</text>
</a>
</g>
</g>
<!-- Node19&#45;&gt;Node20 -->
<g id="edge19" class="edge">
<title>Node19&#45;&gt;Node20</title>
<path fill="none" stroke="#191970" d="M704.9228,-471.7933C708.72,-470.1875 712.4378,-468.4864 716,-466.6908 733.6241,-457.8069 734.3625,-449.548 752,-440.6908 759.3811,-436.9841 767.3987,-433.67 775.4385,-430.751"/>
<polygon fill="#191970" stroke="#191970" points="703.3667,-468.6453 695.364,-475.5885 705.9498,-475.1513 703.3667,-468.6453"/>
</g>
<!-- Node21&#45;&gt;Node20 -->
<g id="edge21" class="edge">
<title>Node21&#45;&gt;Node20</title>
<path fill="none" stroke="#191970" d="M717.5114,-430.1309C732.5224,-428.1497 748.1276,-426.0902 762.8642,-424.1452"/>
<polygon fill="#191970" stroke="#191970" points="716.6881,-426.7091 707.2321,-431.4875 717.6041,-433.6489 716.6881,-426.7091"/>
</g>
<!-- Node22&#45;&gt;Node3 -->
<g id="edge23" class="edge">
<title>Node22&#45;&gt;Node3</title>
<path fill="none" stroke="#191970" d="M502.3042,-686.7634C528.3339,-690.4075 558.0104,-694.5622 582.9152,-698.0489"/>
<polygon fill="#191970" stroke="#191970" points="502.5396,-683.2622 492.1509,-685.3419 501.569,-690.1946 502.5396,-683.2622"/>
</g>
<!-- Node24 -->
<g id="node24" class="node">
<title>Node24</title>
<g id="a_node24"><a xlink:href="../../d8/d98/classpsTOFTimezeroEval.html#a2e98730e1beaa91c36947c0fe671fdd2" target="_top" xlink:title="psTOFTimezeroEval::\lprocess_event">
<polygon fill="none" stroke="#000000" points="576.5,-373.6908 576.5,-405.6908 698.5,-405.6908 698.5,-373.6908 576.5,-373.6908"/>
<text text-anchor="start" x="584.5" y="-392.6908" font-family="FreeSans" font-size="10.00" fill="#000000">psTOFTimezeroEval::</text>
<text text-anchor="middle" x="637.5" y="-380.6908" font-family="FreeSans" font-size="10.00" fill="#000000">process_event</text>
</a>
</g>
</g>
<!-- Node23&#45;&gt;Node24 -->
<g id="edge25" class="edge">
<title>Node23&#45;&gt;Node24</title>
<path fill="none" stroke="#191970" d="M503.577,-427.8588C528.7463,-420.6856 557.1681,-412.5854 581.3326,-405.6985"/>
<polygon fill="#191970" stroke="#191970" points="502.4011,-424.5545 493.7434,-430.6614 504.3198,-431.2864 502.4011,-424.5545"/>
</g>
<!-- Node26 -->
<g id="node26" class="node">
<title>Node26</title>
<g id="a_node26"><a xlink:href="../../d2/d85/classSvtxEvaluatorHaiwang.html#ab63ca0cc53b56dad65b89d9b18220bce" target="_top" xlink:title="SvtxEvaluatorHaiwang\l::process_event">
<polygon fill="none" stroke="#000000" points="572,-322.6908 572,-354.6908 703,-354.6908 703,-322.6908 572,-322.6908"/>
<text text-anchor="start" x="580" y="-341.6908" font-family="FreeSans" font-size="10.00" fill="#000000">SvtxEvaluatorHaiwang</text>
<text text-anchor="middle" x="637.5" y="-329.6908" font-family="FreeSans" font-size="10.00" fill="#000000">::process_event</text>
</a>
</g>
</g>
<!-- Node25&#45;&gt;Node26 -->
<g id="edge27" class="edge">
<title>Node25&#45;&gt;Node26</title>
<path fill="none" stroke="#191970" d="M503.577,-376.8588C528.7463,-369.6856 557.1681,-361.5854 581.3326,-354.6985"/>
<polygon fill="#191970" stroke="#191970" points="502.4011,-373.5545 493.7434,-379.6614 504.3198,-380.2864 502.4011,-373.5545"/>
</g>
<!-- Node27&#45;&gt;Node5 -->
<g id="edge29" class="edge">
<title>Node27&#45;&gt;Node5</title>
<path fill="none" stroke="#191970" d="M515.4963,-336.3168C518.0994,-334.9122 520.6113,-333.3744 523,-331.6908 584.0255,-288.6787 619.5839,-201.789 632.2206,-165.8329"/>
<polygon fill="#191970" stroke="#191970" points="513.9173,-333.1913 506.3404,-340.5967 516.8816,-339.5327 513.9173,-333.1913"/>
</g>
<!-- Node28&#45;&gt;Node10 -->
<g id="edge31" class="edge">
<title>Node28&#45;&gt;Node10</title>
<path fill="none" stroke="#191970" d="M491.7519,-555.0829C502.1403,-557.5401 512.9186,-560.1477 523,-562.6908 541.5708,-567.3753 561.7597,-572.7473 579.9402,-577.6892"/>
<polygon fill="#191970" stroke="#191970" points="492.4823,-551.6593 481.9469,-552.7801 490.8817,-558.4738 492.4823,-551.6593"/>
</g>
</g>
</svg>
