<?xml version="1.0" encoding="UTF-8" standalone="no"?>
<!DOCTYPE svg PUBLIC "-//W3C//DTD SVG 1.1//EN"
 "http://www.w3.org/Graphics/SVG/1.1/DTD/svg11.dtd">
<!-- Generated by graphviz version 2.40.1 (20161225.0304)
 -->
<!-- Title: PHG4TruthInfoContainer::size Pages: 1 -->
<svg width="353pt" height="92pt"
 viewBox="0.00 0.00 353.00 92.00" xmlns="http://www.w3.org/2000/svg" xmlns:xlink="http://www.w3.org/1999/xlink">
<g id="graph0" class="graph" transform="scale(1 1) rotate(0) translate(4 88)">
<title>PHG4TruthInfoContainer::size</title>
<!-- Node1 -->
<g id="node1" class="node">
<title>Node1</title>
<polygon fill="#bfbfbf" stroke="#000000" points="0,-25.5 0,-57.5 139,-57.5 139,-25.5 0,-25.5"/>
<text text-anchor="start" x="8" y="-44.5" font-family="FreeSans" font-size="10.00" fill="#000000">PHG4TruthInfoContainer</text>
<text text-anchor="middle" x="69.5" y="-32.5" font-family="FreeSans" font-size="10.00" fill="#000000">::size</text>
</g>
<!-- Node2 -->
<g id="node2" class="node">
<title>Node2</title>
<g id="a_node2"><a xlink:href="../../d7/d34/classSigmaTimingNtuple.html#a65024b521bbe857fcd13511817f89865" target="_top" xlink:title="event processing method">
<polygon fill="none" stroke="#000000" points="199,-51.5 199,-83.5 321,-83.5 321,-51.5 199,-51.5"/>
<text text-anchor="start" x="207" y="-70.5" font-family="FreeSans" font-size="10.00" fill="#000000">SigmaTimingNtuple::</text>
<text text-anchor="middle" x="260" y="-58.5" font-family="FreeSans" font-size="10.00" fill="#000000">process_event</text>
</a>
</g>
</g>
<!-- Node1&#45;&gt;Node2 -->
<g id="edge1" class="edge">
<title>Node1&#45;&gt;Node2</title>
<path fill="none" stroke="#191970" d="M149.2872,-52.3896C165.8375,-54.6484 183.0278,-56.9946 198.7868,-59.1454"/>
<polygon fill="#191970" stroke="#191970" points="149.465,-48.8815 139.0835,-50.997 148.5183,-55.8172 149.465,-48.8815"/>
</g>
<!-- Node3 -->
<g id="node3" class="node">
<title>Node3</title>
<g id="a_node3"><a xlink:href="../../d3/d80/classDumpPHG4TruthInfoContainer.html#aebe4df79d71ebc60b516662624194295" target="_top" xlink:title="DumpPHG4TruthInfoContainer\l::process_Node">
<polygon fill="none" stroke="#000000" points="175,-.5 175,-32.5 345,-32.5 345,-.5 175,-.5"/>
<text text-anchor="start" x="183" y="-19.5" font-family="FreeSans" font-size="10.00" fill="#000000">DumpPHG4TruthInfoContainer</text>
<text text-anchor="middle" x="260" y="-7.5" font-family="FreeSans" font-size="10.00" fill="#000000">::process_Node</text>
</a>
</g>
</g>
<!-- Node1&#45;&gt;Node3 -->
<g id="edge2" class="edge">
<title>Node1&#45;&gt;Node3</title>
<path fill="none" stroke="#191970" d="M149.249,-31.0342C157.6654,-29.9297 166.2477,-28.8035 174.7235,-27.6911"/>
<polygon fill="#191970" stroke="#191970" points="148.5431,-27.5968 139.0835,-32.3683 149.4539,-34.5373 148.5431,-27.5968"/>
</g>
</g>
</svg>
