<?xml version="1.0" encoding="UTF-8" standalone="no"?>
<!DOCTYPE svg PUBLIC "-//W3C//DTD SVG 1.1//EN"
 "http://www.w3.org/Graphics/SVG/1.1/DTD/svg11.dtd">
<!-- Generated by graphviz version 2.40.1 (20161225.0304)
 -->
<!-- Title: PHG4TruthInfoContainer::GetEmbeddedTrkIds Pages: 1 -->
<svg width="338pt" height="92pt"
 viewBox="0.00 0.00 338.00 92.00" xmlns="http://www.w3.org/2000/svg" xmlns:xlink="http://www.w3.org/1999/xlink">
<g id="graph0" class="graph" transform="scale(1 1) rotate(0) translate(4 88)">
<title>PHG4TruthInfoContainer::GetEmbeddedTrkIds</title>
<!-- Node1 -->
<g id="node1" class="node">
<title>Node1</title>
<polygon fill="#bfbfbf" stroke="#000000" points="0,-25.5 0,-57.5 139,-57.5 139,-25.5 0,-25.5"/>
<text text-anchor="start" x="8" y="-44.5" font-family="FreeSans" font-size="10.00" fill="#000000">PHG4TruthInfoContainer</text>
<text text-anchor="middle" x="69.5" y="-32.5" font-family="FreeSans" font-size="10.00" fill="#000000">::GetEmbeddedTrkIds</text>
</g>
<!-- Node2 -->
<g id="node2" class="node">
<title>Node2</title>
<g id="a_node2"><a xlink:href="../../dc/d38/classPHG4ConsistencyCheck.html#a52d89c7166211c0c19f906d885558b63" target="_top" xlink:title="event processing">
<polygon fill="none" stroke="#000000" points="184,-51.5 184,-83.5 321,-83.5 321,-51.5 184,-51.5"/>
<text text-anchor="start" x="192" y="-70.5" font-family="FreeSans" font-size="10.00" fill="#000000">PHG4ConsistencyCheck</text>
<text text-anchor="middle" x="252.5" y="-58.5" font-family="FreeSans" font-size="10.00" fill="#000000">::process_event</text>
</a>
</g>
</g>
<!-- Node1&#45;&gt;Node2 -->
<g id="edge1" class="edge">
<title>Node1&#45;&gt;Node2</title>
<path fill="none" stroke="#191970" d="M149.2642,-52.8326C160.8048,-54.4723 172.5986,-56.1479 183.8949,-57.7528"/>
<polygon fill="#191970" stroke="#191970" points="149.5994,-49.3452 139.2065,-51.4037 148.6147,-56.2756 149.5994,-49.3452"/>
</g>
<!-- Node3 -->
<g id="node3" class="node">
<title>Node3</title>
<g id="a_node3"><a xlink:href="../../d0/dab/classTrackingPerformanceCheck.html#a8dafa93c6ddc8928257fec958a45ee6b" target="_top" xlink:title="TrackingPerformanceCheck\l::process_event">
<polygon fill="none" stroke="#000000" points="175,-.5 175,-32.5 330,-32.5 330,-.5 175,-.5"/>
<text text-anchor="start" x="183" y="-19.5" font-family="FreeSans" font-size="10.00" fill="#000000">TrackingPerformanceCheck</text>
<text text-anchor="middle" x="252.5" y="-7.5" font-family="FreeSans" font-size="10.00" fill="#000000">::process_event</text>
</a>
</g>
</g>
<!-- Node1&#45;&gt;Node3 -->
<g id="edge2" class="edge">
<title>Node1&#45;&gt;Node3</title>
<path fill="none" stroke="#191970" d="M149.3848,-30.5868C157.7993,-29.4373 166.347,-28.2695 174.7371,-27.1233"/>
<polygon fill="#191970" stroke="#191970" points="148.6407,-27.1558 139.2065,-31.9773 149.5882,-34.0914 148.6407,-27.1558"/>
</g>
</g>
</svg>
