<?xml version="1.0" encoding="UTF-8" standalone="no"?>
<!DOCTYPE svg PUBLIC "-//W3C//DTD SVG 1.1//EN"
 "http://www.w3.org/Graphics/SVG/1.1/DTD/svg11.dtd">
<!-- Generated by graphviz version 2.40.1 (20161225.0304)
 -->
<!-- Title: PHG4TruthInfoContainer::AddParticle Pages: 1 -->
<svg width="340pt" height="224pt"
 viewBox="0.00 0.00 340.00 224.00" xmlns="http://www.w3.org/2000/svg" xmlns:xlink="http://www.w3.org/1999/xlink">
<g id="graph0" class="graph" transform="scale(1 1) rotate(0) translate(4 220)">
<title>PHG4TruthInfoContainer::AddParticle</title>
<!-- Node1 -->
<g id="node1" class="node">
<title>Node1</title>
<polygon fill="#bfbfbf" stroke="#000000" points="0,-91.5 0,-123.5 139,-123.5 139,-91.5 0,-91.5"/>
<text text-anchor="start" x="8" y="-110.5" font-family="FreeSans" font-size="10.00" fill="#000000">PHG4TruthInfoContainer</text>
<text text-anchor="middle" x="69.5" y="-98.5" font-family="FreeSans" font-size="10.00" fill="#000000">::AddParticle</text>
</g>
<!-- Node2 -->
<g id="node2" class="node">
<title>Node2</title>
<g id="a_node2"><a xlink:href="../../de/dc9/classPHG4Particle.html#aaf95cb29207cce8188669625f7287471" target="_top" xlink:title="PHG4Particle::get_name">
<polygon fill="none" stroke="#000000" points="184.5,-195.5 184.5,-215.5 322.5,-215.5 322.5,-195.5 184.5,-195.5"/>
<text text-anchor="middle" x="253.5" y="-202.5" font-family="FreeSans" font-size="10.00" fill="#000000">PHG4Particle::get_name</text>
</a>
</g>
</g>
<!-- Node1&#45;&gt;Node2 -->
<g id="edge1" class="edge">
<title>Node1&#45;&gt;Node2</title>
<path fill="none" stroke="#191970" d="M86.3522,-123.6028C106.0663,-141.5616 140.4286,-170.2199 175,-186.5 179.6382,-188.6842 184.5528,-190.6321 189.5703,-192.3665"/>
<polygon fill="#191970" stroke="#191970" points="188.7102,-195.7654 199.3002,-195.4451 190.8219,-189.0914 188.7102,-195.7654"/>
</g>
<!-- Node3 -->
<g id="node3" class="node">
<title>Node3</title>
<g id="a_node3"><a xlink:href="../../de/dc9/classPHG4Particle.html#aefb22aefc07d013f8ec9bee4f02fb7b2" target="_top" xlink:title="PHG4Particle::get_parent_id">
<polygon fill="none" stroke="#000000" points="175,-156.5 175,-176.5 332,-176.5 332,-156.5 175,-156.5"/>
<text text-anchor="middle" x="253.5" y="-163.5" font-family="FreeSans" font-size="10.00" fill="#000000">PHG4Particle::get_parent_id</text>
</a>
</g>
</g>
<!-- Node1&#45;&gt;Node3 -->
<g id="edge2" class="edge">
<title>Node1&#45;&gt;Node3</title>
<path fill="none" stroke="#191970" d="M108.671,-123.6886C128.3684,-131.4854 152.7306,-140.6128 175,-147.5 182.3469,-149.7721 190.1487,-151.9428 197.8733,-153.9511"/>
<polygon fill="#191970" stroke="#191970" points="197.0237,-157.3463 207.5765,-156.4036 198.7391,-150.5598 197.0237,-157.3463"/>
</g>
<!-- Node4 -->
<g id="node4" class="node">
<title>Node4</title>
<g id="a_node4"><a xlink:href="../../de/dc9/classPHG4Particle.html#a44b98bfd72a04825791d1e4c4cb150a1" target="_top" xlink:title="PHG4Particle::get_px">
<polygon fill="none" stroke="#000000" points="192.5,-117.5 192.5,-137.5 314.5,-137.5 314.5,-117.5 192.5,-117.5"/>
<text text-anchor="middle" x="253.5" y="-124.5" font-family="FreeSans" font-size="10.00" fill="#000000">PHG4Particle::get_px</text>
</a>
</g>
</g>
<!-- Node1&#45;&gt;Node4 -->
<g id="edge3" class="edge">
<title>Node1&#45;&gt;Node4</title>
<path fill="none" stroke="#191970" d="M139.0625,-115.0611C153.1479,-116.5922 167.9807,-118.2044 182.1273,-119.7421"/>
<polygon fill="#191970" stroke="#191970" points="181.9669,-123.2452 192.2866,-120.8464 182.7234,-116.2862 181.9669,-123.2452"/>
</g>
<!-- Node5 -->
<g id="node5" class="node">
<title>Node5</title>
<g id="a_node5"><a xlink:href="../../de/dc9/classPHG4Particle.html#a3df4379f9e46224a8cca7f86c11e99e5" target="_top" xlink:title="PHG4Particle::get_py">
<polygon fill="none" stroke="#000000" points="192.5,-78.5 192.5,-98.5 314.5,-98.5 314.5,-78.5 192.5,-78.5"/>
<text text-anchor="middle" x="253.5" y="-85.5" font-family="FreeSans" font-size="10.00" fill="#000000">PHG4Particle::get_py</text>
</a>
</g>
</g>
<!-- Node1&#45;&gt;Node5 -->
<g id="edge4" class="edge">
<title>Node1&#45;&gt;Node5</title>
<path fill="none" stroke="#191970" d="M139.0625,-100.3169C153.1479,-98.8624 167.9807,-97.3308 182.1273,-95.87"/>
<polygon fill="#191970" stroke="#191970" points="182.699,-99.3297 192.2866,-94.8209 181.98,-92.3667 182.699,-99.3297"/>
</g>
<!-- Node6 -->
<g id="node6" class="node">
<title>Node6</title>
<g id="a_node6"><a xlink:href="../../de/dc9/classPHG4Particle.html#a533e9bda40b15f62802b187e6a743e74" target="_top" xlink:title="PHG4Particle::get_pz">
<polygon fill="none" stroke="#000000" points="192.5,-39.5 192.5,-59.5 314.5,-59.5 314.5,-39.5 192.5,-39.5"/>
<text text-anchor="middle" x="253.5" y="-46.5" font-family="FreeSans" font-size="10.00" fill="#000000">PHG4Particle::get_pz</text>
</a>
</g>
</g>
<!-- Node1&#45;&gt;Node6 -->
<g id="edge5" class="edge">
<title>Node1&#45;&gt;Node6</title>
<path fill="none" stroke="#191970" d="M111.0318,-91.496C130.3365,-84.3273 153.6891,-76.0362 175,-69.5 183.4014,-66.9232 192.3783,-64.4129 201.1491,-62.0899"/>
<polygon fill="#191970" stroke="#191970" points="202.1224,-65.4534 210.9224,-59.5534 200.3638,-58.6779 202.1224,-65.4534"/>
</g>
<!-- Node7 -->
<g id="node7" class="node">
<title>Node7</title>
<g id="a_node7"><a xlink:href="../../de/dc9/classPHG4Particle.html#ac29b72a8cdeebc0754b6dd42b0cfab86" target="_top" xlink:title="PHG4Particle::get_track_id">
<polygon fill="none" stroke="#000000" points="179,-.5 179,-20.5 328,-20.5 328,-.5 179,-.5"/>
<text text-anchor="middle" x="253.5" y="-7.5" font-family="FreeSans" font-size="10.00" fill="#000000">PHG4Particle::get_track_id</text>
</a>
</g>
</g>
<!-- Node1&#45;&gt;Node7 -->
<g id="edge6" class="edge">
<title>Node1&#45;&gt;Node7</title>
<path fill="none" stroke="#191970" d="M87.1828,-91.2692C107.107,-73.8166 141.1487,-46.4356 175,-30.5 180.5948,-27.8662 186.5834,-25.5472 192.6655,-23.5125"/>
<polygon fill="#191970" stroke="#191970" points="193.7384,-26.8443 202.2569,-20.5448 191.6692,-20.1571 193.7384,-26.8443"/>
</g>
</g>
</svg>
