<?xml version="1.0" encoding="UTF-8" standalone="no"?>
<!DOCTYPE svg PUBLIC "-//W3C//DTD SVG 1.1//EN"
 "http://www.w3.org/Graphics/SVG/1.1/DTD/svg11.dtd">
<!-- Generated by graphviz version 2.40.1 (20161225.0304)
 -->
<!-- Title: hijcrs Pages: 1 -->
<svg width="270pt" height="302pt"
 viewBox="0.00 0.00 270.00 302.00" xmlns="http://www.w3.org/2000/svg" xmlns:xlink="http://www.w3.org/1999/xlink">
<g id="graph0" class="graph" transform="scale(1 1) rotate(0) translate(4 298)">
<title>hijcrs</title>
<!-- Node1 -->
<g id="node1" class="node">
<title>Node1</title>
<polygon fill="#bfbfbf" stroke="#000000" points="0,-136.5 0,-156.5 43,-156.5 43,-136.5 0,-136.5"/>
<text text-anchor="middle" x="21.5" y="-143.5" font-family="FreeSans" font-size="10.00" fill="#000000">hijcrs</text>
</g>
<!-- Node2 -->
<g id="node2" class="node">
<title>Node2</title>
<g id="a_node2"><a xlink:href="../../db/d44/hijset_8f.html#ac1c3db71bda2dc1a77110561ebebe89a" target="_top" xlink:title="hijset">
<polygon fill="none" stroke="#000000" points="79,-136.5 79,-156.5 123,-156.5 123,-136.5 79,-136.5"/>
<text text-anchor="middle" x="101" y="-143.5" font-family="FreeSans" font-size="10.00" fill="#000000">hijset</text>
</a>
</g>
</g>
<!-- Node1&#45;&gt;Node2 -->
<g id="edge1" class="edge">
<title>Node1&#45;&gt;Node2</title>
<path fill="none" stroke="#191970" d="M53.2695,-146.5C61.8051,-146.5 70.8526,-146.5 78.7491,-146.5"/>
<polygon fill="#191970" stroke="#191970" points="53.2238,-143.0001 43.2237,-146.5 53.2237,-150.0001 53.2238,-143.0001"/>
</g>
<!-- Node3 -->
<g id="node3" class="node">
<title>Node3</title>
<g id="a_node3"><a xlink:href="../../da/d19/example__1_8f.html#acf16f61bc7e27d5ce77d73738020a5c7" target="_top" xlink:title="__example_1::f__">
<polygon fill="none" stroke="#000000" points="159,-273.5 159,-293.5 262,-293.5 262,-273.5 159,-273.5"/>
<text text-anchor="middle" x="210.5" y="-280.5" font-family="FreeSans" font-size="10.00" fill="#000000">__example_1::f__</text>
</a>
</g>
</g>
<!-- Node2&#45;&gt;Node3 -->
<g id="edge2" class="edge">
<title>Node2&#45;&gt;Node3</title>
<path fill="none" stroke="#191970" d="M105.8344,-166.4304C113.1216,-192.4311 129.3309,-237.7505 159,-264.5 162.9637,-268.0736 167.6576,-270.993 172.5726,-273.3733"/>
<polygon fill="#191970" stroke="#191970" points="109.1724,-165.3617 103.2444,-156.5805 102.4026,-167.1419 109.1724,-165.3617"/>
</g>
<!-- Node4 -->
<g id="node4" class="node">
<title>Node4</title>
<g id="a_node4"><a xlink:href="../../d0/dd6/example__2_8f.html#a9d0c3b9bee4d35bf976af3b01e3d8f99" target="_top" xlink:title="__example_2::f__">
<polygon fill="none" stroke="#000000" points="159,-234.5 159,-254.5 262,-254.5 262,-234.5 159,-234.5"/>
<text text-anchor="middle" x="210.5" y="-241.5" font-family="FreeSans" font-size="10.00" fill="#000000">__example_2::f__</text>
</a>
</g>
</g>
<!-- Node2&#45;&gt;Node4 -->
<g id="edge3" class="edge">
<title>Node2&#45;&gt;Node4</title>
<path fill="none" stroke="#191970" d="M110.7512,-165.6172C120.6946,-183.3787 137.6695,-209.4364 159,-225.5 163.7199,-229.0545 169.1743,-232.0017 174.7307,-234.4273"/>
<polygon fill="#191970" stroke="#191970" points="113.7856,-163.8699 105.9676,-156.7194 107.6202,-167.1846 113.7856,-163.8699"/>
</g>
<!-- Node5 -->
<g id="node5" class="node">
<title>Node5</title>
<g id="a_node5"><a xlink:href="../../d2/d77/example__3_8f.html#aab27974d678e65e3e41bf2e3fe4df5d9" target="_top" xlink:title="__example_3::f__">
<polygon fill="none" stroke="#000000" points="159,-195.5 159,-215.5 262,-215.5 262,-195.5 159,-195.5"/>
<text text-anchor="middle" x="210.5" y="-202.5" font-family="FreeSans" font-size="10.00" fill="#000000">__example_3::f__</text>
</a>
</g>
</g>
<!-- Node2&#45;&gt;Node5 -->
<g id="edge4" class="edge">
<title>Node2&#45;&gt;Node5</title>
<path fill="none" stroke="#191970" d="M122.02,-162.8958C132.6949,-170.7203 146.1067,-179.8106 159,-186.5 165.4291,-189.8356 172.5798,-192.8652 179.4571,-195.4766"/>
<polygon fill="#191970" stroke="#191970" points="123.8669,-159.9058 113.7682,-156.7015 119.6644,-165.5041 123.8669,-159.9058"/>
</g>
<!-- Node6 -->
<g id="node6" class="node">
<title>Node6</title>
<g id="a_node6"><a xlink:href="../../d2/da0/example__4_8f.html#a6bc0f54131effae47e6b12e1d435314a" target="_top" xlink:title="__example_4::f__">
<polygon fill="none" stroke="#000000" points="159,-156.5 159,-176.5 262,-176.5 262,-156.5 159,-156.5"/>
<text text-anchor="middle" x="210.5" y="-163.5" font-family="FreeSans" font-size="10.00" fill="#000000">__example_4::f__</text>
</a>
</g>
</g>
<!-- Node2&#45;&gt;Node6 -->
<g id="edge5" class="edge">
<title>Node2&#45;&gt;Node6</title>
<path fill="none" stroke="#191970" d="M133.2489,-152.3902C141.3287,-153.866 150.2001,-155.4863 158.9614,-157.0866"/>
<polygon fill="#191970" stroke="#191970" points="133.6251,-148.9011 123.159,-150.5473 132.3673,-155.7872 133.6251,-148.9011"/>
</g>
<!-- Node7 -->
<g id="node7" class="node">
<title>Node7</title>
<g id="a_node7"><a xlink:href="../../d7/d67/example__5_8f.html#a25afe91d84386c600617ed09ef60286f" target="_top" xlink:title="__example_5::f__">
<polygon fill="none" stroke="#000000" points="159,-117.5 159,-137.5 262,-137.5 262,-117.5 159,-117.5"/>
<text text-anchor="middle" x="210.5" y="-124.5" font-family="FreeSans" font-size="10.00" fill="#000000">__example_5::f__</text>
</a>
</g>
</g>
<!-- Node2&#45;&gt;Node7 -->
<g id="edge6" class="edge">
<title>Node2&#45;&gt;Node7</title>
<path fill="none" stroke="#191970" d="M133.2489,-140.9043C141.3287,-139.5023 150.2001,-137.963 158.9614,-136.4428"/>
<polygon fill="#191970" stroke="#191970" points="132.4133,-137.4969 123.159,-142.6551 133.6101,-144.3938 132.4133,-137.4969"/>
</g>
<!-- Node8 -->
<g id="node8" class="node">
<title>Node8</title>
<g id="a_node8"><a xlink:href="../../d2/d88/example__6_8f.html#a78fc9edc07bf87b06cd839a4eea78c26" target="_top" xlink:title="__example_6::f__">
<polygon fill="none" stroke="#000000" points="159,-78.5 159,-98.5 262,-98.5 262,-78.5 159,-78.5"/>
<text text-anchor="middle" x="210.5" y="-85.5" font-family="FreeSans" font-size="10.00" fill="#000000">__example_6::f__</text>
</a>
</g>
</g>
<!-- Node2&#45;&gt;Node8 -->
<g id="edge7" class="edge">
<title>Node2&#45;&gt;Node8</title>
<path fill="none" stroke="#191970" d="M123.0282,-130.4977C133.5948,-123.236 146.6232,-114.8684 159,-108.5 166.0789,-104.8576 173.9811,-101.4748 181.4287,-98.566"/>
<polygon fill="#191970" stroke="#191970" points="120.9767,-127.6614 114.7997,-136.2693 124.9964,-133.3923 120.9767,-127.6614"/>
</g>
<!-- Node9 -->
<g id="node9" class="node">
<title>Node9</title>
<g id="a_node9"><a xlink:href="../../db/d1a/example__7_8f.html#ac777f81954b42662e3b21684d62ddab7" target="_top" xlink:title="__example_7::f__">
<polygon fill="none" stroke="#000000" points="159,-39.5 159,-59.5 262,-59.5 262,-39.5 159,-39.5"/>
<text text-anchor="middle" x="210.5" y="-46.5" font-family="FreeSans" font-size="10.00" fill="#000000">__example_7::f__</text>
</a>
</g>
</g>
<!-- Node2&#45;&gt;Node9 -->
<g id="edge8" class="edge">
<title>Node2&#45;&gt;Node9</title>
<path fill="none" stroke="#191970" d="M111.3699,-127.1935C121.4923,-109.9667 138.3615,-85.1186 159,-69.5 164.2773,-65.5063 170.4512,-62.2125 176.6548,-59.5314"/>
<polygon fill="#191970" stroke="#191970" points="108.0811,-125.8997 106.2122,-136.3284 114.1766,-129.3414 108.0811,-125.8997"/>
</g>
<!-- Node10 -->
<g id="node10" class="node">
<title>Node10</title>
<g id="a_node10"><a xlink:href="../../d1/de4/example__8_8f.html#ace7a490fafddd958e4a9192395b34464" target="_top" xlink:title="__example_8::f__">
<polygon fill="none" stroke="#000000" points="159,-.5 159,-20.5 262,-20.5 262,-.5 159,-.5"/>
<text text-anchor="middle" x="210.5" y="-7.5" font-family="FreeSans" font-size="10.00" fill="#000000">__example_8::f__</text>
</a>
</g>
</g>
<!-- Node2&#45;&gt;Node10 -->
<g id="edge9" class="edge">
<title>Node2&#45;&gt;Node10</title>
<path fill="none" stroke="#191970" d="M106.109,-126.595C113.6271,-101.0534 130.0156,-56.9009 159,-30.5 163.4673,-26.4309 168.8547,-23.1534 174.439,-20.5242"/>
<polygon fill="#191970" stroke="#191970" points="102.7184,-125.7244 103.4191,-136.296 109.4639,-127.5948 102.7184,-125.7244"/>
</g>
</g>
</svg>
