<?xml version="1.0" encoding="UTF-8" standalone="no"?>
<!DOCTYPE svg PUBLIC "-//W3C//DTD SVG 1.1//EN"
 "http://www.w3.org/Graphics/SVG/1.1/DTD/svg11.dtd">
<!-- Generated by graphviz version 2.40.1 (20161225.0304)
 -->
<!-- Title: Fun4AllDstOutputManager::Print Pages: 1 -->
<svg width="498pt" height="106pt"
 viewBox="0.00 0.00 498.00 105.61" xmlns="http://www.w3.org/2000/svg" xmlns:xlink="http://www.w3.org/1999/xlink">
<g id="graph0" class="graph" transform="scale(1 1) rotate(0) translate(4 101.6143)">
<title>Fun4AllDstOutputManager::Print</title>
<!-- Node1 -->
<g id="node1" class="node">
<title>Node1</title>
<polygon fill="#bfbfbf" stroke="#000000" points="0,-51.5 0,-83.5 150,-83.5 150,-51.5 0,-51.5"/>
<text text-anchor="start" x="8" y="-70.5" font-family="FreeSans" font-size="10.00" fill="#000000">Fun4AllDstOutputManager</text>
<text text-anchor="middle" x="75" y="-58.5" font-family="FreeSans" font-size="10.00" fill="#000000">::Print</text>
</g>
<!-- Node2 -->
<g id="node2" class="node">
<title>Node2</title>
<g id="a_node2"><a xlink:href="../../d5/dec/classFun4AllBase.html#a41f9ac377743d046f590617fd6f4f0ed" target="_top" xlink:title="Returns the name of this module.">
<polygon fill="none" stroke="#000000" points="365.5,-76.5 365.5,-96.5 480.5,-96.5 480.5,-76.5 365.5,-76.5"/>
<text text-anchor="middle" x="423" y="-83.5" font-family="FreeSans" font-size="10.00" fill="#000000">Fun4AllBase::Name</text>
</a>
</g>
</g>
<!-- Node1&#45;&gt;Node2 -->
<g id="edge1" class="edge">
<title>Node1&#45;&gt;Node2</title>
<path fill="none" stroke="#191970" d="M132.1675,-83.5397C149.3321,-87.6347 168.3046,-91.4552 186,-93.5 242.7636,-100.0592 307.6525,-97.4468 355.1648,-93.6808"/>
<polygon fill="#191970" stroke="#191970" points="355.6568,-97.152 365.3328,-92.8363 355.0773,-90.1761 355.6568,-97.152"/>
</g>
<!-- Node3 -->
<g id="node3" class="node">
<title>Node3</title>
<g id="a_node3"><a xlink:href="../../d8/d77/classFun4AllOutputManager.html#a88e93d6a7e6cb5f40245b3cda59649bc" target="_top" xlink:title="get output file name">
<polygon fill="none" stroke="#000000" points="186,-51.5 186,-83.5 320,-83.5 320,-51.5 186,-51.5"/>
<text text-anchor="start" x="194" y="-70.5" font-family="FreeSans" font-size="10.00" fill="#000000">Fun4AllOutputManager</text>
<text text-anchor="middle" x="253" y="-58.5" font-family="FreeSans" font-size="10.00" fill="#000000">::OutFileName</text>
</a>
</g>
</g>
<!-- Node1&#45;&gt;Node3 -->
<g id="edge2" class="edge">
<title>Node1&#45;&gt;Node3</title>
<path fill="none" stroke="#191970" d="M150.23,-67.5C158.662,-67.5 167.263,-67.5 175.7203,-67.5"/>
<polygon fill="#191970" stroke="#191970" points="175.9442,-71.0001 185.9441,-67.5 175.9441,-64.0001 175.9442,-71.0001"/>
</g>
<!-- Node4 -->
<g id="node4" class="node">
<title>Node4</title>
<g id="a_node4"><a xlink:href="../../d8/d77/classFun4AllOutputManager.html#ae13cdf197e3ae6f5310199ca034b8754" target="_top" xlink:title="print method (dump event selector)">
<polygon fill="none" stroke="#000000" points="186,-.5 186,-32.5 320,-32.5 320,-.5 186,-.5"/>
<text text-anchor="start" x="194" y="-19.5" font-family="FreeSans" font-size="10.00" fill="#000000">Fun4AllOutputManager</text>
<text text-anchor="middle" x="253" y="-7.5" font-family="FreeSans" font-size="10.00" fill="#000000">::Print</text>
</a>
</g>
</g>
<!-- Node1&#45;&gt;Node4 -->
<g id="edge3" class="edge">
<title>Node1&#45;&gt;Node4</title>
<path fill="none" stroke="#191970" d="M131.3203,-51.3633C149.1055,-46.2675 168.9126,-40.5925 187.2937,-35.326"/>
<polygon fill="#191970" stroke="#191970" points="188.3969,-38.6508 197.0461,-32.5317 186.4688,-31.9215 188.3969,-38.6508"/>
</g>
<!-- Node4&#45;&gt;Node2 -->
<g id="edge4" class="edge">
<title>Node4&#45;&gt;Node2</title>
<path fill="none" stroke="#191970" d="M297.1018,-32.564C304.7641,-35.4667 312.6344,-38.5194 320,-41.5 344.2508,-51.3133 371.3491,-63.1894 391.6621,-72.2766"/>
<polygon fill="#191970" stroke="#191970" points="390.4905,-75.5872 401.0466,-76.4923 393.3589,-69.2019 390.4905,-75.5872"/>
</g>
<!-- Node5 -->
<g id="node5" class="node">
<title>Node5</title>
<g id="a_node5"><a xlink:href="../../d8/d77/classFun4AllOutputManager.html#af86abee7682ee661cf4477e1e0443f71" target="_top" xlink:title="get number of Events">
<polygon fill="none" stroke="#000000" points="356,-.5 356,-32.5 490,-32.5 490,-.5 356,-.5"/>
<text text-anchor="start" x="364" y="-19.5" font-family="FreeSans" font-size="10.00" fill="#000000">Fun4AllOutputManager</text>
<text text-anchor="middle" x="423" y="-7.5" font-family="FreeSans" font-size="10.00" fill="#000000">::EventsWritten</text>
</a>
</g>
</g>
<!-- Node4&#45;&gt;Node5 -->
<g id="edge5" class="edge">
<title>Node4&#45;&gt;Node5</title>
<path fill="none" stroke="#191970" d="M320.1885,-16.5C328.5021,-16.5 337.0537,-16.5 345.5056,-16.5"/>
<polygon fill="#191970" stroke="#191970" points="345.7429,-20.0001 355.7428,-16.5 345.7428,-13.0001 345.7429,-20.0001"/>
</g>
</g>
</svg>
