<?xml version="1.0" encoding="UTF-8" standalone="no"?>
<!DOCTYPE svg PUBLIC "-//W3C//DTD SVG 1.1//EN"
 "http://www.w3.org/Graphics/SVG/1.1/DTD/svg11.dtd">
<!-- Generated by graphviz version 2.40.1 (20161225.0304)
 -->
<!-- Title: SoftLeptonTaggingTruth::set_eta_range Pages: 1 -->
<svg width="402pt" height="41pt"
 viewBox="0.00 0.00 402.00 41.00" xmlns="http://www.w3.org/2000/svg" xmlns:xlink="http://www.w3.org/1999/xlink">
<g id="graph0" class="graph" transform="scale(1 1) rotate(0) translate(4 37)">
<title>SoftLeptonTaggingTruth::set_eta_range</title>
<!-- Node1 -->
<g id="node1" class="node">
<title>Node1</title>
<polygon fill="#bfbfbf" stroke="#000000" points="0,-.5 0,-32.5 135,-32.5 135,-.5 0,-.5"/>
<text text-anchor="start" x="8" y="-19.5" font-family="FreeSans" font-size="10.00" fill="#000000">SoftLeptonTaggingTruth</text>
<text text-anchor="middle" x="67.5" y="-7.5" font-family="FreeSans" font-size="10.00" fill="#000000">::set_eta_range</text>
</g>
<!-- Node2 -->
<g id="node2" class="node">
<title>Node2</title>
<g id="a_node2"><a xlink:href="../../d4/da9/namespaceboost.html#a630945877437d477612e4419562161cc" target="_top" xlink:title="boost::swap">
<polygon fill="none" stroke="#000000" points="171,-6.5 171,-26.5 248,-26.5 248,-6.5 171,-6.5"/>
<text text-anchor="middle" x="209.5" y="-13.5" font-family="FreeSans" font-size="10.00" fill="#000000">boost::swap</text>
</a>
</g>
</g>
<!-- Node1&#45;&gt;Node2 -->
<g id="edge1" class="edge">
<title>Node1&#45;&gt;Node2</title>
<path fill="none" stroke="#191970" d="M135.173,-16.5C143.8119,-16.5 152.5166,-16.5 160.7741,-16.5"/>
<polygon fill="#191970" stroke="#191970" points="160.9557,-20.0001 170.9557,-16.5 160.9557,-13.0001 160.9557,-20.0001"/>
</g>
<!-- Node3 -->
<g id="node3" class="node">
<title>Node3</title>
<g id="a_node3"><a xlink:href="../../d1/d96/classboost_1_1array.html#a342ef866ed696b18ce803b5c9aba4b2e" target="_top" xlink:title="boost::array::swap">
<polygon fill="none" stroke="#000000" points="284,-6.5 284,-26.5 394,-26.5 394,-6.5 284,-6.5"/>
<text text-anchor="middle" x="339" y="-13.5" font-family="FreeSans" font-size="10.00" fill="#000000">boost::array::swap</text>
</a>
</g>
</g>
<!-- Node2&#45;&gt;Node3 -->
<g id="edge2" class="edge">
<title>Node2&#45;&gt;Node3</title>
<path fill="none" stroke="#191970" d="M248.0036,-10.2692C256.0418,-9.9335 264.7295,-9.7606 273.4369,-9.7505"/>
<polygon fill="#191970" stroke="#191970" points="273.6084,-13.2515 283.6298,-9.8134 273.6517,-6.2516 273.6084,-13.2515"/>
</g>
<!-- Node3&#45;&gt;Node2 -->
<g id="edge3" class="edge">
<title>Node3&#45;&gt;Node2</title>
<path fill="none" stroke="#191970" d="M283.6298,-23.1866C275.1911,-23.3014 266.5353,-23.2603 258.252,-23.0634"/>
<polygon fill="#191970" stroke="#191970" points="258.112,-19.5571 248.0036,-22.7308 257.8848,-26.5535 258.112,-19.5571"/>
</g>
</g>
</svg>
