<?xml version="1.0" encoding="UTF-8" standalone="no"?>
<!DOCTYPE svg PUBLIC "-//W3C//DTD SVG 1.1//EN"
 "http://www.w3.org/Graphics/SVG/1.1/DTD/svg11.dtd">
<!-- Generated by graphviz version 2.40.1 (20161225.0304)
 -->
<!-- Title: HelixKalman::calculateScatteringVariance Pages: 1 -->
<svg width="1193pt" height="341pt"
 viewBox="0.00 0.00 1193.00 341.00" xmlns="http://www.w3.org/2000/svg" xmlns:xlink="http://www.w3.org/1999/xlink">
<g id="graph0" class="graph" transform="scale(1 1) rotate(0) translate(4 337)">
<title>HelixKalman::calculateScatteringVariance</title>
<!-- Node1 -->
<g id="node1" class="node">
<title>Node1</title>
<polygon fill="#bfbfbf" stroke="#000000" points="0,-153.5 0,-185.5 184,-185.5 184,-153.5 0,-153.5"/>
<text text-anchor="start" x="8" y="-172.5" font-family="FreeSans" font-size="10.00" fill="#000000">HelixKalman::calculateScattering</text>
<text text-anchor="middle" x="92" y="-160.5" font-family="FreeSans" font-size="10.00" fill="#000000">Variance</text>
</g>
<!-- Node2 -->
<g id="node2" class="node">
<title>Node2</title>
<g id="a_node2"><a xlink:href="../../d8/d85/classHelixKalman.html#a55adf1f408113d0e3994b07e7d629c6b" target="_top" xlink:title="HelixKalman::calculateMSCovariance">
<polygon fill="none" stroke="#000000" points="220,-159.5 220,-179.5 424,-179.5 424,-159.5 220,-159.5"/>
<text text-anchor="middle" x="322" y="-166.5" font-family="FreeSans" font-size="10.00" fill="#000000">HelixKalman::calculateMSCovariance</text>
</a>
</g>
</g>
<!-- Node1&#45;&gt;Node2 -->
<g id="edge1" class="edge">
<title>Node1&#45;&gt;Node2</title>
<path fill="none" stroke="#191970" d="M194.4824,-169.5C202.9393,-169.5 211.4877,-169.5 219.9415,-169.5"/>
<polygon fill="#191970" stroke="#191970" points="194.2246,-166.0001 184.2245,-169.5 194.2245,-173.0001 194.2246,-166.0001"/>
</g>
<!-- Node3 -->
<g id="node3" class="node">
<title>Node3</title>
<g id="a_node3"><a xlink:href="../../d8/d85/classHelixKalman.html#a7f78a3ec79f2fe6a3a1feff6d55bb836" target="_top" xlink:title="HelixKalman::addHit">
<polygon fill="none" stroke="#000000" points="460,-159.5 460,-179.5 581,-179.5 581,-159.5 460,-159.5"/>
<text text-anchor="middle" x="520.5" y="-166.5" font-family="FreeSans" font-size="10.00" fill="#000000">HelixKalman::addHit</text>
</a>
</g>
</g>
<!-- Node2&#45;&gt;Node3 -->
<g id="edge2" class="edge">
<title>Node2&#45;&gt;Node3</title>
<path fill="none" stroke="#191970" d="M434.1811,-169.5C443.0205,-169.5 451.7207,-169.5 459.9947,-169.5"/>
<polygon fill="#191970" stroke="#191970" points="434.1574,-166.0001 424.1573,-169.5 434.1573,-173.0001 434.1574,-166.0001"/>
</g>
<!-- Node4 -->
<g id="node4" class="node">
<title>Node4</title>
<g id="a_node4"><a xlink:href="../../da/d22/classsPHENIXTracker.html#adde67b3a2c59c354d373bde545fcb197" target="_top" xlink:title="sPHENIXTracker::finalize">
<polygon fill="none" stroke="#000000" points="642.5,-306.5 642.5,-326.5 780.5,-326.5 780.5,-306.5 642.5,-306.5"/>
<text text-anchor="middle" x="711.5" y="-313.5" font-family="FreeSans" font-size="10.00" fill="#000000">sPHENIXTracker::finalize</text>
</a>
</g>
</g>
<!-- Node3&#45;&gt;Node4 -->
<g id="edge3" class="edge">
<title>Node3&#45;&gt;Node4</title>
<path fill="none" stroke="#191970" d="M529.3778,-188.8347C543.5796,-217.4507 574.226,-270.587 617,-297.5 624.6486,-302.3124 633.2753,-305.94 642.1269,-308.6685"/>
<polygon fill="#191970" stroke="#191970" points="532.5319,-187.3174 525.0473,-179.8187 526.222,-190.3482 532.5319,-187.3174"/>
</g>
<!-- Node6 -->
<g id="node6" class="node">
<title>Node6</title>
<g id="a_node6"><a xlink:href="../../d8/ddc/classsPHENIXTrackerTpc.html#ae61cc40acaf1edc2887d17d342d15a20" target="_top" xlink:title="sPHENIXTrackerTpc::\lfinalize">
<polygon fill="none" stroke="#000000" points="652,-255.5 652,-287.5 771,-287.5 771,-255.5 652,-255.5"/>
<text text-anchor="start" x="660" y="-274.5" font-family="FreeSans" font-size="10.00" fill="#000000">sPHENIXTrackerTpc::</text>
<text text-anchor="middle" x="711.5" y="-262.5" font-family="FreeSans" font-size="10.00" fill="#000000">finalize</text>
</a>
</g>
</g>
<!-- Node3&#45;&gt;Node6 -->
<g id="edge5" class="edge">
<title>Node3&#45;&gt;Node6</title>
<path fill="none" stroke="#191970" d="M537.668,-186.9383C555.841,-204.4385 586.1159,-230.9651 617,-246.5 627.7641,-251.9144 639.8264,-256.2485 651.6388,-259.6851"/>
<polygon fill="#191970" stroke="#191970" points="539.7951,-184.1212 530.2112,-179.6048 534.8868,-189.1121 539.7951,-184.1212"/>
</g>
<!-- Node7 -->
<g id="node7" class="node">
<title>Node7</title>
<g id="a_node7"><a xlink:href="../../da/d18/classsPHENIXSeedFinder.html#ae135f0f78f7f38ac0adb45ecb2534b61" target="_top" xlink:title="sPHENIXSeedFinder::\lfinalize">
<polygon fill="none" stroke="#000000" points="651,-204.5 651,-236.5 772,-236.5 772,-204.5 651,-204.5"/>
<text text-anchor="start" x="659" y="-223.5" font-family="FreeSans" font-size="10.00" fill="#000000">sPHENIXSeedFinder::</text>
<text text-anchor="middle" x="711.5" y="-211.5" font-family="FreeSans" font-size="10.00" fill="#000000">finalize</text>
</a>
</g>
</g>
<!-- Node3&#45;&gt;Node7 -->
<g id="edge6" class="edge">
<title>Node3&#45;&gt;Node7</title>
<path fill="none" stroke="#191970" d="M567.6191,-182.2414C583.3218,-186.4752 600.9108,-191.2044 617,-195.5 627.9855,-198.433 639.6938,-201.5432 650.9939,-204.5369"/>
<polygon fill="#191970" stroke="#191970" points="568.1738,-178.7659 557.6073,-179.5402 566.3504,-185.5243 568.1738,-178.7659"/>
</g>
<!-- Node11 -->
<g id="node11" class="node">
<title>Node11</title>
<g id="a_node11"><a xlink:href="../../d8/ddc/classsPHENIXTrackerTpc.html#a71ff64599ec23d4003a74981ed9e2a50" target="_top" xlink:title="sPHENIXTrackerTpc::\lfindTracksByCombinatorialKalman">
<polygon fill="none" stroke="#000000" points="617,-153.5 617,-185.5 806,-185.5 806,-153.5 617,-153.5"/>
<text text-anchor="start" x="625" y="-172.5" font-family="FreeSans" font-size="10.00" fill="#000000">sPHENIXTrackerTpc::</text>
<text text-anchor="middle" x="711.5" y="-160.5" font-family="FreeSans" font-size="10.00" fill="#000000">findTracksByCombinatorialKalman</text>
</a>
</g>
</g>
<!-- Node3&#45;&gt;Node11 -->
<g id="edge10" class="edge">
<title>Node3&#45;&gt;Node11</title>
<path fill="none" stroke="#191970" d="M591.2195,-169.5C599.5626,-169.5 608.1768,-169.5 616.7825,-169.5"/>
<polygon fill="#191970" stroke="#191970" points="591.1961,-166.0001 581.196,-169.5 591.196,-173.0001 591.1961,-166.0001"/>
</g>
<!-- Node13 -->
<g id="node13" class="node">
<title>Node13</title>
<g id="a_node13"><a xlink:href="../../d8/ddc/classsPHENIXTrackerTpc.html#a6399d8c23c7ee62c60d3046e9fddf2ed" target="_top" xlink:title="sPHENIXTrackerTpc::\lfindTracksBySegments">
<polygon fill="none" stroke="#000000" points="646,-102.5 646,-134.5 777,-134.5 777,-102.5 646,-102.5"/>
<text text-anchor="start" x="654" y="-121.5" font-family="FreeSans" font-size="10.00" fill="#000000">sPHENIXTrackerTpc::</text>
<text text-anchor="middle" x="711.5" y="-109.5" font-family="FreeSans" font-size="10.00" fill="#000000">findTracksBySegments</text>
</a>
</g>
</g>
<!-- Node3&#45;&gt;Node13 -->
<g id="edge12" class="edge">
<title>Node3&#45;&gt;Node13</title>
<path fill="none" stroke="#191970" d="M567.6191,-156.7586C583.3218,-152.5248 600.9108,-147.7956 617,-143.5 627.9036,-140.5889 639.5191,-137.5032 650.7409,-134.5301"/>
<polygon fill="#191970" stroke="#191970" points="566.3504,-153.4757 557.6073,-159.4598 568.1738,-160.2341 566.3504,-153.4757"/>
</g>
<!-- Node14 -->
<g id="node14" class="node">
<title>Node14</title>
<g id="a_node14"><a xlink:href="../../da/d22/classsPHENIXTracker.html#a9ce14f6dd37731c87311a46ba3a68be5" target="_top" xlink:title="sPHENIXTracker::findTracks\lBySegments">
<polygon fill="none" stroke="#000000" points="635.5,-51.5 635.5,-83.5 787.5,-83.5 787.5,-51.5 635.5,-51.5"/>
<text text-anchor="start" x="643.5" y="-70.5" font-family="FreeSans" font-size="10.00" fill="#000000">sPHENIXTracker::findTracks</text>
<text text-anchor="middle" x="711.5" y="-58.5" font-family="FreeSans" font-size="10.00" fill="#000000">BySegments</text>
</a>
</g>
</g>
<!-- Node3&#45;&gt;Node14 -->
<g id="edge14" class="edge">
<title>Node3&#45;&gt;Node14</title>
<path fill="none" stroke="#191970" d="M537.668,-152.0617C555.841,-134.5615 586.1159,-108.0349 617,-92.5 623.6707,-89.1446 630.84,-86.2041 638.1394,-83.6349"/>
<polygon fill="#191970" stroke="#191970" points="534.8868,-149.8879 530.2112,-159.3952 539.7951,-154.8788 534.8868,-149.8879"/>
</g>
<!-- Node16 -->
<g id="node16" class="node">
<title>Node16</title>
<g id="a_node16"><a xlink:href="../../da/d18/classsPHENIXSeedFinder.html#af0162d42cf4ab7c8d8fa3ccadce98be4" target="_top" xlink:title="sPHENIXSeedFinder::\lfindTracksBySegments">
<polygon fill="none" stroke="#000000" points="646,-.5 646,-32.5 777,-32.5 777,-.5 646,-.5"/>
<text text-anchor="start" x="654" y="-19.5" font-family="FreeSans" font-size="10.00" fill="#000000">sPHENIXSeedFinder::</text>
<text text-anchor="middle" x="711.5" y="-7.5" font-family="FreeSans" font-size="10.00" fill="#000000">findTracksBySegments</text>
</a>
</g>
</g>
<!-- Node3&#45;&gt;Node16 -->
<g id="edge16" class="edge">
<title>Node3&#45;&gt;Node16</title>
<path fill="none" stroke="#191970" d="M529.7786,-150.1178C544.3327,-121.8318 575.2387,-69.5652 617,-41.5 625.733,-35.6311 635.7788,-31.1386 645.9893,-27.7"/>
<polygon fill="#191970" stroke="#191970" points="526.4978,-148.8538 525.1665,-159.3647 532.7619,-151.9782 526.4978,-148.8538"/>
</g>
<!-- Node5 -->
<g id="node5" class="node">
<title>Node5</title>
<g id="a_node5"><a xlink:href="../../da/d22/classsPHENIXTracker.html#a0ba292566fa8b0164bea26e250e71891" target="_top" xlink:title="sPHENIXTracker::findHelices\lParallel">
<polygon fill="none" stroke="#000000" points="842,-300.5 842,-332.5 1000,-332.5 1000,-300.5 842,-300.5"/>
<text text-anchor="start" x="850" y="-319.5" font-family="FreeSans" font-size="10.00" fill="#000000">sPHENIXTracker::findHelices</text>
<text text-anchor="middle" x="921" y="-307.5" font-family="FreeSans" font-size="10.00" fill="#000000">Parallel</text>
</a>
</g>
</g>
<!-- Node4&#45;&gt;Node5 -->
<g id="edge4" class="edge">
<title>Node4&#45;&gt;Node5</title>
<path fill="none" stroke="#191970" d="M790.9072,-316.5C807.5494,-316.5 825.0995,-316.5 841.7364,-316.5"/>
<polygon fill="#191970" stroke="#191970" points="790.6788,-313.0001 780.6787,-316.5 790.6787,-320.0001 790.6788,-313.0001"/>
</g>
<!-- Node8 -->
<g id="node8" class="node">
<title>Node8</title>
<g id="a_node8"><a xlink:href="../../da/d18/classsPHENIXSeedFinder.html#a4c3ca125c66a428a05c20c955fb6334d" target="_top" xlink:title="sPHENIXSeedFinder::\lfindHelicesParallel">
<polygon fill="none" stroke="#000000" points="860.5,-238.5 860.5,-270.5 981.5,-270.5 981.5,-238.5 860.5,-238.5"/>
<text text-anchor="start" x="868.5" y="-257.5" font-family="FreeSans" font-size="10.00" fill="#000000">sPHENIXSeedFinder::</text>
<text text-anchor="middle" x="921" y="-245.5" font-family="FreeSans" font-size="10.00" fill="#000000">findHelicesParallel</text>
</a>
</g>
</g>
<!-- Node7&#45;&gt;Node8 -->
<g id="edge7" class="edge">
<title>Node7&#45;&gt;Node8</title>
<path fill="none" stroke="#191970" d="M782.0163,-231.9442C807.3667,-236.0583 835.7226,-240.6602 860.1775,-244.629"/>
<polygon fill="#191970" stroke="#191970" points="782.5276,-228.4814 772.0961,-230.3342 781.4062,-235.391 782.5276,-228.4814"/>
</g>
<!-- Node9 -->
<g id="node9" class="node">
<title>Node9</title>
<g id="a_node9"><a xlink:href="../../d8/dd4/classPHHoughSeeding.html#a0402182dc0e88c010258ba726e6c706b" target="_top" xlink:title="code to perform the final tracking and vertexing">
<polygon fill="none" stroke="#000000" points="857.5,-187.5 857.5,-219.5 984.5,-219.5 984.5,-187.5 857.5,-187.5"/>
<text text-anchor="start" x="865.5" y="-206.5" font-family="FreeSans" font-size="10.00" fill="#000000">PHHoughSeeding::full</text>
<text text-anchor="middle" x="921" y="-194.5" font-family="FreeSans" font-size="10.00" fill="#000000">_track_seeding</text>
</a>
</g>
</g>
<!-- Node7&#45;&gt;Node9 -->
<g id="edge8" class="edge">
<title>Node7&#45;&gt;Node9</title>
<path fill="none" stroke="#191970" d="M782.3133,-214.7538C806.5839,-212.7844 833.5797,-210.5938 857.2564,-208.6725"/>
<polygon fill="#191970" stroke="#191970" points="781.7802,-211.2855 772.0961,-215.5829 782.3464,-218.2625 781.7802,-211.2855"/>
</g>
<!-- Node10 -->
<g id="node10" class="node">
<title>Node10</title>
<g id="a_node10"><a xlink:href="../../d8/dd4/classPHHoughSeeding.html#a8b2c7b85b2bcbe054e071dd6ff624f7d" target="_top" xlink:title="PHHoughSeeding::Process">
<polygon fill="none" stroke="#000000" points="1036,-193.5 1036,-213.5 1185,-213.5 1185,-193.5 1036,-193.5"/>
<text text-anchor="middle" x="1110.5" y="-200.5" font-family="FreeSans" font-size="10.00" fill="#000000">PHHoughSeeding::Process</text>
</a>
</g>
</g>
<!-- Node9&#45;&gt;Node10 -->
<g id="edge9" class="edge">
<title>Node9&#45;&gt;Node10</title>
<path fill="none" stroke="#191970" d="M994.8077,-203.5C1008.297,-203.5 1022.3824,-203.5 1035.8947,-203.5"/>
<polygon fill="#191970" stroke="#191970" points="994.628,-200.0001 984.6279,-203.5 994.6279,-207.0001 994.628,-200.0001"/>
</g>
<!-- Node12 -->
<g id="node12" class="node">
<title>Node12</title>
<g id="a_node12"><a xlink:href="../../d8/ddc/classsPHENIXTrackerTpc.html#a03d04ab414ae2c90cffcf5c5d9cf39ad" target="_top" xlink:title="sPHENIXTrackerTpc::\lfindTracks">
<polygon fill="none" stroke="#000000" points="861.5,-114.5 861.5,-146.5 980.5,-146.5 980.5,-114.5 861.5,-114.5"/>
<text text-anchor="start" x="869.5" y="-133.5" font-family="FreeSans" font-size="10.00" fill="#000000">sPHENIXTrackerTpc::</text>
<text text-anchor="middle" x="921" y="-121.5" font-family="FreeSans" font-size="10.00" fill="#000000">findTracks</text>
</a>
</g>
</g>
<!-- Node11&#45;&gt;Node12 -->
<g id="edge11" class="edge">
<title>Node11&#45;&gt;Node12</title>
<path fill="none" stroke="#191970" d="M807.4804,-151.6325C825.8607,-148.2109 844.6037,-144.7217 861.4244,-141.5904"/>
<polygon fill="#191970" stroke="#191970" points="806.8091,-148.1973 797.6186,-153.4684 808.0903,-155.079 806.8091,-148.1973"/>
</g>
<!-- Node13&#45;&gt;Node12 -->
<g id="edge13" class="edge">
<title>Node13&#45;&gt;Node12</title>
<path fill="none" stroke="#191970" d="M787.4629,-122.8511C811.74,-124.2417 838.2536,-125.7603 861.2111,-127.0753"/>
<polygon fill="#191970" stroke="#191970" points="787.3961,-119.3416 777.2123,-122.264 786.9958,-126.3302 787.3961,-119.3416"/>
</g>
<!-- Node15 -->
<g id="node15" class="node">
<title>Node15</title>
<g id="a_node15"><a xlink:href="../../da/d22/classsPHENIXTracker.html#a2939ba6b027430cf6c0ad7bd2eefd130" target="_top" xlink:title="sPHENIXTracker::findTracks">
<polygon fill="none" stroke="#000000" points="845,-57.5 845,-77.5 997,-77.5 997,-57.5 845,-57.5"/>
<text text-anchor="middle" x="921" y="-64.5" font-family="FreeSans" font-size="10.00" fill="#000000">sPHENIXTracker::findTracks</text>
</a>
</g>
</g>
<!-- Node14&#45;&gt;Node15 -->
<g id="edge15" class="edge">
<title>Node14&#45;&gt;Node15</title>
<path fill="none" stroke="#191970" d="M797.8654,-67.5C813.4391,-67.5 829.5724,-67.5 844.8298,-67.5"/>
<polygon fill="#191970" stroke="#191970" points="797.727,-64.0001 787.7269,-67.5 797.7269,-71.0001 797.727,-64.0001"/>
</g>
<!-- Node17 -->
<g id="node17" class="node">
<title>Node17</title>
<g id="a_node17"><a xlink:href="../../da/d18/classsPHENIXSeedFinder.html#a34bfad343dac14430c618e9ec66ee55a" target="_top" xlink:title="sPHENIXSeedFinder::\lfindTracks">
<polygon fill="none" stroke="#000000" points="860.5,-.5 860.5,-32.5 981.5,-32.5 981.5,-.5 860.5,-.5"/>
<text text-anchor="start" x="868.5" y="-19.5" font-family="FreeSans" font-size="10.00" fill="#000000">sPHENIXSeedFinder::</text>
<text text-anchor="middle" x="921" y="-7.5" font-family="FreeSans" font-size="10.00" fill="#000000">findTracks</text>
</a>
</g>
</g>
<!-- Node16&#45;&gt;Node17 -->
<g id="edge17" class="edge">
<title>Node16&#45;&gt;Node17</title>
<path fill="none" stroke="#191970" d="M787.3236,-16.5C811.267,-16.5 837.3983,-16.5 860.1544,-16.5"/>
<polygon fill="#191970" stroke="#191970" points="787.2123,-13.0001 777.2123,-16.5 787.2123,-20.0001 787.2123,-13.0001"/>
</g>
</g>
</svg>
