<?xml version="1.0" encoding="UTF-8" standalone="no"?>
<!DOCTYPE svg PUBLIC "-//W3C//DTD SVG 1.1//EN"
 "http://www.w3.org/Graphics/SVG/1.1/DTD/svg11.dtd">
<!-- Generated by graphviz version 2.40.1 (20161225.0304)
 -->
<!-- Title: coresoftware/blob/master/simulation/g4simulation/g4bbc/BbcVertexv1.h Pages: 1 -->
<svg width="265pt" height="224pt"
 viewBox="0.00 0.00 265.00 224.00" xmlns="http://www.w3.org/2000/svg" xmlns:xlink="http://www.w3.org/1999/xlink">
<g id="graph0" class="graph" transform="scale(1 1) rotate(0) translate(4 220)">
<title>coresoftware/blob/master/simulation/g4simulation/g4bbc/BbcVertexv1.h</title>
<!-- Node1 -->
<g id="node1" class="node">
<title>Node1</title>
<polygon fill="#bfbfbf" stroke="#000000" points="111,-171.5 111,-215.5 257,-215.5 257,-171.5 111,-171.5"/>
<text text-anchor="start" x="119" y="-202.5" font-family="FreeSans" font-size="10.00" fill="#000000">coresoftware/blob/master</text>
<text text-anchor="start" x="119" y="-190.5" font-family="FreeSans" font-size="10.00" fill="#000000">/simulation/g4simulation</text>
<text text-anchor="middle" x="184" y="-178.5" font-family="FreeSans" font-size="10.00" fill="#000000">/g4bbc/BbcVertexv1.h</text>
</g>
<!-- Node2 -->
<g id="node2" class="node">
<title>Node2</title>
<g id="a_node2"><a xlink:href="../../db/d67/BbcVertex_8h.html" target="_top" xlink:title="BbcVertex.h">
<polygon fill="none" stroke="#000000" points="112.5,-114.5 112.5,-134.5 189.5,-134.5 189.5,-114.5 112.5,-114.5"/>
<text text-anchor="middle" x="151" y="-121.5" font-family="FreeSans" font-size="10.00" fill="#000000">BbcVertex.h</text>
</a>
</g>
</g>
<!-- Node1&#45;&gt;Node2 -->
<g id="edge1" class="edge">
<title>Node1&#45;&gt;Node2</title>
<path fill="none" stroke="#191970" d="M173.3769,-171.2882C169.1517,-162.4535 164.335,-152.3823 160.2555,-143.8525"/>
<polygon fill="#191970" stroke="#191970" points="163.3569,-142.2249 155.8848,-134.7137 157.0419,-145.2451 163.3569,-142.2249"/>
</g>
<!-- Node5 -->
<g id="node5" class="node">
<title>Node5</title>
<polygon fill="none" stroke="#bfbfbf" points="103,-.5 103,-20.5 163,-20.5 163,-.5 103,-.5"/>
<text text-anchor="middle" x="133" y="-7.5" font-family="FreeSans" font-size="10.00" fill="#000000">iostream</text>
</g>
<!-- Node1&#45;&gt;Node5 -->
<g id="edge7" class="edge">
<title>Node1&#45;&gt;Node5</title>
<path fill="none" stroke="#191970" d="M198.9114,-171.2171C215.8174,-142.8986 238.4174,-93.3362 217,-57 207.3067,-40.5546 189.4753,-29.5172 172.727,-22.3403"/>
<polygon fill="#191970" stroke="#191970" points="173.6483,-18.9421 163.0608,-18.5491 171.0924,-25.4588 173.6483,-18.9421"/>
</g>
<!-- Node3 -->
<g id="node3" class="node">
<title>Node3</title>
<g id="a_node3"><a xlink:href="../../df/d32/PHObject_8h.html" target="_top" xlink:title="phool/PHObject.h">
<polygon fill="none" stroke="#000000" points="0,-57.5 0,-77.5 104,-77.5 104,-57.5 0,-57.5"/>
<text text-anchor="middle" x="52" y="-64.5" font-family="FreeSans" font-size="10.00" fill="#000000">phool/PHObject.h</text>
</a>
</g>
</g>
<!-- Node2&#45;&gt;Node3 -->
<g id="edge2" class="edge">
<title>Node2&#45;&gt;Node3</title>
<path fill="none" stroke="#191970" d="M133.3008,-114.3095C118.0965,-105.5556 95.9506,-92.8049 78.6104,-82.8211"/>
<polygon fill="#191970" stroke="#191970" points="79.9586,-79.5587 69.546,-77.6022 76.4658,-85.6251 79.9586,-79.5587"/>
</g>
<!-- Node2&#45;&gt;Node5 -->
<g id="edge6" class="edge">
<title>Node2&#45;&gt;Node5</title>
<path fill="none" stroke="#191970" d="M149.4026,-114.3833C146.4479,-95.6703 140.0779,-55.3266 136.2031,-30.7866"/>
<polygon fill="#191970" stroke="#191970" points="139.6366,-30.0897 134.6197,-20.7579 132.7222,-31.1815 139.6366,-30.0897"/>
</g>
<!-- Node6 -->
<g id="node6" class="node">
<title>Node6</title>
<polygon fill="none" stroke="#bfbfbf" points="160,-57.5 160,-77.5 208,-77.5 208,-57.5 160,-57.5"/>
<text text-anchor="middle" x="184" y="-64.5" font-family="FreeSans" font-size="10.00" fill="#000000">cmath</text>
</g>
<!-- Node2&#45;&gt;Node6 -->
<g id="edge5" class="edge">
<title>Node2&#45;&gt;Node6</title>
<path fill="none" stroke="#191970" d="M156.8997,-114.3095C161.3578,-106.6093 167.6062,-95.8166 172.9798,-86.5349"/>
<polygon fill="#191970" stroke="#191970" points="176.1699,-88.0102 178.1513,-77.6022 170.1119,-84.5029 176.1699,-88.0102"/>
</g>
<!-- Node4 -->
<g id="node4" class="node">
<title>Node4</title>
<polygon fill="none" stroke="#bfbfbf" points="19.5,-.5 19.5,-20.5 84.5,-20.5 84.5,-.5 19.5,-.5"/>
<text text-anchor="middle" x="52" y="-7.5" font-family="FreeSans" font-size="10.00" fill="#000000">TObject.h</text>
</g>
<!-- Node3&#45;&gt;Node4 -->
<g id="edge3" class="edge">
<title>Node3&#45;&gt;Node4</title>
<path fill="none" stroke="#191970" d="M52,-57.3095C52,-49.9335 52,-39.72 52,-30.715"/>
<polygon fill="#191970" stroke="#191970" points="55.5001,-30.6022 52,-20.6022 48.5001,-30.6023 55.5001,-30.6022"/>
</g>
<!-- Node3&#45;&gt;Node5 -->
<g id="edge4" class="edge">
<title>Node3&#45;&gt;Node5</title>
<path fill="none" stroke="#191970" d="M66.4812,-57.3095C78.6907,-48.7177 96.3713,-36.2758 110.4357,-26.3786"/>
<polygon fill="#191970" stroke="#191970" points="112.4804,-29.2195 118.6442,-20.6022 108.4519,-23.4949 112.4804,-29.2195"/>
</g>
</g>
</svg>
