<?xml version="1.0" encoding="UTF-8" standalone="no"?>
<!DOCTYPE svg PUBLIC "-//W3C//DTD SVG 1.1//EN"
 "http://www.w3.org/Graphics/SVG/1.1/DTD/svg11.dtd">
<!-- Generated by graphviz version 2.40.1 (20161225.0304)
 -->
<!-- Title: BbcInit Pages: 1 -->
<svg width="333pt" height="725pt"
 viewBox="0.00 0.00 333.00 725.00" xmlns="http://www.w3.org/2000/svg" xmlns:xlink="http://www.w3.org/1999/xlink">
<g id="graph0" class="graph" transform="scale(1 1) rotate(0) translate(4 721)">
<title>BbcInit</title>
<!-- Node1 -->
<g id="node1" class="node">
<title>Node1</title>
<polygon fill="#bfbfbf" stroke="#000000" points="0,-366.5 0,-386.5 52,-386.5 52,-366.5 0,-366.5"/>
<text text-anchor="middle" x="26" y="-373.5" font-family="FreeSans" font-size="10.00" fill="#000000">BbcInit</text>
</g>
<!-- Node2 -->
<g id="node2" class="node">
<title>Node2</title>
<g id="a_node2"><a xlink:href="../../d3/d7f/Fun_8C.html#af0d3c8a78765149fef9b2beeecfc6279" target="_top" xlink:title="ConfigureDetectors">
<polygon fill="none" stroke="#000000" points="114.5,-696.5 114.5,-716.5 228.5,-716.5 228.5,-696.5 114.5,-696.5"/>
<text text-anchor="middle" x="171.5" y="-703.5" font-family="FreeSans" font-size="10.00" fill="#000000">ConfigureDetectors</text>
</a>
</g>
</g>
<!-- Node1&#45;&gt;Node2 -->
<g id="edge1" class="edge">
<title>Node1&#45;&gt;Node2</title>
<path fill="none" stroke="#191970" d="M27.2404,-396.9437C31.4455,-459.3403 47.2389,-645.625 88,-687.5 95.1553,-694.8508 104.5194,-699.6194 114.382,-702.6637"/>
<polygon fill="#191970" stroke="#191970" points="30.7225,-396.5516 26.5867,-386.7974 23.737,-397.0018 30.7225,-396.5516"/>
</g>
<!-- Node4 -->
<g id="node4" class="node">
<title>Node4</title>
<g id="a_node4"><a xlink:href="../../db/dc0/Fun4All__AnaTutorial_8C.html#a8c484ea6d7477278e981ef056b17eac9" target="_top" xlink:title="Fun4All_AnaTutorial">
<polygon fill="none" stroke="#000000" points="114,-657.5 114,-677.5 229,-677.5 229,-657.5 114,-657.5"/>
<text text-anchor="middle" x="171.5" y="-664.5" font-family="FreeSans" font-size="10.00" fill="#000000">Fun4All_AnaTutorial</text>
</a>
</g>
</g>
<!-- Node1&#45;&gt;Node4 -->
<g id="edge3" class="edge">
<title>Node1&#45;&gt;Node4</title>
<path fill="none" stroke="#191970" d="M27.8748,-396.9424C33.5152,-453.9242 52.1883,-612.7018 88,-648.5 95.0448,-655.5421 104.1215,-660.1996 113.6841,-663.2382"/>
<polygon fill="#191970" stroke="#191970" points="31.3303,-396.3093 26.8932,-386.6883 24.3621,-396.9764 31.3303,-396.3093"/>
</g>
<!-- Node5 -->
<g id="node5" class="node">
<title>Node5</title>
<g id="a_node5"><a xlink:href="../../dd/d28/Fun4All__AnaTutorial__Jets_8C.html#a55eaaeb770a3177f917012de87877d28" target="_top" xlink:title="Fun4All_AnaTutorial_Jets">
<polygon fill="none" stroke="#000000" points="102,-618.5 102,-638.5 241,-638.5 241,-618.5 102,-618.5"/>
<text text-anchor="middle" x="171.5" y="-625.5" font-family="FreeSans" font-size="10.00" fill="#000000">Fun4All_AnaTutorial_Jets</text>
</a>
</g>
</g>
<!-- Node1&#45;&gt;Node5 -->
<g id="edge4" class="edge">
<title>Node1&#45;&gt;Node5</title>
<path fill="none" stroke="#191970" d="M28.6758,-396.6672C35.8416,-447.6302 57.0457,-579.6504 88,-609.5 92.0667,-613.4216 96.7659,-616.5976 101.8203,-619.1629"/>
<polygon fill="#191970" stroke="#191970" points="32.1181,-396.0066 27.2928,-386.5744 25.1829,-396.957 32.1181,-396.0066"/>
</g>
<!-- Node6 -->
<g id="node6" class="node">
<title>Node6</title>
<g id="a_node6"><a xlink:href="../../da/d02/Fun4All__G4__EICDetector_8C.html#afbe82cefa1d1fd031d9a8586b7bb68c6" target="_top" xlink:title="Fun4All_G4_EICDetector">
<polygon fill="none" stroke="#000000" points="102,-579.5 102,-599.5 241,-599.5 241,-579.5 102,-579.5"/>
<text text-anchor="middle" x="171.5" y="-586.5" font-family="FreeSans" font-size="10.00" fill="#000000">Fun4All_G4_EICDetector</text>
</a>
</g>
</g>
<!-- Node1&#45;&gt;Node6 -->
<g id="edge5" class="edge">
<title>Node1&#45;&gt;Node6</title>
<path fill="none" stroke="#191970" d="M29.8567,-396.8244C38.7508,-441.582 61.9447,-546.5846 88,-570.5 92.0525,-574.2197 96.6779,-577.2611 101.6258,-579.7425"/>
<polygon fill="#191970" stroke="#191970" points="33.2573,-395.976 27.9105,-386.8293 26.3863,-397.3139 33.2573,-395.976"/>
</g>
<!-- Node7 -->
<g id="node7" class="node">
<title>Node7</title>
<g id="a_node7"><a xlink:href="../../dd/d2a/Fun4All__G4__EICDetector__LQ_8C.html#aaa01242fd6e77ca43a9d49a6d46008e4" target="_top" xlink:title="Fun4All_G4_EICDetector_LQ">
<polygon fill="none" stroke="#000000" points="93.5,-540.5 93.5,-560.5 249.5,-560.5 249.5,-540.5 93.5,-540.5"/>
<text text-anchor="middle" x="171.5" y="-547.5" font-family="FreeSans" font-size="10.00" fill="#000000">Fun4All_G4_EICDetector_LQ</text>
</a>
</g>
</g>
<!-- Node1&#45;&gt;Node7 -->
<g id="edge6" class="edge">
<title>Node1&#45;&gt;Node7</title>
<path fill="none" stroke="#191970" d="M28.113,-396.6051C32.7236,-429.9056 46.8208,-496.3187 88,-531.5 92.1823,-535.0731 96.8999,-538.0103 101.9107,-540.4207"/>
<polygon fill="#191970" stroke="#191970" points="31.5859,-396.1703 26.8876,-386.6742 24.6386,-397.0276 31.5859,-396.1703"/>
</g>
<!-- Node8 -->
<g id="node8" class="node">
<title>Node8</title>
<g id="a_node8"><a xlink:href="../../d4/df5/Fun4All__G4__EICDetector__LQ__reference_8C.html#a2feefc472f17f90b3cbe74897d049f75" target="_top" xlink:title="Fun4All_G4_EICDetector\l_LQ_reference">
<polygon fill="none" stroke="#000000" points="102,-489.5 102,-521.5 241,-521.5 241,-489.5 102,-489.5"/>
<text text-anchor="start" x="110" y="-508.5" font-family="FreeSans" font-size="10.00" fill="#000000">Fun4All_G4_EICDetector</text>
<text text-anchor="middle" x="171.5" y="-496.5" font-family="FreeSans" font-size="10.00" fill="#000000">_LQ_reference</text>
</a>
</g>
</g>
<!-- Node1&#45;&gt;Node8 -->
<g id="edge7" class="edge">
<title>Node1&#45;&gt;Node8</title>
<path fill="none" stroke="#191970" d="M32.7523,-396.4003C41.729,-419.8928 59.82,-458.5363 88,-480.5 92.4161,-483.9419 97.2999,-486.9111 102.4239,-489.4724"/>
<polygon fill="#191970" stroke="#191970" points="35.9655,-394.9944 29.2657,-386.7869 29.385,-397.3811 35.9655,-394.9944"/>
</g>
<!-- Node9 -->
<g id="node9" class="node">
<title>Node9</title>
<g id="a_node9"><a xlink:href="../../d3/d51/Fun4All__G4__EICDetector__RICH_8C.html#a5739502b0a7a1ba782c01069f77e933f" target="_top" xlink:title="Fun4All_G4_EICDetector_RICH">
<polygon fill="none" stroke="#000000" points="88,-450.5 88,-470.5 255,-470.5 255,-450.5 88,-450.5"/>
<text text-anchor="middle" x="171.5" y="-457.5" font-family="FreeSans" font-size="10.00" fill="#000000">Fun4All_G4_EICDetector_RICH</text>
</a>
</g>
</g>
<!-- Node1&#45;&gt;Node9 -->
<g id="edge8" class="edge">
<title>Node1&#45;&gt;Node9</title>
<path fill="none" stroke="#191970" d="M38.8351,-395.0423C50.0903,-409.8732 67.7846,-430.0225 88,-441.5 94.335,-445.0968 101.3041,-448.0127 108.4323,-450.3768"/>
<polygon fill="#191970" stroke="#191970" points="41.4139,-392.6384 32.6942,-386.6203 35.7578,-396.7625 41.4139,-392.6384"/>
</g>
<!-- Node10 -->
<g id="node10" class="node">
<title>Node10</title>
<g id="a_node10"><a xlink:href="../../d7/d9e/Fun4All__G4__fsPHENIX_8C.html#af48911d394d2412e817583700f2bbee2" target="_top" xlink:title="Fun4All_G4_fsPHENIX">
<polygon fill="none" stroke="#000000" points="109.5,-411.5 109.5,-431.5 233.5,-431.5 233.5,-411.5 109.5,-411.5"/>
<text text-anchor="middle" x="171.5" y="-418.5" font-family="FreeSans" font-size="10.00" fill="#000000">Fun4All_G4_fsPHENIX</text>
</a>
</g>
</g>
<!-- Node1&#45;&gt;Node10 -->
<g id="edge9" class="edge">
<title>Node1&#45;&gt;Node10</title>
<path fill="none" stroke="#191970" d="M56.8267,-390.6666C66.6551,-394.8465 77.6638,-399.1844 88,-402.5 98.4759,-405.8604 109.8724,-408.8657 120.782,-411.4403"/>
<polygon fill="#191970" stroke="#191970" points="58.0258,-387.3712 47.4603,-386.5831 55.2283,-393.7879 58.0258,-387.3712"/>
</g>
<!-- Node11 -->
<g id="node11" class="node">
<title>Node11</title>
<g id="a_node11"><a xlink:href="../../da/d2f/Fun4All__G4__fsPHENIX__FastSim_8C.html#a66fb850cae5fcaadda23b74a25ce4c9c" target="_top" xlink:title="Fun4All_G4_fsPHENIX\l_FastSim">
<polygon fill="none" stroke="#000000" points="109.5,-360.5 109.5,-392.5 233.5,-392.5 233.5,-360.5 109.5,-360.5"/>
<text text-anchor="start" x="117.5" y="-379.5" font-family="FreeSans" font-size="10.00" fill="#000000">Fun4All_G4_fsPHENIX</text>
<text text-anchor="middle" x="171.5" y="-367.5" font-family="FreeSans" font-size="10.00" fill="#000000">_FastSim</text>
</a>
</g>
</g>
<!-- Node1&#45;&gt;Node11 -->
<g id="edge10" class="edge">
<title>Node1&#45;&gt;Node11</title>
<path fill="none" stroke="#191970" d="M62.3711,-376.5C76.6264,-376.5 93.3911,-376.5 109.4454,-376.5"/>
<polygon fill="#191970" stroke="#191970" points="62.0125,-373.0001 52.0125,-376.5 62.0125,-380.0001 62.0125,-373.0001"/>
</g>
<!-- Node12 -->
<g id="node12" class="node">
<title>Node12</title>
<g id="a_node12"><a xlink:href="../../d0/da6/Fun4All__G4__fsPHENIX__pi0_8C.html#a023d91d47b678e5d7f1751834aa517c6" target="_top" xlink:title="Fun4All_G4_fsPHENIX_pi0">
<polygon fill="none" stroke="#000000" points="99,-321.5 99,-341.5 244,-341.5 244,-321.5 99,-321.5"/>
<text text-anchor="middle" x="171.5" y="-328.5" font-family="FreeSans" font-size="10.00" fill="#000000">Fun4All_G4_fsPHENIX_pi0</text>
</a>
</g>
</g>
<!-- Node1&#45;&gt;Node12 -->
<g id="edge11" class="edge">
<title>Node1&#45;&gt;Node12</title>
<path fill="none" stroke="#191970" d="M58.1478,-362.4846C67.6541,-358.6279 78.1536,-354.6453 88,-351.5 99.6438,-347.7806 112.3953,-344.3919 124.3504,-341.5038"/>
<polygon fill="#191970" stroke="#191970" points="56.5646,-359.3522 48.6697,-366.4177 59.2476,-365.8176 56.5646,-359.3522"/>
</g>
<!-- Node13 -->
<g id="node13" class="node">
<title>Node13</title>
<g id="a_node13"><a xlink:href="../../d5/d2c/macros_2blob_2master_2macros_2g4simulations_2Fun4All__G4__sPHENIX_8C.html#a6eaaa492d7023ec86c562dc63aa1e5a4" target="_top" xlink:title="Fun4All_G4_sPHENIX">
<polygon fill="none" stroke="#000000" points="111,-282.5 111,-302.5 232,-302.5 232,-282.5 111,-282.5"/>
<text text-anchor="middle" x="171.5" y="-289.5" font-family="FreeSans" font-size="10.00" fill="#000000">Fun4All_G4_sPHENIX</text>
</a>
</g>
</g>
<!-- Node1&#45;&gt;Node13 -->
<g id="edge12" class="edge">
<title>Node1&#45;&gt;Node13</title>
<path fill="none" stroke="#191970" d="M39.3102,-357.8187C50.6372,-343.3016 68.19,-323.7946 88,-312.5 95.1223,-308.4392 103.0384,-305.2002 111.0785,-302.6172"/>
<polygon fill="#191970" stroke="#191970" points="36.302,-355.9961 33.0976,-366.0948 41.9002,-360.1986 36.302,-355.9961"/>
</g>
<!-- Node14 -->
<g id="node14" class="node">
<title>Node14</title>
<g id="a_node14"><a xlink:href="../../d3/de2/Fun4All__G4__sPHENIX__AnaGenFit_8C.html#a9bf3f2f72ed69a17e2d0c1121d48013c" target="_top" xlink:title="Fun4All_G4_sPHENIX\l_AnaGenFit">
<polygon fill="none" stroke="#000000" points="111,-231.5 111,-263.5 232,-263.5 232,-231.5 111,-231.5"/>
<text text-anchor="start" x="119" y="-250.5" font-family="FreeSans" font-size="10.00" fill="#000000">Fun4All_G4_sPHENIX</text>
<text text-anchor="middle" x="171.5" y="-238.5" font-family="FreeSans" font-size="10.00" fill="#000000">_AnaGenFit</text>
</a>
</g>
</g>
<!-- Node1&#45;&gt;Node14 -->
<g id="edge13" class="edge">
<title>Node1&#45;&gt;Node14</title>
<path fill="none" stroke="#191970" d="M32.8447,-356.8416C41.9124,-333.6247 60.0928,-295.4017 88,-273.5 94.8081,-268.157 102.724,-263.9043 110.9169,-260.5214"/>
<polygon fill="#191970" stroke="#191970" points="29.5176,-355.7474 29.3175,-366.3403 36.0798,-358.1842 29.5176,-355.7474"/>
</g>
<!-- Node15 -->
<g id="node15" class="node">
<title>Node15</title>
<g id="a_node15"><a xlink:href="../../da/dd0/Fun4All__G4__sPHENIX__photonjet_8C.html#a6f18519e216acc05399e562ea57ea77c" target="_top" xlink:title="Fun4All_G4_sPHENIX\l_photonjet">
<polygon fill="none" stroke="#000000" points="111,-180.5 111,-212.5 232,-212.5 232,-180.5 111,-180.5"/>
<text text-anchor="start" x="119" y="-199.5" font-family="FreeSans" font-size="10.00" fill="#000000">Fun4All_G4_sPHENIX</text>
<text text-anchor="middle" x="171.5" y="-187.5" font-family="FreeSans" font-size="10.00" fill="#000000">_photonjet</text>
</a>
</g>
</g>
<!-- Node1&#45;&gt;Node15 -->
<g id="edge14" class="edge">
<title>Node1&#45;&gt;Node15</title>
<path fill="none" stroke="#191970" d="M28.6025,-355.9647C33.8528,-323.0912 48.7681,-258.6805 88,-222.5 94.5852,-216.427 102.5702,-211.7723 110.96,-208.2047"/>
<polygon fill="#191970" stroke="#191970" points="25.0927,-355.7811 27.1245,-366.1792 32.0206,-356.7836 25.0927,-355.7811"/>
</g>
<!-- Node16 -->
<g id="node16" class="node">
<title>Node16</title>
<g id="a_node16"><a xlink:href="../../da/d85/Fun4All__G4__sPHENIX__photons_8C.html#a02fbbd59878fe1299f58ed187e7214ba" target="_top" xlink:title="Fun4All_G4_sPHENIX\l_photons">
<polygon fill="none" stroke="#000000" points="111,-129.5 111,-161.5 232,-161.5 232,-129.5 111,-129.5"/>
<text text-anchor="start" x="119" y="-148.5" font-family="FreeSans" font-size="10.00" fill="#000000">Fun4All_G4_sPHENIX</text>
<text text-anchor="middle" x="171.5" y="-136.5" font-family="FreeSans" font-size="10.00" fill="#000000">_photons</text>
</a>
</g>
</g>
<!-- Node1&#45;&gt;Node16 -->
<g id="edge15" class="edge">
<title>Node1&#45;&gt;Node16</title>
<path fill="none" stroke="#191970" d="M29.6005,-356.4445C38.2738,-310.226 61.5726,-198.1441 88,-171.5 94.4153,-165.0321 102.4101,-160.1678 110.8918,-156.5108"/>
<polygon fill="#191970" stroke="#191970" points="26.1272,-355.9806 27.7599,-366.4488 33.0117,-357.2472 26.1272,-355.9806"/>
</g>
<!-- Node17 -->
<g id="node17" class="node">
<title>Node17</title>
<g id="a_node17"><a xlink:href="../../de/d55/Fun4All__G4__sPHENIX__truthphotonjet_8C.html#a48a6f4503eaa1b3793d8ae572aa795b9" target="_top" xlink:title="Fun4All_G4_sPHENIX\l_truthphotonjet">
<polygon fill="none" stroke="#000000" points="111,-78.5 111,-110.5 232,-110.5 232,-78.5 111,-78.5"/>
<text text-anchor="start" x="119" y="-97.5" font-family="FreeSans" font-size="10.00" fill="#000000">Fun4All_G4_sPHENIX</text>
<text text-anchor="middle" x="171.5" y="-85.5" font-family="FreeSans" font-size="10.00" fill="#000000">_truthphotonjet</text>
</a>
</g>
</g>
<!-- Node1&#45;&gt;Node17 -->
<g id="edge16" class="edge">
<title>Node1&#45;&gt;Node17</title>
<path fill="none" stroke="#191970" d="M28.3168,-356.3188C34.9256,-302.1195 55.5116,-155.1458 88,-120.5 94.3352,-113.7441 102.3923,-108.7315 110.9909,-105.0151"/>
<polygon fill="#191970" stroke="#191970" points="24.8231,-356.0594 27.1195,-366.4024 31.7743,-356.8849 24.8231,-356.0594"/>
</g>
<!-- Node18 -->
<g id="node18" class="node">
<title>Node18</title>
<g id="a_node18"><a xlink:href="../../d4/d65/Fun4All__single__particle_8C.html#a8a492b5dbead494bfdddbebde8a49b0e" target="_top" xlink:title="Fun4All_single_particle">
<polygon fill="none" stroke="#000000" points="105.5,-39.5 105.5,-59.5 237.5,-59.5 237.5,-39.5 105.5,-39.5"/>
<text text-anchor="middle" x="171.5" y="-46.5" font-family="FreeSans" font-size="10.00" fill="#000000">Fun4All_single_particle</text>
</a>
</g>
</g>
<!-- Node1&#45;&gt;Node18 -->
<g id="edge17" class="edge">
<title>Node1&#45;&gt;Node18</title>
<path fill="none" stroke="#191970" d="M27.3006,-356.3366C31.6804,-294.793 47.9266,-111.0351 88,-69.5 92.8645,-64.458 98.7574,-60.5933 105.137,-57.6434"/>
<polygon fill="#191970" stroke="#191970" points="23.8067,-356.129 26.6178,-366.344 30.7905,-356.6055 23.8067,-356.129"/>
</g>
<!-- Node19 -->
<g id="node19" class="node">
<title>Node19</title>
<g id="a_node19"><a xlink:href="../../d0/d99/Jin__BJet_8C.html#a36169bfee2ed7efda633944d12aebad9" target="_top" xlink:title="Jin_BJet">
<polygon fill="none" stroke="#000000" points="144,-.5 144,-20.5 199,-20.5 199,-.5 144,-.5"/>
<text text-anchor="middle" x="171.5" y="-7.5" font-family="FreeSans" font-size="10.00" fill="#000000">Jin_BJet</text>
</a>
</g>
</g>
<!-- Node1&#45;&gt;Node19 -->
<g id="edge18" class="edge">
<title>Node1&#45;&gt;Node19</title>
<path fill="none" stroke="#191970" d="M26.794,-356.4436C29.8386,-289.944 42.9587,-78.2221 88,-30.5 102.1197,-15.5399 125.2807,-10.8969 143.6324,-9.7951"/>
<polygon fill="#191970" stroke="#191970" points="23.296,-356.3256 26.3626,-366.4669 30.2895,-356.6267 23.296,-356.3256"/>
</g>
<!-- Node3 -->
<g id="node3" class="node">
<title>Node3</title>
<g id="a_node3"><a xlink:href="../../d3/d7f/Fun_8C.html#af69a3eef3ff244bb51f5740c6ecb5432" target="_top" xlink:title="Fun">
<polygon fill="none" stroke="#000000" points="291,-696.5 291,-716.5 325,-716.5 325,-696.5 291,-696.5"/>
<text text-anchor="middle" x="308" y="-703.5" font-family="FreeSans" font-size="10.00" fill="#000000">Fun</text>
</a>
</g>
</g>
<!-- Node2&#45;&gt;Node3 -->
<g id="edge2" class="edge">
<title>Node2&#45;&gt;Node3</title>
<path fill="none" stroke="#191970" d="M238.6941,-706.5C258.0852,-706.5 277.59,-706.5 290.9452,-706.5"/>
<polygon fill="#191970" stroke="#191970" points="238.5974,-703.0001 228.5974,-706.5 238.5974,-710.0001 238.5974,-703.0001"/>
</g>
</g>
</svg>
