<?xml version="1.0" encoding="UTF-8" standalone="no"?>
<!DOCTYPE svg PUBLIC "-//W3C//DTD SVG 1.1//EN"
 "http://www.w3.org/Graphics/SVG/1.1/DTD/svg11.dtd">
<!-- Generated by graphviz version 2.40.1 (20161225.0304)
 -->
<!-- Title: PHG4CylinderCellGeom Pages: 1 -->
<svg width="143pt" height="212pt"
 viewBox="0.00 0.00 143.00 212.00" xmlns="http://www.w3.org/2000/svg" xmlns:xlink="http://www.w3.org/1999/xlink">
<g id="graph0" class="graph" transform="scale(1 1) rotate(0) translate(4 208)">
<title>PHG4CylinderCellGeom</title>
<!-- Node1 -->
<g id="node1" class="node">
<title>Node1</title>
<polygon fill="#bfbfbf" stroke="#000000" points="0,-69.5 0,-89.5 135,-89.5 135,-69.5 0,-69.5"/>
<text text-anchor="middle" x="67.5" y="-76.5" font-family="FreeSans" font-size="10.00" fill="#000000">PHG4CylinderCellGeom</text>
</g>
<!-- Node4 -->
<g id="node4" class="node">
<title>Node4</title>
<g id="a_node4"><a xlink:href="../../df/d09/classPHG4CylinderCellGeom__Spacalv1.html" target="_top" xlink:title="PHG4CylinderCellGeom_Spacalv1.">
<polygon fill="none" stroke="#000000" points="0,-.5 0,-32.5 135,-32.5 135,-.5 0,-.5"/>
<text text-anchor="start" x="8" y="-19.5" font-family="FreeSans" font-size="10.00" fill="#000000">PHG4CylinderCellGeom</text>
<text text-anchor="middle" x="67.5" y="-7.5" font-family="FreeSans" font-size="10.00" fill="#000000">_Spacalv1</text>
</a>
</g>
</g>
<!-- Node1&#45;&gt;Node4 -->
<g id="edge3" class="edge">
<title>Node1&#45;&gt;Node4</title>
<path fill="none" stroke="#191970" d="M67.5,-59.1222C67.5,-50.58 67.5,-40.7859 67.5,-32.742"/>
<polygon fill="#191970" stroke="#191970" points="64.0001,-59.3779 67.5,-69.378 71.0001,-59.378 64.0001,-59.3779"/>
</g>
<!-- Node2 -->
<g id="node2" class="node">
<title>Node2</title>
<g id="a_node2"><a xlink:href="../../d9/d24/classPHObject.html" target="_top" xlink:title="PHObject">
<polygon fill="none" stroke="#000000" points="36,-126.5 36,-146.5 99,-146.5 99,-126.5 36,-126.5"/>
<text text-anchor="middle" x="67.5" y="-133.5" font-family="FreeSans" font-size="10.00" fill="#000000">PHObject</text>
</a>
</g>
</g>
<!-- Node2&#45;&gt;Node1 -->
<g id="edge1" class="edge">
<title>Node2&#45;&gt;Node1</title>
<path fill="none" stroke="#191970" d="M67.5,-116.1771C67.5,-107.1625 67.5,-96.9556 67.5,-89.6022"/>
<polygon fill="#191970" stroke="#191970" points="64.0001,-116.3095 67.5,-126.3095 71.0001,-116.3096 64.0001,-116.3095"/>
</g>
<!-- Node3 -->
<g id="node3" class="node">
<title>Node3</title>
<polygon fill="none" stroke="#bfbfbf" points="39,-183.5 39,-203.5 96,-203.5 96,-183.5 39,-183.5"/>
<text text-anchor="middle" x="67.5" y="-190.5" font-family="FreeSans" font-size="10.00" fill="#000000">TObject</text>
</g>
<!-- Node3&#45;&gt;Node2 -->
<g id="edge2" class="edge">
<title>Node3&#45;&gt;Node2</title>
<path fill="none" stroke="#191970" d="M67.5,-173.1771C67.5,-164.1625 67.5,-153.9556 67.5,-146.6022"/>
<polygon fill="#191970" stroke="#191970" points="64.0001,-173.3095 67.5,-183.3095 71.0001,-173.3096 64.0001,-173.3095"/>
</g>
</g>
</svg>
