<?xml version="1.0" encoding="UTF-8" standalone="no"?>
<!DOCTYPE svg PUBLIC "-//W3C//DTD SVG 1.1//EN"
 "http://www.w3.org/Graphics/SVG/1.1/DTD/svg11.dtd">
<!-- Generated by graphviz version 2.40.1 (20161225.0304)
 -->
<!-- Title: coresoftware/blob/master/simulation/g4simulation/g4main/PHG4TruthSubsystem.cc Pages: 1 -->
<svg width="2345pt" height="395pt"
 viewBox="0.00 0.00 2344.50 395.00" xmlns="http://www.w3.org/2000/svg" xmlns:xlink="http://www.w3.org/1999/xlink">
<g id="graph0" class="graph" transform="scale(1 1) rotate(0) translate(4 391)">
<title>coresoftware/blob/master/simulation/g4simulation/g4main/PHG4TruthSubsystem.cc</title>
<!-- Node1 -->
<g id="node1" class="node">
<title>Node1</title>
<polygon fill="#bfbfbf" stroke="#000000" points="1333,-342.5 1333,-386.5 1519,-386.5 1519,-342.5 1333,-342.5"/>
<text text-anchor="start" x="1341" y="-373.5" font-family="FreeSans" font-size="10.00" fill="#000000">coresoftware/blob/master</text>
<text text-anchor="start" x="1341" y="-361.5" font-family="FreeSans" font-size="10.00" fill="#000000">/simulation/g4simulation</text>
<text text-anchor="middle" x="1426" y="-349.5" font-family="FreeSans" font-size="10.00" fill="#000000">/g4main/PHG4TruthSubsystem.cc</text>
</g>
<!-- Node2 -->
<g id="node2" class="node">
<title>Node2</title>
<g id="a_node2"><a xlink:href="../../de/d78/PHG4TruthSubsystem_8h.html" target="_top" xlink:title="PHG4TruthSubsystem.h">
<polygon fill="none" stroke="#000000" points="381.5,-285.5 381.5,-305.5 516.5,-305.5 516.5,-285.5 381.5,-285.5"/>
<text text-anchor="middle" x="449" y="-292.5" font-family="FreeSans" font-size="10.00" fill="#000000">PHG4TruthSubsystem.h</text>
</a>
</g>
</g>
<!-- Node1&#45;&gt;Node2 -->
<g id="edge1" class="edge">
<title>Node1&#45;&gt;Node2</title>
<path fill="none" stroke="#191970" d="M1332.7553,-360.3152C1169.8585,-352.578 822.9659,-334.2074 531,-306 529.5268,-305.8577 528.0392,-305.7098 526.5408,-305.557"/>
<polygon fill="#191970" stroke="#191970" points="526.8478,-302.0699 516.5318,-304.4847 526.1021,-309.0301 526.8478,-302.0699"/>
</g>
<!-- Node4 -->
<g id="node4" class="node">
<title>Node4</title>
<g id="a_node4"><a xlink:href="../../da/dc1/Fun4AllReturnCodes_8h.html" target="_top" xlink:title="fun4all/Fun4AllReturnCodes.h">
<polygon fill="none" stroke="#000000" points="66,-171.5 66,-191.5 232,-191.5 232,-171.5 66,-171.5"/>
<text text-anchor="middle" x="149" y="-178.5" font-family="FreeSans" font-size="10.00" fill="#000000">fun4all/Fun4AllReturnCodes.h</text>
</a>
</g>
</g>
<!-- Node1&#45;&gt;Node4 -->
<g id="edge34" class="edge">
<title>Node1&#45;&gt;Node4</title>
<path fill="none" stroke="#191970" d="M1332.7741,-361.727C1092.1824,-354.2305 462.8115,-332.3413 372,-306 291.5743,-282.6713 208.4464,-226.0043 170.3749,-197.8851"/>
<polygon fill="#191970" stroke="#191970" points="172.216,-194.8914 162.1118,-191.7046 168.0232,-200.4969 172.216,-194.8914"/>
</g>
<!-- Node9 -->
<g id="node9" class="node">
<title>Node9</title>
<polygon fill="none" stroke="#bfbfbf" points="1242,-.5 1242,-20.5 1302,-20.5 1302,-.5 1242,-.5"/>
<text text-anchor="middle" x="1272" y="-7.5" font-family="FreeSans" font-size="10.00" fill="#000000">iostream</text>
</g>
<!-- Node1&#45;&gt;Node9 -->
<g id="edge78" class="edge">
<title>Node1&#45;&gt;Node9</title>
<path fill="none" stroke="#191970" d="M1332.7652,-363.5077C1084.7183,-360.3189 412.7072,-347.9519 195,-306 104.9447,-288.6464 0,-330.2121 0,-238.5 0,-238.5 0,-238.5 0,-124.5 0,.4871 149.3146,-74.9919 273,-57 462.7717,-29.3948 1068.8741,-14.8072 1231.5117,-11.3259"/>
<polygon fill="#191970" stroke="#191970" points="1231.6503,-14.8238 1241.5739,-11.1126 1231.5019,-7.8254 1231.6503,-14.8238"/>
</g>
<!-- Node10 -->
<g id="node10" class="node">
<title>Node10</title>
<g id="a_node10"><a xlink:href="../../dd/d05/PHG4Particle_8h.html" target="_top" xlink:title="PHG4Particle.h">
<polygon fill="none" stroke="#000000" points="1340.5,-285.5 1340.5,-305.5 1431.5,-305.5 1431.5,-285.5 1340.5,-285.5"/>
<text text-anchor="middle" x="1386" y="-292.5" font-family="FreeSans" font-size="10.00" fill="#000000">PHG4Particle.h</text>
</a>
</g>
</g>
<!-- Node1&#45;&gt;Node10 -->
<g id="edge12" class="edge">
<title>Node1&#45;&gt;Node10</title>
<path fill="none" stroke="#191970" d="M1413.1236,-342.2882C1407.9464,-333.3575 1402.0366,-323.1632 1397.0579,-314.5749"/>
<polygon fill="#191970" stroke="#191970" points="1399.9643,-312.6097 1391.921,-305.7137 1393.9083,-316.1205 1399.9643,-312.6097"/>
</g>
<!-- Node11 -->
<g id="node11" class="node">
<title>Node11</title>
<g id="a_node11"><a xlink:href="../../df/d32/PHObject_8h.html" target="_top" xlink:title="phool/PHObject.h">
<polygon fill="none" stroke="#000000" points="1414,-228.5 1414,-248.5 1518,-248.5 1518,-228.5 1414,-228.5"/>
<text text-anchor="middle" x="1466" y="-235.5" font-family="FreeSans" font-size="10.00" fill="#000000">phool/PHObject.h</text>
</a>
</g>
</g>
<!-- Node1&#45;&gt;Node11 -->
<g id="edge67" class="edge">
<title>Node1&#45;&gt;Node11</title>
<path fill="none" stroke="#191970" d="M1433.0591,-342.2638C1440.6102,-318.4778 1452.4744,-281.1058 1459.7141,-258.3007"/>
<polygon fill="#191970" stroke="#191970" points="1463.0804,-259.2639 1462.7703,-248.6736 1456.4085,-257.1458 1463.0804,-259.2639"/>
</g>
<!-- Node14 -->
<g id="node14" class="node">
<title>Node14</title>
<g id="a_node14"><a xlink:href="../../d8/d43/PHG4TruthEventAction_8h.html" target="_top" xlink:title="PHG4TruthEventAction.h">
<polygon fill="none" stroke="#000000" points="1773,-285.5 1773,-305.5 1913,-305.5 1913,-285.5 1773,-285.5"/>
<text text-anchor="middle" x="1843" y="-292.5" font-family="FreeSans" font-size="10.00" fill="#000000">PHG4TruthEventAction.h</text>
</a>
</g>
</g>
<!-- Node1&#45;&gt;Node14 -->
<g id="edge19" class="edge">
<title>Node1&#45;&gt;Node14</title>
<path fill="none" stroke="#191970" d="M1519.0639,-349.1009C1595.7073,-336.4189 1702.739,-318.7087 1772.4497,-307.1738"/>
<polygon fill="#191970" stroke="#191970" points="1773.1616,-310.6037 1782.4561,-305.5181 1772.0188,-303.6976 1773.1616,-310.6037"/>
</g>
<!-- Node17 -->
<g id="node17" class="node">
<title>Node17</title>
<polygon fill="none" stroke="#bfbfbf" points="1956,-228.5 1956,-248.5 1988,-248.5 1988,-228.5 1956,-228.5"/>
<text text-anchor="middle" x="1972" y="-235.5" font-family="FreeSans" font-size="10.00" fill="#000000">set</text>
</g>
<!-- Node1&#45;&gt;Node17 -->
<g id="edge79" class="edge">
<title>Node1&#45;&gt;Node17</title>
<path fill="none" stroke="#191970" d="M1519.0569,-362.2387C1643.3178,-357.754 1855.5167,-344.5373 1922,-306 1940.9405,-295.0211 1954.8608,-273.7076 1963.1356,-257.9551"/>
<polygon fill="#191970" stroke="#191970" points="1966.4785,-259.0887 1967.7541,-248.5709 1960.198,-255.9976 1966.4785,-259.0887"/>
</g>
<!-- Node18 -->
<g id="node18" class="node">
<title>Node18</title>
<g id="a_node18"><a xlink:href="../../db/d82/PHG4TruthTrackingAction_8h.html" target="_top" xlink:title="PHG4TruthTrackingAction.h">
<polygon fill="none" stroke="#000000" points="1969.5,-285.5 1969.5,-305.5 2122.5,-305.5 2122.5,-285.5 1969.5,-285.5"/>
<text text-anchor="middle" x="2046" y="-292.5" font-family="FreeSans" font-size="10.00" fill="#000000">PHG4TruthTrackingAction.h</text>
</a>
</g>
</g>
<!-- Node1&#45;&gt;Node18 -->
<g id="edge23" class="edge">
<title>Node1&#45;&gt;Node18</title>
<path fill="none" stroke="#191970" d="M1519.1843,-354.3301C1624.8706,-342.7644 1802.356,-323.2464 1955,-306 1956.2889,-305.8544 1957.5881,-305.7074 1958.8955,-305.5592"/>
<polygon fill="#191970" stroke="#191970" points="1959.5082,-309.0122 1969.0488,-304.4049 1958.7174,-302.057 1959.5082,-309.0122"/>
</g>
<!-- Node22 -->
<g id="node22" class="node">
<title>Node22</title>
<g id="a_node22"><a xlink:href="../../d0/d25/PHG4TruthInfoContainer_8h.html" target="_top" xlink:title="PHG4TruthInfoContainer.h">
<polygon fill="none" stroke="#000000" points="1569.5,-285.5 1569.5,-305.5 1716.5,-305.5 1716.5,-285.5 1569.5,-285.5"/>
<text text-anchor="middle" x="1643" y="-292.5" font-family="FreeSans" font-size="10.00" fill="#000000">PHG4TruthInfoContainer.h</text>
</a>
</g>
</g>
<!-- Node1&#45;&gt;Node22 -->
<g id="edge28" class="edge">
<title>Node1&#45;&gt;Node22</title>
<path fill="none" stroke="#191970" d="M1495.2568,-342.4783C1530.2486,-331.3518 1571.5339,-318.2242 1601.554,-308.6787"/>
<polygon fill="#191970" stroke="#191970" points="1602.8083,-311.9526 1611.2776,-305.5869 1600.6871,-305.2817 1602.8083,-311.9526"/>
</g>
<!-- Node24 -->
<g id="node24" class="node">
<title>Node24</title>
<polygon fill="none" stroke="#bfbfbf" points="1722.5,-228.5 1722.5,-248.5 1767.5,-248.5 1767.5,-228.5 1722.5,-228.5"/>
<text text-anchor="middle" x="1745" y="-235.5" font-family="FreeSans" font-size="10.00" fill="#000000">utility</text>
</g>
<!-- Node1&#45;&gt;Node24 -->
<g id="edge80" class="edge">
<title>Node1&#45;&gt;Node24</title>
<path fill="none" stroke="#191970" d="M1519.2449,-356.95C1595.8106,-348.8777 1696.2922,-333.3719 1726,-306 1738.8423,-294.1675 1743.2583,-274.4037 1744.6588,-259.3111"/>
<polygon fill="#191970" stroke="#191970" points="1748.1775,-259.066 1745.2317,-248.889 1741.188,-258.6818 1748.1775,-259.066"/>
</g>
<!-- Node25 -->
<g id="node25" class="node">
<title>Node25</title>
<g id="a_node25"><a xlink:href="../../d8/d30/PHCompositeNode_8h.html" target="_top" xlink:title="phool/PHCompositeNode.h">
<polygon fill="none" stroke="#000000" points="544.5,-171.5 544.5,-191.5 695.5,-191.5 695.5,-171.5 544.5,-171.5"/>
<text text-anchor="middle" x="620" y="-178.5" font-family="FreeSans" font-size="10.00" fill="#000000">phool/PHCompositeNode.h</text>
</a>
</g>
</g>
<!-- Node1&#45;&gt;Node25 -->
<g id="edge35" class="edge">
<title>Node1&#45;&gt;Node25</title>
<path fill="none" stroke="#191970" d="M1332.7863,-361.2165C1151.1743,-354.192 763.0024,-335.8702 710,-306 667.7848,-282.2091 640.1585,-229.4774 627.6768,-200.8679"/>
<polygon fill="#191970" stroke="#191970" points="630.8531,-199.3914 623.7645,-191.5172 624.3955,-202.0932 630.8531,-199.3914"/>
</g>
<!-- Node26 -->
<g id="node26" class="node">
<title>Node26</title>
<g id="a_node26"><a xlink:href="../../d3/d62/PHNode_8h.html" target="_top" xlink:title="PHNode.h">
<polygon fill="none" stroke="#000000" points="587.5,-114.5 587.5,-134.5 652.5,-134.5 652.5,-114.5 587.5,-114.5"/>
<text text-anchor="middle" x="620" y="-121.5" font-family="FreeSans" font-size="10.00" fill="#000000">PHNode.h</text>
</a>
</g>
</g>
<!-- Node1&#45;&gt;Node26 -->
<g id="edge65" class="edge">
<title>Node1&#45;&gt;Node26</title>
<path fill="none" stroke="#191970" d="M1332.7743,-363.964C1101.3645,-361.9339 505.4954,-352.2367 313,-306 191.8954,-276.9111 124.8307,-296.4581 57,-192 51.917,-184.1722 50.6778,-177.8659 57,-171 74.5882,-151.8992 448.4313,-132.5757 577.0115,-126.472"/>
<polygon fill="#191970" stroke="#191970" points="577.4367,-129.9559 587.2608,-125.9889 577.107,-122.9637 577.4367,-129.9559"/>
</g>
<!-- Node29 -->
<g id="node29" class="node">
<title>Node29</title>
<g id="a_node29"><a xlink:href="../../d3/d79/PHIODataNode_8h.html" target="_top" xlink:title="phool/PHIODataNode.h">
<polygon fill="none" stroke="#000000" points="1068,-228.5 1068,-248.5 1200,-248.5 1200,-228.5 1068,-228.5"/>
<text text-anchor="middle" x="1134" y="-235.5" font-family="FreeSans" font-size="10.00" fill="#000000">phool/PHIODataNode.h</text>
</a>
</g>
</g>
<!-- Node1&#45;&gt;Node29 -->
<g id="edge42" class="edge">
<title>Node1&#45;&gt;Node29</title>
<path fill="none" stroke="#191970" d="M1374.8033,-342.4083C1314.8472,-316.5368 1217.3119,-274.4497 1166.7385,-252.6269"/>
<polygon fill="#191970" stroke="#191970" points="1167.8433,-249.2917 1157.275,-248.5433 1165.0699,-255.7189 1167.8433,-249.2917"/>
</g>
<!-- Node34 -->
<g id="node34" class="node">
<title>Node34</title>
<g id="a_node34"><a xlink:href="../../d5/d6f/phool_8h.html" target="_top" xlink:title="phool.h">
<polygon fill="none" stroke="#000000" points="1536,-114.5 1536,-134.5 1590,-134.5 1590,-114.5 1536,-114.5"/>
<text text-anchor="middle" x="1563" y="-121.5" font-family="FreeSans" font-size="10.00" fill="#000000">phool.h</text>
</a>
</g>
</g>
<!-- Node1&#45;&gt;Node34 -->
<g id="edge75" class="edge">
<title>Node1&#45;&gt;Node34</title>
<path fill="none" stroke="#191970" d="M1451.0743,-342.0904C1473.9306,-320.3797 1507.0777,-285.4674 1527,-249 1545.6053,-214.9434 1555.4816,-170.264 1559.9457,-144.7347"/>
<polygon fill="#191970" stroke="#191970" points="1563.4176,-145.1904 1561.5827,-134.7557 1556.5099,-144.0572 1563.4176,-145.1904"/>
</g>
<!-- Node36 -->
<g id="node36" class="node">
<title>Node36</title>
<g id="a_node36"><a xlink:href="../../d8/dfd/PHNodeIterator_8h.html" target="_top" xlink:title="PHNodeIterator.h">
<polygon fill="none" stroke="#000000" points="828,-114.5 828,-134.5 930,-134.5 930,-114.5 828,-114.5"/>
<text text-anchor="middle" x="879" y="-121.5" font-family="FreeSans" font-size="10.00" fill="#000000">PHNodeIterator.h</text>
</a>
</g>
</g>
<!-- Node1&#45;&gt;Node36 -->
<g id="edge66" class="edge">
<title>Node1&#45;&gt;Node36</title>
<path fill="none" stroke="#191970" d="M1332.8329,-362.2295C1170.3008,-357.3139 848.8224,-342.9854 814,-306 772.8522,-262.2963 781.8085,-223.9943 810,-171 817.3314,-157.2185 830.768,-146.7863 843.8494,-139.3315"/>
<polygon fill="#191970" stroke="#191970" points="845.5471,-142.3932 852.7695,-134.6415 842.2895,-136.1973 845.5471,-142.3932"/>
</g>
<!-- Node38 -->
<g id="node38" class="node">
<title>Node38</title>
<g id="a_node38"><a xlink:href="../../dd/dd4/getClass_8h.html" target="_top" xlink:title="phool/getClass.h">
<polygon fill="none" stroke="#000000" points="823,-285.5 823,-305.5 923,-305.5 923,-285.5 823,-285.5"/>
<text text-anchor="middle" x="873" y="-292.5" font-family="FreeSans" font-size="10.00" fill="#000000">phool/getClass.h</text>
</a>
</g>
</g>
<!-- Node1&#45;&gt;Node38 -->
<g id="edge68" class="edge">
<title>Node1&#45;&gt;Node38</title>
<path fill="none" stroke="#191970" d="M1332.8164,-352.8731C1218.9198,-338.6618 1029.4935,-315.0263 933.1929,-303.0105"/>
<polygon fill="#191970" stroke="#191970" points="933.4016,-299.5095 923.0451,-301.7443 932.5348,-306.4556 933.4016,-299.5095"/>
</g>
<!-- Node39 -->
<g id="node39" class="node">
<title>Node39</title>
<polygon fill="none" stroke="#bfbfbf" points="2140.5,-285.5 2140.5,-305.5 2193.5,-305.5 2193.5,-285.5 2140.5,-285.5"/>
<text text-anchor="middle" x="2167" y="-292.5" font-family="FreeSans" font-size="10.00" fill="#000000">cassert</text>
</g>
<!-- Node1&#45;&gt;Node39 -->
<g id="edge76" class="edge">
<title>Node1&#45;&gt;Node39</title>
<path fill="none" stroke="#191970" d="M1519.0425,-359.2112C1678.7093,-349.742 1999.5514,-328.8954 2130.2001,-305.9746"/>
<polygon fill="#191970" stroke="#191970" points="2131.1834,-309.3528 2140.389,-304.1081 2129.922,-302.4674 2131.1834,-309.3528"/>
</g>
<!-- Node40 -->
<g id="node40" class="node">
<title>Node40</title>
<polygon fill="none" stroke="#bfbfbf" points="2212,-285.5 2212,-305.5 2262,-305.5 2262,-285.5 2212,-285.5"/>
<text text-anchor="middle" x="2237" y="-292.5" font-family="FreeSans" font-size="10.00" fill="#000000">cstdlib</text>
</g>
<!-- Node1&#45;&gt;Node40 -->
<g id="edge77" class="edge">
<title>Node1&#45;&gt;Node40</title>
<path fill="none" stroke="#191970" d="M1519.3309,-360.1007C1692.1456,-351.5305 2056.7952,-331.3514 2201.849,-305.7871"/>
<polygon fill="#191970" stroke="#191970" points="2202.7058,-309.1883 2211.9078,-303.9372 2201.4396,-302.3037 2202.7058,-309.1883"/>
</g>
<!-- Node3 -->
<g id="node3" class="node">
<title>Node3</title>
<g id="a_node3"><a xlink:href="../../df/d1c/PHG4Subsystem_8h.html" target="_top" xlink:title="PHG4Subsystem.h">
<polygon fill="none" stroke="#000000" points="295.5,-228.5 295.5,-248.5 404.5,-248.5 404.5,-228.5 295.5,-228.5"/>
<text text-anchor="middle" x="350" y="-235.5" font-family="FreeSans" font-size="10.00" fill="#000000">PHG4Subsystem.h</text>
</a>
</g>
</g>
<!-- Node2&#45;&gt;Node3 -->
<g id="edge2" class="edge">
<title>Node2&#45;&gt;Node3</title>
<path fill="none" stroke="#191970" d="M431.3008,-285.3095C416.0965,-276.5556 393.9506,-263.8049 376.6104,-253.8211"/>
<polygon fill="#191970" stroke="#191970" points="377.9586,-250.5587 367.546,-248.6022 374.4658,-256.6251 377.9586,-250.5587"/>
</g>
<!-- Node8 -->
<g id="node8" class="node">
<title>Node8</title>
<polygon fill="none" stroke="#bfbfbf" points="739.5,-57.5 739.5,-77.5 784.5,-77.5 784.5,-57.5 739.5,-57.5"/>
<text text-anchor="middle" x="762" y="-64.5" font-family="FreeSans" font-size="10.00" fill="#000000">string</text>
</g>
<!-- Node2&#45;&gt;Node8 -->
<g id="edge11" class="edge">
<title>Node2&#45;&gt;Node8</title>
<path fill="none" stroke="#191970" d="M452.7333,-285.4665C465.0306,-253.97 507.5531,-156.6327 578,-114 625.6676,-85.1528 690.646,-74.1264 729.267,-69.9646"/>
<polygon fill="#191970" stroke="#191970" points="729.8163,-73.4275 739.4249,-68.9637 729.1298,-66.4613 729.8163,-73.4275"/>
</g>
<!-- Node3&#45;&gt;Node4 -->
<g id="edge3" class="edge">
<title>Node3&#45;&gt;Node4</title>
<path fill="none" stroke="#191970" d="M314.5279,-228.4408C281.0477,-218.9464 230.694,-204.6669 194.3184,-194.3515"/>
<polygon fill="#191970" stroke="#191970" points="195.0305,-190.9155 184.455,-191.5544 193.1207,-197.6499 195.0305,-190.9155"/>
</g>
<!-- Node5 -->
<g id="node5" class="node">
<title>Node5</title>
<g id="a_node5"><a xlink:href="../../d5/dc2/SubsysReco_8h.html" target="_top" xlink:title="fun4all/SubsysReco.h">
<polygon fill="none" stroke="#000000" points="288,-171.5 288,-191.5 412,-191.5 412,-171.5 288,-171.5"/>
<text text-anchor="middle" x="350" y="-178.5" font-family="FreeSans" font-size="10.00" fill="#000000">fun4all/SubsysReco.h</text>
</a>
</g>
</g>
<!-- Node3&#45;&gt;Node5 -->
<g id="edge4" class="edge">
<title>Node3&#45;&gt;Node5</title>
<path fill="none" stroke="#191970" d="M350,-228.3095C350,-220.9335 350,-210.72 350,-201.715"/>
<polygon fill="#191970" stroke="#191970" points="353.5001,-201.6022 350,-191.6022 346.5001,-201.6023 353.5001,-201.6022"/>
</g>
<!-- Node3&#45;&gt;Node8 -->
<g id="edge10" class="edge">
<title>Node3&#45;&gt;Node8</title>
<path fill="none" stroke="#191970" d="M370.5102,-228.442C385.7836,-220.2068 406.4268,-207.4216 421,-192 448.4885,-162.9112 433.006,-136.6534 466,-114 487.5099,-99.2315 657.1134,-79.0506 729.4703,-71.012"/>
<polygon fill="#191970" stroke="#191970" points="729.8548,-74.4909 739.411,-69.9162 729.0877,-67.533 729.8548,-74.4909"/>
</g>
<!-- Node3&#45;&gt;Node9 -->
<g id="edge9" class="edge">
<title>Node3&#45;&gt;Node9</title>
<path fill="none" stroke="#191970" d="M322.6725,-228.383C306.8353,-220.939 288.2475,-209.1108 279,-192 250.1915,-138.6954 249.7047,-93.5906 298,-57 335.7674,-28.3857 1052.617,-14.2529 1231.7147,-11.1598"/>
<polygon fill="#191970" stroke="#191970" points="1231.8292,-14.6584 1241.7679,-10.988 1231.7096,-7.6595 1231.8292,-14.6584"/>
</g>
<!-- Node6 -->
<g id="node6" class="node">
<title>Node6</title>
<g id="a_node6"><a xlink:href="../../d2/de7/Fun4AllBase_8h.html" target="_top" xlink:title="Fun4AllBase.h">
<polygon fill="none" stroke="#000000" points="288.5,-114.5 288.5,-134.5 375.5,-134.5 375.5,-114.5 288.5,-114.5"/>
<text text-anchor="middle" x="332" y="-121.5" font-family="FreeSans" font-size="10.00" fill="#000000">Fun4AllBase.h</text>
</a>
</g>
</g>
<!-- Node5&#45;&gt;Node6 -->
<g id="edge5" class="edge">
<title>Node5&#45;&gt;Node6</title>
<path fill="none" stroke="#191970" d="M346.782,-171.3095C344.4271,-163.8524 341.1564,-153.4951 338.2901,-144.4186"/>
<polygon fill="#191970" stroke="#191970" points="341.5391,-143.0841 335.1902,-134.6022 334.864,-145.192 341.5391,-143.0841"/>
</g>
<!-- Node5&#45;&gt;Node8 -->
<g id="edge8" class="edge">
<title>Node5&#45;&gt;Node8</title>
<path fill="none" stroke="#191970" d="M358.1298,-171.4666C371.1208,-156.2134 398.1548,-127.5379 428,-114 455.1158,-101.7002 650.0493,-79.585 728.9632,-71.0211"/>
<polygon fill="#191970" stroke="#191970" points="729.7323,-74.4585 739.2988,-69.905 728.9808,-67.4989 729.7323,-74.4585"/>
</g>
<!-- Node7 -->
<g id="node7" class="node">
<title>Node7</title>
<polygon fill="none" stroke="#bfbfbf" points="307.5,-57.5 307.5,-77.5 356.5,-77.5 356.5,-57.5 307.5,-57.5"/>
<text text-anchor="middle" x="332" y="-64.5" font-family="FreeSans" font-size="10.00" fill="#000000">climits</text>
</g>
<!-- Node6&#45;&gt;Node7 -->
<g id="edge6" class="edge">
<title>Node6&#45;&gt;Node7</title>
<path fill="none" stroke="#191970" d="M332,-114.3095C332,-106.9335 332,-96.72 332,-87.715"/>
<polygon fill="#191970" stroke="#191970" points="335.5001,-87.6022 332,-77.6022 328.5001,-87.6023 335.5001,-87.6022"/>
</g>
<!-- Node6&#45;&gt;Node8 -->
<g id="edge7" class="edge">
<title>Node6&#45;&gt;Node8</title>
<path fill="none" stroke="#191970" d="M375.6614,-116.3315C380.4932,-115.5063 385.3468,-114.7115 390,-114 514.938,-94.897 664.3815,-78.0191 729.2635,-70.9824"/>
<polygon fill="#191970" stroke="#191970" points="729.7276,-74.4528 739.2944,-69.9001 728.9766,-67.4932 729.7276,-74.4528"/>
</g>
<!-- Node10&#45;&gt;Node8 -->
<g id="edge18" class="edge">
<title>Node10&#45;&gt;Node8</title>
<path fill="none" stroke="#191970" d="M1355.9906,-285.4444C1337.8202,-277.9694 1315.4418,-266.0858 1301,-249 1277.3185,-220.9828 1292.4395,-202.7138 1274,-171 1257.0614,-141.8677 1254.041,-129.269 1224,-114 1144.4389,-73.5615 912.5093,-89.4599 824,-78 814.3794,-76.7544 803.9676,-75.1084 794.473,-73.4901"/>
<polygon fill="#191970" stroke="#191970" points="795.0646,-70.0405 784.6111,-71.7651 793.8585,-76.9358 795.0646,-70.0405"/>
</g>
<!-- Node10&#45;&gt;Node9 -->
<g id="edge17" class="edge">
<title>Node10&#45;&gt;Node9</title>
<path fill="none" stroke="#191970" d="M1386.9113,-285.0586C1388.5627,-271.0277 1393.0691,-245.7974 1405,-228 1419.4559,-206.4361 1439.629,-215.3383 1451,-192 1463.2757,-166.8048 1429.771,-117.5117 1428,-114 1414.6135,-87.4566 1415.8611,-76.0033 1393,-57 1369.6243,-37.5689 1337.2314,-25.6975 1311.8439,-18.8177"/>
<polygon fill="#191970" stroke="#191970" points="1312.6971,-15.4234 1302.1416,-16.3359 1310.9623,-22.205 1312.6971,-15.4234"/>
</g>
<!-- Node10&#45;&gt;Node11 -->
<g id="edge13" class="edge">
<title>Node10&#45;&gt;Node11</title>
<path fill="none" stroke="#191970" d="M1400.3024,-285.3095C1412.2474,-276.7987 1429.4945,-264.5102 1443.3202,-254.6594"/>
<polygon fill="#191970" stroke="#191970" points="1445.7082,-257.2555 1451.8214,-248.6022 1441.6462,-251.5545 1445.7082,-257.2555"/>
</g>
<!-- Node13 -->
<g id="node13" class="node">
<title>Node13</title>
<polygon fill="none" stroke="#bfbfbf" points="1310,-228.5 1310,-248.5 1358,-248.5 1358,-228.5 1310,-228.5"/>
<text text-anchor="middle" x="1334" y="-235.5" font-family="FreeSans" font-size="10.00" fill="#000000">cmath</text>
</g>
<!-- Node10&#45;&gt;Node13 -->
<g id="edge16" class="edge">
<title>Node10&#45;&gt;Node13</title>
<path fill="none" stroke="#191970" d="M1376.7034,-285.3095C1369.3089,-277.204 1358.7884,-265.672 1350.0402,-256.0826"/>
<polygon fill="#191970" stroke="#191970" points="1352.5414,-253.631 1343.2161,-248.6022 1347.37,-258.3488 1352.5414,-253.631"/>
</g>
<!-- Node11&#45;&gt;Node9 -->
<g id="edge15" class="edge">
<title>Node11&#45;&gt;Node9</title>
<path fill="none" stroke="#191970" d="M1471.355,-228.4729C1486.4948,-198.6018 1525.8784,-109.0595 1484,-57 1462.8658,-30.7279 1367.6722,-18.4632 1312.2955,-13.4608"/>
<polygon fill="#191970" stroke="#191970" points="1312.3791,-9.9551 1302.1152,-12.5823 1311.7772,-16.9292 1312.3791,-9.9551"/>
</g>
<!-- Node12 -->
<g id="node12" class="node">
<title>Node12</title>
<polygon fill="none" stroke="#bfbfbf" points="1200.5,-171.5 1200.5,-191.5 1265.5,-191.5 1265.5,-171.5 1200.5,-171.5"/>
<text text-anchor="middle" x="1233" y="-178.5" font-family="FreeSans" font-size="10.00" fill="#000000">TObject.h</text>
</g>
<!-- Node11&#45;&gt;Node12 -->
<g id="edge14" class="edge">
<title>Node11&#45;&gt;Node12</title>
<path fill="none" stroke="#191970" d="M1424.8806,-228.4408C1382.9118,-218.1737 1318.07,-202.3111 1275.5798,-191.9165"/>
<polygon fill="#191970" stroke="#191970" points="1276.3602,-188.5043 1265.815,-189.5277 1274.6968,-195.3038 1276.3602,-188.5043"/>
</g>
<!-- Node15 -->
<g id="node15" class="node">
<title>Node15</title>
<g id="a_node15"><a xlink:href="../../d1/db6/PHG4EventAction_8h.html" target="_top" xlink:title="PHG4EventAction.h">
<polygon fill="none" stroke="#000000" points="1824,-228.5 1824,-248.5 1938,-248.5 1938,-228.5 1824,-228.5"/>
<text text-anchor="middle" x="1881" y="-235.5" font-family="FreeSans" font-size="10.00" fill="#000000">PHG4EventAction.h</text>
</a>
</g>
</g>
<!-- Node14&#45;&gt;Node15 -->
<g id="edge20" class="edge">
<title>Node14&#45;&gt;Node15</title>
<path fill="none" stroke="#191970" d="M1849.7936,-285.3095C1855.0352,-277.4472 1862.4261,-266.3608 1868.6995,-256.9507"/>
<polygon fill="#191970" stroke="#191970" points="1871.6303,-258.8642 1874.2652,-248.6022 1865.8059,-254.9813 1871.6303,-258.8642"/>
</g>
<!-- Node16 -->
<g id="node16" class="node">
<title>Node16</title>
<polygon fill="none" stroke="#bfbfbf" points="1730.5,-114.5 1730.5,-134.5 1769.5,-134.5 1769.5,-114.5 1730.5,-114.5"/>
<text text-anchor="middle" x="1750" y="-121.5" font-family="FreeSans" font-size="10.00" fill="#000000">map</text>
</g>
<!-- Node14&#45;&gt;Node16 -->
<g id="edge21" class="edge">
<title>Node14&#45;&gt;Node16</title>
<path fill="none" stroke="#191970" d="M1836.5905,-285.2632C1830.794,-275.9111 1822.1045,-261.6542 1815,-249 1794.3319,-212.1871 1771.8875,-168.219 1759.5241,-143.6143"/>
<polygon fill="#191970" stroke="#191970" points="1762.6258,-141.9912 1755.019,-134.6164 1756.3665,-145.1252 1762.6258,-141.9912"/>
</g>
<!-- Node14&#45;&gt;Node17 -->
<g id="edge22" class="edge">
<title>Node14&#45;&gt;Node17</title>
<path fill="none" stroke="#191970" d="M1865.7657,-285.4408C1888.4233,-275.4293 1923.1219,-260.0973 1946.6465,-249.7027"/>
<polygon fill="#191970" stroke="#191970" points="1948.2444,-252.8232 1955.9767,-245.5801 1945.4152,-246.4204 1948.2444,-252.8232"/>
</g>
<!-- Node18&#45;&gt;Node16 -->
<g id="edge27" class="edge">
<title>Node18&#45;&gt;Node16</title>
<path fill="none" stroke="#191970" d="M2041.011,-285.4639C2033.3572,-270.9797 2017.4334,-244.1832 1997,-228 1929.0872,-174.2133 1829.1842,-143.8934 1779.8361,-131.3739"/>
<polygon fill="#191970" stroke="#191970" points="1780.3698,-127.9006 1769.8225,-128.9032 1778.6929,-134.6968 1780.3698,-127.9006"/>
</g>
<!-- Node19 -->
<g id="node19" class="node">
<title>Node19</title>
<g id="a_node19"><a xlink:href="../../d5/dcf/PHG4TrackingAction_8h.html" target="_top" xlink:title="PHG4TrackingAction.h">
<polygon fill="none" stroke="#000000" points="2044.5,-228.5 2044.5,-248.5 2171.5,-248.5 2171.5,-228.5 2044.5,-228.5"/>
<text text-anchor="middle" x="2108" y="-235.5" font-family="FreeSans" font-size="10.00" fill="#000000">PHG4TrackingAction.h</text>
</a>
</g>
</g>
<!-- Node18&#45;&gt;Node19 -->
<g id="edge24" class="edge">
<title>Node18&#45;&gt;Node19</title>
<path fill="none" stroke="#191970" d="M2057.0844,-285.3095C2066.0772,-277.0419 2078.9478,-265.2093 2089.4984,-255.5096"/>
<polygon fill="#191970" stroke="#191970" points="2092.0187,-257.9469 2097.0116,-248.6022 2087.2811,-252.7937 2092.0187,-257.9469"/>
</g>
<!-- Node21 -->
<g id="node21" class="node">
<title>Node21</title>
<polygon fill="none" stroke="#bfbfbf" points="2189.5,-228.5 2189.5,-248.5 2336.5,-248.5 2336.5,-228.5 2189.5,-228.5"/>
<text text-anchor="middle" x="2263" y="-235.5" font-family="FreeSans" font-size="10.00" fill="#000000">Geant4/G4ThreeVector.hh</text>
</g>
<!-- Node18&#45;&gt;Node21 -->
<g id="edge26" class="edge">
<title>Node18&#45;&gt;Node21</title>
<path fill="none" stroke="#191970" d="M2084.2957,-285.4408C2120.6728,-275.8855 2175.5007,-261.4837 2214.8275,-251.1536"/>
<polygon fill="#191970" stroke="#191970" points="2215.9401,-254.4802 2224.7228,-248.5544 2214.1616,-247.7098 2215.9401,-254.4802"/>
</g>
<!-- Node20 -->
<g id="node20" class="node">
<title>Node20</title>
<polygon fill="none" stroke="#bfbfbf" points="2044,-171.5 2044,-191.5 2228,-191.5 2228,-171.5 2044,-171.5"/>
<text text-anchor="middle" x="2136" y="-178.5" font-family="FreeSans" font-size="10.00" fill="#000000">Geant4/G4UserTrackingAction.hh</text>
</g>
<!-- Node19&#45;&gt;Node20 -->
<g id="edge25" class="edge">
<title>Node19&#45;&gt;Node20</title>
<path fill="none" stroke="#191970" d="M2113.0058,-228.3095C2116.7486,-220.6903 2121.9787,-210.0435 2126.5053,-200.8285"/>
<polygon fill="#191970" stroke="#191970" points="2129.7698,-202.121 2131.0375,-191.6022 2123.487,-199.0346 2129.7698,-202.121"/>
</g>
<!-- Node22&#45;&gt;Node9 -->
<g id="edge30" class="edge">
<title>Node22&#45;&gt;Node9</title>
<path fill="none" stroke="#191970" d="M1644.9182,-285.479C1648.5344,-265.6864 1656,-220.1447 1656,-181.5 1656,-181.5 1656,-181.5 1656,-124.5 1656,-53.3765 1410.8471,-23.1302 1312.3012,-13.845"/>
<polygon fill="#191970" stroke="#191970" points="1312.4097,-10.3403 1302.1318,-12.9125 1311.7704,-17.3111 1312.4097,-10.3403"/>
</g>
<!-- Node22&#45;&gt;Node11 -->
<g id="edge29" class="edge">
<title>Node22&#45;&gt;Node11</title>
<path fill="none" stroke="#191970" d="M1611.7634,-285.4408C1582.6588,-276.0681 1539.074,-262.0323 1507.1453,-251.7502"/>
<polygon fill="#191970" stroke="#191970" points="1507.813,-248.2883 1497.2215,-248.5544 1505.6673,-254.9513 1507.813,-248.2883"/>
</g>
<!-- Node22&#45;&gt;Node16 -->
<g id="edge32" class="edge">
<title>Node22&#45;&gt;Node16</title>
<path fill="none" stroke="#191970" d="M1649.3729,-285.3153C1666.8014,-257.4622 1715.4613,-179.6974 1738.1157,-143.4926"/>
<polygon fill="#191970" stroke="#191970" points="1741.1877,-145.1813 1743.5252,-134.8476 1735.2537,-141.4682 1741.1877,-145.1813"/>
</g>
<!-- Node23 -->
<g id="node23" class="node">
<title>Node23</title>
<polygon fill="none" stroke="#bfbfbf" points="1574,-228.5 1574,-248.5 1628,-248.5 1628,-228.5 1574,-228.5"/>
<text text-anchor="middle" x="1601" y="-235.5" font-family="FreeSans" font-size="10.00" fill="#000000">iterator</text>
</g>
<!-- Node22&#45;&gt;Node23 -->
<g id="edge31" class="edge">
<title>Node22&#45;&gt;Node23</title>
<path fill="none" stroke="#191970" d="M1635.4912,-285.3095C1629.6382,-277.3661 1621.3603,-266.1319 1614.3812,-256.6602"/>
<polygon fill="#191970" stroke="#191970" points="1617.1935,-254.5766 1608.4438,-248.6022 1611.5581,-258.729 1617.1935,-254.5766"/>
</g>
<!-- Node22&#45;&gt;Node24 -->
<g id="edge33" class="edge">
<title>Node22&#45;&gt;Node24</title>
<path fill="none" stroke="#191970" d="M1661.2356,-285.3095C1677.0456,-276.4745 1700.1407,-263.5684 1718.0782,-253.5445"/>
<polygon fill="#191970" stroke="#191970" points="1719.9003,-256.5358 1726.9223,-248.6022 1716.4855,-250.4252 1719.9003,-256.5358"/>
</g>
<!-- Node25&#45;&gt;Node8 -->
<g id="edge41" class="edge">
<title>Node25&#45;&gt;Node8</title>
<path fill="none" stroke="#191970" d="M632.6016,-171.3833C657.0657,-151.743 711.2095,-108.2755 741.1239,-84.2597"/>
<polygon fill="#191970" stroke="#191970" points="743.6157,-86.7476 749.2226,-77.7579 739.2335,-81.289 743.6157,-86.7476"/>
</g>
<!-- Node25&#45;&gt;Node26 -->
<g id="edge36" class="edge">
<title>Node25&#45;&gt;Node26</title>
<path fill="none" stroke="#191970" d="M620,-171.3095C620,-163.9335 620,-153.72 620,-144.715"/>
<polygon fill="#191970" stroke="#191970" points="623.5001,-144.6022 620,-134.6022 616.5001,-144.6023 623.5001,-144.6022"/>
</g>
<!-- Node28 -->
<g id="node28" class="node">
<title>Node28</title>
<g id="a_node28"><a xlink:href="../../db/dd5/PHPointerList_8h.html" target="_top" xlink:title="PHPointerList.h">
<polygon fill="none" stroke="#000000" points="833,-57.5 833,-77.5 925,-77.5 925,-57.5 833,-57.5"/>
<text text-anchor="middle" x="879" y="-64.5" font-family="FreeSans" font-size="10.00" fill="#000000">PHPointerList.h</text>
</a>
</g>
</g>
<!-- Node25&#45;&gt;Node28 -->
<g id="edge39" class="edge">
<title>Node25&#45;&gt;Node28</title>
<path fill="none" stroke="#191970" d="M642.9845,-171.3833C689.2544,-151.0174 793.7322,-105.031 846.785,-81.6796"/>
<polygon fill="#191970" stroke="#191970" points="848.3244,-84.8261 856.067,-77.5941 845.5043,-78.4193 848.3244,-84.8261"/>
</g>
<!-- Node26&#45;&gt;Node8 -->
<g id="edge38" class="edge">
<title>Node26&#45;&gt;Node8</title>
<path fill="none" stroke="#191970" d="M645.0599,-114.4408C668.6404,-104.9753 704.0689,-90.754 729.7485,-80.446"/>
<polygon fill="#191970" stroke="#191970" points="731.0917,-83.6784 739.0682,-76.705 728.4841,-77.1822 731.0917,-83.6784"/>
</g>
<!-- Node27 -->
<g id="node27" class="node">
<title>Node27</title>
<polygon fill="none" stroke="#bfbfbf" points="596,-57.5 596,-77.5 644,-77.5 644,-57.5 596,-57.5"/>
<text text-anchor="middle" x="620" y="-64.5" font-family="FreeSans" font-size="10.00" fill="#000000">iosfwd</text>
</g>
<!-- Node26&#45;&gt;Node27 -->
<g id="edge37" class="edge">
<title>Node26&#45;&gt;Node27</title>
<path fill="none" stroke="#191970" d="M620,-114.3095C620,-106.9335 620,-96.72 620,-87.715"/>
<polygon fill="#191970" stroke="#191970" points="623.5001,-87.6022 620,-77.6022 616.5001,-87.6023 623.5001,-87.6022"/>
</g>
<!-- Node28&#45;&gt;Node9 -->
<g id="edge40" class="edge">
<title>Node28&#45;&gt;Node9</title>
<path fill="none" stroke="#191970" d="M925.2377,-60.7938C1002.8846,-49.532 1158.1764,-27.0088 1231.6697,-16.3494"/>
<polygon fill="#191970" stroke="#191970" points="1232.5064,-19.7648 1241.9004,-14.8656 1231.5016,-12.8373 1232.5064,-19.7648"/>
</g>
<!-- Node29&#45;&gt;Node8 -->
<g id="edge64" class="edge">
<title>Node29&#45;&gt;Node8</title>
<path fill="none" stroke="#191970" d="M1127.8076,-228.4893C1118.4196,-214.0368 1099.2984,-187.2792 1077,-171 1023.404,-131.8716 1001.9002,-135.1453 939,-114 889.3879,-97.3218 830.3311,-82.8529 794.5296,-74.6564"/>
<polygon fill="#191970" stroke="#191970" points="795.1649,-71.2117 784.6388,-72.4164 793.6187,-78.0388 795.1649,-71.2117"/>
</g>
<!-- Node29&#45;&gt;Node12 -->
<g id="edge63" class="edge">
<title>Node29&#45;&gt;Node12</title>
<path fill="none" stroke="#191970" d="M1151.6992,-228.3095C1166.9035,-219.5556 1189.0494,-206.8049 1206.3896,-196.8211"/>
<polygon fill="#191970" stroke="#191970" points="1208.5342,-199.6251 1215.454,-191.6022 1205.0414,-193.5587 1208.5342,-199.6251"/>
</g>
<!-- Node30 -->
<g id="node30" class="node">
<title>Node30</title>
<g id="a_node30"><a xlink:href="../../dd/d9b/PHDataNode_8h.html" target="_top" xlink:title="PHDataNode.h">
<polygon fill="none" stroke="#000000" points="828.5,-171.5 828.5,-191.5 917.5,-191.5 917.5,-171.5 828.5,-171.5"/>
<text text-anchor="middle" x="873" y="-178.5" font-family="FreeSans" font-size="10.00" fill="#000000">PHDataNode.h</text>
</a>
</g>
</g>
<!-- Node29&#45;&gt;Node30 -->
<g id="edge43" class="edge">
<title>Node29&#45;&gt;Node30</title>
<path fill="none" stroke="#191970" d="M1087.9392,-228.4408C1043.1261,-218.654 975.0323,-203.7829 927.5353,-193.41"/>
<polygon fill="#191970" stroke="#191970" points="928.2449,-189.9826 917.7284,-191.2683 926.7513,-196.8214 928.2449,-189.9826"/>
</g>
<!-- Node31 -->
<g id="node31" class="node">
<title>Node31</title>
<g id="a_node31"><a xlink:href="../../d9/d53/PHIOManager_8h.html" target="_top" xlink:title="PHIOManager.h">
<polygon fill="none" stroke="#000000" points="1310.5,-114.5 1310.5,-134.5 1403.5,-134.5 1403.5,-114.5 1310.5,-114.5"/>
<text text-anchor="middle" x="1357" y="-121.5" font-family="FreeSans" font-size="10.00" fill="#000000">PHIOManager.h</text>
</a>
</g>
</g>
<!-- Node29&#45;&gt;Node31 -->
<g id="edge46" class="edge">
<title>Node29&#45;&gt;Node31</title>
<path fill="none" stroke="#191970" d="M1139.9477,-228.1324C1149.0309,-213.2353 1167.7762,-185.9293 1191,-171 1223.8542,-149.8799 1266.3494,-138.2089 1300.1188,-131.8416"/>
<polygon fill="#191970" stroke="#191970" points="1301.0659,-135.2281 1310.2985,-130.0312 1299.8401,-128.3363 1301.0659,-135.2281"/>
</g>
<!-- Node33 -->
<g id="node33" class="node">
<title>Node33</title>
<g id="a_node33"><a xlink:href="../../dd/de7/PHNodeIOManager_8h.html" target="_top" xlink:title="PHNodeIOManager.h">
<polygon fill="none" stroke="#000000" points="1322,-171.5 1322,-191.5 1442,-191.5 1442,-171.5 1322,-171.5"/>
<text text-anchor="middle" x="1382" y="-178.5" font-family="FreeSans" font-size="10.00" fill="#000000">PHNodeIOManager.h</text>
</a>
</g>
</g>
<!-- Node29&#45;&gt;Node33 -->
<g id="edge49" class="edge">
<title>Node29&#45;&gt;Node33</title>
<path fill="none" stroke="#191970" d="M1177.7665,-228.4408C1219.7816,-218.7841 1283.3336,-204.1774 1328.371,-193.826"/>
<polygon fill="#191970" stroke="#191970" points="1329.2927,-197.2055 1338.2546,-191.5544 1327.7247,-190.3834 1329.2927,-197.2055"/>
</g>
<!-- Node35 -->
<g id="node35" class="node">
<title>Node35</title>
<g id="a_node35"><a xlink:href="../../db/d17/PHTypedNodeIterator_8h.html" target="_top" xlink:title="PHTypedNodeIterator.h">
<polygon fill="none" stroke="#000000" points="936,-171.5 936,-191.5 1068,-191.5 1068,-171.5 936,-171.5"/>
<text text-anchor="middle" x="1002" y="-178.5" font-family="FreeSans" font-size="10.00" fill="#000000">PHTypedNodeIterator.h</text>
</a>
</g>
</g>
<!-- Node29&#45;&gt;Node35 -->
<g id="edge56" class="edge">
<title>Node29&#45;&gt;Node35</title>
<path fill="none" stroke="#191970" d="M1110.7049,-228.4408C1089.6286,-219.3396 1058.3701,-205.8416 1034.7755,-195.6531"/>
<polygon fill="#191970" stroke="#191970" points="1036.0744,-192.4016 1025.5062,-191.6504 1033.2993,-198.8281 1036.0744,-192.4016"/>
</g>
<!-- Node37 -->
<g id="node37" class="node">
<title>Node37</title>
<g id="a_node37"><a xlink:href="../../de/da7/phooldefs_8h.html" target="_top" xlink:title="phooldefs.h">
<polygon fill="none" stroke="#000000" points="1140.5,-114.5 1140.5,-134.5 1215.5,-134.5 1215.5,-114.5 1140.5,-114.5"/>
<text text-anchor="middle" x="1178" y="-121.5" font-family="FreeSans" font-size="10.00" fill="#000000">phooldefs.h</text>
</a>
</g>
</g>
<!-- Node29&#45;&gt;Node37 -->
<g id="edge61" class="edge">
<title>Node29&#45;&gt;Node37</title>
<path fill="none" stroke="#191970" d="M1137.3767,-228.3611C1141.8488,-215.0893 1150.0955,-191.146 1158,-171 1161.5142,-162.0433 1165.6807,-152.2426 1169.2987,-143.9581"/>
<polygon fill="#191970" stroke="#191970" points="1172.5211,-145.325 1173.3592,-134.7634 1166.1177,-142.4972 1172.5211,-145.325"/>
</g>
<!-- Node30&#45;&gt;Node9 -->
<g id="edge45" class="edge">
<title>Node30&#45;&gt;Node9</title>
<path fill="none" stroke="#191970" d="M896.4697,-171.4416C964.3124,-142.3661 1160.8107,-58.1525 1239.1729,-24.5688"/>
<polygon fill="#191970" stroke="#191970" points="1240.7472,-27.702 1248.5599,-20.5458 1237.9897,-21.268 1240.7472,-27.702"/>
</g>
<!-- Node30&#45;&gt;Node26 -->
<g id="edge44" class="edge">
<title>Node30&#45;&gt;Node26</title>
<path fill="none" stroke="#191970" d="M828.3511,-171.4408C781.5324,-160.8927 708.4993,-144.4386 662.5018,-134.0755"/>
<polygon fill="#191970" stroke="#191970" points="663.0771,-130.6175 652.5523,-131.8339 661.5385,-137.4463 663.0771,-130.6175"/>
</g>
<!-- Node31&#45;&gt;Node8 -->
<g id="edge48" class="edge">
<title>Node31&#45;&gt;Node8</title>
<path fill="none" stroke="#191970" d="M1310.4405,-116.0202C1305.5737,-115.2733 1300.6924,-114.5815 1296,-114 1087.21,-88.1266 1032.8248,-103.5918 824,-78 814.3711,-76.82 803.9568,-75.1941 794.4624,-73.574"/>
<polygon fill="#191970" stroke="#191970" points="795.0568,-70.1249 784.6017,-71.8397 793.8442,-77.0191 795.0568,-70.1249"/>
</g>
<!-- Node32 -->
<g id="node32" class="node">
<title>Node32</title>
<polygon fill="none" stroke="#bfbfbf" points="1330,-57.5 1330,-77.5 1384,-77.5 1384,-57.5 1330,-57.5"/>
<text text-anchor="middle" x="1357" y="-64.5" font-family="FreeSans" font-size="10.00" fill="#000000">cstddef</text>
</g>
<!-- Node31&#45;&gt;Node32 -->
<g id="edge47" class="edge">
<title>Node31&#45;&gt;Node32</title>
<path fill="none" stroke="#191970" d="M1357,-114.3095C1357,-106.9335 1357,-96.72 1357,-87.715"/>
<polygon fill="#191970" stroke="#191970" points="1360.5001,-87.6022 1357,-77.6022 1353.5001,-87.6023 1360.5001,-87.6022"/>
</g>
<!-- Node33&#45;&gt;Node8 -->
<g id="edge55" class="edge">
<title>Node33&#45;&gt;Node8</title>
<path fill="none" stroke="#191970" d="M1364.2459,-171.3036C1332.7195,-153.2774 1269.213,-117.3538 1258,-114 1072.5655,-58.5369 1016.0349,-102.1812 824,-78 814.3751,-76.788 803.962,-75.1523 794.4675,-73.5331"/>
<polygon fill="#191970" stroke="#191970" points="795.0606,-70.0838 784.6062,-71.8034 793.8511,-76.9785 795.0606,-70.0838"/>
</g>
<!-- Node33&#45;&gt;Node16 -->
<g id="edge54" class="edge">
<title>Node33&#45;&gt;Node16</title>
<path fill="none" stroke="#191970" d="M1442.3556,-172.1514C1522.1842,-159.7867 1659.8034,-138.4707 1720.1621,-129.1216"/>
<polygon fill="#191970" stroke="#191970" points="1720.823,-132.5611 1730.1694,-127.5716 1719.7515,-125.6436 1720.823,-132.5611"/>
</g>
<!-- Node33&#45;&gt;Node31 -->
<g id="edge50" class="edge">
<title>Node33&#45;&gt;Node31</title>
<path fill="none" stroke="#191970" d="M1377.5305,-171.3095C1374.1887,-163.6903 1369.5191,-153.0435 1365.4774,-143.8285"/>
<polygon fill="#191970" stroke="#191970" points="1368.6527,-142.3543 1361.4308,-134.6022 1362.2422,-145.166 1368.6527,-142.3543"/>
</g>
<!-- Node33&#45;&gt;Node32 -->
<g id="edge53" class="edge">
<title>Node33&#45;&gt;Node32</title>
<path fill="none" stroke="#191970" d="M1392.4392,-171.412C1404.7872,-158.1953 1422.5352,-134.3114 1413,-114 1407.0677,-101.3632 1395.8275,-90.9738 1384.965,-83.2452"/>
<polygon fill="#191970" stroke="#191970" points="1386.7182,-80.2088 1376.4431,-77.6254 1382.8645,-86.0526 1386.7182,-80.2088"/>
</g>
<!-- Node33&#45;&gt;Node34 -->
<g id="edge51" class="edge">
<title>Node33&#45;&gt;Node34</title>
<path fill="none" stroke="#191970" d="M1413.9425,-171.4408C1445.3053,-161.5641 1493.1107,-146.5093 1526.0844,-136.1253"/>
<polygon fill="#191970" stroke="#191970" points="1527.32,-139.4058 1535.8068,-133.0636 1525.2173,-132.729 1527.32,-139.4058"/>
</g>
<!-- Node34&#45;&gt;Node9 -->
<g id="edge52" class="edge">
<title>Node34&#45;&gt;Node9</title>
<path fill="none" stroke="#191970" d="M1559.8501,-114.3952C1554.5934,-99.3152 1542.5332,-71.1812 1522,-57 1488.6053,-33.9359 1374.2213,-20.0155 1312.4097,-14.0018"/>
<polygon fill="#191970" stroke="#191970" points="1312.5215,-10.4968 1302.2358,-13.0372 1311.8608,-17.4655 1312.5215,-10.4968"/>
</g>
<!-- Node35&#45;&gt;Node32 -->
<g id="edge60" class="edge">
<title>Node35&#45;&gt;Node32</title>
<path fill="none" stroke="#191970" d="M1020.5274,-171.4389C1053.4183,-153.6327 1119.6315,-118.0535 1131,-114 1195.4086,-91.035 1274.4081,-78.021 1319.9015,-71.8983"/>
<polygon fill="#191970" stroke="#191970" points="1320.4379,-75.358 1329.9,-70.5915 1319.5307,-68.417 1320.4379,-75.358"/>
</g>
<!-- Node35&#45;&gt;Node36 -->
<g id="edge57" class="edge">
<title>Node35&#45;&gt;Node36</title>
<path fill="none" stroke="#191970" d="M980.2932,-171.4408C960.8285,-162.4205 932.0438,-149.0813 910.1288,-138.9255"/>
<polygon fill="#191970" stroke="#191970" points="911.4483,-135.6795 900.9035,-134.6504 908.505,-142.0307 911.4483,-135.6795"/>
</g>
<!-- Node36&#45;&gt;Node8 -->
<g id="edge59" class="edge">
<title>Node36&#45;&gt;Node8</title>
<path fill="none" stroke="#191970" d="M858.3521,-114.4408C839.9199,-105.461 812.7017,-92.2008 791.8912,-82.0624"/>
<polygon fill="#191970" stroke="#191970" points="793.3579,-78.8837 782.8351,-77.6504 790.2921,-85.1766 793.3579,-78.8837"/>
</g>
<!-- Node36&#45;&gt;Node28 -->
<g id="edge58" class="edge">
<title>Node36&#45;&gt;Node28</title>
<path fill="none" stroke="#191970" d="M879,-114.3095C879,-106.9335 879,-96.72 879,-87.715"/>
<polygon fill="#191970" stroke="#191970" points="882.5001,-87.6022 879,-77.6022 875.5001,-87.6023 882.5001,-87.6022"/>
</g>
<!-- Node37&#45;&gt;Node8 -->
<g id="edge62" class="edge">
<title>Node37&#45;&gt;Node8</title>
<path fill="none" stroke="#191970" d="M1140.4726,-120.0355C1075.7716,-112.2343 939.0865,-95.2978 824,-78 814.4068,-76.5581 804.0034,-74.8521 794.5081,-73.2391"/>
<polygon fill="#191970" stroke="#191970" points="795.0909,-69.7881 784.6423,-71.5422 793.9042,-76.6868 795.0909,-69.7881"/>
</g>
<!-- Node38&#45;&gt;Node8 -->
<g id="edge74" class="edge">
<title>Node38&#45;&gt;Node8</title>
<path fill="none" stroke="#191970" d="M856.5854,-285.3851C844.3153,-277.0339 827.9983,-264.1247 818,-249 783.705,-197.1211 769.5479,-123.1791 764.47,-87.8353"/>
<polygon fill="#191970" stroke="#191970" points="767.9218,-87.2407 763.1264,-77.7932 760.9836,-88.169 767.9218,-87.2407"/>
</g>
<!-- Node38&#45;&gt;Node12 -->
<g id="edge73" class="edge">
<title>Node38&#45;&gt;Node12</title>
<path fill="none" stroke="#191970" d="M923.1134,-291.4331C1011.3517,-283.8556 1187.2228,-266.7313 1209,-249 1223.1251,-237.4991 1228.9434,-217.0659 1231.3365,-201.6843"/>
<polygon fill="#191970" stroke="#191970" points="1234.8329,-201.9214 1232.5434,-191.5769 1227.8823,-201.0914 1234.8329,-201.9214"/>
</g>
<!-- Node38&#45;&gt;Node26 -->
<g id="edge71" class="edge">
<title>Node38&#45;&gt;Node26</title>
<path fill="none" stroke="#191970" d="M822.7495,-287.524C737.2814,-272.82 569.4863,-238.627 535,-192 518.3165,-169.4431 549.7897,-150.2923 579.048,-138.2155"/>
<polygon fill="#191970" stroke="#191970" points="580.3726,-141.4556 588.4057,-134.5477 577.8181,-134.9384 580.3726,-141.4556"/>
</g>
<!-- Node38&#45;&gt;Node29 -->
<g id="edge70" class="edge">
<title>Node38&#45;&gt;Node29</title>
<path fill="none" stroke="#191970" d="M919.0608,-285.4408C963.464,-275.7435 1030.724,-261.0545 1078.1563,-250.6958"/>
<polygon fill="#191970" stroke="#191970" points="1078.9385,-254.1075 1087.9615,-248.5544 1077.445,-247.2687 1078.9385,-254.1075"/>
</g>
<!-- Node38&#45;&gt;Node30 -->
<g id="edge69" class="edge">
<title>Node38&#45;&gt;Node30</title>
<path fill="none" stroke="#191970" d="M873,-285.3833C873,-266.6703 873,-226.3266 873,-201.7866"/>
<polygon fill="#191970" stroke="#191970" points="876.5001,-201.7579 873,-191.7579 869.5001,-201.758 876.5001,-201.7579"/>
</g>
<!-- Node38&#45;&gt;Node36 -->
<g id="edge72" class="edge">
<title>Node38&#45;&gt;Node36</title>
<path fill="none" stroke="#191970" d="M862.4622,-285.3504C841.5616,-263.9364 798.572,-212.6763 819,-171 825.3786,-157.9867 837.3487,-147.573 848.9295,-139.9269"/>
<polygon fill="#191970" stroke="#191970" points="850.9026,-142.823 857.6105,-134.6221 847.2525,-136.85 850.9026,-142.823"/>
</g>
</g>
</svg>
