<?xml version="1.0" encoding="UTF-8" standalone="no"?>
<!DOCTYPE svg PUBLIC "-//W3C//DTD SVG 1.1//EN"
 "http://www.w3.org/Graphics/SVG/1.1/DTD/svg11.dtd">
<!-- Generated by graphviz version 2.40.1 (20161225.0304)
 -->
<!-- Title: generate_title Pages: 1 -->
<svg width="306pt" height="29pt"
 viewBox="0.00 0.00 306.00 29.00" xmlns="http://www.w3.org/2000/svg" xmlns:xlink="http://www.w3.org/1999/xlink">
<g id="graph0" class="graph" transform="scale(1 1) rotate(0) translate(4 25)">
<title>generate_title</title>
<!-- Node1 -->
<g id="node1" class="node">
<title>Node1</title>
<polygon fill="#bfbfbf" stroke="#000000" points="0,-.5 0,-20.5 86,-20.5 86,-.5 0,-.5"/>
<text text-anchor="middle" x="43" y="-7.5" font-family="FreeSans" font-size="10.00" fill="#000000">generate_title</text>
</g>
<!-- Node2 -->
<g id="node2" class="node">
<title>Node2</title>
<g id="a_node2"><a xlink:href="../../d2/d2c/LivePlot-Energy-EMC_8C.html#a57c161e9b0689967ab90a881ee37ce46" target="_top" xlink:title="generate_label">
<polygon fill="none" stroke="#000000" points="122,-.5 122,-20.5 213,-20.5 213,-.5 122,-.5"/>
<text text-anchor="middle" x="167.5" y="-7.5" font-family="FreeSans" font-size="10.00" fill="#000000">generate_label</text>
</a>
</g>
</g>
<!-- Node1&#45;&gt;Node2 -->
<g id="edge1" class="edge">
<title>Node1&#45;&gt;Node2</title>
<path fill="none" stroke="#191970" d="M86.1947,-10.5C94.3832,-10.5 103.0586,-10.5 111.5745,-10.5"/>
<polygon fill="#191970" stroke="#191970" points="111.8395,-14.0001 121.8395,-10.5 111.8394,-7.0001 111.8395,-14.0001"/>
</g>
<!-- Node3 -->
<g id="node3" class="node">
<title>Node3</title>
<g id="a_node3"><a xlink:href="../../d2/d2c/LivePlot-Energy-EMC_8C.html#ab1cc1a3ff560049e22576031c7c2345b" target="_top" xlink:title="strdup">
<polygon fill="none" stroke="#000000" points="249,-.5 249,-20.5 298,-20.5 298,-.5 249,-.5"/>
<text text-anchor="middle" x="273.5" y="-7.5" font-family="FreeSans" font-size="10.00" fill="#000000">strdup</text>
</a>
</g>
</g>
<!-- Node2&#45;&gt;Node3 -->
<g id="edge2" class="edge">
<title>Node2&#45;&gt;Node3</title>
<path fill="none" stroke="#191970" d="M213.0687,-10.5C221.7486,-10.5 230.6998,-10.5 238.9661,-10.5"/>
<polygon fill="#191970" stroke="#191970" points="238.9984,-14.0001 248.9984,-10.5 238.9984,-7.0001 238.9984,-14.0001"/>
</g>
</g>
</svg>
