<?xml version="1.0" encoding="UTF-8" standalone="no"?>
<!DOCTYPE svg PUBLIC "-//W3C//DTD SVG 1.1//EN"
 "http://www.w3.org/Graphics/SVG/1.1/DTD/svg11.dtd">
<!-- Generated by graphviz version 2.40.1 (20161225.0304)
 -->
<!-- Title: pyhithia Pages: 1 -->
<svg width="842pt" height="2651pt"
 viewBox="0.00 0.00 842.00 2651.00" xmlns="http://www.w3.org/2000/svg" xmlns:xlink="http://www.w3.org/1999/xlink">
<g id="graph0" class="graph" transform="scale(1 1) rotate(0) translate(4 2647)">
<title>pyhithia</title>
<!-- Node1 -->
<g id="node1" class="node">
<title>Node1</title>
<polygon fill="#bfbfbf" stroke="#000000" points="0,-1141 0,-1161 57,-1161 57,-1141 0,-1141"/>
<text text-anchor="middle" x="28.5" y="-1148" font-family="FreeSans" font-size="10.00" fill="#000000">pyhithia</text>
</g>
<!-- Node2 -->
<g id="node2" class="node">
<title>Node2</title>
<g id="a_node2"><a xlink:href="../../d0/d4a/luedit_8f.html#aaacc14ce32bf7ae36ea919afd5d45016" target="_top" xlink:title="luedit">
<polygon fill="none" stroke="#000000" points="330,-1406 330,-1426 375,-1426 375,-1406 330,-1406"/>
<text text-anchor="middle" x="352.5" y="-1413" font-family="FreeSans" font-size="10.00" fill="#000000">luedit</text>
</a>
</g>
</g>
<!-- Node1&#45;&gt;Node2 -->
<g id="edge1" class="edge">
<title>Node1&#45;&gt;Node2</title>
<path fill="none" stroke="#191970" d="M30.1926,-1161.2542C35.0977,-1187.9211 51.689,-1260.264 93,-1302 157.5816,-1367.2459 265.8523,-1397.939 319.8357,-1409.7892"/>
<polygon fill="#191970" stroke="#191970" points="319.3718,-1413.2684 329.8795,-1411.9126 320.8198,-1406.4198 319.3718,-1413.2684"/>
</g>
<!-- Node5 -->
<g id="node5" class="node">
<title>Node5</title>
<g id="a_node5"><a xlink:href="../../df/dd0/luerrm_8f.html#ab2b89149ed6c532c613c12ae6c351b5d" target="_top" xlink:title="luerrm">
<polygon fill="none" stroke="#000000" points="452,-1794 452,-1814 501,-1814 501,-1794 452,-1794"/>
<text text-anchor="middle" x="476.5" y="-1801" font-family="FreeSans" font-size="10.00" fill="#000000">luerrm</text>
</a>
</g>
</g>
<!-- Node1&#45;&gt;Node5 -->
<g id="edge16" class="edge">
<title>Node1&#45;&gt;Node5</title>
<path fill="none" stroke="#191970" d="M29.5903,-1161.0659C35.4027,-1213.8616 63.5827,-1459.0393 93,-1529 122.3591,-1598.8221 132.9369,-1620.8534 193,-1667 267.7463,-1724.4276 311.9464,-1691.6632 391,-1743 409.9771,-1755.3236 408.6704,-1765.7325 427,-1779 432.2204,-1782.7787 438.0951,-1786.2905 443.925,-1789.4167"/>
<polygon fill="#191970" stroke="#191970" points="442.4473,-1792.5917 452.9488,-1793.9948 445.6144,-1786.3491 442.4473,-1792.5917"/>
</g>
<!-- Node11 -->
<g id="node11" class="node">
<title>Node11</title>
<g id="a_node11"><a xlink:href="../../da/d0a/CylinderKalman_8cpp.html#ab74daa0c9784c63e060bfb98cc06fbf5" target="_top" xlink:title="sign">
<polygon fill="none" stroke="#000000" points="587,-1252 587,-1272 624,-1272 624,-1252 587,-1252"/>
<text text-anchor="middle" x="605.5" y="-1259" font-family="FreeSans" font-size="10.00" fill="#000000">sign</text>
</a>
</g>
</g>
<!-- Node1&#45;&gt;Node11 -->
<g id="edge149" class="edge">
<title>Node1&#45;&gt;Node11</title>
<path fill="none" stroke="#191970" d="M51.4547,-1161.0053C63.6266,-1166.0263 78.9346,-1171.8964 93,-1176 238.3424,-1218.4035 277.3441,-1220.0744 427,-1243 479.6241,-1251.0614 541.4999,-1256.8245 576.8473,-1259.767"/>
<polygon fill="#191970" stroke="#191970" points="576.6744,-1263.2645 586.9259,-1260.5891 577.2436,-1256.2876 576.6744,-1263.2645"/>
</g>
<!-- Node12 -->
<g id="node12" class="node">
<title>Node12</title>
<g id="a_node12"><a xlink:href="../../d2/da8/ulangl_8f.html#a13a8d5a72aa20b0ae2ceca14e31467ba" target="_top" xlink:title="ulangl">
<polygon fill="none" stroke="#000000" points="453,-1214 453,-1234 500,-1234 500,-1214 453,-1214"/>
<text text-anchor="middle" x="476.5" y="-1221" font-family="FreeSans" font-size="10.00" fill="#000000">ulangl</text>
</a>
</g>
</g>
<!-- Node1&#45;&gt;Node12 -->
<g id="edge150" class="edge">
<title>Node1&#45;&gt;Node12</title>
<path fill="none" stroke="#191970" d="M49.126,-1140.8934C61.6461,-1134.9689 78.0453,-1127.5777 93,-1122 171.0446,-1092.8913 195.851,-1078.2226 278,-1092 330.3974,-1100.7877 346.5553,-1101.8901 391,-1131 407.2588,-1141.649 441.9859,-1182.1287 461.8163,-1206.0301"/>
<polygon fill="#191970" stroke="#191970" points="459.3248,-1208.5101 468.3865,-1213.9998 464.726,-1204.0573 459.3248,-1208.5101"/>
</g>
<!-- Node13 -->
<g id="node13" class="node">
<title>Node13</title>
<g id="a_node13"><a xlink:href="../../db/d08/luexec_8f.html#a5b4b744833efbda90c865012826ff281" target="_top" xlink:title="luexec">
<polygon fill="none" stroke="#000000" points="100.5,-2194 100.5,-2214 149.5,-2214 149.5,-2194 100.5,-2194"/>
<text text-anchor="middle" x="125" y="-2201" font-family="FreeSans" font-size="10.00" fill="#000000">luexec</text>
</a>
</g>
</g>
<!-- Node1&#45;&gt;Node13 -->
<g id="edge17" class="edge">
<title>Node1&#45;&gt;Node13</title>
<path fill="none" stroke="#191970" d="M29.4241,-1161.0842C38.4297,-1259.3521 110.4879,-2045.6454 123.1149,-2183.4297"/>
<polygon fill="#191970" stroke="#191970" points="119.6664,-2184.1526 124.0645,-2193.7914 126.6372,-2183.5137 119.6664,-2184.1526"/>
</g>
<!-- Node20 -->
<g id="node20" class="node">
<title>Node20</title>
<g id="a_node20"><a xlink:href="../../db/dc0/classHiStrng.html#a9c8d7f68590dc5bf34483b740c49ba0b" target="_top" xlink:title="HiStrng::pt">
<polygon fill="none" stroke="#000000" points="441,-142 441,-162 512,-162 512,-142 441,-142"/>
<text text-anchor="middle" x="476.5" y="-149" font-family="FreeSans" font-size="10.00" fill="#000000">HiStrng::pt</text>
</a>
</g>
</g>
<!-- Node1&#45;&gt;Node20 -->
<g id="edge77" class="edge">
<title>Node1&#45;&gt;Node20</title>
<path fill="none" stroke="#191970" d="M28.7926,-1140.9803C31.2464,-1059.5166 49.3955,-504.7436 93,-344 119.7495,-245.3908 107.826,-193.4332 193,-137 269.939,-86.0231 386.0076,-117.6483 442.7951,-138.3086"/>
<polygon fill="#191970" stroke="#191970" points="441.7691,-141.6617 452.3614,-141.8912 444.2241,-135.1064 441.7691,-141.6617"/>
</g>
<!-- Node24 -->
<g id="node24" class="node">
<title>Node24</title>
<g id="a_node24"><a xlink:href="../../da/d22/luprep_8f.html#aad1b09d3910be6e5fd985cf9a9860fc5" target="_top" xlink:title="luprep">
<polygon fill="none" stroke="#000000" points="211,-1638 211,-1658 260,-1658 260,-1638 211,-1638"/>
<text text-anchor="middle" x="235.5" y="-1645" font-family="FreeSans" font-size="10.00" fill="#000000">luprep</text>
</a>
</g>
</g>
<!-- Node1&#45;&gt;Node24 -->
<g id="edge75" class="edge">
<title>Node1&#45;&gt;Node24</title>
<path fill="none" stroke="#191970" d="M28.881,-1161.0828C30.7451,-1201.4989 41.067,-1354.9908 93,-1467 124.5033,-1534.9463 186.1688,-1600.3397 217.0114,-1630.5569"/>
<polygon fill="#191970" stroke="#191970" points="214.8748,-1633.3594 224.4979,-1637.7917 219.7392,-1628.3257 214.8748,-1633.3594"/>
</g>
<!-- Node26 -->
<g id="node26" class="node">
<title>Node26</title>
<g id="a_node26"><a xlink:href="../../d8/d7b/lushow_8f.html#a0bdbe298274d1bf15e7098046b96239e" target="_top" xlink:title="lushow">
<polygon fill="none" stroke="#000000" points="326.5,-1174 326.5,-1194 378.5,-1194 378.5,-1174 326.5,-1174"/>
<text text-anchor="middle" x="352.5" y="-1181" font-family="FreeSans" font-size="10.00" fill="#000000">lushow</text>
</a>
</g>
</g>
<!-- Node1&#45;&gt;Node26 -->
<g id="edge76" class="edge">
<title>Node1&#45;&gt;Node26</title>
<path fill="none" stroke="#191970" d="M57.2528,-1153.9285C116.2286,-1159.9353 250.7985,-1173.6415 315.8927,-1180.2715"/>
<polygon fill="#191970" stroke="#191970" points="315.7899,-1183.779 326.0931,-1181.3104 316.4992,-1176.8151 315.7899,-1183.779"/>
</g>
<!-- Node29 -->
<g id="node29" class="node">
<title>Node29</title>
<g id="a_node29"><a xlink:href="../../dc/d4f/pyhidiff_8f.html#ac33b2a8c3319cb82cc762fdb1859f072" target="_top" xlink:title="pyhidiff">
<polygon fill="none" stroke="#000000" points="97.5,-1005 97.5,-1025 152.5,-1025 152.5,-1005 97.5,-1005"/>
<text text-anchor="middle" x="125" y="-1012" font-family="FreeSans" font-size="10.00" fill="#000000">pyhidiff</text>
</a>
</g>
</g>
<!-- Node1&#45;&gt;Node29 -->
<g id="edge78" class="edge">
<title>Node1&#45;&gt;Node29</title>
<path fill="none" stroke="#191970" d="M35.6009,-1140.7487C47.4201,-1123.7135 71.9151,-1088.5266 93,-1059 99.062,-1050.5109 105.8491,-1041.1576 111.6074,-1033.2656"/>
<polygon fill="#191970" stroke="#191970" points="114.5009,-1035.2382 117.5783,-1025.1001 108.8504,-1031.1064 114.5009,-1035.2382"/>
</g>
<!-- Node31 -->
<g id="node31" class="node">
<title>Node31</title>
<g id="a_node31"><a xlink:href="../../d3/d4d/pyhifram_8f.html#a56631323d50f4dcc2685cfa54edeab91" target="_top" xlink:title="pyhifram">
<polygon fill="none" stroke="#000000" points="94,-1438 94,-1458 156,-1458 156,-1438 94,-1438"/>
<text text-anchor="middle" x="125" y="-1445" font-family="FreeSans" font-size="10.00" fill="#000000">pyhifram</text>
</a>
</g>
</g>
<!-- Node1&#45;&gt;Node31 -->
<g id="edge84" class="edge">
<title>Node1&#45;&gt;Node31</title>
<path fill="none" stroke="#191970" d="M30.1399,-1161.0433C35.8776,-1194.8838 56.6974,-1307.4621 93,-1394 98.1641,-1406.3101 105.7132,-1419.2038 112.1824,-1429.3039"/>
<polygon fill="#191970" stroke="#191970" points="109.2917,-1431.278 117.7205,-1437.6972 115.1345,-1427.4228 109.2917,-1431.278"/>
</g>
<!-- Node33 -->
<g id="node33" class="node">
<title>Node33</title>
<g id="a_node33"><a xlink:href="../../dd/ded/pyhimult_8f.html#ab211ef234aa1654aab2f5ec13044efbf" target="_top" xlink:title="pyhimult">
<polygon fill="none" stroke="#000000" points="321.5,-638 321.5,-658 383.5,-658 383.5,-638 321.5,-638"/>
<text text-anchor="middle" x="352.5" y="-645" font-family="FreeSans" font-size="10.00" fill="#000000">pyhimult</text>
</a>
</g>
</g>
<!-- Node1&#45;&gt;Node33 -->
<g id="edge87" class="edge">
<title>Node1&#45;&gt;Node33</title>
<path fill="none" stroke="#191970" d="M28.9793,-1140.9102C31.2854,-1098.301 43.2693,-929.428 93,-802 123.3504,-724.2315 119.9269,-683.3659 193,-643 229.1522,-623.0293 277.2879,-628.0135 311.1904,-635.6607"/>
<polygon fill="#191970" stroke="#191970" points="310.6827,-639.139 321.2259,-638.0948 312.3327,-632.3362 310.6827,-639.139"/>
</g>
<!-- Node38 -->
<g id="node38" class="node">
<title>Node38</title>
<g id="a_node38"><a xlink:href="../../d5/d9e/pyhiovly_8f.html#adbffcc9d4816f148e95451b4ca682917" target="_top" xlink:title="pyhiovly">
<polygon fill="none" stroke="#000000" points="685,-66 685,-86 744,-86 744,-66 685,-66"/>
<text text-anchor="middle" x="714.5" y="-73" font-family="FreeSans" font-size="10.00" fill="#000000">pyhiovly</text>
</a>
</g>
</g>
<!-- Node1&#45;&gt;Node38 -->
<g id="edge98" class="edge">
<title>Node1&#45;&gt;Node38</title>
<path fill="none" stroke="#191970" d="M28.7711,-1140.7136C31.4341,-1041.6399 53.659,-258.2214 93,-163 129.7433,-74.0661 139.2747,0 235.5,0 235.5,0 235.5,0 476.5,0 556.1422,0 643.9743,-39.0969 687.2775,-61.207"/>
<polygon fill="#191970" stroke="#191970" points="685.8289,-64.3986 696.3157,-65.9078 689.0589,-58.1883 685.8289,-64.3986"/>
</g>
<!-- Node39 -->
<g id="node39" class="node">
<title>Node39</title>
<g id="a_node39"><a xlink:href="../../dd/dfb/pyhirand_8f.html#a11c46259e3dc9a8f003b2d30a821340d" target="_top" xlink:title="pyhirand">
<polygon fill="none" stroke="#000000" points="94.5,-812 94.5,-832 155.5,-832 155.5,-812 94.5,-812"/>
<text text-anchor="middle" x="125" y="-819" font-family="FreeSans" font-size="10.00" fill="#000000">pyhirand</text>
</a>
</g>
</g>
<!-- Node1&#45;&gt;Node39 -->
<g id="edge100" class="edge">
<title>Node1&#45;&gt;Node39</title>
<path fill="none" stroke="#191970" d="M31.4939,-1140.7929C45.0588,-1094.5456 100.8829,-904.223 119.1703,-841.8754"/>
<polygon fill="#191970" stroke="#191970" points="122.5849,-842.6689 122.041,-832.0881 115.8679,-840.6987 122.5849,-842.6689"/>
</g>
<!-- Node41 -->
<g id="node41" class="node">
<title>Node41</title>
<g id="a_node41"><a xlink:href="../../dd/d72/pyhiremn_8f.html#a44c1e251c510d589f81ff979af90df84" target="_top" xlink:title="pyhiremn">
<polygon fill="none" stroke="#000000" points="93,-354 93,-374 157,-374 157,-354 93,-354"/>
<text text-anchor="middle" x="125" y="-361" font-family="FreeSans" font-size="10.00" fill="#000000">pyhiremn</text>
</a>
</g>
</g>
<!-- Node1&#45;&gt;Node41 -->
<g id="edge110" class="edge">
<title>Node1&#45;&gt;Node41</title>
<path fill="none" stroke="#191970" d="M29.4075,-1140.8753C34.575,-1083.687 61.1817,-795.3283 93,-561 101.7923,-496.2485 114.9967,-419.988 121.341,-384.3158"/>
<polygon fill="#191970" stroke="#191970" points="124.8302,-384.6862 123.1455,-374.2261 117.9396,-383.4537 124.8302,-384.6862"/>
</g>
<!-- Node48 -->
<g id="node48" class="node">
<title>Node48</title>
<g id="a_node48"><a xlink:href="../../da/dea/pyhiresd_8f.html#abf70f2aea927845e18c437c28c73df91" target="_top" xlink:title="pyhiresd">
<polygon fill="none" stroke="#ff0000" points="206,-1272 206,-1292 265,-1292 265,-1272 206,-1272"/>
<text text-anchor="middle" x="235.5" y="-1279" font-family="FreeSans" font-size="10.00" fill="#000000">pyhiresd</text>
</a>
</g>
</g>
<!-- Node1&#45;&gt;Node48 -->
<g id="edge132" class="edge">
<title>Node1&#45;&gt;Node48</title>
<path fill="none" stroke="#191970" d="M32.924,-1161.0722C41.6411,-1179.7342 62.8447,-1219.7184 93,-1241 123.4796,-1262.5104 165.1141,-1272.8059 195.5078,-1277.6906"/>
<polygon fill="#191970" stroke="#191970" points="195.3491,-1281.205 205.753,-1279.2022 196.371,-1274.28 195.3491,-1281.205"/>
</g>
<!-- Node49 -->
<g id="node49" class="node">
<title>Node49</title>
<g id="a_node49"><a xlink:href="../../d1/dc6/pyhiscat_8f.html#a0e10611b57db7067ea912bc6a2b5cacc" target="_top" xlink:title="pyhiscat">
<polygon fill="none" stroke="#ff0000" points="323,-1328 323,-1348 382,-1348 382,-1328 323,-1328"/>
<text text-anchor="middle" x="352.5" y="-1335" font-family="FreeSans" font-size="10.00" fill="#000000">pyhiscat</text>
</a>
</g>
</g>
<!-- Node1&#45;&gt;Node49 -->
<g id="edge138" class="edge">
<title>Node1&#45;&gt;Node49</title>
<path fill="none" stroke="#191970" d="M31.2398,-1161.2017C37.8787,-1183.973 56.9916,-1239.273 93,-1269 156.9999,-1321.8355 257.4816,-1334.5544 312.7546,-1337.4006"/>
<polygon fill="#191970" stroke="#191970" points="312.7148,-1340.9021 322.8563,-1337.836 313.0163,-1333.9086 312.7148,-1340.9021"/>
</g>
<!-- Node50 -->
<g id="node50" class="node">
<title>Node50</title>
<g id="a_node50"><a xlink:href="../../d3/d16/pyhisspa_8f.html#a5ac8143df37811155f43ea0c30e7f631" target="_top" xlink:title="pyhisspa">
<polygon fill="none" stroke="#ff0000" points="205,-1102 205,-1122 266,-1122 266,-1102 205,-1102"/>
<text text-anchor="middle" x="235.5" y="-1109" font-family="FreeSans" font-size="10.00" fill="#000000">pyhisspa</text>
</a>
</g>
</g>
<!-- Node1&#45;&gt;Node50 -->
<g id="edge143" class="edge">
<title>Node1&#45;&gt;Node50</title>
<path fill="none" stroke="#191970" d="M57.0258,-1144.5509C68.2212,-1142.0874 81.1934,-1139.316 93,-1137 127.2449,-1130.2824 166.292,-1123.4926 194.842,-1118.6877"/>
<polygon fill="#191970" stroke="#191970" points="195.5723,-1122.1143 204.8572,-1117.0111 194.4165,-1115.2103 195.5723,-1122.1143"/>
</g>
<!-- Node3 -->
<g id="node3" class="node">
<title>Node3</title>
<g id="a_node3"><a xlink:href="../../df/d5f/luchge_8f.html#a86938fb3242850e133e3b60d256582b7" target="_top" xlink:title="luchge">
<polygon fill="none" stroke="#000000" points="451.5,-1523 451.5,-1543 501.5,-1543 501.5,-1523 451.5,-1523"/>
<text text-anchor="middle" x="476.5" y="-1530" font-family="FreeSans" font-size="10.00" fill="#000000">luchge</text>
</a>
</g>
</g>
<!-- Node2&#45;&gt;Node3 -->
<g id="edge2" class="edge">
<title>Node2&#45;&gt;Node3</title>
<path fill="none" stroke="#191970" d="M375.2901,-1424.209C380.9066,-1427.0044 386.5734,-1430.5721 391,-1435 416.576,-1460.5834 401.5424,-1482.2987 427,-1508 431.3404,-1512.3819 436.6083,-1516.1363 442.0676,-1519.3028"/>
<polygon fill="#191970" stroke="#191970" points="440.8163,-1522.5961 451.3061,-1524.0838 444.0336,-1516.3792 440.8163,-1522.5961"/>
</g>
<!-- Node4 -->
<g id="node4" class="node">
<title>Node4</title>
<g id="a_node4"><a xlink:href="../../d0/da8/lucomp_8f.html#af4e2c29d51aeb470efbf59be26e18d04" target="_top" xlink:title="lucomp">
<polygon fill="none" stroke="#000000" points="780,-2213 780,-2233 834,-2233 834,-2213 780,-2213"/>
<text text-anchor="middle" x="807" y="-2220" font-family="FreeSans" font-size="10.00" fill="#000000">lucomp</text>
</a>
</g>
</g>
<!-- Node2&#45;&gt;Node4 -->
<g id="edge4" class="edge">
<title>Node2&#45;&gt;Node4</title>
<path fill="none" stroke="#191970" d="M375.3863,-1423.5517C381.1353,-1426.3742 386.8439,-1430.1197 391,-1435 426.2746,-1476.4211 405.4685,-1502.0361 427,-1552 486.9989,-1691.2274 738.2631,-2109.2995 795.4038,-2203.8508"/>
<polygon fill="#191970" stroke="#191970" points="792.5537,-2205.9015 800.7239,-2212.6468 798.5434,-2202.2788 792.5537,-2205.9015"/>
</g>
<!-- Node2&#45;&gt;Node5 -->
<g id="edge5" class="edge">
<title>Node2&#45;&gt;Node5</title>
<path fill="none" stroke="#191970" d="M375.1901,-1422.6934C381.224,-1425.5445 387.1311,-1429.5198 391,-1435 469.9776,-1546.8684 374.7429,-1614.4251 427,-1741 434.0731,-1758.1321 447.1939,-1774.4979 458.1504,-1786.2536"/>
<polygon fill="#191970" stroke="#191970" points="455.8126,-1788.8702 465.289,-1793.6083 460.8357,-1783.9949 455.8126,-1788.8702"/>
</g>
<!-- Node2&#45;&gt;Node11 -->
<g id="edge13" class="edge">
<title>Node2&#45;&gt;Node11</title>
<path fill="none" stroke="#191970" d="M375.261,-1411.575C410.1183,-1403.9941 477.7488,-1386.0478 526,-1353 554.6677,-1333.3652 579.519,-1301.0442 593.4916,-1280.6723"/>
<polygon fill="#191970" stroke="#191970" points="596.4785,-1282.5018 599.1206,-1272.2417 590.6569,-1278.6148 596.4785,-1282.5018"/>
</g>
<!-- Node2&#45;&gt;Node12 -->
<g id="edge14" class="edge">
<title>Node2&#45;&gt;Node12</title>
<path fill="none" stroke="#191970" d="M359.0605,-1405.9918C366.7398,-1394.2662 379.8296,-1374.2465 391,-1357 417.3317,-1316.3452 447.9855,-1268.5457 464.4926,-1242.7667"/>
<polygon fill="#191970" stroke="#191970" points="467.6444,-1244.3348 470.0879,-1234.0256 461.7488,-1240.5609 467.6444,-1244.3348"/>
</g>
<!-- Node3&#45;&gt;Node4 -->
<g id="edge3" class="edge">
<title>Node3&#45;&gt;Node4</title>
<path fill="none" stroke="#191970" d="M483.1565,-1543.2034C515.5924,-1593.2709 658.968,-1818.6324 744,-2019 771.6895,-2084.2469 793.1634,-2165.8397 802.2584,-2202.9561"/>
<polygon fill="#191970" stroke="#191970" points="798.9289,-2204.0795 804.6767,-2212.9797 805.7337,-2202.4377 798.9289,-2204.0795"/>
</g>
<!-- Node6 -->
<g id="node6" class="node">
<title>Node6</title>
<g id="a_node6"><a xlink:href="../../d7/dda/lulist_8f.html#a69a9c5efe2681d7e19be2b4ed218153e" target="_top" xlink:title="lulist">
<polygon fill="none" stroke="#ff0000" points="585,-2366 585,-2386 626,-2386 626,-2366 585,-2366"/>
<text text-anchor="middle" x="605.5" y="-2373" font-family="FreeSans" font-size="10.00" fill="#000000">lulist</text>
</a>
</g>
</g>
<!-- Node5&#45;&gt;Node6 -->
<g id="edge6" class="edge">
<title>Node5&#45;&gt;Node6</title>
<path fill="none" stroke="#191970" d="M478.5771,-1814.0946C487.867,-1859.1319 526.6956,-2046.2081 562,-2199 575.1848,-2256.0619 592.0417,-2323.1298 600.3698,-2355.9111"/>
<polygon fill="#191970" stroke="#191970" points="596.9901,-2356.8227 602.8495,-2365.6499 603.7737,-2355.0954 596.9901,-2356.8227"/>
</g>
<!-- Node10 -->
<g id="node10" class="node">
<title>Node10</title>
<g id="a_node10"><a xlink:href="../../d0/d5e/classPHTimer.html#adce6f9a85834e59bd154b9c624ee4e41" target="_top" xlink:title="stops the counter">
<polygon fill="none" stroke="#ff0000" points="562,-1369 562,-1389 649,-1389 649,-1369 562,-1369"/>
<text text-anchor="middle" x="605.5" y="-1376" font-family="FreeSans" font-size="10.00" fill="#000000">PHTimer::stop</text>
</a>
</g>
</g>
<!-- Node5&#45;&gt;Node10 -->
<g id="edge12" class="edge">
<title>Node5&#45;&gt;Node10</title>
<path fill="none" stroke="#191970" d="M479.5615,-1793.9135C496.2898,-1738.801 576.7178,-1473.825 599.4838,-1398.8209"/>
<polygon fill="#191970" stroke="#191970" points="602.8544,-1399.7663 602.4098,-1389.1808 596.1562,-1397.7331 602.8544,-1399.7663"/>
</g>
<!-- Node6&#45;&gt;Node4 -->
<g id="edge7" class="edge">
<title>Node6&#45;&gt;Node4</title>
<path fill="none" stroke="#191970" d="M626.1671,-2370.389C655.0061,-2361.7735 707.8404,-2343.0563 744,-2313 767.8402,-2293.1837 786.8039,-2262.25 797.4729,-2242.3045"/>
<polygon fill="#191970" stroke="#191970" points="800.674,-2243.7337 802.1538,-2233.2427 794.4547,-2240.5211 800.674,-2243.7337"/>
</g>
<!-- Node7 -->
<g id="node7" class="node">
<title>Node7</title>
<g id="a_node7"><a xlink:href="../../dc/d9f/hcalUtil_8C.html#af562b1ac3ac927ecde202ce0501a97a6" target="_top" xlink:title="ps">
<polygon fill="none" stroke="#ff0000" points="700,-2463 700,-2483 729,-2483 729,-2463 700,-2463"/>
<text text-anchor="middle" x="714.5" y="-2470" font-family="FreeSans" font-size="10.00" fill="#000000">ps</text>
</a>
</g>
</g>
<!-- Node6&#45;&gt;Node7 -->
<g id="edge8" class="edge">
<title>Node6&#45;&gt;Node7</title>
<path fill="none" stroke="#191970" d="M616.7544,-2386.0154C635.3568,-2402.5698 672.7199,-2435.8196 695.4805,-2456.0744"/>
<polygon fill="#191970" stroke="#191970" points="693.3464,-2458.8605 703.1436,-2462.8938 698,-2453.6313 693.3464,-2458.8605"/>
</g>
<!-- Node8 -->
<g id="node8" class="node">
<title>Node8</title>
<g id="a_node8"><a xlink:href="../../d7/ded/ulmass_8f.html#aa951cb677600842104db95323a7647b2" target="_top" xlink:title="ulmass">
<polygon fill="none" stroke="#000000" points="688.5,-1509 688.5,-1529 740.5,-1529 740.5,-1509 688.5,-1509"/>
<text text-anchor="middle" x="714.5" y="-1516" font-family="FreeSans" font-size="10.00" fill="#000000">ulmass</text>
</a>
</g>
</g>
<!-- Node6&#45;&gt;Node8 -->
<g id="edge9" class="edge">
<title>Node6&#45;&gt;Node8</title>
<path fill="none" stroke="#191970" d="M607.9419,-2365.7699C615.2091,-2334.987 636.9402,-2240.4444 649,-2161 685.9413,-1917.6481 707.7172,-1619.1571 713.1506,-1539.3902"/>
<polygon fill="#191970" stroke="#191970" points="716.6541,-1539.4534 713.8335,-1529.2409 709.6699,-1538.9834 716.6541,-1539.4534"/>
</g>
<!-- Node8&#45;&gt;Node4 -->
<g id="edge10" class="edge">
<title>Node8&#45;&gt;Node4</title>
<path fill="none" stroke="#191970" d="M726.2994,-1529.1022C732.6909,-1535.303 740.0659,-1543.803 744,-1553 795.9333,-1674.4088 805.2728,-2103.8079 806.7473,-2202.6195"/>
<polygon fill="#191970" stroke="#191970" points="803.2496,-2202.8115 806.8877,-2212.7621 810.2489,-2202.7146 803.2496,-2202.8115"/>
</g>
<!-- Node9 -->
<g id="node9" class="node">
<title>Node9</title>
<g id="a_node9"><a xlink:href="../../d5/dae/rlu_8f.html#a722544a6fb4dd0f67ceda726148484f5" target="_top" xlink:title="rlu">
<polygon fill="none" stroke="#000000" points="792.5,-1330 792.5,-1350 821.5,-1350 821.5,-1330 792.5,-1330"/>
<text text-anchor="middle" x="807" y="-1337" font-family="FreeSans" font-size="10.00" fill="#000000">rlu</text>
</a>
</g>
</g>
<!-- Node8&#45;&gt;Node9 -->
<g id="edge11" class="edge">
<title>Node8&#45;&gt;Node9</title>
<path fill="none" stroke="#191970" d="M726.5111,-1508.7686C732.348,-1503.3383 739.1341,-1496.2909 744,-1489 772.3264,-1446.5569 792.1784,-1389.3079 801.3168,-1359.6476"/>
<polygon fill="#191970" stroke="#191970" points="804.6759,-1360.6308 804.1947,-1350.0469 797.9707,-1358.6207 804.6759,-1360.6308"/>
</g>
<!-- Node12&#45;&gt;Node11 -->
<g id="edge15" class="edge">
<title>Node12&#45;&gt;Node11</title>
<path fill="none" stroke="#191970" d="M500.1606,-1230.9698C521.7327,-1237.3244 553.6584,-1246.7288 576.7048,-1253.5177"/>
<polygon fill="#191970" stroke="#191970" points="576.0183,-1256.9641 586.5998,-1256.4325 577.9964,-1250.2494 576.0183,-1256.9641"/>
</g>
<!-- Node13&#45;&gt;Node3 -->
<g id="edge21" class="edge">
<title>Node13&#45;&gt;Node3</title>
<path fill="none" stroke="#191970" d="M149.7952,-2201.3779C203.6362,-2194.2485 331.1998,-2169.2992 391,-2089 431.7636,-2034.2629 416.3896,-1851.4184 427,-1784 440.565,-1697.8083 462.4594,-1596.0966 471.9121,-1553.4377"/>
<polygon fill="#191970" stroke="#191970" points="475.3745,-1553.9913 474.1333,-1543.4694 468.5421,-1552.4688 475.3745,-1553.9913"/>
</g>
<!-- Node13&#45;&gt;Node4 -->
<g id="edge22" class="edge">
<title>Node13&#45;&gt;Node4</title>
<path fill="none" stroke="#191970" d="M125.8692,-2214.1349C130.4062,-2265.1244 152.7135,-2493.3883 193,-2550 240.5781,-2616.8581 270.441,-2643 352.5,-2643 352.5,-2643 352.5,-2643 605.5,-2643 683.2857,-2643 702.9573,-2602.0766 744,-2536 774.9794,-2486.1248 797.8286,-2304.4534 804.7889,-2243.2699"/>
<polygon fill="#191970" stroke="#191970" points="808.3032,-2243.3359 805.9346,-2233.0092 801.3464,-2242.5591 808.3032,-2243.3359"/>
</g>
<!-- Node13&#45;&gt;Node5 -->
<g id="edge34" class="edge">
<title>Node13&#45;&gt;Node5</title>
<path fill="none" stroke="#191970" d="M149.5782,-2200.4265C201.8734,-2191.5173 324.7844,-2163.4247 391,-2089 427.0539,-2048.4763 461.4909,-1882.6567 472.7026,-1824.3737"/>
<polygon fill="#191970" stroke="#191970" points="476.2036,-1824.6971 474.6289,-1814.2199 469.3263,-1823.3923 476.2036,-1824.6971"/>
</g>
<!-- Node13&#45;&gt;Node6 -->
<g id="edge48" class="edge">
<title>Node13&#45;&gt;Node6</title>
<path fill="none" stroke="#191970" d="M127.3376,-2214.0964C133.9721,-2241.1684 154.9451,-2316.7882 193,-2368 234.4434,-2423.7718 248.5601,-2443.6404 314,-2467 414.1204,-2502.7393 536.2393,-2426.66 584.4683,-2392.0054"/>
<polygon fill="#191970" stroke="#191970" points="586.5941,-2394.7868 592.5918,-2386.0531 582.4567,-2389.1404 586.5941,-2394.7868"/>
</g>
<!-- Node13&#45;&gt;Node7 -->
<g id="edge74" class="edge">
<title>Node13&#45;&gt;Node7</title>
<path fill="none" stroke="#191970" d="M125.7608,-2214.3154C130.9944,-2277.0811 167.2038,-2605 352.5,-2605 352.5,-2605 352.5,-2605 476.5,-2605 569.6249,-2605 660.4292,-2526.758 697.2871,-2490.7507"/>
<polygon fill="#191970" stroke="#191970" points="700.0915,-2492.897 704.7017,-2483.3578 695.149,-2487.94 700.0915,-2492.897"/>
</g>
<!-- Node14 -->
<g id="node14" class="node">
<title>Node14</title>
<g id="a_node14"><a xlink:href="../../da/da6/luboei_8f.html#a762ad9eeab644f704f5de8395bd89997" target="_top" xlink:title="luboei">
<polygon fill="none" stroke="#000000" points="329,-2366 329,-2386 376,-2386 376,-2366 329,-2366"/>
<text text-anchor="middle" x="352.5" y="-2373" font-family="FreeSans" font-size="10.00" fill="#000000">luboei</text>
</a>
</g>
</g>
<!-- Node13&#45;&gt;Node14 -->
<g id="edge18" class="edge">
<title>Node13&#45;&gt;Node14</title>
<path fill="none" stroke="#191970" d="M127.1403,-2214.1721C132.9598,-2239.2144 151.4996,-2304.1895 193,-2337 229.2755,-2365.6797 283.6225,-2373.6725 318.5725,-2375.6797"/>
<polygon fill="#191970" stroke="#191970" points="318.6109,-2379.1847 328.7548,-2376.1267 318.918,-2372.1914 318.6109,-2379.1847"/>
</g>
<!-- Node15 -->
<g id="node15" class="node">
<title>Node15</title>
<g id="a_node15"><a xlink:href="../../d6/d6b/ludecy_8f.html#ac4ce13e6008631f348288f05b28e3df9" target="_top" xlink:title="ludecy">
<polygon fill="none" stroke="#ff0000" points="210.5,-2308 210.5,-2328 260.5,-2328 260.5,-2308 210.5,-2308"/>
<text text-anchor="middle" x="235.5" y="-2315" font-family="FreeSans" font-size="10.00" fill="#000000">ludecy</text>
</a>
</g>
</g>
<!-- Node13&#45;&gt;Node15 -->
<g id="edge23" class="edge">
<title>Node13&#45;&gt;Node15</title>
<path fill="none" stroke="#191970" d="M134.6344,-2214.1596C147.767,-2227.9849 172.0522,-2253.4697 193,-2275 201.2345,-2283.4635 210.4392,-2292.7925 218.1711,-2300.5918"/>
<polygon fill="#191970" stroke="#191970" points="215.7918,-2303.163 225.3217,-2307.7926 220.7589,-2298.2306 215.7918,-2303.163"/>
</g>
<!-- Node18 -->
<g id="node18" class="node">
<title>Node18</title>
<g id="a_node18"><a xlink:href="../../d9/dc0/luindf_8f.html#a0eb013ccdb0ba3b352ebfd4ed8aafa72" target="_top" xlink:title="luindf">
<polygon fill="none" stroke="#ff0000" points="212.5,-2079 212.5,-2099 258.5,-2099 258.5,-2079 212.5,-2079"/>
<text text-anchor="middle" x="235.5" y="-2086" font-family="FreeSans" font-size="10.00" fill="#000000">luindf</text>
</a>
</g>
</g>
<!-- Node13&#45;&gt;Node18 -->
<g id="edge35" class="edge">
<title>Node13&#45;&gt;Node18</title>
<path fill="none" stroke="#191970" d="M134.6708,-2193.8756C147.8445,-2180.0901 172.1763,-2154.6503 193,-2133 201.393,-2124.2739 210.7388,-2114.5941 218.5246,-2106.5404"/>
<polygon fill="#191970" stroke="#191970" points="221.2609,-2108.7457 225.6972,-2099.1244 216.2292,-2103.8792 221.2609,-2108.7457"/>
</g>
<!-- Node13&#45;&gt;Node24 -->
<g id="edge49" class="edge">
<title>Node13&#45;&gt;Node24</title>
<path fill="none" stroke="#191970" d="M127.0123,-2193.875C140.1255,-2127.8936 213.448,-1758.9587 231.4892,-1668.1811"/>
<polygon fill="#191970" stroke="#191970" points="234.9332,-1668.8066 233.4498,-1658.3162 228.0675,-1667.4421 234.9332,-1668.8066"/>
</g>
<!-- Node13&#45;&gt;Node26 -->
<g id="edge57" class="edge">
<title>Node13&#45;&gt;Node26</title>
<path fill="none" stroke="#191970" d="M125.441,-2193.8986C129.793,-2095.0252 165.4687,-1302.7639 193,-1262 221.2278,-1220.2048 278.5268,-1199.9727 316.2058,-1190.8133"/>
<polygon fill="#191970" stroke="#191970" points="317.3025,-1194.1531 326.2724,-1188.5148 315.7442,-1187.3287 317.3025,-1194.1531"/>
</g>
<!-- Node28 -->
<g id="node28" class="node">
<title>Node28</title>
<g id="a_node28"><a xlink:href="../../d9/d23/lustrf_8f.html#a5941611caddf798b636f4885a175c69e" target="_top" xlink:title="lustrf">
<polygon fill="none" stroke="#ff0000" points="214,-1907 214,-1927 257,-1927 257,-1907 214,-1907"/>
<text text-anchor="middle" x="235.5" y="-1914" font-family="FreeSans" font-size="10.00" fill="#000000">lustrf</text>
</a>
</g>
</g>
<!-- Node13&#45;&gt;Node28 -->
<g id="edge65" class="edge">
<title>Node13&#45;&gt;Node28</title>
<path fill="none" stroke="#191970" d="M128.9328,-2193.7855C145.0776,-2151.8527 206.4273,-1992.51 227.9683,-1936.562"/>
<polygon fill="#191970" stroke="#191970" points="231.2875,-1937.6819 231.6144,-1927.0921 224.755,-1935.1667 231.2875,-1937.6819"/>
</g>
<!-- Node14&#45;&gt;Node5 -->
<g id="edge19" class="edge">
<title>Node14&#45;&gt;Node5</title>
<path fill="none" stroke="#191970" d="M357.0739,-2365.8871C365.0298,-2347.9337 381.4757,-2309.164 391,-2275 438.6866,-2103.9468 466.3328,-1890.3141 474.1716,-1824.3432"/>
<polygon fill="#191970" stroke="#191970" points="477.6843,-1824.4372 475.3694,-1814.0984 470.7317,-1823.6242 477.6843,-1824.4372"/>
</g>
<!-- Node14&#45;&gt;Node8 -->
<g id="edge20" class="edge">
<title>Node14&#45;&gt;Node8</title>
<path fill="none" stroke="#191970" d="M370.519,-2365.8155C377.2561,-2361.627 384.7769,-2356.4745 391,-2351 524.0531,-2233.9516 577.7816,-2209.2695 649,-2047 690.2579,-1952.9949 709.2505,-1624.1621 713.5377,-1539.1729"/>
<polygon fill="#191970" stroke="#191970" points="717.0403,-1539.2054 714.0364,-1529.0453 710.0487,-1538.861 717.0403,-1539.2054"/>
</g>
<!-- Node15&#45;&gt;Node4 -->
<g id="edge24" class="edge">
<title>Node15&#45;&gt;Node4</title>
<path fill="none" stroke="#191970" d="M237.2961,-2328.3967C243.0088,-2358.4996 263.4469,-2446.7765 314,-2497 369.7871,-2552.4233 397.8619,-2567 476.5,-2567 476.5,-2567 476.5,-2567 605.5,-2567 675.5014,-2567 701.5096,-2547.6306 744,-2492 774.3703,-2452.2376 797.0811,-2298.6297 804.4463,-2243.1407"/>
<polygon fill="#191970" stroke="#191970" points="807.9282,-2243.5066 805.7476,-2233.1386 800.9867,-2242.6035 807.9282,-2243.5066"/>
</g>
<!-- Node15&#45;&gt;Node5 -->
<g id="edge25" class="edge">
<title>Node15&#45;&gt;Node5</title>
<path fill="none" stroke="#191970" d="M250.1408,-2307.696C281.2415,-2284.9938 354.062,-2227.3735 391,-2161 395.2375,-2153.3856 454.6721,-1898.0727 471.8698,-1823.9726"/>
<polygon fill="#191970" stroke="#191970" points="475.3209,-1824.5839 474.1712,-1814.0516 468.5019,-1823.002 475.3209,-1824.5839"/>
</g>
<!-- Node15&#45;&gt;Node7 -->
<g id="edge31" class="edge">
<title>Node15&#45;&gt;Node7</title>
<path fill="none" stroke="#191970" d="M237.2776,-2328.3955C242.7403,-2356.7077 262.1668,-2435.1893 314,-2467 436.9515,-2542.457 623.6332,-2499.56 690.0173,-2480.5759"/>
<polygon fill="#191970" stroke="#191970" points="691.3485,-2483.8326 699.9539,-2477.6522 689.3726,-2477.1173 691.3485,-2483.8326"/>
</g>
<!-- Node15&#45;&gt;Node8 -->
<g id="edge33" class="edge">
<title>Node15&#45;&gt;Node8</title>
<path fill="none" stroke="#191970" d="M248.1966,-2307.9169C305.3687,-2261.7549 540.8187,-2063.3946 649,-1844 701.41,-1737.7112 711.8851,-1592.1665 713.9779,-1539.263"/>
<polygon fill="#191970" stroke="#191970" points="717.4792,-1539.2777 714.3164,-1529.166 710.4832,-1539.0431 717.4792,-1539.2777"/>
</g>
<!-- Node15&#45;&gt;Node9 -->
<g id="edge32" class="edge">
<title>Node15&#45;&gt;Node9</title>
<path fill="none" stroke="#191970" d="M244.9881,-2328.1235C263.9257,-2348.2056 305.3406,-2391.462 314,-2395 345.68,-2407.9436 358.9753,-2407.0657 391,-2395 586.3907,-2321.3839 649.9478,-2271.4162 744,-2085 777.5292,-2018.5435 801.5526,-1473.0494 806.1858,-1360.3321"/>
<polygon fill="#191970" stroke="#191970" points="809.6954,-1360.1655 806.6044,-1350.0316 802.7012,-1359.8812 809.6954,-1360.1655"/>
</g>
<!-- Node16 -->
<g id="node16" class="node">
<title>Node16</title>
<g id="a_node16"><a xlink:href="../../da/d2d/lukfdi_8f.html#a46954bb4ec2e8b9e55b3dd72f4b8df11" target="_top" xlink:title="lukfdi">
<polygon fill="none" stroke="#000000" points="330.5,-2060 330.5,-2080 374.5,-2080 374.5,-2060 330.5,-2060"/>
<text text-anchor="middle" x="352.5" y="-2067" font-family="FreeSans" font-size="10.00" fill="#000000">lukfdi</text>
</a>
</g>
</g>
<!-- Node15&#45;&gt;Node16 -->
<g id="edge26" class="edge">
<title>Node15&#45;&gt;Node16</title>
<path fill="none" stroke="#191970" d="M240.2314,-2307.9709C257.8698,-2270.5838 319.9815,-2138.928 343.439,-2089.2061"/>
<polygon fill="#191970" stroke="#191970" points="346.6083,-2090.6913 347.7097,-2080.1538 340.2774,-2087.7045 346.6083,-2090.6913"/>
</g>
<!-- Node17 -->
<g id="node17" class="node">
<title>Node17</title>
<g id="a_node17"><a xlink:href="../../d8/d1a/classHiMain1.html#a676ccaef5fa9c10e945e6d1477aeb366" target="_top" xlink:title="HiMain1::np">
<polygon fill="none" stroke="#ff0000" points="314,-1792 314,-1812 391,-1812 391,-1792 314,-1792"/>
<text text-anchor="middle" x="352.5" y="-1799" font-family="FreeSans" font-size="10.00" fill="#000000">HiMain1::np</text>
</a>
</g>
</g>
<!-- Node15&#45;&gt;Node17 -->
<g id="edge30" class="edge">
<title>Node15&#45;&gt;Node17</title>
<path fill="none" stroke="#191970" d="M237.8371,-2307.6927C252.1845,-2244.4171 328.367,-1908.4328 347.9222,-1822.1892"/>
<polygon fill="#191970" stroke="#191970" points="351.3593,-1822.8583 350.1573,-1812.3318 344.5326,-1821.3103 351.3593,-1822.8583"/>
</g>
<!-- Node16&#45;&gt;Node4 -->
<g id="edge27" class="edge">
<title>Node16&#45;&gt;Node4</title>
<path fill="none" stroke="#191970" d="M367.9827,-2080.0968C412.7802,-2109.2307 540.6971,-2191.8271 562,-2199 632.5647,-2222.7597 720.5521,-2225.2958 769.5683,-2224.4914"/>
<polygon fill="#191970" stroke="#191970" points="769.7861,-2227.9876 779.7063,-2224.2674 769.6314,-2220.9893 769.7861,-2227.9876"/>
</g>
<!-- Node16&#45;&gt;Node5 -->
<g id="edge28" class="edge">
<title>Node16&#45;&gt;Node5</title>
<path fill="none" stroke="#191970" d="M359.7417,-2059.6789C368.0609,-2047.5018 381.7513,-2026.4473 391,-2007 411.647,-1963.5856 408.3901,-1949.3259 427,-1905 439.222,-1875.889 455.7508,-1843.2619 466.2709,-1823.1721"/>
<polygon fill="#191970" stroke="#191970" points="469.4654,-1824.618 471.0388,-1814.1406 463.275,-1821.3499 469.4654,-1824.618"/>
</g>
<!-- Node16&#45;&gt;Node9 -->
<g id="edge29" class="edge">
<title>Node16&#45;&gt;Node9</title>
<path fill="none" stroke="#191970" d="M374.8379,-2074.7154C442.1137,-2087.47 644.292,-2114.949 744,-2009 789.609,-1960.5362 803.9646,-1466.9453 806.5457,-1360.2599"/>
<polygon fill="#191970" stroke="#191970" points="810.0466,-1360.2585 806.7819,-1350.1793 803.0485,-1360.0945 810.0466,-1360.2585"/>
</g>
<!-- Node18&#45;&gt;Node4 -->
<g id="edge36" class="edge">
<title>Node18&#45;&gt;Node4</title>
<path fill="none" stroke="#191970" d="M237.3939,-2099.0996C246.9813,-2149.7459 290.6222,-2374.4519 314,-2395 368.6555,-2443.04 403.7328,-2415 476.5,-2415 476.5,-2415 476.5,-2415 605.5,-2415 629.613,-2415 716.3084,-2372.9085 744,-2345 773.5138,-2315.2551 792.1999,-2268.8378 801.0127,-2242.6683"/>
<polygon fill="#191970" stroke="#191970" points="804.3597,-2243.6928 804.0955,-2233.1013 797.6971,-2241.5458 804.3597,-2243.6928"/>
</g>
<!-- Node18&#45;&gt;Node5 -->
<g id="edge37" class="edge">
<title>Node18&#45;&gt;Node5</title>
<path fill="none" stroke="#191970" d="M253.389,-2078.8086C284.6184,-2060.3001 349.6868,-2018.4672 391,-1969 401.2477,-1956.7297 446.8788,-1864.553 466.9606,-1823.5571"/>
<polygon fill="#191970" stroke="#191970" points="470.2303,-1824.8379 471.4786,-1814.3169 463.9417,-1821.7631 470.2303,-1824.8379"/>
</g>
<!-- Node18&#45;&gt;Node8 -->
<g id="edge47" class="edge">
<title>Node18&#45;&gt;Node8</title>
<path fill="none" stroke="#191970" d="M258.5863,-2095.9711C290.8256,-2104.2531 349.9801,-2114.0307 391,-2089 420.8634,-2070.777 407.1142,-2047.7829 427,-2019 510.7123,-1897.8342 584.9378,-1905.6081 649,-1773 691.1448,-1685.7608 646.6697,-1646.9812 685,-1558 688.2328,-1550.4954 693.2047,-1543.1209 698.1511,-1536.8396"/>
<polygon fill="#191970" stroke="#191970" points="700.9525,-1538.9465 704.7145,-1529.0421 695.5971,-1534.4387 700.9525,-1538.9465"/>
</g>
<!-- Node18&#45;&gt;Node9 -->
<g id="edge45" class="edge">
<title>Node18&#45;&gt;Node9</title>
<path fill="none" stroke="#191970" d="M258.5718,-2096.858C342.8555,-2123.9616 634.8588,-2203.4254 744,-2044 783.6276,-1986.115 802.7274,-1469.9411 806.3541,-1360.3815"/>
<polygon fill="#191970" stroke="#191970" points="809.8625,-1360.1751 806.6891,-1350.0667 802.8662,-1359.9478 809.8625,-1360.1751"/>
</g>
<!-- Node18&#45;&gt;Node12 -->
<g id="edge46" class="edge">
<title>Node18&#45;&gt;Node12</title>
<path fill="none" stroke="#191970" d="M242.1869,-2078.79C269.5208,-2036.8699 372.2,-1877.5312 391,-1821 434.4916,-1690.2214 407.3595,-1649.4141 427,-1513 441.5762,-1411.7607 463.7657,-1291.4049 472.6375,-1244.3107"/>
<polygon fill="#191970" stroke="#191970" points="476.1289,-1244.6838 474.5486,-1234.2075 469.2509,-1243.3827 476.1289,-1244.6838"/>
</g>
<!-- Node18&#45;&gt;Node16 -->
<g id="edge38" class="edge">
<title>Node18&#45;&gt;Node16</title>
<path fill="none" stroke="#191970" d="M258.6154,-2085.2462C276.2281,-2082.386 300.6952,-2078.4127 320.2362,-2075.2394"/>
<polygon fill="#191970" stroke="#191970" points="320.9168,-2078.6748 330.2264,-2073.6171 319.7947,-2071.7653 320.9168,-2078.6748"/>
</g>
<!-- Node19 -->
<g id="node19" class="node">
<title>Node19</title>
<g id="a_node19"><a xlink:href="../../d7/d1a/luptdi_8f.html#adec49ca8d72a0d30c298eb014457d5fd" target="_top" xlink:title="luptdi">
<polygon fill="none" stroke="#000000" points="330,-1753 330,-1773 375,-1773 375,-1753 330,-1753"/>
<text text-anchor="middle" x="352.5" y="-1760" font-family="FreeSans" font-size="10.00" fill="#000000">luptdi</text>
</a>
</g>
</g>
<!-- Node18&#45;&gt;Node19 -->
<g id="edge39" class="edge">
<title>Node18&#45;&gt;Node19</title>
<path fill="none" stroke="#191970" d="M238.5341,-2078.6508C245.7196,-2054.0221 264.2067,-1989.9526 278,-1936 295.41,-1867.9006 270.296,-1837.0509 314,-1782 315.9117,-1779.5919 318.207,-1777.4666 320.7125,-1775.5954"/>
<polygon fill="#191970" stroke="#191970" points="323.0009,-1778.3052 329.7895,-1770.171 319.41,-1772.2964 323.0009,-1778.3052"/>
</g>
<!-- Node19&#45;&gt;Node9 -->
<g id="edge44" class="edge">
<title>Node19&#45;&gt;Node9</title>
<path fill="none" stroke="#191970" d="M375.3617,-1772.4471C380.7347,-1775.1543 386.2687,-1778.3707 391,-1782 410.2409,-1796.7593 404.9088,-1812.9987 427,-1823 467.0835,-1841.147 486.5524,-1842.4907 526,-1823 717.4954,-1728.3837 787.451,-1439.2509 803.2812,-1360.1738"/>
<polygon fill="#191970" stroke="#191970" points="806.771,-1360.5614 805.2321,-1350.079 799.8981,-1359.2332 806.771,-1360.5614"/>
</g>
<!-- Node19&#45;&gt;Node20 -->
<g id="edge40" class="edge">
<title>Node19&#45;&gt;Node20</title>
<path fill="none" stroke="#191970" d="M354.8535,-1752.9724C361.8223,-1722.7962 382.4007,-1630.0975 391,-1552 436.0782,-1142.6078 397.595,-1036.8154 427,-626 439.5939,-450.0509 465.543,-238.413 473.8678,-172.5636"/>
<polygon fill="#191970" stroke="#191970" points="477.3811,-172.68 475.17,-162.3184 470.4369,-171.7973 477.3811,-172.68"/>
</g>
<!-- Node21 -->
<g id="node21" class="node">
<title>Node21</title>
<g id="a_node21"><a xlink:href="../../db/dc0/classHiStrng.html#ae9b634a387f81c6ae391eb695acce897" target="_top" xlink:title="HiStrng::init">
<polygon fill="none" stroke="#ff0000" points="567,-103 567,-123 644,-123 644,-103 567,-103"/>
<text text-anchor="middle" x="605.5" y="-110" font-family="FreeSans" font-size="10.00" fill="#000000">HiStrng::init</text>
</a>
</g>
</g>
<!-- Node20&#45;&gt;Node21 -->
<g id="edge41" class="edge">
<title>Node20&#45;&gt;Node21</title>
<path fill="none" stroke="#191970" d="M509.7207,-141.9565C525.821,-137.089 545.3522,-131.1842 562.5671,-125.9797"/>
<polygon fill="#191970" stroke="#191970" points="563.8326,-129.2536 572.3919,-123.0094 561.8069,-122.5532 563.8326,-129.2536"/>
</g>
<!-- Node22 -->
<g id="node22" class="node">
<title>Node22</title>
<g id="a_node22"><a xlink:href="../../db/dc0/classHiStrng.html#a38019be113af95d58e24f9b442003a42" target="_top" xlink:title="HiStrng::lenI">
<polygon fill="none" stroke="#000000" points="566,-64 566,-84 645,-84 645,-64 566,-64"/>
<text text-anchor="middle" x="605.5" y="-71" font-family="FreeSans" font-size="10.00" fill="#000000">HiStrng::lenI</text>
</a>
</g>
</g>
<!-- Node20&#45;&gt;Node22 -->
<g id="edge42" class="edge">
<title>Node20&#45;&gt;Node22</title>
<path fill="none" stroke="#191970" d="M507.427,-141.9597C513.8408,-139.2154 520.3573,-135.8992 526,-132 545.4063,-118.5896 542.7821,-106.679 562,-93 564.1149,-91.4947 566.3679,-90.0721 568.6931,-88.7347"/>
<polygon fill="#191970" stroke="#191970" points="570.5912,-91.6942 577.8791,-84.004 567.3862,-85.4709 570.5912,-91.6942"/>
</g>
<!-- Node23 -->
<g id="node23" class="node">
<title>Node23</title>
<g id="a_node23"><a xlink:href="../../db/dc0/classHiStrng.html#ab8cb049ff2a23c6a47aa48163d605c06" target="_top" xlink:title="HiStrng::lenJ">
<polygon fill="none" stroke="#000000" points="566,-142 566,-162 645,-162 645,-142 566,-142"/>
<text text-anchor="middle" x="605.5" y="-149" font-family="FreeSans" font-size="10.00" fill="#000000">HiStrng::lenJ</text>
</a>
</g>
</g>
<!-- Node20&#45;&gt;Node23 -->
<g id="edge43" class="edge">
<title>Node20&#45;&gt;Node23</title>
<path fill="none" stroke="#191970" d="M512.0913,-152C525.5337,-152 541.0884,-152 555.602,-152"/>
<polygon fill="#191970" stroke="#191970" points="555.9411,-155.5001 565.941,-152 555.941,-148.5001 555.9411,-155.5001"/>
</g>
<!-- Node24&#45;&gt;Node4 -->
<g id="edge51" class="edge">
<title>Node24&#45;&gt;Node4</title>
<path fill="none" stroke="#191970" d="M260.1094,-1646.2304C291.7924,-1644.9278 347.8946,-1645.9727 391,-1665 464.1712,-1697.2988 482.6099,-1716.8097 526,-1784 555.5149,-1829.7042 538.5738,-1851.8959 562,-1901 604.1961,-1989.448 625.221,-2006.3468 685,-2084 720.1706,-2129.6868 766.0264,-2179.6701 790.2734,-2205.4443"/>
<polygon fill="#191970" stroke="#191970" points="787.9326,-2208.0631 797.3456,-2212.9258 793.0195,-2203.2544 787.9326,-2208.0631"/>
</g>
<!-- Node24&#45;&gt;Node5 -->
<g id="edge52" class="edge">
<title>Node24&#45;&gt;Node5</title>
<path fill="none" stroke="#191970" d="M260.1618,-1652.2757C293.4416,-1659.1718 352.9346,-1675.6143 391,-1710 416.6677,-1733.1865 402.3804,-1754.7035 427,-1779 431.5869,-1783.5267 437.1594,-1787.3954 442.8884,-1790.6408"/>
<polygon fill="#191970" stroke="#191970" points="441.4017,-1793.8114 451.9008,-1795.2324 444.5794,-1787.5742 441.4017,-1793.8114"/>
</g>
<!-- Node24&#45;&gt;Node8 -->
<g id="edge56" class="edge">
<title>Node24&#45;&gt;Node8</title>
<path fill="none" stroke="#191970" d="M260.3239,-1643.1385C320.9685,-1631.1917 475.3879,-1600.3288 526,-1586 580.7579,-1570.4975 642.6442,-1547.3913 680.1001,-1532.7663"/>
<polygon fill="#191970" stroke="#191970" points="681.5059,-1535.9745 689.5336,-1529.0602 678.9463,-1529.4592 681.5059,-1535.9745"/>
</g>
<!-- Node24&#45;&gt;Node9 -->
<g id="edge55" class="edge">
<title>Node24&#45;&gt;Node9</title>
<path fill="none" stroke="#191970" d="M256.8675,-1637.8878C272.4909,-1630.7059 294.3043,-1621.1142 314,-1614 406.3303,-1580.6496 437.8549,-1595.2154 526,-1552 633.4422,-1499.3237 650.0511,-1468.1096 744,-1394 759.0708,-1382.1117 775.5212,-1367.9692 787.8318,-1357.14"/>
<polygon fill="#191970" stroke="#191970" points="790.4578,-1359.4898 795.6254,-1350.2406 785.8178,-1354.2485 790.4578,-1359.4898"/>
</g>
<!-- Node24&#45;&gt;Node16 -->
<g id="edge53" class="edge">
<title>Node24&#45;&gt;Node16</title>
<path fill="none" stroke="#191970" d="M238.2768,-1658.0153C253.4178,-1712.6267 326.0965,-1974.7669 346.9158,-2049.8588"/>
<polygon fill="#191970" stroke="#191970" points="343.6527,-2051.1897 349.6973,-2059.8911 350.3983,-2049.3195 343.6527,-2051.1897"/>
</g>
<!-- Node24&#45;&gt;Node17 -->
<g id="edge54" class="edge">
<title>Node24&#45;&gt;Node17</title>
<path fill="none" stroke="#191970" d="M239.0995,-1658.0039C248.2123,-1682.1282 274.3274,-1744.2939 314,-1782 315.6413,-1783.5599 317.428,-1785.0293 319.3034,-1786.4079"/>
<polygon fill="#191970" stroke="#191970" points="317.5974,-1789.4704 327.917,-1791.8696 321.346,-1783.5587 317.5974,-1789.4704"/>
</g>
<!-- Node25 -->
<g id="node25" class="node">
<title>Node25</title>
<g id="a_node25"><a xlink:href="../../de/de0/matchedfilter_8C.html#ad37474ba23a5f0af2c619aeeaad07526" target="_top" xlink:title="go">
<polygon fill="none" stroke="#ff0000" points="338,-1445 338,-1465 367,-1465 367,-1445 338,-1445"/>
<text text-anchor="middle" x="352.5" y="-1452" font-family="FreeSans" font-size="10.00" fill="#000000">go</text>
</a>
</g>
</g>
<!-- Node24&#45;&gt;Node25 -->
<g id="edge50" class="edge">
<title>Node24&#45;&gt;Node25</title>
<path fill="none" stroke="#191970" d="M241.2046,-1637.7162C253.8775,-1614.9779 285.5081,-1558.8158 314,-1513 322.2773,-1499.6899 332.0486,-1484.9805 339.676,-1473.7054"/>
<polygon fill="#191970" stroke="#191970" points="342.7667,-1475.3847 345.4989,-1465.1482 336.9795,-1471.4467 342.7667,-1475.3847"/>
</g>
<!-- Node26&#45;&gt;Node5 -->
<g id="edge59" class="edge">
<title>Node26&#45;&gt;Node5</title>
<path fill="none" stroke="#191970" d="M355.9499,-1194.3098C363.3102,-1216.6296 380.7183,-1271.1899 391,-1318 413.5739,-1420.7736 408.8555,-1448.3526 427,-1552 442.1739,-1638.6783 463.3722,-1741.4871 472.287,-1784.0363"/>
<polygon fill="#191970" stroke="#191970" points="468.8875,-1784.8787 474.3696,-1793.945 475.7379,-1783.4388 468.8875,-1784.8787"/>
</g>
<!-- Node26&#45;&gt;Node7 -->
<g id="edge60" class="edge">
<title>Node26&#45;&gt;Node7</title>
<path fill="none" stroke="#191970" d="M359.1959,-1194.0067C384.9844,-1233.0186 478.7865,-1379.355 526,-1513 654.294,-1876.1559 703.2061,-2349.1853 712.7055,-2452.5028"/>
<polygon fill="#191970" stroke="#191970" points="709.2475,-2453.1277 713.6305,-2462.7734 716.2193,-2452.4997 709.2475,-2453.1277"/>
</g>
<!-- Node26&#45;&gt;Node8 -->
<g id="edge64" class="edge">
<title>Node26&#45;&gt;Node8</title>
<path fill="none" stroke="#191970" d="M378.5733,-1180.1105C436.6908,-1173.0713 577.3657,-1165.3639 649,-1242 684.3582,-1279.827 705.72,-1441.3443 712.3065,-1498.697"/>
<polygon fill="#191970" stroke="#191970" points="708.868,-1499.4436 713.4571,-1508.993 715.8247,-1498.6661 708.868,-1499.4436"/>
</g>
<!-- Node26&#45;&gt;Node9 -->
<g id="edge62" class="edge">
<title>Node26&#45;&gt;Node9</title>
<path fill="none" stroke="#191970" d="M361.3485,-1173.7668C374.1663,-1159.8147 399.4045,-1135.4754 427,-1126 468.6151,-1111.7107 483.2266,-1115.6831 526,-1126 648.6451,-1155.5818 755.6522,-1275.8359 792.9418,-1321.914"/>
<polygon fill="#191970" stroke="#191970" points="790.2995,-1324.2144 799.2684,-1329.8546 795.7743,-1319.8524 790.2995,-1324.2144"/>
</g>
<!-- Node26&#45;&gt;Node12 -->
<g id="edge63" class="edge">
<title>Node26&#45;&gt;Node12</title>
<path fill="none" stroke="#191970" d="M378.7972,-1192.483C397.5288,-1198.5254 422.856,-1206.6955 443.0296,-1213.2031"/>
<polygon fill="#191970" stroke="#191970" points="442.165,-1216.6017 452.7566,-1216.3408 444.314,-1209.9398 442.165,-1216.6017"/>
</g>
<!-- Node26&#45;&gt;Node20 -->
<g id="edge61" class="edge">
<title>Node26&#45;&gt;Node20</title>
<path fill="none" stroke="#191970" d="M353.7273,-1173.7859C365.4587,-1076.15 457.6971,-308.4889 474.0317,-172.5423"/>
<polygon fill="#191970" stroke="#191970" points="477.5446,-172.6438 475.2627,-162.2976 470.5946,-171.8086 477.5446,-172.6438"/>
</g>
<!-- Node27 -->
<g id="node27" class="node">
<title>Node27</title>
<g id="a_node27"><a xlink:href="../../db/d30/TPCRateData_8m.html#a2ae3b94a32881ed5840bebb9dd7954d2" target="_top" xlink:title="if">
<polygon fill="none" stroke="#000000" points="462,-1136 462,-1156 491,-1156 491,-1136 462,-1136"/>
<text text-anchor="middle" x="476.5" y="-1143" font-family="FreeSans" font-size="10.00" fill="#000000">if</text>
</a>
</g>
</g>
<!-- Node26&#45;&gt;Node27 -->
<g id="edge58" class="edge">
<title>Node26&#45;&gt;Node27</title>
<path fill="none" stroke="#191970" d="M378.7972,-1175.9412C400.448,-1169.3062 430.9103,-1159.971 452.0414,-1153.4954"/>
<polygon fill="#191970" stroke="#191970" points="453.3296,-1156.7614 461.8652,-1150.4849 451.2785,-1150.0686 453.3296,-1156.7614"/>
</g>
<!-- Node28&#45;&gt;Node4 -->
<g id="edge66" class="edge">
<title>Node28&#45;&gt;Node4</title>
<path fill="none" stroke="#191970" d="M238.0698,-1927.3958C245.557,-1955.9786 269.6782,-2037.068 314,-2089 353.1307,-2134.8495 374.0723,-2135.1549 427,-2164 484.4956,-2195.3346 498.835,-2205.7437 562,-2223 615.1248,-2237.5134 630.0297,-2234.6605 685,-2238 711.174,-2239.5901 717.9567,-2241.0577 744,-2238 752.4944,-2237.0027 761.5034,-2235.2736 769.9711,-2233.3357"/>
<polygon fill="#191970" stroke="#191970" points="771.0722,-2236.6699 779.9603,-2230.9035 769.4162,-2229.8686 771.0722,-2236.6699"/>
</g>
<!-- Node28&#45;&gt;Node5 -->
<g id="edge67" class="edge">
<title>Node28&#45;&gt;Node5</title>
<path fill="none" stroke="#191970" d="M248.8236,-1906.8136C263.9995,-1895.5412 289.8315,-1877.3402 314,-1865 356.4419,-1843.3297 408.4577,-1825.1549 442.0234,-1814.4264"/>
<polygon fill="#191970" stroke="#191970" points="443.3312,-1817.6841 451.817,-1811.3404 441.2274,-1811.0077 443.3312,-1817.6841"/>
</g>
<!-- Node28&#45;&gt;Node8 -->
<g id="edge73" class="edge">
<title>Node28&#45;&gt;Node8</title>
<path fill="none" stroke="#191970" d="M257.2901,-1918.8567C309.8174,-1922.1216 445.0547,-1923.1581 526,-1857 635.477,-1767.5224 692.3422,-1596.7567 709.1159,-1538.8058"/>
<polygon fill="#191970" stroke="#191970" points="712.519,-1539.6334 711.8629,-1529.0589 705.7814,-1537.7345 712.519,-1539.6334"/>
</g>
<!-- Node28&#45;&gt;Node9 -->
<g id="edge71" class="edge">
<title>Node28&#45;&gt;Node9</title>
<path fill="none" stroke="#191970" d="M257.0669,-1923.716C287.5011,-1932.1281 344.5246,-1943.9584 391,-1931 520.075,-1895.011 552.9867,-1868.472 649,-1775 772.8126,-1654.4645 800.1061,-1429.4571 805.6694,-1360.5703"/>
<polygon fill="#191970" stroke="#191970" points="809.1867,-1360.4629 806.4312,-1350.2327 802.2056,-1359.9484 809.1867,-1360.4629"/>
</g>
<!-- Node28&#45;&gt;Node11 -->
<g id="edge72" class="edge">
<title>Node28&#45;&gt;Node11</title>
<path fill="none" stroke="#191970" d="M257.2087,-1911.4617C321.6833,-1894.8126 508.6467,-1845.0102 526,-1823 590.0315,-1741.7851 536.4634,-1459.2187 562,-1359 569.2569,-1330.5201 584.3173,-1299.9389 594.665,-1280.8904"/>
<polygon fill="#191970" stroke="#191970" points="597.7784,-1282.4933 599.5803,-1272.0528 591.6609,-1279.0908 597.7784,-1282.4933"/>
</g>
<!-- Node28&#45;&gt;Node16 -->
<g id="edge68" class="edge">
<title>Node28&#45;&gt;Node16</title>
<path fill="none" stroke="#191970" d="M239.902,-1927.3352C250.1677,-1950.5393 277.6121,-2007.6614 314,-2045 317.2157,-2048.2997 320.9424,-2051.384 324.7854,-2054.182"/>
<polygon fill="#191970" stroke="#191970" points="322.9709,-2057.1789 333.2307,-2059.8221 326.8586,-2051.3577 322.9709,-2057.1789"/>
</g>
<!-- Node28&#45;&gt;Node17 -->
<g id="edge70" class="edge">
<title>Node28&#45;&gt;Node17</title>
<path fill="none" stroke="#191970" d="M242.9422,-1906.7308C256.0246,-1889.1096 284.5604,-1852.5473 314,-1827 317.7168,-1823.7746 321.8806,-1820.6506 326.0595,-1817.7668"/>
<polygon fill="#191970" stroke="#191970" points="328.0697,-1820.6341 334.52,-1812.2291 324.2361,-1814.7772 328.0697,-1820.6341"/>
</g>
<!-- Node28&#45;&gt;Node19 -->
<g id="edge69" class="edge">
<title>Node28&#45;&gt;Node19</title>
<path fill="none" stroke="#191970" d="M239.0288,-1906.8674C247.9847,-1882.4428 273.7778,-1819.5666 314,-1782 316.1449,-1779.9967 318.5407,-1778.1602 321.0597,-1776.4866"/>
<polygon fill="#191970" stroke="#191970" points="322.9729,-1779.4243 329.9118,-1771.418 319.4946,-1773.3496 322.9729,-1779.4243"/>
</g>
<!-- Node29&#45;&gt;Node8 -->
<g id="edge83" class="edge">
<title>Node29&#45;&gt;Node8</title>
<path fill="none" stroke="#191970" d="M152.6366,-1016.4432C250.722,-1022.1581 579.9464,-1046.5915 649,-1120 662.2372,-1134.072 701.1542,-1419.0711 711.7881,-1498.5688"/>
<polygon fill="#191970" stroke="#191970" points="708.3546,-1499.3003 713.1454,-1508.7501 715.2932,-1498.3753 708.3546,-1499.3003"/>
</g>
<!-- Node29&#45;&gt;Node9 -->
<g id="edge82" class="edge">
<title>Node29&#45;&gt;Node9</title>
<path fill="none" stroke="#191970" d="M152.7338,-1011.5718C234.0372,-1002.818 476.888,-986.0104 649,-1072 697.8706,-1096.4164 713.074,-1104.9659 744,-1150 781.4402,-1204.52 798.031,-1282.9834 804.0801,-1319.6599"/>
<polygon fill="#191970" stroke="#191970" points="800.6351,-1320.2847 805.6304,-1329.628 807.5519,-1319.2089 800.6351,-1320.2847"/>
</g>
<!-- Node30 -->
<g id="node30" class="node">
<title>Node30</title>
<g id="a_node30"><a xlink:href="../../de/d50/pyhispli_8f.html#ab5848e46f1f9648fd094c79cb72130de" target="_top" xlink:title="pyhispli">
<polygon fill="none" stroke="#000000" points="208,-910 208,-930 263,-930 263,-910 208,-910"/>
<text text-anchor="middle" x="235.5" y="-917" font-family="FreeSans" font-size="10.00" fill="#000000">pyhispli</text>
</a>
</g>
</g>
<!-- Node29&#45;&gt;Node30 -->
<g id="edge79" class="edge">
<title>Node29&#45;&gt;Node30</title>
<path fill="none" stroke="#191970" d="M136.8254,-1004.8333C155.7674,-988.5484 193.1053,-956.4479 216.0275,-936.741"/>
<polygon fill="#191970" stroke="#191970" points="218.4584,-939.2668 223.7596,-930.0936 213.895,-933.9588 218.4584,-939.2668"/>
</g>
<!-- Node30&#45;&gt;Node9 -->
<g id="edge81" class="edge">
<title>Node30&#45;&gt;Node9</title>
<path fill="none" stroke="#191970" d="M245.5239,-909.825C259.4398,-896.5029 286.0692,-873.811 314,-865 405.484,-836.1407 677.1731,-834.1789 744,-903 773.5163,-933.3971 799.0414,-1237.2606 805.4524,-1319.5445"/>
<polygon fill="#191970" stroke="#191970" points="801.9717,-1319.931 806.2286,-1329.6331 808.951,-1319.394 801.9717,-1319.931"/>
</g>
<!-- Node30&#45;&gt;Node16 -->
<g id="edge80" class="edge">
<title>Node30&#45;&gt;Node16</title>
<path fill="none" stroke="#191970" d="M238.7975,-930.3311C247.0969,-956.8474 268.8394,-1029.6126 278,-1092 325.1267,-1412.9534 281.1714,-1498.2706 314,-1821 322.6962,-1906.4896 340.7167,-2007.3991 348.6305,-2049.7227"/>
<polygon fill="#191970" stroke="#191970" points="345.2031,-2050.4348 350.4961,-2059.6127 352.0818,-2049.1372 345.2031,-2050.4348"/>
</g>
<!-- Node32 -->
<g id="node32" class="node">
<title>Node32</title>
<g id="a_node32"><a xlink:href="../../df/d3f/lurobo_8f.html#acd0c9860f321d2221dd01a05b17a6bac" target="_top" xlink:title="lurobo">
<polygon fill="none" stroke="#000000" points="328.5,-1523 328.5,-1543 376.5,-1543 376.5,-1523 328.5,-1523"/>
<text text-anchor="middle" x="352.5" y="-1530" font-family="FreeSans" font-size="10.00" fill="#000000">lurobo</text>
</a>
</g>
</g>
<!-- Node31&#45;&gt;Node32 -->
<g id="edge85" class="edge">
<title>Node31&#45;&gt;Node32</title>
<path fill="none" stroke="#191970" d="M151.9906,-1458.0844C193.6592,-1473.6529 273.5688,-1503.5092 318.9138,-1520.4513"/>
<polygon fill="#191970" stroke="#191970" points="317.7159,-1523.74 328.3084,-1523.9614 320.1659,-1517.1827 317.7159,-1523.74"/>
</g>
<!-- Node32&#45;&gt;Node5 -->
<g id="edge86" class="edge">
<title>Node32&#45;&gt;Node5</title>
<path fill="none" stroke="#191970" d="M354.8596,-1543.0142C362.3858,-1573.891 387.6611,-1669.8307 427,-1741 436.0758,-1757.4194 449.3284,-1774.0248 459.8374,-1786.0626"/>
<polygon fill="#191970" stroke="#191970" points="457.3129,-1788.4901 466.5895,-1793.6083 462.5294,-1783.8223 457.3129,-1788.4901"/>
</g>
<!-- Node33&#45;&gt;Node4 -->
<g id="edge89" class="edge">
<title>Node33&#45;&gt;Node4</title>
<path fill="none" stroke="#191970" d="M383.5445,-655.0116C427.3112,-665.3906 504.2517,-685.6019 526,-704 616.603,-780.6463 611.255,-828.4883 649,-941 729.0128,-1179.5051 711.958,-1249.4804 744,-1499 779.6442,-1776.5704 800.8159,-2116.6538 805.836,-2202.5549"/>
<polygon fill="#191970" stroke="#191970" points="802.3545,-2202.9771 806.4257,-2212.7584 809.3428,-2202.5731 802.3545,-2202.9771"/>
</g>
<!-- Node33&#45;&gt;Node5 -->
<g id="edge90" class="edge">
<title>Node33&#45;&gt;Node5</title>
<path fill="none" stroke="#191970" d="M353.2706,-658.197C360.3458,-751.6984 414.0478,-1458.8035 427,-1552 439.1131,-1639.1588 461.97,-1741.7072 471.8053,-1784.1119"/>
<polygon fill="#191970" stroke="#191970" points="468.4288,-1785.0443 474.1131,-1793.9852 475.2451,-1783.4511 468.4288,-1785.0443"/>
</g>
<!-- Node33&#45;&gt;Node9 -->
<g id="edge97" class="edge">
<title>Node33&#45;&gt;Node9</title>
<path fill="none" stroke="#191970" d="M377.8845,-637.9576C412.3013,-625.86 475.2915,-609.1386 526,-626 640.7978,-664.1722 683.7516,-684.0915 744,-789 797.516,-882.1856 805.6041,-1231.7782 806.798,-1319.7898"/>
<polygon fill="#191970" stroke="#191970" points="803.2984,-1319.8546 806.9185,-1329.8118 810.2979,-1319.7704 803.2984,-1319.8546"/>
</g>
<!-- Node33&#45;&gt;Node20 -->
<g id="edge91" class="edge">
<title>Node33&#45;&gt;Node20</title>
<path fill="none" stroke="#191970" d="M355.0899,-637.6403C370.5339,-575.8643 450.5163,-255.9349 471.4701,-172.1195"/>
<polygon fill="#191970" stroke="#191970" points="474.8944,-172.853 473.9243,-162.3027 468.1034,-171.1552 474.8944,-172.853"/>
</g>
<!-- Node34 -->
<g id="node34" class="node">
<title>Node34</title>
<g id="a_node34"><a xlink:href="../../dc/d41/classConversion.html#a111fc409d2f8a01edddfe660f9eabfb2" target="_top" xlink:title="Conversion::dist">
<polygon fill="none" stroke="#ff0000" points="427,-636 427,-656 526,-656 526,-636 427,-636"/>
<text text-anchor="middle" x="476.5" y="-643" font-family="FreeSans" font-size="10.00" fill="#000000">Conversion::dist</text>
</a>
</g>
</g>
<!-- Node33&#45;&gt;Node34 -->
<g id="edge88" class="edge">
<title>Node33&#45;&gt;Node34</title>
<path fill="none" stroke="#191970" d="M383.7904,-647.4953C393.7878,-647.3341 405.2104,-647.1498 416.5419,-646.9671"/>
<polygon fill="#191970" stroke="#191970" points="416.9371,-650.4612 426.8793,-646.8003 416.8241,-643.4622 416.9371,-650.4612"/>
</g>
<!-- Node35 -->
<g id="node35" class="node">
<title>Node35</title>
<g id="a_node35"><a xlink:href="../../de/d63/pyhiklim_8f.html#adb056b95029e510447724de4b9b6558f" target="_top" xlink:title="pyhiklim">
<polygon fill="none" stroke="#000000" points="447,-792 447,-812 506,-812 506,-792 447,-792"/>
<text text-anchor="middle" x="476.5" y="-799" font-family="FreeSans" font-size="10.00" fill="#000000">pyhiklim</text>
</a>
</g>
</g>
<!-- Node33&#45;&gt;Node35 -->
<g id="edge92" class="edge">
<title>Node33&#45;&gt;Node35</title>
<path fill="none" stroke="#191970" d="M355.5508,-658.2517C363.3885,-682.9264 386.5086,-746.2216 427,-782 430.2037,-784.8308 433.8599,-787.2908 437.7015,-789.4217"/>
<polygon fill="#191970" stroke="#191970" points="436.3453,-792.6529 446.8761,-793.8162 439.3692,-786.3397 436.3453,-792.6529"/>
</g>
<!-- Node36 -->
<g id="node36" class="node">
<title>Node36</title>
<g id="a_node36"><a xlink:href="../../da/d3b/pyhikmap_8f.html#a7d05e806aba8a0c6e886bce95e6a4010" target="_top" xlink:title="pyhikmap">
<polygon fill="none" stroke="#000000" points="443.5,-714 443.5,-734 509.5,-734 509.5,-714 443.5,-714"/>
<text text-anchor="middle" x="476.5" y="-721" font-family="FreeSans" font-size="10.00" fill="#000000">pyhikmap</text>
</a>
</g>
</g>
<!-- Node33&#45;&gt;Node36 -->
<g id="edge94" class="edge">
<title>Node33&#45;&gt;Node36</title>
<path fill="none" stroke="#191970" d="M367.0267,-658.0973C386.9443,-671.9181 420.9622,-695.43 427,-699 433.0135,-702.5557 439.5949,-706.1042 445.9391,-709.364"/>
<polygon fill="#191970" stroke="#191970" points="444.4637,-712.5395 454.9707,-713.9005 447.6057,-706.2843 444.4637,-712.5395"/>
</g>
<!-- Node37 -->
<g id="node37" class="node">
<title>Node37</title>
<g id="a_node37"><a xlink:href="../../dd/dac/pyhisigh_8f.html#a17fc65c11bbc2a0a571b606acff9f09f" target="_top" xlink:title="pyhisigh">
<polygon fill="none" stroke="#ff0000" points="447,-753 447,-773 506,-773 506,-753 447,-753"/>
<text text-anchor="middle" x="476.5" y="-760" font-family="FreeSans" font-size="10.00" fill="#000000">pyhisigh</text>
</a>
</g>
</g>
<!-- Node33&#45;&gt;Node37 -->
<g id="edge95" class="edge">
<title>Node33&#45;&gt;Node37</title>
<path fill="none" stroke="#191970" d="M357.9413,-658.0106C368.7444,-677.0365 394.6715,-718.6843 427,-743 430.2407,-745.4375 433.8195,-747.626 437.5261,-749.5794"/>
<polygon fill="#191970" stroke="#191970" points="436.3426,-752.8898 446.8834,-753.9587 439.3099,-746.5498 436.3426,-752.8898"/>
</g>
<!-- Node35&#45;&gt;Node11 -->
<g id="edge93" class="edge">
<title>Node35&#45;&gt;Node11</title>
<path fill="none" stroke="#191970" d="M480.4493,-812.0017C489.3256,-834.6984 511.2298,-891.9423 526,-941 559.8536,-1053.4415 590.3591,-1191.1139 601.2569,-1241.9269"/>
<polygon fill="#191970" stroke="#191970" points="597.8784,-1242.8661 603.386,-1251.9169 604.7246,-1241.407 597.8784,-1242.8661"/>
</g>
<!-- Node37&#45;&gt;Node11 -->
<g id="edge96" class="edge">
<title>Node37&#45;&gt;Node11</title>
<path fill="none" stroke="#191970" d="M506.1169,-768.7947C513.5998,-771.612 520.9381,-775.7942 526,-782 555.7632,-818.4897 593.9947,-1155.5986 603.3598,-1241.9336"/>
<polygon fill="#191970" stroke="#191970" points="599.8927,-1242.4282 604.4433,-1251.996 606.8525,-1241.6787 599.8927,-1242.4282"/>
</g>
<!-- Node38&#45;&gt;Node9 -->
<g id="edge99" class="edge">
<title>Node38&#45;&gt;Node9</title>
<path fill="none" stroke="#191970" d="M718.31,-86.1399C724.8785,-104.1351 738.188,-142.9674 744,-177 783.6905,-409.4103 803.3481,-1183.484 806.5344,-1319.5039"/>
<polygon fill="#191970" stroke="#191970" points="803.0408,-1319.8255 806.7712,-1329.7419 810.039,-1319.6636 803.0408,-1319.8255"/>
</g>
<!-- Node39&#45;&gt;Node8 -->
<g id="edge109" class="edge">
<title>Node39&#45;&gt;Node8</title>
<path fill="none" stroke="#191970" d="M128.0262,-832.1892C135.3073,-854.9191 155.997,-910.0405 193,-939 276.1249,-1004.0556 579.6964,-992.3823 649,-1072 656.1615,-1080.2273 700.3571,-1411.8485 711.798,-1498.4739"/>
<polygon fill="#191970" stroke="#191970" points="708.3571,-1499.1522 713.1347,-1508.6087 715.297,-1498.2369 708.3571,-1499.1522"/>
</g>
<!-- Node39&#45;&gt;Node9 -->
<g id="edge107" class="edge">
<title>Node39&#45;&gt;Node9</title>
<path fill="none" stroke="#191970" d="M126.6489,-811.6037C131.7516,-782.2376 149.6296,-697.2794 193,-643 287.3754,-524.8864 325.3129,-455 476.5,-455 476.5,-455 476.5,-455 605.5,-455 667.9729,-455 702.0542,-432.703 744,-479 773.1842,-511.2117 801.2148,-1192.2109 806.2126,-1319.5777"/>
<polygon fill="#191970" stroke="#191970" points="802.7261,-1319.9948 806.6127,-1329.851 809.7208,-1319.7224 802.7261,-1319.9948"/>
</g>
<!-- Node39&#45;&gt;Node10 -->
<g id="edge108" class="edge">
<title>Node39&#45;&gt;Node10</title>
<path fill="none" stroke="#191970" d="M155.7158,-814.5917C187.8691,-808.4775 239.0072,-803.4879 278,-822 435.5168,-896.7824 449.1759,-969.4688 526,-1126 557.1595,-1189.4883 539.553,-1213.9343 562,-1281 571.4587,-1309.26 586.0992,-1340.5005 595.7413,-1359.9416"/>
<polygon fill="#191970" stroke="#191970" points="592.6541,-1361.593 600.274,-1368.9542 598.9077,-1358.4478 592.6541,-1361.593"/>
</g>
<!-- Node39&#45;&gt;Node30 -->
<g id="edge106" class="edge">
<title>Node39&#45;&gt;Node30</title>
<path fill="none" stroke="#191970" d="M132.9922,-832.322C144.945,-847.3239 168.6853,-875.4867 193,-895 197.3396,-898.4827 202.2154,-901.8085 207.0753,-904.8326"/>
<polygon fill="#191970" stroke="#191970" points="205.2966,-907.8469 215.6868,-909.9189 208.8565,-901.8197 205.2966,-907.8469"/>
</g>
<!-- Node39&#45;&gt;Node33 -->
<g id="edge104" class="edge">
<title>Node39&#45;&gt;Node33</title>
<path fill="none" stroke="#191970" d="M126.4374,-811.7899C130.8367,-784.6432 146.7547,-710.3465 193,-675 226.6691,-649.2658 276.0601,-644.4878 310.9425,-644.9025"/>
<polygon fill="#191970" stroke="#191970" points="311.1782,-648.41 321.2688,-645.1805 311.3667,-641.4126 311.1782,-648.41"/>
</g>
<!-- Node39&#45;&gt;Node35 -->
<g id="edge102" class="edge">
<title>Node39&#45;&gt;Node35</title>
<path fill="none" stroke="#191970" d="M138.1309,-832.3364C151.1892,-841.906 172.2219,-855.4645 193,-861 229.5045,-870.7252 242.895,-874.957 278,-861 298.4508,-852.8692 294.2287,-836.6665 314,-827 352.809,-808.0256 402.5253,-802.7485 436.6886,-801.6049"/>
<polygon fill="#191970" stroke="#191970" points="436.8459,-805.1023 446.7623,-801.3722 436.6841,-798.1042 436.8459,-805.1023"/>
</g>
<!-- Node39&#45;&gt;Node36 -->
<g id="edge103" class="edge">
<title>Node39&#45;&gt;Node36</title>
<path fill="none" stroke="#191970" d="M134.5321,-811.9385C146.8072,-799.6555 169.3863,-779.2559 193,-769 272.8235,-734.331 375.6649,-726.0212 432.9764,-724.2411"/>
<polygon fill="#191970" stroke="#191970" points="433.2254,-727.736 443.1321,-723.9799 433.0453,-720.7383 433.2254,-727.736"/>
</g>
<!-- Node39&#45;&gt;Node37 -->
<g id="edge105" class="edge">
<title>Node39&#45;&gt;Node37</title>
<path fill="none" stroke="#191970" d="M141.3789,-811.9617C154.7544,-804.2883 174.4175,-794.1756 193,-789 277.5401,-765.454 381.1883,-762.0627 436.7702,-762.1952"/>
<polygon fill="#191970" stroke="#191970" points="436.8776,-765.6958 446.8999,-762.2602 436.9226,-758.696 436.8776,-765.6958"/>
</g>
<!-- Node40 -->
<g id="node40" class="node">
<title>Node40</title>
<g id="a_node40"><a xlink:href="../../dc/dad/pyhikcut_8f.html#a557edd96928ffbe047d4fb2e2484dd80" target="_top" xlink:title="pyhikcut">
<polygon fill="none" stroke="#000000" points="205.5,-832 205.5,-852 265.5,-852 265.5,-832 205.5,-832"/>
<text text-anchor="middle" x="235.5" y="-839" font-family="FreeSans" font-size="10.00" fill="#000000">pyhikcut</text>
</a>
</g>
</g>
<!-- Node39&#45;&gt;Node40 -->
<g id="edge101" class="edge">
<title>Node39&#45;&gt;Node40</title>
<path fill="none" stroke="#191970" d="M155.7804,-827.5711C167.9746,-829.7782 182.1616,-832.346 195.1589,-834.6984"/>
<polygon fill="#191970" stroke="#191970" points="194.8031,-838.1908 205.2666,-836.5279 196.0498,-831.3027 194.8031,-838.1908"/>
</g>
<!-- Node41&#45;&gt;Node4 -->
<g id="edge116" class="edge">
<title>Node41&#45;&gt;Node4</title>
<path fill="none" stroke="#191970" d="M140.4397,-374.128C153.9087,-382.6489 174.1864,-394.732 193,-403 223.2563,-416.2968 443.4508,-493 476.5,-493 476.5,-493 476.5,-493 605.5,-493 786.6282,-493 805.2171,-2008.5098 806.8552,-2202.6226"/>
<polygon fill="#191970" stroke="#191970" points="803.3569,-2202.8682 806.9356,-2212.8404 810.3567,-2202.8131 803.3569,-2202.8682"/>
</g>
<!-- Node41&#45;&gt;Node8 -->
<g id="edge131" class="edge">
<title>Node41&#45;&gt;Node8</title>
<path fill="none" stroke="#191970" d="M132.9735,-374.3454C144.9031,-389.3763 168.6147,-417.575 193,-437 241.595,-475.7102 257.695,-480.7378 314,-507 404.8483,-549.3742 457.8533,-510.4812 526,-584 656.1815,-724.4438 704.9977,-1374.3194 713.2089,-1498.4721"/>
<polygon fill="#191970" stroke="#191970" points="709.7394,-1499.0579 713.8782,-1508.8109 716.7248,-1498.6057 709.7394,-1499.0579"/>
</g>
<!-- Node41&#45;&gt;Node9 -->
<g id="edge128" class="edge">
<title>Node41&#45;&gt;Node9</title>
<path fill="none" stroke="#191970" d="M128.5835,-353.8079C139.027,-324.7006 170.141,-242.2468 193,-226 296.482,-152.451 349.5434,-191 476.5,-191 476.5,-191 476.5,-191 605.5,-191 734.471,-191 707.868,-322.1937 744,-446 794.1502,-617.8397 805.0446,-1203.0146 806.7359,-1319.6725"/>
<polygon fill="#191970" stroke="#191970" points="803.2406,-1320.0477 806.8788,-1329.9983 810.24,-1319.9508 803.2406,-1320.0477"/>
</g>
<!-- Node41&#45;&gt;Node11 -->
<g id="edge129" class="edge">
<title>Node41&#45;&gt;Node11</title>
<path fill="none" stroke="#191970" d="M126.9599,-374.1612C132.5543,-400.5783 150.9797,-472.1912 193,-513 234.8655,-553.6584 259.0146,-544.4441 314,-564 360.2466,-580.4479 494.1798,-588.6268 526,-626 531.1494,-632.048 590.406,-1133.6765 603.111,-1241.6652"/>
<polygon fill="#191970" stroke="#191970" points="599.6657,-1242.3358 604.3096,-1251.8587 606.6178,-1241.5184 599.6657,-1242.3358"/>
</g>
<!-- Node41&#45;&gt;Node12 -->
<g id="edge130" class="edge">
<title>Node41&#45;&gt;Node12</title>
<path fill="none" stroke="#191970" d="M127.5682,-374.1696C135.0896,-403.0289 158.7202,-487.4576 193,-551 223.0071,-606.6224 249.059,-608.8155 278,-665 353.2407,-811.0684 346.4428,-858.8488 391,-1017 409.3578,-1082.1591 396.442,-1104.5937 427,-1165 434.8679,-1180.553 447.5582,-1195.5651 458.1196,-1206.5542"/>
<polygon fill="#191970" stroke="#191970" points="455.7966,-1209.1816 465.3342,-1213.7952 460.7554,-1204.2409 455.7966,-1209.1816"/>
</g>
<!-- Node41&#45;&gt;Node19 -->
<g id="edge117" class="edge">
<title>Node41&#45;&gt;Node19</title>
<path fill="none" stroke="#191970" d="M127.3098,-353.7381C133.3085,-329.8322 151.8661,-270.6697 193,-247 225.7437,-228.1582 250.9213,-220.658 278,-247 329.987,-297.5727 306.4686,-1479.8645 314,-1552 321.3939,-1622.8187 339.2224,-1705.5652 347.7721,-1742.9086"/>
<polygon fill="#191970" stroke="#191970" points="344.438,-1744.0253 350.1057,-1752.9768 351.2573,-1742.4447 344.438,-1744.0253"/>
</g>
<!-- Node41&#45;&gt;Node20 -->
<g id="edge126" class="edge">
<title>Node41&#45;&gt;Node20</title>
<path fill="none" stroke="#191970" d="M127.1729,-353.8351C135.0347,-318.0633 163.1142,-198.913 193,-176 261.924,-123.1569 369.9065,-131.5805 430.7808,-142.0392"/>
<polygon fill="#191970" stroke="#191970" points="430.3925,-145.5257 440.8561,-143.8633 431.6396,-138.6377 430.3925,-145.5257"/>
</g>
<!-- Node41&#45;&gt;Node25 -->
<g id="edge111" class="edge">
<title>Node41&#45;&gt;Node25</title>
<path fill="none" stroke="#191970" d="M126.2662,-374.1621C131.3139,-412.9699 151.7566,-555.1612 193,-665 220.8929,-739.2838 256.2671,-745.6863 278,-822 315.3746,-953.2388 239.7702,-1320.4992 314,-1435 317.4648,-1440.3445 322.8414,-1444.3404 328.4888,-1447.2956"/>
<polygon fill="#191970" stroke="#191970" points="327.3878,-1450.6312 337.9588,-1451.3406 330.1375,-1444.1938 327.3878,-1450.6312"/>
</g>
<!-- Node41&#45;&gt;Node30 -->
<g id="edge127" class="edge">
<title>Node41&#45;&gt;Node30</title>
<path fill="none" stroke="#191970" d="M125.7216,-374.2128C130.234,-436.6593 155.5989,-767.3901 193,-861 199.0464,-876.1334 209.8021,-891.0073 218.98,-902.035"/>
<polygon fill="#191970" stroke="#191970" points="216.3927,-904.3938 225.5867,-909.6589 221.6828,-899.8096 216.3927,-904.3938"/>
</g>
<!-- Node42 -->
<g id="node42" class="node">
<title>Node42</title>
<g id="a_node42"><a xlink:href="../../db/da1/classHiParnt.html#ac653b598baeeca89d06693fdf4688f38" target="_top" xlink:title="HiParnt::hint1">
<polygon fill="none" stroke="#ff0000" points="193,-374 193,-394 278,-394 278,-374 193,-374"/>
<text text-anchor="middle" x="235.5" y="-381" font-family="FreeSans" font-size="10.00" fill="#000000">HiParnt::hint1</text>
</a>
</g>
</g>
<!-- Node41&#45;&gt;Node42 -->
<g id="edge112" class="edge">
<title>Node41&#45;&gt;Node42</title>
<path fill="none" stroke="#191970" d="M157.2582,-369.8386C165.225,-371.2805 173.968,-372.863 182.6328,-374.4313"/>
<polygon fill="#191970" stroke="#191970" points="182.2538,-377.9195 192.7173,-376.2565 183.5005,-371.0314 182.2538,-377.9195"/>
</g>
<!-- Node43 -->
<g id="node43" class="node">
<title>Node43</title>
<g id="a_node43"><a xlink:href="../../db/da1/classHiParnt.html#a28a5a24ec376a6790e610d7fcc0f5b8e" target="_top" xlink:title="HiParnt::hipr1">
<polygon fill="none" stroke="#ff0000" points="193,-335 193,-355 278,-355 278,-335 193,-335"/>
<text text-anchor="middle" x="235.5" y="-342" font-family="FreeSans" font-size="10.00" fill="#000000">HiParnt::hipr1</text>
</a>
</g>
</g>
<!-- Node41&#45;&gt;Node43 -->
<g id="edge113" class="edge">
<title>Node41&#45;&gt;Node43</title>
<path fill="none" stroke="#191970" d="M157.2582,-358.4533C165.225,-357.0835 173.968,-355.5802 182.6328,-354.0903"/>
<polygon fill="#191970" stroke="#191970" points="183.455,-357.5004 192.7173,-352.3563 182.2688,-350.6016 183.455,-357.5004"/>
</g>
<!-- Node44 -->
<g id="node44" class="node">
<title>Node44</title>
<g id="a_node44"><a xlink:href="../../db/da1/classHiParnt.html#a0d759f134daae3226a7744c9920bd769" target="_top" xlink:title="HiParnt::ihnt2">
<polygon fill="none" stroke="#ff0000" points="193,-296 193,-316 278,-316 278,-296 193,-296"/>
<text text-anchor="middle" x="235.5" y="-303" font-family="FreeSans" font-size="10.00" fill="#000000">HiParnt::ihnt2</text>
</a>
</g>
</g>
<!-- Node41&#45;&gt;Node44 -->
<g id="edge114" class="edge">
<title>Node41&#45;&gt;Node44</title>
<path fill="none" stroke="#191970" d="M141.5105,-353.9091C155.1249,-345.7402 175.0473,-334.1322 193,-325 196.1201,-323.4128 199.4011,-321.8189 202.699,-320.2658"/>
<polygon fill="#191970" stroke="#191970" points="204.2889,-323.3873 211.9194,-316.037 201.3706,-317.0246 204.2889,-323.3873"/>
</g>
<!-- Node45 -->
<g id="node45" class="node">
<title>Node45</title>
<g id="a_node45"><a xlink:href="../../db/da1/classHiParnt.html#a1c6a5924524a08fe9641adc64095c0b9" target="_top" xlink:title="HiParnt::ihpr2">
<polygon fill="none" stroke="#ff0000" points="193,-257 193,-277 278,-277 278,-257 193,-257"/>
<text text-anchor="middle" x="235.5" y="-264" font-family="FreeSans" font-size="10.00" fill="#000000">HiParnt::ihpr2</text>
</a>
</g>
</g>
<!-- Node41&#45;&gt;Node45 -->
<g id="edge115" class="edge">
<title>Node41&#45;&gt;Node45</title>
<path fill="none" stroke="#191970" d="M131.6254,-353.891C142.6694,-337.7006 166.2843,-305.7706 193,-286 194.8475,-284.6328 196.809,-283.3348 198.8363,-282.1077"/>
<polygon fill="#191970" stroke="#191970" points="200.845,-285.0017 207.9973,-277.1853 197.5317,-278.8355 200.845,-285.0017"/>
</g>
<!-- Node46 -->
<g id="node46" class="node">
<title>Node46</title>
<g id="a_node46"><a xlink:href="../../db/dc0/classHiStrng.html#a59d4a31ebe1ce279f66f57fcafab3793" target="_top" xlink:title="HiStrng::nfp">
<polygon fill="none" stroke="#000000" points="438,-103 438,-123 515,-123 515,-103 438,-103"/>
<text text-anchor="middle" x="476.5" y="-110" font-family="FreeSans" font-size="10.00" fill="#000000">HiStrng::nfp</text>
</a>
</g>
</g>
<!-- Node41&#45;&gt;Node46 -->
<g id="edge118" class="edge">
<title>Node41&#45;&gt;Node46</title>
<path fill="none" stroke="#191970" d="M126.5291,-353.7647C132.7869,-313.3385 157.7917,-165.594 193,-137 259.467,-83.0195 365.9108,-91.1398 427.7141,-102.0097"/>
<polygon fill="#191970" stroke="#191970" points="427.1363,-105.4621 437.6063,-103.8404 428.4102,-98.579 427.1363,-105.4621"/>
</g>
<!-- Node47 -->
<g id="node47" class="node">
<title>Node47</title>
<g id="a_node47"><a xlink:href="../../db/dc0/classHiStrng.html#ace64397808c894bf94ef8ce9e5b41fa5" target="_top" xlink:title="HiStrng::nft">
<polygon fill="none" stroke="#000000" points="439,-64 439,-84 514,-84 514,-64 439,-64"/>
<text text-anchor="middle" x="476.5" y="-71" font-family="FreeSans" font-size="10.00" fill="#000000">HiStrng::nft</text>
</a>
</g>
</g>
<!-- Node41&#45;&gt;Node47 -->
<g id="edge122" class="edge">
<title>Node41&#45;&gt;Node47</title>
<path fill="none" stroke="#191970" d="M126.0348,-353.8502C130.7993,-309.2662 152.1566,-131.4846 193,-97 258.9419,-41.3243 366.9795,-50.9482 428.9017,-62.661"/>
<polygon fill="#191970" stroke="#191970" points="428.3092,-66.1116 438.7993,-64.6257 429.6722,-59.2456 428.3092,-66.1116"/>
</g>
<!-- Node46&#45;&gt;Node21 -->
<g id="edge119" class="edge">
<title>Node46&#45;&gt;Node21</title>
<path fill="none" stroke="#191970" d="M515.2043,-113C528.215,-113 542.9023,-113 556.5926,-113"/>
<polygon fill="#191970" stroke="#191970" points="556.8231,-116.5001 566.8231,-113 556.823,-109.5001 556.8231,-116.5001"/>
</g>
<!-- Node46&#45;&gt;Node22 -->
<g id="edge120" class="edge">
<title>Node46&#45;&gt;Node22</title>
<path fill="none" stroke="#191970" d="M509.7207,-102.9565C525.821,-98.089 545.3522,-92.1842 562.5671,-86.9797"/>
<polygon fill="#191970" stroke="#191970" points="563.8326,-90.2536 572.3919,-84.0094 561.8069,-83.5532 563.8326,-90.2536"/>
</g>
<!-- Node46&#45;&gt;Node23 -->
<g id="edge121" class="edge">
<title>Node46&#45;&gt;Node23</title>
<path fill="none" stroke="#191970" d="M509.7207,-123.0435C525.821,-127.911 545.3522,-133.8158 562.5671,-139.0203"/>
<polygon fill="#191970" stroke="#191970" points="561.8069,-142.4468 572.3919,-141.9906 563.8326,-135.7464 561.8069,-142.4468"/>
</g>
<!-- Node47&#45;&gt;Node21 -->
<g id="edge123" class="edge">
<title>Node47&#45;&gt;Node21</title>
<path fill="none" stroke="#191970" d="M509.7207,-84.0435C525.821,-88.911 545.3522,-94.8158 562.5671,-100.0203"/>
<polygon fill="#191970" stroke="#191970" points="561.8069,-103.4468 572.3919,-102.9906 563.8326,-96.7464 561.8069,-103.4468"/>
</g>
<!-- Node47&#45;&gt;Node22 -->
<g id="edge124" class="edge">
<title>Node47&#45;&gt;Node22</title>
<path fill="none" stroke="#191970" d="M514.1589,-74C527.0779,-74 541.7455,-74 555.4878,-74"/>
<polygon fill="#191970" stroke="#191970" points="555.7721,-77.5001 565.772,-74 555.772,-70.5001 555.7721,-77.5001"/>
</g>
<!-- Node47&#45;&gt;Node23 -->
<g id="edge125" class="edge">
<title>Node47&#45;&gt;Node23</title>
<path fill="none" stroke="#191970" d="M508.9962,-84.0062C514.8986,-86.4992 520.8195,-89.4867 526,-93 545.5229,-106.2402 542.9139,-118.1377 562,-132 564.6229,-133.905 567.4562,-135.6938 570.3749,-137.3575"/>
<polygon fill="#191970" stroke="#191970" points="568.7736,-140.4696 579.2624,-141.9646 571.9952,-134.255 568.7736,-140.4696"/>
</g>
<!-- Node48&#45;&gt;Node3 -->
<g id="edge133" class="edge">
<title>Node48&#45;&gt;Node3</title>
<path fill="none" stroke="#191970" d="M244.3656,-1292.2109C258.1331,-1307.6385 285.9949,-1337.1875 314,-1357 345.3168,-1379.1554 364.0929,-1368.6575 391,-1396 416.6536,-1422.0686 407.5916,-1439.0001 427,-1470 437.0755,-1486.093 450.4795,-1502.9356 460.798,-1515.153"/>
<polygon fill="#191970" stroke="#191970" points="458.1997,-1517.4997 467.3698,-1522.8063 463.5105,-1512.9394 458.1997,-1517.4997"/>
</g>
<!-- Node48&#45;&gt;Node9 -->
<g id="edge136" class="edge">
<title>Node48&#45;&gt;Node9</title>
<path fill="none" stroke="#191970" d="M265.2624,-1286.9329C296.9583,-1292.6362 348.3329,-1303.1782 391,-1318 407.7145,-1323.8063 409.7604,-1331.0149 427,-1335 557.7151,-1365.2159 720.5269,-1350.5848 781.9736,-1343.2875"/>
<polygon fill="#191970" stroke="#191970" points="782.7401,-1346.7196 792.2369,-1342.0228 781.8839,-1339.7722 782.7401,-1346.7196"/>
</g>
<!-- Node48&#45;&gt;Node11 -->
<g id="edge137" class="edge">
<title>Node48&#45;&gt;Node11</title>
<path fill="none" stroke="#191970" d="M265.2386,-1276.8878C297.3616,-1272.6456 349.5097,-1269.5242 391,-1285 410.5141,-1292.2787 407.4167,-1307.9098 427,-1315 468.3719,-1329.9787 483.888,-1327.7505 526,-1315 549.3084,-1307.9428 572.0292,-1291.549 587.1705,-1278.8485"/>
<polygon fill="#191970" stroke="#191970" points="589.5054,-1281.4564 594.7582,-1272.2554 584.914,-1276.1725 589.5054,-1281.4564"/>
</g>
<!-- Node48&#45;&gt;Node17 -->
<g id="edge135" class="edge">
<title>Node48&#45;&gt;Node17</title>
<path fill="none" stroke="#191970" d="M236.5632,-1292.3766C243.6003,-1360.3424 284.1063,-1740.4533 314,-1782 314.9073,-1783.261 315.9183,-1784.4486 317.0105,-1785.5665"/>
<polygon fill="#191970" stroke="#191970" points="315.1311,-1788.5412 325.1555,-1791.9709 319.4578,-1783.0385 315.1311,-1788.5412"/>
</g>
<!-- Node48&#45;&gt;Node26 -->
<g id="edge134" class="edge">
<title>Node48&#45;&gt;Node26</title>
<path fill="none" stroke="#191970" d="M247.5804,-1271.8814C267.6357,-1255.0829 308.0057,-1221.2687 332.4052,-1200.8316"/>
<polygon fill="#191970" stroke="#191970" points="334.8914,-1203.3147 340.3101,-1194.2104 330.3965,-1197.9484 334.8914,-1203.3147"/>
</g>
<!-- Node49&#45;&gt;Node3 -->
<g id="edge139" class="edge">
<title>Node49&#45;&gt;Node3</title>
<path fill="none" stroke="#191970" d="M373.3233,-1348.0054C379.7246,-1351.9276 386.3109,-1356.9546 391,-1363 421.7518,-1402.6466 403.1538,-1425.8538 427,-1470 435.9163,-1486.5066 449.1774,-1503.1073 459.7302,-1515.1212"/>
<polygon fill="#191970" stroke="#191970" points="457.2209,-1517.5648 466.5167,-1522.6481 462.4198,-1512.8774 457.2209,-1517.5648"/>
</g>
<!-- Node49&#45;&gt;Node8 -->
<g id="edge142" class="edge">
<title>Node49&#45;&gt;Node8</title>
<path fill="none" stroke="#191970" d="M382.1049,-1346.7202C385.3369,-1348.4621 388.3937,-1350.5359 391,-1353 419.0376,-1379.5082 397.9544,-1406.6004 427,-1432 500.1391,-1495.9583 619.1001,-1512.9022 678.4459,-1517.3876"/>
<polygon fill="#191970" stroke="#191970" points="678.2538,-1520.8825 688.468,-1518.0682 678.7282,-1513.8986 678.2538,-1520.8825"/>
</g>
<!-- Node49&#45;&gt;Node9 -->
<g id="edge140" class="edge">
<title>Node49&#45;&gt;Node9</title>
<path fill="none" stroke="#191970" d="M382.1896,-1348.0041C385.2644,-1349.4949 388.2617,-1351.1587 391,-1353 410.3059,-1365.9815 405.8739,-1381.2571 427,-1391 516.6421,-1432.3411 551.8077,-1415.2755 649,-1398 698.3688,-1389.2249 752.5456,-1366.1531 782.9019,-1351.8941"/>
<polygon fill="#191970" stroke="#191970" points="784.7291,-1354.9001 792.2421,-1347.4297 781.7104,-1348.5844 784.7291,-1354.9001"/>
</g>
<!-- Node49&#45;&gt;Node12 -->
<g id="edge141" class="edge">
<title>Node49&#45;&gt;Node12</title>
<path fill="none" stroke="#191970" d="M363.5042,-1327.8833C384.7755,-1308.3273 431.7423,-1265.1482 457.9327,-1241.07"/>
<polygon fill="#191970" stroke="#191970" points="460.3493,-1243.6026 465.3422,-1234.2579 455.6117,-1238.4494 460.3493,-1243.6026"/>
</g>
<!-- Node50&#45;&gt;Node5 -->
<g id="edge144" class="edge">
<title>Node50&#45;&gt;Node5</title>
<path fill="none" stroke="#191970" d="M238.7673,-1122.088C246.4566,-1146.1079 265.9535,-1208.6687 278,-1262 299.0571,-1355.2225 257.3027,-1397.0634 314,-1474 336.7579,-1504.8818 368.4217,-1481.9867 391,-1513 451.3803,-1595.9377 385.9863,-1646.9664 427,-1741 434.5003,-1758.1963 447.8375,-1774.76 458.7793,-1786.5844"/>
<polygon fill="#191970" stroke="#191970" points="456.4176,-1789.1781 465.8705,-1793.9629 461.4647,-1784.3275 456.4176,-1789.1781"/>
</g>
<!-- Node50&#45;&gt;Node8 -->
<g id="edge148" class="edge">
<title>Node50&#45;&gt;Node8</title>
<path fill="none" stroke="#191970" d="M266.2869,-1105.9257C345.8439,-1092.2454 558.3613,-1068.9477 649,-1189 686.6001,-1238.8019 707.0644,-1435.3618 712.8038,-1499.0018"/>
<polygon fill="#191970" stroke="#191970" points="709.3175,-1499.3114 713.6789,-1508.9668 716.2906,-1498.699 709.3175,-1499.3114"/>
</g>
<!-- Node50&#45;&gt;Node9 -->
<g id="edge146" class="edge">
<title>Node50&#45;&gt;Node9</title>
<path fill="none" stroke="#191970" d="M265.6957,-1101.9413C280.1357,-1097.6445 297.7746,-1093.1328 314,-1091 462.8869,-1071.4293 512.0457,-1073.4058 649,-1135 698.0609,-1157.0648 710.305,-1168.0659 744,-1210 771.7368,-1244.519 791.1816,-1293.2614 800.5784,-1320.1874"/>
<polygon fill="#191970" stroke="#191970" points="797.2668,-1321.3204 803.7853,-1329.6726 803.898,-1319.0784 797.2668,-1321.3204"/>
</g>
<!-- Node50&#45;&gt;Node12 -->
<g id="edge147" class="edge">
<title>Node50&#45;&gt;Node12</title>
<path fill="none" stroke="#191970" d="M266.0502,-1119.4036C298.1781,-1127.8261 349.7023,-1143.1618 391,-1164 414.9887,-1176.1043 439.8512,-1194.2971 456.5397,-1207.4753"/>
<polygon fill="#191970" stroke="#191970" points="454.4861,-1210.3152 464.4736,-1213.8508 458.8709,-1204.8586 454.4861,-1210.3152"/>
</g>
<!-- Node50&#45;&gt;Node26 -->
<g id="edge145" class="edge">
<title>Node50&#45;&gt;Node26</title>
<path fill="none" stroke="#191970" d="M252.9421,-1122.0959C260.6545,-1126.6023 269.8127,-1132.011 278,-1137 294.8189,-1147.2487 313.5706,-1159.0808 328.0536,-1168.3093"/>
<polygon fill="#191970" stroke="#191970" points="326.5799,-1171.5211 336.8914,-1173.955 330.3483,-1165.622 326.5799,-1171.5211"/>
</g>
</g>
</svg>
