<?xml version="1.0" encoding="UTF-8" standalone="no"?>
<!DOCTYPE svg PUBLIC "-//W3C//DTD SVG 1.1//EN"
 "http://www.w3.org/Graphics/SVG/1.1/DTD/svg11.dtd">
<!-- Generated by graphviz version 2.40.1 (20161225.0304)
 -->
<!-- Title: coresoftware/blob/master/simulation/g4simulation/g4main/PHG4EtaParameterization.h Pages: 1 -->
<svg width="480pt" height="110pt"
 viewBox="0.00 0.00 480.00 110.00" xmlns="http://www.w3.org/2000/svg" xmlns:xlink="http://www.w3.org/1999/xlink">
<g id="graph0" class="graph" transform="scale(1 1) rotate(0) translate(4 106)">
<title>coresoftware/blob/master/simulation/g4simulation/g4main/PHG4EtaParameterization.h</title>
<!-- Node1 -->
<g id="node1" class="node">
<title>Node1</title>
<polygon fill="#bfbfbf" stroke="#000000" points="200.5,-57.5 200.5,-101.5 402.5,-101.5 402.5,-57.5 200.5,-57.5"/>
<text text-anchor="start" x="208.5" y="-88.5" font-family="FreeSans" font-size="10.00" fill="#000000">coresoftware/blob/master</text>
<text text-anchor="start" x="208.5" y="-76.5" font-family="FreeSans" font-size="10.00" fill="#000000">/simulation/g4simulation</text>
<text text-anchor="middle" x="301.5" y="-64.5" font-family="FreeSans" font-size="10.00" fill="#000000">/g4main/PHG4EtaParameterization.h</text>
</g>
<!-- Node2 -->
<g id="node2" class="node">
<title>Node2</title>
<polygon fill="none" stroke="#bfbfbf" points="0,-.5 0,-20.5 115,-20.5 115,-.5 0,-.5"/>
<text text-anchor="middle" x="57.5" y="-7.5" font-family="FreeSans" font-size="10.00" fill="#000000">Geant4/G4Types.hh</text>
</g>
<!-- Node1&#45;&gt;Node2 -->
<g id="edge1" class="edge">
<title>Node1&#45;&gt;Node2</title>
<path fill="none" stroke="#191970" d="M223.626,-57.4783C183.9383,-46.2551 137.0503,-32.9958 103.2251,-23.4305"/>
<polygon fill="#191970" stroke="#191970" points="103.7446,-19.9402 93.1695,-20.5869 101.8397,-26.676 103.7446,-19.9402"/>
</g>
<!-- Node3 -->
<g id="node3" class="node">
<title>Node3</title>
<polygon fill="none" stroke="#bfbfbf" points="133,-.5 133,-20.5 326,-20.5 326,-.5 133,-.5"/>
<text text-anchor="middle" x="229.5" y="-7.5" font-family="FreeSans" font-size="10.00" fill="#000000">Geant4/G4VPVParameterisation.hh</text>
</g>
<!-- Node1&#45;&gt;Node3 -->
<g id="edge2" class="edge">
<title>Node1&#45;&gt;Node3</title>
<path fill="none" stroke="#191970" d="M278.3224,-57.2882C268.3021,-47.6853 256.7571,-36.6214 247.4103,-27.6641"/>
<polygon fill="#191970" stroke="#191970" points="249.7993,-25.1058 240.1577,-20.7137 244.956,-30.1597 249.7993,-25.1058"/>
</g>
<!-- Node4 -->
<g id="node4" class="node">
<title>Node4</title>
<polygon fill="none" stroke="#bfbfbf" points="344.5,-.5 344.5,-20.5 404.5,-20.5 404.5,-.5 344.5,-.5"/>
<text text-anchor="middle" x="374.5" y="-7.5" font-family="FreeSans" font-size="10.00" fill="#000000">iostream</text>
</g>
<!-- Node1&#45;&gt;Node4 -->
<g id="edge3" class="edge">
<title>Node1&#45;&gt;Node4</title>
<path fill="none" stroke="#191970" d="M324.9995,-57.2882C335.159,-47.6853 346.8643,-36.6214 356.3409,-27.6641"/>
<polygon fill="#191970" stroke="#191970" points="358.8311,-30.1264 363.6942,-20.7137 354.0226,-25.0393 358.8311,-30.1264"/>
</g>
<!-- Node5 -->
<g id="node5" class="node">
<title>Node5</title>
<polygon fill="none" stroke="#bfbfbf" points="423,-.5 423,-20.5 472,-20.5 472,-.5 423,-.5"/>
<text text-anchor="middle" x="447.5" y="-7.5" font-family="FreeSans" font-size="10.00" fill="#000000">vector</text>
</g>
<!-- Node1&#45;&gt;Node5 -->
<g id="edge4" class="edge">
<title>Node1&#45;&gt;Node5</title>
<path fill="none" stroke="#191970" d="M348.0967,-57.4783C370.616,-46.8356 397.0094,-34.362 416.9382,-24.9436"/>
<polygon fill="#191970" stroke="#191970" points="418.6111,-28.0242 426.1568,-20.5869 415.6201,-21.6954 418.6111,-28.0242"/>
</g>
</g>
</svg>
