<?xml version="1.0" encoding="UTF-8" standalone="no"?>
<!DOCTYPE svg PUBLIC "-//W3C//DTD SVG 1.1//EN"
 "http://www.w3.org/Graphics/SVG/1.1/DTD/svg11.dtd">
<!-- Generated by graphviz version 2.40.1 (20161225.0304)
 -->
<!-- Title: online_distribution/blob/master/newbasic/oncsEventiterator.cc Pages: 1 -->
<svg width="1276pt" height="452pt"
 viewBox="0.00 0.00 1275.50 452.00" xmlns="http://www.w3.org/2000/svg" xmlns:xlink="http://www.w3.org/1999/xlink">
<g id="graph0" class="graph" transform="scale(1 1) rotate(0) translate(4 448)">
<title>online_distribution/blob/master/newbasic/oncsEventiterator.cc</title>
<!-- Node1 -->
<g id="node1" class="node">
<title>Node1</title>
<polygon fill="#bfbfbf" stroke="#000000" points="859,-399.5 859,-443.5 991,-443.5 991,-399.5 859,-399.5"/>
<text text-anchor="start" x="867" y="-430.5" font-family="FreeSans" font-size="10.00" fill="#000000">online_distribution</text>
<text text-anchor="start" x="867" y="-418.5" font-family="FreeSans" font-size="10.00" fill="#000000">/blob/master/newbasic</text>
<text text-anchor="middle" x="925" y="-406.5" font-family="FreeSans" font-size="10.00" fill="#000000">/oncsEventiterator.cc</text>
</g>
<!-- Node2 -->
<g id="node2" class="node">
<title>Node2</title>
<g id="a_node2"><a xlink:href="../../df/d3d/oncsEventiterator_8h.html" target="_top" xlink:title="oncsEventiterator.h">
<polygon fill="none" stroke="#000000" points="359,-342.5 359,-362.5 473,-362.5 473,-342.5 359,-342.5"/>
<text text-anchor="middle" x="416" y="-349.5" font-family="FreeSans" font-size="10.00" fill="#000000">oncsEventiterator.h</text>
</a>
</g>
</g>
<!-- Node1&#45;&gt;Node2 -->
<g id="edge1" class="edge">
<title>Node1&#45;&gt;Node2</title>
<path fill="none" stroke="#191970" d="M858.979,-412.5502C761.8152,-399.3787 581.2648,-374.9033 483.3481,-361.6297"/>
<polygon fill="#191970" stroke="#191970" points="483.6499,-358.1387 473.2704,-360.2636 482.7095,-365.0752 483.6499,-358.1387"/>
</g>
<!-- Node11 -->
<g id="node11" class="node">
<title>Node11</title>
<polygon fill="none" stroke="#bfbfbf" points="254,-.5 254,-20.5 304,-20.5 304,-.5 254,-.5"/>
<text text-anchor="middle" x="279" y="-7.5" font-family="FreeSans" font-size="10.00" fill="#000000">stdio.h</text>
</g>
<!-- Node1&#45;&gt;Node11 -->
<g id="edge27" class="edge">
<title>Node1&#45;&gt;Node11</title>
<path fill="none" stroke="#191970" d="M863.0666,-399.4589C845.3955,-390.5387 827.5527,-378.58 815,-363 795.4468,-338.7311 796,-326.6658 796,-295.5 796,-295.5 796,-295.5 796,-124.5 796,-75.0882 431.2154,-28.251 314.4754,-14.527"/>
<polygon fill="#191970" stroke="#191970" points="314.6239,-11.0207 304.286,-13.3395 313.8135,-17.9737 314.6239,-11.0207"/>
</g>
<!-- Node17 -->
<g id="node17" class="node">
<title>Node17</title>
<g id="a_node17"><a xlink:href="../../de/d08/oncsEvent_8h.html" target="_top" xlink:title="oncsEvent.h">
<polygon fill="none" stroke="#000000" points="574,-228.5 574,-248.5 652,-248.5 652,-228.5 574,-228.5"/>
<text text-anchor="middle" x="613" y="-235.5" font-family="FreeSans" font-size="10.00" fill="#000000">oncsEvent.h</text>
</a>
</g>
</g>
<!-- Node1&#45;&gt;Node17 -->
<g id="edge28" class="edge">
<title>Node1&#45;&gt;Node17</title>
<path fill="none" stroke="#191970" d="M861.4956,-399.397C836.1136,-389.5771 807.026,-377.0519 782,-363 723.9096,-330.3828 662.6029,-280.8608 632.2969,-255.2112"/>
<polygon fill="#191970" stroke="#191970" points="634.4786,-252.4718 624.5996,-248.6436 629.9351,-257.7969 634.4786,-252.4718"/>
</g>
<!-- Node21 -->
<g id="node21" class="node">
<title>Node21</title>
<polygon fill="none" stroke="#bfbfbf" points="824,-342.5 824,-362.5 880,-362.5 880,-342.5 824,-342.5"/>
<text text-anchor="middle" x="852" y="-349.5" font-family="FreeSans" font-size="10.00" fill="#000000">stddef.h</text>
</g>
<!-- Node1&#45;&gt;Node21 -->
<g id="edge29" class="edge">
<title>Node1&#45;&gt;Node21</title>
<path fill="none" stroke="#191970" d="M901.5005,-399.2882C891.341,-389.6853 879.6357,-378.6214 870.1591,-369.6641"/>
<polygon fill="#191970" stroke="#191970" points="872.4774,-367.0393 862.8058,-362.7137 867.6689,-372.1264 872.4774,-367.0393"/>
</g>
<!-- Node22 -->
<g id="node22" class="node">
<title>Node22</title>
<polygon fill="none" stroke="#bfbfbf" points="898,-342.5 898,-362.5 952,-362.5 952,-342.5 898,-342.5"/>
<text text-anchor="middle" x="925" y="-349.5" font-family="FreeSans" font-size="10.00" fill="#000000">string.h</text>
</g>
<!-- Node1&#45;&gt;Node22 -->
<g id="edge30" class="edge">
<title>Node1&#45;&gt;Node22</title>
<path fill="none" stroke="#191970" d="M925,-399.2882C925,-390.8377 925,-381.2557 925,-372.9736"/>
<polygon fill="#191970" stroke="#191970" points="928.5001,-372.7136 925,-362.7137 921.5001,-372.7137 928.5001,-372.7136"/>
</g>
<!-- Node23 -->
<g id="node23" class="node">
<title>Node23</title>
<polygon fill="none" stroke="#bfbfbf" points="970.5,-342.5 970.5,-362.5 1043.5,-362.5 1043.5,-342.5 970.5,-342.5"/>
<text text-anchor="middle" x="1007" y="-349.5" font-family="FreeSans" font-size="10.00" fill="#000000">sys/types.h</text>
</g>
<!-- Node1&#45;&gt;Node23 -->
<g id="edge31" class="edge">
<title>Node1&#45;&gt;Node23</title>
<path fill="none" stroke="#191970" d="M951.3967,-399.2882C962.9229,-389.5893 976.2203,-378.4 986.9207,-369.396"/>
<polygon fill="#191970" stroke="#191970" points="989.4639,-371.8302 994.862,-362.7137 984.957,-366.4741 989.4639,-371.8302"/>
</g>
<!-- Node24 -->
<g id="node24" class="node">
<title>Node24</title>
<polygon fill="none" stroke="#bfbfbf" points="1062,-342.5 1062,-362.5 1126,-362.5 1126,-342.5 1062,-342.5"/>
<text text-anchor="middle" x="1094" y="-349.5" font-family="FreeSans" font-size="10.00" fill="#000000">sys/stat.h</text>
</g>
<!-- Node1&#45;&gt;Node24 -->
<g id="edge32" class="edge">
<title>Node1&#45;&gt;Node24</title>
<path fill="none" stroke="#191970" d="M978.9373,-399.4783C1005.4781,-388.6421 1036.6679,-375.9078 1059.8744,-366.4329"/>
<polygon fill="#191970" stroke="#191970" points="1061.3594,-369.6072 1069.2945,-362.5869 1058.7134,-363.1265 1061.3594,-369.6072"/>
</g>
<!-- Node25 -->
<g id="node25" class="node">
<title>Node25</title>
<polygon fill="none" stroke="#bfbfbf" points="1144,-342.5 1144,-362.5 1192,-362.5 1192,-342.5 1144,-342.5"/>
<text text-anchor="middle" x="1168" y="-349.5" font-family="FreeSans" font-size="10.00" fill="#000000">fcntl.h</text>
</g>
<!-- Node1&#45;&gt;Node25 -->
<g id="edge33" class="edge">
<title>Node1&#45;&gt;Node25</title>
<path fill="none" stroke="#191970" d="M991.3838,-403.6711C1030.445,-393.0254 1081.0129,-378.9782 1134.2622,-363.1548"/>
<polygon fill="#191970" stroke="#191970" points="1135.2984,-366.4982 1143.8807,-360.2857 1133.2975,-359.7902 1135.2984,-366.4982"/>
</g>
<!-- Node26 -->
<g id="node26" class="node">
<title>Node26</title>
<polygon fill="none" stroke="#bfbfbf" points="1210.5,-342.5 1210.5,-362.5 1267.5,-362.5 1267.5,-342.5 1210.5,-342.5"/>
<text text-anchor="middle" x="1239" y="-349.5" font-family="FreeSans" font-size="10.00" fill="#000000">unistd.h</text>
</g>
<!-- Node1&#45;&gt;Node26 -->
<g id="edge34" class="edge">
<title>Node1&#45;&gt;Node26</title>
<path fill="none" stroke="#191970" d="M991.0587,-408.6711C1044.832,-397.9596 1122.8984,-381.8014 1200.4667,-363.0224"/>
<polygon fill="#191970" stroke="#191970" points="1201.5274,-366.3664 1210.4147,-360.5987 1199.8704,-359.5654 1201.5274,-366.3664"/>
</g>
<!-- Node3 -->
<g id="node3" class="node">
<title>Node3</title>
<g id="a_node3"><a xlink:href="../../de/dbf/Eventiterator_8h.html" target="_top" xlink:title="Eventiterator.h">
<polygon fill="none" stroke="#000000" points="370.5,-285.5 370.5,-305.5 461.5,-305.5 461.5,-285.5 370.5,-285.5"/>
<text text-anchor="middle" x="416" y="-292.5" font-family="FreeSans" font-size="10.00" fill="#000000">Eventiterator.h</text>
</a>
</g>
</g>
<!-- Node2&#45;&gt;Node3 -->
<g id="edge2" class="edge">
<title>Node2&#45;&gt;Node3</title>
<path fill="none" stroke="#191970" d="M416,-342.3095C416,-334.9335 416,-324.72 416,-315.715"/>
<polygon fill="#191970" stroke="#191970" points="419.5001,-315.6022 416,-305.6022 412.5001,-315.6023 419.5001,-315.6022"/>
</g>
<!-- Node13 -->
<g id="node13" class="node">
<title>Node13</title>
<g id="a_node13"><a xlink:href="../../db/d5e/oncsBuffer_8h.html" target="_top" xlink:title="oncsBuffer.h">
<polygon fill="none" stroke="#000000" points="269.5,-285.5 269.5,-305.5 348.5,-305.5 348.5,-285.5 269.5,-285.5"/>
<text text-anchor="middle" x="309" y="-292.5" font-family="FreeSans" font-size="10.00" fill="#000000">oncsBuffer.h</text>
</a>
</g>
</g>
<!-- Node2&#45;&gt;Node13 -->
<g id="edge12" class="edge">
<title>Node2&#45;&gt;Node13</title>
<path fill="none" stroke="#191970" d="M396.8705,-342.3095C380.2094,-333.434 355.8358,-320.4499 336.9829,-310.4068"/>
<polygon fill="#191970" stroke="#191970" points="338.4352,-307.2148 327.9638,-305.6022 335.1441,-313.3929 338.4352,-307.2148"/>
</g>
<!-- Node4 -->
<g id="node4" class="node">
<title>Node4</title>
<g id="a_node4"><a xlink:href="../../d6/d8d/Event_8h.html" target="_top" xlink:title="Event.h">
<polygon fill="none" stroke="#000000" points="376,-171.5 376,-191.5 430,-191.5 430,-171.5 376,-171.5"/>
<text text-anchor="middle" x="403" y="-178.5" font-family="FreeSans" font-size="10.00" fill="#000000">Event.h</text>
</a>
</g>
</g>
<!-- Node3&#45;&gt;Node4 -->
<g id="edge3" class="edge">
<title>Node3&#45;&gt;Node4</title>
<path fill="none" stroke="#191970" d="M414.8463,-285.3833C412.7124,-266.6703 408.1118,-226.3266 405.3134,-201.7866"/>
<polygon fill="#191970" stroke="#191970" points="408.7803,-201.297 404.1698,-191.7579 401.8254,-202.0901 408.7803,-201.297"/>
</g>
<!-- Node5 -->
<g id="node5" class="node">
<title>Node5</title>
<g id="a_node5"><a xlink:href="../../d3/d76/packet_8h.html" target="_top" xlink:title="packet.h">
<polygon fill="none" stroke="#000000" points="291.5,-114.5 291.5,-134.5 350.5,-134.5 350.5,-114.5 291.5,-114.5"/>
<text text-anchor="middle" x="321" y="-121.5" font-family="FreeSans" font-size="10.00" fill="#000000">packet.h</text>
</a>
</g>
</g>
<!-- Node4&#45;&gt;Node5 -->
<g id="edge4" class="edge">
<title>Node4&#45;&gt;Node5</title>
<path fill="none" stroke="#191970" d="M388.34,-171.3095C375.9798,-162.7177 358.0809,-150.2758 343.8429,-140.3786"/>
<polygon fill="#191970" stroke="#191970" points="345.7419,-137.4361 335.533,-134.6022 341.7464,-143.1839 345.7419,-137.4361"/>
</g>
<!-- Node12 -->
<g id="node12" class="node">
<title>Node12</title>
<polygon fill="none" stroke="#bfbfbf" points="381,-114.5 381,-134.5 425,-134.5 425,-114.5 381,-114.5"/>
<text text-anchor="middle" x="403" y="-121.5" font-family="FreeSans" font-size="10.00" fill="#000000">ctime</text>
</g>
<!-- Node4&#45;&gt;Node12 -->
<g id="edge11" class="edge">
<title>Node4&#45;&gt;Node12</title>
<path fill="none" stroke="#191970" d="M403,-171.3095C403,-163.9335 403,-153.72 403,-144.715"/>
<polygon fill="#191970" stroke="#191970" points="406.5001,-144.6022 403,-134.6022 399.5001,-144.6023 406.5001,-144.6022"/>
</g>
<!-- Node6 -->
<g id="node6" class="node">
<title>Node6</title>
<g id="a_node6"><a xlink:href="../../db/d5e/generalDefinitions_8h.html" target="_top" xlink:title="generalDefinitions.h">
<polygon fill="none" stroke="#000000" points="262,-57.5 262,-77.5 380,-77.5 380,-57.5 262,-57.5"/>
<text text-anchor="middle" x="321" y="-64.5" font-family="FreeSans" font-size="10.00" fill="#000000">generalDefinitions.h</text>
</a>
</g>
</g>
<!-- Node5&#45;&gt;Node6 -->
<g id="edge5" class="edge">
<title>Node5&#45;&gt;Node6</title>
<path fill="none" stroke="#191970" d="M321,-114.3095C321,-106.9335 321,-96.72 321,-87.715"/>
<polygon fill="#191970" stroke="#191970" points="324.5001,-87.6022 321,-77.6022 317.5001,-87.6023 324.5001,-87.6022"/>
</g>
<!-- Node7 -->
<g id="node7" class="node">
<title>Node7</title>
<g id="a_node7"><a xlink:href="../../d8/dd6/event__io_8h.html" target="_top" xlink:title="event_io.h">
<polygon fill="none" stroke="#000000" points="126,-57.5 126,-77.5 194,-77.5 194,-57.5 126,-57.5"/>
<text text-anchor="middle" x="160" y="-64.5" font-family="FreeSans" font-size="10.00" fill="#000000">event_io.h</text>
</a>
</g>
</g>
<!-- Node5&#45;&gt;Node7 -->
<g id="edge6" class="edge">
<title>Node5&#45;&gt;Node7</title>
<path fill="none" stroke="#191970" d="M292.587,-114.4408C266.3426,-105.1492 227.1539,-91.275 198.1827,-81.0181"/>
<polygon fill="#191970" stroke="#191970" points="198.994,-77.5925 188.3992,-77.5544 196.6578,-84.1912 198.994,-77.5925"/>
</g>
<!-- Node8 -->
<g id="node8" class="node">
<title>Node8</title>
<polygon fill="none" stroke="#bfbfbf" points="0,-.5 0,-20.5 64,-20.5 64,-.5 0,-.5"/>
<text text-anchor="middle" x="32" y="-7.5" font-family="FreeSans" font-size="10.00" fill="#000000">ioselect.h</text>
</g>
<!-- Node7&#45;&gt;Node8 -->
<g id="edge7" class="edge">
<title>Node7&#45;&gt;Node8</title>
<path fill="none" stroke="#191970" d="M137.4108,-57.4408C117.064,-48.3801 86.9312,-34.9615 64.0878,-24.7891"/>
<polygon fill="#191970" stroke="#191970" points="65.3529,-21.5212 54.7939,-20.6504 62.5053,-27.9158 65.3529,-21.5212"/>
</g>
<!-- Node9 -->
<g id="node9" class="node">
<title>Node9</title>
<polygon fill="none" stroke="#bfbfbf" points="82,-.5 82,-20.5 152,-20.5 152,-.5 82,-.5"/>
<text text-anchor="middle" x="117" y="-7.5" font-family="FreeSans" font-size="10.00" fill="#000000">iostream.h</text>
</g>
<!-- Node7&#45;&gt;Node9 -->
<g id="edge8" class="edge">
<title>Node7&#45;&gt;Node9</title>
<path fill="none" stroke="#191970" d="M152.3125,-57.3095C146.32,-49.3661 137.8451,-38.1319 130.6998,-28.6602"/>
<polygon fill="#191970" stroke="#191970" points="133.4375,-26.4776 124.621,-20.6022 127.8493,-30.6933 133.4375,-26.4776"/>
</g>
<!-- Node10 -->
<g id="node10" class="node">
<title>Node10</title>
<polygon fill="none" stroke="#bfbfbf" points="170,-.5 170,-20.5 236,-20.5 236,-.5 170,-.5"/>
<text text-anchor="middle" x="203" y="-7.5" font-family="FreeSans" font-size="10.00" fill="#000000">iomanip.h</text>
</g>
<!-- Node7&#45;&gt;Node10 -->
<g id="edge9" class="edge">
<title>Node7&#45;&gt;Node10</title>
<path fill="none" stroke="#191970" d="M167.6875,-57.3095C173.68,-49.3661 182.1549,-38.1319 189.3002,-28.6602"/>
<polygon fill="#191970" stroke="#191970" points="192.1507,-30.6933 195.379,-20.6022 186.5625,-26.4776 192.1507,-30.6933"/>
</g>
<!-- Node7&#45;&gt;Node11 -->
<g id="edge10" class="edge">
<title>Node7&#45;&gt;Node11</title>
<path fill="none" stroke="#191970" d="M181.0009,-57.4408C199.7482,-48.461 227.4316,-35.2008 248.5979,-25.0624"/>
<polygon fill="#191970" stroke="#191970" points="250.302,-28.127 257.8088,-20.6504 247.278,-21.8138 250.302,-28.127"/>
</g>
<!-- Node13&#45;&gt;Node7 -->
<g id="edge26" class="edge">
<title>Node13&#45;&gt;Node7</title>
<path fill="none" stroke="#191970" d="M269.4232,-286.1098C248.3611,-279.1753 223.6494,-267.6198 208,-249 168.2617,-201.7191 161.053,-124.9891 159.9895,-88.3119"/>
<polygon fill="#191970" stroke="#191970" points="163.4827,-87.8432 159.8267,-77.8992 156.4836,-87.9527 163.4827,-87.8432"/>
</g>
<!-- Node13&#45;&gt;Node11 -->
<g id="edge25" class="edge">
<title>Node13&#45;&gt;Node11</title>
<path fill="none" stroke="#191970" d="M293.4461,-285.2657C268.4219,-267.4257 222,-228.0568 222,-181.5 222,-181.5 222,-181.5 222,-124.5 222,-87.3539 246.5102,-49.9043 263.3856,-28.5221"/>
<polygon fill="#191970" stroke="#191970" points="266.2116,-30.5955 269.842,-20.642 260.7969,-26.1591 266.2116,-30.5955"/>
</g>
<!-- Node14 -->
<g id="node14" class="node">
<title>Node14</title>
<g id="a_node14"><a xlink:href="../../d5/d08/buffer_8h.html" target="_top" xlink:title="buffer.h">
<polygon fill="none" stroke="#000000" points="332.5,-228.5 332.5,-248.5 387.5,-248.5 387.5,-228.5 332.5,-228.5"/>
<text text-anchor="middle" x="360" y="-235.5" font-family="FreeSans" font-size="10.00" fill="#000000">buffer.h</text>
</a>
</g>
</g>
<!-- Node13&#45;&gt;Node14 -->
<g id="edge13" class="edge">
<title>Node13&#45;&gt;Node14</title>
<path fill="none" stroke="#191970" d="M318.1178,-285.3095C325.3701,-277.204 335.6883,-265.672 344.2682,-256.0826"/>
<polygon fill="#191970" stroke="#191970" points="346.9015,-258.3885 350.9612,-248.6022 341.6848,-253.7209 346.9015,-258.3885"/>
</g>
<!-- Node16 -->
<g id="node16" class="node">
<title>Node16</title>
<g id="a_node16"><a xlink:href="../../da/d88/BufferConstants_8h.html" target="_top" xlink:title="BufferConstants.h">
<polygon fill="none" stroke="#000000" points="250.5,-171.5 250.5,-191.5 357.5,-191.5 357.5,-171.5 250.5,-171.5"/>
<text text-anchor="middle" x="304" y="-178.5" font-family="FreeSans" font-size="10.00" fill="#000000">BufferConstants.h</text>
</a>
</g>
</g>
<!-- Node13&#45;&gt;Node16 -->
<g id="edge24" class="edge">
<title>Node13&#45;&gt;Node16</title>
<path fill="none" stroke="#191970" d="M308.5563,-285.3833C307.7355,-266.6703 305.9661,-226.3266 304.8898,-201.7866"/>
<polygon fill="#191970" stroke="#191970" points="308.3848,-201.5949 304.4499,-191.7579 301.3915,-201.9017 308.3848,-201.5949"/>
</g>
<!-- Node13&#45;&gt;Node17 -->
<g id="edge17" class="edge">
<title>Node13&#45;&gt;Node17</title>
<path fill="none" stroke="#191970" d="M348.6388,-287.5913C353.1437,-286.7091 357.6701,-285.8299 362,-285 432.0387,-271.5751 513.1992,-256.655 563.8275,-247.4236"/>
<polygon fill="#191970" stroke="#191970" points="564.6322,-250.8346 573.843,-245.599 563.3776,-243.948 564.6322,-250.8346"/>
</g>
<!-- Node14&#45;&gt;Node4 -->
<g id="edge16" class="edge">
<title>Node14&#45;&gt;Node4</title>
<path fill="none" stroke="#191970" d="M367.6875,-228.3095C373.68,-220.3661 382.1549,-209.1319 389.3002,-199.6602"/>
<polygon fill="#191970" stroke="#191970" points="392.1507,-201.6933 395.379,-191.6022 386.5625,-197.4776 392.1507,-201.6933"/>
</g>
<!-- Node15 -->
<g id="node15" class="node">
<title>Node15</title>
<g id="a_node15"><a xlink:href="../../d7/d43/phenixTypes_8h.html" target="_top" xlink:title="phenixTypes.h">
<polygon fill="none" stroke="#000000" points="448,-171.5 448,-191.5 536,-191.5 536,-171.5 448,-171.5"/>
<text text-anchor="middle" x="492" y="-178.5" font-family="FreeSans" font-size="10.00" fill="#000000">phenixTypes.h</text>
</a>
</g>
</g>
<!-- Node14&#45;&gt;Node15 -->
<g id="edge14" class="edge">
<title>Node14&#45;&gt;Node15</title>
<path fill="none" stroke="#191970" d="M383.2951,-228.4408C404.3714,-219.3396 435.6299,-205.8416 459.2245,-195.6531"/>
<polygon fill="#191970" stroke="#191970" points="460.7007,-198.8281 468.4938,-191.6504 457.9256,-192.4016 460.7007,-198.8281"/>
</g>
<!-- Node14&#45;&gt;Node16 -->
<g id="edge15" class="edge">
<title>Node14&#45;&gt;Node16</title>
<path fill="none" stroke="#191970" d="M349.9883,-228.3095C341.9453,-220.1229 330.4683,-208.441 320.992,-198.7955"/>
<polygon fill="#191970" stroke="#191970" points="323.4299,-196.2827 313.925,-191.6022 318.4366,-201.1885 323.4299,-196.2827"/>
</g>
<!-- Node17&#45;&gt;Node4 -->
<g id="edge18" class="edge">
<title>Node17&#45;&gt;Node4</title>
<path fill="none" stroke="#191970" d="M574.574,-228.4981C541.3397,-219.7879 491.7624,-206.6527 439.8291,-192.1925"/>
<polygon fill="#191970" stroke="#191970" points="440.6809,-188.7966 430.108,-189.4778 438.7981,-195.5386 440.6809,-188.7966"/>
</g>
<!-- Node17&#45;&gt;Node15 -->
<g id="edge19" class="edge">
<title>Node17&#45;&gt;Node15</title>
<path fill="none" stroke="#191970" d="M591.6462,-228.4408C572.4979,-219.4205 544.1813,-206.0813 522.6227,-195.9255"/>
<polygon fill="#191970" stroke="#191970" points="524.0854,-192.7458 513.5474,-191.6504 521.1023,-199.0783 524.0854,-192.7458"/>
</g>
<!-- Node18 -->
<g id="node18" class="node">
<title>Node18</title>
<g id="a_node18"><a xlink:href="../../d1/d25/oncsEvtConstants_8h.html" target="_top" xlink:title="oncsEvtConstants.h">
<polygon fill="none" stroke="#000000" points="598,-114.5 598,-134.5 714,-134.5 714,-114.5 598,-114.5"/>
<text text-anchor="middle" x="656" y="-121.5" font-family="FreeSans" font-size="10.00" fill="#000000">oncsEvtConstants.h</text>
</a>
</g>
</g>
<!-- Node17&#45;&gt;Node18 -->
<g id="edge20" class="edge">
<title>Node17&#45;&gt;Node18</title>
<path fill="none" stroke="#191970" d="M638.5178,-228.4321C653.8449,-220.8957 672.0568,-208.9498 681,-192 689.3238,-176.2242 680.5939,-157.0565 671.2395,-143.1835"/>
<polygon fill="#191970" stroke="#191970" points="673.9134,-140.9114 665.1751,-134.9204 668.2701,-145.0531 673.9134,-140.9114"/>
</g>
<!-- Node19 -->
<g id="node19" class="node">
<title>Node19</title>
<g id="a_node19"><a xlink:href="../../d1/dfa/oncsEvtStructures_8h.html" target="_top" xlink:title="oncsEvtStructures.h">
<polygon fill="none" stroke="#000000" points="554.5,-171.5 554.5,-191.5 671.5,-191.5 671.5,-171.5 554.5,-171.5"/>
<text text-anchor="middle" x="613" y="-178.5" font-family="FreeSans" font-size="10.00" fill="#000000">oncsEvtStructures.h</text>
</a>
</g>
</g>
<!-- Node17&#45;&gt;Node19 -->
<g id="edge21" class="edge">
<title>Node17&#45;&gt;Node19</title>
<path fill="none" stroke="#191970" d="M613,-228.3095C613,-220.9335 613,-210.72 613,-201.715"/>
<polygon fill="#191970" stroke="#191970" points="616.5001,-201.6022 613,-191.6022 609.5001,-201.6023 616.5001,-201.6022"/>
</g>
<!-- Node20 -->
<g id="node20" class="node">
<title>Node20</title>
<polygon fill="none" stroke="#bfbfbf" points="728.5,-171.5 728.5,-191.5 767.5,-191.5 767.5,-171.5 728.5,-171.5"/>
<text text-anchor="middle" x="748" y="-178.5" font-family="FreeSans" font-size="10.00" fill="#000000">map</text>
</g>
<!-- Node17&#45;&gt;Node20 -->
<g id="edge23" class="edge">
<title>Node17&#45;&gt;Node20</title>
<path fill="none" stroke="#191970" d="M636.8245,-228.4408C659.7104,-218.7778 694.3352,-204.1585 718.8543,-193.8059"/>
<polygon fill="#191970" stroke="#191970" points="720.5052,-196.9082 728.3563,-189.794 717.7824,-190.4594 720.5052,-196.9082"/>
</g>
<!-- Node19&#45;&gt;Node18 -->
<g id="edge22" class="edge">
<title>Node19&#45;&gt;Node18</title>
<path fill="none" stroke="#191970" d="M620.6875,-171.3095C626.68,-163.3661 635.1549,-152.1319 642.3002,-142.6602"/>
<polygon fill="#191970" stroke="#191970" points="645.1507,-144.6933 648.379,-134.6022 639.5625,-140.4776 645.1507,-144.6933"/>
</g>
</g>
</svg>
