<?xml version="1.0" encoding="UTF-8" standalone="no"?>
<!DOCTYPE svg PUBLIC "-//W3C//DTD SVG 1.1//EN"
 "http://www.w3.org/Graphics/SVG/1.1/DTD/svg11.dtd">
<!-- Generated by graphviz version 2.40.1 (20161225.0304)
 -->
<!-- Title: RawCluster::set_chi2 Pages: 1 -->
<svg width="504pt" height="188pt"
 viewBox="0.00 0.00 504.00 188.00" xmlns="http://www.w3.org/2000/svg" xmlns:xlink="http://www.w3.org/1999/xlink">
<g id="graph0" class="graph" transform="scale(1 1) rotate(0) translate(4 184)">
<title>RawCluster::set_chi2</title>
<!-- Node1 -->
<g id="node1" class="node">
<title>Node1</title>
<polygon fill="#bfbfbf" stroke="#000000" points="0,-82.5 0,-102.5 121,-102.5 121,-82.5 0,-82.5"/>
<text text-anchor="middle" x="60.5" y="-89.5" font-family="FreeSans" font-size="10.00" fill="#000000">RawCluster::set_chi2</text>
</g>
<!-- Node2 -->
<g id="node2" class="node">
<title>Node2</title>
<g id="a_node2"><a xlink:href="../../d7/dce/classTreeMaker.html#ae86d85abb37a69817ded01d7a8f2f7db" target="_top" xlink:title="TreeMaker::CopyAndMakeClusters">
<polygon fill="none" stroke="#000000" points="157,-153.5 157,-173.5 346,-173.5 346,-153.5 157,-153.5"/>
<text text-anchor="middle" x="251.5" y="-160.5" font-family="FreeSans" font-size="10.00" fill="#000000">TreeMaker::CopyAndMakeClusters</text>
</a>
</g>
</g>
<!-- Node1&#45;&gt;Node2 -->
<g id="edge1" class="edge">
<title>Node1&#45;&gt;Node2</title>
<path fill="none" stroke="#191970" d="M84.4625,-108.0113C103.4432,-119.6446 131.0015,-135.1178 157,-144.5 166.9168,-148.0787 177.6758,-151.0468 188.2619,-153.4879"/>
<polygon fill="#191970" stroke="#191970" points="86.2144,-104.979 75.8782,-102.6523 82.5075,-110.9169 86.2144,-104.979"/>
</g>
<!-- Node4 -->
<g id="node4" class="node">
<title>Node4</title>
<g id="a_node4"><a xlink:href="../../dd/d75/classRawClusterBuilderTemplateEEMC.html#aa136844c4c61b778c808a8dc110b9041" target="_top" xlink:title="RawClusterBuilderTemplate\lEEMC::process_event">
<polygon fill="none" stroke="#000000" points="174,-102.5 174,-134.5 329,-134.5 329,-102.5 174,-102.5"/>
<text text-anchor="start" x="182" y="-121.5" font-family="FreeSans" font-size="10.00" fill="#000000">RawClusterBuilderTemplate</text>
<text text-anchor="middle" x="251.5" y="-109.5" font-family="FreeSans" font-size="10.00" fill="#000000">EEMC::process_event</text>
</a>
</g>
</g>
<!-- Node1&#45;&gt;Node4 -->
<g id="edge3" class="edge">
<title>Node1&#45;&gt;Node4</title>
<path fill="none" stroke="#191970" d="M131.1587,-102.1185C145.0491,-104.0093 159.6929,-106.0027 173.7995,-107.923"/>
<polygon fill="#191970" stroke="#191970" points="131.5768,-98.6432 121.196,-100.7623 130.6325,-105.5792 131.5768,-98.6432"/>
</g>
<!-- Node5 -->
<g id="node5" class="node">
<title>Node5</title>
<g id="a_node5"><a xlink:href="../../d8/d80/classRawClusterBuilderTemplateFEMC.html#a66594d22c29c0ee5c439121e816cf218" target="_top" xlink:title="RawClusterBuilderTemplate\lFEMC::process_event">
<polygon fill="none" stroke="#000000" points="174,-51.5 174,-83.5 329,-83.5 329,-51.5 174,-51.5"/>
<text text-anchor="start" x="182" y="-70.5" font-family="FreeSans" font-size="10.00" fill="#000000">RawClusterBuilderTemplate</text>
<text text-anchor="middle" x="251.5" y="-58.5" font-family="FreeSans" font-size="10.00" fill="#000000">FEMC::process_event</text>
</a>
</g>
</g>
<!-- Node1&#45;&gt;Node5 -->
<g id="edge4" class="edge">
<title>Node1&#45;&gt;Node5</title>
<path fill="none" stroke="#191970" d="M131.1587,-83.2515C145.0491,-81.4334 159.6929,-79.5166 173.7995,-77.6702"/>
<polygon fill="#191970" stroke="#191970" points="130.6572,-79.7872 121.196,-84.5555 131.5657,-86.728 130.6572,-79.7872"/>
</g>
<!-- Node6 -->
<g id="node6" class="node">
<title>Node6</title>
<g id="a_node6"><a xlink:href="../../d8/d5d/classRawClusterBuilderTemplate.html#a0c7c1981bbe39c660bff36304525272f" target="_top" xlink:title="RawClusterBuilderTemplate\l::process_event">
<polygon fill="none" stroke="#000000" points="174,-.5 174,-32.5 329,-32.5 329,-.5 174,-.5"/>
<text text-anchor="start" x="182" y="-19.5" font-family="FreeSans" font-size="10.00" fill="#000000">RawClusterBuilderTemplate</text>
<text text-anchor="middle" x="251.5" y="-7.5" font-family="FreeSans" font-size="10.00" fill="#000000">::process_event</text>
</a>
</g>
</g>
<!-- Node1&#45;&gt;Node6 -->
<g id="edge5" class="edge">
<title>Node1&#45;&gt;Node6</title>
<path fill="none" stroke="#191970" d="M86.1052,-77.3514C105.1663,-66.5449 132.087,-52.2567 157,-42.5 166.2688,-38.8701 176.2363,-35.5414 186.099,-32.5659"/>
<polygon fill="#191970" stroke="#191970" points="84.3486,-74.3241 77.4226,-82.3416 87.8367,-80.3931 84.3486,-74.3241"/>
</g>
<!-- Node3 -->
<g id="node3" class="node">
<title>Node3</title>
<g id="a_node3"><a xlink:href="../../d7/dce/classTreeMaker.html#a89a6f3a23de784d5f8d86ae91956aa69" target="_top" xlink:title="TreeMaker::process\l_event">
<polygon fill="none" stroke="#000000" points="382,-147.5 382,-179.5 496,-179.5 496,-147.5 382,-147.5"/>
<text text-anchor="start" x="390" y="-166.5" font-family="FreeSans" font-size="10.00" fill="#000000">TreeMaker::process</text>
<text text-anchor="middle" x="439" y="-154.5" font-family="FreeSans" font-size="10.00" fill="#000000">_event</text>
</a>
</g>
</g>
<!-- Node2&#45;&gt;Node3 -->
<g id="edge2" class="edge">
<title>Node2&#45;&gt;Node3</title>
<path fill="none" stroke="#191970" d="M356.3414,-163.5C365.0526,-163.5 373.6343,-163.5 381.7798,-163.5"/>
<polygon fill="#191970" stroke="#191970" points="356.074,-160.0001 346.074,-163.5 356.0739,-167.0001 356.074,-160.0001"/>
</g>
</g>
</svg>
