<?xml version="1.0" encoding="UTF-8" standalone="no"?>
<!DOCTYPE svg PUBLIC "-//W3C//DTD SVG 1.1//EN"
 "http://www.w3.org/Graphics/SVG/1.1/DTD/svg11.dtd">
<!-- Generated by graphviz version 2.40.1 (20161225.0304)
 -->
<!-- Title: PHG4BlockCellGeom::set_layer Pages: 1 -->
<svg width="499pt" height="64pt"
 viewBox="0.00 0.00 499.00 64.00" xmlns="http://www.w3.org/2000/svg" xmlns:xlink="http://www.w3.org/1999/xlink">
<g id="graph0" class="graph" transform="scale(1 1) rotate(0) translate(4 60)">
<title>PHG4BlockCellGeom::set_layer</title>
<!-- Node1 -->
<g id="node1" class="node">
<title>Node1</title>
<polygon fill="#bfbfbf" stroke="#000000" points="0,-.5 0,-32.5 127,-32.5 127,-.5 0,-.5"/>
<text text-anchor="start" x="8" y="-19.5" font-family="FreeSans" font-size="10.00" fill="#000000">PHG4BlockCellGeom::</text>
<text text-anchor="middle" x="63.5" y="-7.5" font-family="FreeSans" font-size="10.00" fill="#000000">set_layer</text>
</g>
<!-- Node2 -->
<g id="node2" class="node">
<title>Node2</title>
<g id="a_node2"><a xlink:href="../../d3/d78/classPHG4BlockCellGeomContainer.html#a172b6bade479d19eb8b60d3eb5177f92" target="_top" xlink:title="PHG4BlockCellGeomContainer\l::AddLayerCellGeom">
<polygon fill="none" stroke="#000000" points="163,-23.5 163,-55.5 334,-55.5 334,-23.5 163,-23.5"/>
<text text-anchor="start" x="171" y="-42.5" font-family="FreeSans" font-size="10.00" fill="#000000">PHG4BlockCellGeomContainer</text>
<text text-anchor="middle" x="248.5" y="-30.5" font-family="FreeSans" font-size="10.00" fill="#000000">::AddLayerCellGeom</text>
</a>
</g>
</g>
<!-- Node1&#45;&gt;Node2 -->
<g id="edge1" class="edge">
<title>Node1&#45;&gt;Node2</title>
<path fill="none" stroke="#191970" d="M137.2825,-25.673C145.6793,-26.7169 154.2908,-27.7875 162.8244,-28.8484"/>
<polygon fill="#191970" stroke="#191970" points="137.5219,-22.1759 127.1665,-24.4153 136.6583,-29.1224 137.5219,-22.1759"/>
</g>
<!-- Node3 -->
<g id="node3" class="node">
<title>Node3</title>
<g id="a_node3"><a xlink:href="../../df/d5e/classPHG4BlockCellReco.html#aa62bbe31407e5e4c80f541dbd5c18aa4" target="_top" xlink:title="module initialization">
<polygon fill="none" stroke="#000000" points="370,-.5 370,-32.5 491,-32.5 491,-.5 370,-.5"/>
<text text-anchor="start" x="378" y="-19.5" font-family="FreeSans" font-size="10.00" fill="#000000">PHG4BlockCellReco::</text>
<text text-anchor="middle" x="430.5" y="-7.5" font-family="FreeSans" font-size="10.00" fill="#000000">InitRun</text>
</a>
</g>
</g>
<!-- Node1&#45;&gt;Node3 -->
<g id="edge3" class="edge">
<title>Node1&#45;&gt;Node3</title>
<path fill="none" stroke="#191970" d="M137.3095,-14.851C145.9694,-14.7065 154.6801,-14.5836 163,-14.5 238.9962,-13.7363 258.0041,-13.7126 334,-14.5 345.5618,-14.6198 357.9014,-14.8203 369.7598,-15.0493"/>
<polygon fill="#191970" stroke="#191970" points="137.1298,-11.3536 127.1931,-15.0295 137.2533,-18.3525 137.1298,-11.3536"/>
</g>
<!-- Node2&#45;&gt;Node3 -->
<g id="edge2" class="edge">
<title>Node2&#45;&gt;Node3</title>
<path fill="none" stroke="#191970" d="M344.3722,-27.3843C353.0554,-26.287 361.6792,-25.1971 369.9263,-24.1549"/>
<polygon fill="#191970" stroke="#191970" points="343.6529,-23.9473 334.1707,-28.6735 344.5306,-30.892 343.6529,-23.9473"/>
</g>
</g>
</svg>
