<?xml version="1.0" encoding="UTF-8" standalone="no"?>
<!DOCTYPE svg PUBLIC "-//W3C//DTD SVG 1.1//EN"
 "http://www.w3.org/Graphics/SVG/1.1/DTD/svg11.dtd">
<!-- Generated by graphviz version 2.40.1 (20161225.0304)
 -->
<!-- Title: analysis/blob/master/Prototype4/HCal/macros/ShowerCalib/extractMIPEnergy.C Pages: 1 -->
<svg width="792pt" height="110pt"
 viewBox="0.00 0.00 792.00 110.00" xmlns="http://www.w3.org/2000/svg" xmlns:xlink="http://www.w3.org/1999/xlink">
<g id="graph0" class="graph" transform="scale(1 1) rotate(0) translate(4 106)">
<title>analysis/blob/master/Prototype4/HCal/macros/ShowerCalib/extractMIPEnergy.C</title>
<!-- Node1 -->
<g id="node1" class="node">
<title>Node1</title>
<polygon fill="#bfbfbf" stroke="#000000" points="248.5,-57.5 248.5,-101.5 432.5,-101.5 432.5,-57.5 248.5,-57.5"/>
<text text-anchor="start" x="256.5" y="-88.5" font-family="FreeSans" font-size="10.00" fill="#000000">analysis/blob/master</text>
<text text-anchor="start" x="256.5" y="-76.5" font-family="FreeSans" font-size="10.00" fill="#000000">/Prototype4/HCal/macros</text>
<text text-anchor="middle" x="340.5" y="-64.5" font-family="FreeSans" font-size="10.00" fill="#000000">/ShowerCalib/extractMIPEnergy.C</text>
</g>
<!-- Node2 -->
<g id="node2" class="node">
<title>Node2</title>
<polygon fill="none" stroke="#bfbfbf" points="0,-.5 0,-20.5 45,-20.5 45,-.5 0,-.5"/>
<text text-anchor="middle" x="22.5" y="-7.5" font-family="FreeSans" font-size="10.00" fill="#000000">string</text>
</g>
<!-- Node1&#45;&gt;Node2 -->
<g id="edge1" class="edge">
<title>Node1&#45;&gt;Node2</title>
<path fill="none" stroke="#191970" d="M248.3657,-63.763C194.2802,-53.8083 124.5286,-39.7377 54.9075,-21.166"/>
<polygon fill="#191970" stroke="#191970" points="55.6527,-17.742 45.0861,-18.5156 53.8288,-24.5002 55.6527,-17.742"/>
</g>
<!-- Node3 -->
<g id="node3" class="node">
<title>Node3</title>
<polygon fill="none" stroke="#bfbfbf" points="63,-.5 63,-20.5 126,-20.5 126,-.5 63,-.5"/>
<text text-anchor="middle" x="94.5" y="-7.5" font-family="FreeSans" font-size="10.00" fill="#000000">TString.h</text>
</g>
<!-- Node1&#45;&gt;Node3 -->
<g id="edge2" class="edge">
<title>Node1&#45;&gt;Node3</title>
<path fill="none" stroke="#191970" d="M261.9877,-57.4783C220.1385,-45.7401 170.3484,-31.7746 135.9902,-22.1375"/>
<polygon fill="#191970" stroke="#191970" points="136.8628,-18.7472 126.2891,-19.4164 134.9722,-25.4871 136.8628,-18.7472"/>
</g>
<!-- Node4 -->
<g id="node4" class="node">
<title>Node4</title>
<polygon fill="none" stroke="#bfbfbf" points="144.5,-.5 144.5,-20.5 194.5,-20.5 194.5,-.5 144.5,-.5"/>
<text text-anchor="middle" x="169.5" y="-7.5" font-family="FreeSans" font-size="10.00" fill="#000000">TFile.h</text>
</g>
<!-- Node1&#45;&gt;Node4 -->
<g id="edge3" class="edge">
<title>Node1&#45;&gt;Node4</title>
<path fill="none" stroke="#191970" d="M285.9244,-57.4783C259.0695,-46.6421 227.5106,-33.9078 204.0294,-24.4329"/>
<polygon fill="#191970" stroke="#191970" points="205.0811,-21.0831 194.4979,-20.5869 202.4617,-27.5746 205.0811,-21.0831"/>
</g>
<!-- Node5 -->
<g id="node5" class="node">
<title>Node5</title>
<polygon fill="none" stroke="#bfbfbf" points="213,-.5 213,-20.5 264,-20.5 264,-.5 213,-.5"/>
<text text-anchor="middle" x="238.5" y="-7.5" font-family="FreeSans" font-size="10.00" fill="#000000">TH2F.h</text>
</g>
<!-- Node1&#45;&gt;Node5 -->
<g id="edge4" class="edge">
<title>Node1&#45;&gt;Node5</title>
<path fill="none" stroke="#191970" d="M307.9461,-57.4783C292.9286,-47.3194 275.4449,-35.4922 261.7773,-26.2464"/>
<polygon fill="#191970" stroke="#191970" points="263.655,-23.291 253.411,-20.5869 259.7328,-29.089 263.655,-23.291"/>
</g>
<!-- Node6 -->
<g id="node6" class="node">
<title>Node6</title>
<polygon fill="none" stroke="#bfbfbf" points="282,-.5 282,-20.5 333,-20.5 333,-.5 282,-.5"/>
<text text-anchor="middle" x="307.5" y="-7.5" font-family="FreeSans" font-size="10.00" fill="#000000">TH1F.h</text>
</g>
<!-- Node1&#45;&gt;Node6 -->
<g id="edge5" class="edge">
<title>Node1&#45;&gt;Node6</title>
<path fill="none" stroke="#191970" d="M329.8769,-57.2882C325.6517,-48.4535 320.835,-38.3823 316.7555,-29.8525"/>
<polygon fill="#191970" stroke="#191970" points="319.8569,-28.2249 312.3848,-20.7137 313.5419,-31.2451 319.8569,-28.2249"/>
</g>
<!-- Node7 -->
<g id="node7" class="node">
<title>Node7</title>
<polygon fill="none" stroke="#bfbfbf" points="351,-.5 351,-20.5 396,-20.5 396,-.5 351,-.5"/>
<text text-anchor="middle" x="373.5" y="-7.5" font-family="FreeSans" font-size="10.00" fill="#000000">TF1.h</text>
</g>
<!-- Node1&#45;&gt;Node7 -->
<g id="edge6" class="edge">
<title>Node1&#45;&gt;Node7</title>
<path fill="none" stroke="#191970" d="M351.1231,-57.2882C355.3483,-48.4535 360.165,-38.3823 364.2445,-29.8525"/>
<polygon fill="#191970" stroke="#191970" points="367.4581,-31.2451 368.6152,-20.7137 361.1431,-28.2249 367.4581,-31.2451"/>
</g>
<!-- Node8 -->
<g id="node8" class="node">
<title>Node8</title>
<polygon fill="none" stroke="#bfbfbf" points="414,-.5 414,-20.5 483,-20.5 483,-.5 414,-.5"/>
<text text-anchor="middle" x="448.5" y="-7.5" font-family="FreeSans" font-size="10.00" fill="#000000">TCanvas.h</text>
</g>
<!-- Node1&#45;&gt;Node8 -->
<g id="edge7" class="edge">
<title>Node1&#45;&gt;Node8</title>
<path fill="none" stroke="#191970" d="M374.9688,-57.4783C391.0211,-47.2226 409.7347,-35.2667 424.2658,-25.9829"/>
<polygon fill="#191970" stroke="#191970" points="426.1693,-28.9202 432.7119,-20.5869 422.4005,-23.0214 426.1693,-28.9202"/>
</g>
<!-- Node9 -->
<g id="node9" class="node">
<title>Node9</title>
<polygon fill="none" stroke="#bfbfbf" points="501,-.5 501,-20.5 632,-20.5 632,-.5 501,-.5"/>
<text text-anchor="middle" x="566.5" y="-7.5" font-family="FreeSans" font-size="10.00" fill="#000000">TGraphAsymmErrors.h</text>
</g>
<!-- Node1&#45;&gt;Node9 -->
<g id="edge8" class="edge">
<title>Node1&#45;&gt;Node9</title>
<path fill="none" stroke="#191970" d="M412.6292,-57.4783C449.2307,-46.3035 492.4439,-33.11 523.7422,-23.5544"/>
<polygon fill="#191970" stroke="#191970" points="524.9197,-26.8544 533.4619,-20.5869 522.8757,-20.1595 524.9197,-26.8544"/>
</g>
<!-- Node10 -->
<g id="node10" class="node">
<title>Node10</title>
<polygon fill="none" stroke="#bfbfbf" points="650.5,-.5 650.5,-20.5 710.5,-20.5 710.5,-.5 650.5,-.5"/>
<text text-anchor="middle" x="680.5" y="-7.5" font-family="FreeSans" font-size="10.00" fill="#000000">iostream</text>
</g>
<!-- Node1&#45;&gt;Node10 -->
<g id="edge9" class="edge">
<title>Node1&#45;&gt;Node10</title>
<path fill="none" stroke="#191970" d="M432.741,-63.327C489.9276,-52.8872 565.0881,-38.4242 640.2039,-21.1905"/>
<polygon fill="#191970" stroke="#191970" points="641.3646,-24.5145 650.3196,-18.8525 639.7883,-17.6943 641.3646,-24.5145"/>
</g>
<!-- Node11 -->
<g id="node11" class="node">
<title>Node11</title>
<polygon fill="none" stroke="#bfbfbf" points="729,-.5 729,-20.5 784,-20.5 784,-.5 729,-.5"/>
<text text-anchor="middle" x="756.5" y="-7.5" font-family="FreeSans" font-size="10.00" fill="#000000">fstream</text>
</g>
<!-- Node1&#45;&gt;Node11 -->
<g id="edge10" class="edge">
<title>Node1&#45;&gt;Node11</title>
<path fill="none" stroke="#191970" d="M432.6004,-68.5172C507.303,-58.862 615.4075,-43.1999 718.73,-20.9561"/>
<polygon fill="#191970" stroke="#191970" points="719.6861,-24.33 728.7127,-18.7829 718.197,-17.4902 719.6861,-24.33"/>
</g>
</g>
</svg>
