<?xml version="1.0" encoding="UTF-8" standalone="no"?>
<!DOCTYPE svg PUBLIC "-//W3C//DTD SVG 1.1//EN"
 "http://www.w3.org/Graphics/SVG/1.1/DTD/svg11.dtd">
<!-- Generated by graphviz version 2.40.1 (20161225.0304)
 -->
<!-- Title: coresoftware/blob/master/simulation/g4simulation/g4detectors/PHG4CylinderCell.h Pages: 1 -->
<svg width="1092pt" height="296pt"
 viewBox="0.00 0.00 1091.50 296.00" xmlns="http://www.w3.org/2000/svg" xmlns:xlink="http://www.w3.org/1999/xlink">
<g id="graph0" class="graph" transform="scale(1 1) rotate(0) translate(4 292)">
<title>coresoftware/blob/master/simulation/g4simulation/g4detectors/PHG4CylinderCell.h</title>
<!-- Node1 -->
<g id="node1" class="node">
<title>Node1</title>
<polygon fill="#bfbfbf" stroke="#000000" points="478.5,-243.5 478.5,-287.5 661.5,-287.5 661.5,-243.5 478.5,-243.5"/>
<text text-anchor="start" x="486.5" y="-274.5" font-family="FreeSans" font-size="10.00" fill="#000000">coresoftware/blob/master</text>
<text text-anchor="start" x="486.5" y="-262.5" font-family="FreeSans" font-size="10.00" fill="#000000">/simulation/g4simulation</text>
<text text-anchor="middle" x="570" y="-250.5" font-family="FreeSans" font-size="10.00" fill="#000000">/g4detectors/PHG4CylinderCell.h</text>
</g>
<!-- Node2 -->
<g id="node2" class="node">
<title>Node2</title>
<g id="a_node2"><a xlink:href="../../de/d3c/DumpPHG4CylinderCellContainer_8cc.html" target="_top" xlink:title="coresoftware/blob/master\l/offline/packages/NodeDump\l/DumpPHG4CylinderCellContainer.cc">
<polygon fill="none" stroke="#000000" points="215,-162.5 215,-206.5 417,-206.5 417,-162.5 215,-162.5"/>
<text text-anchor="start" x="223" y="-193.5" font-family="FreeSans" font-size="10.00" fill="#000000">coresoftware/blob/master</text>
<text text-anchor="start" x="223" y="-181.5" font-family="FreeSans" font-size="10.00" fill="#000000">/offline/packages/NodeDump</text>
<text text-anchor="middle" x="316" y="-169.5" font-family="FreeSans" font-size="10.00" fill="#000000">/DumpPHG4CylinderCellContainer.cc</text>
</a>
</g>
</g>
<!-- Node1&#45;&gt;Node2 -->
<g id="edge1" class="edge">
<title>Node1&#45;&gt;Node2</title>
<path fill="none" stroke="#191970" d="M491.0483,-240.3225C457.1147,-229.5012 417.8132,-216.968 385.0574,-206.5222"/>
<polygon fill="#191970" stroke="#191970" points="490.3382,-243.7696 500.9289,-243.4734 492.465,-237.1005 490.3382,-243.7696"/>
</g>
<!-- Node3 -->
<g id="node3" class="node">
<title>Node3</title>
<g id="a_node3"><a xlink:href="../../d6/dfd/PHG4CylinderCellContainer_8cc.html" target="_top" xlink:title="coresoftware/blob/master\l/simulation/g4simulation\l/g4detectors/PHG4CylinderCellContainer.cc">
<polygon fill="none" stroke="#000000" points="0,-81.5 0,-125.5 236,-125.5 236,-81.5 0,-81.5"/>
<text text-anchor="start" x="8" y="-112.5" font-family="FreeSans" font-size="10.00" fill="#000000">coresoftware/blob/master</text>
<text text-anchor="start" x="8" y="-100.5" font-family="FreeSans" font-size="10.00" fill="#000000">/simulation/g4simulation</text>
<text text-anchor="middle" x="118" y="-88.5" font-family="FreeSans" font-size="10.00" fill="#000000">/g4detectors/PHG4CylinderCellContainer.cc</text>
</a>
</g>
</g>
<!-- Node1&#45;&gt;Node3 -->
<g id="edge2" class="edge">
<title>Node1&#45;&gt;Node3</title>
<path fill="none" stroke="#191970" d="M511.3441,-238.6401C494.8754,-229.7511 477.517,-219.0178 463,-207 443.0551,-190.4887 448.2722,-175.2049 426,-162 421.7059,-159.4541 321.1241,-140.6035 236.058,-124.978"/>
<polygon fill="#191970" stroke="#191970" points="509.8974,-241.8336 520.3781,-243.3851 513.1525,-235.6365 509.8974,-241.8336"/>
</g>
<!-- Node4 -->
<g id="node4" class="node">
<title>Node4</title>
<g id="a_node4"><a xlink:href="../../d1/d3b/PHG4CylinderCellv1_8h.html" target="_top" xlink:title="coresoftware/blob/master\l/simulation/g4simulation\l/g4detectors/PHG4CylinderCellv1.h">
<polygon fill="none" stroke="#000000" points="472.5,-162.5 472.5,-206.5 667.5,-206.5 667.5,-162.5 472.5,-162.5"/>
<text text-anchor="start" x="480.5" y="-193.5" font-family="FreeSans" font-size="10.00" fill="#000000">coresoftware/blob/master</text>
<text text-anchor="start" x="480.5" y="-181.5" font-family="FreeSans" font-size="10.00" fill="#000000">/simulation/g4simulation</text>
<text text-anchor="middle" x="570" y="-169.5" font-family="FreeSans" font-size="10.00" fill="#000000">/g4detectors/PHG4CylinderCellv1.h</text>
</a>
</g>
</g>
<!-- Node1&#45;&gt;Node4 -->
<g id="edge3" class="edge">
<title>Node1&#45;&gt;Node4</title>
<path fill="none" stroke="#191970" d="M570,-233.2457C570,-224.3118 570,-214.8188 570,-206.6068"/>
<polygon fill="#191970" stroke="#191970" points="566.5001,-233.3664 570,-243.3664 573.5001,-233.3664 566.5001,-233.3664"/>
</g>
<!-- Node10 -->
<g id="node10" class="node">
<title>Node10</title>
<g id="a_node10"><a xlink:href="../../d8/dc1/PHG4ForwardCalCellReco_8cc.html" target="_top" xlink:title="coresoftware/blob/master\l/simulation/g4simulation\l/g4detectors/PHG4ForwardCalCellReco.cc">
<polygon fill="none" stroke="#000000" points="848,-.5 848,-44.5 1074,-44.5 1074,-.5 848,-.5"/>
<text text-anchor="start" x="856" y="-31.5" font-family="FreeSans" font-size="10.00" fill="#000000">coresoftware/blob/master</text>
<text text-anchor="start" x="856" y="-19.5" font-family="FreeSans" font-size="10.00" fill="#000000">/simulation/g4simulation</text>
<text text-anchor="middle" x="961" y="-7.5" font-family="FreeSans" font-size="10.00" fill="#000000">/g4detectors/PHG4ForwardCalCellReco.cc</text>
</a>
</g>
</g>
<!-- Node1&#45;&gt;Node10 -->
<g id="edge11" class="edge">
<title>Node1&#45;&gt;Node10</title>
<path fill="none" stroke="#191970" d="M661.5753,-240.3378C729.6182,-218.3149 821.8853,-181.1242 889,-126 916.5712,-103.3546 938.2218,-67.5867 950.3136,-44.5876"/>
<polygon fill="#191970" stroke="#191970" points="660.184,-237.1076 651.7178,-243.4774 662.3084,-243.7775 660.184,-237.1076"/>
</g>
<!-- Node11 -->
<g id="node11" class="node">
<title>Node11</title>
<g id="a_node11"><a xlink:href="../../d3/d08/G4CellNtuple_8cc.html" target="_top" xlink:title="coresoftware/blob/master\l/simulation/g4simulation\l/g4histos/G4CellNtuple.cc">
<polygon fill="none" stroke="#000000" points="936.5,-162.5 936.5,-206.5 1083.5,-206.5 1083.5,-162.5 936.5,-162.5"/>
<text text-anchor="start" x="944.5" y="-193.5" font-family="FreeSans" font-size="10.00" fill="#000000">coresoftware/blob/master</text>
<text text-anchor="start" x="944.5" y="-181.5" font-family="FreeSans" font-size="10.00" fill="#000000">/simulation/g4simulation</text>
<text text-anchor="middle" x="1010" y="-169.5" font-family="FreeSans" font-size="10.00" fill="#000000">/g4histos/G4CellNtuple.cc</text>
</a>
</g>
</g>
<!-- Node1&#45;&gt;Node11 -->
<g id="edge12" class="edge">
<title>Node1&#45;&gt;Node11</title>
<path fill="none" stroke="#191970" d="M671.7842,-250.9438C742.3105,-240.2819 838.2207,-224.6384 922,-207 926.6293,-206.0254 931.3821,-204.9702 936.1659,-203.8667"/>
<polygon fill="#191970" stroke="#191970" points="670.9356,-247.532 661.5674,-252.4804 671.9767,-254.4541 670.9356,-247.532"/>
</g>
<!-- Node4&#45;&gt;Node3 -->
<g id="edge4" class="edge">
<title>Node4&#45;&gt;Node3</title>
<path fill="none" stroke="#191970" d="M462.2791,-162.6107C461.1808,-162.4053 460.0875,-162.2016 459,-162 364.1687,-144.4173 340.0408,-142.4127 245,-126 242.1315,-125.5046 239.2268,-125.0016 236.2971,-124.4928"/>
<polygon fill="#191970" stroke="#191970" points="461.8019,-166.0825 472.2784,-164.5038 463.1041,-159.2046 461.8019,-166.0825"/>
</g>
<!-- Node5 -->
<g id="node5" class="node">
<title>Node5</title>
<g id="a_node5"><a xlink:href="../../dd/da9/PHG4CylinderCellv1_8cc.html" target="_top" xlink:title="coresoftware/blob/master\l/simulation/g4simulation\l/g4detectors/PHG4CylinderCellv1.cc">
<polygon fill="none" stroke="#000000" points="254,-81.5 254,-125.5 454,-125.5 454,-81.5 254,-81.5"/>
<text text-anchor="start" x="262" y="-112.5" font-family="FreeSans" font-size="10.00" fill="#000000">coresoftware/blob/master</text>
<text text-anchor="start" x="262" y="-100.5" font-family="FreeSans" font-size="10.00" fill="#000000">/simulation/g4simulation</text>
<text text-anchor="middle" x="354" y="-88.5" font-family="FreeSans" font-size="10.00" fill="#000000">/g4detectors/PHG4CylinderCellv1.cc</text>
</a>
</g>
</g>
<!-- Node4&#45;&gt;Node5 -->
<g id="edge5" class="edge">
<title>Node4&#45;&gt;Node5</title>
<path fill="none" stroke="#191970" d="M501.7431,-158.9036C473.1434,-148.1788 440.2227,-135.8335 412.7259,-125.5222"/>
<polygon fill="#191970" stroke="#191970" points="500.6701,-162.2392 511.2624,-162.4734 503.128,-155.6849 500.6701,-162.2392"/>
</g>
<!-- Node6 -->
<g id="node6" class="node">
<title>Node6</title>
<g id="a_node6"><a xlink:href="../../d3/dc3/PHG4CylinderCellv2_8h.html" target="_top" xlink:title="coresoftware/blob/master\l/simulation/g4simulation\l/g4detectors/PHG4CylinderCellv2.h">
<polygon fill="none" stroke="#000000" points="472.5,-81.5 472.5,-125.5 667.5,-125.5 667.5,-81.5 472.5,-81.5"/>
<text text-anchor="start" x="480.5" y="-112.5" font-family="FreeSans" font-size="10.00" fill="#000000">coresoftware/blob/master</text>
<text text-anchor="start" x="480.5" y="-100.5" font-family="FreeSans" font-size="10.00" fill="#000000">/simulation/g4simulation</text>
<text text-anchor="middle" x="570" y="-88.5" font-family="FreeSans" font-size="10.00" fill="#000000">/g4detectors/PHG4CylinderCellv2.h</text>
</a>
</g>
</g>
<!-- Node4&#45;&gt;Node6 -->
<g id="edge6" class="edge">
<title>Node4&#45;&gt;Node6</title>
<path fill="none" stroke="#191970" d="M570,-152.2457C570,-143.3118 570,-133.8188 570,-125.6068"/>
<polygon fill="#191970" stroke="#191970" points="566.5001,-152.3664 570,-162.3664 573.5001,-152.3664 566.5001,-152.3664"/>
</g>
<!-- Node8 -->
<g id="node8" class="node">
<title>Node8</title>
<g id="a_node8"><a xlink:href="../../da/ded/PHG4CylinderCellv3_8h.html" target="_top" xlink:title="coresoftware/blob/master\l/simulation/g4simulation\l/g4detectors/PHG4CylinderCellv3.h">
<polygon fill="none" stroke="#000000" points="685.5,-81.5 685.5,-125.5 880.5,-125.5 880.5,-81.5 685.5,-81.5"/>
<text text-anchor="start" x="693.5" y="-112.5" font-family="FreeSans" font-size="10.00" fill="#000000">coresoftware/blob/master</text>
<text text-anchor="start" x="693.5" y="-100.5" font-family="FreeSans" font-size="10.00" fill="#000000">/simulation/g4simulation</text>
<text text-anchor="middle" x="783" y="-88.5" font-family="FreeSans" font-size="10.00" fill="#000000">/g4detectors/PHG4CylinderCellv3.h</text>
</a>
</g>
</g>
<!-- Node4&#45;&gt;Node8 -->
<g id="edge8" class="edge">
<title>Node4&#45;&gt;Node8</title>
<path fill="none" stroke="#191970" d="M637.3089,-158.9036C665.5114,-148.1788 697.9749,-135.8335 725.0897,-125.5222"/>
<polygon fill="#191970" stroke="#191970" points="636.0247,-155.6474 627.9218,-162.4734 638.5129,-162.1903 636.0247,-155.6474"/>
</g>
<!-- Node7 -->
<g id="node7" class="node">
<title>Node7</title>
<g id="a_node7"><a xlink:href="../../d3/d0e/PHG4CylinderCellv2_8cc.html" target="_top" xlink:title="coresoftware/blob/master\l/simulation/g4simulation\l/g4detectors/PHG4CylinderCellv2.cc">
<polygon fill="none" stroke="#000000" points="412,-.5 412,-44.5 612,-44.5 612,-.5 412,-.5"/>
<text text-anchor="start" x="420" y="-31.5" font-family="FreeSans" font-size="10.00" fill="#000000">coresoftware/blob/master</text>
<text text-anchor="start" x="420" y="-19.5" font-family="FreeSans" font-size="10.00" fill="#000000">/simulation/g4simulation</text>
<text text-anchor="middle" x="512" y="-7.5" font-family="FreeSans" font-size="10.00" fill="#000000">/g4detectors/PHG4CylinderCellv2.cc</text>
</a>
</g>
</g>
<!-- Node6&#45;&gt;Node7 -->
<g id="edge7" class="edge">
<title>Node6&#45;&gt;Node7</title>
<path fill="none" stroke="#191970" d="M548.1505,-72.986C541.3977,-63.5554 534.0933,-53.3544 527.8296,-44.6068"/>
<polygon fill="#191970" stroke="#191970" points="545.4836,-75.2735 554.1512,-81.3664 551.175,-71.1982 545.4836,-75.2735"/>
</g>
<!-- Node9 -->
<g id="node9" class="node">
<title>Node9</title>
<g id="a_node9"><a xlink:href="../../d3/d19/PHG4CylinderCellv3_8cc.html" target="_top" xlink:title="coresoftware/blob/master\l/simulation/g4simulation\l/g4detectors/PHG4CylinderCellv3.cc">
<polygon fill="none" stroke="#000000" points="630,-.5 630,-44.5 830,-44.5 830,-.5 630,-.5"/>
<text text-anchor="start" x="638" y="-31.5" font-family="FreeSans" font-size="10.00" fill="#000000">coresoftware/blob/master</text>
<text text-anchor="start" x="638" y="-19.5" font-family="FreeSans" font-size="10.00" fill="#000000">/simulation/g4simulation</text>
<text text-anchor="middle" x="730" y="-7.5" font-family="FreeSans" font-size="10.00" fill="#000000">/g4detectors/PHG4CylinderCellv3.cc</text>
</a>
</g>
</g>
<!-- Node8&#45;&gt;Node9 -->
<g id="edge9" class="edge">
<title>Node8&#45;&gt;Node9</title>
<path fill="none" stroke="#191970" d="M763.0341,-72.986C756.8634,-63.5554 750.1887,-53.3544 744.465,-44.6068"/>
<polygon fill="#191970" stroke="#191970" points="760.1134,-74.9149 768.5175,-81.3664 765.971,-71.0821 760.1134,-74.9149"/>
</g>
<!-- Node8&#45;&gt;Node10 -->
<g id="edge10" class="edge">
<title>Node8&#45;&gt;Node10</title>
<path fill="none" stroke="#191970" d="M840.9835,-77.1143C864.0759,-66.6059 890.3524,-54.6486 912.4195,-44.6068"/>
<polygon fill="#191970" stroke="#191970" points="839.2915,-74.0388 831.6393,-81.3664 842.1909,-80.4101 839.2915,-74.0388"/>
</g>
</g>
</svg>
