<?xml version="1.0" encoding="UTF-8" standalone="no"?>
<!DOCTYPE svg PUBLIC "-//W3C//DTD SVG 1.1//EN"
 "http://www.w3.org/Graphics/SVG/1.1/DTD/svg11.dtd">
<!-- Generated by graphviz version 2.40.1 (20161225.0304)
 -->
<!-- Title: HijJet2::pmsg Pages: 1 -->
<svg width="335pt" height="107pt"
 viewBox="0.00 0.00 335.00 107.00" xmlns="http://www.w3.org/2000/svg" xmlns:xlink="http://www.w3.org/1999/xlink">
<g id="graph0" class="graph" transform="scale(1 1) rotate(0) translate(4 103)">
<title>HijJet2::pmsg</title>
<!-- Node1 -->
<g id="node1" class="node">
<title>Node1</title>
<polygon fill="#bfbfbf" stroke="#000000" points="0,-39.5 0,-59.5 83,-59.5 83,-39.5 0,-39.5"/>
<text text-anchor="middle" x="41.5" y="-46.5" font-family="FreeSans" font-size="10.00" fill="#000000">HijJet2::pmsg</text>
</g>
<!-- Node2 -->
<g id="node2" class="node">
<title>Node2</title>
<g id="a_node2"><a xlink:href="../../d4/d9b/classHijJet2.html#aa69264ee625bc6a1806804f4de0bfd0b" target="_top" xlink:title="HijJet2::init">
<polygon fill="none" stroke="#000000" points="120,-78.5 120,-98.5 192,-98.5 192,-78.5 120,-78.5"/>
<text text-anchor="middle" x="156" y="-85.5" font-family="FreeSans" font-size="10.00" fill="#000000">HijJet2::init</text>
</a>
</g>
</g>
<!-- Node1&#45;&gt;Node2 -->
<g id="edge1" class="edge">
<title>Node1&#45;&gt;Node2</title>
<path fill="none" stroke="#191970" d="M70.9866,-59.5435C85.0101,-64.32 101.966,-70.0954 117.034,-75.2277"/>
<polygon fill="#191970" stroke="#191970" points="116.0189,-78.5794 126.6133,-78.4906 118.2759,-71.9532 116.0189,-78.5794"/>
</g>
<!-- Node4 -->
<g id="node4" class="node">
<title>Node4</title>
<g id="a_node4"><a xlink:href="../../d4/d9b/classHijJet2.html#a7a0393e153cf2a4e9e1fb4ddac4b93ec" target="_top" xlink:title="HijJet2::lenI">
<polygon fill="none" stroke="#000000" points="119,-39.5 119,-59.5 193,-59.5 193,-39.5 119,-39.5"/>
<text text-anchor="middle" x="156" y="-46.5" font-family="FreeSans" font-size="10.00" fill="#000000">HijJet2::lenI</text>
</a>
</g>
</g>
<!-- Node1&#45;&gt;Node4 -->
<g id="edge3" class="edge">
<title>Node1&#45;&gt;Node4</title>
<path fill="none" stroke="#191970" d="M83.161,-49.5C91.4345,-49.5 100.1782,-49.5 108.6261,-49.5"/>
<polygon fill="#191970" stroke="#191970" points="108.7324,-53.0001 118.7324,-49.5 108.7324,-46.0001 108.7324,-53.0001"/>
</g>
<!-- Node5 -->
<g id="node5" class="node">
<title>Node5</title>
<g id="a_node5"><a xlink:href="../../d4/d9b/classHijJet2.html#ae43f6d21e74df39212bf8a39c4aea753" target="_top" xlink:title="HijJet2::lenJ">
<polygon fill="none" stroke="#000000" points="119,-.5 119,-20.5 193,-20.5 193,-.5 119,-.5"/>
<text text-anchor="middle" x="156" y="-7.5" font-family="FreeSans" font-size="10.00" fill="#000000">HijJet2::lenJ</text>
</a>
</g>
</g>
<!-- Node1&#45;&gt;Node5 -->
<g id="edge4" class="edge">
<title>Node1&#45;&gt;Node5</title>
<path fill="none" stroke="#191970" d="M70.9866,-39.4565C85.0101,-34.68 101.966,-28.9046 117.034,-23.7723"/>
<polygon fill="#191970" stroke="#191970" points="118.2759,-27.0468 126.6133,-20.5094 116.0189,-20.4206 118.2759,-27.0468"/>
</g>
<!-- Node3 -->
<g id="node3" class="node">
<title>Node3</title>
<g id="a_node3"><a xlink:href="../../de/dd8/HijJet2_8h.html#ad143d13baf59d2ff4f619b9909295da4" target="_top" xlink:title="hijjet2_address_">
<polygon fill="none" stroke="#000000" points="229,-78.5 229,-98.5 327,-98.5 327,-78.5 229,-78.5"/>
<text text-anchor="middle" x="278" y="-85.5" font-family="FreeSans" font-size="10.00" fill="#000000">hijjet2_address_</text>
</a>
</g>
</g>
<!-- Node2&#45;&gt;Node3 -->
<g id="edge2" class="edge">
<title>Node2&#45;&gt;Node3</title>
<path fill="none" stroke="#191970" d="M192.2737,-88.5C200.6431,-88.5 209.76,-88.5 218.8232,-88.5"/>
<polygon fill="#191970" stroke="#191970" points="218.9904,-92.0001 228.9904,-88.5 218.9903,-85.0001 218.9904,-92.0001"/>
</g>
</g>
</svg>
