<?xml version="1.0" encoding="UTF-8" standalone="no"?>
<!DOCTYPE svg PUBLIC "-//W3C//DTD SVG 1.1//EN"
 "http://www.w3.org/Graphics/SVG/1.1/DTD/svg11.dtd">
<!-- Generated by graphviz version 2.40.1 (20161225.0304)
 -->
<!-- Title: analysis/blob/master/TPC/groot/ATrace.C Pages: 1 -->
<svg width="353pt" height="155pt"
 viewBox="0.00 0.00 352.50 155.00" xmlns="http://www.w3.org/2000/svg" xmlns:xlink="http://www.w3.org/1999/xlink">
<g id="graph0" class="graph" transform="scale(1 1) rotate(0) translate(4 151)">
<title>analysis/blob/master/TPC/groot/ATrace.C</title>
<!-- Node1 -->
<g id="node1" class="node">
<title>Node1</title>
<polygon fill="#bfbfbf" stroke="#000000" points="106.5,-114.5 106.5,-146.5 228.5,-146.5 228.5,-114.5 106.5,-114.5"/>
<text text-anchor="start" x="114.5" y="-133.5" font-family="FreeSans" font-size="10.00" fill="#000000">analysis/blob/master</text>
<text text-anchor="middle" x="167.5" y="-121.5" font-family="FreeSans" font-size="10.00" fill="#000000">/TPC/groot/ATrace.C</text>
</g>
<!-- Node2 -->
<g id="node2" class="node">
<title>Node2</title>
<g id="a_node2"><a xlink:href="../../d8/dc4/ATrace_8h.html" target="_top" xlink:title="ATrace.h">
<polygon fill="none" stroke="#000000" points="0,-57.5 0,-77.5 59,-77.5 59,-57.5 0,-57.5"/>
<text text-anchor="middle" x="29.5" y="-64.5" font-family="FreeSans" font-size="10.00" fill="#000000">ATrace.h</text>
</a>
</g>
</g>
<!-- Node1&#45;&gt;Node2 -->
<g id="edge1" class="edge">
<title>Node1&#45;&gt;Node2</title>
<path fill="none" stroke="#191970" d="M132.3197,-114.4394C110.2983,-104.3862 82.1711,-91.5455 60.9036,-81.8364"/>
<polygon fill="#191970" stroke="#191970" points="62.2118,-78.5862 51.6613,-77.6171 59.3047,-84.954 62.2118,-78.5862"/>
</g>
<!-- Node4 -->
<g id="node4" class="node">
<title>Node4</title>
<polygon fill="none" stroke="#bfbfbf" points="77,-57.5 77,-77.5 122,-77.5 122,-57.5 77,-57.5"/>
<text text-anchor="middle" x="99.5" y="-64.5" font-family="FreeSans" font-size="10.00" fill="#000000">TF1.h</text>
</g>
<!-- Node1&#45;&gt;Node4 -->
<g id="edge3" class="edge">
<title>Node1&#45;&gt;Node4</title>
<path fill="none" stroke="#191970" d="M149.9883,-114.2759C140.1763,-105.1854 127.9469,-93.8552 117.9818,-84.6229"/>
<polygon fill="#191970" stroke="#191970" points="120.2792,-81.9801 110.5649,-77.7513 115.5218,-87.115 120.2792,-81.9801"/>
</g>
<!-- Node5 -->
<g id="node5" class="node">
<title>Node5</title>
<polygon fill="none" stroke="#bfbfbf" points="140.5,-57.5 140.5,-77.5 194.5,-77.5 194.5,-57.5 140.5,-57.5"/>
<text text-anchor="middle" x="167.5" y="-64.5" font-family="FreeSans" font-size="10.00" fill="#000000">TH1D.h</text>
</g>
<!-- Node1&#45;&gt;Node5 -->
<g id="edge4" class="edge">
<title>Node1&#45;&gt;Node5</title>
<path fill="none" stroke="#191970" d="M167.5,-114.2759C167.5,-106.2654 167.5,-96.5159 167.5,-87.9952"/>
<polygon fill="#191970" stroke="#191970" points="171.0001,-87.7512 167.5,-77.7513 164.0001,-87.7513 171.0001,-87.7512"/>
</g>
<!-- Node6 -->
<g id="node6" class="node">
<title>Node6</title>
<polygon fill="none" stroke="#bfbfbf" points="212.5,-57.5 212.5,-77.5 266.5,-77.5 266.5,-57.5 212.5,-57.5"/>
<text text-anchor="middle" x="239.5" y="-64.5" font-family="FreeSans" font-size="10.00" fill="#000000">TH2D.h</text>
</g>
<!-- Node1&#45;&gt;Node6 -->
<g id="edge5" class="edge">
<title>Node1&#45;&gt;Node6</title>
<path fill="none" stroke="#191970" d="M186.0418,-114.2759C196.5339,-105.0954 209.6364,-93.6307 220.2437,-84.3492"/>
<polygon fill="#191970" stroke="#191970" points="222.5632,-86.9704 227.7843,-77.7513 217.9537,-81.7023 222.5632,-86.9704"/>
</g>
<!-- Node7 -->
<g id="node7" class="node">
<title>Node7</title>
<polygon fill="none" stroke="#bfbfbf" points="284.5,-57.5 284.5,-77.5 344.5,-77.5 344.5,-57.5 284.5,-57.5"/>
<text text-anchor="middle" x="314.5" y="-64.5" font-family="FreeSans" font-size="10.00" fill="#000000">iostream</text>
</g>
<!-- Node1&#45;&gt;Node7 -->
<g id="edge6" class="edge">
<title>Node1&#45;&gt;Node7</title>
<path fill="none" stroke="#191970" d="M204.9747,-114.4394C228.6435,-104.2956 258.9342,-91.3139 281.6588,-81.5748"/>
<polygon fill="#191970" stroke="#191970" points="283.0807,-84.7734 290.8934,-77.6171 280.3232,-78.3394 283.0807,-84.7734"/>
</g>
<!-- Node3 -->
<g id="node3" class="node">
<title>Node3</title>
<polygon fill="none" stroke="#bfbfbf" points="5,-.5 5,-20.5 54,-20.5 54,-.5 5,-.5"/>
<text text-anchor="middle" x="29.5" y="-7.5" font-family="FreeSans" font-size="10.00" fill="#000000">vector</text>
</g>
<!-- Node2&#45;&gt;Node3 -->
<g id="edge2" class="edge">
<title>Node2&#45;&gt;Node3</title>
<path fill="none" stroke="#191970" d="M29.5,-57.3095C29.5,-49.9335 29.5,-39.72 29.5,-30.715"/>
<polygon fill="#191970" stroke="#191970" points="33.0001,-30.6022 29.5,-20.6022 26.0001,-30.6023 33.0001,-30.6022"/>
</g>
</g>
</svg>
