<?xml version="1.0" encoding="UTF-8" standalone="no"?>
<!DOCTYPE svg PUBLIC "-//W3C//DTD SVG 1.1//EN"
 "http://www.w3.org/Graphics/SVG/1.1/DTD/svg11.dtd">
<!-- Generated by graphviz version 2.40.1 (20161225.0304)
 -->
<!-- Title: GlobalVertex::get_z Pages: 1 -->
<svg width="508pt" height="644pt"
 viewBox="0.00 0.00 508.00 644.00" xmlns="http://www.w3.org/2000/svg" xmlns:xlink="http://www.w3.org/1999/xlink">
<g id="graph0" class="graph" transform="scale(1 1) rotate(0) translate(4 640)">
<title>GlobalVertex::get_z</title>
<!-- Node1 -->
<g id="node1" class="node">
<title>Node1</title>
<polygon fill="#bfbfbf" stroke="#000000" points="0,-304.5 0,-324.5 115,-324.5 115,-304.5 0,-304.5"/>
<text text-anchor="middle" x="57.5" y="-311.5" font-family="FreeSans" font-size="10.00" fill="#000000">GlobalVertex::get_z</text>
</g>
<!-- Node2 -->
<g id="node2" class="node">
<title>Node2</title>
<g id="a_node2"><a xlink:href="../../dc/d65/classPhotonJet.html#a2c998d51d52420bdde0a2100c7cbdf62" target="_top" xlink:title="PhotonJet::ConeSum">
<polygon fill="none" stroke="#000000" points="176.5,-513.5 176.5,-533.5 296.5,-533.5 296.5,-513.5 176.5,-513.5"/>
<text text-anchor="middle" x="236.5" y="-520.5" font-family="FreeSans" font-size="10.00" fill="#000000">PhotonJet::ConeSum</text>
</a>
</g>
</g>
<!-- Node1&#45;&gt;Node2 -->
<g id="edge1" class="edge">
<title>Node1&#45;&gt;Node2</title>
<path fill="none" stroke="#191970" d="M61.3912,-334.6111C70.0713,-373.7915 94.8423,-460.3663 151,-504.5 158.4125,-510.3254 167.2495,-514.4435 176.3863,-517.3397"/>
<polygon fill="#191970" stroke="#191970" points="64.7885,-333.7578 59.3165,-324.6854 57.9366,-335.19 64.7885,-333.7578"/>
</g>
<!-- Node3 -->
<g id="node3" class="node">
<title>Node3</title>
<g id="a_node3"><a xlink:href="../../dc/d65/classPhotonJet.html#a3f9d3ec941f851bc2246ceb0c5362c9f" target="_top" xlink:title="PhotonJet::process\l_event">
<polygon fill="none" stroke="#000000" points="374,-529.5 374,-561.5 484,-561.5 484,-529.5 374,-529.5"/>
<text text-anchor="start" x="382" y="-548.5" font-family="FreeSans" font-size="10.00" fill="#000000">PhotonJet::process</text>
<text text-anchor="middle" x="429" y="-536.5" font-family="FreeSans" font-size="10.00" fill="#000000">_event</text>
</a>
</g>
</g>
<!-- Node1&#45;&gt;Node3 -->
<g id="edge19" class="edge">
<title>Node1&#45;&gt;Node3</title>
<path fill="none" stroke="#191970" d="M82.0829,-329.6355C100.4846,-340.3991 126.5837,-354.4911 151,-363.5 224.1323,-390.4836 256.6399,-360.0206 322,-402.5 371.917,-434.9425 407.146,-499.1587 421.6407,-529.2392"/>
<polygon fill="#191970" stroke="#191970" points="83.844,-326.6107 73.4604,-324.5056 80.2649,-332.6266 83.844,-326.6107"/>
</g>
<!-- Node4 -->
<g id="node4" class="node">
<title>Node4</title>
<g id="a_node4"><a xlink:href="../../dd/d59/classCaloEvaluator.html#a5298ee9646d361a4960fc0e20f83c880" target="_top" xlink:title="dump the evaluator information into ntuple for external analysis">
<polygon fill="none" stroke="#000000" points="166,-321.5 166,-353.5 307,-353.5 307,-321.5 166,-321.5"/>
<text text-anchor="start" x="174" y="-340.5" font-family="FreeSans" font-size="10.00" fill="#000000">CaloEvaluator::fillOutput</text>
<text text-anchor="middle" x="236.5" y="-328.5" font-family="FreeSans" font-size="10.00" fill="#000000">Ntuples</text>
</a>
</g>
</g>
<!-- Node1&#45;&gt;Node4 -->
<g id="edge3" class="edge">
<title>Node1&#45;&gt;Node4</title>
<path fill="none" stroke="#191970" d="M125.1382,-323.1909C138.4387,-324.8999 152.4254,-326.6971 165.8227,-328.4186"/>
<polygon fill="#191970" stroke="#191970" points="125.4866,-319.707 115.122,-321.9039 124.5944,-326.6499 125.4866,-319.707"/>
</g>
<!-- Node6 -->
<g id="node6" class="node">
<title>Node6</title>
<g id="a_node6"><a xlink:href="../../df/d01/classTowerJetInput.html#aefe1861906affd853304efd7847ec22f" target="_top" xlink:title="TowerJetInput::get\l_input">
<polygon fill="none" stroke="#000000" points="182,-462.5 182,-494.5 291,-494.5 291,-462.5 182,-462.5"/>
<text text-anchor="start" x="190" y="-481.5" font-family="FreeSans" font-size="10.00" fill="#000000">TowerJetInput::get</text>
<text text-anchor="middle" x="236.5" y="-469.5" font-family="FreeSans" font-size="10.00" fill="#000000">_input</text>
</a>
</g>
</g>
<!-- Node1&#45;&gt;Node6 -->
<g id="edge5" class="edge">
<title>Node1&#45;&gt;Node6</title>
<path fill="none" stroke="#191970" d="M65.4117,-334.109C78.6014,-364.3115 107.9546,-422.0119 151,-453.5 160.112,-460.1655 170.9796,-465.0624 181.8607,-468.6574"/>
<polygon fill="#191970" stroke="#191970" points="68.5372,-332.5131 61.4245,-324.6608 62.088,-335.2348 68.5372,-332.5131"/>
</g>
<!-- Node7 -->
<g id="node7" class="node">
<title>Node7</title>
<g id="a_node7"><a xlink:href="../../d5/d98/classClusterJetInput.html#aaa06c7c9d5919cec36bebe981200e11a" target="_top" xlink:title="ClusterJetInput::get\l_input">
<polygon fill="none" stroke="#000000" points="179,-411.5 179,-443.5 294,-443.5 294,-411.5 179,-411.5"/>
<text text-anchor="start" x="187" y="-430.5" font-family="FreeSans" font-size="10.00" fill="#000000">ClusterJetInput::get</text>
<text text-anchor="middle" x="236.5" y="-418.5" font-family="FreeSans" font-size="10.00" fill="#000000">_input</text>
</a>
</g>
</g>
<!-- Node1&#45;&gt;Node7 -->
<g id="edge6" class="edge">
<title>Node1&#45;&gt;Node7</title>
<path fill="none" stroke="#191970" d="M73.8291,-332.2933C91.3865,-350.5344 120.8601,-378.6823 151,-396.5 160.7862,-402.2852 171.8308,-407.2684 182.6519,-411.4431"/>
<polygon fill="#191970" stroke="#191970" points="76.0519,-329.5493 66.6412,-324.682 70.9626,-334.3555 76.0519,-329.5493"/>
</g>
<!-- Node8 -->
<g id="node8" class="node">
<title>Node8</title>
<g id="a_node8"><a xlink:href="../../d0/da9/classAnaTutorial.html#a04c6cb82e3dc8b29662a1bc82fc2ce91" target="_top" xlink:title="AnaTutorial::getEMCalClusters">
<polygon fill="none" stroke="#000000" points="151.5,-243.5 151.5,-263.5 321.5,-263.5 321.5,-243.5 151.5,-243.5"/>
<text text-anchor="middle" x="236.5" y="-250.5" font-family="FreeSans" font-size="10.00" fill="#000000">AnaTutorial::getEMCalClusters</text>
</a>
</g>
</g>
<!-- Node1&#45;&gt;Node8 -->
<g id="edge7" class="edge">
<title>Node1&#45;&gt;Node8</title>
<path fill="none" stroke="#191970" d="M86.941,-299.9258C105.0833,-291.3664 129.0073,-280.8253 151,-273.5 162.426,-269.6943 174.9422,-266.3328 186.7876,-263.5038"/>
<polygon fill="#191970" stroke="#191970" points="85.0132,-296.9683 77.5057,-304.4442 88.0366,-303.2817 85.0132,-296.9683"/>
</g>
<!-- Node10 -->
<g id="node10" class="node">
<title>Node10</title>
<g id="a_node10"><a xlink:href="../../dc/d65/classPhotonJet.html#a9b2de7dcbd5e3bbbd26150d418b7bb44" target="_top" xlink:title="PhotonJet::GetRecoHadrons\lAndJets">
<polygon fill="none" stroke="#000000" points="158.5,-603.5 158.5,-635.5 314.5,-635.5 314.5,-603.5 158.5,-603.5"/>
<text text-anchor="start" x="166.5" y="-622.5" font-family="FreeSans" font-size="10.00" fill="#000000">PhotonJet::GetRecoHadrons</text>
<text text-anchor="middle" x="236.5" y="-610.5" font-family="FreeSans" font-size="10.00" fill="#000000">AndJets</text>
</a>
</g>
</g>
<!-- Node1&#45;&gt;Node10 -->
<g id="edge9" class="edge">
<title>Node1&#45;&gt;Node10</title>
<path fill="none" stroke="#191970" d="M61.717,-334.7573C74.152,-392.6709 112.2363,-557.1753 151,-594.5 154.5649,-597.9326 158.5746,-600.8977 162.862,-603.4585"/>
<polygon fill="#191970" stroke="#191970" points="65.0756,-333.7227 59.5794,-324.665 58.2275,-335.1732 65.0756,-333.7227"/>
</g>
<!-- Node11 -->
<g id="node11" class="node">
<title>Node11</title>
<g id="a_node11"><a xlink:href="../../dc/d65/classPhotonJet.html#a2c1adc79085fbbe9d27254d016321804" target="_top" xlink:title="PhotonJet::GetRecoHadrons\lAndJetsAA">
<polygon fill="none" stroke="#000000" points="158.5,-552.5 158.5,-584.5 314.5,-584.5 314.5,-552.5 158.5,-552.5"/>
<text text-anchor="start" x="166.5" y="-571.5" font-family="FreeSans" font-size="10.00" fill="#000000">PhotonJet::GetRecoHadrons</text>
<text text-anchor="middle" x="236.5" y="-559.5" font-family="FreeSans" font-size="10.00" fill="#000000">AndJetsAA</text>
</a>
</g>
</g>
<!-- Node1&#45;&gt;Node11 -->
<g id="edge11" class="edge">
<title>Node1&#45;&gt;Node11</title>
<path fill="none" stroke="#191970" d="M59.8913,-334.9071C66.214,-379.5041 87.4976,-486.2331 151,-543.5 154.79,-546.9179 159.0237,-549.87 163.5236,-552.4197"/>
<polygon fill="#191970" stroke="#191970" points="63.3596,-334.4358 58.5896,-324.9755 56.4189,-335.3456 63.3596,-334.4358"/>
</g>
<!-- Node12 -->
<g id="node12" class="node">
<title>Node12</title>
<g id="a_node12"><a xlink:href="../../dd/d59/classCaloEvaluator.html#ab7e09466d57c5b93274f09f61c0f321e" target="_top" xlink:title="print out the ancestry information for detailed diagnosis">
<polygon fill="none" stroke="#000000" points="151,-282.5 151,-302.5 322,-302.5 322,-282.5 151,-282.5"/>
<text text-anchor="middle" x="236.5" y="-289.5" font-family="FreeSans" font-size="10.00" fill="#000000">CaloEvaluator::printOutputInfo</text>
</a>
</g>
</g>
<!-- Node1&#45;&gt;Node12 -->
<g id="edge13" class="edge">
<title>Node1&#45;&gt;Node12</title>
<path fill="none" stroke="#191970" d="M125.0985,-306.1918C134.8196,-304.997 144.9079,-303.7571 154.8654,-302.5333"/>
<polygon fill="#191970" stroke="#191970" points="124.6204,-302.7241 115.122,-307.418 125.4743,-309.6719 124.6204,-302.7241"/>
</g>
<!-- Node13 -->
<g id="node13" class="node">
<title>Node13</title>
<g id="a_node13"><a xlink:href="../../de/dcb/classClusterIso.html#a6aa03ee56ec17554e0603b71e741dfbd" target="_top" xlink:title="ClusterIso::process\l_event">
<polygon fill="none" stroke="#000000" points="180.5,-192.5 180.5,-224.5 292.5,-224.5 292.5,-192.5 180.5,-192.5"/>
<text text-anchor="start" x="188.5" y="-211.5" font-family="FreeSans" font-size="10.00" fill="#000000">ClusterIso::process</text>
<text text-anchor="middle" x="236.5" y="-199.5" font-family="FreeSans" font-size="10.00" fill="#000000">_event</text>
</a>
</g>
</g>
<!-- Node1&#45;&gt;Node13 -->
<g id="edge15" class="edge">
<title>Node1&#45;&gt;Node13</title>
<path fill="none" stroke="#191970" d="M73.733,-296.8469C91.2117,-278.81 120.6216,-251.1541 151,-234.5 160.1151,-229.5029 170.3155,-225.3406 180.4087,-221.9183"/>
<polygon fill="#191970" stroke="#191970" points="70.9261,-294.7201 66.5812,-304.3831 76.0037,-299.5387 70.9261,-294.7201"/>
</g>
<!-- Node14 -->
<g id="node14" class="node">
<title>Node14</title>
<g id="a_node14"><a xlink:href="../../d7/dec/classForward__pi0s.html#aa5e9d908554327efd879a6db978b2174" target="_top" xlink:title="Forward_pi0s::process\l_event">
<polygon fill="none" stroke="#000000" points="172.5,-141.5 172.5,-173.5 300.5,-173.5 300.5,-141.5 172.5,-141.5"/>
<text text-anchor="start" x="180.5" y="-160.5" font-family="FreeSans" font-size="10.00" fill="#000000">Forward_pi0s::process</text>
<text text-anchor="middle" x="236.5" y="-148.5" font-family="FreeSans" font-size="10.00" fill="#000000">_event</text>
</a>
</g>
</g>
<!-- Node1&#45;&gt;Node14 -->
<g id="edge16" class="edge">
<title>Node1&#45;&gt;Node14</title>
<path fill="none" stroke="#191970" d="M66.3445,-294.859C80.2614,-266.1583 109.9745,-212.9783 151,-183.5 157.4258,-178.8828 164.6847,-175.0734 172.1896,-171.9332"/>
<polygon fill="#191970" stroke="#191970" points="63.0236,-293.6969 61.9402,-304.2362 69.3595,-296.6728 63.0236,-293.6969"/>
</g>
<!-- Node15 -->
<g id="node15" class="node">
<title>Node15</title>
<g id="a_node15"><a xlink:href="../../dc/d53/classPhotons.html#abd8397d6fc7d55f20d97de36b431f81d" target="_top" xlink:title="Photons::process_event">
<polygon fill="none" stroke="#000000" points="168,-102.5 168,-122.5 305,-122.5 305,-102.5 168,-102.5"/>
<text text-anchor="middle" x="236.5" y="-109.5" font-family="FreeSans" font-size="10.00" fill="#000000">Photons::process_event</text>
</a>
</g>
</g>
<!-- Node1&#45;&gt;Node15 -->
<g id="edge17" class="edge">
<title>Node1&#45;&gt;Node15</title>
<path fill="none" stroke="#191970" d="M61.8901,-294.4972C71.2742,-256.6734 96.9782,-174.6871 151,-132.5 156.1664,-128.4654 162.0095,-125.2219 168.1561,-122.6176"/>
<polygon fill="#191970" stroke="#191970" points="58.4608,-293.7907 59.5766,-304.3266 65.2746,-295.3944 58.4608,-293.7907"/>
</g>
<!-- Node16 -->
<g id="node16" class="node">
<title>Node16</title>
<g id="a_node16"><a xlink:href="../../da/da1/classPJTranslator.html#a05f197da20e9ab88a53904b574db33a2" target="_top" xlink:title="PJTranslator::process\l_event">
<polygon fill="none" stroke="#000000" points="176,-51.5 176,-83.5 297,-83.5 297,-51.5 176,-51.5"/>
<text text-anchor="start" x="184" y="-70.5" font-family="FreeSans" font-size="10.00" fill="#000000">PJTranslator::process</text>
<text text-anchor="middle" x="236.5" y="-58.5" font-family="FreeSans" font-size="10.00" fill="#000000">_event</text>
</a>
</g>
</g>
<!-- Node1&#45;&gt;Node16 -->
<g id="edge18" class="edge">
<title>Node1&#45;&gt;Node16</title>
<path fill="none" stroke="#191970" d="M60.2526,-294.2908C67.2235,-250.9994 89.6037,-148.764 151,-93.5 158.1495,-87.0646 166.8509,-82.2213 175.9332,-78.5764"/>
<polygon fill="#191970" stroke="#191970" points="56.7571,-294.0006 58.7362,-304.4089 63.6798,-295.0382 56.7571,-294.0006"/>
</g>
<!-- Node17 -->
<g id="node17" class="node">
<title>Node17</title>
<g id="a_node17"><a xlink:href="../../df/dda/classPHFlowJetMaker.html#a08cdecbc83cd68e95644a8b17af394e5" target="_top" xlink:title="PHFlowJetMaker::run\l_particle_flow">
<polygon fill="none" stroke="#000000" points="176.5,-.5 176.5,-32.5 296.5,-32.5 296.5,-.5 176.5,-.5"/>
<text text-anchor="start" x="184.5" y="-19.5" font-family="FreeSans" font-size="10.00" fill="#000000">PHFlowJetMaker::run</text>
<text text-anchor="middle" x="236.5" y="-7.5" font-family="FreeSans" font-size="10.00" fill="#000000">_particle_flow</text>
</a>
</g>
</g>
<!-- Node1&#45;&gt;Node17 -->
<g id="edge20" class="edge">
<title>Node1&#45;&gt;Node17</title>
<path fill="none" stroke="#191970" d="M58.355,-294.0989C61.5924,-243.6716 77.0709,-112.1395 151,-41.5 158.1562,-34.6622 167.078,-29.6809 176.4354,-26.055"/>
<polygon fill="#191970" stroke="#191970" points="54.8463,-294.1646 57.7994,-304.3395 61.8361,-294.5439 54.8463,-294.1646"/>
</g>
<!-- Node2&#45;&gt;Node3 -->
<g id="edge2" class="edge">
<title>Node2&#45;&gt;Node3</title>
<path fill="none" stroke="#191970" d="M306.6401,-531.516C328.803,-534.0489 352.9641,-536.8102 373.9178,-539.2049"/>
<polygon fill="#191970" stroke="#191970" points="306.9491,-528.0286 296.6164,-530.3704 306.1543,-534.9834 306.9491,-528.0286"/>
</g>
<!-- Node5 -->
<g id="node5" class="node">
<title>Node5</title>
<g id="a_node5"><a xlink:href="../../dd/d59/classCaloEvaluator.html#a936967e98c89ec58e7851b0661b838c0" target="_top" xlink:title="CaloEvaluator::process\l_event">
<polygon fill="none" stroke="#000000" points="363,-305.5 363,-337.5 495,-337.5 495,-305.5 363,-305.5"/>
<text text-anchor="start" x="371" y="-324.5" font-family="FreeSans" font-size="10.00" fill="#000000">CaloEvaluator::process</text>
<text text-anchor="middle" x="429" y="-312.5" font-family="FreeSans" font-size="10.00" fill="#000000">_event</text>
</a>
</g>
</g>
<!-- Node4&#45;&gt;Node5 -->
<g id="edge4" class="edge">
<title>Node4&#45;&gt;Node5</title>
<path fill="none" stroke="#191970" d="M317.4686,-330.7701C332.6115,-329.5115 348.2723,-328.2098 362.8997,-326.994"/>
<polygon fill="#191970" stroke="#191970" points="316.7625,-327.3167 307.0868,-331.633 317.3424,-334.2926 316.7625,-327.3167"/>
</g>
<!-- Node9 -->
<g id="node9" class="node">
<title>Node9</title>
<g id="a_node9"><a xlink:href="../../d0/da9/classAnaTutorial.html#a3b64c061aaffaf4a42631434fb7eb6f9" target="_top" xlink:title="SubsysReco event processing method.">
<polygon fill="none" stroke="#000000" points="369,-237.5 369,-269.5 489,-269.5 489,-237.5 369,-237.5"/>
<text text-anchor="start" x="377" y="-256.5" font-family="FreeSans" font-size="10.00" fill="#000000">AnaTutorial::process</text>
<text text-anchor="middle" x="429" y="-244.5" font-family="FreeSans" font-size="10.00" fill="#000000">_event</text>
</a>
</g>
</g>
<!-- Node8&#45;&gt;Node9 -->
<g id="edge8" class="edge">
<title>Node8&#45;&gt;Node9</title>
<path fill="none" stroke="#191970" d="M331.8665,-253.5C344.4771,-253.5 357.1079,-253.5 368.8929,-253.5"/>
<polygon fill="#191970" stroke="#191970" points="331.774,-250.0001 321.774,-253.5 331.7739,-257.0001 331.774,-250.0001"/>
</g>
<!-- Node10&#45;&gt;Node3 -->
<g id="edge10" class="edge">
<title>Node10&#45;&gt;Node3</title>
<path fill="none" stroke="#191970" d="M305.3156,-600.3291C310.9936,-598.4596 316.6159,-596.5079 322,-594.5 347.844,-584.862 376.1864,-571.7626 397.2053,-561.5327"/>
<polygon fill="#191970" stroke="#191970" points="304.1973,-597.012 295.7396,-603.3931 306.3306,-603.679 304.1973,-597.012"/>
</g>
<!-- Node11&#45;&gt;Node3 -->
<g id="edge12" class="edge">
<title>Node11&#45;&gt;Node3</title>
<path fill="none" stroke="#191970" d="M324.8612,-557.9426C341.5657,-555.9467 358.5893,-553.9127 373.9012,-552.0832"/>
<polygon fill="#191970" stroke="#191970" points="324.0337,-554.5164 314.5196,-559.1782 324.8642,-561.467 324.0337,-554.5164"/>
</g>
<!-- Node12&#45;&gt;Node5 -->
<g id="edge14" class="edge">
<title>Node12&#45;&gt;Node5</title>
<path fill="none" stroke="#191970" d="M313.1307,-304.0444C329.5684,-306.5207 346.8033,-309.1171 362.8061,-311.5279"/>
<polygon fill="#191970" stroke="#191970" points="313.427,-300.5496 303.0171,-302.5208 312.3841,-307.4715 313.427,-300.5496"/>
</g>
<!-- Node18 -->
<g id="node18" class="node">
<title>Node18</title>
<g id="a_node18"><a xlink:href="../../df/dda/classPHFlowJetMaker.html#af2305df14541877c06f00e5d29113bac" target="_top" xlink:title="PHFlowJetMaker::process\l_event">
<polygon fill="none" stroke="#000000" points="358,-.5 358,-32.5 500,-32.5 500,-.5 358,-.5"/>
<text text-anchor="start" x="366" y="-19.5" font-family="FreeSans" font-size="10.00" fill="#000000">PHFlowJetMaker::process</text>
<text text-anchor="middle" x="429" y="-7.5" font-family="FreeSans" font-size="10.00" fill="#000000">_event</text>
</a>
</g>
</g>
<!-- Node17&#45;&gt;Node18 -->
<g id="edge21" class="edge">
<title>Node17&#45;&gt;Node18</title>
<path fill="none" stroke="#191970" d="M306.8112,-16.5C323.4483,-16.5 341.2027,-16.5 357.8756,-16.5"/>
<polygon fill="#191970" stroke="#191970" points="306.6164,-13.0001 296.6164,-16.5 306.6163,-20.0001 306.6164,-13.0001"/>
</g>
</g>
</svg>
