<?xml version="1.0" encoding="UTF-8" standalone="no"?>
<!DOCTYPE svg PUBLIC "-//W3C//DTD SVG 1.1//EN"
 "http://www.w3.org/Graphics/SVG/1.1/DTD/svg11.dtd">
<!-- Generated by graphviz version 2.40.1 (20161225.0304)
 -->
<!-- Title: olzoBuffer Pages: 1 -->
<svg width="81pt" height="143pt"
 viewBox="0.00 0.00 81.00 143.00" xmlns="http://www.w3.org/2000/svg" xmlns:xlink="http://www.w3.org/1999/xlink">
<g id="graph0" class="graph" transform="scale(1 1) rotate(0) translate(4 139)">
<title>olzoBuffer</title>
<!-- Node1 -->
<g id="node1" class="node">
<title>Node1</title>
<polygon fill="#bfbfbf" stroke="#000000" points="2.5,-57.5 2.5,-77.5 70.5,-77.5 70.5,-57.5 2.5,-57.5"/>
<text text-anchor="middle" x="36.5" y="-64.5" font-family="FreeSans" font-size="10.00" fill="#000000">olzoBuffer</text>
</g>
<!-- Node3 -->
<g id="node3" class="node">
<title>Node3</title>
<g id="a_node3"><a xlink:href="../../de/ddb/classoamlBuffer.html" target="_top" xlink:title="oamlBuffer">
<polygon fill="none" stroke="#000000" points="0,-.5 0,-20.5 73,-20.5 73,-.5 0,-.5"/>
<text text-anchor="middle" x="36.5" y="-7.5" font-family="FreeSans" font-size="10.00" fill="#000000">oamlBuffer</text>
</a>
</g>
</g>
<!-- Node1&#45;&gt;Node3 -->
<g id="edge2" class="edge">
<title>Node1&#45;&gt;Node3</title>
<path fill="none" stroke="#191970" d="M36.5,-47.1771C36.5,-38.1625 36.5,-27.9556 36.5,-20.6022"/>
<polygon fill="#191970" stroke="#191970" points="33.0001,-47.3095 36.5,-57.3095 40.0001,-47.3096 33.0001,-47.3095"/>
</g>
<!-- Node2 -->
<g id="node2" class="node">
<title>Node2</title>
<g id="a_node2"><a xlink:href="../../de/dc8/classoBuffer.html" target="_top" xlink:title="oBuffer">
<polygon fill="none" stroke="#000000" points="9.5,-114.5 9.5,-134.5 63.5,-134.5 63.5,-114.5 9.5,-114.5"/>
<text text-anchor="middle" x="36.5" y="-121.5" font-family="FreeSans" font-size="10.00" fill="#000000">oBuffer</text>
</a>
</g>
</g>
<!-- Node2&#45;&gt;Node1 -->
<g id="edge1" class="edge">
<title>Node2&#45;&gt;Node1</title>
<path fill="none" stroke="#191970" d="M36.5,-104.1771C36.5,-95.1625 36.5,-84.9556 36.5,-77.6022"/>
<polygon fill="#191970" stroke="#191970" points="33.0001,-104.3095 36.5,-114.3095 40.0001,-104.3096 33.0001,-104.3095"/>
</g>
</g>
</svg>
