<?xml version="1.0" encoding="UTF-8" standalone="no"?>
<!DOCTYPE svg PUBLIC "-//W3C//DTD SVG 1.1//EN"
 "http://www.w3.org/Graphics/SVG/1.1/DTD/svg11.dtd">
<!-- Generated by graphviz version 2.40.1 (20161225.0304)
 -->
<!-- Title: JetTruthEval::next_event Pages: 1 -->
<svg width="596pt" height="92pt"
 viewBox="0.00 0.00 596.00 92.00" xmlns="http://www.w3.org/2000/svg" xmlns:xlink="http://www.w3.org/1999/xlink">
<g id="graph0" class="graph" transform="scale(1 1) rotate(0) translate(4 88)">
<title>JetTruthEval::next_event</title>
<!-- Node1 -->
<g id="node1" class="node">
<title>Node1</title>
<polygon fill="#bfbfbf" stroke="#000000" points="0,-25.5 0,-57.5 107,-57.5 107,-25.5 0,-25.5"/>
<text text-anchor="start" x="8" y="-44.5" font-family="FreeSans" font-size="10.00" fill="#000000">JetTruthEval::next</text>
<text text-anchor="middle" x="53.5" y="-32.5" font-family="FreeSans" font-size="10.00" fill="#000000">_event</text>
</g>
<!-- Node2 -->
<g id="node2" class="node">
<title>Node2</title>
<g id="a_node2"><a xlink:href="../../dd/d75/classJetRecoEval.html#ae02e058aa7f403d5853482b5d06c01c9" target="_top" xlink:title="reinitialize the eval for a new event">
<polygon fill="none" stroke="#000000" points="143,-31.5 143,-51.5 283,-51.5 283,-31.5 143,-31.5"/>
<text text-anchor="middle" x="213" y="-38.5" font-family="FreeSans" font-size="10.00" fill="#000000">JetRecoEval::next_event</text>
</a>
</g>
</g>
<!-- Node1&#45;&gt;Node2 -->
<g id="edge1" class="edge">
<title>Node1&#45;&gt;Node2</title>
<path fill="none" stroke="#191970" d="M117.1998,-41.5C125.6406,-41.5 134.3317,-41.5 142.8733,-41.5"/>
<polygon fill="#191970" stroke="#191970" points="117.0549,-38.0001 107.0549,-41.5 117.0549,-45.0001 117.0549,-38.0001"/>
</g>
<!-- Node3 -->
<g id="node3" class="node">
<title>Node3</title>
<g id="a_node3"><a xlink:href="../../dd/df3/classJetEvalStack.html#ab85ba05ab4fea5909c8faa238ba5f8e6" target="_top" xlink:title="JetEvalStack::next\l_event">
<polygon fill="none" stroke="#000000" points="319,-25.5 319,-57.5 428,-57.5 428,-25.5 319,-25.5"/>
<text text-anchor="start" x="327" y="-44.5" font-family="FreeSans" font-size="10.00" fill="#000000">JetEvalStack::next</text>
<text text-anchor="middle" x="373.5" y="-32.5" font-family="FreeSans" font-size="10.00" fill="#000000">_event</text>
</a>
</g>
</g>
<!-- Node2&#45;&gt;Node3 -->
<g id="edge2" class="edge">
<title>Node2&#45;&gt;Node3</title>
<path fill="none" stroke="#191970" d="M293.6705,-41.5C302.1104,-41.5 310.5441,-41.5 318.5983,-41.5"/>
<polygon fill="#191970" stroke="#191970" points="293.3977,-38.0001 283.3976,-41.5 293.3976,-45.0001 293.3977,-38.0001"/>
</g>
<!-- Node4 -->
<g id="node4" class="node">
<title>Node4</title>
<g id="a_node4"><a xlink:href="../../d1/df4/classJetEvaluator.html#ad83508ae828d1f2e4a83a948465a0cd2" target="_top" xlink:title="JetEvaluator::process\l_event">
<polygon fill="none" stroke="#000000" points="464,-51.5 464,-83.5 588,-83.5 588,-51.5 464,-51.5"/>
<text text-anchor="start" x="472" y="-70.5" font-family="FreeSans" font-size="10.00" fill="#000000">JetEvaluator::process</text>
<text text-anchor="middle" x="526" y="-58.5" font-family="FreeSans" font-size="10.00" fill="#000000">_event</text>
</a>
</g>
</g>
<!-- Node3&#45;&gt;Node4 -->
<g id="edge3" class="edge">
<title>Node3&#45;&gt;Node4</title>
<path fill="none" stroke="#191970" d="M438.079,-52.5102C446.66,-53.9732 455.443,-55.4706 463.9793,-56.926"/>
<polygon fill="#191970" stroke="#191970" points="438.5713,-49.0437 428.1253,-50.8132 437.3948,-55.9441 438.5713,-49.0437"/>
</g>
<!-- Node5 -->
<g id="node5" class="node">
<title>Node5</title>
<g id="a_node5"><a xlink:href="../../d8/de2/classJetEnergies.html#a6acaa9b2ba1fe7353781d2f5d476e8d1" target="_top" xlink:title="JetEnergies::process\l_event">
<polygon fill="none" stroke="#000000" points="466,-.5 466,-32.5 586,-32.5 586,-.5 466,-.5"/>
<text text-anchor="start" x="474" y="-19.5" font-family="FreeSans" font-size="10.00" fill="#000000">JetEnergies::process</text>
<text text-anchor="middle" x="526" y="-7.5" font-family="FreeSans" font-size="10.00" fill="#000000">_event</text>
</a>
</g>
</g>
<!-- Node3&#45;&gt;Node5 -->
<g id="edge4" class="edge">
<title>Node3&#45;&gt;Node5</title>
<path fill="none" stroke="#191970" d="M438.009,-30.9248C447.2267,-29.4137 456.6788,-27.8641 465.8092,-26.3673"/>
<polygon fill="#191970" stroke="#191970" points="437.4273,-27.4733 428.1253,-32.545 438.5598,-34.3811 437.4273,-27.4733"/>
</g>
</g>
</svg>
