<?xml version="1.0" encoding="UTF-8" standalone="no"?>
<!DOCTYPE svg PUBLIC "-//W3C//DTD SVG 1.1//EN"
 "http://www.w3.org/Graphics/SVG/1.1/DTD/svg11.dtd">
<!-- Generated by graphviz version 2.40.1 (20161225.0304)
 -->
<!-- Title: TpcPrototypeDefs::FEEv2::SignalShape_PowerLawDoubleExp Pages: 1 -->
<svg width="300pt" height="68pt"
 viewBox="0.00 0.00 300.00 68.00" xmlns="http://www.w3.org/2000/svg" xmlns:xlink="http://www.w3.org/1999/xlink">
<g id="graph0" class="graph" transform="scale(1 1) rotate(0) translate(4 64)">
<title>TpcPrototypeDefs::FEEv2::SignalShape_PowerLawDoubleExp</title>
<!-- Node1 -->
<g id="node1" class="node">
<title>Node1</title>
<polygon fill="#bfbfbf" stroke="#000000" points="0,-13.5 0,-45.5 197,-45.5 197,-13.5 0,-13.5"/>
<text text-anchor="start" x="8" y="-32.5" font-family="FreeSans" font-size="10.00" fill="#000000">TpcPrototypeDefs::FEEv2</text>
<text text-anchor="middle" x="98.5" y="-20.5" font-family="FreeSans" font-size="10.00" fill="#000000">::SignalShape_PowerLawDoubleExp</text>
</g>
<!-- Node2 -->
<g id="node2" class="node">
<title>Node2</title>
<g id="a_node2"><a xlink:href="../../d9/d9e/evDisplay_8C.html#aa88c4e96fb52fe557d1b37b229d46f38" target="_top" xlink:title="pedestal">
<polygon fill="none" stroke="#000000" points="233,-39.5 233,-59.5 292,-59.5 292,-39.5 233,-39.5"/>
<text text-anchor="middle" x="262.5" y="-46.5" font-family="FreeSans" font-size="10.00" fill="#000000">pedestal</text>
</a>
</g>
</g>
<!-- Node1&#45;&gt;Node2 -->
<g id="edge1" class="edge">
<title>Node1&#45;&gt;Node2</title>
<path fill="none" stroke="#191970" d="M197.2116,-41.538C206.1736,-42.6309 214.8575,-43.6899 222.8101,-44.6598"/>
<polygon fill="#191970" stroke="#191970" points="222.4551,-48.1423 232.8053,-45.8787 223.3026,-41.1938 222.4551,-48.1423"/>
</g>
<!-- Node3 -->
<g id="node3" class="node">
<title>Node3</title>
<g id="a_node3"><a xlink:href="../../d9/d9e/evDisplay_8C.html#a4e8c1369ad3f4b66e1057a8bf987b94b" target="_top" xlink:title="signal">
<polygon fill="none" stroke="#000000" points="239.5,-.5 239.5,-20.5 285.5,-20.5 285.5,-.5 239.5,-.5"/>
<text text-anchor="middle" x="262.5" y="-7.5" font-family="FreeSans" font-size="10.00" fill="#000000">signal</text>
</a>
</g>
</g>
<!-- Node1&#45;&gt;Node3 -->
<g id="edge2" class="edge">
<title>Node1&#45;&gt;Node3</title>
<path fill="none" stroke="#191970" d="M197.2116,-18.0639C208.6465,-16.7391 219.6286,-15.4668 229.2167,-14.356"/>
<polygon fill="#191970" stroke="#191970" points="229.8687,-17.804 239.3994,-13.1763 229.063,-10.8505 229.8687,-17.804"/>
</g>
</g>
</svg>
