<?xml version="1.0" encoding="UTF-8" standalone="no"?>
<!DOCTYPE svg PUBLIC "-//W3C//DTD SVG 1.1//EN"
 "http://www.w3.org/Graphics/SVG/1.1/DTD/svg11.dtd">
<!-- Generated by graphviz version 2.40.1 (20161225.0304)
 -->
<!-- Title: online_distribution/blob/master/newbasic/odd_filter.cc Pages: 1 -->
<svg width="371pt" height="338pt"
 viewBox="0.00 0.00 371.00 338.00" xmlns="http://www.w3.org/2000/svg" xmlns:xlink="http://www.w3.org/1999/xlink">
<g id="graph0" class="graph" transform="scale(1 1) rotate(0) translate(4 334)">
<title>online_distribution/blob/master/newbasic/odd_filter.cc</title>
<!-- Node1 -->
<g id="node1" class="node">
<title>Node1</title>
<polygon fill="#bfbfbf" stroke="#000000" points="151,-285.5 151,-329.5 283,-329.5 283,-285.5 151,-285.5"/>
<text text-anchor="start" x="159" y="-316.5" font-family="FreeSans" font-size="10.00" fill="#000000">online_distribution</text>
<text text-anchor="start" x="159" y="-304.5" font-family="FreeSans" font-size="10.00" fill="#000000">/blob/master/newbasic</text>
<text text-anchor="middle" x="217" y="-292.5" font-family="FreeSans" font-size="10.00" fill="#000000">/odd_filter.cc</text>
</g>
<!-- Node2 -->
<g id="node2" class="node">
<title>Node2</title>
<g id="a_node2"><a xlink:href="../../d8/d46/dpipe__filter_8h.html" target="_top" xlink:title="dpipe_filter.h">
<polygon fill="none" stroke="#000000" points="132.5,-228.5 132.5,-248.5 213.5,-248.5 213.5,-228.5 132.5,-228.5"/>
<text text-anchor="middle" x="173" y="-235.5" font-family="FreeSans" font-size="10.00" fill="#000000">dpipe_filter.h</text>
</a>
</g>
</g>
<!-- Node1&#45;&gt;Node2 -->
<g id="edge1" class="edge">
<title>Node1&#45;&gt;Node2</title>
<path fill="none" stroke="#191970" d="M202.8359,-285.2882C197.0798,-276.2615 190.5004,-265.9438 184.9874,-257.2984"/>
<polygon fill="#191970" stroke="#191970" points="187.8408,-255.2634 179.5131,-248.7137 181.9387,-259.0271 187.8408,-255.2634"/>
</g>
<!-- Node15 -->
<g id="node15" class="node">
<title>Node15</title>
<polygon fill="none" stroke="#bfbfbf" points="232,-228.5 232,-248.5 292,-248.5 292,-228.5 232,-228.5"/>
<text text-anchor="middle" x="262" y="-235.5" font-family="FreeSans" font-size="10.00" fill="#000000">iostream</text>
</g>
<!-- Node1&#45;&gt;Node15 -->
<g id="edge15" class="edge">
<title>Node1&#45;&gt;Node15</title>
<path fill="none" stroke="#191970" d="M231.486,-285.2882C237.3729,-276.2615 244.1018,-265.9438 249.7402,-257.2984"/>
<polygon fill="#191970" stroke="#191970" points="252.8078,-259.0017 255.3389,-248.7137 246.9445,-255.1778 252.8078,-259.0017"/>
</g>
<!-- Node3 -->
<g id="node3" class="node">
<title>Node3</title>
<g id="a_node3"><a xlink:href="../../d6/d8d/Event_8h.html" target="_top" xlink:title="Event.h">
<polygon fill="none" stroke="#000000" points="102,-171.5 102,-191.5 156,-191.5 156,-171.5 102,-171.5"/>
<text text-anchor="middle" x="129" y="-178.5" font-family="FreeSans" font-size="10.00" fill="#000000">Event.h</text>
</a>
</g>
</g>
<!-- Node2&#45;&gt;Node3 -->
<g id="edge2" class="edge">
<title>Node2&#45;&gt;Node3</title>
<path fill="none" stroke="#191970" d="M165.1337,-228.3095C159.0019,-220.3661 150.3299,-209.1319 143.0184,-199.6602"/>
<polygon fill="#191970" stroke="#191970" points="145.6793,-197.3795 136.7982,-191.6022 140.1382,-201.6569 145.6793,-197.3795"/>
</g>
<!-- Node12 -->
<g id="node12" class="node">
<title>Node12</title>
<g id="a_node12"><a xlink:href="../../dc/d2e/msg__control_8h.html" target="_top" xlink:title="msg_control.h">
<polygon fill="none" stroke="#000000" points="189.5,-171.5 189.5,-191.5 276.5,-191.5 276.5,-171.5 189.5,-171.5"/>
<text text-anchor="middle" x="233" y="-178.5" font-family="FreeSans" font-size="10.00" fill="#000000">msg_control.h</text>
</a>
</g>
</g>
<!-- Node2&#45;&gt;Node12 -->
<g id="edge11" class="edge">
<title>Node2&#45;&gt;Node12</title>
<path fill="none" stroke="#191970" d="M183.7268,-228.3095C192.4296,-220.0419 204.8849,-208.2093 215.0952,-198.5096"/>
<polygon fill="#191970" stroke="#191970" points="217.5267,-201.0273 222.3661,-191.6022 212.7054,-195.9523 217.5267,-201.0273"/>
</g>
<!-- Node4 -->
<g id="node4" class="node">
<title>Node4</title>
<g id="a_node4"><a xlink:href="../../d3/d76/packet_8h.html" target="_top" xlink:title="packet.h">
<polygon fill="none" stroke="#000000" points="29.5,-114.5 29.5,-134.5 88.5,-134.5 88.5,-114.5 29.5,-114.5"/>
<text text-anchor="middle" x="59" y="-121.5" font-family="FreeSans" font-size="10.00" fill="#000000">packet.h</text>
</a>
</g>
</g>
<!-- Node3&#45;&gt;Node4 -->
<g id="edge3" class="edge">
<title>Node3&#45;&gt;Node4</title>
<path fill="none" stroke="#191970" d="M116.4854,-171.3095C106.1331,-162.8798 91.2294,-150.7439 79.1913,-140.9415"/>
<polygon fill="#191970" stroke="#191970" points="81.3706,-138.2025 71.4063,-134.6022 76.9506,-143.6306 81.3706,-138.2025"/>
</g>
<!-- Node11 -->
<g id="node11" class="node">
<title>Node11</title>
<polygon fill="none" stroke="#bfbfbf" points="107,-114.5 107,-134.5 151,-134.5 151,-114.5 107,-114.5"/>
<text text-anchor="middle" x="129" y="-121.5" font-family="FreeSans" font-size="10.00" fill="#000000">ctime</text>
</g>
<!-- Node3&#45;&gt;Node11 -->
<g id="edge10" class="edge">
<title>Node3&#45;&gt;Node11</title>
<path fill="none" stroke="#191970" d="M129,-171.3095C129,-163.9335 129,-153.72 129,-144.715"/>
<polygon fill="#191970" stroke="#191970" points="132.5001,-144.6022 129,-134.6022 125.5001,-144.6023 132.5001,-144.6022"/>
</g>
<!-- Node5 -->
<g id="node5" class="node">
<title>Node5</title>
<g id="a_node5"><a xlink:href="../../db/d5e/generalDefinitions_8h.html" target="_top" xlink:title="generalDefinitions.h">
<polygon fill="none" stroke="#000000" points="0,-57.5 0,-77.5 118,-77.5 118,-57.5 0,-57.5"/>
<text text-anchor="middle" x="59" y="-64.5" font-family="FreeSans" font-size="10.00" fill="#000000">generalDefinitions.h</text>
</a>
</g>
</g>
<!-- Node4&#45;&gt;Node5 -->
<g id="edge4" class="edge">
<title>Node4&#45;&gt;Node5</title>
<path fill="none" stroke="#191970" d="M59,-114.3095C59,-106.9335 59,-96.72 59,-87.715"/>
<polygon fill="#191970" stroke="#191970" points="62.5001,-87.6022 59,-77.6022 55.5001,-87.6023 62.5001,-87.6022"/>
</g>
<!-- Node6 -->
<g id="node6" class="node">
<title>Node6</title>
<g id="a_node6"><a xlink:href="../../d8/dd6/event__io_8h.html" target="_top" xlink:title="event_io.h">
<polygon fill="none" stroke="#000000" points="140,-57.5 140,-77.5 208,-77.5 208,-57.5 140,-57.5"/>
<text text-anchor="middle" x="174" y="-64.5" font-family="FreeSans" font-size="10.00" fill="#000000">event_io.h</text>
</a>
</g>
</g>
<!-- Node4&#45;&gt;Node6 -->
<g id="edge5" class="edge">
<title>Node4&#45;&gt;Node6</title>
<path fill="none" stroke="#191970" d="M79.295,-114.4408C97.3305,-105.5014 123.9242,-92.3202 144.343,-82.1996"/>
<polygon fill="#191970" stroke="#191970" points="146.1156,-85.2273 153.5211,-77.6504 143.0069,-78.9555 146.1156,-85.2273"/>
</g>
<!-- Node7 -->
<g id="node7" class="node">
<title>Node7</title>
<polygon fill="none" stroke="#bfbfbf" points="14,-.5 14,-20.5 78,-20.5 78,-.5 14,-.5"/>
<text text-anchor="middle" x="46" y="-7.5" font-family="FreeSans" font-size="10.00" fill="#000000">ioselect.h</text>
</g>
<!-- Node6&#45;&gt;Node7 -->
<g id="edge6" class="edge">
<title>Node6&#45;&gt;Node7</title>
<path fill="none" stroke="#191970" d="M151.4108,-57.4408C131.064,-48.3801 100.9312,-34.9615 78.0878,-24.7891"/>
<polygon fill="#191970" stroke="#191970" points="79.3529,-21.5212 68.7939,-20.6504 76.5053,-27.9158 79.3529,-21.5212"/>
</g>
<!-- Node8 -->
<g id="node8" class="node">
<title>Node8</title>
<polygon fill="none" stroke="#bfbfbf" points="96,-.5 96,-20.5 166,-20.5 166,-.5 96,-.5"/>
<text text-anchor="middle" x="131" y="-7.5" font-family="FreeSans" font-size="10.00" fill="#000000">iostream.h</text>
</g>
<!-- Node6&#45;&gt;Node8 -->
<g id="edge7" class="edge">
<title>Node6&#45;&gt;Node8</title>
<path fill="none" stroke="#191970" d="M166.3125,-57.3095C160.32,-49.3661 151.8451,-38.1319 144.6998,-28.6602"/>
<polygon fill="#191970" stroke="#191970" points="147.4375,-26.4776 138.621,-20.6022 141.8493,-30.6933 147.4375,-26.4776"/>
</g>
<!-- Node9 -->
<g id="node9" class="node">
<title>Node9</title>
<polygon fill="none" stroke="#bfbfbf" points="184,-.5 184,-20.5 250,-20.5 250,-.5 184,-.5"/>
<text text-anchor="middle" x="217" y="-7.5" font-family="FreeSans" font-size="10.00" fill="#000000">iomanip.h</text>
</g>
<!-- Node6&#45;&gt;Node9 -->
<g id="edge8" class="edge">
<title>Node6&#45;&gt;Node9</title>
<path fill="none" stroke="#191970" d="M181.6875,-57.3095C187.68,-49.3661 196.1549,-38.1319 203.3002,-28.6602"/>
<polygon fill="#191970" stroke="#191970" points="206.1507,-30.6933 209.379,-20.6022 200.5625,-26.4776 206.1507,-30.6933"/>
</g>
<!-- Node10 -->
<g id="node10" class="node">
<title>Node10</title>
<polygon fill="none" stroke="#bfbfbf" points="268,-.5 268,-20.5 318,-20.5 318,-.5 268,-.5"/>
<text text-anchor="middle" x="293" y="-7.5" font-family="FreeSans" font-size="10.00" fill="#000000">stdio.h</text>
</g>
<!-- Node6&#45;&gt;Node10 -->
<g id="edge9" class="edge">
<title>Node6&#45;&gt;Node10</title>
<path fill="none" stroke="#191970" d="M195.0009,-57.4408C213.7482,-48.461 241.4316,-35.2008 262.5979,-25.0624"/>
<polygon fill="#191970" stroke="#191970" points="264.302,-28.127 271.8088,-20.6504 261.278,-21.8138 264.302,-28.127"/>
</g>
<!-- Node12&#45;&gt;Node6 -->
<g id="edge13" class="edge">
<title>Node12&#45;&gt;Node6</title>
<path fill="none" stroke="#191970" d="M223.9658,-171.4096C216.2492,-162.3833 205.2743,-148.5264 198,-135 189.8191,-119.7878 183.4513,-101.216 179.337,-87.4063"/>
<polygon fill="#191970" stroke="#191970" points="182.6252,-86.1726 176.5289,-77.5074 175.8909,-88.083 182.6252,-86.1726"/>
</g>
<!-- Node13 -->
<g id="node13" class="node">
<title>Node13</title>
<g id="a_node13"><a xlink:href="../../da/dad/msg__profile_8h.html" target="_top" xlink:title="msg_profile.h">
<polygon fill="none" stroke="#000000" points="207,-114.5 207,-134.5 291,-134.5 291,-114.5 207,-114.5"/>
<text text-anchor="middle" x="249" y="-121.5" font-family="FreeSans" font-size="10.00" fill="#000000">msg_profile.h</text>
</a>
</g>
</g>
<!-- Node12&#45;&gt;Node13 -->
<g id="edge12" class="edge">
<title>Node12&#45;&gt;Node13</title>
<path fill="none" stroke="#191970" d="M235.8605,-171.3095C237.9537,-163.8524 240.861,-153.4951 243.4088,-144.4186"/>
<polygon fill="#191970" stroke="#191970" points="246.8314,-145.176 246.1643,-134.6022 240.0919,-143.2842 246.8314,-145.176"/>
</g>
<!-- Node14 -->
<g id="node14" class="node">
<title>Node14</title>
<polygon fill="none" stroke="#bfbfbf" points="309,-114.5 309,-134.5 363,-134.5 363,-114.5 309,-114.5"/>
<text text-anchor="middle" x="336" y="-121.5" font-family="FreeSans" font-size="10.00" fill="#000000">string.h</text>
</g>
<!-- Node12&#45;&gt;Node14 -->
<g id="edge14" class="edge">
<title>Node12&#45;&gt;Node14</title>
<path fill="none" stroke="#191970" d="M251.4143,-171.3095C267.3794,-162.4745 290.7009,-149.5684 308.8143,-139.5445"/>
<polygon fill="#191970" stroke="#191970" points="310.6902,-142.5066 317.7451,-134.6022 307.3008,-136.3819 310.6902,-142.5066"/>
</g>
</g>
</svg>
