<?xml version="1.0" encoding="UTF-8" standalone="no"?>
<!DOCTYPE svg PUBLIC "-//W3C//DTD SVG 1.1//EN"
 "http://www.w3.org/Graphics/SVG/1.1/DTD/svg11.dtd">
<!-- Generated by graphviz version 2.40.1 (20161225.0304)
 -->
<!-- Title: analysis/blob/master/Prototype2/hcalLab/evDisplay.C Pages: 1 -->
<svg width="1993pt" height="497pt"
 viewBox="0.00 0.00 1992.50 497.00" xmlns="http://www.w3.org/2000/svg" xmlns:xlink="http://www.w3.org/1999/xlink">
<g id="graph0" class="graph" transform="scale(1 1) rotate(0) translate(4 493)">
<title>analysis/blob/master/Prototype2/hcalLab/evDisplay.C</title>
<!-- Node1 -->
<g id="node1" class="node">
<title>Node1</title>
<polygon fill="#bfbfbf" stroke="#000000" points="884.5,-456.5 884.5,-488.5 1064.5,-488.5 1064.5,-456.5 884.5,-456.5"/>
<text text-anchor="start" x="892.5" y="-475.5" font-family="FreeSans" font-size="10.00" fill="#000000">analysis/blob/master</text>
<text text-anchor="middle" x="974.5" y="-463.5" font-family="FreeSans" font-size="10.00" fill="#000000">/Prototype2/hcalLab/evDisplay.C</text>
</g>
<!-- Node2 -->
<g id="node2" class="node">
<title>Node2</title>
<polygon fill="none" stroke="#bfbfbf" points="0,-399.5 0,-419.5 57,-419.5 57,-399.5 0,-399.5"/>
<text text-anchor="middle" x="28.5" y="-406.5" font-family="FreeSans" font-size="10.00" fill="#000000">iomanip</text>
</g>
<!-- Node1&#45;&gt;Node2 -->
<g id="edge1" class="edge">
<title>Node1&#45;&gt;Node2</title>
<path fill="none" stroke="#191970" d="M884.3047,-469.8013C690.6121,-463.6049 239.1694,-446.912 66.9944,-419.8939"/>
<polygon fill="#191970" stroke="#191970" points="67.4754,-416.4262 57.0418,-418.267 66.3461,-423.3345 67.4754,-416.4262"/>
</g>
<!-- Node3 -->
<g id="node3" class="node">
<title>Node3</title>
<polygon fill="none" stroke="#bfbfbf" points="75,-399.5 75,-419.5 140,-419.5 140,-399.5 75,-399.5"/>
<text text-anchor="middle" x="107.5" y="-406.5" font-family="FreeSans" font-size="10.00" fill="#000000">algorithm</text>
</g>
<!-- Node1&#45;&gt;Node3 -->
<g id="edge2" class="edge">
<title>Node1&#45;&gt;Node3</title>
<path fill="none" stroke="#191970" d="M884.3285,-468.9042C704.4507,-461.388 305.6458,-442.9171 149.957,-419.944"/>
<polygon fill="#191970" stroke="#191970" points="150.4739,-416.4824 140.0586,-418.4243 149.4116,-423.4013 150.4739,-416.4824"/>
</g>
<!-- Node4 -->
<g id="node4" class="node">
<title>Node4</title>
<polygon fill="none" stroke="#bfbfbf" points="158,-399.5 158,-419.5 215,-419.5 215,-399.5 158,-399.5"/>
<text text-anchor="middle" x="186.5" y="-406.5" font-family="FreeSans" font-size="10.00" fill="#000000">numeric</text>
</g>
<!-- Node1&#45;&gt;Node4 -->
<g id="edge3" class="edge">
<title>Node1&#45;&gt;Node4</title>
<path fill="none" stroke="#191970" d="M884.4744,-468.4548C717.9365,-460.6071 366.6668,-442.2575 225.6008,-419.8214"/>
<polygon fill="#191970" stroke="#191970" points="225.8496,-416.3149 215.4114,-418.1295 224.7029,-423.2203 225.8496,-416.3149"/>
</g>
<!-- Node5 -->
<g id="node5" class="node">
<title>Node5</title>
<polygon fill="none" stroke="#bfbfbf" points="233.5,-399.5 233.5,-419.5 281.5,-419.5 281.5,-399.5 233.5,-399.5"/>
<text text-anchor="middle" x="257.5" y="-406.5" font-family="FreeSans" font-size="10.00" fill="#000000">cmath</text>
</g>
<!-- Node1&#45;&gt;Node5 -->
<g id="edge4" class="edge">
<title>Node1&#45;&gt;Node5</title>
<path fill="none" stroke="#191970" d="M884.294,-471.0315C753.5682,-467.6616 504.2567,-456.5608 295.5,-420 294.2485,-419.7808 292.9788,-419.5382 291.7,-419.2768"/>
<polygon fill="#191970" stroke="#191970" points="292.4063,-415.8476 281.872,-416.9783 290.8122,-422.6637 292.4063,-415.8476"/>
</g>
<!-- Node6 -->
<g id="node6" class="node">
<title>Node6</title>
<polygon fill="none" stroke="#bfbfbf" points="410.5,-114.5 410.5,-134.5 454.5,-134.5 454.5,-114.5 410.5,-114.5"/>
<text text-anchor="middle" x="432.5" y="-121.5" font-family="FreeSans" font-size="10.00" fill="#000000">ctime</text>
</g>
<!-- Node1&#45;&gt;Node6 -->
<g id="edge5" class="edge">
<title>Node1&#45;&gt;Node6</title>
<path fill="none" stroke="#191970" d="M884.2113,-468.718C725.0897,-461.4709 407.2412,-444.1736 362.5,-420 328.9422,-401.8688 309.5,-390.6427 309.5,-352.5 309.5,-352.5 309.5,-352.5 309.5,-238.5 309.5,-188.654 364.5096,-154.4929 400.953,-137.3308"/>
<polygon fill="#191970" stroke="#191970" points="402.5558,-140.4473 410.2256,-133.1381 399.6718,-134.0691 402.5558,-140.4473"/>
</g>
<!-- Node7 -->
<g id="node7" class="node">
<title>Node7</title>
<polygon fill="none" stroke="#bfbfbf" points="727.5,-399.5 727.5,-419.5 787.5,-419.5 787.5,-399.5 727.5,-399.5"/>
<text text-anchor="middle" x="757.5" y="-406.5" font-family="FreeSans" font-size="10.00" fill="#000000">iostream</text>
</g>
<!-- Node1&#45;&gt;Node7 -->
<g id="edge6" class="edge">
<title>Node1&#45;&gt;Node7</title>
<path fill="none" stroke="#191970" d="M919.1803,-456.4394C881.1223,-445.3904 831.4668,-430.9742 797.2803,-421.0491"/>
<polygon fill="#191970" stroke="#191970" points="798.2139,-417.6757 787.6346,-418.2488 796.2622,-424.3981 798.2139,-417.6757"/>
</g>
<!-- Node8 -->
<g id="node8" class="node">
<title>Node8</title>
<polygon fill="none" stroke="#bfbfbf" points="806,-399.5 806,-419.5 861,-419.5 861,-399.5 806,-399.5"/>
<text text-anchor="middle" x="833.5" y="-406.5" font-family="FreeSans" font-size="10.00" fill="#000000">fstream</text>
</g>
<!-- Node1&#45;&gt;Node8 -->
<g id="edge7" class="edge">
<title>Node1&#45;&gt;Node8</title>
<path fill="none" stroke="#191970" d="M938.5549,-456.4394C915.9535,-446.3409 887.0571,-433.4298 865.2931,-423.7054"/>
<polygon fill="#191970" stroke="#191970" points="866.701,-420.501 856.1431,-419.6171 863.8454,-426.8921 866.701,-420.501"/>
</g>
<!-- Node9 -->
<g id="node9" class="node">
<title>Node9</title>
<polygon fill="none" stroke="#bfbfbf" points="879.5,-399.5 879.5,-419.5 929.5,-419.5 929.5,-399.5 879.5,-399.5"/>
<text text-anchor="middle" x="904.5" y="-406.5" font-family="FreeSans" font-size="10.00" fill="#000000">cstdlib</text>
</g>
<!-- Node1&#45;&gt;Node9 -->
<g id="edge8" class="edge">
<title>Node1&#45;&gt;Node9</title>
<path fill="none" stroke="#191970" d="M956.4733,-456.2759C946.3726,-447.1854 933.7836,-435.8552 923.5254,-426.6229"/>
<polygon fill="#191970" stroke="#191970" points="925.6647,-423.8394 915.8903,-419.7513 920.9819,-429.0425 925.6647,-423.8394"/>
</g>
<!-- Node10 -->
<g id="node10" class="node">
<title>Node10</title>
<polygon fill="none" stroke="#bfbfbf" points="947.5,-399.5 947.5,-419.5 1001.5,-419.5 1001.5,-399.5 947.5,-399.5"/>
<text text-anchor="middle" x="974.5" y="-406.5" font-family="FreeSans" font-size="10.00" fill="#000000">stdint.h</text>
</g>
<!-- Node1&#45;&gt;Node10 -->
<g id="edge9" class="edge">
<title>Node1&#45;&gt;Node10</title>
<path fill="none" stroke="#191970" d="M974.5,-456.2759C974.5,-448.2654 974.5,-438.5159 974.5,-429.9952"/>
<polygon fill="#191970" stroke="#191970" points="978.0001,-429.7512 974.5,-419.7513 971.0001,-429.7513 978.0001,-429.7512"/>
</g>
<!-- Node11 -->
<g id="node11" class="node">
<title>Node11</title>
<g id="a_node11"><a xlink:href="../../d1/d35/fileEventiterator_8h.html" target="_top" xlink:title="fileEventiterator.h">
<polygon fill="none" stroke="#000000" points="409.5,-399.5 409.5,-419.5 515.5,-419.5 515.5,-399.5 409.5,-399.5"/>
<text text-anchor="middle" x="462.5" y="-406.5" font-family="FreeSans" font-size="10.00" fill="#000000">fileEventiterator.h</text>
</a>
</g>
</g>
<!-- Node1&#45;&gt;Node11 -->
<g id="edge10" class="edge">
<title>Node1&#45;&gt;Node11</title>
<path fill="none" stroke="#191970" d="M884.4535,-462.8925C794.4716,-453.0529 652.2336,-436.8509 529.5,-420 528.2206,-419.8243 526.9277,-419.6444 525.6251,-419.461"/>
<polygon fill="#191970" stroke="#191970" points="525.9009,-415.9646 515.5029,-417.9969 524.8988,-422.8925 525.9009,-415.9646"/>
</g>
<!-- Node14 -->
<g id="node14" class="node">
<title>Node14</title>
<g id="a_node14"><a xlink:href="../../d6/d8d/Event_8h.html" target="_top" xlink:title="Event.h">
<polygon fill="none" stroke="#000000" points="408.5,-171.5 408.5,-191.5 462.5,-191.5 462.5,-171.5 408.5,-171.5"/>
<text text-anchor="middle" x="435.5" y="-178.5" font-family="FreeSans" font-size="10.00" fill="#000000">Event.h</text>
</a>
</g>
</g>
<!-- Node1&#45;&gt;Node14 -->
<g id="edge44" class="edge">
<title>Node1&#45;&gt;Node14</title>
<path fill="none" stroke="#191970" d="M884.4659,-468.1746C733.5563,-460.3471 441.9255,-442.5332 400.5,-420 366.9935,-401.7743 347.5,-390.6427 347.5,-352.5 347.5,-352.5 347.5,-352.5 347.5,-295.5 347.5,-253.494 385.402,-217.5232 411.4572,-197.7581"/>
<polygon fill="#191970" stroke="#191970" points="413.7545,-200.4145 419.7674,-191.6912 409.627,-194.7609 413.7545,-200.4145"/>
</g>
<!-- Node15 -->
<g id="node15" class="node">
<title>Node15</title>
<g id="a_node15"><a xlink:href="../../d3/d76/packet_8h.html" target="_top" xlink:title="packet.h">
<polygon fill="none" stroke="#000000" points="1024,-114.5 1024,-134.5 1083,-134.5 1083,-114.5 1024,-114.5"/>
<text text-anchor="middle" x="1053.5" y="-121.5" font-family="FreeSans" font-size="10.00" fill="#000000">packet.h</text>
</a>
</g>
</g>
<!-- Node1&#45;&gt;Node15 -->
<g id="edge45" class="edge">
<title>Node1&#45;&gt;Node15</title>
<path fill="none" stroke="#191970" d="M884.3253,-467.2182C769.7755,-459.5716 584.3553,-443.6887 563.5,-420 557.3326,-412.9947 558.0863,-406.6028 563.5,-399 591.8715,-359.1559 621.8216,-380.4923 667.5,-363 789.526,-316.2707 827.4646,-317.8849 938.5,-249 971.4353,-228.5674 978.2748,-220.5388 1004.5,-192 1018.5115,-176.7524 1032.1588,-157.4774 1041.4769,-143.4321"/>
<polygon fill="#191970" stroke="#191970" points="1044.6662,-144.9481 1047.1875,-134.6576 1038.7993,-141.1298 1044.6662,-144.9481"/>
</g>
<!-- Node31 -->
<g id="node31" class="node">
<title>Node31</title>
<g id="a_node31"><a xlink:href="../../de/d68/packet__hbd__fpgashort_8h.html" target="_top" xlink:title="packet_hbd_fpgashort.h">
<polygon fill="none" stroke="#000000" points="572,-399.5 572,-419.5 709,-419.5 709,-399.5 572,-399.5"/>
<text text-anchor="middle" x="640.5" y="-406.5" font-family="FreeSans" font-size="10.00" fill="#000000">packet_hbd_fpgashort.h</text>
</a>
</g>
</g>
<!-- Node1&#45;&gt;Node31 -->
<g id="edge46" class="edge">
<title>Node1&#45;&gt;Node31</title>
<path fill="none" stroke="#191970" d="M889.3535,-456.4394C831.4323,-445.5142 756.0583,-431.2969 703.5066,-421.3845"/>
<polygon fill="#191970" stroke="#191970" points="704.1165,-417.9379 693.641,-419.5236 702.819,-424.8166 704.1165,-417.9379"/>
</g>
<!-- Node39 -->
<g id="node39" class="node">
<title>Node39</title>
<polygon fill="none" stroke="#bfbfbf" points="1019.5,-399.5 1019.5,-419.5 1079.5,-419.5 1079.5,-399.5 1019.5,-399.5"/>
<text text-anchor="middle" x="1049.5" y="-406.5" font-family="FreeSans" font-size="10.00" fill="#000000">TROOT.h</text>
</g>
<!-- Node1&#45;&gt;Node39 -->
<g id="edge55" class="edge">
<title>Node1&#45;&gt;Node39</title>
<path fill="none" stroke="#191970" d="M993.8144,-456.2759C1004.7436,-447.0954 1018.3921,-435.6307 1029.4414,-426.3492"/>
<polygon fill="#191970" stroke="#191970" points="1031.8902,-428.8632 1037.2961,-419.7513 1027.3878,-423.5033 1031.8902,-428.8632"/>
</g>
<!-- Node40 -->
<g id="node40" class="node">
<title>Node40</title>
<polygon fill="none" stroke="#bfbfbf" points="1098,-399.5 1098,-419.5 1143,-419.5 1143,-399.5 1098,-399.5"/>
<text text-anchor="middle" x="1120.5" y="-406.5" font-family="FreeSans" font-size="10.00" fill="#000000">TF1.h</text>
</g>
<!-- Node1&#45;&gt;Node40 -->
<g id="edge56" class="edge">
<title>Node1&#45;&gt;Node40</title>
<path fill="none" stroke="#191970" d="M1011.7197,-456.4394C1035.5233,-446.168 1066.0701,-432.9869 1088.7304,-423.2088"/>
<polygon fill="#191970" stroke="#191970" points="1090.1214,-426.4206 1097.9164,-419.245 1087.348,-419.9934 1090.1214,-426.4206"/>
</g>
<!-- Node41 -->
<g id="node41" class="node">
<title>Node41</title>
<polygon fill="none" stroke="#bfbfbf" points="1161,-399.5 1161,-419.5 1208,-419.5 1208,-399.5 1161,-399.5"/>
<text text-anchor="middle" x="1184.5" y="-406.5" font-family="FreeSans" font-size="10.00" fill="#000000">TH1.h</text>
</g>
<!-- Node1&#45;&gt;Node41 -->
<g id="edge57" class="edge">
<title>Node1&#45;&gt;Node41</title>
<path fill="none" stroke="#191970" d="M1030.351,-456.497C1063.1567,-446.9887 1105.6474,-434.4881 1151.0336,-420.4065"/>
<polygon fill="#191970" stroke="#191970" points="1152.2526,-423.6928 1160.76,-417.3782 1150.1716,-417.0092 1152.2526,-423.6928"/>
</g>
<!-- Node42 -->
<g id="node42" class="node">
<title>Node42</title>
<polygon fill="none" stroke="#bfbfbf" points="1226,-399.5 1226,-419.5 1277,-419.5 1277,-399.5 1226,-399.5"/>
<text text-anchor="middle" x="1251.5" y="-406.5" font-family="FreeSans" font-size="10.00" fill="#000000">TH1F.h</text>
</g>
<!-- Node1&#45;&gt;Node42 -->
<g id="edge58" class="edge">
<title>Node1&#45;&gt;Node42</title>
<path fill="none" stroke="#191970" d="M1057.3097,-456.465C1102.0044,-447.3721 1158.2773,-435.2228 1216.252,-420.1889"/>
<polygon fill="#191970" stroke="#191970" points="1217.1604,-423.5691 1225.9485,-417.6513 1215.3882,-416.7971 1217.1604,-423.5691"/>
</g>
<!-- Node43 -->
<g id="node43" class="node">
<title>Node43</title>
<polygon fill="none" stroke="#bfbfbf" points="1295,-399.5 1295,-419.5 1364,-419.5 1364,-399.5 1295,-399.5"/>
<text text-anchor="middle" x="1329.5" y="-406.5" font-family="FreeSans" font-size="10.00" fill="#000000">TCanvas.h</text>
</g>
<!-- Node1&#45;&gt;Node43 -->
<g id="edge59" class="edge">
<title>Node1&#45;&gt;Node43</title>
<path fill="none" stroke="#191970" d="M1064.5951,-459.1182C1124.5232,-449.8006 1205.185,-436.4655 1284.63,-420.2901"/>
<polygon fill="#191970" stroke="#191970" points="1285.7234,-423.6387 1294.8152,-418.1991 1284.3156,-416.7817 1285.7234,-423.6387"/>
</g>
<!-- Node44 -->
<g id="node44" class="node">
<title>Node44</title>
<polygon fill="none" stroke="#bfbfbf" points="1382.5,-399.5 1382.5,-419.5 1446.5,-419.5 1446.5,-399.5 1382.5,-399.5"/>
<text text-anchor="middle" x="1414.5" y="-406.5" font-family="FreeSans" font-size="10.00" fill="#000000">TGraph.h</text>
</g>
<!-- Node1&#45;&gt;Node44 -->
<g id="edge60" class="edge">
<title>Node1&#45;&gt;Node44</title>
<path fill="none" stroke="#191970" d="M1064.5289,-463.7706C1143.3446,-455.412 1261.0575,-441.1988 1372.3001,-420.0543"/>
<polygon fill="#191970" stroke="#191970" points="1373.1944,-423.4465 1382.3534,-418.1208 1371.8723,-416.5725 1373.1944,-423.4465"/>
</g>
<!-- Node45 -->
<g id="node45" class="node">
<title>Node45</title>
<polygon fill="none" stroke="#bfbfbf" points="1465,-399.5 1465,-419.5 1528,-419.5 1528,-399.5 1465,-399.5"/>
<text text-anchor="middle" x="1496.5" y="-406.5" font-family="FreeSans" font-size="10.00" fill="#000000">TString.h</text>
</g>
<!-- Node1&#45;&gt;Node45 -->
<g id="edge61" class="edge">
<title>Node1&#45;&gt;Node45</title>
<path fill="none" stroke="#191970" d="M1064.5856,-466.506C1159.3699,-459.3283 1312.961,-445.2307 1454.635,-419.9296"/>
<polygon fill="#191970" stroke="#191970" points="1455.5966,-423.3125 1464.814,-418.0885 1454.3507,-416.4243 1455.5966,-423.3125"/>
</g>
<!-- Node46 -->
<g id="node46" class="node">
<title>Node46</title>
<polygon fill="none" stroke="#bfbfbf" points="1546,-399.5 1546,-419.5 1635,-419.5 1635,-399.5 1546,-399.5"/>
<text text-anchor="middle" x="1590.5" y="-406.5" font-family="FreeSans" font-size="10.00" fill="#000000">TApplication.h</text>
</g>
<!-- Node1&#45;&gt;Node46 -->
<g id="edge62" class="edge">
<title>Node1&#45;&gt;Node46</title>
<path fill="none" stroke="#191970" d="M1064.5444,-466.9625C1173.8622,-459.5953 1363.9671,-444.7164 1535.7532,-420.1456"/>
<polygon fill="#191970" stroke="#191970" points="1536.3393,-423.5974 1545.7362,-418.7037 1535.3386,-416.6693 1536.3393,-423.5974"/>
</g>
<!-- Node47 -->
<g id="node47" class="node">
<title>Node47</title>
<polygon fill="none" stroke="#bfbfbf" points="1652.5,-399.5 1652.5,-419.5 1710.5,-419.5 1710.5,-399.5 1652.5,-399.5"/>
<text text-anchor="middle" x="1681.5" y="-406.5" font-family="FreeSans" font-size="10.00" fill="#000000">TStyle.h</text>
</g>
<!-- Node1&#45;&gt;Node47 -->
<g id="edge63" class="edge">
<title>Node1&#45;&gt;Node47</title>
<path fill="none" stroke="#191970" d="M1064.6147,-467.661C1216.5702,-459.1398 1518.5843,-440.557 1642.1466,-420.1279"/>
<polygon fill="#191970" stroke="#191970" points="1642.8795,-423.5532 1652.1371,-418.4007 1641.687,-416.6555 1642.8795,-423.5532"/>
</g>
<!-- Node48 -->
<g id="node48" class="node">
<title>Node48</title>
<polygon fill="none" stroke="#bfbfbf" points="1728.5,-399.5 1728.5,-419.5 1798.5,-419.5 1798.5,-399.5 1728.5,-399.5"/>
<text text-anchor="middle" x="1763.5" y="-406.5" font-family="FreeSans" font-size="10.00" fill="#000000">TSystem.h</text>
</g>
<!-- Node1&#45;&gt;Node48 -->
<g id="edge64" class="edge">
<title>Node1&#45;&gt;Node48</title>
<path fill="none" stroke="#191970" d="M1064.7638,-470.9021C1203.506,-467.3915 1477.5052,-456.284 1718.073,-420.0082"/>
<polygon fill="#191970" stroke="#191970" points="1718.6992,-423.4532 1728.057,-418.4851 1717.6436,-416.5333 1718.6992,-423.4532"/>
</g>
<!-- Node49 -->
<g id="node49" class="node">
<title>Node49</title>
<polygon fill="none" stroke="#bfbfbf" points="1816.5,-399.5 1816.5,-419.5 1886.5,-419.5 1886.5,-399.5 1816.5,-399.5"/>
<text text-anchor="middle" x="1851.5" y="-406.5" font-family="FreeSans" font-size="10.00" fill="#000000">TGClient.h</text>
</g>
<!-- Node1&#45;&gt;Node49 -->
<g id="edge65" class="edge">
<title>Node1&#45;&gt;Node49</title>
<path fill="none" stroke="#191970" d="M1064.7009,-468.7717C1245.7054,-460.9759 1648.6308,-441.9588 1806.0515,-419.9613"/>
<polygon fill="#191970" stroke="#191970" points="1806.6672,-423.4086 1816.0605,-418.5081 1805.6614,-416.4813 1806.6672,-423.4086"/>
</g>
<!-- Node50 -->
<g id="node50" class="node">
<title>Node50</title>
<polygon fill="none" stroke="#bfbfbf" points="1904.5,-399.5 1904.5,-419.5 1984.5,-419.5 1984.5,-399.5 1904.5,-399.5"/>
<text text-anchor="middle" x="1944.5" y="-406.5" font-family="FreeSans" font-size="10.00" fill="#000000">TGWindow.h</text>
</g>
<!-- Node1&#45;&gt;Node50 -->
<g id="edge66" class="edge">
<title>Node1&#45;&gt;Node50</title>
<path fill="none" stroke="#191970" d="M1064.6478,-469.1345C1260.0344,-461.5567 1718.4142,-442.1762 1894.3061,-419.9344"/>
<polygon fill="#191970" stroke="#191970" points="1895.0164,-423.3714 1904.477,-418.6019 1894.107,-416.4307 1895.0164,-423.3714"/>
</g>
<!-- Node12 -->
<g id="node12" class="node">
<title>Node12</title>
<polygon fill="none" stroke="#bfbfbf" points="910.5,-.5 910.5,-20.5 960.5,-20.5 960.5,-.5 910.5,-.5"/>
<text text-anchor="middle" x="935.5" y="-7.5" font-family="FreeSans" font-size="10.00" fill="#000000">stdio.h</text>
</g>
<!-- Node11&#45;&gt;Node12 -->
<g id="edge11" class="edge">
<title>Node11&#45;&gt;Node12</title>
<path fill="none" stroke="#191970" d="M455.1733,-399.3748C426.3935,-358.2864 326.2835,-202.0042 401.5,-114 466.7414,-37.6668 792.1107,-16.7314 900.3887,-11.8312"/>
<polygon fill="#191970" stroke="#191970" points="900.6271,-15.3242 910.4658,-11.3935 900.3233,-8.3308 900.6271,-15.3242"/>
</g>
<!-- Node13 -->
<g id="node13" class="node">
<title>Node13</title>
<g id="a_node13"><a xlink:href="../../de/dbf/Eventiterator_8h.html" target="_top" xlink:title="Eventiterator.h">
<polygon fill="none" stroke="#000000" points="452,-342.5 452,-362.5 543,-362.5 543,-342.5 452,-342.5"/>
<text text-anchor="middle" x="497.5" y="-349.5" font-family="FreeSans" font-size="10.00" fill="#000000">Eventiterator.h</text>
</a>
</g>
</g>
<!-- Node11&#45;&gt;Node13 -->
<g id="edge12" class="edge">
<title>Node11&#45;&gt;Node13</title>
<path fill="none" stroke="#191970" d="M468.7573,-399.3095C473.5353,-391.5282 480.2523,-380.589 485.9916,-371.2423"/>
<polygon fill="#191970" stroke="#191970" points="489.0468,-372.9554 491.2969,-362.6022 483.0816,-369.2925 489.0468,-372.9554"/>
</g>
<!-- Node11&#45;&gt;Node14 -->
<g id="edge22" class="edge">
<title>Node11&#45;&gt;Node14</title>
<path fill="none" stroke="#191970" d="M444.597,-399.4687C432.1945,-391.4086 416.6719,-378.8334 409.5,-363 384.742,-308.3423 410.5407,-235.7711 425.8667,-201.3011"/>
<polygon fill="#191970" stroke="#191970" points="429.1987,-202.4343 430.2193,-191.8887 422.8452,-199.4962 429.1987,-202.4343"/>
</g>
<!-- Node21 -->
<g id="node21" class="node">
<title>Node21</title>
<g id="a_node21"><a xlink:href="../../d6/df6/gzbuffer_8h.html" target="_top" xlink:title="gzbuffer.h">
<polygon fill="none" stroke="#000000" points="561,-342.5 561,-362.5 628,-362.5 628,-342.5 561,-342.5"/>
<text text-anchor="middle" x="594.5" y="-349.5" font-family="FreeSans" font-size="10.00" fill="#000000">gzbuffer.h</text>
</a>
</g>
</g>
<!-- Node11&#45;&gt;Node21 -->
<g id="edge23" class="edge">
<title>Node11&#45;&gt;Node21</title>
<path fill="none" stroke="#191970" d="M485.7951,-399.4408C506.8714,-390.3396 538.1299,-376.8416 561.7245,-366.6531"/>
<polygon fill="#191970" stroke="#191970" points="563.2007,-369.8281 570.9938,-362.6504 560.4256,-363.4016 563.2007,-369.8281"/>
</g>
<!-- Node26 -->
<g id="node26" class="node">
<title>Node26</title>
<g id="a_node26"><a xlink:href="../../db/d5e/oncsBuffer_8h.html" target="_top" xlink:title="oncsBuffer.h">
<polygon fill="none" stroke="#000000" points="683,-285.5 683,-305.5 762,-305.5 762,-285.5 683,-285.5"/>
<text text-anchor="middle" x="722.5" y="-292.5" font-family="FreeSans" font-size="10.00" fill="#000000">oncsBuffer.h</text>
</a>
</g>
</g>
<!-- Node11&#45;&gt;Node26 -->
<g id="edge32" class="edge">
<title>Node11&#45;&gt;Node26</title>
<path fill="none" stroke="#191970" d="M515.8383,-401.2279C551.601,-394.2871 599.0135,-382.329 637.5,-363 663.3119,-350.0365 688.6869,-328.3977 704.8945,-313.1198"/>
<polygon fill="#191970" stroke="#191970" points="707.7239,-315.2532 712.4881,-305.79 702.8624,-310.2168 707.7239,-315.2532"/>
</g>
<!-- Node13&#45;&gt;Node14 -->
<g id="edge13" class="edge">
<title>Node13&#45;&gt;Node14</title>
<path fill="none" stroke="#191970" d="M493.8073,-342.3153C483.7945,-314.6992 455.9917,-238.0174 442.7246,-201.426"/>
<polygon fill="#191970" stroke="#191970" points="445.9508,-200.0557 439.2517,-191.8476 439.37,-202.4417 445.9508,-200.0557"/>
</g>
<!-- Node14&#45;&gt;Node6 -->
<g id="edge21" class="edge">
<title>Node14&#45;&gt;Node6</title>
<path fill="none" stroke="#191970" d="M434.9637,-171.3095C434.5754,-163.9335 434.0379,-153.72 433.5639,-144.715"/>
<polygon fill="#191970" stroke="#191970" points="437.0525,-144.4044 433.0317,-134.6022 430.0622,-144.7724 437.0525,-144.4044"/>
</g>
<!-- Node14&#45;&gt;Node15 -->
<g id="edge14" class="edge">
<title>Node14&#45;&gt;Node15</title>
<path fill="none" stroke="#191970" d="M462.8384,-173.0941C466.0734,-172.2923 469.3457,-171.5681 472.5,-171 525.42,-161.4691 890.9951,-135.7086 1013.5525,-127.2396"/>
<polygon fill="#191970" stroke="#191970" points="1013.9001,-130.7241 1023.6355,-126.544 1013.4183,-123.7407 1013.9001,-130.7241"/>
</g>
<!-- Node16 -->
<g id="node16" class="node">
<title>Node16</title>
<g id="a_node16"><a xlink:href="../../db/d5e/generalDefinitions_8h.html" target="_top" xlink:title="generalDefinitions.h">
<polygon fill="none" stroke="#000000" points="1105.5,-57.5 1105.5,-77.5 1223.5,-77.5 1223.5,-57.5 1105.5,-57.5"/>
<text text-anchor="middle" x="1164.5" y="-64.5" font-family="FreeSans" font-size="10.00" fill="#000000">generalDefinitions.h</text>
</a>
</g>
</g>
<!-- Node15&#45;&gt;Node16 -->
<g id="edge15" class="edge">
<title>Node15&#45;&gt;Node16</title>
<path fill="none" stroke="#191970" d="M1073.0891,-114.4408C1090.4185,-105.5419 1115.9338,-92.4394 1135.6066,-82.3371"/>
<polygon fill="#191970" stroke="#191970" points="1137.4366,-85.332 1144.7334,-77.6504 1134.2389,-79.105 1137.4366,-85.332"/>
</g>
<!-- Node17 -->
<g id="node17" class="node">
<title>Node17</title>
<g id="a_node17"><a xlink:href="../../d8/dd6/event__io_8h.html" target="_top" xlink:title="event_io.h">
<polygon fill="none" stroke="#000000" points="1019.5,-57.5 1019.5,-77.5 1087.5,-77.5 1087.5,-57.5 1019.5,-57.5"/>
<text text-anchor="middle" x="1053.5" y="-64.5" font-family="FreeSans" font-size="10.00" fill="#000000">event_io.h</text>
</a>
</g>
</g>
<!-- Node15&#45;&gt;Node17 -->
<g id="edge16" class="edge">
<title>Node15&#45;&gt;Node17</title>
<path fill="none" stroke="#191970" d="M1053.5,-114.3095C1053.5,-106.9335 1053.5,-96.72 1053.5,-87.715"/>
<polygon fill="#191970" stroke="#191970" points="1057.0001,-87.6022 1053.5,-77.6022 1050.0001,-87.6023 1057.0001,-87.6022"/>
</g>
<!-- Node17&#45;&gt;Node12 -->
<g id="edge20" class="edge">
<title>Node17&#45;&gt;Node12</title>
<path fill="none" stroke="#191970" d="M1032.6756,-57.4408C1014.0859,-48.461 986.635,-35.2008 965.6466,-25.0624"/>
<polygon fill="#191970" stroke="#191970" points="967.04,-21.8485 956.5131,-20.6504 963.9952,-28.1517 967.04,-21.8485"/>
</g>
<!-- Node18 -->
<g id="node18" class="node">
<title>Node18</title>
<polygon fill="none" stroke="#bfbfbf" points="978.5,-.5 978.5,-20.5 1042.5,-20.5 1042.5,-.5 978.5,-.5"/>
<text text-anchor="middle" x="1010.5" y="-7.5" font-family="FreeSans" font-size="10.00" fill="#000000">ioselect.h</text>
</g>
<!-- Node17&#45;&gt;Node18 -->
<g id="edge17" class="edge">
<title>Node17&#45;&gt;Node18</title>
<path fill="none" stroke="#191970" d="M1045.8125,-57.3095C1039.82,-49.3661 1031.3451,-38.1319 1024.1998,-28.6602"/>
<polygon fill="#191970" stroke="#191970" points="1026.9375,-26.4776 1018.121,-20.6022 1021.3493,-30.6933 1026.9375,-26.4776"/>
</g>
<!-- Node19 -->
<g id="node19" class="node">
<title>Node19</title>
<polygon fill="none" stroke="#bfbfbf" points="1060.5,-.5 1060.5,-20.5 1130.5,-20.5 1130.5,-.5 1060.5,-.5"/>
<text text-anchor="middle" x="1095.5" y="-7.5" font-family="FreeSans" font-size="10.00" fill="#000000">iostream.h</text>
</g>
<!-- Node17&#45;&gt;Node19 -->
<g id="edge18" class="edge">
<title>Node17&#45;&gt;Node19</title>
<path fill="none" stroke="#191970" d="M1061.0088,-57.3095C1066.8618,-49.3661 1075.1397,-38.1319 1082.1188,-28.6602"/>
<polygon fill="#191970" stroke="#191970" points="1084.9419,-30.729 1088.0562,-20.6022 1079.3065,-26.5766 1084.9419,-30.729"/>
</g>
<!-- Node20 -->
<g id="node20" class="node">
<title>Node20</title>
<polygon fill="none" stroke="#bfbfbf" points="1148.5,-.5 1148.5,-20.5 1214.5,-20.5 1214.5,-.5 1148.5,-.5"/>
<text text-anchor="middle" x="1181.5" y="-7.5" font-family="FreeSans" font-size="10.00" fill="#000000">iomanip.h</text>
</g>
<!-- Node17&#45;&gt;Node20 -->
<g id="edge19" class="edge">
<title>Node17&#45;&gt;Node20</title>
<path fill="none" stroke="#191970" d="M1076.0892,-57.4408C1096.436,-48.3801 1126.5688,-34.9615 1149.4122,-24.7891"/>
<polygon fill="#191970" stroke="#191970" points="1150.9947,-27.9158 1158.7061,-20.6504 1148.1471,-21.5212 1150.9947,-27.9158"/>
</g>
<!-- Node22 -->
<g id="node22" class="node">
<title>Node22</title>
<g id="a_node22"><a xlink:href="../../d1/dd4/prdfBuffer_8h.html" target="_top" xlink:title="prdfBuffer.h">
<polygon fill="none" stroke="#000000" points="555.5,-285.5 555.5,-305.5 631.5,-305.5 631.5,-285.5 555.5,-285.5"/>
<text text-anchor="middle" x="593.5" y="-292.5" font-family="FreeSans" font-size="10.00" fill="#000000">prdfBuffer.h</text>
</a>
</g>
</g>
<!-- Node21&#45;&gt;Node22 -->
<g id="edge24" class="edge">
<title>Node21&#45;&gt;Node22</title>
<path fill="none" stroke="#191970" d="M594.3212,-342.3095C594.1918,-334.9335 594.0126,-324.72 593.8546,-315.715"/>
<polygon fill="#191970" stroke="#191970" points="597.3522,-315.5393 593.6772,-305.6022 590.3533,-315.6621 597.3522,-315.5393"/>
</g>
<!-- Node22&#45;&gt;Node14 -->
<g id="edge31" class="edge">
<title>Node22&#45;&gt;Node14</title>
<path fill="none" stroke="#191970" d="M579.4786,-285.3833C552.0242,-265.5744 490.9767,-221.5275 457.8772,-197.6456"/>
<polygon fill="#191970" stroke="#191970" points="459.8746,-194.7708 449.7171,-191.7579 455.7787,-200.4475 459.8746,-194.7708"/>
</g>
<!-- Node23 -->
<g id="node23" class="node">
<title>Node23</title>
<g id="a_node23"><a xlink:href="../../d5/d08/buffer_8h.html" target="_top" xlink:title="buffer.h">
<polygon fill="none" stroke="#000000" points="566,-228.5 566,-248.5 621,-248.5 621,-228.5 566,-228.5"/>
<text text-anchor="middle" x="593.5" y="-235.5" font-family="FreeSans" font-size="10.00" fill="#000000">buffer.h</text>
</a>
</g>
</g>
<!-- Node22&#45;&gt;Node23 -->
<g id="edge25" class="edge">
<title>Node22&#45;&gt;Node23</title>
<path fill="none" stroke="#191970" d="M593.5,-285.3095C593.5,-277.9335 593.5,-267.72 593.5,-258.715"/>
<polygon fill="#191970" stroke="#191970" points="597.0001,-258.6022 593.5,-248.6022 590.0001,-258.6023 597.0001,-258.6022"/>
</g>
<!-- Node24 -->
<g id="node24" class="node">
<title>Node24</title>
<g id="a_node24"><a xlink:href="../../d7/d43/phenixTypes_8h.html" target="_top" xlink:title="phenixTypes.h">
<polygon fill="none" stroke="#000000" points="605.5,-171.5 605.5,-191.5 693.5,-191.5 693.5,-171.5 605.5,-171.5"/>
<text text-anchor="middle" x="649.5" y="-178.5" font-family="FreeSans" font-size="10.00" fill="#000000">phenixTypes.h</text>
</a>
</g>
</g>
<!-- Node22&#45;&gt;Node24 -->
<g id="edge29" class="edge">
<title>Node22&#45;&gt;Node24</title>
<path fill="none" stroke="#191970" d="M603.6497,-285.2698C611.9561,-276.3713 623.4468,-262.7743 630.5,-249 638.2058,-233.9513 643.1425,-215.3656 646.0468,-201.5091"/>
<polygon fill="#191970" stroke="#191970" points="649.5071,-202.0486 647.9543,-191.5681 642.6325,-200.7294 649.5071,-202.0486"/>
</g>
<!-- Node25 -->
<g id="node25" class="node">
<title>Node25</title>
<g id="a_node25"><a xlink:href="../../da/d88/BufferConstants_8h.html" target="_top" xlink:title="BufferConstants.h">
<polygon fill="none" stroke="#000000" points="481,-171.5 481,-191.5 588,-191.5 588,-171.5 481,-171.5"/>
<text text-anchor="middle" x="534.5" y="-178.5" font-family="FreeSans" font-size="10.00" fill="#000000">BufferConstants.h</text>
</a>
</g>
</g>
<!-- Node22&#45;&gt;Node25 -->
<g id="edge30" class="edge">
<title>Node22&#45;&gt;Node25</title>
<path fill="none" stroke="#191970" d="M584.1436,-285.4787C576.1655,-276.4967 564.8527,-262.6661 557.5,-249 549.3538,-233.8591 543.2773,-215.2812 539.4224,-201.4511"/>
<polygon fill="#191970" stroke="#191970" points="542.7419,-200.3124 536.8099,-191.5339 535.9728,-202.0956 542.7419,-200.3124"/>
</g>
<!-- Node23&#45;&gt;Node14 -->
<g id="edge28" class="edge">
<title>Node23&#45;&gt;Node14</title>
<path fill="none" stroke="#191970" d="M565.9785,-228.5714C540.0372,-219.2128 500.979,-205.1222 472.3564,-194.7963"/>
<polygon fill="#191970" stroke="#191970" points="473.3005,-191.4161 462.7061,-191.3149 470.925,-198.0008 473.3005,-191.4161"/>
</g>
<!-- Node23&#45;&gt;Node24 -->
<g id="edge26" class="edge">
<title>Node23&#45;&gt;Node24</title>
<path fill="none" stroke="#191970" d="M603.5117,-228.3095C611.5547,-220.1229 623.0317,-208.441 632.508,-198.7955"/>
<polygon fill="#191970" stroke="#191970" points="635.0634,-201.1885 639.575,-191.6022 630.0701,-196.2827 635.0634,-201.1885"/>
</g>
<!-- Node23&#45;&gt;Node25 -->
<g id="edge27" class="edge">
<title>Node23&#45;&gt;Node25</title>
<path fill="none" stroke="#191970" d="M582.952,-228.3095C574.4781,-220.1229 562.3863,-208.441 552.4023,-198.7955"/>
<polygon fill="#191970" stroke="#191970" points="554.5805,-196.0332 544.9567,-191.6022 549.7168,-201.0676 554.5805,-196.0332"/>
</g>
<!-- Node26&#45;&gt;Node12 -->
<g id="edge42" class="edge">
<title>Node26&#45;&gt;Node12</title>
<path fill="none" stroke="#191970" d="M762.1919,-287.3364C837.0187,-270.7993 991.5,-230.7004 991.5,-181.5 991.5,-181.5 991.5,-181.5 991.5,-124.5 991.5,-87.4833 967.4198,-49.9934 950.8404,-28.5681"/>
<polygon fill="#191970" stroke="#191970" points="953.4882,-26.2755 944.4974,-20.6705 948.0305,-30.6589 953.4882,-26.2755"/>
</g>
<!-- Node26&#45;&gt;Node17 -->
<g id="edge43" class="edge">
<title>Node26&#45;&gt;Node17</title>
<path fill="none" stroke="#191970" d="M750.6636,-285.4491C793.0028,-269.5533 874.48,-235.8604 934.5,-192 957.2285,-175.3909 1010.9021,-115.859 1037.7021,-85.5325"/>
<polygon fill="#191970" stroke="#191970" points="1040.5177,-87.631 1044.5004,-77.8132 1035.2645,-83.0046 1040.5177,-87.631"/>
</g>
<!-- Node26&#45;&gt;Node23 -->
<g id="edge33" class="edge">
<title>Node26&#45;&gt;Node23</title>
<path fill="none" stroke="#191970" d="M699.7343,-285.4408C679.2286,-276.3801 648.8603,-262.9615 625.8385,-252.7891"/>
<polygon fill="#191970" stroke="#191970" points="627.0335,-249.4907 616.472,-248.6504 624.2043,-255.8935 627.0335,-249.4907"/>
</g>
<!-- Node26&#45;&gt;Node25 -->
<g id="edge41" class="edge">
<title>Node26&#45;&gt;Node25</title>
<path fill="none" stroke="#191970" d="M710.2053,-285.3509C693.019,-271.4319 660.538,-246.0885 630.5,-228 610.3707,-215.8784 586.6121,-204.3496 567.7667,-195.8038"/>
<polygon fill="#191970" stroke="#191970" points="568.9627,-192.5047 558.4049,-191.6194 566.1063,-198.8954 568.9627,-192.5047"/>
</g>
<!-- Node27 -->
<g id="node27" class="node">
<title>Node27</title>
<g id="a_node27"><a xlink:href="../../de/d08/oncsEvent_8h.html" target="_top" xlink:title="oncsEvent.h">
<polygon fill="none" stroke="#000000" points="715.5,-228.5 715.5,-248.5 793.5,-248.5 793.5,-228.5 715.5,-228.5"/>
<text text-anchor="middle" x="754.5" y="-235.5" font-family="FreeSans" font-size="10.00" fill="#000000">oncsEvent.h</text>
</a>
</g>
</g>
<!-- Node26&#45;&gt;Node27 -->
<g id="edge34" class="edge">
<title>Node26&#45;&gt;Node27</title>
<path fill="none" stroke="#191970" d="M728.221,-285.3095C732.5439,-277.6093 738.603,-266.8166 743.8138,-257.5349"/>
<polygon fill="#191970" stroke="#191970" points="746.9851,-259.0355 748.8286,-248.6022 740.8812,-255.6087 746.9851,-259.0355"/>
</g>
<!-- Node27&#45;&gt;Node14 -->
<g id="edge35" class="edge">
<title>Node27&#45;&gt;Node14</title>
<path fill="none" stroke="#191970" d="M715.4596,-233.4855C662.6525,-226.3917 565.392,-212.229 472.7112,-191.8346"/>
<polygon fill="#191970" stroke="#191970" points="473.4127,-188.4051 462.8908,-189.646 471.89,-195.2375 473.4127,-188.4051"/>
</g>
<!-- Node27&#45;&gt;Node24 -->
<g id="edge36" class="edge">
<title>Node27&#45;&gt;Node24</title>
<path fill="none" stroke="#191970" d="M735.7281,-228.3095C719.3784,-219.434 695.4604,-206.4499 676.9599,-196.4068"/>
<polygon fill="#191970" stroke="#191970" points="678.5678,-193.2972 668.1094,-191.6022 675.2281,-199.4492 678.5678,-193.2972"/>
</g>
<!-- Node28 -->
<g id="node28" class="node">
<title>Node28</title>
<g id="a_node28"><a xlink:href="../../d1/d25/oncsEvtConstants_8h.html" target="_top" xlink:title="oncsEvtConstants.h">
<polygon fill="none" stroke="#000000" points="764.5,-114.5 764.5,-134.5 880.5,-134.5 880.5,-114.5 764.5,-114.5"/>
<text text-anchor="middle" x="822.5" y="-121.5" font-family="FreeSans" font-size="10.00" fill="#000000">oncsEvtConstants.h</text>
</a>
</g>
</g>
<!-- Node27&#45;&gt;Node28 -->
<g id="edge37" class="edge">
<title>Node27&#45;&gt;Node28</title>
<path fill="none" stroke="#191970" d="M760.5345,-228.3833C771.8978,-209.3331 796.6327,-167.8658 811.1812,-143.4757"/>
<polygon fill="#191970" stroke="#191970" points="814.2643,-145.1391 816.3812,-134.7579 808.2525,-141.5532 814.2643,-145.1391"/>
</g>
<!-- Node29 -->
<g id="node29" class="node">
<title>Node29</title>
<g id="a_node29"><a xlink:href="../../d1/dfa/oncsEvtStructures_8h.html" target="_top" xlink:title="oncsEvtStructures.h">
<polygon fill="none" stroke="#000000" points="808,-171.5 808,-191.5 925,-191.5 925,-171.5 808,-171.5"/>
<text text-anchor="middle" x="866.5" y="-178.5" font-family="FreeSans" font-size="10.00" fill="#000000">oncsEvtStructures.h</text>
</a>
</g>
</g>
<!-- Node27&#45;&gt;Node29 -->
<g id="edge38" class="edge">
<title>Node27&#45;&gt;Node29</title>
<path fill="none" stroke="#191970" d="M774.2655,-228.4408C791.8306,-219.5014 817.7305,-206.3202 837.6167,-196.1996"/>
<polygon fill="#191970" stroke="#191970" points="839.2306,-199.3054 846.5553,-191.6504 836.0556,-193.0669 839.2306,-199.3054"/>
</g>
<!-- Node30 -->
<g id="node30" class="node">
<title>Node30</title>
<polygon fill="none" stroke="#bfbfbf" points="712,-171.5 712,-191.5 751,-191.5 751,-171.5 712,-171.5"/>
<text text-anchor="middle" x="731.5" y="-178.5" font-family="FreeSans" font-size="10.00" fill="#000000">map</text>
</g>
<!-- Node27&#45;&gt;Node30 -->
<g id="edge40" class="edge">
<title>Node27&#45;&gt;Node30</title>
<path fill="none" stroke="#191970" d="M750.3881,-228.3095C747.3463,-220.7714 743.1088,-210.2696 739.4181,-201.123"/>
<polygon fill="#191970" stroke="#191970" points="742.5641,-199.566 735.5763,-191.6022 736.0726,-202.1854 742.5641,-199.566"/>
</g>
<!-- Node29&#45;&gt;Node28 -->
<g id="edge39" class="edge">
<title>Node29&#45;&gt;Node28</title>
<path fill="none" stroke="#191970" d="M858.6337,-171.3095C852.5019,-163.3661 843.8299,-152.1319 836.5184,-142.6602"/>
<polygon fill="#191970" stroke="#191970" points="839.1793,-140.3795 830.2982,-134.6022 833.6382,-144.6569 839.1793,-140.3795"/>
</g>
<!-- Node32 -->
<g id="node32" class="node">
<title>Node32</title>
<g id="a_node32"><a xlink:href="../../d6/dab/packet__w124_8h.html" target="_top" xlink:title="packet_w124.h">
<polygon fill="none" stroke="#000000" points="980.5,-342.5 980.5,-362.5 1072.5,-362.5 1072.5,-342.5 980.5,-342.5"/>
<text text-anchor="middle" x="1026.5" y="-349.5" font-family="FreeSans" font-size="10.00" fill="#000000">packet_w124.h</text>
</a>
</g>
</g>
<!-- Node31&#45;&gt;Node32 -->
<g id="edge47" class="edge">
<title>Node31&#45;&gt;Node32</title>
<path fill="none" stroke="#191970" d="M708.6205,-399.4408C782.9373,-388.4665 900.5462,-371.0994 969.9539,-360.8501"/>
<polygon fill="#191970" stroke="#191970" points="970.8681,-364.2531 980.2495,-359.3297 969.8455,-357.3282 970.8681,-364.2531"/>
</g>
<!-- Node33 -->
<g id="node33" class="node">
<title>Node33</title>
<g id="a_node33"><a xlink:href="../../d0/dd9/packet__A_8h.html" target="_top" xlink:title="packet_A.h">
<polygon fill="none" stroke="#ff0000" points="1032,-285.5 1032,-305.5 1103,-305.5 1103,-285.5 1032,-285.5"/>
<text text-anchor="middle" x="1067.5" y="-292.5" font-family="FreeSans" font-size="10.00" fill="#000000">packet_A.h</text>
</a>
</g>
</g>
<!-- Node32&#45;&gt;Node33 -->
<g id="edge48" class="edge">
<title>Node32&#45;&gt;Node33</title>
<path fill="none" stroke="#191970" d="M1033.83,-342.3095C1039.4854,-334.4472 1047.4598,-323.3608 1054.2284,-313.9507"/>
<polygon fill="#191970" stroke="#191970" points="1057.2355,-315.7641 1060.2335,-305.6022 1051.5528,-311.6765 1057.2355,-315.7641"/>
</g>
<!-- Node35 -->
<g id="node35" class="node">
<title>Node35</title>
<g id="a_node35"><a xlink:href="../../d3/d63/packetHeaders_8h.html" target="_top" xlink:title="packetHeaders.h">
<polygon fill="none" stroke="#ff0000" points="1121,-285.5 1121,-305.5 1222,-305.5 1222,-285.5 1121,-285.5"/>
<text text-anchor="middle" x="1171.5" y="-292.5" font-family="FreeSans" font-size="10.00" fill="#000000">packetHeaders.h</text>
</a>
</g>
</g>
<!-- Node32&#45;&gt;Node35 -->
<g id="edge51" class="edge">
<title>Node32&#45;&gt;Node35</title>
<path fill="none" stroke="#191970" d="M1052.0893,-342.4408C1075.4471,-333.2587 1110.1896,-319.6013 1136.1857,-309.3822"/>
<polygon fill="#191970" stroke="#191970" points="1137.6525,-312.5663 1145.6788,-305.6504 1135.0915,-306.0516 1137.6525,-312.5663"/>
</g>
<!-- Node36 -->
<g id="node36" class="node">
<title>Node36</title>
<polygon fill="none" stroke="#bfbfbf" points="1240.5,-285.5 1240.5,-305.5 1296.5,-305.5 1296.5,-285.5 1240.5,-285.5"/>
<text text-anchor="middle" x="1268.5" y="-292.5" font-family="FreeSans" font-size="10.00" fill="#000000">stddef.h</text>
</g>
<!-- Node32&#45;&gt;Node36 -->
<g id="edge52" class="edge">
<title>Node32&#45;&gt;Node36</title>
<path fill="none" stroke="#191970" d="M1072.6698,-342.7657C1112.1325,-334.2795 1170.6457,-321.306 1230.2914,-306.2205"/>
<polygon fill="#191970" stroke="#191970" points="1231.4333,-309.5415 1240.2603,-303.6819 1229.7058,-302.758 1231.4333,-309.5415"/>
</g>
<!-- Node37 -->
<g id="node37" class="node">
<title>Node37</title>
<polygon fill="none" stroke="#bfbfbf" points="888,-285.5 888,-305.5 941,-305.5 941,-285.5 888,-285.5"/>
<text text-anchor="middle" x="914.5" y="-292.5" font-family="FreeSans" font-size="10.00" fill="#000000">stdlib.h</text>
</g>
<!-- Node32&#45;&gt;Node37 -->
<g id="edge53" class="edge">
<title>Node32&#45;&gt;Node37</title>
<path fill="none" stroke="#191970" d="M1006.7345,-342.4408C989.1694,-333.5014 963.2695,-320.3202 943.3833,-310.1996"/>
<polygon fill="#191970" stroke="#191970" points="944.9444,-307.0669 934.4447,-305.6504 941.7694,-313.3054 944.9444,-307.0669"/>
</g>
<!-- Node38 -->
<g id="node38" class="node">
<title>Node38</title>
<polygon fill="none" stroke="#bfbfbf" points="959.5,-285.5 959.5,-305.5 1013.5,-305.5 1013.5,-285.5 959.5,-285.5"/>
<text text-anchor="middle" x="986.5" y="-292.5" font-family="FreeSans" font-size="10.00" fill="#000000">string.h</text>
</g>
<!-- Node32&#45;&gt;Node38 -->
<g id="edge54" class="edge">
<title>Node32&#45;&gt;Node38</title>
<path fill="none" stroke="#191970" d="M1019.3488,-342.3095C1013.8313,-334.4472 1006.0514,-323.3608 999.4479,-313.9507"/>
<polygon fill="#191970" stroke="#191970" points="1002.1985,-311.7773 993.5893,-305.6022 996.4686,-315.7983 1002.1985,-311.7773"/>
</g>
<!-- Node33&#45;&gt;Node15 -->
<g id="edge49" class="edge">
<title>Node33&#45;&gt;Node15</title>
<path fill="none" stroke="#191970" d="M1066.6662,-285.3153C1064.4149,-257.8178 1058.181,-181.6748 1055.1701,-144.8993"/>
<polygon fill="#191970" stroke="#191970" points="1058.6516,-144.5286 1054.3472,-134.8476 1051.6749,-145.0998 1058.6516,-144.5286"/>
</g>
<!-- Node34 -->
<g id="node34" class="node">
<title>Node34</title>
<g id="a_node34"><a xlink:href="../../dc/de3/packetPublic_8h.html" target="_top" xlink:title="packetPublic.h">
<polygon fill="none" stroke="#ff0000" points="1096,-228.5 1096,-248.5 1185,-248.5 1185,-228.5 1096,-228.5"/>
<text text-anchor="middle" x="1140.5" y="-235.5" font-family="FreeSans" font-size="10.00" fill="#000000">packetPublic.h</text>
</a>
</g>
</g>
<!-- Node33&#45;&gt;Node34 -->
<g id="edge50" class="edge">
<title>Node33&#45;&gt;Node34</title>
<path fill="none" stroke="#191970" d="M1080.5509,-285.3095C1091.347,-276.8798 1106.8894,-264.7439 1119.4433,-254.9415"/>
<polygon fill="#191970" stroke="#191970" points="1121.8342,-257.5153 1127.5621,-248.6022 1117.5261,-251.998 1121.8342,-257.5153"/>
</g>
</g>
</svg>
