<?xml version="1.0" encoding="UTF-8" standalone="no"?>
<!DOCTYPE svg PUBLIC "-//W3C//DTD SVG 1.1//EN"
 "http://www.w3.org/Graphics/SVG/1.1/DTD/svg11.dtd">
<!-- Generated by graphviz version 2.40.1 (20161225.0304)
 -->
<!-- Title: EMCalCalib::InitRun Pages: 1 -->
<svg width="445pt" height="87pt"
 viewBox="0.00 0.00 445.00 87.00" xmlns="http://www.w3.org/2000/svg" xmlns:xlink="http://www.w3.org/1999/xlink">
<g id="graph0" class="graph" transform="scale(1 1) rotate(0) translate(4 83)">
<title>EMCalCalib::InitRun</title>
<!-- Node1 -->
<g id="node1" class="node">
<title>Node1</title>
<polygon fill="#bfbfbf" stroke="#000000" points="0,-19.5 0,-39.5 115,-39.5 115,-19.5 0,-19.5"/>
<text text-anchor="middle" x="57.5" y="-26.5" font-family="FreeSans" font-size="10.00" fill="#000000">EMCalCalib::InitRun</text>
</g>
<!-- Node2 -->
<g id="node2" class="node">
<title>Node2</title>
<g id="a_node2"><a xlink:href="../../d5/d07/classPHNodeIterator.html#aea98bf8619af59b1212a94fb32106baa" target="_top" xlink:title="PHNodeIterator::findFirst">
<polygon fill="none" stroke="#000000" points="151,-39.5 151,-59.5 292,-59.5 292,-39.5 151,-39.5"/>
<text text-anchor="middle" x="221.5" y="-46.5" font-family="FreeSans" font-size="10.00" fill="#000000">PHNodeIterator::findFirst</text>
</a>
</g>
</g>
<!-- Node1&#45;&gt;Node2 -->
<g id="edge1" class="edge">
<title>Node1&#45;&gt;Node2</title>
<path fill="none" stroke="#191970" d="M115.3203,-36.5513C123.6056,-37.5617 132.2527,-38.6162 140.8794,-39.6682"/>
<polygon fill="#191970" stroke="#191970" points="140.624,-43.1629 150.9742,-40.8993 141.4715,-36.2144 140.624,-43.1629"/>
</g>
<!-- Node5 -->
<g id="node5" class="node">
<title>Node5</title>
<g id="a_node5"><a xlink:href="../../de/da4/classEMCalCalib.html#a5f7760bbb83824da6fc43dae2a480a5c" target="_top" xlink:title="EMCalCalib::flag">
<polygon fill="none" stroke="#000000" points="172.5,-.5 172.5,-20.5 270.5,-20.5 270.5,-.5 172.5,-.5"/>
<text text-anchor="middle" x="221.5" y="-7.5" font-family="FreeSans" font-size="10.00" fill="#000000">EMCalCalib::flag</text>
</a>
</g>
</g>
<!-- Node1&#45;&gt;Node5 -->
<g id="edge5" class="edge">
<title>Node1&#45;&gt;Node5</title>
<path fill="none" stroke="#191970" d="M115.3203,-22.8013C130.4559,-21.0478 146.7985,-19.1544 162.019,-17.3911"/>
<polygon fill="#191970" stroke="#191970" points="162.8177,-20.8221 172.3484,-16.1944 162.012,-13.8686 162.8177,-20.8221"/>
</g>
<!-- Node2&#45;&gt;Node2 -->
<g id="edge4" class="edge">
<title>Node2&#45;&gt;Node2</title>
<path fill="none" stroke="#191970" d="M196.4512,-59.7271C185.0254,-68.6067 193.375,-78 221.5,-78 239.957,-78 249.8975,-73.9546 251.3214,-68.6639"/>
<polygon fill="#191970" stroke="#191970" points="254.347,-66.8992 246.5488,-59.7271 248.1723,-70.1968 254.347,-66.8992"/>
</g>
<!-- Node3 -->
<g id="node3" class="node">
<title>Node3</title>
<g id="a_node3"><a xlink:href="../../dc/d82/classPHNode.html#a4ab1f90aed955a652813bfe377087bda" target="_top" xlink:title="PHNode::getType">
<polygon fill="none" stroke="#000000" points="331,-58.5 331,-78.5 434,-78.5 434,-58.5 331,-58.5"/>
<text text-anchor="middle" x="382.5" y="-65.5" font-family="FreeSans" font-size="10.00" fill="#000000">PHNode::getType</text>
</a>
</g>
</g>
<!-- Node2&#45;&gt;Node3 -->
<g id="edge2" class="edge">
<title>Node2&#45;&gt;Node3</title>
<path fill="none" stroke="#191970" d="M292.1169,-57.8337C301.6722,-58.9613 311.4161,-60.1112 320.799,-61.2185"/>
<polygon fill="#191970" stroke="#191970" points="320.4715,-64.7041 330.8128,-62.4003 321.292,-57.7523 320.4715,-64.7041"/>
</g>
<!-- Node4 -->
<g id="node4" class="node">
<title>Node4</title>
<g id="a_node4"><a xlink:href="../../dc/d82/classPHNode.html#aca3576f926a4401eddc3d88bf0ce0de3" target="_top" xlink:title="PHNode::getName">
<polygon fill="none" stroke="#000000" points="328,-19.5 328,-39.5 437,-39.5 437,-19.5 328,-19.5"/>
<text text-anchor="middle" x="382.5" y="-26.5" font-family="FreeSans" font-size="10.00" fill="#000000">PHNode::getName</text>
</a>
</g>
</g>
<!-- Node2&#45;&gt;Node4 -->
<g id="edge3" class="edge">
<title>Node2&#45;&gt;Node4</title>
<path fill="none" stroke="#191970" d="M292.1169,-40.7277C300.6464,-39.6681 309.3262,-38.5899 317.7654,-37.5416"/>
<polygon fill="#191970" stroke="#191970" points="318.4216,-40.987 327.9138,-36.2809 317.5586,-34.0404 318.4216,-40.987"/>
</g>
</g>
</svg>
