<?xml version="1.0" encoding="UTF-8" standalone="no"?>
<!DOCTYPE svg PUBLIC "-//W3C//DTD SVG 1.1//EN"
 "http://www.w3.org/Graphics/SVG/1.1/DTD/svg11.dtd">
<!-- Generated by graphviz version 2.40.1 (20161225.0304)
 -->
<!-- Title: GenericUnpackPRDF::process_event Pages: 1 -->
<svg width="332pt" height="479pt"
 viewBox="0.00 0.00 332.00 479.00" xmlns="http://www.w3.org/2000/svg" xmlns:xlink="http://www.w3.org/1999/xlink">
<g id="graph0" class="graph" transform="scale(1 1) rotate(0) translate(4 475)">
<title>GenericUnpackPRDF::process_event</title>
<!-- Node1 -->
<g id="node1" class="node">
<title>Node1</title>
<polygon fill="#bfbfbf" stroke="#000000" points="0,-225.5 0,-257.5 125,-257.5 125,-225.5 0,-225.5"/>
<text text-anchor="start" x="8" y="-244.5" font-family="FreeSans" font-size="10.00" fill="#000000">GenericUnpackPRDF::</text>
<text text-anchor="middle" x="62.5" y="-232.5" font-family="FreeSans" font-size="10.00" fill="#000000">process_event</text>
</g>
<!-- Node2 -->
<g id="node2" class="node">
<title>Node2</title>
<g id="a_node2"><a xlink:href="../../d3/dc7/classRawTowerContainer.html#ae60b794b4c7a4ccb3fb2d05c16d453b8" target="_top" xlink:title="RawTowerContainer::\lAddTower">
<polygon fill="none" stroke="#000000" points="181.5,-438.5 181.5,-470.5 303.5,-470.5 303.5,-438.5 181.5,-438.5"/>
<text text-anchor="start" x="189.5" y="-457.5" font-family="FreeSans" font-size="10.00" fill="#000000">RawTowerContainer::</text>
<text text-anchor="middle" x="242.5" y="-445.5" font-family="FreeSans" font-size="10.00" fill="#000000">AddTower</text>
</a>
</g>
</g>
<!-- Node1&#45;&gt;Node2 -->
<g id="edge1" class="edge">
<title>Node1&#45;&gt;Node2</title>
<path fill="none" stroke="#191970" d="M66.3666,-257.5229C75.9331,-293.7171 104.1582,-382.3076 161,-429.5 164.489,-432.3967 168.3104,-434.9582 172.3346,-437.2232"/>
<polygon fill="#191970" stroke="#191970" points="170.9035,-440.4201 181.4179,-441.7229 174.0109,-434.1476 170.9035,-440.4201"/>
</g>
<!-- Node3 -->
<g id="node3" class="node">
<title>Node3</title>
<g id="a_node3"><a xlink:href="../../d9/d9e/evDisplay_8C.html#a493aff38bcceaba17aef8c5257ff963a" target="_top" xlink:title="channel">
<polygon fill="none" stroke="#000000" points="214.5,-399.5 214.5,-419.5 270.5,-419.5 270.5,-399.5 214.5,-399.5"/>
<text text-anchor="middle" x="242.5" y="-406.5" font-family="FreeSans" font-size="10.00" fill="#000000">channel</text>
</a>
</g>
</g>
<!-- Node1&#45;&gt;Node3 -->
<g id="edge2" class="edge">
<title>Node1&#45;&gt;Node3</title>
<path fill="none" stroke="#191970" d="M68.5341,-257.9199C80.8349,-288.9892 111.872,-356.32 161,-390.5 173.5719,-399.2467 189.6092,-404.0117 204.1263,-406.591"/>
<polygon fill="#191970" stroke="#191970" points="203.9517,-410.1033 214.3571,-408.1085 204.9789,-403.1791 203.9517,-410.1033"/>
</g>
<!-- Node4 -->
<g id="node4" class="node">
<title>Node4</title>
<g id="a_node4"><a xlink:href="../../d5/da5/classEvent.html#a1123f0f08345ac39e5e4e7b6a2ffd053" target="_top" xlink:title="Event::getPacket">
<polygon fill="none" stroke="#000000" points="191.5,-360.5 191.5,-380.5 293.5,-380.5 293.5,-360.5 191.5,-360.5"/>
<text text-anchor="middle" x="242.5" y="-367.5" font-family="FreeSans" font-size="10.00" fill="#000000">Event::getPacket</text>
</a>
</g>
</g>
<!-- Node1&#45;&gt;Node4 -->
<g id="edge3" class="edge">
<title>Node1&#45;&gt;Node4</title>
<path fill="none" stroke="#191970" d="M72.3706,-257.7998C88.0081,-282.1562 120.8585,-327.7226 161,-351.5 167.2736,-355.2161 174.2197,-358.2054 181.3336,-360.61"/>
<polygon fill="#191970" stroke="#191970" points="180.5067,-364.0161 191.0908,-363.54 182.5199,-357.3118 180.5067,-364.0161"/>
</g>
<!-- Node5 -->
<g id="node5" class="node">
<title>Node5</title>
<g id="a_node5"><a xlink:href="../../d3/dc7/classRawTowerContainer.html#a94a3368d6cd85ea4c3f204cd1065da26" target="_top" xlink:title="RawTowerContainer::\lgetTower">
<polygon fill="none" stroke="#000000" points="181.5,-309.5 181.5,-341.5 303.5,-341.5 303.5,-309.5 181.5,-309.5"/>
<text text-anchor="start" x="189.5" y="-328.5" font-family="FreeSans" font-size="10.00" fill="#000000">RawTowerContainer::</text>
<text text-anchor="middle" x="242.5" y="-316.5" font-family="FreeSans" font-size="10.00" fill="#000000">getTower</text>
</a>
</g>
</g>
<!-- Node1&#45;&gt;Node5 -->
<g id="edge4" class="edge">
<title>Node1&#45;&gt;Node5</title>
<path fill="none" stroke="#191970" d="M85.9092,-257.7385C105.336,-270.661 134.046,-288.5065 161,-300.5 165.3354,-302.4291 169.8633,-304.2671 174.4674,-306.0067"/>
<polygon fill="#191970" stroke="#191970" points="173.3934,-309.3399 183.9878,-309.4365 175.766,-302.7542 173.3934,-309.3399"/>
</g>
<!-- Node6 -->
<g id="node6" class="node">
<title>Node6</title>
<g id="a_node6"><a xlink:href="../../d5/da5/classEvent.html#afbeea416336f3790420059c3514b9c00" target="_top" xlink:title="Event::identify">
<polygon fill="none" stroke="#000000" points="197.5,-270.5 197.5,-290.5 287.5,-290.5 287.5,-270.5 197.5,-270.5"/>
<text text-anchor="middle" x="242.5" y="-277.5" font-family="FreeSans" font-size="10.00" fill="#000000">Event::identify</text>
</a>
</g>
</g>
<!-- Node1&#45;&gt;Node6 -->
<g id="edge5" class="edge">
<title>Node1&#45;&gt;Node6</title>
<path fill="none" stroke="#191970" d="M125.2026,-255.0856C145.4202,-259.466 167.6678,-264.2863 187.3028,-268.5406"/>
<polygon fill="#191970" stroke="#191970" points="186.7936,-272.0114 197.308,-270.7084 188.2759,-265.1702 186.7936,-272.0114"/>
</g>
<!-- Node7 -->
<g id="node7" class="node">
<title>Node7</title>
<g id="a_node7"><a xlink:href="../../d7/d97/classPacket.html#a1bb9f7173023a37b3099fe4b80393300" target="_top" xlink:title="iValue returns the value of a given channel as an int.">
<polygon fill="none" stroke="#000000" points="199.5,-231.5 199.5,-251.5 285.5,-251.5 285.5,-231.5 199.5,-231.5"/>
<text text-anchor="middle" x="242.5" y="-238.5" font-family="FreeSans" font-size="10.00" fill="#000000">Packet::iValue</text>
</a>
</g>
</g>
<!-- Node1&#45;&gt;Node7 -->
<g id="edge6" class="edge">
<title>Node1&#45;&gt;Node7</title>
<path fill="none" stroke="#191970" d="M125.2026,-241.5C146.025,-241.5 169.0006,-241.5 189.0578,-241.5"/>
<polygon fill="#191970" stroke="#191970" points="189.2536,-245.0001 199.2536,-241.5 189.2535,-238.0001 189.2536,-245.0001"/>
</g>
<!-- Node8 -->
<g id="node8" class="node">
<title>Node8</title>
<g id="a_node8"><a xlink:href="../../d0/d4a/classRawTower__Prototype2.html#ac6a5b1495bb79a9d605a8fc6a765cd79" target="_top" xlink:title="energy assigned to the tower. Depending on stage of process and DST node name, it could be energy dep...">
<polygon fill="none" stroke="#000000" points="179.5,-180.5 179.5,-212.5 305.5,-212.5 305.5,-180.5 179.5,-180.5"/>
<text text-anchor="start" x="187.5" y="-199.5" font-family="FreeSans" font-size="10.00" fill="#000000">RawTower_Prototype2</text>
<text text-anchor="middle" x="242.5" y="-187.5" font-family="FreeSans" font-size="10.00" fill="#000000">::set_energy</text>
</a>
</g>
</g>
<!-- Node1&#45;&gt;Node8 -->
<g id="edge7" class="edge">
<title>Node1&#45;&gt;Node8</title>
<path fill="none" stroke="#191970" d="M125.2026,-225.8244C139.4641,-222.259 154.7358,-218.4411 169.388,-214.778"/>
<polygon fill="#191970" stroke="#191970" points="170.5604,-218.0927 179.4129,-212.2718 168.8626,-211.3017 170.5604,-218.0927"/>
</g>
<!-- Node9 -->
<g id="node9" class="node">
<title>Node9</title>
<g id="a_node9"><a xlink:href="../../d0/d4a/classRawTower__Prototype2.html#a4e73ebeefe0bfb7de4a05ade2af4296a" target="_top" xlink:title="RawTower_Prototype2\l::set_HBD_channel_number">
<polygon fill="none" stroke="#000000" points="164.5,-129.5 164.5,-161.5 320.5,-161.5 320.5,-129.5 164.5,-129.5"/>
<text text-anchor="start" x="172.5" y="-148.5" font-family="FreeSans" font-size="10.00" fill="#000000">RawTower_Prototype2</text>
<text text-anchor="middle" x="242.5" y="-136.5" font-family="FreeSans" font-size="10.00" fill="#000000">::set_HBD_channel_number</text>
</a>
</g>
</g>
<!-- Node1&#45;&gt;Node9 -->
<g id="edge8" class="edge">
<title>Node1&#45;&gt;Node9</title>
<path fill="none" stroke="#191970" d="M81.3558,-225.3873C100.3898,-209.8006 131.16,-186.4081 161,-171.5 165.5339,-169.2349 170.3072,-167.1116 175.1755,-165.1327"/>
<polygon fill="#191970" stroke="#191970" points="176.5372,-168.3591 184.6169,-161.5056 174.0268,-161.8247 176.5372,-168.3591"/>
</g>
<!-- Node10 -->
<g id="node10" class="node">
<title>Node10</title>
<g id="a_node10"><a xlink:href="../../d0/d4a/classRawTower__Prototype2.html#ab282679ccf9eeaaae7c9aef4c3a79ba3" target="_top" xlink:title="RawTower_Prototype2\l::set_signal_samples">
<polygon fill="none" stroke="#000000" points="179.5,-78.5 179.5,-110.5 305.5,-110.5 305.5,-78.5 179.5,-78.5"/>
<text text-anchor="start" x="187.5" y="-97.5" font-family="FreeSans" font-size="10.00" fill="#000000">RawTower_Prototype2</text>
<text text-anchor="middle" x="242.5" y="-85.5" font-family="FreeSans" font-size="10.00" fill="#000000">::set_signal_samples</text>
</a>
</g>
</g>
<!-- Node1&#45;&gt;Node10 -->
<g id="edge9" class="edge">
<title>Node1&#45;&gt;Node10</title>
<path fill="none" stroke="#191970" d="M71.4713,-225.2528C86.5903,-199.3433 119.5896,-148.7198 161,-120.5 163.911,-118.5162 166.9822,-116.6769 170.159,-114.9722"/>
<polygon fill="#191970" stroke="#191970" points="171.8754,-118.0297 179.3456,-110.5166 168.8206,-111.7314 171.8754,-118.0297"/>
</g>
<!-- Node11 -->
<g id="node11" class="node">
<title>Node11</title>
<g id="a_node11"><a xlink:href="../../d7/d97/classPacket.html#adb7c5eab01b87dfd9868f46d5f0d305d" target="_top" xlink:title="Packet::setInternalParameter">
<polygon fill="none" stroke="#000000" points="161,-39.5 161,-59.5 324,-59.5 324,-39.5 161,-39.5"/>
<text text-anchor="middle" x="242.5" y="-46.5" font-family="FreeSans" font-size="10.00" fill="#000000">Packet::setInternalParameter</text>
</a>
</g>
</g>
<!-- Node1&#45;&gt;Node11 -->
<g id="edge10" class="edge">
<title>Node1&#45;&gt;Node11</title>
<path fill="none" stroke="#191970" d="M66.9972,-225.3275C77.4186,-190.969 106.582,-110.4988 161,-69.5 163.6763,-67.4836 166.5296,-65.6681 169.5065,-64.0337"/>
<polygon fill="#191970" stroke="#191970" points="171.2148,-67.0974 178.7543,-59.6538 168.2185,-60.771 171.2148,-67.0974"/>
</g>
<!-- Node12 -->
<g id="node12" class="node">
<title>Node12</title>
<g id="a_node12"><a xlink:href="../../d5/dec/classFun4AllBase.html#a8a5c77a92bdac6bc043476e132379a40" target="_top" xlink:title="Gets the verbosity of this module.">
<polygon fill="none" stroke="#000000" points="176.5,-.5 176.5,-20.5 308.5,-20.5 308.5,-.5 176.5,-.5"/>
<text text-anchor="middle" x="242.5" y="-7.5" font-family="FreeSans" font-size="10.00" fill="#000000">Fun4AllBase::Verbosity</text>
</a>
</g>
</g>
<!-- Node1&#45;&gt;Node12 -->
<g id="edge11" class="edge">
<title>Node1&#45;&gt;Node12</title>
<path fill="none" stroke="#191970" d="M65.151,-225.3962C72.5553,-185.7447 97.2553,-82.8265 161,-30.5 163.4,-28.5299 165.9653,-26.7492 168.6516,-25.14"/>
<polygon fill="#191970" stroke="#191970" points="170.284,-28.2364 177.5891,-20.5627 167.093,-22.006 170.284,-28.2364"/>
</g>
</g>
</svg>
