<?xml version="1.0" encoding="UTF-8" standalone="no"?>
<!DOCTYPE svg PUBLIC "-//W3C//DTD SVG 1.1//EN"
 "http://www.w3.org/Graphics/SVG/1.1/DTD/svg11.dtd">
<!-- Generated by graphviz version 2.40.1 (20161225.0304)
 -->
<!-- Title: ROOTDict::GenerateInitInstanceLocal Pages: 1 -->
<svg width="617pt" height="182pt"
 viewBox="0.00 0.00 617.00 182.00" xmlns="http://www.w3.org/2000/svg" xmlns:xlink="http://www.w3.org/1999/xlink">
<g id="graph0" class="graph" transform="scale(1 1) rotate(0) translate(4 178)">
<title>ROOTDict::GenerateInitInstanceLocal</title>
<!-- Node1 -->
<g id="node1" class="node">
<title>Node1</title>
<polygon fill="#bfbfbf" stroke="#000000" points="0,-76.5 0,-108.5 178,-108.5 178,-76.5 0,-76.5"/>
<text text-anchor="start" x="8" y="-95.5" font-family="FreeSans" font-size="10.00" fill="#000000">ROOTDict::GenerateInitInstance</text>
<text text-anchor="middle" x="89" y="-83.5" font-family="FreeSans" font-size="10.00" fill="#000000">Local</text>
</g>
<!-- Node2 -->
<g id="node2" class="node">
<title>Node2</title>
<g id="a_node2"><a xlink:href="../../d4/d0a/namespaceROOTDict.html#a09a0a3782541b4cfc6612ecda0ebaf43" target="_top" xlink:title="ROOTDict::delete_ExclusiveReco">
<polygon fill="none" stroke="#000000" points="214,-153.5 214,-173.5 395,-173.5 395,-153.5 214,-153.5"/>
<text text-anchor="middle" x="304.5" y="-160.5" font-family="FreeSans" font-size="10.00" fill="#000000">ROOTDict::delete_ExclusiveReco</text>
</a>
</g>
</g>
<!-- Node1&#45;&gt;Node2 -->
<g id="edge1" class="edge">
<title>Node1&#45;&gt;Node2</title>
<path fill="none" stroke="#191970" d="M122.8475,-108.6124C147.6398,-119.9096 182.3449,-134.6878 214,-144.5 221.9356,-146.9598 230.3611,-149.2016 238.7541,-151.2129"/>
<polygon fill="#191970" stroke="#191970" points="238.0305,-154.6378 248.5605,-153.4674 239.599,-147.8157 238.0305,-154.6378"/>
</g>
<!-- Node3 -->
<g id="node3" class="node">
<title>Node3</title>
<g id="a_node3"><a xlink:href="../../d4/d0a/namespaceROOTDict.html#a59deb2a944ac678c408ff3c5761e5cb4" target="_top" xlink:title="ROOTDict::deleteArray\l_ExclusiveReco">
<polygon fill="none" stroke="#000000" points="239,-102.5 239,-134.5 370,-134.5 370,-102.5 239,-102.5"/>
<text text-anchor="start" x="247" y="-121.5" font-family="FreeSans" font-size="10.00" fill="#000000">ROOTDict::deleteArray</text>
<text text-anchor="middle" x="304.5" y="-109.5" font-family="FreeSans" font-size="10.00" fill="#000000">_ExclusiveReco</text>
</a>
</g>
</g>
<!-- Node1&#45;&gt;Node3 -->
<g id="edge2" class="edge">
<title>Node1&#45;&gt;Node3</title>
<path fill="none" stroke="#191970" d="M178.2077,-103.2629C194.9885,-105.2875 212.3878,-107.3867 228.7112,-109.3561"/>
<polygon fill="#191970" stroke="#191970" points="228.3734,-112.8406 238.7206,-110.5637 229.2119,-105.891 228.3734,-112.8406"/>
</g>
<!-- Node4 -->
<g id="node4" class="node">
<title>Node4</title>
<g id="a_node4"><a xlink:href="../../d4/d0a/namespaceROOTDict.html#ad1d39aa4d75db48ec31b04ca6429e1c4" target="_top" xlink:title="ROOTDict::destruct\l_ExclusiveReco">
<polygon fill="none" stroke="#000000" points="247.5,-51.5 247.5,-83.5 361.5,-83.5 361.5,-51.5 247.5,-51.5"/>
<text text-anchor="start" x="255.5" y="-70.5" font-family="FreeSans" font-size="10.00" fill="#000000">ROOTDict::destruct</text>
<text text-anchor="middle" x="304.5" y="-58.5" font-family="FreeSans" font-size="10.00" fill="#000000">_ExclusiveReco</text>
</a>
</g>
</g>
<!-- Node1&#45;&gt;Node4 -->
<g id="edge3" class="edge">
<title>Node1&#45;&gt;Node4</title>
<path fill="none" stroke="#191970" d="M178.2077,-82.1511C197.943,-79.8616 218.5339,-77.4729 237.2238,-75.3047"/>
<polygon fill="#191970" stroke="#191970" points="237.864,-78.754 247.3941,-74.1248 237.0573,-71.8006 237.864,-78.754"/>
</g>
<!-- Node5 -->
<g id="node5" class="node">
<title>Node5</title>
<g id="a_node5"><a xlink:href="../../d4/d0a/namespaceROOTDict.html#a525bed7693ef2a0d12476b3ce1d03e3d" target="_top" xlink:title="ROOTDict::ExclusiveReco\l_Dictionary">
<polygon fill="none" stroke="#000000" points="232.5,-.5 232.5,-32.5 376.5,-32.5 376.5,-.5 232.5,-.5"/>
<text text-anchor="start" x="240.5" y="-19.5" font-family="FreeSans" font-size="10.00" fill="#000000">ROOTDict::ExclusiveReco</text>
<text text-anchor="middle" x="304.5" y="-7.5" font-family="FreeSans" font-size="10.00" fill="#000000">_Dictionary</text>
</a>
</g>
</g>
<!-- Node1&#45;&gt;Node5 -->
<g id="edge4" class="edge">
<title>Node1&#45;&gt;Node5</title>
<path fill="none" stroke="#191970" d="M126.3725,-76.4041C151.0212,-66.0739 184.1502,-52.7287 214,-42.5 220.9107,-40.1319 228.1665,-37.7983 235.4361,-35.5593"/>
<polygon fill="#191970" stroke="#191970" points="236.7669,-38.8135 245.3269,-32.5704 234.7419,-32.1128 236.7669,-38.8135"/>
</g>
<!-- Node6 -->
<g id="node6" class="node">
<title>Node6</title>
<g id="a_node6"><a xlink:href="../../d4/d0a/namespaceROOTDict.html#ac4cdd2fabc07a0a40c3c11efe6ba6fc2" target="_top" xlink:title="ROOTDict::GenerateInitInstance\lLocal">
<polygon fill="none" stroke="#000000" points="431,-.5 431,-32.5 609,-32.5 609,-.5 431,-.5"/>
<text text-anchor="start" x="439" y="-19.5" font-family="FreeSans" font-size="10.00" fill="#000000">ROOTDict::GenerateInitInstance</text>
<text text-anchor="middle" x="520" y="-7.5" font-family="FreeSans" font-size="10.00" fill="#000000">Local</text>
</a>
</g>
</g>
<!-- Node5&#45;&gt;Node6 -->
<g id="edge5" class="edge">
<title>Node5&#45;&gt;Node6</title>
<path fill="none" stroke="#191970" d="M376.558,-16.5C390.6751,-16.5 405.7136,-16.5 420.5416,-16.5"/>
<polygon fill="#191970" stroke="#191970" points="420.7595,-20.0001 430.7595,-16.5 420.7594,-13.0001 420.7595,-20.0001"/>
</g>
</g>
</svg>
