<?xml version="1.0" encoding="UTF-8" standalone="no"?>
<!DOCTYPE svg PUBLIC "-//W3C//DTD SVG 1.1//EN"
 "http://www.w3.org/Graphics/SVG/1.1/DTD/svg11.dtd">
<!-- Generated by graphviz version 2.40.1 (20161225.0304)
 -->
<!-- Title: ROOTDict::GenerateInitInstanceLocal Pages: 1 -->
<svg width="612pt" height="272pt"
 viewBox="0.00 0.00 612.00 272.00" xmlns="http://www.w3.org/2000/svg" xmlns:xlink="http://www.w3.org/1999/xlink">
<g id="graph0" class="graph" transform="scale(1 1) rotate(0) translate(4 268)">
<title>ROOTDict::GenerateInitInstanceLocal</title>
<!-- Node1 -->
<g id="node1" class="node">
<title>Node1</title>
<polygon fill="#bfbfbf" stroke="#000000" points="0,-118.5 0,-150.5 178,-150.5 178,-118.5 0,-118.5"/>
<text text-anchor="start" x="8" y="-137.5" font-family="FreeSans" font-size="10.00" fill="#000000">ROOTDict::GenerateInitInstance</text>
<text text-anchor="middle" x="89" y="-125.5" font-family="FreeSans" font-size="10.00" fill="#000000">Local</text>
</g>
<!-- Node2 -->
<g id="node2" class="node">
<title>Node2</title>
<g id="a_node2"><a xlink:href="../../d4/d0a/namespaceROOTDict.html#a62e505c6f5de45df9df07a9cf938899e" target="_top" xlink:title="ROOTDict::delete_PidCandidate">
<polygon fill="none" stroke="#000000" points="214,-243.5 214,-263.5 390,-263.5 390,-243.5 214,-243.5"/>
<text text-anchor="middle" x="302" y="-250.5" font-family="FreeSans" font-size="10.00" fill="#000000">ROOTDict::delete_PidCandidate</text>
</a>
</g>
</g>
<!-- Node1&#45;&gt;Node2 -->
<g id="edge1" class="edge">
<title>Node1&#45;&gt;Node2</title>
<path fill="none" stroke="#191970" d="M104.2984,-150.779C126.3415,-173.2135 169.3213,-213.2642 214,-234.5 218.6452,-236.7079 223.5502,-238.662 228.5714,-240.3913"/>
<polygon fill="#191970" stroke="#191970" points="227.7442,-243.7998 238.3332,-243.4471 229.8354,-237.1194 227.7442,-243.7998"/>
</g>
<!-- Node3 -->
<g id="node3" class="node">
<title>Node3</title>
<g id="a_node3"><a xlink:href="../../d4/d0a/namespaceROOTDict.html#a40ad78b969fff746d07502e7bfd4fb16" target="_top" xlink:title="ROOTDict::deleteArray\l_PidCandidate">
<polygon fill="none" stroke="#000000" points="236.5,-192.5 236.5,-224.5 367.5,-224.5 367.5,-192.5 236.5,-192.5"/>
<text text-anchor="start" x="244.5" y="-211.5" font-family="FreeSans" font-size="10.00" fill="#000000">ROOTDict::deleteArray</text>
<text text-anchor="middle" x="302" y="-199.5" font-family="FreeSans" font-size="10.00" fill="#000000">_PidCandidate</text>
</a>
</g>
</g>
<!-- Node1&#45;&gt;Node3 -->
<g id="edge2" class="edge">
<title>Node1&#45;&gt;Node3</title>
<path fill="none" stroke="#191970" d="M127.2187,-150.5925C151.7869,-160.6599 184.5132,-173.5581 214,-183.5 220.0247,-185.5313 226.317,-187.5386 232.6458,-189.4798"/>
<polygon fill="#191970" stroke="#191970" points="232.0038,-192.9415 242.5882,-192.4697 234.0198,-186.2381 232.0038,-192.9415"/>
</g>
<!-- Node4 -->
<g id="node4" class="node">
<title>Node4</title>
<g id="a_node4"><a xlink:href="../../d4/d0a/namespaceROOTDict.html#ab6680b97ebcdea843ac5f2301e3d80cb" target="_top" xlink:title="ROOTDict::destruct\l_PidCandidate">
<polygon fill="none" stroke="#000000" points="245,-141.5 245,-173.5 359,-173.5 359,-141.5 245,-141.5"/>
<text text-anchor="start" x="253" y="-160.5" font-family="FreeSans" font-size="10.00" fill="#000000">ROOTDict::destruct</text>
<text text-anchor="middle" x="302" y="-148.5" font-family="FreeSans" font-size="10.00" fill="#000000">_PidCandidate</text>
</a>
</g>
</g>
<!-- Node1&#45;&gt;Node4 -->
<g id="edge3" class="edge">
<title>Node1&#45;&gt;Node4</title>
<path fill="none" stroke="#191970" d="M178.097,-144.1208C197.0538,-146.1678 216.7667,-148.2964 234.7449,-150.2377"/>
<polygon fill="#191970" stroke="#191970" points="234.5056,-153.7321 244.8236,-151.326 235.2572,-146.7726 234.5056,-153.7321"/>
</g>
<!-- Node5 -->
<g id="node5" class="node">
<title>Node5</title>
<g id="a_node5"><a xlink:href="../../d4/d0a/namespaceROOTDict.html#a5c5bf02e5e0cac7a3d8cd445b8c74fef" target="_top" xlink:title="ROOTDict::new_PidCandidate">
<polygon fill="none" stroke="#000000" points="220,-102.5 220,-122.5 384,-122.5 384,-102.5 220,-102.5"/>
<text text-anchor="middle" x="302" y="-109.5" font-family="FreeSans" font-size="10.00" fill="#000000">ROOTDict::new_PidCandidate</text>
</a>
</g>
</g>
<!-- Node1&#45;&gt;Node5 -->
<g id="edge4" class="edge">
<title>Node1&#45;&gt;Node5</title>
<path fill="none" stroke="#191970" d="M178.097,-125.2975C188.5502,-124.2178 199.2333,-123.1144 209.7286,-122.0304"/>
<polygon fill="#191970" stroke="#191970" points="210.1326,-125.5074 219.7201,-120.9984 209.4134,-118.5444 210.1326,-125.5074"/>
</g>
<!-- Node6 -->
<g id="node6" class="node">
<title>Node6</title>
<g id="a_node6"><a xlink:href="../../d4/d0a/namespaceROOTDict.html#aa72059c66b40b5c0ef5ef337727efd73" target="_top" xlink:title="ROOTDict::newArray\l_PidCandidate">
<polygon fill="none" stroke="#000000" points="242,-51.5 242,-83.5 362,-83.5 362,-51.5 242,-51.5"/>
<text text-anchor="start" x="250" y="-70.5" font-family="FreeSans" font-size="10.00" fill="#000000">ROOTDict::newArray</text>
<text text-anchor="middle" x="302" y="-58.5" font-family="FreeSans" font-size="10.00" fill="#000000">_PidCandidate</text>
</a>
</g>
</g>
<!-- Node1&#45;&gt;Node6 -->
<g id="edge5" class="edge">
<title>Node1&#45;&gt;Node6</title>
<path fill="none" stroke="#191970" d="M136.6761,-118.4945C159.9446,-110.777 188.3796,-101.4846 214,-93.5 221.3788,-91.2004 229.1214,-88.8386 236.8249,-86.5207"/>
<polygon fill="#191970" stroke="#191970" points="237.9545,-89.8362 246.5315,-83.6163 235.9478,-83.1299 237.9545,-89.8362"/>
</g>
<!-- Node7 -->
<g id="node7" class="node">
<title>Node7</title>
<g id="a_node7"><a xlink:href="../../d4/d0a/namespaceROOTDict.html#a51d48b79bd2656c17f54c8712d7a5cf7" target="_top" xlink:title="ROOTDict::PidCandidate\l_Dictionary">
<polygon fill="none" stroke="#000000" points="232.5,-.5 232.5,-32.5 371.5,-32.5 371.5,-.5 232.5,-.5"/>
<text text-anchor="start" x="240.5" y="-19.5" font-family="FreeSans" font-size="10.00" fill="#000000">ROOTDict::PidCandidate</text>
<text text-anchor="middle" x="302" y="-7.5" font-family="FreeSans" font-size="10.00" fill="#000000">_Dictionary</text>
</a>
</g>
</g>
<!-- Node1&#45;&gt;Node7 -->
<g id="edge6" class="edge">
<title>Node1&#45;&gt;Node7</title>
<path fill="none" stroke="#191970" d="M106.7323,-118.2963C129.8414,-97.9579 172.2481,-63.2318 214,-42.5 218.6083,-40.2118 223.4544,-38.0871 228.4051,-36.1211"/>
<polygon fill="#191970" stroke="#191970" points="229.8732,-39.3091 238.0193,-32.5347 227.4266,-32.7506 229.8732,-39.3091"/>
</g>
<!-- Node8 -->
<g id="node8" class="node">
<title>Node8</title>
<g id="a_node8"><a xlink:href="../../d4/d0a/namespaceROOTDict.html#ac4cdd2fabc07a0a40c3c11efe6ba6fc2" target="_top" xlink:title="ROOTDict::GenerateInitInstance\lLocal">
<polygon fill="none" stroke="#000000" points="426,-.5 426,-32.5 604,-32.5 604,-.5 426,-.5"/>
<text text-anchor="start" x="434" y="-19.5" font-family="FreeSans" font-size="10.00" fill="#000000">ROOTDict::GenerateInitInstance</text>
<text text-anchor="middle" x="515" y="-7.5" font-family="FreeSans" font-size="10.00" fill="#000000">Local</text>
</a>
</g>
</g>
<!-- Node7&#45;&gt;Node8 -->
<g id="edge7" class="edge">
<title>Node7&#45;&gt;Node8</title>
<path fill="none" stroke="#191970" d="M371.7442,-16.5C385.7424,-16.5 400.7062,-16.5 415.4896,-16.5"/>
<polygon fill="#191970" stroke="#191970" points="415.6814,-20.0001 425.6814,-16.5 415.6813,-13.0001 415.6814,-20.0001"/>
</g>
</g>
</svg>
