<?xml version="1.0" encoding="UTF-8" standalone="no"?>
<!DOCTYPE svg PUBLIC "-//W3C//DTD SVG 1.1//EN"
 "http://www.w3.org/Graphics/SVG/1.1/DTD/svg11.dtd">
<!-- Generated by graphviz version 2.40.1 (20161225.0304)
 -->
<!-- Title: coresoftware/blob/master/generators/JETSCAPE/hydroJetTestPGun.cc Pages: 1 -->
<svg width="2342pt" height="110pt"
 viewBox="0.00 0.00 2342.00 110.00" xmlns="http://www.w3.org/2000/svg" xmlns:xlink="http://www.w3.org/1999/xlink">
<g id="graph0" class="graph" transform="scale(1 1) rotate(0) translate(4 106)">
<title>coresoftware/blob/master/generators/JETSCAPE/hydroJetTestPGun.cc</title>
<!-- Node1 -->
<g id="node1" class="node">
<title>Node1</title>
<polygon fill="#bfbfbf" stroke="#000000" points="949.5,-57.5 949.5,-101.5 1142.5,-101.5 1142.5,-57.5 949.5,-57.5"/>
<text text-anchor="start" x="957.5" y="-88.5" font-family="FreeSans" font-size="10.00" fill="#000000">coresoftware/blob/master</text>
<text text-anchor="start" x="957.5" y="-76.5" font-family="FreeSans" font-size="10.00" fill="#000000">/generators/JETSCAPE/hydroJetTest</text>
<text text-anchor="middle" x="1046" y="-64.5" font-family="FreeSans" font-size="10.00" fill="#000000">PGun.cc</text>
</g>
<!-- Node2 -->
<g id="node2" class="node">
<title>Node2</title>
<polygon fill="none" stroke="#bfbfbf" points="0,-.5 0,-20.5 60,-20.5 60,-.5 0,-.5"/>
<text text-anchor="middle" x="30" y="-7.5" font-family="FreeSans" font-size="10.00" fill="#000000">iostream</text>
</g>
<!-- Node1&#45;&gt;Node2 -->
<g id="edge1" class="edge">
<title>Node1&#45;&gt;Node2</title>
<path fill="none" stroke="#191970" d="M949.4819,-76.2182C741.3682,-68.7426 254.9935,-49.0224 70.2521,-20.8591"/>
<polygon fill="#191970" stroke="#191970" points="70.5258,-17.3589 60.1016,-19.2527 69.4316,-24.2729 70.5258,-17.3589"/>
</g>
<!-- Node3 -->
<g id="node3" class="node">
<title>Node3</title>
<polygon fill="none" stroke="#bfbfbf" points="78,-.5 78,-20.5 126,-20.5 126,-.5 78,-.5"/>
<text text-anchor="middle" x="102" y="-7.5" font-family="FreeSans" font-size="10.00" fill="#000000">time.h</text>
</g>
<!-- Node1&#45;&gt;Node3 -->
<g id="edge2" class="edge">
<title>Node1&#45;&gt;Node3</title>
<path fill="none" stroke="#191970" d="M949.1206,-76.2679C751.4466,-69.1933 306.6225,-50.6975 136.1922,-20.7753"/>
<polygon fill="#191970" stroke="#191970" points="136.8044,-17.3293 126.3379,-18.9736 135.5453,-24.2152 136.8044,-17.3293"/>
</g>
<!-- Node4 -->
<g id="node4" class="node">
<title>Node4</title>
<polygon fill="none" stroke="#bfbfbf" points="144.5,-.5 144.5,-20.5 195.5,-20.5 195.5,-.5 144.5,-.5"/>
<text text-anchor="middle" x="170" y="-7.5" font-family="FreeSans" font-size="10.00" fill="#000000">chrono</text>
</g>
<!-- Node1&#45;&gt;Node4 -->
<g id="edge3" class="edge">
<title>Node1&#45;&gt;Node4</title>
<path fill="none" stroke="#191970" d="M949.2847,-75.5816C763.5508,-67.6051 362.1754,-48.0665 205.777,-20.9476"/>
<polygon fill="#191970" stroke="#191970" points="206.2976,-17.4851 195.8345,-19.1504 205.0524,-24.3734 206.2976,-17.4851"/>
</g>
<!-- Node5 -->
<g id="node5" class="node">
<title>Node5</title>
<polygon fill="none" stroke="#bfbfbf" points="213.5,-.5 213.5,-20.5 262.5,-20.5 262.5,-.5 213.5,-.5"/>
<text text-anchor="middle" x="238" y="-7.5" font-family="FreeSans" font-size="10.00" fill="#000000">thread</text>
</g>
<!-- Node1&#45;&gt;Node5 -->
<g id="edge4" class="edge">
<title>Node1&#45;&gt;Node5</title>
<path fill="none" stroke="#191970" d="M949.2413,-74.8979C775.5776,-66.1985 416.525,-46.0997 272.6984,-20.676"/>
<polygon fill="#191970" stroke="#191970" points="273.1892,-17.2076 262.7204,-18.8364 271.92,-24.0916 273.1892,-17.2076"/>
</g>
<!-- Node6 -->
<g id="node6" class="node">
<title>Node6</title>
<polygon fill="none" stroke="#bfbfbf" points="281,-.5 281,-20.5 351,-20.5 351,-.5 281,-.5"/>
<text text-anchor="middle" x="316" y="-7.5" font-family="FreeSans" font-size="10.00" fill="#000000">JetScape.h</text>
</g>
<!-- Node1&#45;&gt;Node6 -->
<g id="edge5" class="edge">
<title>Node1&#45;&gt;Node6</title>
<path fill="none" stroke="#191970" d="M949.445,-75.809C818.1702,-69.7754 576.0499,-55.0435 361.3305,-21.022"/>
<polygon fill="#191970" stroke="#191970" points="361.8778,-17.5651 351.4501,-19.4396 360.7708,-24.477 361.8778,-17.5651"/>
</g>
<!-- Node7 -->
<g id="node7" class="node">
<title>Node7</title>
<polygon fill="none" stroke="#bfbfbf" points="369.5,-.5 369.5,-20.5 466.5,-20.5 466.5,-.5 369.5,-.5"/>
<text text-anchor="middle" x="418" y="-7.5" font-family="FreeSans" font-size="10.00" fill="#000000">JetEnergyLoss.h</text>
</g>
<!-- Node1&#45;&gt;Node7 -->
<g id="edge6" class="edge">
<title>Node1&#45;&gt;Node7</title>
<path fill="none" stroke="#191970" d="M949.4105,-71.8643C837.9805,-62.539 649.0816,-45.1473 476.7096,-21.0082"/>
<polygon fill="#191970" stroke="#191970" points="477.0812,-17.526 466.6903,-19.5947 476.1033,-24.4574 477.0812,-17.526"/>
</g>
<!-- Node8 -->
<g id="node8" class="node">
<title>Node8</title>
<polygon fill="none" stroke="#bfbfbf" points="485,-.5 485,-20.5 625,-20.5 625,-.5 485,-.5"/>
<text text-anchor="middle" x="555" y="-7.5" font-family="FreeSans" font-size="10.00" fill="#000000">JetEnergyLossManager.h</text>
</g>
<!-- Node1&#45;&gt;Node8 -->
<g id="edge7" class="edge">
<title>Node1&#45;&gt;Node8</title>
<path fill="none" stroke="#191970" d="M949.2873,-65.909C857.5127,-53.012 721.1982,-33.8557 635.2742,-21.7809"/>
<polygon fill="#191970" stroke="#191970" points="635.7006,-18.3065 625.3109,-20.3808 634.7265,-25.2384 635.7006,-18.3065"/>
</g>
<!-- Node9 -->
<g id="node9" class="node">
<title>Node9</title>
<polygon fill="none" stroke="#bfbfbf" points="643.5,-.5 643.5,-20.5 780.5,-20.5 780.5,-.5 643.5,-.5"/>
<text text-anchor="middle" x="712" y="-7.5" font-family="FreeSans" font-size="10.00" fill="#000000">JetScapeWriterStream.h</text>
</g>
<!-- Node1&#45;&gt;Node9 -->
<g id="edge8" class="edge">
<title>Node1&#45;&gt;Node9</title>
<path fill="none" stroke="#191970" d="M949.3934,-59.5423C891.535,-47.5896 819.8782,-32.7862 770.515,-22.5884"/>
<polygon fill="#191970" stroke="#191970" points="771.1432,-19.1444 760.6418,-20.5488 769.7269,-25.9996 771.1432,-19.1444"/>
</g>
<!-- Node10 -->
<g id="node10" class="node">
<title>Node10</title>
<polygon fill="none" stroke="#bfbfbf" points="798.5,-.5 798.5,-20.5 861.5,-20.5 861.5,-.5 798.5,-.5"/>
<text text-anchor="middle" x="830" y="-7.5" font-family="FreeSans" font-size="10.00" fill="#000000">AdSCFT.h</text>
</g>
<!-- Node1&#45;&gt;Node10 -->
<g id="edge9" class="edge">
<title>Node1&#45;&gt;Node10</title>
<path fill="none" stroke="#191970" d="M977.0624,-57.4783C942.2318,-46.3518 901.1367,-33.2242 871.255,-23.6787"/>
<polygon fill="#191970" stroke="#191970" points="872.1671,-20.2959 861.5763,-20.5869 870.037,-26.9639 872.1671,-20.2959"/>
</g>
<!-- Node11 -->
<g id="node11" class="node">
<title>Node11</title>
<polygon fill="none" stroke="#bfbfbf" points="879.5,-.5 879.5,-20.5 936.5,-20.5 936.5,-.5 879.5,-.5"/>
<text text-anchor="middle" x="908" y="-7.5" font-family="FreeSans" font-size="10.00" fill="#000000">Matter.h</text>
</g>
<!-- Node1&#45;&gt;Node11 -->
<g id="edge10" class="edge">
<title>Node1&#45;&gt;Node11</title>
<path fill="none" stroke="#191970" d="M1001.9565,-57.4783C980.7679,-46.884 955.9507,-34.4753 937.1444,-25.0722"/>
<polygon fill="#191970" stroke="#191970" points="938.6833,-21.9286 928.1737,-20.5869 935.5527,-28.1896 938.6833,-21.9286"/>
</g>
<!-- Node12 -->
<g id="node12" class="node">
<title>Node12</title>
<polygon fill="none" stroke="#bfbfbf" points="954.5,-.5 954.5,-20.5 997.5,-20.5 997.5,-.5 954.5,-.5"/>
<text text-anchor="middle" x="976" y="-7.5" font-family="FreeSans" font-size="10.00" fill="#000000">LBT.h</text>
</g>
<!-- Node1&#45;&gt;Node12 -->
<g id="edge11" class="edge">
<title>Node1&#45;&gt;Node12</title>
<path fill="none" stroke="#191970" d="M1023.4662,-57.2882C1013.8217,-47.7813 1002.7243,-36.8426 993.6861,-27.9334"/>
<polygon fill="#191970" stroke="#191970" points="995.9405,-25.2411 986.3617,-20.7137 991.0265,-30.2263 995.9405,-25.2411"/>
</g>
<!-- Node13 -->
<g id="node13" class="node">
<title>Node13</title>
<polygon fill="none" stroke="#bfbfbf" points="1016,-.5 1016,-20.5 1076,-20.5 1076,-.5 1016,-.5"/>
<text text-anchor="middle" x="1046" y="-7.5" font-family="FreeSans" font-size="10.00" fill="#000000">Martini.h</text>
</g>
<!-- Node1&#45;&gt;Node13 -->
<g id="edge12" class="edge">
<title>Node1&#45;&gt;Node13</title>
<path fill="none" stroke="#191970" d="M1046,-57.2882C1046,-48.8377 1046,-39.2557 1046,-30.9736"/>
<polygon fill="#191970" stroke="#191970" points="1049.5001,-30.7136 1046,-20.7137 1042.5001,-30.7137 1049.5001,-30.7136"/>
</g>
<!-- Node14 -->
<g id="node14" class="node">
<title>Node14</title>
<polygon fill="none" stroke="#bfbfbf" points="1094,-.5 1094,-20.5 1144,-20.5 1144,-.5 1094,-.5"/>
<text text-anchor="middle" x="1119" y="-7.5" font-family="FreeSans" font-size="10.00" fill="#000000">Brick.h</text>
</g>
<!-- Node1&#45;&gt;Node14 -->
<g id="edge13" class="edge">
<title>Node1&#45;&gt;Node14</title>
<path fill="none" stroke="#191970" d="M1069.4995,-57.2882C1079.659,-47.6853 1091.3643,-36.6214 1100.8409,-27.6641"/>
<polygon fill="#191970" stroke="#191970" points="1103.3311,-30.1264 1108.1942,-20.7137 1098.5226,-25.0393 1103.3311,-30.1264"/>
</g>
<!-- Node15 -->
<g id="node15" class="node">
<title>Node15</title>
<polygon fill="none" stroke="#bfbfbf" points="1162,-.5 1162,-20.5 1254,-20.5 1254,-.5 1162,-.5"/>
<text text-anchor="middle" x="1208" y="-7.5" font-family="FreeSans" font-size="10.00" fill="#000000">GubserHydro.h</text>
</g>
<!-- Node1&#45;&gt;Node15 -->
<g id="edge14" class="edge">
<title>Node1&#45;&gt;Node15</title>
<path fill="none" stroke="#191970" d="M1097.7032,-57.4783C1123.0311,-46.6905 1152.7757,-34.0215 1174.9895,-24.56"/>
<polygon fill="#191970" stroke="#191970" points="1176.4891,-27.7256 1184.3178,-20.5869 1173.746,-21.2855 1176.4891,-27.7256"/>
</g>
<!-- Node16 -->
<g id="node16" class="node">
<title>Node16</title>
<polygon fill="none" stroke="#bfbfbf" points="1272,-.5 1272,-20.5 1370,-20.5 1370,-.5 1272,-.5"/>
<text text-anchor="middle" x="1321" y="-7.5" font-family="FreeSans" font-size="10.00" fill="#000000">HydroFromFile.h</text>
</g>
<!-- Node1&#45;&gt;Node16 -->
<g id="edge15" class="edge">
<title>Node1&#45;&gt;Node16</title>
<path fill="none" stroke="#191970" d="M1133.7678,-57.4783C1179.0762,-46.11 1232.7109,-32.6525 1270.937,-23.0613"/>
<polygon fill="#191970" stroke="#191970" points="1271.9512,-26.4154 1280.7987,-20.5869 1270.2476,-19.6258 1271.9512,-26.4154"/>
</g>
<!-- Node17 -->
<g id="node17" class="node">
<title>Node17</title>
<polygon fill="none" stroke="#bfbfbf" points="1388,-.5 1388,-20.5 1440,-20.5 1440,-.5 1388,-.5"/>
<text text-anchor="middle" x="1414" y="-7.5" font-family="FreeSans" font-size="10.00" fill="#000000">PGun.h</text>
</g>
<!-- Node1&#45;&gt;Node17 -->
<g id="edge16" class="edge">
<title>Node1&#45;&gt;Node17</title>
<path fill="none" stroke="#191970" d="M1142.7888,-65.576C1207.0935,-55.6027 1293.4878,-40.8243 1377.9598,-21.0544"/>
<polygon fill="#191970" stroke="#191970" points="1378.7908,-24.4545 1387.7164,-18.7464 1377.1793,-17.6425 1378.7908,-24.4545"/>
</g>
<!-- Node18 -->
<g id="node18" class="node">
<title>Node18</title>
<polygon fill="none" stroke="#bfbfbf" points="1458,-.5 1458,-20.5 1536,-20.5 1536,-.5 1458,-.5"/>
<text text-anchor="middle" x="1497" y="-7.5" font-family="FreeSans" font-size="10.00" fill="#000000">PythiaGun.h</text>
</g>
<!-- Node1&#45;&gt;Node18 -->
<g id="edge17" class="edge">
<title>Node1&#45;&gt;Node18</title>
<path fill="none" stroke="#191970" d="M1142.8057,-67.4154C1222.2391,-57.0428 1337.8248,-40.9078 1447.8109,-21.1248"/>
<polygon fill="#191970" stroke="#191970" points="1448.5371,-24.5503 1457.753,-19.3237 1447.2892,-17.6624 1448.5371,-24.5503"/>
</g>
<!-- Node19 -->
<g id="node19" class="node">
<title>Node19</title>
<polygon fill="none" stroke="#bfbfbf" points="1554,-.5 1554,-20.5 1644,-20.5 1644,-.5 1554,-.5"/>
<text text-anchor="middle" x="1599" y="-7.5" font-family="FreeSans" font-size="10.00" fill="#000000">PartonPrinter.h</text>
</g>
<!-- Node1&#45;&gt;Node19 -->
<g id="edge18" class="edge">
<title>Node1&#45;&gt;Node19</title>
<path fill="none" stroke="#191970" d="M1142.8866,-70.3254C1241.3792,-60.4992 1398.5527,-43.4477 1543.9597,-21.0712"/>
<polygon fill="#191970" stroke="#191970" points="1544.6176,-24.5112 1553.9633,-19.5204 1543.5451,-17.5938 1544.6176,-24.5112"/>
</g>
<!-- Node20 -->
<g id="node20" class="node">
<title>Node20</title>
<polygon fill="none" stroke="#bfbfbf" points="1662,-.5 1662,-20.5 1802,-20.5 1802,-.5 1662,-.5"/>
<text text-anchor="middle" x="1732" y="-7.5" font-family="FreeSans" font-size="10.00" fill="#000000">HadronizationManager.h</text>
</g>
<!-- Node1&#45;&gt;Node20 -->
<g id="edge19" class="edge">
<title>Node1&#45;&gt;Node20</title>
<path fill="none" stroke="#191970" d="M1142.5687,-71.2752C1260.3142,-61.0019 1465.6324,-42.3001 1651.8293,-21.1035"/>
<polygon fill="#191970" stroke="#191970" points="1652.2672,-24.5763 1661.805,-19.9633 1651.4722,-17.6216 1652.2672,-24.5763"/>
</g>
<!-- Node21 -->
<g id="node21" class="node">
<title>Node21</title>
<polygon fill="none" stroke="#bfbfbf" points="1820,-.5 1820,-20.5 1916,-20.5 1916,-.5 1820,-.5"/>
<text text-anchor="middle" x="1868" y="-7.5" font-family="FreeSans" font-size="10.00" fill="#000000">Hadronization.h</text>
</g>
<!-- Node1&#45;&gt;Node21 -->
<g id="edge20" class="edge">
<title>Node1&#45;&gt;Node21</title>
<path fill="none" stroke="#191970" d="M1142.6455,-75.3942C1286.1146,-68.568 1564.023,-52.5409 1809.6589,-21.0573"/>
<polygon fill="#191970" stroke="#191970" points="1810.3858,-24.4925 1819.8544,-19.7392 1809.4882,-17.5503 1810.3858,-24.4925"/>
</g>
<!-- Node22 -->
<g id="node22" class="node">
<title>Node22</title>
<polygon fill="none" stroke="#bfbfbf" points="1934.5,-.5 1934.5,-20.5 2069.5,-20.5 2069.5,-.5 1934.5,-.5"/>
<text text-anchor="middle" x="2002" y="-7.5" font-family="FreeSans" font-size="10.00" fill="#000000">ColoredHadronization.h</text>
</g>
<!-- Node1&#45;&gt;Node22 -->
<g id="edge21" class="edge">
<title>Node1&#45;&gt;Node22</title>
<path fill="none" stroke="#191970" d="M1142.7585,-75.2494C1302.9506,-67.7276 1633.5431,-50.1563 1924.1063,-21.0247"/>
<polygon fill="#191970" stroke="#191970" points="1924.8272,-24.4698 1934.4253,-19.9835 1924.1245,-17.5051 1924.8272,-24.4698"/>
</g>
<!-- Node23 -->
<g id="node23" class="node">
<title>Node23</title>
<polygon fill="none" stroke="#bfbfbf" points="2088,-.5 2088,-20.5 2230,-20.5 2230,-.5 2088,-.5"/>
<text text-anchor="middle" x="2159" y="-7.5" font-family="FreeSans" font-size="10.00" fill="#000000">ColorlessHadronization.h</text>
</g>
<!-- Node1&#45;&gt;Node23 -->
<g id="edge22" class="edge">
<title>Node1&#45;&gt;Node23</title>
<path fill="none" stroke="#191970" d="M1142.6654,-76.4117C1323.9728,-70.0952 1727.618,-53.5526 2077.8456,-21.0469"/>
<polygon fill="#191970" stroke="#191970" points="2078.2995,-24.5198 2087.9307,-20.105 2077.6486,-17.5502 2078.2995,-24.5198"/>
</g>
<!-- Node24 -->
<g id="node24" class="node">
<title>Node24</title>
<polygon fill="none" stroke="#bfbfbf" points="2248,-.5 2248,-20.5 2334,-20.5 2334,-.5 2248,-.5"/>
<text text-anchor="middle" x="2291" y="-7.5" font-family="FreeSans" font-size="10.00" fill="#000000">TrentoInitial.h</text>
</g>
<!-- Node1&#45;&gt;Node24 -->
<g id="edge23" class="edge">
<title>Node1&#45;&gt;Node24</title>
<path fill="none" stroke="#191970" d="M1142.7206,-76.6344C1384.0278,-69.1878 2009.0306,-47.9955 2238.0048,-20.9221"/>
<polygon fill="#191970" stroke="#191970" points="2238.4481,-24.3941 2247.9516,-19.7108 2237.6018,-17.4454 2238.4481,-24.3941"/>
</g>
</g>
</svg>
