<?xml version="1.0" encoding="UTF-8" standalone="no"?>
<!DOCTYPE svg PUBLIC "-//W3C//DTD SVG 1.1//EN"
 "http://www.w3.org/Graphics/SVG/1.1/DTD/svg11.dtd">
<!-- Generated by graphviz version 2.40.1 (20161225.0304)
 -->
<!-- Title: Plot_FastTrack_Efficiency Pages: 1 -->
<svg width="399pt" height="146pt"
 viewBox="0.00 0.00 399.00 146.00" xmlns="http://www.w3.org/2000/svg" xmlns:xlink="http://www.w3.org/1999/xlink">
<g id="graph0" class="graph" transform="scale(1 1) rotate(0) translate(4 142)">
<title>Plot_FastTrack_Efficiency</title>
<!-- Node1 -->
<g id="node1" class="node">
<title>Node1</title>
<polygon fill="#bfbfbf" stroke="#000000" points="0,-58.5 0,-78.5 141,-78.5 141,-58.5 0,-58.5"/>
<text text-anchor="middle" x="70.5" y="-65.5" font-family="FreeSans" font-size="10.00" fill="#000000">Plot_FastTrack_Efficiency</text>
</g>
<!-- Node2 -->
<g id="node2" class="node">
<title>Node2</title>
<g id="a_node2"><a xlink:href="../../d2/d2c/LivePlot-Energy-EMC_8C.html#a54c0e7ebd0f1cc22a5ca8fbda9dbd671" target="_top" xlink:title="load_tree">
<polygon fill="none" stroke="#000000" points="194,-117.5 194,-137.5 257,-137.5 257,-117.5 194,-117.5"/>
<text text-anchor="middle" x="225.5" y="-124.5" font-family="FreeSans" font-size="10.00" fill="#000000">load_tree</text>
</a>
</g>
</g>
<!-- Node1&#45;&gt;Node2 -->
<g id="edge1" class="edge">
<title>Node1&#45;&gt;Node2</title>
<path fill="none" stroke="#191970" d="M96.7936,-78.5085C122.2901,-88.2136 161.1702,-103.0132 189.5258,-113.8066"/>
<polygon fill="#191970" stroke="#191970" points="188.4864,-117.1559 199.0774,-117.4424 190.9767,-110.6138 188.4864,-117.1559"/>
</g>
<!-- Node3 -->
<g id="node3" class="node">
<title>Node3</title>
<g id="a_node3"><a xlink:href="../../d1/d95/sPhenixStyle_8C.html#a40c9ca7bea26e6a08182ceb8298869e7" target="_top" xlink:title="sPHENIX Style, based on a style file from ATLAS by Peter Steinberg">
<polygon fill="none" stroke="#000000" points="177,-78.5 177,-98.5 274,-98.5 274,-78.5 177,-78.5"/>
<text text-anchor="middle" x="225.5" y="-85.5" font-family="FreeSans" font-size="10.00" fill="#000000">SetsPhenixStyle</text>
</a>
</g>
</g>
<!-- Node1&#45;&gt;Node3 -->
<g id="edge2" class="edge">
<title>Node1&#45;&gt;Node3</title>
<path fill="none" stroke="#191970" d="M141.1963,-77.6221C149.7108,-78.7207 158.3357,-79.8336 166.6556,-80.9072"/>
<polygon fill="#191970" stroke="#191970" points="166.2592,-84.385 176.6249,-82.1935 167.1551,-77.4425 166.2592,-84.385"/>
</g>
<!-- Node5 -->
<g id="node5" class="node">
<title>Node5</title>
<g id="a_node5"><a xlink:href="../../d2/d2c/LivePlot-Energy-EMC_8C.html#ab1cc1a3ff560049e22576031c7c2345b" target="_top" xlink:title="strdup">
<polygon fill="none" stroke="#000000" points="201,-39.5 201,-59.5 250,-59.5 250,-39.5 201,-39.5"/>
<text text-anchor="middle" x="225.5" y="-46.5" font-family="FreeSans" font-size="10.00" fill="#000000">strdup</text>
</a>
</g>
</g>
<!-- Node1&#45;&gt;Node5 -->
<g id="edge4" class="edge">
<title>Node1&#45;&gt;Node5</title>
<path fill="none" stroke="#191970" d="M141.1963,-59.834C158.4149,-57.7233 176.085,-55.5573 190.7714,-53.7571"/>
<polygon fill="#191970" stroke="#191970" points="191.3891,-57.2076 200.889,-52.5168 190.5374,-50.2596 191.3891,-57.2076"/>
</g>
<!-- Node6 -->
<g id="node6" class="node">
<title>Node6</title>
<g id="a_node6"><a xlink:href="../../d0/d34/tracks_8C.html#ac926d763061c5568ecb5f5e062e9c778" target="_top" xlink:title="tracks">
<polygon fill="none" stroke="#000000" points="202,-.5 202,-20.5 249,-20.5 249,-.5 202,-.5"/>
<text text-anchor="middle" x="225.5" y="-7.5" font-family="FreeSans" font-size="10.00" fill="#000000">tracks</text>
</a>
</g>
</g>
<!-- Node1&#45;&gt;Node6 -->
<g id="edge5" class="edge">
<title>Node1&#45;&gt;Node6</title>
<path fill="none" stroke="#191970" d="M97.4989,-58.3972C123.8787,-48.526 164.0851,-33.481 192.383,-22.8922"/>
<polygon fill="#191970" stroke="#191970" points="193.7143,-26.1311 201.8534,-19.3484 191.261,-19.575 193.7143,-26.1311"/>
</g>
<!-- Node4 -->
<g id="node4" class="node">
<title>Node4</title>
<g id="a_node4"><a xlink:href="../../d1/d95/sPhenixStyle_8C.html#a2b14fe9277832cb4dbdc473f44df99b4" target="_top" xlink:title="sPhenixStyle">
<polygon fill="none" stroke="#000000" points="310,-78.5 310,-98.5 391,-98.5 391,-78.5 310,-78.5"/>
<text text-anchor="middle" x="350.5" y="-85.5" font-family="FreeSans" font-size="10.00" fill="#000000">sPhenixStyle</text>
</a>
</g>
</g>
<!-- Node3&#45;&gt;Node4 -->
<g id="edge3" class="edge">
<title>Node3&#45;&gt;Node4</title>
<path fill="none" stroke="#191970" d="M274.1862,-88.5C282.5686,-88.5 291.3001,-88.5 299.7356,-88.5"/>
<polygon fill="#191970" stroke="#191970" points="299.8351,-92.0001 309.8351,-88.5 299.8351,-85.0001 299.8351,-92.0001"/>
</g>
</g>
</svg>
