<?xml version="1.0" encoding="UTF-8" standalone="no"?>
<!DOCTYPE svg PUBLIC "-//W3C//DTD SVG 1.1//EN"
 "http://www.w3.org/Graphics/SVG/1.1/DTD/svg11.dtd">
<!-- Generated by graphviz version 2.40.1 (20161225.0304)
 -->
<!-- Title: PHG4mRICHDetector::build_foamHolder Pages: 1 -->
<svg width="536pt" height="194pt"
 viewBox="0.00 0.00 536.00 194.00" xmlns="http://www.w3.org/2000/svg" xmlns:xlink="http://www.w3.org/1999/xlink">
<g id="graph0" class="graph" transform="scale(1 1) rotate(0) translate(4 190)">
<title>PHG4mRICHDetector::build_foamHolder</title>
<!-- Node1 -->
<g id="node1" class="node">
<title>Node1</title>
<polygon fill="#bfbfbf" stroke="#000000" points="0,-76.5 0,-108.5 128,-108.5 128,-76.5 0,-76.5"/>
<text text-anchor="start" x="8" y="-95.5" font-family="FreeSans" font-size="10.00" fill="#000000">PHG4mRICHDetector::</text>
<text text-anchor="middle" x="64" y="-83.5" font-family="FreeSans" font-size="10.00" fill="#000000">build_foamHolder</text>
</g>
<!-- Node2 -->
<g id="node2" class="node">
<title>Node2</title>
<g id="a_node2"><a xlink:href="../../d9/deb/classPHG4mRICHDetector.html#af4080565a5cf2aec2ea903619535d924" target="_top" xlink:title="PHG4mRICHDetector::\lbuild_box">
<polygon fill="none" stroke="#000000" points="181,-153.5 181,-185.5 309,-185.5 309,-153.5 181,-153.5"/>
<text text-anchor="start" x="189" y="-172.5" font-family="FreeSans" font-size="10.00" fill="#000000">PHG4mRICHDetector::</text>
<text text-anchor="middle" x="245" y="-160.5" font-family="FreeSans" font-size="10.00" fill="#000000">build_box</text>
</a>
</g>
</g>
<!-- Node1&#45;&gt;Node2 -->
<g id="edge1" class="edge">
<title>Node1&#45;&gt;Node2</title>
<path fill="none" stroke="#191970" d="M91.8026,-108.6855C111.518,-119.7301 138.8371,-134.173 164,-144.5 168.7291,-146.4408 173.6661,-148.3152 178.6674,-150.1055"/>
<polygon fill="#191970" stroke="#191970" points="177.7323,-153.4853 188.327,-153.44 180.0164,-146.8684 177.7323,-153.4853"/>
</g>
<!-- Node4 -->
<g id="node4" class="node">
<title>Node4</title>
<g id="a_node4"><a xlink:href="../../d9/deb/classPHG4mRICHDetector.html#a24f790735136a45608fc012003881217" target="_top" xlink:title="PHG4mRICHDetector::\lbuild_polyhedra">
<polygon fill="none" stroke="#000000" points="181,-102.5 181,-134.5 309,-134.5 309,-102.5 181,-102.5"/>
<text text-anchor="start" x="189" y="-121.5" font-family="FreeSans" font-size="10.00" fill="#000000">PHG4mRICHDetector::</text>
<text text-anchor="middle" x="245" y="-109.5" font-family="FreeSans" font-size="10.00" fill="#000000">build_polyhedra</text>
</a>
</g>
</g>
<!-- Node1&#45;&gt;Node4 -->
<g id="edge3" class="edge">
<title>Node1&#45;&gt;Node4</title>
<path fill="none" stroke="#191970" d="M128.0685,-101.7032C141.8165,-103.6781 156.4565,-105.781 170.559,-107.8068"/>
<polygon fill="#191970" stroke="#191970" points="170.3163,-111.3078 180.7124,-109.2653 171.3117,-104.3789 170.3163,-111.3078"/>
</g>
<!-- Node5 -->
<g id="node5" class="node">
<title>Node5</title>
<g id="a_node5"><a xlink:href="../../db/d8a/classPHG4mRICHDetector_1_1mRichParameter.html#a4373c4fcf3110f14b3e30b4fed410b8a" target="_top" xlink:title="PHG4mRICHDetector::\lmRichParameter::GetBoxPar">
<polygon fill="none" stroke="#000000" points="165,-51.5 165,-83.5 325,-83.5 325,-51.5 165,-51.5"/>
<text text-anchor="start" x="173" y="-70.5" font-family="FreeSans" font-size="10.00" fill="#000000">PHG4mRICHDetector::</text>
<text text-anchor="middle" x="245" y="-58.5" font-family="FreeSans" font-size="10.00" fill="#000000">mRichParameter::GetBoxPar</text>
</a>
</g>
</g>
<!-- Node1&#45;&gt;Node5 -->
<g id="edge5" class="edge">
<title>Node1&#45;&gt;Node5</title>
<path fill="none" stroke="#191970" d="M128.0685,-83.6508C136.7135,-82.4567 145.7111,-81.2139 154.706,-79.9715"/>
<polygon fill="#191970" stroke="#191970" points="155.4144,-83.407 164.8414,-78.5716 154.4566,-76.4728 155.4144,-83.407"/>
</g>
<!-- Node7 -->
<g id="node7" class="node">
<title>Node7</title>
<g id="a_node7"><a xlink:href="../../db/d8a/classPHG4mRICHDetector_1_1mRichParameter.html#ad9a72a2892bbaf126fa9b8acd6088b2d" target="_top" xlink:title="PHG4mRICHDetector::\lmRichParameter::GetPolyPar">
<polygon fill="none" stroke="#000000" points="164,-.5 164,-32.5 326,-32.5 326,-.5 164,-.5"/>
<text text-anchor="start" x="172" y="-19.5" font-family="FreeSans" font-size="10.00" fill="#000000">PHG4mRICHDetector::</text>
<text text-anchor="middle" x="245" y="-7.5" font-family="FreeSans" font-size="10.00" fill="#000000">mRichParameter::GetPolyPar</text>
</a>
</g>
</g>
<!-- Node1&#45;&gt;Node7 -->
<g id="edge7" class="edge">
<title>Node1&#45;&gt;Node7</title>
<path fill="none" stroke="#191970" d="M93.2053,-76.41C112.8606,-65.9544 139.5555,-52.4659 164,-42.5 169.5197,-40.2497 175.3121,-38.0626 181.1543,-35.9749"/>
<polygon fill="#191970" stroke="#191970" points="182.6931,-39.1458 190.9936,-32.5615 180.3988,-32.5324 182.6931,-39.1458"/>
</g>
<!-- Node3 -->
<g id="node3" class="node">
<title>Node3</title>
<g id="a_node3"><a xlink:href="../../d3/de7/classPHG4Detector.html#a0be0f337e0bb4ef7d0754552ee7ba251" target="_top" xlink:title="PHG4Detector::OverlapCheck">
<polygon fill="none" stroke="#000000" points="362,-133.5 362,-153.5 528,-153.5 528,-133.5 362,-133.5"/>
<text text-anchor="middle" x="445" y="-140.5" font-family="FreeSans" font-size="10.00" fill="#000000">PHG4Detector::OverlapCheck</text>
</a>
</g>
</g>
<!-- Node2&#45;&gt;Node3 -->
<g id="edge2" class="edge">
<title>Node2&#45;&gt;Node3</title>
<path fill="none" stroke="#191970" d="M309.1065,-161.1662C324.6239,-159.1489 341.4709,-156.9588 357.8501,-154.8295"/>
<polygon fill="#191970" stroke="#191970" points="358.5067,-158.2737 367.972,-153.5136 357.6042,-151.3321 358.5067,-158.2737"/>
</g>
<!-- Node4&#45;&gt;Node3 -->
<g id="edge4" class="edge">
<title>Node4&#45;&gt;Node3</title>
<path fill="none" stroke="#191970" d="M309.1065,-126.5133C323.634,-128.3293 339.3268,-130.2908 354.7102,-132.2138"/>
<polygon fill="#191970" stroke="#191970" points="354.4023,-135.7024 364.7592,-133.4699 355.2706,-128.7565 354.4023,-135.7024"/>
</g>
<!-- Node6 -->
<g id="node6" class="node">
<title>Node6</title>
<g id="a_node6"><a xlink:href="../../da/d23/msg__buffer_8cc.html#a98631211a4a8aee62f572375d5b637be" target="_top" xlink:title="printf">
<polygon fill="none" stroke="#000000" points="423,-32.5 423,-52.5 467,-52.5 467,-32.5 423,-32.5"/>
<text text-anchor="middle" x="445" y="-39.5" font-family="FreeSans" font-size="10.00" fill="#000000">printf</text>
</a>
</g>
</g>
<!-- Node5&#45;&gt;Node6 -->
<g id="edge6" class="edge">
<title>Node5&#45;&gt;Node6</title>
<path fill="none" stroke="#191970" d="M325.1953,-57.4756C355.7295,-53.6588 388.83,-49.5212 412.485,-46.5644"/>
<polygon fill="#191970" stroke="#191970" points="413.157,-50.0077 422.6457,-45.2943 412.2887,-43.0618 413.157,-50.0077"/>
</g>
<!-- Node7&#45;&gt;Node6 -->
<g id="edge8" class="edge">
<title>Node7&#45;&gt;Node6</title>
<path fill="none" stroke="#191970" d="M326.0593,-27.0377C356.4827,-30.9928 389.3338,-35.2634 412.7863,-38.3122"/>
<polygon fill="#191970" stroke="#191970" points="412.4901,-41.8031 422.8579,-39.6215 413.3926,-34.8615 412.4901,-41.8031"/>
</g>
</g>
</svg>
