<?xml version="1.0" encoding="UTF-8" standalone="no"?>
<!DOCTYPE svg PUBLIC "-//W3C//DTD SVG 1.1//EN"
 "http://www.w3.org/Graphics/SVG/1.1/DTD/svg11.dtd">
<!-- Generated by graphviz version 2.40.1 (20161225.0304)
 -->
<!-- Title: GlobalVertexFastSimReco::InitRun Pages: 1 -->
<svg width="696pt" height="146pt"
 viewBox="0.00 0.00 696.00 146.00" xmlns="http://www.w3.org/2000/svg" xmlns:xlink="http://www.w3.org/1999/xlink">
<g id="graph0" class="graph" transform="scale(1 1) rotate(0) translate(4 142)">
<title>GlobalVertexFastSimReco::InitRun</title>
<!-- Node1 -->
<g id="node1" class="node">
<title>Node1</title>
<polygon fill="#bfbfbf" stroke="#000000" points="0,-21.5 0,-53.5 145,-53.5 145,-21.5 0,-21.5"/>
<text text-anchor="start" x="8" y="-40.5" font-family="FreeSans" font-size="10.00" fill="#000000">GlobalVertexFastSimReco</text>
<text text-anchor="middle" x="72.5" y="-28.5" font-family="FreeSans" font-size="10.00" fill="#000000">::InitRun</text>
</g>
<!-- Node2 -->
<g id="node2" class="node">
<title>Node2</title>
<g id="a_node2"><a xlink:href="../../da/d12/classGlobalVertexFastSimReco.html#abee95cc64f50ed453cbcf993b80825b4" target="_top" xlink:title="GlobalVertexFastSimReco\l::CreateNodes">
<polygon fill="none" stroke="#000000" points="181,-44.5 181,-76.5 326,-76.5 326,-44.5 181,-44.5"/>
<text text-anchor="start" x="189" y="-63.5" font-family="FreeSans" font-size="10.00" fill="#000000">GlobalVertexFastSimReco</text>
<text text-anchor="middle" x="253.5" y="-51.5" font-family="FreeSans" font-size="10.00" fill="#000000">::CreateNodes</text>
</a>
</g>
</g>
<!-- Node1&#45;&gt;Node2 -->
<g id="edge1" class="edge">
<title>Node1&#45;&gt;Node2</title>
<path fill="none" stroke="#191970" d="M145.0767,-46.7225C153.5595,-47.8004 162.2611,-48.9061 170.8671,-49.9997"/>
<polygon fill="#191970" stroke="#191970" points="170.5455,-53.4869 180.907,-51.2755 171.428,-46.5427 170.5455,-53.4869"/>
</g>
<!-- Node9 -->
<g id="node9" class="node">
<title>Node9</title>
<g id="a_node9"><a xlink:href="../../d5/dec/classFun4AllBase.html#a8a5c77a92bdac6bc043476e132379a40" target="_top" xlink:title="Gets the verbosity of this module.">
<polygon fill="none" stroke="#000000" points="187.5,-5.5 187.5,-25.5 319.5,-25.5 319.5,-5.5 187.5,-5.5"/>
<text text-anchor="middle" x="253.5" y="-12.5" font-family="FreeSans" font-size="10.00" fill="#000000">Fun4AllBase::Verbosity</text>
</a>
</g>
</g>
<!-- Node1&#45;&gt;Node9 -->
<g id="edge10" class="edge">
<title>Node1&#45;&gt;Node9</title>
<path fill="none" stroke="#191970" d="M145.0767,-28.6785C155.6602,-27.3921 166.5843,-26.0643 177.2384,-24.7694"/>
<polygon fill="#191970" stroke="#191970" points="177.8459,-28.2214 187.3505,-23.5403 177.0012,-21.2725 177.8459,-28.2214"/>
</g>
<!-- Node3 -->
<g id="node3" class="node">
<title>Node3</title>
<g id="a_node3"><a xlink:href="../../d5/dca/classPHCompositeNode.html#a15a0c4804399a9de4267647f05bd1ba4" target="_top" xlink:title="PHCompositeNode::addNode">
<polygon fill="none" stroke="#000000" points="362,-78.5 362,-98.5 524,-98.5 524,-78.5 362,-78.5"/>
<text text-anchor="middle" x="443" y="-85.5" font-family="FreeSans" font-size="10.00" fill="#000000">PHCompositeNode::addNode</text>
</a>
</g>
</g>
<!-- Node2&#45;&gt;Node3 -->
<g id="edge2" class="edge">
<title>Node2&#45;&gt;Node3</title>
<path fill="none" stroke="#191970" d="M326.2237,-71.2455C338.9069,-73.1195 352.1475,-75.0759 364.9666,-76.97"/>
<polygon fill="#191970" stroke="#191970" points="364.7339,-80.4735 375.1381,-78.4729 365.7571,-73.5487 364.7339,-80.4735"/>
</g>
<!-- Node7 -->
<g id="node7" class="node">
<title>Node7</title>
<g id="a_node7"><a xlink:href="../../d5/d07/classPHNodeIterator.html#aea98bf8619af59b1212a94fb32106baa" target="_top" xlink:title="PHNodeIterator::findFirst">
<polygon fill="none" stroke="#000000" points="372.5,-21.5 372.5,-41.5 513.5,-41.5 513.5,-21.5 372.5,-21.5"/>
<text text-anchor="middle" x="443" y="-28.5" font-family="FreeSans" font-size="10.00" fill="#000000">PHNodeIterator::findFirst</text>
</a>
</g>
</g>
<!-- Node2&#45;&gt;Node7 -->
<g id="edge6" class="edge">
<title>Node2&#45;&gt;Node7</title>
<path fill="none" stroke="#191970" d="M326.2237,-49.3708C339.6979,-47.3088 353.8011,-45.1505 367.3597,-43.0756"/>
<polygon fill="#191970" stroke="#191970" points="368.247,-46.4806 377.6024,-41.5081 367.188,-39.5612 368.247,-46.4806"/>
</g>
<!-- Node4 -->
<g id="node4" class="node">
<title>Node4</title>
<g id="a_node4"><a xlink:href="../../dc/d82/classPHNode.html#aca3576f926a4401eddc3d88bf0ce0de3" target="_top" xlink:title="PHNode::getName">
<polygon fill="none" stroke="#000000" points="569.5,-39.5 569.5,-59.5 678.5,-59.5 678.5,-39.5 569.5,-39.5"/>
<text text-anchor="middle" x="624" y="-46.5" font-family="FreeSans" font-size="10.00" fill="#000000">PHNode::getName</text>
</a>
</g>
</g>
<!-- Node3&#45;&gt;Node4 -->
<g id="edge3" class="edge">
<title>Node3&#45;&gt;Node4</title>
<path fill="none" stroke="#191970" d="M489.612,-78.4565C513.3636,-73.3388 542.4366,-67.0744 567.4587,-61.6829"/>
<polygon fill="#191970" stroke="#191970" points="568.5076,-65.0373 577.546,-59.5094 567.0331,-58.1944 568.5076,-65.0373"/>
</g>
<!-- Node5 -->
<g id="node5" class="node">
<title>Node5</title>
<g id="a_node5"><a xlink:href="../../dc/d82/classPHNode.html#adda2bd6cef2d5067bbe3016a990b7198" target="_top" xlink:title="PHNode::setParent">
<polygon fill="none" stroke="#000000" points="568.5,-117.5 568.5,-137.5 679.5,-137.5 679.5,-117.5 568.5,-117.5"/>
<text text-anchor="middle" x="624" y="-124.5" font-family="FreeSans" font-size="10.00" fill="#000000">PHNode::setParent</text>
</a>
</g>
</g>
<!-- Node3&#45;&gt;Node5 -->
<g id="edge4" class="edge">
<title>Node3&#45;&gt;Node5</title>
<path fill="none" stroke="#191970" d="M489.612,-98.5435C513.3636,-103.6612 542.4366,-109.9256 567.4587,-115.3171"/>
<polygon fill="#191970" stroke="#191970" points="567.0331,-118.8056 577.546,-117.4906 568.5076,-111.9627 567.0331,-118.8056"/>
</g>
<!-- Node6 -->
<g id="node6" class="node">
<title>Node6</title>
<g id="a_node6"><a xlink:href="../../d6/d86/classPHPointerList.html#ac2176735e9d046a034f1686fd2c477eb" target="_top" xlink:title="PHPointerList::append">
<polygon fill="none" stroke="#000000" points="560,-78.5 560,-98.5 688,-98.5 688,-78.5 560,-78.5"/>
<text text-anchor="middle" x="624" y="-85.5" font-family="FreeSans" font-size="10.00" fill="#000000">PHPointerList::append</text>
</a>
</g>
</g>
<!-- Node3&#45;&gt;Node6 -->
<g id="edge5" class="edge">
<title>Node3&#45;&gt;Node6</title>
<path fill="none" stroke="#191970" d="M524.2347,-88.5C532.72,-88.5 541.3151,-88.5 549.7173,-88.5"/>
<polygon fill="#191970" stroke="#191970" points="549.8504,-92.0001 559.8503,-88.5 549.8503,-85.0001 549.8504,-92.0001"/>
</g>
<!-- Node7&#45;&gt;Node4 -->
<g id="edge8" class="edge">
<title>Node7&#45;&gt;Node4</title>
<path fill="none" stroke="#191970" d="M513.757,-38.5366C528.7411,-40.0267 544.4844,-41.5924 559.2331,-43.0591"/>
<polygon fill="#191970" stroke="#191970" points="558.966,-46.5497 569.2633,-44.0566 559.6588,-39.5841 558.966,-46.5497"/>
</g>
<!-- Node7&#45;&gt;Node7 -->
<g id="edge9" class="edge">
<title>Node7&#45;&gt;Node7</title>
<path fill="none" stroke="#191970" d="M414.8201,-41.7271C401.9661,-50.6067 411.3594,-60 443,-60 464.2585,-60 475.4743,-55.7597 476.6473,-50.2839"/>
<polygon fill="#191970" stroke="#191970" points="479.5136,-48.2693 471.1799,-41.7271 473.6148,-52.0383 479.5136,-48.2693"/>
</g>
<!-- Node8 -->
<g id="node8" class="node">
<title>Node8</title>
<g id="a_node8"><a xlink:href="../../dc/d82/classPHNode.html#a4ab1f90aed955a652813bfe377087bda" target="_top" xlink:title="PHNode::getType">
<polygon fill="none" stroke="#000000" points="572.5,-.5 572.5,-20.5 675.5,-20.5 675.5,-.5 572.5,-.5"/>
<text text-anchor="middle" x="624" y="-7.5" font-family="FreeSans" font-size="10.00" fill="#000000">PHNode::getType</text>
</a>
</g>
</g>
<!-- Node7&#45;&gt;Node8 -->
<g id="edge7" class="edge">
<title>Node7&#45;&gt;Node8</title>
<path fill="none" stroke="#191970" d="M513.757,-23.2906C529.7799,-21.4316 546.6708,-19.4719 562.2855,-17.6602"/>
<polygon fill="#191970" stroke="#191970" points="562.8104,-21.1229 572.3404,-16.4937 562.0036,-14.1696 562.8104,-21.1229"/>
</g>
</g>
</svg>
