<?xml version="1.0" encoding="UTF-8" standalone="no"?>
<!DOCTYPE svg PUBLIC "-//W3C//DTD SVG 1.1//EN"
 "http://www.w3.org/Graphics/SVG/1.1/DTD/svg11.dtd">
<!-- Generated by graphviz version 2.40.1 (20161225.0304)
 -->
<!-- Title: oncsEvent::getPacketList Pages: 1 -->
<svg width="324pt" height="68pt"
 viewBox="0.00 0.00 324.00 68.00" xmlns="http://www.w3.org/2000/svg" xmlns:xlink="http://www.w3.org/1999/xlink">
<g id="graph0" class="graph" transform="scale(1 1) rotate(0) translate(4 64)">
<title>oncsEvent::getPacketList</title>
<!-- Node1 -->
<g id="node1" class="node">
<title>Node1</title>
<polygon fill="#bfbfbf" stroke="#000000" points="0,-19.5 0,-39.5 143,-39.5 143,-19.5 0,-19.5"/>
<text text-anchor="middle" x="71.5" y="-26.5" font-family="FreeSans" font-size="10.00" fill="#000000">oncsEvent::getPacketList</text>
</g>
<!-- Node2 -->
<g id="node2" class="node">
<title>Node2</title>
<g id="a_node2"><a xlink:href="../../d3/dc3/classoncsEvent.html#aeb6ade45036411f7461a277909e422b1" target="_top" xlink:title="oncsEvent::createMap">
<polygon fill="none" stroke="#000000" points="183,-39.5 183,-59.5 312,-59.5 312,-39.5 183,-39.5"/>
<text text-anchor="middle" x="247.5" y="-46.5" font-family="FreeSans" font-size="10.00" fill="#000000">oncsEvent::createMap</text>
</a>
</g>
</g>
<!-- Node1&#45;&gt;Node2 -->
<g id="edge1" class="edge">
<title>Node1&#45;&gt;Node2</title>
<path fill="none" stroke="#191970" d="M143.0859,-37.6348C152.8333,-38.7424 162.8593,-39.8817 172.6623,-40.9957"/>
<polygon fill="#191970" stroke="#191970" points="172.445,-44.4935 182.7763,-42.145 173.2355,-37.5382 172.445,-44.4935"/>
</g>
<!-- Node3 -->
<g id="node3" class="node">
<title>Node3</title>
<g id="a_node3"><a xlink:href="../../d3/dc3/classoncsEvent.html#a1b262b371f7ac3557429b9ada2552312" target="_top" xlink:title="oncsEvent::makePacket">
<polygon fill="none" stroke="#000000" points="179,-.5 179,-20.5 316,-20.5 316,-.5 179,-.5"/>
<text text-anchor="middle" x="247.5" y="-7.5" font-family="FreeSans" font-size="10.00" fill="#000000">oncsEvent::makePacket</text>
</a>
</g>
</g>
<!-- Node1&#45;&gt;Node3 -->
<g id="edge2" class="edge">
<title>Node1&#45;&gt;Node3</title>
<path fill="none" stroke="#191970" d="M143.0859,-21.772C151.5679,-20.8563 160.2607,-19.9179 168.8341,-18.9923"/>
<polygon fill="#191970" stroke="#191970" points="169.2572,-22.4671 178.8238,-17.9139 168.5058,-15.5075 169.2572,-22.4671"/>
</g>
</g>
</svg>
