<?xml version="1.0" encoding="UTF-8" standalone="no"?>
<!DOCTYPE svg PUBLIC "-//W3C//DTD SVG 1.1//EN"
 "http://www.w3.org/Graphics/SVG/1.1/DTD/svg11.dtd">
<!-- Generated by graphviz version 2.40.1 (20161225.0304)
 -->
<!-- Title: AddFlowToParent Pages: 1 -->
<svg width="412pt" height="80pt"
 viewBox="0.00 0.00 412.00 80.00" xmlns="http://www.w3.org/2000/svg" xmlns:xlink="http://www.w3.org/1999/xlink">
<g id="graph0" class="graph" transform="scale(1 1) rotate(0) translate(4 76)">
<title>AddFlowToParent</title>
<!-- Node1 -->
<g id="node1" class="node">
<title>Node1</title>
<polygon fill="#bfbfbf" stroke="#000000" points="0,-28.5 0,-48.5 103,-48.5 103,-28.5 0,-28.5"/>
<text text-anchor="middle" x="51.5" y="-35.5" font-family="FreeSans" font-size="10.00" fill="#000000">AddFlowToParent</text>
</g>
<!-- Node2 -->
<g id="node2" class="node">
<title>Node2</title>
<g id="a_node2"><a xlink:href="../../da/de2/flowAfterburner_8h.html#ae40d970d082126a095d39b0c142486ec" target="_top" xlink:title="flowAfterburner">
<polygon fill="none" stroke="#000000" points="139,-28.5 139,-48.5 234,-48.5 234,-28.5 139,-28.5"/>
<text text-anchor="middle" x="186.5" y="-35.5" font-family="FreeSans" font-size="10.00" fill="#000000">flowAfterburner</text>
</a>
</g>
</g>
<!-- Node1&#45;&gt;Node2 -->
<g id="edge1" class="edge">
<title>Node1&#45;&gt;Node2</title>
<path fill="none" stroke="#191970" d="M113.4959,-38.5C121.9239,-38.5 130.4671,-38.5 138.5953,-38.5"/>
<polygon fill="#191970" stroke="#191970" points="113.3085,-35.0001 103.3084,-38.5 113.3084,-42.0001 113.3085,-35.0001"/>
</g>
<!-- Node3 -->
<g id="node3" class="node">
<title>Node3</title>
<g id="a_node3"><a xlink:href="../../d9/d0f/main_8cc.html#ae66f6b31b5ad750f1fe042a706a4e3d4" target="_top" xlink:title="main">
<polygon fill="none" stroke="#000000" points="316.5,-51.5 316.5,-71.5 357.5,-71.5 357.5,-51.5 316.5,-51.5"/>
<text text-anchor="middle" x="337" y="-58.5" font-family="FreeSans" font-size="10.00" fill="#000000">main</text>
</a>
</g>
</g>
<!-- Node2&#45;&gt;Node3 -->
<g id="edge2" class="edge">
<title>Node2&#45;&gt;Node3</title>
<path fill="none" stroke="#191970" d="M244.0779,-47.2993C269.5391,-51.1904 297.8613,-55.5187 316.4678,-58.3622"/>
<polygon fill="#191970" stroke="#191970" points="244.5331,-43.8283 234.1191,-45.7773 243.4756,-50.748 244.5331,-43.8283"/>
</g>
<!-- Node4 -->
<g id="node4" class="node">
<title>Node4</title>
<g id="a_node4"><a xlink:href="../../dd/d6c/classHepMCFlowAfterBurner.html#a6dae3bc90206798dc65ab8ef9b5b15ca" target="_top" xlink:title="HepMCFlowAfterBurner\l::process_event">
<polygon fill="none" stroke="#000000" points="270,-.5 270,-32.5 404,-32.5 404,-.5 270,-.5"/>
<text text-anchor="start" x="278" y="-19.5" font-family="FreeSans" font-size="10.00" fill="#000000">HepMCFlowAfterBurner</text>
<text text-anchor="middle" x="337" y="-7.5" font-family="FreeSans" font-size="10.00" fill="#000000">::process_event</text>
</a>
</g>
</g>
<!-- Node2&#45;&gt;Node4 -->
<g id="edge3" class="edge">
<title>Node2&#45;&gt;Node4</title>
<path fill="none" stroke="#191970" d="M244.1913,-30.0667C252.5995,-28.8376 261.3175,-27.5632 269.8928,-26.3097"/>
<polygon fill="#191970" stroke="#191970" points="243.5077,-26.6294 234.1191,-31.5391 244.5203,-33.5558 243.5077,-26.6294"/>
</g>
</g>
</svg>
