<?xml version="1.0" encoding="UTF-8" standalone="no"?>
<!DOCTYPE svg PUBLIC "-//W3C//DTD SVG 1.1//EN"
 "http://www.w3.org/Graphics/SVG/1.1/DTD/svg11.dtd">
<!-- Generated by graphviz version 2.40.1 (20161225.0304)
 -->
<!-- Title: DVMPHelper::calculateInvariantMass_1 Pages: 1 -->
<svg width="551pt" height="41pt"
 viewBox="0.00 0.00 551.00 41.00" xmlns="http://www.w3.org/2000/svg" xmlns:xlink="http://www.w3.org/1999/xlink">
<g id="graph0" class="graph" transform="scale(1 1) rotate(0) translate(4 37)">
<title>DVMPHelper::calculateInvariantMass_1</title>
<!-- Node1 -->
<g id="node1" class="node">
<title>Node1</title>
<polygon fill="#bfbfbf" stroke="#000000" points="0,-.5 0,-32.5 177,-32.5 177,-.5 0,-.5"/>
<text text-anchor="start" x="8" y="-19.5" font-family="FreeSans" font-size="10.00" fill="#000000">DVMPHelper::calculateInvariant</text>
<text text-anchor="middle" x="88.5" y="-7.5" font-family="FreeSans" font-size="10.00" fill="#000000">Mass_1</text>
</g>
<!-- Node2 -->
<g id="node2" class="node">
<title>Node2</title>
<g id="a_node2"><a xlink:href="../../da/d73/classExclusiveReco.html#a48d900fd8ad00d0b252204dcbb941bc7" target="_top" xlink:title="ExclusiveReco::AddInvariant\lMassInformation">
<polygon fill="none" stroke="#000000" points="213,-.5 213,-32.5 373,-32.5 373,-.5 213,-.5"/>
<text text-anchor="start" x="221" y="-19.5" font-family="FreeSans" font-size="10.00" fill="#000000">ExclusiveReco::AddInvariant</text>
<text text-anchor="middle" x="293" y="-7.5" font-family="FreeSans" font-size="10.00" fill="#000000">MassInformation</text>
</a>
</g>
</g>
<!-- Node1&#45;&gt;Node2 -->
<g id="edge1" class="edge">
<title>Node1&#45;&gt;Node2</title>
<path fill="none" stroke="#191970" d="M187.0712,-16.5C195.6702,-16.5 204.304,-16.5 212.7288,-16.5"/>
<polygon fill="#191970" stroke="#191970" points="187.0073,-13.0001 177.0073,-16.5 187.0073,-20.0001 187.0073,-13.0001"/>
</g>
<!-- Node3 -->
<g id="node3" class="node">
<title>Node3</title>
<g id="a_node3"><a xlink:href="../../da/d73/classExclusiveReco.html#a026079694f2af119464bf5955c27a01c" target="_top" xlink:title="ExclusiveReco::process\l_event">
<polygon fill="none" stroke="#000000" points="409,-.5 409,-32.5 543,-32.5 543,-.5 409,-.5"/>
<text text-anchor="start" x="417" y="-19.5" font-family="FreeSans" font-size="10.00" fill="#000000">ExclusiveReco::process</text>
<text text-anchor="middle" x="476" y="-7.5" font-family="FreeSans" font-size="10.00" fill="#000000">_event</text>
</a>
</g>
</g>
<!-- Node2&#45;&gt;Node3 -->
<g id="edge2" class="edge">
<title>Node2&#45;&gt;Node3</title>
<path fill="none" stroke="#191970" d="M383.1072,-16.5C391.7389,-16.5 400.3872,-16.5 408.7447,-16.5"/>
<polygon fill="#191970" stroke="#191970" points="383.0003,-13.0001 373.0002,-16.5 383.0002,-20.0001 383.0003,-13.0001"/>
</g>
</g>
</svg>
