<?xml version="1.0" encoding="UTF-8" standalone="no"?>
<!DOCTYPE svg PUBLIC "-//W3C//DTD SVG 1.1//EN"
 "http://www.w3.org/Graphics/SVG/1.1/DTD/svg11.dtd">
<!-- Generated by graphviz version 2.40.1 (20161225.0304)
 -->
<!-- Title: BEmcRec::BEmcRec Pages: 1 -->
<svg width="321pt" height="68pt"
 viewBox="0.00 0.00 321.00 68.00" xmlns="http://www.w3.org/2000/svg" xmlns:xlink="http://www.w3.org/1999/xlink">
<g id="graph0" class="graph" transform="scale(1 1) rotate(0) translate(4 64)">
<title>BEmcRec::BEmcRec</title>
<!-- Node1 -->
<g id="node1" class="node">
<title>Node1</title>
<polygon fill="#bfbfbf" stroke="#000000" points="0,-19.5 0,-39.5 117,-39.5 117,-19.5 0,-19.5"/>
<text text-anchor="middle" x="58.5" y="-26.5" font-family="FreeSans" font-size="10.00" fill="#000000">BEmcRec::BEmcRec</text>
</g>
<!-- Node2 -->
<g id="node2" class="node">
<title>Node2</title>
<g id="a_node2"><a xlink:href="../../df/d23/classBEmcRec.html#af65e27bda490454d54086a9691200291" target="_top" xlink:title="BEmcRec::SetChi2Limit">
<polygon fill="none" stroke="#000000" points="165.5,-39.5 165.5,-59.5 300.5,-59.5 300.5,-39.5 165.5,-39.5"/>
<text text-anchor="middle" x="233" y="-46.5" font-family="FreeSans" font-size="10.00" fill="#000000">BEmcRec::SetChi2Limit</text>
</a>
</g>
</g>
<!-- Node1&#45;&gt;Node2 -->
<g id="edge1" class="edge">
<title>Node1&#45;&gt;Node2</title>
<path fill="none" stroke="#191970" d="M117.0914,-36.2153C129.2792,-37.6122 142.3062,-39.1053 155.0645,-40.5676"/>
<polygon fill="#191970" stroke="#191970" points="154.8841,-44.0697 165.2176,-41.7312 155.6812,-37.1152 154.8841,-44.0697"/>
</g>
<!-- Node3 -->
<g id="node3" class="node">
<title>Node3</title>
<g id="a_node3"><a xlink:href="../../df/d23/classBEmcRec.html#a9c84de0d64a2b5d31aef9823d50ac3cd" target="_top" xlink:title="BEmcRec::SetPeakThreshold">
<polygon fill="none" stroke="#000000" points="153,-.5 153,-20.5 313,-20.5 313,-.5 153,-.5"/>
<text text-anchor="middle" x="233" y="-7.5" font-family="FreeSans" font-size="10.00" fill="#000000">BEmcRec::SetPeakThreshold</text>
</a>
</g>
</g>
<!-- Node1&#45;&gt;Node3 -->
<g id="edge2" class="edge">
<title>Node1&#45;&gt;Node3</title>
<path fill="none" stroke="#191970" d="M117.0914,-23.1204C125.3465,-22.2216 133.9867,-21.2808 142.6676,-20.3356"/>
<polygon fill="#191970" stroke="#191970" points="143.2939,-23.7882 152.8563,-19.2262 142.5362,-16.8293 143.2939,-23.7882"/>
</g>
</g>
</svg>
