<?xml version="1.0" encoding="UTF-8" standalone="no"?>
<!DOCTYPE svg PUBLIC "-//W3C//DTD SVG 1.1//EN"
 "http://www.w3.org/Graphics/SVG/1.1/DTD/svg11.dtd">
<!-- Generated by graphviz version 2.40.1 (20161225.0304)
 -->
<!-- Title: PHField Pages: 1 -->
<svg width="459pt" height="86pt"
 viewBox="0.00 0.00 458.50 86.00" xmlns="http://www.w3.org/2000/svg" xmlns:xlink="http://www.w3.org/1999/xlink">
<g id="graph0" class="graph" transform="scale(1 1) rotate(0) translate(4 82)">
<title>PHField</title>
<!-- Node1 -->
<g id="node1" class="node">
<title>Node1</title>
<polygon fill="#bfbfbf" stroke="#000000" points="185.5,-57.5 185.5,-77.5 238.5,-77.5 238.5,-57.5 185.5,-57.5"/>
<text text-anchor="middle" x="212" y="-64.5" font-family="FreeSans" font-size="10.00" fill="#000000">PHField</text>
</g>
<!-- Node2 -->
<g id="node2" class="node">
<title>Node2</title>
<g id="a_node2"><a xlink:href="../../db/d49/classPHField2D.html" target="_top" xlink:title="PHField2D">
<polygon fill="none" stroke="#000000" points="0,-.5 0,-20.5 68,-20.5 68,-.5 0,-.5"/>
<text text-anchor="middle" x="34" y="-7.5" font-family="FreeSans" font-size="10.00" fill="#000000">PHField2D</text>
</a>
</g>
</g>
<!-- Node1&#45;&gt;Node2 -->
<g id="edge1" class="edge">
<title>Node1&#45;&gt;Node2</title>
<path fill="none" stroke="#191970" d="M175.7837,-55.9026C143.3265,-45.5091 96.205,-30.4196 65.3357,-20.5345"/>
<polygon fill="#191970" stroke="#191970" points="174.7606,-59.25 185.3516,-58.9665 176.8954,-52.5835 174.7606,-59.25"/>
</g>
<!-- Node3 -->
<g id="node3" class="node">
<title>Node3</title>
<g id="a_node3"><a xlink:href="../../d0/dc2/classPHField3DCartesian.html" target="_top" xlink:title="untested code &#45; I don&#39;t know if this is being used, drop me a line (with the field) and I test this &#45;...">
<polygon fill="none" stroke="#000000" points="86.5,-.5 86.5,-20.5 201.5,-20.5 201.5,-.5 86.5,-.5"/>
<text text-anchor="middle" x="144" y="-7.5" font-family="FreeSans" font-size="10.00" fill="#000000">PHField3DCartesian</text>
</a>
</g>
</g>
<!-- Node1&#45;&gt;Node3 -->
<g id="edge2" class="edge">
<title>Node1&#45;&gt;Node3</title>
<path fill="none" stroke="#191970" d="M191.9243,-50.6718C180.2715,-40.9041 165.981,-28.9252 156.0518,-20.6022"/>
<polygon fill="#191970" stroke="#191970" points="189.9308,-53.5678 199.843,-57.3095 194.4276,-48.2032 189.9308,-53.5678"/>
</g>
<!-- Node4 -->
<g id="node4" class="node">
<title>Node4</title>
<g id="a_node4"><a xlink:href="../../d5/dc1/classPHField3DCylindrical.html" target="_top" xlink:title="PHField3DCylindrical">
<polygon fill="none" stroke="#000000" points="220,-.5 220,-20.5 340,-20.5 340,-.5 220,-.5"/>
<text text-anchor="middle" x="280" y="-7.5" font-family="FreeSans" font-size="10.00" fill="#000000">PHField3DCylindrical</text>
</a>
</g>
</g>
<!-- Node1&#45;&gt;Node4 -->
<g id="edge3" class="edge">
<title>Node1&#45;&gt;Node4</title>
<path fill="none" stroke="#191970" d="M232.0757,-50.6718C243.7285,-40.9041 258.019,-28.9252 267.9482,-20.6022"/>
<polygon fill="#191970" stroke="#191970" points="229.5724,-48.2032 224.157,-57.3095 234.0692,-53.5678 229.5724,-48.2032"/>
</g>
<!-- Node5 -->
<g id="node5" class="node">
<title>Node5</title>
<g id="a_node5"><a xlink:href="../../d3/dec/classPHFieldUniform.html" target="_top" xlink:title="PHFieldUniform">
<polygon fill="none" stroke="#000000" points="357.5,-.5 357.5,-20.5 450.5,-20.5 450.5,-.5 357.5,-.5"/>
<text text-anchor="middle" x="404" y="-7.5" font-family="FreeSans" font-size="10.00" fill="#000000">PHFieldUniform</text>
</a>
</g>
</g>
<!-- Node1&#45;&gt;Node5 -->
<g id="edge4" class="edge">
<title>Node1&#45;&gt;Node5</title>
<path fill="none" stroke="#191970" d="M248.5231,-56.6572C283.5406,-46.2614 335.9807,-30.6932 370.0955,-20.5654"/>
<polygon fill="#191970" stroke="#191970" points="247.2871,-53.3731 238.6968,-59.5744 249.2794,-60.0836 247.2871,-53.3731"/>
</g>
</g>
</svg>
