<?xml version="1.0" encoding="UTF-8" standalone="no"?>
<!DOCTYPE svg PUBLIC "-//W3C//DTD SVG 1.1//EN"
 "http://www.w3.org/Graphics/SVG/1.1/DTD/svg11.dtd">
<!-- Generated by graphviz version 2.40.1 (20161225.0304)
 -->
<!-- Title: pyhitest Pages: 1 -->
<svg width="1077pt" height="2272pt"
 viewBox="0.00 0.00 1077.00 2272.03" xmlns="http://www.w3.org/2000/svg" xmlns:xlink="http://www.w3.org/1999/xlink">
<g id="graph0" class="graph" transform="scale(1 1) rotate(0) translate(4 2268.0308)">
<title>pyhitest</title>
<!-- Node1 -->
<g id="node1" class="node">
<title>Node1</title>
<polygon fill="#bfbfbf" stroke="#000000" points="0,-1966.3478 0,-1986.3478 58,-1986.3478 58,-1966.3478 0,-1966.3478"/>
<text text-anchor="middle" x="29" y="-1973.3478" font-family="FreeSans" font-size="10.00" fill="#000000">pyhitest</text>
</g>
<!-- Node2 -->
<g id="node2" class="node">
<title>Node2</title>
<g id="a_node2"><a xlink:href="../../d0/da8/lucomp_8f.html#af4e2c29d51aeb470efbf59be26e18d04" target="_top" xlink:title="lucomp">
<polygon fill="none" stroke="#000000" points="1015,-1983.3478 1015,-2003.3478 1069,-2003.3478 1069,-1983.3478 1015,-1983.3478"/>
<text text-anchor="middle" x="1042" y="-1990.3478" font-family="FreeSans" font-size="10.00" fill="#000000">lucomp</text>
</a>
</g>
</g>
<!-- Node1&#45;&gt;Node2 -->
<g id="edge1" class="edge">
<title>Node1&#45;&gt;Node2</title>
<path fill="none" stroke="#191970" d="M30.672,-1986.436C37.4549,-2026.3276 63.9922,-2172.5733 94,-2207.3478 133.7709,-2253.4363 158.1241,-2263.3478 219,-2263.3478 219,-2263.3478 219,-2263.3478 777.5,-2263.3478 870.2157,-2263.3478 912.7243,-2274.1841 979,-2209.3478 1007.3709,-2181.5931 1030.397,-2061.8005 1038.6872,-2013.5747"/>
<polygon fill="#191970" stroke="#191970" points="1042.1845,-2013.8824 1040.392,-2003.4403 1035.2815,-2012.721 1042.1845,-2013.8824"/>
</g>
<!-- Node3 -->
<g id="node3" class="node">
<title>Node3</title>
<g id="a_node3"><a xlink:href="../../d7/dda/lulist_8f.html#a69a9c5efe2681d7e19be2b4ed218153e" target="_top" xlink:title="lulist">
<polygon fill="none" stroke="#000000" points="625,-1946.3478 625,-1966.3478 666,-1966.3478 666,-1946.3478 625,-1946.3478"/>
<text text-anchor="middle" x="645.5" y="-1953.3478" font-family="FreeSans" font-size="10.00" fill="#000000">lulist</text>
</a>
</g>
</g>
<!-- Node1&#45;&gt;Node3 -->
<g id="edge2" class="edge">
<title>Node1&#45;&gt;Node3</title>
<path fill="none" stroke="#191970" d="M58.3203,-1975.3966C161.744,-1972.0415 508.9751,-1960.7769 614.6952,-1957.3472"/>
<polygon fill="#191970" stroke="#191970" points="615.1091,-1960.8357 624.9903,-1957.0132 614.8821,-1953.8394 615.1091,-1960.8357"/>
</g>
<!-- Node6 -->
<g id="node6" class="node">
<title>Node6</title>
<g id="a_node6"><a xlink:href="../../d0/d38/plu_8f.html#ab4b095f080a22e776f5a9cc25e23cc54" target="_top" xlink:title="plu">
<polygon fill="none" stroke="#000000" points="761.5,-1984.3478 761.5,-2004.3478 793.5,-2004.3478 793.5,-1984.3478 761.5,-1984.3478"/>
<text text-anchor="middle" x="777.5" y="-1991.3478" font-family="FreeSans" font-size="10.00" fill="#000000">plu</text>
</a>
</g>
</g>
<!-- Node1&#45;&gt;Node6 -->
<g id="edge19" class="edge">
<title>Node1&#45;&gt;Node6</title>
<path fill="none" stroke="#191970" d="M58.318,-1982.3166C69.4425,-1984.3155 82.2581,-1986.3007 94,-1987.3478 349.2781,-2010.1128 660.2941,-1999.4491 751.3163,-1995.5577"/>
<polygon fill="#191970" stroke="#191970" points="751.4705,-1999.0544 761.3074,-1995.1194 751.1636,-1992.0611 751.4705,-1999.0544"/>
</g>
<!-- Node7 -->
<g id="node7" class="node">
<title>Node7</title>
<g id="a_node7"><a xlink:href="../../da/d0a/CylinderKalman_8cpp.html#ab74daa0c9784c63e060bfb98cc06fbf5" target="_top" xlink:title="sign">
<polygon fill="none" stroke="#000000" points="1023.5,-512.3478 1023.5,-532.3478 1060.5,-532.3478 1060.5,-512.3478 1023.5,-512.3478"/>
<text text-anchor="middle" x="1042" y="-519.3478" font-family="FreeSans" font-size="10.00" fill="#000000">sign</text>
</a>
</g>
</g>
<!-- Node1&#45;&gt;Node7 -->
<g id="edge147" class="edge">
<title>Node1&#45;&gt;Node7</title>
<path fill="none" stroke="#191970" d="M29.0322,-1966.0278C29.5301,-1818.5513 36.4595,-138.7424 94,-54.3478 128.0915,-4.3459 158.4821,-.3478 219,-.3478 219,-.3478 219,-.3478 777.5,-.3478 871.8764,-.3478 918.6578,5.2175 979,-67.3478 1007.2736,-101.3486 1033.8469,-417.9958 1040.4415,-501.9817"/>
<polygon fill="#191970" stroke="#191970" points="1036.9586,-502.3393 1041.2224,-512.0383 1043.9376,-501.7973 1036.9586,-502.3393"/>
</g>
<!-- Node9 -->
<g id="node9" class="node">
<title>Node9</title>
<g id="a_node9"><a xlink:href="../../d7/ded/ulmass_8f.html#aa951cb677600842104db95323a7647b2" target="_top" xlink:title="ulmass">
<polygon fill="none" stroke="#000000" points="896.5,-1639.3478 896.5,-1659.3478 948.5,-1659.3478 948.5,-1639.3478 896.5,-1639.3478"/>
<text text-anchor="middle" x="922.5" y="-1646.3478" font-family="FreeSans" font-size="10.00" fill="#000000">ulmass</text>
</a>
</g>
</g>
<!-- Node1&#45;&gt;Node9 -->
<g id="edge149" class="edge">
<title>Node1&#45;&gt;Node9</title>
<path fill="none" stroke="#191970" d="M33.7616,-1986.3968C52.0298,-2023.3193 121.5243,-2149.3478 219,-2149.3478 219,-2149.3478 219,-2149.3478 358.5,-2149.3478 576.5987,-2149.3478 678.2653,-2170.012 830,-2013.3478 842.405,-2000.5399 901.1597,-1743.7979 917.9869,-1669.392"/>
<polygon fill="#191970" stroke="#191970" points="921.4473,-1669.9577 920.235,-1659.4324 914.619,-1668.4164 921.4473,-1669.9577"/>
</g>
<!-- Node13 -->
<g id="node13" class="node">
<title>Node13</title>
<g id="a_node13"><a xlink:href="../../d2/d24/pyhiinit_8f.html#a93154984510592257bbf242af68cb276" target="_top" xlink:title="pyhiinit">
<polygon fill="none" stroke="#000000" points="95.5,-331.3478 95.5,-351.3478 150.5,-351.3478 150.5,-331.3478 95.5,-331.3478"/>
<text text-anchor="middle" x="123" y="-338.3478" font-family="FreeSans" font-size="10.00" fill="#000000">pyhiinit</text>
</a>
</g>
</g>
<!-- Node1&#45;&gt;Node13 -->
<g id="edge20" class="edge">
<title>Node1&#45;&gt;Node13</title>
<path fill="none" stroke="#191970" d="M29.5759,-1966.3308C36.8868,-1839.1676 111.5192,-541.0404 121.8227,-361.825"/>
<polygon fill="#191970" stroke="#191970" points="125.3271,-361.8472 122.407,-351.6628 118.3387,-361.4454 125.3271,-361.8472"/>
</g>
<!-- Node17 -->
<g id="node17" class="node">
<title>Node17</title>
<g id="a_node17"><a xlink:href="../../d0/d5e/classPHTimer.html#adce6f9a85834e59bd154b9c624ee4e41" target="_top" xlink:title="stops the counter">
<polygon fill="none" stroke="#000000" points="602,-103.3478 602,-123.3478 689,-123.3478 689,-103.3478 602,-103.3478"/>
<text text-anchor="middle" x="645.5" y="-110.3478" font-family="FreeSans" font-size="10.00" fill="#000000">PHTimer::stop</text>
</a>
</g>
</g>
<!-- Node1&#45;&gt;Node17 -->
<g id="edge148" class="edge">
<title>Node1&#45;&gt;Node17</title>
<path fill="none" stroke="#191970" d="M29.1673,-1966.1154C31.3357,-1835.326 54.5044,-491.8787 94,-321.3478 125.0245,-187.3928 81.4992,-38.3478 219,-38.3478 219,-38.3478 219,-38.3478 358.5,-38.3478 451.7457,-38.3478 477.6923,-39.406 566,-69.3478 586.0424,-76.1435 606.9112,-87.9002 622.2361,-97.552"/>
<polygon fill="#191970" stroke="#191970" points="620.7077,-100.7318 631.0047,-103.2265 624.5108,-94.8551 620.7077,-100.7318"/>
</g>
<!-- Node35 -->
<g id="node35" class="node">
<title>Node35</title>
<g id="a_node35"><a xlink:href="../../d9/dba/pyhistat_8f.html#a811a95665aef5088488ab85417ea4562" target="_top" xlink:title="pyhistat">
<polygon fill="none" stroke="#000000" points="94,-2178.3478 94,-2198.3478 152,-2198.3478 152,-2178.3478 94,-2178.3478"/>
<text text-anchor="middle" x="123" y="-2185.3478" font-family="FreeSans" font-size="10.00" fill="#000000">pyhistat</text>
</a>
</g>
</g>
<!-- Node1&#45;&gt;Node35 -->
<g id="edge63" class="edge">
<title>Node1&#45;&gt;Node35</title>
<path fill="none" stroke="#191970" d="M30.6119,-1986.509C35.6801,-2016.0599 53.4279,-2103.6518 94,-2163.3478 95.9056,-2166.1517 98.2029,-2168.8306 100.6602,-2171.323"/>
<polygon fill="#191970" stroke="#191970" points="98.5055,-2174.0925 108.2804,-2178.1795 103.1877,-2168.8889 98.5055,-2174.0925"/>
</g>
<!-- Node36 -->
<g id="node36" class="node">
<title>Node36</title>
<g id="a_node36"><a xlink:href="../../dc/d4c/pyhithia_8f.html#a2854892a8ad546886195932d54962ba9" target="_top" xlink:title="pyhithia">
<polygon fill="none" stroke="#000000" points="94.5,-1075.3478 94.5,-1095.3478 151.5,-1095.3478 151.5,-1075.3478 94.5,-1075.3478"/>
<text text-anchor="middle" x="123" y="-1082.3478" font-family="FreeSans" font-size="10.00" fill="#000000">pyhithia</text>
</a>
</g>
</g>
<!-- Node1&#45;&gt;Node36 -->
<g id="edge65" class="edge">
<title>Node1&#45;&gt;Node36</title>
<path fill="none" stroke="#191970" d="M30.0557,-1966.3415C39.3954,-1877.813 107.8618,-1228.8386 120.8694,-1105.5429"/>
<polygon fill="#191970" stroke="#191970" points="124.3535,-1105.8776 121.922,-1095.5655 117.3921,-1105.1431 124.3535,-1105.8776"/>
</g>
<!-- Node3&#45;&gt;Node2 -->
<g id="edge3" class="edge">
<title>Node3&#45;&gt;Node2</title>
<path fill="none" stroke="#191970" d="M655.1284,-1966.4215C669.0274,-1980.1532 696.2205,-2004.0967 725,-2013.3478 822.2699,-2044.6151 944.792,-2020.1462 1005.0614,-2004.2414"/>
<polygon fill="#191970" stroke="#191970" points="1006.1438,-2007.5744 1014.8794,-2001.5795 1004.312,-2000.8183 1006.1438,-2007.5744"/>
</g>
<!-- Node4 -->
<g id="node4" class="node">
<title>Node4</title>
<g id="a_node4"><a xlink:href="../../d6/d80/luname_8f.html#a87cfaa02a00bc60d5b1ce6c2fce29432" target="_top" xlink:title="luname">
<polygon fill="none" stroke="#000000" points="750.5,-2138.3478 750.5,-2158.3478 804.5,-2158.3478 804.5,-2138.3478 750.5,-2138.3478"/>
<text text-anchor="middle" x="777.5" y="-2145.3478" font-family="FreeSans" font-size="10.00" fill="#000000">luname</text>
</a>
</g>
</g>
<!-- Node3&#45;&gt;Node4 -->
<g id="edge4" class="edge">
<title>Node3&#45;&gt;Node4</title>
<path fill="none" stroke="#191970" d="M651.0225,-1966.3648C663.3488,-1988.4719 694.4322,-2042.8475 725,-2085.3478 736.3475,-2101.125 750.52,-2117.9885 761.2787,-2130.2944"/>
<polygon fill="#191970" stroke="#191970" points="758.8595,-2132.8422 768.105,-2138.0163 764.1041,-2128.206 758.8595,-2132.8422"/>
</g>
<!-- Node3&#45;&gt;Node6 -->
<g id="edge8" class="edge">
<title>Node3&#45;&gt;Node6</title>
<path fill="none" stroke="#191970" d="M666.125,-1962.2853C689.0925,-1968.8972 726.2688,-1979.5995 751.283,-1986.8005"/>
<polygon fill="#191970" stroke="#191970" points="750.6038,-1990.2471 761.1818,-1989.6502 752.5404,-1983.5203 750.6038,-1990.2471"/>
</g>
<!-- Node3&#45;&gt;Node9 -->
<g id="edge18" class="edge">
<title>Node3&#45;&gt;Node9</title>
<path fill="none" stroke="#191970" d="M666.2184,-1960.564C703.5099,-1966.8752 782.4659,-1974.2339 830,-1935.3478 872.5941,-1900.503 907.7888,-1728.953 918.8658,-1669.5992"/>
<polygon fill="#191970" stroke="#191970" points="922.3405,-1670.0555 920.7025,-1659.5881 915.4554,-1668.7923 922.3405,-1670.0555"/>
</g>
<!-- Node11 -->
<g id="node11" class="node">
<title>Node11</title>
<g id="a_node11"><a xlink:href="../../dc/d9f/hcalUtil_8C.html#af562b1ac3ac927ecde202ce0501a97a6" target="_top" xlink:title="ps">
<polygon fill="none" stroke="#000000" points="763,-1906.3478 763,-1926.3478 792,-1926.3478 792,-1906.3478 763,-1906.3478"/>
<text text-anchor="middle" x="777.5" y="-1913.3478" font-family="FreeSans" font-size="10.00" fill="#000000">ps</text>
</a>
</g>
</g>
<!-- Node3&#45;&gt;Node11 -->
<g id="edge16" class="edge">
<title>Node3&#45;&gt;Node11</title>
<path fill="none" stroke="#191970" d="M666.125,-1950.0978C689.6,-1942.9842 727.9189,-1931.3724 752.9233,-1923.7953"/>
<polygon fill="#191970" stroke="#191970" points="754.187,-1927.0696 762.7421,-1920.8199 752.1569,-1920.3705 754.187,-1927.0696"/>
</g>
<!-- Node4&#45;&gt;Node2 -->
<g id="edge7" class="edge">
<title>Node4&#45;&gt;Node2</title>
<path fill="none" stroke="#191970" d="M804.8311,-2145.5406C846.1462,-2140.1187 925.3625,-2125.0082 979,-2085.3478 1004.6828,-2066.3576 1023.4303,-2033.6283 1033.5135,-2012.7594"/>
<polygon fill="#191970" stroke="#191970" points="1036.738,-2014.125 1037.7598,-2003.5795 1030.3848,-2011.1861 1036.738,-2014.125"/>
</g>
<!-- Node5 -->
<g id="node5" class="node">
<title>Node5</title>
<g id="a_node5"><a xlink:href="../../df/d5f/luchge_8f.html#a86938fb3242850e133e3b60d256582b7" target="_top" xlink:title="luchge">
<polygon fill="none" stroke="#000000" points="897.5,-1906.3478 897.5,-1926.3478 947.5,-1926.3478 947.5,-1906.3478 897.5,-1906.3478"/>
<text text-anchor="middle" x="922.5" y="-1913.3478" font-family="FreeSans" font-size="10.00" fill="#000000">luchge</text>
</a>
</g>
</g>
<!-- Node4&#45;&gt;Node5 -->
<g id="edge5" class="edge">
<title>Node4&#45;&gt;Node5</title>
<path fill="none" stroke="#191970" d="M804.5306,-2141.0498C813.9026,-2137.2305 823.6429,-2131.5763 830,-2123.3478 882.0113,-2056.0251 810.0448,-1999.4302 866,-1935.3478 871.6134,-1928.9191 879.4735,-1924.6606 887.5503,-1921.8412"/>
<polygon fill="#191970" stroke="#191970" points="888.7011,-1925.1532 897.3732,-1919.0667 886.7983,-1918.4167 888.7011,-1925.1532"/>
</g>
<!-- Node5&#45;&gt;Node2 -->
<g id="edge6" class="edge">
<title>Node5&#45;&gt;Node2</title>
<path fill="none" stroke="#191970" d="M947.6721,-1922.3498C957.822,-1925.3859 969.3808,-1929.6567 979,-1935.3478 997.0531,-1946.0288 1014.3435,-1962.5545 1026.228,-1975.2378"/>
<polygon fill="#191970" stroke="#191970" points="1023.8939,-1977.8734 1033.2109,-1982.9176 1029.0731,-1973.1642 1023.8939,-1977.8734"/>
</g>
<!-- Node6&#45;&gt;Node5 -->
<g id="edge9" class="edge">
<title>Node6&#45;&gt;Node5</title>
<path fill="none" stroke="#191970" d="M793.826,-1988.133C804.5644,-1983.6779 818.6734,-1977.1072 830,-1969.3478 848.1561,-1956.9099 847.1307,-1946.6745 866,-1935.3478 872.663,-1931.3482 880.2786,-1928.0602 887.7146,-1925.4104"/>
<polygon fill="#191970" stroke="#191970" points="888.8685,-1928.7156 897.2913,-1922.2885 886.699,-1922.0603 888.8685,-1928.7156"/>
</g>
<!-- Node6&#45;&gt;Node7 -->
<g id="edge10" class="edge">
<title>Node6&#45;&gt;Node7</title>
<path fill="none" stroke="#191970" d="M793.528,-1998.7975C831.9911,-2008.3906 929.9596,-2026.192 979,-1974.3478 985.4454,-1967.5339 1034.3199,-719.3937 1041.1968,-542.9831"/>
<polygon fill="#191970" stroke="#191970" points="1044.7038,-542.871 1041.5958,-532.7423 1037.7091,-542.5985 1044.7038,-542.871"/>
</g>
<!-- Node8 -->
<g id="node8" class="node">
<title>Node8</title>
<g id="a_node8"><a xlink:href="../../d2/da8/ulangl_8f.html#a13a8d5a72aa20b0ae2ceca14e31467ba" target="_top" xlink:title="ulangl">
<polygon fill="none" stroke="#000000" points="899,-952.3478 899,-972.3478 946,-972.3478 946,-952.3478 899,-952.3478"/>
<text text-anchor="middle" x="922.5" y="-959.3478" font-family="FreeSans" font-size="10.00" fill="#000000">ulangl</text>
</a>
</g>
</g>
<!-- Node6&#45;&gt;Node8 -->
<g id="edge11" class="edge">
<title>Node6&#45;&gt;Node8</title>
<path fill="none" stroke="#191970" d="M790.4139,-1984.1642C802.919,-1973.4781 821.2358,-1955.459 830,-1935.3478 839.9011,-1912.628 908.8052,-1120.5959 920.7403,-982.7134"/>
<polygon fill="#191970" stroke="#191970" points="924.261,-982.624 921.6358,-972.3596 917.2871,-982.0208 924.261,-982.624"/>
</g>
<!-- Node6&#45;&gt;Node9 -->
<g id="edge13" class="edge">
<title>Node6&#45;&gt;Node9</title>
<path fill="none" stroke="#191970" d="M793.9412,-1990.3917C805.5841,-1986.7727 820.7225,-1980.2761 830,-1969.3478 869.8141,-1922.4499 907.3404,-1732.4795 918.8819,-1669.64"/>
<polygon fill="#191970" stroke="#191970" points="922.3893,-1669.913 920.7292,-1659.4491 915.5016,-1668.6644 922.3893,-1669.913"/>
</g>
<!-- Node8&#45;&gt;Node7 -->
<g id="edge12" class="edge">
<title>Node8&#45;&gt;Node7</title>
<path fill="none" stroke="#191970" d="M925.2205,-952.3311C940.4855,-896.125 1015.556,-619.7148 1036.5413,-542.4468"/>
<polygon fill="#191970" stroke="#191970" points="1039.9881,-543.1093 1039.2315,-532.5415 1033.2328,-541.2746 1039.9881,-543.1093"/>
</g>
<!-- Node9&#45;&gt;Node2 -->
<g id="edge14" class="edge">
<title>Node9&#45;&gt;Node2</title>
<path fill="none" stroke="#191970" d="M926.0764,-1659.6431C942.7064,-1707.5153 1012.6106,-1908.7458 1035.0409,-1973.3148"/>
<polygon fill="#191970" stroke="#191970" points="1031.8498,-1974.795 1038.4376,-1983.0927 1038.4622,-1972.4979 1031.8498,-1974.795"/>
</g>
<!-- Node10 -->
<g id="node10" class="node">
<title>Node10</title>
<g id="a_node10"><a xlink:href="../../d5/dae/rlu_8f.html#a722544a6fb4dd0f67ceda726148484f5" target="_top" xlink:title="rlu">
<polygon fill="none" stroke="#000000" points="1027.5,-1226.3478 1027.5,-1246.3478 1056.5,-1246.3478 1056.5,-1226.3478 1027.5,-1226.3478"/>
<text text-anchor="middle" x="1042" y="-1233.3478" font-family="FreeSans" font-size="10.00" fill="#000000">rlu</text>
</a>
</g>
</g>
<!-- Node9&#45;&gt;Node10 -->
<g id="edge15" class="edge">
<title>Node9&#45;&gt;Node10</title>
<path fill="none" stroke="#191970" d="M935.537,-1638.9666C948.7092,-1627.7132 968.5622,-1608.5051 979,-1587.3478 1008.3284,-1527.8995 1032.6732,-1322.3048 1039.8502,-1256.6624"/>
<polygon fill="#191970" stroke="#191970" points="1043.363,-1256.7315 1040.9547,-1246.4141 1036.4033,-1255.9814 1043.363,-1256.7315"/>
</g>
<!-- Node12 -->
<g id="node12" class="node">
<title>Node12</title>
<g id="a_node12"><a xlink:href="../../da/d55/TPCRateLayered_8m.html#a7507ef556477c204b499f1e189d40796" target="_top" xlink:title="sum">
<polygon fill="none" stroke="#000000" points="903.5,-1945.3478 903.5,-1965.3478 941.5,-1965.3478 941.5,-1945.3478 903.5,-1945.3478"/>
<text text-anchor="middle" x="922.5" y="-1952.3478" font-family="FreeSans" font-size="10.00" fill="#000000">sum</text>
</a>
</g>
</g>
<!-- Node11&#45;&gt;Node12 -->
<g id="edge17" class="edge">
<title>Node11&#45;&gt;Node12</title>
<path fill="none" stroke="#191970" d="M792.2013,-1920.302C815.8764,-1926.6698 862.8862,-1939.3138 893.4922,-1947.5457"/>
<polygon fill="#191970" stroke="#191970" points="892.6195,-1950.9353 903.1854,-1950.1529 894.4377,-1944.1756 892.6195,-1950.9353"/>
</g>
<!-- Node13&#45;&gt;Node3 -->
<g id="edge21" class="edge">
<title>Node13&#45;&gt;Node3</title>
<path fill="none" stroke="#191970" d="M150.8148,-349.6527C247.4154,-378.5248 562.6973,-473.0133 566,-477.3478 607.4317,-531.7248 595.0999,-1639.3344 602,-1707.3478 610.7013,-1793.1154 631.6634,-1893.8762 640.9455,-1936.1156"/>
<polygon fill="#191970" stroke="#191970" points="637.5524,-1936.9815 643.137,-1945.985 644.386,-1935.464 637.5524,-1936.9815"/>
</g>
<!-- Node14 -->
<g id="node14" class="node">
<title>Node14</title>
<g id="a_node14"><a xlink:href="../../d1/dd2/pyhiinki_8f.html#a0053c3d183c44a593890ccc3d2ba0fc8" target="_top" xlink:title="pyhiinki">
<polygon fill="none" stroke="#000000" points="191,-214.3478 191,-234.3478 247,-234.3478 247,-214.3478 191,-214.3478"/>
<text text-anchor="middle" x="219" y="-221.3478" font-family="FreeSans" font-size="10.00" fill="#000000">pyhiinki</text>
</a>
</g>
</g>
<!-- Node13&#45;&gt;Node14 -->
<g id="edge22" class="edge">
<title>Node13&#45;&gt;Node14</title>
<path fill="none" stroke="#191970" d="M128.8291,-331.2799C139.3323,-313.6017 162.7079,-276.3012 188,-249.3478 190.6642,-246.5087 193.6563,-243.7089 196.7031,-241.0685"/>
<polygon fill="#191970" stroke="#191970" points="199.1747,-243.5691 204.7085,-234.5342 194.7483,-238.1462 199.1747,-243.5691"/>
</g>
<!-- Node13&#45;&gt;Node17 -->
<g id="edge62" class="edge">
<title>Node13&#45;&gt;Node17</title>
<path fill="none" stroke="#191970" d="M125.6141,-331.2015C136.6123,-290.9987 183.3828,-142.8201 286,-96.3478 393.1953,-47.8023 537.2356,-79.8846 605.8937,-100.2369"/>
<polygon fill="#191970" stroke="#191970" points="605.2705,-103.7056 615.8562,-103.266 607.3069,-97.0083 605.2705,-103.7056"/>
</g>
<!-- Node20 -->
<g id="node20" class="node">
<title>Node20</title>
<g id="a_node20"><a xlink:href="../../d8/db5/pyhiinre_8f.html#af650b18d891eac472b3b68edd70a0f61" target="_top" xlink:title="pyhiinre">
<polygon fill="none" stroke="#000000" points="488,-371.3478 488,-391.3478 545,-391.3478 545,-371.3478 488,-371.3478"/>
<text text-anchor="middle" x="516.5" y="-378.3478" font-family="FreeSans" font-size="10.00" fill="#000000">pyhiinre</text>
</a>
</g>
</g>
<!-- Node13&#45;&gt;Node20 -->
<g id="edge33" class="edge">
<title>Node13&#45;&gt;Node20</title>
<path fill="none" stroke="#191970" d="M130.3777,-330.9755C141.1541,-316.827 162.6937,-292.1203 188,-282.3478 213.7055,-272.4212 224.542,-271.8028 250,-282.3478 270.905,-291.007 266.4324,-306.9851 286,-318.3478 318.5911,-337.2732 421.0277,-361.069 477.7498,-373.2888"/>
<polygon fill="#191970" stroke="#191970" points="477.2713,-376.7655 487.7819,-375.432 478.7338,-369.9199 477.2713,-376.7655"/>
</g>
<!-- Node23 -->
<g id="node23" class="node">
<title>Node23</title>
<g id="a_node23"><a xlink:href="../../dd/d7c/pyhimaxi_8f.html#aac610635dd3329298252ad5ce8c18037" target="_top" xlink:title="pyhimaxi">
<polygon fill="none" stroke="#000000" points="327.5,-523.3478 327.5,-543.3478 389.5,-543.3478 389.5,-523.3478 327.5,-523.3478"/>
<text text-anchor="middle" x="358.5" y="-530.3478" font-family="FreeSans" font-size="10.00" fill="#000000">pyhimaxi</text>
</a>
</g>
</g>
<!-- Node13&#45;&gt;Node23 -->
<g id="edge38" class="edge">
<title>Node13&#45;&gt;Node23</title>
<path fill="none" stroke="#191970" d="M135.3299,-351.4003C173.631,-382.6266 290.8161,-478.1661 338.2505,-516.8386"/>
<polygon fill="#191970" stroke="#191970" points="336.0458,-519.557 346.008,-523.1633 340.4691,-514.1316 336.0458,-519.557"/>
</g>
<!-- Node30 -->
<g id="node30" class="node">
<title>Node30</title>
<g id="a_node30"><a xlink:href="../../dd/ded/pyhimult_8f.html#ab211ef234aa1654aab2f5ec13044efbf" target="_top" xlink:title="pyhimult">
<polygon fill="none" stroke="#000000" points="327.5,-661.3478 327.5,-681.3478 389.5,-681.3478 389.5,-661.3478 327.5,-661.3478"/>
<text text-anchor="middle" x="358.5" y="-668.3478" font-family="FreeSans" font-size="10.00" fill="#000000">pyhimult</text>
</a>
</g>
</g>
<!-- Node13&#45;&gt;Node30 -->
<g id="edge50" class="edge">
<title>Node13&#45;&gt;Node30</title>
<path fill="none" stroke="#191970" d="M129.9532,-351.55C141.7722,-368.8584 166.5836,-405.05 188,-435.3478 245.6542,-516.9116 315.8914,-613.1738 344.9334,-652.8443"/>
<polygon fill="#191970" stroke="#191970" points="342.2119,-655.0519 350.9448,-661.0508 347.859,-650.9153 342.2119,-655.0519"/>
</g>
<!-- Node33 -->
<g id="node33" class="node">
<title>Node33</title>
<g id="a_node33"><a xlink:href="../../d5/d9e/pyhiovly_8f.html#adbffcc9d4816f148e95451b4ca682917" target="_top" xlink:title="pyhiovly">
<polygon fill="none" stroke="#000000" points="189.5,-331.3478 189.5,-351.3478 248.5,-351.3478 248.5,-331.3478 189.5,-331.3478"/>
<text text-anchor="middle" x="219" y="-338.3478" font-family="FreeSans" font-size="10.00" fill="#000000">pyhiovly</text>
</a>
</g>
</g>
<!-- Node13&#45;&gt;Node33 -->
<g id="edge59" class="edge">
<title>Node13&#45;&gt;Node33</title>
<path fill="none" stroke="#191970" d="M150.5097,-341.3478C159.4613,-341.3478 169.5832,-341.3478 179.2456,-341.3478"/>
<polygon fill="#191970" stroke="#191970" points="179.4729,-344.8479 189.4728,-341.3478 179.4728,-337.8479 179.4729,-344.8479"/>
</g>
<!-- Node34 -->
<g id="node34" class="node">
<title>Node34</title>
<g id="a_node34"><a xlink:href="../../d6/d62/pyhixtot_8f.html#a8a4b0dcf579f6d1b4fbf1a0ab57abeb8" target="_top" xlink:title="pyhixtot">
<polygon fill="none" stroke="#000000" points="190,-292.3478 190,-312.3478 248,-312.3478 248,-292.3478 190,-292.3478"/>
<text text-anchor="middle" x="219" y="-299.3478" font-family="FreeSans" font-size="10.00" fill="#000000">pyhixtot</text>
</a>
</g>
</g>
<!-- Node13&#45;&gt;Node34 -->
<g id="edge61" class="edge">
<title>Node13&#45;&gt;Node34</title>
<path fill="none" stroke="#191970" d="M147.7224,-331.3044C159.0322,-326.7098 172.6168,-321.191 184.8793,-316.2094"/>
<polygon fill="#191970" stroke="#191970" points="186.4141,-319.3637 194.3614,-312.3573 183.7794,-312.8785 186.4141,-319.3637"/>
</g>
<!-- Node14&#45;&gt;Node8 -->
<g id="edge31" class="edge">
<title>Node14&#45;&gt;Node8</title>
<path fill="none" stroke="#191970" d="M243.2019,-214.3365C293.2882,-194.5529 412.3448,-152.3478 516.5,-152.3478 516.5,-152.3478 516.5,-152.3478 645.5,-152.3478 817.7249,-152.3478 905.1446,-816.243 920.153,-941.944"/>
<polygon fill="#191970" stroke="#191970" points="916.7039,-942.5833 921.3473,-952.1064 923.6561,-941.7663 916.7039,-942.5833"/>
</g>
<!-- Node14&#45;&gt;Node9 -->
<g id="edge32" class="edge">
<title>Node14&#45;&gt;Node9</title>
<path fill="none" stroke="#191970" d="M247.2967,-233.301C307.5921,-252.8524 452.49,-302.3702 566,-361.3478 715.7759,-439.1686 770.2007,-476.5095 830,-634.3478 839.1749,-658.5648 908.96,-1487.7323 920.7966,-1628.9875"/>
<polygon fill="#191970" stroke="#191970" points="917.3324,-1629.5634 921.6548,-1639.2365 924.308,-1628.9792 917.3324,-1629.5634"/>
</g>
<!-- Node15 -->
<g id="node15" class="node">
<title>Node15</title>
<g id="a_node15"><a xlink:href="../../df/d3f/lurobo_8f.html#acd0c9860f321d2221dd01a05b17a6bac" target="_top" xlink:title="lurobo">
<polygon fill="none" stroke="#000000" points="334.5,-950.3478 334.5,-970.3478 382.5,-970.3478 382.5,-950.3478 334.5,-950.3478"/>
<text text-anchor="middle" x="358.5" y="-957.3478" font-family="FreeSans" font-size="10.00" fill="#000000">lurobo</text>
</a>
</g>
</g>
<!-- Node14&#45;&gt;Node15 -->
<g id="edge23" class="edge">
<title>Node14&#45;&gt;Node15</title>
<path fill="none" stroke="#191970" d="M226.179,-234.4493C233.6521,-245.5838 244.9559,-264.3154 250,-282.3478 269.7245,-352.8615 240.0653,-883.3282 286,-940.3478 295.228,-951.8027 310.3742,-957.0489 324.4428,-959.3326"/>
<polygon fill="#191970" stroke="#191970" points="324.0526,-962.8108 334.3965,-960.5183 324.8807,-955.86 324.0526,-962.8108"/>
</g>
<!-- Node14&#45;&gt;Node17 -->
<g id="edge30" class="edge">
<title>Node14&#45;&gt;Node17</title>
<path fill="none" stroke="#191970" d="M223.4542,-214.1121C232.2738,-195.261 253.9226,-155.4241 286,-138.3478 383.7105,-86.332 518.0775,-94.2737 591.7605,-104.1423"/>
<polygon fill="#191970" stroke="#191970" points="591.3556,-107.6196 601.7446,-105.5415 592.3272,-100.6874 591.3556,-107.6196"/>
</g>
<!-- Node16 -->
<g id="node16" class="node">
<title>Node16</title>
<g id="a_node16"><a xlink:href="../../df/dd0/luerrm_8f.html#ab2b89149ed6c532c613c12ae6c351b5d" target="_top" xlink:title="luerrm">
<polygon fill="none" stroke="#000000" points="492,-1256.3478 492,-1276.3478 541,-1276.3478 541,-1256.3478 492,-1256.3478"/>
<text text-anchor="middle" x="516.5" y="-1263.3478" font-family="FreeSans" font-size="10.00" fill="#000000">luerrm</text>
</a>
</g>
</g>
<!-- Node15&#45;&gt;Node16 -->
<g id="edge24" class="edge">
<title>Node15&#45;&gt;Node16</title>
<path fill="none" stroke="#191970" d="M363.7569,-970.529C386.4842,-1014.5451 476.4999,-1188.8792 506.6216,-1247.2162"/>
<polygon fill="#191970" stroke="#191970" points="503.5254,-1248.8488 511.2233,-1256.1284 509.7453,-1245.6372 503.5254,-1248.8488"/>
</g>
<!-- Node16&#45;&gt;Node3 -->
<g id="edge25" class="edge">
<title>Node16&#45;&gt;Node3</title>
<path fill="none" stroke="#191970" d="M517.9028,-1276.5258C525.2536,-1329.4159 560.5735,-1578.1565 602,-1779.3478 613.8112,-1836.7098 631.2806,-1903.6439 640.0535,-1936.3281"/>
<polygon fill="#191970" stroke="#191970" points="636.6888,-1937.2939 642.6745,-1946.0359 643.4469,-1935.4693 636.6888,-1937.2939"/>
</g>
<!-- Node16&#45;&gt;Node17 -->
<g id="edge26" class="edge">
<title>Node16&#45;&gt;Node17</title>
<path fill="none" stroke="#191970" d="M519.5213,-1255.9173C528.2421,-1225.378 553.621,-1133.3877 566,-1055.3478 595.6427,-868.4733 636.3799,-254.0643 644.1801,-133.8519"/>
<polygon fill="#191970" stroke="#191970" points="647.6955,-133.7259 644.8482,-123.5208 640.7101,-133.2741 647.6955,-133.7259"/>
</g>
<!-- Node18 -->
<g id="node18" class="node">
<title>Node18</title>
<g id="a_node18"><a xlink:href="../../d0/d5e/classPHTimer.html#aa92e3fe4a0a1799f39743eda9ef9d497" target="_top" xlink:title="gets time from cpu clock counts">
<polygon fill="none" stroke="#000000" points="866,-77.3478 866,-109.3478 979,-109.3478 979,-77.3478 866,-77.3478"/>
<text text-anchor="start" x="874" y="-96.3478" font-family="FreeSans" font-size="10.00" fill="#000000">PHTimer::get_clock</text>
<text text-anchor="middle" x="922.5" y="-84.3478" font-family="FreeSans" font-size="10.00" fill="#000000">_counts</text>
</a>
</g>
</g>
<!-- Node17&#45;&gt;Node18 -->
<g id="edge27" class="edge">
<title>Node17&#45;&gt;Node18</title>
<path fill="none" stroke="#191970" d="M677.6485,-103.3424C691.9867,-99.3802 709.1809,-95.3071 725,-93.3478 768.263,-87.9894 817.2668,-87.9534 855.6387,-89.2748"/>
<polygon fill="#191970" stroke="#191970" points="855.5325,-92.7732 865.6592,-89.6587 855.8005,-85.7783 855.5325,-92.7732"/>
</g>
<!-- Node19 -->
<g id="node19" class="node">
<title>Node19</title>
<g id="a_node19"><a xlink:href="../../d0/d5e/classPHTimer.html#a976738876ad978116fdc4549a3765685" target="_top" xlink:title="retrieve elapsed value since last restart (in ms)">
<polygon fill="none" stroke="#ff0000" points="725,-103.3478 725,-123.3478 830,-123.3478 830,-103.3478 725,-103.3478"/>
<text text-anchor="middle" x="777.5" y="-110.3478" font-family="FreeSans" font-size="10.00" fill="#000000">PHTimer::elapsed</text>
</a>
</g>
</g>
<!-- Node17&#45;&gt;Node19 -->
<g id="edge28" class="edge">
<title>Node17&#45;&gt;Node19</title>
<path fill="none" stroke="#191970" d="M689.0876,-113.3478C697.2917,-113.3478 706.0201,-113.3478 714.6756,-113.3478"/>
<polygon fill="#191970" stroke="#191970" points="714.767,-116.8479 724.767,-113.3478 714.7669,-109.8479 714.767,-116.8479"/>
</g>
<!-- Node19&#45;&gt;Node18 -->
<g id="edge29" class="edge">
<title>Node19&#45;&gt;Node18</title>
<path fill="none" stroke="#191970" d="M830.2585,-106.0708C838.523,-104.9309 847.158,-103.7398 855.6873,-102.5634"/>
<polygon fill="#191970" stroke="#191970" points="856.195,-106.0266 865.623,-101.1929 855.2385,-99.0922 856.195,-106.0266"/>
</g>
<!-- Node21 -->
<g id="node21" class="node">
<title>Node21</title>
<g id="a_node21"><a xlink:href="../../da/d85/pyhiwidt_8f.html#a6dc10c3afea1efeffcf06999c214d56c" target="_top" xlink:title="pyhiwidt">
<polygon fill="none" stroke="#ff0000" points="615.5,-720.3478 615.5,-740.3478 675.5,-740.3478 675.5,-720.3478 615.5,-720.3478"/>
<text text-anchor="middle" x="645.5" y="-727.3478" font-family="FreeSans" font-size="10.00" fill="#000000">pyhiwidt</text>
</a>
</g>
</g>
<!-- Node20&#45;&gt;Node21 -->
<g id="edge34" class="edge">
<title>Node20&#45;&gt;Node21</title>
<path fill="none" stroke="#191970" d="M526.686,-391.5937C537.855,-403.3726 555.5727,-423.7462 566,-444.3478 613.0772,-537.36 635.3937,-661.9504 642.6863,-710.1411"/>
<polygon fill="#191970" stroke="#191970" points="639.2473,-710.8133 644.1556,-720.2026 646.1738,-709.8017 639.2473,-710.8133"/>
</g>
<!-- Node22 -->
<g id="node22" class="node">
<title>Node22</title>
<g id="a_node22"><a xlink:href="../../dd/da4/ulalps_8f.html#ab97912b68e33a5152f0271fc0dbc311d" target="_top" xlink:title="ulalps">
<polygon fill="none" stroke="#000000" points="754.5,-644.3478 754.5,-664.3478 800.5,-664.3478 800.5,-644.3478 754.5,-644.3478"/>
<text text-anchor="middle" x="777.5" y="-651.3478" font-family="FreeSans" font-size="10.00" fill="#000000">ulalps</text>
</a>
</g>
</g>
<!-- Node20&#45;&gt;Node22 -->
<g id="edge37" class="edge">
<title>Node20&#45;&gt;Node22</title>
<path fill="none" stroke="#191970" d="M541.7093,-391.4461C549.924,-395.4017 558.7795,-400.4253 566,-406.3478 600.268,-434.4556 664.6387,-526.3226 689,-563.3478 707.3658,-591.2609 700.7334,-606.3788 725,-629.3478 730.6958,-634.7391 737.7695,-639.1605 744.8602,-642.7043"/>
<polygon fill="#191970" stroke="#191970" points="743.8565,-646.0905 754.4122,-647.0012 746.7284,-639.7067 743.8565,-646.0905"/>
</g>
<!-- Node21&#45;&gt;Node7 -->
<g id="edge36" class="edge">
<title>Node21&#45;&gt;Node7</title>
<path fill="none" stroke="#191970" d="M675.5009,-725.1725C713.3621,-717.7484 779.6175,-701.7379 830,-673.3478 848.6502,-662.8386 849.0961,-654.4829 866,-641.3478 917.6005,-601.2519 982.0748,-559.6587 1016.8898,-537.8445"/>
<polygon fill="#191970" stroke="#191970" points="1018.8495,-540.7473 1025.4823,-532.4855 1015.1451,-534.8078 1018.8495,-540.7473"/>
</g>
<!-- Node21&#45;&gt;Node22 -->
<g id="edge35" class="edge">
<title>Node21&#45;&gt;Node22</title>
<path fill="none" stroke="#191970" d="M663.9544,-720.3016C671.7885,-715.8938 680.9517,-710.5469 689,-705.3478 705.5783,-694.6384 708.0208,-689.4095 725,-679.3478 731.3888,-675.5619 738.4409,-671.8875 745.2477,-668.5731"/>
<polygon fill="#191970" stroke="#191970" points="746.7456,-671.7364 754.2921,-664.2999 743.7553,-665.4072 746.7456,-671.7364"/>
</g>
<!-- Node23&#45;&gt;Node17 -->
<g id="edge49" class="edge">
<title>Node23&#45;&gt;Node17</title>
<path fill="none" stroke="#191970" d="M364.6464,-523.1278C380.8593,-496.2763 426.3355,-421.6479 467,-361.3478 526.0097,-273.8443 601.1096,-172.5627 631.6497,-131.7688"/>
<polygon fill="#191970" stroke="#191970" points="634.5887,-133.6834 637.7881,-123.5831 628.9884,-129.4837 634.5887,-133.6834"/>
</g>
<!-- Node24 -->
<g id="node24" class="node">
<title>Node24</title>
<g id="a_node24"><a xlink:href="../../de/d63/pyhiklim_8f.html#adb056b95029e510447724de4b9b6558f" target="_top" xlink:title="pyhiklim">
<polygon fill="none" stroke="#000000" points="487,-487.3478 487,-507.3478 546,-507.3478 546,-487.3478 487,-487.3478"/>
<text text-anchor="middle" x="516.5" y="-494.3478" font-family="FreeSans" font-size="10.00" fill="#000000">pyhiklim</text>
</a>
</g>
</g>
<!-- Node23&#45;&gt;Node24 -->
<g id="edge39" class="edge">
<title>Node23&#45;&gt;Node24</title>
<path fill="none" stroke="#191970" d="M389.7157,-526.2354C414.7559,-520.53 450.0555,-512.4871 477.0512,-506.3362"/>
<polygon fill="#191970" stroke="#191970" points="477.9797,-509.7144 486.9523,-504.0802 476.4246,-502.8893 477.9797,-509.7144"/>
</g>
<!-- Node25 -->
<g id="node25" class="node">
<title>Node25</title>
<g id="a_node25"><a xlink:href="../../da/d3b/pyhikmap_8f.html#a7d05e806aba8a0c6e886bce95e6a4010" target="_top" xlink:title="pyhikmap">
<polygon fill="none" stroke="#000000" points="483.5,-526.3478 483.5,-546.3478 549.5,-546.3478 549.5,-526.3478 483.5,-526.3478"/>
<text text-anchor="middle" x="516.5" y="-533.3478" font-family="FreeSans" font-size="10.00" fill="#000000">pyhikmap</text>
</a>
</g>
</g>
<!-- Node23&#45;&gt;Node25 -->
<g id="edge41" class="edge">
<title>Node23&#45;&gt;Node25</title>
<path fill="none" stroke="#191970" d="M389.7157,-533.9405C413.6135,-534.3943 446.8559,-535.0255 473.3062,-535.5277"/>
<polygon fill="#191970" stroke="#191970" points="473.378,-539.0296 483.4427,-535.7202 473.511,-532.0309 473.378,-539.0296"/>
</g>
<!-- Node26 -->
<g id="node26" class="node">
<title>Node26</title>
<g id="a_node26"><a xlink:href="../../dd/dac/pyhisigh_8f.html#a17fc65c11bbc2a0a571b606acff9f09f" target="_top" xlink:title="pyhisigh">
<polygon fill="none" stroke="#ff0000" points="487,-720.3478 487,-740.3478 546,-740.3478 546,-720.3478 487,-720.3478"/>
<text text-anchor="middle" x="516.5" y="-727.3478" font-family="FreeSans" font-size="10.00" fill="#000000">pyhisigh</text>
</a>
</g>
</g>
<!-- Node23&#45;&gt;Node26 -->
<g id="edge42" class="edge">
<title>Node23&#45;&gt;Node26</title>
<path fill="none" stroke="#191970" d="M366.5525,-543.3879C391.7447,-574.7985 469.3125,-671.5128 501.8724,-712.1097"/>
<polygon fill="#191970" stroke="#191970" points="499.2873,-714.4806 508.2743,-720.0917 504.748,-710.1009 499.2873,-714.4806"/>
</g>
<!-- Node24&#45;&gt;Node7 -->
<g id="edge40" class="edge">
<title>Node24&#45;&gt;Node7</title>
<path fill="none" stroke="#191970" d="M532.5769,-487.1004C594.8064,-448.8499 824.0798,-321.142 979,-411.3478 1012.6779,-430.9576 1029.8166,-476.0134 1037.2459,-502.2963"/>
<polygon fill="#191970" stroke="#191970" points="1033.9408,-503.4919 1039.8554,-512.2821 1040.7134,-501.7221 1033.9408,-503.4919"/>
</g>
<!-- Node26&#45;&gt;Node7 -->
<g id="edge47" class="edge">
<title>Node26&#45;&gt;Node7</title>
<path fill="none" stroke="#191970" d="M523.4555,-720.2743C547.2356,-686.6629 629.1514,-577.5497 725,-525.3478 825.1298,-470.8142 868.285,-462.1065 979,-489.3478 993.1908,-492.8395 1007.7264,-500.1565 1019.2547,-507.0153"/>
<polygon fill="#191970" stroke="#191970" points="1017.4533,-510.0167 1027.7913,-512.3358 1021.1559,-504.0761 1017.4533,-510.0167"/>
</g>
<!-- Node26&#45;&gt;Node21 -->
<g id="edge46" class="edge">
<title>Node26&#45;&gt;Node21</title>
<path fill="none" stroke="#191970" d="M546.0952,-730.3478C563.5432,-730.3478 585.8677,-730.3478 604.9385,-730.3478"/>
<polygon fill="#191970" stroke="#191970" points="605.147,-733.8479 615.147,-730.3478 605.1469,-726.8479 605.147,-733.8479"/>
</g>
<!-- Node26&#45;&gt;Node22 -->
<g id="edge48" class="edge">
<title>Node26&#45;&gt;Node22</title>
<path fill="none" stroke="#191970" d="M546.1859,-721.7037C595.31,-707.3993 693.1645,-678.9053 744.4302,-663.9774"/>
<polygon fill="#191970" stroke="#191970" points="745.7086,-667.2506 754.3313,-661.0943 743.7515,-660.5297 745.7086,-667.2506"/>
</g>
<!-- Node27 -->
<g id="node27" class="node">
<title>Node27</title>
<g id="a_node27"><a xlink:href="../../dd/d07/pyhistfu_8f.html#aff2156d2f044d368c202a463aaa11732" target="_top" xlink:title="pyhistfu">
<polygon fill="none" stroke="#ff0000" points="617,-1427.3478 617,-1447.3478 674,-1447.3478 674,-1427.3478 617,-1427.3478"/>
<text text-anchor="middle" x="645.5" y="-1434.3478" font-family="FreeSans" font-size="10.00" fill="#000000">pyhistfu</text>
</a>
</g>
</g>
<!-- Node26&#45;&gt;Node27 -->
<g id="edge43" class="edge">
<title>Node26&#45;&gt;Node27</title>
<path fill="none" stroke="#191970" d="M518.5545,-740.4345C525.9807,-777.2171 551.7423,-907.6788 566,-1016.3478 577.6389,-1105.0571 550.4024,-1344.2556 602,-1417.3478 603.7077,-1419.767 605.7826,-1421.9001 608.0893,-1423.78"/>
<polygon fill="#191970" stroke="#191970" points="606.3188,-1426.8023 616.6286,-1429.2436 610.0915,-1420.9059 606.3188,-1426.8023"/>
</g>
<!-- Node28 -->
<g id="node28" class="node">
<title>Node28</title>
<g id="a_node28"><a xlink:href="../../de/de0/matchedfilter_8C.html#ad37474ba23a5f0af2c619aeeaad07526" target="_top" xlink:title="go">
<polygon fill="none" stroke="#ff0000" points="763,-1485.3478 763,-1505.3478 792,-1505.3478 792,-1485.3478 763,-1485.3478"/>
<text text-anchor="middle" x="777.5" y="-1492.3478" font-family="FreeSans" font-size="10.00" fill="#000000">go</text>
</a>
</g>
</g>
<!-- Node27&#45;&gt;Node28 -->
<g id="edge44" class="edge">
<title>Node27&#45;&gt;Node28</title>
<path fill="none" stroke="#191970" d="M665.5499,-1447.4928C681.5005,-1455.4266 704.4715,-1466.549 725,-1475.3478 734.1189,-1479.2563 744.2798,-1483.2164 753.215,-1486.57"/>
<polygon fill="#191970" stroke="#191970" points="752.0682,-1489.8775 762.6614,-1490.0635 754.4963,-1483.3121 752.0682,-1489.8775"/>
</g>
<!-- Node29 -->
<g id="node29" class="node">
<title>Node29</title>
<g id="a_node29"><a xlink:href="../../db/da1/classHiParnt.html#ac653b598baeeca89d06693fdf4688f38" target="_top" xlink:title="HiParnt::hint1">
<polygon fill="none" stroke="#ff0000" points="735,-1446.3478 735,-1466.3478 820,-1466.3478 820,-1446.3478 735,-1446.3478"/>
<text text-anchor="middle" x="777.5" y="-1453.3478" font-family="FreeSans" font-size="10.00" fill="#000000">HiParnt::hint1</text>
</a>
</g>
</g>
<!-- Node27&#45;&gt;Node29 -->
<g id="edge45" class="edge">
<title>Node27&#45;&gt;Node29</title>
<path fill="none" stroke="#191970" d="M674.142,-1441.4706C688.9741,-1443.6055 707.5593,-1446.2806 724.865,-1448.7716"/>
<polygon fill="#191970" stroke="#191970" points="724.4717,-1452.251 734.8684,-1450.2115 725.4691,-1445.3224 724.4717,-1452.251"/>
</g>
<!-- Node30&#45;&gt;Node2 -->
<g id="edge52" class="edge">
<title>Node30&#45;&gt;Node2</title>
<path fill="none" stroke="#191970" d="M389.5536,-672.5355C430.2283,-673.683 503.6986,-674.3523 566,-667.3478 683.5061,-654.1368 723.9362,-582.0726 830,-634.3478 927.5172,-682.4108 941.263,-726.3892 979,-828.3478 999.6852,-884.2356 1035.5886,-1822.1412 1041.2414,-1972.9556"/>
<polygon fill="#191970" stroke="#191970" points="1037.7498,-1973.2483 1041.6208,-1983.1106 1044.7449,-1972.9869 1037.7498,-1973.2483"/>
</g>
<!-- Node30&#45;&gt;Node10 -->
<g id="edge58" class="edge">
<title>Node30&#45;&gt;Node10</title>
<path fill="none" stroke="#191970" d="M389.7169,-674.7432C434.3194,-677.7915 516.3646,-676.4517 566,-633.3478 604.2022,-600.1727 565.8296,-560.7272 602,-525.3478 675.4404,-453.5134 746.4908,-427.5156 830,-487.3478 870.4445,-516.3254 836.9365,-552.9651 866,-593.3478 902.867,-644.5732 947.8357,-624.4662 979,-679.3478 1032.6325,-773.7971 1040.634,-1127.0113 1041.8037,-1215.9298"/>
<polygon fill="#191970" stroke="#191970" points="1038.3054,-1216.0964 1041.9215,-1226.055 1045.3049,-1216.0149 1038.3054,-1216.0964"/>
</g>
<!-- Node30&#45;&gt;Node16 -->
<g id="edge53" class="edge">
<title>Node30&#45;&gt;Node16</title>
<path fill="none" stroke="#191970" d="M369.0488,-681.4077C385.4163,-697.7247 416.5465,-731.7401 431,-767.3478 479.5163,-886.8726 444.2369,-928.376 467,-1055.3478 479.6964,-1126.1676 501.0433,-1208.9136 511.034,-1246.2566"/>
<polygon fill="#191970" stroke="#191970" points="507.7658,-1247.5803 513.7479,-1256.3247 514.5246,-1245.7584 507.7658,-1247.5803"/>
</g>
<!-- Node30&#45;&gt;Node24 -->
<g id="edge55" class="edge">
<title>Node30&#45;&gt;Node24</title>
<path fill="none" stroke="#191970" d="M364.5824,-661.0851C383.1606,-630.0147 439.564,-537.7858 467,-516.3478 470.3048,-513.7655 474.0012,-511.5005 477.8452,-509.5218"/>
<polygon fill="#191970" stroke="#191970" points="479.2894,-512.71 486.9673,-505.4093 476.4124,-506.3285 479.2894,-512.71"/>
</g>
<!-- Node30&#45;&gt;Node25 -->
<g id="edge56" class="edge">
<title>Node30&#45;&gt;Node25</title>
<path fill="none" stroke="#191970" d="M370.3757,-661.2009C397.369,-638.1369 463.5609,-581.5806 496.792,-553.1869"/>
<polygon fill="#191970" stroke="#191970" points="499.1574,-555.7695 504.4865,-546.6125 494.6101,-550.4476 499.1574,-555.7695"/>
</g>
<!-- Node30&#45;&gt;Node26 -->
<g id="edge57" class="edge">
<title>Node30&#45;&gt;Node26</title>
<path fill="none" stroke="#191970" d="M388.5938,-681.3758C401.6738,-685.8243 417.1442,-691.2071 431,-696.3478 448.1156,-702.698 466.9887,-710.1542 482.6394,-716.4635"/>
<polygon fill="#191970" stroke="#191970" points="481.3406,-719.7136 491.9231,-720.2236 483.9684,-713.2255 481.3406,-719.7136"/>
</g>
<!-- Node31 -->
<g id="node31" class="node">
<title>Node31</title>
<g id="a_node31"><a xlink:href="../../dc/d41/classConversion.html#a111fc409d2f8a01edddfe660f9eabfb2" target="_top" xlink:title="Conversion::dist">
<polygon fill="none" stroke="#ff0000" points="467,-604.3478 467,-624.3478 566,-624.3478 566,-604.3478 467,-604.3478"/>
<text text-anchor="middle" x="516.5" y="-611.3478" font-family="FreeSans" font-size="10.00" fill="#000000">Conversion::dist</text>
</a>
</g>
</g>
<!-- Node30&#45;&gt;Node31 -->
<g id="edge51" class="edge">
<title>Node30&#45;&gt;Node31</title>
<path fill="none" stroke="#191970" d="M386.3835,-661.2886C412.139,-651.9971 450.5974,-638.1228 479.0288,-627.8659"/>
<polygon fill="#191970" stroke="#191970" points="480.4111,-631.0881 488.6299,-624.4022 478.0356,-624.5035 480.4111,-631.0881"/>
</g>
<!-- Node32 -->
<g id="node32" class="node">
<title>Node32</title>
<g id="a_node32"><a xlink:href="../../db/dc0/classHiStrng.html#a9c8d7f68590dc5bf34483b740c49ba0b" target="_top" xlink:title="HiStrng::pt">
<polygon fill="none" stroke="#ff0000" points="742,-874.3478 742,-894.3478 813,-894.3478 813,-874.3478 742,-874.3478"/>
<text text-anchor="middle" x="777.5" y="-881.3478" font-family="FreeSans" font-size="10.00" fill="#000000">HiStrng::pt</text>
</a>
</g>
</g>
<!-- Node30&#45;&gt;Node32 -->
<g id="edge54" class="edge">
<title>Node30&#45;&gt;Node32</title>
<path fill="none" stroke="#191970" d="M370.6126,-681.3827C390.0723,-697.1909 429.8863,-728.2597 467,-749.3478 560.9191,-802.7129 680.0018,-849.0284 739.7235,-870.9159"/>
<polygon fill="#191970" stroke="#191970" points="738.5371,-874.2087 749.1311,-874.3412 740.932,-867.6311 738.5371,-874.2087"/>
</g>
<!-- Node33&#45;&gt;Node10 -->
<g id="edge60" class="edge">
<title>Node33&#45;&gt;Node10</title>
<path fill="none" stroke="#191970" d="M248.6456,-336.7285C324.4239,-326.1146 530.4097,-304.8089 689,-358.3478 846.1793,-411.4105 906.5721,-444.0991 979,-593.3478 1034.1753,-707.045 1041.0294,-1118.7858 1041.8797,-1215.7802"/>
<polygon fill="#191970" stroke="#191970" points="1038.3815,-1216.0339 1041.9565,-1226.0073 1045.3813,-1215.9813 1038.3815,-1216.0339"/>
</g>
<!-- Node35&#45;&gt;Node4 -->
<g id="edge64" class="edge">
<title>Node35&#45;&gt;Node4</title>
<path fill="none" stroke="#191970" d="M152.0344,-2186.8546C222.8236,-2183.1823 409.9409,-2173.2848 566,-2163.3478 627.1291,-2159.4555 698.1482,-2154.2858 740.3738,-2151.1437"/>
<polygon fill="#191970" stroke="#191970" points="740.7535,-2154.6252 750.4653,-2150.3906 740.2325,-2147.6446 740.7535,-2154.6252"/>
</g>
<!-- Node36&#45;&gt;Node7 -->
<g id="edge143" class="edge">
<title>Node36&#45;&gt;Node7</title>
<path fill="none" stroke="#191970" d="M123.0778,-1075.2942C123.7707,-1004.0748 130.3176,-575.2868 188,-461.3478 264.2475,-310.7377 608.1549,-190.3478 645.5,-190.3478 645.5,-190.3478 645.5,-190.3478 777.5,-190.3478 937.6909,-190.3478 1016.5431,-429.7134 1036.6924,-501.9512"/>
<polygon fill="#191970" stroke="#191970" points="1033.4342,-503.3097 1039.4257,-512.0477 1040.1909,-501.4805 1033.4342,-503.3097"/>
</g>
<!-- Node36&#45;&gt;Node8 -->
<g id="edge144" class="edge">
<title>Node36&#45;&gt;Node8</title>
<path fill="none" stroke="#191970" d="M123.6465,-1074.959C128.2845,-1001.5346 157.1909,-562.3053 188,-512.3478 220.1946,-460.1438 458.0472,-363.3878 467,-361.3478 663.8222,-316.5011 741.4413,-452.9434 830,-634.3478 883.4411,-743.8172 910.7536,-889.3669 919.3981,-942.1506"/>
<polygon fill="#191970" stroke="#191970" points="915.9726,-942.8956 921.0024,-952.2204 922.8854,-941.7942 915.9726,-942.8956"/>
</g>
<!-- Node36&#45;&gt;Node16 -->
<g id="edge67" class="edge">
<title>Node36&#45;&gt;Node16</title>
<path fill="none" stroke="#191970" d="M129.6399,-1095.3598C149.3892,-1124.1725 211.0754,-1207.3972 286,-1241.3478 350.4567,-1270.5551 435.0901,-1271.4371 481.7893,-1269.1235"/>
<polygon fill="#191970" stroke="#191970" points="482.2019,-1272.6056 491.9841,-1268.5365 481.7995,-1265.6172 482.2019,-1272.6056"/>
</g>
<!-- Node36&#45;&gt;Node30 -->
<g id="edge100" class="edge">
<title>Node36&#45;&gt;Node30</title>
<path fill="none" stroke="#191970" d="M123.39,-1075.1272C125.6362,-1021.591 138.606,-773.8723 188,-719.3478 220.6926,-683.2596 278.1756,-673.4511 317.2723,-671.2193"/>
<polygon fill="#191970" stroke="#191970" points="317.4417,-674.7153 327.2822,-670.7891 317.1411,-667.7218 317.4417,-674.7153"/>
</g>
<!-- Node36&#45;&gt;Node32 -->
<g id="edge112" class="edge">
<title>Node36&#45;&gt;Node32</title>
<path fill="none" stroke="#191970" d="M123.9117,-1075.1063C130.7747,-1000.7487 177.0745,-544.7173 286,-476.3478 338.7013,-443.2687 512.8319,-445.0243 566,-477.3478 603.6064,-500.2106 733.9884,-787.1085 768.8642,-864.9652"/>
<polygon fill="#191970" stroke="#191970" points="765.6912,-866.4436 772.9671,-874.145 772.0819,-863.5872 765.6912,-866.4436"/>
</g>
<!-- Node36&#45;&gt;Node33 -->
<g id="edge66" class="edge">
<title>Node36&#45;&gt;Node33</title>
<path fill="none" stroke="#191970" d="M123.4721,-1075.0624C126.9827,-1000.231 149.9418,-538.6086 188,-404.3478 192.407,-388.8011 200.5622,-372.4625 207.4022,-360.3207"/>
<polygon fill="#191970" stroke="#191970" points="210.4871,-361.9785 212.509,-351.5784 204.4428,-358.4477 210.4871,-361.9785"/>
</g>
<!-- Node37 -->
<g id="node37" class="node">
<title>Node37</title>
<g id="a_node37"><a xlink:href="../../dd/dfb/pyhirand_8f.html#a11c46259e3dc9a8f003b2d30a821340d" target="_top" xlink:title="pyhirand">
<polygon fill="none" stroke="#000000" points="188.5,-729.3478 188.5,-749.3478 249.5,-749.3478 249.5,-729.3478 188.5,-729.3478"/>
<text text-anchor="middle" x="219" y="-736.3478" font-family="FreeSans" font-size="10.00" fill="#000000">pyhirand</text>
</a>
</g>
</g>
<!-- Node36&#45;&gt;Node37 -->
<g id="edge68" class="edge">
<title>Node36&#45;&gt;Node37</title>
<path fill="none" stroke="#191970" d="M125.8731,-1074.9927C139.2328,-1026.8422 195.3901,-824.4418 213.4094,-759.4973"/>
<polygon fill="#191970" stroke="#191970" points="216.8371,-760.2343 216.1381,-749.6625 210.0919,-758.3628 216.8371,-760.2343"/>
</g>
<!-- Node40 -->
<g id="node40" class="node">
<title>Node40</title>
<g id="a_node40"><a xlink:href="../../d1/dc6/pyhiscat_8f.html#a0e10611b57db7067ea912bc6a2b5cacc" target="_top" xlink:title="pyhiscat">
<polygon fill="none" stroke="#000000" points="487,-1026.3478 487,-1046.3478 546,-1046.3478 546,-1026.3478 487,-1026.3478"/>
<text text-anchor="middle" x="516.5" y="-1033.3478" font-family="FreeSans" font-size="10.00" fill="#000000">pyhiscat</text>
</a>
</g>
</g>
<!-- Node36&#45;&gt;Node40 -->
<g id="edge79" class="edge">
<title>Node36&#45;&gt;Node40</title>
<path fill="none" stroke="#191970" d="M151.6165,-1081.7844C220.8432,-1073.1641 397.4836,-1051.1682 476.8408,-1041.2863"/>
<polygon fill="#191970" stroke="#191970" points="477.4321,-1044.7398 486.9229,-1040.0309 476.567,-1037.7935 477.4321,-1044.7398"/>
</g>
<!-- Node41 -->
<g id="node41" class="node">
<title>Node41</title>
<g id="a_node41"><a xlink:href="../../d3/d16/pyhisspa_8f.html#a5ac8143df37811155f43ea0c30e7f631" target="_top" xlink:title="pyhisspa">
<polygon fill="none" stroke="#000000" points="188.5,-1409.3478 188.5,-1429.3478 249.5,-1429.3478 249.5,-1409.3478 188.5,-1409.3478"/>
<text text-anchor="middle" x="219" y="-1416.3478" font-family="FreeSans" font-size="10.00" fill="#000000">pyhisspa</text>
</a>
</g>
</g>
<!-- Node36&#45;&gt;Node41 -->
<g id="edge85" class="edge">
<title>Node36&#45;&gt;Node41</title>
<path fill="none" stroke="#191970" d="M124.6116,-1095.3789C130.5554,-1131.3332 152.7484,-1256.8405 188,-1355.3478 193.5799,-1370.9404 201.8237,-1387.7644 208.4076,-1400.2481"/>
<polygon fill="#191970" stroke="#191970" points="205.4209,-1402.0837 213.2493,-1409.2229 211.5816,-1398.7601 205.4209,-1402.0837"/>
</g>
<!-- Node42 -->
<g id="node42" class="node">
<title>Node42</title>
<g id="a_node42"><a xlink:href="../../d8/d7b/lushow_8f.html#a0bdbe298274d1bf15e7098046b96239e" target="_top" xlink:title="lushow">
<polygon fill="none" stroke="#ff0000" points="332.5,-1370.3478 332.5,-1390.3478 384.5,-1390.3478 384.5,-1370.3478 332.5,-1370.3478"/>
<text text-anchor="middle" x="358.5" y="-1377.3478" font-family="FreeSans" font-size="10.00" fill="#000000">lushow</text>
</a>
</g>
</g>
<!-- Node36&#45;&gt;Node42 -->
<g id="edge111" class="edge">
<title>Node36&#45;&gt;Node42</title>
<path fill="none" stroke="#191970" d="M123.9059,-1095.38C127.1539,-1126.1706 140.6699,-1220.7769 188,-1279.3478 223.6309,-1323.441 284.0303,-1352.616 322.5521,-1367.8098"/>
<polygon fill="#191970" stroke="#191970" points="321.7313,-1371.2432 332.3218,-1371.5487 324.2334,-1364.7056 321.7313,-1371.2432"/>
</g>
<!-- Node44 -->
<g id="node44" class="node">
<title>Node44</title>
<g id="a_node44"><a xlink:href="../../dd/d72/pyhiremn_8f.html#a44c1e251c510d589f81ff979af90df84" target="_top" xlink:title="pyhiremn">
<polygon fill="none" stroke="#ff0000" points="613.5,-1388.3478 613.5,-1408.3478 677.5,-1408.3478 677.5,-1388.3478 613.5,-1388.3478"/>
<text text-anchor="middle" x="645.5" y="-1395.3478" font-family="FreeSans" font-size="10.00" fill="#000000">pyhiremn</text>
</a>
</g>
</g>
<!-- Node36&#45;&gt;Node44 -->
<g id="edge101" class="edge">
<title>Node36&#45;&gt;Node44</title>
<path fill="none" stroke="#191970" d="M123.9054,-1095.5807C128.6063,-1147.079 151.4266,-1377.8104 188,-1438.3478 216.6432,-1485.759 233.6509,-1497.2422 286,-1515.3478 405.0521,-1556.5236 465.6347,-1547.4769 566,-1471.3478 588.9812,-1453.9161 579.8885,-1435.8703 602,-1417.3478 603.5636,-1416.0381 605.2314,-1414.804 606.9687,-1413.6431"/>
<polygon fill="#191970" stroke="#191970" points="609.1287,-1416.44 616.0733,-1408.4386 605.6547,-1410.3628 609.1287,-1416.44"/>
</g>
<!-- Node45 -->
<g id="node45" class="node">
<title>Node45</title>
<g id="a_node45"><a xlink:href="../../da/dea/pyhiresd_8f.html#abf70f2aea927845e18c437c28c73df91" target="_top" xlink:title="pyhiresd">
<polygon fill="none" stroke="#ff0000" points="189.5,-1122.3478 189.5,-1142.3478 248.5,-1142.3478 248.5,-1122.3478 189.5,-1122.3478"/>
<text text-anchor="middle" x="219" y="-1129.3478" font-family="FreeSans" font-size="10.00" fill="#000000">pyhiresd</text>
</a>
</g>
</g>
<!-- Node36&#45;&gt;Node45 -->
<g id="edge113" class="edge">
<title>Node36&#45;&gt;Node45</title>
<path fill="none" stroke="#191970" d="M143.8306,-1095.5461C157.1301,-1102.0573 174.5788,-1110.6 189.317,-1117.8155"/>
<polygon fill="#191970" stroke="#191970" points="188.0195,-1121.0772 198.5399,-1122.3309 191.0975,-1114.7902 188.0195,-1121.0772"/>
</g>
<!-- Node46 -->
<g id="node46" class="node">
<title>Node46</title>
<g id="a_node46"><a xlink:href="../../dc/d4f/pyhidiff_8f.html#ac33b2a8c3319cb82cc762fdb1859f072" target="_top" xlink:title="pyhidiff">
<polygon fill="none" stroke="#000000" points="618,-1678.3478 618,-1698.3478 673,-1698.3478 673,-1678.3478 618,-1678.3478"/>
<text text-anchor="middle" x="645.5" y="-1685.3478" font-family="FreeSans" font-size="10.00" fill="#000000">pyhidiff</text>
</a>
</g>
</g>
<!-- Node36&#45;&gt;Node46 -->
<g id="edge119" class="edge">
<title>Node36&#45;&gt;Node46</title>
<path fill="none" stroke="#191970" d="M123.3966,-1095.5235C125.4539,-1141.6964 136.8781,-1335.6797 188,-1484.3478 217.4931,-1570.1169 209.6243,-1614.4303 286,-1663.3478 386.9751,-1728.0209 538.2605,-1709.8685 607.9257,-1696.6592"/>
<polygon fill="#191970" stroke="#191970" points="608.8566,-1700.0432 617.9913,-1694.6759 607.5033,-1693.1752 608.8566,-1700.0432"/>
</g>
<!-- Node47 -->
<g id="node47" class="node">
<title>Node47</title>
<g id="a_node47"><a xlink:href="../../da/d22/luprep_8f.html#aad1b09d3910be6e5fd985cf9a9860fc5" target="_top" xlink:title="luprep">
<polygon fill="none" stroke="#ff0000" points="334,-1755.3478 334,-1775.3478 383,-1775.3478 383,-1755.3478 334,-1755.3478"/>
<text text-anchor="middle" x="358.5" y="-1762.3478" font-family="FreeSans" font-size="10.00" fill="#000000">luprep</text>
</a>
</g>
</g>
<!-- Node36&#45;&gt;Node47 -->
<g id="edge123" class="edge">
<title>Node36&#45;&gt;Node47</title>
<path fill="none" stroke="#191970" d="M123.4384,-1095.6021C126.789,-1172.0336 149.2609,-1651.2696 188,-1701.3478 220.5871,-1743.4733 284.1095,-1757.8714 323.7476,-1762.7925"/>
<polygon fill="#191970" stroke="#191970" points="323.439,-1766.2796 333.7627,-1763.8977 324.207,-1759.3218 323.439,-1766.2796"/>
</g>
<!-- Node48 -->
<g id="node48" class="node">
<title>Node48</title>
<g id="a_node48"><a xlink:href="../../d0/d4a/luedit_8f.html#aaacc14ce32bf7ae36ea919afd5d45016" target="_top" xlink:title="luedit">
<polygon fill="none" stroke="#000000" points="336,-911.3478 336,-931.3478 381,-931.3478 381,-911.3478 336,-911.3478"/>
<text text-anchor="middle" x="358.5" y="-918.3478" font-family="FreeSans" font-size="10.00" fill="#000000">luedit</text>
</a>
</g>
</g>
<!-- Node36&#45;&gt;Node48 -->
<g id="edge129" class="edge">
<title>Node36&#45;&gt;Node48</title>
<path fill="none" stroke="#191970" d="M125.7912,-1075.2599C132.5431,-1052.7535 151.9223,-998.1589 188,-969.3478 228.1323,-937.2988 288.4688,-926.6373 325.5659,-923.0978"/>
<polygon fill="#191970" stroke="#191970" points="326.1552,-926.561 335.8306,-922.2441 325.5749,-919.585 326.1552,-926.561"/>
</g>
<!-- Node49 -->
<g id="node49" class="node">
<title>Node49</title>
<g id="a_node49"><a xlink:href="../../db/d08/luexec_8f.html#a5b4b744833efbda90c865012826ff281" target="_top" xlink:title="luexec">
<polygon fill="none" stroke="#ff0000" points="194.5,-1822.3478 194.5,-1842.3478 243.5,-1842.3478 243.5,-1822.3478 194.5,-1822.3478"/>
<text text-anchor="middle" x="219" y="-1829.3478" font-family="FreeSans" font-size="10.00" fill="#000000">luexec</text>
</a>
</g>
</g>
<!-- Node36&#45;&gt;Node49 -->
<g id="edge135" class="edge">
<title>Node36&#45;&gt;Node49</title>
<path fill="none" stroke="#191970" d="M123.5536,-1095.5075C127.6451,-1169.4268 153.9787,-1625.4739 188,-1759.3478 192.8029,-1778.2475 201.7794,-1798.5777 208.8417,-1812.9714"/>
<polygon fill="#191970" stroke="#191970" points="205.922,-1814.9538 213.5587,-1822.2976 212.1685,-1811.7944 205.922,-1814.9538"/>
</g>
<!-- Node50 -->
<g id="node50" class="node">
<title>Node50</title>
<g id="a_node50"><a xlink:href="../../d3/d4d/pyhifram_8f.html#a56631323d50f4dcc2685cfa54edeab91" target="_top" xlink:title="pyhifram">
<polygon fill="none" stroke="#000000" points="188,-979.3478 188,-999.3478 250,-999.3478 250,-979.3478 188,-979.3478"/>
<text text-anchor="middle" x="219" y="-986.3478" font-family="FreeSans" font-size="10.00" fill="#000000">pyhifram</text>
</a>
</g>
</g>
<!-- Node36&#45;&gt;Node50 -->
<g id="edge145" class="edge">
<title>Node36&#45;&gt;Node50</title>
<path fill="none" stroke="#191970" d="M133.2737,-1075.0742C149.5857,-1058.7622 181.6005,-1026.7473 201.5558,-1006.792"/>
<polygon fill="#191970" stroke="#191970" points="204.204,-1009.0936 208.8002,-999.5476 199.2542,-1004.1439 204.204,-1009.0936"/>
</g>
<!-- Node37&#45;&gt;Node9 -->
<g id="edge78" class="edge">
<title>Node37&#45;&gt;Node9</title>
<path fill="none" stroke="#191970" d="M223.2165,-749.3609C232.0649,-769.2742 254.3973,-814.1773 286,-840.3478 339.8482,-884.9401 385.9001,-847.9241 431,-901.3478 476.3416,-955.058 423.7726,-999.9219 467,-1055.3478 497.439,-1094.3766 526.6918,-1076.2706 566,-1106.3478 704.1628,-1212.065 739.8512,-1246.5584 830,-1395.3478 878.4249,-1475.2725 907.4815,-1584.537 918.0022,-1629.1422"/>
<polygon fill="#191970" stroke="#191970" points="914.6246,-1630.0718 920.2781,-1639.0321 921.4463,-1628.5019 914.6246,-1630.0718"/>
</g>
<!-- Node37&#45;&gt;Node10 -->
<g id="edge76" class="edge">
<title>Node37&#45;&gt;Node10</title>
<path fill="none" stroke="#191970" d="M225.2823,-749.5174C235.6579,-765.22 258.0359,-794.7647 286,-806.3478 570.6982,-924.2737 760.3824,-611.1706 979,-828.3478 1006.988,-856.1514 1033.4339,-1137.9196 1040.2881,-1216.244"/>
<polygon fill="#191970" stroke="#191970" points="1036.8064,-1216.6082 1041.155,-1226.2694 1043.7804,-1216.005 1036.8064,-1216.6082"/>
</g>
<!-- Node37&#45;&gt;Node17 -->
<g id="edge77" class="edge">
<title>Node37&#45;&gt;Node17</title>
<path fill="none" stroke="#191970" d="M224.1648,-729.074C233.8398,-710.8315 256.417,-672.6996 286,-651.3478 312.6682,-632.0998 544.5811,-580.306 566,-555.3478 594.1273,-522.5727 633.1221,-215.4058 643.1001,-133.3947"/>
<polygon fill="#191970" stroke="#191970" points="646.5866,-133.7165 644.3113,-123.3689 639.6371,-132.8769 646.5866,-133.7165"/>
</g>
<!-- Node37&#45;&gt;Node24 -->
<g id="edge70" class="edge">
<title>Node37&#45;&gt;Node24</title>
<path fill="none" stroke="#191970" d="M220.4773,-729.1438C226.5317,-688.8429 250.8022,-541.5757 286,-513.3478 340.3076,-469.7943 426.9121,-477.9383 477.0675,-487.703"/>
<polygon fill="#191970" stroke="#191970" points="476.3915,-491.1371 486.8922,-489.7278 477.8046,-484.2812 476.3915,-491.1371"/>
</g>
<!-- Node37&#45;&gt;Node25 -->
<g id="edge71" class="edge">
<title>Node37&#45;&gt;Node25</title>
<path fill="none" stroke="#191970" d="M220.6994,-729.246C225.6525,-703.0484 242.5733,-632.4564 286,-596.3478 300.457,-584.327 410.7142,-559.1023 473.3523,-545.5024"/>
<polygon fill="#191970" stroke="#191970" points="474.3105,-548.8762 483.346,-543.3435 472.8324,-542.0341 474.3105,-548.8762"/>
</g>
<!-- Node37&#45;&gt;Node26 -->
<g id="edge73" class="edge">
<title>Node37&#45;&gt;Node26</title>
<path fill="none" stroke="#191970" d="M249.6639,-736.6895C261.0644,-735.7987 274.115,-734.894 286,-734.3478 352.7655,-731.2798 430.5076,-730.5123 476.4964,-730.3496"/>
<polygon fill="#191970" stroke="#191970" points="476.6547,-733.8492 486.645,-730.3217 476.6354,-726.8493 476.6547,-733.8492"/>
</g>
<!-- Node37&#45;&gt;Node30 -->
<g id="edge72" class="edge">
<title>Node37&#45;&gt;Node30</title>
<path fill="none" stroke="#191970" d="M232.5492,-729.2757C245.6975,-719.8409 266.4731,-705.8123 286,-696.3478 295.8965,-691.5512 306.9546,-687.2471 317.3943,-683.6172"/>
<polygon fill="#191970" stroke="#191970" points="318.7843,-686.8429 327.156,-680.3494 316.5621,-680.2049 318.7843,-686.8429"/>
</g>
<!-- Node38 -->
<g id="node38" class="node">
<title>Node38</title>
<g id="a_node38"><a xlink:href="../../dc/dad/pyhikcut_8f.html#a557edd96928ffbe047d4fb2e2484dd80" target="_top" xlink:title="pyhikcut">
<polygon fill="none" stroke="#000000" points="328.5,-777.3478 328.5,-797.3478 388.5,-797.3478 388.5,-777.3478 328.5,-777.3478"/>
<text text-anchor="middle" x="358.5" y="-784.3478" font-family="FreeSans" font-size="10.00" fill="#000000">pyhikcut</text>
</a>
</g>
</g>
<!-- Node37&#45;&gt;Node38 -->
<g id="edge69" class="edge">
<title>Node37&#45;&gt;Node38</title>
<path fill="none" stroke="#191970" d="M248.2438,-749.4102C268.9832,-756.5464 297.0344,-766.1984 319.652,-773.9808"/>
<polygon fill="#191970" stroke="#191970" points="318.7,-777.3546 329.2947,-777.2987 320.9776,-770.7354 318.7,-777.3546"/>
</g>
<!-- Node39 -->
<g id="node39" class="node">
<title>Node39</title>
<g id="a_node39"><a xlink:href="../../de/d50/pyhispli_8f.html#ab5848e46f1f9648fd094c79cb72130de" target="_top" xlink:title="pyhispli">
<polygon fill="none" stroke="#ff0000" points="750,-1524.3478 750,-1544.3478 805,-1544.3478 805,-1524.3478 750,-1524.3478"/>
<text text-anchor="middle" x="777.5" y="-1531.3478" font-family="FreeSans" font-size="10.00" fill="#000000">pyhispli</text>
</a>
</g>
</g>
<!-- Node37&#45;&gt;Node39 -->
<g id="edge74" class="edge">
<title>Node37&#45;&gt;Node39</title>
<path fill="none" stroke="#191970" d="M249.883,-738.9822C302.5075,-739.0558 406.2788,-742.454 431,-767.3478 476.448,-813.1133 435.9818,-998.7981 467,-1055.3478 494.4763,-1105.4402 538.8242,-1087.0918 566,-1137.3478 633.8658,-1262.8515 518.9513,-1340.3312 602,-1456.3478 634.2941,-1501.4618 698.7536,-1520.8826 739.9199,-1528.9507"/>
<polygon fill="#191970" stroke="#191970" points="739.3839,-1532.4106 749.8503,-1530.766 740.6427,-1525.5247 739.3839,-1532.4106"/>
</g>
<!-- Node39&#45;&gt;Node10 -->
<g id="edge75" class="edge">
<title>Node39&#45;&gt;Node10</title>
<path fill="none" stroke="#191970" d="M805.1391,-1527.0494C813.6257,-1523.9892 822.6551,-1519.8351 830,-1514.3478 930.0803,-1439.5794 1006.2696,-1305.3392 1032.2928,-1255.586"/>
<polygon fill="#191970" stroke="#191970" points="1035.4781,-1257.0453 1036.9484,-1246.553 1029.2559,-1253.8384 1035.4781,-1257.0453"/>
</g>
<!-- Node40&#45;&gt;Node5 -->
<g id="edge80" class="edge">
<title>Node40&#45;&gt;Node5</title>
<path fill="none" stroke="#191970" d="M525.6845,-1046.5078C536.2621,-1058.5334 553.7527,-1079.4459 566,-1099.3478 585.7992,-1131.5216 582.468,-1144.0111 602,-1176.3478 648.7397,-1253.729 664.4024,-1271.263 725,-1338.3478 767.7894,-1385.718 800.1322,-1379.9317 830,-1436.3478 878.8224,-1528.5665 846.3988,-1565.8603 866,-1668.3478 882.2955,-1753.5514 906.8518,-1854.025 917.3952,-1896.1612"/>
<polygon fill="#191970" stroke="#191970" points="914.0378,-1897.1622 919.8701,-1906.0073 920.8266,-1895.4557 914.0378,-1897.1622"/>
</g>
<!-- Node40&#45;&gt;Node8 -->
<g id="edge83" class="edge">
<title>Node40&#45;&gt;Node8</title>
<path fill="none" stroke="#191970" d="M541.0392,-1046.4276C576.38,-1059.2221 642.4653,-1076.5635 689,-1049.3478 717.1714,-1032.8719 697.8304,-1003.4282 725,-985.3478 774.542,-952.3794 846.9208,-953.3831 888.9141,-957.5554"/>
<polygon fill="#191970" stroke="#191970" points="888.5778,-961.0395 898.9032,-958.6657 889.3511,-954.0823 888.5778,-961.0395"/>
</g>
<!-- Node40&#45;&gt;Node9 -->
<g id="edge84" class="edge">
<title>Node40&#45;&gt;Node9</title>
<path fill="none" stroke="#191970" d="M527.8625,-1046.3505C572.4331,-1086.1343 737.4161,-1238.6087 830,-1395.3478 877.5276,-1475.8093 907.0828,-1584.7755 917.8694,-1629.2216"/>
<polygon fill="#191970" stroke="#191970" points="914.493,-1630.1527 920.2068,-1639.0748 921.304,-1628.5369 914.493,-1630.1527"/>
</g>
<!-- Node40&#45;&gt;Node10 -->
<g id="edge82" class="edge">
<title>Node40&#45;&gt;Node10</title>
<path fill="none" stroke="#191970" d="M546.1389,-1027.3039C581.0275,-1016.2545 640.3745,-996.1876 689,-973.3478 705.7659,-965.4728 707.301,-957.8119 725,-952.3478 832.9491,-919.0216 891.1421,-871.3221 979,-942.3478 1021.9037,-977.0318 1036.9082,-1154.8785 1040.8355,-1215.8251"/>
<polygon fill="#191970" stroke="#191970" points="1037.3588,-1216.3144 1041.4613,-1226.0827 1044.3458,-1215.8881 1037.3588,-1216.3144"/>
</g>
<!-- Node40&#45;&gt;Node21 -->
<g id="edge81" class="edge">
<title>Node40&#45;&gt;Node21</title>
<path fill="none" stroke="#191970" d="M526.5149,-1026.0129C537.5305,-1014.1542 555.1112,-993.7094 566,-973.3478 607.3126,-896.0952 632.1772,-793.5279 641.4003,-750.5949"/>
<polygon fill="#191970" stroke="#191970" points="644.8747,-751.0795 643.4987,-740.5744 638.0233,-749.6447 644.8747,-751.0795"/>
</g>
<!-- Node41&#45;&gt;Node8 -->
<g id="edge97" class="edge">
<title>Node41&#45;&gt;Node8</title>
<path fill="none" stroke="#191970" d="M249.504,-1425.2337C314.0318,-1435.9274 466.5803,-1451.7397 566,-1385.3478 661.4261,-1321.6228 635.4238,-1259.82 689,-1158.3478 705.3343,-1127.411 701.6124,-1114.3655 725,-1088.3478 762.3307,-1046.819 788.0838,-1056.243 830,-1019.3478 848.4547,-1003.1038 845.1808,-990.4247 866,-977.3478 872.9492,-972.983 881.1452,-969.879 889.1072,-967.6748"/>
<polygon fill="#191970" stroke="#191970" points="890.0344,-971.052 898.9556,-965.3369 888.4176,-964.2413 890.0344,-971.052"/>
</g>
<!-- Node41&#45;&gt;Node9 -->
<g id="edge98" class="edge">
<title>Node41&#45;&gt;Node9</title>
<path fill="none" stroke="#191970" d="M224.2226,-1429.6134C238.3544,-1457.2655 276.8929,-1531.8055 286,-1540.3478 368.6519,-1617.8745 403.1786,-1649.3478 516.5,-1649.3478 516.5,-1649.3478 516.5,-1649.3478 645.5,-1649.3478 731.6572,-1649.3478 832.8883,-1649.3478 885.898,-1649.3478"/>
<polygon fill="#191970" stroke="#191970" points="886.1468,-1652.8479 896.1468,-1649.3478 886.1468,-1645.8479 886.1468,-1652.8479"/>
</g>
<!-- Node41&#45;&gt;Node10 -->
<g id="edge95" class="edge">
<title>Node41&#45;&gt;Node10</title>
<path fill="none" stroke="#191970" d="M244.8523,-1429.4288C257.1945,-1434.0296 272.241,-1439.3336 286,-1443.3478 349.4472,-1461.8586 366.8014,-1460.6399 431,-1476.3478 606.4304,-1519.2717 660.0398,-1614.4364 830,-1553.3478 910.8096,-1524.3025 930.7017,-1501.3486 979,-1430.3478 1017.086,-1374.3596 1033.4252,-1293.7732 1039.2556,-1256.5734"/>
<polygon fill="#191970" stroke="#191970" points="1042.7452,-1256.9002 1040.7401,-1246.4968 1035.8199,-1255.8799 1042.7452,-1256.9002"/>
</g>
<!-- Node41&#45;&gt;Node16 -->
<g id="edge86" class="edge">
<title>Node41&#45;&gt;Node16</title>
<path fill="none" stroke="#191970" d="M223.4576,-1409.2874C232.4282,-1390.2368 254.5268,-1348.8813 286,-1327.3478 317.921,-1305.508 426.0592,-1283.0493 482.1353,-1272.5124"/>
<polygon fill="#191970" stroke="#191970" points="482.7768,-1275.9532 491.9699,-1270.6865 481.499,-1269.0708 482.7768,-1275.9532"/>
</g>
<!-- Node41&#45;&gt;Node22 -->
<g id="edge96" class="edge">
<title>Node41&#45;&gt;Node22</title>
<path fill="none" stroke="#191970" d="M227.9019,-1408.9858C239.819,-1395.7634 262.2284,-1373.0839 286,-1360.3478 314.3899,-1345.1374 544.783,-1309.5797 566,-1285.3478 606.891,-1238.6465 583.9679,-1067.7442 602,-1008.3478 643.2787,-872.3785 732.6656,-724.6679 765.2766,-673.2459"/>
<polygon fill="#191970" stroke="#191970" points="768.4095,-674.8432 770.8463,-664.5324 762.5115,-671.0732 768.4095,-674.8432"/>
</g>
<!-- Node41&#45;&gt;Node27 -->
<g id="edge94" class="edge">
<title>Node41&#45;&gt;Node27</title>
<path fill="none" stroke="#191970" d="M222.4954,-1429.6605C230.1693,-1450.4394 250.6794,-1496.9265 286,-1515.3478 401.8334,-1575.7602 562.0871,-1489.8262 621.8158,-1452.8497"/>
<polygon fill="#191970" stroke="#191970" points="623.9232,-1455.6587 630.5166,-1447.3655 620.1905,-1449.7369 623.9232,-1455.6587"/>
</g>
<!-- Node41&#45;&gt;Node42 -->
<g id="edge87" class="edge">
<title>Node41&#45;&gt;Node42</title>
<path fill="none" stroke="#191970" d="M249.6139,-1410.7891C271.0357,-1404.8002 299.7393,-1396.7756 322.2977,-1390.4689"/>
<polygon fill="#191970" stroke="#191970" points="323.4934,-1393.7689 332.1817,-1387.7056 321.6086,-1387.0274 323.4934,-1393.7689"/>
</g>
<!-- Node43 -->
<g id="node43" class="node">
<title>Node43</title>
<g id="a_node43"><a xlink:href="../../de/d50/classFun4AllFileOutStream.html#ad23d8e6e6b621202575374a2155ce229" target="_top" xlink:title="Fun4AllFileOutStream::xb">
<polygon fill="none" stroke="#000000" points="286,-1486.3478 286,-1506.3478 431,-1506.3478 431,-1486.3478 286,-1486.3478"/>
<text text-anchor="middle" x="358.5" y="-1493.3478" font-family="FreeSans" font-size="10.00" fill="#000000">Fun4AllFileOutStream::xb</text>
</a>
</g>
</g>
<!-- Node41&#45;&gt;Node43 -->
<g id="edge99" class="edge">
<title>Node41&#45;&gt;Node43</title>
<path fill="none" stroke="#191970" d="M229.5959,-1429.3835C242.1887,-1440.8592 264.2446,-1459.5746 286,-1471.3478 294.1692,-1475.7687 303.2702,-1479.6367 312.1886,-1482.9249"/>
<polygon fill="#191970" stroke="#191970" points="311.1466,-1486.2682 321.7414,-1486.264 313.4564,-1479.6603 311.1466,-1486.2682"/>
</g>
<!-- Node42&#45;&gt;Node8 -->
<g id="edge92" class="edge">
<title>Node42&#45;&gt;Node8</title>
<path fill="none" stroke="#191970" d="M384.5243,-1385.3493C427.894,-1392.0649 515.1947,-1398.4451 566,-1353.3478 614.692,-1310.1263 575.8192,-1270.9597 602,-1211.3478 607.0189,-1199.9202 715.0896,-1030.935 725,-1023.3478 777.3399,-983.2777 802.7869,-996.0345 866,-977.3478 873.4438,-975.1473 881.483,-972.9228 889.0973,-970.885"/>
<polygon fill="#191970" stroke="#191970" points="890.0003,-974.2666 898.7766,-968.3314 888.2146,-967.4982 890.0003,-974.2666"/>
</g>
<!-- Node42&#45;&gt;Node9 -->
<g id="edge93" class="edge">
<title>Node42&#45;&gt;Node9</title>
<path fill="none" stroke="#191970" d="M378.8631,-1390.382C400.6418,-1401.0933 436.2096,-1418.5277 467,-1433.3478 626.6247,-1510.1787 818.5893,-1600.5486 891.9619,-1635.0159"/>
<polygon fill="#191970" stroke="#191970" points="890.5746,-1638.2311 901.1139,-1639.3141 893.5503,-1631.895 890.5746,-1638.2311"/>
</g>
<!-- Node42&#45;&gt;Node10 -->
<g id="edge91" class="edge">
<title>Node42&#45;&gt;Node10</title>
<path fill="none" stroke="#191970" d="M384.7046,-1385.9496C424.7153,-1393.4065 503.0247,-1403.6585 566,-1385.3478 646.3894,-1361.9739 648.2625,-1317.8163 725,-1284.3478 784.3859,-1258.4471 802.0342,-1257.6392 866,-1247.3478 919.4583,-1238.747 983.0544,-1236.7799 1017.266,-1236.3857"/>
<polygon fill="#191970" stroke="#191970" points="1017.319,-1239.8855 1027.291,-1236.3066 1017.2637,-1232.8857 1017.319,-1239.8855"/>
</g>
<!-- Node42&#45;&gt;Node11 -->
<g id="edge89" class="edge">
<title>Node42&#45;&gt;Node11</title>
<path fill="none" stroke="#191970" d="M366.7946,-1390.3923C380.7717,-1407.5168 409.5862,-1443.6857 431,-1476.3478 515.7825,-1605.6654 501.1013,-1662.1704 602,-1779.3478 648.0734,-1832.8546 717.7562,-1879.7583 753.894,-1902.2373"/>
<polygon fill="#191970" stroke="#191970" points="752.384,-1905.4172 762.7375,-1907.6658 756.046,-1899.4515 752.384,-1905.4172"/>
</g>
<!-- Node42&#45;&gt;Node16 -->
<g id="edge88" class="edge">
<title>Node42&#45;&gt;Node16</title>
<path fill="none" stroke="#191970" d="M372.5214,-1370.2311C399.9758,-1350.4223 461.0233,-1306.3754 494.1228,-1282.4934"/>
<polygon fill="#191970" stroke="#191970" points="496.2213,-1285.2953 502.2829,-1276.6058 492.1254,-1279.6186 496.2213,-1285.2953"/>
</g>
<!-- Node42&#45;&gt;Node32 -->
<g id="edge90" class="edge">
<title>Node42&#45;&gt;Node32</title>
<path fill="none" stroke="#191970" d="M384.6867,-1375.9779C434.6407,-1367.1261 540.8206,-1345.6647 566,-1319.3478 612.2026,-1271.0582 576.3595,-1235.066 602,-1173.3478 647.5092,-1063.8044 730.5257,-947.1248 763.4786,-902.8318"/>
<polygon fill="#191970" stroke="#191970" points="766.351,-904.8351 769.5478,-894.734 760.7497,-900.6369 766.351,-904.8351"/>
</g>
<!-- Node44&#45;&gt;Node2 -->
<g id="edge104" class="edge">
<title>Node44&#45;&gt;Node2</title>
<path fill="none" stroke="#191970" d="M677.8109,-1388.6892C716.5615,-1379.0675 782.2561,-1369.1476 830,-1395.3478 938.0883,-1454.663 934.5079,-1514.3616 979,-1629.3478 1027.1754,-1753.8532 1038.6594,-1916.5473 1041.2692,-1973.0071"/>
<polygon fill="#191970" stroke="#191970" points="1037.777,-1973.2711 1041.6913,-1983.1164 1044.7709,-1972.979 1037.777,-1973.2711"/>
</g>
<!-- Node44&#45;&gt;Node7 -->
<g id="edge108" class="edge">
<title>Node44&#45;&gt;Node7</title>
<path fill="none" stroke="#191970" d="M651.6395,-1388.0692C664.1819,-1367.4325 694.1731,-1319.8942 725,-1284.3478 766.8228,-1236.1221 787.7078,-1234.1625 830,-1186.3478 904.6236,-1101.98 936.9648,-1085.845 979,-981.3478 1011.9066,-899.5438 1034.6574,-621.1972 1040.5119,-542.9569"/>
<polygon fill="#191970" stroke="#191970" points="1044.0348,-542.7733 1041.279,-532.5432 1037.0538,-542.259 1044.0348,-542.7733"/>
</g>
<!-- Node44&#45;&gt;Node8 -->
<g id="edge109" class="edge">
<title>Node44&#45;&gt;Node8</title>
<path fill="none" stroke="#191970" d="M650.5464,-1388.1643C662.6281,-1363.9825 694.4848,-1301.3853 725,-1251.3478 789.2357,-1146.0169 875.7954,-1025.998 908.8754,-980.8278"/>
<polygon fill="#191970" stroke="#191970" points="911.8288,-982.7191 914.9261,-972.5871 906.1864,-978.5762 911.8288,-982.7191"/>
</g>
<!-- Node44&#45;&gt;Node9 -->
<g id="edge110" class="edge">
<title>Node44&#45;&gt;Node9</title>
<path fill="none" stroke="#191970" d="M677.6048,-1396.4877C717.6622,-1395.8935 786.2092,-1400.7828 830,-1436.3478 891.7644,-1486.5102 913.2729,-1585.9268 919.8856,-1628.8378"/>
<polygon fill="#191970" stroke="#191970" points="916.4453,-1629.5054 921.3196,-1638.9124 923.3754,-1628.519 916.4453,-1629.5054"/>
</g>
<!-- Node44&#45;&gt;Node10 -->
<g id="edge107" class="edge">
<title>Node44&#45;&gt;Node10</title>
<path fill="none" stroke="#191970" d="M666.9406,-1388.1675C674.3408,-1384.1159 682.4181,-1379.0532 689,-1373.3478 708.6169,-1356.3433 703.4735,-1341.8594 725,-1327.3478 774.2458,-1294.1499 951.845,-1254.9987 1017.435,-1241.343"/>
<polygon fill="#191970" stroke="#191970" points="1018.2207,-1244.7547 1027.3064,-1239.3049 1016.8052,-1237.8993 1018.2207,-1244.7547"/>
</g>
<!-- Node44&#45;&gt;Node28 -->
<g id="edge102" class="edge">
<title>Node44&#45;&gt;Node28</title>
<path fill="none" stroke="#191970" d="M675.4741,-1408.5536C680.2999,-1410.9821 685.0124,-1413.8957 689,-1417.3478 711.938,-1437.2059 701.5937,-1456.0439 725,-1475.3478 733.0678,-1482.0016 743.5868,-1486.5901 753.0886,-1489.6762"/>
<polygon fill="#191970" stroke="#191970" points="752.2588,-1493.0791 762.8357,-1492.4618 754.1824,-1486.3486 752.2588,-1493.0791"/>
</g>
<!-- Node44&#45;&gt;Node29 -->
<g id="edge103" class="edge">
<title>Node44&#45;&gt;Node29</title>
<path fill="none" stroke="#191970" d="M668.5332,-1408.3916C675.1434,-1411.2786 682.3589,-1414.4342 689,-1417.3478 707.6369,-1425.5244 728.4657,-1434.7012 745.2326,-1442.0981"/>
<polygon fill="#191970" stroke="#191970" points="744.0262,-1445.3913 754.588,-1446.2265 746.8523,-1438.9871 744.0262,-1445.3913"/>
</g>
<!-- Node44&#45;&gt;Node32 -->
<g id="edge105" class="edge">
<title>Node44&#45;&gt;Node32</title>
<path fill="none" stroke="#191970" d="M648.1368,-1388.0805C664.3235,-1325.0502 750.273,-990.3681 772.3353,-904.4588"/>
<polygon fill="#191970" stroke="#191970" points="775.7595,-905.196 774.857,-894.6396 768.9795,-903.4547 775.7595,-905.196"/>
</g>
<!-- Node44&#45;&gt;Node39 -->
<g id="edge106" class="edge">
<title>Node44&#45;&gt;Node39</title>
<path fill="none" stroke="#191970" d="M676.9789,-1408.3864C681.4098,-1410.8014 685.6037,-1413.7542 689,-1417.3478 720.5856,-1450.7681 692.6242,-1481.6924 725,-1514.3478 729.3112,-1518.6963 734.6654,-1522.1148 740.2916,-1524.7979"/>
<polygon fill="#191970" stroke="#191970" points="739.2971,-1528.1703 749.881,-1528.6535 741.9085,-1521.6756 739.2971,-1528.1703"/>
</g>
<!-- Node45&#45;&gt;Node5 -->
<g id="edge114" class="edge">
<title>Node45&#45;&gt;Node5</title>
<path fill="none" stroke="#191970" d="M228.5216,-1142.4795C246.9077,-1162.0382 285.5428,-1203.1078 286,-1203.3478 397.4786,-1261.8643 480.5941,-1153.8411 566,-1246.3478 640.815,-1327.3831 538.2954,-1651.316 602,-1741.3478 626.3716,-1775.7915 651.4041,-1760.1934 689,-1779.3478 767.452,-1819.3177 856.1219,-1874.1513 898.0459,-1900.692"/>
<polygon fill="#191970" stroke="#191970" points="896.4137,-1903.8016 906.7312,-1906.2097 900.1673,-1897.8931 896.4137,-1903.8016"/>
</g>
<!-- Node45&#45;&gt;Node7 -->
<g id="edge118" class="edge">
<title>Node45&#45;&gt;Node7</title>
<path fill="none" stroke="#191970" d="M245.3805,-1122.3286C286.4212,-1106.2675 367.4445,-1072.6453 431,-1034.3478 693.3689,-876.249 769.1235,-839.4724 979,-616.3478 1000.9781,-592.9824 1020.5493,-561.1825 1031.8429,-541.2127"/>
<polygon fill="#191970" stroke="#191970" points="1034.9136,-542.8923 1036.6964,-532.4485 1028.7899,-539.501 1034.9136,-542.8923"/>
</g>
<!-- Node45&#45;&gt;Node10 -->
<g id="edge117" class="edge">
<title>Node45&#45;&gt;Node10</title>
<path fill="none" stroke="#191970" d="M248.7772,-1136.1107C379.0026,-1152.5669 897.2641,-1218.058 1017.1543,-1233.2082"/>
<polygon fill="#191970" stroke="#191970" points="1016.8341,-1236.6954 1027.194,-1234.4768 1017.7117,-1229.7507 1016.8341,-1236.6954"/>
</g>
<!-- Node45&#45;&gt;Node21 -->
<g id="edge116" class="edge">
<title>Node45&#45;&gt;Node21</title>
<path fill="none" stroke="#191970" d="M226.8593,-1122.2648C238.6172,-1107.6195 261.9848,-1080.161 286,-1061.3478 344.2815,-1015.691 373.7679,-1026.3135 431,-979.3478 520.3569,-906.02 602.6187,-792.8116 633.0543,-748.7652"/>
<polygon fill="#191970" stroke="#191970" points="635.9827,-750.6834 638.7462,-740.4552 630.2076,-746.7276 635.9827,-750.6834"/>
</g>
<!-- Node45&#45;&gt;Node42 -->
<g id="edge115" class="edge">
<title>Node45&#45;&gt;Node42</title>
<path fill="none" stroke="#191970" d="M224.6413,-1142.3769C245.7155,-1179.8421 320.0374,-1311.9699 347.8711,-1361.452"/>
<polygon fill="#191970" stroke="#191970" points="344.8353,-1363.1942 352.7885,-1370.194 350.9363,-1359.7623 344.8353,-1363.1942"/>
</g>
<!-- Node46&#45;&gt;Node9 -->
<g id="edge122" class="edge">
<title>Node46&#45;&gt;Node9</title>
<path fill="none" stroke="#191970" d="M673.0258,-1684.7537C709.0994,-1680.0124 774.3259,-1671.3325 830,-1663.3478 848.5066,-1660.6937 869.0722,-1657.5958 886.1034,-1654.9899"/>
<polygon fill="#191970" stroke="#191970" points="886.8481,-1658.4167 896.201,-1653.4393 885.7856,-1651.4978 886.8481,-1658.4167"/>
</g>
<!-- Node46&#45;&gt;Node10 -->
<g id="edge121" class="edge">
<title>Node46&#45;&gt;Node10</title>
<path fill="none" stroke="#191970" d="M673.4369,-1697.1727C737.3202,-1715.4238 895.0159,-1749.2127 979,-1668.3478 1009.1793,-1639.2894 1034.2222,-1338.1819 1040.4893,-1256.6245"/>
<polygon fill="#191970" stroke="#191970" points="1043.9814,-1256.8607 1041.2476,-1246.6247 1037.0014,-1256.3314 1043.9814,-1256.8607"/>
</g>
<!-- Node46&#45;&gt;Node39 -->
<g id="edge120" class="edge">
<title>Node46&#45;&gt;Node39</title>
<path fill="none" stroke="#191970" d="M654.1609,-1678.2435C676.0638,-1652.69 733.9067,-1585.2067 761.8935,-1552.5554"/>
<polygon fill="#191970" stroke="#191970" points="764.7836,-1554.5617 768.6341,-1544.6913 759.4688,-1550.0061 764.7836,-1554.5617"/>
</g>
<!-- Node47&#45;&gt;Node2 -->
<g id="edge125" class="edge">
<title>Node47&#45;&gt;Node2</title>
<path fill="none" stroke="#191970" d="M363.6246,-1775.6018C391.1972,-1829.451 528.0159,-2080.3754 725,-2167.3478 829.809,-2213.6231 891.6187,-2197.4479 979,-2123.3478 1013.2799,-2094.2782 1030.4388,-2042.2007 1037.6483,-2013.5743"/>
<polygon fill="#191970" stroke="#191970" points="1041.1299,-2014.0582 1040.0102,-2003.5227 1034.3155,-2012.4569 1041.1299,-2014.0582"/>
</g>
<!-- Node47&#45;&gt;Node9 -->
<g id="edge128" class="edge">
<title>Node47&#45;&gt;Node9</title>
<path fill="none" stroke="#191970" d="M383.1526,-1762.8003C453.7389,-1755.1472 662.3129,-1730.0227 830,-1684.3478 850.3575,-1678.8028 872.4844,-1670.5168 889.9913,-1663.3988"/>
<polygon fill="#191970" stroke="#191970" points="891.8163,-1666.4314 899.717,-1659.3723 889.1387,-1659.9637 891.8163,-1666.4314"/>
</g>
<!-- Node47&#45;&gt;Node10 -->
<g id="edge127" class="edge">
<title>Node47&#45;&gt;Node10</title>
<path fill="none" stroke="#191970" d="M383.1108,-1772.5351C476.3408,-1798.096 811.0062,-1874.4474 979,-1707.3478 1011.5371,-1674.9839 1035.1078,-1343.0529 1040.7181,-1256.7595"/>
<polygon fill="#191970" stroke="#191970" points="1044.2178,-1256.8745 1041.3643,-1246.6711 1037.2321,-1256.4269 1044.2178,-1256.8745"/>
</g>
<!-- Node47&#45;&gt;Node16 -->
<g id="edge126" class="edge">
<title>Node47&#45;&gt;Node16</title>
<path fill="none" stroke="#191970" d="M362.083,-1755.0429C372.8356,-1724.0408 405.6488,-1628.8678 431,-1549.3478 462.3908,-1450.8832 497.2964,-1332.2317 510.7673,-1286.0659"/>
<polygon fill="#191970" stroke="#191970" points="514.1441,-1286.988 513.581,-1276.4081 507.4235,-1285.03 514.1441,-1286.988"/>
</g>
<!-- Node47&#45;&gt;Node28 -->
<g id="edge124" class="edge">
<title>Node47&#45;&gt;Node28</title>
<path fill="none" stroke="#191970" d="M370.7474,-1755.2181C415.5545,-1718.5513 575.7468,-1590.8906 725,-1514.3478 733.8986,-1509.7843 744.1518,-1505.8131 753.2224,-1502.698"/>
<polygon fill="#191970" stroke="#191970" points="754.4081,-1505.9927 762.8257,-1499.5588 752.2331,-1499.3392 754.4081,-1505.9927"/>
</g>
<!-- Node48&#45;&gt;Node2 -->
<g id="edge131" class="edge">
<title>Node48&#45;&gt;Node2</title>
<path fill="none" stroke="#191970" d="M376.3128,-911.3408C397.3196,-900.0103 433.6134,-881.8895 467,-872.3478 687.8309,-809.2358 861.1619,-745.2093 979,-942.3478 1006.4519,-988.2737 1036.3948,-1829.5565 1041.3025,-1972.7204"/>
<polygon fill="#191970" stroke="#191970" points="1037.8178,-1973.2311 1041.6564,-1983.106 1044.8137,-1972.9926 1037.8178,-1973.2311"/>
</g>
<!-- Node48&#45;&gt;Node5 -->
<g id="edge130" class="edge">
<title>Node48&#45;&gt;Node5</title>
<path fill="none" stroke="#191970" d="M381.2412,-921.34C397.3376,-922.5921 418.2497,-926.9754 431,-940.3478 484.2949,-996.2432 430.8481,-1042.1006 467,-1110.3478 496.722,-1166.4567 540.1573,-1155.3499 566,-1213.3478 610.7985,-1313.8876 535.1215,-1619.9269 602,-1707.3478 634.6255,-1749.9945 787.0306,-1755.1486 830,-1787.3478 869.6758,-1817.0789 899.2695,-1868.7317 913.357,-1896.8115"/>
<polygon fill="#191970" stroke="#191970" points="910.3099,-1898.5484 917.8355,-1906.0059 916.603,-1895.483 910.3099,-1898.5484"/>
</g>
<!-- Node48&#45;&gt;Node7 -->
<g id="edge133" class="edge">
<title>Node48&#45;&gt;Node7</title>
<path fill="none" stroke="#191970" d="M370.8641,-911.087C391.0023,-894.3757 432.1415,-860.2416 467,-831.3478 510.9869,-794.8876 524.5313,-788.6486 566,-749.3478 583.1215,-733.1214 583.7983,-725.3526 602,-710.3478 706.47,-624.2265 738.7272,-604.5269 866,-558.3478 916.0834,-540.1758 977.6961,-530.2258 1013.1497,-525.6165"/>
<polygon fill="#191970" stroke="#191970" points="1013.781,-529.0649 1023.2709,-524.3543 1012.9147,-522.1187 1013.781,-529.0649"/>
</g>
<!-- Node48&#45;&gt;Node8 -->
<g id="edge134" class="edge">
<title>Node48&#45;&gt;Node8</title>
<path fill="none" stroke="#191970" d="M381.1273,-915.6005C463.5871,-895.1166 747.4718,-828.7597 830,-864.3478 867.1975,-880.3883 896.3918,-919.5604 911.393,-943.2366"/>
<polygon fill="#191970" stroke="#191970" points="908.5698,-945.3293 916.769,-952.0393 914.5438,-941.6807 908.5698,-945.3293"/>
</g>
<!-- Node48&#45;&gt;Node16 -->
<g id="edge132" class="edge">
<title>Node48&#45;&gt;Node16</title>
<path fill="none" stroke="#191970" d="M381.101,-921.1288C397.3435,-922.251 418.5007,-926.5643 431,-940.3478 499.0298,-1015.3675 436.3787,-1068.8163 467,-1165.3478 476.5394,-1195.42 493.7535,-1227.7623 505.1558,-1247.5319"/>
<polygon fill="#191970" stroke="#191970" points="502.1433,-1249.3137 510.2274,-1256.162 508.1783,-1245.7671 502.1433,-1249.3137"/>
</g>
<!-- Node49&#45;&gt;Node2 -->
<g id="edge137" class="edge">
<title>Node49&#45;&gt;Node2</title>
<path fill="none" stroke="#191970" d="M222.2634,-1842.6304C230.0142,-1865.679 251.5035,-1922.2053 286,-1957.3478 441.3244,-2115.5811 508.956,-2144.4635 725,-2194.3478 835.4847,-2219.8586 891.8564,-2242.899 979,-2170.3478 1003.7368,-2149.7533 1027.7769,-2055.711 1037.4918,-2013.7107"/>
<polygon fill="#191970" stroke="#191970" points="1040.9438,-2014.314 1039.7434,-2003.7874 1034.1173,-2012.7651 1040.9438,-2014.314"/>
</g>
<!-- Node49&#45;&gt;Node3 -->
<g id="edge139" class="edge">
<title>Node49&#45;&gt;Node3</title>
<path fill="none" stroke="#191970" d="M231.5475,-1842.6116C244.4473,-1852.657 265.4922,-1867.6767 286,-1876.3478 346.0606,-1901.7427 538.6304,-1937.4559 614.4278,-1950.9241"/>
<polygon fill="#191970" stroke="#191970" points="614.2774,-1954.4517 624.734,-1952.7459 615.496,-1947.5586 614.2774,-1954.4517"/>
</g>
<!-- Node49&#45;&gt;Node5 -->
<g id="edge136" class="edge">
<title>Node49&#45;&gt;Node5</title>
<path fill="none" stroke="#191970" d="M224.7977,-1842.3781C234.9626,-1859.0217 257.641,-1892.2067 286,-1909.3478 457.6006,-2013.0689 525.8432,-1990.0795 725,-2013.3478 771.3514,-2018.7633 790.691,-2038.499 830,-2013.3478 862.1611,-1992.7701 837.5842,-1960.8492 866,-1935.3478 872.1195,-1929.856 879.8829,-1925.9429 887.6802,-1923.1576"/>
<polygon fill="#191970" stroke="#191970" points="888.897,-1926.4462 897.4539,-1920.1987 886.8687,-1919.7464 888.897,-1926.4462"/>
</g>
<!-- Node49&#45;&gt;Node11 -->
<g id="edge142" class="edge">
<title>Node49&#45;&gt;Node11</title>
<path fill="none" stroke="#191970" d="M243.7187,-1836.0656C336.1215,-1849.9632 660.6477,-1898.7729 752.8819,-1912.6452"/>
<polygon fill="#191970" stroke="#191970" points="752.5378,-1916.1327 762.9472,-1914.1591 753.579,-1909.2106 752.5378,-1916.1327"/>
</g>
<!-- Node49&#45;&gt;Node16 -->
<g id="edge138" class="edge">
<title>Node49&#45;&gt;Node16</title>
<path fill="none" stroke="#191970" d="M226.3405,-1822.1549C259.8408,-1775.5229 397.9994,-1581.9373 431,-1515.3478 471.1417,-1434.349 500.2918,-1329.8809 511.4739,-1286.5557"/>
<polygon fill="#191970" stroke="#191970" points="514.9109,-1287.2411 513.981,-1276.6872 508.1264,-1285.5175 514.9109,-1287.2411"/>
</g>
<!-- Node49&#45;&gt;Node42 -->
<g id="edge141" class="edge">
<title>Node49&#45;&gt;Node42</title>
<path fill="none" stroke="#191970" d="M219.2339,-1822.229C220.5741,-1778.7651 229.3984,-1604.3209 286,-1476.3478 299.48,-1445.8703 324.3217,-1416.0903 341.125,-1397.9786"/>
<polygon fill="#191970" stroke="#191970" points="343.8621,-1400.179 348.21,-1390.5175 338.786,-1395.3589 343.8621,-1400.179"/>
</g>
<!-- Node49&#45;&gt;Node47 -->
<g id="edge140" class="edge">
<title>Node49&#45;&gt;Node47</title>
<path fill="none" stroke="#191970" d="M239.8846,-1822.3173C263.3067,-1811.0679 301.5026,-1792.7229 328.204,-1779.8986"/>
<polygon fill="#191970" stroke="#191970" points="329.9738,-1782.9314 337.4727,-1775.447 326.9431,-1776.6215 329.9738,-1782.9314"/>
</g>
<!-- Node50&#45;&gt;Node15 -->
<g id="edge146" class="edge">
<title>Node50&#45;&gt;Node15</title>
<path fill="none" stroke="#191970" d="M250.3065,-982.8397C272.3196,-978.2635 301.762,-972.1428 324.3752,-967.4419"/>
<polygon fill="#191970" stroke="#191970" points="325.155,-970.8547 334.2333,-965.3925 323.7303,-964.0012 325.155,-970.8547"/>
</g>
</g>
</svg>
