<?xml version="1.0" encoding="UTF-8" standalone="no"?>
<!DOCTYPE svg PUBLIC "-//W3C//DTD SVG 1.1//EN"
 "http://www.w3.org/Graphics/SVG/1.1/DTD/svg11.dtd">
<!-- Generated by graphviz version 2.40.1 (20161225.0304)
 -->
<!-- Title: Prototype4DSTReader::build_tree Pages: 1 -->
<svg width="290pt" height="68pt"
 viewBox="0.00 0.00 290.00 68.00" xmlns="http://www.w3.org/2000/svg" xmlns:xlink="http://www.w3.org/1999/xlink">
<g id="graph0" class="graph" transform="scale(1 1) rotate(0) translate(4 64)">
<title>Prototype4DSTReader::build_tree</title>
<!-- Node1 -->
<g id="node1" class="node">
<title>Node1</title>
<polygon fill="#bfbfbf" stroke="#000000" points="0,-13.5 0,-45.5 128,-45.5 128,-13.5 0,-13.5"/>
<text text-anchor="start" x="8" y="-32.5" font-family="FreeSans" font-size="10.00" fill="#000000">Prototype4DSTReader</text>
<text text-anchor="middle" x="64" y="-20.5" font-family="FreeSans" font-size="10.00" fill="#000000">::build_tree</text>
</g>
<!-- Node2 -->
<g id="node2" class="node">
<title>Node2</title>
<g id="a_node2"><a xlink:href="../../d3/d2b/classPHTFileServer.html#a5a3ed7a2a70cc2e38dbe1cb33afe9c2f" target="_top" xlink:title="return reference to class singleton">
<polygon fill="none" stroke="#000000" points="168,-39.5 168,-59.5 278,-59.5 278,-39.5 168,-39.5"/>
<text text-anchor="middle" x="223" y="-46.5" font-family="FreeSans" font-size="10.00" fill="#000000">PHTFileServer::get</text>
</a>
</g>
</g>
<!-- Node1&#45;&gt;Node2 -->
<g id="edge1" class="edge">
<title>Node1&#45;&gt;Node2</title>
<path fill="none" stroke="#191970" d="M128.2131,-37.5771C138.0001,-38.8082 148.1084,-40.0797 157.914,-41.3131"/>
<polygon fill="#191970" stroke="#191970" points="157.6381,-44.8059 167.9968,-42.5814 158.5118,-37.8606 157.6381,-44.8059"/>
</g>
<!-- Node3 -->
<g id="node3" class="node">
<title>Node3</title>
<g id="a_node3"><a xlink:href="../../d3/d2b/classPHTFileServer.html#aaae99c6748eb17d5f8d7df375bc6d615" target="_top" xlink:title="open a SafeTFile. If filename is not found in the map, create a new TFile and append to the map; incr...">
<polygon fill="none" stroke="#000000" points="164,-.5 164,-20.5 282,-20.5 282,-.5 164,-.5"/>
<text text-anchor="middle" x="223" y="-7.5" font-family="FreeSans" font-size="10.00" fill="#000000">PHTFileServer::open</text>
</a>
</g>
</g>
<!-- Node1&#45;&gt;Node3 -->
<g id="edge2" class="edge">
<title>Node1&#45;&gt;Node3</title>
<path fill="none" stroke="#191970" d="M128.2131,-21.8267C136.6999,-20.8126 145.4283,-19.7696 153.9914,-18.7463"/>
<polygon fill="#191970" stroke="#191970" points="154.4294,-22.219 163.9434,-17.5571 153.5988,-15.2684 154.4294,-22.219"/>
</g>
</g>
</svg>
