<?xml version="1.0" encoding="UTF-8" standalone="no"?>
<!DOCTYPE svg PUBLIC "-//W3C//DTD SVG 1.1//EN"
 "http://www.w3.org/Graphics/SVG/1.1/DTD/svg11.dtd">
<!-- Generated by graphviz version 2.40.1 (20161225.0304)
 -->
<!-- Title: prototype/blob/master/offline/packages/tpc2019/TpcPrototypeTrack.h Pages: 1 -->
<svg width="348pt" height="134pt"
 viewBox="0.00 0.00 348.00 134.00" xmlns="http://www.w3.org/2000/svg" xmlns:xlink="http://www.w3.org/1999/xlink">
<g id="graph0" class="graph" transform="scale(1 1) rotate(0) translate(4 130)">
<title>prototype/blob/master/offline/packages/tpc2019/TpcPrototypeTrack.h</title>
<!-- Node1 -->
<g id="node1" class="node">
<title>Node1</title>
<polygon fill="#bfbfbf" stroke="#000000" points="101,-81.5 101,-125.5 250,-125.5 250,-81.5 101,-81.5"/>
<text text-anchor="start" x="109" y="-112.5" font-family="FreeSans" font-size="10.00" fill="#000000">prototype/blob/master</text>
<text text-anchor="start" x="109" y="-100.5" font-family="FreeSans" font-size="10.00" fill="#000000">/offline/packages/tpc2019</text>
<text text-anchor="middle" x="175.5" y="-88.5" font-family="FreeSans" font-size="10.00" fill="#000000">/TpcPrototypeTrack.h</text>
</g>
<!-- Node2 -->
<g id="node2" class="node">
<title>Node2</title>
<g id="a_node2"><a xlink:href="../../d0/d1a/TpcPrototypeGenFitTrkFitter_8cc.html" target="_top" xlink:title="prototype/blob/master\l/offline/packages/tpc2019\l/TpcPrototypeGenFitTrkFitter.cc">
<polygon fill="none" stroke="#000000" points="0,-.5 0,-44.5 173,-44.5 173,-.5 0,-.5"/>
<text text-anchor="start" x="8" y="-31.5" font-family="FreeSans" font-size="10.00" fill="#000000">prototype/blob/master</text>
<text text-anchor="start" x="8" y="-19.5" font-family="FreeSans" font-size="10.00" fill="#000000">/offline/packages/tpc2019</text>
<text text-anchor="middle" x="86.5" y="-7.5" font-family="FreeSans" font-size="10.00" fill="#000000">/TpcPrototypeGenFitTrkFitter.cc</text>
</a>
</g>
</g>
<!-- Node1&#45;&gt;Node2 -->
<g id="edge1" class="edge">
<title>Node1&#45;&gt;Node2</title>
<path fill="none" stroke="#191970" d="M143.5514,-74.4232C132.7582,-64.6001 120.8921,-53.8007 110.7902,-44.6068"/>
<polygon fill="#191970" stroke="#191970" points="141.4289,-77.224 151.1804,-81.3664 146.1405,-72.047 141.4289,-77.224"/>
</g>
<!-- Node3 -->
<g id="node3" class="node">
<title>Node3</title>
<g id="a_node3"><a xlink:href="../../d1/d88/TpcPrototypeTrack_8cc.html" target="_top" xlink:title="prototype/blob/master\l/offline/packages/tpc2019\l/TpcPrototypeTrack.cc">
<polygon fill="none" stroke="#000000" points="191,-.5 191,-44.5 340,-44.5 340,-.5 191,-.5"/>
<text text-anchor="start" x="199" y="-31.5" font-family="FreeSans" font-size="10.00" fill="#000000">prototype/blob/master</text>
<text text-anchor="start" x="199" y="-19.5" font-family="FreeSans" font-size="10.00" fill="#000000">/offline/packages/tpc2019</text>
<text text-anchor="middle" x="265.5" y="-7.5" font-family="FreeSans" font-size="10.00" fill="#000000">/TpcPrototypeTrack.cc</text>
</a>
</g>
</g>
<!-- Node1&#45;&gt;Node3 -->
<g id="edge2" class="edge">
<title>Node1&#45;&gt;Node3</title>
<path fill="none" stroke="#191970" d="M207.8076,-74.4232C218.7221,-64.6001 230.7215,-53.8007 240.9368,-44.6068"/>
<polygon fill="#191970" stroke="#191970" points="205.1845,-72.0752 200.0929,-81.3664 209.8672,-77.2783 205.1845,-72.0752"/>
</g>
</g>
</svg>
