<?xml version="1.0" encoding="UTF-8" standalone="no"?>
<!DOCTYPE svg PUBLIC "-//W3C//DTD SVG 1.1//EN"
 "http://www.w3.org/Graphics/SVG/1.1/DTD/svg11.dtd">
<!-- Generated by graphviz version 2.40.1 (20161225.0304)
 -->
<!-- Title: MergeRejCurve Pages: 1 -->
<svg width="511pt" height="146pt"
 viewBox="0.00 0.00 511.00 146.00" xmlns="http://www.w3.org/2000/svg" xmlns:xlink="http://www.w3.org/1999/xlink">
<g id="graph0" class="graph" transform="scale(1 1) rotate(0) translate(4 142)">
<title>MergeRejCurve</title>
<!-- Node1 -->
<g id="node1" class="node">
<title>Node1</title>
<polygon fill="#bfbfbf" stroke="#000000" points="0,-58.5 0,-78.5 93,-78.5 93,-58.5 0,-58.5"/>
<text text-anchor="middle" x="46.5" y="-65.5" font-family="FreeSans" font-size="10.00" fill="#000000">MergeRejCurve</text>
</g>
<!-- Node2 -->
<g id="node2" class="node">
<title>Node2</title>
<g id="a_node2"><a xlink:href="../../d5/d04/DrawEcal__Likelihood__Sum_8C.html#a10794eb9c33eb666c23551f2975408e2" target="_top" xlink:title="RejectionCurve_AuAuSummary">
<polygon fill="none" stroke="#000000" points="137.5,-117.5 137.5,-137.5 311.5,-137.5 311.5,-117.5 137.5,-117.5"/>
<text text-anchor="middle" x="224.5" y="-124.5" font-family="FreeSans" font-size="10.00" fill="#000000">RejectionCurve_AuAuSummary</text>
</a>
</g>
</g>
<!-- Node1&#45;&gt;Node2 -->
<g id="edge1" class="edge">
<title>Node1&#45;&gt;Node2</title>
<path fill="none" stroke="#191970" d="M73.1308,-83.5658C88.9442,-91.9589 109.6308,-101.9969 129,-108.5 139.4968,-112.0243 150.874,-114.9889 161.994,-117.4496"/>
<polygon fill="#191970" stroke="#191970" points="74.4291,-80.2884 63.9699,-78.5987 71.0926,-86.442 74.4291,-80.2884"/>
</g>
<!-- Node3 -->
<g id="node3" class="node">
<title>Node3</title>
<g id="a_node3"><a xlink:href="../../d5/d04/DrawEcal__Likelihood__Sum_8C.html#a966098ef5e712a9c8f68bb2c79c7c07c" target="_top" xlink:title="RejectionCurve_AuAuSummaryPos">
<polygon fill="none" stroke="#000000" points="129,-78.5 129,-98.5 320,-98.5 320,-78.5 129,-78.5"/>
<text text-anchor="middle" x="224.5" y="-85.5" font-family="FreeSans" font-size="10.00" fill="#000000">RejectionCurve_AuAuSummaryPos</text>
</a>
</g>
</g>
<!-- Node1&#45;&gt;Node3 -->
<g id="edge2" class="edge">
<title>Node1&#45;&gt;Node3</title>
<path fill="none" stroke="#191970" d="M103.2695,-74.8786C113.5156,-76.0298 124.4205,-77.2551 135.3289,-78.4808"/>
<polygon fill="#191970" stroke="#191970" points="103.5957,-71.3933 93.2674,-73.7548 102.814,-78.3495 103.5957,-71.3933"/>
</g>
<!-- Node5 -->
<g id="node5" class="node">
<title>Node5</title>
<g id="a_node5"><a xlink:href="../../d5/d04/DrawEcal__Likelihood__Sum_8C.html#a27864c97cf30ba249dd468334b5fcb45" target="_top" xlink:title="RejectionCurve_ppSummary">
<polygon fill="none" stroke="#000000" points="144.5,-39.5 144.5,-59.5 304.5,-59.5 304.5,-39.5 144.5,-39.5"/>
<text text-anchor="middle" x="224.5" y="-46.5" font-family="FreeSans" font-size="10.00" fill="#000000">RejectionCurve_ppSummary</text>
</a>
</g>
</g>
<!-- Node1&#45;&gt;Node5 -->
<g id="edge4" class="edge">
<title>Node1&#45;&gt;Node5</title>
<path fill="none" stroke="#191970" d="M103.4526,-62.4208C116.4666,-61.0317 130.5356,-59.5299 144.3198,-58.0586"/>
<polygon fill="#191970" stroke="#191970" points="102.8394,-58.9663 93.2674,-63.508 103.5824,-65.9267 102.8394,-58.9663"/>
</g>
<!-- Node6 -->
<g id="node6" class="node">
<title>Node6</title>
<g id="a_node6"><a xlink:href="../../d5/d04/DrawEcal__Likelihood__Sum_8C.html#a9e6db315a6f3870e662dd72f92c64e6c" target="_top" xlink:title="RejectionCurve_ppSummaryPos">
<polygon fill="none" stroke="#000000" points="136,-.5 136,-20.5 313,-20.5 313,-.5 136,-.5"/>
<text text-anchor="middle" x="224.5" y="-7.5" font-family="FreeSans" font-size="10.00" fill="#000000">RejectionCurve_ppSummaryPos</text>
</a>
</g>
</g>
<!-- Node1&#45;&gt;Node6 -->
<g id="edge5" class="edge">
<title>Node1&#45;&gt;Node6</title>
<path fill="none" stroke="#191970" d="M74.4789,-53.6978C90.1598,-45.8943 110.2761,-36.6849 129,-30.5 140.8223,-26.5948 153.7282,-23.2834 166.121,-20.5468"/>
<polygon fill="#191970" stroke="#191970" points="72.6742,-50.6887 65.3406,-58.3353 75.842,-56.931 72.6742,-50.6887"/>
</g>
<!-- Node4 -->
<g id="node4" class="node">
<title>Node4</title>
<g id="a_node4"><a xlink:href="../../d5/d04/DrawEcal__Likelihood__Sum_8C.html#ac68d01858f2da230a2a3e2f62c1f0720" target="_top" xlink:title="DrawEcal_Likelihood_Sum">
<polygon fill="none" stroke="#000000" points="356,-78.5 356,-98.5 503,-98.5 503,-78.5 356,-78.5"/>
<text text-anchor="middle" x="429.5" y="-85.5" font-family="FreeSans" font-size="10.00" fill="#000000">DrawEcal_Likelihood_Sum</text>
</a>
</g>
</g>
<!-- Node3&#45;&gt;Node4 -->
<g id="edge3" class="edge">
<title>Node3&#45;&gt;Node4</title>
<path fill="none" stroke="#191970" d="M330.2417,-88.5C338.8832,-88.5 347.494,-88.5 355.828,-88.5"/>
<polygon fill="#191970" stroke="#191970" points="330.0979,-85.0001 320.0979,-88.5 330.0979,-92.0001 330.0979,-85.0001"/>
</g>
</g>
</svg>
