<?xml version="1.0" encoding="UTF-8" standalone="no"?>
<!DOCTYPE svg PUBLIC "-//W3C//DTD SVG 1.1//EN"
 "http://www.w3.org/Graphics/SVG/1.1/DTD/svg11.dtd">
<!-- Generated by graphviz version 2.40.1 (20161225.0304)
 -->
<!-- Title: rejection_ratio Pages: 1 -->
<svg width="306pt" height="92pt"
 viewBox="0.00 0.00 306.00 92.00" xmlns="http://www.w3.org/2000/svg" xmlns:xlink="http://www.w3.org/1999/xlink">
<g id="graph0" class="graph" transform="scale(1 1) rotate(0) translate(4 88)">
<title>rejection_ratio</title>
<!-- Node1 -->
<g id="node1" class="node">
<title>Node1</title>
<polygon fill="#bfbfbf" stroke="#000000" points="0,-31.5 0,-51.5 88,-51.5 88,-31.5 0,-31.5"/>
<text text-anchor="middle" x="44" y="-38.5" font-family="FreeSans" font-size="10.00" fill="#000000">rejection_ratio</text>
</g>
<!-- Node2 -->
<g id="node2" class="node">
<title>Node2</title>
<g id="a_node2"><a xlink:href="../../d5/d04/DrawEcal__Likelihood__Sum_8C.html#a596e34b9474844c19c812c0e3c44c58b" target="_top" xlink:title="RejectionCurve_AuAuSummary\l_Compare">
<polygon fill="none" stroke="#000000" points="124,-51.5 124,-83.5 298,-83.5 298,-51.5 124,-51.5"/>
<text text-anchor="start" x="132" y="-70.5" font-family="FreeSans" font-size="10.00" fill="#000000">RejectionCurve_AuAuSummary</text>
<text text-anchor="middle" x="211" y="-58.5" font-family="FreeSans" font-size="10.00" fill="#000000">_Compare</text>
</a>
</g>
</g>
<!-- Node1&#45;&gt;Node2 -->
<g id="edge1" class="edge">
<title>Node1&#45;&gt;Node2</title>
<path fill="none" stroke="#191970" d="M98.4086,-49.9708C106.579,-51.2428 115.1742,-52.581 123.8221,-53.9274"/>
<polygon fill="#191970" stroke="#191970" points="98.7339,-46.4794 88.3145,-48.3993 97.657,-53.396 98.7339,-46.4794"/>
</g>
<!-- Node3 -->
<g id="node3" class="node">
<title>Node3</title>
<g id="a_node3"><a xlink:href="../../d5/d04/DrawEcal__Likelihood__Sum_8C.html#a03631cb6ab9ae561c529d94e1c07a434" target="_top" xlink:title="RejectionCurve_AuAuSummary\l_Compare2">
<polygon fill="none" stroke="#000000" points="124,-.5 124,-32.5 298,-32.5 298,-.5 124,-.5"/>
<text text-anchor="start" x="132" y="-19.5" font-family="FreeSans" font-size="10.00" fill="#000000">RejectionCurve_AuAuSummary</text>
<text text-anchor="middle" x="211" y="-7.5" font-family="FreeSans" font-size="10.00" fill="#000000">_Compare2</text>
</a>
</g>
</g>
<!-- Node1&#45;&gt;Node3 -->
<g id="edge2" class="edge">
<title>Node1&#45;&gt;Node3</title>
<path fill="none" stroke="#191970" d="M98.4086,-33.355C106.579,-32.1319 115.1742,-30.8452 123.8221,-29.5506"/>
<polygon fill="#191970" stroke="#191970" points="97.6861,-29.9241 88.3145,-34.8661 98.7225,-36.8469 97.6861,-29.9241"/>
</g>
</g>
</svg>
