<?xml version="1.0" encoding="UTF-8" standalone="no"?>
<!DOCTYPE svg PUBLIC "-//W3C//DTD SVG 1.1//EN"
 "http://www.w3.org/Graphics/SVG/1.1/DTD/svg11.dtd">
<!-- Generated by graphviz version 2.40.1 (20161225.0304)
 -->
<!-- Title: TowerBackgroundv1 Pages: 1 -->
<svg width="270pt" height="237pt"
 viewBox="0.00 0.00 269.50 237.00" xmlns="http://www.w3.org/2000/svg" xmlns:xlink="http://www.w3.org/1999/xlink">
<g id="graph0" class="graph" transform="scale(1 1) rotate(0) translate(4 233)">
<title>TowerBackgroundv1</title>
<!-- Node1 -->
<g id="node1" class="node">
<title>Node1</title>
<polygon fill="#bfbfbf" stroke="#000000" points="62.5,-.5 62.5,-20.5 181.5,-20.5 181.5,-.5 62.5,-.5"/>
<text text-anchor="middle" x="122" y="-7.5" font-family="FreeSans" font-size="10.00" fill="#000000">TowerBackgroundv1</text>
</g>
<!-- Node2 -->
<g id="node2" class="node">
<title>Node2</title>
<g id="a_node2"><a xlink:href="../../d5/d0f/classTowerBackground.html" target="_top" xlink:title="TowerBackground">
<polygon fill="none" stroke="#000000" points="0,-75.5 0,-95.5 106,-95.5 106,-75.5 0,-75.5"/>
<text text-anchor="middle" x="53" y="-82.5" font-family="FreeSans" font-size="10.00" fill="#000000">TowerBackground</text>
</a>
</g>
</g>
<!-- Node2&#45;&gt;Node1 -->
<g id="edge1" class="edge">
<title>Node2&#45;&gt;Node1</title>
<path fill="none" stroke="#191970" d="M69.1435,-67.9527C82.5652,-53.3639 101.2164,-33.0909 112.399,-20.9358"/>
<polygon fill="#191970" stroke="#191970" points="66.5005,-65.6561 62.3056,-75.3852 71.652,-70.3955 66.5005,-65.6561"/>
</g>
<!-- Node3 -->
<g id="node3" class="node">
<title>Node3</title>
<g id="a_node3"><a xlink:href="../../d9/d24/classPHObject.html" target="_top" xlink:title="PHObject">
<polygon fill="none" stroke="#000000" points="21.5,-150.5 21.5,-170.5 84.5,-170.5 84.5,-150.5 21.5,-150.5"/>
<text text-anchor="middle" x="53" y="-157.5" font-family="FreeSans" font-size="10.00" fill="#000000">PHObject</text>
</a>
</g>
</g>
<!-- Node3&#45;&gt;Node2 -->
<g id="edge2" class="edge">
<title>Node3&#45;&gt;Node2</title>
<path fill="none" stroke="#191970" d="M53,-140.0481C53,-125.77 53,-107.303 53,-95.9358"/>
<polygon fill="#191970" stroke="#191970" points="49.5001,-140.3851 53,-150.3852 56.5001,-140.3852 49.5001,-140.3851"/>
</g>
<!-- Node4 -->
<g id="node4" class="node">
<title>Node4</title>
<polygon fill="none" stroke="#bfbfbf" points="24.5,-208.5 24.5,-228.5 81.5,-228.5 81.5,-208.5 24.5,-208.5"/>
<text text-anchor="middle" x="53" y="-215.5" font-family="FreeSans" font-size="10.00" fill="#000000">TObject</text>
</g>
<!-- Node4&#45;&gt;Node3 -->
<g id="edge3" class="edge">
<title>Node4&#45;&gt;Node3</title>
<path fill="none" stroke="#191970" d="M53,-198.3902C53,-189.1201 53,-178.5083 53,-170.8776"/>
<polygon fill="#191970" stroke="#191970" points="49.5001,-198.3971 53,-208.3972 56.5001,-198.3972 49.5001,-198.3971"/>
</g>
<!-- Node5 -->
<g id="node5" class="node">
<title>Node5</title>
<polygon fill="none" stroke="#bfbfbf" points="124.5,-69.5 124.5,-101.5 261.5,-101.5 261.5,-69.5 124.5,-69.5"/>
<text text-anchor="start" x="132.5" y="-88.5" font-family="FreeSans" font-size="10.00" fill="#000000">std::vector&lt; std::vector</text>
<text text-anchor="middle" x="193" y="-76.5" font-family="FreeSans" font-size="10.00" fill="#000000">&lt; float &gt; &gt;</text>
</g>
<!-- Node5&#45;&gt;Node1 -->
<g id="edge4" class="edge">
<title>Node5&#45;&gt;Node1</title>
<path fill="none" stroke="#9a32cd" stroke-dasharray="5,2" d="M170.6164,-61.8554C157.4358,-47.9322 141.4481,-31.0438 131.4971,-20.5322"/>
<polygon fill="#9a32cd" stroke="#9a32cd" points="168.1775,-64.3702 177.5941,-69.2261 173.261,-59.5578 168.1775,-64.3702"/>
<text text-anchor="middle" x="171.5" y="-42" font-family="FreeSans" font-size="10.00" fill="#000000"> _UE</text>
</g>
<!-- Node6 -->
<g id="node6" class="node">
<title>Node6</title>
<polygon fill="none" stroke="#bfbfbf" points="135,-150.5 135,-170.5 251,-170.5 251,-150.5 135,-150.5"/>
<text text-anchor="middle" x="193" y="-157.5" font-family="FreeSans" font-size="10.00" fill="#000000">std::vector&lt; float &gt;</text>
</g>
<!-- Node6&#45;&gt;Node5 -->
<g id="edge5" class="edge">
<title>Node6&#45;&gt;Node5</title>
<path fill="none" stroke="#9a32cd" stroke-dasharray="5,2" d="M193,-140.3477C193,-128.2564 193,-113.0788 193,-101.7566"/>
<polygon fill="#9a32cd" stroke="#9a32cd" points="189.5001,-140.3851 193,-150.3852 196.5001,-140.3852 189.5001,-140.3851"/>
<text text-anchor="middle" x="218.5" y="-123" font-family="FreeSans" font-size="10.00" fill="#000000"> elements</text>
</g>
</g>
</svg>
