<?xml version="1.0" encoding="UTF-8" standalone="no"?>
<!DOCTYPE svg PUBLIC "-//W3C//DTD SVG 1.1//EN"
 "http://www.w3.org/Graphics/SVG/1.1/DTD/svg11.dtd">
<!-- Generated by graphviz version 2.40.1 (20161225.0304)
 -->
<!-- Title: online_distribution/blob/master/newbasic/listEventiterator.h Pages: 1 -->
<svg width="848pt" height="509pt"
 viewBox="0.00 0.00 848.00 509.00" xmlns="http://www.w3.org/2000/svg" xmlns:xlink="http://www.w3.org/1999/xlink">
<g id="graph0" class="graph" transform="scale(1 1) rotate(0) translate(4 505)">
<title>online_distribution/blob/master/newbasic/listEventiterator.h</title>
<!-- Node1 -->
<g id="node1" class="node">
<title>Node1</title>
<polygon fill="#bfbfbf" stroke="#000000" points="54,-456.5 54,-500.5 186,-500.5 186,-456.5 54,-456.5"/>
<text text-anchor="start" x="62" y="-487.5" font-family="FreeSans" font-size="10.00" fill="#000000">online_distribution</text>
<text text-anchor="start" x="62" y="-475.5" font-family="FreeSans" font-size="10.00" fill="#000000">/blob/master/newbasic</text>
<text text-anchor="middle" x="120" y="-463.5" font-family="FreeSans" font-size="10.00" fill="#000000">/listEventiterator.h</text>
</g>
<!-- Node2 -->
<g id="node2" class="node">
<title>Node2</title>
<polygon fill="none" stroke="#bfbfbf" points="0,-399.5 0,-419.5 46,-419.5 46,-399.5 0,-399.5"/>
<text text-anchor="middle" x="23" y="-406.5" font-family="FreeSans" font-size="10.00" fill="#000000">cstdio</text>
</g>
<!-- Node1&#45;&gt;Node2 -->
<g id="edge1" class="edge">
<title>Node1&#45;&gt;Node2</title>
<path fill="none" stroke="#191970" d="M89.0419,-456.4783C74.8966,-446.4161 58.4504,-434.7173 45.5086,-425.5113"/>
<polygon fill="#191970" stroke="#191970" points="47.3576,-422.5313 37.1801,-419.5869 43.3,-428.2354 47.3576,-422.5313"/>
</g>
<!-- Node3 -->
<g id="node3" class="node">
<title>Node3</title>
<polygon fill="none" stroke="#bfbfbf" points="64.5,-399.5 64.5,-419.5 119.5,-419.5 119.5,-399.5 64.5,-399.5"/>
<text text-anchor="middle" x="92" y="-406.5" font-family="FreeSans" font-size="10.00" fill="#000000">fstream</text>
</g>
<!-- Node1&#45;&gt;Node3 -->
<g id="edge2" class="edge">
<title>Node1&#45;&gt;Node3</title>
<path fill="none" stroke="#191970" d="M110.9865,-456.2882C107.4404,-447.5496 103.4033,-437.6011 99.9663,-429.1311"/>
<polygon fill="#191970" stroke="#191970" points="103.1481,-427.6637 96.1447,-419.7137 96.6618,-430.2959 103.1481,-427.6637"/>
</g>
<!-- Node4 -->
<g id="node4" class="node">
<title>Node4</title>
<g id="a_node4"><a xlink:href="../../d1/d35/fileEventiterator_8h.html" target="_top" xlink:title="fileEventiterator.h">
<polygon fill="none" stroke="#000000" points="274,-399.5 274,-419.5 380,-419.5 380,-399.5 274,-399.5"/>
<text text-anchor="middle" x="327" y="-406.5" font-family="FreeSans" font-size="10.00" fill="#000000">fileEventiterator.h</text>
</a>
</g>
</g>
<!-- Node1&#45;&gt;Node4 -->
<g id="edge3" class="edge">
<title>Node1&#45;&gt;Node4</title>
<path fill="none" stroke="#191970" d="M186.0652,-456.4783C219.2994,-445.4002 258.4849,-432.3384 287.0899,-422.8034"/>
<polygon fill="#191970" stroke="#191970" points="288.3594,-426.0696 296.7394,-419.5869 286.1458,-419.4288 288.3594,-426.0696"/>
</g>
<!-- Node7 -->
<g id="node7" class="node">
<title>Node7</title>
<g id="a_node7"><a xlink:href="../../d6/d8d/Event_8h.html" target="_top" xlink:title="Event.h">
<polygon fill="none" stroke="#000000" points="214,-171.5 214,-191.5 268,-191.5 268,-171.5 214,-171.5"/>
<text text-anchor="middle" x="241" y="-178.5" font-family="FreeSans" font-size="10.00" fill="#000000">Event.h</text>
</a>
</g>
</g>
<!-- Node1&#45;&gt;Node7 -->
<g id="edge37" class="edge">
<title>Node1&#45;&gt;Node7</title>
<path fill="none" stroke="#191970" d="M128.0988,-456.0715C136.3682,-431.1293 148,-389.4742 148,-352.5 148,-352.5 148,-352.5 148,-295.5 148,-252.6312 187.9736,-216.9729 215.5066,-197.4966"/>
<polygon fill="#191970" stroke="#191970" points="217.6462,-200.2741 223.9424,-191.7531 213.7066,-194.4879 217.6462,-200.2741"/>
</g>
<!-- Node5 -->
<g id="node5" class="node">
<title>Node5</title>
<polygon fill="none" stroke="#bfbfbf" points="790,-.5 790,-20.5 840,-20.5 840,-.5 790,-.5"/>
<text text-anchor="middle" x="815" y="-7.5" font-family="FreeSans" font-size="10.00" fill="#000000">stdio.h</text>
</g>
<!-- Node4&#45;&gt;Node5 -->
<g id="edge4" class="edge">
<title>Node4&#45;&gt;Node5</title>
<path fill="none" stroke="#191970" d="M380.2996,-403.1154C510.4699,-386.8042 834,-341.6242 834,-295.5 834,-295.5 834,-295.5 834,-124.5 834,-91.2209 826.0246,-53.2115 820.4081,-30.5705"/>
<polygon fill="#191970" stroke="#191970" points="823.7696,-29.5891 817.8857,-20.7784 816.9909,-31.3354 823.7696,-29.5891"/>
</g>
<!-- Node6 -->
<g id="node6" class="node">
<title>Node6</title>
<g id="a_node6"><a xlink:href="../../de/dbf/Eventiterator_8h.html" target="_top" xlink:title="Eventiterator.h">
<polygon fill="none" stroke="#000000" points="176.5,-342.5 176.5,-362.5 267.5,-362.5 267.5,-342.5 176.5,-342.5"/>
<text text-anchor="middle" x="222" y="-349.5" font-family="FreeSans" font-size="10.00" fill="#000000">Eventiterator.h</text>
</a>
</g>
</g>
<!-- Node4&#45;&gt;Node6 -->
<g id="edge5" class="edge">
<title>Node4&#45;&gt;Node6</title>
<path fill="none" stroke="#191970" d="M308.2281,-399.3095C291.8784,-390.434 267.9604,-377.4499 249.4599,-367.4068"/>
<polygon fill="#191970" stroke="#191970" points="251.0678,-364.2972 240.6094,-362.6022 247.7281,-370.4492 251.0678,-364.2972"/>
</g>
<!-- Node4&#45;&gt;Node7 -->
<g id="edge15" class="edge">
<title>Node4&#45;&gt;Node7</title>
<path fill="none" stroke="#191970" d="M323.1937,-399.4089C310.0147,-364.4693 266.1711,-248.2328 248.4889,-201.3543"/>
<polygon fill="#191970" stroke="#191970" points="251.664,-199.8545 244.8599,-191.7332 245.1144,-202.325 251.664,-199.8545"/>
</g>
<!-- Node15 -->
<g id="node15" class="node">
<title>Node15</title>
<g id="a_node15"><a xlink:href="../../d6/df6/gzbuffer_8h.html" target="_top" xlink:title="gzbuffer.h">
<polygon fill="none" stroke="#000000" points="324.5,-342.5 324.5,-362.5 391.5,-362.5 391.5,-342.5 324.5,-342.5"/>
<text text-anchor="middle" x="358" y="-349.5" font-family="FreeSans" font-size="10.00" fill="#000000">gzbuffer.h</text>
</a>
</g>
</g>
<!-- Node4&#45;&gt;Node15 -->
<g id="edge16" class="edge">
<title>Node4&#45;&gt;Node15</title>
<path fill="none" stroke="#191970" d="M332.5422,-399.3095C336.73,-391.6093 342.5997,-380.8166 347.6477,-371.5349"/>
<polygon fill="#191970" stroke="#191970" points="350.8027,-373.0593 352.5058,-362.6022 344.6533,-369.7149 350.8027,-373.0593"/>
</g>
<!-- Node20 -->
<g id="node20" class="node">
<title>Node20</title>
<g id="a_node20"><a xlink:href="../../db/d5e/oncsBuffer_8h.html" target="_top" xlink:title="oncsBuffer.h">
<polygon fill="none" stroke="#000000" points="496.5,-285.5 496.5,-305.5 575.5,-305.5 575.5,-285.5 496.5,-285.5"/>
<text text-anchor="middle" x="536" y="-292.5" font-family="FreeSans" font-size="10.00" fill="#000000">oncsBuffer.h</text>
</a>
</g>
</g>
<!-- Node4&#45;&gt;Node20 -->
<g id="edge25" class="edge">
<title>Node4&#45;&gt;Node20</title>
<path fill="none" stroke="#191970" d="M345.5474,-399.3833C382.4975,-379.2287 465.4491,-333.9823 508.6585,-310.4136"/>
<polygon fill="#191970" stroke="#191970" points="510.3912,-313.4553 517.4942,-305.5941 507.0392,-307.31 510.3912,-313.4553"/>
</g>
<!-- Node6&#45;&gt;Node7 -->
<g id="edge6" class="edge">
<title>Node6&#45;&gt;Node7</title>
<path fill="none" stroke="#191970" d="M223.1316,-342.3153C226.1869,-314.8178 234.6472,-238.6748 238.7334,-201.8993"/>
<polygon fill="#191970" stroke="#191970" points="242.2245,-202.1729 239.8503,-191.8476 235.2673,-201.3999 242.2245,-202.1729"/>
</g>
<!-- Node8 -->
<g id="node8" class="node">
<title>Node8</title>
<g id="a_node8"><a xlink:href="../../d3/d76/packet_8h.html" target="_top" xlink:title="packet.h">
<polygon fill="none" stroke="#000000" points="361.5,-114.5 361.5,-134.5 420.5,-134.5 420.5,-114.5 361.5,-114.5"/>
<text text-anchor="middle" x="391" y="-121.5" font-family="FreeSans" font-size="10.00" fill="#000000">packet.h</text>
</a>
</g>
</g>
<!-- Node7&#45;&gt;Node8 -->
<g id="edge7" class="edge">
<title>Node7&#45;&gt;Node8</title>
<path fill="none" stroke="#191970" d="M267.4717,-171.4408C291.8163,-162.1898 328.1156,-148.3961 355.0719,-138.1527"/>
<polygon fill="#191970" stroke="#191970" points="356.4365,-141.3784 364.5411,-134.5544 353.95,-134.8349 356.4365,-141.3784"/>
</g>
<!-- Node14 -->
<g id="node14" class="node">
<title>Node14</title>
<polygon fill="none" stroke="#bfbfbf" points="219,-114.5 219,-134.5 263,-134.5 263,-114.5 219,-114.5"/>
<text text-anchor="middle" x="241" y="-121.5" font-family="FreeSans" font-size="10.00" fill="#000000">ctime</text>
</g>
<!-- Node7&#45;&gt;Node14 -->
<g id="edge14" class="edge">
<title>Node7&#45;&gt;Node14</title>
<path fill="none" stroke="#191970" d="M241,-171.3095C241,-163.9335 241,-153.72 241,-144.715"/>
<polygon fill="#191970" stroke="#191970" points="244.5001,-144.6022 241,-134.6022 237.5001,-144.6023 244.5001,-144.6022"/>
</g>
<!-- Node9 -->
<g id="node9" class="node">
<title>Node9</title>
<g id="a_node9"><a xlink:href="../../db/d5e/generalDefinitions_8h.html" target="_top" xlink:title="generalDefinitions.h">
<polygon fill="none" stroke="#000000" points="332,-57.5 332,-77.5 450,-77.5 450,-57.5 332,-57.5"/>
<text text-anchor="middle" x="391" y="-64.5" font-family="FreeSans" font-size="10.00" fill="#000000">generalDefinitions.h</text>
</a>
</g>
</g>
<!-- Node8&#45;&gt;Node9 -->
<g id="edge8" class="edge">
<title>Node8&#45;&gt;Node9</title>
<path fill="none" stroke="#191970" d="M391,-114.3095C391,-106.9335 391,-96.72 391,-87.715"/>
<polygon fill="#191970" stroke="#191970" points="394.5001,-87.6022 391,-77.6022 387.5001,-87.6023 394.5001,-87.6022"/>
</g>
<!-- Node10 -->
<g id="node10" class="node">
<title>Node10</title>
<g id="a_node10"><a xlink:href="../../d8/dd6/event__io_8h.html" target="_top" xlink:title="event_io.h">
<polygon fill="none" stroke="#000000" points="669,-57.5 669,-77.5 737,-77.5 737,-57.5 669,-57.5"/>
<text text-anchor="middle" x="703" y="-64.5" font-family="FreeSans" font-size="10.00" fill="#000000">event_io.h</text>
</a>
</g>
</g>
<!-- Node8&#45;&gt;Node10 -->
<g id="edge9" class="edge">
<title>Node8&#45;&gt;Node10</title>
<path fill="none" stroke="#191970" d="M420.6335,-119.0862C475.7889,-109.0097 594.4441,-87.3323 658.9937,-75.5396"/>
<polygon fill="#191970" stroke="#191970" points="659.6628,-78.9754 668.871,-73.7351 658.4047,-72.0894 659.6628,-78.9754"/>
</g>
<!-- Node10&#45;&gt;Node5 -->
<g id="edge13" class="edge">
<title>Node10&#45;&gt;Node5</title>
<path fill="none" stroke="#191970" d="M722.7655,-57.4408C740.3306,-48.5014 766.2305,-35.3202 786.1167,-25.1996"/>
<polygon fill="#191970" stroke="#191970" points="787.7306,-28.3054 795.0553,-20.6504 784.5556,-22.0669 787.7306,-28.3054"/>
</g>
<!-- Node11 -->
<g id="node11" class="node">
<title>Node11</title>
<polygon fill="none" stroke="#bfbfbf" points="536,-.5 536,-20.5 600,-20.5 600,-.5 536,-.5"/>
<text text-anchor="middle" x="568" y="-7.5" font-family="FreeSans" font-size="10.00" fill="#000000">ioselect.h</text>
</g>
<!-- Node10&#45;&gt;Node11 -->
<g id="edge10" class="edge">
<title>Node10&#45;&gt;Node11</title>
<path fill="none" stroke="#191970" d="M679.1755,-57.4408C657.6201,-48.3396 625.6513,-34.8416 601.5204,-24.6531"/>
<polygon fill="#191970" stroke="#191970" points="602.6144,-21.3158 592.0405,-20.6504 599.8915,-27.7646 602.6144,-21.3158"/>
</g>
<!-- Node12 -->
<g id="node12" class="node">
<title>Node12</title>
<polygon fill="none" stroke="#bfbfbf" points="618,-.5 618,-20.5 688,-20.5 688,-.5 618,-.5"/>
<text text-anchor="middle" x="653" y="-7.5" font-family="FreeSans" font-size="10.00" fill="#000000">iostream.h</text>
</g>
<!-- Node10&#45;&gt;Node12 -->
<g id="edge11" class="edge">
<title>Node10&#45;&gt;Node12</title>
<path fill="none" stroke="#191970" d="M694.061,-57.3095C687.022,-49.2851 677.0371,-37.9022 668.6762,-28.3708"/>
<polygon fill="#191970" stroke="#191970" points="671.0872,-25.8118 661.8616,-20.6022 665.8249,-30.4279 671.0872,-25.8118"/>
</g>
<!-- Node13 -->
<g id="node13" class="node">
<title>Node13</title>
<polygon fill="none" stroke="#bfbfbf" points="706,-.5 706,-20.5 772,-20.5 772,-.5 706,-.5"/>
<text text-anchor="middle" x="739" y="-7.5" font-family="FreeSans" font-size="10.00" fill="#000000">iomanip.h</text>
</g>
<!-- Node10&#45;&gt;Node13 -->
<g id="edge12" class="edge">
<title>Node10&#45;&gt;Node13</title>
<path fill="none" stroke="#191970" d="M709.4361,-57.3095C714.3506,-49.5282 721.2596,-38.589 727.1628,-29.2423"/>
<polygon fill="#191970" stroke="#191970" points="730.2389,-30.9261 732.6196,-20.6022 724.3204,-27.1881 730.2389,-30.9261"/>
</g>
<!-- Node16 -->
<g id="node16" class="node">
<title>Node16</title>
<g id="a_node16"><a xlink:href="../../d1/dd4/prdfBuffer_8h.html" target="_top" xlink:title="prdfBuffer.h">
<polygon fill="none" stroke="#000000" points="320,-285.5 320,-305.5 396,-305.5 396,-285.5 320,-285.5"/>
<text text-anchor="middle" x="358" y="-292.5" font-family="FreeSans" font-size="10.00" fill="#000000">prdfBuffer.h</text>
</a>
</g>
</g>
<!-- Node15&#45;&gt;Node16 -->
<g id="edge17" class="edge">
<title>Node15&#45;&gt;Node16</title>
<path fill="none" stroke="#191970" d="M358,-342.3095C358,-334.9335 358,-324.72 358,-315.715"/>
<polygon fill="#191970" stroke="#191970" points="361.5001,-315.6022 358,-305.6022 354.5001,-315.6023 361.5001,-315.6022"/>
</g>
<!-- Node16&#45;&gt;Node7 -->
<g id="edge24" class="edge">
<title>Node16&#45;&gt;Node7</title>
<path fill="none" stroke="#191970" d="M347.617,-285.3833C327.633,-265.9116 283.6126,-223.02 258.8398,-198.8824"/>
<polygon fill="#191970" stroke="#191970" points="261.1327,-196.2298 251.5279,-191.7579 256.2477,-201.2434 261.1327,-196.2298"/>
</g>
<!-- Node17 -->
<g id="node17" class="node">
<title>Node17</title>
<g id="a_node17"><a xlink:href="../../d5/d08/buffer_8h.html" target="_top" xlink:title="buffer.h">
<polygon fill="none" stroke="#000000" points="373.5,-228.5 373.5,-248.5 428.5,-248.5 428.5,-228.5 373.5,-228.5"/>
<text text-anchor="middle" x="401" y="-235.5" font-family="FreeSans" font-size="10.00" fill="#000000">buffer.h</text>
</a>
</g>
</g>
<!-- Node16&#45;&gt;Node17 -->
<g id="edge18" class="edge">
<title>Node16&#45;&gt;Node17</title>
<path fill="none" stroke="#191970" d="M365.6875,-285.3095C371.68,-277.3661 380.1549,-266.1319 387.3002,-256.6602"/>
<polygon fill="#191970" stroke="#191970" points="390.1507,-258.6933 393.379,-248.6022 384.5625,-254.4776 390.1507,-258.6933"/>
</g>
<!-- Node18 -->
<g id="node18" class="node">
<title>Node18</title>
<g id="a_node18"><a xlink:href="../../d7/d43/phenixTypes_8h.html" target="_top" xlink:title="phenixTypes.h">
<polygon fill="none" stroke="#000000" points="286,-171.5 286,-191.5 374,-191.5 374,-171.5 286,-171.5"/>
<text text-anchor="middle" x="330" y="-178.5" font-family="FreeSans" font-size="10.00" fill="#000000">phenixTypes.h</text>
</a>
</g>
</g>
<!-- Node16&#45;&gt;Node18 -->
<g id="edge22" class="edge">
<title>Node16&#45;&gt;Node18</title>
<path fill="none" stroke="#191970" d="M355.5152,-285.3833C350.919,-266.6703 341.01,-226.3266 334.9827,-201.7866"/>
<polygon fill="#191970" stroke="#191970" points="338.3038,-200.6344 332.5195,-191.7579 331.5058,-202.3042 338.3038,-200.6344"/>
</g>
<!-- Node19 -->
<g id="node19" class="node">
<title>Node19</title>
<g id="a_node19"><a xlink:href="../../da/d88/BufferConstants_8h.html" target="_top" xlink:title="BufferConstants.h">
<polygon fill="none" stroke="#000000" points="391.5,-171.5 391.5,-191.5 498.5,-191.5 498.5,-171.5 391.5,-171.5"/>
<text text-anchor="middle" x="445" y="-178.5" font-family="FreeSans" font-size="10.00" fill="#000000">BufferConstants.h</text>
</a>
</g>
</g>
<!-- Node16&#45;&gt;Node19 -->
<g id="edge23" class="edge">
<title>Node16&#45;&gt;Node19</title>
<path fill="none" stroke="#191970" d="M388.3547,-285.3851C405.4945,-278.0445 425.6898,-266.3241 437,-249 446.0608,-235.1213 447.5874,-216.1533 447.1195,-201.8581"/>
<polygon fill="#191970" stroke="#191970" points="450.5913,-201.3221 446.4226,-191.5819 443.6074,-201.7958 450.5913,-201.3221"/>
</g>
<!-- Node17&#45;&gt;Node7 -->
<g id="edge21" class="edge">
<title>Node17&#45;&gt;Node7</title>
<path fill="none" stroke="#191970" d="M373.495,-228.7014C347.0046,-219.2641 306.7652,-204.9289 277.5829,-194.5327"/>
<polygon fill="#191970" stroke="#191970" points="278.7407,-191.2297 268.1461,-191.1708 276.3916,-197.8238 278.7407,-191.2297"/>
</g>
<!-- Node17&#45;&gt;Node18 -->
<g id="edge19" class="edge">
<title>Node17&#45;&gt;Node18</title>
<path fill="none" stroke="#191970" d="M388.3066,-228.3095C377.8064,-219.8798 362.6898,-207.7439 350.4798,-197.9415"/>
<polygon fill="#191970" stroke="#191970" points="352.5726,-195.1333 342.5835,-191.6022 348.1903,-200.5919 352.5726,-195.1333"/>
</g>
<!-- Node17&#45;&gt;Node19 -->
<g id="edge20" class="edge">
<title>Node17&#45;&gt;Node19</title>
<path fill="none" stroke="#191970" d="M408.8663,-228.3095C414.9981,-220.3661 423.6701,-209.1319 430.9816,-199.6602"/>
<polygon fill="#191970" stroke="#191970" points="433.8618,-201.6569 437.2018,-191.6022 428.3207,-197.3795 433.8618,-201.6569"/>
</g>
<!-- Node20&#45;&gt;Node5 -->
<g id="edge35" class="edge">
<title>Node20&#45;&gt;Node5</title>
<path fill="none" stroke="#191970" d="M575.5604,-289.1972C611.2415,-282.4935 664.487,-269.9145 707,-249 751.5464,-227.0852 796,-231.1452 796,-181.5 796,-181.5 796,-181.5 796,-124.5 796,-91.2209 803.9754,-53.2115 809.5919,-30.5705"/>
<polygon fill="#191970" stroke="#191970" points="813.0091,-31.3354 812.1143,-20.7784 806.2304,-29.5891 813.0091,-31.3354"/>
</g>
<!-- Node20&#45;&gt;Node10 -->
<g id="edge36" class="edge">
<title>Node20&#45;&gt;Node10</title>
<path fill="none" stroke="#191970" d="M575.7447,-288.123C624.0365,-276.7973 703.4556,-250.0201 739,-192 759.8317,-157.9958 734.5638,-111.4013 717.043,-85.9481"/>
<polygon fill="#191970" stroke="#191970" points="719.7152,-83.669 711.0382,-77.5896 714.0302,-87.7532 719.7152,-83.669"/>
</g>
<!-- Node20&#45;&gt;Node17 -->
<g id="edge26" class="edge">
<title>Node20&#45;&gt;Node17</title>
<path fill="none" stroke="#191970" d="M512.1755,-285.4408C490.6201,-276.3396 458.6513,-262.8416 434.5204,-252.6531"/>
<polygon fill="#191970" stroke="#191970" points="435.6144,-249.3158 425.0405,-248.6504 432.8915,-255.7646 435.6144,-249.3158"/>
</g>
<!-- Node20&#45;&gt;Node19 -->
<g id="edge34" class="edge">
<title>Node20&#45;&gt;Node19</title>
<path fill="none" stroke="#191970" d="M527.9244,-285.3833C512.5831,-266.1645 479.0293,-224.1301 459.6336,-199.8322"/>
<polygon fill="#191970" stroke="#191970" points="462.1624,-197.3898 453.1884,-191.7579 456.6916,-201.7569 462.1624,-197.3898"/>
</g>
<!-- Node21 -->
<g id="node21" class="node">
<title>Node21</title>
<g id="a_node21"><a xlink:href="../../de/d08/oncsEvent_8h.html" target="_top" xlink:title="oncsEvent.h">
<polygon fill="none" stroke="#000000" points="530,-228.5 530,-248.5 608,-248.5 608,-228.5 530,-228.5"/>
<text text-anchor="middle" x="569" y="-235.5" font-family="FreeSans" font-size="10.00" fill="#000000">oncsEvent.h</text>
</a>
</g>
</g>
<!-- Node20&#45;&gt;Node21 -->
<g id="edge27" class="edge">
<title>Node20&#45;&gt;Node21</title>
<path fill="none" stroke="#191970" d="M541.8997,-285.3095C546.3578,-277.6093 552.6062,-266.8166 557.9798,-257.5349"/>
<polygon fill="#191970" stroke="#191970" points="561.1699,-259.0102 563.1513,-248.6022 555.1119,-255.5029 561.1699,-259.0102"/>
</g>
<!-- Node21&#45;&gt;Node7 -->
<g id="edge28" class="edge">
<title>Node21&#45;&gt;Node7</title>
<path fill="none" stroke="#191970" d="M529.9733,-233.8734C475.5623,-227.0766 373.7066,-213.0978 277.8812,-191.9813"/>
<polygon fill="#191970" stroke="#191970" points="278.5544,-188.5455 268.0318,-189.7804 277.0278,-195.377 278.5544,-188.5455"/>
</g>
<!-- Node21&#45;&gt;Node18 -->
<g id="edge29" class="edge">
<title>Node21&#45;&gt;Node18</title>
<path fill="none" stroke="#191970" d="M529.8016,-229.1514C489.4191,-219.5204 426.2657,-204.4588 381.7896,-193.8515"/>
<polygon fill="#191970" stroke="#191970" points="382.576,-190.441 372.0368,-191.5255 380.952,-197.25 382.576,-190.441"/>
</g>
<!-- Node22 -->
<g id="node22" class="node">
<title>Node22</title>
<g id="a_node22"><a xlink:href="../../d1/d25/oncsEvtConstants_8h.html" target="_top" xlink:title="oncsEvtConstants.h">
<polygon fill="none" stroke="#000000" points="561,-114.5 561,-134.5 677,-134.5 677,-114.5 561,-114.5"/>
<text text-anchor="middle" x="619" y="-121.5" font-family="FreeSans" font-size="10.00" fill="#000000">oncsEvtConstants.h</text>
</a>
</g>
</g>
<!-- Node21&#45;&gt;Node22 -->
<g id="edge30" class="edge">
<title>Node21&#45;&gt;Node22</title>
<path fill="none" stroke="#191970" d="M598.1989,-228.3414C614.5253,-220.9853 633.4589,-209.2639 643,-192 651.6857,-176.2839 642.9412,-156.8256 633.664,-142.8447"/>
<polygon fill="#191970" stroke="#191970" points="636.3606,-140.6005 627.6685,-134.5426 630.6857,-144.6988 636.3606,-140.6005"/>
</g>
<!-- Node23 -->
<g id="node23" class="node">
<title>Node23</title>
<g id="a_node23"><a xlink:href="../../d1/dfa/oncsEvtStructures_8h.html" target="_top" xlink:title="oncsEvtStructures.h">
<polygon fill="none" stroke="#000000" points="516.5,-171.5 516.5,-191.5 633.5,-191.5 633.5,-171.5 516.5,-171.5"/>
<text text-anchor="middle" x="575" y="-178.5" font-family="FreeSans" font-size="10.00" fill="#000000">oncsEvtStructures.h</text>
</a>
</g>
</g>
<!-- Node21&#45;&gt;Node23 -->
<g id="edge31" class="edge">
<title>Node21&#45;&gt;Node23</title>
<path fill="none" stroke="#191970" d="M570.0727,-228.3095C570.8491,-220.9335 571.9242,-210.72 572.8721,-201.715"/>
<polygon fill="#191970" stroke="#191970" points="576.3704,-201.9137 573.9366,-191.6022 569.4089,-201.1809 576.3704,-201.9137"/>
</g>
<!-- Node24 -->
<g id="node24" class="node">
<title>Node24</title>
<polygon fill="none" stroke="#bfbfbf" points="690.5,-171.5 690.5,-191.5 729.5,-191.5 729.5,-171.5 690.5,-171.5"/>
<text text-anchor="middle" x="710" y="-178.5" font-family="FreeSans" font-size="10.00" fill="#000000">map</text>
</g>
<!-- Node21&#45;&gt;Node24 -->
<g id="edge33" class="edge">
<title>Node21&#45;&gt;Node24</title>
<path fill="none" stroke="#191970" d="M593.8834,-228.4408C618.1719,-218.622 655.1195,-203.6857 680.7894,-193.3085"/>
<polygon fill="#191970" stroke="#191970" points="682.4005,-196.4325 690.3598,-189.4397 679.7769,-189.9427 682.4005,-196.4325"/>
</g>
<!-- Node23&#45;&gt;Node22 -->
<g id="edge32" class="edge">
<title>Node23&#45;&gt;Node22</title>
<path fill="none" stroke="#191970" d="M582.8663,-171.3095C588.9981,-163.3661 597.6701,-152.1319 604.9816,-142.6602"/>
<polygon fill="#191970" stroke="#191970" points="607.8618,-144.6569 611.2018,-134.6022 602.3207,-140.3795 607.8618,-144.6569"/>
</g>
</g>
</svg>
