<?xml version="1.0" encoding="UTF-8" standalone="no"?>
<!DOCTYPE svg PUBLIC "-//W3C//DTD SVG 1.1//EN"
 "http://www.w3.org/Graphics/SVG/1.1/DTD/svg11.dtd">
<!-- Generated by graphviz version 2.40.1 (20161225.0304)
 -->
<!-- Title: coresoftware/blob/master/offline/packages/NodeDump/DumpPHG4CylinderCellGeomContainer.h Pages: 1 -->
<svg width="236pt" height="167pt"
 viewBox="0.00 0.00 236.00 167.00" xmlns="http://www.w3.org/2000/svg" xmlns:xlink="http://www.w3.org/1999/xlink">
<g id="graph0" class="graph" transform="scale(1 1) rotate(0) translate(4 163)">
<title>coresoftware/blob/master/offline/packages/NodeDump/DumpPHG4CylinderCellGeomContainer.h</title>
<!-- Node1 -->
<g id="node1" class="node">
<title>Node1</title>
<polygon fill="#bfbfbf" stroke="#000000" points="0,-114.5 0,-158.5 228,-158.5 228,-114.5 0,-114.5"/>
<text text-anchor="start" x="8" y="-145.5" font-family="FreeSans" font-size="10.00" fill="#000000">coresoftware/blob/master</text>
<text text-anchor="start" x="8" y="-133.5" font-family="FreeSans" font-size="10.00" fill="#000000">/offline/packages/NodeDump</text>
<text text-anchor="middle" x="114" y="-121.5" font-family="FreeSans" font-size="10.00" fill="#000000">/DumpPHG4CylinderCellGeomContainer.h</text>
</g>
<!-- Node2 -->
<g id="node2" class="node">
<title>Node2</title>
<g id="a_node2"><a xlink:href="../../d5/dcd/DumpObject_8h.html" target="_top" xlink:title="DumpObject.h">
<polygon fill="none" stroke="#000000" points="33.5,-57.5 33.5,-77.5 122.5,-77.5 122.5,-57.5 33.5,-57.5"/>
<text text-anchor="middle" x="78" y="-64.5" font-family="FreeSans" font-size="10.00" fill="#000000">DumpObject.h</text>
</a>
</g>
</g>
<!-- Node1&#45;&gt;Node2 -->
<g id="edge1" class="edge">
<title>Node1&#45;&gt;Node2</title>
<path fill="none" stroke="#191970" d="M102.4112,-114.2882C97.8018,-105.4535 92.5473,-95.3823 88.0969,-86.8525"/>
<polygon fill="#191970" stroke="#191970" points="91.0576,-84.9605 83.3289,-77.7137 84.8515,-88.1985 91.0576,-84.9605"/>
</g>
<!-- Node4 -->
<g id="node4" class="node">
<title>Node4</title>
<polygon fill="none" stroke="#bfbfbf" points="124.5,-.5 124.5,-20.5 169.5,-20.5 169.5,-.5 124.5,-.5"/>
<text text-anchor="middle" x="147" y="-7.5" font-family="FreeSans" font-size="10.00" fill="#000000">string</text>
</g>
<!-- Node1&#45;&gt;Node4 -->
<g id="edge4" class="edge">
<title>Node1&#45;&gt;Node4</title>
<path fill="none" stroke="#191970" d="M120.7205,-114.3495C123.958,-103.4397 127.8184,-90.0678 131,-78 135.1736,-62.1693 139.4263,-44.1182 142.4972,-30.6686"/>
<polygon fill="#191970" stroke="#191970" points="145.9815,-31.1283 144.7712,-20.6028 139.1535,-29.5857 145.9815,-31.1283"/>
</g>
<!-- Node3 -->
<g id="node3" class="node">
<title>Node3</title>
<polygon fill="none" stroke="#bfbfbf" points="54,-.5 54,-20.5 102,-20.5 102,-.5 54,-.5"/>
<text text-anchor="middle" x="78" y="-7.5" font-family="FreeSans" font-size="10.00" fill="#000000">iosfwd</text>
</g>
<!-- Node2&#45;&gt;Node3 -->
<g id="edge2" class="edge">
<title>Node2&#45;&gt;Node3</title>
<path fill="none" stroke="#191970" d="M78,-57.3095C78,-49.9335 78,-39.72 78,-30.715"/>
<polygon fill="#191970" stroke="#191970" points="81.5001,-30.6022 78,-20.6022 74.5001,-30.6023 81.5001,-30.6022"/>
</g>
<!-- Node2&#45;&gt;Node4 -->
<g id="edge3" class="edge">
<title>Node2&#45;&gt;Node4</title>
<path fill="none" stroke="#191970" d="M90.3358,-57.3095C100.4422,-48.9608 114.949,-36.9769 126.7541,-27.2249"/>
<polygon fill="#191970" stroke="#191970" points="129.2904,-29.6695 134.771,-20.6022 124.8322,-24.2727 129.2904,-29.6695"/>
</g>
</g>
</svg>
