<?xml version="1.0" encoding="UTF-8" standalone="no"?>
<!DOCTYPE svg PUBLIC "-//W3C//DTD SVG 1.1//EN"
 "http://www.w3.org/Graphics/SVG/1.1/DTD/svg11.dtd">
<!-- Generated by graphviz version 2.40.1 (20161225.0304)
 -->
<!-- Title: PHG4GenHit Pages: 1 -->
<svg width="160pt" height="295pt"
 viewBox="0.00 0.00 159.50 295.00" xmlns="http://www.w3.org/2000/svg" xmlns:xlink="http://www.w3.org/1999/xlink">
<g id="graph0" class="graph" transform="scale(1 1) rotate(0) translate(4 291)">
<title>PHG4GenHit</title>
<!-- Node1 -->
<g id="node1" class="node">
<title>Node1</title>
<polygon fill="#bfbfbf" stroke="#000000" points="9.5,-.5 9.5,-20.5 89.5,-20.5 89.5,-.5 9.5,-.5"/>
<text text-anchor="middle" x="49.5" y="-7.5" font-family="FreeSans" font-size="10.00" fill="#000000">PHG4GenHit</text>
</g>
<!-- Node2 -->
<g id="node2" class="node">
<title>Node2</title>
<g id="a_node2"><a xlink:href="../../d0/d32/classSubsysReco.html" target="_top" xlink:title="SubsysReco">
<polygon fill="none" stroke="#000000" points="65.5,-58.5 65.5,-78.5 141.5,-78.5 141.5,-58.5 65.5,-58.5"/>
<text text-anchor="middle" x="103.5" y="-65.5" font-family="FreeSans" font-size="10.00" fill="#000000">SubsysReco</text>
</a>
</g>
</g>
<!-- Node2&#45;&gt;Node1 -->
<g id="edge1" class="edge">
<title>Node2&#45;&gt;Node1</title>
<path fill="none" stroke="#191970" d="M87.2704,-51.0682C78.1059,-41.2249 66.9613,-29.2548 59.1619,-20.8776"/>
<polygon fill="#191970" stroke="#191970" points="84.7181,-53.4632 94.0939,-58.3972 89.8413,-48.6932 84.7181,-53.4632"/>
</g>
<!-- Node3 -->
<g id="node3" class="node">
<title>Node3</title>
<g id="a_node3"><a xlink:href="../../d5/dec/classFun4AllBase.html" target="_top" xlink:title="Fun4AllBase">
<polygon fill="none" stroke="#000000" points="65.5,-127.5 65.5,-147.5 143.5,-147.5 143.5,-127.5 65.5,-127.5"/>
<text text-anchor="middle" x="104.5" y="-134.5" font-family="FreeSans" font-size="10.00" fill="#000000">Fun4AllBase</text>
</a>
</g>
</g>
<!-- Node3&#45;&gt;Node2 -->
<g id="edge2" class="edge">
<title>Node3&#45;&gt;Node2</title>
<path fill="none" stroke="#191970" d="M104.2061,-117.2177C104.0227,-104.5684 103.7946,-88.8285 103.6482,-78.723"/>
<polygon fill="#191970" stroke="#191970" points="100.7078,-117.3706 104.3524,-127.3188 107.7071,-117.2691 100.7078,-117.3706"/>
</g>
<!-- Node4 -->
<g id="node4" class="node">
<title>Node4</title>
<g id="a_node4"><a xlink:title="STL class.">
<polygon fill="none" stroke="#bfbfbf" points="20,-196.5 20,-216.5 87,-216.5 87,-196.5 20,-196.5"/>
<text text-anchor="middle" x="53.5" y="-203.5" font-family="FreeSans" font-size="10.00" fill="#000000">std::string</text>
</a>
</g>
</g>
<!-- Node4&#45;&gt;Node1 -->
<g id="edge5" class="edge">
<title>Node4&#45;&gt;Node1</title>
<path fill="none" stroke="#9a32cd" stroke-dasharray="5,2" d="M53.0862,-186.2242C52.2399,-144.7539 50.3377,-51.5492 49.7074,-20.6603"/>
<polygon fill="#9a32cd" stroke="#9a32cd" points="49.5872,-186.3117 53.2906,-196.2382 56.5857,-186.1688 49.5872,-186.3117"/>
<text text-anchor="middle" x="75" y="-100" font-family="FreeSans" font-size="10.00" fill="#000000"> detector</text>
</g>
<!-- Node4&#45;&gt;Node3 -->
<g id="edge3" class="edge">
<title>Node4&#45;&gt;Node3</title>
<path fill="none" stroke="#9a32cd" stroke-dasharray="5,2" d="M67.093,-188.1095C76.655,-175.1726 89.0974,-158.3388 96.9439,-147.723"/>
<polygon fill="#9a32cd" stroke="#9a32cd" points="64.1546,-186.1966 61.0252,-196.3188 69.7838,-190.3574 64.1546,-186.1966"/>
<text text-anchor="middle" x="116.5" y="-169" font-family="FreeSans" font-size="10.00" fill="#000000"> m_ThisName</text>
</g>
<!-- Node5 -->
<g id="node5" class="node">
<title>Node5</title>
<g id="a_node5"><a xlink:title="STL class.">
<polygon fill="none" stroke="#bfbfbf" points="0,-254.5 0,-286.5 107,-286.5 107,-254.5 0,-254.5"/>
<text text-anchor="start" x="8" y="-273.5" font-family="FreeSans" font-size="10.00" fill="#000000">std::basic_string&lt;</text>
<text text-anchor="middle" x="53.5" y="-261.5" font-family="FreeSans" font-size="10.00" fill="#000000"> char &gt;</text>
</a>
</g>
</g>
<!-- Node5&#45;&gt;Node4 -->
<g id="edge4" class="edge">
<title>Node5&#45;&gt;Node4</title>
<path fill="none" stroke="#191970" d="M53.5,-244.2639C53.5,-234.5394 53.5,-224.0805 53.5,-216.641"/>
<polygon fill="#191970" stroke="#191970" points="50.0001,-244.3501 53.5,-254.3501 57.0001,-244.3501 50.0001,-244.3501"/>
</g>
</g>
</svg>
