<?xml version="1.0" encoding="UTF-8" standalone="no"?>
<!DOCTYPE svg PUBLIC "-//W3C//DTD SVG 1.1//EN"
 "http://www.w3.org/Graphics/SVG/1.1/DTD/svg11.dtd">
<!-- Generated by graphviz version 2.40.1 (20161225.0304)
 -->
<!-- Title: coresoftware/blob/master/simulation/g4simulation/g4main/PHG4UIsession.h Pages: 1 -->
<svg width="324pt" height="134pt"
 viewBox="0.00 0.00 324.00 134.00" xmlns="http://www.w3.org/2000/svg" xmlns:xlink="http://www.w3.org/1999/xlink">
<g id="graph0" class="graph" transform="scale(1 1) rotate(0) translate(4 130)">
<title>coresoftware/blob/master/simulation/g4simulation/g4main/PHG4UIsession.h</title>
<!-- Node1 -->
<g id="node1" class="node">
<title>Node1</title>
<polygon fill="#bfbfbf" stroke="#000000" points="82.5,-81.5 82.5,-125.5 229.5,-125.5 229.5,-81.5 82.5,-81.5"/>
<text text-anchor="start" x="90.5" y="-112.5" font-family="FreeSans" font-size="10.00" fill="#000000">coresoftware/blob/master</text>
<text text-anchor="start" x="90.5" y="-100.5" font-family="FreeSans" font-size="10.00" fill="#000000">/simulation/g4simulation</text>
<text text-anchor="middle" x="156" y="-88.5" font-family="FreeSans" font-size="10.00" fill="#000000">/g4main/PHG4UIsession.h</text>
</g>
<!-- Node2 -->
<g id="node2" class="node">
<title>Node2</title>
<g id="a_node2"><a xlink:href="../../d2/dcb/PHG4Reco_8cc.html" target="_top" xlink:title="coresoftware/blob/master\l/simulation/g4simulation\l/g4main/PHG4Reco.cc">
<polygon fill="none" stroke="#000000" points="0,-.5 0,-44.5 146,-44.5 146,-.5 0,-.5"/>
<text text-anchor="start" x="8" y="-31.5" font-family="FreeSans" font-size="10.00" fill="#000000">coresoftware/blob/master</text>
<text text-anchor="start" x="8" y="-19.5" font-family="FreeSans" font-size="10.00" fill="#000000">/simulation/g4simulation</text>
<text text-anchor="middle" x="73" y="-7.5" font-family="FreeSans" font-size="10.00" fill="#000000">/g4main/PHG4Reco.cc</text>
</a>
</g>
</g>
<!-- Node1&#45;&gt;Node2 -->
<g id="edge1" class="edge">
<title>Node1&#45;&gt;Node2</title>
<path fill="none" stroke="#191970" d="M125.9118,-74.1368C115.9249,-64.3906 104.9821,-53.7114 95.6527,-44.6068"/>
<polygon fill="#191970" stroke="#191970" points="123.7186,-76.8869 133.3199,-81.3664 128.6076,-71.8772 123.7186,-76.8869"/>
</g>
<!-- Node3 -->
<g id="node3" class="node">
<title>Node3</title>
<g id="a_node3"><a xlink:href="../../d8/def/PHG4UIsession_8cc.html" target="_top" xlink:title="coresoftware/blob/master\l/simulation/g4simulation\l/g4main/PHG4UIsession.cc">
<polygon fill="none" stroke="#000000" points="164,-.5 164,-44.5 316,-44.5 316,-.5 164,-.5"/>
<text text-anchor="start" x="172" y="-31.5" font-family="FreeSans" font-size="10.00" fill="#000000">coresoftware/blob/master</text>
<text text-anchor="start" x="172" y="-19.5" font-family="FreeSans" font-size="10.00" fill="#000000">/simulation/g4simulation</text>
<text text-anchor="middle" x="240" y="-7.5" font-family="FreeSans" font-size="10.00" fill="#000000">/g4main/PHG4UIsession.cc</text>
</a>
</g>
</g>
<!-- Node1&#45;&gt;Node3 -->
<g id="edge2" class="edge">
<title>Node1&#45;&gt;Node3</title>
<path fill="none" stroke="#191970" d="M186.1537,-74.4232C196.3406,-64.6001 207.54,-53.8007 217.0744,-44.6068"/>
<polygon fill="#191970" stroke="#191970" points="183.7224,-71.9055 178.9534,-81.3664 188.5813,-76.9445 183.7224,-71.9055"/>
</g>
</g>
</svg>
