<?xml version="1.0" encoding="UTF-8" standalone="no"?>
<!DOCTYPE svg PUBLIC "-//W3C//DTD SVG 1.1//EN"
 "http://www.w3.org/Graphics/SVG/1.1/DTD/svg11.dtd">
<!-- Generated by graphviz version 2.40.1 (20161225.0304)
 -->
<!-- Title: PHGeomTGeo::GetGeometry Pages: 1 -->
<svg width="953pt" height="737pt"
 viewBox="0.00 0.00 953.00 737.00" xmlns="http://www.w3.org/2000/svg" xmlns:xlink="http://www.w3.org/1999/xlink">
<g id="graph0" class="graph" transform="scale(1 1) rotate(0) translate(4 733)">
<title>PHGeomTGeo::GetGeometry</title>
<!-- Node1 -->
<g id="node1" class="node">
<title>Node1</title>
<polygon fill="#bfbfbf" stroke="#000000" points="0,-255.5 0,-275.5 162,-275.5 162,-255.5 0,-255.5"/>
<text text-anchor="middle" x="81" y="-262.5" font-family="FreeSans" font-size="10.00" fill="#000000">PHGeomTGeo::GetGeometry</text>
</g>
<!-- Node2 -->
<g id="node2" class="node">
<title>Node2</title>
<g id="a_node2"><a xlink:href="../../d2/da1/classPHGeomUtility.html#aa80925b14430021ea70d0b906af8e885" target="_top" xlink:title="Main user interface: DST node &#45;&gt; TGeoManager for downstream use.">
<polygon fill="none" stroke="#000000" points="198,-418.5 198,-438.5 383,-438.5 383,-418.5 198,-418.5"/>
<text text-anchor="middle" x="290.5" y="-425.5" font-family="FreeSans" font-size="10.00" fill="#000000">PHGeomUtility::GetTGeoManager</text>
</a>
</g>
</g>
<!-- Node1&#45;&gt;Node2 -->
<g id="edge1" class="edge">
<title>Node1&#45;&gt;Node2</title>
<path fill="none" stroke="#191970" d="M102.22,-282.0101C145.3648,-315.5785 242.2072,-390.9261 277.3998,-418.3075"/>
<polygon fill="#191970" stroke="#191970" points="104.147,-279.0747 94.1052,-275.6964 99.8484,-284.5995 104.147,-279.0747"/>
</g>
<!-- Node20 -->
<g id="node20" class="node">
<title>Node20</title>
<g id="a_node20"><a xlink:href="../../d2/da1/classPHGeomUtility.html#ae053065752b1bff9f63f585b6fefc68b" target="_top" xlink:title="gGeoManager &#45;&gt; DST node">
<polygon fill="none" stroke="#000000" points="207,-249.5 207,-281.5 374,-281.5 374,-249.5 207,-249.5"/>
<text text-anchor="start" x="215" y="-268.5" font-family="FreeSans" font-size="10.00" fill="#000000">PHGeomUtility::ImportCurrent</text>
<text text-anchor="middle" x="290.5" y="-256.5" font-family="FreeSans" font-size="10.00" fill="#000000">TGeoManager</text>
</a>
</g>
</g>
<!-- Node1&#45;&gt;Node20 -->
<g id="edge19" class="edge">
<title>Node1&#45;&gt;Node20</title>
<path fill="none" stroke="#191970" d="M172.311,-265.5C183.7852,-265.5 195.4782,-265.5 206.8269,-265.5"/>
<polygon fill="#191970" stroke="#191970" points="172.2981,-262.0001 162.298,-265.5 172.298,-269.0001 172.2981,-262.0001"/>
</g>
<!-- Node21 -->
<g id="node21" class="node">
<title>Node21</title>
<g id="a_node21"><a xlink:href="../../d2/da1/classPHGeomUtility.html#a4a80252bedb22198d011065e41aa669e" target="_top" xlink:title="TGeo ROOT/GDML/Macro file &#45;&gt; DST node with automatic file type discrimination based on file names...">
<polygon fill="none" stroke="#000000" points="202.5,-117.5 202.5,-137.5 378.5,-137.5 378.5,-117.5 202.5,-117.5"/>
<text text-anchor="middle" x="290.5" y="-124.5" font-family="FreeSans" font-size="10.00" fill="#000000">PHGeomUtility::ImportGeomFile</text>
</a>
</g>
</g>
<!-- Node1&#45;&gt;Node21 -->
<g id="edge20" class="edge">
<title>Node1&#45;&gt;Node21</title>
<path fill="none" stroke="#191970" d="M104.9125,-249.7486C148.3078,-221.1636 238.8796,-161.503 275.0724,-137.6623"/>
<polygon fill="#191970" stroke="#191970" points="102.8308,-246.9287 96.405,-255.3525 106.6814,-252.7744 102.8308,-246.9287"/>
</g>
<!-- Node3 -->
<g id="node3" class="node">
<title>Node3</title>
<g id="a_node3"><a xlink:href="../../d6/da6/classTrackProjectorPlaneECAL.html#afd4d26b22125159168874b18e7a5e90d" target="_top" xlink:title="TrackProjectorPlaneECAL\l::TrackProjectorPlaneECAL">
<polygon fill="none" stroke="#000000" points="426.5,-696.5 426.5,-728.5 574.5,-728.5 574.5,-696.5 426.5,-696.5"/>
<text text-anchor="start" x="434.5" y="-715.5" font-family="FreeSans" font-size="10.00" fill="#000000">TrackProjectorPlaneECAL</text>
<text text-anchor="middle" x="500.5" y="-703.5" font-family="FreeSans" font-size="10.00" fill="#000000">::TrackProjectorPlaneECAL</text>
</a>
</g>
</g>
<!-- Node2&#45;&gt;Node3 -->
<g id="edge2" class="edge">
<title>Node2&#45;&gt;Node3</title>
<path fill="none" stroke="#191970" d="M294.7258,-448.6022C305.9763,-497.1207 341.258,-621.4935 419,-687.5 423.0615,-690.9484 427.5925,-693.9214 432.3804,-696.4844"/>
<polygon fill="#191970" stroke="#191970" points="298.113,-447.71 292.5255,-438.7084 291.2799,-449.2297 298.113,-447.71"/>
</g>
<!-- Node4 -->
<g id="node4" class="node">
<title>Node4</title>
<g id="a_node4"><a xlink:href="../../d1/d04/classBDiJetModule.html#ad477f43babe85b431dac244476e609bb" target="_top" xlink:title="BDiJetModule::InitRun">
<polygon fill="none" stroke="#000000" points="438,-657.5 438,-677.5 563,-677.5 563,-657.5 438,-657.5"/>
<text text-anchor="middle" x="500.5" y="-664.5" font-family="FreeSans" font-size="10.00" fill="#000000">BDiJetModule::InitRun</text>
</a>
</g>
</g>
<!-- Node2&#45;&gt;Node4 -->
<g id="edge3" class="edge">
<title>Node2&#45;&gt;Node4</title>
<path fill="none" stroke="#191970" d="M296.2142,-448.5091C309.7611,-492.1615 348.1223,-596.2119 419,-648.5 424.6119,-652.64 430.9846,-655.8955 437.6355,-658.4526"/>
<polygon fill="#191970" stroke="#191970" points="299.5225,-447.3557 293.3001,-438.7806 292.8168,-449.3644 299.5225,-447.3557"/>
</g>
<!-- Node5 -->
<g id="node5" class="node">
<title>Node5</title>
<g id="a_node5"><a xlink:href="../../d6/da3/classTrackProjectorPid.html#a761112407aabd5a6d99ea41f41770a63" target="_top" xlink:title="TrackProjectorPid::\lTrackProjectorPid">
<polygon fill="none" stroke="#000000" points="446,-606.5 446,-638.5 555,-638.5 555,-606.5 446,-606.5"/>
<text text-anchor="start" x="454" y="-625.5" font-family="FreeSans" font-size="10.00" fill="#000000">TrackProjectorPid::</text>
<text text-anchor="middle" x="500.5" y="-613.5" font-family="FreeSans" font-size="10.00" fill="#000000">TrackProjectorPid</text>
</a>
</g>
</g>
<!-- Node2&#45;&gt;Node5 -->
<g id="edge4" class="edge">
<title>Node2&#45;&gt;Node5</title>
<path fill="none" stroke="#191970" d="M299.9414,-447.7889C318.0905,-482.8663 361.2234,-557.1903 419,-597.5 427.011,-603.0891 436.3084,-607.458 445.6964,-610.8644"/>
<polygon fill="#191970" stroke="#191970" points="302.9413,-445.9652 295.307,-438.6189 296.6938,-449.1226 302.9413,-445.9652"/>
</g>
<!-- Node6 -->
<g id="node6" class="node">
<title>Node6</title>
<g id="a_node6"><a xlink:href="../../d6/d17/classSVReco.html#a9581ef99bcb8afd9c1c08b1a37d4f033" target="_top" xlink:title="Initialization Run, called for initialization of a run.">
<polygon fill="none" stroke="#000000" points="452.5,-567.5 452.5,-587.5 548.5,-587.5 548.5,-567.5 452.5,-567.5"/>
<text text-anchor="middle" x="500.5" y="-574.5" font-family="FreeSans" font-size="10.00" fill="#000000">SVReco::InitRun</text>
</a>
</g>
</g>
<!-- Node2&#45;&gt;Node6 -->
<g id="edge5" class="edge">
<title>Node2&#45;&gt;Node6</title>
<path fill="none" stroke="#191970" d="M303.4642,-447.184C324.3484,-475.7935 368.271,-530.1163 419,-558.5 429.1432,-564.1753 440.9059,-568.159 452.2853,-570.9541"/>
<polygon fill="#191970" stroke="#191970" points="306.178,-444.9619 297.5137,-438.8642 300.4844,-449.0341 306.178,-444.9619"/>
</g>
<!-- Node10 -->
<g id="node10" class="node">
<title>Node10</title>
<g id="a_node10"><a xlink:href="../../dc/dfb/classGenFitTrackProp.html#a39295a5055bdd8a9842f4ed53b6652ce" target="_top" xlink:title="GenFitTrackProp::InitRun">
<polygon fill="none" stroke="#000000" points="431,-528.5 431,-548.5 570,-548.5 570,-528.5 431,-528.5"/>
<text text-anchor="middle" x="500.5" y="-535.5" font-family="FreeSans" font-size="10.00" fill="#000000">GenFitTrackProp::InitRun</text>
</a>
</g>
</g>
<!-- Node2&#45;&gt;Node10 -->
<g id="edge9" class="edge">
<title>Node2&#45;&gt;Node10</title>
<path fill="none" stroke="#191970" d="M309.1789,-445.3239C332.9774,-465.8657 376.1801,-500.2434 419,-519.5 426.9503,-523.0753 435.6508,-526.0184 444.3132,-528.4293"/>
<polygon fill="#191970" stroke="#191970" points="311.4297,-442.6425 301.6028,-438.6824 306.8153,-447.9063 311.4297,-442.6425"/>
</g>
<!-- Node11 -->
<g id="node11" class="node">
<title>Node11</title>
<g id="a_node11"><a xlink:href="../../d6/deb/PHGeom__DSTInspection_8C.html#a8a06a40e2950cd31dda512c040049cd0" target="_top" xlink:title="PHGeom_DSTInspection">
<polygon fill="none" stroke="#000000" points="432,-489.5 432,-509.5 569,-509.5 569,-489.5 432,-489.5"/>
<text text-anchor="middle" x="500.5" y="-496.5" font-family="FreeSans" font-size="10.00" fill="#000000">PHGeom_DSTInspection</text>
</a>
</g>
</g>
<!-- Node2&#45;&gt;Node11 -->
<g id="edge10" class="edge">
<title>Node2&#45;&gt;Node11</title>
<path fill="none" stroke="#191970" d="M321.6412,-442.6938C347.3601,-454.027 385.0259,-469.7376 419,-480.5 429.5263,-483.8345 440.9856,-486.8638 451.8962,-489.4751"/>
<polygon fill="#191970" stroke="#191970" points="322.9612,-439.4503 312.4018,-438.584 320.1162,-445.8461 322.9612,-439.4503"/>
</g>
<!-- Node12 -->
<g id="node12" class="node">
<title>Node12</title>
<g id="a_node12"><a xlink:href="../../db/dc4/classPHGenFitTrackProjection.html#ae2e85a8af68c6564ef33a4b85ecc17bd" target="_top" xlink:title="PHGenFitTrackProjection\l::InitRun">
<polygon fill="none" stroke="#000000" points="431.5,-438.5 431.5,-470.5 569.5,-470.5 569.5,-438.5 431.5,-438.5"/>
<text text-anchor="start" x="439.5" y="-457.5" font-family="FreeSans" font-size="10.00" fill="#000000">PHGenFitTrackProjection</text>
<text text-anchor="middle" x="500.5" y="-445.5" font-family="FreeSans" font-size="10.00" fill="#000000">::InitRun</text>
</a>
</g>
</g>
<!-- Node2&#45;&gt;Node12 -->
<g id="edge11" class="edge">
<title>Node2&#45;&gt;Node12</title>
<path fill="none" stroke="#191970" d="M381.6701,-439.7877C398.3012,-441.8468 415.4033,-443.9642 431.2682,-445.9284"/>
<polygon fill="#191970" stroke="#191970" points="381.7454,-436.2704 371.3911,-438.5151 380.8852,-443.2174 381.7454,-436.2704"/>
</g>
<!-- Node13 -->
<g id="node13" class="node">
<title>Node13</title>
<g id="a_node13"><a xlink:href="../../de/d25/classPHGenFitTrkFitter.html#a536b356cbf3e4a2dacccd5e0f630f8fe" target="_top" xlink:title="Initialization Run, called for initialization of a run.">
<polygon fill="none" stroke="#000000" points="446,-387.5 446,-419.5 555,-419.5 555,-387.5 446,-387.5"/>
<text text-anchor="start" x="454" y="-406.5" font-family="FreeSans" font-size="10.00" fill="#000000">PHGenFitTrkFitter::</text>
<text text-anchor="middle" x="500.5" y="-394.5" font-family="FreeSans" font-size="10.00" fill="#000000">InitRun</text>
</a>
</g>
</g>
<!-- Node2&#45;&gt;Node13 -->
<g id="edge12" class="edge">
<title>Node2&#45;&gt;Node13</title>
<path fill="none" stroke="#191970" d="M384.889,-417.2632C405.7564,-414.779 427.1885,-412.2276 445.8432,-410.0068"/>
<polygon fill="#191970" stroke="#191970" points="384.2211,-413.8179 374.705,-418.4756 385.0487,-420.7688 384.2211,-413.8179"/>
</g>
<!-- Node14 -->
<g id="node14" class="node">
<title>Node14</title>
<g id="a_node14"><a xlink:href="../../d0/d22/classPHGenFitTrkProp.html#afd241a99a51303034f264a659ade7c16" target="_top" xlink:title="track propagation">
<polygon fill="none" stroke="#000000" points="426.5,-336.5 426.5,-368.5 574.5,-368.5 574.5,-336.5 426.5,-336.5"/>
<text text-anchor="start" x="434.5" y="-355.5" font-family="FreeSans" font-size="10.00" fill="#000000">PHGenFitTrkProp::Initialize</text>
<text text-anchor="middle" x="500.5" y="-343.5" font-family="FreeSans" font-size="10.00" fill="#000000">PHGenFit</text>
</a>
</g>
</g>
<!-- Node2&#45;&gt;Node14 -->
<g id="edge13" class="edge">
<title>Node2&#45;&gt;Node14</title>
<path fill="none" stroke="#191970" d="M324.2938,-414.687C350.0842,-404.3073 386.5808,-389.9659 419,-378.5 428.5213,-375.1325 438.7348,-371.7196 448.6009,-368.5229"/>
<polygon fill="#191970" stroke="#191970" points="322.9247,-411.4652 314.9643,-418.4569 325.5473,-417.9554 322.9247,-411.4652"/>
</g>
<!-- Node16 -->
<g id="node16" class="node">
<title>Node16</title>
<g id="a_node16"><a xlink:href="../../d5/daa/classPHRaveVertexing.html#a4b74b109c0056a629fedf577a71dfbeb" target="_top" xlink:title="Initialization Run, called for initialization of a run.">
<polygon fill="none" stroke="#000000" points="428,-297.5 428,-317.5 573,-317.5 573,-297.5 428,-297.5"/>
<text text-anchor="middle" x="500.5" y="-304.5" font-family="FreeSans" font-size="10.00" fill="#000000">PHRaveVertexing::InitRun</text>
</a>
</g>
</g>
<!-- Node2&#45;&gt;Node16 -->
<g id="edge15" class="edge">
<title>Node2&#45;&gt;Node16</title>
<path fill="none" stroke="#191970" d="M307.4156,-411.2241C330.5396,-388.6085 374.2765,-349.2913 419,-327.5 427.2512,-323.4796 436.3771,-320.2268 445.4474,-317.6072"/>
<polygon fill="#191970" stroke="#191970" points="304.7511,-408.9378 300.1282,-418.4709 309.687,-413.9014 304.7511,-408.9378"/>
</g>
<!-- Node17 -->
<g id="node17" class="node">
<title>Node17</title>
<g id="a_node17"><a xlink:href="../../d9/d91/classPHG4TrackFastSim.html#a17dc5842cbcfb29af50a12af173c82c8" target="_top" xlink:title="Initialization Run, called for initialization of a run.">
<polygon fill="none" stroke="#000000" points="424.5,-258.5 424.5,-278.5 576.5,-278.5 576.5,-258.5 424.5,-258.5"/>
<text text-anchor="middle" x="500.5" y="-265.5" font-family="FreeSans" font-size="10.00" fill="#000000">PHG4TrackFastSim::InitRun</text>
</a>
</g>
</g>
<!-- Node2&#45;&gt;Node17 -->
<g id="edge16" class="edge">
<title>Node2&#45;&gt;Node17</title>
<path fill="none" stroke="#191970" d="M302.2947,-409.7255C322.3896,-379.3575 366.254,-319.719 419,-288.5 425.8957,-284.4186 433.5903,-281.1678 441.4222,-278.579"/>
<polygon fill="#191970" stroke="#191970" points="299.3388,-407.851 296.8379,-418.1464 305.2133,-411.6577 299.3388,-407.851"/>
</g>
<!-- Node18 -->
<g id="node18" class="node">
<title>Node18</title>
<g id="a_node18"><a xlink:href="../../d2/d9a/classTpcPrototypeGenFitTrkFinder.html#aedc906b40d8ee58daccf0d1af2607097" target="_top" xlink:title="Initialization Run, called for initialization of a run.">
<polygon fill="none" stroke="#000000" points="419,-207.5 419,-239.5 582,-239.5 582,-207.5 419,-207.5"/>
<text text-anchor="start" x="427" y="-226.5" font-family="FreeSans" font-size="10.00" fill="#000000">TpcPrototypeGenFitTrkFinder</text>
<text text-anchor="middle" x="500.5" y="-214.5" font-family="FreeSans" font-size="10.00" fill="#000000">::InitRun</text>
</a>
</g>
</g>
<!-- Node2&#45;&gt;Node18 -->
<g id="edge17" class="edge">
<title>Node2&#45;&gt;Node18</title>
<path fill="none" stroke="#191970" d="M303.0826,-409.5903C332.284,-365.913 403.36,-260.8673 419,-249.5 424.2861,-245.658 430.1627,-242.3686 436.2707,-239.5554"/>
<polygon fill="#191970" stroke="#191970" points="300.0085,-407.8914 297.3694,-418.1523 305.8313,-411.7768 300.0085,-407.8914"/>
</g>
<!-- Node19 -->
<g id="node19" class="node">
<title>Node19</title>
<g id="a_node19"><a xlink:href="../../df/dd7/classTpcPrototypeGenFitTrkFitter.html#a2d3c68df992c760d4a106a28401471c6" target="_top" xlink:title="Initialization Run, called for initialization of a run.">
<polygon fill="none" stroke="#000000" points="422,-156.5 422,-188.5 579,-188.5 579,-156.5 422,-156.5"/>
<text text-anchor="start" x="430" y="-175.5" font-family="FreeSans" font-size="10.00" fill="#000000">TpcPrototypeGenFitTrkFitter</text>
<text text-anchor="middle" x="500.5" y="-163.5" font-family="FreeSans" font-size="10.00" fill="#000000">::InitRun</text>
</a>
</g>
</g>
<!-- Node2&#45;&gt;Node19 -->
<g id="edge18" class="edge">
<title>Node2&#45;&gt;Node19</title>
<path fill="none" stroke="#191970" d="M304.729,-410.3245C324.2126,-384.8406 359.4555,-336.5483 383,-291.5 403.53,-252.2194 386.7257,-228.8778 419,-198.5 423.1096,-194.6319 427.7949,-191.3392 432.7945,-188.5364"/>
<polygon fill="#191970" stroke="#191970" points="301.8784,-408.2896 298.5396,-418.3446 307.42,-412.5663 301.8784,-408.2896"/>
</g>
<!-- Node7 -->
<g id="node7" class="node">
<title>Node7</title>
<g id="a_node7"><a xlink:href="../../df/d9b/classRecoConversionEval.html#a03477928e8acf96769e1958d74907437" target="_top" xlink:title="RecoConversionEval\l::InitRun">
<polygon fill="none" stroke="#000000" points="634.5,-612.5 634.5,-644.5 753.5,-644.5 753.5,-612.5 634.5,-612.5"/>
<text text-anchor="start" x="642.5" y="-631.5" font-family="FreeSans" font-size="10.00" fill="#000000">RecoConversionEval</text>
<text text-anchor="middle" x="694" y="-619.5" font-family="FreeSans" font-size="10.00" fill="#000000">::InitRun</text>
</a>
</g>
</g>
<!-- Node6&#45;&gt;Node7 -->
<g id="edge6" class="edge">
<title>Node6&#45;&gt;Node7</title>
<path fill="none" stroke="#191970" d="M552.1858,-589.9409C562.0952,-592.3948 572.379,-594.9886 582,-597.5 600.0573,-602.2135 619.6879,-607.5681 637.3973,-612.4851"/>
<polygon fill="#191970" stroke="#191970" points="552.9864,-586.5336 542.4397,-587.542 551.3133,-593.3307 552.9864,-586.5336"/>
</g>
<!-- Node8 -->
<g id="node8" class="node">
<title>Node8</title>
<g id="a_node8"><a xlink:href="../../d9/d3a/classTruthConversionEval.html#a91521ac566817eac601239e4cb8df5b7" target="_top" xlink:title="TruthConversionEval\l::InitRun">
<polygon fill="none" stroke="#000000" points="633.5,-561.5 633.5,-593.5 754.5,-593.5 754.5,-561.5 633.5,-561.5"/>
<text text-anchor="start" x="641.5" y="-580.5" font-family="FreeSans" font-size="10.00" fill="#000000">TruthConversionEval</text>
<text text-anchor="middle" x="694" y="-568.5" font-family="FreeSans" font-size="10.00" fill="#000000">::InitRun</text>
</a>
</g>
</g>
<!-- Node6&#45;&gt;Node8 -->
<g id="edge7" class="edge">
<title>Node6&#45;&gt;Node8</title>
<path fill="none" stroke="#191970" d="M559.0242,-577.5C582.573,-577.5 609.722,-577.5 633.4689,-577.5"/>
<polygon fill="#191970" stroke="#191970" points="558.8291,-574.0001 548.8291,-577.5 558.829,-581.0001 558.8291,-574.0001"/>
</g>
<!-- Node9 -->
<g id="node9" class="node">
<title>Node9</title>
<g id="a_node9"><a xlink:href="../../d2/d6d/classVtxTest.html#a5901bc48ee02bf2495a9d916f7772af3" target="_top" xlink:title="VtxTest::InitRun">
<polygon fill="none" stroke="#000000" points="646,-522.5 646,-542.5 742,-542.5 742,-522.5 646,-522.5"/>
<text text-anchor="middle" x="694" y="-529.5" font-family="FreeSans" font-size="10.00" fill="#000000">VtxTest::InitRun</text>
</a>
</g>
</g>
<!-- Node6&#45;&gt;Node9 -->
<g id="edge8" class="edge">
<title>Node6&#45;&gt;Node9</title>
<path fill="none" stroke="#191970" d="M553.9587,-565.0677C584.4302,-557.9814 622.1191,-549.2165 650.7198,-542.5652"/>
<polygon fill="#191970" stroke="#191970" points="552.8724,-561.7269 543.9252,-567.4011 554.4581,-568.5449 552.8724,-561.7269"/>
</g>
<!-- Node15 -->
<g id="node15" class="node">
<title>Node15</title>
<g id="a_node15"><a xlink:href="../../d0/d22/classPHGenFitTrkProp.html#a42d0f2ddae533d29e577380295a737d3" target="_top" xlink:title="PHGenFitTrkProp::Setup">
<polygon fill="none" stroke="#000000" points="626.5,-342.5 626.5,-362.5 761.5,-362.5 761.5,-342.5 626.5,-342.5"/>
<text text-anchor="middle" x="694" y="-349.5" font-family="FreeSans" font-size="10.00" fill="#000000">PHGenFitTrkProp::Setup</text>
</a>
</g>
</g>
<!-- Node14&#45;&gt;Node15 -->
<g id="edge14" class="edge">
<title>Node14&#45;&gt;Node15</title>
<path fill="none" stroke="#191970" d="M584.7829,-352.5C598.6566,-352.5 612.8782,-352.5 626.2806,-352.5"/>
<polygon fill="#191970" stroke="#191970" points="584.7588,-349.0001 574.7588,-352.5 584.7587,-356.0001 584.7588,-349.0001"/>
</g>
<!-- Node22 -->
<g id="node22" class="node">
<title>Node22</title>
<g id="a_node22"><a xlink:href="../../de/d0f/classPHGeomFileImport.html#aec25f7186f832f7d3bf4c5cce29fcd3b" target="_top" xlink:title="PHGeomFileImport::InitRun">
<polygon fill="none" stroke="#000000" points="424.5,-117.5 424.5,-137.5 576.5,-137.5 576.5,-117.5 424.5,-117.5"/>
<text text-anchor="middle" x="500.5" y="-124.5" font-family="FreeSans" font-size="10.00" fill="#000000">PHGeomFileImport::InitRun</text>
</a>
</g>
</g>
<!-- Node21&#45;&gt;Node22 -->
<g id="edge21" class="edge">
<title>Node21&#45;&gt;Node22</title>
<path fill="none" stroke="#191970" d="M389.0042,-127.5C400.8407,-127.5 412.7876,-127.5 424.2403,-127.5"/>
<polygon fill="#191970" stroke="#191970" points="388.6462,-124.0001 378.6461,-127.5 388.6461,-131.0001 388.6462,-124.0001"/>
</g>
<!-- Node23 -->
<g id="node23" class="node">
<title>Node23</title>
<g id="a_node23"><a xlink:href="../../d0/d78/classPHG4Reco.html#a9d8228ce8682c19cd6be2f6b44ec847b" target="_top" xlink:title="PHG4Reco::InitRun">
<polygon fill="none" stroke="#000000" points="445.5,-78.5 445.5,-98.5 555.5,-98.5 555.5,-78.5 445.5,-78.5"/>
<text text-anchor="middle" x="500.5" y="-85.5" font-family="FreeSans" font-size="10.00" fill="#000000">PHG4Reco::InitRun</text>
</a>
</g>
</g>
<!-- Node21&#45;&gt;Node23 -->
<g id="edge22" class="edge">
<title>Node21&#45;&gt;Node23</title>
<path fill="none" stroke="#191970" d="M354.7487,-115.5681C384.1444,-110.1089 418.584,-103.713 446.603,-98.5094"/>
<polygon fill="#191970" stroke="#191970" points="353.773,-112.1894 344.5802,-117.4565 355.0512,-119.0717 353.773,-112.1894"/>
</g>
<!-- Node24 -->
<g id="node24" class="node">
<title>Node24</title>
<g id="a_node24"><a xlink:href="../../db/d89/ConstructGeometry_8C.html#a21c369835643f1016f506a3da3b8d446" target="_top" xlink:title="ConstructGeometry">
<polygon fill="none" stroke="#000000" points="636.5,-156.5 636.5,-176.5 751.5,-176.5 751.5,-156.5 636.5,-156.5"/>
<text text-anchor="middle" x="694" y="-163.5" font-family="FreeSans" font-size="10.00" fill="#000000">ConstructGeometry</text>
</a>
</g>
</g>
<!-- Node23&#45;&gt;Node24 -->
<g id="edge23" class="edge">
<title>Node23&#45;&gt;Node24</title>
<path fill="none" stroke="#191970" d="M565.5119,-100.7028C571.268,-102.8888 576.8553,-105.4648 582,-108.5 602.3168,-120.4863 597.7092,-135.4697 618,-147.5 624.0834,-151.1068 630.8312,-154.0323 637.7224,-156.4044"/>
<polygon fill="#191970" stroke="#191970" points="566.308,-97.277 555.7137,-97.3798 564.0597,-103.9062 566.308,-97.277"/>
</g>
<!-- Node25 -->
<g id="node25" class="node">
<title>Node25</title>
<g id="a_node25"><a xlink:href="../../dd/d76/macros_2blob_2master_2macros_2g4simulations_2DisplayOn_8C.html#a8ac4d6fb78f920957b354f88d6195f54" target="_top" xlink:title="DisplayOn">
<polygon fill="none" stroke="#000000" points="660,-117.5 660,-137.5 728,-137.5 728,-117.5 660,-117.5"/>
<text text-anchor="middle" x="694" y="-124.5" font-family="FreeSans" font-size="10.00" fill="#000000">DisplayOn</text>
</a>
</g>
</g>
<!-- Node23&#45;&gt;Node25 -->
<g id="edge24" class="edge">
<title>Node23&#45;&gt;Node25</title>
<path fill="none" stroke="#191970" d="M560.2541,-100.5435C592.9823,-107.1398 632.3602,-115.0765 659.881,-120.6233"/>
<polygon fill="#191970" stroke="#191970" points="560.8255,-97.0883 550.3311,-98.5435 559.4424,-103.9503 560.8255,-97.0883"/>
</g>
<!-- Node30 -->
<g id="node30" class="node">
<title>Node30</title>
<g id="a_node30"><a xlink:href="../../d4/dfa/Fun4All__Generator__Display_8C.html#af87924a94b22e18901f0d64805565f09" target="_top" xlink:title="Fun4All_Generator_Display">
<polygon fill="none" stroke="#000000" points="618,-78.5 618,-98.5 770,-98.5 770,-78.5 618,-78.5"/>
<text text-anchor="middle" x="694" y="-85.5" font-family="FreeSans" font-size="10.00" fill="#000000">Fun4All_Generator_Display</text>
</a>
</g>
</g>
<!-- Node23&#45;&gt;Node30 -->
<g id="edge29" class="edge">
<title>Node23&#45;&gt;Node30</title>
<path fill="none" stroke="#191970" d="M565.8764,-88.5C582.5583,-88.5 600.6358,-88.5 617.8074,-88.5"/>
<polygon fill="#191970" stroke="#191970" points="565.6904,-85.0001 555.6904,-88.5 565.6903,-92.0001 565.6904,-85.0001"/>
</g>
<!-- Node31 -->
<g id="node31" class="node">
<title>Node31</title>
<g id="a_node31"><a xlink:href="../../d9/d1d/matscan_8C.html#a98ccbc6135fead542f3c4d1dd6882d63" target="_top" xlink:title="matscan">
<polygon fill="none" stroke="#000000" points="664.5,-39.5 664.5,-59.5 723.5,-59.5 723.5,-39.5 664.5,-39.5"/>
<text text-anchor="middle" x="694" y="-46.5" font-family="FreeSans" font-size="10.00" fill="#000000">matscan</text>
</a>
</g>
</g>
<!-- Node23&#45;&gt;Node31 -->
<g id="edge30" class="edge">
<title>Node23&#45;&gt;Node31</title>
<path fill="none" stroke="#191970" d="M560.3065,-76.446C594.7892,-69.496 636.6395,-61.061 664.226,-55.501"/>
<polygon fill="#191970" stroke="#191970" points="559.4424,-73.0497 550.3311,-78.4565 560.8255,-79.9117 559.4424,-73.0497"/>
</g>
<!-- Node32 -->
<g id="node32" class="node">
<title>Node32</title>
<g id="a_node32"><a xlink:href="../../dd/d76/macros_2blob_2master_2macros_2g4simulations_2DisplayOn_8C.html#a36f5cc4ebb7cd23dac7e492d5c38fbc0" target="_top" xlink:title="QTGui">
<polygon fill="none" stroke="#000000" points="670.5,-.5 670.5,-20.5 717.5,-20.5 717.5,-.5 670.5,-.5"/>
<text text-anchor="middle" x="694" y="-7.5" font-family="FreeSans" font-size="10.00" fill="#000000">QTGui</text>
</a>
</g>
</g>
<!-- Node23&#45;&gt;Node32 -->
<g id="edge31" class="edge">
<title>Node23&#45;&gt;Node32</title>
<path fill="none" stroke="#191970" d="M526.3868,-73.4127C549.713,-60.33 585.2701,-41.6392 618,-29.5 635.0873,-23.1625 655.1093,-18.2538 670.3121,-15.0145"/>
<polygon fill="#191970" stroke="#191970" points="524.4492,-70.4879 517.4812,-78.469 527.9054,-76.5752 524.4492,-70.4879"/>
</g>
<!-- Node26 -->
<g id="node26" class="node">
<title>Node26</title>
<g id="a_node26"><a xlink:href="../../db/dc0/Fun4All__AnaTutorial_8C.html#a8c484ea6d7477278e981ef056b17eac9" target="_top" xlink:title="Fun4All_AnaTutorial">
<polygon fill="none" stroke="#000000" points="818,-175.5 818,-195.5 933,-195.5 933,-175.5 818,-175.5"/>
<text text-anchor="middle" x="875.5" y="-182.5" font-family="FreeSans" font-size="10.00" fill="#000000">Fun4All_AnaTutorial</text>
</a>
</g>
</g>
<!-- Node25&#45;&gt;Node26 -->
<g id="edge25" class="edge">
<title>Node25&#45;&gt;Node26</title>
<path fill="none" stroke="#191970" d="M738.1232,-137.2894C748.7144,-140.1361 759.8842,-143.5593 770,-147.5 786.8577,-154.0671 789.1738,-159.8526 806,-166.5 814.4927,-169.8551 823.7932,-172.8417 832.7503,-175.3972"/>
<polygon fill="#191970" stroke="#191970" points="738.7558,-133.8383 728.1993,-134.7387 737.0132,-140.6179 738.7558,-133.8383"/>
</g>
<!-- Node27 -->
<g id="node27" class="node">
<title>Node27</title>
<g id="a_node27"><a xlink:href="../../dd/d28/Fun4All__AnaTutorial__Jets_8C.html#a55eaaeb770a3177f917012de87877d28" target="_top" xlink:title="Fun4All_AnaTutorial_Jets">
<polygon fill="none" stroke="#000000" points="806,-136.5 806,-156.5 945,-156.5 945,-136.5 806,-136.5"/>
<text text-anchor="middle" x="875.5" y="-143.5" font-family="FreeSans" font-size="10.00" fill="#000000">Fun4All_AnaTutorial_Jets</text>
</a>
</g>
</g>
<!-- Node25&#45;&gt;Node27 -->
<g id="edge26" class="edge">
<title>Node25&#45;&gt;Node27</title>
<path fill="none" stroke="#191970" d="M738.3295,-132.1406C758.617,-134.2643 783.1401,-136.8315 805.8079,-139.2044"/>
<polygon fill="#191970" stroke="#191970" points="738.4488,-128.634 728.1388,-131.0738 737.72,-135.596 738.4488,-128.634"/>
</g>
<!-- Node28 -->
<g id="node28" class="node">
<title>Node28</title>
<g id="a_node28"><a xlink:href="../../d7/d9e/Fun4All__G4__fsPHENIX_8C.html#af48911d394d2412e817583700f2bbee2" target="_top" xlink:title="Fun4All_G4_fsPHENIX">
<polygon fill="none" stroke="#000000" points="813.5,-97.5 813.5,-117.5 937.5,-117.5 937.5,-97.5 813.5,-97.5"/>
<text text-anchor="middle" x="875.5" y="-104.5" font-family="FreeSans" font-size="10.00" fill="#000000">Fun4All_G4_fsPHENIX</text>
</a>
</g>
</g>
<!-- Node25&#45;&gt;Node28 -->
<g id="edge27" class="edge">
<title>Node25&#45;&gt;Node28</title>
<path fill="none" stroke="#191970" d="M738.1042,-122.64C760.6688,-120.1536 788.5174,-117.0849 813.2304,-114.3617"/>
<polygon fill="#191970" stroke="#191970" points="737.6952,-119.1638 728.1388,-123.7382 738.462,-126.1217 737.6952,-119.1638"/>
</g>
<!-- Node29 -->
<g id="node29" class="node">
<title>Node29</title>
<g id="a_node29"><a xlink:href="../../d5/d2c/macros_2blob_2master_2macros_2g4simulations_2Fun4All__G4__sPHENIX_8C.html#a6eaaa492d7023ec86c562dc63aa1e5a4" target="_top" xlink:title="Fun4All_G4_sPHENIX">
<polygon fill="none" stroke="#000000" points="815,-58.5 815,-78.5 936,-78.5 936,-58.5 815,-58.5"/>
<text text-anchor="middle" x="875.5" y="-65.5" font-family="FreeSans" font-size="10.00" fill="#000000">Fun4All_G4_sPHENIX</text>
</a>
</g>
</g>
<!-- Node25&#45;&gt;Node29 -->
<g id="edge28" class="edge">
<title>Node25&#45;&gt;Node29</title>
<path fill="none" stroke="#191970" d="M738.1945,-118.5286C748.7834,-115.8135 759.9342,-112.4742 770,-108.5 787.0244,-101.7783 789.0966,-95.5204 806,-88.5 815.1603,-84.6955 825.2855,-81.3345 834.9077,-78.5055"/>
<polygon fill="#191970" stroke="#191970" points="737.1588,-115.1783 728.2682,-120.9408 738.8119,-121.9804 737.1588,-115.1783"/>
</g>
</g>
</svg>
