<?xml version="1.0" encoding="UTF-8" standalone="no"?>
<!DOCTYPE svg PUBLIC "-//W3C//DTD SVG 1.1//EN"
 "http://www.w3.org/Graphics/SVG/1.1/DTD/svg11.dtd">
<!-- Generated by graphviz version 2.40.1 (20161225.0304)
 -->
<!-- Title: RawTowerBuilder::process_event Pages: 1 -->
<svg width="536pt" height="1121pt"
 viewBox="0.00 0.00 536.00 1121.00" xmlns="http://www.w3.org/2000/svg" xmlns:xlink="http://www.w3.org/1999/xlink">
<g id="graph0" class="graph" transform="scale(1 1) rotate(0) translate(4 1117)">
<title>RawTowerBuilder::process_event</title>
<!-- Node1 -->
<g id="node1" class="node">
<title>Node1</title>
<polygon fill="#bfbfbf" stroke="#000000" points="0,-552.5 0,-584.5 148,-584.5 148,-552.5 0,-552.5"/>
<text text-anchor="start" x="8" y="-571.5" font-family="FreeSans" font-size="10.00" fill="#000000">RawTowerBuilder::process</text>
<text text-anchor="middle" x="74" y="-559.5" font-family="FreeSans" font-size="10.00" fill="#000000">_event</text>
</g>
<!-- Node2 -->
<g id="node2" class="node">
<title>Node2</title>
<g id="a_node2"><a xlink:href="../../d9/dd8/classRawTower.html#a54e0d6d2e4e32c1cdba5cae7c00c8f09" target="_top" xlink:title="RawTower::add_ecell">
<polygon fill="none" stroke="#000000" points="206,-1092.5 206,-1112.5 327,-1112.5 327,-1092.5 206,-1092.5"/>
<text text-anchor="middle" x="266.5" y="-1099.5" font-family="FreeSans" font-size="10.00" fill="#000000">RawTower::add_ecell</text>
</a>
</g>
</g>
<!-- Node1&#45;&gt;Node2 -->
<g id="edge1" class="edge">
<title>Node1&#45;&gt;Node2</title>
<path fill="none" stroke="#191970" d="M75.1521,-584.5001C81.1522,-663.3453 111.3711,-1009.7051 184,-1083.5 187.7067,-1087.2662 191.9995,-1090.3493 196.6406,-1092.8669"/>
<polygon fill="#191970" stroke="#191970" points="195.3766,-1096.136 205.9327,-1097.0423 198.2458,-1089.751 195.3766,-1096.136"/>
</g>
<!-- Node3 -->
<g id="node3" class="node">
<title>Node3</title>
<g id="a_node3"><a xlink:href="../../d9/dd8/classRawTower.html#a60958e5d9c187f6d3141ffa2bd643fbf" target="_top" xlink:title="RawTower::add_eshower">
<polygon fill="none" stroke="#000000" points="196.5,-1053.5 196.5,-1073.5 336.5,-1073.5 336.5,-1053.5 196.5,-1053.5"/>
<text text-anchor="middle" x="266.5" y="-1060.5" font-family="FreeSans" font-size="10.00" fill="#000000">RawTower::add_eshower</text>
</a>
</g>
</g>
<!-- Node1&#45;&gt;Node3 -->
<g id="edge2" class="edge">
<title>Node1&#45;&gt;Node3</title>
<path fill="none" stroke="#191970" d="M75.4552,-584.5309C82.6057,-659.7629 116.4284,-976.979 184,-1044.5 185.2509,-1045.7499 186.5664,-1046.9243 187.9377,-1048.0276"/>
<polygon fill="#191970" stroke="#191970" points="186.0715,-1050.9897 196.3403,-1053.5979 189.9394,-1045.1553 186.0715,-1050.9897"/>
</g>
<!-- Node4 -->
<g id="node4" class="node">
<title>Node4</title>
<g id="a_node4"><a xlink:href="../../d3/dc7/classRawTowerContainer.html#ae60b794b4c7a4ccb3fb2d05c16d453b8" target="_top" xlink:title="RawTowerContainer::\lAddTower">
<polygon fill="none" stroke="#000000" points="205.5,-1002.5 205.5,-1034.5 327.5,-1034.5 327.5,-1002.5 205.5,-1002.5"/>
<text text-anchor="start" x="213.5" y="-1021.5" font-family="FreeSans" font-size="10.00" fill="#000000">RawTowerContainer::</text>
<text text-anchor="middle" x="266.5" y="-1009.5" font-family="FreeSans" font-size="10.00" fill="#000000">AddTower</text>
</a>
</g>
</g>
<!-- Node1&#45;&gt;Node4 -->
<g id="edge3" class="edge">
<title>Node1&#45;&gt;Node4</title>
<path fill="none" stroke="#191970" d="M76.0788,-584.8095C85.36,-655.202 125.1529,-932.1912 184,-993.5 187.5997,-997.2503 191.7414,-1000.4432 196.2117,-1003.1608"/>
<polygon fill="#191970" stroke="#191970" points="194.6718,-1006.305 205.1573,-1007.8229 197.9069,-1000.0974 194.6718,-1006.305"/>
</g>
<!-- Node5 -->
<g id="node5" class="node">
<title>Node5</title>
<g id="a_node5"><a xlink:href="../../d3/dc7/classRawTowerContainer.html#a555d52b05fc064faf6c8bc2145814412" target="_top" xlink:title="RawTowerContainer::\lcompress">
<polygon fill="none" stroke="#000000" points="205.5,-951.5 205.5,-983.5 327.5,-983.5 327.5,-951.5 205.5,-951.5"/>
<text text-anchor="start" x="213.5" y="-970.5" font-family="FreeSans" font-size="10.00" fill="#000000">RawTowerContainer::</text>
<text text-anchor="middle" x="266.5" y="-958.5" font-family="FreeSans" font-size="10.00" fill="#000000">compress</text>
</a>
</g>
</g>
<!-- Node1&#45;&gt;Node5 -->
<g id="edge4" class="edge">
<title>Node1&#45;&gt;Node5</title>
<path fill="none" stroke="#191970" d="M76.8654,-584.6666C88.4807,-648.5798 133.839,-882.7541 184,-936.5 187.6262,-940.3853 191.7871,-943.787 196.271,-946.7648"/>
<polygon fill="#191970" stroke="#191970" points="194.8329,-949.9775 205.236,-951.9844 198.355,-943.9281 194.8329,-949.9775"/>
</g>
<!-- Node6 -->
<g id="node6" class="node">
<title>Node6</title>
<g id="a_node6"><a xlink:href="../../d9/dd8/classRawTower.html#ab23195d58fefabd9162115afa96707cc" target="_top" xlink:title="energy assigned to the tower. Depending on stage of process and DST node name, it could be energy dep...">
<polygon fill="none" stroke="#000000" points="391.5,-934.5 391.5,-954.5 521.5,-954.5 521.5,-934.5 391.5,-934.5"/>
<text text-anchor="middle" x="456.5" y="-941.5" font-family="FreeSans" font-size="10.00" fill="#000000">RawTower::get_energy</text>
</a>
</g>
</g>
<!-- Node1&#45;&gt;Node6 -->
<g id="edge9" class="edge">
<title>Node1&#45;&gt;Node6</title>
<path fill="none" stroke="#191970" d="M77.0203,-584.7602C88.6974,-645.8345 132.7944,-860.2444 184,-903.5 213.0427,-928.0336 311.0551,-937.9075 381.2056,-941.868"/>
<polygon fill="#191970" stroke="#191970" points="381.1692,-945.371 391.342,-942.4105 381.5434,-938.381 381.1692,-945.371"/>
</g>
<!-- Node7 -->
<g id="node7" class="node">
<title>Node7</title>
<g id="a_node7"><a xlink:href="../../d7/dba/namespacePHG4CellDefs.html#a7b6039b35f7f1ead7b1be2fcaa7e38df" target="_top" xlink:title="PHG4CellDefs::get_binning">
<polygon fill="none" stroke="#000000" points="190.5,-873.5 190.5,-893.5 342.5,-893.5 342.5,-873.5 190.5,-873.5"/>
<text text-anchor="middle" x="266.5" y="-880.5" font-family="FreeSans" font-size="10.00" fill="#000000">PHG4CellDefs::get_binning</text>
</a>
</g>
</g>
<!-- Node1&#45;&gt;Node7 -->
<g id="edge6" class="edge">
<title>Node1&#45;&gt;Node7</title>
<path fill="none" stroke="#191970" d="M74.8668,-584.5761C78.4595,-634.4214 96.4678,-787.624 184,-864.5 185.5323,-865.8457 187.1408,-867.1014 188.8128,-868.2728"/>
<polygon fill="#191970" stroke="#191970" points="187.2467,-871.4119 197.6428,-873.4547 190.7897,-865.3747 187.2467,-871.4119"/>
</g>
<!-- Node8 -->
<g id="node8" class="node">
<title>Node8</title>
<g id="a_node8"><a xlink:href="../../dc/dfe/classPHG4Cell.html#af03de1745657c41817236e5d1124aae5" target="_top" xlink:title="PHG4Cell::get_cellid">
<polygon fill="none" stroke="#000000" points="207.5,-834.5 207.5,-854.5 325.5,-854.5 325.5,-834.5 207.5,-834.5"/>
<text text-anchor="middle" x="266.5" y="-841.5" font-family="FreeSans" font-size="10.00" fill="#000000">PHG4Cell::get_cellid</text>
</a>
</g>
</g>
<!-- Node1&#45;&gt;Node8 -->
<g id="edge7" class="edge">
<title>Node1&#45;&gt;Node8</title>
<path fill="none" stroke="#191970" d="M75.8928,-584.7278C82.109,-630.3141 106.1816,-760.4366 184,-825.5 188.2285,-829.0354 192.9884,-831.9427 198.0333,-834.3301"/>
<polygon fill="#191970" stroke="#191970" points="196.7852,-837.6006 207.3688,-838.0893 199.3999,-831.1073 196.7852,-837.6006"/>
</g>
<!-- Node9 -->
<g id="node9" class="node">
<title>Node9</title>
<g id="a_node9"><a xlink:href="../../dc/dfe/classPHG4Cell.html#acf86e688e008d387c8aeaeb3b7440beb" target="_top" xlink:title="PHG4Cell::get_edep">
<polygon fill="none" stroke="#000000" points="208,-795.5 208,-815.5 325,-815.5 325,-795.5 208,-795.5"/>
<text text-anchor="middle" x="266.5" y="-802.5" font-family="FreeSans" font-size="10.00" fill="#000000">PHG4Cell::get_edep</text>
</a>
</g>
</g>
<!-- Node1&#45;&gt;Node9 -->
<g id="edge8" class="edge">
<title>Node1&#45;&gt;Node9</title>
<path fill="none" stroke="#191970" d="M77.2147,-584.6245C86.213,-625.3432 115.6092,-732.8802 184,-786.5 188.3375,-789.9007 193.1745,-792.7128 198.2716,-795.0358"/>
<polygon fill="#191970" stroke="#191970" points="197.0876,-798.3307 207.6756,-798.7103 199.6352,-791.8108 197.0876,-798.3307"/>
</g>
<!-- Node10 -->
<g id="node10" class="node">
<title>Node10</title>
<g id="a_node10"><a xlink:href="../../d1/d88/namespacePHG4CellDefs_1_1SpacalBinning.html#ad27177a627c77e286373d53db529df05" target="_top" xlink:title="PHG4CellDefs::SpacalBinning\l::get_etabin">
<polygon fill="none" stroke="#000000" points="184,-744.5 184,-776.5 349,-776.5 349,-744.5 184,-744.5"/>
<text text-anchor="start" x="192" y="-763.5" font-family="FreeSans" font-size="10.00" fill="#000000">PHG4CellDefs::SpacalBinning</text>
<text text-anchor="middle" x="266.5" y="-751.5" font-family="FreeSans" font-size="10.00" fill="#000000">::get_etabin</text>
</a>
</g>
</g>
<!-- Node1&#45;&gt;Node10 -->
<g id="edge10" class="edge">
<title>Node1&#45;&gt;Node10</title>
<path fill="none" stroke="#191970" d="M80.102,-584.5027C93.5985,-617.747 129.1946,-694.5852 184,-735.5 185.8514,-736.8821 187.7795,-738.1885 189.7683,-739.4232"/>
<polygon fill="#191970" stroke="#191970" points="188.3766,-742.6517 198.8278,-744.3904 191.742,-736.5137 188.3766,-742.6517"/>
</g>
<!-- Node11 -->
<g id="node11" class="node">
<title>Node11</title>
<g id="a_node11"><a xlink:href="../../dc/dfe/classPHG4Cell.html#af65c789581fa5fb000083d135e7b23d6" target="_top" xlink:title="PHG4Cell::get_g4showers">
<polygon fill="none" stroke="#000000" points="193.5,-705.5 193.5,-725.5 339.5,-725.5 339.5,-705.5 193.5,-705.5"/>
<text text-anchor="middle" x="266.5" y="-712.5" font-family="FreeSans" font-size="10.00" fill="#000000">PHG4Cell::get_g4showers</text>
</a>
</g>
</g>
<!-- Node1&#45;&gt;Node11 -->
<g id="edge11" class="edge">
<title>Node1&#45;&gt;Node11</title>
<path fill="none" stroke="#191970" d="M83.1815,-584.765C99.6309,-612.3323 136.8557,-668.0078 184,-696.5 187.2077,-698.4386 190.5948,-700.1795 194.094,-701.7428"/>
<polygon fill="#191970" stroke="#191970" points="192.9847,-705.0677 203.5715,-705.4803 195.5527,-698.5557 192.9847,-705.0677"/>
</g>
<!-- Node12 -->
<g id="node12" class="node">
<title>Node12</title>
<g id="a_node12"><a xlink:href="../../dc/dfe/classPHG4Cell.html#a8b2e495c425d148597a9d48f56d8b79c" target="_top" xlink:title="PHG4Cell::get_light\l_yield">
<polygon fill="none" stroke="#000000" points="209,-654.5 209,-686.5 324,-686.5 324,-654.5 209,-654.5"/>
<text text-anchor="start" x="217" y="-673.5" font-family="FreeSans" font-size="10.00" fill="#000000">PHG4Cell::get_light</text>
<text text-anchor="middle" x="266.5" y="-661.5" font-family="FreeSans" font-size="10.00" fill="#000000">_yield</text>
</a>
</g>
</g>
<!-- Node1&#45;&gt;Node12 -->
<g id="edge12" class="edge">
<title>Node1&#45;&gt;Node12</title>
<path fill="none" stroke="#191970" d="M93.087,-584.7101C114.1432,-601.8859 149.617,-628.7858 184,-645.5 188.8792,-647.8719 194.0309,-650.0733 199.2799,-652.105"/>
<polygon fill="#191970" stroke="#191970" points="198.2017,-655.4373 208.7956,-655.5789 200.6023,-648.8618 198.2017,-655.4373"/>
</g>
<!-- Node13 -->
<g id="node13" class="node">
<title>Node13</title>
<g id="a_node13"><a xlink:href="../../d6/d84/namespacePHG4CellDefs_1_1SizeBinning.html#a722c36ec35c9e162ddc37f9647973a03" target="_top" xlink:title="PHG4CellDefs::SizeBinning\l::get_phibin">
<polygon fill="none" stroke="#000000" points="190.5,-603.5 190.5,-635.5 342.5,-635.5 342.5,-603.5 190.5,-603.5"/>
<text text-anchor="start" x="198.5" y="-622.5" font-family="FreeSans" font-size="10.00" fill="#000000">PHG4CellDefs::SizeBinning</text>
<text text-anchor="middle" x="266.5" y="-610.5" font-family="FreeSans" font-size="10.00" fill="#000000">::get_phibin</text>
</a>
</g>
</g>
<!-- Node1&#45;&gt;Node13 -->
<g id="edge13" class="edge">
<title>Node1&#45;&gt;Node13</title>
<path fill="none" stroke="#191970" d="M134.644,-584.5667C154.1539,-589.7356 175.9359,-595.5064 196.0864,-600.845"/>
<polygon fill="#191970" stroke="#191970" points="195.2673,-604.2487 205.8302,-603.4264 197.0601,-597.4821 195.2673,-604.2487"/>
</g>
<!-- Node15 -->
<g id="node15" class="node">
<title>Node15</title>
<g id="a_node15"><a xlink:href="../../d1/d88/namespacePHG4CellDefs_1_1SpacalBinning.html#a9f0f6217dd170c4877e56ca6782b28f4" target="_top" xlink:title="PHG4CellDefs::SpacalBinning\l::get_phibin">
<polygon fill="none" stroke="#000000" points="184,-552.5 184,-584.5 349,-584.5 349,-552.5 184,-552.5"/>
<text text-anchor="start" x="192" y="-571.5" font-family="FreeSans" font-size="10.00" fill="#000000">PHG4CellDefs::SpacalBinning</text>
<text text-anchor="middle" x="266.5" y="-559.5" font-family="FreeSans" font-size="10.00" fill="#000000">::get_phibin</text>
</a>
</g>
</g>
<!-- Node1&#45;&gt;Node15 -->
<g id="edge15" class="edge">
<title>Node1&#45;&gt;Node15</title>
<path fill="none" stroke="#191970" d="M148.1502,-568.5C156.524,-568.5 165.1338,-568.5 173.7069,-568.5"/>
<polygon fill="#191970" stroke="#191970" points="173.7379,-572.0001 183.7379,-568.5 173.7378,-565.0001 173.7379,-572.0001"/>
</g>
<!-- Node17 -->
<g id="node17" class="node">
<title>Node17</title>
<g id="a_node17"><a xlink:href="../../d6/d84/namespacePHG4CellDefs_1_1SizeBinning.html#a65969fd6a8d43e6964beefd0d9bbd35e" target="_top" xlink:title="PHG4CellDefs::SizeBinning\l::get_zbin">
<polygon fill="none" stroke="#000000" points="190.5,-501.5 190.5,-533.5 342.5,-533.5 342.5,-501.5 190.5,-501.5"/>
<text text-anchor="start" x="198.5" y="-520.5" font-family="FreeSans" font-size="10.00" fill="#000000">PHG4CellDefs::SizeBinning</text>
<text text-anchor="middle" x="266.5" y="-508.5" font-family="FreeSans" font-size="10.00" fill="#000000">::get_zbin</text>
</a>
</g>
</g>
<!-- Node1&#45;&gt;Node17 -->
<g id="edge17" class="edge">
<title>Node1&#45;&gt;Node17</title>
<path fill="none" stroke="#191970" d="M134.644,-552.4333C154.1539,-547.2644 175.9359,-541.4936 196.0864,-536.155"/>
<polygon fill="#191970" stroke="#191970" points="197.0601,-539.5179 205.8302,-533.5736 195.2673,-532.7513 197.0601,-539.5179"/>
</g>
<!-- Node18 -->
<g id="node18" class="node">
<title>Node18</title>
<g id="a_node18"><a xlink:href="../../d4/d97/classPHG4CellContainer.html#a143d53939e2ba1daeea68be10b33125d" target="_top" xlink:title="return all Cells matching a given detid">
<polygon fill="none" stroke="#000000" points="207.5,-450.5 207.5,-482.5 325.5,-482.5 325.5,-450.5 207.5,-450.5"/>
<text text-anchor="start" x="215.5" y="-469.5" font-family="FreeSans" font-size="10.00" fill="#000000">PHG4CellContainer::</text>
<text text-anchor="middle" x="266.5" y="-457.5" font-family="FreeSans" font-size="10.00" fill="#000000">getCells</text>
</a>
</g>
</g>
<!-- Node1&#45;&gt;Node18 -->
<g id="edge19" class="edge">
<title>Node1&#45;&gt;Node18</title>
<path fill="none" stroke="#191970" d="M93.087,-552.2899C114.1432,-535.1141 149.617,-508.2142 184,-491.5 188.5112,-489.307 193.2552,-487.2598 198.0938,-485.3576"/>
<polygon fill="#191970" stroke="#191970" points="199.3191,-488.6362 207.479,-481.8785 196.8859,-482.0727 199.3191,-488.6362"/>
</g>
<!-- Node19 -->
<g id="node19" class="node">
<title>Node19</title>
<g id="a_node19"><a xlink:href="../../d3/dc7/classRawTowerContainer.html#a7fc88e3e37bc428fd5a870e39f0c5b5b" target="_top" xlink:title="RawTowerContainer::\lgetTotalEdep">
<polygon fill="none" stroke="#000000" points="205.5,-399.5 205.5,-431.5 327.5,-431.5 327.5,-399.5 205.5,-399.5"/>
<text text-anchor="start" x="213.5" y="-418.5" font-family="FreeSans" font-size="10.00" fill="#000000">RawTowerContainer::</text>
<text text-anchor="middle" x="266.5" y="-406.5" font-family="FreeSans" font-size="10.00" fill="#000000">getTotalEdep</text>
</a>
</g>
</g>
<!-- Node1&#45;&gt;Node19 -->
<g id="edge20" class="edge">
<title>Node1&#45;&gt;Node19</title>
<path fill="none" stroke="#191970" d="M83.6612,-552.136C100.5601,-524.9252 138.0951,-470.4156 184,-440.5 187.7694,-438.0435 191.7912,-435.8192 195.9541,-433.8065"/>
<polygon fill="#191970" stroke="#191970" points="197.4974,-436.9515 205.2498,-429.73 194.6861,-430.5409 197.4974,-436.9515"/>
</g>
<!-- Node20 -->
<g id="node20" class="node">
<title>Node20</title>
<g id="a_node20"><a xlink:href="../../d4/d97/classPHG4CellContainer.html#a2dc47ed96dcafd8e25b7c32de6c98ed6" target="_top" xlink:title="PHG4CellContainer::\lgetTotalEdep">
<polygon fill="none" stroke="#000000" points="207.5,-348.5 207.5,-380.5 325.5,-380.5 325.5,-348.5 207.5,-348.5"/>
<text text-anchor="start" x="215.5" y="-367.5" font-family="FreeSans" font-size="10.00" fill="#000000">PHG4CellContainer::</text>
<text text-anchor="middle" x="266.5" y="-355.5" font-family="FreeSans" font-size="10.00" fill="#000000">getTotalEdep</text>
</a>
</g>
</g>
<!-- Node1&#45;&gt;Node20 -->
<g id="edge21" class="edge">
<title>Node1&#45;&gt;Node20</title>
<path fill="none" stroke="#191970" d="M79.3834,-552.4228C91.9365,-517.4044 126.5245,-433.8313 184,-389.5 188.2958,-386.1866 193.0293,-383.3103 197.9903,-380.8137"/>
<polygon fill="#191970" stroke="#191970" points="199.4292,-384.0043 207.1204,-376.7176 196.5639,-377.6176 199.4292,-384.0043"/>
</g>
<!-- Node21 -->
<g id="node21" class="node">
<title>Node21</title>
<g id="a_node21"><a xlink:href="../../d3/dc7/classRawTowerContainer.html#a94a3368d6cd85ea4c3f204cd1065da26" target="_top" xlink:title="RawTowerContainer::\lgetTower">
<polygon fill="none" stroke="#000000" points="205.5,-297.5 205.5,-329.5 327.5,-329.5 327.5,-297.5 205.5,-297.5"/>
<text text-anchor="start" x="213.5" y="-316.5" font-family="FreeSans" font-size="10.00" fill="#000000">RawTowerContainer::</text>
<text text-anchor="middle" x="266.5" y="-304.5" font-family="FreeSans" font-size="10.00" fill="#000000">getTower</text>
</a>
</g>
</g>
<!-- Node1&#45;&gt;Node21 -->
<g id="edge22" class="edge">
<title>Node1&#45;&gt;Node21</title>
<path fill="none" stroke="#191970" d="M77.0324,-552.4033C85.7493,-510.6321 114.8203,-397.8973 184,-338.5 187.7081,-335.3162 191.8126,-332.5379 196.1521,-330.1134"/>
<polygon fill="#191970" stroke="#191970" points="197.8948,-333.1573 205.3378,-325.6172 194.8173,-326.8701 197.8948,-333.1573"/>
</g>
<!-- Node22 -->
<g id="node22" class="node">
<title>Node22</title>
<g id="a_node22"><a xlink:href="../../d3/dc7/classRawTowerContainer.html#a570f017dc793182557b3382e07374491" target="_top" xlink:title="return all towers">
<polygon fill="none" stroke="#000000" points="205.5,-246.5 205.5,-278.5 327.5,-278.5 327.5,-246.5 205.5,-246.5"/>
<text text-anchor="start" x="213.5" y="-265.5" font-family="FreeSans" font-size="10.00" fill="#000000">RawTowerContainer::</text>
<text text-anchor="middle" x="266.5" y="-253.5" font-family="FreeSans" font-size="10.00" fill="#000000">getTowers</text>
</a>
</g>
</g>
<!-- Node1&#45;&gt;Node22 -->
<g id="edge23" class="edge">
<title>Node1&#45;&gt;Node22</title>
<path fill="none" stroke="#191970" d="M75.476,-552.4589C80.7309,-504.7684 102.8137,-362.5217 184,-287.5 187.6547,-284.1228 191.7518,-281.2011 196.1147,-278.6736"/>
<polygon fill="#191970" stroke="#191970" points="198.0197,-281.6336 205.3869,-274.0195 194.8795,-275.3775 198.0197,-281.6336"/>
</g>
<!-- Node23 -->
<g id="node23" class="node">
<title>Node23</title>
<g id="a_node23"><a xlink:href="../../dc/dfe/classPHG4Cell.html#afb89ba22756c6706ace4571176dc3888" target="_top" xlink:title="PHG4Cell::has_binning">
<polygon fill="none" stroke="#000000" points="201,-207.5 201,-227.5 332,-227.5 332,-207.5 201,-207.5"/>
<text text-anchor="middle" x="266.5" y="-214.5" font-family="FreeSans" font-size="10.00" fill="#000000">PHG4Cell::has_binning</text>
</a>
</g>
</g>
<!-- Node1&#45;&gt;Node23 -->
<g id="edge24" class="edge">
<title>Node1&#45;&gt;Node23</title>
<path fill="none" stroke="#191970" d="M77.232,-552.0903C89.4961,-491.4428 134.95,-281.1618 184,-236.5 186.3688,-234.3431 188.9323,-232.4158 191.6402,-230.6945"/>
<polygon fill="#191970" stroke="#191970" points="193.5303,-233.6537 200.7181,-225.87 190.2452,-227.4724 193.5303,-233.6537"/>
</g>
<!-- Node24 -->
<g id="node24" class="node">
<title>Node24</title>
<g id="a_node24"><a xlink:href="../../d3/dc7/classRawTowerContainer.html#a91907d75330df3ebde8ce93eed7fa736" target="_top" xlink:title="RawTowerContainer::\lidentify">
<polygon fill="none" stroke="#000000" points="205.5,-156.5 205.5,-188.5 327.5,-188.5 327.5,-156.5 205.5,-156.5"/>
<text text-anchor="start" x="213.5" y="-175.5" font-family="FreeSans" font-size="10.00" fill="#000000">RawTowerContainer::</text>
<text text-anchor="middle" x="266.5" y="-163.5" font-family="FreeSans" font-size="10.00" fill="#000000">identify</text>
</a>
</g>
</g>
<!-- Node1&#45;&gt;Node24 -->
<g id="edge25" class="edge">
<title>Node1&#45;&gt;Node24</title>
<path fill="none" stroke="#191970" d="M76.7469,-552.1062C87.9107,-487.3087 131.7838,-250.0303 184,-197.5 187.6648,-193.8132 191.8538,-190.6666 196.3575,-187.9815"/>
<polygon fill="#191970" stroke="#191970" points="198.0521,-191.0459 205.3508,-183.3661 194.8559,-184.8182 198.0521,-191.0459"/>
</g>
<!-- Node25 -->
<g id="node25" class="node">
<title>Node25</title>
<g id="a_node25"><a xlink:href="../../dc/dfe/classPHG4Cell.html#ad8f6a5e7b201dc8720881f328e449a47" target="_top" xlink:title="PHG4Cell::identify">
<polygon fill="none" stroke="#000000" points="212.5,-117.5 212.5,-137.5 320.5,-137.5 320.5,-117.5 212.5,-117.5"/>
<text text-anchor="middle" x="266.5" y="-124.5" font-family="FreeSans" font-size="10.00" fill="#000000">PHG4Cell::identify</text>
</a>
</g>
</g>
<!-- Node1&#45;&gt;Node25 -->
<g id="edge26" class="edge">
<title>Node1&#45;&gt;Node25</title>
<path fill="none" stroke="#191970" d="M75.9943,-552.2038C84.9231,-481.8832 123.4584,-205.3324 184,-146.5 189.2901,-141.3592 195.6768,-137.5039 202.5268,-134.6275"/>
<polygon fill="#191970" stroke="#191970" points="203.8101,-137.8867 212.0953,-131.2832 201.5005,-131.2786 203.8101,-137.8867"/>
</g>
<!-- Node26 -->
<g id="node26" class="node">
<title>Node26</title>
<g id="a_node26"><a xlink:href="../../d9/dd8/classRawTower.html#ae6dbf341707e31164177005c95dcd247" target="_top" xlink:title="RawTower::identify">
<polygon fill="none" stroke="#000000" points="211,-78.5 211,-98.5 322,-98.5 322,-78.5 211,-78.5"/>
<text text-anchor="middle" x="266.5" y="-85.5" font-family="FreeSans" font-size="10.00" fill="#000000">RawTower::identify</text>
</a>
</g>
</g>
<!-- Node1&#45;&gt;Node26 -->
<g id="edge27" class="edge">
<title>Node1&#45;&gt;Node26</title>
<path fill="none" stroke="#191970" d="M75.6084,-552.2331C83.2695,-478.0393 118.4342,-172.5515 184,-107.5 188.9071,-102.6314 194.7957,-98.9103 201.1396,-96.0796"/>
<polygon fill="#191970" stroke="#191970" points="202.5366,-99.2946 210.6984,-92.5392 200.1053,-92.7303 202.5366,-99.2946"/>
</g>
<!-- Node27 -->
<g id="node27" class="node">
<title>Node27</title>
<g id="a_node27"><a xlink:href="../../d9/dd8/classRawTower.html#ab5d2ef8076b5750583766daadf746be1" target="_top" xlink:title="energy assigned to the tower. Depending on stage of process and DST node name, it could be energy dep...">
<polygon fill="none" stroke="#000000" points="202,-39.5 202,-59.5 331,-59.5 331,-39.5 202,-39.5"/>
<text text-anchor="middle" x="266.5" y="-46.5" font-family="FreeSans" font-size="10.00" fill="#000000">RawTower::set_energy</text>
</a>
</g>
</g>
<!-- Node1&#45;&gt;Node27 -->
<g id="edge28" class="edge">
<title>Node1&#45;&gt;Node27</title>
<path fill="none" stroke="#191970" d="M75.2663,-552.4502C81.7074,-474.9054 113.3301,-139.8663 184,-68.5 186.6921,-65.7814 189.6898,-63.4191 192.903,-61.369"/>
<polygon fill="#191970" stroke="#191970" points="194.6444,-64.4075 201.8502,-56.6405 191.3736,-58.2186 194.6444,-64.4075"/>
</g>
<!-- Node28 -->
<g id="node28" class="node">
<title>Node28</title>
<g id="a_node28"><a xlink:href="../../d5/dec/classFun4AllBase.html#a8a5c77a92bdac6bc043476e132379a40" target="_top" xlink:title="Gets the verbosity of this module.">
<polygon fill="none" stroke="#000000" points="200.5,-.5 200.5,-20.5 332.5,-20.5 332.5,-.5 200.5,-.5"/>
<text text-anchor="middle" x="266.5" y="-7.5" font-family="FreeSans" font-size="10.00" fill="#000000">Fun4AllBase::Verbosity</text>
</a>
</g>
</g>
<!-- Node1&#45;&gt;Node28 -->
<g id="edge29" class="edge">
<title>Node1&#45;&gt;Node28</title>
<path fill="none" stroke="#191970" d="M75.0013,-552.3043C80.3632,-470.8815 108.3163,-107.1028 184,-29.5 186.2368,-27.2065 188.6908,-25.1658 191.3088,-23.3515"/>
<polygon fill="#191970" stroke="#191970" points="193.2146,-26.2936 200.1627,-18.2952 189.7432,-20.215 193.2146,-26.2936"/>
</g>
<!-- Node5&#45;&gt;Node6 -->
<g id="edge5" class="edge">
<title>Node5&#45;&gt;Node6</title>
<path fill="none" stroke="#191970" d="M327.663,-960.0961C344.6211,-958.0432 363.2337,-955.7901 380.91,-953.6504"/>
<polygon fill="#191970" stroke="#191970" points="381.6828,-957.0825 391.1896,-952.406 380.8415,-950.1332 381.6828,-957.0825"/>
</g>
<!-- Node14 -->
<g id="node14" class="node">
<title>Node14</title>
<g id="a_node14"><a xlink:href="../../d9/d13/PHG4CellDefs_8cc.html#a728902c52be0b58ad2d4d8232b2beb5b" target="_top" xlink:title="generic_lower_16bit_key">
<polygon fill="none" stroke="#000000" points="386,-609.5 386,-629.5 527,-629.5 527,-609.5 386,-609.5"/>
<text text-anchor="middle" x="456.5" y="-616.5" font-family="FreeSans" font-size="10.00" fill="#000000">generic_lower_16bit_key</text>
</a>
</g>
</g>
<!-- Node13&#45;&gt;Node14 -->
<g id="edge14" class="edge">
<title>Node13&#45;&gt;Node14</title>
<path fill="none" stroke="#191970" d="M342.6855,-619.5C353.5936,-619.5 364.8464,-619.5 375.8371,-619.5"/>
<polygon fill="#191970" stroke="#191970" points="375.8397,-623.0001 385.8396,-619.5 375.8396,-616.0001 375.8397,-623.0001"/>
</g>
<!-- Node16 -->
<g id="node16" class="node">
<title>Node16</title>
<g id="a_node16"><a xlink:href="../../d9/d13/PHG4CellDefs_8cc.html#aac13c75c0c6204b67afd2b9f4d98d391" target="_top" xlink:title="generic_upper_16bit_key">
<polygon fill="none" stroke="#000000" points="385,-533.5 385,-553.5 528,-553.5 528,-533.5 385,-533.5"/>
<text text-anchor="middle" x="456.5" y="-540.5" font-family="FreeSans" font-size="10.00" fill="#000000">generic_upper_16bit_key</text>
</a>
</g>
</g>
<!-- Node15&#45;&gt;Node16 -->
<g id="edge16" class="edge">
<title>Node15&#45;&gt;Node16</title>
<path fill="none" stroke="#191970" d="M349.0078,-557.6437C357.5736,-556.5166 366.2772,-555.3714 374.8337,-554.2456"/>
<polygon fill="#191970" stroke="#191970" points="375.3355,-557.7098 384.7934,-552.9351 374.4223,-550.7696 375.3355,-557.7098"/>
</g>
<!-- Node17&#45;&gt;Node16 -->
<g id="edge18" class="edge">
<title>Node17&#45;&gt;Node16</title>
<path fill="none" stroke="#191970" d="M342.6855,-527.9254C353.2475,-529.3707 364.1328,-530.8603 374.7904,-532.3187"/>
<polygon fill="#191970" stroke="#191970" points="374.5386,-535.8168 384.9209,-533.705 375.4877,-528.8814 374.5386,-535.8168"/>
</g>
</g>
</svg>
