<?xml version="1.0" encoding="UTF-8" standalone="no"?>
<!DOCTYPE svg PUBLIC "-//W3C//DTD SVG 1.1//EN"
 "http://www.w3.org/Graphics/SVG/1.1/DTD/svg11.dtd">
<!-- Generated by graphviz version 2.40.1 (20161225.0304)
 -->
<!-- Title: PHG4TpcPadPlane::UpdateInternalParameters Pages: 1 -->
<svg width="727pt" height="228pt"
 viewBox="0.00 0.00 727.00 228.00" xmlns="http://www.w3.org/2000/svg" xmlns:xlink="http://www.w3.org/1999/xlink">
<g id="graph0" class="graph" transform="scale(1 1) rotate(0) translate(4 224)">
<title>PHG4TpcPadPlane::UpdateInternalParameters</title>
<!-- Node1 -->
<g id="node1" class="node">
<title>Node1</title>
<polygon fill="#bfbfbf" stroke="#000000" points="0,-84.5 0,-116.5 190,-116.5 190,-84.5 0,-84.5"/>
<text text-anchor="start" x="8" y="-103.5" font-family="FreeSans" font-size="10.00" fill="#000000">PHG4TpcPadPlane::UpdateInternal</text>
<text text-anchor="middle" x="95" y="-91.5" font-family="FreeSans" font-size="10.00" fill="#000000">Parameters</text>
</g>
<!-- Node2 -->
<g id="node2" class="node">
<title>Node2</title>
<g id="a_node2"><a xlink:href="../../da/d18/classPHG4TpcPadPlane.html#a411ca5edd45eb8d086ee41e281abc543" target="_top" xlink:title="PHG4TpcPadPlane::InitRun">
<polygon fill="none" stroke="#000000" points="226,-142.5 226,-162.5 376,-162.5 376,-142.5 226,-142.5"/>
<text text-anchor="middle" x="301" y="-149.5" font-family="FreeSans" font-size="10.00" fill="#000000">PHG4TpcPadPlane::InitRun</text>
</a>
</g>
</g>
<!-- Node1&#45;&gt;Node2 -->
<g id="edge1" class="edge">
<title>Node1&#45;&gt;Node2</title>
<path fill="none" stroke="#191970" d="M168.4962,-119.0525C199.8031,-126.9551 235.0815,-135.8604 261.3612,-142.4941"/>
<polygon fill="#191970" stroke="#191970" points="169.0402,-115.58 158.4877,-116.526 167.3269,-122.3671 169.0402,-115.58"/>
</g>
<!-- Node5 -->
<g id="node5" class="node">
<title>Node5</title>
<g id="a_node5"><a xlink:href="../../d7/ddb/classPHG4TpcElectronDrift.html#ade4db3deae06304762eca2ce7f788d83" target="_top" xlink:title="PHG4TpcElectronDrift\l::registerPadPlane">
<polygon fill="none" stroke="#000000" points="238,-84.5 238,-116.5 364,-116.5 364,-84.5 238,-84.5"/>
<text text-anchor="start" x="246" y="-103.5" font-family="FreeSans" font-size="10.00" fill="#000000">PHG4TpcElectronDrift</text>
<text text-anchor="middle" x="301" y="-91.5" font-family="FreeSans" font-size="10.00" fill="#000000">::registerPadPlane</text>
</a>
</g>
</g>
<!-- Node1&#45;&gt;Node5 -->
<g id="edge4" class="edge">
<title>Node1&#45;&gt;Node5</title>
<path fill="none" stroke="#191970" d="M200.3874,-100.5C213.1444,-100.5 225.8526,-100.5 237.7285,-100.5"/>
<polygon fill="#191970" stroke="#191970" points="200.1611,-97.0001 190.161,-100.5 200.161,-104.0001 200.1611,-97.0001"/>
</g>
<!-- Node12 -->
<g id="node12" class="node">
<title>Node12</title>
<g id="a_node12"><a xlink:href="../../dd/d60/classTpcPrototypeUnpacker.html#aa80b64ba88111e1135218480c9595e68" target="_top" xlink:title="TpcPrototypeUnpacker\l::registerPadPlane">
<polygon fill="none" stroke="#000000" points="235,-20.5 235,-52.5 367,-52.5 367,-20.5 235,-20.5"/>
<text text-anchor="start" x="243" y="-39.5" font-family="FreeSans" font-size="10.00" fill="#000000">TpcPrototypeUnpacker</text>
<text text-anchor="middle" x="301" y="-27.5" font-family="FreeSans" font-size="10.00" fill="#000000">::registerPadPlane</text>
</a>
</g>
</g>
<!-- Node1&#45;&gt;Node12 -->
<g id="edge11" class="edge">
<title>Node1&#45;&gt;Node12</title>
<path fill="none" stroke="#191970" d="M156.5124,-81.3893C186.0687,-72.2068 221.0973,-61.3242 249.2621,-52.5739"/>
<polygon fill="#191970" stroke="#191970" points="155.2279,-78.1233 146.7166,-84.4327 157.3048,-84.8081 155.2279,-78.1233"/>
</g>
<!-- Node3 -->
<g id="node3" class="node">
<title>Node3</title>
<g id="a_node3"><a xlink:href="../../d7/ddb/classPHG4TpcElectronDrift.html#a14a3483e3de7a9a5cb6a4434cba1835c" target="_top" xlink:title="PHG4TpcElectronDrift\l::InitRun">
<polygon fill="none" stroke="#000000" points="415,-187.5 415,-219.5 541,-219.5 541,-187.5 415,-187.5"/>
<text text-anchor="start" x="423" y="-206.5" font-family="FreeSans" font-size="10.00" fill="#000000">PHG4TpcElectronDrift</text>
<text text-anchor="middle" x="478" y="-194.5" font-family="FreeSans" font-size="10.00" fill="#000000">::InitRun</text>
</a>
</g>
</g>
<!-- Node2&#45;&gt;Node3 -->
<g id="edge2" class="edge">
<title>Node2&#45;&gt;Node3</title>
<path fill="none" stroke="#191970" d="M345.8861,-165.4333C369.0795,-172.1161 397.6015,-180.3343 422.2011,-187.4223"/>
<polygon fill="#191970" stroke="#191970" points="346.5477,-161.9816 335.9695,-162.576 344.6095,-168.7079 346.5477,-161.9816"/>
</g>
<!-- Node4 -->
<g id="node4" class="node">
<title>Node4</title>
<g id="a_node4"><a xlink:href="../../dd/d60/classTpcPrototypeUnpacker.html#a7858b60935474aeeb1d97de082373414" target="_top" xlink:title="TpcPrototypeUnpacker\l::InitRun">
<polygon fill="none" stroke="#000000" points="412,-136.5 412,-168.5 544,-168.5 544,-136.5 412,-136.5"/>
<text text-anchor="start" x="420" y="-155.5" font-family="FreeSans" font-size="10.00" fill="#000000">TpcPrototypeUnpacker</text>
<text text-anchor="middle" x="478" y="-143.5" font-family="FreeSans" font-size="10.00" fill="#000000">::InitRun</text>
</a>
</g>
</g>
<!-- Node2&#45;&gt;Node4 -->
<g id="edge3" class="edge">
<title>Node2&#45;&gt;Node4</title>
<path fill="none" stroke="#191970" d="M386.1396,-152.5C394.7559,-152.5 403.4148,-152.5 411.7889,-152.5"/>
<polygon fill="#191970" stroke="#191970" points="386.064,-149.0001 376.0639,-152.5 386.0639,-156.0001 386.064,-149.0001"/>
</g>
<!-- Node6 -->
<g id="node6" class="node">
<title>Node6</title>
<g id="a_node6"><a xlink:href="../../db/da1/Fun4All__G4__TPC_8C.html#af60bcd3cf09ebd567e28ede14e9e894a" target="_top" xlink:title="Fun4All_G4_TPC">
<polygon fill="none" stroke="#000000" points="429.5,-97.5 429.5,-117.5 526.5,-117.5 526.5,-97.5 429.5,-97.5"/>
<text text-anchor="middle" x="478" y="-104.5" font-family="FreeSans" font-size="10.00" fill="#000000">Fun4All_G4_TPC</text>
</a>
</g>
</g>
<!-- Node5&#45;&gt;Node6 -->
<g id="edge5" class="edge">
<title>Node5&#45;&gt;Node6</title>
<path fill="none" stroke="#191970" d="M374.58,-103.4099C393.1069,-104.1426 412.532,-104.9109 429.4804,-105.5811"/>
<polygon fill="#191970" stroke="#191970" points="374.5317,-99.9054 364.4011,-103.0074 374.255,-106.8999 374.5317,-99.9054"/>
</g>
<!-- Node7 -->
<g id="node7" class="node">
<title>Node7</title>
<g id="a_node7"><a xlink:href="../../da/d3c/G4__Tracking_8C.html#a4433eb58af16a1286bd71a65483a0b09" target="_top" xlink:title="Tracking_Cells">
<polygon fill="none" stroke="#000000" points="433.5,-58.5 433.5,-78.5 522.5,-78.5 522.5,-58.5 433.5,-58.5"/>
<text text-anchor="middle" x="478" y="-65.5" font-family="FreeSans" font-size="10.00" fill="#000000">Tracking_Cells</text>
</a>
</g>
</g>
<!-- Node5&#45;&gt;Node7 -->
<g id="edge6" class="edge">
<title>Node5&#45;&gt;Node7</title>
<path fill="none" stroke="#191970" d="M374.4251,-87.2254C394.4214,-83.6103 415.4756,-79.8038 433.3408,-76.574"/>
<polygon fill="#191970" stroke="#191970" points="373.6189,-83.8143 364.4011,-89.0377 374.8643,-90.7027 373.6189,-83.8143"/>
</g>
<!-- Node8 -->
<g id="node8" class="node">
<title>Node8</title>
<g id="a_node8"><a xlink:href="../../db/dc0/Fun4All__AnaTutorial_8C.html#a8c484ea6d7477278e981ef056b17eac9" target="_top" xlink:title="Fun4All_AnaTutorial">
<polygon fill="none" stroke="#000000" points="592,-117.5 592,-137.5 707,-137.5 707,-117.5 592,-117.5"/>
<text text-anchor="middle" x="649.5" y="-124.5" font-family="FreeSans" font-size="10.00" fill="#000000">Fun4All_AnaTutorial</text>
</a>
</g>
</g>
<!-- Node7&#45;&gt;Node8 -->
<g id="edge7" class="edge">
<title>Node7&#45;&gt;Node8</title>
<path fill="none" stroke="#191970" d="M525.839,-81.674C532.0223,-83.7611 538.2121,-86.0484 544,-88.5 560.8537,-95.6389 563.0501,-101.5924 580,-108.5 588.3403,-111.8989 597.4867,-114.8889 606.3261,-117.431"/>
<polygon fill="#191970" stroke="#191970" points="526.7778,-78.2993 516.1863,-78.564 524.6312,-84.9621 526.7778,-78.2993"/>
</g>
<!-- Node9 -->
<g id="node9" class="node">
<title>Node9</title>
<g id="a_node9"><a xlink:href="../../dd/d28/Fun4All__AnaTutorial__Jets_8C.html#a55eaaeb770a3177f917012de87877d28" target="_top" xlink:title="Fun4All_AnaTutorial_Jets">
<polygon fill="none" stroke="#000000" points="580,-78.5 580,-98.5 719,-98.5 719,-78.5 580,-78.5"/>
<text text-anchor="middle" x="649.5" y="-85.5" font-family="FreeSans" font-size="10.00" fill="#000000">Fun4All_AnaTutorial_Jets</text>
</a>
</g>
</g>
<!-- Node7&#45;&gt;Node9 -->
<g id="edge8" class="edge">
<title>Node7&#45;&gt;Node9</title>
<path fill="none" stroke="#191970" d="M532.7251,-74.8819C547.7093,-76.6294 564.1543,-78.5472 579.8526,-80.3779"/>
<polygon fill="#191970" stroke="#191970" points="532.95,-71.3845 522.6119,-73.7026 532.1391,-78.3374 532.95,-71.3845"/>
</g>
<!-- Node10 -->
<g id="node10" class="node">
<title>Node10</title>
<g id="a_node10"><a xlink:href="../../d7/d9e/Fun4All__G4__fsPHENIX_8C.html#af48911d394d2412e817583700f2bbee2" target="_top" xlink:title="Fun4All_G4_fsPHENIX">
<polygon fill="none" stroke="#000000" points="587.5,-39.5 587.5,-59.5 711.5,-59.5 711.5,-39.5 587.5,-39.5"/>
<text text-anchor="middle" x="649.5" y="-46.5" font-family="FreeSans" font-size="10.00" fill="#000000">Fun4All_G4_fsPHENIX</text>
</a>
</g>
</g>
<!-- Node7&#45;&gt;Node10 -->
<g id="edge9" class="edge">
<title>Node7&#45;&gt;Node10</title>
<path fill="none" stroke="#191970" d="M532.6146,-62.4494C550.0373,-60.5192 569.4443,-58.3691 587.3601,-56.3843"/>
<polygon fill="#191970" stroke="#191970" points="532.1657,-58.9776 522.6119,-63.5576 532.9365,-65.9351 532.1657,-58.9776"/>
</g>
<!-- Node11 -->
<g id="node11" class="node">
<title>Node11</title>
<g id="a_node11"><a xlink:href="../../d5/d2c/macros_2blob_2master_2macros_2g4simulations_2Fun4All__G4__sPHENIX_8C.html#a6eaaa492d7023ec86c562dc63aa1e5a4" target="_top" xlink:title="Fun4All_G4_sPHENIX">
<polygon fill="none" stroke="#000000" points="589,-.5 589,-20.5 710,-20.5 710,-.5 589,-.5"/>
<text text-anchor="middle" x="649.5" y="-7.5" font-family="FreeSans" font-size="10.00" fill="#000000">Fun4All_G4_sPHENIX</text>
</a>
</g>
</g>
<!-- Node7&#45;&gt;Node11 -->
<g id="edge10" class="edge">
<title>Node7&#45;&gt;Node11</title>
<path fill="none" stroke="#191970" d="M527.7931,-55.3589C533.317,-53.5492 538.8156,-51.5885 544,-49.5 560.7812,-42.7397 563.2185,-37.2594 580,-30.5 589.3171,-26.7472 599.5981,-23.3867 609.3307,-20.5399"/>
<polygon fill="#191970" stroke="#191970" points="526.3898,-52.1302 517.885,-58.4482 528.4735,-58.8129 526.3898,-52.1302"/>
</g>
<!-- Node13 -->
<g id="node13" class="node">
<title>Node13</title>
<g id="a_node13"><a xlink:href="../../df/d20/Fun4All__TestBeam__TPC_8C.html#ab5c55528b75bbb40d3cf6df86cfd8ac1" target="_top" xlink:title="Fun4All_TestBeam_TPC">
<polygon fill="none" stroke="#000000" points="412,-19.5 412,-39.5 544,-39.5 544,-19.5 412,-19.5"/>
<text text-anchor="middle" x="478" y="-26.5" font-family="FreeSans" font-size="10.00" fill="#000000">Fun4All_TestBeam_TPC</text>
</a>
</g>
</g>
<!-- Node12&#45;&gt;Node13 -->
<g id="edge12" class="edge">
<title>Node12&#45;&gt;Node13</title>
<path fill="none" stroke="#191970" d="M377.2181,-33.4857C388.7701,-33.0289 400.6068,-32.5607 411.9202,-32.1133"/>
<polygon fill="#191970" stroke="#191970" points="377.0138,-29.991 367.16,-33.8835 377.2905,-36.9855 377.0138,-29.991"/>
</g>
</g>
</svg>
