<?xml version="1.0" encoding="UTF-8" standalone="no"?>
<!DOCTYPE svg PUBLIC "-//W3C//DTD SVG 1.1//EN"
 "http://www.w3.org/Graphics/SVG/1.1/DTD/svg11.dtd">
<!-- Generated by graphviz version 2.40.1 (20161225.0304)
 -->
<!-- Title: sPHENIXSeedFinder::finalize Pages: 1 -->
<svg width="822pt" height="319pt"
 viewBox="0.00 0.00 822.00 319.00" xmlns="http://www.w3.org/2000/svg" xmlns:xlink="http://www.w3.org/1999/xlink">
<g id="graph0" class="graph" transform="scale(1 1) rotate(0) translate(4 315)">
<title>sPHENIXSeedFinder::finalize</title>
<!-- Node1 -->
<g id="node1" class="node">
<title>Node1</title>
<polygon fill="#bfbfbf" stroke="#000000" points="0,-45.5 0,-77.5 121,-77.5 121,-45.5 0,-45.5"/>
<text text-anchor="start" x="8" y="-64.5" font-family="FreeSans" font-size="10.00" fill="#000000">sPHENIXSeedFinder::</text>
<text text-anchor="middle" x="60.5" y="-52.5" font-family="FreeSans" font-size="10.00" fill="#000000">finalize</text>
</g>
<!-- Node2 -->
<g id="node2" class="node">
<title>Node2</title>
<g id="a_node2"><a xlink:href="../../d8/d85/classHelixKalman.html#a7f78a3ec79f2fe6a3a1feff6d55bb836" target="_top" xlink:title="HelixKalman::addHit">
<polygon fill="none" stroke="#000000" points="157,-110.5 157,-130.5 278,-130.5 278,-110.5 157,-110.5"/>
<text text-anchor="middle" x="217.5" y="-117.5" font-family="FreeSans" font-size="10.00" fill="#000000">HelixKalman::addHit</text>
</a>
</g>
</g>
<!-- Node1&#45;&gt;Node2 -->
<g id="edge1" class="edge">
<title>Node1&#45;&gt;Node2</title>
<path fill="none" stroke="#191970" d="M103.4009,-77.622C127.7101,-86.7573 157.7977,-98.0641 180.9721,-106.773"/>
<polygon fill="#191970" stroke="#191970" points="179.8516,-110.0908 190.4437,-110.3324 182.3141,-103.5382 179.8516,-110.0908"/>
</g>
<!-- Node12 -->
<g id="node12" class="node">
<title>Node12</title>
<g id="a_node12"><a xlink:href="../../da/d87/classSimpleHit3D.html#aee4615586ba114d652ae2f53a329af8b" target="_top" xlink:title="SimpleHit3D::get_layer">
<polygon fill="none" stroke="#000000" points="350.5,-32.5 350.5,-52.5 484.5,-52.5 484.5,-32.5 350.5,-32.5"/>
<text text-anchor="middle" x="417.5" y="-39.5" font-family="FreeSans" font-size="10.00" fill="#000000">SimpleHit3D::get_layer</text>
</a>
</g>
</g>
<!-- Node1&#45;&gt;Node12 -->
<g id="edge14" class="edge">
<title>Node1&#45;&gt;Node12</title>
<path fill="none" stroke="#191970" d="M121.0602,-58.2769C181.3917,-55.066 274.2593,-50.1235 339.9505,-46.6273"/>
<polygon fill="#191970" stroke="#191970" points="340.4513,-50.1057 350.2511,-46.0791 340.0792,-43.1156 340.4513,-50.1057"/>
</g>
<!-- Node15 -->
<g id="node15" class="node">
<title>Node15</title>
<g id="a_node15"><a xlink:href="../../da/d18/classsPHENIXSeedFinder.html#a03552955f3dbebe6315b3dcdd8158344" target="_top" xlink:title="sPHENIXSeedFinder::\ltripletRejection">
<polygon fill="none" stroke="#000000" points="157,-.5 157,-32.5 278,-32.5 278,-.5 157,-.5"/>
<text text-anchor="start" x="165" y="-19.5" font-family="FreeSans" font-size="10.00" fill="#000000">sPHENIXSeedFinder::</text>
<text text-anchor="middle" x="217.5" y="-7.5" font-family="FreeSans" font-size="10.00" fill="#000000">tripletRejection</text>
</a>
</g>
</g>
<!-- Node1&#45;&gt;Node15 -->
<g id="edge15" class="edge">
<title>Node1&#45;&gt;Node15</title>
<path fill="none" stroke="#191970" d="M116.7372,-45.3811C128.148,-42.1104 140.243,-38.6437 151.9435,-35.2901"/>
<polygon fill="#191970" stroke="#191970" points="153.0069,-38.6263 161.6555,-32.5064 151.0782,-31.8972 153.0069,-38.6263"/>
</g>
<!-- Node3 -->
<g id="node3" class="node">
<title>Node3</title>
<g id="a_node3"><a xlink:href="../../d8/d85/classHelixKalman.html#a4270073df4ee9ffc5f0fe83a8329211e" target="_top" xlink:title="HelixKalman::calculateMeasurements">
<polygon fill="none" stroke="#000000" points="314,-227.5 314,-247.5 521,-247.5 521,-227.5 314,-227.5"/>
<text text-anchor="middle" x="417.5" y="-234.5" font-family="FreeSans" font-size="10.00" fill="#000000">HelixKalman::calculateMeasurements</text>
</a>
</g>
</g>
<!-- Node2&#45;&gt;Node3 -->
<g id="edge2" class="edge">
<title>Node2&#45;&gt;Node3</title>
<path fill="none" stroke="#191970" d="M224.3623,-130.6884C238.5259,-150.8411 273.117,-195.7232 314,-217.5 318.7953,-220.0543 323.8703,-222.2851 329.0957,-224.2331"/>
<polygon fill="#191970" stroke="#191970" points="328.0417,-227.5712 338.6357,-227.4429 330.274,-220.9367 328.0417,-227.5712"/>
</g>
<!-- Node4 -->
<g id="node4" class="node">
<title>Node4</title>
<g id="a_node4"><a xlink:href="../../d8/d85/classHelixKalman.html#a55adf1f408113d0e3994b07e7d629c6b" target="_top" xlink:title="HelixKalman::calculateMSCovariance">
<polygon fill="none" stroke="#000000" points="315.5,-188.5 315.5,-208.5 519.5,-208.5 519.5,-188.5 315.5,-188.5"/>
<text text-anchor="middle" x="417.5" y="-195.5" font-family="FreeSans" font-size="10.00" fill="#000000">HelixKalman::calculateMSCovariance</text>
</a>
</g>
</g>
<!-- Node2&#45;&gt;Node4 -->
<g id="edge3" class="edge">
<title>Node2&#45;&gt;Node4</title>
<path fill="none" stroke="#191970" d="M230.7761,-130.5681C248.6931,-143.649 282.0593,-166.257 314,-178.5 321.5324,-181.3872 329.5393,-183.8731 337.634,-186.0103"/>
<polygon fill="#191970" stroke="#191970" points="336.9783,-189.4534 347.5254,-188.4478 338.6533,-182.6567 336.9783,-189.4534"/>
</g>
<!-- Node11 -->
<g id="node11" class="node">
<title>Node11</title>
<g id="a_node11"><a xlink:href="../../d8/d85/classHelixKalman.html#a0f3fb5cf1e01e1043cea2936f7a89101" target="_top" xlink:title="HelixKalman::calculateProjections">
<polygon fill="none" stroke="#000000" points="323.5,-149.5 323.5,-169.5 511.5,-169.5 511.5,-149.5 323.5,-149.5"/>
<text text-anchor="middle" x="417.5" y="-156.5" font-family="FreeSans" font-size="10.00" fill="#000000">HelixKalman::calculateProjections</text>
</a>
</g>
</g>
<!-- Node2&#45;&gt;Node11 -->
<g id="edge10" class="edge">
<title>Node2&#45;&gt;Node11</title>
<path fill="none" stroke="#191970" d="M268.5765,-130.5913C283.2402,-133.4791 299.2519,-136.6232 314,-139.5 327.312,-142.0967 341.5903,-144.866 355.16,-147.4904"/>
<polygon fill="#191970" stroke="#191970" points="354.8884,-151.0026 365.3708,-149.4638 356.2167,-144.1298 354.8884,-151.0026"/>
</g>
<!-- Node2&#45;&gt;Node12 -->
<g id="edge11" class="edge">
<title>Node2&#45;&gt;Node12</title>
<path fill="none" stroke="#191970" d="M230.424,-110.4316C248.2125,-97.1001 281.7181,-73.8414 314,-61.5 322.3963,-58.2901 331.3884,-55.6122 340.4371,-53.3804"/>
<polygon fill="#191970" stroke="#191970" points="341.2879,-56.7762 350.2527,-51.1297 339.7234,-49.9533 341.2879,-56.7762"/>
</g>
<!-- Node13 -->
<g id="node13" class="node">
<title>Node13</title>
<g id="a_node13"><a xlink:href="../../d8/d85/classHelixKalman.html#aa781eb12456b35ba08e8cdc4b4001377" target="_top" xlink:title="HelixKalman::subtractProjections">
<polygon fill="none" stroke="#000000" points="325.5,-110.5 325.5,-130.5 509.5,-130.5 509.5,-110.5 325.5,-110.5"/>
<text text-anchor="middle" x="417.5" y="-117.5" font-family="FreeSans" font-size="10.00" fill="#000000">HelixKalman::subtractProjections</text>
</a>
</g>
</g>
<!-- Node2&#45;&gt;Node13 -->
<g id="edge12" class="edge">
<title>Node2&#45;&gt;Node13</title>
<path fill="none" stroke="#191970" d="M278.0493,-120.5C289.8429,-120.5 302.5082,-120.5 315.2227,-120.5"/>
<polygon fill="#191970" stroke="#191970" points="315.4143,-124.0001 325.4142,-120.5 315.4142,-117.0001 315.4143,-124.0001"/>
</g>
<!-- Node14 -->
<g id="node14" class="node">
<title>Node14</title>
<g id="a_node14"><a xlink:href="../../d8/d85/classHelixKalman.html#ad161a0f331648bc2dc95aa1f780692c1" target="_top" xlink:title="HelixKalman::updateIntersection">
<polygon fill="none" stroke="#000000" points="326.5,-71.5 326.5,-91.5 508.5,-91.5 508.5,-71.5 326.5,-71.5"/>
<text text-anchor="middle" x="417.5" y="-78.5" font-family="FreeSans" font-size="10.00" fill="#000000">HelixKalman::updateIntersection</text>
</a>
</g>
</g>
<!-- Node2&#45;&gt;Node14 -->
<g id="edge13" class="edge">
<title>Node2&#45;&gt;Node14</title>
<path fill="none" stroke="#191970" d="M265.0672,-110.4169C280.6458,-107.1747 298.0476,-103.6169 314,-100.5 326.1672,-98.1227 339.1563,-95.6707 351.6768,-93.3506"/>
<polygon fill="#191970" stroke="#191970" points="352.3933,-96.7776 361.5928,-91.5222 351.1239,-89.8936 352.3933,-96.7776"/>
</g>
<!-- Node5 -->
<g id="node5" class="node">
<title>Node5</title>
<g id="a_node5"><a xlink:href="../../d8/d85/classHelixKalman.html#a52cca2345c3380fc8343f006390f5c1d" target="_top" xlink:title="HelixKalman::calculate\l_dAdAp">
<polygon fill="none" stroke="#000000" points="583,-278.5 583,-310.5 715,-310.5 715,-278.5 583,-278.5"/>
<text text-anchor="start" x="591" y="-297.5" font-family="FreeSans" font-size="10.00" fill="#000000">HelixKalman::calculate</text>
<text text-anchor="middle" x="649" y="-285.5" font-family="FreeSans" font-size="10.00" fill="#000000">_dAdAp</text>
</a>
</g>
</g>
<!-- Node4&#45;&gt;Node5 -->
<g id="edge4" class="edge">
<title>Node4&#45;&gt;Node5</title>
<path fill="none" stroke="#191970" d="M502.8971,-208.5295C509.2618,-210.9543 515.3819,-213.9081 521,-217.5 544.3757,-232.445 534.3512,-252.4747 557,-268.5 562.0682,-272.0861 567.6196,-275.1793 573.4047,-277.8471"/>
<polygon fill="#191970" stroke="#191970" points="572.0751,-281.0847 582.6521,-281.6989 574.7667,-274.6228 572.0751,-281.0847"/>
</g>
<!-- Node7 -->
<g id="node7" class="node">
<title>Node7</title>
<g id="a_node7"><a xlink:href="../../d8/d85/classHelixKalman.html#ad45962489041411c135777aed0b44552" target="_top" xlink:title="HelixKalman::calculate\l_dApdp">
<polygon fill="none" stroke="#000000" points="583,-227.5 583,-259.5 715,-259.5 715,-227.5 583,-227.5"/>
<text text-anchor="start" x="591" y="-246.5" font-family="FreeSans" font-size="10.00" fill="#000000">HelixKalman::calculate</text>
<text text-anchor="middle" x="649" y="-234.5" font-family="FreeSans" font-size="10.00" fill="#000000">_dApdp</text>
</a>
</g>
</g>
<!-- Node4&#45;&gt;Node7 -->
<g id="edge6" class="edge">
<title>Node4&#45;&gt;Node7</title>
<path fill="none" stroke="#191970" d="M473.1303,-208.5132C488.6376,-211.3586 505.4846,-214.5004 521,-217.5 537.8431,-220.7563 555.9096,-224.3586 573.0055,-227.818"/>
<polygon fill="#191970" stroke="#191970" points="572.4463,-231.2758 582.9426,-229.8347 573.8386,-224.4157 572.4463,-231.2758"/>
</g>
<!-- Node8 -->
<g id="node8" class="node">
<title>Node8</title>
<g id="a_node8"><a xlink:href="../../d8/d85/classHelixKalman.html#aef12e80004e0637454bf1fa4b3534233" target="_top" xlink:title="HelixKalman::calculate_dbdt">
<polygon fill="none" stroke="#000000" points="568.5,-188.5 568.5,-208.5 729.5,-208.5 729.5,-188.5 568.5,-188.5"/>
<text text-anchor="middle" x="649" y="-195.5" font-family="FreeSans" font-size="10.00" fill="#000000">HelixKalman::calculate_dbdt</text>
</a>
</g>
</g>
<!-- Node4&#45;&gt;Node8 -->
<g id="edge7" class="edge">
<title>Node4&#45;&gt;Node8</title>
<path fill="none" stroke="#191970" d="M519.7131,-198.5C532.5201,-198.5 545.5513,-198.5 558.1678,-198.5"/>
<polygon fill="#191970" stroke="#191970" points="558.1849,-202.0001 568.1849,-198.5 558.1849,-195.0001 558.1849,-202.0001"/>
</g>
<!-- Node9 -->
<g id="node9" class="node">
<title>Node9</title>
<g id="a_node9"><a xlink:href="../../d8/d85/classHelixKalman.html#a49443f60ba396d2948ae2bde46dea8a7" target="_top" xlink:title="HelixKalman::calculate_dpdb">
<polygon fill="none" stroke="#000000" points="567,-149.5 567,-169.5 731,-169.5 731,-149.5 567,-149.5"/>
<text text-anchor="middle" x="649" y="-156.5" font-family="FreeSans" font-size="10.00" fill="#000000">HelixKalman::calculate_dpdb</text>
</a>
</g>
</g>
<!-- Node4&#45;&gt;Node9 -->
<g id="edge8" class="edge">
<title>Node4&#45;&gt;Node9</title>
<path fill="none" stroke="#191970" d="M477.117,-188.4565C508.4405,-183.1796 547.0003,-176.6835 579.6549,-171.1823"/>
<polygon fill="#191970" stroke="#191970" points="580.3054,-174.6221 589.585,-169.5094 579.1425,-167.7194 580.3054,-174.6221"/>
</g>
<!-- Node10 -->
<g id="node10" class="node">
<title>Node10</title>
<g id="a_node10"><a xlink:href="../../d8/d85/classHelixKalman.html#af9357af5c3c7c3ab96aa5031d843b505" target="_top" xlink:title="HelixKalman::calculateScattering\lVariance">
<polygon fill="none" stroke="#000000" points="557,-98.5 557,-130.5 741,-130.5 741,-98.5 557,-98.5"/>
<text text-anchor="start" x="565" y="-117.5" font-family="FreeSans" font-size="10.00" fill="#000000">HelixKalman::calculateScattering</text>
<text text-anchor="middle" x="649" y="-105.5" font-family="FreeSans" font-size="10.00" fill="#000000">Variance</text>
</a>
</g>
</g>
<!-- Node4&#45;&gt;Node10 -->
<g id="edge9" class="edge">
<title>Node4&#45;&gt;Node10</title>
<path fill="none" stroke="#191970" d="M497.328,-188.4739C505.5916,-185.8657 513.6451,-182.596 521,-178.5 541.6087,-167.0229 536.8327,-151.7362 557,-139.5 559.8301,-137.7829 562.7795,-136.1815 565.8124,-134.6882"/>
<polygon fill="#191970" stroke="#191970" points="567.4242,-137.8015 575.1251,-130.525 564.5674,-131.411 567.4242,-137.8015"/>
</g>
<!-- Node6 -->
<g id="node6" class="node">
<title>Node6</title>
<g id="a_node6"><a xlink:href="../../dc/d08/HelixKalman_8cpp.html#ab74daa0c9784c63e060bfb98cc06fbf5" target="_top" xlink:title="sign">
<polygon fill="none" stroke="#000000" points="777,-284.5 777,-304.5 814,-304.5 814,-284.5 777,-284.5"/>
<text text-anchor="middle" x="795.5" y="-291.5" font-family="FreeSans" font-size="10.00" fill="#000000">sign</text>
</a>
</g>
</g>
<!-- Node5&#45;&gt;Node6 -->
<g id="edge5" class="edge">
<title>Node5&#45;&gt;Node6</title>
<path fill="none" stroke="#191970" d="M715.3918,-294.5C733.2492,-294.5 751.655,-294.5 766.314,-294.5"/>
<polygon fill="#191970" stroke="#191970" points="766.7223,-298.0001 776.7223,-294.5 766.7223,-291.0001 766.7223,-298.0001"/>
</g>
</g>
</svg>
