<?xml version="1.0" encoding="UTF-8" standalone="no"?>
<!DOCTYPE svg PUBLIC "-//W3C//DTD SVG 1.1//EN"
 "http://www.w3.org/Graphics/SVG/1.1/DTD/svg11.dtd">
<!-- Generated by graphviz version 2.40.1 (20161225.0304)
 -->
<!-- Title: PHG4ForwardHcalDetector::PlaceTower Pages: 1 -->
<svg width="361pt" height="68pt"
 viewBox="0.00 0.00 361.00 68.00" xmlns="http://www.w3.org/2000/svg" xmlns:xlink="http://www.w3.org/1999/xlink">
<g id="graph0" class="graph" transform="scale(1 1) rotate(0) translate(4 64)">
<title>PHG4ForwardHcalDetector::PlaceTower</title>
<!-- Node1 -->
<g id="node1" class="node">
<title>Node1</title>
<polygon fill="#bfbfbf" stroke="#000000" points="0,-13.5 0,-45.5 151,-45.5 151,-13.5 0,-13.5"/>
<text text-anchor="start" x="8" y="-32.5" font-family="FreeSans" font-size="10.00" fill="#000000">PHG4ForwardHcalDetector</text>
<text text-anchor="middle" x="75.5" y="-20.5" font-family="FreeSans" font-size="10.00" fill="#000000">::PlaceTower</text>
</g>
<!-- Node2 -->
<g id="node2" class="node">
<title>Node2</title>
<g id="a_node2"><a xlink:href="../../d3/de7/classPHG4Detector.html#a0be0f337e0bb4ef7d0754552ee7ba251" target="_top" xlink:title="PHG4Detector::OverlapCheck">
<polygon fill="none" stroke="#000000" points="187,-39.5 187,-59.5 353,-59.5 353,-39.5 187,-39.5"/>
<text text-anchor="middle" x="270" y="-46.5" font-family="FreeSans" font-size="10.00" fill="#000000">PHG4Detector::OverlapCheck</text>
</a>
</g>
</g>
<!-- Node1&#45;&gt;Node2 -->
<g id="edge1" class="edge">
<title>Node1&#45;&gt;Node2</title>
<path fill="none" stroke="#191970" d="M151.2557,-37.2898C159.6122,-38.1491 168.1916,-39.0313 176.7301,-39.9093"/>
<polygon fill="#191970" stroke="#191970" points="176.4132,-43.395 186.7188,-40.9364 177.1293,-36.4318 176.4132,-43.395"/>
</g>
<!-- Node3 -->
<g id="node3" class="node">
<title>Node3</title>
<g id="a_node3"><a xlink:href="../../d3/de7/classPHG4Detector.html#af5eefc46de6e61b788946ca0d0a7427c" target="_top" xlink:title="PHG4Detector::Verbosity">
<polygon fill="none" stroke="#000000" points="199,-.5 199,-20.5 341,-20.5 341,-.5 199,-.5"/>
<text text-anchor="middle" x="270" y="-7.5" font-family="FreeSans" font-size="10.00" fill="#000000">PHG4Detector::Verbosity</text>
</a>
</g>
</g>
<!-- Node1&#45;&gt;Node3 -->
<g id="edge2" class="edge">
<title>Node1&#45;&gt;Node3</title>
<path fill="none" stroke="#191970" d="M151.2557,-22.0997C163.5055,-20.9031 176.2342,-19.6596 188.6107,-18.4506"/>
<polygon fill="#191970" stroke="#191970" points="189.2936,-21.9007 198.9059,-17.4449 188.613,-14.9338 189.2936,-21.9007"/>
</g>
</g>
</svg>
