<?xml version="1.0" encoding="UTF-8" standalone="no"?>
<!DOCTYPE svg PUBLIC "-//W3C//DTD SVG 1.1//EN"
 "http://www.w3.org/Graphics/SVG/1.1/DTD/svg11.dtd">
<!-- Generated by graphviz version 2.40.1 (20161225.0304)
 -->
<!-- Title: PHGeomUtility::RemoveGeometryFile Pages: 1 -->
<svg width="721pt" height="204pt"
 viewBox="0.00 0.00 721.00 204.00" xmlns="http://www.w3.org/2000/svg" xmlns:xlink="http://www.w3.org/1999/xlink">
<g id="graph0" class="graph" transform="scale(1 1) rotate(0) translate(4 200)">
<title>PHGeomUtility::RemoveGeometryFile</title>
<!-- Node1 -->
<g id="node1" class="node">
<title>Node1</title>
<polygon fill="#bfbfbf" stroke="#000000" points="0,-78.5 0,-98.5 204,-98.5 204,-78.5 0,-78.5"/>
<text text-anchor="middle" x="102" y="-85.5" font-family="FreeSans" font-size="10.00" fill="#000000">PHGeomUtility::RemoveGeometryFile</text>
</g>
<!-- Node2 -->
<g id="node2" class="node">
<title>Node2</title>
<g id="a_node2"><a xlink:href="../../d0/d78/classPHG4Reco.html#a9d8228ce8682c19cd6be2f6b44ec847b" target="_top" xlink:title="PHG4Reco::InitRun">
<polygon fill="none" stroke="#000000" points="240,-78.5 240,-98.5 350,-98.5 350,-78.5 240,-78.5"/>
<text text-anchor="middle" x="295" y="-85.5" font-family="FreeSans" font-size="10.00" fill="#000000">PHG4Reco::InitRun</text>
</a>
</g>
</g>
<!-- Node1&#45;&gt;Node2 -->
<g id="edge1" class="edge">
<title>Node1&#45;&gt;Node2</title>
<path fill="none" stroke="#191970" d="M214.1948,-88.5C223.037,-88.5 231.6985,-88.5 239.8716,-88.5"/>
<polygon fill="#191970" stroke="#191970" points="214.1515,-85.0001 204.1514,-88.5 214.1514,-92.0001 214.1515,-85.0001"/>
</g>
<!-- Node3 -->
<g id="node3" class="node">
<title>Node3</title>
<g id="a_node3"><a xlink:href="../../db/d89/ConstructGeometry_8C.html#a21c369835643f1016f506a3da3b8d446" target="_top" xlink:title="ConstructGeometry">
<polygon fill="none" stroke="#000000" points="404.5,-156.5 404.5,-176.5 519.5,-176.5 519.5,-156.5 404.5,-156.5"/>
<text text-anchor="middle" x="462" y="-163.5" font-family="FreeSans" font-size="10.00" fill="#000000">ConstructGeometry</text>
</a>
</g>
</g>
<!-- Node2&#45;&gt;Node3 -->
<g id="edge2" class="edge">
<title>Node2&#45;&gt;Node3</title>
<path fill="none" stroke="#191970" d="M315.9107,-104.937C333.6571,-118.1572 360.2676,-136.3129 386,-147.5 394.1073,-151.0246 402.9972,-153.9843 411.7497,-156.4387"/>
<polygon fill="#191970" stroke="#191970" points="317.5694,-101.8014 307.4901,-98.5366 313.3335,-107.3743 317.5694,-101.8014"/>
</g>
<!-- Node4 -->
<g id="node4" class="node">
<title>Node4</title>
<g id="a_node4"><a xlink:href="../../dd/d76/macros_2blob_2master_2macros_2g4simulations_2DisplayOn_8C.html#a8ac4d6fb78f920957b354f88d6195f54" target="_top" xlink:title="DisplayOn">
<polygon fill="none" stroke="#000000" points="428,-117.5 428,-137.5 496,-137.5 496,-117.5 428,-117.5"/>
<text text-anchor="middle" x="462" y="-124.5" font-family="FreeSans" font-size="10.00" fill="#000000">DisplayOn</text>
</a>
</g>
</g>
<!-- Node2&#45;&gt;Node4 -->
<g id="edge3" class="edge">
<title>Node2&#45;&gt;Node4</title>
<path fill="none" stroke="#191970" d="M347.7794,-100.8257C373.9436,-106.9359 404.784,-114.1382 427.8194,-119.5177"/>
<polygon fill="#191970" stroke="#191970" points="348.5406,-97.4094 338.0066,-98.5435 346.9487,-104.226 348.5406,-97.4094"/>
</g>
<!-- Node9 -->
<g id="node9" class="node">
<title>Node9</title>
<g id="a_node9"><a xlink:href="../../d4/dfa/Fun4All__Generator__Display_8C.html#af87924a94b22e18901f0d64805565f09" target="_top" xlink:title="Fun4All_Generator_Display">
<polygon fill="none" stroke="#000000" points="386,-78.5 386,-98.5 538,-98.5 538,-78.5 386,-78.5"/>
<text text-anchor="middle" x="462" y="-85.5" font-family="FreeSans" font-size="10.00" fill="#000000">Fun4All_Generator_Display</text>
</a>
</g>
</g>
<!-- Node2&#45;&gt;Node9 -->
<g id="edge8" class="edge">
<title>Node2&#45;&gt;Node9</title>
<path fill="none" stroke="#191970" d="M360.2079,-88.5C368.5826,-88.5 377.2155,-88.5 385.7467,-88.5"/>
<polygon fill="#191970" stroke="#191970" points="360.1449,-85.0001 350.1449,-88.5 360.1448,-92.0001 360.1449,-85.0001"/>
</g>
<!-- Node10 -->
<g id="node10" class="node">
<title>Node10</title>
<g id="a_node10"><a xlink:href="../../d9/d1d/matscan_8C.html#a98ccbc6135fead542f3c4d1dd6882d63" target="_top" xlink:title="matscan">
<polygon fill="none" stroke="#000000" points="432.5,-39.5 432.5,-59.5 491.5,-59.5 491.5,-39.5 432.5,-39.5"/>
<text text-anchor="middle" x="462" y="-46.5" font-family="FreeSans" font-size="10.00" fill="#000000">matscan</text>
</a>
</g>
</g>
<!-- Node2&#45;&gt;Node10 -->
<g id="edge9" class="edge">
<title>Node2&#45;&gt;Node10</title>
<path fill="none" stroke="#191970" d="M348.0032,-76.122C375.8568,-69.6173 408.959,-61.8868 432.2971,-56.4366"/>
<polygon fill="#191970" stroke="#191970" points="346.9487,-72.774 338.0066,-78.4565 348.5406,-79.5906 346.9487,-72.774"/>
</g>
<!-- Node11 -->
<g id="node11" class="node">
<title>Node11</title>
<g id="a_node11"><a xlink:href="../../dd/d76/macros_2blob_2master_2macros_2g4simulations_2DisplayOn_8C.html#a36f5cc4ebb7cd23dac7e492d5c38fbc0" target="_top" xlink:title="QTGui">
<polygon fill="none" stroke="#000000" points="438.5,-.5 438.5,-20.5 485.5,-20.5 485.5,-.5 438.5,-.5"/>
<text text-anchor="middle" x="462" y="-7.5" font-family="FreeSans" font-size="10.00" fill="#000000">QTGui</text>
</a>
</g>
</g>
<!-- Node2&#45;&gt;Node11 -->
<g id="edge10" class="edge">
<title>Node2&#45;&gt;Node11</title>
<path fill="none" stroke="#191970" d="M315.9107,-72.063C333.6571,-58.8428 360.2676,-40.6871 386,-29.5 402.8383,-22.1796 423.0524,-17.2962 438.3993,-14.3153"/>
<polygon fill="#191970" stroke="#191970" points="313.3335,-69.6257 307.4901,-78.4634 317.5694,-75.1986 313.3335,-69.6257"/>
</g>
<!-- Node5 -->
<g id="node5" class="node">
<title>Node5</title>
<g id="a_node5"><a xlink:href="../../db/dc0/Fun4All__AnaTutorial_8C.html#a8c484ea6d7477278e981ef056b17eac9" target="_top" xlink:title="Fun4All_AnaTutorial">
<polygon fill="none" stroke="#000000" points="586,-175.5 586,-195.5 701,-195.5 701,-175.5 586,-175.5"/>
<text text-anchor="middle" x="643.5" y="-182.5" font-family="FreeSans" font-size="10.00" fill="#000000">Fun4All_AnaTutorial</text>
</a>
</g>
</g>
<!-- Node4&#45;&gt;Node5 -->
<g id="edge4" class="edge">
<title>Node4&#45;&gt;Node5</title>
<path fill="none" stroke="#191970" d="M506.1232,-137.2894C516.7144,-140.1361 527.8842,-143.5593 538,-147.5 554.8577,-154.0671 557.1738,-159.8526 574,-166.5 582.4927,-169.8551 591.7932,-172.8417 600.7503,-175.3972"/>
<polygon fill="#191970" stroke="#191970" points="506.7558,-133.8383 496.1993,-134.7387 505.0132,-140.6179 506.7558,-133.8383"/>
</g>
<!-- Node6 -->
<g id="node6" class="node">
<title>Node6</title>
<g id="a_node6"><a xlink:href="../../dd/d28/Fun4All__AnaTutorial__Jets_8C.html#a55eaaeb770a3177f917012de87877d28" target="_top" xlink:title="Fun4All_AnaTutorial_Jets">
<polygon fill="none" stroke="#000000" points="574,-136.5 574,-156.5 713,-156.5 713,-136.5 574,-136.5"/>
<text text-anchor="middle" x="643.5" y="-143.5" font-family="FreeSans" font-size="10.00" fill="#000000">Fun4All_AnaTutorial_Jets</text>
</a>
</g>
</g>
<!-- Node4&#45;&gt;Node6 -->
<g id="edge5" class="edge">
<title>Node4&#45;&gt;Node6</title>
<path fill="none" stroke="#191970" d="M506.3295,-132.1406C526.617,-134.2643 551.1401,-136.8315 573.8079,-139.2044"/>
<polygon fill="#191970" stroke="#191970" points="506.4488,-128.634 496.1388,-131.0738 505.72,-135.596 506.4488,-128.634"/>
</g>
<!-- Node7 -->
<g id="node7" class="node">
<title>Node7</title>
<g id="a_node7"><a xlink:href="../../d7/d9e/Fun4All__G4__fsPHENIX_8C.html#af48911d394d2412e817583700f2bbee2" target="_top" xlink:title="Fun4All_G4_fsPHENIX">
<polygon fill="none" stroke="#000000" points="581.5,-97.5 581.5,-117.5 705.5,-117.5 705.5,-97.5 581.5,-97.5"/>
<text text-anchor="middle" x="643.5" y="-104.5" font-family="FreeSans" font-size="10.00" fill="#000000">Fun4All_G4_fsPHENIX</text>
</a>
</g>
</g>
<!-- Node4&#45;&gt;Node7 -->
<g id="edge6" class="edge">
<title>Node4&#45;&gt;Node7</title>
<path fill="none" stroke="#191970" d="M506.1042,-122.64C528.6688,-120.1536 556.5174,-117.0849 581.2304,-114.3617"/>
<polygon fill="#191970" stroke="#191970" points="505.6952,-119.1638 496.1388,-123.7382 506.462,-126.1217 505.6952,-119.1638"/>
</g>
<!-- Node8 -->
<g id="node8" class="node">
<title>Node8</title>
<g id="a_node8"><a xlink:href="../../d5/d2c/macros_2blob_2master_2macros_2g4simulations_2Fun4All__G4__sPHENIX_8C.html#a6eaaa492d7023ec86c562dc63aa1e5a4" target="_top" xlink:title="Fun4All_G4_sPHENIX">
<polygon fill="none" stroke="#000000" points="583,-58.5 583,-78.5 704,-78.5 704,-58.5 583,-58.5"/>
<text text-anchor="middle" x="643.5" y="-65.5" font-family="FreeSans" font-size="10.00" fill="#000000">Fun4All_G4_sPHENIX</text>
</a>
</g>
</g>
<!-- Node4&#45;&gt;Node8 -->
<g id="edge7" class="edge">
<title>Node4&#45;&gt;Node8</title>
<path fill="none" stroke="#191970" d="M506.1945,-118.5286C516.7834,-115.8135 527.9342,-112.4742 538,-108.5 555.0244,-101.7783 557.0966,-95.5204 574,-88.5 583.1603,-84.6955 593.2855,-81.3345 602.9077,-78.5055"/>
<polygon fill="#191970" stroke="#191970" points="505.1588,-115.1783 496.2682,-120.9408 506.8119,-121.9804 505.1588,-115.1783"/>
</g>
</g>
</svg>
