<?xml version="1.0" encoding="UTF-8" standalone="no"?>
<!DOCTYPE svg PUBLIC "-//W3C//DTD SVG 1.1//EN"
 "http://www.w3.org/Graphics/SVG/1.1/DTD/svg11.dtd">
<!-- Generated by graphviz version 2.40.1 (20161225.0304)
 -->
<!-- Title: getneffmax Pages: 1 -->
<svg width="833pt" height="128pt"
 viewBox="0.00 0.00 833.00 127.76" xmlns="http://www.w3.org/2000/svg" xmlns:xlink="http://www.w3.org/1999/xlink">
<g id="graph0" class="graph" transform="scale(1 1) rotate(0) translate(4 123.7577)">
<title>getneffmax</title>
<!-- Node1 -->
<g id="node1" class="node">
<title>Node1</title>
<polygon fill="#bfbfbf" stroke="#000000" points="0,-29 0,-49 75,-49 75,-29 0,-29"/>
<text text-anchor="middle" x="37.5" y="-36" font-family="FreeSans" font-size="10.00" fill="#000000">getneffmax</text>
</g>
<!-- Node2 -->
<g id="node2" class="node">
<title>Node2</title>
<g id="a_node2"><a xlink:href="../../d2/d18/medium-simple_8f.html#a1cd3c6e61d77c5039b408b84094b6d01" target="_top" xlink:title="gettempmax">
<polygon fill="none" stroke="#000000" points="111,-68 111,-88 192,-88 192,-68 111,-68"/>
<text text-anchor="middle" x="151.5" y="-75" font-family="FreeSans" font-size="10.00" fill="#000000">gettempmax</text>
</a>
</g>
</g>
<!-- Node1&#45;&gt;Node2 -->
<g id="edge1" class="edge">
<title>Node1&#45;&gt;Node2</title>
<path fill="none" stroke="#191970" d="M66.8578,-49.0435C80.8201,-53.82 97.702,-59.5954 112.7041,-64.7277"/>
<polygon fill="#191970" stroke="#191970" points="111.6471,-68.0652 122.2417,-67.9906 113.9129,-61.442 111.6471,-68.0652"/>
</g>
<!-- Node3 -->
<g id="node3" class="node">
<title>Node3</title>
<g id="a_node3"><a xlink:href="../../d8/d1a/classHiMain1.html#afa91501b2c79bdaf9274e067b9d97e31" target="_top" xlink:title="HiMain1::n0">
<polygon fill="none" stroke="#000000" points="487,-67 487,-87 564,-87 564,-67 487,-67"/>
<text text-anchor="middle" x="525.5" y="-74" font-family="FreeSans" font-size="10.00" fill="#000000">HiMain1::n0</text>
</a>
</g>
</g>
<!-- Node1&#45;&gt;Node3 -->
<g id="edge12" class="edge">
<title>Node1&#45;&gt;Node3</title>
<path fill="none" stroke="#191970" d="M72.2176,-28.9565C115.2921,-17.4011 191.1692,0 257.5,0 257.5,0 257.5,0 345,0 406.6597,0 471.3514,-38.4851 503.9701,-61.0397"/>
<polygon fill="#191970" stroke="#191970" points="502.1073,-64.0093 512.2906,-66.9336 506.1535,-58.2972 502.1073,-64.0093"/>
</g>
<!-- Node2&#45;&gt;Node3 -->
<g id="edge2" class="edge">
<title>Node2&#45;&gt;Node3</title>
<path fill="none" stroke="#191970" d="M182.037,-88.0639C236.6071,-104.5928 354.2152,-133.6021 451,-112 468.338,-108.1302 486.4048,-99.7656 500.4043,-92.184"/>
<polygon fill="#191970" stroke="#191970" points="502.3915,-95.0818 509.3874,-87.1252 498.9566,-88.9825 502.3915,-95.0818"/>
</g>
<!-- Node6 -->
<g id="node6" class="node">
<title>Node6</title>
<g id="a_node6"><a xlink:href="../../d2/d18/medium-simple_8f.html#a4c3c426f7b73441851ebd368f54397fb" target="_top" xlink:title="gettemp">
<polygon fill="none" stroke="#000000" points="228,-68 228,-88 287,-88 287,-68 228,-68"/>
<text text-anchor="middle" x="257.5" y="-75" font-family="FreeSans" font-size="10.00" fill="#000000">gettemp</text>
</a>
</g>
</g>
<!-- Node2&#45;&gt;Node6 -->
<g id="edge5" class="edge">
<title>Node2&#45;&gt;Node6</title>
<path fill="none" stroke="#191970" d="M192.1792,-78C200.5537,-78 209.3626,-78 217.7052,-78"/>
<polygon fill="#191970" stroke="#191970" points="217.9555,-81.5001 227.9555,-78 217.9554,-74.5001 217.9555,-81.5001"/>
</g>
<!-- Node4 -->
<g id="node4" class="node">
<title>Node4</title>
<g id="a_node4"><a xlink:href="../../d8/d1a/classHiMain1.html#abdd4d6ac793897447c6d9f7b9e6d20ca" target="_top" xlink:title="HiMain1::init">
<polygon fill="none" stroke="#000000" points="600,-67 600,-87 681,-87 681,-67 600,-67"/>
<text text-anchor="middle" x="640.5" y="-74" font-family="FreeSans" font-size="10.00" fill="#000000">HiMain1::init</text>
</a>
</g>
</g>
<!-- Node3&#45;&gt;Node4 -->
<g id="edge3" class="edge">
<title>Node3&#45;&gt;Node4</title>
<path fill="none" stroke="#191970" d="M564.1133,-77C572.2778,-77 581.0139,-77 589.5546,-77"/>
<polygon fill="#191970" stroke="#191970" points="589.8239,-80.5001 599.8238,-77 589.8238,-73.5001 589.8239,-80.5001"/>
</g>
<!-- Node5 -->
<g id="node5" class="node">
<title>Node5</title>
<g id="a_node5"><a xlink:href="../../d7/dc3/HiMain1_8h.html#af413dd2854a4d96511498e79f1519c57" target="_top" xlink:title="himain1_address_">
<polygon fill="none" stroke="#000000" points="717,-67 717,-87 825,-87 825,-67 717,-67"/>
<text text-anchor="middle" x="771" y="-74" font-family="FreeSans" font-size="10.00" fill="#000000">himain1_address_</text>
</a>
</g>
</g>
<!-- Node4&#45;&gt;Node5 -->
<g id="edge4" class="edge">
<title>Node4&#45;&gt;Node5</title>
<path fill="none" stroke="#191970" d="M681.0757,-77C689.1424,-77 697.7991,-77 706.4397,-77"/>
<polygon fill="#191970" stroke="#191970" points="706.5393,-80.5001 716.5393,-77 706.5392,-73.5001 706.5393,-80.5001"/>
</g>
<!-- Node6&#45;&gt;Node3 -->
<g id="edge6" class="edge">
<title>Node6&#45;&gt;Node3</title>
<path fill="none" stroke="#191970" d="M287.074,-85.1047C325.0909,-93.2745 393.1047,-104.636 451,-97 462.385,-95.4984 474.5018,-92.7588 485.5827,-89.779"/>
<polygon fill="#191970" stroke="#191970" points="486.7437,-93.0881 495.4171,-87.0035 484.8424,-86.3513 486.7437,-93.0881"/>
</g>
<!-- Node7 -->
<g id="node7" class="node">
<title>Node7</title>
<g id="a_node7"><a xlink:href="../../d2/d18/medium-simple_8f.html#a1fdcab7823056a622e99f159e74b0a1e" target="_top" xlink:title="nthick">
<polygon fill="none" stroke="#000000" points="403,-67 403,-87 451,-87 451,-67 403,-67"/>
<text text-anchor="middle" x="427" y="-74" font-family="FreeSans" font-size="10.00" fill="#000000">nthick</text>
</a>
</g>
</g>
<!-- Node6&#45;&gt;Node7 -->
<g id="edge7" class="edge">
<title>Node6&#45;&gt;Node7</title>
<path fill="none" stroke="#191970" d="M287.0246,-77.8258C316.3813,-77.6526 361.3964,-77.387 392.4109,-77.2041"/>
<polygon fill="#191970" stroke="#191970" points="392.7694,-80.7021 402.7486,-77.1431 392.7281,-73.7022 392.7694,-80.7021"/>
</g>
<!-- Node8 -->
<g id="node8" class="node">
<title>Node8</title>
<g id="a_node8"><a xlink:href="../../d2/d18/medium-simple_8f.html#a58e0410e81664819969cd2981fd7cd27" target="_top" xlink:title="npart">
<polygon fill="none" stroke="#000000" points="323,-29 323,-49 367,-49 367,-29 323,-29"/>
<text text-anchor="middle" x="345" y="-36" font-family="FreeSans" font-size="10.00" fill="#000000">npart</text>
</a>
</g>
</g>
<!-- Node6&#45;&gt;Node8 -->
<g id="edge9" class="edge">
<title>Node6&#45;&gt;Node8</title>
<path fill="none" stroke="#191970" d="M280.0334,-67.9565C290.216,-63.418 302.4218,-57.9777 313.4907,-53.0441"/>
<polygon fill="#191970" stroke="#191970" points="315.1369,-56.1424 322.8458,-48.8744 312.2871,-49.7487 315.1369,-56.1424"/>
</g>
<!-- Node7&#45;&gt;Node3 -->
<g id="edge8" class="edge">
<title>Node7&#45;&gt;Node3</title>
<path fill="none" stroke="#191970" d="M451.0958,-77C458.7918,-77 467.608,-77 476.417,-77"/>
<polygon fill="#191970" stroke="#191970" points="476.6873,-80.5001 486.6873,-77 476.6873,-73.5001 476.6873,-80.5001"/>
</g>
<!-- Node8&#45;&gt;Node3 -->
<g id="edge10" class="edge">
<title>Node8&#45;&gt;Node3</title>
<path fill="none" stroke="#191970" d="M367.0415,-42.1246C388.5632,-45.3207 422.1879,-50.7009 451,-57 460.71,-59.1229 471.0517,-61.6959 480.8426,-64.2795"/>
<polygon fill="#191970" stroke="#191970" points="480.231,-67.7394 490.7969,-66.9575 482.0495,-60.9797 480.231,-67.7394"/>
</g>
<!-- Node8&#45;&gt;Node7 -->
<g id="edge11" class="edge">
<title>Node8&#45;&gt;Node7</title>
<path fill="none" stroke="#191970" d="M366.9745,-49.1833C375.8695,-53.3054 386.2997,-58.1389 395.9477,-62.6099"/>
<polygon fill="#191970" stroke="#191970" points="394.7044,-65.8913 405.2492,-66.9204 397.6477,-59.5401 394.7044,-65.8913"/>
</g>
</g>
</svg>
