<?xml version="1.0" encoding="UTF-8" standalone="no"?>
<!DOCTYPE svg PUBLIC "-//W3C//DTD SVG 1.1//EN"
 "http://www.w3.org/Graphics/SVG/1.1/DTD/svg11.dtd">
<!-- Generated by graphviz version 2.40.1 (20161225.0304)
 -->
<!-- Title: getmdmax Pages: 1 -->
<svg width="1802pt" height="563pt"
 viewBox="0.00 0.00 1802.00 563.00" xmlns="http://www.w3.org/2000/svg" xmlns:xlink="http://www.w3.org/1999/xlink">
<g id="graph0" class="graph" transform="scale(1 1) rotate(0) translate(4 559)">
<title>getmdmax</title>
<!-- Node1 -->
<g id="node1" class="node">
<title>Node1</title>
<polygon fill="#bfbfbf" stroke="#000000" points="0,-204.5 0,-224.5 71,-224.5 71,-204.5 0,-204.5"/>
<text text-anchor="middle" x="35.5" y="-211.5" font-family="FreeSans" font-size="10.00" fill="#000000">getmdmax</text>
</g>
<!-- Node2 -->
<g id="node2" class="node">
<title>Node2</title>
<g id="a_node2"><a xlink:href="../../d3/dd5/jewel-2_82_80_8f.html#a923a1f45be3eceaecbfd953ac461db5b" target="_top" xlink:title="getdeltat">
<polygon fill="none" stroke="#000000" points="436,-327.5 436,-347.5 499,-347.5 499,-327.5 436,-327.5"/>
<text text-anchor="middle" x="467.5" y="-334.5" font-family="FreeSans" font-size="10.00" fill="#000000">getdeltat</text>
</a>
</g>
</g>
<!-- Node1&#45;&gt;Node2 -->
<g id="edge1" class="edge">
<title>Node1&#45;&gt;Node2</title>
<path fill="none" stroke="#191970" d="M59.3754,-230.1052C72.9809,-238.5907 90.5496,-248.8778 107,-256.5 200.9943,-300.0515 225.128,-314.692 327,-333.5 363.9549,-340.3228 407.2922,-340.3844 435.96,-339.3504"/>
<polygon fill="#191970" stroke="#191970" points="60.9713,-226.9729 50.6518,-224.5734 57.2226,-232.8845 60.9713,-226.9729"/>
</g>
<!-- Node18 -->
<g id="node18" class="node">
<title>Node18</title>
<g id="a_node18"><a xlink:href="../../dd/d35/medium-vac_8f.html#ab3342672f50a3d009d7f2563a1fb5fb9" target="_top" xlink:title="getmdmax">
<polygon fill="none" stroke="#000000" points="107,-48.5 107,-68.5 178,-68.5 178,-48.5 107,-48.5"/>
<text text-anchor="middle" x="142.5" y="-55.5" font-family="FreeSans" font-size="10.00" fill="#000000">getmdmax</text>
</a>
</g>
</g>
<!-- Node1&#45;&gt;Node18 -->
<g id="edge20" class="edge">
<title>Node1&#45;&gt;Node18</title>
<path fill="none" stroke="#191970" d="M42.9199,-194.7568C53.8644,-167.4945 76.3937,-117.8085 107,-83.5 112.1185,-77.7624 118.7938,-72.6281 124.9729,-68.5273"/>
<polygon fill="#191970" stroke="#191970" points="39.5553,-193.7514 39.182,-204.3396 46.0767,-196.2951 39.5553,-193.7514"/>
</g>
<!-- Node19 -->
<g id="node19" class="node">
<title>Node19</title>
<g id="a_node19"><a xlink:href="../../d2/d18/medium-simple_8f.html#a41d995c162bbb4ad580e4e406343026a" target="_top" xlink:title="getmsmax">
<polygon fill="none" stroke="#000000" points="107.5,-204.5 107.5,-224.5 177.5,-224.5 177.5,-204.5 107.5,-204.5"/>
<text text-anchor="middle" x="142.5" y="-211.5" font-family="FreeSans" font-size="10.00" fill="#000000">getmsmax</text>
</a>
</g>
</g>
<!-- Node1&#45;&gt;Node19 -->
<g id="edge21" class="edge">
<title>Node1&#45;&gt;Node19</title>
<path fill="none" stroke="#191970" d="M81.2244,-214.5C89.9843,-214.5 99.0284,-214.5 107.3901,-214.5"/>
<polygon fill="#191970" stroke="#191970" points="81.1295,-211.0001 71.1295,-214.5 81.1294,-218.0001 81.1295,-211.0001"/>
</g>
<!-- Node44 -->
<g id="node44" class="node">
<title>Node44</title>
<g id="a_node44"><a xlink:href="../../d3/dd5/jewel-2_82_80_8f.html#a4362b005c88a22434aca35efcae1d064" target="_top" xlink:title="xsecint">
<polygon fill="none" stroke="#000000" points="334,-125.5 334,-145.5 387,-145.5 387,-125.5 334,-125.5"/>
<text text-anchor="middle" x="360.5" y="-132.5" font-family="FreeSans" font-size="10.00" fill="#000000">xsecint</text>
</a>
</g>
</g>
<!-- Node1&#45;&gt;Node44 -->
<g id="edge70" class="edge">
<title>Node1&#45;&gt;Node44</title>
<path fill="none" stroke="#191970" d="M56.5335,-198.2813C88.4619,-174.7962 152.0225,-132.3945 214,-116.5 255.1153,-105.9558 304.2983,-116.9858 333.9339,-126.1021"/>
<polygon fill="#191970" stroke="#191970" points="54.308,-195.575 48.3944,-204.3659 58.4994,-201.1815 54.308,-195.575"/>
</g>
<!-- Node46 -->
<g id="node46" class="node">
<title>Node46</title>
<g id="a_node46"><a xlink:href="../../d3/dd5/jewel-2_82_80_8f.html#a7ebfd60d4aa3c140a9ed244bd615c609" target="_top" xlink:title="getsscat">
<polygon fill="none" stroke="#000000" points="331,-281.5 331,-301.5 390,-301.5 390,-281.5 331,-281.5"/>
<text text-anchor="middle" x="360.5" y="-288.5" font-family="FreeSans" font-size="10.00" fill="#000000">getsscat</text>
</a>
</g>
</g>
<!-- Node1&#45;&gt;Node46 -->
<g id="edge69" class="edge">
<title>Node1&#45;&gt;Node46</title>
<path fill="none" stroke="#191970" d="M80.9952,-226.8436C89.6181,-229.1111 98.5758,-231.4177 107,-233.5 187.6445,-253.4342 283.321,-274.6759 330.76,-285.0475"/>
<polygon fill="#191970" stroke="#191970" points="81.6415,-223.3941 71.0785,-224.2156 79.8483,-230.1606 81.6415,-223.3941"/>
</g>
<!-- Node3 -->
<g id="node3" class="node">
<title>Node3</title>
<g id="a_node3"><a xlink:href="../../d3/dd5/jewel-2_82_80_8f.html#ab7f466da83baa6283c73d34d5b154f96" target="_top" xlink:title="dofistatescat">
<polygon fill="none" stroke="#000000" points="569.5,-327.5 569.5,-347.5 651.5,-347.5 651.5,-327.5 569.5,-327.5"/>
<text text-anchor="middle" x="610.5" y="-334.5" font-family="FreeSans" font-size="10.00" fill="#000000">dofistatescat</text>
</a>
</g>
</g>
<!-- Node2&#45;&gt;Node3 -->
<g id="edge2" class="edge">
<title>Node2&#45;&gt;Node3</title>
<path fill="none" stroke="#191970" d="M509.3496,-337.5C528.2536,-337.5 550.5181,-337.5 569.3393,-337.5"/>
<polygon fill="#191970" stroke="#191970" points="509.2364,-334.0001 499.2363,-337.5 509.2363,-341.0001 509.2364,-334.0001"/>
</g>
<!-- Node17 -->
<g id="node17" class="node">
<title>Node17</title>
<g id="a_node17"><a xlink:href="../../d3/dd5/jewel-2_82_80_8f.html#ae04a1cde872f06c87fe7d114e5b49d38" target="_top" xlink:title="doinstatescat">
<polygon fill="none" stroke="#000000" points="568,-288.5 568,-308.5 653,-308.5 653,-288.5 568,-288.5"/>
<text text-anchor="middle" x="610.5" y="-295.5" font-family="FreeSans" font-size="10.00" fill="#000000">doinstatescat</text>
</a>
</g>
</g>
<!-- Node2&#45;&gt;Node17 -->
<g id="edge18" class="edge">
<title>Node2&#45;&gt;Node17</title>
<path fill="none" stroke="#191970" d="M508.9401,-326.1982C529.445,-320.6059 553.9824,-313.9139 573.8016,-308.5086"/>
<polygon fill="#191970" stroke="#191970" points="507.963,-322.8367 499.2363,-328.8446 509.8049,-329.5901 507.963,-322.8367"/>
</g>
<!-- Node4 -->
<g id="node4" class="node">
<title>Node4</title>
<g id="a_node4"><a xlink:href="../../d3/dd5/jewel-2_82_80_8f.html#a044420a55f044d6181e574828f502681" target="_top" xlink:title="makebranch">
<polygon fill="none" stroke="#000000" points="739.5,-313.5 739.5,-333.5 818.5,-333.5 818.5,-313.5 739.5,-313.5"/>
<text text-anchor="middle" x="779" y="-320.5" font-family="FreeSans" font-size="10.00" fill="#000000">makebranch</text>
</a>
</g>
</g>
<!-- Node3&#45;&gt;Node4 -->
<g id="edge3" class="edge">
<title>Node3&#45;&gt;Node4</title>
<path fill="none" stroke="#191970" d="M661.7359,-333.243C686.669,-331.1714 716.1845,-328.7191 739.3661,-326.793"/>
<polygon fill="#191970" stroke="#191970" points="661.3956,-329.7591 651.7197,-334.0752 661.9752,-336.7351 661.3956,-329.7591"/>
</g>
<!-- Node5 -->
<g id="node5" class="node">
<title>Node5</title>
<g id="a_node5"><a xlink:href="../../d3/dd5/jewel-2_82_80_8f.html#ae4babd1fd98f3de7eb1da1c259c99065" target="_top" xlink:title="makecascade">
<polygon fill="none" stroke="#000000" points="921.5,-313.5 921.5,-333.5 1006.5,-333.5 1006.5,-313.5 921.5,-313.5"/>
<text text-anchor="middle" x="964" y="-320.5" font-family="FreeSans" font-size="10.00" fill="#000000">makecascade</text>
</a>
</g>
</g>
<!-- Node4&#45;&gt;Node5 -->
<g id="edge4" class="edge">
<title>Node4&#45;&gt;Node5</title>
<path fill="none" stroke="#191970" d="M828.9939,-323.5C857.9175,-323.5 893.9267,-323.5 921.4802,-323.5"/>
<polygon fill="#191970" stroke="#191970" points="828.6872,-320.0001 818.6871,-323.5 828.6871,-327.0001 828.6872,-320.0001"/>
</g>
<!-- Node6 -->
<g id="node6" class="node">
<title>Node6</title>
<g id="a_node6"><a xlink:href="../../d3/dd5/jewel-2_82_80_8f.html#aeb24fa7919aa21c652e9c8f2ec45cb91" target="_top" xlink:title="genevent">
<polygon fill="none" stroke="#000000" points="1126,-313.5 1126,-333.5 1191,-333.5 1191,-313.5 1126,-313.5"/>
<text text-anchor="middle" x="1158.5" y="-320.5" font-family="FreeSans" font-size="10.00" fill="#000000">genevent</text>
</a>
</g>
</g>
<!-- Node5&#45;&gt;Node6 -->
<g id="edge5" class="edge">
<title>Node5&#45;&gt;Node6</title>
<path fill="none" stroke="#191970" d="M1016.6904,-323.5C1051.5207,-323.5 1096.0802,-323.5 1125.8671,-323.5"/>
<polygon fill="#191970" stroke="#191970" points="1016.6839,-320.0001 1006.6839,-323.5 1016.6838,-327.0001 1016.6839,-320.0001"/>
</g>
<!-- Node7 -->
<g id="node7" class="node">
<title>Node7</title>
<g id="a_node7"><a xlink:href="../../d6/d45/classEpFinderEval.html#af537855512c06847c1021dd83f015031" target="_top" xlink:title="EpFinderEval::fill_tree">
<polygon fill="none" stroke="#000000" points="1311,-480.5 1311,-500.5 1437,-500.5 1437,-480.5 1311,-480.5"/>
<text text-anchor="middle" x="1374" y="-487.5" font-family="FreeSans" font-size="10.00" fill="#000000">EpFinderEval::fill_tree</text>
</a>
</g>
</g>
<!-- Node6&#45;&gt;Node7 -->
<g id="edge6" class="edge">
<title>Node6&#45;&gt;Node7</title>
<path fill="none" stroke="#191970" d="M1175.582,-340.827C1196.2922,-361.4121 1232.695,-396.2646 1267,-422.5 1296.722,-445.2304 1334.1542,-467.7586 1355.9498,-480.3295"/>
<polygon fill="#191970" stroke="#191970" points="1177.9924,-338.2875 1168.45,-333.6838 1173.0387,-343.2334 1177.9924,-338.2875"/>
</g>
<!-- Node9 -->
<g id="node9" class="node">
<title>Node9</title>
<g id="a_node9"><a xlink:href="../../dd/d2a/classPHHepMCGenHelper.html#ab0c755f6e53c0bf57ccd314a0017d227" target="_top" xlink:title="send HepMC::GenEvent to DST tree. This function takes ownership of evt">
<polygon fill="none" stroke="#000000" points="1296,-380.5 1296,-412.5 1452,-412.5 1452,-380.5 1296,-380.5"/>
<text text-anchor="start" x="1304" y="-399.5" font-family="FreeSans" font-size="10.00" fill="#000000">PHHepMCGenHelper::insert</text>
<text text-anchor="middle" x="1374" y="-387.5" font-family="FreeSans" font-size="10.00" fill="#000000">_event</text>
</a>
</g>
</g>
<!-- Node6&#45;&gt;Node9 -->
<g id="edge8" class="edge">
<title>Node6&#45;&gt;Node9</title>
<path fill="none" stroke="#191970" d="M1195.0914,-337.0377C1216.0711,-344.7028 1242.9392,-354.3561 1267,-362.5 1284.9089,-368.5616 1304.6082,-374.911 1322.1699,-380.4599"/>
<polygon fill="#191970" stroke="#191970" points="1196.1949,-333.7146 1185.6012,-333.5594 1193.786,-340.287 1196.1949,-333.7146"/>
</g>
<!-- Node13 -->
<g id="node13" class="node">
<title>Node13</title>
<g id="a_node13"><a xlink:href="../../d9/d3a/classPHPythia8.html#a5cc4124cc6be2fb2467714e3d3bc5a6a" target="_top" xlink:title="PHPythia8::process\l_event">
<polygon fill="none" stroke="#000000" points="1552,-330.5 1552,-362.5 1665,-362.5 1665,-330.5 1552,-330.5"/>
<text text-anchor="start" x="1560" y="-349.5" font-family="FreeSans" font-size="10.00" fill="#000000">PHPythia8::process</text>
<text text-anchor="middle" x="1608.5" y="-337.5" font-family="FreeSans" font-size="10.00" fill="#000000">_event</text>
</a>
</g>
</g>
<!-- Node6&#45;&gt;Node13 -->
<g id="edge16" class="edge">
<title>Node6&#45;&gt;Node13</title>
<path fill="none" stroke="#191970" d="M1201.6396,-325.7049C1283.374,-329.8824 1460.7568,-338.9487 1551.9131,-343.6078"/>
<polygon fill="#191970" stroke="#191970" points="1201.391,-322.1877 1191.2254,-325.1726 1201.0336,-329.1786 1201.391,-322.1877"/>
</g>
<!-- Node14 -->
<g id="node14" class="node">
<title>Node14</title>
<g id="a_node14"><a xlink:href="../../da/df0/classPHSartre.html#aafe9fd92317ab1f7eee67a9354696c4e" target="_top" xlink:title="PHSartre::process_event">
<polygon fill="none" stroke="#000000" points="1538.5,-291.5 1538.5,-311.5 1678.5,-311.5 1678.5,-291.5 1538.5,-291.5"/>
<text text-anchor="middle" x="1608.5" y="-298.5" font-family="FreeSans" font-size="10.00" fill="#000000">PHSartre::process_event</text>
</a>
</g>
</g>
<!-- Node6&#45;&gt;Node14 -->
<g id="edge15" class="edge">
<title>Node6&#45;&gt;Node14</title>
<path fill="none" stroke="#191970" d="M1201.6196,-321.3919C1279.4845,-317.5852 1444.2021,-309.5323 1538.4355,-304.9254"/>
<polygon fill="#191970" stroke="#191970" points="1201.0425,-317.9159 1191.2254,-321.9001 1201.3844,-324.9075 1201.0425,-317.9159"/>
</g>
<!-- Node15 -->
<g id="node15" class="node">
<title>Node15</title>
<g id="a_node15"><a xlink:href="../../d3/dd5/jewel-2_82_80_8f.html#a15e2df3184692bfe4ca2261638190094" target="_top" xlink:title="jewel">
<polygon fill="none" stroke="#000000" points="1352.5,-222.5 1352.5,-242.5 1395.5,-242.5 1395.5,-222.5 1352.5,-222.5"/>
<text text-anchor="middle" x="1374" y="-229.5" font-family="FreeSans" font-size="10.00" fill="#000000">jewel</text>
</a>
</g>
</g>
<!-- Node6&#45;&gt;Node15 -->
<g id="edge14" class="edge">
<title>Node6&#45;&gt;Node15</title>
<path fill="none" stroke="#191970" d="M1181.5151,-307.7452C1210.5657,-287.9682 1257.8665,-256.1705 1267,-252.5 1295.2316,-241.1547 1330.2741,-236.1692 1352.3944,-234.0314"/>
<polygon fill="#191970" stroke="#191970" points="1179.4367,-304.9261 1173.1477,-313.4525 1183.3812,-310.709 1179.4367,-304.9261"/>
</g>
<!-- Node16 -->
<g id="node16" class="node">
<title>Node16</title>
<g id="a_node16"><a xlink:href="../../de/d99/classFun4AllHepMCPileupInputManager.html#a81bf2b69c3c4d3aae0aadebafe1c2c2e" target="_top" xlink:title="Fun4AllHepMCPileupInputManager::run">
<polygon fill="none" stroke="#000000" points="1267,-261.5 1267,-281.5 1481,-281.5 1481,-261.5 1267,-261.5"/>
<text text-anchor="middle" x="1374" y="-268.5" font-family="FreeSans" font-size="10.00" fill="#000000">Fun4AllHepMCPileupInputManager::run</text>
</a>
</g>
</g>
<!-- Node6&#45;&gt;Node16 -->
<g id="edge17" class="edge">
<title>Node6&#45;&gt;Node16</title>
<path fill="none" stroke="#191970" d="M1200.983,-312.7782C1220.9958,-307.7659 1245.2074,-301.7571 1267,-296.5 1287.8628,-291.4672 1311.0529,-286.0298 1330.4958,-281.5153"/>
<polygon fill="#191970" stroke="#191970" points="1200.0786,-309.3966 1191.2309,-315.225 1201.7821,-316.1861 1200.0786,-309.3966"/>
</g>
<!-- Node8 -->
<g id="node8" class="node">
<title>Node8</title>
<g id="a_node8"><a xlink:href="../../d6/d45/classEpFinderEval.html#a2539c184425a5dceabf6a3be79b31e9a" target="_top" xlink:title="EpFinderEval::process\l_event">
<polygon fill="none" stroke="#000000" points="1544.5,-522.5 1544.5,-554.5 1672.5,-554.5 1672.5,-522.5 1544.5,-522.5"/>
<text text-anchor="start" x="1552.5" y="-541.5" font-family="FreeSans" font-size="10.00" fill="#000000">EpFinderEval::process</text>
<text text-anchor="middle" x="1608.5" y="-529.5" font-family="FreeSans" font-size="10.00" fill="#000000">_event</text>
</a>
</g>
</g>
<!-- Node7&#45;&gt;Node8 -->
<g id="edge7" class="edge">
<title>Node7&#45;&gt;Node8</title>
<path fill="none" stroke="#191970" d="M1433.0788,-502.5929C1466.9172,-509.5193 1509.4132,-518.2178 1544.1032,-525.3186"/>
<polygon fill="#191970" stroke="#191970" points="1433.3722,-499.0804 1422.8734,-500.5039 1431.9684,-505.9383 1433.3722,-499.0804"/>
</g>
<!-- Node10 -->
<g id="node10" class="node">
<title>Node10</title>
<g id="a_node10"><a xlink:href="../../d6/d6f/classFun4AllHepMCInputManager.html#ab6c80a8ee0701bfff5eee3ec3623015c" target="_top" xlink:title="Fun4AllHepMCInputManager::run">
<polygon fill="none" stroke="#000000" points="1517,-483.5 1517,-503.5 1700,-503.5 1700,-483.5 1517,-483.5"/>
<text text-anchor="middle" x="1608.5" y="-490.5" font-family="FreeSans" font-size="10.00" fill="#000000">Fun4AllHepMCInputManager::run</text>
</a>
</g>
</g>
<!-- Node9&#45;&gt;Node10 -->
<g id="edge9" class="edge">
<title>Node9&#45;&gt;Node10</title>
<path fill="none" stroke="#191970" d="M1406.8869,-418.0953C1435.0497,-435.6762 1477.2384,-459.8937 1517,-474.5 1526.5944,-478.0245 1537.008,-480.9649 1547.2566,-483.3954"/>
<polygon fill="#191970" stroke="#191970" points="1408.58,-415.025 1398.2568,-412.6411 1404.8402,-420.9423 1408.58,-415.025"/>
</g>
<!-- Node11 -->
<g id="node11" class="node">
<title>Node11</title>
<g id="a_node11"><a xlink:href="../../db/d1f/classFun4AllOscarInputManager.html#a1537e89c4e652f70747fbbef18ceadc4" target="_top" xlink:title="Fun4AllOscarInputManager\l::ConvertFromOscar">
<polygon fill="none" stroke="#ff0000" points="1531.5,-432.5 1531.5,-464.5 1685.5,-464.5 1685.5,-432.5 1531.5,-432.5"/>
<text text-anchor="start" x="1539.5" y="-451.5" font-family="FreeSans" font-size="10.00" fill="#000000">Fun4AllOscarInputManager</text>
<text text-anchor="middle" x="1608.5" y="-439.5" font-family="FreeSans" font-size="10.00" fill="#000000">::ConvertFromOscar</text>
</a>
</g>
</g>
<!-- Node9&#45;&gt;Node11 -->
<g id="edge10" class="edge">
<title>Node9&#45;&gt;Node11</title>
<path fill="none" stroke="#191970" d="M1456.1159,-414.7091C1482.1598,-420.4843 1510.7518,-426.8245 1536.0638,-432.4374"/>
<polygon fill="#191970" stroke="#191970" points="1456.7918,-411.274 1446.2712,-412.526 1455.2763,-418.108 1456.7918,-411.274"/>
</g>
<!-- Node12 -->
<g id="node12" class="node">
<title>Node12</title>
<g id="a_node12"><a xlink:href="../../dd/da8/classPHPythia6.html#a7a70bdd1c198a83ed143d3e2c4516d0d" target="_top" xlink:title="PHPythia6::process\l_event">
<polygon fill="none" stroke="#000000" points="1552,-381.5 1552,-413.5 1665,-413.5 1665,-381.5 1552,-381.5"/>
<text text-anchor="start" x="1560" y="-400.5" font-family="FreeSans" font-size="10.00" fill="#000000">PHPythia6::process</text>
<text text-anchor="middle" x="1608.5" y="-388.5" font-family="FreeSans" font-size="10.00" fill="#000000">_event</text>
</a>
</g>
</g>
<!-- Node9&#45;&gt;Node12 -->
<g id="edge11" class="edge">
<title>Node9&#45;&gt;Node12</title>
<path fill="none" stroke="#191970" d="M1462.16,-396.8759C1492.2125,-397.0041 1524.9865,-397.1439 1551.8859,-397.2586"/>
<polygon fill="#191970" stroke="#191970" points="1462.1,-393.3758 1452.0851,-396.833 1462.0701,-400.3757 1462.1,-393.3758"/>
</g>
<!-- Node9&#45;&gt;Node13 -->
<g id="edge12" class="edge">
<title>Node9&#45;&gt;Node13</title>
<path fill="none" stroke="#191970" d="M1459.0754,-378.3603C1489.9869,-371.7693 1524.1323,-364.4888 1551.9706,-358.5532"/>
<polygon fill="#191970" stroke="#191970" points="1458.2151,-374.9649 1449.1649,-380.4734 1459.6749,-381.811 1458.2151,-374.9649"/>
</g>
<!-- Node9&#45;&gt;Node14 -->
<g id="edge13" class="edge">
<title>Node9&#45;&gt;Node14</title>
<path fill="none" stroke="#191970" d="M1408.0709,-375.29C1436.3188,-358.5371 1478.017,-335.6908 1517,-321.5 1527.8485,-317.5509 1539.7176,-314.2539 1551.2067,-311.5511"/>
<polygon fill="#191970" stroke="#191970" points="1406.1672,-372.3505 1399.3926,-380.4965 1409.7684,-378.3531 1406.1672,-372.3505"/>
</g>
<!-- Node17&#45;&gt;Node4 -->
<g id="edge19" class="edge">
<title>Node17&#45;&gt;Node4</title>
<path fill="none" stroke="#191970" d="M662.9507,-306.282C687.631,-309.9438 716.5782,-314.2386 739.3878,-317.6228"/>
<polygon fill="#191970" stroke="#191970" points="663.4251,-302.8142 653.0197,-304.8086 662.3977,-309.7384 663.4251,-302.8142"/>
</g>
<!-- Node19&#45;&gt;Node2 -->
<g id="edge55" class="edge">
<title>Node19&#45;&gt;Node2</title>
<path fill="none" stroke="#191970" d="M169.7501,-229.5726C183.0527,-236.877 199.3176,-245.7292 214,-253.5 263.8943,-279.9069 273.5689,-293.2822 327,-311.5 363.2754,-323.8684 406.9398,-330.7778 435.8617,-334.3124"/>
<polygon fill="#191970" stroke="#191970" points="171.1006,-226.3208 160.6523,-224.565 167.7252,-232.4532 171.1006,-226.3208"/>
</g>
<!-- Node20 -->
<g id="node20" class="node">
<title>Node20</title>
<g id="a_node20"><a xlink:href="../../d3/dd5/jewel-2_82_80_8f.html#ae02c7535fcec507ceebd0db60e97f9ae" target="_top" xlink:title="splitfncint">
<polygon fill="none" stroke="#000000" points="327,-242.5 327,-262.5 394,-262.5 394,-242.5 327,-242.5"/>
<text text-anchor="middle" x="360.5" y="-249.5" font-family="FreeSans" font-size="10.00" fill="#000000">splitfncint</text>
</a>
</g>
</g>
<!-- Node19&#45;&gt;Node20 -->
<g id="edge22" class="edge">
<title>Node19&#45;&gt;Node20</title>
<path fill="none" stroke="#191970" d="M186.1637,-227.0717C195.3093,-229.4317 204.9304,-231.7148 214,-233.5 252.3754,-241.0537 297.0174,-246.3502 326.842,-249.3983"/>
<polygon fill="#191970" stroke="#191970" points="187.0382,-223.6827 176.475,-224.5007 185.2427,-230.4485 187.0382,-223.6827"/>
</g>
<!-- Node19&#45;&gt;Node44 -->
<g id="edge53" class="edge">
<title>Node19&#45;&gt;Node44</title>
<path fill="none" stroke="#191970" d="M179.5369,-201.0784C223.3203,-185.2119 295.1081,-159.1971 333.7962,-145.1771"/>
<polygon fill="#191970" stroke="#191970" points="178.3191,-197.7969 170.1099,-204.4946 180.704,-204.3781 178.3191,-197.7969"/>
</g>
<!-- Node45 -->
<g id="node45" class="node">
<title>Node45</title>
<g id="a_node45"><a xlink:href="../../d2/d18/medium-simple_8f.html#aed8592c455e0f22092a5f434795d7026" target="_top" xlink:title="maxscatcen">
<polygon fill="none" stroke="#000000" points="214,-204.5 214,-224.5 291,-224.5 291,-204.5 214,-204.5"/>
<text text-anchor="middle" x="252.5" y="-211.5" font-family="FreeSans" font-size="10.00" fill="#000000">maxscatcen</text>
</a>
</g>
</g>
<!-- Node19&#45;&gt;Node45 -->
<g id="edge56" class="edge">
<title>Node19&#45;&gt;Node45</title>
<path fill="none" stroke="#191970" d="M187.6357,-214.5C196.3592,-214.5 205.4251,-214.5 213.9163,-214.5"/>
<polygon fill="#191970" stroke="#191970" points="187.6072,-211.0001 177.6071,-214.5 187.6071,-218.0001 187.6072,-211.0001"/>
</g>
<!-- Node50 -->
<g id="node50" class="node">
<title>Node50</title>
<g id="a_node50"><a xlink:href="../../dd/d35/medium-vac_8f.html#a41d995c162bbb4ad580e4e406343026a" target="_top" xlink:title="getmsmax">
<polygon fill="none" stroke="#000000" points="217.5,-126.5 217.5,-146.5 287.5,-146.5 287.5,-126.5 217.5,-126.5"/>
<text text-anchor="middle" x="252.5" y="-133.5" font-family="FreeSans" font-size="10.00" fill="#000000">getmsmax</text>
</a>
</g>
</g>
<!-- Node19&#45;&gt;Node50 -->
<g id="edge68" class="edge">
<title>Node19&#45;&gt;Node50</title>
<path fill="none" stroke="#191970" d="M163.5828,-198.3371C177.6908,-187.6547 196.7623,-173.4684 214,-161.5 221.201,-156.5002 229.322,-151.1814 236.2427,-146.7407"/>
<polygon fill="#191970" stroke="#191970" points="161.3411,-195.6448 155.5007,-204.4845 165.5789,-201.2163 161.3411,-195.6448"/>
</g>
<!-- Node21 -->
<g id="node21" class="node">
<title>Node21</title>
<g id="a_node21"><a xlink:href="../../d3/dd5/jewel-2_82_80_8f.html#ac10ce76c4f5f9029887dacaed4e00578" target="_top" xlink:title="init">
<polygon fill="none" stroke="#000000" points="451,-164.5 451,-184.5 484,-184.5 484,-164.5 451,-164.5"/>
<text text-anchor="middle" x="467.5" y="-171.5" font-family="FreeSans" font-size="10.00" fill="#000000">init</text>
</a>
</g>
</g>
<!-- Node20&#45;&gt;Node21 -->
<g id="edge23" class="edge">
<title>Node20&#45;&gt;Node21</title>
<path fill="none" stroke="#191970" d="M387.304,-236.9243C389.5929,-235.4659 391.8523,-233.9793 394,-232.5 416.4899,-217.0098 441.1156,-196.872 455.3883,-184.8576"/>
<polygon fill="#191970" stroke="#191970" points="385.1902,-234.1153 378.5035,-242.3335 388.8557,-240.0788 385.1902,-234.1153"/>
</g>
<!-- Node21&#45;&gt;Node15 -->
<g id="edge29" class="edge">
<title>Node21&#45;&gt;Node15</title>
<path fill="none" stroke="#191970" d="M484.075,-192.109C497.9135,-205.5999 518.8855,-223.3964 541,-232.5 639.4415,-273.0242 672.5437,-259.5 779,-259.5 779,-259.5 779,-259.5 964,-259.5 1112.7329,-259.5 1291.1608,-241.59 1352.2537,-234.9437"/>
<polygon fill="#191970" stroke="#191970" points="486.3209,-189.4029 476.7967,-184.7616 481.3478,-194.3292 486.3209,-189.4029"/>
</g>
<!-- Node22 -->
<g id="node22" class="node">
<title>Node22</title>
<g id="a_node22"><a xlink:href="../../db/d04/hcalUtilDict_8cxx.html#a645030b0a93f2835018e22462ba6fea2" target="_top" xlink:title="G__hcalUtilDict__0_1605">
<polygon fill="none" stroke="#000000" points="541,-164.5 541,-184.5 680,-184.5 680,-164.5 541,-164.5"/>
<text text-anchor="middle" x="610.5" y="-171.5" font-family="FreeSans" font-size="10.00" fill="#000000">G__hcalUtilDict__0_1605</text>
</a>
</g>
</g>
<!-- Node21&#45;&gt;Node22 -->
<g id="edge24" class="edge">
<title>Node21&#45;&gt;Node22</title>
<path fill="none" stroke="#191970" d="M494.4169,-174.5C507.6385,-174.5 524.2445,-174.5 540.728,-174.5"/>
<polygon fill="#191970" stroke="#191970" points="494.1838,-171.0001 484.1838,-174.5 494.1837,-178.0001 494.1838,-171.0001"/>
</g>
<!-- Node27 -->
<g id="node27" class="node">
<title>Node27</title>
<g id="a_node27"><a xlink:href="../../d8/d79/structloaderObj.html#a5a6895c11ed6516a1f8b81350cb242ae" target="_top" xlink:title="loaderObj::loaderObj">
<polygon fill="none" stroke="#000000" points="550,-125.5 550,-145.5 671,-145.5 671,-125.5 550,-125.5"/>
<text text-anchor="middle" x="610.5" y="-132.5" font-family="FreeSans" font-size="10.00" fill="#000000">loaderObj::loaderObj</text>
</a>
</g>
</g>
<!-- Node21&#45;&gt;Node27 -->
<g id="edge30" class="edge">
<title>Node21&#45;&gt;Node27</title>
<path fill="none" stroke="#191970" d="M494.013,-167.2692C516.4182,-161.1587 548.7492,-152.3411 573.6681,-145.5451"/>
<polygon fill="#191970" stroke="#191970" points="492.9105,-163.942 484.1838,-169.9499 494.7524,-170.6953 492.9105,-163.942"/>
</g>
<!-- Node28 -->
<g id="node28" class="node">
<title>Node28</title>
<g id="a_node28"><a xlink:href="../../dd/d4a/pyhistfe_8f.html#ab0e9fd05977e781b7a6447665ed5c99b" target="_top" xlink:title="pyhistfe">
<polygon fill="none" stroke="#000000" points="582,-86.5 582,-106.5 639,-106.5 639,-86.5 582,-86.5"/>
<text text-anchor="middle" x="610.5" y="-93.5" font-family="FreeSans" font-size="10.00" fill="#000000">pyhistfe</text>
</a>
</g>
</g>
<!-- Node21&#45;&gt;Node28 -->
<g id="edge31" class="edge">
<title>Node21&#45;&gt;Node28</title>
<path fill="none" stroke="#191970" d="M484.9193,-157.0454C498.9612,-143.8857 519.7978,-126.3135 541,-115.5 553.7032,-109.0212 568.8747,-104.5448 581.797,-101.5722"/>
<polygon fill="#191970" stroke="#191970" points="482.264,-154.7433 477.4854,-164.1994 487.1178,-159.7872 482.264,-154.7433"/>
</g>
<!-- Node39 -->
<g id="node39" class="node">
<title>Node39</title>
<g id="a_node39"><a xlink:href="../../d6/dcf/pythia6425mod_8f.html#a27a2354cb3c8dc0f2fd65bc366f1cad9" target="_top" xlink:title="pymsin">
<polygon fill="none" stroke="#000000" points="584,-203.5 584,-223.5 637,-223.5 637,-203.5 584,-203.5"/>
<text text-anchor="middle" x="610.5" y="-210.5" font-family="FreeSans" font-size="10.00" fill="#000000">pymsin</text>
</a>
</g>
</g>
<!-- Node21&#45;&gt;Node39 -->
<g id="edge47" class="edge">
<title>Node21&#45;&gt;Node39</title>
<path fill="none" stroke="#191970" d="M493.975,-181.7205C519.6242,-188.7157 558.3074,-199.2657 583.9738,-206.2656"/>
<polygon fill="#191970" stroke="#191970" points="494.7524,-178.3047 484.1838,-179.0501 492.9105,-185.058 494.7524,-178.3047"/>
</g>
<!-- Node43 -->
<g id="node43" class="node">
<title>Node43</title>
<g id="a_node43"><a xlink:href="../../d2/d51/usm_8C.html#a4fc3d7a8ab8dddafe2295d65165d9cf7" target="_top" xlink:title="tile">
<polygon fill="none" stroke="#000000" points="594.5,-47.5 594.5,-67.5 626.5,-67.5 626.5,-47.5 594.5,-47.5"/>
<text text-anchor="middle" x="610.5" y="-54.5" font-family="FreeSans" font-size="10.00" fill="#000000">tile</text>
</a>
</g>
</g>
<!-- Node21&#45;&gt;Node43 -->
<g id="edge52" class="edge">
<title>Node21&#45;&gt;Node43</title>
<path fill="none" stroke="#191970" d="M476.8767,-155.2795C488.7387,-132.9874 511.2589,-96.7197 541,-76.5 557.1374,-65.5289 579.4153,-60.8734 594.3576,-58.9104"/>
<polygon fill="#191970" stroke="#191970" points="473.6332,-153.9346 472.189,-164.4306 479.8633,-157.1261 473.6332,-153.9346"/>
</g>
<!-- Node23 -->
<g id="node23" class="node">
<title>Node23</title>
<g id="a_node23"><a xlink:href="../../db/d04/hcalUtilDict_8cxx.html#af58bd9b3d831b4473365f2d6c0612077" target="_top" xlink:title="G__cpp_setup_func15">
<polygon fill="none" stroke="#000000" points="716,-148.5 716,-168.5 842,-168.5 842,-148.5 716,-148.5"/>
<text text-anchor="middle" x="779" y="-155.5" font-family="FreeSans" font-size="10.00" fill="#000000">G__cpp_setup_func15</text>
</a>
</g>
</g>
<!-- Node22&#45;&gt;Node23 -->
<g id="edge25" class="edge">
<title>Node22&#45;&gt;Node23</title>
<path fill="none" stroke="#191970" d="M690.1022,-166.9413C698.7451,-166.1206 707.4533,-165.2937 715.8617,-164.4953"/>
<polygon fill="#191970" stroke="#191970" points="689.6326,-163.4701 680.0082,-167.8998 690.2943,-170.4387 689.6326,-163.4701"/>
</g>
<!-- Node24 -->
<g id="node24" class="node">
<title>Node24</title>
<g id="a_node24"><a xlink:href="../../d2/d0d/hcalUtilDict_8h.html#a2d6bece47ce27ae6a70965770a8714e6" target="_top" xlink:title="G__cpp_setup_funchcalUtilDict">
<polygon fill="none" stroke="#000000" points="878,-132.5 878,-152.5 1050,-152.5 1050,-132.5 878,-132.5"/>
<text text-anchor="middle" x="964" y="-139.5" font-family="FreeSans" font-size="10.00" fill="#000000">G__cpp_setup_funchcalUtilDict</text>
</a>
</g>
</g>
<!-- Node23&#45;&gt;Node24 -->
<g id="edge26" class="edge">
<title>Node23&#45;&gt;Node24</title>
<path fill="none" stroke="#191970" d="M852.2838,-152.1619C860.699,-151.4341 869.3362,-150.6871 877.8999,-149.9465"/>
<polygon fill="#191970" stroke="#191970" points="851.8103,-148.6897 842.1491,-153.0385 852.4135,-155.6637 851.8103,-148.6897"/>
</g>
<!-- Node25 -->
<g id="node25" class="node">
<title>Node25</title>
<g id="a_node25"><a xlink:href="../../db/d04/hcalUtilDict_8cxx.html#ad988782fa3ca3b39ec5ae66490fd5b1a" target="_top" xlink:title="G__cpp_setuphcalUtilDict">
<polygon fill="none" stroke="#000000" points="1086,-159.5 1086,-179.5 1231,-179.5 1231,-159.5 1086,-159.5"/>
<text text-anchor="middle" x="1158.5" y="-166.5" font-family="FreeSans" font-size="10.00" fill="#000000">G__cpp_setuphcalUtilDict</text>
</a>
</g>
</g>
<!-- Node24&#45;&gt;Node25 -->
<g id="edge27" class="edge">
<title>Node24&#45;&gt;Node25</title>
<path fill="none" stroke="#191970" d="M1046.2046,-153.9114C1059.475,-155.7536 1073.1284,-157.6489 1086.144,-159.4557"/>
<polygon fill="#191970" stroke="#191970" points="1046.5345,-150.4238 1036.1482,-152.5154 1045.572,-157.3573 1046.5345,-150.4238"/>
</g>
<!-- Node26 -->
<g id="node26" class="node">
<title>Node26</title>
<g id="a_node26"><a xlink:href="../../df/d42/classG____cpp__setup__inithcalUtilDict.html#aa622179f9b5d5d7a9b9ba1c6b0ea55c6" target="_top" xlink:title="G__cpp_setup_inithcalUtil\lDict::G__cpp_setup_inithcalUtilDict">
<polygon fill="none" stroke="#000000" points="1278,-156.5 1278,-188.5 1470,-188.5 1470,-156.5 1278,-156.5"/>
<text text-anchor="start" x="1286" y="-175.5" font-family="FreeSans" font-size="10.00" fill="#000000">G__cpp_setup_inithcalUtil</text>
<text text-anchor="middle" x="1374" y="-163.5" font-family="FreeSans" font-size="10.00" fill="#000000">Dict::G__cpp_setup_inithcalUtilDict</text>
</a>
</g>
</g>
<!-- Node25&#45;&gt;Node26 -->
<g id="edge28" class="edge">
<title>Node25&#45;&gt;Node26</title>
<path fill="none" stroke="#191970" d="M1241.5151,-170.6557C1253.4439,-170.8217 1265.8003,-170.9937 1277.9556,-171.163"/>
<polygon fill="#191970" stroke="#191970" points="1241.2058,-167.1511 1231.158,-170.5115 1241.1083,-174.1504 1241.2058,-167.1511"/>
</g>
<!-- Node29 -->
<g id="node29" class="node">
<title>Node29</title>
<g id="a_node29"><a xlink:href="../../dd/d07/pyhistfu_8f.html#aff2156d2f044d368c202a463aaa11732" target="_top" xlink:title="pyhistfu">
<polygon fill="none" stroke="#000000" points="750.5,-78.5 750.5,-98.5 807.5,-98.5 807.5,-78.5 750.5,-78.5"/>
<text text-anchor="middle" x="779" y="-85.5" font-family="FreeSans" font-size="10.00" fill="#000000">pyhistfu</text>
</a>
</g>
</g>
<!-- Node28&#45;&gt;Node29 -->
<g id="edge32" class="edge">
<title>Node28&#45;&gt;Node29</title>
<path fill="none" stroke="#191970" d="M649.4518,-94.6507C680.2384,-93.189 722.51,-91.182 750.2761,-89.8637"/>
<polygon fill="#191970" stroke="#191970" points="648.9065,-91.1725 639.0837,-95.1429 649.2385,-98.1646 648.9065,-91.1725"/>
</g>
<!-- Node30 -->
<g id="node30" class="node">
<title>Node30</title>
<g id="a_node30"><a xlink:href="../../dd/dac/pyhisigh_8f.html#a17fc65c11bbc2a0a571b606acff9f09f" target="_top" xlink:title="pyhisigh">
<polygon fill="none" stroke="#000000" points="934.5,-78.5 934.5,-98.5 993.5,-98.5 993.5,-78.5 934.5,-78.5"/>
<text text-anchor="middle" x="964" y="-85.5" font-family="FreeSans" font-size="10.00" fill="#000000">pyhisigh</text>
</a>
</g>
</g>
<!-- Node29&#45;&gt;Node30 -->
<g id="edge33" class="edge">
<title>Node29&#45;&gt;Node30</title>
<path fill="none" stroke="#191970" d="M817.7361,-88.5C852.4372,-88.5 902.6009,-88.5 934.2404,-88.5"/>
<polygon fill="#191970" stroke="#191970" points="817.5009,-85.0001 807.5008,-88.5 817.5008,-92.0001 817.5009,-85.0001"/>
</g>
<!-- Node38 -->
<g id="node38" class="node">
<title>Node38</title>
<g id="a_node38"><a xlink:href="../../d3/d16/pyhisspa_8f.html#a5ac8143df37811155f43ea0c30e7f631" target="_top" xlink:title="pyhisspa">
<polygon fill="none" stroke="#000000" points="1128,-.5 1128,-20.5 1189,-20.5 1189,-.5 1128,-.5"/>
<text text-anchor="middle" x="1158.5" y="-7.5" font-family="FreeSans" font-size="10.00" fill="#000000">pyhisspa</text>
</a>
</g>
</g>
<!-- Node29&#45;&gt;Node38 -->
<g id="edge45" class="edge">
<title>Node29&#45;&gt;Node38</title>
<path fill="none" stroke="#191970" d="M817.5606,-80.5745C893.0832,-65.0521 1059.1009,-30.9299 1127.8017,-16.8095"/>
<polygon fill="#191970" stroke="#191970" points="816.6148,-77.1957 807.5242,-82.6373 818.0241,-84.0523 816.6148,-77.1957"/>
</g>
<!-- Node31 -->
<g id="node31" class="node">
<title>Node31</title>
<g id="a_node31"><a xlink:href="../../dd/d7c/pyhimaxi_8f.html#aac610635dd3329298252ad5ce8c18037" target="_top" xlink:title="pyhimaxi">
<polygon fill="none" stroke="#000000" points="1127.5,-117.5 1127.5,-137.5 1189.5,-137.5 1189.5,-117.5 1127.5,-117.5"/>
<text text-anchor="middle" x="1158.5" y="-124.5" font-family="FreeSans" font-size="10.00" fill="#000000">pyhimaxi</text>
</a>
</g>
</g>
<!-- Node30&#45;&gt;Node31 -->
<g id="edge34" class="edge">
<title>Node30&#45;&gt;Node31</title>
<path fill="none" stroke="#191970" d="M1003.3732,-96.3949C1039.96,-103.731 1093.7256,-114.5118 1127.3918,-121.2624"/>
<polygon fill="#191970" stroke="#191970" points="1004.0333,-92.9577 993.5404,-94.4233 1002.6571,-99.821 1004.0333,-92.9577"/>
</g>
<!-- Node34 -->
<g id="node34" class="node">
<title>Node34</title>
<g id="a_node34"><a xlink:href="../../dd/ded/pyhimult_8f.html#ab211ef234aa1654aab2f5ec13044efbf" target="_top" xlink:title="pyhimult">
<polygon fill="none" stroke="#000000" points="1127.5,-78.5 1127.5,-98.5 1189.5,-98.5 1189.5,-78.5 1127.5,-78.5"/>
<text text-anchor="middle" x="1158.5" y="-85.5" font-family="FreeSans" font-size="10.00" fill="#000000">pyhimult</text>
</a>
</g>
</g>
<!-- Node30&#45;&gt;Node34 -->
<g id="edge37" class="edge">
<title>Node30&#45;&gt;Node34</title>
<path fill="none" stroke="#191970" d="M1003.8432,-88.5C1040.4191,-88.5 1093.8695,-88.5 1127.3918,-88.5"/>
<polygon fill="#191970" stroke="#191970" points="1003.5404,-85.0001 993.5404,-88.5 1003.5403,-92.0001 1003.5404,-85.0001"/>
</g>
<!-- Node35 -->
<g id="node35" class="node">
<title>Node35</title>
<g id="a_node35"><a xlink:href="../../dd/dfb/pyhirand_8f.html#a11c46259e3dc9a8f003b2d30a821340d" target="_top" xlink:title="pyhirand">
<polygon fill="none" stroke="#000000" points="1343.5,-39.5 1343.5,-59.5 1404.5,-59.5 1404.5,-39.5 1343.5,-39.5"/>
<text text-anchor="middle" x="1374" y="-46.5" font-family="FreeSans" font-size="10.00" fill="#000000">pyhirand</text>
</a>
</g>
</g>
<!-- Node30&#45;&gt;Node35 -->
<g id="edge44" class="edge">
<title>Node30&#45;&gt;Node35</title>
<path fill="none" stroke="#191970" d="M1004.0189,-80.9386C1027.7664,-76.7023 1058.5093,-71.6527 1086,-68.5 1179.342,-57.7954 1290.4478,-52.579 1343.2236,-50.5538"/>
<polygon fill="#191970" stroke="#191970" points="1003.1861,-77.5324 993.9691,-82.7571 1004.4325,-84.4205 1003.1861,-77.5324"/>
</g>
<!-- Node32 -->
<g id="node32" class="node">
<title>Node32</title>
<g id="a_node32"><a xlink:href="../../d2/d24/pyhiinit_8f.html#a93154984510592257bbf242af68cb276" target="_top" xlink:title="pyhiinit">
<polygon fill="none" stroke="#ff0000" points="1346.5,-117.5 1346.5,-137.5 1401.5,-137.5 1401.5,-117.5 1346.5,-117.5"/>
<text text-anchor="middle" x="1374" y="-124.5" font-family="FreeSans" font-size="10.00" fill="#000000">pyhiinit</text>
</a>
</g>
</g>
<!-- Node31&#45;&gt;Node32 -->
<g id="edge35" class="edge">
<title>Node31&#45;&gt;Node32</title>
<path fill="none" stroke="#191970" d="M1199.9955,-127.5C1243.0935,-127.5 1309.3047,-127.5 1346.3893,-127.5"/>
<polygon fill="#191970" stroke="#191970" points="1199.8356,-124.0001 1189.8356,-127.5 1199.8355,-131.0001 1199.8356,-124.0001"/>
</g>
<!-- Node33 -->
<g id="node33" class="node">
<title>Node33</title>
<g id="a_node33"><a xlink:href="../../d6/d97/pyhitest_8f.html#ad7a2cf3c87068f12f08723ca60d921f8" target="_top" xlink:title="pyhitest">
<polygon fill="none" stroke="#000000" points="1736,-107.5 1736,-127.5 1794,-127.5 1794,-107.5 1736,-107.5"/>
<text text-anchor="middle" x="1765" y="-114.5" font-family="FreeSans" font-size="10.00" fill="#000000">pyhitest</text>
</a>
</g>
</g>
<!-- Node32&#45;&gt;Node33 -->
<g id="edge36" class="edge">
<title>Node32&#45;&gt;Node33</title>
<path fill="none" stroke="#191970" d="M1412.128,-126.5249C1490.0404,-124.5322 1666.0221,-120.0314 1735.7498,-118.2481"/>
<polygon fill="#191970" stroke="#191970" points="1411.7135,-123.0342 1401.8063,-126.7888 1411.8926,-130.0319 1411.7135,-123.0342"/>
</g>
<!-- Node34&#45;&gt;Node32 -->
<g id="edge38" class="edge">
<title>Node34&#45;&gt;Node32</title>
<path fill="none" stroke="#191970" d="M1199.7224,-95.9602C1242.8134,-103.7586 1309.2263,-115.7776 1346.3893,-122.5032"/>
<polygon fill="#191970" stroke="#191970" points="1200.299,-92.5078 1189.8356,-94.1709 1199.0524,-99.3959 1200.299,-92.5078"/>
</g>
<!-- Node34&#45;&gt;Node35 -->
<g id="edge39" class="edge">
<title>Node34&#45;&gt;Node35</title>
<path fill="none" stroke="#191970" d="M1199.73,-81.0384C1241.6607,-73.45 1305.6686,-61.8662 1343.3244,-55.0515"/>
<polygon fill="#191970" stroke="#191970" points="1199.0524,-77.6041 1189.8356,-82.8291 1200.299,-84.4922 1199.0524,-77.6041"/>
</g>
<!-- Node36 -->
<g id="node36" class="node">
<title>Node36</title>
<g id="a_node36"><a xlink:href="../../dc/d4c/pyhithia_8f.html#a2854892a8ad546886195932d54962ba9" target="_top" xlink:title="pyhithia">
<polygon fill="none" stroke="#000000" points="1580,-49.5 1580,-69.5 1637,-69.5 1637,-49.5 1580,-49.5"/>
<text text-anchor="middle" x="1608.5" y="-56.5" font-family="FreeSans" font-size="10.00" fill="#000000">pyhithia</text>
</a>
</g>
</g>
<!-- Node34&#45;&gt;Node36 -->
<g id="edge43" class="edge">
<title>Node34&#45;&gt;Node36</title>
<path fill="none" stroke="#191970" d="M1199.6875,-86.0586C1261.0079,-82.3982 1379.9359,-75.2006 1481,-68.5 1514.9878,-66.2466 1554.057,-63.4597 1579.8943,-61.5893"/>
<polygon fill="#191970" stroke="#191970" points="1199.4121,-82.5687 1189.6381,-86.6576 1199.8287,-89.5563 1199.4121,-82.5687"/>
</g>
<!-- Node35&#45;&gt;Node36 -->
<g id="edge40" class="edge">
<title>Node35&#45;&gt;Node36</title>
<path fill="none" stroke="#191970" d="M1414.8244,-51.2409C1461.9692,-53.2513 1538.3252,-56.5075 1579.676,-58.2708"/>
<polygon fill="#191970" stroke="#191970" points="1414.7969,-47.7366 1404.6568,-50.8073 1414.4985,-54.7303 1414.7969,-47.7366"/>
</g>
<!-- Node36&#45;&gt;Node33 -->
<g id="edge42" class="edge">
<title>Node36&#45;&gt;Node33</title>
<path fill="none" stroke="#191970" d="M1645.3218,-73.1464C1673.6621,-83.6496 1712.1903,-97.9284 1737.7901,-107.4158"/>
<polygon fill="#191970" stroke="#191970" points="1646.3533,-69.7961 1635.7602,-69.6028 1643.9207,-76.3599 1646.3533,-69.7961"/>
</g>
<!-- Node37 -->
<g id="node37" class="node">
<title>Node37</title>
<g id="a_node37"><a xlink:href="../../d3/db7/hijhrd_8f.html#ace311e28a8574ca3a1d08790019cb213" target="_top" xlink:title="hijhrd">
<polygon fill="none" stroke="#ff0000" points="1742.5,-49.5 1742.5,-69.5 1787.5,-69.5 1787.5,-49.5 1742.5,-49.5"/>
<text text-anchor="middle" x="1765" y="-56.5" font-family="FreeSans" font-size="10.00" fill="#000000">hijhrd</text>
</a>
</g>
</g>
<!-- Node36&#45;&gt;Node37 -->
<g id="edge41" class="edge">
<title>Node36&#45;&gt;Node37</title>
<path fill="none" stroke="#191970" d="M1647.2687,-59.5C1677.0604,-59.5 1717.1979,-59.5 1742.0707,-59.5"/>
<polygon fill="#191970" stroke="#191970" points="1647.2045,-56.0001 1637.2045,-59.5 1647.2045,-63.0001 1647.2045,-56.0001"/>
</g>
<!-- Node38&#45;&gt;Node36 -->
<g id="edge46" class="edge">
<title>Node38&#45;&gt;Node36</title>
<path fill="none" stroke="#191970" d="M1199.4288,-10.6603C1260.8897,-11.4081 1380.5328,-14.8325 1481,-29.5 1515.4271,-34.5261 1554.2452,-44.2602 1579.9085,-51.2795"/>
<polygon fill="#191970" stroke="#191970" points="1199.397,-7.1599 1189.3611,-10.5557 1199.3242,-14.1595 1199.397,-7.1599"/>
</g>
<!-- Node40 -->
<g id="node40" class="node">
<title>Node40</title>
<g id="a_node40"><a xlink:href="../../d6/dcf/pythia6425mod_8f.html#aac00ac3ccd923c2c3dc37e2b89a9f025" target="_top" xlink:title="pyinit">
<polygon fill="none" stroke="#000000" points="756.5,-203.5 756.5,-223.5 801.5,-223.5 801.5,-203.5 756.5,-203.5"/>
<text text-anchor="middle" x="779" y="-210.5" font-family="FreeSans" font-size="10.00" fill="#000000">pyinit</text>
</a>
</g>
</g>
<!-- Node39&#45;&gt;Node40 -->
<g id="edge48" class="edge">
<title>Node39&#45;&gt;Node40</title>
<path fill="none" stroke="#191970" d="M647.4502,-213.5C680.7348,-213.5 728.5903,-213.5 756.47,-213.5"/>
<polygon fill="#191970" stroke="#191970" points="647.1994,-210.0001 637.1993,-213.5 647.1993,-217.0001 647.1994,-210.0001"/>
</g>
<!-- Node41 -->
<g id="node41" class="node">
<title>Node41</title>
<g id="a_node41"><a xlink:href="../../d3/dd5/jewel-2_82_80_8f.html#a2cba90a4cdaaf1d5de1cf1bfe9afaa2e" target="_top" xlink:title="initpythia">
<polygon fill="none" stroke="#000000" points="932.5,-210.5 932.5,-230.5 995.5,-230.5 995.5,-210.5 932.5,-210.5"/>
<text text-anchor="middle" x="964" y="-217.5" font-family="FreeSans" font-size="10.00" fill="#000000">initpythia</text>
</a>
</g>
</g>
<!-- Node40&#45;&gt;Node41 -->
<g id="edge49" class="edge">
<title>Node40&#45;&gt;Node41</title>
<path fill="none" stroke="#191970" d="M812.0487,-214.7505C846.1416,-216.0405 898.9317,-218.038 932.46,-219.3066"/>
<polygon fill="#191970" stroke="#191970" points="811.8099,-211.239 801.6846,-214.3583 811.5451,-218.234 811.8099,-211.239"/>
</g>
<!-- Node42 -->
<g id="node42" class="node">
<title>Node42</title>
<g id="a_node42"><a xlink:href="../../d6/dcf/pythia6425mod_8f.html#a4cc0e611278607d6b413b5cecdfe16c3" target="_top" xlink:title="pytest">
<polygon fill="none" stroke="#000000" points="940,-171.5 940,-191.5 988,-191.5 988,-171.5 940,-171.5"/>
<text text-anchor="middle" x="964" y="-178.5" font-family="FreeSans" font-size="10.00" fill="#000000">pytest</text>
</a>
</g>
</g>
<!-- Node40&#45;&gt;Node42 -->
<g id="edge51" class="edge">
<title>Node40&#45;&gt;Node42</title>
<path fill="none" stroke="#191970" d="M811.8821,-207.8123C848.6317,-201.4556 907.2561,-191.3152 939.9568,-185.6588"/>
<polygon fill="#191970" stroke="#191970" points="810.9417,-204.4229 801.6846,-209.5762 812.1349,-211.3205 810.9417,-204.4229"/>
</g>
<!-- Node41&#45;&gt;Node15 -->
<g id="edge50" class="edge">
<title>Node41&#45;&gt;Node15</title>
<path fill="none" stroke="#191970" d="M1006.0587,-221.731C1092.4579,-224.2597 1287.2688,-229.9615 1352.3598,-231.8666"/>
<polygon fill="#191970" stroke="#191970" points="1005.929,-218.2258 995.8308,-221.4316 1005.7241,-225.2228 1005.929,-218.2258"/>
</g>
<!-- Node44&#45;&gt;Node21 -->
<g id="edge54" class="edge">
<title>Node44&#45;&gt;Node21</title>
<path fill="none" stroke="#191970" d="M396.7416,-148.7095C415.0418,-155.3797 436.3593,-163.1496 450.7748,-168.4039"/>
<polygon fill="#191970" stroke="#191970" points="397.8186,-145.3769 387.2246,-145.2407 395.4214,-151.9537 397.8186,-145.3769"/>
</g>
<!-- Node45&#45;&gt;Node20 -->
<g id="edge62" class="edge">
<title>Node45&#45;&gt;Node20</title>
<path fill="none" stroke="#191970" d="M290.6769,-227.9326C304.1748,-232.6819 319.1193,-237.9401 331.7076,-242.3693"/>
<polygon fill="#191970" stroke="#191970" points="291.7533,-224.6011 281.1585,-224.5835 289.4299,-231.2043 291.7533,-224.6011"/>
</g>
<!-- Node45&#45;&gt;Node44 -->
<g id="edge65" class="edge">
<title>Node45&#45;&gt;Node44</title>
<path fill="none" stroke="#191970" d="M277.8872,-199.0248C282.3646,-196.0138 286.9007,-192.7719 291,-189.5 308.441,-175.5793 309.1493,-167.8913 327,-154.5 331.2788,-151.2901 336.1549,-148.2309 340.837,-145.5417"/>
<polygon fill="#191970" stroke="#191970" points="275.9651,-196.0998 269.4798,-204.4779 279.7742,-201.9726 275.9651,-196.0998"/>
</g>
<!-- Node45&#45;&gt;Node46 -->
<g id="edge57" class="edge">
<title>Node45&#45;&gt;Node46</title>
<path fill="none" stroke="#191970" d="M272.1131,-231.0441C286.8056,-243.118 307.6275,-259.565 327,-272.5 331.5598,-275.5445 336.6355,-278.5881 341.4289,-281.3189"/>
<polygon fill="#191970" stroke="#191970" points="274.1583,-228.1931 264.228,-224.5 269.6879,-233.5797 274.1583,-228.1931"/>
</g>
<!-- Node48 -->
<g id="node48" class="node">
<title>Node48</title>
<g id="a_node48"><a xlink:href="../../d3/dd5/jewel-2_82_80_8f.html#afe6d8abb7a08fd7eeff3ba43c004cbf4" target="_top" xlink:title="pdfint">
<polygon fill="none" stroke="#000000" points="337.5,-203.5 337.5,-223.5 383.5,-223.5 383.5,-203.5 337.5,-203.5"/>
<text text-anchor="middle" x="360.5" y="-210.5" font-family="FreeSans" font-size="10.00" fill="#000000">pdfint</text>
</a>
</g>
</g>
<!-- Node45&#45;&gt;Node48 -->
<g id="edge63" class="edge">
<title>Node45&#45;&gt;Node48</title>
<path fill="none" stroke="#191970" d="M301.5574,-214.0458C314.0761,-213.9299 326.9521,-213.8106 337.4638,-213.7133"/>
<polygon fill="#191970" stroke="#191970" points="301.1526,-210.5493 291.1854,-214.1418 301.2174,-217.549 301.1526,-210.5493"/>
</g>
<!-- Node49 -->
<g id="node49" class="node">
<title>Node49</title>
<g id="a_node49"><a xlink:href="../../d3/dd5/jewel-2_82_80_8f.html#a62047f8869694c81ff2deae6f8aa2479" target="_top" xlink:title="insudaint">
<polygon fill="none" stroke="#000000" points="328.5,-164.5 328.5,-184.5 392.5,-184.5 392.5,-164.5 328.5,-164.5"/>
<text text-anchor="middle" x="360.5" y="-171.5" font-family="FreeSans" font-size="10.00" fill="#000000">insudaint</text>
</a>
</g>
</g>
<!-- Node45&#45;&gt;Node49 -->
<g id="edge66" class="edge">
<title>Node45&#45;&gt;Node49</title>
<path fill="none" stroke="#191970" d="M289.3672,-200.8455C303.7558,-195.5164 319.9548,-189.5167 333.2558,-184.5905"/>
<polygon fill="#191970" stroke="#191970" points="287.9148,-197.651 279.753,-204.4063 290.3461,-204.2152 287.9148,-197.651"/>
</g>
<!-- Node46&#45;&gt;Node2 -->
<g id="edge59" class="edge">
<title>Node46&#45;&gt;Node2</title>
<path fill="none" stroke="#191970" d="M393.2358,-305.5733C409.6586,-312.6336 429.1712,-321.0222 444.0732,-327.4287"/>
<polygon fill="#191970" stroke="#191970" points="394.551,-302.3291 383.9816,-301.5949 391.7863,-308.76 394.551,-302.3291"/>
</g>
<!-- Node46&#45;&gt;Node17 -->
<g id="edge58" class="edge">
<title>Node46&#45;&gt;Node17</title>
<path fill="none" stroke="#191970" d="M400.3057,-292.6146C446.105,-293.8969 521.0141,-295.9944 567.9427,-297.3084"/>
<polygon fill="#191970" stroke="#191970" points="400.2541,-289.1118 390.16,-292.3305 400.0581,-296.1091 400.2541,-289.1118"/>
</g>
<!-- Node47 -->
<g id="node47" class="node">
<title>Node47</title>
<g id="a_node47"><a xlink:href="../../d3/dd5/jewel-2_82_80_8f.html#a514f8effde5f4e2d9bfcffd5104a7266" target="_top" xlink:title="getpnorad1">
<polygon fill="none" stroke="#000000" points="430,-249.5 430,-269.5 505,-269.5 505,-249.5 430,-249.5"/>
<text text-anchor="middle" x="467.5" y="-256.5" font-family="FreeSans" font-size="10.00" fill="#000000">getpnorad1</text>
</a>
</g>
</g>
<!-- Node46&#45;&gt;Node47 -->
<g id="edge60" class="edge">
<title>Node46&#45;&gt;Node47</title>
<path fill="none" stroke="#191970" d="M399.6178,-279.8012C410.8692,-276.4363 423.0374,-272.7972 433.9221,-269.542"/>
<polygon fill="#191970" stroke="#191970" points="398.5993,-276.4526 390.0215,-282.6712 400.6051,-283.1591 398.5993,-276.4526"/>
</g>
<!-- Node47&#45;&gt;Node17 -->
<g id="edge61" class="edge">
<title>Node47&#45;&gt;Node17</title>
<path fill="none" stroke="#191970" d="M514.1578,-272.2248C533.5103,-277.5028 555.6356,-283.537 573.7987,-288.4906"/>
<polygon fill="#191970" stroke="#191970" points="514.8946,-268.798 504.3261,-269.5435 513.0528,-275.5514 514.8946,-268.798"/>
</g>
<!-- Node48&#45;&gt;Node21 -->
<g id="edge64" class="edge">
<title>Node48&#45;&gt;Node21</title>
<path fill="none" stroke="#191970" d="M393.258,-201.5602C412.3518,-194.6007 435.6162,-186.1212 450.9554,-180.5303"/>
<polygon fill="#191970" stroke="#191970" points="391.9142,-198.3247 383.7174,-205.0376 394.3114,-204.9014 391.9142,-198.3247"/>
</g>
<!-- Node49&#45;&gt;Node21 -->
<g id="edge67" class="edge">
<title>Node49&#45;&gt;Node21</title>
<path fill="none" stroke="#191970" d="M402.8335,-174.5C419.6865,-174.5 438.0868,-174.5 450.9353,-174.5"/>
<polygon fill="#191970" stroke="#191970" points="402.6036,-171.0001 392.6035,-174.5 402.6035,-178.0001 402.6036,-171.0001"/>
</g>
</g>
</svg>
