<?xml version="1.0" encoding="UTF-8" standalone="no"?>
<!DOCTYPE svg PUBLIC "-//W3C//DTD SVG 1.1//EN"
 "http://www.w3.org/Graphics/SVG/1.1/DTD/svg11.dtd">
<!-- Generated by graphviz version 2.40.1 (20161225.0304)
 -->
<!-- Title: HelixHough::makeClusters Pages: 1 -->
<svg width="522pt" height="87pt"
 viewBox="0.00 0.00 522.00 87.00" xmlns="http://www.w3.org/2000/svg" xmlns:xlink="http://www.w3.org/1999/xlink">
<g id="graph0" class="graph" transform="scale(1 1) rotate(0) translate(4 83)">
<title>HelixHough::makeClusters</title>
<!-- Node1 -->
<g id="node1" class="node">
<title>Node1</title>
<polygon fill="#bfbfbf" stroke="#000000" points="0,-38.5 0,-58.5 151,-58.5 151,-38.5 0,-38.5"/>
<text text-anchor="middle" x="75.5" y="-45.5" font-family="FreeSans" font-size="10.00" fill="#000000">HelixHough::makeClusters</text>
</g>
<!-- Node2 -->
<g id="node2" class="node">
<title>Node2</title>
<g id="a_node2"><a xlink:href="../../dd/d1e/classBinEntryPair5D.html#abb83dcaa6ec548814dfcd1155de6afe0" target="_top" xlink:title="BinEntryPair5D::linearBin">
<polygon fill="none" stroke="#000000" points="187,-58.5 187,-78.5 331,-78.5 331,-58.5 187,-58.5"/>
<text text-anchor="middle" x="259" y="-65.5" font-family="FreeSans" font-size="10.00" fill="#000000">BinEntryPair5D::linearBin</text>
</a>
</g>
</g>
<!-- Node1&#45;&gt;Node2 -->
<g id="edge1" class="edge">
<title>Node1&#45;&gt;Node2</title>
<path fill="none" stroke="#191970" d="M151.1959,-56.7502C159.5482,-57.6606 168.0837,-58.5909 176.5138,-59.5097"/>
<polygon fill="#191970" stroke="#191970" points="176.4046,-63.0184 186.7249,-60.6226 177.1631,-56.0596 176.4046,-63.0184"/>
</g>
<!-- Node3 -->
<g id="node3" class="node">
<title>Node3</title>
<g id="a_node3"><a xlink:href="../../d1/dd2/HelixHough__findHelices_8cpp.html#a15d961acf27212612508c7b35c2d4e70" target="_top" xlink:title="mergeClusters">
<polygon fill="none" stroke="#000000" points="214,-19.5 214,-39.5 304,-39.5 304,-19.5 214,-19.5"/>
<text text-anchor="middle" x="259" y="-26.5" font-family="FreeSans" font-size="10.00" fill="#000000">mergeClusters</text>
</a>
</g>
</g>
<!-- Node1&#45;&gt;Node3 -->
<g id="edge2" class="edge">
<title>Node1&#45;&gt;Node3</title>
<path fill="none" stroke="#191970" d="M151.1959,-40.6623C168.8553,-38.8338 187.3337,-36.9205 203.9034,-35.2048"/>
<polygon fill="#191970" stroke="#191970" points="204.363,-38.676 213.9493,-34.1646 203.642,-31.7133 204.363,-38.676"/>
</g>
<!-- Node4 -->
<g id="node4" class="node">
<title>Node4</title>
<g id="a_node4"><a xlink:href="../../d1/dd2/HelixHough__findHelices_8cpp.html#ab47e49e0da18cf02dad085cb319209fd" target="_top" xlink:title="in_place_counting_unique">
<polygon fill="none" stroke="#000000" points="367,-39.5 367,-59.5 514,-59.5 514,-39.5 367,-39.5"/>
<text text-anchor="middle" x="440.5" y="-46.5" font-family="FreeSans" font-size="10.00" fill="#000000">in_place_counting_unique</text>
</a>
</g>
</g>
<!-- Node3&#45;&gt;Node4 -->
<g id="edge3" class="edge">
<title>Node3&#45;&gt;Node4</title>
<path fill="none" stroke="#191970" d="M304.3319,-34.4953C320.2785,-36.2525 338.746,-38.2874 356.8357,-40.2808"/>
<polygon fill="#191970" stroke="#191970" points="356.5051,-43.7655 366.8283,-41.3819 357.2718,-36.8076 356.5051,-43.7655"/>
</g>
<!-- Node5 -->
<g id="node5" class="node">
<title>Node5</title>
<g id="a_node5"><a xlink:href="../../d1/d3f/classParRange.html#a83525b7c5065be16b2916c987dd55e05" target="_top" xlink:title="ParRange::mergeRange">
<polygon fill="none" stroke="#000000" points="373,-.5 373,-20.5 508,-20.5 508,-.5 373,-.5"/>
<text text-anchor="middle" x="440.5" y="-7.5" font-family="FreeSans" font-size="10.00" fill="#000000">ParRange::mergeRange</text>
</a>
</g>
</g>
<!-- Node3&#45;&gt;Node5 -->
<g id="edge4" class="edge">
<title>Node3&#45;&gt;Node5</title>
<path fill="none" stroke="#191970" d="M304.3319,-24.7545C322.027,-22.9021 342.8261,-20.7248 362.7686,-18.6372"/>
<polygon fill="#191970" stroke="#191970" points="363.2028,-22.1109 372.784,-17.5887 362.474,-15.149 363.2028,-22.1109"/>
</g>
</g>
</svg>
