<?xml version="1.0" encoding="UTF-8" standalone="no"?>
<!DOCTYPE svg PUBLIC "-//W3C//DTD SVG 1.1//EN"
 "http://www.w3.org/Graphics/SVG/1.1/DTD/svg11.dtd">
<!-- Generated by graphviz version 2.40.1 (20161225.0304)
 -->
<!-- Title: HelixHough::getKalmanStates Pages: 1 -->
<svg width="583pt" height="92pt"
 viewBox="0.00 0.00 583.00 92.00" xmlns="http://www.w3.org/2000/svg" xmlns:xlink="http://www.w3.org/1999/xlink">
<g id="graph0" class="graph" transform="scale(1 1) rotate(0) translate(4 88)">
<title>HelixHough::getKalmanStates</title>
<!-- Node1 -->
<g id="node1" class="node">
<title>Node1</title>
<polygon fill="#bfbfbf" stroke="#000000" points="0,-31.5 0,-51.5 169,-51.5 169,-31.5 0,-31.5"/>
<text text-anchor="middle" x="84.5" y="-38.5" font-family="FreeSans" font-size="10.00" fill="#000000">HelixHough::getKalmanStates</text>
</g>
<!-- Node2 -->
<g id="node2" class="node">
<title>Node2</title>
<g id="a_node2"><a xlink:href="../../d8/dd4/classPHHoughSeeding.html#a57ae7db4e61873bafc8682cec2f0f28e" target="_top" xlink:title="PHHoughSeeding::CleanupTracks\lByHitPattern">
<polygon fill="none" stroke="#000000" points="205,-51.5 205,-83.5 390,-83.5 390,-51.5 205,-51.5"/>
<text text-anchor="start" x="213" y="-70.5" font-family="FreeSans" font-size="10.00" fill="#000000">PHHoughSeeding::CleanupTracks</text>
<text text-anchor="middle" x="297.5" y="-58.5" font-family="FreeSans" font-size="10.00" fill="#000000">ByHitPattern</text>
</a>
</g>
</g>
<!-- Node1&#45;&gt;Node2 -->
<g id="edge1" class="edge">
<title>Node1&#45;&gt;Node2</title>
<path fill="none" stroke="#191970" d="M176.6264,-52.7455C185.9831,-53.8876 195.4905,-55.0481 204.8526,-56.1909"/>
<polygon fill="#191970" stroke="#191970" points="176.8971,-49.2526 166.5467,-51.5151 176.0489,-56.2011 176.8971,-49.2526"/>
</g>
<!-- Node3 -->
<g id="node3" class="node">
<title>Node3</title>
<g id="a_node3"><a xlink:href="../../d8/dd4/classPHHoughSeeding.html#a0402182dc0e88c010258ba726e6c706b" target="_top" xlink:title="code to perform the final tracking and vertexing">
<polygon fill="none" stroke="#000000" points="234,-.5 234,-32.5 361,-32.5 361,-.5 234,-.5"/>
<text text-anchor="start" x="242" y="-19.5" font-family="FreeSans" font-size="10.00" fill="#000000">PHHoughSeeding::full</text>
<text text-anchor="middle" x="297.5" y="-7.5" font-family="FreeSans" font-size="10.00" fill="#000000">_track_seeding</text>
</a>
</g>
</g>
<!-- Node1&#45;&gt;Node3 -->
<g id="edge2" class="edge">
<title>Node1&#45;&gt;Node3</title>
<path fill="none" stroke="#191970" d="M179.4317,-30.3578C197.7885,-28.2032 216.6092,-25.9942 233.6775,-23.9909"/>
<polygon fill="#191970" stroke="#191970" points="178.8191,-26.9056 169.2953,-31.5475 179.6351,-33.8578 178.8191,-26.9056"/>
</g>
<!-- Node4 -->
<g id="node4" class="node">
<title>Node4</title>
<g id="a_node4"><a xlink:href="../../d8/dd4/classPHHoughSeeding.html#a8b2c7b85b2bcbe054e071dd6ff624f7d" target="_top" xlink:title="PHHoughSeeding::Process">
<polygon fill="none" stroke="#000000" points="426,-6.5 426,-26.5 575,-26.5 575,-6.5 426,-6.5"/>
<text text-anchor="middle" x="500.5" y="-13.5" font-family="FreeSans" font-size="10.00" fill="#000000">PHHoughSeeding::Process</text>
</a>
</g>
</g>
<!-- Node3&#45;&gt;Node4 -->
<g id="edge3" class="edge">
<title>Node3&#45;&gt;Node4</title>
<path fill="none" stroke="#191970" d="M371.4213,-16.5C389.0936,-16.5 407.9728,-16.5 425.6851,-16.5"/>
<polygon fill="#191970" stroke="#191970" points="371.1735,-13.0001 361.1735,-16.5 371.1735,-20.0001 371.1735,-13.0001"/>
</g>
</g>
</svg>
