<?xml version="1.0" encoding="UTF-8" standalone="no"?>
<!DOCTYPE svg PUBLIC "-//W3C//DTD SVG 1.1//EN"
 "http://www.w3.org/Graphics/SVG/1.1/DTD/svg11.dtd">
<!-- Generated by graphviz version 2.40.1 (20161225.0304)
 -->
<!-- Title: PHGenFitTrkProp::InitializePHGenFit Pages: 1 -->
<svg width="797pt" height="255pt"
 viewBox="0.00 0.00 797.00 255.00" xmlns="http://www.w3.org/2000/svg" xmlns:xlink="http://www.w3.org/1999/xlink">
<g id="graph0" class="graph" transform="scale(1 1) rotate(0) translate(4 251)">
<title>PHGenFitTrkProp::InitializePHGenFit</title>
<!-- Node1 -->
<g id="node1" class="node">
<title>Node1</title>
<polygon fill="#bfbfbf" stroke="#000000" points="0,-64.5 0,-96.5 148,-96.5 148,-64.5 0,-64.5"/>
<text text-anchor="start" x="8" y="-83.5" font-family="FreeSans" font-size="10.00" fill="#000000">PHGenFitTrkProp::Initialize</text>
<text text-anchor="middle" x="74" y="-71.5" font-family="FreeSans" font-size="10.00" fill="#000000">PHGenFit</text>
</g>
<!-- Node2 -->
<g id="node2" class="node">
<title>Node2</title>
<g id="a_node2"><a xlink:href="../../df/d4d/classPHFieldUtility.html#a3afdd4e878d02b30b6f2c396e52b8e48" target="_top" xlink:title="Get transient PHField from DST nodes. If not found, make a new one based on default_config.">
<polygon fill="none" stroke="#000000" points="211.5,-145.5 211.5,-177.5 341.5,-177.5 341.5,-145.5 211.5,-145.5"/>
<text text-anchor="start" x="219.5" y="-164.5" font-family="FreeSans" font-size="10.00" fill="#000000">PHFieldUtility::GetField</text>
<text text-anchor="middle" x="276.5" y="-152.5" font-family="FreeSans" font-size="10.00" fill="#000000">MapNode</text>
</a>
</g>
</g>
<!-- Node1&#45;&gt;Node2 -->
<g id="edge1" class="edge">
<title>Node1&#45;&gt;Node2</title>
<path fill="none" stroke="#191970" d="M114.0075,-96.503C146.3523,-109.4409 192.0535,-127.7214 226.7541,-141.6017"/>
<polygon fill="#191970" stroke="#191970" points="225.6449,-144.9275 236.2296,-145.3918 228.2447,-138.4282 225.6449,-144.9275"/>
</g>
<!-- Node8 -->
<g id="node8" class="node">
<title>Node8</title>
<g id="a_node8"><a xlink:href="../../d1/d35/classPHGenFit_1_1Fitter.html#ad3729fabd2bd8a7feebbd79317b38a77" target="_top" xlink:title="PHGenFit::Fitter::getInstance">
<polygon fill="none" stroke="#000000" points="196,-90.5 196,-110.5 357,-110.5 357,-90.5 196,-90.5"/>
<text text-anchor="middle" x="276.5" y="-97.5" font-family="FreeSans" font-size="10.00" fill="#000000">PHGenFit::Fitter::getInstance</text>
</a>
</g>
</g>
<!-- Node1&#45;&gt;Node8 -->
<g id="edge8" class="edge">
<title>Node1&#45;&gt;Node8</title>
<path fill="none" stroke="#191970" d="M148.2537,-87.8337C160.4559,-89.0389 173.2225,-90.2998 185.7712,-91.5391"/>
<polygon fill="#191970" stroke="#191970" points="185.4777,-95.0271 195.7733,-92.527 186.1658,-88.061 185.4777,-95.0271"/>
</g>
<!-- Node10 -->
<g id="node10" class="node">
<title>Node10</title>
<g id="a_node10"><a xlink:href="../../d2/da1/classPHGeomUtility.html#aa80925b14430021ea70d0b906af8e885" target="_top" xlink:title="Main user interface: DST node &#45;&gt; TGeoManager for downstream use.">
<polygon fill="none" stroke="#000000" points="184,-51.5 184,-71.5 369,-71.5 369,-51.5 184,-51.5"/>
<text text-anchor="middle" x="276.5" y="-58.5" font-family="FreeSans" font-size="10.00" fill="#000000">PHGeomUtility::GetTGeoManager</text>
</a>
</g>
</g>
<!-- Node1&#45;&gt;Node10 -->
<g id="edge10" class="edge">
<title>Node1&#45;&gt;Node10</title>
<path fill="none" stroke="#191970" d="M148.2537,-73.533C156.6102,-72.7489 165.2313,-71.94 173.8659,-71.1299"/>
<polygon fill="#191970" stroke="#191970" points="174.364,-74.5986 183.9932,-70.1796 173.71,-67.6292 174.364,-74.5986"/>
</g>
<!-- Node14 -->
<g id="node14" class="node">
<title>Node14</title>
<g id="a_node14"><a xlink:href="../../d1/d35/classPHGenFit_1_1Fitter.html#a7ff3cd73102feae80a130a228939b5c6" target="_top" xlink:title="PHGenFit::Fitter::set\l_verbosity">
<polygon fill="none" stroke="#000000" points="218,-.5 218,-32.5 335,-32.5 335,-.5 218,-.5"/>
<text text-anchor="start" x="226" y="-19.5" font-family="FreeSans" font-size="10.00" fill="#000000">PHGenFit::Fitter::set</text>
<text text-anchor="middle" x="276.5" y="-7.5" font-family="FreeSans" font-size="10.00" fill="#000000">_verbosity</text>
</a>
</g>
</g>
<!-- Node1&#45;&gt;Node14 -->
<g id="edge15" class="edge">
<title>Node1&#45;&gt;Node14</title>
<path fill="none" stroke="#191970" d="M118.4931,-64.4655C138.4375,-57.4498 162.3074,-49.2892 184,-42.5 191.6963,-40.0913 199.7845,-37.6651 207.8421,-35.3139"/>
<polygon fill="#191970" stroke="#191970" points="208.99,-38.6256 217.6271,-32.4895 207.0487,-31.9001 208.99,-38.6256"/>
</g>
<!-- Node3 -->
<g id="node3" class="node">
<title>Node3</title>
<g id="a_node3"><a xlink:href="../../d5/d07/classPHNodeIterator.html#aea98bf8619af59b1212a94fb32106baa" target="_top" xlink:title="PHNodeIterator::findFirst">
<polygon fill="none" stroke="#000000" points="415.5,-207.5 415.5,-227.5 556.5,-227.5 556.5,-207.5 415.5,-207.5"/>
<text text-anchor="middle" x="486" y="-214.5" font-family="FreeSans" font-size="10.00" fill="#000000">PHNodeIterator::findFirst</text>
</a>
</g>
</g>
<!-- Node2&#45;&gt;Node3 -->
<g id="edge2" class="edge">
<title>Node2&#45;&gt;Node3</title>
<path fill="none" stroke="#191970" d="M330.1034,-177.582C353.0915,-184.3106 380.2913,-192.0491 405,-198.5 413.5296,-200.7269 422.5959,-202.9719 431.4583,-205.0997"/>
<polygon fill="#191970" stroke="#191970" points="430.8,-208.5407 441.3381,-207.4452 432.417,-201.73 430.8,-208.5407"/>
</g>
<!-- Node6 -->
<g id="node6" class="node">
<title>Node6</title>
<g id="a_node6"><a xlink:href="../../da/d29/classFun4AllServer.html#a3e55156f91b2c94bb6c4ef33ffce587a" target="_top" xlink:title="Fun4AllServer::instance">
<polygon fill="none" stroke="#000000" points="418,-168.5 418,-188.5 554,-188.5 554,-168.5 418,-168.5"/>
<text text-anchor="middle" x="486" y="-175.5" font-family="FreeSans" font-size="10.00" fill="#000000">Fun4AllServer::instance</text>
</a>
</g>
</g>
<!-- Node2&#45;&gt;Node6 -->
<g id="edge6" class="edge">
<title>Node2&#45;&gt;Node6</title>
<path fill="none" stroke="#191970" d="M341.6387,-166.7857C362.4811,-168.477 385.7772,-170.3674 407.4699,-172.1276"/>
<polygon fill="#191970" stroke="#191970" points="407.3893,-175.6325 417.6397,-172.9529 407.9556,-168.6554 407.3893,-175.6325"/>
</g>
<!-- Node7 -->
<g id="node7" class="node">
<title>Node7</title>
<g id="a_node7"><a xlink:href="../../da/d29/classFun4AllServer.html#abcaf6825367e5db292ff795237bdcf62" target="_top" xlink:title="Fun4AllServer::topNode">
<polygon fill="none" stroke="#000000" points="418,-129.5 418,-149.5 554,-149.5 554,-129.5 418,-129.5"/>
<text text-anchor="middle" x="486" y="-136.5" font-family="FreeSans" font-size="10.00" fill="#000000">Fun4AllServer::topNode</text>
</a>
</g>
</g>
<!-- Node2&#45;&gt;Node7 -->
<g id="edge7" class="edge">
<title>Node2&#45;&gt;Node7</title>
<path fill="none" stroke="#191970" d="M341.6387,-154.6597C362.4811,-152.471 385.7772,-150.0246 407.4699,-147.7466"/>
<polygon fill="#191970" stroke="#191970" points="408.0599,-151.204 417.6397,-146.6786 407.3288,-144.2423 408.0599,-151.204"/>
</g>
<!-- Node3&#45;&gt;Node3 -->
<g id="edge5" class="edge">
<title>Node3&#45;&gt;Node3</title>
<path fill="none" stroke="#191970" d="M453.6865,-227.5791C438.4632,-236.502 449.2344,-246 486,-246 511.8508,-246 524.8504,-241.3043 524.9987,-235.4146"/>
<polygon fill="#191970" stroke="#191970" points="527.4668,-232.9148 518.3135,-227.5791 522.1416,-237.4583 527.4668,-232.9148"/>
</g>
<!-- Node4 -->
<g id="node4" class="node">
<title>Node4</title>
<g id="a_node4"><a xlink:href="../../dc/d82/classPHNode.html#a4ab1f90aed955a652813bfe377087bda" target="_top" xlink:title="PHNode::getType">
<polygon fill="none" stroke="#000000" points="644.5,-226.5 644.5,-246.5 747.5,-246.5 747.5,-226.5 644.5,-226.5"/>
<text text-anchor="middle" x="696" y="-233.5" font-family="FreeSans" font-size="10.00" fill="#000000">PHNode::getType</text>
</a>
</g>
</g>
<!-- Node3&#45;&gt;Node4 -->
<g id="edge3" class="edge">
<title>Node3&#45;&gt;Node4</title>
<path fill="none" stroke="#191970" d="M556.5112,-223.8796C581.6379,-226.153 609.7289,-228.6945 634.0801,-230.8977"/>
<polygon fill="#191970" stroke="#191970" points="633.993,-234.4041 644.2678,-231.8195 634.6238,-227.4325 633.993,-234.4041"/>
</g>
<!-- Node5 -->
<g id="node5" class="node">
<title>Node5</title>
<g id="a_node5"><a xlink:href="../../dc/d82/classPHNode.html#aca3576f926a4401eddc3d88bf0ce0de3" target="_top" xlink:title="PHNode::getName">
<polygon fill="none" stroke="#000000" points="641.5,-187.5 641.5,-207.5 750.5,-207.5 750.5,-187.5 641.5,-187.5"/>
<text text-anchor="middle" x="696" y="-194.5" font-family="FreeSans" font-size="10.00" fill="#000000">PHNode::getName</text>
</a>
</g>
</g>
<!-- Node3&#45;&gt;Node5 -->
<g id="edge4" class="edge">
<title>Node3&#45;&gt;Node5</title>
<path fill="none" stroke="#191970" d="M556.5112,-210.7847C580.5916,-208.4913 607.3945,-205.9386 631.019,-203.6887"/>
<polygon fill="#191970" stroke="#191970" points="631.656,-207.1439 641.2791,-202.7115 630.9922,-200.1755 631.656,-207.1439"/>
</g>
<!-- Node9 -->
<g id="node9" class="node">
<title>Node9</title>
<g id="a_node9"><a xlink:href="../../d1/d35/classPHGenFit_1_1Fitter.html#ab245e2833a4d6880cc1c836bc46389b2" target="_top" xlink:title="Default constructor.">
<polygon fill="none" stroke="#000000" points="422,-90.5 422,-110.5 550,-110.5 550,-90.5 422,-90.5"/>
<text text-anchor="middle" x="486" y="-97.5" font-family="FreeSans" font-size="10.00" fill="#000000">PHGenFit::Fitter::Fitter</text>
</a>
</g>
</g>
<!-- Node8&#45;&gt;Node9 -->
<g id="edge9" class="edge">
<title>Node8&#45;&gt;Node9</title>
<path fill="none" stroke="#191970" d="M357.1985,-100.5C375.1208,-100.5 394.0361,-100.5 411.6885,-100.5"/>
<polygon fill="#191970" stroke="#191970" points="411.919,-104.0001 421.9189,-100.5 411.9189,-97.0001 411.919,-104.0001"/>
</g>
<!-- Node11 -->
<g id="node11" class="node">
<title>Node11</title>
<g id="a_node11"><a xlink:href="../../d7/d6d/classPHGeomTGeo.html#a69190f7dbaee394d90516bce19e224a0" target="_top" xlink:title="isValid returns non zero if object contains vailid data">
<polygon fill="none" stroke="#000000" points="423,-51.5 423,-71.5 549,-71.5 549,-51.5 423,-51.5"/>
<text text-anchor="middle" x="486" y="-58.5" font-family="FreeSans" font-size="10.00" fill="#000000">PHGeomTGeo::isValid</text>
</a>
</g>
</g>
<!-- Node10&#45;&gt;Node11 -->
<g id="edge11" class="edge">
<title>Node10&#45;&gt;Node11</title>
<path fill="none" stroke="#191970" d="M369.3046,-61.5C383.8365,-61.5 398.679,-61.5 412.6938,-61.5"/>
<polygon fill="#191970" stroke="#191970" points="412.7363,-65.0001 422.7363,-61.5 412.7362,-58.0001 412.7363,-65.0001"/>
</g>
<!-- Node13 -->
<g id="node13" class="node">
<title>Node13</title>
<g id="a_node13"><a xlink:href="../../d7/d6d/classPHGeomTGeo.html#a3e111f6229f7ce6392b14a98fdf5bea9" target="_top" xlink:title="PHGeomTGeo::GetGeometry">
<polygon fill="none" stroke="#000000" points="405,-12.5 405,-32.5 567,-32.5 567,-12.5 405,-12.5"/>
<text text-anchor="middle" x="486" y="-19.5" font-family="FreeSans" font-size="10.00" fill="#000000">PHGeomTGeo::GetGeometry</text>
</a>
</g>
</g>
<!-- Node10&#45;&gt;Node13 -->
<g id="edge13" class="edge">
<title>Node10&#45;&gt;Node13</title>
<path fill="none" stroke="#191970" d="M330.4515,-51.4565C358.4316,-46.2478 392.7922,-39.8513 422.0959,-34.3962"/>
<polygon fill="#191970" stroke="#191970" points="423.0408,-37.7805 432.2314,-32.5094 421.7597,-30.8988 423.0408,-37.7805"/>
</g>
<!-- Node12 -->
<g id="node12" class="node">
<title>Node12</title>
<g id="a_node12"><a xlink:href="../../d7/d6d/classPHGeomTGeo.html#af37739b87530fe2bbd5d8d03098c1821" target="_top" xlink:title="PHGeomTGeo::ConsistencyCheck">
<polygon fill="none" stroke="#000000" points="603,-32.5 603,-52.5 789,-52.5 789,-32.5 603,-32.5"/>
<text text-anchor="middle" x="696" y="-39.5" font-family="FreeSans" font-size="10.00" fill="#000000">PHGeomTGeo::ConsistencyCheck</text>
</a>
</g>
</g>
<!-- Node11&#45;&gt;Node12 -->
<g id="edge12" class="edge">
<title>Node11&#45;&gt;Node12</title>
<path fill="none" stroke="#191970" d="M549.0069,-55.7994C562.7495,-54.556 577.6412,-53.2087 592.493,-51.8649"/>
<polygon fill="#191970" stroke="#191970" points="593.1101,-55.3235 602.754,-50.9365 592.4793,-48.3519 593.1101,-55.3235"/>
</g>
<!-- Node13&#45;&gt;Node12 -->
<g id="edge14" class="edge">
<title>Node13&#45;&gt;Node12</title>
<path fill="none" stroke="#191970" d="M567.1915,-30.2325C575.5701,-31.0305 584.1622,-31.8488 592.7389,-32.6656"/>
<polygon fill="#191970" stroke="#191970" points="592.4995,-36.1586 602.7863,-33.6225 593.1632,-29.1901 592.4995,-36.1586"/>
</g>
</g>
</svg>
