<?xml version="1.0" encoding="UTF-8" standalone="no"?>
<!DOCTYPE svg PUBLIC "-//W3C//DTD SVG 1.1//EN"
 "http://www.w3.org/Graphics/SVG/1.1/DTD/svg11.dtd">
<!-- Generated by graphviz version 2.40.1 (20161225.0304)
 -->
<!-- Title: JetMapv1::begin_src Pages: 1 -->
<svg width="285pt" height="68pt"
 viewBox="0.00 0.00 285.00 68.00" xmlns="http://www.w3.org/2000/svg" xmlns:xlink="http://www.w3.org/1999/xlink">
<g id="graph0" class="graph" transform="scale(1 1) rotate(0) translate(4 64)">
<title>JetMapv1::begin_src</title>
<!-- Node1 -->
<g id="node1" class="node">
<title>Node1</title>
<polygon fill="#bfbfbf" stroke="#000000" points="0,-19.5 0,-39.5 119,-39.5 119,-19.5 0,-19.5"/>
<text text-anchor="middle" x="59.5" y="-26.5" font-family="FreeSans" font-size="10.00" fill="#000000">JetMapv1::begin_src</text>
</g>
<!-- Node2 -->
<g id="node2" class="node">
<title>Node2</title>
<g id="a_node2"><a xlink:href="../../d9/d22/classJetMapv1.html#a2e628cbf70fdeb00fc83308e0e476b80" target="_top" xlink:title="JetMapv1::identify">
<polygon fill="none" stroke="#000000" points="161.5,-39.5 161.5,-59.5 270.5,-59.5 270.5,-39.5 161.5,-39.5"/>
<text text-anchor="middle" x="216" y="-46.5" font-family="FreeSans" font-size="10.00" fill="#000000">JetMapv1::identify</text>
</a>
</g>
</g>
<!-- Node1&#45;&gt;Node2 -->
<g id="edge1" class="edge">
<title>Node1&#45;&gt;Node2</title>
<path fill="none" stroke="#191970" d="M129.3366,-38.4248C140.0974,-39.8 151.0729,-41.2026 161.4364,-42.527"/>
<polygon fill="#191970" stroke="#191970" points="129.4754,-34.9142 119.1124,-37.1182 128.588,-41.8577 129.4754,-34.9142"/>
</g>
<!-- Node3 -->
<g id="node3" class="node">
<title>Node3</title>
<g id="a_node3"><a xlink:href="../../d9/d22/classJetMapv1.html#aca6cd643774ce0e05bc2a841a7547f69" target="_top" xlink:title="JetMapv1::operator=">
<polygon fill="none" stroke="#000000" points="155,-.5 155,-20.5 277,-20.5 277,-.5 155,-.5"/>
<text text-anchor="middle" x="216" y="-7.5" font-family="FreeSans" font-size="10.00" fill="#000000">JetMapv1::operator=</text>
</a>
</g>
</g>
<!-- Node1&#45;&gt;Node3 -->
<g id="edge2" class="edge">
<title>Node1&#45;&gt;Node3</title>
<path fill="none" stroke="#191970" d="M129.1403,-21.0453C137.7595,-19.9988 146.5197,-18.9353 154.9958,-17.9063"/>
<polygon fill="#191970" stroke="#191970" points="128.6176,-17.5829 119.1124,-22.2627 129.4613,-24.5319 128.6176,-17.5829"/>
</g>
</g>
</svg>
