<?xml version="1.0" encoding="UTF-8" standalone="no"?>
<!DOCTYPE svg PUBLIC "-//W3C//DTD SVG 1.1//EN"
 "http://www.w3.org/Graphics/SVG/1.1/DTD/svg11.dtd">
<!-- Generated by graphviz version 2.40.1 (20161225.0304)
 -->
<!-- Title: coresoftware/blob/master/offline/packages/trackbase_historic/SvtxTrack_FastSim.h Pages: 1 -->
<svg width="1187pt" height="389pt"
 viewBox="0.00 0.00 1186.50 389.00" xmlns="http://www.w3.org/2000/svg" xmlns:xlink="http://www.w3.org/1999/xlink">
<g id="graph0" class="graph" transform="scale(1 1) rotate(0) translate(4 385)">
<title>coresoftware/blob/master/offline/packages/trackbase_historic/SvtxTrack_FastSim.h</title>
<!-- Node1 -->
<g id="node1" class="node">
<title>Node1</title>
<polygon fill="#bfbfbf" stroke="#000000" points="599.5,-336.5 599.5,-380.5 764.5,-380.5 764.5,-336.5 599.5,-336.5"/>
<text text-anchor="start" x="607.5" y="-367.5" font-family="FreeSans" font-size="10.00" fill="#000000">coresoftware/blob/master</text>
<text text-anchor="start" x="607.5" y="-355.5" font-family="FreeSans" font-size="10.00" fill="#000000">/offline/packages/trackbase</text>
<text text-anchor="middle" x="682" y="-343.5" font-family="FreeSans" font-size="10.00" fill="#000000">_historic/SvtxTrack_FastSim.h</text>
</g>
<!-- Node2 -->
<g id="node2" class="node">
<title>Node2</title>
<g id="a_node2"><a xlink:href="../../d0/de5/SvtxTrack__FastSim_8cc.html" target="_top" xlink:title="coresoftware/blob/master\l/offline/packages/trackbase\l_historic/SvtxTrack_FastSim.cc">
<polygon fill="none" stroke="#000000" points="0,-249.5 0,-293.5 170,-293.5 170,-249.5 0,-249.5"/>
<text text-anchor="start" x="8" y="-280.5" font-family="FreeSans" font-size="10.00" fill="#000000">coresoftware/blob/master</text>
<text text-anchor="start" x="8" y="-268.5" font-family="FreeSans" font-size="10.00" fill="#000000">/offline/packages/trackbase</text>
<text text-anchor="middle" x="85" y="-256.5" font-family="FreeSans" font-size="10.00" fill="#000000">_historic/SvtxTrack_FastSim.cc</text>
</a>
</g>
</g>
<!-- Node1&#45;&gt;Node2 -->
<g id="edge1" class="edge">
<title>Node1&#45;&gt;Node2</title>
<path fill="none" stroke="#191970" d="M589.156,-352.6897C487.6125,-345.1806 320.4652,-329.4257 179,-300 170.3182,-298.1941 161.285,-295.946 152.4014,-293.5098"/>
<polygon fill="#191970" stroke="#191970" points="589.1544,-356.1987 599.3823,-353.4344 589.6629,-349.2172 589.1544,-356.1987"/>
</g>
<!-- Node3 -->
<g id="node3" class="node">
<title>Node3</title>
<g id="a_node3"><a xlink:href="../../d4/d0c/PHTruthTrackSeeding_8cc.html" target="_top" xlink:title="coresoftware/blob/master\l/offline/packages/trackreco\l/PHTruthTrackSeeding.cc">
<polygon fill="none" stroke="#000000" points="188,-249.5 188,-293.5 342,-293.5 342,-249.5 188,-249.5"/>
<text text-anchor="start" x="196" y="-280.5" font-family="FreeSans" font-size="10.00" fill="#000000">coresoftware/blob/master</text>
<text text-anchor="start" x="196" y="-268.5" font-family="FreeSans" font-size="10.00" fill="#000000">/offline/packages/trackreco</text>
<text text-anchor="middle" x="265" y="-256.5" font-family="FreeSans" font-size="10.00" fill="#000000">/PHTruthTrackSeeding.cc</text>
</a>
</g>
</g>
<!-- Node1&#45;&gt;Node3 -->
<g id="edge2" class="edge">
<title>Node1&#45;&gt;Node3</title>
<path fill="none" stroke="#191970" d="M589.2603,-345.793C522.4772,-335.751 430.5124,-320.0885 351,-300 343.5276,-298.1121 335.7649,-295.9028 328.097,-293.5643"/>
<polygon fill="#191970" stroke="#191970" points="588.9344,-349.283 599.341,-347.2949 589.966,-342.3594 588.9344,-349.283"/>
</g>
<!-- Node4 -->
<g id="node4" class="node">
<title>Node4</title>
<g id="a_node4"><a xlink:href="../../df/dca/PHG4TrackFastSim_8cc.html" target="_top" xlink:title="Kalman Filter based on smeared truth PHG4Hit.">
<polygon fill="none" stroke="#000000" points="360.5,-249.5 360.5,-293.5 567.5,-293.5 567.5,-249.5 360.5,-249.5"/>
<text text-anchor="start" x="368.5" y="-280.5" font-family="FreeSans" font-size="10.00" fill="#000000">coresoftware/blob/master</text>
<text text-anchor="start" x="368.5" y="-268.5" font-family="FreeSans" font-size="10.00" fill="#000000">/simulation/g4simulation</text>
<text text-anchor="middle" x="464" y="-256.5" font-family="FreeSans" font-size="10.00" fill="#000000">/g4trackfastsim/PHG4TrackFastSim.cc</text>
</a>
</g>
</g>
<!-- Node1&#45;&gt;Node4 -->
<g id="edge3" class="edge">
<title>Node1&#45;&gt;Node4</title>
<path fill="none" stroke="#191970" d="M617.2325,-332.6524C586.054,-320.2096 549.0606,-305.4462 519.2335,-293.5427"/>
<polygon fill="#191970" stroke="#191970" points="616.1226,-335.9778 626.7076,-336.4338 618.7172,-329.4764 616.1226,-335.9778"/>
</g>
<!-- Node5 -->
<g id="node5" class="node">
<title>Node5</title>
<g id="a_node5"><a xlink:href="../../d7/de6/PHG4TrackFastSimEval_8cc.html" target="_top" xlink:title="Evaluation module for PHG4TrackFastSim output.">
<polygon fill="none" stroke="#000000" points="585.5,-243.5 585.5,-299.5 778.5,-299.5 778.5,-243.5 585.5,-243.5"/>
<text text-anchor="start" x="593.5" y="-286.5" font-family="FreeSans" font-size="10.00" fill="#000000">coresoftware/blob/master</text>
<text text-anchor="start" x="593.5" y="-274.5" font-family="FreeSans" font-size="10.00" fill="#000000">/simulation/g4simulation</text>
<text text-anchor="start" x="593.5" y="-262.5" font-family="FreeSans" font-size="10.00" fill="#000000">/g4trackfastsim/PHG4TrackFastSim</text>
<text text-anchor="middle" x="682" y="-250.5" font-family="FreeSans" font-size="10.00" fill="#000000">Eval.cc</text>
</a>
</g>
</g>
<!-- Node1&#45;&gt;Node5 -->
<g id="edge4" class="edge">
<title>Node1&#45;&gt;Node5</title>
<path fill="none" stroke="#191970" d="M682,-325.986C682,-317.3663 682,-308.1307 682,-299.7577"/>
<polygon fill="#191970" stroke="#191970" points="678.5001,-326.0953 682,-336.0953 685.5001,-326.0954 678.5001,-326.0953"/>
</g>
<!-- Node6 -->
<g id="node6" class="node">
<title>Node6</title>
<g id="a_node6"><a xlink:href="../../d1/d86/TrackProjectorPlaneECAL_8h.html" target="_top" xlink:title="analysis/blob/master\l/EICAnalysis/TrackProjector\lPlaneECAL.h">
<polygon fill="none" stroke="#000000" points="797,-249.5 797,-293.5 951,-293.5 951,-249.5 797,-249.5"/>
<text text-anchor="start" x="805" y="-280.5" font-family="FreeSans" font-size="10.00" fill="#000000">analysis/blob/master</text>
<text text-anchor="start" x="805" y="-268.5" font-family="FreeSans" font-size="10.00" fill="#000000">/EICAnalysis/TrackProjector</text>
<text text-anchor="middle" x="874" y="-256.5" font-family="FreeSans" font-size="10.00" fill="#000000">PlaneECAL.h</text>
</a>
</g>
</g>
<!-- Node1&#45;&gt;Node6 -->
<g id="edge5" class="edge">
<title>Node1&#45;&gt;Node6</title>
<path fill="none" stroke="#191970" d="M740.3207,-332.0734C767.4353,-319.7871 799.3167,-305.3409 825.1429,-293.6384"/>
<polygon fill="#191970" stroke="#191970" points="738.6105,-329.0058 730.9465,-336.3211 741.4996,-335.3817 738.6105,-329.0058"/>
</g>
<!-- Node8 -->
<g id="node8" class="node">
<title>Node8</title>
<g id="a_node8"><a xlink:href="../../d7/d51/DISKinematicsReco_8C.html" target="_top" xlink:title="analysis/blob/master\l/EICAnalysis/DISKinematicsReco.C">
<polygon fill="none" stroke="#000000" points="989.5,-87.5 989.5,-119.5 1178.5,-119.5 1178.5,-87.5 989.5,-87.5"/>
<text text-anchor="start" x="997.5" y="-106.5" font-family="FreeSans" font-size="10.00" fill="#000000">analysis/blob/master</text>
<text text-anchor="middle" x="1084" y="-94.5" font-family="FreeSans" font-size="10.00" fill="#000000">/EICAnalysis/DISKinematicsReco.C</text>
</a>
</g>
</g>
<!-- Node1&#45;&gt;Node8 -->
<g id="edge18" class="edge">
<title>Node1&#45;&gt;Node8</title>
<path fill="none" stroke="#191970" d="M774.7722,-347.3826C850.2867,-337.0997 949.9051,-320.354 985,-300 1032.1638,-272.6464 1041.4827,-256.1892 1065,-207 1078.7114,-178.3211 1082.5614,-140.8131 1083.621,-119.7271"/>
<polygon fill="#191970" stroke="#191970" points="774.1996,-343.928 764.7547,-348.7284 775.1317,-350.8657 774.1996,-343.928"/>
</g>
<!-- Node16 -->
<g id="node16" class="node">
<title>Node16</title>
<g id="a_node16"><a xlink:href="../../d6/deb/TrackProjectorPlaneECAL_8cc.html" target="_top" xlink:title="analysis/blob/master\l/EICAnalysis/TrackProjector\lPlaneECAL.cc">
<polygon fill="none" stroke="#000000" points="902,-162.5 902,-206.5 1056,-206.5 1056,-162.5 902,-162.5"/>
<text text-anchor="start" x="910" y="-193.5" font-family="FreeSans" font-size="10.00" fill="#000000">analysis/blob/master</text>
<text text-anchor="start" x="910" y="-181.5" font-family="FreeSans" font-size="10.00" fill="#000000">/EICAnalysis/TrackProjector</text>
<text text-anchor="middle" x="979" y="-169.5" font-family="FreeSans" font-size="10.00" fill="#000000">PlaneECAL.cc</text>
</a>
</g>
</g>
<!-- Node1&#45;&gt;Node16 -->
<g id="edge19" class="edge">
<title>Node1&#45;&gt;Node16</title>
<path fill="none" stroke="#191970" d="M774.9147,-350.1671C845.5439,-341.8491 934.7352,-326.4113 960,-300 983.7399,-275.1828 984.416,-232.7965 982.1338,-206.8532"/>
<polygon fill="#191970" stroke="#191970" points="774.1757,-346.7287 764.6385,-351.3431 774.9717,-353.6833 774.1757,-346.7287"/>
</g>
<!-- Node7 -->
<g id="node7" class="node">
<title>Node7</title>
<g id="a_node7"><a xlink:href="../../d6/d38/DISKinematicsReco_8h.html" target="_top" xlink:title="analysis/blob/master\l/EICAnalysis/DISKinematicsReco.h">
<polygon fill="none" stroke="#000000" points="656.5,-168.5 656.5,-200.5 845.5,-200.5 845.5,-168.5 656.5,-168.5"/>
<text text-anchor="start" x="664.5" y="-187.5" font-family="FreeSans" font-size="10.00" fill="#000000">analysis/blob/master</text>
<text text-anchor="middle" x="751" y="-175.5" font-family="FreeSans" font-size="10.00" fill="#000000">/EICAnalysis/DISKinematicsReco.h</text>
</a>
</g>
</g>
<!-- Node6&#45;&gt;Node7 -->
<g id="edge6" class="edge">
<title>Node6&#45;&gt;Node7</title>
<path fill="none" stroke="#191970" d="M834.3067,-243.4243C814.2784,-229.2579 790.7055,-212.5843 773.7561,-200.5958"/>
<polygon fill="#191970" stroke="#191970" points="832.4583,-246.4039 842.6437,-249.3211 836.5006,-240.689 832.4583,-246.4039"/>
</g>
<!-- Node6&#45;&gt;Node8 -->
<g id="edge11" class="edge">
<title>Node6&#45;&gt;Node8</title>
<path fill="none" stroke="#191970" d="M871.1794,-239.2291C870.878,-215.1483 874.5466,-182.9258 893,-162 901.7594,-152.067 968.0668,-133.1601 1020.1281,-119.5248"/>
<polygon fill="#191970" stroke="#191970" points="867.685,-239.4528 871.539,-249.3218 874.6806,-239.2035 867.685,-239.4528"/>
</g>
<!-- Node12 -->
<g id="node12" class="node">
<title>Node12</title>
<g id="a_node12"><a xlink:href="../../d9/d6b/ExclusiveReco_8h.html" target="_top" xlink:title="analysis/blob/master\l/EICAnalysis/ExclusiveReco.h">
<polygon fill="none" stroke="#000000" points="407.5,-168.5 407.5,-200.5 570.5,-200.5 570.5,-168.5 407.5,-168.5"/>
<text text-anchor="start" x="415.5" y="-187.5" font-family="FreeSans" font-size="10.00" fill="#000000">analysis/blob/master</text>
<text text-anchor="middle" x="489" y="-175.5" font-family="FreeSans" font-size="10.00" fill="#000000">/EICAnalysis/ExclusiveReco.h</text>
</a>
</g>
</g>
<!-- Node6&#45;&gt;Node12 -->
<g id="edge12" class="edge">
<title>Node6&#45;&gt;Node12</title>
<path fill="none" stroke="#191970" d="M800.5291,-246.4717C796.3057,-245.2454 792.1078,-244.0779 788,-243 715.2221,-223.9036 631.0043,-207.9669 570.5312,-197.5748"/>
<polygon fill="#191970" stroke="#191970" points="799.8157,-249.9115 810.3994,-249.4251 801.8224,-243.2052 799.8157,-249.9115"/>
</g>
<!-- Node13 -->
<g id="node13" class="node">
<title>Node13</title>
<g id="a_node13"><a xlink:href="../../dc/dd5/ExclusiveReco_8C.html" target="_top" xlink:title="analysis/blob/master\l/EICAnalysis/ExclusiveReco.C">
<polygon fill="none" stroke="#000000" points="230,-87.5 230,-119.5 394,-119.5 394,-87.5 230,-87.5"/>
<text text-anchor="start" x="238" y="-106.5" font-family="FreeSans" font-size="10.00" fill="#000000">analysis/blob/master</text>
<text text-anchor="middle" x="312" y="-94.5" font-family="FreeSans" font-size="10.00" fill="#000000">/EICAnalysis/ExclusiveReco.C</text>
</a>
</g>
</g>
<!-- Node6&#45;&gt;Node13 -->
<g id="edge16" class="edge">
<title>Node6&#45;&gt;Node13</title>
<path fill="none" stroke="#191970" d="M803.1521,-246.627C798.0592,-245.2698 792.9726,-244.0392 788,-243 702.8055,-225.1951 475.0073,-247.5585 398,-207 360.5862,-187.2948 333.087,-143.715 320.1855,-119.8713"/>
<polygon fill="#191970" stroke="#191970" points="802.3511,-250.0375 812.9253,-249.3759 804.2465,-243.299 802.3511,-250.0375"/>
</g>
<!-- Node6&#45;&gt;Node16 -->
<g id="edge17" class="edge">
<title>Node6&#45;&gt;Node16</title>
<path fill="none" stroke="#191970" d="M908.8399,-242.6327C922.9923,-230.9064 939.0827,-217.5743 952.2813,-206.6384"/>
<polygon fill="#191970" stroke="#191970" points="906.2348,-240.2458 900.7676,-249.3211 910.7009,-245.636 906.2348,-240.2458"/>
</g>
<!-- Node7&#45;&gt;Node8 -->
<g id="edge7" class="edge">
<title>Node7&#45;&gt;Node8</title>
<path fill="none" stroke="#191970" d="M826.5804,-166.1156C884.2555,-152.0865 962.923,-132.9512 1018.0623,-119.5389"/>
<polygon fill="#191970" stroke="#191970" points="825.6795,-162.7326 816.7901,-168.497 827.334,-169.5343 825.6795,-162.7326"/>
</g>
<!-- Node9 -->
<g id="node9" class="node">
<title>Node9</title>
<g id="a_node9"><a xlink:href="../../d3/db1/DISKinematicsReco__Dict_8h.html" target="_top" xlink:title="analysis/blob/master\l/EICAnalysis/DISKinematicsReco\l_Dict.h">
<polygon fill="none" stroke="#000000" points="792.5,-81.5 792.5,-125.5 971.5,-125.5 971.5,-81.5 792.5,-81.5"/>
<text text-anchor="start" x="800.5" y="-112.5" font-family="FreeSans" font-size="10.00" fill="#000000">analysis/blob/master</text>
<text text-anchor="start" x="800.5" y="-100.5" font-family="FreeSans" font-size="10.00" fill="#000000">/EICAnalysis/DISKinematicsReco</text>
<text text-anchor="middle" x="882" y="-88.5" font-family="FreeSans" font-size="10.00" fill="#000000">_Dict.h</text>
</a>
</g>
</g>
<!-- Node7&#45;&gt;Node9 -->
<g id="edge8" class="edge">
<title>Node7&#45;&gt;Node9</title>
<path fill="none" stroke="#191970" d="M785.4176,-163.2189C804.1564,-151.6323 827.3136,-137.3137 846.2551,-125.6018"/>
<polygon fill="#191970" stroke="#191970" points="783.5461,-160.261 776.8814,-168.497 787.2275,-166.2148 783.5461,-160.261"/>
</g>
<!-- Node11 -->
<g id="node11" class="node">
<title>Node11</title>
<g id="a_node11"><a xlink:href="../../d4/d34/TruthTrackerHepMC_8C.html" target="_top" xlink:title="analysis/blob/master\l/EICAnalysis/TruthTrackerHepMC.C">
<polygon fill="none" stroke="#000000" points="584,-87.5 584,-119.5 774,-119.5 774,-87.5 584,-87.5"/>
<text text-anchor="start" x="592" y="-106.5" font-family="FreeSans" font-size="10.00" fill="#000000">analysis/blob/master</text>
<text text-anchor="middle" x="679" y="-94.5" font-family="FreeSans" font-size="10.00" fill="#000000">/EICAnalysis/TruthTrackerHepMC.C</text>
</a>
</g>
</g>
<!-- Node7&#45;&gt;Node11 -->
<g id="edge10" class="edge">
<title>Node7&#45;&gt;Node11</title>
<path fill="none" stroke="#191970" d="M729.8654,-160.7236C718.1474,-147.5409 703.8805,-131.4905 693.4418,-119.747"/>
<polygon fill="#191970" stroke="#191970" points="727.5155,-163.3482 736.7751,-168.497 732.7474,-158.6976 727.5155,-163.3482"/>
</g>
<!-- Node10 -->
<g id="node10" class="node">
<title>Node10</title>
<g id="a_node10"><a xlink:href="../../dd/d6e/DISKinematicsReco__Dict_8C.html" target="_top" xlink:title="analysis/blob/master\l/EICAnalysis/DISKinematicsReco\l_Dict.C">
<polygon fill="none" stroke="#000000" points="792.5,-.5 792.5,-44.5 971.5,-44.5 971.5,-.5 792.5,-.5"/>
<text text-anchor="start" x="800.5" y="-31.5" font-family="FreeSans" font-size="10.00" fill="#000000">analysis/blob/master</text>
<text text-anchor="start" x="800.5" y="-19.5" font-family="FreeSans" font-size="10.00" fill="#000000">/EICAnalysis/DISKinematicsReco</text>
<text text-anchor="middle" x="882" y="-7.5" font-family="FreeSans" font-size="10.00" fill="#000000">_Dict.C</text>
</a>
</g>
</g>
<!-- Node9&#45;&gt;Node10 -->
<g id="edge9" class="edge">
<title>Node9&#45;&gt;Node10</title>
<path fill="none" stroke="#191970" d="M882,-71.2457C882,-62.3118 882,-52.8188 882,-44.6068"/>
<polygon fill="#191970" stroke="#191970" points="878.5001,-71.3664 882,-81.3664 885.5001,-71.3664 878.5001,-71.3664"/>
</g>
<!-- Node12&#45;&gt;Node13 -->
<g id="edge13" class="edge">
<title>Node12&#45;&gt;Node13</title>
<path fill="none" stroke="#191970" d="M444.5952,-164.1792C414.4633,-150.39 375.1709,-132.4087 347.1993,-119.6082"/>
<polygon fill="#191970" stroke="#191970" points="443.481,-167.5183 454.0305,-168.497 446.3939,-161.1531 443.481,-167.5183"/>
</g>
<!-- Node14 -->
<g id="node14" class="node">
<title>Node14</title>
<g id="a_node14"><a xlink:href="../../d0/dde/ExclusiveReco__Dict_8h.html" target="_top" xlink:title="analysis/blob/master\l/EICAnalysis/ExclusiveReco\l_Dict.h">
<polygon fill="none" stroke="#000000" points="412,-81.5 412,-125.5 566,-125.5 566,-81.5 412,-81.5"/>
<text text-anchor="start" x="420" y="-112.5" font-family="FreeSans" font-size="10.00" fill="#000000">analysis/blob/master</text>
<text text-anchor="start" x="420" y="-100.5" font-family="FreeSans" font-size="10.00" fill="#000000">/EICAnalysis/ExclusiveReco</text>
<text text-anchor="middle" x="489" y="-88.5" font-family="FreeSans" font-size="10.00" fill="#000000">_Dict.h</text>
</a>
</g>
</g>
<!-- Node12&#45;&gt;Node14 -->
<g id="edge14" class="edge">
<title>Node12&#45;&gt;Node14</title>
<path fill="none" stroke="#191970" d="M489,-158.1966C489,-147.6666 489,-135.6709 489,-125.6018"/>
<polygon fill="#191970" stroke="#191970" points="485.5001,-158.497 489,-168.497 492.5001,-158.497 485.5001,-158.497"/>
</g>
<!-- Node15 -->
<g id="node15" class="node">
<title>Node15</title>
<g id="a_node15"><a xlink:href="../../de/d35/ExclusiveReco__Dict_8C.html" target="_top" xlink:title="analysis/blob/master\l/EICAnalysis/ExclusiveReco\l_Dict.C">
<polygon fill="none" stroke="#000000" points="412,-.5 412,-44.5 566,-44.5 566,-.5 412,-.5"/>
<text text-anchor="start" x="420" y="-31.5" font-family="FreeSans" font-size="10.00" fill="#000000">analysis/blob/master</text>
<text text-anchor="start" x="420" y="-19.5" font-family="FreeSans" font-size="10.00" fill="#000000">/EICAnalysis/ExclusiveReco</text>
<text text-anchor="middle" x="489" y="-7.5" font-family="FreeSans" font-size="10.00" fill="#000000">_Dict.C</text>
</a>
</g>
</g>
<!-- Node14&#45;&gt;Node15 -->
<g id="edge15" class="edge">
<title>Node14&#45;&gt;Node15</title>
<path fill="none" stroke="#191970" d="M489,-71.2457C489,-62.3118 489,-52.8188 489,-44.6068"/>
<polygon fill="#191970" stroke="#191970" points="485.5001,-71.3664 489,-81.3664 492.5001,-71.3664 485.5001,-71.3664"/>
</g>
</g>
</svg>
