<?xml version="1.0" encoding="UTF-8" standalone="no"?>
<!DOCTYPE svg PUBLIC "-//W3C//DTD SVG 1.1//EN"
 "http://www.w3.org/Graphics/SVG/1.1/DTD/svg11.dtd">
<!-- Generated by graphviz version 2.40.1 (20161225.0304)
 -->
<!-- Title: oncsBuffer Pages: 1 -->
<svg width="202pt" height="98pt"
 viewBox="0.00 0.00 201.50 98.00" xmlns="http://www.w3.org/2000/svg" xmlns:xlink="http://www.w3.org/1999/xlink">
<g id="graph0" class="graph" transform="scale(1 1) rotate(0) translate(4 94)">
<title>oncsBuffer</title>
<!-- Node1 -->
<g id="node1" class="node">
<title>Node1</title>
<polygon fill="#bfbfbf" stroke="#000000" points="41,-.5 41,-20.5 112,-20.5 112,-.5 41,-.5"/>
<text text-anchor="middle" x="76.5" y="-7.5" font-family="FreeSans" font-size="10.00" fill="#000000">oncsBuffer</text>
</g>
<!-- Node2 -->
<g id="node2" class="node">
<title>Node2</title>
<g id="a_node2"><a xlink:href="../../da/d40/classbuffer.html" target="_top" xlink:title="buffer">
<polygon fill="none" stroke="#000000" points="0,-69.5 0,-89.5 47,-89.5 47,-69.5 0,-69.5"/>
<text text-anchor="middle" x="23.5" y="-76.5" font-family="FreeSans" font-size="10.00" fill="#000000">buffer</text>
</a>
</g>
</g>
<!-- Node2&#45;&gt;Node1 -->
<g id="edge1" class="edge">
<title>Node2&#45;&gt;Node1</title>
<path fill="none" stroke="#191970" d="M37.6261,-61.1095C47.563,-48.1726 60.4934,-31.3388 68.6476,-20.723"/>
<polygon fill="#191970" stroke="#191970" points="34.6362,-59.2562 31.3203,-69.3188 40.1876,-63.5203 34.6362,-59.2562"/>
</g>
<!-- Node3 -->
<g id="node3" class="node">
<title>Node3</title>
<g id="a_node3"><a xlink:href="../../db/d1f/structoncsBuffer_1_1buffer__ptr.html" target="_top" xlink:title="oncsBuffer::buffer_ptr">
<polygon fill="none" stroke="#000000" points="65.5,-69.5 65.5,-89.5 193.5,-89.5 193.5,-69.5 65.5,-69.5"/>
<text text-anchor="middle" x="129.5" y="-76.5" font-family="FreeSans" font-size="10.00" fill="#000000">oncsBuffer::buffer_ptr</text>
</a>
</g>
</g>
<!-- Node3&#45;&gt;Node1 -->
<g id="edge2" class="edge">
<title>Node3&#45;&gt;Node1</title>
<path fill="none" stroke="#9a32cd" stroke-dasharray="5,2" d="M115.3739,-61.1095C105.437,-48.1726 92.5066,-31.3388 84.3524,-20.723"/>
<polygon fill="#9a32cd" stroke="#9a32cd" points="112.8124,-63.5203 121.6797,-69.3188 118.3638,-59.2562 112.8124,-63.5203"/>
<text text-anchor="middle" x="118.5" y="-42" font-family="FreeSans" font-size="10.00" fill="#000000"> bptr</text>
</g>
</g>
</svg>
