<?xml version="1.0" encoding="UTF-8" standalone="no"?>
<!DOCTYPE svg PUBLIC "-//W3C//DTD SVG 1.1//EN"
 "http://www.w3.org/Graphics/SVG/1.1/DTD/svg11.dtd">
<!-- Generated by graphviz version 2.40.1 (20161225.0304)
 -->
<!-- Title: coresoftware/blob/master/simulation/g4simulation/g4detectors/PHG4Cellv1.h Pages: 1 -->
<svg width="1473pt" height="146pt"
 viewBox="0.00 0.00 1473.00 146.00" xmlns="http://www.w3.org/2000/svg" xmlns:xlink="http://www.w3.org/1999/xlink">
<g id="graph0" class="graph" transform="scale(1 1) rotate(0) translate(4 142)">
<title>coresoftware/blob/master/simulation/g4simulation/g4detectors/PHG4Cellv1.h</title>
<!-- Node1 -->
<g id="node1" class="node">
<title>Node1</title>
<polygon fill="#bfbfbf" stroke="#000000" points="633,-93.5 633,-137.5 786,-137.5 786,-93.5 633,-93.5"/>
<text text-anchor="start" x="641" y="-124.5" font-family="FreeSans" font-size="10.00" fill="#000000">coresoftware/blob/master</text>
<text text-anchor="start" x="641" y="-112.5" font-family="FreeSans" font-size="10.00" fill="#000000">/simulation/g4simulation</text>
<text text-anchor="middle" x="709.5" y="-100.5" font-family="FreeSans" font-size="10.00" fill="#000000">/g4detectors/PHG4Cellv1.h</text>
</g>
<!-- Node2 -->
<g id="node2" class="node">
<title>Node2</title>
<g id="a_node2"><a xlink:href="../../dc/d32/PHG4BlockCellReco_8cc.html" target="_top" xlink:title="coresoftware/blob/master\l/simulation/g4simulation\l/g4detectors/PHG4BlockCellReco.cc">
<polygon fill="none" stroke="#000000" points="0,-6.5 0,-50.5 197,-50.5 197,-6.5 0,-6.5"/>
<text text-anchor="start" x="8" y="-37.5" font-family="FreeSans" font-size="10.00" fill="#000000">coresoftware/blob/master</text>
<text text-anchor="start" x="8" y="-25.5" font-family="FreeSans" font-size="10.00" fill="#000000">/simulation/g4simulation</text>
<text text-anchor="middle" x="98.5" y="-13.5" font-family="FreeSans" font-size="10.00" fill="#000000">/g4detectors/PHG4BlockCellReco.cc</text>
</a>
</g>
</g>
<!-- Node1&#45;&gt;Node2 -->
<g id="edge1" class="edge">
<title>Node1&#45;&gt;Node2</title>
<path fill="none" stroke="#191970" d="M622.5943,-109.1695C521.8734,-100.9617 351.1912,-84.3613 206.5,-57 196.7824,-55.1624 186.6503,-52.9258 176.6546,-50.5222"/>
<polygon fill="#191970" stroke="#191970" points="622.4713,-112.6708 632.7202,-109.9855 623.0337,-105.6934 622.4713,-112.6708"/>
</g>
<!-- Node3 -->
<g id="node3" class="node">
<title>Node3</title>
<g id="a_node3"><a xlink:href="../../d6/d87/PHG4CellContainer_8cc.html" target="_top" xlink:title="coresoftware/blob/master\l/simulation/g4simulation\l/g4detectors/PHG4CellContainer.cc">
<polygon fill="none" stroke="#000000" points="215.5,-6.5 215.5,-50.5 409.5,-50.5 409.5,-6.5 215.5,-6.5"/>
<text text-anchor="start" x="223.5" y="-37.5" font-family="FreeSans" font-size="10.00" fill="#000000">coresoftware/blob/master</text>
<text text-anchor="start" x="223.5" y="-25.5" font-family="FreeSans" font-size="10.00" fill="#000000">/simulation/g4simulation</text>
<text text-anchor="middle" x="312.5" y="-13.5" font-family="FreeSans" font-size="10.00" fill="#000000">/g4detectors/PHG4CellContainer.cc</text>
</a>
</g>
</g>
<!-- Node1&#45;&gt;Node3 -->
<g id="edge2" class="edge">
<title>Node1&#45;&gt;Node3</title>
<path fill="none" stroke="#191970" d="M623.06,-99.6318C565.0065,-88.6048 486.9103,-73.0555 418.5,-57 409.966,-54.9971 401.0764,-52.7938 392.2345,-50.5268"/>
<polygon fill="#191970" stroke="#191970" points="622.452,-103.0787 632.9284,-101.4994 623.7537,-96.2008 622.452,-103.0787"/>
</g>
<!-- Node4 -->
<g id="node4" class="node">
<title>Node4</title>
<g id="a_node4"><a xlink:href="../../d6/dec/PHG4Cellv1_8cc.html" target="_top" xlink:title="coresoftware/blob/master\l/simulation/g4simulation\l/g4detectors/PHG4Cellv1.cc">
<polygon fill="none" stroke="#000000" points="427.5,-6.5 427.5,-50.5 585.5,-50.5 585.5,-6.5 427.5,-6.5"/>
<text text-anchor="start" x="435.5" y="-37.5" font-family="FreeSans" font-size="10.00" fill="#000000">coresoftware/blob/master</text>
<text text-anchor="start" x="435.5" y="-25.5" font-family="FreeSans" font-size="10.00" fill="#000000">/simulation/g4simulation</text>
<text text-anchor="middle" x="506.5" y="-13.5" font-family="FreeSans" font-size="10.00" fill="#000000">/g4detectors/PHG4Cellv1.cc</text>
</a>
</g>
</g>
<!-- Node1&#45;&gt;Node4 -->
<g id="edge3" class="edge">
<title>Node1&#45;&gt;Node4</title>
<path fill="none" stroke="#191970" d="M648.8133,-89.4914C619.8589,-77.0824 585.5881,-62.3949 557.933,-50.5427"/>
<polygon fill="#191970" stroke="#191970" points="647.4419,-92.7115 658.0121,-93.4338 650.1994,-86.2775 647.4419,-92.7115"/>
</g>
<!-- Node5 -->
<g id="node5" class="node">
<title>Node5</title>
<g id="a_node5"><a xlink:href="../../dd/da5/PHG4CylinderCellReco_8cc.html" target="_top" xlink:title="coresoftware/blob/master\l/simulation/g4simulation\l/g4detectors/PHG4CylinderCellReco.cc">
<polygon fill="none" stroke="#000000" points="603.5,-6.5 603.5,-50.5 815.5,-50.5 815.5,-6.5 603.5,-6.5"/>
<text text-anchor="start" x="611.5" y="-37.5" font-family="FreeSans" font-size="10.00" fill="#000000">coresoftware/blob/master</text>
<text text-anchor="start" x="611.5" y="-25.5" font-family="FreeSans" font-size="10.00" fill="#000000">/simulation/g4simulation</text>
<text text-anchor="middle" x="709.5" y="-13.5" font-family="FreeSans" font-size="10.00" fill="#000000">/g4detectors/PHG4CylinderCellReco.cc</text>
</a>
</g>
</g>
<!-- Node1&#45;&gt;Node5 -->
<g id="edge4" class="edge">
<title>Node1&#45;&gt;Node5</title>
<path fill="none" stroke="#191970" d="M709.5,-83.0893C709.5,-72.2369 709.5,-60.3979 709.5,-50.5276"/>
<polygon fill="#191970" stroke="#191970" points="706.0001,-83.0953 709.5,-93.0953 713.0001,-83.0954 706.0001,-83.0953"/>
</g>
<!-- Node6 -->
<g id="node6" class="node">
<title>Node6</title>
<g id="a_node6"><a xlink:href="../../d4/de2/PHG4FullProjSpacalCellReco_8cc.html" target="_top" xlink:title="coresoftware/blob/master\l/simulation/g4simulation\l/g4detectors/PHG4FullProjSpacalCell\lReco.cc">
<polygon fill="none" stroke="#000000" points="834,-.5 834,-56.5 1035,-56.5 1035,-.5 834,-.5"/>
<text text-anchor="start" x="842" y="-43.5" font-family="FreeSans" font-size="10.00" fill="#000000">coresoftware/blob/master</text>
<text text-anchor="start" x="842" y="-31.5" font-family="FreeSans" font-size="10.00" fill="#000000">/simulation/g4simulation</text>
<text text-anchor="start" x="842" y="-19.5" font-family="FreeSans" font-size="10.00" fill="#000000">/g4detectors/PHG4FullProjSpacalCell</text>
<text text-anchor="middle" x="934.5" y="-7.5" font-family="FreeSans" font-size="10.00" fill="#000000">Reco.cc</text>
</a>
</g>
</g>
<!-- Node1&#45;&gt;Node6 -->
<g id="edge5" class="edge">
<title>Node1&#45;&gt;Node6</title>
<path fill="none" stroke="#191970" d="M775.917,-89.8187C802.8892,-79.3895 834.1338,-67.3082 861.7221,-56.6408"/>
<polygon fill="#191970" stroke="#191970" points="774.6326,-86.5628 766.5679,-93.4338 777.1572,-93.0917 774.6326,-86.5628"/>
</g>
<!-- Node7 -->
<g id="node7" class="node">
<title>Node7</title>
<g id="a_node7"><a xlink:href="../../d9/d50/PHG4HcalCellReco_8cc.html" target="_top" xlink:title="coresoftware/blob/master\l/simulation/g4simulation\l/g4detectors/PHG4HcalCellReco.cc">
<polygon fill="none" stroke="#000000" points="1053.5,-6.5 1053.5,-50.5 1245.5,-50.5 1245.5,-6.5 1053.5,-6.5"/>
<text text-anchor="start" x="1061.5" y="-37.5" font-family="FreeSans" font-size="10.00" fill="#000000">coresoftware/blob/master</text>
<text text-anchor="start" x="1061.5" y="-25.5" font-family="FreeSans" font-size="10.00" fill="#000000">/simulation/g4simulation</text>
<text text-anchor="middle" x="1149.5" y="-13.5" font-family="FreeSans" font-size="10.00" fill="#000000">/g4detectors/PHG4HcalCellReco.cc</text>
</a>
</g>
</g>
<!-- Node1&#45;&gt;Node7 -->
<g id="edge6" class="edge">
<title>Node1&#45;&gt;Node7</title>
<path fill="none" stroke="#191970" d="M796.2873,-102.595C864.1737,-91.9591 960.7683,-75.6329 1044.5,-57 1053.2579,-55.0511 1062.3807,-52.8442 1071.4315,-50.5422"/>
<polygon fill="#191970" stroke="#191970" points="795.4071,-99.1899 786.0651,-104.1876 796.4847,-106.1064 795.4071,-99.1899"/>
</g>
<!-- Node8 -->
<g id="node8" class="node">
<title>Node8</title>
<g id="a_node8"><a xlink:href="../../d1/d25/PHG4TpcPadPlaneReadout_8cc.html" target="_top" xlink:title="coresoftware/blob/master\l/simulation/g4simulation\l/g4tpc/PHG4TpcPadPlaneReadout.cc">
<polygon fill="none" stroke="#000000" points="1264,-6.5 1264,-50.5 1465,-50.5 1465,-6.5 1264,-6.5"/>
<text text-anchor="start" x="1272" y="-37.5" font-family="FreeSans" font-size="10.00" fill="#000000">coresoftware/blob/master</text>
<text text-anchor="start" x="1272" y="-25.5" font-family="FreeSans" font-size="10.00" fill="#000000">/simulation/g4simulation</text>
<text text-anchor="middle" x="1364.5" y="-13.5" font-family="FreeSans" font-size="10.00" fill="#000000">/g4tpc/PHG4TpcPadPlaneReadout.cc</text>
</a>
</g>
</g>
<!-- Node1&#45;&gt;Node8 -->
<g id="edge7" class="edge">
<title>Node1&#45;&gt;Node8</title>
<path fill="none" stroke="#191970" d="M796.4742,-110.112C904.5185,-102.5146 1094.1972,-86.2072 1254.5,-57 1264.4953,-55.1789 1274.9207,-52.937 1285.1987,-50.5175"/>
<polygon fill="#191970" stroke="#191970" points="796.0104,-106.6357 786.2769,-110.8202 796.4954,-113.6189 796.0104,-106.6357"/>
</g>
</g>
</svg>
