<?xml version="1.0" encoding="UTF-8" standalone="no"?>
<!DOCTYPE svg PUBLIC "-//W3C//DTD SVG 1.1//EN"
 "http://www.w3.org/Graphics/SVG/1.1/DTD/svg11.dtd">
<!-- Generated by graphviz version 2.40.1 (20161225.0304)
 -->
<!-- Title: TrkrClusterv1::getSize Pages: 1 -->
<svg width="578pt" height="29pt"
 viewBox="0.00 0.00 578.00 29.00" xmlns="http://www.w3.org/2000/svg" xmlns:xlink="http://www.w3.org/1999/xlink">
<g id="graph0" class="graph" transform="scale(1 1) rotate(0) translate(4 25)">
<title>TrkrClusterv1::getSize</title>
<!-- Node1 -->
<g id="node1" class="node">
<title>Node1</title>
<polygon fill="#bfbfbf" stroke="#000000" points="0,-.5 0,-20.5 128,-20.5 128,-.5 0,-.5"/>
<text text-anchor="middle" x="64" y="-7.5" font-family="FreeSans" font-size="10.00" fill="#000000">TrkrClusterv1::getSize</text>
</g>
<!-- Node2 -->
<g id="node2" class="node">
<title>Node2</title>
<g id="a_node2"><a xlink:href="../../dc/d79/classTrkrClusterv1.html#ae90d54dc6442524e2d53f793cdf273b2" target="_top" xlink:title="TrkrClusterv1::covarIndex">
<polygon fill="none" stroke="#000000" points="164,-.5 164,-20.5 311,-20.5 311,-.5 164,-.5"/>
<text text-anchor="middle" x="237.5" y="-7.5" font-family="FreeSans" font-size="10.00" fill="#000000">TrkrClusterv1::covarIndex</text>
</a>
</g>
</g>
<!-- Node1&#45;&gt;Node2 -->
<g id="edge1" class="edge">
<title>Node1&#45;&gt;Node2</title>
<path fill="none" stroke="#191970" d="M128.1121,-10.5C136.5072,-10.5 145.2065,-10.5 153.8643,-10.5"/>
<polygon fill="#191970" stroke="#191970" points="153.9882,-14.0001 163.9882,-10.5 153.9881,-7.0001 153.9882,-14.0001"/>
</g>
<!-- Node3 -->
<g id="node3" class="node">
<title>Node3</title>
<g id="a_node3"><a xlink:href="../../d4/da9/namespaceboost.html#a630945877437d477612e4419562161cc" target="_top" xlink:title="boost::swap">
<polygon fill="none" stroke="#000000" points="347,-.5 347,-20.5 424,-20.5 424,-.5 347,-.5"/>
<text text-anchor="middle" x="385.5" y="-7.5" font-family="FreeSans" font-size="10.00" fill="#000000">boost::swap</text>
</a>
</g>
</g>
<!-- Node2&#45;&gt;Node3 -->
<g id="edge2" class="edge">
<title>Node2&#45;&gt;Node3</title>
<path fill="none" stroke="#191970" d="M311.0664,-10.5C319.738,-10.5 328.4176,-10.5 336.6287,-10.5"/>
<polygon fill="#191970" stroke="#191970" points="336.7432,-14.0001 346.7431,-10.5 336.7431,-7.0001 336.7432,-14.0001"/>
</g>
<!-- Node4 -->
<g id="node4" class="node">
<title>Node4</title>
<g id="a_node4"><a xlink:href="../../d1/d96/classboost_1_1array.html#a342ef866ed696b18ce803b5c9aba4b2e" target="_top" xlink:title="boost::array::swap">
<polygon fill="none" stroke="#000000" points="460,-.5 460,-20.5 570,-20.5 570,-.5 460,-.5"/>
<text text-anchor="middle" x="515" y="-7.5" font-family="FreeSans" font-size="10.00" fill="#000000">boost::array::swap</text>
</a>
</g>
</g>
<!-- Node3&#45;&gt;Node4 -->
<g id="edge3" class="edge">
<title>Node3&#45;&gt;Node4</title>
<path fill="none" stroke="#191970" d="M424.0036,-4.2692C432.0418,-3.9335 440.7295,-3.7606 449.4369,-3.7505"/>
<polygon fill="#191970" stroke="#191970" points="449.6084,-7.2515 459.6298,-3.8134 449.6517,-.2516 449.6084,-7.2515"/>
</g>
<!-- Node4&#45;&gt;Node3 -->
<g id="edge4" class="edge">
<title>Node4&#45;&gt;Node3</title>
<path fill="none" stroke="#191970" d="M459.6298,-17.1866C451.1911,-17.3014 442.5353,-17.2603 434.252,-17.0634"/>
<polygon fill="#191970" stroke="#191970" points="434.112,-13.5571 424.0036,-16.7308 433.8848,-20.5535 434.112,-13.5571"/>
</g>
</g>
</svg>
