<?xml version="1.0" encoding="UTF-8" standalone="no"?>
<!DOCTYPE svg PUBLIC "-//W3C//DTD SVG 1.1//EN"
 "http://www.w3.org/Graphics/SVG/1.1/DTD/svg11.dtd">
<!-- Generated by graphviz version 2.40.1 (20161225.0304)
 -->
<!-- Title: RawClusterBuilderTopo::set_noise Pages: 1 -->
<svg width="452pt" height="107pt"
 viewBox="0.00 0.00 452.00 107.00" xmlns="http://www.w3.org/2000/svg" xmlns:xlink="http://www.w3.org/1999/xlink">
<g id="graph0" class="graph" transform="scale(1 1) rotate(0) translate(4 103)">
<title>RawClusterBuilderTopo::set_noise</title>
<!-- Node1 -->
<g id="node1" class="node">
<title>Node1</title>
<polygon fill="#bfbfbf" stroke="#000000" points="0,-33.5 0,-65.5 132,-65.5 132,-33.5 0,-33.5"/>
<text text-anchor="start" x="8" y="-52.5" font-family="FreeSans" font-size="10.00" fill="#000000">RawClusterBuilderTopo</text>
<text text-anchor="middle" x="66" y="-40.5" font-family="FreeSans" font-size="10.00" fill="#000000">::set_noise</text>
</g>
<!-- Node2 -->
<g id="node2" class="node">
<title>Node2</title>
<g id="a_node2"><a xlink:href="../../d2/daf/G4__TopoClusterReco_8C.html#aaf9f92996c7928a06728b2f7dc314f5d" target="_top" xlink:title="TopoClusterReco">
<polygon fill="none" stroke="#000000" points="168,-39.5 168,-59.5 269,-59.5 269,-39.5 168,-39.5"/>
<text text-anchor="middle" x="218.5" y="-46.5" font-family="FreeSans" font-size="10.00" fill="#000000">TopoClusterReco</text>
</a>
</g>
</g>
<!-- Node1&#45;&gt;Node2 -->
<g id="edge1" class="edge">
<title>Node1&#45;&gt;Node2</title>
<path fill="none" stroke="#191970" d="M142.1081,-49.5C150.7407,-49.5 159.3758,-49.5 167.5707,-49.5"/>
<polygon fill="#191970" stroke="#191970" points="142.0018,-46.0001 132.0018,-49.5 142.0017,-53.0001 142.0018,-46.0001"/>
</g>
<!-- Node3 -->
<g id="node3" class="node">
<title>Node3</title>
<g id="a_node3"><a xlink:href="../../db/dc0/Fun4All__AnaTutorial_8C.html#a8c484ea6d7477278e981ef056b17eac9" target="_top" xlink:title="Fun4All_AnaTutorial">
<polygon fill="none" stroke="#000000" points="317,-78.5 317,-98.5 432,-98.5 432,-78.5 317,-78.5"/>
<text text-anchor="middle" x="374.5" y="-85.5" font-family="FreeSans" font-size="10.00" fill="#000000">Fun4All_AnaTutorial</text>
</a>
</g>
</g>
<!-- Node2&#45;&gt;Node3 -->
<g id="edge2" class="edge">
<title>Node2&#45;&gt;Node3</title>
<path fill="none" stroke="#191970" d="M268.5295,-62.0074C289.8461,-67.3365 314.3753,-73.4688 334.4623,-78.4906"/>
<polygon fill="#191970" stroke="#191970" points="269.2242,-58.5734 258.6739,-59.5435 267.5264,-65.3644 269.2242,-58.5734"/>
</g>
<!-- Node4 -->
<g id="node4" class="node">
<title>Node4</title>
<g id="a_node4"><a xlink:href="../../dd/d28/Fun4All__AnaTutorial__Jets_8C.html#a55eaaeb770a3177f917012de87877d28" target="_top" xlink:title="Fun4All_AnaTutorial_Jets">
<polygon fill="none" stroke="#000000" points="305,-39.5 305,-59.5 444,-59.5 444,-39.5 305,-39.5"/>
<text text-anchor="middle" x="374.5" y="-46.5" font-family="FreeSans" font-size="10.00" fill="#000000">Fun4All_AnaTutorial_Jets</text>
</a>
</g>
</g>
<!-- Node2&#45;&gt;Node4 -->
<g id="edge3" class="edge">
<title>Node2&#45;&gt;Node4</title>
<path fill="none" stroke="#191970" d="M279.2193,-49.5C287.6126,-49.5 296.287,-49.5 304.8267,-49.5"/>
<polygon fill="#191970" stroke="#191970" points="279.1488,-46.0001 269.1487,-49.5 279.1487,-53.0001 279.1488,-46.0001"/>
</g>
<!-- Node5 -->
<g id="node5" class="node">
<title>Node5</title>
<g id="a_node5"><a xlink:href="../../d5/d2c/macros_2blob_2master_2macros_2g4simulations_2Fun4All__G4__sPHENIX_8C.html#a6eaaa492d7023ec86c562dc63aa1e5a4" target="_top" xlink:title="Fun4All_G4_sPHENIX">
<polygon fill="none" stroke="#000000" points="314,-.5 314,-20.5 435,-20.5 435,-.5 314,-.5"/>
<text text-anchor="middle" x="374.5" y="-7.5" font-family="FreeSans" font-size="10.00" fill="#000000">Fun4All_G4_sPHENIX</text>
</a>
</g>
</g>
<!-- Node2&#45;&gt;Node5 -->
<g id="edge4" class="edge">
<title>Node2&#45;&gt;Node5</title>
<path fill="none" stroke="#191970" d="M268.5295,-36.9926C289.8461,-31.6635 314.3753,-25.5312 334.4623,-20.5094"/>
<polygon fill="#191970" stroke="#191970" points="267.5264,-33.6356 258.6739,-39.4565 269.2242,-40.4266 267.5264,-33.6356"/>
</g>
</g>
</svg>
