<?xml version="1.0" encoding="UTF-8" standalone="no"?>
<!DOCTYPE svg PUBLIC "-//W3C//DTD SVG 1.1//EN"
 "http://www.w3.org/Graphics/SVG/1.1/DTD/svg11.dtd">
<!-- Generated by graphviz version 2.40.1 (20161225.0304)
 -->
<!-- Title: coresoftware/blob/master/simulation/g4simulation/g4detectors/PHG4EventActionClearZeroEdep.h Pages: 1 -->
<svg width="1405pt" height="158pt"
 viewBox="0.00 0.00 1404.50 158.00" xmlns="http://www.w3.org/2000/svg" xmlns:xlink="http://www.w3.org/1999/xlink">
<g id="graph0" class="graph" transform="scale(1 1) rotate(0) translate(4 154)">
<title>coresoftware/blob/master/simulation/g4simulation/g4detectors/PHG4EventActionClearZeroEdep.h</title>
<!-- Node1 -->
<g id="node1" class="node">
<title>Node1</title>
<polygon fill="#bfbfbf" stroke="#000000" points="617.5,-93.5 617.5,-149.5 817.5,-149.5 817.5,-93.5 617.5,-93.5"/>
<text text-anchor="start" x="625.5" y="-136.5" font-family="FreeSans" font-size="10.00" fill="#000000">coresoftware/blob/master</text>
<text text-anchor="start" x="625.5" y="-124.5" font-family="FreeSans" font-size="10.00" fill="#000000">/simulation/g4simulation</text>
<text text-anchor="start" x="625.5" y="-112.5" font-family="FreeSans" font-size="10.00" fill="#000000">/g4detectors/PHG4EventActionClear</text>
<text text-anchor="middle" x="717.5" y="-100.5" font-family="FreeSans" font-size="10.00" fill="#000000">ZeroEdep.h</text>
</g>
<!-- Node2 -->
<g id="node2" class="node">
<title>Node2</title>
<g id="a_node2"><a xlink:href="../../d9/d7c/PHG4CEmcTestBeamSubsystem_8cc.html" target="_top" xlink:title="coresoftware/blob/master\l/simulation/g4simulation\l/g4detectors/PHG4CEmcTestBeamSubsystem.cc">
<polygon fill="none" stroke="#000000" points="0,-6.5 0,-50.5 261,-50.5 261,-6.5 0,-6.5"/>
<text text-anchor="start" x="8" y="-37.5" font-family="FreeSans" font-size="10.00" fill="#000000">coresoftware/blob/master</text>
<text text-anchor="start" x="8" y="-25.5" font-family="FreeSans" font-size="10.00" fill="#000000">/simulation/g4simulation</text>
<text text-anchor="middle" x="130.5" y="-13.5" font-family="FreeSans" font-size="10.00" fill="#000000">/g4detectors/PHG4CEmcTestBeamSubsystem.cc</text>
</a>
</g>
</g>
<!-- Node1&#45;&gt;Node2 -->
<g id="edge1" class="edge">
<title>Node1&#45;&gt;Node2</title>
<path fill="none" stroke="#191970" d="M607.3587,-107.4032C516.7121,-95.3706 384.9804,-76.895 270.5,-57 259.1364,-55.0252 247.282,-52.8275 235.4899,-50.553"/>
<polygon fill="#191970" stroke="#191970" points="607.0039,-110.8867 617.3767,-108.729 607.9224,-103.9472 607.0039,-110.8867"/>
</g>
<!-- Node3 -->
<g id="node3" class="node">
<title>Node3</title>
<g id="a_node3"><a xlink:href="../../d4/de9/PHG4ConeSubsystem_8cc.html" target="_top" xlink:title="coresoftware/blob/master\l/simulation/g4simulation\l/g4detectors/PHG4ConeSubsystem.cc">
<polygon fill="none" stroke="#000000" points="279.5,-6.5 279.5,-50.5 487.5,-50.5 487.5,-6.5 279.5,-6.5"/>
<text text-anchor="start" x="287.5" y="-37.5" font-family="FreeSans" font-size="10.00" fill="#000000">coresoftware/blob/master</text>
<text text-anchor="start" x="287.5" y="-25.5" font-family="FreeSans" font-size="10.00" fill="#000000">/simulation/g4simulation</text>
<text text-anchor="middle" x="383.5" y="-13.5" font-family="FreeSans" font-size="10.00" fill="#000000">/g4detectors/PHG4ConeSubsystem.cc</text>
</a>
</g>
</g>
<!-- Node1&#45;&gt;Node3 -->
<g id="edge2" class="edge">
<title>Node1&#45;&gt;Node3</title>
<path fill="none" stroke="#191970" d="M607.6109,-90.9021C560.2767,-77.7223 505.9831,-62.6046 462.6914,-50.5503"/>
<polygon fill="#191970" stroke="#191970" points="606.7166,-94.2862 617.289,-93.5969 608.5943,-87.5427 606.7166,-94.2862"/>
</g>
<!-- Node4 -->
<g id="node4" class="node">
<title>Node4</title>
<g id="a_node4"><a xlink:href="../../d8/dfd/PHG4EventActionClearZeroEdep_8cc.html" target="_top" xlink:title="coresoftware/blob/master\l/simulation/g4simulation\l/g4detectors/PHG4EventActionClear\lZeroEdep.cc">
<polygon fill="none" stroke="#000000" points="505.5,-.5 505.5,-56.5 705.5,-56.5 705.5,-.5 505.5,-.5"/>
<text text-anchor="start" x="513.5" y="-43.5" font-family="FreeSans" font-size="10.00" fill="#000000">coresoftware/blob/master</text>
<text text-anchor="start" x="513.5" y="-31.5" font-family="FreeSans" font-size="10.00" fill="#000000">/simulation/g4simulation</text>
<text text-anchor="start" x="513.5" y="-19.5" font-family="FreeSans" font-size="10.00" fill="#000000">/g4detectors/PHG4EventActionClear</text>
<text text-anchor="middle" x="605.5" y="-7.5" font-family="FreeSans" font-size="10.00" fill="#000000">ZeroEdep.cc</text>
</a>
</g>
</g>
<!-- Node1&#45;&gt;Node4 -->
<g id="edge3" class="edge">
<title>Node1&#45;&gt;Node4</title>
<path fill="none" stroke="#191970" d="M675.8383,-86.9059C663.7918,-76.903 650.7961,-66.1119 639.2924,-56.5597"/>
<polygon fill="#191970" stroke="#191970" points="673.663,-89.6489 683.5924,-93.3446 678.1348,-84.2635 673.663,-89.6489"/>
</g>
<!-- Node5 -->
<g id="node5" class="node">
<title>Node5</title>
<g id="a_node5"><a xlink:href="../../df/da5/PHG4FPbScSubsystem_8cc.html" target="_top" xlink:title="coresoftware/blob/master\l/simulation/g4simulation\l/g4detectors/PHG4FPbScSubsystem.cc">
<polygon fill="none" stroke="#000000" points="724,-6.5 724,-50.5 937,-50.5 937,-6.5 724,-6.5"/>
<text text-anchor="start" x="732" y="-37.5" font-family="FreeSans" font-size="10.00" fill="#000000">coresoftware/blob/master</text>
<text text-anchor="start" x="732" y="-25.5" font-family="FreeSans" font-size="10.00" fill="#000000">/simulation/g4simulation</text>
<text text-anchor="middle" x="830.5" y="-13.5" font-family="FreeSans" font-size="10.00" fill="#000000">/g4detectors/PHG4FPbScSubsystem.cc</text>
</a>
</g>
</g>
<!-- Node1&#45;&gt;Node5 -->
<g id="edge4" class="edge">
<title>Node1&#45;&gt;Node5</title>
<path fill="none" stroke="#191970" d="M759.7026,-86.7669C774.3937,-74.676 790.4653,-61.4489 803.5772,-50.6577"/>
<polygon fill="#191970" stroke="#191970" points="757.2075,-84.2874 751.7104,-93.3446 761.6558,-89.6923 757.2075,-84.2874"/>
</g>
<!-- Node6 -->
<g id="node6" class="node">
<title>Node6</title>
<g id="a_node6"><a xlink:href="../../dc/d41/PHG4mRICHSubsystem_8cc.html" target="_top" xlink:title="coresoftware/blob/master\l/simulation/g4simulation\l/g4detectors/PHG4mRICHSubsystem.cc">
<polygon fill="none" stroke="#000000" points="955,-6.5 955,-50.5 1172,-50.5 1172,-6.5 955,-6.5"/>
<text text-anchor="start" x="963" y="-37.5" font-family="FreeSans" font-size="10.00" fill="#000000">coresoftware/blob/master</text>
<text text-anchor="start" x="963" y="-25.5" font-family="FreeSans" font-size="10.00" fill="#000000">/simulation/g4simulation</text>
<text text-anchor="middle" x="1063.5" y="-13.5" font-family="FreeSans" font-size="10.00" fill="#000000">/g4detectors/PHG4mRICHSubsystem.cc</text>
</a>
</g>
</g>
<!-- Node1&#45;&gt;Node6 -->
<g id="edge5" class="edge">
<title>Node1&#45;&gt;Node6</title>
<path fill="none" stroke="#191970" d="M827.446,-91.948C877.3592,-78.5321 935.385,-62.9355 981.4155,-50.5632"/>
<polygon fill="#191970" stroke="#191970" points="826.3262,-88.6247 817.5775,-94.6005 828.1433,-95.3848 826.3262,-88.6247"/>
</g>
<!-- Node7 -->
<g id="node7" class="node">
<title>Node7</title>
<g id="a_node7"><a xlink:href="../../dc/df6/PHG4HcalPrototypeSubsystem_8cc.html" target="_top" xlink:title="prototype/blob/master\l/simulation/g4simulation\l/g4caloprototype/PHG4HcalPrototype\lSubsystem.cc">
<polygon fill="none" stroke="#000000" points="1190.5,-.5 1190.5,-56.5 1396.5,-56.5 1396.5,-.5 1190.5,-.5"/>
<text text-anchor="start" x="1198.5" y="-43.5" font-family="FreeSans" font-size="10.00" fill="#000000">prototype/blob/master</text>
<text text-anchor="start" x="1198.5" y="-31.5" font-family="FreeSans" font-size="10.00" fill="#000000">/simulation/g4simulation</text>
<text text-anchor="start" x="1198.5" y="-19.5" font-family="FreeSans" font-size="10.00" fill="#000000">/g4caloprototype/PHG4HcalPrototype</text>
<text text-anchor="middle" x="1293.5" y="-7.5" font-family="FreeSans" font-size="10.00" fill="#000000">Subsystem.cc</text>
</a>
</g>
</g>
<!-- Node1&#45;&gt;Node7 -->
<g id="edge6" class="edge">
<title>Node1&#45;&gt;Node7</title>
<path fill="none" stroke="#191970" d="M827.7304,-109.6707C922.1054,-98.7106 1061.3736,-80.5577 1181.5,-57 1184.4534,-56.4208 1187.4451,-55.8117 1190.4607,-55.1781"/>
<polygon fill="#191970" stroke="#191970" points="827.1289,-106.2168 817.596,-110.84 827.9313,-113.1706 827.1289,-106.2168"/>
</g>
</g>
</svg>
