<?xml version="1.0" encoding="UTF-8" standalone="no"?>
<!DOCTYPE svg PUBLIC "-//W3C//DTD SVG 1.1//EN"
 "http://www.w3.org/Graphics/SVG/1.1/DTD/svg11.dtd">
<!-- Generated by graphviz version 2.40.1 (20161225.0304)
 -->
<!-- Title: PHTFileServer::SafeTFile::counter Pages: 1 -->
<svg width="1378pt" height="340pt"
 viewBox="0.00 0.00 1378.00 340.00" xmlns="http://www.w3.org/2000/svg" xmlns:xlink="http://www.w3.org/1999/xlink">
<g id="graph0" class="graph" transform="scale(1 1) rotate(0) translate(4 336)">
<title>PHTFileServer::SafeTFile::counter</title>
<!-- Node1 -->
<g id="node1" class="node">
<title>Node1</title>
<polygon fill="#bfbfbf" stroke="#000000" points="0,-91.5 0,-123.5 138,-123.5 138,-91.5 0,-91.5"/>
<text text-anchor="start" x="8" y="-110.5" font-family="FreeSans" font-size="10.00" fill="#000000">PHTFileServer::SafeTFile</text>
<text text-anchor="middle" x="69" y="-98.5" font-family="FreeSans" font-size="10.00" fill="#000000">::counter</text>
</g>
<!-- Node2 -->
<g id="node2" class="node">
<title>Node2</title>
<g id="a_node2"><a xlink:href="../../d3/dd5/jewel-2_82_80_8f.html#ae04a1cde872f06c87fe7d114e5b49d38" target="_top" xlink:title="doinstatescat">
<polygon fill="none" stroke="#000000" points="267,-117.5 267,-137.5 352,-137.5 352,-117.5 267,-117.5"/>
<text text-anchor="middle" x="309.5" y="-124.5" font-family="FreeSans" font-size="10.00" fill="#000000">doinstatescat</text>
</a>
</g>
</g>
<!-- Node1&#45;&gt;Node2 -->
<g id="edge1" class="edge">
<title>Node1&#45;&gt;Node2</title>
<path fill="none" stroke="#191970" d="M148.3856,-114.1017C187.8676,-117.385 234.0201,-121.2231 266.7843,-123.9478"/>
<polygon fill="#191970" stroke="#191970" points="148.4956,-110.5989 138.2399,-113.258 147.9154,-117.5748 148.4956,-110.5989"/>
</g>
<!-- Node17 -->
<g id="node17" class="node">
<title>Node17</title>
<g id="a_node17"><a xlink:href="../../d3/dd5/jewel-2_82_80_8f.html#af7a7f51fe1e1aa2bc16f49ced1af5f1d" target="_top" xlink:title="getqvec">
<polygon fill="none" stroke="#000000" points="174,-78.5 174,-98.5 231,-98.5 231,-78.5 174,-78.5"/>
<text text-anchor="middle" x="202.5" y="-85.5" font-family="FreeSans" font-size="10.00" fill="#000000">getqvec</text>
</a>
</g>
</g>
<!-- Node1&#45;&gt;Node17 -->
<g id="edge18" class="edge">
<title>Node1&#45;&gt;Node17</title>
<path fill="none" stroke="#191970" d="M148.0774,-96.2455C157.1919,-94.9483 165.9887,-93.6964 173.7558,-92.5909"/>
<polygon fill="#191970" stroke="#191970" points="147.5033,-92.7919 138.0962,-97.6661 148.4897,-99.7221 147.5033,-92.7919"/>
</g>
<!-- Node3 -->
<g id="node3" class="node">
<title>Node3</title>
<g id="a_node3"><a xlink:href="../../d3/dd5/jewel-2_82_80_8f.html#a044420a55f044d6181e574828f502681" target="_top" xlink:title="makebranch">
<polygon fill="none" stroke="#000000" points="388,-97.5 388,-117.5 467,-117.5 467,-97.5 388,-97.5"/>
<text text-anchor="middle" x="427.5" y="-104.5" font-family="FreeSans" font-size="10.00" fill="#000000">makebranch</text>
</a>
</g>
</g>
<!-- Node2&#45;&gt;Node3 -->
<g id="edge2" class="edge">
<title>Node2&#45;&gt;Node3</title>
<path fill="none" stroke="#191970" d="M362.078,-118.5885C370.6875,-117.1292 379.4815,-115.6387 387.7151,-114.2432"/>
<polygon fill="#191970" stroke="#191970" points="361.3752,-115.1576 352.1007,-120.2795 362.545,-122.0592 361.3752,-115.1576"/>
</g>
<!-- Node4 -->
<g id="node4" class="node">
<title>Node4</title>
<g id="a_node4"><a xlink:href="../../d3/dd5/jewel-2_82_80_8f.html#ae4babd1fd98f3de7eb1da1c259c99065" target="_top" xlink:title="makecascade">
<polygon fill="none" stroke="#000000" points="503,-97.5 503,-117.5 588,-117.5 588,-97.5 503,-97.5"/>
<text text-anchor="middle" x="545.5" y="-104.5" font-family="FreeSans" font-size="10.00" fill="#000000">makecascade</text>
</a>
</g>
</g>
<!-- Node3&#45;&gt;Node4 -->
<g id="edge3" class="edge">
<title>Node3&#45;&gt;Node4</title>
<path fill="none" stroke="#191970" d="M477.3355,-107.5C485.8567,-107.5 494.6393,-107.5 502.9488,-107.5"/>
<polygon fill="#191970" stroke="#191970" points="477.1206,-104.0001 467.1206,-107.5 477.1205,-111.0001 477.1206,-104.0001"/>
</g>
<!-- Node5 -->
<g id="node5" class="node">
<title>Node5</title>
<g id="a_node5"><a xlink:href="../../d3/dd5/jewel-2_82_80_8f.html#aeb24fa7919aa21c652e9c8f2ec45cb91" target="_top" xlink:title="genevent">
<polygon fill="none" stroke="#000000" points="624,-97.5 624,-117.5 689,-117.5 689,-97.5 624,-97.5"/>
<text text-anchor="middle" x="656.5" y="-104.5" font-family="FreeSans" font-size="10.00" fill="#000000">genevent</text>
</a>
</g>
</g>
<!-- Node4&#45;&gt;Node5 -->
<g id="edge4" class="edge">
<title>Node4&#45;&gt;Node5</title>
<path fill="none" stroke="#191970" d="M598.2511,-107.5C606.9798,-107.5 615.7994,-107.5 623.8435,-107.5"/>
<polygon fill="#191970" stroke="#191970" points="598.0981,-104.0001 588.098,-107.5 598.098,-111.0001 598.0981,-104.0001"/>
</g>
<!-- Node6 -->
<g id="node6" class="node">
<title>Node6</title>
<g id="a_node6"><a xlink:href="../../d6/d45/classEpFinderEval.html#af537855512c06847c1021dd83f015031" target="_top" xlink:title="EpFinderEval::fill_tree">
<polygon fill="none" stroke="#000000" points="769,-257.5 769,-277.5 895,-277.5 895,-257.5 769,-257.5"/>
<text text-anchor="middle" x="832" y="-264.5" font-family="FreeSans" font-size="10.00" fill="#000000">EpFinderEval::fill_tree</text>
</a>
</g>
</g>
<!-- Node5&#45;&gt;Node6 -->
<g id="edge5" class="edge">
<title>Node5&#45;&gt;Node6</title>
<path fill="none" stroke="#191970" d="M668.1808,-126.1293C680.7167,-145.204 701.9579,-175.0196 725,-196.5 752.5591,-222.1913 790.3628,-244.9043 812.8747,-257.3748"/>
<polygon fill="#191970" stroke="#191970" points="671.1153,-124.2217 662.7564,-117.7118 665.2313,-128.0136 671.1153,-124.2217"/>
</g>
<!-- Node8 -->
<g id="node8" class="node">
<title>Node8</title>
<g id="a_node8"><a xlink:href="../../dd/d2a/classPHHepMCGenHelper.html#ab0c755f6e53c0bf57ccd314a0017d227" target="_top" xlink:title="send HepMC::GenEvent to DST tree. This function takes ownership of evt">
<polygon fill="none" stroke="#000000" points="754,-155.5 754,-187.5 910,-187.5 910,-155.5 754,-155.5"/>
<text text-anchor="start" x="762" y="-174.5" font-family="FreeSans" font-size="10.00" fill="#000000">PHHepMCGenHelper::insert</text>
<text text-anchor="middle" x="832" y="-162.5" font-family="FreeSans" font-size="10.00" fill="#000000">_event</text>
</a>
</g>
</g>
<!-- Node5&#45;&gt;Node8 -->
<g id="edge7" class="edge">
<title>Node5&#45;&gt;Node8</title>
<path fill="none" stroke="#191970" d="M684.5384,-122.3159C696.7601,-128.4298 711.3807,-135.2884 725,-140.5 739.3601,-145.9951 755.1202,-151.0668 770.026,-155.4482"/>
<polygon fill="#191970" stroke="#191970" points="685.8153,-119.0385 675.3161,-117.6182 682.638,-125.2759 685.8153,-119.0385"/>
</g>
<!-- Node12 -->
<g id="node12" class="node">
<title>Node12</title>
<g id="a_node12"><a xlink:href="../../da/df0/classPHSartre.html#aafe9fd92317ab1f7eee67a9354696c4e" target="_top" xlink:title="PHSartre::process_event">
<polygon fill="none" stroke="#000000" points="996.5,-119.5 996.5,-139.5 1136.5,-139.5 1136.5,-119.5 996.5,-119.5"/>
<text text-anchor="middle" x="1066.5" y="-126.5" font-family="FreeSans" font-size="10.00" fill="#000000">PHSartre::process_event</text>
</a>
</g>
</g>
<!-- Node5&#45;&gt;Node12 -->
<g id="edge15" class="edge">
<title>Node5&#45;&gt;Node12</title>
<path fill="none" stroke="#191970" d="M699.2904,-109.7961C769.752,-113.5769 910.8743,-121.1494 996.1815,-125.7268"/>
<polygon fill="#191970" stroke="#191970" points="699.1879,-106.2856 689.0147,-109.2447 698.8128,-113.2756 699.1879,-106.2856"/>
</g>
<!-- Node13 -->
<g id="node13" class="node">
<title>Node13</title>
<g id="a_node13"><a xlink:href="../../d9/d3a/classPHPythia8.html#a5cc4124cc6be2fb2467714e3d3bc5a6a" target="_top" xlink:title="PHPythia8::process\l_event">
<polygon fill="none" stroke="#000000" points="1010,-68.5 1010,-100.5 1123,-100.5 1123,-68.5 1010,-68.5"/>
<text text-anchor="start" x="1018" y="-87.5" font-family="FreeSans" font-size="10.00" fill="#000000">PHPythia8::process</text>
<text text-anchor="middle" x="1066.5" y="-75.5" font-family="FreeSans" font-size="10.00" fill="#000000">_event</text>
</a>
</g>
</g>
<!-- Node5&#45;&gt;Node13 -->
<g id="edge16" class="edge">
<title>Node5&#45;&gt;Node13</title>
<path fill="none" stroke="#191970" d="M699.4086,-105.0929C773.8409,-100.9175 926.8672,-92.3331 1009.902,-87.675"/>
<polygon fill="#191970" stroke="#191970" points="698.803,-101.6213 689.0147,-105.676 699.1951,-108.6103 698.803,-101.6213"/>
</g>
<!-- Node15 -->
<g id="node15" class="node">
<title>Node15</title>
<g id="a_node15"><a xlink:href="../../d3/dd5/jewel-2_82_80_8f.html#a15e2df3184692bfe4ca2261638190094" target="_top" xlink:title="jewel">
<polygon fill="none" stroke="#000000" points="810.5,-39.5 810.5,-59.5 853.5,-59.5 853.5,-39.5 810.5,-39.5"/>
<text text-anchor="middle" x="832" y="-46.5" font-family="FreeSans" font-size="10.00" fill="#000000">jewel</text>
</a>
</g>
</g>
<!-- Node5&#45;&gt;Node15 -->
<g id="edge14" class="edge">
<title>Node5&#45;&gt;Node15</title>
<path fill="none" stroke="#191970" d="M683.5244,-92.7854C695.8972,-86.4945 710.9142,-79.4706 725,-74.5 753.7832,-64.3431 788.3843,-57.1167 810.2874,-53.1252"/>
<polygon fill="#191970" stroke="#191970" points="681.8946,-89.6879 674.6374,-97.407 685.1243,-95.8983 681.8946,-89.6879"/>
</g>
<!-- Node16 -->
<g id="node16" class="node">
<title>Node16</title>
<g id="a_node16"><a xlink:href="../../de/d99/classFun4AllHepMCPileupInputManager.html#a81bf2b69c3c4d3aae0aadebafe1c2c2e" target="_top" xlink:title="Fun4AllHepMCPileupInputManager::run">
<polygon fill="none" stroke="#000000" points="725,-.5 725,-20.5 939,-20.5 939,-.5 725,-.5"/>
<text text-anchor="middle" x="832" y="-7.5" font-family="FreeSans" font-size="10.00" fill="#000000">Fun4AllHepMCPileupInputManager::run</text>
</a>
</g>
</g>
<!-- Node5&#45;&gt;Node16 -->
<g id="edge17" class="edge">
<title>Node5&#45;&gt;Node16</title>
<path fill="none" stroke="#191970" d="M667.5536,-88.8223C679.3747,-70.6136 699.8606,-43.6593 725,-29.5 731.4112,-25.889 738.3522,-22.9373 745.513,-20.5278"/>
<polygon fill="#191970" stroke="#191970" points="664.5054,-87.0958 662.183,-97.433 670.4449,-90.8003 664.5054,-87.0958"/>
</g>
<!-- Node7 -->
<g id="node7" class="node">
<title>Node7</title>
<g id="a_node7"><a xlink:href="../../d6/d45/classEpFinderEval.html#a2539c184425a5dceabf6a3be79b31e9a" target="_top" xlink:title="EpFinderEval::process\l_event">
<polygon fill="none" stroke="#000000" points="1002.5,-299.5 1002.5,-331.5 1130.5,-331.5 1130.5,-299.5 1002.5,-299.5"/>
<text text-anchor="start" x="1010.5" y="-318.5" font-family="FreeSans" font-size="10.00" fill="#000000">EpFinderEval::process</text>
<text text-anchor="middle" x="1066.5" y="-306.5" font-family="FreeSans" font-size="10.00" fill="#000000">_event</text>
</a>
</g>
</g>
<!-- Node6&#45;&gt;Node7 -->
<g id="edge6" class="edge">
<title>Node6&#45;&gt;Node7</title>
<path fill="none" stroke="#191970" d="M891.0788,-279.5929C924.9172,-286.5193 967.4132,-295.2178 1002.1032,-302.3186"/>
<polygon fill="#191970" stroke="#191970" points="891.3722,-276.0804 880.8734,-277.5039 889.9684,-282.9383 891.3722,-276.0804"/>
</g>
<!-- Node9 -->
<g id="node9" class="node">
<title>Node9</title>
<g id="a_node9"><a xlink:href="../../db/d1f/classFun4AllOscarInputManager.html#a1537e89c4e652f70747fbbef18ceadc4" target="_top" xlink:title="Fun4AllOscarInputManager\l::ConvertFromOscar">
<polygon fill="none" stroke="#000000" points="989.5,-248.5 989.5,-280.5 1143.5,-280.5 1143.5,-248.5 989.5,-248.5"/>
<text text-anchor="start" x="997.5" y="-267.5" font-family="FreeSans" font-size="10.00" fill="#000000">Fun4AllOscarInputManager</text>
<text text-anchor="middle" x="1066.5" y="-255.5" font-family="FreeSans" font-size="10.00" fill="#000000">::ConvertFromOscar</text>
</a>
</g>
</g>
<!-- Node8&#45;&gt;Node9 -->
<g id="edge8" class="edge">
<title>Node8&#45;&gt;Node9</title>
<path fill="none" stroke="#191970" d="M871.7785,-192.2566C900.0652,-206.4887 939.2347,-225.1396 975,-238.5 984.4368,-242.0252 994.5715,-245.3466 1004.5358,-248.3613"/>
<polygon fill="#191970" stroke="#191970" points="873.1251,-189.0152 862.6234,-187.6135 869.9589,-195.2582 873.1251,-189.0152"/>
</g>
<!-- Node11 -->
<g id="node11" class="node">
<title>Node11</title>
<g id="a_node11"><a xlink:href="../../dd/da8/classPHPythia6.html#a7a70bdd1c198a83ed143d3e2c4516d0d" target="_top" xlink:title="PHPythia6::process\l_event">
<polygon fill="none" stroke="#000000" points="1010,-197.5 1010,-229.5 1123,-229.5 1123,-197.5 1010,-197.5"/>
<text text-anchor="start" x="1018" y="-216.5" font-family="FreeSans" font-size="10.00" fill="#000000">PHPythia6::process</text>
<text text-anchor="middle" x="1066.5" y="-204.5" font-family="FreeSans" font-size="10.00" fill="#000000">_event</text>
</a>
</g>
</g>
<!-- Node8&#45;&gt;Node11 -->
<g id="edge10" class="edge">
<title>Node8&#45;&gt;Node11</title>
<path fill="none" stroke="#191970" d="M920.16,-187.2899C950.2125,-192.6724 982.9865,-198.5424 1009.8859,-203.3602"/>
<polygon fill="#191970" stroke="#191970" points="920.5455,-183.8033 910.0851,-185.4854 919.3114,-190.6936 920.5455,-183.8033"/>
</g>
<!-- Node8&#45;&gt;Node12 -->
<g id="edge11" class="edge">
<title>Node8&#45;&gt;Node12</title>
<path fill="none" stroke="#191970" d="M920.2432,-155.6952C950.5461,-150.2679 983.607,-144.3465 1010.6177,-139.5088"/>
<polygon fill="#191970" stroke="#191970" points="919.3114,-152.3064 910.0851,-157.5146 920.5455,-159.1967 919.3114,-152.3064"/>
</g>
<!-- Node8&#45;&gt;Node13 -->
<g id="edge12" class="edge">
<title>Node8&#45;&gt;Node13</title>
<path fill="none" stroke="#191970" d="M874.408,-151.2188C902.5327,-138.2425 940.4808,-121.6296 975,-109.5 986.1862,-105.5693 998.318,-101.8721 1009.9786,-98.588"/>
<polygon fill="#191970" stroke="#191970" points="872.8587,-148.0792 865.2658,-155.4683 875.8094,-154.427 872.8587,-148.0792"/>
</g>
<!-- Node14 -->
<g id="node14" class="node">
<title>Node14</title>
<g id="a_node14"><a xlink:href="../../d6/d6f/classFun4AllHepMCInputManager.html#ab6c80a8ee0701bfff5eee3ec3623015c" target="_top" xlink:title="Fun4AllHepMCInputManager::run">
<polygon fill="none" stroke="#000000" points="975,-158.5 975,-178.5 1158,-178.5 1158,-158.5 975,-158.5"/>
<text text-anchor="middle" x="1066.5" y="-165.5" font-family="FreeSans" font-size="10.00" fill="#000000">Fun4AllHepMCInputManager::run</text>
</a>
</g>
</g>
<!-- Node8&#45;&gt;Node14 -->
<g id="edge13" class="edge">
<title>Node8&#45;&gt;Node14</title>
<path fill="none" stroke="#191970" d="M920.4513,-170.3684C938.2659,-170.1405 957.0261,-169.9005 974.9442,-169.6713"/>
<polygon fill="#191970" stroke="#191970" points="920.0395,-166.8733 910.0851,-170.501 920.1291,-173.8727 920.0395,-166.8733"/>
</g>
<!-- Node10 -->
<g id="node10" class="node">
<title>Node10</title>
<g id="a_node10"><a xlink:href="../../db/d1f/classFun4AllOscarInputManager.html#a4be602bd8c9fe73f9dcc81c8871784a6" target="_top" xlink:title="Fun4AllOscarInputManager::run">
<polygon fill="none" stroke="#000000" points="1194,-254.5 1194,-274.5 1370,-274.5 1370,-254.5 1194,-254.5"/>
<text text-anchor="middle" x="1282" y="-261.5" font-family="FreeSans" font-size="10.00" fill="#000000">Fun4AllOscarInputManager::run</text>
</a>
</g>
</g>
<!-- Node9&#45;&gt;Node10 -->
<g id="edge9" class="edge">
<title>Node9&#45;&gt;Node10</title>
<path fill="none" stroke="#191970" d="M1153.7391,-264.5C1167.0061,-264.5 1180.7039,-264.5 1193.9873,-264.5"/>
<polygon fill="#191970" stroke="#191970" points="1153.6918,-261.0001 1143.6918,-264.5 1153.6917,-268.0001 1153.6918,-261.0001"/>
</g>
<!-- Node17&#45;&gt;Node2 -->
<g id="edge21" class="edge">
<title>Node17&#45;&gt;Node2</title>
<path fill="none" stroke="#191970" d="M239.8211,-102.103C253.7059,-107.1638 269.1957,-112.8097 282.0382,-117.4906"/>
<polygon fill="#191970" stroke="#191970" points="240.6491,-98.6796 230.0552,-98.5435 238.2519,-105.2564 240.6491,-98.6796"/>
</g>
<!-- Node18 -->
<g id="node18" class="node">
<title>Node18</title>
<g id="a_node18"><a xlink:href="../../d3/dd5/jewel-2_82_80_8f.html#ab7f466da83baa6283c73d34d5b154f96" target="_top" xlink:title="dofistatescat">
<polygon fill="none" stroke="#000000" points="268.5,-78.5 268.5,-98.5 350.5,-98.5 350.5,-78.5 268.5,-78.5"/>
<text text-anchor="middle" x="309.5" y="-85.5" font-family="FreeSans" font-size="10.00" fill="#000000">dofistatescat</text>
</a>
</g>
</g>
<!-- Node17&#45;&gt;Node18 -->
<g id="edge19" class="edge">
<title>Node17&#45;&gt;Node18</title>
<path fill="none" stroke="#191970" d="M241.1788,-88.5C249.983,-88.5 259.3686,-88.5 268.2745,-88.5"/>
<polygon fill="#191970" stroke="#191970" points="241.1741,-85.0001 231.174,-88.5 241.174,-92.0001 241.1741,-85.0001"/>
</g>
<!-- Node18&#45;&gt;Node3 -->
<g id="edge20" class="edge">
<title>Node18&#45;&gt;Node3</title>
<path fill="none" stroke="#191970" d="M360.7788,-96.7568C369.7753,-98.2053 379.0155,-99.6932 387.6431,-101.0824"/>
<polygon fill="#191970" stroke="#191970" points="361.1999,-93.2796 350.7707,-95.1453 360.0871,-100.1905 361.1999,-93.2796"/>
</g>
</g>
</svg>
