<?xml version="1.0" encoding="UTF-8" standalone="no"?>
<!DOCTYPE svg PUBLIC "-//W3C//DTD SVG 1.1//EN"
 "http://www.w3.org/Graphics/SVG/1.1/DTD/svg11.dtd">
<!-- Generated by graphviz version 2.40.1 (20161225.0304)
 -->
<!-- Title: PhotonJet::GetRecoHadronsAndJetsAA Pages: 1 -->
<svg width="526pt" height="872pt"
 viewBox="0.00 0.00 526.00 872.00" xmlns="http://www.w3.org/2000/svg" xmlns:xlink="http://www.w3.org/1999/xlink">
<g id="graph0" class="graph" transform="scale(1 1) rotate(0) translate(4 868)">
<title>PhotonJet::GetRecoHadronsAndJetsAA</title>
<!-- Node1 -->
<g id="node1" class="node">
<title>Node1</title>
<polygon fill="#bfbfbf" stroke="#000000" points="0,-427.5 0,-459.5 156,-459.5 156,-427.5 0,-427.5"/>
<text text-anchor="start" x="8" y="-446.5" font-family="FreeSans" font-size="10.00" fill="#000000">PhotonJet::GetRecoHadrons</text>
<text text-anchor="middle" x="78" y="-434.5" font-family="FreeSans" font-size="10.00" fill="#000000">AndJetsAA</text>
</g>
<!-- Node2 -->
<g id="node2" class="node">
<title>Node2</title>
<g id="a_node2"><a xlink:href="../../d7/d97/classJetMap.html#a0ed0a38d5cffc5f42774a634f2207d43" target="_top" xlink:title="JetMap::begin">
<polygon fill="none" stroke="#000000" points="223.5,-843.5 223.5,-863.5 309.5,-863.5 309.5,-843.5 223.5,-843.5"/>
<text text-anchor="middle" x="266.5" y="-850.5" font-family="FreeSans" font-size="10.00" fill="#000000">JetMap::begin</text>
</a>
</g>
</g>
<!-- Node1&#45;&gt;Node2 -->
<g id="edge1" class="edge">
<title>Node1&#45;&gt;Node2</title>
<path fill="none" stroke="#191970" d="M80.5854,-459.9244C91.4799,-527.1164 135.6939,-780.0757 192,-834.5 198.0044,-840.3038 205.5235,-844.4056 213.4583,-847.2907"/>
<polygon fill="#191970" stroke="#191970" points="212.6851,-850.7129 223.2694,-850.2391 214.6998,-844.0091 212.6851,-850.7129"/>
</g>
<!-- Node3 -->
<g id="node3" class="node">
<title>Node3</title>
<g id="a_node3"><a xlink:href="../../d7/d97/classJetMap.html#a21986721db13cb4cf361c1639aebcc1b" target="_top" xlink:title="JetMap::end">
<polygon fill="none" stroke="#000000" points="228,-804.5 228,-824.5 305,-824.5 305,-804.5 228,-804.5"/>
<text text-anchor="middle" x="266.5" y="-811.5" font-family="FreeSans" font-size="10.00" fill="#000000">JetMap::end</text>
</a>
</g>
</g>
<!-- Node1&#45;&gt;Node3 -->
<g id="edge2" class="edge">
<title>Node1&#45;&gt;Node3</title>
<path fill="none" stroke="#191970" d="M81.0724,-459.5565C93.3168,-521.9398 140.4753,-747.1471 192,-795.5 199.1517,-802.2114 208.3353,-806.6355 217.7953,-809.5323"/>
<polygon fill="#191970" stroke="#191970" points="217.1274,-812.9735 227.6801,-812.0301 218.8423,-806.1868 217.1274,-812.9735"/>
</g>
<!-- Node4 -->
<g id="node4" class="node">
<title>Node4</title>
<g id="a_node4"><a xlink:href="../../de/dc9/classPHG4Particle.html#ac4a56068140437bf45a67dae571cae48" target="_top" xlink:title="PHG4Particle::get_e">
<polygon fill="none" stroke="#000000" points="208.5,-765.5 208.5,-785.5 324.5,-785.5 324.5,-765.5 208.5,-765.5"/>
<text text-anchor="middle" x="266.5" y="-772.5" font-family="FreeSans" font-size="10.00" fill="#000000">PHG4Particle::get_e</text>
</a>
</g>
</g>
<!-- Node1&#45;&gt;Node4 -->
<g id="edge3" class="edge">
<title>Node1&#45;&gt;Node4</title>
<path fill="none" stroke="#191970" d="M78.8135,-459.6649C82.3139,-511.2888 100.4553,-673.6453 192,-756.5 194.2267,-758.5153 196.6375,-760.3232 199.1828,-761.9445"/>
<polygon fill="#191970" stroke="#191970" points="197.8084,-765.1772 208.2831,-766.7682 201.0868,-758.9924 197.8084,-765.1772"/>
</g>
<!-- Node5 -->
<g id="node5" class="node">
<title>Node5</title>
<g id="a_node5"><a xlink:href="../../d7/da6/classJet.html#a85015347b5a5742dcf218e258f0460ae" target="_top" xlink:title="Jet::get_e">
<polygon fill="none" stroke="#000000" points="234.5,-726.5 234.5,-746.5 298.5,-746.5 298.5,-726.5 234.5,-726.5"/>
<text text-anchor="middle" x="266.5" y="-733.5" font-family="FreeSans" font-size="10.00" fill="#000000">Jet::get_e</text>
</a>
</g>
</g>
<!-- Node1&#45;&gt;Node5 -->
<g id="edge4" class="edge">
<title>Node1&#45;&gt;Node5</title>
<path fill="none" stroke="#191970" d="M79.7499,-459.6659C85.7641,-507.0222 109.9728,-646.5495 192,-717.5 200.9794,-725.2669 212.7126,-729.9303 224.2019,-732.7092"/>
<polygon fill="#191970" stroke="#191970" points="223.6689,-736.1718 234.1605,-734.6968 225.039,-729.3071 223.6689,-736.1718"/>
</g>
<!-- Node6 -->
<g id="node6" class="node">
<title>Node6</title>
<g id="a_node6"><a xlink:href="../../d7/da6/classJet.html#aa7219b7e6fafba21362c4591f4ed8f06" target="_top" xlink:title="Jet::get_eta">
<polygon fill="none" stroke="#000000" points="229.5,-687.5 229.5,-707.5 303.5,-707.5 303.5,-687.5 229.5,-687.5"/>
<text text-anchor="middle" x="266.5" y="-694.5" font-family="FreeSans" font-size="10.00" fill="#000000">Jet::get_eta</text>
</a>
</g>
</g>
<!-- Node1&#45;&gt;Node6 -->
<g id="edge5" class="edge">
<title>Node1&#45;&gt;Node6</title>
<path fill="none" stroke="#191970" d="M80.9376,-459.5103C89.6238,-502.1337 119.2743,-619.1557 192,-678.5 199.8339,-684.8925 209.5547,-689.1655 219.3598,-692.0136"/>
<polygon fill="#191970" stroke="#191970" points="218.5799,-695.4261 229.1261,-694.4125 220.2497,-688.6281 218.5799,-695.4261"/>
</g>
<!-- Node7 -->
<g id="node7" class="node">
<title>Node7</title>
<g id="a_node7"><a xlink:href="../../d7/da6/classJet.html#a3909f0f65817d152de5c46e216154a29" target="_top" xlink:title="Jet::get_id">
<polygon fill="none" stroke="#000000" points="233,-648.5 233,-668.5 300,-668.5 300,-648.5 233,-648.5"/>
<text text-anchor="middle" x="266.5" y="-655.5" font-family="FreeSans" font-size="10.00" fill="#000000">Jet::get_id</text>
</a>
</g>
</g>
<!-- Node1&#45;&gt;Node7 -->
<g id="edge6" class="edge">
<title>Node1&#45;&gt;Node7</title>
<path fill="none" stroke="#191970" d="M82.6072,-459.5867C94.2519,-497.249 128.5464,-591.5768 192,-639.5 200.9706,-646.275 212.1018,-650.6487 223.0013,-653.4677"/>
<polygon fill="#191970" stroke="#191970" points="222.3582,-656.9099 232.8772,-655.6439 223.8646,-650.0739 222.3582,-656.9099"/>
</g>
<!-- Node8 -->
<g id="node8" class="node">
<title>Node8</title>
<g id="a_node8"><a xlink:href="../../d7/da6/classJet.html#aa3862da447559eb2edba56fc540c776b" target="_top" xlink:title="Jet::get_mass">
<polygon fill="none" stroke="#000000" points="224,-609.5 224,-629.5 309,-629.5 309,-609.5 224,-609.5"/>
<text text-anchor="middle" x="266.5" y="-616.5" font-family="FreeSans" font-size="10.00" fill="#000000">Jet::get_mass</text>
</a>
</g>
</g>
<!-- Node1&#45;&gt;Node8 -->
<g id="edge7" class="edge">
<title>Node1&#45;&gt;Node8</title>
<path fill="none" stroke="#191970" d="M85.0755,-459.7117C99.9536,-491.8286 137.6486,-563.6159 192,-600.5 198.6011,-604.9796 206.1805,-608.4032 213.9216,-611.0196"/>
<polygon fill="#191970" stroke="#191970" points="213.1704,-614.4471 223.7521,-613.9209 215.1518,-607.7334 213.1704,-614.4471"/>
</g>
<!-- Node9 -->
<g id="node9" class="node">
<title>Node9</title>
<g id="a_node9"><a xlink:href="../../d7/da6/classJet.html#a1da0c61a547e5d93332dc5e15cb64bee" target="_top" xlink:title="Jet::get_p">
<polygon fill="none" stroke="#000000" points="234,-570.5 234,-590.5 299,-590.5 299,-570.5 234,-570.5"/>
<text text-anchor="middle" x="266.5" y="-577.5" font-family="FreeSans" font-size="10.00" fill="#000000">Jet::get_p</text>
</a>
</g>
</g>
<!-- Node1&#45;&gt;Node9 -->
<g id="edge8" class="edge">
<title>Node1&#45;&gt;Node9</title>
<path fill="none" stroke="#191970" d="M88.9271,-459.5876C107.189,-485.1963 146.431,-535.034 192,-561.5 201.721,-567.1458 213.1089,-571.1333 224.0149,-573.9424"/>
<polygon fill="#191970" stroke="#191970" points="223.3029,-577.37 233.8335,-576.2048 224.8747,-570.5487 223.3029,-577.37"/>
</g>
<!-- Node10 -->
<g id="node10" class="node">
<title>Node10</title>
<g id="a_node10"><a xlink:href="../../d7/da6/classJet.html#aaf7b661627240eff2b2b5bc596b8736e" target="_top" xlink:title="Jet::get_phi">
<polygon fill="none" stroke="#000000" points="229.5,-531.5 229.5,-551.5 303.5,-551.5 303.5,-531.5 229.5,-531.5"/>
<text text-anchor="middle" x="266.5" y="-538.5" font-family="FreeSans" font-size="10.00" fill="#000000">Jet::get_phi</text>
</a>
</g>
</g>
<!-- Node1&#45;&gt;Node10 -->
<g id="edge9" class="edge">
<title>Node1&#45;&gt;Node10</title>
<path fill="none" stroke="#191970" d="M96.8778,-459.7773C118.4945,-477.6213 155.6313,-505.9149 192,-522.5 200.5621,-526.4046 210.0584,-529.5995 219.3251,-532.1796"/>
<polygon fill="#191970" stroke="#191970" points="218.6773,-535.6272 229.2352,-534.7424 220.43,-528.8501 218.6773,-535.6272"/>
</g>
<!-- Node11 -->
<g id="node11" class="node">
<title>Node11</title>
<g id="a_node11"><a xlink:href="../../de/dc9/classPHG4Particle.html#a474033dbd058eea155c71fc4d17aaf4d" target="_top" xlink:title="PHG4Particle::get_pid">
<polygon fill="none" stroke="#000000" points="204,-492.5 204,-512.5 329,-512.5 329,-492.5 204,-492.5"/>
<text text-anchor="middle" x="266.5" y="-499.5" font-family="FreeSans" font-size="10.00" fill="#000000">PHG4Particle::get_pid</text>
</a>
</g>
</g>
<!-- Node1&#45;&gt;Node11 -->
<g id="edge10" class="edge">
<title>Node1&#45;&gt;Node11</title>
<path fill="none" stroke="#191970" d="M121.013,-459.5952C142.2372,-467.2796 168.3089,-476.3377 192,-483.5 199.2848,-485.7023 207.0202,-487.8661 214.644,-489.8993"/>
<polygon fill="#191970" stroke="#191970" points="213.9948,-493.3471 224.5548,-492.4892 215.7646,-486.5746 213.9948,-493.3471"/>
</g>
<!-- Node12 -->
<g id="node12" class="node">
<title>Node12</title>
<g id="a_node12"><a xlink:href="../../d7/da6/classJet.html#ab0298c30da3364739d73c36a28e76dfb" target="_top" xlink:title="Jet::get_pt">
<polygon fill="none" stroke="#000000" points="232,-453.5 232,-473.5 301,-473.5 301,-453.5 232,-453.5"/>
<text text-anchor="middle" x="266.5" y="-460.5" font-family="FreeSans" font-size="10.00" fill="#000000">Jet::get_pt</text>
</a>
</g>
</g>
<!-- Node1&#45;&gt;Node12 -->
<g id="edge11" class="edge">
<title>Node1&#45;&gt;Node12</title>
<path fill="none" stroke="#191970" d="M156.0309,-451.7791C178.353,-454.1475 201.9265,-456.6487 221.5381,-458.7295"/>
<polygon fill="#191970" stroke="#191970" points="221.3844,-462.2328 231.6979,-459.8075 222.1231,-455.2718 221.3844,-462.2328"/>
</g>
<!-- Node13 -->
<g id="node13" class="node">
<title>Node13</title>
<g id="a_node13"><a xlink:href="../../de/dc9/classPHG4Particle.html#a44b98bfd72a04825791d1e4c4cb150a1" target="_top" xlink:title="PHG4Particle::get_px">
<polygon fill="none" stroke="#000000" points="205.5,-414.5 205.5,-434.5 327.5,-434.5 327.5,-414.5 205.5,-414.5"/>
<text text-anchor="middle" x="266.5" y="-421.5" font-family="FreeSans" font-size="10.00" fill="#000000">PHG4Particle::get_px</text>
</a>
</g>
</g>
<!-- Node1&#45;&gt;Node13 -->
<g id="edge12" class="edge">
<title>Node1&#45;&gt;Node13</title>
<path fill="none" stroke="#191970" d="M156.0309,-435.6348C168.9778,-434.3298 182.3458,-432.9824 195.1175,-431.695"/>
<polygon fill="#191970" stroke="#191970" points="195.6144,-435.1628 205.213,-430.6775 194.9123,-428.1981 195.6144,-435.1628"/>
</g>
<!-- Node14 -->
<g id="node14" class="node">
<title>Node14</title>
<g id="a_node14"><a xlink:href="../../d7/da6/classJet.html#a5bf014c85e80f6f2ea41f93ef52db0c6" target="_top" xlink:title="Jet::get_px">
<polygon fill="none" stroke="#000000" points="231,-375.5 231,-395.5 302,-395.5 302,-375.5 231,-375.5"/>
<text text-anchor="middle" x="266.5" y="-382.5" font-family="FreeSans" font-size="10.00" fill="#000000">Jet::get_px</text>
</a>
</g>
</g>
<!-- Node1&#45;&gt;Node14 -->
<g id="edge13" class="edge">
<title>Node1&#45;&gt;Node14</title>
<path fill="none" stroke="#191970" d="M124.1157,-427.4347C144.7862,-420.4132 169.5235,-412.2565 192,-405.5 201.3282,-402.6959 211.3697,-399.8707 220.9661,-397.2628"/>
<polygon fill="#191970" stroke="#191970" points="222.0068,-400.6074 230.757,-394.6337 220.1914,-393.8469 222.0068,-400.6074"/>
</g>
<!-- Node15 -->
<g id="node15" class="node">
<title>Node15</title>
<g id="a_node15"><a xlink:href="../../de/dc9/classPHG4Particle.html#a3df4379f9e46224a8cca7f86c11e99e5" target="_top" xlink:title="PHG4Particle::get_py">
<polygon fill="none" stroke="#000000" points="205.5,-336.5 205.5,-356.5 327.5,-356.5 327.5,-336.5 205.5,-336.5"/>
<text text-anchor="middle" x="266.5" y="-343.5" font-family="FreeSans" font-size="10.00" fill="#000000">PHG4Particle::get_py</text>
</a>
</g>
</g>
<!-- Node1&#45;&gt;Node15 -->
<g id="edge14" class="edge">
<title>Node1&#45;&gt;Node15</title>
<path fill="none" stroke="#191970" d="M97.3836,-427.4308C119.1548,-410.1197 156.1498,-382.862 192,-366.5 197.6766,-363.9092 203.7547,-361.599 209.9002,-359.553"/>
<polygon fill="#191970" stroke="#191970" points="211.0519,-362.8603 219.5648,-356.5531 208.9767,-356.175 211.0519,-362.8603"/>
</g>
<!-- Node16 -->
<g id="node16" class="node">
<title>Node16</title>
<g id="a_node16"><a xlink:href="../../d7/da6/classJet.html#aa5b2ac25a412072360e100e1445ee49a" target="_top" xlink:title="Jet::get_py">
<polygon fill="none" stroke="#000000" points="231,-297.5 231,-317.5 302,-317.5 302,-297.5 231,-297.5"/>
<text text-anchor="middle" x="266.5" y="-304.5" font-family="FreeSans" font-size="10.00" fill="#000000">Jet::get_py</text>
</a>
</g>
</g>
<!-- Node1&#45;&gt;Node16 -->
<g id="edge15" class="edge">
<title>Node1&#45;&gt;Node16</title>
<path fill="none" stroke="#191970" d="M89.3314,-427.3475C107.8655,-402.1539 147.1255,-353.6833 192,-327.5 200.8487,-322.3369 211.0617,-318.4737 221.0334,-315.5944"/>
<polygon fill="#191970" stroke="#191970" points="222.0714,-318.9408 230.8651,-313.0314 220.3056,-312.1672 222.0714,-318.9408"/>
</g>
<!-- Node17 -->
<g id="node17" class="node">
<title>Node17</title>
<g id="a_node17"><a xlink:href="../../de/dc9/classPHG4Particle.html#a533e9bda40b15f62802b187e6a743e74" target="_top" xlink:title="PHG4Particle::get_pz">
<polygon fill="none" stroke="#000000" points="205.5,-258.5 205.5,-278.5 327.5,-278.5 327.5,-258.5 205.5,-258.5"/>
<text text-anchor="middle" x="266.5" y="-265.5" font-family="FreeSans" font-size="10.00" fill="#000000">PHG4Particle::get_pz</text>
</a>
</g>
</g>
<!-- Node1&#45;&gt;Node17 -->
<g id="edge16" class="edge">
<title>Node1&#45;&gt;Node17</title>
<path fill="none" stroke="#191970" d="M85.4061,-427.0629C100.6157,-395.2233 138.4951,-325.0624 192,-288.5 195.2653,-286.2687 198.7686,-284.286 202.4115,-282.5244"/>
<polygon fill="#191970" stroke="#191970" points="203.8595,-285.7121 211.6986,-278.5847 201.1258,-279.2679 203.8595,-285.7121"/>
</g>
<!-- Node18 -->
<g id="node18" class="node">
<title>Node18</title>
<g id="a_node18"><a xlink:href="../../d7/da6/classJet.html#a4009a0f20c0b95dc1ba3d9f00988fcdd" target="_top" xlink:title="Jet::get_pz">
<polygon fill="none" stroke="#000000" points="231.5,-219.5 231.5,-239.5 301.5,-239.5 301.5,-219.5 231.5,-219.5"/>
<text text-anchor="middle" x="266.5" y="-226.5" font-family="FreeSans" font-size="10.00" fill="#000000">Jet::get_pz</text>
</a>
</g>
</g>
<!-- Node1&#45;&gt;Node18 -->
<g id="edge17" class="edge">
<title>Node1&#45;&gt;Node18</title>
<path fill="none" stroke="#191970" d="M82.7858,-427.3509C94.709,-389.9983 129.378,-297.1943 192,-249.5 200.5581,-242.982 211.0806,-238.5853 221.4921,-235.6204"/>
<polygon fill="#191970" stroke="#191970" points="222.4959,-238.9779 231.3726,-233.1939 220.8264,-232.1799 222.4959,-238.9779"/>
</g>
<!-- Node19 -->
<g id="node19" class="node">
<title>Node19</title>
<g id="a_node19"><a xlink:href="../../d1/d39/classGlobalVertex.html#a97493c07f81f703dd545fe3409be10a4" target="_top" xlink:title="GlobalVertex::get_x">
<polygon fill="none" stroke="#000000" points="208.5,-180.5 208.5,-200.5 324.5,-200.5 324.5,-180.5 208.5,-180.5"/>
<text text-anchor="middle" x="266.5" y="-187.5" font-family="FreeSans" font-size="10.00" fill="#000000">GlobalVertex::get_x</text>
</a>
</g>
</g>
<!-- Node1&#45;&gt;Node19 -->
<g id="edge18" class="edge">
<title>Node1&#45;&gt;Node19</title>
<path fill="none" stroke="#191970" d="M81.0873,-427.3663C90.0653,-384.9703 120.2205,-269.6241 192,-210.5 194.4033,-208.5204 196.9846,-206.7354 199.6917,-205.126"/>
<polygon fill="#191970" stroke="#191970" points="201.3637,-208.2026 208.7017,-200.5603 198.1995,-201.9585 201.3637,-208.2026"/>
</g>
<!-- Node20 -->
<g id="node20" class="node">
<title>Node20</title>
<g id="a_node20"><a xlink:href="../../d1/d39/classGlobalVertex.html#a13edb1c021409c4a7c53bd29e6ff05e5" target="_top" xlink:title="GlobalVertex::get_y">
<polygon fill="none" stroke="#000000" points="208.5,-141.5 208.5,-161.5 324.5,-161.5 324.5,-141.5 208.5,-141.5"/>
<text text-anchor="middle" x="266.5" y="-148.5" font-family="FreeSans" font-size="10.00" fill="#000000">GlobalVertex::get_y</text>
</a>
</g>
</g>
<!-- Node1&#45;&gt;Node20 -->
<g id="edge19" class="edge">
<title>Node1&#45;&gt;Node20</title>
<path fill="none" stroke="#191970" d="M79.8316,-427.4977C86.0706,-380.6126 110.835,-242.4142 192,-171.5 194.3448,-169.4514 196.8781,-167.6099 199.5465,-165.9548"/>
<polygon fill="#191970" stroke="#191970" points="201.2325,-169.0228 208.4623,-161.2781 197.9808,-162.8239 201.2325,-169.0228"/>
</g>
<!-- Node21 -->
<g id="node21" class="node">
<title>Node21</title>
<g id="a_node21"><a xlink:href="../../d1/d39/classGlobalVertex.html#a46b4a0bd3afc9c251899dce7c4a0f001" target="_top" xlink:title="GlobalVertex::get_z">
<polygon fill="none" stroke="#000000" points="209,-102.5 209,-122.5 324,-122.5 324,-102.5 209,-102.5"/>
<text text-anchor="middle" x="266.5" y="-109.5" font-family="FreeSans" font-size="10.00" fill="#000000">GlobalVertex::get_z</text>
</a>
</g>
</g>
<!-- Node1&#45;&gt;Node21 -->
<g id="edge20" class="edge">
<title>Node1&#45;&gt;Node21</title>
<path fill="none" stroke="#191970" d="M78.892,-427.4829C82.6293,-376.3233 101.4052,-215.364 192,-132.5 194.3454,-130.3548 196.8962,-128.4354 199.5943,-126.7184"/>
<polygon fill="#191970" stroke="#191970" points="201.4634,-129.6883 208.641,-121.8952 198.1701,-123.5114 201.4634,-129.6883"/>
</g>
<!-- Node22 -->
<g id="node22" class="node">
<title>Node22</title>
<g id="a_node22"><a xlink:href="../../d0/d0e/classRawClusterUtility.html#a27157c0f1f777419cf427e72593c1e21" target="_top" xlink:title="Get energy vector of cluster based on E_core.">
<polygon fill="none" stroke="#000000" points="212.5,-51.5 212.5,-83.5 320.5,-83.5 320.5,-51.5 212.5,-51.5"/>
<text text-anchor="start" x="220.5" y="-70.5" font-family="FreeSans" font-size="10.00" fill="#000000">RawClusterUtility::</text>
<text text-anchor="middle" x="266.5" y="-58.5" font-family="FreeSans" font-size="10.00" fill="#000000">GetECoreVec</text>
</a>
</g>
</g>
<!-- Node1&#45;&gt;Node22 -->
<g id="edge21" class="edge">
<title>Node1&#45;&gt;Node22</title>
<path fill="none" stroke="#191970" d="M81.2988,-427.2399C94.1968,-365.0994 142.9268,-143.6097 192,-93.5 195.4146,-90.0132 199.3216,-86.9934 203.5179,-84.3781"/>
<polygon fill="#191970" stroke="#191970" points="205.326,-87.3797 212.4722,-79.5579 202.008,-81.216 205.326,-87.3797"/>
</g>
<!-- Node25 -->
<g id="node25" class="node">
<title>Node25</title>
<g id="a_node25"><a xlink:href="../../da/d6c/classPHG4TruthInfoContainer.html#a2817b4438bb80cacb28f457975342cf2" target="_top" xlink:title="PHG4TruthInfoContainer\l::GetPrimaryParticleRange">
<polygon fill="none" stroke="#000000" points="192,-.5 192,-32.5 341,-32.5 341,-.5 192,-.5"/>
<text text-anchor="start" x="200" y="-19.5" font-family="FreeSans" font-size="10.00" fill="#000000">PHG4TruthInfoContainer</text>
<text text-anchor="middle" x="266.5" y="-7.5" font-family="FreeSans" font-size="10.00" fill="#000000">::GetPrimaryParticleRange</text>
</a>
</g>
</g>
<!-- Node1&#45;&gt;Node25 -->
<g id="edge24" class="edge">
<title>Node1&#45;&gt;Node25</title>
<path fill="none" stroke="#191970" d="M80.582,-427.2521C91.6309,-359.5842 136.8867,-100.9529 192,-42.5 193.2276,-41.198 194.5239,-39.9612 195.8786,-38.7863"/>
<polygon fill="#191970" stroke="#191970" points="198.1899,-41.4327 204.2062,-32.7117 194.0646,-35.7774 198.1899,-41.4327"/>
</g>
<!-- Node23 -->
<g id="node23" class="node">
<title>Node23</title>
<g id="a_node23"><a xlink:href="../../d6/dc7/group__getters.html#gaf37c34254ebd3a0e62083f517012418b" target="_top" xlink:title="RawCluster::get_position">
<polygon fill="none" stroke="#000000" points="377,-76.5 377,-96.5 518,-96.5 518,-76.5 377,-76.5"/>
<text text-anchor="middle" x="447.5" y="-83.5" font-family="FreeSans" font-size="10.00" fill="#000000">RawCluster::get_position</text>
</a>
</g>
</g>
<!-- Node22&#45;&gt;Node23 -->
<g id="edge22" class="edge">
<title>Node22&#45;&gt;Node23</title>
<path fill="none" stroke="#191970" d="M320.806,-73.2006C335.2418,-74.716 351.1487,-76.3858 366.6717,-78.0153"/>
<polygon fill="#191970" stroke="#191970" points="366.487,-81.515 376.7977,-79.0782 367.2178,-74.5533 366.487,-81.515"/>
</g>
<!-- Node24 -->
<g id="node24" class="node">
<title>Node24</title>
<g id="a_node24"><a xlink:href="../../d6/dc7/group__getters.html#ga98b13ff519cec5ee5e67c2750276fa14" target="_top" xlink:title="RawCluster::get_ecore">
<polygon fill="none" stroke="#000000" points="383,-37.5 383,-57.5 512,-57.5 512,-37.5 383,-37.5"/>
<text text-anchor="middle" x="447.5" y="-44.5" font-family="FreeSans" font-size="10.00" fill="#000000">RawCluster::get_ecore</text>
</a>
</g>
</g>
<!-- Node22&#45;&gt;Node24 -->
<g id="edge23" class="edge">
<title>Node22&#45;&gt;Node24</title>
<path fill="none" stroke="#191970" d="M320.806,-61.4993C337.0836,-59.7007 355.2317,-57.6954 372.5906,-55.7773"/>
<polygon fill="#191970" stroke="#191970" points="373.1449,-59.2374 382.7,-54.6602 372.3761,-52.2798 373.1449,-59.2374"/>
</g>
</g>
</svg>
