<?xml version="1.0" encoding="UTF-8" standalone="no"?>
<!DOCTYPE svg PUBLIC "-//W3C//DTD SVG 1.1//EN"
 "http://www.w3.org/Graphics/SVG/1.1/DTD/svg11.dtd">
<!-- Generated by graphviz version 2.40.1 (20161225.0304)
 -->
<!-- Title: PHG4TruthTrackingAction::PostUserTrackingAction Pages: 1 -->
<svg width="480pt" height="194pt"
 viewBox="0.00 0.00 480.00 194.00" xmlns="http://www.w3.org/2000/svg" xmlns:xlink="http://www.w3.org/1999/xlink">
<g id="graph0" class="graph" transform="scale(1 1) rotate(0) translate(4 190)">
<title>PHG4TruthTrackingAction::PostUserTrackingAction</title>
<!-- Node1 -->
<g id="node1" class="node">
<title>Node1</title>
<polygon fill="#bfbfbf" stroke="#000000" points="0,-76.5 0,-108.5 143,-108.5 143,-76.5 0,-76.5"/>
<text text-anchor="start" x="8" y="-95.5" font-family="FreeSans" font-size="10.00" fill="#000000">PHG4TruthTrackingAction</text>
<text text-anchor="middle" x="71.5" y="-83.5" font-family="FreeSans" font-size="10.00" fill="#000000">::PostUserTrackingAction</text>
</g>
<!-- Node2 -->
<g id="node2" class="node">
<title>Node2</title>
<g id="a_node2"><a xlink:href="../../dd/d9d/classPHG4TruthEventAction.html#a902e62a93d76c59f321a270925c00080" target="_top" xlink:title="add id into track list">
<polygon fill="none" stroke="#000000" points="179,-153.5 179,-185.5 310,-185.5 310,-153.5 179,-153.5"/>
<text text-anchor="start" x="187" y="-172.5" font-family="FreeSans" font-size="10.00" fill="#000000">PHG4TruthEventAction</text>
<text text-anchor="middle" x="244.5" y="-160.5" font-family="FreeSans" font-size="10.00" fill="#000000">::AddTrackidToWritelist</text>
</a>
</g>
</g>
<!-- Node1&#45;&gt;Node2 -->
<g id="edge1" class="edge">
<title>Node1&#45;&gt;Node2</title>
<path fill="none" stroke="#191970" d="M103.1541,-108.6985C124.3927,-119.3464 153.1141,-133.3237 179,-144.5 183.07,-146.2572 187.3077,-148.0205 191.5831,-149.7525"/>
<polygon fill="#191970" stroke="#191970" points="190.3666,-153.0353 200.9521,-153.4798 192.9542,-146.5311 190.3666,-153.0353"/>
</g>
<!-- Node3 -->
<g id="node3" class="node">
<title>Node3</title>
<g id="a_node3"><a xlink:href="../../d2/d7f/namespacePHG4TrackUserInfo.html#a6c51cc021b583d69a7aa7fa7b6ebc29b" target="_top" xlink:title="PHG4TrackUserInfo::\lSetShower">
<polygon fill="none" stroke="#000000" points="185,-102.5 185,-134.5 304,-134.5 304,-102.5 185,-102.5"/>
<text text-anchor="start" x="193" y="-121.5" font-family="FreeSans" font-size="10.00" fill="#000000">PHG4TrackUserInfo::</text>
<text text-anchor="middle" x="244.5" y="-109.5" font-family="FreeSans" font-size="10.00" fill="#000000">SetShower</text>
</a>
</g>
</g>
<!-- Node1&#45;&gt;Node3 -->
<g id="edge2" class="edge">
<title>Node1&#45;&gt;Node3</title>
<path fill="none" stroke="#191970" d="M143.1145,-103.2629C153.6105,-104.8403 164.408,-106.4631 174.8636,-108.0344"/>
<polygon fill="#191970" stroke="#191970" points="174.353,-111.4969 184.7621,-109.5221 175.3934,-104.5746 174.353,-111.4969"/>
</g>
<!-- Node5 -->
<g id="node5" class="node">
<title>Node5</title>
<g id="a_node5"><a xlink:href="../../d2/d7f/namespacePHG4TrackUserInfo.html#ae0eac4ddfe7ae57d032013c2df4e7fc0" target="_top" xlink:title="PHG4TrackUserInfo::\lSetUserParentId">
<polygon fill="none" stroke="#000000" points="185,-51.5 185,-83.5 304,-83.5 304,-51.5 185,-51.5"/>
<text text-anchor="start" x="193" y="-70.5" font-family="FreeSans" font-size="10.00" fill="#000000">PHG4TrackUserInfo::</text>
<text text-anchor="middle" x="244.5" y="-58.5" font-family="FreeSans" font-size="10.00" fill="#000000">SetUserParentId</text>
</a>
</g>
</g>
<!-- Node1&#45;&gt;Node5 -->
<g id="edge4" class="edge">
<title>Node1&#45;&gt;Node5</title>
<path fill="none" stroke="#191970" d="M143.1145,-82.1511C153.6105,-80.6343 164.408,-79.074 174.8636,-77.5631"/>
<polygon fill="#191970" stroke="#191970" points="175.3656,-81.027 184.7621,-76.1326 174.3643,-74.0989 175.3656,-81.027"/>
</g>
<!-- Node7 -->
<g id="node7" class="node">
<title>Node7</title>
<g id="a_node7"><a xlink:href="../../d2/d7f/namespacePHG4TrackUserInfo.html#a03caebd1436815efcb5a30b94004efe9" target="_top" xlink:title="PHG4TrackUserInfo::\lSetUserPrimaryId">
<polygon fill="none" stroke="#000000" points="185,-.5 185,-32.5 304,-32.5 304,-.5 185,-.5"/>
<text text-anchor="start" x="193" y="-19.5" font-family="FreeSans" font-size="10.00" fill="#000000">PHG4TrackUserInfo::</text>
<text text-anchor="middle" x="244.5" y="-7.5" font-family="FreeSans" font-size="10.00" fill="#000000">SetUserPrimaryId</text>
</a>
</g>
</g>
<!-- Node1&#45;&gt;Node7 -->
<g id="edge6" class="edge">
<title>Node1&#45;&gt;Node7</title>
<path fill="none" stroke="#191970" d="M104.689,-76.4624C125.823,-66.3998 153.8564,-53.3271 179,-42.5 183.7249,-40.4654 188.6646,-38.3978 193.6212,-36.3629"/>
<polygon fill="#191970" stroke="#191970" points="195.1719,-39.5109 203.1217,-32.5072 192.5395,-33.0247 195.1719,-39.5109"/>
</g>
<!-- Node4 -->
<g id="node4" class="node">
<title>Node4</title>
<g id="a_node4"><a xlink:href="../../da/da8/classPHG4TrackUserInfoV1.html#a90dded524fae4df2473ea8105052cbb9" target="_top" xlink:title="PHG4TrackUserInfoV1\l::SetShower">
<polygon fill="none" stroke="#000000" points="346,-102.5 346,-134.5 472,-134.5 472,-102.5 346,-102.5"/>
<text text-anchor="start" x="354" y="-121.5" font-family="FreeSans" font-size="10.00" fill="#000000">PHG4TrackUserInfoV1</text>
<text text-anchor="middle" x="409" y="-109.5" font-family="FreeSans" font-size="10.00" fill="#000000">::SetShower</text>
</a>
</g>
</g>
<!-- Node3&#45;&gt;Node4 -->
<g id="edge3" class="edge">
<title>Node3&#45;&gt;Node4</title>
<path fill="none" stroke="#191970" d="M304.3536,-118.5C314.5872,-118.5 325.3214,-118.5 335.8541,-118.5"/>
<polygon fill="#191970" stroke="#191970" points="335.8677,-122.0001 345.8677,-118.5 335.8677,-115.0001 335.8677,-122.0001"/>
</g>
<!-- Node6 -->
<g id="node6" class="node">
<title>Node6</title>
<g id="a_node6"><a xlink:href="../../da/da8/classPHG4TrackUserInfoV1.html#a96c2367a7b1b511fae71cb148e186ca2" target="_top" xlink:title="PHG4TrackUserInfoV1\l::SetUserParentId">
<polygon fill="none" stroke="#000000" points="346,-51.5 346,-83.5 472,-83.5 472,-51.5 346,-51.5"/>
<text text-anchor="start" x="354" y="-70.5" font-family="FreeSans" font-size="10.00" fill="#000000">PHG4TrackUserInfoV1</text>
<text text-anchor="middle" x="409" y="-58.5" font-family="FreeSans" font-size="10.00" fill="#000000">::SetUserParentId</text>
</a>
</g>
</g>
<!-- Node5&#45;&gt;Node6 -->
<g id="edge5" class="edge">
<title>Node5&#45;&gt;Node6</title>
<path fill="none" stroke="#191970" d="M304.3536,-67.5C314.5872,-67.5 325.3214,-67.5 335.8541,-67.5"/>
<polygon fill="#191970" stroke="#191970" points="335.8677,-71.0001 345.8677,-67.5 335.8677,-64.0001 335.8677,-71.0001"/>
</g>
<!-- Node8 -->
<g id="node8" class="node">
<title>Node8</title>
<g id="a_node8"><a xlink:href="../../da/da8/classPHG4TrackUserInfoV1.html#aa698373693814f05582c80e7da59aefa" target="_top" xlink:title="PHG4TrackUserInfoV1\l::SetUserPrimaryId">
<polygon fill="none" stroke="#000000" points="346,-.5 346,-32.5 472,-32.5 472,-.5 346,-.5"/>
<text text-anchor="start" x="354" y="-19.5" font-family="FreeSans" font-size="10.00" fill="#000000">PHG4TrackUserInfoV1</text>
<text text-anchor="middle" x="409" y="-7.5" font-family="FreeSans" font-size="10.00" fill="#000000">::SetUserPrimaryId</text>
</a>
</g>
</g>
<!-- Node7&#45;&gt;Node8 -->
<g id="edge7" class="edge">
<title>Node7&#45;&gt;Node8</title>
<path fill="none" stroke="#191970" d="M304.3536,-16.5C314.5872,-16.5 325.3214,-16.5 335.8541,-16.5"/>
<polygon fill="#191970" stroke="#191970" points="335.8677,-20.0001 345.8677,-16.5 335.8677,-13.0001 335.8677,-20.0001"/>
</g>
</g>
</svg>
