<?xml version="1.0" encoding="UTF-8" standalone="no"?>
<!DOCTYPE svg PUBLIC "-//W3C//DTD SVG 1.1//EN"
 "http://www.w3.org/Graphics/SVG/1.1/DTD/svg11.dtd">
<!-- Generated by graphviz version 2.40.1 (20161225.0304)
 -->
<!-- Title: SvtxTruthEval::set_strict Pages: 1 -->
<svg width="482pt" height="170pt"
 viewBox="0.00 0.00 482.00 170.00" xmlns="http://www.w3.org/2000/svg" xmlns:xlink="http://www.w3.org/1999/xlink">
<g id="graph0" class="graph" transform="scale(1 1) rotate(0) translate(4 166)">
<title>SvtxTruthEval::set_strict</title>
<!-- Node1 -->
<g id="node1" class="node">
<title>Node1</title>
<polygon fill="#bfbfbf" stroke="#000000" points="0,-55.5 0,-87.5 108,-87.5 108,-55.5 0,-55.5"/>
<text text-anchor="start" x="8" y="-74.5" font-family="FreeSans" font-size="10.00" fill="#000000">SvtxTruthEval::set</text>
<text text-anchor="middle" x="54" y="-62.5" font-family="FreeSans" font-size="10.00" fill="#000000">_strict</text>
</g>
<!-- Node2 -->
<g id="node2" class="node">
<title>Node2</title>
<g id="a_node2"><a xlink:href="../../d8/d98/classpsTOFTimezeroEval.html#a25c3e5e12649de1507e66c332b989be0" target="_top" xlink:title="print out the input object information (debugging upstream components)">
<polygon fill="none" stroke="#000000" points="164,-129.5 164,-161.5 286,-161.5 286,-129.5 164,-129.5"/>
<text text-anchor="start" x="172" y="-148.5" font-family="FreeSans" font-size="10.00" fill="#000000">psTOFTimezeroEval::</text>
<text text-anchor="middle" x="225" y="-136.5" font-family="FreeSans" font-size="10.00" fill="#000000">printInputInfo</text>
</a>
</g>
</g>
<!-- Node1&#45;&gt;Node2 -->
<g id="edge1" class="edge">
<title>Node1&#45;&gt;Node2</title>
<path fill="none" stroke="#191970" d="M88.7816,-92.5476C105.1583,-101.9035 125.1885,-112.5695 144,-120.5 151.5943,-123.7016 159.742,-126.6987 167.8377,-129.4277"/>
<polygon fill="#191970" stroke="#191970" points="90.4973,-89.4966 80.0903,-87.5104 86.9872,-95.553 90.4973,-89.4966"/>
</g>
<!-- Node4 -->
<g id="node4" class="node">
<title>Node4</title>
<g id="a_node4"><a xlink:href="../../d2/d85/classSvtxEvaluatorHaiwang.html#a5f5b66b96bcf4e8f905129e47e406dfc" target="_top" xlink:title="print out the input object information (debugging upstream components)">
<polygon fill="none" stroke="#000000" points="159.5,-78.5 159.5,-110.5 290.5,-110.5 290.5,-78.5 159.5,-78.5"/>
<text text-anchor="start" x="167.5" y="-97.5" font-family="FreeSans" font-size="10.00" fill="#000000">SvtxEvaluatorHaiwang</text>
<text text-anchor="middle" x="225" y="-85.5" font-family="FreeSans" font-size="10.00" fill="#000000">::printInputInfo</text>
</a>
</g>
</g>
<!-- Node1&#45;&gt;Node4 -->
<g id="edge3" class="edge">
<title>Node1&#45;&gt;Node4</title>
<path fill="none" stroke="#191970" d="M118.1967,-80.1346C131.6148,-81.9394 145.7804,-83.8447 159.2538,-85.6569"/>
<polygon fill="#191970" stroke="#191970" points="118.4828,-76.6417 108.1055,-78.7773 117.5496,-83.5792 118.4828,-76.6417"/>
</g>
<!-- Node6 -->
<g id="node6" class="node">
<title>Node6</title>
<g id="a_node6"><a xlink:href="../../d6/d11/classSvtxEvaluator.html#a51a88cb55f439b7bc820fa1f727bf39a" target="_top" xlink:title="print out the input object information (debugging upstream components)">
<polygon fill="none" stroke="#000000" points="144,-39.5 144,-59.5 306,-59.5 306,-39.5 144,-39.5"/>
<text text-anchor="middle" x="225" y="-46.5" font-family="FreeSans" font-size="10.00" fill="#000000">SvtxEvaluator::printInputInfo</text>
</a>
</g>
</g>
<!-- Node1&#45;&gt;Node6 -->
<g id="edge5" class="edge">
<title>Node1&#45;&gt;Node6</title>
<path fill="none" stroke="#191970" d="M118.2015,-63.2402C127.6621,-62.023 137.4942,-60.7581 147.1933,-59.5102"/>
<polygon fill="#191970" stroke="#191970" points="117.5771,-59.7916 108.1055,-64.5391 118.4704,-66.7343 117.5771,-59.7916"/>
</g>
<!-- Node8 -->
<g id="node8" class="node">
<title>Node8</title>
<g id="a_node8"><a xlink:href="../../d9/d62/classSvtxHitEval.html#a748baba39b06efa99b35955f05cf6a94" target="_top" xlink:title="SvtxHitEval::set_strict">
<polygon fill="none" stroke="#000000" points="161,-.5 161,-20.5 289,-20.5 289,-.5 161,-.5"/>
<text text-anchor="middle" x="225" y="-7.5" font-family="FreeSans" font-size="10.00" fill="#000000">SvtxHitEval::set_strict</text>
</a>
</g>
</g>
<!-- Node1&#45;&gt;Node8 -->
<g id="edge7" class="edge">
<title>Node1&#45;&gt;Node8</title>
<path fill="none" stroke="#191970" d="M94.6279,-51.057C109.8599,-43.9105 127.4817,-36.2461 144,-30.5 154.8078,-26.7404 166.6588,-23.3966 177.8799,-20.5699"/>
<polygon fill="#191970" stroke="#191970" points="93.0032,-47.9541 85.4838,-55.4179 96.0165,-54.2723 93.0032,-47.9541"/>
</g>
<!-- Node3 -->
<g id="node3" class="node">
<title>Node3</title>
<g id="a_node3"><a xlink:href="../../d8/d98/classpsTOFTimezeroEval.html#a2e98730e1beaa91c36947c0fe671fdd2" target="_top" xlink:title="psTOFTimezeroEval::\lprocess_event">
<polygon fill="none" stroke="#000000" points="347,-129.5 347,-161.5 469,-161.5 469,-129.5 347,-129.5"/>
<text text-anchor="start" x="355" y="-148.5" font-family="FreeSans" font-size="10.00" fill="#000000">psTOFTimezeroEval::</text>
<text text-anchor="middle" x="408" y="-136.5" font-family="FreeSans" font-size="10.00" fill="#000000">process_event</text>
</a>
</g>
</g>
<!-- Node2&#45;&gt;Node3 -->
<g id="edge2" class="edge">
<title>Node2&#45;&gt;Node3</title>
<path fill="none" stroke="#191970" d="M296.4261,-145.5C313.0925,-145.5 330.6936,-145.5 346.8669,-145.5"/>
<polygon fill="#191970" stroke="#191970" points="296.1908,-142.0001 286.1908,-145.5 296.1907,-149.0001 296.1908,-142.0001"/>
</g>
<!-- Node5 -->
<g id="node5" class="node">
<title>Node5</title>
<g id="a_node5"><a xlink:href="../../d2/d85/classSvtxEvaluatorHaiwang.html#ab63ca0cc53b56dad65b89d9b18220bce" target="_top" xlink:title="SvtxEvaluatorHaiwang\l::process_event">
<polygon fill="none" stroke="#000000" points="342.5,-78.5 342.5,-110.5 473.5,-110.5 473.5,-78.5 342.5,-78.5"/>
<text text-anchor="start" x="350.5" y="-97.5" font-family="FreeSans" font-size="10.00" fill="#000000">SvtxEvaluatorHaiwang</text>
<text text-anchor="middle" x="408" y="-85.5" font-family="FreeSans" font-size="10.00" fill="#000000">::process_event</text>
</a>
</g>
</g>
<!-- Node4&#45;&gt;Node5 -->
<g id="edge4" class="edge">
<title>Node4&#45;&gt;Node5</title>
<path fill="none" stroke="#191970" d="M300.9363,-94.5C314.6686,-94.5 328.8829,-94.5 342.2923,-94.5"/>
<polygon fill="#191970" stroke="#191970" points="300.5503,-91.0001 290.5503,-94.5 300.5503,-98.0001 300.5503,-91.0001"/>
</g>
<!-- Node7 -->
<g id="node7" class="node">
<title>Node7</title>
<g id="a_node7"><a xlink:href="../../d6/d11/classSvtxEvaluator.html#ac66ea4145deb621d9e4fb38cf852dc33" target="_top" xlink:title="SvtxEvaluator::process\l_event">
<polygon fill="none" stroke="#000000" points="342,-27.5 342,-59.5 474,-59.5 474,-27.5 342,-27.5"/>
<text text-anchor="start" x="350" y="-46.5" font-family="FreeSans" font-size="10.00" fill="#000000">SvtxEvaluator::process</text>
<text text-anchor="middle" x="408" y="-34.5" font-family="FreeSans" font-size="10.00" fill="#000000">_event</text>
</a>
</g>
</g>
<!-- Node6&#45;&gt;Node7 -->
<g id="edge6" class="edge">
<title>Node6&#45;&gt;Node7</title>
<path fill="none" stroke="#191970" d="M316.1875,-46.5102C324.827,-46.227 333.4702,-45.9436 341.809,-45.6702"/>
<polygon fill="#191970" stroke="#191970" points="315.9455,-43.0162 306.0656,-46.8421 316.175,-50.0124 315.9455,-43.0162"/>
</g>
</g>
</svg>
