<?xml version="1.0" encoding="UTF-8" standalone="no"?>
<!DOCTYPE svg PUBLIC "-//W3C//DTD SVG 1.1//EN"
 "http://www.w3.org/Graphics/SVG/1.1/DTD/svg11.dtd">
<!-- Generated by graphviz version 2.40.1 (20161225.0304)
 -->
<!-- Title: PHG4Reco::SetWorldSizeX Pages: 1 -->
<svg width="321pt" height="146pt"
 viewBox="0.00 0.00 321.00 146.00" xmlns="http://www.w3.org/2000/svg" xmlns:xlink="http://www.w3.org/1999/xlink">
<g id="graph0" class="graph" transform="scale(1 1) rotate(0) translate(4 142)">
<title>PHG4Reco::SetWorldSizeX</title>
<!-- Node1 -->
<g id="node1" class="node">
<title>Node1</title>
<polygon fill="#bfbfbf" stroke="#000000" points="0,-58.5 0,-78.5 149,-78.5 149,-58.5 0,-58.5"/>
<text text-anchor="middle" x="74.5" y="-65.5" font-family="FreeSans" font-size="10.00" fill="#000000">PHG4Reco::SetWorldSizeX</text>
</g>
<!-- Node2 -->
<g id="node2" class="node">
<title>Node2</title>
<g id="a_node2"><a xlink:href="../../de/d55/Fun4All__G4__block_8C.html#a6a063a649a0dd3318a517d5af98430dd" target="_top" xlink:title="Fun4All_G4_block">
<polygon fill="none" stroke="#000000" points="196.5,-117.5 196.5,-137.5 301.5,-137.5 301.5,-117.5 196.5,-117.5"/>
<text text-anchor="middle" x="249" y="-124.5" font-family="FreeSans" font-size="10.00" fill="#000000">Fun4All_G4_block</text>
</a>
</g>
</g>
<!-- Node1&#45;&gt;Node2 -->
<g id="edge1" class="edge">
<title>Node1&#45;&gt;Node2</title>
<path fill="none" stroke="#191970" d="M110.5392,-82.1516C132.0461,-90.1465 159.9594,-100.2587 185,-108.5 194.248,-111.5437 204.3176,-114.6356 213.6739,-117.4164"/>
<polygon fill="#191970" stroke="#191970" points="111.7343,-78.8619 101.1418,-78.6416 109.285,-85.4194 111.7343,-78.8619"/>
</g>
<!-- Node3 -->
<g id="node3" class="node">
<title>Node3</title>
<g id="a_node3"><a xlink:href="../../df/de1/Fun4All__G4__IonGun_8C.html#ab4966a2ae337cb8f0e45f7ee488e33b7" target="_top" xlink:title="Fun4All_G4_IonGun">
<polygon fill="none" stroke="#000000" points="192,-78.5 192,-98.5 306,-98.5 306,-78.5 192,-78.5"/>
<text text-anchor="middle" x="249" y="-85.5" font-family="FreeSans" font-size="10.00" fill="#000000">Fun4All_G4_IonGun</text>
</a>
</g>
</g>
<!-- Node1&#45;&gt;Node3 -->
<g id="edge2" class="edge">
<title>Node1&#45;&gt;Node3</title>
<path fill="none" stroke="#191970" d="M159.1624,-78.2034C170.257,-79.475 181.4074,-80.753 191.8952,-81.955"/>
<polygon fill="#191970" stroke="#191970" points="159.3434,-74.7013 149.0099,-77.0398 158.5463,-81.6558 159.3434,-74.7013"/>
</g>
<!-- Node4 -->
<g id="node4" class="node">
<title>Node4</title>
<g id="a_node4"><a xlink:href="../../d5/d01/Fun4All__G4__LeadBrick_8C.html#a5fcd8843f8a815feb3b053eaabd60d41" target="_top" xlink:title="Fun4All_G4_LeadBrick">
<polygon fill="none" stroke="#000000" points="185,-39.5 185,-59.5 313,-59.5 313,-39.5 185,-39.5"/>
<text text-anchor="middle" x="249" y="-46.5" font-family="FreeSans" font-size="10.00" fill="#000000">Fun4All_G4_LeadBrick</text>
</a>
</g>
</g>
<!-- Node1&#45;&gt;Node4 -->
<g id="edge3" class="edge">
<title>Node1&#45;&gt;Node4</title>
<path fill="none" stroke="#191970" d="M159.1493,-59.2832C167.8175,-58.3394 176.5199,-57.3918 184.914,-56.4778"/>
<polygon fill="#191970" stroke="#191970" points="158.5722,-55.8252 149.0099,-60.3872 159.33,-62.7841 158.5722,-55.8252"/>
</g>
<!-- Node5 -->
<g id="node5" class="node">
<title>Node5</title>
<g id="a_node5"><a xlink:href="../../da/db5/Fun4All__G4__W_8C.html#ad4745423f42356b6b3cb65bbbc1e917e" target="_top" xlink:title="Fun4All_G4_W">
<polygon fill="none" stroke="#000000" points="205,-.5 205,-20.5 293,-20.5 293,-.5 205,-.5"/>
<text text-anchor="middle" x="249" y="-7.5" font-family="FreeSans" font-size="10.00" fill="#000000">Fun4All_G4_W</text>
</a>
</g>
</g>
<!-- Node1&#45;&gt;Node5 -->
<g id="edge4" class="edge">
<title>Node1&#45;&gt;Node5</title>
<path fill="none" stroke="#191970" d="M112.6746,-55.074C133.9199,-47.6771 160.8716,-38.4171 185,-30.5 195.0653,-27.1973 206.0618,-23.7155 216.0555,-20.5992"/>
<polygon fill="#191970" stroke="#191970" points="111.3321,-51.8355 103.044,-58.4354 113.6389,-58.4445 111.3321,-51.8355"/>
</g>
</g>
</svg>
