<?xml version="1.0" encoding="UTF-8" standalone="no"?>
<!DOCTYPE svg PUBLIC "-//W3C//DTD SVG 1.1//EN"
 "http://www.w3.org/Graphics/SVG/1.1/DTD/svg11.dtd">
<!-- Generated by graphviz version 2.40.1 (20161225.0304)
 -->
<!-- Title: CaloTruthEval::get_shower_energy_deposit Pages: 1 -->
<svg width="525pt" height="80pt"
 viewBox="0.00 0.00 525.00 80.00" xmlns="http://www.w3.org/2000/svg" xmlns:xlink="http://www.w3.org/1999/xlink">
<g id="graph0" class="graph" transform="scale(1 1) rotate(0) translate(4 76)">
<title>CaloTruthEval::get_shower_energy_deposit</title>
<!-- Node1 -->
<g id="node1" class="node">
<title>Node1</title>
<polygon fill="#bfbfbf" stroke="#000000" points="0,-16.5 0,-48.5 142,-48.5 142,-16.5 0,-16.5"/>
<text text-anchor="start" x="8" y="-35.5" font-family="FreeSans" font-size="10.00" fill="#000000">CaloTruthEval::get</text>
<text text-anchor="middle" x="71" y="-23.5" font-family="FreeSans" font-size="10.00" fill="#000000">_shower_energy_deposit</text>
</g>
<!-- Node2 -->
<g id="node2" class="node">
<title>Node2</title>
<g id="a_node2"><a xlink:href="../../dd/d59/classCaloEvaluator.html#a5298ee9646d361a4960fc0e20f83c880" target="_top" xlink:title="dump the evaluator information into ntuple for external analysis">
<polygon fill="none" stroke="#000000" points="193,-39.5 193,-71.5 334,-71.5 334,-39.5 193,-39.5"/>
<text text-anchor="start" x="201" y="-58.5" font-family="FreeSans" font-size="10.00" fill="#000000">CaloEvaluator::fillOutput</text>
<text text-anchor="middle" x="263.5" y="-46.5" font-family="FreeSans" font-size="10.00" fill="#000000">Ntuples</text>
</a>
</g>
</g>
<!-- Node1&#45;&gt;Node2 -->
<g id="edge1" class="edge">
<title>Node1&#45;&gt;Node2</title>
<path fill="none" stroke="#191970" d="M152.3635,-42.2214C165.8679,-43.8349 179.7729,-45.4962 192.9803,-47.0743"/>
<polygon fill="#191970" stroke="#191970" points="152.4776,-38.7102 142.133,-40.999 151.6471,-45.6607 152.4776,-38.7102"/>
</g>
<!-- Node4 -->
<g id="node4" class="node">
<title>Node4</title>
<g id="a_node4"><a xlink:href="../../dd/d59/classCaloEvaluator.html#ab7e09466d57c5b93274f09f61c0f321e" target="_top" xlink:title="print out the ancestry information for detailed diagnosis">
<polygon fill="none" stroke="#000000" points="178,-.5 178,-20.5 349,-20.5 349,-.5 178,-.5"/>
<text text-anchor="middle" x="263.5" y="-7.5" font-family="FreeSans" font-size="10.00" fill="#000000">CaloEvaluator::printOutputInfo</text>
</a>
</g>
</g>
<!-- Node1&#45;&gt;Node4 -->
<g id="edge3" class="edge">
<title>Node1&#45;&gt;Node4</title>
<path fill="none" stroke="#191970" d="M152.092,-23.2323C160.6541,-22.2538 169.3804,-21.2565 177.9906,-20.2725"/>
<polygon fill="#191970" stroke="#191970" points="151.6709,-19.7576 142.133,-24.3705 152.4657,-26.7123 151.6709,-19.7576"/>
</g>
<!-- Node3 -->
<g id="node3" class="node">
<title>Node3</title>
<g id="a_node3"><a xlink:href="../../dd/d59/classCaloEvaluator.html#a936967e98c89ec58e7851b0661b838c0" target="_top" xlink:title="CaloEvaluator::process\l_event">
<polygon fill="none" stroke="#000000" points="385,-16.5 385,-48.5 517,-48.5 517,-16.5 385,-16.5"/>
<text text-anchor="start" x="393" y="-35.5" font-family="FreeSans" font-size="10.00" fill="#000000">CaloEvaluator::process</text>
<text text-anchor="middle" x="451" y="-23.5" font-family="FreeSans" font-size="10.00" fill="#000000">_event</text>
</a>
</g>
</g>
<!-- Node2&#45;&gt;Node3 -->
<g id="edge2" class="edge">
<title>Node2&#45;&gt;Node3</title>
<path fill="none" stroke="#191970" d="M344.3489,-45.5825C357.8445,-43.9271 371.7038,-42.227 384.7791,-40.6231"/>
<polygon fill="#191970" stroke="#191970" points="343.618,-42.1459 334.1185,-46.8375 344.4703,-49.0938 343.618,-42.1459"/>
</g>
<!-- Node4&#45;&gt;Node3 -->
<g id="edge4" class="edge">
<title>Node4&#45;&gt;Node3</title>
<path fill="none" stroke="#191970" d="M358.6917,-21.6692C367.509,-22.7037 376.3094,-23.7363 384.7806,-24.7303"/>
<polygon fill="#191970" stroke="#191970" points="359.0858,-18.1915 348.746,-20.5022 358.27,-25.1438 359.0858,-18.1915"/>
</g>
</g>
</svg>
