<?xml version="1.0" encoding="UTF-8" standalone="no"?>
<!DOCTYPE svg PUBLIC "-//W3C//DTD SVG 1.1//EN"
 "http://www.w3.org/Graphics/SVG/1.1/DTD/svg11.dtd">
<!-- Generated by graphviz version 2.40.1 (20161225.0304)
 -->
<!-- Title: CaloTruthEval::set_verbosity Pages: 1 -->
<svg width="1374pt" height="139pt"
 viewBox="0.00 0.00 1374.00 139.00" xmlns="http://www.w3.org/2000/svg" xmlns:xlink="http://www.w3.org/1999/xlink">
<g id="graph0" class="graph" transform="scale(1 1) rotate(0) translate(4 135)">
<title>CaloTruthEval::set_verbosity</title>
<!-- Node1 -->
<g id="node1" class="node">
<title>Node1</title>
<polygon fill="#bfbfbf" stroke="#000000" points="0,-72.5 0,-104.5 108,-104.5 108,-72.5 0,-72.5"/>
<text text-anchor="start" x="8" y="-91.5" font-family="FreeSans" font-size="10.00" fill="#000000">CaloTruthEval::set</text>
<text text-anchor="middle" x="54" y="-79.5" font-family="FreeSans" font-size="10.00" fill="#000000">_verbosity</text>
</g>
<!-- Node2 -->
<g id="node2" class="node">
<title>Node2</title>
<g id="a_node2"><a xlink:href="../../de/d0b/classCaloRawTowerEval.html#a964c5f2d5bad1977f368cf87915c2a8d" target="_top" xlink:title="adjust the messaging from the evalutaion module">
<polygon fill="none" stroke="#000000" points="144,-72.5 144,-104.5 277,-104.5 277,-72.5 144,-72.5"/>
<text text-anchor="start" x="152" y="-91.5" font-family="FreeSans" font-size="10.00" fill="#000000">CaloRawTowerEval::set</text>
<text text-anchor="middle" x="210.5" y="-79.5" font-family="FreeSans" font-size="10.00" fill="#000000">_verbosity</text>
</a>
</g>
</g>
<!-- Node1&#45;&gt;Node2 -->
<g id="edge1" class="edge">
<title>Node1&#45;&gt;Node2</title>
<path fill="none" stroke="#191970" d="M118.4129,-88.5C126.818,-88.5 135.4431,-88.5 143.8835,-88.5"/>
<polygon fill="#191970" stroke="#191970" points="118.2969,-85.0001 108.2969,-88.5 118.2969,-92.0001 118.2969,-85.0001"/>
</g>
<!-- Node3 -->
<g id="node3" class="node">
<title>Node3</title>
<g id="a_node3"><a xlink:href="../../da/d7e/classCaloRawClusterEval.html#a027ceb728225a81446b0755856cc7586" target="_top" xlink:title="adjust the messaging from the evalutaion module">
<polygon fill="none" stroke="#000000" points="313,-72.5 313,-104.5 429,-104.5 429,-72.5 313,-72.5"/>
<text text-anchor="start" x="321" y="-91.5" font-family="FreeSans" font-size="10.00" fill="#000000">CaloRawClusterEval</text>
<text text-anchor="middle" x="371" y="-79.5" font-family="FreeSans" font-size="10.00" fill="#000000">::set_verbosity</text>
</a>
</g>
</g>
<!-- Node2&#45;&gt;Node3 -->
<g id="edge2" class="edge">
<title>Node2&#45;&gt;Node3</title>
<path fill="none" stroke="#191970" d="M287.2735,-88.5C295.9201,-88.5 304.6206,-88.5 312.9725,-88.5"/>
<polygon fill="#191970" stroke="#191970" points="287.1721,-85.0001 277.1721,-88.5 287.1721,-92.0001 287.1721,-85.0001"/>
</g>
<!-- Node4 -->
<g id="node4" class="node">
<title>Node4</title>
<g id="a_node4"><a xlink:href="../../d7/ded/classSTACalorimeterCharacterization.html#aebaae010ab7828d310691192de7d16fe" target="_top" xlink:title="STACalorimeterCharacterization\l::process_event">
<polygon fill="none" stroke="#000000" points="465,-98.5 465,-130.5 642,-130.5 642,-98.5 465,-98.5"/>
<text text-anchor="start" x="473" y="-117.5" font-family="FreeSans" font-size="10.00" fill="#000000">STACalorimeterCharacterization</text>
<text text-anchor="middle" x="553.5" y="-105.5" font-family="FreeSans" font-size="10.00" fill="#000000">::process_event</text>
</a>
</g>
</g>
<!-- Node3&#45;&gt;Node4 -->
<g id="edge3" class="edge">
<title>Node3&#45;&gt;Node4</title>
<path fill="none" stroke="#191970" d="M439.2837,-98.2281C447.6416,-99.4188 456.2744,-100.6487 464.876,-101.8741"/>
<polygon fill="#191970" stroke="#191970" points="439.6396,-94.7435 429.2459,-96.798 438.6523,-101.6736 439.6396,-94.7435"/>
</g>
<!-- Node5 -->
<g id="node5" class="node">
<title>Node5</title>
<g id="a_node5"><a xlink:href="../../db/d10/classCaloEvalStack.html#af628e33e76a6c98f8a94e974d007fb3b" target="_top" xlink:title="CaloEvalStack::set\l_verbosity">
<polygon fill="none" stroke="#000000" points="498.5,-47.5 498.5,-79.5 608.5,-79.5 608.5,-47.5 498.5,-47.5"/>
<text text-anchor="start" x="506.5" y="-66.5" font-family="FreeSans" font-size="10.00" fill="#000000">CaloEvalStack::set</text>
<text text-anchor="middle" x="553.5" y="-54.5" font-family="FreeSans" font-size="10.00" fill="#000000">_verbosity</text>
</a>
</g>
</g>
<!-- Node3&#45;&gt;Node5 -->
<g id="edge4" class="edge">
<title>Node3&#45;&gt;Node5</title>
<path fill="none" stroke="#191970" d="M439.2711,-79.1478C458.7415,-76.4806 479.7049,-73.6089 498.2913,-71.0628"/>
<polygon fill="#191970" stroke="#191970" points="438.6783,-75.6962 429.2459,-80.5211 439.6284,-82.6315 438.6783,-75.6962"/>
</g>
<!-- Node6 -->
<g id="node6" class="node">
<title>Node6</title>
<g id="a_node6"><a xlink:href="../../dd/d59/classCaloEvaluator.html#a936967e98c89ec58e7851b0661b838c0" target="_top" xlink:title="CaloEvaluator::process\l_event">
<polygon fill="none" stroke="#000000" points="688,-70.5 688,-102.5 820,-102.5 820,-70.5 688,-70.5"/>
<text text-anchor="start" x="696" y="-89.5" font-family="FreeSans" font-size="10.00" fill="#000000">CaloEvaluator::process</text>
<text text-anchor="middle" x="754" y="-77.5" font-family="FreeSans" font-size="10.00" fill="#000000">_event</text>
</a>
</g>
</g>
<!-- Node5&#45;&gt;Node6 -->
<g id="edge5" class="edge">
<title>Node5&#45;&gt;Node6</title>
<path fill="none" stroke="#191970" d="M618.5207,-70.9587C640.6582,-73.4982 665.4216,-76.3389 687.6611,-78.8901"/>
<polygon fill="#191970" stroke="#191970" points="618.8865,-67.4778 608.5527,-69.8153 618.0886,-74.4322 618.8865,-67.4778"/>
</g>
<!-- Node7 -->
<g id="node7" class="node">
<title>Node7</title>
<g id="a_node7"><a xlink:href="../../d3/d22/classJetTruthEval.html#ae2c0ff4358c7ccc3cc1c8230656788a2" target="_top" xlink:title="adjust the messaging from the evalutaion module">
<polygon fill="none" stroke="#000000" points="678,-31.5 678,-51.5 830,-51.5 830,-31.5 678,-31.5"/>
<text text-anchor="middle" x="754" y="-38.5" font-family="FreeSans" font-size="10.00" fill="#000000">JetTruthEval::set_verbosity</text>
</a>
</g>
</g>
<!-- Node5&#45;&gt;Node7 -->
<g id="edge6" class="edge">
<title>Node5&#45;&gt;Node7</title>
<path fill="none" stroke="#191970" d="M618.5236,-56.3652C637.3937,-54.2947 658.1716,-52.0148 677.6678,-49.8756"/>
<polygon fill="#191970" stroke="#191970" points="618.1113,-52.8894 608.5527,-57.4593 618.8748,-59.8476 618.1113,-52.8894"/>
</g>
<!-- Node8 -->
<g id="node8" class="node">
<title>Node8</title>
<g id="a_node8"><a xlink:href="../../dd/d75/classJetRecoEval.html#a3f012a8be0d53f5520bb74ca1fe6b319" target="_top" xlink:title="adjust the messaging from the evalutaion module">
<polygon fill="none" stroke="#000000" points="866,-31.5 866,-51.5 1016,-51.5 1016,-31.5 866,-31.5"/>
<text text-anchor="middle" x="941" y="-38.5" font-family="FreeSans" font-size="10.00" fill="#000000">JetRecoEval::set_verbosity</text>
</a>
</g>
</g>
<!-- Node7&#45;&gt;Node8 -->
<g id="edge7" class="edge">
<title>Node7&#45;&gt;Node8</title>
<path fill="none" stroke="#191970" d="M840.1162,-41.5C848.7305,-41.5 857.4289,-41.5 865.9165,-41.5"/>
<polygon fill="#191970" stroke="#191970" points="840.0601,-38.0001 830.0601,-41.5 840.06,-45.0001 840.0601,-38.0001"/>
</g>
<!-- Node9 -->
<g id="node9" class="node">
<title>Node9</title>
<g id="a_node9"><a xlink:href="../../dd/df3/classJetEvalStack.html#a8793633ca70ac30154989399a07cf8de" target="_top" xlink:title="JetEvalStack::set_verbosity">
<polygon fill="none" stroke="#000000" points="1052,-31.5 1052,-51.5 1206,-51.5 1206,-31.5 1052,-31.5"/>
<text text-anchor="middle" x="1129" y="-38.5" font-family="FreeSans" font-size="10.00" fill="#000000">JetEvalStack::set_verbosity</text>
</a>
</g>
</g>
<!-- Node8&#45;&gt;Node9 -->
<g id="edge8" class="edge">
<title>Node8&#45;&gt;Node9</title>
<path fill="none" stroke="#191970" d="M1026.1174,-41.5C1034.6933,-41.5 1043.3686,-41.5 1051.8545,-41.5"/>
<polygon fill="#191970" stroke="#191970" points="1026.1131,-38.0001 1016.1131,-41.5 1026.113,-45.0001 1026.1131,-38.0001"/>
</g>
<!-- Node10 -->
<g id="node10" class="node">
<title>Node10</title>
<g id="a_node10"><a xlink:href="../../d8/de2/classJetEnergies.html#a6acaa9b2ba1fe7353781d2f5d476e8d1" target="_top" xlink:title="JetEnergies::process\l_event">
<polygon fill="none" stroke="#000000" points="1244,-51.5 1244,-83.5 1364,-83.5 1364,-51.5 1244,-51.5"/>
<text text-anchor="start" x="1252" y="-70.5" font-family="FreeSans" font-size="10.00" fill="#000000">JetEnergies::process</text>
<text text-anchor="middle" x="1304" y="-58.5" font-family="FreeSans" font-size="10.00" fill="#000000">_event</text>
</a>
</g>
</g>
<!-- Node9&#45;&gt;Node10 -->
<g id="edge9" class="edge">
<title>Node9&#45;&gt;Node10</title>
<path fill="none" stroke="#191970" d="M1206.3802,-52.9965C1218.9131,-54.8585 1231.7268,-56.7623 1243.774,-58.5521"/>
<polygon fill="#191970" stroke="#191970" points="1206.8151,-49.5228 1196.4092,-51.5151 1205.7863,-56.4468 1206.8151,-49.5228"/>
</g>
<!-- Node11 -->
<g id="node11" class="node">
<title>Node11</title>
<g id="a_node11"><a xlink:href="../../d1/df4/classJetEvaluator.html#ad83508ae828d1f2e4a83a948465a0cd2" target="_top" xlink:title="JetEvaluator::process\l_event">
<polygon fill="none" stroke="#000000" points="1242,-.5 1242,-32.5 1366,-32.5 1366,-.5 1242,-.5"/>
<text text-anchor="start" x="1250" y="-19.5" font-family="FreeSans" font-size="10.00" fill="#000000">JetEvaluator::process</text>
<text text-anchor="middle" x="1304" y="-7.5" font-family="FreeSans" font-size="10.00" fill="#000000">_event</text>
</a>
</g>
</g>
<!-- Node9&#45;&gt;Node11 -->
<g id="edge10" class="edge">
<title>Node9&#45;&gt;Node11</title>
<path fill="none" stroke="#191970" d="M1209.1491,-30.0501C1220.083,-28.4881 1231.1712,-26.9041 1241.724,-25.3966"/>
<polygon fill="#191970" stroke="#191970" points="1208.5753,-26.5965 1199.1709,-31.4756 1209.5654,-33.5261 1208.5753,-26.5965"/>
</g>
</g>
</svg>
