<?xml version="1.0" encoding="UTF-8" standalone="no"?>
<!DOCTYPE svg PUBLIC "-//W3C//DTD SVG 1.1//EN"
 "http://www.w3.org/Graphics/SVG/1.1/DTD/svg11.dtd">
<!-- Generated by graphviz version 2.40.1 (20161225.0304)
 -->
<!-- Title: oncsSub_idtpcfeev2::dump Pages: 1 -->
<svg width="832pt" height="275pt"
 viewBox="0.00 0.00 832.00 275.00" xmlns="http://www.w3.org/2000/svg" xmlns:xlink="http://www.w3.org/1999/xlink">
<g id="graph0" class="graph" transform="scale(1 1) rotate(0) translate(4 271)">
<title>oncsSub_idtpcfeev2::dump</title>
<!-- Node1 -->
<g id="node1" class="node">
<title>Node1</title>
<polygon fill="#bfbfbf" stroke="#000000" points="0,-100.5 0,-132.5 117,-132.5 117,-100.5 0,-100.5"/>
<text text-anchor="start" x="8" y="-119.5" font-family="FreeSans" font-size="10.00" fill="#000000">oncsSub_idtpcfeev2</text>
<text text-anchor="middle" x="58.5" y="-107.5" font-family="FreeSans" font-size="10.00" fill="#000000">::dump</text>
</g>
<!-- Node2 -->
<g id="node2" class="node">
<title>Node2</title>
<g id="a_node2"><a xlink:href="../../d8/d14/classoncsSubevent.html#a034ce44b8a45992d0f69eceee75a93b2" target="_top" xlink:title="oncsSubevent::identify">
<polygon fill="none" stroke="#000000" points="153,-148.5 153,-168.5 286,-168.5 286,-148.5 153,-148.5"/>
<text text-anchor="middle" x="219.5" y="-155.5" font-family="FreeSans" font-size="10.00" fill="#000000">oncsSubevent::identify</text>
</a>
</g>
</g>
<!-- Node1&#45;&gt;Node2 -->
<g id="edge1" class="edge">
<title>Node1&#45;&gt;Node2</title>
<path fill="none" stroke="#191970" d="M117.0801,-131.7818C134.8177,-136.409 154.0922,-141.4371 171.0857,-145.8702"/>
<polygon fill="#191970" stroke="#191970" points="170.2392,-149.2664 180.7989,-148.4041 172.0062,-142.4931 170.2392,-149.2664"/>
</g>
<!-- Node8 -->
<g id="node8" class="node">
<title>Node8</title>
<g id="a_node8"><a xlink:href="../../de/d34/classoncsSub__idtpcfeev2.html#abac04f49ca39a20f893acdc2c6db7de0" target="_top" xlink:title="oncsSub_idtpcfeev2\l::iValue">
<polygon fill="none" stroke="#000000" points="161,-78.5 161,-110.5 278,-110.5 278,-78.5 161,-78.5"/>
<text text-anchor="start" x="169" y="-97.5" font-family="FreeSans" font-size="10.00" fill="#000000">oncsSub_idtpcfeev2</text>
<text text-anchor="middle" x="219.5" y="-85.5" font-family="FreeSans" font-size="10.00" fill="#000000">::iValue</text>
</a>
</g>
</g>
<!-- Node1&#45;&gt;Node8 -->
<g id="edge7" class="edge">
<title>Node1&#45;&gt;Node8</title>
<path fill="none" stroke="#191970" d="M117.0801,-108.4953C128.0253,-106.9997 139.5556,-105.4241 150.7741,-103.8911"/>
<polygon fill="#191970" stroke="#191970" points="151.5294,-107.3205 160.9635,-102.4988 150.5817,-100.385 151.5294,-107.3205"/>
</g>
<!-- Node3 -->
<g id="node3" class="node">
<title>Node3</title>
<g id="a_node3"><a xlink:href="../../d8/d14/classoncsSubevent.html#a22612b64d6e2737c89066abb0b1b9680" target="_top" xlink:title="get the packet identifier">
<polygon fill="none" stroke="#000000" points="324.5,-246.5 324.5,-266.5 481.5,-266.5 481.5,-246.5 324.5,-246.5"/>
<text text-anchor="middle" x="403" y="-253.5" font-family="FreeSans" font-size="10.00" fill="#000000">oncsSubevent::getIdentifier</text>
</a>
</g>
</g>
<!-- Node2&#45;&gt;Node3 -->
<g id="edge2" class="edge">
<title>Node2&#45;&gt;Node3</title>
<path fill="none" stroke="#191970" d="M231.0079,-168.6005C249.1825,-184.0925 286.1603,-213.7827 322,-231.5 331.2021,-236.0491 341.4029,-239.9751 351.3749,-243.2799"/>
<polygon fill="#191970" stroke="#191970" points="350.6358,-246.7164 361.2253,-246.3778 352.7359,-240.0389 350.6358,-246.7164"/>
</g>
<!-- Node4 -->
<g id="node4" class="node">
<title>Node4</title>
<g id="a_node4"><a xlink:href="../../d8/d14/classoncsSubevent.html#abda06e714b47d12740596f86e9f372db" target="_top" xlink:title="oncsSubevent::getLength">
<polygon fill="none" stroke="#000000" points="522.5,-168.5 522.5,-188.5 668.5,-188.5 668.5,-168.5 522.5,-168.5"/>
<text text-anchor="middle" x="595.5" y="-175.5" font-family="FreeSans" font-size="10.00" fill="#000000">oncsSubevent::getLength</text>
</a>
</g>
</g>
<!-- Node2&#45;&gt;Node4 -->
<g id="edge3" class="edge">
<title>Node2&#45;&gt;Node4</title>
<path fill="none" stroke="#191970" d="M238.8834,-168.5869C259.0271,-178.4572 291.7762,-192.8116 322,-198.5 397.5397,-212.7173 486.581,-201.047 542.0485,-190.4872"/>
<polygon fill="#191970" stroke="#191970" points="542.8645,-193.8939 552.004,-188.5348 541.5173,-187.0247 542.8645,-193.8939"/>
</g>
<!-- Node5 -->
<g id="node5" class="node">
<title>Node5</title>
<g id="a_node5"><a xlink:href="../../d8/d14/classoncsSubevent.html#a637c0c44e1f18ade2ec7e6014ff7a5ea" target="_top" xlink:title="get the hit format; in case of unformatted get the encoding scheme.">
<polygon fill="none" stroke="#000000" points="322,-168.5 322,-188.5 484,-188.5 484,-168.5 322,-168.5"/>
<text text-anchor="middle" x="403" y="-175.5" font-family="FreeSans" font-size="10.00" fill="#000000">oncsSubevent::getHitFormat</text>
</a>
</g>
</g>
<!-- Node2&#45;&gt;Node5 -->
<g id="edge4" class="edge">
<title>Node2&#45;&gt;Node5</title>
<path fill="none" stroke="#191970" d="M286.0072,-165.7487C294.3376,-166.6567 302.969,-167.5974 311.5964,-168.5378"/>
<polygon fill="#191970" stroke="#191970" points="311.3836,-172.0352 321.704,-169.6394 312.1421,-165.0764 311.3836,-172.0352"/>
</g>
<!-- Node6 -->
<g id="node6" class="node">
<title>Node6</title>
<g id="a_node6"><a xlink:href="../../d6/dc9/oncs__mnemonic_8cc.html#a499ce62e1a1fb7efa5cab4227d12f50c" target="_top" xlink:title="oncs_get_mnemonic">
<polygon fill="none" stroke="#000000" points="343,-129.5 343,-149.5 463,-149.5 463,-129.5 343,-129.5"/>
<text text-anchor="middle" x="403" y="-136.5" font-family="FreeSans" font-size="10.00" fill="#000000">oncs_get_mnemonic</text>
</a>
</g>
</g>
<!-- Node2&#45;&gt;Node6 -->
<g id="edge5" class="edge">
<title>Node2&#45;&gt;Node6</title>
<path fill="none" stroke="#191970" d="M286.0072,-151.6137C301.236,-150.0369 317.471,-148.3559 332.8479,-146.7637"/>
<polygon fill="#191970" stroke="#191970" points="333.2232,-150.2436 342.8095,-145.7323 332.5022,-143.2809 333.2232,-150.2436"/>
</g>
<!-- Node7 -->
<g id="node7" class="node">
<title>Node7</title>
<g id="a_node7"><a xlink:href="../../d8/d14/classoncsSubevent.html#a7439e0bf763eb41c2dee4de68dbd8faf" target="_top" xlink:title="get the structure of the packet data; unformatted, hitlist, etc.">
<polygon fill="none" stroke="#000000" points="324,-90.5 324,-110.5 482,-110.5 482,-90.5 324,-90.5"/>
<text text-anchor="middle" x="403" y="-97.5" font-family="FreeSans" font-size="10.00" fill="#000000">oncsSubevent::getStructure</text>
</a>
</g>
</g>
<!-- Node2&#45;&gt;Node7 -->
<g id="edge6" class="edge">
<title>Node2&#45;&gt;Node7</title>
<path fill="none" stroke="#191970" d="M244.086,-148.493C264.6839,-140.3258 294.9727,-128.8175 322,-120.5 330.5498,-117.8688 339.6885,-115.3432 348.6343,-113.0253"/>
<polygon fill="#191970" stroke="#191970" points="349.7743,-116.3473 358.6108,-110.5021 348.0579,-109.561 349.7743,-116.3473"/>
</g>
<!-- Node9 -->
<g id="node9" class="node">
<title>Node9</title>
<g id="a_node9"><a xlink:href="../../de/d34/classoncsSub__idtpcfeev2.html#ad511be4e2151414323f1caf48dfa0122" target="_top" xlink:title="oncsSub_idtpcfeev2\l::decode">
<polygon fill="none" stroke="#000000" points="344.5,-39.5 344.5,-71.5 461.5,-71.5 461.5,-39.5 344.5,-39.5"/>
<text text-anchor="start" x="352.5" y="-58.5" font-family="FreeSans" font-size="10.00" fill="#000000">oncsSub_idtpcfeev2</text>
<text text-anchor="middle" x="403" y="-46.5" font-family="FreeSans" font-size="10.00" fill="#000000">::decode</text>
</a>
</g>
</g>
<!-- Node8&#45;&gt;Node9 -->
<g id="edge8" class="edge">
<title>Node8&#45;&gt;Node9</title>
<path fill="none" stroke="#191970" d="M278.0651,-82.0529C296.0246,-78.2359 315.9448,-74.0022 334.5055,-70.0574"/>
<polygon fill="#191970" stroke="#191970" points="335.3081,-73.4651 344.3619,-67.9626 333.8528,-66.618 335.3081,-73.4651"/>
</g>
<!-- Node9&#45;&gt;Node4 -->
<g id="edge12" class="edge">
<title>Node9&#45;&gt;Node4</title>
<path fill="none" stroke="#191970" d="M461.7763,-69.4725C469.551,-72.5011 477.1795,-76.1411 484,-80.5 504.1533,-93.38 502.4431,-104.2579 520,-120.5 536.5324,-135.7943 556.8548,-151.2389 572.2491,-162.3409"/>
<polygon fill="#191970" stroke="#191970" points="570.5014,-165.3931 580.6776,-168.3418 574.5614,-159.6907 570.5014,-165.3931"/>
</g>
<!-- Node10 -->
<g id="node10" class="node">
<title>Node10</title>
<g id="a_node10"><a xlink:href="../../d9/d9e/evDisplay_8C.html#a493aff38bcceaba17aef8c5257ff963a" target="_top" xlink:title="channel">
<polygon fill="none" stroke="#000000" points="567.5,-90.5 567.5,-110.5 623.5,-110.5 623.5,-90.5 567.5,-90.5"/>
<text text-anchor="middle" x="595.5" y="-97.5" font-family="FreeSans" font-size="10.00" fill="#000000">channel</text>
</a>
</g>
</g>
<!-- Node9&#45;&gt;Node10 -->
<g id="edge9" class="edge">
<title>Node9&#45;&gt;Node10</title>
<path fill="none" stroke="#191970" d="M461.5404,-69.1848C492.633,-76.4532 529.9618,-85.1794 557.3079,-91.572"/>
<polygon fill="#191970" stroke="#191970" points="556.7318,-95.0316 567.266,-93.8998 558.3252,-88.2154 556.7318,-95.0316"/>
</g>
<!-- Node11 -->
<g id="node11" class="node">
<title>Node11</title>
<g id="a_node11"><a xlink:href="../../de/d34/classoncsSub__idtpcfeev2.html#a274a1a652cc927ce591d1b13db411a72" target="_top" xlink:title="oncsSub_idtpcfeev2\l::crc16">
<polygon fill="none" stroke="#000000" points="537,-39.5 537,-71.5 654,-71.5 654,-39.5 537,-39.5"/>
<text text-anchor="start" x="545" y="-58.5" font-family="FreeSans" font-size="10.00" fill="#000000">oncsSub_idtpcfeev2</text>
<text text-anchor="middle" x="595.5" y="-46.5" font-family="FreeSans" font-size="10.00" fill="#000000">::crc16</text>
</a>
</g>
</g>
<!-- Node9&#45;&gt;Node11 -->
<g id="edge10" class="edge">
<title>Node9&#45;&gt;Node11</title>
<path fill="none" stroke="#191970" d="M461.5404,-55.5C482.0732,-55.5 505.3256,-55.5 526.6267,-55.5"/>
<polygon fill="#191970" stroke="#191970" points="526.9065,-59.0001 536.9064,-55.5 526.9064,-52.0001 526.9065,-59.0001"/>
</g>
<!-- Node13 -->
<g id="node13" class="node">
<title>Node13</title>
<g id="a_node13"><a xlink:href="../../d8/d14/classoncsSubevent.html#adf11eb72d6c19c6e6e3535bff393b2fb" target="_top" xlink:title="get the number of padding units in the packet data.">
<polygon fill="none" stroke="#000000" points="520,-.5 520,-20.5 671,-20.5 671,-.5 520,-.5"/>
<text text-anchor="middle" x="595.5" y="-7.5" font-family="FreeSans" font-size="10.00" fill="#000000">oncsSubevent::getPadding</text>
</a>
</g>
</g>
<!-- Node9&#45;&gt;Node13 -->
<g id="edge13" class="edge">
<title>Node9&#45;&gt;Node13</title>
<path fill="none" stroke="#191970" d="M461.5404,-41.8152C487.3036,-35.7927 517.3484,-28.7692 542.4481,-22.9017"/>
<polygon fill="#191970" stroke="#191970" points="543.5761,-26.2325 552.5169,-20.548 541.9827,-19.4163 543.5761,-26.2325"/>
</g>
<!-- Node12 -->
<g id="node12" class="node">
<title>Node12</title>
<g id="a_node12"><a xlink:href="../../de/d34/classoncsSub__idtpcfeev2.html#a8aa46bc60e3ba7369e09edefecee7a1c" target="_top" xlink:title="oncsSub_idtpcfeev2\l::reverseBits">
<polygon fill="none" stroke="#000000" points="707,-39.5 707,-71.5 824,-71.5 824,-39.5 707,-39.5"/>
<text text-anchor="start" x="715" y="-58.5" font-family="FreeSans" font-size="10.00" fill="#000000">oncsSub_idtpcfeev2</text>
<text text-anchor="middle" x="765.5" y="-46.5" font-family="FreeSans" font-size="10.00" fill="#000000">::reverseBits</text>
</a>
</g>
</g>
<!-- Node11&#45;&gt;Node12 -->
<g id="edge11" class="edge">
<title>Node11&#45;&gt;Node12</title>
<path fill="none" stroke="#191970" d="M654.0044,-55.5C667.7613,-55.5 682.547,-55.5 696.7093,-55.5"/>
<polygon fill="#191970" stroke="#191970" points="696.8878,-59.0001 706.8878,-55.5 696.8878,-52.0001 696.8878,-59.0001"/>
</g>
</g>
</svg>
