<?xml version="1.0" encoding="UTF-8" standalone="no"?>
<!DOCTYPE svg PUBLIC "-//W3C//DTD SVG 1.1//EN"
 "http://www.w3.org/Graphics/SVG/1.1/DTD/svg11.dtd">
<!-- Generated by graphviz version 2.40.1 (20161225.0304)
 -->
<!-- Title: FastPid_RICH::CreateNodes Pages: 1 -->
<svg width="523pt" height="146pt"
 viewBox="0.00 0.00 523.00 146.00" xmlns="http://www.w3.org/2000/svg" xmlns:xlink="http://www.w3.org/1999/xlink">
<g id="graph0" class="graph" transform="scale(1 1) rotate(0) translate(4 142)">
<title>FastPid_RICH::CreateNodes</title>
<!-- Node1 -->
<g id="node1" class="node">
<title>Node1</title>
<polygon fill="#bfbfbf" stroke="#000000" points="0,-49.5 0,-69.5 153,-69.5 153,-49.5 0,-49.5"/>
<text text-anchor="middle" x="76.5" y="-56.5" font-family="FreeSans" font-size="10.00" fill="#000000">FastPid_RICH::CreateNodes</text>
</g>
<!-- Node2 -->
<g id="node2" class="node">
<title>Node2</title>
<g id="a_node2"><a xlink:href="../../d5/dca/classPHCompositeNode.html#a15a0c4804399a9de4267647f05bd1ba4" target="_top" xlink:title="PHCompositeNode::addNode">
<polygon fill="none" stroke="#000000" points="189,-78.5 189,-98.5 351,-98.5 351,-78.5 189,-78.5"/>
<text text-anchor="middle" x="270" y="-85.5" font-family="FreeSans" font-size="10.00" fill="#000000">PHCompositeNode::addNode</text>
</a>
</g>
</g>
<!-- Node1&#45;&gt;Node2 -->
<g id="edge1" class="edge">
<title>Node1&#45;&gt;Node2</title>
<path fill="none" stroke="#191970" d="M143.3627,-69.5208C159.3747,-71.9205 176.5978,-74.5017 193.0263,-76.9639"/>
<polygon fill="#191970" stroke="#191970" points="192.7263,-80.4579 203.1347,-78.4788 193.7639,-73.5353 192.7263,-80.4579"/>
</g>
<!-- Node6 -->
<g id="node6" class="node">
<title>Node6</title>
<g id="a_node6"><a xlink:href="../../d5/d07/classPHNodeIterator.html#aea98bf8619af59b1212a94fb32106baa" target="_top" xlink:title="PHNodeIterator::findFirst">
<polygon fill="none" stroke="#000000" points="199.5,-21.5 199.5,-41.5 340.5,-41.5 340.5,-21.5 199.5,-21.5"/>
<text text-anchor="middle" x="270" y="-28.5" font-family="FreeSans" font-size="10.00" fill="#000000">PHNodeIterator::findFirst</text>
</a>
</g>
</g>
<!-- Node1&#45;&gt;Node6 -->
<g id="edge5" class="edge">
<title>Node1&#45;&gt;Node6</title>
<path fill="none" stroke="#191970" d="M145.8114,-49.4704C160.3495,-47.3667 175.7887,-45.1326 190.6604,-42.9807"/>
<polygon fill="#191970" stroke="#191970" points="191.4518,-46.4027 200.8475,-41.5066 190.4493,-39.4748 191.4518,-46.4027"/>
</g>
<!-- Node3 -->
<g id="node3" class="node">
<title>Node3</title>
<g id="a_node3"><a xlink:href="../../dc/d82/classPHNode.html#aca3576f926a4401eddc3d88bf0ce0de3" target="_top" xlink:title="PHNode::getName">
<polygon fill="none" stroke="#000000" points="396.5,-39.5 396.5,-59.5 505.5,-59.5 505.5,-39.5 396.5,-39.5"/>
<text text-anchor="middle" x="451" y="-46.5" font-family="FreeSans" font-size="10.00" fill="#000000">PHNode::getName</text>
</a>
</g>
</g>
<!-- Node2&#45;&gt;Node3 -->
<g id="edge2" class="edge">
<title>Node2&#45;&gt;Node3</title>
<path fill="none" stroke="#191970" d="M316.612,-78.4565C340.3636,-73.3388 369.4366,-67.0744 394.4587,-61.6829"/>
<polygon fill="#191970" stroke="#191970" points="395.5076,-65.0373 404.546,-59.5094 394.0331,-58.1944 395.5076,-65.0373"/>
</g>
<!-- Node4 -->
<g id="node4" class="node">
<title>Node4</title>
<g id="a_node4"><a xlink:href="../../dc/d82/classPHNode.html#adda2bd6cef2d5067bbe3016a990b7198" target="_top" xlink:title="PHNode::setParent">
<polygon fill="none" stroke="#000000" points="395.5,-117.5 395.5,-137.5 506.5,-137.5 506.5,-117.5 395.5,-117.5"/>
<text text-anchor="middle" x="451" y="-124.5" font-family="FreeSans" font-size="10.00" fill="#000000">PHNode::setParent</text>
</a>
</g>
</g>
<!-- Node2&#45;&gt;Node4 -->
<g id="edge3" class="edge">
<title>Node2&#45;&gt;Node4</title>
<path fill="none" stroke="#191970" d="M316.612,-98.5435C340.3636,-103.6612 369.4366,-109.9256 394.4587,-115.3171"/>
<polygon fill="#191970" stroke="#191970" points="394.0331,-118.8056 404.546,-117.4906 395.5076,-111.9627 394.0331,-118.8056"/>
</g>
<!-- Node5 -->
<g id="node5" class="node">
<title>Node5</title>
<g id="a_node5"><a xlink:href="../../d6/d86/classPHPointerList.html#ac2176735e9d046a034f1686fd2c477eb" target="_top" xlink:title="PHPointerList::append">
<polygon fill="none" stroke="#000000" points="387,-78.5 387,-98.5 515,-98.5 515,-78.5 387,-78.5"/>
<text text-anchor="middle" x="451" y="-85.5" font-family="FreeSans" font-size="10.00" fill="#000000">PHPointerList::append</text>
</a>
</g>
</g>
<!-- Node2&#45;&gt;Node5 -->
<g id="edge4" class="edge">
<title>Node2&#45;&gt;Node5</title>
<path fill="none" stroke="#191970" d="M351.2347,-88.5C359.72,-88.5 368.3151,-88.5 376.7173,-88.5"/>
<polygon fill="#191970" stroke="#191970" points="376.8504,-92.0001 386.8503,-88.5 376.8503,-85.0001 376.8504,-92.0001"/>
</g>
<!-- Node6&#45;&gt;Node3 -->
<g id="edge7" class="edge">
<title>Node6&#45;&gt;Node3</title>
<path fill="none" stroke="#191970" d="M340.757,-38.5366C355.7411,-40.0267 371.4844,-41.5924 386.2331,-43.0591"/>
<polygon fill="#191970" stroke="#191970" points="385.966,-46.5497 396.2633,-44.0566 386.6588,-39.5841 385.966,-46.5497"/>
</g>
<!-- Node6&#45;&gt;Node6 -->
<g id="edge8" class="edge">
<title>Node6&#45;&gt;Node6</title>
<path fill="none" stroke="#191970" d="M241.8201,-41.7271C228.9661,-50.6067 238.3594,-60 270,-60 291.2585,-60 302.4743,-55.7597 303.6473,-50.2839"/>
<polygon fill="#191970" stroke="#191970" points="306.5136,-48.2693 298.1799,-41.7271 300.6148,-52.0383 306.5136,-48.2693"/>
</g>
<!-- Node7 -->
<g id="node7" class="node">
<title>Node7</title>
<g id="a_node7"><a xlink:href="../../dc/d82/classPHNode.html#a4ab1f90aed955a652813bfe377087bda" target="_top" xlink:title="PHNode::getType">
<polygon fill="none" stroke="#000000" points="399.5,-.5 399.5,-20.5 502.5,-20.5 502.5,-.5 399.5,-.5"/>
<text text-anchor="middle" x="451" y="-7.5" font-family="FreeSans" font-size="10.00" fill="#000000">PHNode::getType</text>
</a>
</g>
</g>
<!-- Node6&#45;&gt;Node7 -->
<g id="edge6" class="edge">
<title>Node6&#45;&gt;Node7</title>
<path fill="none" stroke="#191970" d="M340.757,-23.2906C356.7799,-21.4316 373.6708,-19.4719 389.2855,-17.6602"/>
<polygon fill="#191970" stroke="#191970" points="389.8104,-21.1229 399.3404,-16.4937 389.0036,-14.1696 389.8104,-21.1229"/>
</g>
</g>
</svg>
