<?xml version="1.0" encoding="UTF-8" standalone="no"?>
<!DOCTYPE svg PUBLIC "-//W3C//DTD SVG 1.1//EN"
 "http://www.w3.org/Graphics/SVG/1.1/DTD/svg11.dtd">
<!-- Generated by graphviz version 2.40.1 (20161225.0304)
 -->
<!-- Title: sPHENIXTracker::initEvent Pages: 1 -->
<svg width="544pt" height="41pt"
 viewBox="0.00 0.00 544.00 41.00" xmlns="http://www.w3.org/2000/svg" xmlns:xlink="http://www.w3.org/1999/xlink">
<g id="graph0" class="graph" transform="scale(1 1) rotate(0) translate(4 37)">
<title>sPHENIXTracker::initEvent</title>
<!-- Node1 -->
<g id="node1" class="node">
<title>Node1</title>
<polygon fill="#bfbfbf" stroke="#000000" points="0,-6.5 0,-26.5 147,-26.5 147,-6.5 0,-6.5"/>
<text text-anchor="middle" x="73.5" y="-13.5" font-family="FreeSans" font-size="10.00" fill="#000000">sPHENIXTracker::initEvent</text>
</g>
<!-- Node2 -->
<g id="node2" class="node">
<title>Node2</title>
<g id="a_node2"><a xlink:href="../../da/d22/classsPHENIXTracker.html#a0e581ef5c09a6f697dbc3b558b6949cd" target="_top" xlink:title="sPHENIXTracker::initSplitting">
<polygon fill="none" stroke="#000000" points="183,-6.5 183,-26.5 342,-26.5 342,-6.5 183,-6.5"/>
<text text-anchor="middle" x="262.5" y="-13.5" font-family="FreeSans" font-size="10.00" fill="#000000">sPHENIXTracker::initSplitting</text>
</a>
</g>
</g>
<!-- Node1&#45;&gt;Node2 -->
<g id="edge1" class="edge">
<title>Node1&#45;&gt;Node2</title>
<path fill="none" stroke="#191970" d="M157.3646,-16.5C165.8308,-16.5 174.4123,-16.5 182.8327,-16.5"/>
<polygon fill="#191970" stroke="#191970" points="157.1136,-13.0001 147.1135,-16.5 157.1135,-20.0001 157.1136,-13.0001"/>
</g>
<!-- Node3 -->
<g id="node3" class="node">
<title>Node3</title>
<g id="a_node3"><a xlink:href="../../da/d22/classsPHENIXTracker.html#a0ba292566fa8b0164bea26e250e71891" target="_top" xlink:title="sPHENIXTracker::findHelices\lParallel">
<polygon fill="none" stroke="#000000" points="378,-.5 378,-32.5 536,-32.5 536,-.5 378,-.5"/>
<text text-anchor="start" x="386" y="-19.5" font-family="FreeSans" font-size="10.00" fill="#000000">sPHENIXTracker::findHelices</text>
<text text-anchor="middle" x="457" y="-7.5" font-family="FreeSans" font-size="10.00" fill="#000000">Parallel</text>
</a>
</g>
</g>
<!-- Node2&#45;&gt;Node3 -->
<g id="edge2" class="edge">
<title>Node2&#45;&gt;Node3</title>
<path fill="none" stroke="#191970" d="M352.4326,-16.5C360.889,-16.5 369.4196,-16.5 377.7667,-16.5"/>
<polygon fill="#191970" stroke="#191970" points="352.1718,-13.0001 342.1718,-16.5 352.1718,-20.0001 352.1718,-13.0001"/>
</g>
</g>
</svg>
