<?xml version="1.0" encoding="UTF-8" standalone="no"?>
<!DOCTYPE svg PUBLIC "-//W3C//DTD SVG 1.1//EN"
 "http://www.w3.org/Graphics/SVG/1.1/DTD/svg11.dtd">
<!-- Generated by graphviz version 2.40.1 (20161225.0304)
 -->
<!-- Title: EMCalAna::Init_SF Pages: 1 -->
<svg width="702pt" height="148pt"
 viewBox="0.00 0.00 702.00 148.00" xmlns="http://www.w3.org/2000/svg" xmlns:xlink="http://www.w3.org/1999/xlink">
<g id="graph0" class="graph" transform="scale(1 1) rotate(0) translate(4 144)">
<title>EMCalAna::Init_SF</title>
<!-- Node1 -->
<g id="node1" class="node">
<title>Node1</title>
<polygon fill="#bfbfbf" stroke="#000000" points="0,-28.5 0,-48.5 107,-48.5 107,-28.5 0,-28.5"/>
<text text-anchor="middle" x="53.5" y="-35.5" font-family="FreeSans" font-size="10.00" fill="#000000">EMCalAna::Init_SF</text>
</g>
<!-- Node2 -->
<g id="node2" class="node">
<title>Node2</title>
<g id="a_node2"><a xlink:href="../../db/d4b/classEMCalAna.html#ae233191e8f4b750903ff27bf3880160e" target="_top" xlink:title="EMCalAna::get_HistoManager">
<polygon fill="none" stroke="#000000" points="143,-59.5 143,-79.5 309,-79.5 309,-59.5 143,-59.5"/>
<text text-anchor="middle" x="226" y="-66.5" font-family="FreeSans" font-size="10.00" fill="#000000">EMCalAna::get_HistoManager</text>
</a>
</g>
</g>
<!-- Node1&#45;&gt;Node2 -->
<g id="edge1" class="edge">
<title>Node1&#45;&gt;Node2</title>
<path fill="none" stroke="#191970" d="M107.1345,-48.1387C123.9177,-51.1548 142.6331,-54.5181 160.1564,-57.6672"/>
<polygon fill="#191970" stroke="#191970" points="159.851,-61.1683 170.3124,-59.4924 161.0892,-54.2787 159.851,-61.1683"/>
</g>
<!-- Node8 -->
<g id="node8" class="node">
<title>Node8</title>
<g id="a_node8"><a xlink:href="../../d3/d96/classFun4AllHistoManager.html#a7e1354855437fa28bb0d29dc0581d0a6" target="_top" xlink:title="Fun4AllHistoManager\l::registerHisto">
<polygon fill="none" stroke="#000000" points="164,-.5 164,-32.5 288,-32.5 288,-.5 164,-.5"/>
<text text-anchor="start" x="172" y="-19.5" font-family="FreeSans" font-size="10.00" fill="#000000">Fun4AllHistoManager</text>
<text text-anchor="middle" x="226" y="-7.5" font-family="FreeSans" font-size="10.00" fill="#000000">::registerHisto</text>
</a>
</g>
</g>
<!-- Node1&#45;&gt;Node8 -->
<g id="edge8" class="edge">
<title>Node1&#45;&gt;Node8</title>
<path fill="none" stroke="#191970" d="M107.1345,-31.6597C121.9002,-29.7765 138.1616,-27.7026 153.7909,-25.7093"/>
<polygon fill="#191970" stroke="#191970" points="154.4714,-29.1509 163.9482,-24.4139 153.5857,-22.2072 154.4714,-29.1509"/>
</g>
<!-- Node3 -->
<g id="node3" class="node">
<title>Node3</title>
<g id="a_node3"><a xlink:href="../../da/d29/classFun4AllServer.html#af5885837658eb26f98dbc697b58747a7" target="_top" xlink:title="Fun4AllServer::getHistoManager">
<polygon fill="none" stroke="#000000" points="345,-68.5 345,-88.5 526,-88.5 526,-68.5 345,-68.5"/>
<text text-anchor="middle" x="435.5" y="-75.5" font-family="FreeSans" font-size="10.00" fill="#000000">Fun4AllServer::getHistoManager</text>
</a>
</g>
</g>
<!-- Node2&#45;&gt;Node3 -->
<g id="edge2" class="edge">
<title>Node2&#45;&gt;Node3</title>
<path fill="none" stroke="#191970" d="M309.1008,-73.07C317.5582,-73.4333 326.2125,-73.8051 334.8298,-74.1753"/>
<polygon fill="#191970" stroke="#191970" points="334.7739,-77.676 344.9149,-74.6085 335.0744,-70.6824 334.7739,-77.676"/>
</g>
<!-- Node5 -->
<g id="node5" class="node">
<title>Node5</title>
<g id="a_node5"><a xlink:href="../../da/d29/classFun4AllServer.html#a3e55156f91b2c94bb6c4ef33ffce587a" target="_top" xlink:title="Fun4AllServer::instance">
<polygon fill="none" stroke="#000000" points="367.5,-29.5 367.5,-49.5 503.5,-49.5 503.5,-29.5 367.5,-29.5"/>
<text text-anchor="middle" x="435.5" y="-36.5" font-family="FreeSans" font-size="10.00" fill="#000000">Fun4AllServer::instance</text>
</a>
</g>
</g>
<!-- Node2&#45;&gt;Node5 -->
<g id="edge4" class="edge">
<title>Node2&#45;&gt;Node5</title>
<path fill="none" stroke="#191970" d="M296.0517,-59.4687C315.6913,-56.6564 337.1654,-53.5813 357.2485,-50.7055"/>
<polygon fill="#191970" stroke="#191970" points="357.8902,-54.1494 367.293,-49.2671 356.8978,-47.2201 357.8902,-54.1494"/>
</g>
<!-- Node6 -->
<g id="node6" class="node">
<title>Node6</title>
<g id="a_node6"><a xlink:href="../../da/d29/classFun4AllServer.html#a377f113767f24ce6413e678752ed7f53" target="_top" xlink:title="Fun4AllServer::registerHisto\lManager">
<polygon fill="none" stroke="#000000" points="356.5,-107.5 356.5,-139.5 514.5,-139.5 514.5,-107.5 356.5,-107.5"/>
<text text-anchor="start" x="364.5" y="-126.5" font-family="FreeSans" font-size="10.00" fill="#000000">Fun4AllServer::registerHisto</text>
<text text-anchor="middle" x="435.5" y="-114.5" font-family="FreeSans" font-size="10.00" fill="#000000">Manager</text>
</a>
</g>
</g>
<!-- Node2&#45;&gt;Node6 -->
<g id="edge5" class="edge">
<title>Node2&#45;&gt;Node6</title>
<path fill="none" stroke="#191970" d="M264.9144,-79.5304C292.4746,-86.6343 330.26,-96.3737 363.2648,-104.8809"/>
<polygon fill="#191970" stroke="#191970" points="362.7804,-108.3704 373.3375,-107.4772 364.5277,-101.5919 362.7804,-108.3704"/>
</g>
<!-- Node4 -->
<g id="node4" class="node">
<title>Node4</title>
<g id="a_node4"><a xlink:href="../../d5/dec/classFun4AllBase.html#a8a5c77a92bdac6bc043476e132379a40" target="_top" xlink:title="Gets the verbosity of this module.">
<polygon fill="none" stroke="#000000" points="562,-68.5 562,-88.5 694,-88.5 694,-68.5 562,-68.5"/>
<text text-anchor="middle" x="628" y="-75.5" font-family="FreeSans" font-size="10.00" fill="#000000">Fun4AllBase::Verbosity</text>
</a>
</g>
</g>
<!-- Node3&#45;&gt;Node4 -->
<g id="edge3" class="edge">
<title>Node3&#45;&gt;Node4</title>
<path fill="none" stroke="#191970" d="M526.1132,-78.5C534.7099,-78.5 543.3668,-78.5 551.8083,-78.5"/>
<polygon fill="#191970" stroke="#191970" points="551.9797,-82.0001 561.9797,-78.5 551.9796,-75.0001 551.9797,-82.0001"/>
</g>
<!-- Node6&#45;&gt;Node4 -->
<g id="edge7" class="edge">
<title>Node6&#45;&gt;Node4</title>
<path fill="none" stroke="#191970" d="M504.1816,-107.4445C527.5903,-101.9724 553.3749,-95.9448 575.3264,-90.8133"/>
<polygon fill="#191970" stroke="#191970" points="576.1794,-94.2083 585.1202,-88.5239 574.586,-87.3921 576.1794,-94.2083"/>
</g>
<!-- Node7 -->
<g id="node7" class="node">
<title>Node7</title>
<g id="a_node7"><a xlink:href="../../d5/dec/classFun4AllBase.html#a41f9ac377743d046f590617fd6f4f0ed" target="_top" xlink:title="Returns the name of this module.">
<polygon fill="none" stroke="#000000" points="570.5,-113.5 570.5,-133.5 685.5,-133.5 685.5,-113.5 570.5,-113.5"/>
<text text-anchor="middle" x="628" y="-120.5" font-family="FreeSans" font-size="10.00" fill="#000000">Fun4AllBase::Name</text>
</a>
</g>
</g>
<!-- Node6&#45;&gt;Node7 -->
<g id="edge6" class="edge">
<title>Node6&#45;&gt;Node7</title>
<path fill="none" stroke="#191970" d="M514.6305,-123.5C529.7965,-123.5 545.5485,-123.5 560.3143,-123.5"/>
<polygon fill="#191970" stroke="#191970" points="560.3598,-127.0001 570.3598,-123.5 560.3598,-120.0001 560.3598,-127.0001"/>
</g>
<!-- Node8&#45;&gt;Node4 -->
<g id="edge9" class="edge">
<title>Node8&#45;&gt;Node4</title>
<path fill="none" stroke="#191970" d="M288.1691,-8.0476C349.7404,-1.772 446.1223,2.3666 526,-19.5 556.6284,-27.8846 587.6153,-47.7933 607.265,-62.1681"/>
<polygon fill="#191970" stroke="#191970" points="605.3566,-65.1121 615.4534,-68.322 609.5621,-59.5162 605.3566,-65.1121"/>
</g>
</g>
</svg>
