<?xml version="1.0" encoding="UTF-8" standalone="no"?>
<!DOCTYPE svg PUBLIC "-//W3C//DTD SVG 1.1//EN"
 "http://www.w3.org/Graphics/SVG/1.1/DTD/svg11.dtd">
<!-- Generated by graphviz version 2.40.1 (20161225.0304)
 -->
<!-- Title: EMCalAna::process_event_SF Pages: 1 -->
<svg width="1016pt" height="608pt"
 viewBox="0.00 0.00 1016.00 608.00" xmlns="http://www.w3.org/2000/svg" xmlns:xlink="http://www.w3.org/1999/xlink">
<g id="graph0" class="graph" transform="scale(1 1) rotate(0) translate(4 604)">
<title>EMCalAna::process_event_SF</title>
<!-- Node1 -->
<g id="node1" class="node">
<title>Node1</title>
<polygon fill="#bfbfbf" stroke="#000000" points="0,-310.5 0,-330.5 164,-330.5 164,-310.5 0,-310.5"/>
<text text-anchor="middle" x="82" y="-317.5" font-family="FreeSans" font-size="10.00" fill="#000000">EMCalAna::process_event_SF</text>
</g>
<!-- Node2 -->
<g id="node2" class="node">
<title>Node2</title>
<g id="a_node2"><a xlink:href="../../d3/d9e/classPHG4Hit.html#a99663034e71d3f324eb878eb0e3b36ba" target="_top" xlink:title="PHG4Hit::get_avg_x">
<polygon fill="none" stroke="#000000" points="234,-579.5 234,-599.5 351,-599.5 351,-579.5 234,-579.5"/>
<text text-anchor="middle" x="292.5" y="-586.5" font-family="FreeSans" font-size="10.00" fill="#000000">PHG4Hit::get_avg_x</text>
</a>
</g>
</g>
<!-- Node1&#45;&gt;Node2 -->
<g id="edge1" class="edge">
<title>Node1&#45;&gt;Node2</title>
<path fill="none" stroke="#191970" d="M83.5038,-330.5867C89.7581,-368.7668 117.366,-505.5434 200,-570.5 207.0234,-576.021 215.248,-580.0524 223.844,-582.9783"/>
<polygon fill="#191970" stroke="#191970" points="223.0834,-586.402 233.6629,-585.8325 225.0374,-579.6802 223.0834,-586.402"/>
</g>
<!-- Node4 -->
<g id="node4" class="node">
<title>Node4</title>
<g id="a_node4"><a xlink:href="../../d3/d9e/classPHG4Hit.html#a880ee4134d36a1b558ec9eed831f376a" target="_top" xlink:title="PHG4Hit::get_avg_y">
<polygon fill="none" stroke="#000000" points="234,-540.5 234,-560.5 351,-560.5 351,-540.5 234,-540.5"/>
<text text-anchor="middle" x="292.5" y="-547.5" font-family="FreeSans" font-size="10.00" fill="#000000">PHG4Hit::get_avg_y</text>
</a>
</g>
</g>
<!-- Node1&#45;&gt;Node4 -->
<g id="edge3" class="edge">
<title>Node1&#45;&gt;Node4</title>
<path fill="none" stroke="#191970" d="M84.5069,-330.9022C93.4443,-365.6044 127.1776,-478.2102 200,-531.5 207.1133,-536.7054 215.3189,-540.5623 223.844,-543.4077"/>
<polygon fill="#191970" stroke="#191970" points="222.9857,-546.8027 233.5639,-546.2083 224.9239,-540.0763 222.9857,-546.8027"/>
</g>
<!-- Node6 -->
<g id="node6" class="node">
<title>Node6</title>
<g id="a_node6"><a xlink:href="../../d3/d9e/classPHG4Hit.html#a7dce2f1e781d7c94af5b27400165d76c" target="_top" xlink:title="PHG4Hit::get_avg_z">
<polygon fill="none" stroke="#000000" points="234.5,-501.5 234.5,-521.5 350.5,-521.5 350.5,-501.5 234.5,-501.5"/>
<text text-anchor="middle" x="292.5" y="-508.5" font-family="FreeSans" font-size="10.00" fill="#000000">PHG4Hit::get_avg_z</text>
</a>
</g>
</g>
<!-- Node1&#45;&gt;Node6 -->
<g id="edge5" class="edge">
<title>Node1&#45;&gt;Node6</title>
<path fill="none" stroke="#191970" d="M85.7554,-330.6582C97.4581,-360.7973 136.3409,-450.2406 200,-492.5 207.3437,-497.375 215.6828,-501.0404 224.2753,-503.7892"/>
<polygon fill="#191970" stroke="#191970" points="223.4716,-507.1986 234.0446,-506.5188 225.3554,-500.4568 223.4716,-507.1986"/>
</g>
<!-- Node8 -->
<g id="node8" class="node">
<title>Node8</title>
<g id="a_node8"><a xlink:href="../../d3/d9e/classPHG4Hit.html#a299edb9d0b140d0456f8bfecdf9cac56" target="_top" xlink:title="PHG4Hit::get_edep">
<polygon fill="none" stroke="#000000" points="236.5,-462.5 236.5,-482.5 348.5,-482.5 348.5,-462.5 236.5,-462.5"/>
<text text-anchor="middle" x="292.5" y="-469.5" font-family="FreeSans" font-size="10.00" fill="#000000">PHG4Hit::get_edep</text>
</a>
</g>
</g>
<!-- Node1&#45;&gt;Node8 -->
<g id="edge7" class="edge">
<title>Node1&#45;&gt;Node8</title>
<path fill="none" stroke="#191970" d="M87.8788,-330.8345C102.9173,-356.2474 145.4731,-422.0015 200,-453.5 208.0274,-458.1372 217.0216,-461.6528 226.1639,-464.316"/>
<polygon fill="#191970" stroke="#191970" points="225.546,-467.7713 236.1036,-466.8842 227.2972,-460.9938 225.546,-467.7713"/>
</g>
<!-- Node9 -->
<g id="node9" class="node">
<title>Node9</title>
<g id="a_node9"><a xlink:href="../../df/d09/classPHG4CylinderCellGeom__Spacalv1.html#aa4804c9b24b55292ff4cc5a691bc61b1" target="_top" xlink:title="PHG4CylinderCellGeom\l_Spacalv1::get_etabin_block">
<polygon fill="none" stroke="#000000" points="212,-411.5 212,-443.5 373,-443.5 373,-411.5 212,-411.5"/>
<text text-anchor="start" x="220" y="-430.5" font-family="FreeSans" font-size="10.00" fill="#000000">PHG4CylinderCellGeom</text>
<text text-anchor="middle" x="292.5" y="-418.5" font-family="FreeSans" font-size="10.00" fill="#000000">_Spacalv1::get_etabin_block</text>
</a>
</g>
</g>
<!-- Node1&#45;&gt;Node9 -->
<g id="edge8" class="edge">
<title>Node1&#45;&gt;Node9</title>
<path fill="none" stroke="#191970" d="M95.1607,-330.5469C116.3072,-346.3187 159.5843,-377.0874 200,-396.5 208.6116,-400.6363 217.919,-404.4549 227.1975,-407.8949"/>
<polygon fill="#191970" stroke="#191970" points="226.2313,-411.2664 236.8259,-411.3402 228.5897,-404.6757 226.2313,-411.2664"/>
</g>
<!-- Node10 -->
<g id="node10" class="node">
<title>Node10</title>
<g id="a_node10"><a xlink:href="../../db/d4b/classEMCalAna.html#ae233191e8f4b750903ff27bf3880160e" target="_top" xlink:title="EMCalAna::get_HistoManager">
<polygon fill="none" stroke="#000000" points="209.5,-333.5 209.5,-353.5 375.5,-353.5 375.5,-333.5 209.5,-333.5"/>
<text text-anchor="middle" x="292.5" y="-340.5" font-family="FreeSans" font-size="10.00" fill="#000000">EMCalAna::get_HistoManager</text>
</a>
</g>
</g>
<!-- Node1&#45;&gt;Node10 -->
<g id="edge9" class="edge">
<title>Node1&#45;&gt;Node10</title>
<path fill="none" stroke="#191970" d="M164.2892,-329.4912C175.705,-330.7385 187.4996,-332.0273 199.0997,-333.2947"/>
<polygon fill="#191970" stroke="#191970" points="198.9082,-336.7946 209.2293,-334.4015 199.6686,-329.836 198.9082,-336.7946"/>
</g>
<!-- Node12 -->
<g id="node12" class="node">
<title>Node12</title>
<g id="a_node12"><a xlink:href="../../d5/dec/classFun4AllBase.html#a8a5c77a92bdac6bc043476e132379a40" target="_top" xlink:title="Gets the verbosity of this module.">
<polygon fill="none" stroke="#000000" points="655.5,-333.5 655.5,-353.5 787.5,-353.5 787.5,-333.5 655.5,-333.5"/>
<text text-anchor="middle" x="721.5" y="-340.5" font-family="FreeSans" font-size="10.00" fill="#000000">Fun4AllBase::Verbosity</text>
</a>
</g>
</g>
<!-- Node1&#45;&gt;Node12 -->
<g id="edge30" class="edge">
<title>Node1&#45;&gt;Node12</title>
<path fill="none" stroke="#191970" d="M102.7004,-330.5666C125.7928,-341.1907 164.5713,-357.2459 200,-363.5 375.9463,-394.559 423.9471,-378.2969 602,-363.5 621.9933,-361.8385 643.6758,-358.639 663.0139,-355.2781"/>
<polygon fill="#191970" stroke="#191970" points="663.6629,-358.7177 672.8913,-353.5132 662.4316,-351.8268 663.6629,-358.7177"/>
</g>
<!-- Node16 -->
<g id="node16" class="node">
<title>Node16</title>
<g id="a_node16"><a xlink:href="../../d3/d9e/classPHG4Hit.html#a58aae50a4a38ecbc38878e98bb71a1c7" target="_top" xlink:title="PHG4Hit::get_light\l_yield">
<polygon fill="none" stroke="#000000" points="237.5,-231.5 237.5,-263.5 347.5,-263.5 347.5,-231.5 237.5,-231.5"/>
<text text-anchor="start" x="245.5" y="-250.5" font-family="FreeSans" font-size="10.00" fill="#000000">PHG4Hit::get_light</text>
<text text-anchor="middle" x="292.5" y="-238.5" font-family="FreeSans" font-size="10.00" fill="#000000">_yield</text>
</a>
</g>
</g>
<!-- Node1&#45;&gt;Node16 -->
<g id="edge16" class="edge">
<title>Node1&#45;&gt;Node16</title>
<path fill="none" stroke="#191970" d="M105.2378,-310.4033C128.8428,-300.3471 166.5821,-284.817 200,-273.5 208.9122,-270.4819 218.3877,-267.5315 227.7456,-264.7656"/>
<polygon fill="#191970" stroke="#191970" points="228.799,-268.1044 237.4265,-261.9548 226.8472,-261.382 228.799,-268.1044"/>
</g>
<!-- Node17 -->
<g id="node17" class="node">
<title>Node17</title>
<g id="a_node17"><a xlink:href="../../d3/d9e/classPHG4Hit.html#a287eb4f89787c2d7e42783454471f8e1" target="_top" xlink:title="PHG4Hit::get_scint_id">
<polygon fill="none" stroke="#000000" points="230,-192.5 230,-212.5 355,-212.5 355,-192.5 230,-192.5"/>
<text text-anchor="middle" x="292.5" y="-199.5" font-family="FreeSans" font-size="10.00" fill="#000000">PHG4Hit::get_scint_id</text>
</a>
</g>
</g>
<!-- Node1&#45;&gt;Node17 -->
<g id="edge17" class="edge">
<title>Node1&#45;&gt;Node17</title>
<path fill="none" stroke="#191970" d="M90.9535,-310.3302C109.2835,-290.1921 153.3093,-245.2274 200,-222.5 206.3985,-219.3854 213.2797,-216.7523 220.2972,-214.5267"/>
<polygon fill="#191970" stroke="#191970" points="221.2882,-217.8836 229.9182,-211.7377 219.3391,-211.1604 221.2882,-217.8836"/>
</g>
<!-- Node18 -->
<g id="node18" class="node">
<title>Node18</title>
<g id="a_node18"><a xlink:href="../../de/d61/classPHG4CylinderGeom__Spacalv3.html#ab2c1e8230a0eb392d993579333fe4fac" target="_top" xlink:title="PHG4CylinderGeom_Spacalv3\l::get_tower_z_phi_ID">
<polygon fill="none" stroke="#000000" points="209,-141.5 209,-173.5 376,-173.5 376,-141.5 209,-141.5"/>
<text text-anchor="start" x="217" y="-160.5" font-family="FreeSans" font-size="10.00" fill="#000000">PHG4CylinderGeom_Spacalv3</text>
<text text-anchor="middle" x="292.5" y="-148.5" font-family="FreeSans" font-size="10.00" fill="#000000">::get_tower_z_phi_ID</text>
</a>
</g>
</g>
<!-- Node1&#45;&gt;Node18 -->
<g id="edge18" class="edge">
<title>Node1&#45;&gt;Node18</title>
<path fill="none" stroke="#191970" d="M87.7202,-310.4692C102.7031,-285.1203 145.7147,-218.0575 200,-183.5 203.3091,-181.3935 206.7908,-179.4545 210.3854,-177.6702"/>
<polygon fill="#191970" stroke="#191970" points="211.8457,-180.8511 219.5193,-173.5459 208.965,-174.4714 211.8457,-180.8511"/>
</g>
<!-- Node24 -->
<g id="node24" class="node">
<title>Node24</title>
<g id="a_node24"><a xlink:href="../../d2/ddb/classPHG4CylinderCellGeomContainer.html#acfd6cde765ecf723b899379bdc5914d6" target="_top" xlink:title="PHG4CylinderCellGeomContainer\l::GetFirstLayerCellGeom">
<polygon fill="none" stroke="#000000" points="200,-90.5 200,-122.5 385,-122.5 385,-90.5 200,-90.5"/>
<text text-anchor="start" x="208" y="-109.5" font-family="FreeSans" font-size="10.00" fill="#000000">PHG4CylinderCellGeomContainer</text>
<text text-anchor="middle" x="292.5" y="-97.5" font-family="FreeSans" font-size="10.00" fill="#000000">::GetFirstLayerCellGeom</text>
</a>
</g>
</g>
<!-- Node1&#45;&gt;Node24 -->
<g id="edge24" class="edge">
<title>Node1&#45;&gt;Node24</title>
<path fill="none" stroke="#191970" d="M85.4613,-310.0842C96.5878,-278.2479 134.5777,-181.4286 200,-132.5 202.3795,-130.7204 204.8757,-129.0626 207.4608,-127.5182"/>
<polygon fill="#191970" stroke="#191970" points="209.3608,-130.4723 216.5526,-122.6923 206.0788,-124.2893 209.3608,-130.4723"/>
</g>
<!-- Node25 -->
<g id="node25" class="node">
<title>Node25</title>
<g id="a_node25"><a xlink:href="../../d4/de7/classPHG4CylinderGeomContainer.html#a0a918b5119bc7ad1666f5a86ee95f45f" target="_top" xlink:title="PHG4CylinderGeomContainer\l::GetFirstLayerGeom">
<polygon fill="none" stroke="#000000" points="209.5,-39.5 209.5,-71.5 375.5,-71.5 375.5,-39.5 209.5,-39.5"/>
<text text-anchor="start" x="217.5" y="-58.5" font-family="FreeSans" font-size="10.00" fill="#000000">PHG4CylinderGeomContainer</text>
<text text-anchor="middle" x="292.5" y="-46.5" font-family="FreeSans" font-size="10.00" fill="#000000">::GetFirstLayerGeom</text>
</a>
</g>
</g>
<!-- Node1&#45;&gt;Node25 -->
<g id="edge25" class="edge">
<title>Node1&#45;&gt;Node25</title>
<path fill="none" stroke="#191970" d="M83.8632,-310.4588C91.2349,-273.6401 121.8649,-144.8435 200,-80.5 201.541,-79.231 203.1407,-78.0261 204.7904,-76.882"/>
<polygon fill="#191970" stroke="#191970" points="206.6771,-79.8311 213.4131,-71.6533 203.0475,-73.8456 206.6771,-79.8311"/>
</g>
<!-- Node26 -->
<g id="node26" class="node">
<title>Node26</title>
<g id="a_node26"><a xlink:href="../../d3/d96/classFun4AllHistoManager.html#ae5401f032b650d41224dfa0e2f12d364" target="_top" xlink:title="Fun4AllHistoManager\l::getHisto">
<polygon fill="none" stroke="#000000" points="230.5,-282.5 230.5,-314.5 354.5,-314.5 354.5,-282.5 230.5,-282.5"/>
<text text-anchor="start" x="238.5" y="-301.5" font-family="FreeSans" font-size="10.00" fill="#000000">Fun4AllHistoManager</text>
<text text-anchor="middle" x="292.5" y="-289.5" font-family="FreeSans" font-size="10.00" fill="#000000">::getHisto</text>
</a>
</g>
</g>
<!-- Node1&#45;&gt;Node26 -->
<g id="edge26" class="edge">
<title>Node1&#45;&gt;Node26</title>
<path fill="none" stroke="#191970" d="M164.2892,-311.8997C182.7862,-309.9665 202.2778,-307.9294 220.3252,-306.0432"/>
<polygon fill="#191970" stroke="#191970" points="220.8935,-309.503 230.4755,-304.9824 220.1658,-302.5409 220.8935,-309.503"/>
</g>
<!-- Node28 -->
<g id="node28" class="node">
<title>Node28</title>
<g id="a_node28"><a xlink:href="../../d4/d30/classPHG4HitContainer.html#aec01041c4b9347f93832704e142b2439" target="_top" xlink:title="return all hits matching a given detid">
<polygon fill="none" stroke="#000000" points="217,-.5 217,-20.5 368,-20.5 368,-.5 217,-.5"/>
<text text-anchor="middle" x="292.5" y="-7.5" font-family="FreeSans" font-size="10.00" fill="#000000">PHG4HitContainer::getHits</text>
</a>
</g>
</g>
<!-- Node1&#45;&gt;Node28 -->
<g id="edge29" class="edge">
<title>Node1&#45;&gt;Node28</title>
<path fill="none" stroke="#191970" d="M82.7945,-310.2779C86.6445,-268.1709 107.183,-106.743 200,-29.5 202.4415,-27.4681 205.0433,-25.635 207.7672,-23.9822"/>
<polygon fill="#191970" stroke="#191970" points="209.5589,-26.996 216.8345,-19.2943 206.3441,-20.7778 209.5589,-26.996"/>
</g>
<!-- Node3 -->
<g id="node3" class="node">
<title>Node3</title>
<g id="a_node3"><a xlink:href="../../d3/d9e/classPHG4Hit.html#a69cc7aee827e3da7cf86e87418f9211b" target="_top" xlink:title="PHG4Hit::get_x">
<polygon fill="none" stroke="#000000" points="465,-579.5 465,-599.5 558,-599.5 558,-579.5 465,-579.5"/>
<text text-anchor="middle" x="511.5" y="-586.5" font-family="FreeSans" font-size="10.00" fill="#000000">PHG4Hit::get_x</text>
</a>
</g>
</g>
<!-- Node2&#45;&gt;Node3 -->
<g id="edge2" class="edge">
<title>Node2&#45;&gt;Node3</title>
<path fill="none" stroke="#191970" d="M351.188,-589.5C383.3139,-589.5 422.9375,-589.5 454.7536,-589.5"/>
<polygon fill="#191970" stroke="#191970" points="454.7898,-593.0001 464.7897,-589.5 454.7897,-586.0001 454.7898,-593.0001"/>
</g>
<!-- Node5 -->
<g id="node5" class="node">
<title>Node5</title>
<g id="a_node5"><a xlink:href="../../d3/d9e/classPHG4Hit.html#a17de3a9c9dc84ce4a50fc89082689d55" target="_top" xlink:title="PHG4Hit::get_y">
<polygon fill="none" stroke="#000000" points="465,-540.5 465,-560.5 558,-560.5 558,-540.5 465,-540.5"/>
<text text-anchor="middle" x="511.5" y="-547.5" font-family="FreeSans" font-size="10.00" fill="#000000">PHG4Hit::get_y</text>
</a>
</g>
</g>
<!-- Node4&#45;&gt;Node5 -->
<g id="edge4" class="edge">
<title>Node4&#45;&gt;Node5</title>
<path fill="none" stroke="#191970" d="M351.188,-550.5C383.3139,-550.5 422.9375,-550.5 454.7536,-550.5"/>
<polygon fill="#191970" stroke="#191970" points="454.7898,-554.0001 464.7897,-550.5 454.7897,-547.0001 454.7898,-554.0001"/>
</g>
<!-- Node7 -->
<g id="node7" class="node">
<title>Node7</title>
<g id="a_node7"><a xlink:href="../../d3/d9e/classPHG4Hit.html#a06fcf6b2cbcc8413ca3d6a172458e94e" target="_top" xlink:title="PHG4Hit::get_z">
<polygon fill="none" stroke="#000000" points="465.5,-501.5 465.5,-521.5 557.5,-521.5 557.5,-501.5 465.5,-501.5"/>
<text text-anchor="middle" x="511.5" y="-508.5" font-family="FreeSans" font-size="10.00" fill="#000000">PHG4Hit::get_z</text>
</a>
</g>
</g>
<!-- Node6&#45;&gt;Node7 -->
<g id="edge6" class="edge">
<title>Node6&#45;&gt;Node7</title>
<path fill="none" stroke="#191970" d="M350.613,-511.5C382.9722,-511.5 423.0746,-511.5 455.1467,-511.5"/>
<polygon fill="#191970" stroke="#191970" points="455.2576,-515.0001 465.2575,-511.5 455.2575,-508.0001 455.2576,-515.0001"/>
</g>
<!-- Node11 -->
<g id="node11" class="node">
<title>Node11</title>
<g id="a_node11"><a xlink:href="../../da/d29/classFun4AllServer.html#af5885837658eb26f98dbc697b58747a7" target="_top" xlink:title="Fun4AllServer::getHistoManager">
<polygon fill="none" stroke="#000000" points="421,-333.5 421,-353.5 602,-353.5 602,-333.5 421,-333.5"/>
<text text-anchor="middle" x="511.5" y="-340.5" font-family="FreeSans" font-size="10.00" fill="#000000">Fun4AllServer::getHistoManager</text>
</a>
</g>
</g>
<!-- Node10&#45;&gt;Node11 -->
<g id="edge10" class="edge">
<title>Node10&#45;&gt;Node11</title>
<path fill="none" stroke="#191970" d="M375.6068,-343.5C387.0245,-343.5 398.8494,-343.5 410.5435,-343.5"/>
<polygon fill="#191970" stroke="#191970" points="410.773,-347.0001 420.773,-343.5 410.773,-340.0001 410.773,-347.0001"/>
</g>
<!-- Node13 -->
<g id="node13" class="node">
<title>Node13</title>
<g id="a_node13"><a xlink:href="../../da/d29/classFun4AllServer.html#a3e55156f91b2c94bb6c4ef33ffce587a" target="_top" xlink:title="Fun4AllServer::instance">
<polygon fill="none" stroke="#000000" points="443.5,-243.5 443.5,-263.5 579.5,-263.5 579.5,-243.5 443.5,-243.5"/>
<text text-anchor="middle" x="511.5" y="-250.5" font-family="FreeSans" font-size="10.00" fill="#000000">Fun4AllServer::instance</text>
</a>
</g>
</g>
<!-- Node10&#45;&gt;Node13 -->
<g id="edge12" class="edge">
<title>Node10&#45;&gt;Node13</title>
<path fill="none" stroke="#191970" d="M367.2107,-333.4146C373.4814,-331.0225 379.5124,-328.0903 385,-324.5 408.2173,-309.31 397.8966,-288.8627 421,-273.5 425.0574,-270.802 429.4212,-268.4625 433.962,-266.4343"/>
<polygon fill="#191970" stroke="#191970" points="435.461,-269.606 443.4902,-262.6935 432.9028,-263.0902 435.461,-269.606"/>
</g>
<!-- Node14 -->
<g id="node14" class="node">
<title>Node14</title>
<g id="a_node14"><a xlink:href="../../da/d29/classFun4AllServer.html#a377f113767f24ce6413e678752ed7f53" target="_top" xlink:title="Fun4AllServer::registerHisto\lManager">
<polygon fill="none" stroke="#000000" points="432.5,-282.5 432.5,-314.5 590.5,-314.5 590.5,-282.5 432.5,-282.5"/>
<text text-anchor="start" x="440.5" y="-301.5" font-family="FreeSans" font-size="10.00" fill="#000000">Fun4AllServer::registerHisto</text>
<text text-anchor="middle" x="511.5" y="-289.5" font-family="FreeSans" font-size="10.00" fill="#000000">Manager</text>
</a>
</g>
</g>
<!-- Node10&#45;&gt;Node14 -->
<g id="edge13" class="edge">
<title>Node10&#45;&gt;Node14</title>
<path fill="none" stroke="#191970" d="M341.4658,-333.4433C355.5219,-330.5562 370.8682,-327.4036 385,-324.5 397.5132,-321.9289 410.7227,-319.2144 423.6985,-316.5476"/>
<polygon fill="#191970" stroke="#191970" points="424.4697,-319.9624 433.5603,-314.5208 423.0604,-313.1057 424.4697,-319.9624"/>
</g>
<!-- Node11&#45;&gt;Node12 -->
<g id="edge11" class="edge">
<title>Node11&#45;&gt;Node12</title>
<path fill="none" stroke="#191970" d="M602.0826,-343.5C616.4643,-343.5 631.2138,-343.5 645.2241,-343.5"/>
<polygon fill="#191970" stroke="#191970" points="645.2794,-347.0001 655.2793,-343.5 645.2793,-340.0001 645.2794,-347.0001"/>
</g>
<!-- Node14&#45;&gt;Node12 -->
<g id="edge15" class="edge">
<title>Node14&#45;&gt;Node12</title>
<path fill="none" stroke="#191970" d="M586.4254,-314.5555C612.1922,-320.0769 640.5979,-326.1638 664.6841,-331.3252"/>
<polygon fill="#191970" stroke="#191970" points="664.2106,-334.8031 674.722,-333.4761 665.6774,-327.9585 664.2106,-334.8031"/>
</g>
<!-- Node15 -->
<g id="node15" class="node">
<title>Node15</title>
<g id="a_node15"><a xlink:href="../../d5/dec/classFun4AllBase.html#a41f9ac377743d046f590617fd6f4f0ed" target="_top" xlink:title="Returns the name of this module.">
<polygon fill="none" stroke="#000000" points="664,-243.5 664,-263.5 779,-263.5 779,-243.5 664,-243.5"/>
<text text-anchor="middle" x="721.5" y="-250.5" font-family="FreeSans" font-size="10.00" fill="#000000">Fun4AllBase::Name</text>
</a>
</g>
</g>
<!-- Node14&#45;&gt;Node15 -->
<g id="edge14" class="edge">
<title>Node14&#45;&gt;Node15</title>
<path fill="none" stroke="#191970" d="M586.4254,-282.4445C612.1922,-276.9231 640.5979,-270.8362 664.6841,-265.6748"/>
<polygon fill="#191970" stroke="#191970" points="665.6774,-269.0415 674.722,-263.5239 664.2106,-262.1969 665.6774,-269.0415"/>
</g>
<!-- Node19 -->
<g id="node19" class="node">
<title>Node19</title>
<g id="a_node19"><a xlink:href="../../d2/da2/classPHG4CylinderGeom__Spacalv1.html#a1f716c0e178a97bfdb656c1e9d0b55c9" target="_top" xlink:title="PHG4CylinderGeom_Spacalv1\l::get_config">
<polygon fill="none" stroke="#000000" points="428,-141.5 428,-173.5 595,-173.5 595,-141.5 428,-141.5"/>
<text text-anchor="start" x="436" y="-160.5" font-family="FreeSans" font-size="10.00" fill="#000000">PHG4CylinderGeom_Spacalv1</text>
<text text-anchor="middle" x="511.5" y="-148.5" font-family="FreeSans" font-size="10.00" fill="#000000">::get_config</text>
</a>
</g>
</g>
<!-- Node18&#45;&gt;Node19 -->
<g id="edge19" class="edge">
<title>Node18&#45;&gt;Node19</title>
<path fill="none" stroke="#191970" d="M376.2319,-157.5C389.7032,-157.5 403.7262,-157.5 417.4207,-157.5"/>
<polygon fill="#191970" stroke="#191970" points="417.8145,-161.0001 427.8145,-157.5 417.8145,-154.0001 417.8145,-161.0001"/>
</g>
<!-- Node20 -->
<g id="node20" class="node">
<title>Node20</title>
<g id="a_node20"><a xlink:href="../../de/d61/classPHG4CylinderGeom__Spacalv3.html#aba7c905f0fdacb1830781ea2ab74f2d1" target="_top" xlink:title="PHG4CylinderGeom_Spacalv3\l::Print">
<polygon fill="none" stroke="#000000" points="428,-90.5 428,-122.5 595,-122.5 595,-90.5 428,-90.5"/>
<text text-anchor="start" x="436" y="-109.5" font-family="FreeSans" font-size="10.00" fill="#000000">PHG4CylinderGeom_Spacalv3</text>
<text text-anchor="middle" x="511.5" y="-97.5" font-family="FreeSans" font-size="10.00" fill="#000000">::Print</text>
</a>
</g>
</g>
<!-- Node18&#45;&gt;Node20 -->
<g id="edge20" class="edge">
<title>Node18&#45;&gt;Node20</title>
<path fill="none" stroke="#191970" d="M361.4924,-141.4333C384.0916,-136.1704 409.3706,-130.2835 432.6416,-124.8643"/>
<polygon fill="#191970" stroke="#191970" points="433.5327,-128.2505 442.4783,-122.5736 431.945,-121.4329 433.5327,-128.2505"/>
</g>
<!-- Node21 -->
<g id="node21" class="node">
<title>Node21</title>
<g id="a_node21"><a xlink:href="../../db/d5f/classPHG4CylinderGeom__Spacalv2.html#a83a50d9b62827f465e2014d1c921a15a" target="_top" xlink:title="PHG4CylinderGeom_Spacalv2\l::Print">
<polygon fill="none" stroke="#000000" points="638,-113.5 638,-145.5 805,-145.5 805,-113.5 638,-113.5"/>
<text text-anchor="start" x="646" y="-132.5" font-family="FreeSans" font-size="10.00" fill="#000000">PHG4CylinderGeom_Spacalv2</text>
<text text-anchor="middle" x="721.5" y="-120.5" font-family="FreeSans" font-size="10.00" fill="#000000">::Print</text>
</a>
</g>
</g>
<!-- Node20&#45;&gt;Node21 -->
<g id="edge21" class="edge">
<title>Node20&#45;&gt;Node21</title>
<path fill="none" stroke="#191970" d="M595.101,-115.6563C605.8723,-116.836 616.9574,-118.0501 627.8764,-119.246"/>
<polygon fill="#191970" stroke="#191970" points="627.522,-122.728 637.8436,-120.3376 628.2841,-115.7696 627.522,-122.728"/>
</g>
<!-- Node23 -->
<g id="node23" class="node">
<title>Node23</title>
<g id="a_node23"><a xlink:href="../../d0/d1f/classEventiterator.html#aca55e3fae164615c2986bb1181aa0c54" target="_top" xlink:title="Eventiterator::identify">
<polygon fill="none" stroke="#000000" points="658,-74.5 658,-94.5 785,-94.5 785,-74.5 658,-74.5"/>
<text text-anchor="middle" x="721.5" y="-81.5" font-family="FreeSans" font-size="10.00" fill="#000000">Eventiterator::identify</text>
</a>
</g>
</g>
<!-- Node20&#45;&gt;Node23 -->
<g id="edge23" class="edge">
<title>Node20&#45;&gt;Node23</title>
<path fill="none" stroke="#191970" d="M595.101,-97.7418C612.4348,-95.9259 630.5812,-94.0248 647.5405,-92.2481"/>
<polygon fill="#191970" stroke="#191970" points="648.3479,-95.6828 657.9288,-91.1598 647.6185,-88.7209 648.3479,-95.6828"/>
</g>
<!-- Node22 -->
<g id="node22" class="node">
<title>Node22</title>
<g id="a_node22"><a xlink:href="../../d2/da2/classPHG4CylinderGeom__Spacalv1.html#a1cdcc10ac6ac29063e200bbff1e4c079" target="_top" xlink:title="PHG4CylinderGeom_Spacalv1\l::Print">
<polygon fill="none" stroke="#000000" points="841,-113.5 841,-145.5 1008,-145.5 1008,-113.5 841,-113.5"/>
<text text-anchor="start" x="849" y="-132.5" font-family="FreeSans" font-size="10.00" fill="#000000">PHG4CylinderGeom_Spacalv1</text>
<text text-anchor="middle" x="924.5" y="-120.5" font-family="FreeSans" font-size="10.00" fill="#000000">::Print</text>
</a>
</g>
</g>
<!-- Node21&#45;&gt;Node22 -->
<g id="edge22" class="edge">
<title>Node21&#45;&gt;Node22</title>
<path fill="none" stroke="#191970" d="M805.2399,-129.5C813.7178,-129.5 822.3663,-129.5 830.9388,-129.5"/>
<polygon fill="#191970" stroke="#191970" points="830.9526,-133.0001 840.9526,-129.5 830.9525,-126.0001 830.9526,-133.0001"/>
</g>
<!-- Node27 -->
<g id="node27" class="node">
<title>Node27</title>
<g id="a_node27"><a xlink:href="../../d3/d96/classFun4AllHistoManager.html#ac920f5943d99ae803f4bf8a7a88c31da" target="_top" xlink:title="Fun4AllHistoManager\l::Print">
<polygon fill="none" stroke="#000000" points="449.5,-192.5 449.5,-224.5 573.5,-224.5 573.5,-192.5 449.5,-192.5"/>
<text text-anchor="start" x="457.5" y="-211.5" font-family="FreeSans" font-size="10.00" fill="#000000">Fun4AllHistoManager</text>
<text text-anchor="middle" x="511.5" y="-199.5" font-family="FreeSans" font-size="10.00" fill="#000000">::Print</text>
</a>
</g>
</g>
<!-- Node26&#45;&gt;Node27 -->
<g id="edge27" class="edge">
<title>Node26&#45;&gt;Node27</title>
<path fill="none" stroke="#191970" d="M354.694,-286.8728C365.2366,-283.4718 375.7518,-279.1025 385,-273.5 405.1757,-261.2776 400.9215,-246.8813 421,-234.5 426.7963,-230.9258 433.1024,-227.8263 439.5991,-225.1418"/>
<polygon fill="#191970" stroke="#191970" points="441.105,-228.3141 449.2165,-221.4985 438.6251,-221.768 441.105,-228.3141"/>
</g>
<!-- Node27&#45;&gt;Node15 -->
<g id="edge28" class="edge">
<title>Node27&#45;&gt;Node15</title>
<path fill="none" stroke="#191970" d="M573.6546,-221.8188C602.4149,-227.9818 636.3519,-235.254 664.4529,-241.2756"/>
<polygon fill="#191970" stroke="#191970" points="664.0101,-244.7601 674.5215,-243.4332 665.4769,-237.9155 664.0101,-244.7601"/>
</g>
</g>
</svg>
