<?xml version="1.0" encoding="UTF-8" standalone="no"?>
<!DOCTYPE svg PUBLIC "-//W3C//DTD SVG 1.1//EN"
 "http://www.w3.org/Graphics/SVG/1.1/DTD/svg11.dtd">
<!-- Generated by graphviz version 2.40.1 (20161225.0304)
 -->
<!-- Title: PHG4Detector::ConstructMe Pages: 1 -->
<svg width="504pt" height="41pt"
 viewBox="0.00 0.00 504.00 41.00" xmlns="http://www.w3.org/2000/svg" xmlns:xlink="http://www.w3.org/1999/xlink">
<g id="graph0" class="graph" transform="scale(1 1) rotate(0) translate(4 37)">
<title>PHG4Detector::ConstructMe</title>
<!-- Node1 -->
<g id="node1" class="node">
<title>Node1</title>
<polygon fill="#bfbfbf" stroke="#000000" points="0,-6.5 0,-26.5 158,-26.5 158,-6.5 0,-6.5"/>
<text text-anchor="middle" x="79" y="-13.5" font-family="FreeSans" font-size="10.00" fill="#000000">PHG4Detector::ConstructMe</text>
</g>
<!-- Node2 -->
<g id="node2" class="node">
<title>Node2</title>
<g id="a_node2"><a xlink:href="../../d3/de7/classPHG4Detector.html#ab6b6eba8cf9c56ed03ad852326f0a5bb" target="_top" xlink:title="construct method">
<polygon fill="none" stroke="#000000" points="194,-6.5 194,-26.5 338,-26.5 338,-6.5 194,-6.5"/>
<text text-anchor="middle" x="266" y="-13.5" font-family="FreeSans" font-size="10.00" fill="#000000">PHG4Detector::Construct</text>
</a>
</g>
</g>
<!-- Node1&#45;&gt;Node2 -->
<g id="edge1" class="edge">
<title>Node1&#45;&gt;Node2</title>
<path fill="none" stroke="#191970" d="M168.1004,-16.5C176.71,-16.5 185.3696,-16.5 193.7861,-16.5"/>
<polygon fill="#191970" stroke="#191970" points="168.0338,-13.0001 158.0338,-16.5 168.0338,-20.0001 168.0338,-13.0001"/>
</g>
<!-- Node3 -->
<g id="node3" class="node">
<title>Node3</title>
<g id="a_node3"><a xlink:href="../../d1/d13/classPHG4PhenixDetector.html#a7ced94537389e83dbea5c2024ec617c5" target="_top" xlink:title="this is called by geant to actually construct all detectors">
<polygon fill="none" stroke="#000000" points="374,-.5 374,-32.5 496,-32.5 496,-.5 374,-.5"/>
<text text-anchor="start" x="382" y="-19.5" font-family="FreeSans" font-size="10.00" fill="#000000">PHG4PhenixDetector</text>
<text text-anchor="middle" x="435" y="-7.5" font-family="FreeSans" font-size="10.00" fill="#000000">::Construct</text>
</a>
</g>
</g>
<!-- Node2&#45;&gt;Node3 -->
<g id="edge2" class="edge">
<title>Node2&#45;&gt;Node3</title>
<path fill="none" stroke="#191970" d="M348.2869,-16.5C356.9429,-16.5 365.63,-16.5 373.9843,-16.5"/>
<polygon fill="#191970" stroke="#191970" points="348.1615,-13.0001 338.1614,-16.5 348.1614,-20.0001 348.1615,-13.0001"/>
</g>
</g>
</svg>
