<?xml version="1.0" encoding="UTF-8" standalone="no"?>
<!DOCTYPE svg PUBLIC "-//W3C//DTD SVG 1.1//EN"
 "http://www.w3.org/Graphics/SVG/1.1/DTD/svg11.dtd">
<!-- Generated by graphviz version 2.40.1 (20161225.0304)
 -->
<!-- Title: PHParameterContainerInterface::get_double_param Pages: 1 -->
<svg width="370pt" height="143pt"
 viewBox="0.00 0.00 370.00 143.00" xmlns="http://www.w3.org/2000/svg" xmlns:xlink="http://www.w3.org/1999/xlink">
<g id="graph0" class="graph" transform="scale(1 1) rotate(0) translate(4 139)">
<title>PHParameterContainerInterface::get_double_param</title>
<!-- Node1 -->
<g id="node1" class="node">
<title>Node1</title>
<polygon fill="#bfbfbf" stroke="#000000" points="0,-51.5 0,-83.5 176,-83.5 176,-51.5 0,-51.5"/>
<text text-anchor="start" x="8" y="-70.5" font-family="FreeSans" font-size="10.00" fill="#000000">PHParameterContainerInterface</text>
<text text-anchor="middle" x="88" y="-58.5" font-family="FreeSans" font-size="10.00" fill="#000000">::get_double_param</text>
</g>
<!-- Node2 -->
<g id="node2" class="node">
<title>Node2</title>
<g id="a_node2"><a xlink:href="../../dd/dae/classPHParameters.html#aa61ce249b94375d9af4482c36a1308cf" target="_top" xlink:title="PHParameters::get_double\l_param">
<polygon fill="none" stroke="#000000" points="212,-102.5 212,-134.5 362,-134.5 362,-102.5 212,-102.5"/>
<text text-anchor="start" x="220" y="-121.5" font-family="FreeSans" font-size="10.00" fill="#000000">PHParameters::get_double</text>
<text text-anchor="middle" x="287" y="-109.5" font-family="FreeSans" font-size="10.00" fill="#000000">_param</text>
</a>
</g>
</g>
<!-- Node1&#45;&gt;Node2 -->
<g id="edge1" class="edge">
<title>Node1&#45;&gt;Node2</title>
<path fill="none" stroke="#191970" d="M150.6917,-83.5667C170.9521,-88.7591 193.5827,-94.5589 214.4927,-99.9177"/>
<polygon fill="#191970" stroke="#191970" points="213.7258,-103.3342 224.2816,-102.4264 215.4636,-96.5534 213.7258,-103.3342"/>
</g>
<!-- Node3 -->
<g id="node3" class="node">
<title>Node3</title>
<g id="a_node3"><a xlink:href="../../d7/d6b/classPHParametersContainer.html#ab3e63b8b945b61000299f853eb6cb110" target="_top" xlink:title="PHParametersContainer\l::GetParameters">
<polygon fill="none" stroke="#000000" points="218.5,-51.5 218.5,-83.5 355.5,-83.5 355.5,-51.5 218.5,-51.5"/>
<text text-anchor="start" x="226.5" y="-70.5" font-family="FreeSans" font-size="10.00" fill="#000000">PHParametersContainer</text>
<text text-anchor="middle" x="287" y="-58.5" font-family="FreeSans" font-size="10.00" fill="#000000">::GetParameters</text>
</a>
</g>
</g>
<!-- Node1&#45;&gt;Node3 -->
<g id="edge2" class="edge">
<title>Node1&#45;&gt;Node3</title>
<path fill="none" stroke="#191970" d="M176.1533,-67.5C186.868,-67.5 197.7605,-67.5 208.3251,-67.5"/>
<polygon fill="#191970" stroke="#191970" points="208.337,-71.0001 218.337,-67.5 208.337,-64.0001 208.337,-71.0001"/>
</g>
<!-- Node4 -->
<g id="node4" class="node">
<title>Node4</title>
<g id="a_node4"><a xlink:href="../../d7/d6b/classPHParametersContainer.html#a5f90d78420cb8573142c8a4d1c029799" target="_top" xlink:title="PHParametersContainer\l::Name">
<polygon fill="none" stroke="#000000" points="218.5,-.5 218.5,-32.5 355.5,-32.5 355.5,-.5 218.5,-.5"/>
<text text-anchor="start" x="226.5" y="-19.5" font-family="FreeSans" font-size="10.00" fill="#000000">PHParametersContainer</text>
<text text-anchor="middle" x="287" y="-7.5" font-family="FreeSans" font-size="10.00" fill="#000000">::Name</text>
</a>
</g>
</g>
<!-- Node1&#45;&gt;Node4 -->
<g id="edge3" class="edge">
<title>Node1&#45;&gt;Node4</title>
<path fill="none" stroke="#191970" d="M150.6917,-51.4333C170.9521,-46.2409 193.5827,-40.4411 214.4927,-35.0823"/>
<polygon fill="#191970" stroke="#191970" points="215.4636,-38.4466 224.2816,-32.5736 213.7258,-31.6658 215.4636,-38.4466"/>
</g>
</g>
</svg>
