<?xml version="1.0" encoding="UTF-8" standalone="no"?>
<!DOCTYPE svg PUBLIC "-//W3C//DTD SVG 1.1//EN"
 "http://www.w3.org/Graphics/SVG/1.1/DTD/svg11.dtd">
<!-- Generated by graphviz version 2.40.1 (20161225.0304)
 -->
<!-- Title: PHHepMCGenEventMap::insert_active_event Pages: 1 -->
<svg width="395pt" height="80pt"
 viewBox="0.00 0.00 395.00 80.00" xmlns="http://www.w3.org/2000/svg" xmlns:xlink="http://www.w3.org/1999/xlink">
<g id="graph0" class="graph" transform="scale(1 1) rotate(0) translate(4 76)">
<title>PHHepMCGenEventMap::insert_active_event</title>
<!-- Node1 -->
<g id="node1" class="node">
<title>Node1</title>
<polygon fill="#bfbfbf" stroke="#000000" points="0,-16.5 0,-48.5 137,-48.5 137,-16.5 0,-16.5"/>
<text text-anchor="start" x="8" y="-35.5" font-family="FreeSans" font-size="10.00" fill="#000000">PHHepMCGenEventMap</text>
<text text-anchor="middle" x="68.5" y="-23.5" font-family="FreeSans" font-size="10.00" fill="#000000">::insert_active_event</text>
</g>
<!-- Node2 -->
<g id="node2" class="node">
<title>Node2</title>
<g id="a_node2"><a xlink:href="../../d5/d41/classPHHepMCGenEventMap.html#a5270a36f110c2a8d36d2f0a68a0f0219" target="_top" xlink:title="insert a event of interest, e.g. jetty event from pythia">
<polygon fill="none" stroke="#000000" points="211.5,-39.5 211.5,-71.5 348.5,-71.5 348.5,-39.5 211.5,-39.5"/>
<text text-anchor="start" x="219.5" y="-58.5" font-family="FreeSans" font-size="10.00" fill="#000000">PHHepMCGenEventMap</text>
<text text-anchor="middle" x="280" y="-46.5" font-family="FreeSans" font-size="10.00" fill="#000000">::insert</text>
</a>
</g>
</g>
<!-- Node1&#45;&gt;Node2 -->
<g id="edge1" class="edge">
<title>Node1&#45;&gt;Node2</title>
<path fill="none" stroke="#191970" d="M147.3463,-41.0743C168.3607,-43.3596 190.8934,-45.8099 211.3149,-48.0307"/>
<polygon fill="#191970" stroke="#191970" points="147.4878,-37.5691 137.168,-39.9674 146.731,-44.5281 147.4878,-37.5691"/>
</g>
<!-- Node3 -->
<g id="node3" class="node">
<title>Node3</title>
<g id="a_node3"><a xlink:href="../../de/d99/classFun4AllHepMCPileupInputManager.html#a81bf2b69c3c4d3aae0aadebafe1c2c2e" target="_top" xlink:title="Fun4AllHepMCPileupInputManager::run">
<polygon fill="none" stroke="#000000" points="173,-.5 173,-20.5 387,-20.5 387,-.5 173,-.5"/>
<text text-anchor="middle" x="280" y="-7.5" font-family="FreeSans" font-size="10.00" fill="#000000">Fun4AllHepMCPileupInputManager::run</text>
</a>
</g>
</g>
<!-- Node1&#45;&gt;Node3 -->
<g id="edge2" class="edge">
<title>Node1&#45;&gt;Node3</title>
<path fill="none" stroke="#191970" d="M147.4074,-24.2921C159.2176,-23.0637 171.5062,-21.7854 183.6291,-20.5244"/>
<polygon fill="#191970" stroke="#191970" points="146.7522,-20.8413 137.168,-25.3572 147.4765,-27.8038 146.7522,-20.8413"/>
</g>
</g>
</svg>
