<?xml version="1.0" encoding="UTF-8" standalone="no"?>
<!DOCTYPE svg PUBLIC "-//W3C//DTD SVG 1.1//EN"
 "http://www.w3.org/Graphics/SVG/1.1/DTD/svg11.dtd">
<!-- Generated by graphviz version 2.40.1 (20161225.0304)
 -->
<!-- Title: PHG4InputFilter Pages: 1 -->
<svg width="104pt" height="143pt"
 viewBox="0.00 0.00 104.00 143.00" xmlns="http://www.w3.org/2000/svg" xmlns:xlink="http://www.w3.org/1999/xlink">
<g id="graph0" class="graph" transform="scale(1 1) rotate(0) translate(4 139)">
<title>PHG4InputFilter</title>
<!-- Node1 -->
<g id="node1" class="node">
<title>Node1</title>
<polygon fill="#bfbfbf" stroke="#000000" points="0,-.5 0,-20.5 96,-20.5 96,-.5 0,-.5"/>
<text text-anchor="middle" x="48" y="-7.5" font-family="FreeSans" font-size="10.00" fill="#000000">PHG4InputFilter</text>
</g>
<!-- Node2 -->
<g id="node2" class="node">
<title>Node2</title>
<g id="a_node2"><a xlink:href="../../d0/d32/classSubsysReco.html" target="_top" xlink:title="SubsysReco">
<polygon fill="none" stroke="#000000" points="10,-57.5 10,-77.5 86,-77.5 86,-57.5 10,-57.5"/>
<text text-anchor="middle" x="48" y="-64.5" font-family="FreeSans" font-size="10.00" fill="#000000">SubsysReco</text>
</a>
</g>
</g>
<!-- Node2&#45;&gt;Node1 -->
<g id="edge1" class="edge">
<title>Node2&#45;&gt;Node1</title>
<path fill="none" stroke="#191970" d="M48,-47.1771C48,-38.1625 48,-27.9556 48,-20.6022"/>
<polygon fill="#191970" stroke="#191970" points="44.5001,-47.3095 48,-57.3095 51.5001,-47.3096 44.5001,-47.3095"/>
</g>
<!-- Node3 -->
<g id="node3" class="node">
<title>Node3</title>
<g id="a_node3"><a xlink:href="../../d5/dec/classFun4AllBase.html" target="_top" xlink:title="Fun4AllBase">
<polygon fill="none" stroke="#000000" points="9,-114.5 9,-134.5 87,-134.5 87,-114.5 9,-114.5"/>
<text text-anchor="middle" x="48" y="-121.5" font-family="FreeSans" font-size="10.00" fill="#000000">Fun4AllBase</text>
</a>
</g>
</g>
<!-- Node3&#45;&gt;Node2 -->
<g id="edge2" class="edge">
<title>Node3&#45;&gt;Node2</title>
<path fill="none" stroke="#191970" d="M48,-104.1771C48,-95.1625 48,-84.9556 48,-77.6022"/>
<polygon fill="#191970" stroke="#191970" points="44.5001,-104.3095 48,-114.3095 51.5001,-104.3096 44.5001,-104.3095"/>
</g>
</g>
</svg>
