<?xml version="1.0" encoding="UTF-8" standalone="no"?>
<!DOCTYPE svg PUBLIC "-//W3C//DTD SVG 1.1//EN"
 "http://www.w3.org/Graphics/SVG/1.1/DTD/svg11.dtd">
<!-- Generated by graphviz version 2.40.1 (20161225.0304)
 -->
<!-- Title: coresoftware/blob/master/offline/packages/Half/halfLimits.h Pages: 1 -->
<svg width="154pt" height="167pt"
 viewBox="0.00 0.00 154.00 167.00" xmlns="http://www.w3.org/2000/svg" xmlns:xlink="http://www.w3.org/1999/xlink">
<g id="graph0" class="graph" transform="scale(1 1) rotate(0) translate(4 163)">
<title>coresoftware/blob/master/offline/packages/Half/halfLimits.h</title>
<!-- Node1 -->
<g id="node1" class="node">
<title>Node1</title>
<polygon fill="#bfbfbf" stroke="#000000" points="0,-114.5 0,-158.5 146,-158.5 146,-114.5 0,-114.5"/>
<text text-anchor="start" x="8" y="-145.5" font-family="FreeSans" font-size="10.00" fill="#000000">coresoftware/blob/master</text>
<text text-anchor="start" x="8" y="-133.5" font-family="FreeSans" font-size="10.00" fill="#000000">/offline/packages/Half</text>
<text text-anchor="middle" x="73" y="-121.5" font-family="FreeSans" font-size="10.00" fill="#000000">/halfLimits.h</text>
</g>
<!-- Node2 -->
<g id="node2" class="node">
<title>Node2</title>
<polygon fill="none" stroke="#bfbfbf" points="20,-57.5 20,-77.5 64,-77.5 64,-57.5 20,-57.5"/>
<text text-anchor="middle" x="42" y="-64.5" font-family="FreeSans" font-size="10.00" fill="#000000">limits</text>
</g>
<!-- Node1&#45;&gt;Node2 -->
<g id="edge1" class="edge">
<title>Node1&#45;&gt;Node2</title>
<path fill="none" stroke="#191970" d="M63.0208,-114.2882C59.0516,-105.4535 54.5268,-95.3823 50.6946,-86.8525"/>
<polygon fill="#191970" stroke="#191970" points="53.8796,-85.401 46.5888,-77.7137 47.4944,-88.2697 53.8796,-85.401"/>
</g>
<!-- Node3 -->
<g id="node3" class="node">
<title>Node3</title>
<g id="a_node3"><a xlink:href="../../d8/dd3/half_8h.html" target="_top" xlink:title="half.h">
<polygon fill="none" stroke="#000000" points="82,-57.5 82,-77.5 126,-77.5 126,-57.5 82,-57.5"/>
<text text-anchor="middle" x="104" y="-64.5" font-family="FreeSans" font-size="10.00" fill="#000000">half.h</text>
</a>
</g>
</g>
<!-- Node1&#45;&gt;Node3 -->
<g id="edge2" class="edge">
<title>Node1&#45;&gt;Node3</title>
<path fill="none" stroke="#191970" d="M82.9792,-114.2882C86.9484,-105.4535 91.4732,-95.3823 95.3054,-86.8525"/>
<polygon fill="#191970" stroke="#191970" points="98.5056,-88.2697 99.4112,-77.7137 92.1204,-85.401 98.5056,-88.2697"/>
</g>
<!-- Node4 -->
<g id="node4" class="node">
<title>Node4</title>
<polygon fill="none" stroke="#bfbfbf" points="74,-.5 74,-20.5 134,-20.5 134,-.5 74,-.5"/>
<text text-anchor="middle" x="104" y="-7.5" font-family="FreeSans" font-size="10.00" fill="#000000">iostream</text>
</g>
<!-- Node3&#45;&gt;Node4 -->
<g id="edge3" class="edge">
<title>Node3&#45;&gt;Node4</title>
<path fill="none" stroke="#191970" d="M104,-57.3095C104,-49.9335 104,-39.72 104,-30.715"/>
<polygon fill="#191970" stroke="#191970" points="107.5001,-30.6022 104,-20.6022 100.5001,-30.6023 107.5001,-30.6022"/>
</g>
</g>
</svg>
