<?xml version="1.0" encoding="UTF-8" standalone="no"?>
<!DOCTYPE svg PUBLIC "-//W3C//DTD SVG 1.1//EN"
 "http://www.w3.org/Graphics/SVG/1.1/DTD/svg11.dtd">
<!-- Generated by graphviz version 2.40.1 (20161225.0304)
 -->
<!-- Title: coresoftware/blob/master/simulation/g4simulation/g4detectors/PHG4RICHDetector.h Pages: 1 -->
<svg width="1059pt" height="167pt"
 viewBox="0.00 0.00 1058.50 167.00" xmlns="http://www.w3.org/2000/svg" xmlns:xlink="http://www.w3.org/1999/xlink">
<g id="graph0" class="graph" transform="scale(1 1) rotate(0) translate(4 163)">
<title>coresoftware/blob/master/simulation/g4simulation/g4detectors/PHG4RICHDetector.h</title>
<!-- Node1 -->
<g id="node1" class="node">
<title>Node1</title>
<polygon fill="#bfbfbf" stroke="#000000" points="757,-114.5 757,-158.5 946,-158.5 946,-114.5 757,-114.5"/>
<text text-anchor="start" x="765" y="-145.5" font-family="FreeSans" font-size="10.00" fill="#000000">coresoftware/blob/master</text>
<text text-anchor="start" x="765" y="-133.5" font-family="FreeSans" font-size="10.00" fill="#000000">/simulation/g4simulation</text>
<text text-anchor="middle" x="851.5" y="-121.5" font-family="FreeSans" font-size="10.00" fill="#000000">/g4detectors/PHG4RICHDetector.h</text>
</g>
<!-- Node2 -->
<g id="node2" class="node">
<title>Node2</title>
<g id="a_node2"><a xlink:href="../../d7/da7/ePHENIXRICHConstruction_8h.html" target="_top" xlink:title="ePHENIXRICHConstruction.h">
<polygon fill="none" stroke="#000000" points="389.5,-57.5 389.5,-77.5 547.5,-77.5 547.5,-57.5 389.5,-57.5"/>
<text text-anchor="middle" x="468.5" y="-64.5" font-family="FreeSans" font-size="10.00" fill="#000000">ePHENIXRICHConstruction.h</text>
</a>
</g>
</g>
<!-- Node1&#45;&gt;Node2 -->
<g id="edge1" class="edge">
<title>Node1&#45;&gt;Node2</title>
<path fill="none" stroke="#191970" d="M756.8258,-119.4438C687.5798,-106.9687 595.4121,-90.3641 534.1244,-79.3227"/>
<polygon fill="#191970" stroke="#191970" points="534.6472,-75.8606 524.1851,-77.532 533.4061,-82.7497 534.6472,-75.8606"/>
</g>
<!-- Node9 -->
<g id="node9" class="node">
<title>Node9</title>
<g id="a_node9"><a xlink:href="../../dd/dcc/PHG4Detector_8h.html" target="_top" xlink:title="g4main/PHG4Detector.h">
<polygon fill="none" stroke="#000000" points="734.5,-57.5 734.5,-77.5 872.5,-77.5 872.5,-57.5 734.5,-57.5"/>
<text text-anchor="middle" x="803.5" y="-64.5" font-family="FreeSans" font-size="10.00" fill="#000000">g4main/PHG4Detector.h</text>
</a>
</g>
</g>
<!-- Node1&#45;&gt;Node9 -->
<g id="edge8" class="edge">
<title>Node1&#45;&gt;Node9</title>
<path fill="none" stroke="#191970" d="M836.0483,-114.2882C829.7021,-105.1655 822.4385,-94.7242 816.3856,-86.023"/>
<polygon fill="#191970" stroke="#191970" points="819.189,-83.924 810.6052,-77.7137 813.4427,-87.9215 819.189,-83.924"/>
</g>
<!-- Node12 -->
<g id="node12" class="node">
<title>Node12</title>
<polygon fill="none" stroke="#bfbfbf" points="878,-.5 878,-20.5 923,-20.5 923,-.5 878,-.5"/>
<text text-anchor="middle" x="900.5" y="-7.5" font-family="FreeSans" font-size="10.00" fill="#000000">string</text>
</g>
<!-- Node1&#45;&gt;Node12 -->
<g id="edge13" class="edge">
<title>Node1&#45;&gt;Node12</title>
<path fill="none" stroke="#191970" d="M864.1125,-114.4829C869.934,-103.7181 876.6197,-90.4305 881.5,-78 887.6084,-62.4414 892.6298,-44.1561 895.9732,-30.5441"/>
<polygon fill="#191970" stroke="#191970" points="899.389,-31.3077 898.2834,-20.7707 892.5768,-29.6973 899.389,-31.3077"/>
</g>
<!-- Node13 -->
<g id="node13" class="node">
<title>Node13</title>
<polygon fill="none" stroke="#bfbfbf" points="928.5,-57.5 928.5,-77.5 1050.5,-77.5 1050.5,-57.5 928.5,-57.5"/>
<text text-anchor="middle" x="989.5" y="-64.5" font-family="FreeSans" font-size="10.00" fill="#000000">Geant4/G4Region.hh</text>
</g>
<!-- Node1&#45;&gt;Node13 -->
<g id="edge12" class="edge">
<title>Node1&#45;&gt;Node13</title>
<path fill="none" stroke="#191970" d="M895.5435,-114.4783C916.7321,-103.884 941.5493,-91.4753 960.3556,-82.0722"/>
<polygon fill="#191970" stroke="#191970" points="961.9473,-85.1896 969.3263,-77.5869 958.8167,-78.9286 961.9473,-85.1896"/>
</g>
<!-- Node3 -->
<g id="node3" class="node">
<title>Node3</title>
<polygon fill="none" stroke="#bfbfbf" points="0,-.5 0,-20.5 117,-20.5 117,-.5 0,-.5"/>
<text text-anchor="middle" x="58.5" y="-7.5" font-family="FreeSans" font-size="10.00" fill="#000000">Geant4/G4String.hh</text>
</g>
<!-- Node2&#45;&gt;Node3 -->
<g id="edge2" class="edge">
<title>Node2&#45;&gt;Node3</title>
<path fill="none" stroke="#191970" d="M391.128,-57.4758C323.8769,-48.6558 223.5551,-35.2425 127.2249,-21.2332"/>
<polygon fill="#191970" stroke="#191970" points="127.7161,-17.7679 117.3156,-19.7879 126.7058,-24.6946 127.7161,-17.7679"/>
</g>
<!-- Node4 -->
<g id="node4" class="node">
<title>Node4</title>
<polygon fill="none" stroke="#bfbfbf" points="135,-.5 135,-20.5 250,-20.5 250,-.5 135,-.5"/>
<text text-anchor="middle" x="192.5" y="-7.5" font-family="FreeSans" font-size="10.00" fill="#000000">Geant4/G4Types.hh</text>
</g>
<!-- Node2&#45;&gt;Node4 -->
<g id="edge3" class="edge">
<title>Node2&#45;&gt;Node4</title>
<path fill="none" stroke="#191970" d="M419.7921,-57.4408C372.7386,-47.7232 301.4137,-32.9931 251.2386,-22.6308"/>
<polygon fill="#191970" stroke="#191970" points="251.6857,-19.1493 241.1844,-20.5544 250.2698,-26.0047 251.6857,-19.1493"/>
</g>
<!-- Node5 -->
<g id="node5" class="node">
<title>Node5</title>
<polygon fill="none" stroke="#bfbfbf" points="268.5,-.5 268.5,-20.5 430.5,-20.5 430.5,-.5 268.5,-.5"/>
<text text-anchor="middle" x="349.5" y="-7.5" font-family="FreeSans" font-size="10.00" fill="#000000">Geant4/G4SystemOfUnits.hh</text>
</g>
<!-- Node2&#45;&gt;Node5 -->
<g id="edge4" class="edge">
<title>Node2&#45;&gt;Node5</title>
<path fill="none" stroke="#191970" d="M447.4991,-57.4408C428.7518,-48.461 401.0684,-35.2008 379.9021,-25.0624"/>
<polygon fill="#191970" stroke="#191970" points="381.222,-21.8138 370.6912,-20.6504 378.198,-28.127 381.222,-21.8138"/>
</g>
<!-- Node6 -->
<g id="node6" class="node">
<title>Node6</title>
<polygon fill="none" stroke="#bfbfbf" points="449,-.5 449,-20.5 488,-20.5 488,-.5 449,-.5"/>
<text text-anchor="middle" x="468.5" y="-7.5" font-family="FreeSans" font-size="10.00" fill="#000000">map</text>
</g>
<!-- Node2&#45;&gt;Node6 -->
<g id="edge5" class="edge">
<title>Node2&#45;&gt;Node6</title>
<path fill="none" stroke="#191970" d="M468.5,-57.3095C468.5,-49.9335 468.5,-39.72 468.5,-30.715"/>
<polygon fill="#191970" stroke="#191970" points="472.0001,-30.6022 468.5,-20.6022 465.0001,-30.6023 472.0001,-30.6022"/>
</g>
<!-- Node7 -->
<g id="node7" class="node">
<title>Node7</title>
<polygon fill="none" stroke="#bfbfbf" points="506.5,-.5 506.5,-20.5 538.5,-20.5 538.5,-.5 506.5,-.5"/>
<text text-anchor="middle" x="522.5" y="-7.5" font-family="FreeSans" font-size="10.00" fill="#000000">set</text>
</g>
<!-- Node2&#45;&gt;Node7 -->
<g id="edge6" class="edge">
<title>Node2&#45;&gt;Node7</title>
<path fill="none" stroke="#191970" d="M478.1541,-57.3095C485.8331,-49.204 496.7582,-37.672 505.8428,-28.0826"/>
<polygon fill="#191970" stroke="#191970" points="508.5928,-30.2689 512.9295,-20.6022 503.5111,-25.4547 508.5928,-30.2689"/>
</g>
<!-- Node8 -->
<g id="node8" class="node">
<title>Node8</title>
<polygon fill="none" stroke="#bfbfbf" points="557,-.5 557,-20.5 602,-20.5 602,-.5 557,-.5"/>
<text text-anchor="middle" x="579.5" y="-7.5" font-family="FreeSans" font-size="10.00" fill="#000000">utility</text>
</g>
<!-- Node2&#45;&gt;Node8 -->
<g id="edge7" class="edge">
<title>Node2&#45;&gt;Node8</title>
<path fill="none" stroke="#191970" d="M488.0891,-57.4408C505.4185,-48.5419 530.9338,-35.4394 550.6066,-25.3371"/>
<polygon fill="#191970" stroke="#191970" points="552.4366,-28.332 559.7334,-20.6504 549.2389,-22.105 552.4366,-28.332"/>
</g>
<!-- Node10 -->
<g id="node10" class="node">
<title>Node10</title>
<polygon fill="none" stroke="#bfbfbf" points="620,-.5 620,-20.5 781,-20.5 781,-.5 620,-.5"/>
<text text-anchor="middle" x="700.5" y="-7.5" font-family="FreeSans" font-size="10.00" fill="#000000">Geant4/G4RotationMatrix.hh</text>
</g>
<!-- Node9&#45;&gt;Node10 -->
<g id="edge9" class="edge">
<title>Node9&#45;&gt;Node10</title>
<path fill="none" stroke="#191970" d="M785.0857,-57.3095C769.1206,-48.4745 745.7991,-35.5684 727.6857,-25.5445"/>
<polygon fill="#191970" stroke="#191970" points="729.1992,-22.3819 718.7549,-20.6022 725.8098,-28.5066 729.1992,-22.3819"/>
</g>
<!-- Node11 -->
<g id="node11" class="node">
<title>Node11</title>
<polygon fill="none" stroke="#bfbfbf" points="799.5,-.5 799.5,-20.5 859.5,-20.5 859.5,-.5 799.5,-.5"/>
<text text-anchor="middle" x="829.5" y="-7.5" font-family="FreeSans" font-size="10.00" fill="#000000">iostream</text>
</g>
<!-- Node9&#45;&gt;Node11 -->
<g id="edge10" class="edge">
<title>Node9&#45;&gt;Node11</title>
<path fill="none" stroke="#191970" d="M808.1483,-57.3095C811.6237,-49.6903 816.4802,-39.0435 820.6835,-29.8285"/>
<polygon fill="#191970" stroke="#191970" points="823.9262,-31.153 824.892,-20.6022 817.5575,-28.2479 823.9262,-31.153"/>
</g>
<!-- Node9&#45;&gt;Node12 -->
<g id="edge11" class="edge">
<title>Node9&#45;&gt;Node12</title>
<path fill="none" stroke="#191970" d="M820.8417,-57.3095C835.7388,-48.5556 857.4373,-35.8049 874.4272,-25.8211"/>
<polygon fill="#191970" stroke="#191970" points="876.4601,-28.6862 883.3085,-20.6022 872.9136,-22.651 876.4601,-28.6862"/>
</g>
</g>
</svg>
