<?xml version="1.0" encoding="UTF-8" standalone="no"?>
<!DOCTYPE svg PUBLIC "-//W3C//DTD SVG 1.1//EN"
 "http://www.w3.org/Graphics/SVG/1.1/DTD/svg11.dtd">
<!-- Generated by graphviz version 2.40.1 (20161225.0304)
 -->
<!-- Title: PHG4PrimaryGeneratorAction Pages: 1 -->
<svg width="1137pt" height="171pt"
 viewBox="0.00 0.00 1137.00 170.58" xmlns="http://www.w3.org/2000/svg" xmlns:xlink="http://www.w3.org/1999/xlink">
<g id="graph0" class="graph" transform="scale(1 1) rotate(0) translate(4 166.5819)">
<title>PHG4PrimaryGeneratorAction</title>
<!-- Node1 -->
<g id="node1" class="node">
<title>Node1</title>
<polygon fill="#bfbfbf" stroke="#000000" points="963,-100.5 963,-120.5 1129,-120.5 1129,-100.5 963,-100.5"/>
<text text-anchor="middle" x="1046" y="-107.5" font-family="FreeSans" font-size="10.00" fill="#000000">PHG4PrimaryGeneratorAction</text>
</g>
<!-- Node2 -->
<g id="node2" class="node">
<title>Node2</title>
<polygon fill="none" stroke="#bfbfbf" points="702,-120.5 702,-140.5 884,-140.5 884,-120.5 702,-120.5"/>
<text text-anchor="middle" x="793" y="-127.5" font-family="FreeSans" font-size="10.00" fill="#000000">G4VUserPrimaryGeneratorAction</text>
</g>
<!-- Node2&#45;&gt;Node1 -->
<g id="edge1" class="edge">
<title>Node2&#45;&gt;Node1</title>
<path fill="none" stroke="#191970" d="M894.3403,-122.4889C917.0583,-120.693 940.9046,-118.8079 962.786,-117.0782"/>
<polygon fill="#191970" stroke="#191970" points="894.0319,-119.0023 884.3388,-123.2795 894.5836,-125.9805 894.0319,-119.0023"/>
</g>
<!-- Node3 -->
<g id="node3" class="node">
<title>Node3</title>
<g id="a_node3"><a xlink:href="../../db/d62/classPHG4InEvent.html" target="_top" xlink:title="PHG4InEvent">
<polygon fill="none" stroke="#000000" points="751.5,-81.5 751.5,-101.5 834.5,-101.5 834.5,-81.5 751.5,-81.5"/>
<text text-anchor="middle" x="793" y="-88.5" font-family="FreeSans" font-size="10.00" fill="#000000">PHG4InEvent</text>
</a>
</g>
</g>
<!-- Node3&#45;&gt;Node1 -->
<g id="edge2" class="edge">
<title>Node3&#45;&gt;Node1</title>
<path fill="none" stroke="#9a32cd" stroke-dasharray="5,2" d="M844.9441,-95.4009C878.9184,-97.9524 924.0484,-101.3416 962.9421,-104.2625"/>
<polygon fill="#9a32cd" stroke="#9a32cd" points="845.0119,-91.8963 834.7778,-94.6375 844.4876,-98.8766 845.0119,-91.8963"/>
<text text-anchor="middle" x="923.5" y="-106.5" font-family="FreeSans" font-size="10.00" fill="#000000"> inEvent</text>
</g>
<!-- Node4 -->
<g id="node4" class="node">
<title>Node4</title>
<g id="a_node4"><a xlink:href="../../d9/d24/classPHObject.html" target="_top" xlink:title="PHObject">
<polygon fill="none" stroke="#000000" points="94,-102.5 94,-122.5 157,-122.5 157,-102.5 94,-102.5"/>
<text text-anchor="middle" x="125.5" y="-109.5" font-family="FreeSans" font-size="10.00" fill="#000000">PHObject</text>
</a>
</g>
</g>
<!-- Node4&#45;&gt;Node3 -->
<g id="edge3" class="edge">
<title>Node4&#45;&gt;Node3</title>
<path fill="none" stroke="#191970" d="M164.44,-125.3542C173.999,-127.9368 184.2802,-130.2425 194,-131.5 410.0227,-159.4483 476.6426,-188.2069 684,-121.5 692.9251,-118.6288 693.2835,-113.9531 702,-110.5 717.6049,-104.3179 735.5494,-100.0231 751.3571,-97.1023"/>
<polygon fill="#191970" stroke="#191970" points="165.3707,-121.9801 154.7938,-122.595 163.4456,-128.7102 165.3707,-121.9801"/>
</g>
<!-- Node7 -->
<g id="node7" class="node">
<title>Node7</title>
<g id="a_node7"><a xlink:href="../../d6/d81/classPHG4VtxPoint.html" target="_top" xlink:title="PHG4VtxPoint">
<polygon fill="none" stroke="#000000" points="194,-102.5 194,-122.5 281,-122.5 281,-102.5 194,-102.5"/>
<text text-anchor="middle" x="237.5" y="-109.5" font-family="FreeSans" font-size="10.00" fill="#000000">PHG4VtxPoint</text>
</a>
</g>
</g>
<!-- Node4&#45;&gt;Node7 -->
<g id="edge7" class="edge">
<title>Node4&#45;&gt;Node7</title>
<path fill="none" stroke="#191970" d="M167.5199,-112.5C176.1436,-112.5 185.2399,-112.5 193.9173,-112.5"/>
<polygon fill="#191970" stroke="#191970" points="167.2952,-109.0001 157.2951,-112.5 167.2951,-116.0001 167.2952,-109.0001"/>
</g>
<!-- Node9 -->
<g id="node9" class="node">
<title>Node9</title>
<g id="a_node9"><a xlink:href="../../de/dc9/classPHG4Particle.html" target="_top" xlink:title="PHG4Particle">
<polygon fill="none" stroke="#000000" points="197,-57.5 197,-77.5 278,-77.5 278,-57.5 197,-57.5"/>
<text text-anchor="middle" x="237.5" y="-64.5" font-family="FreeSans" font-size="10.00" fill="#000000">PHG4Particle</text>
</a>
</g>
</g>
<!-- Node4&#45;&gt;Node9 -->
<g id="edge10" class="edge">
<title>Node4&#45;&gt;Node9</title>
<path fill="none" stroke="#191970" d="M160.1808,-98.5657C177.0894,-91.7721 197.0461,-83.7538 212.4489,-77.5652"/>
<polygon fill="#191970" stroke="#191970" points="158.6091,-95.4252 150.635,-102.4011 161.2189,-101.9205 158.6091,-95.4252"/>
</g>
<!-- Node5 -->
<g id="node5" class="node">
<title>Node5</title>
<polygon fill="none" stroke="#bfbfbf" points="0,-102.5 0,-122.5 57,-122.5 57,-102.5 0,-102.5"/>
<text text-anchor="middle" x="28.5" y="-109.5" font-family="FreeSans" font-size="10.00" fill="#000000">TObject</text>
</g>
<!-- Node5&#45;&gt;Node4 -->
<g id="edge4" class="edge">
<title>Node5&#45;&gt;Node4</title>
<path fill="none" stroke="#191970" d="M67.1481,-112.5C75.9663,-112.5 85.2382,-112.5 93.7302,-112.5"/>
<polygon fill="#191970" stroke="#191970" points="67.0786,-109.0001 57.0786,-112.5 67.0785,-116.0001 67.0786,-109.0001"/>
</g>
<!-- Node6 -->
<g id="node6" class="node">
<title>Node6</title>
<polygon fill="none" stroke="#bfbfbf" points="368,-102.5 368,-122.5 549,-122.5 549,-102.5 368,-102.5"/>
<text text-anchor="middle" x="458.5" y="-109.5" font-family="FreeSans" font-size="10.00" fill="#000000">std::map&lt; int, PHG4VtxPoint * &gt;</text>
</g>
<!-- Node6&#45;&gt;Node3 -->
<g id="edge5" class="edge">
<title>Node6&#45;&gt;Node3</title>
<path fill="none" stroke="#9a32cd" stroke-dasharray="5,2" d="M559.1915,-106.1786C623.4478,-102.1445 703.3666,-97.1272 751.1694,-94.1261"/>
<polygon fill="#9a32cd" stroke="#9a32cd" points="558.7815,-102.6973 549.0205,-106.8171 559.2202,-109.6836 558.7815,-102.6973"/>
<text text-anchor="middle" x="625.5" y="-108.5" font-family="FreeSans" font-size="10.00" fill="#000000"> vtxlist</text>
</g>
<!-- Node7&#45;&gt;Node6 -->
<g id="edge6" class="edge">
<title>Node7&#45;&gt;Node6</title>
<path fill="none" stroke="#9a32cd" stroke-dasharray="5,2" d="M291.3949,-112.5C314.399,-112.5 341.8869,-112.5 367.861,-112.5"/>
<polygon fill="#9a32cd" stroke="#9a32cd" points="291.1625,-109.0001 281.1625,-112.5 291.1625,-116.0001 291.1625,-109.0001"/>
<text text-anchor="middle" x="324.5" y="-115.5" font-family="FreeSans" font-size="10.00" fill="#000000"> elements</text>
</g>
<!-- Node8 -->
<g id="node8" class="node">
<title>Node8</title>
<polygon fill="none" stroke="#bfbfbf" points="389.5,-51.5 389.5,-83.5 527.5,-83.5 527.5,-51.5 389.5,-51.5"/>
<text text-anchor="start" x="397.5" y="-70.5" font-family="FreeSans" font-size="10.00" fill="#000000">std::map&lt; PHG4Particle</text>
<text text-anchor="middle" x="458.5" y="-58.5" font-family="FreeSans" font-size="10.00" fill="#000000"> *, int &gt;</text>
</g>
<!-- Node8&#45;&gt;Node3 -->
<g id="edge8" class="edge">
<title>Node8&#45;&gt;Node3</title>
<path fill="none" stroke="#9a32cd" stroke-dasharray="5,2" d="M537.7597,-73.0765C580.9876,-76.1298 635.4377,-79.9951 684,-83.5 706.2372,-85.1049 731.024,-86.9219 751.3353,-88.4182"/>
<polygon fill="#9a32cd" stroke="#9a32cd" points="537.81,-69.5714 527.5883,-72.3584 537.3169,-76.5541 537.81,-69.5714"/>
<text text-anchor="middle" x="625.5" y="-86.5" font-family="FreeSans" font-size="10.00" fill="#000000"> embedded_particlelist</text>
</g>
<!-- Node9&#45;&gt;Node8 -->
<g id="edge9" class="edge">
<title>Node9&#45;&gt;Node8</title>
<path fill="none" stroke="#9a32cd" stroke-dasharray="5,2" d="M288.2467,-67.5C318.1675,-67.5 356.4473,-67.5 389.1285,-67.5"/>
<polygon fill="#9a32cd" stroke="#9a32cd" points="288.0348,-64.0001 278.0348,-67.5 288.0348,-71.0001 288.0348,-64.0001"/>
<text text-anchor="middle" x="324.5" y="-70.5" font-family="FreeSans" font-size="10.00" fill="#000000"> keys</text>
</g>
<!-- Node10 -->
<g id="node10" class="node">
<title>Node10</title>
<polygon fill="none" stroke="#bfbfbf" points="401.5,-.5 401.5,-32.5 515.5,-32.5 515.5,-.5 401.5,-.5"/>
<text text-anchor="start" x="409.5" y="-19.5" font-family="FreeSans" font-size="10.00" fill="#000000">std::multimap&lt; int,</text>
<text text-anchor="middle" x="458.5" y="-7.5" font-family="FreeSans" font-size="10.00" fill="#000000"> PHG4Particle * &gt;</text>
</g>
<!-- Node9&#45;&gt;Node10 -->
<g id="edge12" class="edge">
<title>Node9&#45;&gt;Node10</title>
<path fill="none" stroke="#9a32cd" stroke-dasharray="5,2" d="M284.8801,-54.9782C289.6439,-53.7778 294.4135,-52.5994 299,-51.5 332.7718,-43.4047 370.7448,-35.0427 401.1654,-28.5228"/>
<polygon fill="#9a32cd" stroke="#9a32cd" points="283.9954,-51.5917 275.1706,-57.4546 285.7254,-58.3745 283.9954,-51.5917"/>
<text text-anchor="middle" x="324.5" y="-54.5" font-family="FreeSans" font-size="10.00" fill="#000000"> elements</text>
</g>
<!-- Node10&#45;&gt;Node3 -->
<g id="edge11" class="edge">
<title>Node10&#45;&gt;Node3</title>
<path fill="none" stroke="#9a32cd" stroke-dasharray="5,2" d="M525.7653,-27.5642C570.7866,-35.4009 631.2354,-46.7558 684,-59.5 710.456,-65.8899 740.0632,-74.6895 761.7365,-81.444"/>
<polygon fill="#9a32cd" stroke="#9a32cd" points="526.2749,-24.1005 515.8251,-25.8474 525.0835,-30.9983 526.2749,-24.1005"/>
<text text-anchor="middle" x="625.5" y="-62.5" font-family="FreeSans" font-size="10.00" fill="#000000"> particlelist</text>
</g>
</g>
</svg>
