<?xml version="1.0" encoding="UTF-8" standalone="no"?>
<!DOCTYPE svg PUBLIC "-//W3C//DTD SVG 1.1//EN"
 "http://www.w3.org/Graphics/SVG/1.1/DTD/svg11.dtd">
<!-- Generated by graphviz version 2.40.1 (20161225.0304)
 -->
<!-- Title: TreeMaker::CopyAndMakeJets Pages: 1 -->
<svg width="491pt" height="782pt"
 viewBox="0.00 0.00 491.00 782.00" xmlns="http://www.w3.org/2000/svg" xmlns:xlink="http://www.w3.org/1999/xlink">
<g id="graph0" class="graph" transform="scale(1 1) rotate(0) translate(4 778)">
<title>TreeMaker::CopyAndMakeJets</title>
<!-- Node1 -->
<g id="node1" class="node">
<title>Node1</title>
<polygon fill="#bfbfbf" stroke="#000000" points="0,-382.5 0,-402.5 166,-402.5 166,-382.5 0,-382.5"/>
<text text-anchor="middle" x="83" y="-389.5" font-family="FreeSans" font-size="10.00" fill="#000000">TreeMaker::CopyAndMakeJets</text>
</g>
<!-- Node2 -->
<g id="node2" class="node">
<title>Node2</title>
<g id="a_node2"><a xlink:href="../../d3/d69/group__clustered.html#ga0507794200ea2082a334b9857e41909e" target="_top" xlink:title="Jet::begin_comp">
<polygon fill="none" stroke="#000000" points="223,-753.5 223,-773.5 322,-773.5 322,-753.5 223,-753.5"/>
<text text-anchor="middle" x="272.5" y="-760.5" font-family="FreeSans" font-size="10.00" fill="#000000">Jet::begin_comp</text>
</a>
</g>
</g>
<!-- Node1&#45;&gt;Node2 -->
<g id="edge1" class="edge">
<title>Node1&#45;&gt;Node2</title>
<path fill="none" stroke="#191970" d="M85.1074,-402.7489C96.1116,-455.3276 148.511,-694.2667 202,-744.5 205.5113,-747.7976 209.5336,-750.5348 213.8377,-752.8055"/>
<polygon fill="#191970" stroke="#191970" points="212.4328,-756.0111 222.9951,-756.8408 215.2556,-749.6055 212.4328,-756.0111"/>
</g>
<!-- Node3 -->
<g id="node3" class="node">
<title>Node3</title>
<g id="a_node3"><a xlink:href="../../d3/d69/group__clustered.html#ga2c87beb325736c98531718964dc70a7a" target="_top" xlink:title="Jet::end_comp">
<polygon fill="none" stroke="#000000" points="228,-714.5 228,-734.5 317,-734.5 317,-714.5 228,-714.5"/>
<text text-anchor="middle" x="272.5" y="-721.5" font-family="FreeSans" font-size="10.00" fill="#000000">Jet::end_comp</text>
</a>
</g>
</g>
<!-- Node1&#45;&gt;Node3 -->
<g id="edge2" class="edge">
<title>Node1&#45;&gt;Node3</title>
<path fill="none" stroke="#191970" d="M83.6521,-402.7189C87.0015,-446.3472 106.0755,-618.7241 202,-705.5 206.7502,-709.7972 212.372,-713.1382 218.3361,-715.7331"/>
<polygon fill="#191970" stroke="#191970" points="217.3203,-719.0881 227.9142,-719.2269 219.7191,-712.5119 217.3203,-719.0881"/>
</g>
<!-- Node4 -->
<g id="node4" class="node">
<title>Node4</title>
<g id="a_node4"><a xlink:href="../../d7/da6/classJet.html#a85015347b5a5742dcf218e258f0460ae" target="_top" xlink:title="Jet::get_e">
<polygon fill="none" stroke="#000000" points="240.5,-675.5 240.5,-695.5 304.5,-695.5 304.5,-675.5 240.5,-675.5"/>
<text text-anchor="middle" x="272.5" y="-682.5" font-family="FreeSans" font-size="10.00" fill="#000000">Jet::get_e</text>
</a>
</g>
</g>
<!-- Node1&#45;&gt;Node4 -->
<g id="edge3" class="edge">
<title>Node1&#45;&gt;Node4</title>
<path fill="none" stroke="#191970" d="M84.2367,-402.5346C89.7081,-442.4978 115.438,-591.7719 202,-666.5 209.9162,-673.3339 220.0519,-677.7364 230.1545,-680.5649"/>
<polygon fill="#191970" stroke="#191970" points="229.6288,-684.0362 240.1626,-682.9004 231.2197,-677.2194 229.6288,-684.0362"/>
</g>
<!-- Node5 -->
<g id="node5" class="node">
<title>Node5</title>
<g id="a_node5"><a xlink:href="../../d9/dd8/classRawTower.html#ab23195d58fefabd9162115afa96707cc" target="_top" xlink:title="energy assigned to the tower. Depending on stage of process and DST node name, it could be energy dep...">
<polygon fill="none" stroke="#000000" points="207.5,-636.5 207.5,-656.5 337.5,-656.5 337.5,-636.5 207.5,-636.5"/>
<text text-anchor="middle" x="272.5" y="-643.5" font-family="FreeSans" font-size="10.00" fill="#000000">RawTower::get_energy</text>
</a>
</g>
</g>
<!-- Node1&#45;&gt;Node5 -->
<g id="edge4" class="edge">
<title>Node1&#45;&gt;Node5</title>
<path fill="none" stroke="#191970" d="M85.0283,-402.589C92.8885,-438.9951 124.8244,-564.7518 202,-627.5 203.7981,-628.9619 205.6988,-630.312 207.6785,-631.5586"/>
<polygon fill="#191970" stroke="#191970" points="206.3149,-634.7971 216.7895,-636.3888 209.5938,-628.6125 206.3149,-634.7971"/>
</g>
<!-- Node6 -->
<g id="node6" class="node">
<title>Node6</title>
<g id="a_node6"><a xlink:href="../../d7/da6/classJet.html#aa7219b7e6fafba21362c4591f4ed8f06" target="_top" xlink:title="Jet::get_eta">
<polygon fill="none" stroke="#000000" points="235.5,-597.5 235.5,-617.5 309.5,-617.5 309.5,-597.5 235.5,-597.5"/>
<text text-anchor="middle" x="272.5" y="-604.5" font-family="FreeSans" font-size="10.00" fill="#000000">Jet::get_eta</text>
</a>
</g>
</g>
<!-- Node1&#45;&gt;Node6 -->
<g id="edge5" class="edge">
<title>Node1&#45;&gt;Node6</title>
<path fill="none" stroke="#191970" d="M86.2059,-402.9218C96.8432,-435.7072 134.2017,-537.5777 202,-588.5 208.9208,-593.6981 217.1652,-597.475 225.5348,-600.219"/>
<polygon fill="#191970" stroke="#191970" points="224.7708,-603.6401 235.3456,-602.989 226.6729,-596.9034 224.7708,-603.6401"/>
</g>
<!-- Node7 -->
<g id="node7" class="node">
<title>Node7</title>
<g id="a_node7"><a xlink:href="../../d8/dc4/classRawTowerGeom.html#aed31c4e7b05d1f434c0cdc26fe438d46" target="_top" xlink:title="RawTowerGeom::get_eta">
<polygon fill="none" stroke="#000000" points="202,-558.5 202,-578.5 343,-578.5 343,-558.5 202,-558.5"/>
<text text-anchor="middle" x="272.5" y="-565.5" font-family="FreeSans" font-size="10.00" fill="#000000">RawTowerGeom::get_eta</text>
</a>
</g>
</g>
<!-- Node1&#45;&gt;Node7 -->
<g id="edge6" class="edge">
<title>Node1&#45;&gt;Node7</title>
<path fill="none" stroke="#191970" d="M87.7588,-402.7973C101.3147,-430.9526 142.9955,-509.7591 202,-549.5 204.5973,-551.2493 207.3497,-552.838 210.2033,-554.2806"/>
<polygon fill="#191970" stroke="#191970" points="209.0315,-557.5887 219.5946,-558.4094 211.8488,-551.1807 209.0315,-557.5887"/>
</g>
<!-- Node8 -->
<g id="node8" class="node">
<title>Node8</title>
<g id="a_node8"><a xlink:href="../../d9/dd8/classRawTower.html#ae6569757f62f3bee755ebf8872f15008" target="_top" xlink:title="RawTower::get_key">
<polygon fill="none" stroke="#000000" points="216.5,-519.5 216.5,-539.5 328.5,-539.5 328.5,-519.5 216.5,-519.5"/>
<text text-anchor="middle" x="272.5" y="-526.5" font-family="FreeSans" font-size="10.00" fill="#000000">RawTower::get_key</text>
</a>
</g>
</g>
<!-- Node1&#45;&gt;Node8 -->
<g id="edge7" class="edge">
<title>Node1&#45;&gt;Node8</title>
<path fill="none" stroke="#191970" d="M90.3517,-402.8024C107.3034,-425.7801 151.5662,-481.4751 202,-510.5 205.4248,-512.471 209.0608,-514.2437 212.8059,-515.8371"/>
<polygon fill="#191970" stroke="#191970" points="211.6903,-519.1574 222.2814,-519.4398 214.178,-512.6143 211.6903,-519.1574"/>
</g>
<!-- Node10 -->
<g id="node10" class="node">
<title>Node10</title>
<g id="a_node10"><a xlink:href="../../d7/da6/classJet.html#aaf7b661627240eff2b2b5bc596b8736e" target="_top" xlink:title="Jet::get_phi">
<polygon fill="none" stroke="#000000" points="235.5,-480.5 235.5,-500.5 309.5,-500.5 309.5,-480.5 235.5,-480.5"/>
<text text-anchor="middle" x="272.5" y="-487.5" font-family="FreeSans" font-size="10.00" fill="#000000">Jet::get_phi</text>
</a>
</g>
</g>
<!-- Node1&#45;&gt;Node10 -->
<g id="edge9" class="edge">
<title>Node1&#45;&gt;Node10</title>
<path fill="none" stroke="#191970" d="M95.3995,-402.7273C116.197,-419.404 159.9727,-452.4966 202,-471.5 209.4726,-474.8788 217.6708,-477.7634 225.7506,-480.1876"/>
<polygon fill="#191970" stroke="#191970" points="224.9172,-483.5888 235.4908,-482.9187 226.8071,-476.8488 224.9172,-483.5888"/>
</g>
<!-- Node11 -->
<g id="node11" class="node">
<title>Node11</title>
<g id="a_node11"><a xlink:href="../../d8/dc4/classRawTowerGeom.html#a39490c6ecb489ef5a99cf26a8f25ecfc" target="_top" xlink:title="RawTowerGeom::get_phi">
<polygon fill="none" stroke="#000000" points="202.5,-441.5 202.5,-461.5 342.5,-461.5 342.5,-441.5 202.5,-441.5"/>
<text text-anchor="middle" x="272.5" y="-448.5" font-family="FreeSans" font-size="10.00" fill="#000000">RawTowerGeom::get_phi</text>
</a>
</g>
</g>
<!-- Node1&#45;&gt;Node11 -->
<g id="edge10" class="edge">
<title>Node1&#45;&gt;Node11</title>
<path fill="none" stroke="#191970" d="M111.2159,-402.5255C135.2301,-410.9277 170.7071,-423.0335 202,-432.5 209.007,-434.6197 216.4402,-436.7499 223.7509,-438.7781"/>
<polygon fill="#191970" stroke="#191970" points="223.0234,-442.2076 233.5925,-441.4699 224.8702,-435.4556 223.0234,-442.2076"/>
</g>
<!-- Node12 -->
<g id="node12" class="node">
<title>Node12</title>
<g id="a_node12"><a xlink:href="../../d7/da6/classJet.html#ab0298c30da3364739d73c36a28e76dfb" target="_top" xlink:title="Jet::get_pt">
<polygon fill="none" stroke="#000000" points="238,-402.5 238,-422.5 307,-422.5 307,-402.5 238,-402.5"/>
<text text-anchor="middle" x="272.5" y="-409.5" font-family="FreeSans" font-size="10.00" fill="#000000">Jet::get_pt</text>
</a>
</g>
</g>
<!-- Node1&#45;&gt;Node12 -->
<g id="edge11" class="edge">
<title>Node1&#45;&gt;Node12</title>
<path fill="none" stroke="#191970" d="M166.1175,-401.2723C187.3313,-403.5112 209.3349,-405.8335 227.7878,-407.781"/>
<polygon fill="#191970" stroke="#191970" points="227.6149,-411.2821 237.927,-408.8511 228.3496,-404.3208 227.6149,-411.2821"/>
</g>
<!-- Node13 -->
<g id="node13" class="node">
<title>Node13</title>
<g id="a_node13"><a xlink:href="../../d7/da6/classJet.html#a5bf014c85e80f6f2ea41f93ef52db0c6" target="_top" xlink:title="Jet::get_px">
<polygon fill="none" stroke="#000000" points="237,-363.5 237,-383.5 308,-383.5 308,-363.5 237,-363.5"/>
<text text-anchor="middle" x="272.5" y="-370.5" font-family="FreeSans" font-size="10.00" fill="#000000">Jet::get_px</text>
</a>
</g>
</g>
<!-- Node1&#45;&gt;Node13 -->
<g id="edge12" class="edge">
<title>Node1&#45;&gt;Node13</title>
<path fill="none" stroke="#191970" d="M166.1175,-384.1663C186.9972,-382.0728 208.6421,-379.9026 226.9134,-378.0707"/>
<polygon fill="#191970" stroke="#191970" points="227.3685,-381.5427 236.9694,-377.0624 226.6701,-374.5776 227.3685,-381.5427"/>
</g>
<!-- Node14 -->
<g id="node14" class="node">
<title>Node14</title>
<g id="a_node14"><a xlink:href="../../d7/da6/classJet.html#aa5b2ac25a412072360e100e1445ee49a" target="_top" xlink:title="Jet::get_py">
<polygon fill="none" stroke="#000000" points="237,-324.5 237,-344.5 308,-344.5 308,-324.5 237,-324.5"/>
<text text-anchor="middle" x="272.5" y="-331.5" font-family="FreeSans" font-size="10.00" fill="#000000">Jet::get_py</text>
</a>
</g>
</g>
<!-- Node1&#45;&gt;Node14 -->
<g id="edge13" class="edge">
<title>Node1&#45;&gt;Node14</title>
<path fill="none" stroke="#191970" d="M113.7345,-382.3815C137.7129,-374.5611 171.8912,-363.5754 202,-354.5 210.1424,-352.0457 218.8392,-349.5096 227.2458,-347.1016"/>
<polygon fill="#191970" stroke="#191970" points="228.2699,-350.4492 236.9305,-344.3463 226.3544,-343.7164 228.2699,-350.4492"/>
</g>
<!-- Node15 -->
<g id="node15" class="node">
<title>Node15</title>
<g id="a_node15"><a xlink:href="../../d7/da6/classJet.html#a4009a0f20c0b95dc1ba3d9f00988fcdd" target="_top" xlink:title="Jet::get_pz">
<polygon fill="none" stroke="#000000" points="237.5,-285.5 237.5,-305.5 307.5,-305.5 307.5,-285.5 237.5,-285.5"/>
<text text-anchor="middle" x="272.5" y="-292.5" font-family="FreeSans" font-size="10.00" fill="#000000">Jet::get_pz</text>
</a>
</g>
</g>
<!-- Node1&#45;&gt;Node15 -->
<g id="edge14" class="edge">
<title>Node1&#45;&gt;Node15</title>
<path fill="none" stroke="#191970" d="M95.8141,-382.3518C116.8531,-366.132 160.5328,-334.2856 202,-315.5 210.0832,-311.8381 218.9953,-308.687 227.6845,-306.0401"/>
<polygon fill="#191970" stroke="#191970" points="228.6989,-309.3903 237.3441,-303.2656 226.7664,-302.6623 228.6989,-309.3903"/>
</g>
<!-- Node16 -->
<g id="node16" class="node">
<title>Node16</title>
<g id="a_node16"><a xlink:href="../../d3/dc7/classRawTowerContainer.html#a94a3368d6cd85ea4c3f204cd1065da26" target="_top" xlink:title="RawTowerContainer::\lgetTower">
<polygon fill="none" stroke="#000000" points="211.5,-234.5 211.5,-266.5 333.5,-266.5 333.5,-234.5 211.5,-234.5"/>
<text text-anchor="start" x="219.5" y="-253.5" font-family="FreeSans" font-size="10.00" fill="#000000">RawTowerContainer::</text>
<text text-anchor="middle" x="272.5" y="-241.5" font-family="FreeSans" font-size="10.00" fill="#000000">getTower</text>
</a>
</g>
</g>
<!-- Node1&#45;&gt;Node16 -->
<g id="edge15" class="edge">
<title>Node1&#45;&gt;Node16</title>
<path fill="none" stroke="#191970" d="M90.8502,-382.3659C108.4712,-360.2399 153.4466,-307.1422 202,-276.5 205.1062,-274.5396 208.382,-272.696 211.7524,-270.9671"/>
<polygon fill="#191970" stroke="#191970" points="213.3071,-274.1035 220.8439,-266.6573 210.3085,-267.7783 213.3071,-274.1035"/>
</g>
<!-- Node17 -->
<g id="node17" class="node">
<title>Node17</title>
<g id="a_node17"><a xlink:href="../../d7/da6/classJet.html#a911e8ad8e600cdd5e4c5bdab14bf71e9" target="_top" xlink:title="Jet::set_e">
<polygon fill="none" stroke="#000000" points="241,-195.5 241,-215.5 304,-215.5 304,-195.5 241,-195.5"/>
<text text-anchor="middle" x="272.5" y="-202.5" font-family="FreeSans" font-size="10.00" fill="#000000">Jet::set_e</text>
</a>
</g>
</g>
<!-- Node1&#45;&gt;Node17 -->
<g id="edge16" class="edge">
<title>Node1&#45;&gt;Node17</title>
<path fill="none" stroke="#191970" d="M87.2271,-382.4342C99.964,-353.3571 140.8957,-268.5766 202,-225.5 210.5007,-219.5073 220.7615,-215.3024 230.7914,-212.3547"/>
<polygon fill="#191970" stroke="#191970" points="231.8618,-215.6932 240.6707,-209.8064 230.1134,-208.9151 231.8618,-215.6932"/>
</g>
<!-- Node18 -->
<g id="node18" class="node">
<title>Node18</title>
<g id="a_node18"><a xlink:href="../../d7/da6/classJet.html#a56d57ba03087bdf86e3cd1edb0b58eef" target="_top" xlink:title="Jet::set_id">
<polygon fill="none" stroke="#000000" points="239.5,-156.5 239.5,-176.5 305.5,-176.5 305.5,-156.5 239.5,-156.5"/>
<text text-anchor="middle" x="272.5" y="-163.5" font-family="FreeSans" font-size="10.00" fill="#000000">Jet::set_id</text>
</a>
</g>
</g>
<!-- Node1&#45;&gt;Node18 -->
<g id="edge17" class="edge">
<title>Node1&#45;&gt;Node18</title>
<path fill="none" stroke="#191970" d="M85.9273,-382.0705C95.9626,-348.2714 132.2668,-240.8095 202,-186.5 209.8967,-180.3499 219.598,-176.091 229.2489,-173.1417"/>
<polygon fill="#191970" stroke="#191970" points="230.4315,-176.4497 239.2102,-170.518 228.6485,-169.6805 230.4315,-176.4497"/>
</g>
<!-- Node19 -->
<g id="node19" class="node">
<title>Node19</title>
<g id="a_node19"><a xlink:href="../../d7/da6/classJet.html#aab0ccab11d404ef8ca21dac07e3374c5" target="_top" xlink:title="Jet::set_px">
<polygon fill="none" stroke="#000000" points="237.5,-117.5 237.5,-137.5 307.5,-137.5 307.5,-117.5 237.5,-117.5"/>
<text text-anchor="middle" x="272.5" y="-124.5" font-family="FreeSans" font-size="10.00" fill="#000000">Jet::set_px</text>
</a>
</g>
</g>
<!-- Node1&#45;&gt;Node19 -->
<g id="edge18" class="edge">
<title>Node1&#45;&gt;Node19</title>
<path fill="none" stroke="#191970" d="M84.8652,-382.2847C92.2509,-344.8213 122.9928,-213.7145 202,-147.5 209.3041,-141.3786 218.3697,-137.1272 227.5407,-134.1754"/>
<polygon fill="#191970" stroke="#191970" points="228.7374,-137.4765 237.4551,-131.4557 226.8855,-130.7259 228.7374,-137.4765"/>
</g>
<!-- Node20 -->
<g id="node20" class="node">
<title>Node20</title>
<g id="a_node20"><a xlink:href="../../d7/da6/classJet.html#a146867bb6a46f36be96ed78bd7a808cd" target="_top" xlink:title="Jet::set_py">
<polygon fill="none" stroke="#000000" points="237.5,-78.5 237.5,-98.5 307.5,-98.5 307.5,-78.5 237.5,-78.5"/>
<text text-anchor="middle" x="272.5" y="-85.5" font-family="FreeSans" font-size="10.00" fill="#000000">Jet::set_py</text>
</a>
</g>
</g>
<!-- Node1&#45;&gt;Node20 -->
<g id="edge19" class="edge">
<title>Node1&#45;&gt;Node20</title>
<path fill="none" stroke="#191970" d="M84.1069,-382.4203C89.139,-341.5802 113.586,-186.8648 202,-108.5 209.1318,-102.1788 218.126,-97.8444 227.2821,-94.8755"/>
<polygon fill="#191970" stroke="#191970" points="228.4796,-98.1765 237.2005,-92.1603 226.6312,-91.4249 228.4796,-98.1765"/>
</g>
<!-- Node21 -->
<g id="node21" class="node">
<title>Node21</title>
<g id="a_node21"><a xlink:href="../../d7/da6/classJet.html#a9ffe659bc439362611df5d1cd495f663" target="_top" xlink:title="Jet::set_pz">
<polygon fill="none" stroke="#000000" points="238,-39.5 238,-59.5 307,-59.5 307,-39.5 238,-39.5"/>
<text text-anchor="middle" x="272.5" y="-46.5" font-family="FreeSans" font-size="10.00" fill="#000000">Jet::set_pz</text>
</a>
</g>
</g>
<!-- Node1&#45;&gt;Node21 -->
<g id="edge20" class="edge">
<title>Node1&#45;&gt;Node21</title>
<path fill="none" stroke="#191970" d="M83.5484,-382.2964C86.4955,-337.9409 104.2283,-160.0584 202,-69.5 209.2046,-62.8269 218.4739,-58.3597 227.9077,-55.3747"/>
<polygon fill="#191970" stroke="#191970" points="228.9515,-58.719 237.7187,-52.7704 227.1554,-51.9533 228.9515,-58.719"/>
</g>
<!-- Node22 -->
<g id="node22" class="node">
<title>Node22</title>
<g id="a_node22"><a xlink:href="../../d7/d97/classJetMap.html#a517ad9a98c7a0de34b2746c589eb74b9" target="_top" xlink:title="JetMap::size">
<polygon fill="none" stroke="#000000" points="233.5,-.5 233.5,-20.5 311.5,-20.5 311.5,-.5 233.5,-.5"/>
<text text-anchor="middle" x="272.5" y="-7.5" font-family="FreeSans" font-size="10.00" fill="#000000">JetMap::size</text>
</a>
</g>
</g>
<!-- Node1&#45;&gt;Node22 -->
<g id="edge21" class="edge">
<title>Node1&#45;&gt;Node22</title>
<path fill="none" stroke="#191970" d="M85.0065,-382.3297C95.7044,-329.066 147.5851,-82.7192 202,-30.5 208.004,-24.7383 215.542,-20.6152 223.4383,-17.6695"/>
<polygon fill="#191970" stroke="#191970" points="224.6675,-20.9524 233.1687,-14.6294 222.5799,-14.2709 224.6675,-20.9524"/>
</g>
<!-- Node9 -->
<g id="node9" class="node">
<title>Node9</title>
<g id="a_node9"><a xlink:href="../../d9/dd8/classRawTower.html#acb57721d39800bb8a23ffc10ae66d198" target="_top" xlink:title="RawTower::get_id">
<polygon fill="none" stroke="#000000" points="379,-519.5 379,-539.5 483,-539.5 483,-519.5 379,-519.5"/>
<text text-anchor="middle" x="431" y="-526.5" font-family="FreeSans" font-size="10.00" fill="#000000">RawTower::get_id</text>
</a>
</g>
</g>
<!-- Node8&#45;&gt;Node9 -->
<g id="edge8" class="edge">
<title>Node8&#45;&gt;Node9</title>
<path fill="none" stroke="#191970" d="M328.8275,-529.5C341.6759,-529.5 355.404,-529.5 368.4934,-529.5"/>
<polygon fill="#191970" stroke="#191970" points="368.825,-533.0001 378.825,-529.5 368.825,-526.0001 368.825,-533.0001"/>
</g>
</g>
</svg>
