<?xml version="1.0" encoding="UTF-8" standalone="no"?>
<!DOCTYPE svg PUBLIC "-//W3C//DTD SVG 1.1//EN"
 "http://www.w3.org/Graphics/SVG/1.1/DTD/svg11.dtd">
<!-- Generated by graphviz version 2.40.1 (20161225.0304)
 -->
<!-- Title: PHG4DetectorGroupSubsystem Pages: 1 -->
<svg width="418pt" height="257pt"
 viewBox="0.00 0.00 417.50 257.00" xmlns="http://www.w3.org/2000/svg" xmlns:xlink="http://www.w3.org/1999/xlink">
<g id="graph0" class="graph" transform="scale(1 1) rotate(0) translate(4 253)">
<title>PHG4DetectorGroupSubsystem</title>
<!-- Node1 -->
<g id="node1" class="node">
<title>Node1</title>
<polygon fill="#bfbfbf" stroke="#000000" points="110,-57.5 110,-77.5 285,-77.5 285,-57.5 110,-57.5"/>
<text text-anchor="middle" x="197.5" y="-64.5" font-family="FreeSans" font-size="10.00" fill="#000000">PHG4DetectorGroupSubsystem</text>
</g>
<!-- Node5 -->
<g id="node5" class="node">
<title>Node5</title>
<g id="a_node5"><a xlink:href="../../d6/d09/classPHG4InttSubsystem.html" target="_top" xlink:title="PHG4InttSubsystem">
<polygon fill="none" stroke="#000000" points="0,-.5 0,-20.5 117,-20.5 117,-.5 0,-.5"/>
<text text-anchor="middle" x="58.5" y="-7.5" font-family="FreeSans" font-size="10.00" fill="#000000">PHG4InttSubsystem</text>
</a>
</g>
</g>
<!-- Node1&#45;&gt;Node5 -->
<g id="edge4" class="edge">
<title>Node1&#45;&gt;Node5</title>
<path fill="none" stroke="#191970" d="M163.5647,-53.5841C138.7357,-43.4024 105.617,-29.8214 83.2528,-20.6504"/>
<polygon fill="#191970" stroke="#191970" points="162.3893,-56.8849 172.9696,-57.4408 165.0452,-50.4083 162.3893,-56.8849"/>
</g>
<!-- Node6 -->
<g id="node6" class="node">
<title>Node6</title>
<g id="a_node6"><a xlink:href="../../d9/dbf/classPHG4MvtxSubsystem.html" target="_top" xlink:title="PHG4MvtxSubsystem">
<polygon fill="none" stroke="#000000" points="135.5,-.5 135.5,-20.5 259.5,-20.5 259.5,-.5 135.5,-.5"/>
<text text-anchor="middle" x="197.5" y="-7.5" font-family="FreeSans" font-size="10.00" fill="#000000">PHG4MvtxSubsystem</text>
</a>
</g>
</g>
<!-- Node1&#45;&gt;Node6 -->
<g id="edge5" class="edge">
<title>Node1&#45;&gt;Node6</title>
<path fill="none" stroke="#191970" d="M197.5,-47.1771C197.5,-38.1625 197.5,-27.9556 197.5,-20.6022"/>
<polygon fill="#191970" stroke="#191970" points="194.0001,-47.3095 197.5,-57.3095 201.0001,-47.3096 194.0001,-47.3095"/>
</g>
<!-- Node7 -->
<g id="node7" class="node">
<title>Node7</title>
<g id="a_node7"><a xlink:href="../../dd/d21/classPHG4PSTOFSubsystem.html" target="_top" xlink:title="Fun4All module to simulate the Barrel PSTOF detector.">
<polygon fill="none" stroke="#000000" points="277.5,-.5 277.5,-20.5 409.5,-20.5 409.5,-.5 277.5,-.5"/>
<text text-anchor="middle" x="343.5" y="-7.5" font-family="FreeSans" font-size="10.00" fill="#000000">PHG4PSTOFSubsystem</text>
</a>
</g>
</g>
<!-- Node1&#45;&gt;Node7 -->
<g id="edge6" class="edge">
<title>Node1&#45;&gt;Node7</title>
<path fill="none" stroke="#191970" d="M232.7986,-53.719C258.9156,-43.5227 293.9063,-29.8619 317.5007,-20.6504"/>
<polygon fill="#191970" stroke="#191970" points="231.3082,-50.5436 223.2658,-57.4408 233.8539,-57.0643 231.3082,-50.5436"/>
</g>
<!-- Node2 -->
<g id="node2" class="node">
<title>Node2</title>
<g id="a_node2"><a xlink:href="../../db/df7/classPHG4Subsystem.html" target="_top" xlink:title="PHG4Subsystem">
<polygon fill="none" stroke="#000000" points="147.5,-114.5 147.5,-134.5 247.5,-134.5 247.5,-114.5 147.5,-114.5"/>
<text text-anchor="middle" x="197.5" y="-121.5" font-family="FreeSans" font-size="10.00" fill="#000000">PHG4Subsystem</text>
</a>
</g>
</g>
<!-- Node2&#45;&gt;Node1 -->
<g id="edge1" class="edge">
<title>Node2&#45;&gt;Node1</title>
<path fill="none" stroke="#191970" d="M197.5,-104.1771C197.5,-95.1625 197.5,-84.9556 197.5,-77.6022"/>
<polygon fill="#191970" stroke="#191970" points="194.0001,-104.3095 197.5,-114.3095 201.0001,-104.3096 194.0001,-104.3095"/>
</g>
<!-- Node3 -->
<g id="node3" class="node">
<title>Node3</title>
<g id="a_node3"><a xlink:href="../../d0/d32/classSubsysReco.html" target="_top" xlink:title="SubsysReco">
<polygon fill="none" stroke="#000000" points="159.5,-171.5 159.5,-191.5 235.5,-191.5 235.5,-171.5 159.5,-171.5"/>
<text text-anchor="middle" x="197.5" y="-178.5" font-family="FreeSans" font-size="10.00" fill="#000000">SubsysReco</text>
</a>
</g>
</g>
<!-- Node3&#45;&gt;Node2 -->
<g id="edge2" class="edge">
<title>Node3&#45;&gt;Node2</title>
<path fill="none" stroke="#191970" d="M197.5,-161.1771C197.5,-152.1625 197.5,-141.9556 197.5,-134.6022"/>
<polygon fill="#191970" stroke="#191970" points="194.0001,-161.3095 197.5,-171.3095 201.0001,-161.3096 194.0001,-161.3095"/>
</g>
<!-- Node4 -->
<g id="node4" class="node">
<title>Node4</title>
<g id="a_node4"><a xlink:href="../../d5/dec/classFun4AllBase.html" target="_top" xlink:title="Fun4AllBase">
<polygon fill="none" stroke="#000000" points="158.5,-228.5 158.5,-248.5 236.5,-248.5 236.5,-228.5 158.5,-228.5"/>
<text text-anchor="middle" x="197.5" y="-235.5" font-family="FreeSans" font-size="10.00" fill="#000000">Fun4AllBase</text>
</a>
</g>
</g>
<!-- Node4&#45;&gt;Node3 -->
<g id="edge3" class="edge">
<title>Node4&#45;&gt;Node3</title>
<path fill="none" stroke="#191970" d="M197.5,-218.1771C197.5,-209.1625 197.5,-198.9556 197.5,-191.6022"/>
<polygon fill="#191970" stroke="#191970" points="194.0001,-218.3095 197.5,-228.3095 201.0001,-218.3096 194.0001,-218.3095"/>
</g>
</g>
</svg>
