<?xml version="1.0" encoding="UTF-8" standalone="no"?>
<!DOCTYPE svg PUBLIC "-//W3C//DTD SVG 1.1//EN"
 "http://www.w3.org/Graphics/SVG/1.1/DTD/svg11.dtd">
<!-- Generated by graphviz version 2.40.1 (20161225.0304)
 -->
<!-- Title: tileTree::tileTree Pages: 1 -->
<svg width="405pt" height="29pt"
 viewBox="0.00 0.00 405.00 29.00" xmlns="http://www.w3.org/2000/svg" xmlns:xlink="http://www.w3.org/1999/xlink">
<g id="graph0" class="graph" transform="scale(1 1) rotate(0) translate(4 25)">
<title>tileTree::tileTree</title>
<!-- Node1 -->
<g id="node1" class="node">
<title>Node1</title>
<polygon fill="#bfbfbf" stroke="#000000" points="0,-.5 0,-20.5 97,-20.5 97,-.5 0,-.5"/>
<text text-anchor="middle" x="48.5" y="-7.5" font-family="FreeSans" font-size="10.00" fill="#000000">tileTree::tileTree</text>
</g>
<!-- Node2 -->
<g id="node2" class="node">
<title>Node2</title>
<g id="a_node2"><a xlink:href="../../d6/da5/classtileTree.html#a45c646c220b239c31be1c7efa3c137db" target="_top" xlink:title="tileTree::getInstance">
<polygon fill="none" stroke="#000000" points="133,-.5 133,-20.5 252,-20.5 252,-.5 133,-.5"/>
<text text-anchor="middle" x="192.5" y="-7.5" font-family="FreeSans" font-size="10.00" fill="#000000">tileTree::getInstance</text>
</a>
</g>
</g>
<!-- Node1&#45;&gt;Node2 -->
<g id="edge1" class="edge">
<title>Node1&#45;&gt;Node2</title>
<path fill="none" stroke="#191970" d="M107.3448,-10.5C115.7461,-10.5 124.3948,-10.5 132.8122,-10.5"/>
<polygon fill="#191970" stroke="#191970" points="107.2519,-7.0001 97.2518,-10.5 107.2518,-14.0001 107.2519,-7.0001"/>
</g>
<!-- Node3 -->
<g id="node3" class="node">
<title>Node3</title>
<g id="a_node3"><a xlink:href="../../d0/de7/classtileHelper.html#a9800ebae544d8f505cda101b952a896f" target="_top" xlink:title="tileHelper::evLoop">
<polygon fill="none" stroke="#000000" points="288,-.5 288,-20.5 397,-20.5 397,-.5 288,-.5"/>
<text text-anchor="middle" x="342.5" y="-7.5" font-family="FreeSans" font-size="10.00" fill="#000000">tileHelper::evLoop</text>
</a>
</g>
</g>
<!-- Node2&#45;&gt;Node3 -->
<g id="edge2" class="edge">
<title>Node2&#45;&gt;Node3</title>
<path fill="none" stroke="#191970" d="M262.2386,-10.5C270.8367,-10.5 279.5274,-10.5 287.8559,-10.5"/>
<polygon fill="#191970" stroke="#191970" points="262.215,-7.0001 252.215,-10.5 262.2149,-14.0001 262.215,-7.0001"/>
</g>
</g>
</svg>
