<?xml version="1.0" encoding="UTF-8" standalone="no"?>
<!DOCTYPE svg PUBLIC "-//W3C//DTD SVG 1.1//EN"
 "http://www.w3.org/Graphics/SVG/1.1/DTD/svg11.dtd">
<!-- Generated by graphviz version 2.40.1 (20161225.0304)
 -->
<!-- Title: coresoftware/blob/master/simulation/g4simulation/g4intt/PHG4InttFPHXParameterisation.cc Pages: 1 -->
<svg width="633pt" height="167pt"
 viewBox="0.00 0.00 633.00 167.00" xmlns="http://www.w3.org/2000/svg" xmlns:xlink="http://www.w3.org/1999/xlink">
<g id="graph0" class="graph" transform="scale(1 1) rotate(0) translate(4 163)">
<title>coresoftware/blob/master/simulation/g4simulation/g4intt/PHG4InttFPHXParameterisation.cc</title>
<!-- Node1 -->
<g id="node1" class="node">
<title>Node1</title>
<polygon fill="#bfbfbf" stroke="#000000" points="156,-114.5 156,-158.5 381,-158.5 381,-114.5 156,-114.5"/>
<text text-anchor="start" x="164" y="-145.5" font-family="FreeSans" font-size="10.00" fill="#000000">coresoftware/blob/master</text>
<text text-anchor="start" x="164" y="-133.5" font-family="FreeSans" font-size="10.00" fill="#000000">/simulation/g4simulation</text>
<text text-anchor="middle" x="268.5" y="-121.5" font-family="FreeSans" font-size="10.00" fill="#000000">/g4intt/PHG4InttFPHXParameterisation.cc</text>
</g>
<!-- Node2 -->
<g id="node2" class="node">
<title>Node2</title>
<g id="a_node2"><a xlink:href="../../d6/da4/PHG4InttFPHXParameterisation_8h.html" target="_top" xlink:title="PHG4InttFPHXParameterisation.h">
<polygon fill="none" stroke="#000000" points="86,-57.5 86,-77.5 269,-77.5 269,-57.5 86,-57.5"/>
<text text-anchor="middle" x="177.5" y="-64.5" font-family="FreeSans" font-size="10.00" fill="#000000">PHG4InttFPHXParameterisation.h</text>
</a>
</g>
</g>
<!-- Node1&#45;&gt;Node2 -->
<g id="edge1" class="edge">
<title>Node1&#45;&gt;Node2</title>
<path fill="none" stroke="#191970" d="M239.4568,-114.4783C226.3978,-104.5763 211.2484,-93.0895 199.1988,-83.9529"/>
<polygon fill="#191970" stroke="#191970" points="201.1299,-81.0248 191.0468,-77.7718 196.9005,-86.6027 201.1299,-81.0248"/>
</g>
<!-- Node3 -->
<g id="node3" class="node">
<title>Node3</title>
<polygon fill="none" stroke="#bfbfbf" points="0,-.5 0,-20.5 115,-20.5 115,-.5 0,-.5"/>
<text text-anchor="middle" x="57.5" y="-7.5" font-family="FreeSans" font-size="10.00" fill="#000000">Geant4/G4Types.hh</text>
</g>
<!-- Node1&#45;&gt;Node3 -->
<g id="edge5" class="edge">
<title>Node1&#45;&gt;Node3</title>
<path fill="none" stroke="#191970" d="M165.4651,-114.4849C127.2409,-104.423 89.9064,-91.696 76.5,-78 64.2849,-65.5211 59.7933,-45.8352 58.2049,-30.9362"/>
<polygon fill="#191970" stroke="#191970" points="61.6759,-30.4015 57.4764,-20.6745 54.6935,-30.8973 61.6759,-30.4015"/>
</g>
<!-- Node5 -->
<g id="node5" class="node">
<title>Node5</title>
<polygon fill="none" stroke="#bfbfbf" points="287,-57.5 287,-77.5 434,-77.5 434,-57.5 287,-57.5"/>
<text text-anchor="middle" x="360.5" y="-64.5" font-family="FreeSans" font-size="10.00" fill="#000000">Geant4/G4ThreeVector.hh</text>
</g>
<!-- Node1&#45;&gt;Node5 -->
<g id="edge4" class="edge">
<title>Node1&#45;&gt;Node5</title>
<path fill="none" stroke="#191970" d="M297.8623,-114.4783C311.0649,-104.5763 326.3807,-93.0895 338.5628,-83.9529"/>
<polygon fill="#191970" stroke="#191970" points="340.9043,-86.5718 346.8043,-77.7718 336.7043,-80.9718 340.9043,-86.5718"/>
</g>
<!-- Node6 -->
<g id="node6" class="node">
<title>Node6</title>
<polygon fill="none" stroke="#bfbfbf" points="452,-57.5 452,-77.5 625,-77.5 625,-57.5 452,-57.5"/>
<text text-anchor="middle" x="538.5" y="-64.5" font-family="FreeSans" font-size="10.00" fill="#000000">Geant4/G4VPhysicalVolume.hh</text>
</g>
<!-- Node1&#45;&gt;Node6 -->
<g id="edge6" class="edge">
<title>Node1&#45;&gt;Node6</title>
<path fill="none" stroke="#191970" d="M354.672,-114.4783C398.9674,-103.1583 451.3682,-89.767 488.8673,-80.1839"/>
<polygon fill="#191970" stroke="#191970" points="490.2077,-83.4539 499.0297,-77.5869 488.4744,-76.6719 490.2077,-83.4539"/>
</g>
<!-- Node2&#45;&gt;Node3 -->
<g id="edge2" class="edge">
<title>Node2&#45;&gt;Node3</title>
<path fill="none" stroke="#191970" d="M156.3226,-57.4408C137.4178,-48.461 109.5017,-35.2008 88.1576,-25.0624"/>
<polygon fill="#191970" stroke="#191970" points="89.4038,-21.7796 78.8693,-20.6504 86.4004,-28.1025 89.4038,-21.7796"/>
</g>
<!-- Node4 -->
<g id="node4" class="node">
<title>Node4</title>
<polygon fill="none" stroke="#bfbfbf" points="133,-.5 133,-20.5 326,-20.5 326,-.5 133,-.5"/>
<text text-anchor="middle" x="229.5" y="-7.5" font-family="FreeSans" font-size="10.00" fill="#000000">Geant4/G4VPVParameterisation.hh</text>
</g>
<!-- Node2&#45;&gt;Node4 -->
<g id="edge3" class="edge">
<title>Node2&#45;&gt;Node4</title>
<path fill="none" stroke="#191970" d="M186.7966,-57.3095C194.1911,-49.204 204.7116,-37.672 213.4598,-28.0826"/>
<polygon fill="#191970" stroke="#191970" points="216.13,-30.3488 220.2839,-20.6022 210.9586,-25.631 216.13,-30.3488"/>
</g>
</g>
</svg>
