<?xml version="1.0" encoding="UTF-8" standalone="no"?>
<!DOCTYPE svg PUBLIC "-//W3C//DTD SVG 1.1//EN"
 "http://www.w3.org/Graphics/SVG/1.1/DTD/svg11.dtd">
<!-- Generated by graphviz version 2.40.1 (20161225.0304)
 -->
<!-- Title: analysis/blob/master/TPC/groot/groot.h Pages: 1 -->
<svg width="1940pt" height="110pt"
 viewBox="0.00 0.00 1939.50 110.00" xmlns="http://www.w3.org/2000/svg" xmlns:xlink="http://www.w3.org/1999/xlink">
<g id="graph0" class="graph" transform="scale(1 1) rotate(0) translate(4 106)">
<title>analysis/blob/master/TPC/groot/groot.h</title>
<!-- Node1 -->
<g id="node1" class="node">
<title>Node1</title>
<polygon fill="#bfbfbf" stroke="#000000" points="843,-69.5 843,-101.5 965,-101.5 965,-69.5 843,-69.5"/>
<text text-anchor="start" x="851" y="-88.5" font-family="FreeSans" font-size="10.00" fill="#000000">analysis/blob/master</text>
<text text-anchor="middle" x="904" y="-76.5" font-family="FreeSans" font-size="10.00" fill="#000000">/TPC/groot/groot.h</text>
</g>
<!-- Node2 -->
<g id="node2" class="node">
<title>Node2</title>
<g id="a_node2"><a xlink:href="../../d7/dd8/ABlob_8C.html" target="_top" xlink:title="analysis/blob/master\l/TPC/groot/ABlob.C">
<polygon fill="none" stroke="#000000" points="0,-.5 0,-32.5 122,-32.5 122,-.5 0,-.5"/>
<text text-anchor="start" x="8" y="-19.5" font-family="FreeSans" font-size="10.00" fill="#000000">analysis/blob/master</text>
<text text-anchor="middle" x="61" y="-7.5" font-family="FreeSans" font-size="10.00" fill="#000000">/TPC/groot/ABlob.C</text>
</a>
</g>
</g>
<!-- Node1&#45;&gt;Node2 -->
<g id="edge1" class="edge">
<title>Node1&#45;&gt;Node2</title>
<path fill="none" stroke="#191970" d="M832.1416,-84.5371C695.0524,-81.8354 387.0193,-71.6021 131,-33 128.1604,-32.5718 125.2659,-32.0874 122.3495,-31.5603"/>
<polygon fill="#191970" stroke="#191970" points="832.4395,-88.0433 842.504,-84.7333 832.572,-81.0445 832.4395,-88.0433"/>
</g>
<!-- Node3 -->
<g id="node3" class="node">
<title>Node3</title>
<g id="a_node3"><a xlink:href="../../d7/d74/AZigzag_8C.html" target="_top" xlink:title="analysis/blob/master\l/TPC/groot/AZigzag.C">
<polygon fill="none" stroke="#000000" points="140,-.5 140,-32.5 264,-32.5 264,-.5 140,-.5"/>
<text text-anchor="start" x="148" y="-19.5" font-family="FreeSans" font-size="10.00" fill="#000000">analysis/blob/master</text>
<text text-anchor="middle" x="202" y="-7.5" font-family="FreeSans" font-size="10.00" fill="#000000">/TPC/groot/AZigzag.C</text>
</a>
</g>
</g>
<!-- Node1&#45;&gt;Node3 -->
<g id="edge2" class="edge">
<title>Node1&#45;&gt;Node3</title>
<path fill="none" stroke="#191970" d="M832.4444,-82.9339C715.0179,-77.9656 474.345,-64.6002 273,-33 270.1246,-32.5487 267.1927,-32.0453 264.2378,-31.5029"/>
<polygon fill="#191970" stroke="#191970" points="832.5988,-86.4432 842.7354,-83.3611 832.8892,-79.4492 832.5988,-86.4432"/>
</g>
<!-- Node4 -->
<g id="node4" class="node">
<title>Node4</title>
<g id="a_node4"><a xlink:href="../../d5/d3b/FillBlobHist_8C.html" target="_top" xlink:title="analysis/blob/master\l/TPC/groot/FillBlobHist.C">
<polygon fill="none" stroke="#000000" points="282.5,-.5 282.5,-32.5 421.5,-32.5 421.5,-.5 282.5,-.5"/>
<text text-anchor="start" x="290.5" y="-19.5" font-family="FreeSans" font-size="10.00" fill="#000000">analysis/blob/master</text>
<text text-anchor="middle" x="352" y="-7.5" font-family="FreeSans" font-size="10.00" fill="#000000">/TPC/groot/FillBlobHist.C</text>
</a>
</g>
</g>
<!-- Node1&#45;&gt;Node4 -->
<g id="edge3" class="edge">
<title>Node1&#45;&gt;Node4</title>
<path fill="none" stroke="#191970" d="M832.6166,-79.793C739.5896,-71.853 572.0221,-55.8302 430,-33 427.2668,-32.5606 424.4846,-32.0892 421.6778,-31.5934"/>
<polygon fill="#191970" stroke="#191970" points="832.4994,-83.2955 842.7591,-80.6518 833.09,-76.3205 832.4994,-83.2955"/>
</g>
<!-- Node5 -->
<g id="node5" class="node">
<title>Node5</title>
<g id="a_node5"><a xlink:href="../../dc/df3/FillCalHist_8C.html" target="_top" xlink:title="analysis/blob/master\l/TPC/groot/FillCalHist.C">
<polygon fill="none" stroke="#000000" points="439.5,-.5 439.5,-32.5 572.5,-32.5 572.5,-.5 439.5,-.5"/>
<text text-anchor="start" x="447.5" y="-19.5" font-family="FreeSans" font-size="10.00" fill="#000000">analysis/blob/master</text>
<text text-anchor="middle" x="506" y="-7.5" font-family="FreeSans" font-size="10.00" fill="#000000">/TPC/groot/FillCalHist.C</text>
</a>
</g>
</g>
<!-- Node1&#45;&gt;Node5 -->
<g id="edge4" class="edge">
<title>Node1&#45;&gt;Node5</title>
<path fill="none" stroke="#191970" d="M832.5085,-74.9379C767.132,-65.0198 667.833,-49.3031 582,-33 578.9491,-32.4205 575.833,-31.812 572.688,-31.1843"/>
<polygon fill="#191970" stroke="#191970" points="832.2917,-78.4449 842.7025,-76.4792 833.3381,-71.5235 832.2917,-78.4449"/>
</g>
<!-- Node6 -->
<g id="node6" class="node">
<title>Node6</title>
<g id="a_node6"><a xlink:href="../../d3/dfb/FillHoughHist_8C.html" target="_top" xlink:title="analysis/blob/master\l/TPC/groot/FillHoughHist.C">
<polygon fill="none" stroke="#000000" points="591,-.5 591,-32.5 741,-32.5 741,-.5 591,-.5"/>
<text text-anchor="start" x="599" y="-19.5" font-family="FreeSans" font-size="10.00" fill="#000000">analysis/blob/master</text>
<text text-anchor="middle" x="666" y="-7.5" font-family="FreeSans" font-size="10.00" fill="#000000">/TPC/groot/FillHoughHist.C</text>
</a>
</g>
</g>
<!-- Node1&#45;&gt;Node6 -->
<g id="edge5" class="edge">
<title>Node1&#45;&gt;Node6</title>
<path fill="none" stroke="#191970" d="M839.1324,-66.6938C802.2311,-55.9956 756.5044,-42.7387 721.3126,-32.536"/>
<polygon fill="#191970" stroke="#191970" points="838.2207,-70.0736 848.7998,-69.4966 840.1699,-63.3504 838.2207,-70.0736"/>
</g>
<!-- Node7 -->
<g id="node7" class="node">
<title>Node7</title>
<g id="a_node7"><a xlink:href="../../d6/dce/FillRawHist_8C.html" target="_top" xlink:title="analysis/blob/master\l/TPC/groot/FillRawHist.C">
<polygon fill="none" stroke="#000000" points="759,-.5 759,-32.5 897,-32.5 897,-.5 759,-.5"/>
<text text-anchor="start" x="767" y="-19.5" font-family="FreeSans" font-size="10.00" fill="#000000">analysis/blob/master</text>
<text text-anchor="middle" x="828" y="-7.5" font-family="FreeSans" font-size="10.00" fill="#000000">/TPC/groot/FillRawHist.C</text>
</a>
</g>
</g>
<!-- Node1&#45;&gt;Node7 -->
<g id="edge6" class="edge">
<title>Node1&#45;&gt;Node7</title>
<path fill="none" stroke="#191970" d="M878.8347,-62.6526C868.0197,-52.8337 855.6331,-41.588 845.7946,-32.6557"/>
<polygon fill="#191970" stroke="#191970" points="876.6165,-65.366 886.373,-69.4966 881.3219,-60.1833 876.6165,-65.366"/>
</g>
<!-- Node8 -->
<g id="node8" class="node">
<title>Node8</title>
<g id="a_node8"><a xlink:href="../../da/d8e/FindBlobs_8C.html" target="_top" xlink:title="analysis/blob/master\l/TPC/groot/FindBlobs.C">
<polygon fill="none" stroke="#000000" points="915,-.5 915,-32.5 1047,-32.5 1047,-.5 915,-.5"/>
<text text-anchor="start" x="923" y="-19.5" font-family="FreeSans" font-size="10.00" fill="#000000">analysis/blob/master</text>
<text text-anchor="middle" x="981" y="-7.5" font-family="FreeSans" font-size="10.00" fill="#000000">/TPC/groot/FindBlobs.C</text>
</a>
</g>
</g>
<!-- Node1&#45;&gt;Node8 -->
<g id="edge7" class="edge">
<title>Node1&#45;&gt;Node8</title>
<path fill="none" stroke="#191970" d="M929.4964,-62.6526C940.4537,-52.8337 953.0033,-41.588 962.9712,-32.6557"/>
<polygon fill="#191970" stroke="#191970" points="926.9705,-60.2164 921.8589,-69.4966 931.642,-65.4295 926.9705,-60.2164"/>
</g>
<!-- Node9 -->
<g id="node9" class="node">
<title>Node9</title>
<g id="a_node9"><a xlink:href="../../d4/df3/groot_8C.html" target="_top" xlink:title="analysis/blob/master\l/TPC/groot/groot.C">
<polygon fill="none" stroke="#000000" points="1065,-.5 1065,-32.5 1187,-32.5 1187,-.5 1065,-.5"/>
<text text-anchor="start" x="1073" y="-19.5" font-family="FreeSans" font-size="10.00" fill="#000000">analysis/blob/master</text>
<text text-anchor="middle" x="1126" y="-7.5" font-family="FreeSans" font-size="10.00" fill="#000000">/TPC/groot/groot.C</text>
</a>
</g>
</g>
<!-- Node1&#45;&gt;Node9 -->
<g id="edge8" class="edge">
<title>Node1&#45;&gt;Node9</title>
<path fill="none" stroke="#191970" d="M965.3874,-66.4201C999.6526,-55.7701 1041.8593,-42.6518 1074.4059,-32.536"/>
<polygon fill="#191970" stroke="#191970" points="963.9998,-63.1862 955.4893,-69.4966 966.0775,-69.8707 963.9998,-63.1862"/>
</g>
<!-- Node10 -->
<g id="node10" class="node">
<title>Node10</title>
<g id="a_node10"><a xlink:href="../../d8/dde/HoughBinSize_8C.html" target="_top" xlink:title="analysis/blob/master\l/TPC/groot/HoughBinSize.C">
<polygon fill="none" stroke="#000000" points="1205,-.5 1205,-32.5 1359,-32.5 1359,-.5 1205,-.5"/>
<text text-anchor="start" x="1213" y="-19.5" font-family="FreeSans" font-size="10.00" fill="#000000">analysis/blob/master</text>
<text text-anchor="middle" x="1282" y="-7.5" font-family="FreeSans" font-size="10.00" fill="#000000">/TPC/groot/HoughBinSize.C</text>
</a>
</g>
</g>
<!-- Node1&#45;&gt;Node10 -->
<g id="edge9" class="edge">
<title>Node1&#45;&gt;Node10</title>
<path fill="none" stroke="#191970" d="M975.2645,-72.9264C1034.413,-62.4329 1120.7228,-46.9881 1196,-33 1198.8399,-32.4723 1201.732,-31.932 1204.6529,-31.3839"/>
<polygon fill="#191970" stroke="#191970" points="974.5146,-69.5046 965.2791,-74.6966 975.7366,-76.3972 974.5146,-69.5046"/>
</g>
<!-- Node11 -->
<g id="node11" class="node">
<title>Node11</title>
<g id="a_node11"><a xlink:href="../../dd/d4f/MyFavoriteMartin_8C.html" target="_top" xlink:title="analysis/blob/master\l/TPC/groot/MyFavoriteMartin.C">
<polygon fill="none" stroke="#000000" points="1377,-.5 1377,-32.5 1547,-32.5 1547,-.5 1377,-.5"/>
<text text-anchor="start" x="1385" y="-19.5" font-family="FreeSans" font-size="10.00" fill="#000000">analysis/blob/master</text>
<text text-anchor="middle" x="1462" y="-7.5" font-family="FreeSans" font-size="10.00" fill="#000000">/TPC/groot/MyFavoriteMartin.C</text>
</a>
</g>
</g>
<!-- Node1&#45;&gt;Node11 -->
<g id="edge10" class="edge">
<title>Node1&#45;&gt;Node11</title>
<path fill="none" stroke="#191970" d="M975.28,-78.8C1066.5154,-69.9113 1229.3675,-52.9911 1368,-33 1370.9519,-32.5743 1373.9534,-32.127 1376.9829,-31.663"/>
<polygon fill="#191970" stroke="#191970" points="974.9418,-75.3163 965.3264,-79.7656 975.6177,-82.2836 974.9418,-75.3163"/>
</g>
<!-- Node12 -->
<g id="node12" class="node">
<title>Node12</title>
<g id="a_node12"><a xlink:href="../../d7/d2f/OutputVisualsTPC_8C.html" target="_top" xlink:title="analysis/blob/master\l/TPC/groot/OutputVisualsTPC.C">
<polygon fill="none" stroke="#000000" points="1565.5,-.5 1565.5,-32.5 1738.5,-32.5 1738.5,-.5 1565.5,-.5"/>
<text text-anchor="start" x="1573.5" y="-19.5" font-family="FreeSans" font-size="10.00" fill="#000000">analysis/blob/master</text>
<text text-anchor="middle" x="1652" y="-7.5" font-family="FreeSans" font-size="10.00" fill="#000000">/TPC/groot/OutputVisualsTPC.C</text>
</a>
</g>
</g>
<!-- Node1&#45;&gt;Node12 -->
<g id="edge11" class="edge">
<title>Node1&#45;&gt;Node12</title>
<path fill="none" stroke="#191970" d="M975.4891,-81.8507C1095.6986,-75.2432 1345.7985,-59.4727 1556,-33 1559.104,-32.6091 1562.2608,-32.1885 1565.4464,-31.7446"/>
<polygon fill="#191970" stroke="#191970" points="975.1082,-78.3662 965.3135,-82.4052 975.4892,-85.3558 975.1082,-78.3662"/>
</g>
<!-- Node13 -->
<g id="node13" class="node">
<title>Node13</title>
<g id="a_node13"><a xlink:href="../../de/d93/ReconstructTracks_8C.html" target="_top" xlink:title="analysis/blob/master\l/TPC/groot/ReconstructTracks.C">
<polygon fill="none" stroke="#000000" points="1756.5,-.5 1756.5,-32.5 1931.5,-32.5 1931.5,-.5 1756.5,-.5"/>
<text text-anchor="start" x="1764.5" y="-19.5" font-family="FreeSans" font-size="10.00" fill="#000000">analysis/blob/master</text>
<text text-anchor="middle" x="1844" y="-7.5" font-family="FreeSans" font-size="10.00" fill="#000000">/TPC/groot/ReconstructTracks.C</text>
</a>
</g>
</g>
<!-- Node1&#45;&gt;Node13 -->
<g id="edge12" class="edge">
<title>Node1&#45;&gt;Node13</title>
<path fill="none" stroke="#191970" d="M975.2418,-83.6671C1120.8402,-79.3492 1462.8364,-66.2767 1748,-33 1750.7715,-32.6766 1753.5846,-32.3263 1756.4223,-31.954"/>
<polygon fill="#191970" stroke="#191970" points="974.9952,-80.1727 965.1016,-83.963 975.1994,-87.1698 974.9952,-80.1727"/>
</g>
</g>
</svg>
