<?xml version="1.0" encoding="UTF-8" standalone="no"?>
<!DOCTYPE svg PUBLIC "-//W3C//DTD SVG 1.1//EN"
 "http://www.w3.org/Graphics/SVG/1.1/DTD/svg11.dtd">
<!-- Generated by graphviz version 2.40.1 (20161225.0304)
 -->
<!-- Title: GetRAA Pages: 1 -->
<svg width="436pt" height="87pt"
 viewBox="0.00 0.00 436.00 87.00" xmlns="http://www.w3.org/2000/svg" xmlns:xlink="http://www.w3.org/1999/xlink">
<g id="graph0" class="graph" transform="scale(1 1) rotate(0) translate(4 83)">
<title>GetRAA</title>
<!-- Node1 -->
<g id="node1" class="node">
<title>Node1</title>
<polygon fill="#bfbfbf" stroke="#000000" points="0,-19.5 0,-39.5 55,-39.5 55,-19.5 0,-19.5"/>
<text text-anchor="middle" x="27.5" y="-26.5" font-family="FreeSans" font-size="10.00" fill="#000000">GetRAA</text>
</g>
<!-- Node2 -->
<g id="node2" class="node">
<title>Node2</title>
<g id="a_node2"><a xlink:href="../../d1/d4a/Draw__HFJetTruth_8C.html#a7d6873d890f9ea4fc341f980d01ca445" target="_top" xlink:title="CrossSection2RAA">
<polygon fill="none" stroke="#000000" points="114.5,-39.5 114.5,-59.5 223.5,-59.5 223.5,-39.5 114.5,-39.5"/>
<text text-anchor="middle" x="169" y="-46.5" font-family="FreeSans" font-size="10.00" fill="#000000">CrossSection2RAA</text>
</a>
</g>
</g>
<!-- Node1&#45;&gt;Node2 -->
<g id="edge1" class="edge">
<title>Node1&#45;&gt;Node2</title>
<path fill="none" stroke="#191970" d="M65.0811,-34.8118C80.1367,-36.9398 97.7824,-39.4339 114.2157,-41.7566"/>
<polygon fill="#191970" stroke="#191970" points="65.51,-31.3377 55.1185,-33.4037 64.5303,-38.2688 65.51,-31.3377"/>
</g>
<!-- Node5 -->
<g id="node5" class="node">
<title>Node5</title>
<g id="a_node5"><a xlink:href="../../d1/d4a/Draw__HFJetTruth_8C.html#a63ec22d68a397ddc21d053eccf4c5943" target="_top" xlink:title="CrossSection2RAA_Proposal">
<polygon fill="none" stroke="#000000" points="91,-.5 91,-20.5 247,-20.5 247,-.5 91,-.5"/>
<text text-anchor="middle" x="169" y="-7.5" font-family="FreeSans" font-size="10.00" fill="#000000">CrossSection2RAA_Proposal</text>
</a>
</g>
</g>
<!-- Node1&#45;&gt;Node5 -->
<g id="edge4" class="edge">
<title>Node1&#45;&gt;Node5</title>
<path fill="none" stroke="#191970" d="M65.2807,-24.427C74.3433,-23.2101 84.3355,-21.8684 94.4316,-20.5127"/>
<polygon fill="#191970" stroke="#191970" points="64.5638,-20.9917 55.1185,-25.7915 65.4954,-27.9295 64.5638,-20.9917"/>
</g>
<!-- Node3 -->
<g id="node3" class="node">
<title>Node3</title>
<g id="a_node3"><a xlink:href="../../d1/d4a/Draw__HFJetTruth_8C.html#aa2005dec56968114b65f02ea9e5702d8" target="_top" xlink:title="Draw_HFJetTruth">
<polygon fill="none" stroke="#000000" points="306,-58.5 306,-78.5 405,-78.5 405,-58.5 306,-58.5"/>
<text text-anchor="middle" x="355.5" y="-65.5" font-family="FreeSans" font-size="10.00" fill="#000000">Draw_HFJetTruth</text>
</a>
</g>
</g>
<!-- Node2&#45;&gt;Node3 -->
<g id="edge2" class="edge">
<title>Node2&#45;&gt;Node3</title>
<path fill="none" stroke="#191970" d="M233.6574,-56.0871C257.337,-58.4995 283.74,-61.1893 305.8974,-63.4467"/>
<polygon fill="#191970" stroke="#191970" points="233.9993,-52.6039 223.696,-55.0722 233.2897,-59.5678 233.9993,-52.6039"/>
</g>
<!-- Node4 -->
<g id="node4" class="node">
<title>Node4</title>
<g id="a_node4"><a xlink:href="../../df/d6a/Draw__HFJetTruth__InvMass_8C.html#a3e04e987e69d3c611acf233ea483bd3d" target="_top" xlink:title="Draw_HFJetTruth_InvMass">
<polygon fill="none" stroke="#000000" points="283,-19.5 283,-39.5 428,-39.5 428,-19.5 283,-19.5"/>
<text text-anchor="middle" x="355.5" y="-26.5" font-family="FreeSans" font-size="10.00" fill="#000000">Draw_HFJetTruth_InvMass</text>
</a>
</g>
</g>
<!-- Node2&#45;&gt;Node4 -->
<g id="edge3" class="edge">
<title>Node2&#45;&gt;Node4</title>
<path fill="none" stroke="#191970" d="M233.8776,-42.5426C249.6671,-40.8494 266.6561,-39.0275 282.783,-37.2981"/>
<polygon fill="#191970" stroke="#191970" points="233.2658,-39.0881 223.696,-43.6345 234.0122,-46.0482 233.2658,-39.0881"/>
</g>
</g>
</svg>
