<?xml version="1.0" encoding="UTF-8" standalone="no"?>
<!DOCTYPE svg PUBLIC "-//W3C//DTD SVG 1.1//EN"
 "http://www.w3.org/Graphics/SVG/1.1/DTD/svg11.dtd">
<!-- Generated by graphviz version 2.40.1 (20161225.0304)
 -->
<!-- Title: Packet_iddigitizerv2::iValue Pages: 1 -->
<svg width="1122pt" height="224pt"
 viewBox="0.00 0.00 1122.00 224.00" xmlns="http://www.w3.org/2000/svg" xmlns:xlink="http://www.w3.org/1999/xlink">
<g id="graph0" class="graph" transform="scale(1 1) rotate(0) translate(4 220)">
<title>Packet_iddigitizerv2::iValue</title>
<!-- Node1 -->
<g id="node1" class="node">
<title>Node1</title>
<polygon fill="#bfbfbf" stroke="#000000" points="0,-72.5 0,-104.5 116,-104.5 116,-72.5 0,-72.5"/>
<text text-anchor="start" x="8" y="-91.5" font-family="FreeSans" font-size="10.00" fill="#000000">Packet_iddigitizerv2</text>
<text text-anchor="middle" x="58" y="-79.5" font-family="FreeSans" font-size="10.00" fill="#000000">::iValue</text>
</g>
<!-- Node2 -->
<g id="node2" class="node">
<title>Node2</title>
<g id="a_node2"><a xlink:href="../../d8/d29/classPacket__iddigitizerv2.html#a941e54707034271f6063f8bf99d21e9d" target="_top" xlink:title="Packet_iddigitizerv2\l::decode">
<polygon fill="none" stroke="#000000" points="152,-72.5 152,-104.5 268,-104.5 268,-72.5 152,-72.5"/>
<text text-anchor="start" x="160" y="-91.5" font-family="FreeSans" font-size="10.00" fill="#000000">Packet_iddigitizerv2</text>
<text text-anchor="middle" x="210" y="-79.5" font-family="FreeSans" font-size="10.00" fill="#000000">::decode</text>
</a>
</g>
</g>
<!-- Node1&#45;&gt;Node2 -->
<g id="edge1" class="edge">
<title>Node1&#45;&gt;Node2</title>
<path fill="none" stroke="#191970" d="M116.3325,-88.5C124.6057,-88.5 133.1747,-88.5 141.617,-88.5"/>
<polygon fill="#191970" stroke="#191970" points="141.8237,-92.0001 151.8236,-88.5 141.8236,-85.0001 141.8237,-92.0001"/>
</g>
<!-- Node3 -->
<g id="node3" class="node">
<title>Node3</title>
<g id="a_node3"><a xlink:href="../../dc/d93/Cpacket_8C.html#ac5193834fcf576bc46dcee466b3ae95f" target="_top" xlink:title="findPacketDataStart">
<polygon fill="none" stroke="#000000" points="503,-146.5 503,-166.5 620,-166.5 620,-146.5 503,-146.5"/>
<text text-anchor="middle" x="561.5" y="-153.5" font-family="FreeSans" font-size="10.00" fill="#000000">findPacketDataStart</text>
</a>
</g>
</g>
<!-- Node2&#45;&gt;Node3 -->
<g id="edge2" class="edge">
<title>Node2&#45;&gt;Node3</title>
<path fill="none" stroke="#191970" d="M268.1188,-101.1062C279.9792,-103.611 292.3829,-106.1818 304,-108.5 368.9076,-121.4525 443.2442,-135.1925 495.3074,-144.6377"/>
<polygon fill="#191970" stroke="#191970" points="494.95,-148.1298 505.4137,-146.468 496.1975,-141.2419 494.95,-148.1298"/>
</g>
<!-- Node9 -->
<g id="node9" class="node">
<title>Node9</title>
<g id="a_node9"><a xlink:href="../../de/dce/classPacket__A.html#a645fa0ba0e11c3153a8d587f170da9e9" target="_top" xlink:title="get what the name says...">
<polygon fill="none" stroke="#000000" points="304,-78.5 304,-98.5 446,-98.5 446,-78.5 304,-78.5"/>
<text text-anchor="middle" x="375" y="-85.5" font-family="FreeSans" font-size="10.00" fill="#000000">Packet_A::getDataLength</text>
</a>
</g>
</g>
<!-- Node2&#45;&gt;Node9 -->
<g id="edge9" class="edge">
<title>Node2&#45;&gt;Node9</title>
<path fill="none" stroke="#191970" d="M268.1728,-88.5C276.442,-88.5 285.0694,-88.5 293.6795,-88.5"/>
<polygon fill="#191970" stroke="#191970" points="293.7568,-92.0001 303.7568,-88.5 293.7568,-85.0001 293.7568,-92.0001"/>
</g>
<!-- Node11 -->
<g id="node11" class="node">
<title>Node11</title>
<g id="a_node11"><a xlink:href="../../de/dce/classPacket__A.html#a5e30c627660488c84211aadf67744236" target="_top" xlink:title="get the hit format; in case of unformatted get the encoding scheme.">
<polygon fill="none" stroke="#000000" points="308,-39.5 308,-59.5 442,-59.5 442,-39.5 308,-39.5"/>
<text text-anchor="middle" x="375" y="-46.5" font-family="FreeSans" font-size="10.00" fill="#000000">Packet_A::getHitFormat</text>
</a>
</g>
</g>
<!-- Node2&#45;&gt;Node11 -->
<g id="edge12" class="edge">
<title>Node2&#45;&gt;Node11</title>
<path fill="none" stroke="#191970" d="M268.1728,-74.7501C285.9341,-70.5519 305.3474,-65.9633 322.6946,-61.8631"/>
<polygon fill="#191970" stroke="#191970" points="323.7148,-65.2185 332.6415,-59.512 322.1046,-58.4062 323.7148,-65.2185"/>
</g>
<!-- Node4 -->
<g id="node4" class="node">
<title>Node4</title>
<g id="a_node4"><a xlink:href="../../dc/d93/Cpacket_8C.html#a29c44c21a6a00aa380a5fccd255f689c" target="_top" xlink:title="getPacketDataDescrLength">
<polygon fill="none" stroke="#000000" points="678,-195.5 678,-215.5 831,-215.5 831,-195.5 678,-195.5"/>
<text text-anchor="middle" x="754.5" y="-202.5" font-family="FreeSans" font-size="10.00" fill="#000000">getPacketDataDescrLength</text>
</a>
</g>
</g>
<!-- Node3&#45;&gt;Node4 -->
<g id="edge3" class="edge">
<title>Node3&#45;&gt;Node4</title>
<path fill="none" stroke="#191970" d="M599.7034,-166.5632C622.1876,-172.4508 651.1878,-179.984 677,-186.5 685.4905,-188.6433 694.5131,-190.8866 703.2874,-193.0498"/>
<polygon fill="#191970" stroke="#191970" points="702.5004,-196.4604 713.0468,-195.4485 704.1712,-189.6627 702.5004,-196.4604"/>
</g>
<!-- Node7 -->
<g id="node7" class="node">
<title>Node7</title>
<g id="a_node7"><a xlink:href="../../de/d93/Cpacket_8h.html#a00a03758ac2620086eda111809151cfd" target="_top" xlink:title="getPacketHdrLength">
<polygon fill="none" stroke="#000000" points="695.5,-156.5 695.5,-176.5 813.5,-176.5 813.5,-156.5 695.5,-156.5"/>
<text text-anchor="middle" x="754.5" y="-163.5" font-family="FreeSans" font-size="10.00" fill="#000000">getPacketHdrLength</text>
</a>
</g>
</g>
<!-- Node3&#45;&gt;Node7 -->
<g id="edge6" class="edge">
<title>Node3&#45;&gt;Node7</title>
<path fill="none" stroke="#191970" d="M620.1924,-159.5411C640.6833,-160.6028 663.8755,-161.8044 685.1511,-162.9068"/>
<polygon fill="#191970" stroke="#191970" points="685.2535,-166.4167 695.4212,-163.4389 685.6158,-159.4261 685.2535,-166.4167"/>
</g>
<!-- Node8 -->
<g id="node8" class="node">
<title>Node8</title>
<g id="a_node8"><a xlink:href="../../dc/d93/Cpacket_8C.html#af873472780d17d2304cb7d9ea6cb5cbb" target="_top" xlink:title="validPacketHdr">
<polygon fill="none" stroke="#000000" points="708.5,-117.5 708.5,-137.5 800.5,-137.5 800.5,-117.5 708.5,-117.5"/>
<text text-anchor="middle" x="754.5" y="-124.5" font-family="FreeSans" font-size="10.00" fill="#000000">validPacketHdr</text>
</a>
</g>
</g>
<!-- Node3&#45;&gt;Node8 -->
<g id="edge7" class="edge">
<title>Node3&#45;&gt;Node8</title>
<path fill="none" stroke="#191970" d="M620.1924,-147.6809C644.9374,-143.9628 673.6219,-139.6527 698.113,-135.9727"/>
<polygon fill="#191970" stroke="#191970" points="698.9598,-139.3848 708.3287,-134.4377 697.9196,-132.4625 698.9598,-139.3848"/>
</g>
<!-- Node5 -->
<g id="node5" class="node">
<title>Node5</title>
<g id="a_node5"><a xlink:href="../../de/d93/Cpacket_8h.html#a5086c5b9a0c51b566d8fe9ab6a5a6213" target="_top" xlink:title="getPacketHdrVersion">
<polygon fill="none" stroke="#000000" points="868,-97.5 868,-117.5 989,-117.5 989,-97.5 868,-97.5"/>
<text text-anchor="middle" x="928.5" y="-104.5" font-family="FreeSans" font-size="10.00" fill="#000000">getPacketHdrVersion</text>
</a>
</g>
</g>
<!-- Node4&#45;&gt;Node5 -->
<g id="edge4" class="edge">
<title>Node4&#45;&gt;Node5</title>
<path fill="none" stroke="#191970" d="M808.9682,-195.427C816.9026,-193.0289 824.8118,-190.0902 832,-186.5 863.411,-170.8115 893.7491,-143.2991 911.7695,-125.2377"/>
<polygon fill="#191970" stroke="#191970" points="914.664,-127.2828 919.1419,-117.6808 909.6535,-122.3946 914.664,-127.2828"/>
</g>
<!-- Node6 -->
<g id="node6" class="node">
<title>Node6</title>
<g id="a_node6"><a xlink:href="../../d0/db6/formatError_8C.html#acc9f1b83d468fccaa25cbd751730a101" target="_top" xlink:title="setPacketError">
<polygon fill="none" stroke="#000000" points="1025,-97.5 1025,-117.5 1114,-117.5 1114,-97.5 1025,-97.5"/>
<text text-anchor="middle" x="1069.5" y="-104.5" font-family="FreeSans" font-size="10.00" fill="#000000">setPacketError</text>
</a>
</g>
</g>
<!-- Node5&#45;&gt;Node6 -->
<g id="edge5" class="edge">
<title>Node5&#45;&gt;Node6</title>
<path fill="none" stroke="#191970" d="M989.115,-107.5C997.6053,-107.5 1006.2908,-107.5 1014.6656,-107.5"/>
<polygon fill="#191970" stroke="#191970" points="1014.693,-111.0001 1024.693,-107.5 1014.6929,-104.0001 1014.693,-111.0001"/>
</g>
<!-- Node8&#45;&gt;Node5 -->
<g id="edge8" class="edge">
<title>Node8&#45;&gt;Node5</title>
<path fill="none" stroke="#191970" d="M800.672,-122.1929C818.1621,-120.1825 838.4992,-117.8449 857.738,-115.6336"/>
<polygon fill="#191970" stroke="#191970" points="858.1427,-119.1102 867.6776,-114.4911 857.3433,-112.156 858.1427,-119.1102"/>
</g>
<!-- Node10 -->
<g id="node10" class="node">
<title>Node10</title>
<g id="a_node10"><a xlink:href="../../dc/d93/Cpacket_8C.html#a2a3fb8b57b338786771d62e3a62d0547" target="_top" xlink:title="getPacketDataLength">
<polygon fill="none" stroke="#000000" points="499.5,-78.5 499.5,-98.5 623.5,-98.5 623.5,-78.5 499.5,-78.5"/>
<text text-anchor="middle" x="561.5" y="-85.5" font-family="FreeSans" font-size="10.00" fill="#000000">getPacketDataLength</text>
</a>
</g>
</g>
<!-- Node9&#45;&gt;Node10 -->
<g id="edge10" class="edge">
<title>Node9&#45;&gt;Node10</title>
<path fill="none" stroke="#191970" d="M446.0397,-88.5C460.2043,-88.5 475.0948,-88.5 489.298,-88.5"/>
<polygon fill="#191970" stroke="#191970" points="489.4984,-92.0001 499.4984,-88.5 489.4984,-85.0001 489.4984,-92.0001"/>
</g>
<!-- Node10&#45;&gt;Node5 -->
<g id="edge11" class="edge">
<title>Node10&#45;&gt;Node5</title>
<path fill="none" stroke="#191970" d="M623.7565,-91.7231C688.5316,-95.0766 789.7901,-100.3188 857.6025,-103.8296"/>
<polygon fill="#191970" stroke="#191970" points="857.6044,-107.3343 867.772,-104.356 857.9664,-100.3436 857.6044,-107.3343"/>
</g>
<!-- Node12 -->
<g id="node12" class="node">
<title>Node12</title>
<g id="a_node12"><a xlink:href="../../d3/d7c/dataBlock_8h.html#a160f618e0792bddcb5271733bbae0c2b" target="_top" xlink:title="getUnstructPacketHitFormat">
<polygon fill="none" stroke="#000000" points="482,-39.5 482,-59.5 641,-59.5 641,-39.5 482,-39.5"/>
<text text-anchor="middle" x="561.5" y="-46.5" font-family="FreeSans" font-size="10.00" fill="#000000">getUnstructPacketHitFormat</text>
</a>
</g>
</g>
<!-- Node11&#45;&gt;Node12 -->
<g id="edge13" class="edge">
<title>Node11&#45;&gt;Node12</title>
<path fill="none" stroke="#191970" d="M442.0673,-49.5C451.7792,-49.5 461.9034,-49.5 471.9698,-49.5"/>
<polygon fill="#191970" stroke="#191970" points="471.9994,-53.0001 481.9994,-49.5 471.9994,-46.0001 471.9994,-53.0001"/>
</g>
<!-- Node13 -->
<g id="node13" class="node">
<title>Node13</title>
<g id="a_node13"><a xlink:href="../../dc/d93/Cpacket_8C.html#acfa2f79342c6237bb5cf63e53d27c75a" target="_top" xlink:title="findPacketDataDescr">
<polygon fill="none" stroke="#000000" points="693.5,-39.5 693.5,-59.5 815.5,-59.5 815.5,-39.5 693.5,-39.5"/>
<text text-anchor="middle" x="754.5" y="-46.5" font-family="FreeSans" font-size="10.00" fill="#000000">findPacketDataDescr</text>
</a>
</g>
</g>
<!-- Node12&#45;&gt;Node13 -->
<g id="edge14" class="edge">
<title>Node12&#45;&gt;Node13</title>
<path fill="none" stroke="#191970" d="M641.1148,-49.5C655.0158,-49.5 669.3993,-49.5 683.0627,-49.5"/>
<polygon fill="#191970" stroke="#191970" points="683.3508,-53.0001 693.3508,-49.5 683.3507,-46.0001 683.3508,-53.0001"/>
</g>
<!-- Node14 -->
<g id="node14" class="node">
<title>Node14</title>
<g id="a_node14"><a xlink:href="../../d3/d7c/dataBlock_8h.html#aa82497c019175939cb67b984b2bc96c6" target="_top" xlink:title="getUnstructDescrHitFormat">
<polygon fill="none" stroke="#000000" points="677,-.5 677,-20.5 832,-20.5 832,-.5 677,-.5"/>
<text text-anchor="middle" x="754.5" y="-7.5" font-family="FreeSans" font-size="10.00" fill="#000000">getUnstructDescrHitFormat</text>
</a>
</g>
</g>
<!-- Node12&#45;&gt;Node14 -->
<g id="edge16" class="edge">
<title>Node12&#45;&gt;Node14</title>
<path fill="none" stroke="#191970" d="M611.2023,-39.4565C636.7537,-34.2933 668.0807,-27.963 694.9206,-22.5394"/>
<polygon fill="#191970" stroke="#191970" points="695.8575,-25.9209 704.9661,-20.5094 694.471,-19.0595 695.8575,-25.9209"/>
</g>
<!-- Node13&#45;&gt;Node5 -->
<g id="edge15" class="edge">
<title>Node13&#45;&gt;Node5</title>
<path fill="none" stroke="#191970" d="M786.2144,-59.5926C800.2613,-64.0983 816.9736,-69.5075 832,-74.5 850.9623,-80.8002 871.9591,-87.9586 889.5117,-93.9943"/>
<polygon fill="#191970" stroke="#191970" points="888.8123,-97.4552 899.407,-97.4033 891.0924,-90.8369 888.8123,-97.4552"/>
</g>
</g>
</svg>
