<?xml version="1.0" encoding="UTF-8" standalone="no"?>
<!DOCTYPE svg PUBLIC "-//W3C//DTD SVG 1.1//EN"
 "http://www.w3.org/Graphics/SVG/1.1/DTD/svg11.dtd">
<!-- Generated by graphviz version 2.40.1 (20161225.0304)
 -->
<!-- Title: online_distribution/blob/master/newbasic/all.h Pages: 1 -->
<svg width="1371pt" height="554pt"
 viewBox="0.00 0.00 1371.00 554.00" xmlns="http://www.w3.org/2000/svg" xmlns:xlink="http://www.w3.org/1999/xlink">
<g id="graph0" class="graph" transform="scale(1 1) rotate(0) translate(4 550)">
<title>online_distribution/blob/master/newbasic/all.h</title>
<!-- Node1 -->
<g id="node1" class="node">
<title>Node1</title>
<polygon fill="#bfbfbf" stroke="#000000" points="751.5,-513.5 751.5,-545.5 908.5,-545.5 908.5,-513.5 751.5,-513.5"/>
<text text-anchor="start" x="759.5" y="-532.5" font-family="FreeSans" font-size="10.00" fill="#000000">online_distribution</text>
<text text-anchor="middle" x="830" y="-520.5" font-family="FreeSans" font-size="10.00" fill="#000000">/blob/master/newbasic/all.h</text>
</g>
<!-- Node2 -->
<g id="node2" class="node">
<title>Node2</title>
<polygon fill="none" stroke="#bfbfbf" points="133.5,-456.5 133.5,-476.5 234.5,-476.5 234.5,-456.5 133.5,-456.5"/>
<text text-anchor="middle" x="184" y="-463.5" font-family="FreeSans" font-size="10.00" fill="#000000">etEventiterator.h</text>
</g>
<!-- Node1&#45;&gt;Node2 -->
<g id="edge1" class="edge">
<title>Node1&#45;&gt;Node2</title>
<path fill="none" stroke="#191970" d="M751.3436,-524.1487C639.4799,-516.1393 428.1182,-499.5318 249,-477 247.6922,-476.8355 246.3703,-476.6645 245.0382,-476.4879"/>
<polygon fill="#191970" stroke="#191970" points="245.0812,-472.9599 234.6927,-475.0405 244.1113,-479.8924 245.0812,-472.9599"/>
</g>
<!-- Node3 -->
<g id="node3" class="node">
<title>Node3</title>
<g id="a_node3"><a xlink:href="../../d1/d35/fileEventiterator_8h.html" target="_top" xlink:title="fileEventiterator.h">
<polygon fill="none" stroke="#000000" points="777,-399.5 777,-419.5 883,-419.5 883,-399.5 777,-399.5"/>
<text text-anchor="middle" x="830" y="-406.5" font-family="FreeSans" font-size="10.00" fill="#000000">fileEventiterator.h</text>
</a>
</g>
</g>
<!-- Node1&#45;&gt;Node3 -->
<g id="edge2" class="edge">
<title>Node1&#45;&gt;Node3</title>
<path fill="none" stroke="#191970" d="M830,-513.3163C830,-491.7649 830,-453.6303 830,-430.0644"/>
<polygon fill="#191970" stroke="#191970" points="833.5001,-429.8025 830,-419.8025 826.5001,-429.8025 833.5001,-429.8025"/>
</g>
<!-- Node6 -->
<g id="node6" class="node">
<title>Node6</title>
<g id="a_node6"><a xlink:href="../../d6/d8d/Event_8h.html" target="_top" xlink:title="Event.h">
<polygon fill="none" stroke="#000000" points="792,-171.5 792,-191.5 846,-191.5 846,-171.5 792,-171.5"/>
<text text-anchor="middle" x="819" y="-178.5" font-family="FreeSans" font-size="10.00" fill="#000000">Event.h</text>
</a>
</g>
</g>
<!-- Node1&#45;&gt;Node6 -->
<g id="edge50" class="edge">
<title>Node1&#45;&gt;Node6</title>
<path fill="none" stroke="#191970" d="M892.8693,-513.454C968.9538,-492.1517 1087,-452.2176 1087,-409.5 1087,-409.5 1087,-409.5 1087,-295.5 1087,-245.8811 929.4725,-205.3373 855.962,-189.1187"/>
<polygon fill="#191970" stroke="#191970" points="856.6871,-185.6947 846.1721,-186.9933 855.2018,-192.5353 856.6871,-185.6947"/>
</g>
<!-- Node7 -->
<g id="node7" class="node">
<title>Node7</title>
<g id="a_node7"><a xlink:href="../../d3/d76/packet_8h.html" target="_top" xlink:title="packet.h">
<polygon fill="none" stroke="#000000" points="216.5,-114.5 216.5,-134.5 275.5,-134.5 275.5,-114.5 216.5,-114.5"/>
<text text-anchor="middle" x="246" y="-121.5" font-family="FreeSans" font-size="10.00" fill="#000000">packet.h</text>
</a>
</g>
</g>
<!-- Node1&#45;&gt;Node7 -->
<g id="edge49" class="edge">
<title>Node1&#45;&gt;Node7</title>
<path fill="none" stroke="#191970" d="M751.4589,-520.9737C595.7891,-503.0088 263,-458.8342 263,-409.5 263,-409.5 263,-409.5 263,-238.5 263,-205.3107 255.8641,-167.2748 250.8388,-144.6039"/>
<polygon fill="#191970" stroke="#191970" points="254.2356,-143.7576 248.5819,-134.7974 247.414,-145.3276 254.2356,-143.7576"/>
</g>
<!-- Node24 -->
<g id="node24" class="node">
<title>Node24</title>
<g id="a_node24"><a xlink:href="../../dd/da2/listEventiterator_8h.html" target="_top" xlink:title="listEventiterator.h">
<polygon fill="none" stroke="#000000" points="858,-456.5 858,-476.5 964,-476.5 964,-456.5 858,-456.5"/>
<text text-anchor="middle" x="911" y="-463.5" font-family="FreeSans" font-size="10.00" fill="#000000">listEventiterator.h</text>
</a>
</g>
</g>
<!-- Node1&#45;&gt;Node24 -->
<g id="edge36" class="edge">
<title>Node1&#45;&gt;Node24</title>
<path fill="none" stroke="#191970" d="M850.8595,-513.2759C862.7788,-504.0054 877.6927,-492.4056 889.6868,-483.0769"/>
<polygon fill="#191970" stroke="#191970" points="892.0751,-485.6535 897.8198,-476.7513 887.7774,-480.128 892.0751,-485.6535"/>
</g>
<!-- Node27 -->
<g id="node27" class="node">
<title>Node27</title>
<g id="a_node27"><a xlink:href="../../da/d5b/testEventiterator_8h.html" target="_top" xlink:title="testEventiterator.h">
<polygon fill="none" stroke="#000000" points="653,-456.5 653,-476.5 763,-476.5 763,-456.5 653,-456.5"/>
<text text-anchor="middle" x="708" y="-463.5" font-family="FreeSans" font-size="10.00" fill="#000000">testEventiterator.h</text>
</a>
</g>
</g>
<!-- Node1&#45;&gt;Node27 -->
<g id="edge41" class="edge">
<title>Node1&#45;&gt;Node27</title>
<path fill="none" stroke="#191970" d="M798.8986,-513.4394C779.6935,-503.5221 755.2354,-490.892 736.5281,-481.2317"/>
<polygon fill="#191970" stroke="#191970" points="738.0831,-478.0956 727.5919,-476.6171 734.8712,-484.3153 738.0831,-478.0956"/>
</g>
<!-- Node29 -->
<g id="node29" class="node">
<title>Node29</title>
<polygon fill="none" stroke="#bfbfbf" points="1115,-456.5 1115,-476.5 1239,-476.5 1239,-456.5 1115,-456.5"/>
<text text-anchor="middle" x="1177" y="-463.5" font-family="FreeSans" font-size="10.00" fill="#000000">oncsetEventiterator.h</text>
</g>
<!-- Node1&#45;&gt;Node29 -->
<g id="edge44" class="edge">
<title>Node1&#45;&gt;Node29</title>
<path fill="none" stroke="#191970" d="M908.7397,-515.2043C970.0458,-504.0738 1054.1219,-488.8093 1111.7152,-478.3529"/>
<polygon fill="#191970" stroke="#191970" points="1112.5782,-481.7535 1121.7921,-476.5233 1111.3277,-474.8661 1112.5782,-481.7535"/>
</g>
<!-- Node30 -->
<g id="node30" class="node">
<title>Node30</title>
<g id="a_node30"><a xlink:href="../../df/d3d/oncsEventiterator_8h.html" target="_top" xlink:title="oncsEventiterator.h">
<polygon fill="none" stroke="#000000" points="487,-399.5 487,-419.5 601,-419.5 601,-399.5 487,-399.5"/>
<text text-anchor="middle" x="544" y="-406.5" font-family="FreeSans" font-size="10.00" fill="#000000">oncsEventiterator.h</text>
</a>
</g>
</g>
<!-- Node1&#45;&gt;Node30 -->
<g id="edge45" class="edge">
<title>Node1&#45;&gt;Node30</title>
<path fill="none" stroke="#191970" d="M752.4671,-513.4814C718.3078,-504.9502 678.2412,-492.8875 644,-477 614.3415,-463.2388 583.6726,-441.1637 564.252,-426.0296"/>
<polygon fill="#191970" stroke="#191970" points="566.1755,-423.0881 556.1646,-419.6192 561.8273,-428.5738 566.1755,-423.0881"/>
</g>
<!-- Node31 -->
<g id="node31" class="node">
<title>Node31</title>
<polygon fill="none" stroke="#bfbfbf" points="1257,-456.5 1257,-476.5 1363,-476.5 1363,-456.5 1257,-456.5"/>
<text text-anchor="middle" x="1310" y="-463.5" font-family="FreeSans" font-size="10.00" fill="#000000">pfsEventiterator.h</text>
</g>
<!-- Node1&#45;&gt;Node31 -->
<g id="edge48" class="edge">
<title>Node1&#45;&gt;Node31</title>
<path fill="none" stroke="#191970" d="M908.7178,-520.6316C990.6271,-511.172 1122.8581,-495.2526 1246.8681,-477.1203"/>
<polygon fill="#191970" stroke="#191970" points="1247.5391,-480.5593 1256.9238,-475.6423 1246.5212,-473.6337 1247.5391,-480.5593"/>
</g>
<!-- Node4 -->
<g id="node4" class="node">
<title>Node4</title>
<polygon fill="none" stroke="#bfbfbf" points="294,-.5 294,-20.5 344,-20.5 344,-.5 294,-.5"/>
<text text-anchor="middle" x="319" y="-7.5" font-family="FreeSans" font-size="10.00" fill="#000000">stdio.h</text>
</g>
<!-- Node3&#45;&gt;Node4 -->
<g id="edge3" class="edge">
<title>Node3&#45;&gt;Node4</title>
<path fill="none" stroke="#191970" d="M835.1435,-399.4583C855.5651,-358.0363 926.1979,-198.6507 850,-114 783.2596,-39.8559 461.6593,-17.4948 354.1138,-12.0307"/>
<polygon fill="#191970" stroke="#191970" points="354.2589,-8.5337 344.0995,-11.5397 353.9161,-15.5253 354.2589,-8.5337"/>
</g>
<!-- Node5 -->
<g id="node5" class="node">
<title>Node5</title>
<g id="a_node5"><a xlink:href="../../de/dbf/Eventiterator_8h.html" target="_top" xlink:title="Eventiterator.h">
<polygon fill="none" stroke="#000000" points="583.5,-342.5 583.5,-362.5 674.5,-362.5 674.5,-342.5 583.5,-342.5"/>
<text text-anchor="middle" x="629" y="-349.5" font-family="FreeSans" font-size="10.00" fill="#000000">Eventiterator.h</text>
</a>
</g>
</g>
<!-- Node3&#45;&gt;Node5 -->
<g id="edge4" class="edge">
<title>Node3&#45;&gt;Node5</title>
<path fill="none" stroke="#191970" d="M794.5279,-399.4408C761.0477,-389.9464 710.694,-375.6669 674.3184,-365.3515"/>
<polygon fill="#191970" stroke="#191970" points="675.0305,-361.9155 664.455,-362.5544 673.1207,-368.6499 675.0305,-361.9155"/>
</g>
<!-- Node3&#45;&gt;Node6 -->
<g id="edge14" class="edge">
<title>Node3&#45;&gt;Node6</title>
<path fill="none" stroke="#191970" d="M829.5132,-399.4089C827.8346,-364.6164 822.2667,-249.2102 819.9866,-201.9501"/>
<polygon fill="#191970" stroke="#191970" points="823.4716,-201.5529 819.4937,-191.7332 816.4798,-201.8903 823.4716,-201.5529"/>
</g>
<!-- Node14 -->
<g id="node14" class="node">
<title>Node14</title>
<g id="a_node14"><a xlink:href="../../d6/df6/gzbuffer_8h.html" target="_top" xlink:title="gzbuffer.h">
<polygon fill="none" stroke="#000000" points="737.5,-342.5 737.5,-362.5 804.5,-362.5 804.5,-342.5 737.5,-342.5"/>
<text text-anchor="middle" x="771" y="-349.5" font-family="FreeSans" font-size="10.00" fill="#000000">gzbuffer.h</text>
</a>
</g>
</g>
<!-- Node3&#45;&gt;Node14 -->
<g id="edge15" class="edge">
<title>Node3&#45;&gt;Node14</title>
<path fill="none" stroke="#191970" d="M819.452,-399.3095C810.9781,-391.1229 798.8863,-379.441 788.9023,-369.7955"/>
<polygon fill="#191970" stroke="#191970" points="791.0805,-367.0332 781.4567,-362.6022 786.2168,-372.0676 791.0805,-367.0332"/>
</g>
<!-- Node19 -->
<g id="node19" class="node">
<title>Node19</title>
<g id="a_node19"><a xlink:href="../../db/d5e/oncsBuffer_8h.html" target="_top" xlink:title="oncsBuffer.h">
<polygon fill="none" stroke="#000000" points="504.5,-285.5 504.5,-305.5 583.5,-305.5 583.5,-285.5 504.5,-285.5"/>
<text text-anchor="middle" x="544" y="-292.5" font-family="FreeSans" font-size="10.00" fill="#000000">oncsBuffer.h</text>
</a>
</g>
</g>
<!-- Node3&#45;&gt;Node19 -->
<g id="edge24" class="edge">
<title>Node3&#45;&gt;Node19</title>
<path fill="none" stroke="#191970" d="M807.6885,-399.3974C787.0064,-390.0163 755.392,-375.6349 728,-363 707.9587,-353.7557 703.4984,-350.1809 683,-342 651.4267,-329.3992 614.9529,-317.2866 587.2916,-308.5842"/>
<polygon fill="#191970" stroke="#191970" points="588.1132,-305.1743 577.5246,-305.5378 586.0288,-311.8568 588.1132,-305.1743"/>
</g>
<!-- Node5&#45;&gt;Node6 -->
<g id="edge5" class="edge">
<title>Node5&#45;&gt;Node6</title>
<path fill="none" stroke="#191970" d="M674.6321,-346.9409C704.1939,-341.1832 741.7514,-329.5252 767,-306 797.2759,-277.7906 810.5291,-229.2266 815.836,-201.8342"/>
<polygon fill="#191970" stroke="#191970" points="819.311,-202.2821 817.6007,-191.8262 812.4173,-201.0665 819.311,-202.2821"/>
</g>
<!-- Node6&#45;&gt;Node7 -->
<g id="edge6" class="edge">
<title>Node6&#45;&gt;Node7</title>
<path fill="none" stroke="#191970" d="M791.6592,-173.1073C788.4246,-172.3032 785.1531,-171.5748 782,-171 594.6366,-136.8452 544.679,-152.1311 355,-135 331.9995,-132.9227 306.284,-130.4525 285.6092,-128.4301"/>
<polygon fill="#191970" stroke="#191970" points="285.8934,-124.9413 275.5992,-127.4475 285.2094,-131.9078 285.8934,-124.9413"/>
</g>
<!-- Node13 -->
<g id="node13" class="node">
<title>Node13</title>
<polygon fill="none" stroke="#bfbfbf" points="797,-114.5 797,-134.5 841,-134.5 841,-114.5 797,-114.5"/>
<text text-anchor="middle" x="819" y="-121.5" font-family="FreeSans" font-size="10.00" fill="#000000">ctime</text>
</g>
<!-- Node6&#45;&gt;Node13 -->
<g id="edge13" class="edge">
<title>Node6&#45;&gt;Node13</title>
<path fill="none" stroke="#191970" d="M819,-171.3095C819,-163.9335 819,-153.72 819,-144.715"/>
<polygon fill="#191970" stroke="#191970" points="822.5001,-144.6022 819,-134.6022 815.5001,-144.6023 822.5001,-144.6022"/>
</g>
<!-- Node8 -->
<g id="node8" class="node">
<title>Node8</title>
<g id="a_node8"><a xlink:href="../../db/d5e/generalDefinitions_8h.html" target="_top" xlink:title="generalDefinitions.h">
<polygon fill="none" stroke="#000000" points="173,-57.5 173,-77.5 291,-77.5 291,-57.5 173,-57.5"/>
<text text-anchor="middle" x="232" y="-64.5" font-family="FreeSans" font-size="10.00" fill="#000000">generalDefinitions.h</text>
</a>
</g>
</g>
<!-- Node7&#45;&gt;Node8 -->
<g id="edge7" class="edge">
<title>Node7&#45;&gt;Node8</title>
<path fill="none" stroke="#191970" d="M243.4971,-114.3095C241.6655,-106.8524 239.1216,-96.4951 236.8923,-87.4186"/>
<polygon fill="#191970" stroke="#191970" points="240.2656,-86.4787 234.4813,-77.6022 233.4676,-88.1485 240.2656,-86.4787"/>
</g>
<!-- Node9 -->
<g id="node9" class="node">
<title>Node9</title>
<g id="a_node9"><a xlink:href="../../d8/dd6/event__io_8h.html" target="_top" xlink:title="event_io.h">
<polygon fill="none" stroke="#000000" points="87,-57.5 87,-77.5 155,-77.5 155,-57.5 87,-57.5"/>
<text text-anchor="middle" x="121" y="-64.5" font-family="FreeSans" font-size="10.00" fill="#000000">event_io.h</text>
</a>
</g>
</g>
<!-- Node7&#45;&gt;Node9 -->
<g id="edge8" class="edge">
<title>Node7&#45;&gt;Node9</title>
<path fill="none" stroke="#191970" d="M223.9402,-114.4408C204.159,-105.4205 174.9063,-92.0813 152.635,-81.9255"/>
<polygon fill="#191970" stroke="#191970" points="153.8105,-78.6149 143.2597,-77.6504 150.9062,-84.984 153.8105,-78.6149"/>
</g>
<!-- Node9&#45;&gt;Node4 -->
<g id="edge12" class="edge">
<title>Node9&#45;&gt;Node4</title>
<path fill="none" stroke="#191970" d="M155.0374,-57.7014C191.1182,-47.3145 247.8101,-30.9941 284.1841,-20.5228"/>
<polygon fill="#191970" stroke="#191970" points="285.2291,-23.8641 293.8706,-17.7342 283.2926,-17.1373 285.2291,-23.8641"/>
</g>
<!-- Node10 -->
<g id="node10" class="node">
<title>Node10</title>
<polygon fill="none" stroke="#bfbfbf" points="172,-.5 172,-20.5 236,-20.5 236,-.5 172,-.5"/>
<text text-anchor="middle" x="204" y="-7.5" font-family="FreeSans" font-size="10.00" fill="#000000">ioselect.h</text>
</g>
<!-- Node9&#45;&gt;Node10 -->
<g id="edge9" class="edge">
<title>Node9&#45;&gt;Node10</title>
<path fill="none" stroke="#191970" d="M135.8387,-57.3095C148.3497,-48.7177 166.4669,-36.2758 180.8785,-26.3786"/>
<polygon fill="#191970" stroke="#191970" points="183.0278,-29.1485 189.2897,-20.6022 179.065,-23.3782 183.0278,-29.1485"/>
</g>
<!-- Node11 -->
<g id="node11" class="node">
<title>Node11</title>
<polygon fill="none" stroke="#bfbfbf" points="0,-.5 0,-20.5 70,-20.5 70,-.5 0,-.5"/>
<text text-anchor="middle" x="35" y="-7.5" font-family="FreeSans" font-size="10.00" fill="#000000">iostream.h</text>
</g>
<!-- Node9&#45;&gt;Node11 -->
<g id="edge10" class="edge">
<title>Node9&#45;&gt;Node11</title>
<path fill="none" stroke="#191970" d="M105.6249,-57.3095C92.6617,-48.7177 73.8898,-36.2758 58.9572,-26.3786"/>
<polygon fill="#191970" stroke="#191970" points="60.511,-23.2095 50.242,-20.6022 56.6437,-29.0443 60.511,-23.2095"/>
</g>
<!-- Node12 -->
<g id="node12" class="node">
<title>Node12</title>
<polygon fill="none" stroke="#bfbfbf" points="88,-.5 88,-20.5 154,-20.5 154,-.5 88,-.5"/>
<text text-anchor="middle" x="121" y="-7.5" font-family="FreeSans" font-size="10.00" fill="#000000">iomanip.h</text>
</g>
<!-- Node9&#45;&gt;Node12 -->
<g id="edge11" class="edge">
<title>Node9&#45;&gt;Node12</title>
<path fill="none" stroke="#191970" d="M121,-57.3095C121,-49.9335 121,-39.72 121,-30.715"/>
<polygon fill="#191970" stroke="#191970" points="124.5001,-30.6022 121,-20.6022 117.5001,-30.6023 124.5001,-30.6022"/>
</g>
<!-- Node15 -->
<g id="node15" class="node">
<title>Node15</title>
<g id="a_node15"><a xlink:href="../../d1/dd4/prdfBuffer_8h.html" target="_top" xlink:title="prdfBuffer.h">
<polygon fill="none" stroke="#000000" points="682,-285.5 682,-305.5 758,-305.5 758,-285.5 682,-285.5"/>
<text text-anchor="middle" x="720" y="-292.5" font-family="FreeSans" font-size="10.00" fill="#000000">prdfBuffer.h</text>
</a>
</g>
</g>
<!-- Node14&#45;&gt;Node15 -->
<g id="edge16" class="edge">
<title>Node14&#45;&gt;Node15</title>
<path fill="none" stroke="#191970" d="M761.8822,-342.3095C754.6299,-334.204 744.3117,-322.672 735.7318,-313.0826"/>
<polygon fill="#191970" stroke="#191970" points="738.3152,-310.7209 729.0388,-305.6022 733.0985,-315.3885 738.3152,-310.7209"/>
</g>
<!-- Node15&#45;&gt;Node6 -->
<g id="edge23" class="edge">
<title>Node15&#45;&gt;Node6</title>
<path fill="none" stroke="#191970" d="M728.7856,-285.3833C745.5488,-266.0802 782.2997,-223.7609 803.3567,-199.5135"/>
<polygon fill="#191970" stroke="#191970" points="806.1775,-201.6032 810.0918,-191.7579 800.8923,-197.0134 806.1775,-201.6032"/>
</g>
<!-- Node16 -->
<g id="node16" class="node">
<title>Node16</title>
<g id="a_node16"><a xlink:href="../../d5/d08/buffer_8h.html" target="_top" xlink:title="buffer.h">
<polygon fill="none" stroke="#000000" points="636.5,-228.5 636.5,-248.5 691.5,-248.5 691.5,-228.5 636.5,-228.5"/>
<text text-anchor="middle" x="664" y="-235.5" font-family="FreeSans" font-size="10.00" fill="#000000">buffer.h</text>
</a>
</g>
</g>
<!-- Node15&#45;&gt;Node16 -->
<g id="edge17" class="edge">
<title>Node15&#45;&gt;Node16</title>
<path fill="none" stroke="#191970" d="M709.9883,-285.3095C701.9453,-277.1229 690.4683,-265.441 680.992,-255.7955"/>
<polygon fill="#191970" stroke="#191970" points="683.4299,-253.2827 673.925,-248.6022 678.4366,-258.1885 683.4299,-253.2827"/>
</g>
<!-- Node17 -->
<g id="node17" class="node">
<title>Node17</title>
<g id="a_node17"><a xlink:href="../../d7/d43/phenixTypes_8h.html" target="_top" xlink:title="phenixTypes.h">
<polygon fill="none" stroke="#000000" points="561,-171.5 561,-191.5 649,-191.5 649,-171.5 561,-171.5"/>
<text text-anchor="middle" x="605" y="-178.5" font-family="FreeSans" font-size="10.00" fill="#000000">phenixTypes.h</text>
</a>
</g>
</g>
<!-- Node15&#45;&gt;Node17 -->
<g id="edge21" class="edge">
<title>Node15&#45;&gt;Node17</title>
<path fill="none" stroke="#191970" d="M684.8105,-285.3795C665.3307,-278.131 642.0807,-266.506 627,-249 615.5894,-235.7543 610.0694,-216.4643 607.4155,-201.8944"/>
<polygon fill="#191970" stroke="#191970" points="610.8525,-201.2143 605.8946,-191.8511 603.9314,-202.2625 610.8525,-201.2143"/>
</g>
<!-- Node18 -->
<g id="node18" class="node">
<title>Node18</title>
<g id="a_node18"><a xlink:href="../../da/d88/BufferConstants_8h.html" target="_top" xlink:title="BufferConstants.h">
<polygon fill="none" stroke="#000000" points="666.5,-171.5 666.5,-191.5 773.5,-191.5 773.5,-171.5 666.5,-171.5"/>
<text text-anchor="middle" x="720" y="-178.5" font-family="FreeSans" font-size="10.00" fill="#000000">BufferConstants.h</text>
</a>
</g>
</g>
<!-- Node15&#45;&gt;Node18 -->
<g id="edge22" class="edge">
<title>Node15&#45;&gt;Node18</title>
<path fill="none" stroke="#191970" d="M720,-285.3833C720,-266.6703 720,-226.3266 720,-201.7866"/>
<polygon fill="#191970" stroke="#191970" points="723.5001,-201.7579 720,-191.7579 716.5001,-201.758 723.5001,-201.7579"/>
</g>
<!-- Node16&#45;&gt;Node6 -->
<g id="edge20" class="edge">
<title>Node16&#45;&gt;Node6</title>
<path fill="none" stroke="#191970" d="M691.3541,-228.4408C716.6983,-219.1206 754.581,-205.1896 782.4975,-194.9235"/>
<polygon fill="#191970" stroke="#191970" points="783.7419,-198.1951 791.9194,-191.4587 781.3258,-191.6253 783.7419,-198.1951"/>
</g>
<!-- Node16&#45;&gt;Node17 -->
<g id="edge18" class="edge">
<title>Node16&#45;&gt;Node17</title>
<path fill="none" stroke="#191970" d="M653.452,-228.3095C644.9781,-220.1229 632.8863,-208.441 622.9023,-198.7955"/>
<polygon fill="#191970" stroke="#191970" points="625.0805,-196.0332 615.4567,-191.6022 620.2168,-201.0676 625.0805,-196.0332"/>
</g>
<!-- Node16&#45;&gt;Node18 -->
<g id="edge19" class="edge">
<title>Node16&#45;&gt;Node18</title>
<path fill="none" stroke="#191970" d="M674.0117,-228.3095C682.0547,-220.1229 693.5317,-208.441 703.008,-198.7955"/>
<polygon fill="#191970" stroke="#191970" points="705.5634,-201.1885 710.075,-191.6022 700.5701,-196.2827 705.5634,-201.1885"/>
</g>
<!-- Node19&#45;&gt;Node4 -->
<g id="edge34" class="edge">
<title>Node19&#45;&gt;Node4</title>
<path fill="none" stroke="#191970" d="M504.4467,-290.1518C451.8882,-280.6915 360.913,-255.5866 320,-192 287.5511,-141.5682 302.7951,-65.8122 312.7545,-30.2559"/>
<polygon fill="#191970" stroke="#191970" points="316.135,-31.1664 315.617,-20.5843 309.4228,-29.1798 316.135,-31.1664"/>
</g>
<!-- Node19&#45;&gt;Node9 -->
<g id="edge35" class="edge">
<title>Node19&#45;&gt;Node9</title>
<path fill="none" stroke="#191970" d="M504.3863,-291.4598C441.8987,-284.5701 323.7665,-269.3003 287,-249 214.2504,-208.832 156.178,-124.8472 132.5093,-86.8769"/>
<polygon fill="#191970" stroke="#191970" points="135.2029,-84.5724 127.0023,-77.8641 129.2296,-88.2222 135.2029,-84.5724"/>
</g>
<!-- Node19&#45;&gt;Node16 -->
<g id="edge25" class="edge">
<title>Node19&#45;&gt;Node16</title>
<path fill="none" stroke="#191970" d="M565.1774,-285.4408C584.0822,-276.461 611.9983,-263.2008 633.3424,-253.0624"/>
<polygon fill="#191970" stroke="#191970" points="635.0996,-256.1025 642.6307,-248.6504 632.0962,-249.7796 635.0996,-256.1025"/>
</g>
<!-- Node19&#45;&gt;Node18 -->
<g id="edge33" class="edge">
<title>Node19&#45;&gt;Node18</title>
<path fill="none" stroke="#191970" d="M554.9431,-285.2768C570.2756,-271.2717 599.3797,-245.829 627,-228 646.0266,-215.7182 668.7392,-204.3069 686.9558,-195.8623"/>
<polygon fill="#191970" stroke="#191970" points="688.6447,-198.939 696.2945,-191.6089 685.7433,-192.5687 688.6447,-198.939"/>
</g>
<!-- Node20 -->
<g id="node20" class="node">
<title>Node20</title>
<g id="a_node20"><a xlink:href="../../de/d08/oncsEvent_8h.html" target="_top" xlink:title="oncsEvent.h">
<polygon fill="none" stroke="#000000" points="454,-228.5 454,-248.5 532,-248.5 532,-228.5 454,-228.5"/>
<text text-anchor="middle" x="493" y="-235.5" font-family="FreeSans" font-size="10.00" fill="#000000">oncsEvent.h</text>
</a>
</g>
</g>
<!-- Node19&#45;&gt;Node20 -->
<g id="edge26" class="edge">
<title>Node19&#45;&gt;Node20</title>
<path fill="none" stroke="#191970" d="M534.8822,-285.3095C527.6299,-277.204 517.3117,-265.672 508.7318,-256.0826"/>
<polygon fill="#191970" stroke="#191970" points="511.3152,-253.7209 502.0388,-248.6022 506.0985,-258.3885 511.3152,-253.7209"/>
</g>
<!-- Node20&#45;&gt;Node6 -->
<g id="edge27" class="edge">
<title>Node20&#45;&gt;Node6</title>
<path fill="none" stroke="#191970" d="M532.072,-233.69C586.0185,-226.7264 686.4804,-212.5997 781.8102,-191.8222"/>
<polygon fill="#191970" stroke="#191970" points="782.6017,-195.2319 791.6119,-189.658 781.0924,-188.3965 782.6017,-195.2319"/>
</g>
<!-- Node20&#45;&gt;Node17 -->
<g id="edge28" class="edge">
<title>Node20&#45;&gt;Node17</title>
<path fill="none" stroke="#191970" d="M512.7655,-228.4408C530.3306,-219.5014 556.2305,-206.3202 576.1167,-196.1996"/>
<polygon fill="#191970" stroke="#191970" points="577.7306,-199.3054 585.0553,-191.6504 574.5556,-193.0669 577.7306,-199.3054"/>
</g>
<!-- Node21 -->
<g id="node21" class="node">
<title>Node21</title>
<g id="a_node21"><a xlink:href="../../d1/d25/oncsEvtConstants_8h.html" target="_top" xlink:title="oncsEvtConstants.h">
<polygon fill="none" stroke="#000000" points="364,-114.5 364,-134.5 480,-134.5 480,-114.5 364,-114.5"/>
<text text-anchor="middle" x="422" y="-121.5" font-family="FreeSans" font-size="10.00" fill="#000000">oncsEvtConstants.h</text>
</a>
</g>
</g>
<!-- Node20&#45;&gt;Node21 -->
<g id="edge29" class="edge">
<title>Node20&#45;&gt;Node21</title>
<path fill="none" stroke="#191970" d="M462.261,-228.4762C445.3751,-221.2149 425.9005,-209.5447 416,-192 407.8908,-177.6298 410.4678,-158.7455 414.4559,-144.6064"/>
<polygon fill="#191970" stroke="#191970" points="417.8572,-145.4647 417.6271,-134.8724 411.2015,-143.2963 417.8572,-145.4647"/>
</g>
<!-- Node22 -->
<g id="node22" class="node">
<title>Node22</title>
<g id="a_node22"><a xlink:href="../../d1/dfa/oncsEvtStructures_8h.html" target="_top" xlink:title="oncsEvtStructures.h">
<polygon fill="none" stroke="#000000" points="425.5,-171.5 425.5,-191.5 542.5,-191.5 542.5,-171.5 425.5,-171.5"/>
<text text-anchor="middle" x="484" y="-178.5" font-family="FreeSans" font-size="10.00" fill="#000000">oncsEvtStructures.h</text>
</a>
</g>
</g>
<!-- Node20&#45;&gt;Node22 -->
<g id="edge30" class="edge">
<title>Node20&#45;&gt;Node22</title>
<path fill="none" stroke="#191970" d="M491.391,-228.3095C490.2263,-220.9335 488.6137,-210.72 487.1918,-201.715"/>
<polygon fill="#191970" stroke="#191970" points="490.612,-200.934 485.5951,-191.6022 483.6976,-202.0258 490.612,-200.934"/>
</g>
<!-- Node23 -->
<g id="node23" class="node">
<title>Node23</title>
<polygon fill="none" stroke="#bfbfbf" points="329.5,-171.5 329.5,-191.5 368.5,-191.5 368.5,-171.5 329.5,-171.5"/>
<text text-anchor="middle" x="349" y="-178.5" font-family="FreeSans" font-size="10.00" fill="#000000">map</text>
</g>
<!-- Node20&#45;&gt;Node23 -->
<g id="edge32" class="edge">
<title>Node20&#45;&gt;Node23</title>
<path fill="none" stroke="#191970" d="M467.5872,-228.4408C442.529,-218.5219 404.2773,-203.3806 378.0337,-192.9925"/>
<polygon fill="#191970" stroke="#191970" points="379.2024,-189.6909 368.6161,-189.2647 376.626,-196.1996 379.2024,-189.6909"/>
</g>
<!-- Node22&#45;&gt;Node21 -->
<g id="edge31" class="edge">
<title>Node22&#45;&gt;Node21</title>
<path fill="none" stroke="#191970" d="M472.9156,-171.3095C463.9228,-163.0419 451.0522,-151.2093 440.5016,-141.5096"/>
<polygon fill="#191970" stroke="#191970" points="442.7189,-138.7937 432.9884,-134.6022 437.9813,-143.9469 442.7189,-138.7937"/>
</g>
<!-- Node24&#45;&gt;Node3 -->
<g id="edge39" class="edge">
<title>Node24&#45;&gt;Node3</title>
<path fill="none" stroke="#191970" d="M896.5188,-456.3095C884.3093,-447.7177 866.6287,-435.2758 852.5643,-425.3786"/>
<polygon fill="#191970" stroke="#191970" points="854.5481,-422.4949 844.3558,-419.6022 850.5196,-428.2195 854.5481,-422.4949"/>
</g>
<!-- Node24&#45;&gt;Node6 -->
<g id="edge40" class="edge">
<title>Node24&#45;&gt;Node6</title>
<path fill="none" stroke="#191970" d="M911,-456.4352C911,-436.5659 911,-390.8958 911,-352.5 911,-352.5 911,-352.5 911,-295.5 911,-252.5853 871.0299,-216.7155 843.781,-197.2482"/>
<polygon fill="#191970" stroke="#191970" points="845.6703,-194.2997 835.4478,-191.5158 841.7031,-200.067 845.6703,-194.2997"/>
</g>
<!-- Node25 -->
<g id="node25" class="node">
<title>Node25</title>
<polygon fill="none" stroke="#bfbfbf" points="939,-399.5 939,-419.5 985,-419.5 985,-399.5 939,-399.5"/>
<text text-anchor="middle" x="962" y="-406.5" font-family="FreeSans" font-size="10.00" fill="#000000">cstdio</text>
</g>
<!-- Node24&#45;&gt;Node25 -->
<g id="edge37" class="edge">
<title>Node24&#45;&gt;Node25</title>
<path fill="none" stroke="#191970" d="M920.1178,-456.3095C927.3701,-448.204 937.6883,-436.672 946.2682,-427.0826"/>
<polygon fill="#191970" stroke="#191970" points="948.9015,-429.3885 952.9612,-419.6022 943.6848,-424.7209 948.9015,-429.3885"/>
</g>
<!-- Node26 -->
<g id="node26" class="node">
<title>Node26</title>
<polygon fill="none" stroke="#bfbfbf" points="1003.5,-399.5 1003.5,-419.5 1058.5,-419.5 1058.5,-399.5 1003.5,-399.5"/>
<text text-anchor="middle" x="1031" y="-406.5" font-family="FreeSans" font-size="10.00" fill="#000000">fstream</text>
</g>
<!-- Node24&#45;&gt;Node26 -->
<g id="edge38" class="edge">
<title>Node24&#45;&gt;Node26</title>
<path fill="none" stroke="#191970" d="M932.1774,-456.4408C951.0822,-447.461 978.9983,-434.2008 1000.3424,-424.0624"/>
<polygon fill="#191970" stroke="#191970" points="1002.0996,-427.1025 1009.6307,-419.6504 999.0962,-420.7796 1002.0996,-427.1025"/>
</g>
<!-- Node27&#45;&gt;Node5 -->
<g id="edge42" class="edge">
<title>Node27&#45;&gt;Node5</title>
<path fill="none" stroke="#191970" d="M689.4048,-456.4535C676.0184,-448.3065 658.5309,-435.6287 648,-420 638.5525,-405.9791 633.7638,-387.3061 631.3595,-373.1544"/>
<polygon fill="#191970" stroke="#191970" points="634.7805,-372.353 629.899,-362.9497 627.8511,-373.3447 634.7805,-372.353"/>
</g>
<!-- Node28 -->
<g id="node28" class="node">
<title>Node28</title>
<g id="a_node28"><a xlink:href="../../dd/d69/simpleRandom_8h.html" target="_top" xlink:title="simpleRandom.h">
<polygon fill="none" stroke="#000000" points="657.5,-399.5 657.5,-419.5 758.5,-419.5 758.5,-399.5 657.5,-399.5"/>
<text text-anchor="middle" x="708" y="-406.5" font-family="FreeSans" font-size="10.00" fill="#000000">simpleRandom.h</text>
</a>
</g>
</g>
<!-- Node27&#45;&gt;Node28 -->
<g id="edge43" class="edge">
<title>Node27&#45;&gt;Node28</title>
<path fill="none" stroke="#191970" d="M708,-456.3095C708,-448.9335 708,-438.72 708,-429.715"/>
<polygon fill="#191970" stroke="#191970" points="711.5001,-429.6022 708,-419.6022 704.5001,-429.6023 711.5001,-429.6022"/>
</g>
<!-- Node30&#45;&gt;Node5 -->
<g id="edge46" class="edge">
<title>Node30&#45;&gt;Node5</title>
<path fill="none" stroke="#191970" d="M559.1963,-399.3095C572.0087,-390.7177 590.5624,-378.2758 605.3214,-368.3786"/>
<polygon fill="#191970" stroke="#191970" points="607.5792,-371.0787 613.9353,-362.6022 603.6805,-365.2649 607.5792,-371.0787"/>
</g>
<!-- Node30&#45;&gt;Node19 -->
<g id="edge47" class="edge">
<title>Node30&#45;&gt;Node19</title>
<path fill="none" stroke="#191970" d="M544,-399.3833C544,-380.6703 544,-340.3266 544,-315.7866"/>
<polygon fill="#191970" stroke="#191970" points="547.5001,-315.7579 544,-305.7579 540.5001,-315.758 547.5001,-315.7579"/>
</g>
</g>
</svg>
