<?xml version="1.0" encoding="UTF-8" standalone="no"?>
<!DOCTYPE svg PUBLIC "-//W3C//DTD SVG 1.1//EN"
 "http://www.w3.org/Graphics/SVG/1.1/DTD/svg11.dtd">
<!-- Generated by graphviz version 2.40.1 (20161225.0304)
 -->
<!-- Title: coresoftware/blob/master/offline/packages/jetbackground/RetowerCEMC.h Pages: 1 -->
<svg width="252pt" height="224pt"
 viewBox="0.00 0.00 251.50 224.00" xmlns="http://www.w3.org/2000/svg" xmlns:xlink="http://www.w3.org/1999/xlink">
<g id="graph0" class="graph" transform="scale(1 1) rotate(0) translate(4 220)">
<title>coresoftware/blob/master/offline/packages/jetbackground/RetowerCEMC.h</title>
<!-- Node1 -->
<g id="node1" class="node">
<title>Node1</title>
<polygon fill="#bfbfbf" stroke="#000000" points="63.5,-171.5 63.5,-215.5 243.5,-215.5 243.5,-171.5 63.5,-171.5"/>
<text text-anchor="start" x="71.5" y="-202.5" font-family="FreeSans" font-size="10.00" fill="#000000">coresoftware/blob/master</text>
<text text-anchor="start" x="71.5" y="-190.5" font-family="FreeSans" font-size="10.00" fill="#000000">/offline/packages/jetbackground</text>
<text text-anchor="middle" x="153.5" y="-178.5" font-family="FreeSans" font-size="10.00" fill="#000000">/RetowerCEMC.h</text>
</g>
<!-- Node2 -->
<g id="node2" class="node">
<title>Node2</title>
<g id="a_node2"><a xlink:href="../../d5/dc2/SubsysReco_8h.html" target="_top" xlink:title="fun4all/SubsysReco.h">
<polygon fill="none" stroke="#000000" points="1.5,-114.5 1.5,-134.5 125.5,-134.5 125.5,-114.5 1.5,-114.5"/>
<text text-anchor="middle" x="63.5" y="-121.5" font-family="FreeSans" font-size="10.00" fill="#000000">fun4all/SubsysReco.h</text>
</a>
</g>
</g>
<!-- Node1&#45;&gt;Node2 -->
<g id="edge1" class="edge">
<title>Node1&#45;&gt;Node2</title>
<path fill="none" stroke="#191970" d="M124.528,-171.2882C111.6268,-161.3972 96.7038,-149.9563 84.8439,-140.8637"/>
<polygon fill="#191970" stroke="#191970" points="86.8878,-138.0204 76.8222,-134.7137 82.6287,-143.5757 86.8878,-138.0204"/>
</g>
<!-- Node5 -->
<g id="node5" class="node">
<title>Node5</title>
<polygon fill="none" stroke="#bfbfbf" points="93,-.5 93,-20.5 138,-20.5 138,-.5 93,-.5"/>
<text text-anchor="middle" x="115.5" y="-7.5" font-family="FreeSans" font-size="10.00" fill="#000000">string</text>
</g>
<!-- Node1&#45;&gt;Node5 -->
<g id="edge6" class="edge">
<title>Node1&#45;&gt;Node5</title>
<path fill="none" stroke="#191970" d="M148.9163,-171.4259C141.4708,-135.57 126.8603,-65.2088 119.682,-30.6399"/>
<polygon fill="#191970" stroke="#191970" points="123.0912,-29.8425 117.6311,-20.763 116.2374,-31.2657 123.0912,-29.8425"/>
</g>
<!-- Node6 -->
<g id="node6" class="node">
<title>Node6</title>
<polygon fill="none" stroke="#bfbfbf" points="182,-114.5 182,-134.5 231,-134.5 231,-114.5 182,-114.5"/>
<text text-anchor="middle" x="206.5" y="-121.5" font-family="FreeSans" font-size="10.00" fill="#000000">vector</text>
</g>
<!-- Node1&#45;&gt;Node6 -->
<g id="edge7" class="edge">
<title>Node1&#45;&gt;Node6</title>
<path fill="none" stroke="#191970" d="M170.5613,-171.2882C177.6423,-162.0694 185.7576,-151.5042 192.4828,-142.7488"/>
<polygon fill="#191970" stroke="#191970" points="195.3388,-144.7763 198.6547,-134.7137 189.7874,-140.5121 195.3388,-144.7763"/>
</g>
<!-- Node3 -->
<g id="node3" class="node">
<title>Node3</title>
<g id="a_node3"><a xlink:href="../../d2/de7/Fun4AllBase_8h.html" target="_top" xlink:title="Fun4AllBase.h">
<polygon fill="none" stroke="#000000" points="0,-57.5 0,-77.5 87,-77.5 87,-57.5 0,-57.5"/>
<text text-anchor="middle" x="43.5" y="-64.5" font-family="FreeSans" font-size="10.00" fill="#000000">Fun4AllBase.h</text>
</a>
</g>
</g>
<!-- Node2&#45;&gt;Node3 -->
<g id="edge2" class="edge">
<title>Node2&#45;&gt;Node3</title>
<path fill="none" stroke="#191970" d="M59.9244,-114.3095C57.2794,-106.7714 53.5946,-96.2696 50.3853,-87.123"/>
<polygon fill="#191970" stroke="#191970" points="53.6582,-85.8794 47.0446,-77.6022 47.053,-88.1971 53.6582,-85.8794"/>
</g>
<!-- Node2&#45;&gt;Node5 -->
<g id="edge5" class="edge">
<title>Node2&#45;&gt;Node5</title>
<path fill="none" stroke="#191970" d="M71.8754,-114.368C79.0047,-105.3151 89.0827,-91.4425 95.5,-78 102.7295,-62.8563 107.9571,-44.5409 111.2507,-30.8116"/>
<polygon fill="#191970" stroke="#191970" points="114.6928,-31.4576 113.4787,-20.9326 107.8643,-29.9175 114.6928,-31.4576"/>
</g>
<!-- Node4 -->
<g id="node4" class="node">
<title>Node4</title>
<polygon fill="none" stroke="#bfbfbf" points="19,-.5 19,-20.5 68,-20.5 68,-.5 19,-.5"/>
<text text-anchor="middle" x="43.5" y="-7.5" font-family="FreeSans" font-size="10.00" fill="#000000">climits</text>
</g>
<!-- Node3&#45;&gt;Node4 -->
<g id="edge3" class="edge">
<title>Node3&#45;&gt;Node4</title>
<path fill="none" stroke="#191970" d="M43.5,-57.3095C43.5,-49.9335 43.5,-39.72 43.5,-30.715"/>
<polygon fill="#191970" stroke="#191970" points="47.0001,-30.6022 43.5,-20.6022 40.0001,-30.6023 47.0001,-30.6022"/>
</g>
<!-- Node3&#45;&gt;Node5 -->
<g id="edge4" class="edge">
<title>Node3&#45;&gt;Node5</title>
<path fill="none" stroke="#191970" d="M56.3722,-57.3095C67.0203,-48.8798 82.3498,-36.7439 94.7318,-26.9415"/>
<polygon fill="#191970" stroke="#191970" points="97.0713,-29.5535 102.7393,-20.6022 92.7263,-24.0651 97.0713,-29.5535"/>
</g>
</g>
</svg>
