<?xml version="1.0" encoding="UTF-8" standalone="no"?>
<!DOCTYPE svg PUBLIC "-//W3C//DTD SVG 1.1//EN"
 "http://www.w3.org/Graphics/SVG/1.1/DTD/svg11.dtd">
<!-- Generated by graphviz version 2.40.1 (20161225.0304)
 -->
<!-- Title: coresoftware/blob/master/simulation/g4simulation/g4detectors/PHG4InnerHcalDetector.h Pages: 1 -->
<svg width="700pt" height="146pt"
 viewBox="0.00 0.00 699.50 146.00" xmlns="http://www.w3.org/2000/svg" xmlns:xlink="http://www.w3.org/1999/xlink">
<g id="graph0" class="graph" transform="scale(1 1) rotate(0) translate(4 142)">
<title>coresoftware/blob/master/simulation/g4simulation/g4detectors/PHG4InnerHcalDetector.h</title>
<!-- Node1 -->
<g id="node1" class="node">
<title>Node1</title>
<polygon fill="#bfbfbf" stroke="#000000" points="232.5,-93.5 232.5,-137.5 445.5,-137.5 445.5,-93.5 232.5,-93.5"/>
<text text-anchor="start" x="240.5" y="-124.5" font-family="FreeSans" font-size="10.00" fill="#000000">coresoftware/blob/master</text>
<text text-anchor="start" x="240.5" y="-112.5" font-family="FreeSans" font-size="10.00" fill="#000000">/simulation/g4simulation</text>
<text text-anchor="middle" x="339" y="-100.5" font-family="FreeSans" font-size="10.00" fill="#000000">/g4detectors/PHG4InnerHcalDetector.h</text>
</g>
<!-- Node2 -->
<g id="node2" class="node">
<title>Node2</title>
<g id="a_node2"><a xlink:href="../../d4/dda/PHG4InnerHcalDetector_8cc.html" target="_top" xlink:title="coresoftware/blob/master\l/simulation/g4simulation\l/g4detectors/PHG4InnerHcalDetector.cc">
<polygon fill="none" stroke="#000000" points="0,-6.5 0,-50.5 218,-50.5 218,-6.5 0,-6.5"/>
<text text-anchor="start" x="8" y="-37.5" font-family="FreeSans" font-size="10.00" fill="#000000">coresoftware/blob/master</text>
<text text-anchor="start" x="8" y="-25.5" font-family="FreeSans" font-size="10.00" fill="#000000">/simulation/g4simulation</text>
<text text-anchor="middle" x="109" y="-13.5" font-family="FreeSans" font-size="10.00" fill="#000000">/g4detectors/PHG4InnerHcalDetector.cc</text>
</a>
</g>
</g>
<!-- Node1&#45;&gt;Node2 -->
<g id="edge1" class="edge">
<title>Node1&#45;&gt;Node2</title>
<path fill="none" stroke="#191970" d="M271.0924,-89.8132C238.1092,-77.3369 198.8785,-62.4975 167.2739,-50.5427"/>
<polygon fill="#191970" stroke="#191970" points="270.0724,-93.1694 280.664,-93.4338 272.549,-86.6221 270.0724,-93.1694"/>
</g>
<!-- Node3 -->
<g id="node3" class="node">
<title>Node3</title>
<g id="a_node3"><a xlink:href="../../de/d72/PHG4InnerHcalSteppingAction_8cc.html" target="_top" xlink:title="coresoftware/blob/master\l/simulation/g4simulation\l/g4detectors/PHG4InnerHcalStepping\lAction.cc">
<polygon fill="none" stroke="#000000" points="236,-.5 236,-56.5 442,-56.5 442,-.5 236,-.5"/>
<text text-anchor="start" x="244" y="-43.5" font-family="FreeSans" font-size="10.00" fill="#000000">coresoftware/blob/master</text>
<text text-anchor="start" x="244" y="-31.5" font-family="FreeSans" font-size="10.00" fill="#000000">/simulation/g4simulation</text>
<text text-anchor="start" x="244" y="-19.5" font-family="FreeSans" font-size="10.00" fill="#000000">/g4detectors/PHG4InnerHcalStepping</text>
<text text-anchor="middle" x="339" y="-7.5" font-family="FreeSans" font-size="10.00" fill="#000000">Action.cc</text>
</a>
</g>
</g>
<!-- Node1&#45;&gt;Node3 -->
<g id="edge2" class="edge">
<title>Node1&#45;&gt;Node3</title>
<path fill="none" stroke="#191970" d="M339,-82.986C339,-74.3663 339,-65.1307 339,-56.7577"/>
<polygon fill="#191970" stroke="#191970" points="335.5001,-83.0953 339,-93.0953 342.5001,-83.0954 335.5001,-83.0953"/>
</g>
<!-- Node4 -->
<g id="node4" class="node">
<title>Node4</title>
<g id="a_node4"><a xlink:href="../../d0/df9/PHG4InnerHcalSubsystem_8cc.html" target="_top" xlink:title="coresoftware/blob/master\l/simulation/g4simulation\l/g4detectors/PHG4InnerHcalSubsystem.cc">
<polygon fill="none" stroke="#000000" points="460.5,-6.5 460.5,-50.5 691.5,-50.5 691.5,-6.5 460.5,-6.5"/>
<text text-anchor="start" x="468.5" y="-37.5" font-family="FreeSans" font-size="10.00" fill="#000000">coresoftware/blob/master</text>
<text text-anchor="start" x="468.5" y="-25.5" font-family="FreeSans" font-size="10.00" fill="#000000">/simulation/g4simulation</text>
<text text-anchor="middle" x="576" y="-13.5" font-family="FreeSans" font-size="10.00" fill="#000000">/g4detectors/PHG4InnerHcalSubsystem.cc</text>
</a>
</g>
</g>
<!-- Node1&#45;&gt;Node4 -->
<g id="edge3" class="edge">
<title>Node1&#45;&gt;Node4</title>
<path fill="none" stroke="#191970" d="M408.5371,-89.9737C442.6143,-77.4644 483.2463,-62.5488 515.9526,-50.5427"/>
<polygon fill="#191970" stroke="#191970" points="407.2928,-86.702 399.1115,-93.4338 409.7051,-93.2733 407.2928,-86.702"/>
</g>
</g>
</svg>
