<?xml version="1.0" encoding="UTF-8" standalone="no"?>
<!DOCTYPE svg PUBLIC "-//W3C//DTD SVG 1.1//EN"
 "http://www.w3.org/Graphics/SVG/1.1/DTD/svg11.dtd">
<!-- Generated by graphviz version 2.40.1 (20161225.0304)
 -->
<!-- Title: CaloRawClusterEval::get_errors Pages: 1 -->
<svg width="613pt" height="41pt"
 viewBox="0.00 0.00 613.00 41.00" xmlns="http://www.w3.org/2000/svg" xmlns:xlink="http://www.w3.org/1999/xlink">
<g id="graph0" class="graph" transform="scale(1 1) rotate(0) translate(4 37)">
<title>CaloRawClusterEval::get_errors</title>
<!-- Node1 -->
<g id="node1" class="node">
<title>Node1</title>
<polygon fill="#bfbfbf" stroke="#000000" points="0,-.5 0,-32.5 116,-32.5 116,-.5 0,-.5"/>
<text text-anchor="start" x="8" y="-19.5" font-family="FreeSans" font-size="10.00" fill="#000000">CaloRawClusterEval</text>
<text text-anchor="middle" x="58" y="-7.5" font-family="FreeSans" font-size="10.00" fill="#000000">::get_errors</text>
</g>
<!-- Node2 -->
<g id="node2" class="node">
<title>Node2</title>
<g id="a_node2"><a xlink:href="../../db/d10/classCaloEvalStack.html#acd9552e2da44d942125e80ed4c703883" target="_top" xlink:title="CaloEvalStack::get\l_errors">
<polygon fill="none" stroke="#000000" points="152,-.5 152,-32.5 264,-32.5 264,-.5 152,-.5"/>
<text text-anchor="start" x="160" y="-19.5" font-family="FreeSans" font-size="10.00" fill="#000000">CaloEvalStack::get</text>
<text text-anchor="middle" x="208" y="-7.5" font-family="FreeSans" font-size="10.00" fill="#000000">_errors</text>
</a>
</g>
</g>
<!-- Node1&#45;&gt;Node2 -->
<g id="edge1" class="edge">
<title>Node1&#45;&gt;Node2</title>
<path fill="none" stroke="#191970" d="M126.6654,-16.5C135.13,-16.5 143.7029,-16.5 151.9489,-16.5"/>
<polygon fill="#191970" stroke="#191970" points="126.4235,-13.0001 116.4234,-16.5 126.4234,-20.0001 126.4235,-13.0001"/>
</g>
<!-- Node3 -->
<g id="node3" class="node">
<title>Node3</title>
<g id="a_node3"><a xlink:href="../../d3/d22/classJetTruthEval.html#a427a42d935036e7f3ca9176f93f7acf5" target="_top" xlink:title="get a count of the errors discovered thus far">
<polygon fill="none" stroke="#000000" points="300,-6.5 300,-26.5 435,-26.5 435,-6.5 300,-6.5"/>
<text text-anchor="middle" x="367.5" y="-13.5" font-family="FreeSans" font-size="10.00" fill="#000000">JetTruthEval::get_errors</text>
</a>
</g>
</g>
<!-- Node2&#45;&gt;Node3 -->
<g id="edge2" class="edge">
<title>Node2&#45;&gt;Node3</title>
<path fill="none" stroke="#191970" d="M274.3423,-16.5C282.7337,-16.5 291.3289,-16.5 299.742,-16.5"/>
<polygon fill="#191970" stroke="#191970" points="274.2338,-13.0001 264.2337,-16.5 274.2337,-20.0001 274.2338,-13.0001"/>
</g>
<!-- Node4 -->
<g id="node4" class="node">
<title>Node4</title>
<g id="a_node4"><a xlink:href="../../dd/d75/classJetRecoEval.html#a148db6601c00c183ff9d499f672b7562" target="_top" xlink:title="get a count of the errors discovered thus far">
<polygon fill="none" stroke="#000000" points="471,-6.5 471,-26.5 605,-26.5 605,-6.5 471,-6.5"/>
<text text-anchor="middle" x="538" y="-13.5" font-family="FreeSans" font-size="10.00" fill="#000000">JetRecoEval::get_errors</text>
</a>
</g>
</g>
<!-- Node3&#45;&gt;Node4 -->
<g id="edge3" class="edge">
<title>Node3&#45;&gt;Node4</title>
<path fill="none" stroke="#191970" d="M445.6148,-16.5C454.0655,-16.5 462.6103,-16.5 470.9141,-16.5"/>
<polygon fill="#191970" stroke="#191970" points="445.3761,-13.0001 435.376,-16.5 445.376,-20.0001 445.3761,-13.0001"/>
</g>
</g>
</svg>
