<?xml version="1.0" encoding="UTF-8" standalone="no"?>
<!DOCTYPE svg PUBLIC "-//W3C//DTD SVG 1.1//EN"
 "http://www.w3.org/Graphics/SVG/1.1/DTD/svg11.dtd">
<!-- Generated by graphviz version 2.40.1 (20161225.0304)
 -->
<!-- Title: CaloRawClusterEval::get_energy_contribution Pages: 1 -->
<svg width="1154pt" height="852pt"
 viewBox="0.00 0.00 1154.00 852.00" xmlns="http://www.w3.org/2000/svg" xmlns:xlink="http://www.w3.org/1999/xlink">
<g id="graph0" class="graph" transform="scale(1 1) rotate(0) translate(4 848)">
<title>CaloRawClusterEval::get_energy_contribution</title>
<!-- Node1 -->
<g id="node1" class="node">
<title>Node1</title>
<polygon fill="#bfbfbf" stroke="#000000" points="0,-689.5 0,-721.5 146,-721.5 146,-689.5 0,-689.5"/>
<text text-anchor="start" x="8" y="-708.5" font-family="FreeSans" font-size="10.00" fill="#000000">CaloRawClusterEval</text>
<text text-anchor="middle" x="73" y="-696.5" font-family="FreeSans" font-size="10.00" fill="#000000">::get_energy_contribution</text>
</g>
<!-- Node2 -->
<g id="node2" class="node">
<title>Node2</title>
<g id="a_node2"><a xlink:href="../../da/d7e/classCaloRawClusterEval.html#aadd6df22b452d89c41139c157fe9d14e" target="_top" xlink:title="which cluster did this primary truth shower contribute the most energy to?">
<polygon fill="none" stroke="#000000" points="209.5,-641.5 209.5,-673.5 325.5,-673.5 325.5,-641.5 209.5,-641.5"/>
<text text-anchor="start" x="217.5" y="-660.5" font-family="FreeSans" font-size="10.00" fill="#000000">CaloRawClusterEval</text>
<text text-anchor="middle" x="267.5" y="-648.5" font-family="FreeSans" font-size="10.00" fill="#000000">::best_cluster_from</text>
</a>
</g>
</g>
<!-- Node1&#45;&gt;Node2 -->
<g id="edge1" class="edge">
<title>Node1&#45;&gt;Node2</title>
<path fill="none" stroke="#191970" d="M147.9183,-687.0112C168.3099,-681.9788 190.0861,-676.6047 209.3921,-671.8402"/>
<polygon fill="#191970" stroke="#191970" points="146.9062,-683.6558 138.0361,-689.45 148.5834,-690.452 146.9062,-683.6558"/>
</g>
<!-- Node4 -->
<g id="node4" class="node">
<title>Node4</title>
<g id="a_node4"><a xlink:href="../../dd/d59/classCaloEvaluator.html#a5298ee9646d361a4960fc0e20f83c880" target="_top" xlink:title="dump the evaluator information into ntuple for external analysis">
<polygon fill="none" stroke="#000000" points="615,-772.5 615,-804.5 756,-804.5 756,-772.5 615,-772.5"/>
<text text-anchor="start" x="623" y="-791.5" font-family="FreeSans" font-size="10.00" fill="#000000">CaloEvaluator::fillOutput</text>
<text text-anchor="middle" x="685.5" y="-779.5" font-family="FreeSans" font-size="10.00" fill="#000000">Ntuples</text>
</a>
</g>
</g>
<!-- Node1&#45;&gt;Node4 -->
<g id="edge8" class="edge">
<title>Node1&#45;&gt;Node4</title>
<path fill="none" stroke="#191970" d="M109.6757,-726.5638C130.2678,-737.3758 156.8183,-749.6774 182,-756.5 332.0614,-797.1566 516.0861,-796.8178 614.8349,-792.7872"/>
<polygon fill="#191970" stroke="#191970" points="111.1266,-723.3703 100.6601,-721.726 107.8167,-729.5384 111.1266,-723.3703"/>
</g>
<!-- Node9 -->
<g id="node9" class="node">
<title>Node9</title>
<g id="a_node9"><a xlink:href="../../da/d7e/classCaloRawClusterEval.html#a7a286115cba7a692a7a6da4cdfaf1fca" target="_top" xlink:title="how much energy did this primary truth particle contribute to this cluster">
<polygon fill="none" stroke="#000000" points="194.5,-590.5 194.5,-622.5 340.5,-622.5 340.5,-590.5 194.5,-590.5"/>
<text text-anchor="start" x="202.5" y="-609.5" font-family="FreeSans" font-size="10.00" fill="#000000">CaloRawClusterEval</text>
<text text-anchor="middle" x="267.5" y="-597.5" font-family="FreeSans" font-size="10.00" fill="#000000">::get_energy_contribution</text>
</a>
</g>
</g>
<!-- Node1&#45;&gt;Node9 -->
<g id="edge9" class="edge">
<title>Node1&#45;&gt;Node9</title>
<path fill="none" stroke="#191970" d="M101.4314,-683.0389C122.6474,-667.1523 152.8781,-646.3049 182,-632.5 189.7107,-628.8448 198.0547,-625.5601 206.404,-622.6555"/>
<polygon fill="#191970" stroke="#191970" points="99.047,-680.4549 93.202,-689.2915 103.2819,-686.0286 99.047,-680.4549"/>
</g>
<!-- Node10 -->
<g id="node10" class="node">
<title>Node10</title>
<g id="a_node10"><a xlink:href="../../dd/d75/classJetRecoEval.html#af6356d19d3ff0ee9c9849348466e7d0e" target="_top" xlink:title="what was the energy contribution to this reconstructed jet from this truth jet?">
<polygon fill="none" stroke="#000000" points="197.5,-301.5 197.5,-333.5 337.5,-333.5 337.5,-301.5 197.5,-301.5"/>
<text text-anchor="start" x="205.5" y="-320.5" font-family="FreeSans" font-size="10.00" fill="#000000">JetRecoEval::get_energy</text>
<text text-anchor="middle" x="267.5" y="-308.5" font-family="FreeSans" font-size="10.00" fill="#000000">_contribution</text>
</a>
</g>
</g>
<!-- Node1&#45;&gt;Node10 -->
<g id="edge10" class="edge">
<title>Node1&#45;&gt;Node10</title>
<path fill="none" stroke="#191970" d="M85.6357,-680.2935C122.4659,-606.8225 229.0227,-394.2568 259.3556,-333.747"/>
<polygon fill="#191970" stroke="#191970" points="82.4623,-678.8139 81.1098,-689.3221 88.7201,-681.9509 82.4623,-678.8139"/>
</g>
<!-- Node28 -->
<g id="node28" class="node">
<title>Node28</title>
<g id="a_node28"><a xlink:href="../../da/d7e/classCaloRawClusterEval.html#ac0e58d7e3a9311943294ce4a7ac4d290" target="_top" xlink:title="which primary shower contributed the most energy to this cluster?">
<polygon fill="none" stroke="#000000" points="208,-702.5 208,-746.5 327,-746.5 327,-702.5 208,-702.5"/>
<text text-anchor="start" x="216" y="-733.5" font-family="FreeSans" font-size="10.00" fill="#000000">CaloRawClusterEval</text>
<text text-anchor="start" x="216" y="-721.5" font-family="FreeSans" font-size="10.00" fill="#000000">::max_truth_primary</text>
<text text-anchor="middle" x="267.5" y="-709.5" font-family="FreeSans" font-size="10.00" fill="#000000">_shower_by_energy</text>
</a>
</g>
</g>
<!-- Node1&#45;&gt;Node28 -->
<g id="edge39" class="edge">
<title>Node1&#45;&gt;Node28</title>
<path fill="none" stroke="#191970" d="M156.3759,-713.6447C173.7123,-715.3382 191.6492,-717.0904 207.9217,-718.68"/>
<polygon fill="#191970" stroke="#191970" points="156.5479,-710.1449 146.255,-712.656 155.8673,-717.1118 156.5479,-710.1449"/>
</g>
<!-- Node33 -->
<g id="node33" class="node">
<title>Node33</title>
<g id="a_node33"><a xlink:href="../../dd/d59/classCaloEvaluator.html#ab7e09466d57c5b93274f09f61c0f321e" target="_top" xlink:title="print out the ancestry information for detailed diagnosis">
<polygon fill="none" stroke="#000000" points="182,-823.5 182,-843.5 353,-843.5 353,-823.5 182,-823.5"/>
<text text-anchor="middle" x="267.5" y="-830.5" font-family="FreeSans" font-size="10.00" fill="#000000">CaloEvaluator::printOutputInfo</text>
</a>
</g>
</g>
<!-- Node1&#45;&gt;Node33 -->
<g id="edge45" class="edge">
<title>Node1&#45;&gt;Node33</title>
<path fill="none" stroke="#191970" d="M92.1983,-729.2925C112.27,-752.6672 145.8378,-787.7572 182,-808.5 193.1345,-814.8868 206.0365,-819.7601 218.3895,-823.4299"/>
<polygon fill="#191970" stroke="#191970" points="94.7996,-726.9479 85.6795,-721.5559 89.4465,-731.4585 94.7996,-726.9479"/>
</g>
<!-- Node3 -->
<g id="node3" class="node">
<title>Node3</title>
<g id="a_node3"><a xlink:href="../../da/d7e/classCaloRawClusterEval.html#a88fec8e70a64c5cb4986bcc4ad519470" target="_top" xlink:title="which cluster did this primary truth particle contribute the most energy to?">
<polygon fill="none" stroke="#000000" points="419.5,-631.5 419.5,-663.5 535.5,-663.5 535.5,-631.5 419.5,-631.5"/>
<text text-anchor="start" x="427.5" y="-650.5" font-family="FreeSans" font-size="10.00" fill="#000000">CaloRawClusterEval</text>
<text text-anchor="middle" x="477.5" y="-638.5" font-family="FreeSans" font-size="10.00" fill="#000000">::best_cluster_from</text>
</a>
</g>
</g>
<!-- Node2&#45;&gt;Node3 -->
<g id="edge2" class="edge">
<title>Node2&#45;&gt;Node3</title>
<path fill="none" stroke="#191970" d="M335.8331,-654.246C362.7411,-652.9647 393.3231,-651.5084 419.1689,-650.2777"/>
<polygon fill="#191970" stroke="#191970" points="335.54,-650.7559 325.7178,-654.7277 335.873,-657.748 335.54,-650.7559"/>
</g>
<!-- Node2&#45;&gt;Node4 -->
<g id="edge3" class="edge">
<title>Node2&#45;&gt;Node4</title>
<path fill="none" stroke="#191970" d="M335.5271,-667.2659C417.5424,-679.4678 546.8253,-700.232 566,-712.5 589.3708,-727.4527 579.4759,-747.2999 602,-763.5 606.7911,-766.9459 612.0603,-769.9221 617.5508,-772.4918"/>
<polygon fill="#191970" stroke="#191970" points="335.9276,-663.7872 325.5228,-665.7851 334.9025,-670.7117 335.9276,-663.7872"/>
</g>
<!-- Node6 -->
<g id="node6" class="node">
<title>Node6</title>
<g id="a_node6"><a xlink:href="../../d7/ded/classSTACalorimeterCharacterization.html#aebaae010ab7828d310691192de7d16fe" target="_top" xlink:title="STACalorimeterCharacterization\l::process_event">
<polygon fill="none" stroke="#000000" points="389,-580.5 389,-612.5 566,-612.5 566,-580.5 389,-580.5"/>
<text text-anchor="start" x="397" y="-599.5" font-family="FreeSans" font-size="10.00" fill="#000000">STACalorimeterCharacterization</text>
<text text-anchor="middle" x="477.5" y="-587.5" font-family="FreeSans" font-size="10.00" fill="#000000">::process_event</text>
</a>
</g>
</g>
<!-- Node2&#45;&gt;Node6 -->
<g id="edge5" class="edge">
<title>Node2&#45;&gt;Node6</title>
<path fill="none" stroke="#191970" d="M332.6332,-638.5804C361.388,-630.2278 394.8274,-620.5144 422.3293,-612.5258"/>
<polygon fill="#191970" stroke="#191970" points="331.3018,-635.3224 322.675,-641.473 333.2544,-642.0445 331.3018,-635.3224"/>
</g>
<!-- Node7 -->
<g id="node7" class="node">
<title>Node7</title>
<g id="a_node7"><a xlink:href="../../d9/d7b/classQAG4SimulationCalorimeter.html#a208fd8c361982115126f11b88541e071" target="_top" xlink:title="QAG4SimulationCalorimeter\l::process_event_Cluster">
<polygon fill="none" stroke="#000000" points="398,-529.5 398,-561.5 557,-561.5 557,-529.5 398,-529.5"/>
<text text-anchor="start" x="406" y="-548.5" font-family="FreeSans" font-size="10.00" fill="#000000">QAG4SimulationCalorimeter</text>
<text text-anchor="middle" x="477.5" y="-536.5" font-family="FreeSans" font-size="10.00" fill="#000000">::process_event_Cluster</text>
</a>
</g>
</g>
<!-- Node2&#45;&gt;Node7 -->
<g id="edge6" class="edge">
<title>Node2&#45;&gt;Node7</title>
<path fill="none" stroke="#191970" d="M335.0916,-643.1247C341.4835,-640.2123 347.5868,-636.7104 353,-632.5 377.8489,-613.1727 364.1635,-590.8432 389,-571.5 393.9273,-567.6625 399.4074,-564.3908 405.1573,-561.6016"/>
<polygon fill="#191970" stroke="#191970" points="333.5208,-639.9848 325.5671,-646.984 336.1496,-646.4724 333.5208,-639.9848"/>
</g>
<!-- Node5 -->
<g id="node5" class="node">
<title>Node5</title>
<g id="a_node5"><a xlink:href="../../dd/d59/classCaloEvaluator.html#a936967e98c89ec58e7851b0661b838c0" target="_top" xlink:title="CaloEvaluator::process\l_event">
<polygon fill="none" stroke="#000000" points="831.5,-794.5 831.5,-826.5 963.5,-826.5 963.5,-794.5 831.5,-794.5"/>
<text text-anchor="start" x="839.5" y="-813.5" font-family="FreeSans" font-size="10.00" fill="#000000">CaloEvaluator::process</text>
<text text-anchor="middle" x="897.5" y="-801.5" font-family="FreeSans" font-size="10.00" fill="#000000">_event</text>
</a>
</g>
</g>
<!-- Node4&#45;&gt;Node5 -->
<g id="edge4" class="edge">
<title>Node4&#45;&gt;Node5</title>
<path fill="none" stroke="#191970" d="M766.1641,-796.8708C787.6264,-799.098 810.5608,-801.478 831.1601,-803.6157"/>
<polygon fill="#191970" stroke="#191970" points="766.4008,-793.3767 756.0929,-795.8257 765.6782,-800.3393 766.4008,-793.3767"/>
</g>
<!-- Node8 -->
<g id="node8" class="node">
<title>Node8</title>
<g id="a_node8"><a xlink:href="../../d9/d7b/classQAG4SimulationCalorimeter.html#aa3467829c4182ba4e09f74fd8198cb28" target="_top" xlink:title="QAG4SimulationCalorimeter\l::process_event">
<polygon fill="none" stroke="#000000" points="606,-537.5 606,-569.5 765,-569.5 765,-537.5 606,-537.5"/>
<text text-anchor="start" x="614" y="-556.5" font-family="FreeSans" font-size="10.00" fill="#000000">QAG4SimulationCalorimeter</text>
<text text-anchor="middle" x="685.5" y="-544.5" font-family="FreeSans" font-size="10.00" fill="#000000">::process_event</text>
</a>
</g>
</g>
<!-- Node7&#45;&gt;Node8 -->
<g id="edge7" class="edge">
<title>Node7&#45;&gt;Node8</title>
<path fill="none" stroke="#191970" d="M567.2075,-548.9503C580.0002,-549.4423 593.087,-549.9457 605.6737,-550.4298"/>
<polygon fill="#191970" stroke="#191970" points="567.1534,-545.4457 557.0262,-548.5587 566.8843,-552.4405 567.1534,-545.4457"/>
</g>
<!-- Node11 -->
<g id="node11" class="node">
<title>Node11</title>
<g id="a_node11"><a xlink:href="../../d8/de2/classJetEnergies.html#a065fee78622ed073cafb5cf172d67bef" target="_top" xlink:title="dump the evaluator information into ntuple for external analysis">
<polygon fill="none" stroke="#000000" points="602,-165.5 602,-185.5 769,-185.5 769,-165.5 602,-165.5"/>
<text text-anchor="middle" x="685.5" y="-172.5" font-family="FreeSans" font-size="10.00" fill="#000000">JetEnergies::fillOutputNtuples</text>
</a>
</g>
</g>
<!-- Node10&#45;&gt;Node11 -->
<g id="edge11" class="edge">
<title>Node10&#45;&gt;Node11</title>
<path fill="none" stroke="#191970" d="M283.2426,-293.0112C303.649,-263.6769 342.221,-215.8273 389,-194.5 456.3497,-163.7942 541.3582,-161.5424 603.0661,-165.4932"/>
<polygon fill="#191970" stroke="#191970" points="280.2214,-291.2303 277.5038,-301.4706 286.0142,-295.1601 280.2214,-291.2303"/>
</g>
<!-- Node13 -->
<g id="node13" class="node">
<title>Node13</title>
<g id="a_node13"><a xlink:href="../../d0/dc8/classSoftLeptonTaggingTruth.html#a3989ff17a01ba304478d558b99c3214f" target="_top" xlink:title="SoftLeptonTaggingTruth\l::process_Spectrum">
<polygon fill="none" stroke="#000000" points="410,-464.5 410,-496.5 545,-496.5 545,-464.5 410,-464.5"/>
<text text-anchor="start" x="418" y="-483.5" font-family="FreeSans" font-size="10.00" fill="#000000">SoftLeptonTaggingTruth</text>
<text text-anchor="middle" x="477.5" y="-471.5" font-family="FreeSans" font-size="10.00" fill="#000000">::process_Spectrum</text>
</a>
</g>
</g>
<!-- Node10&#45;&gt;Node13 -->
<g id="edge13" class="edge">
<title>Node10&#45;&gt;Node13</title>
<path fill="none" stroke="#191970" d="M292.6736,-340.6051C316.7437,-362.3176 354.392,-395.3013 389,-421.5 409.3178,-436.8809 433.4475,-452.8239 451.3753,-464.2536"/>
<polygon fill="#191970" stroke="#191970" points="294.8152,-337.8225 285.0552,-333.6999 290.1141,-343.009 294.8152,-337.8225"/>
</g>
<!-- Node15 -->
<g id="node15" class="node">
<title>Node15</title>
<g id="a_node15"><a xlink:href="../../d4/d28/classQAG4SimulationJet.html#ac2803dd2fafe7d6131f3311c9f1e4e27" target="_top" xlink:title="QAG4SimulationJet::\lprocess_Spectrum">
<polygon fill="none" stroke="#000000" points="838.5,-.5 838.5,-32.5 956.5,-32.5 956.5,-.5 838.5,-.5"/>
<text text-anchor="start" x="846.5" y="-19.5" font-family="FreeSans" font-size="10.00" fill="#000000">QAG4SimulationJet::</text>
<text text-anchor="middle" x="897.5" y="-7.5" font-family="FreeSans" font-size="10.00" fill="#000000">process_Spectrum</text>
</a>
</g>
</g>
<!-- Node10&#45;&gt;Node15 -->
<g id="edge15" class="edge">
<title>Node10&#45;&gt;Node15</title>
<path fill="none" stroke="#191970" d="M282.5755,-292.6113C303.4661,-259.5591 343.7913,-200.6858 389,-160.5 471.5474,-87.1239 496.4098,-64.8856 602,-32.5 681.0813,-8.245 777.5702,-8.1699 838.2928,-11.4543"/>
<polygon fill="#191970" stroke="#191970" points="279.5336,-290.8749 277.2108,-301.212 285.4729,-294.5796 279.5336,-290.8749"/>
</g>
<!-- Node17 -->
<g id="node17" class="node">
<title>Node17</title>
<g id="a_node17"><a xlink:href="../../d1/df4/classJetEvaluator.html#a0c608411c03ff1de3fca80d64e93ae5d" target="_top" xlink:title="dump the evaluator information into ntuple for external analysis">
<polygon fill="none" stroke="#000000" points="619,-435.5 619,-467.5 752,-467.5 752,-435.5 619,-435.5"/>
<text text-anchor="start" x="627" y="-454.5" font-family="FreeSans" font-size="10.00" fill="#000000">JetEvaluator::fillOutput</text>
<text text-anchor="middle" x="685.5" y="-442.5" font-family="FreeSans" font-size="10.00" fill="#000000">Ntuples</text>
</a>
</g>
</g>
<!-- Node10&#45;&gt;Node17 -->
<g id="edge17" class="edge">
<title>Node10&#45;&gt;Node17</title>
<path fill="none" stroke="#191970" d="M327.2688,-336.6603C410.058,-363.2004 558.1466,-410.6738 635.4371,-435.4511"/>
<polygon fill="#191970" stroke="#191970" points="328.0965,-333.2503 317.5054,-333.5304 325.9596,-339.9161 328.0965,-333.2503"/>
</g>
<!-- Node19 -->
<g id="node19" class="node">
<title>Node19</title>
<g id="a_node19"><a xlink:href="../../dd/d75/classJetRecoEval.html#af4bff244a32d216f097c7fab76c9b95a" target="_top" xlink:title="which truth jet contributed the most energy to this reconstructed jet?">
<polygon fill="none" stroke="#000000" points="410.5,-204.5 410.5,-236.5 544.5,-236.5 544.5,-204.5 410.5,-204.5"/>
<text text-anchor="start" x="418.5" y="-223.5" font-family="FreeSans" font-size="10.00" fill="#000000">JetRecoEval::max_truth</text>
<text text-anchor="middle" x="477.5" y="-211.5" font-family="FreeSans" font-size="10.00" fill="#000000">_jet_by_energy</text>
</a>
</g>
</g>
<!-- Node10&#45;&gt;Node19 -->
<g id="edge19" class="edge">
<title>Node10&#45;&gt;Node19</title>
<path fill="none" stroke="#191970" d="M311.7105,-297.0789C350.7467,-279.0479 406.8821,-253.1188 442.7713,-236.5414"/>
<polygon fill="#191970" stroke="#191970" points="309.7879,-294.1116 302.1772,-301.4824 312.7232,-300.4665 309.7879,-294.1116"/>
</g>
<!-- Node26 -->
<g id="node26" class="node">
<title>Node26</title>
<g id="a_node26"><a xlink:href="../../dd/d75/classJetRecoEval.html#a631b92837e600fbdb6b966a556fc9077" target="_top" xlink:title="which reconstructed jet had the largest energy contribution from this truth jet?">
<polygon fill="none" stroke="#000000" points="402,-307.5 402,-327.5 553,-327.5 553,-307.5 402,-307.5"/>
<text text-anchor="middle" x="477.5" y="-314.5" font-family="FreeSans" font-size="10.00" fill="#000000">JetRecoEval::best_jet_from</text>
</a>
</g>
</g>
<!-- Node10&#45;&gt;Node26 -->
<g id="edge32" class="edge">
<title>Node10&#45;&gt;Node26</title>
<path fill="none" stroke="#191970" d="M348.0182,-317.5C365.7318,-317.5 384.4298,-317.5 401.9396,-317.5"/>
<polygon fill="#191970" stroke="#191970" points="347.719,-314.0001 337.7189,-317.5 347.7189,-321.0001 347.719,-314.0001"/>
</g>
<!-- Node12 -->
<g id="node12" class="node">
<title>Node12</title>
<g id="a_node12"><a xlink:href="../../d8/de2/classJetEnergies.html#a6acaa9b2ba1fe7353781d2f5d476e8d1" target="_top" xlink:title="JetEnergies::process\l_event">
<polygon fill="none" stroke="#000000" points="837.5,-159.5 837.5,-191.5 957.5,-191.5 957.5,-159.5 837.5,-159.5"/>
<text text-anchor="start" x="845.5" y="-178.5" font-family="FreeSans" font-size="10.00" fill="#000000">JetEnergies::process</text>
<text text-anchor="middle" x="897.5" y="-166.5" font-family="FreeSans" font-size="10.00" fill="#000000">_event</text>
</a>
</g>
</g>
<!-- Node11&#45;&gt;Node12 -->
<g id="edge12" class="edge">
<title>Node11&#45;&gt;Node12</title>
<path fill="none" stroke="#191970" d="M779.4692,-175.5C799.063,-175.5 819.2123,-175.5 837.1925,-175.5"/>
<polygon fill="#191970" stroke="#191970" points="779.288,-172.0001 769.288,-175.5 779.288,-179.0001 779.288,-172.0001"/>
</g>
<!-- Node14 -->
<g id="node14" class="node">
<title>Node14</title>
<g id="a_node14"><a xlink:href="../../d0/dc8/classSoftLeptonTaggingTruth.html#a152a3015fe9e7c089637c981a45787fe" target="_top" xlink:title="SoftLeptonTaggingTruth\l::process_event">
<polygon fill="none" stroke="#000000" points="618,-486.5 618,-518.5 753,-518.5 753,-486.5 618,-486.5"/>
<text text-anchor="start" x="626" y="-505.5" font-family="FreeSans" font-size="10.00" fill="#000000">SoftLeptonTaggingTruth</text>
<text text-anchor="middle" x="685.5" y="-493.5" font-family="FreeSans" font-size="10.00" fill="#000000">::process_event</text>
</a>
</g>
</g>
<!-- Node13&#45;&gt;Node14 -->
<g id="edge14" class="edge">
<title>Node13&#45;&gt;Node14</title>
<path fill="none" stroke="#191970" d="M555.0415,-488.7015C575.7081,-490.8874 597.868,-493.2312 617.9515,-495.3554"/>
<polygon fill="#191970" stroke="#191970" points="555.3443,-485.2141 545.0316,-487.6428 554.608,-492.1753 555.3443,-485.2141"/>
</g>
<!-- Node16 -->
<g id="node16" class="node">
<title>Node16</title>
<g id="a_node16"><a xlink:href="../../d4/d28/classQAG4SimulationJet.html#a98c3c0fb4d213ada3475e8fb9895bc29" target="_top" xlink:title="QAG4SimulationJet::\lprocess_event">
<polygon fill="none" stroke="#000000" points="1027,-150.5 1027,-182.5 1145,-182.5 1145,-150.5 1027,-150.5"/>
<text text-anchor="start" x="1035" y="-169.5" font-family="FreeSans" font-size="10.00" fill="#000000">QAG4SimulationJet::</text>
<text text-anchor="middle" x="1086" y="-157.5" font-family="FreeSans" font-size="10.00" fill="#000000">process_event</text>
</a>
</g>
</g>
<!-- Node15&#45;&gt;Node16 -->
<g id="edge16" class="edge">
<title>Node15&#45;&gt;Node16</title>
<path fill="none" stroke="#191970" d="M932.1652,-38.4688C949.8828,-50.1035 971.5417,-64.9636 990,-79.5 1019.3334,-102.6008 1050.9903,-132.3237 1069.6235,-150.3675"/>
<polygon fill="#191970" stroke="#191970" points="933.5877,-35.2186 923.2972,-32.6974 929.7694,-41.0856 933.5877,-35.2186"/>
</g>
<!-- Node18 -->
<g id="node18" class="node">
<title>Node18</title>
<g id="a_node18"><a xlink:href="../../d1/df4/classJetEvaluator.html#ad83508ae828d1f2e4a83a948465a0cd2" target="_top" xlink:title="JetEvaluator::process\l_event">
<polygon fill="none" stroke="#000000" points="835.5,-435.5 835.5,-467.5 959.5,-467.5 959.5,-435.5 835.5,-435.5"/>
<text text-anchor="start" x="843.5" y="-454.5" font-family="FreeSans" font-size="10.00" fill="#000000">JetEvaluator::process</text>
<text text-anchor="middle" x="897.5" y="-442.5" font-family="FreeSans" font-size="10.00" fill="#000000">_event</text>
</a>
</g>
</g>
<!-- Node17&#45;&gt;Node18 -->
<g id="edge18" class="edge">
<title>Node17&#45;&gt;Node18</title>
<path fill="none" stroke="#191970" d="M762.4182,-451.5C786.4021,-451.5 812.5389,-451.5 835.3762,-451.5"/>
<polygon fill="#191970" stroke="#191970" points="762.2872,-448.0001 752.2871,-451.5 762.2871,-455.0001 762.2872,-448.0001"/>
</g>
<!-- Node19&#45;&gt;Node11 -->
<g id="edge20" class="edge">
<title>Node19&#45;&gt;Node11</title>
<path fill="none" stroke="#191970" d="M554.6588,-203.807C583.0696,-197.6604 614.3491,-190.8932 639.1988,-185.5171"/>
<polygon fill="#191970" stroke="#191970" points="553.7782,-200.4165 544.7444,-205.9519 555.2584,-207.2582 553.7782,-200.4165"/>
</g>
<!-- Node19&#45;&gt;Node17 -->
<g id="edge26" class="edge">
<title>Node19&#45;&gt;Node17</title>
<path fill="none" stroke="#191970" d="M509.9077,-242.6667C528.3591,-256.6337 550.7606,-276.0466 566,-297.5 590.9489,-332.6219 575.9733,-353.1691 602,-387.5 616.8964,-407.1493 639.3024,-423.8726 657.1551,-435.2916"/>
<polygon fill="#191970" stroke="#191970" points="511.8724,-239.7667 501.748,-236.6448 507.7158,-245.399 511.8724,-239.7667"/>
</g>
<!-- Node20 -->
<g id="node20" class="node">
<title>Node20</title>
<g id="a_node20"><a xlink:href="../../dc/d65/classPhotonJet.html#a3f9d3ec941f851bc2246ceb0c5362c9f" target="_top" xlink:title="PhotonJet::process\l_event">
<polygon fill="none" stroke="#000000" points="842.5,-89.5 842.5,-121.5 952.5,-121.5 952.5,-89.5 842.5,-89.5"/>
<text text-anchor="start" x="850.5" y="-108.5" font-family="FreeSans" font-size="10.00" fill="#000000">PhotonJet::process</text>
<text text-anchor="middle" x="897.5" y="-96.5" font-family="FreeSans" font-size="10.00" fill="#000000">_event</text>
</a>
</g>
</g>
<!-- Node19&#45;&gt;Node20 -->
<g id="edge21" class="edge">
<title>Node19&#45;&gt;Node20</title>
<path fill="none" stroke="#191970" d="M487.6306,-194.8328C504.5903,-155.8718 542.8069,-83.2032 602,-53.5 691.8558,-8.4102 814.1806,-60.8628 868.9455,-89.4101"/>
<polygon fill="#191970" stroke="#191970" points="484.2506,-193.8409 483.5935,-204.4154 490.7015,-196.5588 484.2506,-193.8409"/>
</g>
<!-- Node21 -->
<g id="node21" class="node">
<title>Node21</title>
<g id="a_node21"><a xlink:href="../../dc/d65/classPhotonJet.html#a9b2de7dcbd5e3bbbd26150d418b7bb44" target="_top" xlink:title="PhotonJet::GetRecoHadrons\lAndJets">
<polygon fill="none" stroke="#000000" points="607.5,-114.5 607.5,-146.5 763.5,-146.5 763.5,-114.5 607.5,-114.5"/>
<text text-anchor="start" x="615.5" y="-133.5" font-family="FreeSans" font-size="10.00" fill="#000000">PhotonJet::GetRecoHadrons</text>
<text text-anchor="middle" x="685.5" y="-121.5" font-family="FreeSans" font-size="10.00" fill="#000000">AndJets</text>
</a>
</g>
</g>
<!-- Node19&#45;&gt;Node21 -->
<g id="edge22" class="edge">
<title>Node19&#45;&gt;Node21</title>
<path fill="none" stroke="#191970" d="M513.3732,-199.441C537.7912,-185.6934 571.154,-168.0366 602,-155.5 609.8505,-152.3093 618.262,-149.3183 626.6134,-146.5923"/>
<polygon fill="#191970" stroke="#191970" points="511.4396,-196.5141 504.4767,-204.4996 514.8997,-202.5992 511.4396,-196.5141"/>
</g>
<!-- Node22 -->
<g id="node22" class="node">
<title>Node22</title>
<g id="a_node22"><a xlink:href="../../d4/d28/classQAG4SimulationJet.html#a3e5c5fe2e5e5cee7fca6173ef6e6bfa2" target="_top" xlink:title="QAG4SimulationJet::\lprocess_TruthMatching">
<polygon fill="none" stroke="#000000" points="831.5,-243.5 831.5,-275.5 963.5,-275.5 963.5,-243.5 831.5,-243.5"/>
<text text-anchor="start" x="839.5" y="-262.5" font-family="FreeSans" font-size="10.00" fill="#000000">QAG4SimulationJet::</text>
<text text-anchor="middle" x="897.5" y="-250.5" font-family="FreeSans" font-size="10.00" fill="#000000">process_TruthMatching</text>
</a>
</g>
</g>
<!-- Node19&#45;&gt;Node22 -->
<g id="edge24" class="edge">
<title>Node19&#45;&gt;Node22</title>
<path fill="none" stroke="#191970" d="M554.9473,-220.6929C613.8453,-221.628 696.7835,-224.638 769,-233.5 789.4454,-236.0089 811.4944,-239.9933 831.458,-244.0963"/>
<polygon fill="#191970" stroke="#191970" points="554.6546,-217.1885 544.6059,-220.5461 554.5552,-224.1878 554.6546,-217.1885"/>
</g>
<!-- Node23 -->
<g id="node23" class="node">
<title>Node23</title>
<g id="a_node23"><a xlink:href="../../dd/d75/classJetRecoEval.html#a9775ea4a0c6e28f22da7997f4886f195" target="_top" xlink:title="JetRecoEval::unique\l_reco_jet_from_truth">
<polygon fill="none" stroke="#000000" points="625.5,-294.5 625.5,-326.5 745.5,-326.5 745.5,-294.5 625.5,-294.5"/>
<text text-anchor="start" x="633.5" y="-313.5" font-family="FreeSans" font-size="10.00" fill="#000000">JetRecoEval::unique</text>
<text text-anchor="middle" x="685.5" y="-301.5" font-family="FreeSans" font-size="10.00" fill="#000000">_reco_jet_from_truth</text>
</a>
</g>
</g>
<!-- Node19&#45;&gt;Node23 -->
<g id="edge27" class="edge">
<title>Node19&#45;&gt;Node23</title>
<path fill="none" stroke="#191970" d="M514.4154,-241.6164C538.7788,-255.0135 571.6829,-272.0966 602,-284.5 610.7125,-288.0645 620.1026,-291.4274 629.331,-294.4774"/>
<polygon fill="#191970" stroke="#191970" points="515.9614,-238.4716 505.5192,-236.6798 512.5649,-244.5924 515.9614,-238.4716"/>
</g>
<!-- Node24 -->
<g id="node24" class="node">
<title>Node24</title>
<g id="a_node24"><a xlink:href="../../dd/d75/classJetRecoEval.html#ac6030b2b14c885e19e35f86ec828d8d8" target="_top" xlink:title="JetRecoEval::unique\l_truth_jet_from_reco">
<polygon fill="none" stroke="#000000" points="625.5,-243.5 625.5,-275.5 745.5,-275.5 745.5,-243.5 625.5,-243.5"/>
<text text-anchor="start" x="633.5" y="-262.5" font-family="FreeSans" font-size="10.00" fill="#000000">JetRecoEval::unique</text>
<text text-anchor="middle" x="685.5" y="-250.5" font-family="FreeSans" font-size="10.00" fill="#000000">_truth_jet_from_reco</text>
</a>
</g>
</g>
<!-- Node19&#45;&gt;Node24 -->
<g id="edge29" class="edge">
<title>Node19&#45;&gt;Node24</title>
<path fill="none" stroke="#191970" d="M554.5958,-234.9555C577.8936,-239.3238 603.1256,-244.0548 625.1621,-248.1866"/>
<polygon fill="#191970" stroke="#191970" points="555.2182,-231.5112 544.7444,-233.1083 553.9281,-238.3913 555.2182,-231.5112"/>
</g>
<!-- Node25 -->
<g id="node25" class="node">
<title>Node25</title>
<g id="a_node25"><a xlink:href="../../d5/d1f/classMyJetAnalysis.html#a309e9a46394353251b673514d6eb28ac" target="_top" xlink:title="MyJetAnalysis::process\l_event">
<polygon fill="none" stroke="#000000" points="620,-63.5 620,-95.5 751,-95.5 751,-63.5 620,-63.5"/>
<text text-anchor="start" x="628" y="-82.5" font-family="FreeSans" font-size="10.00" fill="#000000">MyJetAnalysis::process</text>
<text text-anchor="middle" x="685.5" y="-70.5" font-family="FreeSans" font-size="10.00" fill="#000000">_event</text>
</a>
</g>
</g>
<!-- Node19&#45;&gt;Node25 -->
<g id="edge31" class="edge">
<title>Node19&#45;&gt;Node25</title>
<path fill="none" stroke="#191970" d="M497.4262,-196.1986C520.1527,-169.9871 559.6767,-128.7602 602,-104.5 607.9078,-101.1136 614.3187,-98.1452 620.8733,-95.5526"/>
<polygon fill="#191970" stroke="#191970" points="494.4796,-194.2601 490.6554,-204.1407 499.8065,-198.8014 494.4796,-194.2601"/>
</g>
<!-- Node21&#45;&gt;Node20 -->
<g id="edge23" class="edge">
<title>Node21&#45;&gt;Node20</title>
<path fill="none" stroke="#191970" d="M773.781,-120.0895C797.0618,-117.3441 821.5162,-114.4603 842.4792,-111.9883"/>
<polygon fill="#191970" stroke="#191970" points="773.0591,-116.6503 763.5378,-121.2974 773.8789,-123.6021 773.0591,-116.6503"/>
</g>
<!-- Node22&#45;&gt;Node16 -->
<g id="edge25" class="edge">
<title>Node22&#45;&gt;Node16</title>
<path fill="none" stroke="#191970" d="M939.6623,-238.6984C974.0945,-221.7107 1022.0478,-198.052 1053.5421,-182.5137"/>
<polygon fill="#191970" stroke="#191970" points="937.7535,-235.7373 930.3342,-243.3006 940.8507,-242.0149 937.7535,-235.7373"/>
</g>
<!-- Node23&#45;&gt;Node22 -->
<g id="edge28" class="edge">
<title>Node23&#45;&gt;Node22</title>
<path fill="none" stroke="#191970" d="M755.5735,-293.6427C779.9346,-287.7822 807.167,-281.231 831.2123,-275.4466"/>
<polygon fill="#191970" stroke="#191970" points="754.5876,-290.2799 745.6836,-296.0219 756.2249,-297.0858 754.5876,-290.2799"/>
</g>
<!-- Node24&#45;&gt;Node22 -->
<g id="edge30" class="edge">
<title>Node24&#45;&gt;Node22</title>
<path fill="none" stroke="#191970" d="M755.8985,-259.5C780.1766,-259.5 807.2739,-259.5 831.2123,-259.5"/>
<polygon fill="#191970" stroke="#191970" points="755.6837,-256.0001 745.6836,-259.5 755.6836,-263.0001 755.6837,-256.0001"/>
</g>
<!-- Node26&#45;&gt;Node11 -->
<g id="edge33" class="edge">
<title>Node26&#45;&gt;Node11</title>
<path fill="none" stroke="#191970" d="M500.9039,-301.5224C544.0523,-272.0653 634.9871,-209.9848 670.6767,-185.6198"/>
<polygon fill="#191970" stroke="#191970" points="498.7444,-298.7587 492.4588,-307.2877 502.6912,-304.54 498.7444,-298.7587"/>
</g>
<!-- Node26&#45;&gt;Node17 -->
<g id="edge36" class="edge">
<title>Node26&#45;&gt;Node17</title>
<path fill="none" stroke="#191970" d="M497.1455,-334.3688C529.2714,-361.86 590.6245,-413.9364 602,-420.5 611.9114,-426.2188 623.0697,-431.2216 633.926,-435.4446"/>
<polygon fill="#191970" stroke="#191970" points="499.1609,-331.4865 489.2898,-327.6378 494.6063,-336.8021 499.1609,-331.4865"/>
</g>
<!-- Node26&#45;&gt;Node22 -->
<g id="edge35" class="edge">
<title>Node26&#45;&gt;Node22</title>
<path fill="none" stroke="#191970" d="M498.5369,-333.8402C522.1754,-351.0746 562.4366,-377.1404 602,-387.5 673.8015,-406.3012 700.4,-415.8368 769,-387.5 824.5872,-364.5385 868.7581,-304.5879 887.6051,-275.6245"/>
<polygon fill="#191970" stroke="#191970" points="500.4362,-330.8905 490.3273,-327.7185 496.2517,-336.5021 500.4362,-330.8905"/>
</g>
<!-- Node26&#45;&gt;Node23 -->
<g id="edge37" class="edge">
<title>Node26&#45;&gt;Node23</title>
<path fill="none" stroke="#191970" d="M563.2887,-314.6129C584.073,-313.9134 605.8588,-313.1802 625.185,-312.5298"/>
<polygon fill="#191970" stroke="#191970" points="563.0578,-311.1186 553.1812,-314.953 563.2933,-318.1146 563.0578,-311.1186"/>
</g>
<!-- Node26&#45;&gt;Node24 -->
<g id="edge38" class="edge">
<title>Node26&#45;&gt;Node24</title>
<path fill="none" stroke="#191970" d="M523.7332,-304.6081C554.4123,-296.0533 594.914,-284.7596 627.7158,-275.6129"/>
<polygon fill="#191970" stroke="#191970" points="522.4232,-301.3397 513.7308,-307.3972 524.3035,-308.0825 522.4232,-301.3397"/>
</g>
<!-- Node27 -->
<g id="node27" class="node">
<title>Node27</title>
<g id="a_node27"><a xlink:href="../../db/d4c/classBJetModule.html#a93ec29147c2d7aea52780d7370141e74" target="_top" xlink:title="BJetModule::process\l_event">
<polygon fill="none" stroke="#000000" points="626,-345.5 626,-377.5 745,-377.5 745,-345.5 626,-345.5"/>
<text text-anchor="start" x="634" y="-364.5" font-family="FreeSans" font-size="10.00" fill="#000000">BJetModule::process</text>
<text text-anchor="middle" x="685.5" y="-352.5" font-family="FreeSans" font-size="10.00" fill="#000000">_event</text>
</a>
</g>
</g>
<!-- Node26&#45;&gt;Node27 -->
<g id="edge34" class="edge">
<title>Node26&#45;&gt;Node27</title>
<path fill="none" stroke="#191970" d="M535.0966,-329.6839C563.3774,-335.6664 597.4171,-342.8671 625.9554,-348.904"/>
<polygon fill="#191970" stroke="#191970" points="535.4666,-326.1848 524.9587,-327.5393 534.0178,-333.0332 535.4666,-326.1848"/>
</g>
<!-- Node29 -->
<g id="node29" class="node">
<title>Node29</title>
<g id="a_node29"><a xlink:href="../../da/d7e/classCaloRawClusterEval.html#acf8fb6e0c09e48569dc1a6d3a6f2a065" target="_top" xlink:title="which particle contributed the most energy to this cluster?">
<polygon fill="none" stroke="#000000" points="418,-721.5 418,-765.5 537,-765.5 537,-721.5 418,-721.5"/>
<text text-anchor="start" x="426" y="-752.5" font-family="FreeSans" font-size="10.00" fill="#000000">CaloRawClusterEval</text>
<text text-anchor="start" x="426" y="-740.5" font-family="FreeSans" font-size="10.00" fill="#000000">::max_truth_primary</text>
<text text-anchor="middle" x="477.5" y="-728.5" font-family="FreeSans" font-size="10.00" fill="#000000">_particle_by_energy</text>
</a>
</g>
</g>
<!-- Node28&#45;&gt;Node29 -->
<g id="edge40" class="edge">
<title>Node28&#45;&gt;Node29</title>
<path fill="none" stroke="#191970" d="M337.2994,-730.8152C363.3495,-733.1721 392.6685,-735.8248 417.7351,-738.0927"/>
<polygon fill="#191970" stroke="#191970" points="337.3906,-727.3092 327.1159,-729.8938 336.7598,-734.2807 337.3906,-727.3092"/>
</g>
<!-- Node29&#45;&gt;Node4 -->
<g id="edge44" class="edge">
<title>Node29&#45;&gt;Node4</title>
<path fill="none" stroke="#191970" d="M546.9599,-758.5274C568.7962,-763.2516 592.9242,-768.4716 614.8426,-773.2135"/>
<polygon fill="#191970" stroke="#191970" points="547.6185,-755.089 537.1045,-756.3952 546.1382,-761.9307 547.6185,-755.089"/>
</g>
<!-- Node30 -->
<g id="node30" class="node">
<title>Node30</title>
<g id="a_node30"><a xlink:href="../../db/db5/classDISKinematicsReco.html#ad801f1794841d3657aa4c0b2da334743" target="_top" xlink:title="DISKinematicsReco::\lInsertCandidateFromCluster">
<polygon fill="none" stroke="#000000" points="606.5,-721.5 606.5,-753.5 764.5,-753.5 764.5,-721.5 606.5,-721.5"/>
<text text-anchor="start" x="614.5" y="-740.5" font-family="FreeSans" font-size="10.00" fill="#000000">DISKinematicsReco::</text>
<text text-anchor="middle" x="685.5" y="-728.5" font-family="FreeSans" font-size="10.00" fill="#000000">InsertCandidateFromCluster</text>
</a>
</g>
</g>
<!-- Node29&#45;&gt;Node30 -->
<g id="edge41" class="edge">
<title>Node29&#45;&gt;Node30</title>
<path fill="none" stroke="#191970" d="M547.182,-741.4899C566.2153,-740.9409 586.9758,-740.342 606.4887,-739.7792"/>
<polygon fill="#191970" stroke="#191970" points="546.9993,-737.9937 537.1045,-741.7806 547.2012,-744.9907 546.9993,-737.9937"/>
</g>
<!-- Node31 -->
<g id="node31" class="node">
<title>Node31</title>
<g id="a_node31"><a xlink:href="../../db/db5/classDISKinematicsReco.html#a4ea9fa36ccd955fd7cdfa7e7eaf1e534" target="_top" xlink:title="DISKinematicsReco::\lCollectEmCandidatesFromCluster">
<polygon fill="none" stroke="#000000" points="805,-721.5 805,-753.5 990,-753.5 990,-721.5 805,-721.5"/>
<text text-anchor="start" x="813" y="-740.5" font-family="FreeSans" font-size="10.00" fill="#000000">DISKinematicsReco::</text>
<text text-anchor="middle" x="897.5" y="-728.5" font-family="FreeSans" font-size="10.00" fill="#000000">CollectEmCandidatesFromCluster</text>
</a>
</g>
</g>
<!-- Node30&#45;&gt;Node31 -->
<g id="edge42" class="edge">
<title>Node30&#45;&gt;Node31</title>
<path fill="none" stroke="#191970" d="M774.94,-737.5C784.808,-737.5 794.8723,-737.5 804.7794,-737.5"/>
<polygon fill="#191970" stroke="#191970" points="774.7425,-734.0001 764.7425,-737.5 774.7424,-741.0001 774.7425,-734.0001"/>
</g>
<!-- Node32 -->
<g id="node32" class="node">
<title>Node32</title>
<g id="a_node32"><a xlink:href="../../db/db5/classDISKinematicsReco.html#a6d03dc93ccee64fd4d931a06dad1ec55" target="_top" xlink:title="DISKinematicsReco::\lprocess_event">
<polygon fill="none" stroke="#000000" points="1026,-721.5 1026,-753.5 1146,-753.5 1146,-721.5 1026,-721.5"/>
<text text-anchor="start" x="1034" y="-740.5" font-family="FreeSans" font-size="10.00" fill="#000000">DISKinematicsReco::</text>
<text text-anchor="middle" x="1086" y="-728.5" font-family="FreeSans" font-size="10.00" fill="#000000">process_event</text>
</a>
</g>
</g>
<!-- Node31&#45;&gt;Node32 -->
<g id="edge43" class="edge">
<title>Node31&#45;&gt;Node32</title>
<path fill="none" stroke="#191970" d="M1000.3751,-737.5C1009.1102,-737.5 1017.7457,-737.5 1025.9779,-737.5"/>
<polygon fill="#191970" stroke="#191970" points="1000.0934,-734.0001 990.0933,-737.5 1000.0933,-741.0001 1000.0934,-734.0001"/>
</g>
<!-- Node33&#45;&gt;Node5 -->
<g id="edge46" class="edge">
<title>Node33&#45;&gt;Node5</title>
<path fill="none" stroke="#191970" d="M363.4027,-829.9988C492.6589,-825.2799 719.4349,-817.0008 831.2859,-812.9173"/>
<polygon fill="#191970" stroke="#191970" points="362.9859,-826.5116 353.1203,-830.3742 363.2413,-833.5069 362.9859,-826.5116"/>
</g>
</g>
</svg>
