<?xml version="1.0" encoding="UTF-8" standalone="no"?>
<!DOCTYPE svg PUBLIC "-//W3C//DTD SVG 1.1//EN"
 "http://www.w3.org/Graphics/SVG/1.1/DTD/svg11.dtd">
<!-- Generated by graphviz version 2.40.1 (20161225.0304)
 -->
<!-- Title: PHG4TpcElectronDrift::InitRun Pages: 1 -->
<svg width="980pt" height="828pt"
 viewBox="0.00 0.00 980.00 828.17" xmlns="http://www.w3.org/2000/svg" xmlns:xlink="http://www.w3.org/1999/xlink">
<g id="graph0" class="graph" transform="scale(1 1) rotate(0) translate(4 824.1704)">
<title>PHG4TpcElectronDrift::InitRun</title>
<!-- Node1 -->
<g id="node1" class="node">
<title>Node1</title>
<polygon fill="#bfbfbf" stroke="#000000" points="0,-360.5 0,-392.5 126,-392.5 126,-360.5 0,-360.5"/>
<text text-anchor="start" x="8" y="-379.5" font-family="FreeSans" font-size="10.00" fill="#000000">PHG4TpcElectronDrift</text>
<text text-anchor="middle" x="63" y="-367.5" font-family="FreeSans" font-size="10.00" fill="#000000">::InitRun</text>
</g>
<!-- Node2 -->
<g id="node2" class="node">
<title>Node2</title>
<g id="a_node2"><a xlink:href="../../d5/dca/classPHCompositeNode.html#a15a0c4804399a9de4267647f05bd1ba4" target="_top" xlink:title="PHCompositeNode::addNode">
<polygon fill="none" stroke="#000000" points="622.5,-757.5 622.5,-777.5 784.5,-777.5 784.5,-757.5 622.5,-757.5"/>
<text text-anchor="middle" x="703.5" y="-764.5" font-family="FreeSans" font-size="10.00" fill="#000000">PHCompositeNode::addNode</text>
</a>
</g>
</g>
<!-- Node1&#45;&gt;Node2 -->
<g id="edge1" class="edge">
<title>Node1&#45;&gt;Node2</title>
<path fill="none" stroke="#191970" d="M65.6938,-392.7837C76.1148,-453.9916 115.5243,-669.2938 162,-718.5 291.5795,-855.6925 391.6899,-821.4691 579,-798.5 607.2442,-795.0365 638.3029,-787.31 662.3336,-780.4377"/>
<polygon fill="#191970" stroke="#191970" points="663.5582,-783.7262 672.1735,-777.5596 661.593,-777.0077 663.5582,-783.7262"/>
</g>
<!-- Node6 -->
<g id="node6" class="node">
<title>Node6</title>
<g id="a_node6"><a xlink:href="../../d7/d6b/classPHParametersContainer.html#a0a218521866fd8bae7551395892f5406" target="_top" xlink:title="PHParametersContainer\l::CreateAndFillFrom">
<polygon fill="none" stroke="#000000" points="189,-462.5 189,-494.5 326,-494.5 326,-462.5 189,-462.5"/>
<text text-anchor="start" x="197" y="-481.5" font-family="FreeSans" font-size="10.00" fill="#000000">PHParametersContainer</text>
<text text-anchor="middle" x="257.5" y="-469.5" font-family="FreeSans" font-size="10.00" fill="#000000">::CreateAndFillFrom</text>
</a>
</g>
</g>
<!-- Node1&#45;&gt;Node6 -->
<g id="edge5" class="edge">
<title>Node1&#45;&gt;Node6</title>
<path fill="none" stroke="#191970" d="M79.4226,-392.7432C97.9697,-410.2067 129.7839,-437.5972 162,-453.5 167.5469,-456.2381 173.4281,-458.7011 179.4391,-460.9121"/>
<polygon fill="#191970" stroke="#191970" points="178.3676,-464.2447 188.9622,-464.1825 180.6412,-457.6242 178.3676,-464.2447"/>
</g>
<!-- Node13 -->
<g id="node13" class="node">
<title>Node13</title>
<g id="a_node13"><a xlink:href="../../da/d18/classPHG4TpcPadPlane.html#a440519c9a6e3afb175288b80e872cf0c" target="_top" xlink:title="PHG4TpcPadPlane::CreateReadout\lGeometry">
<polygon fill="none" stroke="#000000" points="162,-411.5 162,-443.5 353,-443.5 353,-411.5 162,-411.5"/>
<text text-anchor="start" x="170" y="-430.5" font-family="FreeSans" font-size="10.00" fill="#000000">PHG4TpcPadPlane::CreateReadout</text>
<text text-anchor="middle" x="257.5" y="-418.5" font-family="FreeSans" font-size="10.00" fill="#000000">Geometry</text>
</a>
</g>
</g>
<!-- Node1&#45;&gt;Node13 -->
<g id="edge12" class="edge">
<title>Node1&#45;&gt;Node13</title>
<path fill="none" stroke="#191970" d="M123.9945,-392.5269C136.562,-395.8268 149.7097,-399.2774 162,-402.5 169.8377,-404.5551 178.0376,-406.7037 186.1986,-408.8413"/>
<polygon fill="#191970" stroke="#191970" points="185.5465,-412.2885 196.107,-411.4362 187.32,-405.5169 185.5465,-412.2885"/>
</g>
<!-- Node14 -->
<g id="node14" class="node">
<title>Node14</title>
<g id="a_node14"><a xlink:href="../../d5/d07/classPHNodeIterator.html#aea98bf8619af59b1212a94fb32106baa" target="_top" xlink:title="PHNodeIterator::findFirst">
<polygon fill="none" stroke="#000000" points="413.5,-609.5 413.5,-629.5 554.5,-629.5 554.5,-609.5 413.5,-609.5"/>
<text text-anchor="middle" x="484" y="-616.5" font-family="FreeSans" font-size="10.00" fill="#000000">PHNodeIterator::findFirst</text>
</a>
</g>
</g>
<!-- Node1&#45;&gt;Node14 -->
<g id="edge13" class="edge">
<title>Node1&#45;&gt;Node14</title>
<path fill="none" stroke="#191970" d="M65.8616,-392.5013C73.6291,-430.8406 98.9182,-528.1304 162,-573.5 199.5177,-600.4834 320.6846,-611.7665 403.2026,-616.3953"/>
<polygon fill="#191970" stroke="#191970" points="403.1434,-619.8971 413.3173,-616.9404 403.5202,-612.9072 403.1434,-619.8971"/>
</g>
<!-- Node16 -->
<g id="node16" class="node">
<title>Node16</title>
<g id="a_node16"><a xlink:href="../../d4/d31/classPHParameterInterface.html#ad2a1bcd8dfa116aeb75cafc5b81c059d" target="_top" xlink:title="PHParameterInterface\l::get_double_param">
<polygon fill="none" stroke="#000000" points="194,-360.5 194,-392.5 321,-392.5 321,-360.5 194,-360.5"/>
<text text-anchor="start" x="202" y="-379.5" font-family="FreeSans" font-size="10.00" fill="#000000">PHParameterInterface</text>
<text text-anchor="middle" x="257.5" y="-367.5" font-family="FreeSans" font-size="10.00" fill="#000000">::get_double_param</text>
</a>
</g>
</g>
<!-- Node1&#45;&gt;Node16 -->
<g id="edge17" class="edge">
<title>Node1&#45;&gt;Node16</title>
<path fill="none" stroke="#191970" d="M126.1486,-376.5C144.4834,-376.5 164.6699,-376.5 183.6015,-376.5"/>
<polygon fill="#191970" stroke="#191970" points="183.6693,-380.0001 193.6693,-376.5 183.6693,-373.0001 183.6693,-380.0001"/>
</g>
<!-- Node17 -->
<g id="node17" class="node">
<title>Node17</title>
<g id="a_node17"><a xlink:href="../../dd/dae/classPHParameters.html#aa61ce249b94375d9af4482c36a1308cf" target="_top" xlink:title="PHParameters::get_double\l_param">
<polygon fill="none" stroke="#000000" points="409,-315.5 409,-347.5 559,-347.5 559,-315.5 409,-315.5"/>
<text text-anchor="start" x="417" y="-334.5" font-family="FreeSans" font-size="10.00" fill="#000000">PHParameters::get_double</text>
<text text-anchor="middle" x="484" y="-322.5" font-family="FreeSans" font-size="10.00" fill="#000000">_param</text>
</a>
</g>
</g>
<!-- Node1&#45;&gt;Node17 -->
<g id="edge19" class="edge">
<title>Node1&#45;&gt;Node17</title>
<path fill="none" stroke="#191970" d="M118.9092,-360.4614C132.8786,-356.9867 147.9001,-353.6987 162,-351.5 241.585,-339.0896 333.3665,-334.311 398.5282,-332.5062"/>
<polygon fill="#191970" stroke="#191970" points="398.8458,-335.9992 408.7518,-332.2413 398.6645,-329.0016 398.8458,-335.9992"/>
</g>
<!-- Node18 -->
<g id="node18" class="node">
<title>Node18</title>
<g id="a_node18"><a xlink:href="../../d7/d6b/classPHParametersContainer.html#ab3e63b8b945b61000299f853eb6cb110" target="_top" xlink:title="PHParametersContainer\l::GetParameters">
<polygon fill="none" stroke="#000000" points="189,-270.5 189,-302.5 326,-302.5 326,-270.5 189,-270.5"/>
<text text-anchor="start" x="197" y="-289.5" font-family="FreeSans" font-size="10.00" fill="#000000">PHParametersContainer</text>
<text text-anchor="middle" x="257.5" y="-277.5" font-family="FreeSans" font-size="10.00" fill="#000000">::GetParameters</text>
</a>
</g>
</g>
<!-- Node1&#45;&gt;Node18 -->
<g id="edge20" class="edge">
<title>Node1&#45;&gt;Node18</title>
<path fill="none" stroke="#191970" d="M86.5927,-360.3865C106.1556,-347.5365 135.0302,-329.7275 162,-317.5 171.3241,-313.2727 181.3963,-309.3534 191.3826,-305.8233"/>
<polygon fill="#191970" stroke="#191970" points="192.5782,-309.1135 200.9036,-302.5607 190.309,-302.4915 192.5782,-309.1135"/>
</g>
<!-- Node19 -->
<g id="node19" class="node">
<title>Node19</title>
<g id="a_node19"><a xlink:href="../../da/d18/classPHG4TpcPadPlane.html#a411ca5edd45eb8d086ee41e281abc543" target="_top" xlink:title="PHG4TpcPadPlane::InitRun">
<polygon fill="none" stroke="#000000" points="182.5,-628.5 182.5,-648.5 332.5,-648.5 332.5,-628.5 182.5,-628.5"/>
<text text-anchor="middle" x="257.5" y="-635.5" font-family="FreeSans" font-size="10.00" fill="#000000">PHG4TpcPadPlane::InitRun</text>
</a>
</g>
</g>
<!-- Node1&#45;&gt;Node19 -->
<g id="edge21" class="edge">
<title>Node1&#45;&gt;Node19</title>
<path fill="none" stroke="#191970" d="M64.8359,-392.5689C70.6033,-435.3622 92.3363,-552.944 162,-613.5 166.9233,-617.7796 172.4937,-621.3393 178.41,-624.2985"/>
<polygon fill="#191970" stroke="#191970" points="177.384,-627.6699 187.9485,-628.4716 180.1898,-621.2568 177.384,-627.6699"/>
</g>
<!-- Node20 -->
<g id="node20" class="node">
<title>Node20</title>
<g id="a_node20"><a xlink:href="../../d4/d31/classPHParameterInterface.html#ae61699fe7fdd30a6327893f31e6ed7f8" target="_top" xlink:title="PHParameterInterface\l::UpdateParametersWithMacro">
<polygon fill="none" stroke="#000000" points="399,-558.5 399,-590.5 569,-590.5 569,-558.5 399,-558.5"/>
<text text-anchor="start" x="407" y="-577.5" font-family="FreeSans" font-size="10.00" fill="#000000">PHParameterInterface</text>
<text text-anchor="middle" x="484" y="-565.5" font-family="FreeSans" font-size="10.00" fill="#000000">::UpdateParametersWithMacro</text>
</a>
</g>
</g>
<!-- Node1&#45;&gt;Node20 -->
<g id="edge44" class="edge">
<title>Node1&#45;&gt;Node20</title>
<path fill="none" stroke="#191970" d="M67.9072,-392.9651C78.7709,-426.2454 108.2461,-501.2564 162,-535.5 229.0835,-578.2351 320.1671,-585.6845 388.3441,-583.7764"/>
<polygon fill="#191970" stroke="#191970" points="388.786,-587.263 398.6562,-583.412 388.5388,-580.2674 388.786,-587.263"/>
</g>
<!-- Node24 -->
<g id="node24" class="node">
<title>Node24</title>
<g id="a_node24"><a xlink:href="../../d4/d31/classPHParameterInterface.html#ab386d05bc4aa6e4e3fcd2ff4d466aeb1" target="_top" xlink:title="PHParameterInterface\l::SaveToNodeTree">
<polygon fill="none" stroke="#000000" points="420.5,-507.5 420.5,-539.5 547.5,-539.5 547.5,-507.5 420.5,-507.5"/>
<text text-anchor="start" x="428.5" y="-526.5" font-family="FreeSans" font-size="10.00" fill="#000000">PHParameterInterface</text>
<text text-anchor="middle" x="484" y="-514.5" font-family="FreeSans" font-size="10.00" fill="#000000">::SaveToNodeTree</text>
</a>
</g>
</g>
<!-- Node1&#45;&gt;Node24 -->
<g id="edge43" class="edge">
<title>Node1&#45;&gt;Node24</title>
<path fill="none" stroke="#191970" d="M69.9352,-392.6679C83.1269,-421.1438 114.7958,-479.5819 162,-504.5 239.135,-545.2179 341.6043,-543.4222 410.0274,-535.7723"/>
<polygon fill="#191970" stroke="#191970" points="410.7706,-539.2087 420.2876,-534.5528 409.9444,-532.2576 410.7706,-539.2087"/>
</g>
<!-- Node27 -->
<g id="node27" class="node">
<title>Node27</title>
<g id="a_node27"><a xlink:href="../../d4/d31/classPHParameterInterface.html#a843431a58ea1f6414cd05e0121bf163c" target="_top" xlink:title="PHParameterInterface\l::PutOnParNode">
<polygon fill="none" stroke="#000000" points="420.5,-756.5 420.5,-788.5 547.5,-788.5 547.5,-756.5 420.5,-756.5"/>
<text text-anchor="start" x="428.5" y="-775.5" font-family="FreeSans" font-size="10.00" fill="#000000">PHParameterInterface</text>
<text text-anchor="middle" x="484" y="-763.5" font-family="FreeSans" font-size="10.00" fill="#000000">::PutOnParNode</text>
</a>
</g>
</g>
<!-- Node1&#45;&gt;Node27 -->
<g id="edge39" class="edge">
<title>Node1&#45;&gt;Node27</title>
<path fill="none" stroke="#191970" d="M63.9843,-392.7059C67.7344,-440.2565 85.1166,-580.9196 162,-658.5 228.7799,-725.8853 337.8405,-753.5695 410.2611,-764.857"/>
<polygon fill="#191970" stroke="#191970" points="409.8217,-768.3301 420.2286,-766.3434 410.8542,-761.4067 409.8217,-768.3301"/>
</g>
<!-- Node29 -->
<g id="node29" class="node">
<title>Node29</title>
<g id="a_node29"><a xlink:href="../../da/d29/classFun4AllServer.html#a3e55156f91b2c94bb6c4ef33ffce587a" target="_top" xlink:title="Fun4AllServer::instance">
<polygon fill="none" stroke="#000000" points="189.5,-231.5 189.5,-251.5 325.5,-251.5 325.5,-231.5 189.5,-231.5"/>
<text text-anchor="middle" x="257.5" y="-238.5" font-family="FreeSans" font-size="10.00" fill="#000000">Fun4AllServer::instance</text>
</a>
</g>
</g>
<!-- Node1&#45;&gt;Node29 -->
<g id="edge34" class="edge">
<title>Node1&#45;&gt;Node29</title>
<path fill="none" stroke="#191970" d="M72.1822,-360.174C87.3755,-334.7692 120.2561,-286.1401 162,-261.5 167.5046,-258.2508 173.4614,-255.5249 179.6174,-253.2387"/>
<polygon fill="#191970" stroke="#191970" points="181.0243,-256.4599 189.4188,-249.9959 178.8255,-249.8142 181.0243,-256.4599"/>
</g>
<!-- Node30 -->
<g id="node30" class="node">
<title>Node30</title>
<g id="a_node30"><a xlink:href="../../d5/dec/classFun4AllBase.html#a41f9ac377743d046f590617fd6f4f0ed" target="_top" xlink:title="Returns the name of this module.">
<polygon fill="none" stroke="#000000" points="200,-192.5 200,-212.5 315,-212.5 315,-192.5 200,-192.5"/>
<text text-anchor="middle" x="257.5" y="-199.5" font-family="FreeSans" font-size="10.00" fill="#000000">Fun4AllBase::Name</text>
</a>
</g>
</g>
<!-- Node1&#45;&gt;Node30 -->
<g id="edge35" class="edge">
<title>Node1&#45;&gt;Node30</title>
<path fill="none" stroke="#191970" d="M68.4887,-360.4222C80.2301,-328.6028 110.95,-257.6467 162,-222.5 170.3715,-216.7364 180.0649,-212.5759 190.0006,-209.5836"/>
<polygon fill="#191970" stroke="#191970" points="191.1935,-212.8891 199.9771,-206.9645 189.4161,-206.1185 191.1935,-212.8891"/>
</g>
<!-- Node31 -->
<g id="node31" class="node">
<title>Node31</title>
<g id="a_node31"><a xlink:href="../../d4/d7d/classPdbParameterMapContainer.html#a3acdcc8df98be510545c104aff5d7779" target="_top" xlink:title="PdbParameterMapContainer\l::print">
<polygon fill="none" stroke="#000000" points="178,-141.5 178,-173.5 337,-173.5 337,-141.5 178,-141.5"/>
<text text-anchor="start" x="186" y="-160.5" font-family="FreeSans" font-size="10.00" fill="#000000">PdbParameterMapContainer</text>
<text text-anchor="middle" x="257.5" y="-148.5" font-family="FreeSans" font-size="10.00" fill="#000000">::print</text>
</a>
</g>
</g>
<!-- Node1&#45;&gt;Node31 -->
<g id="edge36" class="edge">
<title>Node1&#45;&gt;Node31</title>
<path fill="none" stroke="#191970" d="M66.5364,-360.4808C75.57,-323.4202 103.0603,-231.2915 162,-183.5 164.1021,-181.7955 166.3071,-180.2023 168.5943,-178.7131"/>
<polygon fill="#191970" stroke="#191970" points="170.8303,-181.4669 177.7801,-173.4701 167.3602,-175.3875 170.8303,-181.4669"/>
</g>
<!-- Node32 -->
<g id="node32" class="node">
<title>Node32</title>
<g id="a_node32"><a xlink:href="../../d7/d6b/classPHParametersContainer.html#a8525a68e20501d4fcab08b9181a0394a" target="_top" xlink:title="PHParametersContainer\l::Print">
<polygon fill="none" stroke="#000000" points="189,-90.5 189,-122.5 326,-122.5 326,-90.5 189,-90.5"/>
<text text-anchor="start" x="197" y="-109.5" font-family="FreeSans" font-size="10.00" fill="#000000">PHParametersContainer</text>
<text text-anchor="middle" x="257.5" y="-97.5" font-family="FreeSans" font-size="10.00" fill="#000000">::Print</text>
</a>
</g>
</g>
<!-- Node1&#45;&gt;Node32 -->
<g id="edge37" class="edge">
<title>Node1&#45;&gt;Node32</title>
<path fill="none" stroke="#191970" d="M64.6723,-360.3229C70.0692,-316.6551 91.0347,-195.4456 162,-132.5 167.1822,-127.9034 173.1004,-124.1098 179.3944,-120.9802"/>
<polygon fill="#191970" stroke="#191970" points="181.0792,-124.0636 188.8426,-116.8539 178.2776,-117.6487 181.0792,-124.0636"/>
</g>
<!-- Node34 -->
<g id="node34" class="node">
<title>Node34</title>
<g id="a_node34"><a xlink:href="../../da/d29/classFun4AllServer.html#a531952321df1183d357e6fec6db28103" target="_top" xlink:title="Fun4AllServer::registerHisto">
<polygon fill="none" stroke="#000000" points="178.5,-9.5 178.5,-29.5 336.5,-29.5 336.5,-9.5 178.5,-9.5"/>
<text text-anchor="middle" x="257.5" y="-16.5" font-family="FreeSans" font-size="10.00" fill="#000000">Fun4AllServer::registerHisto</text>
</a>
</g>
</g>
<!-- Node1&#45;&gt;Node34 -->
<g id="edge40" class="edge">
<title>Node1&#45;&gt;Node34</title>
<path fill="none" stroke="#191970" d="M65.7738,-360.3452C76.3321,-300.6246 115.758,-93.4152 162,-47.5 167.6896,-41.8506 174.4547,-37.3293 181.7183,-33.7127"/>
<polygon fill="#191970" stroke="#191970" points="183.3776,-36.8074 191.142,-29.5987 180.5769,-30.392 183.3776,-36.8074"/>
</g>
<!-- Node36 -->
<g id="node36" class="node">
<title>Node36</title>
<g id="a_node36"><a xlink:href="../../d5/dec/classFun4AllBase.html#a8a5c77a92bdac6bc043476e132379a40" target="_top" xlink:title="Gets the verbosity of this module.">
<polygon fill="none" stroke="#000000" points="637.5,-29.5 637.5,-49.5 769.5,-49.5 769.5,-29.5 637.5,-29.5"/>
<text text-anchor="middle" x="703.5" y="-36.5" font-family="FreeSans" font-size="10.00" fill="#000000">Fun4AllBase::Verbosity</text>
</a>
</g>
</g>
<!-- Node1&#45;&gt;Node36 -->
<g id="edge45" class="edge">
<title>Node1&#45;&gt;Node36</title>
<path fill="none" stroke="#191970" d="M66.0496,-360.1658C76.9619,-303.584 115.8812,-117.4566 162,-81.5 180.0528,-67.4251 482.3727,-50.533 627.2522,-43.199"/>
<polygon fill="#191970" stroke="#191970" points="627.5941,-46.6863 637.4053,-42.6877 627.2419,-39.6952 627.5941,-46.6863"/>
</g>
<!-- Node3 -->
<g id="node3" class="node">
<title>Node3</title>
<g id="a_node3"><a xlink:href="../../d6/d86/classPHPointerList.html#ac2176735e9d046a034f1686fd2c477eb" target="_top" xlink:title="PHPointerList::append">
<polygon fill="none" stroke="#000000" points="836,-763.5 836,-783.5 964,-783.5 964,-763.5 836,-763.5"/>
<text text-anchor="middle" x="900" y="-770.5" font-family="FreeSans" font-size="10.00" fill="#000000">PHPointerList::append</text>
</a>
</g>
</g>
<!-- Node2&#45;&gt;Node3 -->
<g id="edge2" class="edge">
<title>Node2&#45;&gt;Node3</title>
<path fill="none" stroke="#191970" d="M784.5586,-769.9751C798.2062,-770.3918 812.3107,-770.8225 825.7739,-771.2336"/>
<polygon fill="#191970" stroke="#191970" points="825.824,-774.7366 835.9262,-771.5435 826.0377,-767.7399 825.824,-774.7366"/>
</g>
<!-- Node4 -->
<g id="node4" class="node">
<title>Node4</title>
<g id="a_node4"><a xlink:href="../../dc/d82/classPHNode.html#aca3576f926a4401eddc3d88bf0ce0de3" target="_top" xlink:title="PHNode::getName">
<polygon fill="none" stroke="#000000" points="845.5,-673.5 845.5,-693.5 954.5,-693.5 954.5,-673.5 845.5,-673.5"/>
<text text-anchor="middle" x="900" y="-680.5" font-family="FreeSans" font-size="10.00" fill="#000000">PHNode::getName</text>
</a>
</g>
</g>
<!-- Node2&#45;&gt;Node4 -->
<g id="edge3" class="edge">
<title>Node2&#45;&gt;Node4</title>
<path fill="none" stroke="#191970" d="M731.6836,-757.4654C749.2115,-751.03 772.1197,-742.2643 792,-733.5 808.3685,-726.2839 811.8224,-723.1346 828,-715.5 840.6895,-709.5115 854.7699,-703.1843 867.0891,-697.7513"/>
<polygon fill="#191970" stroke="#191970" points="868.7794,-700.8319 876.5311,-693.6095 865.9674,-694.4215 868.7794,-700.8319"/>
</g>
<!-- Node5 -->
<g id="node5" class="node">
<title>Node5</title>
<g id="a_node5"><a xlink:href="../../dc/d82/classPHNode.html#adda2bd6cef2d5067bbe3016a990b7198" target="_top" xlink:title="PHNode::setParent">
<polygon fill="none" stroke="#000000" points="844.5,-724.5 844.5,-744.5 955.5,-744.5 955.5,-724.5 844.5,-724.5"/>
<text text-anchor="middle" x="900" y="-731.5" font-family="FreeSans" font-size="10.00" fill="#000000">PHNode::setParent</text>
</a>
</g>
</g>
<!-- Node2&#45;&gt;Node5 -->
<g id="edge4" class="edge">
<title>Node2&#45;&gt;Node5</title>
<path fill="none" stroke="#191970" d="M763.2568,-757.4645C785.6824,-753.6984 811.286,-749.3985 834.2276,-745.5457"/>
<polygon fill="#191970" stroke="#191970" points="834.9364,-748.9758 844.2186,-743.8679 833.7771,-742.0725 834.9364,-748.9758"/>
</g>
<!-- Node7 -->
<g id="node7" class="node">
<title>Node7</title>
<g id="a_node7"><a xlink:href="../../d4/d7d/classPdbParameterMapContainer.html#a1ec2a6c2416d44a99458cf8c7f1c31a5" target="_top" xlink:title="PdbParameterMapContainer\l::get_ParameterMaps">
<polygon fill="none" stroke="#000000" points="404.5,-456.5 404.5,-488.5 563.5,-488.5 563.5,-456.5 404.5,-456.5"/>
<text text-anchor="start" x="412.5" y="-475.5" font-family="FreeSans" font-size="10.00" fill="#000000">PdbParameterMapContainer</text>
<text text-anchor="middle" x="484" y="-463.5" font-family="FreeSans" font-size="10.00" fill="#000000">::get_ParameterMaps</text>
</a>
</g>
</g>
<!-- Node6&#45;&gt;Node7 -->
<g id="edge6" class="edge">
<title>Node6&#45;&gt;Node7</title>
<path fill="none" stroke="#191970" d="M326.0721,-476.6835C347.4125,-476.1182 371.2735,-475.4861 393.8545,-474.888"/>
<polygon fill="#191970" stroke="#191970" points="394.2221,-478.3795 404.1259,-474.6159 394.0367,-471.382 394.2221,-478.3795"/>
</g>
<!-- Node8 -->
<g id="node8" class="node">
<title>Node8</title>
<g id="a_node8"><a xlink:href="../../dd/dae/classPHParameters.html#a60173f5ff12c567632583ea619a7d2fb" target="_top" xlink:title="PHParameters::FillFrom">
<polygon fill="none" stroke="#000000" points="417.5,-417.5 417.5,-437.5 550.5,-437.5 550.5,-417.5 417.5,-417.5"/>
<text text-anchor="middle" x="484" y="-424.5" font-family="FreeSans" font-size="10.00" fill="#000000">PHParameters::FillFrom</text>
</a>
</g>
</g>
<!-- Node6&#45;&gt;Node8 -->
<g id="edge7" class="edge">
<title>Node6&#45;&gt;Node8</title>
<path fill="none" stroke="#191970" d="M323.9887,-462.4983C344.7827,-457.5819 367.8241,-452.2243 389,-447.5 400.695,-444.8908 413.2211,-442.1884 425.2146,-439.6457"/>
<polygon fill="#191970" stroke="#191970" points="426.0719,-443.042 435.134,-437.553 424.6269,-436.1927 426.0719,-443.042"/>
</g>
<!-- Node12 -->
<g id="node12" class="node">
<title>Node12</title>
<g id="a_node12"><a xlink:href="../../d7/d6b/classPHParametersContainer.html#ad3c40ee27c4af3a114848090c6e9ca8f" target="_top" xlink:title="PHParametersContainer\l::AddPHParameters">
<polygon fill="none" stroke="#000000" points="415.5,-366.5 415.5,-398.5 552.5,-398.5 552.5,-366.5 415.5,-366.5"/>
<text text-anchor="start" x="423.5" y="-385.5" font-family="FreeSans" font-size="10.00" fill="#000000">PHParametersContainer</text>
<text text-anchor="middle" x="484" y="-373.5" font-family="FreeSans" font-size="10.00" fill="#000000">::AddPHParameters</text>
</a>
</g>
</g>
<!-- Node6&#45;&gt;Node12 -->
<g id="edge11" class="edge">
<title>Node6&#45;&gt;Node12</title>
<path fill="none" stroke="#191970" d="M326.0536,-466.3126C335.5287,-463.0123 344.8075,-458.8213 353,-453.5 374.4792,-439.5486 367.5986,-422.5705 389,-408.5 394.2509,-405.0478 399.952,-402.0509 405.8658,-399.4498"/>
<polygon fill="#191970" stroke="#191970" points="407.3128,-402.6407 415.2998,-395.6795 404.715,-396.1406 407.3128,-402.6407"/>
</g>
<!-- Node9 -->
<g id="node9" class="node">
<title>Node9</title>
<g id="a_node9"><a xlink:href="../../d8/d21/classPdbParameterMap.html#ade341cd2fa2ac009cd6e7741e728f85b" target="_top" xlink:title="PdbParameterMap::get\l_dparam_iters">
<polygon fill="none" stroke="#000000" points="637,-421.5 637,-453.5 770,-453.5 770,-421.5 637,-421.5"/>
<text text-anchor="start" x="645" y="-440.5" font-family="FreeSans" font-size="10.00" fill="#000000">PdbParameterMap::get</text>
<text text-anchor="middle" x="703.5" y="-428.5" font-family="FreeSans" font-size="10.00" fill="#000000">_dparam_iters</text>
</a>
</g>
</g>
<!-- Node8&#45;&gt;Node9 -->
<g id="edge8" class="edge">
<title>Node8&#45;&gt;Node9</title>
<path fill="none" stroke="#191970" d="M550.7513,-430.5411C574.6961,-431.6319 601.8845,-432.8706 626.6191,-433.9975"/>
<polygon fill="#191970" stroke="#191970" points="626.5391,-437.4973 636.6881,-434.4562 626.8578,-430.5046 626.5391,-437.4973"/>
</g>
<!-- Node10 -->
<g id="node10" class="node">
<title>Node10</title>
<g id="a_node10"><a xlink:href="../../d8/d21/classPdbParameterMap.html#ac348934f368cf69d37ce7480fdcd332c" target="_top" xlink:title="PdbParameterMap::get\l_iparam_iters">
<polygon fill="none" stroke="#000000" points="637,-370.5 637,-402.5 770,-402.5 770,-370.5 637,-370.5"/>
<text text-anchor="start" x="645" y="-389.5" font-family="FreeSans" font-size="10.00" fill="#000000">PdbParameterMap::get</text>
<text text-anchor="middle" x="703.5" y="-377.5" font-family="FreeSans" font-size="10.00" fill="#000000">_iparam_iters</text>
</a>
</g>
</g>
<!-- Node8&#45;&gt;Node10 -->
<g id="edge9" class="edge">
<title>Node8&#45;&gt;Node10</title>
<path fill="none" stroke="#191970" d="M537.6957,-417.4703C564.3761,-412.4867 597.0978,-406.3747 626.4025,-400.9009"/>
<polygon fill="#191970" stroke="#191970" points="627.4226,-404.271 636.61,-398.9943 626.1373,-397.39 627.4226,-404.271"/>
</g>
<!-- Node11 -->
<g id="node11" class="node">
<title>Node11</title>
<g id="a_node11"><a xlink:href="../../d8/d21/classPdbParameterMap.html#ab0e99129bc91837311172241b78f4c82" target="_top" xlink:title="PdbParameterMap::get\l_cparam_iters">
<polygon fill="none" stroke="#000000" points="637,-319.5 637,-351.5 770,-351.5 770,-319.5 637,-319.5"/>
<text text-anchor="start" x="645" y="-338.5" font-family="FreeSans" font-size="10.00" fill="#000000">PdbParameterMap::get</text>
<text text-anchor="middle" x="703.5" y="-326.5" font-family="FreeSans" font-size="10.00" fill="#000000">_cparam_iters</text>
</a>
</g>
</g>
<!-- Node8&#45;&gt;Node11 -->
<g id="edge10" class="edge">
<title>Node8&#45;&gt;Node11</title>
<path fill="none" stroke="#191970" d="M550.7289,-420.5278C560.6665,-417.7165 570.4351,-413.8373 579,-408.5 601.3313,-394.5839 593.305,-376.3887 615,-361.5 618.9199,-358.8099 623.1207,-356.3941 627.4847,-354.2251"/>
<polygon fill="#191970" stroke="#191970" points="628.949,-357.4043 636.6338,-350.1108 626.078,-351.0201 628.949,-357.4043"/>
</g>
<!-- Node14&#45;&gt;Node4 -->
<g id="edge15" class="edge">
<title>Node14&#45;&gt;Node4</title>
<path fill="none" stroke="#191970" d="M514.6236,-629.5104C540.9558,-637.7318 580.0959,-649.0381 615,-655.5 689.826,-669.3527 777.0563,-676.6499 835.1099,-680.2785"/>
<polygon fill="#191970" stroke="#191970" points="835.0486,-683.7811 845.2422,-680.8931 835.4725,-676.794 835.0486,-683.7811"/>
</g>
<!-- Node14&#45;&gt;Node14 -->
<g id="edge16" class="edge">
<title>Node14&#45;&gt;Node14</title>
<path fill="none" stroke="#191970" d="M450.1329,-629.5791C434.1778,-638.502 445.4668,-648 484,-648 511.6957,-648 525.3171,-643.0933 524.8641,-637.0202"/>
<polygon fill="#191970" stroke="#191970" points="527.2672,-634.4666 517.8671,-629.5791 522.1676,-639.2619 527.2672,-634.4666"/>
</g>
<!-- Node15 -->
<g id="node15" class="node">
<title>Node15</title>
<g id="a_node15"><a xlink:href="../../dc/d82/classPHNode.html#a4ab1f90aed955a652813bfe377087bda" target="_top" xlink:title="PHNode::getType">
<polygon fill="none" stroke="#000000" points="652,-703.5 652,-723.5 755,-723.5 755,-703.5 652,-703.5"/>
<text text-anchor="middle" x="703.5" y="-710.5" font-family="FreeSans" font-size="10.00" fill="#000000">PHNode::getType</text>
</a>
</g>
</g>
<!-- Node14&#45;&gt;Node15 -->
<g id="edge14" class="edge">
<title>Node14&#45;&gt;Node15</title>
<path fill="none" stroke="#191970" d="M516.9238,-629.6491C535.815,-636.1988 559.565,-645.6988 579,-657.5 597.0479,-668.459 596.4009,-678.505 615,-688.5 623.8602,-693.2614 633.7192,-697.1933 643.5489,-700.4157"/>
<polygon fill="#191970" stroke="#191970" points="642.7444,-703.8296 653.3308,-703.406 644.7909,-697.1354 642.7444,-703.8296"/>
</g>
<!-- Node16&#45;&gt;Node17 -->
<g id="edge18" class="edge">
<title>Node16&#45;&gt;Node17</title>
<path fill="none" stroke="#191970" d="M321.1956,-363.8452C345.2222,-359.0717 372.9555,-353.5618 398.6463,-348.4577"/>
<polygon fill="#191970" stroke="#191970" points="399.6295,-351.8308 408.7558,-346.4492 398.2654,-344.965 399.6295,-351.8308"/>
</g>
<!-- Node19&#45;&gt;Node2 -->
<g id="edge27" class="edge">
<title>Node19&#45;&gt;Node2</title>
<path fill="none" stroke="#191970" d="M272.5852,-648.5088C296.3319,-663.7969 344.3378,-692.8366 389,-708.5 411.8494,-716.5135 549.4471,-740.9772 634.8981,-755.7678"/>
<polygon fill="#191970" stroke="#191970" points="634.3425,-759.2236 644.7925,-757.4775 635.5345,-752.3258 634.3425,-759.2236"/>
</g>
<!-- Node19&#45;&gt;Node14 -->
<g id="edge22" class="edge">
<title>Node19&#45;&gt;Node14</title>
<path fill="none" stroke="#191970" d="M332.6066,-632.1997C355.2657,-630.2989 380.2315,-628.2046 403.2421,-626.2744"/>
<polygon fill="#191970" stroke="#191970" points="403.6429,-629.7532 413.3153,-625.4294 403.0577,-622.7777 403.6429,-629.7532"/>
</g>
<!-- Node19&#45;&gt;Node20 -->
<g id="edge23" class="edge">
<title>Node19&#45;&gt;Node20</title>
<path fill="none" stroke="#191970" d="M291.7948,-628.4456C318.3084,-620.7074 355.9441,-609.7991 389,-600.5 397.4316,-598.1281 406.2924,-595.6644 415.0731,-593.2407"/>
<polygon fill="#191970" stroke="#191970" points="416.2134,-596.5571 424.9257,-590.5282 414.3554,-589.8082 416.2134,-596.5571"/>
</g>
<!-- Node19&#45;&gt;Node24 -->
<g id="edge28" class="edge">
<title>Node19&#45;&gt;Node24</title>
<path fill="none" stroke="#191970" d="M269.3759,-628.4556C291.5077,-610.2146 341.1634,-571.5006 389,-549.5 395.9363,-546.3099 403.3428,-543.4417 410.8445,-540.8802"/>
<polygon fill="#191970" stroke="#191970" points="411.9325,-544.2069 420.3695,-537.7984 409.7776,-537.5468 411.9325,-544.2069"/>
</g>
<!-- Node19&#45;&gt;Node27 -->
<g id="edge31" class="edge">
<title>Node19&#45;&gt;Node27</title>
<path fill="none" stroke="#191970" d="M271.2401,-648.7179C289.9209,-662.6745 324.2952,-688.5854 353,-711.5 369.277,-724.4937 370.7733,-731.4221 389,-741.5 396.7218,-745.7695 405.1251,-749.5662 413.6342,-752.9093"/>
<polygon fill="#191970" stroke="#191970" points="412.6629,-756.2823 423.2556,-756.4921 415.1057,-749.7224 412.6629,-756.2823"/>
</g>
<!-- Node28 -->
<g id="node28" class="node">
<title>Node28</title>
<g id="a_node28"><a xlink:href="../../da/d18/classPHG4TpcPadPlane.html#a853425e52d9c1d194014548b5b3c8fea" target="_top" xlink:title="PHG4TpcPadPlane::UpdateInternal\lParameters">
<polygon fill="none" stroke="#000000" points="389,-666.5 389,-698.5 579,-698.5 579,-666.5 389,-666.5"/>
<text text-anchor="start" x="397" y="-685.5" font-family="FreeSans" font-size="10.00" fill="#000000">PHG4TpcPadPlane::UpdateInternal</text>
<text text-anchor="middle" x="484" y="-673.5" font-family="FreeSans" font-size="10.00" fill="#000000">Parameters</text>
</a>
</g>
</g>
<!-- Node19&#45;&gt;Node28 -->
<g id="edge33" class="edge">
<title>Node19&#45;&gt;Node28</title>
<path fill="none" stroke="#191970" d="M309.1798,-648.5393C333.5898,-653.2812 363.4828,-659.0883 391.5998,-664.5503"/>
<polygon fill="#191970" stroke="#191970" points="390.9752,-667.9943 401.4592,-666.4656 392.3102,-661.1228 390.9752,-667.9943"/>
</g>
<!-- Node21 -->
<g id="node21" class="node">
<title>Node21</title>
<g id="a_node21"><a xlink:href="../../dd/dae/classPHParameters.html#a75005aa44390e1eb574603b0b230152b" target="_top" xlink:title="PHParameters::set_double\l_param">
<polygon fill="none" stroke="#000000" points="629,-613.5 629,-645.5 778,-645.5 778,-613.5 629,-613.5"/>
<text text-anchor="start" x="637" y="-632.5" font-family="FreeSans" font-size="10.00" fill="#000000">PHParameters::set_double</text>
<text text-anchor="middle" x="703.5" y="-620.5" font-family="FreeSans" font-size="10.00" fill="#000000">_param</text>
</a>
</g>
</g>
<!-- Node20&#45;&gt;Node21 -->
<g id="edge24" class="edge">
<title>Node20&#45;&gt;Node21</title>
<path fill="none" stroke="#191970" d="M548.0786,-590.5561C573.5492,-596.9383 603.0142,-604.3213 629.3963,-610.9319"/>
<polygon fill="#191970" stroke="#191970" points="628.791,-614.3883 639.3418,-613.4239 630.4924,-607.5982 628.791,-614.3883"/>
</g>
<!-- Node22 -->
<g id="node22" class="node">
<title>Node22</title>
<g id="a_node22"><a xlink:href="../../dd/dae/classPHParameters.html#a62881b44dd0564425633070316af66ec" target="_top" xlink:title="PHParameters::set_int\l_param">
<polygon fill="none" stroke="#000000" points="639.5,-562.5 639.5,-594.5 767.5,-594.5 767.5,-562.5 639.5,-562.5"/>
<text text-anchor="start" x="647.5" y="-581.5" font-family="FreeSans" font-size="10.00" fill="#000000">PHParameters::set_int</text>
<text text-anchor="middle" x="703.5" y="-569.5" font-family="FreeSans" font-size="10.00" fill="#000000">_param</text>
</a>
</g>
</g>
<!-- Node20&#45;&gt;Node22 -->
<g id="edge25" class="edge">
<title>Node20&#45;&gt;Node22</title>
<path fill="none" stroke="#191970" d="M569.1786,-576.0522C588.9955,-576.4134 609.9391,-576.795 629.2413,-577.1468"/>
<polygon fill="#191970" stroke="#191970" points="629.4112,-580.6503 639.4734,-577.3332 629.5388,-573.6515 629.4112,-580.6503"/>
</g>
<!-- Node23 -->
<g id="node23" class="node">
<title>Node23</title>
<g id="a_node23"><a xlink:href="../../dd/dae/classPHParameters.html#a2ebd6e499647b20dd41ca164e71ca061" target="_top" xlink:title="PHParameters::set_string\l_param">
<polygon fill="none" stroke="#000000" points="632,-511.5 632,-543.5 775,-543.5 775,-511.5 632,-511.5"/>
<text text-anchor="start" x="640" y="-530.5" font-family="FreeSans" font-size="10.00" fill="#000000">PHParameters::set_string</text>
<text text-anchor="middle" x="703.5" y="-518.5" font-family="FreeSans" font-size="10.00" fill="#000000">_param</text>
</a>
</g>
</g>
<!-- Node20&#45;&gt;Node23 -->
<g id="edge26" class="edge">
<title>Node20&#45;&gt;Node23</title>
<path fill="none" stroke="#191970" d="M558.9255,-558.4567C579.2041,-554.1146 601.2523,-549.3936 621.879,-544.9769"/>
<polygon fill="#191970" stroke="#191970" points="622.8312,-548.3525 631.8767,-542.8362 621.3655,-541.5076 622.8312,-548.3525"/>
</g>
<!-- Node25 -->
<g id="node25" class="node">
<title>Node25</title>
<g id="a_node25"><a xlink:href="../../dd/dae/classPHParameters.html#a9485c99fc0bbee6150171583f1048190" target="_top" xlink:title="PHParameters::SaveToNodeTree">
<polygon fill="none" stroke="#000000" points="615,-472.5 615,-492.5 792,-492.5 792,-472.5 615,-472.5"/>
<text text-anchor="middle" x="703.5" y="-479.5" font-family="FreeSans" font-size="10.00" fill="#000000">PHParameters::SaveToNodeTree</text>
</a>
</g>
</g>
<!-- Node24&#45;&gt;Node25 -->
<g id="edge29" class="edge">
<title>Node24&#45;&gt;Node25</title>
<path fill="none" stroke="#191970" d="M547.7833,-511.586C576.7697,-506.1717 610.9774,-499.7821 639.9373,-494.3728"/>
<polygon fill="#191970" stroke="#191970" points="640.7573,-497.7802 649.9447,-492.5035 639.472,-490.8992 640.7573,-497.7802"/>
</g>
<!-- Node26 -->
<g id="node26" class="node">
<title>Node26</title>
<g id="a_node26"><a xlink:href="../../d8/d21/classPdbParameterMap.html#a3926d31279e7d79bdc252d18c1207a2a" target="_top" xlink:title="Clear Event.">
<polygon fill="none" stroke="#000000" points="828,-472.5 828,-492.5 972,-492.5 972,-472.5 828,-472.5"/>
<text text-anchor="middle" x="900" y="-479.5" font-family="FreeSans" font-size="10.00" fill="#000000">PdbParameterMap::Reset</text>
</a>
</g>
</g>
<!-- Node25&#45;&gt;Node26 -->
<g id="edge30" class="edge">
<title>Node25&#45;&gt;Node26</title>
<path fill="none" stroke="#191970" d="M792.2644,-482.5C800.7243,-482.5 809.279,-482.5 817.6743,-482.5"/>
<polygon fill="#191970" stroke="#191970" points="817.8186,-486.0001 827.8186,-482.5 817.8185,-479.0001 817.8186,-486.0001"/>
</g>
<!-- Node27&#45;&gt;Node2 -->
<g id="edge32" class="edge">
<title>Node27&#45;&gt;Node2</title>
<path fill="none" stroke="#191970" d="M547.7833,-771.0471C567.8895,-770.5891 590.5078,-770.0739 612.1443,-769.581"/>
<polygon fill="#191970" stroke="#191970" points="612.4187,-773.0757 622.3364,-769.3488 612.2592,-766.0776 612.4187,-773.0757"/>
</g>
<!-- Node33 -->
<g id="node33" class="node">
<title>Node33</title>
<g id="a_node33"><a xlink:href="../../d7/d6b/classPHParametersContainer.html#a5f90d78420cb8573142c8a4d1c029799" target="_top" xlink:title="PHParametersContainer\l::Name">
<polygon fill="none" stroke="#000000" points="415.5,-90.5 415.5,-122.5 552.5,-122.5 552.5,-90.5 415.5,-90.5"/>
<text text-anchor="start" x="423.5" y="-109.5" font-family="FreeSans" font-size="10.00" fill="#000000">PHParametersContainer</text>
<text text-anchor="middle" x="484" y="-97.5" font-family="FreeSans" font-size="10.00" fill="#000000">::Name</text>
</a>
</g>
</g>
<!-- Node32&#45;&gt;Node33 -->
<g id="edge38" class="edge">
<title>Node32&#45;&gt;Node33</title>
<path fill="none" stroke="#191970" d="M326.0721,-106.5C351.0155,-106.5 379.4025,-106.5 405.1642,-106.5"/>
<polygon fill="#191970" stroke="#191970" points="405.2704,-110.0001 415.2704,-106.5 405.2703,-103.0001 405.2704,-110.0001"/>
</g>
<!-- Node35 -->
<g id="node35" class="node">
<title>Node35</title>
<g id="a_node35"><a xlink:href="../../d3/d96/classFun4AllHistoManager.html#a7e1354855437fa28bb0d29dc0581d0a6" target="_top" xlink:title="Fun4AllHistoManager\l::registerHisto">
<polygon fill="none" stroke="#000000" points="422,-.5 422,-32.5 546,-32.5 546,-.5 422,-.5"/>
<text text-anchor="start" x="430" y="-19.5" font-family="FreeSans" font-size="10.00" fill="#000000">Fun4AllHistoManager</text>
<text text-anchor="middle" x="484" y="-7.5" font-family="FreeSans" font-size="10.00" fill="#000000">::registerHisto</text>
</a>
</g>
</g>
<!-- Node34&#45;&gt;Node35 -->
<g id="edge41" class="edge">
<title>Node34&#45;&gt;Node35</title>
<path fill="none" stroke="#191970" d="M336.7187,-18.4507C361.1644,-18.127 387.9422,-17.7723 411.8823,-17.4552"/>
<polygon fill="#191970" stroke="#191970" points="412.0007,-20.954 421.9535,-17.3218 411.9079,-13.9547 412.0007,-20.954"/>
</g>
<!-- Node35&#45;&gt;Node36 -->
<g id="edge42" class="edge">
<title>Node35&#45;&gt;Node36</title>
<path fill="none" stroke="#191970" d="M546.0197,-22.9987C571.3128,-25.6489 600.8063,-28.7394 627.386,-31.5245"/>
<polygon fill="#191970" stroke="#191970" points="627.1051,-35.0141 637.4155,-32.5754 627.8347,-28.0523 627.1051,-35.0141"/>
</g>
</g>
</svg>
