<?xml version="1.0" encoding="UTF-8" standalone="no"?>
<!DOCTYPE svg PUBLIC "-//W3C//DTD SVG 1.1//EN"
 "http://www.w3.org/Graphics/SVG/1.1/DTD/svg11.dtd">
<!-- Generated by graphviz version 2.40.1 (20161225.0304)
 -->
<!-- Title: PHG4TpcElectronDrift::registerPadPlane Pages: 1 -->
<svg width="442pt" height="146pt"
 viewBox="0.00 0.00 442.00 146.00" xmlns="http://www.w3.org/2000/svg" xmlns:xlink="http://www.w3.org/1999/xlink">
<g id="graph0" class="graph" transform="scale(1 1) rotate(0) translate(4 142)">
<title>PHG4TpcElectronDrift::registerPadPlane</title>
<!-- Node1 -->
<g id="node1" class="node">
<title>Node1</title>
<polygon fill="#bfbfbf" stroke="#000000" points="0,-71.5 0,-103.5 126,-103.5 126,-71.5 0,-71.5"/>
<text text-anchor="start" x="8" y="-90.5" font-family="FreeSans" font-size="10.00" fill="#000000">PHG4TpcElectronDrift</text>
<text text-anchor="middle" x="63" y="-78.5" font-family="FreeSans" font-size="10.00" fill="#000000">::registerPadPlane</text>
</g>
<!-- Node2 -->
<g id="node2" class="node">
<title>Node2</title>
<g id="a_node2"><a xlink:href="../../db/da1/Fun4All__G4__TPC_8C.html#af60bcd3cf09ebd567e28ede14e9e894a" target="_top" xlink:title="Fun4All_G4_TPC">
<polygon fill="none" stroke="#000000" points="162,-97.5 162,-117.5 259,-117.5 259,-97.5 162,-97.5"/>
<text text-anchor="middle" x="210.5" y="-104.5" font-family="FreeSans" font-size="10.00" fill="#000000">Fun4All_G4_TPC</text>
</a>
</g>
</g>
<!-- Node1&#45;&gt;Node2 -->
<g id="edge1" class="edge">
<title>Node1&#45;&gt;Node2</title>
<path fill="none" stroke="#191970" d="M136.4816,-97.4636C145.0876,-98.6305 153.6984,-99.7981 161.8453,-100.9028"/>
<polygon fill="#191970" stroke="#191970" points="136.7889,-93.9733 126.4093,-96.0979 135.8483,-100.9099 136.7889,-93.9733"/>
</g>
<!-- Node3 -->
<g id="node3" class="node">
<title>Node3</title>
<g id="a_node3"><a xlink:href="../../da/d3c/G4__Tracking_8C.html#a4433eb58af16a1286bd71a65483a0b09" target="_top" xlink:title="Tracking_Cells">
<polygon fill="none" stroke="#000000" points="166,-58.5 166,-78.5 255,-78.5 255,-58.5 166,-58.5"/>
<text text-anchor="middle" x="210.5" y="-65.5" font-family="FreeSans" font-size="10.00" fill="#000000">Tracking_Cells</text>
</a>
</g>
</g>
<!-- Node1&#45;&gt;Node3 -->
<g id="edge2" class="edge">
<title>Node1&#45;&gt;Node3</title>
<path fill="none" stroke="#191970" d="M136.4225,-78.0422C146.4661,-76.7484 156.5177,-75.4537 165.8323,-74.2538"/>
<polygon fill="#191970" stroke="#191970" points="135.8802,-74.583 126.4093,-79.332 136.7745,-81.5257 135.8802,-74.583"/>
</g>
<!-- Node4 -->
<g id="node4" class="node">
<title>Node4</title>
<g id="a_node4"><a xlink:href="../../db/dc0/Fun4All__AnaTutorial_8C.html#a8c484ea6d7477278e981ef056b17eac9" target="_top" xlink:title="Fun4All_AnaTutorial">
<polygon fill="none" stroke="#000000" points="307,-117.5 307,-137.5 422,-137.5 422,-117.5 307,-117.5"/>
<text text-anchor="middle" x="364.5" y="-124.5" font-family="FreeSans" font-size="10.00" fill="#000000">Fun4All_AnaTutorial</text>
</a>
</g>
</g>
<!-- Node3&#45;&gt;Node4 -->
<g id="edge3" class="edge">
<title>Node3&#45;&gt;Node4</title>
<path fill="none" stroke="#191970" d="M245.9751,-82.5694C250.3953,-84.4862 254.8258,-86.4882 259,-88.5 275.4883,-96.4467 278.0501,-101.5924 295,-108.5 303.3403,-111.8989 312.4867,-114.8889 321.3261,-117.431"/>
<polygon fill="#191970" stroke="#191970" points="246.9929,-79.2002 236.4187,-78.539 244.2726,-85.65 246.9929,-79.2002"/>
</g>
<!-- Node5 -->
<g id="node5" class="node">
<title>Node5</title>
<g id="a_node5"><a xlink:href="../../dd/d28/Fun4All__AnaTutorial__Jets_8C.html#a55eaaeb770a3177f917012de87877d28" target="_top" xlink:title="Fun4All_AnaTutorial_Jets">
<polygon fill="none" stroke="#000000" points="295,-78.5 295,-98.5 434,-98.5 434,-78.5 295,-78.5"/>
<text text-anchor="middle" x="364.5" y="-85.5" font-family="FreeSans" font-size="10.00" fill="#000000">Fun4All_AnaTutorial_Jets</text>
</a>
</g>
</g>
<!-- Node3&#45;&gt;Node5 -->
<g id="edge4" class="edge">
<title>Node3&#45;&gt;Node5</title>
<path fill="none" stroke="#191970" d="M265.2146,-75.6058C274.7997,-76.8506 284.889,-78.1609 294.8147,-79.45"/>
<polygon fill="#191970" stroke="#191970" points="265.4107,-72.1019 255.0432,-74.2848 264.5091,-79.0437 265.4107,-72.1019"/>
</g>
<!-- Node6 -->
<g id="node6" class="node">
<title>Node6</title>
<g id="a_node6"><a xlink:href="../../d7/d9e/Fun4All__G4__fsPHENIX_8C.html#af48911d394d2412e817583700f2bbee2" target="_top" xlink:title="Fun4All_G4_fsPHENIX">
<polygon fill="none" stroke="#000000" points="302.5,-39.5 302.5,-59.5 426.5,-59.5 426.5,-39.5 302.5,-39.5"/>
<text text-anchor="middle" x="364.5" y="-46.5" font-family="FreeSans" font-size="10.00" fill="#000000">Fun4All_G4_fsPHENIX</text>
</a>
</g>
</g>
<!-- Node3&#45;&gt;Node6 -->
<g id="edge5" class="edge">
<title>Node3&#45;&gt;Node6</title>
<path fill="none" stroke="#191970" d="M264.97,-61.7797C277.0497,-60.2893 289.9407,-58.6989 302.3027,-57.1737"/>
<polygon fill="#191970" stroke="#191970" points="264.5393,-58.3062 255.0432,-63.0044 265.3965,-65.2535 264.5393,-58.3062"/>
</g>
<!-- Node7 -->
<g id="node7" class="node">
<title>Node7</title>
<g id="a_node7"><a xlink:href="../../d5/d2c/macros_2blob_2master_2macros_2g4simulations_2Fun4All__G4__sPHENIX_8C.html#a6eaaa492d7023ec86c562dc63aa1e5a4" target="_top" xlink:title="Fun4All_G4_sPHENIX">
<polygon fill="none" stroke="#000000" points="304,-.5 304,-20.5 425,-20.5 425,-.5 304,-.5"/>
<text text-anchor="middle" x="364.5" y="-7.5" font-family="FreeSans" font-size="10.00" fill="#000000">Fun4All_G4_sPHENIX</text>
</a>
</g>
</g>
<!-- Node3&#45;&gt;Node7 -->
<g id="edge6" class="edge">
<title>Node3&#45;&gt;Node7</title>
<path fill="none" stroke="#191970" d="M240.0304,-53.9737C256.0632,-46.406 276.3652,-37.3319 295,-30.5 304.9022,-26.8696 315.7889,-23.4684 325.9479,-20.5368"/>
<polygon fill="#191970" stroke="#191970" points="238.1645,-50.9863 230.6524,-58.4575 241.184,-57.3016 238.1645,-50.9863"/>
</g>
</g>
</svg>
