<?xml version="1.0" encoding="UTF-8" standalone="no"?>
<!DOCTYPE svg PUBLIC "-//W3C//DTD SVG 1.1//EN"
 "http://www.w3.org/Graphics/SVG/1.1/DTD/svg11.dtd">
<!-- Generated by graphviz version 2.40.1 (20161225.0304)
 -->
<!-- Title: analysis/blob/master/Prototype4/HCal/macros/ShowerCalib/extractEnergyLinearity_Pion.C Pages: 1 -->
<svg width="795pt" height="122pt"
 viewBox="0.00 0.00 794.50 122.00" xmlns="http://www.w3.org/2000/svg" xmlns:xlink="http://www.w3.org/1999/xlink">
<g id="graph0" class="graph" transform="scale(1 1) rotate(0) translate(4 118)">
<title>analysis/blob/master/Prototype4/HCal/macros/ShowerCalib/extractEnergyLinearity_Pion.C</title>
<!-- Node1 -->
<g id="node1" class="node">
<title>Node1</title>
<polygon fill="#bfbfbf" stroke="#000000" points="236.5,-57.5 236.5,-113.5 444.5,-113.5 444.5,-57.5 236.5,-57.5"/>
<text text-anchor="start" x="244.5" y="-100.5" font-family="FreeSans" font-size="10.00" fill="#000000">analysis/blob/master</text>
<text text-anchor="start" x="244.5" y="-88.5" font-family="FreeSans" font-size="10.00" fill="#000000">/Prototype4/HCal/macros</text>
<text text-anchor="start" x="244.5" y="-76.5" font-family="FreeSans" font-size="10.00" fill="#000000">/ShowerCalib/extractEnergyLinearity_</text>
<text text-anchor="middle" x="340.5" y="-64.5" font-family="FreeSans" font-size="10.00" fill="#000000">Pion.C</text>
</g>
<!-- Node2 -->
<g id="node2" class="node">
<title>Node2</title>
<polygon fill="none" stroke="#bfbfbf" points="0,-.5 0,-20.5 45,-20.5 45,-.5 0,-.5"/>
<text text-anchor="middle" x="22.5" y="-7.5" font-family="FreeSans" font-size="10.00" fill="#000000">string</text>
</g>
<!-- Node1&#45;&gt;Node2 -->
<g id="edge1" class="edge">
<title>Node1&#45;&gt;Node2</title>
<path fill="none" stroke="#191970" d="M236.2214,-64.8325C184.1491,-53.8503 120.0915,-39.3464 55.1135,-21.2739"/>
<polygon fill="#191970" stroke="#191970" points="55.6746,-17.7961 45.1008,-18.4624 53.7822,-24.5355 55.6746,-17.7961"/>
</g>
<!-- Node3 -->
<g id="node3" class="node">
<title>Node3</title>
<polygon fill="none" stroke="#bfbfbf" points="63,-.5 63,-20.5 126,-20.5 126,-.5 63,-.5"/>
<text text-anchor="middle" x="94.5" y="-7.5" font-family="FreeSans" font-size="10.00" fill="#000000">TString.h</text>
</g>
<!-- Node1&#45;&gt;Node3 -->
<g id="edge2" class="edge">
<title>Node1&#45;&gt;Node3</title>
<path fill="none" stroke="#191970" d="M248.5489,-57.4661C209.9267,-45.6911 166.9344,-32.5837 136.2035,-23.2145"/>
<polygon fill="#191970" stroke="#191970" points="136.8619,-19.7562 126.2758,-20.1877 134.8204,-26.4519 136.8619,-19.7562"/>
</g>
<!-- Node4 -->
<g id="node4" class="node">
<title>Node4</title>
<polygon fill="none" stroke="#bfbfbf" points="144.5,-.5 144.5,-20.5 194.5,-20.5 194.5,-.5 144.5,-.5"/>
<text text-anchor="middle" x="169.5" y="-7.5" font-family="FreeSans" font-size="10.00" fill="#000000">TFile.h</text>
</g>
<!-- Node1&#45;&gt;Node4 -->
<g id="edge3" class="edge">
<title>Node1&#45;&gt;Node4</title>
<path fill="none" stroke="#191970" d="M276.3394,-57.3594C250.9775,-46.2357 222.9394,-33.9383 201.9517,-24.7332"/>
<polygon fill="#191970" stroke="#191970" points="203.1131,-21.4208 192.5493,-20.6094 200.3014,-27.8313 203.1131,-21.4208"/>
</g>
<!-- Node5 -->
<g id="node5" class="node">
<title>Node5</title>
<polygon fill="none" stroke="#bfbfbf" points="213,-.5 213,-20.5 264,-20.5 264,-.5 213,-.5"/>
<text text-anchor="middle" x="238.5" y="-7.5" font-family="FreeSans" font-size="10.00" fill="#000000">TH2F.h</text>
</g>
<!-- Node1&#45;&gt;Node5 -->
<g id="edge4" class="edge">
<title>Node1&#45;&gt;Node5</title>
<path fill="none" stroke="#191970" d="M302.2288,-57.3594C288.2184,-47.0576 272.8388,-35.7492 260.6987,-26.8225"/>
<polygon fill="#191970" stroke="#191970" points="262.627,-23.8962 252.4971,-20.792 258.4803,-29.5357 262.627,-23.8962"/>
</g>
<!-- Node6 -->
<g id="node6" class="node">
<title>Node6</title>
<polygon fill="none" stroke="#bfbfbf" points="282,-.5 282,-20.5 333,-20.5 333,-.5 282,-.5"/>
<text text-anchor="middle" x="307.5" y="-7.5" font-family="FreeSans" font-size="10.00" fill="#000000">TH1F.h</text>
</g>
<!-- Node1&#45;&gt;Node6 -->
<g id="edge5" class="edge">
<title>Node1&#45;&gt;Node6</title>
<path fill="none" stroke="#191970" d="M328.0241,-57.1457C324.0275,-48.0625 319.6954,-38.2169 316.0458,-29.9223"/>
<polygon fill="#191970" stroke="#191970" points="319.2321,-28.4731 312.001,-20.7296 312.8248,-31.2923 319.2321,-28.4731"/>
</g>
<!-- Node7 -->
<g id="node7" class="node">
<title>Node7</title>
<polygon fill="none" stroke="#bfbfbf" points="351,-.5 351,-20.5 396,-20.5 396,-.5 351,-.5"/>
<text text-anchor="middle" x="373.5" y="-7.5" font-family="FreeSans" font-size="10.00" fill="#000000">TF1.h</text>
</g>
<!-- Node1&#45;&gt;Node7 -->
<g id="edge6" class="edge">
<title>Node1&#45;&gt;Node7</title>
<path fill="none" stroke="#191970" d="M352.9759,-57.1457C356.9725,-48.0625 361.3046,-38.2169 364.9542,-29.9223"/>
<polygon fill="#191970" stroke="#191970" points="368.1752,-31.2923 368.999,-20.7296 361.7679,-28.4731 368.1752,-31.2923"/>
</g>
<!-- Node8 -->
<g id="node8" class="node">
<title>Node8</title>
<polygon fill="none" stroke="#bfbfbf" points="414,-.5 414,-20.5 483,-20.5 483,-.5 414,-.5"/>
<text text-anchor="middle" x="448.5" y="-7.5" font-family="FreeSans" font-size="10.00" fill="#000000">TCanvas.h</text>
</g>
<!-- Node1&#45;&gt;Node8 -->
<g id="edge7" class="edge">
<title>Node1&#45;&gt;Node8</title>
<path fill="none" stroke="#191970" d="M381.0225,-57.3594C396.0983,-46.8901 412.6713,-35.381 425.62,-26.3889"/>
<polygon fill="#191970" stroke="#191970" points="427.7252,-29.1882 433.9425,-20.6094 423.7324,-23.4386 427.7252,-29.1882"/>
</g>
<!-- Node9 -->
<g id="node9" class="node">
<title>Node9</title>
<polygon fill="none" stroke="#bfbfbf" points="501,-.5 501,-20.5 632,-20.5 632,-.5 501,-.5"/>
<text text-anchor="middle" x="566.5" y="-7.5" font-family="FreeSans" font-size="10.00" fill="#000000">TGraphAsymmErrors.h</text>
</g>
<!-- Node1&#45;&gt;Node9 -->
<g id="edge8" class="edge">
<title>Node1&#45;&gt;Node9</title>
<path fill="none" stroke="#191970" d="M424.9754,-57.4661C459.7024,-45.9417 498.2751,-33.141 526.3692,-23.8178"/>
<polygon fill="#191970" stroke="#191970" points="527.8304,-27.0206 536.219,-20.549 525.6256,-20.3769 527.8304,-27.0206"/>
</g>
<!-- Node10 -->
<g id="node10" class="node">
<title>Node10</title>
<polygon fill="none" stroke="#bfbfbf" points="650.5,-.5 650.5,-20.5 714.5,-20.5 714.5,-.5 650.5,-.5"/>
<text text-anchor="middle" x="682.5" y="-7.5" font-family="FreeSans" font-size="10.00" fill="#000000">TProfile.h</text>
</g>
<!-- Node1&#45;&gt;Node10 -->
<g id="edge9" class="edge">
<title>Node1&#45;&gt;Node10</title>
<path fill="none" stroke="#191970" d="M444.5087,-64.2716C499.985,-52.6952 569.6263,-37.7618 640.3199,-21.2192"/>
<polygon fill="#191970" stroke="#191970" points="641.3662,-24.5688 650.3007,-18.8745 639.7653,-17.7543 641.3662,-24.5688"/>
</g>
<!-- Node11 -->
<g id="node11" class="node">
<title>Node11</title>
<polygon fill="none" stroke="#bfbfbf" points="732.5,-.5 732.5,-20.5 786.5,-20.5 786.5,-.5 732.5,-.5"/>
<text text-anchor="middle" x="759.5" y="-7.5" font-family="FreeSans" font-size="10.00" fill="#000000">TLine.h</text>
</g>
<!-- Node1&#45;&gt;Node11 -->
<g id="edge10" class="edge">
<title>Node1&#45;&gt;Node11</title>
<path fill="none" stroke="#191970" d="M444.7764,-71.3061C519.6649,-60.3248 623.0868,-43.5531 722.5412,-21.0239"/>
<polygon fill="#191970" stroke="#191970" points="723.4947,-24.3962 732.4622,-18.7541 721.9335,-17.5725 723.4947,-24.3962"/>
</g>
</g>
</svg>
