<?xml version="1.0" encoding="UTF-8" standalone="no"?>
<!DOCTYPE svg PUBLIC "-//W3C//DTD SVG 1.1//EN"
 "http://www.w3.org/Graphics/SVG/1.1/DTD/svg11.dtd">
<!-- Generated by graphviz version 2.40.1 (20161225.0304)
 -->
<!-- Title: setPacketLength Pages: 1 -->
<svg width="1383pt" height="146pt"
 viewBox="0.00 0.00 1383.00 146.00" xmlns="http://www.w3.org/2000/svg" xmlns:xlink="http://www.w3.org/1999/xlink">
<g id="graph0" class="graph" transform="scale(1 1) rotate(0) translate(4 142)">
<title>setPacketLength</title>
<!-- Node1 -->
<g id="node1" class="node">
<title>Node1</title>
<polygon fill="#bfbfbf" stroke="#000000" points="0,-39.5 0,-59.5 99,-59.5 99,-39.5 0,-39.5"/>
<text text-anchor="middle" x="49.5" y="-46.5" font-family="FreeSans" font-size="10.00" fill="#000000">setPacketLength</text>
</g>
<!-- Node2 -->
<g id="node2" class="node">
<title>Node2</title>
<g id="a_node2"><a xlink:href="../../de/d93/Cpacket_8h.html#a56ed56a045ab847ca89d6c5cfb37a229" target="_top" xlink:title="extendPacketLength">
<polygon fill="none" stroke="#000000" points="299,-39.5 299,-59.5 417,-59.5 417,-39.5 299,-39.5"/>
<text text-anchor="middle" x="358" y="-46.5" font-family="FreeSans" font-size="10.00" fill="#000000">extendPacketLength</text>
</a>
</g>
</g>
<!-- Node1&#45;&gt;Node2 -->
<g id="edge1" class="edge">
<title>Node1&#45;&gt;Node2</title>
<path fill="none" stroke="#191970" d="M93.8662,-61.917C107.0002,-65.0371 121.484,-67.9402 135,-69.5 191.5138,-76.0218 206.417,-75.3915 263,-69.5 281.7756,-67.545 302.3062,-63.4725 319.4623,-59.5096"/>
<polygon fill="#191970" stroke="#191970" points="94.6718,-58.5108 84.124,-59.5073 92.991,-65.3061 94.6718,-58.5108"/>
</g>
<!-- Node14 -->
<g id="node14" class="node">
<title>Node14</title>
<g id="a_node14"><a xlink:href="../../df/d5c/CpacketV1_8C.html#a58fb76a30d2cb5e5bf98246e14b8e71a" target="_top" xlink:title="makePacketV1Hdr">
<polygon fill="none" stroke="#000000" points="144.5,-39.5 144.5,-59.5 253.5,-59.5 253.5,-39.5 144.5,-39.5"/>
<text text-anchor="middle" x="199" y="-46.5" font-family="FreeSans" font-size="10.00" fill="#000000">makePacketV1Hdr</text>
</a>
</g>
</g>
<!-- Node1&#45;&gt;Node14 -->
<g id="edge13" class="edge">
<title>Node1&#45;&gt;Node14</title>
<path fill="none" stroke="#191970" d="M109.2829,-49.5C120.8432,-49.5 132.9016,-49.5 144.2899,-49.5"/>
<polygon fill="#191970" stroke="#191970" points="109.2814,-46.0001 99.2813,-49.5 109.2813,-53.0001 109.2814,-46.0001"/>
</g>
<!-- Node15 -->
<g id="node15" class="node">
<title>Node15</title>
<g id="a_node15"><a xlink:href="../../de/d93/Cpacket_8h.html#af765448ebef93cf1b26e5e2d1034bb2c" target="_top" xlink:title="removePacketPadding">
<polygon fill="none" stroke="#000000" points="135,-.5 135,-20.5 263,-20.5 263,-.5 135,-.5"/>
<text text-anchor="middle" x="199" y="-7.5" font-family="FreeSans" font-size="10.00" fill="#000000">removePacketPadding</text>
</a>
</g>
</g>
<!-- Node1&#45;&gt;Node15 -->
<g id="edge14" class="edge">
<title>Node1&#45;&gt;Node15</title>
<path fill="none" stroke="#191970" d="M97.7225,-36.9202C118.086,-31.608 141.4676,-25.5085 160.6305,-20.5094"/>
<polygon fill="#191970" stroke="#191970" points="96.7926,-33.5456 88,-39.4565 98.5596,-40.3189 96.7926,-33.5456"/>
</g>
<!-- Node3 -->
<g id="node3" class="node">
<title>Node3</title>
<g id="a_node3"><a xlink:href="../../de/d93/Cpacket_8h.html#ad7ce43caf79c00a34e4b6001cab7a8f3" target="_top" xlink:title="extendPacketDataBlock">
<polygon fill="none" stroke="#000000" points="457.5,-78.5 457.5,-98.5 593.5,-98.5 593.5,-78.5 457.5,-78.5"/>
<text text-anchor="middle" x="525.5" y="-85.5" font-family="FreeSans" font-size="10.00" fill="#000000">extendPacketDataBlock</text>
</a>
</g>
</g>
<!-- Node2&#45;&gt;Node3 -->
<g id="edge2" class="edge">
<title>Node2&#45;&gt;Node3</title>
<path fill="none" stroke="#191970" d="M411.0971,-61.8629C434.1285,-67.2254 460.7478,-73.4234 482.5108,-78.4906"/>
<polygon fill="#191970" stroke="#191970" points="411.6686,-58.4024 401.1354,-59.5435 410.0812,-65.2201 411.6686,-58.4024"/>
</g>
<!-- Node10 -->
<g id="node10" class="node">
<title>Node10</title>
<g id="a_node10"><a xlink:href="../../de/d93/Cpacket_8h.html#a69169331925ae13a5942a21659eaaaf1" target="_top" xlink:title="extendPacketDebugBlock">
<polygon fill="none" stroke="#000000" points="453,-39.5 453,-59.5 598,-59.5 598,-39.5 453,-39.5"/>
<text text-anchor="middle" x="525.5" y="-46.5" font-family="FreeSans" font-size="10.00" fill="#000000">extendPacketDebugBlock</text>
</a>
</g>
</g>
<!-- Node2&#45;&gt;Node10 -->
<g id="edge9" class="edge">
<title>Node2&#45;&gt;Node10</title>
<path fill="none" stroke="#191970" d="M427.2501,-49.5C435.7115,-49.5 444.3766,-49.5 452.8855,-49.5"/>
<polygon fill="#191970" stroke="#191970" points="427.0543,-46.0001 417.0542,-49.5 427.0542,-53.0001 427.0543,-46.0001"/>
</g>
<!-- Node12 -->
<g id="node12" class="node">
<title>Node12</title>
<g id="a_node12"><a xlink:href="../../de/d93/Cpacket_8h.html#a745cd929b8390a1fe6018e1412110c3f" target="_top" xlink:title="extendPacketErrorBlock">
<polygon fill="none" stroke="#000000" points="457.5,-.5 457.5,-20.5 593.5,-20.5 593.5,-.5 457.5,-.5"/>
<text text-anchor="middle" x="525.5" y="-7.5" font-family="FreeSans" font-size="10.00" fill="#000000">extendPacketErrorBlock</text>
</a>
</g>
</g>
<!-- Node2&#45;&gt;Node12 -->
<g id="edge11" class="edge">
<title>Node2&#45;&gt;Node12</title>
<path fill="none" stroke="#191970" d="M411.0971,-37.1371C434.1285,-31.7746 460.7478,-25.5766 482.5108,-20.5094"/>
<polygon fill="#191970" stroke="#191970" points="410.0812,-33.7799 401.1354,-39.4565 411.6686,-40.5976 410.0812,-33.7799"/>
</g>
<!-- Node4 -->
<g id="node4" class="node">
<title>Node4</title>
<g id="a_node4"><a xlink:href="../../d2/d89/packetRoutines_8h.html#a51b2f78e3681264053d2f7daf5115adc" target="_top" xlink:title="startUnstructDataWrite">
<polygon fill="none" stroke="#000000" points="639.5,-117.5 639.5,-137.5 772.5,-137.5 772.5,-117.5 639.5,-117.5"/>
<text text-anchor="middle" x="706" y="-124.5" font-family="FreeSans" font-size="10.00" fill="#000000">startUnstructDataWrite</text>
</a>
</g>
</g>
<!-- Node3&#45;&gt;Node4 -->
<g id="edge3" class="edge">
<title>Node3&#45;&gt;Node4</title>
<path fill="none" stroke="#191970" d="M582.0512,-100.7188C607.022,-106.1142 636.0119,-112.3779 659.6743,-117.4906"/>
<polygon fill="#191970" stroke="#191970" points="582.4969,-97.2344 571.9832,-98.5435 581.0185,-104.0765 582.4969,-97.2344"/>
</g>
<!-- Node5 -->
<g id="node5" class="node">
<title>Node5</title>
<g id="a_node5"><a xlink:href="../../d2/d89/packetRoutines_8h.html#a4daa6b4f44a6f4e2a7f677e5b944ba7c" target="_top" xlink:title="storePacketHits">
<polygon fill="none" stroke="#000000" points="659,-78.5 659,-98.5 753,-98.5 753,-78.5 659,-78.5"/>
<text text-anchor="middle" x="706" y="-85.5" font-family="FreeSans" font-size="10.00" fill="#000000">storePacketHits</text>
</a>
</g>
</g>
<!-- Node3&#45;&gt;Node5 -->
<g id="edge4" class="edge">
<title>Node3&#45;&gt;Node5</title>
<path fill="none" stroke="#191970" d="M603.7931,-88.5C622.6028,-88.5 642.1178,-88.5 658.9918,-88.5"/>
<polygon fill="#191970" stroke="#191970" points="603.7393,-85.0001 593.7393,-88.5 603.7393,-92.0001 603.7393,-85.0001"/>
</g>
<!-- Node6 -->
<g id="node6" class="node">
<title>Node6</title>
<g id="a_node6"><a xlink:href="../../df/d06/fakeFrame_8C.html#a747f31be4098f000504011767116e41c" target="_top" xlink:title="fakeFrame">
<polygon fill="none" stroke="#000000" points="867.5,-97.5 867.5,-117.5 936.5,-117.5 936.5,-97.5 867.5,-97.5"/>
<text text-anchor="middle" x="902" y="-104.5" font-family="FreeSans" font-size="10.00" fill="#000000">fakeFrame</text>
</a>
</g>
</g>
<!-- Node5&#45;&gt;Node6 -->
<g id="edge5" class="edge">
<title>Node5&#45;&gt;Node6</title>
<path fill="none" stroke="#191970" d="M763.616,-94.0852C797.2541,-97.3461 838.5857,-101.3527 867.2766,-104.134"/>
<polygon fill="#191970" stroke="#191970" points="763.7372,-90.5807 753.4461,-93.0994 763.0617,-97.548 763.7372,-90.5807"/>
</g>
<!-- Node7 -->
<g id="node7" class="node">
<title>Node7</title>
<g id="a_node7"><a xlink:href="../../da/d59/classoEvent.html#a5e0a819b25ded38741cc78c0b84c47e1" target="_top" xlink:title="oEvent::addUnstructPacketData">
<polygon fill="none" stroke="#000000" points="814,-58.5 814,-78.5 990,-78.5 990,-58.5 814,-58.5"/>
<text text-anchor="middle" x="902" y="-65.5" font-family="FreeSans" font-size="10.00" fill="#000000">oEvent::addUnstructPacketData</text>
</a>
</g>
</g>
<!-- Node5&#45;&gt;Node7 -->
<g id="edge6" class="edge">
<title>Node5&#45;&gt;Node7</title>
<path fill="none" stroke="#191970" d="M763.5683,-82.6257C779.3783,-81.0124 796.8908,-79.2254 813.993,-77.4803"/>
<polygon fill="#191970" stroke="#191970" points="763.0391,-79.1614 753.4461,-83.6586 763.7498,-86.1253 763.0391,-79.1614"/>
</g>
<!-- Node8 -->
<g id="node8" class="node">
<title>Node8</title>
<g id="a_node8"><a xlink:href="../../de/dc8/classoBuffer.html#ac574c2c3e93c114ac6934e45fa7f9b7f" target="_top" xlink:title="oBuffer::addUnstructPacketData">
<polygon fill="none" stroke="#000000" points="1026,-58.5 1026,-78.5 1204,-78.5 1204,-58.5 1026,-58.5"/>
<text text-anchor="middle" x="1115" y="-65.5" font-family="FreeSans" font-size="10.00" fill="#000000">oBuffer::addUnstructPacketData</text>
</a>
</g>
</g>
<!-- Node7&#45;&gt;Node8 -->
<g id="edge7" class="edge">
<title>Node7&#45;&gt;Node8</title>
<path fill="none" stroke="#191970" d="M1000.179,-68.5C1008.7425,-68.5 1017.3781,-68.5 1025.8626,-68.5"/>
<polygon fill="#191970" stroke="#191970" points="1000.1728,-65.0001 990.1728,-68.5 1000.1728,-72.0001 1000.1728,-65.0001"/>
</g>
<!-- Node9 -->
<g id="node9" class="node">
<title>Node9</title>
<g id="a_node9"><a xlink:href="../../df/d36/classPHRawOManager.html#aa67d8808f730acc0b88554b5ce09e3bc" target="_top" xlink:title="PHRawOManager::write">
<polygon fill="none" stroke="#000000" points="1240,-58.5 1240,-78.5 1375,-78.5 1375,-58.5 1240,-58.5"/>
<text text-anchor="middle" x="1307.5" y="-65.5" font-family="FreeSans" font-size="10.00" fill="#000000">PHRawOManager::write</text>
</a>
</g>
</g>
<!-- Node8&#45;&gt;Node9 -->
<g id="edge8" class="edge">
<title>Node8&#45;&gt;Node9</title>
<path fill="none" stroke="#191970" d="M1214.3479,-68.5C1222.9885,-68.5 1231.5958,-68.5 1239.8908,-68.5"/>
<polygon fill="#191970" stroke="#191970" points="1214.2061,-65.0001 1204.206,-68.5 1214.206,-72.0001 1214.2061,-65.0001"/>
</g>
<!-- Node11 -->
<g id="node11" class="node">
<title>Node11</title>
<g id="a_node11"><a xlink:href="../../d2/d89/packetRoutines_8h.html#ad6cd1d94d2722875aa028af94b751640" target="_top" xlink:title="reservePacketDebugData">
<polygon fill="none" stroke="#000000" points="634,-39.5 634,-59.5 778,-59.5 778,-39.5 634,-39.5"/>
<text text-anchor="middle" x="706" y="-46.5" font-family="FreeSans" font-size="10.00" fill="#000000">reservePacketDebugData</text>
</a>
</g>
</g>
<!-- Node10&#45;&gt;Node11 -->
<g id="edge10" class="edge">
<title>Node10&#45;&gt;Node11</title>
<path fill="none" stroke="#191970" d="M608.4138,-49.5C616.8917,-49.5 625.4565,-49.5 633.8064,-49.5"/>
<polygon fill="#191970" stroke="#191970" points="608.1361,-46.0001 598.136,-49.5 608.136,-53.0001 608.1361,-46.0001"/>
</g>
<!-- Node13 -->
<g id="node13" class="node">
<title>Node13</title>
<g id="a_node13"><a xlink:href="../../d2/d89/packetRoutines_8h.html#aea8bc35357a0a6a6bc5dcfa7a7158449" target="_top" xlink:title="appendPacketError">
<polygon fill="none" stroke="#000000" points="650,-.5 650,-20.5 762,-20.5 762,-.5 650,-.5"/>
<text text-anchor="middle" x="706" y="-7.5" font-family="FreeSans" font-size="10.00" fill="#000000">appendPacketError</text>
</a>
</g>
</g>
<!-- Node12&#45;&gt;Node13 -->
<g id="edge12" class="edge">
<title>Node12&#45;&gt;Node13</title>
<path fill="none" stroke="#191970" d="M603.8027,-10.5C619.2503,-10.5 635.1732,-10.5 649.718,-10.5"/>
<polygon fill="#191970" stroke="#191970" points="603.7393,-7.0001 593.7393,-10.5 603.7393,-14.0001 603.7393,-7.0001"/>
</g>
<!-- Node15&#45;&gt;Node2 -->
<g id="edge15" class="edge">
<title>Node15&#45;&gt;Node2</title>
<path fill="none" stroke="#191970" d="M249.6969,-22.9351C271.4918,-28.281 296.6264,-34.4461 317.1923,-39.4906"/>
<polygon fill="#191970" stroke="#191970" points="250.4924,-19.5265 239.9465,-20.5435 248.8248,-26.325 250.4924,-19.5265"/>
</g>
</g>
</svg>
