<?xml version="1.0" encoding="UTF-8" standalone="no"?>
<!DOCTYPE svg PUBLIC "-//W3C//DTD SVG 1.1//EN"
 "http://www.w3.org/Graphics/SVG/1.1/DTD/svg11.dtd">
<!-- Generated by graphviz version 2.40.1 (20161225.0304)
 -->
<!-- Title: FastTrackingEval::Init Pages: 1 -->
<svg width="285pt" height="68pt"
 viewBox="0.00 0.00 285.00 68.00" xmlns="http://www.w3.org/2000/svg" xmlns:xlink="http://www.w3.org/1999/xlink">
<g id="graph0" class="graph" transform="scale(1 1) rotate(0) translate(4 64)">
<title>FastTrackingEval::Init</title>
<!-- Node1 -->
<g id="node1" class="node">
<title>Node1</title>
<polygon fill="#bfbfbf" stroke="#000000" points="0,-19.5 0,-39.5 123,-39.5 123,-19.5 0,-19.5"/>
<text text-anchor="middle" x="61.5" y="-26.5" font-family="FreeSans" font-size="10.00" fill="#000000">FastTrackingEval::Init</text>
</g>
<!-- Node2 -->
<g id="node2" class="node">
<title>Node2</title>
<g id="a_node2"><a xlink:href="../../d3/d2b/classPHTFileServer.html#a5a3ed7a2a70cc2e38dbe1cb33afe9c2f" target="_top" xlink:title="return reference to class singleton">
<polygon fill="none" stroke="#000000" points="163,-39.5 163,-59.5 273,-59.5 273,-39.5 163,-39.5"/>
<text text-anchor="middle" x="218" y="-46.5" font-family="FreeSans" font-size="10.00" fill="#000000">PHTFileServer::get</text>
</a>
</g>
</g>
<!-- Node1&#45;&gt;Node2 -->
<g id="edge1" class="edge">
<title>Node1&#45;&gt;Node2</title>
<path fill="none" stroke="#191970" d="M123.3529,-37.4045C133.0549,-38.6444 143.1089,-39.9293 152.8816,-41.1782"/>
<polygon fill="#191970" stroke="#191970" points="152.5744,-44.6673 162.9374,-42.4633 153.4618,-37.7238 152.5744,-44.6673"/>
</g>
<!-- Node3 -->
<g id="node3" class="node">
<title>Node3</title>
<g id="a_node3"><a xlink:href="../../d3/d2b/classPHTFileServer.html#aaae99c6748eb17d5f8d7df375bc6d615" target="_top" xlink:title="open a SafeTFile. If filename is not found in the map, create a new TFile and append to the map; incr...">
<polygon fill="none" stroke="#000000" points="159,-.5 159,-20.5 277,-20.5 277,-.5 159,-.5"/>
<text text-anchor="middle" x="218" y="-7.5" font-family="FreeSans" font-size="10.00" fill="#000000">PHTFileServer::open</text>
</a>
</g>
</g>
<!-- Node1&#45;&gt;Node3 -->
<g id="edge2" class="edge">
<title>Node1&#45;&gt;Node3</title>
<path fill="none" stroke="#191970" d="M123.3529,-21.9907C131.6745,-20.9804 140.2551,-19.9387 148.6951,-18.914"/>
<polygon fill="#191970" stroke="#191970" points="149.3881,-22.3557 158.8933,-17.6759 148.5443,-15.4067 149.3881,-22.3557"/>
</g>
</g>
</svg>
