<?xml version="1.0" encoding="UTF-8" standalone="no"?>
<!DOCTYPE svg PUBLIC "-//W3C//DTD SVG 1.1//EN"
 "http://www.w3.org/Graphics/SVG/1.1/DTD/svg11.dtd">
<!-- Generated by graphviz version 2.40.1 (20161225.0304)
 -->
<!-- Title: PHG4GDMLWriteMaterials::PropertyWrite Pages: 1 -->
<svg width="555pt" height="116pt"
 viewBox="0.00 0.00 555.00 115.68" xmlns="http://www.w3.org/2000/svg" xmlns:xlink="http://www.w3.org/1999/xlink">
<g id="graph0" class="graph" transform="scale(1 1) rotate(0) translate(4 111.6828)">
<title>PHG4GDMLWriteMaterials::PropertyWrite</title>
<!-- Node1 -->
<g id="node1" class="node">
<title>Node1</title>
<polygon fill="#bfbfbf" stroke="#000000" points="0,-32.5 0,-64.5 146,-64.5 146,-32.5 0,-32.5"/>
<text text-anchor="start" x="8" y="-51.5" font-family="FreeSans" font-size="10.00" fill="#000000">PHG4GDMLWriteMaterials</text>
<text text-anchor="middle" x="73" y="-39.5" font-family="FreeSans" font-size="10.00" fill="#000000">::PropertyWrite</text>
</g>
<!-- Node2 -->
<g id="node2" class="node">
<title>Node2</title>
<g id="a_node2"><a xlink:href="../../dd/db5/classPHG4GDMLWrite.html#a16834147e17b47595b04d27a49405198" target="_top" xlink:title="PHG4GDMLWrite::GenerateName">
<polygon fill="none" stroke="#000000" points="364,-81.5 364,-101.5 547,-101.5 547,-81.5 364,-81.5"/>
<text text-anchor="middle" x="455.5" y="-88.5" font-family="FreeSans" font-size="10.00" fill="#000000">PHG4GDMLWrite::GenerateName</text>
</a>
</g>
</g>
<!-- Node1&#45;&gt;Node2 -->
<g id="edge1" class="edge">
<title>Node1&#45;&gt;Node2</title>
<path fill="none" stroke="#191970" d="M100.1157,-64.5902C121.5222,-76.31 152.5844,-91.1923 182,-97.5 247.2482,-111.4915 323.2611,-108.3172 378.5674,-102.6052"/>
<polygon fill="#191970" stroke="#191970" points="379.0816,-106.0701 388.6461,-101.5127 378.3271,-99.1109 379.0816,-106.0701"/>
</g>
<!-- Node3 -->
<g id="node3" class="node">
<title>Node3</title>
<g id="a_node3"><a xlink:href="../../dd/db5/classPHG4GDMLWrite.html#afe96dc9fdc7c1a0a1a96b59dc15dffa2" target="_top" xlink:title="PHG4GDMLWrite::NewAttribute">
<polygon fill="none" stroke="#000000" points="369.5,-41.5 369.5,-61.5 541.5,-61.5 541.5,-41.5 369.5,-41.5"/>
<text text-anchor="middle" x="455.5" y="-48.5" font-family="FreeSans" font-size="10.00" fill="#000000">PHG4GDMLWrite::NewAttribute</text>
</a>
</g>
</g>
<!-- Node1&#45;&gt;Node3 -->
<g id="edge2" class="edge">
<title>Node1&#45;&gt;Node3</title>
<path fill="none" stroke="#191970" d="M146.2874,-46.9709C158.2233,-46.7749 170.4551,-46.6059 182,-46.5 246.8862,-45.9048 263.1236,-45.2284 328,-46.5 338.1544,-46.699 348.7611,-46.9871 359.3324,-47.326"/>
<polygon fill="#191970" stroke="#191970" points="359.3292,-50.8278 369.441,-47.6653 359.5641,-43.8317 359.3292,-50.8278"/>
</g>
<!-- Node4 -->
<g id="node4" class="node">
<title>Node4</title>
<g id="a_node4"><a xlink:href="../../dd/db5/classPHG4GDMLWrite.html#ada0a5579d406ec27f3150711ab83becc" target="_top" xlink:title="PHG4GDMLWrite::NewElement">
<polygon fill="none" stroke="#000000" points="370,-.5 370,-20.5 541,-20.5 541,-.5 370,-.5"/>
<text text-anchor="middle" x="455.5" y="-7.5" font-family="FreeSans" font-size="10.00" fill="#000000">PHG4GDMLWrite::NewElement</text>
</a>
</g>
</g>
<!-- Node1&#45;&gt;Node4 -->
<g id="edge3" class="edge">
<title>Node1&#45;&gt;Node4</title>
<path fill="none" stroke="#191970" d="M146.2973,-41.2182C206.959,-35.1917 293.5955,-26.5846 359.7367,-20.0137"/>
<polygon fill="#191970" stroke="#191970" points="360.1495,-23.4901 369.7544,-19.0185 359.4574,-16.5243 360.1495,-23.4901"/>
</g>
<!-- Node5 -->
<g id="node5" class="node">
<title>Node5</title>
<g id="a_node5"><a xlink:href="../../d3/d04/classPHG4GDMLWriteMaterials.html#a5013752801402a036aa2d82e98959879" target="_top" xlink:title="PHG4GDMLWriteMaterials\l::PropertyVectorWrite">
<polygon fill="none" stroke="#000000" points="182,-55.5 182,-87.5 328,-87.5 328,-55.5 182,-55.5"/>
<text text-anchor="start" x="190" y="-74.5" font-family="FreeSans" font-size="10.00" fill="#000000">PHG4GDMLWriteMaterials</text>
<text text-anchor="middle" x="255" y="-62.5" font-family="FreeSans" font-size="10.00" fill="#000000">::PropertyVectorWrite</text>
</a>
</g>
</g>
<!-- Node1&#45;&gt;Node5 -->
<g id="edge4" class="edge">
<title>Node1&#45;&gt;Node5</title>
<path fill="none" stroke="#191970" d="M146.2397,-57.7556C154.688,-58.8232 163.3489,-59.9177 171.9155,-61.0003"/>
<polygon fill="#191970" stroke="#191970" points="171.5503,-64.4819 181.9103,-62.2634 172.428,-57.5372 171.5503,-64.4819"/>
</g>
<!-- Node5&#45;&gt;Node2 -->
<g id="edge5" class="edge">
<title>Node5&#45;&gt;Node2</title>
<path fill="none" stroke="#191970" d="M328.2362,-78.8054C336.5178,-79.6315 345.0652,-80.4841 353.6283,-81.3382"/>
<polygon fill="#191970" stroke="#191970" points="353.375,-84.8302 363.673,-82.3402 354.0698,-77.8648 353.375,-84.8302"/>
</g>
<!-- Node5&#45;&gt;Node3 -->
<g id="edge6" class="edge">
<title>Node5&#45;&gt;Node3</title>
<path fill="none" stroke="#191970" d="M328.2362,-64.1946C338.3243,-63.1884 348.8067,-62.1427 359.2317,-61.1028"/>
<polygon fill="#191970" stroke="#191970" points="359.5912,-64.5844 369.1943,-60.109 358.8963,-57.619 359.5912,-64.5844"/>
</g>
<!-- Node5&#45;&gt;Node4 -->
<g id="edge7" class="edge">
<title>Node5&#45;&gt;Node4</title>
<path fill="none" stroke="#191970" d="M296.5774,-55.4354C316.761,-47.943 341.4653,-39.2193 364,-32.5 375.4981,-29.0716 387.929,-25.7997 399.8115,-22.8767"/>
<polygon fill="#191970" stroke="#191970" points="400.7309,-26.2554 409.6312,-20.5077 399.0892,-19.4506 400.7309,-26.2554"/>
</g>
</g>
</svg>
