<?xml version="1.0" encoding="UTF-8" standalone="no"?>
<!DOCTYPE svg PUBLIC "-//W3C//DTD SVG 1.1//EN"
 "http://www.w3.org/Graphics/SVG/1.1/DTD/svg11.dtd">
<!-- Generated by graphviz version 2.40.1 (20161225.0304)
 -->
<!-- Title: oncsSubevent::fillIntArray Pages: 1 -->
<svg width="337pt" height="68pt"
 viewBox="0.00 0.00 337.00 68.00" xmlns="http://www.w3.org/2000/svg" xmlns:xlink="http://www.w3.org/1999/xlink">
<g id="graph0" class="graph" transform="scale(1 1) rotate(0) translate(4 64)">
<title>oncsSubevent::fillIntArray</title>
<!-- Node1 -->
<g id="node1" class="node">
<title>Node1</title>
<polygon fill="#bfbfbf" stroke="#000000" points="0,-19.5 0,-39.5 147,-39.5 147,-19.5 0,-19.5"/>
<text text-anchor="middle" x="73.5" y="-26.5" font-family="FreeSans" font-size="10.00" fill="#000000">oncsSubevent::fillIntArray</text>
</g>
<!-- Node2 -->
<g id="node2" class="node">
<title>Node2</title>
<g id="a_node2"><a xlink:href="../../d8/d14/classoncsSubevent.html#ad82042ba8355ac8bfa4ff930e02613e8" target="_top" xlink:title="oncsSubevent::decode">
<polygon fill="none" stroke="#000000" points="190,-39.5 190,-59.5 322,-59.5 322,-39.5 190,-39.5"/>
<text text-anchor="middle" x="256" y="-46.5" font-family="FreeSans" font-size="10.00" fill="#000000">oncsSubevent::decode</text>
</a>
</g>
</g>
<!-- Node1&#45;&gt;Node2 -->
<g id="edge1" class="edge">
<title>Node1&#45;&gt;Node2</title>
<path fill="none" stroke="#191970" d="M147.2037,-37.5771C157.9241,-38.752 168.9803,-39.9636 179.7499,-41.1438"/>
<polygon fill="#191970" stroke="#191970" points="179.6454,-44.6532 189.9672,-42.2635 180.408,-37.6949 179.6454,-44.6532"/>
</g>
<!-- Node3 -->
<g id="node3" class="node">
<title>Node3</title>
<g id="a_node3"><a xlink:href="../../d8/d14/classoncsSubevent.html#abda06e714b47d12740596f86e9f372db" target="_top" xlink:title="oncsSubevent::getLength">
<polygon fill="none" stroke="#000000" points="183,-.5 183,-20.5 329,-20.5 329,-.5 183,-.5"/>
<text text-anchor="middle" x="256" y="-7.5" font-family="FreeSans" font-size="10.00" fill="#000000">oncsSubevent::getLength</text>
</a>
</g>
</g>
<!-- Node1&#45;&gt;Node3 -->
<g id="edge2" class="edge">
<title>Node1&#45;&gt;Node3</title>
<path fill="none" stroke="#191970" d="M147.2037,-21.8267C155.665,-20.9458 164.3355,-20.0432 172.9092,-19.1506"/>
<polygon fill="#191970" stroke="#191970" points="173.3273,-22.626 182.9111,-18.1093 172.6024,-15.6637 173.3273,-22.626"/>
</g>
</g>
</svg>
