<?xml version="1.0" encoding="UTF-8" standalone="no"?>
<!DOCTYPE svg PUBLIC "-//W3C//DTD SVG 1.1//EN"
 "http://www.w3.org/Graphics/SVG/1.1/DTD/svg11.dtd">
<!-- Generated by graphviz version 2.40.1 (20161225.0304)
 -->
<!-- Title: PHTimer::elapsed Pages: 1 -->
<svg width="441pt" height="86pt"
 viewBox="0.00 0.00 441.00 86.00" xmlns="http://www.w3.org/2000/svg" xmlns:xlink="http://www.w3.org/1999/xlink">
<g id="graph0" class="graph" transform="scale(1 1) rotate(0) translate(4 82)">
<title>PHTimer::elapsed</title>
<!-- Node1 -->
<g id="node1" class="node">
<title>Node1</title>
<polygon fill="#bfbfbf" stroke="#000000" points="0,-28.5 0,-48.5 105,-48.5 105,-28.5 0,-28.5"/>
<text text-anchor="middle" x="52.5" y="-35.5" font-family="FreeSans" font-size="10.00" fill="#000000">PHTimer::elapsed</text>
</g>
<!-- Node2 -->
<g id="node2" class="node">
<title>Node2</title>
<g id="a_node2"><a xlink:href="../../d0/d5e/classPHTimer.html#aa92e3fe4a0a1799f39743eda9ef9d497" target="_top" xlink:title="gets time from cpu clock counts">
<polygon fill="none" stroke="#000000" points="153.5,-45.5 153.5,-77.5 266.5,-77.5 266.5,-45.5 153.5,-45.5"/>
<text text-anchor="start" x="161.5" y="-64.5" font-family="FreeSans" font-size="10.00" fill="#000000">PHTimer::get_clock</text>
<text text-anchor="middle" x="210" y="-52.5" font-family="FreeSans" font-size="10.00" fill="#000000">_counts</text>
</a>
</g>
</g>
<!-- Node1&#45;&gt;Node2 -->
<g id="edge1" class="edge">
<title>Node1&#45;&gt;Node2</title>
<path fill="none" stroke="#191970" d="M105.3834,-46.2227C117.5825,-48.0041 130.7133,-49.9216 143.4118,-51.776"/>
<polygon fill="#191970" stroke="#191970" points="143.0761,-55.264 153.4769,-53.2458 144.0877,-48.3375 143.0761,-55.264"/>
</g>
<!-- Node3 -->
<g id="node3" class="node">
<title>Node3</title>
<g id="a_node3"><a xlink:href="../../d0/d5e/classPHTimer.html#aa75ff2c27aba40e7ef0a934f9a3355c2" target="_top" xlink:title="returns difference between to time">
<polygon fill="none" stroke="#000000" points="141,-6.5 141,-26.5 279,-26.5 279,-6.5 141,-6.5"/>
<text text-anchor="middle" x="210" y="-13.5" font-family="FreeSans" font-size="10.00" fill="#000000">PHTimer::get_difference</text>
</a>
</g>
</g>
<!-- Node1&#45;&gt;Node3 -->
<g id="edge2" class="edge">
<title>Node1&#45;&gt;Node3</title>
<path fill="none" stroke="#191970" d="M105.3834,-31.1131C113.5408,-29.9737 122.1148,-28.776 130.6976,-27.5772"/>
<polygon fill="#191970" stroke="#191970" points="131.333,-31.0225 140.7526,-26.1727 130.3645,-24.0898 131.333,-31.0225"/>
</g>
<!-- Node4 -->
<g id="node4" class="node">
<title>Node4</title>
<g id="a_node4"><a xlink:href="../../d2/db1/classPHTimer_1_1Frequency.html#a023a2d706df9a8bd303810a9ed017f61" target="_top" xlink:title="period accessor">
<polygon fill="none" stroke="#000000" points="315,-.5 315,-32.5 433,-32.5 433,-.5 315,-.5"/>
<text text-anchor="start" x="323" y="-19.5" font-family="FreeSans" font-size="10.00" fill="#000000">PHTimer::Frequency</text>
<text text-anchor="middle" x="374" y="-7.5" font-family="FreeSans" font-size="10.00" fill="#000000">::period</text>
</a>
</g>
</g>
<!-- Node3&#45;&gt;Node4 -->
<g id="edge3" class="edge">
<title>Node3&#45;&gt;Node4</title>
<path fill="none" stroke="#191970" d="M279.0754,-16.5C287.5394,-16.5 296.1918,-16.5 304.6596,-16.5"/>
<polygon fill="#191970" stroke="#191970" points="304.8719,-20.0001 314.8719,-16.5 304.8719,-13.0001 304.8719,-20.0001"/>
</g>
</g>
</svg>
