<?xml version="1.0" encoding="UTF-8" standalone="no"?>
<!DOCTYPE svg PUBLIC "-//W3C//DTD SVG 1.1//EN"
 "http://www.w3.org/Graphics/SVG/1.1/DTD/svg11.dtd">
<!-- Generated by graphviz version 2.40.1 (20161225.0304)
 -->
<!-- Title: G__cpp_setup_func10 Pages: 1 -->
<svg width="775pt" height="53pt"
 viewBox="0.00 0.00 775.00 53.00" xmlns="http://www.w3.org/2000/svg" xmlns:xlink="http://www.w3.org/1999/xlink">
<g id="graph0" class="graph" transform="scale(1 1) rotate(0) translate(4 49)">
<title>G__cpp_setup_func10</title>
<!-- Node1 -->
<g id="node1" class="node">
<title>Node1</title>
<polygon fill="#bfbfbf" stroke="#000000" points="0,-12.5 0,-32.5 126,-32.5 126,-12.5 0,-12.5"/>
<text text-anchor="middle" x="63" y="-19.5" font-family="FreeSans" font-size="10.00" fill="#000000">G__cpp_setup_func10</text>
</g>
<!-- Node2 -->
<g id="node2" class="node">
<title>Node2</title>
<g id="a_node2"><a xlink:href="../../dd/d68/Quarkonia2LeptonsMC__Dict_8h.html#a8ab7973e8d841ab8d1cd88a1f0e04a30" target="_top" xlink:title="G__cpp_setup_funcQuarkonia2\lLeptonsMC_Dict">
<polygon fill="none" stroke="#000000" points="162,-6.5 162,-38.5 333,-38.5 333,-6.5 162,-6.5"/>
<text text-anchor="start" x="170" y="-25.5" font-family="FreeSans" font-size="10.00" fill="#000000">G__cpp_setup_funcQuarkonia2</text>
<text text-anchor="middle" x="247.5" y="-13.5" font-family="FreeSans" font-size="10.00" fill="#000000">LeptonsMC_Dict</text>
</a>
</g>
</g>
<!-- Node1&#45;&gt;Node2 -->
<g id="edge1" class="edge">
<title>Node1&#45;&gt;Node2</title>
<path fill="none" stroke="#191970" d="M136.3344,-22.5C144.7177,-22.5 153.3187,-22.5 161.8443,-22.5"/>
<polygon fill="#191970" stroke="#191970" points="136.2363,-19.0001 126.2363,-22.5 136.2363,-26.0001 136.2363,-19.0001"/>
</g>
<!-- Node3 -->
<g id="node3" class="node">
<title>Node3</title>
<g id="a_node3"><a xlink:href="../../d0/dd7/Quarkonia2LeptonsMC__Dict_8C.html#aeb53a8e2d91a5dbd3710db7f3402414d" target="_top" xlink:title="G__cpp_setupQuarkonia2Leptons\lMC_Dict">
<polygon fill="none" stroke="#000000" points="369,-6.5 369,-38.5 553,-38.5 553,-6.5 369,-6.5"/>
<text text-anchor="start" x="377" y="-25.5" font-family="FreeSans" font-size="10.00" fill="#000000">G__cpp_setupQuarkonia2Leptons</text>
<text text-anchor="middle" x="461" y="-13.5" font-family="FreeSans" font-size="10.00" fill="#000000">MC_Dict</text>
</a>
</g>
</g>
<!-- Node2&#45;&gt;Node3 -->
<g id="edge2" class="edge">
<title>Node2&#45;&gt;Node3</title>
<path fill="none" stroke="#191970" d="M343.3437,-22.5C351.7839,-22.5 360.316,-22.5 368.726,-22.5"/>
<polygon fill="#191970" stroke="#191970" points="343.1085,-19.0001 333.1084,-22.5 343.1084,-26.0001 343.1085,-19.0001"/>
</g>
<!-- Node4 -->
<g id="node4" class="node">
<title>Node4</title>
<g id="a_node4"><a xlink:href="../../d8/d97/classG____cpp__setup__initQuarkonia2LeptonsMC__Dict.html#a429a749d241cbc657b838480dd91e09a" target="_top" xlink:title="G__cpp_setup_initQuarkonia2\lLeptonsMC_Dict::G__cpp_setup\l_initQuarkonia2LeptonsMC_Dict">
<polygon fill="none" stroke="#000000" points="589,-.5 589,-44.5 767,-44.5 767,-.5 589,-.5"/>
<text text-anchor="start" x="597" y="-31.5" font-family="FreeSans" font-size="10.00" fill="#000000">G__cpp_setup_initQuarkonia2</text>
<text text-anchor="start" x="597" y="-19.5" font-family="FreeSans" font-size="10.00" fill="#000000">LeptonsMC_Dict::G__cpp_setup</text>
<text text-anchor="middle" x="678" y="-7.5" font-family="FreeSans" font-size="10.00" fill="#000000">_initQuarkonia2LeptonsMC_Dict</text>
</a>
</g>
</g>
<!-- Node3&#45;&gt;Node4 -->
<g id="edge3" class="edge">
<title>Node3&#45;&gt;Node4</title>
<path fill="none" stroke="#191970" d="M563.1175,-22.5C571.745,-22.5 580.4265,-22.5 588.9428,-22.5"/>
<polygon fill="#191970" stroke="#191970" points="563.0276,-19.0001 553.0275,-22.5 563.0275,-26.0001 563.0276,-19.0001"/>
</g>
</g>
</svg>
