<?xml version="1.0" encoding="UTF-8" standalone="no"?>
<!DOCTYPE svg PUBLIC "-//W3C//DTD SVG 1.1//EN"
 "http://www.w3.org/Graphics/SVG/1.1/DTD/svg11.dtd">
<!-- Generated by graphviz version 2.40.1 (20161225.0304)
 -->
<!-- Title: coresoftware/blob/master/offline/packages/CaloReco/BEmcRec.h Pages: 1 -->
<svg width="1295pt" height="215pt"
 viewBox="0.00 0.00 1294.50 215.00" xmlns="http://www.w3.org/2000/svg" xmlns:xlink="http://www.w3.org/1999/xlink">
<g id="graph0" class="graph" transform="scale(1 1) rotate(0) translate(4 211)">
<title>coresoftware/blob/master/offline/packages/CaloReco/BEmcRec.h</title>
<!-- Node1 -->
<g id="node1" class="node">
<title>Node1</title>
<polygon fill="#bfbfbf" stroke="#000000" points="344,-162.5 344,-206.5 498,-206.5 498,-162.5 344,-162.5"/>
<text text-anchor="start" x="352" y="-193.5" font-family="FreeSans" font-size="10.00" fill="#000000">coresoftware/blob/master</text>
<text text-anchor="start" x="352" y="-181.5" font-family="FreeSans" font-size="10.00" fill="#000000">/offline/packages/CaloReco</text>
<text text-anchor="middle" x="421" y="-169.5" font-family="FreeSans" font-size="10.00" fill="#000000">/BEmcRec.h</text>
</g>
<!-- Node2 -->
<g id="node2" class="node">
<title>Node2</title>
<g id="a_node2"><a xlink:href="../../dc/d20/BEmcCluster_8cc.html" target="_top" xlink:title="coresoftware/blob/master\l/offline/packages/CaloReco\l/BEmcCluster.cc">
<polygon fill="none" stroke="#000000" points="0,-81.5 0,-125.5 154,-125.5 154,-81.5 0,-81.5"/>
<text text-anchor="start" x="8" y="-112.5" font-family="FreeSans" font-size="10.00" fill="#000000">coresoftware/blob/master</text>
<text text-anchor="start" x="8" y="-100.5" font-family="FreeSans" font-size="10.00" fill="#000000">/offline/packages/CaloReco</text>
<text text-anchor="middle" x="77" y="-88.5" font-family="FreeSans" font-size="10.00" fill="#000000">/BEmcCluster.cc</text>
</a>
</g>
</g>
<!-- Node1&#45;&gt;Node2 -->
<g id="edge1" class="edge">
<title>Node1&#45;&gt;Node2</title>
<path fill="none" stroke="#191970" d="M333.9679,-165.5143C283.8717,-154.3991 219.7839,-139.8619 163,-126 160.1514,-125.3046 157.2518,-124.5885 154.3247,-123.8586"/>
<polygon fill="#191970" stroke="#191970" points="333.274,-168.9454 343.7942,-167.6905 334.7876,-162.111 333.274,-168.9454"/>
</g>
<!-- Node3 -->
<g id="node3" class="node">
<title>Node3</title>
<g id="a_node3"><a xlink:href="../../d1/d9d/BEmcRec_8cc.html" target="_top" xlink:title="coresoftware/blob/master\l/offline/packages/CaloReco\l/BEmcRec.cc">
<polygon fill="none" stroke="#000000" points="172,-81.5 172,-125.5 326,-125.5 326,-81.5 172,-81.5"/>
<text text-anchor="start" x="180" y="-112.5" font-family="FreeSans" font-size="10.00" fill="#000000">coresoftware/blob/master</text>
<text text-anchor="start" x="180" y="-100.5" font-family="FreeSans" font-size="10.00" fill="#000000">/offline/packages/CaloReco</text>
<text text-anchor="middle" x="249" y="-88.5" font-family="FreeSans" font-size="10.00" fill="#000000">/BEmcRec.cc</text>
</a>
</g>
</g>
<!-- Node1&#45;&gt;Node3 -->
<g id="edge2" class="edge">
<title>Node1&#45;&gt;Node3</title>
<path fill="none" stroke="#191970" d="M364.6733,-157.9741C342.4314,-147.4997 317.1715,-135.604 295.9429,-125.6068"/>
<polygon fill="#191970" stroke="#191970" points="363.462,-161.2723 374.0002,-162.3664 366.4444,-154.9394 363.462,-161.2723"/>
</g>
<!-- Node4 -->
<g id="node4" class="node">
<title>Node4</title>
<g id="a_node4"><a xlink:href="../../da/dcf/BEmcRecCEMC_8h.html" target="_top" xlink:title="coresoftware/blob/master\l/offline/packages/CaloReco\l/BEmcRecCEMC.h">
<polygon fill="none" stroke="#000000" points="344,-81.5 344,-125.5 498,-125.5 498,-81.5 344,-81.5"/>
<text text-anchor="start" x="352" y="-112.5" font-family="FreeSans" font-size="10.00" fill="#000000">coresoftware/blob/master</text>
<text text-anchor="start" x="352" y="-100.5" font-family="FreeSans" font-size="10.00" fill="#000000">/offline/packages/CaloReco</text>
<text text-anchor="middle" x="421" y="-88.5" font-family="FreeSans" font-size="10.00" fill="#000000">/BEmcRecCEMC.h</text>
</a>
</g>
</g>
<!-- Node1&#45;&gt;Node4 -->
<g id="edge3" class="edge">
<title>Node1&#45;&gt;Node4</title>
<path fill="none" stroke="#191970" d="M421,-152.2457C421,-143.3118 421,-133.8188 421,-125.6068"/>
<polygon fill="#191970" stroke="#191970" points="417.5001,-152.3664 421,-162.3664 424.5001,-152.3664 417.5001,-152.3664"/>
</g>
<!-- Node7 -->
<g id="node7" class="node">
<title>Node7</title>
<g id="a_node7"><a xlink:href="../../df/d52/BEmcRecEEMC_8h.html" target="_top" xlink:title="coresoftware/blob/master\l/offline/packages/CaloReco\l/BEmcRecEEMC.h">
<polygon fill="none" stroke="#000000" points="521,-81.5 521,-125.5 675,-125.5 675,-81.5 521,-81.5"/>
<text text-anchor="start" x="529" y="-112.5" font-family="FreeSans" font-size="10.00" fill="#000000">coresoftware/blob/master</text>
<text text-anchor="start" x="529" y="-100.5" font-family="FreeSans" font-size="10.00" fill="#000000">/offline/packages/CaloReco</text>
<text text-anchor="middle" x="598" y="-88.5" font-family="FreeSans" font-size="10.00" fill="#000000">/BEmcRecEEMC.h</text>
</a>
</g>
</g>
<!-- Node1&#45;&gt;Node7 -->
<g id="edge6" class="edge">
<title>Node1&#45;&gt;Node7</title>
<path fill="none" stroke="#191970" d="M478.6577,-158.1143C501.6204,-147.6059 527.7492,-135.6486 549.6925,-125.6068"/>
<polygon fill="#191970" stroke="#191970" points="477.0027,-155.0225 469.366,-162.3664 479.9156,-161.3877 477.0027,-155.0225"/>
</g>
<!-- Node10 -->
<g id="node10" class="node">
<title>Node10</title>
<g id="a_node10"><a xlink:href="../../d6/dab/BEmcRecFEMC_8h.html" target="_top" xlink:title="coresoftware/blob/master\l/offline/packages/CaloReco\l/BEmcRecFEMC.h">
<polygon fill="none" stroke="#000000" points="913,-81.5 913,-125.5 1067,-125.5 1067,-81.5 913,-81.5"/>
<text text-anchor="start" x="921" y="-112.5" font-family="FreeSans" font-size="10.00" fill="#000000">coresoftware/blob/master</text>
<text text-anchor="start" x="921" y="-100.5" font-family="FreeSans" font-size="10.00" fill="#000000">/offline/packages/CaloReco</text>
<text text-anchor="middle" x="990" y="-88.5" font-family="FreeSans" font-size="10.00" fill="#000000">/BEmcRecFEMC.h</text>
</a>
</g>
</g>
<!-- Node1&#45;&gt;Node10 -->
<g id="edge9" class="edge">
<title>Node1&#45;&gt;Node10</title>
<path fill="none" stroke="#191970" d="M508.1435,-172.0947C618.5833,-156.373 807.2369,-129.5172 912.7499,-114.4969"/>
<polygon fill="#191970" stroke="#191970" points="507.4406,-168.6594 498.0337,-173.5339 508.4272,-175.5895 507.4406,-168.6594"/>
</g>
<!-- Node5 -->
<g id="node5" class="node">
<title>Node5</title>
<g id="a_node5"><a xlink:href="../../d3/d30/BEmcRecCEMC_8cc.html" target="_top" xlink:title="coresoftware/blob/master\l/offline/packages/CaloReco\l/BEmcRecCEMC.cc">
<polygon fill="none" stroke="#000000" points="157,-.5 157,-44.5 311,-44.5 311,-.5 157,-.5"/>
<text text-anchor="start" x="165" y="-31.5" font-family="FreeSans" font-size="10.00" fill="#000000">coresoftware/blob/master</text>
<text text-anchor="start" x="165" y="-19.5" font-family="FreeSans" font-size="10.00" fill="#000000">/offline/packages/CaloReco</text>
<text text-anchor="middle" x="234" y="-7.5" font-family="FreeSans" font-size="10.00" fill="#000000">/BEmcRecCEMC.cc</text>
</a>
</g>
</g>
<!-- Node4&#45;&gt;Node5 -->
<g id="edge4" class="edge">
<title>Node4&#45;&gt;Node5</title>
<path fill="none" stroke="#191970" d="M360.408,-77.2543C336.0703,-66.7123 308.3228,-54.6933 285.0368,-44.6068"/>
<polygon fill="#191970" stroke="#191970" points="359.3341,-80.6033 369.9014,-81.3664 362.1164,-74.18 359.3341,-80.6033"/>
</g>
<!-- Node6 -->
<g id="node6" class="node">
<title>Node6</title>
<g id="a_node6"><a xlink:href="../../d8/dc8/RawClusterBuilderTemplate_8cc.html" target="_top" xlink:title="coresoftware/blob/master\l/offline/packages/CaloReco\l/RawClusterBuilderTemplate.cc">
<polygon fill="none" stroke="#000000" points="329,-.5 329,-44.5 503,-44.5 503,-.5 329,-.5"/>
<text text-anchor="start" x="337" y="-31.5" font-family="FreeSans" font-size="10.00" fill="#000000">coresoftware/blob/master</text>
<text text-anchor="start" x="337" y="-19.5" font-family="FreeSans" font-size="10.00" fill="#000000">/offline/packages/CaloReco</text>
<text text-anchor="middle" x="416" y="-7.5" font-family="FreeSans" font-size="10.00" fill="#000000">/RawClusterBuilderTemplate.cc</text>
</a>
</g>
</g>
<!-- Node4&#45;&gt;Node6 -->
<g id="edge5" class="edge">
<title>Node4&#45;&gt;Node6</title>
<path fill="none" stroke="#191970" d="M419.009,-71.2457C418.4575,-62.3118 417.8715,-52.8188 417.3646,-44.6068"/>
<polygon fill="#191970" stroke="#191970" points="415.5242,-71.6011 419.6337,-81.3664 422.5109,-71.1697 415.5242,-71.6011"/>
</g>
<!-- Node8 -->
<g id="node8" class="node">
<title>Node8</title>
<g id="a_node8"><a xlink:href="../../d3/dcd/BEmcRecEEMC_8cc.html" target="_top" xlink:title="coresoftware/blob/master\l/offline/packages/CaloReco\l/BEmcRecEEMC.cc">
<polygon fill="none" stroke="#000000" points="521,-.5 521,-44.5 675,-44.5 675,-.5 521,-.5"/>
<text text-anchor="start" x="529" y="-31.5" font-family="FreeSans" font-size="10.00" fill="#000000">coresoftware/blob/master</text>
<text text-anchor="start" x="529" y="-19.5" font-family="FreeSans" font-size="10.00" fill="#000000">/offline/packages/CaloReco</text>
<text text-anchor="middle" x="598" y="-7.5" font-family="FreeSans" font-size="10.00" fill="#000000">/BEmcRecEEMC.cc</text>
</a>
</g>
</g>
<!-- Node7&#45;&gt;Node8 -->
<g id="edge7" class="edge">
<title>Node7&#45;&gt;Node8</title>
<path fill="none" stroke="#191970" d="M598,-71.2457C598,-62.3118 598,-52.8188 598,-44.6068"/>
<polygon fill="#191970" stroke="#191970" points="594.5001,-71.3664 598,-81.3664 601.5001,-71.3664 594.5001,-71.3664"/>
</g>
<!-- Node9 -->
<g id="node9" class="node">
<title>Node9</title>
<g id="a_node9"><a xlink:href="../../de/d8a/RawClusterBuilderTemplateEEMC_8cc.html" target="_top" xlink:title="coresoftware/blob/master\l/offline/packages/CaloReco\l/RawClusterBuilderTemplateEEMC.cc">
<polygon fill="none" stroke="#000000" points="693,-.5 693,-44.5 895,-44.5 895,-.5 693,-.5"/>
<text text-anchor="start" x="701" y="-31.5" font-family="FreeSans" font-size="10.00" fill="#000000">coresoftware/blob/master</text>
<text text-anchor="start" x="701" y="-19.5" font-family="FreeSans" font-size="10.00" fill="#000000">/offline/packages/CaloReco</text>
<text text-anchor="middle" x="794" y="-7.5" font-family="FreeSans" font-size="10.00" fill="#000000">/RawClusterBuilderTemplateEEMC.cc</text>
</a>
</g>
</g>
<!-- Node7&#45;&gt;Node9 -->
<g id="edge8" class="edge">
<title>Node7&#45;&gt;Node9</title>
<path fill="none" stroke="#191970" d="M660.6147,-77.6235C686.4076,-66.9642 715.9779,-54.7438 740.7116,-44.5222"/>
<polygon fill="#191970" stroke="#191970" points="659.2041,-74.4193 651.299,-81.4734 661.8777,-80.8886 659.2041,-74.4193"/>
</g>
<!-- Node11 -->
<g id="node11" class="node">
<title>Node11</title>
<g id="a_node11"><a xlink:href="../../dd/d41/BEmcRecFEMC_8cc.html" target="_top" xlink:title="coresoftware/blob/master\l/offline/packages/CaloReco\l/BEmcRecFEMC.cc">
<polygon fill="none" stroke="#000000" points="913,-.5 913,-44.5 1067,-44.5 1067,-.5 913,-.5"/>
<text text-anchor="start" x="921" y="-31.5" font-family="FreeSans" font-size="10.00" fill="#000000">coresoftware/blob/master</text>
<text text-anchor="start" x="921" y="-19.5" font-family="FreeSans" font-size="10.00" fill="#000000">/offline/packages/CaloReco</text>
<text text-anchor="middle" x="990" y="-7.5" font-family="FreeSans" font-size="10.00" fill="#000000">/BEmcRecFEMC.cc</text>
</a>
</g>
</g>
<!-- Node10&#45;&gt;Node11 -->
<g id="edge10" class="edge">
<title>Node10&#45;&gt;Node11</title>
<path fill="none" stroke="#191970" d="M990,-71.2457C990,-62.3118 990,-52.8188 990,-44.6068"/>
<polygon fill="#191970" stroke="#191970" points="986.5001,-71.3664 990,-81.3664 993.5001,-71.3664 986.5001,-71.3664"/>
</g>
<!-- Node12 -->
<g id="node12" class="node">
<title>Node12</title>
<g id="a_node12"><a xlink:href="../../d3/d91/RawClusterBuilderTemplateFEMC_8cc.html" target="_top" xlink:title="coresoftware/blob/master\l/offline/packages/CaloReco\l/RawClusterBuilderTemplateFEMC.cc">
<polygon fill="none" stroke="#000000" points="1085.5,-.5 1085.5,-44.5 1286.5,-44.5 1286.5,-.5 1085.5,-.5"/>
<text text-anchor="start" x="1093.5" y="-31.5" font-family="FreeSans" font-size="10.00" fill="#000000">coresoftware/blob/master</text>
<text text-anchor="start" x="1093.5" y="-19.5" font-family="FreeSans" font-size="10.00" fill="#000000">/offline/packages/CaloReco</text>
<text text-anchor="middle" x="1186" y="-7.5" font-family="FreeSans" font-size="10.00" fill="#000000">/RawClusterBuilderTemplateFEMC.cc</text>
</a>
</g>
</g>
<!-- Node10&#45;&gt;Node12 -->
<g id="edge11" class="edge">
<title>Node10&#45;&gt;Node12</title>
<path fill="none" stroke="#191970" d="M1052.6147,-77.6235C1078.4076,-66.9642 1107.9779,-54.7438 1132.7116,-44.5222"/>
<polygon fill="#191970" stroke="#191970" points="1051.2041,-74.4193 1043.299,-81.4734 1053.8777,-80.8886 1051.2041,-74.4193"/>
</g>
</g>
</svg>
