<?xml version="1.0" encoding="UTF-8" standalone="no"?>
<!DOCTYPE svg PUBLIC "-//W3C//DTD SVG 1.1//EN"
 "http://www.w3.org/Graphics/SVG/1.1/DTD/svg11.dtd">
<!-- Generated by graphviz version 2.40.1 (20161225.0304)
 -->
<!-- Title: PHPy8JetTrigger::~PHPy8JetTrigger Pages: 1 -->
<svg width="359pt" height="68pt"
 viewBox="0.00 0.00 359.00 68.00" xmlns="http://www.w3.org/2000/svg" xmlns:xlink="http://www.w3.org/1999/xlink">
<g id="graph0" class="graph" transform="scale(1 1) rotate(0) translate(4 64)">
<title>PHPy8JetTrigger::~PHPy8JetTrigger</title>
<!-- Node1 -->
<g id="node1" class="node">
<title>Node1</title>
<polygon fill="#bfbfbf" stroke="#000000" points="0,-13.5 0,-45.5 157,-45.5 157,-13.5 0,-13.5"/>
<text text-anchor="start" x="8" y="-32.5" font-family="FreeSans" font-size="10.00" fill="#000000">PHPy8JetTrigger::~PHPy8Jet</text>
<text text-anchor="middle" x="78.5" y="-20.5" font-family="FreeSans" font-size="10.00" fill="#000000">Trigger</text>
</g>
<!-- Node2 -->
<g id="node2" class="node">
<title>Node2</title>
<g id="a_node2"><a xlink:href="../../d7/d30/classPHPy8JetTrigger.html#a119a568b9761422432553e45b256cab2" target="_top" xlink:title="PHPy8JetTrigger::PrintConfig">
<polygon fill="none" stroke="#000000" points="193,-39.5 193,-59.5 351,-59.5 351,-39.5 193,-39.5"/>
<text text-anchor="middle" x="272" y="-46.5" font-family="FreeSans" font-size="10.00" fill="#000000">PHPy8JetTrigger::PrintConfig</text>
</a>
</g>
</g>
<!-- Node1&#45;&gt;Node2 -->
<g id="edge1" class="edge">
<title>Node1&#45;&gt;Node2</title>
<path fill="none" stroke="#191970" d="M157.2039,-37.6348C165.6267,-38.5053 174.2388,-39.3955 182.7723,-40.2775"/>
<polygon fill="#191970" stroke="#191970" points="182.431,-43.7608 192.7378,-41.3075 183.1507,-36.7979 182.431,-43.7608"/>
</g>
<!-- Node3 -->
<g id="node3" class="node">
<title>Node3</title>
<g id="a_node3"><a xlink:href="../../db/df0/classPHPy8GenTrigger.html#a8cffac764a4d79c7f2a97cb9b840ec62" target="_top" xlink:title="PHPy8GenTrigger::Verbosity">
<polygon fill="none" stroke="#000000" points="193,-.5 193,-20.5 351,-20.5 351,-.5 193,-.5"/>
<text text-anchor="middle" x="272" y="-7.5" font-family="FreeSans" font-size="10.00" fill="#000000">PHPy8GenTrigger::Verbosity</text>
</a>
</g>
</g>
<!-- Node1&#45;&gt;Node3 -->
<g id="edge2" class="edge">
<title>Node1&#45;&gt;Node3</title>
<path fill="none" stroke="#191970" d="M157.2039,-21.772C165.6267,-20.9449 174.2388,-20.0993 182.7723,-19.2614"/>
<polygon fill="#191970" stroke="#191970" points="183.1277,-22.7434 192.7378,-18.2828 182.4436,-15.7769 183.1277,-22.7434"/>
</g>
</g>
</svg>
