<?xml version="1.0" encoding="UTF-8" standalone="no"?>
<!DOCTYPE svg PUBLIC "-//W3C//DTD SVG 1.1//EN"
 "http://www.w3.org/Graphics/SVG/1.1/DTD/svg11.dtd">
<!-- Generated by graphviz version 2.40.1 (20161225.0304)
 -->
<!-- Title: PHPy8JetTrigger::SetMinJetPt Pages: 1 -->
<svg width="344pt" height="248pt"
 viewBox="0.00 0.00 344.00 248.00" xmlns="http://www.w3.org/2000/svg" xmlns:xlink="http://www.w3.org/1999/xlink">
<g id="graph0" class="graph" transform="scale(1 1) rotate(0) translate(4 244)">
<title>PHPy8JetTrigger::SetMinJetPt</title>
<!-- Node1 -->
<g id="node1" class="node">
<title>Node1</title>
<polygon fill="#bfbfbf" stroke="#000000" points="0,-109.5 0,-129.5 161,-129.5 161,-109.5 0,-109.5"/>
<text text-anchor="middle" x="80.5" y="-116.5" font-family="FreeSans" font-size="10.00" fill="#000000">PHPy8JetTrigger::SetMinJetPt</text>
</g>
<!-- Node2 -->
<g id="node2" class="node">
<title>Node2</title>
<g id="a_node2"><a xlink:href="../../dd/d28/Fun4All__AnaTutorial__Jets_8C.html#a55eaaeb770a3177f917012de87877d28" target="_top" xlink:title="Fun4All_AnaTutorial_Jets">
<polygon fill="none" stroke="#000000" points="197,-219.5 197,-239.5 336,-239.5 336,-219.5 197,-219.5"/>
<text text-anchor="middle" x="266.5" y="-226.5" font-family="FreeSans" font-size="10.00" fill="#000000">Fun4All_AnaTutorial_Jets</text>
</a>
</g>
</g>
<!-- Node1&#45;&gt;Node2 -->
<g id="edge1" class="edge">
<title>Node1&#45;&gt;Node2</title>
<path fill="none" stroke="#191970" d="M97.8111,-136.6954C119.311,-157.127 157.9451,-190.907 197,-210.5 204.0438,-214.0337 211.8298,-216.9789 219.5661,-219.4111"/>
<polygon fill="#191970" stroke="#191970" points="100.0677,-134.0088 90.4448,-129.5757 95.2029,-139.0421 100.0677,-134.0088"/>
</g>
<!-- Node3 -->
<g id="node3" class="node">
<title>Node3</title>
<g id="a_node3"><a xlink:href="../../d5/d60/analysis_2blob_2master_2HF-Jet_2TruthGeneration_2macros_2Fun4All__G4__sPHENIX_8C.html#a9a881c27e3822a95643d09c2fd73009e" target="_top" xlink:title="Fun4All_G4_sPHENIX">
<polygon fill="none" stroke="#000000" points="206,-180.5 206,-200.5 327,-200.5 327,-180.5 206,-180.5"/>
<text text-anchor="middle" x="266.5" y="-187.5" font-family="FreeSans" font-size="10.00" fill="#000000">Fun4All_G4_sPHENIX</text>
</a>
</g>
</g>
<!-- Node1&#45;&gt;Node3 -->
<g id="edge2" class="edge">
<title>Node1&#45;&gt;Node3</title>
<path fill="none" stroke="#191970" d="M110.037,-134.1952C133.2847,-145.3895 166.7062,-160.67 197,-171.5 206.1874,-174.7845 216.2282,-177.8313 225.7495,-180.4804"/>
<polygon fill="#191970" stroke="#191970" points="111.2591,-130.8977 100.7353,-129.6727 108.1983,-137.1931 111.2591,-130.8977"/>
</g>
<!-- Node4 -->
<g id="node4" class="node">
<title>Node4</title>
<g id="a_node4"><a xlink:href="../../da/dd0/Fun4All__G4__sPHENIX__photonjet_8C.html#a6f18519e216acc05399e562ea57ea77c" target="_top" xlink:title="Fun4All_G4_sPHENIX\l_photonjet">
<polygon fill="none" stroke="#000000" points="206,-129.5 206,-161.5 327,-161.5 327,-129.5 206,-129.5"/>
<text text-anchor="start" x="214" y="-148.5" font-family="FreeSans" font-size="10.00" fill="#000000">Fun4All_G4_sPHENIX</text>
<text text-anchor="middle" x="266.5" y="-136.5" font-family="FreeSans" font-size="10.00" fill="#000000">_photonjet</text>
</a>
</g>
</g>
<!-- Node1&#45;&gt;Node4 -->
<g id="edge3" class="edge">
<title>Node1&#45;&gt;Node4</title>
<path fill="none" stroke="#191970" d="M162.2021,-130.9207C176.8407,-132.967 191.8583,-135.0662 205.7751,-137.0116"/>
<polygon fill="#191970" stroke="#191970" points="162.5347,-127.4333 152.1464,-129.5151 161.5655,-134.3659 162.5347,-127.4333"/>
</g>
<!-- Node5 -->
<g id="node5" class="node">
<title>Node5</title>
<g id="a_node5"><a xlink:href="../../de/d55/Fun4All__G4__sPHENIX__truthphotonjet_8C.html#a48a6f4503eaa1b3793d8ae572aa795b9" target="_top" xlink:title="Fun4All_G4_sPHENIX\l_truthphotonjet">
<polygon fill="none" stroke="#000000" points="206,-78.5 206,-110.5 327,-110.5 327,-78.5 206,-78.5"/>
<text text-anchor="start" x="214" y="-97.5" font-family="FreeSans" font-size="10.00" fill="#000000">Fun4All_G4_sPHENIX</text>
<text text-anchor="middle" x="266.5" y="-85.5" font-family="FreeSans" font-size="10.00" fill="#000000">_truthphotonjet</text>
</a>
</g>
</g>
<!-- Node1&#45;&gt;Node5 -->
<g id="edge4" class="edge">
<title>Node1&#45;&gt;Node5</title>
<path fill="none" stroke="#191970" d="M165.0502,-108.1357C178.825,-106.2843 192.8491,-104.3993 205.9002,-102.6451"/>
<polygon fill="#191970" stroke="#191970" points="164.5262,-104.6746 155.0816,-109.4756 165.4587,-111.6122 164.5262,-104.6746"/>
</g>
<!-- Node6 -->
<g id="node6" class="node">
<title>Node6</title>
<g id="a_node6"><a xlink:href="../../d4/d65/Fun4All__single__particle_8C.html#a8a492b5dbead494bfdddbebde8a49b0e" target="_top" xlink:title="Fun4All_single_particle">
<polygon fill="none" stroke="#000000" points="200.5,-39.5 200.5,-59.5 332.5,-59.5 332.5,-39.5 200.5,-39.5"/>
<text text-anchor="middle" x="266.5" y="-46.5" font-family="FreeSans" font-size="10.00" fill="#000000">Fun4All_single_particle</text>
</a>
</g>
</g>
<!-- Node1&#45;&gt;Node6 -->
<g id="edge5" class="edge">
<title>Node1&#45;&gt;Node6</title>
<path fill="none" stroke="#191970" d="M110.9874,-105.1695C134.25,-94.5414 167.2536,-80.1163 197,-69.5 207.0513,-65.9127 218.09,-62.5027 228.3522,-59.5478"/>
<polygon fill="#191970" stroke="#191970" points="109.2704,-102.1069 101.652,-109.4697 112.1991,-108.4648 109.2704,-102.1069"/>
</g>
<!-- Node7 -->
<g id="node7" class="node">
<title>Node7</title>
<g id="a_node7"><a xlink:href="../../dc/dad/generate__hepmc__bjet_8C.html#a43ba01d330c72134968f8e6fddb1790a" target="_top" xlink:title="generate_hepmc_bjet">
<polygon fill="none" stroke="#000000" points="203,-.5 203,-20.5 330,-20.5 330,-.5 203,-.5"/>
<text text-anchor="middle" x="266.5" y="-7.5" font-family="FreeSans" font-size="10.00" fill="#000000">generate_hepmc_bjet</text>
</a>
</g>
</g>
<!-- Node1&#45;&gt;Node7 -->
<g id="edge6" class="edge">
<title>Node1&#45;&gt;Node7</title>
<path fill="none" stroke="#191970" d="M98.2674,-102.4782C119.9479,-82.5708 158.4949,-49.8796 197,-30.5 204.8507,-26.5488 213.6044,-23.263 222.1803,-20.5742"/>
<polygon fill="#191970" stroke="#191970" points="95.7432,-100.0464 90.8193,-109.4276 100.5187,-105.1646 95.7432,-100.0464"/>
</g>
</g>
</svg>
