<?xml version="1.0" encoding="UTF-8" standalone="no"?>
<!DOCTYPE svg PUBLIC "-//W3C//DTD SVG 1.1//EN"
 "http://www.w3.org/Graphics/SVG/1.1/DTD/svg11.dtd">
<!-- Generated by graphviz version 2.40.1 (20161225.0304)
 -->
<!-- Title: RawTowerBuilderByHitIndex::CreateNodes Pages: 1 -->
<svg width="528pt" height="168pt"
 viewBox="0.00 0.00 528.00 168.00" xmlns="http://www.w3.org/2000/svg" xmlns:xlink="http://www.w3.org/1999/xlink">
<g id="graph0" class="graph" transform="scale(1 1) rotate(0) translate(4 164)">
<title>RawTowerBuilderByHitIndex::CreateNodes</title>
<!-- Node1 -->
<g id="node1" class="node">
<title>Node1</title>
<polygon fill="#bfbfbf" stroke="#000000" points="0,-57.5 0,-89.5 158,-89.5 158,-57.5 0,-57.5"/>
<text text-anchor="start" x="8" y="-76.5" font-family="FreeSans" font-size="10.00" fill="#000000">RawTowerBuilderByHitIndex</text>
<text text-anchor="middle" x="79" y="-64.5" font-family="FreeSans" font-size="10.00" fill="#000000">::CreateNodes</text>
</g>
<!-- Node2 -->
<g id="node2" class="node">
<title>Node2</title>
<g id="a_node2"><a xlink:href="../../d5/dca/classPHCompositeNode.html#a15a0c4804399a9de4267647f05bd1ba4" target="_top" xlink:title="PHCompositeNode::addNode">
<polygon fill="none" stroke="#000000" points="194,-108.5 194,-128.5 356,-128.5 356,-108.5 194,-108.5"/>
<text text-anchor="middle" x="275" y="-115.5" font-family="FreeSans" font-size="10.00" fill="#000000">PHCompositeNode::addNode</text>
</a>
</g>
</g>
<!-- Node1&#45;&gt;Node2 -->
<g id="edge1" class="edge">
<title>Node1&#45;&gt;Node2</title>
<path fill="none" stroke="#191970" d="M148.9304,-89.5555C172.7647,-95.0276 199.0181,-101.0552 221.3687,-106.1867"/>
<polygon fill="#191970" stroke="#191970" points="220.8109,-109.6496 231.3405,-108.4761 222.3773,-102.8271 220.8109,-109.6496"/>
</g>
<!-- Node6 -->
<g id="node6" class="node">
<title>Node6</title>
<g id="a_node6"><a xlink:href="../../da/d58/namespaceRawTowerDefs.html#a833750b09c330a79395b15bcf1d93a9e" target="_top" xlink:title="RawTowerDefs::convert\l_name_to_caloid">
<polygon fill="none" stroke="#000000" points="207.5,-57.5 207.5,-89.5 342.5,-89.5 342.5,-57.5 207.5,-57.5"/>
<text text-anchor="start" x="215.5" y="-76.5" font-family="FreeSans" font-size="10.00" fill="#000000">RawTowerDefs::convert</text>
<text text-anchor="middle" x="275" y="-64.5" font-family="FreeSans" font-size="10.00" fill="#000000">_name_to_caloid</text>
</a>
</g>
</g>
<!-- Node1&#45;&gt;Node6 -->
<g id="edge5" class="edge">
<title>Node1&#45;&gt;Node6</title>
<path fill="none" stroke="#191970" d="M158.1557,-73.5C170.9823,-73.5 184.2564,-73.5 197.0538,-73.5"/>
<polygon fill="#191970" stroke="#191970" points="197.1973,-77.0001 207.1973,-73.5 197.1973,-70.0001 197.1973,-77.0001"/>
</g>
<!-- Node7 -->
<g id="node7" class="node">
<title>Node7</title>
<g id="a_node7"><a xlink:href="../../d5/d07/classPHNodeIterator.html#aea98bf8619af59b1212a94fb32106baa" target="_top" xlink:title="PHNodeIterator::findFirst">
<polygon fill="none" stroke="#000000" points="204.5,-.5 204.5,-20.5 345.5,-20.5 345.5,-.5 204.5,-.5"/>
<text text-anchor="middle" x="275" y="-7.5" font-family="FreeSans" font-size="10.00" fill="#000000">PHNodeIterator::findFirst</text>
</a>
</g>
</g>
<!-- Node1&#45;&gt;Node7 -->
<g id="edge6" class="edge">
<title>Node1&#45;&gt;Node7</title>
<path fill="none" stroke="#191970" d="M128.9662,-57.4394C161.4719,-46.9912 203.3446,-33.5321 233.9123,-23.7068"/>
<polygon fill="#191970" stroke="#191970" points="235.3662,-26.9159 243.8154,-20.5236 233.2241,-20.2517 235.3662,-26.9159"/>
</g>
<!-- Node3 -->
<g id="node3" class="node">
<title>Node3</title>
<g id="a_node3"><a xlink:href="../../d6/d86/classPHPointerList.html#ac2176735e9d046a034f1686fd2c477eb" target="_top" xlink:title="PHPointerList::append">
<polygon fill="none" stroke="#000000" points="392,-139.5 392,-159.5 520,-159.5 520,-139.5 392,-139.5"/>
<text text-anchor="middle" x="456" y="-146.5" font-family="FreeSans" font-size="10.00" fill="#000000">PHPointerList::append</text>
</a>
</g>
</g>
<!-- Node2&#45;&gt;Node3 -->
<g id="edge2" class="edge">
<title>Node2&#45;&gt;Node3</title>
<path fill="none" stroke="#191970" d="M333.7655,-128.5648C350.8507,-131.491 369.6637,-134.7131 387.3019,-137.734"/>
<polygon fill="#191970" stroke="#191970" points="387.082,-141.2472 397.5293,-139.4857 388.2637,-134.3477 387.082,-141.2472"/>
</g>
<!-- Node4 -->
<g id="node4" class="node">
<title>Node4</title>
<g id="a_node4"><a xlink:href="../../dc/d82/classPHNode.html#aca3576f926a4401eddc3d88bf0ce0de3" target="_top" xlink:title="PHNode::getName">
<polygon fill="none" stroke="#000000" points="401.5,-54.5 401.5,-74.5 510.5,-74.5 510.5,-54.5 401.5,-54.5"/>
<text text-anchor="middle" x="456" y="-61.5" font-family="FreeSans" font-size="10.00" fill="#000000">PHNode::getName</text>
</a>
</g>
</g>
<!-- Node2&#45;&gt;Node4 -->
<g id="edge3" class="edge">
<title>Node2&#45;&gt;Node4</title>
<path fill="none" stroke="#191970" d="M321.4825,-108.4906C332.8356,-105.8004 344.906,-102.7327 356,-99.5 377.5044,-93.2339 401.1774,-85.0096 420.0901,-78.108"/>
<polygon fill="#191970" stroke="#191970" points="421.3367,-81.3787 429.5096,-74.6368 418.9162,-74.8105 421.3367,-81.3787"/>
</g>
<!-- Node5 -->
<g id="node5" class="node">
<title>Node5</title>
<g id="a_node5"><a xlink:href="../../dc/d82/classPHNode.html#adda2bd6cef2d5067bbe3016a990b7198" target="_top" xlink:title="PHNode::setParent">
<polygon fill="none" stroke="#000000" points="400.5,-100.5 400.5,-120.5 511.5,-120.5 511.5,-100.5 400.5,-100.5"/>
<text text-anchor="middle" x="456" y="-107.5" font-family="FreeSans" font-size="10.00" fill="#000000">PHNode::setParent</text>
</a>
</g>
</g>
<!-- Node2&#45;&gt;Node5 -->
<g id="edge4" class="edge">
<title>Node2&#45;&gt;Node5</title>
<path fill="none" stroke="#191970" d="M356.2347,-114.9095C367.6752,-114.4039 379.3153,-113.8894 390.4133,-113.3989"/>
<polygon fill="#191970" stroke="#191970" points="390.596,-116.8943 400.4317,-112.9561 390.2869,-109.9011 390.596,-116.8943"/>
</g>
<!-- Node7&#45;&gt;Node4 -->
<g id="edge8" class="edge">
<title>Node7&#45;&gt;Node4</title>
<path fill="none" stroke="#191970" d="M308.6205,-20.5304C337.8639,-29.255 380.4322,-41.9549 412.3093,-51.4652"/>
<polygon fill="#191970" stroke="#191970" points="411.6696,-54.9268 422.2529,-54.4318 413.6709,-48.2189 411.6696,-54.9268"/>
</g>
<!-- Node7&#45;&gt;Node7 -->
<g id="edge7" class="edge">
<title>Node7&#45;&gt;Node7</title>
<path fill="none" stroke="#191970" d="M246.8201,-20.7271C233.9661,-29.6067 243.3594,-39 275,-39 296.2585,-39 307.4743,-34.7597 308.6473,-29.2839"/>
<polygon fill="#191970" stroke="#191970" points="311.5136,-27.2693 303.1799,-20.7271 305.6148,-31.0383 311.5136,-27.2693"/>
</g>
<!-- Node8 -->
<g id="node8" class="node">
<title>Node8</title>
<g id="a_node8"><a xlink:href="../../dc/d82/classPHNode.html#a4ab1f90aed955a652813bfe377087bda" target="_top" xlink:title="PHNode::getType">
<polygon fill="none" stroke="#000000" points="404.5,-.5 404.5,-20.5 507.5,-20.5 507.5,-.5 404.5,-.5"/>
<text text-anchor="middle" x="456" y="-7.5" font-family="FreeSans" font-size="10.00" fill="#000000">PHNode::getType</text>
</a>
</g>
</g>
<!-- Node7&#45;&gt;Node8 -->
<g id="edge9" class="edge">
<title>Node7&#45;&gt;Node8</title>
<path fill="none" stroke="#191970" d="M345.757,-10.5C361.7799,-10.5 378.6708,-10.5 394.2855,-10.5"/>
<polygon fill="#191970" stroke="#191970" points="394.3404,-14.0001 404.3404,-10.5 394.3403,-7.0001 394.3404,-14.0001"/>
</g>
</g>
</svg>
