<?xml version="1.0" encoding="UTF-8" standalone="no"?>
<!DOCTYPE svg PUBLIC "-//W3C//DTD SVG 1.1//EN"
 "http://www.w3.org/Graphics/SVG/1.1/DTD/svg11.dtd">
<!-- Generated by graphviz version 2.40.1 (20161225.0304)
 -->
<!-- Title: coresoftware/blob/master/simulation/g4simulation/g4jets/Jetv1.h Pages: 1 -->
<svg width="448pt" height="224pt"
 viewBox="0.00 0.00 447.50 224.00" xmlns="http://www.w3.org/2000/svg" xmlns:xlink="http://www.w3.org/1999/xlink">
<g id="graph0" class="graph" transform="scale(1 1) rotate(0) translate(4 220)">
<title>coresoftware/blob/master/simulation/g4simulation/g4jets/Jetv1.h</title>
<!-- Node1 -->
<g id="node1" class="node">
<title>Node1</title>
<polygon fill="#bfbfbf" stroke="#000000" points="245,-171.5 245,-215.5 391,-215.5 391,-171.5 245,-171.5"/>
<text text-anchor="start" x="253" y="-202.5" font-family="FreeSans" font-size="10.00" fill="#000000">coresoftware/blob/master</text>
<text text-anchor="start" x="253" y="-190.5" font-family="FreeSans" font-size="10.00" fill="#000000">/simulation/g4simulation</text>
<text text-anchor="middle" x="318" y="-178.5" font-family="FreeSans" font-size="10.00" fill="#000000">/g4jets/Jetv1.h</text>
</g>
<!-- Node2 -->
<g id="node2" class="node">
<title>Node2</title>
<g id="a_node2"><a xlink:href="../../da/db7/Jet_8h.html" target="_top" xlink:title="Jet.h">
<polygon fill="none" stroke="#000000" points="176.5,-114.5 176.5,-134.5 215.5,-134.5 215.5,-114.5 176.5,-114.5"/>
<text text-anchor="middle" x="196" y="-121.5" font-family="FreeSans" font-size="10.00" fill="#000000">Jet.h</text>
</a>
</g>
</g>
<!-- Node1&#45;&gt;Node2 -->
<g id="edge1" class="edge">
<title>Node1&#45;&gt;Node2</title>
<path fill="none" stroke="#191970" d="M279.063,-171.4783C260.7587,-161.1259 239.3913,-149.041 222.9123,-139.7209"/>
<polygon fill="#191970" stroke="#191970" points="224.2621,-136.4633 213.8347,-134.5869 220.816,-142.5563 224.2621,-136.4633"/>
</g>
<!-- Node5 -->
<g id="node5" class="node">
<title>Node5</title>
<polygon fill="none" stroke="#bfbfbf" points="103,-.5 103,-20.5 163,-20.5 163,-.5 103,-.5"/>
<text text-anchor="middle" x="133" y="-7.5" font-family="FreeSans" font-size="10.00" fill="#000000">iostream</text>
</g>
<!-- Node1&#45;&gt;Node5 -->
<g id="edge10" class="edge">
<title>Node1&#45;&gt;Node5</title>
<path fill="none" stroke="#191970" d="M332.7144,-171.3166C350.1517,-141.9703 373.6827,-90.1032 347,-57 325.6496,-30.5122 229.5646,-18.3334 173.6711,-13.4023"/>
<polygon fill="#191970" stroke="#191970" points="173.6542,-9.8885 163.3958,-12.5373 173.0669,-16.8639 173.6542,-9.8885"/>
</g>
<!-- Node7 -->
<g id="node7" class="node">
<title>Node7</title>
<polygon fill="none" stroke="#bfbfbf" points="226,-57.5 226,-77.5 280,-77.5 280,-57.5 226,-57.5"/>
<text text-anchor="middle" x="253" y="-64.5" font-family="FreeSans" font-size="10.00" fill="#000000">cstddef</text>
</g>
<!-- Node1&#45;&gt;Node7 -->
<g id="edge9" class="edge">
<title>Node1&#45;&gt;Node7</title>
<path fill="none" stroke="#191970" d="M306.5289,-171.2638C294.1473,-147.2626 274.6296,-109.4282 262.8971,-86.6852"/>
<polygon fill="#191970" stroke="#191970" points="265.9435,-84.9561 258.2483,-77.6736 259.7225,-88.1654 265.9435,-84.9561"/>
</g>
<!-- Node8 -->
<g id="node8" class="node">
<title>Node8</title>
<polygon fill="none" stroke="#bfbfbf" points="298.5,-57.5 298.5,-77.5 337.5,-77.5 337.5,-57.5 298.5,-57.5"/>
<text text-anchor="middle" x="318" y="-64.5" font-family="FreeSans" font-size="10.00" fill="#000000">map</text>
</g>
<!-- Node1&#45;&gt;Node8 -->
<g id="edge11" class="edge">
<title>Node1&#45;&gt;Node8</title>
<path fill="none" stroke="#191970" d="M318,-171.2638C318,-147.6931 318,-110.7811 318,-87.9234"/>
<polygon fill="#191970" stroke="#191970" points="321.5001,-87.6736 318,-77.6736 314.5001,-87.6736 321.5001,-87.6736"/>
</g>
<!-- Node9 -->
<g id="node9" class="node">
<title>Node9</title>
<polygon fill="none" stroke="#bfbfbf" points="394.5,-114.5 394.5,-134.5 439.5,-134.5 439.5,-114.5 394.5,-114.5"/>
<text text-anchor="middle" x="417" y="-121.5" font-family="FreeSans" font-size="10.00" fill="#000000">utility</text>
</g>
<!-- Node1&#45;&gt;Node9 -->
<g id="edge12" class="edge">
<title>Node1&#45;&gt;Node9</title>
<path fill="none" stroke="#191970" d="M349.5964,-171.4783C364.0334,-161.4161 380.8187,-149.7173 394.0273,-140.5113"/>
<polygon fill="#191970" stroke="#191970" points="396.3248,-143.1762 402.5275,-134.5869 392.3223,-137.4334 396.3248,-143.1762"/>
</g>
<!-- Node3 -->
<g id="node3" class="node">
<title>Node3</title>
<g id="a_node3"><a xlink:href="../../df/d32/PHObject_8h.html" target="_top" xlink:title="phool/PHObject.h">
<polygon fill="none" stroke="#000000" points="0,-57.5 0,-77.5 104,-77.5 104,-57.5 0,-57.5"/>
<text text-anchor="middle" x="52" y="-64.5" font-family="FreeSans" font-size="10.00" fill="#000000">phool/PHObject.h</text>
</a>
</g>
</g>
<!-- Node2&#45;&gt;Node3 -->
<g id="edge2" class="edge">
<title>Node2&#45;&gt;Node3</title>
<path fill="none" stroke="#191970" d="M176.2794,-116.6939C153.2656,-107.5843 114.7911,-92.3548 86.7365,-81.2499"/>
<polygon fill="#191970" stroke="#191970" points="87.8765,-77.9369 77.2902,-77.5107 85.3001,-84.4456 87.8765,-77.9369"/>
</g>
<!-- Node2&#45;&gt;Node5 -->
<g id="edge7" class="edge">
<title>Node2&#45;&gt;Node5</title>
<path fill="none" stroke="#191970" d="M183.1015,-114.3818C172.9475,-105.7521 159.1864,-92.4716 151,-78 142.707,-63.3399 138.1145,-44.7212 135.648,-30.7531"/>
<polygon fill="#191970" stroke="#191970" points="139.0826,-30.0602 134.0957,-20.7124 132.1648,-31.1298 139.0826,-30.0602"/>
</g>
<!-- Node6 -->
<g id="node6" class="node">
<title>Node6</title>
<polygon fill="none" stroke="#bfbfbf" points="160,-57.5 160,-77.5 208,-77.5 208,-57.5 160,-57.5"/>
<text text-anchor="middle" x="184" y="-64.5" font-family="FreeSans" font-size="10.00" fill="#000000">cmath</text>
</g>
<!-- Node2&#45;&gt;Node6 -->
<g id="edge5" class="edge">
<title>Node2&#45;&gt;Node6</title>
<path fill="none" stroke="#191970" d="M193.8546,-114.3095C192.2847,-106.8524 190.1042,-96.4951 188.1934,-87.4186"/>
<polygon fill="#191970" stroke="#191970" points="191.6119,-86.6667 186.1268,-77.6022 184.762,-88.1088 191.6119,-86.6667"/>
</g>
<!-- Node2&#45;&gt;Node7 -->
<g id="edge6" class="edge">
<title>Node2&#45;&gt;Node7</title>
<path fill="none" stroke="#191970" d="M206.1905,-114.3095C214.3771,-106.1229 226.059,-94.441 235.7045,-84.7955"/>
<polygon fill="#191970" stroke="#191970" points="238.3016,-87.1482 242.8978,-77.6022 233.3518,-82.1984 238.3016,-87.1482"/>
</g>
<!-- Node2&#45;&gt;Node8 -->
<g id="edge8" class="edge">
<title>Node2&#45;&gt;Node8</title>
<path fill="none" stroke="#191970" d="M215.6014,-115.342C235.5221,-106.0347 266.5957,-91.5168 289.2907,-80.9134"/>
<polygon fill="#191970" stroke="#191970" points="290.8688,-84.0393 298.4472,-76.6353 287.9057,-77.6973 290.8688,-84.0393"/>
</g>
<!-- Node4 -->
<g id="node4" class="node">
<title>Node4</title>
<polygon fill="none" stroke="#bfbfbf" points="19.5,-.5 19.5,-20.5 84.5,-20.5 84.5,-.5 19.5,-.5"/>
<text text-anchor="middle" x="52" y="-7.5" font-family="FreeSans" font-size="10.00" fill="#000000">TObject.h</text>
</g>
<!-- Node3&#45;&gt;Node4 -->
<g id="edge3" class="edge">
<title>Node3&#45;&gt;Node4</title>
<path fill="none" stroke="#191970" d="M52,-57.3095C52,-49.9335 52,-39.72 52,-30.715"/>
<polygon fill="#191970" stroke="#191970" points="55.5001,-30.6022 52,-20.6022 48.5001,-30.6023 55.5001,-30.6022"/>
</g>
<!-- Node3&#45;&gt;Node5 -->
<g id="edge4" class="edge">
<title>Node3&#45;&gt;Node5</title>
<path fill="none" stroke="#191970" d="M66.4812,-57.3095C78.6907,-48.7177 96.3713,-36.2758 110.4357,-26.3786"/>
<polygon fill="#191970" stroke="#191970" points="112.4804,-29.2195 118.6442,-20.6022 108.4519,-23.4949 112.4804,-29.2195"/>
</g>
</g>
</svg>
