<?xml version="1.0" encoding="UTF-8" standalone="no"?>
<!DOCTYPE svg PUBLIC "-//W3C//DTD SVG 1.1//EN"
 "http://www.w3.org/Graphics/SVG/1.1/DTD/svg11.dtd">
<!-- Generated by graphviz version 2.40.1 (20161225.0304)
 -->
<!-- Title: coresoftware/blob/master/offline/database/pdbcal/pg/PgPostBankBackupStorage.h Pages: 1 -->
<svg width="404pt" height="134pt"
 viewBox="0.00 0.00 403.50 134.00" xmlns="http://www.w3.org/2000/svg" xmlns:xlink="http://www.w3.org/1999/xlink">
<g id="graph0" class="graph" transform="scale(1 1) rotate(0) translate(4 130)">
<title>coresoftware/blob/master/offline/database/pdbcal/pg/PgPostBankBackupStorage.h</title>
<!-- Node1 -->
<g id="node1" class="node">
<title>Node1</title>
<polygon fill="#bfbfbf" stroke="#000000" points="107,-81.5 107,-125.5 289,-125.5 289,-81.5 107,-81.5"/>
<text text-anchor="start" x="115" y="-112.5" font-family="FreeSans" font-size="10.00" fill="#000000">coresoftware/blob/master</text>
<text text-anchor="start" x="115" y="-100.5" font-family="FreeSans" font-size="10.00" fill="#000000">/offline/database/pdbcal</text>
<text text-anchor="middle" x="198" y="-88.5" font-family="FreeSans" font-size="10.00" fill="#000000">/pg/PgPostBankBackupStorage.h</text>
</g>
<!-- Node2 -->
<g id="node2" class="node">
<title>Node2</title>
<g id="a_node2"><a xlink:href="../../dc/dc5/PgPostBankBackupManager_8cc.html" target="_top" xlink:title="coresoftware/blob/master\l/offline/database/pdbcal\l/pg/PgPostBankBackupManager.cc">
<polygon fill="none" stroke="#000000" points="0,-.5 0,-44.5 190,-44.5 190,-.5 0,-.5"/>
<text text-anchor="start" x="8" y="-31.5" font-family="FreeSans" font-size="10.00" fill="#000000">coresoftware/blob/master</text>
<text text-anchor="start" x="8" y="-19.5" font-family="FreeSans" font-size="10.00" fill="#000000">/offline/database/pdbcal</text>
<text text-anchor="middle" x="95" y="-7.5" font-family="FreeSans" font-size="10.00" fill="#000000">/pg/PgPostBankBackupManager.cc</text>
</a>
</g>
</g>
<!-- Node1&#45;&gt;Node2 -->
<g id="edge1" class="edge">
<title>Node1&#45;&gt;Node2</title>
<path fill="none" stroke="#191970" d="M161.752,-74.9943C149.0688,-65.0201 135.0291,-53.9792 123.1112,-44.6068"/>
<polygon fill="#191970" stroke="#191970" points="159.8307,-77.936 169.8548,-81.3664 164.1578,-72.4336 159.8307,-77.936"/>
</g>
<!-- Node3 -->
<g id="node3" class="node">
<title>Node3</title>
<g id="a_node3"><a xlink:href="../../d9/dca/PgPostBankBackupStorage_8cc.html" target="_top" xlink:title="coresoftware/blob/master\l/offline/database/pdbcal\l/pg/PgPostBankBackupStorage.cc">
<polygon fill="none" stroke="#000000" points="208.5,-.5 208.5,-44.5 395.5,-44.5 395.5,-.5 208.5,-.5"/>
<text text-anchor="start" x="216.5" y="-31.5" font-family="FreeSans" font-size="10.00" fill="#000000">coresoftware/blob/master</text>
<text text-anchor="start" x="216.5" y="-19.5" font-family="FreeSans" font-size="10.00" fill="#000000">/offline/database/pdbcal</text>
<text text-anchor="middle" x="302" y="-7.5" font-family="FreeSans" font-size="10.00" fill="#000000">/pg/PgPostBankBackupStorage.cc</text>
</a>
</g>
</g>
<!-- Node1&#45;&gt;Node3 -->
<g id="edge2" class="edge">
<title>Node1&#45;&gt;Node3</title>
<path fill="none" stroke="#191970" d="M234.5999,-74.9943C247.4062,-65.0201 261.5823,-53.9792 273.6159,-44.6068"/>
<polygon fill="#191970" stroke="#191970" points="232.1573,-72.4604 226.4185,-81.3664 236.4586,-77.983 232.1573,-72.4604"/>
</g>
</g>
</svg>
