<?xml version="1.0" encoding="UTF-8" standalone="no"?>
<!DOCTYPE svg PUBLIC "-//W3C//DTD SVG 1.1//EN"
 "http://www.w3.org/Graphics/SVG/1.1/DTD/svg11.dtd">
<!-- Generated by graphviz version 2.40.1 (20161225.0304)
 -->
<!-- Title: MomentumEvaluator::process_event Pages: 1 -->
<svg width="520pt" height="1100pt"
 viewBox="0.00 0.00 520.00 1100.00" xmlns="http://www.w3.org/2000/svg" xmlns:xlink="http://www.w3.org/1999/xlink">
<g id="graph0" class="graph" transform="scale(1 1) rotate(0) translate(4 1096)">
<title>MomentumEvaluator::process_event</title>
<!-- Node1 -->
<g id="node1" class="node">
<title>Node1</title>
<polygon fill="#bfbfbf" stroke="#000000" points="0,-553.5 0,-585.5 128,-585.5 128,-553.5 0,-553.5"/>
<text text-anchor="start" x="8" y="-572.5" font-family="FreeSans" font-size="10.00" fill="#000000">MomentumEvaluator::</text>
<text text-anchor="middle" x="64" y="-560.5" font-family="FreeSans" font-size="10.00" fill="#000000">process_event</text>
</g>
<!-- Node2 -->
<g id="node2" class="node">
<title>Node2</title>
<g id="a_node2"><a xlink:href="../../d5/de8/classRecursiveMomentumContainer.html#a91f94788ff2742fbf37dd225d1272cb5" target="_top" xlink:title="RecursiveMomentumContainer\l::append_list">
<polygon fill="none" stroke="#000000" points="164,-1059.5 164,-1091.5 337,-1091.5 337,-1059.5 164,-1059.5"/>
<text text-anchor="start" x="172" y="-1078.5" font-family="FreeSans" font-size="10.00" fill="#000000">RecursiveMomentumContainer</text>
<text text-anchor="middle" x="250.5" y="-1066.5" font-family="FreeSans" font-size="10.00" fill="#000000">::append_list</text>
</a>
</g>
</g>
<!-- Node1&#45;&gt;Node2 -->
<g id="edge1" class="edge">
<title>Node1&#45;&gt;Node2</title>
<path fill="none" stroke="#191970" d="M65.1561,-585.6024C70.8975,-661.1838 98.7174,-980.0312 164,-1050.5 164.8964,-1051.4676 165.8276,-1052.3985 166.7904,-1053.2942"/>
<polygon fill="#191970" stroke="#191970" points="164.6993,-1056.1019 174.7368,-1059.493 169.0048,-1050.5826 164.6993,-1056.1019"/>
</g>
<!-- Node3 -->
<g id="node3" class="node">
<title>Node3</title>
<g id="a_node3"><a xlink:href="../../d7/d8b/classSvtxTrackMap.html#a8c16bb47fdace6d5516d1803ffe54706" target="_top" xlink:title="SvtxTrackMap::begin">
<polygon fill="none" stroke="#000000" points="190,-1020.5 190,-1040.5 311,-1040.5 311,-1020.5 190,-1020.5"/>
<text text-anchor="middle" x="250.5" y="-1027.5" font-family="FreeSans" font-size="10.00" fill="#000000">SvtxTrackMap::begin</text>
</a>
</g>
</g>
<!-- Node1&#45;&gt;Node3 -->
<g id="edge2" class="edge">
<title>Node1&#45;&gt;Node3</title>
<path fill="none" stroke="#191970" d="M65.367,-585.5807C71.8117,-657.5658 101.4969,-949.3881 164,-1011.5 168.6521,-1016.123 174.1555,-1019.7329 180.0974,-1022.539"/>
<polygon fill="#191970" stroke="#191970" points="179.1484,-1025.9262 189.7361,-1026.3169 181.703,-1019.409 179.1484,-1025.9262"/>
</g>
<!-- Node4 -->
<g id="node4" class="node">
<title>Node4</title>
<g id="a_node4"><a xlink:href="../../d5/de8/classRecursiveMomentumContainer.html#aebd034159f6434be6b728495387eda3d" target="_top" xlink:title="RecursiveMomentumContainer\l::begin">
<polygon fill="none" stroke="#000000" points="164,-969.5 164,-1001.5 337,-1001.5 337,-969.5 164,-969.5"/>
<text text-anchor="start" x="172" y="-988.5" font-family="FreeSans" font-size="10.00" fill="#000000">RecursiveMomentumContainer</text>
<text text-anchor="middle" x="250.5" y="-976.5" font-family="FreeSans" font-size="10.00" fill="#000000">::begin</text>
</a>
</g>
</g>
<!-- Node1&#45;&gt;Node4 -->
<g id="edge3" class="edge">
<title>Node1&#45;&gt;Node4</title>
<path fill="none" stroke="#191970" d="M66.016,-585.8542C74.5783,-652.7689 109.9852,-904.7863 164,-960.5 164.9181,-961.447 165.8696,-962.3587 166.8514,-963.2364"/>
<polygon fill="#191970" stroke="#191970" points="164.8266,-966.0931 174.9175,-969.3218 169.0424,-960.505 164.8266,-966.0931"/>
</g>
<!-- Node5 -->
<g id="node5" class="node">
<title>Node5</title>
<g id="a_node5"><a xlink:href="../../d7/d8b/classSvtxTrackMap.html#a1c7ae993700819b7d0a8e3f3d74fa99c" target="_top" xlink:title="SvtxTrackMap::end">
<polygon fill="none" stroke="#000000" points="194.5,-930.5 194.5,-950.5 306.5,-950.5 306.5,-930.5 194.5,-930.5"/>
<text text-anchor="middle" x="250.5" y="-937.5" font-family="FreeSans" font-size="10.00" fill="#000000">SvtxTrackMap::end</text>
</a>
</g>
</g>
<!-- Node1&#45;&gt;Node5 -->
<g id="edge4" class="edge">
<title>Node1&#45;&gt;Node5</title>
<path fill="none" stroke="#191970" d="M66.3574,-585.5836C75.8352,-648.0686 113.1119,-873.6049 164,-921.5 169.8256,-926.9829 176.8563,-931.022 184.3618,-933.9775"/>
<polygon fill="#191970" stroke="#191970" points="183.4745,-937.3701 194.0675,-937.169 185.6611,-930.7204 183.4745,-937.3701"/>
</g>
<!-- Node6 -->
<g id="node6" class="node">
<title>Node6</title>
<g id="a_node6"><a xlink:href="../../d3/d9e/classPHG4Hit.html#a8992f01396d51ebf6c85dd2859e13a6b" target="_top" xlink:title="PHG4Hit::get_layer">
<polygon fill="none" stroke="#000000" points="194,-891.5 194,-911.5 307,-911.5 307,-891.5 194,-891.5"/>
<text text-anchor="middle" x="250.5" y="-898.5" font-family="FreeSans" font-size="10.00" fill="#000000">PHG4Hit::get_layer</text>
</a>
</g>
</g>
<!-- Node1&#45;&gt;Node6 -->
<g id="edge5" class="edge">
<title>Node1&#45;&gt;Node6</title>
<path fill="none" stroke="#191970" d="M66.9933,-585.7735C78.0227,-643.9985 118.1406,-840.7196 164,-882.5 169.8338,-887.8149 176.8056,-891.7624 184.2245,-894.677"/>
<polygon fill="#191970" stroke="#191970" points="183.2158,-898.0297 193.8089,-897.8418 185.4106,-891.3827 183.2158,-898.0297"/>
</g>
<!-- Node7 -->
<g id="node7" class="node">
<title>Node7</title>
<g id="a_node7"><a xlink:href="../../de/dc9/classPHG4Particle.html#a44b98bfd72a04825791d1e4c4cb150a1" target="_top" xlink:title="PHG4Particle::get_px">
<polygon fill="none" stroke="#000000" points="189.5,-852.5 189.5,-872.5 311.5,-872.5 311.5,-852.5 189.5,-852.5"/>
<text text-anchor="middle" x="250.5" y="-859.5" font-family="FreeSans" font-size="10.00" fill="#000000">PHG4Particle::get_px</text>
</a>
</g>
</g>
<!-- Node1&#45;&gt;Node7 -->
<g id="edge6" class="edge">
<title>Node1&#45;&gt;Node7</title>
<path fill="none" stroke="#191970" d="M64.7496,-585.74C67.8648,-633.3 83.7592,-773.3308 164,-843.5 168.5971,-847.5201 173.8499,-850.7501 179.4443,-853.3384"/>
<polygon fill="#191970" stroke="#191970" points="178.5381,-856.7417 189.1264,-857.1147 181.0818,-850.2202 178.5381,-856.7417"/>
</g>
<!-- Node8 -->
<g id="node8" class="node">
<title>Node8</title>
<g id="a_node8"><a xlink:href="../../d2/db8/classSvtxTrack.html#a79f3af39b753ecee85dc1d4e3db08cdd" target="_top" xlink:title="SvtxTrack::get_px">
<polygon fill="none" stroke="#000000" points="197.5,-813.5 197.5,-833.5 303.5,-833.5 303.5,-813.5 197.5,-813.5"/>
<text text-anchor="middle" x="250.5" y="-820.5" font-family="FreeSans" font-size="10.00" fill="#000000">SvtxTrack::get_px</text>
</a>
</g>
</g>
<!-- Node1&#45;&gt;Node8 -->
<g id="edge7" class="edge">
<title>Node1&#45;&gt;Node8</title>
<path fill="none" stroke="#191970" d="M65.8235,-585.5934C71.5724,-628.4231 93.3513,-745.9117 164,-804.5 170.8792,-810.2049 179.0938,-814.2986 187.6828,-817.2188"/>
<polygon fill="#191970" stroke="#191970" points="186.9098,-820.6383 197.4878,-820.0404 188.8457,-813.9113 186.9098,-820.6383"/>
</g>
<!-- Node9 -->
<g id="node9" class="node">
<title>Node9</title>
<g id="a_node9"><a xlink:href="../../de/dc9/classPHG4Particle.html#a3df4379f9e46224a8cca7f86c11e99e5" target="_top" xlink:title="PHG4Particle::get_py">
<polygon fill="none" stroke="#000000" points="189.5,-774.5 189.5,-794.5 311.5,-794.5 311.5,-774.5 189.5,-774.5"/>
<text text-anchor="middle" x="250.5" y="-781.5" font-family="FreeSans" font-size="10.00" fill="#000000">PHG4Particle::get_py</text>
</a>
</g>
</g>
<!-- Node1&#45;&gt;Node9 -->
<g id="edge8" class="edge">
<title>Node1&#45;&gt;Node9</title>
<path fill="none" stroke="#191970" d="M67.3191,-585.6878C75.973,-623.5683 102.9274,-718.3338 164,-765.5 168.7554,-769.1725 174.0745,-772.1666 179.6745,-774.6037"/>
<polygon fill="#191970" stroke="#191970" points="178.7215,-777.9838 189.3141,-778.2009 181.1689,-771.4256 178.7215,-777.9838"/>
</g>
<!-- Node10 -->
<g id="node10" class="node">
<title>Node10</title>
<g id="a_node10"><a xlink:href="../../d2/db8/classSvtxTrack.html#a5a9164fc95756dd9780755a55327fec5" target="_top" xlink:title="SvtxTrack::get_py">
<polygon fill="none" stroke="#000000" points="197.5,-735.5 197.5,-755.5 303.5,-755.5 303.5,-735.5 197.5,-735.5"/>
<text text-anchor="middle" x="250.5" y="-742.5" font-family="FreeSans" font-size="10.00" fill="#000000">SvtxTrack::get_py</text>
</a>
</g>
</g>
<!-- Node1&#45;&gt;Node10 -->
<g id="edge9" class="edge">
<title>Node1&#45;&gt;Node10</title>
<path fill="none" stroke="#191970" d="M69.4385,-585.5976C81.2033,-617.8331 112.2136,-690.3103 164,-726.5 171.1423,-731.4912 179.3615,-735.2037 187.8307,-737.9591"/>
<polygon fill="#191970" stroke="#191970" points="186.8797,-741.3273 197.4548,-740.6803 188.7844,-734.5914 186.8797,-741.3273"/>
</g>
<!-- Node11 -->
<g id="node11" class="node">
<title>Node11</title>
<g id="a_node11"><a xlink:href="../../de/dc9/classPHG4Particle.html#a533e9bda40b15f62802b187e6a743e74" target="_top" xlink:title="PHG4Particle::get_pz">
<polygon fill="none" stroke="#000000" points="189.5,-696.5 189.5,-716.5 311.5,-716.5 311.5,-696.5 189.5,-696.5"/>
<text text-anchor="middle" x="250.5" y="-703.5" font-family="FreeSans" font-size="10.00" fill="#000000">PHG4Particle::get_pz</text>
</a>
</g>
</g>
<!-- Node1&#45;&gt;Node11 -->
<g id="edge10" class="edge">
<title>Node1&#45;&gt;Node11</title>
<path fill="none" stroke="#191970" d="M72.9885,-585.7814C88.1702,-611.6619 121.4417,-661.8735 164,-687.5 168.9785,-690.4978 174.3725,-693.0246 179.9508,-695.1541"/>
<polygon fill="#191970" stroke="#191970" points="178.8776,-698.4858 189.4718,-698.3758 181.1213,-691.8551 178.8776,-698.4858"/>
</g>
<!-- Node12 -->
<g id="node12" class="node">
<title>Node12</title>
<g id="a_node12"><a xlink:href="../../d2/db8/classSvtxTrack.html#a826b1ab6d05d45e5148c4645befe4def" target="_top" xlink:title="SvtxTrack::get_pz">
<polygon fill="none" stroke="#000000" points="198,-657.5 198,-677.5 303,-677.5 303,-657.5 198,-657.5"/>
<text text-anchor="middle" x="250.5" y="-664.5" font-family="FreeSans" font-size="10.00" fill="#000000">SvtxTrack::get_pz</text>
</a>
</g>
</g>
<!-- Node1&#45;&gt;Node12 -->
<g id="edge11" class="edge">
<title>Node1&#45;&gt;Node12</title>
<path fill="none" stroke="#191970" d="M79.748,-585.7701C98.2273,-603.8824 130.6086,-632.6813 164,-648.5 171.4089,-652.0098 179.484,-654.8819 187.6264,-657.2295"/>
<polygon fill="#191970" stroke="#191970" points="186.99,-660.6811 197.5514,-659.8406 188.771,-653.9115 186.99,-660.6811"/>
</g>
<!-- Node13 -->
<g id="node13" class="node">
<title>Node13</title>
<g id="a_node13"><a xlink:href="../../d2/db8/classSvtxTrack.html#a736c457cee73e12760baef3f368fec5a" target="_top" xlink:title="SvtxTrack::get_quality">
<polygon fill="none" stroke="#000000" points="186.5,-618.5 186.5,-638.5 314.5,-638.5 314.5,-618.5 186.5,-618.5"/>
<text text-anchor="middle" x="250.5" y="-625.5" font-family="FreeSans" font-size="10.00" fill="#000000">SvtxTrack::get_quality</text>
</a>
</g>
</g>
<!-- Node1&#45;&gt;Node13 -->
<g id="edge12" class="edge">
<title>Node1&#45;&gt;Node13</title>
<path fill="none" stroke="#191970" d="M100.0558,-585.5904C118.8514,-593.5493 142.3744,-602.8492 164,-609.5 171.7315,-611.8778 179.9384,-614.0807 188.0987,-616.0802"/>
<polygon fill="#191970" stroke="#191970" points="187.4578,-619.525 197.9944,-618.4163 189.0661,-612.7122 187.4578,-619.525"/>
</g>
<!-- Node14 -->
<g id="node14" class="node">
<title>Node14</title>
<g id="a_node14"><a xlink:href="../../de/dc9/classPHG4Particle.html#ac29b72a8cdeebc0754b6dd42b0cfab86" target="_top" xlink:title="PHG4Particle::get_track_id">
<polygon fill="none" stroke="#000000" points="176,-579.5 176,-599.5 325,-599.5 325,-579.5 176,-579.5"/>
<text text-anchor="middle" x="250.5" y="-586.5" font-family="FreeSans" font-size="10.00" fill="#000000">PHG4Particle::get_track_id</text>
</a>
</g>
</g>
<!-- Node1&#45;&gt;Node14 -->
<g id="edge13" class="edge">
<title>Node1&#45;&gt;Node14</title>
<path fill="none" stroke="#191970" d="M128.1827,-576.3829C140.3213,-577.6846 153.19,-579.0646 165.8458,-580.4218"/>
<polygon fill="#191970" stroke="#191970" points="165.6155,-583.9171 175.9317,-581.5034 166.362,-576.957 165.6155,-583.9171"/>
</g>
<!-- Node15 -->
<g id="node15" class="node">
<title>Node15</title>
<g id="a_node15"><a xlink:href="../../d3/d9e/classPHG4Hit.html#ac19cdd97dbd9b8154b8012ec0de01f76" target="_top" xlink:title="PHG4Hit::get_trkid">
<polygon fill="none" stroke="#000000" points="195.5,-540.5 195.5,-560.5 305.5,-560.5 305.5,-540.5 195.5,-540.5"/>
<text text-anchor="middle" x="250.5" y="-547.5" font-family="FreeSans" font-size="10.00" fill="#000000">PHG4Hit::get_trkid</text>
</a>
</g>
</g>
<!-- Node1&#45;&gt;Node15 -->
<g id="edge14" class="edge">
<title>Node1&#45;&gt;Node15</title>
<path fill="none" stroke="#191970" d="M128.1827,-562.9613C146.5857,-561.0864 166.6669,-559.0406 185.1398,-557.1587"/>
<polygon fill="#191970" stroke="#191970" points="185.6225,-560.6277 195.2162,-556.1321 184.9129,-553.6638 185.6225,-560.6277"/>
</g>
<!-- Node16 -->
<g id="node16" class="node">
<title>Node16</title>
<g id="a_node16"><a xlink:href="../../de/dc9/classPHG4Particle.html#a02ca717804f76c532efaf6d1cdebda3e" target="_top" xlink:title="PHG4Particle::get_vtx_id">
<polygon fill="none" stroke="#000000" points="180.5,-501.5 180.5,-521.5 320.5,-521.5 320.5,-501.5 180.5,-501.5"/>
<text text-anchor="middle" x="250.5" y="-508.5" font-family="FreeSans" font-size="10.00" fill="#000000">PHG4Particle::get_vtx_id</text>
</a>
</g>
</g>
<!-- Node1&#45;&gt;Node16 -->
<g id="edge15" class="edge">
<title>Node1&#45;&gt;Node16</title>
<path fill="none" stroke="#191970" d="M102.5171,-553.4592C120.9233,-546.1573 143.3879,-537.7675 164,-531.5 172.8804,-528.7998 182.3692,-526.2632 191.6889,-523.9628"/>
<polygon fill="#191970" stroke="#191970" points="192.7903,-527.298 201.6985,-521.5626 191.158,-520.4909 192.7903,-527.298"/>
</g>
<!-- Node17 -->
<g id="node17" class="node">
<title>Node17</title>
<g id="a_node17"><a xlink:href="../../d6/d81/classPHG4VtxPoint.html#a9f885c1b879a2f1d6299b07801210a1d" target="_top" xlink:title="PHG4VtxPoint::get_x">
<polygon fill="none" stroke="#000000" points="190,-462.5 190,-482.5 311,-482.5 311,-462.5 190,-462.5"/>
<text text-anchor="middle" x="250.5" y="-469.5" font-family="FreeSans" font-size="10.00" fill="#000000">PHG4VtxPoint::get_x</text>
</a>
</g>
</g>
<!-- Node1&#45;&gt;Node17 -->
<g id="edge16" class="edge">
<title>Node1&#45;&gt;Node17</title>
<path fill="none" stroke="#191970" d="M80.1962,-553.4061C98.8326,-535.8089 131.1178,-508.0486 164,-492.5 169.6695,-489.8191 175.7219,-487.4852 181.8922,-485.4557"/>
<polygon fill="#191970" stroke="#191970" points="183.0856,-488.7515 191.6474,-482.5109 181.0626,-482.0502 183.0856,-488.7515"/>
</g>
<!-- Node18 -->
<g id="node18" class="node">
<title>Node18</title>
<g id="a_node18"><a xlink:href="../../d2/db8/classSvtxTrack.html#af2317becf2120fcad5cefaa61a01407e" target="_top" xlink:title="SvtxTrack::get_x">
<polygon fill="none" stroke="#000000" points="201,-423.5 201,-443.5 300,-443.5 300,-423.5 201,-423.5"/>
<text text-anchor="middle" x="250.5" y="-430.5" font-family="FreeSans" font-size="10.00" fill="#000000">SvtxTrack::get_x</text>
</a>
</g>
</g>
<!-- Node1&#45;&gt;Node18 -->
<g id="edge17" class="edge">
<title>Node1&#45;&gt;Node18</title>
<path fill="none" stroke="#191970" d="M73.3427,-553.1357C88.7824,-527.652 122.1201,-478.7911 164,-453.5 172.2258,-448.5325 181.5752,-444.7983 191.0131,-441.9913"/>
<polygon fill="#191970" stroke="#191970" points="192.0666,-445.3331 200.837,-439.389 190.2741,-438.5664 192.0666,-445.3331"/>
</g>
<!-- Node19 -->
<g id="node19" class="node">
<title>Node19</title>
<g id="a_node19"><a xlink:href="../../d2/db8/classSvtxTrack.html#ac4bf3bd4ecaeff1ca06c48942a8b9236" target="_top" xlink:title="SvtxTrack::get_y">
<polygon fill="none" stroke="#000000" points="201,-384.5 201,-404.5 300,-404.5 300,-384.5 201,-384.5"/>
<text text-anchor="middle" x="250.5" y="-391.5" font-family="FreeSans" font-size="10.00" fill="#000000">SvtxTrack::get_y</text>
</a>
</g>
</g>
<!-- Node1&#45;&gt;Node19 -->
<g id="edge18" class="edge">
<title>Node1&#45;&gt;Node19</title>
<path fill="none" stroke="#191970" d="M69.6245,-553.4078C81.629,-521.5434 112.906,-450.403 164,-414.5 171.956,-408.9095 181.2437,-404.8597 190.7237,-401.9309"/>
<polygon fill="#191970" stroke="#191970" points="191.8775,-405.245 200.6246,-399.2669 190.0587,-398.4854 191.8775,-405.245"/>
</g>
<!-- Node20 -->
<g id="node20" class="node">
<title>Node20</title>
<g id="a_node20"><a xlink:href="../../d3/d9e/classPHG4Hit.html#a06fcf6b2cbcc8413ca3d6a172458e94e" target="_top" xlink:title="PHG4Hit::get_z">
<polygon fill="none" stroke="#000000" points="204.5,-345.5 204.5,-365.5 296.5,-365.5 296.5,-345.5 204.5,-345.5"/>
<text text-anchor="middle" x="250.5" y="-352.5" font-family="FreeSans" font-size="10.00" fill="#000000">PHG4Hit::get_z</text>
</a>
</g>
</g>
<!-- Node1&#45;&gt;Node20 -->
<g id="edge19" class="edge">
<title>Node1&#45;&gt;Node20</title>
<path fill="none" stroke="#191970" d="M67.4724,-553.2396C76.3845,-515.6496 103.7311,-422.3752 164,-375.5 172.7563,-368.6896 183.4256,-364.1278 194.2404,-361.0885"/>
<polygon fill="#191970" stroke="#191970" points="195.2569,-364.4439 204.1625,-358.7044 193.6215,-357.6376 195.2569,-364.4439"/>
</g>
<!-- Node21 -->
<g id="node21" class="node">
<title>Node21</title>
<g id="a_node21"><a xlink:href="../../d2/db8/classSvtxTrack.html#aaaa435dd9d41dbe836f0608712ca12db" target="_top" xlink:title="SvtxTrack::get_z">
<polygon fill="none" stroke="#000000" points="201.5,-306.5 201.5,-326.5 299.5,-326.5 299.5,-306.5 201.5,-306.5"/>
<text text-anchor="middle" x="250.5" y="-313.5" font-family="FreeSans" font-size="10.00" fill="#000000">SvtxTrack::get_z</text>
</a>
</g>
</g>
<!-- Node1&#45;&gt;Node21 -->
<g id="edge20" class="edge">
<title>Node1&#45;&gt;Node21</title>
<path fill="none" stroke="#191970" d="M65.9482,-553.2741C71.9632,-510.6525 94.2595,-394.8023 164,-336.5 171.8049,-329.9752 181.3348,-325.4854 191.1815,-322.415"/>
<polygon fill="#191970" stroke="#191970" points="192.3099,-325.737 201.0816,-319.7949 190.5189,-318.9699 192.3099,-325.737"/>
</g>
<!-- Node22 -->
<g id="node22" class="node">
<title>Node22</title>
<g id="a_node22"><a xlink:href="../../da/d6c/classPHG4TruthInfoContainer.html#a648001d19f469993ee0ff7901273c533" target="_top" xlink:title="Get the Particle Map storage.">
<polygon fill="none" stroke="#000000" points="181,-255.5 181,-287.5 320,-287.5 320,-255.5 181,-255.5"/>
<text text-anchor="start" x="189" y="-274.5" font-family="FreeSans" font-size="10.00" fill="#000000">PHG4TruthInfoContainer</text>
<text text-anchor="middle" x="250.5" y="-262.5" font-family="FreeSans" font-size="10.00" fill="#000000">::GetMap</text>
</a>
</g>
</g>
<!-- Node1&#45;&gt;Node22 -->
<g id="edge21" class="edge">
<title>Node1&#45;&gt;Node22</title>
<path fill="none" stroke="#191970" d="M65.0744,-553.3246C69.0623,-506.5593 87.0708,-369.9233 164,-297.5 166.4548,-295.189 169.1073,-293.0828 171.9071,-291.1633"/>
<polygon fill="#191970" stroke="#191970" points="173.8842,-294.06 180.6978,-285.9467 170.3119,-288.0401 173.8842,-294.06"/>
</g>
<!-- Node23 -->
<g id="node23" class="node">
<title>Node23</title>
<g id="a_node23"><a xlink:href="../../da/d6c/classPHG4TruthInfoContainer.html#a77051a88c6708ed10465eca6b73c2272" target="_top" xlink:title="PHG4TruthInfoContainer\l::GetPrimaryVertexIndex">
<polygon fill="none" stroke="#000000" points="180.5,-204.5 180.5,-236.5 320.5,-236.5 320.5,-204.5 180.5,-204.5"/>
<text text-anchor="start" x="188.5" y="-223.5" font-family="FreeSans" font-size="10.00" fill="#000000">PHG4TruthInfoContainer</text>
<text text-anchor="middle" x="250.5" y="-211.5" font-family="FreeSans" font-size="10.00" fill="#000000">::GetPrimaryVertexIndex</text>
</a>
</g>
</g>
<!-- Node1&#45;&gt;Node23 -->
<g id="edge22" class="edge">
<title>Node1&#45;&gt;Node23</title>
<path fill="none" stroke="#191970" d="M66.9529,-553.2405C77.9968,-494.1027 118.5691,-291.5576 164,-246.5 166.3938,-244.1259 168.9956,-241.9672 171.7536,-240.0044"/>
<polygon fill="#191970" stroke="#191970" points="173.7428,-242.8905 180.4445,-234.6846 170.0882,-236.9202 173.7428,-242.8905"/>
</g>
<!-- Node26 -->
<g id="node26" class="node">
<title>Node26</title>
<g id="a_node26"><a xlink:href="../../da/d6c/classPHG4TruthInfoContainer.html#acf130130dd475251d67c0f04c0e9cc49" target="_top" xlink:title="PHG4TruthInfoContainer\l::GetPrimaryVtx">
<polygon fill="none" stroke="#000000" points="181,-153.5 181,-185.5 320,-185.5 320,-153.5 181,-153.5"/>
<text text-anchor="start" x="189" y="-172.5" font-family="FreeSans" font-size="10.00" fill="#000000">PHG4TruthInfoContainer</text>
<text text-anchor="middle" x="250.5" y="-160.5" font-family="FreeSans" font-size="10.00" fill="#000000">::GetPrimaryVtx</text>
</a>
</g>
</g>
<!-- Node1&#45;&gt;Node26 -->
<g id="edge25" class="edge">
<title>Node1&#45;&gt;Node26</title>
<path fill="none" stroke="#191970" d="M66.1972,-553.4289C75.337,-488.8039 112.2969,-248.8163 164,-195.5 166.4767,-192.946 169.1938,-190.6405 172.0892,-188.5595"/>
<polygon fill="#191970" stroke="#191970" points="173.9943,-191.4967 180.6697,-183.2693 170.3206,-185.5382 173.9943,-191.4967"/>
</g>
<!-- Node27 -->
<g id="node27" class="node">
<title>Node27</title>
<g id="a_node27"><a xlink:href="../../da/d6c/classPHG4TruthInfoContainer.html#a5f3f30ff74c7397069c6f0041849b53c" target="_top" xlink:title="PHG4TruthInfoContainer\l::GetVtx">
<polygon fill="none" stroke="#000000" points="181,-102.5 181,-134.5 320,-134.5 320,-102.5 181,-102.5"/>
<text text-anchor="start" x="189" y="-121.5" font-family="FreeSans" font-size="10.00" fill="#000000">PHG4TruthInfoContainer</text>
<text text-anchor="middle" x="250.5" y="-109.5" font-family="FreeSans" font-size="10.00" fill="#000000">::GetVtx</text>
</a>
</g>
</g>
<!-- Node1&#45;&gt;Node27 -->
<g id="edge26" class="edge">
<title>Node1&#45;&gt;Node27</title>
<path fill="none" stroke="#191970" d="M65.6695,-553.2028C73.1883,-482.8612 106.0848,-206.054 164,-144.5 166.4933,-141.8501 169.2452,-139.4669 172.1884,-137.3239"/>
<polygon fill="#191970" stroke="#191970" points="174.2811,-140.1445 180.9334,-131.8984 170.5907,-134.1963 174.2811,-140.1445"/>
</g>
<!-- Node28 -->
<g id="node28" class="node">
<title>Node28</title>
<g id="a_node28"><a xlink:href="../../d5/de8/classRecursiveMomentumContainer.html#a7b4810e7bcbc9a92e2ebf76df3067182" target="_top" xlink:title="RecursiveMomentumContainer\l::insert">
<polygon fill="none" stroke="#000000" points="164,-51.5 164,-83.5 337,-83.5 337,-51.5 164,-51.5"/>
<text text-anchor="start" x="172" y="-70.5" font-family="FreeSans" font-size="10.00" fill="#000000">RecursiveMomentumContainer</text>
<text text-anchor="middle" x="250.5" y="-58.5" font-family="FreeSans" font-size="10.00" fill="#000000">::insert</text>
</a>
</g>
</g>
<!-- Node1&#45;&gt;Node28 -->
<g id="edge27" class="edge">
<title>Node1&#45;&gt;Node28</title>
<path fill="none" stroke="#191970" d="M65.217,-553.3285C71.1889,-478.1432 99.7378,-163.4645 164,-93.5 165.2033,-92.1899 166.4698,-90.9449 167.7915,-89.7617"/>
<polygon fill="#191970" stroke="#191970" points="170.0331,-92.455 175.9101,-83.6396 165.8185,-86.866 170.0331,-92.455"/>
</g>
<!-- Node29 -->
<g id="node29" class="node">
<title>Node29</title>
<g id="a_node29"><a xlink:href="../../d5/de8/classRecursiveMomentumContainer.html#a7f795b7d410cca7d075ba813ce902366" target="_top" xlink:title="RecursiveMomentumContainer\l::next">
<polygon fill="none" stroke="#000000" points="164,-.5 164,-32.5 337,-32.5 337,-.5 164,-.5"/>
<text text-anchor="start" x="172" y="-19.5" font-family="FreeSans" font-size="10.00" fill="#000000">RecursiveMomentumContainer</text>
<text text-anchor="middle" x="250.5" y="-7.5" font-family="FreeSans" font-size="10.00" fill="#000000">::next</text>
</a>
</g>
</g>
<!-- Node1&#45;&gt;Node29 -->
<g id="edge28" class="edge">
<title>Node1&#45;&gt;Node29</title>
<path fill="none" stroke="#191970" d="M64.866,-553.2407C69.4525,-473.102 93.4202,-120.8666 164,-42.5 165.1904,-41.1782 166.4452,-39.9225 167.7563,-38.7297"/>
<polygon fill="#191970" stroke="#191970" points="170.0056,-41.4158 175.8249,-32.5621 165.7546,-35.8544 170.0056,-41.4158"/>
</g>
<!-- Node24 -->
<g id="node24" class="node">
<title>Node24</title>
<g id="a_node24"><a xlink:href="../../da/d6c/classPHG4TruthInfoContainer.html#a53587ae22361008bcee4c51cc1d8d242" target="_top" xlink:title="PHG4TruthInfoContainer\l::GetPrimaryVtxRange">
<polygon fill="none" stroke="#000000" points="373,-229.5 373,-261.5 512,-261.5 512,-229.5 373,-229.5"/>
<text text-anchor="start" x="381" y="-248.5" font-family="FreeSans" font-size="10.00" fill="#000000">PHG4TruthInfoContainer</text>
<text text-anchor="middle" x="442.5" y="-236.5" font-family="FreeSans" font-size="10.00" fill="#000000">::GetPrimaryVtxRange</text>
</a>
</g>
</g>
<!-- Node23&#45;&gt;Node24 -->
<g id="edge23" class="edge">
<title>Node23&#45;&gt;Node24</title>
<path fill="none" stroke="#191970" d="M320.6314,-229.6317C334.3374,-231.4163 348.8036,-233.2999 362.7942,-235.1216"/>
<polygon fill="#191970" stroke="#191970" points="362.5115,-238.6143 372.8798,-236.4349 363.4154,-231.6729 362.5115,-238.6143"/>
</g>
<!-- Node25 -->
<g id="node25" class="node">
<title>Node25</title>
<g id="a_node25"><a xlink:href="../../da/d6c/classPHG4TruthInfoContainer.html#a434c7528ce4a7f089bb4aaeb613af2ff" target="_top" xlink:title="PHG4TruthInfoContainer\l::isEmbededVtx">
<polygon fill="none" stroke="#000000" points="373,-178.5 373,-210.5 512,-210.5 512,-178.5 373,-178.5"/>
<text text-anchor="start" x="381" y="-197.5" font-family="FreeSans" font-size="10.00" fill="#000000">PHG4TruthInfoContainer</text>
<text text-anchor="middle" x="442.5" y="-185.5" font-family="FreeSans" font-size="10.00" fill="#000000">::isEmbededVtx</text>
</a>
</g>
</g>
<!-- Node23&#45;&gt;Node25 -->
<g id="edge24" class="edge">
<title>Node23&#45;&gt;Node25</title>
<path fill="none" stroke="#191970" d="M320.6314,-211.003C334.3374,-209.147 348.8036,-207.1881 362.7942,-205.2935"/>
<polygon fill="#191970" stroke="#191970" points="363.4399,-208.7381 372.8798,-203.9277 362.5005,-201.8014 363.4399,-208.7381"/>
</g>
</g>
</svg>
