<?xml version="1.0" encoding="UTF-8" standalone="no"?>
<!DOCTYPE svg PUBLIC "-//W3C//DTD SVG 1.1//EN"
 "http://www.w3.org/Graphics/SVG/1.1/DTD/svg11.dtd">
<!-- Generated by graphviz version 2.40.1 (20161225.0304)
 -->
<!-- Title: make_piston Pages: 1 -->
<svg width="298pt" height="437pt"
 viewBox="0.00 0.00 298.00 437.00" xmlns="http://www.w3.org/2000/svg" xmlns:xlink="http://www.w3.org/1999/xlink">
<g id="graph0" class="graph" transform="scale(1 1) rotate(0) translate(4 433)">
<title>make_piston</title>
<!-- Node1 -->
<g id="node1" class="node">
<title>Node1</title>
<polygon fill="#bfbfbf" stroke="#000000" points="0,-210.5 0,-230.5 80,-230.5 80,-210.5 0,-210.5"/>
<text text-anchor="middle" x="40" y="-217.5" font-family="FreeSans" font-size="10.00" fill="#000000">make_piston</text>
</g>
<!-- Node2 -->
<g id="node2" class="node">
<title>Node2</title>
<g id="a_node2"><a xlink:href="../../d9/de6/classPHG4Sector_1_1Sector__Geometry.html#a620e565f65b2db15edd2a7280d358afa" target="_top" xlink:title="Pseudorapidity.">
<polygon fill="none" stroke="#000000" points="116,-396.5 116,-428.5 290,-428.5 290,-396.5 116,-396.5"/>
<text text-anchor="start" x="124" y="-415.5" font-family="FreeSans" font-size="10.00" fill="#000000">PHG4Sector::Sector</text>
<text text-anchor="middle" x="203" y="-403.5" font-family="FreeSans" font-size="10.00" fill="#000000">_Geometry::eta_to_polar_angle</text>
</a>
</g>
</g>
<!-- Node1&#45;&gt;Node2 -->
<g id="edge1" class="edge">
<title>Node1&#45;&gt;Node2</title>
<path fill="none" stroke="#191970" d="M41.5734,-230.5061C46.6554,-259.4213 65.3474,-343.8067 116,-387.5 117.3499,-388.6644 118.751,-389.7747 120.1961,-390.8335"/>
<polygon fill="#191970" stroke="#191970" points="118.5831,-393.9549 128.9036,-396.3503 122.3295,-388.0418 118.5831,-393.9549"/>
</g>
<!-- Node3 -->
<g id="node3" class="node">
<title>Node3</title>
<g id="a_node3"><a xlink:href="../../d5/d29/classPHG4DetectorSubsystem.html#a5a52f44370d90e92bfb3ed0abf6dbb76" target="_top" xlink:title="PHG4DetectorSubsystem\l::OverlapCheck">
<polygon fill="none" stroke="#000000" points="131,-345.5 131,-377.5 275,-377.5 275,-345.5 131,-345.5"/>
<text text-anchor="start" x="139" y="-364.5" font-family="FreeSans" font-size="10.00" fill="#000000">PHG4DetectorSubsystem</text>
<text text-anchor="middle" x="203" y="-352.5" font-family="FreeSans" font-size="10.00" fill="#000000">::OverlapCheck</text>
</a>
</g>
</g>
<!-- Node1&#45;&gt;Node3 -->
<g id="edge2" class="edge">
<title>Node1&#45;&gt;Node3</title>
<path fill="none" stroke="#191970" d="M43.7553,-230.6218C52.6568,-253.1977 77.2424,-307.9251 116,-336.5 118.0476,-338.0096 120.1841,-339.4283 122.3901,-340.7615"/>
<polygon fill="#191970" stroke="#191970" points="120.7358,-343.8458 131.202,-345.4914 124.0464,-337.6781 120.7358,-343.8458"/>
</g>
<!-- Node4 -->
<g id="node4" class="node">
<title>Node4</title>
<g id="a_node4"><a xlink:href="../../d0/d78/classPHG4Reco.html#abc0956c0994a72d5a817b69511e1456b" target="_top" xlink:title="register subsystem">
<polygon fill="none" stroke="#000000" points="118,-306.5 118,-326.5 288,-326.5 288,-306.5 118,-306.5"/>
<text text-anchor="middle" x="203" y="-313.5" font-family="FreeSans" font-size="10.00" fill="#000000">PHG4Reco::registerSubsystem</text>
</a>
</g>
</g>
<!-- Node1&#45;&gt;Node4 -->
<g id="edge3" class="edge">
<title>Node1&#45;&gt;Node4</title>
<path fill="none" stroke="#191970" d="M46.8822,-230.5727C58.863,-247.2788 85.2344,-280.5536 116,-297.5 119.7324,-299.5559 123.6697,-301.3894 127.7243,-303.0244"/>
<polygon fill="#191970" stroke="#191970" points="126.7627,-306.3981 137.3572,-306.4909 129.133,-299.8116 126.7627,-306.3981"/>
</g>
<!-- Node5 -->
<g id="node5" class="node">
<title>Node5</title>
<g id="a_node5"><a xlink:href="../../d5/d29/classPHG4DetectorSubsystem.html#a48e75fd1738dab9d0d66b174053ead8f" target="_top" xlink:title="PHG4DetectorSubsystem\l::set_double_param">
<polygon fill="none" stroke="#000000" points="131,-255.5 131,-287.5 275,-287.5 275,-255.5 131,-255.5"/>
<text text-anchor="start" x="139" y="-274.5" font-family="FreeSans" font-size="10.00" fill="#000000">PHG4DetectorSubsystem</text>
<text text-anchor="middle" x="203" y="-262.5" font-family="FreeSans" font-size="10.00" fill="#000000">::set_double_param</text>
</a>
</g>
</g>
<!-- Node1&#45;&gt;Node5 -->
<g id="edge4" class="edge">
<title>Node1&#45;&gt;Node5</title>
<path fill="none" stroke="#191970" d="M68.4002,-230.5911C82.6346,-235.553 100.1697,-241.5211 116,-246.5 122.4463,-248.5275 129.1816,-250.5792 135.927,-252.5898"/>
<polygon fill="#191970" stroke="#191970" points="135.2027,-256.0252 145.7845,-255.4985 137.1839,-249.3114 135.2027,-256.0252"/>
</g>
<!-- Node6 -->
<g id="node6" class="node">
<title>Node6</title>
<g id="a_node6"><a xlink:href="../../d5/d29/classPHG4DetectorSubsystem.html#a9c64b70e82272ef90f285ecaef1e50b4" target="_top" xlink:title="PHG4DetectorSubsystem\l::set_int_param">
<polygon fill="none" stroke="#000000" points="131,-204.5 131,-236.5 275,-236.5 275,-204.5 131,-204.5"/>
<text text-anchor="start" x="139" y="-223.5" font-family="FreeSans" font-size="10.00" fill="#000000">PHG4DetectorSubsystem</text>
<text text-anchor="middle" x="203" y="-211.5" font-family="FreeSans" font-size="10.00" fill="#000000">::set_int_param</text>
</a>
</g>
</g>
<!-- Node1&#45;&gt;Node6 -->
<g id="edge5" class="edge">
<title>Node1&#45;&gt;Node6</title>
<path fill="none" stroke="#191970" d="M80.2921,-220.5C92.5818,-220.5 106.568,-220.5 120.59,-220.5"/>
<polygon fill="#191970" stroke="#191970" points="120.7829,-224.0001 130.7829,-220.5 120.7828,-217.0001 120.7829,-224.0001"/>
</g>
<!-- Node7 -->
<g id="node7" class="node">
<title>Node7</title>
<g id="a_node7"><a xlink:href="../../d5/d29/classPHG4DetectorSubsystem.html#a82c122f8a80f34dc4ffba6675ce60c75" target="_top" xlink:title="PHG4DetectorSubsystem\l::set_string_param">
<polygon fill="none" stroke="#000000" points="131,-153.5 131,-185.5 275,-185.5 275,-153.5 131,-153.5"/>
<text text-anchor="start" x="139" y="-172.5" font-family="FreeSans" font-size="10.00" fill="#000000">PHG4DetectorSubsystem</text>
<text text-anchor="middle" x="203" y="-160.5" font-family="FreeSans" font-size="10.00" fill="#000000">::set_string_param</text>
</a>
</g>
</g>
<!-- Node1&#45;&gt;Node7 -->
<g id="edge6" class="edge">
<title>Node1&#45;&gt;Node7</title>
<path fill="none" stroke="#191970" d="M69.899,-210.4552C83.875,-205.8137 100.7594,-200.283 116,-195.5 123.2972,-193.2099 130.9532,-190.854 138.5699,-188.5395"/>
<polygon fill="#191970" stroke="#191970" points="139.6077,-191.8823 148.1669,-185.638 137.5818,-185.1818 139.6077,-191.8823"/>
</g>
<!-- Node8 -->
<g id="node8" class="node">
<title>Node8</title>
<g id="a_node8"><a xlink:href="../../d5/d29/classPHG4DetectorSubsystem.html#a06d7265cdb191528ced9e78e73ba0f0a" target="_top" xlink:title="PHG4DetectorSubsystem\l::SetActive">
<polygon fill="none" stroke="#000000" points="131,-102.5 131,-134.5 275,-134.5 275,-102.5 131,-102.5"/>
<text text-anchor="start" x="139" y="-121.5" font-family="FreeSans" font-size="10.00" fill="#000000">PHG4DetectorSubsystem</text>
<text text-anchor="middle" x="203" y="-109.5" font-family="FreeSans" font-size="10.00" fill="#000000">::SetActive</text>
</a>
</g>
</g>
<!-- Node1&#45;&gt;Node8 -->
<g id="edge7" class="edge">
<title>Node1&#45;&gt;Node8</title>
<path fill="none" stroke="#191970" d="M47.454,-210.2862C59.8662,-193.9999 86.3542,-162.186 116,-144.5 119.5791,-142.3648 123.3469,-140.3933 127.2261,-138.5744"/>
<polygon fill="#191970" stroke="#191970" points="128.6452,-141.7741 136.4437,-134.6024 125.8749,-135.3456 128.6452,-141.7741"/>
</g>
<!-- Node9 -->
<g id="node9" class="node">
<title>Node9</title>
<g id="a_node9"><a xlink:href="../../d5/d29/classPHG4DetectorSubsystem.html#aa0c11d415a70a207a3ea851b28932dfd" target="_top" xlink:title="PHG4DetectorSubsystem\l::SuperDetector">
<polygon fill="none" stroke="#000000" points="131,-51.5 131,-83.5 275,-83.5 275,-51.5 131,-51.5"/>
<text text-anchor="start" x="139" y="-70.5" font-family="FreeSans" font-size="10.00" fill="#000000">PHG4DetectorSubsystem</text>
<text text-anchor="middle" x="203" y="-58.5" font-family="FreeSans" font-size="10.00" fill="#000000">::SuperDetector</text>
</a>
</g>
</g>
<!-- Node1&#45;&gt;Node9 -->
<g id="edge8" class="edge">
<title>Node1&#45;&gt;Node9</title>
<path fill="none" stroke="#191970" d="M43.2489,-210.1847C51.3955,-186.0149 75.0271,-125.3629 116,-93.5 118.3333,-91.6855 120.7915,-89.9973 123.3438,-88.4267"/>
<polygon fill="#191970" stroke="#191970" points="125.2319,-91.3838 132.3394,-83.5267 121.8834,-85.2366 125.2319,-91.3838"/>
</g>
<!-- Node10 -->
<g id="node10" class="node">
<title>Node10</title>
<g id="a_node10"><a xlink:href="../../d8/d6e/classPHG4ConeSubsystem.html#aa05fefa9a9e80a860a1c5611529db005" target="_top" xlink:title="PHG4ConeSubsystem::\lSuperDetector">
<polygon fill="none" stroke="#000000" points="137,-.5 137,-32.5 269,-32.5 269,-.5 137,-.5"/>
<text text-anchor="start" x="145" y="-19.5" font-family="FreeSans" font-size="10.00" fill="#000000">PHG4ConeSubsystem::</text>
<text text-anchor="middle" x="203" y="-7.5" font-family="FreeSans" font-size="10.00" fill="#000000">SuperDetector</text>
</a>
</g>
</g>
<!-- Node1&#45;&gt;Node10 -->
<g id="edge9" class="edge">
<title>Node1&#45;&gt;Node10</title>
<path fill="none" stroke="#191970" d="M41.3169,-210.3106C45.7771,-180.0223 63.1122,-89.719 116,-42.5 119.6307,-39.2584 123.6511,-36.4206 127.9144,-33.9362"/>
<polygon fill="#191970" stroke="#191970" points="129.6455,-36.9823 136.9595,-29.3171 126.4618,-30.7481 129.6455,-36.9823"/>
</g>
</g>
</svg>
