<?xml version="1.0" encoding="UTF-8" standalone="no"?>
<!DOCTYPE svg PUBLIC "-//W3C//DTD SVG 1.1//EN"
 "http://www.w3.org/Graphics/SVG/1.1/DTD/svg11.dtd">
<!-- Generated by graphviz version 2.40.1 (20161225.0304)
 -->
<!-- Title: coresoftware/blob/master/offline/QA/modules/QAHistManagerDef.h Pages: 1 -->
<svg width="874pt" height="122pt"
 viewBox="0.00 0.00 874.00 122.00" xmlns="http://www.w3.org/2000/svg" xmlns:xlink="http://www.w3.org/1999/xlink">
<g id="graph0" class="graph" transform="scale(1 1) rotate(0) translate(4 118)">
<title>coresoftware/blob/master/offline/QA/modules/QAHistManagerDef.h</title>
<!-- Node1 -->
<g id="node1" class="node">
<title>Node1</title>
<polygon fill="#bfbfbf" stroke="#000000" points="322,-81.5 322,-113.5 548,-113.5 548,-81.5 322,-81.5"/>
<text text-anchor="start" x="330" y="-100.5" font-family="FreeSans" font-size="10.00" fill="#000000">coresoftware/blob/master</text>
<text text-anchor="middle" x="435" y="-88.5" font-family="FreeSans" font-size="10.00" fill="#000000">/offline/QA/modules/QAHistManagerDef.h</text>
</g>
<!-- Node2 -->
<g id="node2" class="node">
<title>Node2</title>
<g id="a_node2"><a xlink:href="../../da/d1b/QAG4SimulationCalorimeter_8cc.html" target="_top" xlink:title="coresoftware/blob/master\l/offline/QA/modules/QAG4Simulation\lCalorimeter.cc">
<polygon fill="none" stroke="#000000" points="0,-.5 0,-44.5 204,-44.5 204,-.5 0,-.5"/>
<text text-anchor="start" x="8" y="-31.5" font-family="FreeSans" font-size="10.00" fill="#000000">coresoftware/blob/master</text>
<text text-anchor="start" x="8" y="-19.5" font-family="FreeSans" font-size="10.00" fill="#000000">/offline/QA/modules/QAG4Simulation</text>
<text text-anchor="middle" x="102" y="-7.5" font-family="FreeSans" font-size="10.00" fill="#000000">Calorimeter.cc</text>
</a>
</g>
</g>
<!-- Node1&#45;&gt;Node2 -->
<g id="edge1" class="edge">
<title>Node1&#45;&gt;Node2</title>
<path fill="none" stroke="#191970" d="M353.5536,-79.1562C307.159,-68.707 248.7193,-55.5449 199.8468,-44.5376"/>
<polygon fill="#191970" stroke="#191970" points="353.0385,-82.6278 363.5631,-81.4106 354.5766,-75.7989 353.0385,-82.6278"/>
</g>
<!-- Node3 -->
<g id="node3" class="node">
<title>Node3</title>
<g id="a_node3"><a xlink:href="../../d4/d11/QAG4SimulationCalorimeterSum_8cc.html" target="_top" xlink:title="coresoftware/blob/master\l/offline/QA/modules/QAG4Simulation\lCalorimeterSum.cc">
<polygon fill="none" stroke="#000000" points="222,-.5 222,-44.5 426,-44.5 426,-.5 222,-.5"/>
<text text-anchor="start" x="230" y="-31.5" font-family="FreeSans" font-size="10.00" fill="#000000">coresoftware/blob/master</text>
<text text-anchor="start" x="230" y="-19.5" font-family="FreeSans" font-size="10.00" fill="#000000">/offline/QA/modules/QAG4Simulation</text>
<text text-anchor="middle" x="324" y="-7.5" font-family="FreeSans" font-size="10.00" fill="#000000">CalorimeterSum.cc</text>
</a>
</g>
</g>
<!-- Node1&#45;&gt;Node3 -->
<g id="edge2" class="edge">
<title>Node1&#45;&gt;Node3</title>
<path fill="none" stroke="#191970" d="M402.5574,-75.5793C388.0968,-65.8087 371.0963,-54.3219 356.6156,-44.5376"/>
<polygon fill="#191970" stroke="#191970" points="400.9423,-78.7121 411.1877,-81.4106 404.8613,-72.9119 400.9423,-78.7121"/>
</g>
<!-- Node4 -->
<g id="node4" class="node">
<title>Node4</title>
<g id="a_node4"><a xlink:href="../../d3/d23/QAG4SimulationJet_8cc.html" target="_top" xlink:title="coresoftware/blob/master\l/offline/QA/modules/QAG4Simulation\lJet.cc">
<polygon fill="none" stroke="#000000" points="444,-.5 444,-44.5 648,-44.5 648,-.5 444,-.5"/>
<text text-anchor="start" x="452" y="-31.5" font-family="FreeSans" font-size="10.00" fill="#000000">coresoftware/blob/master</text>
<text text-anchor="start" x="452" y="-19.5" font-family="FreeSans" font-size="10.00" fill="#000000">/offline/QA/modules/QAG4Simulation</text>
<text text-anchor="middle" x="546" y="-7.5" font-family="FreeSans" font-size="10.00" fill="#000000">Jet.cc</text>
</a>
</g>
</g>
<!-- Node1&#45;&gt;Node4 -->
<g id="edge3" class="edge">
<title>Node1&#45;&gt;Node4</title>
<path fill="none" stroke="#191970" d="M467.4426,-75.5793C481.9032,-65.8087 498.9037,-54.3219 513.3844,-44.5376"/>
<polygon fill="#191970" stroke="#191970" points="465.1387,-72.9119 458.8123,-81.4106 469.0577,-78.7121 465.1387,-72.9119"/>
</g>
<!-- Node5 -->
<g id="node5" class="node">
<title>Node5</title>
<g id="a_node5"><a xlink:href="../../d4/dd8/QAHistManagerDef_8cc.html" target="_top" xlink:title="coresoftware/blob/master\l/offline/QA/modules/QAHistManager\lDef.cc">
<polygon fill="none" stroke="#000000" points="666,-.5 666,-44.5 866,-44.5 866,-.5 666,-.5"/>
<text text-anchor="start" x="674" y="-31.5" font-family="FreeSans" font-size="10.00" fill="#000000">coresoftware/blob/master</text>
<text text-anchor="start" x="674" y="-19.5" font-family="FreeSans" font-size="10.00" fill="#000000">/offline/QA/modules/QAHistManager</text>
<text text-anchor="middle" x="766" y="-7.5" font-family="FreeSans" font-size="10.00" fill="#000000">Def.cc</text>
</a>
</g>
</g>
<!-- Node1&#45;&gt;Node5 -->
<g id="edge4" class="edge">
<title>Node1&#45;&gt;Node5</title>
<path fill="none" stroke="#191970" d="M515.9572,-79.1562C562.0732,-68.707 620.1619,-55.5449 668.7409,-44.5376"/>
<polygon fill="#191970" stroke="#191970" points="514.9871,-75.7872 506.0078,-81.4106 516.5341,-82.6142 514.9871,-75.7872"/>
</g>
</g>
</svg>
