<?xml version="1.0" encoding="UTF-8" standalone="no"?>
<!DOCTYPE svg PUBLIC "-//W3C//DTD SVG 1.1//EN"
 "http://www.w3.org/Graphics/SVG/1.1/DTD/svg11.dtd">
<!-- Generated by graphviz version 2.40.1 (20161225.0304)
 -->
<!-- Title: coresoftware/blob/master/simulation/g4simulation/g4mvtx/PHG4MvtxSteppingAction.h Pages: 1 -->
<svg width="209pt" height="167pt"
 viewBox="0.00 0.00 209.00 167.00" xmlns="http://www.w3.org/2000/svg" xmlns:xlink="http://www.w3.org/1999/xlink">
<g id="graph0" class="graph" transform="scale(1 1) rotate(0) translate(4 163)">
<title>coresoftware/blob/master/simulation/g4simulation/g4mvtx/PHG4MvtxSteppingAction.h</title>
<!-- Node1 -->
<g id="node1" class="node">
<title>Node1</title>
<polygon fill="#bfbfbf" stroke="#000000" points="0,-114.5 0,-158.5 201,-158.5 201,-114.5 0,-114.5"/>
<text text-anchor="start" x="8" y="-145.5" font-family="FreeSans" font-size="10.00" fill="#000000">coresoftware/blob/master</text>
<text text-anchor="start" x="8" y="-133.5" font-family="FreeSans" font-size="10.00" fill="#000000">/simulation/g4simulation</text>
<text text-anchor="middle" x="100.5" y="-121.5" font-family="FreeSans" font-size="10.00" fill="#000000">/g4mvtx/PHG4MvtxSteppingAction.h</text>
</g>
<!-- Node2 -->
<g id="node2" class="node">
<title>Node2</title>
<g id="a_node2"><a xlink:href="../../d0/d55/PHG4SteppingAction_8h.html" target="_top" xlink:title="g4main/PHG4SteppingAction.h">
<polygon fill="none" stroke="#000000" points="14.5,-57.5 14.5,-77.5 186.5,-77.5 186.5,-57.5 14.5,-57.5"/>
<text text-anchor="middle" x="100.5" y="-64.5" font-family="FreeSans" font-size="10.00" fill="#000000">g4main/PHG4SteppingAction.h</text>
</a>
</g>
</g>
<!-- Node1&#45;&gt;Node2 -->
<g id="edge1" class="edge">
<title>Node1&#45;&gt;Node2</title>
<path fill="none" stroke="#191970" d="M100.5,-114.2882C100.5,-105.8377 100.5,-96.2557 100.5,-87.9736"/>
<polygon fill="#191970" stroke="#191970" points="104.0001,-87.7136 100.5,-77.7137 97.0001,-87.7137 104.0001,-87.7136"/>
</g>
<!-- Node3 -->
<g id="node3" class="node">
<title>Node3</title>
<polygon fill="none" stroke="#bfbfbf" points="56.5,-.5 56.5,-20.5 88.5,-20.5 88.5,-.5 56.5,-.5"/>
<text text-anchor="middle" x="72.5" y="-7.5" font-family="FreeSans" font-size="10.00" fill="#000000">set</text>
</g>
<!-- Node2&#45;&gt;Node3 -->
<g id="edge2" class="edge">
<title>Node2&#45;&gt;Node3</title>
<path fill="none" stroke="#191970" d="M95.4942,-57.3095C91.7514,-49.6903 86.5213,-39.0435 81.9947,-29.8285"/>
<polygon fill="#191970" stroke="#191970" points="85.013,-28.0346 77.4625,-20.6022 78.7302,-31.121 85.013,-28.0346"/>
</g>
<!-- Node4 -->
<g id="node4" class="node">
<title>Node4</title>
<polygon fill="none" stroke="#bfbfbf" points="107,-.5 107,-20.5 152,-20.5 152,-.5 107,-.5"/>
<text text-anchor="middle" x="129.5" y="-7.5" font-family="FreeSans" font-size="10.00" fill="#000000">string</text>
</g>
<!-- Node2&#45;&gt;Node4 -->
<g id="edge3" class="edge">
<title>Node2&#45;&gt;Node4</title>
<path fill="none" stroke="#191970" d="M105.6846,-57.3095C109.6023,-49.6093 115.0933,-38.8166 119.8156,-29.5349"/>
<polygon fill="#191970" stroke="#191970" points="122.9451,-31.1021 124.3603,-20.6022 116.7062,-27.9279 122.9451,-31.1021"/>
</g>
</g>
</svg>
