<?xml version="1.0" encoding="UTF-8" standalone="no"?>
<!DOCTYPE svg PUBLIC "-//W3C//DTD SVG 1.1//EN"
 "http://www.w3.org/Graphics/SVG/1.1/DTD/svg11.dtd">
<!-- Generated by graphviz version 2.40.1 (20161225.0304)
 -->
<!-- Title: PHGenIntegral::get_CrossSection_Generator_Accepted_Event Pages: 1 -->
<svg width="361pt" height="92pt"
 viewBox="0.00 0.00 361.00 92.00" xmlns="http://www.w3.org/2000/svg" xmlns:xlink="http://www.w3.org/1999/xlink">
<g id="graph0" class="graph" transform="scale(1 1) rotate(0) translate(4 88)">
<title>PHGenIntegral::get_CrossSection_Generator_Accepted_Event</title>
<!-- Node1 -->
<g id="node1" class="node">
<title>Node1</title>
<polygon fill="#bfbfbf" stroke="#000000" points="0,-19.5 0,-63.5 144,-63.5 144,-19.5 0,-19.5"/>
<text text-anchor="start" x="8" y="-50.5" font-family="FreeSans" font-size="10.00" fill="#000000">PHGenIntegral::get</text>
<text text-anchor="start" x="8" y="-38.5" font-family="FreeSans" font-size="10.00" fill="#000000">_CrossSection_Generator</text>
<text text-anchor="middle" x="72" y="-26.5" font-family="FreeSans" font-size="10.00" fill="#000000">_Accepted_Event</text>
</g>
<!-- Node2 -->
<g id="node2" class="node">
<title>Node2</title>
<g id="a_node2"><a xlink:href="../../d8/d0e/classPHGenIntegral.html#a602ff4dfd24221ca9cbb86e69c2f8d38" target="_top" xlink:title="Integrated luminosity in pb^&#45;1.">
<polygon fill="none" stroke="#000000" points="210,-51.5 210,-83.5 323,-83.5 323,-51.5 210,-51.5"/>
<text text-anchor="start" x="218" y="-70.5" font-family="FreeSans" font-size="10.00" fill="#000000">PHGenIntegral::get</text>
<text text-anchor="middle" x="266.5" y="-58.5" font-family="FreeSans" font-size="10.00" fill="#000000">_Integrated_Lumi</text>
</a>
</g>
</g>
<!-- Node1&#45;&gt;Node2 -->
<g id="edge1" class="edge">
<title>Node1&#45;&gt;Node2</title>
<path fill="none" stroke="#191970" d="M144.1482,-51.1445C162.3983,-53.5841 181.9143,-56.1929 199.8777,-58.5942"/>
<polygon fill="#191970" stroke="#191970" points="199.5898,-62.0868 209.9654,-59.9427 200.5174,-55.1485 199.5898,-62.0868"/>
</g>
<!-- Node3 -->
<g id="node3" class="node">
<title>Node3</title>
<g id="a_node3"><a xlink:href="../../d8/d0e/classPHGenIntegral.html#ab423bef5cb65ec50c9e5dc8d24cf5adc" target="_top" xlink:title="Number of accepted events in the event generator. This can be higher than fNProcessedEvent depending ...">
<polygon fill="none" stroke="#000000" points="180,-.5 180,-32.5 353,-32.5 353,-.5 180,-.5"/>
<text text-anchor="start" x="188" y="-19.5" font-family="FreeSans" font-size="10.00" fill="#000000">PHGenIntegral::get</text>
<text text-anchor="middle" x="266.5" y="-7.5" font-family="FreeSans" font-size="10.00" fill="#000000">_N_Generator_Accepted_Event</text>
</a>
</g>
</g>
<!-- Node1&#45;&gt;Node3 -->
<g id="edge2" class="edge">
<title>Node1&#45;&gt;Node3</title>
<path fill="none" stroke="#191970" d="M144.1482,-32.2264C152.5403,-31.1478 161.2001,-30.0347 169.8536,-28.9224"/>
<polygon fill="#191970" stroke="#191970" points="170.5204,-32.3656 179.9926,-27.6192 169.6279,-25.4227 170.5204,-32.3656"/>
</g>
</g>
</svg>
