<?xml version="1.0" encoding="UTF-8" standalone="no"?>
<!DOCTYPE svg PUBLIC "-//W3C//DTD SVG 1.1//EN"
 "http://www.w3.org/Graphics/SVG/1.1/DTD/svg11.dtd">
<!-- Generated by graphviz version 2.40.1 (20161225.0304)
 -->
<!-- Title: SvtxTrack_v1::set_charge Pages: 1 -->
<svg width="539pt" height="194pt"
 viewBox="0.00 0.00 539.00 194.00" xmlns="http://www.w3.org/2000/svg" xmlns:xlink="http://www.w3.org/1999/xlink">
<g id="graph0" class="graph" transform="scale(1 1) rotate(0) translate(4 190)">
<title>SvtxTrack_v1::set_charge</title>
<!-- Node1 -->
<g id="node1" class="node">
<title>Node1</title>
<polygon fill="#bfbfbf" stroke="#000000" points="0,-82.5 0,-102.5 144,-102.5 144,-82.5 0,-82.5"/>
<text text-anchor="middle" x="72" y="-89.5" font-family="FreeSans" font-size="10.00" fill="#000000">SvtxTrack_v1::set_charge</text>
</g>
<!-- Node2 -->
<g id="node2" class="node">
<title>Node2</title>
<g id="a_node2"><a xlink:href="../../d2/d8f/classPHInitZVertexing.html#a8be961e889654346a4d4435896e5d0e0" target="_top" xlink:title="PHInitZVertexing::export\l_output">
<polygon fill="none" stroke="#000000" points="192.5,-153.5 192.5,-185.5 333.5,-185.5 333.5,-153.5 192.5,-153.5"/>
<text text-anchor="start" x="200.5" y="-172.5" font-family="FreeSans" font-size="10.00" fill="#000000">PHInitZVertexing::export</text>
<text text-anchor="middle" x="263" y="-160.5" font-family="FreeSans" font-size="10.00" fill="#000000">_output</text>
</a>
</g>
</g>
<!-- Node1&#45;&gt;Node2 -->
<g id="edge1" class="edge">
<title>Node1&#45;&gt;Node2</title>
<path fill="none" stroke="#191970" d="M99.6198,-107.2783C121.1315,-118.4231 151.9516,-133.6003 180,-144.5 188.1358,-147.6616 196.8455,-150.6739 205.4515,-153.4422"/>
<polygon fill="#191970" stroke="#191970" points="101.2037,-104.1569 90.7205,-102.6225 97.9587,-110.3594 101.2037,-104.1569"/>
</g>
<!-- Node4 -->
<g id="node4" class="node">
<title>Node4</title>
<g id="a_node4"><a xlink:href="../../d1/d97/classPHPatternReco.html#a6549c8bd552acd725fc0e611560c53c7" target="_top" xlink:title="PHPatternReco::export\l_output">
<polygon fill="none" stroke="#000000" points="198,-102.5 198,-134.5 328,-134.5 328,-102.5 198,-102.5"/>
<text text-anchor="start" x="206" y="-121.5" font-family="FreeSans" font-size="10.00" fill="#000000">PHPatternReco::export</text>
<text text-anchor="middle" x="263" y="-109.5" font-family="FreeSans" font-size="10.00" fill="#000000">_output</text>
</a>
</g>
</g>
<!-- Node1&#45;&gt;Node4 -->
<g id="edge3" class="edge">
<title>Node1&#45;&gt;Node4</title>
<path fill="none" stroke="#191970" d="M154.2344,-103.6942C168.8379,-105.6821 183.8635,-107.7275 197.9092,-109.6395"/>
<polygon fill="#191970" stroke="#191970" points="154.5896,-100.2104 144.2089,-102.3295 153.6454,-107.1464 154.5896,-100.2104"/>
</g>
<!-- Node6 -->
<g id="node6" class="node">
<title>Node6</title>
<g id="a_node6"><a xlink:href="../../d8/dd4/classPHHoughSeeding.html#a61550a59cd3a34af03c43572e28274cb" target="_top" xlink:title="code to translate back to the SVTX universe">
<polygon fill="none" stroke="#000000" points="191,-51.5 191,-83.5 335,-83.5 335,-51.5 191,-51.5"/>
<text text-anchor="start" x="199" y="-70.5" font-family="FreeSans" font-size="10.00" fill="#000000">PHHoughSeeding::export</text>
<text text-anchor="middle" x="263" y="-58.5" font-family="FreeSans" font-size="10.00" fill="#000000">_output</text>
</a>
</g>
</g>
<!-- Node1&#45;&gt;Node6 -->
<g id="edge5" class="edge">
<title>Node1&#45;&gt;Node6</title>
<path fill="none" stroke="#191970" d="M154.2949,-81.7284C166.4038,-80.1435 178.8015,-78.5207 190.689,-76.9648"/>
<polygon fill="#191970" stroke="#191970" points="153.6701,-78.2803 144.2089,-83.0486 154.5786,-85.2211 153.6701,-78.2803"/>
</g>
<!-- Node8 -->
<g id="node8" class="node">
<title>Node8</title>
<g id="a_node8"><a xlink:href="../../d9/d91/classPHG4TrackFastSim.html#a27f5d3e1fcab6a5cc74fda92cd51359f" target="_top" xlink:title="PHG4TrackFastSim::MakeSvtx\lTrack">
<polygon fill="none" stroke="#000000" points="180,-.5 180,-32.5 346,-32.5 346,-.5 180,-.5"/>
<text text-anchor="start" x="188" y="-19.5" font-family="FreeSans" font-size="10.00" fill="#000000">PHG4TrackFastSim::MakeSvtx</text>
<text text-anchor="middle" x="263" y="-7.5" font-family="FreeSans" font-size="10.00" fill="#000000">Track</text>
</a>
</g>
</g>
<!-- Node1&#45;&gt;Node8 -->
<g id="edge7" class="edge">
<title>Node1&#45;&gt;Node8</title>
<path fill="none" stroke="#191970" d="M100.7943,-77.9227C122.3016,-67.3424 152.5884,-53.0871 180,-42.5 189.0151,-39.0181 198.7101,-35.6522 208.1817,-32.5619"/>
<polygon fill="#191970" stroke="#191970" points="98.9741,-74.9186 91.5722,-82.499 102.0857,-81.1891 98.9741,-74.9186"/>
</g>
<!-- Node3 -->
<g id="node3" class="node">
<title>Node3</title>
<g id="a_node3"><a xlink:href="../../d2/d8f/classPHInitZVertexing.html#a50743230c0f324a28d4410227a526ec8" target="_top" xlink:title="PHInitZVertexing::Process">
<polygon fill="none" stroke="#000000" points="383.5,-159.5 383.5,-179.5 529.5,-179.5 529.5,-159.5 383.5,-159.5"/>
<text text-anchor="middle" x="456.5" y="-166.5" font-family="FreeSans" font-size="10.00" fill="#000000">PHInitZVertexing::Process</text>
</a>
</g>
</g>
<!-- Node2&#45;&gt;Node3 -->
<g id="edge2" class="edge">
<title>Node2&#45;&gt;Node3</title>
<path fill="none" stroke="#191970" d="M344.0489,-169.5C357.1071,-169.5 370.5574,-169.5 383.4138,-169.5"/>
<polygon fill="#191970" stroke="#191970" points="343.6793,-166.0001 333.6793,-169.5 343.6793,-173.0001 343.6793,-166.0001"/>
</g>
<!-- Node5 -->
<g id="node5" class="node">
<title>Node5</title>
<g id="a_node5"><a xlink:href="../../d1/d97/classPHPatternReco.html#ac97e2c1e8d98ea16a11d44c134ad0299" target="_top" xlink:title="PHPatternReco::process\l_event">
<polygon fill="none" stroke="#000000" points="388.5,-102.5 388.5,-134.5 524.5,-134.5 524.5,-102.5 388.5,-102.5"/>
<text text-anchor="start" x="396.5" y="-121.5" font-family="FreeSans" font-size="10.00" fill="#000000">PHPatternReco::process</text>
<text text-anchor="middle" x="456.5" y="-109.5" font-family="FreeSans" font-size="10.00" fill="#000000">_event</text>
</a>
</g>
</g>
<!-- Node4&#45;&gt;Node5 -->
<g id="edge4" class="edge">
<title>Node4&#45;&gt;Node5</title>
<path fill="none" stroke="#191970" d="M338.3458,-118.5C354.7848,-118.5 372.0916,-118.5 388.2366,-118.5"/>
<polygon fill="#191970" stroke="#191970" points="338.2405,-115.0001 328.2405,-118.5 338.2405,-122.0001 338.2405,-115.0001"/>
</g>
<!-- Node7 -->
<g id="node7" class="node">
<title>Node7</title>
<g id="a_node7"><a xlink:href="../../d8/dd4/classPHHoughSeeding.html#a8b2c7b85b2bcbe054e071dd6ff624f7d" target="_top" xlink:title="PHHoughSeeding::Process">
<polygon fill="none" stroke="#000000" points="382,-57.5 382,-77.5 531,-77.5 531,-57.5 382,-57.5"/>
<text text-anchor="middle" x="456.5" y="-64.5" font-family="FreeSans" font-size="10.00" fill="#000000">PHHoughSeeding::Process</text>
</a>
</g>
</g>
<!-- Node6&#45;&gt;Node7 -->
<g id="edge6" class="edge">
<title>Node6&#45;&gt;Node7</title>
<path fill="none" stroke="#191970" d="M345.174,-67.5C357.3324,-67.5 369.8052,-67.5 381.8003,-67.5"/>
<polygon fill="#191970" stroke="#191970" points="345.0523,-64.0001 335.0523,-67.5 345.0522,-71.0001 345.0523,-64.0001"/>
</g>
</g>
</svg>
