<?xml version="1.0" encoding="UTF-8" standalone="no"?>
<!DOCTYPE svg PUBLIC "-//W3C//DTD SVG 1.1//EN"
 "http://www.w3.org/Graphics/SVG/1.1/DTD/svg11.dtd">
<!-- Generated by graphviz version 2.40.1 (20161225.0304)
 -->
<!-- Title: SvtxTrack_v1::get_eta Pages: 1 -->
<svg width="451pt" height="87pt"
 viewBox="0.00 0.00 451.00 87.00" xmlns="http://www.w3.org/2000/svg" xmlns:xlink="http://www.w3.org/1999/xlink">
<g id="graph0" class="graph" transform="scale(1 1) rotate(0) translate(4 83)">
<title>SvtxTrack_v1::get_eta</title>
<!-- Node1 -->
<g id="node1" class="node">
<title>Node1</title>
<polygon fill="#bfbfbf" stroke="#000000" points="0,-19.5 0,-39.5 126,-39.5 126,-19.5 0,-19.5"/>
<text text-anchor="middle" x="63" y="-26.5" font-family="FreeSans" font-size="10.00" fill="#000000">SvtxTrack_v1::get_eta</text>
</g>
<!-- Node2 -->
<g id="node2" class="node">
<title>Node2</title>
<g id="a_node2"><a xlink:href="../../db/de4/classSvtxTrack__v1.html#a85d9d74261bb1c3f09a04c468a5b2ecf" target="_top" xlink:title="SvtxTrack_v1::get_pt">
<polygon fill="none" stroke="#000000" points="162,-39.5 162,-59.5 284,-59.5 284,-39.5 162,-39.5"/>
<text text-anchor="middle" x="223" y="-46.5" font-family="FreeSans" font-size="10.00" fill="#000000">SvtxTrack_v1::get_pt</text>
</a>
</g>
</g>
<!-- Node1&#45;&gt;Node2 -->
<g id="edge1" class="edge">
<title>Node1&#45;&gt;Node2</title>
<path fill="none" stroke="#191970" d="M126.2362,-37.4045C134.649,-38.4561 143.3208,-39.5401 151.8564,-40.6071"/>
<polygon fill="#191970" stroke="#191970" points="151.4334,-44.0813 161.7903,-41.8488 152.3017,-37.1354 151.4334,-44.0813"/>
</g>
<!-- Node5 -->
<g id="node5" class="node">
<title>Node5</title>
<g id="a_node5"><a xlink:href="../../db/de4/classSvtxTrack__v1.html#af9f746f3d728de5c747f2d6524588f5f" target="_top" xlink:title="SvtxTrack_v1::get_pz">
<polygon fill="none" stroke="#000000" points="162,-.5 162,-20.5 284,-20.5 284,-.5 162,-.5"/>
<text text-anchor="middle" x="223" y="-7.5" font-family="FreeSans" font-size="10.00" fill="#000000">SvtxTrack_v1::get_pz</text>
</a>
</g>
</g>
<!-- Node1&#45;&gt;Node5 -->
<g id="edge4" class="edge">
<title>Node1&#45;&gt;Node5</title>
<path fill="none" stroke="#191970" d="M126.2362,-21.9907C134.649,-20.9917 143.3208,-19.9619 151.8564,-18.9483"/>
<polygon fill="#191970" stroke="#191970" points="152.2728,-22.4235 161.7903,-17.7687 151.4473,-15.4724 152.2728,-22.4235"/>
</g>
<!-- Node3 -->
<g id="node3" class="node">
<title>Node3</title>
<g id="a_node3"><a xlink:href="../../db/de4/classSvtxTrack__v1.html#a5281fc0601e5bc6c3482ed0b7f789a14" target="_top" xlink:title="SvtxTrack_v1::get_px">
<polygon fill="none" stroke="#000000" points="320,-58.5 320,-78.5 443,-78.5 443,-58.5 320,-58.5"/>
<text text-anchor="middle" x="381.5" y="-65.5" font-family="FreeSans" font-size="10.00" fill="#000000">SvtxTrack_v1::get_px</text>
</a>
</g>
</g>
<!-- Node2&#45;&gt;Node3 -->
<g id="edge2" class="edge">
<title>Node2&#45;&gt;Node3</title>
<path fill="none" stroke="#191970" d="M284.2802,-56.8459C292.6703,-57.8516 301.344,-58.8914 309.8978,-59.9168"/>
<polygon fill="#191970" stroke="#191970" points="309.5144,-63.3958 319.8599,-61.111 310.3476,-56.4455 309.5144,-63.3958"/>
</g>
<!-- Node4 -->
<g id="node4" class="node">
<title>Node4</title>
<g id="a_node4"><a xlink:href="../../db/de4/classSvtxTrack__v1.html#ad63f8757691e674774701d00bfce7def" target="_top" xlink:title="SvtxTrack_v1::get_py">
<polygon fill="none" stroke="#000000" points="320,-19.5 320,-39.5 443,-39.5 443,-19.5 320,-19.5"/>
<text text-anchor="middle" x="381.5" y="-26.5" font-family="FreeSans" font-size="10.00" fill="#000000">SvtxTrack_v1::get_py</text>
</a>
</g>
</g>
<!-- Node2&#45;&gt;Node4 -->
<g id="edge3" class="edge">
<title>Node2&#45;&gt;Node4</title>
<path fill="none" stroke="#191970" d="M284.2802,-41.7675C292.6703,-40.7088 301.344,-39.6143 309.8978,-38.535"/>
<polygon fill="#191970" stroke="#191970" points="310.3768,-42.0024 319.8599,-37.2779 309.5004,-35.0575 310.3768,-42.0024"/>
</g>
</g>
</svg>
