<?xml version="1.0" encoding="UTF-8" standalone="no"?>
<!DOCTYPE svg PUBLIC "-//W3C//DTD SVG 1.1//EN"
 "http://www.w3.org/Graphics/SVG/1.1/DTD/svg11.dtd">
<!-- Generated by graphviz version 2.40.1 (20161225.0304)
 -->
<!-- Title: SvtxTrack_v1::clear_states Pages: 1 -->
<svg width="322pt" height="68pt"
 viewBox="0.00 0.00 322.00 68.00" xmlns="http://www.w3.org/2000/svg" xmlns:xlink="http://www.w3.org/1999/xlink">
<g id="graph0" class="graph" transform="scale(1 1) rotate(0) translate(4 64)">
<title>SvtxTrack_v1::clear_states</title>
<!-- Node1 -->
<g id="node1" class="node">
<title>Node1</title>
<polygon fill="#bfbfbf" stroke="#000000" points="0,-13.5 0,-45.5 115,-45.5 115,-13.5 0,-13.5"/>
<text text-anchor="start" x="8" y="-32.5" font-family="FreeSans" font-size="10.00" fill="#000000">SvtxTrack_v1::clear</text>
<text text-anchor="middle" x="57.5" y="-20.5" font-family="FreeSans" font-size="10.00" fill="#000000">_states</text>
</g>
<!-- Node2 -->
<g id="node2" class="node">
<title>Node2</title>
<g id="a_node2"><a xlink:href="../../db/de4/classSvtxTrack__v1.html#adf646da41b9bae3f630d616f7ede88f0" target="_top" xlink:title="SvtxTrack_v1::operator=">
<polygon fill="none" stroke="#000000" points="162.5,-39.5 162.5,-59.5 302.5,-59.5 302.5,-39.5 162.5,-39.5"/>
<text text-anchor="middle" x="232.5" y="-46.5" font-family="FreeSans" font-size="10.00" fill="#000000">SvtxTrack_v1::operator=</text>
</a>
</g>
</g>
<!-- Node1&#45;&gt;Node2 -->
<g id="edge1" class="edge">
<title>Node1&#45;&gt;Node2</title>
<path fill="none" stroke="#191970" d="M125.3208,-37.251C137.4412,-38.6361 150.0929,-40.0821 162.279,-41.4747"/>
<polygon fill="#191970" stroke="#191970" points="125.6193,-33.7624 115.2865,-36.1042 124.8244,-40.7171 125.6193,-33.7624"/>
</g>
<!-- Node3 -->
<g id="node3" class="node">
<title>Node3</title>
<g id="a_node3"><a xlink:href="../../db/de4/classSvtxTrack__v1.html#a8665e64ca28b4d647ff0208783c5d60a" target="_top" xlink:title="SvtxTrack_v1::~SvtxTrack_v1">
<polygon fill="none" stroke="#000000" points="151,-.5 151,-20.5 314,-20.5 314,-.5 151,-.5"/>
<text text-anchor="middle" x="232.5" y="-7.5" font-family="FreeSans" font-size="10.00" fill="#000000">SvtxTrack_v1::~SvtxTrack_v1</text>
</a>
</g>
</g>
<!-- Node1&#45;&gt;Node3 -->
<g id="edge2" class="edge">
<title>Node1&#45;&gt;Node3</title>
<path fill="none" stroke="#191970" d="M125.2968,-22.1392C133.6232,-21.2352 142.2008,-20.3039 150.7061,-19.3805"/>
<polygon fill="#191970" stroke="#191970" points="124.8503,-18.667 115.2865,-23.226 125.6059,-25.6261 124.8503,-18.667"/>
</g>
</g>
</svg>
