<?xml version="1.0" encoding="UTF-8" standalone="no"?>
<!DOCTYPE svg PUBLIC "-//W3C//DTD SVG 1.1//EN"
 "http://www.w3.org/Graphics/SVG/1.1/DTD/svg11.dtd">
<!-- Generated by graphviz version 2.40.1 (20161225.0304)
 -->
<!-- Title: PHG4GDMLWriteSolids::GenericPolyconeWrite Pages: 1 -->
<svg width="490pt" height="92pt"
 viewBox="0.00 0.00 490.00 92.00" xmlns="http://www.w3.org/2000/svg" xmlns:xlink="http://www.w3.org/1999/xlink">
<g id="graph0" class="graph" transform="scale(1 1) rotate(0) translate(4 88)">
<title>PHG4GDMLWriteSolids::GenericPolyconeWrite</title>
<!-- Node1 -->
<g id="node1" class="node">
<title>Node1</title>
<polygon fill="#bfbfbf" stroke="#000000" points="0,-51.5 0,-83.5 134,-83.5 134,-51.5 0,-51.5"/>
<text text-anchor="start" x="8" y="-70.5" font-family="FreeSans" font-size="10.00" fill="#000000">PHG4GDMLWriteSolids</text>
<text text-anchor="middle" x="67" y="-58.5" font-family="FreeSans" font-size="10.00" fill="#000000">::GenericPolyconeWrite</text>
</g>
<!-- Node2 -->
<g id="node2" class="node">
<title>Node2</title>
<g id="a_node2"><a xlink:href="../../d0/d94/classPHG4GDMLWriteSolids.html#ae96019d064cee9517bad4aea85bd94e9" target="_top" xlink:title="PHG4GDMLWriteSolids\l::AddSolid">
<polygon fill="none" stroke="#000000" points="170,-51.5 170,-83.5 300,-83.5 300,-51.5 170,-51.5"/>
<text text-anchor="start" x="178" y="-70.5" font-family="FreeSans" font-size="10.00" fill="#000000">PHG4GDMLWriteSolids</text>
<text text-anchor="middle" x="235" y="-58.5" font-family="FreeSans" font-size="10.00" fill="#000000">::AddSolid</text>
</a>
</g>
</g>
<!-- Node1&#45;&gt;Node2 -->
<g id="edge1" class="edge">
<title>Node1&#45;&gt;Node2</title>
<path fill="none" stroke="#191970" d="M144.586,-67.5C153.0203,-67.5 161.5413,-67.5 169.8064,-67.5"/>
<polygon fill="#191970" stroke="#191970" points="144.3641,-64.0001 134.364,-67.5 144.364,-71.0001 144.3641,-64.0001"/>
</g>
<!-- Node3 -->
<g id="node3" class="node">
<title>Node3</title>
<g id="a_node3"><a xlink:href="../../d0/d94/classPHG4GDMLWriteSolids.html#acaa5a680bf366ae99a07faf07f4cbf7c" target="_top" xlink:title="PHG4GDMLWriteSolids\l::BooleanWrite">
<polygon fill="none" stroke="#000000" points="344,-51.5 344,-83.5 474,-83.5 474,-51.5 344,-51.5"/>
<text text-anchor="start" x="352" y="-70.5" font-family="FreeSans" font-size="10.00" fill="#000000">PHG4GDMLWriteSolids</text>
<text text-anchor="middle" x="409" y="-58.5" font-family="FreeSans" font-size="10.00" fill="#000000">::BooleanWrite</text>
</a>
</g>
</g>
<!-- Node2&#45;&gt;Node3 -->
<g id="edge2" class="edge">
<title>Node2&#45;&gt;Node3</title>
<path fill="none" stroke="#191970" d="M310.4369,-60.8033C321.5923,-60.6999 333.006,-60.7469 343.9266,-60.9443"/>
<polygon fill="#191970" stroke="#191970" points="310.238,-57.3055 300.2862,-60.9404 310.3326,-64.3049 310.238,-57.3055"/>
</g>
<!-- Node4 -->
<g id="node4" class="node">
<title>Node4</title>
<g id="a_node4"><a xlink:href="../../d2/d72/classPHG4GDMLWriteStructure.html#a957c6f2d283732660e3eb9c41b982048" target="_top" xlink:title="PHG4GDMLWriteStructure\l::TraverseVolumeTree">
<polygon fill="none" stroke="#000000" points="336,-.5 336,-32.5 482,-32.5 482,-.5 336,-.5"/>
<text text-anchor="start" x="344" y="-19.5" font-family="FreeSans" font-size="10.00" fill="#000000">PHG4GDMLWriteStructure</text>
<text text-anchor="middle" x="409" y="-7.5" font-family="FreeSans" font-size="10.00" fill="#000000">::TraverseVolumeTree</text>
</a>
</g>
</g>
<!-- Node2&#45;&gt;Node4 -->
<g id="edge4" class="edge">
<title>Node2&#45;&gt;Node4</title>
<path fill="none" stroke="#191970" d="M299.8492,-48.4925C317.7658,-43.241 337.0253,-37.596 354.3035,-32.5317"/>
<polygon fill="#191970" stroke="#191970" points="298.6665,-45.1918 290.0547,-51.3633 300.6354,-51.9092 298.6665,-45.1918"/>
</g>
<!-- Node3&#45;&gt;Node2 -->
<g id="edge3" class="edge">
<title>Node3&#45;&gt;Node2</title>
<path fill="none" stroke="#191970" d="M333.7804,-74.1947C322.6283,-74.3 311.2132,-74.2549 300.2862,-74.0596"/>
<polygon fill="#191970" stroke="#191970" points="333.9755,-77.6924 343.9266,-74.0557 333.8795,-70.6931 333.9755,-77.6924"/>
</g>
</g>
</svg>
