<?xml version="1.0" encoding="UTF-8" standalone="no"?>
<!DOCTYPE svg PUBLIC "-//W3C//DTD SVG 1.1//EN"
 "http://www.w3.org/Graphics/SVG/1.1/DTD/svg11.dtd">
<!-- Generated by graphviz version 2.40.1 (20161225.0304)
 -->
<!-- Title: atl_ran Pages: 1 -->
<svg width="660pt" height="649pt"
 viewBox="0.00 0.00 660.00 649.00" xmlns="http://www.w3.org/2000/svg" xmlns:xlink="http://www.w3.org/1999/xlink">
<g id="graph0" class="graph" transform="scale(1 1) rotate(0) translate(4 645)">
<title>atl_ran</title>
<!-- Node1 -->
<g id="node1" class="node">
<title>Node1</title>
<polygon fill="#bfbfbf" stroke="#000000" points="0,-311.5 0,-331.5 50,-331.5 50,-311.5 0,-311.5"/>
<text text-anchor="middle" x="25" y="-318.5" font-family="FreeSans" font-size="10.00" fill="#000000">atl_ran</text>
</g>
<!-- Node2 -->
<g id="node2" class="node">
<title>Node2</title>
<g id="a_node2"><a xlink:href="../../d5/d05/ar3jet_8f.html#a9664dedf8bab86eaca3220c491cc3e08" target="_top" xlink:title="ar3jet">
<polygon fill="none" stroke="#000000" points="87,-466.5 87,-486.5 133,-486.5 133,-466.5 87,-466.5"/>
<text text-anchor="middle" x="110" y="-473.5" font-family="FreeSans" font-size="10.00" fill="#000000">ar3jet</text>
</a>
</g>
</g>
<!-- Node1&#45;&gt;Node2 -->
<g id="edge1" class="edge">
<title>Node1&#45;&gt;Node2</title>
<path fill="none" stroke="#191970" d="M30.611,-341.4047C39.2006,-369.4092 57.6559,-421.084 86,-457.5 88.4808,-460.6872 91.6038,-463.6566 94.7691,-466.2566"/>
<polygon fill="#191970" stroke="#191970" points="33.9025,-340.1927 27.7118,-331.5947 27.1895,-342.1767 33.9025,-340.1927"/>
</g>
<!-- Node3 -->
<g id="node3" class="node">
<title>Node3</title>
<g id="a_node3"><a xlink:href="../../de/dfa/attrad_8f.html#ae41618a58ed51f3ae13ac30242b3243b" target="_top" xlink:title="attrad">
<polygon fill="none" stroke="#000000" points="170,-427.5 170,-447.5 216,-447.5 216,-427.5 170,-427.5"/>
<text text-anchor="middle" x="193" y="-434.5" font-family="FreeSans" font-size="10.00" fill="#000000">attrad</text>
</a>
</g>
</g>
<!-- Node1&#45;&gt;Node3 -->
<g id="edge33" class="edge">
<title>Node1&#45;&gt;Node3</title>
<path fill="none" stroke="#191970" d="M48.2602,-337.5606C83.4116,-361.8318 149.0614,-407.1615 178.2991,-427.3494"/>
<polygon fill="#191970" stroke="#191970" points="49.8327,-334.3931 39.615,-331.5913 45.8553,-340.1534 49.8327,-334.3931"/>
</g>
<!-- Node4 -->
<g id="node4" class="node">
<title>Node4</title>
<g id="a_node4"><a xlink:href="../../dc/d63/hijfrg_8f.html#a94a7d7a74d57d5ee4cc9df699368f6a5" target="_top" xlink:title="hijfrg">
<polygon fill="none" stroke="#000000" points="257.5,-427.5 257.5,-447.5 299.5,-447.5 299.5,-427.5 257.5,-427.5"/>
<text text-anchor="middle" x="278.5" y="-434.5" font-family="FreeSans" font-size="10.00" fill="#000000">hijfrg</text>
</a>
</g>
</g>
<!-- Node1&#45;&gt;Node4 -->
<g id="edge39" class="edge">
<title>Node1&#45;&gt;Node4</title>
<path fill="none" stroke="#191970" d="M28.9387,-341.3591C37.6798,-383.1859 59.9961,-478.0258 86,-496.5 144.9857,-538.4057 234.4416,-473.9664 266.5254,-447.763"/>
<polygon fill="#191970" stroke="#191970" points="32.3572,-340.606 26.9276,-331.5082 25.4987,-342.0063 32.3572,-340.606"/>
</g>
<!-- Node5 -->
<g id="node5" class="node">
<title>Node5</title>
<g id="a_node5"><a xlink:href="../../d1/dbb/hijing_8f.html#a69776a874c5857b3bcd832c1195cb0e1" target="_top" xlink:title="hijing">
<polygon fill="none" stroke="#000000" points="341,-337.5 341,-357.5 385,-357.5 385,-337.5 341,-337.5"/>
<text text-anchor="middle" x="363" y="-344.5" font-family="FreeSans" font-size="10.00" fill="#000000">hijing</text>
</a>
</g>
</g>
<!-- Node1&#45;&gt;Node5 -->
<g id="edge42" class="edge">
<title>Node1&#45;&gt;Node5</title>
<path fill="none" stroke="#191970" d="M28.263,-341.7326C36.059,-387.2503 57.2791,-495.3911 86,-516.5 167.2253,-576.1978 234.6764,-529.7217 305,-457.5 334.5202,-427.183 352.8361,-378.8089 359.8001,-357.7989"/>
<polygon fill="#191970" stroke="#191970" points="31.6707,-340.8888 26.5738,-331.6006 24.766,-342.0401 31.6707,-340.8888"/>
</g>
<!-- Node16 -->
<g id="node16" class="node">
<title>Node16</title>
<g id="a_node16"><a xlink:href="../../dc/df0/aran9_8f.html#ab5b3d06f0fc032cd40c8f4b3ba1b6815" target="_top" xlink:title="aran9">
<polygon fill="none" stroke="#000000" points="87.5,-39.5 87.5,-59.5 132.5,-59.5 132.5,-39.5 87.5,-39.5"/>
<text text-anchor="middle" x="110" y="-46.5" font-family="FreeSans" font-size="10.00" fill="#000000">aran9</text>
</a>
</g>
</g>
<!-- Node1&#45;&gt;Node16 -->
<g id="edge15" class="edge">
<title>Node1&#45;&gt;Node16</title>
<path fill="none" stroke="#191970" d="M26.4593,-301.1923C30.3487,-257.2676 43.7382,-151.2101 86,-74.5 89.0194,-69.0195 93.5465,-63.8659 97.8579,-59.6781"/>
<polygon fill="#191970" stroke="#191970" points="22.9502,-301.1639 25.6304,-311.4141 29.9273,-301.7298 22.9502,-301.1639"/>
</g>
<!-- Node21 -->
<g id="node21" class="node">
<title>Node21</title>
<g id="a_node21"><a xlink:href="../../d0/d89/arorie_8f.html#a0a98d740390a68564b01a25dd535a65f" target="_top" xlink:title="arorie">
<polygon fill="none" stroke="#000000" points="87.5,-427.5 87.5,-447.5 132.5,-447.5 132.5,-427.5 87.5,-427.5"/>
<text text-anchor="middle" x="110" y="-434.5" font-family="FreeSans" font-size="10.00" fill="#000000">arorie</text>
</a>
</g>
</g>
<!-- Node1&#45;&gt;Node21 -->
<g id="edge28" class="edge">
<title>Node1&#45;&gt;Node21</title>
<path fill="none" stroke="#191970" d="M36.2564,-340.3019C47.8667,-359.1841 66.9211,-388.7986 86,-412.5 90.0745,-417.5617 94.9827,-422.8021 99.2959,-427.1695"/>
<polygon fill="#191970" stroke="#191970" points="39.2309,-338.4569 31.045,-331.7307 33.2497,-342.0937 39.2309,-338.4569"/>
</g>
<!-- Node22 -->
<g id="node22" class="node">
<title>Node22</title>
<g id="a_node22"><a xlink:href="../../d2/d64/attflv_8f.html#aa51a57e0acd72866fbb2db5fbf99de05" target="_top" xlink:title="attflv">
<polygon fill="none" stroke="#000000" points="88.5,-311.5 88.5,-331.5 131.5,-331.5 131.5,-311.5 88.5,-311.5"/>
<text text-anchor="middle" x="110" y="-318.5" font-family="FreeSans" font-size="10.00" fill="#000000">attflv</text>
</a>
</g>
</g>
<!-- Node1&#45;&gt;Node22 -->
<g id="edge30" class="edge">
<title>Node1&#45;&gt;Node22</title>
<path fill="none" stroke="#191970" d="M60.1129,-321.5C69.6665,-321.5 79.7339,-321.5 88.3034,-321.5"/>
<polygon fill="#191970" stroke="#191970" points="60.0431,-318.0001 50.0431,-321.5 60.043,-325.0001 60.0431,-318.0001"/>
</g>
<!-- Node23 -->
<g id="node23" class="node">
<title>Node23</title>
<g id="a_node23"><a xlink:href="../../d8/d36/hijini_8f.html#a99d63cd31d2901e4fc2a3f4b5f6bfa5a" target="_top" xlink:title="hijini">
<polygon fill="none" stroke="#000000" points="173,-337.5 173,-357.5 213,-357.5 213,-337.5 173,-337.5"/>
<text text-anchor="middle" x="193" y="-344.5" font-family="FreeSans" font-size="10.00" fill="#000000">hijini</text>
</a>
</g>
</g>
<!-- Node1&#45;&gt;Node23 -->
<g id="edge43" class="edge">
<title>Node1&#45;&gt;Node23</title>
<path fill="none" stroke="#191970" d="M59.7824,-333.8876C68.263,-336.4741 77.3778,-338.8986 86,-340.5 115.834,-346.0411 151.0552,-347.3639 172.7084,-347.5936"/>
<polygon fill="#191970" stroke="#191970" points="60.7767,-330.531 50.1857,-330.8166 58.6432,-337.198 60.7767,-330.531"/>
</g>
<!-- Node24 -->
<g id="node24" class="node">
<title>Node24</title>
<g id="a_node24"><a xlink:href="../../db/dc4/hijcsc_8f.html#a9c332650617a743abea1936d063909f8" target="_top" xlink:title="hijcsc">
<polygon fill="none" stroke="#000000" points="171,-272.5 171,-292.5 215,-292.5 215,-272.5 171,-272.5"/>
<text text-anchor="middle" x="193" y="-279.5" font-family="FreeSans" font-size="10.00" fill="#000000">hijcsc</text>
</a>
</g>
</g>
<!-- Node1&#45;&gt;Node24 -->
<g id="edge34" class="edge">
<title>Node1&#45;&gt;Node24</title>
<path fill="none" stroke="#191970" d="M59.8922,-309.1232C68.369,-306.3772 77.4544,-303.6482 86,-301.5 114.9103,-294.2324 148.893,-288.6982 170.6742,-285.5262"/>
<polygon fill="#191970" stroke="#191970" points="58.6716,-305.8407 50.2897,-312.321 60.8833,-312.4821 58.6716,-305.8407"/>
</g>
<!-- Node25 -->
<g id="node25" class="node">
<title>Node25</title>
<g id="a_node25"><a xlink:href="../../d1/da3/hijels_8f.html#aca52ca1b104e3dd34f1cbc1876f90d2d" target="_top" xlink:title="hijels">
<polygon fill="none" stroke="#000000" points="88.5,-233.5 88.5,-253.5 131.5,-253.5 131.5,-233.5 88.5,-233.5"/>
<text text-anchor="middle" x="110" y="-240.5" font-family="FreeSans" font-size="10.00" fill="#000000">hijels</text>
</a>
</g>
</g>
<!-- Node1&#45;&gt;Node25 -->
<g id="edge36" class="edge">
<title>Node1&#45;&gt;Node25</title>
<path fill="none" stroke="#191970" d="M43.7321,-304.3106C60.6188,-288.8146 84.8843,-266.5474 98.885,-253.6996"/>
<polygon fill="#191970" stroke="#191970" points="41.1138,-301.9629 36.1123,-311.3029 45.8467,-307.1204 41.1138,-301.9629"/>
</g>
<!-- Node26 -->
<g id="node26" class="node">
<title>Node26</title>
<g id="a_node26"><a xlink:href="../../d6/d9d/hijflv_8f.html#a0de9790372d2607197005c9e1ec7d530" target="_top" xlink:title="hijflv">
<polygon fill="none" stroke="#000000" points="89.5,-.5 89.5,-20.5 130.5,-20.5 130.5,-.5 89.5,-.5"/>
<text text-anchor="middle" x="110" y="-7.5" font-family="FreeSans" font-size="10.00" fill="#000000">hijflv</text>
</a>
</g>
</g>
<!-- Node1&#45;&gt;Node26 -->
<g id="edge38" class="edge">
<title>Node1&#45;&gt;Node26</title>
<path fill="none" stroke="#191970" d="M27.4318,-301.0849C34.6788,-242.6143 57.4128,-75.7576 86,-29.5 88.0115,-26.2451 90.79,-23.3182 93.7449,-20.7921"/>
<polygon fill="#191970" stroke="#191970" points="23.9266,-300.9162 26.1917,-311.266 30.8752,-301.7626 23.9266,-300.9162"/>
</g>
<!-- Node27 -->
<g id="node27" class="node">
<title>Node27</title>
<g id="a_node27"><a xlink:href="../../d3/db7/hijhrd_8f.html#ace311e28a8574ca3a1d08790019cb213" target="_top" xlink:title="hijhrd">
<polygon fill="none" stroke="#000000" points="256,-238.5 256,-258.5 301,-258.5 301,-238.5 256,-238.5"/>
<text text-anchor="middle" x="278.5" y="-245.5" font-family="FreeSans" font-size="10.00" fill="#000000">hijhrd</text>
</a>
</g>
</g>
<!-- Node1&#45;&gt;Node27 -->
<g id="edge40" class="edge">
<title>Node1&#45;&gt;Node27</title>
<path fill="none" stroke="#191970" d="M30.8241,-301.6984C38.9217,-278.2029 56.0705,-240.1243 86,-223.5 142.2708,-192.2445 221.7313,-221.5445 258.4546,-238.4383"/>
<polygon fill="#191970" stroke="#191970" points="27.4537,-300.7467 27.7271,-311.338 34.1182,-302.8879 27.4537,-300.7467"/>
</g>
<!-- Node28 -->
<g id="node28" class="node">
<title>Node28</title>
<g id="a_node28"><a xlink:href="../../d3/d57/hijsft_8f.html#a5a75bdb0351f62ab061cb61fd7423f60" target="_top" xlink:title="hijsft">
<polygon fill="none" stroke="#000000" points="172.5,-116.5 172.5,-136.5 213.5,-136.5 213.5,-116.5 172.5,-116.5"/>
<text text-anchor="middle" x="193" y="-123.5" font-family="FreeSans" font-size="10.00" fill="#000000">hijsft</text>
</a>
</g>
</g>
<!-- Node1&#45;&gt;Node28 -->
<g id="edge44" class="edge">
<title>Node1&#45;&gt;Node28</title>
<path fill="none" stroke="#191970" d="M27.6716,-301.2776C34.5584,-252.6039 54.604,-131.1973 86,-107.5 112.6543,-87.3817 153.6013,-104.1661 176.3349,-116.441"/>
<polygon fill="#191970" stroke="#191970" points="24.1956,-300.8642 26.3027,-311.2474 31.1306,-301.8165 24.1956,-300.8642"/>
</g>
<!-- Node29 -->
<g id="node29" class="node">
<title>Node29</title>
<g id="a_node29"><a xlink:href="../../d9/dfa/hiptdi_8f.html#a07e0038f045130afa8ccc57dac93256f" target="_top" xlink:title="hiptdi">
<polygon fill="none" stroke="#000000" points="170.5,-155.5 170.5,-175.5 215.5,-175.5 215.5,-155.5 170.5,-155.5"/>
<text text-anchor="middle" x="193" y="-162.5" font-family="FreeSans" font-size="10.00" fill="#000000">hiptdi</text>
</a>
</g>
</g>
<!-- Node1&#45;&gt;Node29 -->
<g id="edge46" class="edge">
<title>Node1&#45;&gt;Node29</title>
<path fill="none" stroke="#191970" d="M28.6594,-301.2925C35.0154,-272.2266 50.9324,-218.9895 86,-190.5 110.1343,-170.8929 146.914,-166.119 170.4517,-165.238"/>
<polygon fill="#191970" stroke="#191970" points="25.152,-300.9814 26.6112,-311.4752 32.0145,-302.3618 25.152,-300.9814"/>
</g>
<!-- Node30 -->
<g id="node30" class="node">
<title>Node30</title>
<g id="a_node30"><a xlink:href="../../dc/d49/hirnd_8f.html#a1ec6f6427a85e5430e8d6f76f8531ba9" target="_top" xlink:title="hirnd">
<polygon fill="none" stroke="#000000" points="257.5,-620.5 257.5,-640.5 299.5,-640.5 299.5,-620.5 257.5,-620.5"/>
<text text-anchor="middle" x="278.5" y="-627.5" font-family="FreeSans" font-size="10.00" fill="#000000">hirnd</text>
</a>
</g>
</g>
<!-- Node1&#45;&gt;Node30 -->
<g id="edge47" class="edge">
<title>Node1&#45;&gt;Node30</title>
<path fill="none" stroke="#191970" d="M26.8136,-341.921C32.2815,-398.8464 50.4589,-557.4892 86,-593.5 132.0184,-640.1266 217.6754,-637.5522 257.3379,-633.4063"/>
<polygon fill="#191970" stroke="#191970" points="30.2721,-341.3111 25.863,-331.6773 23.3021,-341.958 30.2721,-341.3111"/>
</g>
<!-- Node31 -->
<g id="node31" class="node">
<title>Node31</title>
<g id="a_node31"><a xlink:href="../../d5/de9/hirnd2_8f.html#a07e820967588ecd632577009cf92bf6f" target="_top" xlink:title="hirnd2">
<polygon fill="none" stroke="#000000" points="86,-117.5 86,-137.5 134,-137.5 134,-117.5 86,-117.5"/>
<text text-anchor="middle" x="110" y="-124.5" font-family="FreeSans" font-size="10.00" fill="#000000">hirnd2</text>
</a>
</g>
</g>
<!-- Node1&#45;&gt;Node31 -->
<g id="edge49" class="edge">
<title>Node1&#45;&gt;Node31</title>
<path fill="none" stroke="#191970" d="M29.326,-301.5461C37.065,-268.6521 55.3969,-201.783 86,-152.5 89.3009,-147.1843 93.8807,-142.0616 98.1556,-137.8524"/>
<polygon fill="#191970" stroke="#191970" points="25.9069,-300.7977 27.1052,-311.3245 32.7331,-302.3481 25.9069,-300.7977"/>
</g>
<!-- Node32 -->
<g id="node32" class="node">
<title>Node32</title>
<g id="a_node32"><a xlink:href="../../d9/dd6/quench_8f.html#a81b01d81c557458a2c062800ed66bd2b" target="_top" xlink:title="quench">
<polygon fill="none" stroke="#000000" points="252,-581.5 252,-601.5 305,-601.5 305,-581.5 252,-581.5"/>
<text text-anchor="middle" x="278.5" y="-588.5" font-family="FreeSans" font-size="10.00" fill="#000000">quench</text>
</a>
</g>
</g>
<!-- Node1&#45;&gt;Node32 -->
<g id="edge52" class="edge">
<title>Node1&#45;&gt;Node32</title>
<path fill="none" stroke="#191970" d="M27.1205,-341.9009C33.1097,-395.3281 51.9676,-537.2952 86,-567.5 132.0957,-608.4113 210.6567,-603.0963 251.7129,-596.7384"/>
<polygon fill="#191970" stroke="#191970" points="30.5666,-341.2139 26.0091,-331.6494 23.6074,-341.9685 30.5666,-341.2139"/>
</g>
<!-- Node2&#45;&gt;Node3 -->
<g id="edge2" class="edge">
<title>Node2&#45;&gt;Node3</title>
<path fill="none" stroke="#191970" d="M140.5269,-462.156C150.8822,-457.2903 162.2195,-451.9631 171.6979,-447.5094"/>
<polygon fill="#191970" stroke="#191970" points="138.9368,-459.036 131.3746,-466.4565 141.9137,-465.3715 138.9368,-459.036"/>
</g>
<!-- Node3&#45;&gt;Node4 -->
<g id="edge3" class="edge">
<title>Node3&#45;&gt;Node4</title>
<path fill="none" stroke="#191970" d="M226.3818,-437.5C236.7549,-437.5 247.9019,-437.5 257.2141,-437.5"/>
<polygon fill="#191970" stroke="#191970" points="226.3633,-434.0001 216.3633,-437.5 226.3632,-441.0001 226.3633,-434.0001"/>
</g>
<!-- Node4&#45;&gt;Node5 -->
<g id="edge4" class="edge">
<title>Node4&#45;&gt;Node5</title>
<path fill="none" stroke="#191970" d="M295.2439,-419.6662C312.6505,-401.1267 339.2876,-372.7558 353.4198,-357.7037"/>
<polygon fill="#191970" stroke="#191970" points="292.4864,-417.4898 288.1932,-427.1759 297.5897,-422.2812 292.4864,-417.4898"/>
</g>
<!-- Node6 -->
<g id="node6" class="node">
<title>Node6</title>
<g id="a_node6"><a xlink:href="../../da/d19/example__1_8f.html#acf16f61bc7e27d5ce77d73738020a5c7" target="_top" xlink:title="__example_1::f__">
<polygon fill="none" stroke="#000000" points="549,-353.5 549,-373.5 652,-373.5 652,-353.5 549,-353.5"/>
<text text-anchor="middle" x="600.5" y="-360.5" font-family="FreeSans" font-size="10.00" fill="#000000">__example_1::f__</text>
</a>
</g>
</g>
<!-- Node5&#45;&gt;Node6 -->
<g id="edge5" class="edge">
<title>Node5&#45;&gt;Node6</title>
<path fill="none" stroke="#191970" d="M395.4855,-349.6885C435.0363,-352.353 502.316,-356.8855 548.9638,-360.0281"/>
<polygon fill="#191970" stroke="#191970" points="395.5561,-346.1854 385.3434,-349.0052 395.0855,-353.1696 395.5561,-346.1854"/>
</g>
<!-- Node7 -->
<g id="node7" class="node">
<title>Node7</title>
<g id="a_node7"><a xlink:href="../../d0/dd6/example__2_8f.html#a9d0c3b9bee4d35bf976af3b01e3d8f99" target="_top" xlink:title="__example_2::f__">
<polygon fill="none" stroke="#000000" points="549,-313.5 549,-333.5 652,-333.5 652,-313.5 549,-313.5"/>
<text text-anchor="middle" x="600.5" y="-320.5" font-family="FreeSans" font-size="10.00" fill="#000000">__example_2::f__</text>
</a>
</g>
</g>
<!-- Node5&#45;&gt;Node7 -->
<g id="edge6" class="edge">
<title>Node5&#45;&gt;Node7</title>
<path fill="none" stroke="#191970" d="M395.4855,-344.2173C435.0363,-340.2205 502.316,-333.4218 548.9638,-328.7079"/>
<polygon fill="#191970" stroke="#191970" points="394.9408,-340.7544 385.3434,-345.2421 395.6447,-347.7189 394.9408,-340.7544"/>
</g>
<!-- Node8 -->
<g id="node8" class="node">
<title>Node8</title>
<g id="a_node8"><a xlink:href="../../d2/d77/example__3_8f.html#aab27974d678e65e3e41bf2e3fe4df5d9" target="_top" xlink:title="__example_3::f__">
<polygon fill="none" stroke="#000000" points="549,-273.5 549,-293.5 652,-293.5 652,-273.5 549,-273.5"/>
<text text-anchor="middle" x="600.5" y="-280.5" font-family="FreeSans" font-size="10.00" fill="#000000">__example_3::f__</text>
</a>
</g>
</g>
<!-- Node5&#45;&gt;Node8 -->
<g id="edge7" class="edge">
<title>Node5&#45;&gt;Node8</title>
<path fill="none" stroke="#191970" d="M394.7957,-337.3181C403.2843,-334.686 412.4691,-331.9152 421,-329.5 468.0495,-316.1796 522.5085,-302.4604 558.9914,-293.5119"/>
<polygon fill="#191970" stroke="#191970" points="393.7277,-333.9849 385.2316,-340.3147 395.8206,-340.6647 393.7277,-333.9849"/>
</g>
<!-- Node9 -->
<g id="node9" class="node">
<title>Node9</title>
<g id="a_node9"><a xlink:href="../../d2/da0/example__4_8f.html#a6bc0f54131effae47e6b12e1d435314a" target="_top" xlink:title="__example_4::f__">
<polygon fill="none" stroke="#000000" points="549,-232.5 549,-252.5 652,-252.5 652,-232.5 549,-232.5"/>
<text text-anchor="middle" x="600.5" y="-239.5" font-family="FreeSans" font-size="10.00" fill="#000000">__example_4::f__</text>
</a>
</g>
</g>
<!-- Node5&#45;&gt;Node9 -->
<g id="edge8" class="edge">
<title>Node5&#45;&gt;Node9</title>
<path fill="none" stroke="#191970" d="M366.4224,-327.4123C372.2605,-300.1735 386.9956,-252.5159 421,-231.5 468.9385,-201.8724 538.512,-219.4928 575.3798,-232.4631"/>
<polygon fill="#191970" stroke="#191970" points="362.9563,-326.9017 364.4889,-337.3851 369.8284,-328.2341 362.9563,-326.9017"/>
</g>
<!-- Node10 -->
<g id="node10" class="node">
<title>Node10</title>
<g id="a_node10"><a xlink:href="../../d7/d67/example__5_8f.html#a25afe91d84386c600617ed09ef60286f" target="_top" xlink:title="__example_5::f__">
<polygon fill="none" stroke="#000000" points="549,-189.5 549,-209.5 652,-209.5 652,-189.5 549,-189.5"/>
<text text-anchor="middle" x="600.5" y="-196.5" font-family="FreeSans" font-size="10.00" fill="#000000">__example_5::f__</text>
</a>
</g>
</g>
<!-- Node5&#45;&gt;Node10 -->
<g id="edge9" class="edge">
<title>Node5&#45;&gt;Node10</title>
<path fill="none" stroke="#191970" d="M365.0807,-327.4986C369.4478,-296.7976 382.5953,-238.7564 421,-211.5 457.8043,-185.3794 510.25,-184.9233 548.9533,-189.481"/>
<polygon fill="#191970" stroke="#191970" points="361.6023,-327.1088 363.8385,-337.4649 368.5485,-327.9746 361.6023,-327.1088"/>
</g>
<!-- Node11 -->
<g id="node11" class="node">
<title>Node11</title>
<g id="a_node11"><a xlink:href="../../d2/d88/example__6_8f.html#a78fc9edc07bf87b06cd839a4eea78c26" target="_top" xlink:title="__example_6::f__">
<polygon fill="none" stroke="#000000" points="549,-142.5 549,-162.5 652,-162.5 652,-142.5 549,-142.5"/>
<text text-anchor="middle" x="600.5" y="-149.5" font-family="FreeSans" font-size="10.00" fill="#000000">__example_6::f__</text>
</a>
</g>
</g>
<!-- Node5&#45;&gt;Node11 -->
<g id="edge10" class="edge">
<title>Node5&#45;&gt;Node11</title>
<path fill="none" stroke="#191970" d="M367.3916,-327.6068C376.4866,-288.2387 398.4265,-202.5497 421,-183.5 456.1653,-153.8241 509.3419,-147.8673 548.6964,-148.254"/>
<polygon fill="#191970" stroke="#191970" points="363.9716,-326.8624 365.177,-337.3884 370.7988,-328.4081 363.9716,-326.8624"/>
</g>
<!-- Node12 -->
<g id="node12" class="node">
<title>Node12</title>
<g id="a_node12"><a xlink:href="../../db/d1a/example__7_8f.html#ac777f81954b42662e3b21684d62ddab7" target="_top" xlink:title="__example_7::f__">
<polygon fill="none" stroke="#000000" points="549,-432.5 549,-452.5 652,-452.5 652,-432.5 549,-432.5"/>
<text text-anchor="middle" x="600.5" y="-439.5" font-family="FreeSans" font-size="10.00" fill="#000000">__example_7::f__</text>
</a>
</g>
</g>
<!-- Node5&#45;&gt;Node12 -->
<g id="edge11" class="edge">
<title>Node5&#45;&gt;Node12</title>
<path fill="none" stroke="#191970" d="M380.7148,-364.682C391.5744,-374.3749 406.1968,-386.0083 421,-393.5 461.6398,-414.0673 511.9655,-426.843 548.9789,-434.1708"/>
<polygon fill="#191970" stroke="#191970" points="382.9254,-361.9594 373.2032,-357.7488 378.1776,-367.1033 382.9254,-361.9594"/>
</g>
<!-- Node13 -->
<g id="node13" class="node">
<title>Node13</title>
<g id="a_node13"><a xlink:href="../../d1/de4/example__8_8f.html#ace7a490fafddd958e4a9192395b34464" target="_top" xlink:title="__example_8::f__">
<polygon fill="none" stroke="#000000" points="549,-392.5 549,-412.5 652,-412.5 652,-392.5 549,-392.5"/>
<text text-anchor="middle" x="600.5" y="-399.5" font-family="FreeSans" font-size="10.00" fill="#000000">__example_8::f__</text>
</a>
</g>
</g>
<!-- Node5&#45;&gt;Node13 -->
<g id="edge12" class="edge">
<title>Node5&#45;&gt;Node13</title>
<path fill="none" stroke="#191970" d="M394.7536,-360.7266C403.1843,-363.9111 412.3515,-367.0862 421,-369.5 463.4215,-381.3401 512.6952,-390.0515 548.8735,-395.5411"/>
<polygon fill="#191970" stroke="#191970" points="395.8585,-357.4009 385.2702,-357.0291 393.3157,-363.9227 395.8585,-357.4009"/>
</g>
<!-- Node14 -->
<g id="node14" class="node">
<title>Node14</title>
<g id="a_node14"><a xlink:href="../../d3/d7f/Fun_8C.html#ab689f6a95e742654fc06aa27a8486ffd" target="_top" xlink:title="ConfigureInput">
<polygon fill="none" stroke="#000000" points="421,-471.5 421,-491.5 513,-491.5 513,-471.5 421,-471.5"/>
<text text-anchor="middle" x="467" y="-478.5" font-family="FreeSans" font-size="10.00" fill="#000000">ConfigureInput</text>
</a>
</g>
</g>
<!-- Node5&#45;&gt;Node14 -->
<g id="edge13" class="edge">
<title>Node5&#45;&gt;Node14</title>
<path fill="none" stroke="#191970" d="M369.5582,-367.3892C378.1934,-391.059 395.3509,-430.6237 421,-456.5 427.0148,-462.5681 434.8145,-467.5506 442.2774,-471.4266"/>
<polygon fill="#191970" stroke="#191970" points="372.7899,-366.027 366.1905,-357.7386 366.1808,-368.3335 372.7899,-366.027"/>
</g>
<!-- Node15 -->
<g id="node15" class="node">
<title>Node15</title>
<g id="a_node15"><a xlink:href="../../d3/d7f/Fun_8C.html#af69a3eef3ff244bb51f5740c6ecb5432" target="_top" xlink:title="Fun">
<polygon fill="none" stroke="#000000" points="583.5,-471.5 583.5,-491.5 617.5,-491.5 617.5,-471.5 583.5,-471.5"/>
<text text-anchor="middle" x="600.5" y="-478.5" font-family="FreeSans" font-size="10.00" fill="#000000">Fun</text>
</a>
</g>
</g>
<!-- Node14&#45;&gt;Node15 -->
<g id="edge14" class="edge">
<title>Node14&#45;&gt;Node15</title>
<path fill="none" stroke="#191970" d="M523.4492,-481.5C545.0875,-481.5 568.2056,-481.5 583.4109,-481.5"/>
<polygon fill="#191970" stroke="#191970" points="523.3172,-478.0001 513.3172,-481.5 523.3171,-485.0001 523.3172,-478.0001"/>
</g>
<!-- Node17 -->
<g id="node17" class="node">
<title>Node17</title>
<g id="a_node17"><a xlink:href="../../dd/d3f/vegas_8f.html#a9b6da497223053e01de3e570e536fab7" target="_top" xlink:title="vegas">
<polygon fill="none" stroke="#000000" points="170,-58.5 170,-78.5 216,-78.5 216,-58.5 170,-58.5"/>
<text text-anchor="middle" x="193" y="-65.5" font-family="FreeSans" font-size="10.00" fill="#000000">vegas</text>
</a>
</g>
</g>
<!-- Node16&#45;&gt;Node17 -->
<g id="edge16" class="edge">
<title>Node16&#45;&gt;Node17</title>
<path fill="none" stroke="#191970" d="M142.5814,-56.9584C151.6637,-59.0375 161.3442,-61.2535 169.7695,-63.1822"/>
<polygon fill="#191970" stroke="#191970" points="143.209,-53.5116 132.6801,-54.6918 141.6469,-60.3351 143.209,-53.5116"/>
</g>
<!-- Node18 -->
<g id="node18" class="node">
<title>Node18</title>
<g id="a_node18"><a xlink:href="../../df/d79/crsjet_8f.html#af2fc33e94c1b4d97324c05704f5e1130" target="_top" xlink:title="crsjet">
<polygon fill="none" stroke="#000000" points="256.5,-72.5 256.5,-92.5 300.5,-92.5 300.5,-72.5 256.5,-72.5"/>
<text text-anchor="middle" x="278.5" y="-79.5" font-family="FreeSans" font-size="10.00" fill="#000000">crsjet</text>
</a>
</g>
</g>
<!-- Node17&#45;&gt;Node18 -->
<g id="edge17" class="edge">
<title>Node17&#45;&gt;Node18</title>
<path fill="none" stroke="#191970" d="M226.4572,-73.9784C236.4871,-75.6207 247.2342,-77.3804 256.3426,-78.8719"/>
<polygon fill="#191970" stroke="#191970" points="226.7974,-70.4875 216.3633,-72.3256 225.6662,-77.3956 226.7974,-70.4875"/>
</g>
<!-- Node19 -->
<g id="node19" class="node">
<title>Node19</title>
<g id="a_node19"><a xlink:href="../../d4/db6/hijcrs_8f.html#a9aa6779b47b0a9cbc14d258c88676ccd" target="_top" xlink:title="hijcrs">
<polygon fill="none" stroke="#000000" points="341.5,-157.5 341.5,-177.5 384.5,-177.5 384.5,-157.5 341.5,-157.5"/>
<text text-anchor="middle" x="363" y="-164.5" font-family="FreeSans" font-size="10.00" fill="#000000">hijcrs</text>
</a>
</g>
</g>
<!-- Node18&#45;&gt;Node19 -->
<g id="edge18" class="edge">
<title>Node18&#45;&gt;Node19</title>
<path fill="none" stroke="#191970" d="M295.7612,-99.8633C312.9967,-117.2008 338.8924,-143.2497 352.988,-157.4287"/>
<polygon fill="#191970" stroke="#191970" points="298.0575,-97.2088 288.5251,-92.5844 293.0931,-102.1439 298.0575,-97.2088"/>
</g>
<!-- Node20 -->
<g id="node20" class="node">
<title>Node20</title>
<g id="a_node20"><a xlink:href="../../db/d44/hijset_8f.html#ac1c3db71bda2dc1a77110561ebebe89a" target="_top" xlink:title="hijset">
<polygon fill="none" stroke="#000000" points="445,-241.5 445,-261.5 489,-261.5 489,-241.5 445,-241.5"/>
<text text-anchor="middle" x="467" y="-248.5" font-family="FreeSans" font-size="10.00" fill="#000000">hijset</text>
</a>
</g>
</g>
<!-- Node19&#45;&gt;Node20 -->
<g id="edge19" class="edge">
<title>Node19&#45;&gt;Node20</title>
<path fill="none" stroke="#191970" d="M383.7969,-184.2975C404.9223,-201.3603 436.9504,-227.2291 454.4681,-241.3781"/>
<polygon fill="#191970" stroke="#191970" points="385.7311,-181.3607 375.7524,-177.8 381.3327,-186.8063 385.7311,-181.3607"/>
</g>
<!-- Node20&#45;&gt;Node6 -->
<g id="edge20" class="edge">
<title>Node20&#45;&gt;Node6</title>
<path fill="none" stroke="#191970" d="M479.6641,-269.9444C494.3232,-290.1137 520.1746,-322.2554 549,-342.5 555.1633,-346.8286 562.3518,-350.469 569.3686,-353.4387"/>
<polygon fill="#191970" stroke="#191970" points="482.3879,-267.7349 473.7459,-261.6057 476.6794,-271.7863 482.3879,-267.7349"/>
</g>
<!-- Node20&#45;&gt;Node7 -->
<g id="edge21" class="edge">
<title>Node20&#45;&gt;Node7</title>
<path fill="none" stroke="#191970" d="M490.3877,-267.5264C506.4654,-278.1704 528.5272,-292.0543 549,-302.5 556.7408,-306.4495 565.404,-310.2176 573.3844,-313.4436"/>
<polygon fill="#191970" stroke="#191970" points="491.9258,-264.3439 481.6702,-261.6843 488.0288,-270.1589 491.9258,-264.3439"/>
</g>
<!-- Node20&#45;&gt;Node8 -->
<g id="edge22" class="edge">
<title>Node20&#45;&gt;Node8</title>
<path fill="none" stroke="#191970" d="M498.9936,-259.1689C516.9002,-263.4611 539.4349,-268.8627 558.7204,-273.4854"/>
<polygon fill="#191970" stroke="#191970" points="499.5852,-255.7116 489.0448,-256.7841 497.9535,-262.5188 499.5852,-255.7116"/>
</g>
<!-- Node20&#45;&gt;Node9 -->
<g id="edge23" class="edge">
<title>Node20&#45;&gt;Node9</title>
<path fill="none" stroke="#191970" d="M499.2795,-249.3239C514.1914,-248.3186 532.2666,-247.1 548.9928,-245.9724"/>
<polygon fill="#191970" stroke="#191970" points="498.7867,-245.849 489.0448,-250.0138 499.2576,-252.8332 498.7867,-245.849"/>
</g>
<!-- Node20&#45;&gt;Node10 -->
<g id="edge24" class="edge">
<title>Node20&#45;&gt;Node10</title>
<path fill="none" stroke="#191970" d="M498.4692,-239.2423C521.7241,-230.1842 552.9961,-218.0034 574.7648,-209.5242"/>
<polygon fill="#191970" stroke="#191970" points="497.0925,-236.0223 489.0448,-242.9133 499.6332,-242.545 497.0925,-236.0223"/>
</g>
<!-- Node20&#45;&gt;Node11 -->
<g id="edge25" class="edge">
<title>Node20&#45;&gt;Node11</title>
<path fill="none" stroke="#191970" d="M484.4487,-233.9662C500.3916,-218.5038 525.061,-195.9379 549,-179.5 558.2376,-173.1569 569.1467,-167.2384 578.541,-162.5688"/>
<polygon fill="#191970" stroke="#191970" points="481.6324,-231.827 476.9572,-241.3345 486.541,-236.8176 481.6324,-231.827"/>
</g>
<!-- Node20&#45;&gt;Node12 -->
<g id="edge26" class="edge">
<title>Node20&#45;&gt;Node12</title>
<path fill="none" stroke="#191970" d="M471.6948,-271.8522C480.7813,-306.9562 503.9643,-379.1839 549,-421.5 553.785,-425.9961 559.6617,-429.5853 565.7124,-432.4322"/>
<polygon fill="#191970" stroke="#191970" points="475.0199,-270.7172 469.2301,-261.8443 468.223,-272.3911 475.0199,-270.7172"/>
</g>
<!-- Node20&#45;&gt;Node13 -->
<g id="edge27" class="edge">
<title>Node20&#45;&gt;Node13</title>
<path fill="none" stroke="#191970" d="M474.5486,-271.142C486.3609,-299.4587 511.7807,-351.721 549,-382.5 553.8784,-386.5343 559.6644,-389.8177 565.5659,-392.4693"/>
<polygon fill="#191970" stroke="#191970" points="477.6715,-269.527 470.6915,-261.5565 471.1776,-272.1401 477.6715,-269.527"/>
</g>
<!-- Node21&#45;&gt;Node3 -->
<g id="edge29" class="edge">
<title>Node21&#45;&gt;Node3</title>
<path fill="none" stroke="#191970" d="M142.8746,-437.5C151.8717,-437.5 161.4348,-437.5 169.7695,-437.5"/>
<polygon fill="#191970" stroke="#191970" points="142.6801,-434.0001 132.6801,-437.5 142.6801,-441.0001 142.6801,-434.0001"/>
</g>
<!-- Node22&#45;&gt;Node23 -->
<g id="edge31" class="edge">
<title>Node22&#45;&gt;Node23</title>
<path fill="none" stroke="#191970" d="M141.4873,-331.3635C151.9721,-334.6479 163.3639,-338.2164 172.7623,-341.1605"/>
<polygon fill="#191970" stroke="#191970" points="142.3963,-327.9806 131.8073,-328.3312 140.3038,-334.6605 142.3963,-327.9806"/>
</g>
<!-- Node23&#45;&gt;Node5 -->
<g id="edge32" class="edge">
<title>Node23&#45;&gt;Node5</title>
<path fill="none" stroke="#191970" d="M223.3873,-347.5C257.1949,-347.5 310.9938,-347.5 340.9783,-347.5"/>
<polygon fill="#191970" stroke="#191970" points="223.1688,-344.0001 213.1688,-347.5 223.1688,-351.0001 223.1688,-344.0001"/>
</g>
<!-- Node24&#45;&gt;Node5 -->
<g id="edge35" class="edge">
<title>Node24&#45;&gt;Node5</title>
<path fill="none" stroke="#191970" d="M224.6389,-294.5972C258.4303,-307.5175 311.114,-327.6612 340.77,-339.0003"/>
<polygon fill="#191970" stroke="#191970" points="225.8151,-291.2999 215.2245,-290.9976 223.3151,-297.8382 225.8151,-291.2999"/>
</g>
<!-- Node25&#45;&gt;Node24 -->
<g id="edge37" class="edge">
<title>Node25&#45;&gt;Node24</title>
<path fill="none" stroke="#191970" d="M140.5269,-257.844C150.8822,-262.7097 162.2195,-268.0369 171.6979,-272.4906"/>
<polygon fill="#191970" stroke="#191970" points="141.9137,-254.6285 131.3746,-253.5435 138.9368,-260.964 141.9137,-254.6285"/>
</g>
<!-- Node27&#45;&gt;Node5 -->
<g id="edge41" class="edge">
<title>Node27&#45;&gt;Node5</title>
<path fill="none" stroke="#191970" d="M293.8867,-266.527C311.6566,-287.3462 340.2595,-320.8573 354.4486,-337.4812"/>
<polygon fill="#191970" stroke="#191970" points="296.379,-264.0557 287.2247,-258.7219 291.0547,-268.6002 296.379,-264.0557"/>
</g>
<!-- Node28&#45;&gt;Node5 -->
<g id="edge45" class="edge">
<title>Node28&#45;&gt;Node5</title>
<path fill="none" stroke="#191970" d="M215.717,-142.857C240.237,-161.4164 279.2301,-193.6627 305,-228.5 331.9259,-264.9 351.7575,-315.7473 359.4684,-337.2514"/>
<polygon fill="#191970" stroke="#191970" points="217.5012,-139.822 207.3894,-136.6592 213.3218,-145.4374 217.5012,-139.822"/>
</g>
<!-- Node30&#45;&gt;Node5 -->
<g id="edge48" class="edge">
<title>Node30&#45;&gt;Node5</title>
<path fill="none" stroke="#191970" d="M303.6549,-613.3709C304.1298,-612.7619 304.5796,-612.1382 305,-611.5 333.7196,-567.904 356.33,-400.6631 361.7557,-357.6395"/>
<polygon fill="#191970" stroke="#191970" points="301.126,-610.9485 296.4154,-620.4385 306.016,-615.9573 301.126,-610.9485"/>
</g>
<!-- Node31&#45;&gt;Node28 -->
<g id="edge50" class="edge">
<title>Node31&#45;&gt;Node28</title>
<path fill="none" stroke="#191970" d="M144.1152,-127.089C153.7215,-126.9732 163.8734,-126.8509 172.4215,-126.7479"/>
<polygon fill="#191970" stroke="#191970" points="143.9641,-123.5904 134.007,-127.2108 144.0485,-130.5899 143.9641,-123.5904"/>
</g>
<!-- Node31&#45;&gt;Node29 -->
<g id="edge51" class="edge">
<title>Node31&#45;&gt;Node29</title>
<path fill="none" stroke="#191970" d="M141.3717,-141.863C151.2359,-146.3791 161.9132,-151.2675 170.9839,-155.4204"/>
<polygon fill="#191970" stroke="#191970" points="142.7919,-138.6638 132.2425,-137.6833 139.8779,-145.0285 142.7919,-138.6638"/>
</g>
<!-- Node32&#45;&gt;Node5 -->
<g id="edge53" class="edge">
<title>Node32&#45;&gt;Node5</title>
<path fill="none" stroke="#191970" d="M299.5043,-573.9467C301.5607,-571.5991 303.4538,-569.0989 305,-566.5 347.8355,-494.5028 359.5421,-390.705 362.2662,-357.8667"/>
<polygon fill="#191970" stroke="#191970" points="296.7712,-571.7288 292.1505,-581.2629 301.7082,-576.6912 296.7712,-571.7288"/>
</g>
</g>
</svg>
