<?xml version="1.0" encoding="UTF-8" standalone="no"?>
<!DOCTYPE svg PUBLIC "-//W3C//DTD SVG 1.1//EN"
 "http://www.w3.org/Graphics/SVG/1.1/DTD/svg11.dtd">
<!-- Generated by graphviz version 2.40.1 (20161225.0304)
 -->
<!-- Title: HelixHoughBin_v1::get_d_center Pages: 1 -->
<svg width="307pt" height="92pt"
 viewBox="0.00 0.00 307.00 92.00" xmlns="http://www.w3.org/2000/svg" xmlns:xlink="http://www.w3.org/1999/xlink">
<g id="graph0" class="graph" transform="scale(1 1) rotate(0) translate(4 88)">
<title>HelixHoughBin_v1::get_d_center</title>
<!-- Node1 -->
<g id="node1" class="node">
<title>Node1</title>
<polygon fill="#bfbfbf" stroke="#000000" points="0,-25.5 0,-57.5 133,-57.5 133,-25.5 0,-25.5"/>
<text text-anchor="start" x="8" y="-44.5" font-family="FreeSans" font-size="10.00" fill="#000000">HelixHoughBin_v1::get</text>
<text text-anchor="middle" x="66.5" y="-32.5" font-family="FreeSans" font-size="10.00" fill="#000000">_d_center</text>
</g>
<!-- Node2 -->
<g id="node2" class="node">
<title>Node2</title>
<g id="a_node2"><a xlink:href="../../d3/d0a/classHelixHoughSpace.html#a14db527c92a48ba8718450147d69fcd2" target="_top" xlink:title="HelixHoughSpace::get\l_d_bin_size">
<polygon fill="none" stroke="#000000" points="169,-51.5 169,-83.5 299,-83.5 299,-51.5 169,-51.5"/>
<text text-anchor="start" x="177" y="-70.5" font-family="FreeSans" font-size="10.00" fill="#000000">HelixHoughSpace::get</text>
<text text-anchor="middle" x="234" y="-58.5" font-family="FreeSans" font-size="10.00" fill="#000000">_d_bin_size</text>
</a>
</g>
</g>
<!-- Node1&#45;&gt;Node2 -->
<g id="edge1" class="edge">
<title>Node1&#45;&gt;Node2</title>
<path fill="none" stroke="#191970" d="M133.1817,-51.8506C141.6406,-53.1636 150.342,-54.5143 158.9208,-55.8459"/>
<polygon fill="#191970" stroke="#191970" points="158.4947,-59.3216 168.9133,-57.397 159.5685,-52.4044 158.4947,-59.3216"/>
</g>
<!-- Node3 -->
<g id="node3" class="node">
<title>Node3</title>
<g id="a_node3"><a xlink:href="../../d3/d0a/classHelixHoughSpace.html#a6a52d8c7641a0c32eeb7d2e221fec435" target="_top" xlink:title="HelixHoughSpace::get\l_d_min">
<polygon fill="none" stroke="#000000" points="169,-.5 169,-32.5 299,-32.5 299,-.5 169,-.5"/>
<text text-anchor="start" x="177" y="-19.5" font-family="FreeSans" font-size="10.00" fill="#000000">HelixHoughSpace::get</text>
<text text-anchor="middle" x="234" y="-7.5" font-family="FreeSans" font-size="10.00" fill="#000000">_d_min</text>
</a>
</g>
</g>
<!-- Node1&#45;&gt;Node3 -->
<g id="edge2" class="edge">
<title>Node1&#45;&gt;Node3</title>
<path fill="none" stroke="#191970" d="M133.1817,-31.5475C141.6406,-30.285 150.342,-28.9863 158.9208,-27.7059"/>
<polygon fill="#191970" stroke="#191970" points="159.5395,-31.1524 168.9133,-26.2144 158.5061,-24.2291 159.5395,-31.1524"/>
</g>
</g>
</svg>
