<?xml version="1.0" encoding="UTF-8" standalone="no"?>
<!DOCTYPE svg PUBLIC "-//W3C//DTD SVG 1.1//EN"
 "http://www.w3.org/Graphics/SVG/1.1/DTD/svg11.dtd">
<!-- Generated by graphviz version 2.40.1 (20161225.0304)
 -->
<!-- Title: HelixHoughBin_v1::get_neighbors_global_bin Pages: 1 -->
<svg width="327pt" height="578pt"
 viewBox="0.00 0.00 327.00 578.00" xmlns="http://www.w3.org/2000/svg" xmlns:xlink="http://www.w3.org/1999/xlink">
<g id="graph0" class="graph" transform="scale(1 1) rotate(0) translate(4 574)">
<title>HelixHoughBin_v1::get_neighbors_global_bin</title>
<!-- Node1 -->
<g id="node1" class="node">
<title>Node1</title>
<polygon fill="#bfbfbf" stroke="#000000" points="0,-268.5 0,-300.5 133,-300.5 133,-268.5 0,-268.5"/>
<text text-anchor="start" x="8" y="-287.5" font-family="FreeSans" font-size="10.00" fill="#000000">HelixHoughBin_v1::get</text>
<text text-anchor="middle" x="66.5" y="-275.5" font-family="FreeSans" font-size="10.00" fill="#000000">_neighbors_global_bin</text>
</g>
<!-- Node2 -->
<g id="node2" class="node">
<title>Node2</title>
<g id="a_node2"><a xlink:href="../../d3/d0a/classHelixHoughSpace.html#a3df7b58b924a578806f905e4c82576cb" target="_top" xlink:title="HelixHoughSpace::get_bin">
<polygon fill="none" stroke="#000000" points="169,-549.5 169,-569.5 319,-569.5 319,-549.5 169,-549.5"/>
<text text-anchor="middle" x="244" y="-556.5" font-family="FreeSans" font-size="10.00" fill="#000000">HelixHoughSpace::get_bin</text>
</a>
</g>
</g>
<!-- Node1&#45;&gt;Node2 -->
<g id="edge1" class="edge">
<title>Node1&#45;&gt;Node2</title>
<path fill="none" stroke="#191970" d="M67.9831,-300.5541C73.037,-345.672 93.7122,-474.5961 169,-540.5 170.5539,-541.8603 172.1918,-543.1257 173.8978,-544.3027"/>
<polygon fill="#191970" stroke="#191970" points="172.5079,-547.5404 182.9235,-549.4815 175.9917,-541.4689 172.5079,-547.5404"/>
</g>
<!-- Node3 -->
<g id="node3" class="node">
<title>Node3</title>
<g id="a_node3"><a xlink:href="../../dc/d74/classHelixHoughBin__v1.html#adabf8f91be74f426cb23de37ef48fe2a" target="_top" xlink:title="HelixHoughBin_v1::get\l_d_bin">
<polygon fill="none" stroke="#000000" points="177.5,-498.5 177.5,-530.5 310.5,-530.5 310.5,-498.5 177.5,-498.5"/>
<text text-anchor="start" x="185.5" y="-517.5" font-family="FreeSans" font-size="10.00" fill="#000000">HelixHoughBin_v1::get</text>
<text text-anchor="middle" x="244" y="-505.5" font-family="FreeSans" font-size="10.00" fill="#000000">_d_bin</text>
</a>
</g>
</g>
<!-- Node1&#45;&gt;Node3 -->
<g id="edge2" class="edge">
<title>Node1&#45;&gt;Node3</title>
<path fill="none" stroke="#191970" d="M70.0831,-300.7003C79.4225,-339.164 108.1277,-436.7058 169,-489.5 170.3544,-490.6747 171.7659,-491.7946 173.225,-492.8622"/>
<polygon fill="#191970" stroke="#191970" points="171.7137,-496.047 182.0386,-498.4231 175.449,-490.1269 171.7137,-496.047"/>
</g>
<!-- Node4 -->
<g id="node4" class="node">
<title>Node4</title>
<g id="a_node4"><a xlink:href="../../dc/d74/classHelixHoughBin__v1.html#acf889421bae7671495357e264b561a01" target="_top" xlink:title="HelixHoughBin_v1::get\l_dzdl_bin">
<polygon fill="none" stroke="#000000" points="177.5,-447.5 177.5,-479.5 310.5,-479.5 310.5,-447.5 177.5,-447.5"/>
<text text-anchor="start" x="185.5" y="-466.5" font-family="FreeSans" font-size="10.00" fill="#000000">HelixHoughBin_v1::get</text>
<text text-anchor="middle" x="244" y="-454.5" font-family="FreeSans" font-size="10.00" fill="#000000">_dzdl_bin</text>
</a>
</g>
</g>
<!-- Node1&#45;&gt;Node4 -->
<g id="edge3" class="edge">
<title>Node1&#45;&gt;Node4</title>
<path fill="none" stroke="#191970" d="M72.9138,-300.5651C86.1592,-331.733 119.4988,-400.6618 169,-438.5 170.8163,-439.8883 172.7137,-441.2018 174.674,-442.4444"/>
<polygon fill="#191970" stroke="#191970" points="173.1798,-445.619 183.6153,-447.4497 176.5991,-439.5109 173.1798,-445.619"/>
</g>
<!-- Node5 -->
<g id="node5" class="node">
<title>Node5</title>
<g id="a_node5"><a xlink:href="../../dc/d74/classHelixHoughBin__v1.html#aeb68cd1f0e4c6f57114b4ba03c4d5873" target="_top" xlink:title="HelixHoughBin_v1::get\l_kappa_bin">
<polygon fill="none" stroke="#000000" points="177.5,-396.5 177.5,-428.5 310.5,-428.5 310.5,-396.5 177.5,-396.5"/>
<text text-anchor="start" x="185.5" y="-415.5" font-family="FreeSans" font-size="10.00" fill="#000000">HelixHoughBin_v1::get</text>
<text text-anchor="middle" x="244" y="-403.5" font-family="FreeSans" font-size="10.00" fill="#000000">_kappa_bin</text>
</a>
</g>
</g>
<!-- Node1&#45;&gt;Node5 -->
<g id="edge4" class="edge">
<title>Node1&#45;&gt;Node5</title>
<path fill="none" stroke="#191970" d="M78.6177,-300.7712C96.1857,-323.2892 130.8302,-363.8455 169,-387.5 171.5994,-389.1109 174.3146,-390.6308 177.1055,-392.0633"/>
<polygon fill="#191970" stroke="#191970" points="175.6886,-395.2646 186.2282,-396.3454 178.663,-388.9279 175.6886,-395.2646"/>
</g>
<!-- Node6 -->
<g id="node6" class="node">
<title>Node6</title>
<g id="a_node6"><a xlink:href="../../d3/d0a/classHelixHoughSpace.html#aa63070d7c23e23c04f082ae73dac7d1b" target="_top" xlink:title="HelixHoughSpace::get\l_n_d_bins">
<polygon fill="none" stroke="#000000" points="179,-345.5 179,-377.5 309,-377.5 309,-345.5 179,-345.5"/>
<text text-anchor="start" x="187" y="-364.5" font-family="FreeSans" font-size="10.00" fill="#000000">HelixHoughSpace::get</text>
<text text-anchor="middle" x="244" y="-352.5" font-family="FreeSans" font-size="10.00" fill="#000000">_n_d_bins</text>
</a>
</g>
</g>
<!-- Node1&#45;&gt;Node6 -->
<g id="edge5" class="edge">
<title>Node1&#45;&gt;Node6</title>
<path fill="none" stroke="#191970" d="M95.5604,-300.6953C115.7901,-311.6064 143.5903,-325.888 169,-336.5 173.4367,-338.3529 178.0636,-340.1669 182.7455,-341.9178"/>
<polygon fill="#191970" stroke="#191970" points="181.7956,-345.2964 192.3897,-345.4157 184.1823,-338.7158 181.7956,-345.2964"/>
</g>
<!-- Node7 -->
<g id="node7" class="node">
<title>Node7</title>
<g id="a_node7"><a xlink:href="../../d3/d0a/classHelixHoughSpace.html#a23043bffadab63037d568c7dde828f23" target="_top" xlink:title="HelixHoughSpace::get\l_n_dzdl_bins">
<polygon fill="none" stroke="#000000" points="179,-294.5 179,-326.5 309,-326.5 309,-294.5 179,-294.5"/>
<text text-anchor="start" x="187" y="-313.5" font-family="FreeSans" font-size="10.00" fill="#000000">HelixHoughSpace::get</text>
<text text-anchor="middle" x="244" y="-301.5" font-family="FreeSans" font-size="10.00" fill="#000000">_n_dzdl_bins</text>
</a>
</g>
</g>
<!-- Node1&#45;&gt;Node7 -->
<g id="edge6" class="edge">
<title>Node1&#45;&gt;Node7</title>
<path fill="none" stroke="#191970" d="M133.0995,-294.2554C144.6643,-295.9494 156.7652,-297.7219 168.5463,-299.4476"/>
<polygon fill="#191970" stroke="#191970" points="168.3938,-302.9626 178.7955,-300.9489 169.4084,-296.0365 168.3938,-302.9626"/>
</g>
<!-- Node8 -->
<g id="node8" class="node">
<title>Node8</title>
<g id="a_node8"><a xlink:href="../../d3/d0a/classHelixHoughSpace.html#a1582eab9546806cf97cd2598554bfa20" target="_top" xlink:title="HelixHoughSpace::get\l_n_kappa_bins">
<polygon fill="none" stroke="#000000" points="179,-243.5 179,-275.5 309,-275.5 309,-243.5 179,-243.5"/>
<text text-anchor="start" x="187" y="-262.5" font-family="FreeSans" font-size="10.00" fill="#000000">HelixHoughSpace::get</text>
<text text-anchor="middle" x="244" y="-250.5" font-family="FreeSans" font-size="10.00" fill="#000000">_n_kappa_bins</text>
</a>
</g>
</g>
<!-- Node1&#45;&gt;Node8 -->
<g id="edge7" class="edge">
<title>Node1&#45;&gt;Node8</title>
<path fill="none" stroke="#191970" d="M133.0995,-275.1198C144.6643,-273.4909 156.7652,-271.7866 168.5463,-270.1273"/>
<polygon fill="#191970" stroke="#191970" points="169.3814,-273.5443 178.7955,-268.6837 168.405,-266.6127 169.3814,-273.5443"/>
</g>
<!-- Node9 -->
<g id="node9" class="node">
<title>Node9</title>
<g id="a_node9"><a xlink:href="../../d3/d0a/classHelixHoughSpace.html#ac44a69f6dad12f3f04d436585e70a447" target="_top" xlink:title="HelixHoughSpace::get\l_n_phi_bins">
<polygon fill="none" stroke="#000000" points="179,-192.5 179,-224.5 309,-224.5 309,-192.5 179,-192.5"/>
<text text-anchor="start" x="187" y="-211.5" font-family="FreeSans" font-size="10.00" fill="#000000">HelixHoughSpace::get</text>
<text text-anchor="middle" x="244" y="-199.5" font-family="FreeSans" font-size="10.00" fill="#000000">_n_phi_bins</text>
</a>
</g>
</g>
<!-- Node1&#45;&gt;Node9 -->
<g id="edge8" class="edge">
<title>Node1&#45;&gt;Node9</title>
<path fill="none" stroke="#191970" d="M97.0068,-268.422C117.1619,-258.0991 144.3164,-244.7554 169,-234.5 174.2993,-232.2983 179.859,-230.1249 185.4542,-228.0289"/>
<polygon fill="#191970" stroke="#191970" points="186.6774,-231.3083 194.8642,-224.5832 184.2705,-224.7351 186.6774,-231.3083"/>
</g>
<!-- Node10 -->
<g id="node10" class="node">
<title>Node10</title>
<g id="a_node10"><a xlink:href="../../d3/d0a/classHelixHoughSpace.html#a165f877513788cf7f2346f2d4459bdff" target="_top" xlink:title="HelixHoughSpace::get\l_n_z0_bins">
<polygon fill="none" stroke="#000000" points="179,-141.5 179,-173.5 309,-173.5 309,-141.5 179,-141.5"/>
<text text-anchor="start" x="187" y="-160.5" font-family="FreeSans" font-size="10.00" fill="#000000">HelixHoughSpace::get</text>
<text text-anchor="middle" x="244" y="-148.5" font-family="FreeSans" font-size="10.00" fill="#000000">_n_z0_bins</text>
</a>
</g>
</g>
<!-- Node1&#45;&gt;Node10 -->
<g id="edge9" class="edge">
<title>Node1&#45;&gt;Node10</title>
<path fill="none" stroke="#191970" d="M79.0278,-268.2477C96.8179,-246.1835 131.4381,-206.8336 169,-183.5 172.329,-181.432 175.8438,-179.5027 179.4622,-177.7066"/>
<polygon fill="#191970" stroke="#191970" points="180.9865,-180.8582 188.6227,-173.5138 178.0732,-174.4932 180.9865,-180.8582"/>
</g>
<!-- Node11 -->
<g id="node11" class="node">
<title>Node11</title>
<g id="a_node11"><a xlink:href="../../dc/d74/classHelixHoughBin__v1.html#a93708a5cd046f6c30a3cb7ca76235590" target="_top" xlink:title="HelixHoughBin_v1::get\l_phi_bin">
<polygon fill="none" stroke="#000000" points="177.5,-90.5 177.5,-122.5 310.5,-122.5 310.5,-90.5 177.5,-90.5"/>
<text text-anchor="start" x="185.5" y="-109.5" font-family="FreeSans" font-size="10.00" fill="#000000">HelixHoughBin_v1::get</text>
<text text-anchor="middle" x="244" y="-97.5" font-family="FreeSans" font-size="10.00" fill="#000000">_phi_bin</text>
</a>
</g>
</g>
<!-- Node1&#45;&gt;Node11 -->
<g id="edge10" class="edge">
<title>Node1&#45;&gt;Node11</title>
<path fill="none" stroke="#191970" d="M73.2206,-268.2185C86.7753,-237.3249 120.3066,-169.9491 169,-132.5 171.3043,-130.7278 173.738,-129.0712 176.2643,-127.523"/>
<polygon fill="#191970" stroke="#191970" points="178.0569,-130.532 185.156,-122.6673 174.7019,-124.3884 178.0569,-130.532"/>
</g>
<!-- Node12 -->
<g id="node12" class="node">
<title>Node12</title>
<g id="a_node12"><a xlink:href="../../dc/d74/classHelixHoughBin__v1.html#ab3bc3c2fa3040d93c3fccc0907c59afe" target="_top" xlink:title="HelixHoughBin_v1::get\l_z0_bin">
<polygon fill="none" stroke="#000000" points="177.5,-39.5 177.5,-71.5 310.5,-71.5 310.5,-39.5 177.5,-39.5"/>
<text text-anchor="start" x="185.5" y="-58.5" font-family="FreeSans" font-size="10.00" fill="#000000">HelixHoughBin_v1::get</text>
<text text-anchor="middle" x="244" y="-46.5" font-family="FreeSans" font-size="10.00" fill="#000000">_z0_bin</text>
</a>
</g>
</g>
<!-- Node1&#45;&gt;Node12 -->
<g id="edge11" class="edge">
<title>Node1&#45;&gt;Node12</title>
<path fill="none" stroke="#191970" d="M70.2439,-268.2205C79.8527,-230.0378 108.9615,-133.9944 169,-81.5 170.7702,-79.9523 172.6376,-78.4953 174.5813,-77.124"/>
<polygon fill="#191970" stroke="#191970" points="176.8294,-79.8514 183.5285,-71.6433 173.1729,-73.8823 176.8294,-79.8514"/>
</g>
<!-- Node13 -->
<g id="node13" class="node">
<title>Node13</title>
<g id="a_node13"><a xlink:href="../../da/d0a/CylinderKalman_8cpp.html#ab74daa0c9784c63e060bfb98cc06fbf5" target="_top" xlink:title="sign">
<polygon fill="none" stroke="#000000" points="225.5,-.5 225.5,-20.5 262.5,-20.5 262.5,-.5 225.5,-.5"/>
<text text-anchor="middle" x="244" y="-7.5" font-family="FreeSans" font-size="10.00" fill="#000000">sign</text>
</a>
</g>
</g>
<!-- Node1&#45;&gt;Node13 -->
<g id="edge12" class="edge">
<title>Node1&#45;&gt;Node13</title>
<path fill="none" stroke="#191970" d="M68.1049,-268.2936C73.4426,-223.3556 94.7178,-96.1676 169,-30.5 181.715,-19.2595 200.0705,-14.2383 215.4398,-12.0375"/>
<polygon fill="#191970" stroke="#191970" points="215.9434,-15.5032 225.4969,-10.9227 215.1722,-8.5458 215.9434,-15.5032"/>
</g>
</g>
</svg>
