<?xml version="1.0" encoding="UTF-8" standalone="no"?>
<!DOCTYPE svg PUBLIC "-//W3C//DTD SVG 1.1//EN"
 "http://www.w3.org/Graphics/SVG/1.1/DTD/svg11.dtd">
<!-- Generated by graphviz version 2.40.1 (20161225.0304)
 -->
<!-- Title: PHG4TrackUserInfoV1 Pages: 1 -->
<svg width="254pt" height="214pt"
 viewBox="0.00 0.00 253.50 214.00" xmlns="http://www.w3.org/2000/svg" xmlns:xlink="http://www.w3.org/1999/xlink">
<g id="graph0" class="graph" transform="scale(1 1) rotate(0) translate(4 210)">
<title>PHG4TrackUserInfoV1</title>
<!-- Node1 -->
<g id="node1" class="node">
<title>Node1</title>
<polygon fill="#bfbfbf" stroke="#000000" points="25.5,-.5 25.5,-20.5 151.5,-20.5 151.5,-.5 25.5,-.5"/>
<text text-anchor="middle" x="88.5" y="-7.5" font-family="FreeSans" font-size="10.00" fill="#000000">PHG4TrackUserInfoV1</text>
</g>
<!-- Node2 -->
<g id="node2" class="node">
<title>Node2</title>
<polygon fill="none" stroke="#bfbfbf" points="0,-69.5 0,-89.5 145,-89.5 145,-69.5 0,-69.5"/>
<text text-anchor="middle" x="72.5" y="-76.5" font-family="FreeSans" font-size="10.00" fill="#000000">G4VUserTrackInformation</text>
</g>
<!-- Node2&#45;&gt;Node1 -->
<g id="edge1" class="edge">
<title>Node2&#45;&gt;Node1</title>
<path fill="none" stroke="#191970" d="M77.2031,-59.2177C80.1363,-46.5684 83.7862,-30.8285 86.1295,-20.723"/>
<polygon fill="#191970" stroke="#191970" points="73.7103,-58.7866 74.8609,-69.3188 80.5294,-60.3679 73.7103,-58.7866"/>
</g>
<!-- Node3 -->
<g id="node3" class="node">
<title>Node3</title>
<g id="a_node3"><a xlink:href="../../db/d88/classPHG4Shower.html" target="_top" xlink:title="PHG4Shower">
<polygon fill="none" stroke="#000000" points="163.5,-69.5 163.5,-89.5 245.5,-89.5 245.5,-69.5 163.5,-69.5"/>
<text text-anchor="middle" x="204.5" y="-76.5" font-family="FreeSans" font-size="10.00" fill="#000000">PHG4Shower</text>
</a>
</g>
</g>
<!-- Node3&#45;&gt;Node1 -->
<g id="edge2" class="edge">
<title>Node3&#45;&gt;Node1</title>
<path fill="none" stroke="#9a32cd" stroke-dasharray="5,2" d="M178.7746,-64.1978C156.5296,-50.9659 124.9921,-32.2065 105.6864,-20.723"/>
<polygon fill="#9a32cd" stroke="#9a32cd" points="177,-67.2146 187.3838,-69.3188 180.5786,-61.1985 177,-67.2146"/>
<text text-anchor="middle" x="173" y="-42" font-family="FreeSans" font-size="10.00" fill="#000000"> shower</text>
</g>
<!-- Node4 -->
<g id="node4" class="node">
<title>Node4</title>
<g id="a_node4"><a xlink:href="../../d9/d24/classPHObject.html" target="_top" xlink:title="PHObject">
<polygon fill="none" stroke="#000000" points="173,-127.5 173,-147.5 236,-147.5 236,-127.5 173,-127.5"/>
<text text-anchor="middle" x="204.5" y="-134.5" font-family="FreeSans" font-size="10.00" fill="#000000">PHObject</text>
</a>
</g>
</g>
<!-- Node4&#45;&gt;Node3 -->
<g id="edge3" class="edge">
<title>Node4&#45;&gt;Node3</title>
<path fill="none" stroke="#191970" d="M204.5,-117.3902C204.5,-108.1201 204.5,-97.5083 204.5,-89.8776"/>
<polygon fill="#191970" stroke="#191970" points="201.0001,-117.3971 204.5,-127.3972 208.0001,-117.3972 201.0001,-117.3971"/>
</g>
<!-- Node5 -->
<g id="node5" class="node">
<title>Node5</title>
<polygon fill="none" stroke="#bfbfbf" points="176,-185.5 176,-205.5 233,-205.5 233,-185.5 176,-185.5"/>
<text text-anchor="middle" x="204.5" y="-192.5" font-family="FreeSans" font-size="10.00" fill="#000000">TObject</text>
</g>
<!-- Node5&#45;&gt;Node4 -->
<g id="edge4" class="edge">
<title>Node5&#45;&gt;Node4</title>
<path fill="none" stroke="#191970" d="M204.5,-175.3902C204.5,-166.1201 204.5,-155.5083 204.5,-147.8776"/>
<polygon fill="#191970" stroke="#191970" points="201.0001,-175.3971 204.5,-185.3972 208.0001,-175.3972 201.0001,-175.3971"/>
</g>
</g>
</svg>
