<?xml version="1.0" encoding="UTF-8" standalone="no"?>
<!DOCTYPE svg PUBLIC "-//W3C//DTD SVG 1.1//EN"
 "http://www.w3.org/Graphics/SVG/1.1/DTD/svg11.dtd">
<!-- Generated by graphviz version 2.40.1 (20161225.0304)
 -->
<!-- Title: PHG4InnerHcalSubsystem Pages: 1 -->
<svg width="2004pt" height="837pt"
 viewBox="0.00 0.00 2004.00 836.76" xmlns="http://www.w3.org/2000/svg" xmlns:xlink="http://www.w3.org/1999/xlink">
<g id="graph0" class="graph" transform="scale(1 1) rotate(0) translate(4 832.7564)">
<title>PHG4InnerHcalSubsystem</title>
<!-- Node1 -->
<g id="node1" class="node">
<title>Node1</title>
<polygon fill="#bfbfbf" stroke="#000000" points="1848,-304.7564 1848,-324.7564 1996,-324.7564 1996,-304.7564 1848,-304.7564"/>
<text text-anchor="middle" x="1922" y="-311.7564" font-family="FreeSans" font-size="10.00" fill="#000000">PHG4InnerHcalSubsystem</text>
</g>
<!-- Node2 -->
<g id="node2" class="node">
<title>Node2</title>
<g id="a_node2"><a xlink:href="../../d5/d29/classPHG4DetectorSubsystem.html" target="_top" xlink:title="PHG4DetectorSubsystem">
<polygon fill="none" stroke="#000000" points="1605,-497.7564 1605,-517.7564 1749,-517.7564 1749,-497.7564 1605,-497.7564"/>
<text text-anchor="middle" x="1677" y="-504.7564" font-family="FreeSans" font-size="10.00" fill="#000000">PHG4DetectorSubsystem</text>
</a>
</g>
</g>
<!-- Node2&#45;&gt;Node1 -->
<g id="edge1" class="edge">
<title>Node2&#45;&gt;Node1</title>
<path fill="none" stroke="#191970" d="M1697.8793,-491.3086C1747.1577,-452.4893 1869.536,-356.0852 1909.2997,-324.7611"/>
<polygon fill="#191970" stroke="#191970" points="1695.5169,-488.714 1689.8273,-497.6516 1699.8486,-494.2128 1695.5169,-488.714"/>
</g>
<!-- Node3 -->
<g id="node3" class="node">
<title>Node3</title>
<g id="a_node3"><a xlink:href="../../db/df7/classPHG4Subsystem.html" target="_top" xlink:title="PHG4Subsystem">
<polygon fill="none" stroke="#000000" points="962,-252.7564 962,-272.7564 1062,-272.7564 1062,-252.7564 962,-252.7564"/>
<text text-anchor="middle" x="1012" y="-259.7564" font-family="FreeSans" font-size="10.00" fill="#000000">PHG4Subsystem</text>
</a>
</g>
</g>
<!-- Node3&#45;&gt;Node2 -->
<g id="edge2" class="edge">
<title>Node3&#45;&gt;Node2</title>
<path fill="none" stroke="#191970" d="M1043.9236,-276.9153C1086.9931,-295.5284 1166.4553,-328.1542 1237,-347.7564 1389.3621,-390.093 1448.167,-336.0463 1587,-411.7564 1626.1112,-433.0849 1657.8583,-477.6214 1670.7672,-497.6349"/>
<polygon fill="#191970" stroke="#191970" points="1045.1088,-273.6141 1034.5428,-272.8336 1042.3159,-280.0329 1045.1088,-273.6141"/>
</g>
<!-- Node3&#45;&gt;Node3 -->
<g id="edge7" class="edge">
<title>Node3&#45;&gt;Node3</title>
<path fill="none" stroke="#9a32cd" stroke-dasharray="5,2" d="M982.5513,-281.9202C983.9575,-287.211 993.7737,-291.2564 1012,-291.2564 1039.7734,-291.2564 1048.0187,-281.863 1036.7357,-272.9834"/>
<polygon fill="#9a32cd" stroke="#9a32cd" points="985.6954,-283.4615 987.2643,-272.9834 979.5036,-280.1961 985.6954,-283.4615"/>
<text text-anchor="middle" x="1012" y="-294.2564" font-family="FreeSans" font-size="10.00" fill="#000000"> m_MyMotherSubsystem</text>
</g>
<!-- Node21 -->
<g id="node21" class="node">
<title>Node21</title>
<g id="a_node21"><a xlink:href="../../d3/de7/classPHG4Detector.html" target="_top" xlink:title="base class for phenix detector creation">
<polygon fill="none" stroke="#000000" points="1285.5,-274.7564 1285.5,-294.7564 1373.5,-294.7564 1373.5,-274.7564 1285.5,-274.7564"/>
<text text-anchor="middle" x="1329.5" y="-281.7564" font-family="FreeSans" font-size="10.00" fill="#000000">PHG4Detector</text>
</a>
</g>
</g>
<!-- Node3&#45;&gt;Node21 -->
<g id="edge37" class="edge">
<title>Node3&#45;&gt;Node21</title>
<path fill="none" stroke="#9a32cd" stroke-dasharray="5,2" d="M1072.3662,-266.9392C1134.5107,-271.2453 1229.8606,-277.8522 1285.3119,-281.6945"/>
<polygon fill="#9a32cd" stroke="#9a32cd" points="1072.5269,-263.442 1062.3088,-266.2423 1072.0429,-270.4253 1072.5269,-263.442"/>
<text text-anchor="middle" x="1170" y="-279.7564" font-family="FreeSans" font-size="10.00" fill="#000000"> m_MySubsystem</text>
</g>
<!-- Node4 -->
<g id="node4" class="node">
<title>Node4</title>
<g id="a_node4"><a xlink:href="../../d0/d32/classSubsysReco.html" target="_top" xlink:title="SubsysReco">
<polygon fill="none" stroke="#000000" points="646.5,-252.7564 646.5,-272.7564 722.5,-272.7564 722.5,-252.7564 646.5,-252.7564"/>
<text text-anchor="middle" x="684.5" y="-259.7564" font-family="FreeSans" font-size="10.00" fill="#000000">SubsysReco</text>
</a>
</g>
</g>
<!-- Node4&#45;&gt;Node3 -->
<g id="edge3" class="edge">
<title>Node4&#45;&gt;Node3</title>
<path fill="none" stroke="#191970" d="M732.9004,-262.7564C794.2571,-262.7564 899.5155,-262.7564 961.7428,-262.7564"/>
<polygon fill="#191970" stroke="#191970" points="732.7094,-259.2565 722.7094,-262.7564 732.7093,-266.2565 732.7094,-259.2565"/>
</g>
<!-- Node5 -->
<g id="node5" class="node">
<title>Node5</title>
<g id="a_node5"><a xlink:href="../../d5/dec/classFun4AllBase.html" target="_top" xlink:title="Fun4AllBase">
<polygon fill="none" stroke="#000000" points="342,-250.7564 342,-270.7564 420,-270.7564 420,-250.7564 342,-250.7564"/>
<text text-anchor="middle" x="381" y="-257.7564" font-family="FreeSans" font-size="10.00" fill="#000000">Fun4AllBase</text>
</a>
</g>
</g>
<!-- Node5&#45;&gt;Node4 -->
<g id="edge4" class="edge">
<title>Node5&#45;&gt;Node4</title>
<path fill="none" stroke="#191970" d="M430.0847,-261.0798C490.3161,-261.4767 591.1805,-262.1414 646.0723,-262.5031"/>
<polygon fill="#191970" stroke="#191970" points="430.0789,-257.5798 420.056,-261.0137 430.0327,-264.5796 430.0789,-257.5798"/>
</g>
<!-- Node6 -->
<g id="node6" class="node">
<title>Node6</title>
<g id="a_node6"><a xlink:title="STL class.">
<polygon fill="none" stroke="#bfbfbf" points="144,-377.7564 144,-397.7564 211,-397.7564 211,-377.7564 144,-377.7564"/>
<text text-anchor="middle" x="177.5" y="-384.7564" font-family="FreeSans" font-size="10.00" fill="#000000">std::string</text>
</a>
</g>
</g>
<!-- Node6&#45;&gt;Node2 -->
<g id="edge21" class="edge">
<title>Node6&#45;&gt;Node2</title>
<path fill="none" stroke="#9a32cd" stroke-dasharray="5,2" d="M179.9007,-408.1017C186.7365,-464.2375 207.2217,-620.2198 229,-666.7564 267.6751,-749.3988 289.7557,-804.7564 381,-804.7564 381,-804.7564 381,-804.7564 1329.5,-804.7564 1462.8498,-804.7564 1491.6412,-743.9705 1587,-650.7564 1629.7929,-608.9259 1661.5355,-542.9563 1672.6653,-517.8821"/>
<polygon fill="#9a32cd" stroke="#9a32cd" points="183.3538,-407.501 178.6862,-397.9897 176.4037,-408.3357 183.3538,-407.501"/>
<text text-anchor="middle" x="839" y="-819.7564" font-family="FreeSans" font-size="10.00" fill="#000000"> superdetector</text>
<text text-anchor="middle" x="839" y="-807.7564" font-family="FreeSans" font-size="10.00" fill="#000000">calibfiledir</text>
</g>
<!-- Node6&#45;&gt;Node5 -->
<g id="edge5" class="edge">
<title>Node6&#45;&gt;Node5</title>
<path fill="none" stroke="#9a32cd" stroke-dasharray="5,2" d="M181.5764,-367.6232C187.5688,-343.5734 201.1996,-304.0512 229,-283.7564 261.5502,-259.9941 308.5845,-256.2619 341.6915,-257.1977"/>
<polygon fill="#9a32cd" stroke="#9a32cd" points="178.1442,-366.9322 179.3371,-377.4597 184.9696,-368.486 178.1442,-366.9322"/>
<text text-anchor="middle" x="264" y="-286.7564" font-family="FreeSans" font-size="10.00" fill="#000000"> m_ThisName</text>
</g>
<!-- Node8 -->
<g id="node8" class="node">
<title>Node8</title>
<polygon fill="none" stroke="#bfbfbf" points="322,-636.7564 322,-668.7564 440,-668.7564 440,-636.7564 322,-636.7564"/>
<text text-anchor="start" x="330" y="-655.7564" font-family="FreeSans" font-size="10.00" fill="#000000">std::map&lt; const std</text>
<text text-anchor="middle" x="381" y="-643.7564" font-family="FreeSans" font-size="10.00" fill="#000000">::string, double &gt;</text>
</g>
<!-- Node6&#45;&gt;Node8 -->
<g id="edge9" class="edge">
<title>Node6&#45;&gt;Node8</title>
<path fill="none" stroke="#9a32cd" stroke-dasharray="5,2" d="M179.2166,-407.8161C183.966,-458.5105 198.9598,-589.8556 229,-619.7564 253.1149,-643.7593 290.3135,-652.1286 321.8747,-654.4389"/>
<polygon fill="#9a32cd" stroke="#9a32cd" points="182.6954,-407.4225 178.3128,-397.7767 175.7236,-408.0503 182.6954,-407.4225"/>
<text text-anchor="middle" x="264" y="-653.7564" font-family="FreeSans" font-size="10.00" fill="#000000"> keys</text>
</g>
<!-- Node9 -->
<g id="node9" class="node">
<title>Node9</title>
<polygon fill="none" stroke="#bfbfbf" points="322,-536.7564 322,-568.7564 440,-568.7564 440,-536.7564 322,-536.7564"/>
<text text-anchor="start" x="330" y="-555.7564" font-family="FreeSans" font-size="10.00" fill="#000000">std::map&lt; const std</text>
<text text-anchor="middle" x="381" y="-543.7564" font-family="FreeSans" font-size="10.00" fill="#000000">::string, int &gt;</text>
</g>
<!-- Node6&#45;&gt;Node9 -->
<g id="edge11" class="edge">
<title>Node6&#45;&gt;Node9</title>
<path fill="none" stroke="#9a32cd" stroke-dasharray="5,2" d="M179.3126,-408.0697C183.0963,-437.758 194.5921,-492.6258 229,-521.7564 254.488,-543.3351 290.9466,-551.2826 321.7681,-553.7414"/>
<polygon fill="#9a32cd" stroke="#9a32cd" points="182.7808,-407.5877 178.2083,-398.0303 175.8227,-408.3531 182.7808,-407.5877"/>
<text text-anchor="middle" x="264" y="-552.7564" font-family="FreeSans" font-size="10.00" fill="#000000"> keys</text>
</g>
<!-- Node10 -->
<g id="node10" class="node">
<title>Node10</title>
<g id="a_node10"><a xlink:href="../../dd/dae/classPHParameters.html" target="_top" xlink:title="PHParameters">
<polygon fill="none" stroke="#000000" points="641,-606.7564 641,-626.7564 728,-626.7564 728,-606.7564 641,-606.7564"/>
<text text-anchor="middle" x="684.5" y="-613.7564" font-family="FreeSans" font-size="10.00" fill="#000000">PHParameters</text>
</a>
</g>
</g>
<!-- Node6&#45;&gt;Node10 -->
<g id="edge19" class="edge">
<title>Node6&#45;&gt;Node10</title>
<path fill="none" stroke="#9a32cd" stroke-dasharray="5,2" d="M180.5533,-407.8901C187.3481,-449.9175 205.0294,-544.8208 229,-565.7564 289.6078,-618.6902 538.7562,-619.8167 640.7073,-617.9562"/>
<polygon fill="#9a32cd" stroke="#9a32cd" points="183.9718,-407.0973 178.9624,-397.7615 177.0565,-408.1835 183.9718,-407.0973"/>
<text text-anchor="middle" x="381" y="-616.7564" font-family="FreeSans" font-size="10.00" fill="#000000"> m_Detector</text>
</g>
<!-- Node13 -->
<g id="node13" class="node">
<title>Node13</title>
<polygon fill="none" stroke="#bfbfbf" points="321,-446.7564 321,-478.7564 441,-478.7564 441,-446.7564 321,-446.7564"/>
<text text-anchor="start" x="329" y="-465.7564" font-family="FreeSans" font-size="10.00" fill="#000000">std::map&lt; const std</text>
<text text-anchor="middle" x="381" y="-453.7564" font-family="FreeSans" font-size="10.00" fill="#000000">::string, std::string &gt;</text>
</g>
<!-- Node6&#45;&gt;Node13 -->
<g id="edge18" class="edge">
<title>Node6&#45;&gt;Node13</title>
<path fill="none" stroke="#9a32cd" stroke-dasharray="5,2" d="M190.8843,-405.9075C200.2571,-417.226 213.7909,-431.0582 229,-438.7564 257.1269,-452.993 291.6187,-459.2043 320.6319,-461.764"/>
<polygon fill="#9a32cd" stroke="#9a32cd" points="193.5049,-403.5779 184.5693,-397.8853 188.0046,-407.9078 193.5049,-403.5779"/>
<text text-anchor="middle" x="264" y="-473.7564" font-family="FreeSans" font-size="10.00" fill="#000000"> keys</text>
<text text-anchor="middle" x="264" y="-461.7564" font-family="FreeSans" font-size="10.00" fill="#000000">elements</text>
</g>
<!-- Node14 -->
<g id="node14" class="node">
<title>Node14</title>
<g id="a_node14"><a xlink:href="../../d7/d6b/classPHParametersContainer.html" target="_top" xlink:title="PHParametersContainer">
<polygon fill="none" stroke="#000000" points="1261,-598.7564 1261,-618.7564 1398,-618.7564 1398,-598.7564 1261,-598.7564"/>
<text text-anchor="middle" x="1329.5" y="-605.7564" font-family="FreeSans" font-size="10.00" fill="#000000">PHParametersContainer</text>
</a>
</g>
</g>
<!-- Node6&#45;&gt;Node14 -->
<g id="edge24" class="edge">
<title>Node6&#45;&gt;Node14</title>
<path fill="none" stroke="#9a32cd" stroke-dasharray="5,2" d="M181.9204,-407.7904C188.1651,-430.9423 201.9585,-468.226 229,-486.7564 271.8389,-516.1121 1026.7138,-582.8554 1260.8357,-602.9353"/>
<polygon fill="#9a32cd" stroke="#9a32cd" points="185.2943,-406.8537 179.4988,-397.9845 178.4985,-408.532 185.2943,-406.8537"/>
<text text-anchor="middle" x="684.5" y="-558.7564" font-family="FreeSans" font-size="10.00" fill="#000000"> superdetectorname</text>
</g>
<!-- Node17 -->
<g id="node17" class="node">
<title>Node17</title>
<g id="a_node17"><a xlink:href="../../dc/d82/classPHNode.html" target="_top" xlink:title="PHNode">
<polygon fill="none" stroke="#000000" points="353,-377.7564 353,-397.7564 409,-397.7564 409,-377.7564 353,-377.7564"/>
<text text-anchor="middle" x="381" y="-384.7564" font-family="FreeSans" font-size="10.00" fill="#000000">PHNode</text>
</a>
</g>
</g>
<!-- Node6&#45;&gt;Node17 -->
<g id="edge30" class="edge">
<title>Node6&#45;&gt;Node17</title>
<path fill="none" stroke="#9a32cd" stroke-dasharray="5,2" d="M221.3408,-387.7564C261.2267,-387.7564 318.9101,-387.7564 352.9212,-387.7564"/>
<polygon fill="#9a32cd" stroke="#9a32cd" points="221.1039,-384.2565 211.1039,-387.7564 221.1039,-391.2565 221.1039,-384.2565"/>
<text text-anchor="middle" x="264" y="-426.7564" font-family="FreeSans" font-size="10.00" fill="#000000"> objecttype</text>
<text text-anchor="middle" x="264" y="-414.7564" font-family="FreeSans" font-size="10.00" fill="#000000">objectclass</text>
<text text-anchor="middle" x="264" y="-402.7564" font-family="FreeSans" font-size="10.00" fill="#000000">type</text>
<text text-anchor="middle" x="264" y="-390.7564" font-family="FreeSans" font-size="10.00" fill="#000000">name</text>
</g>
<!-- Node19 -->
<g id="node19" class="node">
<title>Node19</title>
<g id="a_node19"><a xlink:href="../../d2/d44/classPHG4DisplayAction.html" target="_top" xlink:title="PHG4DisplayAction">
<polygon fill="none" stroke="#000000" points="955.5,-28.7564 955.5,-48.7564 1068.5,-48.7564 1068.5,-28.7564 955.5,-28.7564"/>
<text text-anchor="middle" x="1012" y="-35.7564" font-family="FreeSans" font-size="10.00" fill="#000000">PHG4DisplayAction</text>
</a>
</g>
</g>
<!-- Node6&#45;&gt;Node19 -->
<g id="edge34" class="edge">
<title>Node6&#45;&gt;Node19</title>
<path fill="none" stroke="#9a32cd" stroke-dasharray="5,2" d="M178.808,-367.4079C182.6728,-314.1103 195.9106,-172.435 229,-141.7564 440.3934,54.2357 832.7024,-2.2294 966.1709,-28.6708"/>
<polygon fill="#9a32cd" stroke="#9a32cd" points="175.2991,-367.4172 178.1045,-377.6338 182.2826,-367.8976 175.2991,-367.4172"/>
<text text-anchor="middle" x="528.5" y="-27.7564" font-family="FreeSans" font-size="10.00" fill="#000000"> m_Detector</text>
</g>
<!-- Node20 -->
<g id="node20" class="node">
<title>Node20</title>
<g id="a_node20"><a xlink:href="../../d5/d80/classPHG4InnerHcalDetector.html" target="_top" xlink:title="PHG4InnerHcalDetector">
<polygon fill="none" stroke="#000000" points="1608.5,-206.7564 1608.5,-226.7564 1745.5,-226.7564 1745.5,-206.7564 1608.5,-206.7564"/>
<text text-anchor="middle" x="1677" y="-213.7564" font-family="FreeSans" font-size="10.00" fill="#000000">PHG4InnerHcalDetector</text>
</a>
</g>
</g>
<!-- Node6&#45;&gt;Node20 -->
<g id="edge48" class="edge">
<title>Node6&#45;&gt;Node20</title>
<path fill="none" stroke="#9a32cd" stroke-dasharray="5,2" d="M181.3289,-367.4336C189.276,-327.1513 208.534,-239.1324 229,-216.7564 278.1285,-163.0427 308.2074,-155.7564 381,-155.7564 381,-155.7564 381,-155.7564 1329.5,-155.7564 1445.8794,-155.7564 1580.9258,-189.3577 1642.8237,-206.6834"/>
<polygon fill="#9a32cd" stroke="#9a32cd" points="177.8572,-366.9527 179.3958,-377.4352 184.73,-368.2811 177.8572,-366.9527"/>
<text text-anchor="middle" x="839" y="-170.7564" font-family="FreeSans" font-size="10.00" fill="#000000"> m_SuperDetector</text>
<text text-anchor="middle" x="839" y="-158.7564" font-family="FreeSans" font-size="10.00" fill="#000000">m_ScintiLogicNamePrefix</text>
</g>
<!-- Node6&#45;&gt;Node21 -->
<g id="edge38" class="edge">
<title>Node6&#45;&gt;Node21</title>
<path fill="none" stroke="#9a32cd" stroke-dasharray="5,2" d="M179.4081,-367.6463C183.3134,-338.2452 194.9621,-283.8695 229,-254.7564 281.5343,-209.8229 311.8707,-221.7564 381,-221.7564 381,-221.7564 381,-221.7564 1012,-221.7564 1018.8489,-221.7564 1199.4823,-258.3099 1285.1766,-275.73"/>
<polygon fill="#9a32cd" stroke="#9a32cd" points="175.9305,-367.2514 178.26,-377.587 182.8843,-368.0547 175.9305,-367.2514"/>
<text text-anchor="middle" x="684.5" y="-224.7564" font-family="FreeSans" font-size="10.00" fill="#000000"> m_Name</text>
</g>
<!-- Node28 -->
<g id="node28" class="node">
<title>Node28</title>
<g id="a_node28"><a xlink:href="../../df/d3f/classPHG4SteppingAction.html" target="_top" xlink:title="PHG4SteppingAction">
<polygon fill="none" stroke="#000000" points="624,-318.7564 624,-338.7564 745,-338.7564 745,-318.7564 624,-318.7564"/>
<text text-anchor="middle" x="684.5" y="-325.7564" font-family="FreeSans" font-size="10.00" fill="#000000">PHG4SteppingAction</text>
</a>
</g>
</g>
<!-- Node6&#45;&gt;Node28 -->
<g id="edge52" class="edge">
<title>Node6&#45;&gt;Node28</title>
<path fill="none" stroke="#9a32cd" stroke-dasharray="5,2" d="M221.1058,-376.3855C248.4637,-369.6712 284.5766,-361.569 317,-356.7564 374.4389,-348.2306 535.1584,-337.7196 623.8376,-332.324"/>
<polygon fill="#9a32cd" stroke="#9a32cd" points="219.9343,-373.0702 211.0752,-378.8811 221.6244,-379.8631 219.9343,-373.0702"/>
<text text-anchor="middle" x="381" y="-359.7564" font-family="FreeSans" font-size="10.00" fill="#000000"> m_Name</text>
</g>
<!-- Node29 -->
<g id="node29" class="node">
<title>Node29</title>
<polygon fill="none" stroke="#bfbfbf" points="317,-289.7564 317,-309.7564 445,-309.7564 445,-289.7564 317,-289.7564"/>
<text text-anchor="middle" x="381" y="-296.7564" font-family="FreeSans" font-size="10.00" fill="#000000">std::set&lt; std::string &gt;</text>
</g>
<!-- Node6&#45;&gt;Node29 -->
<g id="edge51" class="edge">
<title>Node6&#45;&gt;Node29</title>
<path fill="none" stroke="#9a32cd" stroke-dasharray="5,2" d="M187.0122,-368.2753C195.6967,-352.7173 210.0614,-331.7608 229,-320.7564 255.2581,-305.4989 288.2722,-299.6657 316.8181,-297.8889"/>
<polygon fill="#9a32cd" stroke="#9a32cd" points="183.6866,-367.0801 182.1345,-377.5606 189.8836,-370.3355 183.6866,-367.0801"/>
<text text-anchor="middle" x="264" y="-323.7564" font-family="FreeSans" font-size="10.00" fill="#000000"> keys</text>
</g>
<!-- Node7 -->
<g id="node7" class="node">
<title>Node7</title>
<g id="a_node7"><a xlink:title="STL class.">
<polygon fill="none" stroke="#bfbfbf" points="0,-371.7564 0,-403.7564 107,-403.7564 107,-371.7564 0,-371.7564"/>
<text text-anchor="start" x="8" y="-390.7564" font-family="FreeSans" font-size="10.00" fill="#000000">std::basic_string&lt;</text>
<text text-anchor="middle" x="53.5" y="-378.7564" font-family="FreeSans" font-size="10.00" fill="#000000"> char &gt;</text>
</a>
</g>
</g>
<!-- Node7&#45;&gt;Node6 -->
<g id="edge6" class="edge">
<title>Node7&#45;&gt;Node6</title>
<path fill="none" stroke="#191970" d="M117.4289,-387.7564C126.5342,-387.7564 135.584,-387.7564 143.7918,-387.7564"/>
<polygon fill="#191970" stroke="#191970" points="117.167,-384.2565 107.167,-387.7564 117.167,-391.2565 117.167,-384.2565"/>
</g>
<!-- Node8&#45;&gt;Node2 -->
<g id="edge8" class="edge">
<title>Node8&#45;&gt;Node2</title>
<path fill="none" stroke="#9a32cd" stroke-dasharray="5,2" d="M450.2225,-659.0014C617.89,-672.7735 1058.7362,-700.8772 1422,-652.7564 1495.8901,-642.9683 1523.197,-661.2887 1587,-622.7564 1630.4039,-596.5436 1660.9209,-541.0978 1672.1951,-518.0946"/>
<polygon fill="#9a32cd" stroke="#9a32cd" points="450.3092,-655.4966 440.0535,-658.156 449.7292,-662.4725 450.3092,-655.4966"/>
<text text-anchor="middle" x="1012" y="-694.7564" font-family="FreeSans" font-size="10.00" fill="#000000"> default_double</text>
<text text-anchor="middle" x="1012" y="-682.7564" font-family="FreeSans" font-size="10.00" fill="#000000">dparams</text>
</g>
<!-- Node8&#45;&gt;Node10 -->
<g id="edge15" class="edge">
<title>Node8&#45;&gt;Node10</title>
<path fill="none" stroke="#9a32cd" stroke-dasharray="5,2" d="M450.5107,-644.5113C509.0092,-637.5724 590.8692,-627.8625 640.6458,-621.9582"/>
<polygon fill="#9a32cd" stroke="#9a32cd" points="449.7564,-641.0761 440.2383,-645.7297 450.581,-648.0274 449.7564,-641.0761"/>
<text text-anchor="middle" x="528.5" y="-644.7564" font-family="FreeSans" font-size="10.00" fill="#000000"> m_DoubleParMap</text>
</g>
<!-- Node9&#45;&gt;Node2 -->
<g id="edge10" class="edge">
<title>Node9&#45;&gt;Node2</title>
<path fill="none" stroke="#9a32cd" stroke-dasharray="5,2" d="M450.3807,-544.4826C496.2032,-539.2811 557.6102,-532.8105 612,-528.7564 984.7593,-500.9716 1432.8046,-503.9706 1604.8771,-506.4634"/>
<polygon fill="#9a32cd" stroke="#9a32cd" points="449.7989,-541.0262 440.2611,-545.6394 450.594,-547.9809 449.7989,-541.0262"/>
<text text-anchor="middle" x="1012" y="-526.7564" font-family="FreeSans" font-size="10.00" fill="#000000"> iparams</text>
<text text-anchor="middle" x="1012" y="-514.7564" font-family="FreeSans" font-size="10.00" fill="#000000">default_int</text>
</g>
<!-- Node9&#45;&gt;Node10 -->
<g id="edge16" class="edge">
<title>Node9&#45;&gt;Node10</title>
<path fill="none" stroke="#9a32cd" stroke-dasharray="5,2" d="M450.247,-556.9244C492.3383,-560.5898 546.8749,-567.3665 594,-579.7564 618.9528,-586.3168 646.1789,-598.1307 664.182,-606.6467"/>
<polygon fill="#9a32cd" stroke="#9a32cd" points="450.3562,-553.4215 440.1003,-556.0798 449.7755,-560.3974 450.3562,-553.4215"/>
<text text-anchor="middle" x="528.5" y="-582.7564" font-family="FreeSans" font-size="10.00" fill="#000000"> m_IntParMap</text>
</g>
<!-- Node10&#45;&gt;Node2 -->
<g id="edge12" class="edge">
<title>Node10&#45;&gt;Node2</title>
<path fill="none" stroke="#9a32cd" stroke-dasharray="5,2" d="M726.0773,-629.626C741.3231,-633.8542 758.8096,-638.137 775,-640.7564 839.1776,-651.1394 856.0187,-647.7554 921,-649.7564 1143.7566,-656.6156 1201.4178,-660.5534 1422,-628.7564 1496.3856,-618.0336 1520.5394,-626.8446 1587,-591.7564 1622.9114,-572.7967 1655.0926,-535.7095 1669.2991,-517.8467"/>
<polygon fill="#9a32cd" stroke="#9a32cd" points="726.9947,-626.2482 716.4183,-626.8735 725.0762,-632.9802 726.9947,-626.2482"/>
<text text-anchor="middle" x="1170" y="-656.7564" font-family="FreeSans" font-size="10.00" fill="#000000"> params</text>
</g>
<!-- Node15 -->
<g id="node15" class="node">
<title>Node15</title>
<polygon fill="none" stroke="#bfbfbf" points="921,-619.7564 921,-639.7564 1103,-639.7564 1103,-619.7564 921,-619.7564"/>
<text text-anchor="middle" x="1012" y="-626.7564" font-family="FreeSans" font-size="10.00" fill="#000000">std::map&lt; int, PHParameters * &gt;</text>
</g>
<!-- Node10&#45;&gt;Node15 -->
<g id="edge26" class="edge">
<title>Node10&#45;&gt;Node15</title>
<path fill="none" stroke="#9a32cd" stroke-dasharray="5,2" d="M738.4902,-618.8995C787.9404,-620.8624 862.1399,-623.8077 920.784,-626.1356"/>
<polygon fill="#9a32cd" stroke="#9a32cd" points="738.4593,-615.3956 728.3283,-618.4961 738.1816,-622.3901 738.4593,-615.3956"/>
<text text-anchor="middle" x="839" y="-627.7564" font-family="FreeSans" font-size="10.00" fill="#000000"> elements</text>
</g>
<!-- Node10&#45;&gt;Node20 -->
<g id="edge47" class="edge">
<title>Node10&#45;&gt;Node20</title>
<path fill="none" stroke="#9a32cd" stroke-dasharray="5,2" d="M738.5952,-612.1518C865.2652,-599.4835 1188.081,-556.1458 1422,-428.7564 1530.7057,-369.5566 1636.6808,-260.2624 1667.8377,-226.7725"/>
<polygon fill="#9a32cd" stroke="#9a32cd" points="737.9961,-608.6935 728.3835,-613.1486 738.6763,-615.6604 737.9961,-608.6935"/>
<text text-anchor="middle" x="1170" y="-545.7564" font-family="FreeSans" font-size="10.00" fill="#000000"> m_Params</text>
</g>
<!-- Node11 -->
<g id="node11" class="node">
<title>Node11</title>
<g id="a_node11"><a xlink:href="../../d9/d24/classPHObject.html" target="_top" xlink:title="PHObject">
<polygon fill="none" stroke="#000000" points="349.5,-742.7564 349.5,-762.7564 412.5,-762.7564 412.5,-742.7564 349.5,-742.7564"/>
<text text-anchor="middle" x="381" y="-749.7564" font-family="FreeSans" font-size="10.00" fill="#000000">PHObject</text>
</a>
</g>
</g>
<!-- Node11&#45;&gt;Node10 -->
<g id="edge13" class="edge">
<title>Node11&#45;&gt;Node10</title>
<path fill="none" stroke="#191970" d="M413.0816,-738.5176C454.7931,-719.9888 529.8941,-686.5732 594,-657.7564 617.2842,-647.2897 643.8937,-635.2217 662.2014,-626.9022"/>
<polygon fill="#191970" stroke="#191970" points="411.435,-735.4192 403.7163,-742.6769 414.2762,-741.8167 411.435,-735.4192"/>
</g>
<!-- Node11&#45;&gt;Node14 -->
<g id="edge23" class="edge">
<title>Node11&#45;&gt;Node14</title>
<path fill="none" stroke="#191970" d="M423.0375,-754.9954C557.2244,-761.7018 974.0443,-779.0073 1103,-742.7564 1194.0475,-717.1619 1285.9452,-645.3461 1317.7892,-618.7918"/>
<polygon fill="#191970" stroke="#191970" points="422.9332,-751.4857 412.7689,-754.4751 422.5789,-758.4767 422.9332,-751.4857"/>
</g>
<!-- Node12 -->
<g id="node12" class="node">
<title>Node12</title>
<polygon fill="none" stroke="#bfbfbf" points="149,-742.7564 149,-762.7564 206,-762.7564 206,-742.7564 149,-742.7564"/>
<text text-anchor="middle" x="177.5" y="-749.7564" font-family="FreeSans" font-size="10.00" fill="#000000">TObject</text>
</g>
<!-- Node12&#45;&gt;Node11 -->
<g id="edge14" class="edge">
<title>Node12&#45;&gt;Node11</title>
<path fill="none" stroke="#191970" d="M216.5642,-752.7564C255.2043,-752.7564 313.6046,-752.7564 349.4116,-752.7564"/>
<polygon fill="#191970" stroke="#191970" points="216.225,-749.2565 206.225,-752.7564 216.2249,-756.2565 216.225,-749.2565"/>
</g>
<!-- Node13&#45;&gt;Node2 -->
<g id="edge20" class="edge">
<title>Node13&#45;&gt;Node2</title>
<path fill="none" stroke="#9a32cd" stroke-dasharray="5,2" d="M451.4738,-463.4991C637.3213,-465.7781 1156.0734,-474.2112 1587,-500.7564 1592.7877,-501.1129 1598.7825,-501.5126 1604.8035,-501.9355"/>
<polygon fill="#9a32cd" stroke="#9a32cd" points="451.3345,-459.9973 441.293,-463.3764 451.25,-466.9968 451.3345,-459.9973"/>
<text text-anchor="middle" x="1012" y="-492.7564" font-family="FreeSans" font-size="10.00" fill="#000000"> default_string</text>
<text text-anchor="middle" x="1012" y="-480.7564" font-family="FreeSans" font-size="10.00" fill="#000000">cparams</text>
</g>
<!-- Node13&#45;&gt;Node10 -->
<g id="edge17" class="edge">
<title>Node13&#45;&gt;Node10</title>
<path fill="none" stroke="#9a32cd" stroke-dasharray="5,2" d="M451.0362,-477.5706C495.283,-489.4853 551.8509,-509.65 594,-541.7564 604.8915,-550.0528 602.221,-557.1736 612,-566.7564 628.4901,-582.9155 650.7509,-597.4077 666.2377,-606.5774"/>
<polygon fill="#9a32cd" stroke="#9a32cd" points="451.7799,-474.1475 441.22,-475.0072 450.0112,-480.9204 451.7799,-474.1475"/>
<text text-anchor="middle" x="528.5" y="-544.7564" font-family="FreeSans" font-size="10.00" fill="#000000"> m_StringParMap</text>
</g>
<!-- Node14&#45;&gt;Node2 -->
<g id="edge22" class="edge">
<title>Node14&#45;&gt;Node2</title>
<path fill="none" stroke="#9a32cd" stroke-dasharray="5,2" d="M1373.9597,-595.8342C1444.1523,-575.4329 1579.1686,-536.1908 1642.5498,-517.7692"/>
<polygon fill="#9a32cd" stroke="#9a32cd" points="1372.7158,-592.5509 1364.0901,-598.7028 1374.6696,-599.2727 1372.7158,-592.5509"/>
<text text-anchor="middle" x="1513.5" y="-578.7564" font-family="FreeSans" font-size="10.00" fill="#000000"> paramscontainer</text>
</g>
<!-- Node15&#45;&gt;Node14 -->
<g id="edge25" class="edge">
<title>Node15&#45;&gt;Node14</title>
<path fill="none" stroke="#9a32cd" stroke-dasharray="5,2" d="M1113.5463,-623.0399C1161.6678,-619.8571 1217.8846,-616.1388 1260.8959,-613.294"/>
<polygon fill="#9a32cd" stroke="#9a32cd" points="1113.1554,-619.558 1103.4082,-623.7105 1113.6174,-626.5428 1113.1554,-619.558"/>
<text text-anchor="middle" x="1170" y="-624.7564" font-family="FreeSans" font-size="10.00" fill="#000000"> parametermap</text>
</g>
<!-- Node16 -->
<g id="node16" class="node">
<title>Node16</title>
<g id="a_node16"><a xlink:href="../../d5/dca/classPHCompositeNode.html" target="_top" xlink:title="PHCompositeNode">
<polygon fill="none" stroke="#000000" points="957,-381.7564 957,-401.7564 1067,-401.7564 1067,-381.7564 957,-381.7564"/>
<text text-anchor="middle" x="1012" y="-388.7564" font-family="FreeSans" font-size="10.00" fill="#000000">PHCompositeNode</text>
</a>
</g>
</g>
<!-- Node16&#45;&gt;Node2 -->
<g id="edge27" class="edge">
<title>Node16&#45;&gt;Node2</title>
<path fill="none" stroke="#9a32cd" stroke-dasharray="5,2" d="M1077.3659,-393.3908C1207.6393,-397.3441 1495.0083,-409.7417 1587,-443.7564 1619.549,-455.7916 1651.0621,-482.8014 1666.7331,-497.5945"/>
<polygon fill="#9a32cd" stroke="#9a32cd" points="1077.2339,-389.8855 1067.1347,-393.088 1077.0267,-396.8824 1077.2339,-389.8855"/>
<text text-anchor="middle" x="1329.5" y="-415.7564" font-family="FreeSans" font-size="10.00" fill="#000000"> savetopNode</text>
</g>
<!-- Node16&#45;&gt;Node21 -->
<g id="edge39" class="edge">
<title>Node16&#45;&gt;Node21</title>
<path fill="none" stroke="#9a32cd" stroke-dasharray="5,2" d="M1046.7633,-378.036C1090.7001,-360.9393 1168.8303,-331.347 1237,-309.7564 1253.9689,-304.382 1272.9124,-299.1328 1289.2155,-294.843"/>
<polygon fill="#9a32cd" stroke="#9a32cd" points="1045.4424,-374.7944 1037.4003,-381.6918 1047.9884,-381.3149 1045.4424,-374.7944"/>
<text text-anchor="middle" x="1170" y="-350.7564" font-family="FreeSans" font-size="10.00" fill="#000000"> m_topNode</text>
</g>
<!-- Node17&#45;&gt;Node16 -->
<g id="edge28" class="edge">
<title>Node17&#45;&gt;Node16</title>
<path fill="none" stroke="#191970" d="M419.1897,-390.5691C432.9863,-391.4572 448.6861,-392.3204 463,-392.7564 658.4649,-398.7101 707.4465,-393.6534 903,-392.7564 920.5049,-392.6761 939.5906,-392.5232 956.8293,-392.3608"/>
<polygon fill="#191970" stroke="#191970" points="419.2761,-387.0671 409.0647,-389.8917 418.8087,-394.0515 419.2761,-387.0671"/>
</g>
<!-- Node17&#45;&gt;Node17 -->
<g id="edge29" class="edge">
<title>Node17&#45;&gt;Node17</title>
<path fill="none" stroke="#9a32cd" stroke-dasharray="5,2" d="M359.5689,-407.6673C361.1122,-412.5871 368.2559,-416.2564 381,-416.2564 401.3906,-416.2564 407.4441,-406.863 399.1604,-397.9834"/>
<polygon fill="#9a32cd" stroke="#9a32cd" points="362.9556,-408.5776 362.8396,-397.9834 356.3237,-406.3377 362.9556,-408.5776"/>
<text text-anchor="middle" x="381" y="-419.2564" font-family="FreeSans" font-size="10.00" fill="#000000"> parent</text>
</g>
<!-- Node18 -->
<g id="node18" class="node">
<title>Node18</title>
<g id="a_node18"><a xlink:href="../../d6/d86/classPHPointerList.html" target="_top" xlink:title="PHPointerList\&lt; PHNode \&gt;">
<polygon fill="none" stroke="#000000" points="612,-357.7564 612,-377.7564 757,-377.7564 757,-357.7564 612,-357.7564"/>
<text text-anchor="middle" x="684.5" y="-364.7564" font-family="FreeSans" font-size="10.00" fill="#000000">PHPointerList&lt; PHNode &gt;</text>
</a>
</g>
</g>
<!-- Node17&#45;&gt;Node18 -->
<g id="edge32" class="edge">
<title>Node17&#45;&gt;Node18</title>
<path fill="none" stroke="#9a32cd" stroke-dasharray="5,2" d="M419.1952,-384.2841C432.9924,-383.0858 448.6911,-381.7868 463,-380.7564 512.6598,-377.1801 568.6367,-373.9012 611.8932,-371.5311"/>
<polygon fill="#9a32cd" stroke="#9a32cd" points="418.7244,-380.8119 409.0695,-385.1747 419.3378,-387.785 418.7244,-380.8119"/>
<text text-anchor="middle" x="528.5" y="-383.7564" font-family="FreeSans" font-size="10.00" fill="#000000"> items</text>
</g>
<!-- Node18&#45;&gt;Node16 -->
<g id="edge31" class="edge">
<title>Node18&#45;&gt;Node16</title>
<path fill="none" stroke="#9a32cd" stroke-dasharray="5,2" d="M767.5606,-371.8925C808.3868,-374.1308 858.3021,-377.1728 903,-380.7564 920.537,-382.1623 939.6316,-383.9884 956.8686,-385.7475"/>
<polygon fill="#9a32cd" stroke="#9a32cd" points="767.5604,-368.3874 757.3856,-371.3409 767.1815,-375.3772 767.5604,-368.3874"/>
<text text-anchor="middle" x="839" y="-383.7564" font-family="FreeSans" font-size="10.00" fill="#000000"> subNodes</text>
</g>
<!-- Node19&#45;&gt;Node1 -->
<g id="edge33" class="edge">
<title>Node19&#45;&gt;Node1</title>
<path fill="none" stroke="#9a32cd" stroke-dasharray="5,2" d="M1073.203,-26.9981C1180.8478,-9.0299 1409.4735,16.9068 1587,-46.7564 1742.2914,-102.4458 1879.6471,-262.3994 1913.8484,-304.5004"/>
<polygon fill="#9a32cd" stroke="#9a32cd" points="1072.4387,-23.5778 1063.1693,-28.7088 1073.6153,-30.4782 1072.4387,-23.5778"/>
<text text-anchor="middle" x="1513.5" y="-49.7564" font-family="FreeSans" font-size="10.00" fill="#000000"> m_DisplayAction</text>
</g>
<!-- Node23 -->
<g id="node23" class="node">
<title>Node23</title>
<g id="a_node23"><a xlink:href="../../d2/dbb/classPHG4InnerHcalDisplayAction.html" target="_top" xlink:title="PHG4InnerHcalDisplayAction">
<polygon fill="none" stroke="#000000" points="1249,-67.7564 1249,-87.7564 1410,-87.7564 1410,-67.7564 1249,-67.7564"/>
<text text-anchor="middle" x="1329.5" y="-74.7564" font-family="FreeSans" font-size="10.00" fill="#000000">PHG4InnerHcalDisplayAction</text>
</a>
</g>
</g>
<!-- Node19&#45;&gt;Node23 -->
<g id="edge42" class="edge">
<title>Node19&#45;&gt;Node23</title>
<path fill="none" stroke="#191970" d="M1078.7362,-46.9539C1128.3047,-53.0426 1196.152,-61.3766 1248.7751,-67.8405"/>
<polygon fill="#191970" stroke="#191970" points="1079.1148,-43.4742 1068.7626,-45.7288 1078.2613,-50.4219 1079.1148,-43.4742"/>
</g>
<!-- Node20&#45;&gt;Node1 -->
<g id="edge35" class="edge">
<title>Node20&#45;&gt;Node1</title>
<path fill="none" stroke="#9a32cd" stroke-dasharray="5,2" d="M1711.7223,-230.6453C1761.721,-250.6448 1852.8108,-287.0807 1896.8411,-304.6928"/>
<polygon fill="#9a32cd" stroke="#9a32cd" points="1712.8812,-227.3393 1702.2965,-226.875 1710.2814,-233.8386 1712.8812,-227.3393"/>
<text text-anchor="middle" x="1798.5" y="-279.7564" font-family="FreeSans" font-size="10.00" fill="#000000"> m_Detector</text>
</g>
<!-- Node21&#45;&gt;Node20 -->
<g id="edge36" class="edge">
<title>Node21&#45;&gt;Node20</title>
<path fill="none" stroke="#191970" d="M1383.9752,-281.6343C1436.5939,-277.7184 1518.2063,-269.2619 1587,-251.7564 1611.2083,-245.5962 1637.725,-234.7502 1655.6623,-226.7599"/>
<polygon fill="#191970" stroke="#191970" points="1383.5753,-278.1538 1373.8504,-282.3582 1384.0746,-285.136 1383.5753,-278.1538"/>
</g>
<!-- Node22 -->
<g id="node22" class="node">
<title>Node22</title>
<polygon fill="none" stroke="#bfbfbf" points="1243,-184.7564 1243,-216.7564 1416,-216.7564 1416,-184.7564 1243,-184.7564"/>
<text text-anchor="start" x="1251" y="-203.7564" font-family="FreeSans" font-size="10.00" fill="#000000">std::map&lt; G4VPhysicalVolume</text>
<text text-anchor="middle" x="1329.5" y="-191.7564" font-family="FreeSans" font-size="10.00" fill="#000000"> *, std::pair&lt; int, int &gt; &gt;</text>
</g>
<!-- Node22&#45;&gt;Node20 -->
<g id="edge40" class="edge">
<title>Node22&#45;&gt;Node20</title>
<path fill="none" stroke="#9a32cd" stroke-dasharray="5,2" d="M1426.357,-204.6004C1474.6367,-206.5912 1533.9063,-209.1476 1587,-211.7564 1593.8773,-212.0943 1601.0492,-212.4637 1608.2113,-212.8439"/>
<polygon fill="#9a32cd" stroke="#9a32cd" points="1426.3629,-201.0978 1416.2276,-204.1843 1426.0755,-208.0919 1426.3629,-201.0978"/>
<text text-anchor="middle" x="1513.5" y="-214.7564" font-family="FreeSans" font-size="10.00" fill="#000000"> m_ScintiTilePhysVolMap</text>
</g>
<!-- Node23&#45;&gt;Node20 -->
<g id="edge41" class="edge">
<title>Node23&#45;&gt;Node20</title>
<path fill="none" stroke="#9a32cd" stroke-dasharray="5,2" d="M1389.8439,-66.3249C1444.7246,-59.0906 1526.1927,-56.5036 1587,-89.7564 1635.3685,-116.2069 1663.8006,-181.1481 1673.3554,-206.4392"/>
<polygon fill="#9a32cd" stroke="#9a32cd" points="1389.3314,-62.8624 1379.9169,-67.7222 1390.3072,-69.7941 1389.3314,-62.8624"/>
<text text-anchor="middle" x="1513.5" y="-92.7564" font-family="FreeSans" font-size="10.00" fill="#000000"> m_DisplayAction</text>
</g>
<!-- Node24 -->
<g id="node24" class="node">
<title>Node24</title>
<polygon fill="none" stroke="#bfbfbf" points="926,-67.7564 926,-87.7564 1098,-87.7564 1098,-67.7564 926,-67.7564"/>
<text text-anchor="middle" x="1012" y="-74.7564" font-family="FreeSans" font-size="10.00" fill="#000000">std::set&lt; G4LogicalVolume * &gt;</text>
</g>
<!-- Node24&#45;&gt;Node23 -->
<g id="edge43" class="edge">
<title>Node24&#45;&gt;Node23</title>
<path fill="none" stroke="#9a32cd" stroke-dasharray="5,2" d="M1108.387,-77.7564C1153.3064,-77.7564 1206.1464,-77.7564 1248.9063,-77.7564"/>
<polygon fill="#9a32cd" stroke="#9a32cd" points="1108.3389,-74.2565 1098.3389,-77.7564 1108.3389,-81.2565 1108.3389,-74.2565"/>
<text text-anchor="middle" x="1170" y="-80.7564" font-family="FreeSans" font-size="10.00" fill="#000000"> m_ScintiLogVolSet</text>
</g>
<!-- Node25 -->
<g id="node25" class="node">
<title>Node25</title>
<polygon fill="none" stroke="#bfbfbf" points="922,-106.7564 922,-126.7564 1102,-126.7564 1102,-106.7564 922,-106.7564"/>
<text text-anchor="middle" x="1012" y="-113.7564" font-family="FreeSans" font-size="10.00" fill="#000000">std::vector&lt; G4VisAttributes * &gt;</text>
</g>
<!-- Node25&#45;&gt;Node23 -->
<g id="edge44" class="edge">
<title>Node25&#45;&gt;Node23</title>
<path fill="none" stroke="#9a32cd" stroke-dasharray="5,2" d="M1112.6116,-106.2547C1146.4457,-102.5429 1184.3833,-98.1845 1219,-93.7564 1233.2283,-91.9363 1248.4639,-89.8316 1262.9356,-87.7588"/>
<polygon fill="#9a32cd" stroke="#9a32cd" points="1111.8126,-102.821 1102.2513,-107.3853 1112.572,-109.7797 1111.8126,-102.821"/>
<text text-anchor="middle" x="1170" y="-108.7564" font-family="FreeSans" font-size="10.00" fill="#000000"> m_VisAttVec</text>
</g>
<!-- Node26 -->
<g id="node26" class="node">
<title>Node26</title>
<polygon fill="none" stroke="#bfbfbf" points="1256,-106.7564 1256,-126.7564 1403,-126.7564 1403,-106.7564 1256,-106.7564"/>
<text text-anchor="middle" x="1329.5" y="-113.7564" font-family="FreeSans" font-size="10.00" fill="#000000">std::vector&lt; G4VSolid * &gt;</text>
</g>
<!-- Node26&#45;&gt;Node20 -->
<g id="edge45" class="edge">
<title>Node26&#45;&gt;Node20</title>
<path fill="none" stroke="#9a32cd" stroke-dasharray="5,2" d="M1413.2927,-106.439C1465.3667,-103.4865 1532.5289,-106.1173 1587,-129.7564 1625.4757,-146.4538 1657.091,-187.4232 1670.3214,-206.5766"/>
<polygon fill="#9a32cd" stroke="#9a32cd" points="1412.8403,-102.9608 1403.0873,-107.0994 1413.2924,-109.9462 1412.8403,-102.9608"/>
<text text-anchor="middle" x="1513.5" y="-132.7564" font-family="FreeSans" font-size="10.00" fill="#000000"> m_ScintiTilesVec</text>
</g>
<!-- Node27 -->
<g id="node27" class="node">
<title>Node27</title>
<polygon fill="none" stroke="#bfbfbf" points="1237,-235.7564 1237,-255.7564 1422,-255.7564 1422,-235.7564 1237,-235.7564"/>
<text text-anchor="middle" x="1329.5" y="-242.7564" font-family="FreeSans" font-size="10.00" fill="#000000">std::set&lt; G4VPhysicalVolume * &gt;</text>
</g>
<!-- Node27&#45;&gt;Node20 -->
<g id="edge46" class="edge">
<title>Node27&#45;&gt;Node20</title>
<path fill="none" stroke="#9a32cd" stroke-dasharray="5,2" d="M1432.2544,-237.1812C1489.0266,-232.4433 1558.0118,-226.6863 1608.2536,-222.4935"/>
<polygon fill="#9a32cd" stroke="#9a32cd" points="1431.8414,-233.7034 1422.1671,-238.023 1432.4236,-240.6791 1431.8414,-233.7034"/>
<text text-anchor="middle" x="1513.5" y="-238.7564" font-family="FreeSans" font-size="10.00" fill="#000000"> m_SteelAbsorberPhysVolSet</text>
</g>
<!-- Node28&#45;&gt;Node1 -->
<g id="edge49" class="edge">
<title>Node28&#45;&gt;Node1</title>
<path fill="none" stroke="#9a32cd" stroke-dasharray="5,2" d="M755.4947,-329.7815C821.8294,-330.6504 923.6199,-331.7564 1012,-331.7564 1012,-331.7564 1012,-331.7564 1677,-331.7564 1734.4533,-331.7564 1799.3039,-327.0463 1847.8462,-322.5846"/>
<polygon fill="#9a32cd" stroke="#9a32cd" points="755.2059,-326.2774 745.1603,-329.6443 755.1129,-333.2768 755.2059,-326.2774"/>
<text text-anchor="middle" x="1329.5" y="-334.7564" font-family="FreeSans" font-size="10.00" fill="#000000"> m_SteppingAction</text>
</g>
<!-- Node29&#45;&gt;Node28 -->
<g id="edge50" class="edge">
<title>Node29&#45;&gt;Node28</title>
<path fill="none" stroke="#9a32cd" stroke-dasharray="5,2" d="M455.2897,-299.7096C496.3373,-300.482 548.1559,-302.7692 594,-308.7564 611.2318,-311.0068 630.0314,-314.918 646.009,-318.6882"/>
<polygon fill="#9a32cd" stroke="#9a32cd" points="455.1516,-296.207 445.0962,-299.5445 455.0381,-303.206 455.1516,-296.207"/>
<text text-anchor="start" x="463" y="-323.7564" font-family="FreeSans" font-size="10.00" fill="#000000"> m_ScintLightYieldMissing</text>
<text text-anchor="middle" x="528.5" y="-311.7564" font-family="FreeSans" font-size="10.00" fill="#000000">MaterialSet</text>
</g>
</g>
</svg>
