<?xml version="1.0" encoding="UTF-8" standalone="no"?>
<!DOCTYPE svg PUBLIC "-//W3C//DTD SVG 1.1//EN"
 "http://www.w3.org/Graphics/SVG/1.1/DTD/svg11.dtd">
<!-- Generated by graphviz version 2.40.1 (20161225.0304)
 -->
<!-- Title: Fun4AllEventOutputManager::Print Pages: 1 -->
<svg width="511pt" height="80pt"
 viewBox="0.00 0.00 511.00 80.00" xmlns="http://www.w3.org/2000/svg" xmlns:xlink="http://www.w3.org/1999/xlink">
<g id="graph0" class="graph" transform="scale(1 1) rotate(0) translate(4 76)">
<title>Fun4AllEventOutputManager::Print</title>
<!-- Node1 -->
<g id="node1" class="node">
<title>Node1</title>
<polygon fill="#bfbfbf" stroke="#000000" points="0,-22.5 0,-54.5 163,-54.5 163,-22.5 0,-22.5"/>
<text text-anchor="start" x="8" y="-41.5" font-family="FreeSans" font-size="10.00" fill="#000000">Fun4AllEventOutputManager</text>
<text text-anchor="middle" x="81.5" y="-29.5" font-family="FreeSans" font-size="10.00" fill="#000000">::Print</text>
</g>
<!-- Node2 -->
<g id="node2" class="node">
<title>Node2</title>
<g id="a_node2"><a xlink:href="../../d5/dec/classFun4AllBase.html#a41f9ac377743d046f590617fd6f4f0ed" target="_top" xlink:title="Returns the name of this module.">
<polygon fill="none" stroke="#000000" points="378.5,-51.5 378.5,-71.5 493.5,-71.5 493.5,-51.5 378.5,-51.5"/>
<text text-anchor="middle" x="436" y="-58.5" font-family="FreeSans" font-size="10.00" fill="#000000">Fun4AllBase::Name</text>
</a>
</g>
</g>
<!-- Node1&#45;&gt;Node2 -->
<g id="edge1" class="edge">
<title>Node1&#45;&gt;Node2</title>
<path fill="none" stroke="#191970" d="M163.2746,-43.8055C225.387,-47.8354 309.7944,-53.3118 368.1796,-57.0998"/>
<polygon fill="#191970" stroke="#191970" points="368.1986,-60.6083 378.4042,-57.7632 368.6519,-53.623 368.1986,-60.6083"/>
</g>
<!-- Node3 -->
<g id="node3" class="node">
<title>Node3</title>
<g id="a_node3"><a xlink:href="../../d8/d77/classFun4AllOutputManager.html#ae13cdf197e3ae6f5310199ca034b8754" target="_top" xlink:title="print method (dump event selector)">
<polygon fill="none" stroke="#000000" points="199,-.5 199,-32.5 333,-32.5 333,-.5 199,-.5"/>
<text text-anchor="start" x="207" y="-19.5" font-family="FreeSans" font-size="10.00" fill="#000000">Fun4AllOutputManager</text>
<text text-anchor="middle" x="266" y="-7.5" font-family="FreeSans" font-size="10.00" fill="#000000">::Print</text>
</a>
</g>
</g>
<!-- Node1&#45;&gt;Node3 -->
<g id="edge2" class="edge">
<title>Node1&#45;&gt;Node3</title>
<path fill="none" stroke="#191970" d="M163.2301,-28.7544C171.7273,-27.7412 180.3451,-26.7136 188.79,-25.7066"/>
<polygon fill="#191970" stroke="#191970" points="189.4704,-29.1504 198.9856,-24.4909 188.6415,-22.1996 189.4704,-29.1504"/>
</g>
<!-- Node3&#45;&gt;Node2 -->
<g id="edge3" class="edge">
<title>Node3&#45;&gt;Node2</title>
<path fill="none" stroke="#191970" d="M326.8937,-32.6189C347.0026,-37.9419 369.0738,-43.7842 388.0721,-48.8132"/>
<polygon fill="#191970" stroke="#191970" points="387.4257,-52.2626 397.9884,-51.4381 389.217,-45.4956 387.4257,-52.2626"/>
</g>
<!-- Node4 -->
<g id="node4" class="node">
<title>Node4</title>
<g id="a_node4"><a xlink:href="../../d8/d77/classFun4AllOutputManager.html#af86abee7682ee661cf4477e1e0443f71" target="_top" xlink:title="get number of Events">
<polygon fill="none" stroke="#000000" points="369,-.5 369,-32.5 503,-32.5 503,-.5 369,-.5"/>
<text text-anchor="start" x="377" y="-19.5" font-family="FreeSans" font-size="10.00" fill="#000000">Fun4AllOutputManager</text>
<text text-anchor="middle" x="436" y="-7.5" font-family="FreeSans" font-size="10.00" fill="#000000">::EventsWritten</text>
</a>
</g>
</g>
<!-- Node3&#45;&gt;Node4 -->
<g id="edge4" class="edge">
<title>Node3&#45;&gt;Node4</title>
<path fill="none" stroke="#191970" d="M333.1885,-16.5C341.5021,-16.5 350.0537,-16.5 358.5056,-16.5"/>
<polygon fill="#191970" stroke="#191970" points="358.7429,-20.0001 368.7428,-16.5 358.7428,-13.0001 358.7429,-20.0001"/>
</g>
</g>
</svg>
