<?xml version="1.0" encoding="UTF-8" standalone="no"?>
<!DOCTYPE svg PUBLIC "-//W3C//DTD SVG 1.1//EN"
 "http://www.w3.org/Graphics/SVG/1.1/DTD/svg11.dtd">
<!-- Generated by graphviz version 2.40.1 (20161225.0304)
 -->
<!-- Title: PHG4CylinderCellGeom::check_binning_method_phi Pages: 1 -->
<svg width="904pt" height="884pt"
 viewBox="0.00 0.00 904.00 884.00" xmlns="http://www.w3.org/2000/svg" xmlns:xlink="http://www.w3.org/1999/xlink">
<g id="graph0" class="graph" transform="scale(1 1) rotate(0) translate(4 880)">
<title>PHG4CylinderCellGeom::check_binning_method_phi</title>
<!-- Node1 -->
<g id="node1" class="node">
<title>Node1</title>
<polygon fill="#bfbfbf" stroke="#000000" points="0,-309.5 0,-341.5 160,-341.5 160,-309.5 0,-309.5"/>
<text text-anchor="start" x="8" y="-328.5" font-family="FreeSans" font-size="10.00" fill="#000000">PHG4CylinderCellGeom</text>
<text text-anchor="middle" x="80" y="-316.5" font-family="FreeSans" font-size="10.00" fill="#000000">::check_binning_method_phi</text>
</g>
<!-- Node2 -->
<g id="node2" class="node">
<title>Node2</title>
<g id="a_node2"><a xlink:href="../../d9/d85/classPHG4CylinderCellGeom.html#ae568e0233c2bf19b774496bc8133bec7" target="_top" xlink:title="PHG4CylinderCellGeom\l::get_phibin">
<polygon fill="none" stroke="#000000" points="196,-643.5 196,-675.5 331,-675.5 331,-643.5 196,-643.5"/>
<text text-anchor="start" x="204" y="-662.5" font-family="FreeSans" font-size="10.00" fill="#000000">PHG4CylinderCellGeom</text>
<text text-anchor="middle" x="263.5" y="-650.5" font-family="FreeSans" font-size="10.00" fill="#000000">::get_phibin</text>
</a>
</g>
</g>
<!-- Node1&#45;&gt;Node2 -->
<g id="edge1" class="edge">
<title>Node1&#45;&gt;Node2</title>
<path fill="none" stroke="#191970" d="M82.9669,-352.039C90.8148,-410.2189 117.2328,-550.2634 196,-631.5 200.5041,-636.1453 205.8925,-640.051 211.6342,-643.3274"/>
<polygon fill="#191970" stroke="#191970" points="86.4046,-351.3269 81.6718,-341.8479 79.4604,-352.2093 86.4046,-351.3269"/>
</g>
<!-- Node7 -->
<g id="node7" class="node">
<title>Node7</title>
<g id="a_node7"><a xlink:href="../../d9/d85/classPHG4CylinderCellGeom.html#a4999cf2fcefaae861e8ddc7c489af731" target="_top" xlink:title="PHG4CylinderCellGeom\l::get_phibins">
<polygon fill="none" stroke="#000000" points="196,-367.5 196,-399.5 331,-399.5 331,-367.5 196,-367.5"/>
<text text-anchor="start" x="204" y="-386.5" font-family="FreeSans" font-size="10.00" fill="#000000">PHG4CylinderCellGeom</text>
<text text-anchor="middle" x="263.5" y="-374.5" font-family="FreeSans" font-size="10.00" fill="#000000">::get_phibins</text>
</a>
</g>
</g>
<!-- Node1&#45;&gt;Node7 -->
<g id="edge7" class="edge">
<title>Node1&#45;&gt;Node7</title>
<path fill="none" stroke="#191970" d="M140.4461,-344.6056C163.8449,-352.0014 190.3299,-360.3727 212.7191,-367.4493"/>
<polygon fill="#191970" stroke="#191970" points="141.2178,-341.1789 130.6279,-341.5023 139.1081,-347.8534 141.2178,-341.1789"/>
</g>
<!-- Node20 -->
<g id="node20" class="node">
<title>Node20</title>
<g id="a_node20"><a xlink:href="../../d9/d85/classPHG4CylinderCellGeom.html#a619e05f0264243126360ac83b80f1d89" target="_top" xlink:title="PHG4CylinderCellGeom\l::get_phicenter">
<polygon fill="none" stroke="#000000" points="196,-589.5 196,-621.5 331,-621.5 331,-589.5 196,-589.5"/>
<text text-anchor="start" x="204" y="-608.5" font-family="FreeSans" font-size="10.00" fill="#000000">PHG4CylinderCellGeom</text>
<text text-anchor="middle" x="263.5" y="-596.5" font-family="FreeSans" font-size="10.00" fill="#000000">::get_phicenter</text>
</a>
</g>
</g>
<!-- Node1&#45;&gt;Node20 -->
<g id="edge23" class="edge">
<title>Node1&#45;&gt;Node20</title>
<path fill="none" stroke="#191970" d="M92.3999,-350.8576C112.1314,-390.2806 152.8748,-468.0223 196,-528.5 211.998,-550.9352 233.3684,-574.4304 247.7408,-589.4774"/>
<polygon fill="#191970" stroke="#191970" points="95.4313,-349.0927 87.8475,-341.6942 89.1623,-352.2072 95.4313,-349.0927"/>
</g>
<!-- Node24 -->
<g id="node24" class="node">
<title>Node24</title>
<g id="a_node24"><a xlink:href="../../d9/d85/classPHG4CylinderCellGeom.html#aaef09dc39c17757b6e4ae55c736061a0" target="_top" xlink:title="PHG4CylinderCellGeom\l::get_phimin">
<polygon fill="none" stroke="#000000" points="196,-239.5 196,-271.5 331,-271.5 331,-239.5 196,-239.5"/>
<text text-anchor="start" x="204" y="-258.5" font-family="FreeSans" font-size="10.00" fill="#000000">PHG4CylinderCellGeom</text>
<text text-anchor="middle" x="263.5" y="-246.5" font-family="FreeSans" font-size="10.00" fill="#000000">::get_phimin</text>
</a>
</g>
</g>
<!-- Node1&#45;&gt;Node24 -->
<g id="edge34" class="edge">
<title>Node1&#45;&gt;Node24</title>
<path fill="none" stroke="#191970" d="M131.4451,-305.8752C159.7909,-295.0621 194.5424,-281.8054 221.2799,-271.6057"/>
<polygon fill="#191970" stroke="#191970" points="130.1944,-302.6062 122.0986,-309.4406 132.6894,-309.1465 130.1944,-302.6062"/>
</g>
<!-- Node25 -->
<g id="node25" class="node">
<title>Node25</title>
<g id="a_node25"><a xlink:href="../../d9/d85/classPHG4CylinderCellGeom.html#a10a58a3eed1d5566cebd3b19583d78bb" target="_top" xlink:title="PHG4CylinderCellGeom\l::get_phistep">
<polygon fill="none" stroke="#000000" points="196,-486.5 196,-518.5 331,-518.5 331,-486.5 196,-486.5"/>
<text text-anchor="start" x="204" y="-505.5" font-family="FreeSans" font-size="10.00" fill="#000000">PHG4CylinderCellGeom</text>
<text text-anchor="middle" x="263.5" y="-493.5" font-family="FreeSans" font-size="10.00" fill="#000000">::get_phistep</text>
</a>
</g>
</g>
<!-- Node1&#45;&gt;Node25 -->
<g id="edge36" class="edge">
<title>Node1&#45;&gt;Node25</title>
<path fill="none" stroke="#191970" d="M104.1265,-348.7719C141.9351,-385.2412 214.1864,-454.9332 246.7973,-486.3889"/>
<polygon fill="#191970" stroke="#191970" points="106.2353,-345.9431 96.608,-341.5197 101.3756,-350.9813 106.2353,-345.9431"/>
</g>
<!-- Node26 -->
<g id="node26" class="node">
<title>Node26</title>
<g id="a_node26"><a xlink:href="../../d9/d85/classPHG4CylinderCellGeom.html#a62ff6296a3a85f04eeb908610345a703" target="_top" xlink:title="PHG4CylinderCellGeom\l::set_phibins">
<polygon fill="none" stroke="#000000" points="196,-102.5 196,-134.5 331,-134.5 331,-102.5 196,-102.5"/>
<text text-anchor="start" x="204" y="-121.5" font-family="FreeSans" font-size="10.00" fill="#000000">PHG4CylinderCellGeom</text>
<text text-anchor="middle" x="263.5" y="-109.5" font-family="FreeSans" font-size="10.00" fill="#000000">::set_phibins</text>
</a>
</g>
</g>
<!-- Node1&#45;&gt;Node26 -->
<g id="edge43" class="edge">
<title>Node1&#45;&gt;Node26</title>
<path fill="none" stroke="#191970" d="M90.2204,-299.7738C106.8526,-260.9813 143.3008,-187.4887 196,-144.5 200.6709,-140.6898 205.9633,-137.3943 211.4798,-134.5546"/>
<polygon fill="#191970" stroke="#191970" points="86.8677,-298.7195 86.2388,-309.2956 93.3258,-301.42 86.8677,-298.7195"/>
</g>
<!-- Node30 -->
<g id="node30" class="node">
<title>Node30</title>
<g id="a_node30"><a xlink:href="../../d9/d85/classPHG4CylinderCellGeom.html#a8aaf7b76351007d1dc91be54e214541e" target="_top" xlink:title="PHG4CylinderCellGeom\l::set_phimin">
<polygon fill="none" stroke="#000000" points="196,-153.5 196,-185.5 331,-185.5 331,-153.5 196,-153.5"/>
<text text-anchor="start" x="204" y="-172.5" font-family="FreeSans" font-size="10.00" fill="#000000">PHG4CylinderCellGeom</text>
<text text-anchor="middle" x="263.5" y="-160.5" font-family="FreeSans" font-size="10.00" fill="#000000">::set_phimin</text>
</a>
</g>
</g>
<!-- Node1&#45;&gt;Node30 -->
<g id="edge47" class="edge">
<title>Node1&#45;&gt;Node30</title>
<path fill="none" stroke="#191970" d="M106.9488,-302.5898C144.589,-270.5906 211.9535,-213.3216 244.6565,-185.5195"/>
<polygon fill="#191970" stroke="#191970" points="104.2985,-300.2491 98.9466,-309.3928 108.8325,-305.5823 104.2985,-300.2491"/>
</g>
<!-- Node31 -->
<g id="node31" class="node">
<title>Node31</title>
<g id="a_node31"><a xlink:href="../../d9/d85/classPHG4CylinderCellGeom.html#a719e01344e250bcb1e7573eedd0af53a" target="_top" xlink:title="PHG4CylinderCellGeom\l::set_phistep">
<polygon fill="none" stroke="#000000" points="196,-51.5 196,-83.5 331,-83.5 331,-51.5 196,-51.5"/>
<text text-anchor="start" x="204" y="-70.5" font-family="FreeSans" font-size="10.00" fill="#000000">PHG4CylinderCellGeom</text>
<text text-anchor="middle" x="263.5" y="-58.5" font-family="FreeSans" font-size="10.00" fill="#000000">::set_phistep</text>
</a>
</g>
</g>
<!-- Node1&#45;&gt;Node31 -->
<g id="edge50" class="edge">
<title>Node1&#45;&gt;Node31</title>
<path fill="none" stroke="#191970" d="M86.3138,-299.4479C99.0796,-252.0652 132.3166,-151.3468 196,-93.5 200.183,-89.7003 204.9811,-86.4331 210.0489,-83.6286"/>
<polygon fill="#191970" stroke="#191970" points="82.8965,-298.6825 83.7643,-309.2417 89.6707,-300.446 82.8965,-298.6825"/>
</g>
<!-- Node3 -->
<g id="node3" class="node">
<title>Node3</title>
<g id="a_node3"><a xlink:href="../../d5/dd0/classPHG4CylinderCellReco.html#acd9297cbac172c726c8da55f875a824a" target="_top" xlink:title="event processing">
<polygon fill="none" stroke="#000000" points="389.5,-741.5 389.5,-773.5 518.5,-773.5 518.5,-741.5 389.5,-741.5"/>
<text text-anchor="start" x="397.5" y="-760.5" font-family="FreeSans" font-size="10.00" fill="#000000">PHG4CylinderCellReco</text>
<text text-anchor="middle" x="454" y="-748.5" font-family="FreeSans" font-size="10.00" fill="#000000">::process_event</text>
</a>
</g>
</g>
<!-- Node2&#45;&gt;Node3 -->
<g id="edge2" class="edge">
<title>Node2&#45;&gt;Node3</title>
<path fill="none" stroke="#191970" d="M293.6328,-681.6784C313.7132,-695.7747 341.0826,-713.7109 367,-726.5 378.2156,-732.0344 390.6733,-737.0742 402.575,-741.4069"/>
<polygon fill="#191970" stroke="#191970" points="295.4038,-678.6431 285.2254,-675.7018 291.348,-684.3484 295.4038,-678.6431"/>
</g>
<!-- Node4 -->
<g id="node4" class="node">
<title>Node4</title>
<g id="a_node4"><a xlink:href="../../d7/d6c/classPHG4TpcPadPlaneReadout.html#a8947e8dcf5c35c405459a6d14b83ec23" target="_top" xlink:title="PHG4TpcPadPlaneReadout\l::populate_rectangular\l_phibins">
<polygon fill="none" stroke="#000000" points="378.5,-639.5 378.5,-683.5 529.5,-683.5 529.5,-639.5 378.5,-639.5"/>
<text text-anchor="start" x="386.5" y="-670.5" font-family="FreeSans" font-size="10.00" fill="#000000">PHG4TpcPadPlaneReadout</text>
<text text-anchor="start" x="386.5" y="-658.5" font-family="FreeSans" font-size="10.00" fill="#000000">::populate_rectangular</text>
<text text-anchor="middle" x="454" y="-646.5" font-family="FreeSans" font-size="10.00" fill="#000000">_phibins</text>
</a>
</g>
</g>
<!-- Node2&#45;&gt;Node4 -->
<g id="edge3" class="edge">
<title>Node2&#45;&gt;Node4</title>
<path fill="none" stroke="#191970" d="M341.3658,-660.3175C353.6016,-660.4459 366.2334,-660.5786 378.4165,-660.7065"/>
<polygon fill="#191970" stroke="#191970" points="341.2358,-656.816 331.1996,-660.2108 341.1622,-663.8156 341.2358,-656.816"/>
</g>
<!-- Node6 -->
<g id="node6" class="node">
<title>Node6</title>
<g id="a_node6"><a xlink:href="../../d7/d6c/classPHG4TpcPadPlaneReadout.html#a7b580905412912ba96c9114aba69219e" target="_top" xlink:title="PHG4TpcPadPlaneReadout\l::populate_zigzag_phibins">
<polygon fill="none" stroke="#000000" points="378.5,-588.5 378.5,-620.5 529.5,-620.5 529.5,-588.5 378.5,-588.5"/>
<text text-anchor="start" x="386.5" y="-607.5" font-family="FreeSans" font-size="10.00" fill="#000000">PHG4TpcPadPlaneReadout</text>
<text text-anchor="middle" x="454" y="-595.5" font-family="FreeSans" font-size="10.00" fill="#000000">::populate_zigzag_phibins</text>
</a>
</g>
</g>
<!-- Node2&#45;&gt;Node6 -->
<g id="edge5" class="edge">
<title>Node2&#45;&gt;Node6</title>
<path fill="none" stroke="#191970" d="M328.9542,-640.6025C351.5328,-634.0837 376.5953,-626.8478 398.3183,-620.5761"/>
<polygon fill="#191970" stroke="#191970" points="327.7493,-637.3073 319.1126,-643.4439 329.6911,-644.0326 327.7493,-637.3073"/>
</g>
<!-- Node5 -->
<g id="node5" class="node">
<title>Node5</title>
<g id="a_node5"><a xlink:href="../../d7/d6c/classPHG4TpcPadPlaneReadout.html#a56fe08cc093dc800b38ec28a7e971bf3" target="_top" xlink:title="PHG4TpcPadPlaneReadout\l::MapToPadPlane">
<polygon fill="none" stroke="#000000" points="577,-616.5 577,-648.5 728,-648.5 728,-616.5 577,-616.5"/>
<text text-anchor="start" x="585" y="-635.5" font-family="FreeSans" font-size="10.00" fill="#000000">PHG4TpcPadPlaneReadout</text>
<text text-anchor="middle" x="652.5" y="-623.5" font-family="FreeSans" font-size="10.00" fill="#000000">::MapToPadPlane</text>
</a>
</g>
</g>
<!-- Node4&#45;&gt;Node5 -->
<g id="edge4" class="edge">
<title>Node4&#45;&gt;Node5</title>
<path fill="none" stroke="#191970" d="M539.8481,-648.958C552.1339,-647.1631 564.6987,-645.3274 576.771,-643.5637"/>
<polygon fill="#191970" stroke="#191970" points="538.9996,-645.5447 529.6106,-650.4536 540.0116,-652.4712 538.9996,-645.5447"/>
</g>
<!-- Node6&#45;&gt;Node5 -->
<g id="edge6" class="edge">
<title>Node6&#45;&gt;Node5</title>
<path fill="none" stroke="#191970" d="M539.8481,-616.6096C552.1339,-618.3426 564.6987,-620.1149 576.771,-621.8178"/>
<polygon fill="#191970" stroke="#191970" points="540.0015,-613.0966 529.6106,-615.1655 539.0237,-620.028 540.0015,-613.0966"/>
</g>
<!-- Node7&#45;&gt;Node4 -->
<g id="edge17" class="edge">
<title>Node7&#45;&gt;Node4</title>
<path fill="none" stroke="#191970" d="M284.6378,-407.2873C299.6505,-425.3695 319.1685,-451.4913 331,-477.5 359.926,-541.0868 320.4251,-578.4348 367,-630.5 370.314,-634.2047 374.1012,-637.4667 378.1983,-640.339"/>
<polygon fill="#191970" stroke="#191970" points="287.2365,-404.9401 278.1009,-399.5742 281.8964,-409.466 287.2365,-404.9401"/>
</g>
<!-- Node7&#45;&gt;Node5 -->
<g id="edge16" class="edge">
<title>Node7&#45;&gt;Node5</title>
<path fill="none" stroke="#191970" d="M341.6393,-386.0622C413.3787,-390.0632 512.6945,-400.3037 541,-426.5 592.2695,-473.9493 537.8495,-521.6447 577,-579.5 587.5011,-595.0182 604.1738,-607.4223 619.1835,-616.3174"/>
<polygon fill="#191970" stroke="#191970" points="341.4368,-382.5468 331.2666,-385.5161 341.0687,-389.5371 341.4368,-382.5468"/>
</g>
<!-- Node7&#45;&gt;Node6 -->
<g id="edge18" class="edge">
<title>Node7&#45;&gt;Node6</title>
<path fill="none" stroke="#191970" d="M283.548,-407.3554C298.1793,-425.6526 317.6988,-452.0147 331,-477.5 353.2433,-520.1186 332.0108,-546.5323 367,-579.5 370.6601,-582.9487 374.7646,-585.9258 379.1452,-588.4954"/>
<polygon fill="#191970" stroke="#191970" points="286.2298,-405.1056 277.2094,-399.5483 280.7954,-409.5178 286.2298,-405.1056"/>
</g>
<!-- Node8 -->
<g id="node8" class="node">
<title>Node8</title>
<g id="a_node8"><a xlink:href="../../d8/d7c/classTPCMLDataInterface.html#ad8e09026c6e113a6b0a3ad2c5a54eae6" target="_top" xlink:title="TPCMLDataInterface\l::process_event">
<polygon fill="none" stroke="#000000" points="394.5,-192.5 394.5,-224.5 513.5,-224.5 513.5,-192.5 394.5,-192.5"/>
<text text-anchor="start" x="402.5" y="-211.5" font-family="FreeSans" font-size="10.00" fill="#000000">TPCMLDataInterface</text>
<text text-anchor="middle" x="454" y="-199.5" font-family="FreeSans" font-size="10.00" fill="#000000">::process_event</text>
</a>
</g>
</g>
<!-- Node7&#45;&gt;Node8 -->
<g id="edge8" class="edge">
<title>Node7&#45;&gt;Node8</title>
<path fill="none" stroke="#191970" d="M279.9697,-358.8972C307.6264,-317.7124 360.9854,-238.8581 367,-234.5 375.1698,-228.5802 384.6922,-223.9953 394.3803,-220.4478"/>
<polygon fill="#191970" stroke="#191970" points="276.9902,-357.056 274.3257,-367.3104 282.8034,-360.9558 276.9902,-357.056"/>
</g>
<!-- Node9 -->
<g id="node9" class="node">
<title>Node9</title>
<g id="a_node9"><a xlink:href="../../de/d25/classTpcClusterizer.html#a8dd29d5451a29cd488440e096a9f53d1" target="_top" xlink:title="TpcClusterizer::process\l_event">
<polygon fill="none" stroke="#000000" points="386.5,-486.5 386.5,-518.5 521.5,-518.5 521.5,-486.5 386.5,-486.5"/>
<text text-anchor="start" x="394.5" y="-505.5" font-family="FreeSans" font-size="10.00" fill="#000000">TpcClusterizer::process</text>
<text text-anchor="middle" x="454" y="-493.5" font-family="FreeSans" font-size="10.00" fill="#000000">_event</text>
</a>
</g>
</g>
<!-- Node7&#45;&gt;Node9 -->
<g id="edge9" class="edge">
<title>Node7&#45;&gt;Node9</title>
<path fill="none" stroke="#191970" d="M283.7076,-407.2221C303.0571,-428.515 334.1006,-459.1589 367,-477.5 373.0396,-480.867 379.5732,-483.8152 386.2525,-486.389"/>
<polygon fill="#191970" stroke="#191970" points="286.1504,-404.7025 276.8848,-399.5644 280.9239,-409.3591 286.1504,-404.7025"/>
</g>
<!-- Node10 -->
<g id="node10" class="node">
<title>Node10</title>
<g id="a_node10"><a xlink:href="../../da/d27/classTPCDataStreamEmulator.html#a103b0eab10ddf8a3b47e2d6e36b5a59d" target="_top" xlink:title="TPCDataStreamEmulator\l::process_event">
<polygon fill="none" stroke="#000000" points="382.5,-345.5 382.5,-377.5 525.5,-377.5 525.5,-345.5 382.5,-345.5"/>
<text text-anchor="start" x="390.5" y="-364.5" font-family="FreeSans" font-size="10.00" fill="#000000">TPCDataStreamEmulator</text>
<text text-anchor="middle" x="454" y="-352.5" font-family="FreeSans" font-size="10.00" fill="#000000">::process_event</text>
</a>
</g>
</g>
<!-- Node7&#45;&gt;Node10 -->
<g id="edge10" class="edge">
<title>Node7&#45;&gt;Node10</title>
<path fill="none" stroke="#191970" d="M341.4326,-374.4999C354.9619,-372.9375 368.9736,-371.3193 382.3258,-369.7773"/>
<polygon fill="#191970" stroke="#191970" points="340.732,-371.0575 331.1996,-375.6817 341.5351,-378.0113 340.732,-371.0575"/>
</g>
<!-- Node11 -->
<g id="node11" class="node">
<title>Node11</title>
<g id="a_node11"><a xlink:href="../../dc/d86/classTPCIntegratedCharge.html#a81020cfbf5f20cf2696026c8ecf2953d" target="_top" xlink:title="TPCIntegratedCharge\l::process_event">
<polygon fill="none" stroke="#000000" points="391.5,-294.5 391.5,-326.5 516.5,-326.5 516.5,-294.5 391.5,-294.5"/>
<text text-anchor="start" x="399.5" y="-313.5" font-family="FreeSans" font-size="10.00" fill="#000000">TPCIntegratedCharge</text>
<text text-anchor="middle" x="454" y="-301.5" font-family="FreeSans" font-size="10.00" fill="#000000">::process_event</text>
</a>
</g>
</g>
<!-- Node7&#45;&gt;Node11 -->
<g id="edge11" class="edge">
<title>Node7&#45;&gt;Node11</title>
<path fill="none" stroke="#191970" d="M305.2216,-362.9904C323.8766,-354.2286 346.2888,-344.2564 367,-336.5 376.3006,-333.0169 386.2925,-329.6735 396.0722,-326.612"/>
<polygon fill="#191970" stroke="#191970" points="303.649,-359.8625 296.1144,-367.3111 306.6494,-366.1869 303.649,-359.8625"/>
</g>
<!-- Node12 -->
<g id="node12" class="node">
<title>Node12</title>
<g id="a_node12"><a xlink:href="../../d7/d10/classRawTowerBuilder.html#a01f91227474fd72e2e630a577973b67b" target="_top" xlink:title="RawTowerBuilder::CreateNodes">
<polygon fill="none" stroke="#000000" points="367,-153.5 367,-173.5 541,-173.5 541,-153.5 367,-153.5"/>
<text text-anchor="middle" x="454" y="-160.5" font-family="FreeSans" font-size="10.00" fill="#000000">RawTowerBuilder::CreateNodes</text>
</a>
</g>
</g>
<!-- Node7&#45;&gt;Node12 -->
<g id="edge12" class="edge">
<title>Node7&#45;&gt;Node12</title>
<path fill="none" stroke="#191970" d="M282.0633,-359.0089C296.6858,-338.9379 316.8892,-309.3947 331,-281.5 351.9451,-240.0948 332.1874,-214.1784 367,-183.5 371.5347,-179.5038 376.7069,-176.261 382.2171,-173.6349"/>
<polygon fill="#191970" stroke="#191970" points="279.0957,-357.136 275.9761,-367.2611 284.729,-361.2913 279.0957,-357.136"/>
</g>
<!-- Node14 -->
<g id="node14" class="node">
<title>Node14</title>
<g id="a_node14"><a xlink:href="../../d1/dc5/classPHG4TpcDigitizer.html#a885fb5ebbc80c8a2ed915f762b90ad79" target="_top" xlink:title="PHG4TpcDigitizer::Digitize\lCylinderCells">
<polygon fill="none" stroke="#000000" points="379.5,-243.5 379.5,-275.5 528.5,-275.5 528.5,-243.5 379.5,-243.5"/>
<text text-anchor="start" x="387.5" y="-262.5" font-family="FreeSans" font-size="10.00" fill="#000000">PHG4TpcDigitizer::Digitize</text>
<text text-anchor="middle" x="454" y="-250.5" font-family="FreeSans" font-size="10.00" fill="#000000">CylinderCells</text>
</a>
</g>
</g>
<!-- Node7&#45;&gt;Node14 -->
<g id="edge14" class="edge">
<title>Node7&#45;&gt;Node14</title>
<path fill="none" stroke="#191970" d="M282.9662,-359.4865C302.159,-337.2972 333.4206,-304.9165 367,-285.5 373.5506,-281.7123 380.7033,-278.4309 388.002,-275.5991"/>
<polygon fill="#191970" stroke="#191970" points="280.2589,-357.2674 276.4593,-367.1575 285.5971,-361.7956 280.2589,-357.2674"/>
</g>
<!-- Node16 -->
<g id="node16" class="node">
<title>Node16</title>
<g id="a_node16"><a xlink:href="../../d6/d03/classTpcPrototypeClusterizer.html#ad790455b460f30f668670fcd15cc36fb" target="_top" xlink:title="TpcPrototypeClusterizer\l::process_event">
<polygon fill="none" stroke="#000000" points="384.5,-435.5 384.5,-467.5 523.5,-467.5 523.5,-435.5 384.5,-435.5"/>
<text text-anchor="start" x="392.5" y="-454.5" font-family="FreeSans" font-size="10.00" fill="#000000">TpcPrototypeClusterizer</text>
<text text-anchor="middle" x="454" y="-442.5" font-family="FreeSans" font-size="10.00" fill="#000000">::process_event</text>
</a>
</g>
</g>
<!-- Node7&#45;&gt;Node16 -->
<g id="edge19" class="edge">
<title>Node7&#45;&gt;Node16</title>
<path fill="none" stroke="#191970" d="M317.9583,-402.9801C333.7744,-408.6344 351.0751,-414.8163 367,-420.5 380.5912,-425.3508 395.379,-430.6223 408.8422,-435.4193"/>
<polygon fill="#191970" stroke="#191970" points="318.9225,-399.6079 308.3279,-399.5368 316.5658,-406.1993 318.9225,-399.6079"/>
</g>
<!-- Node17 -->
<g id="node17" class="node">
<title>Node17</title>
<g id="a_node17"><a xlink:href="../../dd/d60/classTpcPrototypeUnpacker.html#a018feffce2f4cf203fb9efc95d3c701a" target="_top" xlink:title="TpcPrototypeUnpacker\l::exportDSTCluster">
<polygon fill="none" stroke="#000000" points="388,-537.5 388,-569.5 520,-569.5 520,-537.5 388,-537.5"/>
<text text-anchor="start" x="396" y="-556.5" font-family="FreeSans" font-size="10.00" fill="#000000">TpcPrototypeUnpacker</text>
<text text-anchor="middle" x="454" y="-544.5" font-family="FreeSans" font-size="10.00" fill="#000000">::exportDSTCluster</text>
</a>
</g>
</g>
<!-- Node7&#45;&gt;Node17 -->
<g id="edge20" class="edge">
<title>Node7&#45;&gt;Node17</title>
<path fill="none" stroke="#191970" d="M281.2719,-408.1339C294.9154,-427.0732 314.2007,-453.9044 331,-477.5 347.0916,-500.1017 344.3865,-512.425 367,-528.5 373.2764,-532.9616 380.3374,-536.6311 387.6528,-539.6484"/>
<polygon fill="#191970" stroke="#191970" points="283.9328,-405.8398 275.2465,-399.7736 278.254,-409.9326 283.9328,-405.8398"/>
</g>
<!-- Node13 -->
<g id="node13" class="node">
<title>Node13</title>
<g id="a_node13"><a xlink:href="../../d7/d10/classRawTowerBuilder.html#a4b0df4f724072bb2c3f2e59e44ef134c" target="_top" xlink:title="RawTowerBuilder::InitRun">
<polygon fill="none" stroke="#000000" points="580.5,-153.5 580.5,-173.5 724.5,-173.5 724.5,-153.5 580.5,-153.5"/>
<text text-anchor="middle" x="652.5" y="-160.5" font-family="FreeSans" font-size="10.00" fill="#000000">RawTowerBuilder::InitRun</text>
</a>
</g>
</g>
<!-- Node12&#45;&gt;Node13 -->
<g id="edge13" class="edge">
<title>Node12&#45;&gt;Node13</title>
<path fill="none" stroke="#191970" d="M551.2581,-163.5C561.0637,-163.5 570.8953,-163.5 580.3698,-163.5"/>
<polygon fill="#191970" stroke="#191970" points="551.065,-160.0001 541.065,-163.5 551.065,-167.0001 551.065,-160.0001"/>
</g>
<!-- Node15 -->
<g id="node15" class="node">
<title>Node15</title>
<g id="a_node15"><a xlink:href="../../d1/dc5/classPHG4TpcDigitizer.html#a3a1281c04ddb169c704cc2c03a327e04" target="_top" xlink:title="event processing">
<polygon fill="none" stroke="#000000" points="577.5,-243.5 577.5,-275.5 727.5,-275.5 727.5,-243.5 577.5,-243.5"/>
<text text-anchor="start" x="585.5" y="-262.5" font-family="FreeSans" font-size="10.00" fill="#000000">PHG4TpcDigitizer::process</text>
<text text-anchor="middle" x="652.5" y="-250.5" font-family="FreeSans" font-size="10.00" fill="#000000">_event</text>
</a>
</g>
</g>
<!-- Node14&#45;&gt;Node15 -->
<g id="edge15" class="edge">
<title>Node14&#45;&gt;Node15</title>
<path fill="none" stroke="#191970" d="M538.9488,-259.5C551.7592,-259.5 564.8943,-259.5 577.4761,-259.5"/>
<polygon fill="#191970" stroke="#191970" points="538.7615,-256.0001 528.7615,-259.5 538.7615,-263.0001 538.7615,-256.0001"/>
</g>
<!-- Node18 -->
<g id="node18" class="node">
<title>Node18</title>
<g id="a_node18"><a xlink:href="../../dd/d60/classTpcPrototypeUnpacker.html#a3f531b94d26bba622c59c5b71ca4dd8e" target="_top" xlink:title="Clustering then prepare IOs.">
<polygon fill="none" stroke="#000000" points="586.5,-537.5 586.5,-569.5 718.5,-569.5 718.5,-537.5 586.5,-537.5"/>
<text text-anchor="start" x="594.5" y="-556.5" font-family="FreeSans" font-size="10.00" fill="#000000">TpcPrototypeUnpacker</text>
<text text-anchor="middle" x="652.5" y="-544.5" font-family="FreeSans" font-size="10.00" fill="#000000">::Clustering</text>
</a>
</g>
</g>
<!-- Node17&#45;&gt;Node18 -->
<g id="edge21" class="edge">
<title>Node17&#45;&gt;Node18</title>
<path fill="none" stroke="#191970" d="M530.2405,-553.5C548.7384,-553.5 568.3648,-553.5 586.3528,-553.5"/>
<polygon fill="#191970" stroke="#191970" points="530.0977,-550.0001 520.0976,-553.5 530.0976,-557.0001 530.0977,-550.0001"/>
</g>
<!-- Node19 -->
<g id="node19" class="node">
<title>Node19</title>
<g id="a_node19"><a xlink:href="../../dd/d60/classTpcPrototypeUnpacker.html#a3c458d1bda422672ff79946e5816f197" target="_top" xlink:title="TpcPrototypeUnpacker\l::process_event">
<polygon fill="none" stroke="#000000" points="764,-537.5 764,-569.5 896,-569.5 896,-537.5 764,-537.5"/>
<text text-anchor="start" x="772" y="-556.5" font-family="FreeSans" font-size="10.00" fill="#000000">TpcPrototypeUnpacker</text>
<text text-anchor="middle" x="830" y="-544.5" font-family="FreeSans" font-size="10.00" fill="#000000">::process_event</text>
</a>
</g>
</g>
<!-- Node18&#45;&gt;Node19 -->
<g id="edge22" class="edge">
<title>Node18&#45;&gt;Node19</title>
<path fill="none" stroke="#191970" d="M728.7611,-553.5C740.4401,-553.5 752.4134,-553.5 763.8504,-553.5"/>
<polygon fill="#191970" stroke="#191970" points="728.5945,-550.0001 718.5944,-553.5 728.5944,-557.0001 728.5945,-550.0001"/>
</g>
<!-- Node20&#45;&gt;Node3 -->
<g id="edge25" class="edge">
<title>Node20&#45;&gt;Node3</title>
<path fill="none" stroke="#191970" d="M322.2939,-627.0267C325.4242,-629.2886 328.3613,-631.7733 331,-634.5 361.5343,-666.0525 335.4797,-695.9325 367,-726.5 373.446,-732.7511 381.2349,-737.7508 389.4708,-741.7473"/>
<polygon fill="#191970" stroke="#191970" points="323.9506,-623.9333 313.6283,-621.5458 320.2088,-629.8493 323.9506,-623.9333"/>
</g>
<!-- Node20&#45;&gt;Node4 -->
<g id="edge30" class="edge">
<title>Node20&#45;&gt;Node4</title>
<path fill="none" stroke="#191970" d="M328.054,-624.4765C344.3683,-629.2723 362.0279,-634.4636 378.8162,-639.3987"/>
<polygon fill="#191970" stroke="#191970" points="328.6708,-621.0098 318.0897,-621.5474 326.6966,-627.7256 328.6708,-621.0098"/>
</g>
<!-- Node20&#45;&gt;Node5 -->
<g id="edge29" class="edge">
<title>Node20&#45;&gt;Node5</title>
<path fill="none" stroke="#191970" d="M320.4361,-626.7441C324.1799,-629.0993 327.7478,-631.6799 331,-634.5 354.208,-654.6245 340.2129,-678.4648 367,-693.5 434.4368,-731.3513 466.0765,-712.6551 541,-693.5 574.7766,-684.8646 609.3328,-663.6524 630.8401,-648.6772"/>
<polygon fill="#191970" stroke="#191970" points="321.8729,-623.5355 311.447,-621.6511 318.4222,-629.6259 321.8729,-623.5355"/>
</g>
<!-- Node20&#45;&gt;Node6 -->
<g id="edge31" class="edge">
<title>Node20&#45;&gt;Node6</title>
<path fill="none" stroke="#191970" d="M341.3658,-605.0913C353.6016,-605.027 366.2334,-604.9607 378.4165,-604.8968"/>
<polygon fill="#191970" stroke="#191970" points="341.181,-601.5921 331.1996,-605.1446 341.2178,-608.592 341.181,-601.5921"/>
</g>
<!-- Node20&#45;&gt;Node9 -->
<g id="edge24" class="edge">
<title>Node20&#45;&gt;Node9</title>
<path fill="none" stroke="#191970" d="M288.9866,-582.5353C308.9725,-565.5617 338.1461,-542.9763 367,-528.5 374.4679,-524.7533 382.5726,-521.4436 390.7303,-518.5504"/>
<polygon fill="#191970" stroke="#191970" points="286.5549,-580.0107 281.2738,-589.1955 291.13,-585.3087 286.5549,-580.0107"/>
</g>
<!-- Node20&#45;&gt;Node16 -->
<g id="edge32" class="edge">
<title>Node20&#45;&gt;Node16</title>
<path fill="none" stroke="#191970" d="M285.5635,-581.6514C299.0863,-566.7167 316.5206,-546.8815 331,-528.5 348.1683,-506.7049 344.4718,-493.6944 367,-477.5 372.3761,-473.6354 378.3299,-470.339 384.5271,-467.5285"/>
<polygon fill="#191970" stroke="#191970" points="282.6468,-579.6557 278.4968,-589.4039 287.8201,-584.3713 282.6468,-579.6557"/>
</g>
<!-- Node20&#45;&gt;Node17 -->
<g id="edge33" class="edge">
<title>Node20&#45;&gt;Node17</title>
<path fill="none" stroke="#191970" d="M331.8901,-586.8318C352.5914,-581.1811 375.1361,-575.0272 395.1552,-569.5626"/>
<polygon fill="#191970" stroke="#191970" points="330.9361,-583.4641 322.2107,-589.474 332.7794,-590.2171 330.9361,-583.4641"/>
</g>
<!-- Node21 -->
<g id="node21" class="node">
<title>Node21</title>
<g id="a_node21"><a xlink:href="../../d6/d11/classSvtxEvaluator.html#ace95fef2b7b4ad8b797f6695e053dd6e" target="_top" xlink:title="dump the evaluator information into ntuple for external analysis">
<polygon fill="none" stroke="#000000" points="383.5,-843.5 383.5,-875.5 524.5,-875.5 524.5,-843.5 383.5,-843.5"/>
<text text-anchor="start" x="391.5" y="-862.5" font-family="FreeSans" font-size="10.00" fill="#000000">SvtxEvaluator::fillOutput</text>
<text text-anchor="middle" x="454" y="-850.5" font-family="FreeSans" font-size="10.00" fill="#000000">Ntuples</text>
</a>
</g>
</g>
<!-- Node20&#45;&gt;Node21 -->
<g id="edge26" class="edge">
<title>Node20&#45;&gt;Node21</title>
<path fill="none" stroke="#191970" d="M324.0562,-627.3768C326.5962,-629.536 328.9367,-631.9039 331,-634.5 387.1956,-705.2056 306.4654,-767.4717 367,-834.5 371.6346,-839.6317 377.2461,-843.738 383.3618,-847.0196"/>
<polygon fill="#191970" stroke="#191970" points="326.073,-624.516 315.9149,-621.5052 321.9783,-630.1935 326.073,-624.516"/>
</g>
<!-- Node23 -->
<g id="node23" class="node">
<title>Node23</title>
<g id="a_node23"><a xlink:href="../../d0/d39/classG4CellNtuple.html#a1225feb6cc44566783593b235e16eb38" target="_top" xlink:title="event processing method">
<polygon fill="none" stroke="#000000" points="390,-792.5 390,-824.5 518,-824.5 518,-792.5 390,-792.5"/>
<text text-anchor="start" x="398" y="-811.5" font-family="FreeSans" font-size="10.00" fill="#000000">G4CellNtuple::process</text>
<text text-anchor="middle" x="454" y="-799.5" font-family="FreeSans" font-size="10.00" fill="#000000">_event</text>
</a>
</g>
</g>
<!-- Node20&#45;&gt;Node23 -->
<g id="edge28" class="edge">
<title>Node20&#45;&gt;Node23</title>
<path fill="none" stroke="#191970" d="M323.7235,-627.4047C326.3678,-629.5583 328.8199,-631.9171 331,-634.5 374.9432,-686.5613 319.8671,-734.3078 367,-783.5 373.306,-790.0815 381.2204,-794.964 389.6906,-798.5796"/>
<polygon fill="#191970" stroke="#191970" points="325.5013,-624.3779 315.2933,-621.5411 321.5043,-630.1245 325.5013,-624.3779"/>
</g>
<!-- Node22 -->
<g id="node22" class="node">
<title>Node22</title>
<g id="a_node22"><a xlink:href="../../d6/d11/classSvtxEvaluator.html#ac66ea4145deb621d9e4fb38cf852dc33" target="_top" xlink:title="SvtxEvaluator::process\l_event">
<polygon fill="none" stroke="#000000" points="586.5,-843.5 586.5,-875.5 718.5,-875.5 718.5,-843.5 586.5,-843.5"/>
<text text-anchor="start" x="594.5" y="-862.5" font-family="FreeSans" font-size="10.00" fill="#000000">SvtxEvaluator::process</text>
<text text-anchor="middle" x="652.5" y="-850.5" font-family="FreeSans" font-size="10.00" fill="#000000">_event</text>
</a>
</g>
</g>
<!-- Node21&#45;&gt;Node22 -->
<g id="edge27" class="edge">
<title>Node21&#45;&gt;Node22</title>
<path fill="none" stroke="#191970" d="M534.5931,-859.5C551.8441,-859.5 569.8753,-859.5 586.4993,-859.5"/>
<polygon fill="#191970" stroke="#191970" points="534.5426,-856.0001 524.5426,-859.5 534.5426,-863.0001 534.5426,-856.0001"/>
</g>
<!-- Node24&#45;&gt;Node12 -->
<g id="edge35" class="edge">
<title>Node24&#45;&gt;Node12</title>
<path fill="none" stroke="#191970" d="M289.9916,-232.7854C309.9447,-216.7887 338.6297,-196.0634 367,-183.5 376.0693,-179.4838 386.0415,-176.2257 395.8982,-173.5976"/>
<polygon fill="#191970" stroke="#191970" points="287.5306,-230.2764 282.0013,-239.314 291.9596,-235.6971 287.5306,-230.2764"/>
</g>
<!-- Node25&#45;&gt;Node3 -->
<g id="edge39" class="edge">
<title>Node25&#45;&gt;Node3</title>
<path fill="none" stroke="#191970" d="M288.0917,-525.7301C302.3116,-540.3071 319.5915,-560.1468 331,-580.5 356.7723,-626.4789 336.2675,-650.6773 367,-693.5 381.5406,-713.7609 404.455,-730.2439 423.1176,-741.4057"/>
<polygon fill="#191970" stroke="#191970" points="290.5252,-523.2138 280.9818,-518.6122 285.5726,-528.1608 290.5252,-523.2138"/>
</g>
<!-- Node25&#45;&gt;Node4 -->
<g id="edge40" class="edge">
<title>Node25&#45;&gt;Node4</title>
<path fill="none" stroke="#191970" d="M284.8351,-526.0351C298.407,-541.2759 316.1566,-561.7139 331,-580.5 347.9763,-601.9856 345.1106,-614.0476 367,-630.5 371.358,-633.7755 376.093,-636.7278 381.028,-639.3849"/>
<polygon fill="#191970" stroke="#191970" points="287.4341,-523.6909 278.1561,-518.5752 282.2189,-528.3602 287.4341,-523.6909"/>
</g>
<!-- Node25&#45;&gt;Node6 -->
<g id="edge41" class="edge">
<title>Node25&#45;&gt;Node6</title>
<path fill="none" stroke="#191970" d="M288.5788,-525.2416C308.5502,-542.2959 337.8935,-565.0893 367,-579.5 373.7602,-582.847 381.0439,-585.8178 388.4172,-588.4357"/>
<polygon fill="#191970" stroke="#191970" points="290.7275,-522.472 280.8828,-518.5562 286.1369,-527.7565 290.7275,-522.472"/>
</g>
<!-- Node25&#45;&gt;Node9 -->
<g id="edge37" class="edge">
<title>Node25&#45;&gt;Node9</title>
<path fill="none" stroke="#191970" d="M341.3761,-502.5C356.2372,-502.5 371.6824,-502.5 386.1977,-502.5"/>
<polygon fill="#191970" stroke="#191970" points="341.1996,-499.0001 331.1996,-502.5 341.1995,-506.0001 341.1996,-499.0001"/>
</g>
<!-- Node25&#45;&gt;Node12 -->
<g id="edge38" class="edge">
<title>Node25&#45;&gt;Node12</title>
<path fill="none" stroke="#191970" d="M285.492,-478.9242C300.7502,-461.1873 320.203,-435.5514 331,-409.5 369.942,-315.5393 297.5658,-257.8235 367,-183.5 370.703,-179.5362 375.0197,-176.2825 379.713,-173.6187"/>
<polygon fill="#191970" stroke="#191970" points="282.8093,-476.6746 278.8228,-486.4908 288.0607,-481.3031 282.8093,-476.6746"/>
</g>
<!-- Node25&#45;&gt;Node16 -->
<g id="edge42" class="edge">
<title>Node25&#45;&gt;Node16</title>
<path fill="none" stroke="#191970" d="M333.4277,-483.7792C353.2913,-478.4614 374.7391,-472.7194 393.9606,-467.5736"/>
<polygon fill="#191970" stroke="#191970" points="332.2686,-480.4662 323.5139,-486.4333 334.0789,-487.2281 332.2686,-480.4662"/>
</g>
<!-- Node27 -->
<g id="node27" class="node">
<title>Node27</title>
<g id="a_node27"><a xlink:href="../../d5/dd0/classPHG4CylinderCellReco.html#ada869396a39d11561fcbb85572446310" target="_top" xlink:title="module initialization">
<polygon fill="none" stroke="#000000" points="389.5,-102.5 389.5,-134.5 518.5,-134.5 518.5,-102.5 389.5,-102.5"/>
<text text-anchor="start" x="397.5" y="-121.5" font-family="FreeSans" font-size="10.00" fill="#000000">PHG4CylinderCellReco</text>
<text text-anchor="middle" x="454" y="-109.5" font-family="FreeSans" font-size="10.00" fill="#000000">::InitRun</text>
</a>
</g>
</g>
<!-- Node26&#45;&gt;Node27 -->
<g id="edge44" class="edge">
<title>Node26&#45;&gt;Node27</title>
<path fill="none" stroke="#191970" d="M341.5378,-118.5C357.4448,-118.5 374.0142,-118.5 389.3912,-118.5"/>
<polygon fill="#191970" stroke="#191970" points="341.1996,-115.0001 331.1996,-118.5 341.1995,-122.0001 341.1996,-115.0001"/>
</g>
<!-- Node28 -->
<g id="node28" class="node">
<title>Node28</title>
<g id="a_node28"><a xlink:href="../../dc/d20/classPHG4FullProjSpacalCellReco.html#a37f9ab5678a82c0a886af63ebd1d5f85" target="_top" xlink:title="module initialization">
<polygon fill="none" stroke="#000000" points="375,-51.5 375,-83.5 533,-83.5 533,-51.5 375,-51.5"/>
<text text-anchor="start" x="383" y="-70.5" font-family="FreeSans" font-size="10.00" fill="#000000">PHG4FullProjSpacalCellReco</text>
<text text-anchor="middle" x="454" y="-58.5" font-family="FreeSans" font-size="10.00" fill="#000000">::InitRun</text>
</a>
</g>
</g>
<!-- Node26&#45;&gt;Node28 -->
<g id="edge45" class="edge">
<title>Node26&#45;&gt;Node28</title>
<path fill="none" stroke="#191970" d="M333.4277,-99.7792C353.2913,-94.4614 374.7391,-88.7194 393.9606,-83.5736"/>
<polygon fill="#191970" stroke="#191970" points="332.2686,-96.4662 323.5139,-102.4333 334.0789,-103.2281 332.2686,-96.4662"/>
</g>
<!-- Node29 -->
<g id="node29" class="node">
<title>Node29</title>
<g id="a_node29"><a xlink:href="../../d7/d6c/classPHG4TpcPadPlaneReadout.html#a838c315e35cb3066d4e1c5553340838c" target="_top" xlink:title="PHG4TpcPadPlaneReadout\l::CreateReadoutGeometry">
<polygon fill="none" stroke="#000000" points="378.5,-.5 378.5,-32.5 529.5,-32.5 529.5,-.5 378.5,-.5"/>
<text text-anchor="start" x="386.5" y="-19.5" font-family="FreeSans" font-size="10.00" fill="#000000">PHG4TpcPadPlaneReadout</text>
<text text-anchor="middle" x="454" y="-7.5" font-family="FreeSans" font-size="10.00" fill="#000000">::CreateReadoutGeometry</text>
</a>
</g>
</g>
<!-- Node26&#45;&gt;Node29 -->
<g id="edge46" class="edge">
<title>Node26&#45;&gt;Node29</title>
<path fill="none" stroke="#191970" d="M325.4781,-97.4035C327.3879,-96.1697 329.2353,-94.8695 331,-93.5 353.2064,-76.2663 344.164,-57.8903 367,-41.5 371.7239,-38.1095 376.8996,-35.1768 382.298,-32.6404"/>
<polygon fill="#191970" stroke="#191970" points="323.7014,-94.3876 316.7664,-102.3974 327.1827,-100.4606 323.7014,-94.3876"/>
</g>
<!-- Node30&#45;&gt;Node27 -->
<g id="edge48" class="edge">
<title>Node30&#45;&gt;Node27</title>
<path fill="none" stroke="#191970" d="M333.4277,-150.7792C353.2913,-145.4614 374.7391,-139.7194 393.9606,-134.5736"/>
<polygon fill="#191970" stroke="#191970" points="332.2686,-147.4662 323.5139,-153.4333 334.0789,-154.2281 332.2686,-147.4662"/>
</g>
<!-- Node30&#45;&gt;Node28 -->
<g id="edge49" class="edge">
<title>Node30&#45;&gt;Node28</title>
<path fill="none" stroke="#191970" d="M325.4619,-148.3826C327.3764,-147.1547 329.2291,-145.8615 331,-144.5 352.9959,-127.5897 344.4718,-109.6944 367,-93.5 372.3761,-89.6354 378.3299,-86.339 384.5271,-83.5285"/>
<polygon fill="#191970" stroke="#191970" points="323.6897,-145.364 316.7349,-153.3566 327.156,-151.4456 323.6897,-145.364"/>
</g>
<!-- Node31&#45;&gt;Node27 -->
<g id="edge51" class="edge">
<title>Node31&#45;&gt;Node27</title>
<path fill="none" stroke="#191970" d="M333.4277,-86.2208C353.2913,-91.5386 374.7391,-97.2806 393.9606,-102.4264"/>
<polygon fill="#191970" stroke="#191970" points="334.0789,-82.7719 323.5139,-83.5667 332.2686,-89.5338 334.0789,-82.7719"/>
</g>
<!-- Node31&#45;&gt;Node28 -->
<g id="edge52" class="edge">
<title>Node31&#45;&gt;Node28</title>
<path fill="none" stroke="#191970" d="M341.2529,-67.5C352.3193,-67.5 363.712,-67.5 374.8056,-67.5"/>
<polygon fill="#191970" stroke="#191970" points="341.1996,-64.0001 331.1996,-67.5 341.1995,-71.0001 341.1996,-64.0001"/>
</g>
<!-- Node31&#45;&gt;Node29 -->
<g id="edge53" class="edge">
<title>Node31&#45;&gt;Node29</title>
<path fill="none" stroke="#191970" d="M333.4277,-48.7792C353.2913,-43.4614 374.7391,-37.7194 393.9606,-32.5736"/>
<polygon fill="#191970" stroke="#191970" points="332.2686,-45.4662 323.5139,-51.4333 334.0789,-52.2281 332.2686,-45.4662"/>
</g>
</g>
</svg>
