<?xml version="1.0" encoding="UTF-8" standalone="no"?>
<!DOCTYPE svg PUBLIC "-//W3C//DTD SVG 1.1//EN"
 "http://www.w3.org/Graphics/SVG/1.1/DTD/svg11.dtd">
<!-- Generated by graphviz version 2.40.1 (20161225.0304)
 -->
<!-- Title: PHG4ScoringManager::getHistoManager Pages: 1 -->
<svg width="520pt" height="158pt"
 viewBox="0.00 0.00 520.00 158.00" xmlns="http://www.w3.org/2000/svg" xmlns:xlink="http://www.w3.org/1999/xlink">
<g id="graph0" class="graph" transform="scale(1 1) rotate(0) translate(4 154)">
<title>PHG4ScoringManager::getHistoManager</title>
<!-- Node1 -->
<g id="node1" class="node">
<title>Node1</title>
<polygon fill="#bfbfbf" stroke="#000000" points="0,-64.5 0,-96.5 127,-96.5 127,-64.5 0,-64.5"/>
<text text-anchor="start" x="8" y="-83.5" font-family="FreeSans" font-size="10.00" fill="#000000">PHG4ScoringManager</text>
<text text-anchor="middle" x="63.5" y="-71.5" font-family="FreeSans" font-size="10.00" fill="#000000">::getHistoManager</text>
</g>
<!-- Node2 -->
<g id="node2" class="node">
<title>Node2</title>
<g id="a_node2"><a xlink:href="../../da/d29/classFun4AllServer.html#af5885837658eb26f98dbc697b58747a7" target="_top" xlink:title="Fun4AllServer::getHistoManager">
<polygon fill="none" stroke="#000000" points="163,-129.5 163,-149.5 344,-149.5 344,-129.5 163,-129.5"/>
<text text-anchor="middle" x="253.5" y="-136.5" font-family="FreeSans" font-size="10.00" fill="#000000">Fun4AllServer::getHistoManager</text>
</a>
</g>
</g>
<!-- Node1&#45;&gt;Node2 -->
<g id="edge1" class="edge">
<title>Node1&#45;&gt;Node2</title>
<path fill="none" stroke="#191970" d="M108.8844,-96.6463C125.7984,-102.495 145.2082,-109.0081 163,-114.5 176.6611,-118.7168 191.5848,-122.9788 205.3022,-126.7601"/>
<polygon fill="#191970" stroke="#191970" points="204.4732,-130.1618 215.0421,-129.4209 206.3179,-123.4092 204.4732,-130.1618"/>
</g>
<!-- Node3 -->
<g id="node3" class="node">
<title>Node3</title>
<g id="a_node3"><a xlink:href="../../d5/dec/classFun4AllBase.html#a8a5c77a92bdac6bc043476e132379a40" target="_top" xlink:title="Gets the verbosity of this module.">
<polygon fill="none" stroke="#000000" points="380,-90.5 380,-110.5 512,-110.5 512,-90.5 380,-90.5"/>
<text text-anchor="middle" x="446" y="-97.5" font-family="FreeSans" font-size="10.00" fill="#000000">Fun4AllBase::Verbosity</text>
</a>
</g>
</g>
<!-- Node1&#45;&gt;Node3 -->
<g id="edge7" class="edge">
<title>Node1&#45;&gt;Node3</title>
<path fill="none" stroke="#191970" d="M127.0915,-83.825C193.7057,-87.3081 298.347,-92.7796 369.4482,-96.4973"/>
<polygon fill="#191970" stroke="#191970" points="369.5175,-100.0056 379.6867,-97.0326 369.8831,-93.0152 369.5175,-100.0056"/>
</g>
<!-- Node4 -->
<g id="node4" class="node">
<title>Node4</title>
<g id="a_node4"><a xlink:href="../../da/d29/classFun4AllServer.html#a3e55156f91b2c94bb6c4ef33ffce587a" target="_top" xlink:title="Fun4AllServer::instance">
<polygon fill="none" stroke="#000000" points="185.5,-51.5 185.5,-71.5 321.5,-71.5 321.5,-51.5 185.5,-51.5"/>
<text text-anchor="middle" x="253.5" y="-58.5" font-family="FreeSans" font-size="10.00" fill="#000000">Fun4AllServer::instance</text>
</a>
</g>
</g>
<!-- Node1&#45;&gt;Node4 -->
<g id="edge3" class="edge">
<title>Node1&#45;&gt;Node4</title>
<path fill="none" stroke="#191970" d="M127.0314,-74.1469C142.4295,-72.607 159.0711,-70.9429 175.0662,-69.3434"/>
<polygon fill="#191970" stroke="#191970" points="175.8622,-72.7813 185.4643,-68.3036 175.1656,-65.8161 175.8622,-72.7813"/>
</g>
<!-- Node5 -->
<g id="node5" class="node">
<title>Node5</title>
<g id="a_node5"><a xlink:href="../../da/d29/classFun4AllServer.html#a377f113767f24ce6413e678752ed7f53" target="_top" xlink:title="Fun4AllServer::registerHisto\lManager">
<polygon fill="none" stroke="#000000" points="174.5,-.5 174.5,-32.5 332.5,-32.5 332.5,-.5 174.5,-.5"/>
<text text-anchor="start" x="182.5" y="-19.5" font-family="FreeSans" font-size="10.00" fill="#000000">Fun4AllServer::registerHisto</text>
<text text-anchor="middle" x="253.5" y="-7.5" font-family="FreeSans" font-size="10.00" fill="#000000">Manager</text>
</a>
</g>
</g>
<!-- Node1&#45;&gt;Node5 -->
<g id="edge4" class="edge">
<title>Node1&#45;&gt;Node5</title>
<path fill="none" stroke="#191970" d="M101.9049,-64.3684C120.2367,-56.9469 142.5805,-48.3017 163,-41.5 169.2343,-39.4234 175.7493,-37.3808 182.3019,-35.4131"/>
<polygon fill="#191970" stroke="#191970" points="183.2958,-38.7692 191.9011,-32.5886 181.3197,-32.0539 183.2958,-38.7692"/>
</g>
<!-- Node2&#45;&gt;Node3 -->
<g id="edge2" class="edge">
<title>Node2&#45;&gt;Node3</title>
<path fill="none" stroke="#191970" d="M303.0735,-129.4565C328.5587,-124.2933 359.8046,-117.963 386.5749,-112.5394"/>
<polygon fill="#191970" stroke="#191970" points="387.4886,-115.9255 396.5945,-110.5094 386.0986,-109.0648 387.4886,-115.9255"/>
</g>
<!-- Node5&#45;&gt;Node3 -->
<g id="edge6" class="edge">
<title>Node5&#45;&gt;Node3</title>
<path fill="none" stroke="#191970" d="M319.4233,-32.5817C327.8076,-35.2457 336.183,-38.2229 344,-41.5 372.4679,-53.4343 402.8129,-71.7974 422.9322,-84.8646"/>
<polygon fill="#191970" stroke="#191970" points="421.1372,-87.8734 431.4131,-90.4537 424.9892,-82.0285 421.1372,-87.8734"/>
</g>
<!-- Node6 -->
<g id="node6" class="node">
<title>Node6</title>
<g id="a_node6"><a xlink:href="../../d5/dec/classFun4AllBase.html#a41f9ac377743d046f590617fd6f4f0ed" target="_top" xlink:title="Returns the name of this module.">
<polygon fill="none" stroke="#000000" points="388.5,-6.5 388.5,-26.5 503.5,-26.5 503.5,-6.5 388.5,-6.5"/>
<text text-anchor="middle" x="446" y="-13.5" font-family="FreeSans" font-size="10.00" fill="#000000">Fun4AllBase::Name</text>
</a>
</g>
</g>
<!-- Node5&#45;&gt;Node6 -->
<g id="edge5" class="edge">
<title>Node5&#45;&gt;Node6</title>
<path fill="none" stroke="#191970" d="M332.6305,-16.5C347.7965,-16.5 363.5485,-16.5 378.3143,-16.5"/>
<polygon fill="#191970" stroke="#191970" points="378.3598,-20.0001 388.3598,-16.5 378.3598,-13.0001 378.3598,-20.0001"/>
</g>
</g>
</svg>
