<?xml version="1.0" encoding="UTF-8" standalone="no"?>
<!DOCTYPE svg PUBLIC "-//W3C//DTD SVG 1.1//EN"
 "http://www.w3.org/Graphics/SVG/1.1/DTD/svg11.dtd">
<!-- Generated by graphviz version 2.40.1 (20161225.0304)
 -->
<!-- Title: coresoftware/blob/master/offline/packages/PHGeometry/PHGeomTGeo.h Pages: 1 -->
<svg width="186pt" height="167pt"
 viewBox="0.00 0.00 185.50 167.00" xmlns="http://www.w3.org/2000/svg" xmlns:xlink="http://www.w3.org/1999/xlink">
<g id="graph0" class="graph" transform="scale(1 1) rotate(0) translate(4 163)">
<title>coresoftware/blob/master/offline/packages/PHGeometry/PHGeomTGeo.h</title>
<!-- Node1 -->
<g id="node1" class="node">
<title>Node1</title>
<polygon fill="#bfbfbf" stroke="#000000" points="6.5,-114.5 6.5,-158.5 177.5,-158.5 177.5,-114.5 6.5,-114.5"/>
<text text-anchor="start" x="14.5" y="-145.5" font-family="FreeSans" font-size="10.00" fill="#000000">coresoftware/blob/master</text>
<text text-anchor="start" x="14.5" y="-133.5" font-family="FreeSans" font-size="10.00" fill="#000000">/offline/packages/PHGeometry</text>
<text text-anchor="middle" x="92" y="-121.5" font-family="FreeSans" font-size="10.00" fill="#000000">/PHGeomTGeo.h</text>
</g>
<!-- Node2 -->
<g id="node2" class="node">
<title>Node2</title>
<g id="a_node2"><a xlink:href="../../df/d32/PHObject_8h.html" target="_top" xlink:title="phool/PHObject.h">
<polygon fill="none" stroke="#000000" points="0,-57.5 0,-77.5 104,-77.5 104,-57.5 0,-57.5"/>
<text text-anchor="middle" x="52" y="-64.5" font-family="FreeSans" font-size="10.00" fill="#000000">phool/PHObject.h</text>
</a>
</g>
</g>
<!-- Node1&#45;&gt;Node2 -->
<g id="edge1" class="edge">
<title>Node1&#45;&gt;Node2</title>
<path fill="none" stroke="#191970" d="M79.1236,-114.2882C73.9464,-105.3575 68.0366,-95.1632 63.0579,-86.5749"/>
<polygon fill="#191970" stroke="#191970" points="65.9643,-84.6097 57.921,-77.7137 59.9083,-88.1205 65.9643,-84.6097"/>
</g>
<!-- Node4 -->
<g id="node4" class="node">
<title>Node4</title>
<polygon fill="none" stroke="#bfbfbf" points="102,-.5 102,-20.5 162,-20.5 162,-.5 102,-.5"/>
<text text-anchor="middle" x="132" y="-7.5" font-family="FreeSans" font-size="10.00" fill="#000000">iostream</text>
</g>
<!-- Node1&#45;&gt;Node4 -->
<g id="edge4" class="edge">
<title>Node1&#45;&gt;Node4</title>
<path fill="none" stroke="#191970" d="M100.3468,-114.4021C104.3568,-103.5047 109.1215,-90.1281 113,-78 118.0912,-62.0795 123.1865,-43.8205 126.8171,-30.3106"/>
<polygon fill="#191970" stroke="#191970" points="130.2041,-31.1928 129.3866,-20.6296 123.4383,-29.397 130.2041,-31.1928"/>
</g>
<!-- Node3 -->
<g id="node3" class="node">
<title>Node3</title>
<polygon fill="none" stroke="#bfbfbf" points="18.5,-.5 18.5,-20.5 83.5,-20.5 83.5,-.5 18.5,-.5"/>
<text text-anchor="middle" x="51" y="-7.5" font-family="FreeSans" font-size="10.00" fill="#000000">TObject.h</text>
</g>
<!-- Node2&#45;&gt;Node3 -->
<g id="edge2" class="edge">
<title>Node2&#45;&gt;Node3</title>
<path fill="none" stroke="#191970" d="M51.8212,-57.3095C51.6918,-49.9335 51.5126,-39.72 51.3546,-30.715"/>
<polygon fill="#191970" stroke="#191970" points="54.8522,-30.5393 51.1772,-20.6022 47.8533,-30.6621 54.8522,-30.5393"/>
</g>
<!-- Node2&#45;&gt;Node4 -->
<g id="edge3" class="edge">
<title>Node2&#45;&gt;Node4</title>
<path fill="none" stroke="#191970" d="M66.3024,-57.3095C78.2474,-48.7987 95.4945,-36.5102 109.3202,-26.6594"/>
<polygon fill="#191970" stroke="#191970" points="111.7082,-29.2555 117.8214,-20.6022 107.6462,-23.5545 111.7082,-29.2555"/>
</g>
</g>
</svg>
