<?xml version="1.0" encoding="UTF-8" standalone="no"?>
<!DOCTYPE svg PUBLIC "-//W3C//DTD SVG 1.1//EN"
 "http://www.w3.org/Graphics/SVG/1.1/DTD/svg11.dtd">
<!-- Generated by graphviz version 2.40.1 (20161225.0304)
 -->
<!-- Title: emptyFrameV1 Pages: 1 -->
<svg width="512pt" height="68pt"
 viewBox="0.00 0.00 512.00 68.00" xmlns="http://www.w3.org/2000/svg" xmlns:xlink="http://www.w3.org/1999/xlink">
<g id="graph0" class="graph" transform="scale(1 1) rotate(0) translate(4 64)">
<title>emptyFrameV1</title>
<!-- Node1 -->
<g id="node1" class="node">
<title>Node1</title>
<polygon fill="#bfbfbf" stroke="#000000" points="0,-19.5 0,-39.5 93,-39.5 93,-19.5 0,-19.5"/>
<text text-anchor="middle" x="46.5" y="-26.5" font-family="FreeSans" font-size="10.00" fill="#000000">emptyFrameV1</text>
</g>
<!-- Node2 -->
<g id="node2" class="node">
<title>Node2</title>
<g id="a_node2"><a xlink:href="../../dd/d35/Cframe_8h.html#a6b9f65e37b5a69d47bfada6e5a823821" target="_top" xlink:title="getFrameHdrLength">
<polygon fill="none" stroke="#000000" points="129,-.5 129,-20.5 246,-20.5 246,-.5 129,-.5"/>
<text text-anchor="middle" x="187.5" y="-7.5" font-family="FreeSans" font-size="10.00" fill="#000000">getFrameHdrLength</text>
</a>
</g>
</g>
<!-- Node1&#45;&gt;Node2 -->
<g id="edge1" class="edge">
<title>Node1&#45;&gt;Node2</title>
<path fill="none" stroke="#191970" d="M93.0594,-23.226C101.3041,-22.1151 110.0444,-20.9373 118.7491,-19.7643"/>
<polygon fill="#191970" stroke="#191970" points="119.4765,-23.198 128.9195,-18.3938 118.5416,-16.2607 119.4765,-23.198"/>
</g>
<!-- Node3 -->
<g id="node3" class="node">
<title>Node3</title>
<g id="a_node3"><a xlink:href="../../dd/d35/Cframe_8h.html#a33030fea4beb4b49416b60d68f9d32db" target="_top" xlink:title="getFrameLength">
<polygon fill="none" stroke="#000000" points="282,-39.5 282,-59.5 380,-59.5 380,-39.5 282,-39.5"/>
<text text-anchor="middle" x="331" y="-46.5" font-family="FreeSans" font-size="10.00" fill="#000000">getFrameLength</text>
</a>
</g>
</g>
<!-- Node1&#45;&gt;Node3 -->
<g id="edge5" class="edge">
<title>Node1&#45;&gt;Node3</title>
<path fill="none" stroke="#191970" d="M93.1608,-32.7802C141.9308,-36.2087 218.6013,-41.5985 271.6479,-45.3276"/>
<polygon fill="#191970" stroke="#191970" points="271.7061,-48.8403 281.927,-46.0502 272.1971,-41.8575 271.7061,-48.8403"/>
</g>
<!-- Node2&#45;&gt;Node3 -->
<g id="edge2" class="edge">
<title>Node2&#45;&gt;Node3</title>
<path fill="none" stroke="#191970" d="M224.4548,-20.5435C242.6996,-25.502 264.905,-31.5369 284.3124,-36.8114"/>
<polygon fill="#191970" stroke="#191970" points="283.6025,-40.2453 294.1704,-39.4906 285.4384,-33.4904 283.6025,-40.2453"/>
</g>
<!-- Node4 -->
<g id="node4" class="node">
<title>Node4</title>
<g id="a_node4"><a xlink:href="../../d0/db6/formatError_8C.html#a5e3e311e06d8c0240b4e42af658900fb" target="_top" xlink:title="setFrameError">
<polygon fill="none" stroke="#000000" points="416,-19.5 416,-39.5 504,-39.5 504,-19.5 416,-19.5"/>
<text text-anchor="middle" x="460" y="-26.5" font-family="FreeSans" font-size="10.00" fill="#000000">setFrameError</text>
</a>
</g>
</g>
<!-- Node2&#45;&gt;Node4 -->
<g id="edge4" class="edge">
<title>Node2&#45;&gt;Node4</title>
<path fill="none" stroke="#191970" d="M246.293,-14.5993C293.5671,-17.8955 359.4702,-22.4906 405.5516,-25.7036"/>
<polygon fill="#191970" stroke="#191970" points="405.431,-29.2036 415.6503,-26.4077 405.918,-22.2206 405.431,-29.2036"/>
</g>
<!-- Node3&#45;&gt;Node4 -->
<g id="edge3" class="edge">
<title>Node3&#45;&gt;Node4</title>
<path fill="none" stroke="#191970" d="M380.1374,-41.8818C388.4391,-40.5947 397.1013,-39.2517 405.5293,-37.9451"/>
<polygon fill="#191970" stroke="#191970" points="406.3078,-41.3663 415.6535,-36.3754 405.2353,-34.4489 406.3078,-41.3663"/>
</g>
</g>
</svg>
