<?xml version="1.0" encoding="UTF-8" standalone="no"?>
<!DOCTYPE svg PUBLIC "-//W3C//DTD SVG 1.1//EN"
 "http://www.w3.org/Graphics/SVG/1.1/DTD/svg11.dtd">
<!-- Generated by graphviz version 2.40.1 (20161225.0304)
 -->
<!-- Title: getHistoryStageV1 Pages: 1 -->
<svg width="767pt" height="87pt"
 viewBox="0.00 0.00 767.00 87.00" xmlns="http://www.w3.org/2000/svg" xmlns:xlink="http://www.w3.org/1999/xlink">
<g id="graph0" class="graph" transform="scale(1 1) rotate(0) translate(4 83)">
<title>getHistoryStageV1</title>
<!-- Node1 -->
<g id="node1" class="node">
<title>Node1</title>
<polygon fill="#bfbfbf" stroke="#000000" points="0,-19.5 0,-39.5 111,-39.5 111,-19.5 0,-19.5"/>
<text text-anchor="middle" x="55.5" y="-26.5" font-family="FreeSans" font-size="10.00" fill="#000000">getHistoryStageV1</text>
</g>
<!-- Node2 -->
<g id="node2" class="node">
<title>Node2</title>
<g id="a_node2"><a xlink:href="../../db/d95/CframeV1_8h.html#a0418ec3e5257d1de68059e9543ceac71" target="_top" xlink:title="getHistoryEntryV1">
<polygon fill="none" stroke="#000000" points="174,-39.5 174,-59.5 283,-59.5 283,-39.5 174,-39.5"/>
<text text-anchor="middle" x="228.5" y="-46.5" font-family="FreeSans" font-size="10.00" fill="#000000">getHistoryEntryV1</text>
</a>
</g>
</g>
<!-- Node1&#45;&gt;Node2 -->
<g id="edge1" class="edge">
<title>Node1&#45;&gt;Node2</title>
<path fill="none" stroke="#191970" d="M111.1906,-35.9382C127.9524,-37.876 146.4897,-40.019 163.7843,-42.0184"/>
<polygon fill="#191970" stroke="#191970" points="163.4649,-45.5047 173.8007,-43.1764 164.2688,-38.551 163.4649,-45.5047"/>
</g>
<!-- Node7 -->
<g id="node7" class="node">
<title>Node7</title>
<g id="a_node7"><a xlink:href="../../db/d95/CframeV1_8h.html#afbf79b2d89a1784c37ff4161d3574c25" target="_top" xlink:title="getStageFromHistoryEntryV1">
<polygon fill="none" stroke="#000000" points="147,-.5 147,-20.5 310,-20.5 310,-.5 147,-.5"/>
<text text-anchor="middle" x="228.5" y="-7.5" font-family="FreeSans" font-size="10.00" fill="#000000">getStageFromHistoryEntryV1</text>
</a>
</g>
</g>
<!-- Node1&#45;&gt;Node7 -->
<g id="edge7" class="edge">
<title>Node1&#45;&gt;Node7</title>
<path fill="none" stroke="#191970" d="M111.1906,-23.3837C119.355,-22.487 127.9407,-21.5441 136.5989,-20.5932"/>
<polygon fill="#191970" stroke="#191970" points="137.2171,-24.0464 146.7752,-19.4756 136.4528,-17.0883 137.2171,-24.0464"/>
</g>
<!-- Node3 -->
<g id="node3" class="node">
<title>Node3</title>
<g id="a_node3"><a xlink:href="../../d1/dce/Cframe_8C.html#a6f01e161db6e6b94bd6aa5225e135f97" target="_top" xlink:title="findFrameHistoryStart">
<polygon fill="none" stroke="#000000" points="349,-58.5 349,-78.5 477,-78.5 477,-58.5 349,-58.5"/>
<text text-anchor="middle" x="413" y="-65.5" font-family="FreeSans" font-size="10.00" fill="#000000">findFrameHistoryStart</text>
</a>
</g>
</g>
<!-- Node2&#45;&gt;Node3 -->
<g id="edge2" class="edge">
<title>Node2&#45;&gt;Node3</title>
<path fill="none" stroke="#191970" d="M283.3566,-55.1492C300.7437,-56.9397 320.2643,-58.95 338.7769,-60.8564"/>
<polygon fill="#191970" stroke="#191970" points="338.6322,-64.3599 348.9381,-61.9028 339.3493,-57.3968 338.6322,-64.3599"/>
</g>
<!-- Node6 -->
<g id="node6" class="node">
<title>Node6</title>
<g id="a_node6"><a xlink:href="../../d1/dce/Cframe_8C.html#a449d7bf915cc9cadab78683d11836e4f" target="_top" xlink:title="getFrameHistoryLength">
<polygon fill="none" stroke="#000000" points="346,-19.5 346,-39.5 480,-39.5 480,-19.5 346,-19.5"/>
<text text-anchor="middle" x="413" y="-26.5" font-family="FreeSans" font-size="10.00" fill="#000000">getFrameHistoryLength</text>
</a>
</g>
</g>
<!-- Node2&#45;&gt;Node6 -->
<g id="edge5" class="edge">
<title>Node2&#45;&gt;Node6</title>
<path fill="none" stroke="#191970" d="M283.3566,-43.5535C299.7836,-41.7728 318.1149,-39.7857 335.7014,-37.8793"/>
<polygon fill="#191970" stroke="#191970" points="336.3854,-41.3257 345.9499,-36.7683 335.6309,-34.3665 336.3854,-41.3257"/>
</g>
<!-- Node4 -->
<g id="node4" class="node">
<title>Node4</title>
<g id="a_node4"><a xlink:href="../../dd/d35/Cframe_8h.html#a9865ee8e25f33106f015f2167da9571b" target="_top" xlink:title="getFrameHdrVersion">
<polygon fill="none" stroke="#000000" points="516,-38.5 516,-58.5 635,-58.5 635,-38.5 516,-38.5"/>
<text text-anchor="middle" x="575.5" y="-45.5" font-family="FreeSans" font-size="10.00" fill="#000000">getFrameHdrVersion</text>
</a>
</g>
</g>
<!-- Node3&#45;&gt;Node4 -->
<g id="edge3" class="edge">
<title>Node3&#45;&gt;Node4</title>
<path fill="none" stroke="#191970" d="M477.2243,-60.5955C486.6058,-59.4408 496.3044,-58.2472 505.7888,-57.0798"/>
<polygon fill="#191970" stroke="#191970" points="506.4738,-60.522 515.9713,-55.8266 505.6186,-53.5745 506.4738,-60.522"/>
</g>
<!-- Node5 -->
<g id="node5" class="node">
<title>Node5</title>
<g id="a_node5"><a xlink:href="../../d0/db6/formatError_8C.html#a5e3e311e06d8c0240b4e42af658900fb" target="_top" xlink:title="setFrameError">
<polygon fill="none" stroke="#000000" points="671,-38.5 671,-58.5 759,-58.5 759,-38.5 671,-38.5"/>
<text text-anchor="middle" x="715" y="-45.5" font-family="FreeSans" font-size="10.00" fill="#000000">setFrameError</text>
</a>
</g>
</g>
<!-- Node4&#45;&gt;Node5 -->
<g id="edge4" class="edge">
<title>Node4&#45;&gt;Node5</title>
<path fill="none" stroke="#191970" d="M635.0652,-48.5C643.5941,-48.5 652.3307,-48.5 660.75,-48.5"/>
<polygon fill="#191970" stroke="#191970" points="660.8269,-52.0001 670.8269,-48.5 660.8269,-45.0001 660.8269,-52.0001"/>
</g>
<!-- Node6&#45;&gt;Node4 -->
<g id="edge6" class="edge">
<title>Node6&#45;&gt;Node4</title>
<path fill="none" stroke="#191970" d="M480.0332,-37.3377C488.5791,-38.3369 497.3417,-39.3615 505.9266,-40.3653"/>
<polygon fill="#191970" stroke="#191970" points="505.5605,-43.8462 515.8993,-41.5313 506.3735,-36.8936 505.5605,-43.8462"/>
</g>
</g>
</svg>
