<?xml version="1.0" encoding="UTF-8" standalone="no"?>
<!DOCTYPE svg PUBLIC "-//W3C//DTD SVG 1.1//EN"
 "http://www.w3.org/Graphics/SVG/1.1/DTD/svg11.dtd">
<!-- Generated by graphviz version 2.40.1 (20161225.0304)
 -->
<!-- Title: RawTowerDigitizer::set_photonelec_yield_visible_GeV Pages: 1 -->
<svg width="572pt" height="764pt"
 viewBox="0.00 0.00 572.00 764.00" xmlns="http://www.w3.org/2000/svg" xmlns:xlink="http://www.w3.org/1999/xlink">
<g id="graph0" class="graph" transform="scale(1 1) rotate(0) translate(4 760)">
<title>RawTowerDigitizer::set_photonelec_yield_visible_GeV</title>
<!-- Node1 -->
<g id="node1" class="node">
<title>Node1</title>
<polygon fill="#bfbfbf" stroke="#000000" points="0,-348.5 0,-392.5 122,-392.5 122,-348.5 0,-348.5"/>
<text text-anchor="start" x="8" y="-379.5" font-family="FreeSans" font-size="10.00" fill="#000000">RawTowerDigitizer::</text>
<text text-anchor="start" x="8" y="-367.5" font-family="FreeSans" font-size="10.00" fill="#000000">set_photonelec_yield</text>
<text text-anchor="middle" x="61" y="-355.5" font-family="FreeSans" font-size="10.00" fill="#000000">_visible_GeV</text>
</g>
<!-- Node2 -->
<g id="node2" class="node">
<title>Node2</title>
<g id="a_node2"><a xlink:href="../../d8/d4c/G4__CEmc__EIC_8C.html#a46a52c955e8d2078c58d4d7db471cc43" target="_top" xlink:title="CEMC_Towers">
<polygon fill="none" stroke="#000000" points="182,-438.5 182,-458.5 267,-458.5 267,-438.5 182,-438.5"/>
<text text-anchor="middle" x="224.5" y="-445.5" font-family="FreeSans" font-size="10.00" fill="#000000">CEMC_Towers</text>
</a>
</g>
</g>
<!-- Node1&#45;&gt;Node2 -->
<g id="edge1" class="edge">
<title>Node1&#45;&gt;Node2</title>
<path fill="none" stroke="#191970" d="M101.1493,-398.2583C118.1298,-409.1017 138.4701,-420.9564 158,-429.5 165.8104,-432.9168 174.4036,-435.8998 182.7447,-438.4268"/>
<polygon fill="#191970" stroke="#191970" points="102.8905,-395.2158 92.5979,-392.703 99.077,-401.0858 102.8905,-395.2158"/>
</g>
<!-- Node22 -->
<g id="node22" class="node">
<title>Node22</title>
<g id="a_node22"><a xlink:href="../../d1/d81/macros_2blob_2master_2macros_2g4simulations_2G4__EEMC_8C.html#a05b9b10b79cc47702702e091692fd060" target="_top" xlink:title="EEMC_Towers">
<polygon fill="none" stroke="#000000" points="182.5,-651.5 182.5,-671.5 266.5,-671.5 266.5,-651.5 182.5,-651.5"/>
<text text-anchor="middle" x="224.5" y="-658.5" font-family="FreeSans" font-size="10.00" fill="#000000">EEMC_Towers</text>
</a>
</g>
</g>
<!-- Node1&#45;&gt;Node22 -->
<g id="edge21" class="edge">
<title>Node1&#45;&gt;Node22</title>
<path fill="none" stroke="#191970" d="M78.571,-401.7731C114.8654,-466.3706 196.58,-611.8076 218.8196,-651.39"/>
<polygon fill="#191970" stroke="#191970" points="81.5078,-399.8548 73.5581,-392.8511 75.4051,-403.2837 81.5078,-399.8548"/>
</g>
<!-- Node23 -->
<g id="node23" class="node">
<title>Node23</title>
<g id="a_node23"><a xlink:href="../../dc/d8e/Fun4All__G4__Prototype2_8C.html#a6b8f092c4f51be2938dd09c810ba6226" target="_top" xlink:title="Fun4All_G4_Prototype2">
<polygon fill="none" stroke="#000000" points="158,-321.5 158,-341.5 291,-341.5 291,-321.5 158,-321.5"/>
<text text-anchor="middle" x="224.5" y="-328.5" font-family="FreeSans" font-size="10.00" fill="#000000">Fun4All_G4_Prototype2</text>
</a>
</g>
</g>
<!-- Node1&#45;&gt;Node23 -->
<g id="edge26" class="edge">
<title>Node1&#45;&gt;Node23</title>
<path fill="none" stroke="#191970" d="M132.275,-353.4986C149.2974,-349.4382 166.9357,-345.2309 182.1721,-341.5966"/>
<polygon fill="#191970" stroke="#191970" points="131.2615,-350.1421 122.3465,-355.8669 132.8858,-356.9511 131.2615,-350.1421"/>
</g>
<!-- Node24 -->
<g id="node24" class="node">
<title>Node24</title>
<g id="a_node24"><a xlink:href="../../d7/d40/Fun4All__G4__Prototype3_8C.html#a1201361263017b08a070777a0b90b27c" target="_top" xlink:title="Fun4All_G4_Prototype3">
<polygon fill="none" stroke="#000000" points="158,-282.5 158,-302.5 291,-302.5 291,-282.5 158,-282.5"/>
<text text-anchor="middle" x="224.5" y="-289.5" font-family="FreeSans" font-size="10.00" fill="#000000">Fun4All_G4_Prototype3</text>
</a>
</g>
</g>
<!-- Node1&#45;&gt;Node24 -->
<g id="edge27" class="edge">
<title>Node1&#45;&gt;Node24</title>
<path fill="none" stroke="#191970" d="M101.1493,-342.7417C118.1298,-331.8983 138.4701,-320.0436 158,-311.5 165.8104,-308.0832 174.4036,-305.1002 182.7447,-302.5732"/>
<polygon fill="#191970" stroke="#191970" points="99.077,-339.9142 92.5979,-348.297 102.8905,-345.7842 99.077,-339.9142"/>
</g>
<!-- Node25 -->
<g id="node25" class="node">
<title>Node25</title>
<g id="a_node25"><a xlink:href="../../d4/d58/Fun4All__G4__Prototype4_8C.html#acac517f0728af658cbf99c7c9687c908" target="_top" xlink:title="Fun4All_G4_Prototype4">
<polygon fill="none" stroke="#000000" points="158,-243.5 158,-263.5 291,-263.5 291,-243.5 158,-243.5"/>
<text text-anchor="middle" x="224.5" y="-250.5" font-family="FreeSans" font-size="10.00" fill="#000000">Fun4All_G4_Prototype4</text>
</a>
</g>
</g>
<!-- Node1&#45;&gt;Node25 -->
<g id="edge28" class="edge">
<title>Node1&#45;&gt;Node25</title>
<path fill="none" stroke="#191970" d="M83.8838,-340.1564C101.8156,-318.3762 128.5897,-289.9068 158,-272.5 164.0964,-268.8918 170.915,-265.9375 177.799,-263.5274"/>
<polygon fill="#191970" stroke="#191970" points="81.0017,-338.1551 77.4571,-348.1394 86.4544,-342.5447 81.0017,-338.1551"/>
</g>
<!-- Node26 -->
<g id="node26" class="node">
<title>Node26</title>
<g id="a_node26"><a xlink:href="../../d7/dc0/G4__HcalIn__EIC_8C.html#a4552e4b1c6ffcc08cba2296b2c45f950" target="_top" xlink:title="HCALInner_Towers">
<polygon fill="none" stroke="#000000" points="170,-399.5 170,-419.5 279,-419.5 279,-399.5 170,-399.5"/>
<text text-anchor="middle" x="224.5" y="-406.5" font-family="FreeSans" font-size="10.00" fill="#000000">HCALInner_Towers</text>
</a>
</g>
</g>
<!-- Node1&#45;&gt;Node26 -->
<g id="edge29" class="edge">
<title>Node1&#45;&gt;Node26</title>
<path fill="none" stroke="#191970" d="M132.275,-387.5014C149.2974,-391.5618 166.9357,-395.7691 182.1721,-399.4034"/>
<polygon fill="#191970" stroke="#191970" points="132.8858,-384.0489 122.3465,-385.1331 131.2615,-390.8579 132.8858,-384.0489"/>
</g>
<!-- Node27 -->
<g id="node27" class="node">
<title>Node27</title>
<g id="a_node27"><a xlink:href="../../de/d3d/macros_2blob_2master_2macros_2g4simulations_2G4__HcalOut__ref_8C.html#a4fd9d72ad1e04ebc46273f3b9fff91d6" target="_top" xlink:title="HCALOuter_Towers">
<polygon fill="none" stroke="#000000" points="169,-360.5 169,-380.5 280,-380.5 280,-360.5 169,-360.5"/>
<text text-anchor="middle" x="224.5" y="-367.5" font-family="FreeSans" font-size="10.00" fill="#000000">HCALOuter_Towers</text>
</a>
</g>
</g>
<!-- Node1&#45;&gt;Node27 -->
<g id="edge48" class="edge">
<title>Node1&#45;&gt;Node27</title>
<path fill="none" stroke="#191970" d="M132.4573,-370.5C144.6089,-370.5 157.0688,-370.5 168.7398,-370.5"/>
<polygon fill="#191970" stroke="#191970" points="132.3466,-367.0001 122.3465,-370.5 132.3465,-374.0001 132.3466,-367.0001"/>
</g>
<!-- Node3 -->
<g id="node3" class="node">
<title>Node3</title>
<g id="a_node3"><a xlink:href="../../d3/d7f/Fun_8C.html#af0d3c8a78765149fef9b2beeecfc6279" target="_top" xlink:title="ConfigureDetectors">
<polygon fill="none" stroke="#000000" points="353.5,-399.5 353.5,-419.5 467.5,-419.5 467.5,-399.5 353.5,-399.5"/>
<text text-anchor="middle" x="410.5" y="-406.5" font-family="FreeSans" font-size="10.00" fill="#000000">ConfigureDetectors</text>
</a>
</g>
</g>
<!-- Node2&#45;&gt;Node3 -->
<g id="edge2" class="edge">
<title>Node2&#45;&gt;Node3</title>
<path fill="none" stroke="#191970" d="M277.1909,-437.4519C304.1104,-431.8075 336.6169,-424.9916 362.791,-419.5035"/>
<polygon fill="#191970" stroke="#191970" points="276.241,-434.0749 267.1722,-439.5526 277.6776,-440.9259 276.241,-434.0749"/>
</g>
<!-- Node5 -->
<g id="node5" class="node">
<title>Node5</title>
<g id="a_node5"><a xlink:href="../../db/dc0/Fun4All__AnaTutorial_8C.html#a8c484ea6d7477278e981ef056b17eac9" target="_top" xlink:title="Fun4All_AnaTutorial">
<polygon fill="none" stroke="#000000" points="353,-360.5 353,-380.5 468,-380.5 468,-360.5 353,-360.5"/>
<text text-anchor="middle" x="410.5" y="-367.5" font-family="FreeSans" font-size="10.00" fill="#000000">Fun4All_AnaTutorial</text>
</a>
</g>
</g>
<!-- Node2&#45;&gt;Node5 -->
<g id="edge4" class="edge">
<title>Node2&#45;&gt;Node5</title>
<path fill="none" stroke="#191970" d="M276.8148,-436.6444C281.7769,-434.6153 286.5934,-432.2513 291,-429.5 311.2879,-416.833 306.3742,-401.6088 327,-389.5 334.8208,-384.9086 343.6554,-381.4266 352.5767,-378.7858"/>
<polygon fill="#191970" stroke="#191970" points="275.3687,-433.4458 267.1626,-440.1473 277.7567,-440.0259 275.3687,-433.4458"/>
</g>
<!-- Node6 -->
<g id="node6" class="node">
<title>Node6</title>
<g id="a_node6"><a xlink:href="../../dd/d28/Fun4All__AnaTutorial__Jets_8C.html#a55eaaeb770a3177f917012de87877d28" target="_top" xlink:title="Fun4All_AnaTutorial_Jets">
<polygon fill="none" stroke="#000000" points="341,-321.5 341,-341.5 480,-341.5 480,-321.5 341,-321.5"/>
<text text-anchor="middle" x="410.5" y="-328.5" font-family="FreeSans" font-size="10.00" fill="#000000">Fun4All_AnaTutorial_Jets</text>
</a>
</g>
</g>
<!-- Node2&#45;&gt;Node6 -->
<g id="edge5" class="edge">
<title>Node2&#45;&gt;Node6</title>
<path fill="none" stroke="#191970" d="M276.7967,-438.4329C281.9329,-436.0571 286.7913,-433.123 291,-429.5 320.2422,-404.3269 297.082,-374.866 327,-350.5 331.3805,-346.9324 336.3004,-344.0053 341.503,-341.6071"/>
<polygon fill="#191970" stroke="#191970" points="275.3703,-435.2325 267.3322,-442.1346 277.9201,-441.7516 275.3703,-435.2325"/>
</g>
<!-- Node7 -->
<g id="node7" class="node">
<title>Node7</title>
<g id="a_node7"><a xlink:href="../../da/d02/Fun4All__G4__EICDetector_8C.html#afbe82cefa1d1fd031d9a8586b7bb68c6" target="_top" xlink:title="Fun4All_G4_EICDetector">
<polygon fill="none" stroke="#000000" points="341,-735.5 341,-755.5 480,-755.5 480,-735.5 341,-735.5"/>
<text text-anchor="middle" x="410.5" y="-742.5" font-family="FreeSans" font-size="10.00" fill="#000000">Fun4All_G4_EICDetector</text>
</a>
</g>
</g>
<!-- Node2&#45;&gt;Node7 -->
<g id="edge6" class="edge">
<title>Node2&#45;&gt;Node7</title>
<path fill="none" stroke="#191970" d="M231.2736,-468.4555C252.4646,-530.6623 316.6996,-717.454 327,-726.5 331.1332,-730.1298 335.8159,-733.1073 340.8029,-735.5452"/>
<polygon fill="#191970" stroke="#191970" points="234.4768,-467.0037 227.9431,-458.6634 227.8496,-469.2578 234.4768,-467.0037"/>
</g>
<!-- Node8 -->
<g id="node8" class="node">
<title>Node8</title>
<g id="a_node8"><a xlink:href="../../dd/d2a/Fun4All__G4__EICDetector__LQ_8C.html#aaa01242fd6e77ca43a9d49a6d46008e4" target="_top" xlink:title="Fun4All_G4_EICDetector_LQ">
<polygon fill="none" stroke="#000000" points="332.5,-696.5 332.5,-716.5 488.5,-716.5 488.5,-696.5 332.5,-696.5"/>
<text text-anchor="middle" x="410.5" y="-703.5" font-family="FreeSans" font-size="10.00" fill="#000000">Fun4All_G4_EICDetector_LQ</text>
</a>
</g>
</g>
<!-- Node2&#45;&gt;Node8 -->
<g id="edge7" class="edge">
<title>Node2&#45;&gt;Node8</title>
<path fill="none" stroke="#191970" d="M230.4306,-468.2853C246.3311,-520.0631 291.1373,-657.6172 327,-687.5 331.3402,-691.1165 336.2318,-694.078 341.4153,-696.4993"/>
<polygon fill="#191970" stroke="#191970" points="233.7463,-467.1585 227.49,-458.6081 227.0487,-469.1937 233.7463,-467.1585"/>
</g>
<!-- Node9 -->
<g id="node9" class="node">
<title>Node9</title>
<g id="a_node9"><a xlink:href="../../d4/df5/Fun4All__G4__EICDetector__LQ__reference_8C.html#a2feefc472f17f90b3cbe74897d049f75" target="_top" xlink:title="Fun4All_G4_EICDetector\l_LQ_reference">
<polygon fill="none" stroke="#000000" points="341,-645.5 341,-677.5 480,-677.5 480,-645.5 341,-645.5"/>
<text text-anchor="start" x="349" y="-664.5" font-family="FreeSans" font-size="10.00" fill="#000000">Fun4All_G4_EICDetector</text>
<text text-anchor="middle" x="410.5" y="-652.5" font-family="FreeSans" font-size="10.00" fill="#000000">_LQ_reference</text>
</a>
</g>
</g>
<!-- Node2&#45;&gt;Node9 -->
<g id="edge8" class="edge">
<title>Node2&#45;&gt;Node9</title>
<path fill="none" stroke="#191970" d="M229.9502,-468.8717C241.3259,-507.4468 271.2822,-591.3259 327,-636.5 331.2316,-639.9308 335.9243,-642.8911 340.8647,-645.4454"/>
<polygon fill="#191970" stroke="#191970" points="233.2064,-467.5239 227.1177,-458.8534 226.4705,-469.4284 233.2064,-467.5239"/>
</g>
<!-- Node10 -->
<g id="node10" class="node">
<title>Node10</title>
<g id="a_node10"><a xlink:href="../../d3/d51/Fun4All__G4__EICDetector__RICH_8C.html#a5739502b0a7a1ba782c01069f77e933f" target="_top" xlink:title="Fun4All_G4_EICDetector_RICH">
<polygon fill="none" stroke="#000000" points="327,-606.5 327,-626.5 494,-626.5 494,-606.5 327,-606.5"/>
<text text-anchor="middle" x="410.5" y="-613.5" font-family="FreeSans" font-size="10.00" fill="#000000">Fun4All_G4_EICDetector_RICH</text>
</a>
</g>
</g>
<!-- Node2&#45;&gt;Node10 -->
<g id="edge9" class="edge">
<title>Node2&#45;&gt;Node10</title>
<path fill="none" stroke="#191970" d="M232.2827,-468.0668C246.1879,-500.3776 278.4642,-564.5806 327,-597.5 332.2907,-601.0884 338.1599,-604.0074 344.264,-606.3806"/>
<polygon fill="#191970" stroke="#191970" points="235.4902,-466.6644 228.4163,-458.777 229.0276,-469.3542 235.4902,-466.6644"/>
</g>
<!-- Node11 -->
<g id="node11" class="node">
<title>Node11</title>
<g id="a_node11"><a xlink:href="../../d7/d9e/Fun4All__G4__fsPHENIX_8C.html#af48911d394d2412e817583700f2bbee2" target="_top" xlink:title="Fun4All_G4_fsPHENIX">
<polygon fill="none" stroke="#000000" points="348.5,-282.5 348.5,-302.5 472.5,-302.5 472.5,-282.5 348.5,-282.5"/>
<text text-anchor="middle" x="410.5" y="-289.5" font-family="FreeSans" font-size="10.00" fill="#000000">Fun4All_G4_fsPHENIX</text>
</a>
</g>
</g>
<!-- Node2&#45;&gt;Node11 -->
<g id="edge10" class="edge">
<title>Node2&#45;&gt;Node11</title>
<path fill="none" stroke="#191970" d="M276.8846,-439.1733C282.0831,-436.6646 286.9313,-433.4968 291,-429.5 330.1151,-391.0756 286.8513,-348.843 327,-311.5 333.0962,-305.8298 340.5209,-301.7311 348.4012,-298.7878"/>
<polygon fill="#191970" stroke="#191970" points="275.237,-436.0621 267.2419,-443.014 277.8273,-442.5652 275.237,-436.0621"/>
</g>
<!-- Node12 -->
<g id="node12" class="node">
<title>Node12</title>
<g id="a_node12"><a xlink:href="../../da/d2f/Fun4All__G4__fsPHENIX__FastSim_8C.html#a66fb850cae5fcaadda23b74a25ce4c9c" target="_top" xlink:title="Fun4All_G4_fsPHENIX\l_FastSim">
<polygon fill="none" stroke="#000000" points="348.5,-231.5 348.5,-263.5 472.5,-263.5 472.5,-231.5 348.5,-231.5"/>
<text text-anchor="start" x="356.5" y="-250.5" font-family="FreeSans" font-size="10.00" fill="#000000">Fun4All_G4_fsPHENIX</text>
<text text-anchor="middle" x="410.5" y="-238.5" font-family="FreeSans" font-size="10.00" fill="#000000">_FastSim</text>
</a>
</g>
</g>
<!-- Node2&#45;&gt;Node12 -->
<g id="edge11" class="edge">
<title>Node2&#45;&gt;Node12</title>
<path fill="none" stroke="#191970" d="M276.5749,-439.747C281.9499,-437.1441 286.9241,-433.7974 291,-429.5 340.2644,-377.5582 278.064,-324.7513 327,-272.5 332.8961,-266.2044 340.3062,-261.473 348.2637,-257.9212"/>
<polygon fill="#191970" stroke="#191970" points="275.2363,-436.5127 267.2387,-443.4617 277.8242,-443.0168 275.2363,-436.5127"/>
</g>
<!-- Node13 -->
<g id="node13" class="node">
<title>Node13</title>
<g id="a_node13"><a xlink:href="../../d0/da6/Fun4All__G4__fsPHENIX__pi0_8C.html#a023d91d47b678e5d7f1751834aa517c6" target="_top" xlink:title="Fun4All_G4_fsPHENIX_pi0">
<polygon fill="none" stroke="#000000" points="338,-192.5 338,-212.5 483,-212.5 483,-192.5 338,-192.5"/>
<text text-anchor="middle" x="410.5" y="-199.5" font-family="FreeSans" font-size="10.00" fill="#000000">Fun4All_G4_fsPHENIX_pi0</text>
</a>
</g>
</g>
<!-- Node2&#45;&gt;Node13 -->
<g id="edge12" class="edge">
<title>Node2&#45;&gt;Node13</title>
<path fill="none" stroke="#191970" d="M276.5967,-440.0616C282.0122,-437.4078 286.9903,-433.9631 291,-429.5 353.7003,-359.71 262.4192,-289.5537 327,-221.5 330.3772,-217.9412 334.2712,-214.9842 338.4926,-212.533"/>
<polygon fill="#191970" stroke="#191970" points="275.157,-436.8676 267.1634,-443.8213 277.7486,-443.3702 275.157,-436.8676"/>
</g>
<!-- Node14 -->
<g id="node14" class="node">
<title>Node14</title>
<g id="a_node14"><a xlink:href="../../d5/d2c/macros_2blob_2master_2macros_2g4simulations_2Fun4All__G4__sPHENIX_8C.html#a6eaaa492d7023ec86c562dc63aa1e5a4" target="_top" xlink:title="Fun4All_G4_sPHENIX">
<polygon fill="none" stroke="#000000" points="350,-153.5 350,-173.5 471,-173.5 471,-153.5 350,-153.5"/>
<text text-anchor="middle" x="410.5" y="-160.5" font-family="FreeSans" font-size="10.00" fill="#000000">Fun4All_G4_sPHENIX</text>
</a>
</g>
</g>
<!-- Node2&#45;&gt;Node14 -->
<g id="edge13" class="edge">
<title>Node2&#45;&gt;Node14</title>
<path fill="none" stroke="#191970" d="M276.7129,-440.1647C282.1085,-437.4932 287.0501,-434.0162 291,-429.5 364.0349,-345.9951 251.7144,-263.9815 327,-182.5 333.1544,-175.8391 341.1169,-171.2737 349.6762,-168.1834"/>
<polygon fill="#191970" stroke="#191970" points="275.2767,-436.9697 267.2988,-443.9414 277.883,-443.4664 275.2767,-436.9697"/>
</g>
<!-- Node15 -->
<g id="node15" class="node">
<title>Node15</title>
<g id="a_node15"><a xlink:href="../../d3/de2/Fun4All__G4__sPHENIX__AnaGenFit_8C.html#a9bf3f2f72ed69a17e2d0c1121d48013c" target="_top" xlink:title="Fun4All_G4_sPHENIX\l_AnaGenFit">
<polygon fill="none" stroke="#000000" points="350,-102.5 350,-134.5 471,-134.5 471,-102.5 350,-102.5"/>
<text text-anchor="start" x="358" y="-121.5" font-family="FreeSans" font-size="10.00" fill="#000000">Fun4All_G4_sPHENIX</text>
<text text-anchor="middle" x="410.5" y="-109.5" font-family="FreeSans" font-size="10.00" fill="#000000">_AnaGenFit</text>
</a>
</g>
</g>
<!-- Node2&#45;&gt;Node15 -->
<g id="edge14" class="edge">
<title>Node2&#45;&gt;Node15</title>
<path fill="none" stroke="#191970" d="M276.5917,-440.342C282.0536,-437.6445 287.0443,-434.1129 291,-429.5 374.3979,-332.2477 244.2168,-241.2761 327,-143.5 333.0624,-136.3397 341.086,-131.1813 349.7652,-127.4751"/>
<polygon fill="#191970" stroke="#191970" points="275.0514,-437.188 267.0546,-444.138 277.6401,-443.6917 275.0514,-437.188"/>
</g>
<!-- Node16 -->
<g id="node16" class="node">
<title>Node16</title>
<g id="a_node16"><a xlink:href="../../da/dd0/Fun4All__G4__sPHENIX__photonjet_8C.html#a6f18519e216acc05399e562ea57ea77c" target="_top" xlink:title="Fun4All_G4_sPHENIX\l_photonjet">
<polygon fill="none" stroke="#000000" points="350,-51.5 350,-83.5 471,-83.5 471,-51.5 350,-51.5"/>
<text text-anchor="start" x="358" y="-70.5" font-family="FreeSans" font-size="10.00" fill="#000000">Fun4All_G4_sPHENIX</text>
<text text-anchor="middle" x="410.5" y="-58.5" font-family="FreeSans" font-size="10.00" fill="#000000">_photonjet</text>
</a>
</g>
</g>
<!-- Node2&#45;&gt;Node16 -->
<g id="edge15" class="edge">
<title>Node2&#45;&gt;Node16</title>
<path fill="none" stroke="#191970" d="M276.6758,-440.4134C282.1234,-437.7038 287.0878,-434.1499 291,-429.5 387.9761,-314.2394 230.7524,-208.3697 327,-92.5 332.9948,-85.283 340.9836,-80.0954 349.6488,-76.3775"/>
<polygon fill="#191970" stroke="#191970" points="275.1383,-437.2587 267.1521,-444.2207 277.7368,-443.7585 275.1383,-437.2587"/>
</g>
<!-- Node17 -->
<g id="node17" class="node">
<title>Node17</title>
<g id="a_node17"><a xlink:href="../../da/d85/Fun4All__G4__sPHENIX__photons_8C.html#a02fbbd59878fe1299f58ed187e7214ba" target="_top" xlink:title="Fun4All_G4_sPHENIX\l_photons">
<polygon fill="none" stroke="#000000" points="350,-.5 350,-32.5 471,-32.5 471,-.5 350,-.5"/>
<text text-anchor="start" x="358" y="-19.5" font-family="FreeSans" font-size="10.00" fill="#000000">Fun4All_G4_sPHENIX</text>
<text text-anchor="middle" x="410.5" y="-7.5" font-family="FreeSans" font-size="10.00" fill="#000000">_photons</text>
</a>
</g>
</g>
<!-- Node2&#45;&gt;Node17 -->
<g id="edge16" class="edge">
<title>Node2&#45;&gt;Node17</title>
<path fill="none" stroke="#191970" d="M276.7384,-440.4657C282.1754,-437.7473 287.1202,-434.1769 291,-429.5 346.2867,-362.8543 272.1345,-108.4929 327,-41.5 333.0404,-34.1244 341.1647,-28.865 349.9815,-25.1268"/>
<polygon fill="#191970" stroke="#191970" points="275.2031,-437.3104 267.2246,-444.2814 277.8089,-443.8073 275.2031,-437.3104"/>
</g>
<!-- Node18 -->
<g id="node18" class="node">
<title>Node18</title>
<g id="a_node18"><a xlink:href="../../de/d55/Fun4All__G4__sPHENIX__truthphotonjet_8C.html#a48a6f4503eaa1b3793d8ae572aa795b9" target="_top" xlink:title="Fun4All_G4_sPHENIX\l_truthphotonjet">
<polygon fill="none" stroke="#000000" points="350,-555.5 350,-587.5 471,-587.5 471,-555.5 350,-555.5"/>
<text text-anchor="start" x="358" y="-574.5" font-family="FreeSans" font-size="10.00" fill="#000000">Fun4All_G4_sPHENIX</text>
<text text-anchor="middle" x="410.5" y="-562.5" font-family="FreeSans" font-size="10.00" fill="#000000">_truthphotonjet</text>
</a>
</g>
</g>
<!-- Node2&#45;&gt;Node18 -->
<g id="edge17" class="edge">
<title>Node2&#45;&gt;Node18</title>
<path fill="none" stroke="#191970" d="M238.7762,-466.633C256.9974,-488.6012 290.5542,-525.2957 327,-546.5 334.063,-550.6093 341.8616,-554.0974 349.7713,-557.0434"/>
<polygon fill="#191970" stroke="#191970" points="241.3814,-464.289 232.3598,-458.7337 235.948,-468.7024 241.3814,-464.289"/>
</g>
<!-- Node19 -->
<g id="node19" class="node">
<title>Node19</title>
<g id="a_node19"><a xlink:href="../../d4/d65/Fun4All__single__particle_8C.html#a8a492b5dbead494bfdddbebde8a49b0e" target="_top" xlink:title="Fun4All_single_particle">
<polygon fill="none" stroke="#000000" points="344.5,-516.5 344.5,-536.5 476.5,-536.5 476.5,-516.5 344.5,-516.5"/>
<text text-anchor="middle" x="410.5" y="-523.5" font-family="FreeSans" font-size="10.00" fill="#000000">Fun4All_single_particle</text>
</a>
</g>
</g>
<!-- Node2&#45;&gt;Node19 -->
<g id="edge18" class="edge">
<title>Node2&#45;&gt;Node19</title>
<path fill="none" stroke="#191970" d="M247.2114,-464.2327C267.3486,-477.5187 297.983,-496.1446 327,-507.5 335.9991,-511.0216 345.8114,-513.9799 355.4439,-516.4337"/>
<polygon fill="#191970" stroke="#191970" points="248.9955,-461.2149 238.7414,-458.5494 245.0951,-467.0277 248.9955,-461.2149"/>
</g>
<!-- Node20 -->
<g id="node20" class="node">
<title>Node20</title>
<g id="a_node20"><a xlink:href="../../d0/d99/Jin__BJet_8C.html#a36169bfee2ed7efda633944d12aebad9" target="_top" xlink:title="Jin_BJet">
<polygon fill="none" stroke="#000000" points="383,-477.5 383,-497.5 438,-497.5 438,-477.5 383,-477.5"/>
<text text-anchor="middle" x="410.5" y="-484.5" font-family="FreeSans" font-size="10.00" fill="#000000">Jin_BJet</text>
</a>
</g>
</g>
<!-- Node2&#45;&gt;Node20 -->
<g id="edge19" class="edge">
<title>Node2&#45;&gt;Node20</title>
<path fill="none" stroke="#191970" d="M277.0559,-459.5198C311.415,-466.7241 354.9209,-475.8463 382.7379,-481.6789"/>
<polygon fill="#191970" stroke="#191970" points="277.6776,-456.0741 267.1722,-457.4474 276.241,-462.9251 277.6776,-456.0741"/>
</g>
<!-- Node21 -->
<g id="node21" class="node">
<title>Node21</title>
<g id="a_node21"><a xlink:href="../../dd/db1/Wrapper_8cxx.html#abf1e42281903daa0752c80dd6c879fac" target="_top" xlink:title="Wrapper">
<polygon fill="none" stroke="#000000" points="380.5,-438.5 380.5,-458.5 440.5,-458.5 440.5,-438.5 380.5,-438.5"/>
<text text-anchor="middle" x="410.5" y="-445.5" font-family="FreeSans" font-size="10.00" fill="#000000">Wrapper</text>
</a>
</g>
</g>
<!-- Node2&#45;&gt;Node21 -->
<g id="edge20" class="edge">
<title>Node2&#45;&gt;Node21</title>
<path fill="none" stroke="#191970" d="M277.2418,-448.5C310.6584,-448.5 352.6684,-448.5 380.4892,-448.5"/>
<polygon fill="#191970" stroke="#191970" points="277.1722,-445.0001 267.1722,-448.5 277.1721,-452.0001 277.1722,-445.0001"/>
</g>
<!-- Node4 -->
<g id="node4" class="node">
<title>Node4</title>
<g id="a_node4"><a xlink:href="../../d3/d7f/Fun_8C.html#af69a3eef3ff244bb51f5740c6ecb5432" target="_top" xlink:title="Fun">
<polygon fill="none" stroke="#000000" points="530,-399.5 530,-419.5 564,-419.5 564,-399.5 530,-399.5"/>
<text text-anchor="middle" x="547" y="-406.5" font-family="FreeSans" font-size="10.00" fill="#000000">Fun</text>
</a>
</g>
</g>
<!-- Node3&#45;&gt;Node4 -->
<g id="edge3" class="edge">
<title>Node3&#45;&gt;Node4</title>
<path fill="none" stroke="#191970" d="M477.6941,-409.5C497.0852,-409.5 516.59,-409.5 529.9452,-409.5"/>
<polygon fill="#191970" stroke="#191970" points="477.5974,-406.0001 467.5974,-409.5 477.5974,-413.0001 477.5974,-406.0001"/>
</g>
<!-- Node22&#45;&gt;Node7 -->
<g id="edge22" class="edge">
<title>Node22&#45;&gt;Node7</title>
<path fill="none" stroke="#191970" d="M245.3383,-677.7445C265.2588,-692.5143 296.6669,-713.8736 327,-726.5 335.5098,-730.0423 344.7953,-732.9832 353.9817,-735.4063"/>
<polygon fill="#191970" stroke="#191970" points="247.3803,-674.9007 237.2901,-671.67 243.1633,-680.4879 247.3803,-674.9007"/>
</g>
<!-- Node22&#45;&gt;Node8 -->
<g id="edge23" class="edge">
<title>Node22&#45;&gt;Node8</title>
<path fill="none" stroke="#191970" d="M273.116,-674.0932C290.1367,-678.4328 309.3931,-683.2644 327,-687.5 339.4311,-690.4905 352.9333,-693.6159 365.3841,-696.4482"/>
<polygon fill="#191970" stroke="#191970" points="273.9376,-670.6908 263.3822,-671.6032 272.2028,-677.4724 273.9376,-670.6908"/>
</g>
<!-- Node22&#45;&gt;Node9 -->
<g id="edge24" class="edge">
<title>Node22&#45;&gt;Node9</title>
<path fill="none" stroke="#191970" d="M276.775,-661.5C296.6148,-661.5 319.5361,-661.5 340.7361,-661.5"/>
<polygon fill="#191970" stroke="#191970" points="276.7063,-658.0001 266.7063,-661.5 276.7062,-665.0001 276.7063,-658.0001"/>
</g>
<!-- Node22&#45;&gt;Node10 -->
<g id="edge25" class="edge">
<title>Node22&#45;&gt;Node10</title>
<path fill="none" stroke="#191970" d="M275.3713,-649.0483C291.8411,-645.0288 310.1918,-640.5627 327,-636.5 340.4751,-633.2429 355.1794,-629.7129 368.4416,-626.538"/>
<polygon fill="#191970" stroke="#191970" points="274.2744,-645.7133 265.3902,-651.4857 275.935,-652.5134 274.2744,-645.7133"/>
</g>
<!-- Node26&#45;&gt;Node3 -->
<g id="edge30" class="edge">
<title>Node26&#45;&gt;Node3</title>
<path fill="none" stroke="#191970" d="M289.12,-409.5C310.0233,-409.5 333.0423,-409.5 353.3635,-409.5"/>
<polygon fill="#191970" stroke="#191970" points="289.0494,-406.0001 279.0494,-409.5 289.0493,-413.0001 289.0494,-406.0001"/>
</g>
<!-- Node26&#45;&gt;Node5 -->
<g id="edge31" class="edge">
<title>Node26&#45;&gt;Node5</title>
<path fill="none" stroke="#191970" d="M282.4315,-397.3531C308.2404,-391.9415 338.271,-385.6448 362.7627,-380.5094"/>
<polygon fill="#191970" stroke="#191970" points="281.4685,-393.9788 272.3996,-399.4565 282.9051,-400.8298 281.4685,-393.9788"/>
</g>
<!-- Node26&#45;&gt;Node6 -->
<g id="edge32" class="edge">
<title>Node26&#45;&gt;Node6</title>
<path fill="none" stroke="#191970" d="M279.4628,-395.5874C283.4835,-393.786 287.3774,-391.7649 291,-389.5 311.0015,-376.9946 306.5826,-362.3141 327,-350.5 333.3054,-346.8515 340.2561,-343.9036 347.3742,-341.5218"/>
<polygon fill="#191970" stroke="#191970" points="277.9048,-392.4409 269.9189,-399.4033 280.5036,-398.9406 277.9048,-392.4409"/>
</g>
<!-- Node26&#45;&gt;Node7 -->
<g id="edge33" class="edge">
<title>Node26&#45;&gt;Node7</title>
<path fill="none" stroke="#191970" d="M287.2124,-425.5935C288.5582,-426.8049 289.8258,-428.1049 291,-429.5 376.6222,-531.2292 237.9489,-627.7585 327,-726.5 330.9828,-730.9162 335.7595,-734.4161 340.9848,-737.1784"/>
<polygon fill="#191970" stroke="#191970" points="288.9326,-422.5221 278.7542,-419.5809 284.8768,-428.2275 288.9326,-422.5221"/>
</g>
<!-- Node26&#45;&gt;Node8 -->
<g id="edge34" class="edge">
<title>Node26&#45;&gt;Node8</title>
<path fill="none" stroke="#191970" d="M287.1791,-425.6217C288.5347,-426.8249 289.8133,-428.1155 291,-429.5 366.3487,-517.4035 248.6892,-602.2248 327,-687.5 330.2179,-691.0041 333.936,-693.929 337.979,-696.3648"/>
<polygon fill="#191970" stroke="#191970" points="288.8725,-422.5338 278.6792,-419.6445 284.8459,-428.2598 288.8725,-422.5338"/>
</g>
<!-- Node26&#45;&gt;Node9 -->
<g id="edge35" class="edge">
<title>Node26&#45;&gt;Node9</title>
<path fill="none" stroke="#191970" d="M286.6382,-425.2663C288.1895,-426.5694 289.6502,-427.9778 291,-429.5 352.9536,-499.3695 265.0031,-566.6689 327,-636.5 330.9182,-640.9133 335.5804,-644.5621 340.6691,-647.577"/>
<polygon fill="#191970" stroke="#191970" points="288.4703,-422.2803 278.2225,-419.5905 284.5562,-428.0838 288.4703,-422.2803"/>
</g>
<!-- Node26&#45;&gt;Node10 -->
<g id="edge36" class="edge">
<title>Node26&#45;&gt;Node10</title>
<path fill="none" stroke="#191970" d="M286.4564,-425.2504C288.0685,-426.5574 289.5902,-427.9711 291,-429.5 342.7639,-485.6392 273.3465,-543.1639 327,-597.5 330.4472,-600.991 334.3931,-603.8977 338.652,-606.3128"/>
<polygon fill="#191970" stroke="#191970" points="288.0287,-422.0972 277.7411,-419.5642 284.2037,-427.9598 288.0287,-422.0972"/>
</g>
<!-- Node26&#45;&gt;Node11 -->
<g id="edge37" class="edge">
<title>Node26&#45;&gt;Node11</title>
<path fill="none" stroke="#191970" d="M283.8579,-394.7425C286.3827,-393.1688 288.7816,-391.4272 291,-389.5 319.8234,-364.4603 297.3371,-335.5394 327,-311.5 333.2372,-306.4453 340.5583,-302.6776 348.2287,-299.879"/>
<polygon fill="#191970" stroke="#191970" points="282.0876,-391.719 274.8675,-399.4727 285.347,-397.9139 282.0876,-391.719"/>
</g>
<!-- Node26&#45;&gt;Node12 -->
<g id="edge38" class="edge">
<title>Node26&#45;&gt;Node12</title>
<path fill="none" stroke="#191970" d="M285.6315,-394.0731C287.533,-392.6777 289.3324,-391.1571 291,-389.5 329.5928,-351.1516 288.3835,-310.8245 327,-272.5 333.0148,-266.5307 340.3937,-261.9767 348.2522,-258.5044"/>
<polygon fill="#191970" stroke="#191970" points="283.4996,-391.271 276.7334,-399.4239 287.107,-397.2699 283.4996,-391.271"/>
</g>
<!-- Node26&#45;&gt;Node13 -->
<g id="edge39" class="edge">
<title>Node26&#45;&gt;Node13</title>
<path fill="none" stroke="#191970" d="M286.4564,-393.7496C288.0685,-392.4426 289.5902,-391.0289 291,-389.5 342.7639,-333.3608 273.3465,-275.8361 327,-221.5 330.4472,-218.009 334.3931,-215.1023 338.652,-212.6872"/>
<polygon fill="#191970" stroke="#191970" points="284.2037,-391.0402 277.7411,-399.4358 288.0287,-396.9028 284.2037,-391.0402"/>
</g>
<!-- Node26&#45;&gt;Node14 -->
<g id="edge40" class="edge">
<title>Node26&#45;&gt;Node14</title>
<path fill="none" stroke="#191970" d="M286.6382,-393.7337C288.1895,-392.4306 289.6502,-391.0222 291,-389.5 352.9536,-319.6305 262.6932,-250.2099 327,-182.5 333.2453,-175.9242 341.2553,-171.4034 349.8344,-168.3316"/>
<polygon fill="#191970" stroke="#191970" points="284.5562,-390.9162 278.2225,-399.4095 288.4703,-396.7197 284.5562,-390.9162"/>
</g>
<!-- Node26&#45;&gt;Node15 -->
<g id="edge41" class="edge">
<title>Node26&#45;&gt;Node15</title>
<path fill="none" stroke="#191970" d="M287.1669,-393.3677C288.526,-392.1677 289.8087,-390.8805 291,-389.5 363.192,-305.8454 254.7562,-227.1099 327,-143.5 333.134,-136.4009 341.1945,-131.2741 349.8886,-127.5806"/>
<polygon fill="#191970" stroke="#191970" points="284.8346,-390.7281 278.6516,-399.3317 288.8504,-396.4617 284.8346,-390.7281"/>
</g>
<!-- Node26&#45;&gt;Node16 -->
<g id="edge42" class="edge">
<title>Node26&#45;&gt;Node16</title>
<path fill="none" stroke="#191970" d="M287.2124,-393.4065C288.5582,-392.1951 289.8258,-390.8951 291,-389.5 376.6222,-287.7708 241.3148,-194.1762 327,-92.5 333.0459,-85.3258 341.061,-80.1602 349.7369,-76.4511"/>
<polygon fill="#191970" stroke="#191970" points="284.8768,-390.7725 278.7542,-399.4191 288.9326,-396.4779 284.8768,-390.7725"/>
</g>
<!-- Node26&#45;&gt;Node17 -->
<g id="edge43" class="edge">
<title>Node26&#45;&gt;Node17</title>
<path fill="none" stroke="#191970" d="M287.245,-393.4337C288.5813,-392.2144 289.8381,-390.9053 291,-389.5 390.0803,-269.6631 227.8455,-161.2755 327,-41.5 332.9828,-34.273 340.9653,-29.0802 349.628,-25.3602"/>
<polygon fill="#191970" stroke="#191970" points="284.9073,-390.8035 278.8277,-399.4804 288.9913,-396.4887 284.9073,-390.8035"/>
</g>
<!-- Node26&#45;&gt;Node18 -->
<g id="edge44" class="edge">
<title>Node26&#45;&gt;Node18</title>
<path fill="none" stroke="#191970" d="M285.6315,-424.9269C287.533,-426.3223 289.3324,-427.8429 291,-429.5 329.5928,-467.8484 288.3835,-508.1755 327,-546.5 333.4444,-552.8957 341.4548,-557.6667 349.9431,-561.2232"/>
<polygon fill="#191970" stroke="#191970" points="287.107,-421.7301 276.7334,-419.5761 283.4996,-427.729 287.107,-421.7301"/>
</g>
<!-- Node26&#45;&gt;Node19 -->
<g id="edge45" class="edge">
<title>Node26&#45;&gt;Node19</title>
<path fill="none" stroke="#191970" d="M283.8579,-424.2575C286.3827,-425.8312 288.7816,-427.5728 291,-429.5 319.8234,-454.5397 297.3371,-483.4606 327,-507.5 332.1976,-511.7123 338.148,-515.0307 344.426,-517.6395"/>
<polygon fill="#191970" stroke="#191970" points="285.347,-421.0861 274.8675,-419.5273 282.0876,-427.281 285.347,-421.0861"/>
</g>
<!-- Node26&#45;&gt;Node20 -->
<g id="edge46" class="edge">
<title>Node26&#45;&gt;Node20</title>
<path fill="none" stroke="#191970" d="M279.4628,-423.4126C283.4835,-425.214 287.3774,-427.2351 291,-429.5 311.0015,-442.0054 306.5826,-456.6859 327,-468.5 343.986,-478.3285 365.6552,-483.0729 382.6621,-485.3631"/>
<polygon fill="#191970" stroke="#191970" points="280.5036,-420.0594 269.9189,-419.5967 277.9048,-426.5591 280.5036,-420.0594"/>
</g>
<!-- Node26&#45;&gt;Node21 -->
<g id="edge47" class="edge">
<title>Node26&#45;&gt;Node21</title>
<path fill="none" stroke="#191970" d="M282.2245,-421.6035C314.6461,-428.4016 353.7828,-436.6077 380.2343,-442.154"/>
<polygon fill="#191970" stroke="#191970" points="282.9051,-418.1702 272.3996,-419.5435 281.4685,-425.0212 282.9051,-418.1702"/>
</g>
<!-- Node27&#45;&gt;Node3 -->
<g id="edge49" class="edge">
<title>Node27&#45;&gt;Node3</title>
<path fill="none" stroke="#191970" d="M282.4315,-382.6469C308.2404,-388.0585 338.271,-394.3552 362.7627,-399.4906"/>
<polygon fill="#191970" stroke="#191970" points="282.9051,-379.1702 272.3996,-380.5435 281.4685,-386.0212 282.9051,-379.1702"/>
</g>
<!-- Node27&#45;&gt;Node5 -->
<g id="edge50" class="edge">
<title>Node27&#45;&gt;Node5</title>
<path fill="none" stroke="#191970" d="M290.242,-370.5C310.7113,-370.5 333.113,-370.5 352.9753,-370.5"/>
<polygon fill="#191970" stroke="#191970" points="290.0542,-367.0001 280.0542,-370.5 290.0542,-374.0001 290.0542,-367.0001"/>
</g>
<!-- Node27&#45;&gt;Node6 -->
<g id="edge51" class="edge">
<title>Node27&#45;&gt;Node6</title>
<path fill="none" stroke="#191970" d="M282.4315,-358.3531C308.2404,-352.9415 338.271,-346.6448 362.7627,-341.5094"/>
<polygon fill="#191970" stroke="#191970" points="281.4685,-354.9788 272.3996,-360.4565 282.9051,-361.8298 281.4685,-354.9788"/>
</g>
<!-- Node27&#45;&gt;Node7 -->
<g id="edge52" class="edge">
<title>Node27&#45;&gt;Node7</title>
<path fill="none" stroke="#191970" d="M288.2413,-386.5588C289.2087,-387.4869 290.1303,-388.4664 291,-389.5 387.9761,-504.7606 226.9158,-613.9277 327,-726.5 330.9513,-730.9443 335.7064,-734.4637 340.9176,-737.2386"/>
<polygon fill="#191970" stroke="#191970" points="290.1333,-383.6029 280.0328,-380.4043 285.9341,-389.2035 290.1333,-383.6029"/>
</g>
<!-- Node27&#45;&gt;Node8 -->
<g id="edge53" class="edge">
<title>Node27&#45;&gt;Node8</title>
<path fill="none" stroke="#191970" d="M288.2947,-386.6447C289.2415,-387.5472 290.1452,-388.4981 291,-389.5 377.5906,-490.987 237.6732,-588.4129 327,-687.5 330.1855,-691.0336 333.8793,-693.9806 337.9046,-696.4326"/>
<polygon fill="#191970" stroke="#191970" points="290.3866,-383.8386 280.2884,-380.6326 286.1833,-389.4361 290.3866,-383.8386"/>
</g>
<!-- Node27&#45;&gt;Node9 -->
<g id="edge54" class="edge">
<title>Node27&#45;&gt;Node9</title>
<path fill="none" stroke="#191970" d="M288.1875,-386.605C289.1712,-387.5191 290.1107,-388.4832 291,-389.5 364.0349,-473.0049 254.493,-552.5363 327,-636.5 330.9561,-641.0812 335.7145,-644.8411 340.9279,-647.9246"/>
<polygon fill="#191970" stroke="#191970" points="290.0216,-383.6103 279.8837,-380.5322 285.8894,-389.2605 290.0216,-383.6103"/>
</g>
<!-- Node27&#45;&gt;Node10 -->
<g id="edge55" class="edge">
<title>Node27&#45;&gt;Node10</title>
<path fill="none" stroke="#191970" d="M288.1505,-386.6378C289.1454,-387.542 290.0972,-388.4952 291,-389.5 353.7003,-459.29 262.4192,-529.4463 327,-597.5 330.3772,-601.0588 334.2712,-604.0158 338.4926,-606.467"/>
<polygon fill="#191970" stroke="#191970" points="289.9444,-383.6169 279.7814,-380.6229 285.8592,-389.3011 289.9444,-383.6169"/>
</g>
<!-- Node27&#45;&gt;Node11 -->
<g id="edge56" class="edge">
<title>Node27&#45;&gt;Node11</title>
<path fill="none" stroke="#191970" d="M279.4628,-356.5874C283.4835,-354.786 287.3774,-352.7649 291,-350.5 311.0015,-337.9946 306.5826,-323.3141 327,-311.5 333.5628,-307.7026 340.8246,-304.6642 348.2466,-302.233"/>
<polygon fill="#191970" stroke="#191970" points="277.9048,-353.4409 269.9189,-360.4033 280.5036,-359.9406 277.9048,-353.4409"/>
</g>
<!-- Node27&#45;&gt;Node12 -->
<g id="edge57" class="edge">
<title>Node27&#45;&gt;Node12</title>
<path fill="none" stroke="#191970" d="M283.8579,-355.7425C286.3827,-354.1688 288.7816,-352.4272 291,-350.5 319.8234,-325.4603 298.1611,-297.5219 327,-272.5 333.1721,-267.1448 340.4556,-262.9365 348.1071,-259.6295"/>
<polygon fill="#191970" stroke="#191970" points="282.0876,-352.719 274.8675,-360.4727 285.347,-358.9139 282.0876,-352.719"/>
</g>
<!-- Node27&#45;&gt;Node13 -->
<g id="edge58" class="edge">
<title>Node27&#45;&gt;Node13</title>
<path fill="none" stroke="#191970" d="M285.8055,-355.0407C287.6477,-353.6539 289.3886,-352.1439 291,-350.5 332.6668,-307.9914 283.9038,-262.5588 327,-221.5 330.7674,-217.9107 335.0654,-214.9477 339.6786,-212.5069"/>
<polygon fill="#191970" stroke="#191970" points="283.843,-352.1389 277.1675,-360.3662 287.5166,-358.0975 283.843,-352.1389"/>
</g>
<!-- Node27&#45;&gt;Node14 -->
<g id="edge59" class="edge">
<title>Node27&#45;&gt;Node14</title>
<path fill="none" stroke="#191970" d="M286.4564,-354.7496C288.0685,-353.4426 289.5902,-352.0289 291,-350.5 342.7639,-294.3608 273.3465,-236.8361 327,-182.5 333.2676,-176.1527 341.184,-171.737 349.6321,-168.6961"/>
<polygon fill="#191970" stroke="#191970" points="284.2037,-352.0402 277.7411,-360.4358 288.0287,-357.9028 284.2037,-352.0402"/>
</g>
<!-- Node27&#45;&gt;Node15 -->
<g id="edge60" class="edge">
<title>Node27&#45;&gt;Node15</title>
<path fill="none" stroke="#191970" d="M286.6382,-354.7337C288.1895,-353.4306 289.6502,-352.0222 291,-350.5 352.9536,-280.6305 265.0031,-213.3311 327,-143.5 333.1284,-136.5972 341.0772,-131.5645 349.6309,-127.9027"/>
<polygon fill="#191970" stroke="#191970" points="284.5562,-351.9162 278.2225,-360.4095 288.4703,-357.7197 284.5562,-351.9162"/>
</g>
<!-- Node27&#45;&gt;Node16 -->
<g id="edge61" class="edge">
<title>Node27&#45;&gt;Node16</title>
<path fill="none" stroke="#191970" d="M287.1791,-354.3783C288.5347,-353.1751 289.8133,-351.8845 291,-350.5 366.3487,-262.5965 251.5969,-180.3568 327,-92.5 333.1103,-85.3805 341.1586,-80.2432 349.8478,-76.5454"/>
<polygon fill="#191970" stroke="#191970" points="284.8459,-351.7402 278.6792,-360.3555 288.8725,-357.4662 284.8459,-351.7402"/>
</g>
<!-- Node27&#45;&gt;Node17 -->
<g id="edge62" class="edge">
<title>Node27&#45;&gt;Node17</title>
<path fill="none" stroke="#191970" d="M287.221,-354.4138C288.5643,-353.2003 289.829,-351.8978 291,-350.5 379.7868,-244.5125 238.1475,-147.4324 327,-41.5 333.0293,-34.3118 341.0358,-29.1389 349.7081,-25.427"/>
<polygon fill="#191970" stroke="#191970" points="284.8849,-351.7808 278.7736,-360.4354 288.9481,-357.4808 284.8849,-351.7808"/>
</g>
<!-- Node27&#45;&gt;Node18 -->
<g id="edge63" class="edge">
<title>Node27&#45;&gt;Node18</title>
<path fill="none" stroke="#191970" d="M287.6509,-386.3402C288.822,-387.3317 289.9413,-388.3838 291,-389.5 340.2644,-441.4418 278.064,-494.2487 327,-546.5 333.3099,-553.2373 341.3536,-558.1834 349.9468,-561.8092"/>
<polygon fill="#191970" stroke="#191970" points="289.4983,-383.3639 279.2606,-380.6359 285.5626,-389.1527 289.4983,-383.3639"/>
</g>
<!-- Node27&#45;&gt;Node19 -->
<g id="edge64" class="edge">
<title>Node27&#45;&gt;Node19</title>
<path fill="none" stroke="#191970" d="M286.9882,-386.0045C288.3923,-387.0928 289.7339,-388.2563 291,-389.5 330.1151,-427.9244 286.8513,-470.157 327,-507.5 332.0076,-512.1577 337.9116,-515.755 344.2282,-518.5225"/>
<polygon fill="#191970" stroke="#191970" points="288.6776,-382.9321 278.3523,-380.5576 284.9432,-388.8528 288.6776,-382.9321"/>
</g>
<!-- Node27&#45;&gt;Node20 -->
<g id="edge65" class="edge">
<title>Node27&#45;&gt;Node20</title>
<path fill="none" stroke="#191970" d="M286.039,-385.7269C287.7702,-386.8933 289.4303,-388.1487 291,-389.5 320.2422,-414.6731 297.082,-444.134 327,-468.5 342.6776,-481.2683 365.2637,-485.8326 382.9933,-487.3061"/>
<polygon fill="#191970" stroke="#191970" points="287.3164,-382.4312 276.88,-380.6057 283.9001,-388.541 287.3164,-382.4312"/>
</g>
<!-- Node27&#45;&gt;Node21 -->
<g id="edge66" class="edge">
<title>Node27&#45;&gt;Node21</title>
<path fill="none" stroke="#191970" d="M281.5351,-384.4128C284.824,-385.9408 288.0066,-387.631 291,-389.5 311.2879,-402.167 306.3742,-417.3912 327,-429.5 343.1544,-438.9838 363.6346,-443.7347 380.269,-446.1142"/>
<polygon fill="#191970" stroke="#191970" points="282.6339,-381.0805 272.0537,-380.5229 279.9769,-387.5567 282.6339,-381.0805"/>
</g>
</g>
</svg>
