<?xml version="1.0" encoding="UTF-8" standalone="no"?>
<!DOCTYPE svg PUBLIC "-//W3C//DTD SVG 1.1//EN"
 "http://www.w3.org/Graphics/SVG/1.1/DTD/svg11.dtd">
<!-- Generated by graphviz version 2.40.1 (20161225.0304)
 -->
<!-- Title: tree2csv Pages: 1 -->
<svg width="228pt" height="143pt"
 viewBox="0.00 0.00 228.00 143.00" xmlns="http://www.w3.org/2000/svg" xmlns:xlink="http://www.w3.org/1999/xlink">
<g id="graph0" class="graph" transform="scale(1 1) rotate(0) translate(4 139)">
<title>tree2csv</title>
<!-- Node1 -->
<g id="node1" class="node">
<title>Node1</title>
<polygon fill="#bfbfbf" stroke="#000000" points="0,-57.5 0,-77.5 60,-77.5 60,-57.5 0,-57.5"/>
<text text-anchor="middle" x="30" y="-64.5" font-family="FreeSans" font-size="10.00" fill="#000000">tree2csv</text>
</g>
<!-- Node2 -->
<g id="node2" class="node">
<title>Node2</title>
<g id="a_node2"><a xlink:href="../../d5/d6c/namespacetau__commons.html#ae0fc3726564dfa2735ca0db9d81db129" target="_top" xlink:title="tau_commons::select\l_accept_jet">
<polygon fill="none" stroke="#000000" points="96,-102.5 96,-134.5 220,-134.5 220,-102.5 96,-102.5"/>
<text text-anchor="start" x="104" y="-121.5" font-family="FreeSans" font-size="10.00" fill="#000000">tau_commons::select</text>
<text text-anchor="middle" x="158" y="-109.5" font-family="FreeSans" font-size="10.00" fill="#000000">_accept_jet</text>
</a>
</g>
</g>
<!-- Node1&#45;&gt;Node2 -->
<g id="edge1" class="edge">
<title>Node1&#45;&gt;Node2</title>
<path fill="none" stroke="#191970" d="M55.2887,-77.576C70.4271,-83.6077 90.1943,-91.4837 108.3401,-98.7136"/>
<polygon fill="#191970" stroke="#191970" points="107.063,-101.9723 117.6483,-102.4223 109.654,-95.4695 107.063,-101.9723"/>
</g>
<!-- Node3 -->
<g id="node3" class="node">
<title>Node3</title>
<g id="a_node3"><a xlink:href="../../d5/d6c/namespacetau__commons.html#a83c9481c26e50fbd60e7157500b49b70" target="_top" xlink:title="tau_commons::select\l_true_tau">
<polygon fill="none" stroke="#000000" points="96,-51.5 96,-83.5 220,-83.5 220,-51.5 96,-51.5"/>
<text text-anchor="start" x="104" y="-70.5" font-family="FreeSans" font-size="10.00" fill="#000000">tau_commons::select</text>
<text text-anchor="middle" x="158" y="-58.5" font-family="FreeSans" font-size="10.00" fill="#000000">_true_tau</text>
</a>
</g>
</g>
<!-- Node1&#45;&gt;Node3 -->
<g id="edge2" class="edge">
<title>Node1&#45;&gt;Node3</title>
<path fill="none" stroke="#191970" d="M60.0103,-67.5C67.8487,-67.5 76.6453,-67.5 85.6667,-67.5"/>
<polygon fill="#191970" stroke="#191970" points="85.9085,-71.0001 95.9084,-67.5 85.9084,-64.0001 85.9085,-71.0001"/>
</g>
<!-- Node4 -->
<g id="node4" class="node">
<title>Node4</title>
<g id="a_node4"><a xlink:href="../../d5/d6c/namespacetau__commons.html#abd2caf7800c2d4913e93e3599494b999" target="_top" xlink:title="tau_commons::select\l_true_uds">
<polygon fill="none" stroke="#000000" points="96,-.5 96,-32.5 220,-32.5 220,-.5 96,-.5"/>
<text text-anchor="start" x="104" y="-19.5" font-family="FreeSans" font-size="10.00" fill="#000000">tau_commons::select</text>
<text text-anchor="middle" x="158" y="-7.5" font-family="FreeSans" font-size="10.00" fill="#000000">_true_uds</text>
</a>
</g>
</g>
<!-- Node1&#45;&gt;Node4 -->
<g id="edge3" class="edge">
<title>Node1&#45;&gt;Node4</title>
<path fill="none" stroke="#191970" d="M55.2887,-57.424C70.4271,-51.3923 90.1943,-43.5163 108.3401,-36.2864"/>
<polygon fill="#191970" stroke="#191970" points="109.654,-39.5305 117.6483,-32.5777 107.063,-33.0277 109.654,-39.5305"/>
</g>
</g>
</svg>
