<?xml version="1.0" encoding="UTF-8" standalone="no"?>
<!DOCTYPE svg PUBLIC "-//W3C//DTD SVG 1.1//EN"
 "http://www.w3.org/Graphics/SVG/1.1/DTD/svg11.dtd">
<!-- Generated by graphviz version 2.40.1 (20161225.0304)
 -->
<!-- Title: PHG4Prototype3InnerHcalSteppingAction::UserSteppingAction Pages: 1 -->
<svg width="586pt" height="1100pt"
 viewBox="0.00 0.00 586.00 1100.00" xmlns="http://www.w3.org/2000/svg" xmlns:xlink="http://www.w3.org/1999/xlink">
<g id="graph0" class="graph" transform="scale(1 1) rotate(0) translate(4 1096)">
<title>PHG4Prototype3InnerHcalSteppingAction::UserSteppingAction</title>
<!-- Node1 -->
<g id="node1" class="node">
<title>Node1</title>
<polygon fill="#bfbfbf" stroke="#000000" points="0,-496.5 0,-528.5 193,-528.5 193,-496.5 0,-496.5"/>
<text text-anchor="start" x="8" y="-515.5" font-family="FreeSans" font-size="10.00" fill="#000000">PHG4Prototype3InnerHcalStepping</text>
<text text-anchor="middle" x="96.5" y="-503.5" font-family="FreeSans" font-size="10.00" fill="#000000">Action::UserSteppingAction</text>
</g>
<!-- Node2 -->
<g id="node2" class="node">
<title>Node2</title>
<g id="a_node2"><a xlink:href="../../db/d88/classPHG4Shower.html#aff36d66ca2bfafcb3528d98960fb89c4" target="_top" xlink:title="PHG4Shower::add_g4hit_id">
<polygon fill="none" stroke="#000000" points="248.5,-1071.5 248.5,-1091.5 401.5,-1091.5 401.5,-1071.5 248.5,-1071.5"/>
<text text-anchor="middle" x="325" y="-1078.5" font-family="FreeSans" font-size="10.00" fill="#000000">PHG4Shower::add_g4hit_id</text>
</a>
</g>
</g>
<!-- Node1&#45;&gt;Node2 -->
<g id="edge1" class="edge">
<title>Node1&#45;&gt;Node2</title>
<path fill="none" stroke="#191970" d="M98.064,-528.5557C106.4129,-610.9188 148.3967,-985.1365 229,-1062.5 232.1027,-1065.478 235.5304,-1068.0528 239.1884,-1070.2751"/>
<polygon fill="#191970" stroke="#191970" points="237.6023,-1073.395 248.0975,-1074.8444 240.7969,-1067.1665 237.6023,-1073.395"/>
</g>
<!-- Node3 -->
<g id="node3" class="node">
<title>Node3</title>
<g id="a_node3"><a xlink:href="../../d4/d30/classPHG4HitContainer.html#a4df3ca68ecff69c9d7976b84fcc82e93" target="_top" xlink:title="PHG4HitContainer::AddHit">
<polygon fill="none" stroke="#000000" points="250.5,-1032.5 250.5,-1052.5 399.5,-1052.5 399.5,-1032.5 250.5,-1032.5"/>
<text text-anchor="middle" x="325" y="-1039.5" font-family="FreeSans" font-size="10.00" fill="#000000">PHG4HitContainer::AddHit</text>
</a>
</g>
</g>
<!-- Node1&#45;&gt;Node3 -->
<g id="edge2" class="edge">
<title>Node1&#45;&gt;Node3</title>
<path fill="none" stroke="#191970" d="M98.5458,-528.6989C108.7449,-606.9652 156.5085,-945.1414 229,-1017.5 233.0377,-1021.5303 237.6378,-1024.9362 242.5872,-1027.8118"/>
<polygon fill="#191970" stroke="#191970" points="241.3181,-1031.0904 251.8273,-1032.4354 244.4506,-1024.8304 241.3181,-1031.0904"/>
</g>
<!-- Node4 -->
<g id="node4" class="node">
<title>Node4</title>
<g id="a_node4"><a xlink:href="../../d3/d9e/classPHG4Hit.html#acea6b2f3763d899e4de3765b9b5c6e51" target="_top" xlink:title="PHG4Hit::get_hit_id">
<polygon fill="none" stroke="#000000" points="460.5,-1012.5 460.5,-1032.5 574.5,-1032.5 574.5,-1012.5 460.5,-1012.5"/>
<text text-anchor="middle" x="517.5" y="-1019.5" font-family="FreeSans" font-size="10.00" fill="#000000">PHG4Hit::get_hit_id</text>
</a>
</g>
</g>
<!-- Node1&#45;&gt;Node4 -->
<g id="edge6" class="edge">
<title>Node1&#45;&gt;Node4</title>
<path fill="none" stroke="#191970" d="M98.6403,-528.577C109.0164,-603.9995 156.5585,-921.7237 229,-984.5 261.0879,-1012.3067 375.4222,-1019.9803 450.1598,-1021.9714"/>
<polygon fill="#191970" stroke="#191970" points="450.3495,-1025.4769 460.4301,-1022.2162 450.5163,-1018.4789 450.3495,-1025.4769"/>
</g>
<!-- Node5 -->
<g id="node5" class="node">
<title>Node5</title>
<g id="a_node5"><a xlink:href="../../d3/d9e/classPHG4Hit.html#a299edb9d0b140d0456f8bfecdf9cac56" target="_top" xlink:title="PHG4Hit::get_edep">
<polygon fill="none" stroke="#000000" points="269,-954.5 269,-974.5 381,-974.5 381,-954.5 269,-954.5"/>
<text text-anchor="middle" x="325" y="-961.5" font-family="FreeSans" font-size="10.00" fill="#000000">PHG4Hit::get_edep</text>
</a>
</g>
</g>
<!-- Node1&#45;&gt;Node5 -->
<g id="edge4" class="edge">
<title>Node1&#45;&gt;Node5</title>
<path fill="none" stroke="#191970" d="M99.2121,-528.8169C111.454,-600.5109 163.8063,-886.6129 229,-945.5 237.3016,-952.9986 247.6835,-957.8967 258.5264,-961.0361"/>
<polygon fill="#191970" stroke="#191970" points="258.0264,-964.5155 268.5674,-963.4489 259.6619,-957.7092 258.0264,-964.5155"/>
</g>
<!-- Node6 -->
<g id="node6" class="node">
<title>Node6</title>
<g id="a_node6"><a xlink:href="../../d3/d9e/classPHG4Hit.html#ab8db2cb7bc978a58777600b2bd7a22ac" target="_top" xlink:title="PHG4Hit::get_eion">
<polygon fill="none" stroke="#000000" points="271,-915.5 271,-935.5 379,-935.5 379,-915.5 271,-915.5"/>
<text text-anchor="middle" x="325" y="-922.5" font-family="FreeSans" font-size="10.00" fill="#000000">PHG4Hit::get_eion</text>
</a>
</g>
</g>
<!-- Node1&#45;&gt;Node6 -->
<g id="edge5" class="edge">
<title>Node1&#45;&gt;Node6</title>
<path fill="none" stroke="#191970" d="M99.7063,-528.7055C113.3736,-596.1618 168.8231,-853.6262 229,-906.5 237.9741,-914.385 249.2606,-919.372 260.9122,-922.458"/>
<polygon fill="#191970" stroke="#191970" points="260.2236,-925.8902 270.7427,-924.625 261.7306,-919.0543 260.2236,-925.8902"/>
</g>
<!-- Node7 -->
<g id="node7" class="node">
<title>Node7</title>
<g id="a_node7"><a xlink:href="../../d7/d98/classPHG4Prototype3InnerHcalDetector.html#ac2d1f9906487e2d6d67c18f8aab0da9b" target="_top" xlink:title="PHG4Prototype3InnerHcalDetector\l::get_Layer">
<polygon fill="none" stroke="#000000" points="229,-864.5 229,-896.5 421,-896.5 421,-864.5 229,-864.5"/>
<text text-anchor="start" x="237" y="-883.5" font-family="FreeSans" font-size="10.00" fill="#000000">PHG4Prototype3InnerHcalDetector</text>
<text text-anchor="middle" x="325" y="-871.5" font-family="FreeSans" font-size="10.00" fill="#000000">::get_Layer</text>
</a>
</g>
</g>
<!-- Node1&#45;&gt;Node7 -->
<g id="edge7" class="edge">
<title>Node1&#45;&gt;Node7</title>
<path fill="none" stroke="#191970" d="M97.6917,-528.6613C102.6271,-583.4653 126.3455,-763.9174 229,-855.5 230.3253,-856.6824 231.6996,-857.81 233.1169,-858.8855"/>
<polygon fill="#191970" stroke="#191970" points="231.3795,-861.9317 241.6604,-864.4916 235.2198,-856.0791 231.3795,-861.9317"/>
</g>
<!-- Node8 -->
<g id="node8" class="node">
<title>Node8</title>
<g id="a_node8"><a xlink:href="../../d3/d9e/classPHG4Hit.html#a58aae50a4a38ecbc38878e98bb71a1c7" target="_top" xlink:title="PHG4Hit::get_light\l_yield">
<polygon fill="none" stroke="#000000" points="270,-813.5 270,-845.5 380,-845.5 380,-813.5 270,-813.5"/>
<text text-anchor="start" x="278" y="-832.5" font-family="FreeSans" font-size="10.00" fill="#000000">PHG4Hit::get_light</text>
<text text-anchor="middle" x="325" y="-820.5" font-family="FreeSans" font-size="10.00" fill="#000000">_yield</text>
</a>
</g>
</g>
<!-- Node1&#45;&gt;Node8 -->
<g id="edge8" class="edge">
<title>Node1&#45;&gt;Node8</title>
<path fill="none" stroke="#191970" d="M98.896,-528.6764C107.0981,-578.1203 138.7177,-728.4892 229,-804.5 237.8653,-811.9639 248.7026,-817.2312 259.8629,-820.9411"/>
<polygon fill="#191970" stroke="#191970" points="259.1319,-824.3738 269.7121,-823.8165 261.0936,-817.6542 259.1319,-824.3738"/>
</g>
<!-- Node9 -->
<g id="node9" class="node">
<title>Node9</title>
<g id="a_node9"><a xlink:href="../../d7/d98/classPHG4Prototype3InnerHcalDetector.html#a28ccd93c715b2a42660b822e92f1380a" target="_top" xlink:title="PHG4Prototype3InnerHcalDetector\l::get_scinti_row_id">
<polygon fill="none" stroke="#000000" points="229,-762.5 229,-794.5 421,-794.5 421,-762.5 229,-762.5"/>
<text text-anchor="start" x="237" y="-781.5" font-family="FreeSans" font-size="10.00" fill="#000000">PHG4Prototype3InnerHcalDetector</text>
<text text-anchor="middle" x="325" y="-769.5" font-family="FreeSans" font-size="10.00" fill="#000000">::get_scinti_row_id</text>
</a>
</g>
</g>
<!-- Node1&#45;&gt;Node9 -->
<g id="edge9" class="edge">
<title>Node1&#45;&gt;Node9</title>
<path fill="none" stroke="#191970" d="M100.5469,-528.6198C112.326,-572.1073 150.8189,-692.6433 229,-753.5 230.6309,-754.7695 232.3198,-755.9749 234.0577,-757.1194"/>
<polygon fill="#191970" stroke="#191970" points="232.704,-760.3793 243.114,-762.3497 236.2049,-754.3176 232.704,-760.3793"/>
</g>
<!-- Node10 -->
<g id="node10" class="node">
<title>Node10</title>
<g id="a_node10"><a xlink:href="../../d7/d98/classPHG4Prototype3InnerHcalDetector.html#a85ac3a1d43f1769c2f648acba7aaf85b" target="_top" xlink:title="PHG4Prototype3InnerHcalDetector\l::get_steel_plate_id">
<polygon fill="none" stroke="#000000" points="229,-711.5 229,-743.5 421,-743.5 421,-711.5 229,-711.5"/>
<text text-anchor="start" x="237" y="-730.5" font-family="FreeSans" font-size="10.00" fill="#000000">PHG4Prototype3InnerHcalDetector</text>
<text text-anchor="middle" x="325" y="-718.5" font-family="FreeSans" font-size="10.00" fill="#000000">::get_steel_plate_id</text>
</a>
</g>
</g>
<!-- Node1&#45;&gt;Node10 -->
<g id="edge10" class="edge">
<title>Node1&#45;&gt;Node10</title>
<path fill="none" stroke="#191970" d="M103.0345,-528.6451C118.8154,-565.522 162.6675,-656.3067 229,-702.5 231.1641,-704.0071 233.4129,-705.4233 235.7283,-706.7542"/>
<polygon fill="#191970" stroke="#191970" points="234.4557,-710.0347 244.9521,-711.4758 237.6454,-703.8036 234.4557,-710.0347"/>
</g>
<!-- Node11 -->
<g id="node11" class="node">
<title>Node11</title>
<g id="a_node11"><a xlink:href="../../d4/d30/classPHG4HitContainer.html#a5073671e6d35969dc3d421e2278229af" target="_top" xlink:title="PHG4HitContainer::GetID">
<polygon fill="none" stroke="#000000" points="253.5,-672.5 253.5,-692.5 396.5,-692.5 396.5,-672.5 253.5,-672.5"/>
<text text-anchor="middle" x="325" y="-679.5" font-family="FreeSans" font-size="10.00" fill="#000000">PHG4HitContainer::GetID</text>
</a>
</g>
</g>
<!-- Node1&#45;&gt;Node11 -->
<g id="edge11" class="edge">
<title>Node1&#45;&gt;Node11</title>
<path fill="none" stroke="#191970" d="M105.7947,-528.6742C124.6761,-559.9554 170.7149,-628.6364 229,-662.5 233.6921,-665.2261 238.7041,-667.5834 243.8835,-669.6215"/>
<polygon fill="#191970" stroke="#191970" points="242.7596,-672.9363 253.3544,-672.956 245.0843,-666.3336 242.7596,-672.9363"/>
</g>
<!-- Node12 -->
<g id="node12" class="node">
<title>Node12</title>
<g id="a_node12"><a xlink:href="../../df/d3f/classPHG4SteppingAction.html#a1d609cbf3e7bab8fbc5ff65ee4682f3e" target="_top" xlink:title="PHG4SteppingAction\l::GetLightCorrection">
<polygon fill="none" stroke="#000000" points="264.5,-621.5 264.5,-653.5 385.5,-653.5 385.5,-621.5 264.5,-621.5"/>
<text text-anchor="start" x="272.5" y="-640.5" font-family="FreeSans" font-size="10.00" fill="#000000">PHG4SteppingAction</text>
<text text-anchor="middle" x="325" y="-628.5" font-family="FreeSans" font-size="10.00" fill="#000000">::GetLightCorrection</text>
</a>
</g>
</g>
<!-- Node1&#45;&gt;Node12 -->
<g id="edge12" class="edge">
<title>Node1&#45;&gt;Node12</title>
<path fill="none" stroke="#191970" d="M113.5109,-528.6084C137.4553,-550.4421 183.3022,-589.2512 229,-611.5 237.0948,-615.4411 245.8745,-618.8553 254.7244,-621.7939"/>
<polygon fill="#191970" stroke="#191970" points="253.7371,-625.1522 264.326,-624.7982 255.8275,-618.4716 253.7371,-625.1522"/>
</g>
<!-- Node14 -->
<g id="node14" class="node">
<title>Node14</title>
<g id="a_node14"><a xlink:href="../../df/d3f/classPHG4SteppingAction.html#a57aa751589ae9eb0c2e6563948e85513" target="_top" xlink:title="get amount of energy that can make scintillation light, in Unit of GeV.">
<polygon fill="none" stroke="#000000" points="243,-570.5 243,-602.5 407,-602.5 407,-570.5 243,-570.5"/>
<text text-anchor="start" x="251" y="-589.5" font-family="FreeSans" font-size="10.00" fill="#000000">PHG4SteppingAction</text>
<text text-anchor="middle" x="325" y="-577.5" font-family="FreeSans" font-size="10.00" fill="#000000">::GetVisibleEnergyDeposition</text>
</a>
</g>
</g>
<!-- Node1&#45;&gt;Node14 -->
<g id="edge14" class="edge">
<title>Node1&#45;&gt;Node14</title>
<path fill="none" stroke="#191970" d="M137.9701,-528.5271C163.9395,-538.3127 198.2049,-550.7703 229,-560.5 236.7256,-562.9409 244.8443,-565.3605 252.9524,-567.6846"/>
<polygon fill="#191970" stroke="#191970" points="252.2354,-571.1189 262.8101,-570.4671 254.137,-564.3821 252.2354,-571.1189"/>
</g>
<!-- Node15 -->
<g id="node15" class="node">
<title>Node15</title>
<g id="a_node15"><a xlink:href="../../d7/d98/classPHG4Prototype3InnerHcalDetector.html#a209545779b0c5564e8ec14ef54c766cb" target="_top" xlink:title="PHG4Prototype3InnerHcalDetector\l::IsInPrototype3InnerHcal">
<polygon fill="none" stroke="#000000" points="229,-519.5 229,-551.5 421,-551.5 421,-519.5 229,-519.5"/>
<text text-anchor="start" x="237" y="-538.5" font-family="FreeSans" font-size="10.00" fill="#000000">PHG4Prototype3InnerHcalDetector</text>
<text text-anchor="middle" x="325" y="-526.5" font-family="FreeSans" font-size="10.00" fill="#000000">::IsInPrototype3InnerHcal</text>
</a>
</g>
</g>
<!-- Node1&#45;&gt;Node15 -->
<g id="edge15" class="edge">
<title>Node1&#45;&gt;Node15</title>
<path fill="none" stroke="#191970" d="M193.0734,-522.2207C201.5653,-523.0755 210.1907,-523.9437 218.7559,-524.8058"/>
<polygon fill="#191970" stroke="#191970" points="218.471,-528.2948 228.7713,-525.814 219.1721,-521.33 218.471,-528.2948"/>
</g>
<!-- Node16 -->
<g id="node16" class="node">
<title>Node16</title>
<g id="a_node16"><a xlink:href="../../d3/d9e/classPHG4Hit.html#a73b21baa3e6de2ae4c8101ca5293a9ed" target="_top" xlink:title="Clear Event.">
<polygon fill="none" stroke="#000000" points="278,-480.5 278,-500.5 372,-500.5 372,-480.5 278,-480.5"/>
<text text-anchor="middle" x="325" y="-487.5" font-family="FreeSans" font-size="10.00" fill="#000000">PHG4Hit::Reset</text>
</a>
</g>
</g>
<!-- Node1&#45;&gt;Node16 -->
<g id="edge16" class="edge">
<title>Node1&#45;&gt;Node16</title>
<path fill="none" stroke="#191970" d="M193.0734,-503.2019C218.5291,-500.751 245.1847,-498.1846 267.8192,-496.0054"/>
<polygon fill="#191970" stroke="#191970" points="268.2986,-499.4755 277.9171,-495.0331 267.6277,-492.5077 268.2986,-499.4755"/>
</g>
<!-- Node17 -->
<g id="node17" class="node">
<title>Node17</title>
<g id="a_node17"><a xlink:href="../../d3/d9e/classPHG4Hit.html#ad97bbe7fcf81822a93654afe0e540143" target="_top" xlink:title="PHG4Hit::set_edep">
<polygon fill="none" stroke="#000000" points="269.5,-441.5 269.5,-461.5 380.5,-461.5 380.5,-441.5 269.5,-441.5"/>
<text text-anchor="middle" x="325" y="-448.5" font-family="FreeSans" font-size="10.00" fill="#000000">PHG4Hit::set_edep</text>
</a>
</g>
</g>
<!-- Node1&#45;&gt;Node17 -->
<g id="edge17" class="edge">
<title>Node1&#45;&gt;Node17</title>
<path fill="none" stroke="#191970" d="M142.7366,-496.4479C168.0231,-488.0236 200.0159,-477.9372 229,-470.5 238.7507,-467.998 249.1303,-465.6364 259.3254,-463.4842"/>
<polygon fill="#191970" stroke="#191970" points="260.3399,-466.8488 269.4288,-461.4044 258.9285,-459.9926 260.3399,-466.8488"/>
</g>
<!-- Node18 -->
<g id="node18" class="node">
<title>Node18</title>
<g id="a_node18"><a xlink:href="../../d3/d9e/classPHG4Hit.html#a65d6d5bfd2a9e6fe2392fc57ac6c57d0" target="_top" xlink:title="PHG4Hit::set_eion">
<polygon fill="none" stroke="#000000" points="271.5,-402.5 271.5,-422.5 378.5,-422.5 378.5,-402.5 271.5,-402.5"/>
<text text-anchor="middle" x="325" y="-409.5" font-family="FreeSans" font-size="10.00" fill="#000000">PHG4Hit::set_eion</text>
</a>
</g>
</g>
<!-- Node1&#45;&gt;Node18 -->
<g id="edge18" class="edge">
<title>Node1&#45;&gt;Node18</title>
<path fill="none" stroke="#191970" d="M117.748,-496.2034C142.9271,-477.704 186.8038,-447.9658 229,-431.5 239.1791,-427.5279 250.3026,-424.3524 261.2534,-421.824"/>
<polygon fill="#191970" stroke="#191970" points="262.1887,-425.203 271.2298,-419.6796 260.7176,-418.3593 262.1887,-425.203"/>
</g>
<!-- Node19 -->
<g id="node19" class="node">
<title>Node19</title>
<g id="a_node19"><a xlink:href="../../d3/d9e/classPHG4Hit.html#a82e4721a85588fe7a2d15511bc6dd506" target="_top" xlink:title="PHG4Hit::set_hit_type">
<polygon fill="none" stroke="#000000" points="262,-363.5 262,-383.5 388,-383.5 388,-363.5 262,-363.5"/>
<text text-anchor="middle" x="325" y="-370.5" font-family="FreeSans" font-size="10.00" fill="#000000">PHG4Hit::set_hit_type</text>
</a>
</g>
</g>
<!-- Node1&#45;&gt;Node19 -->
<g id="edge19" class="edge">
<title>Node1&#45;&gt;Node19</title>
<path fill="none" stroke="#191970" d="M109.2331,-496.304C130.8468,-470.022 177.4208,-418.4197 229,-392.5 236.2311,-388.8662 244.0949,-385.9269 252.1055,-383.5494"/>
<polygon fill="#191970" stroke="#191970" points="253.1642,-386.8892 261.9169,-380.9191 251.3516,-380.128 253.1642,-386.8892"/>
</g>
<!-- Node20 -->
<g id="node20" class="node">
<title>Node20</title>
<g id="a_node20"><a xlink:href="../../d3/d9e/classPHG4Hit.html#a40744d6a0270043b6feee33d7b522e99" target="_top" xlink:title="PHG4Hit::set_light\l_yield">
<polygon fill="none" stroke="#000000" points="270.5,-312.5 270.5,-344.5 379.5,-344.5 379.5,-312.5 270.5,-312.5"/>
<text text-anchor="start" x="278.5" y="-331.5" font-family="FreeSans" font-size="10.00" fill="#000000">PHG4Hit::set_light</text>
<text text-anchor="middle" x="325" y="-319.5" font-family="FreeSans" font-size="10.00" fill="#000000">_yield</text>
</a>
</g>
</g>
<!-- Node1&#45;&gt;Node20 -->
<g id="edge20" class="edge">
<title>Node1&#45;&gt;Node20</title>
<path fill="none" stroke="#191970" d="M105.2645,-496.3625C123.6909,-464.0169 169.6845,-391.1362 229,-353.5 238.5604,-347.4339 249.5415,-342.8346 260.5832,-339.349"/>
<polygon fill="#191970" stroke="#191970" points="261.625,-342.6913 270.268,-336.5635 259.6901,-335.964 261.625,-342.6913"/>
</g>
<!-- Node21 -->
<g id="node21" class="node">
<title>Node21</title>
<g id="a_node21"><a xlink:href="../../d3/d9e/classPHG4Hit.html#a787f94f5aa727f76664732f1404b8fbe" target="_top" xlink:title="PHG4Hit::set_row">
<polygon fill="none" stroke="#000000" points="273,-273.5 273,-293.5 377,-293.5 377,-273.5 273,-273.5"/>
<text text-anchor="middle" x="325" y="-280.5" font-family="FreeSans" font-size="10.00" fill="#000000">PHG4Hit::set_row</text>
</a>
</g>
</g>
<!-- Node1&#45;&gt;Node21 -->
<g id="edge21" class="edge">
<title>Node1&#45;&gt;Node21</title>
<path fill="none" stroke="#191970" d="M101.6057,-496.4814C115.2072,-456.5828 156.3232,-352.3982 229,-302.5 238.9577,-295.6633 250.7885,-291.1584 262.6841,-288.2176"/>
<polygon fill="#191970" stroke="#191970" points="263.5984,-291.6015 272.6519,-286.0983 262.1426,-284.7546 263.5984,-291.6015"/>
</g>
<!-- Node22 -->
<g id="node22" class="node">
<title>Node22</title>
<g id="a_node22"><a xlink:href="../../d3/d9e/classPHG4Hit.html#acb136829baab1de2639e7fd5de3a74b5" target="_top" xlink:title="PHG4Hit::set_scint_id">
<polygon fill="none" stroke="#000000" points="263,-234.5 263,-254.5 387,-254.5 387,-234.5 263,-234.5"/>
<text text-anchor="middle" x="325" y="-241.5" font-family="FreeSans" font-size="10.00" fill="#000000">PHG4Hit::set_scint_id</text>
</a>
</g>
</g>
<!-- Node1&#45;&gt;Node22 -->
<g id="edge22" class="edge">
<title>Node1&#45;&gt;Node22</title>
<path fill="none" stroke="#191970" d="M100.0251,-496.2493C110.6861,-451.2539 147.0202,-324.3574 229,-263.5 236.186,-258.1655 244.4793,-254.2219 253.12,-251.3226"/>
<polygon fill="#191970" stroke="#191970" points="254.3463,-254.6115 262.9826,-248.4745 252.4041,-247.8863 254.3463,-254.6115"/>
</g>
<!-- Node23 -->
<g id="node23" class="node">
<title>Node23</title>
<g id="a_node23"><a xlink:href="../../d3/d9e/classPHG4Hit.html#a3bd1d01f13031802bc9956609c416a46" target="_top" xlink:title="PHG4Hit::set_shower_id">
<polygon fill="none" stroke="#000000" points="257,-195.5 257,-215.5 393,-215.5 393,-195.5 257,-195.5"/>
<text text-anchor="middle" x="325" y="-202.5" font-family="FreeSans" font-size="10.00" fill="#000000">PHG4Hit::set_shower_id</text>
</a>
</g>
</g>
<!-- Node1&#45;&gt;Node23 -->
<g id="edge23" class="edge">
<title>Node1&#45;&gt;Node23</title>
<path fill="none" stroke="#191970" d="M98.7759,-496.3021C106.6323,-446.836 137.3624,-296.7275 229,-224.5 234.4687,-220.1896 240.647,-216.7724 247.1673,-214.0728"/>
<polygon fill="#191970" stroke="#191970" points="248.669,-217.2538 256.9225,-210.6107 246.3277,-210.657 248.669,-217.2538"/>
</g>
<!-- Node24 -->
<g id="node24" class="node">
<title>Node24</title>
<g id="a_node24"><a xlink:href="../../d3/d9e/classPHG4Hit.html#a5cced855d1a85cb380f993417f1e5b1a" target="_top" xlink:title="PHG4Hit::set_t">
<polygon fill="none" stroke="#000000" points="280,-156.5 280,-176.5 370,-176.5 370,-156.5 280,-156.5"/>
<text text-anchor="middle" x="325" y="-163.5" font-family="FreeSans" font-size="10.00" fill="#000000">PHG4Hit::set_t</text>
</a>
</g>
</g>
<!-- Node1&#45;&gt;Node24 -->
<g id="edge24" class="edge">
<title>Node1&#45;&gt;Node24</title>
<path fill="none" stroke="#191970" d="M97.7953,-496.4794C103.0247,-443.0168 127.4801,-269.3912 229,-185.5 240.3861,-176.0911 255.1103,-170.8814 269.5921,-168.1041"/>
<polygon fill="#191970" stroke="#191970" points="270.1967,-171.5521 279.5353,-166.5481 269.1144,-164.6363 270.1967,-171.5521"/>
</g>
<!-- Node25 -->
<g id="node25" class="node">
<title>Node25</title>
<g id="a_node25"><a xlink:href="../../d3/d9e/classPHG4Hit.html#ac4e7f18a0d54ec275128651928e69531" target="_top" xlink:title="PHG4Hit::set_trkid">
<polygon fill="none" stroke="#000000" points="271,-117.5 271,-137.5 379,-137.5 379,-117.5 271,-117.5"/>
<text text-anchor="middle" x="325" y="-124.5" font-family="FreeSans" font-size="10.00" fill="#000000">PHG4Hit::set_trkid</text>
</a>
</g>
</g>
<!-- Node1&#45;&gt;Node25 -->
<g id="edge25" class="edge">
<title>Node1&#45;&gt;Node25</title>
<path fill="none" stroke="#191970" d="M97.0416,-496.2559C99.8953,-438.5832 117.7363,-242.0225 229,-146.5 238.0639,-138.7184 249.3909,-133.778 261.0539,-130.7052"/>
<polygon fill="#191970" stroke="#191970" points="261.8732,-134.1088 270.8877,-128.5419 260.3692,-127.2722 261.8732,-134.1088"/>
</g>
<!-- Node26 -->
<g id="node26" class="node">
<title>Node26</title>
<g id="a_node26"><a xlink:href="../../d3/d9e/classPHG4Hit.html#aa91398b4546e9d099443217e1577f79b" target="_top" xlink:title="PHG4Hit::set_x">
<polygon fill="none" stroke="#000000" points="279,-78.5 279,-98.5 371,-98.5 371,-78.5 279,-78.5"/>
<text text-anchor="middle" x="325" y="-85.5" font-family="FreeSans" font-size="10.00" fill="#000000">PHG4Hit::set_x</text>
</a>
</g>
</g>
<!-- Node1&#45;&gt;Node26 -->
<g id="edge26" class="edge">
<title>Node1&#45;&gt;Node26</title>
<path fill="none" stroke="#191970" d="M99.5483,-496.313C112.786,-427.7232 167.3967,-162.0778 229,-107.5 239.8472,-97.8899 254.1235,-92.5745 268.3397,-89.7587"/>
<polygon fill="#191970" stroke="#191970" points="269.3035,-93.1496 278.6308,-88.1245 268.2056,-86.2362 269.3035,-93.1496"/>
</g>
<!-- Node27 -->
<g id="node27" class="node">
<title>Node27</title>
<g id="a_node27"><a xlink:href="../../d3/d9e/classPHG4Hit.html#a3ab7971f354374b005f9a11fd761b53e" target="_top" xlink:title="PHG4Hit::set_y">
<polygon fill="none" stroke="#000000" points="279,-39.5 279,-59.5 371,-59.5 371,-39.5 279,-39.5"/>
<text text-anchor="middle" x="325" y="-46.5" font-family="FreeSans" font-size="10.00" fill="#000000">PHG4Hit::set_y</text>
</a>
</g>
</g>
<!-- Node1&#45;&gt;Node27 -->
<g id="edge27" class="edge">
<title>Node1&#45;&gt;Node27</title>
<path fill="none" stroke="#191970" d="M99.0692,-496.2636C110.8925,-423.5933 162.3512,-129.1231 229,-68.5 239.9267,-58.5612 254.5034,-53.1816 268.991,-50.4108"/>
<polygon fill="#191970" stroke="#191970" points="269.6051,-53.8577 278.9606,-48.8854 268.5463,-46.9382 269.6051,-53.8577"/>
</g>
<!-- Node28 -->
<g id="node28" class="node">
<title>Node28</title>
<g id="a_node28"><a xlink:href="../../d3/d9e/classPHG4Hit.html#a896d7a45139f9cbc2e429127baa61715" target="_top" xlink:title="PHG4Hit::set_z">
<polygon fill="none" stroke="#000000" points="279.5,-.5 279.5,-20.5 370.5,-20.5 370.5,-.5 279.5,-.5"/>
<text text-anchor="middle" x="325" y="-7.5" font-family="FreeSans" font-size="10.00" fill="#000000">PHG4Hit::set_z</text>
</a>
</g>
</g>
<!-- Node1&#45;&gt;Node28 -->
<g id="edge28" class="edge">
<title>Node1&#45;&gt;Node28</title>
<path fill="none" stroke="#191970" d="M98.6373,-496.4092C109.0863,-420.1764 157.2144,-96.2712 229,-29.5 239.9164,-19.3461 254.6285,-13.9208 269.2515,-11.1755"/>
<polygon fill="#191970" stroke="#191970" points="269.9375,-14.612 279.3132,-9.6778 268.9069,-7.6883 269.9375,-14.612"/>
</g>
<!-- Node3&#45;&gt;Node4 -->
<g id="edge3" class="edge">
<title>Node3&#45;&gt;Node4</title>
<path fill="none" stroke="#191970" d="M399.701,-1034.7389C416.4173,-1033.0021 434.0478,-1031.1704 450.4321,-1029.4681"/>
<polygon fill="#191970" stroke="#191970" points="450.8686,-1032.9417 460.4534,-1028.4269 450.1452,-1025.9791 450.8686,-1032.9417"/>
</g>
<!-- Node13 -->
<g id="node13" class="node">
<title>Node13</title>
<g id="a_node13"><a xlink:href="../../df/d3f/classPHG4SteppingAction.html#af935b2f4316ea30f8d5bdc95b98a30e5" target="_top" xlink:title="PHG4SteppingAction\l::ValidCorrection">
<polygon fill="none" stroke="#000000" points="457,-621.5 457,-653.5 578,-653.5 578,-621.5 457,-621.5"/>
<text text-anchor="start" x="465" y="-640.5" font-family="FreeSans" font-size="10.00" fill="#000000">PHG4SteppingAction</text>
<text text-anchor="middle" x="517.5" y="-628.5" font-family="FreeSans" font-size="10.00" fill="#000000">::ValidCorrection</text>
</a>
</g>
</g>
<!-- Node12&#45;&gt;Node13 -->
<g id="edge13" class="edge">
<title>Node12&#45;&gt;Node13</title>
<path fill="none" stroke="#191970" d="M385.644,-637.5C405.0652,-637.5 426.738,-637.5 446.8115,-637.5"/>
<polygon fill="#191970" stroke="#191970" points="446.8303,-641.0001 456.8302,-637.5 446.8302,-634.0001 446.8303,-641.0001"/>
</g>
</g>
</svg>
