<?xml version="1.0" encoding="UTF-8" standalone="no"?>
<!DOCTYPE svg PUBLIC "-//W3C//DTD SVG 1.1//EN"
 "http://www.w3.org/Graphics/SVG/1.1/DTD/svg11.dtd">
<!-- Generated by graphviz version 2.40.1 (20161225.0304)
 -->
<!-- Title: Jetv1::get_et Pages: 1 -->
<svg width="326pt" height="146pt"
 viewBox="0.00 0.00 326.00 146.00" xmlns="http://www.w3.org/2000/svg" xmlns:xlink="http://www.w3.org/1999/xlink">
<g id="graph0" class="graph" transform="scale(1 1) rotate(0) translate(4 142)">
<title>Jetv1::get_et</title>
<!-- Node1 -->
<g id="node1" class="node">
<title>Node1</title>
<polygon fill="#bfbfbf" stroke="#000000" points="0,-78.5 0,-98.5 81,-98.5 81,-78.5 0,-78.5"/>
<text text-anchor="middle" x="40.5" y="-85.5" font-family="FreeSans" font-size="10.00" fill="#000000">Jetv1::get_et</text>
</g>
<!-- Node2 -->
<g id="node2" class="node">
<title>Node2</title>
<g id="a_node2"><a xlink:href="../../d8/d10/classJetv1.html#a6210baf42931d3f83c5d92c92bc77370" target="_top" xlink:title="Jetv1::get_e">
<polygon fill="none" stroke="#000000" points="119.5,-117.5 119.5,-137.5 196.5,-137.5 196.5,-117.5 119.5,-117.5"/>
<text text-anchor="middle" x="158" y="-124.5" font-family="FreeSans" font-size="10.00" fill="#000000">Jetv1::get_e</text>
</a>
</g>
</g>
<!-- Node1&#45;&gt;Node2 -->
<g id="edge1" class="edge">
<title>Node1&#45;&gt;Node2</title>
<path fill="none" stroke="#191970" d="M70.7592,-98.5435C85.1501,-103.32 102.5503,-109.0954 118.013,-114.2277"/>
<polygon fill="#191970" stroke="#191970" points="117.2499,-117.6621 127.8434,-117.4906 119.4551,-111.0185 117.2499,-117.6621"/>
</g>
<!-- Node3 -->
<g id="node3" class="node">
<title>Node3</title>
<g id="a_node3"><a xlink:href="../../d8/d10/classJetv1.html#afb494dc5c267c46c6b53af806f8ccdd4" target="_top" xlink:title="Jetv1::get_p">
<polygon fill="none" stroke="#000000" points="119.5,-39.5 119.5,-59.5 196.5,-59.5 196.5,-39.5 119.5,-39.5"/>
<text text-anchor="middle" x="158" y="-46.5" font-family="FreeSans" font-size="10.00" fill="#000000">Jetv1::get_p</text>
</a>
</g>
</g>
<!-- Node1&#45;&gt;Node3 -->
<g id="edge2" class="edge">
<title>Node1&#45;&gt;Node3</title>
<path fill="none" stroke="#191970" d="M70.7592,-78.4565C85.1501,-73.68 102.5503,-67.9046 118.013,-62.7723"/>
<polygon fill="#191970" stroke="#191970" points="119.4551,-65.9815 127.8434,-59.5094 117.2499,-59.3379 119.4551,-65.9815"/>
</g>
<!-- Node7 -->
<g id="node7" class="node">
<title>Node7</title>
<g id="a_node7"><a xlink:href="../../d8/d10/classJetv1.html#a9dcfc534483d137e4d85583b59727b2d" target="_top" xlink:title="Jetv1::get_pt">
<polygon fill="none" stroke="#000000" points="117,-78.5 117,-98.5 199,-98.5 199,-78.5 117,-78.5"/>
<text text-anchor="middle" x="158" y="-85.5" font-family="FreeSans" font-size="10.00" fill="#000000">Jetv1::get_pt</text>
</a>
</g>
</g>
<!-- Node1&#45;&gt;Node7 -->
<g id="edge6" class="edge">
<title>Node1&#45;&gt;Node7</title>
<path fill="none" stroke="#191970" d="M81.266,-88.5C89.4654,-88.5 98.182,-88.5 106.6873,-88.5"/>
<polygon fill="#191970" stroke="#191970" points="106.9081,-92.0001 116.9081,-88.5 106.908,-85.0001 106.9081,-92.0001"/>
</g>
<!-- Node4 -->
<g id="node4" class="node">
<title>Node4</title>
<g id="a_node4"><a xlink:href="../../d8/d10/classJetv1.html#ad8a9cf5f152b5ef8ac524c5b8a57e699" target="_top" xlink:title="Jetv1::get_px">
<polygon fill="none" stroke="#000000" points="235,-39.5 235,-59.5 318,-59.5 318,-39.5 235,-39.5"/>
<text text-anchor="middle" x="276.5" y="-46.5" font-family="FreeSans" font-size="10.00" fill="#000000">Jetv1::get_px</text>
</a>
</g>
</g>
<!-- Node3&#45;&gt;Node4 -->
<g id="edge3" class="edge">
<title>Node3&#45;&gt;Node4</title>
<path fill="none" stroke="#191970" d="M196.8013,-49.5C205.7239,-49.5 215.3516,-49.5 224.7257,-49.5"/>
<polygon fill="#191970" stroke="#191970" points="224.7526,-53.0001 234.7526,-49.5 224.7526,-46.0001 224.7526,-53.0001"/>
</g>
<!-- Node5 -->
<g id="node5" class="node">
<title>Node5</title>
<g id="a_node5"><a xlink:href="../../d8/d10/classJetv1.html#a9f0c5ba8047a21cb1f64e362c74227d1" target="_top" xlink:title="Jetv1::get_py">
<polygon fill="none" stroke="#000000" points="235,-78.5 235,-98.5 318,-98.5 318,-78.5 235,-78.5"/>
<text text-anchor="middle" x="276.5" y="-85.5" font-family="FreeSans" font-size="10.00" fill="#000000">Jetv1::get_py</text>
</a>
</g>
</g>
<!-- Node3&#45;&gt;Node5 -->
<g id="edge4" class="edge">
<title>Node3&#45;&gt;Node5</title>
<path fill="none" stroke="#191970" d="M188.5167,-59.5435C203.0301,-64.32 220.5784,-70.0954 236.1727,-75.2277"/>
<polygon fill="#191970" stroke="#191970" points="235.4937,-78.6889 246.0867,-78.4906 237.6821,-72.0397 235.4937,-78.6889"/>
</g>
<!-- Node6 -->
<g id="node6" class="node">
<title>Node6</title>
<g id="a_node6"><a xlink:href="../../d8/d10/classJetv1.html#a3f2fe391b0538c0b8f92d488b8a7e8a9" target="_top" xlink:title="Jetv1::get_pz">
<polygon fill="none" stroke="#000000" points="235,-.5 235,-20.5 318,-20.5 318,-.5 235,-.5"/>
<text text-anchor="middle" x="276.5" y="-7.5" font-family="FreeSans" font-size="10.00" fill="#000000">Jetv1::get_pz</text>
</a>
</g>
</g>
<!-- Node3&#45;&gt;Node6 -->
<g id="edge5" class="edge">
<title>Node3&#45;&gt;Node6</title>
<path fill="none" stroke="#191970" d="M188.5167,-39.4565C203.0301,-34.68 220.5784,-28.9046 236.1727,-23.7723"/>
<polygon fill="#191970" stroke="#191970" points="237.6821,-26.9603 246.0867,-20.5094 235.4937,-20.3111 237.6821,-26.9603"/>
</g>
<!-- Node7&#45;&gt;Node4 -->
<g id="edge7" class="edge">
<title>Node7&#45;&gt;Node4</title>
<path fill="none" stroke="#191970" d="M188.5167,-78.4565C203.0301,-73.68 220.5784,-67.9046 236.1727,-62.7723"/>
<polygon fill="#191970" stroke="#191970" points="237.6821,-65.9603 246.0867,-59.5094 235.4937,-59.3111 237.6821,-65.9603"/>
</g>
<!-- Node7&#45;&gt;Node5 -->
<g id="edge8" class="edge">
<title>Node7&#45;&gt;Node5</title>
<path fill="none" stroke="#191970" d="M199.113,-88.5C207.2871,-88.5 215.9709,-88.5 224.4547,-88.5"/>
<polygon fill="#191970" stroke="#191970" points="224.6562,-92.0001 234.6562,-88.5 224.6562,-85.0001 224.6562,-92.0001"/>
</g>
</g>
</svg>
