<?xml version="1.0" encoding="UTF-8" standalone="no"?>
<!DOCTYPE svg PUBLIC "-//W3C//DTD SVG 1.1//EN"
 "http://www.w3.org/Graphics/SVG/1.1/DTD/svg11.dtd">
<!-- Generated by graphviz version 2.40.1 (20161225.0304)
 -->
<!-- Title: G__Sizep2memfuncLeptoquarksReco_Dict::sizep2memfunc Pages: 1 -->
<svg width="861pt" height="53pt"
 viewBox="0.00 0.00 861.00 53.00" xmlns="http://www.w3.org/2000/svg" xmlns:xlink="http://www.w3.org/1999/xlink">
<g id="graph0" class="graph" transform="scale(1 1) rotate(0) translate(4 49)">
<title>G__Sizep2memfuncLeptoquarksReco_Dict::sizep2memfunc</title>
<!-- Node1 -->
<g id="node1" class="node">
<title>Node1</title>
<polygon fill="#bfbfbf" stroke="#000000" points="0,-6.5 0,-38.5 178,-38.5 178,-6.5 0,-6.5"/>
<text text-anchor="start" x="8" y="-25.5" font-family="FreeSans" font-size="10.00" fill="#000000">G__Sizep2memfuncLeptoquarks</text>
<text text-anchor="middle" x="89" y="-13.5" font-family="FreeSans" font-size="10.00" fill="#000000">Reco_Dict::sizep2memfunc</text>
</g>
<!-- Node2 -->
<g id="node2" class="node">
<title>Node2</title>
<g id="a_node2"><a xlink:href="../../d2/da0/LeptoquarksReco__Dict_8C.html#a44070844e4d958cb1ebe95d1b61f3d19" target="_top" xlink:title="G__get_sizep2memfuncLeptoquarks\lReco_Dict">
<polygon fill="none" stroke="#000000" points="214,-6.5 214,-38.5 413,-38.5 413,-6.5 214,-6.5"/>
<text text-anchor="start" x="222" y="-25.5" font-family="FreeSans" font-size="10.00" fill="#000000">G__get_sizep2memfuncLeptoquarks</text>
<text text-anchor="middle" x="313.5" y="-13.5" font-family="FreeSans" font-size="10.00" fill="#000000">Reco_Dict</text>
</a>
</g>
</g>
<!-- Node1&#45;&gt;Node2 -->
<g id="edge1" class="edge">
<title>Node1&#45;&gt;Node2</title>
<path fill="none" stroke="#191970" d="M188.318,-22.5C196.7865,-22.5 205.3546,-22.5 213.8258,-22.5"/>
<polygon fill="#191970" stroke="#191970" points="188.0508,-19.0001 178.0508,-22.5 188.0508,-26.0001 188.0508,-19.0001"/>
</g>
<!-- Node3 -->
<g id="node3" class="node">
<title>Node3</title>
<g id="a_node3"><a xlink:href="../../d2/da0/LeptoquarksReco__Dict_8C.html#a8e66bd053337785d44cbb926ff7d34bc" target="_top" xlink:title="G__cpp_setupLeptoquarksReco_Dict">
<polygon fill="none" stroke="#000000" points="449,-12.5 449,-32.5 647,-32.5 647,-12.5 449,-12.5"/>
<text text-anchor="middle" x="548" y="-19.5" font-family="FreeSans" font-size="10.00" fill="#000000">G__cpp_setupLeptoquarksReco_Dict</text>
</a>
</g>
</g>
<!-- Node2&#45;&gt;Node3 -->
<g id="edge2" class="edge">
<title>Node2&#45;&gt;Node3</title>
<path fill="none" stroke="#191970" d="M423.4987,-22.5C431.8986,-22.5 440.3482,-22.5 448.6744,-22.5"/>
<polygon fill="#191970" stroke="#191970" points="423.2892,-19.0001 413.2891,-22.5 423.2891,-26.0001 423.2892,-19.0001"/>
</g>
<!-- Node4 -->
<g id="node4" class="node">
<title>Node4</title>
<g id="a_node4"><a xlink:href="../../db/de5/classG____cpp__setup__initLeptoquarksReco__Dict.html#a46ecc90b5569a81407fba80ec5213956" target="_top" xlink:title="G__cpp_setup_initLeptoquarks\lReco_Dict::G__cpp_setup\l_initLeptoquarksReco_Dict">
<polygon fill="none" stroke="#000000" points="683,-.5 683,-44.5 853,-44.5 853,-.5 683,-.5"/>
<text text-anchor="start" x="691" y="-31.5" font-family="FreeSans" font-size="10.00" fill="#000000">G__cpp_setup_initLeptoquarks</text>
<text text-anchor="start" x="691" y="-19.5" font-family="FreeSans" font-size="10.00" fill="#000000">Reco_Dict::G__cpp_setup</text>
<text text-anchor="middle" x="768" y="-7.5" font-family="FreeSans" font-size="10.00" fill="#000000">_initLeptoquarksReco_Dict</text>
</a>
</g>
</g>
<!-- Node3&#45;&gt;Node4 -->
<g id="edge3" class="edge">
<title>Node3&#45;&gt;Node4</title>
<path fill="none" stroke="#191970" d="M657.1919,-22.5C665.837,-22.5 674.4888,-22.5 682.9336,-22.5"/>
<polygon fill="#191970" stroke="#191970" points="657.0591,-19.0001 647.0591,-22.5 657.059,-26.0001 657.0591,-19.0001"/>
</g>
</g>
</svg>
