<?xml version="1.0" encoding="UTF-8" standalone="no"?>
<!DOCTYPE svg PUBLIC "-//W3C//DTD SVG 1.1//EN"
 "http://www.w3.org/Graphics/SVG/1.1/DTD/svg11.dtd">
<!-- Generated by graphviz version 2.40.1 (20161225.0304)
 -->
<!-- Title: DumpPHG4InEvent::process_Node Pages: 1 -->
<svg width="384pt" height="107pt"
 viewBox="0.00 0.00 384.00 107.00" xmlns="http://www.w3.org/2000/svg" xmlns:xlink="http://www.w3.org/1999/xlink">
<g id="graph0" class="graph" transform="scale(1 1) rotate(0) translate(4 103)">
<title>DumpPHG4InEvent::process_Node</title>
<!-- Node1 -->
<g id="node1" class="node">
<title>Node1</title>
<polygon fill="#bfbfbf" stroke="#000000" points="0,-39.5 0,-59.5 190,-59.5 190,-39.5 0,-39.5"/>
<text text-anchor="middle" x="95" y="-46.5" font-family="FreeSans" font-size="10.00" fill="#000000">DumpPHG4InEvent::process_Node</text>
</g>
<!-- Node2 -->
<g id="node2" class="node">
<title>Node2</title>
<g id="a_node2"><a xlink:href="../../d1/d3e/classPHDataNode.html#a1f3b856fd3ce165047be8aa97f4ab9f3" target="_top" xlink:title="PHDataNode::getData">
<polygon fill="none" stroke="#000000" points="237.5,-78.5 237.5,-98.5 364.5,-98.5 364.5,-78.5 237.5,-78.5"/>
<text text-anchor="middle" x="301" y="-85.5" font-family="FreeSans" font-size="10.00" fill="#000000">PHDataNode::getData</text>
</a>
</g>
</g>
<!-- Node1&#45;&gt;Node2 -->
<g id="edge1" class="edge">
<title>Node1&#45;&gt;Node2</title>
<path fill="none" stroke="#191970" d="M148.0501,-59.5435C175.5629,-64.7522 209.3494,-71.1487 238.1635,-76.6038"/>
<polygon fill="#191970" stroke="#191970" points="237.6531,-80.0692 248.1297,-78.4906 238.9553,-73.1914 237.6531,-80.0692"/>
</g>
<!-- Node3 -->
<g id="node3" class="node">
<title>Node3</title>
<g id="a_node3"><a xlink:href="../../db/d62/classPHG4InEvent.html#a64ce473f416b917858b446396f7522af" target="_top" xlink:title="PHG4InEvent::GetParticles">
<polygon fill="none" stroke="#000000" points="226,-39.5 226,-59.5 376,-59.5 376,-39.5 226,-39.5"/>
<text text-anchor="middle" x="301" y="-46.5" font-family="FreeSans" font-size="10.00" fill="#000000">PHG4InEvent::GetParticles</text>
</a>
</g>
</g>
<!-- Node1&#45;&gt;Node3 -->
<g id="edge2" class="edge">
<title>Node1&#45;&gt;Node3</title>
<path fill="none" stroke="#191970" d="M190.161,-49.5C198.7051,-49.5 207.3215,-49.5 215.7733,-49.5"/>
<polygon fill="#191970" stroke="#191970" points="215.9851,-53.0001 225.985,-49.5 215.985,-46.0001 215.9851,-53.0001"/>
</g>
<!-- Node4 -->
<g id="node4" class="node">
<title>Node4</title>
<g id="a_node4"><a xlink:href="../../db/d62/classPHG4InEvent.html#a459357d91b697f1a08abee3fc0b0dcce" target="_top" xlink:title="PHG4InEvent::GetVertices">
<polygon fill="none" stroke="#000000" points="227,-.5 227,-20.5 375,-20.5 375,-.5 227,-.5"/>
<text text-anchor="middle" x="301" y="-7.5" font-family="FreeSans" font-size="10.00" fill="#000000">PHG4InEvent::GetVertices</text>
</a>
</g>
</g>
<!-- Node1&#45;&gt;Node4 -->
<g id="edge3" class="edge">
<title>Node1&#45;&gt;Node4</title>
<path fill="none" stroke="#191970" d="M148.0501,-39.4565C175.5629,-34.2478 209.3494,-27.8513 238.1635,-22.3962"/>
<polygon fill="#191970" stroke="#191970" points="238.9553,-25.8086 248.1297,-20.5094 237.6531,-18.9308 238.9553,-25.8086"/>
</g>
</g>
</svg>
