<?xml version="1.0" encoding="UTF-8" standalone="no"?>
<!DOCTYPE svg PUBLIC "-//W3C//DTD SVG 1.1//EN"
 "http://www.w3.org/Graphics/SVG/1.1/DTD/svg11.dtd">
<!-- Generated by graphviz version 2.40.1 (20161225.0304)
 -->
<!-- Title: PHTrackFitting::GetNodes Pages: 1 -->
<svg width="477pt" height="29pt"
 viewBox="0.00 0.00 477.00 29.00" xmlns="http://www.w3.org/2000/svg" xmlns:xlink="http://www.w3.org/1999/xlink">
<g id="graph0" class="graph" transform="scale(1 1) rotate(0) translate(4 25)">
<title>PHTrackFitting::GetNodes</title>
<!-- Node1 -->
<g id="node1" class="node">
<title>Node1</title>
<polygon fill="#bfbfbf" stroke="#000000" points="0,-.5 0,-20.5 144,-20.5 144,-.5 0,-.5"/>
<text text-anchor="middle" x="72" y="-7.5" font-family="FreeSans" font-size="10.00" fill="#000000">PHTrackFitting::GetNodes</text>
</g>
<!-- Node2 -->
<g id="node2" class="node">
<title>Node2</title>
<g id="a_node2"><a xlink:href="../../d3/d92/classPHTrackFitting.html#a820c3f15ed4c21dc34042b149d732e32" target="_top" xlink:title="PHTrackFitting::Setup">
<polygon fill="none" stroke="#000000" points="180,-.5 180,-20.5 304,-20.5 304,-.5 180,-.5"/>
<text text-anchor="middle" x="242" y="-7.5" font-family="FreeSans" font-size="10.00" fill="#000000">PHTrackFitting::Setup</text>
</a>
</g>
</g>
<!-- Node1&#45;&gt;Node2 -->
<g id="edge1" class="edge">
<title>Node1&#45;&gt;Node2</title>
<path fill="none" stroke="#191970" d="M154.158,-10.5C162.7632,-10.5 171.4073,-10.5 179.737,-10.5"/>
<polygon fill="#191970" stroke="#191970" points="154.0953,-7.0001 144.0953,-10.5 154.0953,-14.0001 154.0953,-7.0001"/>
</g>
<!-- Node3 -->
<g id="node3" class="node">
<title>Node3</title>
<g id="a_node3"><a xlink:href="../../d3/d92/classPHTrackFitting.html#ac5ff92e3f32bd0bed4310f9795e27fe4" target="_top" xlink:title="PHTrackFitting::InitRun">
<polygon fill="none" stroke="#000000" points="340,-.5 340,-20.5 469,-20.5 469,-.5 340,-.5"/>
<text text-anchor="middle" x="404.5" y="-7.5" font-family="FreeSans" font-size="10.00" fill="#000000">PHTrackFitting::InitRun</text>
</a>
</g>
</g>
<!-- Node2&#45;&gt;Node3 -->
<g id="edge2" class="edge">
<title>Node2&#45;&gt;Node3</title>
<path fill="none" stroke="#191970" d="M314.5645,-10.5C323.0003,-10.5 331.5626,-10.5 339.8818,-10.5"/>
<polygon fill="#191970" stroke="#191970" points="314.362,-7.0001 304.362,-10.5 314.362,-14.0001 314.362,-7.0001"/>
</g>
</g>
</svg>
