<?xml version="1.0" encoding="UTF-8" standalone="no"?>
<!DOCTYPE svg PUBLIC "-//W3C//DTD SVG 1.1//EN"
 "http://www.w3.org/Graphics/SVG/1.1/DTD/svg11.dtd">
<!-- Generated by graphviz version 2.40.1 (20161225.0304)
 -->
<!-- Title: PHRawOManager Pages: 1 -->
<svg width="335pt" height="296pt"
 viewBox="0.00 0.00 334.50 296.00" xmlns="http://www.w3.org/2000/svg" xmlns:xlink="http://www.w3.org/1999/xlink">
<g id="graph0" class="graph" transform="scale(1 1) rotate(0) translate(4 292)">
<title>PHRawOManager</title>
<!-- Node1 -->
<g id="node1" class="node">
<title>Node1</title>
<polygon fill="#bfbfbf" stroke="#000000" points="58.5,-.5 58.5,-20.5 162.5,-20.5 162.5,-.5 58.5,-.5"/>
<text text-anchor="middle" x="110.5" y="-7.5" font-family="FreeSans" font-size="10.00" fill="#000000">PHRawOManager</text>
</g>
<!-- Node2 -->
<g id="node2" class="node">
<title>Node2</title>
<g id="a_node2"><a xlink:href="../../d0/d36/classPHIOManager.html" target="_top" xlink:title="PHIOManager">
<polygon fill="none" stroke="#000000" points="24.5,-69.5 24.5,-89.5 110.5,-89.5 110.5,-69.5 24.5,-69.5"/>
<text text-anchor="middle" x="67.5" y="-76.5" font-family="FreeSans" font-size="10.00" fill="#000000">PHIOManager</text>
</a>
</g>
</g>
<!-- Node2&#45;&gt;Node1 -->
<g id="edge1" class="edge">
<title>Node2&#45;&gt;Node1</title>
<path fill="none" stroke="#191970" d="M79.194,-60.7352C87.2242,-47.8495 97.5771,-31.2368 104.1292,-20.723"/>
<polygon fill="#191970" stroke="#191970" points="76.1634,-58.9808 73.8448,-69.3188 82.1042,-62.6831 76.1634,-58.9808"/>
</g>
<!-- Node3 -->
<g id="node3" class="node">
<title>Node3</title>
<g id="a_node3"><a xlink:title="STL class.">
<polygon fill="none" stroke="#bfbfbf" points="20,-186.5 20,-206.5 87,-206.5 87,-186.5 20,-186.5"/>
<text text-anchor="middle" x="53.5" y="-193.5" font-family="FreeSans" font-size="10.00" fill="#000000">std::string</text>
</a>
</g>
</g>
<!-- Node3&#45;&gt;Node2 -->
<g id="edge2" class="edge">
<title>Node3&#45;&gt;Node2</title>
<path fill="none" stroke="#9a32cd" stroke-dasharray="5,2" d="M55.9349,-176.1508C58.9528,-150.9303 63.9781,-108.933 66.2804,-89.6926"/>
<polygon fill="#9a32cd" stroke="#9a32cd" points="52.4554,-175.772 54.7424,-186.117 59.4058,-176.6037 52.4554,-175.772"/>
<text text-anchor="middle" x="88.5" y="-135" font-family="FreeSans" font-size="10.00" fill="#000000"> filename</text>
</g>
<!-- Node4 -->
<g id="node4" class="node">
<title>Node4</title>
<g id="a_node4"><a xlink:title="STL class.">
<polygon fill="none" stroke="#bfbfbf" points="0,-255.5 0,-287.5 107,-287.5 107,-255.5 0,-255.5"/>
<text text-anchor="start" x="8" y="-274.5" font-family="FreeSans" font-size="10.00" fill="#000000">std::basic_string&lt;</text>
<text text-anchor="middle" x="53.5" y="-262.5" font-family="FreeSans" font-size="10.00" fill="#000000"> char &gt;</text>
</a>
</g>
</g>
<!-- Node4&#45;&gt;Node3 -->
<g id="edge3" class="edge">
<title>Node4&#45;&gt;Node3</title>
<path fill="none" stroke="#191970" d="M53.5,-245.1133C53.5,-231.7697 53.5,-216.3625 53.5,-206.5322"/>
<polygon fill="#191970" stroke="#191970" points="50.0001,-245.2261 53.5,-255.2261 57.0001,-245.2262 50.0001,-245.2261"/>
</g>
<!-- Node5 -->
<g id="node5" class="node">
<title>Node5</title>
<g id="a_node5"><a xlink:href="../../de/dc8/classoBuffer.html" target="_top" xlink:title="oBuffer">
<polygon fill="none" stroke="#000000" points="133.5,-69.5 133.5,-89.5 187.5,-89.5 187.5,-69.5 133.5,-69.5"/>
<text text-anchor="middle" x="160.5" y="-76.5" font-family="FreeSans" font-size="10.00" fill="#000000">oBuffer</text>
</a>
</g>
</g>
<!-- Node5&#45;&gt;Node1 -->
<g id="edge4" class="edge">
<title>Node5&#45;&gt;Node1</title>
<path fill="none" stroke="#9a32cd" stroke-dasharray="5,2" d="M147.1735,-61.1095C137.799,-48.1726 125.6006,-31.3388 117.9079,-20.723"/>
<polygon fill="#9a32cd" stroke="#9a32cd" points="144.4204,-63.275 153.1223,-69.3188 150.0887,-59.1676 144.4204,-63.275"/>
<text text-anchor="middle" x="164" y="-42" font-family="FreeSans" font-size="10.00" fill="#000000"> fileBuffer</text>
</g>
<!-- Node6 -->
<g id="node6" class="node">
<title>Node6</title>
<g id="a_node6"><a xlink:href="../../d8/d07/structoBuffer_1_1buffer__ptr.html" target="_top" xlink:title="oBuffer::buffer_ptr">
<polygon fill="none" stroke="#000000" points="105.5,-186.5 105.5,-206.5 215.5,-206.5 215.5,-186.5 105.5,-186.5"/>
<text text-anchor="middle" x="160.5" y="-193.5" font-family="FreeSans" font-size="10.00" fill="#000000">oBuffer::buffer_ptr</text>
</a>
</g>
</g>
<!-- Node6&#45;&gt;Node5 -->
<g id="edge5" class="edge">
<title>Node6&#45;&gt;Node5</title>
<path fill="none" stroke="#9a32cd" stroke-dasharray="5,2" d="M160.5,-175.8105C160.5,-150.5541 160.5,-108.8467 160.5,-89.6926"/>
<polygon fill="#9a32cd" stroke="#9a32cd" points="157.0001,-176.117 160.5,-186.117 164.0001,-176.1171 157.0001,-176.117"/>
<text text-anchor="middle" x="187.5" y="-159" font-family="FreeSans" font-size="10.00" fill="#000000"> bptr0</text>
<text text-anchor="middle" x="187.5" y="-147" font-family="FreeSans" font-size="10.00" fill="#000000">bptr1</text>
<text text-anchor="middle" x="187.5" y="-135" font-family="FreeSans" font-size="10.00" fill="#000000">bptr</text>
<text text-anchor="start" x="160.5" y="-123" font-family="FreeSans" font-size="10.00" fill="#000000">bptr_being</text>
<text text-anchor="middle" x="187.5" y="-111" font-family="FreeSans" font-size="10.00" fill="#000000">_written</text>
</g>
<!-- Node7 -->
<g id="node7" class="node">
<title>Node7</title>
<g id="a_node7"><a xlink:href="../../da/d59/classoEvent.html" target="_top" xlink:title="oEvent">
<polygon fill="none" stroke="#000000" points="233.5,-186.5 233.5,-206.5 285.5,-206.5 285.5,-186.5 233.5,-186.5"/>
<text text-anchor="middle" x="259.5" y="-193.5" font-family="FreeSans" font-size="10.00" fill="#000000">oEvent</text>
</a>
</g>
</g>
<!-- Node7&#45;&gt;Node5 -->
<g id="edge6" class="edge">
<title>Node7&#45;&gt;Node5</title>
<path fill="none" stroke="#9a32cd" stroke-dasharray="5,2" d="M254.5505,-176.7868C248.7627,-157.2183 237.4744,-127.4137 218.5,-108 210.0306,-99.3345 198.3845,-92.9081 187.7494,-88.3739"/>
<polygon fill="#9a32cd" stroke="#9a32cd" points="251.188,-177.7597 257.2139,-186.474 257.9375,-175.9039 251.188,-177.7597"/>
<text text-anchor="middle" x="289" y="-135" font-family="FreeSans" font-size="10.00" fill="#000000"> current_event</text>
</g>
<!-- Node8 -->
<g id="node8" class="node">
<title>Node8</title>
<g id="a_node8"><a xlink:href="../../db/d81/structevt__data.html" target="_top" xlink:title="evt_data">
<polygon fill="none" stroke="#000000" points="230,-261.5 230,-281.5 289,-281.5 289,-261.5 230,-261.5"/>
<text text-anchor="middle" x="259.5" y="-268.5" font-family="FreeSans" font-size="10.00" fill="#000000">evt_data</text>
</a>
</g>
</g>
<!-- Node8&#45;&gt;Node7 -->
<g id="edge7" class="edge">
<title>Node8&#45;&gt;Node7</title>
<path fill="none" stroke="#9a32cd" stroke-dasharray="5,2" d="M259.5,-251.0481C259.5,-236.77 259.5,-218.303 259.5,-206.9358"/>
<polygon fill="#9a32cd" stroke="#9a32cd" points="256.0001,-251.3851 259.5,-261.3852 263.0001,-251.3852 256.0001,-251.3851"/>
<text text-anchor="middle" x="278.5" y="-228" font-family="FreeSans" font-size="10.00" fill="#000000"> evthdr</text>
</g>
</g>
</svg>
