<?xml version="1.0" encoding="UTF-8" standalone="no"?>
<!DOCTYPE svg PUBLIC "-//W3C//DTD SVG 1.1//EN"
 "http://www.w3.org/Graphics/SVG/1.1/DTD/svg11.dtd">
<!-- Generated by graphviz version 2.40.1 (20161225.0304)
 -->
<!-- Title: PHG4GDMLUtility::GetOrMakeConfigNode Pages: 1 -->
<svg width="496pt" height="68pt"
 viewBox="0.00 0.00 496.00 68.00" xmlns="http://www.w3.org/2000/svg" xmlns:xlink="http://www.w3.org/1999/xlink">
<g id="graph0" class="graph" transform="scale(1 1) rotate(0) translate(4 64)">
<title>PHG4GDMLUtility::GetOrMakeConfigNode</title>
<!-- Node1 -->
<g id="node1" class="node">
<title>Node1</title>
<polygon fill="#bfbfbf" stroke="#000000" points="0,-13.5 0,-45.5 166,-45.5 166,-13.5 0,-13.5"/>
<text text-anchor="start" x="8" y="-32.5" font-family="FreeSans" font-size="10.00" fill="#000000">PHG4GDMLUtility::GetOrMake</text>
<text text-anchor="middle" x="83" y="-20.5" font-family="FreeSans" font-size="10.00" fill="#000000">ConfigNode</text>
</g>
<!-- Node2 -->
<g id="node2" class="node">
<title>Node2</title>
<g id="a_node2"><a xlink:href="../../d5/d07/classPHNodeIterator.html#aea98bf8619af59b1212a94fb32106baa" target="_top" xlink:title="PHNodeIterator::findFirst">
<polygon fill="none" stroke="#000000" points="202,-19.5 202,-39.5 343,-39.5 343,-19.5 202,-19.5"/>
<text text-anchor="middle" x="272.5" y="-26.5" font-family="FreeSans" font-size="10.00" fill="#000000">PHNodeIterator::findFirst</text>
</a>
</g>
</g>
<!-- Node1&#45;&gt;Node2 -->
<g id="edge1" class="edge">
<title>Node1&#45;&gt;Node2</title>
<path fill="none" stroke="#191970" d="M166.1175,-29.5C174.6014,-29.5 183.2117,-29.5 191.6707,-29.5"/>
<polygon fill="#191970" stroke="#191970" points="191.8951,-33.0001 201.8951,-29.5 191.8951,-26.0001 191.8951,-33.0001"/>
</g>
<!-- Node2&#45;&gt;Node2 -->
<g id="edge4" class="edge">
<title>Node2&#45;&gt;Node2</title>
<path fill="none" stroke="#191970" d="M247.4512,-39.7271C236.0254,-48.6067 244.375,-58 272.5,-58 290.957,-58 300.8975,-53.9546 302.3214,-48.6639"/>
<polygon fill="#191970" stroke="#191970" points="305.347,-46.8992 297.5488,-39.7271 299.1723,-50.1968 305.347,-46.8992"/>
</g>
<!-- Node3 -->
<g id="node3" class="node">
<title>Node3</title>
<g id="a_node3"><a xlink:href="../../dc/d82/classPHNode.html#a4ab1f90aed955a652813bfe377087bda" target="_top" xlink:title="PHNode::getType">
<polygon fill="none" stroke="#000000" points="382,-39.5 382,-59.5 485,-59.5 485,-39.5 382,-39.5"/>
<text text-anchor="middle" x="433.5" y="-46.5" font-family="FreeSans" font-size="10.00" fill="#000000">PHNode::getType</text>
</a>
</g>
</g>
<!-- Node2&#45;&gt;Node3 -->
<g id="edge2" class="edge">
<title>Node2&#45;&gt;Node3</title>
<path fill="none" stroke="#191970" d="M343.1169,-38.2723C352.6722,-39.4593 362.4161,-40.6697 371.799,-41.8353"/>
<polygon fill="#191970" stroke="#191970" points="371.4576,-45.3197 381.8128,-43.0792 372.3206,-38.3731 371.4576,-45.3197"/>
</g>
<!-- Node4 -->
<g id="node4" class="node">
<title>Node4</title>
<g id="a_node4"><a xlink:href="../../dc/d82/classPHNode.html#aca3576f926a4401eddc3d88bf0ce0de3" target="_top" xlink:title="PHNode::getName">
<polygon fill="none" stroke="#000000" points="379,-.5 379,-20.5 488,-20.5 488,-.5 379,-.5"/>
<text text-anchor="middle" x="433.5" y="-7.5" font-family="FreeSans" font-size="10.00" fill="#000000">PHNode::getName</text>
</a>
</g>
</g>
<!-- Node2&#45;&gt;Node4 -->
<g id="edge3" class="edge">
<title>Node2&#45;&gt;Node4</title>
<path fill="none" stroke="#191970" d="M343.1169,-21.1663C351.6464,-20.1597 360.3262,-19.1354 368.7654,-18.1395"/>
<polygon fill="#191970" stroke="#191970" points="369.3929,-21.5898 378.9138,-16.9419 368.5725,-14.638 369.3929,-21.5898"/>
</g>
</g>
</svg>
