<?xml version="1.0" encoding="UTF-8" standalone="no"?>
<!DOCTYPE svg PUBLIC "-//W3C//DTD SVG 1.1//EN"
 "http://www.w3.org/Graphics/SVG/1.1/DTD/svg11.dtd">
<!-- Generated by graphviz version 2.40.1 (20161225.0304)
 -->
<!-- Title: makeFrameHdr Pages: 1 -->
<svg width="699pt" height="107pt"
 viewBox="0.00 0.00 699.00 107.00" xmlns="http://www.w3.org/2000/svg" xmlns:xlink="http://www.w3.org/1999/xlink">
<g id="graph0" class="graph" transform="scale(1 1) rotate(0) translate(4 103)">
<title>makeFrameHdr</title>
<!-- Node1 -->
<g id="node1" class="node">
<title>Node1</title>
<polygon fill="#bfbfbf" stroke="#000000" points="0,-39.5 0,-59.5 94,-59.5 94,-39.5 0,-39.5"/>
<text text-anchor="middle" x="47" y="-46.5" font-family="FreeSans" font-size="10.00" fill="#000000">makeFrameHdr</text>
</g>
<!-- Node2 -->
<g id="node2" class="node">
<title>Node2</title>
<g id="a_node2"><a xlink:href="../../da/d59/classoEvent.html#aa7f323a03b69c015d1b15083a41df6c2" target="_top" xlink:title="oEvent::addPacket">
<polygon fill="none" stroke="#000000" points="162.5,-78.5 162.5,-98.5 273.5,-98.5 273.5,-78.5 162.5,-78.5"/>
<text text-anchor="middle" x="218" y="-85.5" font-family="FreeSans" font-size="10.00" fill="#000000">oEvent::addPacket</text>
</a>
</g>
</g>
<!-- Node1&#45;&gt;Node2 -->
<g id="edge1" class="edge">
<title>Node1&#45;&gt;Node2</title>
<path fill="none" stroke="#191970" d="M97.876,-61.9618C108.4812,-64.5026 119.5971,-67.124 130,-69.5 143.1042,-72.493 157.3351,-75.6193 170.457,-78.4516"/>
<polygon fill="#191970" stroke="#191970" points="98.4461,-58.4991 87.9046,-59.5611 96.8075,-65.3047 98.4461,-58.4991"/>
</g>
<!-- Node4 -->
<g id="node4" class="node">
<title>Node4</title>
<g id="a_node4"><a xlink:href="../../da/d59/classoEvent.html#a5e0a819b25ded38741cc78c0b84c47e1" target="_top" xlink:title="oEvent::addUnstructPacketData">
<polygon fill="none" stroke="#000000" points="130,-39.5 130,-59.5 306,-59.5 306,-39.5 130,-39.5"/>
<text text-anchor="middle" x="218" y="-46.5" font-family="FreeSans" font-size="10.00" fill="#000000">oEvent::addUnstructPacketData</text>
</a>
</g>
</g>
<!-- Node1&#45;&gt;Node4 -->
<g id="edge3" class="edge">
<title>Node1&#45;&gt;Node4</title>
<path fill="none" stroke="#191970" d="M104.3922,-49.5C112.6423,-49.5 121.2853,-49.5 129.9632,-49.5"/>
<polygon fill="#191970" stroke="#191970" points="104.1792,-46.0001 94.1792,-49.5 104.1791,-53.0001 104.1792,-46.0001"/>
</g>
<!-- Node7 -->
<g id="node7" class="node">
<title>Node7</title>
<g id="a_node7"><a xlink:href="../../df/d06/fakeFrame_8C.html#a747f31be4098f000504011767116e41c" target="_top" xlink:title="fakeFrame">
<polygon fill="none" stroke="#000000" points="183.5,-.5 183.5,-20.5 252.5,-20.5 252.5,-.5 183.5,-.5"/>
<text text-anchor="middle" x="218" y="-7.5" font-family="FreeSans" font-size="10.00" fill="#000000">fakeFrame</text>
</a>
</g>
</g>
<!-- Node1&#45;&gt;Node7 -->
<g id="edge6" class="edge">
<title>Node1&#45;&gt;Node7</title>
<path fill="none" stroke="#191970" d="M100.8812,-37.1529C110.5745,-34.9353 120.587,-32.6471 130,-30.5 147.5663,-26.4932 167.1086,-22.0503 183.3067,-18.3717"/>
<polygon fill="#191970" stroke="#191970" points="99.9009,-33.7866 90.9338,-39.4294 101.4626,-40.6102 99.9009,-33.7866"/>
</g>
<!-- Node3 -->
<g id="node3" class="node">
<title>Node3</title>
<g id="a_node3"><a xlink:href="../../de/dc8/classoBuffer.html#a4ab9ff9a6d7ad971194aaa092759cc0b" target="_top" xlink:title="oBuffer::addPacket">
<polygon fill="none" stroke="#000000" points="375,-78.5 375,-98.5 487,-98.5 487,-78.5 375,-78.5"/>
<text text-anchor="middle" x="431" y="-85.5" font-family="FreeSans" font-size="10.00" fill="#000000">oBuffer::addPacket</text>
</a>
</g>
</g>
<!-- Node2&#45;&gt;Node3 -->
<g id="edge2" class="edge">
<title>Node2&#45;&gt;Node3</title>
<path fill="none" stroke="#191970" d="M283.7879,-88.5C312.9662,-88.5 346.9442,-88.5 374.9002,-88.5"/>
<polygon fill="#191970" stroke="#191970" points="283.6851,-85.0001 273.685,-88.5 283.685,-92.0001 283.6851,-85.0001"/>
</g>
<!-- Node5 -->
<g id="node5" class="node">
<title>Node5</title>
<g id="a_node5"><a xlink:href="../../de/dc8/classoBuffer.html#ac574c2c3e93c114ac6934e45fa7f9b7f" target="_top" xlink:title="oBuffer::addUnstructPacketData">
<polygon fill="none" stroke="#000000" points="342,-39.5 342,-59.5 520,-59.5 520,-39.5 342,-39.5"/>
<text text-anchor="middle" x="431" y="-46.5" font-family="FreeSans" font-size="10.00" fill="#000000">oBuffer::addUnstructPacketData</text>
</a>
</g>
</g>
<!-- Node4&#45;&gt;Node5 -->
<g id="edge4" class="edge">
<title>Node4&#45;&gt;Node5</title>
<path fill="none" stroke="#191970" d="M316.179,-49.5C324.7425,-49.5 333.3781,-49.5 341.8626,-49.5"/>
<polygon fill="#191970" stroke="#191970" points="316.1728,-46.0001 306.1728,-49.5 316.1728,-53.0001 316.1728,-46.0001"/>
</g>
<!-- Node6 -->
<g id="node6" class="node">
<title>Node6</title>
<g id="a_node6"><a xlink:href="../../df/d36/classPHRawOManager.html#aa67d8808f730acc0b88554b5ce09e3bc" target="_top" xlink:title="PHRawOManager::write">
<polygon fill="none" stroke="#000000" points="556,-39.5 556,-59.5 691,-59.5 691,-39.5 556,-39.5"/>
<text text-anchor="middle" x="623.5" y="-46.5" font-family="FreeSans" font-size="10.00" fill="#000000">PHRawOManager::write</text>
</a>
</g>
</g>
<!-- Node5&#45;&gt;Node6 -->
<g id="edge5" class="edge">
<title>Node5&#45;&gt;Node6</title>
<path fill="none" stroke="#191970" d="M530.3479,-49.5C538.9885,-49.5 547.5958,-49.5 555.8908,-49.5"/>
<polygon fill="#191970" stroke="#191970" points="530.2061,-46.0001 520.206,-49.5 530.206,-53.0001 530.2061,-46.0001"/>
</g>
</g>
</svg>
