<?xml version="1.0" encoding="UTF-8" standalone="no"?>
<!DOCTYPE svg PUBLIC "-//W3C//DTD SVG 1.1//EN"
 "http://www.w3.org/Graphics/SVG/1.1/DTD/svg11.dtd">
<!-- Generated by graphviz version 2.40.1 (20161225.0304)
 -->
<!-- Title: set_week_number_mon Pages: 1 -->
<svg width="354pt" height="29pt"
 viewBox="0.00 0.00 354.00 29.00" xmlns="http://www.w3.org/2000/svg" xmlns:xlink="http://www.w3.org/1999/xlink">
<g id="graph0" class="graph" transform="scale(1 1) rotate(0) translate(4 25)">
<title>set_week_number_mon</title>
<!-- Node1 -->
<g id="node1" class="node">
<title>Node1</title>
<polygon fill="#bfbfbf" stroke="#000000" points="0,-.5 0,-20.5 135,-20.5 135,-.5 0,-.5"/>
<text text-anchor="middle" x="67.5" y="-7.5" font-family="FreeSans" font-size="10.00" fill="#000000">set_week_number_mon</text>
</g>
<!-- Node2 -->
<g id="node2" class="node">
<title>Node2</title>
<g id="a_node2"><a xlink:href="../../d7/db7/strptime_8cc.html#afb9f4ca6cdc21552f1147569e1ef3705" target="_top" xlink:title="first_day">
<polygon fill="none" stroke="#000000" points="171,-.5 171,-20.5 231,-20.5 231,-.5 171,-.5"/>
<text text-anchor="middle" x="201" y="-7.5" font-family="FreeSans" font-size="10.00" fill="#000000">first_day</text>
</a>
</g>
</g>
<!-- Node1&#45;&gt;Node2 -->
<g id="edge1" class="edge">
<title>Node1&#45;&gt;Node2</title>
<path fill="none" stroke="#191970" d="M135.0322,-10.5C143.7559,-10.5 152.4618,-10.5 160.5537,-10.5"/>
<polygon fill="#191970" stroke="#191970" points="160.7876,-14.0001 170.7876,-10.5 160.7876,-7.0001 160.7876,-14.0001"/>
</g>
<!-- Node3 -->
<g id="node3" class="node">
<title>Node3</title>
<g id="a_node3"><a xlink:href="../../d7/db7/strptime_8cc.html#aad852927826adf854e0a78d8792436ce" target="_top" xlink:title="is_leap_year">
<polygon fill="none" stroke="#000000" points="267,-.5 267,-20.5 346,-20.5 346,-.5 267,-.5"/>
<text text-anchor="middle" x="306.5" y="-7.5" font-family="FreeSans" font-size="10.00" fill="#000000">is_leap_year</text>
</a>
</g>
</g>
<!-- Node2&#45;&gt;Node3 -->
<g id="edge2" class="edge">
<title>Node2&#45;&gt;Node3</title>
<path fill="none" stroke="#191970" d="M231.2321,-10.5C239.1971,-10.5 248.0053,-10.5 256.706,-10.5"/>
<polygon fill="#191970" stroke="#191970" points="256.8135,-14.0001 266.8134,-10.5 256.8134,-7.0001 256.8135,-14.0001"/>
</g>
</g>
</svg>
