<?xml version="1.0" encoding="UTF-8" standalone="no"?>
<!DOCTYPE svg PUBLIC "-//W3C//DTD SVG 1.1//EN"
 "http://www.w3.org/Graphics/SVG/1.1/DTD/svg11.dtd">
<!-- Generated by graphviz version 2.40.1 (20161225.0304)
 -->
<!-- Title: set_week_number_mon4 Pages: 1 -->
<svg width="360pt" height="68pt"
 viewBox="0.00 0.00 360.00 68.00" xmlns="http://www.w3.org/2000/svg" xmlns:xlink="http://www.w3.org/1999/xlink">
<g id="graph0" class="graph" transform="scale(1 1) rotate(0) translate(4 64)">
<title>set_week_number_mon4</title>
<!-- Node1 -->
<g id="node1" class="node">
<title>Node1</title>
<polygon fill="#bfbfbf" stroke="#000000" points="0,-19.5 0,-39.5 141,-39.5 141,-19.5 0,-19.5"/>
<text text-anchor="middle" x="70.5" y="-26.5" font-family="FreeSans" font-size="10.00" fill="#000000">set_week_number_mon4</text>
</g>
<!-- Node2 -->
<g id="node2" class="node">
<title>Node2</title>
<g id="a_node2"><a xlink:href="../../d7/db7/strptime_8cc.html#afb9f4ca6cdc21552f1147569e1ef3705" target="_top" xlink:title="first_day">
<polygon fill="none" stroke="#000000" points="177,-39.5 177,-59.5 237,-59.5 237,-39.5 177,-39.5"/>
<text text-anchor="middle" x="207" y="-46.5" font-family="FreeSans" font-size="10.00" fill="#000000">first_day</text>
</a>
</g>
</g>
<!-- Node1&#45;&gt;Node2 -->
<g id="edge1" class="edge">
<title>Node1&#45;&gt;Node2</title>
<path fill="none" stroke="#191970" d="M139.1499,-39.5586C148.6933,-40.9569 158.2263,-42.3537 167.0025,-43.6396"/>
<polygon fill="#191970" stroke="#191970" points="166.5107,-47.1048 176.9125,-45.0916 167.5256,-40.1787 166.5107,-47.1048"/>
</g>
<!-- Node4 -->
<g id="node4" class="node">
<title>Node4</title>
<g id="a_node4"><a xlink:href="../../db/d30/TPCRateData_8m.html#a2ae3b94a32881ed5840bebb9dd7954d2" target="_top" xlink:title="if">
<polygon fill="none" stroke="#000000" points="192.5,-.5 192.5,-20.5 221.5,-20.5 221.5,-.5 192.5,-.5"/>
<text text-anchor="middle" x="207" y="-7.5" font-family="FreeSans" font-size="10.00" fill="#000000">if</text>
</a>
</g>
</g>
<!-- Node1&#45;&gt;Node4 -->
<g id="edge3" class="edge">
<title>Node1&#45;&gt;Node4</title>
<path fill="none" stroke="#191970" d="M141.149,-19.6661C155.8397,-17.6212 170.382,-15.597 182.0488,-13.9731"/>
<polygon fill="#191970" stroke="#191970" points="182.8425,-17.3964 192.2644,-12.5511 181.8774,-10.4633 182.8425,-17.3964"/>
</g>
<!-- Node3 -->
<g id="node3" class="node">
<title>Node3</title>
<g id="a_node3"><a xlink:href="../../d7/db7/strptime_8cc.html#aad852927826adf854e0a78d8792436ce" target="_top" xlink:title="is_leap_year">
<polygon fill="none" stroke="#000000" points="273,-39.5 273,-59.5 352,-59.5 352,-39.5 273,-39.5"/>
<text text-anchor="middle" x="312.5" y="-46.5" font-family="FreeSans" font-size="10.00" fill="#000000">is_leap_year</text>
</a>
</g>
</g>
<!-- Node2&#45;&gt;Node3 -->
<g id="edge2" class="edge">
<title>Node2&#45;&gt;Node3</title>
<path fill="none" stroke="#191970" d="M237.2321,-49.5C245.1971,-49.5 254.0053,-49.5 262.706,-49.5"/>
<polygon fill="#191970" stroke="#191970" points="262.8135,-53.0001 272.8134,-49.5 262.8134,-46.0001 262.8135,-53.0001"/>
</g>
</g>
</svg>
