<?xml version="1.0" encoding="UTF-8" standalone="no"?>
<!DOCTYPE svg PUBLIC "-//W3C//DTD SVG 1.1//EN"
 "http://www.w3.org/Graphics/SVG/1.1/DTD/svg11.dtd">
<!-- Generated by graphviz version 2.40.1 (20161225.0304)
 -->
<!-- Title: PHG4mRICHSteppingAction::UserSteppingAction Pages: 1 -->
<svg width="502pt" height="755pt"
 viewBox="0.00 0.00 502.00 755.00" xmlns="http://www.w3.org/2000/svg" xmlns:xlink="http://www.w3.org/1999/xlink">
<g id="graph0" class="graph" transform="scale(1 1) rotate(0) translate(4 751)">
<title>PHG4mRICHSteppingAction::UserSteppingAction</title>
<!-- Node1 -->
<g id="node1" class="node">
<title>Node1</title>
<polygon fill="#bfbfbf" stroke="#000000" points="0,-345.5 0,-377.5 155,-377.5 155,-345.5 0,-345.5"/>
<text text-anchor="start" x="8" y="-364.5" font-family="FreeSans" font-size="10.00" fill="#000000">PHG4mRICHSteppingAction</text>
<text text-anchor="middle" x="77.5" y="-352.5" font-family="FreeSans" font-size="10.00" fill="#000000">::UserSteppingAction</text>
</g>
<!-- Node2 -->
<g id="node2" class="node">
<title>Node2</title>
<g id="a_node2"><a xlink:href="../../db/d88/classPHG4Shower.html#aff36d66ca2bfafcb3528d98960fb89c4" target="_top" xlink:title="PHG4Shower::add_g4hit_id">
<polygon fill="none" stroke="#000000" points="191,-726.5 191,-746.5 344,-746.5 344,-726.5 191,-726.5"/>
<text text-anchor="middle" x="267.5" y="-733.5" font-family="FreeSans" font-size="10.00" fill="#000000">PHG4Shower::add_g4hit_id</text>
</a>
</g>
</g>
<!-- Node1&#45;&gt;Node2 -->
<g id="edge1" class="edge">
<title>Node1&#45;&gt;Node2</title>
<path fill="none" stroke="#191970" d="M80.5128,-377.7458C92.5312,-440.8638 138.9248,-668.7137 191,-717.5 192.3045,-718.7221 193.6751,-719.869 195.1016,-720.9452"/>
<polygon fill="#191970" stroke="#191970" points="193.4728,-724.0539 203.8122,-726.3661 197.1714,-718.1108 193.4728,-724.0539"/>
</g>
<!-- Node3 -->
<g id="node3" class="node">
<title>Node3</title>
<g id="a_node3"><a xlink:href="../../d4/d30/classPHG4HitContainer.html#a4df3ca68ecff69c9d7976b84fcc82e93" target="_top" xlink:title="PHG4HitContainer::AddHit">
<polygon fill="none" stroke="#000000" points="193,-687.5 193,-707.5 342,-707.5 342,-687.5 193,-687.5"/>
<text text-anchor="middle" x="267.5" y="-694.5" font-family="FreeSans" font-size="10.00" fill="#000000">PHG4HitContainer::AddHit</text>
</a>
</g>
</g>
<!-- Node1&#45;&gt;Node3 -->
<g id="edge2" class="edge">
<title>Node1&#45;&gt;Node3</title>
<path fill="none" stroke="#191970" d="M78.5801,-377.6743C82.8542,-428.6206 102.9704,-587.4201 191,-672.5 195.3123,-676.6678 200.3291,-680.1408 205.6929,-683.0349"/>
<polygon fill="#191970" stroke="#191970" points="204.4431,-686.3142 214.9843,-687.3792 207.408,-679.973 204.4431,-686.3142"/>
</g>
<!-- Node4 -->
<g id="node4" class="node">
<title>Node4</title>
<g id="a_node4"><a xlink:href="../../d3/d9e/classPHG4Hit.html#acea6b2f3763d899e4de3765b9b5c6e51" target="_top" xlink:title="PHG4Hit::get_hit_id">
<polygon fill="none" stroke="#000000" points="380,-667.5 380,-687.5 494,-687.5 494,-667.5 380,-667.5"/>
<text text-anchor="middle" x="437" y="-674.5" font-family="FreeSans" font-size="10.00" fill="#000000">PHG4Hit::get_hit_id</text>
</a>
</g>
</g>
<!-- Node1&#45;&gt;Node4 -->
<g id="edge6" class="edge">
<title>Node1&#45;&gt;Node4</title>
<path fill="none" stroke="#191970" d="M78.7512,-377.5873C83.4418,-425.9983 104.4556,-571.1854 191,-639.5 217.9906,-660.8053 306.4885,-670.3068 369.5922,-674.4467"/>
<polygon fill="#191970" stroke="#191970" points="369.6812,-677.959 379.88,-675.0894 370.1177,-670.9726 369.6812,-677.959"/>
</g>
<!-- Node5 -->
<g id="node5" class="node">
<title>Node5</title>
<g id="a_node5"><a xlink:href="../../d3/d9e/classPHG4Hit.html#a299edb9d0b140d0456f8bfecdf9cac56" target="_top" xlink:title="PHG4Hit::get_edep">
<polygon fill="none" stroke="#000000" points="211.5,-609.5 211.5,-629.5 323.5,-629.5 323.5,-609.5 211.5,-609.5"/>
<text text-anchor="middle" x="267.5" y="-616.5" font-family="FreeSans" font-size="10.00" fill="#000000">PHG4Hit::get_edep</text>
</a>
</g>
</g>
<!-- Node1&#45;&gt;Node5 -->
<g id="edge4" class="edge">
<title>Node1&#45;&gt;Node5</title>
<path fill="none" stroke="#191970" d="M80.2926,-377.801C88.6127,-421.1949 117.3915,-540.3108 191,-600.5 194.3371,-603.2287 198.0112,-605.5736 201.8889,-607.5878"/>
<polygon fill="#191970" stroke="#191970" points="200.6812,-610.8804 211.2433,-611.7123 203.5054,-604.4753 200.6812,-610.8804"/>
</g>
<!-- Node6 -->
<g id="node6" class="node">
<title>Node6</title>
<g id="a_node6"><a xlink:href="../../d3/d9e/classPHG4Hit.html#ab8db2cb7bc978a58777600b2bd7a22ac" target="_top" xlink:title="PHG4Hit::get_eion">
<polygon fill="none" stroke="#000000" points="213.5,-570.5 213.5,-590.5 321.5,-590.5 321.5,-570.5 213.5,-570.5"/>
<text text-anchor="middle" x="267.5" y="-577.5" font-family="FreeSans" font-size="10.00" fill="#000000">PHG4Hit::get_eion</text>
</a>
</g>
</g>
<!-- Node1&#45;&gt;Node6 -->
<g id="edge5" class="edge">
<title>Node1&#45;&gt;Node6</title>
<path fill="none" stroke="#191970" d="M81.8604,-377.6514C93.0621,-415.9351 126.5925,-512.6358 191,-561.5 194.8839,-564.4466 199.1683,-566.9411 203.6666,-569.0522"/>
<polygon fill="#191970" stroke="#191970" points="202.5568,-572.3784 213.1403,-572.8691 205.1727,-565.8856 202.5568,-572.3784"/>
</g>
<!-- Node7 -->
<g id="node7" class="node">
<title>Node7</title>
<g id="a_node7"><a xlink:href="../../d3/d9e/classPHG4Hit.html#a69cc7aee827e3da7cf86e87418f9211b" target="_top" xlink:title="PHG4Hit::get_x">
<polygon fill="none" stroke="#000000" points="221,-531.5 221,-551.5 314,-551.5 314,-531.5 221,-531.5"/>
<text text-anchor="middle" x="267.5" y="-538.5" font-family="FreeSans" font-size="10.00" fill="#000000">PHG4Hit::get_x</text>
</a>
</g>
</g>
<!-- Node1&#45;&gt;Node7 -->
<g id="edge7" class="edge">
<title>Node1&#45;&gt;Node7</title>
<path fill="none" stroke="#191970" d="M84.1655,-377.6484C98.5378,-410.3812 135.6814,-484.6471 191,-522.5 197.0563,-526.6442 203.9321,-529.8858 211.0183,-532.4213"/>
<polygon fill="#191970" stroke="#191970" points="210.1658,-535.8217 220.7545,-535.4594 212.251,-529.1394 210.1658,-535.8217"/>
</g>
<!-- Node8 -->
<g id="node8" class="node">
<title>Node8</title>
<g id="a_node8"><a xlink:href="../../d4/d30/classPHG4HitContainer.html#a5073671e6d35969dc3d421e2278229af" target="_top" xlink:title="PHG4HitContainer::GetID">
<polygon fill="none" stroke="#000000" points="196,-492.5 196,-512.5 339,-512.5 339,-492.5 196,-492.5"/>
<text text-anchor="middle" x="267.5" y="-499.5" font-family="FreeSans" font-size="10.00" fill="#000000">PHG4HitContainer::GetID</text>
</a>
</g>
</g>
<!-- Node1&#45;&gt;Node8 -->
<g id="edge8" class="edge">
<title>Node1&#45;&gt;Node8</title>
<path fill="none" stroke="#191970" d="M87.9191,-377.7496C105.7315,-404.1587 144.6408,-456.1841 191,-483.5 194.2571,-485.4191 197.702,-487.1453 201.2563,-488.6979"/>
<polygon fill="#191970" stroke="#191970" points="200.2772,-492.0718 210.8665,-492.4152 202.8026,-485.5432 200.2772,-492.0718"/>
</g>
<!-- Node9 -->
<g id="node9" class="node">
<title>Node9</title>
<g id="a_node9"><a xlink:href="../../df/d3f/classPHG4SteppingAction.html#a88ff50956245a2b72d459bad2004e1ca" target="_top" xlink:title="PHG4SteppingAction\l::GetName">
<polygon fill="none" stroke="#000000" points="207,-441.5 207,-473.5 328,-473.5 328,-441.5 207,-441.5"/>
<text text-anchor="start" x="215" y="-460.5" font-family="FreeSans" font-size="10.00" fill="#000000">PHG4SteppingAction</text>
<text text-anchor="middle" x="267.5" y="-448.5" font-family="FreeSans" font-size="10.00" fill="#000000">::GetName</text>
</a>
</g>
</g>
<!-- Node1&#45;&gt;Node9 -->
<g id="edge9" class="edge">
<title>Node1&#45;&gt;Node9</title>
<path fill="none" stroke="#191970" d="M99.6183,-377.613C121.8478,-393.2478 157.5237,-416.8452 191,-432.5 195.0245,-434.382 199.2294,-436.1822 203.5079,-437.8918"/>
<polygon fill="#191970" stroke="#191970" points="202.3593,-441.1996 212.9502,-441.4865 204.8499,-434.6576 202.3593,-441.1996"/>
</g>
<!-- Node10 -->
<g id="node10" class="node">
<title>Node10</title>
<g id="a_node10"><a xlink:href="../../d9/deb/classPHG4mRICHDetector.html#aabef84c08d16a433cf4f6bfd5417cb26" target="_top" xlink:title="PHG4mRICHDetector::\lIsInmRICH">
<polygon fill="none" stroke="#000000" points="203.5,-390.5 203.5,-422.5 331.5,-422.5 331.5,-390.5 203.5,-390.5"/>
<text text-anchor="start" x="211.5" y="-409.5" font-family="FreeSans" font-size="10.00" fill="#000000">PHG4mRICHDetector::</text>
<text text-anchor="middle" x="267.5" y="-397.5" font-family="FreeSans" font-size="10.00" fill="#000000">IsInmRICH</text>
</a>
</g>
</g>
<!-- Node1&#45;&gt;Node10 -->
<g id="edge10" class="edge">
<title>Node1&#45;&gt;Node10</title>
<path fill="none" stroke="#191970" d="M145.2897,-377.5555C160.9109,-381.2552 177.6042,-385.2089 193.4753,-388.9678"/>
<polygon fill="#191970" stroke="#191970" points="192.6967,-392.3802 203.2342,-391.2791 194.31,-385.5686 192.6967,-392.3802"/>
</g>
<!-- Node11 -->
<g id="node11" class="node">
<title>Node11</title>
<g id="a_node11"><a xlink:href="../../d3/d9e/classPHG4Hit.html#a73b21baa3e6de2ae4c8101ca5293a9ed" target="_top" xlink:title="Clear Event.">
<polygon fill="none" stroke="#000000" points="220.5,-351.5 220.5,-371.5 314.5,-371.5 314.5,-351.5 220.5,-351.5"/>
<text text-anchor="middle" x="267.5" y="-358.5" font-family="FreeSans" font-size="10.00" fill="#000000">PHG4Hit::Reset</text>
</a>
</g>
</g>
<!-- Node1&#45;&gt;Node11 -->
<g id="edge11" class="edge">
<title>Node1&#45;&gt;Node11</title>
<path fill="none" stroke="#191970" d="M155.0543,-361.5C173.4089,-361.5 192.6633,-361.5 209.9484,-361.5"/>
<polygon fill="#191970" stroke="#191970" points="210.4308,-365.0001 220.4308,-361.5 210.4307,-358.0001 210.4308,-365.0001"/>
</g>
<!-- Node12 -->
<g id="node12" class="node">
<title>Node12</title>
<g id="a_node12"><a xlink:href="../../d3/d9e/classPHG4Hit.html#ad97bbe7fcf81822a93654afe0e540143" target="_top" xlink:title="PHG4Hit::set_edep">
<polygon fill="none" stroke="#000000" points="212,-312.5 212,-332.5 323,-332.5 323,-312.5 212,-312.5"/>
<text text-anchor="middle" x="267.5" y="-319.5" font-family="FreeSans" font-size="10.00" fill="#000000">PHG4Hit::set_edep</text>
</a>
</g>
</g>
<!-- Node1&#45;&gt;Node12 -->
<g id="edge12" class="edge">
<title>Node1&#45;&gt;Node12</title>
<path fill="none" stroke="#191970" d="M155.0543,-345.581C173.0674,-341.8835 191.9471,-338.0082 208.9816,-334.5117"/>
<polygon fill="#191970" stroke="#191970" points="209.6855,-337.9402 218.7775,-332.5009 208.278,-331.0832 209.6855,-337.9402"/>
</g>
<!-- Node13 -->
<g id="node13" class="node">
<title>Node13</title>
<g id="a_node13"><a xlink:href="../../d3/d9e/classPHG4Hit.html#a65d6d5bfd2a9e6fe2392fc57ac6c57d0" target="_top" xlink:title="PHG4Hit::set_eion">
<polygon fill="none" stroke="#000000" points="214,-273.5 214,-293.5 321,-293.5 321,-273.5 214,-273.5"/>
<text text-anchor="middle" x="267.5" y="-280.5" font-family="FreeSans" font-size="10.00" fill="#000000">PHG4Hit::set_eion</text>
</a>
</g>
</g>
<!-- Node1&#45;&gt;Node13 -->
<g id="edge13" class="edge">
<title>Node1&#45;&gt;Node13</title>
<path fill="none" stroke="#191970" d="M104.717,-345.4681C127.2431,-332.7248 160.3962,-315.1617 191,-303.5 197.8789,-300.8788 205.2327,-298.4781 212.5606,-296.3206"/>
<polygon fill="#191970" stroke="#191970" points="213.8091,-299.6054 222.4899,-293.5315 211.916,-292.8663 213.8091,-299.6054"/>
</g>
<!-- Node14 -->
<g id="node14" class="node">
<title>Node14</title>
<g id="a_node14"><a xlink:href="../../d3/d9e/classPHG4Hit.html#acb136829baab1de2639e7fd5de3a74b5" target="_top" xlink:title="PHG4Hit::set_scint_id">
<polygon fill="none" stroke="#000000" points="205.5,-234.5 205.5,-254.5 329.5,-254.5 329.5,-234.5 205.5,-234.5"/>
<text text-anchor="middle" x="267.5" y="-241.5" font-family="FreeSans" font-size="10.00" fill="#000000">PHG4Hit::set_scint_id</text>
</a>
</g>
</g>
<!-- Node1&#45;&gt;Node14 -->
<g id="edge14" class="edge">
<title>Node1&#45;&gt;Node14</title>
<path fill="none" stroke="#191970" d="M91.9784,-345.1914C112.082,-323.5507 150.5656,-285.6249 191,-264.5 195.8669,-261.9573 201.0805,-259.7209 206.4138,-257.7572"/>
<polygon fill="#191970" stroke="#191970" points="207.7262,-261.0087 216.0937,-254.5098 205.4997,-254.3722 207.7262,-261.0087"/>
</g>
<!-- Node15 -->
<g id="node15" class="node">
<title>Node15</title>
<g id="a_node15"><a xlink:href="../../d3/d9e/classPHG4Hit.html#a3bd1d01f13031802bc9956609c416a46" target="_top" xlink:title="PHG4Hit::set_shower_id">
<polygon fill="none" stroke="#000000" points="199.5,-195.5 199.5,-215.5 335.5,-215.5 335.5,-195.5 199.5,-195.5"/>
<text text-anchor="middle" x="267.5" y="-202.5" font-family="FreeSans" font-size="10.00" fill="#000000">PHG4Hit::set_shower_id</text>
</a>
</g>
</g>
<!-- Node1&#45;&gt;Node15 -->
<g id="edge15" class="edge">
<title>Node1&#45;&gt;Node15</title>
<path fill="none" stroke="#191970" d="M86.4049,-345.2858C103.0416,-316.5593 141.666,-256.8109 191,-225.5 194.7524,-223.1185 198.7792,-221.0194 202.9509,-219.1695"/>
<polygon fill="#191970" stroke="#191970" points="204.241,-222.4232 212.265,-215.5048 201.6779,-215.9093 204.241,-222.4232"/>
</g>
<!-- Node16 -->
<g id="node16" class="node">
<title>Node16</title>
<g id="a_node16"><a xlink:href="../../d3/d9e/classPHG4Hit.html#a5cced855d1a85cb380f993417f1e5b1a" target="_top" xlink:title="PHG4Hit::set_t">
<polygon fill="none" stroke="#000000" points="222.5,-156.5 222.5,-176.5 312.5,-176.5 312.5,-156.5 222.5,-156.5"/>
<text text-anchor="middle" x="267.5" y="-163.5" font-family="FreeSans" font-size="10.00" fill="#000000">PHG4Hit::set_t</text>
</a>
</g>
</g>
<!-- Node1&#45;&gt;Node16 -->
<g id="edge16" class="edge">
<title>Node1&#45;&gt;Node16</title>
<path fill="none" stroke="#191970" d="M83.2868,-345.3505C96.5846,-310.6235 132.7305,-228.5911 191,-186.5 197.416,-181.8654 204.8224,-178.3039 212.4475,-175.5673"/>
<polygon fill="#191970" stroke="#191970" points="213.6685,-178.8526 222.1651,-172.5233 211.576,-172.1726 213.6685,-178.8526"/>
</g>
<!-- Node17 -->
<g id="node17" class="node">
<title>Node17</title>
<g id="a_node17"><a xlink:href="../../d3/d9e/classPHG4Hit.html#ac4e7f18a0d54ec275128651928e69531" target="_top" xlink:title="PHG4Hit::set_trkid">
<polygon fill="none" stroke="#000000" points="213.5,-117.5 213.5,-137.5 321.5,-137.5 321.5,-117.5 213.5,-117.5"/>
<text text-anchor="middle" x="267.5" y="-124.5" font-family="FreeSans" font-size="10.00" fill="#000000">PHG4Hit::set_trkid</text>
</a>
</g>
</g>
<!-- Node1&#45;&gt;Node17 -->
<g id="edge17" class="edge">
<title>Node1&#45;&gt;Node17</title>
<path fill="none" stroke="#191970" d="M81.244,-345.4821C91.4383,-305.5312 123.5592,-200.8677 191,-147.5 195.0015,-144.3335 199.4539,-141.6649 204.1418,-139.4163"/>
<polygon fill="#191970" stroke="#191970" points="205.4885,-142.647 213.3907,-135.5896 202.8122,-136.1787 205.4885,-142.647"/>
</g>
<!-- Node18 -->
<g id="node18" class="node">
<title>Node18</title>
<g id="a_node18"><a xlink:href="../../d3/d9e/classPHG4Hit.html#aa91398b4546e9d099443217e1577f79b" target="_top" xlink:title="PHG4Hit::set_x">
<polygon fill="none" stroke="#000000" points="221.5,-78.5 221.5,-98.5 313.5,-98.5 313.5,-78.5 221.5,-78.5"/>
<text text-anchor="middle" x="267.5" y="-85.5" font-family="FreeSans" font-size="10.00" fill="#000000">PHG4Hit::set_x</text>
</a>
</g>
</g>
<!-- Node1&#45;&gt;Node18 -->
<g id="edge18" class="edge">
<title>Node1&#45;&gt;Node18</title>
<path fill="none" stroke="#191970" d="M79.8596,-345.2993C87.2804,-300.3879 114.3853,-173.3472 191,-108.5 197.0413,-103.3866 204.2418,-99.562 211.7728,-96.705"/>
<polygon fill="#191970" stroke="#191970" points="212.9908,-99.9896 221.4265,-93.5795 210.8346,-93.3299 212.9908,-99.9896"/>
</g>
<!-- Node19 -->
<g id="node19" class="node">
<title>Node19</title>
<g id="a_node19"><a xlink:href="../../d3/d9e/classPHG4Hit.html#a3ab7971f354374b005f9a11fd761b53e" target="_top" xlink:title="PHG4Hit::set_y">
<polygon fill="none" stroke="#000000" points="221.5,-39.5 221.5,-59.5 313.5,-59.5 313.5,-39.5 221.5,-39.5"/>
<text text-anchor="middle" x="267.5" y="-46.5" font-family="FreeSans" font-size="10.00" fill="#000000">PHG4Hit::set_y</text>
</a>
</g>
</g>
<!-- Node1&#45;&gt;Node19 -->
<g id="edge19" class="edge">
<title>Node1&#45;&gt;Node19</title>
<path fill="none" stroke="#191970" d="M78.7771,-345.3857C83.5711,-296.1209 104.9154,-146.2125 191,-69.5 196.909,-64.2343 204.0368,-60.326 211.5346,-57.4307"/>
<polygon fill="#191970" stroke="#191970" points="212.7501,-60.7157 221.1658,-54.2793 210.5732,-54.0628 212.7501,-60.7157"/>
</g>
<!-- Node20 -->
<g id="node20" class="node">
<title>Node20</title>
<g id="a_node20"><a xlink:href="../../d3/d9e/classPHG4Hit.html#a896d7a45139f9cbc2e429127baa61715" target="_top" xlink:title="PHG4Hit::set_z">
<polygon fill="none" stroke="#000000" points="222,-.5 222,-20.5 313,-20.5 313,-.5 222,-.5"/>
<text text-anchor="middle" x="267.5" y="-7.5" font-family="FreeSans" font-size="10.00" fill="#000000">PHG4Hit::set_z</text>
</a>
</g>
</g>
<!-- Node1&#45;&gt;Node20 -->
<g id="edge20" class="edge">
<title>Node1&#45;&gt;Node20</title>
<path fill="none" stroke="#191970" d="M80.9612,-345.1796C94.0642,-284.8564 142.352,-75.6468 191,-30.5 197.009,-24.9234 204.3775,-20.8603 212.1442,-17.9079"/>
<polygon fill="#191970" stroke="#191970" points="213.2952,-21.2145 221.7507,-14.8305 211.1596,-14.5482 213.2952,-21.2145"/>
</g>
<!-- Node3&#45;&gt;Node4 -->
<g id="edge3" class="edge">
<title>Node3&#45;&gt;Node4</title>
<path fill="none" stroke="#191970" d="M342.3386,-688.6695C351.4884,-687.5899 360.7944,-686.4918 369.8222,-685.4266"/>
<polygon fill="#191970" stroke="#191970" points="370.3525,-688.8884 379.8735,-684.2406 369.5322,-681.9366 370.3525,-688.8884"/>
</g>
</g>
</svg>
