<?xml version="1.0" encoding="UTF-8" standalone="no"?>
<!DOCTYPE svg PUBLIC "-//W3C//DTD SVG 1.1//EN"
 "http://www.w3.org/Graphics/SVG/1.1/DTD/svg11.dtd">
<!-- Generated by graphviz version 2.40.1 (20161225.0304)
 -->
<!-- Title: PHObject::Clone Pages: 1 -->
<svg width="702pt" height="245pt"
 viewBox="0.00 0.00 702.00 245.00" xmlns="http://www.w3.org/2000/svg" xmlns:xlink="http://www.w3.org/1999/xlink">
<g id="graph0" class="graph" transform="scale(1 1) rotate(0) translate(4 241)">
<title>PHObject::Clone</title>
<!-- Node1 -->
<g id="node1" class="node">
<title>Node1</title>
<polygon fill="#bfbfbf" stroke="#000000" points="0,-67.5 0,-87.5 98,-87.5 98,-67.5 0,-67.5"/>
<text text-anchor="middle" x="49" y="-74.5" font-family="FreeSans" font-size="10.00" fill="#000000">PHObject::Clone</text>
</g>
<!-- Node2 -->
<g id="node2" class="node">
<title>Node2</title>
<g id="a_node2"><a xlink:href="../../d1/d28/classPgPostBankBackupStorage.html#aa8c695052f52af8277204903361746a1" target="_top" xlink:title="use this storage object to recover the PdbCalBankWrapper">
<polygon fill="none" stroke="#000000" points="145,-153.5 145,-185.5 297,-185.5 297,-153.5 145,-153.5"/>
<text text-anchor="start" x="153" y="-172.5" font-family="FreeSans" font-size="10.00" fill="#000000">PgPostBankBackupStorage</text>
<text text-anchor="middle" x="221" y="-160.5" font-family="FreeSans" font-size="10.00" fill="#000000">::createBank</text>
</a>
</g>
</g>
<!-- Node1&#45;&gt;Node2 -->
<g id="edge1" class="edge">
<title>Node1&#45;&gt;Node2</title>
<path fill="none" stroke="#191970" d="M74.4262,-92.7257C91.1926,-102.6243 113.7214,-115.6579 134,-126.5 151.3838,-135.7944 171.0501,-145.5749 187.2814,-153.4558"/>
<polygon fill="#191970" stroke="#191970" points="76.1417,-89.6739 65.7552,-87.5828 72.5707,-95.6946 76.1417,-89.6739"/>
</g>
<!-- Node5 -->
<g id="node5" class="node">
<title>Node5</title>
<g id="a_node5"><a xlink:href="../../da/daa/classPgPostBankBackupManager.html#ac991d944f76ee913f18491df3ca45dba" target="_top" xlink:title="PgPostBankBackupManager\l::SQLResultSet2BackupStorage">
<polygon fill="none" stroke="#000000" points="134,-84.5 134,-116.5 308,-116.5 308,-84.5 134,-84.5"/>
<text text-anchor="start" x="142" y="-103.5" font-family="FreeSans" font-size="10.00" fill="#000000">PgPostBankBackupManager</text>
<text text-anchor="middle" x="221" y="-91.5" font-family="FreeSans" font-size="10.00" fill="#000000">::SQLResultSet2BackupStorage</text>
</a>
</g>
</g>
<!-- Node1&#45;&gt;Node5 -->
<g id="edge4" class="edge">
<title>Node1&#45;&gt;Node5</title>
<path fill="none" stroke="#191970" d="M108.4314,-85.4472C116.6092,-86.5408 125.1425,-87.6818 133.693,-88.8252"/>
<polygon fill="#191970" stroke="#191970" points="108.664,-81.9473 98.2883,-84.0909 107.7361,-88.8855 108.664,-81.9473"/>
</g>
<!-- Node9 -->
<g id="node9" class="node">
<title>Node9</title>
<g id="a_node9"><a xlink:href="../../d1/d97/classPHPatternReco.html#a5dcc960fb3e323ffc647bb777c24443a" target="_top" xlink:title="PHPatternReco::vote_xy">
<polygon fill="none" stroke="#000000" points="153,-45.5 153,-65.5 289,-65.5 289,-45.5 153,-45.5"/>
<text text-anchor="middle" x="221" y="-52.5" font-family="FreeSans" font-size="10.00" fill="#000000">PHPatternReco::vote_xy</text>
</a>
</g>
</g>
<!-- Node1&#45;&gt;Node9 -->
<g id="edge8" class="edge">
<title>Node1&#45;&gt;Node9</title>
<path fill="none" stroke="#191970" d="M108.4776,-69.8924C122.7693,-68.0644 138.1442,-66.0978 152.7981,-64.2235"/>
<polygon fill="#191970" stroke="#191970" points="107.7634,-66.4551 98.2883,-71.1957 108.6516,-73.3986 107.7634,-66.4551"/>
</g>
<!-- Node11 -->
<g id="node11" class="node">
<title>Node11</title>
<g id="a_node11"><a xlink:href="../../d1/d97/classPHPatternReco.html#a82990cbb5fd69f6527ed7723873ac6dc" target="_top" xlink:title="PHPatternReco::vote_z">
<polygon fill="none" stroke="#000000" points="156,-6.5 156,-26.5 286,-26.5 286,-6.5 156,-6.5"/>
<text text-anchor="middle" x="221" y="-13.5" font-family="FreeSans" font-size="10.00" fill="#000000">PHPatternReco::vote_z</text>
</a>
</g>
</g>
<!-- Node1&#45;&gt;Node11 -->
<g id="edge10" class="edge">
<title>Node1&#45;&gt;Node11</title>
<path fill="none" stroke="#191970" d="M75.3596,-62.3867C91.7886,-53.5003 113.6123,-42.6425 134,-35.5 143.9217,-32.0241 154.7109,-29.0542 165.2067,-26.5667"/>
<polygon fill="#191970" stroke="#191970" points="73.4286,-59.4545 66.3615,-67.3481 76.8086,-65.5845 73.4286,-59.4545"/>
</g>
<!-- Node3 -->
<g id="node3" class="node">
<title>Node3</title>
<g id="a_node3"><a xlink:href="../../da/daa/classPgPostBankBackupManager.html#aef9c4fe8b1ac4f3cb7f77bd505b4cc18" target="_top" xlink:title="PgPostBankBackupManager\l::commit">
<polygon fill="none" stroke="#000000" points="344,-204.5 344,-236.5 501,-236.5 501,-204.5 344,-204.5"/>
<text text-anchor="start" x="352" y="-223.5" font-family="FreeSans" font-size="10.00" fill="#000000">PgPostBankBackupManager</text>
<text text-anchor="middle" x="422.5" y="-211.5" font-family="FreeSans" font-size="10.00" fill="#000000">::commit</text>
</a>
</g>
</g>
<!-- Node2&#45;&gt;Node3 -->
<g id="edge2" class="edge">
<title>Node2&#45;&gt;Node3</title>
<path fill="none" stroke="#191970" d="M294.3903,-188.0752C315.5615,-193.4337 338.4767,-199.2336 358.9937,-204.4264"/>
<polygon fill="#191970" stroke="#191970" points="295.0324,-184.6274 284.4793,-185.5667 293.3148,-191.4134 295.0324,-184.6274"/>
</g>
<!-- Node4 -->
<g id="node4" class="node">
<title>Node4</title>
<g id="a_node4"><a xlink:href="../../da/daa/classPgPostBankBackupManager.html#a235748109f2b58dfa188d3c20d9fbe9a" target="_top" xlink:title="TFile &#45;&gt; Database for official operation use.">
<polygon fill="none" stroke="#000000" points="344,-153.5 344,-185.5 501,-185.5 501,-153.5 344,-153.5"/>
<text text-anchor="start" x="352" y="-172.5" font-family="FreeSans" font-size="10.00" fill="#000000">PgPostBankBackupManager</text>
<text text-anchor="middle" x="422.5" y="-160.5" font-family="FreeSans" font-size="10.00" fill="#000000">::commitAllBankfromTFile</text>
</a>
</g>
</g>
<!-- Node2&#45;&gt;Node4 -->
<g id="edge3" class="edge">
<title>Node2&#45;&gt;Node4</title>
<path fill="none" stroke="#191970" d="M307.2975,-169.5C319.4431,-169.5 331.8748,-169.5 343.8667,-169.5"/>
<polygon fill="#191970" stroke="#191970" points="307.1785,-166.0001 297.1785,-169.5 307.1785,-173.0001 307.1785,-166.0001"/>
</g>
<!-- Node6 -->
<g id="node6" class="node">
<title>Node6</title>
<g id="a_node6"><a xlink:href="../../da/daa/classPgPostBankBackupManager.html#a48e85fa7beea90b4d7f828c59b5e5676" target="_top" xlink:title="Database &#45;&gt; TFile for all all records satisifying record_selection.">
<polygon fill="none" stroke="#000000" points="344,-102.5 344,-134.5 501,-134.5 501,-102.5 344,-102.5"/>
<text text-anchor="start" x="352" y="-121.5" font-family="FreeSans" font-size="10.00" fill="#000000">PgPostBankBackupManager</text>
<text text-anchor="middle" x="422.5" y="-109.5" font-family="FreeSans" font-size="10.00" fill="#000000">::fetchAllBank2TFile</text>
</a>
</g>
</g>
<!-- Node5&#45;&gt;Node6 -->
<g id="edge5" class="edge">
<title>Node5&#45;&gt;Node6</title>
<path fill="none" stroke="#191970" d="M318.2156,-109.1843C326.7657,-109.9481 335.3498,-110.7149 343.7212,-111.4627"/>
<polygon fill="#191970" stroke="#191970" points="318.4807,-105.6941 308.2089,-108.2904 317.8578,-112.6663 318.4807,-105.6941"/>
</g>
<!-- Node7 -->
<g id="node7" class="node">
<title>Node7</title>
<g id="a_node7"><a xlink:href="../../da/daa/classPgPostBankBackupManager.html#a34f458a7ca1eb1053ac850d99c44adf6" target="_top" xlink:title="PgPostBankBackupManager\l::fetchBank">
<polygon fill="none" stroke="#000000" points="344,-51.5 344,-83.5 501,-83.5 501,-51.5 344,-51.5"/>
<text text-anchor="start" x="352" y="-70.5" font-family="FreeSans" font-size="10.00" fill="#000000">PgPostBankBackupManager</text>
<text text-anchor="middle" x="422.5" y="-58.5" font-family="FreeSans" font-size="10.00" fill="#000000">::fetchBank</text>
</a>
</g>
</g>
<!-- Node5&#45;&gt;Node7 -->
<g id="edge6" class="edge">
<title>Node5&#45;&gt;Node7</title>
<path fill="none" stroke="#191970" d="M318.2156,-84.5788C326.7657,-83.1786 335.3498,-81.7727 343.7212,-80.4017"/>
<polygon fill="#191970" stroke="#191970" points="317.5117,-81.1474 308.2089,-86.2176 318.6431,-88.0554 317.5117,-81.1474"/>
</g>
<!-- Node8 -->
<g id="node8" class="node">
<title>Node8</title>
<g id="a_node8"><a xlink:href="../../da/daa/classPgPostBankBackupManager.html#a4d8b9019e125378da20dd0542dc614be" target="_top" xlink:title="Database &#45;&gt; TFile for official operation use.">
<polygon fill="none" stroke="#000000" points="537,-51.5 537,-83.5 694,-83.5 694,-51.5 537,-51.5"/>
<text text-anchor="start" x="545" y="-70.5" font-family="FreeSans" font-size="10.00" fill="#000000">PgPostBankBackupManager</text>
<text text-anchor="middle" x="615.5" y="-58.5" font-family="FreeSans" font-size="10.00" fill="#000000">::fetchBank2TFile</text>
</a>
</g>
</g>
<!-- Node7&#45;&gt;Node8 -->
<g id="edge7" class="edge">
<title>Node7&#45;&gt;Node8</title>
<path fill="none" stroke="#191970" d="M511.0225,-67.5C519.607,-67.5 528.2762,-67.5 536.7559,-67.5"/>
<polygon fill="#191970" stroke="#191970" points="511.0005,-64.0001 501.0005,-67.5 511.0005,-71.0001 511.0005,-64.0001"/>
</g>
<!-- Node10 -->
<g id="node10" class="node">
<title>Node10</title>
<g id="a_node10"><a xlink:href="../../d1/d97/classPHPatternReco.html#ac97e2c1e8d98ea16a11d44c134ad0299" target="_top" xlink:title="PHPatternReco::process\l_event">
<polygon fill="none" stroke="#000000" points="354.5,-.5 354.5,-32.5 490.5,-32.5 490.5,-.5 354.5,-.5"/>
<text text-anchor="start" x="362.5" y="-19.5" font-family="FreeSans" font-size="10.00" fill="#000000">PHPatternReco::process</text>
<text text-anchor="middle" x="422.5" y="-7.5" font-family="FreeSans" font-size="10.00" fill="#000000">_event</text>
</a>
</g>
</g>
<!-- Node9&#45;&gt;Node10 -->
<g id="edge9" class="edge">
<title>Node9&#45;&gt;Node10</title>
<path fill="none" stroke="#191970" d="M282.7384,-43.5506C305.4228,-39.1601 331.2278,-34.1656 354.4371,-29.6735"/>
<polygon fill="#191970" stroke="#191970" points="282.044,-40.12 272.8913,-45.4565 283.3742,-46.9925 282.044,-40.12"/>
</g>
<!-- Node11&#45;&gt;Node10 -->
<g id="edge11" class="edge">
<title>Node11&#45;&gt;Node10</title>
<path fill="none" stroke="#191970" d="M296.2887,-16.5C315.3727,-16.5 335.7609,-16.5 354.4624,-16.5"/>
<polygon fill="#191970" stroke="#191970" points="296.143,-13.0001 286.143,-16.5 296.143,-20.0001 296.143,-13.0001"/>
</g>
</g>
</svg>
