<?xml version="1.0" encoding="UTF-8" standalone="no"?>
<!DOCTYPE svg PUBLIC "-//W3C//DTD SVG 1.1//EN"
 "http://www.w3.org/Graphics/SVG/1.1/DTD/svg11.dtd">
<!-- Generated by graphviz version 2.40.1 (20161225.0304)
 -->
<!-- Title: BinLog Pages: 1 -->
<svg width="276pt" height="29pt"
 viewBox="0.00 0.00 276.00 29.00" xmlns="http://www.w3.org/2000/svg" xmlns:xlink="http://www.w3.org/1999/xlink">
<g id="graph0" class="graph" transform="scale(1 1) rotate(0) translate(4 25)">
<title>BinLog</title>
<!-- Node1 -->
<g id="node1" class="node">
<title>Node1</title>
<polygon fill="#bfbfbf" stroke="#000000" points="0,-.5 0,-20.5 50,-20.5 50,-.5 0,-.5"/>
<text text-anchor="middle" x="25" y="-7.5" font-family="FreeSans" font-size="10.00" fill="#000000">BinLog</text>
</g>
<!-- Node2 -->
<g id="node2" class="node">
<title>Node2</title>
<g id="a_node2"><a xlink:href="../../df/d51/dvcs__plot_8C.html#a9945c4f9f7cc5fa972bf2b61814a00db" target="_top" xlink:title="add_to_array">
<polygon fill="none" stroke="#000000" points="86,-.5 86,-20.5 168,-20.5 168,-.5 86,-.5"/>
<text text-anchor="middle" x="127" y="-7.5" font-family="FreeSans" font-size="10.00" fill="#000000">add_to_array</text>
</a>
</g>
</g>
<!-- Node1&#45;&gt;Node2 -->
<g id="edge1" class="edge">
<title>Node1&#45;&gt;Node2</title>
<path fill="none" stroke="#191970" d="M60.2492,-10.5C68.4873,-10.5 77.3334,-10.5 85.8044,-10.5"/>
<polygon fill="#191970" stroke="#191970" points="60.2135,-7.0001 50.2135,-10.5 60.2135,-14.0001 60.2135,-7.0001"/>
</g>
<!-- Node3 -->
<g id="node3" class="node">
<title>Node3</title>
<g id="a_node3"><a xlink:href="../../df/d51/dvcs__plot_8C.html#a26f7ac48f80f5ff9c11e5023b73f8f3c" target="_top" xlink:title="dvcs_plot">
<polygon fill="none" stroke="#000000" points="204,-.5 204,-20.5 268,-20.5 268,-.5 204,-.5"/>
<text text-anchor="middle" x="236" y="-7.5" font-family="FreeSans" font-size="10.00" fill="#000000">dvcs_plot</text>
</a>
</g>
</g>
<!-- Node2&#45;&gt;Node3 -->
<g id="edge2" class="edge">
<title>Node2&#45;&gt;Node3</title>
<path fill="none" stroke="#191970" d="M178.3352,-10.5C187.0499,-10.5 195.873,-10.5 203.9089,-10.5"/>
<polygon fill="#191970" stroke="#191970" points="178.2083,-7.0001 168.2082,-10.5 178.2082,-14.0001 178.2083,-7.0001"/>
</g>
</g>
</svg>
