<?xml version="1.0" encoding="UTF-8" standalone="no"?>
<!DOCTYPE svg PUBLIC "-//W3C//DTD SVG 1.1//EN"
 "http://www.w3.org/Graphics/SVG/1.1/DTD/svg11.dtd">
<!-- Generated by graphviz version 2.40.1 (20161225.0304)
 -->
<!-- Title: PHG4InEventCompress::process_event Pages: 1 -->
<svg width="423pt" height="158pt"
 viewBox="0.00 0.00 423.00 158.00" xmlns="http://www.w3.org/2000/svg" xmlns:xlink="http://www.w3.org/1999/xlink">
<g id="graph0" class="graph" transform="scale(1 1) rotate(0) translate(4 154)">
<title>PHG4InEventCompress::process_event</title>
<!-- Node1 -->
<g id="node1" class="node">
<title>Node1</title>
<polygon fill="#bfbfbf" stroke="#000000" points="0,-52.5 0,-84.5 133,-84.5 133,-52.5 0,-52.5"/>
<text text-anchor="start" x="8" y="-71.5" font-family="FreeSans" font-size="10.00" fill="#000000">PHG4InEventCompress</text>
<text text-anchor="middle" x="66.5" y="-59.5" font-family="FreeSans" font-size="10.00" fill="#000000">::process_event</text>
</g>
<!-- Node2 -->
<g id="node2" class="node">
<title>Node2</title>
<g id="a_node2"><a xlink:href="../../d2/d08/classVariableArrayUtils.html#a58b626e5325406f70b023beabdac9eed" target="_top" xlink:title="VariableArrayUtils\l::FloatToShortBits">
<polygon fill="none" stroke="#000000" points="190,-117.5 190,-149.5 298,-149.5 298,-117.5 190,-117.5"/>
<text text-anchor="start" x="198" y="-136.5" font-family="FreeSans" font-size="10.00" fill="#000000">VariableArrayUtils</text>
<text text-anchor="middle" x="244" y="-124.5" font-family="FreeSans" font-size="10.00" fill="#000000">::FloatToShortBits</text>
</a>
</g>
</g>
<!-- Node1&#45;&gt;Node2 -->
<g id="edge1" class="edge">
<title>Node1&#45;&gt;Node2</title>
<path fill="none" stroke="#191970" d="M106.2393,-84.5449C125.1624,-92.0471 148.1615,-100.9663 169,-108.5 174.163,-110.3666 179.5436,-112.2602 184.9478,-114.1269"/>
<polygon fill="#191970" stroke="#191970" points="184.0643,-117.5236 194.6589,-117.446 186.3283,-110.8998 184.0643,-117.5236"/>
</g>
<!-- Node4 -->
<g id="node4" class="node">
<title>Node4</title>
<g id="a_node4"><a xlink:href="../../db/d62/classPHG4InEvent.html#a64ce473f416b917858b446396f7522af" target="_top" xlink:title="PHG4InEvent::GetParticles">
<polygon fill="none" stroke="#000000" points="169,-78.5 169,-98.5 319,-98.5 319,-78.5 169,-78.5"/>
<text text-anchor="middle" x="244" y="-85.5" font-family="FreeSans" font-size="10.00" fill="#000000">PHG4InEvent::GetParticles</text>
</a>
</g>
</g>
<!-- Node1&#45;&gt;Node4 -->
<g id="edge3" class="edge">
<title>Node1&#45;&gt;Node4</title>
<path fill="none" stroke="#191970" d="M133.0995,-76.0042C141.5133,-76.9522 150.2109,-77.9322 158.8627,-78.9071"/>
<polygon fill="#191970" stroke="#191970" points="158.6492,-82.4051 168.9783,-80.0468 159.4331,-75.4491 158.6492,-82.4051"/>
</g>
<!-- Node5 -->
<g id="node5" class="node">
<title>Node5</title>
<g id="a_node5"><a xlink:href="../../db/d62/classPHG4InEvent.html#a459357d91b697f1a08abee3fc0b0dcce" target="_top" xlink:title="PHG4InEvent::GetVertices">
<polygon fill="none" stroke="#000000" points="170,-39.5 170,-59.5 318,-59.5 318,-39.5 170,-39.5"/>
<text text-anchor="middle" x="244" y="-46.5" font-family="FreeSans" font-size="10.00" fill="#000000">PHG4InEvent::GetVertices</text>
</a>
</g>
</g>
<!-- Node1&#45;&gt;Node5 -->
<g id="edge4" class="edge">
<title>Node1&#45;&gt;Node5</title>
<path fill="none" stroke="#191970" d="M133.0995,-61.371C141.8192,-60.4377 150.8437,-59.4717 159.8061,-58.5123"/>
<polygon fill="#191970" stroke="#191970" points="160.3083,-61.9786 169.8789,-57.4341 159.5632,-55.0184 160.3083,-61.9786"/>
</g>
<!-- Node6 -->
<g id="node6" class="node">
<title>Node6</title>
<g id="a_node6"><a xlink:href="../../dc/db5/classVariableArray.html#a056ec79571ebb66dca87908aaddb6ecd" target="_top" xlink:title="VariableArray::set_val">
<polygon fill="none" stroke="#000000" points="180.5,-.5 180.5,-20.5 307.5,-20.5 307.5,-.5 180.5,-.5"/>
<text text-anchor="middle" x="244" y="-7.5" font-family="FreeSans" font-size="10.00" fill="#000000">VariableArray::set_val</text>
</a>
</g>
</g>
<!-- Node1&#45;&gt;Node6 -->
<g id="edge5" class="edge">
<title>Node1&#45;&gt;Node6</title>
<path fill="none" stroke="#191970" d="M107.0928,-52.4458C125.8,-45.3076 148.3812,-37.0551 169,-30.5 176.852,-28.0037 185.2313,-25.559 193.4384,-23.2836"/>
<polygon fill="#191970" stroke="#191970" points="194.5839,-26.5994 203.3166,-20.6001 192.7487,-19.8442 194.5839,-26.5994"/>
</g>
<!-- Node3 -->
<g id="node3" class="node">
<title>Node3</title>
<g id="a_node3"><a xlink:href="../../d2/d29/classhalf.html#a0ddbf7dafaa9b839ae9fc3ac4c8b39ed" target="_top" xlink:title="half::bits">
<polygon fill="none" stroke="#000000" points="355,-123.5 355,-143.5 415,-143.5 415,-123.5 355,-123.5"/>
<text text-anchor="middle" x="385" y="-130.5" font-family="FreeSans" font-size="10.00" fill="#000000">half::bits</text>
</a>
</g>
</g>
<!-- Node2&#45;&gt;Node3 -->
<g id="edge2" class="edge">
<title>Node2&#45;&gt;Node3</title>
<path fill="none" stroke="#191970" d="M298.111,-133.5C313.6094,-133.5 330.2264,-133.5 344.7355,-133.5"/>
<polygon fill="#191970" stroke="#191970" points="344.8817,-137.0001 354.8817,-133.5 344.8817,-130.0001 344.8817,-137.0001"/>
</g>
</g>
</svg>
