<?xml version="1.0" encoding="UTF-8" standalone="no"?>
<!DOCTYPE svg PUBLIC "-//W3C//DTD SVG 1.1//EN"
 "http://www.w3.org/Graphics/SVG/1.1/DTD/svg11.dtd">
<!-- Generated by graphviz version 2.40.1 (20161225.0304)
 -->
<!-- Title: coresoftware/blob/master/simulation/g4simulation/g4main/PHG4PhenixDisplayAction.h Pages: 1 -->
<svg width="579pt" height="134pt"
 viewBox="0.00 0.00 578.50 134.00" xmlns="http://www.w3.org/2000/svg" xmlns:xlink="http://www.w3.org/1999/xlink">
<g id="graph0" class="graph" transform="scale(1 1) rotate(0) translate(4 130)">
<title>coresoftware/blob/master/simulation/g4simulation/g4main/PHG4PhenixDisplayAction.h</title>
<!-- Node1 -->
<g id="node1" class="node">
<title>Node1</title>
<polygon fill="#bfbfbf" stroke="#000000" points="201,-81.5 201,-125.5 404,-125.5 404,-81.5 201,-81.5"/>
<text text-anchor="start" x="209" y="-112.5" font-family="FreeSans" font-size="10.00" fill="#000000">coresoftware/blob/master</text>
<text text-anchor="start" x="209" y="-100.5" font-family="FreeSans" font-size="10.00" fill="#000000">/simulation/g4simulation</text>
<text text-anchor="middle" x="302.5" y="-88.5" font-family="FreeSans" font-size="10.00" fill="#000000">/g4main/PHG4PhenixDisplayAction.h</text>
</g>
<!-- Node2 -->
<g id="node2" class="node">
<title>Node2</title>
<g id="a_node2"><a xlink:href="../../d9/d93/PHG4PhenixDetector_8cc.html" target="_top" xlink:title="coresoftware/blob/master\l/simulation/g4simulation\l/g4main/PHG4PhenixDetector.cc">
<polygon fill="none" stroke="#000000" points="0,-.5 0,-44.5 181,-44.5 181,-.5 0,-.5"/>
<text text-anchor="start" x="8" y="-31.5" font-family="FreeSans" font-size="10.00" fill="#000000">coresoftware/blob/master</text>
<text text-anchor="start" x="8" y="-19.5" font-family="FreeSans" font-size="10.00" fill="#000000">/simulation/g4simulation</text>
<text text-anchor="middle" x="90.5" y="-7.5" font-family="FreeSans" font-size="10.00" fill="#000000">/g4main/PHG4PhenixDetector.cc</text>
</a>
</g>
</g>
<!-- Node1&#45;&gt;Node2 -->
<g id="edge1" class="edge">
<title>Node1&#45;&gt;Node2</title>
<path fill="none" stroke="#191970" d="M235.5071,-77.9036C207.437,-67.1788 175.1259,-54.8335 148.1384,-44.5222"/>
<polygon fill="#191970" stroke="#191970" points="234.2595,-81.1737 244.8501,-81.4734 236.7579,-74.6347 234.2595,-81.1737"/>
</g>
<!-- Node3 -->
<g id="node3" class="node">
<title>Node3</title>
<g id="a_node3"><a xlink:href="../../d6/d0c/PHG4PhenixDisplayAction_8cc.html" target="_top" xlink:title="coresoftware/blob/master\l/simulation/g4simulation\l/g4main/PHG4PhenixDisplayAction.cc">
<polygon fill="none" stroke="#000000" points="199,-.5 199,-44.5 406,-44.5 406,-.5 199,-.5"/>
<text text-anchor="start" x="207" y="-31.5" font-family="FreeSans" font-size="10.00" fill="#000000">coresoftware/blob/master</text>
<text text-anchor="start" x="207" y="-19.5" font-family="FreeSans" font-size="10.00" fill="#000000">/simulation/g4simulation</text>
<text text-anchor="middle" x="302.5" y="-7.5" font-family="FreeSans" font-size="10.00" fill="#000000">/g4main/PHG4PhenixDisplayAction.cc</text>
</a>
</g>
</g>
<!-- Node1&#45;&gt;Node3 -->
<g id="edge2" class="edge">
<title>Node1&#45;&gt;Node3</title>
<path fill="none" stroke="#191970" d="M302.5,-71.2457C302.5,-62.3118 302.5,-52.8188 302.5,-44.6068"/>
<polygon fill="#191970" stroke="#191970" points="299.0001,-71.3664 302.5,-81.3664 306.0001,-71.3664 299.0001,-71.3664"/>
</g>
<!-- Node4 -->
<g id="node4" class="node">
<title>Node4</title>
<g id="a_node4"><a xlink:href="../../d2/dcb/PHG4Reco_8cc.html" target="_top" xlink:title="coresoftware/blob/master\l/simulation/g4simulation\l/g4main/PHG4Reco.cc">
<polygon fill="none" stroke="#000000" points="424.5,-.5 424.5,-44.5 570.5,-44.5 570.5,-.5 424.5,-.5"/>
<text text-anchor="start" x="432.5" y="-31.5" font-family="FreeSans" font-size="10.00" fill="#000000">coresoftware/blob/master</text>
<text text-anchor="start" x="432.5" y="-19.5" font-family="FreeSans" font-size="10.00" fill="#000000">/simulation/g4simulation</text>
<text text-anchor="middle" x="497.5" y="-7.5" font-family="FreeSans" font-size="10.00" fill="#000000">/g4main/PHG4Reco.cc</text>
</a>
</g>
</g>
<!-- Node1&#45;&gt;Node4 -->
<g id="edge3" class="edge">
<title>Node1&#45;&gt;Node4</title>
<path fill="none" stroke="#191970" d="M364.7953,-77.6235C390.4565,-66.9642 419.876,-54.7438 444.4835,-44.5222"/>
<polygon fill="#191970" stroke="#191970" points="363.4194,-74.405 355.527,-81.4734 366.1047,-80.8695 363.4194,-74.405"/>
</g>
</g>
</svg>
