<?xml version="1.0" encoding="UTF-8" standalone="no"?>
<!DOCTYPE svg PUBLIC "-//W3C//DTD SVG 1.1//EN"
 "http://www.w3.org/Graphics/SVG/1.1/DTD/svg11.dtd">
<!-- Generated by graphviz version 2.40.1 (20161225.0304)
 -->
<!-- Title: PHG4RICHSteppingAction::UserSteppingAction Pages: 1 -->
<svg width="669pt" height="380pt"
 viewBox="0.00 0.00 669.00 380.00" xmlns="http://www.w3.org/2000/svg" xmlns:xlink="http://www.w3.org/1999/xlink">
<g id="graph0" class="graph" transform="scale(1 1) rotate(0) translate(4 376)">
<title>PHG4RICHSteppingAction::UserSteppingAction</title>
<!-- Node1 -->
<g id="node1" class="node">
<title>Node1</title>
<polygon fill="#bfbfbf" stroke="#000000" points="0,-169.5 0,-201.5 145,-201.5 145,-169.5 0,-169.5"/>
<text text-anchor="start" x="8" y="-188.5" font-family="FreeSans" font-size="10.00" fill="#000000">PHG4RICHSteppingAction</text>
<text text-anchor="middle" x="72.5" y="-176.5" font-family="FreeSans" font-size="10.00" fill="#000000">::UserSteppingAction</text>
</g>
<!-- Node2 -->
<g id="node2" class="node">
<title>Node2</title>
<g id="a_node2"><a xlink:href="../../de/d4d/classPHG4RICHSteppingAction.html#a57a3def2fb88ca9e940930e694f78b34" target="_top" xlink:title="PHG4RICHSteppingAction\l::MakeHit">
<polygon fill="none" stroke="#000000" points="181,-169.5 181,-201.5 326,-201.5 326,-169.5 181,-169.5"/>
<text text-anchor="start" x="189" y="-188.5" font-family="FreeSans" font-size="10.00" fill="#000000">PHG4RICHSteppingAction</text>
<text text-anchor="middle" x="253.5" y="-176.5" font-family="FreeSans" font-size="10.00" fill="#000000">::MakeHit</text>
</a>
</g>
</g>
<!-- Node1&#45;&gt;Node2 -->
<g id="edge1" class="edge">
<title>Node1&#45;&gt;Node2</title>
<path fill="none" stroke="#191970" d="M145.0767,-185.5C153.5595,-185.5 162.2611,-185.5 170.8671,-185.5"/>
<polygon fill="#191970" stroke="#191970" points="170.907,-189.0001 180.907,-185.5 170.907,-182.0001 170.907,-189.0001"/>
</g>
<!-- Node3 -->
<g id="node3" class="node">
<title>Node3</title>
<g id="a_node3"><a xlink:href="../../d4/d30/classPHG4HitContainer.html#a4df3ca68ecff69c9d7976b84fcc82e93" target="_top" xlink:title="PHG4HitContainer::AddHit">
<polygon fill="none" stroke="#000000" points="362,-351.5 362,-371.5 511,-371.5 511,-351.5 362,-351.5"/>
<text text-anchor="middle" x="436.5" y="-358.5" font-family="FreeSans" font-size="10.00" fill="#000000">PHG4HitContainer::AddHit</text>
</a>
</g>
</g>
<!-- Node2&#45;&gt;Node3 -->
<g id="edge2" class="edge">
<title>Node2&#45;&gt;Node3</title>
<path fill="none" stroke="#191970" d="M260.8708,-201.7124C275.6579,-232.4675 311.8697,-299.5061 362,-336.5 368.0376,-340.9555 374.9196,-344.6504 382.0046,-347.706"/>
<polygon fill="#191970" stroke="#191970" points="381.1429,-351.1261 391.7315,-351.4877 383.6795,-344.6019 381.1429,-351.1261"/>
</g>
<!-- Node4 -->
<g id="node4" class="node">
<title>Node4</title>
<g id="a_node4"><a xlink:href="../../d3/d9e/classPHG4Hit.html#acea6b2f3763d899e4de3765b9b5c6e51" target="_top" xlink:title="PHG4Hit::get_hit_id">
<polygon fill="none" stroke="#000000" points="547,-331.5 547,-351.5 661,-351.5 661,-331.5 547,-331.5"/>
<text text-anchor="middle" x="604" y="-338.5" font-family="FreeSans" font-size="10.00" fill="#000000">PHG4Hit::get_hit_id</text>
</a>
</g>
</g>
<!-- Node2&#45;&gt;Node4 -->
<g id="edge4" class="edge">
<title>Node2&#45;&gt;Node4</title>
<path fill="none" stroke="#191970" d="M263.1644,-201.663C279.7668,-227.8477 316.3646,-279.0686 362,-303.5 416.0188,-332.4195 485.8844,-340.8237 536.6504,-342.6444"/>
<polygon fill="#191970" stroke="#191970" points="536.7649,-346.1489 546.8594,-342.9315 536.9618,-339.1516 536.7649,-346.1489"/>
</g>
<!-- Node5 -->
<g id="node5" class="node">
<title>Node5</title>
<g id="a_node5"><a xlink:href="../../d4/d30/classPHG4HitContainer.html#a5073671e6d35969dc3d421e2278229af" target="_top" xlink:title="PHG4HitContainer::GetID">
<polygon fill="none" stroke="#000000" points="365,-273.5 365,-293.5 508,-293.5 508,-273.5 365,-273.5"/>
<text text-anchor="middle" x="436.5" y="-280.5" font-family="FreeSans" font-size="10.00" fill="#000000">PHG4HitContainer::GetID</text>
</a>
</g>
</g>
<!-- Node2&#45;&gt;Node5 -->
<g id="edge5" class="edge">
<title>Node2&#45;&gt;Node5</title>
<path fill="none" stroke="#191970" d="M270.9549,-201.5022C291.3428,-219.3685 326.7859,-247.9422 362,-264.5 366.6373,-266.6805 371.5592,-268.6343 376.5761,-270.3803"/>
<polygon fill="#191970" stroke="#191970" points="375.7,-273.7747 386.2909,-273.487 377.8322,-267.1073 375.7,-273.7747"/>
</g>
<!-- Node6 -->
<g id="node6" class="node">
<title>Node6</title>
<g id="a_node6"><a xlink:href="../../d3/d9e/classPHG4Hit.html#ad97bbe7fcf81822a93654afe0e540143" target="_top" xlink:title="PHG4Hit::set_edep">
<polygon fill="none" stroke="#000000" points="381,-234.5 381,-254.5 492,-254.5 492,-234.5 381,-234.5"/>
<text text-anchor="middle" x="436.5" y="-241.5" font-family="FreeSans" font-size="10.00" fill="#000000">PHG4Hit::set_edep</text>
</a>
</g>
</g>
<!-- Node2&#45;&gt;Node6 -->
<g id="edge6" class="edge">
<title>Node2&#45;&gt;Node6</title>
<path fill="none" stroke="#191970" d="M293.8617,-201.5114C314.1381,-209.2647 339.1868,-218.4066 362,-225.5 369.09,-227.7045 376.6163,-229.8481 384.0545,-231.8531"/>
<polygon fill="#191970" stroke="#191970" points="383.1763,-235.2411 393.7379,-234.4025 384.9586,-228.4717 383.1763,-235.2411"/>
</g>
<!-- Node7 -->
<g id="node7" class="node">
<title>Node7</title>
<g id="a_node7"><a xlink:href="../../d3/d9e/classPHG4Hit.html#a3bd1d01f13031802bc9956609c416a46" target="_top" xlink:title="PHG4Hit::set_shower_id">
<polygon fill="none" stroke="#000000" points="368.5,-195.5 368.5,-215.5 504.5,-215.5 504.5,-195.5 368.5,-195.5"/>
<text text-anchor="middle" x="436.5" y="-202.5" font-family="FreeSans" font-size="10.00" fill="#000000">PHG4Hit::set_shower_id</text>
</a>
</g>
</g>
<!-- Node2&#45;&gt;Node7 -->
<g id="edge7" class="edge">
<title>Node2&#45;&gt;Node7</title>
<path fill="none" stroke="#191970" d="M326.0893,-193.4333C336.6764,-194.5903 347.6167,-195.786 358.3092,-196.9546"/>
<polygon fill="#191970" stroke="#191970" points="358.1442,-200.4573 368.4653,-198.0645 358.9047,-193.4987 358.1442,-200.4573"/>
</g>
<!-- Node8 -->
<g id="node8" class="node">
<title>Node8</title>
<g id="a_node8"><a xlink:href="../../d3/d9e/classPHG4Hit.html#a5cced855d1a85cb380f993417f1e5b1a" target="_top" xlink:title="PHG4Hit::set_t">
<polygon fill="none" stroke="#000000" points="391.5,-156.5 391.5,-176.5 481.5,-176.5 481.5,-156.5 391.5,-156.5"/>
<text text-anchor="middle" x="436.5" y="-163.5" font-family="FreeSans" font-size="10.00" fill="#000000">PHG4Hit::set_t</text>
</a>
</g>
</g>
<!-- Node2&#45;&gt;Node8 -->
<g id="edge8" class="edge">
<title>Node2&#45;&gt;Node8</title>
<path fill="none" stroke="#191970" d="M326.0893,-177.9634C344.5247,-176.0493 364.0311,-174.0241 381.4354,-172.2171"/>
<polygon fill="#191970" stroke="#191970" points="381.8308,-175.6949 391.4158,-171.1809 381.1078,-168.7324 381.8308,-175.6949"/>
</g>
<!-- Node9 -->
<g id="node9" class="node">
<title>Node9</title>
<g id="a_node9"><a xlink:href="../../d3/d9e/classPHG4Hit.html#ac4e7f18a0d54ec275128651928e69531" target="_top" xlink:title="PHG4Hit::set_trkid">
<polygon fill="none" stroke="#000000" points="382.5,-117.5 382.5,-137.5 490.5,-137.5 490.5,-117.5 382.5,-117.5"/>
<text text-anchor="middle" x="436.5" y="-124.5" font-family="FreeSans" font-size="10.00" fill="#000000">PHG4Hit::set_trkid</text>
</a>
</g>
</g>
<!-- Node2&#45;&gt;Node9 -->
<g id="edge9" class="edge">
<title>Node2&#45;&gt;Node9</title>
<path fill="none" stroke="#191970" d="M296.8096,-169.4996C316.5764,-162.4122 340.3558,-154.1853 362,-147.5 370.0932,-145.0002 378.7349,-142.5148 387.1602,-140.1893"/>
<polygon fill="#191970" stroke="#191970" points="388.173,-143.5411 396.9054,-137.5415 386.3375,-136.786 388.173,-143.5411"/>
</g>
<!-- Node10 -->
<g id="node10" class="node">
<title>Node10</title>
<g id="a_node10"><a xlink:href="../../d3/d9e/classPHG4Hit.html#aa91398b4546e9d099443217e1577f79b" target="_top" xlink:title="PHG4Hit::set_x">
<polygon fill="none" stroke="#000000" points="390.5,-78.5 390.5,-98.5 482.5,-98.5 482.5,-78.5 390.5,-78.5"/>
<text text-anchor="middle" x="436.5" y="-85.5" font-family="FreeSans" font-size="10.00" fill="#000000">PHG4Hit::set_x</text>
</a>
</g>
</g>
<!-- Node2&#45;&gt;Node10 -->
<g id="edge10" class="edge">
<title>Node2&#45;&gt;Node10</title>
<path fill="none" stroke="#191970" d="M271.8098,-169.3786C292.4092,-152.0218 327.5136,-124.7242 362,-108.5 367.8053,-105.7689 374.0467,-103.3596 380.3578,-101.2472"/>
<polygon fill="#191970" stroke="#191970" points="381.7662,-104.4749 390.2799,-98.1688 379.6919,-97.7893 381.7662,-104.4749"/>
</g>
<!-- Node11 -->
<g id="node11" class="node">
<title>Node11</title>
<g id="a_node11"><a xlink:href="../../d3/d9e/classPHG4Hit.html#a3ab7971f354374b005f9a11fd761b53e" target="_top" xlink:title="PHG4Hit::set_y">
<polygon fill="none" stroke="#000000" points="390.5,-39.5 390.5,-59.5 482.5,-59.5 482.5,-39.5 390.5,-39.5"/>
<text text-anchor="middle" x="436.5" y="-46.5" font-family="FreeSans" font-size="10.00" fill="#000000">PHG4Hit::set_y</text>
</a>
</g>
</g>
<!-- Node2&#45;&gt;Node11 -->
<g id="edge11" class="edge">
<title>Node2&#45;&gt;Node11</title>
<path fill="none" stroke="#191970" d="M264.0959,-169.33C281.4771,-144.1125 318.4949,-95.6098 362,-69.5 367.7862,-66.0274 374.1811,-63.1469 380.7208,-60.7601"/>
<polygon fill="#191970" stroke="#191970" points="381.9385,-64.0443 390.3518,-57.6048 379.7591,-57.3922 381.9385,-64.0443"/>
</g>
<!-- Node12 -->
<g id="node12" class="node">
<title>Node12</title>
<g id="a_node12"><a xlink:href="../../d3/d9e/classPHG4Hit.html#a896d7a45139f9cbc2e429127baa61715" target="_top" xlink:title="PHG4Hit::set_z">
<polygon fill="none" stroke="#000000" points="391,-.5 391,-20.5 482,-20.5 482,-.5 391,-.5"/>
<text text-anchor="middle" x="436.5" y="-7.5" font-family="FreeSans" font-size="10.00" fill="#000000">PHG4Hit::set_z</text>
</a>
</g>
</g>
<!-- Node2&#45;&gt;Node12 -->
<g id="edge12" class="edge">
<title>Node2&#45;&gt;Node12</title>
<path fill="none" stroke="#191970" d="M260.3262,-169.0636C274.4118,-137.2253 309.8114,-67.0667 362,-30.5 367.7478,-26.4727 374.2643,-23.2562 380.9941,-20.6872"/>
<polygon fill="#191970" stroke="#191970" points="382.5638,-23.8532 390.9417,-17.3677 380.348,-17.2131 382.5638,-23.8532"/>
</g>
<!-- Node3&#45;&gt;Node4 -->
<g id="edge3" class="edge">
<title>Node3&#45;&gt;Node4</title>
<path fill="none" stroke="#191970" d="M511.4315,-352.5529C519.8535,-351.5473 528.3958,-350.5274 536.7125,-349.5343"/>
<polygon fill="#191970" stroke="#191970" points="537.2076,-353.0002 546.7221,-348.3392 536.3776,-346.0495 537.2076,-353.0002"/>
</g>
</g>
</svg>
