<?xml version="1.0" encoding="UTF-8" standalone="no"?>
<!DOCTYPE svg PUBLIC "-//W3C//DTD SVG 1.1//EN"
 "http://www.w3.org/Graphics/SVG/1.1/DTD/svg11.dtd">
<!-- Generated by graphviz version 2.40.1 (20161225.0304)
 -->
<!-- Title: PHG4MvtxHitReco::process_event Pages: 1 -->
<svg width="533pt" height="1229pt"
 viewBox="0.00 0.00 533.00 1229.00" xmlns="http://www.w3.org/2000/svg" xmlns:xlink="http://www.w3.org/1999/xlink">
<g id="graph0" class="graph" transform="scale(1 1) rotate(0) translate(4 1225)">
<title>PHG4MvtxHitReco::process_event</title>
<!-- Node1 -->
<g id="node1" class="node">
<title>Node1</title>
<polygon fill="#bfbfbf" stroke="#000000" points="0,-606.5 0,-638.5 153,-638.5 153,-606.5 0,-606.5"/>
<text text-anchor="start" x="8" y="-625.5" font-family="FreeSans" font-size="10.00" fill="#000000">PHG4MvtxHitReco::process</text>
<text text-anchor="middle" x="76.5" y="-613.5" font-family="FreeSans" font-size="10.00" fill="#000000">_event</text>
</g>
<!-- Node2 -->
<g id="node2" class="node">
<title>Node2</title>
<g id="a_node2"><a xlink:href="../../d7/d8d/classTrkrHitTruthAssoc.html#aaf95f2919514c9ed6379a193cbc0a213" target="_top" xlink:title="Add an association between hit and cell.">
<polygon fill="none" stroke="#000000" points="216.5,-1188.5 216.5,-1220.5 327.5,-1220.5 327.5,-1188.5 216.5,-1188.5"/>
<text text-anchor="start" x="224.5" y="-1207.5" font-family="FreeSans" font-size="10.00" fill="#000000">TrkrHitTruthAssoc::</text>
<text text-anchor="middle" x="272" y="-1195.5" font-family="FreeSans" font-size="10.00" fill="#000000">addAssoc</text>
</a>
</g>
</g>
<!-- Node1&#45;&gt;Node2 -->
<g id="edge1" class="edge">
<title>Node1&#45;&gt;Node2</title>
<path fill="none" stroke="#191970" d="M77.5628,-638.5885C83.3294,-721.1437 113.4345,-1096.5363 189,-1179.5 194.0162,-1185.0073 200.1957,-1189.3195 206.9012,-1192.6929"/>
<polygon fill="#191970" stroke="#191970" points="205.7415,-1196.004 216.3111,-1196.7352 208.5044,-1189.5723 205.7415,-1196.004"/>
</g>
<!-- Node3 -->
<g id="node3" class="node">
<title>Node3</title>
<g id="a_node3"><a xlink:href="../../da/d9b/classTrkrHit.html#a909983335d59e47756e33de3122cc147" target="_top" xlink:title="TrkrHit::addEnergy">
<polygon fill="none" stroke="#000000" points="216,-1149.5 216,-1169.5 328,-1169.5 328,-1149.5 216,-1149.5"/>
<text text-anchor="middle" x="272" y="-1156.5" font-family="FreeSans" font-size="10.00" fill="#000000">TrkrHit::addEnergy</text>
</a>
</g>
</g>
<!-- Node1&#45;&gt;Node3 -->
<g id="edge2" class="edge">
<title>Node1&#45;&gt;Node3</title>
<path fill="none" stroke="#191970" d="M77.718,-638.5981C84.0446,-717.9252 115.7179,-1066.3942 189,-1140.5 193.8885,-1145.4435 199.7822,-1149.2118 206.1468,-1152.07"/>
<polygon fill="#191970" stroke="#191970" points="205.1533,-1155.4346 215.7462,-1155.6372 207.5917,-1148.873 205.1533,-1155.4346"/>
</g>
<!-- Node4 -->
<g id="node4" class="node">
<title>Node4</title>
<g id="a_node4"><a xlink:href="../../df/d02/classPHG4Utils.html#ae0a28ae191425ed79fa4a2275ad933e6" target="_top" xlink:title="PHG4Utils::circle_rectangle\l_intersection">
<polygon fill="none" stroke="#000000" points="195.5,-1098.5 195.5,-1130.5 348.5,-1130.5 348.5,-1098.5 195.5,-1098.5"/>
<text text-anchor="start" x="203.5" y="-1117.5" font-family="FreeSans" font-size="10.00" fill="#000000">PHG4Utils::circle_rectangle</text>
<text text-anchor="middle" x="272" y="-1105.5" font-family="FreeSans" font-size="10.00" fill="#000000">_intersection</text>
</a>
</g>
</g>
<!-- Node1&#45;&gt;Node4 -->
<g id="edge3" class="edge">
<title>Node1&#45;&gt;Node4</title>
<path fill="none" stroke="#191970" d="M78.2698,-638.882C86.6563,-713.6144 124.6913,-1021.4739 189,-1089.5 189.9014,-1090.4535 190.8376,-1091.371 191.8053,-1092.2539"/>
<polygon fill="#191970" stroke="#191970" points="189.7172,-1095.0632 199.7836,-1098.3674 193.9748,-1089.5069 189.7172,-1095.0632"/>
</g>
<!-- Node5 -->
<g id="node5" class="node">
<title>Node5</title>
<g id="a_node5"><a xlink:href="../../da/d55/TPCRateLayered_8m.html#ac40e4ec8f2a74a2878f06670249eebb8" target="_top" xlink:title="double">
<polygon fill="none" stroke="#000000" points="432.5,-778.5 432.5,-798.5 483.5,-798.5 483.5,-778.5 432.5,-778.5"/>
<text text-anchor="middle" x="458" y="-785.5" font-family="FreeSans" font-size="10.00" fill="#000000">double</text>
</a>
</g>
</g>
<!-- Node1&#45;&gt;Node5 -->
<g id="edge4" class="edge">
<title>Node1&#45;&gt;Node5</title>
<path fill="none" stroke="#191970" d="M86.2746,-638.7436C103.4011,-665.6316 141.5647,-718.9537 189,-744.5 228.763,-765.9144 358.7742,-779.8561 422.3501,-785.5637"/>
<polygon fill="#191970" stroke="#191970" points="422.0552,-789.0512 432.3233,-786.4403 422.6681,-782.0781 422.0552,-789.0512"/>
</g>
<!-- Node6 -->
<g id="node6" class="node">
<title>Node6</title>
<g id="a_node6"><a xlink:href="../../d5/d76/classTrkrHitSetContainer.html#a0c28f7bd30e3cad6421d9aad16c45996" target="_top" xlink:title="find or add HitSet">
<polygon fill="none" stroke="#000000" points="213.5,-1008.5 213.5,-1040.5 330.5,-1040.5 330.5,-1008.5 213.5,-1008.5"/>
<text text-anchor="start" x="221.5" y="-1027.5" font-family="FreeSans" font-size="10.00" fill="#000000">TrkrHitSetContainer</text>
<text text-anchor="middle" x="272" y="-1015.5" font-family="FreeSans" font-size="10.00" fill="#000000">::findOrAddHitSet</text>
</a>
</g>
</g>
<!-- Node1&#45;&gt;Node6 -->
<g id="edge5" class="edge">
<title>Node1&#45;&gt;Node6</title>
<path fill="none" stroke="#191970" d="M79.2447,-638.7172C90.5845,-703.9272 135.6994,-946.0625 189,-999.5 193.4636,-1003.9751 198.6967,-1007.6547 204.3266,-1010.6794"/>
<polygon fill="#191970" stroke="#191970" points="202.9027,-1013.8771 213.4467,-1014.9137 205.8504,-1007.528 202.9027,-1013.8771"/>
</g>
<!-- Node7 -->
<g id="node7" class="node">
<title>Node7</title>
<g id="a_node7"><a xlink:href="../../d8/df1/namespaceMvtxDefs.html#aab01141e07c6e3c7151b44a79b8090be" target="_top" xlink:title="Generate a hitkey from a pixels column and row index.">
<polygon fill="none" stroke="#000000" points="211,-969.5 211,-989.5 333,-989.5 333,-969.5 211,-969.5"/>
<text text-anchor="middle" x="272" y="-976.5" font-family="FreeSans" font-size="10.00" fill="#000000">MvtxDefs::genHitKey</text>
</a>
</g>
</g>
<!-- Node1&#45;&gt;Node7 -->
<g id="edge6" class="edge">
<title>Node1&#45;&gt;Node7</title>
<path fill="none" stroke="#191970" d="M79.729,-638.7877C92.1775,-699.9826 138.8655,-914.9736 189,-960.5 192.7037,-963.8633 196.8788,-966.6694 201.3359,-969.0068"/>
<polygon fill="#191970" stroke="#191970" points="200.2568,-972.3557 210.8199,-973.1749 203.0732,-965.9472 200.2568,-972.3557"/>
</g>
<!-- Node8 -->
<g id="node8" class="node">
<title>Node8</title>
<g id="a_node8"><a xlink:href="../../d8/df1/namespaceMvtxDefs.html#a6e4f95c436d9185eb99405c4ec3f4d7b" target="_top" xlink:title="Generate a hitsetkey for the mvtx.">
<polygon fill="none" stroke="#000000" points="202.5,-1059.5 202.5,-1079.5 341.5,-1079.5 341.5,-1059.5 202.5,-1059.5"/>
<text text-anchor="middle" x="272" y="-1066.5" font-family="FreeSans" font-size="10.00" fill="#000000">MvtxDefs::genHitSetKey</text>
</a>
</g>
</g>
<!-- Node1&#45;&gt;Node8 -->
<g id="edge7" class="edge">
<title>Node1&#45;&gt;Node8</title>
<path fill="none" stroke="#191970" d="M78.4971,-638.5548C87.592,-709.1077 127.3264,-990.7689 189,-1050.5 190.4733,-1051.9269 192.0308,-1053.255 193.6589,-1054.4907"/>
<polygon fill="#191970" stroke="#191970" points="191.9954,-1057.5789 202.3261,-1059.9301 195.7164,-1051.6498 191.9954,-1057.5789"/>
</g>
<!-- Node10 -->
<g id="node10" class="node">
<title>Node10</title>
<g id="a_node10"><a xlink:href="../../df/d9b/classCylinderGeom__Mvtx.html#a996352dc1e7b799ce9067f62bd5b614a" target="_top" xlink:title="CylinderGeom_Mvtx::\lget_layer">
<polygon fill="none" stroke="#000000" points="210,-855.5 210,-887.5 334,-887.5 334,-855.5 210,-855.5"/>
<text text-anchor="start" x="218" y="-874.5" font-family="FreeSans" font-size="10.00" fill="#000000">CylinderGeom_Mvtx::</text>
<text text-anchor="middle" x="272" y="-862.5" font-family="FreeSans" font-size="10.00" fill="#000000">get_layer</text>
</a>
</g>
</g>
<!-- Node1&#45;&gt;Node10 -->
<g id="edge9" class="edge">
<title>Node1&#45;&gt;Node10</title>
<path fill="none" stroke="#191970" d="M79.9845,-638.7938C89.649,-679.9891 120.7074,-789.0989 189,-846.5 192.5299,-849.4669 196.4038,-852.0818 200.4889,-854.3863"/>
<polygon fill="#191970" stroke="#191970" points="199.2023,-857.6547 209.7175,-858.9519 202.3064,-851.3805 199.2023,-857.6547"/>
</g>
<!-- Node11 -->
<g id="node11" class="node">
<title>Node11</title>
<g id="a_node11"><a xlink:href="../../df/d9b/classCylinderGeom__Mvtx.html#a57c4360f58914dd88fabd4b3001e49b8" target="_top" xlink:title="CylinderGeom_Mvtx::\lget_local_coords_from_pixel">
<polygon fill="none" stroke="#000000" points="193,-702.5 193,-734.5 351,-734.5 351,-702.5 193,-702.5"/>
<text text-anchor="start" x="201" y="-721.5" font-family="FreeSans" font-size="10.00" fill="#000000">CylinderGeom_Mvtx::</text>
<text text-anchor="middle" x="272" y="-709.5" font-family="FreeSans" font-size="10.00" fill="#000000">get_local_coords_from_pixel</text>
</a>
</g>
</g>
<!-- Node1&#45;&gt;Node11 -->
<g id="edge10" class="edge">
<title>Node1&#45;&gt;Node11</title>
<path fill="none" stroke="#191970" d="M101.7611,-638.7253C124.1431,-652.702 157.9892,-672.8748 189,-687.5 197.3779,-691.4511 206.4069,-695.2588 215.3172,-698.7717"/>
<polygon fill="#191970" stroke="#191970" points="214.313,-702.1355 224.9028,-702.4609 216.8273,-695.6026 214.313,-702.1355"/>
</g>
<!-- Node12 -->
<g id="node12" class="node">
<title>Node12</title>
<g id="a_node12"><a xlink:href="../../df/d9b/classCylinderGeom__Mvtx.html#acff5517b65e513c7c84c70723c953c02" target="_top" xlink:title="CylinderGeom_Mvtx::\lget_NX">
<polygon fill="none" stroke="#000000" points="396,-486.5 396,-518.5 520,-518.5 520,-486.5 396,-486.5"/>
<text text-anchor="start" x="404" y="-505.5" font-family="FreeSans" font-size="10.00" fill="#000000">CylinderGeom_Mvtx::</text>
<text text-anchor="middle" x="458" y="-493.5" font-family="FreeSans" font-size="10.00" fill="#000000">get_NX</text>
</a>
</g>
</g>
<!-- Node1&#45;&gt;Node12 -->
<g id="edge16" class="edge">
<title>Node1&#45;&gt;Node12</title>
<path fill="none" stroke="#191970" d="M77.7206,-606.227C82.263,-558.734 102.7098,-420.0976 189,-363.5 250.6917,-323.0365 289.1068,-330.315 355,-363.5 401.9193,-387.1294 432.8059,-443.3555 447.6658,-476.6061"/>
<polygon fill="#191970" stroke="#191970" points="444.5948,-478.3243 451.763,-486.1261 451.0246,-475.5571 444.5948,-478.3243"/>
</g>
<!-- Node13 -->
<g id="node13" class="node">
<title>Node13</title>
<g id="a_node13"><a xlink:href="../../df/d9b/classCylinderGeom__Mvtx.html#a6ca4f1e9e40e3d1c8c75919b8ba4c59d" target="_top" xlink:title="CylinderGeom_Mvtx::\lget_NZ">
<polygon fill="none" stroke="#000000" points="396,-657.5 396,-689.5 520,-689.5 520,-657.5 396,-657.5"/>
<text text-anchor="start" x="404" y="-676.5" font-family="FreeSans" font-size="10.00" fill="#000000">CylinderGeom_Mvtx::</text>
<text text-anchor="middle" x="458" y="-664.5" font-family="FreeSans" font-size="10.00" fill="#000000">get_NZ</text>
</a>
</g>
</g>
<!-- Node1&#45;&gt;Node13 -->
<g id="edge17" class="edge">
<title>Node1&#45;&gt;Node13</title>
<path fill="none" stroke="#191970" d="M124.7201,-638.5833C144.4355,-644.5355 167.6,-650.7423 189,-654.5 254.9552,-666.0812 331.1822,-670.6523 385.614,-672.4314"/>
<polygon fill="#191970" stroke="#191970" points="385.7567,-675.9372 395.8581,-672.7417 385.9687,-668.9404 385.7567,-675.9372"/>
</g>
<!-- Node14 -->
<g id="node14" class="node">
<title>Node14</title>
<g id="a_node14"><a xlink:href="../../df/d9b/classCylinderGeom__Mvtx.html#a5ae0ac26d7f45c935a577263cdba5d72" target="_top" xlink:title="CylinderGeom_Mvtx::\lget_local_from_world\l_coords">
<polygon fill="none" stroke="#000000" points="210,-792.5 210,-836.5 334,-836.5 334,-792.5 210,-792.5"/>
<text text-anchor="start" x="218" y="-823.5" font-family="FreeSans" font-size="10.00" fill="#000000">CylinderGeom_Mvtx::</text>
<text text-anchor="start" x="218" y="-811.5" font-family="FreeSans" font-size="10.00" fill="#000000">get_local_from_world</text>
<text text-anchor="middle" x="272" y="-799.5" font-family="FreeSans" font-size="10.00" fill="#000000">_coords</text>
</a>
</g>
</g>
<!-- Node1&#45;&gt;Node14 -->
<g id="edge14" class="edge">
<title>Node1&#45;&gt;Node14</title>
<path fill="none" stroke="#191970" d="M84.5287,-638.6993C100.5207,-669.513 139.1468,-737.0907 189,-777.5 193.4754,-781.1276 198.3627,-784.4731 203.4535,-787.5432"/>
<polygon fill="#191970" stroke="#191970" points="201.7446,-790.5977 212.1761,-792.4512 205.1773,-784.4971 201.7446,-790.5977"/>
</g>
<!-- Node15 -->
<g id="node15" class="node">
<title>Node15</title>
<g id="a_node15"><a xlink:href="../../df/d9b/classCylinderGeom__Mvtx.html#ac4abb4cdffed9d08997a74e5bda7d1f9" target="_top" xlink:title="CylinderGeom_Mvtx::\lget_pixel_from_local\l_coords">
<polygon fill="none" stroke="#000000" points="210,-600.5 210,-644.5 334,-644.5 334,-600.5 210,-600.5"/>
<text text-anchor="start" x="218" y="-631.5" font-family="FreeSans" font-size="10.00" fill="#000000">CylinderGeom_Mvtx::</text>
<text text-anchor="start" x="218" y="-619.5" font-family="FreeSans" font-size="10.00" fill="#000000">get_pixel_from_local</text>
<text text-anchor="middle" x="272" y="-607.5" font-family="FreeSans" font-size="10.00" fill="#000000">_coords</text>
</a>
</g>
</g>
<!-- Node1&#45;&gt;Node15 -->
<g id="edge18" class="edge">
<title>Node1&#45;&gt;Node15</title>
<path fill="none" stroke="#191970" d="M153.2057,-622.5C168.5029,-622.5 184.5219,-622.5 199.6663,-622.5"/>
<polygon fill="#191970" stroke="#191970" points="199.9915,-626.0001 209.9915,-622.5 199.9915,-619.0001 199.9915,-626.0001"/>
</g>
<!-- Node16 -->
<g id="node16" class="node">
<title>Node16</title>
<g id="a_node16"><a xlink:href="../../df/d9b/classCylinderGeom__Mvtx.html#aa0c4bdda48c848625153de08fdfa2203" target="_top" xlink:title="CylinderGeom_Mvtx::\lget_pixel_number_from\l_xbin_zbin">
<polygon fill="none" stroke="#000000" points="204.5,-270.5 204.5,-314.5 339.5,-314.5 339.5,-270.5 204.5,-270.5"/>
<text text-anchor="start" x="212.5" y="-301.5" font-family="FreeSans" font-size="10.00" fill="#000000">CylinderGeom_Mvtx::</text>
<text text-anchor="start" x="212.5" y="-289.5" font-family="FreeSans" font-size="10.00" fill="#000000">get_pixel_number_from</text>
<text text-anchor="middle" x="272" y="-277.5" font-family="FreeSans" font-size="10.00" fill="#000000">_xbin_zbin</text>
</a>
</g>
</g>
<!-- Node1&#45;&gt;Node16 -->
<g id="edge21" class="edge">
<title>Node1&#45;&gt;Node16</title>
<path fill="none" stroke="#191970" d="M78.3717,-606.2547C84.7572,-557.8702 109.8748,-412.9123 189,-329.5 192.1386,-326.1914 195.6266,-323.1582 199.3451,-320.3804"/>
<polygon fill="#191970" stroke="#191970" points="201.4557,-323.1792 207.8078,-314.6997 197.5542,-317.3672 201.4557,-323.1792"/>
</g>
<!-- Node17 -->
<g id="node17" class="node">
<title>Node17</title>
<g id="a_node17"><a xlink:href="../../df/d9b/classCylinderGeom__Mvtx.html#a1c597212fb9dfe8c8a84398a6a93de62" target="_top" xlink:title="CylinderGeom_Mvtx::\lget_pixel_x">
<polygon fill="none" stroke="#000000" points="210,-486.5 210,-518.5 334,-518.5 334,-486.5 210,-486.5"/>
<text text-anchor="start" x="218" y="-505.5" font-family="FreeSans" font-size="10.00" fill="#000000">CylinderGeom_Mvtx::</text>
<text text-anchor="middle" x="272" y="-493.5" font-family="FreeSans" font-size="10.00" fill="#000000">get_pixel_x</text>
</a>
</g>
</g>
<!-- Node1&#45;&gt;Node17 -->
<g id="edge23" class="edge">
<title>Node1&#45;&gt;Node17</title>
<path fill="none" stroke="#191970" d="M91.7693,-606.2781C112.1275,-585.5226 150.1312,-549.7245 189,-528.5 192.9842,-526.3244 197.1772,-524.3012 201.4751,-522.4247"/>
<polygon fill="#191970" stroke="#191970" points="203.0651,-525.5566 211.0111,-518.5486 200.4292,-519.0718 203.0651,-525.5566"/>
</g>
<!-- Node18 -->
<g id="node18" class="node">
<title>Node18</title>
<g id="a_node18"><a xlink:href="../../df/d9b/classCylinderGeom__Mvtx.html#af559c0b9554152f1269785d71bb26a96" target="_top" xlink:title="CylinderGeom_Mvtx::\lget_pixel_X_from_pixel\l_number">
<polygon fill="none" stroke="#000000" points="206.5,-537.5 206.5,-581.5 337.5,-581.5 337.5,-537.5 206.5,-537.5"/>
<text text-anchor="start" x="214.5" y="-568.5" font-family="FreeSans" font-size="10.00" fill="#000000">CylinderGeom_Mvtx::</text>
<text text-anchor="start" x="214.5" y="-556.5" font-family="FreeSans" font-size="10.00" fill="#000000">get_pixel_X_from_pixel</text>
<text text-anchor="middle" x="272" y="-544.5" font-family="FreeSans" font-size="10.00" fill="#000000">_number</text>
</a>
</g>
</g>
<!-- Node1&#45;&gt;Node18 -->
<g id="edge24" class="edge">
<title>Node1&#45;&gt;Node18</title>
<path fill="none" stroke="#191970" d="M126.3387,-606.4394C147.716,-599.5506 173.1549,-591.3529 196.7455,-583.7508"/>
<polygon fill="#191970" stroke="#191970" points="197.9311,-587.0461 206.3755,-580.6475 195.784,-580.3835 197.9311,-587.0461"/>
</g>
<!-- Node19 -->
<g id="node19" class="node">
<title>Node19</title>
<g id="a_node19"><a xlink:href="../../df/d9b/classCylinderGeom__Mvtx.html#a6741718d8418e52e578021aa114dc60e" target="_top" xlink:title="CylinderGeom_Mvtx::\lget_pixel_z">
<polygon fill="none" stroke="#000000" points="210,-372.5 210,-404.5 334,-404.5 334,-372.5 210,-372.5"/>
<text text-anchor="start" x="218" y="-391.5" font-family="FreeSans" font-size="10.00" fill="#000000">CylinderGeom_Mvtx::</text>
<text text-anchor="middle" x="272" y="-379.5" font-family="FreeSans" font-size="10.00" fill="#000000">get_pixel_z</text>
</a>
</g>
</g>
<!-- Node1&#45;&gt;Node19 -->
<g id="edge26" class="edge">
<title>Node1&#45;&gt;Node19</title>
<path fill="none" stroke="#191970" d="M80.6994,-606.2611C91.6299,-567.237 124.6856,-467.5034 189,-414.5 192.5705,-411.5574 196.4753,-408.9468 200.5833,-406.6308"/>
<polygon fill="#191970" stroke="#191970" points="202.4583,-409.6071 209.85,-402.0168 199.3382,-403.3409 202.4583,-409.6071"/>
</g>
<!-- Node20 -->
<g id="node20" class="node">
<title>Node20</title>
<g id="a_node20"><a xlink:href="../../df/d9b/classCylinderGeom__Mvtx.html#a5545da6f1b8fca9ec720d87874899b01" target="_top" xlink:title="CylinderGeom_Mvtx::\lget_pixel_Z_from_pixel\l_number">
<polygon fill="none" stroke="#000000" points="206.5,-423.5 206.5,-467.5 337.5,-467.5 337.5,-423.5 206.5,-423.5"/>
<text text-anchor="start" x="214.5" y="-454.5" font-family="FreeSans" font-size="10.00" fill="#000000">CylinderGeom_Mvtx::</text>
<text text-anchor="start" x="214.5" y="-442.5" font-family="FreeSans" font-size="10.00" fill="#000000">get_pixel_Z_from_pixel</text>
<text text-anchor="middle" x="272" y="-430.5" font-family="FreeSans" font-size="10.00" fill="#000000">_number</text>
</a>
</g>
</g>
<!-- Node1&#45;&gt;Node20 -->
<g id="edge27" class="edge">
<title>Node1&#45;&gt;Node20</title>
<path fill="none" stroke="#191970" d="M85.1307,-606.2271C101.5787,-576.6573 140.168,-513.8169 189,-477.5 191.6643,-475.5185 194.4665,-473.6442 197.3647,-471.8729"/>
<polygon fill="#191970" stroke="#191970" points="199.2915,-474.8054 206.3051,-466.8644 195.8702,-468.6984 199.2915,-474.8054"/>
</g>
<!-- Node21 -->
<g id="node21" class="node">
<title>Node21</title>
<g id="a_node21"><a xlink:href="../../df/d9b/classCylinderGeom__Mvtx.html#aede358e384b225e6555bed9292f0310c" target="_top" xlink:title="CylinderGeom_Mvtx::\lget_world_from_local\l_coords">
<polygon fill="none" stroke="#000000" points="210,-906.5 210,-950.5 334,-950.5 334,-906.5 210,-906.5"/>
<text text-anchor="start" x="218" y="-937.5" font-family="FreeSans" font-size="10.00" fill="#000000">CylinderGeom_Mvtx::</text>
<text text-anchor="start" x="218" y="-925.5" font-family="FreeSans" font-size="10.00" fill="#000000">get_world_from_local</text>
<text text-anchor="middle" x="272" y="-913.5" font-family="FreeSans" font-size="10.00" fill="#000000">_coords</text>
</a>
</g>
</g>
<!-- Node1&#45;&gt;Node21 -->
<g id="edge29" class="edge">
<title>Node1&#45;&gt;Node21</title>
<path fill="none" stroke="#191970" d="M78.5586,-638.6423C85.3484,-685.3498 111.2292,-822.0936 189,-897.5 192.5408,-900.9331 196.4965,-903.9925 200.7078,-906.718"/>
<polygon fill="#191970" stroke="#191970" points="199.2446,-909.9137 209.6599,-911.8562 202.7292,-903.8426 199.2446,-909.9137"/>
</g>
<!-- Node22 -->
<g id="node22" class="node">
<title>Node22</title>
<g id="a_node22"><a xlink:href="../../d4/d30/classPHG4HitContainer.html#aec01041c4b9347f93832704e142b2439" target="_top" xlink:title="return all hits matching a given detid">
<polygon fill="none" stroke="#000000" points="196.5,-231.5 196.5,-251.5 347.5,-251.5 347.5,-231.5 196.5,-231.5"/>
<text text-anchor="middle" x="272" y="-238.5" font-family="FreeSans" font-size="10.00" fill="#000000">PHG4HitContainer::getHits</text>
</a>
</g>
</g>
<!-- Node1&#45;&gt;Node22 -->
<g id="edge31" class="edge">
<title>Node1&#45;&gt;Node22</title>
<path fill="none" stroke="#191970" d="M79.3424,-606.4533C90.8861,-543.0411 136.1713,-310.9701 189,-261.5 190.8933,-259.727 192.9157,-258.103 195.0406,-256.6158"/>
<polygon fill="#191970" stroke="#191970" points="196.8411,-259.6174 203.6886,-251.5326 193.294,-253.5826 196.8411,-259.6174"/>
</g>
<!-- Node23 -->
<g id="node23" class="node">
<title>Node23</title>
<g id="a_node23"><a xlink:href="../../d4/de7/classPHG4CylinderGeomContainer.html#a08321019aaff5f57cd416b64d0f536bf" target="_top" xlink:title="PHG4CylinderGeomContainer\l::GetLayerGeom">
<polygon fill="none" stroke="#000000" points="189,-180.5 189,-212.5 355,-212.5 355,-180.5 189,-180.5"/>
<text text-anchor="start" x="197" y="-199.5" font-family="FreeSans" font-size="10.00" fill="#000000">PHG4CylinderGeomContainer</text>
<text text-anchor="middle" x="272" y="-187.5" font-family="FreeSans" font-size="10.00" fill="#000000">::GetLayerGeom</text>
</a>
</g>
</g>
<!-- Node1&#45;&gt;Node23 -->
<g id="edge32" class="edge">
<title>Node1&#45;&gt;Node23</title>
<path fill="none" stroke="#191970" d="M78.9517,-606.1906C89.4679,-538.2753 132.7909,-278.7899 189,-221.5 189.9486,-220.5332 190.933,-219.6035 191.9497,-218.7094"/>
<polygon fill="#191970" stroke="#191970" points="194.35,-221.2877 200.313,-212.5302 190.1902,-215.6577 194.35,-221.2877"/>
</g>
<!-- Node24 -->
<g id="node24" class="node">
<title>Node24</title>
<g id="a_node24"><a xlink:href="../../d4/d30/classPHG4HitContainer.html#a51b7c5421967435199b92eb422435361" target="_top" xlink:title="PHG4HitContainer::getLayers">
<polygon fill="none" stroke="#000000" points="190,-141.5 190,-161.5 354,-161.5 354,-141.5 190,-141.5"/>
<text text-anchor="middle" x="272" y="-148.5" font-family="FreeSans" font-size="10.00" fill="#000000">PHG4HitContainer::getLayers</text>
</a>
</g>
</g>
<!-- Node1&#45;&gt;Node24 -->
<g id="edge33" class="edge">
<title>Node1&#45;&gt;Node24</title>
<path fill="none" stroke="#191970" d="M78.3037,-606.0516C86.7059,-532.4212 124.3548,-233.9348 189,-170.5 190.1211,-169.3999 191.292,-168.3585 192.5068,-167.3726"/>
<polygon fill="#191970" stroke="#191970" points="194.7204,-170.1033 201.0965,-161.6419 190.8354,-164.2803 194.7204,-170.1033"/>
</g>
<!-- Node25 -->
<g id="node25" class="node">
<title>Node25</title>
<g id="a_node25"><a xlink:href="../../df/d9b/classCylinderGeom__Mvtx.html#a4642f211b3b670f91bbe7eab1d6507b7" target="_top" xlink:title="CylinderGeom_Mvtx::\lidentify">
<polygon fill="none" stroke="#000000" points="210,-90.5 210,-122.5 334,-122.5 334,-90.5 210,-90.5"/>
<text text-anchor="start" x="218" y="-109.5" font-family="FreeSans" font-size="10.00" fill="#000000">CylinderGeom_Mvtx::</text>
<text text-anchor="middle" x="272" y="-97.5" font-family="FreeSans" font-size="10.00" fill="#000000">identify</text>
</a>
</g>
</g>
<!-- Node1&#45;&gt;Node25 -->
<g id="edge34" class="edge">
<title>Node1&#45;&gt;Node25</title>
<path fill="none" stroke="#191970" d="M78.0427,-606.3195C85.6648,-529.6366 121.6639,-203.5293 189,-131.5 192.4172,-127.8447 196.3469,-124.7171 200.5983,-122.0419"/>
<polygon fill="#191970" stroke="#191970" points="202.5507,-124.9667 209.7156,-117.1619 199.2474,-118.7952 202.5507,-124.9667"/>
</g>
<!-- Node26 -->
<g id="node26" class="node">
<title>Node26</title>
<g id="a_node26"><a xlink:href="../../d7/d8d/classTrkrHitTruthAssoc.html#a08659167073d37c3cd04567586afc31e" target="_top" xlink:title="TrkrHitTruthAssoc::\lidentify">
<polygon fill="none" stroke="#000000" points="216.5,-39.5 216.5,-71.5 327.5,-71.5 327.5,-39.5 216.5,-39.5"/>
<text text-anchor="start" x="224.5" y="-58.5" font-family="FreeSans" font-size="10.00" fill="#000000">TrkrHitTruthAssoc::</text>
<text text-anchor="middle" x="272" y="-46.5" font-family="FreeSans" font-size="10.00" fill="#000000">identify</text>
</a>
</g>
</g>
<!-- Node1&#45;&gt;Node26 -->
<g id="edge35" class="edge">
<title>Node1&#45;&gt;Node26</title>
<path fill="none" stroke="#191970" d="M77.668,-606.3068C83.8548,-524.8838 115.3344,-160.9433 189,-80.5 194.031,-75.0062 200.2195,-70.7022 206.93,-67.3334"/>
<polygon fill="#191970" stroke="#191970" points="208.5338,-70.4539 216.3443,-63.2952 205.7744,-64.0207 208.5338,-70.4539"/>
</g>
<!-- Node28 -->
<g id="node28" class="node">
<title>Node28</title>
<g id="a_node28"><a xlink:href="../../d5/dec/classFun4AllBase.html#a8a5c77a92bdac6bc043476e132379a40" target="_top" xlink:title="Gets the verbosity of this module.">
<polygon fill="none" stroke="#000000" points="206,-.5 206,-20.5 338,-20.5 338,-.5 206,-.5"/>
<text text-anchor="middle" x="272" y="-7.5" font-family="FreeSans" font-size="10.00" fill="#000000">Fun4AllBase::Verbosity</text>
</a>
</g>
</g>
<!-- Node1&#45;&gt;Node28 -->
<g id="edge37" class="edge">
<title>Node1&#45;&gt;Node28</title>
<path fill="none" stroke="#191970" d="M77.2406,-606.4266C81.5289,-520.4664 105.9496,-115.7293 189,-29.5 191.3586,-27.0511 193.9633,-24.889 196.7509,-22.9817"/>
<polygon fill="#191970" stroke="#191970" points="198.6073,-25.9531 205.5992,-17.9929 195.1694,-19.8554 198.6073,-25.9531"/>
</g>
<!-- Node9 -->
<g id="node9" class="node">
<title>Node9</title>
<g id="a_node9"><a xlink:href="../../d6/d3f/namespaceTrkrDefs.html#a418e306477093b8d17d587be70b908a3" target="_top" xlink:title="generate the common upper 16 bits for hitsetkey">
<polygon fill="none" stroke="#000000" points="391,-1059.5 391,-1079.5 525,-1079.5 525,-1059.5 391,-1059.5"/>
<text text-anchor="middle" x="458" y="-1066.5" font-family="FreeSans" font-size="10.00" fill="#000000">TrkrDefs::genHitSetKey</text>
</a>
</g>
</g>
<!-- Node8&#45;&gt;Node9 -->
<g id="edge8" class="edge">
<title>Node8&#45;&gt;Node9</title>
<path fill="none" stroke="#191970" d="M341.524,-1069.5C354.2254,-1069.5 367.5519,-1069.5 380.4688,-1069.5"/>
<polygon fill="#191970" stroke="#191970" points="380.7204,-1073.0001 390.7203,-1069.5 380.7203,-1066.0001 380.7204,-1073.0001"/>
</g>
<!-- Node11&#45;&gt;Node5 -->
<g id="edge11" class="edge">
<title>Node11&#45;&gt;Node5</title>
<path fill="none" stroke="#191970" d="M315.0924,-734.5527C327.9369,-739.3489 342.0422,-744.627 355,-749.5 377.5064,-757.9639 402.7555,-767.5232 422.622,-775.0594"/>
<polygon fill="#191970" stroke="#191970" points="421.5999,-778.415 432.1911,-778.6909 424.0836,-771.8705 421.5999,-778.415"/>
</g>
<!-- Node11&#45;&gt;Node12 -->
<g id="edge12" class="edge">
<title>Node11&#45;&gt;Node12</title>
<path fill="none" stroke="#191970" d="M296.9309,-702.4172C314.3605,-690.4577 337.5473,-673.0568 355,-654.5 392.604,-614.517 426.2198,-559.5548 444.2003,-527.852"/>
<polygon fill="#191970" stroke="#191970" points="447.4356,-529.2379 449.2656,-518.8023 441.3273,-525.8189 447.4356,-529.2379"/>
</g>
<!-- Node11&#45;&gt;Node13 -->
<g id="edge13" class="edge">
<title>Node11&#45;&gt;Node13</title>
<path fill="none" stroke="#191970" d="M338.3625,-702.4445C353.6818,-698.7383 370.0542,-694.7772 385.6157,-691.0123"/>
<polygon fill="#191970" stroke="#191970" points="386.809,-694.3247 395.7055,-688.5712 385.1629,-687.521 386.809,-694.3247"/>
</g>
<!-- Node14&#45;&gt;Node5 -->
<g id="edge15" class="edge">
<title>Node14&#45;&gt;Node5</title>
<path fill="none" stroke="#191970" d="M334.1939,-805.8062C363.3946,-801.7244 397.1634,-797.004 422.0502,-793.5252"/>
<polygon fill="#191970" stroke="#191970" points="422.7138,-796.9666 432.1329,-792.1158 421.7446,-790.034 422.7138,-796.9666"/>
</g>
<!-- Node15&#45;&gt;Node12 -->
<g id="edge19" class="edge">
<title>Node15&#45;&gt;Node12</title>
<path fill="none" stroke="#191970" d="M334.3237,-602.0103C341.4735,-598.8505 348.5161,-595.343 355,-591.5 385.6907,-573.3098 416.0021,-545.6244 435.7093,-525.9675"/>
<polygon fill="#191970" stroke="#191970" points="438.4413,-528.1819 442.9728,-518.605 433.4581,-523.2657 438.4413,-528.1819"/>
</g>
<!-- Node15&#45;&gt;Node13 -->
<g id="edge20" class="edge">
<title>Node15&#45;&gt;Node13</title>
<path fill="none" stroke="#191970" d="M334.1939,-639.5532C352.0978,-644.4623 371.719,-649.8423 389.9573,-654.8431"/>
<polygon fill="#191970" stroke="#191970" points="389.0693,-658.2288 399.6389,-657.4977 390.9204,-651.4779 389.0693,-658.2288"/>
</g>
<!-- Node16&#45;&gt;Node12 -->
<g id="edge22" class="edge">
<title>Node16&#45;&gt;Node12</title>
<path fill="none" stroke="#191970" d="M333.5845,-314.6845C341.2576,-318.9223 348.6321,-323.8405 355,-329.5 402.0479,-371.3136 433.8703,-439.8993 448.6084,-476.9059"/>
<polygon fill="#191970" stroke="#191970" points="445.4332,-478.3986 452.3108,-486.4578 451.9601,-475.8687 445.4332,-478.3986"/>
</g>
<!-- Node18&#45;&gt;Node12 -->
<g id="edge25" class="edge">
<title>Node18&#45;&gt;Node12</title>
<path fill="none" stroke="#191970" d="M337.5766,-539.4039C356.5476,-533.5902 377.1906,-527.2642 395.94,-521.5184"/>
<polygon fill="#191970" stroke="#191970" points="397.0176,-524.8489 405.5532,-518.5724 394.9666,-518.1561 397.0176,-524.8489"/>
</g>
<!-- Node20&#45;&gt;Node12 -->
<g id="edge28" class="edge">
<title>Node20&#45;&gt;Node12</title>
<path fill="none" stroke="#191970" d="M337.5766,-465.5961C356.5476,-471.4098 377.1906,-477.7358 395.94,-483.4816"/>
<polygon fill="#191970" stroke="#191970" points="394.9666,-486.8439 405.5532,-486.4276 397.0176,-480.1511 394.9666,-486.8439"/>
</g>
<!-- Node21&#45;&gt;Node5 -->
<g id="edge30" class="edge">
<title>Node21&#45;&gt;Node5</title>
<path fill="none" stroke="#191970" d="M334.287,-908.8428C341.5183,-905.5234 348.5904,-901.7506 355,-897.5 392.9032,-872.3641 427.0374,-830.7798 444.898,-806.8981"/>
<polygon fill="#191970" stroke="#191970" points="447.8306,-808.8175 450.9203,-798.6832 442.1852,-804.6788 447.8306,-808.8175"/>
</g>
<!-- Node27 -->
<g id="node27" class="node">
<title>Node27</title>
<g id="a_node27"><a xlink:href="../../d6/d3f/namespaceTrkrDefs.html#ad4a7fd368bbf1d5d97ff4fd3e81a6100" target="_top" xlink:title="Get the layer number from either key type.">
<polygon fill="none" stroke="#000000" points="402.5,-45.5 402.5,-65.5 513.5,-65.5 513.5,-45.5 402.5,-45.5"/>
<text text-anchor="middle" x="458" y="-52.5" font-family="FreeSans" font-size="10.00" fill="#000000">TrkrDefs::getLayer</text>
</a>
</g>
</g>
<!-- Node26&#45;&gt;Node27 -->
<g id="edge36" class="edge">
<title>Node26&#45;&gt;Node27</title>
<path fill="none" stroke="#191970" d="M327.5542,-55.5C347.8847,-55.5 371.0814,-55.5 392.2204,-55.5"/>
<polygon fill="#191970" stroke="#191970" points="392.4109,-59.0001 402.4109,-55.5 392.4109,-52.0001 392.4109,-59.0001"/>
</g>
</g>
</svg>
