<?xml version="1.0" encoding="UTF-8" standalone="no"?>
<!DOCTYPE svg PUBLIC "-//W3C//DTD SVG 1.1//EN"
 "http://www.w3.org/Graphics/SVG/1.1/DTD/svg11.dtd">
<!-- Generated by graphviz version 2.40.1 (20161225.0304)
 -->
<!-- Title: PHG4Hitv1::set_pz Pages: 1 -->
<svg width="489pt" height="158pt"
 viewBox="0.00 0.00 489.00 158.00" xmlns="http://www.w3.org/2000/svg" xmlns:xlink="http://www.w3.org/1999/xlink">
<g id="graph0" class="graph" transform="scale(1 1) rotate(0) translate(4 154)">
<title>PHG4Hitv1::set_pz</title>
<!-- Node1 -->
<g id="node1" class="node">
<title>Node1</title>
<polygon fill="#bfbfbf" stroke="#000000" points="0,-70.5 0,-90.5 110,-90.5 110,-70.5 0,-70.5"/>
<text text-anchor="middle" x="55" y="-77.5" font-family="FreeSans" font-size="10.00" fill="#000000">PHG4Hitv1::set_pz</text>
</g>
<!-- Node2 -->
<g id="node2" class="node">
<title>Node2</title>
<g id="a_node2"><a xlink:href="../../d9/d35/classPHG4Hitv1.html#a2e368cbc62c536203702a7f9835be77b" target="_top" xlink:title="PHG4Hitv1::set_property">
<polygon fill="none" stroke="#000000" points="146,-70.5 146,-90.5 287,-90.5 287,-70.5 146,-70.5"/>
<text text-anchor="middle" x="216.5" y="-77.5" font-family="FreeSans" font-size="10.00" fill="#000000">PHG4Hitv1::set_property</text>
</a>
</g>
</g>
<!-- Node1&#45;&gt;Node2 -->
<g id="edge1" class="edge">
<title>Node1&#45;&gt;Node2</title>
<path fill="none" stroke="#191970" d="M110.1274,-80.5C118.4028,-80.5 127.0787,-80.5 135.7546,-80.5"/>
<polygon fill="#191970" stroke="#191970" points="135.9152,-84.0001 145.9152,-80.5 135.9152,-77.0001 135.9152,-84.0001"/>
</g>
<!-- Node3 -->
<g id="node3" class="node">
<title>Node3</title>
<g id="a_node3"><a xlink:href="../../d3/d9e/classPHG4Hit.html#a6bb2ccb530b208b6413261924d130c2d" target="_top" xlink:title="PHG4Hit::check_property">
<polygon fill="none" stroke="#000000" points="330.5,-129.5 330.5,-149.5 473.5,-149.5 473.5,-129.5 330.5,-129.5"/>
<text text-anchor="middle" x="402" y="-136.5" font-family="FreeSans" font-size="10.00" fill="#000000">PHG4Hit::check_property</text>
</a>
</g>
</g>
<!-- Node2&#45;&gt;Node3 -->
<g id="edge2" class="edge">
<title>Node2&#45;&gt;Node3</title>
<path fill="none" stroke="#191970" d="M240.7386,-90.5816C262.1351,-99.2448 294.2991,-111.6955 323,-120.5 330.4911,-122.798 338.4507,-124.9933 346.3228,-127.0223"/>
<polygon fill="#191970" stroke="#191970" points="345.6547,-130.463 356.2055,-129.4986 347.3561,-123.6729 345.6547,-130.463"/>
</g>
<!-- Node4 -->
<g id="node4" class="node">
<title>Node4</title>
<g id="a_node4"><a xlink:href="../../d3/d9e/classPHG4Hit.html#a68bf050da73e1a551dc6c6dfed28197d" target="_top" xlink:title="PHG4Hit::get_property_info">
<polygon fill="none" stroke="#000000" points="325,-90.5 325,-110.5 479,-110.5 479,-90.5 325,-90.5"/>
<text text-anchor="middle" x="402" y="-97.5" font-family="FreeSans" font-size="10.00" fill="#000000">PHG4Hit::get_property_info</text>
</a>
</g>
</g>
<!-- Node2&#45;&gt;Node4 -->
<g id="edge3" class="edge">
<title>Node2&#45;&gt;Node4</title>
<path fill="none" stroke="#191970" d="M287.1588,-88.1182C296.1816,-89.091 305.5007,-90.0958 314.7466,-91.0926"/>
<polygon fill="#191970" stroke="#191970" points="314.4156,-94.5771 324.7332,-92.1694 315.1661,-87.6175 314.4156,-94.5771"/>
</g>
<!-- Node5 -->
<g id="node5" class="node">
<title>Node5</title>
<g id="a_node5"><a xlink:href="../../d3/d9e/classPHG4Hit.html#a28a104e5abe55cd6f59edf728a97b655" target="_top" xlink:title="PHG4Hit::get_property_type">
<polygon fill="none" stroke="#000000" points="323,-51.5 323,-71.5 481,-71.5 481,-51.5 323,-51.5"/>
<text text-anchor="middle" x="402" y="-58.5" font-family="FreeSans" font-size="10.00" fill="#000000">PHG4Hit::get_property_type</text>
</a>
</g>
</g>
<!-- Node2&#45;&gt;Node5 -->
<g id="edge4" class="edge">
<title>Node2&#45;&gt;Node5</title>
<path fill="none" stroke="#191970" d="M287.1588,-73.2627C295.5481,-72.4034 304.1935,-71.5179 312.7981,-70.6366"/>
<polygon fill="#191970" stroke="#191970" points="313.2713,-74.1065 322.8626,-69.6057 312.558,-67.1429 313.2713,-74.1065"/>
</g>
<!-- Node6 -->
<g id="node6" class="node">
<title>Node6</title>
<g id="a_node6"><a xlink:href="../../d5/d0a/unionPHG4Hitv1_1_1u__property.html#ac456fc086e69bed874ad779a59ccab9b" target="_top" xlink:title="PHG4Hitv1::u_property\l::get_storage">
<polygon fill="none" stroke="#000000" points="335.5,-.5 335.5,-32.5 468.5,-32.5 468.5,-.5 335.5,-.5"/>
<text text-anchor="start" x="343.5" y="-19.5" font-family="FreeSans" font-size="10.00" fill="#000000">PHG4Hitv1::u_property</text>
<text text-anchor="middle" x="402" y="-7.5" font-family="FreeSans" font-size="10.00" fill="#000000">::get_storage</text>
</a>
</g>
</g>
<!-- Node2&#45;&gt;Node6 -->
<g id="edge5" class="edge">
<title>Node2&#45;&gt;Node6</title>
<path fill="none" stroke="#191970" d="M244.0172,-70.4705C265.4829,-62.6978 296.0737,-51.7331 323,-42.5 329.4237,-40.2973 336.1535,-38.0264 342.8601,-35.7867"/>
<polygon fill="#191970" stroke="#191970" points="344.2454,-39.0146 352.6311,-32.5392 342.0376,-32.3719 344.2454,-39.0146"/>
</g>
</g>
</svg>
