<?xml version="1.0" encoding="UTF-8" standalone="no"?>
<!DOCTYPE svg PUBLIC "-//W3C//DTD SVG 1.1//EN"
 "http://www.w3.org/Graphics/SVG/1.1/DTD/svg11.dtd">
<!-- Generated by graphviz version 2.40.1 (20161225.0304)
 -->
<!-- Title: PHG4Hitv1::set_row Pages: 1 -->
<svg width="496pt" height="158pt"
 viewBox="0.00 0.00 496.00 158.00" xmlns="http://www.w3.org/2000/svg" xmlns:xlink="http://www.w3.org/1999/xlink">
<g id="graph0" class="graph" transform="scale(1 1) rotate(0) translate(4 154)">
<title>PHG4Hitv1::set_row</title>
<!-- Node1 -->
<g id="node1" class="node">
<title>Node1</title>
<polygon fill="#bfbfbf" stroke="#000000" points="0,-70.5 0,-90.5 117,-90.5 117,-70.5 0,-70.5"/>
<text text-anchor="middle" x="58.5" y="-77.5" font-family="FreeSans" font-size="10.00" fill="#000000">PHG4Hitv1::set_row</text>
</g>
<!-- Node2 -->
<g id="node2" class="node">
<title>Node2</title>
<g id="a_node2"><a xlink:href="../../d9/d35/classPHG4Hitv1.html#a2e368cbc62c536203702a7f9835be77b" target="_top" xlink:title="PHG4Hitv1::set_property">
<polygon fill="none" stroke="#000000" points="153,-70.5 153,-90.5 294,-90.5 294,-70.5 153,-70.5"/>
<text text-anchor="middle" x="223.5" y="-77.5" font-family="FreeSans" font-size="10.00" fill="#000000">PHG4Hitv1::set_property</text>
</a>
</g>
</g>
<!-- Node1&#45;&gt;Node2 -->
<g id="edge1" class="edge">
<title>Node1&#45;&gt;Node2</title>
<path fill="none" stroke="#191970" d="M117.1374,-80.5C125.4595,-80.5 134.136,-80.5 142.7864,-80.5"/>
<polygon fill="#191970" stroke="#191970" points="142.9063,-84.0001 152.9063,-80.5 142.9062,-77.0001 142.9063,-84.0001"/>
</g>
<!-- Node3 -->
<g id="node3" class="node">
<title>Node3</title>
<g id="a_node3"><a xlink:href="../../d3/d9e/classPHG4Hit.html#a6bb2ccb530b208b6413261924d130c2d" target="_top" xlink:title="PHG4Hit::check_property">
<polygon fill="none" stroke="#000000" points="337.5,-129.5 337.5,-149.5 480.5,-149.5 480.5,-129.5 337.5,-129.5"/>
<text text-anchor="middle" x="409" y="-136.5" font-family="FreeSans" font-size="10.00" fill="#000000">PHG4Hit::check_property</text>
</a>
</g>
</g>
<!-- Node2&#45;&gt;Node3 -->
<g id="edge2" class="edge">
<title>Node2&#45;&gt;Node3</title>
<path fill="none" stroke="#191970" d="M247.7386,-90.5816C269.1351,-99.2448 301.2991,-111.6955 330,-120.5 337.4911,-122.798 345.4507,-124.9933 353.3228,-127.0223"/>
<polygon fill="#191970" stroke="#191970" points="352.6547,-130.463 363.2055,-129.4986 354.3561,-123.6729 352.6547,-130.463"/>
</g>
<!-- Node4 -->
<g id="node4" class="node">
<title>Node4</title>
<g id="a_node4"><a xlink:href="../../d3/d9e/classPHG4Hit.html#a68bf050da73e1a551dc6c6dfed28197d" target="_top" xlink:title="PHG4Hit::get_property_info">
<polygon fill="none" stroke="#000000" points="332,-90.5 332,-110.5 486,-110.5 486,-90.5 332,-90.5"/>
<text text-anchor="middle" x="409" y="-97.5" font-family="FreeSans" font-size="10.00" fill="#000000">PHG4Hit::get_property_info</text>
</a>
</g>
</g>
<!-- Node2&#45;&gt;Node4 -->
<g id="edge3" class="edge">
<title>Node2&#45;&gt;Node4</title>
<path fill="none" stroke="#191970" d="M294.1588,-88.1182C303.1816,-89.091 312.5007,-90.0958 321.7466,-91.0926"/>
<polygon fill="#191970" stroke="#191970" points="321.4156,-94.5771 331.7332,-92.1694 322.1661,-87.6175 321.4156,-94.5771"/>
</g>
<!-- Node5 -->
<g id="node5" class="node">
<title>Node5</title>
<g id="a_node5"><a xlink:href="../../d3/d9e/classPHG4Hit.html#a28a104e5abe55cd6f59edf728a97b655" target="_top" xlink:title="PHG4Hit::get_property_type">
<polygon fill="none" stroke="#000000" points="330,-51.5 330,-71.5 488,-71.5 488,-51.5 330,-51.5"/>
<text text-anchor="middle" x="409" y="-58.5" font-family="FreeSans" font-size="10.00" fill="#000000">PHG4Hit::get_property_type</text>
</a>
</g>
</g>
<!-- Node2&#45;&gt;Node5 -->
<g id="edge4" class="edge">
<title>Node2&#45;&gt;Node5</title>
<path fill="none" stroke="#191970" d="M294.1588,-73.2627C302.5481,-72.4034 311.1935,-71.5179 319.7981,-70.6366"/>
<polygon fill="#191970" stroke="#191970" points="320.2713,-74.1065 329.8626,-69.6057 319.558,-67.1429 320.2713,-74.1065"/>
</g>
<!-- Node6 -->
<g id="node6" class="node">
<title>Node6</title>
<g id="a_node6"><a xlink:href="../../d5/d0a/unionPHG4Hitv1_1_1u__property.html#ac456fc086e69bed874ad779a59ccab9b" target="_top" xlink:title="PHG4Hitv1::u_property\l::get_storage">
<polygon fill="none" stroke="#000000" points="342.5,-.5 342.5,-32.5 475.5,-32.5 475.5,-.5 342.5,-.5"/>
<text text-anchor="start" x="350.5" y="-19.5" font-family="FreeSans" font-size="10.00" fill="#000000">PHG4Hitv1::u_property</text>
<text text-anchor="middle" x="409" y="-7.5" font-family="FreeSans" font-size="10.00" fill="#000000">::get_storage</text>
</a>
</g>
</g>
<!-- Node2&#45;&gt;Node6 -->
<g id="edge5" class="edge">
<title>Node2&#45;&gt;Node6</title>
<path fill="none" stroke="#191970" d="M251.0172,-70.4705C272.4829,-62.6978 303.0737,-51.7331 330,-42.5 336.4237,-40.2973 343.1535,-38.0264 349.8601,-35.7867"/>
<polygon fill="#191970" stroke="#191970" points="351.2454,-39.0146 359.6311,-32.5392 349.0376,-32.3719 351.2454,-39.0146"/>
</g>
</g>
</svg>
