<?xml version="1.0" encoding="UTF-8" standalone="no"?>
<!DOCTYPE svg PUBLIC "-//W3C//DTD SVG 1.1//EN"
 "http://www.w3.org/Graphics/SVG/1.1/DTD/svg11.dtd">
<!-- Generated by graphviz version 2.40.1 (20161225.0304)
 -->
<!-- Title: PHPy6ParticleTrigger Pages: 1 -->
<svg width="245pt" height="249pt"
 viewBox="0.00 0.00 244.50 249.00" xmlns="http://www.w3.org/2000/svg" xmlns:xlink="http://www.w3.org/1999/xlink">
<g id="graph0" class="graph" transform="scale(1 1) rotate(0) translate(4 245)">
<title>PHPy6ParticleTrigger</title>
<!-- Node1 -->
<g id="node1" class="node">
<title>Node1</title>
<polygon fill="#bfbfbf" stroke="#000000" points="0,-.5 0,-20.5 121,-20.5 121,-.5 0,-.5"/>
<text text-anchor="middle" x="60.5" y="-7.5" font-family="FreeSans" font-size="10.00" fill="#000000">PHPy6ParticleTrigger</text>
</g>
<!-- Node2 -->
<g id="node2" class="node">
<title>Node2</title>
<g id="a_node2"><a xlink:href="../../d2/def/classPHPy6GenTrigger.html" target="_top" xlink:title="PHPy6GenTrigger">
<polygon fill="none" stroke="#000000" points="8.5,-81.5 8.5,-101.5 112.5,-101.5 112.5,-81.5 8.5,-81.5"/>
<text text-anchor="middle" x="60.5" y="-88.5" font-family="FreeSans" font-size="10.00" fill="#000000">PHPy6GenTrigger</text>
</a>
</g>
</g>
<!-- Node2&#45;&gt;Node1 -->
<g id="edge1" class="edge">
<title>Node2&#45;&gt;Node1</title>
<path fill="none" stroke="#191970" d="M54.5595,-71.1972C53.1523,-55.1048 53.5797,-33.2944 55.8417,-20.6754"/>
<polygon fill="#191970" stroke="#191970" points="51.1025,-71.7581 55.8268,-81.2413 58.0474,-70.8818 51.1025,-71.7581"/>
</g>
<!-- Node2&#45;&gt;Node1 -->
<g id="edge4" class="edge">
<title>Node2&#45;&gt;Node1</title>
<path fill="none" stroke="#191970" d="M66.4405,-71.1972C67.8477,-55.1048 67.4203,-33.2944 65.1583,-20.6754"/>
<polygon fill="#191970" stroke="#191970" points="62.9526,-70.8818 65.1732,-81.2413 69.8975,-71.7581 62.9526,-70.8818"/>
</g>
<!-- Node3 -->
<g id="node3" class="node">
<title>Node3</title>
<g id="a_node3"><a xlink:title="STL class.">
<polygon fill="none" stroke="#bfbfbf" points="27,-150.5 27,-170.5 94,-170.5 94,-150.5 27,-150.5"/>
<text text-anchor="middle" x="60.5" y="-157.5" font-family="FreeSans" font-size="10.00" fill="#000000">std::string</text>
</a>
</g>
</g>
<!-- Node3&#45;&gt;Node2 -->
<g id="edge2" class="edge">
<title>Node3&#45;&gt;Node2</title>
<path fill="none" stroke="#9a32cd" stroke-dasharray="5,2" d="M60.5,-140.2177C60.5,-127.5684 60.5,-111.8285 60.5,-101.723"/>
<polygon fill="#9a32cd" stroke="#9a32cd" points="57.0001,-140.3188 60.5,-150.3188 64.0001,-140.3188 57.0001,-140.3188"/>
<text text-anchor="middle" x="79.5" y="-123" font-family="FreeSans" font-size="10.00" fill="#000000"> _name</text>
</g>
<!-- Node4 -->
<g id="node4" class="node">
<title>Node4</title>
<g id="a_node4"><a xlink:title="STL class.">
<polygon fill="none" stroke="#bfbfbf" points="7,-208.5 7,-240.5 114,-240.5 114,-208.5 7,-208.5"/>
<text text-anchor="start" x="15" y="-227.5" font-family="FreeSans" font-size="10.00" fill="#000000">std::basic_string&lt;</text>
<text text-anchor="middle" x="60.5" y="-215.5" font-family="FreeSans" font-size="10.00" fill="#000000"> char &gt;</text>
</a>
</g>
</g>
<!-- Node4&#45;&gt;Node3 -->
<g id="edge3" class="edge">
<title>Node4&#45;&gt;Node3</title>
<path fill="none" stroke="#191970" d="M60.5,-198.2639C60.5,-188.5394 60.5,-178.0805 60.5,-170.641"/>
<polygon fill="#191970" stroke="#191970" points="57.0001,-198.3501 60.5,-208.3501 64.0001,-198.3501 57.0001,-198.3501"/>
</g>
<!-- Node5 -->
<g id="node5" class="node">
<title>Node5</title>
<polygon fill="none" stroke="#bfbfbf" points="130.5,-81.5 130.5,-101.5 236.5,-101.5 236.5,-81.5 130.5,-81.5"/>
<text text-anchor="middle" x="183.5" y="-88.5" font-family="FreeSans" font-size="10.00" fill="#000000">std::vector&lt; int &gt;</text>
</g>
<!-- Node5&#45;&gt;Node1 -->
<g id="edge5" class="edge">
<title>Node5&#45;&gt;Node1</title>
<path fill="none" stroke="#9a32cd" stroke-dasharray="5,2" d="M159.7272,-75.8447C135.0341,-59.5835 97.1178,-34.6142 76.0225,-20.7222"/>
<polygon fill="#9a32cd" stroke="#9a32cd" points="157.894,-78.8282 168.1707,-81.4051 161.7439,-72.982 157.894,-78.8282"/>
<text text-anchor="middle" x="174.5" y="-54" font-family="FreeSans" font-size="10.00" fill="#000000"> _theParticles</text>
<text text-anchor="middle" x="174.5" y="-42" font-family="FreeSans" font-size="10.00" fill="#000000">_theParents</text>
</g>
</g>
</svg>
