<?xml version="1.0" encoding="UTF-8" standalone="no"?>
<!DOCTYPE svg PUBLIC "-//W3C//DTD SVG 1.1//EN"
 "http://www.w3.org/Graphics/SVG/1.1/DTD/svg11.dtd">
<!-- Generated by graphviz version 2.40.1 (20161225.0304)
 -->
<!-- Title: prototype/blob/master/offline/packages/Prototype4/EventInfoSummary.cc Pages: 1 -->
<svg width="2357pt" height="407pt"
 viewBox="0.00 0.00 2356.50 407.00" xmlns="http://www.w3.org/2000/svg" xmlns:xlink="http://www.w3.org/1999/xlink">
<g id="graph0" class="graph" transform="scale(1 1) rotate(0) translate(4 403)">
<title>prototype/blob/master/offline/packages/Prototype4/EventInfoSummary.cc</title>
<!-- Node1 -->
<g id="node1" class="node">
<title>Node1</title>
<polygon fill="#bfbfbf" stroke="#000000" points="1286,-354.5 1286,-398.5 1448,-398.5 1448,-354.5 1286,-354.5"/>
<text text-anchor="start" x="1294" y="-385.5" font-family="FreeSans" font-size="10.00" fill="#000000">prototype/blob/master</text>
<text text-anchor="start" x="1294" y="-373.5" font-family="FreeSans" font-size="10.00" fill="#000000">/offline/packages/Prototype4</text>
<text text-anchor="middle" x="1367" y="-361.5" font-family="FreeSans" font-size="10.00" fill="#000000">/EventInfoSummary.cc</text>
</g>
<!-- Node2 -->
<g id="node2" class="node">
<title>Node2</title>
<g id="a_node2"><a xlink:href="../../db/d1b/Prototype4_2EventInfoSummary_8h.html" target="_top" xlink:title="EventInfoSummary.h">
<polygon fill="none" stroke="#000000" points="542.5,-228.5 542.5,-248.5 663.5,-248.5 663.5,-228.5 542.5,-228.5"/>
<text text-anchor="middle" x="603" y="-235.5" font-family="FreeSans" font-size="10.00" fill="#000000">EventInfoSummary.h</text>
</a>
</g>
</g>
<!-- Node1&#45;&gt;Node2 -->
<g id="edge1" class="edge">
<title>Node1&#45;&gt;Node2</title>
<path fill="none" stroke="#191970" d="M1285.9964,-373.7304C1082.5052,-366.3812 564.2363,-345.0822 539,-318 529.0012,-307.2699 532.3416,-298.0681 539,-285 545.8236,-271.6078 558.509,-261.1679 570.7975,-253.6035"/>
<polygon fill="#191970" stroke="#191970" points="572.6255,-256.5904 579.5858,-248.6026 569.1634,-250.5064 572.6255,-256.5904"/>
</g>
<!-- Node3 -->
<g id="node3" class="node">
<title>Node3</title>
<g id="a_node3"><a xlink:href="../../d5/dc2/SubsysReco_8h.html" target="_top" xlink:title="fun4all/SubsysReco.h">
<polygon fill="none" stroke="#000000" points="232,-171.5 232,-191.5 356,-191.5 356,-171.5 232,-171.5"/>
<text text-anchor="middle" x="294" y="-178.5" font-family="FreeSans" font-size="10.00" fill="#000000">fun4all/SubsysReco.h</text>
</a>
</g>
</g>
<!-- Node1&#45;&gt;Node3 -->
<g id="edge23" class="edge">
<title>Node1&#45;&gt;Node3</title>
<path fill="none" stroke="#191970" d="M1285.9203,-373.4582C1088.0832,-365.6716 591.6099,-343.8038 521,-318 457.3772,-294.7496 456.5789,-262.014 398,-228 376.2948,-215.3968 350.5527,-203.8623 330.1096,-195.4339"/>
<polygon fill="#191970" stroke="#191970" points="331.4149,-192.1864 320.8326,-191.6712 328.7839,-198.6732 331.4149,-192.1864"/>
</g>
<!-- Node4 -->
<g id="node4" class="node">
<title>Node4</title>
<g id="a_node4"><a xlink:href="../../d2/de7/Fun4AllBase_8h.html" target="_top" xlink:title="Fun4AllBase.h">
<polygon fill="none" stroke="#000000" points="250.5,-114.5 250.5,-134.5 337.5,-134.5 337.5,-114.5 250.5,-114.5"/>
<text text-anchor="middle" x="294" y="-121.5" font-family="FreeSans" font-size="10.00" fill="#000000">Fun4AllBase.h</text>
</a>
</g>
</g>
<!-- Node1&#45;&gt;Node4 -->
<g id="edge21" class="edge">
<title>Node1&#45;&gt;Node4</title>
<path fill="none" stroke="#191970" d="M1285.7132,-375.371C1077.9243,-371.9143 531.3258,-359.0776 355,-318 214.9533,-285.3741 136.451,-311.8544 57,-192 51.8431,-184.2207 51.0696,-178.207 57,-171 79.7454,-143.3583 177.5793,-131.9035 240.2197,-127.3396"/>
<polygon fill="#191970" stroke="#191970" points="240.6005,-130.8217 250.3351,-126.6398 240.1173,-123.8384 240.6005,-130.8217"/>
</g>
<!-- Node6 -->
<g id="node6" class="node">
<title>Node6</title>
<polygon fill="none" stroke="#bfbfbf" points="753.5,-57.5 753.5,-77.5 798.5,-77.5 798.5,-57.5 753.5,-57.5"/>
<text text-anchor="middle" x="776" y="-64.5" font-family="FreeSans" font-size="10.00" fill="#000000">string</text>
</g>
<!-- Node1&#45;&gt;Node6 -->
<g id="edge70" class="edge">
<title>Node1&#45;&gt;Node6</title>
<path fill="none" stroke="#191970" d="M1285.6891,-374.3484C1033.8904,-367.4317 277.4706,-344.6569 170,-318 89.044,-297.9197 0,-321.9092 0,-238.5 0,-238.5 0,-238.5 0,-181.5 0,-105.1978 594.8725,-75.1174 742.9359,-68.8121"/>
<polygon fill="#191970" stroke="#191970" points="743.351,-72.2979 753.1961,-68.3831 743.0585,-65.304 743.351,-72.2979"/>
</g>
<!-- Node8 -->
<g id="node8" class="node">
<title>Node8</title>
<g id="a_node8"><a xlink:href="../../d4/d79/RawTower__Prototype4_8h.html" target="_top" xlink:title="RawTower_Prototype4.h">
<polygon fill="none" stroke="#000000" points="253,-228.5 253,-248.5 389,-248.5 389,-228.5 253,-228.5"/>
<text text-anchor="middle" x="321" y="-235.5" font-family="FreeSans" font-size="10.00" fill="#000000">RawTower_Prototype4.h</text>
</a>
</g>
</g>
<!-- Node1&#45;&gt;Node8 -->
<g id="edge9" class="edge">
<title>Node1&#45;&gt;Node8</title>
<path fill="none" stroke="#191970" d="M1285.6666,-374.793C1067.8981,-369.7695 482.6818,-353.1321 403,-318 373.241,-304.8791 347.9537,-275.9356 333.6245,-256.8315"/>
<polygon fill="#191970" stroke="#191970" points="336.3643,-254.6473 327.6669,-248.5971 330.693,-258.7506 336.3643,-254.6473"/>
</g>
<!-- Node11 -->
<g id="node11" class="node">
<title>Node11</title>
<polygon fill="none" stroke="#bfbfbf" points="510.5,-171.5 510.5,-191.5 633.5,-191.5 633.5,-171.5 510.5,-171.5"/>
<text text-anchor="middle" x="572" y="-178.5" font-family="FreeSans" font-size="10.00" fill="#000000">calobase/RawTower.h</text>
</g>
<!-- Node1&#45;&gt;Node11 -->
<g id="edge17" class="edge">
<title>Node1&#45;&gt;Node11</title>
<path fill="none" stroke="#191970" d="M1285.6727,-373.7972C1080.0085,-366.5691 553.6137,-345.4618 528,-318 519.2164,-308.5826 528.2798,-241.7199 534,-228 538.4533,-217.3186 546.1889,-207.1579 553.5232,-199.0743"/>
<polygon fill="#191970" stroke="#191970" points="556.1704,-201.3712 560.5873,-191.7409 551.1289,-196.5149 556.1704,-201.3712"/>
</g>
<!-- Node13 -->
<g id="node13" class="node">
<title>Node13</title>
<polygon fill="none" stroke="#bfbfbf" points="1183,-.5 1183,-20.5 1243,-20.5 1243,-.5 1183,-.5"/>
<text text-anchor="middle" x="1213" y="-7.5" font-family="FreeSans" font-size="10.00" fill="#000000">iostream</text>
</g>
<!-- Node1&#45;&gt;Node13 -->
<g id="edge69" class="edge">
<title>Node1&#45;&gt;Node13</title>
<path fill="none" stroke="#191970" d="M1418.9033,-354.4106C1440.3387,-344.4246 1465.0256,-331.7745 1486,-318 1522.1039,-294.2895 1615.8856,-231.2116 1634,-192 1637.9142,-183.5271 1638.1203,-179.3746 1634,-171 1597.3461,-96.4996 1562.0637,-90.2887 1486,-57 1444.9232,-39.0231 1318.7794,-22.5572 1253.3341,-14.9437"/>
<polygon fill="#191970" stroke="#191970" points="1253.7083,-11.4638 1243.374,-13.7989 1252.9089,-18.418 1253.7083,-11.4638"/>
</g>
<!-- Node14 -->
<g id="node14" class="node">
<title>Node14</title>
<polygon fill="none" stroke="#bfbfbf" points="559.5,-291.5 559.5,-311.5 732.5,-311.5 732.5,-291.5 559.5,-291.5"/>
<text text-anchor="middle" x="646" y="-298.5" font-family="FreeSans" font-size="10.00" fill="#000000">calobase/RawTowerContainer.h</text>
</g>
<!-- Node1&#45;&gt;Node14 -->
<g id="edge18" class="edge">
<title>Node1&#45;&gt;Node14</title>
<path fill="none" stroke="#191970" d="M1285.8711,-370.9084C1166.4544,-362.2249 936.4656,-343.7741 742,-318 731.646,-316.6277 720.7003,-314.9572 710.051,-313.2122"/>
<polygon fill="#191970" stroke="#191970" points="710.4012,-309.7222 699.9607,-311.5237 709.2459,-316.6262 710.4012,-309.7222"/>
</g>
<!-- Node15 -->
<g id="node15" class="node">
<title>Node15</title>
<polygon fill="none" stroke="#bfbfbf" points="751,-291.5 751,-311.5 917,-311.5 917,-291.5 751,-291.5"/>
<text text-anchor="middle" x="834" y="-298.5" font-family="FreeSans" font-size="10.00" fill="#000000">phparameter/PHParameters.h</text>
</g>
<!-- Node1&#45;&gt;Node15 -->
<g id="edge19" class="edge">
<title>Node1&#45;&gt;Node15</title>
<path fill="none" stroke="#191970" d="M1285.9652,-366.8742C1197.3829,-356.0899 1051.3411,-337.5429 926,-318 916.7182,-316.5528 906.9297,-314.9164 897.3382,-313.2503"/>
<polygon fill="#191970" stroke="#191970" points="897.8989,-309.7953 887.4438,-311.51 896.6863,-316.6894 897.8989,-309.7953"/>
</g>
<!-- Node16 -->
<g id="node16" class="node">
<title>Node16</title>
<polygon fill="none" stroke="#bfbfbf" points="935,-291.5 935,-311.5 1115,-311.5 1115,-291.5 935,-291.5"/>
<text text-anchor="middle" x="1025" y="-298.5" font-family="FreeSans" font-size="10.00" fill="#000000">pdbcalbase/PdbParameterMap.h</text>
</g>
<!-- Node1&#45;&gt;Node16 -->
<g id="edge20" class="edge">
<title>Node1&#45;&gt;Node16</title>
<path fill="none" stroke="#191970" d="M1285.9508,-358.726C1222.7266,-344.8611 1136.5682,-325.9667 1080.8595,-313.7499"/>
<polygon fill="#191970" stroke="#191970" points="1081.3418,-310.2726 1070.8242,-311.5492 1079.8423,-317.1101 1081.3418,-310.2726"/>
</g>
<!-- Node17 -->
<g id="node17" class="node">
<title>Node17</title>
<g id="a_node17"><a xlink:href="../../da/dc1/Fun4AllReturnCodes_8h.html" target="_top" xlink:title="fun4all/Fun4AllReturnCodes.h">
<polygon fill="none" stroke="#000000" points="1133,-291.5 1133,-311.5 1299,-311.5 1299,-291.5 1133,-291.5"/>
<text text-anchor="middle" x="1216" y="-298.5" font-family="FreeSans" font-size="10.00" fill="#000000">fun4all/Fun4AllReturnCodes.h</text>
</a>
</g>
</g>
<!-- Node1&#45;&gt;Node17 -->
<g id="edge22" class="edge">
<title>Node1&#45;&gt;Node17</title>
<path fill="none" stroke="#191970" d="M1322.5117,-354.4032C1297.6557,-342.0575 1267.372,-327.0159 1245.4589,-316.1319"/>
<polygon fill="#191970" stroke="#191970" points="1246.8384,-312.9092 1236.3253,-311.5954 1243.7245,-319.1784 1246.8384,-312.9092"/>
</g>
<!-- Node18 -->
<g id="node18" class="node">
<title>Node18</title>
<g id="a_node18"><a xlink:href="../../d8/d30/PHCompositeNode_8h.html" target="_top" xlink:title="phool/PHCompositeNode.h">
<polygon fill="none" stroke="#000000" points="1473.5,-171.5 1473.5,-191.5 1624.5,-191.5 1624.5,-171.5 1473.5,-171.5"/>
<text text-anchor="middle" x="1549" y="-178.5" font-family="FreeSans" font-size="10.00" fill="#000000">phool/PHCompositeNode.h</text>
</a>
</g>
</g>
<!-- Node1&#45;&gt;Node18 -->
<g id="edge24" class="edge">
<title>Node1&#45;&gt;Node18</title>
<path fill="none" stroke="#191970" d="M1410.0101,-354.2741C1426.4645,-344.5171 1444.6962,-332.0692 1459,-318 1495.4072,-282.1899 1525.0918,-229.2983 1539.522,-201.019"/>
<polygon fill="#191970" stroke="#191970" points="1542.7939,-202.3011 1544.1325,-191.7912 1536.532,-199.1725 1542.7939,-202.3011"/>
</g>
<!-- Node22 -->
<g id="node22" class="node">
<title>Node22</title>
<g id="a_node22"><a xlink:href="../../d3/d79/PHIODataNode_8h.html" target="_top" xlink:title="phool/PHIODataNode.h">
<polygon fill="none" stroke="#000000" points="830,-228.5 830,-248.5 962,-248.5 962,-228.5 830,-228.5"/>
<text text-anchor="middle" x="896" y="-235.5" font-family="FreeSans" font-size="10.00" fill="#000000">phool/PHIODataNode.h</text>
</a>
</g>
</g>
<!-- Node1&#45;&gt;Node22 -->
<g id="edge31" class="edge">
<title>Node1&#45;&gt;Node22</title>
<path fill="none" stroke="#191970" d="M1285.6997,-373.6316C1084.141,-366.1274 575.7981,-344.6396 551,-318 541.0068,-307.2647 541.3466,-296.0418 551,-285 568.4329,-265.0598 723.7566,-250.6246 819.9552,-243.505"/>
<polygon fill="#191970" stroke="#191970" points="820.2187,-246.9952 829.9375,-242.7767 819.7093,-240.0137 820.2187,-246.9952"/>
</g>
<!-- Node29 -->
<g id="node29" class="node">
<title>Node29</title>
<g id="a_node29"><a xlink:href="../../d8/dfd/PHNodeIterator_8h.html" target="_top" xlink:title="PHNodeIterator.h">
<polygon fill="none" stroke="#000000" points="1267,-114.5 1267,-134.5 1369,-134.5 1369,-114.5 1267,-114.5"/>
<text text-anchor="middle" x="1318" y="-121.5" font-family="FreeSans" font-size="10.00" fill="#000000">PHNodeIterator.h</text>
</a>
</g>
</g>
<!-- Node1&#45;&gt;Node29 -->
<g id="edge54" class="edge">
<title>Node1&#45;&gt;Node29</title>
<path fill="none" stroke="#191970" d="M1397.973,-354.3199C1408.9924,-344.5692 1420.1187,-332.1137 1426,-318 1431.6415,-304.4617 1429.4691,-299.2505 1426,-285 1412.506,-229.5687 1401.2792,-216.6032 1367,-171 1358.8247,-160.124 1347.9957,-149.5556 1338.5974,-141.2498"/>
<polygon fill="#191970" stroke="#191970" points="1340.6818,-138.4268 1330.8091,-134.5822 1336.1294,-143.7444 1340.6818,-138.4268"/>
</g>
<!-- Node32 -->
<g id="node32" class="node">
<title>Node32</title>
<g id="a_node32"><a xlink:href="../../dd/dd4/getClass_8h.html" target="_top" xlink:title="phool/getClass.h">
<polygon fill="none" stroke="#000000" points="1317,-291.5 1317,-311.5 1417,-311.5 1417,-291.5 1317,-291.5"/>
<text text-anchor="middle" x="1367" y="-298.5" font-family="FreeSans" font-size="10.00" fill="#000000">phool/getClass.h</text>
</a>
</g>
</g>
<!-- Node1&#45;&gt;Node32 -->
<g id="edge55" class="edge">
<title>Node1&#45;&gt;Node32</title>
<path fill="none" stroke="#191970" d="M1367,-354.4032C1367,-344.1059 1367,-331.9331 1367,-321.8616"/>
<polygon fill="#191970" stroke="#191970" points="1370.5001,-321.5953 1367,-311.5954 1363.5001,-321.5954 1370.5001,-321.5953"/>
</g>
<!-- Node33 -->
<g id="node33" class="node">
<title>Node33</title>
<polygon fill="none" stroke="#bfbfbf" points="1549.5,-291.5 1549.5,-311.5 1636.5,-311.5 1636.5,-291.5 1549.5,-291.5"/>
<text text-anchor="middle" x="1593" y="-298.5" font-family="FreeSans" font-size="10.00" fill="#000000">Event/Event.h</text>
</g>
<!-- Node1&#45;&gt;Node33 -->
<g id="edge62" class="edge">
<title>Node1&#45;&gt;Node33</title>
<path fill="none" stroke="#191970" d="M1433.5851,-354.4032C1472.2882,-341.5592 1519.7838,-325.7974 1552.8175,-314.8349"/>
<polygon fill="#191970" stroke="#191970" points="1554.1907,-318.067 1562.5793,-311.5954 1551.9859,-311.4232 1554.1907,-318.067"/>
</g>
<!-- Node34 -->
<g id="node34" class="node">
<title>Node34</title>
<polygon fill="none" stroke="#bfbfbf" points="1654.5,-291.5 1654.5,-311.5 1769.5,-311.5 1769.5,-291.5 1654.5,-291.5"/>
<text text-anchor="middle" x="1712" y="-298.5" font-family="FreeSans" font-size="10.00" fill="#000000">Event/EventTypes.h</text>
</g>
<!-- Node1&#45;&gt;Node34 -->
<g id="edge63" class="edge">
<title>Node1&#45;&gt;Node34</title>
<path fill="none" stroke="#191970" d="M1448.0624,-360.3567C1503.8378,-349.0403 1579.5574,-333.2652 1646,-318 1651.4678,-316.7438 1657.1787,-315.3857 1662.8543,-314.0068"/>
<polygon fill="#191970" stroke="#191970" points="1664.0967,-317.3056 1672.9722,-311.5197 1662.4257,-310.508 1664.0967,-317.3056"/>
</g>
<!-- Node35 -->
<g id="node35" class="node">
<title>Node35</title>
<polygon fill="none" stroke="#bfbfbf" points="1788,-291.5 1788,-311.5 1880,-311.5 1880,-291.5 1788,-291.5"/>
<text text-anchor="middle" x="1834" y="-298.5" font-family="FreeSans" font-size="10.00" fill="#000000">Event/packet.h</text>
</g>
<!-- Node1&#45;&gt;Node35 -->
<g id="edge64" class="edge">
<title>Node1&#45;&gt;Node35</title>
<path fill="none" stroke="#191970" d="M1448.1669,-368.6217C1531.7278,-359.6614 1665.3943,-342.9577 1779,-318 1783.7406,-316.9585 1788.6674,-315.7164 1793.5381,-314.3876"/>
<polygon fill="#191970" stroke="#191970" points="1794.7263,-317.6882 1803.3795,-311.5749 1792.8026,-310.9577 1794.7263,-317.6882"/>
</g>
<!-- Node36 -->
<g id="node36" class="node">
<title>Node36</title>
<polygon fill="none" stroke="#bfbfbf" points="1898,-285.5 1898,-317.5 2014,-317.5 2014,-285.5 1898,-285.5"/>
<text text-anchor="start" x="1906" y="-304.5" font-family="FreeSans" font-size="10.00" fill="#000000">boost/accumulators</text>
<text text-anchor="middle" x="1956" y="-292.5" font-family="FreeSans" font-size="10.00" fill="#000000">/accumulators.hpp</text>
</g>
<!-- Node1&#45;&gt;Node36 -->
<g id="edge65" class="edge">
<title>Node1&#45;&gt;Node36</title>
<path fill="none" stroke="#191970" d="M1448.3981,-370.6707C1549.3822,-362.7009 1726.8957,-346.2773 1887.9033,-318.0617"/>
<polygon fill="#191970" stroke="#191970" points="1888.7579,-321.4649 1897.9939,-316.2739 1887.5366,-314.5723 1888.7579,-321.4649"/>
</g>
<!-- Node37 -->
<g id="node37" class="node">
<title>Node37</title>
<polygon fill="none" stroke="#bfbfbf" points="2032,-285.5 2032,-317.5 2148,-317.5 2148,-285.5 2032,-285.5"/>
<text text-anchor="start" x="2040" y="-304.5" font-family="FreeSans" font-size="10.00" fill="#000000">boost/accumulators</text>
<text text-anchor="middle" x="2090" y="-292.5" font-family="FreeSans" font-size="10.00" fill="#000000">/statistics.hpp</text>
</g>
<!-- Node1&#45;&gt;Node37 -->
<g id="edge66" class="edge">
<title>Node1&#45;&gt;Node37</title>
<path fill="none" stroke="#191970" d="M1448.0405,-373.2524C1570.4864,-367.4653 1809.9601,-352.7165 2021.5877,-318.0911"/>
<polygon fill="#191970" stroke="#191970" points="2022.3491,-321.5128 2031.6435,-316.4272 2021.2063,-314.6067 2022.3491,-321.5128"/>
</g>
<!-- Node38 -->
<g id="node38" class="node">
<title>Node38</title>
<polygon fill="none" stroke="#bfbfbf" points="2165.5,-291.5 2165.5,-311.5 2218.5,-311.5 2218.5,-291.5 2165.5,-291.5"/>
<text text-anchor="middle" x="2192" y="-298.5" font-family="FreeSans" font-size="10.00" fill="#000000">cassert</text>
</g>
<!-- Node1&#45;&gt;Node38 -->
<g id="edge67" class="edge">
<title>Node1&#45;&gt;Node38</title>
<path fill="none" stroke="#191970" d="M1448.026,-374.2479C1621.7145,-368.8112 2024.8276,-352.768 2157,-318 2159.5012,-317.342 2162.0418,-316.5088 2164.5532,-315.5679"/>
<polygon fill="#191970" stroke="#191970" points="2166.1327,-318.6991 2173.9504,-311.5483 2163.3797,-312.2631 2166.1327,-318.6991"/>
</g>
<!-- Node39 -->
<g id="node39" class="node">
<title>Node39</title>
<polygon fill="none" stroke="#bfbfbf" points="2237,-291.5 2237,-311.5 2285,-311.5 2285,-291.5 2237,-291.5"/>
<text text-anchor="middle" x="2261" y="-298.5" font-family="FreeSans" font-size="10.00" fill="#000000">cmath</text>
</g>
<!-- Node1&#45;&gt;Node39 -->
<g id="edge68" class="edge">
<title>Node1&#45;&gt;Node39</title>
<path fill="none" stroke="#191970" d="M1448.3387,-375.0502C1633.6761,-371.0889 2082.5319,-357.5937 2228,-318 2230.2945,-317.3755 2232.6176,-316.5851 2234.9126,-315.6901"/>
<polygon fill="#191970" stroke="#191970" points="2236.3628,-318.8756 2244.0444,-311.5787 2233.489,-312.4926 2236.3628,-318.8756"/>
</g>
<!-- Node40 -->
<g id="node40" class="node">
<title>Node40</title>
<polygon fill="none" stroke="#bfbfbf" points="2303.5,-291.5 2303.5,-311.5 2348.5,-311.5 2348.5,-291.5 2303.5,-291.5"/>
<text text-anchor="middle" x="2326" y="-298.5" font-family="FreeSans" font-size="10.00" fill="#000000">utility</text>
</g>
<!-- Node1&#45;&gt;Node40 -->
<g id="edge71" class="edge">
<title>Node1&#45;&gt;Node40</title>
<path fill="none" stroke="#191970" d="M1448.0153,-375.641C1643.3597,-372.8873 2135.845,-361.6934 2294,-318 2296.1539,-317.4049 2298.3303,-316.6543 2300.4809,-315.8031"/>
<polygon fill="#191970" stroke="#191970" points="2301.9801,-318.9661 2309.5942,-311.5988 2299.0477,-312.6099 2301.9801,-318.9661"/>
</g>
<!-- Node2&#45;&gt;Node3 -->
<g id="edge2" class="edge">
<title>Node2&#45;&gt;Node3</title>
<path fill="none" stroke="#191970" d="M548.4683,-228.4408C495.2673,-218.627 414.3519,-203.7008 358.1,-193.3243"/>
<polygon fill="#191970" stroke="#191970" points="358.7148,-189.8787 348.2458,-191.5065 357.4449,-196.7626 358.7148,-189.8787"/>
</g>
<!-- Node2&#45;&gt;Node6 -->
<g id="edge8" class="edge">
<title>Node2&#45;&gt;Node6</title>
<path fill="none" stroke="#191970" d="M621.1955,-228.4531C633.8757,-220.3854 649.9135,-207.8072 658,-192 673.835,-161.0461 643.5997,-142.1552 664,-114 682.3485,-88.6765 717.1096,-77.085 743.0607,-71.8155"/>
<polygon fill="#191970" stroke="#191970" points="744.002,-75.2021 753.2194,-69.9781 742.7561,-68.3139 744.002,-75.2021"/>
</g>
<!-- Node7 -->
<g id="node7" class="node">
<title>Node7</title>
<polygon fill="none" stroke="#bfbfbf" points="576.5,-114.5 576.5,-134.5 615.5,-134.5 615.5,-114.5 576.5,-114.5"/>
<text text-anchor="middle" x="596" y="-121.5" font-family="FreeSans" font-size="10.00" fill="#000000">map</text>
</g>
<!-- Node2&#45;&gt;Node7 -->
<g id="edge7" class="edge">
<title>Node2&#45;&gt;Node7</title>
<path fill="none" stroke="#191970" d="M616.0084,-228.4508C630.8653,-215.66 652.0239,-192.622 643,-171 638.0762,-159.2022 628.5407,-148.8685 619.3382,-140.9581"/>
<polygon fill="#191970" stroke="#191970" points="621.4557,-138.1699 611.4611,-134.6544 617.082,-143.6353 621.4557,-138.1699"/>
</g>
<!-- Node3&#45;&gt;Node4 -->
<g id="edge3" class="edge">
<title>Node3&#45;&gt;Node4</title>
<path fill="none" stroke="#191970" d="M294,-171.3095C294,-163.9335 294,-153.72 294,-144.715"/>
<polygon fill="#191970" stroke="#191970" points="297.5001,-144.6022 294,-134.6022 290.5001,-144.6023 297.5001,-144.6022"/>
</g>
<!-- Node3&#45;&gt;Node6 -->
<g id="edge6" class="edge">
<title>Node3&#45;&gt;Node6</title>
<path fill="none" stroke="#191970" d="M305.6471,-171.4544C324.0757,-156.1849 361.7062,-127.4879 399,-114 462.0801,-91.186 662.973,-75.2669 742.8178,-69.691"/>
<polygon fill="#191970" stroke="#191970" points="743.5177,-73.1512 753.254,-68.9732 743.0374,-66.1677 743.5177,-73.1512"/>
</g>
<!-- Node5 -->
<g id="node5" class="node">
<title>Node5</title>
<polygon fill="none" stroke="#bfbfbf" points="269.5,-57.5 269.5,-77.5 318.5,-77.5 318.5,-57.5 269.5,-57.5"/>
<text text-anchor="middle" x="294" y="-64.5" font-family="FreeSans" font-size="10.00" fill="#000000">climits</text>
</g>
<!-- Node4&#45;&gt;Node5 -->
<g id="edge4" class="edge">
<title>Node4&#45;&gt;Node5</title>
<path fill="none" stroke="#191970" d="M294,-114.3095C294,-106.9335 294,-96.72 294,-87.715"/>
<polygon fill="#191970" stroke="#191970" points="297.5001,-87.6022 294,-77.6022 290.5001,-87.6023 297.5001,-87.6022"/>
</g>
<!-- Node4&#45;&gt;Node6 -->
<g id="edge5" class="edge">
<title>Node4&#45;&gt;Node6</title>
<path fill="none" stroke="#191970" d="M337.6611,-117.1452C344.7841,-116.0322 352.0911,-114.9427 359,-114 501.7954,-94.5169 672.9366,-77.3753 743.3246,-70.5925"/>
<polygon fill="#191970" stroke="#191970" points="743.7305,-74.0697 753.3507,-69.6309 743.0622,-67.1017 743.7305,-74.0697"/>
</g>
<!-- Node9 -->
<g id="node9" class="node">
<title>Node9</title>
<g id="a_node9"><a xlink:href="../../de/ddd/PROTOTYPE4__FEM_8h.html" target="_top" xlink:title="PROTOTYPE4_FEM.h">
<polygon fill="none" stroke="#000000" points="374,-171.5 374,-191.5 492,-191.5 492,-171.5 374,-171.5"/>
<text text-anchor="middle" x="433" y="-178.5" font-family="FreeSans" font-size="10.00" fill="#000000">PROTOTYPE4_FEM.h</text>
</a>
</g>
</g>
<!-- Node8&#45;&gt;Node9 -->
<g id="edge10" class="edge">
<title>Node8&#45;&gt;Node9</title>
<path fill="none" stroke="#191970" d="M340.7655,-228.4408C358.3306,-219.5014 384.2305,-206.3202 404.1167,-196.1996"/>
<polygon fill="#191970" stroke="#191970" points="405.7306,-199.3054 413.0553,-191.6504 402.5556,-193.0669 405.7306,-199.3054"/>
</g>
<!-- Node8&#45;&gt;Node11 -->
<g id="edge14" class="edge">
<title>Node8&#45;&gt;Node11</title>
<path fill="none" stroke="#191970" d="M365.296,-228.4408C407.8193,-218.7841 472.14,-204.1774 517.7223,-193.826"/>
<polygon fill="#191970" stroke="#191970" points="518.7488,-197.1821 527.7254,-191.5544 517.1986,-190.3559 518.7488,-197.1821"/>
</g>
<!-- Node12 -->
<g id="node12" class="node">
<title>Node12</title>
<polygon fill="none" stroke="#bfbfbf" points="66.5,-171.5 66.5,-191.5 213.5,-191.5 213.5,-171.5 66.5,-171.5"/>
<text text-anchor="middle" x="140" y="-178.5" font-family="FreeSans" font-size="10.00" fill="#000000">calobase/RawTowerDefs.h</text>
</g>
<!-- Node8&#45;&gt;Node12 -->
<g id="edge15" class="edge">
<title>Node8&#45;&gt;Node12</title>
<path fill="none" stroke="#191970" d="M289.0575,-228.4408C259.1663,-219.0275 214.3392,-204.9107 181.6518,-194.6169"/>
<polygon fill="#191970" stroke="#191970" points="182.5166,-191.2198 171.9271,-191.5544 180.414,-197.8966 182.5166,-191.2198"/>
</g>
<!-- Node8&#45;&gt;Node13 -->
<g id="edge16" class="edge">
<title>Node8&#45;&gt;Node13</title>
<path fill="none" stroke="#191970" d="M252.7244,-236.1257C182.9786,-232.0937 81.5327,-221.2314 57,-192 51,-184.8508 52.2853,-179.055 57,-171 109.2705,-81.6974 160.5607,-85.618 260,-57 348.486,-31.5343 1002.1627,-15.2269 1172.5058,-11.3793"/>
<polygon fill="#191970" stroke="#191970" points="1172.641,-14.8773 1182.5601,-11.1541 1172.4842,-7.879 1172.641,-14.8773"/>
</g>
<!-- Node9&#45;&gt;Node6 -->
<g id="edge12" class="edge">
<title>Node9&#45;&gt;Node6</title>
<path fill="none" stroke="#191970" d="M449.8803,-171.3651C474.8726,-156.7578 523.5613,-129.8094 568,-114 628.132,-92.6076 701.6588,-78.9329 743.2324,-72.2874"/>
<polygon fill="#191970" stroke="#191970" points="743.9921,-75.7113 753.3329,-70.7113 742.9128,-68.795 743.9921,-75.7113"/>
</g>
<!-- Node9&#45;&gt;Node7 -->
<g id="edge11" class="edge">
<title>Node9&#45;&gt;Node7</title>
<path fill="none" stroke="#191970" d="M461.7659,-171.4408C491.1979,-161.1486 536.7093,-145.2335 566.4301,-134.8404"/>
<polygon fill="#191970" stroke="#191970" points="567.9477,-138.0176 576.2319,-131.4128 565.637,-131.41 567.9477,-138.0176"/>
</g>
<!-- Node10 -->
<g id="node10" class="node">
<title>Node10</title>
<polygon fill="none" stroke="#bfbfbf" points="408.5,-114.5 408.5,-134.5 457.5,-134.5 457.5,-114.5 408.5,-114.5"/>
<text text-anchor="middle" x="433" y="-121.5" font-family="FreeSans" font-size="10.00" fill="#000000">vector</text>
</g>
<!-- Node9&#45;&gt;Node10 -->
<g id="edge13" class="edge">
<title>Node9&#45;&gt;Node10</title>
<path fill="none" stroke="#191970" d="M433,-171.3095C433,-163.9335 433,-153.72 433,-144.715"/>
<polygon fill="#191970" stroke="#191970" points="436.5001,-144.6022 433,-134.6022 429.5001,-144.6023 436.5001,-144.6022"/>
</g>
<!-- Node18&#45;&gt;Node6 -->
<g id="edge30" class="edge">
<title>Node18&#45;&gt;Node6</title>
<path fill="none" stroke="#191970" d="M1540.0416,-171.4156C1525.4713,-155.8166 1494.9368,-126.3484 1462,-114 1331.7349,-65.1622 975.2161,-93.825 837,-78 827.6916,-76.9342 817.6482,-75.3765 808.45,-73.7855"/>
<polygon fill="#191970" stroke="#191970" points="808.9697,-70.3229 798.5084,-71.9996 807.732,-77.2127 808.9697,-70.3229"/>
</g>
<!-- Node19 -->
<g id="node19" class="node">
<title>Node19</title>
<g id="a_node19"><a xlink:href="../../d3/d62/PHNode_8h.html" target="_top" xlink:title="PHNode.h">
<polygon fill="none" stroke="#000000" points="1387.5,-114.5 1387.5,-134.5 1452.5,-134.5 1452.5,-114.5 1387.5,-114.5"/>
<text text-anchor="middle" x="1420" y="-121.5" font-family="FreeSans" font-size="10.00" fill="#000000">PHNode.h</text>
</a>
</g>
</g>
<!-- Node18&#45;&gt;Node19 -->
<g id="edge25" class="edge">
<title>Node18&#45;&gt;Node19</title>
<path fill="none" stroke="#191970" d="M1526.2343,-171.4408C1505.7286,-162.3801 1475.3603,-148.9615 1452.3385,-138.7891"/>
<polygon fill="#191970" stroke="#191970" points="1453.5335,-135.4907 1442.972,-134.6504 1450.7043,-141.8935 1453.5335,-135.4907"/>
</g>
<!-- Node21 -->
<g id="node21" class="node">
<title>Node21</title>
<g id="a_node21"><a xlink:href="../../db/dd5/PHPointerList_8h.html" target="_top" xlink:title="PHPointerList.h">
<polygon fill="none" stroke="#000000" points="1385,-57.5 1385,-77.5 1477,-77.5 1477,-57.5 1385,-57.5"/>
<text text-anchor="middle" x="1431" y="-64.5" font-family="FreeSans" font-size="10.00" fill="#000000">PHPointerList.h</text>
</a>
</g>
</g>
<!-- Node18&#45;&gt;Node21 -->
<g id="edge28" class="edge">
<title>Node18&#45;&gt;Node21</title>
<path fill="none" stroke="#191970" d="M1543.8233,-171.4287C1536.2497,-157.3749 1521.0687,-131.627 1503,-114 1490.3308,-101.6405 1473.8911,-90.7277 1459.9198,-82.5854"/>
<polygon fill="#191970" stroke="#191970" points="1461.5895,-79.5089 1451.1595,-77.6475 1458.1522,-85.6069 1461.5895,-79.5089"/>
</g>
<!-- Node19&#45;&gt;Node6 -->
<g id="edge27" class="edge">
<title>Node19&#45;&gt;Node6</title>
<path fill="none" stroke="#191970" d="M1387.099,-115.6847C1384.0374,-115.0431 1380.9701,-114.4662 1378,-114 1139.9393,-76.6285 1076.2876,-106.4777 837,-78 827.6965,-76.8928 817.6545,-75.3218 808.4563,-73.7315"/>
<polygon fill="#191970" stroke="#191970" points="808.9744,-70.2686 798.514,-71.9513 807.7406,-77.1591 808.9744,-70.2686"/>
</g>
<!-- Node20 -->
<g id="node20" class="node">
<title>Node20</title>
<polygon fill="none" stroke="#bfbfbf" points="1319,-57.5 1319,-77.5 1367,-77.5 1367,-57.5 1319,-57.5"/>
<text text-anchor="middle" x="1343" y="-64.5" font-family="FreeSans" font-size="10.00" fill="#000000">iosfwd</text>
</g>
<!-- Node19&#45;&gt;Node20 -->
<g id="edge26" class="edge">
<title>Node19&#45;&gt;Node20</title>
<path fill="none" stroke="#191970" d="M1406.2339,-114.3095C1394.7369,-105.7987 1378.1366,-93.5102 1364.8293,-83.6594"/>
<polygon fill="#191970" stroke="#191970" points="1366.7668,-80.7389 1356.6469,-77.6022 1362.6019,-86.3652 1366.7668,-80.7389"/>
</g>
<!-- Node21&#45;&gt;Node13 -->
<g id="edge29" class="edge">
<title>Node21&#45;&gt;Node13</title>
<path fill="none" stroke="#191970" d="M1392.5278,-57.4408C1353.2844,-47.1799 1292.6664,-31.3302 1252.9105,-20.9353"/>
<polygon fill="#191970" stroke="#191970" points="1253.5906,-17.4955 1243.0304,-18.352 1251.8198,-24.2679 1253.5906,-17.4955"/>
</g>
<!-- Node22&#45;&gt;Node6 -->
<g id="edge53" class="edge">
<title>Node22&#45;&gt;Node6</title>
<path fill="none" stroke="#191970" d="M851.7966,-228.4819C831.4218,-221.5939 808.7595,-210.2741 795,-192 771.9843,-161.4326 771.5566,-114.4776 773.5902,-87.8242"/>
<polygon fill="#191970" stroke="#191970" points="777.0856,-88.039 774.5538,-77.7512 770.1174,-87.3724 777.0856,-88.039"/>
</g>
<!-- Node23 -->
<g id="node23" class="node">
<title>Node23</title>
<g id="a_node23"><a xlink:href="../../dd/d9b/PHDataNode_8h.html" target="_top" xlink:title="PHDataNode.h">
<polygon fill="none" stroke="#000000" points="1168.5,-171.5 1168.5,-191.5 1257.5,-191.5 1257.5,-171.5 1168.5,-171.5"/>
<text text-anchor="middle" x="1213" y="-178.5" font-family="FreeSans" font-size="10.00" fill="#000000">PHDataNode.h</text>
</a>
</g>
</g>
<!-- Node22&#45;&gt;Node23 -->
<g id="edge32" class="edge">
<title>Node22&#45;&gt;Node23</title>
<path fill="none" stroke="#191970" d="M954.2883,-228.4877C1005.3255,-219.6543 1081.7636,-206.264 1157.9624,-192.1701"/>
<polygon fill="#191970" stroke="#191970" points="1159.0278,-195.5323 1168.2221,-190.2678 1157.7516,-188.6496 1159.0278,-195.5323"/>
</g>
<!-- Node24 -->
<g id="node24" class="node">
<title>Node24</title>
<g id="a_node24"><a xlink:href="../../d9/d53/PHIOManager_8h.html" target="_top" xlink:title="PHIOManager.h">
<polygon fill="none" stroke="#000000" points="918.5,-114.5 918.5,-134.5 1011.5,-134.5 1011.5,-114.5 918.5,-114.5"/>
<text text-anchor="middle" x="965" y="-121.5" font-family="FreeSans" font-size="10.00" fill="#000000">PHIOManager.h</text>
</a>
</g>
</g>
<!-- Node22&#45;&gt;Node24 -->
<g id="edge35" class="edge">
<title>Node22&#45;&gt;Node24</title>
<path fill="none" stroke="#191970" d="M905.2507,-228.3013C913.2162,-219.2056 924.7048,-205.3078 933,-192 942.5123,-176.7397 951.1079,-158.2084 956.9892,-144.4262"/>
<polygon fill="#191970" stroke="#191970" points="960.3236,-145.523 960.9279,-134.9454 953.8592,-142.8374 960.3236,-145.523"/>
</g>
<!-- Node26 -->
<g id="node26" class="node">
<title>Node26</title>
<g id="a_node26"><a xlink:href="../../dd/de7/PHNodeIOManager_8h.html" target="_top" xlink:title="PHNodeIOManager.h">
<polygon fill="none" stroke="#000000" points="804,-171.5 804,-191.5 924,-191.5 924,-171.5 804,-171.5"/>
<text text-anchor="middle" x="864" y="-178.5" font-family="FreeSans" font-size="10.00" fill="#000000">PHNodeIOManager.h</text>
</a>
</g>
</g>
<!-- Node22&#45;&gt;Node26 -->
<g id="edge38" class="edge">
<title>Node22&#45;&gt;Node26</title>
<path fill="none" stroke="#191970" d="M890.279,-228.3095C885.9561,-220.6093 879.897,-209.8166 874.6862,-200.5349"/>
<polygon fill="#191970" stroke="#191970" points="877.6188,-198.6087 869.6714,-191.6022 871.5149,-202.0355 877.6188,-198.6087"/>
</g>
<!-- Node28 -->
<g id="node28" class="node">
<title>Node28</title>
<g id="a_node28"><a xlink:href="../../db/d17/PHTypedNodeIterator_8h.html" target="_top" xlink:title="PHTypedNodeIterator.h">
<polygon fill="none" stroke="#000000" points="1018,-171.5 1018,-191.5 1150,-191.5 1150,-171.5 1018,-171.5"/>
<text text-anchor="middle" x="1084" y="-178.5" font-family="FreeSans" font-size="10.00" fill="#000000">PHTypedNodeIterator.h</text>
</a>
</g>
</g>
<!-- Node22&#45;&gt;Node28 -->
<g id="edge45" class="edge">
<title>Node22&#45;&gt;Node28</title>
<path fill="none" stroke="#191970" d="M929.1779,-228.4408C960.3589,-218.9869 1007.1875,-204.7889 1041.1757,-194.484"/>
<polygon fill="#191970" stroke="#191970" points="1042.2839,-197.8054 1050.8382,-191.5544 1040.2528,-191.1065 1042.2839,-197.8054"/>
</g>
<!-- Node30 -->
<g id="node30" class="node">
<title>Node30</title>
<g id="a_node30"><a xlink:href="../../de/da7/phooldefs_8h.html" target="_top" xlink:title="phooldefs.h">
<polygon fill="none" stroke="#000000" points="672.5,-114.5 672.5,-134.5 747.5,-134.5 747.5,-114.5 672.5,-114.5"/>
<text text-anchor="middle" x="710" y="-121.5" font-family="FreeSans" font-size="10.00" fill="#000000">phooldefs.h</text>
</a>
</g>
</g>
<!-- Node22&#45;&gt;Node30 -->
<g id="edge50" class="edge">
<title>Node22&#45;&gt;Node30</title>
<path fill="none" stroke="#191970" d="M845.9445,-228.48C819.25,-221.4058 786.8768,-209.9179 762,-192 744.2762,-179.2341 729.6987,-158.7388 720.5344,-143.6773"/>
<polygon fill="#191970" stroke="#191970" points="723.3672,-141.5861 715.3151,-134.7003 717.3156,-145.1046 723.3672,-141.5861"/>
</g>
<!-- Node31 -->
<g id="node31" class="node">
<title>Node31</title>
<polygon fill="none" stroke="#bfbfbf" points="1275.5,-171.5 1275.5,-191.5 1340.5,-191.5 1340.5,-171.5 1275.5,-171.5"/>
<text text-anchor="middle" x="1308" y="-178.5" font-family="FreeSans" font-size="10.00" fill="#000000">TObject.h</text>
</g>
<!-- Node22&#45;&gt;Node31 -->
<g id="edge52" class="edge">
<title>Node22&#45;&gt;Node31</title>
<path fill="none" stroke="#191970" d="M962.0681,-232.7549C1034.3868,-225.8967 1153.8801,-212.8974 1265.341,-192.1417"/>
<polygon fill="#191970" stroke="#191970" points="1266.2323,-195.5354 1275.4095,-190.2412 1264.9338,-188.6568 1266.2323,-195.5354"/>
</g>
<!-- Node23&#45;&gt;Node13 -->
<g id="edge34" class="edge">
<title>Node23&#45;&gt;Node13</title>
<path fill="none" stroke="#191970" d="M1213,-171.3153C1213,-143.8178 1213,-67.6748 1213,-30.8993"/>
<polygon fill="#191970" stroke="#191970" points="1216.5001,-30.8475 1213,-20.8476 1209.5001,-30.8476 1216.5001,-30.8475"/>
</g>
<!-- Node23&#45;&gt;Node19 -->
<g id="edge33" class="edge">
<title>Node23&#45;&gt;Node19</title>
<path fill="none" stroke="#191970" d="M1249.5309,-171.4408C1285.3299,-161.5831 1339.8614,-146.5672 1377.5641,-136.1853"/>
<polygon fill="#191970" stroke="#191970" points="1378.5311,-139.5493 1387.2431,-133.52 1376.6727,-132.8005 1378.5311,-139.5493"/>
</g>
<!-- Node24&#45;&gt;Node6 -->
<g id="edge37" class="edge">
<title>Node24&#45;&gt;Node6</title>
<path fill="none" stroke="#191970" d="M931.6457,-114.4408C896.9759,-103.9848 843.0637,-87.7256 808.6554,-77.3484"/>
<polygon fill="#191970" stroke="#191970" points="809.2307,-73.8663 798.646,-74.3297 807.2094,-80.5681 809.2307,-73.8663"/>
</g>
<!-- Node25 -->
<g id="node25" class="node">
<title>Node25</title>
<polygon fill="none" stroke="#bfbfbf" points="938,-57.5 938,-77.5 992,-77.5 992,-57.5 938,-57.5"/>
<text text-anchor="middle" x="965" y="-64.5" font-family="FreeSans" font-size="10.00" fill="#000000">cstddef</text>
</g>
<!-- Node24&#45;&gt;Node25 -->
<g id="edge36" class="edge">
<title>Node24&#45;&gt;Node25</title>
<path fill="none" stroke="#191970" d="M965,-114.3095C965,-106.9335 965,-96.72 965,-87.715"/>
<polygon fill="#191970" stroke="#191970" points="968.5001,-87.6022 965,-77.6022 961.5001,-87.6023 968.5001,-87.6022"/>
</g>
<!-- Node26&#45;&gt;Node6 -->
<g id="edge44" class="edge">
<title>Node26&#45;&gt;Node6</title>
<path fill="none" stroke="#191970" d="M856.1906,-171.3833C841.355,-152.1645 808.9074,-110.1301 790.1512,-85.8322"/>
<polygon fill="#191970" stroke="#191970" points="792.7995,-83.5352 783.9184,-77.7579 787.2584,-87.8126 792.7995,-83.5352"/>
</g>
<!-- Node26&#45;&gt;Node7 -->
<g id="edge43" class="edge">
<title>Node26&#45;&gt;Node7</title>
<path fill="none" stroke="#191970" d="M816.7039,-171.4408C761.4978,-159.6992 671.8835,-140.6394 625.6638,-130.8091"/>
<polygon fill="#191970" stroke="#191970" points="626.1991,-127.3447 615.6897,-128.6877 624.7428,-134.1916 626.1991,-127.3447"/>
</g>
<!-- Node26&#45;&gt;Node24 -->
<g id="edge39" class="edge">
<title>Node26&#45;&gt;Node24</title>
<path fill="none" stroke="#191970" d="M882.0568,-171.3095C897.7119,-162.4745 920.5805,-149.5684 938.3421,-139.5445"/>
<polygon fill="#191970" stroke="#191970" points="940.1109,-142.5653 947.0996,-134.6022 936.6705,-136.4691 940.1109,-142.5653"/>
</g>
<!-- Node26&#45;&gt;Node25 -->
<g id="edge42" class="edge">
<title>Node26&#45;&gt;Node25</title>
<path fill="none" stroke="#191970" d="M869.7733,-171.2759C877.8137,-157.4913 893.2894,-132.5393 910,-114 919.9087,-103.007 932.4117,-92.2393 942.9921,-83.8383"/>
<polygon fill="#191970" stroke="#191970" points="945.2183,-86.5411 950.9789,-77.6492 940.9305,-81.008 945.2183,-86.5411"/>
</g>
<!-- Node27 -->
<g id="node27" class="node">
<title>Node27</title>
<g id="a_node27"><a xlink:href="../../d5/d6f/phool_8h.html" target="_top" xlink:title="phool.h">
<polygon fill="none" stroke="#000000" points="846,-57.5 846,-77.5 900,-77.5 900,-57.5 846,-57.5"/>
<text text-anchor="middle" x="873" y="-64.5" font-family="FreeSans" font-size="10.00" fill="#000000">phool.h</text>
</a>
</g>
</g>
<!-- Node26&#45;&gt;Node27 -->
<g id="edge40" class="edge">
<title>Node26&#45;&gt;Node27</title>
<path fill="none" stroke="#191970" d="M864.7987,-171.3833C866.276,-152.6703 869.4611,-112.3266 871.3984,-87.7866"/>
<polygon fill="#191970" stroke="#191970" points="874.8922,-88.0024 872.1902,-77.7579 867.9139,-87.4514 874.8922,-88.0024"/>
</g>
<!-- Node27&#45;&gt;Node13 -->
<g id="edge41" class="edge">
<title>Node27&#45;&gt;Node13</title>
<path fill="none" stroke="#191970" d="M900.0364,-62.3004C909.221,-60.5688 919.5497,-58.6594 929,-57 1015.6808,-41.7795 1117.535,-25.4894 1172.6429,-16.8077"/>
<polygon fill="#191970" stroke="#191970" points="1173.3639,-20.2374 1182.6987,-15.2263 1172.2764,-13.3224 1173.3639,-20.2374"/>
</g>
<!-- Node28&#45;&gt;Node25 -->
<g id="edge49" class="edge">
<title>Node28&#45;&gt;Node25</title>
<path fill="none" stroke="#191970" d="M1081.693,-171.1547C1078.0238,-156.7755 1069.6226,-130.6432 1054,-114 1039.7048,-98.771 1019.2958,-87.6115 1001.627,-80.0481"/>
<polygon fill="#191970" stroke="#191970" points="1002.7319,-76.7195 992.1491,-76.2131 1000.1063,-83.2085 1002.7319,-76.7195"/>
</g>
<!-- Node28&#45;&gt;Node29 -->
<g id="edge46" class="edge">
<title>Node28&#45;&gt;Node29</title>
<path fill="none" stroke="#191970" d="M1125.2959,-171.4408C1164.7726,-161.8246 1224.3999,-147.3 1266.8619,-136.9567"/>
<polygon fill="#191970" stroke="#191970" points="1267.8366,-140.3217 1276.7241,-134.5544 1266.1798,-133.5206 1267.8366,-140.3217"/>
</g>
<!-- Node29&#45;&gt;Node6 -->
<g id="edge48" class="edge">
<title>Node29&#45;&gt;Node6</title>
<path fill="none" stroke="#191970" d="M1266.9541,-120.8149C1178.9583,-114.1833 993.1154,-98.953 837,-78 827.7141,-76.7537 817.6778,-75.1384 808.4793,-73.55"/>
<polygon fill="#191970" stroke="#191970" points="808.9916,-70.0864 798.5346,-71.7892 807.7712,-76.9791 808.9916,-70.0864"/>
</g>
<!-- Node29&#45;&gt;Node21 -->
<g id="edge47" class="edge">
<title>Node29&#45;&gt;Node21</title>
<path fill="none" stroke="#191970" d="M1337.942,-114.4408C1355.6639,-105.5014 1381.7951,-92.3202 1401.8588,-82.1996"/>
<polygon fill="#191970" stroke="#191970" points="1403.5251,-85.2791 1410.8772,-77.6504 1400.3725,-79.0292 1403.5251,-85.2791"/>
</g>
<!-- Node30&#45;&gt;Node6 -->
<g id="edge51" class="edge">
<title>Node30&#45;&gt;Node6</title>
<path fill="none" stroke="#191970" d="M721.7995,-114.3095C731.4664,-105.9608 745.3425,-93.9769 756.6343,-84.2249"/>
<polygon fill="#191970" stroke="#191970" points="759.0221,-86.7874 764.3027,-77.6022 754.4467,-81.4896 759.0221,-86.7874"/>
</g>
<!-- Node32&#45;&gt;Node6 -->
<g id="edge61" class="edge">
<title>Node32&#45;&gt;Node6</title>
<path fill="none" stroke="#191970" d="M1332.2584,-291.4641C1243.3127,-265.6937 1013.9832,-198.7352 1009,-192 988.1386,-163.8038 1043.3699,-141.015 1021,-114 1017.6009,-109.8951 874.4032,-84.5808 808.5373,-73.1234"/>
<polygon fill="#191970" stroke="#191970" points="809.1148,-69.6714 798.6634,-71.409 807.9172,-76.5682 809.1148,-69.6714"/>
</g>
<!-- Node32&#45;&gt;Node19 -->
<g id="edge58" class="edge">
<title>Node32&#45;&gt;Node19</title>
<path fill="none" stroke="#191970" d="M1370.0014,-291.4766C1378.452,-263.2547 1402.5679,-182.7167 1413.9337,-144.759"/>
<polygon fill="#191970" stroke="#191970" points="1417.3839,-145.4381 1416.8995,-134.8544 1410.678,-143.4301 1417.3839,-145.4381"/>
</g>
<!-- Node32&#45;&gt;Node22 -->
<g id="edge57" class="edge">
<title>Node32&#45;&gt;Node22</title>
<path fill="none" stroke="#191970" d="M1334.7689,-291.4529C1326.1409,-289.048 1316.7729,-286.6904 1308,-285 1162.2604,-256.918 1123.3663,-266.6584 976,-249 974.8873,-248.8667 973.7661,-248.7314 972.6378,-248.5945"/>
<polygon fill="#191970" stroke="#191970" points="972.6931,-245.0749 962.3397,-247.3239 971.8359,-252.0222 972.6931,-245.0749"/>
</g>
<!-- Node32&#45;&gt;Node23 -->
<g id="edge56" class="edge">
<title>Node32&#45;&gt;Node23</title>
<path fill="none" stroke="#191970" d="M1354.1349,-291.4753C1327.591,-270.7917 1266.5308,-223.2123 1234.1141,-197.9525"/>
<polygon fill="#191970" stroke="#191970" points="1236.1942,-195.1363 1226.1549,-191.7506 1231.8916,-200.6579 1236.1942,-195.1363"/>
</g>
<!-- Node32&#45;&gt;Node29 -->
<g id="edge59" class="edge">
<title>Node32&#45;&gt;Node29</title>
<path fill="none" stroke="#191970" d="M1367.2679,-291.286C1367.5212,-268.7613 1366.2778,-213.4531 1350,-171 1346.1352,-160.9204 1339.6714,-150.9055 1333.5609,-142.766"/>
<polygon fill="#191970" stroke="#191970" points="1336.1645,-140.4162 1327.2088,-134.7553 1330.6797,-144.7655 1336.1645,-140.4162"/>
</g>
<!-- Node32&#45;&gt;Node31 -->
<g id="edge60" class="edge">
<title>Node32&#45;&gt;Node31</title>
<path fill="none" stroke="#191970" d="M1361.9697,-291.2689C1352.1292,-271.2543 1330.1902,-226.6326 1317.5223,-200.8673"/>
<polygon fill="#191970" stroke="#191970" points="1320.5707,-199.1349 1313.0176,-191.7052 1314.2889,-202.2235 1320.5707,-199.1349"/>
</g>
</g>
</svg>
