<?xml version="1.0" encoding="UTF-8" standalone="no"?>
<!DOCTYPE svg PUBLIC "-//W3C//DTD SVG 1.1//EN"
 "http://www.w3.org/Graphics/SVG/1.1/DTD/svg11.dtd">
<!-- Generated by graphviz version 2.40.1 (20161225.0304)
 -->
<!-- Title: PHG4Cellv1::add_eion Pages: 1 -->
<svg width="703pt" height="197pt"
 viewBox="0.00 0.00 703.00 197.00" xmlns="http://www.w3.org/2000/svg" xmlns:xlink="http://www.w3.org/1999/xlink">
<g id="graph0" class="graph" transform="scale(1 1) rotate(0) translate(4 193)">
<title>PHG4Cellv1::add_eion</title>
<!-- Node1 -->
<g id="node1" class="node">
<title>Node1</title>
<polygon fill="#bfbfbf" stroke="#000000" points="0,-96.5 0,-116.5 128,-116.5 128,-96.5 0,-96.5"/>
<text text-anchor="middle" x="64" y="-103.5" font-family="FreeSans" font-size="10.00" fill="#000000">PHG4Cellv1::add_eion</text>
</g>
<!-- Node2 -->
<g id="node2" class="node">
<title>Node2</title>
<g id="a_node2"><a xlink:href="../../de/d5e/classPHG4Cellv1.html#a29367654f4de8a3c3f0b1936030efa00" target="_top" xlink:title="PHG4Cellv1::add_property">
<polygon fill="none" stroke="#000000" points="164,-96.5 164,-116.5 314,-116.5 314,-96.5 164,-96.5"/>
<text text-anchor="middle" x="239" y="-103.5" font-family="FreeSans" font-size="10.00" fill="#000000">PHG4Cellv1::add_property</text>
</a>
</g>
</g>
<!-- Node1&#45;&gt;Node2 -->
<g id="edge1" class="edge">
<title>Node1&#45;&gt;Node2</title>
<path fill="none" stroke="#191970" d="M128.1698,-106.5C136.5133,-106.5 145.1621,-106.5 153.7813,-106.5"/>
<polygon fill="#191970" stroke="#191970" points="153.8659,-110.0001 163.8659,-106.5 153.8659,-103.0001 153.8659,-110.0001"/>
</g>
<!-- Node3 -->
<g id="node3" class="node">
<title>Node3</title>
<g id="a_node3"><a xlink:href="../../dc/dfe/classPHG4Cell.html#a662d88c74fbd5dc06d8dd9aac168210b" target="_top" xlink:title="PHG4Cell::check_property">
<polygon fill="none" stroke="#000000" points="540,-168.5 540,-188.5 688,-188.5 688,-168.5 540,-168.5"/>
<text text-anchor="middle" x="614" y="-175.5" font-family="FreeSans" font-size="10.00" fill="#000000">PHG4Cell::check_property</text>
</a>
</g>
</g>
<!-- Node2&#45;&gt;Node3 -->
<g id="edge2" class="edge">
<title>Node2&#45;&gt;Node3</title>
<path fill="none" stroke="#191970" d="M261.469,-116.5973C283.5518,-126.0872 318.4363,-139.931 350,-147.5 409.1101,-161.6747 477.2834,-169.4697 529.5448,-173.6975"/>
<polygon fill="#191970" stroke="#191970" points="529.5355,-177.2074 539.7776,-174.4964 530.0803,-170.2286 529.5355,-177.2074"/>
</g>
<!-- Node4 -->
<g id="node4" class="node">
<title>Node4</title>
<g id="a_node4"><a xlink:href="../../dc/dfe/classPHG4Cell.html#a42e05d988a7b10a3011cbb29ccc873cd" target="_top" xlink:title="PHG4Cell::get_property_info">
<polygon fill="none" stroke="#000000" points="534.5,-107.5 534.5,-127.5 693.5,-127.5 693.5,-107.5 534.5,-107.5"/>
<text text-anchor="middle" x="614" y="-114.5" font-family="FreeSans" font-size="10.00" fill="#000000">PHG4Cell::get_property_info</text>
</a>
</g>
</g>
<!-- Node2&#45;&gt;Node4 -->
<g id="edge3" class="edge">
<title>Node2&#45;&gt;Node4</title>
<path fill="none" stroke="#191970" d="M272.6497,-116.5123C294.4759,-122.4746 323.6535,-129.4556 350,-132.5 413.0858,-139.7898 485.08,-134.8212 537.934,-128.7138"/>
<polygon fill="#191970" stroke="#191970" points="538.3933,-132.1839 547.9072,-127.5217 537.5624,-125.2334 538.3933,-132.1839"/>
</g>
<!-- Node5 -->
<g id="node5" class="node">
<title>Node5</title>
<g id="a_node5"><a xlink:href="../../dc/dfe/classPHG4Cell.html#a2d7f4192e24268528db85e3f89e9bc6d" target="_top" xlink:title="PHG4Cell::get_property_type">
<polygon fill="none" stroke="#000000" points="533,-65.5 533,-85.5 695,-85.5 695,-65.5 533,-65.5"/>
<text text-anchor="middle" x="614" y="-72.5" font-family="FreeSans" font-size="10.00" fill="#000000">PHG4Cell::get_property_type</text>
</a>
</g>
</g>
<!-- Node2&#45;&gt;Node5 -->
<g id="edge4" class="edge">
<title>Node2&#45;&gt;Node5</title>
<path fill="none" stroke="#191970" d="M273.6527,-96.3929C295.3749,-90.5558 324.0763,-83.7446 350,-80.5 407.1426,-73.3481 471.7764,-72.0113 522.7887,-72.5047"/>
<polygon fill="#191970" stroke="#191970" points="522.7614,-76.0046 532.8033,-72.6266 522.8467,-69.0051 522.7614,-76.0046"/>
</g>
<!-- Node6 -->
<g id="node6" class="node">
<title>Node6</title>
<g id="a_node6"><a xlink:href="../../de/d5e/classPHG4Cellv1.html#a8c51fc772173796ddf4f4d0d7bf85fef" target="_top" xlink:title="PHG4Cellv1::get_property\l_float">
<polygon fill="none" stroke="#000000" points="350,-90.5 350,-122.5 497,-122.5 497,-90.5 350,-90.5"/>
<text text-anchor="start" x="358" y="-109.5" font-family="FreeSans" font-size="10.00" fill="#000000">PHG4Cellv1::get_property</text>
<text text-anchor="middle" x="423.5" y="-97.5" font-family="FreeSans" font-size="10.00" fill="#000000">_float</text>
</a>
</g>
</g>
<!-- Node2&#45;&gt;Node6 -->
<g id="edge5" class="edge">
<title>Node2&#45;&gt;Node6</title>
<path fill="none" stroke="#191970" d="M314.0432,-106.5C322.4126,-106.5 330.9779,-106.5 339.4502,-106.5"/>
<polygon fill="#191970" stroke="#191970" points="339.719,-110.0001 349.719,-106.5 339.7189,-103.0001 339.719,-110.0001"/>
</g>
<!-- Node7 -->
<g id="node7" class="node">
<title>Node7</title>
<g id="a_node7"><a xlink:href="../../df/d43/unionPHG4Cellv1_1_1u__property.html#ae23df19604c0d2332c479f4014145eaa" target="_top" xlink:title="PHG4Cellv1::u_property\l::get_storage">
<polygon fill="none" stroke="#000000" points="355,-.5 355,-32.5 492,-32.5 492,-.5 355,-.5"/>
<text text-anchor="start" x="363" y="-19.5" font-family="FreeSans" font-size="10.00" fill="#000000">PHG4Cellv1::u_property</text>
<text text-anchor="middle" x="423.5" y="-7.5" font-family="FreeSans" font-size="10.00" fill="#000000">::get_storage</text>
</a>
</g>
</g>
<!-- Node2&#45;&gt;Node7 -->
<g id="edge9" class="edge">
<title>Node2&#45;&gt;Node7</title>
<path fill="none" stroke="#191970" d="M256.8201,-96.3922C278.5395,-84.2217 316.494,-63.4315 350,-47.5 357.731,-43.8241 366.0136,-40.116 374.1309,-36.6055"/>
<polygon fill="#191970" stroke="#191970" points="375.7176,-39.7338 383.5409,-32.5892 372.9697,-33.2957 375.7176,-39.7338"/>
</g>
<!-- Node6&#45;&gt;Node3 -->
<g id="edge6" class="edge">
<title>Node6&#45;&gt;Node3</title>
<path fill="none" stroke="#191970" d="M466.2519,-122.6582C499.9534,-135.3958 546.4065,-152.9528 578.1742,-164.9595"/>
<polygon fill="#191970" stroke="#191970" points="576.9397,-168.2346 587.5313,-168.4961 579.4146,-161.6866 576.9397,-168.2346"/>
</g>
<!-- Node6&#45;&gt;Node4 -->
<g id="edge7" class="edge">
<title>Node6&#45;&gt;Node4</title>
<path fill="none" stroke="#191970" d="M497.1523,-110.7529C505.9766,-111.2624 515.0619,-111.787 524.0833,-112.308"/>
<polygon fill="#191970" stroke="#191970" points="524.039,-115.8111 534.2242,-112.8935 524.4426,-108.8228 524.039,-115.8111"/>
</g>
<!-- Node6&#45;&gt;Node5 -->
<g id="edge8" class="edge">
<title>Node6&#45;&gt;Node5</title>
<path fill="none" stroke="#191970" d="M497.1523,-94.5146C511.9543,-92.1059 527.4909,-89.5776 542.2279,-87.1795"/>
<polygon fill="#191970" stroke="#191970" points="542.9758,-90.6039 552.2837,-85.5431 541.8514,-83.6948 542.9758,-90.6039"/>
</g>
</g>
</svg>
