<?xml version="1.0" encoding="UTF-8" standalone="no"?>
<!DOCTYPE svg PUBLIC "-//W3C//DTD SVG 1.1//EN"
 "http://www.w3.org/Graphics/SVG/1.1/DTD/svg11.dtd">
<!-- Generated by graphviz version 2.40.1 (20161225.0304)
 -->
<!-- Title: stack::clean Pages: 1 -->
<svg width="444pt" height="29pt"
 viewBox="0.00 0.00 444.00 29.00" xmlns="http://www.w3.org/2000/svg" xmlns:xlink="http://www.w3.org/1999/xlink">
<g id="graph0" class="graph" transform="scale(1 1) rotate(0) translate(4 25)">
<title>stack::clean</title>
<!-- Node1 -->
<g id="node1" class="node">
<title>Node1</title>
<polygon fill="#bfbfbf" stroke="#000000" points="0,-.5 0,-20.5 76,-20.5 76,-.5 0,-.5"/>
<text text-anchor="middle" x="38" y="-7.5" font-family="FreeSans" font-size="10.00" fill="#000000">stack::clean</text>
</g>
<!-- Node2 -->
<g id="node2" class="node">
<title>Node2</title>
<g id="a_node2"><a xlink:href="../../d3/d17/classhcal.html#a294a4d2d1b10515a1a2c7e1941af09cc" target="_top" xlink:title="hcal::clean">
<polygon fill="none" stroke="#000000" points="112,-.5 112,-20.5 183,-20.5 183,-.5 112,-.5"/>
<text text-anchor="middle" x="147.5" y="-7.5" font-family="FreeSans" font-size="10.00" fill="#000000">hcal::clean</text>
</a>
</g>
</g>
<!-- Node1&#45;&gt;Node2 -->
<g id="edge1" class="edge">
<title>Node1&#45;&gt;Node2</title>
<path fill="none" stroke="#191970" d="M86.5675,-10.5C95.1163,-10.5 103.8688,-10.5 111.9769,-10.5"/>
<polygon fill="#191970" stroke="#191970" points="86.2978,-7.0001 76.2978,-10.5 86.2978,-14.0001 86.2978,-7.0001"/>
</g>
<!-- Node3 -->
<g id="node3" class="node">
<title>Node3</title>
<g id="a_node3"><a xlink:href="../../d8/db9/classhcalHelper.html#a9e4dafe94df89a2a04a2982b13dee116" target="_top" xlink:title="hcalHelper::evLoop">
<polygon fill="none" stroke="#000000" points="219,-.5 219,-20.5 333,-20.5 333,-.5 219,-.5"/>
<text text-anchor="middle" x="276" y="-7.5" font-family="FreeSans" font-size="10.00" fill="#000000">hcalHelper::evLoop</text>
</a>
</g>
</g>
<!-- Node2&#45;&gt;Node3 -->
<g id="edge2" class="edge">
<title>Node2&#45;&gt;Node3</title>
<path fill="none" stroke="#191970" d="M193.4061,-10.5C201.6084,-10.5 210.246,-10.5 218.72,-10.5"/>
<polygon fill="#191970" stroke="#191970" points="193.2944,-7.0001 183.2944,-10.5 193.2944,-14.0001 193.2944,-7.0001"/>
</g>
<!-- Node4 -->
<g id="node4" class="node">
<title>Node4</title>
<g id="a_node4"><a xlink:href="../../d9/dfc/runHelper_8C.html#a19c3855ad40a8efdbbecea95011fe1d9" target="_top" xlink:title="runHelper">
<polygon fill="none" stroke="#000000" points="369,-.5 369,-20.5 436,-20.5 436,-.5 369,-.5"/>
<text text-anchor="middle" x="402.5" y="-7.5" font-family="FreeSans" font-size="10.00" fill="#000000">runHelper</text>
</a>
</g>
</g>
<!-- Node3&#45;&gt;Node4 -->
<g id="edge3" class="edge">
<title>Node3&#45;&gt;Node4</title>
<path fill="none" stroke="#191970" d="M343.3312,-10.5C352.1838,-10.5 360.9293,-10.5 368.8702,-10.5"/>
<polygon fill="#191970" stroke="#191970" points="343.3281,-7.0001 333.328,-10.5 343.328,-14.0001 343.3281,-7.0001"/>
</g>
</g>
</svg>
