<?xml version="1.0" encoding="UTF-8" standalone="no"?>
<!DOCTYPE svg PUBLIC "-//W3C//DTD SVG 1.1//EN"
 "http://www.w3.org/Graphics/SVG/1.1/DTD/svg11.dtd">
<!-- Generated by graphviz version 2.40.1 (20161225.0304)
 -->
<!-- Title: SVReco::GetNodes Pages: 1 -->
<svg width="585pt" height="131pt"
 viewBox="0.00 0.00 585.00 131.00" xmlns="http://www.w3.org/2000/svg" xmlns:xlink="http://www.w3.org/1999/xlink">
<g id="graph0" class="graph" transform="scale(1 1) rotate(0) translate(4 127)">
<title>SVReco::GetNodes</title>
<!-- Node1 -->
<g id="node1" class="node">
<title>Node1</title>
<polygon fill="#bfbfbf" stroke="#000000" points="0,-45.5 0,-65.5 110,-65.5 110,-45.5 0,-45.5"/>
<text text-anchor="middle" x="55" y="-52.5" font-family="FreeSans" font-size="10.00" fill="#000000">SVReco::GetNodes</text>
</g>
<!-- Node2 -->
<g id="node2" class="node">
<title>Node2</title>
<g id="a_node2"><a xlink:href="../../d6/d17/classSVReco.html#a19081506d2161465fdf3f36527aa0e18" target="_top" xlink:title="Initialization, called for initialization at each event.">
<polygon fill="none" stroke="#000000" points="146,-45.5 146,-65.5 252,-65.5 252,-45.5 146,-45.5"/>
<text text-anchor="middle" x="199" y="-52.5" font-family="FreeSans" font-size="10.00" fill="#000000">SVReco::InitEvent</text>
</a>
</g>
</g>
<!-- Node1&#45;&gt;Node2 -->
<g id="edge1" class="edge">
<title>Node1&#45;&gt;Node2</title>
<path fill="none" stroke="#191970" d="M120.4263,-55.5C128.8336,-55.5 137.3613,-55.5 145.546,-55.5"/>
<polygon fill="#191970" stroke="#191970" points="120.2624,-52.0001 110.2623,-55.5 120.2623,-59.0001 120.2624,-52.0001"/>
</g>
<!-- Node3 -->
<g id="node3" class="node">
<title>Node3</title>
<g id="a_node3"><a xlink:href="../../df/d9b/classRecoConversionEval.html#ab5e60cc47b4b3d33f9fdb4a83c2ff775" target="_top" xlink:title="RecoConversionEval\l::doNodePointers">
<polygon fill="none" stroke="#000000" points="295.5,-90.5 295.5,-122.5 414.5,-122.5 414.5,-90.5 295.5,-90.5"/>
<text text-anchor="start" x="303.5" y="-109.5" font-family="FreeSans" font-size="10.00" fill="#000000">RecoConversionEval</text>
<text text-anchor="middle" x="355" y="-97.5" font-family="FreeSans" font-size="10.00" fill="#000000">::doNodePointers</text>
</a>
</g>
</g>
<!-- Node2&#45;&gt;Node3 -->
<g id="edge2" class="edge">
<title>Node2&#45;&gt;Node3</title>
<path fill="none" stroke="#191970" d="M239.3882,-68.7038C259.678,-75.337 284.432,-83.4297 305.8213,-90.4223"/>
<polygon fill="#191970" stroke="#191970" points="240.4131,-65.3567 229.8206,-65.576 238.2379,-72.0102 240.4131,-65.3567"/>
</g>
<!-- Node5 -->
<g id="node5" class="node">
<title>Node5</title>
<g id="a_node5"><a xlink:href="../../d9/d3a/classTruthConversionEval.html#a9a67c8171296f35dd157daf89108d3fd" target="_top" xlink:title="TruthConversionEval\l::process_event">
<polygon fill="none" stroke="#000000" points="294.5,-39.5 294.5,-71.5 415.5,-71.5 415.5,-39.5 294.5,-39.5"/>
<text text-anchor="start" x="302.5" y="-58.5" font-family="FreeSans" font-size="10.00" fill="#000000">TruthConversionEval</text>
<text text-anchor="middle" x="355" y="-46.5" font-family="FreeSans" font-size="10.00" fill="#000000">::process_event</text>
</a>
</g>
</g>
<!-- Node2&#45;&gt;Node5 -->
<g id="edge4" class="edge">
<title>Node2&#45;&gt;Node5</title>
<path fill="none" stroke="#191970" d="M262.296,-55.5C272.9229,-55.5 283.9277,-55.5 294.4822,-55.5"/>
<polygon fill="#191970" stroke="#191970" points="262.2501,-52.0001 252.25,-55.5 262.25,-59.0001 262.2501,-52.0001"/>
</g>
<!-- Node6 -->
<g id="node6" class="node">
<title>Node6</title>
<g id="a_node6"><a xlink:href="../../d2/d6d/classVtxTest.html#ad1a3b9d5e730a3ba75f13a084e21bee5" target="_top" xlink:title="VtxTest::process_event">
<polygon fill="none" stroke="#000000" points="288,-.5 288,-20.5 422,-20.5 422,-.5 288,-.5"/>
<text text-anchor="middle" x="355" y="-7.5" font-family="FreeSans" font-size="10.00" fill="#000000">VtxTest::process_event</text>
</a>
</g>
</g>
<!-- Node2&#45;&gt;Node6 -->
<g id="edge5" class="edge">
<title>Node2&#45;&gt;Node6</title>
<path fill="none" stroke="#191970" d="M243.7088,-42.6032C267.9823,-35.6013 297.5507,-27.0719 320.1074,-20.5652"/>
<polygon fill="#191970" stroke="#191970" points="242.6476,-39.2666 234.0094,-45.4011 244.5878,-45.9923 242.6476,-39.2666"/>
</g>
<!-- Node4 -->
<g id="node4" class="node">
<title>Node4</title>
<g id="a_node4"><a xlink:href="../../df/d9b/classRecoConversionEval.html#a54bb2ea55f01b0d0dc8752fbee1bc237" target="_top" xlink:title="RecoConversionEval\l::process_event">
<polygon fill="none" stroke="#000000" points="458,-90.5 458,-122.5 577,-122.5 577,-90.5 458,-90.5"/>
<text text-anchor="start" x="466" y="-109.5" font-family="FreeSans" font-size="10.00" fill="#000000">RecoConversionEval</text>
<text text-anchor="middle" x="517.5" y="-97.5" font-family="FreeSans" font-size="10.00" fill="#000000">::process_event</text>
</a>
</g>
</g>
<!-- Node3&#45;&gt;Node4 -->
<g id="edge3" class="edge">
<title>Node3&#45;&gt;Node4</title>
<path fill="none" stroke="#191970" d="M424.653,-106.5C435.7309,-106.5 447.1024,-106.5 457.9209,-106.5"/>
<polygon fill="#191970" stroke="#191970" points="424.5863,-103.0001 414.5863,-106.5 424.5862,-110.0001 424.5863,-103.0001"/>
</g>
</g>
</svg>
