<?xml version="1.0" encoding="UTF-8" standalone="no"?>
<!DOCTYPE svg PUBLIC "-//W3C//DTD SVG 1.1//EN"
 "http://www.w3.org/Graphics/SVG/1.1/DTD/svg11.dtd">
<!-- Generated by graphviz version 2.40.1 (20161225.0304)
 -->
<!-- Title: PHG4Sector::Sector_Geometry::AddLayer Pages: 1 -->
<svg width="825pt" height="803pt"
 viewBox="0.00 0.00 825.00 803.00" xmlns="http://www.w3.org/2000/svg" xmlns:xlink="http://www.w3.org/1999/xlink">
<g id="graph0" class="graph" transform="scale(1 1) rotate(0) translate(4 799)">
<title>PHG4Sector::Sector_Geometry::AddLayer</title>
<!-- Node1 -->
<g id="node1" class="node">
<title>Node1</title>
<polygon fill="#bfbfbf" stroke="#000000" points="0,-405.5 0,-437.5 127,-437.5 127,-405.5 0,-405.5"/>
<text text-anchor="start" x="8" y="-424.5" font-family="FreeSans" font-size="10.00" fill="#000000">PHG4Sector::Sector</text>
<text text-anchor="middle" x="63.5" y="-412.5" font-family="FreeSans" font-size="10.00" fill="#000000">_Geometry::AddLayer</text>
</g>
<!-- Node2 -->
<g id="node2" class="node">
<title>Node2</title>
<g id="a_node2"><a xlink:href="../../d9/de6/classPHG4Sector_1_1Sector__Geometry.html#ac5533363def013da20bbfb6cb5b4ee1d" target="_top" xlink:title="PHG4Sector::Sector\l_Geometry::AddLayers\l_AeroGel_ePHENIX">
<polygon fill="none" stroke="#000000" points="166,-557.5 166,-601.5 298,-601.5 298,-557.5 166,-557.5"/>
<text text-anchor="start" x="174" y="-588.5" font-family="FreeSans" font-size="10.00" fill="#000000">PHG4Sector::Sector</text>
<text text-anchor="start" x="174" y="-576.5" font-family="FreeSans" font-size="10.00" fill="#000000">_Geometry::AddLayers</text>
<text text-anchor="middle" x="232" y="-564.5" font-family="FreeSans" font-size="10.00" fill="#000000">_AeroGel_ePHENIX</text>
</a>
</g>
</g>
<!-- Node1&#45;&gt;Node2 -->
<g id="edge1" class="edge">
<title>Node1&#45;&gt;Node2</title>
<path fill="none" stroke="#191970" d="M77.8278,-446.366C95.0077,-474.3459 126.1449,-519.6456 163,-548.5 167.1362,-551.7383 171.6644,-554.7214 176.3611,-557.4501"/>
<polygon fill="#191970" stroke="#191970" points="80.7025,-444.3549 72.5486,-437.59 74.7042,-447.9632 80.7025,-444.3549"/>
</g>
<!-- Node25 -->
<g id="node25" class="node">
<title>Node25</title>
<g id="a_node25"><a xlink:href="../../d9/de6/classPHG4Sector_1_1Sector__Geometry.html#a28dd95a8f2a2b2b1d26e65a1b584702c" target="_top" xlink:title="PHG4Sector::Sector\l_Geometry::AddLayers\l_DriftVol_COMPASS">
<polygon fill="none" stroke="#000000" points="166,-494.5 166,-538.5 298,-538.5 298,-494.5 166,-494.5"/>
<text text-anchor="start" x="174" y="-525.5" font-family="FreeSans" font-size="10.00" fill="#000000">PHG4Sector::Sector</text>
<text text-anchor="start" x="174" y="-513.5" font-family="FreeSans" font-size="10.00" fill="#000000">_Geometry::AddLayers</text>
<text text-anchor="middle" x="232" y="-501.5" font-family="FreeSans" font-size="10.00" fill="#000000">_DriftVol_COMPASS</text>
</a>
</g>
</g>
<!-- Node1&#45;&gt;Node25 -->
<g id="edge24" class="edge">
<title>Node1&#45;&gt;Node25</title>
<path fill="none" stroke="#191970" d="M95.4773,-443.2439C114.6791,-455.9198 139.8076,-471.8496 163,-484.5 169.144,-487.8512 175.7014,-491.1865 182.2378,-494.3686"/>
<polygon fill="#191970" stroke="#191970" points="97.3649,-440.2959 87.1001,-437.6722 93.4883,-446.1245 97.3649,-440.2959"/>
</g>
<!-- Node27 -->
<g id="node27" class="node">
<title>Node27</title>
<g id="a_node27"><a xlink:href="../../d9/de6/classPHG4Sector_1_1Sector__Geometry.html#ab051a45fb6288d8421b723c1a37f0ec5" target="_top" xlink:title="PHG4Sector::Sector\l_Geometry::AddLayers\l_HBD_GEM">
<polygon fill="none" stroke="#000000" points="166,-431.5 166,-475.5 298,-475.5 298,-431.5 166,-431.5"/>
<text text-anchor="start" x="174" y="-462.5" font-family="FreeSans" font-size="10.00" fill="#000000">PHG4Sector::Sector</text>
<text text-anchor="start" x="174" y="-450.5" font-family="FreeSans" font-size="10.00" fill="#000000">_Geometry::AddLayers</text>
<text text-anchor="middle" x="232" y="-438.5" font-family="FreeSans" font-size="10.00" fill="#000000">_HBD_GEM</text>
</a>
</g>
</g>
<!-- Node1&#45;&gt;Node27 -->
<g id="edge26" class="edge">
<title>Node1&#45;&gt;Node27</title>
<path fill="none" stroke="#191970" d="M137.1161,-435.4805C146.7145,-437.3033 156.5,-439.1617 165.9635,-440.9589"/>
<polygon fill="#191970" stroke="#191970" points="137.6801,-432.0251 127.2026,-433.5978 136.374,-438.9022 137.6801,-432.0251"/>
</g>
<!-- Node29 -->
<g id="node29" class="node">
<title>Node29</title>
<g id="a_node29"><a xlink:href="../../d9/de6/classPHG4Sector_1_1Sector__Geometry.html#a73532bacff4db207c02e2929c91b8b62" target="_top" xlink:title="PHG4Sector::Sector\l_Geometry::AddLayers\l_HBD_Readout">
<polygon fill="none" stroke="#000000" points="166,-368.5 166,-412.5 298,-412.5 298,-368.5 166,-368.5"/>
<text text-anchor="start" x="174" y="-399.5" font-family="FreeSans" font-size="10.00" fill="#000000">PHG4Sector::Sector</text>
<text text-anchor="start" x="174" y="-387.5" font-family="FreeSans" font-size="10.00" fill="#000000">_Geometry::AddLayers</text>
<text text-anchor="middle" x="232" y="-375.5" font-family="FreeSans" font-size="10.00" fill="#000000">_HBD_Readout</text>
</a>
</g>
</g>
<!-- Node1&#45;&gt;Node29 -->
<g id="edge29" class="edge">
<title>Node1&#45;&gt;Node29</title>
<path fill="none" stroke="#191970" d="M137.1161,-407.9564C146.7145,-406.1905 156.5,-404.3902 165.9635,-402.6492"/>
<polygon fill="#191970" stroke="#191970" points="136.4043,-404.5285 127.2026,-409.7802 137.6709,-411.413 136.4043,-404.5285"/>
</g>
<!-- Node30 -->
<g id="node30" class="node">
<title>Node30</title>
<g id="a_node30"><a xlink:href="../../d7/df5/EICAnalysis_2macros_2leptoquarks__fun4all_2G4__FGEM__EIC_8C.html#adedab66f745dff8069bd1f750680c423" target="_top" xlink:title="Add drift layers to mini TPC.">
<polygon fill="none" stroke="#000000" points="163,-329.5 163,-349.5 301,-349.5 301,-329.5 163,-329.5"/>
<text text-anchor="middle" x="232" y="-336.5" font-family="FreeSans" font-size="10.00" fill="#000000">AddLayers_MiniTPCDrift</text>
</a>
</g>
</g>
<!-- Node1&#45;&gt;Node30 -->
<g id="edge30" class="edge">
<title>Node1&#45;&gt;Node30</title>
<path fill="none" stroke="#191970" d="M93.2529,-399.3682C112.3724,-385.998 138.1925,-369.4766 163,-358.5 170.8401,-355.031 179.4665,-352.0517 187.8859,-349.5501"/>
<polygon fill="#191970" stroke="#191970" points="91.0899,-396.6115 84.9675,-405.2583 95.1458,-402.3168 91.0899,-396.6115"/>
</g>
<!-- Node31 -->
<g id="node31" class="node">
<title>Node31</title>
<g id="a_node31"><a xlink:href="../../d3/dc0/macros_2blob_2master_2macros_2g4simulations_2G4__DIRC_8C.html#acbdf429e4e41a2057e053691cc0b4128" target="_top" xlink:title="DIRCSetup">
<polygon fill="none" stroke="#000000" points="357.5,-347.5 357.5,-367.5 427.5,-367.5 427.5,-347.5 357.5,-347.5"/>
<text text-anchor="middle" x="392.5" y="-354.5" font-family="FreeSans" font-size="10.00" fill="#000000">DIRCSetup</text>
</a>
</g>
</g>
<!-- Node1&#45;&gt;Node31 -->
<g id="edge31" class="edge">
<title>Node1&#45;&gt;Node31</title>
<path fill="none" stroke="#191970" d="M78.927,-396.6816C96.0001,-371.8197 126.0489,-335.0749 163,-319.5 219.5179,-295.6777 240.8507,-307.5066 301,-319.5 327.6527,-324.8144 356.2602,-338.0438 374.257,-347.3938"/>
<polygon fill="#191970" stroke="#191970" points="75.8573,-394.9771 73.2352,-405.2424 81.6865,-398.8528 75.8573,-394.9771"/>
</g>
<!-- Node3 -->
<g id="node3" class="node">
<title>Node3</title>
<g id="a_node3"><a xlink:href="../../d4/dbc/macros_2blob_2master_2macros_2g4simulations_2G4__Aerogel_8C.html#a400136ba4928234f7c9990b4065328f1" target="_top" xlink:title="AerogelSetup">
<polygon fill="none" stroke="#000000" points="350,-551.5 350,-571.5 435,-571.5 435,-551.5 350,-551.5"/>
<text text-anchor="middle" x="392.5" y="-558.5" font-family="FreeSans" font-size="10.00" fill="#000000">AerogelSetup</text>
</a>
</g>
</g>
<!-- Node2&#45;&gt;Node3 -->
<g id="edge2" class="edge">
<title>Node2&#45;&gt;Node3</title>
<path fill="none" stroke="#191970" d="M308.5075,-570.9197C322.7252,-569.3252 337.0999,-567.7131 349.8413,-566.2842"/>
<polygon fill="#191970" stroke="#191970" points="307.7557,-567.482 298.2081,-572.0748 308.5359,-574.4384 307.7557,-567.482"/>
</g>
<!-- Node4 -->
<g id="node4" class="node">
<title>Node4</title>
<g id="a_node4"><a xlink:href="../../d2/dfe/macros_2blob_2master_2macros_2g4simulations_2G4Setup__EICDetector_8C.html#a5d4cb2d19366a2ae6d2aefe8d2e4a870" target="_top" xlink:title="G4Setup">
<polygon fill="none" stroke="#000000" points="484,-405.5 484,-425.5 544,-425.5 544,-405.5 484,-405.5"/>
<text text-anchor="middle" x="514" y="-412.5" font-family="FreeSans" font-size="10.00" fill="#000000">G4Setup</text>
</a>
</g>
</g>
<!-- Node3&#45;&gt;Node4 -->
<g id="edge3" class="edge">
<title>Node3&#45;&gt;Node4</title>
<path fill="none" stroke="#191970" d="M420.4957,-546.214C429.9196,-540.2318 440.0499,-532.8041 448,-524.5 477.8322,-493.3396 500.5111,-446.4066 509.6252,-425.8094"/>
<polygon fill="#191970" stroke="#191970" points="418.5182,-543.3195 411.7709,-551.488 422.1395,-549.31 418.5182,-543.3195"/>
</g>
<!-- Node5 -->
<g id="node5" class="node">
<title>Node5</title>
<g id="a_node5"><a xlink:href="../../d3/d7f/Fun_8C.html#af0d3c8a78765149fef9b2beeecfc6279" target="_top" xlink:title="ConfigureDetectors">
<polygon fill="none" stroke="#000000" points="606.5,-774.5 606.5,-794.5 720.5,-794.5 720.5,-774.5 606.5,-774.5"/>
<text text-anchor="middle" x="663.5" y="-781.5" font-family="FreeSans" font-size="10.00" fill="#000000">ConfigureDetectors</text>
</a>
</g>
</g>
<!-- Node4&#45;&gt;Node5 -->
<g id="edge4" class="edge">
<title>Node4&#45;&gt;Node5</title>
<path fill="none" stroke="#191970" d="M514.9847,-435.818C518.6676,-503.1808 533.8703,-717.6143 580,-765.5 587.117,-772.8879 596.4635,-777.6736 606.3207,-780.723"/>
<polygon fill="#191970" stroke="#191970" points="518.4714,-435.4693 514.4575,-425.6643 511.4808,-435.8324 518.4714,-435.4693"/>
</g>
<!-- Node7 -->
<g id="node7" class="node">
<title>Node7</title>
<g id="a_node7"><a xlink:href="../../db/dc0/Fun4All__AnaTutorial_8C.html#a8c484ea6d7477278e981ef056b17eac9" target="_top" xlink:title="Fun4All_AnaTutorial">
<polygon fill="none" stroke="#000000" points="606,-735.5 606,-755.5 721,-755.5 721,-735.5 606,-735.5"/>
<text text-anchor="middle" x="663.5" y="-742.5" font-family="FreeSans" font-size="10.00" fill="#000000">Fun4All_AnaTutorial</text>
</a>
</g>
</g>
<!-- Node4&#45;&gt;Node7 -->
<g id="edge6" class="edge">
<title>Node4&#45;&gt;Node7</title>
<path fill="none" stroke="#191970" d="M515.5188,-435.9565C520.5713,-498.3903 538.877,-684.7714 580,-726.5 586.9918,-733.5947 596.0433,-738.2773 605.5974,-741.3243"/>
<polygon fill="#191970" stroke="#191970" points="518.9941,-435.5016 514.7271,-425.804 512.0153,-436.0459 518.9941,-435.5016"/>
</g>
<!-- Node8 -->
<g id="node8" class="node">
<title>Node8</title>
<g id="a_node8"><a xlink:href="../../dd/d28/Fun4All__AnaTutorial__Jets_8C.html#a55eaaeb770a3177f917012de87877d28" target="_top" xlink:title="Fun4All_AnaTutorial_Jets">
<polygon fill="none" stroke="#000000" points="594,-696.5 594,-716.5 733,-716.5 733,-696.5 594,-696.5"/>
<text text-anchor="middle" x="663.5" y="-703.5" font-family="FreeSans" font-size="10.00" fill="#000000">Fun4All_AnaTutorial_Jets</text>
</a>
</g>
</g>
<!-- Node4&#45;&gt;Node8 -->
<g id="edge7" class="edge">
<title>Node4&#45;&gt;Node8</title>
<path fill="none" stroke="#191970" d="M516.1915,-435.9559C522.7123,-492.9732 543.8213,-651.8354 580,-687.5 584.0233,-691.4661 588.692,-694.6734 593.7258,-697.2598"/>
<polygon fill="#191970" stroke="#191970" points="519.6344,-435.2475 515.0513,-425.6952 512.6772,-436.0206 519.6344,-435.2475"/>
</g>
<!-- Node9 -->
<g id="node9" class="node">
<title>Node9</title>
<g id="a_node9"><a xlink:href="../../da/d02/Fun4All__G4__EICDetector_8C.html#afbe82cefa1d1fd031d9a8586b7bb68c6" target="_top" xlink:title="Fun4All_G4_EICDetector">
<polygon fill="none" stroke="#000000" points="594,-657.5 594,-677.5 733,-677.5 733,-657.5 594,-657.5"/>
<text text-anchor="middle" x="663.5" y="-664.5" font-family="FreeSans" font-size="10.00" fill="#000000">Fun4All_G4_EICDetector</text>
</a>
</g>
</g>
<!-- Node4&#45;&gt;Node9 -->
<g id="edge8" class="edge">
<title>Node4&#45;&gt;Node9</title>
<path fill="none" stroke="#191970" d="M517.0382,-435.681C525.1172,-486.6768 548.6714,-618.7683 580,-648.5 584.0979,-652.389 588.819,-655.5421 593.8881,-658.092"/>
<polygon fill="#191970" stroke="#191970" points="520.4634,-434.928 515.474,-425.5815 513.5459,-435.9994 520.4634,-434.928"/>
</g>
<!-- Node10 -->
<g id="node10" class="node">
<title>Node10</title>
<g id="a_node10"><a xlink:href="../../dd/d2a/Fun4All__G4__EICDetector__LQ_8C.html#aaa01242fd6e77ca43a9d49a6d46008e4" target="_top" xlink:title="Fun4All_G4_EICDetector_LQ">
<polygon fill="none" stroke="#000000" points="585.5,-618.5 585.5,-638.5 741.5,-638.5 741.5,-618.5 585.5,-618.5"/>
<text text-anchor="middle" x="663.5" y="-625.5" font-family="FreeSans" font-size="10.00" fill="#000000">Fun4All_G4_EICDetector_LQ</text>
</a>
</g>
</g>
<!-- Node4&#45;&gt;Node10 -->
<g id="edge9" class="edge">
<title>Node4&#45;&gt;Node10</title>
<path fill="none" stroke="#191970" d="M518.2915,-435.8384C528.1409,-480.6247 553.5618,-585.6822 580,-609.5 583.9765,-613.0823 588.4858,-616.0329 593.2995,-618.4585"/>
<polygon fill="#191970" stroke="#191970" points="521.6637,-434.8726 516.1318,-425.8367 514.8215,-436.3502 521.6637,-434.8726"/>
</g>
<!-- Node11 -->
<g id="node11" class="node">
<title>Node11</title>
<g id="a_node11"><a xlink:href="../../d4/df5/Fun4All__G4__EICDetector__LQ__reference_8C.html#a2feefc472f17f90b3cbe74897d049f75" target="_top" xlink:title="Fun4All_G4_EICDetector\l_LQ_reference">
<polygon fill="none" stroke="#000000" points="594,-567.5 594,-599.5 733,-599.5 733,-567.5 594,-567.5"/>
<text text-anchor="start" x="602" y="-586.5" font-family="FreeSans" font-size="10.00" fill="#000000">Fun4All_G4_EICDetector</text>
<text text-anchor="middle" x="663.5" y="-574.5" font-family="FreeSans" font-size="10.00" fill="#000000">_LQ_reference</text>
</a>
</g>
</g>
<!-- Node4&#45;&gt;Node11 -->
<g id="edge10" class="edge">
<title>Node4&#45;&gt;Node11</title>
<path fill="none" stroke="#191970" d="M517.7669,-435.5153C524.6296,-466.4225 542.1084,-525.6237 580,-558.5 584.1147,-562.0701 588.7234,-565.1305 593.6058,-567.754"/>
<polygon fill="#191970" stroke="#191970" points="521.1509,-434.5953 515.7007,-425.5097 514.2955,-436.011 521.1509,-434.5953"/>
</g>
<!-- Node12 -->
<g id="node12" class="node">
<title>Node12</title>
<g id="a_node12"><a xlink:href="../../d3/d51/Fun4All__G4__EICDetector__RICH_8C.html#a5739502b0a7a1ba782c01069f77e933f" target="_top" xlink:title="Fun4All_G4_EICDetector_RICH">
<polygon fill="none" stroke="#000000" points="580,-528.5 580,-548.5 747,-548.5 747,-528.5 580,-528.5"/>
<text text-anchor="middle" x="663.5" y="-535.5" font-family="FreeSans" font-size="10.00" fill="#000000">Fun4All_G4_EICDetector_RICH</text>
</a>
</g>
</g>
<!-- Node4&#45;&gt;Node12 -->
<g id="edge11" class="edge">
<title>Node4&#45;&gt;Node12</title>
<path fill="none" stroke="#191970" d="M521.0136,-435.0574C530.5742,-458.8175 550.0168,-498.3416 580,-519.5 585.1018,-523.1002 590.7771,-526.0305 596.7004,-528.4138"/>
<polygon fill="#191970" stroke="#191970" points="524.2587,-433.7444 517.4163,-425.6554 517.7209,-436.2459 524.2587,-433.7444"/>
</g>
<!-- Node13 -->
<g id="node13" class="node">
<title>Node13</title>
<g id="a_node13"><a xlink:href="../../d9/d0e/Fun4All__G4__EICIR_8C.html#ac3543d1dd4a0abed3987d40939ee3f87" target="_top" xlink:title="Fun4All_G4_EICIR">
<polygon fill="none" stroke="#000000" points="611.5,-489.5 611.5,-509.5 715.5,-509.5 715.5,-489.5 611.5,-489.5"/>
<text text-anchor="middle" x="663.5" y="-496.5" font-family="FreeSans" font-size="10.00" fill="#000000">Fun4All_G4_EICIR</text>
</a>
</g>
</g>
<!-- Node4&#45;&gt;Node13 -->
<g id="edge12" class="edge">
<title>Node4&#45;&gt;Node13</title>
<path fill="none" stroke="#191970" d="M528.0789,-433.7518C540.2715,-448.2978 559.1872,-468.0608 580,-479.5 589.5363,-484.7414 600.4237,-488.6198 611.1161,-491.4864"/>
<polygon fill="#191970" stroke="#191970" points="530.7272,-431.4606 521.7135,-425.8926 525.2876,-435.8664 530.7272,-431.4606"/>
</g>
<!-- Node14 -->
<g id="node14" class="node">
<title>Node14</title>
<g id="a_node14"><a xlink:href="../../d7/d9e/Fun4All__G4__fsPHENIX_8C.html#af48911d394d2412e817583700f2bbee2" target="_top" xlink:title="Fun4All_G4_fsPHENIX">
<polygon fill="none" stroke="#000000" points="601.5,-450.5 601.5,-470.5 725.5,-470.5 725.5,-450.5 601.5,-450.5"/>
<text text-anchor="middle" x="663.5" y="-457.5" font-family="FreeSans" font-size="10.00" fill="#000000">Fun4All_G4_fsPHENIX</text>
</a>
</g>
</g>
<!-- Node4&#45;&gt;Node14 -->
<g id="edge13" class="edge">
<title>Node4&#45;&gt;Node14</title>
<path fill="none" stroke="#191970" d="M547.6502,-429.1893C557.9389,-433.1185 569.3506,-437.2222 580,-440.5 591.825,-444.1396 604.7596,-447.5216 616.8412,-450.4303"/>
<polygon fill="#191970" stroke="#191970" points="548.7801,-425.8733 538.1915,-425.5082 546.2413,-432.3967 548.7801,-425.8733"/>
</g>
<!-- Node15 -->
<g id="node15" class="node">
<title>Node15</title>
<g id="a_node15"><a xlink:href="../../da/d2f/Fun4All__G4__fsPHENIX__FastSim_8C.html#a66fb850cae5fcaadda23b74a25ce4c9c" target="_top" xlink:title="Fun4All_G4_fsPHENIX\l_FastSim">
<polygon fill="none" stroke="#000000" points="601.5,-399.5 601.5,-431.5 725.5,-431.5 725.5,-399.5 601.5,-399.5"/>
<text text-anchor="start" x="609.5" y="-418.5" font-family="FreeSans" font-size="10.00" fill="#000000">Fun4All_G4_fsPHENIX</text>
<text text-anchor="middle" x="663.5" y="-406.5" font-family="FreeSans" font-size="10.00" fill="#000000">_FastSim</text>
</a>
</g>
</g>
<!-- Node4&#45;&gt;Node15 -->
<g id="edge14" class="edge">
<title>Node4&#45;&gt;Node15</title>
<path fill="none" stroke="#191970" d="M554.3777,-415.5C568.8756,-415.5 585.5787,-415.5 601.4885,-415.5"/>
<polygon fill="#191970" stroke="#191970" points="554.2536,-412.0001 544.2536,-415.5 554.2535,-419.0001 554.2536,-412.0001"/>
</g>
<!-- Node16 -->
<g id="node16" class="node">
<title>Node16</title>
<g id="a_node16"><a xlink:href="../../d0/da6/Fun4All__G4__fsPHENIX__pi0_8C.html#a023d91d47b678e5d7f1751834aa517c6" target="_top" xlink:title="Fun4All_G4_fsPHENIX_pi0">
<polygon fill="none" stroke="#000000" points="591,-360.5 591,-380.5 736,-380.5 736,-360.5 591,-360.5"/>
<text text-anchor="middle" x="663.5" y="-367.5" font-family="FreeSans" font-size="10.00" fill="#000000">Fun4All_G4_fsPHENIX_pi0</text>
</a>
</g>
</g>
<!-- Node4&#45;&gt;Node16 -->
<g id="edge15" class="edge">
<title>Node4&#45;&gt;Node16</title>
<path fill="none" stroke="#191970" d="M546.2356,-401.6716C556.866,-397.4165 568.8286,-392.9496 580,-389.5 590.796,-386.1663 602.5411,-383.1374 613.7203,-380.5262"/>
<polygon fill="#191970" stroke="#191970" points="544.8403,-398.4607 536.9083,-405.4846 547.4891,-404.9402 544.8403,-398.4607"/>
</g>
<!-- Node17 -->
<g id="node17" class="node">
<title>Node17</title>
<g id="a_node17"><a xlink:href="../../d5/d2c/macros_2blob_2master_2macros_2g4simulations_2Fun4All__G4__sPHENIX_8C.html#a6eaaa492d7023ec86c562dc63aa1e5a4" target="_top" xlink:title="Fun4All_G4_sPHENIX">
<polygon fill="none" stroke="#000000" points="603,-321.5 603,-341.5 724,-341.5 724,-321.5 603,-321.5"/>
<text text-anchor="middle" x="663.5" y="-328.5" font-family="FreeSans" font-size="10.00" fill="#000000">Fun4All_G4_sPHENIX</text>
</a>
</g>
</g>
<!-- Node4&#45;&gt;Node17 -->
<g id="edge16" class="edge">
<title>Node4&#45;&gt;Node17</title>
<path fill="none" stroke="#191970" d="M527.5782,-397.3922C539.6974,-382.5338 558.7723,-362.1174 580,-350.5 587.0425,-346.6458 594.8293,-343.5722 602.733,-341.1213"/>
<polygon fill="#191970" stroke="#191970" points="524.7179,-395.3672 521.2827,-405.3897 530.2182,-399.697 524.7179,-395.3672"/>
</g>
<!-- Node18 -->
<g id="node18" class="node">
<title>Node18</title>
<g id="a_node18"><a xlink:href="../../d3/de2/Fun4All__G4__sPHENIX__AnaGenFit_8C.html#a9bf3f2f72ed69a17e2d0c1121d48013c" target="_top" xlink:title="Fun4All_G4_sPHENIX\l_AnaGenFit">
<polygon fill="none" stroke="#000000" points="603,-270.5 603,-302.5 724,-302.5 724,-270.5 603,-270.5"/>
<text text-anchor="start" x="611" y="-289.5" font-family="FreeSans" font-size="10.00" fill="#000000">Fun4All_G4_sPHENIX</text>
<text text-anchor="middle" x="663.5" y="-277.5" font-family="FreeSans" font-size="10.00" fill="#000000">_AnaGenFit</text>
</a>
</g>
</g>
<!-- Node4&#45;&gt;Node18 -->
<g id="edge17" class="edge">
<title>Node4&#45;&gt;Node18</title>
<path fill="none" stroke="#191970" d="M521.4008,-395.909C531.2539,-372.4411 550.8927,-333.5408 580,-311.5 586.7558,-306.3843 594.5515,-302.3105 602.6089,-299.0675"/>
<polygon fill="#191970" stroke="#191970" points="518.1449,-394.6247 517.6705,-405.209 524.6418,-397.2308 518.1449,-394.6247"/>
</g>
<!-- Node19 -->
<g id="node19" class="node">
<title>Node19</title>
<g id="a_node19"><a xlink:href="../../da/dd0/Fun4All__G4__sPHENIX__photonjet_8C.html#a6f18519e216acc05399e562ea57ea77c" target="_top" xlink:title="Fun4All_G4_sPHENIX\l_photonjet">
<polygon fill="none" stroke="#000000" points="603,-219.5 603,-251.5 724,-251.5 724,-219.5 603,-219.5"/>
<text text-anchor="start" x="611" y="-238.5" font-family="FreeSans" font-size="10.00" fill="#000000">Fun4All_G4_sPHENIX</text>
<text text-anchor="middle" x="663.5" y="-226.5" font-family="FreeSans" font-size="10.00" fill="#000000">_photonjet</text>
</a>
</g>
</g>
<!-- Node4&#45;&gt;Node19 -->
<g id="edge18" class="edge">
<title>Node4&#45;&gt;Node19</title>
<path fill="none" stroke="#191970" d="M517.0031,-395.2374C522.9704,-362.1976 539.433,-296.7731 580,-260.5 586.5427,-254.6498 594.4068,-250.1673 602.6578,-246.7329"/>
<polygon fill="#191970" stroke="#191970" points="513.489,-395.035 515.3078,-405.4725 520.3949,-396.1789 513.489,-395.035"/>
</g>
<!-- Node20 -->
<g id="node20" class="node">
<title>Node20</title>
<g id="a_node20"><a xlink:href="../../da/d85/Fun4All__G4__sPHENIX__photons_8C.html#a02fbbd59878fe1299f58ed187e7214ba" target="_top" xlink:title="Fun4All_G4_sPHENIX\l_photons">
<polygon fill="none" stroke="#000000" points="603,-168.5 603,-200.5 724,-200.5 724,-168.5 603,-168.5"/>
<text text-anchor="start" x="611" y="-187.5" font-family="FreeSans" font-size="10.00" fill="#000000">Fun4All_G4_sPHENIX</text>
<text text-anchor="middle" x="663.5" y="-175.5" font-family="FreeSans" font-size="10.00" fill="#000000">_photons</text>
</a>
</g>
</g>
<!-- Node4&#45;&gt;Node20 -->
<g id="edge19" class="edge">
<title>Node4&#45;&gt;Node20</title>
<path fill="none" stroke="#191970" d="M517.9771,-395.3157C527.5205,-348.8053 552.943,-236.0438 580,-209.5 586.3733,-203.2476 594.244,-198.5493 602.5835,-195.0208"/>
<polygon fill="#191970" stroke="#191970" points="514.4928,-394.8894 515.9484,-405.3838 521.3548,-396.2722 514.4928,-394.8894"/>
</g>
<!-- Node21 -->
<g id="node21" class="node">
<title>Node21</title>
<g id="a_node21"><a xlink:href="../../de/d55/Fun4All__G4__sPHENIX__truthphotonjet_8C.html#a48a6f4503eaa1b3793d8ae572aa795b9" target="_top" xlink:title="Fun4All_G4_sPHENIX\l_truthphotonjet">
<polygon fill="none" stroke="#000000" points="603,-117.5 603,-149.5 724,-149.5 724,-117.5 603,-117.5"/>
<text text-anchor="start" x="611" y="-136.5" font-family="FreeSans" font-size="10.00" fill="#000000">Fun4All_G4_sPHENIX</text>
<text text-anchor="middle" x="663.5" y="-124.5" font-family="FreeSans" font-size="10.00" fill="#000000">_truthphotonjet</text>
</a>
</g>
</g>
<!-- Node4&#45;&gt;Node21 -->
<g id="edge20" class="edge">
<title>Node4&#45;&gt;Node21</title>
<path fill="none" stroke="#191970" d="M516.6187,-395.2093C524.04,-340.7205 546.8437,-192.9936 580,-158.5 586.292,-151.9543 594.2214,-147.1036 602.675,-143.5129"/>
<polygon fill="#191970" stroke="#191970" points="513.1194,-394.9729 515.2703,-405.3471 520.0583,-395.8959 513.1194,-394.9729"/>
</g>
<!-- Node22 -->
<g id="node22" class="node">
<title>Node22</title>
<g id="a_node22"><a xlink:href="../../d4/d65/Fun4All__single__particle_8C.html#a8a492b5dbead494bfdddbebde8a49b0e" target="_top" xlink:title="Fun4All_single_particle">
<polygon fill="none" stroke="#000000" points="597.5,-78.5 597.5,-98.5 729.5,-98.5 729.5,-78.5 597.5,-78.5"/>
<text text-anchor="middle" x="663.5" y="-85.5" font-family="FreeSans" font-size="10.00" fill="#000000">Fun4All_single_particle</text>
</a>
</g>
</g>
<!-- Node4&#45;&gt;Node22 -->
<g id="edge21" class="edge">
<title>Node4&#45;&gt;Node22</title>
<path fill="none" stroke="#191970" d="M515.5484,-395.2388C520.687,-333.4015 539.2157,-148.8032 580,-107.5 584.9096,-102.5279 590.831,-98.7411 597.2271,-95.872"/>
<polygon fill="#191970" stroke="#191970" points="512.0527,-395.0466 514.7424,-405.2943 519.0303,-395.606 512.0527,-395.0466"/>
</g>
<!-- Node23 -->
<g id="node23" class="node">
<title>Node23</title>
<g id="a_node23"><a xlink:href="../../d0/d99/Jin__BJet_8C.html#a36169bfee2ed7efda633944d12aebad9" target="_top" xlink:title="Jin_BJet">
<polygon fill="none" stroke="#000000" points="636,-39.5 636,-59.5 691,-59.5 691,-39.5 636,-39.5"/>
<text text-anchor="middle" x="663.5" y="-46.5" font-family="FreeSans" font-size="10.00" fill="#000000">Jin_BJet</text>
</a>
</g>
</g>
<!-- Node4&#45;&gt;Node23 -->
<g id="edge22" class="edge">
<title>Node4&#45;&gt;Node23</title>
<path fill="none" stroke="#191970" d="M515.0111,-395.3545C518.7777,-328.5637 534.2147,-115.9534 580,-68.5 594.2456,-53.7354 617.3968,-49.3677 635.7126,-48.4782"/>
<polygon fill="#191970" stroke="#191970" points="511.5119,-395.2488 514.471,-405.422 518.5018,-395.6239 511.5119,-395.2488"/>
</g>
<!-- Node24 -->
<g id="node24" class="node">
<title>Node24</title>
<g id="a_node24"><a xlink:href="../../dd/db1/Wrapper_8cxx.html#abf1e42281903daa0752c80dd6c879fac" target="_top" xlink:title="Wrapper">
<polygon fill="none" stroke="#000000" points="633.5,-.5 633.5,-20.5 693.5,-20.5 693.5,-.5 633.5,-.5"/>
<text text-anchor="middle" x="663.5" y="-7.5" font-family="FreeSans" font-size="10.00" fill="#000000">Wrapper</text>
</a>
</g>
</g>
<!-- Node4&#45;&gt;Node24 -->
<g id="edge23" class="edge">
<title>Node4&#45;&gt;Node24</title>
<path fill="none" stroke="#191970" d="M514.5997,-395.0073C517.1317,-322.9993 529.2954,-83.0401 580,-29.5 593.4942,-15.2512 615.2726,-10.6449 633.2044,-9.5257"/>
<polygon fill="#191970" stroke="#191970" points="511.0883,-395.3022 514.2614,-405.4107 518.0846,-395.5297 511.0883,-395.3022"/>
</g>
<!-- Node6 -->
<g id="node6" class="node">
<title>Node6</title>
<g id="a_node6"><a xlink:href="../../d3/d7f/Fun_8C.html#af69a3eef3ff244bb51f5740c6ecb5432" target="_top" xlink:title="Fun">
<polygon fill="none" stroke="#000000" points="783,-774.5 783,-794.5 817,-794.5 817,-774.5 783,-774.5"/>
<text text-anchor="middle" x="800" y="-781.5" font-family="FreeSans" font-size="10.00" fill="#000000">Fun</text>
</a>
</g>
</g>
<!-- Node5&#45;&gt;Node6 -->
<g id="edge5" class="edge">
<title>Node5&#45;&gt;Node6</title>
<path fill="none" stroke="#191970" d="M730.6941,-784.5C750.0852,-784.5 769.59,-784.5 782.9452,-784.5"/>
<polygon fill="#191970" stroke="#191970" points="730.5974,-781.0001 720.5974,-784.5 730.5974,-788.0001 730.5974,-781.0001"/>
</g>
<!-- Node26 -->
<g id="node26" class="node">
<title>Node26</title>
<g id="a_node26"><a xlink:href="../../d8/d41/G4__EGEM__EIC_8C.html#ab02e3ec0ae447e560b3a9a6fc25d9243" target="_top" xlink:title="make_GEM_station">
<polygon fill="none" stroke="#000000" points="337,-494.5 337,-514.5 448,-514.5 448,-494.5 337,-494.5"/>
<text text-anchor="middle" x="392.5" y="-501.5" font-family="FreeSans" font-size="10.00" fill="#000000">make_GEM_station</text>
</a>
</g>
</g>
<!-- Node25&#45;&gt;Node26 -->
<g id="edge25" class="edge">
<title>Node25&#45;&gt;Node26</title>
<path fill="none" stroke="#191970" d="M308.2348,-510.8002C317.9062,-510.0771 327.6555,-509.3482 336.919,-508.6556"/>
<polygon fill="#191970" stroke="#191970" points="307.9193,-507.3139 298.2081,-511.5499 308.4413,-514.2944 307.9193,-507.3139"/>
</g>
<!-- Node27&#45;&gt;Node26 -->
<g id="edge27" class="edge">
<title>Node27&#45;&gt;Node26</title>
<path fill="none" stroke="#191970" d="M307.8926,-477.6154C326.5073,-483.5304 345.4357,-489.545 360.6555,-494.3812"/>
<polygon fill="#191970" stroke="#191970" points="308.7985,-474.2309 298.2081,-474.5381 306.6786,-480.9022 308.7985,-474.2309"/>
</g>
<!-- Node28 -->
<g id="node28" class="node">
<title>Node28</title>
<g id="a_node28"><a xlink:href="../../d7/df5/EICAnalysis_2macros_2leptoquarks__fun4all_2G4__FGEM__EIC_8C.html#ac44d1ef8dd3931eed6dd2ae0110ed8d1" target="_top" xlink:title="FGEMSetup">
<polygon fill="none" stroke="#000000" points="355.5,-443.5 355.5,-463.5 429.5,-463.5 429.5,-443.5 355.5,-443.5"/>
<text text-anchor="middle" x="392.5" y="-450.5" font-family="FreeSans" font-size="10.00" fill="#000000">FGEMSetup</text>
</a>
</g>
</g>
<!-- Node27&#45;&gt;Node28 -->
<g id="edge28" class="edge">
<title>Node27&#45;&gt;Node28</title>
<path fill="none" stroke="#191970" d="M308.3476,-453.5C324.7164,-453.5 341.3023,-453.5 355.3725,-453.5"/>
<polygon fill="#191970" stroke="#191970" points="308.2082,-450.0001 298.2081,-453.5 308.2081,-457.0001 308.2082,-450.0001"/>
</g>
<!-- Node31&#45;&gt;Node4 -->
<g id="edge32" class="edge">
<title>Node31&#45;&gt;Node4</title>
<path fill="none" stroke="#191970" d="M422.8027,-371.9655C444.547,-382.3455 473.3101,-396.076 492.6712,-405.3183"/>
<polygon fill="#191970" stroke="#191970" points="424.196,-368.7523 413.6637,-367.6028 421.1804,-375.0694 424.196,-368.7523"/>
</g>
</g>
</svg>
