<?xml version="1.0" encoding="UTF-8" standalone="no"?>
<!DOCTYPE svg PUBLIC "-//W3C//DTD SVG 1.1//EN"
 "http://www.w3.org/Graphics/SVG/1.1/DTD/svg11.dtd">
<!-- Generated by graphviz version 2.40.1 (20161225.0304)
 -->
<!-- Title: GlobalVertexReco::CreateNodes Pages: 1 -->
<svg width="516pt" height="146pt"
 viewBox="0.00 0.00 516.00 146.00" xmlns="http://www.w3.org/2000/svg" xmlns:xlink="http://www.w3.org/1999/xlink">
<g id="graph0" class="graph" transform="scale(1 1) rotate(0) translate(4 142)">
<title>GlobalVertexReco::CreateNodes</title>
<!-- Node1 -->
<g id="node1" class="node">
<title>Node1</title>
<polygon fill="#bfbfbf" stroke="#000000" points="0,-43.5 0,-75.5 146,-75.5 146,-43.5 0,-43.5"/>
<text text-anchor="start" x="8" y="-62.5" font-family="FreeSans" font-size="10.00" fill="#000000">GlobalVertexReco::Create</text>
<text text-anchor="middle" x="73" y="-50.5" font-family="FreeSans" font-size="10.00" fill="#000000">Nodes</text>
</g>
<!-- Node2 -->
<g id="node2" class="node">
<title>Node2</title>
<g id="a_node2"><a xlink:href="../../d5/dca/classPHCompositeNode.html#a15a0c4804399a9de4267647f05bd1ba4" target="_top" xlink:title="PHCompositeNode::addNode">
<polygon fill="none" stroke="#000000" points="182,-78.5 182,-98.5 344,-98.5 344,-78.5 182,-78.5"/>
<text text-anchor="middle" x="263" y="-85.5" font-family="FreeSans" font-size="10.00" fill="#000000">PHCompositeNode::addNode</text>
</a>
</g>
</g>
<!-- Node1&#45;&gt;Node2 -->
<g id="edge1" class="edge">
<title>Node1&#45;&gt;Node2</title>
<path fill="none" stroke="#191970" d="M146.1872,-70.6707C159.5992,-72.7178 173.6243,-74.8584 187.1132,-76.9173"/>
<polygon fill="#191970" stroke="#191970" points="186.891,-80.4238 197.3046,-78.4728 187.9472,-73.504 186.891,-80.4238"/>
</g>
<!-- Node6 -->
<g id="node6" class="node">
<title>Node6</title>
<g id="a_node6"><a xlink:href="../../d5/d07/classPHNodeIterator.html#aea98bf8619af59b1212a94fb32106baa" target="_top" xlink:title="PHNodeIterator::findFirst">
<polygon fill="none" stroke="#000000" points="192.5,-21.5 192.5,-41.5 333.5,-41.5 333.5,-21.5 192.5,-21.5"/>
<text text-anchor="middle" x="263" y="-28.5" font-family="FreeSans" font-size="10.00" fill="#000000">PHNodeIterator::findFirst</text>
</a>
</g>
</g>
<!-- Node1&#45;&gt;Node6 -->
<g id="edge5" class="edge">
<title>Node1&#45;&gt;Node6</title>
<path fill="none" stroke="#191970" d="M146.1872,-48.7145C158.8078,-46.8546 171.9713,-44.9148 184.72,-43.036"/>
<polygon fill="#191970" stroke="#191970" points="185.4542,-46.4657 194.837,-41.5451 184.4336,-39.5405 185.4542,-46.4657"/>
</g>
<!-- Node3 -->
<g id="node3" class="node">
<title>Node3</title>
<g id="a_node3"><a xlink:href="../../dc/d82/classPHNode.html#aca3576f926a4401eddc3d88bf0ce0de3" target="_top" xlink:title="PHNode::getName">
<polygon fill="none" stroke="#000000" points="389.5,-39.5 389.5,-59.5 498.5,-59.5 498.5,-39.5 389.5,-39.5"/>
<text text-anchor="middle" x="444" y="-46.5" font-family="FreeSans" font-size="10.00" fill="#000000">PHNode::getName</text>
</a>
</g>
</g>
<!-- Node2&#45;&gt;Node3 -->
<g id="edge2" class="edge">
<title>Node2&#45;&gt;Node3</title>
<path fill="none" stroke="#191970" d="M309.612,-78.4565C333.3636,-73.3388 362.4366,-67.0744 387.4587,-61.6829"/>
<polygon fill="#191970" stroke="#191970" points="388.5076,-65.0373 397.546,-59.5094 387.0331,-58.1944 388.5076,-65.0373"/>
</g>
<!-- Node4 -->
<g id="node4" class="node">
<title>Node4</title>
<g id="a_node4"><a xlink:href="../../dc/d82/classPHNode.html#adda2bd6cef2d5067bbe3016a990b7198" target="_top" xlink:title="PHNode::setParent">
<polygon fill="none" stroke="#000000" points="388.5,-117.5 388.5,-137.5 499.5,-137.5 499.5,-117.5 388.5,-117.5"/>
<text text-anchor="middle" x="444" y="-124.5" font-family="FreeSans" font-size="10.00" fill="#000000">PHNode::setParent</text>
</a>
</g>
</g>
<!-- Node2&#45;&gt;Node4 -->
<g id="edge3" class="edge">
<title>Node2&#45;&gt;Node4</title>
<path fill="none" stroke="#191970" d="M309.612,-98.5435C333.3636,-103.6612 362.4366,-109.9256 387.4587,-115.3171"/>
<polygon fill="#191970" stroke="#191970" points="387.0331,-118.8056 397.546,-117.4906 388.5076,-111.9627 387.0331,-118.8056"/>
</g>
<!-- Node5 -->
<g id="node5" class="node">
<title>Node5</title>
<g id="a_node5"><a xlink:href="../../d6/d86/classPHPointerList.html#ac2176735e9d046a034f1686fd2c477eb" target="_top" xlink:title="PHPointerList::append">
<polygon fill="none" stroke="#000000" points="380,-78.5 380,-98.5 508,-98.5 508,-78.5 380,-78.5"/>
<text text-anchor="middle" x="444" y="-85.5" font-family="FreeSans" font-size="10.00" fill="#000000">PHPointerList::append</text>
</a>
</g>
</g>
<!-- Node2&#45;&gt;Node5 -->
<g id="edge4" class="edge">
<title>Node2&#45;&gt;Node5</title>
<path fill="none" stroke="#191970" d="M344.2347,-88.5C352.72,-88.5 361.3151,-88.5 369.7173,-88.5"/>
<polygon fill="#191970" stroke="#191970" points="369.8504,-92.0001 379.8503,-88.5 369.8503,-85.0001 369.8504,-92.0001"/>
</g>
<!-- Node6&#45;&gt;Node3 -->
<g id="edge7" class="edge">
<title>Node6&#45;&gt;Node3</title>
<path fill="none" stroke="#191970" d="M333.757,-38.5366C348.7411,-40.0267 364.4844,-41.5924 379.2331,-43.0591"/>
<polygon fill="#191970" stroke="#191970" points="378.966,-46.5497 389.2633,-44.0566 379.6588,-39.5841 378.966,-46.5497"/>
</g>
<!-- Node6&#45;&gt;Node6 -->
<g id="edge8" class="edge">
<title>Node6&#45;&gt;Node6</title>
<path fill="none" stroke="#191970" d="M234.8201,-41.7271C221.9661,-50.6067 231.3594,-60 263,-60 284.2585,-60 295.4743,-55.7597 296.6473,-50.2839"/>
<polygon fill="#191970" stroke="#191970" points="299.5136,-48.2693 291.1799,-41.7271 293.6148,-52.0383 299.5136,-48.2693"/>
</g>
<!-- Node7 -->
<g id="node7" class="node">
<title>Node7</title>
<g id="a_node7"><a xlink:href="../../dc/d82/classPHNode.html#a4ab1f90aed955a652813bfe377087bda" target="_top" xlink:title="PHNode::getType">
<polygon fill="none" stroke="#000000" points="392.5,-.5 392.5,-20.5 495.5,-20.5 495.5,-.5 392.5,-.5"/>
<text text-anchor="middle" x="444" y="-7.5" font-family="FreeSans" font-size="10.00" fill="#000000">PHNode::getType</text>
</a>
</g>
</g>
<!-- Node6&#45;&gt;Node7 -->
<g id="edge6" class="edge">
<title>Node6&#45;&gt;Node7</title>
<path fill="none" stroke="#191970" d="M333.757,-23.2906C349.7799,-21.4316 366.6708,-19.4719 382.2855,-17.6602"/>
<polygon fill="#191970" stroke="#191970" points="382.8104,-21.1229 392.3404,-16.4937 382.0036,-14.1696 382.8104,-21.1229"/>
</g>
</g>
</svg>
