<?xml version="1.0" encoding="UTF-8" standalone="no"?>
<!DOCTYPE svg PUBLIC "-//W3C//DTD SVG 1.1//EN"
 "http://www.w3.org/Graphics/SVG/1.1/DTD/svg11.dtd">
<!-- Generated by graphviz version 2.40.1 (20161225.0304)
 -->
<!-- Title: __example_4::f__ Pages: 1 -->
<svg width="328pt" height="1823pt"
 viewBox="0.00 0.00 328.00 1823.00" xmlns="http://www.w3.org/2000/svg" xmlns:xlink="http://www.w3.org/1999/xlink">
<g id="graph0" class="graph" transform="scale(1 1) rotate(0) translate(4 1819)">
<title>__example_4::f__</title>
<!-- Node1 -->
<g id="node1" class="node">
<title>Node1</title>
<polygon fill="#bfbfbf" stroke="#000000" points="0,-1657.5 0,-1677.5 103,-1677.5 103,-1657.5 0,-1657.5"/>
<text text-anchor="middle" x="51.5" y="-1664.5" font-family="FreeSans" font-size="10.00" fill="#000000">__example_4::f__</text>
</g>
<!-- Node2 -->
<g id="node2" class="node">
<title>Node2</title>
<g id="a_node2"><a xlink:href="../../d1/dbb/hijing_8f.html#a69776a874c5857b3bcd832c1195cb0e1" target="_top" xlink:title="hijing">
<polygon fill="none" stroke="#ff0000" points="139,-917.5 139,-937.5 183,-937.5 183,-917.5 139,-917.5"/>
<text text-anchor="middle" x="161" y="-924.5" font-family="FreeSans" font-size="10.00" fill="#000000">hijing</text>
</a>
</g>
</g>
<!-- Node1&#45;&gt;Node2 -->
<g id="edge1" class="edge">
<title>Node1&#45;&gt;Node2</title>
<path fill="none" stroke="#191970" d="M53.0063,-1657.3207C64.7659,-1577.8494 141.8352,-1057.0153 158.0208,-947.6331"/>
<polygon fill="#191970" stroke="#191970" points="161.5033,-948.0086 159.5049,-937.604 154.5787,-946.9839 161.5033,-948.0086"/>
</g>
<!-- Node3 -->
<g id="node3" class="node">
<title>Node3</title>
<g id="a_node3"><a xlink:href="../../db/da1/classHiParnt.html#a28a5a24ec376a6790e610d7fcc0f5b8e" target="_top" xlink:title="HiParnt::hipr1">
<polygon fill="none" stroke="#ff0000" points="227,-1794.5 227,-1814.5 312,-1814.5 312,-1794.5 227,-1794.5"/>
<text text-anchor="middle" x="269.5" y="-1801.5" font-family="FreeSans" font-size="10.00" fill="#000000">HiParnt::hipr1</text>
</a>
</g>
</g>
<!-- Node1&#45;&gt;Node3 -->
<g id="edge62" class="edge">
<title>Node1&#45;&gt;Node3</title>
<path fill="none" stroke="#191970" d="M63.2977,-1677.7361C89.5922,-1700.0983 155.6878,-1753.84 219,-1785.5 222.5738,-1787.2871 226.3588,-1789.0062 230.1852,-1790.6303"/>
<polygon fill="#191970" stroke="#191970" points="229.1023,-1793.9673 239.6858,-1794.4564 231.7173,-1787.4741 229.1023,-1793.9673"/>
</g>
<!-- Node4 -->
<g id="node4" class="node">
<title>Node4</title>
<g id="a_node4"><a xlink:href="../../db/da1/classHiParnt.html#a1c6a5924524a08fe9641adc64095c0b9" target="_top" xlink:title="HiParnt::ihpr2">
<polygon fill="none" stroke="#ff0000" points="227,-1677.5 227,-1697.5 312,-1697.5 312,-1677.5 227,-1677.5"/>
<text text-anchor="middle" x="269.5" y="-1684.5" font-family="FreeSans" font-size="10.00" fill="#000000">HiParnt::ihpr2</text>
</a>
</g>
</g>
<!-- Node1&#45;&gt;Node4 -->
<g id="edge64" class="edge">
<title>Node1&#45;&gt;Node4</title>
<path fill="none" stroke="#191970" d="M103.163,-1672.2397C137.3945,-1675.3802 182.1734,-1679.4884 216.646,-1682.651"/>
<polygon fill="#191970" stroke="#191970" points="216.7124,-1686.1717 226.9904,-1683.6 217.352,-1679.201 216.7124,-1686.1717"/>
</g>
<!-- Node5 -->
<g id="node5" class="node">
<title>Node5</title>
<g id="a_node5"><a xlink:href="../../db/da1/classHiParnt.html#ac653b598baeeca89d06693fdf4688f38" target="_top" xlink:title="HiParnt::hint1">
<polygon fill="none" stroke="#ff0000" points="227,-1716.5 227,-1736.5 312,-1736.5 312,-1716.5 227,-1716.5"/>
<text text-anchor="middle" x="269.5" y="-1723.5" font-family="FreeSans" font-size="10.00" fill="#000000">HiParnt::hint1</text>
</a>
</g>
</g>
<!-- Node1&#45;&gt;Node5 -->
<g id="edge61" class="edge">
<title>Node1&#45;&gt;Node5</title>
<path fill="none" stroke="#191970" d="M88.0999,-1677.5885C103.7701,-1681.895 122.277,-1686.9641 139,-1691.5 166.4586,-1698.9479 197.1919,-1707.1949 221.9332,-1713.812"/>
<polygon fill="#191970" stroke="#191970" points="221.2294,-1717.2467 231.7941,-1716.4479 223.0371,-1710.4841 221.2294,-1717.2467"/>
</g>
<!-- Node6 -->
<g id="node6" class="node">
<title>Node6</title>
<g id="a_node6"><a xlink:href="../../db/da1/classHiParnt.html#a0d759f134daae3226a7744c9920bd769" target="_top" xlink:title="HiParnt::ihnt2">
<polygon fill="none" stroke="#ff0000" points="227,-1755.5 227,-1775.5 312,-1775.5 312,-1755.5 227,-1755.5"/>
<text text-anchor="middle" x="269.5" y="-1762.5" font-family="FreeSans" font-size="10.00" fill="#000000">HiParnt::ihnt2</text>
</a>
</g>
</g>
<!-- Node1&#45;&gt;Node6 -->
<g id="edge63" class="edge">
<title>Node1&#45;&gt;Node6</title>
<path fill="none" stroke="#191970" d="M71.0708,-1677.5047C102.0482,-1693.1633 164.4619,-1723.9954 219,-1746.5 223.2551,-1748.2558 227.7375,-1750.0377 232.203,-1751.7709"/>
<polygon fill="#191970" stroke="#191970" points="231.2664,-1755.1597 241.8571,-1755.4583 233.7642,-1748.6205 231.2664,-1755.1597"/>
</g>
<!-- Node48 -->
<g id="node48" class="node">
<title>Node48</title>
<g id="a_node48"><a xlink:href="../../d7/deb/classRanSeed.html#ada6802aa6b0d875090ac0b87d4926455" target="_top" xlink:title="RanSeed::nseed">
<polygon fill="none" stroke="#ff0000" points="220.5,-.5 220.5,-20.5 318.5,-20.5 318.5,-.5 220.5,-.5"/>
<text text-anchor="middle" x="269.5" y="-7.5" font-family="FreeSans" font-size="10.00" fill="#000000">RanSeed::nseed</text>
</a>
</g>
</g>
<!-- Node1&#45;&gt;Node48 -->
<g id="edge65" class="edge">
<title>Node1&#45;&gt;Node48</title>
<path fill="none" stroke="#191970" d="M51.8995,-1657.1515C57.087,-1524.9065 112.8003,-167.3521 219,-29.5 219.686,-28.6095 220.4187,-27.7608 221.1921,-26.9518"/>
<polygon fill="#191970" stroke="#191970" points="223.4291,-29.6449 229.0949,-20.6923 219.0828,-24.1576 223.4291,-29.6449"/>
</g>
<!-- Node49 -->
<g id="node49" class="node">
<title>Node49</title>
<g id="a_node49"><a xlink:href="../../d0/d5e/classPHTimer.html#adce6f9a85834e59bd154b9c624ee4e41" target="_top" xlink:title="stops the counter">
<polygon fill="none" stroke="#ff0000" points="226,-1638.5 226,-1658.5 313,-1658.5 313,-1638.5 226,-1638.5"/>
<text text-anchor="middle" x="269.5" y="-1645.5" font-family="FreeSans" font-size="10.00" fill="#000000">PHTimer::stop</text>
</a>
</g>
</g>
<!-- Node1&#45;&gt;Node49 -->
<g id="edge66" class="edge">
<title>Node1&#45;&gt;Node49</title>
<path fill="none" stroke="#191970" d="M103.163,-1662.9973C137.0522,-1660.0436 181.2789,-1656.189 215.6087,-1653.1969"/>
<polygon fill="#191970" stroke="#191970" points="216.2644,-1656.6532 225.9227,-1652.298 215.6565,-1649.6796 216.2644,-1656.6532"/>
</g>
<!-- Node50 -->
<g id="node50" class="node">
<title>Node50</title>
<g id="a_node50"><a xlink:href="../../db/d44/hijset_8f.html#ac1c3db71bda2dc1a77110561ebebe89a" target="_top" xlink:title="hijset">
<polygon fill="none" stroke="#ff0000" points="139,-1599.5 139,-1619.5 183,-1619.5 183,-1599.5 139,-1599.5"/>
<text text-anchor="middle" x="161" y="-1606.5" font-family="FreeSans" font-size="10.00" fill="#000000">hijset</text>
</a>
</g>
</g>
<!-- Node1&#45;&gt;Node50 -->
<g id="edge49" class="edge">
<title>Node1&#45;&gt;Node50</title>
<path fill="none" stroke="#191970" d="M70.5734,-1657.3972C87.7398,-1648.3045 113.1943,-1634.8218 132.7269,-1624.4757"/>
<polygon fill="#191970" stroke="#191970" points="134.5791,-1627.4554 141.7777,-1619.6817 131.3025,-1621.2695 134.5791,-1627.4554"/>
</g>
<!-- Node2&#45;&gt;Node3 -->
<g id="edge2" class="edge">
<title>Node2&#45;&gt;Node3</title>
<path fill="none" stroke="#191970" d="M161.0304,-937.6879C161.3887,-1029.595 165.8383,-1713.9818 219,-1785.5 219.6706,-1786.4021 220.3893,-1787.2615 221.1501,-1788.08"/>
<polygon fill="#191970" stroke="#191970" points="218.9946,-1790.8381 228.9728,-1794.4001 223.3938,-1785.3931 218.9946,-1790.8381"/>
</g>
<!-- Node2&#45;&gt;Node4 -->
<g id="edge3" class="edge">
<title>Node2&#45;&gt;Node4</title>
<path fill="none" stroke="#191970" d="M161.1437,-937.5904C162.4267,-1021.8759 172.9669,-1607.2535 219,-1668.5 219.6754,-1669.3986 220.3984,-1670.2547 221.1631,-1671.0703"/>
<polygon fill="#191970" stroke="#191970" points="219.0219,-1673.8396 229.0106,-1677.3718 223.4048,-1668.3815 219.0219,-1673.8396"/>
</g>
<!-- Node2&#45;&gt;Node5 -->
<g id="edge4" class="edge">
<title>Node2&#45;&gt;Node5</title>
<path fill="none" stroke="#191970" d="M161.1018,-937.567C162.0608,-1024.2356 170.5822,-1642.8192 219,-1707.5 219.6736,-1708.3999 220.3951,-1709.2572 221.1583,-1710.0738"/>
<polygon fill="#191970" stroke="#191970" points="219.0119,-1712.8391 228.9968,-1716.3822 223.4007,-1707.3858 219.0119,-1712.8391"/>
</g>
<!-- Node2&#45;&gt;Node6 -->
<g id="edge5" class="edge">
<title>Node2&#45;&gt;Node6</title>
<path fill="none" stroke="#191970" d="M161.0637,-937.5032C161.7116,-1026.3309 168.1875,-1678.3703 219,-1746.5 219.672,-1747.4011 220.392,-1748.2594 221.154,-1749.0771"/>
<polygon fill="#191970" stroke="#191970" points="219.0029,-1751.8386 228.9842,-1755.3916 223.3971,-1746.3896 219.0029,-1751.8386"/>
</g>
<!-- Node7 -->
<g id="node7" class="node">
<title>Node7</title>
<g id="a_node7"><a xlink:href="../../d3/def/classHijCrdn.html#aeb65f5b18f15574d4ca5337bbb0e28a1" target="_top" xlink:title="HijCrdn::yp">
<polygon fill="none" stroke="#ff0000" points="233,-1521.5 233,-1541.5 306,-1541.5 306,-1521.5 233,-1521.5"/>
<text text-anchor="middle" x="269.5" y="-1528.5" font-family="FreeSans" font-size="10.00" fill="#000000">HijCrdn::yp</text>
</a>
</g>
</g>
<!-- Node2&#45;&gt;Node7 -->
<g id="edge6" class="edge">
<title>Node2&#45;&gt;Node7</title>
<path fill="none" stroke="#191970" d="M161.3696,-937.7037C164.1338,-1011.7379 182.4801,-1464.9441 219,-1512.5 220.4602,-1514.4015 222.1332,-1516.1127 223.9618,-1517.6526"/>
<polygon fill="#191970" stroke="#191970" points="222.5008,-1520.8758 232.7987,-1523.3666 226.3017,-1514.9976 222.5008,-1520.8758"/>
</g>
<!-- Node8 -->
<g id="node8" class="node">
<title>Node8</title>
<g id="a_node8"><a xlink:href="../../d3/def/classHijCrdn.html#a4c9317cb879e0345c39e6f2ec07f0750" target="_top" xlink:title="HijCrdn::yt">
<polygon fill="none" stroke="#ff0000" points="234.5,-1482.5 234.5,-1502.5 304.5,-1502.5 304.5,-1482.5 234.5,-1482.5"/>
<text text-anchor="middle" x="269.5" y="-1489.5" font-family="FreeSans" font-size="10.00" fill="#000000">HijCrdn::yt</text>
</a>
</g>
</g>
<!-- Node2&#45;&gt;Node8 -->
<g id="edge7" class="edge">
<title>Node2&#45;&gt;Node8</title>
<path fill="none" stroke="#191970" d="M161.4555,-937.9267C164.6761,-1009.7301 184.8806,-1429.3909 219,-1473.5 220.8537,-1475.8965 223.0452,-1477.9907 225.4594,-1479.8208"/>
<polygon fill="#191970" stroke="#191970" points="223.9691,-1483.0056 234.3588,-1485.0807 227.5308,-1476.9794 223.9691,-1483.0056"/>
</g>
<!-- Node9 -->
<g id="node9" class="node">
<title>Node9</title>
<g id="a_node9"><a xlink:href="../../d8/d1a/classHiMain1.html#a712001e6d31dc0f86de82f130bbe036b" target="_top" xlink:title="HiMain1::natt">
<polygon fill="none" stroke="#ff0000" points="227,-39.5 227,-59.5 312,-59.5 312,-39.5 227,-39.5"/>
<text text-anchor="middle" x="269.5" y="-46.5" font-family="FreeSans" font-size="10.00" fill="#000000">HiMain1::natt</text>
</a>
</g>
</g>
<!-- Node2&#45;&gt;Node9 -->
<g id="edge8" class="edge">
<title>Node2&#45;&gt;Node9</title>
<path fill="none" stroke="#191970" d="M161.5254,-917.4784C166.5151,-822.6528 205.6531,-86.4571 219,-68.5 219.6706,-67.5978 220.3892,-66.7385 221.15,-65.9199"/>
<polygon fill="#191970" stroke="#191970" points="223.3937,-68.6068 228.9725,-59.5997 218.9944,-63.1619 223.3937,-68.6068"/>
</g>
<!-- Node10 -->
<g id="node10" class="node">
<title>Node10</title>
<g id="a_node10"><a xlink:href="../../d8/d1a/classHiMain1.html#ab11d08211b1f20f370e2830c4f815a95" target="_top" xlink:title="HiMain1::eatt">
<polygon fill="none" stroke="#ff0000" points="227,-1365.5 227,-1385.5 312,-1385.5 312,-1365.5 227,-1365.5"/>
<text text-anchor="middle" x="269.5" y="-1372.5" font-family="FreeSans" font-size="10.00" fill="#000000">HiMain1::eatt</text>
</a>
</g>
</g>
<!-- Node2&#45;&gt;Node10 -->
<g id="edge9" class="edge">
<title>Node2&#45;&gt;Node10</title>
<path fill="none" stroke="#191970" d="M161.7473,-937.6008C166.3829,-999.172 191.8983,-1322.4782 219,-1356.5 219.7004,-1357.3792 220.4461,-1358.2178 221.2313,-1359.0175"/>
<polygon fill="#191970" stroke="#191970" points="219.1654,-1361.8447 229.2087,-1365.2185 223.4614,-1356.318 219.1654,-1361.8447"/>
</g>
<!-- Node11 -->
<g id="node11" class="node">
<title>Node11</title>
<g id="a_node11"><a xlink:href="../../d8/d1a/classHiMain1.html#afbd1bddd5d5ec2aa3972f82f09def4d2" target="_top" xlink:title="HiMain1::jatt">
<polygon fill="none" stroke="#ff0000" points="229,-1326.5 229,-1346.5 310,-1346.5 310,-1326.5 229,-1326.5"/>
<text text-anchor="middle" x="269.5" y="-1333.5" font-family="FreeSans" font-size="10.00" fill="#000000">HiMain1::jatt</text>
</a>
</g>
</g>
<!-- Node2&#45;&gt;Node11 -->
<g id="edge10" class="edge">
<title>Node2&#45;&gt;Node11</title>
<path fill="none" stroke="#191970" d="M161.1562,-937.5646C162.2025,-992.5644 169.7594,-1256.5198 219,-1317.5 219.8276,-1318.5249 220.7166,-1319.4945 221.6579,-1320.4118"/>
<polygon fill="#191970" stroke="#191970" points="219.6413,-1323.2743 229.7427,-1326.47 223.8389,-1317.6725 219.6413,-1323.2743"/>
</g>
<!-- Node12 -->
<g id="node12" class="node">
<title>Node12</title>
<g id="a_node12"><a xlink:href="../../d8/d1a/classHiMain1.html#a2a88691655a2a18605874e4338fb4807" target="_top" xlink:title="HiMain1::nt">
<polygon fill="none" stroke="#ff0000" points="232,-1287.5 232,-1307.5 307,-1307.5 307,-1287.5 232,-1287.5"/>
<text text-anchor="middle" x="269.5" y="-1294.5" font-family="FreeSans" font-size="10.00" fill="#000000">HiMain1::nt</text>
</a>
</g>
</g>
<!-- Node2&#45;&gt;Node12 -->
<g id="edge11" class="edge">
<title>Node2&#45;&gt;Node12</title>
<path fill="none" stroke="#191970" d="M161.339,-937.5631C163.2698,-989.2111 174.4229,-1224.1968 219,-1278.5 220.2927,-1280.0748 221.7303,-1281.5191 223.2788,-1282.8438"/>
<polygon fill="#191970" stroke="#191970" points="221.5272,-1285.8826 231.7885,-1288.5202 225.4117,-1280.0593 221.5272,-1285.8826"/>
</g>
<!-- Node13 -->
<g id="node13" class="node">
<title>Node13</title>
<g id="a_node13"><a xlink:href="../../d8/d1a/classHiMain1.html#a676ccaef5fa9c10e945e6d1477aeb366" target="_top" xlink:title="HiMain1::np">
<polygon fill="none" stroke="#ff0000" points="231,-1248.5 231,-1268.5 308,-1268.5 308,-1248.5 231,-1248.5"/>
<text text-anchor="middle" x="269.5" y="-1255.5" font-family="FreeSans" font-size="10.00" fill="#000000">HiMain1::np</text>
</a>
</g>
</g>
<!-- Node2&#45;&gt;Node13 -->
<g id="edge12" class="edge">
<title>Node2&#45;&gt;Node13</title>
<path fill="none" stroke="#191970" d="M161.5749,-937.7031C164.4912,-986.069 179.1068,-1191.8835 219,-1239.5 220.1167,-1240.8329 221.3369,-1242.0723 222.6399,-1243.2249"/>
<polygon fill="#191970" stroke="#191970" points="220.6479,-1246.1028 230.8607,-1248.922 224.6351,-1240.3493 220.6479,-1246.1028"/>
</g>
<!-- Node14 -->
<g id="node14" class="node">
<title>Node14</title>
<g id="a_node14"><a xlink:href="../../d8/d1a/classHiMain1.html#afa91501b2c79bdaf9274e067b9d97e31" target="_top" xlink:title="HiMain1::n0">
<polygon fill="none" stroke="#ff0000" points="231,-1209.5 231,-1229.5 308,-1229.5 308,-1209.5 231,-1209.5"/>
<text text-anchor="middle" x="269.5" y="-1216.5" font-family="FreeSans" font-size="10.00" fill="#000000">HiMain1::n0</text>
</a>
</g>
</g>
<!-- Node2&#45;&gt;Node14 -->
<g id="edge13" class="edge">
<title>Node2&#45;&gt;Node14</title>
<path fill="none" stroke="#191970" d="M161.8602,-937.5975C165.8287,-981.9916 183.6994,-1159.442 219,-1200.5 220.1336,-1201.8185 221.3683,-1203.0457 222.6835,-1204.1879"/>
<polygon fill="#191970" stroke="#191970" points="220.7228,-1207.0871 230.9527,-1209.8439 224.6748,-1201.3094 220.7228,-1207.0871"/>
</g>
<!-- Node15 -->
<g id="node15" class="node">
<title>Node15</title>
<g id="a_node15"><a xlink:href="../../d8/d1a/classHiMain1.html#a6983f49998c5c55625d475fcdad69b1a" target="_top" xlink:title="HiMain1::n01">
<polygon fill="none" stroke="#ff0000" points="228,-1170.5 228,-1190.5 311,-1190.5 311,-1170.5 228,-1170.5"/>
<text text-anchor="middle" x="269.5" y="-1177.5" font-family="FreeSans" font-size="10.00" fill="#000000">HiMain1::n01</text>
</a>
</g>
</g>
<!-- Node2&#45;&gt;Node15 -->
<g id="edge14" class="edge">
<title>Node2&#45;&gt;Node15</title>
<path fill="none" stroke="#191970" d="M162.2675,-937.7623C167.4652,-978.3361 188.3326,-1127.0208 219,-1161.5 220.0116,-1162.6374 221.0983,-1163.7069 222.2465,-1164.7127"/>
<polygon fill="#191970" stroke="#191970" points="220.3552,-1167.6601 230.5715,-1170.467 224.3354,-1161.9018 220.3552,-1167.6601"/>
</g>
<!-- Node16 -->
<g id="node16" class="node">
<title>Node16</title>
<g id="a_node16"><a xlink:href="../../d8/d1a/classHiMain1.html#a2c3236268e98516bd1fc24c05529513f" target="_top" xlink:title="HiMain1::n10">
<polygon fill="none" stroke="#ff0000" points="228,-1131.5 228,-1151.5 311,-1151.5 311,-1131.5 228,-1131.5"/>
<text text-anchor="middle" x="269.5" y="-1138.5" font-family="FreeSans" font-size="10.00" fill="#000000">HiMain1::n10</text>
</a>
</g>
</g>
<!-- Node2&#45;&gt;Node16 -->
<g id="edge15" class="edge">
<title>Node2&#45;&gt;Node16</title>
<path fill="none" stroke="#191970" d="M162.8094,-937.7459C169.3666,-973.8452 192.8775,-1094.4607 219,-1122.5 220.0576,-1123.6352 221.1897,-1124.703 222.3822,-1125.7074"/>
<polygon fill="#191970" stroke="#191970" points="220.7232,-1128.8084 230.9813,-1131.4583 224.6147,-1122.9898 220.7232,-1128.8084"/>
</g>
<!-- Node17 -->
<g id="node17" class="node">
<title>Node17</title>
<g id="a_node17"><a xlink:href="../../d8/d1a/classHiMain1.html#a1fa4008c63d269214a190a93016c7df8" target="_top" xlink:title="HiMain1::n11">
<polygon fill="none" stroke="#ff0000" points="228,-1092.5 228,-1112.5 311,-1112.5 311,-1092.5 228,-1092.5"/>
<text text-anchor="middle" x="269.5" y="-1099.5" font-family="FreeSans" font-size="10.00" fill="#000000">HiMain1::n11</text>
</a>
</g>
</g>
<!-- Node2&#45;&gt;Node17 -->
<g id="edge16" class="edge">
<title>Node2&#45;&gt;Node17</title>
<path fill="none" stroke="#191970" d="M161.9219,-937.8005C164.9194,-965.2815 176.7891,-1041.1242 219,-1083.5 220.2271,-1084.7319 221.5418,-1085.8851 222.9249,-1086.9644"/>
<polygon fill="#191970" stroke="#191970" points="221.1406,-1089.9773 231.4609,-1092.3735 224.8875,-1084.0645 221.1406,-1089.9773"/>
</g>
<!-- Node18 -->
<g id="node18" class="node">
<title>Node18</title>
<g id="a_node18"><a xlink:href="../../d8/d1a/classHiMain1.html#a197aa86950f316498399ddbc0f587bc3" target="_top" xlink:title="HiMain1::ierrstat">
<polygon fill="none" stroke="#ff0000" points="219,-1053.5 219,-1073.5 320,-1073.5 320,-1053.5 219,-1053.5"/>
<text text-anchor="middle" x="269.5" y="-1060.5" font-family="FreeSans" font-size="10.00" fill="#000000">HiMain1::ierrstat</text>
</a>
</g>
</g>
<!-- Node2&#45;&gt;Node18 -->
<g id="edge17" class="edge">
<title>Node2&#45;&gt;Node18</title>
<path fill="none" stroke="#191970" d="M163.369,-937.8174C169.0517,-960.3254 185.538,-1014.2386 219,-1044.5 220.4851,-1045.843 222.0742,-1047.0942 223.7397,-1048.2596"/>
<polygon fill="#191970" stroke="#191970" points="222.1709,-1051.3961 232.5748,-1053.3987 225.6905,-1045.3452 222.1709,-1051.3961"/>
</g>
<!-- Node19 -->
<g id="node19" class="node">
<title>Node19</title>
<g id="a_node19"><a xlink:href="../../d1/d5c/classHiMain2.html#af82d580022e08e08bb16f9fb29ab24ec" target="_top" xlink:title="HiMain2::katt">
<polygon fill="none" stroke="#ff0000" points="227.5,-1014.5 227.5,-1034.5 311.5,-1034.5 311.5,-1014.5 227.5,-1014.5"/>
<text text-anchor="middle" x="269.5" y="-1021.5" font-family="FreeSans" font-size="10.00" fill="#000000">HiMain2::katt</text>
</a>
</g>
</g>
<!-- Node2&#45;&gt;Node19 -->
<g id="edge18" class="edge">
<title>Node2&#45;&gt;Node19</title>
<path fill="none" stroke="#191970" d="M166.0148,-937.5702C174.672,-953.996 193.93,-986.6139 219,-1005.5 221.0622,-1007.0535 223.2657,-1008.4928 225.5563,-1009.8243"/>
<polygon fill="#191970" stroke="#191970" points="224.2024,-1013.0615 234.7071,-1014.4404 227.3551,-1006.8116 224.2024,-1013.0615"/>
</g>
<!-- Node20 -->
<g id="node20" class="node">
<title>Node20</title>
<g id="a_node20"><a xlink:href="../../d1/d5c/classHiMain2.html#a182e17a45601004ee5bc5357295bedd7" target="_top" xlink:title="HiMain2::patt">
<polygon fill="none" stroke="#ff0000" points="227,-975.5 227,-995.5 312,-995.5 312,-975.5 227,-975.5"/>
<text text-anchor="middle" x="269.5" y="-982.5" font-family="FreeSans" font-size="10.00" fill="#000000">HiMain2::patt</text>
</a>
</g>
</g>
<!-- Node2&#45;&gt;Node20 -->
<g id="edge19" class="edge">
<title>Node2&#45;&gt;Node20</title>
<path fill="none" stroke="#191970" d="M174.2757,-937.7331C185.6894,-946.2048 202.8214,-958.1611 219,-966.5 222.5062,-968.3072 226.2253,-970.0339 229.9924,-971.6578"/>
<polygon fill="#191970" stroke="#191970" points="228.7796,-974.9429 239.3614,-975.4696 231.4177,-968.459 228.7796,-974.9429"/>
</g>
<!-- Node21 -->
<g id="node21" class="node">
<title>Node21</title>
<g id="a_node21"><a xlink:href="../../d1/d5c/classHiMain2.html#a56b89c3a8e644c8e711bab97dc943436" target="_top" xlink:title="HiMain2::vatt">
<polygon fill="none" stroke="#ff0000" points="227,-936.5 227,-956.5 312,-956.5 312,-936.5 227,-936.5"/>
<text text-anchor="middle" x="269.5" y="-943.5" font-family="FreeSans" font-size="10.00" fill="#000000">HiMain2::vatt</text>
</a>
</g>
</g>
<!-- Node2&#45;&gt;Node21 -->
<g id="edge20" class="edge">
<title>Node2&#45;&gt;Node21</title>
<path fill="none" stroke="#191970" d="M183.2184,-931.3908C193.0025,-933.1041 204.9523,-935.1967 216.8031,-937.272"/>
<polygon fill="#191970" stroke="#191970" points="216.231,-940.725 226.6849,-939.0024 217.4385,-933.8299 216.231,-940.725"/>
</g>
<!-- Node22 -->
<g id="node22" class="node">
<title>Node22</title>
<g id="a_node22"><a xlink:href="../../db/dc0/classHiStrng.html#a59d4a31ebe1ce279f66f57fcafab3793" target="_top" xlink:title="HiStrng::nfp">
<polygon fill="none" stroke="#ff0000" points="231,-1443.5 231,-1463.5 308,-1463.5 308,-1443.5 231,-1443.5"/>
<text text-anchor="middle" x="269.5" y="-1450.5" font-family="FreeSans" font-size="10.00" fill="#000000">HiStrng::nfp</text>
</a>
</g>
</g>
<!-- Node2&#45;&gt;Node22 -->
<g id="edge21" class="edge">
<title>Node2&#45;&gt;Node22</title>
<path fill="none" stroke="#191970" d="M161.5282,-937.6159C165.1561,-1005.5364 187.1924,-1393.7207 219,-1434.5 219.9722,-1435.7464 221.0357,-1436.9111 222.1741,-1437.9993"/>
<polygon fill="#191970" stroke="#191970" points="220.4579,-1441.0789 230.604,-1444.1296 224.5749,-1435.4175 220.4579,-1441.0789"/>
</g>
<!-- Node23 -->
<g id="node23" class="node">
<title>Node23</title>
<g id="a_node23"><a xlink:href="../../db/dc0/classHiStrng.html#a940c31018c9ebe07227bb6d34a625f8a" target="_top" xlink:title="HiStrng::pp">
<polygon fill="none" stroke="#ff0000" points="232.5,-1404.5 232.5,-1424.5 306.5,-1424.5 306.5,-1404.5 232.5,-1404.5"/>
<text text-anchor="middle" x="269.5" y="-1411.5" font-family="FreeSans" font-size="10.00" fill="#000000">HiStrng::pp</text>
</a>
</g>
</g>
<!-- Node2&#45;&gt;Node23 -->
<g id="edge22" class="edge">
<title>Node2&#45;&gt;Node23</title>
<path fill="none" stroke="#191970" d="M161.6322,-937.6619C165.754,-1002.6145 189.5561,-1358.1147 219,-1395.5 220.4363,-1397.3237 222.0677,-1398.9723 223.843,-1400.4627"/>
<polygon fill="#191970" stroke="#191970" points="222.1013,-1403.5053 232.3894,-1406.036 225.925,-1397.6419 222.1013,-1403.5053"/>
</g>
<!-- Node24 -->
<g id="node24" class="node">
<title>Node24</title>
<g id="a_node24"><a xlink:href="../../db/dc0/classHiStrng.html#ace64397808c894bf94ef8ce9e5b41fa5" target="_top" xlink:title="HiStrng::nft">
<polygon fill="none" stroke="#ff0000" points="232,-1599.5 232,-1619.5 307,-1619.5 307,-1599.5 232,-1599.5"/>
<text text-anchor="middle" x="269.5" y="-1606.5" font-family="FreeSans" font-size="10.00" fill="#000000">HiStrng::nft</text>
</a>
</g>
</g>
<!-- Node2&#45;&gt;Node24 -->
<g id="edge23" class="edge">
<title>Node2&#45;&gt;Node24</title>
<path fill="none" stroke="#191970" d="M161.2395,-937.5072C163.2085,-1016.3662 177.7055,-1536.0781 219,-1590.5 220.3802,-1592.3189 221.9554,-1593.9637 223.6759,-1595.4511"/>
<polygon fill="#191970" stroke="#191970" points="221.7381,-1598.3657 231.9962,-1601.0155 225.6295,-1592.547 221.7381,-1598.3657"/>
</g>
<!-- Node25 -->
<g id="node25" class="node">
<title>Node25</title>
<g id="a_node25"><a xlink:href="../../db/dc0/classHiStrng.html#a9c8d7f68590dc5bf34483b740c49ba0b" target="_top" xlink:title="HiStrng::pt">
<polygon fill="none" stroke="#ff0000" points="234,-1560.5 234,-1580.5 305,-1580.5 305,-1560.5 234,-1560.5"/>
<text text-anchor="middle" x="269.5" y="-1567.5" font-family="FreeSans" font-size="10.00" fill="#000000">HiStrng::pt</text>
</a>
</g>
</g>
<!-- Node2&#45;&gt;Node25 -->
<g id="edge24" class="edge">
<title>Node2&#45;&gt;Node25</title>
<path fill="none" stroke="#191970" d="M161.3087,-937.8837C163.6937,-1015.2803 180.1417,-1500.5762 219,-1551.5 220.7847,-1553.8388 222.8915,-1555.8897 225.2146,-1557.6882"/>
<polygon fill="#191970" stroke="#191970" points="223.4252,-1560.6963 233.7922,-1562.8817 227.0508,-1554.7083 223.4252,-1560.6963"/>
</g>
<!-- Node26 -->
<g id="node26" class="node">
<title>Node26</title>
<g id="a_node26"><a xlink:href="../../d6/da8/classHijJet1.html#a696121386f272fff3aff8b5b58fb6c96" target="_top" xlink:title="HijJet1::npj">
<polygon fill="none" stroke="#ff0000" points="234,-897.5 234,-917.5 305,-917.5 305,-897.5 234,-897.5"/>
<text text-anchor="middle" x="269.5" y="-904.5" font-family="FreeSans" font-size="10.00" fill="#000000">HijJet1::npj</text>
</a>
</g>
</g>
<!-- Node2&#45;&gt;Node26 -->
<g id="edge25" class="edge">
<title>Node2&#45;&gt;Node26</title>
<path fill="none" stroke="#191970" d="M183.2184,-923.4044C194.8925,-921.2525 209.6497,-918.5323 223.6434,-915.9528"/>
<polygon fill="#191970" stroke="#191970" points="224.4431,-919.3645 233.6429,-914.1096 223.1741,-912.4804 224.4431,-919.3645"/>
</g>
<!-- Node27 -->
<g id="node27" class="node">
<title>Node27</title>
<g id="a_node27"><a xlink:href="../../d6/da8/classHijJet1.html#a14a4e69f43cc7ac1e504b7456267e802" target="_top" xlink:title="HijJet1::kfpj">
<polygon fill="none" stroke="#ff0000" points="232.5,-858.5 232.5,-878.5 306.5,-878.5 306.5,-858.5 232.5,-858.5"/>
<text text-anchor="middle" x="269.5" y="-865.5" font-family="FreeSans" font-size="10.00" fill="#000000">HijJet1::kfpj</text>
</a>
</g>
</g>
<!-- Node2&#45;&gt;Node27 -->
<g id="edge26" class="edge">
<title>Node2&#45;&gt;Node27</title>
<path fill="none" stroke="#191970" d="M174.313,-917.3384C185.7494,-908.9104 202.8938,-896.978 219,-888.5 223.004,-886.3923 227.2813,-884.3721 231.5886,-882.4806"/>
<polygon fill="#191970" stroke="#191970" points="233.0934,-885.6452 240.9719,-878.5615 230.3955,-879.186 233.0934,-885.6452"/>
</g>
<!-- Node28 -->
<g id="node28" class="node">
<title>Node28</title>
<g id="a_node28"><a xlink:href="../../d6/da8/classHijJet1.html#a49d765b2091704a72fde7e863831245b" target="_top" xlink:title="HijJet1::pjpx">
<polygon fill="none" stroke="#ff0000" points="230.5,-819.5 230.5,-839.5 308.5,-839.5 308.5,-819.5 230.5,-819.5"/>
<text text-anchor="middle" x="269.5" y="-826.5" font-family="FreeSans" font-size="10.00" fill="#000000">HijJet1::pjpx</text>
</a>
</g>
</g>
<!-- Node2&#45;&gt;Node28 -->
<g id="edge27" class="edge">
<title>Node2&#45;&gt;Node28</title>
<path fill="none" stroke="#191970" d="M166.0515,-917.4781C174.7615,-901.1218 194.0936,-868.6014 219,-849.5 221.5815,-847.5202 224.3844,-845.7107 227.3021,-844.0617"/>
<polygon fill="#191970" stroke="#191970" points="228.9008,-847.1756 236.2931,-839.5859 225.7813,-840.9091 228.9008,-847.1756"/>
</g>
<!-- Node29 -->
<g id="node29" class="node">
<title>Node29</title>
<g id="a_node29"><a xlink:href="../../d6/da8/classHijJet1.html#aeb1be8a6c987eff76e42acee1c3251b9" target="_top" xlink:title="HijJet1::pjpy">
<polygon fill="none" stroke="#ff0000" points="230.5,-780.5 230.5,-800.5 308.5,-800.5 308.5,-780.5 230.5,-780.5"/>
<text text-anchor="middle" x="269.5" y="-787.5" font-family="FreeSans" font-size="10.00" fill="#000000">HijJet1::pjpy</text>
</a>
</g>
</g>
<!-- Node2&#45;&gt;Node29 -->
<g id="edge28" class="edge">
<title>Node2&#45;&gt;Node29</title>
<path fill="none" stroke="#191970" d="M163.408,-917.2253C169.1684,-894.8025 185.8,-841.0486 219,-810.5 220.9126,-808.7401 222.9988,-807.1273 225.199,-805.6504"/>
<polygon fill="#191970" stroke="#191970" points="227.1424,-808.5724 234.1242,-800.6034 223.6967,-802.4791 227.1424,-808.5724"/>
</g>
<!-- Node30 -->
<g id="node30" class="node">
<title>Node30</title>
<g id="a_node30"><a xlink:href="../../d6/da8/classHijJet1.html#a6f75acd5043db7cdb447f4df5962ebbb" target="_top" xlink:title="HijJet1::pjpz">
<polygon fill="none" stroke="#ff0000" points="231,-741.5 231,-761.5 308,-761.5 308,-741.5 231,-741.5"/>
<text text-anchor="middle" x="269.5" y="-748.5" font-family="FreeSans" font-size="10.00" fill="#000000">HijJet1::pjpz</text>
</a>
</g>
</g>
<!-- Node2&#45;&gt;Node30 -->
<g id="edge29" class="edge">
<title>Node2&#45;&gt;Node30</title>
<path fill="none" stroke="#191970" d="M161.9622,-917.2393C165.0597,-889.8571 177.1558,-814.2379 219,-771.5 220.608,-769.8576 222.3677,-768.3467 224.2355,-766.957"/>
<polygon fill="#191970" stroke="#191970" points="226.2762,-769.8117 232.9826,-761.6096 222.6251,-763.8394 226.2762,-769.8117"/>
</g>
<!-- Node31 -->
<g id="node31" class="node">
<title>Node31</title>
<g id="a_node31"><a xlink:href="../../d6/da8/classHijJet1.html#a5a99a0d25cae332b4db9e9301101cf3a" target="_top" xlink:title="HijJet1::pjpe">
<polygon fill="none" stroke="#ff0000" points="230.5,-702.5 230.5,-722.5 308.5,-722.5 308.5,-702.5 230.5,-702.5"/>
<text text-anchor="middle" x="269.5" y="-709.5" font-family="FreeSans" font-size="10.00" fill="#000000">HijJet1::pjpe</text>
</a>
</g>
</g>
<!-- Node2&#45;&gt;Node31 -->
<g id="edge30" class="edge">
<title>Node2&#45;&gt;Node31</title>
<path fill="none" stroke="#191970" d="M162.8262,-917.2697C169.4405,-881.2231 193.1201,-760.7633 219,-732.5 220.5264,-730.833 222.2096,-729.3029 224.007,-727.8986"/>
<polygon fill="#191970" stroke="#191970" points="225.9211,-730.8292 232.4856,-722.5131 222.1678,-724.9204 225.9211,-730.8292"/>
</g>
<!-- Node32 -->
<g id="node32" class="node">
<title>Node32</title>
<g id="a_node32"><a xlink:href="../../d6/da8/classHijJet1.html#a5cf90a3a2ed55aa999003181c1628593" target="_top" xlink:title="HijJet1::pjpm">
<polygon fill="none" stroke="#ff0000" points="229,-663.5 229,-683.5 310,-683.5 310,-663.5 229,-663.5"/>
<text text-anchor="middle" x="269.5" y="-670.5" font-family="FreeSans" font-size="10.00" fill="#000000">HijJet1::pjpm</text>
</a>
</g>
</g>
<!-- Node2&#45;&gt;Node32 -->
<g id="edge31" class="edge">
<title>Node2&#45;&gt;Node32</title>
<path fill="none" stroke="#191970" d="M162.2847,-917.2529C167.5479,-876.7369 188.6308,-728.2421 219,-693.5 220.3266,-691.9824 221.7837,-690.5788 223.3403,-689.2808"/>
<polygon fill="#191970" stroke="#191970" points="225.4326,-692.0924 231.8086,-683.6309 221.5476,-686.2694 225.4326,-692.0924"/>
</g>
<!-- Node33 -->
<g id="node33" class="node">
<title>Node33</title>
<g id="a_node33"><a xlink:href="../../d6/da8/classHijJet1.html#a01bd98133119f78b61847ec162e69db0" target="_top" xlink:title="HijJet1::ntj">
<polygon fill="none" stroke="#ff0000" points="235.5,-624.5 235.5,-644.5 303.5,-644.5 303.5,-624.5 235.5,-624.5"/>
<text text-anchor="middle" x="269.5" y="-631.5" font-family="FreeSans" font-size="10.00" fill="#000000">HijJet1::ntj</text>
</a>
</g>
</g>
<!-- Node2&#45;&gt;Node33 -->
<g id="edge32" class="edge">
<title>Node2&#45;&gt;Node33</title>
<path fill="none" stroke="#191970" d="M161.8774,-917.4171C165.9189,-873.0853 184.0544,-695.8606 219,-654.5 221.1605,-651.9429 223.6929,-649.7104 226.4525,-647.7616"/>
<polygon fill="#191970" stroke="#191970" points="228.3212,-650.725 235.2683,-642.7257 224.8491,-644.6468 228.3212,-650.725"/>
</g>
<!-- Node34 -->
<g id="node34" class="node">
<title>Node34</title>
<g id="a_node34"><a xlink:href="../../d6/da8/classHijJet1.html#a61fd2f7bfaaefab42266a3a35b4a81e1" target="_top" xlink:title="HijJet1::kftj">
<polygon fill="none" stroke="#ff0000" points="234,-585.5 234,-605.5 305,-605.5 305,-585.5 234,-585.5"/>
<text text-anchor="middle" x="269.5" y="-592.5" font-family="FreeSans" font-size="10.00" fill="#000000">HijJet1::kftj</text>
</a>
</g>
</g>
<!-- Node2&#45;&gt;Node34 -->
<g id="edge33" class="edge">
<title>Node2&#45;&gt;Node34</title>
<path fill="none" stroke="#191970" d="M161.5924,-917.3115C164.5893,-869.0125 179.5185,-663.4584 219,-615.5 220.8542,-613.2477 222.9978,-611.2476 225.3337,-609.4718"/>
<polygon fill="#191970" stroke="#191970" points="227.1643,-612.455 233.8759,-604.2571 223.5169,-606.4803 227.1643,-612.455"/>
</g>
<!-- Node35 -->
<g id="node35" class="node">
<title>Node35</title>
<g id="a_node35"><a xlink:href="../../d6/da8/classHijJet1.html#a25965e2e2d97fa68ada3dae73879cb7f" target="_top" xlink:title="HijJet1::pjtx">
<polygon fill="none" stroke="#ff0000" points="232,-546.5 232,-566.5 307,-566.5 307,-546.5 232,-546.5"/>
<text text-anchor="middle" x="269.5" y="-553.5" font-family="FreeSans" font-size="10.00" fill="#000000">HijJet1::pjtx</text>
</a>
</g>
</g>
<!-- Node2&#45;&gt;Node35 -->
<g id="edge34" class="edge">
<title>Node2&#45;&gt;Node35</title>
<path fill="none" stroke="#191970" d="M161.3565,-917.4511C163.3744,-865.8739 174.8924,-631.1853 219,-576.5 220.2876,-574.9036 221.721,-573.434 223.266,-572.0814"/>
<polygon fill="#191970" stroke="#191970" points="225.5022,-574.7916 231.7642,-566.2454 221.5394,-569.0213 225.5022,-574.7916"/>
</g>
<!-- Node36 -->
<g id="node36" class="node">
<title>Node36</title>
<g id="a_node36"><a xlink:href="../../d6/da8/classHijJet1.html#a82fa523d45a782e018a059c726b2c7a7" target="_top" xlink:title="HijJet1::pjty">
<polygon fill="none" stroke="#ff0000" points="232,-507.5 232,-527.5 307,-527.5 307,-507.5 232,-507.5"/>
<text text-anchor="middle" x="269.5" y="-514.5" font-family="FreeSans" font-size="10.00" fill="#000000">HijJet1::pjty</text>
</a>
</g>
</g>
<!-- Node2&#45;&gt;Node36 -->
<g id="edge35" class="edge">
<title>Node2&#45;&gt;Node36</title>
<path fill="none" stroke="#191970" d="M161.1738,-917.4495C162.3137,-862.5246 170.2866,-598.9022 219,-537.5 220.2967,-535.8655 221.7465,-534.3642 223.3132,-532.9852"/>
<polygon fill="#191970" stroke="#191970" points="225.6862,-535.6018 231.9537,-527.0595 221.7272,-529.8289 225.6862,-535.6018"/>
</g>
<!-- Node37 -->
<g id="node37" class="node">
<title>Node37</title>
<g id="a_node37"><a xlink:href="../../d6/da8/classHijJet1.html#a849cf74a3138e2570c41e71e76811d58" target="_top" xlink:title="HijJet1::pjtz">
<polygon fill="none" stroke="#ff0000" points="232.5,-468.5 232.5,-488.5 306.5,-488.5 306.5,-468.5 232.5,-468.5"/>
<text text-anchor="middle" x="269.5" y="-475.5" font-family="FreeSans" font-size="10.00" fill="#000000">HijJet1::pjtz</text>
</a>
</g>
</g>
<!-- Node2&#45;&gt;Node37 -->
<g id="edge36" class="edge">
<title>Node2&#45;&gt;Node37</title>
<path fill="none" stroke="#191970" d="M161.7554,-917.4055C166.4392,-855.8724 192.1925,-532.7541 219,-498.5 220.4402,-496.6597 222.0748,-494.9883 223.8527,-493.4703"/>
<polygon fill="#191970" stroke="#191970" points="226.0398,-496.2182 232.4063,-487.7495 222.1482,-490.3997 226.0398,-496.2182"/>
</g>
<!-- Node38 -->
<g id="node38" class="node">
<title>Node38</title>
<g id="a_node38"><a xlink:href="../../d6/da8/classHijJet1.html#afd06cbc90a0243a9bf1445c5752119f5" target="_top" xlink:title="HijJet1::pjte">
<polygon fill="none" stroke="#ff0000" points="232,-429.5 232,-449.5 307,-449.5 307,-429.5 232,-429.5"/>
<text text-anchor="middle" x="269.5" y="-436.5" font-family="FreeSans" font-size="10.00" fill="#000000">HijJet1::pjte</text>
</a>
</g>
</g>
<!-- Node2&#45;&gt;Node38 -->
<g id="edge37" class="edge">
<title>Node2&#45;&gt;Node38</title>
<path fill="none" stroke="#191970" d="M161.6403,-917.3445C165.8133,-852.4318 189.8793,-497.1376 219,-459.5 220.2767,-457.8499 221.71,-456.3356 223.2631,-454.946"/>
<polygon fill="#191970" stroke="#191970" points="225.6358,-457.5599 231.859,-448.9854 221.647,-451.8076 225.6358,-457.5599"/>
</g>
<!-- Node39 -->
<g id="node39" class="node">
<title>Node39</title>
<g id="a_node39"><a xlink:href="../../d6/da8/classHijJet1.html#aa3062bddcad6c17927542040512785cc" target="_top" xlink:title="HijJet1::pjtm">
<polygon fill="none" stroke="#ff0000" points="230,-390.5 230,-410.5 309,-410.5 309,-390.5 230,-390.5"/>
<text text-anchor="middle" x="269.5" y="-397.5" font-family="FreeSans" font-size="10.00" fill="#000000">HijJet1::pjtm</text>
</a>
</g>
</g>
<!-- Node2&#45;&gt;Node39 -->
<g id="edge38" class="edge">
<title>Node2&#45;&gt;Node39</title>
<path fill="none" stroke="#191970" d="M161.5364,-917.3904C165.2181,-849.5115 187.5449,-461.5519 219,-420.5 220.0646,-419.1106 221.2404,-417.8175 222.5055,-416.614"/>
<polygon fill="#191970" stroke="#191970" points="224.6107,-419.4104 230.5779,-410.6558 220.4537,-413.7784 224.6107,-419.4104"/>
</g>
<!-- Node40 -->
<g id="node40" class="node">
<title>Node40</title>
<g id="a_node40"><a xlink:href="../../d4/d9b/classHijJet2.html#a7041910b3bfa40de4c0a6de1c8946522" target="_top" xlink:title="HijJet2::nsg">
<polygon fill="none" stroke="#ff0000" points="232.5,-351.5 232.5,-371.5 306.5,-371.5 306.5,-351.5 232.5,-351.5"/>
<text text-anchor="middle" x="269.5" y="-358.5" font-family="FreeSans" font-size="10.00" fill="#000000">HijJet2::nsg</text>
</a>
</g>
</g>
<!-- Node2&#45;&gt;Node40 -->
<g id="edge39" class="edge">
<title>Node2&#45;&gt;Node40</title>
<path fill="none" stroke="#191970" d="M161.4639,-917.0798C164.7417,-845.3201 185.2619,-425.9015 219,-381.5 220.4138,-379.6393 222.0271,-377.9515 223.788,-376.4205"/>
<polygon fill="#191970" stroke="#191970" points="225.9746,-379.1668 232.2931,-370.6622 222.0502,-373.3703 225.9746,-379.1668"/>
</g>
<!-- Node41 -->
<g id="node41" class="node">
<title>Node41</title>
<g id="a_node41"><a xlink:href="../../d4/d9b/classHijJet2.html#a0cab2a65457024568b162312562d6a8d" target="_top" xlink:title="HijJet2::njsg">
<polygon fill="none" stroke="#ff0000" points="231.5,-312.5 231.5,-332.5 307.5,-332.5 307.5,-312.5 231.5,-312.5"/>
<text text-anchor="middle" x="269.5" y="-319.5" font-family="FreeSans" font-size="10.00" fill="#000000">HijJet2::njsg</text>
</a>
</g>
</g>
<!-- Node2&#45;&gt;Node41 -->
<g id="edge40" class="edge">
<title>Node2&#45;&gt;Node41</title>
<path fill="none" stroke="#191970" d="M161.3779,-917.3026C164.2012,-843.3134 182.8912,-390.3688 219,-342.5 220.2138,-340.8908 221.577,-339.411 223.0562,-338.05"/>
<polygon fill="#191970" stroke="#191970" points="225.1602,-340.8483 231.2637,-332.1881 221.0918,-335.152 225.1602,-340.8483"/>
</g>
<!-- Node42 -->
<g id="node42" class="node">
<title>Node42</title>
<g id="a_node42"><a xlink:href="../../d4/d9b/classHijJet2.html#a7b732557ecdfb648bc5feb521a758328" target="_top" xlink:title="HijJet2::iasg">
<polygon fill="none" stroke="#ff0000" points="231.5,-273.5 231.5,-293.5 307.5,-293.5 307.5,-273.5 231.5,-273.5"/>
<text text-anchor="middle" x="269.5" y="-280.5" font-family="FreeSans" font-size="10.00" fill="#000000">HijJet2::iasg</text>
</a>
</g>
</g>
<!-- Node2&#45;&gt;Node42 -->
<g id="edge41" class="edge">
<title>Node2&#45;&gt;Node42</title>
<path fill="none" stroke="#191970" d="M161.3171,-917.1227C163.7642,-839.773 180.582,-354.7567 219,-303.5 220.2301,-301.8588 221.6157,-300.3521 223.1215,-298.969"/>
<polygon fill="#191970" stroke="#191970" points="225.3591,-301.6729 231.4888,-293.0313 221.308,-295.9642 225.3591,-301.6729"/>
</g>
<!-- Node43 -->
<g id="node43" class="node">
<title>Node43</title>
<g id="a_node43"><a xlink:href="../../d4/d9b/classHijJet2.html#a678702e762acffc3b0fde8f1d3ff9886" target="_top" xlink:title="HijJet2::k1sg">
<polygon fill="none" stroke="#ff0000" points="230,-234.5 230,-254.5 309,-254.5 309,-234.5 230,-234.5"/>
<text text-anchor="middle" x="269.5" y="-241.5" font-family="FreeSans" font-size="10.00" fill="#000000">HijJet2::k1sg</text>
</a>
</g>
</g>
<!-- Node2&#45;&gt;Node43 -->
<g id="edge42" class="edge">
<title>Node2&#45;&gt;Node43</title>
<path fill="none" stroke="#191970" d="M161.2477,-917.499C163.2801,-838.6876 178.1759,-319.2756 219,-264.5 220.046,-263.0965 221.2059,-261.7914 222.4575,-260.5778"/>
<polygon fill="#191970" stroke="#191970" points="224.5655,-263.3718 230.4769,-254.5794 220.3727,-257.7664 224.5655,-263.3718"/>
</g>
<!-- Node44 -->
<g id="node44" class="node">
<title>Node44</title>
<g id="a_node44"><a xlink:href="../../d4/d9b/classHijJet2.html#ab8f75406e2eca68a30bad5ad8297f740" target="_top" xlink:title="HijJet2::k2sg">
<polygon fill="none" stroke="#ff0000" points="230,-195.5 230,-215.5 309,-215.5 309,-195.5 230,-195.5"/>
<text text-anchor="middle" x="269.5" y="-202.5" font-family="FreeSans" font-size="10.00" fill="#000000">HijJet2::k2sg</text>
</a>
</g>
</g>
<!-- Node2&#45;&gt;Node44 -->
<g id="edge43" class="edge">
<title>Node2&#45;&gt;Node44</title>
<path fill="none" stroke="#191970" d="M161.5261,-917.4885C165.9544,-833.9199 197.3751,-254.6618 219,-225.5 220.0426,-224.094 221.1996,-222.7867 222.4488,-221.5712"/>
<polygon fill="#191970" stroke="#191970" points="224.5572,-224.365 230.4584,-215.5657 220.358,-218.7644 224.5572,-224.365"/>
</g>
<!-- Node45 -->
<g id="node45" class="node">
<title>Node45</title>
<g id="a_node45"><a xlink:href="../../d4/d9b/classHijJet2.html#a010ef8a1ef696e193eefa47231c3c905" target="_top" xlink:title="HijJet2::pxsg">
<polygon fill="none" stroke="#ff0000" points="229.5,-156.5 229.5,-176.5 309.5,-176.5 309.5,-156.5 229.5,-156.5"/>
<text text-anchor="middle" x="269.5" y="-163.5" font-family="FreeSans" font-size="10.00" fill="#000000">HijJet2::pxsg</text>
</a>
</g>
</g>
<!-- Node2&#45;&gt;Node45 -->
<g id="edge44" class="edge">
<title>Node2&#45;&gt;Node45</title>
<path fill="none" stroke="#191970" d="M161.4818,-917.4831C165.6633,-831.3035 196.2002,-217.3853 219,-186.5 220.0396,-185.0917 221.1939,-183.7825 222.4409,-182.5654"/>
<polygon fill="#191970" stroke="#191970" points="224.5498,-185.3588 230.4419,-176.5535 220.3447,-179.7626 224.5498,-185.3588"/>
</g>
<!-- Node46 -->
<g id="node46" class="node">
<title>Node46</title>
<g id="a_node46"><a xlink:href="../../d4/d9b/classHijJet2.html#aab08b3c79f237e8dd36a94b97db425a7" target="_top" xlink:title="HijJet2::pysg">
<polygon fill="none" stroke="#ff0000" points="229.5,-117.5 229.5,-137.5 309.5,-137.5 309.5,-117.5 229.5,-117.5"/>
<text text-anchor="middle" x="269.5" y="-124.5" font-family="FreeSans" font-size="10.00" fill="#000000">HijJet2::pysg</text>
</a>
</g>
</g>
<!-- Node2&#45;&gt;Node46 -->
<g id="edge45" class="edge">
<title>Node2&#45;&gt;Node46</title>
<path fill="none" stroke="#191970" d="M161.4524,-917.2404C165.4423,-827.604 195.0455,-180.082 219,-147.5 220.0369,-146.0897 221.1889,-144.7788 222.4339,-143.5602"/>
<polygon fill="#191970" stroke="#191970" points="224.5431,-146.3533 230.427,-137.5425 220.3328,-140.761 224.5431,-146.3533"/>
</g>
<!-- Node47 -->
<g id="node47" class="node">
<title>Node47</title>
<g id="a_node47"><a xlink:href="../../d4/d9b/classHijJet2.html#aad7b887e8f1e0dcb86c7b176baae2c9b" target="_top" xlink:title="HijJet2::pzsg">
<polygon fill="none" stroke="#ff0000" points="230,-78.5 230,-98.5 309,-98.5 309,-78.5 230,-78.5"/>
<text text-anchor="middle" x="269.5" y="-85.5" font-family="FreeSans" font-size="10.00" fill="#000000">HijJet2::pzsg</text>
</a>
</g>
</g>
<!-- Node2&#45;&gt;Node47 -->
<g id="edge46" class="edge">
<title>Node2&#45;&gt;Node47</title>
<path fill="none" stroke="#191970" d="M161.4077,-917.2973C165.1216,-825.3167 193.5377,-141.6431 219,-107.5 219.91,-106.2798 220.9079,-105.1379 221.979,-104.0693"/>
<polygon fill="#191970" stroke="#191970" points="224.0953,-106.857 229.9518,-98.028 219.8677,-101.2778 224.0953,-106.857"/>
</g>
<!-- Node2&#45;&gt;Node48 -->
<g id="edge47" class="edge">
<title>Node2&#45;&gt;Node48</title>
<path fill="none" stroke="#191970" d="M161.503,-917.3318C166.3602,-819.5022 205.0627,-48.3087 219,-29.5 219.6692,-28.5968 220.3867,-27.7366 221.1464,-26.9173"/>
<polygon fill="#191970" stroke="#191970" points="223.3906,-29.6036 228.962,-20.5919 218.9869,-24.1623 223.3906,-29.6036"/>
</g>
<!-- Node2&#45;&gt;Node49 -->
<g id="edge48" class="edge">
<title>Node2&#45;&gt;Node49</title>
<path fill="none" stroke="#191970" d="M161.1896,-937.5711C162.8093,-1019.2526 175.3413,-1571.6732 219,-1629.5 219.6773,-1630.3971 220.4021,-1631.2519 221.1684,-1632.0663"/>
<polygon fill="#191970" stroke="#191970" points="219.033,-1634.8402 229.026,-1638.3602 223.4092,-1629.3768 219.033,-1634.8402"/>
</g>
<!-- Node50&#45;&gt;Node3 -->
<g id="edge56" class="edge">
<title>Node50&#45;&gt;Node3</title>
<path fill="none" stroke="#191970" d="M161.4147,-1619.7832C163.1627,-1649.5463 172.229,-1736.7457 219,-1785.5 220.2037,-1786.7548 221.4984,-1787.9275 222.8645,-1789.0234"/>
<polygon fill="#191970" stroke="#191970" points="221.0355,-1792.0087 231.3339,-1794.4978 224.8355,-1786.1298 221.0355,-1792.0087"/>
</g>
<!-- Node50&#45;&gt;Node4 -->
<g id="edge57" class="edge">
<title>Node50&#45;&gt;Node4</title>
<path fill="none" stroke="#191970" d="M168.5924,-1619.5864C178.7857,-1632.5106 198.0522,-1654.8683 219,-1668.5 221.586,-1670.1829 224.3426,-1671.7472 227.183,-1673.1957"/>
<polygon fill="#191970" stroke="#191970" points="225.8849,-1676.4507 236.4343,-1677.4306 228.7986,-1670.0859 225.8849,-1676.4507"/>
</g>
<!-- Node50&#45;&gt;Node5 -->
<g id="edge58" class="edge">
<title>Node50&#45;&gt;Node5</title>
<path fill="none" stroke="#191970" d="M164.388,-1619.6221C171.4602,-1639.279 189.6187,-1682.8463 219,-1707.5 220.7491,-1708.9677 222.623,-1710.3281 224.5819,-1711.5884"/>
<polygon fill="#191970" stroke="#191970" points="223.137,-1714.7868 233.5932,-1716.495 226.4844,-1708.639 223.137,-1714.7868"/>
</g>
<!-- Node50&#45;&gt;Node6 -->
<g id="edge59" class="edge">
<title>Node50&#45;&gt;Node6</title>
<path fill="none" stroke="#191970" d="M162.5026,-1619.6443C166.7293,-1644.6784 180.9935,-1710.007 219,-1746.5 220.4189,-1747.8624 221.9449,-1749.1292 223.5508,-1750.3068"/>
<polygon fill="#191970" stroke="#191970" points="221.7512,-1753.3088 232.1207,-1755.4823 225.37,-1747.3167 221.7512,-1753.3088"/>
</g>
<!-- Node50&#45;&gt;Node7 -->
<g id="edge54" class="edge">
<title>Node50&#45;&gt;Node7</title>
<path fill="none" stroke="#191970" d="M169.0237,-1599.208C179.3837,-1586.5077 198.5289,-1564.9484 219,-1551.5 222.1402,-1549.437 225.5262,-1547.5318 229.0055,-1545.7851"/>
<polygon fill="#191970" stroke="#191970" points="230.6827,-1548.867 238.3282,-1541.5324 227.7775,-1542.4983 230.6827,-1548.867"/>
</g>
<!-- Node50&#45;&gt;Node8 -->
<g id="edge55" class="edge">
<title>Node50&#45;&gt;Node8</title>
<path fill="none" stroke="#191970" d="M164.5666,-1599.2237C171.8328,-1579.7035 190.1462,-1537.0256 219,-1512.5 221.2229,-1510.6106 223.646,-1508.8857 226.1885,-1507.3133"/>
<polygon fill="#191970" stroke="#191970" points="227.9881,-1510.3205 235.1755,-1502.5364 224.7026,-1504.1394 227.9881,-1510.3205"/>
</g>
<!-- Node50&#45;&gt;Node22 -->
<g id="edge50" class="edge">
<title>Node50&#45;&gt;Node22</title>
<path fill="none" stroke="#191970" d="M162.5646,-1599.4688C166.9328,-1574.7065 181.4943,-1510.0419 219,-1473.5 220.8321,-1471.715 222.8428,-1470.0837 224.9739,-1468.5937"/>
<polygon fill="#191970" stroke="#191970" points="226.7942,-1471.5839 233.666,-1463.5198 223.2652,-1465.5385 226.7942,-1471.5839"/>
</g>
<!-- Node50&#45;&gt;Node23 -->
<g id="edge51" class="edge">
<title>Node50&#45;&gt;Node23</title>
<path fill="none" stroke="#191970" d="M161.4745,-1599.3127C163.3848,-1569.8204 172.8468,-1483.3644 219,-1434.5 220.552,-1432.8568 222.256,-1431.3461 224.0701,-1429.9572"/>
<polygon fill="#191970" stroke="#191970" points="225.9798,-1432.891 232.5975,-1424.6172 222.2646,-1426.9583 225.9798,-1432.891"/>
</g>
<!-- Node50&#45;&gt;Node24 -->
<g id="edge52" class="edge">
<title>Node50&#45;&gt;Node24</title>
<path fill="none" stroke="#191970" d="M183.2184,-1609.5C194.3839,-1609.5 208.3698,-1609.5 221.8104,-1609.5"/>
<polygon fill="#191970" stroke="#191970" points="221.9266,-1613.0001 231.9266,-1609.5 221.9265,-1606.0001 221.9266,-1613.0001"/>
</g>
<!-- Node50&#45;&gt;Node25 -->
<g id="edge53" class="edge">
<title>Node50&#45;&gt;Node25</title>
<path fill="none" stroke="#191970" d="M183.2184,-1601.5137C197.1835,-1596.4939 215.5606,-1589.8883 231.7648,-1584.0638"/>
<polygon fill="#191970" stroke="#191970" points="233.2879,-1587.2356 241.5145,-1580.5593 230.92,-1580.6483 233.2879,-1587.2356"/>
</g>
<!-- Node50&#45;&gt;Node49 -->
<g id="edge60" class="edge">
<title>Node50&#45;&gt;Node49</title>
<path fill="none" stroke="#191970" d="M183.2184,-1617.4863C197.1835,-1622.5061 215.5606,-1629.1117 231.7648,-1634.9362"/>
<polygon fill="#191970" stroke="#191970" points="230.92,-1638.3517 241.5145,-1638.4407 233.2879,-1631.7644 230.92,-1638.3517"/>
</g>
</g>
</svg>
