<?xml version="1.0" encoding="UTF-8" standalone="no"?>
<!DOCTYPE svg PUBLIC "-//W3C//DTD SVG 1.1//EN"
 "http://www.w3.org/Graphics/SVG/1.1/DTD/svg11.dtd">
<!-- Generated by graphviz version 2.40.1 (20161225.0304)
 -->
<!-- Title: G__setup_memvarLeptoquarksReco Pages: 1 -->
<svg width="876pt" height="53pt"
 viewBox="0.00 0.00 876.00 53.00" xmlns="http://www.w3.org/2000/svg" xmlns:xlink="http://www.w3.org/1999/xlink">
<g id="graph0" class="graph" transform="scale(1 1) rotate(0) translate(4 49)">
<title>G__setup_memvarLeptoquarksReco</title>
<!-- Node1 -->
<g id="node1" class="node">
<title>Node1</title>
<polygon fill="#bfbfbf" stroke="#000000" points="0,-12.5 0,-32.5 196,-32.5 196,-12.5 0,-12.5"/>
<text text-anchor="middle" x="98" y="-19.5" font-family="FreeSans" font-size="10.00" fill="#000000">G__setup_memvarLeptoquarksReco</text>
</g>
<!-- Node2 -->
<g id="node2" class="node">
<title>Node2</title>
<g id="a_node2"><a xlink:href="../../d1/dc3/LeptoquarksReco__Dict_8h.html#aa1dbe921fac4efad3dff85c290ea16ff" target="_top" xlink:title="G__cpp_setup_tagtableLeptoquarks\lReco_Dict">
<polygon fill="none" stroke="#000000" points="232,-6.5 232,-38.5 428,-38.5 428,-6.5 232,-6.5"/>
<text text-anchor="start" x="240" y="-25.5" font-family="FreeSans" font-size="10.00" fill="#000000">G__cpp_setup_tagtableLeptoquarks</text>
<text text-anchor="middle" x="330" y="-13.5" font-family="FreeSans" font-size="10.00" fill="#000000">Reco_Dict</text>
</a>
</g>
</g>
<!-- Node1&#45;&gt;Node2 -->
<g id="edge1" class="edge">
<title>Node1&#45;&gt;Node2</title>
<path fill="none" stroke="#191970" d="M206.1193,-22.5C214.7271,-22.5 223.3931,-22.5 231.9264,-22.5"/>
<polygon fill="#191970" stroke="#191970" points="206.0527,-19.0001 196.0526,-22.5 206.0526,-26.0001 206.0527,-19.0001"/>
</g>
<!-- Node3 -->
<g id="node3" class="node">
<title>Node3</title>
<g id="a_node3"><a xlink:href="../../d2/da0/LeptoquarksReco__Dict_8C.html#a8e66bd053337785d44cbb926ff7d34bc" target="_top" xlink:title="G__cpp_setupLeptoquarksReco_Dict">
<polygon fill="none" stroke="#000000" points="464,-12.5 464,-32.5 662,-32.5 662,-12.5 464,-12.5"/>
<text text-anchor="middle" x="563" y="-19.5" font-family="FreeSans" font-size="10.00" fill="#000000">G__cpp_setupLeptoquarksReco_Dict</text>
</a>
</g>
</g>
<!-- Node2&#45;&gt;Node3 -->
<g id="edge2" class="edge">
<title>Node2&#45;&gt;Node3</title>
<path fill="none" stroke="#191970" d="M438.1568,-22.5C446.7249,-22.5 455.3534,-22.5 463.8558,-22.5"/>
<polygon fill="#191970" stroke="#191970" points="438.1377,-19.0001 428.1377,-22.5 438.1376,-26.0001 438.1377,-19.0001"/>
</g>
<!-- Node4 -->
<g id="node4" class="node">
<title>Node4</title>
<g id="a_node4"><a xlink:href="../../db/de5/classG____cpp__setup__initLeptoquarksReco__Dict.html#a46ecc90b5569a81407fba80ec5213956" target="_top" xlink:title="G__cpp_setup_initLeptoquarks\lReco_Dict::G__cpp_setup\l_initLeptoquarksReco_Dict">
<polygon fill="none" stroke="#000000" points="698,-.5 698,-44.5 868,-44.5 868,-.5 698,-.5"/>
<text text-anchor="start" x="706" y="-31.5" font-family="FreeSans" font-size="10.00" fill="#000000">G__cpp_setup_initLeptoquarks</text>
<text text-anchor="start" x="706" y="-19.5" font-family="FreeSans" font-size="10.00" fill="#000000">Reco_Dict::G__cpp_setup</text>
<text text-anchor="middle" x="783" y="-7.5" font-family="FreeSans" font-size="10.00" fill="#000000">_initLeptoquarksReco_Dict</text>
</a>
</g>
</g>
<!-- Node3&#45;&gt;Node4 -->
<g id="edge3" class="edge">
<title>Node3&#45;&gt;Node4</title>
<path fill="none" stroke="#191970" d="M672.1919,-22.5C680.837,-22.5 689.4888,-22.5 697.9336,-22.5"/>
<polygon fill="#191970" stroke="#191970" points="672.0591,-19.0001 662.0591,-22.5 672.059,-26.0001 672.0591,-19.0001"/>
</g>
</g>
</svg>
