<?xml version="1.0" encoding="UTF-8" standalone="no"?>
<!DOCTYPE svg PUBLIC "-//W3C//DTD SVG 1.1//EN"
 "http://www.w3.org/Graphics/SVG/1.1/DTD/svg11.dtd">
<!-- Generated by graphviz version 2.40.1 (20161225.0304)
 -->
<!-- Title: get_gun Pages: 1 -->
<svg width="439pt" height="68pt"
 viewBox="0.00 0.00 439.00 68.00" xmlns="http://www.w3.org/2000/svg" xmlns:xlink="http://www.w3.org/1999/xlink">
<g id="graph0" class="graph" transform="scale(1 1) rotate(0) translate(4 64)">
<title>get_gun</title>
<!-- Node1 -->
<g id="node1" class="node">
<title>Node1</title>
<polygon fill="#bfbfbf" stroke="#000000" points="0,-19.5 0,-39.5 57,-39.5 57,-19.5 0,-19.5"/>
<text text-anchor="middle" x="28.5" y="-26.5" font-family="FreeSans" font-size="10.00" fill="#000000">get_gun</text>
</g>
<!-- Node2 -->
<g id="node2" class="node">
<title>Node2</title>
<g id="a_node2"><a xlink:href="../../da/d29/classFun4AllServer.html#ac6d47a2b3bc98933a03fd63bb75d624a" target="_top" xlink:title="Fun4AllServer::getSubsysReco">
<polygon fill="none" stroke="#000000" points="93,-39.5 93,-59.5 263,-59.5 263,-39.5 93,-39.5"/>
<text text-anchor="middle" x="178" y="-46.5" font-family="FreeSans" font-size="10.00" fill="#000000">Fun4AllServer::getSubsysReco</text>
</a>
</g>
</g>
<!-- Node1&#45;&gt;Node2 -->
<g id="edge1" class="edge">
<title>Node1&#45;&gt;Node2</title>
<path fill="none" stroke="#191970" d="M57.3251,-33.3562C67.7026,-34.7445 80.0082,-36.3907 92.7285,-38.0924"/>
<polygon fill="#191970" stroke="#191970" points="92.6141,-41.6082 102.9899,-39.4652 93.5424,-34.6701 92.6141,-41.6082"/>
</g>
<!-- Node4 -->
<g id="node4" class="node">
<title>Node4</title>
<g id="a_node4"><a xlink:href="../../da/d29/classFun4AllServer.html#a3e55156f91b2c94bb6c4ef33ffce587a" target="_top" xlink:title="Fun4AllServer::instance">
<polygon fill="none" stroke="#000000" points="110,-.5 110,-20.5 246,-20.5 246,-.5 110,-.5"/>
<text text-anchor="middle" x="178" y="-7.5" font-family="FreeSans" font-size="10.00" fill="#000000">Fun4AllServer::instance</text>
</a>
</g>
</g>
<!-- Node1&#45;&gt;Node4 -->
<g id="edge3" class="edge">
<title>Node1&#45;&gt;Node4</title>
<path fill="none" stroke="#191970" d="M57.3251,-25.8366C69.6449,-24.2709 84.6819,-22.3598 99.9044,-20.4252"/>
<polygon fill="#191970" stroke="#191970" points="100.4289,-23.8868 109.9078,-19.1539 99.5463,-16.9426 100.4289,-23.8868"/>
</g>
<!-- Node3 -->
<g id="node3" class="node">
<title>Node3</title>
<g id="a_node3"><a xlink:href="../../d5/dec/classFun4AllBase.html#a8a5c77a92bdac6bc043476e132379a40" target="_top" xlink:title="Gets the verbosity of this module.">
<polygon fill="none" stroke="#000000" points="299,-39.5 299,-59.5 431,-59.5 431,-39.5 299,-39.5"/>
<text text-anchor="middle" x="365" y="-46.5" font-family="FreeSans" font-size="10.00" fill="#000000">Fun4AllBase::Verbosity</text>
</a>
</g>
</g>
<!-- Node2&#45;&gt;Node3 -->
<g id="edge2" class="edge">
<title>Node2&#45;&gt;Node3</title>
<path fill="none" stroke="#191970" d="M263.0187,-49.5C271.5928,-49.5 280.2628,-49.5 288.7371,-49.5"/>
<polygon fill="#191970" stroke="#191970" points="288.9573,-53.0001 298.9572,-49.5 288.9572,-46.0001 288.9573,-53.0001"/>
</g>
</g>
</svg>
