<?xml version="1.0" encoding="UTF-8" standalone="no"?>
<!DOCTYPE svg PUBLIC "-//W3C//DTD SVG 1.1//EN"
 "http://www.w3.org/Graphics/SVG/1.1/DTD/svg11.dtd">
<!-- Generated by graphviz version 2.40.1 (20161225.0304)
 -->
<!-- Title: coresoftware/blob/master/offline/QA/modules Pages: 1 -->
<svg width="141pt" height="296pt"
 viewBox="0.00 0.00 141.00 296.00" xmlns="http://www.w3.org/2000/svg" xmlns:xlink="http://www.w3.org/1999/xlink">
<g id="graph0" class="graph" transform="scale(1 1) rotate(0) translate(4 292)">
<title>coresoftware/blob/master/offline/QA/modules</title>
<g id="clust1" class="cluster">
<title>clusterdir_ce5fc6012d647dc75fd6095e7f48415c</title>
<g id="a_clust1"><a xlink:href="dir_ce5fc6012d647dc75fd6095e7f48415c.html" target="_top" xlink:title="QA">
<polygon fill="#ddddee" stroke="#000000" points="19.5,-208 19.5,-280 95.5,-280 95.5,-208 19.5,-208"/>
<text text-anchor="middle" x="57.5" y="-267" font-family="FreeSans" font-size="10.00" fill="#000000">QA</text>
</a>
</g>
</g>
<!-- dir_ad1098fb58a1fd1bdfea00ddf4bfe056 -->
<g id="node1" class="node">
<title>dir_ad1098fb58a1fd1bdfea00ddf4bfe056</title>
<g id="a_node1"><a xlink:href="dir_ad1098fb58a1fd1bdfea00ddf4bfe056.html" target="_top" xlink:title="modules">
<polygon fill="#eeeeff" stroke="#000000" points="87.5,-252 27.5,-252 27.5,-216 87.5,-216 87.5,-252"/>
<text text-anchor="middle" x="57.5" y="-231" font-family="FreeSans" font-size="10.00" fill="#000000">modules</text>
</a>
</g>
</g>
<!-- dir_f98e1c9080b4906ecba77a4dd5fc7fe9 -->
<g id="node2" class="node">
<title>dir_f98e1c9080b4906ecba77a4dd5fc7fe9</title>
<g id="a_node2"><a xlink:href="dir_f98e1c9080b4906ecba77a4dd5fc7fe9.html" target="_top" xlink:title="framework">
<polygon fill="none" stroke="#ff0000" points="71,-36 0,-36 0,0 71,0 71,-36"/>
<text text-anchor="middle" x="35.5" y="-15" font-family="FreeSans" font-size="10.00" fill="#000000">framework</text>
</a>
</g>
</g>
<!-- dir_ad1098fb58a1fd1bdfea00ddf4bfe056&#45;&gt;dir_f98e1c9080b4906ecba77a4dd5fc7fe9 -->
<g id="edge5" class="edge">
<title>dir_ad1098fb58a1fd1bdfea00ddf4bfe056&#45;&gt;dir_f98e1c9080b4906ecba77a4dd5fc7fe9</title>
<path fill="none" stroke="#000000" d="M38.896,-215.8067C30.2967,-206.0891 21.0063,-193.3872 16.5,-180 1.2561,-134.7139 14.3624,-78.7449 25.0686,-45.8508"/>
<polygon fill="#000000" stroke="#000000" points="28.5046,-46.619 28.4213,-36.0245 21.8796,-44.3585 28.5046,-46.619"/>
<g id="a_edge5&#45;headlabel"><a xlink:href="dir_000247_000202.html" target="_top" xlink:title="21">
<text text-anchor="middle" x="30.031" y="-47.9379" font-family="FreeSans" font-size="10.00" fill="#000000">21</text>
</a>
</g>
</g>
<!-- dir_9a772a1c220e8d6862d681d8ed0f3e46 -->
<g id="node3" class="node">
<title>dir_9a772a1c220e8d6862d681d8ed0f3e46</title>
<g id="a_node3"><a xlink:href="dir_9a772a1c220e8d6862d681d8ed0f3e46.html" target="_top" xlink:title="packages">
<polygon fill="none" stroke="#ff0000" points="89.5,-180 25.5,-180 25.5,-144 89.5,-144 89.5,-180"/>
<text text-anchor="middle" x="57.5" y="-159" font-family="FreeSans" font-size="10.00" fill="#000000">packages</text>
</a>
</g>
</g>
<!-- dir_ad1098fb58a1fd1bdfea00ddf4bfe056&#45;&gt;dir_9a772a1c220e8d6862d681d8ed0f3e46 -->
<g id="edge6" class="edge">
<title>dir_ad1098fb58a1fd1bdfea00ddf4bfe056&#45;&gt;dir_9a772a1c220e8d6862d681d8ed0f3e46</title>
<path fill="none" stroke="#000000" d="M57.5,-215.8314C57.5,-208.131 57.5,-198.9743 57.5,-190.4166"/>
<polygon fill="#000000" stroke="#000000" points="61.0001,-190.4132 57.5,-180.4133 54.0001,-190.4133 61.0001,-190.4132"/>
<g id="a_edge6&#45;headlabel"><a xlink:href="dir_000247_000209.html" target="_top" xlink:title="1">
<text text-anchor="middle" x="63.8393" y="-191.0079" font-family="FreeSans" font-size="10.00" fill="#000000">1</text>
</a>
</g>
</g>
<!-- dir_9a1d80cb35ae1ea11132a6c860cee4ae -->
<g id="node4" class="node">
<title>dir_9a1d80cb35ae1ea11132a6c860cee4ae</title>
<g id="a_node4"><a xlink:href="dir_9a1d80cb35ae1ea11132a6c860cee4ae.html" target="_top" xlink:title="simulation">
<polygon fill="none" stroke="#ff0000" points="133,-108 64,-108 64,-72 133,-72 133,-108"/>
<text text-anchor="middle" x="98.5" y="-87" font-family="FreeSans" font-size="10.00" fill="#000000">simulation</text>
</a>
</g>
</g>
<!-- dir_ad1098fb58a1fd1bdfea00ddf4bfe056&#45;&gt;dir_9a1d80cb35ae1ea11132a6c860cee4ae -->
<g id="edge7" class="edge">
<title>dir_ad1098fb58a1fd1bdfea00ddf4bfe056&#45;&gt;dir_9a1d80cb35ae1ea11132a6c860cee4ae</title>
<path fill="none" stroke="#000000" d="M76.104,-215.8067C84.7033,-206.0891 93.9937,-193.3872 98.5,-180 105.2088,-160.0698 104.8636,-136.2203 103.0271,-118.081"/>
<polygon fill="#000000" stroke="#000000" points="106.499,-117.6369 101.8156,-108.1334 99.5504,-118.4833 106.499,-117.6369"/>
<g id="a_edge7&#45;headlabel"><a xlink:href="dir_000247_000248.html" target="_top" xlink:title="20">
<text text-anchor="middle" x="109.752" y="-117.8619" font-family="FreeSans" font-size="10.00" fill="#000000">20</text>
</a>
</g>
</g>
<!-- dir_9a772a1c220e8d6862d681d8ed0f3e46&#45;&gt;dir_f98e1c9080b4906ecba77a4dd5fc7fe9 -->
<g id="edge1" class="edge">
<title>dir_9a772a1c220e8d6862d681d8ed0f3e46&#45;&gt;dir_f98e1c9080b4906ecba77a4dd5fc7fe9</title>
<path fill="none" stroke="#000000" d="M54.7137,-143.7623C50.9613,-119.201 44.2461,-75.2474 39.8319,-46.3541"/>
<polygon fill="#000000" stroke="#000000" points="43.2339,-45.4463 38.2637,-36.0896 36.3142,-46.5035 43.2339,-45.4463"/>
<g id="a_edge1&#45;headlabel"><a xlink:href="dir_000209_000202.html" target="_top" xlink:title="444">
<text text-anchor="middle" x="46.5834" y="-45.5709" font-family="FreeSans" font-size="10.00" fill="#000000">444</text>
</a>
</g>
</g>
<!-- dir_9a772a1c220e8d6862d681d8ed0f3e46&#45;&gt;dir_9a1d80cb35ae1ea11132a6c860cee4ae -->
<g id="edge2" class="edge">
<title>dir_9a772a1c220e8d6862d681d8ed0f3e46&#45;&gt;dir_9a1d80cb35ae1ea11132a6c860cee4ae</title>
<path fill="none" stroke="#000000" d="M61.8936,-143.8314C65.7279,-135.7079 71.0743,-125.9637 76.5589,-117.0118"/>
<polygon fill="#000000" stroke="#000000" points="79.6158,-118.7274 82.0387,-108.4133 73.7127,-114.9653 79.6158,-118.7274"/>
<g id="a_edge2&#45;headlabel"><a xlink:href="dir_000209_000248.html" target="_top" xlink:title="117">
<text text-anchor="middle" x="80.0784" y="-120.2846" font-family="FreeSans" font-size="10.00" fill="#000000">117</text>
</a>
</g>
</g>
<!-- dir_9a1d80cb35ae1ea11132a6c860cee4ae&#45;&gt;dir_f98e1c9080b4906ecba77a4dd5fc7fe9 -->
<g id="edge3" class="edge">
<title>dir_9a1d80cb35ae1ea11132a6c860cee4ae&#45;&gt;dir_f98e1c9080b4906ecba77a4dd5fc7fe9</title>
<path fill="none" stroke="#000000" d="M82.6024,-71.8314C75.2722,-63.454 66.434,-53.3531 58.4031,-44.1749"/>
<polygon fill="#000000" stroke="#000000" points="60.8307,-41.6343 51.6116,-36.4133 55.5627,-46.2438 60.8307,-41.6343"/>
<g id="a_edge3&#45;headlabel"><a xlink:href="dir_000248_000202.html" target="_top" xlink:title="740">
<text text-anchor="middle" x="65.3345" y="-39.4698" font-family="FreeSans" font-size="10.00" fill="#000000">740</text>
</a>
</g>
</g>
<!-- dir_9a1d80cb35ae1ea11132a6c860cee4ae&#45;&gt;dir_9a772a1c220e8d6862d681d8ed0f3e46 -->
<g id="edge4" class="edge">
<title>dir_9a1d80cb35ae1ea11132a6c860cee4ae&#45;&gt;dir_9a772a1c220e8d6862d681d8ed0f3e46</title>
<path fill="none" stroke="#000000" d="M93.9907,-108.4133C90.1263,-116.569 84.7635,-126.3212 79.2763,-135.257"/>
<polygon fill="#000000" stroke="#000000" points="76.2327,-133.52 73.7984,-143.8314 82.1317,-137.2886 76.2327,-133.52"/>
<g id="a_edge4&#45;headlabel"><a xlink:href="dir_000248_000209.html" target="_top" xlink:title="125">
<text text-anchor="middle" x="75.7753" y="-125.9622" font-family="FreeSans" font-size="10.00" fill="#000000">125</text>
</a>
</g>
</g>
</g>
</svg>
