<?xml version="1.0" encoding="UTF-8" standalone="no"?>
<!DOCTYPE svg PUBLIC "-//W3C//DTD SVG 1.1//EN"
 "http://www.w3.org/Graphics/SVG/1.1/DTD/svg11.dtd">
<!-- Generated by graphviz version 2.40.1 (20161225.0304)
 -->
<!-- Title: coresoftware/blob/master/simulation/g4simulation/g4vertex Pages: 1 -->
<svg width="140pt" height="296pt"
 viewBox="0.00 0.00 140.00 296.00" xmlns="http://www.w3.org/2000/svg" xmlns:xlink="http://www.w3.org/1999/xlink">
<g id="graph0" class="graph" transform="scale(1 1) rotate(0) translate(4 292)">
<title>coresoftware/blob/master/simulation/g4simulation/g4vertex</title>
<g id="clust1" class="cluster">
<title>clusterdir_88b2a4465a73b077093df24027e5e0a6</title>
<g id="a_clust1"><a xlink:href="dir_88b2a4465a73b077093df24027e5e0a6.html" target="_top" xlink:title="g4simulation">
<polygon fill="#ddddee" stroke="#000000" points="42,-208 42,-280 124,-280 124,-208 42,-208"/>
<text text-anchor="middle" x="83" y="-267" font-family="FreeSans" font-size="10.00" fill="#000000">g4simulation</text>
</a>
</g>
</g>
<!-- dir_1724008e94deb08beac80e5a8c068060 -->
<g id="node1" class="node">
<title>dir_1724008e94deb08beac80e5a8c068060</title>
<g id="a_node1"><a xlink:href="dir_1724008e94deb08beac80e5a8c068060.html" target="_top" xlink:title="g4vertex">
<polygon fill="#eeeeff" stroke="#000000" points="113.5,-252 52.5,-252 52.5,-216 113.5,-216 113.5,-252"/>
<text text-anchor="middle" x="83" y="-231" font-family="FreeSans" font-size="10.00" fill="#000000">g4vertex</text>
</a>
</g>
</g>
<!-- dir_38be79c2d71395843a55bb9d4d4d72e9 -->
<g id="node2" class="node">
<title>dir_38be79c2d71395843a55bb9d4d4d72e9</title>
<g id="a_node2"><a xlink:href="dir_38be79c2d71395843a55bb9d4d4d72e9.html" target="_top" xlink:title="g4bbc">
<polygon fill="none" stroke="#000000" points="110,-180 56,-180 56,-144 110,-144 110,-180"/>
<text text-anchor="middle" x="83" y="-159" font-family="FreeSans" font-size="10.00" fill="#000000">g4bbc</text>
</a>
</g>
</g>
<!-- dir_1724008e94deb08beac80e5a8c068060&#45;&gt;dir_38be79c2d71395843a55bb9d4d4d72e9 -->
<g id="edge6" class="edge">
<title>dir_1724008e94deb08beac80e5a8c068060&#45;&gt;dir_38be79c2d71395843a55bb9d4d4d72e9</title>
<path fill="none" stroke="#000000" d="M83,-215.8314C83,-208.131 83,-198.9743 83,-190.4166"/>
<polygon fill="#000000" stroke="#000000" points="86.5001,-190.4132 83,-180.4133 79.5001,-190.4133 86.5001,-190.4132"/>
<g id="a_edge6&#45;headlabel"><a xlink:href="dir_000264_000251.html" target="_top" xlink:title="2">
<text text-anchor="middle" x="89.3393" y="-191.0079" font-family="FreeSans" font-size="10.00" fill="#000000">2</text>
</a>
</g>
</g>
<!-- dir_d7c39552d8b30c84b73c0b1367a66a4d -->
<g id="node3" class="node">
<title>dir_d7c39552d8b30c84b73c0b1367a66a4d</title>
<g id="a_node3"><a xlink:href="dir_d7c39552d8b30c84b73c0b1367a66a4d.html" target="_top" xlink:title="g4main">
<polygon fill="none" stroke="#000000" points="54,-108 0,-108 0,-72 54,-72 54,-108"/>
<text text-anchor="middle" x="27" y="-87" font-family="FreeSans" font-size="10.00" fill="#000000">g4main</text>
</a>
</g>
</g>
<!-- dir_1724008e94deb08beac80e5a8c068060&#45;&gt;dir_d7c39552d8b30c84b73c0b1367a66a4d -->
<g id="edge7" class="edge">
<title>dir_1724008e94deb08beac80e5a8c068060&#45;&gt;dir_d7c39552d8b30c84b73c0b1367a66a4d</title>
<path fill="none" stroke="#000000" d="M68.5303,-215.9844C61.1013,-205.9214 52.4837,-192.8504 47,-180 38.545,-160.1866 33.4523,-136.3311 30.5234,-118.1598"/>
<polygon fill="#000000" stroke="#000000" points="33.9738,-117.567 29.0399,-108.1912 27.0501,-118.5974 33.9738,-117.567"/>
<g id="a_edge7&#45;headlabel"><a xlink:href="dir_000264_000260.html" target="_top" xlink:title="2">
<text text-anchor="middle" x="37.3112" y="-117.7046" font-family="FreeSans" font-size="10.00" fill="#000000">2</text>
</a>
</g>
</g>
<!-- dir_03ca54f9bc43f9507ca0b57e9fa4effa -->
<g id="node4" class="node">
<title>dir_03ca54f9bc43f9507ca0b57e9fa4effa</title>
<g id="a_node4"><a xlink:href="dir_03ca54f9bc43f9507ca0b57e9fa4effa.html" target="_top" xlink:title="offline">
<polygon fill="none" stroke="#ff0000" points="118,-36 64,-36 64,0 118,0 118,-36"/>
<text text-anchor="middle" x="91" y="-15" font-family="FreeSans" font-size="10.00" fill="#000000">offline</text>
</a>
</g>
</g>
<!-- dir_1724008e94deb08beac80e5a8c068060&#45;&gt;dir_03ca54f9bc43f9507ca0b57e9fa4effa -->
<g id="edge8" class="edge">
<title>dir_1724008e94deb08beac80e5a8c068060&#45;&gt;dir_03ca54f9bc43f9507ca0b57e9fa4effa</title>
<path fill="none" stroke="#000000" d="M98.9905,-215.9169C106.6538,-206.0371 115.0166,-193.1563 119,-180 132.9418,-133.9532 116.3843,-78.3096 103.4473,-45.6709"/>
<polygon fill="#000000" stroke="#000000" points="106.6368,-44.2247 99.5863,-36.3164 100.1663,-46.8953 106.6368,-44.2247"/>
<g id="a_edge8&#45;headlabel"><a xlink:href="dir_000264_000196.html" target="_top" xlink:title="25">
<text text-anchor="middle" x="110.6327" y="-43.4642" font-family="FreeSans" font-size="10.00" fill="#000000">25</text>
</a>
</g>
</g>
<!-- dir_38be79c2d71395843a55bb9d4d4d72e9&#45;&gt;dir_d7c39552d8b30c84b73c0b1367a66a4d -->
<g id="edge1" class="edge">
<title>dir_38be79c2d71395843a55bb9d4d4d72e9&#45;&gt;dir_d7c39552d8b30c84b73c0b1367a66a4d</title>
<path fill="none" stroke="#000000" d="M68.8688,-143.8314C62.4189,-135.5386 54.6555,-125.557 47.5748,-116.4533"/>
<polygon fill="#000000" stroke="#000000" points="50.2236,-114.158 41.3214,-108.4133 44.6981,-118.4556 50.2236,-114.158"/>
<g id="a_edge1&#45;headlabel"><a xlink:href="dir_000251_000260.html" target="_top" xlink:title="2">
<text text-anchor="middle" x="54.6716" y="-112.2523" font-family="FreeSans" font-size="10.00" fill="#000000">2</text>
</a>
</g>
</g>
<!-- dir_38be79c2d71395843a55bb9d4d4d72e9&#45;&gt;dir_03ca54f9bc43f9507ca0b57e9fa4effa -->
<g id="edge2" class="edge">
<title>dir_38be79c2d71395843a55bb9d4d4d72e9&#45;&gt;dir_03ca54f9bc43f9507ca0b57e9fa4effa</title>
<path fill="none" stroke="#000000" d="M79.34,-143.7623C78.2447,-119.201 80.4119,-75.2474 83.9274,-46.3541"/>
<polygon fill="#000000" stroke="#000000" points="87.4438,-46.4728 85.3367,-36.0896 80.5089,-45.5205 87.4438,-46.4728"/>
<g id="a_edge2&#45;headlabel"><a xlink:href="dir_000251_000196.html" target="_top" xlink:title="13">
<text text-anchor="middle" x="89.7678" y="-47.4202" font-family="FreeSans" font-size="10.00" fill="#000000">13</text>
</a>
</g>
</g>
<!-- dir_d7c39552d8b30c84b73c0b1367a66a4d&#45;&gt;dir_03ca54f9bc43f9507ca0b57e9fa4effa -->
<g id="edge3" class="edge">
<title>dir_d7c39552d8b30c84b73c0b1367a66a4d&#45;&gt;dir_03ca54f9bc43f9507ca0b57e9fa4effa</title>
<path fill="none" stroke="#000000" d="M37.1975,-71.8314C43.8946,-63.3694 52.7943,-53.1489 61.4724,-43.8971"/>
<polygon fill="#000000" stroke="#000000" points="64.2563,-46.0511 68.6566,-36.4133 59.2065,-41.2034 64.2563,-46.0511"/>
<g id="a_edge3&#45;headlabel"><a xlink:href="dir_000260_000196.html" target="_top" xlink:title="147">
<text text-anchor="middle" x="63.8152" y="-47.6105" font-family="FreeSans" font-size="10.00" fill="#000000">147</text>
</a>
</g>
</g>
<!-- dir_03ca54f9bc43f9507ca0b57e9fa4effa&#45;&gt;dir_38be79c2d71395843a55bb9d4d4d72e9 -->
<g id="edge4" class="edge">
<title>dir_03ca54f9bc43f9507ca0b57e9fa4effa&#45;&gt;dir_38be79c2d71395843a55bb9d4d4d72e9</title>
<path fill="none" stroke="#000000" d="M94.6533,-36.0896C95.7666,-60.6805 93.5848,-104.905 90.0474,-133.8531"/>
<polygon fill="#000000" stroke="#000000" points="86.5797,-133.379 88.6864,-143.7623 93.5146,-134.3316 86.5797,-133.379"/>
<g id="a_edge4&#45;headlabel"><a xlink:href="dir_000196_000251.html" target="_top" xlink:title="6">
<text text-anchor="middle" x="84.2559" y="-126.4315" font-family="FreeSans" font-size="10.00" fill="#000000">6</text>
</a>
</g>
</g>
<!-- dir_03ca54f9bc43f9507ca0b57e9fa4effa&#45;&gt;dir_d7c39552d8b30c84b73c0b1367a66a4d -->
<g id="edge5" class="edge">
<title>dir_03ca54f9bc43f9507ca0b57e9fa4effa&#45;&gt;dir_d7c39552d8b30c84b73c0b1367a66a4d</title>
<path fill="none" stroke="#000000" d="M80.6087,-36.4133C73.8694,-44.9088 64.9509,-55.1366 56.2773,-64.3696"/>
<polygon fill="#000000" stroke="#000000" points="53.5106,-62.1972 49.1023,-71.8314 58.5564,-67.049 53.5106,-62.1972"/>
<g id="a_edge5&#45;headlabel"><a xlink:href="dir_000196_000260.html" target="_top" xlink:title="43">
<text text-anchor="middle" x="53.9555" y="-54.6382" font-family="FreeSans" font-size="10.00" fill="#000000">43</text>
</a>
</g>
</g>
</g>
</svg>
