<?xml version="1.0" encoding="UTF-8" standalone="no"?>
<!DOCTYPE svg PUBLIC "-//W3C//DTD SVG 1.1//EN"
 "http://www.w3.org/Graphics/SVG/1.1/DTD/svg11.dtd">
<!-- Generated by graphviz version 2.40.1 (20161225.0304)
 -->
<!-- Title: Graphical Class Hierarchy Pages: 1 -->
<svg width="409pt" height="299pt"
 viewBox="0.00 0.00 409.00 299.00" xmlns="http://www.w3.org/2000/svg" xmlns:xlink="http://www.w3.org/1999/xlink">
<g id="graph0" class="graph" transform="scale(1 1) rotate(0) translate(4 295)">
<title>Graphical Class Hierarchy</title>
<!-- Node1 -->
<g id="node1" class="node">
<title>Node1</title>
<g id="a_node1"><a xlink:href="d2/d79/classFitNewton_1_1FunctionGradHessian.html" target="_top" xlink:title="FitNewton::FunctionGradHessian">
<polygon fill="none" stroke="#000000" points="0,-123.5 0,-143.5 181,-143.5 181,-123.5 0,-123.5"/>
<text text-anchor="middle" x="90.5" y="-130.5" font-family="FreeSans" font-size="10.00" fill="#000000">FitNewton::FunctionGradHessian</text>
</a>
</g>
</g>
<!-- Node2 -->
<g id="node2" class="node">
<title>Node2</title>
<g id="a_node2"><a xlink:href="df/da1/classFitNewton_1_1ChiSquareGradHessian.html" target="_top" xlink:title="FitNewton::ChiSquareGrad\lHessian">
<polygon fill="none" stroke="#000000" points="234.5,-258.5 234.5,-290.5 383.5,-290.5 383.5,-258.5 234.5,-258.5"/>
<text text-anchor="start" x="242.5" y="-277.5" font-family="FreeSans" font-size="10.00" fill="#000000">FitNewton::ChiSquareGrad</text>
<text text-anchor="middle" x="309" y="-265.5" font-family="FreeSans" font-size="10.00" fill="#000000">Hessian</text>
</a>
</g>
</g>
<!-- Node1&#45;&gt;Node2 -->
<g id="edge1" class="edge">
<title>Node1&#45;&gt;Node2</title>
<path fill="none" stroke="#191970" d="M105.0204,-151.3884C126.7207,-176.9419 170.1081,-223.6553 217,-249.5 223.0881,-252.8555 229.6549,-255.7829 236.3794,-258.3323"/>
<polygon fill="#191970" stroke="#191970" points="107.6122,-149.0314 98.5189,-143.5943 102.2368,-153.5154 107.6122,-149.0314"/>
</g>
<!-- Node3 -->
<g id="node3" class="node">
<title>Node3</title>
<g id="a_node3"><a xlink:href="da/d86/classFitNewton_1_1GaussianGradHessian.html" target="_top" xlink:title="FitNewton::GaussianGradHessian">
<polygon fill="none" stroke="#000000" points="217,-219.5 217,-239.5 401,-239.5 401,-219.5 217,-219.5"/>
<text text-anchor="middle" x="309" y="-226.5" font-family="FreeSans" font-size="10.00" fill="#000000">FitNewton::GaussianGradHessian</text>
</a>
</g>
</g>
<!-- Node1&#45;&gt;Node3 -->
<g id="edge2" class="edge">
<title>Node1&#45;&gt;Node3</title>
<path fill="none" stroke="#191970" d="M111.838,-149.6688C136.0608,-167.2408 177.3723,-194.8913 217,-210.5 226.1047,-214.0862 235.9954,-217.0351 245.8033,-219.4484"/>
<polygon fill="#191970" stroke="#191970" points="113.8495,-146.8035 103.7218,-143.6919 109.6986,-152.44 113.8495,-146.8035"/>
</g>
<!-- Node4 -->
<g id="node4" class="node">
<title>Node4</title>
<g id="a_node4"><a xlink:href="d4/ddd/classFitNewton_1_1GaussianIntegralGradHessian.html" target="_top" xlink:title="FitNewton::GaussianIntegral\lGradHessian">
<polygon fill="none" stroke="#000000" points="230,-168.5 230,-200.5 388,-200.5 388,-168.5 230,-168.5"/>
<text text-anchor="start" x="238" y="-187.5" font-family="FreeSans" font-size="10.00" fill="#000000">FitNewton::GaussianIntegral</text>
<text text-anchor="middle" x="309" y="-175.5" font-family="FreeSans" font-size="10.00" fill="#000000">GradHessian</text>
</a>
</g>
</g>
<!-- Node1&#45;&gt;Node4 -->
<g id="edge3" class="edge">
<title>Node1&#45;&gt;Node4</title>
<path fill="none" stroke="#191970" d="M143.3909,-145.8452C172.5421,-152.6494 209.0656,-161.1743 240.3905,-168.4859"/>
<polygon fill="#191970" stroke="#191970" points="143.9417,-142.3798 133.4079,-143.5151 142.3505,-149.1966 143.9417,-142.3798"/>
</g>
<!-- Node5 -->
<g id="node5" class="node">
<title>Node5</title>
<g id="a_node5"><a xlink:href="df/d8b/classFitNewton_1_1GaussianRegGradHessian.html" target="_top" xlink:title="FitNewton::GaussianRegGrad\lHessian">
<polygon fill="none" stroke="#000000" points="227.5,-117.5 227.5,-149.5 390.5,-149.5 390.5,-117.5 227.5,-117.5"/>
<text text-anchor="start" x="235.5" y="-136.5" font-family="FreeSans" font-size="10.00" fill="#000000">FitNewton::GaussianRegGrad</text>
<text text-anchor="middle" x="309" y="-124.5" font-family="FreeSans" font-size="10.00" fill="#000000">Hessian</text>
</a>
</g>
</g>
<!-- Node1&#45;&gt;Node5 -->
<g id="edge4" class="edge">
<title>Node1&#45;&gt;Node5</title>
<path fill="none" stroke="#191970" d="M191.3265,-133.5C203.3577,-133.5 215.5259,-133.5 227.2429,-133.5"/>
<polygon fill="#191970" stroke="#191970" points="191.2655,-130.0001 181.2654,-133.5 191.2654,-137.0001 191.2655,-130.0001"/>
</g>
<!-- Node6 -->
<g id="node6" class="node">
<title>Node6</title>
<g id="a_node6"><a xlink:href="da/d99/classFitNewton_1_1SquareGradient.html" target="_top" xlink:title="FitNewton::SquareGradient">
<polygon fill="none" stroke="#000000" points="232.5,-78.5 232.5,-98.5 385.5,-98.5 385.5,-78.5 232.5,-78.5"/>
<text text-anchor="middle" x="309" y="-85.5" font-family="FreeSans" font-size="10.00" fill="#000000">FitNewton::SquareGradient</text>
</a>
</g>
</g>
<!-- Node1&#45;&gt;Node6 -->
<g id="edge5" class="edge">
<title>Node1&#45;&gt;Node6</title>
<path fill="none" stroke="#191970" d="M149.2859,-121.3931C184.055,-114.2324 227.5633,-105.2719 260.3853,-98.5122"/>
<polygon fill="#191970" stroke="#191970" points="148.3521,-118.0118 139.2637,-123.4571 149.7642,-124.8679 148.3521,-118.0118"/>
</g>
<!-- Node7 -->
<g id="node7" class="node">
<title>Node7</title>
<g id="a_node7"><a xlink:href="d6/dd9/classHelixDCAFunc.html" target="_top" xlink:title="HelixDCAFunc">
<polygon fill="none" stroke="#000000" points="265.5,-39.5 265.5,-59.5 352.5,-59.5 352.5,-39.5 265.5,-39.5"/>
<text text-anchor="middle" x="309" y="-46.5" font-family="FreeSans" font-size="10.00" fill="#000000">HelixDCAFunc</text>
</a>
</g>
</g>
<!-- Node1&#45;&gt;Node7 -->
<g id="edge6" class="edge">
<title>Node1&#45;&gt;Node7</title>
<path fill="none" stroke="#191970" d="M115.8878,-118.2202C140.8388,-103.7979 180.3922,-82.4998 217,-69.5 232.4029,-64.0303 249.8104,-59.782 265.3061,-56.6356"/>
<polygon fill="#191970" stroke="#191970" points="113.9376,-115.3061 107.0766,-123.3793 117.4746,-121.3468 113.9376,-115.3061"/>
</g>
<!-- Node8 -->
<g id="node8" class="node">
<title>Node8</title>
<g id="a_node8"><a xlink:href="d8/d29/classVertexFitFunc.html" target="_top" xlink:title="VertexFitFunc">
<polygon fill="none" stroke="#000000" points="266.5,-.5 266.5,-20.5 351.5,-20.5 351.5,-.5 266.5,-.5"/>
<text text-anchor="middle" x="309" y="-7.5" font-family="FreeSans" font-size="10.00" fill="#000000">VertexFitFunc</text>
</a>
</g>
</g>
<!-- Node1&#45;&gt;Node8 -->
<g id="edge7" class="edge">
<title>Node1&#45;&gt;Node8</title>
<path fill="none" stroke="#191970" d="M106.597,-116.0338C129.031,-92.8006 172.0323,-52.1503 217,-30.5 232.3163,-23.1257 250.3717,-18.4423 266.4129,-15.4804"/>
<polygon fill="#191970" stroke="#191970" points="103.891,-113.8009 99.55,-123.4656 108.9705,-118.6174 103.891,-113.8009"/>
</g>
</g>
</svg>
