<?xml version="1.0" encoding="UTF-8" standalone="no"?>
<!DOCTYPE svg PUBLIC "-//W3C//DTD SVG 1.1//EN"
 "http://www.w3.org/Graphics/SVG/1.1/DTD/svg11.dtd">
<!-- Generated by graphviz version 2.40.1 (20161225.0304)
 -->
<!-- Title: PHRandomSeed::Verbosity Pages: 1 -->
<svg width="334pt" height="107pt"
 viewBox="0.00 0.00 334.00 107.00" xmlns="http://www.w3.org/2000/svg" xmlns:xlink="http://www.w3.org/1999/xlink">
<g id="graph0" class="graph" transform="scale(1 1) rotate(0) translate(4 103)">
<title>PHRandomSeed::Verbosity</title>
<!-- Node1 -->
<g id="node1" class="node">
<title>Node1</title>
<polygon fill="#bfbfbf" stroke="#000000" points="0,-39.5 0,-59.5 151,-59.5 151,-39.5 0,-39.5"/>
<text text-anchor="middle" x="75.5" y="-46.5" font-family="FreeSans" font-size="10.00" fill="#000000">PHRandomSeed::Verbosity</text>
</g>
<!-- Node2 -->
<g id="node2" class="node">
<title>Node2</title>
<g id="a_node2"><a xlink:href="../../db/dc0/Fun4All__AnaTutorial_8C.html#a8c484ea6d7477278e981ef056b17eac9" target="_top" xlink:title="Fun4All_AnaTutorial">
<polygon fill="none" stroke="#000000" points="199,-78.5 199,-98.5 314,-98.5 314,-78.5 199,-78.5"/>
<text text-anchor="middle" x="256.5" y="-85.5" font-family="FreeSans" font-size="10.00" fill="#000000">Fun4All_AnaTutorial</text>
</a>
</g>
</g>
<!-- Node1&#45;&gt;Node2 -->
<g id="edge1" class="edge">
<title>Node1&#45;&gt;Node2</title>
<path fill="none" stroke="#191970" d="M132.2078,-61.7188C157.2479,-67.1142 186.3181,-73.3779 210.046,-78.4906"/>
<polygon fill="#191970" stroke="#191970" points="132.6249,-58.2284 122.112,-59.5435 131.1504,-65.0714 132.6249,-58.2284"/>
</g>
<!-- Node3 -->
<g id="node3" class="node">
<title>Node3</title>
<g id="a_node3"><a xlink:href="../../dd/d28/Fun4All__AnaTutorial__Jets_8C.html#a55eaaeb770a3177f917012de87877d28" target="_top" xlink:title="Fun4All_AnaTutorial_Jets">
<polygon fill="none" stroke="#000000" points="187,-39.5 187,-59.5 326,-59.5 326,-39.5 187,-39.5"/>
<text text-anchor="middle" x="256.5" y="-46.5" font-family="FreeSans" font-size="10.00" fill="#000000">Fun4All_AnaTutorial_Jets</text>
</a>
</g>
</g>
<!-- Node1&#45;&gt;Node3 -->
<g id="edge2" class="edge">
<title>Node1&#45;&gt;Node3</title>
<path fill="none" stroke="#191970" d="M161.2468,-49.5C169.8336,-49.5 178.4777,-49.5 186.8685,-49.5"/>
<polygon fill="#191970" stroke="#191970" points="161.2116,-46.0001 151.2116,-49.5 161.2115,-53.0001 161.2116,-46.0001"/>
</g>
<!-- Node4 -->
<g id="node4" class="node">
<title>Node4</title>
<g id="a_node4"><a xlink:href="../../d5/d2c/macros_2blob_2master_2macros_2g4simulations_2Fun4All__G4__sPHENIX_8C.html#a6eaaa492d7023ec86c562dc63aa1e5a4" target="_top" xlink:title="Fun4All_G4_sPHENIX">
<polygon fill="none" stroke="#000000" points="196,-.5 196,-20.5 317,-20.5 317,-.5 196,-.5"/>
<text text-anchor="middle" x="256.5" y="-7.5" font-family="FreeSans" font-size="10.00" fill="#000000">Fun4All_G4_sPHENIX</text>
</a>
</g>
</g>
<!-- Node1&#45;&gt;Node4 -->
<g id="edge3" class="edge">
<title>Node1&#45;&gt;Node4</title>
<path fill="none" stroke="#191970" d="M132.2078,-37.2812C157.2479,-31.8858 186.3181,-25.6221 210.046,-20.5094"/>
<polygon fill="#191970" stroke="#191970" points="131.1504,-33.9286 122.112,-39.4565 132.6249,-40.7716 131.1504,-33.9286"/>
</g>
</g>
</svg>
