<?xml version="1.0" encoding="UTF-8" standalone="no"?>
<!DOCTYPE svg PUBLIC "-//W3C//DTD SVG 1.1//EN"
 "http://www.w3.org/Graphics/SVG/1.1/DTD/svg11.dtd">
<!-- Generated by graphviz version 2.40.1 (20161225.0304)
 -->
<!-- Title: HepMCFlowAfterBurner Pages: 1 -->
<svg width="185pt" height="307pt"
 viewBox="0.00 0.00 185.00 307.00" xmlns="http://www.w3.org/2000/svg" xmlns:xlink="http://www.w3.org/1999/xlink">
<g id="graph0" class="graph" transform="scale(1 1) rotate(0) translate(4 303)">
<title>HepMCFlowAfterBurner</title>
<!-- Node1 -->
<g id="node1" class="node">
<title>Node1</title>
<polygon fill="#bfbfbf" stroke="#000000" points="0,-.5 0,-20.5 134,-20.5 134,-.5 0,-.5"/>
<text text-anchor="middle" x="67" y="-7.5" font-family="FreeSans" font-size="10.00" fill="#000000">HepMCFlowAfterBurner</text>
</g>
<!-- Node2 -->
<g id="node2" class="node">
<title>Node2</title>
<g id="a_node2"><a xlink:href="../../d0/d32/classSubsysReco.html" target="_top" xlink:title="SubsysReco">
<polygon fill="none" stroke="#000000" points="99,-58.5 99,-78.5 175,-78.5 175,-58.5 99,-58.5"/>
<text text-anchor="middle" x="137" y="-65.5" font-family="FreeSans" font-size="10.00" fill="#000000">SubsysReco</text>
</a>
</g>
</g>
<!-- Node2&#45;&gt;Node1 -->
<g id="edge1" class="edge">
<title>Node2&#45;&gt;Node1</title>
<path fill="none" stroke="#191970" d="M117.0133,-51.9396C104.9438,-41.9391 89.9354,-29.5036 79.5247,-20.8776"/>
<polygon fill="#191970" stroke="#191970" points="114.8736,-54.712 124.8069,-58.3972 119.3398,-49.3219 114.8736,-54.712"/>
</g>
<!-- Node3 -->
<g id="node3" class="node">
<title>Node3</title>
<g id="a_node3"><a xlink:href="../../d5/dec/classFun4AllBase.html" target="_top" xlink:title="Fun4AllBase">
<polygon fill="none" stroke="#000000" points="98,-139.5 98,-159.5 176,-159.5 176,-139.5 98,-139.5"/>
<text text-anchor="middle" x="137" y="-146.5" font-family="FreeSans" font-size="10.00" fill="#000000">Fun4AllBase</text>
</a>
</g>
</g>
<!-- Node3&#45;&gt;Node2 -->
<g id="edge2" class="edge">
<title>Node3&#45;&gt;Node2</title>
<path fill="none" stroke="#191970" d="M138.593,-129.3078C138.7616,-126.5185 138.9058,-123.6892 139,-121 139.3736,-110.3399 139.3736,-107.6601 139,-97 138.7846,-90.8533 138.3086,-83.9745 137.875,-78.5151"/>
<polygon fill="#191970" stroke="#191970" points="135.0875,-129.2634 137.875,-139.4849 142.0702,-129.7561 135.0875,-129.2634"/>
</g>
<!-- Node4 -->
<g id="node4" class="node">
<title>Node4</title>
<g id="a_node4"><a xlink:title="STL class.">
<polygon fill="none" stroke="#bfbfbf" points="37.5,-208.5 37.5,-228.5 104.5,-228.5 104.5,-208.5 37.5,-208.5"/>
<text text-anchor="middle" x="71" y="-215.5" font-family="FreeSans" font-size="10.00" fill="#000000">std::string</text>
</a>
</g>
</g>
<!-- Node4&#45;&gt;Node1 -->
<g id="edge5" class="edge">
<title>Node4&#45;&gt;Node1</title>
<path fill="none" stroke="#9a32cd" stroke-dasharray="5,2" d="M64.9506,-198.807C58.2842,-174.8596 48.8884,-133.1549 52,-97 54.4047,-69.059 61.1017,-36.5971 64.6785,-20.5475"/>
<polygon fill="#9a32cd" stroke="#9a32cd" points="61.6101,-199.8542 67.7668,-208.4766 68.3309,-197.8968 61.6101,-199.8542"/>
<text text-anchor="middle" x="93.5" y="-112" font-family="FreeSans" font-size="10.00" fill="#000000"> algorithmName</text>
<text text-anchor="middle" x="93.5" y="-100" font-family="FreeSans" font-size="10.00" fill="#000000">config_filename</text>
</g>
<!-- Node4&#45;&gt;Node3 -->
<g id="edge3" class="edge">
<title>Node4&#45;&gt;Node3</title>
<path fill="none" stroke="#9a32cd" stroke-dasharray="5,2" d="M87.8813,-200.8514C100.3438,-187.8224 116.8719,-170.543 127.2215,-159.723"/>
<polygon fill="#9a32cd" stroke="#9a32cd" points="85.1215,-198.6731 80.7385,-208.3188 90.18,-203.5117 85.1215,-198.6731"/>
<text text-anchor="middle" x="142" y="-181" font-family="FreeSans" font-size="10.00" fill="#000000"> m_ThisName</text>
</g>
<!-- Node5 -->
<g id="node5" class="node">
<title>Node5</title>
<g id="a_node5"><a xlink:title="STL class.">
<polygon fill="none" stroke="#bfbfbf" points="17.5,-266.5 17.5,-298.5 124.5,-298.5 124.5,-266.5 17.5,-266.5"/>
<text text-anchor="start" x="25.5" y="-285.5" font-family="FreeSans" font-size="10.00" fill="#000000">std::basic_string&lt;</text>
<text text-anchor="middle" x="71" y="-273.5" font-family="FreeSans" font-size="10.00" fill="#000000"> char &gt;</text>
</a>
</g>
</g>
<!-- Node5&#45;&gt;Node4 -->
<g id="edge4" class="edge">
<title>Node5&#45;&gt;Node4</title>
<path fill="none" stroke="#191970" d="M71,-256.2639C71,-246.5394 71,-236.0805 71,-228.641"/>
<polygon fill="#191970" stroke="#191970" points="67.5001,-256.3501 71,-266.3501 74.5001,-256.3501 67.5001,-256.3501"/>
</g>
</g>
</svg>
