<?xml version="1.0" encoding="UTF-8" standalone="no"?>
<!DOCTYPE svg PUBLIC "-//W3C//DTD SVG 1.1//EN"
 "http://www.w3.org/Graphics/SVG/1.1/DTD/svg11.dtd">
<!-- Generated by graphviz version 2.40.1 (20161225.0304)
 -->
<!-- Title: PHG4ForwardEcalDetector::ConstructTowerType2 Pages: 1 -->
<svg width="369pt" height="170pt"
 viewBox="0.00 0.00 369.00 170.00" xmlns="http://www.w3.org/2000/svg" xmlns:xlink="http://www.w3.org/1999/xlink">
<g id="graph0" class="graph" transform="scale(1 1) rotate(0) translate(4 166)">
<title>PHG4ForwardEcalDetector::ConstructTowerType2</title>
<!-- Node1 -->
<g id="node1" class="node">
<title>Node1</title>
<polygon fill="#bfbfbf" stroke="#000000" points="0,-55.5 0,-87.5 150,-87.5 150,-55.5 0,-55.5"/>
<text text-anchor="start" x="8" y="-74.5" font-family="FreeSans" font-size="10.00" fill="#000000">PHG4ForwardEcalDetector</text>
<text text-anchor="middle" x="75" y="-62.5" font-family="FreeSans" font-size="10.00" fill="#000000">::ConstructTowerType2</text>
</g>
<!-- Node2 -->
<g id="node2" class="node">
<title>Node2</title>
<g id="a_node2"><a xlink:href="../../de/d3a/classPHG4ForwardEcalDisplayAction.html#aa4751c478f1cd54e122ef12a9e42b9a7" target="_top" xlink:title="PHG4ForwardEcalDisplayAction\l::AddVolume">
<polygon fill="none" stroke="#000000" points="186,-129.5 186,-161.5 361,-161.5 361,-129.5 186,-129.5"/>
<text text-anchor="start" x="194" y="-148.5" font-family="FreeSans" font-size="10.00" fill="#000000">PHG4ForwardEcalDisplayAction</text>
<text text-anchor="middle" x="273.5" y="-136.5" font-family="FreeSans" font-size="10.00" fill="#000000">::AddVolume</text>
</a>
</g>
</g>
<!-- Node1&#45;&gt;Node2 -->
<g id="edge1" class="edge">
<title>Node1&#45;&gt;Node2</title>
<path fill="none" stroke="#191970" d="M108.0285,-87.5105C129.8517,-97.7312 159.2573,-110.8288 186,-120.5 191.5204,-122.4964 197.2815,-124.4399 203.0973,-126.3038"/>
<polygon fill="#191970" stroke="#191970" points="202.315,-129.726 212.9036,-129.3609 204.3984,-123.0432 202.315,-129.726"/>
</g>
<!-- Node3 -->
<g id="node3" class="node">
<title>Node3</title>
<g id="a_node3"><a xlink:href="../../d8/d23/classPHG4ForwardEcalDetector.html#aed358171be49edad4381ed33d86a0b54" target="_top" xlink:title="PHG4ForwardEcalDetector\l::GetDisplayAction">
<polygon fill="none" stroke="#000000" points="198.5,-78.5 198.5,-110.5 348.5,-110.5 348.5,-78.5 198.5,-78.5"/>
<text text-anchor="start" x="206.5" y="-97.5" font-family="FreeSans" font-size="10.00" fill="#000000">PHG4ForwardEcalDetector</text>
<text text-anchor="middle" x="273.5" y="-85.5" font-family="FreeSans" font-size="10.00" fill="#000000">::GetDisplayAction</text>
</a>
</g>
</g>
<!-- Node1&#45;&gt;Node3 -->
<g id="edge2" class="edge">
<title>Node1&#45;&gt;Node3</title>
<path fill="none" stroke="#191970" d="M150.0443,-80.1953C162.5191,-81.6407 175.5371,-83.1491 188.243,-84.6214"/>
<polygon fill="#191970" stroke="#191970" points="188.0131,-88.1181 198.3495,-85.7924 188.8189,-81.1646 188.0131,-88.1181"/>
</g>
<!-- Node4 -->
<g id="node4" class="node">
<title>Node4</title>
<g id="a_node4"><a xlink:href="../../d3/de7/classPHG4Detector.html#a0be0f337e0bb4ef7d0754552ee7ba251" target="_top" xlink:title="PHG4Detector::OverlapCheck">
<polygon fill="none" stroke="#000000" points="190.5,-39.5 190.5,-59.5 356.5,-59.5 356.5,-39.5 190.5,-39.5"/>
<text text-anchor="middle" x="273.5" y="-46.5" font-family="FreeSans" font-size="10.00" fill="#000000">PHG4Detector::OverlapCheck</text>
</a>
</g>
</g>
<!-- Node1&#45;&gt;Node4 -->
<g id="edge3" class="edge">
<title>Node1&#45;&gt;Node4</title>
<path fill="none" stroke="#191970" d="M150.0443,-63.1827C159.9253,-62.0876 170.1472,-60.9547 180.2847,-59.8312"/>
<polygon fill="#191970" stroke="#191970" points="180.8249,-63.2928 190.3785,-58.7125 180.0538,-56.3354 180.8249,-63.2928"/>
</g>
<!-- Node5 -->
<g id="node5" class="node">
<title>Node5</title>
<g id="a_node5"><a xlink:href="../../d3/de7/classPHG4Detector.html#af5eefc46de6e61b788946ca0d0a7427c" target="_top" xlink:title="PHG4Detector::Verbosity">
<polygon fill="none" stroke="#000000" points="202.5,-.5 202.5,-20.5 344.5,-20.5 344.5,-.5 202.5,-.5"/>
<text text-anchor="middle" x="273.5" y="-7.5" font-family="FreeSans" font-size="10.00" fill="#000000">PHG4Detector::Verbosity</text>
</a>
</g>
</g>
<!-- Node1&#45;&gt;Node5 -->
<g id="edge4" class="edge">
<title>Node1&#45;&gt;Node5</title>
<path fill="none" stroke="#191970" d="M114.6546,-55.436C135.6429,-47.2959 161.9783,-37.6492 186,-30.5 195.2004,-27.7618 205.0395,-25.1833 214.6773,-22.8463"/>
<polygon fill="#191970" stroke="#191970" points="215.6839,-26.2049 224.6127,-20.5016 214.0761,-19.3921 215.6839,-26.2049"/>
</g>
</g>
</svg>
