<?xml version="1.0" encoding="UTF-8" standalone="no"?>
<!DOCTYPE svg PUBLIC "-//W3C//DTD SVG 1.1//EN"
 "http://www.w3.org/Graphics/SVG/1.1/DTD/svg11.dtd">
<!-- Generated by graphviz version 2.40.1 (20161225.0304)
 -->
<!-- Title: TrkrCluster::getError Pages: 1 -->
<svg width="505pt" height="245pt"
 viewBox="0.00 0.00 505.00 245.00" xmlns="http://www.w3.org/2000/svg" xmlns:xlink="http://www.w3.org/1999/xlink">
<g id="graph0" class="graph" transform="scale(1 1) rotate(0) translate(4 241)">
<title>TrkrCluster::getError</title>
<!-- Node1 -->
<g id="node1" class="node">
<title>Node1</title>
<polygon fill="#bfbfbf" stroke="#000000" points="0,-108.5 0,-128.5 120,-128.5 120,-108.5 0,-108.5"/>
<text text-anchor="middle" x="60" y="-115.5" font-family="FreeSans" font-size="10.00" fill="#000000">TrkrCluster::getError</text>
</g>
<!-- Node2 -->
<g id="node2" class="node">
<title>Node2</title>
<g id="a_node2"><a xlink:href="../../d2/d93/classTrkrEvaluator.html#a753a5ea1a91f097f5c226f5b1620db3f" target="_top" xlink:title="dump the evaluator information into ntuple for external analysis">
<polygon fill="none" stroke="#000000" points="164.5,-204.5 164.5,-236.5 303.5,-236.5 303.5,-204.5 164.5,-204.5"/>
<text text-anchor="start" x="172.5" y="-223.5" font-family="FreeSans" font-size="10.00" fill="#000000">TrkrEvaluator::fillOutput</text>
<text text-anchor="middle" x="234" y="-211.5" font-family="FreeSans" font-size="10.00" fill="#000000">Ntuples</text>
</a>
</g>
</g>
<!-- Node1&#45;&gt;Node2 -->
<g id="edge1" class="edge">
<title>Node1&#45;&gt;Node2</title>
<path fill="none" stroke="#191970" d="M77.5246,-135.898C95.7547,-153.146 125.8067,-179.2752 156,-195.5 162.1379,-198.7983 168.7837,-201.7498 175.5182,-204.3665"/>
<polygon fill="#191970" stroke="#191970" points="79.651,-133.0864 70.0224,-128.6657 74.7926,-138.1259 79.651,-133.0864"/>
</g>
<!-- Node4 -->
<g id="node4" class="node">
<title>Node4</title>
<g id="a_node4"><a xlink:href="../../d6/d11/classSvtxEvaluator.html#ace95fef2b7b4ad8b797f6695e053dd6e" target="_top" xlink:title="dump the evaluator information into ntuple for external analysis">
<polygon fill="none" stroke="#000000" points="163.5,-153.5 163.5,-185.5 304.5,-185.5 304.5,-153.5 163.5,-153.5"/>
<text text-anchor="start" x="171.5" y="-172.5" font-family="FreeSans" font-size="10.00" fill="#000000">SvtxEvaluator::fillOutput</text>
<text text-anchor="middle" x="234" y="-160.5" font-family="FreeSans" font-size="10.00" fill="#000000">Ntuples</text>
</a>
</g>
</g>
<!-- Node1&#45;&gt;Node4 -->
<g id="edge3" class="edge">
<title>Node1&#45;&gt;Node4</title>
<path fill="none" stroke="#191970" d="M104.1253,-131.4333C126.9256,-138.1161 154.9642,-146.3343 179.1468,-153.4223"/>
<polygon fill="#191970" stroke="#191970" points="104.9576,-128.03 94.3768,-128.576 102.9886,-134.7474 104.9576,-128.03"/>
</g>
<!-- Node6 -->
<g id="node6" class="node">
<title>Node6</title>
<g id="a_node6"><a xlink:href="../../d2/d8f/classPHInitZVertexing.html#aefdd3d35e9f530093d9dc58a457b1e79" target="_top" xlink:title="PHInitZVertexing::translate\l_input">
<polygon fill="none" stroke="#000000" points="157.5,-102.5 157.5,-134.5 310.5,-134.5 310.5,-102.5 157.5,-102.5"/>
<text text-anchor="start" x="165.5" y="-121.5" font-family="FreeSans" font-size="10.00" fill="#000000">PHInitZVertexing::translate</text>
<text text-anchor="middle" x="234" y="-109.5" font-family="FreeSans" font-size="10.00" fill="#000000">_input</text>
</a>
</g>
</g>
<!-- Node1&#45;&gt;Node6 -->
<g id="edge5" class="edge">
<title>Node1&#45;&gt;Node6</title>
<path fill="none" stroke="#191970" d="M130.626,-118.5C139.4753,-118.5 148.5591,-118.5 157.4931,-118.5"/>
<polygon fill="#191970" stroke="#191970" points="130.3685,-115.0001 120.3684,-118.5 130.3684,-122.0001 130.3685,-115.0001"/>
</g>
<!-- Node8 -->
<g id="node8" class="node">
<title>Node8</title>
<g id="a_node8"><a xlink:href="../../d1/d97/classPHPatternReco.html#aceb09e501b427d8fbce29e7790bd19d4" target="_top" xlink:title="PHPatternReco::translate\l_input">
<polygon fill="none" stroke="#000000" points="163,-51.5 163,-83.5 305,-83.5 305,-51.5 163,-51.5"/>
<text text-anchor="start" x="171" y="-70.5" font-family="FreeSans" font-size="10.00" fill="#000000">PHPatternReco::translate</text>
<text text-anchor="middle" x="234" y="-58.5" font-family="FreeSans" font-size="10.00" fill="#000000">_input</text>
</a>
</g>
</g>
<!-- Node1&#45;&gt;Node8 -->
<g id="edge7" class="edge">
<title>Node1&#45;&gt;Node8</title>
<path fill="none" stroke="#191970" d="M104.1253,-105.5667C126.9256,-98.8839 154.9642,-90.6657 179.1468,-83.5777"/>
<polygon fill="#191970" stroke="#191970" points="102.9886,-102.2526 94.3768,-108.424 104.9576,-108.97 102.9886,-102.2526"/>
</g>
<!-- Node10 -->
<g id="node10" class="node">
<title>Node10</title>
<g id="a_node10"><a xlink:href="../../d8/dd4/classPHHoughSeeding.html#a4204cf7d0291bbdbfd0d299e8435512e" target="_top" xlink:title="fetch node pointers">
<polygon fill="none" stroke="#000000" points="156,-.5 156,-32.5 312,-32.5 312,-.5 156,-.5"/>
<text text-anchor="start" x="164" y="-19.5" font-family="FreeSans" font-size="10.00" fill="#000000">PHHoughSeeding::translate</text>
<text text-anchor="middle" x="234" y="-7.5" font-family="FreeSans" font-size="10.00" fill="#000000">_input</text>
</a>
</g>
</g>
<!-- Node1&#45;&gt;Node10 -->
<g id="edge9" class="edge">
<title>Node1&#45;&gt;Node10</title>
<path fill="none" stroke="#191970" d="M77.9038,-101.1387C96.2257,-84.1804 126.1639,-58.6331 156,-42.5 162.9059,-38.7658 170.4447,-35.4361 178.0257,-32.5093"/>
<polygon fill="#191970" stroke="#191970" points="75.2228,-98.8559 70.3452,-108.2613 80.0234,-103.9505 75.2228,-98.8559"/>
</g>
<!-- Node3 -->
<g id="node3" class="node">
<title>Node3</title>
<g id="a_node3"><a xlink:href="../../d2/d93/classTrkrEvaluator.html#af1cb893f5a8aebc803c2bb55dd582e5a" target="_top" xlink:title="TrkrEvaluator::process\l_event">
<polygon fill="none" stroke="#000000" points="357.5,-204.5 357.5,-236.5 487.5,-236.5 487.5,-204.5 357.5,-204.5"/>
<text text-anchor="start" x="365.5" y="-223.5" font-family="FreeSans" font-size="10.00" fill="#000000">TrkrEvaluator::process</text>
<text text-anchor="middle" x="422.5" y="-211.5" font-family="FreeSans" font-size="10.00" fill="#000000">_event</text>
</a>
</g>
</g>
<!-- Node2&#45;&gt;Node3 -->
<g id="edge2" class="edge">
<title>Node2&#45;&gt;Node3</title>
<path fill="none" stroke="#191970" d="M314.0368,-220.5C328.4317,-220.5 343.2794,-220.5 357.1948,-220.5"/>
<polygon fill="#191970" stroke="#191970" points="313.6549,-217.0001 303.6549,-220.5 313.6549,-224.0001 313.6549,-217.0001"/>
</g>
<!-- Node5 -->
<g id="node5" class="node">
<title>Node5</title>
<g id="a_node5"><a xlink:href="../../d6/d11/classSvtxEvaluator.html#ac66ea4145deb621d9e4fb38cf852dc33" target="_top" xlink:title="SvtxEvaluator::process\l_event">
<polygon fill="none" stroke="#000000" points="356.5,-153.5 356.5,-185.5 488.5,-185.5 488.5,-153.5 356.5,-153.5"/>
<text text-anchor="start" x="364.5" y="-172.5" font-family="FreeSans" font-size="10.00" fill="#000000">SvtxEvaluator::process</text>
<text text-anchor="middle" x="422.5" y="-160.5" font-family="FreeSans" font-size="10.00" fill="#000000">_event</text>
</a>
</g>
</g>
<!-- Node4&#45;&gt;Node5 -->
<g id="edge4" class="edge">
<title>Node4&#45;&gt;Node5</title>
<path fill="none" stroke="#191970" d="M314.749,-169.5C328.6342,-169.5 342.9186,-169.5 356.3629,-169.5"/>
<polygon fill="#191970" stroke="#191970" points="314.7268,-166.0001 304.7267,-169.5 314.7267,-173.0001 314.7268,-166.0001"/>
</g>
<!-- Node7 -->
<g id="node7" class="node">
<title>Node7</title>
<g id="a_node7"><a xlink:href="../../d2/d8f/classPHInitZVertexing.html#a50743230c0f324a28d4410227a526ec8" target="_top" xlink:title="PHInitZVertexing::Process">
<polygon fill="none" stroke="#000000" points="349.5,-108.5 349.5,-128.5 495.5,-128.5 495.5,-108.5 349.5,-108.5"/>
<text text-anchor="middle" x="422.5" y="-115.5" font-family="FreeSans" font-size="10.00" fill="#000000">PHInitZVertexing::Process</text>
</a>
</g>
</g>
<!-- Node6&#45;&gt;Node7 -->
<g id="edge6" class="edge">
<title>Node6&#45;&gt;Node7</title>
<path fill="none" stroke="#191970" d="M320.8989,-118.5C330.3784,-118.5 339.9576,-118.5 349.25,-118.5"/>
<polygon fill="#191970" stroke="#191970" points="320.6702,-115.0001 310.6702,-118.5 320.6701,-122.0001 320.6702,-115.0001"/>
</g>
<!-- Node9 -->
<g id="node9" class="node">
<title>Node9</title>
<g id="a_node9"><a xlink:href="../../d1/d97/classPHPatternReco.html#ac97e2c1e8d98ea16a11d44c134ad0299" target="_top" xlink:title="PHPatternReco::process\l_event">
<polygon fill="none" stroke="#000000" points="354.5,-51.5 354.5,-83.5 490.5,-83.5 490.5,-51.5 354.5,-51.5"/>
<text text-anchor="start" x="362.5" y="-70.5" font-family="FreeSans" font-size="10.00" fill="#000000">PHPatternReco::process</text>
<text text-anchor="middle" x="422.5" y="-58.5" font-family="FreeSans" font-size="10.00" fill="#000000">_event</text>
</a>
</g>
</g>
<!-- Node8&#45;&gt;Node9 -->
<g id="edge8" class="edge">
<title>Node8&#45;&gt;Node9</title>
<path fill="none" stroke="#191970" d="M315.5315,-67.5C328.445,-67.5 341.6828,-67.5 354.2515,-67.5"/>
<polygon fill="#191970" stroke="#191970" points="315.2638,-64.0001 305.2638,-67.5 315.2637,-71.0001 315.2638,-64.0001"/>
</g>
<!-- Node11 -->
<g id="node11" class="node">
<title>Node11</title>
<g id="a_node11"><a xlink:href="../../d8/dd4/classPHHoughSeeding.html#a8b2c7b85b2bcbe054e071dd6ff624f7d" target="_top" xlink:title="PHHoughSeeding::Process">
<polygon fill="none" stroke="#000000" points="348,-6.5 348,-26.5 497,-26.5 497,-6.5 348,-6.5"/>
<text text-anchor="middle" x="422.5" y="-13.5" font-family="FreeSans" font-size="10.00" fill="#000000">PHHoughSeeding::Process</text>
</a>
</g>
</g>
<!-- Node10&#45;&gt;Node11 -->
<g id="edge10" class="edge">
<title>Node10&#45;&gt;Node11</title>
<path fill="none" stroke="#191970" d="M322.0958,-16.5C330.7115,-16.5 339.396,-16.5 347.8597,-16.5"/>
<polygon fill="#191970" stroke="#191970" points="322.0309,-13.0001 312.0309,-16.5 322.0308,-20.0001 322.0309,-13.0001"/>
</g>
</g>
</svg>
