<?xml version="1.0" encoding="UTF-8" standalone="no"?>
<!DOCTYPE svg PUBLIC "-//W3C//DTD SVG 1.1//EN"
 "http://www.w3.org/Graphics/SVG/1.1/DTD/svg11.dtd">
<!-- Generated by graphviz version 2.40.1 (20161225.0304)
 -->
<!-- Title: Packet_gl1p::fillIntArray Pages: 1 -->
<svg width="963pt" height="146pt"
 viewBox="0.00 0.00 963.00 146.00" xmlns="http://www.w3.org/2000/svg" xmlns:xlink="http://www.w3.org/1999/xlink">
<g id="graph0" class="graph" transform="scale(1 1) rotate(0) translate(4 142)">
<title>Packet_gl1p::fillIntArray</title>
<!-- Node1 -->
<g id="node1" class="node">
<title>Node1</title>
<polygon fill="#bfbfbf" stroke="#000000" points="0,-38.5 0,-58.5 136,-58.5 136,-38.5 0,-38.5"/>
<text text-anchor="middle" x="68" y="-45.5" font-family="FreeSans" font-size="10.00" fill="#000000">Packet_gl1p::fillIntArray</text>
</g>
<!-- Node2 -->
<g id="node2" class="node">
<title>Node2</title>
<g id="a_node2"><a xlink:href="../../d2/d3c/classPacket__gl1p.html#a700d569ecd946d6432ff5099bf0d89d5" target="_top" xlink:title="Packet_gl1p::demangle">
<polygon fill="none" stroke="#000000" points="172,-38.5 172,-58.5 306,-58.5 306,-38.5 172,-38.5"/>
<text text-anchor="middle" x="239" y="-45.5" font-family="FreeSans" font-size="10.00" fill="#000000">Packet_gl1p::demangle</text>
</a>
</g>
</g>
<!-- Node1&#45;&gt;Node2 -->
<g id="edge1" class="edge">
<title>Node1&#45;&gt;Node2</title>
<path fill="none" stroke="#191970" d="M136.0751,-48.5C144.5768,-48.5 153.3185,-48.5 161.9445,-48.5"/>
<polygon fill="#191970" stroke="#191970" points="161.9962,-52.0001 171.9962,-48.5 161.9961,-45.0001 161.9962,-52.0001"/>
</g>
<!-- Node3 -->
<g id="node3" class="node">
<title>Node3</title>
<g id="a_node3"><a xlink:href="../../dc/d93/Cpacket_8C.html#ac5193834fcf576bc46dcee466b3ae95f" target="_top" xlink:title="findPacketDataStart">
<polygon fill="none" stroke="#000000" points="354.5,-68.5 354.5,-88.5 471.5,-88.5 471.5,-68.5 354.5,-68.5"/>
<text text-anchor="middle" x="413" y="-75.5" font-family="FreeSans" font-size="10.00" fill="#000000">findPacketDataStart</text>
</a>
</g>
</g>
<!-- Node2&#45;&gt;Node3 -->
<g id="edge2" class="edge">
<title>Node2&#45;&gt;Node3</title>
<path fill="none" stroke="#191970" d="M297.4235,-58.573C312.5683,-61.1842 329.0127,-64.0194 344.6186,-66.7101"/>
<polygon fill="#191970" stroke="#191970" points="344.2814,-70.2035 354.7307,-68.4536 345.4708,-63.3053 344.2814,-70.2035"/>
</g>
<!-- Node9 -->
<g id="node9" class="node">
<title>Node9</title>
<g id="a_node9"><a xlink:href="../../de/dce/classPacket__A.html#a645fa0ba0e11c3153a8d587f170da9e9" target="_top" xlink:title="get what the name says...">
<polygon fill="none" stroke="#000000" points="342,-19.5 342,-39.5 484,-39.5 484,-19.5 342,-19.5"/>
<text text-anchor="middle" x="413" y="-26.5" font-family="FreeSans" font-size="10.00" fill="#000000">Packet_A::getDataLength</text>
</a>
</g>
</g>
<!-- Node2&#45;&gt;Node9 -->
<g id="edge9" class="edge">
<title>Node2&#45;&gt;Node9</title>
<path fill="none" stroke="#191970" d="M306.2729,-41.1541C314.6587,-40.2384 323.3025,-39.2946 331.8701,-38.359"/>
<polygon fill="#191970" stroke="#191970" points="332.3117,-41.8317 341.8726,-37.2668 331.5518,-34.8731 332.3117,-41.8317"/>
</g>
<!-- Node4 -->
<g id="node4" class="node">
<title>Node4</title>
<g id="a_node4"><a xlink:href="../../dc/d93/Cpacket_8C.html#a29c44c21a6a00aa380a5fccd255f689c" target="_top" xlink:title="getPacketDataDescrLength">
<polygon fill="none" stroke="#000000" points="520,-117.5 520,-137.5 673,-137.5 673,-117.5 520,-117.5"/>
<text text-anchor="middle" x="596.5" y="-124.5" font-family="FreeSans" font-size="10.00" fill="#000000">getPacketDataDescrLength</text>
</a>
</g>
</g>
<!-- Node3&#45;&gt;Node4 -->
<g id="edge3" class="edge">
<title>Node3&#45;&gt;Node4</title>
<path fill="none" stroke="#191970" d="M448.1079,-88.6288C468.957,-94.5725 495.9386,-102.1404 520,-108.5 528.1781,-110.6615 536.8668,-112.8869 545.3429,-115.0194"/>
<polygon fill="#191970" stroke="#191970" points="544.6018,-118.4417 555.1521,-117.4705 546.2989,-111.6505 544.6018,-118.4417"/>
</g>
<!-- Node7 -->
<g id="node7" class="node">
<title>Node7</title>
<g id="a_node7"><a xlink:href="../../de/d93/Cpacket_8h.html#a00a03758ac2620086eda111809151cfd" target="_top" xlink:title="getPacketHdrLength">
<polygon fill="none" stroke="#000000" points="537.5,-78.5 537.5,-98.5 655.5,-98.5 655.5,-78.5 537.5,-78.5"/>
<text text-anchor="middle" x="596.5" y="-85.5" font-family="FreeSans" font-size="10.00" fill="#000000">getPacketHdrLength</text>
</a>
</g>
</g>
<!-- Node3&#45;&gt;Node7 -->
<g id="edge6" class="edge">
<title>Node3&#45;&gt;Node7</title>
<path fill="none" stroke="#191970" d="M471.5651,-81.6916C489.2649,-82.6561 508.869,-83.7245 527.1993,-84.7234"/>
<polygon fill="#191970" stroke="#191970" points="527.056,-88.2207 537.2316,-85.2701 527.4369,-81.2311 527.056,-88.2207"/>
</g>
<!-- Node8 -->
<g id="node8" class="node">
<title>Node8</title>
<g id="a_node8"><a xlink:href="../../dc/d93/Cpacket_8C.html#af873472780d17d2304cb7d9ea6cb5cbb" target="_top" xlink:title="validPacketHdr">
<polygon fill="none" stroke="#000000" points="550.5,-39.5 550.5,-59.5 642.5,-59.5 642.5,-39.5 550.5,-39.5"/>
<text text-anchor="middle" x="596.5" y="-46.5" font-family="FreeSans" font-size="10.00" fill="#000000">validPacketHdr</text>
</a>
</g>
</g>
<!-- Node3&#45;&gt;Node8 -->
<g id="edge7" class="edge">
<title>Node3&#45;&gt;Node8</title>
<path fill="none" stroke="#191970" d="M471.5651,-69.2445C493.5681,-65.7672 518.514,-61.8248 540.2975,-58.3821"/>
<polygon fill="#191970" stroke="#191970" points="541.0539,-61.8061 550.3849,-56.7879 539.9611,-54.8919 541.0539,-61.8061"/>
</g>
<!-- Node5 -->
<g id="node5" class="node">
<title>Node5</title>
<g id="a_node5"><a xlink:href="../../de/d93/Cpacket_8h.html#a5086c5b9a0c51b566d8fe9ab6a5a6213" target="_top" xlink:title="getPacketHdrVersion">
<polygon fill="none" stroke="#000000" points="709,-39.5 709,-59.5 830,-59.5 830,-39.5 709,-39.5"/>
<text text-anchor="middle" x="769.5" y="-46.5" font-family="FreeSans" font-size="10.00" fill="#000000">getPacketHdrVersion</text>
</a>
</g>
</g>
<!-- Node4&#45;&gt;Node5 -->
<g id="edge4" class="edge">
<title>Node4&#45;&gt;Node5</title>
<path fill="none" stroke="#191970" d="M646.5977,-117.3961C655.5465,-114.9355 664.6674,-111.9847 673,-108.5 700.369,-97.0542 729.0421,-78.5703 747.9487,-65.3412"/>
<polygon fill="#191970" stroke="#191970" points="750.0364,-68.1513 756.1526,-59.5001 745.9764,-62.449 750.0364,-68.1513"/>
</g>
<!-- Node6 -->
<g id="node6" class="node">
<title>Node6</title>
<g id="a_node6"><a xlink:href="../../d0/db6/formatError_8C.html#acc9f1b83d468fccaa25cbd751730a101" target="_top" xlink:title="setPacketError">
<polygon fill="none" stroke="#000000" points="866,-39.5 866,-59.5 955,-59.5 955,-39.5 866,-39.5"/>
<text text-anchor="middle" x="910.5" y="-46.5" font-family="FreeSans" font-size="10.00" fill="#000000">setPacketError</text>
</a>
</g>
</g>
<!-- Node5&#45;&gt;Node6 -->
<g id="edge5" class="edge">
<title>Node5&#45;&gt;Node6</title>
<path fill="none" stroke="#191970" d="M830.115,-49.5C838.6053,-49.5 847.2908,-49.5 855.6656,-49.5"/>
<polygon fill="#191970" stroke="#191970" points="855.693,-53.0001 865.693,-49.5 855.6929,-46.0001 855.693,-53.0001"/>
</g>
<!-- Node8&#45;&gt;Node5 -->
<g id="edge8" class="edge">
<title>Node8&#45;&gt;Node5</title>
<path fill="none" stroke="#191970" d="M642.8608,-49.5C660.0833,-49.5 680.0335,-49.5 698.9326,-49.5"/>
<polygon fill="#191970" stroke="#191970" points="698.9987,-53.0001 708.9987,-49.5 698.9987,-46.0001 698.9987,-53.0001"/>
</g>
<!-- Node10 -->
<g id="node10" class="node">
<title>Node10</title>
<g id="a_node10"><a xlink:href="../../dc/d93/Cpacket_8C.html#a2a3fb8b57b338786771d62e3a62d0547" target="_top" xlink:title="getPacketDataLength">
<polygon fill="none" stroke="#000000" points="534.5,-.5 534.5,-20.5 658.5,-20.5 658.5,-.5 534.5,-.5"/>
<text text-anchor="middle" x="596.5" y="-7.5" font-family="FreeSans" font-size="10.00" fill="#000000">getPacketDataLength</text>
</a>
</g>
</g>
<!-- Node9&#45;&gt;Node10 -->
<g id="edge10" class="edge">
<title>Node9&#45;&gt;Node10</title>
<path fill="none" stroke="#191970" d="M484.2085,-22.1269C497.3744,-20.7637 511.1352,-19.3389 524.3293,-17.9727"/>
<polygon fill="#191970" stroke="#191970" points="524.703,-21.4528 534.2893,-16.9414 523.982,-14.4901 524.703,-21.4528"/>
</g>
<!-- Node10&#45;&gt;Node5 -->
<g id="edge11" class="edge">
<title>Node10&#45;&gt;Node5</title>
<path fill="none" stroke="#191970" d="M641.0518,-20.5435C663.6527,-25.6385 691.2947,-31.8699 715.1387,-37.2451"/>
<polygon fill="#191970" stroke="#191970" points="714.5743,-40.7057 725.0992,-39.4906 716.1137,-33.877 714.5743,-40.7057"/>
</g>
</g>
</svg>
