<?xml version="1.0" encoding="UTF-8" standalone="no"?>
<!DOCTYPE svg PUBLIC "-//W3C//DTD SVG 1.1//EN"
 "http://www.w3.org/Graphics/SVG/1.1/DTD/svg11.dtd">
<!-- Generated by graphviz version 2.40.1 (20161225.0304)
 -->
<!-- Title: ghvq Pages: 1 -->
<svg width="532pt" height="253pt"
 viewBox="0.00 0.00 532.00 253.00" xmlns="http://www.w3.org/2000/svg" xmlns:xlink="http://www.w3.org/1999/xlink">
<g id="graph0" class="graph" transform="scale(1 1) rotate(0) translate(4 249)">
<title>ghvq</title>
<!-- Node1 -->
<g id="node1" class="node">
<title>Node1</title>
<polygon fill="#bfbfbf" stroke="#000000" points="0,-118.5 0,-138.5 41,-138.5 41,-118.5 0,-118.5"/>
<text text-anchor="middle" x="20.5" y="-125.5" font-family="FreeSans" font-size="10.00" fill="#000000">ghvq</text>
</g>
<!-- Node2 -->
<g id="node2" class="node">
<title>Node2</title>
<g id="a_node2"><a xlink:href="../../db/da1/classHiParnt.html#ac653b598baeeca89d06693fdf4688f38" target="_top" xlink:title="HiParnt::hint1">
<polygon fill="none" stroke="#000000" points="162,-195.5 162,-215.5 247,-215.5 247,-195.5 162,-195.5"/>
<text text-anchor="middle" x="204.5" y="-202.5" font-family="FreeSans" font-size="10.00" fill="#000000">HiParnt::hint1</text>
</a>
</g>
</g>
<!-- Node1&#45;&gt;Node2 -->
<g id="edge1" class="edge">
<title>Node1&#45;&gt;Node2</title>
<path fill="none" stroke="#191970" d="M36.422,-138.5195C47.5299,-145.2578 62.842,-154.0529 77,-160.5 104.4406,-172.9956 136.4434,-184.2808 161.5218,-192.4245"/>
<polygon fill="#191970" stroke="#191970" points="160.5249,-195.7802 171.1159,-195.4969 162.6598,-189.1137 160.5249,-195.7802"/>
</g>
<!-- Node6 -->
<g id="node6" class="node">
<title>Node6</title>
<g id="a_node6"><a xlink:href="../../db/da1/classHiParnt.html#a28a5a24ec376a6790e610d7fcc0f5b8e" target="_top" xlink:title="HiParnt::hipr1">
<polygon fill="none" stroke="#000000" points="162,-156.5 162,-176.5 247,-176.5 247,-156.5 162,-156.5"/>
<text text-anchor="middle" x="204.5" y="-163.5" font-family="FreeSans" font-size="10.00" fill="#000000">HiParnt::hipr1</text>
</a>
</g>
</g>
<!-- Node1&#45;&gt;Node6 -->
<g id="edge5" class="edge">
<title>Node1&#45;&gt;Node6</title>
<path fill="none" stroke="#191970" d="M41.1274,-133.4157C51.8145,-135.9195 65.0882,-138.9625 77,-141.5 101.599,-146.7402 128.9569,-152.1582 152.0039,-156.6051"/>
<polygon fill="#191970" stroke="#191970" points="151.4487,-160.0624 161.9294,-158.5117 152.7693,-153.188 151.4487,-160.0624"/>
</g>
<!-- Node8 -->
<g id="node8" class="node">
<title>Node8</title>
<g id="a_node8"><a xlink:href="../../db/da1/classHiParnt.html#a0d759f134daae3226a7744c9920bd769" target="_top" xlink:title="HiParnt::ihnt2">
<polygon fill="none" stroke="#000000" points="162,-117.5 162,-137.5 247,-137.5 247,-117.5 162,-117.5"/>
<text text-anchor="middle" x="204.5" y="-124.5" font-family="FreeSans" font-size="10.00" fill="#000000">HiParnt::ihnt2</text>
</a>
</g>
</g>
<!-- Node1&#45;&gt;Node8 -->
<g id="edge8" class="edge">
<title>Node1&#45;&gt;Node8</title>
<path fill="none" stroke="#191970" d="M41.2495,-128.3872C67.8812,-128.2425 115.0373,-127.9862 151.8428,-127.7862"/>
<polygon fill="#191970" stroke="#191970" points="151.9429,-131.2858 161.9237,-127.7314 151.9048,-124.2859 151.9429,-131.2858"/>
</g>
<!-- Node10 -->
<g id="node10" class="node">
<title>Node10</title>
<g id="a_node10"><a xlink:href="../../db/da1/classHiParnt.html#a1c6a5924524a08fe9641adc64095c0b9" target="_top" xlink:title="HiParnt::ihpr2">
<polygon fill="none" stroke="#000000" points="162,-78.5 162,-98.5 247,-98.5 247,-78.5 162,-78.5"/>
<text text-anchor="middle" x="204.5" y="-85.5" font-family="FreeSans" font-size="10.00" fill="#000000">HiParnt::ihpr2</text>
</a>
</g>
</g>
<!-- Node1&#45;&gt;Node10 -->
<g id="edge11" class="edge">
<title>Node1&#45;&gt;Node10</title>
<path fill="none" stroke="#191970" d="M26.6185,-118.3369C35.6358,-104.4679 53.9457,-80.2268 77,-70.5 107.6828,-57.5547 145.8302,-65.7705 172.365,-74.9032"/>
<polygon fill="#191970" stroke="#191970" points="171.3327,-78.2525 181.9264,-78.4061 173.7407,-71.6797 171.3327,-78.2525"/>
</g>
<!-- Node12 -->
<g id="node12" class="node">
<title>Node12</title>
<g id="a_node12"><a xlink:href="../../db/d20/parton_8f.html#aa0edf2e3bc4c9634a0c0e2ee25615ad2" target="_top" xlink:title="parton">
<polygon fill="none" stroke="#000000" points="77,-79.5 77,-99.5 126,-99.5 126,-79.5 77,-79.5"/>
<text text-anchor="middle" x="101.5" y="-86.5" font-family="FreeSans" font-size="10.00" fill="#000000">parton</text>
</a>
</g>
</g>
<!-- Node1&#45;&gt;Node12 -->
<g id="edge14" class="edge">
<title>Node1&#45;&gt;Node12</title>
<path fill="none" stroke="#191970" d="M41.3595,-118.4565C50.5242,-114.0439 61.4593,-108.7788 71.4763,-103.9558"/>
<polygon fill="#191970" stroke="#191970" points="73.2195,-107.0012 80.7112,-99.5094 70.1828,-100.6941 73.2195,-107.0012"/>
</g>
<!-- Node3 -->
<g id="node3" class="node">
<title>Node3</title>
<g id="a_node3"><a xlink:href="../../db/da1/classHiParnt.html#aec7bbf54e836c6b58a40be4e79292972" target="_top" xlink:title="HiParnt::init">
<polygon fill="none" stroke="#000000" points="296,-146.5 296,-166.5 372,-166.5 372,-146.5 296,-146.5"/>
<text text-anchor="middle" x="334" y="-153.5" font-family="FreeSans" font-size="10.00" fill="#000000">HiParnt::init</text>
</a>
</g>
</g>
<!-- Node2&#45;&gt;Node3 -->
<g id="edge2" class="edge">
<title>Node2&#45;&gt;Node3</title>
<path fill="none" stroke="#191970" d="M231.0188,-195.4659C250.3981,-188.1331 276.8959,-178.1069 298.1596,-170.0612"/>
<polygon fill="#191970" stroke="#191970" points="299.4025,-173.3332 307.5167,-166.5207 296.9252,-166.7862 299.4025,-173.3332"/>
</g>
<!-- Node5 -->
<g id="node5" class="node">
<title>Node5</title>
<g id="a_node5"><a xlink:href="../../db/da1/classHiParnt.html#a1074072a5774a085cecf879899a44ab3" target="_top" xlink:title="HiParnt::lenHint1">
<polygon fill="none" stroke="#000000" points="283,-224.5 283,-244.5 385,-244.5 385,-224.5 283,-224.5"/>
<text text-anchor="middle" x="334" y="-231.5" font-family="FreeSans" font-size="10.00" fill="#000000">HiParnt::lenHint1</text>
</a>
</g>
</g>
<!-- Node2&#45;&gt;Node5 -->
<g id="edge4" class="edge">
<title>Node2&#45;&gt;Node5</title>
<path fill="none" stroke="#191970" d="M247.262,-215.0761C257.4231,-217.3515 268.404,-219.8105 279.0256,-222.1891"/>
<polygon fill="#191970" stroke="#191970" points="278.5375,-225.6664 289.0607,-224.4364 280.0672,-218.8356 278.5375,-225.6664"/>
</g>
<!-- Node4 -->
<g id="node4" class="node">
<title>Node4</title>
<g id="a_node4"><a xlink:href="../../d4/d0f/HiParnt_8h.html#ae387711cf1ed2f3d5908e93a113f27e7" target="_top" xlink:title="hiparnt_address_">
<polygon fill="none" stroke="#000000" points="421,-146.5 421,-166.5 524,-166.5 524,-146.5 421,-146.5"/>
<text text-anchor="middle" x="472.5" y="-153.5" font-family="FreeSans" font-size="10.00" fill="#000000">hiparnt_address_</text>
</a>
</g>
</g>
<!-- Node3&#45;&gt;Node4 -->
<g id="edge3" class="edge">
<title>Node3&#45;&gt;Node4</title>
<path fill="none" stroke="#191970" d="M372.2124,-156.5C384.0901,-156.5 397.5037,-156.5 410.5662,-156.5"/>
<polygon fill="#191970" stroke="#191970" points="410.9308,-160.0001 420.9308,-156.5 410.9308,-153.0001 410.9308,-160.0001"/>
</g>
<!-- Node6&#45;&gt;Node3 -->
<g id="edge6" class="edge">
<title>Node6&#45;&gt;Node3</title>
<path fill="none" stroke="#191970" d="M247.262,-163.1979C259.4641,-162.2557 272.8483,-161.2221 285.373,-160.255"/>
<polygon fill="#191970" stroke="#191970" points="285.9459,-163.7213 295.6468,-159.4616 285.4069,-156.742 285.9459,-163.7213"/>
</g>
<!-- Node7 -->
<g id="node7" class="node">
<title>Node7</title>
<g id="a_node7"><a xlink:href="../../db/da1/classHiParnt.html#a976a341872dd6ef684a319c5e262be46" target="_top" xlink:title="HiParnt::lenHipr1">
<polygon fill="none" stroke="#000000" points="283,-185.5 283,-205.5 385,-205.5 385,-185.5 283,-185.5"/>
<text text-anchor="middle" x="334" y="-192.5" font-family="FreeSans" font-size="10.00" fill="#000000">HiParnt::lenHipr1</text>
</a>
</g>
</g>
<!-- Node6&#45;&gt;Node7 -->
<g id="edge7" class="edge">
<title>Node6&#45;&gt;Node7</title>
<path fill="none" stroke="#191970" d="M247.262,-176.0761C257.4231,-178.3515 268.404,-180.8105 279.0256,-183.1891"/>
<polygon fill="#191970" stroke="#191970" points="278.5375,-186.6664 289.0607,-185.4364 280.0672,-179.8356 278.5375,-186.6664"/>
</g>
<!-- Node8&#45;&gt;Node3 -->
<g id="edge9" class="edge">
<title>Node8&#45;&gt;Node3</title>
<path fill="none" stroke="#191970" d="M247.262,-137.0761C259.5861,-139.8359 273.1161,-142.8658 285.7485,-145.6946"/>
<polygon fill="#191970" stroke="#191970" points="285.1236,-149.1413 295.6468,-147.9112 286.6533,-142.3105 285.1236,-149.1413"/>
</g>
<!-- Node9 -->
<g id="node9" class="node">
<title>Node9</title>
<g id="a_node9"><a xlink:href="../../db/da1/classHiParnt.html#a2583f210ac7e15c429d879a65e9626b2" target="_top" xlink:title="HiParnt::lenIhnt2">
<polygon fill="none" stroke="#000000" points="283.5,-107.5 283.5,-127.5 384.5,-127.5 384.5,-107.5 283.5,-107.5"/>
<text text-anchor="middle" x="334" y="-114.5" font-family="FreeSans" font-size="10.00" fill="#000000">HiParnt::lenIhnt2</text>
</a>
</g>
</g>
<!-- Node8&#45;&gt;Node9 -->
<g id="edge10" class="edge">
<title>Node8&#45;&gt;Node9</title>
<path fill="none" stroke="#191970" d="M247.262,-124.1979C255.5226,-123.56 264.325,-122.8803 273.0356,-122.2077"/>
<polygon fill="#191970" stroke="#191970" points="273.4803,-125.6838 283.1811,-121.4242 272.9413,-118.7046 273.4803,-125.6838"/>
</g>
<!-- Node10&#45;&gt;Node3 -->
<g id="edge12" class="edge">
<title>Node10&#45;&gt;Node3</title>
<path fill="none" stroke="#191970" d="M228.4109,-98.5336C234.6206,-101.4653 241.1927,-104.8673 247,-108.5 264.4185,-119.3958 265.1433,-127.3382 283,-137.5 286.1847,-139.3124 289.575,-141.0116 293.0353,-142.5905"/>
<polygon fill="#191970" stroke="#191970" points="291.6918,-145.8224 302.266,-146.4836 294.4121,-139.3725 291.6918,-145.8224"/>
</g>
<!-- Node11 -->
<g id="node11" class="node">
<title>Node11</title>
<g id="a_node11"><a xlink:href="../../db/da1/classHiParnt.html#aa2f216c88e3e9ec0634df4755e281c85" target="_top" xlink:title="HiParnt::lenIhpr2">
<polygon fill="none" stroke="#000000" points="283.5,-68.5 283.5,-88.5 384.5,-88.5 384.5,-68.5 283.5,-68.5"/>
<text text-anchor="middle" x="334" y="-75.5" font-family="FreeSans" font-size="10.00" fill="#000000">HiParnt::lenIhpr2</text>
</a>
</g>
</g>
<!-- Node10&#45;&gt;Node11 -->
<g id="edge13" class="edge">
<title>Node10&#45;&gt;Node11</title>
<path fill="none" stroke="#191970" d="M247.262,-85.1979C255.5226,-84.56 264.325,-83.8803 273.0356,-83.2077"/>
<polygon fill="#191970" stroke="#191970" points="273.4803,-86.6838 283.1811,-82.4242 272.9413,-79.7046 273.4803,-86.6838"/>
</g>
<!-- Node12&#45;&gt;Node2 -->
<g id="edge17" class="edge">
<title>Node12&#45;&gt;Node2</title>
<path fill="none" stroke="#191970" d="M105.4416,-99.6601C113.3991,-118.9819 133.1202,-161.3353 162,-186.5 163.5081,-187.8141 165.1219,-189.0518 166.8068,-190.2154"/>
<polygon fill="#191970" stroke="#191970" points="165.2706,-193.3724 175.664,-195.4285 168.8213,-187.3397 165.2706,-193.3724"/>
</g>
<!-- Node12&#45;&gt;Node6 -->
<g id="edge15" class="edge">
<title>Node12&#45;&gt;Node6</title>
<path fill="none" stroke="#191970" d="M110.0603,-99.6226C121.0636,-112.1482 141.237,-133.5271 162,-147.5 164.2484,-149.0131 166.6369,-150.4558 169.0902,-151.8205"/>
<polygon fill="#191970" stroke="#191970" points="167.6232,-155.0009 178.1242,-156.4082 170.7928,-148.7596 167.6232,-155.0009"/>
</g>
<!-- Node12&#45;&gt;Node8 -->
<g id="edge18" class="edge">
<title>Node12&#45;&gt;Node8</title>
<path fill="none" stroke="#191970" d="M126.1711,-98.6019C138.5269,-103.1604 153.7413,-108.7735 167.4645,-113.8364"/>
<polygon fill="#191970" stroke="#191970" points="166.538,-117.2252 177.1314,-117.4028 168.961,-110.6578 166.538,-117.2252"/>
</g>
<!-- Node12&#45;&gt;Node10 -->
<g id="edge16" class="edge">
<title>Node12&#45;&gt;Node10</title>
<path fill="none" stroke="#191970" d="M126.1711,-89.2605C133.9545,-89.1849 142.8723,-89.0983 151.8371,-89.0113"/>
<polygon fill="#191970" stroke="#191970" points="151.9551,-92.5104 161.9206,-88.9134 151.8871,-85.5107 151.9551,-92.5104"/>
</g>
<!-- Node13 -->
<g id="node13" class="node">
<title>Node13</title>
<g id="a_node13"><a xlink:href="../../de/de0/matchedfilter_8C.html#ad37474ba23a5f0af2c619aeeaad07526" target="_top" xlink:title="go">
<polygon fill="none" stroke="#000000" points="319.5,-19.5 319.5,-39.5 348.5,-39.5 348.5,-19.5 319.5,-19.5"/>
<text text-anchor="middle" x="334" y="-26.5" font-family="FreeSans" font-size="10.00" fill="#000000">go</text>
</a>
</g>
</g>
<!-- Node12&#45;&gt;Node13 -->
<g id="edge19" class="edge">
<title>Node12&#45;&gt;Node13</title>
<path fill="none" stroke="#191970" d="M108.1982,-79.1666C118.028,-65.0644 137.8397,-40.4123 162,-30.5 211.11,-10.3515 274.9504,-17.7024 309.3849,-24.0774"/>
<polygon fill="#191970" stroke="#191970" points="308.9862,-27.5663 319.4758,-26.0768 310.3468,-20.6998 308.9862,-27.5663"/>
</g>
<!-- Node16 -->
<g id="node16" class="node">
<title>Node16</title>
<g id="a_node16"><a xlink:href="../../dc/dc6/gmre_8f.html#aa6e860c7d81623b3000169df288e5688" target="_top" xlink:title="gmre">
<polygon fill="none" stroke="#000000" points="183.5,-39.5 183.5,-59.5 225.5,-59.5 225.5,-39.5 183.5,-39.5"/>
<text text-anchor="middle" x="204.5" y="-46.5" font-family="FreeSans" font-size="10.00" fill="#000000">gmre</text>
</a>
</g>
</g>
<!-- Node12&#45;&gt;Node16 -->
<g id="edge22" class="edge">
<title>Node12&#45;&gt;Node16</title>
<path fill="none" stroke="#191970" d="M126.1711,-79.919C140.4267,-74.3828 158.4876,-67.3689 173.6731,-61.4716"/>
<polygon fill="#191970" stroke="#191970" points="175.1134,-64.667 183.1681,-57.7842 172.5793,-58.1418 175.1134,-64.667"/>
</g>
<!-- Node14 -->
<g id="node14" class="node">
<title>Node14</title>
<g id="a_node14"><a xlink:href="../../de/de0/matchedfilter_8C.html#a3f4d763c3fdd217c038a53ba4ca5b98a" target="_top" xlink:title="meanw">
<polygon fill="none" stroke="#000000" points="446,-.5 446,-20.5 499,-20.5 499,-.5 446,-.5"/>
<text text-anchor="middle" x="472.5" y="-7.5" font-family="FreeSans" font-size="10.00" fill="#000000">meanw</text>
</a>
</g>
</g>
<!-- Node13&#45;&gt;Node14 -->
<g id="edge20" class="edge">
<title>Node13&#45;&gt;Node14</title>
<path fill="none" stroke="#191970" d="M348.5602,-27.5026C369.0962,-24.6854 407.2493,-19.4514 435.822,-15.5316"/>
<polygon fill="#191970" stroke="#191970" points="436.4335,-18.9806 445.865,-14.1539 435.4821,-12.0456 436.4335,-18.9806"/>
</g>
<!-- Node15 -->
<g id="node15" class="node">
<title>Node15</title>
<g id="a_node15"><a xlink:href="../../de/de0/matchedfilter_8C.html#ac662fab4d6569f9ab320da1b95bcd663" target="_top" xlink:title="round">
<polygon fill="none" stroke="#000000" points="450,-39.5 450,-59.5 495,-59.5 495,-39.5 450,-39.5"/>
<text text-anchor="middle" x="472.5" y="-46.5" font-family="FreeSans" font-size="10.00" fill="#000000">round</text>
</a>
</g>
</g>
<!-- Node13&#45;&gt;Node15 -->
<g id="edge21" class="edge">
<title>Node13&#45;&gt;Node15</title>
<path fill="none" stroke="#191970" d="M348.5602,-31.6025C370.0859,-34.711 410.9676,-40.6145 439.8832,-44.79"/>
<polygon fill="#191970" stroke="#191970" points="439.5393,-48.2766 449.9369,-46.2418 440.5398,-41.3484 439.5393,-48.2766"/>
</g>
<!-- Node16&#45;&gt;Node13 -->
<g id="edge23" class="edge">
<title>Node16&#45;&gt;Node13</title>
<path fill="none" stroke="#191970" d="M225.5946,-46.2421C248.4665,-42.7098 284.9413,-37.0766 309.1763,-33.3338"/>
<polygon fill="#191970" stroke="#191970" points="310.0086,-36.7468 319.3572,-31.7614 308.9401,-29.8288 310.0086,-36.7468"/>
</g>
</g>
</svg>
