<?xml version="1.0" encoding="UTF-8" standalone="no"?>
<!DOCTYPE svg PUBLIC "-//W3C//DTD SVG 1.1//EN"
 "http://www.w3.org/Graphics/SVG/1.1/DTD/svg11.dtd">
<!-- Generated by graphviz version 2.40.1 (20161225.0304)
 -->
<!-- Title: coresoftware/blob/master/simulation/g4simulation/g4jets/JetMap.cc Pages: 1 -->
<svg width="434pt" height="281pt"
 viewBox="0.00 0.00 434.00 281.00" xmlns="http://www.w3.org/2000/svg" xmlns:xlink="http://www.w3.org/1999/xlink">
<g id="graph0" class="graph" transform="scale(1 1) rotate(0) translate(4 277)">
<title>coresoftware/blob/master/simulation/g4simulation/g4jets/JetMap.cc</title>
<!-- Node1 -->
<g id="node1" class="node">
<title>Node1</title>
<polygon fill="#bfbfbf" stroke="#000000" points="218,-228.5 218,-272.5 364,-272.5 364,-228.5 218,-228.5"/>
<text text-anchor="start" x="226" y="-259.5" font-family="FreeSans" font-size="10.00" fill="#000000">coresoftware/blob/master</text>
<text text-anchor="start" x="226" y="-247.5" font-family="FreeSans" font-size="10.00" fill="#000000">/simulation/g4simulation</text>
<text text-anchor="middle" x="291" y="-235.5" font-family="FreeSans" font-size="10.00" fill="#000000">/g4jets/JetMap.cc</text>
</g>
<!-- Node2 -->
<g id="node2" class="node">
<title>Node2</title>
<g id="a_node2"><a xlink:href="../../df/dd0/JetMap_8h.html" target="_top" xlink:title="JetMap.h">
<polygon fill="none" stroke="#000000" points="222.5,-171.5 222.5,-191.5 283.5,-191.5 283.5,-171.5 222.5,-171.5"/>
<text text-anchor="middle" x="253" y="-178.5" font-family="FreeSans" font-size="10.00" fill="#000000">JetMap.h</text>
</a>
</g>
</g>
<!-- Node1&#45;&gt;Node2 -->
<g id="edge1" class="edge">
<title>Node1&#45;&gt;Node2</title>
<path fill="none" stroke="#191970" d="M278.7674,-228.2882C273.8491,-219.3575 268.2348,-209.1632 263.505,-200.5749"/>
<polygon fill="#191970" stroke="#191970" points="266.5149,-198.7847 258.6249,-191.7137 260.3832,-202.1616 266.5149,-198.7847"/>
</g>
<!-- Node11 -->
<g id="node11" class="node">
<title>Node11</title>
<polygon fill="none" stroke="#bfbfbf" points="301.5,-171.5 301.5,-191.5 358.5,-191.5 358.5,-171.5 301.5,-171.5"/>
<text text-anchor="middle" x="330" y="-178.5" font-family="FreeSans" font-size="10.00" fill="#000000">ostream</text>
</g>
<!-- Node1&#45;&gt;Node11 -->
<g id="edge16" class="edge">
<title>Node1&#45;&gt;Node11</title>
<path fill="none" stroke="#191970" d="M303.5545,-228.2882C308.6023,-219.3575 314.3643,-209.1632 319.2186,-200.5749"/>
<polygon fill="#191970" stroke="#191970" points="322.3534,-202.1415 324.2271,-191.7137 316.2595,-198.6971 322.3534,-202.1415"/>
</g>
<!-- Node3 -->
<g id="node3" class="node">
<title>Node3</title>
<g id="a_node3"><a xlink:href="../../da/db7/Jet_8h.html" target="_top" xlink:title="Jet.h">
<polygon fill="none" stroke="#000000" points="182.5,-114.5 182.5,-134.5 221.5,-134.5 221.5,-114.5 182.5,-114.5"/>
<text text-anchor="middle" x="202" y="-121.5" font-family="FreeSans" font-size="10.00" fill="#000000">Jet.h</text>
</a>
</g>
</g>
<!-- Node2&#45;&gt;Node3 -->
<g id="edge2" class="edge">
<title>Node2&#45;&gt;Node3</title>
<path fill="none" stroke="#191970" d="M243.8822,-171.3095C236.6299,-163.204 226.3117,-151.672 217.7318,-142.0826"/>
<polygon fill="#191970" stroke="#191970" points="220.3152,-139.7209 211.0388,-134.6022 215.0985,-144.3885 220.3152,-139.7209"/>
</g>
<!-- Node4 -->
<g id="node4" class="node">
<title>Node4</title>
<g id="a_node4"><a xlink:href="../../df/d32/PHObject_8h.html" target="_top" xlink:title="phool/PHObject.h">
<polygon fill="none" stroke="#000000" points="0,-57.5 0,-77.5 104,-77.5 104,-57.5 0,-57.5"/>
<text text-anchor="middle" x="52" y="-64.5" font-family="FreeSans" font-size="10.00" fill="#000000">phool/PHObject.h</text>
</a>
</g>
</g>
<!-- Node2&#45;&gt;Node4 -->
<g id="edge10" class="edge">
<title>Node2&#45;&gt;Node4</title>
<path fill="none" stroke="#191970" d="M230.1068,-171.3535C210.4062,-162.4004 181.3886,-148.6805 157,-135 128.0232,-118.7458 96.0948,-97.751 75.1428,-83.5233"/>
<polygon fill="#191970" stroke="#191970" points="76.8382,-80.4426 66.6075,-77.6888 72.8879,-86.2215 76.8382,-80.4426"/>
</g>
<!-- Node6 -->
<g id="node6" class="node">
<title>Node6</title>
<polygon fill="none" stroke="#bfbfbf" points="168,-.5 168,-20.5 228,-20.5 228,-.5 168,-.5"/>
<text text-anchor="middle" x="198" y="-7.5" font-family="FreeSans" font-size="10.00" fill="#000000">iostream</text>
</g>
<!-- Node2&#45;&gt;Node6 -->
<g id="edge13" class="edge">
<title>Node2&#45;&gt;Node6</title>
<path fill="none" stroke="#191970" d="M270.9832,-171.3977C306.2748,-150.2812 378.5318,-99.872 347,-57 333.9656,-39.2778 277.5278,-25.3307 237.9864,-17.499"/>
<polygon fill="#191970" stroke="#191970" points="238.5654,-14.0463 228.0842,-15.5944 237.2431,-20.9203 238.5654,-14.0463"/>
</g>
<!-- Node7 -->
<g id="node7" class="node">
<title>Node7</title>
<polygon fill="none" stroke="#bfbfbf" points="122,-57.5 122,-77.5 170,-77.5 170,-57.5 122,-57.5"/>
<text text-anchor="middle" x="146" y="-64.5" font-family="FreeSans" font-size="10.00" fill="#000000">cmath</text>
</g>
<!-- Node2&#45;&gt;Node7 -->
<g id="edge11" class="edge">
<title>Node2&#45;&gt;Node7</title>
<path fill="none" stroke="#191970" d="M226.5372,-171.4952C209.2857,-163.8022 187.3858,-151.6561 173,-135 161.2979,-121.4512 154.2745,-102.1939 150.3376,-87.7136"/>
<polygon fill="#191970" stroke="#191970" points="153.6757,-86.6289 147.9024,-77.7452 146.8756,-88.2902 153.6757,-86.6289"/>
</g>
<!-- Node8 -->
<g id="node8" class="node">
<title>Node8</title>
<polygon fill="none" stroke="#bfbfbf" points="226,-57.5 226,-77.5 280,-77.5 280,-57.5 226,-57.5"/>
<text text-anchor="middle" x="253" y="-64.5" font-family="FreeSans" font-size="10.00" fill="#000000">cstddef</text>
</g>
<!-- Node2&#45;&gt;Node8 -->
<g id="edge12" class="edge">
<title>Node2&#45;&gt;Node8</title>
<path fill="none" stroke="#191970" d="M253,-171.3833C253,-152.6703 253,-112.3266 253,-87.7866"/>
<polygon fill="#191970" stroke="#191970" points="256.5001,-87.7579 253,-77.7579 249.5001,-87.758 256.5001,-87.7579"/>
</g>
<!-- Node9 -->
<g id="node9" class="node">
<title>Node9</title>
<polygon fill="none" stroke="#bfbfbf" points="298.5,-57.5 298.5,-77.5 337.5,-77.5 337.5,-57.5 298.5,-57.5"/>
<text text-anchor="middle" x="318" y="-64.5" font-family="FreeSans" font-size="10.00" fill="#000000">map</text>
</g>
<!-- Node2&#45;&gt;Node9 -->
<g id="edge14" class="edge">
<title>Node2&#45;&gt;Node9</title>
<path fill="none" stroke="#191970" d="M258.7683,-171.3833C269.6303,-152.3331 293.2739,-110.8658 307.1805,-86.4757"/>
<polygon fill="#191970" stroke="#191970" points="310.2384,-88.1787 312.1512,-77.7579 304.1574,-84.7114 310.2384,-88.1787"/>
</g>
<!-- Node10 -->
<g id="node10" class="node">
<title>Node10</title>
<polygon fill="none" stroke="#bfbfbf" points="394,-114.5 394,-134.5 426,-134.5 426,-114.5 394,-114.5"/>
<text text-anchor="middle" x="410" y="-121.5" font-family="FreeSans" font-size="10.00" fill="#000000">set</text>
</g>
<!-- Node2&#45;&gt;Node10 -->
<g id="edge15" class="edge">
<title>Node2&#45;&gt;Node10</title>
<path fill="none" stroke="#191970" d="M280.707,-171.4408C309.8726,-160.852 355.4315,-144.3115 383.955,-133.9558"/>
<polygon fill="#191970" stroke="#191970" points="385.4258,-137.1454 393.631,-130.4429 383.0369,-130.5657 385.4258,-137.1454"/>
</g>
<!-- Node3&#45;&gt;Node4 -->
<g id="edge3" class="edge">
<title>Node3&#45;&gt;Node4</title>
<path fill="none" stroke="#191970" d="M182.3901,-117.0482C158.4888,-107.9657 117.6302,-92.4395 88.0102,-81.1839"/>
<polygon fill="#191970" stroke="#191970" points="89.0278,-77.8265 78.4367,-77.546 86.5413,-84.3699 89.0278,-77.8265"/>
</g>
<!-- Node3&#45;&gt;Node6 -->
<g id="edge8" class="edge">
<title>Node3&#45;&gt;Node6</title>
<path fill="none" stroke="#191970" d="M201.645,-114.3833C200.9884,-95.6703 199.5729,-55.3266 198.7118,-30.7866"/>
<polygon fill="#191970" stroke="#191970" points="202.2085,-30.629 198.3599,-20.7579 195.2128,-30.8746 202.2085,-30.629"/>
</g>
<!-- Node3&#45;&gt;Node7 -->
<g id="edge6" class="edge">
<title>Node3&#45;&gt;Node7</title>
<path fill="none" stroke="#191970" d="M191.9883,-114.3095C183.9453,-106.1229 172.4683,-94.441 162.992,-84.7955"/>
<polygon fill="#191970" stroke="#191970" points="165.4299,-82.2827 155.925,-77.6022 160.4366,-87.1885 165.4299,-82.2827"/>
</g>
<!-- Node3&#45;&gt;Node8 -->
<g id="edge7" class="edge">
<title>Node3&#45;&gt;Node8</title>
<path fill="none" stroke="#191970" d="M211.1178,-114.3095C218.3701,-106.204 228.6883,-94.672 237.2682,-85.0826"/>
<polygon fill="#191970" stroke="#191970" points="239.9015,-87.3885 243.9612,-77.6022 234.6848,-82.7209 239.9015,-87.3885"/>
</g>
<!-- Node3&#45;&gt;Node9 -->
<g id="edge9" class="edge">
<title>Node3&#45;&gt;Node9</title>
<path fill="none" stroke="#191970" d="M221.6778,-114.8307C240.1758,-105.7412 268.0869,-92.0263 289.1098,-81.6961"/>
<polygon fill="#191970" stroke="#191970" points="290.7942,-84.7681 298.2257,-77.2167 287.7071,-78.4856 290.7942,-84.7681"/>
</g>
<!-- Node5 -->
<g id="node5" class="node">
<title>Node5</title>
<polygon fill="none" stroke="#bfbfbf" points="19.5,-.5 19.5,-20.5 84.5,-20.5 84.5,-.5 19.5,-.5"/>
<text text-anchor="middle" x="52" y="-7.5" font-family="FreeSans" font-size="10.00" fill="#000000">TObject.h</text>
</g>
<!-- Node4&#45;&gt;Node5 -->
<g id="edge4" class="edge">
<title>Node4&#45;&gt;Node5</title>
<path fill="none" stroke="#191970" d="M52,-57.3095C52,-49.9335 52,-39.72 52,-30.715"/>
<polygon fill="#191970" stroke="#191970" points="55.5001,-30.6022 52,-20.6022 48.5001,-30.6023 55.5001,-30.6022"/>
</g>
<!-- Node4&#45;&gt;Node6 -->
<g id="edge5" class="edge">
<title>Node4&#45;&gt;Node6</title>
<path fill="none" stroke="#191970" d="M77.7658,-57.4408C101.2847,-48.2587 136.2668,-34.6013 162.4422,-24.3822"/>
<polygon fill="#191970" stroke="#191970" points="163.9583,-27.5476 172.0007,-20.6504 161.4125,-21.0269 163.9583,-27.5476"/>
</g>
</g>
</svg>
