<?xml version="1.0" encoding="UTF-8" standalone="no"?>
<!DOCTYPE svg PUBLIC "-//W3C//DTD SVG 1.1//EN"
 "http://www.w3.org/Graphics/SVG/1.1/DTD/svg11.dtd">
<!-- Generated by graphviz version 2.40.1 (20161225.0304)
 -->
<!-- Title: SvtxCluster_v1::covar_index Pages: 1 -->
<svg width="699pt" height="369pt"
 viewBox="0.00 0.00 699.00 369.00" xmlns="http://www.w3.org/2000/svg" xmlns:xlink="http://www.w3.org/1999/xlink">
<g id="graph0" class="graph" transform="scale(1 1) rotate(0) translate(4 365)">
<title>SvtxCluster_v1::covar_index</title>
<!-- Node1 -->
<g id="node1" class="node">
<title>Node1</title>
<polygon fill="#bfbfbf" stroke="#000000" points="0,-85.5 0,-117.5 127,-117.5 127,-85.5 0,-85.5"/>
<text text-anchor="start" x="8" y="-104.5" font-family="FreeSans" font-size="10.00" fill="#000000">SvtxCluster_v1::covar</text>
<text text-anchor="middle" x="63.5" y="-92.5" font-family="FreeSans" font-size="10.00" fill="#000000">_index</text>
</g>
<!-- Node2 -->
<g id="node2" class="node">
<title>Node2</title>
<g id="a_node2"><a xlink:href="../../d7/df6/classSvtxCluster__v1.html#a510dae981e55ba1180e1e6a78ad1b601" target="_top" xlink:title="SvtxCluster_v1::get\l_error">
<polygon fill="none" stroke="#000000" points="175,-238.5 175,-270.5 291,-270.5 291,-238.5 175,-238.5"/>
<text text-anchor="start" x="183" y="-257.5" font-family="FreeSans" font-size="10.00" fill="#000000">SvtxCluster_v1::get</text>
<text text-anchor="middle" x="233" y="-245.5" font-family="FreeSans" font-size="10.00" fill="#000000">_error</text>
</a>
</g>
</g>
<!-- Node1&#45;&gt;Node2 -->
<g id="edge1" class="edge">
<title>Node1&#45;&gt;Node2</title>
<path fill="none" stroke="#191970" d="M89.1356,-124.6401C123.8754,-155.9982 185.0169,-211.1878 215.1653,-238.4014"/>
<polygon fill="#191970" stroke="#191970" points="91.0875,-121.687 81.3191,-117.5845 86.3971,-126.8832 91.0875,-121.687"/>
</g>
<!-- Node8 -->
<g id="node8" class="node">
<title>Node8</title>
<g id="a_node8"><a xlink:href="../../d7/df6/classSvtxCluster__v1.html#a5b6f3e7a1cacbffb156e84784e67bc64" target="_top" xlink:title="SvtxCluster_v1::get_size">
<polygon fill="none" stroke="#000000" points="163,-115.5 163,-135.5 303,-135.5 303,-115.5 163,-115.5"/>
<text text-anchor="middle" x="233" y="-122.5" font-family="FreeSans" font-size="10.00" fill="#000000">SvtxCluster_v1::get_size</text>
</a>
</g>
</g>
<!-- Node1&#45;&gt;Node8 -->
<g id="edge7" class="edge">
<title>Node1&#45;&gt;Node8</title>
<path fill="none" stroke="#191970" d="M137.0399,-111.9127C145.5878,-113.1231 154.2907,-114.3553 162.7922,-115.5591"/>
<polygon fill="#191970" stroke="#191970" points="137.4897,-108.4416 127.0978,-110.505 136.5083,-115.3725 137.4897,-108.4416"/>
</g>
<!-- Node11 -->
<g id="node11" class="node">
<title>Node11</title>
<g id="a_node11"><a xlink:href="../../d7/df6/classSvtxCluster__v1.html#ad4eec38a485bda8f85e6d80784ac02ad" target="_top" xlink:title="SvtxCluster_v1::set\l_error">
<polygon fill="none" stroke="#000000" points="176,-63.5 176,-95.5 290,-95.5 290,-63.5 176,-63.5"/>
<text text-anchor="start" x="184" y="-82.5" font-family="FreeSans" font-size="10.00" fill="#000000">SvtxCluster_v1::set</text>
<text text-anchor="middle" x="233" y="-70.5" font-family="FreeSans" font-size="10.00" fill="#000000">_error</text>
</a>
</g>
</g>
<!-- Node1&#45;&gt;Node11 -->
<g id="edge14" class="edge">
<title>Node1&#45;&gt;Node11</title>
<path fill="none" stroke="#191970" d="M137.3232,-91.9182C150.1936,-90.2477 163.406,-88.5328 175.7461,-86.9312"/>
<polygon fill="#191970" stroke="#191970" points="136.5641,-88.4873 127.0978,-93.2454 137.4651,-95.4291 136.5641,-88.4873"/>
</g>
<!-- Node15 -->
<g id="node15" class="node">
<title>Node15</title>
<g id="a_node15"><a xlink:href="../../d7/df6/classSvtxCluster__v1.html#a12a7008000b364ea3fe60637b0ce0ff9" target="_top" xlink:title="SvtxCluster_v1::set_size">
<polygon fill="none" stroke="#000000" points="164,-21.5 164,-41.5 302,-41.5 302,-21.5 164,-21.5"/>
<text text-anchor="middle" x="233" y="-28.5" font-family="FreeSans" font-size="10.00" fill="#000000">SvtxCluster_v1::set_size</text>
</a>
</g>
</g>
<!-- Node1&#45;&gt;Node15 -->
<g id="edge18" class="edge">
<title>Node1&#45;&gt;Node15</title>
<path fill="none" stroke="#191970" d="M102.9692,-80.8305C121.0022,-71.8125 142.8034,-61.4965 163,-53.5 174.0152,-49.1387 186.2653,-45.0428 197.3993,-41.595"/>
<polygon fill="#191970" stroke="#191970" points="101.257,-77.7742 93.9111,-85.4089 104.4147,-84.0215 101.257,-77.7742"/>
</g>
<!-- Node3 -->
<g id="node3" class="node">
<title>Node3</title>
<g id="a_node3"><a xlink:href="../../d7/df6/classSvtxCluster__v1.html#a7475f0365f5b04797f5e50ee0347f7d2" target="_top" xlink:title="SvtxCluster_v1::identify">
<polygon fill="none" stroke="#000000" points="551.5,-137.5 551.5,-157.5 688.5,-157.5 688.5,-137.5 551.5,-137.5"/>
<text text-anchor="middle" x="620" y="-144.5" font-family="FreeSans" font-size="10.00" fill="#000000">SvtxCluster_v1::identify</text>
</a>
</g>
</g>
<!-- Node2&#45;&gt;Node3 -->
<g id="edge2" class="edge">
<title>Node2&#45;&gt;Node3</title>
<path fill="none" stroke="#191970" d="M282.5229,-273.9066C340.7013,-293.4625 438.7032,-316.0835 513,-280.5 568.0594,-254.13 603.7924,-184.0788 615.6503,-157.721"/>
<polygon fill="#191970" stroke="#191970" points="283.4327,-270.5179 272.8379,-270.5553 281.1436,-277.133 283.4327,-270.5179"/>
</g>
<!-- Node4 -->
<g id="node4" class="node">
<title>Node4</title>
<g id="a_node4"><a xlink:href="../../d7/df6/classSvtxCluster__v1.html#a5c2914a72e0094fb35860ae201e282db" target="_top" xlink:title="isValid returns non zero if object contains vailid data">
<polygon fill="none" stroke="#000000" points="360.5,-199.5 360.5,-219.5 491.5,-219.5 491.5,-199.5 360.5,-199.5"/>
<text text-anchor="middle" x="426" y="-206.5" font-family="FreeSans" font-size="10.00" fill="#000000">SvtxCluster_v1::isValid</text>
</a>
</g>
</g>
<!-- Node2&#45;&gt;Node4 -->
<g id="edge3" class="edge">
<title>Node2&#45;&gt;Node4</title>
<path fill="none" stroke="#191970" d="M301.0277,-238.3956C313.6486,-235.4249 326.7217,-232.3592 339,-229.5 353.0377,-226.2311 368.3578,-222.6978 382.176,-219.5236"/>
<polygon fill="#191970" stroke="#191970" points="299.9576,-235.0518 291.0268,-240.7519 301.563,-241.8653 299.9576,-235.0518"/>
</g>
<!-- Node5 -->
<g id="node5" class="node">
<title>Node5</title>
<g id="a_node5"><a xlink:href="../../d7/df6/classSvtxCluster__v1.html#a274b28599355d7f7c33094166efd0867" target="_top" xlink:title="SvtxCluster_v1::get\l_rphi_error">
<polygon fill="none" stroke="#000000" points="368,-328.5 368,-360.5 484,-360.5 484,-328.5 368,-328.5"/>
<text text-anchor="start" x="376" y="-347.5" font-family="FreeSans" font-size="10.00" fill="#000000">SvtxCluster_v1::get</text>
<text text-anchor="middle" x="426" y="-335.5" font-family="FreeSans" font-size="10.00" fill="#000000">_rphi_error</text>
</a>
</g>
</g>
<!-- Node2&#45;&gt;Node5 -->
<g id="edge4" class="edge">
<title>Node2&#45;&gt;Node5</title>
<path fill="none" stroke="#191970" d="M267.5563,-275.6473C287.9197,-287.6203 314.431,-302.3776 339,-313.5 350.8319,-318.8563 363.8863,-323.9266 376.205,-328.3556"/>
<polygon fill="#191970" stroke="#191970" points="269.3318,-272.631 258.9462,-270.5356 265.7583,-278.6502 269.3318,-272.631"/>
</g>
<!-- Node7 -->
<g id="node7" class="node">
<title>Node7</title>
<g id="a_node7"><a xlink:href="../../d7/df6/classSvtxCluster__v1.html#afab6cc2793086cd627e0f39e8198568d" target="_top" xlink:title="SvtxCluster_v1::get\l_z_error">
<polygon fill="none" stroke="#000000" points="368,-238.5 368,-270.5 484,-270.5 484,-238.5 368,-238.5"/>
<text text-anchor="start" x="376" y="-257.5" font-family="FreeSans" font-size="10.00" fill="#000000">SvtxCluster_v1::get</text>
<text text-anchor="middle" x="426" y="-245.5" font-family="FreeSans" font-size="10.00" fill="#000000">_z_error</text>
</a>
</g>
</g>
<!-- Node2&#45;&gt;Node7 -->
<g id="edge6" class="edge">
<title>Node2&#45;&gt;Node7</title>
<path fill="none" stroke="#191970" d="M301.3352,-254.5C323.1084,-254.5 346.9782,-254.5 367.9511,-254.5"/>
<polygon fill="#191970" stroke="#191970" points="301.1681,-251.0001 291.1681,-254.5 301.1681,-258.0001 301.1681,-251.0001"/>
</g>
<!-- Node6 -->
<g id="node6" class="node">
<title>Node6</title>
<g id="a_node6"><a xlink:href="../../d7/df6/classSvtxCluster__v1.html#af2d7553a3c47492456acb944f2df9126" target="_top" xlink:title="SvtxCluster_v1::get\l_phi_error">
<polygon fill="none" stroke="#000000" points="562,-328.5 562,-360.5 678,-360.5 678,-328.5 562,-328.5"/>
<text text-anchor="start" x="570" y="-347.5" font-family="FreeSans" font-size="10.00" fill="#000000">SvtxCluster_v1::get</text>
<text text-anchor="middle" x="620" y="-335.5" font-family="FreeSans" font-size="10.00" fill="#000000">_phi_error</text>
</a>
</g>
</g>
<!-- Node5&#45;&gt;Node6 -->
<g id="edge5" class="edge">
<title>Node5&#45;&gt;Node6</title>
<path fill="none" stroke="#191970" d="M494.4797,-344.5C516.4858,-344.5 540.6415,-344.5 561.8347,-344.5"/>
<polygon fill="#191970" stroke="#191970" points="494.2064,-341.0001 484.2064,-344.5 494.2064,-348.0001 494.2064,-341.0001"/>
</g>
<!-- Node8&#45;&gt;Node3 -->
<g id="edge8" class="edge">
<title>Node8&#45;&gt;Node3</title>
<path fill="none" stroke="#191970" d="M276.4103,-138.1359C295.4384,-143.0488 318.145,-148.074 339,-150.5 411.0853,-158.8856 494.2721,-156.5133 551.3215,-153.0538"/>
<polygon fill="#191970" stroke="#191970" points="277.103,-134.6985 266.5395,-135.5135 275.3056,-141.4639 277.103,-134.6985"/>
</g>
<!-- Node8&#45;&gt;Node4 -->
<g id="edge9" class="edge">
<title>Node8&#45;&gt;Node4</title>
<path fill="none" stroke="#191970" d="M257.1727,-141.0527C278.1561,-154.0346 309.6908,-172.3199 339,-184.5 353.2219,-190.4102 369.3046,-195.4591 383.7393,-199.4399"/>
<polygon fill="#191970" stroke="#191970" points="258.9238,-138.0196 248.5917,-135.6748 255.2065,-143.9511 258.9238,-138.0196"/>
</g>
<!-- Node9 -->
<g id="node9" class="node">
<title>Node9</title>
<g id="a_node9"><a xlink:href="../../d7/df6/classSvtxCluster__v1.html#adc8f2600e8e1912e1ddcdae5d923adf6" target="_top" xlink:title="SvtxCluster_v1::get\l_phi_size">
<polygon fill="none" stroke="#000000" points="368,-109.5 368,-141.5 484,-141.5 484,-109.5 368,-109.5"/>
<text text-anchor="start" x="376" y="-128.5" font-family="FreeSans" font-size="10.00" fill="#000000">SvtxCluster_v1::get</text>
<text text-anchor="middle" x="426" y="-116.5" font-family="FreeSans" font-size="10.00" fill="#000000">_phi_size</text>
</a>
</g>
</g>
<!-- Node8&#45;&gt;Node9 -->
<g id="edge10" class="edge">
<title>Node8&#45;&gt;Node9</title>
<path fill="none" stroke="#191970" d="M313.2934,-125.5C331.599,-125.5 350.7057,-125.5 367.8759,-125.5"/>
<polygon fill="#191970" stroke="#191970" points="313.2234,-122.0001 303.2234,-125.5 313.2234,-129.0001 313.2234,-122.0001"/>
</g>
<!-- Node10 -->
<g id="node10" class="node">
<title>Node10</title>
<g id="a_node10"><a xlink:href="../../d7/df6/classSvtxCluster__v1.html#aa672affebda4259333c1b9bc5205f59a" target="_top" xlink:title="SvtxCluster_v1::get\l_z_size">
<polygon fill="none" stroke="#000000" points="368,-58.5 368,-90.5 484,-90.5 484,-58.5 368,-58.5"/>
<text text-anchor="start" x="376" y="-77.5" font-family="FreeSans" font-size="10.00" fill="#000000">SvtxCluster_v1::get</text>
<text text-anchor="middle" x="426" y="-65.5" font-family="FreeSans" font-size="10.00" fill="#000000">_z_size</text>
</a>
</g>
</g>
<!-- Node8&#45;&gt;Node10 -->
<g id="edge12" class="edge">
<title>Node8&#45;&gt;Node10</title>
<path fill="none" stroke="#191970" d="M280.8693,-112.8506C307.1765,-105.899 340.0118,-97.2223 367.793,-89.8811"/>
<polygon fill="#191970" stroke="#191970" points="279.9045,-109.4853 271.1306,-115.424 281.6929,-116.253 279.9045,-109.4853"/>
</g>
<!-- Node9&#45;&gt;Node3 -->
<g id="edge11" class="edge">
<title>Node9&#45;&gt;Node3</title>
<path fill="none" stroke="#191970" d="M494.2897,-133.2442C512.7568,-135.3384 532.7497,-137.6056 551.2424,-139.7027"/>
<polygon fill="#191970" stroke="#191970" points="494.5371,-129.7499 484.2064,-132.1007 493.7483,-136.7053 494.5371,-129.7499"/>
</g>
<!-- Node10&#45;&gt;Node3 -->
<g id="edge13" class="edge">
<title>Node10&#45;&gt;Node3</title>
<path fill="none" stroke="#191970" d="M494.3622,-93.1436C500.7013,-95.1727 506.9951,-97.3029 513,-99.5 543.9749,-110.8331 578.5955,-127.0444 599.8438,-137.4216"/>
<polygon fill="#191970" stroke="#191970" points="494.9867,-89.6725 484.3983,-90.0432 492.9068,-96.3564 494.9867,-89.6725"/>
</g>
<!-- Node12 -->
<g id="node12" class="node">
<title>Node12</title>
<g id="a_node12"><a xlink:href="../../d7/df6/classSvtxCluster__v1.html#a0409f68a4cd4f8b9e53d43ec3f5bd36a" target="_top" xlink:title="SvtxCluster_v1::SvtxCluster_v1">
<polygon fill="none" stroke="#000000" points="339,-19.5 339,-39.5 513,-39.5 513,-19.5 339,-19.5"/>
<text text-anchor="middle" x="426" y="-26.5" font-family="FreeSans" font-size="10.00" fill="#000000">SvtxCluster_v1::SvtxCluster_v1</text>
</a>
</g>
</g>
<!-- Node11&#45;&gt;Node12 -->
<g id="edge15" class="edge">
<title>Node11&#45;&gt;Node12</title>
<path fill="none" stroke="#191970" d="M294.9122,-60.6094C309.3303,-56.4286 324.6596,-52.1581 339,-48.5 351.284,-45.3664 364.6247,-42.2909 377.0849,-39.5578"/>
<polygon fill="#191970" stroke="#191970" points="293.7139,-57.3133 285.0994,-63.481 295.6799,-64.0315 293.7139,-57.3133"/>
</g>
<!-- Node13 -->
<g id="node13" class="node">
<title>Node13</title>
<g id="a_node13"><a xlink:href="../../d7/df6/classSvtxCluster__v1.html#ac84c0141aa8bae7a3e8e636a6d7d7ed5" target="_top" xlink:title="Virtual copy constructor.">
<polygon fill="none" stroke="#000000" points="549,-39.5 549,-59.5 691,-59.5 691,-39.5 549,-39.5"/>
<text text-anchor="middle" x="620" y="-46.5" font-family="FreeSans" font-size="10.00" fill="#000000">SvtxCluster_v1::CloneMe</text>
</a>
</g>
</g>
<!-- Node12&#45;&gt;Node13 -->
<g id="edge16" class="edge">
<title>Node12&#45;&gt;Node13</title>
<path fill="none" stroke="#191970" d="M523.215,-39.5222C531.8709,-40.4145 540.5246,-41.3067 548.9002,-42.1701"/>
<polygon fill="#191970" stroke="#191970" points="523.3754,-36.0202 513.0692,-38.4762 522.6575,-42.9833 523.3754,-36.0202"/>
</g>
<!-- Node14 -->
<g id="node14" class="node">
<title>Node14</title>
<g id="a_node14"><a xlink:href="../../d7/df6/classSvtxCluster__v1.html#a7f5a8df56285dd069d32e4ba488e9e9a" target="_top" xlink:title="Clear Event.">
<polygon fill="none" stroke="#000000" points="556.5,-.5 556.5,-20.5 683.5,-20.5 683.5,-.5 556.5,-.5"/>
<text text-anchor="middle" x="620" y="-7.5" font-family="FreeSans" font-size="10.00" fill="#000000">SvtxCluster_v1::Reset</text>
</a>
</g>
</g>
<!-- Node12&#45;&gt;Node14 -->
<g id="edge17" class="edge">
<title>Node12&#45;&gt;Node14</title>
<path fill="none" stroke="#191970" d="M523.0276,-19.9973C534.3773,-18.8857 545.7264,-17.7742 556.4535,-16.7236"/>
<polygon fill="#191970" stroke="#191970" points="522.6804,-16.5145 513.0692,-20.9726 523.3628,-23.4811 522.6804,-16.5145"/>
</g>
<!-- Node15&#45;&gt;Node12 -->
<g id="edge19" class="edge">
<title>Node15&#45;&gt;Node12</title>
<path fill="none" stroke="#191970" d="M312.2967,-30.6783C321.047,-30.5876 329.9922,-30.4949 338.8321,-30.4033"/>
<polygon fill="#191970" stroke="#191970" points="312.0955,-27.1801 302.1323,-30.7836 312.1681,-34.1797 312.0955,-27.1801"/>
</g>
</g>
</svg>
