<?xml version="1.0" encoding="UTF-8" standalone="no"?>
<!DOCTYPE svg PUBLIC "-//W3C//DTD SVG 1.1//EN"
 "http://www.w3.org/Graphics/SVG/1.1/DTD/svg11.dtd">
<!-- Generated by graphviz version 2.40.1 (20161225.0304)
 -->
<!-- Title: Conversion::trackDLayer Pages: 1 -->
<svg width="353pt" height="158pt"
 viewBox="0.00 0.00 353.00 158.00" xmlns="http://www.w3.org/2000/svg" xmlns:xlink="http://www.w3.org/1999/xlink">
<g id="graph0" class="graph" transform="scale(1 1) rotate(0) translate(4 154)">
<title>Conversion::trackDLayer</title>
<!-- Node1 -->
<g id="node1" class="node">
<title>Node1</title>
<polygon fill="#bfbfbf" stroke="#000000" points="0,-61.5 0,-81.5 141,-81.5 141,-61.5 0,-61.5"/>
<text text-anchor="middle" x="70.5" y="-68.5" font-family="FreeSans" font-size="10.00" fill="#000000">Conversion::trackDLayer</text>
</g>
<!-- Node2 -->
<g id="node2" class="node">
<title>Node2</title>
<g id="a_node2"><a xlink:href="../../d2/db8/classSvtxTrack.html#a6d8dace95bd6d93aa08d66c5e2c3ad85" target="_top" xlink:title="SvtxTrack::begin_cluster_keys">
<polygon fill="none" stroke="#000000" points="177,-129.5 177,-149.5 345,-149.5 345,-129.5 177,-129.5"/>
<text text-anchor="middle" x="261" y="-136.5" font-family="FreeSans" font-size="10.00" fill="#000000">SvtxTrack::begin_cluster_keys</text>
</a>
</g>
</g>
<!-- Node1&#45;&gt;Node2 -->
<g id="edge1" class="edge">
<title>Node1&#45;&gt;Node2</title>
<path fill="none" stroke="#191970" d="M89.248,-81.5859C110.1469,-92.4796 145.1957,-109.7187 177,-120.5 183.9905,-122.8697 191.4087,-125.032 198.8296,-126.9788"/>
<polygon fill="#191970" stroke="#191970" points="198.0003,-130.3791 208.551,-129.4132 199.7007,-123.5888 198.0003,-130.3791"/>
</g>
<!-- Node3 -->
<g id="node3" class="node">
<title>Node3</title>
<g id="a_node3"><a xlink:href="../../d0/d2c/classTrkrClusterContainer.html#a2b2eea90672ac17f6439c932d2a144ad" target="_top" xlink:title="TrkrClusterContainer\l::findCluster">
<polygon fill="none" stroke="#000000" points="200,-78.5 200,-110.5 322,-110.5 322,-78.5 200,-78.5"/>
<text text-anchor="start" x="208" y="-97.5" font-family="FreeSans" font-size="10.00" fill="#000000">TrkrClusterContainer</text>
<text text-anchor="middle" x="261" y="-85.5" font-family="FreeSans" font-size="10.00" fill="#000000">::findCluster</text>
</a>
</g>
</g>
<!-- Node1&#45;&gt;Node3 -->
<g id="edge2" class="edge">
<title>Node1&#45;&gt;Node3</title>
<path fill="none" stroke="#191970" d="M141.1645,-80.0317C156.9731,-81.9403 173.7517,-83.9661 189.5903,-85.8784"/>
<polygon fill="#191970" stroke="#191970" points="189.4957,-89.3923 199.8432,-87.1162 190.3349,-82.4427 189.4957,-89.3923"/>
</g>
<!-- Node4 -->
<g id="node4" class="node">
<title>Node4</title>
<g id="a_node4"><a xlink:href="../../d6/dfa/classTrkrCluster.html#ab18c56f7c1aa174203dcf8fbf0141279" target="_top" xlink:title="TrkrCluster::getClusKey">
<polygon fill="none" stroke="#000000" points="193.5,-39.5 193.5,-59.5 328.5,-59.5 328.5,-39.5 193.5,-39.5"/>
<text text-anchor="middle" x="261" y="-46.5" font-family="FreeSans" font-size="10.00" fill="#000000">TrkrCluster::getClusKey</text>
</a>
</g>
</g>
<!-- Node1&#45;&gt;Node4 -->
<g id="edge3" class="edge">
<title>Node1&#45;&gt;Node4</title>
<path fill="none" stroke="#191970" d="M141.1645,-63.3393C154.8827,-61.755 169.3312,-60.0864 183.2622,-58.4776"/>
<polygon fill="#191970" stroke="#191970" points="183.7644,-61.943 193.2968,-57.3187 182.9612,-54.9892 183.7644,-61.943"/>
</g>
<!-- Node5 -->
<g id="node5" class="node">
<title>Node5</title>
<g id="a_node5"><a xlink:href="../../d6/d3f/namespaceTrkrDefs.html#ad4a7fd368bbf1d5d97ff4fd3e81a6100" target="_top" xlink:title="Get the layer number from either key type.">
<polygon fill="none" stroke="#000000" points="205.5,-.5 205.5,-20.5 316.5,-20.5 316.5,-.5 205.5,-.5"/>
<text text-anchor="middle" x="261" y="-7.5" font-family="FreeSans" font-size="10.00" fill="#000000">TrkrDefs::getLayer</text>
</a>
</g>
</g>
<!-- Node1&#45;&gt;Node5 -->
<g id="edge4" class="edge">
<title>Node1&#45;&gt;Node5</title>
<path fill="none" stroke="#191970" d="M93.8691,-61.463C115.2369,-52.5364 147.8572,-39.5346 177,-30.5 185.7277,-27.7943 195.0613,-25.2433 204.2176,-22.9266"/>
<polygon fill="#191970" stroke="#191970" points="205.1721,-26.2962 214.0463,-20.5085 203.4997,-19.4989 205.1721,-26.2962"/>
</g>
</g>
</svg>
