<?xml version="1.0" encoding="UTF-8" standalone="no"?>
<!DOCTYPE svg PUBLIC "-//W3C//DTD SVG 1.1//EN"
 "http://www.w3.org/Graphics/SVG/1.1/DTD/svg11.dtd">
<!-- Generated by graphviz version 2.40.1 (20161225.0304)
 -->
<!-- Title: coresoftware/blob/master/simulation/g4simulation/g4intt/PHG4InttDigitizer.cc Pages: 1 -->
<svg width="3144pt" height="407pt"
 viewBox="0.00 0.00 3143.74 407.00" xmlns="http://www.w3.org/2000/svg" xmlns:xlink="http://www.w3.org/1999/xlink">
<g id="graph0" class="graph" transform="scale(1 1) rotate(0) translate(4 403)">
<title>coresoftware/blob/master/simulation/g4simulation/g4intt/PHG4InttDigitizer.cc</title>
<!-- Node1 -->
<g id="node1" class="node">
<title>Node1</title>
<polygon fill="#bfbfbf" stroke="#000000" points="1948.7409,-354.5 1948.7409,-398.5 2102.7409,-398.5 2102.7409,-354.5 1948.7409,-354.5"/>
<text text-anchor="start" x="1956.7409" y="-385.5" font-family="FreeSans" font-size="10.00" fill="#000000">coresoftware/blob/master</text>
<text text-anchor="start" x="1956.7409" y="-373.5" font-family="FreeSans" font-size="10.00" fill="#000000">/simulation/g4simulation</text>
<text text-anchor="middle" x="2025.7409" y="-361.5" font-family="FreeSans" font-size="10.00" fill="#000000">/g4intt/PHG4InttDigitizer.cc</text>
</g>
<!-- Node2 -->
<g id="node2" class="node">
<title>Node2</title>
<g id="a_node2"><a xlink:href="../../d2/d51/PHG4InttDigitizer_8h.html" target="_top" xlink:title="PHG4InttDigitizer.h">
<polygon fill="none" stroke="#000000" points="441.7409,-240.5 441.7409,-260.5 553.7409,-260.5 553.7409,-240.5 441.7409,-240.5"/>
<text text-anchor="middle" x="497.7409" y="-247.5" font-family="FreeSans" font-size="10.00" fill="#000000">PHG4InttDigitizer.h</text>
</a>
</g>
</g>
<!-- Node1&#45;&gt;Node2 -->
<g id="edge1" class="edge">
<title>Node1&#45;&gt;Node2</title>
<path fill="none" stroke="#191970" d="M1948.6755,-374.9259C1656.681,-368.766 631.6253,-345.2859 567.7409,-318 543.6374,-307.705 523.0245,-285.0718 510.5332,-268.8516"/>
<polygon fill="#191970" stroke="#191970" points="513.2123,-266.5876 504.4585,-260.6192 507.5797,-270.7439 513.2123,-266.5876"/>
</g>
<!-- Node3 -->
<g id="node3" class="node">
<title>Node3</title>
<polygon fill="none" stroke="#bfbfbf" points="15.7409,-177.5 15.7409,-197.5 221.7409,-197.5 221.7409,-177.5 15.7409,-177.5"/>
<text text-anchor="middle" x="118.7409" y="-184.5" font-family="FreeSans" font-size="10.00" fill="#000000">phparameter/PHParameterInterface.h</text>
</g>
<!-- Node1&#45;&gt;Node3 -->
<g id="edge50" class="edge">
<title>Node1&#45;&gt;Node3</title>
<path fill="none" stroke="#191970" d="M1948.483,-375.9601C1639.8398,-373.5095 504.4882,-361.5889 349.7409,-318 265.1872,-294.1831 178.4139,-233.4278 139.6531,-203.9874"/>
<polygon fill="#191970" stroke="#191970" points="141.342,-200.8708 131.2825,-197.5458 137.0729,-206.4183 141.342,-200.8708"/>
</g>
<!-- Node4 -->
<g id="node4" class="node">
<title>Node4</title>
<g id="a_node4"><a xlink:href="../../d5/dc2/SubsysReco_8h.html" target="_top" xlink:title="fun4all/SubsysReco.h">
<polygon fill="none" stroke="#000000" points="239.7409,-177.5 239.7409,-197.5 363.7409,-197.5 363.7409,-177.5 239.7409,-177.5"/>
<text text-anchor="middle" x="301.7409" y="-184.5" font-family="FreeSans" font-size="10.00" fill="#000000">fun4all/SubsysReco.h</text>
</a>
</g>
</g>
<!-- Node1&#45;&gt;Node4 -->
<g id="edge59" class="edge">
<title>Node1&#45;&gt;Node4</title>
<path fill="none" stroke="#191970" d="M1948.5274,-375.8252C1631.8203,-372.7932 445.8084,-358.7517 377.7409,-318 336.6701,-293.4111 315.5251,-237.517 306.7745,-207.4783"/>
<polygon fill="#191970" stroke="#191970" points="310.1109,-206.4099 304.0974,-197.6871 303.3588,-208.2561 310.1109,-206.4099"/>
</g>
<!-- Node5 -->
<g id="node5" class="node">
<title>Node5</title>
<g id="a_node5"><a xlink:href="../../d2/de7/Fun4AllBase_8h.html" target="_top" xlink:title="Fun4AllBase.h">
<polygon fill="none" stroke="#000000" points="258.2409,-114.5 258.2409,-134.5 345.2409,-134.5 345.2409,-114.5 258.2409,-114.5"/>
<text text-anchor="middle" x="301.7409" y="-121.5" font-family="FreeSans" font-size="10.00" fill="#000000">Fun4AllBase.h</text>
</a>
</g>
</g>
<!-- Node1&#45;&gt;Node5 -->
<g id="edge57" class="edge">
<title>Node1&#45;&gt;Node5</title>
<path fill="none" stroke="#191970" d="M1948.6909,-375.4615C1634.0939,-371.0083 455.8991,-352.1831 292.7409,-318 158.8118,-289.9406 83.524,-317.2639 6.7409,-204 -1.4889,-191.86 -2.7884,-182.1491 6.7409,-171 22.2071,-152.905 167.2943,-136.842 248.0722,-129.2075"/>
<polygon fill="#191970" stroke="#191970" points="248.4371,-132.6887 258.0687,-128.2747 247.7867,-125.719 248.4371,-132.6887"/>
</g>
<!-- Node8 -->
<g id="node8" class="node">
<title>Node8</title>
<polygon fill="none" stroke="#bfbfbf" points="525.7409,-177.5 525.7409,-197.5 605.7409,-197.5 605.7409,-177.5 525.7409,-177.5"/>
<text text-anchor="middle" x="565.7409" y="-184.5" font-family="FreeSans" font-size="10.00" fill="#000000">gsl/gsl_rng.h</text>
</g>
<!-- Node1&#45;&gt;Node8 -->
<g id="edge101" class="edge">
<title>Node1&#45;&gt;Node8</title>
<path fill="none" stroke="#191970" d="M1948.6424,-376.0661C1725.1566,-374.2575 1079.8906,-364.9957 874.7409,-318 764.9269,-292.8438 644.6215,-231.1825 592.3941,-202.5561"/>
<polygon fill="#191970" stroke="#191970" points="593.8971,-199.3878 583.4522,-197.6116 590.5098,-205.5137 593.8971,-199.3878"/>
</g>
<!-- Node12 -->
<g id="node12" class="node">
<title>Node12</title>
<g id="a_node12"><a xlink:href="../../db/d1f/InttDeadMap_8h.html" target="_top" xlink:title="InttDeadMap.h">
<polygon fill="none" stroke="#000000" points="2672.7409,-177.5 2672.7409,-197.5 2762.7409,-197.5 2762.7409,-177.5 2672.7409,-177.5"/>
<text text-anchor="middle" x="2717.7409" y="-184.5" font-family="FreeSans" font-size="10.00" fill="#000000">InttDeadMap.h</text>
</a>
</g>
</g>
<!-- Node1&#45;&gt;Node12 -->
<g id="edge13" class="edge">
<title>Node1&#45;&gt;Node12</title>
<path fill="none" stroke="#191970" d="M2080.7624,-354.4975C2132.1575,-334.1423 2205.2465,-305.7527 2234.7409,-297 2421.7745,-241.4961 2474.9549,-253.2144 2663.7409,-204 2667.9029,-202.915 2672.2243,-201.7173 2676.5284,-200.4773"/>
<polygon fill="#191970" stroke="#191970" points="2677.8601,-203.7334 2686.4566,-197.5406 2675.8745,-197.0209 2677.8601,-203.7334"/>
</g>
<!-- Node17 -->
<g id="node17" class="node">
<title>Node17</title>
<polygon fill="none" stroke="#bfbfbf" points="1992.7409,-.5 1992.7409,-20.5 2052.7409,-20.5 2052.7409,-.5 1992.7409,-.5"/>
<text text-anchor="middle" x="2022.7409" y="-7.5" font-family="FreeSans" font-size="10.00" fill="#000000">iostream</text>
</g>
<!-- Node1&#45;&gt;Node17 -->
<g id="edge105" class="edge">
<title>Node1&#45;&gt;Node17</title>
<path fill="none" stroke="#191970" d="M2046.8685,-354.4899C2081.0403,-319.4353 2147.641,-253.491 2177.7409,-240 2243.6461,-210.461 2452.5835,-257.823 2500.7409,-204 2527.4127,-174.1903 2523.4889,-146.9018 2500.7409,-114 2450.7884,-41.7508 2169.3679,-18.6807 2063.2427,-12.4886"/>
<polygon fill="#191970" stroke="#191970" points="2063.1263,-8.9766 2052.9453,-11.909 2062.7328,-15.9655 2063.1263,-8.9766"/>
</g>
<!-- Node19 -->
<g id="node19" class="node">
<title>Node19</title>
<g id="a_node19"><a xlink:href="../../d9/d44/PHG4CylinderGeom_8h.html" target="_top" xlink:title="g4detectors/PHG4Cylinder\lGeom.h">
<polygon fill="none" stroke="#000000" points="1776.2409,-171.5 1776.2409,-203.5 1927.2409,-203.5 1927.2409,-171.5 1776.2409,-171.5"/>
<text text-anchor="start" x="1784.2409" y="-190.5" font-family="FreeSans" font-size="10.00" fill="#000000">g4detectors/PHG4Cylinder</text>
<text text-anchor="middle" x="1851.7409" y="-178.5" font-family="FreeSans" font-size="10.00" fill="#000000">Geom.h</text>
</a>
</g>
</g>
<!-- Node1&#45;&gt;Node19 -->
<g id="edge21" class="edge">
<title>Node1&#45;&gt;Node19</title>
<path fill="none" stroke="#191970" d="M2005.4404,-354.4494C1972.5196,-318.6906 1907.755,-248.3429 1873.7614,-211.4188"/>
<polygon fill="#191970" stroke="#191970" points="1875.9518,-208.6304 1866.6037,-203.644 1870.8018,-213.3716 1875.9518,-208.6304"/>
</g>
<!-- Node20 -->
<g id="node20" class="node">
<title>Node20</title>
<g id="a_node20"><a xlink:href="../../d5/d6f/phool_8h.html" target="_top" xlink:title="phool/phool.h">
<polygon fill="none" stroke="#000000" points="1705.2409,-114.5 1705.2409,-134.5 1790.2409,-134.5 1790.2409,-114.5 1705.2409,-114.5"/>
<text text-anchor="middle" x="1747.7409" y="-121.5" font-family="FreeSans" font-size="10.00" fill="#000000">phool/phool.h</text>
</a>
</g>
</g>
<!-- Node1&#45;&gt;Node20 -->
<g id="edge98" class="edge">
<title>Node1&#45;&gt;Node20</title>
<path fill="none" stroke="#191970" d="M1971.0693,-354.3956C1911.8924,-327.6291 1819.1141,-276.888 1767.7409,-204 1755.3652,-186.4414 1750.6304,-161.9515 1748.8285,-144.8075"/>
<polygon fill="#191970" stroke="#191970" points="1752.3099,-144.4351 1748.017,-134.749 1745.3326,-144.998 1752.3099,-144.4351"/>
</g>
<!-- Node22 -->
<g id="node22" class="node">
<title>Node22</title>
<g id="a_node22"><a xlink:href="../../d6/db8/PHG4CylinderGeomContainer_8h.html" target="_top" xlink:title="g4detectors/PHG4Cylinder\lGeomContainer.h">
<polygon fill="none" stroke="#000000" points="1945.2409,-171.5 1945.2409,-203.5 2096.2409,-203.5 2096.2409,-171.5 1945.2409,-171.5"/>
<text text-anchor="start" x="1953.2409" y="-190.5" font-family="FreeSans" font-size="10.00" fill="#000000">g4detectors/PHG4Cylinder</text>
<text text-anchor="middle" x="2020.7409" y="-178.5" font-family="FreeSans" font-size="10.00" fill="#000000">GeomContainer.h</text>
</a>
</g>
</g>
<!-- Node1&#45;&gt;Node22 -->
<g id="edge27" class="edge">
<title>Node1&#45;&gt;Node22</title>
<path fill="none" stroke="#191970" d="M2019.1811,-354.4978C2016.2722,-343.6231 2013.1849,-330.2379 2011.7409,-318 2007.6787,-283.5722 2008.8016,-274.5418 2011.7409,-240 2012.4686,-231.448 2013.8517,-222.1964 2015.3192,-213.8765"/>
<polygon fill="#191970" stroke="#191970" points="2018.7758,-214.4331 2017.1803,-203.9591 2011.8959,-213.1419 2018.7758,-214.4331"/>
</g>
<!-- Node23 -->
<g id="node23" class="node">
<title>Node23</title>
<g id="a_node23"><a xlink:href="../../d8/d00/TrkrDefs_8h.html" target="_top" xlink:title="Namespace with Trkr key types and utility functions.">
<polygon fill="none" stroke="#000000" points="2371.7409,-114.5 2371.7409,-134.5 2491.7409,-134.5 2491.7409,-114.5 2371.7409,-114.5"/>
<text text-anchor="middle" x="2431.7409" y="-121.5" font-family="FreeSans" font-size="10.00" fill="#000000">trackbase/TrkrDefs.h</text>
</a>
</g>
</g>
<!-- Node1&#45;&gt;Node23 -->
<g id="edge32" class="edge">
<title>Node1&#45;&gt;Node23</title>
<path fill="none" stroke="#191970" d="M2038.9341,-354.2222C2060.2069,-319.1191 2102.087,-253.5237 2125.7409,-240 2195.1539,-200.3146 2430.1059,-263.299 2483.7409,-204 2501.6139,-184.2396 2476.2194,-157.7586 2455.0493,-140.909"/>
<polygon fill="#191970" stroke="#191970" points="2457.0302,-138.0182 2446.9532,-134.7464 2452.7904,-143.5882 2457.0302,-138.0182"/>
</g>
<!-- Node24 -->
<g id="node24" class="node">
<title>Node24</title>
<g id="a_node24"><a xlink:href="../../d9/d1a/TrkrHit_8h.html" target="_top" xlink:title="Base class for hit object.">
<polygon fill="none" stroke="#000000" points="1608.2409,-177.5 1608.2409,-197.5 1719.2409,-197.5 1719.2409,-177.5 1608.2409,-177.5"/>
<text text-anchor="middle" x="1663.7409" y="-184.5" font-family="FreeSans" font-size="10.00" fill="#000000">trackbase/TrkrHit.h</text>
</a>
</g>
</g>
<!-- Node1&#45;&gt;Node24 -->
<g id="edge35" class="edge">
<title>Node1&#45;&gt;Node24</title>
<path fill="none" stroke="#191970" d="M1948.4139,-368.511C1873.7137,-359.486 1767.1196,-342.7529 1733.7409,-318 1731.2398,-316.1452 1692.4162,-242.3238 1673.6924,-206.55"/>
<polygon fill="#191970" stroke="#191970" points="1676.7269,-204.7998 1668.9912,-197.5603 1670.5239,-208.0437 1676.7269,-204.7998"/>
</g>
<!-- Node25 -->
<g id="node25" class="node">
<title>Node25</title>
<g id="a_node25"><a xlink:href="../../d8/d2e/TrkrHitSet_8h.html" target="_top" xlink:title="Container for storing TrkrHit&#39;s.">
<polygon fill="none" stroke="#000000" points="2346.7409,-177.5 2346.7409,-197.5 2474.7409,-197.5 2474.7409,-177.5 2346.7409,-177.5"/>
<text text-anchor="middle" x="2410.7409" y="-184.5" font-family="FreeSans" font-size="10.00" fill="#000000">trackbase/TrkrHitSet.h</text>
</a>
</g>
</g>
<!-- Node1&#45;&gt;Node25 -->
<g id="edge38" class="edge">
<title>Node1&#45;&gt;Node25</title>
<path fill="none" stroke="#191970" d="M2029.0798,-354.4708C2035.0111,-323.557 2050.4754,-267.9625 2087.7409,-240 2132.6361,-206.3125 2282.546,-214.1952 2337.7409,-204 2344.5228,-202.7473 2351.6306,-201.3047 2358.6376,-199.8049"/>
<polygon fill="#191970" stroke="#191970" points="2359.7628,-203.1415 2368.7818,-197.582 2358.2644,-196.3037 2359.7628,-203.1415"/>
</g>
<!-- Node26 -->
<g id="node26" class="node">
<title>Node26</title>
<g id="a_node26"><a xlink:href="../../d4/dbe/TrkrHitSetContainer_8h.html" target="_top" xlink:title="trackbase/TrkrHitSetContainer.h">
<polygon fill="none" stroke="#000000" points="2152.7409,-177.5 2152.7409,-197.5 2328.7409,-197.5 2328.7409,-177.5 2152.7409,-177.5"/>
<text text-anchor="middle" x="2240.7409" y="-184.5" font-family="FreeSans" font-size="10.00" fill="#000000">trackbase/TrkrHitSetContainer.h</text>
</a>
</g>
</g>
<!-- Node1&#45;&gt;Node26 -->
<g id="edge44" class="edge">
<title>Node1&#45;&gt;Node26</title>
<path fill="none" stroke="#191970" d="M2022.9776,-354.2717C2020.5802,-324.3934 2021.1584,-271.4103 2049.7409,-240 2065.7851,-222.3686 2120.4689,-208.4366 2167.2356,-199.3681"/>
<polygon fill="#191970" stroke="#191970" points="2167.9026,-202.8041 2177.0783,-197.5073 2166.6021,-195.926 2167.9026,-202.8041"/>
</g>
<!-- Node27 -->
<g id="node27" class="node">
<title>Node27</title>
<g id="a_node27"><a xlink:href="../../df/dfe/InttDefs_8h.html" target="_top" xlink:title="Utility functions for INTT.">
<polygon fill="none" stroke="#000000" points="2568.7409,-177.5 2568.7409,-197.5 2654.7409,-197.5 2654.7409,-177.5 2568.7409,-177.5"/>
<text text-anchor="middle" x="2611.7409" y="-184.5" font-family="FreeSans" font-size="10.00" fill="#000000">intt/InttDefs.h</text>
</a>
</g>
</g>
<!-- Node1&#45;&gt;Node27 -->
<g id="edge51" class="edge">
<title>Node1&#45;&gt;Node27</title>
<path fill="none" stroke="#191970" d="M2093.3076,-354.4308C2114.24,-345.393 2136.3505,-333.3734 2153.7409,-318 2184.2378,-291.0403 2167.2619,-261.6352 2201.7409,-240 2268.5319,-198.0894 2477.3341,-219.0235 2554.7409,-204 2560.1137,-202.9572 2565.7112,-201.6367 2571.2088,-200.1986"/>
<polygon fill="#191970" stroke="#191970" points="2572.2175,-203.5511 2580.9265,-197.5176 2570.3558,-196.8032 2572.2175,-203.5511"/>
</g>
<!-- Node28 -->
<g id="node28" class="node">
<title>Node28</title>
<g id="a_node28"><a xlink:href="../../d3/d63/InttHit_8h.html" target="_top" xlink:title="Intt hit object.">
<polygon fill="none" stroke="#000000" points="1604.2409,-240.5 1604.2409,-260.5 1681.2409,-260.5 1681.2409,-240.5 1604.2409,-240.5"/>
<text text-anchor="middle" x="1642.7409" y="-247.5" font-family="FreeSans" font-size="10.00" fill="#000000">intt/InttHit.h</text>
</a>
</g>
</g>
<!-- Node1&#45;&gt;Node28 -->
<g id="edge54" class="edge">
<title>Node1&#45;&gt;Node28</title>
<path fill="none" stroke="#191970" d="M1948.548,-369.2259C1864.7603,-360.22 1737.3423,-342.9542 1695.7409,-318 1676.4834,-306.4486 1661.5306,-285.1019 1652.4887,-269.4978"/>
<polygon fill="#191970" stroke="#191970" points="1655.5185,-267.7436 1647.6371,-260.663 1649.3827,-271.1131 1655.5185,-267.7436"/>
</g>
<!-- Node29 -->
<g id="node29" class="node">
<title>Node29</title>
<g id="a_node29"><a xlink:href="../../da/dc1/Fun4AllReturnCodes_8h.html" target="_top" xlink:title="fun4all/Fun4AllReturnCodes.h">
<polygon fill="none" stroke="#000000" points="2243.7409,-297.5 2243.7409,-317.5 2409.7409,-317.5 2409.7409,-297.5 2243.7409,-297.5"/>
<text text-anchor="middle" x="2326.7409" y="-304.5" font-family="FreeSans" font-size="10.00" fill="#000000">fun4all/Fun4AllReturnCodes.h</text>
</a>
</g>
</g>
<!-- Node1&#45;&gt;Node29 -->
<g id="edge58" class="edge">
<title>Node1&#45;&gt;Node29</title>
<path fill="none" stroke="#191970" d="M2102.865,-358.8204C2156.2034,-346.5933 2225.8214,-330.6344 2273.1666,-319.7812"/>
<polygon fill="#191970" stroke="#191970" points="2273.9525,-323.1919 2282.9176,-317.5459 2272.3884,-316.3688 2273.9525,-323.1919"/>
</g>
<!-- Node30 -->
<g id="node30" class="node">
<title>Node30</title>
<g id="a_node30"><a xlink:href="../../d8/d30/PHCompositeNode_8h.html" target="_top" xlink:title="phool/PHCompositeNode.h">
<polygon fill="none" stroke="#000000" points="662.2409,-177.5 662.2409,-197.5 813.2409,-197.5 813.2409,-177.5 662.2409,-177.5"/>
<text text-anchor="middle" x="737.7409" y="-184.5" font-family="FreeSans" font-size="10.00" fill="#000000">phool/PHCompositeNode.h</text>
</a>
</g>
</g>
<!-- Node1&#45;&gt;Node30 -->
<g id="edge60" class="edge">
<title>Node1&#45;&gt;Node30</title>
<path fill="none" stroke="#191970" d="M1948.6749,-374.4273C1715.2257,-367.8648 1025.8448,-346.2949 928.7409,-318 855.829,-296.7543 786.4157,-235.6894 755.1164,-205.225"/>
<polygon fill="#191970" stroke="#191970" points="757.2306,-202.3928 747.6633,-197.8413 752.3041,-207.3657 757.2306,-202.3928"/>
</g>
<!-- Node31 -->
<g id="node31" class="node">
<title>Node31</title>
<g id="a_node31"><a xlink:href="../../d3/d62/PHNode_8h.html" target="_top" xlink:title="PHNode.h">
<polygon fill="none" stroke="#000000" points="705.2409,-114.5 705.2409,-134.5 770.2409,-134.5 770.2409,-114.5 705.2409,-114.5"/>
<text text-anchor="middle" x="737.7409" y="-121.5" font-family="FreeSans" font-size="10.00" fill="#000000">PHNode.h</text>
</a>
</g>
</g>
<!-- Node1&#45;&gt;Node31 -->
<g id="edge67" class="edge">
<title>Node1&#45;&gt;Node31</title>
<path fill="none" stroke="#191970" d="M1948.3373,-375.5965C1661.6896,-371.9589 670.0432,-356.6774 533.7409,-318 484.1546,-303.9293 466.4435,-299.9991 432.7409,-261 405.8165,-229.8443 383.7512,-202.0992 410.7409,-171 429.1415,-149.7977 610.7434,-133.8228 695.0911,-127.4849"/>
<polygon fill="#191970" stroke="#191970" points="695.4046,-130.9713 705.1188,-126.7424 694.8877,-123.9905 695.4046,-130.9713"/>
</g>
<!-- Node34 -->
<g id="node34" class="node">
<title>Node34</title>
<g id="a_node34"><a xlink:href="../../d8/dfd/PHNodeIterator_8h.html" target="_top" xlink:title="phool/PHNodeIterator.h">
<polygon fill="none" stroke="#000000" points="1077.7409,-114.5 1077.7409,-134.5 1211.7409,-134.5 1211.7409,-114.5 1077.7409,-114.5"/>
<text text-anchor="middle" x="1144.7409" y="-121.5" font-family="FreeSans" font-size="10.00" fill="#000000">phool/PHNodeIterator.h</text>
</a>
</g>
</g>
<!-- Node1&#45;&gt;Node34 -->
<g id="edge68" class="edge">
<title>Node1&#45;&gt;Node34</title>
<path fill="none" stroke="#191970" d="M1948.4993,-367.118C1875.7573,-357.5126 1764.0353,-340.7703 1668.7409,-318 1505.5057,-278.9954 1464.6598,-266.1002 1308.7409,-204 1259.724,-184.4773 1204.9813,-156.6573 1172.7689,-139.6322"/>
<polygon fill="#191970" stroke="#191970" points="1173.999,-136.3222 1163.5265,-134.7163 1170.7117,-142.5024 1173.999,-136.3222"/>
</g>
<!-- Node35 -->
<g id="node35" class="node">
<title>Node35</title>
<g id="a_node35"><a xlink:href="../../de/dea/PHRandomSeed_8h.html" target="_top" xlink:title="phool/PHRandomSeed.h">
<polygon fill="none" stroke="#000000" points="2427.7409,-297.5 2427.7409,-317.5 2565.7409,-317.5 2565.7409,-297.5 2427.7409,-297.5"/>
<text text-anchor="middle" x="2496.7409" y="-304.5" font-family="FreeSans" font-size="10.00" fill="#000000">phool/PHRandomSeed.h</text>
</a>
</g>
</g>
<!-- Node1&#45;&gt;Node35 -->
<g id="edge71" class="edge">
<title>Node1&#45;&gt;Node35</title>
<path fill="none" stroke="#191970" d="M2102.9896,-365.1833C2189.9748,-352.4403 2330.5717,-331.8433 2418.1172,-319.0181"/>
<polygon fill="#191970" stroke="#191970" points="2418.8728,-322.4449 2428.2599,-317.5323 2417.8581,-315.5188 2418.8728,-322.4449"/>
</g>
<!-- Node36 -->
<g id="node36" class="node">
<title>Node36</title>
<g id="a_node36"><a xlink:href="../../dd/dd4/getClass_8h.html" target="_top" xlink:title="phool/getClass.h">
<polygon fill="none" stroke="#000000" points="937.7409,-297.5 937.7409,-317.5 1037.7409,-317.5 1037.7409,-297.5 937.7409,-297.5"/>
<text text-anchor="middle" x="987.7409" y="-304.5" font-family="FreeSans" font-size="10.00" fill="#000000">phool/getClass.h</text>
</a>
</g>
</g>
<!-- Node1&#45;&gt;Node36 -->
<g id="edge72" class="edge">
<title>Node1&#45;&gt;Node36</title>
<path fill="none" stroke="#191970" d="M1948.5702,-371.3702C1750.369,-358.1949 1226.5192,-323.3725 1048.1846,-311.5179"/>
<polygon fill="#191970" stroke="#191970" points="1048.1539,-308.0083 1037.9438,-310.8372 1047.6896,-314.9928 1048.1539,-308.0083"/>
</g>
<!-- Node44 -->
<g id="node44" class="node">
<title>Node44</title>
<polygon fill="none" stroke="#bfbfbf" points="2583.7409,-297.5 2583.7409,-317.5 2653.7409,-317.5 2653.7409,-297.5 2583.7409,-297.5"/>
<text text-anchor="middle" x="2618.7409" y="-304.5" font-family="FreeSans" font-size="10.00" fill="#000000">TSystem.h</text>
</g>
<!-- Node1&#45;&gt;Node44 -->
<g id="edge99" class="edge">
<title>Node1&#45;&gt;Node44</title>
<path fill="none" stroke="#191970" d="M2103.0003,-371.4027C2207.6271,-363.8016 2400.2584,-347.3395 2573.2295,-318.0922"/>
<polygon fill="#191970" stroke="#191970" points="2574.0126,-321.5092 2583.28,-316.3745 2572.8332,-314.6093 2574.0126,-321.5092"/>
</g>
<!-- Node45 -->
<g id="node45" class="node">
<title>Node45</title>
<polygon fill="none" stroke="#bfbfbf" points="2671.7409,-297.5 2671.7409,-317.5 2769.7409,-317.5 2769.7409,-297.5 2671.7409,-297.5"/>
<text text-anchor="middle" x="2720.7409" y="-304.5" font-family="FreeSans" font-size="10.00" fill="#000000">gsl/gsl_randist.h</text>
</g>
<!-- Node1&#45;&gt;Node45 -->
<g id="edge100" class="edge">
<title>Node1&#45;&gt;Node45</title>
<path fill="none" stroke="#191970" d="M2102.9603,-371.5982C2221.1051,-363.6134 2453.984,-345.9642 2661.2639,-318.1075"/>
<polygon fill="#191970" stroke="#191970" points="2661.9871,-321.5416 2671.4267,-316.7307 2661.0473,-314.605 2661.9871,-321.5416"/>
</g>
<!-- Node46 -->
<g id="node46" class="node">
<title>Node46</title>
<polygon fill="none" stroke="#bfbfbf" points="2787.2409,-297.5 2787.2409,-317.5 2840.2409,-317.5 2840.2409,-297.5 2787.2409,-297.5"/>
<text text-anchor="middle" x="2813.7409" y="-304.5" font-family="FreeSans" font-size="10.00" fill="#000000">cassert</text>
</g>
<!-- Node1&#45;&gt;Node46 -->
<g id="edge102" class="edge">
<title>Node1&#45;&gt;Node46</title>
<path fill="none" stroke="#191970" d="M2102.9669,-372.6016C2264.1942,-364.1278 2632.9114,-342.9148 2777.142,-317.928"/>
<polygon fill="#191970" stroke="#191970" points="2777.9145,-321.3452 2787.1327,-316.1226 2776.6696,-314.4567 2777.9145,-321.3452"/>
</g>
<!-- Node47 -->
<g id="node47" class="node">
<title>Node47</title>
<polygon fill="none" stroke="#bfbfbf" points="2858.2409,-297.5 2858.2409,-317.5 2903.2409,-317.5 2903.2409,-297.5 2858.2409,-297.5"/>
<text text-anchor="middle" x="2880.7409" y="-304.5" font-family="FreeSans" font-size="10.00" fill="#000000">cfloat</text>
</g>
<!-- Node1&#45;&gt;Node47 -->
<g id="edge103" class="edge">
<title>Node1&#45;&gt;Node47</title>
<path fill="none" stroke="#191970" d="M2102.9459,-373.5401C2275.6682,-366.5185 2689.8762,-347.3556 2848.185,-317.8253"/>
<polygon fill="#191970" stroke="#191970" points="2849.0919,-321.2145 2858.2371,-315.8652 2847.7521,-314.3439 2849.0919,-321.2145"/>
</g>
<!-- Node48 -->
<g id="node48" class="node">
<title>Node48</title>
<polygon fill="none" stroke="#bfbfbf" points="2921.7409,-297.5 2921.7409,-317.5 2971.7409,-317.5 2971.7409,-297.5 2921.7409,-297.5"/>
<text text-anchor="middle" x="2946.7409" y="-304.5" font-family="FreeSans" font-size="10.00" fill="#000000">cstdlib</text>
</g>
<!-- Node1&#45;&gt;Node48 -->
<g id="edge104" class="edge">
<title>Node1&#45;&gt;Node48</title>
<path fill="none" stroke="#191970" d="M2102.8713,-373.7276C2285.2771,-366.8054 2740.0975,-347.3106 2911.7378,-317.743"/>
<polygon fill="#191970" stroke="#191970" points="2912.4289,-321.175 2921.6537,-315.964 2911.1928,-314.285 2912.4289,-321.175"/>
</g>
<!-- Node49 -->
<g id="node49" class="node">
<title>Node49</title>
<polygon fill="none" stroke="#bfbfbf" points="2989.7409,-297.5 2989.7409,-317.5 3047.7409,-317.5 3047.7409,-297.5 2989.7409,-297.5"/>
<text text-anchor="middle" x="3018.7409" y="-304.5" font-family="FreeSans" font-size="10.00" fill="#000000">memory</text>
</g>
<!-- Node1&#45;&gt;Node49 -->
<g id="edge106" class="edge">
<title>Node1&#45;&gt;Node49</title>
<path fill="none" stroke="#191970" d="M2102.9137,-373.8491C2295.3955,-366.9099 2793.9434,-346.8418 2979.4977,-317.8614"/>
<polygon fill="#191970" stroke="#191970" points="2980.1071,-321.3084 2989.4179,-316.2527 2978.9866,-314.3986 2980.1071,-321.3084"/>
</g>
<!-- Node50 -->
<g id="node50" class="node">
<title>Node50</title>
<polygon fill="none" stroke="#bfbfbf" points="3065.7409,-297.5 3065.7409,-317.5 3135.7409,-317.5 3135.7409,-297.5 3065.7409,-297.5"/>
<text text-anchor="middle" x="3100.7409" y="-304.5" font-family="FreeSans" font-size="10.00" fill="#000000">type_traits</text>
</g>
<!-- Node1&#45;&gt;Node50 -->
<g id="edge107" class="edge">
<title>Node1&#45;&gt;Node50</title>
<path fill="none" stroke="#191970" d="M2102.918,-373.8997C2306.1213,-366.7738 2853.5608,-345.6993 3055.1087,-317.9794"/>
<polygon fill="#191970" stroke="#191970" points="3055.8977,-321.4024 3065.3043,-316.5275 3054.9107,-314.4723 3055.8977,-321.4024"/>
</g>
<!-- Node2&#45;&gt;Node3 -->
<g id="edge2" class="edge">
<title>Node2&#45;&gt;Node3</title>
<path fill="none" stroke="#191970" d="M441.41,-241.1363C374.2524,-229.9729 261.9741,-211.3092 189.1507,-199.204"/>
<polygon fill="#191970" stroke="#191970" points="189.5843,-195.7281 179.1457,-197.5409 188.4364,-202.6334 189.5843,-195.7281"/>
</g>
<!-- Node2&#45;&gt;Node4 -->
<g id="edge3" class="edge">
<title>Node2&#45;&gt;Node4</title>
<path fill="none" stroke="#191970" d="M466.2501,-240.378C432.8176,-229.6318 379.8319,-212.6007 343.0642,-200.7825"/>
<polygon fill="#191970" stroke="#191970" points="343.7449,-197.325 333.1536,-197.5969 341.6028,-203.9892 343.7449,-197.325"/>
</g>
<!-- Node7 -->
<g id="node7" class="node">
<title>Node7</title>
<polygon fill="none" stroke="#bfbfbf" points="819.2409,-57.5 819.2409,-77.5 864.2409,-77.5 864.2409,-57.5 819.2409,-57.5"/>
<text text-anchor="middle" x="841.7409" y="-64.5" font-family="FreeSans" font-size="10.00" fill="#000000">string</text>
</g>
<!-- Node2&#45;&gt;Node7 -->
<g id="edge10" class="edge">
<title>Node2&#45;&gt;Node7</title>
<path fill="none" stroke="#191970" d="M497.1965,-240.2563C496.8871,-223.5435 498.7774,-190.339 516.7409,-171 557.265,-127.373 734.6899,-88.4172 808.9126,-73.7173"/>
<polygon fill="#191970" stroke="#191970" points="809.9442,-77.082 819.086,-71.7269 808.6,-70.2122 809.9442,-77.082"/>
</g>
<!-- Node2&#45;&gt;Node8 -->
<g id="edge8" class="edge">
<title>Node2&#45;&gt;Node8</title>
<path fill="none" stroke="#191970" d="M508.6663,-240.378C519.0141,-230.791 534.761,-216.202 547.0953,-204.7747"/>
<polygon fill="#191970" stroke="#191970" points="549.6598,-207.1699 554.6168,-197.8062 544.9024,-202.035 549.6598,-207.1699"/>
</g>
<!-- Node9 -->
<g id="node9" class="node">
<title>Node9</title>
<polygon fill="none" stroke="#bfbfbf" points="1913.2409,-114.5 1913.2409,-134.5 1952.2409,-134.5 1952.2409,-114.5 1913.2409,-114.5"/>
<text text-anchor="middle" x="1932.7409" y="-121.5" font-family="FreeSans" font-size="10.00" fill="#000000">map</text>
</g>
<!-- Node2&#45;&gt;Node9 -->
<g id="edge9" class="edge">
<title>Node2&#45;&gt;Node9</title>
<path fill="none" stroke="#191970" d="M554.0165,-248.9517C730.6225,-243.902 1272.4603,-226.9083 1446.7409,-204 1515.7114,-194.9342 1531.2213,-183.0072 1599.7409,-171 1717.2503,-150.4079 1747.6926,-152.2364 1865.7409,-135 1877.9611,-133.2157 1891.4152,-131.1309 1903.0405,-129.2913"/>
<polygon fill="#191970" stroke="#191970" points="1903.79,-132.7161 1913.1149,-127.6865 1902.6888,-125.8033 1903.79,-132.7161"/>
</g>
<!-- Node10 -->
<g id="node10" class="node">
<title>Node10</title>
<polygon fill="none" stroke="#bfbfbf" points="2140.2409,-114.5 2140.2409,-134.5 2185.2409,-134.5 2185.2409,-114.5 2140.2409,-114.5"/>
<text text-anchor="middle" x="2162.7409" y="-121.5" font-family="FreeSans" font-size="10.00" fill="#000000">utility</text>
</g>
<!-- Node2&#45;&gt;Node10 -->
<g id="edge11" class="edge">
<title>Node2&#45;&gt;Node10</title>
<path fill="none" stroke="#191970" d="M554.087,-249.5535C834.8551,-244.7528 2070.7776,-222.5968 2105.7409,-204 2129.8895,-191.1555 2146.2135,-163.007 2155.0003,-143.8944"/>
<polygon fill="#191970" stroke="#191970" points="2158.2598,-145.1746 2159.0092,-134.6063 2151.8329,-142.4006 2158.2598,-145.1746"/>
</g>
<!-- Node11 -->
<g id="node11" class="node">
<title>Node11</title>
<polygon fill="none" stroke="#bfbfbf" points="420.2409,-177.5 420.2409,-197.5 469.2409,-197.5 469.2409,-177.5 420.2409,-177.5"/>
<text text-anchor="middle" x="444.7409" y="-184.5" font-family="FreeSans" font-size="10.00" fill="#000000">vector</text>
</g>
<!-- Node2&#45;&gt;Node11 -->
<g id="edge12" class="edge">
<title>Node2&#45;&gt;Node11</title>
<path fill="none" stroke="#191970" d="M489.2256,-240.378C481.3908,-231.0649 469.5849,-217.0316 460.1039,-205.7617"/>
<polygon fill="#191970" stroke="#191970" points="462.5272,-203.2053 453.4112,-197.8062 457.1706,-207.7117 462.5272,-203.2053"/>
</g>
<!-- Node4&#45;&gt;Node5 -->
<g id="edge4" class="edge">
<title>Node4&#45;&gt;Node5</title>
<path fill="none" stroke="#191970" d="M301.7409,-177.378C301.7409,-168.7041 301.7409,-155.9355 301.7409,-145.1186"/>
<polygon fill="#191970" stroke="#191970" points="305.241,-144.8062 301.7409,-134.8062 298.241,-144.8062 305.241,-144.8062"/>
</g>
<!-- Node4&#45;&gt;Node7 -->
<g id="edge7" class="edge">
<title>Node4&#45;&gt;Node7</title>
<path fill="none" stroke="#191970" d="M321.6277,-177.4655C354.4839,-161.3504 422.5618,-129.9022 483.7409,-114 608.1617,-81.6596 643.3694,-95.4046 770.7409,-78 783.2497,-76.2908 796.9786,-74.2897 809.0025,-72.4956"/>
<polygon fill="#191970" stroke="#191970" points="809.6877,-75.932 819.0565,-70.9848 808.6474,-69.0098 809.6877,-75.932"/>
</g>
<!-- Node6 -->
<g id="node6" class="node">
<title>Node6</title>
<polygon fill="none" stroke="#bfbfbf" points="277.2409,-57.5 277.2409,-77.5 326.2409,-77.5 326.2409,-57.5 277.2409,-57.5"/>
<text text-anchor="middle" x="301.7409" y="-64.5" font-family="FreeSans" font-size="10.00" fill="#000000">climits</text>
</g>
<!-- Node5&#45;&gt;Node6 -->
<g id="edge5" class="edge">
<title>Node5&#45;&gt;Node6</title>
<path fill="none" stroke="#191970" d="M301.7409,-114.3095C301.7409,-106.9335 301.7409,-96.72 301.7409,-87.715"/>
<polygon fill="#191970" stroke="#191970" points="305.241,-87.6022 301.7409,-77.6022 298.241,-87.6023 305.241,-87.6022"/>
</g>
<!-- Node5&#45;&gt;Node7 -->
<g id="edge6" class="edge">
<title>Node5&#45;&gt;Node7</title>
<path fill="none" stroke="#191970" d="M345.4836,-119.894C363.2493,-118.0385 383.9729,-115.8935 402.7409,-114 566.2472,-97.5035 607.6295,-98.027 770.7409,-78 783.2718,-76.4614 797.0054,-74.496 809.0268,-72.6826"/>
<polygon fill="#191970" stroke="#191970" points="809.7225,-76.1169 819.077,-71.1426 808.6622,-69.1977 809.7225,-76.1169"/>
</g>
<!-- Node13 -->
<g id="node13" class="node">
<title>Node13</title>
<g id="a_node13"><a xlink:href="../../d5/d61/PHG4CellDefs_8h.html" target="_top" xlink:title="g4detectors/PHG4CellDefs.h">
<polygon fill="none" stroke="#000000" points="2606.2409,-114.5 2606.2409,-134.5 2765.2409,-134.5 2765.2409,-114.5 2606.2409,-114.5"/>
<text text-anchor="middle" x="2685.7409" y="-121.5" font-family="FreeSans" font-size="10.00" fill="#000000">g4detectors/PHG4CellDefs.h</text>
</a>
</g>
</g>
<!-- Node12&#45;&gt;Node13 -->
<g id="edge14" class="edge">
<title>Node12&#45;&gt;Node13</title>
<path fill="none" stroke="#191970" d="M2712.5996,-177.378C2708.0083,-168.3389 2701.1583,-154.853 2695.5254,-143.7631"/>
<polygon fill="#191970" stroke="#191970" points="2698.6251,-142.137 2690.9758,-134.8062 2692.384,-145.3071 2698.6251,-142.137"/>
</g>
<!-- Node15 -->
<g id="node15" class="node">
<title>Node15</title>
<g id="a_node15"><a xlink:href="../../df/d32/PHObject_8h.html" target="_top" xlink:title="phool/PHObject.h">
<polygon fill="none" stroke="#000000" points="1970.7409,-114.5 1970.7409,-134.5 2074.7409,-134.5 2074.7409,-114.5 1970.7409,-114.5"/>
<text text-anchor="middle" x="2022.7409" y="-121.5" font-family="FreeSans" font-size="10.00" fill="#000000">phool/PHObject.h</text>
</a>
</g>
</g>
<!-- Node12&#45;&gt;Node15 -->
<g id="edge16" class="edge">
<title>Node12&#45;&gt;Node15</title>
<path fill="none" stroke="#191970" d="M2689.178,-177.4405C2681.0518,-174.9443 2672.1285,-172.5441 2663.7409,-171 2430.6723,-128.0934 2367.9337,-154.3638 2131.7409,-135 2116.6539,-133.7631 2100.4071,-132.2799 2085.1815,-130.8232"/>
<polygon fill="#191970" stroke="#191970" points="2085.1212,-127.3011 2074.8307,-129.8223 2084.4474,-134.2686 2085.1212,-127.3011"/>
</g>
<!-- Node12&#45;&gt;Node17 -->
<g id="edge19" class="edge">
<title>Node12&#45;&gt;Node17</title>
<path fill="none" stroke="#191970" d="M2735.6496,-177.3337C2757.8016,-163.4192 2790.7443,-137.4864 2774.7409,-114 2735.7495,-56.7764 2697.2327,-72.4829 2629.7409,-57 2521.2444,-32.1105 2180.3332,-16.6981 2062.9356,-12.0179"/>
<polygon fill="#191970" stroke="#191970" points="2063.0595,-8.5202 2052.9293,-11.6235 2062.7837,-15.5147 2063.0595,-8.5202"/>
</g>
<!-- Node18 -->
<g id="node18" class="node">
<title>Node18</title>
<polygon fill="none" stroke="#bfbfbf" points="2820.7409,-114.5 2820.7409,-134.5 2852.7409,-134.5 2852.7409,-114.5 2820.7409,-114.5"/>
<text text-anchor="middle" x="2836.7409" y="-121.5" font-family="FreeSans" font-size="10.00" fill="#000000">set</text>
</g>
<!-- Node12&#45;&gt;Node18 -->
<g id="edge20" class="edge">
<title>Node12&#45;&gt;Node18</title>
<path fill="none" stroke="#191970" d="M2736.8603,-177.378C2757.211,-166.6041 2789.4946,-149.5128 2811.8244,-137.6911"/>
<polygon fill="#191970" stroke="#191970" points="2813.5208,-140.7533 2820.721,-132.9811 2810.2455,-134.5668 2813.5208,-140.7533"/>
</g>
<!-- Node14 -->
<g id="node14" class="node">
<title>Node14</title>
<polygon fill="none" stroke="#bfbfbf" points="2569.2409,-57.5 2569.2409,-77.5 2620.2409,-77.5 2620.2409,-57.5 2569.2409,-57.5"/>
<text text-anchor="middle" x="2594.7409" y="-64.5" font-family="FreeSans" font-size="10.00" fill="#000000">cstdint</text>
</g>
<!-- Node13&#45;&gt;Node14 -->
<g id="edge15" class="edge">
<title>Node13&#45;&gt;Node14</title>
<path fill="none" stroke="#191970" d="M2669.472,-114.3095C2655.6257,-105.6366 2635.5164,-93.0407 2619.6449,-83.0992"/>
<polygon fill="#191970" stroke="#191970" points="2621.2018,-79.9445 2610.8691,-77.6022 2617.4859,-85.8768 2621.2018,-79.9445"/>
</g>
<!-- Node16 -->
<g id="node16" class="node">
<title>Node16</title>
<polygon fill="none" stroke="#bfbfbf" points="1471.2409,-57.5 1471.2409,-77.5 1536.2409,-77.5 1536.2409,-57.5 1471.2409,-57.5"/>
<text text-anchor="middle" x="1503.7409" y="-64.5" font-family="FreeSans" font-size="10.00" fill="#000000">TObject.h</text>
</g>
<!-- Node15&#45;&gt;Node16 -->
<g id="edge17" class="edge">
<title>Node15&#45;&gt;Node16</title>
<path fill="none" stroke="#191970" d="M1970.5343,-115.2689C1967.5625,-114.8197 1964.6156,-114.3929 1961.7409,-114 1809.6044,-93.2086 1627.8622,-77.4344 1546.6388,-70.857"/>
<polygon fill="#191970" stroke="#191970" points="1546.5666,-67.34 1536.3182,-70.0271 1546.0055,-74.3175 1546.5666,-67.34"/>
</g>
<!-- Node15&#45;&gt;Node17 -->
<g id="edge18" class="edge">
<title>Node15&#45;&gt;Node17</title>
<path fill="none" stroke="#191970" d="M2022.7409,-114.3833C2022.7409,-95.6703 2022.7409,-55.3266 2022.7409,-30.7866"/>
<polygon fill="#191970" stroke="#191970" points="2026.241,-30.7579 2022.7409,-20.7579 2019.241,-30.758 2026.241,-30.7579"/>
</g>
<!-- Node19&#45;&gt;Node15 -->
<g id="edge22" class="edge">
<title>Node19&#45;&gt;Node15</title>
<path fill="none" stroke="#191970" d="M1895.3339,-171.4394C1923.3236,-161.1274 1959.2737,-147.8827 1985.8454,-138.0931"/>
<polygon fill="#191970" stroke="#191970" points="1987.3606,-141.2649 1995.534,-134.5236 1984.9406,-134.6965 1987.3606,-141.2649"/>
</g>
<!-- Node19&#45;&gt;Node17 -->
<g id="edge26" class="edge">
<title>Node19&#45;&gt;Node17</title>
<path fill="none" stroke="#191970" d="M1861.9355,-171.2256C1871.9575,-155.7804 1888.1276,-132.2769 1904.7409,-114 1935.5652,-80.0891 1976.8136,-46.0668 2001.4884,-26.7136"/>
<polygon fill="#191970" stroke="#191970" points="2003.7313,-29.4033 2009.4807,-20.5041 1999.4366,-23.8755 2003.7313,-29.4033"/>
</g>
<!-- Node19&#45;&gt;Node20 -->
<g id="edge23" class="edge">
<title>Node19&#45;&gt;Node20</title>
<path fill="none" stroke="#191970" d="M1825.2282,-171.4394C1809.2305,-161.7485 1788.9569,-149.4673 1773.1598,-139.898"/>
<polygon fill="#191970" stroke="#191970" points="1774.8087,-136.8048 1764.4422,-134.6171 1771.1819,-142.7919 1774.8087,-136.8048"/>
</g>
<!-- Node21 -->
<g id="node21" class="node">
<title>Node21</title>
<polygon fill="none" stroke="#bfbfbf" points="1808.7409,-114.5 1808.7409,-134.5 1856.7409,-134.5 1856.7409,-114.5 1808.7409,-114.5"/>
<text text-anchor="middle" x="1832.7409" y="-121.5" font-family="FreeSans" font-size="10.00" fill="#000000">cmath</text>
</g>
<!-- Node19&#45;&gt;Node21 -->
<g id="edge25" class="edge">
<title>Node19&#45;&gt;Node21</title>
<path fill="none" stroke="#191970" d="M1846.848,-171.2759C1844.3778,-163.0854 1841.3594,-153.0769 1838.7493,-144.4226"/>
<polygon fill="#191970" stroke="#191970" points="1842.071,-143.3147 1835.8326,-134.7513 1835.3691,-145.336 1842.071,-143.3147"/>
</g>
<!-- Node20&#45;&gt;Node17 -->
<g id="edge24" class="edge">
<title>Node20&#45;&gt;Node17</title>
<path fill="none" stroke="#191970" d="M1763.5277,-114.4552C1786.4407,-100.2006 1830.571,-73.9548 1870.7409,-57 1907.6309,-41.4296 1951.533,-28.5713 1982.6477,-20.3528"/>
<polygon fill="#191970" stroke="#191970" points="1983.8821,-23.6484 1992.6808,-17.7463 1982.122,-16.8733 1983.8821,-23.6484"/>
</g>
<!-- Node22&#45;&gt;Node9 -->
<g id="edge30" class="edge">
<title>Node22&#45;&gt;Node9</title>
<path fill="none" stroke="#191970" d="M1998.0787,-171.2759C1984.9209,-161.8561 1968.404,-150.0315 1955.2691,-140.6281"/>
<polygon fill="#191970" stroke="#191970" points="1956.9674,-137.5395 1946.7988,-134.5642 1952.8925,-143.2312 1956.9674,-137.5395"/>
</g>
<!-- Node22&#45;&gt;Node10 -->
<g id="edge31" class="edge">
<title>Node22&#45;&gt;Node10</title>
<path fill="none" stroke="#191970" d="M2056.9409,-171.4394C2079.7027,-161.3409 2108.804,-148.4298 2130.7224,-138.7054"/>
<polygon fill="#191970" stroke="#191970" points="2132.2159,-141.8719 2139.9373,-134.6171 2129.3771,-135.4733 2132.2159,-141.8719"/>
</g>
<!-- Node22&#45;&gt;Node15 -->
<g id="edge28" class="edge">
<title>Node22&#45;&gt;Node15</title>
<path fill="none" stroke="#191970" d="M2021.256,-171.2759C2021.5103,-163.2654 2021.8198,-153.5159 2022.0903,-144.9952"/>
<polygon fill="#191970" stroke="#191970" points="2025.5963,-144.8573 2022.4155,-134.7513 2018.5999,-144.6351 2025.5963,-144.8573"/>
</g>
<!-- Node22&#45;&gt;Node17 -->
<g id="edge29" class="edge">
<title>Node22&#45;&gt;Node17</title>
<path fill="none" stroke="#191970" d="M2049.7127,-171.4432C2062.6731,-162.557 2076.615,-150.2141 2083.7409,-135 2101.7969,-96.4497 2065.7904,-51.7431 2041.8025,-27.7859"/>
<polygon fill="#191970" stroke="#191970" points="2044.1504,-25.1879 2034.5203,-20.7708 2039.294,-30.2292 2044.1504,-25.1879"/>
</g>
<!-- Node23&#45;&gt;Node14 -->
<g id="edge33" class="edge">
<title>Node23&#45;&gt;Node14</title>
<path fill="none" stroke="#191970" d="M2460.5068,-114.4408C2488.1787,-104.7641 2530.0645,-90.1169 2559.6764,-79.7618"/>
<polygon fill="#191970" stroke="#191970" points="2560.9258,-83.0328 2569.2099,-76.428 2558.6151,-76.4252 2560.9258,-83.0328"/>
</g>
<!-- Node23&#45;&gt;Node17 -->
<g id="edge34" class="edge">
<title>Node23&#45;&gt;Node17</title>
<path fill="none" stroke="#191970" d="M2418.1483,-114.4143C2397.1334,-99.3592 2354.9691,-71.2573 2314.7409,-57 2228.4249,-26.4086 2120.6097,-15.872 2063.1756,-12.295"/>
<polygon fill="#191970" stroke="#191970" points="2063.2411,-8.793 2053.0543,-11.7049 2062.8335,-15.7811 2063.2411,-8.793"/>
</g>
<!-- Node24&#45;&gt;Node15 -->
<g id="edge36" class="edge">
<title>Node24&#45;&gt;Node15</title>
<path fill="none" stroke="#191970" d="M1719.4408,-177.7254C1784.7252,-166.2688 1892.608,-147.3367 1960.5656,-135.411"/>
<polygon fill="#191970" stroke="#191970" points="1961.46,-138.8076 1970.7045,-133.6317 1960.25,-131.913 1961.46,-138.8076"/>
</g>
<!-- Node24&#45;&gt;Node17 -->
<g id="edge37" class="edge">
<title>Node24&#45;&gt;Node17</title>
<path fill="none" stroke="#191970" d="M1665.8386,-177.3874C1669.5395,-161.8655 1678.6133,-132.0723 1696.7409,-114 1740.8429,-70.0326 1765.7226,-76.8735 1824.7409,-57 1878.3054,-38.963 1942.2945,-25.3024 1982.731,-17.5971"/>
<polygon fill="#191970" stroke="#191970" points="1983.5495,-21.0047 1992.733,-15.7213 1982.2592,-14.1246 1983.5495,-21.0047"/>
</g>
<!-- Node25&#45;&gt;Node9 -->
<g id="edge42" class="edge">
<title>Node25&#45;&gt;Node9</title>
<path fill="none" stroke="#191970" d="M2370.3749,-177.4162C2359.8068,-175.0404 2348.3896,-172.7062 2337.7409,-171 2175.2173,-144.9599 2127.3783,-170.8172 1962.5064,-134.64"/>
<polygon fill="#191970" stroke="#191970" points="1963.0353,-131.1719 1952.5123,-132.4033 1961.5065,-138.0029 1963.0353,-131.1719"/>
</g>
<!-- Node25&#45;&gt;Node10 -->
<g id="edge43" class="edge">
<title>Node25&#45;&gt;Node10</title>
<path fill="none" stroke="#191970" d="M2371.1704,-177.4478C2322.4524,-165.0719 2240.6217,-144.2842 2195.3442,-132.7823"/>
<polygon fill="#191970" stroke="#191970" points="2196.0158,-129.3418 2185.4619,-130.2719 2194.2923,-136.1263 2196.0158,-129.3418"/>
</g>
<!-- Node25&#45;&gt;Node15 -->
<g id="edge40" class="edge">
<title>Node25&#45;&gt;Node15</title>
<path fill="none" stroke="#191970" d="M2368.777,-177.4437C2358.6462,-175.1743 2347.8316,-172.8824 2337.7409,-171 2250.4875,-154.7232 2148.7716,-140.572 2085.0577,-132.283"/>
<polygon fill="#191970" stroke="#191970" points="2085.1456,-128.7652 2074.7792,-130.9537 2084.2477,-135.7074 2085.1456,-128.7652"/>
</g>
<!-- Node25&#45;&gt;Node17 -->
<g id="edge41" class="edge">
<title>Node25&#45;&gt;Node17</title>
<path fill="none" stroke="#191970" d="M2392.2423,-177.4811C2349.7357,-154.6467 2241.5354,-97.5843 2147.7409,-57 2119.4133,-44.7428 2086.6934,-32.6422 2061.8366,-23.8588"/>
<polygon fill="#191970" stroke="#191970" points="2062.9771,-20.5498 2052.3822,-20.5437 2060.6608,-27.1555 2062.9771,-20.5498"/>
</g>
<!-- Node25&#45;&gt;Node23 -->
<g id="edge39" class="edge">
<title>Node25&#45;&gt;Node23</title>
<path fill="none" stroke="#191970" d="M2414.1149,-177.378C2417.0671,-168.5215 2421.4423,-155.396 2425.0949,-144.4381"/>
<polygon fill="#191970" stroke="#191970" points="2428.4636,-145.3999 2428.3055,-134.8062 2421.8228,-143.1862 2428.4636,-145.3999"/>
</g>
<!-- Node26&#45;&gt;Node9 -->
<g id="edge48" class="edge">
<title>Node26&#45;&gt;Node9</title>
<path fill="none" stroke="#191970" d="M2170.3749,-177.4818C2115.8609,-168.9834 2038.4176,-155.3062 1962.0496,-134.7293"/>
<polygon fill="#191970" stroke="#191970" points="1962.8277,-131.3136 1952.2586,-132.0511 1960.9807,-138.0656 1962.8277,-131.3136"/>
</g>
<!-- Node26&#45;&gt;Node10 -->
<g id="edge49" class="edge">
<title>Node26&#45;&gt;Node10</title>
<path fill="none" stroke="#191970" d="M2228.2089,-177.378C2216.0413,-167.5503 2197.3656,-152.4661 2183.0703,-140.9198"/>
<polygon fill="#191970" stroke="#191970" points="2185.2205,-138.1575 2175.2419,-134.5969 2180.8221,-143.6031 2185.2205,-138.1575"/>
</g>
<!-- Node26&#45;&gt;Node15 -->
<g id="edge46" class="edge">
<title>Node26&#45;&gt;Node15</title>
<path fill="none" stroke="#191970" d="M2205.7155,-177.378C2168.1331,-166.517 2108.3355,-149.236 2067.398,-137.4055"/>
<polygon fill="#191970" stroke="#191970" points="2068.2581,-134.0109 2057.6795,-134.5969 2066.3146,-140.7357 2068.2581,-134.0109"/>
</g>
<!-- Node26&#45;&gt;Node17 -->
<g id="edge47" class="edge">
<title>Node26&#45;&gt;Node17</title>
<path fill="none" stroke="#191970" d="M2236.3307,-177.4397C2229.2883,-162.2507 2214.2826,-133.2025 2194.7409,-114 2153.439,-73.415 2093.2958,-41.9133 2056.1667,-24.8003"/>
<polygon fill="#191970" stroke="#191970" points="2057.3479,-21.4933 2046.7942,-20.5611 2054.4631,-27.8712 2057.3479,-21.4933"/>
</g>
<!-- Node26&#45;&gt;Node23 -->
<g id="edge45" class="edge">
<title>Node26&#45;&gt;Node23</title>
<path fill="none" stroke="#191970" d="M2271.4284,-177.378C2304.008,-166.6318 2355.6421,-149.6007 2391.4719,-137.7825"/>
<polygon fill="#191970" stroke="#191970" points="2392.7293,-141.0533 2401.1296,-134.5969 2390.5365,-134.4056 2392.7293,-141.0533"/>
</g>
<!-- Node27&#45;&gt;Node14 -->
<g id="edge53" class="edge">
<title>Node27&#45;&gt;Node14</title>
<path fill="none" stroke="#191970" d="M2608.2786,-177.1821C2604.9294,-166.6961 2600.0338,-149.9178 2597.7409,-135 2595.3185,-119.2392 2594.6228,-101.1837 2594.5031,-87.7146"/>
<polygon fill="#191970" stroke="#191970" points="2598.0031,-87.6337 2594.5127,-77.6304 2591.0031,-87.627 2598.0031,-87.6337"/>
</g>
<!-- Node27&#45;&gt;Node23 -->
<g id="edge52" class="edge">
<title>Node27&#45;&gt;Node23</title>
<path fill="none" stroke="#191970" d="M2582.8208,-177.378C2552.2487,-166.6777 2503.8727,-149.7461 2470.1246,-137.9343"/>
<polygon fill="#191970" stroke="#191970" points="2471.1841,-134.597 2460.5893,-134.5969 2468.8716,-141.204 2471.1841,-134.597"/>
</g>
<!-- Node28&#45;&gt;Node17 -->
<g id="edge56" class="edge">
<title>Node28&#45;&gt;Node17</title>
<path fill="none" stroke="#191970" d="M1628.9878,-240.402C1618.7564,-231.971 1605.5933,-218.9487 1599.7409,-204 1594.3941,-190.3427 1593.2662,-184.1601 1599.7409,-171 1636.3949,-96.4996 1671.6572,-90.2429 1747.7409,-57 1789.2264,-38.874 1916.8351,-22.4177 1982.6139,-14.8632"/>
<polygon fill="#191970" stroke="#191970" points="1983.0758,-18.3334 1992.6175,-13.7283 1982.2866,-11.378 1983.0758,-18.3334"/>
</g>
<!-- Node28&#45;&gt;Node24 -->
<g id="edge55" class="edge">
<title>Node28&#45;&gt;Node24</title>
<path fill="none" stroke="#191970" d="M1646.1149,-240.378C1649.0671,-231.5215 1653.4423,-218.396 1657.0949,-207.4381"/>
<polygon fill="#191970" stroke="#191970" points="1660.4636,-208.3999 1660.3055,-197.8062 1653.8228,-206.1862 1660.4636,-208.3999"/>
</g>
<!-- Node30&#45;&gt;Node7 -->
<g id="edge66" class="edge">
<title>Node30&#45;&gt;Node7</title>
<path fill="none" stroke="#191970" d="M746.6079,-177.2689C764.2609,-156.9001 804.0016,-111.0454 826.126,-85.5172"/>
<polygon fill="#191970" stroke="#191970" points="828.992,-87.5544 832.8964,-77.7052 823.7021,-82.9699 828.992,-87.5544"/>
</g>
<!-- Node30&#45;&gt;Node31 -->
<g id="edge61" class="edge">
<title>Node30&#45;&gt;Node31</title>
<path fill="none" stroke="#191970" d="M737.7409,-177.378C737.7409,-168.7041 737.7409,-155.9355 737.7409,-145.1186"/>
<polygon fill="#191970" stroke="#191970" points="741.241,-144.8062 737.7409,-134.8062 734.241,-144.8062 741.241,-144.8062"/>
</g>
<!-- Node33 -->
<g id="node33" class="node">
<title>Node33</title>
<g id="a_node33"><a xlink:href="../../db/dd5/PHPointerList_8h.html" target="_top" xlink:title="PHPointerList.h">
<polygon fill="none" stroke="#000000" points="1098.7409,-57.5 1098.7409,-77.5 1190.7409,-77.5 1190.7409,-57.5 1098.7409,-57.5"/>
<text text-anchor="middle" x="1144.7409" y="-64.5" font-family="FreeSans" font-size="10.00" fill="#000000">PHPointerList.h</text>
</a>
</g>
</g>
<!-- Node30&#45;&gt;Node33 -->
<g id="edge64" class="edge">
<title>Node30&#45;&gt;Node33</title>
<path fill="none" stroke="#191970" d="M769.2158,-177.4387C814.6806,-162.9831 901.4337,-135.691 975.7409,-114 1016.685,-102.048 1063.4557,-89.2444 1097.3988,-80.1045"/>
<polygon fill="#191970" stroke="#191970" points="1098.3084,-83.4844 1107.0577,-77.5093 1096.492,-76.7241 1098.3084,-83.4844"/>
</g>
<!-- Node31&#45;&gt;Node7 -->
<g id="edge63" class="edge">
<title>Node31&#45;&gt;Node7</title>
<path fill="none" stroke="#191970" d="M756.334,-114.3095C772.4541,-105.4745 796.002,-92.5684 814.2913,-82.5445"/>
<polygon fill="#191970" stroke="#191970" points="816.2217,-85.4778 823.3088,-77.6022 812.8573,-79.3393 816.2217,-85.4778"/>
</g>
<!-- Node32 -->
<g id="node32" class="node">
<title>Node32</title>
<polygon fill="none" stroke="#bfbfbf" points="713.7409,-57.5 713.7409,-77.5 761.7409,-77.5 761.7409,-57.5 713.7409,-57.5"/>
<text text-anchor="middle" x="737.7409" y="-64.5" font-family="FreeSans" font-size="10.00" fill="#000000">iosfwd</text>
</g>
<!-- Node31&#45;&gt;Node32 -->
<g id="edge62" class="edge">
<title>Node31&#45;&gt;Node32</title>
<path fill="none" stroke="#191970" d="M737.7409,-114.3095C737.7409,-106.9335 737.7409,-96.72 737.7409,-87.715"/>
<polygon fill="#191970" stroke="#191970" points="741.241,-87.6022 737.7409,-77.6022 734.241,-87.6023 741.241,-87.6022"/>
</g>
<!-- Node33&#45;&gt;Node17 -->
<g id="edge65" class="edge">
<title>Node33&#45;&gt;Node17</title>
<path fill="none" stroke="#191970" d="M1191.0175,-64.4957C1344.909,-54.505 1837.9136,-22.499 1982.5152,-13.1115"/>
<polygon fill="#191970" stroke="#191970" points="1982.9536,-16.5905 1992.7058,-12.4499 1982.5,-9.6052 1982.9536,-16.5905"/>
</g>
<!-- Node34&#45;&gt;Node7 -->
<g id="edge70" class="edge">
<title>Node34&#45;&gt;Node7</title>
<path fill="none" stroke="#191970" d="M1091.2681,-114.4408C1028.4856,-102.6302 926.3429,-83.4152 874.3629,-73.6368"/>
<polygon fill="#191970" stroke="#191970" points="874.8379,-70.1649 864.3632,-71.7557 873.5438,-77.0442 874.8379,-70.1649"/>
</g>
<!-- Node34&#45;&gt;Node33 -->
<g id="edge69" class="edge">
<title>Node34&#45;&gt;Node33</title>
<path fill="none" stroke="#191970" d="M1144.7409,-114.3095C1144.7409,-106.9335 1144.7409,-96.72 1144.7409,-87.715"/>
<polygon fill="#191970" stroke="#191970" points="1148.241,-87.6022 1144.7409,-77.6022 1141.241,-87.6023 1148.241,-87.6022"/>
</g>
<!-- Node36&#45;&gt;Node7 -->
<g id="edge97" class="edge">
<title>Node36&#45;&gt;Node7</title>
<path fill="none" stroke="#191970" d="M967.6473,-297.2804C938.9168,-281.51 886.8077,-248.364 861.7409,-204 840.823,-166.9786 839.2995,-115.6559 840.3306,-87.6739"/>
<polygon fill="#191970" stroke="#191970" points="843.8337,-87.7041 840.8583,-77.5357 836.8432,-87.3402 843.8337,-87.7041"/>
</g>
<!-- Node36&#45;&gt;Node16 -->
<g id="edge96" class="edge">
<title>Node36&#45;&gt;Node16</title>
<path fill="none" stroke="#191970" d="M1038.109,-303.0701C1148.3023,-292.3938 1405.9515,-261.7541 1468.7409,-204 1501.4717,-173.8941 1505.3672,-117.7199 1504.8747,-87.6772"/>
<polygon fill="#191970" stroke="#191970" points="1508.3681,-87.4234 1504.5221,-77.5513 1501.3723,-87.6671 1508.3681,-87.4234"/>
</g>
<!-- Node36&#45;&gt;Node31 -->
<g id="edge94" class="edge">
<title>Node36&#45;&gt;Node31</title>
<path fill="none" stroke="#191970" d="M937.5203,-299.4497C852.5852,-284.6892 686.4914,-250.4887 652.7409,-204 644.1243,-192.1313 645.2619,-183.6165 652.7409,-171 662.2056,-155.0338 679.3031,-144.1924 695.695,-137.0241"/>
<polygon fill="#191970" stroke="#191970" points="697.2196,-140.1838 705.2017,-133.217 694.6173,-133.6855 697.2196,-140.1838"/>
</g>
<!-- Node36&#45;&gt;Node34 -->
<g id="edge95" class="edge">
<title>Node36&#45;&gt;Node34</title>
<path fill="none" stroke="#191970" d="M993.2323,-297.4434C1006.5054,-273.6916 1042.2391,-212.9651 1082.7409,-171 1093.9439,-159.3923 1108.253,-148.4576 1120.3012,-140.1117"/>
<polygon fill="#191970" stroke="#191970" points="1122.2619,-143.011 1128.5979,-134.5195 1118.3494,-137.2064 1122.2619,-143.011"/>
</g>
<!-- Node37 -->
<g id="node37" class="node">
<title>Node37</title>
<g id="a_node37"><a xlink:href="../../dd/d9b/PHDataNode_8h.html" target="_top" xlink:title="PHDataNode.h">
<polygon fill="none" stroke="#000000" points="870.2409,-177.5 870.2409,-197.5 959.2409,-197.5 959.2409,-177.5 870.2409,-177.5"/>
<text text-anchor="middle" x="914.7409" y="-184.5" font-family="FreeSans" font-size="10.00" fill="#000000">PHDataNode.h</text>
</a>
</g>
</g>
<!-- Node36&#45;&gt;Node37 -->
<g id="edge73" class="edge">
<title>Node36&#45;&gt;Node37</title>
<path fill="none" stroke="#191970" d="M981.517,-297.2689C969.2876,-277.1657 941.9561,-232.2372 926.3153,-206.5264"/>
<polygon fill="#191970" stroke="#191970" points="929.1366,-204.4296 920.9491,-197.7052 923.1562,-208.0677 929.1366,-204.4296"/>
</g>
<!-- Node38 -->
<g id="node38" class="node">
<title>Node38</title>
<g id="a_node38"><a xlink:href="../../d3/d79/PHIODataNode_8h.html" target="_top" xlink:title="PHIODataNode.h">
<polygon fill="none" stroke="#000000" points="1078.7409,-240.5 1078.7409,-260.5 1178.7409,-260.5 1178.7409,-240.5 1078.7409,-240.5"/>
<text text-anchor="middle" x="1128.7409" y="-247.5" font-family="FreeSans" font-size="10.00" fill="#000000">PHIODataNode.h</text>
</a>
</g>
</g>
<!-- Node36&#45;&gt;Node38 -->
<g id="edge76" class="edge">
<title>Node36&#45;&gt;Node38</title>
<path fill="none" stroke="#191970" d="M1012.6243,-297.4408C1035.2377,-288.2992 1068.8244,-274.7216 1094.0663,-264.5174"/>
<polygon fill="#191970" stroke="#191970" points="1095.6727,-267.6433 1103.632,-260.6504 1093.0491,-261.1535 1095.6727,-267.6433"/>
</g>
<!-- Node37&#45;&gt;Node17 -->
<g id="edge75" class="edge">
<title>Node37&#45;&gt;Node17</title>
<path fill="none" stroke="#191970" d="M921.1593,-177.3292C931.2428,-161.996 952.101,-132.7618 975.7409,-114 1020.1119,-78.7849 1034.9504,-71.3834 1089.7409,-57 1176.7968,-34.1465 1814.4331,-15.9624 1982.3228,-11.534"/>
<polygon fill="#191970" stroke="#191970" points="1982.5616,-15.0291 1992.4664,-11.2682 1982.3781,-8.0315 1982.5616,-15.0291"/>
</g>
<!-- Node37&#45;&gt;Node31 -->
<g id="edge74" class="edge">
<title>Node37&#45;&gt;Node31</title>
<path fill="none" stroke="#191970" d="M886.3028,-177.378C856.3693,-166.7236 809.0785,-149.8913 775.9129,-138.0866"/>
<polygon fill="#191970" stroke="#191970" points="776.7032,-134.6529 766.1085,-134.5969 774.3558,-141.2476 776.7032,-134.6529"/>
</g>
<!-- Node38&#45;&gt;Node7 -->
<g id="edge93" class="edge">
<title>Node38&#45;&gt;Node7</title>
<path fill="none" stroke="#191970" d="M1111.8196,-240.4998C1096.1527,-231.1893 1072.2515,-216.8542 1051.7409,-204 983.5192,-161.2448 904.1284,-108.9313 865.4128,-83.2517"/>
<polygon fill="#191970" stroke="#191970" points="867.1793,-80.2234 856.9124,-77.6078 863.3073,-86.0551 867.1793,-80.2234"/>
</g>
<!-- Node38&#45;&gt;Node16 -->
<g id="edge92" class="edge">
<title>Node38&#45;&gt;Node16</title>
<path fill="none" stroke="#191970" d="M1178.822,-244.4839C1265.7282,-233.8617 1436.2604,-212.1376 1446.7409,-204 1456.4797,-196.4384 1483.6839,-123.4061 1496.669,-87.3865"/>
<polygon fill="#191970" stroke="#191970" points="1499.9897,-88.4948 1500.0683,-77.9002 1493.4,-86.1334 1499.9897,-88.4948"/>
</g>
<!-- Node38&#45;&gt;Node37 -->
<g id="edge77" class="edge">
<title>Node38&#45;&gt;Node37</title>
<path fill="none" stroke="#191970" d="M1094.3581,-240.378C1057.5433,-229.54 999.013,-212.3091 958.8337,-200.4806"/>
<polygon fill="#191970" stroke="#191970" points="959.6198,-197.0636 949.0384,-197.5969 957.6429,-203.7786 959.6198,-197.0636"/>
</g>
<!-- Node39 -->
<g id="node39" class="node">
<title>Node39</title>
<g id="a_node39"><a xlink:href="../../d9/d53/PHIOManager_8h.html" target="_top" xlink:title="PHIOManager.h">
<polygon fill="none" stroke="#000000" points="1306.2409,-114.5 1306.2409,-134.5 1399.2409,-134.5 1399.2409,-114.5 1306.2409,-114.5"/>
<text text-anchor="middle" x="1352.7409" y="-121.5" font-family="FreeSans" font-size="10.00" fill="#000000">PHIOManager.h</text>
</a>
</g>
</g>
<!-- Node38&#45;&gt;Node39 -->
<g id="edge78" class="edge">
<title>Node38&#45;&gt;Node39</title>
<path fill="none" stroke="#191970" d="M1154.5255,-240.3626C1175.9239,-231.6229 1206.9185,-218.2003 1232.7409,-204 1268.4686,-184.3526 1307.3983,-157.457 1330.9364,-140.5326"/>
<polygon fill="#191970" stroke="#191970" points="1333.121,-143.272 1339.1652,-134.5703 1329.0138,-137.6035 1333.121,-143.272"/>
</g>
<!-- Node41 -->
<g id="node41" class="node">
<title>Node41</title>
<g id="a_node41"><a xlink:href="../../dd/de7/PHNodeIOManager_8h.html" target="_top" xlink:title="PHNodeIOManager.h">
<polygon fill="none" stroke="#000000" points="1317.7409,-177.5 1317.7409,-197.5 1437.7409,-197.5 1437.7409,-177.5 1317.7409,-177.5"/>
<text text-anchor="middle" x="1377.7409" y="-184.5" font-family="FreeSans" font-size="10.00" fill="#000000">PHNodeIOManager.h</text>
</a>
</g>
</g>
<!-- Node38&#45;&gt;Node41 -->
<g id="edge81" class="edge">
<title>Node38&#45;&gt;Node41</title>
<path fill="none" stroke="#191970" d="M1168.4711,-240.4478C1211.8351,-229.4762 1281.3286,-211.8935 1328.2157,-200.0305"/>
<polygon fill="#191970" stroke="#191970" points="1329.3163,-203.3624 1338.1523,-197.5164 1327.5993,-196.5762 1329.3163,-203.3624"/>
</g>
<!-- Node42 -->
<g id="node42" class="node">
<title>Node42</title>
<g id="a_node42"><a xlink:href="../../db/d17/PHTypedNodeIterator_8h.html" target="_top" xlink:title="PHTypedNodeIterator.h">
<polygon fill="none" stroke="#000000" points="1091.7409,-177.5 1091.7409,-197.5 1223.7409,-197.5 1223.7409,-177.5 1091.7409,-177.5"/>
<text text-anchor="middle" x="1157.7409" y="-184.5" font-family="FreeSans" font-size="10.00" fill="#000000">PHTypedNodeIterator.h</text>
</a>
</g>
</g>
<!-- Node38&#45;&gt;Node42 -->
<g id="edge87" class="edge">
<title>Node38&#45;&gt;Node42</title>
<path fill="none" stroke="#191970" d="M1133.4003,-240.378C1137.5191,-231.4302 1143.6437,-218.125 1148.7188,-207.0999"/>
<polygon fill="#191970" stroke="#191970" points="1151.9946,-208.3536 1152.9968,-197.8062 1145.636,-205.4265 1151.9946,-208.3536"/>
</g>
<!-- Node43 -->
<g id="node43" class="node">
<title>Node43</title>
<g id="a_node43"><a xlink:href="../../de/da7/phooldefs_8h.html" target="_top" xlink:title="phooldefs.h">
<polygon fill="none" stroke="#000000" points="984.2409,-114.5 984.2409,-134.5 1059.2409,-134.5 1059.2409,-114.5 984.2409,-114.5"/>
<text text-anchor="middle" x="1021.7409" y="-121.5" font-family="FreeSans" font-size="10.00" fill="#000000">phooldefs.h</text>
</a>
</g>
</g>
<!-- Node38&#45;&gt;Node43 -->
<g id="edge90" class="edge">
<title>Node38&#45;&gt;Node43</title>
<path fill="none" stroke="#191970" d="M1117.7512,-240.1529C1108.1759,-230.962 1094.0863,-217.008 1082.7409,-204 1065.181,-183.8668 1046.7386,-159.2815 1034.7909,-142.8298"/>
<polygon fill="#191970" stroke="#191970" points="1037.5527,-140.6756 1028.8683,-134.6066 1031.8725,-144.7666 1037.5527,-140.6756"/>
</g>
<!-- Node39&#45;&gt;Node7 -->
<g id="edge80" class="edge">
<title>Node39&#45;&gt;Node7</title>
<path fill="none" stroke="#191970" d="M1306.0384,-119.2905C1203.8641,-107.8934 962.6047,-80.9819 874.5999,-71.1653"/>
<polygon fill="#191970" stroke="#191970" points="874.7356,-67.6588 864.4092,-70.0286 873.9595,-74.6157 874.7356,-67.6588"/>
</g>
<!-- Node40 -->
<g id="node40" class="node">
<title>Node40</title>
<polygon fill="none" stroke="#bfbfbf" points="1325.7409,-57.5 1325.7409,-77.5 1379.7409,-77.5 1379.7409,-57.5 1325.7409,-57.5"/>
<text text-anchor="middle" x="1352.7409" y="-64.5" font-family="FreeSans" font-size="10.00" fill="#000000">cstddef</text>
</g>
<!-- Node39&#45;&gt;Node40 -->
<g id="edge79" class="edge">
<title>Node39&#45;&gt;Node40</title>
<path fill="none" stroke="#191970" d="M1352.7409,-114.3095C1352.7409,-106.9335 1352.7409,-96.72 1352.7409,-87.715"/>
<polygon fill="#191970" stroke="#191970" points="1356.241,-87.6022 1352.7409,-77.6022 1349.241,-87.6023 1356.241,-87.6022"/>
</g>
<!-- Node41&#45;&gt;Node7 -->
<g id="edge86" class="edge">
<title>Node41&#45;&gt;Node7</title>
<path fill="none" stroke="#191970" d="M1361.0121,-177.4885C1333.0415,-161.2592 1274.54,-129.4681 1220.7409,-114 1155.9368,-95.3678 954.797,-76.9843 874.9234,-70.22"/>
<polygon fill="#191970" stroke="#191970" points="874.7422,-66.6926 864.4845,-69.3438 874.1567,-73.6681 874.7422,-66.6926"/>
</g>
<!-- Node41&#45;&gt;Node9 -->
<g id="edge85" class="edge">
<title>Node41&#45;&gt;Node9</title>
<path fill="none" stroke="#191970" d="M1437.9505,-180.829C1465.344,-177.8062 1498.1781,-174.2003 1527.7409,-171 1677.9353,-154.7408 1715.9591,-154.701 1865.7409,-135 1877.9852,-133.3895 1891.4436,-131.336 1903.0657,-129.4729"/>
<polygon fill="#191970" stroke="#191970" points="1903.8276,-132.895 1913.1353,-127.8336 1902.7028,-125.986 1903.8276,-132.895"/>
</g>
<!-- Node41&#45;&gt;Node20 -->
<g id="edge83" class="edge">
<title>Node41&#45;&gt;Node20</title>
<path fill="none" stroke="#191970" d="M1436.7777,-177.4478C1507.9989,-165.3209 1626.6537,-145.1176 1694.9549,-133.4879"/>
<polygon fill="#191970" stroke="#191970" points="1695.7917,-136.8959 1705.0623,-131.7669 1694.6166,-129.9952 1695.7917,-136.8959"/>
</g>
<!-- Node41&#45;&gt;Node39 -->
<g id="edge82" class="edge">
<title>Node41&#45;&gt;Node39</title>
<path fill="none" stroke="#191970" d="M1373.7242,-177.378C1370.2098,-168.5215 1365.0013,-155.396 1360.6529,-144.4381"/>
<polygon fill="#191970" stroke="#191970" points="1363.7724,-142.8101 1356.8307,-134.8062 1357.266,-145.3921 1363.7724,-142.8101"/>
</g>
<!-- Node41&#45;&gt;Node40 -->
<g id="edge84" class="edge">
<title>Node41&#45;&gt;Node40</title>
<path fill="none" stroke="#191970" d="M1387.5383,-177.4027C1400.1372,-163.1322 1419.2165,-136.3146 1408.7409,-114 1402.8086,-101.3632 1391.5685,-90.9738 1380.706,-83.2452"/>
<polygon fill="#191970" stroke="#191970" points="1382.4591,-80.2088 1372.184,-77.6254 1378.6054,-86.0526 1382.4591,-80.2088"/>
</g>
<!-- Node42&#45;&gt;Node34 -->
<g id="edge88" class="edge">
<title>Node42&#45;&gt;Node34</title>
<path fill="none" stroke="#191970" d="M1155.6523,-177.378C1153.8436,-168.6128 1151.1721,-155.6662 1148.9252,-144.7777"/>
<polygon fill="#191970" stroke="#191970" points="1152.3164,-143.8925 1146.8676,-134.8062 1145.4608,-145.3072 1152.3164,-143.8925"/>
</g>
<!-- Node42&#45;&gt;Node40 -->
<g id="edge89" class="edge">
<title>Node42&#45;&gt;Node40</title>
<path fill="none" stroke="#191970" d="M1174.0311,-177.4753C1208.0844,-156.5194 1287.0017,-107.9549 1327.6077,-82.9666"/>
<polygon fill="#191970" stroke="#191970" points="1329.6777,-85.8024 1336.36,-77.5806 1326.009,-79.8408 1329.6777,-85.8024"/>
</g>
<!-- Node43&#45;&gt;Node7 -->
<g id="edge91" class="edge">
<title>Node43&#45;&gt;Node7</title>
<path fill="none" stroke="#191970" d="M989.9749,-114.4408C957.322,-104.1007 906.7467,-88.0852 873.9374,-77.6955"/>
<polygon fill="#191970" stroke="#191970" points="874.9551,-74.3466 864.365,-74.6643 872.8418,-81.02 874.9551,-74.3466"/>
</g>
</g>
</svg>
