<?xml version="1.0" encoding="UTF-8" standalone="no"?>
<!DOCTYPE svg PUBLIC "-//W3C//DTD SVG 1.1//EN"
 "http://www.w3.org/Graphics/SVG/1.1/DTD/svg11.dtd">
<!-- Generated by graphviz version 2.40.1 (20161225.0304)
 -->
<!-- Title: coresoftware/blob/master/offline/packages/PHGenFitPkg/PHGenFit/Tools.h Pages: 1 -->
<svg width="179pt" height="110pt"
 viewBox="0.00 0.00 179.00 110.00" xmlns="http://www.w3.org/2000/svg" xmlns:xlink="http://www.w3.org/1999/xlink">
<g id="graph0" class="graph" transform="scale(1 1) rotate(0) translate(4 106)">
<title>coresoftware/blob/master/offline/packages/PHGenFitPkg/PHGenFit/Tools.h</title>
<!-- Node1 -->
<g id="node1" class="node">
<title>Node1</title>
<polygon fill="#bfbfbf" stroke="#000000" points="0,-57.5 0,-101.5 171,-101.5 171,-57.5 0,-57.5"/>
<text text-anchor="start" x="8" y="-88.5" font-family="FreeSans" font-size="10.00" fill="#000000">coresoftware/blob/master</text>
<text text-anchor="start" x="8" y="-76.5" font-family="FreeSans" font-size="10.00" fill="#000000">/offline/packages/PHGenFitPkg</text>
<text text-anchor="middle" x="85.5" y="-64.5" font-family="FreeSans" font-size="10.00" fill="#000000">/PHGenFit/Tools.h</text>
</g>
<!-- Node2 -->
<g id="node2" class="node">
<title>Node2</title>
<polygon fill="none" stroke="#bfbfbf" points="20.5,-.5 20.5,-20.5 78.5,-20.5 78.5,-.5 20.5,-.5"/>
<text text-anchor="middle" x="49.5" y="-7.5" font-family="FreeSans" font-size="10.00" fill="#000000">memory</text>
</g>
<!-- Node1&#45;&gt;Node2 -->
<g id="edge1" class="edge">
<title>Node1&#45;&gt;Node2</title>
<path fill="none" stroke="#191970" d="M73.9112,-57.2882C69.3018,-48.4535 64.0473,-38.3823 59.5969,-29.8525"/>
<polygon fill="#191970" stroke="#191970" points="62.5576,-27.9605 54.8289,-20.7137 56.3515,-31.1985 62.5576,-27.9605"/>
</g>
<!-- Node3 -->
<g id="node3" class="node">
<title>Node3</title>
<polygon fill="none" stroke="#bfbfbf" points="97,-.5 97,-20.5 146,-20.5 146,-.5 97,-.5"/>
<text text-anchor="middle" x="121.5" y="-7.5" font-family="FreeSans" font-size="10.00" fill="#000000">vector</text>
</g>
<!-- Node1&#45;&gt;Node3 -->
<g id="edge2" class="edge">
<title>Node1&#45;&gt;Node3</title>
<path fill="none" stroke="#191970" d="M97.0888,-57.2882C101.6982,-48.4535 106.9527,-38.3823 111.4031,-29.8525"/>
<polygon fill="#191970" stroke="#191970" points="114.6485,-31.1985 116.1711,-20.7137 108.4424,-27.9605 114.6485,-31.1985"/>
</g>
</g>
</svg>
