<?xml version="1.0" encoding="UTF-8" standalone="no"?>
<!DOCTYPE svg PUBLIC "-//W3C//DTD SVG 1.1//EN"
 "http://www.w3.org/Graphics/SVG/1.1/DTD/svg11.dtd">
<!-- Generated by graphviz version 2.40.1 (20161225.0304)
 -->
<!-- Title: PHG4CylinderCellGeomContainer::AddLayerCellGeom Pages: 1 -->
<svg width="387pt" height="143pt"
 viewBox="0.00 0.00 387.00 143.00" xmlns="http://www.w3.org/2000/svg" xmlns:xlink="http://www.w3.org/1999/xlink">
<g id="graph0" class="graph" transform="scale(1 1) rotate(0) translate(4 139)">
<title>PHG4CylinderCellGeomContainer::AddLayerCellGeom</title>
<!-- Node1 -->
<g id="node1" class="node">
<title>Node1</title>
<polygon fill="#bfbfbf" stroke="#000000" points="0,-51.5 0,-83.5 185,-83.5 185,-51.5 0,-51.5"/>
<text text-anchor="start" x="8" y="-70.5" font-family="FreeSans" font-size="10.00" fill="#000000">PHG4CylinderCellGeomContainer</text>
<text text-anchor="middle" x="92.5" y="-58.5" font-family="FreeSans" font-size="10.00" fill="#000000">::AddLayerCellGeom</text>
</g>
<!-- Node2 -->
<g id="node2" class="node">
<title>Node2</title>
<g id="a_node2"><a xlink:href="../../d7/d6c/classPHG4TpcPadPlaneReadout.html#a838c315e35cb3066d4e1c5553340838c" target="_top" xlink:title="PHG4TpcPadPlaneReadout\l::CreateReadoutGeometry">
<polygon fill="none" stroke="#000000" points="224.5,-102.5 224.5,-134.5 375.5,-134.5 375.5,-102.5 224.5,-102.5"/>
<text text-anchor="start" x="232.5" y="-121.5" font-family="FreeSans" font-size="10.00" fill="#000000">PHG4TpcPadPlaneReadout</text>
<text text-anchor="middle" x="300" y="-109.5" font-family="FreeSans" font-size="10.00" fill="#000000">::CreateReadoutGeometry</text>
</a>
</g>
</g>
<!-- Node1&#45;&gt;Node2 -->
<g id="edge1" class="edge">
<title>Node1&#45;&gt;Node2</title>
<path fill="none" stroke="#191970" d="M167.7798,-86.0025C189.6636,-91.3812 213.3792,-97.2101 234.6027,-102.4264"/>
<polygon fill="#191970" stroke="#191970" points="168.4159,-82.5547 157.8695,-83.5667 166.7451,-89.3524 168.4159,-82.5547"/>
</g>
<!-- Node3 -->
<g id="node3" class="node">
<title>Node3</title>
<g id="a_node3"><a xlink:href="../../d5/dd0/classPHG4CylinderCellReco.html#ada869396a39d11561fcbb85572446310" target="_top" xlink:title="module initialization">
<polygon fill="none" stroke="#000000" points="235.5,-51.5 235.5,-83.5 364.5,-83.5 364.5,-51.5 235.5,-51.5"/>
<text text-anchor="start" x="243.5" y="-70.5" font-family="FreeSans" font-size="10.00" fill="#000000">PHG4CylinderCellReco</text>
<text text-anchor="middle" x="300" y="-58.5" font-family="FreeSans" font-size="10.00" fill="#000000">::InitRun</text>
</a>
</g>
</g>
<!-- Node1&#45;&gt;Node3 -->
<g id="edge2" class="edge">
<title>Node1&#45;&gt;Node3</title>
<path fill="none" stroke="#191970" d="M195.3975,-67.5C208.989,-67.5 222.6,-67.5 235.2974,-67.5"/>
<polygon fill="#191970" stroke="#191970" points="195.0233,-64.0001 185.0232,-67.5 195.0232,-71.0001 195.0233,-64.0001"/>
</g>
<!-- Node4 -->
<g id="node4" class="node">
<title>Node4</title>
<g id="a_node4"><a xlink:href="../../dc/d20/classPHG4FullProjSpacalCellReco.html#a37f9ab5678a82c0a886af63ebd1d5f85" target="_top" xlink:title="module initialization">
<polygon fill="none" stroke="#000000" points="221,-.5 221,-32.5 379,-32.5 379,-.5 221,-.5"/>
<text text-anchor="start" x="229" y="-19.5" font-family="FreeSans" font-size="10.00" fill="#000000">PHG4FullProjSpacalCellReco</text>
<text text-anchor="middle" x="300" y="-7.5" font-family="FreeSans" font-size="10.00" fill="#000000">::InitRun</text>
</a>
</g>
</g>
<!-- Node1&#45;&gt;Node4 -->
<g id="edge3" class="edge">
<title>Node1&#45;&gt;Node4</title>
<path fill="none" stroke="#191970" d="M167.7798,-48.9975C189.6636,-43.6188 213.3792,-37.7899 234.6027,-32.5736"/>
<polygon fill="#191970" stroke="#191970" points="166.7451,-45.6476 157.8695,-51.4333 168.4159,-52.4453 166.7451,-45.6476"/>
</g>
</g>
</svg>
