<?xml version="1.0" encoding="UTF-8" standalone="no"?>
<!DOCTYPE svg PUBLIC "-//W3C//DTD SVG 1.1//EN"
 "http://www.w3.org/Graphics/SVG/1.1/DTD/svg11.dtd">
<!-- Generated by graphviz version 2.40.1 (20161225.0304)
 -->
<!-- Title: Jet_Eval Pages: 1 -->
<svg width="337pt" height="788pt"
 viewBox="0.00 0.00 337.00 788.00" xmlns="http://www.w3.org/2000/svg" xmlns:xlink="http://www.w3.org/1999/xlink">
<g id="graph0" class="graph" transform="scale(1 1) rotate(0) translate(4 784)">
<title>Jet_Eval</title>
<!-- Node1 -->
<g id="node1" class="node">
<title>Node1</title>
<polygon fill="#bfbfbf" stroke="#000000" points="0,-388.5 0,-408.5 56,-408.5 56,-388.5 0,-388.5"/>
<text text-anchor="middle" x="28" y="-395.5" font-family="FreeSans" font-size="10.00" fill="#000000">Jet_Eval</text>
</g>
<!-- Node2 -->
<g id="node2" class="node">
<title>Node2</title>
<g id="a_node2"><a xlink:href="../../d3/d7f/Fun_8C.html#af0d3c8a78765149fef9b2beeecfc6279" target="_top" xlink:title="ConfigureDetectors">
<polygon fill="none" stroke="#000000" points="118.5,-759.5 118.5,-779.5 232.5,-779.5 232.5,-759.5 118.5,-759.5"/>
<text text-anchor="middle" x="175.5" y="-766.5" font-family="FreeSans" font-size="10.00" fill="#000000">ConfigureDetectors</text>
</a>
</g>
</g>
<!-- Node1&#45;&gt;Node2 -->
<g id="edge1" class="edge">
<title>Node1&#45;&gt;Node2</title>
<path fill="none" stroke="#191970" d="M28.8438,-418.927C32.0629,-486.6522 45.8201,-702.2478 92,-750.5 99.0928,-757.9111 108.4282,-762.7074 118.282,-765.7602"/>
<polygon fill="#191970" stroke="#191970" points="32.3306,-418.5521 28.3866,-408.7187 25.3376,-418.8653 32.3306,-418.5521"/>
</g>
<!-- Node4 -->
<g id="node4" class="node">
<title>Node4</title>
<g id="a_node4"><a xlink:href="../../db/dc0/Fun4All__AnaTutorial_8C.html#a8c484ea6d7477278e981ef056b17eac9" target="_top" xlink:title="Fun4All_AnaTutorial">
<polygon fill="none" stroke="#000000" points="118,-720.5 118,-740.5 233,-740.5 233,-720.5 118,-720.5"/>
<text text-anchor="middle" x="175.5" y="-727.5" font-family="FreeSans" font-size="10.00" fill="#000000">Fun4All_AnaTutorial</text>
</a>
</g>
</g>
<!-- Node1&#45;&gt;Node4 -->
<g id="edge3" class="edge">
<title>Node1&#45;&gt;Node4</title>
<path fill="none" stroke="#191970" d="M29.3297,-418.6644C33.8566,-481.061 50.7412,-669.3216 92,-711.5 99.0694,-718.7269 108.2746,-723.4551 117.9822,-726.5021"/>
<polygon fill="#191970" stroke="#191970" points="32.8111,-418.2747 28.6251,-408.5419 25.828,-418.7608 32.8111,-418.2747"/>
</g>
<!-- Node5 -->
<g id="node5" class="node">
<title>Node5</title>
<g id="a_node5"><a xlink:href="../../dd/d28/Fun4All__AnaTutorial__Jets_8C.html#a55eaaeb770a3177f917012de87877d28" target="_top" xlink:title="Fun4All_AnaTutorial_Jets">
<polygon fill="none" stroke="#000000" points="106,-681.5 106,-701.5 245,-701.5 245,-681.5 106,-681.5"/>
<text text-anchor="middle" x="175.5" y="-688.5" font-family="FreeSans" font-size="10.00" fill="#000000">Fun4All_AnaTutorial_Jets</text>
</a>
</g>
</g>
<!-- Node1&#45;&gt;Node5 -->
<g id="edge4" class="edge">
<title>Node1&#45;&gt;Node5</title>
<path fill="none" stroke="#191970" d="M29.9733,-418.7397C35.9504,-475.8442 55.7083,-636.4156 92,-672.5 96.0062,-676.4833 100.6629,-679.7028 105.6887,-682.2973"/>
<polygon fill="#191970" stroke="#191970" points="33.453,-418.3613 28.9608,-408.7659 26.4888,-419.0683 33.453,-418.3613"/>
</g>
<!-- Node6 -->
<g id="node6" class="node">
<title>Node6</title>
<g id="a_node6"><a xlink:href="../../da/d02/Fun4All__G4__EICDetector_8C.html#afbe82cefa1d1fd031d9a8586b7bb68c6" target="_top" xlink:title="Fun4All_G4_EICDetector">
<polygon fill="none" stroke="#000000" points="106,-642.5 106,-662.5 245,-662.5 245,-642.5 106,-642.5"/>
<text text-anchor="middle" x="175.5" y="-649.5" font-family="FreeSans" font-size="10.00" fill="#000000">Fun4All_G4_EICDetector</text>
</a>
</g>
</g>
<!-- Node1&#45;&gt;Node6 -->
<g id="edge5" class="edge">
<title>Node1&#45;&gt;Node6</title>
<path fill="none" stroke="#191970" d="M30.8319,-418.8455C38.3944,-470.2582 60.6433,-603.4381 92,-633.5 96.0781,-637.4097 100.7853,-640.5774 105.8451,-643.1371"/>
<polygon fill="#191970" stroke="#191970" points="34.2558,-418.0648 29.3704,-408.6635 27.3268,-419.0594 34.2558,-418.0648"/>
</g>
<!-- Node7 -->
<g id="node7" class="node">
<title>Node7</title>
<g id="a_node7"><a xlink:href="../../df/d4b/Fun4All__G4__EICDetector__LQ__analysis_8C.html#af903e98824d083a08b353ac15996ee0e" target="_top" xlink:title="Fun4All_G4_EICDetector\l_LQ_analysis">
<polygon fill="none" stroke="#000000" points="106,-591.5 106,-623.5 245,-623.5 245,-591.5 106,-591.5"/>
<text text-anchor="start" x="114" y="-610.5" font-family="FreeSans" font-size="10.00" fill="#000000">Fun4All_G4_EICDetector</text>
<text text-anchor="middle" x="175.5" y="-598.5" font-family="FreeSans" font-size="10.00" fill="#000000">_LQ_analysis</text>
</a>
</g>
</g>
<!-- Node1&#45;&gt;Node7 -->
<g id="edge6" class="edge">
<title>Node1&#45;&gt;Node7</title>
<path fill="none" stroke="#191970" d="M29.1973,-418.7575C32.5272,-456.4442 45.0565,-537.5702 92,-582.5 96.0449,-586.3714 100.6648,-589.6459 105.609,-592.4152"/>
<polygon fill="#191970" stroke="#191970" points="32.6695,-418.2546 28.4313,-408.5444 25.6891,-418.7782 32.6695,-418.2546"/>
</g>
<!-- Node8 -->
<g id="node8" class="node">
<title>Node8</title>
<g id="a_node8"><a xlink:href="../../d1/daf/Fun4All__G4__EICDetector__LQ__analysis__nf_8C.html#a5022607d21247b87dd208b0828905147" target="_top" xlink:title="Fun4All_G4_EICDetector\l_LQ_analysis_nf">
<polygon fill="none" stroke="#000000" points="106,-540.5 106,-572.5 245,-572.5 245,-540.5 106,-540.5"/>
<text text-anchor="start" x="114" y="-559.5" font-family="FreeSans" font-size="10.00" fill="#000000">Fun4All_G4_EICDetector</text>
<text text-anchor="middle" x="175.5" y="-547.5" font-family="FreeSans" font-size="10.00" fill="#000000">_LQ_analysis_nf</text>
</a>
</g>
</g>
<!-- Node1&#45;&gt;Node8 -->
<g id="edge7" class="edge">
<title>Node1&#45;&gt;Node8</title>
<path fill="none" stroke="#191970" d="M32.1906,-418.3566C39.3585,-447.4353 56.7457,-501.4055 92,-531.5 96.1433,-535.0369 100.7726,-538.0734 105.6692,-540.6804"/>
<polygon fill="#191970" stroke="#191970" points="35.5831,-417.4916 29.9279,-408.5324 28.7617,-419.0628 35.5831,-417.4916"/>
</g>
<!-- Node9 -->
<g id="node9" class="node">
<title>Node9</title>
<g id="a_node9"><a xlink:href="../../d4/df5/Fun4All__G4__EICDetector__LQ__reference_8C.html#a2feefc472f17f90b3cbe74897d049f75" target="_top" xlink:title="Fun4All_G4_EICDetector\l_LQ_reference">
<polygon fill="none" stroke="#000000" points="106,-489.5 106,-521.5 245,-521.5 245,-489.5 106,-489.5"/>
<text text-anchor="start" x="114" y="-508.5" font-family="FreeSans" font-size="10.00" fill="#000000">Fun4All_G4_EICDetector</text>
<text text-anchor="middle" x="175.5" y="-496.5" font-family="FreeSans" font-size="10.00" fill="#000000">_LQ_reference</text>
</a>
</g>
</g>
<!-- Node1&#45;&gt;Node9 -->
<g id="edge8" class="edge">
<title>Node1&#45;&gt;Node9</title>
<path fill="none" stroke="#191970" d="M38.1666,-417.5348C49.0858,-436.209 68.1302,-464.1878 92,-480.5 96.9975,-483.9152 102.4718,-486.8735 108.1519,-489.4343"/>
<polygon fill="#191970" stroke="#191970" points="41.167,-415.7295 33.2147,-408.7286 35.0655,-419.1606 41.167,-415.7295"/>
</g>
<!-- Node10 -->
<g id="node10" class="node">
<title>Node10</title>
<g id="a_node10"><a xlink:href="../../d3/d51/Fun4All__G4__EICDetector__RICH_8C.html#a5739502b0a7a1ba782c01069f77e933f" target="_top" xlink:title="Fun4All_G4_EICDetector_RICH">
<polygon fill="none" stroke="#000000" points="92,-450.5 92,-470.5 259,-470.5 259,-450.5 92,-450.5"/>
<text text-anchor="middle" x="175.5" y="-457.5" font-family="FreeSans" font-size="10.00" fill="#000000">Fun4All_G4_EICDetector_RICH</text>
</a>
</g>
</g>
<!-- Node1&#45;&gt;Node10 -->
<g id="edge9" class="edge">
<title>Node1&#45;&gt;Node10</title>
<path fill="none" stroke="#191970" d="M47.9908,-414.7462C60.0825,-423.8307 76.1778,-434.667 92,-441.5 100.3257,-445.0955 109.4247,-448.0564 118.4556,-450.4808"/>
<polygon fill="#191970" stroke="#191970" points="50.0043,-411.8787 39.9549,-408.5231 45.7183,-417.4132 50.0043,-411.8787"/>
</g>
<!-- Node11 -->
<g id="node11" class="node">
<title>Node11</title>
<g id="a_node11"><a xlink:href="../../d7/d9e/Fun4All__G4__fsPHENIX_8C.html#af48911d394d2412e817583700f2bbee2" target="_top" xlink:title="Fun4All_G4_fsPHENIX">
<polygon fill="none" stroke="#000000" points="113.5,-411.5 113.5,-431.5 237.5,-431.5 237.5,-411.5 113.5,-411.5"/>
<text text-anchor="middle" x="175.5" y="-418.5" font-family="FreeSans" font-size="10.00" fill="#000000">Fun4All_G4_fsPHENIX</text>
</a>
</g>
</g>
<!-- Node1&#45;&gt;Node11 -->
<g id="edge10" class="edge">
<title>Node1&#45;&gt;Node11</title>
<path fill="none" stroke="#191970" d="M66.103,-404.4415C80.4932,-406.6854 97.2675,-409.301 113.2958,-411.8004"/>
<polygon fill="#191970" stroke="#191970" points="66.5107,-400.9628 56.0908,-402.8803 65.4321,-407.8793 66.5107,-400.9628"/>
</g>
<!-- Node12 -->
<g id="node12" class="node">
<title>Node12</title>
<g id="a_node12"><a xlink:href="../../da/d2f/Fun4All__G4__fsPHENIX__FastSim_8C.html#a66fb850cae5fcaadda23b74a25ce4c9c" target="_top" xlink:title="Fun4All_G4_fsPHENIX\l_FastSim">
<polygon fill="none" stroke="#000000" points="113.5,-360.5 113.5,-392.5 237.5,-392.5 237.5,-360.5 113.5,-360.5"/>
<text text-anchor="start" x="121.5" y="-379.5" font-family="FreeSans" font-size="10.00" fill="#000000">Fun4All_G4_fsPHENIX</text>
<text text-anchor="middle" x="175.5" y="-367.5" font-family="FreeSans" font-size="10.00" fill="#000000">_FastSim</text>
</a>
</g>
</g>
<!-- Node1&#45;&gt;Node12 -->
<g id="edge11" class="edge">
<title>Node1&#45;&gt;Node12</title>
<path fill="none" stroke="#191970" d="M66.103,-392.8168C80.4932,-390.6705 97.2675,-388.1686 113.2958,-385.7779"/>
<polygon fill="#191970" stroke="#191970" points="65.465,-389.3732 56.0908,-394.3102 66.4978,-396.2966 65.465,-389.3732"/>
</g>
<!-- Node13 -->
<g id="node13" class="node">
<title>Node13</title>
<g id="a_node13"><a xlink:href="../../d0/da6/Fun4All__G4__fsPHENIX__pi0_8C.html#a023d91d47b678e5d7f1751834aa517c6" target="_top" xlink:title="Fun4All_G4_fsPHENIX_pi0">
<polygon fill="none" stroke="#000000" points="103,-321.5 103,-341.5 248,-341.5 248,-321.5 103,-321.5"/>
<text text-anchor="middle" x="175.5" y="-328.5" font-family="FreeSans" font-size="10.00" fill="#000000">Fun4All_G4_fsPHENIX_pi0</text>
</a>
</g>
</g>
<!-- Node1&#45;&gt;Node13 -->
<g id="edge12" class="edge">
<title>Node1&#45;&gt;Node13</title>
<path fill="none" stroke="#191970" d="M46.5385,-381.7757C58.68,-371.6452 75.3359,-359.2286 92,-351.5 100.6547,-347.4861 110.2008,-344.2291 119.6517,-341.6015"/>
<polygon fill="#191970" stroke="#191970" points="44.2082,-379.1634 38.9095,-388.3381 48.7731,-384.4703 44.2082,-379.1634"/>
</g>
<!-- Node14 -->
<g id="node14" class="node">
<title>Node14</title>
<g id="a_node14"><a xlink:href="../../d5/d2c/macros_2blob_2master_2macros_2g4simulations_2Fun4All__G4__sPHENIX_8C.html#a6eaaa492d7023ec86c562dc63aa1e5a4" target="_top" xlink:title="Fun4All_G4_sPHENIX">
<polygon fill="none" stroke="#000000" points="115,-282.5 115,-302.5 236,-302.5 236,-282.5 115,-282.5"/>
<text text-anchor="middle" x="175.5" y="-289.5" font-family="FreeSans" font-size="10.00" fill="#000000">Fun4All_G4_sPHENIX</text>
</a>
</g>
</g>
<!-- Node1&#45;&gt;Node14 -->
<g id="edge13" class="edge">
<title>Node1&#45;&gt;Node14</title>
<path fill="none" stroke="#191970" d="M37.0998,-379.4537C47.562,-359.6475 66.6145,-329.243 92,-312.5 98.9685,-307.9039 106.8839,-304.3616 114.9984,-301.632"/>
<polygon fill="#191970" stroke="#191970" points="33.931,-377.9643 32.5435,-388.4679 40.1783,-381.1221 33.931,-377.9643"/>
</g>
<!-- Node15 -->
<g id="node15" class="node">
<title>Node15</title>
<g id="a_node15"><a xlink:href="../../d3/de2/Fun4All__G4__sPHENIX__AnaGenFit_8C.html#a9bf3f2f72ed69a17e2d0c1121d48013c" target="_top" xlink:title="Fun4All_G4_sPHENIX\l_AnaGenFit">
<polygon fill="none" stroke="#000000" points="115,-231.5 115,-263.5 236,-263.5 236,-231.5 115,-231.5"/>
<text text-anchor="start" x="123" y="-250.5" font-family="FreeSans" font-size="10.00" fill="#000000">Fun4All_G4_sPHENIX</text>
<text text-anchor="middle" x="175.5" y="-238.5" font-family="FreeSans" font-size="10.00" fill="#000000">_AnaGenFit</text>
</a>
</g>
</g>
<!-- Node1&#45;&gt;Node15 -->
<g id="edge14" class="edge">
<title>Node1&#45;&gt;Node15</title>
<path fill="none" stroke="#191970" d="M32.914,-378.6944C40.7614,-351.146 58.7392,-301.4998 92,-273.5 98.6207,-267.9265 106.4327,-263.546 114.5773,-260.1035"/>
<polygon fill="#191970" stroke="#191970" points="29.5225,-377.8292 30.3125,-388.3946 36.2835,-379.6426 29.5225,-377.8292"/>
</g>
<!-- Node16 -->
<g id="node16" class="node">
<title>Node16</title>
<g id="a_node16"><a xlink:href="../../da/dd0/Fun4All__G4__sPHENIX__photonjet_8C.html#a6f18519e216acc05399e562ea57ea77c" target="_top" xlink:title="Fun4All_G4_sPHENIX\l_photonjet">
<polygon fill="none" stroke="#000000" points="115,-180.5 115,-212.5 236,-212.5 236,-180.5 115,-180.5"/>
<text text-anchor="start" x="123" y="-199.5" font-family="FreeSans" font-size="10.00" fill="#000000">Fun4All_G4_sPHENIX</text>
<text text-anchor="middle" x="175.5" y="-187.5" font-family="FreeSans" font-size="10.00" fill="#000000">_photonjet</text>
</a>
</g>
</g>
<!-- Node1&#45;&gt;Node16 -->
<g id="edge15" class="edge">
<title>Node1&#45;&gt;Node16</title>
<path fill="none" stroke="#191970" d="M29.6312,-378.1675C33.6445,-341.754 47.2134,-265.2335 92,-222.5 98.4811,-216.316 106.4099,-211.6015 114.775,-208.0075"/>
<polygon fill="#191970" stroke="#191970" points="26.1122,-378.1975 28.6365,-388.4872 33.0799,-378.8691 26.1122,-378.1975"/>
</g>
<!-- Node17 -->
<g id="node17" class="node">
<title>Node17</title>
<g id="a_node17"><a xlink:href="../../da/d85/Fun4All__G4__sPHENIX__photons_8C.html#a02fbbd59878fe1299f58ed187e7214ba" target="_top" xlink:title="Fun4All_G4_sPHENIX\l_photons">
<polygon fill="none" stroke="#000000" points="115,-129.5 115,-161.5 236,-161.5 236,-129.5 115,-129.5"/>
<text text-anchor="start" x="123" y="-148.5" font-family="FreeSans" font-size="10.00" fill="#000000">Fun4All_G4_sPHENIX</text>
<text text-anchor="middle" x="175.5" y="-136.5" font-family="FreeSans" font-size="10.00" fill="#000000">_photons</text>
</a>
</g>
</g>
<!-- Node1&#45;&gt;Node17 -->
<g id="edge16" class="edge">
<title>Node1&#45;&gt;Node17</title>
<path fill="none" stroke="#191970" d="M31.1749,-378.3265C39.3959,-328.5072 62.7891,-201.5121 92,-171.5 98.3539,-164.9718 106.3162,-160.0755 114.7839,-156.4047"/>
<polygon fill="#191970" stroke="#191970" points="27.6741,-378.0511 29.5344,-388.4814 34.5845,-379.1676 27.6741,-378.0511"/>
</g>
<!-- Node18 -->
<g id="node18" class="node">
<title>Node18</title>
<g id="a_node18"><a xlink:href="../../de/d55/Fun4All__G4__sPHENIX__truthphotonjet_8C.html#a48a6f4503eaa1b3793d8ae572aa795b9" target="_top" xlink:title="Fun4All_G4_sPHENIX\l_truthphotonjet">
<polygon fill="none" stroke="#000000" points="115,-78.5 115,-110.5 236,-110.5 236,-78.5 115,-78.5"/>
<text text-anchor="start" x="123" y="-97.5" font-family="FreeSans" font-size="10.00" fill="#000000">Fun4All_G4_sPHENIX</text>
<text text-anchor="middle" x="175.5" y="-85.5" font-family="FreeSans" font-size="10.00" fill="#000000">_truthphotonjet</text>
</a>
</g>
</g>
<!-- Node1&#45;&gt;Node18 -->
<g id="edge17" class="edge">
<title>Node1&#45;&gt;Node18</title>
<path fill="none" stroke="#191970" d="M30.0319,-378.4917C36.2276,-321.2743 56.6442,-158.6346 92,-120.5 98.2968,-113.7082 106.3338,-108.677 114.9241,-104.9528"/>
<polygon fill="#191970" stroke="#191970" points="26.5487,-378.1499 28.9822,-388.4614 33.5102,-378.8829 26.5487,-378.1499"/>
</g>
<!-- Node19 -->
<g id="node19" class="node">
<title>Node19</title>
<g id="a_node19"><a xlink:href="../../d4/d65/Fun4All__single__particle_8C.html#a8a492b5dbead494bfdddbebde8a49b0e" target="_top" xlink:title="Fun4All_single_particle">
<polygon fill="none" stroke="#000000" points="109.5,-39.5 109.5,-59.5 241.5,-59.5 241.5,-39.5 109.5,-39.5"/>
<text text-anchor="middle" x="175.5" y="-46.5" font-family="FreeSans" font-size="10.00" fill="#000000">Fun4All_single_particle</text>
</a>
</g>
</g>
<!-- Node1&#45;&gt;Node19 -->
<g id="edge18" class="edge">
<title>Node1&#45;&gt;Node19</title>
<path fill="none" stroke="#191970" d="M29.1435,-378.1721C33.1936,-313.5415 48.9962,-114.3922 92,-69.5 96.8465,-64.4407 102.7279,-60.5649 109.1009,-57.6087"/>
<polygon fill="#191970" stroke="#191970" points="25.6413,-378.105 28.5377,-388.2963 32.6288,-378.5232 25.6413,-378.105"/>
</g>
<!-- Node20 -->
<g id="node20" class="node">
<title>Node20</title>
<g id="a_node20"><a xlink:href="../../d0/d99/Jin__BJet_8C.html#a36169bfee2ed7efda633944d12aebad9" target="_top" xlink:title="Jin_BJet">
<polygon fill="none" stroke="#000000" points="148,-.5 148,-20.5 203,-20.5 203,-.5 148,-.5"/>
<text text-anchor="middle" x="175.5" y="-7.5" font-family="FreeSans" font-size="10.00" fill="#000000">Jin_BJet</text>
</a>
</g>
</g>
<!-- Node1&#45;&gt;Node20 -->
<g id="edge19" class="edge">
<title>Node1&#45;&gt;Node20</title>
<path fill="none" stroke="#191970" d="M28.6888,-378.0712C31.4587,-308.39 44.0642,-81.55 92,-30.5 106.0813,-15.5039 129.2454,-10.8637 147.6079,-9.7721"/>
<polygon fill="#191970" stroke="#191970" points="25.1867,-378.0671 28.3133,-388.1901 32.1818,-378.3268 25.1867,-378.0671"/>
</g>
<!-- Node3 -->
<g id="node3" class="node">
<title>Node3</title>
<g id="a_node3"><a xlink:href="../../d3/d7f/Fun_8C.html#af69a3eef3ff244bb51f5740c6ecb5432" target="_top" xlink:title="Fun">
<polygon fill="none" stroke="#000000" points="295,-759.5 295,-779.5 329,-779.5 329,-759.5 295,-759.5"/>
<text text-anchor="middle" x="312" y="-766.5" font-family="FreeSans" font-size="10.00" fill="#000000">Fun</text>
</a>
</g>
</g>
<!-- Node2&#45;&gt;Node3 -->
<g id="edge2" class="edge">
<title>Node2&#45;&gt;Node3</title>
<path fill="none" stroke="#191970" d="M242.6941,-769.5C262.0852,-769.5 281.59,-769.5 294.9452,-769.5"/>
<polygon fill="#191970" stroke="#191970" points="242.5974,-766.0001 232.5974,-769.5 242.5974,-773.0001 242.5974,-766.0001"/>
</g>
</g>
</svg>
