<?xml version="1.0" encoding="UTF-8" standalone="no"?>
<!DOCTYPE svg PUBLIC "-//W3C//DTD SVG 1.1//EN"
 "http://www.w3.org/Graphics/SVG/1.1/DTD/svg11.dtd">
<!-- Generated by graphviz version 2.40.1 (20161225.0304)
 -->
<!-- Title: PHG4Cell Pages: 1 -->
<svg width="373pt" height="314pt"
 viewBox="0.00 0.00 373.00 314.00" xmlns="http://www.w3.org/2000/svg" xmlns:xlink="http://www.w3.org/1999/xlink">
<g id="graph0" class="graph" transform="scale(1 1) rotate(0) translate(4 310)">
<title>PHG4Cell</title>
<!-- Node1 -->
<g id="node1" class="node">
<title>Node1</title>
<polygon fill="#bfbfbf" stroke="#000000" points="99,-171.5 99,-191.5 162,-191.5 162,-171.5 99,-171.5"/>
<text text-anchor="middle" x="130.5" y="-178.5" font-family="FreeSans" font-size="10.00" fill="#000000">PHG4Cell</text>
</g>
<!-- Node4 -->
<g id="node4" class="node">
<title>Node4</title>
<g id="a_node4"><a xlink:href="../../de/d5e/classPHG4Cellv1.html" target="_top" xlink:title="PHG4Cellv1">
<polygon fill="none" stroke="#000000" points="0,-114.5 0,-134.5 75,-134.5 75,-114.5 0,-114.5"/>
<text text-anchor="middle" x="37.5" y="-121.5" font-family="FreeSans" font-size="10.00" fill="#000000">PHG4Cellv1</text>
</a>
</g>
</g>
<!-- Node1&#45;&gt;Node4 -->
<g id="edge3" class="edge">
<title>Node1&#45;&gt;Node4</title>
<path fill="none" stroke="#191970" d="M105.3378,-166.078C89.0182,-156.0757 68.2214,-143.3293 53.9826,-134.6022"/>
<polygon fill="#191970" stroke="#191970" points="103.5185,-169.068 113.8735,-171.3095 107.1764,-163.0998 103.5185,-169.068"/>
</g>
<!-- Node5 -->
<g id="node5" class="node">
<title>Node5</title>
<g id="a_node5"><a xlink:href="../../da/d1d/classPHG4Cellv2.html" target="_top" xlink:title="specialized cells for TPC operations">
<polygon fill="none" stroke="#000000" points="93,-114.5 93,-134.5 168,-134.5 168,-114.5 93,-114.5"/>
<text text-anchor="middle" x="130.5" y="-121.5" font-family="FreeSans" font-size="10.00" fill="#000000">PHG4Cellv2</text>
</a>
</g>
</g>
<!-- Node1&#45;&gt;Node5 -->
<g id="edge4" class="edge">
<title>Node1&#45;&gt;Node5</title>
<path fill="none" stroke="#191970" d="M130.5,-161.1771C130.5,-152.1625 130.5,-141.9556 130.5,-134.6022"/>
<polygon fill="#191970" stroke="#191970" points="127.0001,-161.3095 130.5,-171.3095 134.0001,-161.3096 127.0001,-161.3095"/>
</g>
<!-- Node6 -->
<g id="node6" class="node">
<title>Node6</title>
<g id="a_node6"><a xlink:href="../../d6/db7/classPHG4CylinderCell.html" target="_top" xlink:title="PHG4CylinderCell">
<polygon fill="none" stroke="#000000" points="186,-114.5 186,-134.5 291,-134.5 291,-114.5 186,-114.5"/>
<text text-anchor="middle" x="238.5" y="-121.5" font-family="FreeSans" font-size="10.00" fill="#000000">PHG4CylinderCell</text>
</a>
</g>
</g>
<!-- Node1&#45;&gt;Node6 -->
<g id="edge5" class="edge">
<title>Node1&#45;&gt;Node6</title>
<path fill="none" stroke="#191970" d="M158.4169,-166.7661C177.5191,-156.6844 202.3524,-143.5779 219.2676,-134.6504"/>
<polygon fill="#191970" stroke="#191970" points="156.7698,-163.6778 149.5596,-171.4408 160.0372,-169.8685 156.7698,-163.6778"/>
</g>
<!-- Node2 -->
<g id="node2" class="node">
<title>Node2</title>
<g id="a_node2"><a xlink:href="../../d9/d24/classPHObject.html" target="_top" xlink:title="PHObject">
<polygon fill="none" stroke="#000000" points="99,-228.5 99,-248.5 162,-248.5 162,-228.5 99,-228.5"/>
<text text-anchor="middle" x="130.5" y="-235.5" font-family="FreeSans" font-size="10.00" fill="#000000">PHObject</text>
</a>
</g>
</g>
<!-- Node2&#45;&gt;Node1 -->
<g id="edge1" class="edge">
<title>Node2&#45;&gt;Node1</title>
<path fill="none" stroke="#191970" d="M130.5,-218.1771C130.5,-209.1625 130.5,-198.9556 130.5,-191.6022"/>
<polygon fill="#191970" stroke="#191970" points="127.0001,-218.3095 130.5,-228.3095 134.0001,-218.3096 127.0001,-218.3095"/>
</g>
<!-- Node3 -->
<g id="node3" class="node">
<title>Node3</title>
<polygon fill="none" stroke="#bfbfbf" points="102,-285.5 102,-305.5 159,-305.5 159,-285.5 102,-285.5"/>
<text text-anchor="middle" x="130.5" y="-292.5" font-family="FreeSans" font-size="10.00" fill="#000000">TObject</text>
</g>
<!-- Node3&#45;&gt;Node2 -->
<g id="edge2" class="edge">
<title>Node3&#45;&gt;Node2</title>
<path fill="none" stroke="#191970" d="M130.5,-275.1771C130.5,-266.1625 130.5,-255.9556 130.5,-248.6022"/>
<polygon fill="#191970" stroke="#191970" points="127.0001,-275.3095 130.5,-285.3095 134.0001,-275.3096 127.0001,-275.3095"/>
</g>
<!-- Node7 -->
<g id="node7" class="node">
<title>Node7</title>
<g id="a_node7"><a xlink:href="../../dd/d2e/classPHG4CylinderCellv1.html" target="_top" xlink:title="PHG4CylinderCellv1">
<polygon fill="none" stroke="#000000" points="180,-57.5 180,-77.5 297,-77.5 297,-57.5 180,-57.5"/>
<text text-anchor="middle" x="238.5" y="-64.5" font-family="FreeSans" font-size="10.00" fill="#000000">PHG4CylinderCellv1</text>
</a>
</g>
</g>
<!-- Node6&#45;&gt;Node7 -->
<g id="edge6" class="edge">
<title>Node6&#45;&gt;Node7</title>
<path fill="none" stroke="#191970" d="M238.5,-104.1771C238.5,-95.1625 238.5,-84.9556 238.5,-77.6022"/>
<polygon fill="#191970" stroke="#191970" points="235.0001,-104.3095 238.5,-114.3095 242.0001,-104.3096 235.0001,-104.3095"/>
</g>
<!-- Node8 -->
<g id="node8" class="node">
<title>Node8</title>
<g id="a_node8"><a xlink:href="../../db/d16/classPHG4CylinderCellv2.html" target="_top" xlink:title="PHG4CylinderCellv2">
<polygon fill="none" stroke="#000000" points="113,-.5 113,-20.5 230,-20.5 230,-.5 113,-.5"/>
<text text-anchor="middle" x="171.5" y="-7.5" font-family="FreeSans" font-size="10.00" fill="#000000">PHG4CylinderCellv2</text>
</a>
</g>
</g>
<!-- Node7&#45;&gt;Node8 -->
<g id="edge7" class="edge">
<title>Node7&#45;&gt;Node8</title>
<path fill="none" stroke="#191970" d="M218.7195,-50.6718C207.2381,-40.9041 193.1577,-28.9252 183.3746,-20.6022"/>
<polygon fill="#191970" stroke="#191970" points="216.6372,-53.4955 226.5217,-57.3095 221.1731,-48.1639 216.6372,-53.4955"/>
</g>
<!-- Node9 -->
<g id="node9" class="node">
<title>Node9</title>
<g id="a_node9"><a xlink:href="../../db/dad/classPHG4CylinderCellv3.html" target="_top" xlink:title="PHG4CylinderCellv3">
<polygon fill="none" stroke="#000000" points="248,-.5 248,-20.5 365,-20.5 365,-.5 248,-.5"/>
<text text-anchor="middle" x="306.5" y="-7.5" font-family="FreeSans" font-size="10.00" fill="#000000">PHG4CylinderCellv3</text>
</a>
</g>
</g>
<!-- Node7&#45;&gt;Node9 -->
<g id="edge8" class="edge">
<title>Node7&#45;&gt;Node9</title>
<path fill="none" stroke="#191970" d="M258.5757,-50.6718C270.2285,-40.9041 284.519,-28.9252 294.4482,-20.6022"/>
<polygon fill="#191970" stroke="#191970" points="256.0724,-48.2032 250.657,-57.3095 260.5692,-53.5678 256.0724,-48.2032"/>
</g>
</g>
</svg>
