<?xml version="1.0" encoding="UTF-8" standalone="no"?>
<!DOCTYPE svg PUBLIC "-//W3C//DTD SVG 1.1//EN"
 "http://www.w3.org/Graphics/SVG/1.1/DTD/svg11.dtd">
<!-- Generated by graphviz version 2.40.1 (20161225.0304)
 -->
<!-- Title: analysis/blob/master/Tracking/GenFitTest/AnaSvtxTracksForGenFit/AnaSvtxTracksForGenFit.cc Pages: 1 -->
<svg width="3579pt" height="521pt"
 viewBox="0.00 0.00 3578.97 521.00" xmlns="http://www.w3.org/2000/svg" xmlns:xlink="http://www.w3.org/1999/xlink">
<g id="graph0" class="graph" transform="scale(1 1) rotate(0) translate(4 517)">
<title>analysis/blob/master/Tracking/GenFitTest/AnaSvtxTracksForGenFit/AnaSvtxTracksForGenFit.cc</title>
<!-- Node1 -->
<g id="node1" class="node">
<title>Node1</title>
<polygon fill="#bfbfbf" stroke="#000000" points="1947.4737,-456.5 1947.4737,-512.5 2103.4737,-512.5 2103.4737,-456.5 1947.4737,-456.5"/>
<text text-anchor="start" x="1955.4737" y="-499.5" font-family="FreeSans" font-size="10.00" fill="#000000">analysis/blob/master</text>
<text text-anchor="start" x="1955.4737" y="-487.5" font-family="FreeSans" font-size="10.00" fill="#000000">/Tracking/GenFitTest</text>
<text text-anchor="start" x="1955.4737" y="-475.5" font-family="FreeSans" font-size="10.00" fill="#000000">/AnaSvtxTracksForGenFit</text>
<text text-anchor="middle" x="2025.4737" y="-463.5" font-family="FreeSans" font-size="10.00" fill="#000000">/AnaSvtxTracksForGenFit.cc</text>
</g>
<!-- Node2 -->
<g id="node2" class="node">
<title>Node2</title>
<g id="a_node2"><a xlink:href="../../df/dad/AnaSvtxTracksForGenFit_8h.html" target="_top" xlink:title="AnaSvtxTracksForGenFit.h">
<polygon fill="none" stroke="#000000" points="470.4737,-228.5 470.4737,-248.5 618.4737,-248.5 618.4737,-228.5 470.4737,-228.5"/>
<text text-anchor="middle" x="544.4737" y="-235.5" font-family="FreeSans" font-size="10.00" fill="#000000">AnaSvtxTracksForGenFit.h</text>
</a>
</g>
</g>
<!-- Node1&#45;&gt;Node2 -->
<g id="edge1" class="edge">
<title>Node1&#45;&gt;Node2</title>
<path fill="none" stroke="#191970" d="M1947.3161,-482.0708C1748.1616,-475.4375 1225.4026,-455.1265 1055.4737,-420 867.1509,-381.0712 654.0261,-288.713 575.5748,-252.9726"/>
<polygon fill="#191970" stroke="#191970" points="576.8095,-249.6885 566.2603,-248.7061 573.8943,-256.0527 576.8095,-249.6885"/>
</g>
<!-- Node7 -->
<g id="node7" class="node">
<title>Node7</title>
<g id="a_node7"><a xlink:href="../../d5/d6f/phool_8h.html" target="_top" xlink:title="phool/phool.h">
<polygon fill="none" stroke="#000000" points="1517.9737,-342.5 1517.9737,-362.5 1602.9737,-362.5 1602.9737,-342.5 1517.9737,-342.5"/>
<text text-anchor="middle" x="1560.4737" y="-349.5" font-family="FreeSans" font-size="10.00" fill="#000000">phool/phool.h</text>
</a>
</g>
</g>
<!-- Node1&#45;&gt;Node7 -->
<g id="edge8" class="edge">
<title>Node1&#45;&gt;Node7</title>
<path fill="none" stroke="#191970" d="M1947.2251,-478.3637C1874.2181,-470.7564 1763.2316,-454.3229 1672.4737,-420 1638.6927,-407.2247 1603.6462,-384.2614 1581.9518,-368.7053"/>
<polygon fill="#191970" stroke="#191970" points="1583.9242,-365.8118 1573.7834,-362.7433 1579.7973,-371.4659 1583.9242,-365.8118"/>
</g>
<!-- Node8 -->
<g id="node8" class="node">
<title>Node8</title>
<polygon fill="none" stroke="#bfbfbf" points="1401.4737,-57.5 1401.4737,-77.5 1461.4737,-77.5 1461.4737,-57.5 1401.4737,-57.5"/>
<text text-anchor="middle" x="1431.4737" y="-64.5" font-family="FreeSans" font-size="10.00" fill="#000000">iostream</text>
</g>
<!-- Node1&#45;&gt;Node8 -->
<g id="edge119" class="edge">
<title>Node1&#45;&gt;Node8</title>
<path fill="none" stroke="#191970" d="M1947.3893,-481.4709C1798.4536,-473.5548 1488.4737,-445.8643 1488.4737,-352.5 1488.4737,-352.5 1488.4737,-352.5 1488.4737,-238.5 1488.4737,-182.3094 1488.8749,-165.5322 1466.4737,-114 1461.9892,-103.6838 1454.786,-93.5462 1448.0768,-85.3828"/>
<polygon fill="#191970" stroke="#191970" points="1450.589,-82.9371 1441.3986,-77.6656 1445.2957,-87.5177 1450.589,-82.9371"/>
</g>
<!-- Node9 -->
<g id="node9" class="node">
<title>Node9</title>
<g id="a_node9"><a xlink:href="../../dd/dd4/getClass_8h.html" target="_top" xlink:title="phool/getClass.h">
<polygon fill="none" stroke="#000000" points="220.4737,-285.5 220.4737,-305.5 320.4737,-305.5 320.4737,-285.5 220.4737,-285.5"/>
<text text-anchor="middle" x="270.4737" y="-292.5" font-family="FreeSans" font-size="10.00" fill="#000000">phool/getClass.h</text>
</a>
</g>
</g>
<!-- Node1&#45;&gt;Node9 -->
<g id="edge10" class="edge">
<title>Node1&#45;&gt;Node9</title>
<path fill="none" stroke="#191970" d="M1947.4568,-482.4347C1710.5341,-475.8539 1001.692,-453.8047 773.4737,-420 599.061,-394.1652 396.8849,-334.9158 311.683,-308.5576"/>
<polygon fill="#191970" stroke="#191970" points="312.7099,-305.2116 302.1216,-305.5855 310.632,-311.8962 312.7099,-305.2116"/>
</g>
<!-- Node15 -->
<g id="node15" class="node">
<title>Node15</title>
<g id="a_node15"><a xlink:href="../../d3/d08/PHG4HitContainer_8h.html" target="_top" xlink:title="g4main/PHG4HitContainer.h">
<polygon fill="none" stroke="#000000" points="1554.4737,-171.5 1554.4737,-191.5 1712.4737,-191.5 1712.4737,-171.5 1554.4737,-171.5"/>
<text text-anchor="middle" x="1633.4737" y="-178.5" font-family="FreeSans" font-size="10.00" fill="#000000">g4main/PHG4HitContainer.h</text>
</a>
</g>
</g>
<!-- Node1&#45;&gt;Node15 -->
<g id="edge24" class="edge">
<title>Node1&#45;&gt;Node15</title>
<path fill="none" stroke="#191970" d="M1947.2756,-474.9966C1893.5644,-466.1672 1821.8793,-449.7267 1764.4737,-420 1723.7631,-398.9186 1686.4737,-398.3451 1686.4737,-352.5 1686.4737,-352.5 1686.4737,-352.5 1686.4737,-295.5 1686.4737,-259.0232 1663.8857,-221.5873 1648.202,-199.9905"/>
<polygon fill="#191970" stroke="#191970" points="1650.8051,-197.6295 1641.9891,-191.7535 1645.2166,-201.8447 1650.8051,-197.6295"/>
</g>
<!-- Node21 -->
<g id="node21" class="node">
<title>Node21</title>
<g id="a_node21"><a xlink:href="../../d0/d25/PHG4TruthInfoContainer_8h.html" target="_top" xlink:title="g4main/PHG4TruthInfoContainer.h">
<polygon fill="none" stroke="#000000" points="1806.4737,-171.5 1806.4737,-191.5 1994.4737,-191.5 1994.4737,-171.5 1806.4737,-171.5"/>
<text text-anchor="middle" x="1900.4737" y="-178.5" font-family="FreeSans" font-size="10.00" fill="#000000">g4main/PHG4TruthInfoContainer.h</text>
</a>
</g>
</g>
<!-- Node1&#45;&gt;Node21 -->
<g id="edge35" class="edge">
<title>Node1&#45;&gt;Node21</title>
<path fill="none" stroke="#191970" d="M1986.0378,-456.4857C1957.3351,-432.5307 1923.4737,-395.218 1923.4737,-352.5 1923.4737,-352.5 1923.4737,-352.5 1923.4737,-295.5 1923.4737,-262.0122 1913.8192,-224.0646 1907.0203,-201.4929"/>
<polygon fill="#191970" stroke="#191970" points="1910.2935,-200.2328 1903.9669,-191.7343 1903.6129,-202.3232 1910.2935,-200.2328"/>
</g>
<!-- Node23 -->
<g id="node23" class="node">
<title>Node23</title>
<g id="a_node23"><a xlink:href="../../dd/d05/PHG4Particle_8h.html" target="_top" xlink:title="g4main/PHG4Particle.h">
<polygon fill="none" stroke="#000000" points="850.4737,-171.5 850.4737,-191.5 982.4737,-191.5 982.4737,-171.5 850.4737,-171.5"/>
<text text-anchor="middle" x="916.4737" y="-178.5" font-family="FreeSans" font-size="10.00" fill="#000000">g4main/PHG4Particle.h</text>
</a>
</g>
</g>
<!-- Node1&#45;&gt;Node23 -->
<g id="edge41" class="edge">
<title>Node1&#45;&gt;Node23</title>
<path fill="none" stroke="#191970" d="M1947.2402,-481.8905C1718.9194,-473.2439 1069.4737,-440.881 1069.4737,-352.5 1069.4737,-352.5 1069.4737,-352.5 1069.4737,-295.5 1069.4737,-242.1109 1008.8279,-210.7607 963.8998,-194.861"/>
<polygon fill="#191970" stroke="#191970" points="964.8882,-191.5005 954.2939,-191.608 962.6429,-198.1307 964.8882,-191.5005"/>
</g>
<!-- Node25 -->
<g id="node25" class="node">
<title>Node25</title>
<g id="a_node25"><a xlink:href="../../de/d83/PHG4Hit_8h.html" target="_top" xlink:title="g4main/PHG4Hit.h">
<polygon fill="none" stroke="#000000" points="1000.4737,-171.5 1000.4737,-191.5 1110.4737,-191.5 1110.4737,-171.5 1000.4737,-171.5"/>
<text text-anchor="middle" x="1055.4737" y="-178.5" font-family="FreeSans" font-size="10.00" fill="#000000">g4main/PHG4Hit.h</text>
</a>
</g>
</g>
<!-- Node1&#45;&gt;Node25 -->
<g id="edge46" class="edge">
<title>Node1&#45;&gt;Node25</title>
<path fill="none" stroke="#191970" d="M1947.1097,-480.3807C1738.3313,-468.3665 1184.4737,-429.2607 1184.4737,-352.5 1184.4737,-352.5 1184.4737,-352.5 1184.4737,-295.5 1184.4737,-246.0426 1130.5744,-212.8911 1092.4561,-195.63"/>
<polygon fill="#191970" stroke="#191970" points="1093.7138,-192.3603 1083.1474,-191.5837 1090.9232,-198.7801 1093.7138,-192.3603"/>
</g>
<!-- Node26 -->
<g id="node26" class="node">
<title>Node26</title>
<g id="a_node26"><a xlink:href="../../d4/d2a/PHG4VtxPoint_8h.html" target="_top" xlink:title="g4main/PHG4VtxPoint.h">
<polygon fill="none" stroke="#000000" points="1201.9737,-171.5 1201.9737,-191.5 1338.9737,-191.5 1338.9737,-171.5 1201.9737,-171.5"/>
<text text-anchor="middle" x="1270.4737" y="-178.5" font-family="FreeSans" font-size="10.00" fill="#000000">g4main/PHG4VtxPoint.h</text>
</a>
</g>
</g>
<!-- Node1&#45;&gt;Node26 -->
<g id="edge54" class="edge">
<title>Node1&#45;&gt;Node26</title>
<path fill="none" stroke="#191970" d="M1947.2783,-479.8952C1804.0101,-470.801 1510.722,-448.8867 1474.4737,-420 1449.5735,-400.1567 1450.4737,-384.3399 1450.4737,-352.5 1450.4737,-352.5 1450.4737,-352.5 1450.4737,-295.5 1450.4737,-264.3342 1453.4364,-250.1122 1431.4737,-228 1417.7346,-214.1673 1374.2538,-202.0734 1335.9383,-193.689"/>
<polygon fill="#191970" stroke="#191970" points="1336.325,-190.1929 1325.8151,-191.5315 1334.8659,-197.0391 1336.325,-190.1929"/>
</g>
<!-- Node27 -->
<g id="node27" class="node">
<title>Node27</title>
<g id="a_node27"><a xlink:href="../../d6/de6/PHTFileServer_8h.html" target="_top" xlink:title="TFile clean handling.">
<polygon fill="none" stroke="#000000" points="1688.9737,-114.5 1688.9737,-134.5 1821.9737,-134.5 1821.9737,-114.5 1688.9737,-114.5"/>
<text text-anchor="middle" x="1755.4737" y="-121.5" font-family="FreeSans" font-size="10.00" fill="#000000">fun4all/PHTFileServer.h</text>
</a>
</g>
</g>
<!-- Node1&#45;&gt;Node27 -->
<g id="edge59" class="edge">
<title>Node1&#45;&gt;Node27</title>
<path fill="none" stroke="#191970" d="M1947.3214,-475.5538C1874.9581,-462.4081 1778.4737,-430.2941 1778.4737,-352.5 1778.4737,-352.5 1778.4737,-352.5 1778.4737,-238.5 1778.4737,-205.0122 1768.8192,-167.0646 1762.0203,-144.4929"/>
<polygon fill="#191970" stroke="#191970" points="1765.2935,-143.2328 1758.9669,-134.7343 1758.6129,-145.3232 1765.2935,-143.2328"/>
</g>
<!-- Node30 -->
<g id="node30" class="node">
<title>Node30</title>
<g id="a_node30"><a xlink:href="../../dc/da2/Fun4AllServer_8h.html" target="_top" xlink:title="fun4all/Fun4AllServer.h">
<polygon fill="none" stroke="#000000" points="1288.9737,-228.5 1288.9737,-248.5 1421.9737,-248.5 1421.9737,-228.5 1288.9737,-228.5"/>
<text text-anchor="middle" x="1355.4737" y="-235.5" font-family="FreeSans" font-size="10.00" fill="#000000">fun4all/Fun4AllServer.h</text>
</a>
</g>
</g>
<!-- Node1&#45;&gt;Node30 -->
<g id="edge64" class="edge">
<title>Node1&#45;&gt;Node30</title>
<path fill="none" stroke="#191970" d="M1947.4067,-480.2577C1796.7093,-471.4485 1476.9413,-449.509 1436.4737,-420 1382.6772,-380.7715 1363.96,-297.568 1358.0037,-258.9651"/>
<polygon fill="#191970" stroke="#191970" points="1361.45,-258.3374 1356.5914,-248.9223 1354.5182,-259.3123 1361.45,-258.3374"/>
</g>
<!-- Node34 -->
<g id="node34" class="node">
<title>Node34</title>
<polygon fill="none" stroke="#bfbfbf" points="2302.4737,-399.5 2302.4737,-419.5 2452.4737,-419.5 2452.4737,-399.5 2302.4737,-399.5"/>
<text text-anchor="middle" x="2377.4737" y="-406.5" font-family="FreeSans" font-size="10.00" fill="#000000">g4hough/SvtxVertexMap.h</text>
</g>
<!-- Node1&#45;&gt;Node34 -->
<g id="edge79" class="edge">
<title>Node1&#45;&gt;Node34</title>
<path fill="none" stroke="#191970" d="M2103.5939,-467.8551C2169.2669,-453.8622 2261.6,-434.189 2320.4882,-421.6418"/>
<polygon fill="#191970" stroke="#191970" points="2321.3099,-425.0454 2330.361,-419.5382 2319.8511,-418.199 2321.3099,-425.0454"/>
</g>
<!-- Node35 -->
<g id="node35" class="node">
<title>Node35</title>
<polygon fill="none" stroke="#bfbfbf" points="2470.4737,-399.5 2470.4737,-419.5 2598.4737,-419.5 2598.4737,-399.5 2470.4737,-399.5"/>
<text text-anchor="middle" x="2534.4737" y="-406.5" font-family="FreeSans" font-size="10.00" fill="#000000">g4hough/SvtxVertex.h</text>
</g>
<!-- Node1&#45;&gt;Node35 -->
<g id="edge80" class="edge">
<title>Node1&#45;&gt;Node35</title>
<path fill="none" stroke="#191970" d="M2103.6115,-472.9866C2200.6771,-458.6842 2365.0779,-434.4601 2460.2775,-420.4326"/>
<polygon fill="#191970" stroke="#191970" points="2461.0188,-423.8613 2470.4017,-418.9409 2459.9983,-416.9361 2461.0188,-423.8613"/>
</g>
<!-- Node36 -->
<g id="node36" class="node">
<title>Node36</title>
<polygon fill="none" stroke="#bfbfbf" points="2616.4737,-399.5 2616.4737,-419.5 2760.4737,-419.5 2760.4737,-399.5 2616.4737,-399.5"/>
<text text-anchor="middle" x="2688.4737" y="-406.5" font-family="FreeSans" font-size="10.00" fill="#000000">g4hough/SvtxTrackMap.h</text>
</g>
<!-- Node1&#45;&gt;Node36 -->
<g id="edge81" class="edge">
<title>Node1&#45;&gt;Node36</title>
<path fill="none" stroke="#191970" d="M2103.6604,-476.3002C2213.4675,-464.6803 2419.8895,-442.4576 2606.0841,-420.1521"/>
<polygon fill="#191970" stroke="#191970" points="2606.547,-423.6217 2616.0586,-418.9547 2605.7127,-416.6716 2606.547,-423.6217"/>
</g>
<!-- Node37 -->
<g id="node37" class="node">
<title>Node37</title>
<polygon fill="none" stroke="#bfbfbf" points="2778.4737,-399.5 2778.4737,-419.5 2900.4737,-419.5 2900.4737,-399.5 2778.4737,-399.5"/>
<text text-anchor="middle" x="2839.4737" y="-406.5" font-family="FreeSans" font-size="10.00" fill="#000000">g4hough/SvtxTrack.h</text>
</g>
<!-- Node1&#45;&gt;Node37 -->
<g id="edge82" class="edge">
<title>Node1&#45;&gt;Node37</title>
<path fill="none" stroke="#191970" d="M2103.5615,-479.3412C2237.4645,-470.1402 2519.6872,-449.1992 2768.4679,-420.0595"/>
<polygon fill="#191970" stroke="#191970" points="2768.8986,-423.5331 2778.4205,-418.8873 2768.0797,-416.5811 2768.8986,-423.5331"/>
</g>
<!-- Node38 -->
<g id="node38" class="node">
<title>Node38</title>
<polygon fill="none" stroke="#bfbfbf" points="2918.9737,-399.5 2918.9737,-419.5 3071.9737,-419.5 3071.9737,-399.5 2918.9737,-399.5"/>
<text text-anchor="middle" x="2995.4737" y="-406.5" font-family="FreeSans" font-size="10.00" fill="#000000">g4hough/SvtxClusterMap.h</text>
</g>
<!-- Node1&#45;&gt;Node38 -->
<g id="edge83" class="edge">
<title>Node1&#45;&gt;Node38</title>
<path fill="none" stroke="#191970" d="M2103.6285,-480.0788C2256.1606,-471.1699 2604.4179,-449.4552 2908.2643,-420.0777"/>
<polygon fill="#191970" stroke="#191970" points="2908.9853,-423.5242 2918.6,-419.0737 2908.3085,-416.557 2908.9853,-423.5242"/>
</g>
<!-- Node39 -->
<g id="node39" class="node">
<title>Node39</title>
<polygon fill="none" stroke="#bfbfbf" points="3089.9737,-399.5 3089.9737,-419.5 3220.9737,-419.5 3220.9737,-399.5 3089.9737,-399.5"/>
<text text-anchor="middle" x="3155.4737" y="-406.5" font-family="FreeSans" font-size="10.00" fill="#000000">g4hough/SvtxCluster.h</text>
</g>
<!-- Node1&#45;&gt;Node39 -->
<g id="edge84" class="edge">
<title>Node1&#45;&gt;Node39</title>
<path fill="none" stroke="#191970" d="M2103.4785,-481.8712C2277.1086,-475.5567 2708.7888,-457.2955 3079.614,-420.1264"/>
<polygon fill="#191970" stroke="#191970" points="3080.1411,-423.5911 3089.7394,-419.1052 3079.4387,-416.6264 3080.1411,-423.5911"/>
</g>
<!-- Node40 -->
<g id="node40" class="node">
<title>Node40</title>
<polygon fill="none" stroke="#bfbfbf" points="3239.4737,-399.5 3239.4737,-419.5 3371.4737,-419.5 3371.4737,-399.5 3239.4737,-399.5"/>
<text text-anchor="middle" x="3305.4737" y="-406.5" font-family="FreeSans" font-size="10.00" fill="#000000">g4hough/SvtxHitMap.h</text>
</g>
<!-- Node1&#45;&gt;Node40 -->
<g id="edge85" class="edge">
<title>Node1&#45;&gt;Node40</title>
<path fill="none" stroke="#191970" d="M2103.5356,-482.6365C2294.1069,-477.5879 2798.4136,-461.2199 3229.0971,-420.0606"/>
<polygon fill="#191970" stroke="#191970" points="3229.6377,-423.5248 3239.2568,-419.0837 3228.9677,-416.5569 3229.6377,-423.5248"/>
</g>
<!-- Node41 -->
<g id="node41" class="node">
<title>Node41</title>
<polygon fill="none" stroke="#bfbfbf" points="3389.4737,-399.5 3389.4737,-419.5 3499.4737,-419.5 3499.4737,-399.5 3389.4737,-399.5"/>
<text text-anchor="middle" x="3444.4737" y="-406.5" font-family="FreeSans" font-size="10.00" fill="#000000">g4hough/SvtxHit.h</text>
</g>
<!-- Node1&#45;&gt;Node41 -->
<g id="edge86" class="edge">
<title>Node1&#45;&gt;Node41</title>
<path fill="none" stroke="#191970" d="M2103.6167,-483.9199C2310.3599,-481.7114 2888.8487,-471.1596 3379.2564,-420.0153"/>
<polygon fill="#191970" stroke="#191970" points="3379.7903,-423.4786 3389.3701,-418.9535 3379.0593,-416.5168 3379.7903,-423.4786"/>
</g>
<!-- Node42 -->
<g id="node42" class="node">
<title>Node42</title>
<g id="a_node42"><a xlink:href="../../d3/d59/SvtxEvalStack_8h.html" target="_top" xlink:title="g4eval/SvtxEvalStack.h">
<polygon fill="none" stroke="#000000" points="2110.9737,-399.5 2110.9737,-419.5 2245.9737,-419.5 2245.9737,-399.5 2110.9737,-399.5"/>
<text text-anchor="middle" x="2178.4737" y="-406.5" font-family="FreeSans" font-size="10.00" fill="#000000">g4eval/SvtxEvalStack.h</text>
</a>
</g>
</g>
<!-- Node1&#45;&gt;Node42 -->
<g id="edge87" class="edge">
<title>Node1&#45;&gt;Node42</title>
<path fill="none" stroke="#191970" d="M2082.8806,-456.3594C2105.2648,-445.3867 2129.9789,-433.272 2148.6698,-424.1098"/>
<polygon fill="#191970" stroke="#191970" points="2150.412,-427.1537 2157.8506,-419.6094 2147.3308,-420.8683 2150.412,-427.1537"/>
</g>
<!-- Node43 -->
<g id="node43" class="node">
<title>Node43</title>
<g id="a_node43"><a xlink:href="../../d5/d9c/SvtxVertexEval_8h.html" target="_top" xlink:title="SvtxVertexEval.h">
<polygon fill="none" stroke="#000000" points="2127.4737,-342.5 2127.4737,-362.5 2229.4737,-362.5 2229.4737,-342.5 2127.4737,-342.5"/>
<text text-anchor="middle" x="2178.4737" y="-349.5" font-family="FreeSans" font-size="10.00" fill="#000000">SvtxVertexEval.h</text>
</a>
</g>
</g>
<!-- Node1&#45;&gt;Node43 -->
<g id="edge116" class="edge">
<title>Node1&#45;&gt;Node43</title>
<path fill="none" stroke="#191970" d="M2047.2419,-456.4101C2061.7547,-438.7321 2081.8866,-416.1082 2102.4737,-399 2117.0544,-386.8832 2135.0938,-375.7102 2149.9381,-367.3545"/>
<polygon fill="#191970" stroke="#191970" points="2151.6316,-370.4176 2158.7084,-362.5328 2148.2592,-364.2835 2151.6316,-370.4176"/>
</g>
<!-- Node44 -->
<g id="node44" class="node">
<title>Node44</title>
<g id="a_node44"><a xlink:href="../../df/d8a/SvtxTrackEval_8h.html" target="_top" xlink:title="SvtxTrackEval.h">
<polygon fill="none" stroke="#000000" points="2130.4737,-285.5 2130.4737,-305.5 2226.4737,-305.5 2226.4737,-285.5 2130.4737,-285.5"/>
<text text-anchor="middle" x="2178.4737" y="-292.5" font-family="FreeSans" font-size="10.00" fill="#000000">SvtxTrackEval.h</text>
</a>
</g>
</g>
<!-- Node1&#45;&gt;Node44 -->
<g id="edge113" class="edge">
<title>Node1&#45;&gt;Node44</title>
<path fill="none" stroke="#191970" d="M2039.691,-456.303C2055.9521,-425.8386 2084.7303,-376.9718 2118.4737,-342 2129.3388,-330.7394 2143.0322,-319.9214 2154.5932,-311.5577"/>
<polygon fill="#191970" stroke="#191970" points="2156.7813,-314.2975 2162.9361,-305.6737 2152.7468,-308.5771 2156.7813,-314.2975"/>
</g>
<!-- Node45 -->
<g id="node45" class="node">
<title>Node45</title>
<g id="a_node45"><a xlink:href="../../d7/dcd/SvtxClusterEval_8h.html" target="_top" xlink:title="SvtxClusterEval.h">
<polygon fill="none" stroke="#000000" points="2229.9737,-228.5 2229.9737,-248.5 2334.9737,-248.5 2334.9737,-228.5 2229.9737,-228.5"/>
<text text-anchor="middle" x="2282.4737" y="-235.5" font-family="FreeSans" font-size="10.00" fill="#000000">SvtxClusterEval.h</text>
</a>
</g>
</g>
<!-- Node1&#45;&gt;Node45 -->
<g id="edge114" class="edge">
<title>Node1&#45;&gt;Node45</title>
<path fill="none" stroke="#191970" d="M2030.7961,-456.4154C2040.621,-412.6688 2065.9022,-328.7454 2121.4737,-285 2137.4226,-272.4452 2183.8145,-259.7623 2222.7259,-250.8207"/>
<polygon fill="#191970" stroke="#191970" points="2223.9655,-254.1292 2232.9512,-248.516 2222.4263,-247.3005 2223.9655,-254.1292"/>
</g>
<!-- Node46 -->
<g id="node46" class="node">
<title>Node46</title>
<g id="a_node46"><a xlink:href="../../d7/d98/SvtxHitEval_8h.html" target="_top" xlink:title="SvtxHitEval.h">
<polygon fill="none" stroke="#000000" points="2240.4737,-171.5 2240.4737,-191.5 2324.4737,-191.5 2324.4737,-171.5 2240.4737,-171.5"/>
<text text-anchor="middle" x="2282.4737" y="-178.5" font-family="FreeSans" font-size="10.00" fill="#000000">SvtxHitEval.h</text>
</a>
</g>
</g>
<!-- Node1&#45;&gt;Node46 -->
<g id="edge117" class="edge">
<title>Node1&#45;&gt;Node46</title>
<path fill="none" stroke="#191970" d="M2027.2681,-456.4315C2028.7924,-439.5772 2031.5521,-417.8231 2036.4737,-399 2050.9052,-343.8054 2053.9842,-324.1578 2095.4737,-285 2140.0981,-242.8835 2205.0995,-211.9914 2245.5324,-195.3963"/>
<polygon fill="#191970" stroke="#191970" points="2247.0363,-198.564 2255.0075,-191.5847 2244.4238,-192.0697 2247.0363,-198.564"/>
</g>
<!-- Node47 -->
<g id="node47" class="node">
<title>Node47</title>
<g id="a_node47"><a xlink:href="../../d7/d20/SvtxTruthEval_8h.html" target="_top" xlink:title="SvtxTruthEval.h">
<polygon fill="none" stroke="#000000" points="2532.9737,-114.5 2532.9737,-134.5 2627.9737,-134.5 2627.9737,-114.5 2532.9737,-114.5"/>
<text text-anchor="middle" x="2580.4737" y="-121.5" font-family="FreeSans" font-size="10.00" fill="#000000">SvtxTruthEval.h</text>
</a>
</g>
</g>
<!-- Node1&#45;&gt;Node47 -->
<g id="edge115" class="edge">
<title>Node1&#45;&gt;Node47</title>
<path fill="none" stroke="#191970" d="M2103.5012,-471.984C2149.7341,-462.3387 2208.3081,-446.1139 2255.4737,-420 2395.169,-342.6558 2523.7671,-194.1479 2565.9667,-142.6306"/>
<polygon fill="#191970" stroke="#191970" points="2568.8228,-144.6656 2572.4086,-134.696 2563.3883,-140.2535 2568.8228,-144.6656"/>
</g>
<!-- Node50 -->
<g id="node50" class="node">
<title>Node50</title>
<polygon fill="none" stroke="#bfbfbf" points="3517.9737,-399.5 3517.9737,-419.5 3570.9737,-419.5 3570.9737,-399.5 3517.9737,-399.5"/>
<text text-anchor="middle" x="3544.4737" y="-406.5" font-family="FreeSans" font-size="10.00" fill="#000000">TTree.h</text>
</g>
<!-- Node1&#45;&gt;Node50 -->
<g id="edge118" class="edge">
<title>Node1&#45;&gt;Node50</title>
<path fill="none" stroke="#191970" d="M2103.5845,-483.5765C2365.7872,-480.0941 3213.9861,-465.6314 3507.6901,-419.6711"/>
<polygon fill="#191970" stroke="#191970" points="3508.5877,-423.0716 3517.9023,-418.0228 3507.4723,-416.161 3508.5877,-423.0716"/>
</g>
<!-- Node3 -->
<g id="node3" class="node">
<title>Node3</title>
<g id="a_node3"><a xlink:href="../../d5/dc2/SubsysReco_8h.html" target="_top" xlink:title="fun4all/SubsysReco.h">
<polygon fill="none" stroke="#000000" points="482.4737,-171.5 482.4737,-191.5 606.4737,-191.5 606.4737,-171.5 482.4737,-171.5"/>
<text text-anchor="middle" x="544.4737" y="-178.5" font-family="FreeSans" font-size="10.00" fill="#000000">fun4all/SubsysReco.h</text>
</a>
</g>
</g>
<!-- Node2&#45;&gt;Node3 -->
<g id="edge2" class="edge">
<title>Node2&#45;&gt;Node3</title>
<path fill="none" stroke="#191970" d="M544.4737,-228.3095C544.4737,-220.9335 544.4737,-210.72 544.4737,-201.715"/>
<polygon fill="#191970" stroke="#191970" points="547.9738,-201.6022 544.4737,-191.6022 540.9738,-201.6023 547.9738,-201.6022"/>
</g>
<!-- Node6 -->
<g id="node6" class="node">
<title>Node6</title>
<polygon fill="none" stroke="#bfbfbf" points="579.9737,-57.5 579.9737,-77.5 624.9737,-77.5 624.9737,-57.5 579.9737,-57.5"/>
<text text-anchor="middle" x="602.4737" y="-64.5" font-family="FreeSans" font-size="10.00" fill="#000000">string</text>
</g>
<!-- Node2&#45;&gt;Node6 -->
<g id="edge7" class="edge">
<title>Node2&#45;&gt;Node6</title>
<path fill="none" stroke="#191970" d="M517.1462,-228.383C501.309,-220.939 482.7212,-209.1108 473.4737,-192 469.0361,-183.7891 470.8795,-179.9656 473.4737,-171 481.8019,-142.2177 487.2576,-134.1053 509.4737,-114 527.0261,-98.1153 551.0003,-86.3026 570.211,-78.5584"/>
<polygon fill="#191970" stroke="#191970" points="571.6894,-81.7397 579.7634,-74.8795 569.1737,-75.2074 571.6894,-81.7397"/>
</g>
<!-- Node4 -->
<g id="node4" class="node">
<title>Node4</title>
<g id="a_node4"><a xlink:href="../../d2/de7/Fun4AllBase_8h.html" target="_top" xlink:title="Fun4AllBase.h">
<polygon fill="none" stroke="#000000" points="558.9737,-114.5 558.9737,-134.5 645.9737,-134.5 645.9737,-114.5 558.9737,-114.5"/>
<text text-anchor="middle" x="602.4737" y="-121.5" font-family="FreeSans" font-size="10.00" fill="#000000">Fun4AllBase.h</text>
</a>
</g>
</g>
<!-- Node3&#45;&gt;Node4 -->
<g id="edge3" class="edge">
<title>Node3&#45;&gt;Node4</title>
<path fill="none" stroke="#191970" d="M554.8429,-171.3095C563.1732,-163.1229 575.0601,-151.441 584.8748,-141.7955"/>
<polygon fill="#191970" stroke="#191970" points="587.5152,-144.1079 592.1942,-134.6022 582.6087,-139.1153 587.5152,-144.1079"/>
</g>
<!-- Node3&#45;&gt;Node6 -->
<g id="edge6" class="edge">
<title>Node3&#45;&gt;Node6</title>
<path fill="none" stroke="#191970" d="M534.6299,-171.4636C522.5622,-157.8917 505.0403,-133.1798 516.4737,-114 528.0933,-94.508 551.0321,-82.6928 570.2981,-75.8523"/>
<polygon fill="#191970" stroke="#191970" points="571.5293,-79.1325 579.9588,-72.7143 569.3667,-72.4749 571.5293,-79.1325"/>
</g>
<!-- Node5 -->
<g id="node5" class="node">
<title>Node5</title>
<polygon fill="none" stroke="#bfbfbf" points="839.9737,-57.5 839.9737,-77.5 888.9737,-77.5 888.9737,-57.5 839.9737,-57.5"/>
<text text-anchor="middle" x="864.4737" y="-64.5" font-family="FreeSans" font-size="10.00" fill="#000000">climits</text>
</g>
<!-- Node4&#45;&gt;Node5 -->
<g id="edge4" class="edge">
<title>Node4&#45;&gt;Node5</title>
<path fill="none" stroke="#191970" d="M646.0318,-115.0236C697.6811,-103.7869 782.7052,-85.2893 830.0045,-74.999"/>
<polygon fill="#191970" stroke="#191970" points="830.7515,-78.4185 839.7789,-72.8725 829.2634,-71.5785 830.7515,-78.4185"/>
</g>
<!-- Node4&#45;&gt;Node6 -->
<g id="edge5" class="edge">
<title>Node4&#45;&gt;Node6</title>
<path fill="none" stroke="#191970" d="M602.4737,-114.3095C602.4737,-106.9335 602.4737,-96.72 602.4737,-87.715"/>
<polygon fill="#191970" stroke="#191970" points="605.9738,-87.6022 602.4737,-77.6022 598.9738,-87.6023 605.9738,-87.6022"/>
</g>
<!-- Node7&#45;&gt;Node8 -->
<g id="edge9" class="edge">
<title>Node7&#45;&gt;Node8</title>
<path fill="none" stroke="#191970" d="M1559.396,-342.2859C1554.7664,-299.1029 1536.1802,-132.8701 1522.4737,-114 1510.1003,-96.9651 1489.6436,-85.7313 1471.2567,-78.5809"/>
<polygon fill="#191970" stroke="#191970" points="1472.1971,-75.1997 1461.6026,-75.1113 1469.8296,-81.7872 1472.1971,-75.1997"/>
</g>
<!-- Node9&#45;&gt;Node6 -->
<g id="edge23" class="edge">
<title>Node9&#45;&gt;Node6</title>
<path fill="none" stroke="#191970" d="M270.7764,-285.4756C272.324,-254.0064 281.7766,-156.7411 339.4737,-114 375.5751,-87.2566 507.7272,-74.3561 569.8241,-69.6655"/>
<polygon fill="#191970" stroke="#191970" points="570.147,-73.1514 579.8657,-68.9328 569.6375,-66.1699 570.147,-73.1514"/>
</g>
<!-- Node10 -->
<g id="node10" class="node">
<title>Node10</title>
<g id="a_node10"><a xlink:href="../../dd/d9b/PHDataNode_8h.html" target="_top" xlink:title="PHDataNode.h">
<polygon fill="none" stroke="#000000" points="336.9737,-171.5 336.9737,-191.5 425.9737,-191.5 425.9737,-171.5 336.9737,-171.5"/>
<text text-anchor="middle" x="381.4737" y="-178.5" font-family="FreeSans" font-size="10.00" fill="#000000">PHDataNode.h</text>
</a>
</g>
</g>
<!-- Node9&#45;&gt;Node10 -->
<g id="edge11" class="edge">
<title>Node9&#45;&gt;Node10</title>
<path fill="none" stroke="#191970" d="M282.8386,-285.1936C293.6255,-276.0288 309.5308,-262.0902 322.4737,-249 338.2422,-233.0521 354.9519,-213.672 366.5475,-199.7761"/>
<polygon fill="#191970" stroke="#191970" points="369.3753,-201.8486 373.0523,-191.9123 363.9815,-197.3869 369.3753,-201.8486"/>
</g>
<!-- Node11 -->
<g id="node11" class="node">
<title>Node11</title>
<g id="a_node11"><a xlink:href="../../d3/d62/PHNode_8h.html" target="_top" xlink:title="PHNode.h">
<polygon fill="none" stroke="#ff0000" points="348.9737,-114.5 348.9737,-134.5 413.9737,-134.5 413.9737,-114.5 348.9737,-114.5"/>
<text text-anchor="middle" x="381.4737" y="-121.5" font-family="FreeSans" font-size="10.00" fill="#000000">PHNode.h</text>
</a>
</g>
</g>
<!-- Node9&#45;&gt;Node11 -->
<g id="edge19" class="edge">
<title>Node9&#45;&gt;Node11</title>
<path fill="none" stroke="#191970" d="M273.465,-285.3559C280.3721,-263.0697 299.0475,-208.8136 327.4737,-171 336.1554,-159.4513 348.1536,-148.7626 358.6358,-140.5525"/>
<polygon fill="#191970" stroke="#191970" points="360.7462,-143.3447 366.625,-134.5304 356.5327,-137.7548 360.7462,-143.3447"/>
</g>
<!-- Node12 -->
<g id="node12" class="node">
<title>Node12</title>
<g id="a_node12"><a xlink:href="../../d3/d79/PHIODataNode_8h.html" target="_top" xlink:title="PHIODataNode.h">
<polygon fill="none" stroke="#ff0000" points="142.4737,-228.5 142.4737,-248.5 242.4737,-248.5 242.4737,-228.5 142.4737,-228.5"/>
<text text-anchor="middle" x="192.4737" y="-235.5" font-family="FreeSans" font-size="10.00" fill="#000000">PHIODataNode.h</text>
</a>
</g>
</g>
<!-- Node9&#45;&gt;Node12 -->
<g id="edge15" class="edge">
<title>Node9&#45;&gt;Node12</title>
<path fill="none" stroke="#191970" d="M256.5289,-285.3095C244.8825,-276.7987 228.0666,-264.5102 214.5865,-254.6594"/>
<polygon fill="#191970" stroke="#191970" points="216.4368,-251.6766 206.2978,-248.6022 212.3067,-257.3283 216.4368,-251.6766"/>
</g>
<!-- Node13 -->
<g id="node13" class="node">
<title>Node13</title>
<polygon fill="none" stroke="#bfbfbf" points="123.9737,-57.5 123.9737,-77.5 188.9737,-77.5 188.9737,-57.5 123.9737,-57.5"/>
<text text-anchor="middle" x="156.4737" y="-64.5" font-family="FreeSans" font-size="10.00" fill="#000000">TObject.h</text>
</g>
<!-- Node9&#45;&gt;Node13 -->
<g id="edge22" class="edge">
<title>Node9&#45;&gt;Node13</title>
<path fill="none" stroke="#191970" d="M220.3589,-293.7912C153.1672,-290.3249 39.3079,-279.9279 13.4737,-249 -36.971,-188.6091 73.8421,-114.2062 128.4108,-82.719"/>
<polygon fill="#191970" stroke="#191970" points="130.3,-85.6714 137.2746,-77.6961 126.8488,-79.5812 130.3,-85.6714"/>
</g>
<!-- Node14 -->
<g id="node14" class="node">
<title>Node14</title>
<g id="a_node14"><a xlink:href="../../d8/dfd/PHNodeIterator_8h.html" target="_top" xlink:title="PHNodeIterator.h">
<polygon fill="none" stroke="#ff0000" points="22.4737,-228.5 22.4737,-248.5 124.4737,-248.5 124.4737,-228.5 22.4737,-228.5"/>
<text text-anchor="middle" x="73.4737" y="-235.5" font-family="FreeSans" font-size="10.00" fill="#000000">PHNodeIterator.h</text>
</a>
</g>
</g>
<!-- Node9&#45;&gt;Node14 -->
<g id="edge20" class="edge">
<title>Node9&#45;&gt;Node14</title>
<path fill="none" stroke="#191970" d="M235.7075,-285.4408C202.8936,-275.9464 153.5419,-261.6669 117.8903,-251.3515"/>
<polygon fill="#191970" stroke="#191970" points="118.8019,-247.9718 108.2231,-248.5544 116.8563,-254.696 118.8019,-247.9718"/>
</g>
<!-- Node10&#45;&gt;Node8 -->
<g id="edge14" class="edge">
<title>Node10&#45;&gt;Node8</title>
<path fill="none" stroke="#191970" d="M426.2392,-174.5641C512.6955,-161.3479 708.7452,-132.2504 874.4737,-114 1067.4584,-92.7481 1299.0182,-76.3117 1390.9754,-70.145"/>
<polygon fill="#191970" stroke="#191970" points="1391.4857,-73.6188 1401.2306,-69.4611 1391.0199,-66.6343 1391.4857,-73.6188"/>
</g>
<!-- Node10&#45;&gt;Node11 -->
<g id="edge12" class="edge">
<title>Node10&#45;&gt;Node11</title>
<path fill="none" stroke="#191970" d="M381.4737,-171.3095C381.4737,-163.9335 381.4737,-153.72 381.4737,-144.715"/>
<polygon fill="#191970" stroke="#191970" points="384.9738,-144.6022 381.4737,-134.6022 377.9738,-144.6023 384.9738,-144.6022"/>
</g>
<!-- Node11&#45;&gt;Node6 -->
<g id="edge13" class="edge">
<title>Node11&#45;&gt;Node6</title>
<path fill="none" stroke="#191970" d="M414.083,-116.0895C455.923,-105.2981 528.0766,-86.6884 569.8995,-75.9015"/>
<polygon fill="#191970" stroke="#191970" points="571.0331,-79.2237 579.8421,-73.3371 569.2849,-72.4455 571.0331,-79.2237"/>
</g>
<!-- Node12&#45;&gt;Node6 -->
<g id="edge18" class="edge">
<title>Node12&#45;&gt;Node6</title>
<path fill="none" stroke="#191970" d="M194.3851,-228.3596C199.5429,-204.068 216.1715,-142.4557 256.4737,-114 306.4805,-78.6923 492.995,-70.1528 569.4571,-68.1211"/>
<polygon fill="#191970" stroke="#191970" points="569.5789,-71.6193 579.4902,-67.8756 569.4075,-64.6214 569.5789,-71.6193"/>
</g>
<!-- Node12&#45;&gt;Node10 -->
<g id="edge16" class="edge">
<title>Node12&#45;&gt;Node10</title>
<path fill="none" stroke="#191970" d="M225.828,-228.4408C257.1749,-218.9869 304.2526,-204.7889 338.4216,-194.484"/>
<polygon fill="#191970" stroke="#191970" points="339.572,-197.7928 348.1355,-191.5544 337.5508,-191.091 339.572,-197.7928"/>
</g>
<!-- Node12&#45;&gt;Node13 -->
<g id="edge17" class="edge">
<title>Node12&#45;&gt;Node13</title>
<path fill="none" stroke="#191970" d="M190.3296,-228.3153C184.5406,-200.8178 168.5105,-124.6748 160.7683,-87.8993"/>
<polygon fill="#191970" stroke="#191970" points="164.1372,-86.912 158.6521,-77.8476 157.2874,-88.3541 164.1372,-86.912"/>
</g>
<!-- Node14&#45;&gt;Node6 -->
<g id="edge21" class="edge">
<title>Node14&#45;&gt;Node6</title>
<path fill="none" stroke="#191970" d="M82.5758,-228.2172C105.0409,-203.6092 166.0668,-141.3477 231.4737,-114 292.2477,-88.5894 489.8389,-74.2433 569.1154,-69.3891"/>
<polygon fill="#191970" stroke="#191970" points="569.7173,-72.8594 579.4899,-68.767 569.2982,-65.8719 569.7173,-72.8594"/>
</g>
<!-- Node15&#45;&gt;Node6 -->
<g id="edge33" class="edge">
<title>Node15&#45;&gt;Node6</title>
<path fill="none" stroke="#191970" d="M1565.7038,-171.4807C1505.0478,-162.3893 1413.7261,-148.3963 1334.4737,-135 1283.2441,-126.3405 1271.0055,-120.6282 1219.4737,-114 997.3347,-85.4278 727.7735,-72.5524 635.3796,-68.7578"/>
<polygon fill="#191970" stroke="#191970" points="635.385,-65.2552 625.2521,-68.3493 635.1029,-72.2495 635.385,-65.2552"/>
</g>
<!-- Node15&#45;&gt;Node8 -->
<g id="edge30" class="edge">
<title>Node15&#45;&gt;Node8</title>
<path fill="none" stroke="#191970" d="M1625.0125,-171.4517C1612.3284,-156.9524 1587.0246,-130.1371 1560.4737,-114 1532.6935,-97.1157 1497.8453,-85.0134 1471.3739,-77.3955"/>
<polygon fill="#191970" stroke="#191970" points="1472.2432,-74.0045 1461.6708,-74.6949 1470.3662,-80.7482 1472.2432,-74.0045"/>
</g>
<!-- Node16 -->
<g id="node16" class="node">
<title>Node16</title>
<g id="a_node16"><a xlink:href="../../d2/d92/PHG4HitDefs_8h.html" target="_top" xlink:title="PHG4HitDefs.h">
<polygon fill="none" stroke="#000000" points="1118.9737,-114.5 1118.9737,-134.5 1209.9737,-134.5 1209.9737,-114.5 1118.9737,-114.5"/>
<text text-anchor="middle" x="1164.4737" y="-121.5" font-family="FreeSans" font-size="10.00" fill="#000000">PHG4HitDefs.h</text>
</a>
</g>
</g>
<!-- Node15&#45;&gt;Node16 -->
<g id="edge25" class="edge">
<title>Node15&#45;&gt;Node16</title>
<path fill="none" stroke="#191970" d="M1554.4446,-171.8952C1459.5906,-160.3671 1302.9692,-141.3321 1220.0179,-131.2506"/>
<polygon fill="#191970" stroke="#191970" points="1220.3819,-127.7691 1210.0327,-130.037 1219.5373,-134.718 1220.3819,-127.7691"/>
</g>
<!-- Node17 -->
<g id="node17" class="node">
<title>Node17</title>
<g id="a_node17"><a xlink:href="../../df/d32/PHObject_8h.html" target="_top" xlink:title="phool/PHObject.h">
<polygon fill="none" stroke="#000000" points="996.4737,-114.5 996.4737,-134.5 1100.4737,-134.5 1100.4737,-114.5 996.4737,-114.5"/>
<text text-anchor="middle" x="1048.4737" y="-121.5" font-family="FreeSans" font-size="10.00" fill="#000000">phool/PHObject.h</text>
</a>
</g>
</g>
<!-- Node15&#45;&gt;Node17 -->
<g id="edge27" class="edge">
<title>Node15&#45;&gt;Node17</title>
<path fill="none" stroke="#191970" d="M1554.2453,-176.4996C1453.5434,-169.6886 1274.1507,-156.0352 1110.906,-135.0995"/>
<polygon fill="#191970" stroke="#191970" points="1111.0411,-131.5878 1100.6745,-133.7749 1110.1423,-138.5299 1111.0411,-131.5878"/>
</g>
<!-- Node18 -->
<g id="node18" class="node">
<title>Node18</title>
<polygon fill="none" stroke="#bfbfbf" points="2131.9737,-57.5 2131.9737,-77.5 2170.9737,-77.5 2170.9737,-57.5 2131.9737,-57.5"/>
<text text-anchor="middle" x="2151.4737" y="-64.5" font-family="FreeSans" font-size="10.00" fill="#000000">map</text>
</g>
<!-- Node15&#45;&gt;Node18 -->
<g id="edge31" class="edge">
<title>Node15&#45;&gt;Node18</title>
<path fill="none" stroke="#191970" d="M1703.1842,-171.4582C1749.5364,-163.8126 1811.4145,-151.735 1864.4737,-135 1886.681,-127.9958 1890.2438,-120.9322 1912.4737,-114 1986.0717,-91.049 2076.1065,-77.1989 2121.8045,-71.1309"/>
<polygon fill="#191970" stroke="#191970" points="2122.442,-74.5776 2131.909,-69.8208 2121.5419,-67.6357 2122.442,-74.5776"/>
</g>
<!-- Node19 -->
<g id="node19" class="node">
<title>Node19</title>
<polygon fill="none" stroke="#bfbfbf" points="2488.4737,-.5 2488.4737,-20.5 2520.4737,-20.5 2520.4737,-.5 2488.4737,-.5"/>
<text text-anchor="middle" x="2504.4737" y="-7.5" font-family="FreeSans" font-size="10.00" fill="#000000">set</text>
</g>
<!-- Node15&#45;&gt;Node19 -->
<g id="edge32" class="edge">
<title>Node15&#45;&gt;Node19</title>
<path fill="none" stroke="#191970" d="M1630.5285,-171.2843C1624.3284,-147.3667 1612.9561,-87.4605 1644.4737,-57 1675.1913,-27.3126 2336.5787,-13.5699 2478.0092,-10.965"/>
<polygon fill="#191970" stroke="#191970" points="2478.3978,-14.4586 2488.3326,-10.7777 2478.2708,-7.4597 2478.3978,-14.4586"/>
</g>
<!-- Node20 -->
<g id="node20" class="node">
<title>Node20</title>
<polygon fill="none" stroke="#bfbfbf" points="2064.9737,-114.5 2064.9737,-134.5 2109.9737,-134.5 2109.9737,-114.5 2064.9737,-114.5"/>
<text text-anchor="middle" x="2087.4737" y="-121.5" font-family="FreeSans" font-size="10.00" fill="#000000">utility</text>
</g>
<!-- Node15&#45;&gt;Node20 -->
<g id="edge34" class="edge">
<title>Node15&#45;&gt;Node20</title>
<path fill="none" stroke="#191970" d="M1712.617,-172.5807C1790.3162,-163.6675 1912.1656,-149.2713 2017.4737,-135 2029.594,-133.3575 2042.871,-131.405 2054.5731,-129.6318"/>
<polygon fill="#191970" stroke="#191970" points="2055.4429,-133.0395 2064.7988,-128.0678 2054.3846,-126.12 2055.4429,-133.0395"/>
</g>
<!-- Node16&#45;&gt;Node6 -->
<g id="edge26" class="edge">
<title>Node16&#45;&gt;Node6</title>
<path fill="none" stroke="#191970" d="M1118.912,-115.4486C1115.7236,-114.924 1112.554,-114.4342 1109.4737,-114 931.2658,-88.8776 715.8164,-74.3025 635.095,-69.3889"/>
<polygon fill="#191970" stroke="#191970" points="635.2446,-65.8917 625.0526,-68.7855 634.8246,-72.8791 635.2446,-65.8917"/>
</g>
<!-- Node17&#45;&gt;Node8 -->
<g id="edge29" class="edge">
<title>Node17&#45;&gt;Node8</title>
<path fill="none" stroke="#191970" d="M1100.7018,-115.4144C1103.6681,-114.9281 1106.6079,-114.4535 1109.4737,-114 1210.7299,-97.9771 1330.2641,-81.3006 1391.2614,-72.9512"/>
<polygon fill="#191970" stroke="#191970" points="1391.8108,-76.4088 1401.2451,-71.5875 1390.8634,-69.4732 1391.8108,-76.4088"/>
</g>
<!-- Node17&#45;&gt;Node13 -->
<g id="edge28" class="edge">
<title>Node17&#45;&gt;Node13</title>
<path fill="none" stroke="#191970" d="M996.3669,-118.5084C981.2544,-116.8967 964.7184,-115.2547 949.4737,-114 663.2907,-90.4462 318.0468,-74.446 199.1333,-69.2936"/>
<polygon fill="#191970" stroke="#191970" points="199.1342,-65.7905 188.9928,-68.8568 198.8329,-72.784 199.1342,-65.7905"/>
</g>
<!-- Node21&#45;&gt;Node8 -->
<g id="edge37" class="edge">
<title>Node21&#45;&gt;Node8</title>
<path fill="none" stroke="#191970" d="M1848.7249,-171.4199C1804.0246,-162.5083 1737.7805,-148.8121 1680.4737,-135 1606.2856,-117.1191 1520.553,-93.1399 1471.5049,-79.1003"/>
<polygon fill="#191970" stroke="#191970" points="1472.1903,-75.6557 1461.6128,-76.261 1470.2591,-82.3841 1472.1903,-75.6557"/>
</g>
<!-- Node21&#45;&gt;Node17 -->
<g id="edge36" class="edge">
<title>Node21&#45;&gt;Node17</title>
<path fill="none" stroke="#191970" d="M1806.3873,-175.9774C1612.9099,-164.6198 1183.0407,-139.38 1110.8822,-134.6187"/>
<polygon fill="#191970" stroke="#191970" points="1110.8887,-131.1101 1100.6618,-133.8779 1110.3826,-138.0917 1110.8887,-131.1101"/>
</g>
<!-- Node21&#45;&gt;Node18 -->
<g id="edge39" class="edge">
<title>Node21&#45;&gt;Node18</title>
<path fill="none" stroke="#191970" d="M1928.2776,-171.4856C1952.227,-162.6151 1987.5576,-148.9423 2017.4737,-135 2035.3175,-126.684 2038.9628,-122.9958 2056.4737,-114 2078.45,-102.7103 2103.5676,-90.4431 2122.4541,-81.3445"/>
<polygon fill="#191970" stroke="#191970" points="2124.2142,-84.382 2131.7129,-76.8973 2121.1833,-78.0721 2124.2142,-84.382"/>
</g>
<!-- Node21&#45;&gt;Node20 -->
<g id="edge40" class="edge">
<title>Node21&#45;&gt;Node20</title>
<path fill="none" stroke="#191970" d="M1933.4751,-171.4408C1967.6829,-161.0138 2020.8243,-144.8156 2054.8805,-134.4348"/>
<polygon fill="#191970" stroke="#191970" points="2056.2499,-137.6765 2064.7949,-131.4128 2054.2089,-130.9806 2056.2499,-137.6765"/>
</g>
<!-- Node22 -->
<g id="node22" class="node">
<title>Node22</title>
<polygon fill="none" stroke="#bfbfbf" points="1954.4737,-114.5 1954.4737,-134.5 2008.4737,-134.5 2008.4737,-114.5 1954.4737,-114.5"/>
<text text-anchor="middle" x="1981.4737" y="-121.5" font-family="FreeSans" font-size="10.00" fill="#000000">iterator</text>
</g>
<!-- Node21&#45;&gt;Node22 -->
<g id="edge38" class="edge">
<title>Node21&#45;&gt;Node22</title>
<path fill="none" stroke="#191970" d="M1914.9549,-171.3095C1927.1644,-162.7177 1944.845,-150.2758 1958.9094,-140.3786"/>
<polygon fill="#191970" stroke="#191970" points="1960.9541,-143.2195 1967.1179,-134.6022 1956.9256,-137.4949 1960.9541,-143.2195"/>
</g>
<!-- Node23&#45;&gt;Node6 -->
<g id="edge45" class="edge">
<title>Node23&#45;&gt;Node6</title>
<path fill="none" stroke="#191970" d="M884.1477,-171.4976C855.2486,-162.4172 811.8217,-148.431 774.4737,-135 725.2957,-117.3148 669.0508,-94.8015 634.651,-80.768"/>
<polygon fill="#191970" stroke="#191970" points="635.711,-77.4201 625.1303,-76.8728 633.0603,-83.8988 635.711,-77.4201"/>
</g>
<!-- Node23&#45;&gt;Node8 -->
<g id="edge44" class="edge">
<title>Node23&#45;&gt;Node8</title>
<path fill="none" stroke="#191970" d="M904.775,-171.2815C889.8554,-157.0527 867.765,-131.0981 883.4737,-114 917.6481,-76.8029 1269.7681,-69.3281 1390.8458,-67.8543"/>
<polygon fill="#191970" stroke="#191970" points="1391.2027,-71.3505 1401.1621,-67.7366 1391.1228,-64.351 1391.2027,-71.3505"/>
</g>
<!-- Node23&#45;&gt;Node17 -->
<g id="edge42" class="edge">
<title>Node23&#45;&gt;Node17</title>
<path fill="none" stroke="#191970" d="M939.7688,-171.4408C960.8451,-162.3396 992.1036,-148.8416 1015.6982,-138.6531"/>
<polygon fill="#191970" stroke="#191970" points="1017.1744,-141.8281 1024.9675,-134.6504 1014.3993,-135.4016 1017.1744,-141.8281"/>
</g>
<!-- Node24 -->
<g id="node24" class="node">
<title>Node24</title>
<polygon fill="none" stroke="#bfbfbf" points="892.4737,-114.5 892.4737,-134.5 940.4737,-134.5 940.4737,-114.5 892.4737,-114.5"/>
<text text-anchor="middle" x="916.4737" y="-121.5" font-family="FreeSans" font-size="10.00" fill="#000000">cmath</text>
</g>
<!-- Node23&#45;&gt;Node24 -->
<g id="edge43" class="edge">
<title>Node23&#45;&gt;Node24</title>
<path fill="none" stroke="#191970" d="M916.4737,-171.3095C916.4737,-163.9335 916.4737,-153.72 916.4737,-144.715"/>
<polygon fill="#191970" stroke="#191970" points="919.9738,-144.6022 916.4737,-134.6022 912.9738,-144.6023 919.9738,-144.6022"/>
</g>
<!-- Node25&#45;&gt;Node5 -->
<g id="edge50" class="edge">
<title>Node25&#45;&gt;Node5</title>
<path fill="none" stroke="#191970" d="M1000.3453,-172.6599C956.5557,-164.5669 900.0181,-151.3741 883.4737,-135 871.0623,-122.7163 866.5943,-103.0069 865.0648,-88.0494"/>
<polygon fill="#191970" stroke="#191970" points="868.5354,-87.4873 864.385,-77.7393 861.5506,-87.9479 868.5354,-87.4873"/>
</g>
<!-- Node25&#45;&gt;Node6 -->
<g id="edge52" class="edge">
<title>Node25&#45;&gt;Node6</title>
<path fill="none" stroke="#191970" d="M1014.3782,-171.4224C976.2775,-162.0585 918.0203,-147.6885 867.4737,-135 783.6442,-113.9567 685.0288,-88.707 635.0508,-75.8754"/>
<polygon fill="#191970" stroke="#191970" points="635.7034,-72.4295 625.1471,-73.3318 633.962,-79.2094 635.7034,-72.4295"/>
</g>
<!-- Node25&#45;&gt;Node8 -->
<g id="edge51" class="edge">
<title>Node25&#45;&gt;Node8</title>
<path fill="none" stroke="#191970" d="M1032.1295,-171.3334C1005.6038,-158.4215 968.3253,-135.2586 987.4737,-114 1014.2722,-84.2483 1287.1301,-72.2291 1391.3278,-68.7009"/>
<polygon fill="#191970" stroke="#191970" points="1391.5705,-72.1948 1401.4497,-68.367 1391.3397,-65.1986 1391.5705,-72.1948"/>
</g>
<!-- Node25&#45;&gt;Node16 -->
<g id="edge47" class="edge">
<title>Node25&#45;&gt;Node16</title>
<path fill="none" stroke="#191970" d="M1074.7098,-171.4408C1091.727,-162.5419 1116.7826,-149.4394 1136.1009,-139.3371"/>
<polygon fill="#191970" stroke="#191970" points="1137.8237,-142.386 1145.0633,-134.6504 1134.5798,-136.1829 1137.8237,-142.386"/>
</g>
<!-- Node25&#45;&gt;Node17 -->
<g id="edge48" class="edge">
<title>Node25&#45;&gt;Node17</title>
<path fill="none" stroke="#191970" d="M1054.2222,-171.3095C1053.3164,-163.9335 1052.0621,-153.72 1050.9562,-144.715"/>
<polygon fill="#191970" stroke="#191970" points="1054.4072,-144.101 1049.7143,-134.6022 1047.4594,-144.9543 1054.4072,-144.101"/>
</g>
<!-- Node25&#45;&gt;Node20 -->
<g id="edge53" class="edge">
<title>Node25&#45;&gt;Node20</title>
<path fill="none" stroke="#191970" d="M1110.8103,-172.6328C1115.7605,-172.0113 1120.7025,-171.4528 1125.4737,-171 1520.4663,-133.5165 1622.4811,-172.4835 2017.4737,-135 2029.6501,-133.8445 2042.9396,-132.0003 2054.636,-130.1776"/>
<polygon fill="#191970" stroke="#191970" points="2055.5368,-133.5776 2064.852,-128.5301 2054.4223,-126.6669 2055.5368,-133.5776"/>
</g>
<!-- Node25&#45;&gt;Node24 -->
<g id="edge49" class="edge">
<title>Node25&#45;&gt;Node24</title>
<path fill="none" stroke="#191970" d="M1030.9433,-171.4408C1008.513,-162.2427 975.1312,-148.5538 950.1967,-138.3288"/>
<polygon fill="#191970" stroke="#191970" points="951.3392,-135.0145 940.7589,-134.4587 948.6833,-141.4912 951.3392,-135.0145"/>
</g>
<!-- Node26&#45;&gt;Node5 -->
<g id="edge57" class="edge">
<title>Node26&#45;&gt;Node5</title>
<path fill="none" stroke="#191970" d="M1266.0649,-171.4618C1258.784,-156.2022 1242.7052,-127.5182 1219.4737,-114 1165.5326,-82.6122 977.7908,-71.855 899.3423,-68.6754"/>
<polygon fill="#191970" stroke="#191970" points="899.1515,-65.1655 889.0235,-68.2757 898.8805,-72.1602 899.1515,-65.1655"/>
</g>
<!-- Node26&#45;&gt;Node8 -->
<g id="edge58" class="edge">
<title>Node26&#45;&gt;Node8</title>
<path fill="none" stroke="#191970" d="M1278.2064,-171.2329C1289.3735,-156.9464 1311.2387,-130.9236 1334.4737,-114 1352.7275,-100.7045 1375.3791,-89.5944 1394.2012,-81.5716"/>
<polygon fill="#191970" stroke="#191970" points="1395.7486,-84.7192 1403.6513,-77.6624 1393.0728,-78.2508 1395.7486,-84.7192"/>
</g>
<!-- Node26&#45;&gt;Node17 -->
<g id="edge55" class="edge">
<title>Node26&#45;&gt;Node17</title>
<path fill="none" stroke="#191970" d="M1231.2956,-171.4408C1194.0014,-161.8652 1137.7508,-147.4225 1097.5001,-137.0879"/>
<polygon fill="#191970" stroke="#191970" points="1098.1892,-133.6513 1087.6329,-134.5544 1096.4483,-140.4314 1098.1892,-133.6513"/>
</g>
<!-- Node26&#45;&gt;Node24 -->
<g id="edge56" class="edge">
<title>Node26&#45;&gt;Node24</title>
<path fill="none" stroke="#191970" d="M1208.0005,-171.4408C1133.1019,-159.3808 1010.2557,-139.6005 950.8191,-130.0302"/>
<polygon fill="#191970" stroke="#191970" points="951.2523,-126.5549 940.823,-128.4206 950.1394,-133.4659 951.2523,-126.5549"/>
</g>
<!-- Node27&#45;&gt;Node6 -->
<g id="edge63" class="edge">
<title>Node27&#45;&gt;Node6</title>
<path fill="none" stroke="#191970" d="M1688.9216,-121.2099C1472.3376,-110.5028 792.5208,-76.8952 635.1995,-69.1178"/>
<polygon fill="#191970" stroke="#191970" points="635.3553,-65.6214 625.1947,-68.6232 635.0096,-72.6128 635.3553,-65.6214"/>
</g>
<!-- Node27&#45;&gt;Node18 -->
<g id="edge61" class="edge">
<title>Node27&#45;&gt;Node18</title>
<path fill="none" stroke="#191970" d="M1822.2019,-114.8952C1909.5087,-102.3283 2058.7912,-80.8407 2121.9099,-71.7554"/>
<polygon fill="#191970" stroke="#191970" points="2122.5712,-75.1964 2131.9705,-70.3073 2121.5739,-68.2678 2122.5712,-75.1964"/>
</g>
<!-- Node28 -->
<g id="node28" class="node">
<title>Node28</title>
<polygon fill="none" stroke="#bfbfbf" points="1730.4737,-57.5 1730.4737,-77.5 1780.4737,-77.5 1780.4737,-57.5 1730.4737,-57.5"/>
<text text-anchor="middle" x="1755.4737" y="-64.5" font-family="FreeSans" font-size="10.00" fill="#000000">TFile.h</text>
</g>
<!-- Node27&#45;&gt;Node28 -->
<g id="edge60" class="edge">
<title>Node27&#45;&gt;Node28</title>
<path fill="none" stroke="#191970" d="M1755.4737,-114.3095C1755.4737,-106.9335 1755.4737,-96.72 1755.4737,-87.715"/>
<polygon fill="#191970" stroke="#191970" points="1758.9738,-87.6022 1755.4737,-77.6022 1751.9738,-87.6023 1758.9738,-87.6022"/>
</g>
<!-- Node29 -->
<g id="node29" class="node">
<title>Node29</title>
<polygon fill="none" stroke="#bfbfbf" points="1653.4737,-57.5 1653.4737,-77.5 1709.4737,-77.5 1709.4737,-57.5 1653.4737,-57.5"/>
<text text-anchor="middle" x="1681.4737" y="-64.5" font-family="FreeSans" font-size="10.00" fill="#000000">sstream</text>
</g>
<!-- Node27&#45;&gt;Node29 -->
<g id="edge62" class="edge">
<title>Node27&#45;&gt;Node29</title>
<path fill="none" stroke="#191970" d="M1742.244,-114.3095C1731.3001,-105.8798 1715.5447,-93.7439 1702.8188,-83.9415"/>
<polygon fill="#191970" stroke="#191970" points="1704.647,-80.9318 1694.5889,-77.6022 1700.3754,-86.4773 1704.647,-80.9318"/>
</g>
<!-- Node30&#45;&gt;Node4 -->
<g id="edge65" class="edge">
<title>Node30&#45;&gt;Node4</title>
<path fill="none" stroke="#191970" d="M1288.9364,-235.9983C1131.7285,-229.7798 746.3735,-212.6265 691.4737,-192 662.7683,-181.215 635.5685,-158.0005 618.9663,-141.8259"/>
<polygon fill="#191970" stroke="#191970" points="621.2436,-139.1526 611.7072,-134.5366 616.2835,-144.0921 621.2436,-139.1526"/>
</g>
<!-- Node30&#45;&gt;Node6 -->
<g id="edge76" class="edge">
<title>Node30&#45;&gt;Node6</title>
<path fill="none" stroke="#191970" d="M1288.9262,-235.8967C1124.94,-229.2275 710.3617,-210.7318 650.4737,-192 633.1601,-186.5846 631.2176,-180.0119 615.4737,-171 586.4751,-154.401 566.53,-163.732 549.4737,-135 538.297,-116.1723 557.4163,-96.7177 575.7326,-83.5601"/>
<polygon fill="#191970" stroke="#191970" points="578.186,-86.1274 584.5235,-77.637 574.2745,-80.3222 578.186,-86.1274"/>
</g>
<!-- Node30&#45;&gt;Node8 -->
<g id="edge74" class="edge">
<title>Node30&#45;&gt;Node8</title>
<path fill="none" stroke="#191970" d="M1370.444,-228.2366C1393.0748,-211.6999 1435.0918,-176.7512 1451.4737,-135 1457.7244,-119.0692 1451.1549,-100.3728 1443.919,-86.7015"/>
<polygon fill="#191970" stroke="#191970" points="1446.7618,-84.6279 1438.7061,-77.7462 1440.712,-88.1494 1446.7618,-84.6279"/>
</g>
<!-- Node30&#45;&gt;Node18 -->
<g id="edge75" class="edge">
<title>Node30&#45;&gt;Node18</title>
<path fill="none" stroke="#191970" d="M1422.2017,-233.6261C1496.0349,-227.4007 1618.2369,-214.6232 1721.4737,-192 1762.6658,-182.9732 1863.3075,-150.6296 1902.4737,-135 1922.2273,-127.1172 1925.4097,-121.0557 1945.4737,-114 2006.434,-92.5626 2081.0988,-78.6025 2121.7025,-71.9851"/>
<polygon fill="#191970" stroke="#191970" points="2122.4126,-75.4162 2131.7377,-70.3869 2121.3116,-68.5033 2122.4126,-75.4162"/>
</g>
<!-- Node30&#45;&gt;Node20 -->
<g id="edge77" class="edge">
<title>Node30&#45;&gt;Node20</title>
<path fill="none" stroke="#191970" d="M1422.1566,-235.9685C1576.727,-229.7788 1950.3926,-212.8497 2003.4737,-192 2030.7581,-181.283 2056.111,-158.3982 2071.6756,-142.2552"/>
<polygon fill="#191970" stroke="#191970" points="2074.6208,-144.2288 2078.881,-134.5282 2069.5013,-139.4548 2074.6208,-144.2288"/>
</g>
<!-- Node31 -->
<g id="node31" class="node">
<title>Node31</title>
<g id="a_node31"><a xlink:href="../../d0/d59/Fun4AllHistoManager_8h.html" target="_top" xlink:title="Fun4AllHistoManager.h">
<polygon fill="none" stroke="#000000" points="700.4737,-171.5 700.4737,-191.5 832.4737,-191.5 832.4737,-171.5 700.4737,-171.5"/>
<text text-anchor="middle" x="766.4737" y="-178.5" font-family="FreeSans" font-size="10.00" fill="#000000">Fun4AllHistoManager.h</text>
</a>
</g>
</g>
<!-- Node30&#45;&gt;Node31 -->
<g id="edge66" class="edge">
<title>Node30&#45;&gt;Node31</title>
<path fill="none" stroke="#191970" d="M1288.8309,-233.5173C1192.7313,-226.0999 1009.4104,-211.0839 843.1259,-192.1459"/>
<polygon fill="#191970" stroke="#191970" points="843.0382,-188.613 832.7046,-190.9512 842.2409,-195.5674 843.0382,-188.613"/>
</g>
<!-- Node32 -->
<g id="node32" class="node">
<title>Node32</title>
<g id="a_node32"><a xlink:href="../../dc/d26/PHTimer_8h.html" target="_top" xlink:title="high precision timer">
<polygon fill="none" stroke="#ff0000" points="1342.9737,-114.5 1342.9737,-134.5 1441.9737,-134.5 1441.9737,-114.5 1342.9737,-114.5"/>
<text text-anchor="middle" x="1392.4737" y="-121.5" font-family="FreeSans" font-size="10.00" fill="#000000">phool/PHTimer.h</text>
</a>
</g>
</g>
<!-- Node30&#45;&gt;Node32 -->
<g id="edge70" class="edge">
<title>Node30&#45;&gt;Node32</title>
<path fill="none" stroke="#191970" d="M1358.7572,-228.3833C1364.8581,-209.586 1378.0428,-168.9627 1385.9968,-144.4559"/>
<polygon fill="#191970" stroke="#191970" points="1389.3863,-145.35 1389.1444,-134.7579 1382.7282,-143.189 1389.3863,-145.35"/>
</g>
<!-- Node33 -->
<g id="node33" class="node">
<title>Node33</title>
<polygon fill="none" stroke="#bfbfbf" points="1134.9737,-171.5 1134.9737,-191.5 1183.9737,-191.5 1183.9737,-171.5 1134.9737,-171.5"/>
<text text-anchor="middle" x="1159.4737" y="-178.5" font-family="FreeSans" font-size="10.00" fill="#000000">vector</text>
</g>
<!-- Node30&#45;&gt;Node33 -->
<g id="edge78" class="edge">
<title>Node30&#45;&gt;Node33</title>
<path fill="none" stroke="#191970" d="M1319.7012,-228.4539C1288.8895,-219.7516 1242.9872,-206.6704 1194.1431,-192.1616"/>
<polygon fill="#191970" stroke="#191970" points="1194.9217,-188.7416 1184.3387,-189.2417 1192.9237,-195.4504 1194.9217,-188.7416"/>
</g>
<!-- Node31&#45;&gt;Node4 -->
<g id="edge67" class="edge">
<title>Node31&#45;&gt;Node4</title>
<path fill="none" stroke="#191970" d="M737.5313,-171.4408C710.6811,-162.1087 670.5301,-148.1537 640.9818,-137.8839"/>
<polygon fill="#191970" stroke="#191970" points="641.9969,-134.5314 631.4021,-134.5544 639.6988,-141.1434 641.9969,-134.5314"/>
</g>
<!-- Node31&#45;&gt;Node6 -->
<g id="edge69" class="edge">
<title>Node31&#45;&gt;Node6</title>
<path fill="none" stroke="#191970" d="M751.9198,-171.3833C723.4229,-151.5744 660.0572,-107.5275 625.7007,-83.6456"/>
<polygon fill="#191970" stroke="#191970" points="627.4396,-80.5918 617.2307,-77.7579 623.4441,-86.3396 627.4396,-80.5918"/>
</g>
<!-- Node31&#45;&gt;Node18 -->
<g id="edge68" class="edge">
<title>Node31&#45;&gt;Node18</title>
<path fill="none" stroke="#191970" d="M832.6849,-171.8545C835.6523,-171.5408 838.5923,-171.2534 841.4737,-171 1060.7726,-151.7132 1621.2611,-200.3809 1831.4737,-135 1848.0739,-129.837 1848.2262,-120.1839 1864.4737,-114 1953.8455,-79.9845 2068.1161,-70.8485 2121.4895,-68.3973"/>
<polygon fill="#191970" stroke="#191970" points="2121.7781,-71.8884 2131.6256,-67.9799 2121.49,-64.8944 2121.7781,-71.8884"/>
</g>
<!-- Node32&#45;&gt;Node6 -->
<g id="edge72" class="edge">
<title>Node32&#45;&gt;Node6</title>
<path fill="none" stroke="#191970" d="M1342.9267,-115.8759C1338.0521,-115.1764 1333.1724,-114.5346 1328.4737,-114 1191.2809,-98.3909 758.8286,-75.5239 635.5635,-69.1838"/>
<polygon fill="#191970" stroke="#191970" points="635.4304,-65.6724 625.2642,-68.6555 635.0718,-72.6632 635.4304,-65.6724"/>
</g>
<!-- Node32&#45;&gt;Node8 -->
<g id="edge71" class="edge">
<title>Node32&#45;&gt;Node8</title>
<path fill="none" stroke="#191970" d="M1399.4461,-114.3095C1404.8256,-106.4472 1412.4111,-95.3608 1418.8495,-85.9507"/>
<polygon fill="#191970" stroke="#191970" points="1421.8033,-87.8317 1424.5616,-77.6022 1416.0262,-83.8789 1421.8033,-87.8317"/>
</g>
<!-- Node32&#45;&gt;Node29 -->
<g id="edge73" class="edge">
<title>Node32&#45;&gt;Node29</title>
<path fill="none" stroke="#191970" d="M1442.1546,-114.7014C1499.2264,-103.445 1591.6296,-85.2201 1643.3309,-75.023"/>
<polygon fill="#191970" stroke="#191970" points="1644.2784,-78.4036 1653.4121,-73.0346 1642.9238,-71.5359 1644.2784,-78.4036"/>
</g>
<!-- Node42&#45;&gt;Node43 -->
<g id="edge88" class="edge">
<title>Node42&#45;&gt;Node43</title>
<path fill="none" stroke="#191970" d="M2178.4737,-399.3095C2178.4737,-391.9335 2178.4737,-381.72 2178.4737,-372.715"/>
<polygon fill="#191970" stroke="#191970" points="2181.9738,-372.6022 2178.4737,-362.6022 2174.9738,-372.6023 2181.9738,-372.6022"/>
</g>
<!-- Node43&#45;&gt;Node18 -->
<g id="edge110" class="edge">
<title>Node43&#45;&gt;Node18</title>
<path fill="none" stroke="#191970" d="M2220.3834,-342.3852C2264.9078,-329.1709 2333.1099,-301.2899 2364.4737,-249 2382.3068,-219.2686 2374.0194,-204.5998 2365.4737,-171 2358.3655,-143.0522 2357.2418,-131.698 2334.4737,-114 2310.6932,-95.515 2226.7546,-79.6073 2181.2799,-72.102"/>
<polygon fill="#191970" stroke="#191970" points="2181.5659,-68.6028 2171.1354,-70.4619 2180.4486,-75.5131 2181.5659,-68.6028"/>
</g>
<!-- Node43&#45;&gt;Node19 -->
<g id="edge111" class="edge">
<title>Node43&#45;&gt;Node19</title>
<path fill="none" stroke="#191970" d="M2229.6906,-344.461C2261.1981,-337.7834 2301.3588,-326.0309 2332.4737,-306 2436.3689,-239.1152 2485.026,-85.6265 2499.5834,-30.595"/>
<polygon fill="#191970" stroke="#191970" points="2503.0313,-31.2385 2502.1136,-20.6835 2496.2488,-29.507 2503.0313,-31.2385"/>
</g>
<!-- Node43&#45;&gt;Node20 -->
<g id="edge112" class="edge">
<title>Node43&#45;&gt;Node20</title>
<path fill="none" stroke="#191970" d="M2160.4107,-342.4968C2147.4908,-334.372 2130.7979,-321.7029 2121.4737,-306 2090.6054,-254.0149 2086.7655,-180.1231 2086.8836,-144.8132"/>
<polygon fill="#191970" stroke="#191970" points="2090.3836,-144.8319 2087.0318,-134.7813 2083.3844,-144.7285 2090.3836,-144.8319"/>
</g>
<!-- Node43&#45;&gt;Node44 -->
<g id="edge89" class="edge">
<title>Node43&#45;&gt;Node44</title>
<path fill="none" stroke="#191970" d="M2178.4737,-342.3095C2178.4737,-334.9335 2178.4737,-324.72 2178.4737,-315.715"/>
<polygon fill="#191970" stroke="#191970" points="2181.9738,-315.6022 2178.4737,-305.6022 2174.9738,-315.6023 2181.9738,-315.6022"/>
</g>
<!-- Node44&#45;&gt;Node18 -->
<g id="edge107" class="edge">
<title>Node44&#45;&gt;Node18</title>
<path fill="none" stroke="#191970" d="M2226.6749,-288.2592C2270.1816,-280.6595 2329.583,-267.2691 2344.4737,-249 2366.4048,-222.0934 2358.7327,-204.1616 2348.4737,-171 2339.4018,-141.6756 2334.304,-132.0466 2309.4737,-114 2270.7574,-85.8612 2215.1227,-74.6398 2181.2455,-70.2429"/>
<polygon fill="#191970" stroke="#191970" points="2181.4009,-66.737 2171.06,-69.0423 2180.5815,-73.6889 2181.4009,-66.737"/>
</g>
<!-- Node44&#45;&gt;Node19 -->
<g id="edge108" class="edge">
<title>Node44&#45;&gt;Node19</title>
<path fill="none" stroke="#191970" d="M2226.5086,-289.4659C2316.1293,-276.0653 2511.16,-236.5682 2637.4737,-135 2667.8351,-110.5866 2701.1786,-87.9177 2677.4737,-57 2659.6422,-33.7427 2574.3068,-19.5274 2530.5208,-13.6455"/>
<polygon fill="#191970" stroke="#191970" points="2530.9654,-10.174 2520.5986,-12.3602 2530.066,-17.116 2530.9654,-10.174"/>
</g>
<!-- Node44&#45;&gt;Node20 -->
<g id="edge109" class="edge">
<title>Node44&#45;&gt;Node20</title>
<path fill="none" stroke="#191970" d="M2173.0538,-285.3153C2158.2944,-257.5807 2117.1995,-180.3583 2097.828,-143.9571"/>
<polygon fill="#191970" stroke="#191970" points="2100.7679,-142.0311 2092.9803,-134.8476 2094.5885,-145.3197 2100.7679,-142.0311"/>
</g>
<!-- Node44&#45;&gt;Node45 -->
<g id="edge90" class="edge">
<title>Node44&#45;&gt;Node45</title>
<path fill="none" stroke="#191970" d="M2197.0668,-285.3095C2213.1869,-276.4745 2236.7348,-263.5684 2255.024,-253.5445"/>
<polygon fill="#191970" stroke="#191970" points="2256.9545,-256.4778 2264.0416,-248.6022 2253.5901,-250.3393 2256.9545,-256.4778"/>
</g>
<!-- Node49 -->
<g id="node49" class="node">
<title>Node49</title>
<g id="a_node49"><a xlink:href="../../d8/d00/TrkrDefs_8h.html" target="_top" xlink:title="Namespace with Trkr key types and utility functions.">
<polygon fill="none" stroke="#ff0000" points="2128.4737,-114.5 2128.4737,-134.5 2248.4737,-134.5 2248.4737,-114.5 2128.4737,-114.5"/>
<text text-anchor="middle" x="2188.4737" y="-121.5" font-family="FreeSans" font-size="10.00" fill="#000000">trackbase/TrkrDefs.h</text>
</a>
</g>
</g>
<!-- Node44&#45;&gt;Node49 -->
<g id="edge106" class="edge">
<title>Node44&#45;&gt;Node49</title>
<path fill="none" stroke="#191970" d="M2179.0693,-285.3153C2180.6773,-257.8178 2185.1302,-181.6748 2187.2808,-144.8993"/>
<polygon fill="#191970" stroke="#191970" points="2190.7787,-145.0349 2187.8686,-134.8476 2183.7907,-144.6261 2190.7787,-145.0349"/>
</g>
<!-- Node45&#45;&gt;Node18 -->
<g id="edge103" class="edge">
<title>Node45&#45;&gt;Node18</title>
<path fill="none" stroke="#191970" d="M2299.4668,-228.4803C2311.451,-220.347 2326.5534,-207.6746 2333.4737,-192 2337.2433,-183.4618 2337.0072,-179.6386 2333.4737,-171 2308.2482,-109.33 2225.8351,-82.9107 2181.0642,-72.8792"/>
<polygon fill="#191970" stroke="#191970" points="2181.578,-69.4107 2171.0711,-70.7728 2180.1342,-76.2602 2181.578,-69.4107"/>
</g>
<!-- Node45&#45;&gt;Node19 -->
<g id="edge104" class="edge">
<title>Node45&#45;&gt;Node19</title>
<path fill="none" stroke="#191970" d="M2299.0441,-228.4552C2312.925,-219.6698 2332.9091,-206.1347 2348.4737,-192 2407.487,-138.408 2465.6649,-63.2034 2491.1146,-28.8808"/>
<polygon fill="#191970" stroke="#191970" points="2494.0238,-30.8326 2497.1304,-20.7034 2488.3852,-26.6844 2494.0238,-30.8326"/>
</g>
<!-- Node45&#45;&gt;Node20 -->
<g id="edge105" class="edge">
<title>Node45&#45;&gt;Node20</title>
<path fill="none" stroke="#191970" d="M2265.1688,-228.3833C2230.8383,-208.3132 2153.947,-163.3613 2113.4928,-139.7112"/>
<polygon fill="#191970" stroke="#191970" points="2115.1393,-136.6195 2104.7399,-134.5941 2111.6064,-142.6626 2115.1393,-136.6195"/>
</g>
<!-- Node45&#45;&gt;Node46 -->
<g id="edge91" class="edge">
<title>Node45&#45;&gt;Node46</title>
<path fill="none" stroke="#191970" d="M2282.4737,-228.3095C2282.4737,-220.9335 2282.4737,-210.72 2282.4737,-201.715"/>
<polygon fill="#191970" stroke="#191970" points="2285.9738,-201.6022 2282.4737,-191.6022 2278.9738,-201.6023 2285.9738,-201.6022"/>
</g>
<!-- Node45&#45;&gt;Node49 -->
<g id="edge102" class="edge">
<title>Node45&#45;&gt;Node49</title>
<path fill="none" stroke="#191970" d="M2269.434,-228.2593C2258.5644,-219.3544 2243.0435,-205.7539 2231.4737,-192 2218.6832,-176.795 2206.765,-157.515 2198.7355,-143.4569"/>
<polygon fill="#191970" stroke="#191970" points="2201.7635,-141.7006 2193.8349,-134.673 2195.6505,-145.1111 2201.7635,-141.7006"/>
</g>
<!-- Node46&#45;&gt;Node18 -->
<g id="edge99" class="edge">
<title>Node46&#45;&gt;Node18</title>
<path fill="none" stroke="#191970" d="M2281.1755,-171.0268C2278.8596,-156.4955 2272.7344,-130.1837 2257.4737,-114 2236.9375,-92.2216 2204.4119,-80.044 2180.8022,-73.668"/>
<polygon fill="#191970" stroke="#191970" points="2181.525,-70.2409 2170.9742,-71.2061 2179.824,-77.0312 2181.525,-70.2409"/>
</g>
<!-- Node46&#45;&gt;Node19 -->
<g id="edge100" class="edge">
<title>Node46&#45;&gt;Node19</title>
<path fill="none" stroke="#191970" d="M2295.696,-171.3153C2332.7901,-142.7428 2438.0725,-61.6469 2483.3487,-26.7719"/>
<polygon fill="#191970" stroke="#191970" points="2485.5342,-29.5065 2491.3207,-20.6314 2481.2626,-23.9609 2485.5342,-29.5065"/>
</g>
<!-- Node46&#45;&gt;Node20 -->
<g id="edge101" class="edge">
<title>Node46&#45;&gt;Node20</title>
<path fill="none" stroke="#191970" d="M2245.7765,-171.4735C2214.7307,-162.8926 2168.8451,-149.9809 2119.9748,-135.0742"/>
<polygon fill="#191970" stroke="#191970" points="2120.7511,-131.6514 2110.1644,-132.0669 2118.6995,-138.3441 2120.7511,-131.6514"/>
</g>
<!-- Node46&#45;&gt;Node47 -->
<g id="edge92" class="edge">
<title>Node46&#45;&gt;Node47</title>
<path fill="none" stroke="#191970" d="M2324.5378,-173.4542C2376.3752,-163.539 2464.7097,-146.6428 2522.8347,-135.5249"/>
<polygon fill="#191970" stroke="#191970" points="2523.7988,-138.904 2532.9632,-133.5876 2522.4837,-132.0287 2523.7988,-138.904"/>
</g>
<!-- Node46&#45;&gt;Node49 -->
<g id="edge97" class="edge">
<title>Node46&#45;&gt;Node49</title>
<path fill="none" stroke="#191970" d="M2265.6684,-171.3095C2251.232,-162.5556 2230.2046,-149.8049 2213.7402,-139.8211"/>
<polygon fill="#191970" stroke="#191970" points="2215.4991,-136.7945 2205.1335,-134.6022 2211.8695,-142.7801 2215.4991,-136.7945"/>
</g>
<!-- Node47&#45;&gt;Node18 -->
<g id="edge95" class="edge">
<title>Node47&#45;&gt;Node18</title>
<path fill="none" stroke="#191970" d="M2532.9241,-118.1822C2443.9304,-106.3579 2254.5982,-81.2019 2181.312,-71.4645"/>
<polygon fill="#191970" stroke="#191970" points="2181.741,-67.9908 2171.3671,-70.1432 2180.8189,-74.9299 2181.741,-67.9908"/>
</g>
<!-- Node47&#45;&gt;Node19 -->
<g id="edge96" class="edge">
<title>Node47&#45;&gt;Node19</title>
<path fill="none" stroke="#191970" d="M2573.7292,-114.3833C2560.9729,-95.2488 2533.1393,-53.4984 2516.909,-29.1529"/>
<polygon fill="#191970" stroke="#191970" points="2519.7716,-27.137 2511.3123,-20.7579 2513.9472,-31.0199 2519.7716,-27.137"/>
</g>
<!-- Node48 -->
<g id="node48" class="node">
<title>Node48</title>
<g id="a_node48"><a xlink:href="../../d8/d89/BaseTruthEval_8h.html" target="_top" xlink:title="BaseTruthEval.h">
<polygon fill="none" stroke="#000000" points="2570.9737,-57.5 2570.9737,-77.5 2667.9737,-77.5 2667.9737,-57.5 2570.9737,-57.5"/>
<text text-anchor="middle" x="2619.4737" y="-64.5" font-family="FreeSans" font-size="10.00" fill="#000000">BaseTruthEval.h</text>
</a>
</g>
</g>
<!-- Node47&#45;&gt;Node48 -->
<g id="edge93" class="edge">
<title>Node47&#45;&gt;Node48</title>
<path fill="none" stroke="#191970" d="M2587.4461,-114.3095C2592.8256,-106.4472 2600.4111,-95.3608 2606.8495,-85.9507"/>
<polygon fill="#191970" stroke="#191970" points="2609.8033,-87.8317 2612.5616,-77.6022 2604.0262,-83.8789 2609.8033,-87.8317"/>
</g>
<!-- Node48&#45;&gt;Node19 -->
<g id="edge94" class="edge">
<title>Node48&#45;&gt;Node19</title>
<path fill="none" stroke="#191970" d="M2599.1787,-57.4408C2579.8073,-47.8392 2550.5628,-33.3441 2529.7008,-23.0039"/>
<polygon fill="#191970" stroke="#191970" points="2531.0065,-19.7447 2520.4923,-18.4397 2527.8978,-26.0166 2531.0065,-19.7447"/>
</g>
<!-- Node49&#45;&gt;Node8 -->
<g id="edge98" class="edge">
<title>Node49&#45;&gt;Node8</title>
<path fill="none" stroke="#191970" d="M2128.3018,-115.0408C2125.3197,-114.667 2122.3645,-114.3171 2119.4737,-114 1992.4389,-100.066 1598.7764,-77.0317 1471.5637,-69.7673"/>
<polygon fill="#191970" stroke="#191970" points="1471.6615,-66.2673 1461.4785,-69.1926 1471.2631,-73.256 1471.6615,-66.2673"/>
</g>
</g>
</svg>
