<?xml version="1.0" encoding="UTF-8" standalone="no"?>
<!DOCTYPE svg PUBLIC "-//W3C//DTD SVG 1.1//EN"
 "http://www.w3.org/Graphics/SVG/1.1/DTD/svg11.dtd">
<!-- Generated by graphviz version 2.40.1 (20161225.0304)
 -->
<!-- Title: PHG4GDMLConfig::exclude_physical_vol Pages: 1 -->
<svg width="816pt" height="458pt"
 viewBox="0.00 0.00 816.00 457.88" xmlns="http://www.w3.org/2000/svg" xmlns:xlink="http://www.w3.org/1999/xlink">
<g id="graph0" class="graph" transform="scale(1 1) rotate(0) translate(4 453.8783)">
<title>PHG4GDMLConfig::exclude_physical_vol</title>
<!-- Node1 -->
<g id="node1" class="node">
<title>Node1</title>
<polygon fill="#bfbfbf" stroke="#000000" points="0,-179.5 0,-211.5 152,-211.5 152,-179.5 0,-179.5"/>
<text text-anchor="start" x="8" y="-198.5" font-family="FreeSans" font-size="10.00" fill="#000000">PHG4GDMLConfig::exclude</text>
<text text-anchor="middle" x="76" y="-186.5" font-family="FreeSans" font-size="10.00" fill="#000000">_physical_vol</text>
</g>
<!-- Node2 -->
<g id="node2" class="node">
<title>Node2</title>
<g id="a_node2"><a xlink:href="../../d3/db1/classPHG4FullProjTiltedSpacalDetector.html#af9c6be22744057cd66a40b4507b1ce4d" target="_top" xlink:title="PHG4FullProjTiltedSpacal\lDetector::Construct_AzimuthalSeg">
<polygon fill="none" stroke="#000000" points="618,-375.5 618,-407.5 808,-407.5 808,-375.5 618,-375.5"/>
<text text-anchor="start" x="626" y="-394.5" font-family="FreeSans" font-size="10.00" fill="#000000">PHG4FullProjTiltedSpacal</text>
<text text-anchor="middle" x="713" y="-382.5" font-family="FreeSans" font-size="10.00" fill="#000000">Detector::Construct_AzimuthalSeg</text>
</a>
</g>
</g>
<!-- Node1&#45;&gt;Node2 -->
<g id="edge1" class="edge">
<title>Node1&#45;&gt;Node2</title>
<path fill="none" stroke="#191970" d="M81.4809,-221.7557C92.5614,-267.294 122.3783,-359.7583 188,-398.5 341.6541,-489.2141 567.2863,-437.1066 664.9811,-407.5548"/>
<polygon fill="#191970" stroke="#191970" points="84.8324,-220.7139 79.1684,-211.7602 78.0125,-222.2917 84.8324,-220.7139"/>
</g>
<!-- Node3 -->
<g id="node3" class="node">
<title>Node3</title>
<g id="a_node3"><a xlink:href="../../d1/d05/classPHG4FullProjSpacalDetector.html#a842872e5b3f3164b37db663ef1c86934" target="_top" xlink:title="PHG4FullProjSpacalDetector\l::Construct_AzimuthalSeg">
<polygon fill="none" stroke="#000000" points="634,-173.5 634,-205.5 792,-205.5 792,-173.5 634,-173.5"/>
<text text-anchor="start" x="642" y="-192.5" font-family="FreeSans" font-size="10.00" fill="#000000">PHG4FullProjSpacalDetector</text>
<text text-anchor="middle" x="713" y="-180.5" font-family="FreeSans" font-size="10.00" fill="#000000">::Construct_AzimuthalSeg</text>
</a>
</g>
</g>
<!-- Node1&#45;&gt;Node3 -->
<g id="edge2" class="edge">
<title>Node1&#45;&gt;Node3</title>
<path fill="none" stroke="#191970" d="M146.2234,-177.3562C159.9845,-174.5025 174.3754,-172.0021 188,-170.5 362.0565,-151.3102 407.3428,-157.8999 582,-170.5 598.8473,-171.7154 616.8191,-173.7991 633.881,-176.1523"/>
<polygon fill="#191970" stroke="#191970" points="145.3726,-173.9591 136.3344,-179.4873 146.8473,-180.802 145.3726,-173.9591"/>
</g>
<!-- Node4 -->
<g id="node4" class="node">
<title>Node4</title>
<g id="a_node4"><a xlink:href="../../d0/da4/classPHG4SpacalDetector.html#acde5479ab63b50fea1713c8a92b5a3b2" target="_top" xlink:title="PHG4SpacalDetector\l::Construct_AzimuthalSeg">
<polygon fill="none" stroke="#000000" points="215,-51.5 215,-83.5 361,-83.5 361,-51.5 215,-51.5"/>
<text text-anchor="start" x="223" y="-70.5" font-family="FreeSans" font-size="10.00" fill="#000000">PHG4SpacalDetector</text>
<text text-anchor="middle" x="288" y="-58.5" font-family="FreeSans" font-size="10.00" fill="#000000">::Construct_AzimuthalSeg</text>
</a>
</g>
</g>
<!-- Node1&#45;&gt;Node4 -->
<g id="edge3" class="edge">
<title>Node1&#45;&gt;Node4</title>
<path fill="none" stroke="#191970" d="M97.2799,-172.1835C118.3815,-150.3332 152.6,-118.1703 188,-98.5 198.6451,-92.585 210.5678,-87.6427 222.3702,-83.5692"/>
<polygon fill="#191970" stroke="#191970" points="94.7321,-169.7838 90.3827,-179.4447 99.8074,-174.6047 94.7321,-169.7838"/>
</g>
<!-- Node5 -->
<g id="node5" class="node">
<title>Node5</title>
<g id="a_node5"><a xlink:href="../../d0/da4/classPHG4SpacalDetector.html#ac94e5116eddbcc2f1b5eb348b5450e38" target="_top" xlink:title="PHG4SpacalDetector\l::ConstructMe">
<polygon fill="none" stroke="#000000" points="442,-73.5 442,-105.5 564,-105.5 564,-73.5 442,-73.5"/>
<text text-anchor="start" x="450" y="-92.5" font-family="FreeSans" font-size="10.00" fill="#000000">PHG4SpacalDetector</text>
<text text-anchor="middle" x="503" y="-80.5" font-family="FreeSans" font-size="10.00" fill="#000000">::ConstructMe</text>
</a>
</g>
</g>
<!-- Node1&#45;&gt;Node5 -->
<g id="edge17" class="edge">
<title>Node1&#45;&gt;Node5</title>
<path fill="none" stroke="#191970" d="M109.4825,-174.0278C131.0766,-161.1665 160.2217,-145.597 188,-136.5 273.3887,-108.5363 377.2959,-97.1358 441.8063,-92.5384"/>
<polygon fill="#191970" stroke="#191970" points="107.4498,-171.1673 100.7163,-179.3472 111.0811,-177.1517 107.4498,-171.1673"/>
</g>
<!-- Node8 -->
<g id="node8" class="node">
<title>Node8</title>
<g id="a_node8"><a xlink:href="../../d1/d05/classPHG4FullProjSpacalDetector.html#a4d677490d51a2571ecd21ea86999f047" target="_top" xlink:title="a block along z axis built with G4Trd that is slightly tapered in x dimension">
<polygon fill="none" stroke="#000000" points="209,-179.5 209,-211.5 367,-211.5 367,-179.5 209,-179.5"/>
<text text-anchor="start" x="217" y="-198.5" font-family="FreeSans" font-size="10.00" fill="#000000">PHG4FullProjSpacalDetector</text>
<text text-anchor="middle" x="288" y="-186.5" font-family="FreeSans" font-size="10.00" fill="#000000">::Construct_Fibers</text>
</a>
</g>
</g>
<!-- Node1&#45;&gt;Node8 -->
<g id="edge7" class="edge">
<title>Node1&#45;&gt;Node8</title>
<path fill="none" stroke="#191970" d="M162.2677,-195.5C177.6795,-195.5 193.6681,-195.5 208.8677,-195.5"/>
<polygon fill="#191970" stroke="#191970" points="162.2374,-192.0001 152.2374,-195.5 162.2373,-199.0001 162.2374,-192.0001"/>
</g>
<!-- Node10 -->
<g id="node10" class="node">
<title>Node10</title>
<g id="a_node10"><a xlink:href="../../d3/db1/classPHG4FullProjTiltedSpacalDetector.html#a336079ef7a9454e05a0663b43e46f1f4" target="_top" xlink:title="a block along z axis built with G4Trd that is slightly tapered in x dimension">
<polygon fill="none" stroke="#000000" points="213,-293.5 213,-325.5 363,-325.5 363,-293.5 213,-293.5"/>
<text text-anchor="start" x="221" y="-312.5" font-family="FreeSans" font-size="10.00" fill="#000000">PHG4FullProjTiltedSpacal</text>
<text text-anchor="middle" x="288" y="-300.5" font-family="FreeSans" font-size="10.00" fill="#000000">Detector::Construct_Fibers</text>
</a>
</g>
</g>
<!-- Node1&#45;&gt;Node10 -->
<g id="edge10" class="edge">
<title>Node1&#45;&gt;Node10</title>
<path fill="none" stroke="#191970" d="M98.8032,-218.5393C120.1013,-238.7814 153.6806,-267.5724 188,-284.5 195.7839,-288.3393 204.2077,-291.6212 212.7496,-294.4191"/>
<polygon fill="#191970" stroke="#191970" points="101.1543,-215.944 91.5336,-211.5063 96.287,-220.9749 101.1543,-215.944"/>
</g>
<!-- Node12 -->
<g id="node12" class="node">
<title>Node12</title>
<g id="a_node12"><a xlink:href="../../d1/d05/classPHG4FullProjSpacalDetector.html#a8538de3102407fb6d53ed0b7b75a3b14" target="_top" xlink:title="Fully projective spacal with 2D tapered modules. To speed up construction, same&#45;length fiber is used ...">
<polygon fill="none" stroke="#000000" points="188,-230.5 188,-274.5 388,-274.5 388,-230.5 188,-230.5"/>
<text text-anchor="start" x="196" y="-261.5" font-family="FreeSans" font-size="10.00" fill="#000000">PHG4FullProjSpacalDetector</text>
<text text-anchor="start" x="196" y="-249.5" font-family="FreeSans" font-size="10.00" fill="#000000">::Construct_Fibers_SameLengthFiber</text>
<text text-anchor="middle" x="288" y="-237.5" font-family="FreeSans" font-size="10.00" fill="#000000">PerTower</text>
</a>
</g>
</g>
<!-- Node1&#45;&gt;Node12 -->
<g id="edge13" class="edge">
<title>Node1&#45;&gt;Node12</title>
<path fill="none" stroke="#191970" d="M145.5251,-214.1931C164.821,-219.3811 185.9534,-225.0629 205.8954,-230.4247"/>
<polygon fill="#191970" stroke="#191970" points="146.1838,-210.7459 135.618,-211.5294 144.3662,-217.5059 146.1838,-210.7459"/>
</g>
<!-- Node13 -->
<g id="node13" class="node">
<title>Node13</title>
<g id="a_node13"><a xlink:href="../../d3/db1/classPHG4FullProjTiltedSpacalDetector.html#ae874143d799ba53ee1902573913a2437" target="_top" xlink:title="Fully projective spacal with 2D tapered modules. To speed up construction, same&#45;length fiber is used ...">
<polygon fill="none" stroke="#000000" points="210,-344.5 210,-388.5 366,-388.5 366,-344.5 210,-344.5"/>
<text text-anchor="start" x="218" y="-375.5" font-family="FreeSans" font-size="10.00" fill="#000000">PHG4FullProjTiltedSpacal</text>
<text text-anchor="start" x="218" y="-363.5" font-family="FreeSans" font-size="10.00" fill="#000000">Detector::Construct_Fibers</text>
<text text-anchor="middle" x="288" y="-351.5" font-family="FreeSans" font-size="10.00" fill="#000000">_SameLengthFiberPerTower</text>
</a>
</g>
</g>
<!-- Node1&#45;&gt;Node13 -->
<g id="edge15" class="edge">
<title>Node1&#45;&gt;Node13</title>
<path fill="none" stroke="#191970" d="M89.6243,-220.4908C107.9619,-251.8393 143.4821,-305.1527 188,-335.5 194.7584,-340.1071 202.2306,-344.0524 209.957,-347.4262"/>
<polygon fill="#191970" stroke="#191970" points="92.4957,-218.4613 84.4941,-211.5169 86.4187,-221.9355 92.4957,-218.4613"/>
</g>
<!-- Node14 -->
<g id="node14" class="node">
<title>Node14</title>
<g id="a_node14"><a xlink:href="../../d8/d23/classPHG4ForwardEcalDetector.html#af3c4587d36771e05b55ec3e9fc559809" target="_top" xlink:title="PHG4ForwardEcalDetector\l::PlaceTower">
<polygon fill="none" stroke="#000000" points="213,-.5 213,-32.5 363,-32.5 363,-.5 213,-.5"/>
<text text-anchor="start" x="221" y="-19.5" font-family="FreeSans" font-size="10.00" fill="#000000">PHG4ForwardEcalDetector</text>
<text text-anchor="middle" x="288" y="-7.5" font-family="FreeSans" font-size="10.00" fill="#000000">::PlaceTower</text>
</a>
</g>
</g>
<!-- Node1&#45;&gt;Node14 -->
<g id="edge18" class="edge">
<title>Node1&#45;&gt;Node14</title>
<path fill="none" stroke="#191970" d="M87.68,-169.6518C104.6904,-135.0194 139.6094,-74.1453 188,-41.5 195.566,-36.3958 204.0862,-32.3332 212.8801,-29.0996"/>
<polygon fill="#191970" stroke="#191970" points="84.3244,-168.5564 83.1704,-179.0882 90.6403,-171.5747 84.3244,-168.5564"/>
</g>
<!-- Node4&#45;&gt;Node5 -->
<g id="edge4" class="edge">
<title>Node4&#45;&gt;Node5</title>
<path fill="none" stroke="#191970" d="M371.0796,-76.0012C394.66,-78.414 419.8955,-80.9963 441.9154,-83.2495"/>
<polygon fill="#191970" stroke="#191970" points="371.3936,-72.5151 361.0892,-74.9789 370.6809,-79.4787 371.3936,-72.5151"/>
</g>
<!-- Node6 -->
<g id="node6" class="node">
<title>Node6</title>
<g id="a_node6"><a xlink:href="../../d1/d05/classPHG4FullProjSpacalDetector.html#a9bbee7264b7117bfe8476d28de70909f" target="_top" xlink:title="PHG4FullProjSpacalDetector\l::ConstructMe">
<polygon fill="none" stroke="#000000" points="634,-109.5 634,-141.5 792,-141.5 792,-109.5 634,-109.5"/>
<text text-anchor="start" x="642" y="-128.5" font-family="FreeSans" font-size="10.00" fill="#000000">PHG4FullProjSpacalDetector</text>
<text text-anchor="middle" x="713" y="-116.5" font-family="FreeSans" font-size="10.00" fill="#000000">::ConstructMe</text>
</a>
</g>
</g>
<!-- Node5&#45;&gt;Node6 -->
<g id="edge5" class="edge">
<title>Node5&#45;&gt;Node6</title>
<path fill="none" stroke="#191970" d="M573.9178,-101.6573C593.1691,-104.9576 614.1349,-108.5517 633.8114,-111.9248"/>
<polygon fill="#191970" stroke="#191970" points="574.4704,-98.2011 564.0228,-99.961 573.2876,-105.1004 574.4704,-98.2011"/>
</g>
<!-- Node7 -->
<g id="node7" class="node">
<title>Node7</title>
<g id="a_node7"><a xlink:href="../../d3/db1/classPHG4FullProjTiltedSpacalDetector.html#a99847a0a4cb3a1eb74d90d073aaec0f0" target="_top" xlink:title="PHG4FullProjTiltedSpacal\lDetector::ConstructMe">
<polygon fill="none" stroke="#000000" points="642,-58.5 642,-90.5 784,-90.5 784,-58.5 642,-58.5"/>
<text text-anchor="start" x="650" y="-77.5" font-family="FreeSans" font-size="10.00" fill="#000000">PHG4FullProjTiltedSpacal</text>
<text text-anchor="middle" x="713" y="-65.5" font-family="FreeSans" font-size="10.00" fill="#000000">Detector::ConstructMe</text>
</a>
</g>
</g>
<!-- Node5&#45;&gt;Node7 -->
<g id="edge6" class="edge">
<title>Node5&#45;&gt;Node7</title>
<path fill="none" stroke="#191970" d="M574.2049,-84.4139C596.0172,-82.8559 620.0076,-81.1423 641.8183,-79.5844"/>
<polygon fill="#191970" stroke="#191970" points="573.748,-80.9376 564.0228,-85.1412 574.2468,-87.9198 573.748,-80.9376"/>
</g>
<!-- Node9 -->
<g id="node9" class="node">
<title>Node9</title>
<g id="a_node9"><a xlink:href="../../d1/d05/classPHG4FullProjSpacalDetector.html#a41ebdae7499c21d2735235a485d0d2db" target="_top" xlink:title="a block along z axis built with G4Trd that is slightly tapered in x dimension">
<polygon fill="none" stroke="#000000" points="424,-179.5 424,-211.5 582,-211.5 582,-179.5 424,-179.5"/>
<text text-anchor="start" x="432" y="-198.5" font-family="FreeSans" font-size="10.00" fill="#000000">PHG4FullProjSpacalDetector</text>
<text text-anchor="middle" x="503" y="-186.5" font-family="FreeSans" font-size="10.00" fill="#000000">::Construct_Tower</text>
</a>
</g>
</g>
<!-- Node8&#45;&gt;Node9 -->
<g id="edge8" class="edge">
<title>Node8&#45;&gt;Node9</title>
<path fill="none" stroke="#191970" d="M377.1841,-195.5C392.5999,-195.5 408.5335,-195.5 423.666,-195.5"/>
<polygon fill="#191970" stroke="#191970" points="377.1421,-192.0001 367.1421,-195.5 377.1421,-199.0001 377.1421,-192.0001"/>
</g>
<!-- Node9&#45;&gt;Node3 -->
<g id="edge9" class="edge">
<title>Node9&#45;&gt;Node3</title>
<path fill="none" stroke="#191970" d="M592.1349,-192.9533C606.0381,-192.5561 620.3211,-192.148 633.9785,-191.7578"/>
<polygon fill="#191970" stroke="#191970" points="591.9887,-189.4559 582.0928,-193.2402 592.1887,-196.4531 591.9887,-189.4559"/>
</g>
<!-- Node11 -->
<g id="node11" class="node">
<title>Node11</title>
<g id="a_node11"><a xlink:href="../../d3/db1/classPHG4FullProjTiltedSpacalDetector.html#aed852e1cd37df4b6683b1b188551cad0" target="_top" xlink:title="a block along z axis built with G4Trd that is slightly tapered in x dimension">
<polygon fill="none" stroke="#000000" points="428,-350.5 428,-382.5 578,-382.5 578,-350.5 428,-350.5"/>
<text text-anchor="start" x="436" y="-369.5" font-family="FreeSans" font-size="10.00" fill="#000000">PHG4FullProjTiltedSpacal</text>
<text text-anchor="middle" x="503" y="-357.5" font-family="FreeSans" font-size="10.00" fill="#000000">Detector::Construct_Tower</text>
</a>
</g>
</g>
<!-- Node10&#45;&gt;Node11 -->
<g id="edge11" class="edge">
<title>Node10&#45;&gt;Node11</title>
<path fill="none" stroke="#191970" d="M359.7439,-328.0708C369.2493,-330.5555 378.8622,-333.0805 388,-335.5 406.1901,-340.3163 425.9794,-345.6256 443.9324,-350.4689"/>
<polygon fill="#191970" stroke="#191970" points="360.4615,-324.6409 349.9017,-325.5023 358.6938,-331.4141 360.4615,-324.6409"/>
</g>
<!-- Node11&#45;&gt;Node2 -->
<g id="edge12" class="edge">
<title>Node11&#45;&gt;Node2</title>
<path fill="none" stroke="#191970" d="M588.2577,-376.6497C597.9838,-377.8076 607.9443,-378.9934 617.789,-380.1654"/>
<polygon fill="#191970" stroke="#191970" points="588.5653,-373.1617 578.2217,-375.455 587.7378,-380.1126 588.5653,-373.1617"/>
</g>
<!-- Node12&#45;&gt;Node9 -->
<g id="edge14" class="edge">
<title>Node12&#45;&gt;Node9</title>
<path fill="none" stroke="#191970" d="M380.9476,-227.8581C401.767,-222.3385 423.3282,-216.6223 442.4298,-211.5581"/>
<polygon fill="#191970" stroke="#191970" points="379.8937,-224.5165 371.1246,-230.4623 381.6876,-231.2827 379.8937,-224.5165"/>
</g>
<!-- Node13&#45;&gt;Node11 -->
<g id="edge16" class="edge">
<title>Node13&#45;&gt;Node11</title>
<path fill="none" stroke="#191970" d="M376.6816,-366.5C393.6294,-366.5 411.2212,-366.5 427.7008,-366.5"/>
<polygon fill="#191970" stroke="#191970" points="376.2282,-363.0001 366.2281,-366.5 376.2281,-370.0001 376.2282,-363.0001"/>
</g>
<!-- Node15 -->
<g id="node15" class="node">
<title>Node15</title>
<g id="a_node15"><a xlink:href="../../d8/d23/classPHG4ForwardEcalDetector.html#a3930ced4da0fa3fd0c39d302fe6a84e5" target="_top" xlink:title="construct">
<polygon fill="none" stroke="#000000" points="428,-.5 428,-32.5 578,-32.5 578,-.5 428,-.5"/>
<text text-anchor="start" x="436" y="-19.5" font-family="FreeSans" font-size="10.00" fill="#000000">PHG4ForwardEcalDetector</text>
<text text-anchor="middle" x="503" y="-7.5" font-family="FreeSans" font-size="10.00" fill="#000000">::ConstructMe</text>
</a>
</g>
</g>
<!-- Node14&#45;&gt;Node15 -->
<g id="edge19" class="edge">
<title>Node14&#45;&gt;Node15</title>
<path fill="none" stroke="#191970" d="M373.386,-16.5C391.3876,-16.5 410.2539,-16.5 427.8459,-16.5"/>
<polygon fill="#191970" stroke="#191970" points="373.1966,-13.0001 363.1966,-16.5 373.1965,-20.0001 373.1966,-13.0001"/>
</g>
</g>
</svg>
