<?xml version="1.0" encoding="UTF-8" standalone="no"?>
<!DOCTYPE svg PUBLIC "-//W3C//DTD SVG 1.1//EN"
 "http://www.w3.org/Graphics/SVG/1.1/DTD/svg11.dtd">
<!-- Generated by graphviz version 2.40.1 (20161225.0304)
 -->
<!-- Title: lu1ent Pages: 1 -->
<svg width="1156pt" height="1749pt"
 viewBox="0.00 0.00 1156.00 1749.15" xmlns="http://www.w3.org/2000/svg" xmlns:xlink="http://www.w3.org/1999/xlink">
<g id="graph0" class="graph" transform="scale(1 1) rotate(0) translate(4 1745.1533)">
<title>lu1ent</title>
<!-- Node1 -->
<g id="node1" class="node">
<title>Node1</title>
<polygon fill="#bfbfbf" stroke="#000000" points="0,-606.9656 0,-626.9656 49,-626.9656 49,-606.9656 0,-606.9656"/>
<text text-anchor="middle" x="24.5" y="-613.9656" font-family="FreeSans" font-size="10.00" fill="#000000">lu1ent</text>
</g>
<!-- Node2 -->
<g id="node2" class="node">
<title>Node2</title>
<g id="a_node2"><a xlink:href="../../d0/da8/lucomp_8f.html#af4e2c29d51aeb470efbf59be26e18d04" target="_top" xlink:title="lucomp">
<polygon fill="none" stroke="#000000" points="1062,-319.9656 1062,-339.9656 1116,-339.9656 1116,-319.9656 1062,-319.9656"/>
<text text-anchor="middle" x="1089" y="-326.9656" font-family="FreeSans" font-size="10.00" fill="#000000">lucomp</text>
</a>
</g>
</g>
<!-- Node1&#45;&gt;Node2 -->
<g id="edge1" class="edge">
<title>Node1&#45;&gt;Node2</title>
<path fill="none" stroke="#191970" d="M25.0434,-606.8373C29.5857,-527.1356 64.3769,-3.9656 195,-3.9656 195,-3.9656 195,-3.9656 767.5,-3.9656 870.2217,-3.9656 916.911,17.9243 994,-49.9656 1034.5339,-85.6626 1072.6217,-251.8736 1084.8953,-309.9068"/>
<polygon fill="#191970" stroke="#191970" points="1081.4729,-310.6404 1086.9405,-319.7155 1088.3255,-309.2116 1081.4729,-310.6404"/>
</g>
<!-- Node3 -->
<g id="node3" class="node">
<title>Node3</title>
<g id="a_node3"><a xlink:href="../../df/dd0/luerrm_8f.html#ab2b89149ed6c532c613c12ae6c351b5d" target="_top" xlink:title="luerrm">
<polygon fill="none" stroke="#000000" points="453,-685.9656 453,-705.9656 502,-705.9656 502,-685.9656 453,-685.9656"/>
<text text-anchor="middle" x="477.5" y="-692.9656" font-family="FreeSans" font-size="10.00" fill="#000000">luerrm</text>
</a>
</g>
</g>
<!-- Node1&#45;&gt;Node3 -->
<g id="edge2" class="edge">
<title>Node1&#45;&gt;Node3</title>
<path fill="none" stroke="#191970" d="M39.9042,-627.0781C75.8616,-649.9298 168.9007,-704.7467 256,-719.9656 312.0399,-729.7574 327.5595,-727.0938 384,-719.9656 403.8755,-717.4554 425.5762,-712.0565 443.0639,-707.0139"/>
<polygon fill="#191970" stroke="#191970" points="444.2402,-710.3157 452.8278,-704.1107 442.245,-703.606 444.2402,-710.3157"/>
</g>
<!-- Node4 -->
<g id="node4" class="node">
<title>Node4</title>
<g id="a_node4"><a xlink:href="../../d7/dda/lulist_8f.html#a69a9c5efe2681d7e19be2b4ed218153e" target="_top" xlink:title="lulist">
<polygon fill="none" stroke="#000000" points="604.5,-318.9656 604.5,-338.9656 645.5,-338.9656 645.5,-318.9656 604.5,-318.9656"/>
<text text-anchor="middle" x="625" y="-325.9656" font-family="FreeSans" font-size="10.00" fill="#000000">lulist</text>
</a>
</g>
</g>
<!-- Node1&#45;&gt;Node4 -->
<g id="edge104" class="edge">
<title>Node1&#45;&gt;Node4</title>
<path fill="none" stroke="#191970" d="M25.9757,-606.7925C35.4201,-543.232 89.5606,-201.4543 170,-141.9656 320.4673,-30.6879 546.7144,-246.9221 608.7664,-311.5197"/>
<polygon fill="#191970" stroke="#191970" points="606.3854,-314.0952 615.8084,-318.9386 611.4624,-309.2761 606.3854,-314.0952"/>
</g>
<!-- Node12 -->
<g id="node12" class="node">
<title>Node12</title>
<g id="a_node12"><a xlink:href="../../d7/ded/ulmass_8f.html#aa951cb677600842104db95323a7647b2" target="_top" xlink:title="ulmass">
<polygon fill="none" stroke="#000000" points="899,-685.9656 899,-705.9656 951,-705.9656 951,-685.9656 899,-685.9656"/>
<text text-anchor="middle" x="925" y="-692.9656" font-family="FreeSans" font-size="10.00" fill="#000000">ulmass</text>
</a>
</g>
</g>
<!-- Node1&#45;&gt;Node12 -->
<g id="edge105" class="edge">
<title>Node1&#45;&gt;Node12</title>
<path fill="none" stroke="#191970" d="M24.7248,-627.0138C26.4444,-676.7265 41.3198,-897.4701 170,-984.9656 196.8735,-1003.2381 252.6546,-1008.1256 384,-969.9656 473.7136,-943.901 487.7649,-916.3898 571,-873.9656 681.5029,-817.6432 719.5573,-820.7281 820,-747.9656 838.3245,-734.691 836.2149,-722.9451 856,-711.9656 866.0434,-706.3921 877.9436,-702.7558 889.0086,-700.3849"/>
<polygon fill="#191970" stroke="#191970" points="889.6715,-703.8217 898.8583,-698.5441 888.3855,-696.9409 889.6715,-703.8217"/>
</g>
<!-- Node19 -->
<g id="node19" class="node">
<title>Node19</title>
<g id="a_node19"><a xlink:href="../../db/d08/luexec_8f.html#a5b4b744833efbda90c865012826ff281" target="_top" xlink:title="luexec">
<polygon fill="none" stroke="#000000" points="85,-606.9656 85,-626.9656 134,-626.9656 134,-606.9656 85,-606.9656"/>
<text text-anchor="middle" x="109.5" y="-613.9656" font-family="FreeSans" font-size="10.00" fill="#000000">luexec</text>
</a>
</g>
</g>
<!-- Node1&#45;&gt;Node19 -->
<g id="edge26" class="edge">
<title>Node1&#45;&gt;Node19</title>
<path fill="none" stroke="#191970" d="M49.0855,-616.9656C57.1028,-616.9656 66.1612,-616.9656 74.7779,-616.9656"/>
<polygon fill="#191970" stroke="#191970" points="74.9698,-620.4657 84.9697,-616.9656 74.9697,-613.4657 74.9698,-620.4657"/>
</g>
<!-- Node3&#45;&gt;Node4 -->
<g id="edge3" class="edge">
<title>Node3&#45;&gt;Node4</title>
<path fill="none" stroke="#191970" d="M480.3145,-685.7337C494.1966,-635.4073 555.3334,-415.4582 571,-387.9656 580.049,-372.086 594.0682,-356.9384 605.5545,-345.968"/>
<polygon fill="#191970" stroke="#191970" points="608.0379,-348.4388 613.0096,-339.0829 603.2886,-343.2964 608.0379,-348.4388"/>
</g>
<!-- Node14 -->
<g id="node14" class="node">
<title>Node14</title>
<g id="a_node14"><a xlink:href="../../d0/d5e/classPHTimer.html#adce6f9a85834e59bd154b9c624ee4e41" target="_top" xlink:title="stops the counter">
<polygon fill="none" stroke="#000000" points="581.5,-991.9656 581.5,-1011.9656 668.5,-1011.9656 668.5,-991.9656 581.5,-991.9656"/>
<text text-anchor="middle" x="625" y="-998.9656" font-family="FreeSans" font-size="10.00" fill="#000000">PHTimer::stop</text>
</a>
</g>
</g>
<!-- Node3&#45;&gt;Node14 -->
<g id="edge20" class="edge">
<title>Node3&#45;&gt;Node14</title>
<path fill="none" stroke="#191970" d="M489.0807,-706.0669C501.8294,-717.7161 522.2093,-737.9739 535,-758.9656 581.299,-834.95 609.7783,-938.5705 620.3369,-981.7695"/>
<polygon fill="#191970" stroke="#191970" points="616.9616,-982.7044 622.6868,-991.6192 623.7705,-981.0799 616.9616,-982.7044"/>
</g>
<!-- Node4&#45;&gt;Node2 -->
<g id="edge10" class="edge">
<title>Node4&#45;&gt;Node2</title>
<path fill="none" stroke="#191970" d="M645.5362,-329.0099C717.4783,-329.1649 958.7838,-329.685 1051.9041,-329.8856"/>
<polygon fill="#191970" stroke="#191970" points="1051.9845,-333.3857 1061.992,-329.9074 1051.9996,-326.3857 1051.9845,-333.3857"/>
</g>
<!-- Node5 -->
<g id="node5" class="node">
<title>Node5</title>
<g id="a_node5"><a xlink:href="../../dc/d9f/hcalUtil_8C.html#af562b1ac3ac927ecde202ce0501a97a6" target="_top" xlink:title="ps">
<polygon fill="none" stroke="#000000" points="753,-222.9656 753,-242.9656 782,-242.9656 782,-222.9656 753,-222.9656"/>
<text text-anchor="middle" x="767.5" y="-229.9656" font-family="FreeSans" font-size="10.00" fill="#000000">ps</text>
</a>
</g>
</g>
<!-- Node4&#45;&gt;Node5 -->
<g id="edge4" class="edge">
<title>Node4&#45;&gt;Node5</title>
<path fill="none" stroke="#191970" d="M645.7487,-321.0485C656.1177,-316.6785 668.631,-310.7607 679,-303.9656 696.9051,-292.2319 698.3917,-285.4725 715,-271.9656 724.5769,-264.177 735.4882,-255.9699 744.8732,-249.1045"/>
<polygon fill="#191970" stroke="#191970" points="746.9387,-251.9301 752.981,-243.2272 742.8303,-246.2626 746.9387,-251.9301"/>
</g>
<!-- Node7 -->
<g id="node7" class="node">
<title>Node7</title>
<g id="a_node7"><a xlink:href="../../d6/d80/luname_8f.html#a87cfaa02a00bc60d5b1ce6c2fce29432" target="_top" xlink:title="luname">
<polygon fill="none" stroke="#000000" points="740.5,-280.9656 740.5,-300.9656 794.5,-300.9656 794.5,-280.9656 740.5,-280.9656"/>
<text text-anchor="middle" x="767.5" y="-287.9656" font-family="FreeSans" font-size="10.00" fill="#000000">luname</text>
</a>
</g>
</g>
<!-- Node4&#45;&gt;Node7 -->
<g id="edge6" class="edge">
<title>Node4&#45;&gt;Node7</title>
<path fill="none" stroke="#191970" d="M645.7207,-323.4401C667.8976,-317.5262 703.5302,-308.0242 730.5351,-300.8229"/>
<polygon fill="#191970" stroke="#191970" points="731.656,-304.1464 740.4166,-298.1878 729.8524,-297.3827 731.656,-304.1464"/>
</g>
<!-- Node9 -->
<g id="node9" class="node">
<title>Node9</title>
<g id="a_node9"><a xlink:href="../../d0/d38/plu_8f.html#ab4b095f080a22e776f5a9cc25e23cc54" target="_top" xlink:title="plu">
<polygon fill="none" stroke="#000000" points="751.5,-685.9656 751.5,-705.9656 783.5,-705.9656 783.5,-685.9656 751.5,-685.9656"/>
<text text-anchor="middle" x="767.5" y="-692.9656" font-family="FreeSans" font-size="10.00" fill="#000000">plu</text>
</a>
</g>
</g>
<!-- Node4&#45;&gt;Node9 -->
<g id="edge11" class="edge">
<title>Node4&#45;&gt;Node9</title>
<path fill="none" stroke="#191970" d="M637.0957,-339.0238C649.3879,-349.8789 668.1231,-368.2753 679,-387.9656 708.1959,-440.8185 698.4141,-460.9076 715,-518.9656 731.2951,-576.0057 751.4691,-643.0834 761.3964,-675.8717"/>
<polygon fill="#191970" stroke="#191970" points="758.0988,-677.0584 764.3498,-685.6127 764.7976,-675.0273 758.0988,-677.0584"/>
</g>
<!-- Node4&#45;&gt;Node12 -->
<g id="edge19" class="edge">
<title>Node4&#45;&gt;Node12</title>
<path fill="none" stroke="#191970" d="M634.7745,-339.2197C645.7602,-350.8412 664.0178,-370.4487 679,-387.9656 770.725,-495.2084 874.2949,-629.5249 911.1123,-677.7153"/>
<polygon fill="#191970" stroke="#191970" points="908.5302,-680.1011 917.378,-685.9292 914.0958,-675.8556 908.5302,-680.1011"/>
</g>
<!-- Node6 -->
<g id="node6" class="node">
<title>Node6</title>
<g id="a_node6"><a xlink:href="../../da/d55/TPCRateLayered_8m.html#a7507ef556477c204b499f1e189d40796" target="_top" xlink:title="sum">
<polygon fill="none" stroke="#000000" points="906,-203.9656 906,-223.9656 944,-223.9656 944,-203.9656 906,-203.9656"/>
<text text-anchor="middle" x="925" y="-210.9656" font-family="FreeSans" font-size="10.00" fill="#000000">sum</text>
</a>
</g>
</g>
<!-- Node5&#45;&gt;Node6 -->
<g id="edge5" class="edge">
<title>Node5&#45;&gt;Node6</title>
<path fill="none" stroke="#191970" d="M782.0349,-231.2122C807.8036,-228.1036 861.9563,-221.5709 895.7198,-217.4978"/>
<polygon fill="#191970" stroke="#191970" points="896.395,-220.9418 905.9038,-216.2693 895.5566,-213.9922 896.395,-220.9418"/>
</g>
<!-- Node7&#45;&gt;Node2 -->
<g id="edge7" class="edge">
<title>Node7&#45;&gt;Node2</title>
<path fill="none" stroke="#191970" d="M794.7329,-293.6482C837.3071,-297.9149 922.1955,-306.7151 994,-315.9656 1012.8959,-318.3999 1033.853,-321.4508 1051.2654,-324.0826"/>
<polygon fill="#191970" stroke="#191970" points="1051.1856,-327.6108 1061.5988,-325.6579 1052.2405,-320.6908 1051.1856,-327.6108"/>
</g>
<!-- Node8 -->
<g id="node8" class="node">
<title>Node8</title>
<g id="a_node8"><a xlink:href="../../df/d5f/luchge_8f.html#a86938fb3242850e133e3b60d256582b7" target="_top" xlink:title="luchge">
<polygon fill="none" stroke="#000000" points="900,-242.9656 900,-262.9656 950,-262.9656 950,-242.9656 900,-242.9656"/>
<text text-anchor="middle" x="925" y="-249.9656" font-family="FreeSans" font-size="10.00" fill="#000000">luchge</text>
</a>
</g>
</g>
<!-- Node7&#45;&gt;Node8 -->
<g id="edge8" class="edge">
<title>Node7&#45;&gt;Node8</title>
<path fill="none" stroke="#191970" d="M794.5752,-284.4332C820.8949,-278.083 861.0025,-268.4063 889.7897,-261.4608"/>
<polygon fill="#191970" stroke="#191970" points="890.9366,-264.7846 899.8368,-259.0367 889.2948,-257.9798 890.9366,-264.7846"/>
</g>
<!-- Node8&#45;&gt;Node2 -->
<g id="edge9" class="edge">
<title>Node8&#45;&gt;Node2</title>
<path fill="none" stroke="#191970" d="M950.2797,-261.0849C963.4988,-265.5898 979.8335,-271.5675 994,-277.9656 1018.1873,-288.8895 1044.5835,-303.5758 1063.3994,-314.5546"/>
<polygon fill="#191970" stroke="#191970" points="1061.8478,-317.7027 1072.2399,-319.7656 1065.4024,-311.6724 1061.8478,-317.7027"/>
</g>
<!-- Node9&#45;&gt;Node8 -->
<g id="edge12" class="edge">
<title>Node9&#45;&gt;Node8</title>
<path fill="none" stroke="#191970" d="M771.0855,-685.8806C791.246,-629.1753 890.5529,-349.8549 917.9746,-272.7259"/>
<polygon fill="#191970" stroke="#191970" points="921.299,-273.8235 921.3511,-263.2288 914.7034,-271.4785 921.299,-273.8235"/>
</g>
<!-- Node10 -->
<g id="node10" class="node">
<title>Node10</title>
<g id="a_node10"><a xlink:href="../../d2/da8/ulangl_8f.html#a13a8d5a72aa20b0ae2ceca14e31467ba" target="_top" xlink:title="ulangl">
<polygon fill="none" stroke="#000000" points="901.5,-1378.9656 901.5,-1398.9656 948.5,-1398.9656 948.5,-1378.9656 901.5,-1378.9656"/>
<text text-anchor="middle" x="925" y="-1385.9656" font-family="FreeSans" font-size="10.00" fill="#000000">ulangl</text>
</a>
</g>
</g>
<!-- Node9&#45;&gt;Node10 -->
<g id="edge13" class="edge">
<title>Node9&#45;&gt;Node10</title>
<path fill="none" stroke="#191970" d="M769.7872,-706.0292C787.0147,-781.8304 896.3921,-1263.0907 920.3616,-1368.5564"/>
<polygon fill="#191970" stroke="#191970" points="917.0037,-1369.5749 922.6329,-1378.5505 923.8296,-1368.0235 917.0037,-1369.5749"/>
</g>
<!-- Node11 -->
<g id="node11" class="node">
<title>Node11</title>
<g id="a_node11"><a xlink:href="../../da/d0a/CylinderKalman_8cpp.html#ab74daa0c9784c63e060bfb98cc06fbf5" target="_top" xlink:title="sign">
<polygon fill="none" stroke="#000000" points="1070.5,-1649.9656 1070.5,-1669.9656 1107.5,-1669.9656 1107.5,-1649.9656 1070.5,-1649.9656"/>
<text text-anchor="middle" x="1089" y="-1656.9656" font-family="FreeSans" font-size="10.00" fill="#000000">sign</text>
</a>
</g>
</g>
<!-- Node9&#45;&gt;Node11 -->
<g id="edge18" class="edge">
<title>Node9&#45;&gt;Node11</title>
<path fill="none" stroke="#191970" d="M779.7743,-706.1379C818.8705,-739.3317 941.0172,-849.3184 994,-969.9656 1021.7661,-1033.1918 1075.6188,-1532.9532 1086.8975,-1639.8763"/>
<polygon fill="#191970" stroke="#191970" points="1083.4311,-1640.3802 1087.9575,-1649.9595 1090.3927,-1639.6483 1083.4311,-1640.3802"/>
</g>
<!-- Node9&#45;&gt;Node12 -->
<g id="edge15" class="edge">
<title>Node9&#45;&gt;Node12</title>
<path fill="none" stroke="#191970" d="M783.762,-695.9656C808.3714,-695.9656 855.703,-695.9656 888.7616,-695.9656"/>
<polygon fill="#191970" stroke="#191970" points="888.9466,-699.4657 898.9465,-695.9656 888.9465,-692.4657 888.9466,-699.4657"/>
</g>
<!-- Node10&#45;&gt;Node11 -->
<g id="edge14" class="edge">
<title>Node10&#45;&gt;Node11</title>
<path fill="none" stroke="#191970" d="M931.2287,-1399.2582C955.7396,-1439.761 1045.7641,-1588.5209 1077.6844,-1641.2672"/>
<polygon fill="#191970" stroke="#191970" points="1074.7677,-1643.2078 1082.9395,-1649.951 1080.7565,-1639.5836 1074.7677,-1643.2078"/>
</g>
<!-- Node12&#45;&gt;Node2 -->
<g id="edge16" class="edge">
<title>Node12&#45;&gt;Node2</title>
<path fill="none" stroke="#191970" d="M930.2463,-685.9571C942.0893,-663.2465 971.6082,-605.9759 994,-556.9656 1028.6391,-481.1488 1065.661,-389.0408 1081.3125,-349.5147"/>
<polygon fill="#191970" stroke="#191970" points="1084.6434,-350.6086 1085.0602,-340.022 1078.1325,-348.038 1084.6434,-350.6086"/>
</g>
<!-- Node13 -->
<g id="node13" class="node">
<title>Node13</title>
<g id="a_node13"><a xlink:href="../../d5/dae/rlu_8f.html#a722544a6fb4dd0f67ceda726148484f5" target="_top" xlink:title="rlu">
<polygon fill="none" stroke="#000000" points="1074.5,-1106.9656 1074.5,-1126.9656 1103.5,-1126.9656 1103.5,-1106.9656 1074.5,-1106.9656"/>
<text text-anchor="middle" x="1089" y="-1113.9656" font-family="FreeSans" font-size="10.00" fill="#000000">rlu</text>
</a>
</g>
</g>
<!-- Node12&#45;&gt;Node13 -->
<g id="edge17" class="edge">
<title>Node12&#45;&gt;Node13</title>
<path fill="none" stroke="#191970" d="M935.9519,-706.1534C951.6209,-721.4287 980.0773,-751.9133 994,-783.9656 1035.3972,-879.2689 995.3972,-916.9906 1030,-1014.9656 1041.0568,-1046.2722 1061.8075,-1078.8796 1075.5169,-1098.5558"/>
<polygon fill="#191970" stroke="#191970" points="1072.7857,-1100.7545 1081.434,-1106.8747 1078.4899,-1096.6971 1072.7857,-1100.7545"/>
</g>
<!-- Node15 -->
<g id="node15" class="node">
<title>Node15</title>
<g id="a_node15"><a xlink:href="../../d0/d5e/classPHTimer.html#aa92e3fe4a0a1799f39743eda9ef9d497" target="_top" xlink:title="gets time from cpu clock counts">
<polygon fill="none" stroke="#000000" points="868.5,-1017.9656 868.5,-1049.9656 981.5,-1049.9656 981.5,-1017.9656 868.5,-1017.9656"/>
<text text-anchor="start" x="876.5" y="-1036.9656" font-family="FreeSans" font-size="10.00" fill="#000000">PHTimer::get_clock</text>
<text text-anchor="middle" x="925" y="-1024.9656" font-family="FreeSans" font-size="10.00" fill="#000000">_counts</text>
</a>
</g>
</g>
<!-- Node14&#45;&gt;Node15 -->
<g id="edge21" class="edge">
<title>Node14&#45;&gt;Node15</title>
<path fill="none" stroke="#191970" d="M663.7346,-1012.0123C679.53,-1015.7316 698.0359,-1019.6117 715,-1021.9656 762.5172,-1028.5589 816.5657,-1031.5453 857.9298,-1032.8905"/>
<polygon fill="#191970" stroke="#191970" points="858.0604,-1036.3959 868.1611,-1033.1983 858.271,-1029.3991 858.0604,-1036.3959"/>
</g>
<!-- Node16 -->
<g id="node16" class="node">
<title>Node16</title>
<g id="a_node16"><a xlink:href="../../d0/d5e/classPHTimer.html#a976738876ad978116fdc4549a3765685" target="_top" xlink:title="retrieve elapsed value since last restart (in ms)">
<polygon fill="none" stroke="#000000" points="715,-991.9656 715,-1011.9656 820,-1011.9656 820,-991.9656 715,-991.9656"/>
<text text-anchor="middle" x="767.5" y="-998.9656" font-family="FreeSans" font-size="10.00" fill="#000000">PHTimer::elapsed</text>
</a>
</g>
</g>
<!-- Node14&#45;&gt;Node16 -->
<g id="edge22" class="edge">
<title>Node14&#45;&gt;Node16</title>
<path fill="none" stroke="#191970" d="M668.529,-1001.9656C679.9751,-1001.9656 692.5519,-1001.9656 704.7879,-1001.9656"/>
<polygon fill="#191970" stroke="#191970" points="704.9538,-1005.4657 714.9537,-1001.9656 704.9537,-998.4657 704.9538,-1005.4657"/>
</g>
<!-- Node16&#45;&gt;Node15 -->
<g id="edge25" class="edge">
<title>Node16&#45;&gt;Node15</title>
<path fill="none" stroke="#191970" d="M816.9019,-1012.0028C830.0414,-1014.6724 844.4529,-1017.6005 858.3495,-1020.4239"/>
<polygon fill="#191970" stroke="#191970" points="857.8552,-1023.8949 868.3518,-1022.4561 859.249,-1017.0351 857.8552,-1023.8949"/>
</g>
<!-- Node17 -->
<g id="node17" class="node">
<title>Node17</title>
<g id="a_node17"><a xlink:href="../../d0/d5e/classPHTimer.html#aa75ff2c27aba40e7ef0a934f9a3355c2" target="_top" xlink:title="returns difference between to time">
<polygon fill="none" stroke="#000000" points="856,-978.9656 856,-998.9656 994,-998.9656 994,-978.9656 856,-978.9656"/>
<text text-anchor="middle" x="925" y="-985.9656" font-family="FreeSans" font-size="10.00" fill="#000000">PHTimer::get_difference</text>
</a>
</g>
</g>
<!-- Node16&#45;&gt;Node17 -->
<g id="edge23" class="edge">
<title>Node16&#45;&gt;Node17</title>
<path fill="none" stroke="#191970" d="M820.3834,-997.6006C828.5408,-996.9273 837.1148,-996.2196 845.6976,-995.5112"/>
<polygon fill="#191970" stroke="#191970" points="846.0744,-998.9921 855.7526,-994.6813 845.4985,-992.0158 846.0744,-998.9921"/>
</g>
<!-- Node18 -->
<g id="node18" class="node">
<title>Node18</title>
<g id="a_node18"><a xlink:href="../../d2/db1/classPHTimer_1_1Frequency.html#a023a2d706df9a8bd303810a9ed017f61" target="_top" xlink:title="period accessor">
<polygon fill="none" stroke="#000000" points="1030,-972.9656 1030,-1004.9656 1148,-1004.9656 1148,-972.9656 1030,-972.9656"/>
<text text-anchor="start" x="1038" y="-991.9656" font-family="FreeSans" font-size="10.00" fill="#000000">PHTimer::Frequency</text>
<text text-anchor="middle" x="1089" y="-979.9656" font-family="FreeSans" font-size="10.00" fill="#000000">::period</text>
</a>
</g>
</g>
<!-- Node17&#45;&gt;Node18 -->
<g id="edge24" class="edge">
<title>Node17&#45;&gt;Node18</title>
<path fill="none" stroke="#191970" d="M994.0754,-988.9656C1002.5394,-988.9656 1011.1918,-988.9656 1019.6596,-988.9656"/>
<polygon fill="#191970" stroke="#191970" points="1019.8719,-992.4657 1029.8719,-988.9656 1019.8719,-985.4657 1019.8719,-992.4657"/>
</g>
<!-- Node19&#45;&gt;Node2 -->
<g id="edge45" class="edge">
<title>Node19&#45;&gt;Node2</title>
<path fill="none" stroke="#191970" d="M110.1233,-606.8218C113.6008,-552.5164 131.837,-296.0905 170,-227.9656 276.6893,-37.5142 406.7013,-42.9656 625,-42.9656 625,-42.9656 625,-42.9656 767.5,-42.9656 878.8342,-42.9656 913.5508,-73.003 994,-149.9656 1042.5925,-196.4521 1071.4392,-273.2997 1083.0435,-309.6761"/>
<polygon fill="#191970" stroke="#191970" points="1079.8072,-311.0596 1086.0941,-319.5875 1086.4975,-309.0004 1079.8072,-311.0596"/>
</g>
<!-- Node19&#45;&gt;Node3 -->
<g id="edge100" class="edge">
<title>Node19&#45;&gt;Node3</title>
<path fill="none" stroke="#191970" d="M121.3908,-627.0234C145.096,-646.3135 200.7287,-687.8478 256,-701.9656 320.3537,-718.4033 398.6566,-709.9391 442.8196,-702.6858"/>
<polygon fill="#191970" stroke="#191970" points="443.4952,-706.121 452.7581,-700.9781 442.3098,-699.2221 443.4952,-706.121"/>
</g>
<!-- Node19&#45;&gt;Node4 -->
<g id="edge28" class="edge">
<title>Node19&#45;&gt;Node4</title>
<path fill="none" stroke="#191970" d="M110.1227,-606.873C113.6443,-559.8039 135.4822,-361.1443 256,-289.9656 366.5306,-224.6854 528.5668,-284.6638 594.9534,-314.4519"/>
<polygon fill="#191970" stroke="#191970" points="593.8519,-317.7971 604.4011,-318.7797 596.7672,-311.433 593.8519,-317.7971"/>
</g>
<!-- Node19&#45;&gt;Node5 -->
<g id="edge27" class="edge">
<title>Node19&#45;&gt;Node5</title>
<path fill="none" stroke="#191970" d="M110.4756,-606.9223C115.167,-560.1927 136.5622,-364.2028 170,-313.9656 195.5446,-275.5871 213.0561,-272.7363 256,-255.9656 431.5979,-187.3901 667.2801,-216.6468 742.9957,-228.707"/>
<polygon fill="#191970" stroke="#191970" points="742.5446,-232.1798 752.9799,-230.3479 743.6799,-225.2724 742.5446,-232.1798"/>
</g>
<!-- Node19&#45;&gt;Node8 -->
<g id="edge29" class="edge">
<title>Node19&#45;&gt;Node8</title>
<path fill="none" stroke="#191970" d="M110.0819,-606.6713C113.183,-554.8818 129.1829,-323.0598 170,-265.9656 195.3321,-230.5316 216.7634,-237.8806 256,-218.9656 327.2323,-184.6262 342.4852,-165.608 420,-149.9656 596.4814,-114.3518 651.757,-149.8694 820,-213.9656 837.1041,-220.4818 839.0565,-227.0424 856,-233.9656 866.8316,-238.3914 879.0312,-242.1322 890.1268,-245.0929"/>
<polygon fill="#191970" stroke="#191970" points="889.3808,-248.5146 899.9352,-247.5901 891.1079,-241.731 889.3808,-248.5146"/>
</g>
<!-- Node20 -->
<g id="node20" class="node">
<title>Node20</title>
<g id="a_node20"><a xlink:href="../../da/d22/luprep_8f.html#aad1b09d3910be6e5fd985cf9a9860fc5" target="_top" xlink:title="luprep">
<polygon fill="none" stroke="#000000" points="170.5,-606.9656 170.5,-626.9656 219.5,-626.9656 219.5,-606.9656 170.5,-606.9656"/>
<text text-anchor="middle" x="195" y="-613.9656" font-family="FreeSans" font-size="10.00" fill="#000000">luprep</text>
</a>
</g>
</g>
<!-- Node19&#45;&gt;Node20 -->
<g id="edge30" class="edge">
<title>Node19&#45;&gt;Node20</title>
<path fill="none" stroke="#191970" d="M134.2301,-616.9656C142.2946,-616.9656 151.4062,-616.9656 160.0737,-616.9656"/>
<polygon fill="#191970" stroke="#191970" points="160.3255,-620.4657 170.3254,-616.9656 160.3254,-613.4657 160.3255,-620.4657"/>
</g>
<!-- Node28 -->
<g id="node28" class="node">
<title>Node28</title>
<g id="a_node28"><a xlink:href="../../d6/d6b/ludecy_8f.html#ac4ce13e6008631f348288f05b28e3df9" target="_top" xlink:title="ludecy">
<polygon fill="none" stroke="#000000" points="170,-454.9656 170,-474.9656 220,-474.9656 220,-454.9656 170,-454.9656"/>
<text text-anchor="middle" x="195" y="-461.9656" font-family="FreeSans" font-size="10.00" fill="#000000">ludecy</text>
</a>
</g>
</g>
<!-- Node19&#45;&gt;Node28 -->
<g id="edge46" class="edge">
<title>Node19&#45;&gt;Node28</title>
<path fill="none" stroke="#191970" d="M115.3768,-606.518C129.6003,-581.2317 166.0475,-516.4367 184.2789,-484.0254"/>
<polygon fill="#191970" stroke="#191970" points="187.4551,-485.5177 189.3073,-475.086 181.3541,-482.0858 187.4551,-485.5177"/>
</g>
<!-- Node31 -->
<g id="node31" class="node">
<title>Node31</title>
<g id="a_node31"><a xlink:href="../../d8/d7b/lushow_8f.html#a0bdbe298274d1bf15e7098046b96239e" target="_top" xlink:title="lushow">
<polygon fill="none" stroke="#000000" points="294,-1183.9656 294,-1203.9656 346,-1203.9656 346,-1183.9656 294,-1183.9656"/>
<text text-anchor="middle" x="320" y="-1190.9656" font-family="FreeSans" font-size="10.00" fill="#000000">lushow</text>
</a>
</g>
</g>
<!-- Node19&#45;&gt;Node31 -->
<g id="edge56" class="edge">
<title>Node19&#45;&gt;Node31</title>
<path fill="none" stroke="#191970" d="M110.5345,-627.1031C115.945,-679.1921 141.8138,-916.9234 170,-984.9656 202.9143,-1064.4215 271.1826,-1142.5967 302.9956,-1176.4617"/>
<polygon fill="#191970" stroke="#191970" points="300.4796,-1178.895 309.907,-1183.7299 305.5524,-1174.0713 300.4796,-1178.895"/>
</g>
<!-- Node37 -->
<g id="node37" class="node">
<title>Node37</title>
<g id="a_node37"><a xlink:href="../../d9/d23/lustrf_8f.html#a5941611caddf798b636f4885a175c69e" target="_top" xlink:title="lustrf">
<polygon fill="none" stroke="#000000" points="173.5,-1202.9656 173.5,-1222.9656 216.5,-1222.9656 216.5,-1202.9656 173.5,-1202.9656"/>
<text text-anchor="middle" x="195" y="-1209.9656" font-family="FreeSans" font-size="10.00" fill="#000000">lustrf</text>
</a>
</g>
</g>
<!-- Node19&#45;&gt;Node37 -->
<g id="edge67" class="edge">
<title>Node19&#45;&gt;Node37</title>
<path fill="none" stroke="#191970" d="M110.0636,-627.3705C113.7633,-694.0811 135.4984,-1062.335 170,-1168.9656 172.8146,-1177.6643 177.4719,-1186.5615 182.0087,-1194.0585"/>
<polygon fill="#191970" stroke="#191970" points="179.1975,-1196.1585 187.5432,-1202.6855 185.0894,-1192.3787 179.1975,-1196.1585"/>
</g>
<!-- Node48 -->
<g id="node48" class="node">
<title>Node48</title>
<g id="a_node48"><a xlink:href="../../d9/dc0/luindf_8f.html#a0eb013ccdb0ba3b352ebfd4ed8aafa72" target="_top" xlink:title="luindf">
<polygon fill="none" stroke="#000000" points="172,-954.9656 172,-974.9656 218,-974.9656 218,-954.9656 172,-954.9656"/>
<text text-anchor="middle" x="195" y="-961.9656" font-family="FreeSans" font-size="10.00" fill="#000000">luindf</text>
</a>
</g>
</g>
<!-- Node19&#45;&gt;Node48 -->
<g id="edge90" class="edge">
<title>Node19&#45;&gt;Node48</title>
<path fill="none" stroke="#191970" d="M111.9666,-627.0053C123.7174,-674.833 174.1098,-879.9386 190.1065,-945.0483"/>
<polygon fill="#191970" stroke="#191970" points="186.7384,-946.0091 192.5234,-954.8852 193.5363,-944.3389 186.7384,-946.0091"/>
</g>
<!-- Node50 -->
<g id="node50" class="node">
<title>Node50</title>
<g id="a_node50"><a xlink:href="../../da/da6/luboei_8f.html#a762ad9eeab644f704f5de8395bd89997" target="_top" xlink:title="luboei">
<polygon fill="none" stroke="#000000" points="296.5,-645.9656 296.5,-665.9656 343.5,-665.9656 343.5,-645.9656 296.5,-645.9656"/>
<text text-anchor="middle" x="320" y="-652.9656" font-family="FreeSans" font-size="10.00" fill="#000000">luboei</text>
</a>
</g>
</g>
<!-- Node19&#45;&gt;Node50 -->
<g id="edge101" class="edge">
<title>Node19&#45;&gt;Node50</title>
<path fill="none" stroke="#191970" d="M134.2143,-626.3366C145.0588,-630.1342 158.0237,-634.2543 170,-636.9656 209.3909,-645.8831 255.6154,-650.9447 286.2307,-653.5641"/>
<polygon fill="#191970" stroke="#191970" points="286.1206,-657.0666 296.372,-654.391 286.6896,-650.0898 286.1206,-657.0666"/>
</g>
<!-- Node20&#45;&gt;Node2 -->
<g id="edge31" class="edge">
<title>Node20&#45;&gt;Node2</title>
<path fill="none" stroke="#191970" d="M196.7665,-606.7032C204.6041,-561.7373 236.6974,-383.6454 256,-367.9656 271.9209,-355.0328 973.5622,-344.7056 994,-342.9656 1012.9556,-341.3518 1033.919,-338.5882 1051.3202,-336.0229"/>
<polygon fill="#191970" stroke="#191970" points="1052.2797,-339.4178 1061.6448,-334.4633 1051.2342,-332.4963 1052.2797,-339.4178"/>
</g>
<!-- Node20&#45;&gt;Node3 -->
<g id="edge32" class="edge">
<title>Node20&#45;&gt;Node3</title>
<path fill="none" stroke="#191970" d="M201.897,-627.0189C211.9786,-640.7882 232.1553,-665.0475 256,-675.9656 317.1011,-703.9429 397.5032,-703.1228 442.7195,-699.7305"/>
<polygon fill="#191970" stroke="#191970" points="443.2149,-703.2013 452.8878,-698.8786 442.6304,-696.2258 443.2149,-703.2013"/>
</g>
<!-- Node20&#45;&gt;Node12 -->
<g id="edge33" class="edge">
<title>Node20&#45;&gt;Node12</title>
<path fill="none" stroke="#191970" d="M219.6736,-616.8761C304.1884,-616.9804 589.5276,-620.7302 820,-663.9656 843.3937,-668.3541 868.9539,-676.0775 888.9981,-682.837"/>
<polygon fill="#191970" stroke="#191970" points="888.0534,-686.2133 898.6481,-686.1598 890.3324,-679.5947 888.0534,-686.2133"/>
</g>
<!-- Node20&#45;&gt;Node13 -->
<g id="edge38" class="edge">
<title>Node20&#45;&gt;Node13</title>
<path fill="none" stroke="#191970" d="M195.9588,-627.0168C200.2329,-669.6042 218.9857,-834.5151 256,-867.9656 317.4158,-923.4682 924.183,-925.4905 994,-969.9656 1006.5275,-977.9459 1055.3375,-1059.4894 1077.6984,-1097.5688"/>
<polygon fill="#191970" stroke="#191970" points="1074.9429,-1099.7898 1083.0146,-1106.6525 1080.9843,-1096.254 1074.9429,-1099.7898"/>
</g>
<!-- Node21 -->
<g id="node21" class="node">
<title>Node21</title>
<g id="a_node21"><a xlink:href="../../da/d2d/lukfdi_8f.html#a46954bb4ec2e8b9e55b3dd72f4b8df11" target="_top" xlink:title="lukfdi">
<polygon fill="none" stroke="#000000" points="298,-837.9656 298,-857.9656 342,-857.9656 342,-837.9656 298,-837.9656"/>
<text text-anchor="middle" x="320" y="-844.9656" font-family="FreeSans" font-size="10.00" fill="#000000">lukfdi</text>
</a>
</g>
</g>
<!-- Node20&#45;&gt;Node21 -->
<g id="edge34" class="edge">
<title>Node20&#45;&gt;Node21</title>
<path fill="none" stroke="#191970" d="M200.5324,-627.1894C219.853,-662.8939 284.5158,-782.3908 309.771,-829.0623"/>
<polygon fill="#191970" stroke="#191970" points="306.6941,-830.7306 314.5315,-837.8598 312.8505,-827.3992 306.6941,-830.7306"/>
</g>
<!-- Node22 -->
<g id="node22" class="node">
<title>Node22</title>
<g id="a_node22"><a xlink:href="../../d8/d1a/classHiMain1.html#a676ccaef5fa9c10e945e6d1477aeb366" target="_top" xlink:title="HiMain1::np">
<polygon fill="none" stroke="#000000" points="281.5,-376.9656 281.5,-396.9656 358.5,-396.9656 358.5,-376.9656 281.5,-376.9656"/>
<text text-anchor="middle" x="320" y="-383.9656" font-family="FreeSans" font-size="10.00" fill="#000000">HiMain1::np</text>
</a>
</g>
</g>
<!-- Node20&#45;&gt;Node22 -->
<g id="edge39" class="edge">
<title>Node20&#45;&gt;Node22</title>
<path fill="none" stroke="#191970" d="M196.6309,-606.9341C202.9475,-569.2318 226.9024,-436.6567 256,-406.9656 260.4915,-402.3824 266.0163,-398.8457 271.921,-396.1173"/>
<polygon fill="#191970" stroke="#191970" points="273.3439,-399.32 281.4187,-392.4609 270.8289,-392.7874 273.3439,-399.32"/>
</g>
<!-- Node25 -->
<g id="node25" class="node">
<title>Node25</title>
<g id="a_node25"><a xlink:href="../../de/de0/matchedfilter_8C.html#ad37474ba23a5f0af2c619aeeaad07526" target="_top" xlink:title="go">
<polygon fill="none" stroke="#000000" points="305.5,-415.9656 305.5,-435.9656 334.5,-435.9656 334.5,-415.9656 305.5,-415.9656"/>
<text text-anchor="middle" x="320" y="-422.9656" font-family="FreeSans" font-size="10.00" fill="#000000">go</text>
</a>
</g>
</g>
<!-- Node20&#45;&gt;Node25 -->
<g id="edge42" class="edge">
<title>Node20&#45;&gt;Node25</title>
<path fill="none" stroke="#191970" d="M201.5445,-606.9655C221.4489,-576.5517 281.4901,-484.8087 307.6237,-444.8766"/>
<polygon fill="#191970" stroke="#191970" points="310.6696,-446.6139 313.2171,-436.3299 304.8124,-442.7806 310.6696,-446.6139"/>
</g>
<!-- Node21&#45;&gt;Node2 -->
<g id="edge37" class="edge">
<title>Node21&#45;&gt;Node2</title>
<path fill="none" stroke="#191970" d="M342.1849,-839.303C354.6261,-834.2723 370.3434,-827.6275 384,-820.9656 523.4792,-752.9251 881.3906,-587.7508 994,-480.9656 1035.5944,-441.5225 1066.7004,-380.1874 1080.7432,-349.2303"/>
<polygon fill="#191970" stroke="#191970" points="1083.9942,-350.5328 1084.8419,-339.9719 1077.5934,-347.6991 1083.9942,-350.5328"/>
</g>
<!-- Node21&#45;&gt;Node3 -->
<g id="edge36" class="edge">
<title>Node21&#45;&gt;Node3</title>
<path fill="none" stroke="#191970" d="M342.1792,-844.1712C355.8717,-840.765 372.8859,-834.4539 384,-822.9656 417.4261,-788.4141 387.2316,-756.1414 420,-720.9656 426.3074,-714.1949 434.7661,-709.1641 443.2519,-705.4643"/>
<polygon fill="#191970" stroke="#191970" points="444.6462,-708.6783 452.731,-701.8309 442.1407,-702.142 444.6462,-708.6783"/>
</g>
<!-- Node21&#45;&gt;Node13 -->
<g id="edge35" class="edge">
<title>Node21&#45;&gt;Node13</title>
<path fill="none" stroke="#191970" d="M330.9633,-858.2257C364.1644,-888.6701 467.6837,-979.0404 571,-1021.9656 617.4933,-1041.2823 967.4466,-1097.6856 1064.2506,-1113.0575"/>
<polygon fill="#191970" stroke="#191970" points="1063.8584,-1116.5389 1074.283,-1114.6474 1064.9542,-1109.6252 1063.8584,-1116.5389"/>
</g>
<!-- Node23 -->
<g id="node23" class="node">
<title>Node23</title>
<g id="a_node23"><a xlink:href="../../d8/d1a/classHiMain1.html#abdd4d6ac793897447c6d9f7b9e6d20ca" target="_top" xlink:title="HiMain1::init">
<polygon fill="none" stroke="#000000" points="437,-377.9656 437,-397.9656 518,-397.9656 518,-377.9656 437,-377.9656"/>
<text text-anchor="middle" x="477.5" y="-384.9656" font-family="FreeSans" font-size="10.00" fill="#000000">HiMain1::init</text>
</a>
</g>
</g>
<!-- Node22&#45;&gt;Node23 -->
<g id="edge40" class="edge">
<title>Node22&#45;&gt;Node23</title>
<path fill="none" stroke="#191970" d="M358.5288,-387.2102C379.0483,-387.3405 404.548,-387.5024 426.6707,-387.6429"/>
<polygon fill="#191970" stroke="#191970" points="426.8722,-391.1441 436.8943,-387.7078 426.9167,-384.1443 426.8722,-391.1441"/>
</g>
<!-- Node24 -->
<g id="node24" class="node">
<title>Node24</title>
<g id="a_node24"><a xlink:href="../../d7/dc3/HiMain1_8h.html#af413dd2854a4d96511498e79f1519c57" target="_top" xlink:title="himain1_address_">
<polygon fill="none" stroke="#000000" points="571,-396.9656 571,-416.9656 679,-416.9656 679,-396.9656 571,-396.9656"/>
<text text-anchor="middle" x="625" y="-403.9656" font-family="FreeSans" font-size="10.00" fill="#000000">himain1_address_</text>
</a>
</g>
</g>
<!-- Node23&#45;&gt;Node24 -->
<g id="edge41" class="edge">
<title>Node23&#45;&gt;Node24</title>
<path fill="none" stroke="#191970" d="M518.1955,-393.2077C531.4286,-394.9123 546.4519,-396.8475 560.9645,-398.7169"/>
<polygon fill="#191970" stroke="#191970" points="560.5365,-402.1907 570.9017,-399.997 561.4309,-395.248 560.5365,-402.1907"/>
</g>
<!-- Node26 -->
<g id="node26" class="node">
<title>Node26</title>
<g id="a_node26"><a xlink:href="../../de/de0/matchedfilter_8C.html#a3f4d763c3fdd217c038a53ba4ca5b98a" target="_top" xlink:title="meanw">
<polygon fill="none" stroke="#000000" points="451,-416.9656 451,-436.9656 504,-436.9656 504,-416.9656 451,-416.9656"/>
<text text-anchor="middle" x="477.5" y="-423.9656" font-family="FreeSans" font-size="10.00" fill="#000000">meanw</text>
</a>
</g>
</g>
<!-- Node25&#45;&gt;Node26 -->
<g id="edge43" class="edge">
<title>Node25&#45;&gt;Node26</title>
<path fill="none" stroke="#191970" d="M334.5349,-426.0579C358.3795,-426.2093 406.5277,-426.515 440.3361,-426.7296"/>
<polygon fill="#191970" stroke="#191970" points="440.7379,-430.2322 450.76,-426.7958 440.7824,-423.2323 440.7379,-430.2322"/>
</g>
<!-- Node27 -->
<g id="node27" class="node">
<title>Node27</title>
<g id="a_node27"><a xlink:href="../../de/de0/matchedfilter_8C.html#ac662fab4d6569f9ab320da1b95bcd663" target="_top" xlink:title="round">
<polygon fill="none" stroke="#000000" points="455,-455.9656 455,-475.9656 500,-475.9656 500,-455.9656 455,-455.9656"/>
<text text-anchor="middle" x="477.5" y="-462.9656" font-family="FreeSans" font-size="10.00" fill="#000000">round</text>
</a>
</g>
</g>
<!-- Node25&#45;&gt;Node27 -->
<g id="edge44" class="edge">
<title>Node25&#45;&gt;Node27</title>
<path fill="none" stroke="#191970" d="M334.5349,-429.657C359.5179,-436.0019 411.1807,-449.1226 445.0762,-457.731"/>
<polygon fill="#191970" stroke="#191970" points="444.4221,-461.1759 454.976,-460.2452 446.1452,-454.3913 444.4221,-461.1759"/>
</g>
<!-- Node28&#45;&gt;Node2 -->
<g id="edge47" class="edge">
<title>Node28&#45;&gt;Node2</title>
<path fill="none" stroke="#191970" d="M196.4662,-454.7142C202.2689,-415.5484 224.8397,-276.0545 256,-245.9656 377.359,-128.7793 456.2972,-156.9656 625,-156.9656 625,-156.9656 625,-156.9656 767.5,-156.9656 869.5736,-156.9656 907.6211,-140.5808 994,-194.9656 1038.4738,-222.9666 1067.9787,-280.1232 1081.1395,-310.2979"/>
<polygon fill="#191970" stroke="#191970" points="1078.0115,-311.8891 1085.1107,-319.7537 1084.4655,-309.1785 1078.0115,-311.8891"/>
</g>
<!-- Node28&#45;&gt;Node3 -->
<g id="edge49" class="edge">
<title>Node28&#45;&gt;Node3</title>
<path fill="none" stroke="#191970" d="M207.5032,-475.1894C251.8985,-511.4915 402.226,-634.4142 457.1724,-679.3438"/>
<polygon fill="#191970" stroke="#191970" points="455.1842,-682.2391 465.1412,-685.8598 459.6153,-676.8201 455.1842,-682.2391"/>
</g>
<!-- Node28&#45;&gt;Node5 -->
<g id="edge51" class="edge">
<title>Node28&#45;&gt;Node5</title>
<path fill="none" stroke="#191970" d="M197.1142,-454.5995C204.3222,-420.3193 228.9882,-311.5685 256,-289.9656 332.2744,-228.9645 651.2871,-230.5812 742.8387,-232.3545"/>
<polygon fill="#191970" stroke="#191970" points="742.7721,-235.8538 752.8443,-232.5673 742.9211,-228.8554 742.7721,-235.8538"/>
</g>
<!-- Node28&#45;&gt;Node12 -->
<g id="edge53" class="edge">
<title>Node28&#45;&gt;Node12</title>
<path fill="none" stroke="#191970" d="M220.1997,-470.4229C256.5535,-478.4186 325.7466,-494.0966 384,-509.9656 579.5956,-563.2484 631.6633,-568.959 820,-643.9656 847.2051,-654.8002 877.0154,-669.8923 897.8988,-681.0278"/>
<polygon fill="#191970" stroke="#191970" points="896.3606,-684.1746 906.8243,-685.8362 899.6806,-678.012 896.3606,-684.1746"/>
</g>
<!-- Node28&#45;&gt;Node13 -->
<g id="edge48" class="edge">
<title>Node28&#45;&gt;Node13</title>
<path fill="none" stroke="#191970" d="M208.8197,-475.2169C221.0343,-484.1538 239.4329,-497.3162 256,-507.9656 575.5201,-713.3542 737.2361,-659.0552 994,-938.9656 1019.2652,-966.5084 1012.6284,-981.8723 1030,-1014.9656 1045.5137,-1044.5196 1065.2186,-1077.8346 1077.4703,-1098.1115"/>
<polygon fill="#191970" stroke="#191970" points="1074.5021,-1099.9668 1082.6842,-1106.6975 1080.4853,-1096.3334 1074.5021,-1099.9668"/>
</g>
<!-- Node28&#45;&gt;Node21 -->
<g id="edge52" class="edge">
<title>Node28&#45;&gt;Node21</title>
<path fill="none" stroke="#191970" d="M197.6541,-475.1502C205.6942,-505.7648 230.7803,-599.5617 256,-675.9656 274.3938,-731.6904 299.4478,-796.2616 312.0578,-828.1064"/>
<polygon fill="#191970" stroke="#191970" points="308.882,-829.5923 315.8296,-837.5913 315.3866,-827.0057 308.882,-829.5923"/>
</g>
<!-- Node28&#45;&gt;Node22 -->
<g id="edge50" class="edge">
<title>Node28&#45;&gt;Node22</title>
<path fill="none" stroke="#191970" d="M203.0198,-454.8923C213.7777,-442.0165 234.0811,-419.8536 256,-406.9656 260.8293,-404.126 266.1046,-401.6473 271.4876,-399.4941"/>
<polygon fill="#191970" stroke="#191970" points="273.014,-402.6636 281.2202,-395.9622 270.626,-396.0834 273.014,-402.6636"/>
</g>
<!-- Node29 -->
<g id="node29" class="node">
<title>Node29</title>
<g id="a_node29"><a xlink:href="../../d8/d47/classsimpleRandom.html#a3f2fd2700bb2b3bfcd31c5064355e649" target="_top" xlink:title="simpleRandom::gauss">
<polygon fill="none" stroke="#000000" points="256,-298.9656 256,-318.9656 384,-318.9656 384,-298.9656 256,-298.9656"/>
<text text-anchor="middle" x="320" y="-305.9656" font-family="FreeSans" font-size="10.00" fill="#000000">simpleRandom::gauss</text>
</a>
</g>
</g>
<!-- Node28&#45;&gt;Node29 -->
<g id="edge54" class="edge">
<title>Node28&#45;&gt;Node29</title>
<path fill="none" stroke="#191970" d="M196.9861,-454.9273C202.267,-430.7694 218.8651,-368.818 256,-333.9656 260.402,-329.8342 265.5648,-326.3592 271.0155,-323.4426"/>
<polygon fill="#191970" stroke="#191970" points="272.8147,-326.4643 280.377,-319.044 269.8379,-320.1288 272.8147,-326.4643"/>
</g>
<!-- Node30 -->
<g id="node30" class="node">
<title>Node30</title>
<g id="a_node30"><a xlink:href="../../d8/d47/classsimpleRandom.html#aebead569577956e1c1ff5339246507b8" target="_top" xlink:title="simpleRandom::rnd">
<polygon fill="none" stroke="#ff0000" points="420,-299.9656 420,-319.9656 535,-319.9656 535,-299.9656 420,-299.9656"/>
<text text-anchor="middle" x="477.5" y="-306.9656" font-family="FreeSans" font-size="10.00" fill="#000000">simpleRandom::rnd</text>
</a>
</g>
</g>
<!-- Node29&#45;&gt;Node30 -->
<g id="edge55" class="edge">
<title>Node29&#45;&gt;Node30</title>
<path fill="none" stroke="#191970" d="M384.0613,-309.3723C392.4774,-309.4258 401.1255,-309.4807 409.6026,-309.5345"/>
<polygon fill="#191970" stroke="#191970" points="409.8088,-313.0358 419.8309,-309.5994 409.8533,-306.0359 409.8088,-313.0358"/>
</g>
<!-- Node31&#45;&gt;Node3 -->
<g id="edge60" class="edge">
<title>Node31&#45;&gt;Node3</title>
<path fill="none" stroke="#191970" d="M323.4097,-1183.766C333.5908,-1153.0684 364.2834,-1058.7392 384,-978.9656 403.7843,-898.9182 391.2298,-874.2397 420,-796.9656 431.4259,-766.2766 451.4748,-733.9056 464.621,-714.3198"/>
<polygon fill="#191970" stroke="#191970" points="467.5313,-716.2643 470.2858,-706.0338 461.7527,-712.3136 467.5313,-716.2643"/>
</g>
<!-- Node31&#45;&gt;Node5 -->
<g id="edge57" class="edge">
<title>Node31&#45;&gt;Node5</title>
<path fill="none" stroke="#191970" d="M326.2195,-1183.6814C355.8191,-1134.1576 483.1302,-914.4934 535,-715.9656 557.8964,-628.3311 516.699,-382.4601 571,-309.9656 592.4427,-281.3386 695.4661,-251.5914 743.1664,-239.0824"/>
<polygon fill="#191970" stroke="#191970" points="744.1734,-242.4373 752.9806,-236.548 742.4231,-235.6596 744.1734,-242.4373"/>
</g>
<!-- Node31&#45;&gt;Node10 -->
<g id="edge66" class="edge">
<title>Node31&#45;&gt;Node10</title>
<path fill="none" stroke="#191970" d="M346.2895,-1198.8253C358.4283,-1201.8837 372.6345,-1206.6737 384,-1213.9656 404.1306,-1226.881 399.6047,-1241.4724 420,-1253.9656 578.2601,-1350.9086 805.9353,-1379.1174 891.129,-1386.5434"/>
<polygon fill="#191970" stroke="#191970" points="891.006,-1390.0452 901.2617,-1387.386 891.5861,-1383.0693 891.006,-1390.0452"/>
</g>
<!-- Node31&#45;&gt;Node12 -->
<g id="edge58" class="edge">
<title>Node31&#45;&gt;Node12</title>
<path fill="none" stroke="#191970" d="M330.2477,-1183.6797C363.0337,-1151.1566 469.1803,-1048.8135 571,-982.9656 674.1556,-916.2537 739.914,-956.1202 820,-862.9656 855.4679,-821.71 824.339,-790.2102 856,-745.9656 866.3107,-731.557 882.0759,-719.6866 895.9354,-711.1331"/>
<polygon fill="#191970" stroke="#191970" points="897.8361,-714.076 904.6914,-705.9979 894.2948,-708.0378 897.8361,-714.076"/>
</g>
<!-- Node31&#45;&gt;Node13 -->
<g id="edge61" class="edge">
<title>Node31&#45;&gt;Node13</title>
<path fill="none" stroke="#191970" d="M346.3302,-1197.037C391.987,-1202.1917 488.8409,-1212.3719 571,-1215.9656 618.9541,-1218.0632 631.3364,-1221.6386 679,-1215.9656 828.1583,-1198.2126 1001.529,-1145.3444 1064.5375,-1125.0356"/>
<polygon fill="#191970" stroke="#191970" points="1065.9098,-1128.2699 1074.3387,-1121.8509 1063.7466,-1121.6125 1065.9098,-1128.2699"/>
</g>
<!-- Node32 -->
<g id="node32" class="node">
<title>Node32</title>
<g id="a_node32"><a xlink:href="../../db/d30/TPCRateData_8m.html#a2ae3b94a32881ed5840bebb9dd7954d2" target="_top" xlink:title="if">
<polygon fill="none" stroke="#000000" points="463,-1223.9656 463,-1243.9656 492,-1243.9656 492,-1223.9656 463,-1223.9656"/>
<text text-anchor="middle" x="477.5" y="-1230.9656" font-family="FreeSans" font-size="10.00" fill="#000000">if</text>
</a>
</g>
</g>
<!-- Node31&#45;&gt;Node32 -->
<g id="edge59" class="edge">
<title>Node31&#45;&gt;Node32</title>
<path fill="none" stroke="#191970" d="M346.0079,-1200.5708C375.7335,-1208.1201 424.0143,-1220.3819 453.0655,-1227.76"/>
<polygon fill="#191970" stroke="#191970" points="452.2748,-1231.1702 462.8286,-1230.2395 453.9979,-1224.3856 452.2748,-1231.1702"/>
</g>
<!-- Node33 -->
<g id="node33" class="node">
<title>Node33</title>
<g id="a_node33"><a xlink:href="../../db/dc0/classHiStrng.html#a9c8d7f68590dc5bf34483b740c49ba0b" target="_top" xlink:title="HiStrng::pt">
<polygon fill="none" stroke="#000000" points="442,-1145.9656 442,-1165.9656 513,-1165.9656 513,-1145.9656 442,-1145.9656"/>
<text text-anchor="middle" x="477.5" y="-1152.9656" font-family="FreeSans" font-size="10.00" fill="#000000">HiStrng::pt</text>
</a>
</g>
</g>
<!-- Node31&#45;&gt;Node33 -->
<g id="edge62" class="edge">
<title>Node31&#45;&gt;Node33</title>
<path fill="none" stroke="#191970" d="M346.0079,-1187.6907C369.2748,-1182.0771 403.9096,-1173.7207 431.7931,-1166.9933"/>
<polygon fill="#191970" stroke="#191970" points="432.8268,-1170.3444 441.727,-1164.5965 431.185,-1163.5397 432.8268,-1170.3444"/>
</g>
<!-- Node34 -->
<g id="node34" class="node">
<title>Node34</title>
<g id="a_node34"><a xlink:href="../../db/dc0/classHiStrng.html#ae9b634a387f81c6ae391eb695acce897" target="_top" xlink:title="HiStrng::init">
<polygon fill="none" stroke="#ff0000" points="586.5,-1146.9656 586.5,-1166.9656 663.5,-1166.9656 663.5,-1146.9656 586.5,-1146.9656"/>
<text text-anchor="middle" x="625" y="-1153.9656" font-family="FreeSans" font-size="10.00" fill="#000000">HiStrng::init</text>
</a>
</g>
</g>
<!-- Node33&#45;&gt;Node34 -->
<g id="edge63" class="edge">
<title>Node33&#45;&gt;Node34</title>
<path fill="none" stroke="#191970" d="M513.2056,-1156.2077C532.0964,-1156.3357 555.573,-1156.4949 576.1288,-1156.6343"/>
<polygon fill="#191970" stroke="#191970" points="576.2376,-1160.135 586.2612,-1156.703 576.2852,-1153.1351 576.2376,-1160.135"/>
</g>
<!-- Node35 -->
<g id="node35" class="node">
<title>Node35</title>
<g id="a_node35"><a xlink:href="../../db/dc0/classHiStrng.html#a38019be113af95d58e24f9b442003a42" target="_top" xlink:title="HiStrng::lenI">
<polygon fill="none" stroke="#000000" points="585.5,-1107.9656 585.5,-1127.9656 664.5,-1127.9656 664.5,-1107.9656 585.5,-1107.9656"/>
<text text-anchor="middle" x="625" y="-1114.9656" font-family="FreeSans" font-size="10.00" fill="#000000">HiStrng::lenI</text>
</a>
</g>
</g>
<!-- Node33&#45;&gt;Node35 -->
<g id="edge64" class="edge">
<title>Node33&#45;&gt;Node35</title>
<path fill="none" stroke="#191970" d="M513.2056,-1146.7669C532.1093,-1141.8967 555.6053,-1135.8436 576.1712,-1130.5452"/>
<polygon fill="#191970" stroke="#191970" points="577.1883,-1133.8976 585.9989,-1128.0133 575.4418,-1127.1189 577.1883,-1133.8976"/>
</g>
<!-- Node36 -->
<g id="node36" class="node">
<title>Node36</title>
<g id="a_node36"><a xlink:href="../../db/dc0/classHiStrng.html#ab8cb049ff2a23c6a47aa48163d605c06" target="_top" xlink:title="HiStrng::lenJ">
<polygon fill="none" stroke="#000000" points="585.5,-1185.9656 585.5,-1205.9656 664.5,-1205.9656 664.5,-1185.9656 585.5,-1185.9656"/>
<text text-anchor="middle" x="625" y="-1192.9656" font-family="FreeSans" font-size="10.00" fill="#000000">HiStrng::lenJ</text>
</a>
</g>
</g>
<!-- Node33&#45;&gt;Node36 -->
<g id="edge65" class="edge">
<title>Node33&#45;&gt;Node36</title>
<path fill="none" stroke="#191970" d="M513.2056,-1165.6485C532.7841,-1170.9579 557.2885,-1177.6031 578.3619,-1183.318"/>
<polygon fill="#191970" stroke="#191970" points="577.5153,-1186.7147 588.0828,-1185.9542 579.3475,-1179.9588 577.5153,-1186.7147"/>
</g>
<!-- Node37&#45;&gt;Node2 -->
<g id="edge70" class="edge">
<title>Node37&#45;&gt;Node2</title>
<path fill="none" stroke="#191970" d="M209.0217,-1202.9518C221.0619,-1194.671 239.0999,-1183.0068 256,-1174.9656 310.3206,-1149.1192 330.2273,-1157.9335 384,-1130.9656 456.6168,-1094.5471 475.4124,-1083.1818 535,-1027.9656 553.7868,-1010.557 551.095,-999.0836 571,-982.9656 667.2348,-905.0401 716.0748,-925.2938 820,-857.9656 903.7731,-803.6929 940.6559,-800.3331 994,-715.9656 1071.7871,-592.9398 1085.8836,-410.6318 1088.4362,-350.2241"/>
<polygon fill="#191970" stroke="#191970" points="1091.9381,-350.2313 1088.7998,-340.1119 1084.9426,-349.9797 1091.9381,-350.2313"/>
</g>
<!-- Node37&#45;&gt;Node3 -->
<g id="edge69" class="edge">
<title>Node37&#45;&gt;Node3</title>
<path fill="none" stroke="#191970" d="M199.8214,-1202.9075C209.4646,-1183.1282 232.2491,-1138.0454 256,-1102.9656 306.4741,-1028.416 343.9889,-1026.6154 384,-945.9656 414.2775,-884.9356 394.9006,-860.3012 420,-796.9656 432.0646,-766.522 451.9424,-734.0852 464.8777,-714.4184"/>
<polygon fill="#191970" stroke="#191970" points="467.7947,-716.3526 470.4424,-706.0939 461.9752,-712.4624 467.7947,-716.3526"/>
</g>
<!-- Node37&#45;&gt;Node11 -->
<g id="edge89" class="edge">
<title>Node37&#45;&gt;Node11</title>
<path fill="none" stroke="#191970" d="M195.4399,-1223.304C197.9648,-1278.6339 212.076,-1539.6764 256,-1604.9656 320.0964,-1700.2393 362.6722,-1737.9656 477.5,-1737.9656 477.5,-1737.9656 477.5,-1737.9656 767.5,-1737.9656 868.5202,-1737.9656 898.0992,-1750.7166 994,-1718.9656 1022.1938,-1709.6312 1050.6135,-1690.3862 1068.9227,-1676.4074"/>
<polygon fill="#191970" stroke="#191970" points="1071.342,-1678.9582 1077.0534,-1670.0345 1067.0237,-1673.4488 1071.342,-1678.9582"/>
</g>
<!-- Node37&#45;&gt;Node12 -->
<g id="edge77" class="edge">
<title>Node37&#45;&gt;Node12</title>
<path fill="none" stroke="#191970" d="M201.0711,-1202.9505C210.847,-1187.5997 231.4837,-1158.2228 256,-1140.9656 305.683,-1105.9934 331.5829,-1123.6885 384,-1092.9656 407.4674,-1079.2108 548.2858,-949.9315 571,-934.9656 630.7505,-895.5972 649.2469,-891.1885 715,-862.9656 760.6052,-843.3907 783.5262,-858.6208 820,-824.9656 848.3573,-798.7997 831.5689,-775.8305 856,-745.9656 867.3722,-732.0641 883.4765,-720.1027 897.267,-711.3677"/>
<polygon fill="#191970" stroke="#191970" points="899.1957,-714.2912 905.9222,-706.1055 895.5592,-708.3099 899.1957,-714.2912"/>
</g>
<!-- Node37&#45;&gt;Node13 -->
<g id="edge76" class="edge">
<title>Node37&#45;&gt;Node13</title>
<path fill="none" stroke="#191970" d="M195.4103,-1223.0666C197.6134,-1271.853 209.7247,-1482.4411 256,-1523.9656 292.7696,-1556.9603 428.097,-1542.9656 477.5,-1542.9656 477.5,-1542.9656 477.5,-1542.9656 767.5,-1542.9656 873.6825,-1542.9656 921.1531,-1544.2187 994,-1466.9656 1040.448,-1417.7082 1075.9002,-1204.2077 1086.0518,-1137.1784"/>
<polygon fill="#191970" stroke="#191970" points="1089.545,-1137.4826 1087.5568,-1127.076 1082.6214,-1136.451 1089.545,-1137.4826"/>
</g>
<!-- Node37&#45;&gt;Node21 -->
<g id="edge75" class="edge">
<title>Node37&#45;&gt;Node21</title>
<path fill="none" stroke="#191970" d="M196.1548,-1202.9289C201.6558,-1156.2143 226.1755,-960.1104 256,-906.9656 265.677,-889.7221 282.1808,-874.6925 296.0051,-864.1183"/>
<polygon fill="#191970" stroke="#191970" points="298.1816,-866.8625 304.1813,-858.1301 294.0456,-861.2151 298.1816,-866.8625"/>
</g>
<!-- Node37&#45;&gt;Node22 -->
<g id="edge68" class="edge">
<title>Node37&#45;&gt;Node22</title>
<path fill="none" stroke="#191970" d="M196.3213,-1202.5289C200.3711,-1170.2387 212.7734,-1069.0753 220,-984.9656 225.5083,-920.8551 216.2914,-457.5988 256,-406.9656 260.1015,-401.7358 265.5568,-397.8439 271.5581,-394.9533"/>
<polygon fill="#191970" stroke="#191970" points="273.2518,-398.0514 281.322,-391.1868 270.7324,-391.5205 273.2518,-398.0514"/>
</g>
<!-- Node38 -->
<g id="node38" class="node">
<title>Node38</title>
<g id="a_node38"><a xlink:href="../../dc/d40/classHijJet4.html#a2a6e3542b86d763ee820196ece0033dd" target="_top" xlink:title="HijJet4::pdr">
<polygon fill="none" stroke="#000000" points="283.5,-1358.9656 283.5,-1378.9656 356.5,-1378.9656 356.5,-1358.9656 283.5,-1358.9656"/>
<text text-anchor="middle" x="320" y="-1365.9656" font-family="FreeSans" font-size="10.00" fill="#000000">HijJet4::pdr</text>
</a>
</g>
</g>
<!-- Node37&#45;&gt;Node38 -->
<g id="edge71" class="edge">
<title>Node37&#45;&gt;Node38</title>
<path fill="none" stroke="#191970" d="M203.2016,-1223.2012C224.0428,-1249.211 279.2459,-1318.1045 305.6014,-1350.9961"/>
<polygon fill="#191970" stroke="#191970" points="302.9463,-1353.2799 311.9307,-1358.8951 308.409,-1348.9027 302.9463,-1353.2799"/>
</g>
<!-- Node42 -->
<g id="node42" class="node">
<title>Node42</title>
<g id="a_node42"><a xlink:href="../../d7/d1a/luptdi_8f.html#adec49ca8d72a0d30c298eb014457d5fd" target="_top" xlink:title="luptdi">
<polygon fill="none" stroke="#000000" points="297.5,-1222.9656 297.5,-1242.9656 342.5,-1242.9656 342.5,-1222.9656 297.5,-1222.9656"/>
<text text-anchor="middle" x="320" y="-1229.9656" font-family="FreeSans" font-size="10.00" fill="#000000">luptdi</text>
</a>
</g>
</g>
<!-- Node37&#45;&gt;Node42 -->
<g id="edge78" class="edge">
<title>Node37&#45;&gt;Node42</title>
<path fill="none" stroke="#191970" d="M216.7733,-1216.4493C236.2172,-1219.5603 264.9757,-1224.1617 287.2031,-1227.7181"/>
<polygon fill="#191970" stroke="#191970" points="286.7819,-1231.1951 297.2093,-1229.3191 287.8879,-1224.2831 286.7819,-1231.1951"/>
</g>
<!-- Node43 -->
<g id="node43" class="node">
<title>Node43</title>
<g id="a_node43"><a xlink:href="../../da/dda/luzdis_8f.html#a3e0cdb14807014a4c99bc53b92ae4fe4" target="_top" xlink:title="luzdis">
<polygon fill="none" stroke="#000000" points="297.5,-1493.9656 297.5,-1513.9656 342.5,-1513.9656 342.5,-1493.9656 297.5,-1493.9656"/>
<text text-anchor="middle" x="320" y="-1500.9656" font-family="FreeSans" font-size="10.00" fill="#000000">luzdis</text>
</a>
</g>
</g>
<!-- Node37&#45;&gt;Node43 -->
<g id="edge81" class="edge">
<title>Node37&#45;&gt;Node43</title>
<path fill="none" stroke="#191970" d="M196.0591,-1223.0924C200.8154,-1266.812 221.4885,-1438.9688 256,-1478.9656 264.0765,-1488.3258 276.1032,-1494.2046 287.5578,-1497.8868"/>
<polygon fill="#191970" stroke="#191970" points="286.7926,-1501.3063 297.3631,-1500.5894 288.6527,-1494.558 286.7926,-1501.3063"/>
</g>
<!-- Node44 -->
<g id="node44" class="node">
<title>Node44</title>
<g id="a_node44"><a xlink:href="../../d6/dcf/pythia6425mod_8f.html#a6cee1eea51c820d9e90932c9eca205b7" target="_top" xlink:title="pyp">
<polygon fill="none" stroke="#000000" points="750,-1610.9656 750,-1630.9656 785,-1630.9656 785,-1610.9656 750,-1610.9656"/>
<text text-anchor="middle" x="767.5" y="-1617.9656" font-family="FreeSans" font-size="10.00" fill="#000000">pyp</text>
</a>
</g>
</g>
<!-- Node37&#45;&gt;Node44 -->
<g id="edge83" class="edge">
<title>Node37&#45;&gt;Node44</title>
<path fill="none" stroke="#191970" d="M195.2401,-1223.0398C196.6899,-1274.714 205.9853,-1509.44 256,-1556.9656 393.8062,-1687.9136 655.081,-1645.617 740.0525,-1627.419"/>
<polygon fill="#191970" stroke="#191970" points="740.9534,-1630.8045 749.9642,-1625.2317 739.4449,-1623.969 740.9534,-1630.8045"/>
</g>
<!-- Node39 -->
<g id="node39" class="node">
<title>Node39</title>
<g id="a_node39"><a xlink:href="../../dc/d40/classHijJet4.html#a0bd4e1a7267a3cdceb5ef65f77c47fe5" target="_top" xlink:title="HijJet4::init">
<polygon fill="none" stroke="#ff0000" points="441.5,-1417.9656 441.5,-1437.9656 513.5,-1437.9656 513.5,-1417.9656 441.5,-1417.9656"/>
<text text-anchor="middle" x="477.5" y="-1424.9656" font-family="FreeSans" font-size="10.00" fill="#000000">HijJet4::init</text>
</a>
</g>
</g>
<!-- Node38&#45;&gt;Node39 -->
<g id="edge72" class="edge">
<title>Node38&#45;&gt;Node39</title>
<path fill="none" stroke="#191970" d="M344.0884,-1379.0834C364.2447,-1387.433 393.8267,-1399.4168 420,-1408.9656 425.247,-1410.8799 430.7925,-1412.8178 436.2867,-1414.6873"/>
<polygon fill="#191970" stroke="#191970" points="435.4512,-1418.0986 446.0451,-1417.9583 437.676,-1411.4615 435.4512,-1418.0986"/>
</g>
<!-- Node40 -->
<g id="node40" class="node">
<title>Node40</title>
<g id="a_node40"><a xlink:href="../../dc/d40/classHijJet4.html#a8d54acc34a181a6c99c50c7ad77c0331" target="_top" xlink:title="HijJet4::lenI">
<polygon fill="none" stroke="#000000" points="440.5,-1378.9656 440.5,-1398.9656 514.5,-1398.9656 514.5,-1378.9656 440.5,-1378.9656"/>
<text text-anchor="middle" x="477.5" y="-1385.9656" font-family="FreeSans" font-size="10.00" fill="#000000">HijJet4::lenI</text>
</a>
</g>
</g>
<!-- Node38&#45;&gt;Node40 -->
<g id="edge73" class="edge">
<title>Node38&#45;&gt;Node40</title>
<path fill="none" stroke="#191970" d="M356.5295,-1373.6043C378.4566,-1376.3887 406.5839,-1379.9604 430.1974,-1382.9589"/>
<polygon fill="#191970" stroke="#191970" points="429.988,-1386.4603 440.3492,-1384.248 430.8698,-1379.5161 429.988,-1386.4603"/>
</g>
<!-- Node41 -->
<g id="node41" class="node">
<title>Node41</title>
<g id="a_node41"><a xlink:href="../../dc/d40/classHijJet4.html#a50873d0cc9053b8048cbf19d1841f8b8" target="_top" xlink:title="HijJet4::lenK">
<polygon fill="none" stroke="#000000" points="438,-1339.9656 438,-1359.9656 517,-1359.9656 517,-1339.9656 438,-1339.9656"/>
<text text-anchor="middle" x="477.5" y="-1346.9656" font-family="FreeSans" font-size="10.00" fill="#000000">HijJet4::lenK</text>
</a>
</g>
</g>
<!-- Node38&#45;&gt;Node41 -->
<g id="edge74" class="edge">
<title>Node38&#45;&gt;Node41</title>
<path fill="none" stroke="#191970" d="M356.5295,-1364.5589C377.7442,-1361.9996 404.7627,-1358.7403 427.8818,-1355.9513"/>
<polygon fill="#191970" stroke="#191970" points="428.349,-1359.4204 437.8578,-1354.7478 427.5106,-1352.4708 428.349,-1359.4204"/>
</g>
<!-- Node42&#45;&gt;Node13 -->
<g id="edge80" class="edge">
<title>Node42&#45;&gt;Node13</title>
<path fill="none" stroke="#191970" d="M342.504,-1238.4626C362.6843,-1243.2071 393.1617,-1249.9175 420,-1253.9656 510.4782,-1267.6128 533.4984,-1272.9656 625,-1272.9656 625,-1272.9656 625,-1272.9656 767.5,-1272.9656 893.9157,-1272.9656 1022.7746,-1174.1316 1070.0965,-1133.7993"/>
<polygon fill="#191970" stroke="#191970" points="1072.4494,-1136.3918 1077.7204,-1127.2012 1067.8685,-1131.0988 1072.4494,-1136.3918"/>
</g>
<!-- Node42&#45;&gt;Node33 -->
<g id="edge79" class="edge">
<title>Node42&#45;&gt;Node33</title>
<path fill="none" stroke="#191970" d="M342.7415,-1227.7923C355.2139,-1224.5675 370.7824,-1219.8985 384,-1213.9656 409.9092,-1202.3359 437.2596,-1184.6525 455.6389,-1171.869"/>
<polygon fill="#191970" stroke="#191970" points="457.748,-1174.6643 463.8952,-1166.0351 453.7085,-1168.9475 457.748,-1174.6643"/>
</g>
<!-- Node43&#45;&gt;Node13 -->
<g id="edge82" class="edge">
<title>Node43&#45;&gt;Node13</title>
<path fill="none" stroke="#191970" d="M342.5748,-1504.0902C393.1429,-1504.3583 519.3614,-1504.9656 625,-1504.9656 625,-1504.9656 625,-1504.9656 767.5,-1504.9656 876.8354,-1504.9656 920.097,-1489.5421 994,-1408.9656 1068.0352,-1328.2449 1084.4249,-1189.0059 1088.0107,-1137.1754"/>
<polygon fill="#191970" stroke="#191970" points="1091.5172,-1137.1706 1088.6239,-1126.9785 1084.5298,-1136.7503 1091.5172,-1137.1706"/>
</g>
<!-- Node44&#45;&gt;Node11 -->
<g id="edge88" class="edge">
<title>Node44&#45;&gt;Node11</title>
<path fill="none" stroke="#191970" d="M785.3257,-1625.7724C803.0988,-1630.3801 831.2423,-1637.178 856,-1640.9656 929.0446,-1652.1405 1016.0455,-1657.0306 1060.2033,-1658.923"/>
<polygon fill="#191970" stroke="#191970" points="1060.3379,-1662.4313 1070.4722,-1659.3415 1060.623,-1655.4371 1060.3379,-1662.4313"/>
</g>
<!-- Node45 -->
<g id="node45" class="node">
<title>Node45</title>
<g id="a_node45"><a xlink:href="../../d6/dcf/pythia6425mod_8f.html#a27f75936fde97780175fa2c990bc61cd" target="_top" xlink:title="pychge">
<polygon fill="none" stroke="#000000" points="898.5,-1571.9656 898.5,-1591.9656 951.5,-1591.9656 951.5,-1571.9656 898.5,-1571.9656"/>
<text text-anchor="middle" x="925" y="-1578.9656" font-family="FreeSans" font-size="10.00" fill="#000000">pychge</text>
</a>
</g>
</g>
<!-- Node44&#45;&gt;Node45 -->
<g id="edge84" class="edge">
<title>Node44&#45;&gt;Node45</title>
<path fill="none" stroke="#191970" d="M785.2611,-1616.5676C810.1606,-1610.402 856.02,-1599.0464 888.4,-1591.0284"/>
<polygon fill="#191970" stroke="#191970" points="889.5302,-1594.3544 898.3957,-1588.5533 887.8476,-1587.5596 889.5302,-1594.3544"/>
</g>
<!-- Node46 -->
<g id="node46" class="node">
<title>Node46</title>
<g id="a_node46"><a xlink:href="../../d6/dcf/pythia6425mod_8f.html#aa8c99978a55999fa0b1fd2a946d8553a" target="_top" xlink:title="pyangl">
<polygon fill="none" stroke="#000000" points="900,-1688.9656 900,-1708.9656 950,-1708.9656 950,-1688.9656 900,-1688.9656"/>
<text text-anchor="middle" x="925" y="-1695.9656" font-family="FreeSans" font-size="10.00" fill="#000000">pyangl</text>
</a>
</g>
</g>
<!-- Node44&#45;&gt;Node46 -->
<g id="edge85" class="edge">
<title>Node44&#45;&gt;Node46</title>
<path fill="none" stroke="#191970" d="M782.3572,-1631.0747C799.5558,-1642.486 828.9865,-1661.1292 856,-1673.9656 866.9479,-1679.1679 879.2877,-1683.9561 890.473,-1687.9195"/>
<polygon fill="#191970" stroke="#191970" points="889.3466,-1691.2333 899.9413,-1691.18 891.6258,-1684.6147 889.3466,-1691.2333"/>
</g>
<!-- Node47 -->
<g id="node47" class="node">
<title>Node47</title>
<g id="a_node47"><a xlink:href="../../d6/dcf/pythia6425mod_8f.html#ad69903a1054f4f77d45fd8fe4c687aa9" target="_top" xlink:title="pymass">
<polygon fill="none" stroke="#ff0000" points="897.5,-1610.9656 897.5,-1630.9656 952.5,-1630.9656 952.5,-1610.9656 897.5,-1610.9656"/>
<text text-anchor="middle" x="925" y="-1617.9656" font-family="FreeSans" font-size="10.00" fill="#000000">pymass</text>
</a>
</g>
</g>
<!-- Node44&#45;&gt;Node47 -->
<g id="edge87" class="edge">
<title>Node44&#45;&gt;Node47</title>
<path fill="none" stroke="#191970" d="M785.2611,-1620.9656C809.7637,-1620.9656 854.5633,-1620.9656 886.8414,-1620.9656"/>
<polygon fill="#191970" stroke="#191970" points="887.2605,-1624.4657 897.2605,-1620.9656 887.2605,-1617.4657 887.2605,-1624.4657"/>
</g>
<!-- Node46&#45;&gt;Node11 -->
<g id="edge86" class="edge">
<title>Node46&#45;&gt;Node11</title>
<path fill="none" stroke="#191970" d="M950.2656,-1692.9573C979.9723,-1685.8929 1029.1643,-1674.1948 1060.2887,-1666.7933"/>
<polygon fill="#191970" stroke="#191970" points="1061.1781,-1670.1795 1070.0971,-1664.4608 1059.5586,-1663.3694 1061.1781,-1670.1795"/>
</g>
<!-- Node48&#45;&gt;Node2 -->
<g id="edge92" class="edge">
<title>Node48&#45;&gt;Node2</title>
<path fill="none" stroke="#191970" d="M195.5584,-954.9002C198.5004,-905.2823 213.703,-687.1025 256,-636.9656 311.1942,-571.541 897.8487,-388.4901 1052.0456,-341.2198"/>
<polygon fill="#191970" stroke="#191970" points="1053.4403,-344.4532 1061.9779,-338.1795 1051.3914,-337.7598 1053.4403,-344.4532"/>
</g>
<!-- Node48&#45;&gt;Node3 -->
<g id="edge91" class="edge">
<title>Node48&#45;&gt;Node3</title>
<path fill="none" stroke="#191970" d="M196.7033,-954.8178C201.4292,-929.7897 217.021,-864.5663 256,-828.9656 300.4181,-788.3972 337.7873,-823.4772 384,-784.9656 409.0711,-764.0724 395.7738,-742.8329 420,-720.9656 426.679,-714.9369 435.0393,-710.1951 443.299,-706.5375"/>
<polygon fill="#191970" stroke="#191970" points="444.8512,-709.6866 452.8421,-702.7299 442.257,-703.185 444.8512,-709.6866"/>
</g>
<!-- Node48&#45;&gt;Node10 -->
<g id="edge99" class="edge">
<title>Node48&#45;&gt;Node10</title>
<path fill="none" stroke="#191970" d="M196.1485,-975.0059C203.3455,-1037.6053 242.369,-1372.2524 256,-1388.9656 304.9586,-1448.9944 343.6897,-1434.6566 420,-1447.9656 470.3511,-1456.7472 484.0328,-1451.799 535,-1447.9656 667.8774,-1437.9715 824.0833,-1409.0819 891.3794,-1395.7967"/>
<polygon fill="#191970" stroke="#191970" points="892.2743,-1399.1874 901.3994,-1393.8038 890.9087,-1392.3219 892.2743,-1399.1874"/>
</g>
<!-- Node48&#45;&gt;Node12 -->
<g id="edge97" class="edge">
<title>Node48&#45;&gt;Node12</title>
<path fill="none" stroke="#191970" d="M218.1037,-966.7299C254.7478,-968.6467 327.7965,-968.8379 384,-945.9656 408.6073,-935.9515 547.3785,-809.124 571,-796.9656 627.6267,-767.8187 810.6415,-722.839 888.9312,-704.3448"/>
<polygon fill="#191970" stroke="#191970" points="889.8894,-707.7149 898.8221,-702.0177 888.2863,-700.901 889.8894,-707.7149"/>
</g>
<!-- Node48&#45;&gt;Node13 -->
<g id="edge94" class="edge">
<title>Node48&#45;&gt;Node13</title>
<path fill="none" stroke="#191970" d="M218.1796,-971.299C302.7362,-994.0812 602.892,-1072.1426 856,-1102.9656 931.5163,-1112.1618 1021.5711,-1115.3991 1064.235,-1116.4717"/>
<polygon fill="#191970" stroke="#191970" points="1064.4144,-1119.9767 1074.4931,-1116.7101 1064.5771,-1112.9786 1064.4144,-1119.9767"/>
</g>
<!-- Node48&#45;&gt;Node21 -->
<g id="edge96" class="edge">
<title>Node48&#45;&gt;Node21</title>
<path fill="none" stroke="#191970" d="M205.751,-954.6476C217.9002,-943.0102 238.2918,-923.5448 256,-906.9656 271.0222,-892.9012 288.1713,-877.1056 300.9343,-865.3999"/>
<polygon fill="#191970" stroke="#191970" points="303.6122,-867.6934 308.6215,-858.3576 298.8837,-862.5319 303.6122,-867.6934"/>
</g>
<!-- Node48&#45;&gt;Node42 -->
<g id="edge93" class="edge">
<title>Node48&#45;&gt;Node42</title>
<path fill="none" stroke="#191970" d="M196.1388,-975.0827C201.0749,-1017.2133 221.921,-1178.1982 256,-1213.9656 264.1414,-1222.5103 275.932,-1227.2636 287.1806,-1229.8897"/>
<polygon fill="#191970" stroke="#191970" points="286.7684,-1233.3728 297.2384,-1231.7511 288.0423,-1226.4897 286.7684,-1233.3728"/>
</g>
<!-- Node48&#45;&gt;Node43 -->
<g id="edge98" class="edge">
<title>Node48&#45;&gt;Node43</title>
<path fill="none" stroke="#191970" d="M196.1333,-975.1227C204.1392,-1046.8011 251.9715,-1473.7563 256,-1478.9656 263.6194,-1488.8184 275.6702,-1494.7929 287.27,-1498.4136"/>
<polygon fill="#191970" stroke="#191970" points="286.6638,-1501.873 297.2249,-1501.0278 288.4418,-1495.1026 286.6638,-1501.873"/>
</g>
<!-- Node49 -->
<g id="node49" class="node">
<title>Node49</title>
<g id="a_node49"><a xlink:href="../../d1/d5e/classsHelix.html#a44ff83bf3956f25a18308cc3c7fc1873" target="_top" xlink:title="sHelix::w">
<polygon fill="none" stroke="#000000" points="289,-915.9656 289,-935.9656 351,-935.9656 351,-915.9656 289,-915.9656"/>
<text text-anchor="middle" x="320" y="-922.9656" font-family="FreeSans" font-size="10.00" fill="#000000">sHelix::w</text>
</a>
</g>
</g>
<!-- Node48&#45;&gt;Node49 -->
<g id="edge95" class="edge">
<title>Node48&#45;&gt;Node49</title>
<path fill="none" stroke="#191970" d="M218.2186,-957.7214C235.3289,-952.383 259.0447,-944.9836 279.2794,-938.6704"/>
<polygon fill="#191970" stroke="#191970" points="280.3853,-941.9918 288.889,-935.6722 278.3004,-935.3095 280.3853,-941.9918"/>
</g>
<!-- Node50&#45;&gt;Node3 -->
<g id="edge102" class="edge">
<title>Node50&#45;&gt;Node3</title>
<path fill="none" stroke="#191970" d="M343.5793,-661.954C369.9094,-668.641 412.7756,-679.5277 442.9032,-687.1791"/>
<polygon fill="#191970" stroke="#191970" points="442.4266,-690.6691 452.9805,-689.7384 444.1497,-683.8845 442.4266,-690.6691"/>
</g>
<!-- Node50&#45;&gt;Node12 -->
<g id="edge103" class="edge">
<title>Node50&#45;&gt;Node12</title>
<path fill="none" stroke="#191970" d="M343.5163,-655.8118C415.2258,-655.5873 637.365,-656.7028 820,-676.9656 843.0484,-679.5227 868.6622,-684.1221 888.8216,-688.155"/>
<polygon fill="#191970" stroke="#191970" points="888.3257,-691.6259 898.8239,-690.1985 889.7269,-684.7676 888.3257,-691.6259"/>
</g>
</g>
</svg>
