<?xml version="1.0" encoding="UTF-8" standalone="no"?>
<!DOCTYPE svg PUBLIC "-//W3C//DTD SVG 1.1//EN"
 "http://www.w3.org/Graphics/SVG/1.1/DTD/svg11.dtd">
<!-- Generated by graphviz version 2.40.1 (20161225.0304)
 -->
<!-- Title: Packet_cdevmadch Pages: 1 -->
<svg width="192pt" height="214pt"
 viewBox="0.00 0.00 191.50 214.00" xmlns="http://www.w3.org/2000/svg" xmlns:xlink="http://www.w3.org/1999/xlink">
<g id="graph0" class="graph" transform="scale(1 1) rotate(0) translate(4 210)">
<title>Packet_cdevmadch</title>
<!-- Node1 -->
<g id="node1" class="node">
<title>Node1</title>
<polygon fill="#bfbfbf" stroke="#000000" points="28,-.5 28,-20.5 140,-20.5 140,-.5 28,-.5"/>
<text text-anchor="middle" x="84" y="-7.5" font-family="FreeSans" font-size="10.00" fill="#000000">Packet_cdevmadch</text>
</g>
<!-- Node2 -->
<g id="node2" class="node">
<title>Node2</title>
<g id="a_node2"><a xlink:href="../../db/d8d/classPacket__w4.html" target="_top" xlink:title="Packet_w4">
<polygon fill="none" stroke="#000000" points="0,-69.5 0,-89.5 68,-89.5 68,-69.5 0,-69.5"/>
<text text-anchor="middle" x="34" y="-76.5" font-family="FreeSans" font-size="10.00" fill="#000000">Packet_w4</text>
</a>
</g>
</g>
<!-- Node2&#45;&gt;Node1 -->
<g id="edge1" class="edge">
<title>Node2&#45;&gt;Node1</title>
<path fill="none" stroke="#191970" d="M47.3265,-61.1095C56.701,-48.1726 68.8994,-31.3388 76.5921,-20.723"/>
<polygon fill="#191970" stroke="#191970" points="44.4113,-59.1676 41.3777,-69.3188 50.0796,-63.275 44.4113,-59.1676"/>
</g>
<!-- Node3 -->
<g id="node3" class="node">
<title>Node3</title>
<g id="a_node3"><a xlink:href="../../de/dce/classPacket__A.html" target="_top" xlink:title="Packet_A">
<polygon fill="none" stroke="#000000" points="3.5,-127.5 3.5,-147.5 64.5,-147.5 64.5,-127.5 3.5,-127.5"/>
<text text-anchor="middle" x="34" y="-134.5" font-family="FreeSans" font-size="10.00" fill="#000000">Packet_A</text>
</a>
</g>
</g>
<!-- Node3&#45;&gt;Node2 -->
<g id="edge2" class="edge">
<title>Node3&#45;&gt;Node2</title>
<path fill="none" stroke="#191970" d="M34,-117.3902C34,-108.1201 34,-97.5083 34,-89.8776"/>
<polygon fill="#191970" stroke="#191970" points="30.5001,-117.3971 34,-127.3972 37.5001,-117.3972 30.5001,-117.3971"/>
</g>
<!-- Node4 -->
<g id="node4" class="node">
<title>Node4</title>
<g id="a_node4"><a xlink:href="../../d7/d97/classPacket.html" target="_top" xlink:title="Packet">
<polygon fill="none" stroke="#000000" points="9,-185.5 9,-205.5 59,-205.5 59,-185.5 9,-185.5"/>
<text text-anchor="middle" x="34" y="-192.5" font-family="FreeSans" font-size="10.00" fill="#000000">Packet</text>
</a>
</g>
</g>
<!-- Node4&#45;&gt;Node3 -->
<g id="edge3" class="edge">
<title>Node4&#45;&gt;Node3</title>
<path fill="none" stroke="#191970" d="M34,-175.3902C34,-166.1201 34,-155.5083 34,-147.8776"/>
<polygon fill="#191970" stroke="#191970" points="30.5001,-175.3971 34,-185.3972 37.5001,-175.3972 30.5001,-175.3971"/>
</g>
<!-- Node5 -->
<g id="node5" class="node">
<title>Node5</title>
<g id="a_node5"><a xlink:href="../../d1/d9f/structcdevMadchData.html" target="_top" xlink:title="cdevMadchData">
<polygon fill="none" stroke="#000000" points="86.5,-69.5 86.5,-89.5 183.5,-89.5 183.5,-69.5 86.5,-69.5"/>
<text text-anchor="middle" x="135" y="-76.5" font-family="FreeSans" font-size="10.00" fill="#000000">cdevMadchData</text>
</a>
</g>
</g>
<!-- Node5&#45;&gt;Node1 -->
<g id="edge4" class="edge">
<title>Node5&#45;&gt;Node1</title>
<path fill="none" stroke="#9a32cd" stroke-dasharray="5,2" d="M121.407,-61.1095C111.845,-48.1726 99.4026,-31.3388 91.5561,-20.723"/>
<polygon fill="#9a32cd" stroke="#9a32cd" points="118.7162,-63.3574 127.4748,-69.3188 124.3454,-59.1966 118.7162,-63.3574"/>
<text text-anchor="middle" x="120" y="-42" font-family="FreeSans" font-size="10.00" fill="#000000"> ps</text>
</g>
</g>
</svg>
