<?xml version="1.0" encoding="UTF-8" standalone="no"?>
<!DOCTYPE svg PUBLIC "-//W3C//DTD SVG 1.1//EN"
 "http://www.w3.org/Graphics/SVG/1.1/DTD/svg11.dtd">
<!-- Generated by graphviz version 2.40.1 (20161225.0304)
 -->
<!-- Title: G__cpp_setup_funcExclusiveReco_Dict Pages: 1 -->
<svg width="330pt" height="1160pt"
 viewBox="0.00 0.00 330.00 1160.00" xmlns="http://www.w3.org/2000/svg" xmlns:xlink="http://www.w3.org/1999/xlink">
<g id="graph0" class="graph" transform="scale(1 1) rotate(0) translate(4 1156)">
<title>G__cpp_setup_funcExclusiveReco_Dict</title>
<!-- Node1 -->
<g id="node1" class="node">
<title>Node1</title>
<polygon fill="#bfbfbf" stroke="#000000" points="0,-559.5 0,-591.5 160,-591.5 160,-559.5 0,-559.5"/>
<text text-anchor="start" x="8" y="-578.5" font-family="FreeSans" font-size="10.00" fill="#000000">G__cpp_setup_funcExclusive</text>
<text text-anchor="middle" x="80" y="-566.5" font-family="FreeSans" font-size="10.00" fill="#000000">Reco_Dict</text>
</g>
<!-- Node2 -->
<g id="node2" class="node">
<title>Node2</title>
<g id="a_node2"><a xlink:href="../../de/d35/ExclusiveReco__Dict_8C.html#acd8dc14265708ae9626f0da435d5357e" target="_top" xlink:title="G__cpp_setup_func0">
<polygon fill="none" stroke="#000000" points="199.5,-1131.5 199.5,-1151.5 318.5,-1151.5 318.5,-1131.5 199.5,-1131.5"/>
<text text-anchor="middle" x="259" y="-1138.5" font-family="FreeSans" font-size="10.00" fill="#000000">G__cpp_setup_func0</text>
</a>
</g>
</g>
<!-- Node1&#45;&gt;Node2 -->
<g id="edge1" class="edge">
<title>Node1&#45;&gt;Node2</title>
<path fill="none" stroke="#191970" d="M81.2357,-591.5749C87.8234,-673.224 121.3447,-1041.2994 196,-1122.5 197.039,-1123.6301 198.1425,-1124.6939 199.3008,-1125.6952"/>
<polygon fill="#191970" stroke="#191970" points="197.4191,-1128.649 207.6402,-1131.4384 201.3895,-1122.8839 197.4191,-1128.649"/>
</g>
<!-- Node3 -->
<g id="node3" class="node">
<title>Node3</title>
<g id="a_node3"><a xlink:href="../../de/d35/ExclusiveReco__Dict_8C.html#a55506bfb2d52e04c9189ceb999dd039e" target="_top" xlink:title="G__cpp_setup_func1">
<polygon fill="none" stroke="#000000" points="199.5,-1092.5 199.5,-1112.5 318.5,-1112.5 318.5,-1092.5 199.5,-1092.5"/>
<text text-anchor="middle" x="259" y="-1099.5" font-family="FreeSans" font-size="10.00" fill="#000000">G__cpp_setup_func1</text>
</a>
</g>
</g>
<!-- Node1&#45;&gt;Node3 -->
<g id="edge2" class="edge">
<title>Node1&#45;&gt;Node3</title>
<path fill="none" stroke="#191970" d="M81.5313,-591.7158C89.2423,-670.0751 126.2305,-1008.7862 196,-1083.5 197.0477,-1084.622 198.159,-1085.6785 199.3244,-1086.6734"/>
<polygon fill="#191970" stroke="#191970" points="197.4647,-1089.6415 207.6983,-1092.3846 201.4089,-1083.8585 197.4647,-1089.6415"/>
</g>
<!-- Node4 -->
<g id="node4" class="node">
<title>Node4</title>
<g id="a_node4"><a xlink:href="../../de/d35/ExclusiveReco__Dict_8C.html#a837b3e928045f5a454d7a6784f77475e" target="_top" xlink:title="G__cpp_setup_func10">
<polygon fill="none" stroke="#000000" points="196,-1053.5 196,-1073.5 322,-1073.5 322,-1053.5 196,-1053.5"/>
<text text-anchor="middle" x="259" y="-1060.5" font-family="FreeSans" font-size="10.00" fill="#000000">G__cpp_setup_func10</text>
</a>
</g>
</g>
<!-- Node1&#45;&gt;Node4 -->
<g id="edge3" class="edge">
<title>Node1&#45;&gt;Node4</title>
<path fill="none" stroke="#191970" d="M81.8899,-591.956C90.8251,-667.0252 131.1246,-976.2666 196,-1044.5 197.0824,-1045.6384 198.2302,-1046.7093 199.4334,-1047.7167"/>
<polygon fill="#191970" stroke="#191970" points="197.8098,-1050.8412 208.0694,-1053.4856 201.6982,-1045.0205 197.8098,-1050.8412"/>
</g>
<!-- Node5 -->
<g id="node5" class="node">
<title>Node5</title>
<g id="a_node5"><a xlink:href="../../de/d35/ExclusiveReco__Dict_8C.html#a4a97a632052cff485489e85edb5c0ce0" target="_top" xlink:title="G__cpp_setup_func11">
<polygon fill="none" stroke="#000000" points="196,-1014.5 196,-1034.5 322,-1034.5 322,-1014.5 196,-1014.5"/>
<text text-anchor="middle" x="259" y="-1021.5" font-family="FreeSans" font-size="10.00" fill="#000000">G__cpp_setup_func11</text>
</a>
</g>
</g>
<!-- Node1&#45;&gt;Node5 -->
<g id="edge4" class="edge">
<title>Node1&#45;&gt;Node5</title>
<path fill="none" stroke="#191970" d="M82.2236,-591.5341C92.3,-662.0095 135.8065,-943.5092 196,-1005.5 197.0943,-1006.6269 198.2527,-1007.6877 199.4654,-1008.686"/>
<polygon fill="#191970" stroke="#191970" points="197.8724,-1011.828 208.1478,-1014.4103 201.7255,-1005.9838 197.8724,-1011.828"/>
</g>
<!-- Node6 -->
<g id="node6" class="node">
<title>Node6</title>
<g id="a_node6"><a xlink:href="../../de/d35/ExclusiveReco__Dict_8C.html#a30d586210b1954e685fba851cc940750" target="_top" xlink:title="G__cpp_setup_func12">
<polygon fill="none" stroke="#000000" points="196,-975.5 196,-995.5 322,-995.5 322,-975.5 196,-975.5"/>
<text text-anchor="middle" x="259" y="-982.5" font-family="FreeSans" font-size="10.00" fill="#000000">G__cpp_setup_func12</text>
</a>
</g>
</g>
<!-- Node1&#45;&gt;Node6 -->
<g id="edge5" class="edge">
<title>Node1&#45;&gt;Node6</title>
<path fill="none" stroke="#191970" d="M82.7381,-591.8617C94.2471,-658.8063 140.6753,-910.9252 196,-966.5 197.2468,-967.7524 198.5729,-968.9228 199.9642,-970.0166"/>
<polygon fill="#191970" stroke="#191970" points="198.2318,-973.0627 208.5472,-975.4799 201.9907,-967.1575 198.2318,-973.0627"/>
</g>
<!-- Node7 -->
<g id="node7" class="node">
<title>Node7</title>
<g id="a_node7"><a xlink:href="../../de/d35/ExclusiveReco__Dict_8C.html#a4d6b6b95726bb9da95a06c17f54820f9" target="_top" xlink:title="G__cpp_setup_func13">
<polygon fill="none" stroke="#000000" points="196,-936.5 196,-956.5 322,-956.5 322,-936.5 196,-936.5"/>
<text text-anchor="middle" x="259" y="-943.5" font-family="FreeSans" font-size="10.00" fill="#000000">G__cpp_setup_func13</text>
</a>
</g>
</g>
<!-- Node1&#45;&gt;Node7 -->
<g id="edge6" class="edge">
<title>Node1&#45;&gt;Node7</title>
<path fill="none" stroke="#191970" d="M83.3182,-591.9201C96.3011,-654.6625 145.4352,-878.2047 196,-927.5 197.2654,-928.7336 198.6078,-929.8875 200.0134,-930.9668"/>
<polygon fill="#191970" stroke="#191970" points="198.3224,-934.0372 208.6575,-936.3685 202.032,-928.1009 198.3224,-934.0372"/>
</g>
<!-- Node8 -->
<g id="node8" class="node">
<title>Node8</title>
<g id="a_node8"><a xlink:href="../../de/d35/ExclusiveReco__Dict_8C.html#a961e8833699febc830c84cf993c97edf" target="_top" xlink:title="G__cpp_setup_func14">
<polygon fill="none" stroke="#000000" points="196,-897.5 196,-917.5 322,-917.5 322,-897.5 196,-897.5"/>
<text text-anchor="middle" x="259" y="-904.5" font-family="FreeSans" font-size="10.00" fill="#000000">G__cpp_setup_func14</text>
</a>
</g>
</g>
<!-- Node1&#45;&gt;Node8 -->
<g id="edge7" class="edge">
<title>Node1&#45;&gt;Node8</title>
<path fill="none" stroke="#191970" d="M81.0751,-591.5095C85.3831,-642.6645 105.8416,-803.7652 196,-888.5 197.3163,-889.7371 198.7104,-890.8939 200.1676,-891.9756"/>
<polygon fill="#191970" stroke="#191970" points="198.7347,-895.1996 209.1017,-897.3852 202.3604,-889.2117 198.7347,-895.1996"/>
</g>
<!-- Node9 -->
<g id="node9" class="node">
<title>Node9</title>
<g id="a_node9"><a xlink:href="../../de/d35/ExclusiveReco__Dict_8C.html#af58bd9b3d831b4473365f2d6c0612077" target="_top" xlink:title="G__cpp_setup_func15">
<polygon fill="none" stroke="#000000" points="196,-858.5 196,-878.5 322,-878.5 322,-858.5 196,-858.5"/>
<text text-anchor="middle" x="259" y="-865.5" font-family="FreeSans" font-size="10.00" fill="#000000">G__cpp_setup_func15</text>
</a>
</g>
</g>
<!-- Node1&#45;&gt;Node9 -->
<g id="edge8" class="edge">
<title>Node1&#45;&gt;Node9</title>
<path fill="none" stroke="#191970" d="M82.0227,-591.5054C88.8086,-638.42 115.0887,-776.8554 196,-849.5 197.4982,-850.8452 199.0888,-852.0952 200.7519,-853.2567"/>
<polygon fill="#191970" stroke="#191970" points="199.1702,-856.3851 209.5796,-858.3587 202.673,-850.3245 199.1702,-856.3851"/>
</g>
<!-- Node10 -->
<g id="node10" class="node">
<title>Node10</title>
<g id="a_node10"><a xlink:href="../../de/d35/ExclusiveReco__Dict_8C.html#af9d6ef25ba84cf288ddfa77fa5d00bff" target="_top" xlink:title="G__cpp_setup_func16">
<polygon fill="none" stroke="#000000" points="196,-819.5 196,-839.5 322,-839.5 322,-819.5 196,-819.5"/>
<text text-anchor="middle" x="259" y="-826.5" font-family="FreeSans" font-size="10.00" fill="#000000">G__cpp_setup_func16</text>
</a>
</g>
</g>
<!-- Node1&#45;&gt;Node10 -->
<g id="edge9" class="edge">
<title>Node1&#45;&gt;Node10</title>
<path fill="none" stroke="#191970" d="M83.2913,-591.6509C92.7935,-634.114 124.2969,-749.7872 196,-810.5 197.7355,-811.9695 199.5821,-813.3254 201.5119,-814.5764"/>
<polygon fill="#191970" stroke="#191970" points="199.9626,-817.7178 210.4203,-819.417 203.3047,-811.5672 199.9626,-817.7178"/>
</g>
<!-- Node11 -->
<g id="node11" class="node">
<title>Node11</title>
<g id="a_node11"><a xlink:href="../../de/d35/ExclusiveReco__Dict_8C.html#a23ec5d242a58e8231019c5e6bf8a7f52" target="_top" xlink:title="G__cpp_setup_func17">
<polygon fill="none" stroke="#000000" points="196,-780.5 196,-800.5 322,-800.5 322,-780.5 196,-780.5"/>
<text text-anchor="middle" x="259" y="-787.5" font-family="FreeSans" font-size="10.00" fill="#000000">G__cpp_setup_func17</text>
</a>
</g>
</g>
<!-- Node1&#45;&gt;Node11 -->
<g id="edge10" class="edge">
<title>Node1&#45;&gt;Node11</title>
<path fill="none" stroke="#191970" d="M85.0066,-591.6855C97.4308,-629.1461 133.286,-722.3577 196,-771.5 198.0064,-773.0722 200.1416,-774.5147 202.368,-775.8381"/>
<polygon fill="#191970" stroke="#191970" points="200.8246,-778.9797 211.3272,-780.3749 203.9871,-772.7347 200.8246,-778.9797"/>
</g>
<!-- Node12 -->
<g id="node12" class="node">
<title>Node12</title>
<g id="a_node12"><a xlink:href="../../de/d35/ExclusiveReco__Dict_8C.html#a12d8ba1c4e69b3eda2c7d9dc4cc7c0c1" target="_top" xlink:title="G__cpp_setup_func18">
<polygon fill="none" stroke="#000000" points="196,-741.5 196,-761.5 322,-761.5 322,-741.5 196,-741.5"/>
<text text-anchor="middle" x="259" y="-748.5" font-family="FreeSans" font-size="10.00" fill="#000000">G__cpp_setup_func18</text>
</a>
</g>
</g>
<!-- Node1&#45;&gt;Node12 -->
<g id="edge11" class="edge">
<title>Node1&#45;&gt;Node12</title>
<path fill="none" stroke="#191970" d="M87.4174,-591.5118C102.948,-623.2694 141.9736,-694.4424 196,-732.5 198.4078,-734.1961 200.9697,-735.7434 203.63,-737.1544"/>
<polygon fill="#191970" stroke="#191970" points="202.4261,-740.4529 212.9743,-741.4462 205.3477,-734.0918 202.4261,-740.4529"/>
</g>
<!-- Node13 -->
<g id="node13" class="node">
<title>Node13</title>
<g id="a_node13"><a xlink:href="../../de/d35/ExclusiveReco__Dict_8C.html#a8501831336b58bab24ddf90b8428d464" target="_top" xlink:title="G__cpp_setup_func19">
<polygon fill="none" stroke="#000000" points="196,-702.5 196,-722.5 322,-722.5 322,-702.5 196,-702.5"/>
<text text-anchor="middle" x="259" y="-709.5" font-family="FreeSans" font-size="10.00" fill="#000000">G__cpp_setup_func19</text>
</a>
</g>
</g>
<!-- Node1&#45;&gt;Node13 -->
<g id="edge12" class="edge">
<title>Node1&#45;&gt;Node13</title>
<path fill="none" stroke="#191970" d="M91.6295,-591.7657C110.6248,-617.167 150.7565,-666.1684 196,-693.5 199.1688,-695.4143 202.5449,-697.1484 206.0249,-698.7172"/>
<polygon fill="#191970" stroke="#191970" points="204.8253,-702.0072 215.409,-702.4944 207.4391,-695.5135 204.8253,-702.0072"/>
</g>
<!-- Node14 -->
<g id="node14" class="node">
<title>Node14</title>
<g id="a_node14"><a xlink:href="../../de/d35/ExclusiveReco__Dict_8C.html#a0659c773909c400506b1fd5372dc591a" target="_top" xlink:title="G__cpp_setup_func2">
<polygon fill="none" stroke="#000000" points="199.5,-663.5 199.5,-683.5 318.5,-683.5 318.5,-663.5 199.5,-663.5"/>
<text text-anchor="middle" x="259" y="-670.5" font-family="FreeSans" font-size="10.00" fill="#000000">G__cpp_setup_func2</text>
</a>
</g>
</g>
<!-- Node1&#45;&gt;Node14 -->
<g id="edge13" class="edge">
<title>Node1&#45;&gt;Node14</title>
<path fill="none" stroke="#191970" d="M99.7988,-591.7844C122.0177,-609.3682 159.719,-637.1797 196,-654.5 200.2849,-656.5456 204.8391,-658.4278 209.4621,-660.1457"/>
<polygon fill="#191970" stroke="#191970" points="208.3893,-663.478 218.9841,-663.441 210.6786,-656.8629 208.3893,-663.478"/>
</g>
<!-- Node15 -->
<g id="node15" class="node">
<title>Node15</title>
<g id="a_node15"><a xlink:href="../../de/d35/ExclusiveReco__Dict_8C.html#a8fd7e5e777f80693d243bca9fb5f44e1" target="_top" xlink:title="G__cpp_setup_func20">
<polygon fill="none" stroke="#000000" points="196,-624.5 196,-644.5 322,-644.5 322,-624.5 196,-624.5"/>
<text text-anchor="middle" x="259" y="-631.5" font-family="FreeSans" font-size="10.00" fill="#000000">G__cpp_setup_func20</text>
</a>
</g>
</g>
<!-- Node1&#45;&gt;Node15 -->
<g id="edge14" class="edge">
<title>Node1&#45;&gt;Node15</title>
<path fill="none" stroke="#191970" d="M125.3123,-591.5852C146.6881,-599.055 172.5871,-607.936 196,-615.5 202.1352,-617.4821 208.6273,-619.5137 215.0206,-621.4767"/>
<polygon fill="#191970" stroke="#191970" points="214.3348,-624.9263 224.9205,-624.4878 216.3718,-618.2292 214.3348,-624.9263"/>
</g>
<!-- Node16 -->
<g id="node16" class="node">
<title>Node16</title>
<g id="a_node16"><a xlink:href="../../de/d35/ExclusiveReco__Dict_8C.html#a445ddcef38d8e04ddbce4418ca2bd46e" target="_top" xlink:title="G__cpp_setup_func21">
<polygon fill="none" stroke="#000000" points="196,-585.5 196,-605.5 322,-605.5 322,-585.5 196,-585.5"/>
<text text-anchor="middle" x="259" y="-592.5" font-family="FreeSans" font-size="10.00" fill="#000000">G__cpp_setup_func21</text>
</a>
</g>
</g>
<!-- Node1&#45;&gt;Node16 -->
<g id="edge15" class="edge">
<title>Node1&#45;&gt;Node16</title>
<path fill="none" stroke="#191970" d="M160.0761,-584.4471C168.613,-585.4009 177.2656,-586.3677 185.7185,-587.3121"/>
<polygon fill="#191970" stroke="#191970" points="185.5822,-590.8186 195.909,-588.4507 186.3595,-583.8619 185.5822,-590.8186"/>
</g>
<!-- Node17 -->
<g id="node17" class="node">
<title>Node17</title>
<g id="a_node17"><a xlink:href="../../de/d35/ExclusiveReco__Dict_8C.html#abdd37c3ec1acb22804bf0a05c332da7a" target="_top" xlink:title="G__cpp_setup_func22">
<polygon fill="none" stroke="#000000" points="196,-546.5 196,-566.5 322,-566.5 322,-546.5 196,-546.5"/>
<text text-anchor="middle" x="259" y="-553.5" font-family="FreeSans" font-size="10.00" fill="#000000">G__cpp_setup_func22</text>
</a>
</g>
</g>
<!-- Node1&#45;&gt;Node17 -->
<g id="edge16" class="edge">
<title>Node1&#45;&gt;Node17</title>
<path fill="none" stroke="#191970" d="M160.0761,-567.0003C168.613,-566.0941 177.2656,-565.1757 185.7185,-564.2785"/>
<polygon fill="#191970" stroke="#191970" points="186.3343,-567.7329 195.909,-563.1968 185.5954,-560.772 186.3343,-567.7329"/>
</g>
<!-- Node18 -->
<g id="node18" class="node">
<title>Node18</title>
<g id="a_node18"><a xlink:href="../../de/d35/ExclusiveReco__Dict_8C.html#a3990d118dae4d66fca7a5c12b79b1314" target="_top" xlink:title="G__cpp_setup_func23">
<polygon fill="none" stroke="#000000" points="196,-507.5 196,-527.5 322,-527.5 322,-507.5 196,-507.5"/>
<text text-anchor="middle" x="259" y="-514.5" font-family="FreeSans" font-size="10.00" fill="#000000">G__cpp_setup_func23</text>
</a>
</g>
</g>
<!-- Node1&#45;&gt;Node18 -->
<g id="edge17" class="edge">
<title>Node1&#45;&gt;Node18</title>
<path fill="none" stroke="#191970" d="M128.789,-559.4074C149.5001,-552.6046 173.915,-544.6228 196,-537.5 202.9829,-535.2479 210.4076,-532.8732 217.6178,-530.5776"/>
<polygon fill="#191970" stroke="#191970" points="218.7848,-533.8793 227.2553,-527.5152 216.6649,-527.208 218.7848,-533.8793"/>
</g>
<!-- Node19 -->
<g id="node19" class="node">
<title>Node19</title>
<g id="a_node19"><a xlink:href="../../de/d35/ExclusiveReco__Dict_8C.html#a1cde6da1be4f8a6fcafb99143cb16fce" target="_top" xlink:title="G__cpp_setup_func24">
<polygon fill="none" stroke="#000000" points="196,-468.5 196,-488.5 322,-488.5 322,-468.5 196,-468.5"/>
<text text-anchor="middle" x="259" y="-475.5" font-family="FreeSans" font-size="10.00" fill="#000000">G__cpp_setup_func24</text>
</a>
</g>
</g>
<!-- Node1&#45;&gt;Node19 -->
<g id="edge18" class="edge">
<title>Node1&#45;&gt;Node19</title>
<path fill="none" stroke="#191970" d="M100.3242,-559.4491C122.6968,-542.4095 160.2479,-515.6251 196,-498.5 200.9807,-496.1143 206.3151,-493.9188 211.6943,-491.9262"/>
<polygon fill="#191970" stroke="#191970" points="213.0652,-495.155 221.3584,-488.5616 210.7636,-488.5442 213.0652,-495.155"/>
</g>
<!-- Node20 -->
<g id="node20" class="node">
<title>Node20</title>
<g id="a_node20"><a xlink:href="../../de/d35/ExclusiveReco__Dict_8C.html#a03647e0fcae4e7dfc0a4ace0415b8795" target="_top" xlink:title="G__cpp_setup_func25">
<polygon fill="none" stroke="#000000" points="196,-429.5 196,-449.5 322,-449.5 322,-429.5 196,-429.5"/>
<text text-anchor="middle" x="259" y="-436.5" font-family="FreeSans" font-size="10.00" fill="#000000">G__cpp_setup_func25</text>
</a>
</g>
</g>
<!-- Node1&#45;&gt;Node20 -->
<g id="edge19" class="edge">
<title>Node1&#45;&gt;Node20</title>
<path fill="none" stroke="#191970" d="M92.0548,-559.1886C111.3272,-534.2214 151.4689,-486.582 196,-459.5 199.7978,-457.1904 203.8886,-455.1218 208.0968,-453.2742"/>
<polygon fill="#191970" stroke="#191970" points="209.4225,-456.5137 217.4287,-449.5746 206.8427,-450.0064 209.4225,-456.5137"/>
</g>
<!-- Node21 -->
<g id="node21" class="node">
<title>Node21</title>
<g id="a_node21"><a xlink:href="../../de/d35/ExclusiveReco__Dict_8C.html#a713f52fbc0849978d02c36802e88df04" target="_top" xlink:title="G__cpp_setup_func26">
<polygon fill="none" stroke="#000000" points="196,-390.5 196,-410.5 322,-410.5 322,-390.5 196,-390.5"/>
<text text-anchor="middle" x="259" y="-397.5" font-family="FreeSans" font-size="10.00" fill="#000000">G__cpp_setup_func26</text>
</a>
</g>
</g>
<!-- Node1&#45;&gt;Node21 -->
<g id="edge20" class="edge">
<title>Node1&#45;&gt;Node21</title>
<path fill="none" stroke="#191970" d="M87.7636,-559.276C103.6389,-527.8098 142.8497,-458.2732 196,-420.5 199.0312,-418.3457 202.3045,-416.4164 205.7101,-414.6896"/>
<polygon fill="#191970" stroke="#191970" points="207.2437,-417.8381 214.9582,-410.5761 204.3988,-411.4422 207.2437,-417.8381"/>
</g>
<!-- Node22 -->
<g id="node22" class="node">
<title>Node22</title>
<g id="a_node22"><a xlink:href="../../de/d35/ExclusiveReco__Dict_8C.html#adfbdf508f50f4e7bc2a27ecfab66e559" target="_top" xlink:title="G__cpp_setup_func27">
<polygon fill="none" stroke="#000000" points="196,-351.5 196,-371.5 322,-371.5 322,-351.5 196,-351.5"/>
<text text-anchor="middle" x="259" y="-358.5" font-family="FreeSans" font-size="10.00" fill="#000000">G__cpp_setup_func27</text>
</a>
</g>
</g>
<!-- Node1&#45;&gt;Node22 -->
<g id="edge21" class="edge">
<title>Node1&#45;&gt;Node22</title>
<path fill="none" stroke="#191970" d="M85.1987,-559.2634C97.9164,-522.1326 134.1572,-430.4596 196,-381.5 198.5642,-379.47 201.3383,-377.6441 204.2437,-376.002"/>
<polygon fill="#191970" stroke="#191970" points="205.8152,-379.1297 213.2757,-371.607 202.7523,-372.8354 205.8152,-379.1297"/>
</g>
<!-- Node23 -->
<g id="node23" class="node">
<title>Node23</title>
<g id="a_node23"><a xlink:href="../../de/d35/ExclusiveReco__Dict_8C.html#a7c37204a2a1753e56be14df2a87dd78d" target="_top" xlink:title="G__cpp_setup_func28">
<polygon fill="none" stroke="#000000" points="196,-312.5 196,-332.5 322,-332.5 322,-312.5 196,-312.5"/>
<text text-anchor="middle" x="259" y="-319.5" font-family="FreeSans" font-size="10.00" fill="#000000">G__cpp_setup_func28</text>
</a>
</g>
</g>
<!-- Node1&#45;&gt;Node23 -->
<g id="edge22" class="edge">
<title>Node1&#45;&gt;Node23</title>
<path fill="none" stroke="#191970" d="M83.455,-559.236C93.268,-517.0228 125.2941,-403.0445 196,-342.5 198.2472,-340.5757 200.6808,-338.8362 203.2403,-337.2637"/>
<polygon fill="#191970" stroke="#191970" points="205.0807,-340.2518 212.3405,-332.5352 201.8531,-334.0403 205.0807,-340.2518"/>
</g>
<!-- Node24 -->
<g id="node24" class="node">
<title>Node24</title>
<g id="a_node24"><a xlink:href="../../de/d35/ExclusiveReco__Dict_8C.html#ae09273bb716601950278e7e1c50df4a2" target="_top" xlink:title="G__cpp_setup_func29">
<polygon fill="none" stroke="#000000" points="196,-273.5 196,-293.5 322,-293.5 322,-273.5 196,-273.5"/>
<text text-anchor="middle" x="259" y="-280.5" font-family="FreeSans" font-size="10.00" fill="#000000">G__cpp_setup_func29</text>
</a>
</g>
</g>
<!-- Node1&#45;&gt;Node24 -->
<g id="edge23" class="edge">
<title>Node1&#45;&gt;Node24</title>
<path fill="none" stroke="#191970" d="M82.1613,-559.3318C89.267,-512.5861 116.2084,-375.9976 196,-303.5 197.9694,-301.7107 200.0988,-300.0814 202.3433,-298.5978"/>
<polygon fill="#191970" stroke="#191970" points="204.404,-301.4586 211.4743,-293.568 201.0265,-295.3273 204.404,-301.4586"/>
</g>
<!-- Node25 -->
<g id="node25" class="node">
<title>Node25</title>
<g id="a_node25"><a xlink:href="../../de/d35/ExclusiveReco__Dict_8C.html#ae9545c079820f071abeafd3524511c1c" target="_top" xlink:title="G__cpp_setup_func3">
<polygon fill="none" stroke="#000000" points="199.5,-234.5 199.5,-254.5 318.5,-254.5 318.5,-234.5 199.5,-234.5"/>
<text text-anchor="middle" x="259" y="-241.5" font-family="FreeSans" font-size="10.00" fill="#000000">G__cpp_setup_func3</text>
</a>
</g>
</g>
<!-- Node1&#45;&gt;Node25 -->
<g id="edge24" class="edge">
<title>Node1&#45;&gt;Node25</title>
<path fill="none" stroke="#191970" d="M81.1927,-559.2862C85.8246,-508.2229 107.0804,-349.1142 196,-264.5 197.8912,-262.7003 199.9439,-261.0626 202.1143,-259.5722"/>
<polygon fill="#191970" stroke="#191970" points="204.0206,-262.5143 210.9772,-254.5233 200.5557,-256.432 204.0206,-262.5143"/>
</g>
<!-- Node26 -->
<g id="node26" class="node">
<title>Node26</title>
<g id="a_node26"><a xlink:href="../../de/d35/ExclusiveReco__Dict_8C.html#a1024008fabff2324d6dc6514ff2bcb84" target="_top" xlink:title="G__cpp_setup_func4">
<polygon fill="none" stroke="#000000" points="199.5,-195.5 199.5,-215.5 318.5,-215.5 318.5,-195.5 199.5,-195.5"/>
<text text-anchor="middle" x="259" y="-202.5" font-family="FreeSans" font-size="10.00" fill="#000000">G__cpp_setup_func4</text>
</a>
</g>
</g>
<!-- Node1&#45;&gt;Node26 -->
<g id="edge25" class="edge">
<title>Node1&#45;&gt;Node26</title>
<path fill="none" stroke="#191970" d="M83.3532,-559.1944C96.4647,-496.8866 146.0088,-274.8633 196,-225.5 197.6918,-223.8295 199.5224,-222.2983 201.4582,-220.895"/>
<polygon fill="#191970" stroke="#191970" points="203.6995,-223.6351 210.5161,-215.5243 200.1293,-217.614 203.6995,-223.6351"/>
</g>
<!-- Node27 -->
<g id="node27" class="node">
<title>Node27</title>
<g id="a_node27"><a xlink:href="../../de/d35/ExclusiveReco__Dict_8C.html#a3ca5736d575743fba84fd5bf1b66400f" target="_top" xlink:title="G__cpp_setup_func5">
<polygon fill="none" stroke="#000000" points="199.5,-156.5 199.5,-176.5 318.5,-176.5 318.5,-156.5 199.5,-156.5"/>
<text text-anchor="middle" x="259" y="-163.5" font-family="FreeSans" font-size="10.00" fill="#000000">G__cpp_setup_func5</text>
</a>
</g>
</g>
<!-- Node1&#45;&gt;Node27 -->
<g id="edge26" class="edge">
<title>Node1&#45;&gt;Node27</title>
<path fill="none" stroke="#191970" d="M82.772,-559.2428C94.415,-492.7228 141.2983,-242.1726 196,-186.5 197.6337,-184.8373 199.4047,-183.3126 201.2811,-181.9144"/>
<polygon fill="#191970" stroke="#191970" points="203.3592,-184.747 210.0827,-176.5589 199.7205,-178.767 203.3592,-184.747"/>
</g>
<!-- Node28 -->
<g id="node28" class="node">
<title>Node28</title>
<g id="a_node28"><a xlink:href="../../de/d35/ExclusiveReco__Dict_8C.html#a010c7a103ae40fa1d0194e1c2d3b5fb2" target="_top" xlink:title="G__cpp_setup_func6">
<polygon fill="none" stroke="#000000" points="199.5,-117.5 199.5,-137.5 318.5,-137.5 318.5,-117.5 199.5,-117.5"/>
<text text-anchor="middle" x="259" y="-124.5" font-family="FreeSans" font-size="10.00" fill="#000000">G__cpp_setup_func6</text>
</a>
</g>
</g>
<!-- Node1&#45;&gt;Node28 -->
<g id="edge27" class="edge">
<title>Node1&#45;&gt;Node28</title>
<path fill="none" stroke="#191970" d="M82.3252,-559.0873C92.6679,-488.2476 136.6126,-209.4806 196,-147.5 197.5804,-145.8506 199.2959,-144.3368 201.116,-142.9474"/>
<polygon fill="#191970" stroke="#191970" points="203.0336,-145.8765 209.6712,-137.6186 199.3326,-139.9349 203.0336,-145.8765"/>
</g>
<!-- Node29 -->
<g id="node29" class="node">
<title>Node29</title>
<g id="a_node29"><a xlink:href="../../de/d35/ExclusiveReco__Dict_8C.html#a2e31829603825f81fee5b432cea0fd32" target="_top" xlink:title="G__cpp_setup_func7">
<polygon fill="none" stroke="#000000" points="199.5,-78.5 199.5,-98.5 318.5,-98.5 318.5,-78.5 199.5,-78.5"/>
<text text-anchor="middle" x="259" y="-85.5" font-family="FreeSans" font-size="10.00" fill="#000000">G__cpp_setup_func7</text>
</a>
</g>
</g>
<!-- Node1&#45;&gt;Node29 -->
<g id="edge28" class="edge">
<title>Node1&#45;&gt;Node29</title>
<path fill="none" stroke="#191970" d="M81.9227,-559.1347C91.0024,-484.476 131.845,-176.8934 196,-108.5 197.5628,-106.8339 199.2635,-105.3061 201.0712,-103.9049"/>
<polygon fill="#191970" stroke="#191970" points="202.9926,-106.8311 209.5863,-98.5382 199.2602,-100.9092 202.9926,-106.8311"/>
</g>
<!-- Node30 -->
<g id="node30" class="node">
<title>Node30</title>
<g id="a_node30"><a xlink:href="../../de/d35/ExclusiveReco__Dict_8C.html#af1812d1ec5cd2821f6b61b915d2d0a24" target="_top" xlink:title="G__cpp_setup_func8">
<polygon fill="none" stroke="#000000" points="199.5,-39.5 199.5,-59.5 318.5,-59.5 318.5,-39.5 199.5,-39.5"/>
<text text-anchor="middle" x="259" y="-46.5" font-family="FreeSans" font-size="10.00" fill="#000000">G__cpp_setup_func8</text>
</a>
</g>
</g>
<!-- Node1&#45;&gt;Node30 -->
<g id="edge29" class="edge">
<title>Node1&#45;&gt;Node30</title>
<path fill="none" stroke="#191970" d="M81.563,-559.3681C89.4227,-481.4112 127.0003,-144.4062 196,-69.5 197.3995,-67.9807 198.9136,-66.5763 200.5193,-65.2779"/>
<polygon fill="#191970" stroke="#191970" points="202.7289,-68.0161 209.2048,-59.6307 198.9132,-62.1474 202.7289,-68.0161"/>
</g>
<!-- Node31 -->
<g id="node31" class="node">
<title>Node31</title>
<g id="a_node31"><a xlink:href="../../de/d35/ExclusiveReco__Dict_8C.html#a5abed9ddc0169a11d86a8498ff066bda" target="_top" xlink:title="G__cpp_setup_func9">
<polygon fill="none" stroke="#000000" points="199.5,-.5 199.5,-20.5 318.5,-20.5 318.5,-.5 199.5,-.5"/>
<text text-anchor="middle" x="259" y="-7.5" font-family="FreeSans" font-size="10.00" fill="#000000">G__cpp_setup_func9</text>
</a>
</g>
</g>
<!-- Node1&#45;&gt;Node31 -->
<g id="edge30" class="edge">
<title>Node1&#45;&gt;Node31</title>
<path fill="none" stroke="#191970" d="M81.2891,-559.2344C88.0825,-477.4449 122.2448,-111.8362 196,-30.5 197.3875,-28.9699 198.8914,-27.556 200.4884,-26.2497"/>
<polygon fill="#191970" stroke="#191970" points="202.7001,-28.9847 209.1419,-20.5732 198.8606,-23.1317 202.7001,-28.9847"/>
</g>
</g>
</svg>
