<?xml version="1.0" encoding="UTF-8" standalone="no"?>
<!DOCTYPE svg PUBLIC "-//W3C//DTD SVG 1.1//EN"
 "http://www.w3.org/Graphics/SVG/1.1/DTD/svg11.dtd">
<!-- Generated by graphviz version 2.40.1 (20161225.0304)
 -->
<!-- Title: TpcDefs::getPad Pages: 1 -->
<svg width="478pt" height="296pt"
 viewBox="0.00 0.00 478.00 296.00" xmlns="http://www.w3.org/2000/svg" xmlns:xlink="http://www.w3.org/1999/xlink">
<g id="graph0" class="graph" transform="scale(1 1) rotate(0) translate(4 292)">
<title>TpcDefs::getPad</title>
<!-- Node1 -->
<g id="node1" class="node">
<title>Node1</title>
<polygon fill="#bfbfbf" stroke="#000000" points="0,-133.5 0,-153.5 99,-153.5 99,-133.5 0,-133.5"/>
<text text-anchor="middle" x="49.5" y="-140.5" font-family="FreeSans" font-size="10.00" fill="#000000">TpcDefs::getPad</text>
</g>
<!-- Node2 -->
<g id="node2" class="node">
<title>Node2</title>
<g id="a_node2"><a xlink:href="../../d1/dc5/classPHG4TpcDigitizer.html#a885fb5ebbc80c8a2ed915f762b90ad79" target="_top" xlink:title="PHG4TpcDigitizer::Digitize\lCylinderCells">
<polygon fill="none" stroke="#000000" points="135,-255.5 135,-287.5 284,-287.5 284,-255.5 135,-255.5"/>
<text text-anchor="start" x="143" y="-274.5" font-family="FreeSans" font-size="10.00" fill="#000000">PHG4TpcDigitizer::Digitize</text>
<text text-anchor="middle" x="209.5" y="-262.5" font-family="FreeSans" font-size="10.00" fill="#000000">CylinderCells</text>
</a>
</g>
</g>
<!-- Node1&#45;&gt;Node2 -->
<g id="edge1" class="edge">
<title>Node1&#45;&gt;Node2</title>
<path fill="none" stroke="#191970" d="M60.5509,-162.3926C74.9249,-185.3986 102.1243,-223.9667 135,-246.5 139.9514,-249.8938 145.4016,-252.8594 151.0328,-255.4439"/>
<polygon fill="#191970" stroke="#191970" points="63.3796,-160.3077 55.1967,-153.5779 57.3968,-163.9417 63.3796,-160.3077"/>
</g>
<!-- Node4 -->
<g id="node4" class="node">
<title>Node4</title>
<g id="a_node4"><a xlink:href="../../d6/d11/classSvtxEvaluator.html#ace95fef2b7b4ad8b797f6695e053dd6e" target="_top" xlink:title="dump the evaluator information into ntuple for external analysis">
<polygon fill="none" stroke="#000000" points="139,-204.5 139,-236.5 280,-236.5 280,-204.5 139,-204.5"/>
<text text-anchor="start" x="147" y="-223.5" font-family="FreeSans" font-size="10.00" fill="#000000">SvtxEvaluator::fillOutput</text>
<text text-anchor="middle" x="209.5" y="-211.5" font-family="FreeSans" font-size="10.00" fill="#000000">Ntuples</text>
</a>
</g>
</g>
<!-- Node1&#45;&gt;Node4 -->
<g id="edge3" class="edge">
<title>Node1&#45;&gt;Node4</title>
<path fill="none" stroke="#191970" d="M72.3448,-159.3242C89.136,-170.4684 112.8005,-185.1817 135,-195.5 141.9282,-198.7202 149.3902,-201.7278 156.8211,-204.4618"/>
<polygon fill="#191970" stroke="#191970" points="74.0253,-156.2361 63.7765,-153.5507 70.1137,-162.0413 74.0253,-156.2361"/>
</g>
<!-- Node6 -->
<g id="node6" class="node">
<title>Node6</title>
<g id="a_node6"><a xlink:href="../../d6/d03/classTpcPrototypeClusterizer.html#ad790455b460f30f668670fcd15cc36fb" target="_top" xlink:title="TpcPrototypeClusterizer\l::process_event">
<polygon fill="none" stroke="#000000" points="140,-153.5 140,-185.5 279,-185.5 279,-153.5 140,-153.5"/>
<text text-anchor="start" x="148" y="-172.5" font-family="FreeSans" font-size="10.00" fill="#000000">TpcPrototypeClusterizer</text>
<text text-anchor="middle" x="209.5" y="-160.5" font-family="FreeSans" font-size="10.00" fill="#000000">::process_event</text>
</a>
</g>
</g>
<!-- Node1&#45;&gt;Node6 -->
<g id="edge5" class="edge">
<title>Node1&#45;&gt;Node6</title>
<path fill="none" stroke="#191970" d="M109.3965,-153.2332C119.3149,-154.8449 129.6741,-156.5283 139.8089,-158.1752"/>
<polygon fill="#191970" stroke="#191970" points="109.6799,-149.7334 99.2479,-151.584 108.5571,-156.6428 109.6799,-149.7334"/>
</g>
<!-- Node7 -->
<g id="node7" class="node">
<title>Node7</title>
<g id="a_node7"><a xlink:href="../../de/d25/classTpcClusterizer.html#a8dd29d5451a29cd488440e096a9f53d1" target="_top" xlink:title="TpcClusterizer::process\l_event">
<polygon fill="none" stroke="#000000" points="142,-102.5 142,-134.5 277,-134.5 277,-102.5 142,-102.5"/>
<text text-anchor="start" x="150" y="-121.5" font-family="FreeSans" font-size="10.00" fill="#000000">TpcClusterizer::process</text>
<text text-anchor="middle" x="209.5" y="-109.5" font-family="FreeSans" font-size="10.00" fill="#000000">_event</text>
</a>
</g>
</g>
<!-- Node1&#45;&gt;Node7 -->
<g id="edge6" class="edge">
<title>Node1&#45;&gt;Node7</title>
<path fill="none" stroke="#191970" d="M109.2556,-134.1632C119.8847,-132.5024 131.0241,-130.7619 141.854,-129.0697"/>
<polygon fill="#191970" stroke="#191970" points="108.5877,-130.725 99.2479,-135.7269 109.6684,-137.6411 108.5877,-130.725"/>
</g>
<!-- Node8 -->
<g id="node8" class="node">
<title>Node8</title>
<g id="a_node8"><a xlink:href="../../d7/ddb/classPHG4TpcElectronDrift.html#a92dfae090d091df16bfde8d0318bfe8f" target="_top" xlink:title="PHG4TpcElectronDrift\l::process_event">
<polygon fill="none" stroke="#000000" points="146.5,-51.5 146.5,-83.5 272.5,-83.5 272.5,-51.5 146.5,-51.5"/>
<text text-anchor="start" x="154.5" y="-70.5" font-family="FreeSans" font-size="10.00" fill="#000000">PHG4TpcElectronDrift</text>
<text text-anchor="middle" x="209.5" y="-58.5" font-family="FreeSans" font-size="10.00" fill="#000000">::process_event</text>
</a>
</g>
</g>
<!-- Node1&#45;&gt;Node8 -->
<g id="edge7" class="edge">
<title>Node1&#45;&gt;Node8</title>
<path fill="none" stroke="#191970" d="M73.3811,-127.849C90.1668,-117.2728 113.3963,-103.4726 135,-93.5 142.7115,-89.9403 151.0575,-86.5798 159.2783,-83.5308"/>
<polygon fill="#191970" stroke="#191970" points="71.3142,-125.0161 64.7699,-133.3482 75.0817,-130.9158 71.3142,-125.0161"/>
</g>
<!-- Node9 -->
<g id="node9" class="node">
<title>Node9</title>
<g id="a_node9"><a xlink:href="../../d8/d7c/classTPCMLDataInterface.html#ad8e09026c6e113a6b0a3ad2c5a54eae6" target="_top" xlink:title="TPCMLDataInterface\l::process_event">
<polygon fill="none" stroke="#000000" points="150,-.5 150,-32.5 269,-32.5 269,-.5 150,-.5"/>
<text text-anchor="start" x="158" y="-19.5" font-family="FreeSans" font-size="10.00" fill="#000000">TPCMLDataInterface</text>
<text text-anchor="middle" x="209.5" y="-7.5" font-family="FreeSans" font-size="10.00" fill="#000000">::process_event</text>
</a>
</g>
</g>
<!-- Node1&#45;&gt;Node9 -->
<g id="edge8" class="edge">
<title>Node1&#45;&gt;Node9</title>
<path fill="none" stroke="#191970" d="M60.9056,-124.7001C75.4699,-102.1741 102.6928,-64.6998 135,-42.5 140.5323,-38.6985 146.6762,-35.3997 152.9949,-32.5504"/>
<polygon fill="#191970" stroke="#191970" points="57.8256,-123.0231 55.4609,-133.3507 63.7498,-126.7519 57.8256,-123.0231"/>
</g>
<!-- Node3 -->
<g id="node3" class="node">
<title>Node3</title>
<g id="a_node3"><a xlink:href="../../d1/dc5/classPHG4TpcDigitizer.html#a3a1281c04ddb169c704cc2c03a327e04" target="_top" xlink:title="event processing">
<polygon fill="none" stroke="#000000" points="320,-255.5 320,-287.5 470,-287.5 470,-255.5 320,-255.5"/>
<text text-anchor="start" x="328" y="-274.5" font-family="FreeSans" font-size="10.00" fill="#000000">PHG4TpcDigitizer::process</text>
<text text-anchor="middle" x="395" y="-262.5" font-family="FreeSans" font-size="10.00" fill="#000000">_event</text>
</a>
</g>
</g>
<!-- Node2&#45;&gt;Node3 -->
<g id="edge2" class="edge">
<title>Node2&#45;&gt;Node3</title>
<path fill="none" stroke="#191970" d="M294.165,-271.5C302.7495,-271.5 311.427,-271.5 319.9005,-271.5"/>
<polygon fill="#191970" stroke="#191970" points="294.1481,-268.0001 284.1481,-271.5 294.1481,-275.0001 294.1481,-268.0001"/>
</g>
<!-- Node5 -->
<g id="node5" class="node">
<title>Node5</title>
<g id="a_node5"><a xlink:href="../../d6/d11/classSvtxEvaluator.html#ac66ea4145deb621d9e4fb38cf852dc33" target="_top" xlink:title="SvtxEvaluator::process\l_event">
<polygon fill="none" stroke="#000000" points="329,-204.5 329,-236.5 461,-236.5 461,-204.5 329,-204.5"/>
<text text-anchor="start" x="337" y="-223.5" font-family="FreeSans" font-size="10.00" fill="#000000">SvtxEvaluator::process</text>
<text text-anchor="middle" x="395" y="-211.5" font-family="FreeSans" font-size="10.00" fill="#000000">_event</text>
</a>
</g>
</g>
<!-- Node4&#45;&gt;Node5 -->
<g id="edge4" class="edge">
<title>Node4&#45;&gt;Node5</title>
<path fill="none" stroke="#191970" d="M290.371,-220.5C303.2112,-220.5 316.3602,-220.5 328.8118,-220.5"/>
<polygon fill="#191970" stroke="#191970" points="290.1588,-217.0001 280.1588,-220.5 290.1587,-224.0001 290.1588,-217.0001"/>
</g>
</g>
</svg>
