<?xml version="1.0" encoding="UTF-8" standalone="no"?>
<!DOCTYPE svg PUBLIC "-//W3C//DTD SVG 1.1//EN"
 "http://www.w3.org/Graphics/SVG/1.1/DTD/svg11.dtd">
<!-- Generated by graphviz version 2.40.1 (20161225.0304)
 -->
<!-- Title: PHInitZVertexing::translate_input Pages: 1 -->
<svg width="995pt" height="649pt"
 viewBox="0.00 0.00 995.00 649.00" xmlns="http://www.w3.org/2000/svg" xmlns:xlink="http://www.w3.org/1999/xlink">
<g id="graph0" class="graph" transform="scale(1 1) rotate(0) translate(4 645)">
<title>PHInitZVertexing::translate_input</title>
<!-- Node1 -->
<g id="node1" class="node">
<title>Node1</title>
<polygon fill="#bfbfbf" stroke="#000000" points="0,-298.5 0,-330.5 153,-330.5 153,-298.5 0,-298.5"/>
<text text-anchor="start" x="8" y="-317.5" font-family="FreeSans" font-size="10.00" fill="#000000">PHInitZVertexing::translate</text>
<text text-anchor="middle" x="76.5" y="-305.5" font-family="FreeSans" font-size="10.00" fill="#000000">_input</text>
</g>
<!-- Node2 -->
<g id="node2" class="node">
<title>Node2</title>
<g id="a_node2"><a xlink:href="../../da/d87/classSimpleHit3D.html#a6fca396cd480492078c4e640b2410973" target="_top" xlink:title="SimpleHit3D::get_id">
<polygon fill="none" stroke="#000000" points="378.5,-541.5 378.5,-561.5 495.5,-561.5 495.5,-541.5 378.5,-541.5"/>
<text text-anchor="middle" x="437" y="-548.5" font-family="FreeSans" font-size="10.00" fill="#000000">SimpleHit3D::get_id</text>
</a>
</g>
</g>
<!-- Node1&#45;&gt;Node2 -->
<g id="edge1" class="edge">
<title>Node1&#45;&gt;Node2</title>
<path fill="none" stroke="#191970" d="M78.5429,-330.7804C85.082,-375.1281 109.9321,-498.1124 189,-548.5 250.916,-587.9572 340.3736,-576.1837 393.2164,-563.9203"/>
<polygon fill="#191970" stroke="#191970" points="394.0669,-567.3155 402.9599,-561.5567 392.4166,-560.5128 394.0669,-567.3155"/>
</g>
<!-- Node3 -->
<g id="node3" class="node">
<title>Node3</title>
<g id="a_node3"><a xlink:href="../../d0/d2c/classTrkrClusterContainer.html#a1d8049a1a46c600e4baf190a58745029" target="_top" xlink:title="return all Clusters matching a given detid">
<polygon fill="none" stroke="#000000" points="200.5,-597.5 200.5,-629.5 322.5,-629.5 322.5,-597.5 200.5,-597.5"/>
<text text-anchor="start" x="208.5" y="-616.5" font-family="FreeSans" font-size="10.00" fill="#000000">TrkrClusterContainer</text>
<text text-anchor="middle" x="261.5" y="-604.5" font-family="FreeSans" font-size="10.00" fill="#000000">::getClusters</text>
</a>
</g>
</g>
<!-- Node1&#45;&gt;Node3 -->
<g id="edge2" class="edge">
<title>Node1&#45;&gt;Node3</title>
<path fill="none" stroke="#191970" d="M78.9677,-330.7174C86.7248,-376.3998 114.6735,-507.6797 189,-582.5 192.645,-586.1692 196.7932,-589.4306 201.2167,-592.3246"/>
<polygon fill="#191970" stroke="#191970" points="199.6011,-595.4341 210.0028,-597.4478 203.1272,-589.387 199.6011,-595.4341"/>
</g>
<!-- Node8 -->
<g id="node8" class="node">
<title>Node8</title>
<g id="a_node8"><a xlink:href="../../d6/dfa/classTrkrCluster.html#a464d9b621b9f222a845107e17970fa0d" target="_top" xlink:title="TrkrCluster::getError">
<polygon fill="none" stroke="#000000" points="201.5,-519.5 201.5,-539.5 321.5,-539.5 321.5,-519.5 201.5,-519.5"/>
<text text-anchor="middle" x="261.5" y="-526.5" font-family="FreeSans" font-size="10.00" fill="#000000">TrkrCluster::getError</text>
</a>
</g>
</g>
<!-- Node1&#45;&gt;Node8 -->
<g id="edge8" class="edge">
<title>Node1&#45;&gt;Node8</title>
<path fill="none" stroke="#191970" d="M81.1552,-330.6994C92.7774,-368.1742 126.7045,-461.3174 189,-509.5 191.6337,-511.537 194.462,-513.3667 197.4201,-515.0101"/>
<polygon fill="#191970" stroke="#191970" points="196.0866,-518.2518 206.6188,-519.4025 199.103,-511.935 196.0866,-518.2518"/>
</g>
<!-- Node9 -->
<g id="node9" class="node">
<title>Node9</title>
<g id="a_node9"><a xlink:href="../../d6/d3f/namespaceTrkrDefs.html#ad4a7fd368bbf1d5d97ff4fd3e81a6100" target="_top" xlink:title="Get the layer number from either key type.">
<polygon fill="none" stroke="#000000" points="206,-480.5 206,-500.5 317,-500.5 317,-480.5 206,-480.5"/>
<text text-anchor="middle" x="261.5" y="-487.5" font-family="FreeSans" font-size="10.00" fill="#000000">TrkrDefs::getLayer</text>
</a>
</g>
</g>
<!-- Node1&#45;&gt;Node9 -->
<g id="edge9" class="edge">
<title>Node1&#45;&gt;Node9</title>
<path fill="none" stroke="#191970" d="M83.5126,-330.5193C98.249,-362.2714 135.5406,-433.3276 189,-470.5 192.2244,-472.7421 195.6919,-474.7333 199.301,-476.5019"/>
<polygon fill="#191970" stroke="#191970" points="197.936,-479.7247 208.5056,-480.4549 200.6983,-473.2928 197.936,-479.7247"/>
</g>
<!-- Node10 -->
<g id="node10" class="node">
<title>Node10</title>
<g id="a_node10"><a xlink:href="../../d6/dfa/classTrkrCluster.html#a081b3050a772ea32f6bf3b09d0407e4f" target="_top" xlink:title="TrkrCluster::getPosition">
<polygon fill="none" stroke="#000000" points="194.5,-441.5 194.5,-461.5 328.5,-461.5 328.5,-441.5 194.5,-441.5"/>
<text text-anchor="middle" x="261.5" y="-448.5" font-family="FreeSans" font-size="10.00" fill="#000000">TrkrCluster::getPosition</text>
</a>
</g>
</g>
<!-- Node1&#45;&gt;Node10 -->
<g id="edge10" class="edge">
<title>Node1&#45;&gt;Node10</title>
<path fill="none" stroke="#191970" d="M87.6193,-330.7635C105.8232,-356.1356 144.4505,-404.9719 189,-431.5 193.0632,-433.9196 197.4279,-436.0548 201.9274,-437.9378"/>
<polygon fill="#191970" stroke="#191970" points="200.7072,-441.2181 211.2993,-441.4587 203.1691,-434.6653 200.7072,-441.2181"/>
</g>
<!-- Node11 -->
<g id="node11" class="node">
<title>Node11</title>
<g id="a_node11"><a xlink:href="../../da/d87/classSimpleHit3D.html#a33784e1c0dca64ac29d7f3b45317d2f3" target="_top" xlink:title="SimpleHit3D::print">
<polygon fill="none" stroke="#000000" points="206.5,-402.5 206.5,-422.5 316.5,-422.5 316.5,-402.5 206.5,-402.5"/>
<text text-anchor="middle" x="261.5" y="-409.5" font-family="FreeSans" font-size="10.00" fill="#000000">SimpleHit3D::print</text>
</a>
</g>
</g>
<!-- Node1&#45;&gt;Node11 -->
<g id="edge11" class="edge">
<title>Node1&#45;&gt;Node11</title>
<path fill="none" stroke="#191970" d="M95.5758,-330.76C117.0142,-348.2803 153.4821,-375.8785 189,-392.5 194.379,-395.0172 200.1353,-397.2714 205.9649,-399.2764"/>
<polygon fill="#191970" stroke="#191970" points="205.2005,-402.7065 215.7914,-402.418 207.3322,-396.0389 205.2005,-402.7065"/>
</g>
<!-- Node21 -->
<g id="node21" class="node">
<title>Node21</title>
<g id="a_node21"><a xlink:href="../../da/d87/classSimpleHit3D.html#ae6f5eadf829b34457bc7377caffc5ce0" target="_top" xlink:title="SimpleHit3D::set_cluskey">
<polygon fill="none" stroke="#000000" points="189,-363.5 189,-383.5 334,-383.5 334,-363.5 189,-363.5"/>
<text text-anchor="middle" x="261.5" y="-370.5" font-family="FreeSans" font-size="10.00" fill="#000000">SimpleHit3D::set_cluskey</text>
</a>
</g>
</g>
<!-- Node1&#45;&gt;Node21 -->
<g id="edge24" class="edge">
<title>Node1&#45;&gt;Node21</title>
<path fill="none" stroke="#191970" d="M127.0521,-330.622C156.3034,-339.9508 192.6553,-351.5441 220.1819,-360.3229"/>
<polygon fill="#191970" stroke="#191970" points="219.3037,-363.7164 229.8944,-363.4204 221.4307,-357.0474 219.3037,-363.7164"/>
</g>
<!-- Node22 -->
<g id="node22" class="node">
<title>Node22</title>
<g id="a_node22"><a xlink:href="../../da/d87/classSimpleHit3D.html#a478ed465c2c864d826916d3b82a4df6c" target="_top" xlink:title="SimpleHit3D::set_error">
<polygon fill="none" stroke="#000000" points="371.5,-267.5 371.5,-287.5 502.5,-287.5 502.5,-267.5 371.5,-267.5"/>
<text text-anchor="middle" x="437" y="-274.5" font-family="FreeSans" font-size="10.00" fill="#000000">SimpleHit3D::set_error</text>
</a>
</g>
</g>
<!-- Node1&#45;&gt;Node22 -->
<g id="edge25" class="edge">
<title>Node1&#45;&gt;Node22</title>
<path fill="none" stroke="#191970" d="M153.0535,-323.6216C204.8379,-327.582 274.3927,-328.5714 334,-314.5 351.41,-310.3901 353.3219,-302.9686 370,-296.5 375.4883,-294.3714 381.3124,-292.3652 387.1461,-290.5118"/>
<polygon fill="#191970" stroke="#191970" points="388.3654,-293.7994 396.9153,-287.5425 386.3296,-287.102 388.3654,-293.7994"/>
</g>
<!-- Node23 -->
<g id="node23" class="node">
<title>Node23</title>
<g id="a_node23"><a xlink:href="../../da/d87/classSimpleHit3D.html#a35948d57f0a780ab0d48d810ff566d64" target="_top" xlink:title="SimpleHit3D::set_id">
<polygon fill="none" stroke="#000000" points="203.5,-285.5 203.5,-305.5 319.5,-305.5 319.5,-285.5 203.5,-285.5"/>
<text text-anchor="middle" x="261.5" y="-292.5" font-family="FreeSans" font-size="10.00" fill="#000000">SimpleHit3D::set_id</text>
</a>
</g>
</g>
<!-- Node1&#45;&gt;Node23 -->
<g id="edge27" class="edge">
<title>Node1&#45;&gt;Node23</title>
<path fill="none" stroke="#191970" d="M153.082,-306.6348C166.3376,-305.2734 180.0429,-303.8659 193.0644,-302.5285"/>
<polygon fill="#191970" stroke="#191970" points="193.7491,-305.9767 203.3392,-301.4733 193.0339,-299.0133 193.7491,-305.9767"/>
</g>
<!-- Node24 -->
<g id="node24" class="node">
<title>Node24</title>
<g id="a_node24"><a xlink:href="../../da/d87/classSimpleHit3D.html#a0cff097784d923c75b6d0877781bfa90" target="_top" xlink:title="SimpleHit3D::set_layer">
<polygon fill="none" stroke="#000000" points="195,-246.5 195,-266.5 328,-266.5 328,-246.5 195,-246.5"/>
<text text-anchor="middle" x="261.5" y="-253.5" font-family="FreeSans" font-size="10.00" fill="#000000">SimpleHit3D::set_layer</text>
</a>
</g>
</g>
<!-- Node1&#45;&gt;Node24 -->
<g id="edge28" class="edge">
<title>Node1&#45;&gt;Node24</title>
<path fill="none" stroke="#191970" d="M120.3206,-298.4254C141.0248,-291.0583 166.1557,-282.4417 189,-275.5 196.1849,-273.3167 203.8148,-271.1522 211.324,-269.109"/>
<polygon fill="#191970" stroke="#191970" points="212.3215,-272.4653 221.0784,-266.5015 210.5137,-265.7028 212.3215,-272.4653"/>
</g>
<!-- Node25 -->
<g id="node25" class="node">
<title>Node25</title>
<g id="a_node25"><a xlink:href="../../da/d87/classSimpleHit3D.html#a904e2fe1c9c3407f59e9a7bd96b3c548" target="_top" xlink:title="SimpleHit3D::set_size">
<polygon fill="none" stroke="#000000" points="374,-225.5 374,-245.5 500,-245.5 500,-225.5 374,-225.5"/>
<text text-anchor="middle" x="437" y="-232.5" font-family="FreeSans" font-size="10.00" fill="#000000">SimpleHit3D::set_size</text>
</a>
</g>
</g>
<!-- Node1&#45;&gt;Node25 -->
<g id="edge29" class="edge">
<title>Node1&#45;&gt;Node25</title>
<path fill="none" stroke="#191970" d="M92.6512,-298.4511C113.0632,-279.41 150.2366,-248.7094 189,-236.5 245.6697,-218.6507 313.3041,-219.7536 363.6167,-224.5633"/>
<polygon fill="#191970" stroke="#191970" points="363.4541,-228.0649 373.7594,-225.6051 364.1694,-221.1015 363.4541,-228.0649"/>
</g>
<!-- Node26 -->
<g id="node26" class="node">
<title>Node26</title>
<g id="a_node26"><a xlink:href="../../da/d87/classSimpleHit3D.html#a98fa97a2342d92664c8d209abcb203a0" target="_top" xlink:title="SimpleHit3D::set_x">
<polygon fill="none" stroke="#000000" points="205,-168.5 205,-188.5 318,-188.5 318,-168.5 205,-168.5"/>
<text text-anchor="middle" x="261.5" y="-175.5" font-family="FreeSans" font-size="10.00" fill="#000000">SimpleHit3D::set_x</text>
</a>
</g>
</g>
<!-- Node1&#45;&gt;Node26 -->
<g id="edge31" class="edge">
<title>Node1&#45;&gt;Node26</title>
<path fill="none" stroke="#191970" d="M88.9443,-298.2432C108.0364,-274.331 146.8016,-229.6851 189,-203.5 196.2368,-199.0094 204.3838,-195.202 212.5343,-192.0168"/>
<polygon fill="#191970" stroke="#191970" points="213.8457,-195.2642 222.0495,-188.5598 211.4554,-188.685 213.8457,-195.2642"/>
</g>
<!-- Node27 -->
<g id="node27" class="node">
<title>Node27</title>
<g id="a_node27"><a xlink:href="../../da/d87/classSimpleHit3D.html#a2a84d48f124328807104d2777b096e76" target="_top" xlink:title="SimpleHit3D::set_y">
<polygon fill="none" stroke="#000000" points="205,-129.5 205,-149.5 318,-149.5 318,-129.5 205,-129.5"/>
<text text-anchor="middle" x="261.5" y="-136.5" font-family="FreeSans" font-size="10.00" fill="#000000">SimpleHit3D::set_y</text>
</a>
</g>
</g>
<!-- Node1&#45;&gt;Node27 -->
<g id="edge32" class="edge">
<title>Node1&#45;&gt;Node27</title>
<path fill="none" stroke="#191970" d="M83.472,-298.422C98.1356,-266.5644 135.3026,-195.3278 189,-158.5 191.5468,-156.7533 194.2446,-155.1671 197.0435,-153.7268"/>
<polygon fill="#191970" stroke="#191970" points="198.5638,-156.881 206.265,-149.6048 195.7073,-150.4903 198.5638,-156.881"/>
</g>
<!-- Node28 -->
<g id="node28" class="node">
<title>Node28</title>
<g id="a_node28"><a xlink:href="../../da/d87/classSimpleHit3D.html#aa81b4fd05eb07529e4576b82a2887f4c" target="_top" xlink:title="SimpleHit3D::set_z">
<polygon fill="none" stroke="#000000" points="205.5,-90.5 205.5,-110.5 317.5,-110.5 317.5,-90.5 205.5,-90.5"/>
<text text-anchor="middle" x="261.5" y="-97.5" font-family="FreeSans" font-size="10.00" fill="#000000">SimpleHit3D::set_z</text>
</a>
</g>
</g>
<!-- Node1&#45;&gt;Node28 -->
<g id="edge33" class="edge">
<title>Node1&#45;&gt;Node28</title>
<path fill="none" stroke="#191970" d="M81.1132,-298.246C92.646,-260.6548 126.3959,-167.281 189,-119.5 191.2028,-117.8187 193.5409,-116.2857 195.9765,-114.8879"/>
<polygon fill="#191970" stroke="#191970" points="197.712,-117.9353 205.1546,-110.3948 194.6341,-111.6482 197.712,-117.9353"/>
</g>
<!-- Node29 -->
<g id="node29" class="node">
<title>Node29</title>
<g id="a_node29"><a xlink:href="../../d0/d2c/classTrkrClusterContainer.html#a634dd469c29e7dfc40447ddb710e3912" target="_top" xlink:title="TrkrClusterContainer\l::size">
<polygon fill="none" stroke="#000000" points="200.5,-39.5 200.5,-71.5 322.5,-71.5 322.5,-39.5 200.5,-39.5"/>
<text text-anchor="start" x="208.5" y="-58.5" font-family="FreeSans" font-size="10.00" fill="#000000">TrkrClusterContainer</text>
<text text-anchor="middle" x="261.5" y="-46.5" font-family="FreeSans" font-size="10.00" fill="#000000">::size</text>
</a>
</g>
</g>
<!-- Node1&#45;&gt;Node29 -->
<g id="edge34" class="edge">
<title>Node1&#45;&gt;Node29</title>
<path fill="none" stroke="#191970" d="M79.7608,-298.2733C89.0608,-256.1374 119.6419,-142.2402 189,-80.5 190.299,-79.3436 191.6543,-78.2402 193.0566,-77.1873"/>
<polygon fill="#191970" stroke="#191970" points="195.0489,-80.0669 201.5393,-71.6928 191.2433,-74.1917 195.0489,-80.0669"/>
</g>
<!-- Node30 -->
<g id="node30" class="node">
<title>Node30</title>
<g id="a_node30"><a xlink:href="../../d5/dec/classFun4AllBase.html#a8a5c77a92bdac6bc043476e132379a40" target="_top" xlink:title="Gets the verbosity of this module.">
<polygon fill="none" stroke="#000000" points="195.5,-.5 195.5,-20.5 327.5,-20.5 327.5,-.5 195.5,-.5"/>
<text text-anchor="middle" x="261.5" y="-7.5" font-family="FreeSans" font-size="10.00" fill="#000000">Fun4AllBase::Verbosity</text>
</a>
</g>
</g>
<!-- Node1&#45;&gt;Node30 -->
<g id="edge35" class="edge">
<title>Node1&#45;&gt;Node30</title>
<path fill="none" stroke="#191970" d="M77.8864,-298.4264C82.9503,-249.9839 104.8316,-104.155 189,-29.5 190.5332,-28.1401 192.1521,-26.8756 193.8405,-25.7"/>
<polygon fill="#191970" stroke="#191970" points="195.8778,-28.5651 202.785,-20.5314 192.3754,-22.5043 195.8778,-28.5651"/>
</g>
<!-- Node4 -->
<g id="node4" class="node">
<title>Node4</title>
<g id="a_node4"><a xlink:href="../../d6/d3f/namespaceTrkrDefs.html#a36fd0eb8c5bb3f21475acfec8965cf3e" target="_top" xlink:title="Get a valid low / hi range for cluskey given tracker id &amp; layer.">
<polygon fill="none" stroke="#000000" points="370.5,-581.5 370.5,-601.5 503.5,-601.5 503.5,-581.5 370.5,-581.5"/>
<text text-anchor="middle" x="437" y="-588.5" font-family="FreeSans" font-size="10.00" fill="#000000">TrkrDefs::getClusKeyLo</text>
</a>
</g>
</g>
<!-- Node3&#45;&gt;Node4 -->
<g id="edge3" class="edge">
<title>Node3&#45;&gt;Node4</title>
<path fill="none" stroke="#191970" d="M322.8814,-605.8055C334.9707,-604.29 347.7961,-602.6822 360.3162,-601.1128"/>
<polygon fill="#191970" stroke="#191970" points="360.7847,-604.5815 370.2716,-599.8648 359.9139,-597.6359 360.7847,-604.5815"/>
</g>
<!-- Node7 -->
<g id="node7" class="node">
<title>Node7</title>
<g id="a_node7"><a xlink:href="../../d6/d3f/namespaceTrkrDefs.html#a53af1843abe50e467a06d2307f7fe0eb" target="_top" xlink:title="TrkrDefs::getClusKeyHi">
<polygon fill="none" stroke="#000000" points="371,-620.5 371,-640.5 503,-640.5 503,-620.5 371,-620.5"/>
<text text-anchor="middle" x="437" y="-627.5" font-family="FreeSans" font-size="10.00" fill="#000000">TrkrDefs::getClusKeyHi</text>
</a>
</g>
</g>
<!-- Node3&#45;&gt;Node7 -->
<g id="edge6" class="edge">
<title>Node3&#45;&gt;Node7</title>
<path fill="none" stroke="#191970" d="M322.8814,-619.4458C335.1267,-620.6319 348.1273,-621.8912 360.8007,-623.1189"/>
<polygon fill="#191970" stroke="#191970" points="360.5828,-626.6141 370.8737,-624.0946 361.2578,-619.6467 360.5828,-626.6141"/>
</g>
<!-- Node5 -->
<g id="node5" class="node">
<title>Node5</title>
<g id="a_node5"><a xlink:href="../../d6/d9e/namespaceInttDefs.html#af41991588b294d4a9a89cfe7cf00439e" target="_top" xlink:title="Generate a hitsetkey for the intt.">
<polygon fill="none" stroke="#000000" points="540,-600.5 540,-620.5 671,-620.5 671,-600.5 540,-600.5"/>
<text text-anchor="middle" x="605.5" y="-607.5" font-family="FreeSans" font-size="10.00" fill="#000000">InttDefs::genHitSetKey</text>
</a>
</g>
</g>
<!-- Node4&#45;&gt;Node5 -->
<g id="edge4" class="edge">
<title>Node4&#45;&gt;Node5</title>
<path fill="none" stroke="#191970" d="M503.5957,-599.0093C512.1909,-599.9785 521.0429,-600.9766 529.7716,-601.9609"/>
<polygon fill="#191970" stroke="#191970" points="529.6097,-605.4647 539.9389,-603.1074 530.3941,-598.5088 529.6097,-605.4647"/>
</g>
<!-- Node6 -->
<g id="node6" class="node">
<title>Node6</title>
<g id="a_node6"><a xlink:href="../../d6/d3f/namespaceTrkrDefs.html#a418e306477093b8d17d587be70b908a3" target="_top" xlink:title="generate the common upper 16 bits for hitsetkey">
<polygon fill="none" stroke="#000000" points="707,-600.5 707,-620.5 841,-620.5 841,-600.5 707,-600.5"/>
<text text-anchor="middle" x="774" y="-607.5" font-family="FreeSans" font-size="10.00" fill="#000000">TrkrDefs::genHitSetKey</text>
</a>
</g>
</g>
<!-- Node5&#45;&gt;Node6 -->
<g id="edge5" class="edge">
<title>Node5&#45;&gt;Node6</title>
<path fill="none" stroke="#191970" d="M671.129,-610.5C679.5639,-610.5 688.261,-610.5 696.8587,-610.5"/>
<polygon fill="#191970" stroke="#191970" points="696.8843,-614.0001 706.8842,-610.5 696.8842,-607.0001 696.8843,-614.0001"/>
</g>
<!-- Node7&#45;&gt;Node5 -->
<g id="edge7" class="edge">
<title>Node7&#45;&gt;Node5</title>
<path fill="none" stroke="#191970" d="M503.112,-622.6529C511.8876,-621.6113 520.9387,-620.5369 529.8598,-619.4781"/>
<polygon fill="#191970" stroke="#191970" points="530.3373,-622.9461 539.855,-618.2917 529.5121,-615.9948 530.3373,-622.9461"/>
</g>
<!-- Node11&#45;&gt;Node2 -->
<g id="edge12" class="edge">
<title>Node11&#45;&gt;Node2</title>
<path fill="none" stroke="#191970" d="M316.7153,-420.7832C323.0393,-423.4515 328.9996,-426.9418 334,-431.5 368.6006,-463.0405 336.1571,-498.1479 370,-530.5 372.3791,-532.7743 375.0016,-534.8025 377.7898,-536.6111"/>
<polygon fill="#191970" stroke="#191970" points="376.1189,-539.6864 386.5734,-541.4051 379.4725,-533.542 376.1189,-539.6864"/>
</g>
<!-- Node12 -->
<g id="node12" class="node">
<title>Node12</title>
<g id="a_node12"><a xlink:href="../../da/d87/classSimpleHit3D.html#aee4615586ba114d652ae2f53a329af8b" target="_top" xlink:title="SimpleHit3D::get_layer">
<polygon fill="none" stroke="#000000" points="370,-306.5 370,-326.5 504,-326.5 504,-306.5 370,-306.5"/>
<text text-anchor="middle" x="437" y="-313.5" font-family="FreeSans" font-size="10.00" fill="#000000">SimpleHit3D::get_layer</text>
</a>
</g>
</g>
<!-- Node11&#45;&gt;Node12 -->
<g id="edge13" class="edge">
<title>Node11&#45;&gt;Node12</title>
<path fill="none" stroke="#191970" d="M315.4804,-402.4951C322.0786,-399.8967 328.4424,-396.6234 334,-392.5 358.0631,-374.6466 346.001,-353.4394 370,-335.5 372.194,-333.8599 374.5245,-332.3613 376.9501,-330.992"/>
<polygon fill="#191970" stroke="#191970" points="378.5973,-334.0833 386.0751,-326.5777 375.5489,-327.7819 378.5973,-334.0833"/>
</g>
<!-- Node13 -->
<g id="node13" class="node">
<title>Node13</title>
<g id="a_node13"><a xlink:href="../../da/d87/classSimpleHit3D.html#a7f9d236c9f34d7b37abdf76cbcdcc325" target="_top" xlink:title="SimpleHit3D::get_x">
<polygon fill="none" stroke="#000000" points="380,-501.5 380,-521.5 494,-521.5 494,-501.5 380,-501.5"/>
<text text-anchor="middle" x="437" y="-508.5" font-family="FreeSans" font-size="10.00" fill="#000000">SimpleHit3D::get_x</text>
</a>
</g>
</g>
<!-- Node11&#45;&gt;Node13 -->
<g id="edge14" class="edge">
<title>Node11&#45;&gt;Node13</title>
<path fill="none" stroke="#191970" d="M316.6716,-422.0274C322.857,-424.4943 328.7946,-427.5973 334,-431.5 358.8817,-450.1551 345.4369,-472.4273 370,-491.5 372.6367,-493.5474 375.4801,-495.3856 378.4553,-497.0361"/>
<polygon fill="#191970" stroke="#191970" points="377.1689,-500.3002 387.7017,-501.4456 380.1821,-493.9819 377.1689,-500.3002"/>
</g>
<!-- Node14 -->
<g id="node14" class="node">
<title>Node14</title>
<g id="a_node14"><a xlink:href="../../da/d87/classSimpleHit3D.html#a004f4dc96baa6789bb599036471d1e0d" target="_top" xlink:title="SimpleHit3D::get_y">
<polygon fill="none" stroke="#000000" points="380,-462.5 380,-482.5 494,-482.5 494,-462.5 380,-462.5"/>
<text text-anchor="middle" x="437" y="-469.5" font-family="FreeSans" font-size="10.00" fill="#000000">SimpleHit3D::get_y</text>
</a>
</g>
</g>
<!-- Node11&#45;&gt;Node14 -->
<g id="edge15" class="edge">
<title>Node11&#45;&gt;Node14</title>
<path fill="none" stroke="#191970" d="M307.373,-422.5018C316.3487,-425.0206 325.5833,-428.0187 334,-431.5 351.1169,-438.5798 353.0052,-445.1321 370,-452.5 375.701,-454.9716 381.8009,-457.2544 387.9121,-459.3251"/>
<polygon fill="#191970" stroke="#191970" points="386.8778,-462.669 397.4693,-462.4011 389.0225,-456.0056 386.8778,-462.669"/>
</g>
<!-- Node15 -->
<g id="node15" class="node">
<title>Node15</title>
<g id="a_node15"><a xlink:href="../../da/d87/classSimpleHit3D.html#a32bb6a50aea56d16a2b81b4e5c02ffc0" target="_top" xlink:title="SimpleHit3D::get_z">
<polygon fill="none" stroke="#000000" points="380.5,-423.5 380.5,-443.5 493.5,-443.5 493.5,-423.5 380.5,-423.5"/>
<text text-anchor="middle" x="437" y="-430.5" font-family="FreeSans" font-size="10.00" fill="#000000">SimpleHit3D::get_z</text>
</a>
</g>
</g>
<!-- Node11&#45;&gt;Node15 -->
<g id="edge16" class="edge">
<title>Node11&#45;&gt;Node15</title>
<path fill="none" stroke="#191970" d="M316.5478,-419.0869C333.5222,-421.118 352.4018,-423.3771 370.0836,-425.4929"/>
<polygon fill="#191970" stroke="#191970" points="369.9875,-429.0063 380.3326,-426.7193 370.8193,-422.0559 369.9875,-429.0063"/>
</g>
<!-- Node16 -->
<g id="node16" class="node">
<title>Node16</title>
<g id="a_node16"><a xlink:href="../../da/d87/classSimpleHit3D.html#ac14dba1bba0e7c7e573d8d2366f3e82f" target="_top" xlink:title="SimpleHit3D::get_error">
<polygon fill="none" stroke="#000000" points="370.5,-384.5 370.5,-404.5 503.5,-404.5 503.5,-384.5 370.5,-384.5"/>
<text text-anchor="middle" x="437" y="-391.5" font-family="FreeSans" font-size="10.00" fill="#000000">SimpleHit3D::get_error</text>
</a>
</g>
</g>
<!-- Node11&#45;&gt;Node16 -->
<g id="edge17" class="edge">
<title>Node11&#45;&gt;Node16</title>
<path fill="none" stroke="#191970" d="M316.5478,-406.8541C330.4327,-405.43 345.5923,-403.8751 360.3284,-402.3638"/>
<polygon fill="#191970" stroke="#191970" points="360.8511,-405.8286 370.4418,-401.3265 360.1369,-398.8651 360.8511,-405.8286"/>
</g>
<!-- Node20 -->
<g id="node20" class="node">
<title>Node20</title>
<g id="a_node20"><a xlink:href="../../da/d87/classSimpleHit3D.html#afedde585b37d72326a4ffd97978eec56" target="_top" xlink:title="SimpleHit3D::get_size">
<polygon fill="none" stroke="#000000" points="373.5,-345.5 373.5,-365.5 500.5,-365.5 500.5,-345.5 373.5,-345.5"/>
<text text-anchor="middle" x="437" y="-352.5" font-family="FreeSans" font-size="10.00" fill="#000000">SimpleHit3D::get_size</text>
</a>
</g>
</g>
<!-- Node11&#45;&gt;Node20 -->
<g id="edge22" class="edge">
<title>Node11&#45;&gt;Node20</title>
<path fill="none" stroke="#191970" d="M303.3565,-402.4451C313.5107,-399.5987 324.2478,-396.2423 334,-392.5 350.7011,-386.0912 353.3219,-380.9686 370,-374.5 375.4883,-372.3714 381.3124,-370.3652 387.1461,-368.5118"/>
<polygon fill="#191970" stroke="#191970" points="388.3654,-371.7994 396.9153,-365.5425 386.3296,-365.102 388.3654,-371.7994"/>
</g>
<!-- Node17 -->
<g id="node17" class="node">
<title>Node17</title>
<g id="a_node17"><a xlink:href="../../da/d87/classSimpleHit3D.html#ae49a0ed39765942f7347d1455d015b01" target="_top" xlink:title="SimpleHit3D::covar\l_index">
<polygon fill="none" stroke="#000000" points="548,-300.5 548,-332.5 663,-332.5 663,-300.5 548,-300.5"/>
<text text-anchor="start" x="556" y="-319.5" font-family="FreeSans" font-size="10.00" fill="#000000">SimpleHit3D::covar</text>
<text text-anchor="middle" x="605.5" y="-307.5" font-family="FreeSans" font-size="10.00" fill="#000000">_index</text>
</a>
</g>
</g>
<!-- Node16&#45;&gt;Node17 -->
<g id="edge18" class="edge">
<title>Node16&#45;&gt;Node17</title>
<path fill="none" stroke="#191970" d="M476.154,-384.4525C485.4293,-381.625 495.1844,-378.2752 504,-374.5 527.6759,-364.3609 552.8206,-350.0216 572.16,-338.1377"/>
<polygon fill="#191970" stroke="#191970" points="574.2463,-340.9616 580.8827,-332.7027 570.5445,-335.0205 574.2463,-340.9616"/>
</g>
<!-- Node18 -->
<g id="node18" class="node">
<title>Node18</title>
<g id="a_node18"><a xlink:href="../../d4/da9/namespaceboost.html#a630945877437d477612e4419562161cc" target="_top" xlink:title="boost::swap">
<polygon fill="none" stroke="#000000" points="735.5,-306.5 735.5,-326.5 812.5,-326.5 812.5,-306.5 735.5,-306.5"/>
<text text-anchor="middle" x="774" y="-313.5" font-family="FreeSans" font-size="10.00" fill="#000000">boost::swap</text>
</a>
</g>
</g>
<!-- Node17&#45;&gt;Node18 -->
<g id="edge19" class="edge">
<title>Node17&#45;&gt;Node18</title>
<path fill="none" stroke="#191970" d="M663.0169,-316.5C683.2204,-316.5 705.712,-316.5 725.1367,-316.5"/>
<polygon fill="#191970" stroke="#191970" points="725.2816,-320.0001 735.2816,-316.5 725.2815,-313.0001 725.2816,-320.0001"/>
</g>
<!-- Node19 -->
<g id="node19" class="node">
<title>Node19</title>
<g id="a_node19"><a xlink:href="../../d1/d96/classboost_1_1array.html#a342ef866ed696b18ce803b5c9aba4b2e" target="_top" xlink:title="boost::array::swap">
<polygon fill="none" stroke="#000000" points="877,-306.5 877,-326.5 987,-326.5 987,-306.5 877,-306.5"/>
<text text-anchor="middle" x="932" y="-313.5" font-family="FreeSans" font-size="10.00" fill="#000000">boost::array::swap</text>
</a>
</g>
</g>
<!-- Node18&#45;&gt;Node19 -->
<g id="edge20" class="edge">
<title>Node18&#45;&gt;Node19</title>
<path fill="none" stroke="#191970" d="M812.6511,-310.6029C828.9159,-309.849 848.2997,-309.5949 866.6669,-309.8406"/>
<polygon fill="#191970" stroke="#191970" points="866.6766,-313.3413 876.7401,-310.0285 866.8072,-306.3425 866.6766,-313.3413"/>
</g>
<!-- Node19&#45;&gt;Node18 -->
<g id="edge21" class="edge">
<title>Node19&#45;&gt;Node18</title>
<path fill="none" stroke="#191970" d="M876.7401,-322.9715C859.2217,-323.3943 839.9863,-323.3357 822.944,-322.7956"/>
<polygon fill="#191970" stroke="#191970" points="822.7791,-319.2867 812.6511,-322.3971 822.5082,-326.2814 822.7791,-319.2867"/>
</g>
<!-- Node20&#45;&gt;Node17 -->
<g id="edge23" class="edge">
<title>Node20&#45;&gt;Node17</title>
<path fill="none" stroke="#191970" d="M480.3929,-345.4565C497.994,-341.3827 518.7341,-336.5823 538.2123,-332.074"/>
<polygon fill="#191970" stroke="#191970" points="539.0023,-335.4838 547.9555,-329.8189 537.4238,-328.664 539.0023,-335.4838"/>
</g>
<!-- Node22&#45;&gt;Node17 -->
<g id="edge26" class="edge">
<title>Node22&#45;&gt;Node17</title>
<path fill="none" stroke="#191970" d="M480.3929,-287.5435C497.994,-291.6173 518.7341,-296.4177 538.2123,-300.926"/>
<polygon fill="#191970" stroke="#191970" points="537.4238,-304.336 547.9555,-303.1811 539.0023,-297.5162 537.4238,-304.336"/>
</g>
<!-- Node25&#45;&gt;Node17 -->
<g id="edge30" class="edge">
<title>Node25&#45;&gt;Node17</title>
<path fill="none" stroke="#191970" d="M472.2994,-245.5629C482.6823,-248.9292 493.9475,-252.9879 504,-257.5 527.8655,-268.2122 553.3129,-283.0128 572.7576,-295.1099"/>
<polygon fill="#191970" stroke="#191970" points="570.915,-298.0858 581.242,-300.4534 574.6455,-292.1626 570.915,-298.0858"/>
</g>
</g>
</svg>
