<?xml version="1.0" encoding="UTF-8" standalone="no"?>
<!DOCTYPE svg PUBLIC "-//W3C//DTD SVG 1.1//EN"
 "http://www.w3.org/Graphics/SVG/1.1/DTD/svg11.dtd">
<!-- Generated by graphviz version 2.40.1 (20161225.0304)
 -->
<!-- Title: PHG4TpcSubsystem::PHG4TpcSubsystem Pages: 1 -->
<svg width="544pt" height="245pt"
 viewBox="0.00 0.00 544.00 245.00" xmlns="http://www.w3.org/2000/svg" xmlns:xlink="http://www.w3.org/1999/xlink">
<g id="graph0" class="graph" transform="scale(1 1) rotate(0) translate(4 241)">
<title>PHG4TpcSubsystem::PHG4TpcSubsystem</title>
<!-- Node1 -->
<g id="node1" class="node">
<title>Node1</title>
<polygon fill="#bfbfbf" stroke="#000000" points="0,-102.5 0,-134.5 171,-134.5 171,-102.5 0,-102.5"/>
<text text-anchor="start" x="8" y="-121.5" font-family="FreeSans" font-size="10.00" fill="#000000">PHG4TpcSubsystem::PHG4Tpc</text>
<text text-anchor="middle" x="85.5" y="-109.5" font-family="FreeSans" font-size="10.00" fill="#000000">Subsystem</text>
</g>
<!-- Node2 -->
<g id="node2" class="node">
<title>Node2</title>
<g id="a_node2"><a xlink:href="../../d5/d29/classPHG4DetectorSubsystem.html#add5cbb7bd43524ba72079425ca230200" target="_top" xlink:title="PHG4DetectorSubsystem\l::InitializeParameters">
<polygon fill="none" stroke="#000000" points="207,-102.5 207,-134.5 351,-134.5 351,-102.5 207,-102.5"/>
<text text-anchor="start" x="215" y="-121.5" font-family="FreeSans" font-size="10.00" fill="#000000">PHG4DetectorSubsystem</text>
<text text-anchor="middle" x="279" y="-109.5" font-family="FreeSans" font-size="10.00" fill="#000000">::InitializeParameters</text>
</a>
</g>
</g>
<!-- Node1&#45;&gt;Node2 -->
<g id="edge1" class="edge">
<title>Node1&#45;&gt;Node2</title>
<path fill="none" stroke="#191970" d="M171.2169,-118.5C179.6974,-118.5 188.2924,-118.5 196.7368,-118.5"/>
<polygon fill="#191970" stroke="#191970" points="196.9446,-122.0001 206.9445,-118.5 196.9445,-115.0001 196.9446,-122.0001"/>
</g>
<!-- Node3 -->
<g id="node3" class="node">
<title>Node3</title>
<g id="a_node3"><a xlink:href="../../d5/d29/classPHG4DetectorSubsystem.html#aff8499a0c11c3fa5be809484bbd51693" target="_top" xlink:title="PHG4DetectorSubsystem\l::set_default_int_param">
<polygon fill="none" stroke="#000000" points="389.5,-204.5 389.5,-236.5 533.5,-236.5 533.5,-204.5 389.5,-204.5"/>
<text text-anchor="start" x="397.5" y="-223.5" font-family="FreeSans" font-size="10.00" fill="#000000">PHG4DetectorSubsystem</text>
<text text-anchor="middle" x="461.5" y="-211.5" font-family="FreeSans" font-size="10.00" fill="#000000">::set_default_int_param</text>
</a>
</g>
</g>
<!-- Node2&#45;&gt;Node3 -->
<g id="edge2" class="edge">
<title>Node2&#45;&gt;Node3</title>
<path fill="none" stroke="#191970" d="M297.7843,-134.5389C318.4956,-151.5682 353.3566,-178.3439 387,-195.5 390.5227,-197.2964 394.2027,-199.0064 397.9593,-200.6267"/>
<polygon fill="#191970" stroke="#191970" points="396.8268,-203.9444 407.4087,-204.4674 399.4626,-197.4596 396.8268,-203.9444"/>
</g>
<!-- Node4 -->
<g id="node4" class="node">
<title>Node4</title>
<g id="a_node4"><a xlink:href="../../dd/dae/classPHParameters.html#a75005aa44390e1eb574603b0b230152b" target="_top" xlink:title="PHParameters::set_double\l_param">
<polygon fill="none" stroke="#000000" points="387,-153.5 387,-185.5 536,-185.5 536,-153.5 387,-153.5"/>
<text text-anchor="start" x="395" y="-172.5" font-family="FreeSans" font-size="10.00" fill="#000000">PHParameters::set_double</text>
<text text-anchor="middle" x="461.5" y="-160.5" font-family="FreeSans" font-size="10.00" fill="#000000">_param</text>
</a>
</g>
</g>
<!-- Node2&#45;&gt;Node4 -->
<g id="edge3" class="edge">
<title>Node2&#45;&gt;Node4</title>
<path fill="none" stroke="#191970" d="M336.7441,-134.6367C355.063,-139.756 375.474,-145.4598 394.393,-150.7468"/>
<polygon fill="#191970" stroke="#191970" points="393.5585,-154.1476 404.1315,-153.4683 395.4425,-147.4059 393.5585,-154.1476"/>
</g>
<!-- Node5 -->
<g id="node5" class="node">
<title>Node5</title>
<g id="a_node5"><a xlink:href="../../dd/dae/classPHParameters.html#a62881b44dd0564425633070316af66ec" target="_top" xlink:title="PHParameters::set_int\l_param">
<polygon fill="none" stroke="#000000" points="397.5,-102.5 397.5,-134.5 525.5,-134.5 525.5,-102.5 397.5,-102.5"/>
<text text-anchor="start" x="405.5" y="-121.5" font-family="FreeSans" font-size="10.00" fill="#000000">PHParameters::set_int</text>
<text text-anchor="middle" x="461.5" y="-109.5" font-family="FreeSans" font-size="10.00" fill="#000000">_param</text>
</a>
</g>
</g>
<!-- Node2&#45;&gt;Node5 -->
<g id="edge4" class="edge">
<title>Node2&#45;&gt;Node5</title>
<path fill="none" stroke="#191970" d="M351.1288,-118.5C362.9189,-118.5 375.155,-118.5 387.001,-118.5"/>
<polygon fill="#191970" stroke="#191970" points="387.2897,-122.0001 397.2897,-118.5 387.2896,-115.0001 387.2897,-122.0001"/>
</g>
<!-- Node6 -->
<g id="node6" class="node">
<title>Node6</title>
<g id="a_node6"><a xlink:href="../../dd/dae/classPHParameters.html#a2ebd6e499647b20dd41ca164e71ca061" target="_top" xlink:title="PHParameters::set_string\l_param">
<polygon fill="none" stroke="#000000" points="390,-51.5 390,-83.5 533,-83.5 533,-51.5 390,-51.5"/>
<text text-anchor="start" x="398" y="-70.5" font-family="FreeSans" font-size="10.00" fill="#000000">PHParameters::set_string</text>
<text text-anchor="middle" x="461.5" y="-58.5" font-family="FreeSans" font-size="10.00" fill="#000000">_param</text>
</a>
</g>
</g>
<!-- Node2&#45;&gt;Node6 -->
<g id="edge5" class="edge">
<title>Node2&#45;&gt;Node6</title>
<path fill="none" stroke="#191970" d="M336.7441,-102.3633C355.063,-97.244 375.474,-91.5402 394.393,-86.2532"/>
<polygon fill="#191970" stroke="#191970" points="395.4425,-89.5941 404.1315,-83.5317 393.5585,-82.8524 395.4425,-89.5941"/>
</g>
<!-- Node7 -->
<g id="node7" class="node">
<title>Node7</title>
<g id="a_node7"><a xlink:href="../../d5/d29/classPHG4DetectorSubsystem.html#adb39c7396bb4d0a510820ba62a4fa3e4" target="_top" xlink:title="PHG4DetectorSubsystem\l::SetDefaultParameters">
<polygon fill="none" stroke="#000000" points="389.5,-.5 389.5,-32.5 533.5,-32.5 533.5,-.5 389.5,-.5"/>
<text text-anchor="start" x="397.5" y="-19.5" font-family="FreeSans" font-size="10.00" fill="#000000">PHG4DetectorSubsystem</text>
<text text-anchor="middle" x="461.5" y="-7.5" font-family="FreeSans" font-size="10.00" fill="#000000">::SetDefaultParameters</text>
</a>
</g>
</g>
<!-- Node2&#45;&gt;Node7 -->
<g id="edge6" class="edge">
<title>Node2&#45;&gt;Node7</title>
<path fill="none" stroke="#191970" d="M298.2421,-102.4576C319.0627,-85.7169 353.7573,-59.5745 387,-42.5 391.1964,-40.3446 395.612,-38.2986 400.1118,-36.3715"/>
<polygon fill="#191970" stroke="#191970" points="401.4777,-39.5945 409.4233,-32.5862 398.8415,-33.1098 401.4777,-39.5945"/>
</g>
</g>
</svg>
