<?xml version="1.0" encoding="UTF-8" standalone="no"?>
<!DOCTYPE svg PUBLIC "-//W3C//DTD SVG 1.1//EN"
 "http://www.w3.org/Graphics/SVG/1.1/DTD/svg11.dtd">
<!-- Generated by graphviz version 2.40.1 (20161225.0304)
 -->
<!-- Title: PHG4Hit::set_path_length Pages: 1 -->
<svg width="343pt" height="92pt"
 viewBox="0.00 0.00 343.00 92.00" xmlns="http://www.w3.org/2000/svg" xmlns:xlink="http://www.w3.org/1999/xlink">
<g id="graph0" class="graph" transform="scale(1 1) rotate(0) translate(4 88)">
<title>PHG4Hit::set_path_length</title>
<!-- Node1 -->
<g id="node1" class="node">
<title>Node1</title>
<polygon fill="#bfbfbf" stroke="#000000" points="0,-31.5 0,-51.5 146,-51.5 146,-31.5 0,-31.5"/>
<text text-anchor="middle" x="73" y="-38.5" font-family="FreeSans" font-size="10.00" fill="#000000">PHG4Hit::set_path_length</text>
</g>
<!-- Node2 -->
<g id="node2" class="node">
<title>Node2</title>
<g id="a_node2"><a xlink:href="../../db/d97/classPHG4HcalSteppingAction.html#a3b7e2152d047bd72e38f36b695351fc7" target="_top" xlink:title="stepping action">
<polygon fill="none" stroke="#000000" points="187,-51.5 187,-83.5 330,-83.5 330,-51.5 187,-51.5"/>
<text text-anchor="start" x="195" y="-70.5" font-family="FreeSans" font-size="10.00" fill="#000000">PHG4HcalSteppingAction</text>
<text text-anchor="middle" x="258.5" y="-58.5" font-family="FreeSans" font-size="10.00" fill="#000000">::UserSteppingAction</text>
</a>
</g>
</g>
<!-- Node1&#45;&gt;Node2 -->
<g id="edge1" class="edge">
<title>Node1&#45;&gt;Node2</title>
<path fill="none" stroke="#191970" d="M154.6383,-52.9426C165.3446,-54.4432 176.2513,-55.9719 186.7767,-57.4471"/>
<polygon fill="#191970" stroke="#191970" points="154.8428,-49.4371 144.4538,-51.5151 153.8712,-56.3693 154.8428,-49.4371"/>
</g>
<!-- Node3 -->
<g id="node3" class="node">
<title>Node3</title>
<g id="a_node3"><a xlink:href="../../d9/df3/classPHG4SectorSteppingAction.html#a036bbd0a507b1ffafa4fd910a509372c" target="_top" xlink:title="stepping action">
<polygon fill="none" stroke="#000000" points="182,-.5 182,-32.5 335,-32.5 335,-.5 182,-.5"/>
<text text-anchor="start" x="190" y="-19.5" font-family="FreeSans" font-size="10.00" fill="#000000">PHG4SectorSteppingAction</text>
<text text-anchor="middle" x="258.5" y="-7.5" font-family="FreeSans" font-size="10.00" fill="#000000">::UserSteppingAction</text>
</a>
</g>
</g>
<!-- Node1&#45;&gt;Node3 -->
<g id="edge2" class="edge">
<title>Node1&#45;&gt;Node3</title>
<path fill="none" stroke="#191970" d="M156.0587,-30.3061C164.6452,-29.1489 173.3437,-27.9766 181.8555,-26.8294"/>
<polygon fill="#191970" stroke="#191970" points="155.4911,-26.8509 146.0482,-31.6552 156.4261,-33.7881 155.4911,-26.8509"/>
</g>
</g>
</svg>
