<?xml version="1.0" encoding="UTF-8" standalone="no"?>
<!DOCTYPE svg PUBLIC "-//W3C//DTD SVG 1.1//EN"
 "http://www.w3.org/Graphics/SVG/1.1/DTD/svg11.dtd">
<!-- Generated by graphviz version 2.40.1 (20161225.0304)
 -->
<!-- Title: Packet_idcstr::decode Pages: 1 -->
<svg width="289pt" height="68pt"
 viewBox="0.00 0.00 289.00 68.00" xmlns="http://www.w3.org/2000/svg" xmlns:xlink="http://www.w3.org/1999/xlink">
<g id="graph0" class="graph" transform="scale(1 1) rotate(0) translate(4 64)">
<title>Packet_idcstr::decode</title>
<!-- Node1 -->
<g id="node1" class="node">
<title>Node1</title>
<polygon fill="#bfbfbf" stroke="#000000" points="0,-19.5 0,-39.5 126,-39.5 126,-19.5 0,-19.5"/>
<text text-anchor="middle" x="63" y="-26.5" font-family="FreeSans" font-size="10.00" fill="#000000">Packet_idcstr::decode</text>
</g>
<!-- Node2 -->
<g id="node2" class="node">
<title>Node2</title>
<g id="a_node2"><a xlink:href="../../df/dbc/classPacket__idcstr.html#a546759c3d0cfe2d8c8c66803daa85e18" target="_top" xlink:title="Packet_idcstr::dump">
<polygon fill="none" stroke="#000000" points="162.5,-39.5 162.5,-59.5 280.5,-59.5 280.5,-39.5 162.5,-39.5"/>
<text text-anchor="middle" x="221.5" y="-46.5" font-family="FreeSans" font-size="10.00" fill="#000000">Packet_idcstr::dump</text>
</a>
</g>
</g>
<!-- Node1&#45;&gt;Node2 -->
<g id="edge1" class="edge">
<title>Node1&#45;&gt;Node2</title>
<path fill="none" stroke="#191970" d="M136.0343,-38.7157C144.8946,-39.8337 153.8592,-40.9649 162.4813,-42.0528"/>
<polygon fill="#191970" stroke="#191970" points="136.4583,-35.2415 126.0988,-37.462 135.582,-42.1865 136.4583,-35.2415"/>
</g>
<!-- Node3 -->
<g id="node3" class="node">
<title>Node3</title>
<g id="a_node3"><a xlink:href="../../df/dbc/classPacket__idcstr.html#a3811c9395ff2d225ea0a0dc5c9fd0865" target="_top" xlink:title="iValue returns the value of a given channel as an int.">
<polygon fill="none" stroke="#000000" points="162,-.5 162,-20.5 281,-20.5 281,-.5 162,-.5"/>
<text text-anchor="middle" x="221.5" y="-7.5" font-family="FreeSans" font-size="10.00" fill="#000000">Packet_idcstr::iValue</text>
</a>
</g>
</g>
<!-- Node1&#45;&gt;Node3 -->
<g id="edge2" class="edge">
<title>Node1&#45;&gt;Node3</title>
<path fill="none" stroke="#191970" d="M136.1721,-20.7286C144.812,-19.6929 153.5489,-18.6456 161.9687,-17.6362"/>
<polygon fill="#191970" stroke="#191970" points="135.6111,-17.2707 126.0988,-21.9361 136.4443,-24.2209 135.6111,-17.2707"/>
</g>
</g>
</svg>
