<?xml version="1.0" encoding="UTF-8" standalone="no"?>
<!DOCTYPE svg PUBLIC "-//W3C//DTD SVG 1.1//EN"
 "http://www.w3.org/Graphics/SVG/1.1/DTD/svg11.dtd">
<!-- Generated by graphviz version 2.40.1 (20161225.0304)
 -->
<!-- Title: analysis/blob/master/EICAnalysis/DISKinematicsReco.h Pages: 1 -->
<svg width="603pt" height="203pt"
 viewBox="0.00 0.00 602.50 203.00" xmlns="http://www.w3.org/2000/svg" xmlns:xlink="http://www.w3.org/1999/xlink">
<g id="graph0" class="graph" transform="scale(1 1) rotate(0) translate(4 199)">
<title>analysis/blob/master/EICAnalysis/DISKinematicsReco.h</title>
<!-- Node1 -->
<g id="node1" class="node">
<title>Node1</title>
<polygon fill="#bfbfbf" stroke="#000000" points="202,-162.5 202,-194.5 391,-194.5 391,-162.5 202,-162.5"/>
<text text-anchor="start" x="210" y="-181.5" font-family="FreeSans" font-size="10.00" fill="#000000">analysis/blob/master</text>
<text text-anchor="middle" x="296.5" y="-169.5" font-family="FreeSans" font-size="10.00" fill="#000000">/EICAnalysis/DISKinematicsReco.h</text>
</g>
<!-- Node2 -->
<g id="node2" class="node">
<title>Node2</title>
<g id="a_node2"><a xlink:href="../../d7/d51/DISKinematicsReco_8C.html" target="_top" xlink:title="analysis/blob/master\l/EICAnalysis/DISKinematicsReco.C">
<polygon fill="none" stroke="#000000" points="0,-87.5 0,-119.5 189,-119.5 189,-87.5 0,-87.5"/>
<text text-anchor="start" x="8" y="-106.5" font-family="FreeSans" font-size="10.00" fill="#000000">analysis/blob/master</text>
<text text-anchor="middle" x="94.5" y="-94.5" font-family="FreeSans" font-size="10.00" fill="#000000">/EICAnalysis/DISKinematicsReco.C</text>
</a>
</g>
</g>
<!-- Node1&#45;&gt;Node2 -->
<g id="edge1" class="edge">
<title>Node1&#45;&gt;Node2</title>
<path fill="none" stroke="#191970" d="M243.6798,-158.8885C210.6985,-146.643 168.7658,-131.0739 137.7624,-119.5628"/>
<polygon fill="#191970" stroke="#191970" points="242.573,-162.211 253.1659,-162.4106 245.0095,-155.6487 242.573,-162.211"/>
</g>
<!-- Node3 -->
<g id="node3" class="node">
<title>Node3</title>
<g id="a_node3"><a xlink:href="../../d3/db1/DISKinematicsReco__Dict_8h.html" target="_top" xlink:title="analysis/blob/master\l/EICAnalysis/DISKinematicsReco\l_Dict.h">
<polygon fill="none" stroke="#000000" points="207,-81.5 207,-125.5 386,-125.5 386,-81.5 207,-81.5"/>
<text text-anchor="start" x="215" y="-112.5" font-family="FreeSans" font-size="10.00" fill="#000000">analysis/blob/master</text>
<text text-anchor="start" x="215" y="-100.5" font-family="FreeSans" font-size="10.00" fill="#000000">/EICAnalysis/DISKinematicsReco</text>
<text text-anchor="middle" x="296.5" y="-88.5" font-family="FreeSans" font-size="10.00" fill="#000000">_Dict.h</text>
</a>
</g>
</g>
<!-- Node1&#45;&gt;Node3 -->
<g id="edge2" class="edge">
<title>Node1&#45;&gt;Node3</title>
<path fill="none" stroke="#191970" d="M296.5,-151.9565C296.5,-143.3741 296.5,-133.9524 296.5,-125.7171"/>
<polygon fill="#191970" stroke="#191970" points="293.0001,-152.2261 296.5,-162.2261 300.0001,-152.2262 293.0001,-152.2261"/>
</g>
<!-- Node5 -->
<g id="node5" class="node">
<title>Node5</title>
<g id="a_node5"><a xlink:href="../../d4/d34/TruthTrackerHepMC_8C.html" target="_top" xlink:title="analysis/blob/master\l/EICAnalysis/TruthTrackerHepMC.C">
<polygon fill="none" stroke="#000000" points="404.5,-87.5 404.5,-119.5 594.5,-119.5 594.5,-87.5 404.5,-87.5"/>
<text text-anchor="start" x="412.5" y="-106.5" font-family="FreeSans" font-size="10.00" fill="#000000">analysis/blob/master</text>
<text text-anchor="middle" x="499.5" y="-94.5" font-family="FreeSans" font-size="10.00" fill="#000000">/EICAnalysis/TruthTrackerHepMC.C</text>
</a>
</g>
</g>
<!-- Node1&#45;&gt;Node5 -->
<g id="edge4" class="edge">
<title>Node1&#45;&gt;Node5</title>
<path fill="none" stroke="#191970" d="M349.5817,-158.8885C382.7262,-146.643 424.8665,-131.0739 456.0234,-119.5628"/>
<polygon fill="#191970" stroke="#191970" points="348.2159,-155.6618 340.0486,-162.4106 350.6419,-162.228 348.2159,-155.6618"/>
</g>
<!-- Node4 -->
<g id="node4" class="node">
<title>Node4</title>
<g id="a_node4"><a xlink:href="../../dd/d6e/DISKinematicsReco__Dict_8C.html" target="_top" xlink:title="analysis/blob/master\l/EICAnalysis/DISKinematicsReco\l_Dict.C">
<polygon fill="none" stroke="#000000" points="207,-.5 207,-44.5 386,-44.5 386,-.5 207,-.5"/>
<text text-anchor="start" x="215" y="-31.5" font-family="FreeSans" font-size="10.00" fill="#000000">analysis/blob/master</text>
<text text-anchor="start" x="215" y="-19.5" font-family="FreeSans" font-size="10.00" fill="#000000">/EICAnalysis/DISKinematicsReco</text>
<text text-anchor="middle" x="296.5" y="-7.5" font-family="FreeSans" font-size="10.00" fill="#000000">_Dict.C</text>
</a>
</g>
</g>
<!-- Node3&#45;&gt;Node4 -->
<g id="edge3" class="edge">
<title>Node3&#45;&gt;Node4</title>
<path fill="none" stroke="#191970" d="M296.5,-71.2457C296.5,-62.3118 296.5,-52.8188 296.5,-44.6068"/>
<polygon fill="#191970" stroke="#191970" points="293.0001,-71.3664 296.5,-81.3664 300.0001,-71.3664 293.0001,-71.3664"/>
</g>
</g>
</svg>
