<?xml version="1.0" encoding="UTF-8" standalone="no"?>
<!DOCTYPE svg PUBLIC "-//W3C//DTD SVG 1.1//EN"
 "http://www.w3.org/Graphics/SVG/1.1/DTD/svg11.dtd">
<!-- Generated by graphviz version 2.40.1 (20161225.0304)
 -->
<!-- Title: Fun4AllInputManager Pages: 1 -->
<svg width="1700pt" height="248pt"
 viewBox="0.00 0.00 1700.00 247.50" xmlns="http://www.w3.org/2000/svg" xmlns:xlink="http://www.w3.org/1999/xlink">
<g id="graph0" class="graph" transform="scale(1 1) rotate(0) translate(4 243.5)">
<title>Fun4AllInputManager</title>
<!-- Node1 -->
<g id="node1" class="node">
<title>Node1</title>
<polygon fill="#bfbfbf" stroke="#000000" points="1085,-129.5 1085,-149.5 1210,-149.5 1210,-129.5 1085,-129.5"/>
<text text-anchor="middle" x="1147.5" y="-136.5" font-family="FreeSans" font-size="10.00" fill="#000000">Fun4AllInputManager</text>
</g>
<!-- Node8 -->
<g id="node8" class="node">
<title>Node8</title>
<polygon fill="none" stroke="#bfbfbf" points="1297,-108.5 1297,-140.5 1443,-140.5 1443,-108.5 1297,-108.5"/>
<text text-anchor="start" x="1305" y="-127.5" font-family="FreeSans" font-size="10.00" fill="#000000">std::vector&lt; Fun4AllInput</text>
<text text-anchor="middle" x="1370" y="-115.5" font-family="FreeSans" font-size="10.00" fill="#000000">Manager * &gt;</text>
</g>
<!-- Node1&#45;&gt;Node8 -->
<g id="edge11" class="edge">
<title>Node1&#45;&gt;Node8</title>
<path fill="none" stroke="#9a32cd" stroke-dasharray="5,2" d="M1220.0711,-134.6076C1244.6997,-132.9472 1272.217,-131.0921 1296.8876,-129.4289"/>
<polygon fill="#9a32cd" stroke="#9a32cd" points="1219.8127,-131.1169 1210.0708,-135.2817 1220.2836,-138.1011 1219.8127,-131.1169"/>
<text text-anchor="middle" x="1253.5" y="-136.5" font-family="FreeSans" font-size="10.00" fill="#000000"> elements</text>
</g>
<!-- Node2 -->
<g id="node2" class="node">
<title>Node2</title>
<g id="a_node2"><a xlink:href="../../d5/dec/classFun4AllBase.html" target="_top" xlink:title="Fun4AllBase">
<polygon fill="none" stroke="#000000" points="317,-173.5 317,-193.5 395,-193.5 395,-173.5 317,-173.5"/>
<text text-anchor="middle" x="356" y="-180.5" font-family="FreeSans" font-size="10.00" fill="#000000">Fun4AllBase</text>
</a>
</g>
</g>
<!-- Node2&#45;&gt;Node1 -->
<g id="edge1" class="edge">
<title>Node2&#45;&gt;Node1</title>
<path fill="none" stroke="#191970" d="M405.3108,-186.2565C407.9109,-186.3514 410.4863,-186.4339 413,-186.5 469.4249,-187.9838 483.5644,-187.4973 540,-186.5 716.0825,-183.3884 760.1278,-181.6477 936,-172.5 994.2807,-169.4686 1009.5748,-173.9004 1067,-163.5 1084.6507,-160.3032 1103.9236,-154.638 1119.1852,-149.6142"/>
<polygon fill="#191970" stroke="#191970" points="405.3743,-182.7562 395.2372,-185.8366 405.0828,-189.7501 405.3743,-182.7562"/>
</g>
<!-- Node6 -->
<g id="node6" class="node">
<title>Node6</title>
<g id="a_node6"><a xlink:href="../../d0/d32/classSubsysReco.html" target="_top" xlink:title="SubsysReco">
<polygon fill="none" stroke="#000000" points="564,-152.5 564,-172.5 640,-172.5 640,-152.5 564,-152.5"/>
<text text-anchor="middle" x="602" y="-159.5" font-family="FreeSans" font-size="10.00" fill="#000000">SubsysReco</text>
</a>
</g>
</g>
<!-- Node2&#45;&gt;Node6 -->
<g id="edge6" class="edge">
<title>Node2&#45;&gt;Node6</title>
<path fill="none" stroke="#191970" d="M405.4339,-179.28C452.0938,-175.2969 521.0813,-169.4077 563.6981,-165.7697"/>
<polygon fill="#191970" stroke="#191970" points="404.9175,-175.8113 395.2514,-180.1493 405.5129,-182.7859 404.9175,-175.8113"/>
</g>
<!-- Node7 -->
<g id="node7" class="node">
<title>Node7</title>
<g id="a_node7"><a xlink:href="../../dd/ded/classFun4AllSyncManager.html" target="_top" xlink:title="Fun4AllSyncManager">
<polygon fill="none" stroke="#000000" points="1569,-114.5 1569,-134.5 1692,-134.5 1692,-114.5 1569,-114.5"/>
<text text-anchor="middle" x="1630.5" y="-121.5" font-family="FreeSans" font-size="10.00" fill="#000000">Fun4AllSyncManager</text>
</a>
</g>
</g>
<!-- Node2&#45;&gt;Node7 -->
<g id="edge9" class="edge">
<title>Node2&#45;&gt;Node7</title>
<path fill="none" stroke="#191970" d="M391.6164,-196.89C438.9526,-213.456 525.5314,-239.5 602,-239.5 602,-239.5 602,-239.5 1370,-239.5 1473.5696,-239.5 1582.0849,-162.4831 1618.0894,-134.5043"/>
<polygon fill="#191970" stroke="#191970" points="392.7235,-193.569 382.1288,-193.5117 390.3753,-200.1634 392.7235,-193.569"/>
</g>
<!-- Node3 -->
<g id="node3" class="node">
<title>Node3</title>
<g id="a_node3"><a xlink:title="STL class.">
<polygon fill="none" stroke="#bfbfbf" points="144,-87.5 144,-107.5 211,-107.5 211,-87.5 144,-87.5"/>
<text text-anchor="middle" x="177.5" y="-94.5" font-family="FreeSans" font-size="10.00" fill="#000000">std::string</text>
</a>
</g>
</g>
<!-- Node3&#45;&gt;Node1 -->
<g id="edge7" class="edge">
<title>Node3&#45;&gt;Node1</title>
<path fill="none" stroke="#9a32cd" stroke-dasharray="5,2" d="M221.0839,-97.814C303.9042,-98.5476 489.7144,-100.8489 646,-107.5 804.2029,-114.2327 990.1625,-127.5037 1084.9985,-134.6577"/>
<polygon fill="#9a32cd" stroke="#9a32cd" points="221.0624,-94.3138 211.0329,-97.7283 221.0026,-101.3136 221.0624,-94.3138"/>
<text text-anchor="middle" x="602" y="-134.5" font-family="FreeSans" font-size="10.00" fill="#000000"> m_FileName</text>
<text text-anchor="middle" x="602" y="-122.5" font-family="FreeSans" font-size="10.00" fill="#000000">m_InputNode</text>
<text text-anchor="middle" x="602" y="-110.5" font-family="FreeSans" font-size="10.00" fill="#000000">m_TopNodeName</text>
</g>
<!-- Node3&#45;&gt;Node2 -->
<g id="edge2" class="edge">
<title>Node3&#45;&gt;Node2</title>
<path fill="none" stroke="#9a32cd" stroke-dasharray="5,2" d="M207.4106,-111.9107C243.5597,-129.3271 303.456,-158.1847 335.0312,-173.3974"/>
<polygon fill="#9a32cd" stroke="#9a32cd" points="208.8537,-108.721 198.3256,-107.5336 205.8153,-115.0272 208.8537,-108.721"/>
<text text-anchor="middle" x="264" y="-158.5" font-family="FreeSans" font-size="10.00" fill="#000000"> m_ThisName</text>
</g>
<!-- Node13 -->
<g id="node13" class="node">
<title>Node13</title>
<polygon fill="none" stroke="#bfbfbf" points="413,-43.5 413,-63.5 540,-63.5 540,-43.5 413,-43.5"/>
<text text-anchor="middle" x="476.5" y="-50.5" font-family="FreeSans" font-size="10.00" fill="#000000">std::list&lt; std::string &gt;</text>
</g>
<!-- Node3&#45;&gt;Node13 -->
<g id="edge17" class="edge">
<title>Node3&#45;&gt;Node13</title>
<path fill="none" stroke="#9a32cd" stroke-dasharray="5,2" d="M202.5153,-82.383C210.6846,-78.1346 219.9807,-73.9968 229,-71.5 289.8278,-54.6614 362.0896,-51.2003 412.7784,-51.3202"/>
<polygon fill="#9a32cd" stroke="#9a32cd" points="200.6006,-79.4416 193.5269,-87.3292 203.9754,-85.5744 200.6006,-79.4416"/>
<text text-anchor="middle" x="264" y="-74.5" font-family="FreeSans" font-size="10.00" fill="#000000"> elements</text>
</g>
<!-- Node4 -->
<g id="node4" class="node">
<title>Node4</title>
<g id="a_node4"><a xlink:title="STL class.">
<polygon fill="none" stroke="#bfbfbf" points="0,-81.5 0,-113.5 107,-113.5 107,-81.5 0,-81.5"/>
<text text-anchor="start" x="8" y="-100.5" font-family="FreeSans" font-size="10.00" fill="#000000">std::basic_string&lt;</text>
<text text-anchor="middle" x="53.5" y="-88.5" font-family="FreeSans" font-size="10.00" fill="#000000"> char &gt;</text>
</a>
</g>
</g>
<!-- Node4&#45;&gt;Node3 -->
<g id="edge3" class="edge">
<title>Node4&#45;&gt;Node3</title>
<path fill="none" stroke="#191970" d="M117.4289,-97.5C126.5342,-97.5 135.584,-97.5 143.7918,-97.5"/>
<polygon fill="#191970" stroke="#191970" points="117.167,-94.0001 107.167,-97.5 117.167,-101.0001 117.167,-94.0001"/>
</g>
<!-- Node5 -->
<g id="node5" class="node">
<title>Node5</title>
<polygon fill="none" stroke="#bfbfbf" points="775,-142.5 775,-162.5 936,-162.5 936,-142.5 775,-142.5"/>
<text text-anchor="middle" x="855.5" y="-149.5" font-family="FreeSans" font-size="10.00" fill="#000000">std::vector&lt; SubsysReco * &gt;</text>
</g>
<!-- Node5&#45;&gt;Node1 -->
<g id="edge4" class="edge">
<title>Node5&#45;&gt;Node1</title>
<path fill="none" stroke="#9a32cd" stroke-dasharray="5,2" d="M946.1219,-148.4655C991.1176,-146.4622 1044.3518,-144.0922 1084.783,-142.2922"/>
<polygon fill="#9a32cd" stroke="#9a32cd" points="945.8977,-144.9719 936.0633,-148.9133 946.2091,-151.965 945.8977,-144.9719"/>
<text text-anchor="middle" x="1010.5" y="-150.5" font-family="FreeSans" font-size="10.00" fill="#000000"> m_SubsystemsVector</text>
</g>
<!-- Node6&#45;&gt;Node5 -->
<g id="edge5" class="edge">
<title>Node6&#45;&gt;Node5</title>
<path fill="none" stroke="#9a32cd" stroke-dasharray="5,2" d="M650.2363,-160.5972C685.4214,-159.2092 733.9234,-157.2959 774.9461,-155.6777"/>
<polygon fill="#9a32cd" stroke="#9a32cd" points="650.0802,-157.1005 640.226,-160.9921 650.3562,-164.0951 650.0802,-157.1005"/>
<text text-anchor="middle" x="710.5" y="-162.5" font-family="FreeSans" font-size="10.00" fill="#000000"> elements</text>
</g>
<!-- Node7&#45;&gt;Node1 -->
<g id="edge8" class="edge">
<title>Node7&#45;&gt;Node1</title>
<path fill="none" stroke="#9a32cd" stroke-dasharray="5,2" d="M1574.8369,-136.4819C1566.8605,-137.9715 1558.7378,-139.3664 1551,-140.5 1408.9055,-161.3171 1371.2691,-159.4072 1228,-149.5 1222.2397,-149.1017 1216.2596,-148.5744 1210.278,-147.9698"/>
<polygon fill="#9a32cd" stroke="#9a32cd" points="1575.6653,-139.8868 1584.8221,-134.5572 1574.3403,-133.0133 1575.6653,-139.8868"/>
<text text-anchor="middle" x="1370" y="-159.5" font-family="FreeSans" font-size="10.00" fill="#000000"> m_MySyncManager</text>
</g>
<!-- Node8&#45;&gt;Node7 -->
<g id="edge10" class="edge">
<title>Node8&#45;&gt;Node7</title>
<path fill="none" stroke="#9a32cd" stroke-dasharray="5,2" d="M1453.6422,-124.5C1491.0618,-124.5 1534.3934,-124.5 1568.8,-124.5"/>
<polygon fill="#9a32cd" stroke="#9a32cd" points="1453.257,-121.0001 1443.257,-124.5 1453.257,-128.0001 1453.257,-121.0001"/>
<text text-anchor="middle" x="1506" y="-127.5" font-family="FreeSans" font-size="10.00" fill="#000000"> m_InManager</text>
</g>
<!-- Node9 -->
<g id="node9" class="node">
<title>Node9</title>
<g id="a_node9"><a xlink:href="../../de/dbb/classSyncObject.html" target="_top" xlink:title="SyncObject">
<polygon fill="none" stroke="#000000" points="1333,-69.5 1333,-89.5 1407,-89.5 1407,-69.5 1333,-69.5"/>
<text text-anchor="middle" x="1370" y="-76.5" font-family="FreeSans" font-size="10.00" fill="#000000">SyncObject</text>
</a>
</g>
</g>
<!-- Node9&#45;&gt;Node7 -->
<g id="edge12" class="edge">
<title>Node9&#45;&gt;Node7</title>
<path fill="none" stroke="#9a32cd" stroke-dasharray="5,2" d="M1417.0566,-86.5151C1453.64,-92.0956 1505.6277,-100.3028 1551,-108.5 1561.1138,-110.3272 1571.9241,-112.4134 1582.2112,-114.4622"/>
<polygon fill="#9a32cd" stroke="#9a32cd" points="1417.5771,-83.0541 1407.1649,-85.013 1416.5261,-89.9748 1417.5771,-83.0541"/>
<text text-anchor="middle" x="1506" y="-111.5" font-family="FreeSans" font-size="10.00" fill="#000000"> m_MasterSync</text>
</g>
<!-- Node10 -->
<g id="node10" class="node">
<title>Node10</title>
<g id="a_node10"><a xlink:href="../../d9/d24/classPHObject.html" target="_top" xlink:title="PHObject">
<polygon fill="none" stroke="#000000" points="1116,-33.5 1116,-53.5 1179,-53.5 1179,-33.5 1116,-33.5"/>
<text text-anchor="middle" x="1147.5" y="-40.5" font-family="FreeSans" font-size="10.00" fill="#000000">PHObject</text>
</a>
</g>
</g>
<!-- Node10&#45;&gt;Node9 -->
<g id="edge13" class="edge">
<title>Node10&#45;&gt;Node9</title>
<path fill="none" stroke="#191970" d="M1189.4102,-50.281C1230.7757,-56.9738 1293.4122,-67.1083 1332.9893,-73.5118"/>
<polygon fill="#191970" stroke="#191970" points="1189.8095,-46.8001 1179.3788,-48.6579 1188.6914,-53.7103 1189.8095,-46.8001"/>
</g>
<!-- Node11 -->
<g id="node11" class="node">
<title>Node11</title>
<polygon fill="none" stroke="#bfbfbf" points="827,-.5 827,-20.5 884,-20.5 884,-.5 827,-.5"/>
<text text-anchor="middle" x="855.5" y="-7.5" font-family="FreeSans" font-size="10.00" fill="#000000">TObject</text>
</g>
<!-- Node11&#45;&gt;Node10 -->
<g id="edge14" class="edge">
<title>Node11&#45;&gt;Node10</title>
<path fill="none" stroke="#191970" d="M894.3085,-14.8859C952.6597,-21.4804 1061.8839,-33.8242 1115.7713,-39.9142"/>
<polygon fill="#191970" stroke="#191970" points="894.3597,-11.3695 884.0298,-13.7243 893.5735,-18.3252 894.3597,-11.3695"/>
</g>
<!-- Node12 -->
<g id="node12" class="node">
<title>Node12</title>
<polygon fill="none" stroke="#bfbfbf" points="1317,-30.5 1317,-50.5 1423,-50.5 1423,-30.5 1317,-30.5"/>
<text text-anchor="middle" x="1370" y="-37.5" font-family="FreeSans" font-size="10.00" fill="#000000">std::vector&lt; int &gt;</text>
</g>
<!-- Node12&#45;&gt;Node7 -->
<g id="edge15" class="edge">
<title>Node12&#45;&gt;Node7</title>
<path fill="none" stroke="#9a32cd" stroke-dasharray="5,2" d="M1433.3999,-48.1852C1468.8138,-53.7714 1513.273,-62.9633 1551,-77.5 1575.5368,-86.9543 1601.2626,-103.5841 1616.5842,-114.3157"/>
<polygon fill="#9a32cd" stroke="#9a32cd" points="1433.6044,-44.6762 1423.1921,-46.6347 1432.5531,-51.5968 1433.6044,-44.6762"/>
<text text-anchor="middle" x="1506" y="-80.5" font-family="FreeSans" font-size="10.00" fill="#000000"> m_iretInManager</text>
</g>
<!-- Node13&#45;&gt;Node1 -->
<g id="edge16" class="edge">
<title>Node13&#45;&gt;Node1</title>
<path fill="none" stroke="#9a32cd" stroke-dasharray="5,2" d="M550.2898,-52.047C584.8245,-51.4368 626.5176,-50.7998 664,-50.5 843.8186,-49.0615 898.012,-25.0195 1067,-86.5 1094.046,-96.3398 1121.088,-116.8824 1135.9223,-129.3041"/>
<polygon fill="#9a32cd" stroke="#9a32cd" points="550.2185,-48.5476 540.283,-52.2265 550.3442,-55.5465 550.2185,-48.5476"/>
<text text-anchor="middle" x="710.5" y="-77.5" font-family="FreeSans" font-size="10.00" fill="#000000"> m_FileListOpened</text>
<text text-anchor="middle" x="710.5" y="-65.5" font-family="FreeSans" font-size="10.00" fill="#000000">m_FileListCopy</text>
<text text-anchor="middle" x="710.5" y="-53.5" font-family="FreeSans" font-size="10.00" fill="#000000">m_FileList</text>
</g>
</g>
</svg>
