<?xml version="1.0" encoding="UTF-8" standalone="no"?>
<!DOCTYPE svg PUBLIC "-//W3C//DTD SVG 1.1//EN"
 "http://www.w3.org/Graphics/SVG/1.1/DTD/svg11.dtd">
<!-- Generated by graphviz version 2.40.1 (20161225.0304)
 -->
<!-- Title: CylinderGeom_Mvtx::get_pixel_from_local_coords Pages: 1 -->
<svg width="292pt" height="92pt"
 viewBox="0.00 0.00 292.00 92.00" xmlns="http://www.w3.org/2000/svg" xmlns:xlink="http://www.w3.org/1999/xlink">
<g id="graph0" class="graph" transform="scale(1 1) rotate(0) translate(4 88)">
<title>CylinderGeom_Mvtx::get_pixel_from_local_coords</title>
<!-- Node1 -->
<g id="node1" class="node">
<title>Node1</title>
<polygon fill="#bfbfbf" stroke="#000000" points="0,-19.5 0,-63.5 124,-63.5 124,-19.5 0,-19.5"/>
<text text-anchor="start" x="8" y="-50.5" font-family="FreeSans" font-size="10.00" fill="#000000">CylinderGeom_Mvtx::</text>
<text text-anchor="start" x="8" y="-38.5" font-family="FreeSans" font-size="10.00" fill="#000000">get_pixel_from_local</text>
<text text-anchor="middle" x="62" y="-26.5" font-family="FreeSans" font-size="10.00" fill="#000000">_coords</text>
</g>
<!-- Node2 -->
<g id="node2" class="node">
<title>Node2</title>
<g id="a_node2"><a xlink:href="../../df/d9b/classCylinderGeom__Mvtx.html#acff5517b65e513c7c84c70723c953c02" target="_top" xlink:title="CylinderGeom_Mvtx::\lget_NX">
<polygon fill="none" stroke="#000000" points="160,-51.5 160,-83.5 284,-83.5 284,-51.5 160,-51.5"/>
<text text-anchor="start" x="168" y="-70.5" font-family="FreeSans" font-size="10.00" fill="#000000">CylinderGeom_Mvtx::</text>
<text text-anchor="middle" x="222" y="-58.5" font-family="FreeSans" font-size="10.00" fill="#000000">get_NX</text>
</a>
</g>
</g>
<!-- Node1&#45;&gt;Node2 -->
<g id="edge1" class="edge">
<title>Node1&#45;&gt;Node2</title>
<path fill="none" stroke="#191970" d="M124.3183,-51.6267C132.7062,-52.9898 141.367,-54.3971 149.9065,-55.7848"/>
<polygon fill="#191970" stroke="#191970" points="149.4198,-59.2516 159.8518,-57.4009 150.5426,-52.3422 149.4198,-59.2516"/>
</g>
<!-- Node3 -->
<g id="node3" class="node">
<title>Node3</title>
<g id="a_node3"><a xlink:href="../../df/d9b/classCylinderGeom__Mvtx.html#a6ca4f1e9e40e3d1c8c75919b8ba4c59d" target="_top" xlink:title="CylinderGeom_Mvtx::\lget_NZ">
<polygon fill="none" stroke="#000000" points="160,-.5 160,-32.5 284,-32.5 284,-.5 160,-.5"/>
<text text-anchor="start" x="168" y="-19.5" font-family="FreeSans" font-size="10.00" fill="#000000">CylinderGeom_Mvtx::</text>
<text text-anchor="middle" x="222" y="-7.5" font-family="FreeSans" font-size="10.00" fill="#000000">get_NZ</text>
</a>
</g>
</g>
<!-- Node1&#45;&gt;Node3 -->
<g id="edge2" class="edge">
<title>Node1&#45;&gt;Node3</title>
<path fill="none" stroke="#191970" d="M124.3183,-31.7628C132.7062,-30.4522 141.367,-29.0989 149.9065,-27.7646"/>
<polygon fill="#191970" stroke="#191970" points="150.512,-31.2126 159.8518,-26.2107 149.4313,-24.2965 150.512,-31.2126"/>
</g>
</g>
</svg>
