<?xml version="1.0" encoding="UTF-8" standalone="no"?>
<!DOCTYPE svg PUBLIC "-//W3C//DTD SVG 1.1//EN"
 "http://www.w3.org/Graphics/SVG/1.1/DTD/svg11.dtd">
<!-- Generated by graphviz version 2.40.1 (20161225.0304)
 -->
<!-- Title: DumpPHG4BlockCellGeomContainer Pages: 1 -->
<svg width="1233pt" height="268pt"
 viewBox="0.00 0.00 1233.00 267.55" xmlns="http://www.w3.org/2000/svg" xmlns:xlink="http://www.w3.org/1999/xlink">
<g id="graph0" class="graph" transform="scale(1 1) rotate(0) translate(4 263.5542)">
<title>DumpPHG4BlockCellGeomContainer</title>
<!-- Node1 -->
<g id="node1" class="node">
<title>Node1</title>
<polygon fill="#bfbfbf" stroke="#000000" points="849,-43.5542 849,-63.5542 1050,-63.5542 1050,-43.5542 849,-43.5542"/>
<text text-anchor="middle" x="949.5" y="-50.5542" font-family="FreeSans" font-size="10.00" fill="#000000">DumpPHG4BlockCellGeomContainer</text>
</g>
<!-- Node2 -->
<g id="node2" class="node">
<title>Node2</title>
<g id="a_node2"><a xlink:href="../../db/d6a/classDumpObject.html" target="_top" xlink:title="DumpObject">
<polygon fill="none" stroke="#000000" points="605,-48.5542 605,-68.5542 685,-68.5542 685,-48.5542 605,-48.5542"/>
<text text-anchor="middle" x="645" y="-55.5542" font-family="FreeSans" font-size="10.00" fill="#000000">DumpObject</text>
</a>
</g>
</g>
<!-- Node2&#45;&gt;Node1 -->
<g id="edge1" class="edge">
<title>Node2&#45;&gt;Node1</title>
<path fill="none" stroke="#191970" d="M695.2885,-57.7284C736.9435,-57.0445 797.4419,-56.0511 848.9704,-55.2049"/>
<polygon fill="#191970" stroke="#191970" points="695.0623,-54.2316 685.1212,-57.8954 695.1773,-61.2306 695.0623,-54.2316"/>
</g>
<!-- Node8 -->
<g id="node8" class="node">
<title>Node8</title>
<polygon fill="none" stroke="#bfbfbf" points="886,-121.5542 886,-153.5542 1013,-153.5542 1013,-121.5542 886,-121.5542"/>
<text text-anchor="start" x="894" y="-140.5542" font-family="FreeSans" font-size="10.00" fill="#000000">std::map&lt; std::string,</text>
<text text-anchor="middle" x="949.5" y="-128.5542" font-family="FreeSans" font-size="10.00" fill="#000000"> DumpObject * &gt;</text>
</g>
<!-- Node2&#45;&gt;Node8 -->
<g id="edge10" class="edge">
<title>Node2&#45;&gt;Node8</title>
<path fill="none" stroke="#9a32cd" stroke-dasharray="5,2" d="M691.9675,-71.2002C733.2817,-82.2731 795.0723,-98.7101 849,-112.5542 860.9292,-115.6166 873.6701,-118.8301 885.9341,-121.8946"/>
<polygon fill="#9a32cd" stroke="#9a32cd" points="692.7471,-67.7857 682.1817,-68.5752 690.9334,-74.5466 692.7471,-67.7857"/>
<text text-anchor="middle" x="767" y="-109.5542" font-family="FreeSans" font-size="10.00" fill="#000000"> elements</text>
</g>
<!-- Node3 -->
<g id="node3" class="node">
<title>Node3</title>
<g id="a_node3"><a xlink:title="STL class.">
<polygon fill="none" stroke="#bfbfbf" points="440.5,-151.5542 440.5,-171.5542 507.5,-171.5542 507.5,-151.5542 440.5,-151.5542"/>
<text text-anchor="middle" x="474" y="-158.5542" font-family="FreeSans" font-size="10.00" fill="#000000">std::string</text>
</a>
</g>
</g>
<!-- Node3&#45;&gt;Node2 -->
<g id="edge2" class="edge">
<title>Node3&#45;&gt;Node2</title>
<path fill="none" stroke="#9a32cd" stroke-dasharray="5,2" d="M487.8763,-143.397C498.6932,-130.2801 514.7364,-112.9384 532,-101.5542 554.7804,-86.532 583.5642,-75.6782 606.3797,-68.6331"/>
<polygon fill="#9a32cd" stroke="#9a32cd" points="485.0689,-141.3037 481.5625,-151.3015 490.5383,-145.6725 485.0689,-141.3037"/>
<text text-anchor="middle" x="559.5" y="-116.5542" font-family="FreeSans" font-size="10.00" fill="#000000"> ThisName</text>
<text text-anchor="middle" x="559.5" y="-104.5542" font-family="FreeSans" font-size="10.00" fill="#000000">OutDir</text>
</g>
<!-- Node5 -->
<g id="node5" class="node">
<title>Node5</title>
<g id="a_node5"><a xlink:href="../../d9/dc9/classPHNodeDump.html" target="_top" xlink:title="PHNodeDump">
<polygon fill="none" stroke="#000000" points="1138,-127.5542 1138,-147.5542 1225,-147.5542 1225,-127.5542 1138,-127.5542"/>
<text text-anchor="middle" x="1181.5" y="-134.5542" font-family="FreeSans" font-size="10.00" fill="#000000">PHNodeDump</text>
</a>
</g>
</g>
<!-- Node3&#45;&gt;Node5 -->
<g id="edge11" class="edge">
<title>Node3&#45;&gt;Node5</title>
<path fill="none" stroke="#9a32cd" stroke-dasharray="5,2" d="M517.9391,-167.4202C522.678,-167.8847 527.4346,-168.2797 532,-168.5542 599.8774,-172.6354 617.0016,-169.0199 685,-168.5542 847.2336,-167.4431 888.2533,-176.1631 1050,-163.5542 1081.3319,-161.1117 1089.1883,-159.7426 1120,-153.5542 1128.3287,-151.8814 1137.211,-149.7674 1145.5605,-147.6289"/>
<polygon fill="#9a32cd" stroke="#9a32cd" points="517.9924,-163.9057 507.6744,-166.312 517.2409,-170.8652 517.9924,-163.9057"/>
<text text-anchor="middle" x="767" y="-172.5542" font-family="FreeSans" font-size="10.00" fill="#000000"> outdir</text>
</g>
<!-- Node7 -->
<g id="node7" class="node">
<title>Node7</title>
<polygon fill="none" stroke="#bfbfbf" points="703,-216.5542 703,-236.5542 831,-236.5542 831,-216.5542 703,-216.5542"/>
<text text-anchor="middle" x="767" y="-223.5542" font-family="FreeSans" font-size="10.00" fill="#000000">std::set&lt; std::string &gt;</text>
</g>
<!-- Node3&#45;&gt;Node7 -->
<g id="edge7" class="edge">
<title>Node3&#45;&gt;Node7</title>
<path fill="none" stroke="#9a32cd" stroke-dasharray="5,2" d="M495.5019,-177.4813C505.9956,-184.4607 519.114,-192.0688 532,-196.5542 587.6438,-215.9226 654.5973,-223.0086 702.7803,-225.4933"/>
<polygon fill="#9a32cd" stroke="#9a32cd" points="497.2396,-174.4271 487.0277,-171.6041 493.2503,-180.1791 497.2396,-174.4271"/>
<text text-anchor="middle" x="559.5" y="-213.5542" font-family="FreeSans" font-size="10.00" fill="#000000"> keys</text>
</g>
<!-- Node3&#45;&gt;Node8 -->
<g id="edge9" class="edge">
<title>Node3&#45;&gt;Node8</title>
<path fill="none" stroke="#9a32cd" stroke-dasharray="5,2" d="M517.838,-159.3416C602.2589,-155.0806 787.7019,-145.7207 885.7802,-140.7703"/>
<polygon fill="#9a32cd" stroke="#9a32cd" points="517.6264,-155.8477 507.8156,-159.8474 517.9793,-162.8388 517.6264,-155.8477"/>
<text text-anchor="middle" x="645" y="-157.5542" font-family="FreeSans" font-size="10.00" fill="#000000"> keys</text>
</g>
<!-- Node4 -->
<g id="node4" class="node">
<title>Node4</title>
<g id="a_node4"><a xlink:title="STL class.">
<polygon fill="none" stroke="#bfbfbf" points="288,-145.5542 288,-177.5542 395,-177.5542 395,-145.5542 288,-145.5542"/>
<text text-anchor="start" x="296" y="-164.5542" font-family="FreeSans" font-size="10.00" fill="#000000">std::basic_string&lt;</text>
<text text-anchor="middle" x="341.5" y="-152.5542" font-family="FreeSans" font-size="10.00" fill="#000000"> char &gt;</text>
</a>
</g>
</g>
<!-- Node4&#45;&gt;Node3 -->
<g id="edge3" class="edge">
<title>Node4&#45;&gt;Node3</title>
<path fill="none" stroke="#191970" d="M405.1977,-161.5542C417.4005,-161.5542 429.719,-161.5542 440.4938,-161.5542"/>
<polygon fill="#191970" stroke="#191970" points="405.0109,-158.0543 395.0109,-161.5542 405.0109,-165.0543 405.0109,-158.0543"/>
</g>
<!-- Node5&#45;&gt;Node2 -->
<g id="edge4" class="edge">
<title>Node5&#45;&gt;Node2</title>
<path fill="none" stroke="#9a32cd" stroke-dasharray="5,2" d="M1168.2934,-119.5208C1147.0026,-92.1631 1102.1615,-41.2729 1050,-21.5542 914.9406,29.5027 737.2185,-24.6225 671.179,-48.4657"/>
<polygon fill="#9a32cd" stroke="#9a32cd" points="1165.5227,-121.6596 1174.3579,-127.5069 1171.0976,-117.4262 1165.5227,-121.6596"/>
<text text-anchor="middle" x="949.5" y="-24.5542" font-family="FreeSans" font-size="10.00" fill="#000000"> myNodeDump</text>
</g>
<!-- Node6 -->
<g id="node6" class="node">
<title>Node6</title>
<g id="a_node6"><a xlink:href="../../db/d8e/classPHNodeOperation.html" target="_top" xlink:title="PHNodeOperation">
<polygon fill="none" stroke="#000000" points="896.5,-82.5542 896.5,-102.5542 1002.5,-102.5542 1002.5,-82.5542 896.5,-82.5542"/>
<text text-anchor="middle" x="949.5" y="-89.5542" font-family="FreeSans" font-size="10.00" fill="#000000">PHNodeOperation</text>
</a>
</g>
</g>
<!-- Node6&#45;&gt;Node5 -->
<g id="edge5" class="edge">
<title>Node6&#45;&gt;Node5</title>
<path fill="none" stroke="#191970" d="M1011.1559,-104.5133C1051.0145,-112.2445 1101.9328,-122.1209 1137.6778,-129.0542"/>
<polygon fill="#191970" stroke="#191970" points="1011.7601,-101.0654 1001.2766,-102.5971 1010.4271,-107.9373 1011.7601,-101.0654"/>
</g>
<!-- Node7&#45;&gt;Node5 -->
<g id="edge6" class="edge">
<title>Node7&#45;&gt;Node5</title>
<path fill="none" stroke="#9a32cd" stroke-dasharray="5,2" d="M841.2291,-234.1916C915.2398,-238.6808 1030.4816,-237.0383 1120,-196.5542 1143.9969,-185.7018 1164.3559,-161.4169 1174.5344,-147.6258"/>
<polygon fill="#9a32cd" stroke="#9a32cd" points="841.2753,-230.6872 831.0665,-233.5209 840.8143,-237.672 841.2753,-230.6872"/>
<text text-anchor="middle" x="949.5" y="-250.5542" font-family="FreeSans" font-size="10.00" fill="#000000"> exclusive</text>
<text text-anchor="middle" x="949.5" y="-238.5542" font-family="FreeSans" font-size="10.00" fill="#000000">ignore</text>
</g>
<!-- Node8&#45;&gt;Node5 -->
<g id="edge8" class="edge">
<title>Node8&#45;&gt;Node5</title>
<path fill="none" stroke="#9a32cd" stroke-dasharray="5,2" d="M1023.6158,-137.5542C1061.2321,-137.5542 1105.636,-137.5542 1137.7566,-137.5542"/>
<polygon fill="#9a32cd" stroke="#9a32cd" points="1023.2019,-134.0543 1013.2019,-137.5542 1023.2018,-141.0543 1023.2019,-134.0543"/>
<text text-anchor="middle" x="1094" y="-140.5542" font-family="FreeSans" font-size="10.00" fill="#000000"> dumpthis</text>
</g>
<!-- Node9 -->
<g id="node9" class="node">
<title>Node9</title>
<g id="a_node9"><a xlink:title="STL class.">
<polygon fill="none" stroke="#bfbfbf" points="434,-48.5542 434,-68.5542 514,-68.5542 514,-48.5542 434,-48.5542"/>
<text text-anchor="middle" x="474" y="-55.5542" font-family="FreeSans" font-size="10.00" fill="#000000">std::ostream</text>
</a>
</g>
</g>
<!-- Node9&#45;&gt;Node2 -->
<g id="edge12" class="edge">
<title>Node9&#45;&gt;Node2</title>
<path fill="none" stroke="#9a32cd" stroke-dasharray="5,2" d="M524.3786,-58.5542C550.0448,-58.5542 580.822,-58.5542 604.8634,-58.5542"/>
<polygon fill="#9a32cd" stroke="#9a32cd" points="524.0919,-55.0543 514.0919,-58.5542 524.0919,-62.0543 524.0919,-55.0543"/>
<text text-anchor="middle" x="559.5" y="-61.5542" font-family="FreeSans" font-size="10.00" fill="#000000"> fout</text>
</g>
<!-- Node10 -->
<g id="node10" class="node">
<title>Node10</title>
<g id="a_node10"><a xlink:title="STL class.">
<polygon fill="none" stroke="#bfbfbf" points="286,-42.5542 286,-74.5542 397,-74.5542 397,-42.5542 286,-42.5542"/>
<text text-anchor="start" x="294" y="-61.5542" font-family="FreeSans" font-size="10.00" fill="#000000">std::basic_ostream</text>
<text text-anchor="middle" x="341.5" y="-49.5542" font-family="FreeSans" font-size="10.00" fill="#000000">&lt; char &gt;</text>
</a>
</g>
</g>
<!-- Node10&#45;&gt;Node9 -->
<g id="edge13" class="edge">
<title>Node10&#45;&gt;Node9</title>
<path fill="none" stroke="#191970" d="M407.4775,-58.5542C416.5192,-58.5542 425.5677,-58.5542 433.9493,-58.5542"/>
<polygon fill="#191970" stroke="#191970" points="407.3079,-55.0543 397.3079,-58.5542 407.3079,-62.0543 407.3079,-55.0543"/>
</g>
<!-- Node11 -->
<g id="node11" class="node">
<title>Node11</title>
<g id="a_node11"><a xlink:title="STL class.">
<polygon fill="none" stroke="#bfbfbf" points="119,-48.5542 119,-68.5542 249,-68.5542 249,-48.5542 119,-48.5542"/>
<text text-anchor="middle" x="184" y="-55.5542" font-family="FreeSans" font-size="10.00" fill="#000000">std::basic_ios&lt; Char &gt;</text>
</a>
</g>
</g>
<!-- Node11&#45;&gt;Node10 -->
<g id="edge14" class="edge">
<title>Node11&#45;&gt;Node10</title>
<path fill="none" stroke="#191970" d="M259.6273,-58.5542C268.3593,-58.5542 277.1427,-58.5542 285.547,-58.5542"/>
<polygon fill="#191970" stroke="#191970" points="259.4259,-55.0543 249.4259,-58.5542 259.4259,-62.0543 259.4259,-55.0543"/>
</g>
<!-- Node12 -->
<g id="node12" class="node">
<title>Node12</title>
<g id="a_node12"><a xlink:title="STL class.">
<polygon fill="none" stroke="#bfbfbf" points="0,-48.5542 0,-68.5542 82,-68.5542 82,-48.5542 0,-48.5542"/>
<text text-anchor="middle" x="41" y="-55.5542" font-family="FreeSans" font-size="10.00" fill="#000000">std::ios_base</text>
</a>
</g>
</g>
<!-- Node12&#45;&gt;Node11 -->
<g id="edge15" class="edge">
<title>Node12&#45;&gt;Node11</title>
<path fill="none" stroke="#191970" d="M92.5094,-58.5542C101.0258,-58.5542 109.9536,-58.5542 118.7542,-58.5542"/>
<polygon fill="#191970" stroke="#191970" points="92.3616,-55.0543 82.3615,-58.5542 92.3615,-62.0543 92.3616,-55.0543"/>
</g>
</g>
</svg>
