<?xml version="1.0" encoding="UTF-8" standalone="no"?>
<!DOCTYPE svg PUBLIC "-//W3C//DTD SVG 1.1//EN"
 "http://www.w3.org/Graphics/SVG/1.1/DTD/svg11.dtd">
<!-- Generated by graphviz version 2.40.1 (20161225.0304)
 -->
<!-- Title: PHGenFit::Track::get_charge Pages: 1 -->
<svg width="329pt" height="80pt"
 viewBox="0.00 0.00 329.00 80.00" xmlns="http://www.w3.org/2000/svg" xmlns:xlink="http://www.w3.org/1999/xlink">
<g id="graph0" class="graph" transform="scale(1 1) rotate(0) translate(4 76)">
<title>PHGenFit::Track::get_charge</title>
<!-- Node1 -->
<g id="node1" class="node">
<title>Node1</title>
<polygon fill="#bfbfbf" stroke="#000000" points="0,-22.5 0,-54.5 119,-54.5 119,-22.5 0,-22.5"/>
<text text-anchor="start" x="8" y="-41.5" font-family="FreeSans" font-size="10.00" fill="#000000">PHGenFit::Track::get</text>
<text text-anchor="middle" x="59.5" y="-29.5" font-family="FreeSans" font-size="10.00" fill="#000000">_charge</text>
</g>
<!-- Node2 -->
<g id="node2" class="node">
<title>Node2</title>
<g id="a_node2"><a xlink:href="../../d6/d17/classSVReco.html#a0b5b196a0467d07833fcbb0fa1e47a77" target="_top" xlink:title="Uses the vertex to remake the track.">
<polygon fill="none" stroke="#000000" points="169.5,-51.5 169.5,-71.5 306.5,-71.5 306.5,-51.5 169.5,-51.5"/>
<text text-anchor="middle" x="238" y="-58.5" font-family="FreeSans" font-size="10.00" fill="#000000">SVReco::MakeSvtxTrack</text>
</a>
</g>
</g>
<!-- Node1&#45;&gt;Node2 -->
<g id="edge1" class="edge">
<title>Node1&#45;&gt;Node2</title>
<path fill="none" stroke="#191970" d="M129.7274,-47.5489C142.741,-49.2257 156.3206,-50.9755 169.2884,-52.6464"/>
<polygon fill="#191970" stroke="#191970" points="129.7998,-44.0294 119.4345,-46.2227 128.9052,-50.972 129.7998,-44.0294"/>
</g>
<!-- Node3 -->
<g id="node3" class="node">
<title>Node3</title>
<g id="a_node3"><a xlink:href="../../d9/d91/classPHG4TrackFastSim.html#a27f5d3e1fcab6a5cc74fda92cd51359f" target="_top" xlink:title="PHG4TrackFastSim::MakeSvtx\lTrack">
<polygon fill="none" stroke="#000000" points="155,-.5 155,-32.5 321,-32.5 321,-.5 155,-.5"/>
<text text-anchor="start" x="163" y="-19.5" font-family="FreeSans" font-size="10.00" fill="#000000">PHG4TrackFastSim::MakeSvtx</text>
<text text-anchor="middle" x="238" y="-7.5" font-family="FreeSans" font-size="10.00" fill="#000000">Track</text>
</a>
</g>
</g>
<!-- Node1&#45;&gt;Node3 -->
<g id="edge2" class="edge">
<title>Node1&#45;&gt;Node3</title>
<path fill="none" stroke="#191970" d="M129.429,-29.8813C137.7349,-28.8576 146.2754,-27.805 154.7436,-26.7613"/>
<polygon fill="#191970" stroke="#191970" points="128.9312,-26.4161 119.4345,-31.1131 129.7875,-33.3635 128.9312,-26.4161"/>
</g>
</g>
</svg>
