<?xml version="1.0" encoding="UTF-8" standalone="no"?>
<!DOCTYPE svg PUBLIC "-//W3C//DTD SVG 1.1//EN"
 "http://www.w3.org/Graphics/SVG/1.1/DTD/svg11.dtd">
<!-- Generated by graphviz version 2.40.1 (20161225.0304)
 -->
<!-- Title: PHGenFit::Track::get_ndf Pages: 1 -->
<svg width="351pt" height="80pt"
 viewBox="0.00 0.00 351.00 80.00" xmlns="http://www.w3.org/2000/svg" xmlns:xlink="http://www.w3.org/1999/xlink">
<g id="graph0" class="graph" transform="scale(1 1) rotate(0) translate(4 76)">
<title>PHGenFit::Track::get_ndf</title>
<!-- Node1 -->
<g id="node1" class="node">
<title>Node1</title>
<polygon fill="#bfbfbf" stroke="#000000" points="0,-28.5 0,-48.5 141,-48.5 141,-28.5 0,-28.5"/>
<text text-anchor="middle" x="70.5" y="-35.5" font-family="FreeSans" font-size="10.00" fill="#000000">PHGenFit::Track::get_ndf</text>
</g>
<!-- Node2 -->
<g id="node2" class="node">
<title>Node2</title>
<g id="a_node2"><a xlink:href="../../d6/d17/classSVReco.html#a0b5b196a0467d07833fcbb0fa1e47a77" target="_top" xlink:title="Uses the vertex to remake the track.">
<polygon fill="none" stroke="#000000" points="191.5,-51.5 191.5,-71.5 328.5,-71.5 328.5,-51.5 191.5,-51.5"/>
<text text-anchor="middle" x="260" y="-58.5" font-family="FreeSans" font-size="10.00" fill="#000000">SVReco::MakeSvtxTrack</text>
</a>
</g>
</g>
<!-- Node1&#45;&gt;Node2 -->
<g id="edge1" class="edge">
<title>Node1&#45;&gt;Node2</title>
<path fill="none" stroke="#191970" d="M151.1766,-48.2919C164.5231,-49.9118 178.2507,-51.5779 191.268,-53.1579"/>
<polygon fill="#191970" stroke="#191970" points="151.4117,-44.7948 141.0628,-47.0644 150.5682,-51.7438 151.4117,-44.7948"/>
</g>
<!-- Node3 -->
<g id="node3" class="node">
<title>Node3</title>
<g id="a_node3"><a xlink:href="../../d9/d91/classPHG4TrackFastSim.html#a27f5d3e1fcab6a5cc74fda92cd51359f" target="_top" xlink:title="PHG4TrackFastSim::MakeSvtx\lTrack">
<polygon fill="none" stroke="#000000" points="177,-.5 177,-32.5 343,-32.5 343,-.5 177,-.5"/>
<text text-anchor="start" x="185" y="-19.5" font-family="FreeSans" font-size="10.00" fill="#000000">PHG4TrackFastSim::MakeSvtx</text>
<text text-anchor="middle" x="260" y="-7.5" font-family="FreeSans" font-size="10.00" fill="#000000">Track</text>
</a>
</g>
</g>
<!-- Node1&#45;&gt;Node3 -->
<g id="edge2" class="edge">
<title>Node1&#45;&gt;Node3</title>
<path fill="none" stroke="#191970" d="M151.0256,-29.1514C159.5893,-28.1572 168.3116,-27.1446 176.9041,-26.147"/>
<polygon fill="#191970" stroke="#191970" points="150.5924,-25.6781 141.0628,-30.308 151.3997,-32.6314 150.5924,-25.6781"/>
</g>
</g>
</svg>
