<?xml version="1.0" encoding="UTF-8" standalone="no"?>
<!DOCTYPE svg PUBLIC "-//W3C//DTD SVG 1.1//EN"
 "http://www.w3.org/Graphics/SVG/1.1/DTD/svg11.dtd">
<!-- Generated by graphviz version 2.40.1 (20161225.0304)
 -->
<!-- Title: coresoftware/blob/master/offline/packages/vararray/VariableArrayContainer.cc Pages: 1 -->
<svg width="355pt" height="224pt"
 viewBox="0.00 0.00 355.00 224.00" xmlns="http://www.w3.org/2000/svg" xmlns:xlink="http://www.w3.org/1999/xlink">
<g id="graph0" class="graph" transform="scale(1 1) rotate(0) translate(4 220)">
<title>coresoftware/blob/master/offline/packages/vararray/VariableArrayContainer.cc</title>
<!-- Node1 -->
<g id="node1" class="node">
<title>Node1</title>
<polygon fill="#bfbfbf" stroke="#000000" points="132,-171.5 132,-215.5 283,-215.5 283,-171.5 132,-171.5"/>
<text text-anchor="start" x="140" y="-202.5" font-family="FreeSans" font-size="10.00" fill="#000000">coresoftware/blob/master</text>
<text text-anchor="start" x="140" y="-190.5" font-family="FreeSans" font-size="10.00" fill="#000000">/offline/packages/vararray</text>
<text text-anchor="middle" x="207.5" y="-178.5" font-family="FreeSans" font-size="10.00" fill="#000000">/VariableArrayContainer.cc</text>
</g>
<!-- Node2 -->
<g id="node2" class="node">
<title>Node2</title>
<g id="a_node2"><a xlink:href="../../d3/d4b/VariableArrayContainer_8h.html" target="_top" xlink:title="VariableArrayContainer.h">
<polygon fill="none" stroke="#000000" points="0,-114.5 0,-134.5 143,-134.5 143,-114.5 0,-114.5"/>
<text text-anchor="middle" x="71.5" y="-121.5" font-family="FreeSans" font-size="10.00" fill="#000000">VariableArrayContainer.h</text>
</a>
</g>
</g>
<!-- Node1&#45;&gt;Node2 -->
<g id="edge1" class="edge">
<title>Node1&#45;&gt;Node2</title>
<path fill="none" stroke="#191970" d="M164.0948,-171.4783C143.3087,-160.9323 118.979,-148.5886 100.4763,-139.2012"/>
<polygon fill="#191970" stroke="#191970" points="101.8829,-135.9902 91.3814,-134.5869 98.7157,-142.2327 101.8829,-135.9902"/>
</g>
<!-- Node6 -->
<g id="node6" class="node">
<title>Node6</title>
<g id="a_node6"><a xlink:href="../../d0/d1d/VariableArray_8h.html" target="_top" xlink:title="VariableArray.h">
<polygon fill="none" stroke="#000000" points="161,-114.5 161,-134.5 254,-134.5 254,-114.5 161,-114.5"/>
<text text-anchor="middle" x="207.5" y="-121.5" font-family="FreeSans" font-size="10.00" fill="#000000">VariableArray.h</text>
</a>
</g>
</g>
<!-- Node1&#45;&gt;Node6 -->
<g id="edge6" class="edge">
<title>Node1&#45;&gt;Node6</title>
<path fill="none" stroke="#191970" d="M207.5,-171.2882C207.5,-162.8377 207.5,-153.2557 207.5,-144.9736"/>
<polygon fill="#191970" stroke="#191970" points="211.0001,-144.7136 207.5,-134.7137 204.0001,-144.7137 211.0001,-144.7136"/>
</g>
<!-- Node8 -->
<g id="node8" class="node">
<title>Node8</title>
<polygon fill="none" stroke="#bfbfbf" points="272,-114.5 272,-134.5 347,-134.5 347,-114.5 272,-114.5"/>
<text text-anchor="middle" x="309.5" y="-121.5" font-family="FreeSans" font-size="10.00" fill="#000000">TObjArray.h</text>
</g>
<!-- Node1&#45;&gt;Node8 -->
<g id="edge10" class="edge">
<title>Node1&#45;&gt;Node8</title>
<path fill="none" stroke="#191970" d="M240.0539,-171.4783C255.0714,-161.3194 272.5551,-149.4922 286.2227,-140.2464"/>
<polygon fill="#191970" stroke="#191970" points="288.2672,-143.089 294.589,-134.5869 284.345,-137.291 288.2672,-143.089"/>
</g>
<!-- Node3 -->
<g id="node3" class="node">
<title>Node3</title>
<g id="a_node3"><a xlink:href="../../df/d32/PHObject_8h.html" target="_top" xlink:title="phool/PHObject.h">
<polygon fill="none" stroke="#000000" points="75.5,-57.5 75.5,-77.5 179.5,-77.5 179.5,-57.5 75.5,-57.5"/>
<text text-anchor="middle" x="127.5" y="-64.5" font-family="FreeSans" font-size="10.00" fill="#000000">phool/PHObject.h</text>
</a>
</g>
</g>
<!-- Node2&#45;&gt;Node3 -->
<g id="edge2" class="edge">
<title>Node2&#45;&gt;Node3</title>
<path fill="none" stroke="#191970" d="M81.5117,-114.3095C89.5547,-106.1229 101.0317,-94.441 110.508,-84.7955"/>
<polygon fill="#191970" stroke="#191970" points="113.0634,-87.1885 117.575,-77.6022 108.0701,-82.2827 113.0634,-87.1885"/>
</g>
<!-- Node5 -->
<g id="node5" class="node">
<title>Node5</title>
<polygon fill="none" stroke="#bfbfbf" points="57.5,-.5 57.5,-20.5 117.5,-20.5 117.5,-.5 57.5,-.5"/>
<text text-anchor="middle" x="87.5" y="-7.5" font-family="FreeSans" font-size="10.00" fill="#000000">iostream</text>
</g>
<!-- Node2&#45;&gt;Node5 -->
<g id="edge5" class="edge">
<title>Node2&#45;&gt;Node5</title>
<path fill="none" stroke="#191970" d="M68.9648,-114.3125C66.0525,-100.9883 62.1958,-76.9883 66.5,-57 68.515,-47.6423 72.5708,-37.8992 76.5853,-29.7634"/>
<polygon fill="#191970" stroke="#191970" points="79.7584,-31.2495 81.3219,-20.7706 73.5649,-27.9873 79.7584,-31.2495"/>
</g>
<!-- Node4 -->
<g id="node4" class="node">
<title>Node4</title>
<polygon fill="none" stroke="#bfbfbf" points="136,-.5 136,-20.5 201,-20.5 201,-.5 136,-.5"/>
<text text-anchor="middle" x="168.5" y="-7.5" font-family="FreeSans" font-size="10.00" fill="#000000">TObject.h</text>
</g>
<!-- Node3&#45;&gt;Node4 -->
<g id="edge3" class="edge">
<title>Node3&#45;&gt;Node4</title>
<path fill="none" stroke="#191970" d="M134.83,-57.3095C140.4854,-49.4472 148.4598,-38.3608 155.2284,-28.9507"/>
<polygon fill="#191970" stroke="#191970" points="158.2355,-30.7641 161.2335,-20.6022 152.5528,-26.6765 158.2355,-30.7641"/>
</g>
<!-- Node3&#45;&gt;Node5 -->
<g id="edge4" class="edge">
<title>Node3&#45;&gt;Node5</title>
<path fill="none" stroke="#191970" d="M120.3488,-57.3095C114.8313,-49.4472 107.0514,-38.3608 100.4479,-28.9507"/>
<polygon fill="#191970" stroke="#191970" points="103.1985,-26.7773 94.5893,-20.6022 97.4686,-30.7983 103.1985,-26.7773"/>
</g>
<!-- Node6&#45;&gt;Node3 -->
<g id="edge7" class="edge">
<title>Node6&#45;&gt;Node3</title>
<path fill="none" stroke="#191970" d="M193.1976,-114.3095C181.2526,-105.7987 164.0055,-93.5102 150.1798,-83.6594"/>
<polygon fill="#191970" stroke="#191970" points="151.8538,-80.5545 141.6786,-77.6022 147.7918,-86.2555 151.8538,-80.5545"/>
</g>
<!-- Node6&#45;&gt;Node5 -->
<g id="edge8" class="edge">
<title>Node6&#45;&gt;Node5</title>
<path fill="none" stroke="#191970" d="M207.2028,-114.1087C206.2618,-99.6748 202.5735,-73.478 188.5,-57 179.7566,-46.7627 150.5568,-33.8766 125.7882,-24.2673"/>
<polygon fill="#191970" stroke="#191970" points="126.808,-20.9107 116.217,-20.6277 124.3199,-27.4536 126.808,-20.9107"/>
</g>
<!-- Node7 -->
<g id="node7" class="node">
<title>Node7</title>
<polygon fill="none" stroke="#bfbfbf" points="236,-57.5 236,-77.5 285,-77.5 285,-57.5 236,-57.5"/>
<text text-anchor="middle" x="260.5" y="-64.5" font-family="FreeSans" font-size="10.00" fill="#000000">vector</text>
</g>
<!-- Node6&#45;&gt;Node7 -->
<g id="edge9" class="edge">
<title>Node6&#45;&gt;Node7</title>
<path fill="none" stroke="#191970" d="M216.9753,-114.3095C224.5121,-106.204 235.2349,-94.672 244.1513,-85.0826"/>
<polygon fill="#191970" stroke="#191970" points="246.8604,-87.3089 251.1067,-77.6022 241.734,-82.5423 246.8604,-87.3089"/>
</g>
</g>
</svg>
