<?xml version="1.0" encoding="UTF-8" standalone="no"?>
<!DOCTYPE svg PUBLIC "-//W3C//DTD SVG 1.1//EN"
 "http://www.w3.org/Graphics/SVG/1.1/DTD/svg11.dtd">
<!-- Generated by graphviz version 2.40.1 (20161225.0304)
 -->
<!-- Title: QAG4SimulationCalorimeterSum::flag Pages: 1 -->
<svg width="362pt" height="143pt"
 viewBox="0.00 0.00 362.00 143.00" xmlns="http://www.w3.org/2000/svg" xmlns:xlink="http://www.w3.org/1999/xlink">
<g id="graph0" class="graph" transform="scale(1 1) rotate(0) translate(4 139)">
<title>QAG4SimulationCalorimeterSum::flag</title>
<!-- Node1 -->
<g id="node1" class="node">
<title>Node1</title>
<polygon fill="#bfbfbf" stroke="#000000" points="0,-51.5 0,-83.5 159,-83.5 159,-51.5 0,-51.5"/>
<text text-anchor="start" x="8" y="-70.5" font-family="FreeSans" font-size="10.00" fill="#000000">QAG4SimulationCalorimeter</text>
<text text-anchor="middle" x="79.5" y="-58.5" font-family="FreeSans" font-size="10.00" fill="#000000">Sum::flag</text>
</g>
<!-- Node2 -->
<g id="node2" class="node">
<title>Node2</title>
<g id="a_node2"><a xlink:href="../../d4/d90/classQAG4SimulationCalorimeterSum.html#a756cd27c08e1b44f20dc2636dd5e32dc" target="_top" xlink:title="QAG4SimulationCalorimeter\lSum::Init">
<polygon fill="none" stroke="#000000" points="195,-102.5 195,-134.5 354,-134.5 354,-102.5 195,-102.5"/>
<text text-anchor="start" x="203" y="-121.5" font-family="FreeSans" font-size="10.00" fill="#000000">QAG4SimulationCalorimeter</text>
<text text-anchor="middle" x="274.5" y="-109.5" font-family="FreeSans" font-size="10.00" fill="#000000">Sum::Init</text>
</a>
</g>
</g>
<!-- Node1&#45;&gt;Node2 -->
<g id="edge1" class="edge">
<title>Node1&#45;&gt;Node2</title>
<path fill="none" stroke="#191970" d="M150.8011,-86.148C171.2118,-91.4862 193.277,-97.2571 213.0423,-102.4264"/>
<polygon fill="#191970" stroke="#191970" points="151.4918,-82.711 140.9316,-83.5667 149.7205,-89.4832 151.4918,-82.711"/>
</g>
<!-- Node3 -->
<g id="node3" class="node">
<title>Node3</title>
<g id="a_node3"><a xlink:href="../../d4/d90/classQAG4SimulationCalorimeterSum.html#a38b45d3bfc567d391e9319cfde27813b" target="_top" xlink:title="QAG4SimulationCalorimeter\lSum::InitRun">
<polygon fill="none" stroke="#000000" points="195,-51.5 195,-83.5 354,-83.5 354,-51.5 195,-51.5"/>
<text text-anchor="start" x="203" y="-70.5" font-family="FreeSans" font-size="10.00" fill="#000000">QAG4SimulationCalorimeter</text>
<text text-anchor="middle" x="274.5" y="-58.5" font-family="FreeSans" font-size="10.00" fill="#000000">Sum::InitRun</text>
</a>
</g>
</g>
<!-- Node1&#45;&gt;Node3 -->
<g id="edge2" class="edge">
<title>Node1&#45;&gt;Node3</title>
<path fill="none" stroke="#191970" d="M169.117,-67.5C177.6999,-67.5 186.3647,-67.5 194.8432,-67.5"/>
<polygon fill="#191970" stroke="#191970" points="169.0953,-64.0001 159.0952,-67.5 169.0952,-71.0001 169.0953,-64.0001"/>
</g>
<!-- Node4 -->
<g id="node4" class="node">
<title>Node4</title>
<g id="a_node4"><a xlink:href="../../d4/d90/classQAG4SimulationCalorimeterSum.html#a2104cb16e224c7eb39b9c5aed8aed4f0" target="_top" xlink:title="QAG4SimulationCalorimeter\lSum::process_event">
<polygon fill="none" stroke="#000000" points="195,-.5 195,-32.5 354,-32.5 354,-.5 195,-.5"/>
<text text-anchor="start" x="203" y="-19.5" font-family="FreeSans" font-size="10.00" fill="#000000">QAG4SimulationCalorimeter</text>
<text text-anchor="middle" x="274.5" y="-7.5" font-family="FreeSans" font-size="10.00" fill="#000000">Sum::process_event</text>
</a>
</g>
</g>
<!-- Node1&#45;&gt;Node4 -->
<g id="edge3" class="edge">
<title>Node1&#45;&gt;Node4</title>
<path fill="none" stroke="#191970" d="M150.8011,-48.852C171.2118,-43.5138 193.277,-37.7429 213.0423,-32.5736"/>
<polygon fill="#191970" stroke="#191970" points="149.7205,-45.5168 140.9316,-51.4333 151.4918,-52.289 149.7205,-45.5168"/>
</g>
</g>
</svg>
